<?xml version="1.0" encoding="UTF-8" standalone="no"?>
<!DOCTYPE svg PUBLIC "-//W3C//DTD SVG 1.1//EN"
 "http://www.w3.org/Graphics/SVG/1.1/DTD/svg11.dtd">
<!-- Generated by graphviz version 12.1.1 (20240910.0053)
 -->
<!-- Pages: 1 -->
<svg width="985pt" height="180pt"
 viewBox="0.00 0.00 985.25 179.70" xmlns="http://www.w3.org/2000/svg" xmlns:xlink="http://www.w3.org/1999/xlink">
<g id="graph0" class="graph" transform="scale(1 1) rotate(0) translate(4 175.7)">
<polygon fill="white" stroke="none" points="-4,4 -4,-175.7 981.25,-175.7 981.25,4 -4,4"/>
<!-- &#45;1 -->
<g id="node1" class="node">
<title>&#45;1</title>
<polygon fill="lightgray" stroke="black" points="555.5,-166.46 532,-166.46 532,-147.96 555.5,-147.96 555.5,-166.46"/>
<text text-anchor="middle" x="543.75" y="-153.91" font-family="Times,serif" font-size="9.00">&#45;1</text>
</g>
<!-- 117 -->
<g id="node26" class="node">
<title>117</title>
<ellipse fill="white" stroke="black" cx="453.75" cy="-85.85" rx="20.86" ry="20.86"/>
<text text-anchor="middle" x="453.75" y="-82.55" font-family="Times,serif" font-size="9.00">117</text>
</g>
<!-- &#45;1&#45;&gt;117 -->
<g id="edge17" class="edge">
<title>&#45;1&#45;&gt;117</title>
<path fill="none" stroke="green" stroke-width="0.44" d="M532.71,-147.7C519.24,-137.32 496.06,-119.45 478.29,-105.76"/>
<polygon fill="green" stroke="green" stroke-width="0.44" points="480.64,-103.16 470.59,-99.83 476.37,-108.7 480.64,-103.16"/>
</g>
<!-- 119 -->
<g id="node28" class="node">
<title>119</title>
<ellipse fill="white" stroke="black" cx="328.75" cy="-85.85" rx="20.86" ry="20.86"/>
<text text-anchor="middle" x="328.75" y="-82.55" font-family="Times,serif" font-size="9.00">119</text>
</g>
<!-- &#45;1&#45;&gt;119 -->
<g id="edge16" class="edge">
<title>&#45;1&#45;&gt;119</title>
<path fill="none" stroke="green" stroke-width="0.2" d="M531.65,-147.59C528.82,-145.81 525.75,-144.07 522.75,-142.71 467.37,-117.6 397.95,-100.87 358.96,-92.69"/>
<polygon fill="green" stroke="green" stroke-width="0.2" points="360.05,-89.34 349.55,-90.76 358.65,-96.2 360.05,-89.34"/>
</g>
<!-- &#45;2 -->
<g id="node2" class="node">
<title>&#45;2</title>
<polygon fill="lightgray" stroke="black" points="283.5,-166.46 260,-166.46 260,-147.96 283.5,-147.96 283.5,-166.46"/>
<text text-anchor="middle" x="271.75" y="-153.91" font-family="Times,serif" font-size="9.00">&#45;2</text>
</g>
<!-- &#45;2&#45;&gt;119 -->
<g id="edge34" class="edge">
<title>&#45;2&#45;&gt;119</title>
<path fill="none" stroke="green" stroke-width="0.18" stroke-dasharray="1,5" d="M278.74,-147.7C286.37,-138.42 298.92,-123.14 309.54,-110.22"/>
<polygon fill="green" stroke="green" stroke-width="0.18" points="312.03,-112.71 315.67,-102.76 306.62,-108.27 312.03,-112.71"/>
</g>
<!-- 120 -->
<g id="node29" class="node">
<title>120</title>
<ellipse fill="white" stroke="black" cx="268.75" cy="-85.85" rx="20.86" ry="20.86"/>
<text text-anchor="middle" x="268.75" y="-82.55" font-family="Times,serif" font-size="9.00">120</text>
</g>
<!-- &#45;2&#45;&gt;120 -->
<g id="edge15" class="edge">
<title>&#45;2&#45;&gt;120</title>
<path fill="none" stroke="red" stroke-width="0.13" d="M271.38,-147.7C271.05,-140 270.54,-128.19 270.05,-117.01"/>
<polygon fill="red" stroke="red" stroke-width="0.13" points="273.56,-117.1 269.63,-107.26 266.57,-117.4 273.56,-117.1"/>
</g>
<!-- &#45;3 -->
<g id="node3" class="node">
<title>&#45;3</title>
<polygon fill="lightgray" stroke="black" points="639.5,-166.46 616,-166.46 616,-147.96 639.5,-147.96 639.5,-166.46"/>
<text text-anchor="middle" x="627.75" y="-153.91" font-family="Times,serif" font-size="9.00">&#45;3</text>
</g>
<!-- &#45;3&#45;&gt;117 -->
<g id="edge29" class="edge">
<title>&#45;3&#45;&gt;117</title>
<path fill="none" stroke="red" stroke-width="0.33" stroke-dasharray="1,5" d="M615.58,-147.74C612.75,-145.96 609.7,-144.17 606.75,-142.71 565.56,-122.27 514.96,-105.26 483.53,-95.57"/>
<polygon fill="red" stroke="red" stroke-width="0.33" points="484.71,-92.27 474.12,-92.71 482.67,-98.97 484.71,-92.27"/>
</g>
<!-- &#45;4 -->
<g id="node4" class="node">
<title>&#45;4</title>
<polygon fill="lightgray" stroke="black" points="153.5,-166.46 130,-166.46 130,-147.96 153.5,-147.96 153.5,-166.46"/>
<text text-anchor="middle" x="141.75" y="-153.91" font-family="Times,serif" font-size="9.00">&#45;4</text>
</g>
<!-- 118 -->
<g id="node27" class="node">
<title>118</title>
<ellipse fill="white" stroke="black" cx="183.75" cy="-85.85" rx="20.86" ry="20.86"/>
<text text-anchor="middle" x="183.75" y="-82.55" font-family="Times,serif" font-size="9.00">118</text>
</g>
<!-- &#45;4&#45;&gt;118 -->
<g id="edge42" class="edge">
<title>&#45;4&#45;&gt;118</title>
<path fill="none" stroke="green" stroke-width="0.13" d="M146.9,-147.7C152.15,-139.03 160.57,-125.13 168.03,-112.81"/>
<polygon fill="green" stroke="green" stroke-width="0.13" points="170.95,-114.75 173.14,-104.38 164.96,-111.12 170.95,-114.75"/>
</g>
<!-- &#45;4&#45;&gt;119 -->
<g id="edge1" class="edge">
<title>&#45;4&#45;&gt;119</title>
<path fill="none" stroke="red" stroke-width="0.36" stroke-dasharray="1,5" d="M153.83,-147.54C156.66,-145.77 159.74,-144.04 162.75,-142.71 219.97,-117.5 241.7,-132.31 298.75,-106.71 300.32,-106.01 301.89,-105.23 303.46,-104.39"/>
<polygon fill="red" stroke="red" stroke-width="0.36" points="304.9,-107.61 311.71,-99.48 301.32,-101.59 304.9,-107.61"/>
</g>
<!-- &#45;4&#45;&gt;120 -->
<g id="edge20" class="edge">
<title>&#45;4&#45;&gt;120</title>
<path fill="none" stroke="green" stroke-width="0.34" stroke-dasharray="1,5" d="M153.63,-148.32C156.58,-146.43 159.76,-144.46 162.75,-142.71 188.77,-127.53 219.27,-111.65 240.86,-100.72"/>
<polygon fill="green" stroke="green" stroke-width="0.34" points="242.29,-103.92 249.65,-96.29 239.14,-97.67 242.29,-103.92"/>
</g>
<!-- &#45;5 -->
<g id="node5" class="node">
<title>&#45;5</title>
<polygon fill="lightgray" stroke="black" points="195.5,-166.46 172,-166.46 172,-147.96 195.5,-147.96 195.5,-166.46"/>
<text text-anchor="middle" x="183.75" y="-153.91" font-family="Times,serif" font-size="9.00">&#45;5</text>
</g>
<!-- &#45;5&#45;&gt;118 -->
<g id="edge11" class="edge">
<title>&#45;5&#45;&gt;118</title>
<path fill="none" stroke="green" stroke-width="0.15" d="M183.75,-147.7C183.75,-140 183.75,-128.19 183.75,-117.01"/>
<polygon fill="green" stroke="green" stroke-width="0.15" points="187.25,-117.29 183.75,-107.29 180.25,-117.29 187.25,-117.29"/>
</g>
<!-- &#45;5&#45;&gt;119 -->
<g id="edge28" class="edge">
<title>&#45;5&#45;&gt;119</title>
<path fill="none" stroke="red" stroke-width="0.19" stroke-dasharray="1,5" d="M195.94,-147.78C198.77,-145.99 201.81,-144.2 204.75,-142.71 244.67,-122.51 258.97,-127.18 298.75,-106.71 300.28,-105.92 301.82,-105.08 303.36,-104.19"/>
<polygon fill="red" stroke="red" stroke-width="0.19" points="305.1,-107.24 311.77,-99.01 301.42,-101.28 305.1,-107.24"/>
</g>
<!-- &#45;5&#45;&gt;120 -->
<g id="edge2" class="edge">
<title>&#45;5&#45;&gt;120</title>
<path fill="none" stroke="green" stroke-width="0.18" d="M194.17,-147.7C206.74,-137.44 228.27,-119.88 244.97,-106.25"/>
<polygon fill="green" stroke="green" stroke-width="0.18" points="246.97,-109.14 252.51,-100.1 242.55,-103.71 246.97,-109.14"/>
</g>
<!-- &#45;6 -->
<g id="node6" class="node">
<title>&#45;6</title>
<polygon fill="lightgray" stroke="black" points="65.5,-166.46 42,-166.46 42,-147.96 65.5,-147.96 65.5,-166.46"/>
<text text-anchor="middle" x="53.75" y="-153.91" font-family="Times,serif" font-size="9.00">&#45;6</text>
</g>
<!-- &#45;6&#45;&gt;118 -->
<g id="edge39" class="edge">
<title>&#45;6&#45;&gt;118</title>
<path fill="none" stroke="red" stroke-width="0.27" d="M65.62,-148.29C68.57,-146.41 71.75,-144.44 74.75,-142.71 101.72,-127.18 133.47,-111.15 155.73,-100.27"/>
<polygon fill="red" stroke="red" stroke-width="0.27" points="157.11,-103.49 164.58,-95.97 154.05,-97.19 157.11,-103.49"/>
</g>
<!-- &#45;7 -->
<g id="node7" class="node">
<title>&#45;7</title>
<polygon fill="lightgray" stroke="black" points="597.5,-166.46 574,-166.46 574,-147.96 597.5,-147.96 597.5,-166.46"/>
<text text-anchor="middle" x="585.75" y="-153.91" font-family="Times,serif" font-size="9.00">&#45;7</text>
</g>
<!-- &#45;7&#45;&gt;117 -->
<g id="edge10" class="edge">
<title>&#45;7&#45;&gt;117</title>
<path fill="none" stroke="red" stroke-width="0.56" d="M573.89,-148.28C570.94,-146.39 567.76,-144.43 564.75,-142.71 537.29,-127.04 504.89,-111 482.21,-100.16"/>
<polygon fill="red" stroke="red" stroke-width="0.56" points="483.83,-97.05 473.29,-95.92 480.83,-103.37 483.83,-97.05"/>
</g>
<!-- &#45;8 -->
<g id="node8" class="node">
<title>&#45;8</title>
<polygon fill="lightgray" stroke="black" points="23.5,-166.46 0,-166.46 0,-147.96 23.5,-147.96 23.5,-166.46"/>
<text text-anchor="middle" x="11.75" y="-153.91" font-family="Times,serif" font-size="9.00">&#45;8</text>
</g>
<!-- 3 -->
<g id="node24" class="node">
<title>3</title>
<ellipse fill="lightblue" stroke="black" cx="270.75" cy="-14.5" rx="14.5" ry="14.5"/>
<text text-anchor="middle" x="270.75" y="-11.2" font-family="Times,serif" font-size="9.00">3</text>
</g>
<!-- &#45;8&#45;&gt;3 -->
<g id="edge43" class="edge">
<title>&#45;8&#45;&gt;3</title>
<path fill="none" stroke="red" stroke-width="0.13" stroke-dasharray="1,5" d="M23.74,-148.5C26.69,-146.61 29.83,-144.58 32.75,-142.71 86.52,-108.16 97.22,-94.82 153.75,-64.99 185.33,-48.33 223.75,-32.95 247.74,-23.89"/>
<polygon fill="red" stroke="red" stroke-width="0.13" points="248.74,-27.25 256.88,-20.48 246.29,-20.69 248.74,-27.25"/>
</g>
<!-- &#45;8&#45;&gt;118 -->
<g id="edge38" class="edge">
<title>&#45;8&#45;&gt;118</title>
<path fill="none" stroke="red" stroke-width="0.51" stroke-dasharray="1,5" d="M23.93,-147.75C26.75,-145.97 29.8,-144.18 32.75,-142.71 73.02,-122.62 122.37,-105.7 153.45,-95.92"/>
<polygon fill="red" stroke="red" stroke-width="0.51" points="154.38,-99.29 162.9,-92.99 152.31,-92.6 154.38,-99.29"/>
</g>
<!-- &#45;8&#45;&gt;120 -->
<g id="edge22" class="edge">
<title>&#45;8&#45;&gt;120</title>
<path fill="none" stroke="green" stroke-width="0.42" d="M23.32,-147.68C26.28,-145.81 29.54,-144.01 32.75,-142.71 108.8,-112 134.73,-128.7 213.75,-106.71 222.21,-104.36 231.23,-101.33 239.47,-98.35"/>
<polygon fill="green" stroke="green" stroke-width="0.42" points="240.64,-101.64 248.79,-94.87 238.2,-95.08 240.64,-101.64"/>
</g>
<!-- &#45;9 -->
<g id="node9" class="node">
<title>&#45;9</title>
<polygon fill="lightgray" stroke="black" points="681.5,-166.46 658,-166.46 658,-147.96 681.5,-147.96 681.5,-166.46"/>
<text text-anchor="middle" x="669.75" y="-153.91" font-family="Times,serif" font-size="9.00">&#45;9</text>
</g>
<!-- &#45;10 -->
<g id="node10" class="node">
<title>&#45;10</title>
<polygon fill="lightgray" stroke="black" points="727.75,-166.46 699.75,-166.46 699.75,-147.96 727.75,-147.96 727.75,-166.46"/>
<text text-anchor="middle" x="713.75" y="-153.91" font-family="Times,serif" font-size="9.00">&#45;10</text>
</g>
<!-- &#45;11 -->
<g id="node11" class="node">
<title>&#45;11</title>
<polygon fill="lightgray" stroke="black" points="773.75,-166.46 745.75,-166.46 745.75,-147.96 773.75,-147.96 773.75,-166.46"/>
<text text-anchor="middle" x="759.75" y="-153.91" font-family="Times,serif" font-size="9.00">&#45;11</text>
</g>
<!-- &#45;12 -->
<g id="node12" class="node">
<title>&#45;12</title>
<polygon fill="lightgray" stroke="black" points="513.75,-166.46 485.75,-166.46 485.75,-147.96 513.75,-147.96 513.75,-166.46"/>
<text text-anchor="middle" x="499.75" y="-153.91" font-family="Times,serif" font-size="9.00">&#45;12</text>
</g>
<!-- &#45;12&#45;&gt;117 -->
<g id="edge23" class="edge">
<title>&#45;12&#45;&gt;117</title>
<path fill="none" stroke="green" stroke-width="0.37" d="M494.11,-147.7C488.32,-138.97 479.02,-124.94 470.8,-112.56"/>
<polygon fill="green" stroke="green" stroke-width="0.37" points="473.83,-110.79 465.38,-104.39 467.99,-114.66 473.83,-110.79"/>
</g>
<!-- &#45;12&#45;&gt;120 -->
<g id="edge5" class="edge">
<title>&#45;12&#45;&gt;120</title>
<path fill="none" stroke="green" stroke-width="0.15" d="M486.99,-147.72C483.75,-145.85 480.21,-144.03 476.75,-142.71 401.36,-113.89 373.34,-137.56 298.75,-106.71 297.16,-106.05 295.57,-105.31 293.99,-104.5"/>
<polygon fill="green" stroke="green" stroke-width="0.15" points="295.84,-101.53 285.44,-99.51 292.31,-107.57 295.84,-101.53"/>
</g>
<!-- &#45;13 -->
<g id="node13" class="node">
<title>&#45;13</title>
<polygon fill="lightgray" stroke="black" points="819.75,-166.46 791.75,-166.46 791.75,-147.96 819.75,-147.96 819.75,-166.46"/>
<text text-anchor="middle" x="805.75" y="-153.91" font-family="Times,serif" font-size="9.00">&#45;13</text>
</g>
<!-- &#45;14 -->
<g id="node14" class="node">
<title>&#45;14</title>
<polygon fill="lightgray" stroke="black" points="375.75,-166.46 347.75,-166.46 347.75,-147.96 375.75,-147.96 375.75,-166.46"/>
<text text-anchor="middle" x="361.75" y="-153.91" font-family="Times,serif" font-size="9.00">&#45;14</text>
</g>
<!-- &#45;14&#45;&gt;119 -->
<g id="edge35" class="edge">
<title>&#45;14&#45;&gt;119</title>
<path fill="none" stroke="red" stroke-width="0.11" d="M357.7,-147.7C353.7,-139.29 347.35,-125.95 341.62,-113.91"/>
<polygon fill="red" stroke="red" stroke-width="0.11" points="344.94,-112.72 337.48,-105.2 338.62,-115.73 344.94,-112.72"/>
</g>
<!-- &#45;14&#45;&gt;120 -->
<g id="edge31" class="edge">
<title>&#45;14&#45;&gt;120</title>
<path fill="none" stroke="red" stroke-width="0.14" stroke-dasharray="1,5" d="M350.35,-147.7C336.21,-137.16 311.74,-118.91 293.27,-105.14"/>
<polygon fill="red" stroke="red" stroke-width="0.14" points="295.55,-102.47 285.44,-99.3 291.37,-108.08 295.55,-102.47"/>
</g>
<!-- &#45;15 -->
<g id="node15" class="node">
<title>&#45;15</title>
<polygon fill="lightgray" stroke="black" points="329.75,-166.46 301.75,-166.46 301.75,-147.96 329.75,-147.96 329.75,-166.46"/>
<text text-anchor="middle" x="315.75" y="-153.91" font-family="Times,serif" font-size="9.00">&#45;15</text>
</g>
<!-- &#45;15&#45;&gt;119 -->
<g id="edge36" class="edge">
<title>&#45;15&#45;&gt;119</title>
<path fill="none" stroke="red" stroke-width="0.33" d="M317.34,-147.7C318.8,-139.95 321.03,-128.02 323.14,-116.77"/>
<polygon fill="red" stroke="red" stroke-width="0.33" points="326.52,-117.74 324.92,-107.27 319.64,-116.45 326.52,-117.74"/>
</g>
<!-- &#45;15&#45;&gt;120 -->
<g id="edge40" class="edge">
<title>&#45;15&#45;&gt;120</title>
<path fill="none" stroke="red" stroke-width="0.25" d="M309.99,-147.7C303.97,-138.83 294.25,-124.48 285.76,-111.95"/>
<polygon fill="red" stroke="red" stroke-width="0.25" points="288.86,-110.28 280.35,-103.97 283.06,-114.21 288.86,-110.28"/>
</g>
<!-- &#45;16 -->
<g id="node16" class="node">
<title>&#45;16</title>
<polygon fill="lightgray" stroke="black" points="865.75,-166.46 837.75,-166.46 837.75,-147.96 865.75,-147.96 865.75,-166.46"/>
<text text-anchor="middle" x="851.75" y="-153.91" font-family="Times,serif" font-size="9.00">&#45;16</text>
</g>
<!-- &#45;17 -->
<g id="node17" class="node">
<title>&#45;17</title>
<polygon fill="lightgray" stroke="black" points="421.75,-166.46 393.75,-166.46 393.75,-147.96 421.75,-147.96 421.75,-166.46"/>
<text text-anchor="middle" x="407.75" y="-153.91" font-family="Times,serif" font-size="9.00">&#45;17</text>
</g>
<!-- &#45;17&#45;&gt;117 -->
<g id="edge9" class="edge">
<title>&#45;17&#45;&gt;117</title>
<path fill="none" stroke="green" stroke-width="0.18" d="M413.39,-147.7C419.24,-138.89 428.67,-124.67 436.94,-112.2"/>
<polygon fill="green" stroke="green" stroke-width="0.18" points="439.66,-114.42 442.27,-104.15 433.83,-110.55 439.66,-114.42"/>
</g>
<!-- &#45;17&#45;&gt;118 -->
<g id="edge37" class="edge">
<title>&#45;17&#45;&gt;118</title>
<path fill="none" stroke="green" stroke-width="0.25" d="M394.46,-147.54C391.36,-145.76 388.01,-144.04 384.75,-142.71 322.84,-117.54 302.71,-126.09 238.75,-106.71 230.25,-104.14 221.14,-101 212.83,-97.99"/>
<polygon fill="green" stroke="green" stroke-width="0.25" points="214.13,-94.74 203.54,-94.56 211.71,-101.31 214.13,-94.74"/>
</g>
<!-- &#45;17&#45;&gt;119 -->
<g id="edge6" class="edge">
<title>&#45;17&#45;&gt;119</title>
<path fill="none" stroke="red" stroke-width="0.13" d="M398.06,-147.7C386.63,-137.66 367.21,-120.62 351.84,-107.12"/>
<polygon fill="red" stroke="red" stroke-width="0.13" points="354.19,-104.53 344.37,-100.56 349.58,-109.79 354.19,-104.53"/>
</g>
<!-- &#45;17&#45;&gt;120 -->
<g id="edge7" class="edge">
<title>&#45;17&#45;&gt;120</title>
<path fill="none" stroke="red" stroke-width="0.11" d="M393.81,-147.62C390.86,-145.92 387.73,-144.2 384.75,-142.71 347.69,-124.18 335.3,-126.23 298.75,-106.71 297.23,-105.9 295.7,-105.04 294.16,-104.14"/>
<polygon fill="red" stroke="red" stroke-width="0.11" points="296.02,-101.17 285.69,-98.86 292.32,-107.11 296.02,-101.17"/>
</g>
<!-- &#45;18 -->
<g id="node18" class="node">
<title>&#45;18</title>
<polygon fill="lightgray" stroke="black" points="467.75,-166.46 439.75,-166.46 439.75,-147.96 467.75,-147.96 467.75,-166.46"/>
<text text-anchor="middle" x="453.75" y="-153.91" font-family="Times,serif" font-size="9.00">&#45;18</text>
</g>
<!-- &#45;18&#45;&gt;117 -->
<g id="edge14" class="edge">
<title>&#45;18&#45;&gt;117</title>
<path fill="none" stroke="green" stroke-width="0.45" d="M453.75,-147.7C453.75,-140.16 453.75,-128.67 453.75,-117.7"/>
<polygon fill="green" stroke="green" stroke-width="0.45" points="457.25,-117.75 453.75,-107.75 450.25,-117.75 457.25,-117.75"/>
</g>
<!-- &#45;18&#45;&gt;119 -->
<g id="edge32" class="edge">
<title>&#45;18&#45;&gt;119</title>
<path fill="none" stroke="green" stroke-width="0.1" d="M439.68,-147.86C436.74,-146.14 433.65,-144.35 430.75,-142.71 405.47,-128.37 376.37,-112.5 355.74,-101.35"/>
<polygon fill="green" stroke="green" stroke-width="0.1" points="357.49,-98.32 347.03,-96.65 354.17,-104.48 357.49,-98.32"/>
</g>
<!-- &#45;18&#45;&gt;120 -->
<g id="edge30" class="edge">
<title>&#45;18&#45;&gt;120</title>
<path fill="none" stroke="red" stroke-width="0.1" d="M440.44,-147.6C437.34,-145.82 433.99,-144.08 430.75,-142.71 374.7,-119.12 354.14,-131.81 298.75,-106.71 297.19,-106 295.61,-105.22 294.05,-104.38"/>
<polygon fill="red" stroke="red" stroke-width="0.1" points="295.85,-101.38 285.47,-99.26 292.26,-107.39 295.85,-101.38"/>
</g>
<!-- &#45;19 -->
<g id="node19" class="node">
<title>&#45;19</title>
<polygon fill="lightgray" stroke="black" points="111.75,-166.46 83.75,-166.46 83.75,-147.96 111.75,-147.96 111.75,-166.46"/>
<text text-anchor="middle" x="97.75" y="-153.91" font-family="Times,serif" font-size="9.00">&#45;19</text>
</g>
<!-- &#45;19&#45;&gt;118 -->
<g id="edge8" class="edge">
<title>&#45;19&#45;&gt;118</title>
<path fill="none" stroke="red" stroke-width="0.17" d="M108.3,-147.7C121.09,-137.38 143.06,-119.67 160,-106"/>
<polygon fill="red" stroke="red" stroke-width="0.17" points="162.06,-108.84 167.65,-99.84 157.66,-103.39 162.06,-108.84"/>
</g>
<!-- &#45;19&#45;&gt;120 -->
<g id="edge18" class="edge">
<title>&#45;19&#45;&gt;120</title>
<path fill="none" stroke="red" stroke-width="0.26" d="M111.65,-147.54C114.61,-145.84 117.74,-144.15 120.75,-142.71 131.83,-137.41 199.72,-112.23 239.6,-97.55"/>
<polygon fill="red" stroke="red" stroke-width="0.26" points="240.77,-100.85 248.94,-94.11 238.35,-94.28 240.77,-100.85"/>
</g>
<!-- &#45;20 -->
<g id="node20" class="node">
<title>&#45;20</title>
<polygon fill="lightgray" stroke="black" points="241.75,-166.46 213.75,-166.46 213.75,-147.96 241.75,-147.96 241.75,-166.46"/>
<text text-anchor="middle" x="227.75" y="-153.91" font-family="Times,serif" font-size="9.00">&#45;20</text>
</g>
<!-- &#45;20&#45;&gt;117 -->
<g id="edge27" class="edge">
<title>&#45;20&#45;&gt;117</title>
<path fill="none" stroke="green" stroke-width="0.13" d="M241.06,-147.6C244.16,-145.83 247.51,-144.08 250.75,-142.71 266.77,-135.94 371.16,-108.37 423.68,-94.66"/>
<polygon fill="green" stroke="green" stroke-width="0.13" points="424.46,-98.07 433.25,-92.16 422.7,-91.3 424.46,-98.07"/>
</g>
<!-- &#45;20&#45;&gt;118 -->
<g id="edge4" class="edge">
<title>&#45;20&#45;&gt;118</title>
<path fill="none" stroke="green" stroke-width="0.3" d="M222.35,-147.7C216.81,-138.97 207.92,-124.94 200.06,-112.56"/>
<polygon fill="green" stroke="green" stroke-width="0.3" points="203.14,-110.89 194.83,-104.32 197.23,-114.64 203.14,-110.89"/>
</g>
<!-- &#45;20&#45;&gt;120 -->
<g id="edge33" class="edge">
<title>&#45;20&#45;&gt;120</title>
<path fill="none" stroke="red" stroke-width="0.17" stroke-dasharray="1,5" d="M232.78,-147.7C237.87,-139.09 246.01,-125.32 253.26,-113.05"/>
<polygon fill="red" stroke="red" stroke-width="0.17" points="256.12,-115.1 258.19,-104.71 250.09,-111.54 256.12,-115.1"/>
</g>
<!-- 0 -->
<g id="node21" class="node">
<title>0</title>
<ellipse fill="lightblue" stroke="black" cx="897.75" cy="-157.21" rx="14.5" ry="14.5"/>
<text text-anchor="middle" x="897.75" y="-153.91" font-family="Times,serif" font-size="9.00">0</text>
</g>
<!-- 0&#45;&gt;0 -->
<g id="edge3" class="edge">
<title>0&#45;&gt;0</title>
<path fill="none" stroke="red" stroke-width="0.17" d="M908.07,-167.65C918.56,-173.79 930.25,-170.31 930.25,-157.21 930.25,-148.2 924.72,-143.74 917.86,-143.83"/>
<polygon fill="red" stroke="red" stroke-width="0.17" points="916.88,-140.47 908.31,-146.69 918.9,-147.17 916.88,-140.47"/>
</g>
<!-- 1 -->
<g id="node22" class="node">
<title>1</title>
<ellipse fill="lightblue" stroke="black" cx="324.75" cy="-14.5" rx="14.5" ry="14.5"/>
<text text-anchor="middle" x="324.75" y="-11.2" font-family="Times,serif" font-size="9.00">1</text>
</g>
<!-- 2 -->
<g id="node23" class="node">
<title>2</title>
<ellipse fill="lightblue" stroke="black" cx="210.75" cy="-14.5" rx="14.5" ry="14.5"/>
<text text-anchor="middle" x="210.75" y="-11.2" font-family="Times,serif" font-size="9.00">2</text>
</g>
<!-- 4 -->
<g id="node25" class="node">
<title>4</title>
<ellipse fill="lightblue" stroke="black" cx="962.75" cy="-157.21" rx="14.5" ry="14.5"/>
<text text-anchor="middle" x="962.75" y="-153.91" font-family="Times,serif" font-size="9.00">4</text>
</g>
<!-- 117&#45;&gt;1 -->
<g id="edge12" class="edge">
<title>117&#45;&gt;1</title>
<path fill="none" stroke="red" stroke-width="0.4" d="M435.54,-75.06C412.12,-62.47 371.49,-40.62 346.48,-27.18"/>
<polygon fill="red" stroke="red" stroke-width="0.4" points="348.42,-24.25 337.96,-22.6 345.11,-30.41 348.42,-24.25"/>
</g>
<!-- 117&#45;&gt;3 -->
<g id="edge26" class="edge">
<title>117&#45;&gt;3</title>
<path fill="none" stroke="red" stroke-width="0.33" d="M433.93,-77.98C404.78,-67.79 348.72,-47.83 301.75,-28.99 299.08,-27.92 296.3,-26.77 293.55,-25.6"/>
<polygon fill="red" stroke="red" stroke-width="0.33" points="294.98,-22.4 284.41,-21.64 292.19,-28.83 294.98,-22.4"/>
</g>
<!-- 118&#45;&gt;1 -->
<g id="edge24" class="edge">
<title>118&#45;&gt;1</title>
<path fill="none" stroke="green" stroke-width="0.25" stroke-dasharray="1,5" d="M202.47,-75.64C228.36,-62.91 275,-39.96 302.59,-26.39"/>
<polygon fill="green" stroke="green" stroke-width="0.25" points="304.06,-29.57 311.49,-22.02 300.97,-23.29 304.06,-29.57"/>
</g>
<!-- 118&#45;&gt;2 -->
<g id="edge21" class="edge">
<title>118&#45;&gt;2</title>
<path fill="none" stroke="green" stroke-width="0.19" d="M191.13,-65.9C194.49,-57.27 198.48,-47 201.99,-37.99"/>
<polygon fill="green" stroke="green" stroke-width="0.19" points="205.22,-39.35 205.58,-28.77 198.69,-36.81 205.22,-39.35"/>
</g>
<!-- 119&#45;&gt;1 -->
<g id="edge13" class="edge">
<title>119&#45;&gt;1</title>
<path fill="none" stroke="red" stroke-width="0.32" d="M327.59,-64.79C327.14,-56.98 326.62,-47.96 326.15,-39.78"/>
<polygon fill="red" stroke="red" stroke-width="0.32" points="329.65,-39.62 325.58,-29.83 322.66,-40.02 329.65,-39.62"/>
</g>
<!-- 119&#45;&gt;119 -->
<g id="edge19" class="edge">
<title>119&#45;&gt;119</title>
<path fill="none" stroke="green" stroke-width="0.43" stroke-dasharray="1,5" d="M345.93,-98.17C356.98,-101.39 367.61,-97.28 367.61,-85.85 367.61,-78.17 362.81,-73.8 356.31,-72.73"/>
<polygon fill="green" stroke="green" stroke-width="0.43" points="356.27,-69.22 346.57,-73.48 356.81,-76.2 356.27,-69.22"/>
</g>
<!-- 120&#45;&gt;1 -->
<g id="edge41" class="edge">
<title>120&#45;&gt;1</title>
<path fill="none" stroke="green" stroke-width="0.46" d="M281.46,-69.11C289.81,-58.77 300.78,-45.18 309.59,-34.27"/>
<polygon fill="green" stroke="green" stroke-width="0.46" points="312.1,-36.74 315.66,-26.76 306.65,-32.34 312.1,-36.74"/>
</g>
<!-- 120&#45;&gt;2 -->
<g id="edge25" class="edge">
<title>120&#45;&gt;2</title>
<path fill="none" stroke="green" stroke-width="0.16" d="M255.59,-69.11C246.85,-58.67 235.35,-44.91 226.18,-33.95"/>
<polygon fill="green" stroke="green" stroke-width="0.16" points="228.97,-31.83 219.87,-26.4 223.6,-36.32 228.97,-31.83"/>
</g>
</g>
</svg>
