<?xml version="1.0" encoding="UTF-8" standalone="no"?>
<!DOCTYPE svg PUBLIC "-//W3C//DTD SVG 1.1//EN"
 "http://www.w3.org/Graphics/SVG/1.1/DTD/svg11.dtd">
<!-- Generated by graphviz version 12.1.1 (20240910.0053)
 -->
<!-- Pages: 1 -->
<svg width="828pt" height="325pt"
 viewBox="0.00 0.00 827.75 324.65" xmlns="http://www.w3.org/2000/svg" xmlns:xlink="http://www.w3.org/1999/xlink">
<g id="graph0" class="graph" transform="scale(1 1) rotate(0) translate(4 320.65)">
<polygon fill="white" stroke="none" points="-4,4 -4,-320.65 823.75,-320.65 823.75,4 -4,4"/>
<!-- &#45;1 -->
<g id="node1" class="node">
<title>&#45;1</title>
<polygon fill="lightgray" stroke="black" points="23.5,-316.65 0,-316.65 0,-298.15 23.5,-298.15 23.5,-316.65"/>
<text text-anchor="middle" x="11.75" y="-304.1" font-family="Times,serif" font-size="9.00">&#45;1</text>
</g>
<!-- &#45;2 -->
<g id="node2" class="node">
<title>&#45;2</title>
<polygon fill="lightgray" stroke="black" points="65.5,-316.65 42,-316.65 42,-298.15 65.5,-298.15 65.5,-316.65"/>
<text text-anchor="middle" x="53.75" y="-304.1" font-family="Times,serif" font-size="9.00">&#45;2</text>
</g>
<!-- &#45;3 -->
<g id="node3" class="node">
<title>&#45;3</title>
<polygon fill="lightgray" stroke="black" points="153.5,-316.65 130,-316.65 130,-298.15 153.5,-298.15 153.5,-316.65"/>
<text text-anchor="middle" x="141.75" y="-304.1" font-family="Times,serif" font-size="9.00">&#45;3</text>
</g>
<!-- 200 -->
<g id="node28" class="node">
<title>200</title>
<ellipse fill="white" stroke="black" cx="245.75" cy="-241.29" rx="20.86" ry="20.86"/>
<text text-anchor="middle" x="245.75" y="-237.99" font-family="Times,serif" font-size="9.00">200</text>
</g>
<!-- &#45;3&#45;&gt;200 -->
<g id="edge14" class="edge">
<title>&#45;3&#45;&gt;200</title>
<path fill="none" stroke="red" stroke-width="0.29" stroke-dasharray="1,5" d="M153.68,-299.05C169.58,-289.25 198.14,-271.64 219.26,-258.62"/>
<polygon fill="red" stroke="red" stroke-width="0.29" points="221.03,-261.64 227.7,-253.42 217.35,-255.68 221.03,-261.64"/>
</g>
<!-- &#45;4 -->
<g id="node4" class="node">
<title>&#45;4</title>
<polygon fill="lightgray" stroke="black" points="681.5,-316.65 658,-316.65 658,-298.15 681.5,-298.15 681.5,-316.65"/>
<text text-anchor="middle" x="669.75" y="-304.1" font-family="Times,serif" font-size="9.00">&#45;4</text>
</g>
<!-- &#45;5 -->
<g id="node5" class="node">
<title>&#45;5</title>
<polygon fill="lightgray" stroke="black" points="195.5,-316.65 172,-316.65 172,-298.15 195.5,-298.15 195.5,-316.65"/>
<text text-anchor="middle" x="183.75" y="-304.1" font-family="Times,serif" font-size="9.00">&#45;5</text>
</g>
<!-- &#45;5&#45;&gt;200 -->
<g id="edge23" class="edge">
<title>&#45;5&#45;&gt;200</title>
<path fill="none" stroke="green" stroke-width="0.16" d="M192.11,-297.75C200.46,-289.12 213.63,-275.5 224.83,-263.92"/>
<polygon fill="green" stroke="green" stroke-width="0.16" points="227.24,-266.47 231.67,-256.84 222.21,-261.6 227.24,-266.47"/>
</g>
<!-- &#45;6 -->
<g id="node6" class="node">
<title>&#45;6</title>
<polygon fill="lightgray" stroke="black" points="237.5,-316.65 214,-316.65 214,-298.15 237.5,-298.15 237.5,-316.65"/>
<text text-anchor="middle" x="225.75" y="-304.1" font-family="Times,serif" font-size="9.00">&#45;6</text>
</g>
<!-- &#45;6&#45;&gt;200 -->
<g id="edge15" class="edge">
<title>&#45;6&#45;&gt;200</title>
<path fill="none" stroke="red" stroke-width="0.22" d="M228.45,-297.75C230.58,-290.9 233.7,-280.92 236.7,-271.3"/>
<polygon fill="red" stroke="red" stroke-width="0.22" points="240,-272.47 239.64,-261.88 233.32,-270.38 240,-272.47"/>
</g>
<!-- &#45;7 -->
<g id="node7" class="node">
<title>&#45;7</title>
<polygon fill="lightgray" stroke="black" points="413.5,-316.65 390,-316.65 390,-298.15 413.5,-298.15 413.5,-316.65"/>
<text text-anchor="middle" x="401.75" y="-304.1" font-family="Times,serif" font-size="9.00">&#45;7</text>
</g>
<!-- 198 -->
<g id="node27" class="node">
<title>198</title>
<ellipse fill="white" stroke="black" cx="371.75" cy="-241.29" rx="20.86" ry="20.86"/>
<text text-anchor="middle" x="371.75" y="-237.99" font-family="Times,serif" font-size="9.00">198</text>
</g>
<!-- &#45;7&#45;&gt;198 -->
<g id="edge10" class="edge">
<title>&#45;7&#45;&gt;198</title>
<path fill="none" stroke="green" stroke-width="0.1" stroke-dasharray="1,5" d="M397.7,-297.75C394.32,-290.53 389.31,-279.82 384.59,-269.74"/>
<polygon fill="green" stroke="green" stroke-width="0.1" points="387.87,-268.48 380.46,-260.9 381.53,-271.44 387.87,-268.48"/>
</g>
<!-- &#45;8 -->
<g id="node8" class="node">
<title>&#45;8</title>
<polygon fill="lightgray" stroke="black" points="501.5,-316.65 478,-316.65 478,-298.15 501.5,-298.15 501.5,-316.65"/>
<text text-anchor="middle" x="489.75" y="-304.1" font-family="Times,serif" font-size="9.00">&#45;8</text>
</g>
<!-- 197 -->
<g id="node26" class="node">
<title>197</title>
<ellipse fill="white" stroke="black" cx="457.75" cy="-241.29" rx="20.86" ry="20.86"/>
<text text-anchor="middle" x="457.75" y="-237.99" font-family="Times,serif" font-size="9.00">197</text>
</g>
<!-- &#45;8&#45;&gt;197 -->
<g id="edge4" class="edge">
<title>&#45;8&#45;&gt;197</title>
<path fill="none" stroke="red" stroke-width="0.16" stroke-dasharray="1,5" d="M485.43,-297.75C481.8,-290.48 476.41,-279.67 471.34,-269.52"/>
<polygon fill="red" stroke="red" stroke-width="0.16" points="474.54,-268.1 466.95,-260.71 468.28,-271.22 474.54,-268.1"/>
</g>
<!-- &#45;9 -->
<g id="node9" class="node">
<title>&#45;9</title>
<polygon fill="lightgray" stroke="black" points="325.5,-316.65 302,-316.65 302,-298.15 325.5,-298.15 325.5,-316.65"/>
<text text-anchor="middle" x="313.75" y="-304.1" font-family="Times,serif" font-size="9.00">&#45;9</text>
</g>
<!-- &#45;9&#45;&gt;197 -->
<g id="edge12" class="edge">
<title>&#45;9&#45;&gt;197</title>
<path fill="none" stroke="red" stroke-width="0.21" d="M325.53,-301.15C348.18,-291.07 398.33,-268.75 429.94,-254.67"/>
<polygon fill="red" stroke="red" stroke-width="0.21" points="431.1,-257.98 438.81,-250.72 428.26,-251.59 431.1,-257.98"/>
</g>
<!-- &#45;9&#45;&gt;200 -->
<g id="edge27" class="edge">
<title>&#45;9&#45;&gt;200</title>
<path fill="none" stroke="green" stroke-width="0.29" d="M304.58,-297.75C295.27,-288.98 280.51,-275.06 268.1,-263.36"/>
<polygon fill="green" stroke="green" stroke-width="0.29" points="270.74,-261.04 261.06,-256.73 265.94,-266.13 270.74,-261.04"/>
</g>
<!-- &#45;10 -->
<g id="node10" class="node">
<title>&#45;10</title>
<polygon fill="lightgray" stroke="black" points="547.75,-316.65 519.75,-316.65 519.75,-298.15 547.75,-298.15 547.75,-316.65"/>
<text text-anchor="middle" x="533.75" y="-304.1" font-family="Times,serif" font-size="9.00">&#45;10</text>
</g>
<!-- &#45;10&#45;&gt;197 -->
<g id="edge11" class="edge">
<title>&#45;10&#45;&gt;197</title>
<path fill="none" stroke="red" stroke-width="0.56" stroke-dasharray="1,5" d="M523.5,-297.75C512.73,-288.67 495.42,-274.07 481.26,-262.12"/>
<polygon fill="red" stroke="red" stroke-width="0.56" points="483.91,-259.78 474.01,-256.01 479.4,-265.13 483.91,-259.78"/>
</g>
<!-- &#45;11 -->
<g id="node11" class="node">
<title>&#45;11</title>
<polygon fill="lightgray" stroke="black" points="524.75,-250.54 496.75,-250.54 496.75,-232.04 524.75,-232.04 524.75,-250.54"/>
<text text-anchor="middle" x="510.75" y="-237.99" font-family="Times,serif" font-size="9.00">&#45;11</text>
</g>
<!-- 4 -->
<g id="node25" class="node">
<title>4</title>
<ellipse fill="lightblue" stroke="black" cx="496.75" cy="-163.57" rx="14.5" ry="14.5"/>
<text text-anchor="middle" x="496.75" y="-160.27" font-family="Times,serif" font-size="9.00">4</text>
</g>
<!-- &#45;11&#45;&gt;4 -->
<g id="edge26" class="edge">
<title>&#45;11&#45;&gt;4</title>
<path fill="none" stroke="red" stroke-width="0.68" stroke-dasharray="1,5" d="M509.14,-231.6C507.22,-221.2 503.92,-203.35 501.21,-188.68"/>
<polygon fill="red" stroke="red" stroke-width="0.68" points="504.73,-188.47 499.47,-179.27 497.84,-189.74 504.73,-188.47"/>
</g>
<!-- &#45;12 -->
<g id="node12" class="node">
<title>&#45;12</title>
<polygon fill="lightgray" stroke="black" points="371.75,-316.65 343.75,-316.65 343.75,-298.15 371.75,-298.15 371.75,-316.65"/>
<text text-anchor="middle" x="357.75" y="-304.1" font-family="Times,serif" font-size="9.00">&#45;12</text>
</g>
<!-- &#45;12&#45;&gt;197 -->
<g id="edge17" class="edge">
<title>&#45;12&#45;&gt;197</title>
<path fill="none" stroke="green" stroke-width="0.39" d="M371.24,-297.75C386.7,-287.84 412.41,-271.36 431.79,-258.93"/>
<polygon fill="green" stroke="green" stroke-width="0.39" points="433.43,-262.04 439.96,-253.7 429.65,-256.15 433.43,-262.04"/>
</g>
<!-- &#45;12&#45;&gt;198 -->
<g id="edge25" class="edge">
<title>&#45;12&#45;&gt;198</title>
<path fill="none" stroke="red" stroke-width="0.15" d="M359.64,-297.75C361.1,-291.08 363.2,-281.42 365.26,-272.03"/>
<polygon fill="red" stroke="red" stroke-width="0.15" points="368.66,-272.84 367.37,-262.33 361.82,-271.35 368.66,-272.84"/>
</g>
<!-- &#45;12&#45;&gt;200 -->
<g id="edge21" class="edge">
<title>&#45;12&#45;&gt;200</title>
<path fill="none" stroke="red" stroke-width="0.22" d="M343.57,-298.28C325.66,-288.03 294.52,-270.21 272.18,-257.42"/>
<polygon fill="red" stroke="red" stroke-width="0.22" points="274.21,-254.55 263.79,-252.62 270.73,-260.62 274.21,-254.55"/>
</g>
<!-- &#45;13 -->
<g id="node13" class="node">
<title>&#45;13</title>
<polygon fill="lightgray" stroke="black" points="727.75,-316.65 699.75,-316.65 699.75,-298.15 727.75,-298.15 727.75,-316.65"/>
<text text-anchor="middle" x="713.75" y="-304.1" font-family="Times,serif" font-size="9.00">&#45;13</text>
</g>
<!-- &#45;14 -->
<g id="node14" class="node">
<title>&#45;14</title>
<polygon fill="lightgray" stroke="black" points="283.75,-316.65 255.75,-316.65 255.75,-298.15 283.75,-298.15 283.75,-316.65"/>
<text text-anchor="middle" x="269.75" y="-304.1" font-family="Times,serif" font-size="9.00">&#45;14</text>
</g>
<!-- &#45;14&#45;&gt;200 -->
<g id="edge18" class="edge">
<title>&#45;14&#45;&gt;200</title>
<path fill="none" stroke="green" stroke-width="0.12" d="M266.51,-297.75C263.9,-290.78 260.08,-280.56 256.42,-270.79"/>
<polygon fill="green" stroke="green" stroke-width="0.12" points="259.72,-269.61 252.93,-261.47 253.16,-272.07 259.72,-269.61"/>
</g>
<!-- &#45;15 -->
<g id="node15" class="node">
<title>&#45;15</title>
<polygon fill="lightgray" stroke="black" points="593.75,-316.65 565.75,-316.65 565.75,-298.15 593.75,-298.15 593.75,-316.65"/>
<text text-anchor="middle" x="579.75" y="-304.1" font-family="Times,serif" font-size="9.00">&#45;15</text>
</g>
<!-- &#45;15&#45;&gt;197 -->
<g id="edge5" class="edge">
<title>&#45;15&#45;&gt;197</title>
<path fill="none" stroke="red" stroke-width="0.54" stroke-dasharray="1,5" d="M565.42,-300.24C547.05,-292.18 514.41,-277.29 487.75,-262.15 486.39,-261.38 485.01,-260.57 483.63,-259.73"/>
<polygon fill="red" stroke="red" stroke-width="0.54" points="485.64,-256.86 475.32,-254.48 481.9,-262.78 485.64,-256.86"/>
</g>
<!-- &#45;16 -->
<g id="node16" class="node">
<title>&#45;16</title>
<polygon fill="lightgray" stroke="black" points="111.75,-316.65 83.75,-316.65 83.75,-298.15 111.75,-298.15 111.75,-316.65"/>
<text text-anchor="middle" x="97.75" y="-304.1" font-family="Times,serif" font-size="9.00">&#45;16</text>
</g>
<!-- &#45;16&#45;&gt;200 -->
<g id="edge22" class="edge">
<title>&#45;16&#45;&gt;200</title>
<path fill="none" stroke="red" stroke-width="0.1" d="M112.21,-300.14C136.6,-289.57 186.32,-268.03 217.73,-254.43"/>
<polygon fill="red" stroke="red" stroke-width="0.1" points="218.92,-257.73 226.7,-250.54 216.14,-251.3 218.92,-257.73"/>
</g>
<!-- &#45;17 -->
<g id="node17" class="node">
<title>&#45;17</title>
<polygon fill="lightgray" stroke="black" points="639.75,-316.65 611.75,-316.65 611.75,-298.15 639.75,-298.15 639.75,-316.65"/>
<text text-anchor="middle" x="625.75" y="-304.1" font-family="Times,serif" font-size="9.00">&#45;17</text>
</g>
<!-- &#45;17&#45;&gt;197 -->
<g id="edge2" class="edge">
<title>&#45;17&#45;&gt;197</title>
<path fill="none" stroke="red" stroke-width="0.33" stroke-dasharray="1,5" d="M611.67,-301.25C608.73,-300.2 605.65,-299.12 602.75,-298.15 551.98,-281.1 536.11,-285.16 487.75,-262.15 486.2,-261.41 484.63,-260.6 483.08,-259.75"/>
<polygon fill="red" stroke="red" stroke-width="0.33" points="485.2,-256.94 474.83,-254.76 481.58,-262.93 485.2,-256.94"/>
</g>
<!-- &#45;18 -->
<g id="node18" class="node">
<title>&#45;18</title>
<polygon fill="lightgray" stroke="black" points="459.75,-316.65 431.75,-316.65 431.75,-298.15 459.75,-298.15 459.75,-316.65"/>
<text text-anchor="middle" x="445.75" y="-304.1" font-family="Times,serif" font-size="9.00">&#45;18</text>
</g>
<!-- &#45;18&#45;&gt;197 -->
<g id="edge3" class="edge">
<title>&#45;18&#45;&gt;197</title>
<path fill="none" stroke="green" stroke-width="0.63" d="M447.37,-297.75C448.59,-291.22 450.35,-281.83 452.07,-272.63"/>
<polygon fill="green" stroke="green" stroke-width="0.63" points="455.47,-273.52 453.87,-263.04 448.59,-272.23 455.47,-273.52"/>
</g>
<!-- &#45;19 -->
<g id="node19" class="node">
<title>&#45;19</title>
<polygon fill="lightgray" stroke="black" points="773.75,-316.65 745.75,-316.65 745.75,-298.15 773.75,-298.15 773.75,-316.65"/>
<text text-anchor="middle" x="759.75" y="-304.1" font-family="Times,serif" font-size="9.00">&#45;19</text>
</g>
<!-- &#45;20 -->
<g id="node20" class="node">
<title>&#45;20</title>
<polygon fill="lightgray" stroke="black" points="819.75,-316.65 791.75,-316.65 791.75,-298.15 819.75,-298.15 819.75,-316.65"/>
<text text-anchor="middle" x="805.75" y="-304.1" font-family="Times,serif" font-size="9.00">&#45;20</text>
</g>
<!-- 0 -->
<g id="node21" class="node">
<title>0</title>
<ellipse fill="lightblue" stroke="black" cx="203.75" cy="-163.57" rx="14.5" ry="14.5"/>
<text text-anchor="middle" x="203.75" y="-160.27" font-family="Times,serif" font-size="9.00">0</text>
</g>
<!-- 1 -->
<g id="node22" class="node">
<title>1</title>
<ellipse fill="lightblue" stroke="black" cx="358.75" cy="-14.5" rx="14.5" ry="14.5"/>
<text text-anchor="middle" x="358.75" y="-11.2" font-family="Times,serif" font-size="9.00">1</text>
</g>
<!-- 1&#45;&gt;1 -->
<g id="edge13" class="edge">
<title>1&#45;&gt;1</title>
<path fill="none" stroke="red" stroke-width="0.2" d="M369.07,-24.94C379.56,-31.08 391.25,-27.6 391.25,-14.5 391.25,-5.49 385.72,-1.03 378.86,-1.12"/>
<polygon fill="red" stroke="red" stroke-width="0.2" points="377.93,2.26 369.36,-3.97 379.94,-4.45 377.93,2.26"/>
</g>
<!-- 2 -->
<g id="node23" class="node">
<title>2</title>
<ellipse fill="lightblue" stroke="black" cx="287.75" cy="-163.57" rx="14.5" ry="14.5"/>
<text text-anchor="middle" x="287.75" y="-160.27" font-family="Times,serif" font-size="9.00">2</text>
</g>
<!-- 2&#45;&gt;2 -->
<g id="edge7" class="edge">
<title>2&#45;&gt;2</title>
<path fill="none" stroke="green" stroke-width="0.23" stroke-dasharray="1,5" d="M297.73,-174.72C308.31,-181.71 320.25,-177.99 320.25,-163.57 320.25,-153.43 314.35,-148.58 307.16,-149.03"/>
<polygon fill="green" stroke="green" stroke-width="0.23" points="306.29,-145.62 298.06,-152.3 308.66,-152.21 306.29,-145.62"/>
</g>
<!-- 3 -->
<g id="node24" class="node">
<title>3</title>
<ellipse fill="lightblue" stroke="black" cx="449.75" cy="-163.57" rx="14.5" ry="14.5"/>
<text text-anchor="middle" x="449.75" y="-160.27" font-family="Times,serif" font-size="9.00">3</text>
</g>
<!-- 197&#45;&gt;3 -->
<g id="edge6" class="edge">
<title>197&#45;&gt;3</title>
<path fill="none" stroke="red" stroke-width="0.44" stroke-dasharray="1,5" d="M455.65,-220.4C454.61,-210.61 453.36,-198.75 452.28,-188.48"/>
<polygon fill="red" stroke="red" stroke-width="0.44" points="455.78,-188.37 451.25,-178.79 448.82,-189.1 455.78,-188.37"/>
</g>
<!-- 197&#45;&gt;4 -->
<g id="edge24" class="edge">
<title>197&#45;&gt;4</title>
<path fill="none" stroke="red" stroke-width="0.45" stroke-dasharray="1,5" d="M466.99,-222.35C472.57,-211.52 479.71,-197.66 485.59,-186.23"/>
<polygon fill="red" stroke="red" stroke-width="0.45" points="488.59,-188.05 490.06,-177.55 482.37,-184.84 488.59,-188.05"/>
</g>
<!-- 198&#45;&gt;1 -->
<g id="edge16" class="edge">
<title>198&#45;&gt;1</title>
<path fill="none" stroke="green" stroke-width="0.2" stroke-dasharray="1,5" d="M378.99,-221.48C382.72,-210.79 386.87,-197.06 388.75,-184.43 396.56,-131.92 403.03,-116.12 388.75,-64.99 385.7,-54.07 379.51,-43.17 373.54,-34.38"/>
<polygon fill="green" stroke="green" stroke-width="0.2" points="376.41,-32.38 367.72,-26.32 370.74,-36.48 376.41,-32.38"/>
</g>
<!-- 198&#45;&gt;2 -->
<g id="edge9" class="edge">
<title>198&#45;&gt;2</title>
<path fill="none" stroke="green" stroke-width="0.48" d="M356.73,-226.75C342.4,-213.83 320.79,-194.36 305.59,-180.65"/>
<polygon fill="green" stroke="green" stroke-width="0.48" points="308.2,-178.29 298.43,-174.2 303.51,-183.49 308.2,-178.29"/>
</g>
<!-- 198&#45;&gt;3 -->
<g id="edge8" class="edge">
<title>198&#45;&gt;3</title>
<path fill="none" stroke="green" stroke-width="0.32" d="M386.42,-226.05C399.41,-213.44 418.38,-195.02 432.18,-181.63"/>
<polygon fill="green" stroke="green" stroke-width="0.32" points="434.53,-184.22 439.27,-174.75 429.66,-179.2 434.53,-184.22"/>
</g>
<!-- 500 -->
<g id="node29" class="node">
<title>500</title>
<ellipse fill="white" stroke="black" cx="358.75" cy="-163.57" rx="20.86" ry="20.86"/>
<text text-anchor="middle" x="358.75" y="-160.27" font-family="Times,serif" font-size="9.00">500</text>
</g>
<!-- 198&#45;&gt;500 -->
<g id="edge28" class="edge">
<title>198&#45;&gt;500</title>
<path fill="none" stroke="red" stroke-width="0.32" stroke-dasharray="1,5" d="M368.33,-220.4C366.99,-212.55 365.41,-203.35 363.93,-194.72"/>
<polygon fill="red" stroke="red" stroke-width="0.32" points="367.41,-194.34 362.27,-185.08 360.51,-195.53 367.41,-194.34"/>
</g>
<!-- 200&#45;&gt;0 -->
<g id="edge19" class="edge">
<title>200&#45;&gt;0</title>
<path fill="none" stroke="green" stroke-width="0.12" d="M236.01,-222.73C229.81,-211.56 221.76,-197.04 215.25,-185.31"/>
<polygon fill="green" stroke="green" stroke-width="0.12" points="218.42,-183.81 210.51,-176.76 212.3,-187.21 218.42,-183.81"/>
</g>
<!-- 200&#45;&gt;1 -->
<g id="edge31" class="edge">
<title>200&#45;&gt;1</title>
<path fill="none" stroke="green" stroke-width="0.21" d="M247.07,-220.08C248.99,-199.79 253.63,-167.99 264.75,-142.71 284.03,-98.86 320.68,-55.71 342.08,-32.66"/>
<polygon fill="green" stroke="green" stroke-width="0.21" points="344.41,-35.28 348.73,-25.61 339.32,-30.48 344.41,-35.28"/>
</g>
<!-- 200&#45;&gt;2 -->
<g id="edge20" class="edge">
<title>200&#45;&gt;2</title>
<path fill="none" stroke="green" stroke-width="0.46" d="M255.49,-222.73C261.63,-211.67 269.58,-197.33 276.05,-185.66"/>
<polygon fill="green" stroke="green" stroke-width="0.46" points="278.94,-187.66 280.73,-177.22 272.82,-184.27 278.94,-187.66"/>
</g>
<!-- 200&#45;&gt;4 -->
<g id="edge1" class="edge">
<title>200&#45;&gt;4</title>
<path fill="none" stroke="red" stroke-width="0.2" d="M266.21,-235.8C318.47,-224.27 454.08,-193.83 472.75,-184.43 474.79,-183.4 476.81,-182.17 478.76,-180.84"/>
<polygon fill="red" stroke="red" stroke-width="0.2" points="480.79,-183.7 486.5,-174.77 476.47,-178.19 480.79,-183.7"/>
</g>
<!-- 600 -->
<g id="node30" class="node">
<title>600</title>
<ellipse fill="white" stroke="black" cx="358.75" cy="-85.85" rx="20.86" ry="20.86"/>
<text text-anchor="middle" x="358.75" y="-82.55" font-family="Times,serif" font-size="9.00">600</text>
</g>
<!-- 500&#45;&gt;600 -->
<g id="edge29" class="edge">
<title>500&#45;&gt;600</title>
<path fill="none" stroke="green" stroke-width="0.28" d="M358.75,-142.28C358.75,-134.64 358.75,-125.78 358.75,-117.41"/>
<polygon fill="green" stroke="green" stroke-width="0.28" points="362.25,-117.62 358.75,-107.62 355.25,-117.62 362.25,-117.62"/>
</g>
<!-- 600&#45;&gt;1 -->
<g id="edge30" class="edge">
<title>600&#45;&gt;1</title>
<path fill="none" stroke="green" stroke-width="0.56" d="M358.75,-64.79C358.75,-57.07 358.75,-48.16 358.75,-40.06"/>
<polygon fill="green" stroke="green" stroke-width="0.56" points="362.25,-40.2 358.75,-30.2 355.25,-40.2 362.25,-40.2"/>
</g>
</g>
</svg>
