<?xml version="1.0" encoding="UTF-8" standalone="no"?>
<!DOCTYPE svg PUBLIC "-//W3C//DTD SVG 1.1//EN"
 "http://www.w3.org/Graphics/SVG/1.1/DTD/svg11.dtd">
<!-- Generated by graphviz version 12.1.1 (20240910.0053)
 -->
<!-- Pages: 1 -->
<svg width="934pt" height="270pt"
 viewBox="0.00 0.00 933.75 270.15" xmlns="http://www.w3.org/2000/svg" xmlns:xlink="http://www.w3.org/1999/xlink">
<g id="graph0" class="graph" transform="scale(1 1) rotate(0) translate(4 266.15)">
<polygon fill="white" stroke="none" points="-4,4 -4,-266.15 929.75,-266.15 929.75,4 -4,4"/>
<!-- &#45;1 -->
<g id="node1" class="node">
<title>&#45;1</title>
<polygon fill="lightgray" stroke="black" points="153.5,-250.54 130,-250.54 130,-232.04 153.5,-232.04 153.5,-250.54"/>
<text text-anchor="middle" x="141.75" y="-237.99" font-family="Times,serif" font-size="9.00">&#45;1</text>
</g>
<!-- 118 -->
<g id="node28" class="node">
<title>118</title>
<ellipse fill="white" stroke="black" cx="195.75" cy="-163.57" rx="20.86" ry="20.86"/>
<text text-anchor="middle" x="195.75" y="-160.27" font-family="Times,serif" font-size="9.00">118</text>
</g>
<!-- &#45;1&#45;&gt;118 -->
<g id="edge6" class="edge">
<title>&#45;1&#45;&gt;118</title>
<path fill="none" stroke="green" stroke-width="0.21" d="M147.94,-231.6C155.26,-221.34 167.75,-203.83 178.13,-189.27"/>
<polygon fill="green" stroke="green" stroke-width="0.21" points="180.81,-191.55 183.76,-181.38 175.11,-187.49 180.81,-191.55"/>
</g>
<!-- 119 -->
<g id="node29" class="node">
<title>119</title>
<ellipse fill="white" stroke="black" cx="307.75" cy="-163.57" rx="20.86" ry="20.86"/>
<text text-anchor="middle" x="307.75" y="-160.27" font-family="Times,serif" font-size="9.00">119</text>
</g>
<!-- &#45;1&#45;&gt;119 -->
<g id="edge7" class="edge">
<title>&#45;1&#45;&gt;119</title>
<path fill="none" stroke="green" stroke-width="0.39" d="M149.3,-231.75C153.05,-227.9 157.83,-223.53 162.75,-220.43 199.29,-197.39 246.85,-181.32 277.34,-172.51"/>
<polygon fill="green" stroke="green" stroke-width="0.39" points="278.12,-175.93 286.8,-169.86 276.23,-169.19 278.12,-175.93"/>
</g>
<!-- &#45;2 -->
<g id="node2" class="node">
<title>&#45;2</title>
<polygon fill="lightgray" stroke="black" points="329.5,-250.54 306,-250.54 306,-232.04 329.5,-232.04 329.5,-250.54"/>
<text text-anchor="middle" x="317.75" y="-237.99" font-family="Times,serif" font-size="9.00">&#45;2</text>
</g>
<!-- &#45;2&#45;&gt;119 -->
<g id="edge8" class="edge">
<title>&#45;2&#45;&gt;119</title>
<path fill="none" stroke="red" stroke-width="0.48" stroke-dasharray="1,5" d="M316.6,-231.6C315.42,-222.68 313.52,-208.27 311.78,-195.1"/>
<polygon fill="red" stroke="red" stroke-width="0.48" points="315.25,-194.65 310.47,-185.19 308.31,-195.56 315.25,-194.65"/>
</g>
<!-- &#45;3 -->
<g id="node3" class="node">
<title>&#45;3</title>
<polygon fill="lightgray" stroke="black" points="241.5,-250.54 218,-250.54 218,-232.04 241.5,-232.04 241.5,-250.54"/>
<text text-anchor="middle" x="229.75" y="-237.99" font-family="Times,serif" font-size="9.00">&#45;3</text>
</g>
<!-- &#45;3&#45;&gt;118 -->
<g id="edge43" class="edge">
<title>&#45;3&#45;&gt;118</title>
<path fill="none" stroke="green" stroke-width="0.17" d="M225.85,-231.6C221.54,-222.01 214.38,-206.07 208.13,-192.14"/>
<polygon fill="green" stroke="green" stroke-width="0.17" points="211.39,-190.85 204.1,-183.16 205,-193.71 211.39,-190.85"/>
</g>
<!-- &#45;3&#45;&gt;119 -->
<g id="edge12" class="edge">
<title>&#45;3&#45;&gt;119</title>
<path fill="none" stroke="red" stroke-width="0.52" d="M238.7,-231.6C250.01,-220.62 269.88,-201.33 285.42,-186.25"/>
<polygon fill="red" stroke="red" stroke-width="0.52" points="287.77,-188.85 292.5,-179.37 282.89,-183.82 287.77,-188.85"/>
</g>
<!-- 120 -->
<g id="node30" class="node">
<title>120</title>
<ellipse fill="white" stroke="black" cx="467.75" cy="-163.57" rx="20.86" ry="20.86"/>
<text text-anchor="middle" x="467.75" y="-160.27" font-family="Times,serif" font-size="9.00">120</text>
</g>
<!-- &#45;3&#45;&gt;120 -->
<g id="edge26" class="edge">
<title>&#45;3&#45;&gt;120</title>
<path fill="none" stroke="red" stroke-width="0.21" stroke-dasharray="1,5" d="M236.77,-231.9C240.54,-227.89 245.48,-223.34 250.75,-220.43 311.46,-186.89 392.87,-172.97 436.69,-167.61"/>
<polygon fill="red" stroke="red" stroke-width="0.21" points="436.88,-171.12 446.41,-166.49 436.08,-164.16 436.88,-171.12"/>
</g>
<!-- &#45;4 -->
<g id="node4" class="node">
<title>&#45;4</title>
<polygon fill="lightgray" stroke="black" points="745.5,-250.54 722,-250.54 722,-232.04 745.5,-232.04 745.5,-250.54"/>
<text text-anchor="middle" x="733.75" y="-237.99" font-family="Times,serif" font-size="9.00">&#45;4</text>
</g>
<!-- 117 -->
<g id="node27" class="node">
<title>117</title>
<ellipse fill="white" stroke="black" cx="712.75" cy="-163.57" rx="20.86" ry="20.86"/>
<text text-anchor="middle" x="712.75" y="-160.27" font-family="Times,serif" font-size="9.00">117</text>
</g>
<!-- &#45;4&#45;&gt;117 -->
<g id="edge20" class="edge">
<title>&#45;4&#45;&gt;117</title>
<path fill="none" stroke="red" stroke-width="0.15" d="M731.34,-231.6C728.77,-222.35 724.57,-207.2 720.81,-193.64"/>
<polygon fill="red" stroke="red" stroke-width="0.15" points="724.29,-193.07 718.24,-184.37 717.54,-194.94 724.29,-193.07"/>
</g>
<!-- &#45;4&#45;&gt;120 -->
<g id="edge1" class="edge">
<title>&#45;4&#45;&gt;120</title>
<path fill="none" stroke="green" stroke-width="0.75" d="M726.76,-231.83C723.01,-227.81 718.06,-223.27 712.75,-220.43 642.73,-183.01 548.44,-170.56 499.78,-166.49"/>
<polygon fill="green" stroke="green" stroke-width="0.75" points="500.08,-163.01 489.84,-165.73 499.54,-169.99 500.08,-163.01"/>
</g>
<!-- &#45;5 -->
<g id="node5" class="node">
<title>&#45;5</title>
<polygon fill="lightgray" stroke="black" points="111.5,-250.54 88,-250.54 88,-232.04 111.5,-232.04 111.5,-250.54"/>
<text text-anchor="middle" x="99.75" y="-237.99" font-family="Times,serif" font-size="9.00">&#45;5</text>
</g>
<!-- &#45;5&#45;&gt;118 -->
<g id="edge38" class="edge">
<title>&#45;5&#45;&gt;118</title>
<path fill="none" stroke="red" stroke-width="0.3" d="M108.53,-231.55C112.22,-228 116.6,-223.92 120.75,-220.43 136.86,-206.9 155.87,-192.75 170.72,-182.08"/>
<polygon fill="red" stroke="red" stroke-width="0.3" points="172.46,-185.15 178.57,-176.5 168.39,-179.45 172.46,-185.15"/>
</g>
<!-- &#45;6 -->
<g id="node6" class="node">
<title>&#45;6</title>
<polygon fill="lightgray" stroke="black" points="879.5,-250.54 856,-250.54 856,-232.04 879.5,-232.04 879.5,-250.54"/>
<text text-anchor="middle" x="867.75" y="-237.99" font-family="Times,serif" font-size="9.00">&#45;6</text>
</g>
<!-- &#45;6&#45;&gt;117 -->
<g id="edge16" class="edge">
<title>&#45;6&#45;&gt;117</title>
<path fill="none" stroke="red" stroke-width="0.21" stroke-dasharray="1,5" d="M860.16,-231.81C856.4,-227.98 851.63,-223.6 846.75,-220.43 813.62,-198.9 770.82,-182.8 742.62,-173.54"/>
<polygon fill="red" stroke="red" stroke-width="0.21" points="743.82,-170.25 733.23,-170.54 741.69,-176.92 743.82,-170.25"/>
</g>
<!-- &#45;7 -->
<g id="node7" class="node">
<title>&#45;7</title>
<polygon fill="lightgray" stroke="black" points="661.5,-250.54 638,-250.54 638,-232.04 661.5,-232.04 661.5,-250.54"/>
<text text-anchor="middle" x="649.75" y="-237.99" font-family="Times,serif" font-size="9.00">&#45;7</text>
</g>
<!-- &#45;7&#45;&gt;117 -->
<g id="edge44" class="edge">
<title>&#45;7&#45;&gt;117</title>
<path fill="none" stroke="green" stroke-width="0.1" d="M656.98,-231.6C665.76,-221.05 680.92,-202.82 693.23,-188.03"/>
<polygon fill="green" stroke="green" stroke-width="0.1" points="695.9,-190.29 699.61,-180.37 690.52,-185.82 695.9,-190.29"/>
</g>
<!-- &#45;7&#45;&gt;119 -->
<g id="edge19" class="edge">
<title>&#45;7&#45;&gt;119</title>
<path fill="none" stroke="red" stroke-width="0.17" d="M642.82,-231.72C639.08,-227.66 634.13,-223.13 628.75,-220.43 615.74,-213.91 416.16,-181.77 338.42,-169.42"/>
<polygon fill="red" stroke="red" stroke-width="0.17" points="338.97,-165.96 328.55,-167.85 337.87,-172.87 338.97,-165.96"/>
</g>
<!-- &#45;8 -->
<g id="node8" class="node">
<title>&#45;8</title>
<polygon fill="lightgray" stroke="black" points="703.5,-250.54 680,-250.54 680,-232.04 703.5,-232.04 703.5,-250.54"/>
<text text-anchor="middle" x="691.75" y="-237.99" font-family="Times,serif" font-size="9.00">&#45;8</text>
</g>
<!-- &#45;8&#45;&gt;117 -->
<g id="edge11" class="edge">
<title>&#45;8&#45;&gt;117</title>
<path fill="none" stroke="green" stroke-width="0.45" d="M694.16,-231.6C696.68,-222.53 700.76,-207.79 704.47,-194.43"/>
<polygon fill="green" stroke="green" stroke-width="0.45" points="707.84,-195.38 707.14,-184.81 701.09,-193.51 707.84,-195.38"/>
</g>
<!-- &#45;8&#45;&gt;119 -->
<g id="edge29" class="edge">
<title>&#45;8&#45;&gt;119</title>
<path fill="none" stroke="red" stroke-width="0.25" d="M684.85,-231.67C681.11,-227.61 676.16,-223.08 670.75,-220.43 669.81,-219.97 426.16,-182.68 338.62,-169.29"/>
<polygon fill="red" stroke="red" stroke-width="0.25" points="339.3,-165.85 328.89,-167.8 338.24,-172.77 339.3,-165.85"/>
</g>
<!-- &#45;8&#45;&gt;120 -->
<g id="edge5" class="edge">
<title>&#45;8&#45;&gt;120</title>
<path fill="none" stroke="red" stroke-width="0.15" d="M684.71,-231.93C680.94,-227.93 676,-223.39 670.75,-220.43 614.79,-188.91 540.02,-174.34 498.62,-168.31"/>
<polygon fill="red" stroke="red" stroke-width="0.15" points="499.21,-164.85 488.83,-166.95 498.25,-171.79 499.21,-164.85"/>
</g>
<!-- &#45;9 -->
<g id="node9" class="node">
<title>&#45;9</title>
<polygon fill="lightgray" stroke="black" points="23.5,-250.54 0,-250.54 0,-232.04 23.5,-232.04 23.5,-250.54"/>
<text text-anchor="middle" x="11.75" y="-237.99" font-family="Times,serif" font-size="9.00">&#45;9</text>
</g>
<!-- &#45;9&#45;&gt;118 -->
<g id="edge9" class="edge">
<title>&#45;9&#45;&gt;118</title>
<path fill="none" stroke="red" stroke-width="0.32" d="M19.25,-231.67C22.99,-227.8 27.77,-223.44 32.75,-220.43 75.32,-194.69 131.37,-178.82 165.42,-170.86"/>
<polygon fill="red" stroke="red" stroke-width="0.32" points="165.79,-174.36 174.77,-168.75 164.24,-167.54 165.79,-174.36"/>
</g>
<!-- &#45;10 -->
<g id="node10" class="node">
<title>&#45;10</title>
<polygon fill="lightgray" stroke="black" points="481.75,-250.54 453.75,-250.54 453.75,-232.04 481.75,-232.04 481.75,-250.54"/>
<text text-anchor="middle" x="467.75" y="-237.99" font-family="Times,serif" font-size="9.00">&#45;10</text>
</g>
<!-- &#45;10&#45;&gt;120 -->
<g id="edge14" class="edge">
<title>&#45;10&#45;&gt;120</title>
<path fill="none" stroke="green" stroke-width="0.57" stroke-dasharray="1,5" d="M467.75,-231.6C467.75,-222.74 467.75,-208.47 467.75,-195.37"/>
<polygon fill="green" stroke="green" stroke-width="0.57" points="471.25,-195.65 467.75,-185.65 464.25,-195.65 471.25,-195.65"/>
</g>
<!-- &#45;11 -->
<g id="node11" class="node">
<title>&#45;11</title>
<polygon fill="lightgray" stroke="black" points="375.75,-250.54 347.75,-250.54 347.75,-232.04 375.75,-232.04 375.75,-250.54"/>
<text text-anchor="middle" x="361.75" y="-237.99" font-family="Times,serif" font-size="9.00">&#45;11</text>
</g>
<!-- &#45;11&#45;&gt;117 -->
<g id="edge28" class="edge">
<title>&#45;11&#45;&gt;117</title>
<path fill="none" stroke="green" stroke-width="0.38" d="M369.48,-231.72C373.61,-227.66 379.02,-223.13 384.75,-220.43 437.43,-195.6 610.63,-175.23 681.8,-167.7"/>
<polygon fill="green" stroke="green" stroke-width="0.38" points="681.76,-171.22 691.35,-166.7 681.04,-164.26 681.76,-171.22"/>
</g>
<!-- &#45;11&#45;&gt;119 -->
<g id="edge10" class="edge">
<title>&#45;11&#45;&gt;119</title>
<path fill="none" stroke="green" stroke-width="0.27" d="M355.56,-231.6C348.24,-221.34 335.75,-203.83 325.37,-189.27"/>
<polygon fill="green" stroke="green" stroke-width="0.27" points="328.45,-187.57 319.79,-181.46 322.75,-191.63 328.45,-187.57"/>
</g>
<!-- &#45;11&#45;&gt;120 -->
<g id="edge15" class="edge">
<title>&#45;11&#45;&gt;120</title>
<path fill="none" stroke="red" stroke-width="0.29" d="M370.94,-231.91C375.07,-228.27 380.05,-224.02 384.75,-220.43 403.15,-206.37 424.9,-191.81 441.51,-181.08"/>
<polygon fill="red" stroke="red" stroke-width="0.29" points="443.26,-184.12 449.79,-175.78 439.48,-178.22 443.26,-184.12"/>
</g>
<!-- &#45;12 -->
<g id="node12" class="node">
<title>&#45;12</title>
<polygon fill="lightgray" stroke="black" points="527.75,-250.54 499.75,-250.54 499.75,-232.04 527.75,-232.04 527.75,-250.54"/>
<text text-anchor="middle" x="513.75" y="-237.99" font-family="Times,serif" font-size="9.00">&#45;12</text>
</g>
<!-- &#45;12&#45;&gt;120 -->
<g id="edge25" class="edge">
<title>&#45;12&#45;&gt;120</title>
<path fill="none" stroke="green" stroke-width="0.41" d="M508.47,-231.6C502.47,-221.73 492.39,-205.12 483.75,-190.91"/>
<polygon fill="green" stroke="green" stroke-width="0.41" points="486.86,-189.28 478.67,-182.55 480.87,-192.91 486.86,-189.28"/>
</g>
<!-- &#45;13 -->
<g id="node13" class="node">
<title>&#45;13</title>
<polygon fill="lightgray" stroke="black" points="69.75,-250.54 41.75,-250.54 41.75,-232.04 69.75,-232.04 69.75,-250.54"/>
<text text-anchor="middle" x="55.75" y="-237.99" font-family="Times,serif" font-size="9.00">&#45;13</text>
</g>
<!-- &#45;13&#45;&gt;118 -->
<g id="edge27" class="edge">
<title>&#45;13&#45;&gt;118</title>
<path fill="none" stroke="red" stroke-width="0.3" d="M64.7,-231.58C68.78,-227.87 73.8,-223.66 78.75,-220.43 107.07,-201.92 142.46,-185.89 166.86,-175.81"/>
<polygon fill="red" stroke="red" stroke-width="0.3" points="167.9,-179.17 175.85,-172.16 165.27,-172.68 167.9,-179.17"/>
</g>
<!-- &#45;14 -->
<g id="node14" class="node">
<title>&#45;14</title>
<polygon fill="lightgray" stroke="black" points="287.75,-250.54 259.75,-250.54 259.75,-232.04 287.75,-232.04 287.75,-250.54"/>
<text text-anchor="middle" x="273.75" y="-237.99" font-family="Times,serif" font-size="9.00">&#45;14</text>
</g>
<!-- &#45;14&#45;&gt;117 -->
<g id="edge41" class="edge">
<title>&#45;14&#45;&gt;117</title>
<path fill="none" stroke="green" stroke-width="0.27" d="M281.44,-231.63C285.56,-227.55 290.98,-223.03 296.75,-220.43 331.75,-204.68 590.9,-177.02 681.55,-167.72"/>
<polygon fill="green" stroke="green" stroke-width="0.27" points="681.75,-171.22 691.34,-166.72 681.04,-164.26 681.75,-171.22"/>
</g>
<!-- &#45;14&#45;&gt;118 -->
<g id="edge3" class="edge">
<title>&#45;14&#45;&gt;118</title>
<path fill="none" stroke="green" stroke-width="0.1" d="M264.8,-231.6C253.39,-220.52 233.25,-200.97 217.66,-185.84"/>
<polygon fill="green" stroke="green" stroke-width="0.1" points="220.15,-183.38 210.54,-178.92 215.27,-188.4 220.15,-183.38"/>
</g>
<!-- &#45;15 -->
<g id="node15" class="node">
<title>&#45;15</title>
<polygon fill="lightgray" stroke="black" points="199.75,-250.54 171.75,-250.54 171.75,-232.04 199.75,-232.04 199.75,-250.54"/>
<text text-anchor="middle" x="185.75" y="-237.99" font-family="Times,serif" font-size="9.00">&#45;15</text>
</g>
<!-- &#45;15&#45;&gt;118 -->
<g id="edge40" class="edge">
<title>&#45;15&#45;&gt;118</title>
<path fill="none" stroke="red" stroke-width="0.55" d="M186.9,-231.6C188.08,-222.68 189.98,-208.27 191.72,-195.1"/>
<polygon fill="red" stroke="red" stroke-width="0.55" points="195.17,-195.66 193.01,-185.29 188.23,-194.75 195.17,-195.66"/>
</g>
<!-- &#45;15&#45;&gt;119 -->
<g id="edge4" class="edge">
<title>&#45;15&#45;&gt;119</title>
<path fill="none" stroke="green" stroke-width="0.14" d="M194.81,-231.73C198.91,-228.06 203.92,-223.83 208.75,-220.43 231.74,-204.26 259.8,-188.79 280.16,-178.25"/>
<polygon fill="green" stroke="green" stroke-width="0.14" points="281.71,-181.39 289.02,-173.72 278.53,-175.15 281.71,-181.39"/>
</g>
<!-- &#45;16 -->
<g id="node16" class="node">
<title>&#45;16</title>
<polygon fill="lightgray" stroke="black" points="925.75,-250.54 897.75,-250.54 897.75,-232.04 925.75,-232.04 925.75,-250.54"/>
<text text-anchor="middle" x="911.75" y="-237.99" font-family="Times,serif" font-size="9.00">&#45;16</text>
</g>
<!-- &#45;17 -->
<g id="node17" class="node">
<title>&#45;17</title>
<polygon fill="lightgray" stroke="black" points="573.75,-250.54 545.75,-250.54 545.75,-232.04 573.75,-232.04 573.75,-250.54"/>
<text text-anchor="middle" x="559.75" y="-237.99" font-family="Times,serif" font-size="9.00">&#45;17</text>
</g>
<!-- &#45;17&#45;&gt;120 -->
<g id="edge18" class="edge">
<title>&#45;17&#45;&gt;120</title>
<path fill="none" stroke="green" stroke-width="0.65" d="M549.96,-231.72C545.9,-228.19 541.12,-224.08 536.75,-220.43 522.01,-208.1 505.26,-194.53 491.95,-183.85"/>
<polygon fill="green" stroke="green" stroke-width="0.65" points="494.52,-181.43 484.52,-177.91 490.14,-186.89 494.52,-181.43"/>
</g>
<!-- &#45;18 -->
<g id="node18" class="node">
<title>&#45;18</title>
<polygon fill="lightgray" stroke="black" points="791.75,-250.54 763.75,-250.54 763.75,-232.04 791.75,-232.04 791.75,-250.54"/>
<text text-anchor="middle" x="777.75" y="-237.99" font-family="Times,serif" font-size="9.00">&#45;18</text>
</g>
<!-- &#45;18&#45;&gt;117 -->
<g id="edge37" class="edge">
<title>&#45;18&#45;&gt;117</title>
<path fill="none" stroke="red" stroke-width="0.28" d="M770.29,-231.6C761.18,-220.98 745.39,-202.59 732.66,-187.76"/>
<polygon fill="red" stroke="red" stroke-width="0.28" points="735.4,-185.59 726.24,-180.28 730.09,-190.15 735.4,-185.59"/>
</g>
<!-- &#45;19 -->
<g id="node19" class="node">
<title>&#45;19</title>
<polygon fill="lightgray" stroke="black" points="837.75,-250.54 809.75,-250.54 809.75,-232.04 837.75,-232.04 837.75,-250.54"/>
<text text-anchor="middle" x="823.75" y="-237.99" font-family="Times,serif" font-size="9.00">&#45;19</text>
</g>
<!-- &#45;19&#45;&gt;117 -->
<g id="edge24" class="edge">
<title>&#45;19&#45;&gt;117</title>
<path fill="none" stroke="green" stroke-width="0.31" d="M814.61,-231.85C810.49,-228.2 805.49,-223.95 800.75,-220.43 780.96,-205.73 757.31,-190.85 739.51,-180.15"/>
<polygon fill="green" stroke="green" stroke-width="0.31" points="741.57,-177.31 731.19,-175.2 737.99,-183.32 741.57,-177.31"/>
</g>
<!-- &#45;20 -->
<g id="node20" class="node">
<title>&#45;20</title>
<polygon fill="lightgray" stroke="black" points="619.75,-250.54 591.75,-250.54 591.75,-232.04 619.75,-232.04 619.75,-250.54"/>
<text text-anchor="middle" x="605.75" y="-237.99" font-family="Times,serif" font-size="9.00">&#45;20</text>
</g>
<!-- &#45;20&#45;&gt;120 -->
<g id="edge23" class="edge">
<title>&#45;20&#45;&gt;120</title>
<path fill="none" stroke="red" stroke-width="0.51" stroke-dasharray="1,5" d="M596.79,-231.59C592.7,-227.89 587.69,-223.68 582.75,-220.43 555.13,-202.25 520.72,-186.31 496.77,-176.17"/>
<polygon fill="red" stroke="red" stroke-width="0.51" points="498.17,-172.96 487.59,-172.35 495.48,-179.42 498.17,-172.96"/>
</g>
<!-- 0 -->
<g id="node21" class="node">
<title>0</title>
<ellipse fill="lightblue" stroke="black" cx="195.75" cy="-92.21" rx="14.5" ry="14.5"/>
<text text-anchor="middle" x="195.75" y="-88.91" font-family="Times,serif" font-size="9.00">0</text>
</g>
<!-- 0&#45;&gt;0 -->
<g id="edge2" class="edge">
<title>0&#45;&gt;0</title>
<path fill="none" stroke="red" stroke-width="0.24" stroke-dasharray="1,5" d="M206.07,-102.65C216.56,-108.8 228.25,-105.32 228.25,-92.21 228.25,-83.21 222.72,-78.75 215.86,-78.84"/>
<polygon fill="red" stroke="red" stroke-width="0.24" points="214.99,-75.44 206.42,-81.67 217,-82.15 214.99,-75.44"/>
</g>
<!-- 1 -->
<g id="node22" class="node">
<title>1</title>
<ellipse fill="lightblue" stroke="black" cx="307.75" cy="-92.21" rx="14.5" ry="14.5"/>
<text text-anchor="middle" x="307.75" y="-88.91" font-family="Times,serif" font-size="9.00">1</text>
</g>
<!-- 2 -->
<g id="node23" class="node">
<title>2</title>
<ellipse fill="lightblue" stroke="black" cx="354.75" cy="-92.21" rx="14.5" ry="14.5"/>
<text text-anchor="middle" x="354.75" y="-88.91" font-family="Times,serif" font-size="9.00">2</text>
</g>
<!-- 2&#45;&gt;2 -->
<g id="edge35" class="edge">
<title>2&#45;&gt;2</title>
<path fill="none" stroke="green" stroke-width="0.72" stroke-dasharray="1,5" d="M365.07,-102.65C375.56,-108.8 387.25,-105.32 387.25,-92.21 387.25,-83.41 381.97,-78.95 375.33,-78.84"/>
<polygon fill="green" stroke="green" stroke-width="0.72" points="374.76,-75.36 366.11,-81.48 376.69,-82.09 374.76,-75.36"/>
</g>
<!-- 302 -->
<g id="node26" class="node">
<title>302</title>
<ellipse fill="white" stroke="black" cx="354.75" cy="-20.86" rx="20.86" ry="20.86"/>
<text text-anchor="middle" x="354.75" y="-17.56" font-family="Times,serif" font-size="9.00">302</text>
</g>
<!-- 2&#45;&gt;302 -->
<g id="edge45" class="edge">
<title>2&#45;&gt;302</title>
<path fill="none" stroke="green" stroke-width="0.36" d="M349.39,-78.49C348.27,-70.94 347.83,-61.01 348.06,-51.59"/>
<polygon fill="green" stroke="green" stroke-width="0.36" points="351.54,-52.04 348.59,-41.86 344.55,-51.66 351.54,-52.04"/>
</g>
<!-- 3 -->
<g id="node24" class="node">
<title>3</title>
<ellipse fill="lightblue" stroke="black" cx="260.75" cy="-92.21" rx="14.5" ry="14.5"/>
<text text-anchor="middle" x="260.75" y="-88.91" font-family="Times,serif" font-size="9.00">3</text>
</g>
<!-- 4 -->
<g id="node25" class="node">
<title>4</title>
<ellipse fill="lightblue" stroke="black" cx="443.75" cy="-92.21" rx="14.5" ry="14.5"/>
<text text-anchor="middle" x="443.75" y="-88.91" font-family="Times,serif" font-size="9.00">4</text>
</g>
<!-- 4&#45;&gt;4 -->
<g id="edge13" class="edge">
<title>4&#45;&gt;4</title>
<path fill="none" stroke="green" stroke-width="0.36" d="M454.07,-102.65C464.56,-108.8 476.25,-105.32 476.25,-92.21 476.25,-83.21 470.72,-78.75 463.86,-78.84"/>
<polygon fill="green" stroke="green" stroke-width="0.36" points="463.15,-75.4 454.58,-81.62 465.16,-82.1 463.15,-75.4"/>
</g>
<!-- 302&#45;&gt;2 -->
<g id="edge46" class="edge">
<title>302&#45;&gt;2</title>
<path fill="none" stroke="red" stroke-width="0.31" d="M360.89,-41.31C361.61,-49.68 361.69,-59.52 361.15,-68.24"/>
<polygon fill="red" stroke="red" stroke-width="0.31" points="357.68,-67.73 360.16,-78.03 364.64,-68.43 357.68,-67.73"/>
</g>
<!-- 118&#45;&gt;0 -->
<g id="edge32" class="edge">
<title>118&#45;&gt;0</title>
<path fill="none" stroke="red" stroke-width="0.43" d="M195.75,-142.51C195.75,-134.7 195.75,-125.68 195.75,-117.5"/>
<polygon fill="red" stroke="red" stroke-width="0.43" points="199.25,-117.72 195.75,-107.72 192.25,-117.72 199.25,-117.72"/>
</g>
<!-- 118&#45;&gt;2 -->
<g id="edge33" class="edge">
<title>118&#45;&gt;2</title>
<path fill="none" stroke="red" stroke-width="0.59" d="M215.3,-155.33C241.85,-145.31 290.6,-126.22 330.75,-106.71 331.62,-106.29 332.49,-105.85 333.38,-105.4"/>
<polygon fill="red" stroke="red" stroke-width="0.59" points="334.77,-108.63 341.9,-100.8 331.44,-102.47 334.77,-108.63"/>
</g>
<!-- 118&#45;&gt;3 -->
<g id="edge21" class="edge">
<title>118&#45;&gt;3</title>
<path fill="none" stroke="green" stroke-width="0.17" d="M209.53,-147.86C219.71,-137.01 233.59,-122.19 244.34,-110.72"/>
<polygon fill="green" stroke="green" stroke-width="0.17" points="246.73,-113.29 251.02,-103.6 241.62,-108.5 246.73,-113.29"/>
</g>
<!-- 118&#45;&gt;4 -->
<g id="edge36" class="edge">
<title>118&#45;&gt;4</title>
<path fill="none" stroke="red" stroke-width="0.36" d="M215.91,-156.95C251.98,-146.9 329.97,-125.14 395.75,-106.71 403.57,-104.52 412.1,-102.12 419.78,-99.96"/>
<polygon fill="red" stroke="red" stroke-width="0.36" points="420.68,-103.35 429.36,-97.27 418.79,-96.61 420.68,-103.35"/>
</g>
<!-- 119&#45;&gt;0 -->
<g id="edge17" class="edge">
<title>119&#45;&gt;0</title>
<path fill="none" stroke="green" stroke-width="0.48" d="M290.25,-151.73C270.4,-139.44 238.05,-119.41 216.83,-106.27"/>
<polygon fill="green" stroke="green" stroke-width="0.48" points="218.91,-103.44 208.57,-101.15 215.23,-109.39 218.91,-103.44"/>
</g>
<!-- 119&#45;&gt;1 -->
<g id="edge30" class="edge">
<title>119&#45;&gt;1</title>
<path fill="none" stroke="green" stroke-width="0.27" d="M307.75,-142.51C307.75,-134.61 307.75,-125.47 307.75,-117.22"/>
<polygon fill="green" stroke="green" stroke-width="0.27" points="311.25,-117.49 307.75,-107.49 304.25,-117.49 311.25,-117.49"/>
</g>
<!-- 119&#45;&gt;2 -->
<g id="edge22" class="edge">
<title>119&#45;&gt;2</title>
<path fill="none" stroke="red" stroke-width="0.25" d="M319.13,-145.78C325.77,-135.98 334.19,-123.56 341.17,-113.25"/>
<polygon fill="red" stroke="red" stroke-width="0.25" points="343.94,-115.41 346.65,-105.17 338.14,-111.48 343.94,-115.41"/>
</g>
<!-- 119&#45;&gt;3 -->
<g id="edge42" class="edge">
<title>119&#45;&gt;3</title>
<path fill="none" stroke="green" stroke-width="0.26" d="M296.37,-145.78C289.73,-135.98 281.31,-123.56 274.33,-113.25"/>
<polygon fill="green" stroke="green" stroke-width="0.26" points="277.37,-111.5 268.86,-105.18 271.57,-115.43 277.37,-111.5"/>
</g>
<!-- 120&#45;&gt;2 -->
<g id="edge34" class="edge">
<title>120&#45;&gt;2</title>
<path fill="none" stroke="red" stroke-width="0.48" d="M450.09,-151.73C430.07,-139.44 397.43,-119.41 376.02,-106.27"/>
<polygon fill="red" stroke="red" stroke-width="0.48" points="378.04,-103.4 367.68,-101.15 374.38,-109.37 378.04,-103.4"/>
</g>
<!-- 120&#45;&gt;4 -->
<g id="edge39" class="edge">
<title>120&#45;&gt;4</title>
<path fill="none" stroke="green" stroke-width="0.4" d="M461.19,-143.62C458.24,-135.09 454.73,-124.94 451.63,-116"/>
<polygon fill="green" stroke="green" stroke-width="0.4" points="455.03,-115.1 448.45,-106.79 448.41,-117.39 455.03,-115.1"/>
</g>
<!-- 120&#45;&gt;120 -->
<g id="edge31" class="edge">
<title>120&#45;&gt;120</title>
<path fill="none" stroke="green" stroke-width="0.27" d="M484.93,-175.89C495.98,-179.11 506.61,-175 506.61,-163.57 506.61,-155.71 501.58,-151.32 494.85,-150.38"/>
<polygon fill="green" stroke="green" stroke-width="0.27" points="494.99,-146.86 485.33,-151.21 495.6,-153.83 494.99,-146.86"/>
</g>
<!-- 539 -->
<g id="node31" class="node">
<title>539</title>
<ellipse fill="white" stroke="black" cx="414.75" cy="-241.29" rx="20.86" ry="20.86"/>
<text text-anchor="middle" x="414.75" y="-237.99" font-family="Times,serif" font-size="9.00">539</text>
</g>
<!-- 539&#45;&gt;120 -->
<g id="edge47" class="edge">
<title>539&#45;&gt;120</title>
<path fill="none" stroke="green" stroke-width="0.38" d="M426.51,-223.49C433.44,-213.58 442.34,-200.87 450.1,-189.78"/>
<polygon fill="green" stroke="green" stroke-width="0.38" points="452.82,-192 455.69,-181.8 447.08,-187.99 452.82,-192"/>
</g>
</g>
</svg>
