<?xml version="1.0" encoding="UTF-8" standalone="no"?>
<!DOCTYPE svg PUBLIC "-//W3C//DTD SVG 1.1//EN"
 "http://www.w3.org/Graphics/SVG/1.1/DTD/svg11.dtd">
<!-- Generated by graphviz version 12.1.1 (20240910.0053)
 -->
<!-- Pages: 1 -->
<svg width="920pt" height="180pt"
 viewBox="0.00 0.00 920.25 179.70" xmlns="http://www.w3.org/2000/svg" xmlns:xlink="http://www.w3.org/1999/xlink">
<g id="graph0" class="graph" transform="scale(1 1) rotate(0) translate(4 175.7)">
<polygon fill="white" stroke="none" points="-4,4 -4,-175.7 916.25,-175.7 916.25,4 -4,4"/>
<!-- &#45;1 -->
<g id="node1" class="node">
<title>&#45;1</title>
<polygon fill="lightgray" stroke="black" points="421.5,-166.46 398,-166.46 398,-147.96 421.5,-147.96 421.5,-166.46"/>
<text text-anchor="middle" x="409.75" y="-153.91" font-family="Times,serif" font-size="9.00">&#45;1</text>
</g>
<!-- 111 -->
<g id="node28" class="node">
<title>111</title>
<ellipse fill="white" stroke="black" cx="413.75" cy="-85.85" rx="20.86" ry="20.86"/>
<text text-anchor="middle" x="413.75" y="-82.55" font-family="Times,serif" font-size="9.00">111</text>
</g>
<!-- &#45;1&#45;&gt;111 -->
<g id="edge2" class="edge">
<title>&#45;1&#45;&gt;111</title>
<path fill="none" stroke="green" stroke-width="0.38" d="M410.24,-147.7C410.68,-140.08 411.35,-128.43 411.99,-117.35"/>
<polygon fill="green" stroke="green" stroke-width="0.38" points="415.47,-117.82 412.55,-107.63 408.48,-117.41 415.47,-117.82"/>
</g>
<!-- &#45;2 -->
<g id="node2" class="node">
<title>&#45;2</title>
<polygon fill="lightgray" stroke="black" points="107.5,-166.46 84,-166.46 84,-147.96 107.5,-147.96 107.5,-166.46"/>
<text text-anchor="middle" x="95.75" y="-153.91" font-family="Times,serif" font-size="9.00">&#45;2</text>
</g>
<!-- 109 -->
<g id="node26" class="node">
<title>109</title>
<ellipse fill="white" stroke="black" cx="137.75" cy="-85.85" rx="20.86" ry="20.86"/>
<text text-anchor="middle" x="137.75" y="-82.55" font-family="Times,serif" font-size="9.00">109</text>
</g>
<!-- &#45;2&#45;&gt;109 -->
<g id="edge30" class="edge">
<title>&#45;2&#45;&gt;109</title>
<path fill="none" stroke="green" stroke-width="0.24" d="M100.9,-147.7C106.15,-139.03 114.57,-125.13 122.03,-112.81"/>
<polygon fill="green" stroke="green" stroke-width="0.24" points="124.87,-114.88 127.05,-104.52 118.88,-111.26 124.87,-114.88"/>
</g>
<!-- &#45;2&#45;&gt;111 -->
<g id="edge37" class="edge">
<title>&#45;2&#45;&gt;111</title>
<path fill="none" stroke="green" stroke-width="0.21" d="M107.3,-147.62C110.26,-145.75 113.52,-143.97 116.75,-142.71 205.02,-108.42 233.89,-125.25 326.75,-106.71 345.75,-102.92 366.94,-98.09 383.66,-94.15"/>
<polygon fill="green" stroke="green" stroke-width="0.21" points="384.2,-97.61 393.12,-91.89 382.58,-90.8 384.2,-97.61"/>
</g>
<!-- &#45;3 -->
<g id="node3" class="node">
<title>&#45;3</title>
<polygon fill="lightgray" stroke="black" points="23.5,-166.46 0,-166.46 0,-147.96 23.5,-147.96 23.5,-166.46"/>
<text text-anchor="middle" x="11.75" y="-153.91" font-family="Times,serif" font-size="9.00">&#45;3</text>
</g>
<!-- &#45;3&#45;&gt;109 -->
<g id="edge23" class="edge">
<title>&#45;3&#45;&gt;109</title>
<path fill="none" stroke="green" stroke-width="0.12" d="M23.64,-148.33C26.59,-146.44 29.76,-144.46 32.75,-142.71 58.67,-127.52 89.03,-111.56 110.43,-100.61"/>
<polygon fill="green" stroke="green" stroke-width="0.12" points="111.81,-103.83 119.13,-96.17 108.63,-97.59 111.81,-103.83"/>
</g>
<!-- 110 -->
<g id="node27" class="node">
<title>110</title>
<ellipse fill="white" stroke="black" cx="296.75" cy="-85.85" rx="20.86" ry="20.86"/>
<text text-anchor="middle" x="296.75" y="-82.55" font-family="Times,serif" font-size="9.00">110</text>
</g>
<!-- &#45;3&#45;&gt;110 -->
<g id="edge3" class="edge">
<title>&#45;3&#45;&gt;110</title>
<path fill="none" stroke="green" stroke-width="0.3" d="M23.33,-147.71C26.29,-145.84 29.54,-144.03 32.75,-142.71 74.96,-125.37 205.8,-102.07 265.94,-91.93"/>
<polygon fill="green" stroke="green" stroke-width="0.3" points="266.25,-95.43 275.53,-90.32 265.09,-88.52 266.25,-95.43"/>
</g>
<!-- &#45;4 -->
<g id="node4" class="node">
<title>&#45;4</title>
<polygon fill="lightgray" stroke="black" points="597.5,-166.46 574,-166.46 574,-147.96 597.5,-147.96 597.5,-166.46"/>
<text text-anchor="middle" x="585.75" y="-153.91" font-family="Times,serif" font-size="9.00">&#45;4</text>
</g>
<!-- &#45;4&#45;&gt;111 -->
<g id="edge9" class="edge">
<title>&#45;4&#45;&gt;111</title>
<path fill="none" stroke="green" stroke-width="0.12" d="M573.57,-147.75C570.75,-145.97 567.7,-144.18 564.75,-142.71 524.13,-122.44 474.27,-105.41 443.24,-95.66"/>
<polygon fill="green" stroke="green" stroke-width="0.12" points="444.63,-92.43 434.04,-92.81 442.56,-99.11 444.63,-92.43"/>
</g>
<!-- &#45;5 -->
<g id="node5" class="node">
<title>&#45;5</title>
<polygon fill="lightgray" stroke="black" points="65.5,-166.46 42,-166.46 42,-147.96 65.5,-147.96 65.5,-166.46"/>
<text text-anchor="middle" x="53.75" y="-153.91" font-family="Times,serif" font-size="9.00">&#45;5</text>
</g>
<!-- &#45;5&#45;&gt;109 -->
<g id="edge25" class="edge">
<title>&#45;5&#45;&gt;109</title>
<path fill="none" stroke="red" stroke-width="0.11" d="M64.05,-147.7C76.47,-137.44 97.75,-119.88 114.25,-106.25"/>
<polygon fill="red" stroke="red" stroke-width="0.11" points="116.3,-109.1 121.79,-100.03 111.85,-103.7 116.3,-109.1"/>
</g>
<!-- &#45;5&#45;&gt;110 -->
<g id="edge41" class="edge">
<title>&#45;5&#45;&gt;110</title>
<path fill="none" stroke="green" stroke-width="0.16" d="M65.81,-147.51C68.65,-145.74 71.73,-144.02 74.75,-142.71 139.77,-114.54 221.91,-98.51 265.78,-91.38"/>
<polygon fill="green" stroke="green" stroke-width="0.16" points="266.25,-94.85 275.58,-89.83 265.16,-87.93 266.25,-94.85"/>
</g>
<!-- &#45;6 -->
<g id="node6" class="node">
<title>&#45;6</title>
<polygon fill="lightgray" stroke="black" points="149.5,-166.46 126,-166.46 126,-147.96 149.5,-147.96 149.5,-166.46"/>
<text text-anchor="middle" x="137.75" y="-153.91" font-family="Times,serif" font-size="9.00">&#45;6</text>
</g>
<!-- &#45;6&#45;&gt;109 -->
<g id="edge29" class="edge">
<title>&#45;6&#45;&gt;109</title>
<path fill="none" stroke="red" stroke-width="0.47" d="M137.75,-147.7C137.75,-140.16 137.75,-128.67 137.75,-117.7"/>
<polygon fill="red" stroke="red" stroke-width="0.47" points="141.25,-117.78 137.75,-107.78 134.25,-117.78 141.25,-117.78"/>
</g>
<!-- &#45;6&#45;&gt;110 -->
<g id="edge31" class="edge">
<title>&#45;6&#45;&gt;110</title>
<path fill="none" stroke="green" stroke-width="0.36" d="M149.96,-147.82C152.79,-146.03 155.83,-144.23 158.75,-142.71 194.93,-123.97 238.88,-107.13 267.31,-96.95"/>
<polygon fill="green" stroke="green" stroke-width="0.36" points="268.26,-100.33 276.52,-93.7 265.93,-93.73 268.26,-100.33"/>
</g>
<!-- &#45;6&#45;&gt;111 -->
<g id="edge32" class="edge">
<title>&#45;6&#45;&gt;111</title>
<path fill="none" stroke="green" stroke-width="0.14" d="M149.33,-147.72C152.29,-145.85 155.54,-144.03 158.75,-142.71 229.34,-113.6 252.19,-123.21 326.75,-106.71 345.67,-102.53 366.86,-97.69 383.59,-93.84"/>
<polygon fill="green" stroke="green" stroke-width="0.14" points="384.22,-97.29 393.18,-91.63 382.65,-90.47 384.22,-97.29"/>
</g>
<!-- &#45;7 -->
<g id="node7" class="node">
<title>&#45;7</title>
<polygon fill="lightgray" stroke="black" points="727.5,-166.46 704,-166.46 704,-147.96 727.5,-147.96 727.5,-166.46"/>
<text text-anchor="middle" x="715.75" y="-153.91" font-family="Times,serif" font-size="9.00">&#45;7</text>
</g>
<!-- 112 -->
<g id="node29" class="node">
<title>112</title>
<ellipse fill="white" stroke="black" cx="518.75" cy="-85.85" rx="20.86" ry="20.86"/>
<text text-anchor="middle" x="518.75" y="-82.55" font-family="Times,serif" font-size="9.00">112</text>
</g>
<!-- &#45;7&#45;&gt;112 -->
<g id="edge44" class="edge">
<title>&#45;7&#45;&gt;112</title>
<path fill="none" stroke="red" stroke-width="0.35" d="M703.62,-147.65C700.79,-145.87 697.73,-144.11 694.75,-142.71 645.76,-119.69 584.84,-102.74 549.03,-93.86"/>
<polygon fill="red" stroke="red" stroke-width="0.35" points="550.25,-90.56 539.7,-91.6 548.59,-97.36 550.25,-90.56"/>
</g>
<!-- &#45;8 -->
<g id="node8" class="node">
<title>&#45;8</title>
<polygon fill="lightgray" stroke="black" points="639.5,-166.46 616,-166.46 616,-147.96 639.5,-147.96 639.5,-166.46"/>
<text text-anchor="middle" x="627.75" y="-153.91" font-family="Times,serif" font-size="9.00">&#45;8</text>
</g>
<!-- &#45;8&#45;&gt;111 -->
<g id="edge43" class="edge">
<title>&#45;8&#45;&gt;111</title>
<path fill="none" stroke="green" stroke-width="0.4" d="M615.65,-147.59C612.82,-145.82 609.75,-144.07 606.75,-142.71 591.78,-135.91 494.13,-108.81 443.74,-95.02"/>
<polygon fill="green" stroke="green" stroke-width="0.4" points="444.9,-91.71 434.33,-92.44 443.05,-98.46 444.9,-91.71"/>
</g>
<!-- &#45;8&#45;&gt;112 -->
<g id="edge20" class="edge">
<title>&#45;8&#45;&gt;112</title>
<path fill="none" stroke="green" stroke-width="0.11" d="M615.76,-148.49C612.82,-146.59 609.67,-144.58 606.75,-142.71 585.97,-129.44 562.38,-114.47 544.86,-103.37"/>
<polygon fill="green" stroke="green" stroke-width="0.11" points="546.76,-100.43 536.43,-98.04 543.01,-106.34 546.76,-100.43"/>
</g>
<!-- &#45;9 -->
<g id="node9" class="node">
<title>&#45;9</title>
<polygon fill="lightgray" stroke="black" points="463.5,-166.46 440,-166.46 440,-147.96 463.5,-147.96 463.5,-166.46"/>
<text text-anchor="middle" x="451.75" y="-153.91" font-family="Times,serif" font-size="9.00">&#45;9</text>
</g>
<!-- &#45;9&#45;&gt;110 -->
<g id="edge35" class="edge">
<title>&#45;9&#45;&gt;110</title>
<path fill="none" stroke="red" stroke-width="0.12" d="M439.53,-147.84C436.7,-146.05 433.67,-144.24 430.75,-142.71 395.76,-124.36 353.38,-107.54 325.78,-97.25"/>
<polygon fill="red" stroke="red" stroke-width="0.12" points="327.09,-94.01 316.49,-93.83 324.67,-100.57 327.09,-94.01"/>
</g>
<!-- &#45;9&#45;&gt;111 -->
<g id="edge38" class="edge">
<title>&#45;9&#45;&gt;111</title>
<path fill="none" stroke="red" stroke-width="0.22" d="M447.09,-147.7C442.45,-139.23 435.07,-125.77 428.44,-113.66"/>
<polygon fill="red" stroke="red" stroke-width="0.22" points="431.6,-112.14 423.72,-105.06 425.46,-115.51 431.6,-112.14"/>
</g>
<!-- &#45;9&#45;&gt;112 -->
<g id="edge40" class="edge">
<title>&#45;9&#45;&gt;112</title>
<path fill="none" stroke="red" stroke-width="0.17" d="M459.97,-147.7C469.25,-138.09 484.74,-122.05 497.49,-108.86"/>
<polygon fill="red" stroke="red" stroke-width="0.17" points="500.01,-111.29 504.44,-101.67 494.97,-106.43 500.01,-111.29"/>
</g>
<!-- &#45;10 -->
<g id="node10" class="node">
<title>&#45;10</title>
<polygon fill="lightgray" stroke="black" points="333.75,-166.46 305.75,-166.46 305.75,-147.96 333.75,-147.96 333.75,-166.46"/>
<text text-anchor="middle" x="319.75" y="-153.91" font-family="Times,serif" font-size="9.00">&#45;10</text>
</g>
<!-- &#45;10&#45;&gt;110 -->
<g id="edge42" class="edge">
<title>&#45;10&#45;&gt;110</title>
<path fill="none" stroke="green" stroke-width="0.57" d="M316.93,-147.7C314.32,-139.84 310.29,-127.68 306.51,-116.29"/>
<polygon fill="green" stroke="green" stroke-width="0.57" points="309.91,-115.41 303.44,-107.02 303.26,-117.61 309.91,-115.41"/>
</g>
<!-- &#45;10&#45;&gt;111 -->
<g id="edge26" class="edge">
<title>&#45;10&#45;&gt;111</title>
<path fill="none" stroke="red" stroke-width="0.17" d="M331.28,-147.7C345.56,-137.16 370.3,-118.91 388.96,-105.14"/>
<polygon fill="red" stroke="red" stroke-width="0.17" points="390.88,-108.07 396.85,-99.32 386.73,-102.44 390.88,-108.07"/>
</g>
<!-- &#45;11 -->
<g id="node11" class="node">
<title>&#45;11</title>
<polygon fill="lightgray" stroke="black" points="195.75,-166.46 167.75,-166.46 167.75,-147.96 195.75,-147.96 195.75,-166.46"/>
<text text-anchor="middle" x="181.75" y="-153.91" font-family="Times,serif" font-size="9.00">&#45;11</text>
</g>
<!-- &#45;11&#45;&gt;110 -->
<g id="edge34" class="edge">
<title>&#45;11&#45;&gt;110</title>
<path fill="none" stroke="red" stroke-width="0.36" d="M195.85,-147.7C214.3,-136.58 247,-116.85 270.17,-102.88"/>
<polygon fill="red" stroke="red" stroke-width="0.36" points="271.92,-105.91 278.67,-97.75 268.3,-99.92 271.92,-105.91"/>
</g>
<!-- &#45;12 -->
<g id="node12" class="node">
<title>&#45;12</title>
<polygon fill="lightgray" stroke="black" points="865.75,-166.46 837.75,-166.46 837.75,-147.96 865.75,-147.96 865.75,-166.46"/>
<text text-anchor="middle" x="851.75" y="-153.91" font-family="Times,serif" font-size="9.00">&#45;12</text>
</g>
<!-- &#45;13 -->
<g id="node13" class="node">
<title>&#45;13</title>
<polygon fill="lightgray" stroke="black" points="241.75,-166.46 213.75,-166.46 213.75,-147.96 241.75,-147.96 241.75,-166.46"/>
<text text-anchor="middle" x="227.75" y="-153.91" font-family="Times,serif" font-size="9.00">&#45;13</text>
</g>
<!-- &#45;13&#45;&gt;110 -->
<g id="edge4" class="edge">
<title>&#45;13&#45;&gt;110</title>
<path fill="none" stroke="green" stroke-width="0.22" d="M236.21,-147.7C245.93,-137.94 262.23,-121.55 275.47,-108.24"/>
<polygon fill="green" stroke="green" stroke-width="0.22" points="277.65,-111.01 282.22,-101.45 272.69,-106.08 277.65,-111.01"/>
</g>
<!-- &#45;14 -->
<g id="node14" class="node">
<title>&#45;14</title>
<polygon fill="lightgray" stroke="black" points="287.75,-166.46 259.75,-166.46 259.75,-147.96 287.75,-147.96 287.75,-166.46"/>
<text text-anchor="middle" x="273.75" y="-153.91" font-family="Times,serif" font-size="9.00">&#45;14</text>
</g>
<!-- &#45;14&#45;&gt;109 -->
<g id="edge16" class="edge">
<title>&#45;14&#45;&gt;109</title>
<path fill="none" stroke="red" stroke-width="0.35" d="M259.73,-147.77C256.79,-146.05 253.68,-144.29 250.75,-142.71 222.23,-127.32 188.89,-111.04 165.86,-100.06"/>
<polygon fill="red" stroke="red" stroke-width="0.35" points="167.37,-96.9 156.83,-95.77 164.37,-103.22 167.37,-96.9"/>
</g>
<!-- &#45;14&#45;&gt;110 -->
<g id="edge13" class="edge">
<title>&#45;14&#45;&gt;110</title>
<path fill="none" stroke="green" stroke-width="0.15" d="M276.57,-147.7C279.23,-139.68 283.38,-127.18 287.22,-115.59"/>
<polygon fill="green" stroke="green" stroke-width="0.15" points="290.44,-117 290.26,-106.41 283.79,-114.8 290.44,-117"/>
</g>
<!-- &#45;14&#45;&gt;112 -->
<g id="edge22" class="edge">
<title>&#45;14&#45;&gt;112</title>
<path fill="none" stroke="green" stroke-width="0.36" d="M287.01,-147.47C290.11,-145.7 293.47,-143.99 296.75,-142.71 366.65,-115.38 389.51,-127.1 461.75,-106.71 470.81,-104.15 480.53,-100.95 489.34,-97.86"/>
<polygon fill="green" stroke="green" stroke-width="0.36" points="490.41,-101.19 498.64,-94.52 488.05,-94.6 490.41,-101.19"/>
</g>
<!-- &#45;15 -->
<g id="node15" class="node">
<title>&#45;15</title>
<polygon fill="lightgray" stroke="black" points="685.75,-166.46 657.75,-166.46 657.75,-147.96 685.75,-147.96 685.75,-166.46"/>
<text text-anchor="middle" x="671.75" y="-153.91" font-family="Times,serif" font-size="9.00">&#45;15</text>
</g>
<!-- &#45;15&#45;&gt;111 -->
<g id="edge17" class="edge">
<title>&#45;15&#45;&gt;111</title>
<path fill="none" stroke="red" stroke-width="0.27" d="M658.48,-147.49C655.38,-145.72 652.02,-144 648.75,-142.71 580.95,-115.95 559.55,-124.04 488.75,-106.71 473.84,-103.06 457.34,-98.73 443.63,-95.04"/>
<polygon fill="red" stroke="red" stroke-width="0.27" points="444.72,-91.71 434.15,-92.47 442.89,-98.46 444.72,-91.71"/>
</g>
<!-- &#45;15&#45;&gt;112 -->
<g id="edge6" class="edge">
<title>&#45;15&#45;&gt;112</title>
<path fill="none" stroke="red" stroke-width="0.19" d="M657.79,-147.64C654.85,-145.94 651.72,-144.22 648.75,-142.71 614.73,-125.51 574.19,-108.64 547.53,-98.01"/>
<polygon fill="red" stroke="red" stroke-width="0.19" points="548.89,-94.79 538.31,-94.37 546.32,-101.3 548.89,-94.79"/>
</g>
<!-- &#45;16 -->
<g id="node16" class="node">
<title>&#45;16</title>
<polygon fill="lightgray" stroke="black" points="773.75,-166.46 745.75,-166.46 745.75,-147.96 773.75,-147.96 773.75,-166.46"/>
<text text-anchor="middle" x="759.75" y="-153.91" font-family="Times,serif" font-size="9.00">&#45;16</text>
</g>
<!-- &#45;16&#45;&gt;112 -->
<g id="edge36" class="edge">
<title>&#45;16&#45;&gt;112</title>
<path fill="none" stroke="green" stroke-width="0.12" d="M746.45,-147.56C743.35,-145.78 740,-144.05 736.75,-142.71 672.51,-116.25 592.32,-99.59 549.34,-91.89"/>
<polygon fill="green" stroke="green" stroke-width="0.12" points="550.13,-88.48 539.68,-90.2 548.93,-95.37 550.13,-88.48"/>
</g>
<!-- &#45;17 -->
<g id="node17" class="node">
<title>&#45;17</title>
<polygon fill="lightgray" stroke="black" points="819.75,-166.46 791.75,-166.46 791.75,-147.96 819.75,-147.96 819.75,-166.46"/>
<text text-anchor="middle" x="805.75" y="-153.91" font-family="Times,serif" font-size="9.00">&#45;17</text>
</g>
<!-- &#45;17&#45;&gt;112 -->
<g id="edge1" class="edge">
<title>&#45;17&#45;&gt;112</title>
<path fill="none" stroke="red" stroke-width="0.47" d="M792.49,-147.46C789.39,-145.69 786.03,-143.98 782.75,-142.71 702.13,-111.48 600.56,-96.25 550.13,-90.18"/>
<polygon fill="red" stroke="red" stroke-width="0.47" points="550.64,-86.71 540.31,-89.04 549.84,-93.67 550.64,-86.71"/>
</g>
<!-- &#45;18 -->
<g id="node18" class="node">
<title>&#45;18</title>
<polygon fill="lightgray" stroke="black" points="509.75,-166.46 481.75,-166.46 481.75,-147.96 509.75,-147.96 509.75,-166.46"/>
<text text-anchor="middle" x="495.75" y="-153.91" font-family="Times,serif" font-size="9.00">&#45;18</text>
</g>
<!-- &#45;18&#45;&gt;110 -->
<g id="edge27" class="edge">
<title>&#45;18&#45;&gt;110</title>
<path fill="none" stroke="green" stroke-width="0.41" d="M482.39,-147.7C479.3,-145.91 475.96,-144.14 472.75,-142.71 423.52,-120.79 363.05,-103.57 327.33,-94.33"/>
<polygon fill="green" stroke="green" stroke-width="0.41" points="328.23,-90.95 317.68,-91.87 326.51,-97.73 328.23,-90.95"/>
</g>
<!-- &#45;18&#45;&gt;111 -->
<g id="edge5" class="edge">
<title>&#45;18&#45;&gt;111</title>
<path fill="none" stroke="red" stroke-width="0.34" d="M485.7,-147.7C473.75,-137.6 453.43,-120.41 437.42,-106.87"/>
<polygon fill="red" stroke="red" stroke-width="0.34" points="439.79,-104.3 429.9,-100.51 435.27,-109.64 439.79,-104.3"/>
</g>
<!-- &#45;18&#45;&gt;112 -->
<g id="edge14" class="edge">
<title>&#45;18&#45;&gt;112</title>
<path fill="none" stroke="red" stroke-width="0.3" d="M498.57,-147.7C501.21,-139.76 505.29,-127.43 509.1,-115.94"/>
<polygon fill="red" stroke="red" stroke-width="0.3" points="512.37,-117.21 512.19,-106.62 505.73,-115.01 512.37,-117.21"/>
</g>
<!-- &#45;19 -->
<g id="node19" class="node">
<title>&#45;19</title>
<polygon fill="lightgray" stroke="black" points="379.75,-166.46 351.75,-166.46 351.75,-147.96 379.75,-147.96 379.75,-166.46"/>
<text text-anchor="middle" x="365.75" y="-153.91" font-family="Times,serif" font-size="9.00">&#45;19</text>
</g>
<!-- &#45;19&#45;&gt;110 -->
<g id="edge12" class="edge">
<title>&#45;19&#45;&gt;110</title>
<path fill="none" stroke="red" stroke-width="0.33" d="M357.29,-147.7C347.66,-138.03 331.57,-121.85 318.4,-108.61"/>
<polygon fill="red" stroke="red" stroke-width="0.33" points="320.93,-106.2 311.4,-101.57 315.97,-111.13 320.93,-106.2"/>
</g>
<!-- &#45;19&#45;&gt;111 -->
<g id="edge21" class="edge">
<title>&#45;19&#45;&gt;111</title>
<path fill="none" stroke="red" stroke-width="0.13" d="M371.64,-147.7C377.78,-138.83 387.71,-124.48 396.38,-111.95"/>
<polygon fill="red" stroke="red" stroke-width="0.13" points="399.2,-114.02 402.01,-103.81 393.44,-110.04 399.2,-114.02"/>
</g>
<!-- &#45;20 -->
<g id="node20" class="node">
<title>&#45;20</title>
<polygon fill="lightgray" stroke="black" points="555.75,-166.46 527.75,-166.46 527.75,-147.96 555.75,-147.96 555.75,-166.46"/>
<text text-anchor="middle" x="541.75" y="-153.91" font-family="Times,serif" font-size="9.00">&#45;20</text>
</g>
<!-- &#45;20&#45;&gt;110 -->
<g id="edge18" class="edge">
<title>&#45;20&#45;&gt;110</title>
<path fill="none" stroke="green" stroke-width="0.45" d="M528.46,-147.55C525.36,-145.77 522.01,-144.04 518.75,-142.71 501,-135.44 383.77,-107.37 327.19,-94"/>
<polygon fill="green" stroke="green" stroke-width="0.45" points="328.24,-90.66 317.71,-91.77 326.64,-97.47 328.24,-90.66"/>
</g>
<!-- &#45;20&#45;&gt;112 -->
<g id="edge11" class="edge">
<title>&#45;20&#45;&gt;112</title>
<path fill="none" stroke="green" stroke-width="0.16" d="M538.93,-147.7C536.27,-139.68 532.12,-127.18 528.28,-115.59"/>
<polygon fill="green" stroke="green" stroke-width="0.16" points="531.71,-114.81 525.24,-106.42 525.06,-117.01 531.71,-114.81"/>
</g>
<!-- 0 -->
<g id="node21" class="node">
<title>0</title>
<ellipse fill="lightblue" stroke="black" cx="518.75" cy="-14.5" rx="14.5" ry="14.5"/>
<text text-anchor="middle" x="518.75" y="-11.2" font-family="Times,serif" font-size="9.00">0</text>
</g>
<!-- 1 -->
<g id="node22" class="node">
<title>1</title>
<ellipse fill="lightblue" stroke="black" cx="897.75" cy="-157.21" rx="14.5" ry="14.5"/>
<text text-anchor="middle" x="897.75" y="-153.91" font-family="Times,serif" font-size="9.00">1</text>
</g>
<!-- 2 -->
<g id="node23" class="node">
<title>2</title>
<ellipse fill="lightblue" stroke="black" cx="185.75" cy="-14.5" rx="14.5" ry="14.5"/>
<text text-anchor="middle" x="185.75" y="-11.2" font-family="Times,serif" font-size="9.00">2</text>
</g>
<!-- 3 -->
<g id="node24" class="node">
<title>3</title>
<ellipse fill="lightblue" stroke="black" cx="331.75" cy="-14.5" rx="14.5" ry="14.5"/>
<text text-anchor="middle" x="331.75" y="-11.2" font-family="Times,serif" font-size="9.00">3</text>
</g>
<!-- 4 -->
<g id="node25" class="node">
<title>4</title>
<ellipse fill="lightblue" stroke="black" cx="428.75" cy="-14.5" rx="14.5" ry="14.5"/>
<text text-anchor="middle" x="428.75" y="-11.2" font-family="Times,serif" font-size="9.00">4</text>
</g>
<!-- 4&#45;&gt;4 -->
<g id="edge15" class="edge">
<title>4&#45;&gt;4</title>
<path fill="none" stroke="green" stroke-width="0.27" d="M439.07,-24.94C449.56,-31.08 461.25,-27.6 461.25,-14.5 461.25,-5.49 455.72,-1.03 448.86,-1.12"/>
<polygon fill="green" stroke="green" stroke-width="0.27" points="448.03,2.29 439.45,-3.94 450.04,-4.42 448.03,2.29"/>
</g>
<!-- 109&#45;&gt;2 -->
<g id="edge39" class="edge">
<title>109&#45;&gt;2</title>
<path fill="none" stroke="green" stroke-width="0.23" d="M149.37,-68.06C156.15,-58.26 164.75,-45.84 171.88,-35.53"/>
<polygon fill="green" stroke="green" stroke-width="0.23" points="174.69,-37.63 177.5,-27.42 168.93,-33.65 174.69,-37.63"/>
</g>
<!-- 109&#45;&gt;3 -->
<g id="edge28" class="edge">
<title>109&#45;&gt;3</title>
<path fill="none" stroke="red" stroke-width="0.16" d="M157.42,-77.82C193.67,-64.86 270.83,-37.27 309.16,-23.57"/>
<polygon fill="red" stroke="red" stroke-width="0.16" points="309.98,-26.99 318.22,-20.33 307.63,-20.4 309.98,-26.99"/>
</g>
<!-- 110&#45;&gt;4 -->
<g id="edge10" class="edge">
<title>110&#45;&gt;4</title>
<path fill="none" stroke="red" stroke-width="0.17" d="M315.1,-75.21C339.22,-62.53 381.53,-40.31 407.16,-26.84"/>
<polygon fill="red" stroke="red" stroke-width="0.17" points="408.64,-30.02 415.86,-22.27 405.38,-23.82 408.64,-30.02"/>
</g>
<!-- 111&#45;&gt;111 -->
<g id="edge19" class="edge">
<title>111&#45;&gt;111</title>
<path fill="none" stroke="red" stroke-width="0.13" d="M430.93,-98.17C441.98,-101.39 452.61,-97.28 452.61,-85.85 452.61,-77.99 447.58,-73.6 440.85,-72.66"/>
<polygon fill="red" stroke="red" stroke-width="0.13" points="440.78,-69.16 431.12,-73.51 441.39,-76.13 440.78,-69.16"/>
</g>
<!-- 112&#45;&gt;0 -->
<g id="edge8" class="edge">
<title>112&#45;&gt;0</title>
<path fill="none" stroke="red" stroke-width="0.21" d="M518.75,-64.79C518.75,-56.89 518.75,-47.75 518.75,-39.5"/>
<polygon fill="red" stroke="red" stroke-width="0.21" points="522.25,-39.68 518.75,-29.68 515.25,-39.68 522.25,-39.68"/>
</g>
<!-- 112&#45;&gt;2 -->
<g id="edge7" class="edge">
<title>112&#45;&gt;2</title>
<path fill="none" stroke="green" stroke-width="0.28" d="M499.46,-77.28C488.53,-73.2 474.52,-68.34 461.75,-64.99 370.44,-41.06 259.12,-24.99 210.48,-18.6"/>
<polygon fill="green" stroke="green" stroke-width="0.28" points="211.08,-15.14 200.71,-17.33 210.18,-22.09 211.08,-15.14"/>
</g>
<!-- 112&#45;&gt;3 -->
<g id="edge33" class="edge">
<title>112&#45;&gt;3</title>
<path fill="none" stroke="green" stroke-width="0.1" d="M499.09,-77.56C464.29,-64.65 392.02,-37.85 354.89,-24.08"/>
<polygon fill="green" stroke="green" stroke-width="0.1" points="356.14,-20.81 345.55,-20.61 353.71,-27.37 356.14,-20.81"/>
</g>
<!-- 112&#45;&gt;4 -->
<g id="edge24" class="edge">
<title>112&#45;&gt;4</title>
<path fill="none" stroke="green" stroke-width="0.33" d="M502.66,-72.45C487.39,-60.68 464.41,-42.98 448.14,-30.43"/>
<polygon fill="green" stroke="green" stroke-width="0.33" points="450.33,-27.7 440.27,-24.37 446.05,-33.25 450.33,-27.7"/>
</g>
</g>
</svg>
