<?xml version="1.0" encoding="UTF-8" standalone="no"?>
<!DOCTYPE svg PUBLIC "-//W3C//DTD SVG 1.1//EN"
 "http://www.w3.org/Graphics/SVG/1.1/DTD/svg11.dtd">
<!-- Generated by graphviz version 12.1.1 (20240910.0053)
 -->
<!-- Pages: 1 -->
<svg width="998pt" height="192pt"
 viewBox="0.00 0.00 998.25 192.43" xmlns="http://www.w3.org/2000/svg" xmlns:xlink="http://www.w3.org/1999/xlink">
<g id="graph0" class="graph" transform="scale(1 1) rotate(0) translate(4 188.43)">
<polygon fill="white" stroke="none" points="-4,4 -4,-188.43 994.25,-188.43 994.25,4 -4,4"/>
<!-- &#45;1 -->
<g id="node1" class="node">
<title>&#45;1</title>
<polygon fill="lightgray" stroke="black" points="23.5,-172.82 0,-172.82 0,-154.32 23.5,-154.32 23.5,-172.82"/>
<text text-anchor="middle" x="11.75" y="-160.27" font-family="Times,serif" font-size="9.00">&#45;1</text>
</g>
<!-- &#45;2 -->
<g id="node2" class="node">
<title>&#45;2</title>
<polygon fill="lightgray" stroke="black" points="65.5,-172.82 42,-172.82 42,-154.32 65.5,-154.32 65.5,-172.82"/>
<text text-anchor="middle" x="53.75" y="-160.27" font-family="Times,serif" font-size="9.00">&#45;2</text>
</g>
<!-- &#45;3 -->
<g id="node3" class="node">
<title>&#45;3</title>
<polygon fill="lightgray" stroke="black" points="417.5,-172.82 394,-172.82 394,-154.32 417.5,-154.32 417.5,-172.82"/>
<text text-anchor="middle" x="405.75" y="-160.27" font-family="Times,serif" font-size="9.00">&#45;3</text>
</g>
<!-- 9 -->
<g id="node27" class="node">
<title>9</title>
<ellipse fill="white" stroke="black" cx="250.75" cy="-85.85" rx="14.5" ry="14.5"/>
<text text-anchor="middle" x="250.75" y="-82.55" font-family="Times,serif" font-size="9.00">9</text>
</g>
<!-- &#45;3&#45;&gt;9 -->
<g id="edge9" class="edge">
<title>&#45;3&#45;&gt;9</title>
<path fill="none" stroke="green" stroke-width="0.28" d="M398.16,-154.09C394.4,-150.26 389.63,-145.88 384.75,-142.71 349.14,-119.57 302.37,-102.7 274.54,-93.86"/>
<polygon fill="green" stroke="green" stroke-width="0.28" points="275.86,-90.6 265.27,-91 273.79,-97.29 275.86,-90.6"/>
</g>
<!-- 12 -->
<g id="node29" class="node">
<title>12</title>
<ellipse fill="white" stroke="black" cx="592.75" cy="-85.85" rx="17.68" ry="17.68"/>
<text text-anchor="middle" x="592.75" y="-82.55" font-family="Times,serif" font-size="9.00">12</text>
</g>
<!-- &#45;3&#45;&gt;12 -->
<g id="edge23" class="edge">
<title>&#45;3&#45;&gt;12</title>
<path fill="none" stroke="red" stroke-width="0.2" stroke-dasharray="1,5" d="M412.78,-154.2C416.55,-150.2 421.49,-145.65 426.75,-142.71 480.57,-112.61 504.17,-131.23 560.75,-106.71 563.81,-105.38 566.92,-103.8 569.94,-102.11"/>
<polygon fill="red" stroke="red" stroke-width="0.2" points="571.58,-105.21 578.33,-97.04 567.96,-99.22 571.58,-105.21"/>
</g>
<!-- &#45;4 -->
<g id="node4" class="node">
<title>&#45;4</title>
<polygon fill="lightgray" stroke="black" points="597.5,-172.82 574,-172.82 574,-154.32 597.5,-154.32 597.5,-172.82"/>
<text text-anchor="middle" x="585.75" y="-160.27" font-family="Times,serif" font-size="9.00">&#45;4</text>
</g>
<!-- 10 -->
<g id="node28" class="node">
<title>10</title>
<ellipse fill="white" stroke="black" cx="533.75" cy="-85.85" rx="17.68" ry="17.68"/>
<text text-anchor="middle" x="533.75" y="-82.55" font-family="Times,serif" font-size="9.00">10</text>
</g>
<!-- &#45;4&#45;&gt;10 -->
<g id="edge15" class="edge">
<title>&#45;4&#45;&gt;10</title>
<path fill="none" stroke="green" stroke-width="0.25" stroke-dasharray="1,5" d="M579.78,-153.88C572.38,-143.1 559.48,-124.31 549.21,-109.37"/>
<polygon fill="green" stroke="green" stroke-width="0.25" points="552.29,-107.67 543.75,-101.41 546.52,-111.63 552.29,-107.67"/>
</g>
<!-- &#45;4&#45;&gt;12 -->
<g id="edge28" class="edge">
<title>&#45;4&#45;&gt;12</title>
<path fill="none" stroke="green" stroke-width="0.19" d="M586.55,-153.88C587.45,-144.16 588.95,-127.93 590.25,-113.88"/>
<polygon fill="green" stroke="green" stroke-width="0.19" points="593.73,-114.26 591.17,-103.98 586.76,-113.62 593.73,-114.26"/>
</g>
<!-- &#45;5 -->
<g id="node5" class="node">
<title>&#45;5</title>
<polygon fill="lightgray" stroke="black" points="153.5,-172.82 130,-172.82 130,-154.32 153.5,-154.32 153.5,-172.82"/>
<text text-anchor="middle" x="141.75" y="-160.27" font-family="Times,serif" font-size="9.00">&#45;5</text>
</g>
<!-- 3 -->
<g id="node24" class="node">
<title>3</title>
<ellipse fill="lightblue" stroke="black" cx="193.75" cy="-14.5" rx="14.5" ry="14.5"/>
<text text-anchor="middle" x="193.75" y="-11.2" font-family="Times,serif" font-size="9.00">3</text>
</g>
<!-- &#45;5&#45;&gt;3 -->
<g id="edge34" class="edge">
<title>&#45;5&#45;&gt;3</title>
<path fill="none" stroke="green" stroke-width="0.26" d="M144.69,-154.24C152.49,-132.2 173.86,-71.75 185.66,-38.37"/>
<polygon fill="green" stroke="green" stroke-width="0.26" points="188.96,-39.55 188.99,-28.95 182.36,-37.21 188.96,-39.55"/>
</g>
<!-- &#45;5&#45;&gt;9 -->
<g id="edge4" class="edge">
<title>&#45;5&#45;&gt;9</title>
<path fill="none" stroke="red" stroke-width="0.28" d="M150,-154.07C153.74,-150.4 158.32,-146.16 162.75,-142.71 184.29,-125.94 211.01,-109.53 229.32,-98.89"/>
<polygon fill="red" stroke="red" stroke-width="0.28" points="231,-101.96 237.94,-93.95 227.52,-95.88 231,-101.96"/>
</g>
<!-- &#45;5&#45;&gt;10 -->
<g id="edge10" class="edge">
<title>&#45;5&#45;&gt;10</title>
<path fill="none" stroke="red" stroke-width="0.23" d="M148.65,-153.94C152.38,-149.88 157.34,-145.35 162.75,-142.71 223.58,-113.07 430.07,-94.74 505.7,-88.89"/>
<polygon fill="red" stroke="red" stroke-width="0.23" points="505.82,-92.4 515.53,-88.15 505.29,-85.42 505.82,-92.4"/>
</g>
<!-- &#45;6 -->
<g id="node6" class="node">
<title>&#45;6</title>
<polygon fill="lightgray" stroke="black" points="639.5,-172.82 616,-172.82 616,-154.32 639.5,-154.32 639.5,-172.82"/>
<text text-anchor="middle" x="627.75" y="-160.27" font-family="Times,serif" font-size="9.00">&#45;6</text>
</g>
<!-- &#45;6&#45;&gt;10 -->
<g id="edge20" class="edge">
<title>&#45;6&#45;&gt;10</title>
<path fill="none" stroke="green" stroke-width="0.28" d="M618.95,-153.85C615.26,-150.31 610.88,-146.22 606.75,-142.71 590.19,-128.61 570.58,-113.7 555.86,-102.83"/>
<polygon fill="green" stroke="green" stroke-width="0.28" points="558.29,-100.27 548.16,-97.19 554.15,-105.92 558.29,-100.27"/>
</g>
<!-- &#45;6&#45;&gt;12 -->
<g id="edge18" class="edge">
<title>&#45;6&#45;&gt;12</title>
<path fill="none" stroke="red" stroke-width="0.14" stroke-dasharray="1,5" d="M623.74,-153.88C618.96,-143.56 610.8,-125.89 604.04,-111.28"/>
<polygon fill="red" stroke="red" stroke-width="0.14" points="607.32,-110.03 599.95,-102.43 600.97,-112.97 607.32,-110.03"/>
</g>
<!-- &#45;7 -->
<g id="node7" class="node">
<title>&#45;7</title>
<polygon fill="lightgray" stroke="black" points="727.5,-172.82 704,-172.82 704,-154.32 727.5,-154.32 727.5,-172.82"/>
<text text-anchor="middle" x="715.75" y="-160.27" font-family="Times,serif" font-size="9.00">&#45;7</text>
</g>
<!-- &#45;7&#45;&gt;12 -->
<g id="edge24" class="edge">
<title>&#45;7&#45;&gt;12</title>
<path fill="none" stroke="red" stroke-width="0.34" stroke-dasharray="1,5" d="M707.6,-153.93C703.88,-150.23 699.29,-146.02 694.75,-142.71 670.23,-124.86 639.37,-108.73 618.05,-98.44"/>
<polygon fill="red" stroke="red" stroke-width="0.34" points="619.7,-95.35 609.17,-94.23 616.7,-101.68 619.7,-95.35"/>
</g>
<!-- &#45;8 -->
<g id="node8" class="node">
<title>&#45;8</title>
<polygon fill="lightgray" stroke="black" points="241.5,-172.82 218,-172.82 218,-154.32 241.5,-154.32 241.5,-172.82"/>
<text text-anchor="middle" x="229.75" y="-160.27" font-family="Times,serif" font-size="9.00">&#45;8</text>
</g>
<!-- &#45;8&#45;&gt;9 -->
<g id="edge16" class="edge">
<title>&#45;8&#45;&gt;9</title>
<path fill="none" stroke="red" stroke-width="0.31" d="M232.16,-153.88C235.09,-143.32 240.15,-125.06 244.26,-110.27"/>
<polygon fill="red" stroke="red" stroke-width="0.31" points="247.61,-111.28 246.91,-100.71 240.86,-109.41 247.61,-111.28"/>
</g>
<!-- &#45;9 -->
<g id="node9" class="node">
<title>&#45;9</title>
<polygon fill="lightgray" stroke="black" points="283.5,-172.82 260,-172.82 260,-154.32 283.5,-154.32 283.5,-172.82"/>
<text text-anchor="middle" x="271.75" y="-160.27" font-family="Times,serif" font-size="9.00">&#45;9</text>
</g>
<!-- &#45;9&#45;&gt;9 -->
<g id="edge17" class="edge">
<title>&#45;9&#45;&gt;9</title>
<path fill="none" stroke="red" stroke-width="0.14" d="M269.34,-153.88C266.38,-143.22 261.25,-124.71 257.13,-109.84"/>
<polygon fill="red" stroke="red" stroke-width="0.14" points="260.57,-109.17 254.53,-100.47 253.83,-111.05 260.57,-109.17"/>
</g>
<!-- &#45;10 -->
<g id="node10" class="node">
<title>&#45;10</title>
<polygon fill="lightgray" stroke="black" points="833.75,-172.82 805.75,-172.82 805.75,-154.32 833.75,-154.32 833.75,-172.82"/>
<text text-anchor="middle" x="819.75" y="-160.27" font-family="Times,serif" font-size="9.00">&#45;10</text>
</g>
<!-- &#45;11 -->
<g id="node11" class="node">
<title>&#45;11</title>
<polygon fill="lightgray" stroke="black" points="111.75,-172.82 83.75,-172.82 83.75,-154.32 111.75,-154.32 111.75,-172.82"/>
<text text-anchor="middle" x="97.75" y="-160.27" font-family="Times,serif" font-size="9.00">&#45;11</text>
</g>
<!-- &#45;11&#45;&gt;9 -->
<g id="edge31" class="edge">
<title>&#45;11&#45;&gt;9</title>
<path fill="none" stroke="red" stroke-width="0.51" d="M106.21,-154.16C110.35,-150.34 115.56,-145.96 120.75,-142.71 155.34,-121.07 199.78,-103.99 226.72,-94.67"/>
<polygon fill="red" stroke="red" stroke-width="0.51" points="227.7,-98.03 236.05,-91.52 225.45,-91.4 227.7,-98.03"/>
</g>
<!-- &#45;12 -->
<g id="node12" class="node">
<title>&#45;12</title>
<polygon fill="lightgray" stroke="black" points="199.75,-172.82 171.75,-172.82 171.75,-154.32 199.75,-154.32 199.75,-172.82"/>
<text text-anchor="middle" x="185.75" y="-160.27" font-family="Times,serif" font-size="9.00">&#45;12</text>
</g>
<!-- &#45;12&#45;&gt;9 -->
<g id="edge3" class="edge">
<title>&#45;12&#45;&gt;9</title>
<path fill="none" stroke="green" stroke-width="0.21" d="M193.21,-153.88C203.37,-142.04 221.83,-120.54 235.11,-105.07"/>
<polygon fill="green" stroke="green" stroke-width="0.21" points="237.44,-107.73 241.3,-97.86 232.13,-103.17 237.44,-107.73"/>
</g>
<!-- &#45;13 -->
<g id="node13" class="node">
<title>&#45;13</title>
<polygon fill="lightgray" stroke="black" points="329.75,-172.82 301.75,-172.82 301.75,-154.32 329.75,-154.32 329.75,-172.82"/>
<text text-anchor="middle" x="315.75" y="-160.27" font-family="Times,serif" font-size="9.00">&#45;13</text>
</g>
<!-- &#45;13&#45;&gt;9 -->
<g id="edge27" class="edge">
<title>&#45;13&#45;&gt;9</title>
<path fill="none" stroke="green" stroke-width="0.28" d="M308.29,-153.88C298.22,-142.15 280,-120.93 266.76,-105.5"/>
<polygon fill="green" stroke="green" stroke-width="0.28" points="269.44,-103.25 260.27,-97.94 264.13,-107.81 269.44,-103.25"/>
</g>
<!-- &#45;13&#45;&gt;10 -->
<g id="edge6" class="edge">
<title>&#45;13&#45;&gt;10</title>
<path fill="none" stroke="red" stroke-width="0.63" d="M324.03,-153.86C328.14,-149.97 333.37,-145.62 338.75,-142.71 393.73,-112.99 466.2,-97.63 505.49,-91"/>
<polygon fill="red" stroke="red" stroke-width="0.63" points="505.84,-94.49 515.16,-89.44 504.73,-87.58 505.84,-94.49"/>
</g>
<!-- &#45;14 -->
<g id="node14" class="node">
<title>&#45;14</title>
<polygon fill="lightgray" stroke="black" points="555.75,-172.82 527.75,-172.82 527.75,-154.32 555.75,-154.32 555.75,-172.82"/>
<text text-anchor="middle" x="541.75" y="-160.27" font-family="Times,serif" font-size="9.00">&#45;14</text>
</g>
<!-- &#45;14&#45;&gt;10 -->
<g id="edge25" class="edge">
<title>&#45;14&#45;&gt;10</title>
<path fill="none" stroke="red" stroke-width="0.15" d="M540.83,-153.88C539.8,-144.07 538.06,-127.62 536.56,-113.47"/>
<polygon fill="red" stroke="red" stroke-width="0.15" points="540.08,-113.5 535.55,-103.92 533.12,-114.23 540.08,-113.5"/>
</g>
<!-- &#45;15 -->
<g id="node15" class="node">
<title>&#45;15</title>
<polygon fill="lightgray" stroke="black" points="463.75,-172.82 435.75,-172.82 435.75,-154.32 463.75,-154.32 463.75,-172.82"/>
<text text-anchor="middle" x="449.75" y="-160.27" font-family="Times,serif" font-size="9.00">&#45;15</text>
</g>
<!-- &#45;15&#45;&gt;9 -->
<g id="edge12" class="edge">
<title>&#45;15&#45;&gt;9</title>
<path fill="none" stroke="green" stroke-width="0.54" stroke-dasharray="1,5" d="M441.43,-153.93C437.31,-150.05 432.09,-145.7 426.75,-142.71 376.76,-114.76 310.82,-98.62 275.54,-91.41"/>
<polygon fill="green" stroke="green" stroke-width="0.54" points="276.51,-88.04 266.02,-89.54 275.16,-94.9 276.51,-88.04"/>
</g>
<!-- &#45;15&#45;&gt;12 -->
<g id="edge14" class="edge">
<title>&#45;15&#45;&gt;12</title>
<path fill="none" stroke="red" stroke-width="0.49" d="M458.18,-154.12C462.32,-150.29 467.53,-145.91 472.75,-142.71 508.77,-120.61 523.11,-125.92 560.75,-106.71 563.63,-105.24 566.59,-103.6 569.49,-101.91"/>
<polygon fill="red" stroke="red" stroke-width="0.49" points="571.04,-105.06 577.75,-96.86 567.39,-99.09 571.04,-105.06"/>
</g>
<!-- &#45;16 -->
<g id="node16" class="node">
<title>&#45;16</title>
<polygon fill="lightgray" stroke="black" points="509.75,-172.82 481.75,-172.82 481.75,-154.32 509.75,-154.32 509.75,-172.82"/>
<text text-anchor="middle" x="495.75" y="-160.27" font-family="Times,serif" font-size="9.00">&#45;16</text>
</g>
<!-- &#45;16&#45;&gt;9 -->
<g id="edge29" class="edge">
<title>&#45;16&#45;&gt;9</title>
<path fill="none" stroke="green" stroke-width="0.32" d="M487.93,-154.18C483.77,-150.18 478.37,-145.63 472.75,-142.71 406.55,-108.3 318.06,-94.32 275.57,-89.31"/>
<polygon fill="green" stroke="green" stroke-width="0.32" points="276.15,-85.85 265.82,-88.23 275.37,-92.81 276.15,-85.85"/>
</g>
<!-- &#45;16&#45;&gt;10 -->
<g id="edge22" class="edge">
<title>&#45;16&#45;&gt;10</title>
<path fill="none" stroke="green" stroke-width="0.31" stroke-dasharray="1,5" d="M500.11,-153.88C505.29,-143.56 514.16,-125.89 521.49,-111.28"/>
<polygon fill="green" stroke="green" stroke-width="0.31" points="524.46,-113.16 525.82,-102.65 518.21,-110.02 524.46,-113.16"/>
</g>
<!-- &#45;16&#45;&gt;12 -->
<g id="edge1" class="edge">
<title>&#45;16&#45;&gt;12</title>
<path fill="none" stroke="red" stroke-width="0.12" d="M505.48,-153.92C509.53,-150.38 514.32,-146.29 518.75,-142.71 535.81,-128.93 555.68,-113.99 570.52,-103.04"/>
<polygon fill="red" stroke="red" stroke-width="0.12" points="572.5,-105.93 578.49,-97.19 568.36,-100.29 572.5,-105.93"/>
</g>
<!-- &#45;17 -->
<g id="node17" class="node">
<title>&#45;17</title>
<polygon fill="lightgray" stroke="black" points="685.75,-172.82 657.75,-172.82 657.75,-154.32 685.75,-154.32 685.75,-172.82"/>
<text text-anchor="middle" x="671.75" y="-160.27" font-family="Times,serif" font-size="9.00">&#45;17</text>
</g>
<!-- &#45;17&#45;&gt;10 -->
<g id="edge30" class="edge">
<title>&#45;17&#45;&gt;10</title>
<path fill="none" stroke="green" stroke-width="0.37" stroke-dasharray="1,5" d="M663.29,-154.17C659.14,-150.35 653.93,-145.97 648.75,-142.71 614.7,-121.33 601.37,-125.36 565.75,-106.71 562.89,-105.21 559.94,-103.55 557.04,-101.85"/>
<polygon fill="green" stroke="green" stroke-width="0.37" points="558.97,-98.93 548.62,-96.7 555.32,-104.9 558.97,-98.93"/>
</g>
<!-- &#45;17&#45;&gt;12 -->
<g id="edge5" class="edge">
<title>&#45;17&#45;&gt;12</title>
<path fill="none" stroke="red" stroke-width="0.35" d="M662.69,-153.88C650.57,-142.27 628.74,-121.35 612.69,-105.96"/>
<polygon fill="red" stroke="red" stroke-width="0.35" points="615.36,-103.67 605.72,-99.28 610.52,-108.73 615.36,-103.67"/>
</g>
<!-- &#45;18 -->
<g id="node18" class="node">
<title>&#45;18</title>
<polygon fill="lightgray" stroke="black" points="375.75,-172.82 347.75,-172.82 347.75,-154.32 375.75,-154.32 375.75,-172.82"/>
<text text-anchor="middle" x="361.75" y="-160.27" font-family="Times,serif" font-size="9.00">&#45;18</text>
</g>
<!-- &#45;18&#45;&gt;10 -->
<g id="edge21" class="edge">
<title>&#45;18&#45;&gt;10</title>
<path fill="none" stroke="green" stroke-width="0.24" d="M370.14,-154.05C374.27,-150.2 379.49,-145.83 384.75,-142.71 424.67,-119.03 476.37,-102.37 507.19,-93.72"/>
<polygon fill="green" stroke="green" stroke-width="0.24" points="507.72,-97.2 516.44,-91.19 505.87,-90.45 507.72,-97.2"/>
</g>
<!-- &#45;19 -->
<g id="node19" class="node">
<title>&#45;19</title>
<polygon fill="lightgray" stroke="black" points="879.75,-172.82 851.75,-172.82 851.75,-154.32 879.75,-154.32 879.75,-172.82"/>
<text text-anchor="middle" x="865.75" y="-160.27" font-family="Times,serif" font-size="9.00">&#45;19</text>
</g>
<!-- &#45;20 -->
<g id="node20" class="node">
<title>&#45;20</title>
<polygon fill="lightgray" stroke="black" points="925.75,-172.82 897.75,-172.82 897.75,-154.32 925.75,-154.32 925.75,-172.82"/>
<text text-anchor="middle" x="911.75" y="-160.27" font-family="Times,serif" font-size="9.00">&#45;20</text>
</g>
<!-- 0 -->
<g id="node21" class="node">
<title>0</title>
<ellipse fill="lightblue" stroke="black" cx="957.75" cy="-163.57" rx="14.5" ry="14.5"/>
<text text-anchor="middle" x="957.75" y="-160.27" font-family="Times,serif" font-size="9.00">0</text>
</g>
<!-- 0&#45;&gt;0 -->
<g id="edge19" class="edge">
<title>0&#45;&gt;0</title>
<path fill="none" stroke="green" stroke-width="0.88" stroke-dasharray="1,5" d="M967.73,-174.72C978.31,-181.71 990.25,-177.99 990.25,-163.57 990.25,-153.88 984.86,-149.02 978.11,-149"/>
<polygon fill="green" stroke="green" stroke-width="0.88" points="977.4,-145.55 968.99,-152 979.59,-152.2 977.4,-145.55"/>
</g>
<!-- 280 -->
<g id="node30" class="node">
<title>280</title>
<ellipse fill="white" stroke="black" cx="957.75" cy="-85.85" rx="20.86" ry="20.86"/>
<text text-anchor="middle" x="957.75" y="-82.55" font-family="Times,serif" font-size="9.00">280</text>
</g>
<!-- 0&#45;&gt;280 -->
<g id="edge32" class="edge">
<title>0&#45;&gt;280</title>
<path fill="none" stroke="red" stroke-width="0.37" d="M952.53,-149.73C951.21,-140.71 950.74,-128.27 951.13,-116.83"/>
<polygon fill="red" stroke="red" stroke-width="0.37" points="954.62,-117.07 951.73,-106.88 947.64,-116.65 954.62,-117.07"/>
</g>
<!-- 1 -->
<g id="node22" class="node">
<title>1</title>
<ellipse fill="lightblue" stroke="black" cx="592.75" cy="-14.5" rx="14.5" ry="14.5"/>
<text text-anchor="middle" x="592.75" y="-11.2" font-family="Times,serif" font-size="9.00">1</text>
</g>
<!-- 2 -->
<g id="node23" class="node">
<title>2</title>
<ellipse fill="lightblue" stroke="black" cx="250.75" cy="-14.5" rx="14.5" ry="14.5"/>
<text text-anchor="middle" x="250.75" y="-11.2" font-family="Times,serif" font-size="9.00">2</text>
</g>
<!-- 4 -->
<g id="node25" class="node">
<title>4</title>
<ellipse fill="lightblue" stroke="black" cx="527.75" cy="-14.5" rx="14.5" ry="14.5"/>
<text text-anchor="middle" x="527.75" y="-11.2" font-family="Times,serif" font-size="9.00">4</text>
</g>
<!-- 4&#45;&gt;4 -->
<g id="edge26" class="edge">
<title>4&#45;&gt;4</title>
<path fill="none" stroke="red" stroke-width="0.31" stroke-dasharray="1,5" d="M538.07,-24.94C548.56,-31.08 560.25,-27.6 560.25,-14.5 560.25,-5.49 554.72,-1.03 547.86,-1.12"/>
<polygon fill="red" stroke="red" stroke-width="0.31" points="547.09,2.31 538.52,-3.92 549.1,-4.4 547.09,2.31"/>
</g>
<!-- 323 -->
<g id="node26" class="node">
<title>323</title>
<ellipse fill="white" stroke="black" cx="766.75" cy="-163.57" rx="20.86" ry="20.86"/>
<text text-anchor="middle" x="766.75" y="-160.27" font-family="Times,serif" font-size="9.00">323</text>
</g>
<!-- 323&#45;&gt;12 -->
<g id="edge35" class="edge">
<title>323&#45;&gt;12</title>
<path fill="none" stroke="red" stroke-width="0.14" d="M750,-150.57C745.78,-147.81 741.19,-145.01 736.75,-142.71 697.34,-122.32 648.7,-104.95 619.24,-95.22"/>
<polygon fill="red" stroke="red" stroke-width="0.14" points="620.46,-91.93 609.86,-92.16 618.29,-98.59 620.46,-91.93"/>
</g>
<!-- 9&#45;&gt;2 -->
<g id="edge13" class="edge">
<title>9&#45;&gt;2</title>
<path fill="none" stroke="green" stroke-width="0.15" d="M250.75,-71.15C250.75,-62.03 250.75,-49.81 250.75,-39.14"/>
<polygon fill="green" stroke="green" stroke-width="0.15" points="254.25,-39.4 250.75,-29.4 247.25,-39.4 254.25,-39.4"/>
</g>
<!-- 9&#45;&gt;3 -->
<g id="edge11" class="edge">
<title>9&#45;&gt;3</title>
<path fill="none" stroke="red" stroke-width="0.17" stroke-dasharray="1,5" d="M241.84,-74.01C233.01,-63.26 219.3,-46.59 208.78,-33.78"/>
<polygon fill="red" stroke="red" stroke-width="0.17" points="211.63,-31.74 202.58,-26.23 206.22,-36.18 211.63,-31.74"/>
</g>
<!-- 10&#45;&gt;1 -->
<g id="edge8" class="edge">
<title>10&#45;&gt;1</title>
<path fill="none" stroke="green" stroke-width="0.26" stroke-dasharray="1,5" d="M544.85,-71.81C553.96,-61.09 566.97,-45.8 577.14,-33.85"/>
<polygon fill="green" stroke="green" stroke-width="0.26" points="579.57,-36.39 583.38,-26.51 574.24,-31.85 579.57,-36.39"/>
</g>
<!-- 10&#45;&gt;4 -->
<g id="edge2" class="edge">
<title>10&#45;&gt;4</title>
<path fill="none" stroke="red" stroke-width="0.38" d="M532.3,-68.06C531.56,-59.53 530.65,-49.02 529.84,-39.64"/>
<polygon fill="red" stroke="red" stroke-width="0.38" points="533.35,-39.57 529,-29.91 526.37,-40.18 533.35,-39.57"/>
</g>
<!-- 12&#45;&gt;1 -->
<g id="edge7" class="edge">
<title>12&#45;&gt;1</title>
<path fill="none" stroke="green" stroke-width="0.13" stroke-dasharray="1,5" d="M592.75,-67.71C592.75,-59.08 592.75,-48.49 592.75,-39.1"/>
<polygon fill="green" stroke="green" stroke-width="0.13" points="596.25,-39.38 592.75,-29.38 589.25,-39.38 596.25,-39.38"/>
</g>
<!-- 280&#45;&gt;0 -->
<g id="edge33" class="edge">
<title>280&#45;&gt;0</title>
<path fill="none" stroke="red" stroke-width="0.13" d="M963.73,-106.31C964.66,-116.55 964.75,-129.16 964,-139.84"/>
<polygon fill="red" stroke="red" stroke-width="0.13" points="960.54,-139.22 962.99,-149.53 967.5,-139.94 960.54,-139.22"/>
</g>
</g>
</svg>
