<?xml version="1.0" encoding="UTF-8" standalone="no"?>
<!DOCTYPE svg PUBLIC "-//W3C//DTD SVG 1.1//EN"
 "http://www.w3.org/Graphics/SVG/1.1/DTD/svg11.dtd">
<!-- Generated by graphviz version 12.1.1 (20240910.0053)
 -->
<!-- Pages: 1 -->
<svg width="786pt" height="247pt"
 viewBox="0.00 0.00 785.75 246.93" xmlns="http://www.w3.org/2000/svg" xmlns:xlink="http://www.w3.org/1999/xlink">
<g id="graph0" class="graph" transform="scale(1 1) rotate(0) translate(4 242.93)">
<polygon fill="white" stroke="none" points="-4,4 -4,-242.93 781.75,-242.93 781.75,4 -4,4"/>
<!-- &#45;1 -->
<g id="node1" class="node">
<title>&#45;1</title>
<polygon fill="lightgray" stroke="black" points="23.5,-238.93 0,-238.93 0,-220.43 23.5,-220.43 23.5,-238.93"/>
<text text-anchor="middle" x="11.75" y="-226.38" font-family="Times,serif" font-size="9.00">&#45;1</text>
</g>
<!-- 154 -->
<g id="node29" class="node">
<title>154</title>
<ellipse fill="white" stroke="black" cx="263.75" cy="-85.85" rx="20.86" ry="20.86"/>
<text text-anchor="middle" x="263.75" y="-82.55" font-family="Times,serif" font-size="9.00">154</text>
</g>
<!-- &#45;1&#45;&gt;154 -->
<g id="edge3" class="edge">
<title>&#45;1&#45;&gt;154</title>
<path fill="none" stroke="red" stroke-width="0.71" d="M23.99,-223.88C46.87,-214.79 95.17,-195.02 109.75,-184.43 130.04,-169.69 127.64,-157.7 147.75,-142.71 174.45,-122.82 209.35,-107.16 233.87,-97.55"/>
<polygon fill="red" stroke="red" stroke-width="0.71" points="234.92,-100.89 243.02,-94.06 232.42,-94.35 234.92,-100.89"/>
</g>
<!-- 156 -->
<g id="node31" class="node">
<title>156</title>
<ellipse fill="white" stroke="black" cx="177.75" cy="-163.57" rx="20.86" ry="20.86"/>
<text text-anchor="middle" x="177.75" y="-160.27" font-family="Times,serif" font-size="9.00">156</text>
</g>
<!-- &#45;1&#45;&gt;156 -->
<g id="edge9" class="edge">
<title>&#45;1&#45;&gt;156</title>
<path fill="none" stroke="red" stroke-width="0.53" d="M23.7,-223.85C26.64,-222.69 29.8,-221.49 32.75,-220.43 81.15,-203.02 95.7,-205.23 142.75,-184.43 145.41,-183.25 148.14,-181.93 150.83,-180.55"/>
<polygon fill="red" stroke="red" stroke-width="0.53" points="152.49,-183.63 159.59,-175.77 149.13,-177.49 152.49,-183.63"/>
</g>
<!-- &#45;2 -->
<g id="node2" class="node">
<title>&#45;2</title>
<polygon fill="lightgray" stroke="black" points="467.5,-238.93 444,-238.93 444,-220.43 467.5,-220.43 467.5,-238.93"/>
<text text-anchor="middle" x="455.75" y="-226.38" font-family="Times,serif" font-size="9.00">&#45;2</text>
</g>
<!-- 341 -->
<g id="node27" class="node">
<title>341</title>
<ellipse fill="white" stroke="black" cx="373.75" cy="-163.57" rx="20.86" ry="20.86"/>
<text text-anchor="middle" x="373.75" y="-160.27" font-family="Times,serif" font-size="9.00">341</text>
</g>
<!-- &#45;2&#45;&gt;341 -->
<g id="edge45" class="edge">
<title>&#45;2&#45;&gt;341</title>
<path fill="none" stroke="red" stroke-width="0.26" d="M444.69,-220.03C432.81,-210.75 413.57,-195.7 398.11,-183.62"/>
<polygon fill="red" stroke="red" stroke-width="0.26" points="400.34,-180.91 390.3,-177.51 396.02,-186.43 400.34,-180.91"/>
</g>
<!-- 153 -->
<g id="node28" class="node">
<title>153</title>
<ellipse fill="white" stroke="black" cx="531.75" cy="-163.57" rx="20.86" ry="20.86"/>
<text text-anchor="middle" x="531.75" y="-160.27" font-family="Times,serif" font-size="9.00">153</text>
</g>
<!-- &#45;2&#45;&gt;153 -->
<g id="edge36" class="edge">
<title>&#45;2&#45;&gt;153</title>
<path fill="none" stroke="green" stroke-width="0.21" d="M466,-220.03C476.87,-210.86 494.4,-196.07 508.63,-184.07"/>
<polygon fill="green" stroke="green" stroke-width="0.21" points="510.5,-187.07 515.89,-177.95 505.99,-181.72 510.5,-187.07"/>
</g>
<!-- 155 -->
<g id="node30" class="node">
<title>155</title>
<ellipse fill="white" stroke="black" cx="433.75" cy="-163.57" rx="20.86" ry="20.86"/>
<text text-anchor="middle" x="433.75" y="-160.27" font-family="Times,serif" font-size="9.00">155</text>
</g>
<!-- &#45;2&#45;&gt;155 -->
<g id="edge1" class="edge">
<title>&#45;2&#45;&gt;155</title>
<path fill="none" stroke="red" stroke-width="0.44" d="M452.78,-220.03C450.46,-213.26 447.08,-203.41 443.81,-193.89"/>
<polygon fill="red" stroke="red" stroke-width="0.44" points="447.14,-192.8 440.58,-184.48 440.52,-195.07 447.14,-192.8"/>
</g>
<!-- &#45;3 -->
<g id="node3" class="node">
<title>&#45;3</title>
<polygon fill="lightgray" stroke="black" points="54.5,-172.82 31,-172.82 31,-154.32 54.5,-154.32 54.5,-172.82"/>
<text text-anchor="middle" x="42.75" y="-160.27" font-family="Times,serif" font-size="9.00">&#45;3</text>
</g>
<!-- &#45;3&#45;&gt;154 -->
<g id="edge32" class="edge">
<title>&#45;3&#45;&gt;154</title>
<path fill="none" stroke="red" stroke-width="0.26" stroke-dasharray="1,5" d="M49.78,-154.19C53.54,-150.18 58.49,-145.64 63.75,-142.71 118.78,-112.13 140.27,-124.18 200.75,-106.71 211.77,-103.53 223.8,-99.8 234.36,-96.44"/>
<polygon fill="red" stroke="red" stroke-width="0.26" points="235.13,-99.87 243.58,-93.48 232.99,-93.2 235.13,-99.87"/>
</g>
<!-- &#45;4 -->
<g id="node4" class="node">
<title>&#45;4</title>
<polygon fill="lightgray" stroke="black" points="333.5,-238.93 310,-238.93 310,-220.43 333.5,-220.43 333.5,-238.93"/>
<text text-anchor="middle" x="321.75" y="-226.38" font-family="Times,serif" font-size="9.00">&#45;4</text>
</g>
<!-- 291 -->
<g id="node26" class="node">
<title>291</title>
<ellipse fill="white" stroke="black" cx="275.75" cy="-163.57" rx="20.86" ry="20.86"/>
<text text-anchor="middle" x="275.75" y="-160.27" font-family="Times,serif" font-size="9.00">291</text>
</g>
<!-- &#45;4&#45;&gt;291 -->
<g id="edge42" class="edge">
<title>&#45;4&#45;&gt;291</title>
<path fill="none" stroke="red" stroke-width="0.4" d="M315.55,-220.03C309.93,-212.21 301.39,-200.3 293.65,-189.52"/>
<polygon fill="red" stroke="red" stroke-width="0.4" points="296.72,-187.8 288.05,-181.71 291.04,-191.88 296.72,-187.8"/>
</g>
<!-- &#45;4&#45;&gt;154 -->
<g id="edge28" class="edge">
<title>&#45;4&#45;&gt;154</title>
<path fill="none" stroke="green" stroke-width="0.2" d="M321.44,-220C320.58,-204.04 317.42,-169.25 305.75,-142.71 300.54,-130.86 292.37,-119.18 284.62,-109.59"/>
<polygon fill="green" stroke="green" stroke-width="0.2" points="287.31,-107.35 278.19,-101.97 281.96,-111.87 287.31,-107.35"/>
</g>
<!-- &#45;4&#45;&gt;155 -->
<g id="edge39" class="edge">
<title>&#45;4&#45;&gt;155</title>
<path fill="none" stroke="green" stroke-width="0.34" d="M333.89,-222.56C350.06,-214.32 379.47,-198.98 403.75,-184.43 405.22,-183.55 406.73,-182.62 408.24,-181.68"/>
<polygon fill="green" stroke="green" stroke-width="0.34" points="409.83,-184.82 416.35,-176.46 406.04,-178.93 409.83,-184.82"/>
</g>
<!-- &#45;5 -->
<g id="node5" class="node">
<title>&#45;5</title>
<polygon fill="lightgray" stroke="black" points="111.5,-238.93 88,-238.93 88,-220.43 111.5,-220.43 111.5,-238.93"/>
<text text-anchor="middle" x="99.75" y="-226.38" font-family="Times,serif" font-size="9.00">&#45;5</text>
</g>
<!-- &#45;5&#45;&gt;156 -->
<g id="edge24" class="edge">
<title>&#45;5&#45;&gt;156</title>
<path fill="none" stroke="red" stroke-width="0.46" d="M110.27,-220.03C121.39,-210.89 139.31,-196.16 153.89,-184.18"/>
<polygon fill="red" stroke="red" stroke-width="0.46" points="155.97,-187 161.47,-177.95 151.53,-181.59 155.97,-187"/>
</g>
<!-- &#45;6 -->
<g id="node6" class="node">
<title>&#45;6</title>
<polygon fill="lightgray" stroke="black" points="291.5,-238.93 268,-238.93 268,-220.43 291.5,-220.43 291.5,-238.93"/>
<text text-anchor="middle" x="279.75" y="-226.38" font-family="Times,serif" font-size="9.00">&#45;6</text>
</g>
<!-- &#45;6&#45;&gt;291 -->
<g id="edge41" class="edge">
<title>&#45;6&#45;&gt;291</title>
<path fill="none" stroke="green" stroke-width="0.37" d="M279.21,-220.03C278.81,-213.55 278.23,-204.25 277.66,-195.12"/>
<polygon fill="green" stroke="green" stroke-width="0.37" points="281.15,-194.97 277.04,-185.21 274.17,-195.41 281.15,-194.97"/>
</g>
<!-- &#45;6&#45;&gt;341 -->
<g id="edge43" class="edge">
<title>&#45;6&#45;&gt;341</title>
<path fill="none" stroke="green" stroke-width="0.37" d="M291.66,-220.56C305.84,-210.89 329.92,-194.47 348.34,-181.9"/>
<polygon fill="green" stroke="green" stroke-width="0.37" points="350.11,-184.93 356.4,-176.4 346.17,-179.14 350.11,-184.93"/>
</g>
<!-- &#45;6&#45;&gt;154 -->
<g id="edge8" class="edge">
<title>&#45;6&#45;&gt;154</title>
<path fill="none" stroke="green" stroke-width="0.25" d="M270.14,-219.93C261.88,-211.7 250.55,-198.56 245.75,-184.43 238.01,-161.65 244.07,-134.69 251.18,-114.88"/>
<polygon fill="green" stroke="green" stroke-width="0.25" points="254.43,-116.17 254.79,-105.58 247.91,-113.64 254.43,-116.17"/>
</g>
<!-- &#45;6&#45;&gt;155 -->
<g id="edge18" class="edge">
<title>&#45;6&#45;&gt;155</title>
<path fill="none" stroke="red" stroke-width="0.25" d="M291.71,-223.89C294.66,-222.73 297.81,-221.52 300.75,-220.43 346.21,-203.56 360.31,-205.98 403.75,-184.43 405.29,-183.67 406.84,-182.84 408.39,-181.97"/>
<polygon fill="red" stroke="red" stroke-width="0.25" points="410.03,-185.07 416.74,-176.87 406.38,-179.1 410.03,-185.07"/>
</g>
<!-- &#45;6&#45;&gt;156 -->
<g id="edge12" class="edge">
<title>&#45;6&#45;&gt;156</title>
<path fill="none" stroke="red" stroke-width="0.25" stroke-dasharray="1,5" d="M267.65,-221.07C252.02,-211.25 224.39,-193.89 203.87,-180.99"/>
<polygon fill="red" stroke="red" stroke-width="0.25" points="205.95,-178.16 195.62,-175.8 202.22,-184.09 205.95,-178.16"/>
</g>
<!-- &#45;7 -->
<g id="node7" class="node">
<title>&#45;7</title>
<polygon fill="lightgray" stroke="black" points="647.5,-238.93 624,-238.93 624,-220.43 647.5,-220.43 647.5,-238.93"/>
<text text-anchor="middle" x="635.75" y="-226.38" font-family="Times,serif" font-size="9.00">&#45;7</text>
</g>
<!-- &#45;8 -->
<g id="node8" class="node">
<title>&#45;8</title>
<polygon fill="lightgray" stroke="black" points="689.5,-238.93 666,-238.93 666,-220.43 689.5,-220.43 689.5,-238.93"/>
<text text-anchor="middle" x="677.75" y="-226.38" font-family="Times,serif" font-size="9.00">&#45;8</text>
</g>
<!-- &#45;9 -->
<g id="node9" class="node">
<title>&#45;9</title>
<polygon fill="lightgray" stroke="black" points="731.5,-238.93 708,-238.93 708,-220.43 731.5,-220.43 731.5,-238.93"/>
<text text-anchor="middle" x="719.75" y="-226.38" font-family="Times,serif" font-size="9.00">&#45;9</text>
</g>
<!-- &#45;10 -->
<g id="node10" class="node">
<title>&#45;10</title>
<polygon fill="lightgray" stroke="black" points="249.75,-238.93 221.75,-238.93 221.75,-220.43 249.75,-220.43 249.75,-238.93"/>
<text text-anchor="middle" x="235.75" y="-226.38" font-family="Times,serif" font-size="9.00">&#45;10</text>
</g>
<!-- &#45;10&#45;&gt;155 -->
<g id="edge14" class="edge">
<title>&#45;10&#45;&gt;155</title>
<path fill="none" stroke="green" stroke-width="0.26" d="M249.78,-223.39C252.73,-222.35 255.83,-221.31 258.75,-220.43 322.3,-201.2 342.96,-211.14 403.75,-184.43 405.32,-183.74 406.9,-182.97 408.47,-182.14"/>
<polygon fill="green" stroke="green" stroke-width="0.26" points="410.04,-185.28 416.86,-177.17 406.47,-179.26 410.04,-185.28"/>
</g>
<!-- &#45;10&#45;&gt;156 -->
<g id="edge10" class="edge">
<title>&#45;10&#45;&gt;156</title>
<path fill="none" stroke="green" stroke-width="0.16" stroke-dasharray="1,5" d="M227.93,-220.03C220.34,-211.65 208.5,-198.56 198.23,-187.2"/>
<polygon fill="green" stroke="green" stroke-width="0.16" points="200.9,-184.95 191.6,-179.88 195.71,-189.64 200.9,-184.95"/>
</g>
<!-- &#45;11 -->
<g id="node11" class="node">
<title>&#45;11</title>
<polygon fill="lightgray" stroke="black" points="157.75,-238.93 129.75,-238.93 129.75,-220.43 157.75,-220.43 157.75,-238.93"/>
<text text-anchor="middle" x="143.75" y="-226.38" font-family="Times,serif" font-size="9.00">&#45;11</text>
</g>
<!-- &#45;11&#45;&gt;156 -->
<g id="edge6" class="edge">
<title>&#45;11&#45;&gt;156</title>
<path fill="none" stroke="red" stroke-width="0.11" d="M148.34,-220.03C152.26,-212.63 158.13,-201.57 163.59,-191.27"/>
<polygon fill="red" stroke="red" stroke-width="0.11" points="166.56,-193.14 168.15,-182.67 160.38,-189.86 166.56,-193.14"/>
</g>
<!-- &#45;12 -->
<g id="node12" class="node">
<title>&#45;12</title>
<polygon fill="lightgray" stroke="black" points="605.75,-238.93 577.75,-238.93 577.75,-220.43 605.75,-220.43 605.75,-238.93"/>
<text text-anchor="middle" x="591.75" y="-226.38" font-family="Times,serif" font-size="9.00">&#45;12</text>
</g>
<!-- &#45;12&#45;&gt;153 -->
<g id="edge17" class="edge">
<title>&#45;12&#45;&gt;153</title>
<path fill="none" stroke="red" stroke-width="0.11" d="M583.66,-220.03C575.68,-211.51 563.16,-198.13 552.42,-186.65"/>
<polygon fill="red" stroke="red" stroke-width="0.11" points="555.18,-184.48 545.79,-179.57 550.07,-189.27 555.18,-184.48"/>
</g>
<!-- &#45;12&#45;&gt;154 -->
<g id="edge33" class="edge">
<title>&#45;12&#45;&gt;154</title>
<path fill="none" stroke="green" stroke-width="0.33" stroke-dasharray="1,5" d="M591.48,-220.01C590.45,-202.46 585.45,-162.66 561.75,-142.71 486.96,-79.75 440.52,-126.36 344.75,-106.71 327.81,-103.23 309.05,-98.68 293.85,-94.81"/>
<polygon fill="green" stroke="green" stroke-width="0.33" points="295,-91.49 284.44,-92.38 293.25,-98.27 295,-91.49"/>
</g>
<!-- &#45;12&#45;&gt;155 -->
<g id="edge27" class="edge">
<title>&#45;12&#45;&gt;155</title>
<path fill="none" stroke="green" stroke-width="0.31" d="M577.45,-222.88C551.52,-212.36 496.31,-189.95 462.37,-176.18"/>
<polygon fill="green" stroke="green" stroke-width="0.31" points="464,-173.07 453.42,-172.55 461.37,-179.55 464,-173.07"/>
</g>
<!-- &#45;13 -->
<g id="node13" class="node">
<title>&#45;13</title>
<polygon fill="lightgray" stroke="black" points="69.75,-238.93 41.75,-238.93 41.75,-220.43 69.75,-220.43 69.75,-238.93"/>
<text text-anchor="middle" x="55.75" y="-226.38" font-family="Times,serif" font-size="9.00">&#45;13</text>
</g>
<!-- &#45;13&#45;&gt;156 -->
<g id="edge34" class="edge">
<title>&#45;13&#45;&gt;156</title>
<path fill="none" stroke="green" stroke-width="0.4" stroke-dasharray="1,5" d="M70.02,-221.67C87.34,-213.11 117.38,-198.07 142.75,-184.43 145.4,-183 148.16,-181.49 150.9,-179.97"/>
<polygon fill="green" stroke="green" stroke-width="0.4" points="152.51,-183.08 159.51,-175.13 149.08,-176.98 152.51,-183.08"/>
</g>
<!-- &#45;14 -->
<g id="node14" class="node">
<title>&#45;14</title>
<polygon fill="lightgray" stroke="black" points="777.75,-238.93 749.75,-238.93 749.75,-220.43 777.75,-220.43 777.75,-238.93"/>
<text text-anchor="middle" x="763.75" y="-226.38" font-family="Times,serif" font-size="9.00">&#45;14</text>
</g>
<!-- &#45;15 -->
<g id="node15" class="node">
<title>&#45;15</title>
<polygon fill="lightgray" stroke="black" points="100.75,-172.82 72.75,-172.82 72.75,-154.32 100.75,-154.32 100.75,-172.82"/>
<text text-anchor="middle" x="86.75" y="-160.27" font-family="Times,serif" font-size="9.00">&#45;15</text>
</g>
<!-- &#45;15&#45;&gt;154 -->
<g id="edge4" class="edge">
<title>&#45;15&#45;&gt;154</title>
<path fill="none" stroke="green" stroke-width="0.19" stroke-dasharray="1,5" d="M97.5,-153.96C102.54,-150.18 108.75,-145.89 114.75,-142.71 136.09,-131.39 197.8,-109.47 234.77,-96.71"/>
<polygon fill="green" stroke="green" stroke-width="0.19" points="235.45,-100.18 243.77,-93.62 233.18,-93.56 235.45,-100.18"/>
</g>
<!-- &#45;16 -->
<g id="node16" class="node">
<title>&#45;16</title>
<polygon fill="lightgray" stroke="black" points="513.75,-238.93 485.75,-238.93 485.75,-220.43 513.75,-220.43 513.75,-238.93"/>
<text text-anchor="middle" x="499.75" y="-226.38" font-family="Times,serif" font-size="9.00">&#45;16</text>
</g>
<!-- &#45;16&#45;&gt;153 -->
<g id="edge15" class="edge">
<title>&#45;16&#45;&gt;153</title>
<path fill="none" stroke="green" stroke-width="0.26" stroke-dasharray="1,5" d="M504.07,-220.03C507.7,-212.76 513.09,-201.95 518.16,-191.8"/>
<polygon fill="green" stroke="green" stroke-width="0.26" points="521.15,-193.64 522.49,-183.13 514.89,-190.51 521.15,-193.64"/>
</g>
<!-- &#45;16&#45;&gt;154 -->
<g id="edge19" class="edge">
<title>&#45;16&#45;&gt;154</title>
<path fill="none" stroke="green" stroke-width="0.51" stroke-dasharray="1,5" d="M498.66,-220.19C496,-202.94 487.52,-163.7 463.75,-142.71 457.29,-137 348.78,-108.63 294.36,-94.65"/>
<polygon fill="green" stroke="green" stroke-width="0.51" points="295.25,-91.27 284.69,-92.18 293.51,-98.05 295.25,-91.27"/>
</g>
<!-- &#45;16&#45;&gt;155 -->
<g id="edge26" class="edge">
<title>&#45;16&#45;&gt;155</title>
<path fill="none" stroke="red" stroke-width="0.95" d="M490.85,-220.03C482.13,-211.56 468.47,-198.3 456.7,-186.86"/>
<polygon fill="red" stroke="red" stroke-width="0.95" points="459.2,-184.41 449.59,-179.95 454.32,-189.43 459.2,-184.41"/>
</g>
<!-- &#45;17 -->
<g id="node17" class="node">
<title>&#45;17</title>
<polygon fill="lightgray" stroke="black" points="425.75,-238.93 397.75,-238.93 397.75,-220.43 425.75,-220.43 425.75,-238.93"/>
<text text-anchor="middle" x="411.75" y="-226.38" font-family="Times,serif" font-size="9.00">&#45;17</text>
</g>
<!-- &#45;17&#45;&gt;155 -->
<g id="edge30" class="edge">
<title>&#45;17&#45;&gt;155</title>
<path fill="none" stroke="green" stroke-width="0.4" stroke-dasharray="1,5" d="M414.72,-220.03C417.07,-213.18 420.49,-203.2 423.79,-193.59"/>
<polygon fill="green" stroke="green" stroke-width="0.4" points="427.01,-195.01 426.94,-184.41 420.38,-192.74 427.01,-195.01"/>
</g>
<!-- &#45;18 -->
<g id="node18" class="node">
<title>&#45;18</title>
<polygon fill="lightgray" stroke="black" points="203.75,-238.93 175.75,-238.93 175.75,-220.43 203.75,-220.43 203.75,-238.93"/>
<text text-anchor="middle" x="189.75" y="-226.38" font-family="Times,serif" font-size="9.00">&#45;18</text>
</g>
<!-- &#45;18&#45;&gt;155 -->
<g id="edge35" class="edge">
<title>&#45;18&#45;&gt;155</title>
<path fill="none" stroke="green" stroke-width="0.25" d="M204.24,-223.09C207.04,-222.12 209.97,-221.19 212.75,-220.43 296.11,-197.78 323.71,-216.91 403.75,-184.43 405.34,-183.78 406.94,-183.05 408.52,-182.25"/>
<polygon fill="green" stroke="green" stroke-width="0.25" points="410.06,-185.4 416.94,-177.35 406.54,-179.35 410.06,-185.4"/>
</g>
<!-- &#45;18&#45;&gt;156 -->
<g id="edge29" class="edge">
<title>&#45;18&#45;&gt;156</title>
<path fill="none" stroke="red" stroke-width="0.31" d="M188.13,-220.03C186.9,-213.43 185.11,-203.91 183.37,-194.61"/>
<polygon fill="red" stroke="red" stroke-width="0.31" points="186.83,-194.03 181.55,-184.85 179.94,-195.32 186.83,-194.03"/>
</g>
<!-- &#45;19 -->
<g id="node19" class="node">
<title>&#45;19</title>
<polygon fill="lightgray" stroke="black" points="559.75,-238.93 531.75,-238.93 531.75,-220.43 559.75,-220.43 559.75,-238.93"/>
<text text-anchor="middle" x="545.75" y="-226.38" font-family="Times,serif" font-size="9.00">&#45;19</text>
</g>
<!-- &#45;19&#45;&gt;153 -->
<g id="edge16" class="edge">
<title>&#45;19&#45;&gt;153</title>
<path fill="none" stroke="red" stroke-width="0.41" d="M543.86,-220.03C542.42,-213.43 540.34,-203.91 538.31,-194.61"/>
<polygon fill="red" stroke="red" stroke-width="0.41" points="541.76,-194.01 536.21,-184.99 534.92,-195.5 541.76,-194.01"/>
</g>
<!-- &#45;19&#45;&gt;155 -->
<g id="edge11" class="edge">
<title>&#45;19&#45;&gt;155</title>
<path fill="none" stroke="red" stroke-width="0.34" stroke-dasharray="1,5" d="M531.57,-220.56C513.74,-210.36 482.8,-192.65 460.48,-179.87"/>
<polygon fill="red" stroke="red" stroke-width="0.34" points="462.37,-176.92 451.95,-174.99 458.89,-182.99 462.37,-176.92"/>
</g>
<!-- &#45;20 -->
<g id="node20" class="node">
<title>&#45;20</title>
<polygon fill="lightgray" stroke="black" points="379.75,-238.93 351.75,-238.93 351.75,-220.43 379.75,-220.43 379.75,-238.93"/>
<text text-anchor="middle" x="365.75" y="-226.38" font-family="Times,serif" font-size="9.00">&#45;20</text>
</g>
<!-- &#45;20&#45;&gt;155 -->
<g id="edge31" class="edge">
<title>&#45;20&#45;&gt;155</title>
<path fill="none" stroke="red" stroke-width="0.41" stroke-dasharray="1,5" d="M374.92,-220.03C384.14,-211.34 398.71,-197.6 411.05,-185.97"/>
<polygon fill="red" stroke="red" stroke-width="0.41" points="413.43,-188.54 418.3,-179.13 408.63,-183.45 413.43,-188.54"/>
</g>
<!-- 0 -->
<g id="node21" class="node">
<title>0</title>
<ellipse fill="lightblue" stroke="black" cx="449.75" cy="-85.85" rx="14.5" ry="14.5"/>
<text text-anchor="middle" x="449.75" y="-82.55" font-family="Times,serif" font-size="9.00">0</text>
</g>
<!-- 0&#45;&gt;0 -->
<g id="edge2" class="edge">
<title>0&#45;&gt;0</title>
<path fill="none" stroke="green" stroke-width="0.24" d="M460.07,-96.29C470.56,-102.43 482.25,-98.95 482.25,-85.85 482.25,-76.84 476.72,-72.39 469.86,-72.47"/>
<polygon fill="green" stroke="green" stroke-width="0.24" points="468.99,-69.08 460.41,-75.31 471,-75.79 468.99,-69.08"/>
</g>
<!-- 1 -->
<g id="node22" class="node">
<title>1</title>
<ellipse fill="lightblue" stroke="black" cx="531.75" cy="-85.85" rx="14.5" ry="14.5"/>
<text text-anchor="middle" x="531.75" y="-82.55" font-family="Times,serif" font-size="9.00">1</text>
</g>
<!-- 1&#45;&gt;1 -->
<g id="edge20" class="edge">
<title>1&#45;&gt;1</title>
<path fill="none" stroke="red" stroke-width="0.23" stroke-dasharray="1,5" d="M542.07,-96.29C552.56,-102.43 564.25,-98.95 564.25,-85.85 564.25,-76.84 558.72,-72.39 551.86,-72.47"/>
<polygon fill="red" stroke="red" stroke-width="0.23" points="550.97,-69.09 542.4,-75.31 552.99,-75.79 550.97,-69.09"/>
</g>
<!-- 2 -->
<g id="node23" class="node">
<title>2</title>
<ellipse fill="lightblue" stroke="black" cx="263.75" cy="-14.5" rx="14.5" ry="14.5"/>
<text text-anchor="middle" x="263.75" y="-11.2" font-family="Times,serif" font-size="9.00">2</text>
</g>
<!-- 2&#45;&gt;2 -->
<g id="edge37" class="edge">
<title>2&#45;&gt;2</title>
<path fill="none" stroke="red" stroke-width="0.18" stroke-dasharray="1,5" d="M274.07,-24.94C284.56,-31.08 296.25,-27.6 296.25,-14.5 296.25,-5.49 290.72,-1.03 283.86,-1.12"/>
<polygon fill="red" stroke="red" stroke-width="0.18" points="282.9,2.25 274.32,-3.98 284.91,-4.46 282.9,2.25"/>
</g>
<!-- 3 -->
<g id="node24" class="node">
<title>3</title>
<ellipse fill="lightblue" stroke="black" cx="177.75" cy="-85.85" rx="14.5" ry="14.5"/>
<text text-anchor="middle" x="177.75" y="-82.55" font-family="Times,serif" font-size="9.00">3</text>
</g>
<!-- 4 -->
<g id="node25" class="node">
<title>4</title>
<ellipse fill="lightblue" stroke="black" cx="367.75" cy="-85.85" rx="14.5" ry="14.5"/>
<text text-anchor="middle" x="367.75" y="-82.55" font-family="Times,serif" font-size="9.00">4</text>
</g>
<!-- 4&#45;&gt;4 -->
<g id="edge38" class="edge">
<title>4&#45;&gt;4</title>
<path fill="none" stroke="red" stroke-width="0.23" stroke-dasharray="1,5" d="M378.07,-96.29C388.56,-102.43 400.25,-98.95 400.25,-85.85 400.25,-76.84 394.72,-72.39 387.86,-72.47"/>
<polygon fill="red" stroke="red" stroke-width="0.23" points="386.97,-69.09 378.4,-75.31 388.98,-75.79 386.97,-69.09"/>
</g>
<!-- 341&#45;&gt;154 -->
<g id="edge44" class="edge">
<title>341&#45;&gt;154</title>
<path fill="none" stroke="green" stroke-width="0.3" d="M357.04,-151.07C338.95,-138.62 309.89,-118.61 289.01,-104.24"/>
<polygon fill="green" stroke="green" stroke-width="0.3" points="291.21,-101.51 280.99,-98.72 287.25,-107.27 291.21,-101.51"/>
</g>
<!-- 153&#45;&gt;0 -->
<g id="edge21" class="edge">
<title>153&#45;&gt;0</title>
<path fill="none" stroke="green" stroke-width="0.33" d="M516.71,-148.68C502.82,-135.86 482.18,-116.8 467.49,-103.24"/>
<polygon fill="green" stroke="green" stroke-width="0.33" points="470.11,-100.89 460.39,-96.68 465.36,-106.03 470.11,-100.89"/>
</g>
<!-- 153&#45;&gt;1 -->
<g id="edge25" class="edge">
<title>153&#45;&gt;1</title>
<path fill="none" stroke="red" stroke-width="0.5" d="M531.75,-142.28C531.75,-132.73 531.75,-121.27 531.75,-111.25"/>
<polygon fill="red" stroke="red" stroke-width="0.5" points="535.25,-111.49 531.75,-101.49 528.25,-111.49 535.25,-111.49"/>
</g>
<!-- 153&#45;&gt;4 -->
<g id="edge22" class="edge">
<title>153&#45;&gt;4</title>
<path fill="none" stroke="green" stroke-width="0.54" stroke-dasharray="1,5" d="M514.14,-152.09C508.64,-148.95 502.5,-145.58 496.75,-142.71 460.47,-124.63 416.96,-106.49 390.87,-95.99"/>
<polygon fill="green" stroke="green" stroke-width="0.54" points="392.5,-92.87 381.91,-92.4 389.9,-99.37 392.5,-92.87"/>
</g>
<!-- 154&#45;&gt;2 -->
<g id="edge40" class="edge">
<title>154&#45;&gt;2</title>
<path fill="none" stroke="red" stroke-width="0.24" stroke-dasharray="1,5" d="M263.75,-64.79C263.75,-56.89 263.75,-47.75 263.75,-39.5"/>
<polygon fill="red" stroke="red" stroke-width="0.24" points="267.25,-39.72 263.75,-29.72 260.25,-39.72 267.25,-39.72"/>
</g>
<!-- 154&#45;&gt;154 -->
<g id="edge5" class="edge">
<title>154&#45;&gt;154</title>
<path fill="none" stroke="green" stroke-width="0.17" stroke-dasharray="1,5" d="M280.93,-98.17C291.98,-101.39 302.61,-97.28 302.61,-85.85 302.61,-77.99 297.58,-73.6 290.85,-72.66"/>
<polygon fill="green" stroke="green" stroke-width="0.17" points="290.84,-69.15 281.19,-73.51 291.45,-76.12 290.84,-69.15"/>
</g>
<!-- 155&#45;&gt;0 -->
<g id="edge13" class="edge">
<title>155&#45;&gt;0</title>
<path fill="none" stroke="green" stroke-width="0.17" d="M437.95,-142.68C440.04,-132.79 442.58,-120.78 444.77,-110.43"/>
<polygon fill="green" stroke="green" stroke-width="0.17" points="448.19,-111.17 446.83,-100.66 441.34,-109.72 448.19,-111.17"/>
</g>
<!-- 156&#45;&gt;3 -->
<g id="edge7" class="edge">
<title>156&#45;&gt;3</title>
<path fill="none" stroke="red" stroke-width="0.24" d="M177.75,-142.28C177.75,-132.63 177.75,-121.02 177.75,-110.93"/>
<polygon fill="red" stroke="red" stroke-width="0.24" points="181.25,-111.1 177.75,-101.1 174.25,-111.1 181.25,-111.1"/>
</g>
<!-- 156&#45;&gt;4 -->
<g id="edge23" class="edge">
<title>156&#45;&gt;4</title>
<path fill="none" stroke="green" stroke-width="0.21" stroke-dasharray="1,5" d="M197.01,-154.89C232.35,-140.81 307.35,-110.92 345.08,-95.89"/>
<polygon fill="green" stroke="green" stroke-width="0.21" points="345.95,-99.31 353.95,-92.35 343.36,-92.8 345.95,-99.31"/>
</g>
</g>
</svg>
