<?xml version="1.0" encoding="UTF-8" standalone="no"?>
<!DOCTYPE svg PUBLIC "-//W3C//DTD SVG 1.1//EN"
 "http://www.w3.org/Graphics/SVG/1.1/DTD/svg11.dtd">
<!-- Generated by graphviz version 12.1.1 (20240910.0053)
 -->
<!-- Pages: 1 -->
<svg width="1038pt" height="335pt"
 viewBox="0.00 0.00 1037.53 335.14" xmlns="http://www.w3.org/2000/svg" xmlns:xlink="http://www.w3.org/1999/xlink">
<g id="graph0" class="graph" transform="scale(1 1) rotate(0) translate(4 331.14)">
<polygon fill="white" stroke="none" points="-4,4 -4,-331.14 1033.53,-331.14 1033.53,4 -4,4"/>
<!-- &#45;1 -->
<g id="node1" class="node">
<title>&#45;1</title>
<polygon fill="lightgray" stroke="black" points="248.42,-321.89 224.92,-321.89 224.92,-303.39 248.42,-303.39 248.42,-321.89"/>
<text text-anchor="middle" x="236.67" y="-309.34" font-family="Times,serif" font-size="9.00">&#45;1</text>
</g>
<!-- &#45;2 -->
<g id="node2" class="node">
<title>&#45;2</title>
<polygon fill="lightgray" stroke="black" points="675.42,-172.82 651.92,-172.82 651.92,-154.32 675.42,-154.32 675.42,-172.82"/>
<text text-anchor="middle" x="663.67" y="-160.27" font-family="Times,serif" font-size="9.00">&#45;2</text>
</g>
<!-- 185 -->
<g id="node29" class="node">
<title>185</title>
<ellipse fill="white" stroke="black" cx="439.67" cy="-85.85" rx="20.86" ry="20.86"/>
<text text-anchor="middle" x="439.67" y="-82.55" font-family="Times,serif" font-size="9.00">185</text>
</g>
<!-- &#45;2&#45;&gt;185 -->
<g id="edge30" class="edge">
<title>&#45;2&#45;&gt;185</title>
<path fill="none" stroke="red" stroke-width="0.16" d="M656.63,-154.21C652.86,-150.21 647.92,-145.67 642.67,-142.71 613.01,-126 519.06,-104.04 470.06,-93.31"/>
<polygon fill="red" stroke="red" stroke-width="0.16" points="471.08,-89.95 460.56,-91.25 469.59,-96.79 471.08,-89.95"/>
</g>
<!-- 188 -->
<g id="node32" class="node">
<title>188</title>
<ellipse fill="white" stroke="black" cx="737.67" cy="-85.85" rx="20.86" ry="20.86"/>
<text text-anchor="middle" x="737.67" y="-82.55" font-family="Times,serif" font-size="9.00">188</text>
</g>
<!-- &#45;2&#45;&gt;188 -->
<g id="edge19" class="edge">
<title>&#45;2&#45;&gt;188</title>
<path fill="none" stroke="green" stroke-width="0.34" stroke-dasharray="1,5" d="M672.16,-153.88C682.83,-142.97 701.52,-123.84 716.22,-108.81"/>
<polygon fill="green" stroke="green" stroke-width="0.34" points="718.63,-111.35 723.11,-101.75 713.62,-106.45 718.63,-111.35"/>
</g>
<!-- &#45;3 -->
<g id="node3" class="node">
<title>&#45;3</title>
<polygon fill="lightgray" stroke="black" points="407.42,-172.82 383.92,-172.82 383.92,-154.32 407.42,-154.32 407.42,-172.82"/>
<text text-anchor="middle" x="395.67" y="-160.27" font-family="Times,serif" font-size="9.00">&#45;3</text>
</g>
<!-- &#45;3&#45;&gt;185 -->
<g id="edge31" class="edge">
<title>&#45;3&#45;&gt;185</title>
<path fill="none" stroke="red" stroke-width="0.11" d="M400.72,-153.88C406.51,-143.91 416.29,-127.09 424.6,-112.79"/>
<polygon fill="red" stroke="red" stroke-width="0.11" points="427.46,-114.84 429.45,-104.43 421.4,-111.32 427.46,-114.84"/>
</g>
<!-- 186 -->
<g id="node30" class="node">
<title>186</title>
<ellipse fill="white" stroke="black" cx="305.67" cy="-85.85" rx="20.86" ry="20.86"/>
<text text-anchor="middle" x="305.67" y="-82.55" font-family="Times,serif" font-size="9.00">186</text>
</g>
<!-- &#45;3&#45;&gt;186 -->
<g id="edge13" class="edge">
<title>&#45;3&#45;&gt;186</title>
<path fill="none" stroke="red" stroke-width="0.12" d="M386.82,-153.91C383.12,-150.37 378.75,-146.28 374.67,-142.71 360.07,-129.93 343.15,-116.22 329.72,-105.57"/>
<polygon fill="red" stroke="red" stroke-width="0.12" points="332.01,-102.93 321.99,-99.49 327.68,-108.42 332.01,-102.93"/>
</g>
<!-- 187 -->
<g id="node31" class="node">
<title>187</title>
<ellipse fill="white" stroke="black" cx="575.67" cy="-85.85" rx="20.86" ry="20.86"/>
<text text-anchor="middle" x="575.67" y="-82.55" font-family="Times,serif" font-size="9.00">187</text>
</g>
<!-- &#45;3&#45;&gt;187 -->
<g id="edge1" class="edge">
<title>&#45;3&#45;&gt;187</title>
<path fill="none" stroke="green" stroke-width="0.24" stroke-dasharray="1,5" d="M403.18,-153.97C406.92,-150.1 411.7,-145.74 416.67,-142.71 457.81,-117.62 511.81,-101.7 545.11,-93.53"/>
<polygon fill="green" stroke="green" stroke-width="0.24" points="545.88,-96.94 554.8,-91.23 544.27,-90.13 545.88,-96.94"/>
</g>
<!-- &#45;4 -->
<g id="node4" class="node">
<title>&#45;4</title>
<polygon fill="lightgray" stroke="black" points="73.42,-250.54 49.92,-250.54 49.92,-232.04 73.42,-232.04 73.42,-250.54"/>
<text text-anchor="middle" x="61.67" y="-237.99" font-family="Times,serif" font-size="9.00">&#45;4</text>
</g>
<!-- 0 -->
<g id="node21" class="node">
<title>0</title>
<ellipse fill="lightblue" stroke="black" cx="305.67" cy="-14.5" rx="14.5" ry="14.5"/>
<text text-anchor="middle" x="305.67" y="-11.2" font-family="Times,serif" font-size="9.00">0</text>
</g>
<!-- &#45;4&#45;&gt;0 -->
<g id="edge47" class="edge">
<title>&#45;4&#45;&gt;0</title>
<path fill="none" stroke="green" stroke-width="0.47" d="M49.71,-232.53C36.32,-223.03 15.34,-205.59 6.67,-184.43 -0.36,-167.27 -3.56,-158.18 6.67,-142.71 69.81,-47.23 220.72,-23.18 280.58,-17.32"/>
<polygon fill="green" stroke="green" stroke-width="0.47" points="280.61,-20.83 290.26,-16.46 279.99,-13.86 280.61,-20.83"/>
</g>
<!-- &#45;4&#45;&gt;185 -->
<g id="edge6" class="edge">
<title>&#45;4&#45;&gt;185</title>
<path fill="none" stroke="red" stroke-width="0.17" d="M73.53,-232.69C105.77,-212.13 194.73,-156.04 226.67,-142.71 288.96,-116.72 366.63,-100.01 408.85,-92.14"/>
<polygon fill="red" stroke="red" stroke-width="0.17" points="409.32,-95.62 418.53,-90.38 408.07,-88.73 409.32,-95.62"/>
</g>
<!-- &#45;4&#45;&gt;186 -->
<g id="edge36" class="edge">
<title>&#45;4&#45;&gt;186</title>
<path fill="none" stroke="green" stroke-width="0.15" d="M62.92,-231.8C66.18,-212.87 76.67,-166.94 104.67,-142.71 153.27,-100.65 231.08,-90.06 274.25,-87.52"/>
<polygon fill="green" stroke="green" stroke-width="0.15" points="274.39,-91.02 284.21,-87.05 274.06,-84.03 274.39,-91.02"/>
</g>
<!-- 446 -->
<g id="node33" class="node">
<title>446</title>
<ellipse fill="white" stroke="black" cx="36.67" cy="-163.57" rx="20.86" ry="20.86"/>
<text text-anchor="middle" x="36.67" y="-160.27" font-family="Times,serif" font-size="9.00">446</text>
</g>
<!-- &#45;4&#45;&gt;446 -->
<g id="edge48" class="edge">
<title>&#45;4&#45;&gt;446</title>
<path fill="none" stroke="green" stroke-width="0.23" d="M58.8,-231.6C55.73,-222.29 50.68,-206.99 46.18,-193.37"/>
<polygon fill="green" stroke="green" stroke-width="0.23" points="49.6,-192.58 43.15,-184.18 42.96,-194.77 49.6,-192.58"/>
</g>
<!-- &#45;5 -->
<g id="node5" class="node">
<title>&#45;5</title>
<polygon fill="lightgray" stroke="black" points="995.42,-250.54 971.92,-250.54 971.92,-232.04 995.42,-232.04 995.42,-250.54"/>
<text text-anchor="middle" x="983.67" y="-237.99" font-family="Times,serif" font-size="9.00">&#45;5</text>
</g>
<!-- 251 -->
<g id="node27" class="node">
<title>251</title>
<ellipse fill="white" stroke="black" cx="1008.67" cy="-163.57" rx="20.86" ry="20.86"/>
<text text-anchor="middle" x="1008.67" y="-160.27" font-family="Times,serif" font-size="9.00">251</text>
</g>
<!-- &#45;5&#45;&gt;251 -->
<g id="edge40" class="edge">
<title>&#45;5&#45;&gt;251</title>
<path fill="none" stroke="red" stroke-width="0.28" stroke-dasharray="1,5" d="M986.54,-231.6C989.61,-222.29 994.66,-206.99 999.16,-193.37"/>
<polygon fill="red" stroke="red" stroke-width="0.28" points="1002.36,-194.84 1002.17,-184.25 995.72,-192.65 1002.36,-194.84"/>
</g>
<!-- &#45;5&#45;&gt;188 -->
<g id="edge29" class="edge">
<title>&#45;5&#45;&gt;188</title>
<path fill="none" stroke="green" stroke-width="0.2" stroke-dasharray="1,5" d="M982.42,-231.8C979.18,-212.85 968.7,-166.9 940.67,-142.71 891.44,-100.21 812.59,-89.81 769.06,-87.41"/>
<polygon fill="green" stroke="green" stroke-width="0.2" points="769.25,-83.92 759.11,-86.97 768.94,-90.91 769.25,-83.92"/>
</g>
<!-- &#45;6 -->
<g id="node6" class="node">
<title>&#45;6</title>
<polygon fill="lightgray" stroke="black" points="587.42,-172.82 563.92,-172.82 563.92,-154.32 587.42,-154.32 587.42,-172.82"/>
<text text-anchor="middle" x="575.67" y="-160.27" font-family="Times,serif" font-size="9.00">&#45;6</text>
</g>
<!-- &#45;6&#45;&gt;186 -->
<g id="edge37" class="edge">
<title>&#45;6&#45;&gt;186</title>
<path fill="none" stroke="red" stroke-width="0.2" stroke-dasharray="1,5" d="M568.69,-154.11C564.93,-150.08 559.99,-145.54 554.67,-142.71 535.4,-132.45 398.2,-104.88 336.09,-92.73"/>
<polygon fill="red" stroke="red" stroke-width="0.2" points="336.88,-89.32 326.4,-90.84 335.54,-96.19 336.88,-89.32"/>
</g>
<!-- &#45;6&#45;&gt;187 -->
<g id="edge11" class="edge">
<title>&#45;6&#45;&gt;187</title>
<path fill="none" stroke="green" stroke-width="0.41" d="M575.67,-153.88C575.67,-145.02 575.67,-130.75 575.67,-117.65"/>
<polygon fill="green" stroke="green" stroke-width="0.41" points="579.17,-117.68 575.67,-107.68 572.17,-117.68 579.17,-117.68"/>
</g>
<!-- &#45;6&#45;&gt;188 -->
<g id="edge33" class="edge">
<title>&#45;6&#45;&gt;188</title>
<path fill="none" stroke="red" stroke-width="0.13" d="M583.24,-154.05C586.99,-150.21 591.76,-145.84 596.67,-142.71 632.03,-120.18 677.95,-104.07 707.62,-95.1"/>
<polygon fill="red" stroke="red" stroke-width="0.13" points="708.59,-98.47 717.2,-92.29 706.62,-91.75 708.59,-98.47"/>
</g>
<!-- &#45;7 -->
<g id="node7" class="node">
<title>&#45;7</title>
<polygon fill="lightgray" stroke="black" points="336.42,-321.89 312.92,-321.89 312.92,-303.39 336.42,-303.39 336.42,-321.89"/>
<text text-anchor="middle" x="324.67" y="-309.34" font-family="Times,serif" font-size="9.00">&#45;7</text>
</g>
<!-- &#45;8 -->
<g id="node8" class="node">
<title>&#45;8</title>
<polygon fill="lightgray" stroke="black" points="365.42,-172.82 341.92,-172.82 341.92,-154.32 365.42,-154.32 365.42,-172.82"/>
<text text-anchor="middle" x="353.67" y="-160.27" font-family="Times,serif" font-size="9.00">&#45;8</text>
</g>
<!-- &#45;8&#45;&gt;186 -->
<g id="edge20" class="edge">
<title>&#45;8&#45;&gt;186</title>
<path fill="none" stroke="green" stroke-width="0.91" stroke-dasharray="1,5" d="M348.16,-153.88C341.92,-144.04 331.44,-127.51 322.46,-113.33"/>
<polygon fill="green" stroke="green" stroke-width="0.91" points="325.59,-111.73 317.28,-105.16 319.67,-115.48 325.59,-111.73"/>
</g>
<!-- &#45;8&#45;&gt;187 -->
<g id="edge9" class="edge">
<title>&#45;8&#45;&gt;187</title>
<path fill="none" stroke="red" stroke-width="0.33" d="M360.72,-154.22C364.49,-150.22 369.43,-145.67 374.67,-142.71 403.91,-126.19 496.29,-104.29 544.97,-93.47"/>
<polygon fill="red" stroke="red" stroke-width="0.33" points="545.71,-96.89 554.73,-91.32 544.21,-90.06 545.71,-96.89"/>
</g>
<!-- &#45;9 -->
<g id="node9" class="node">
<title>&#45;9</title>
<polygon fill="lightgray" stroke="black" points="931.42,-172.82 907.92,-172.82 907.92,-154.32 931.42,-154.32 931.42,-172.82"/>
<text text-anchor="middle" x="919.67" y="-160.27" font-family="Times,serif" font-size="9.00">&#45;9</text>
</g>
<!-- &#45;9&#45;&gt;188 -->
<g id="edge15" class="edge">
<title>&#45;9&#45;&gt;188</title>
<path fill="none" stroke="red" stroke-width="0.11" stroke-dasharray="1,5" d="M910.04,-154.07C905.34,-150.23 899.46,-145.86 893.67,-142.71 852.28,-120.2 800,-103.63 767.71,-94.61"/>
<polygon fill="red" stroke="red" stroke-width="0.11" points="768.7,-91.26 758.13,-92 766.85,-98.01 768.7,-91.26"/>
</g>
<!-- &#45;10 -->
<g id="node10" class="node">
<title>&#45;10</title>
<polygon fill="lightgray" stroke="black" points="721.67,-172.82 693.67,-172.82 693.67,-154.32 721.67,-154.32 721.67,-172.82"/>
<text text-anchor="middle" x="707.67" y="-160.27" font-family="Times,serif" font-size="9.00">&#45;10</text>
</g>
<!-- &#45;10&#45;&gt;187 -->
<g id="edge17" class="edge">
<title>&#45;10&#45;&gt;187</title>
<path fill="none" stroke="green" stroke-width="0.3" stroke-dasharray="1,5" d="M698.68,-153.92C694.59,-150.23 689.57,-146.01 684.67,-142.71 658.86,-125.32 626.94,-109.56 604.33,-99.25"/>
<polygon fill="green" stroke="green" stroke-width="0.3" points="605.92,-96.12 595.36,-95.22 603.05,-102.51 605.92,-96.12"/>
</g>
<!-- &#45;11 -->
<g id="node11" class="node">
<title>&#45;11</title>
<polygon fill="lightgray" stroke="black" points="294.67,-321.89 266.67,-321.89 266.67,-303.39 294.67,-303.39 294.67,-321.89"/>
<text text-anchor="middle" x="280.67" y="-309.34" font-family="Times,serif" font-size="9.00">&#45;11</text>
</g>
<!-- 301 -->
<g id="node26" class="node">
<title>301</title>
<ellipse fill="white" stroke="black" cx="256.67" cy="-163.57" rx="20.86" ry="20.86"/>
<text text-anchor="middle" x="256.67" y="-160.27" font-family="Times,serif" font-size="9.00">301</text>
</g>
<!-- &#45;11&#45;&gt;301 -->
<g id="edge42" class="edge">
<title>&#45;11&#45;&gt;301</title>
<path fill="none" stroke="red" stroke-width="0.29" d="M279.31,-303.32C275.95,-282.72 267.12,-228.59 261.53,-194.35"/>
<polygon fill="red" stroke="red" stroke-width="0.29" points="265.05,-194.16 259.98,-184.85 258.14,-195.29 265.05,-194.16"/>
</g>
<!-- 367 -->
<g id="node28" class="node">
<title>367</title>
<ellipse fill="white" stroke="black" cx="305.67" cy="-241.29" rx="20.86" ry="20.86"/>
<text text-anchor="middle" x="305.67" y="-237.99" font-family="Times,serif" font-size="9.00">367</text>
</g>
<!-- &#45;11&#45;&gt;367 -->
<g id="edge45" class="edge">
<title>&#45;11&#45;&gt;367</title>
<path fill="none" stroke="red" stroke-width="0.14" d="M283.74,-303.14C286.65,-295.06 291.2,-282.44 295.4,-270.79"/>
<polygon fill="red" stroke="red" stroke-width="0.14" points="298.63,-272.14 298.73,-261.55 292.05,-269.77 298.63,-272.14"/>
</g>
<!-- &#45;11&#45;&gt;186 -->
<g id="edge21" class="edge">
<title>&#45;11&#45;&gt;186</title>
<path fill="none" stroke="green" stroke-width="0.52" d="M273.48,-303.17C252.86,-277.76 196.8,-200.41 226.67,-142.71 237.16,-122.45 258.76,-107.96 276.73,-98.82"/>
<polygon fill="green" stroke="green" stroke-width="0.52" points="278.01,-102.09 285.54,-94.63 275,-95.77 278.01,-102.09"/>
</g>
<!-- &#45;11&#45;&gt;188 -->
<g id="edge39" class="edge">
<title>&#45;11&#45;&gt;188</title>
<path fill="none" stroke="green" stroke-width="0.13" stroke-dasharray="1,5" d="M293.93,-302.9C297.03,-301.13 300.39,-299.42 303.67,-298.15 531.15,-210.01 687.07,-373.96 840.67,-184.43 852.35,-170.02 850.16,-158.64 840.67,-142.71 824.94,-116.29 791.87,-101.59 767.43,-93.99"/>
<polygon fill="green" stroke="green" stroke-width="0.13" points="768.65,-90.7 758.07,-91.29 766.71,-97.42 768.65,-90.7"/>
</g>
<!-- &#45;12 -->
<g id="node12" class="node">
<title>&#45;12</title>
<polygon fill="lightgray" stroke="black" points="633.67,-172.82 605.67,-172.82 605.67,-154.32 633.67,-154.32 633.67,-172.82"/>
<text text-anchor="middle" x="619.67" y="-160.27" font-family="Times,serif" font-size="9.00">&#45;12</text>
</g>
<!-- &#45;12&#45;&gt;186 -->
<g id="edge12" class="edge">
<title>&#45;12&#45;&gt;186</title>
<path fill="none" stroke="green" stroke-width="0.58" stroke-dasharray="1,5" d="M611.92,-154.05C607.78,-150.01 602.37,-145.47 596.67,-142.71 595.93,-142.35 411.54,-107.08 336.69,-92.78"/>
<polygon fill="green" stroke="green" stroke-width="0.58" points="337.42,-89.36 326.94,-90.92 336.11,-96.23 337.42,-89.36"/>
</g>
<!-- &#45;12&#45;&gt;187 -->
<g id="edge34" class="edge">
<title>&#45;12&#45;&gt;187</title>
<path fill="none" stroke="green" stroke-width="0.15" d="M614.62,-153.88C608.83,-143.91 599.05,-127.09 590.74,-112.79"/>
<polygon fill="green" stroke="green" stroke-width="0.15" points="593.97,-111.38 585.92,-104.49 587.92,-114.89 593.97,-111.38"/>
</g>
<!-- &#45;12&#45;&gt;188 -->
<g id="edge18" class="edge">
<title>&#45;12&#45;&gt;188</title>
<path fill="none" stroke="red" stroke-width="0.11" stroke-dasharray="1,5" d="M628.76,-154.06C632.87,-150.38 637.87,-146.15 642.67,-142.71 664.45,-127.1 690.84,-111.85 710.27,-101.23"/>
<polygon fill="red" stroke="red" stroke-width="0.11" points="711.92,-104.32 719.06,-96.5 708.6,-98.16 711.92,-104.32"/>
</g>
<!-- &#45;13 -->
<g id="node13" class="node">
<title>&#45;13</title>
<polygon fill="lightgray" stroke="black" points="767.67,-172.82 739.67,-172.82 739.67,-154.32 767.67,-154.32 767.67,-172.82"/>
<text text-anchor="middle" x="753.67" y="-160.27" font-family="Times,serif" font-size="9.00">&#45;13</text>
</g>
<!-- &#45;13&#45;&gt;187 -->
<g id="edge28" class="edge">
<title>&#45;13&#45;&gt;187</title>
<path fill="none" stroke="red" stroke-width="0.41" stroke-dasharray="1,5" d="M745.3,-154.02C741.17,-150.17 735.95,-145.8 730.67,-142.71 690.41,-119.17 638.55,-102.95 606.2,-94.28"/>
<polygon fill="red" stroke="red" stroke-width="0.41" points="607.18,-90.92 596.62,-91.79 605.42,-97.7 607.18,-90.92"/>
</g>
<!-- &#45;14 -->
<g id="node14" class="node">
<title>&#45;14</title>
<polygon fill="lightgray" stroke="black" points="382.67,-321.89 354.67,-321.89 354.67,-303.39 382.67,-303.39 382.67,-321.89"/>
<text text-anchor="middle" x="368.67" y="-309.34" font-family="Times,serif" font-size="9.00">&#45;14</text>
</g>
<!-- &#45;15 -->
<g id="node15" class="node">
<title>&#45;15</title>
<polygon fill="lightgray" stroke="black" points="323.67,-172.82 295.67,-172.82 295.67,-154.32 323.67,-154.32 323.67,-172.82"/>
<text text-anchor="middle" x="309.67" y="-160.27" font-family="Times,serif" font-size="9.00">&#45;15</text>
</g>
<!-- &#45;15&#45;&gt;185 -->
<g id="edge5" class="edge">
<title>&#45;15&#45;&gt;185</title>
<path fill="none" stroke="green" stroke-width="0.37" d="M318.68,-153.94C322.77,-150.25 327.78,-146.03 332.67,-142.71 357.93,-125.56 389.09,-109.84 411.26,-99.47"/>
<polygon fill="green" stroke="green" stroke-width="0.37" points="412.63,-102.7 420.25,-95.34 409.7,-96.34 412.63,-102.7"/>
</g>
<!-- &#45;16 -->
<g id="node16" class="node">
<title>&#45;16</title>
<polygon fill="lightgray" stroke="black" points="499.67,-172.82 471.67,-172.82 471.67,-154.32 499.67,-154.32 499.67,-172.82"/>
<text text-anchor="middle" x="485.67" y="-160.27" font-family="Times,serif" font-size="9.00">&#45;16</text>
</g>
<!-- &#45;16&#45;&gt;185 -->
<g id="edge16" class="edge">
<title>&#45;16&#45;&gt;185</title>
<path fill="none" stroke="red" stroke-width="0.37" stroke-dasharray="1,5" d="M480.39,-153.88C474.39,-144.01 464.31,-127.4 455.67,-113.19"/>
<polygon fill="red" stroke="red" stroke-width="0.37" points="458.74,-111.5 450.56,-104.78 452.76,-115.14 458.74,-111.5"/>
</g>
<!-- &#45;16&#45;&gt;187 -->
<g id="edge26" class="edge">
<title>&#45;16&#45;&gt;187</title>
<path fill="none" stroke="red" stroke-width="0.15" stroke-dasharray="1,5" d="M495.49,-154.03C499.55,-150.51 504.33,-146.4 508.67,-142.71 523.11,-130.46 539.43,-116.85 552.35,-106.13"/>
<polygon fill="red" stroke="red" stroke-width="0.15" points="554.26,-109.09 559.73,-100.01 549.8,-103.7 554.26,-109.09"/>
</g>
<!-- &#45;17 -->
<g id="node17" class="node">
<title>&#45;17</title>
<polygon fill="lightgray" stroke="black" points="545.67,-172.82 517.67,-172.82 517.67,-154.32 545.67,-154.32 545.67,-172.82"/>
<text text-anchor="middle" x="531.67" y="-160.27" font-family="Times,serif" font-size="9.00">&#45;17</text>
</g>
<!-- &#45;17&#45;&gt;185 -->
<g id="edge35" class="edge">
<title>&#45;17&#45;&gt;185</title>
<path fill="none" stroke="red" stroke-width="0.26" d="M521.88,-154C517.82,-150.47 513.04,-146.37 508.67,-142.71 493.79,-130.27 476.86,-116.55 463.49,-105.83"/>
<polygon fill="red" stroke="red" stroke-width="0.26" points="465.99,-103.34 455.99,-99.83 461.61,-108.81 465.99,-103.34"/>
</g>
<!-- &#45;17&#45;&gt;187 -->
<g id="edge3" class="edge">
<title>&#45;17&#45;&gt;187</title>
<path fill="none" stroke="red" stroke-width="0.5" d="M536.72,-153.88C542.46,-144.01 552.11,-127.4 560.36,-113.19"/>
<polygon fill="red" stroke="red" stroke-width="0.5" points="563.16,-115.35 565.16,-104.95 557.11,-111.83 563.16,-115.35"/>
</g>
<!-- &#45;18 -->
<g id="node18" class="node">
<title>&#45;18</title>
<polygon fill="lightgray" stroke="black" points="813.67,-172.82 785.67,-172.82 785.67,-154.32 813.67,-154.32 813.67,-172.82"/>
<text text-anchor="middle" x="799.67" y="-160.27" font-family="Times,serif" font-size="9.00">&#45;18</text>
</g>
<!-- &#45;18&#45;&gt;187 -->
<g id="edge25" class="edge">
<title>&#45;18&#45;&gt;187</title>
<path fill="none" stroke="green" stroke-width="0.31" d="M791.4,-153.84C787.29,-149.95 782.07,-145.6 776.67,-142.71 720.84,-112.81 647.49,-97.69 606.61,-91.12"/>
<polygon fill="green" stroke="green" stroke-width="0.31" points="607.34,-87.69 596.93,-89.62 606.28,-94.61 607.34,-87.69"/>
</g>
<!-- &#45;19 -->
<g id="node19" class="node">
<title>&#45;19</title>
<polygon fill="lightgray" stroke="black" points="453.67,-172.82 425.67,-172.82 425.67,-154.32 453.67,-154.32 453.67,-172.82"/>
<text text-anchor="middle" x="439.67" y="-160.27" font-family="Times,serif" font-size="9.00">&#45;19</text>
</g>
<!-- &#45;19&#45;&gt;185 -->
<g id="edge27" class="edge">
<title>&#45;19&#45;&gt;185</title>
<path fill="none" stroke="green" stroke-width="0.14" stroke-dasharray="1,5" d="M439.67,-153.88C439.67,-144.93 439.67,-130.46 439.67,-117.26"/>
<polygon fill="green" stroke="green" stroke-width="0.14" points="443.17,-117.28 439.67,-107.28 436.17,-117.28 443.17,-117.28"/>
</g>
<!-- &#45;19&#45;&gt;187 -->
<g id="edge8" class="edge">
<title>&#45;19&#45;&gt;187</title>
<path fill="none" stroke="red" stroke-width="0.58" d="M448.64,-153.89C452.73,-150.19 457.75,-145.98 462.67,-142.71 489.68,-124.8 523.25,-108.92 546.76,-98.71"/>
<polygon fill="red" stroke="red" stroke-width="0.58" points="547.85,-102.05 555.67,-94.91 545.1,-95.61 547.85,-102.05"/>
</g>
<!-- &#45;20 -->
<g id="node20" class="node">
<title>&#45;20</title>
<polygon fill="lightgray" stroke="black" points="141.67,-172.82 113.67,-172.82 113.67,-154.32 141.67,-154.32 141.67,-172.82"/>
<text text-anchor="middle" x="127.67" y="-160.27" font-family="Times,serif" font-size="9.00">&#45;20</text>
</g>
<!-- &#45;20&#45;&gt;186 -->
<g id="edge2" class="edge">
<title>&#45;20&#45;&gt;186</title>
<path fill="none" stroke="green" stroke-width="0.29" d="M138.42,-153.95C143.46,-150.17 149.67,-145.89 155.67,-142.71 195.39,-121.69 244.79,-104.94 275.78,-95.45"/>
<polygon fill="green" stroke="green" stroke-width="0.29" points="276.56,-98.87 285.13,-92.64 274.55,-92.16 276.56,-98.87"/>
</g>
<!-- 1 -->
<g id="node22" class="node">
<title>1</title>
<ellipse fill="lightblue" stroke="black" cx="474.67" cy="-14.5" rx="14.5" ry="14.5"/>
<text text-anchor="middle" x="474.67" y="-11.2" font-family="Times,serif" font-size="9.00">1</text>
</g>
<!-- 1&#45;&gt;1 -->
<g id="edge32" class="edge">
<title>1&#45;&gt;1</title>
<path fill="none" stroke="green" stroke-width="0.35" stroke-dasharray="1,5" d="M484.99,-24.94C495.48,-31.08 507.17,-27.6 507.17,-14.5 507.17,-5.49 501.64,-1.03 494.78,-1.12"/>
<polygon fill="green" stroke="green" stroke-width="0.35" points="494.07,2.32 485.49,-3.9 496.08,-4.38 494.07,2.32"/>
</g>
<!-- 2 -->
<g id="node23" class="node">
<title>2</title>
<ellipse fill="lightblue" stroke="black" cx="822.67" cy="-14.5" rx="14.5" ry="14.5"/>
<text text-anchor="middle" x="822.67" y="-11.2" font-family="Times,serif" font-size="9.00">2</text>
</g>
<!-- 2&#45;&gt;2 -->
<g id="edge38" class="edge">
<title>2&#45;&gt;2</title>
<path fill="none" stroke="green" stroke-width="0.29" stroke-dasharray="1,5" d="M832.99,-24.94C843.48,-31.08 855.17,-27.6 855.17,-14.5 855.17,-5.49 849.64,-1.03 842.78,-1.12"/>
<polygon fill="green" stroke="green" stroke-width="0.29" points="841.97,2.29 833.4,-3.93 843.99,-4.41 841.97,2.29"/>
</g>
<!-- 3 -->
<g id="node24" class="node">
<title>3</title>
<ellipse fill="lightblue" stroke="black" cx="656.67" cy="-14.5" rx="14.5" ry="14.5"/>
<text text-anchor="middle" x="656.67" y="-11.2" font-family="Times,serif" font-size="9.00">3</text>
</g>
<!-- 4 -->
<g id="node25" class="node">
<title>4</title>
<ellipse fill="lightblue" stroke="black" cx="414.67" cy="-312.64" rx="14.5" ry="14.5"/>
<text text-anchor="middle" x="414.67" y="-309.34" font-family="Times,serif" font-size="9.00">4</text>
</g>
<!-- 301&#45;&gt;186 -->
<g id="edge43" class="edge">
<title>301&#45;&gt;186</title>
<path fill="none" stroke="red" stroke-width="0.24" d="M267.79,-145.39C274.05,-135.71 282,-123.42 289,-112.61"/>
<polygon fill="red" stroke="red" stroke-width="0.24" points="291.91,-114.57 294.4,-104.27 286.03,-110.76 291.91,-114.57"/>
</g>
<!-- 251&#45;&gt;2 -->
<g id="edge44" class="edge">
<title>251&#45;&gt;2</title>
<path fill="none" stroke="red" stroke-width="0.48" stroke-dasharray="1,5" d="M992.49,-149.78C958.27,-122.72 878.69,-59.79 841.93,-30.72"/>
<polygon fill="red" stroke="red" stroke-width="0.48" points="844.14,-28.01 834.12,-24.55 839.8,-33.5 844.14,-28.01"/>
</g>
<!-- 251&#45;&gt;188 -->
<g id="edge41" class="edge">
<title>251&#45;&gt;188</title>
<path fill="none" stroke="red" stroke-width="0.42" stroke-dasharray="1,5" d="M991.35,-151.45C985.86,-148.29 979.65,-145.06 973.67,-142.71 903.07,-114.98 814.97,-98.62 768.96,-91.35"/>
<polygon fill="red" stroke="red" stroke-width="0.42" points="769.51,-87.9 759.1,-89.84 768.45,-94.82 769.51,-87.9"/>
</g>
<!-- 367&#45;&gt;301 -->
<g id="edge46" class="edge">
<title>367&#45;&gt;301</title>
<path fill="none" stroke="red" stroke-width="0.18" d="M294.55,-223.11C288.22,-213.33 280.18,-200.9 273.13,-190.01"/>
<polygon fill="red" stroke="red" stroke-width="0.18" points="276.27,-188.41 267.9,-181.92 270.39,-192.22 276.27,-188.41"/>
</g>
<!-- 367&#45;&gt;187 -->
<g id="edge50" class="edge">
<title>367&#45;&gt;187</title>
<path fill="none" stroke="red" stroke-width="0.1" d="M326.92,-239.63C420.05,-236.54 788.97,-221.97 822.67,-184.43 835.06,-170.63 834.25,-157.2 822.67,-142.71 809.12,-125.75 669.46,-101.71 606.34,-91.61"/>
<polygon fill="red" stroke="red" stroke-width="0.1" points="607.13,-88.19 596.7,-90.08 606.03,-95.11 607.13,-88.19"/>
</g>
<!-- 185&#45;&gt;0 -->
<g id="edge22" class="edge">
<title>185&#45;&gt;0</title>
<path fill="none" stroke="red" stroke-width="0.4" stroke-dasharray="1,5" d="M421.32,-75.35C396.79,-62.65 353.37,-40.18 327.28,-26.68"/>
<polygon fill="red" stroke="red" stroke-width="0.4" points="329.24,-23.75 318.75,-22.26 326.02,-29.97 329.24,-23.75"/>
</g>
<!-- 185&#45;&gt;1 -->
<g id="edge10" class="edge">
<title>185&#45;&gt;1</title>
<path fill="none" stroke="green" stroke-width="0.22" stroke-dasharray="1,5" d="M448.87,-66.63C453.44,-57.57 458.99,-46.57 463.77,-37.09"/>
<polygon fill="green" stroke="green" stroke-width="0.22" points="466.88,-38.71 468.26,-28.21 460.63,-35.56 466.88,-38.71"/>
</g>
<!-- 186&#45;&gt;0 -->
<g id="edge14" class="edge">
<title>186&#45;&gt;0</title>
<path fill="none" stroke="red" stroke-width="0.53" stroke-dasharray="1,5" d="M305.67,-64.79C305.67,-57.07 305.67,-48.16 305.67,-40.06"/>
<polygon fill="red" stroke="red" stroke-width="0.53" points="309.17,-40.16 305.67,-30.16 302.17,-40.16 309.17,-40.16"/>
</g>
<!-- 186&#45;&gt;2 -->
<g id="edge4" class="edge">
<title>186&#45;&gt;2</title>
<path fill="none" stroke="red" stroke-width="0.39" stroke-dasharray="1,5" d="M326.32,-80.47C347.25,-76.13 380.61,-69.5 409.67,-64.99 556.09,-42.27 733.11,-24.17 797.62,-17.89"/>
<polygon fill="red" stroke="red" stroke-width="0.39" points="797.79,-21.39 807.41,-16.94 797.12,-14.42 797.79,-21.39"/>
</g>
<!-- 187&#45;&gt;1 -->
<g id="edge23" class="edge">
<title>187&#45;&gt;1</title>
<path fill="none" stroke="green" stroke-width="0.35" d="M558.99,-73.4C541.37,-61.3 513.58,-42.21 494.76,-29.29"/>
<polygon fill="green" stroke="green" stroke-width="0.35" points="496.98,-26.57 486.76,-23.8 493.02,-32.34 496.98,-26.57"/>
</g>
<!-- 187&#45;&gt;3 -->
<g id="edge24" class="edge">
<title>187&#45;&gt;3</title>
<path fill="none" stroke="red" stroke-width="0.65" d="M591.29,-71.48C604.69,-60 624.02,-43.45 638.19,-31.32"/>
<polygon fill="red" stroke="red" stroke-width="0.65" points="640.18,-34.22 645.5,-25.06 635.63,-28.9 640.18,-34.22"/>
</g>
<!-- 188&#45;&gt;3 -->
<g id="edge7" class="edge">
<title>188&#45;&gt;3</title>
<path fill="none" stroke="green" stroke-width="0.32" stroke-dasharray="1,5" d="M722.05,-71.48C708.53,-59.9 688.95,-43.14 674.75,-30.98"/>
<polygon fill="green" stroke="green" stroke-width="0.32" points="677.33,-28.58 667.46,-24.73 672.78,-33.89 677.33,-28.58"/>
</g>
<!-- 446&#45;&gt;186 -->
<g id="edge49" class="edge">
<title>446&#45;&gt;186</title>
<path fill="none" stroke="red" stroke-width="0.22" d="M54,-151.46C59.49,-148.29 65.69,-145.07 71.67,-142.71 141.65,-115.15 228.95,-98.72 274.59,-91.4"/>
<polygon fill="red" stroke="red" stroke-width="0.22" points="275.06,-94.87 284.4,-89.87 273.98,-87.96 275.06,-94.87"/>
</g>
</g>
</svg>
