<?xml version="1.0" encoding="UTF-8" standalone="no"?>
<!DOCTYPE svg PUBLIC "-//W3C//DTD SVG 1.1//EN"
 "http://www.w3.org/Graphics/SVG/1.1/DTD/svg11.dtd">
<!-- Generated by graphviz version 12.1.1 (20240910.0053)
 -->
<!-- Pages: 1 -->
<svg width="868pt" height="247pt"
 viewBox="0.00 0.00 867.75 246.93" xmlns="http://www.w3.org/2000/svg" xmlns:xlink="http://www.w3.org/1999/xlink">
<g id="graph0" class="graph" transform="scale(1 1) rotate(0) translate(4 242.93)">
<polygon fill="white" stroke="none" points="-4,4 -4,-242.93 863.75,-242.93 863.75,4 -4,4"/>
<!-- &#45;1 -->
<g id="node1" class="node">
<title>&#45;1</title>
<polygon fill="lightgray" stroke="black" points="251.5,-238.93 228,-238.93 228,-220.43 251.5,-220.43 251.5,-238.93"/>
<text text-anchor="middle" x="239.75" y="-226.38" font-family="Times,serif" font-size="9.00">&#45;1</text>
</g>
<!-- 193 -->
<g id="node26" class="node">
<title>193</title>
<ellipse fill="white" stroke="black" cx="237.75" cy="-85.85" rx="20.86" ry="20.86"/>
<text text-anchor="middle" x="237.75" y="-82.55" font-family="Times,serif" font-size="9.00">193</text>
</g>
<!-- &#45;1&#45;&gt;193 -->
<g id="edge6" class="edge">
<title>&#45;1&#45;&gt;193</title>
<path fill="none" stroke="red" stroke-width="0.32" d="M227.56,-227.93C204.07,-225.76 152.88,-217.3 130.75,-184.43 120.39,-169.05 121.14,-158.57 130.75,-142.71 147.26,-115.46 181.91,-100.88 207.32,-93.52"/>
<polygon fill="red" stroke="red" stroke-width="0.32" points="208,-96.96 216.76,-91.01 206.19,-90.2 208,-96.96"/>
</g>
<!-- 194 -->
<g id="node27" class="node">
<title>194</title>
<ellipse fill="white" stroke="black" cx="367.75" cy="-85.85" rx="20.86" ry="20.86"/>
<text text-anchor="middle" x="367.75" y="-82.55" font-family="Times,serif" font-size="9.00">194</text>
</g>
<!-- &#45;1&#45;&gt;194 -->
<g id="edge22" class="edge">
<title>&#45;1&#45;&gt;194</title>
<path fill="none" stroke="red" stroke-width="0.34" stroke-dasharray="1,5" d="M251.73,-223.9C279.87,-212.67 347.93,-185.43 348.75,-184.43 364.07,-165.82 368.33,-138.48 369.04,-117.46"/>
<polygon fill="red" stroke="red" stroke-width="0.34" points="372.53,-117.68 369.12,-107.65 365.53,-117.62 372.53,-117.68"/>
</g>
<!-- 196 -->
<g id="node29" class="node">
<title>196</title>
<ellipse fill="white" stroke="black" cx="683.75" cy="-85.85" rx="20.86" ry="20.86"/>
<text text-anchor="middle" x="683.75" y="-82.55" font-family="Times,serif" font-size="9.00">196</text>
</g>
<!-- &#45;1&#45;&gt;196 -->
<g id="edge25" class="edge">
<title>&#45;1&#45;&gt;196</title>
<path fill="none" stroke="red" stroke-width="0.13" d="M251.99,-223.15C254.82,-222.08 257.85,-221.08 260.75,-220.43 317.68,-207.61 744.92,-227.09 784.75,-184.43 797.4,-170.88 794.17,-158.68 784.75,-142.71 769.52,-116.88 737.59,-102.17 713.69,-94.39"/>
<polygon fill="red" stroke="red" stroke-width="0.13" points="714.77,-91.06 704.19,-91.53 712.75,-97.77 714.77,-91.06"/>
</g>
<!-- 238 -->
<g id="node30" class="node">
<title>238</title>
<ellipse fill="white" stroke="black" cx="62.75" cy="-163.57" rx="20.86" ry="20.86"/>
<text text-anchor="middle" x="62.75" y="-160.27" font-family="Times,serif" font-size="9.00">238</text>
</g>
<!-- &#45;1&#45;&gt;238 -->
<g id="edge43" class="edge">
<title>&#45;1&#45;&gt;238</title>
<path fill="none" stroke="red" stroke-width="0.29" d="M227.66,-225.84C202.75,-219.81 144.18,-204.56 97.75,-184.43 94.89,-183.19 91.97,-181.78 89.09,-180.3"/>
<polygon fill="red" stroke="red" stroke-width="0.29" points="91.02,-177.37 80.57,-175.64 87.67,-183.51 91.02,-177.37"/>
</g>
<!-- &#45;2 -->
<g id="node2" class="node">
<title>&#45;2</title>
<polygon fill="lightgray" stroke="black" points="163.5,-172.82 140,-172.82 140,-154.32 163.5,-154.32 163.5,-172.82"/>
<text text-anchor="middle" x="151.75" y="-160.27" font-family="Times,serif" font-size="9.00">&#45;2</text>
</g>
<!-- &#45;2&#45;&gt;193 -->
<g id="edge19" class="edge">
<title>&#45;2&#45;&gt;193</title>
<path fill="none" stroke="green" stroke-width="0.42" stroke-dasharray="1,5" d="M160.66,-153.97C164.36,-150.44 168.73,-146.34 172.75,-142.71 186.22,-130.57 201.59,-117.33 214.01,-106.78"/>
<polygon fill="green" stroke="green" stroke-width="0.42" points="216.21,-109.5 221.59,-100.37 211.69,-104.16 216.21,-109.5"/>
</g>
<!-- &#45;3 -->
<g id="node3" class="node">
<title>&#45;3</title>
<polygon fill="lightgray" stroke="black" points="733.5,-172.82 710,-172.82 710,-154.32 733.5,-154.32 733.5,-172.82"/>
<text text-anchor="middle" x="721.75" y="-160.27" font-family="Times,serif" font-size="9.00">&#45;3</text>
</g>
<!-- 195 -->
<g id="node28" class="node">
<title>195</title>
<ellipse fill="white" stroke="black" cx="562.75" cy="-85.85" rx="20.86" ry="20.86"/>
<text text-anchor="middle" x="562.75" y="-82.55" font-family="Times,serif" font-size="9.00">195</text>
</g>
<!-- &#45;3&#45;&gt;195 -->
<g id="edge16" class="edge">
<title>&#45;3&#45;&gt;195</title>
<path fill="none" stroke="green" stroke-width="0.27" d="M714.17,-154.07C710.42,-150.23 705.65,-145.86 700.75,-142.71 666.28,-120.56 621.58,-104.42 592.54,-95.35"/>
<polygon fill="green" stroke="green" stroke-width="0.27" points="593.58,-92 582.99,-92.44 591.54,-98.7 593.58,-92"/>
</g>
<!-- &#45;3&#45;&gt;196 -->
<g id="edge26" class="edge">
<title>&#45;3&#45;&gt;196</title>
<path fill="none" stroke="green" stroke-width="0.33" d="M717.39,-153.88C712.54,-144.23 704.47,-128.14 697.45,-114.15"/>
<polygon fill="green" stroke="green" stroke-width="0.33" points="700.64,-112.71 693.03,-105.34 694.39,-115.85 700.64,-112.71"/>
</g>
<!-- &#45;4 -->
<g id="node4" class="node">
<title>&#45;4</title>
<polygon fill="lightgray" stroke="black" points="465.5,-172.82 442,-172.82 442,-154.32 465.5,-154.32 465.5,-172.82"/>
<text text-anchor="middle" x="453.75" y="-160.27" font-family="Times,serif" font-size="9.00">&#45;4</text>
</g>
<!-- &#45;4&#45;&gt;194 -->
<g id="edge7" class="edge">
<title>&#45;4&#45;&gt;194</title>
<path fill="none" stroke="red" stroke-width="0.12" d="M444.84,-153.97C441.14,-150.44 436.77,-146.34 432.75,-142.71 419.15,-130.45 403.61,-117.07 391.13,-106.48"/>
<polygon fill="red" stroke="red" stroke-width="0.12" points="393.47,-103.87 383.57,-100.09 388.95,-109.22 393.47,-103.87"/>
</g>
<!-- &#45;4&#45;&gt;195 -->
<g id="edge1" class="edge">
<title>&#45;4&#45;&gt;195</title>
<path fill="none" stroke="red" stroke-width="0.14" stroke-dasharray="1,5" d="M462,-154.07C465.74,-150.4 470.32,-146.16 474.75,-142.71 494.2,-127.56 517.88,-112.72 535.77,-102.14"/>
<polygon fill="red" stroke="red" stroke-width="0.14" points="537.49,-105.19 544.36,-97.13 533.96,-99.14 537.49,-105.19"/>
</g>
<!-- &#45;5 -->
<g id="node5" class="node">
<title>&#45;5</title>
<polygon fill="lightgray" stroke="black" points="775.5,-172.82 752,-172.82 752,-154.32 775.5,-154.32 775.5,-172.82"/>
<text text-anchor="middle" x="763.75" y="-160.27" font-family="Times,serif" font-size="9.00">&#45;5</text>
</g>
<!-- &#45;5&#45;&gt;195 -->
<g id="edge36" class="edge">
<title>&#45;5&#45;&gt;195</title>
<path fill="none" stroke="green" stroke-width="0.39" stroke-dasharray="1,5" d="M756.29,-153.88C752.56,-150 747.77,-145.65 742.75,-142.71 717.18,-127.76 637.73,-106.01 593.41,-94.56"/>
<polygon fill="green" stroke="green" stroke-width="0.39" points="594.35,-91.19 583.79,-92.1 592.61,-97.97 594.35,-91.19"/>
</g>
<!-- &#45;5&#45;&gt;196 -->
<g id="edge12" class="edge">
<title>&#45;5&#45;&gt;196</title>
<path fill="none" stroke="red" stroke-width="0.19" d="M754.57,-153.88C742.79,-142.73 721.96,-123.02 705.93,-107.85"/>
<polygon fill="red" stroke="red" stroke-width="0.19" points="708.38,-105.35 698.71,-101.01 703.57,-110.43 708.38,-105.35"/>
</g>
<!-- &#45;6 -->
<g id="node6" class="node">
<title>&#45;6</title>
<polygon fill="lightgray" stroke="black" points="205.5,-172.82 182,-172.82 182,-154.32 205.5,-154.32 205.5,-172.82"/>
<text text-anchor="middle" x="193.75" y="-160.27" font-family="Times,serif" font-size="9.00">&#45;6</text>
</g>
<!-- &#45;6&#45;&gt;193 -->
<g id="edge18" class="edge">
<title>&#45;6&#45;&gt;193</title>
<path fill="none" stroke="green" stroke-width="0.28" d="M198.8,-153.88C204.54,-144.01 214.18,-127.4 222.44,-113.19"/>
<polygon fill="green" stroke="green" stroke-width="0.28" points="225.4,-115.07 227.4,-104.67 219.35,-111.56 225.4,-115.07"/>
</g>
<!-- &#45;7 -->
<g id="node7" class="node">
<title>&#45;7</title>
<polygon fill="lightgray" stroke="black" points="507.5,-172.82 484,-172.82 484,-154.32 507.5,-154.32 507.5,-172.82"/>
<text text-anchor="middle" x="495.75" y="-160.27" font-family="Times,serif" font-size="9.00">&#45;7</text>
</g>
<!-- &#45;7&#45;&gt;194 -->
<g id="edge24" class="edge">
<title>&#45;7&#45;&gt;194</title>
<path fill="none" stroke="red" stroke-width="0.12" stroke-dasharray="1,5" d="M487.64,-153.89C483.92,-150.18 479.33,-145.97 474.75,-142.71 449.78,-124.91 418.39,-109.21 396.08,-99.02"/>
<polygon fill="red" stroke="red" stroke-width="0.12" points="397.55,-95.84 386.99,-94.94 394.68,-102.23 397.55,-95.84"/>
</g>
<!-- &#45;7&#45;&gt;195 -->
<g id="edge32" class="edge">
<title>&#45;7&#45;&gt;195</title>
<path fill="none" stroke="green" stroke-width="0.8" d="M503.44,-153.88C512.75,-143.36 528.8,-125.22 541.87,-110.45"/>
<polygon fill="green" stroke="green" stroke-width="0.8" points="544.33,-112.95 548.33,-103.14 539.09,-108.31 544.33,-112.95"/>
</g>
<!-- &#45;8 -->
<g id="node8" class="node">
<title>&#45;8</title>
<polygon fill="lightgray" stroke="black" points="23.5,-172.82 0,-172.82 0,-154.32 23.5,-154.32 23.5,-172.82"/>
<text text-anchor="middle" x="11.75" y="-160.27" font-family="Times,serif" font-size="9.00">&#45;8</text>
</g>
<!-- 2 -->
<g id="node23" class="node">
<title>2</title>
<ellipse fill="lightblue" stroke="black" cx="237.75" cy="-14.5" rx="14.5" ry="14.5"/>
<text text-anchor="middle" x="237.75" y="-11.2" font-family="Times,serif" font-size="9.00">2</text>
</g>
<!-- &#45;8&#45;&gt;2 -->
<g id="edge45" class="edge">
<title>&#45;8&#45;&gt;2</title>
<path fill="none" stroke="green" stroke-width="0.28" d="M19.98,-154.04C23.72,-150.37 28.3,-146.14 32.75,-142.71 95.76,-94.16 178.1,-47.64 216.41,-26.85"/>
<polygon fill="green" stroke="green" stroke-width="0.28" points="217.65,-30.16 224.79,-22.33 214.33,-24 217.65,-30.16"/>
</g>
<!-- &#45;8&#45;&gt;193 -->
<g id="edge37" class="edge">
<title>&#45;8&#45;&gt;193</title>
<path fill="none" stroke="red" stroke-width="0.23" d="M18.79,-154.21C22.56,-150.21 27.5,-145.66 32.75,-142.71 89.26,-110.97 164.77,-96.49 206.58,-90.52"/>
<polygon fill="red" stroke="red" stroke-width="0.23" points="206.91,-94.01 216.35,-89.2 205.97,-87.07 206.91,-94.01"/>
</g>
<!-- &#45;9 -->
<g id="node9" class="node">
<title>&#45;9</title>
<polygon fill="lightgray" stroke="black" points="339.5,-172.82 316,-172.82 316,-154.32 339.5,-154.32 339.5,-172.82"/>
<text text-anchor="middle" x="327.75" y="-160.27" font-family="Times,serif" font-size="9.00">&#45;9</text>
</g>
<!-- &#45;9&#45;&gt;194 -->
<g id="edge38" class="edge">
<title>&#45;9&#45;&gt;194</title>
<path fill="none" stroke="green" stroke-width="0.51" d="M332.34,-153.88C337.44,-144.23 345.94,-128.14 353.33,-114.15"/>
<polygon fill="green" stroke="green" stroke-width="0.51" points="356.28,-116.07 357.85,-105.59 350.09,-112.8 356.28,-116.07"/>
</g>
<!-- &#45;10 -->
<g id="node10" class="node">
<title>&#45;10</title>
<polygon fill="lightgray" stroke="black" points="599.75,-172.82 571.75,-172.82 571.75,-154.32 599.75,-154.32 599.75,-172.82"/>
<text text-anchor="middle" x="585.75" y="-160.27" font-family="Times,serif" font-size="9.00">&#45;10</text>
</g>
<!-- &#45;10&#45;&gt;194 -->
<g id="edge5" class="edge">
<title>&#45;10&#45;&gt;194</title>
<path fill="none" stroke="red" stroke-width="0.17" d="M577.47,-153.86C573.36,-149.97 568.13,-145.62 562.75,-142.71 508.86,-113.58 438.17,-98.24 398.39,-91.41"/>
<polygon fill="red" stroke="red" stroke-width="0.17" points="399.19,-87.99 388.75,-89.82 398.05,-94.9 399.19,-87.99"/>
</g>
<!-- &#45;10&#45;&gt;195 -->
<g id="edge21" class="edge">
<title>&#45;10&#45;&gt;195</title>
<path fill="none" stroke="red" stroke-width="0.17" d="M583.11,-153.88C580.28,-144.57 575.64,-129.28 571.5,-115.65"/>
<polygon fill="red" stroke="red" stroke-width="0.17" points="574.93,-114.92 568.68,-106.37 568.24,-116.95 574.93,-114.92"/>
</g>
<!-- &#45;10&#45;&gt;196 -->
<g id="edge34" class="edge">
<title>&#45;10&#45;&gt;196</title>
<path fill="none" stroke="green" stroke-width="0.22" d="M595.47,-153.91C599.52,-150.37 604.31,-146.28 608.75,-142.71 625.16,-129.55 644.17,-115.4 658.95,-104.63"/>
<polygon fill="green" stroke="green" stroke-width="0.22" points="660.79,-107.62 666.84,-98.91 656.69,-101.95 660.79,-107.62"/>
</g>
<!-- &#45;11 -->
<g id="node11" class="node">
<title>&#45;11</title>
<polygon fill="lightgray" stroke="black" points="297.75,-238.93 269.75,-238.93 269.75,-220.43 297.75,-220.43 297.75,-238.93"/>
<text text-anchor="middle" x="283.75" y="-226.38" font-family="Times,serif" font-size="9.00">&#45;11</text>
</g>
<!-- &#45;12 -->
<g id="node12" class="node">
<title>&#45;12</title>
<polygon fill="lightgray" stroke="black" points="423.75,-172.82 395.75,-172.82 395.75,-154.32 423.75,-154.32 423.75,-172.82"/>
<text text-anchor="middle" x="409.75" y="-160.27" font-family="Times,serif" font-size="9.00">&#45;12</text>
</g>
<!-- &#45;12&#45;&gt;193 -->
<g id="edge31" class="edge">
<title>&#45;12&#45;&gt;193</title>
<path fill="none" stroke="green" stroke-width="0.44" d="M395.38,-156.24C367.12,-143.8 303.81,-115.93 266.59,-99.55"/>
<polygon fill="green" stroke="green" stroke-width="0.44" points="268.01,-96.35 257.44,-95.52 265.19,-102.75 268.01,-96.35"/>
</g>
<!-- &#45;12&#45;&gt;195 -->
<g id="edge35" class="edge">
<title>&#45;12&#45;&gt;195</title>
<path fill="none" stroke="red" stroke-width="0.31" d="M418.21,-154.16C422.35,-150.34 427.56,-145.96 432.75,-142.71 465.07,-122.49 505.97,-106.26 533.18,-96.61"/>
<polygon fill="red" stroke="red" stroke-width="0.31" points="534.14,-99.98 542.44,-93.4 531.84,-93.37 534.14,-99.98"/>
</g>
<!-- &#45;13 -->
<g id="node13" class="node">
<title>&#45;13</title>
<polygon fill="lightgray" stroke="black" points="297.75,-172.82 269.75,-172.82 269.75,-154.32 297.75,-154.32 297.75,-172.82"/>
<text text-anchor="middle" x="283.75" y="-160.27" font-family="Times,serif" font-size="9.00">&#45;13</text>
</g>
<!-- &#45;13&#45;&gt;193 -->
<g id="edge10" class="edge">
<title>&#45;13&#45;&gt;193</title>
<path fill="none" stroke="green" stroke-width="0.37" stroke-dasharray="1,5" d="M278.47,-153.88C272.47,-144.01 262.39,-127.4 253.75,-113.19"/>
<polygon fill="green" stroke="green" stroke-width="0.37" points="256.82,-111.5 248.64,-104.77 250.84,-115.14 256.82,-111.5"/>
</g>
<!-- &#45;13&#45;&gt;194 -->
<g id="edge30" class="edge">
<title>&#45;13&#45;&gt;194</title>
<path fill="none" stroke="red" stroke-width="0.18" d="M293.39,-153.88C305.94,-142.57 328.29,-122.42 345.22,-107.16"/>
<polygon fill="red" stroke="red" stroke-width="0.18" points="347.28,-110.02 352.36,-100.72 342.59,-104.82 347.28,-110.02"/>
</g>
<!-- &#45;13&#45;&gt;195 -->
<g id="edge39" class="edge">
<title>&#45;13&#45;&gt;195</title>
<path fill="none" stroke="green" stroke-width="0.18" d="M291.53,-154.11C295.68,-150.08 301.09,-145.54 306.75,-142.71 381.81,-105.19 481.62,-92.74 531.54,-88.71"/>
<polygon fill="green" stroke="green" stroke-width="0.18" points="531.71,-92.21 541.42,-87.97 531.19,-85.23 531.71,-92.21"/>
</g>
<!-- &#45;14 -->
<g id="node14" class="node">
<title>&#45;14</title>
<polygon fill="lightgray" stroke="black" points="645.75,-172.82 617.75,-172.82 617.75,-154.32 645.75,-154.32 645.75,-172.82"/>
<text text-anchor="middle" x="631.75" y="-160.27" font-family="Times,serif" font-size="9.00">&#45;14</text>
</g>
<!-- &#45;14&#45;&gt;195 -->
<g id="edge27" class="edge">
<title>&#45;14&#45;&gt;195</title>
<path fill="none" stroke="red" stroke-width="0.37" d="M623.83,-153.88C614.01,-143.1 596.88,-124.3 583.26,-109.35"/>
<polygon fill="red" stroke="red" stroke-width="0.37" points="586.21,-107.4 576.89,-102.37 581.04,-112.11 586.21,-107.4"/>
</g>
<!-- &#45;15 -->
<g id="node15" class="node">
<title>&#45;15</title>
<polygon fill="lightgray" stroke="black" points="859.75,-172.82 831.75,-172.82 831.75,-154.32 859.75,-154.32 859.75,-172.82"/>
<text text-anchor="middle" x="845.75" y="-160.27" font-family="Times,serif" font-size="9.00">&#45;15</text>
</g>
<!-- &#45;15&#45;&gt;196 -->
<g id="edge29" class="edge">
<title>&#45;15&#45;&gt;196</title>
<path fill="none" stroke="red" stroke-width="0.22" d="M834.68,-153.86C829.68,-150.15 823.59,-145.95 817.75,-142.71 783.19,-123.56 740.72,-106.92 712.97,-96.9"/>
<polygon fill="red" stroke="red" stroke-width="0.22" points="714.37,-93.68 703.78,-93.62 712.03,-100.27 714.37,-93.68"/>
</g>
<!-- &#45;16 -->
<g id="node16" class="node">
<title>&#45;16</title>
<polygon fill="lightgray" stroke="black" points="343.75,-238.93 315.75,-238.93 315.75,-220.43 343.75,-220.43 343.75,-238.93"/>
<text text-anchor="middle" x="329.75" y="-226.38" font-family="Times,serif" font-size="9.00">&#45;16</text>
</g>
<!-- &#45;17 -->
<g id="node17" class="node">
<title>&#45;17</title>
<polygon fill="lightgray" stroke="black" points="251.75,-172.82 223.75,-172.82 223.75,-154.32 251.75,-154.32 251.75,-172.82"/>
<text text-anchor="middle" x="237.75" y="-160.27" font-family="Times,serif" font-size="9.00">&#45;17</text>
</g>
<!-- &#45;17&#45;&gt;193 -->
<g id="edge9" class="edge">
<title>&#45;17&#45;&gt;193</title>
<path fill="none" stroke="green" stroke-width="0.3" d="M237.75,-153.88C237.75,-144.93 237.75,-130.46 237.75,-117.26"/>
<polygon fill="green" stroke="green" stroke-width="0.3" points="241.25,-117.51 237.75,-107.51 234.25,-117.51 241.25,-117.51"/>
</g>
<!-- &#45;18 -->
<g id="node18" class="node">
<title>&#45;18</title>
<polygon fill="lightgray" stroke="black" points="389.75,-238.93 361.75,-238.93 361.75,-220.43 389.75,-220.43 389.75,-238.93"/>
<text text-anchor="middle" x="375.75" y="-226.38" font-family="Times,serif" font-size="9.00">&#45;18</text>
</g>
<!-- &#45;19 -->
<g id="node19" class="node">
<title>&#45;19</title>
<polygon fill="lightgray" stroke="black" points="553.75,-172.82 525.75,-172.82 525.75,-154.32 553.75,-154.32 553.75,-172.82"/>
<text text-anchor="middle" x="539.75" y="-160.27" font-family="Times,serif" font-size="9.00">&#45;19</text>
</g>
<!-- &#45;19&#45;&gt;193 -->
<g id="edge3" class="edge">
<title>&#45;19&#45;&gt;193</title>
<path fill="none" stroke="green" stroke-width="0.36" d="M531.99,-154.07C527.85,-150.03 522.44,-145.49 516.75,-142.71 515.34,-142.02 340.6,-107.28 268.41,-92.94"/>
<polygon fill="green" stroke="green" stroke-width="0.36" points="269.16,-89.52 258.67,-91 267.8,-96.39 269.16,-89.52"/>
</g>
<!-- &#45;19&#45;&gt;195 -->
<g id="edge11" class="edge">
<title>&#45;19&#45;&gt;195</title>
<path fill="none" stroke="red" stroke-width="0.13" d="M542.39,-153.88C545.22,-144.57 549.86,-129.28 554,-115.65"/>
<polygon fill="red" stroke="red" stroke-width="0.13" points="557.28,-116.9 556.84,-106.31 550.58,-114.86 557.28,-116.9"/>
</g>
<!-- &#45;19&#45;&gt;196 -->
<g id="edge4" class="edge">
<title>&#45;19&#45;&gt;196</title>
<path fill="none" stroke="green" stroke-width="0.16" d="M548.68,-153.83C552.76,-150.11 557.78,-145.91 562.75,-142.71 592.28,-123.68 629.35,-107.57 654.63,-97.62"/>
<polygon fill="green" stroke="green" stroke-width="0.16" points="655.73,-100.94 663.79,-94.07 653.2,-94.41 655.73,-100.94"/>
</g>
<!-- &#45;20 -->
<g id="node20" class="node">
<title>&#45;20</title>
<polygon fill="lightgray" stroke="black" points="691.75,-172.82 663.75,-172.82 663.75,-154.32 691.75,-154.32 691.75,-172.82"/>
<text text-anchor="middle" x="677.75" y="-160.27" font-family="Times,serif" font-size="9.00">&#45;20</text>
</g>
<!-- &#45;20&#45;&gt;195 -->
<g id="edge42" class="edge">
<title>&#45;20&#45;&gt;195</title>
<path fill="none" stroke="red" stroke-width="0.28" d="M668.64,-154.09C664.53,-150.42 659.53,-146.19 654.75,-142.71 633.81,-127.48 608.58,-112.37 589.84,-101.71"/>
<polygon fill="red" stroke="red" stroke-width="0.28" points="591.76,-98.77 581.32,-96.92 588.33,-104.87 591.76,-98.77"/>
</g>
<!-- 0 -->
<g id="node21" class="node">
<title>0</title>
<ellipse fill="lightblue" stroke="black" cx="683.75" cy="-14.5" rx="14.5" ry="14.5"/>
<text text-anchor="middle" x="683.75" y="-11.2" font-family="Times,serif" font-size="9.00">0</text>
</g>
<!-- 0&#45;&gt;0 -->
<g id="edge15" class="edge">
<title>0&#45;&gt;0</title>
<path fill="none" stroke="green" stroke-width="0.13" d="M694.07,-24.94C704.56,-31.08 716.25,-27.6 716.25,-14.5 716.25,-5.28 710.47,-0.83 703.39,-1.13"/>
<polygon fill="green" stroke="green" stroke-width="0.13" points="702.75,2.34 694.25,-4 704.84,-4.34 702.75,2.34"/>
</g>
<!-- 1 -->
<g id="node22" class="node">
<title>1</title>
<ellipse fill="lightblue" stroke="black" cx="326.75" cy="-14.5" rx="14.5" ry="14.5"/>
<text text-anchor="middle" x="326.75" y="-11.2" font-family="Times,serif" font-size="9.00">1</text>
</g>
<!-- 3 -->
<g id="node24" class="node">
<title>3</title>
<ellipse fill="lightblue" stroke="black" cx="493.75" cy="-14.5" rx="14.5" ry="14.5"/>
<text text-anchor="middle" x="493.75" y="-11.2" font-family="Times,serif" font-size="9.00">3</text>
</g>
<!-- 4 -->
<g id="node25" class="node">
<title>4</title>
<ellipse fill="lightblue" stroke="black" cx="599.75" cy="-14.5" rx="14.5" ry="14.5"/>
<text text-anchor="middle" x="599.75" y="-11.2" font-family="Times,serif" font-size="9.00">4</text>
</g>
<!-- 193&#45;&gt;1 -->
<g id="edge20" class="edge">
<title>193&#45;&gt;1</title>
<path fill="none" stroke="red" stroke-width="0.21" d="M254.07,-72.13C269.15,-60.38 291.55,-42.93 307.49,-30.5"/>
<polygon fill="red" stroke="red" stroke-width="0.21" points="309.6,-33.29 315.34,-24.39 305.3,-27.77 309.6,-33.29"/>
</g>
<!-- 193&#45;&gt;2 -->
<g id="edge13" class="edge">
<title>193&#45;&gt;2</title>
<path fill="none" stroke="red" stroke-width="0.2" stroke-dasharray="1,5" d="M237.75,-64.79C237.75,-56.89 237.75,-47.75 237.75,-39.5"/>
<polygon fill="red" stroke="red" stroke-width="0.2" points="241.25,-39.66 237.75,-29.66 234.25,-39.66 241.25,-39.66"/>
</g>
<!-- 193&#45;&gt;3 -->
<g id="edge40" class="edge">
<title>193&#45;&gt;3</title>
<path fill="none" stroke="green" stroke-width="0.31" d="M257.84,-79.41C304.4,-66.79 419.54,-35.6 469.72,-22.01"/>
<polygon fill="green" stroke="green" stroke-width="0.31" points="470.47,-25.43 479.21,-19.43 468.64,-18.67 470.47,-25.43"/>
</g>
<!-- 194&#45;&gt;1 -->
<g id="edge23" class="edge">
<title>194&#45;&gt;1</title>
<path fill="none" stroke="green" stroke-width="0.27" d="M357.4,-67.35C351.8,-57.86 344.83,-46.08 338.96,-36.14"/>
<polygon fill="green" stroke="green" stroke-width="0.27" points="342.05,-34.49 333.95,-27.67 336.02,-38.06 342.05,-34.49"/>
</g>
<!-- 194&#45;&gt;2 -->
<g id="edge2" class="edge">
<title>194&#45;&gt;2</title>
<path fill="none" stroke="red" stroke-width="0.82" stroke-dasharray="1,5" d="M349.4,-75.06C326.01,-62.58 285.57,-41.01 260.32,-27.54"/>
<polygon fill="red" stroke="red" stroke-width="0.82" points="262.09,-24.51 251.62,-22.89 258.79,-30.69 262.09,-24.51"/>
</g>
<!-- 194&#45;&gt;3 -->
<g id="edge17" class="edge">
<title>194&#45;&gt;3</title>
<path fill="none" stroke="green" stroke-width="0.24" d="M385.8,-74.91C408.63,-62.35 447.89,-40.74 472.24,-27.33"/>
<polygon fill="green" stroke="green" stroke-width="0.24" points="473.68,-30.54 480.76,-22.65 470.31,-24.4 473.68,-30.54"/>
</g>
<!-- 195&#45;&gt;3 -->
<g id="edge33" class="edge">
<title>195&#45;&gt;3</title>
<path fill="none" stroke="green" stroke-width="0.16" d="M548.45,-70.48C537.44,-59.41 522.2,-44.09 510.59,-32.43"/>
<polygon fill="green" stroke="green" stroke-width="0.16" points="513.29,-30.17 503.75,-25.55 508.32,-35.11 513.29,-30.17"/>
</g>
<!-- 195&#45;&gt;4 -->
<g id="edge41" class="edge">
<title>195&#45;&gt;4</title>
<path fill="none" stroke="green" stroke-width="0.15" stroke-dasharray="1,5" d="M572.28,-66.99C577.22,-57.72 583.3,-46.33 588.48,-36.62"/>
<polygon fill="green" stroke="green" stroke-width="0.15" points="591.56,-38.29 593.18,-27.82 585.38,-35 591.56,-38.29"/>
</g>
<!-- 196&#45;&gt;0 -->
<g id="edge28" class="edge">
<title>196&#45;&gt;0</title>
<path fill="none" stroke="red" stroke-width="0.21" d="M683.75,-64.79C683.75,-56.89 683.75,-47.75 683.75,-39.5"/>
<polygon fill="red" stroke="red" stroke-width="0.21" points="687.25,-39.68 683.75,-29.68 680.25,-39.68 687.25,-39.68"/>
</g>
<!-- 196&#45;&gt;3 -->
<g id="edge8" class="edge">
<title>196&#45;&gt;3</title>
<path fill="none" stroke="red" stroke-width="0.33" stroke-dasharray="1,5" d="M664.13,-77.69C628.77,-64.78 554.53,-37.68 516.8,-23.91"/>
<polygon fill="red" stroke="red" stroke-width="0.33" points="518.26,-20.72 507.67,-20.58 515.86,-27.29 518.26,-20.72"/>
</g>
<!-- 196&#45;&gt;4 -->
<g id="edge14" class="edge">
<title>196&#45;&gt;4</title>
<path fill="none" stroke="green" stroke-width="0.15" d="M667.95,-71.81C653.84,-60.15 633.15,-43.07 618.26,-30.78"/>
<polygon fill="green" stroke="green" stroke-width="0.15" points="620.78,-28.32 610.84,-24.66 616.33,-33.72 620.78,-28.32"/>
</g>
<!-- 238&#45;&gt;193 -->
<g id="edge44" class="edge">
<title>238&#45;&gt;193</title>
<path fill="none" stroke="red" stroke-width="0.12" stroke-dasharray="1,5" d="M80.31,-151.99C85.81,-148.84 91.96,-145.49 97.75,-142.71 135.31,-124.67 180.31,-107.46 208.96,-97.03"/>
<polygon fill="red" stroke="red" stroke-width="0.12" points="209.98,-100.38 218.2,-93.69 207.6,-93.8 209.98,-100.38"/>
</g>
</g>
</svg>
