<?xml version="1.0" encoding="UTF-8" standalone="no"?>
<!DOCTYPE svg PUBLIC "-//W3C//DTD SVG 1.1//EN"
 "http://www.w3.org/Graphics/SVG/1.1/DTD/svg11.dtd">
<!-- Generated by graphviz version 12.1.1 (20240910.0053)
 -->
<!-- Pages: 1 -->
<svg width="834pt" height="247pt"
 viewBox="0.00 0.00 833.75 246.93" xmlns="http://www.w3.org/2000/svg" xmlns:xlink="http://www.w3.org/1999/xlink">
<g id="graph0" class="graph" transform="scale(1 1) rotate(0) translate(4 242.93)">
<polygon fill="white" stroke="none" points="-4,4 -4,-242.93 829.75,-242.93 829.75,4 -4,4"/>
<!-- &#45;1 -->
<g id="node1" class="node">
<title>&#45;1</title>
<polygon fill="lightgray" stroke="black" points="283.75,-172.82 260.25,-172.82 260.25,-154.32 283.75,-154.32 283.75,-172.82"/>
<text text-anchor="middle" x="272" y="-160.27" font-family="Times,serif" font-size="9.00">&#45;1</text>
</g>
<!-- 128 -->
<g id="node26" class="node">
<title>128</title>
<ellipse fill="white" stroke="black" cx="219" cy="-85.85" rx="20.86" ry="20.86"/>
<text text-anchor="middle" x="219" y="-82.55" font-family="Times,serif" font-size="9.00">128</text>
</g>
<!-- &#45;1&#45;&gt;128 -->
<g id="edge4" class="edge">
<title>&#45;1&#45;&gt;128</title>
<path fill="none" stroke="green" stroke-width="0.18" d="M265.92,-153.88C258.74,-143.62 246.48,-126.11 236.29,-111.55"/>
<polygon fill="green" stroke="green" stroke-width="0.18" points="239.34,-109.81 230.74,-103.63 233.61,-113.83 239.34,-109.81"/>
</g>
<!-- 125 -->
<g id="node28" class="node">
<title>125</title>
<ellipse fill="white" stroke="black" cx="321" cy="-85.85" rx="20.86" ry="20.86"/>
<text text-anchor="middle" x="321" y="-82.55" font-family="Times,serif" font-size="9.00">125</text>
</g>
<!-- &#45;1&#45;&gt;125 -->
<g id="edge30" class="edge">
<title>&#45;1&#45;&gt;125</title>
<path fill="none" stroke="red" stroke-width="0.22" d="M277.62,-153.88C284.12,-143.85 295.1,-126.87 304.39,-112.51"/>
<polygon fill="red" stroke="red" stroke-width="0.22" points="307.23,-114.58 309.72,-104.28 301.35,-110.78 307.23,-114.58"/>
</g>
<!-- 127 -->
<g id="node30" class="node">
<title>127</title>
<ellipse fill="white" stroke="black" cx="510" cy="-85.85" rx="20.86" ry="20.86"/>
<text text-anchor="middle" x="510" y="-82.55" font-family="Times,serif" font-size="9.00">127</text>
</g>
<!-- &#45;1&#45;&gt;127 -->
<g id="edge35" class="edge">
<title>&#45;1&#45;&gt;127</title>
<path fill="none" stroke="red" stroke-width="0.14" d="M278.95,-154.04C282.69,-149.99 287.64,-145.46 293,-142.71 368.31,-104.09 401.64,-138.69 480,-106.71 481.59,-106.06 483.19,-105.32 484.77,-104.52"/>
<polygon fill="red" stroke="red" stroke-width="0.14" points="486.46,-107.59 493.34,-99.53 482.94,-101.54 486.46,-107.59"/>
</g>
<!-- &#45;2 -->
<g id="node2" class="node">
<title>&#45;2</title>
<polygon fill="lightgray" stroke="black" points="565.75,-172.82 542.25,-172.82 542.25,-154.32 565.75,-154.32 565.75,-172.82"/>
<text text-anchor="middle" x="554" y="-160.27" font-family="Times,serif" font-size="9.00">&#45;2</text>
</g>
<!-- 126 -->
<g id="node29" class="node">
<title>126</title>
<ellipse fill="white" stroke="black" cx="450" cy="-85.85" rx="20.86" ry="20.86"/>
<text text-anchor="middle" x="450" y="-82.55" font-family="Times,serif" font-size="9.00">126</text>
</g>
<!-- &#45;2&#45;&gt;126 -->
<g id="edge37" class="edge">
<title>&#45;2&#45;&gt;126</title>
<path fill="none" stroke="red" stroke-width="0.28" d="M545.71,-154.12C541.96,-150.46 537.39,-146.22 533,-142.71 527.7,-138.47 497.95,-118.6 475.57,-103.75"/>
<polygon fill="red" stroke="red" stroke-width="0.28" points="477.74,-100.99 467.47,-98.39 473.88,-106.83 477.74,-100.99"/>
</g>
<!-- &#45;3 -->
<g id="node3" class="node">
<title>&#45;3</title>
<polygon fill="lightgray" stroke="black" points="556.75,-238.93 533.25,-238.93 533.25,-220.43 556.75,-220.43 556.75,-238.93"/>
<text text-anchor="middle" x="545" y="-226.38" font-family="Times,serif" font-size="9.00">&#45;3</text>
</g>
<!-- &#45;4 -->
<g id="node4" class="node">
<title>&#45;4</title>
<polygon fill="lightgray" stroke="black" points="371.75,-172.82 348.25,-172.82 348.25,-154.32 371.75,-154.32 371.75,-172.82"/>
<text text-anchor="middle" x="360" y="-160.27" font-family="Times,serif" font-size="9.00">&#45;4</text>
</g>
<!-- &#45;4&#45;&gt;125 -->
<g id="edge1" class="edge">
<title>&#45;4&#45;&gt;125</title>
<path fill="none" stroke="red" stroke-width="0.43" d="M355.53,-153.88C350.55,-144.23 342.27,-128.14 335.06,-114.15"/>
<polygon fill="red" stroke="red" stroke-width="0.43" points="338.29,-112.77 330.6,-105.49 332.07,-115.98 338.29,-112.77"/>
</g>
<!-- &#45;5 -->
<g id="node5" class="node">
<title>&#45;5</title>
<polygon fill="lightgray" stroke="black" points="195.75,-172.82 172.25,-172.82 172.25,-154.32 195.75,-154.32 195.75,-172.82"/>
<text text-anchor="middle" x="184" y="-160.27" font-family="Times,serif" font-size="9.00">&#45;5</text>
</g>
<!-- &#45;5&#45;&gt;128 -->
<g id="edge19" class="edge">
<title>&#45;5&#45;&gt;128</title>
<path fill="none" stroke="red" stroke-width="0.15" stroke-dasharray="1,5" d="M188.01,-153.88C192.45,-144.29 199.82,-128.35 206.26,-114.42"/>
<polygon fill="red" stroke="red" stroke-width="0.15" points="209.4,-115.96 210.42,-105.41 203.05,-113.02 209.4,-115.96"/>
</g>
<!-- &#45;5&#45;&gt;126 -->
<g id="edge33" class="edge">
<title>&#45;5&#45;&gt;126</title>
<path fill="none" stroke="green" stroke-width="0.31" d="M190.99,-154.11C194.74,-150.09 199.69,-145.55 205,-142.71 223.87,-132.62 357.75,-105.18 419.25,-92.92"/>
<polygon fill="green" stroke="green" stroke-width="0.31" points="419.92,-96.35 429.05,-90.97 418.56,-89.49 419.92,-96.35"/>
</g>
<!-- &#45;6 -->
<g id="node6" class="node">
<title>&#45;6</title>
<polygon fill="lightgray" stroke="black" points="514.75,-238.93 491.25,-238.93 491.25,-220.43 514.75,-220.43 514.75,-238.93"/>
<text text-anchor="middle" x="503" y="-226.38" font-family="Times,serif" font-size="9.00">&#45;6</text>
</g>
<!-- &#45;6&#45;&gt;128 -->
<g id="edge17" class="edge">
<title>&#45;6&#45;&gt;128</title>
<path fill="none" stroke="green" stroke-width="0.28" d="M491.11,-228.38C424.92,-226.58 103.71,-216.26 75,-184.43 62.58,-170.66 64.52,-158.01 75,-142.71 100.26,-105.82 153.71,-93.29 187.91,-89.03"/>
<polygon fill="green" stroke="green" stroke-width="0.28" points="187.86,-92.56 197.43,-88.01 187.11,-85.6 187.86,-92.56"/>
</g>
<!-- 256 -->
<g id="node27" class="node">
<title>256</title>
<ellipse fill="white" stroke="black" cx="503" cy="-163.57" rx="20.86" ry="20.86"/>
<text text-anchor="middle" x="503" y="-160.27" font-family="Times,serif" font-size="9.00">256</text>
</g>
<!-- &#45;6&#45;&gt;256 -->
<g id="edge43" class="edge">
<title>&#45;6&#45;&gt;256</title>
<path fill="none" stroke="green" stroke-width="0.22" stroke-dasharray="1,5" d="M503,-220.03C503,-213.53 503,-204.19 503,-195.03"/>
<polygon fill="green" stroke="green" stroke-width="0.22" points="506.5,-195.25 503,-185.25 499.5,-195.25 506.5,-195.25"/>
</g>
<!-- &#45;6&#45;&gt;126 -->
<g id="edge16" class="edge">
<title>&#45;6&#45;&gt;126</title>
<path fill="none" stroke="red" stroke-width="0.16" d="M514.99,-223.96C517.93,-222.8 521.08,-221.57 524,-220.43 565.29,-204.33 591.95,-220.99 617,-184.43 627.48,-169.13 628.32,-157.39 617,-142.71 578.55,-92.86 537.46,-132.43 480,-106.71 478.43,-106.01 476.86,-105.23 475.29,-104.4"/>
<polygon fill="red" stroke="red" stroke-width="0.16" points="477.17,-101.44 466.79,-99.34 473.59,-107.46 477.17,-101.44"/>
</g>
<!-- &#45;7 -->
<g id="node7" class="node">
<title>&#45;7</title>
<polygon fill="lightgray" stroke="black" points="107.75,-172.82 84.25,-172.82 84.25,-154.32 107.75,-154.32 107.75,-172.82"/>
<text text-anchor="middle" x="96" y="-160.27" font-family="Times,serif" font-size="9.00">&#45;7</text>
</g>
<!-- &#45;7&#45;&gt;128 -->
<g id="edge5" class="edge">
<title>&#45;7&#45;&gt;128</title>
<path fill="none" stroke="green" stroke-width="0.53" stroke-dasharray="1,5" d="M104.15,-153.93C107.87,-150.23 112.46,-146.02 117,-142.71 140.29,-125.76 169.29,-110.35 190.41,-100.04"/>
<polygon fill="green" stroke="green" stroke-width="0.53" points="191.87,-103.22 199.37,-95.74 188.84,-96.91 191.87,-103.22"/>
</g>
<!-- &#45;8 -->
<g id="node8" class="node">
<title>&#45;8</title>
<polygon fill="lightgray" stroke="black" points="825.75,-172.82 802.25,-172.82 802.25,-154.32 825.75,-154.32 825.75,-172.82"/>
<text text-anchor="middle" x="814" y="-160.27" font-family="Times,serif" font-size="9.00">&#45;8</text>
</g>
<!-- &#45;8&#45;&gt;127 -->
<g id="edge39" class="edge">
<title>&#45;8&#45;&gt;127</title>
<path fill="none" stroke="red" stroke-width="0.27" d="M807.05,-154.05C803.3,-150.01 798.35,-145.47 793,-142.71 709.3,-99.54 595.87,-89.65 541.54,-87.44"/>
<polygon fill="red" stroke="red" stroke-width="0.27" points="541.71,-83.95 531.6,-87.1 541.47,-90.94 541.71,-83.95"/>
</g>
<!-- &#45;9 -->
<g id="node9" class="node">
<title>&#45;9</title>
<polygon fill="lightgray" stroke="black" points="607.75,-172.82 584.25,-172.82 584.25,-154.32 607.75,-154.32 607.75,-172.82"/>
<text text-anchor="middle" x="596" y="-160.27" font-family="Times,serif" font-size="9.00">&#45;9</text>
</g>
<!-- &#45;9&#45;&gt;126 -->
<g id="edge11" class="edge">
<title>&#45;9&#45;&gt;126</title>
<path fill="none" stroke="red" stroke-width="0.55" d="M588.45,-154.02C584.71,-150.17 579.93,-145.8 575,-142.71 536.74,-118.73 520.18,-127.3 480,-106.71 478.61,-106 477.21,-105.24 475.8,-104.44"/>
<polygon fill="red" stroke="red" stroke-width="0.55" points="477.8,-101.56 467.45,-99.31 474.14,-107.53 477.8,-101.56"/>
</g>
<!-- &#45;10 -->
<g id="node10" class="node">
<title>&#45;10</title>
<polygon fill="lightgray" stroke="black" points="738,-172.82 710,-172.82 710,-154.32 738,-154.32 738,-172.82"/>
<text text-anchor="middle" x="724" y="-160.27" font-family="Times,serif" font-size="9.00">&#45;10</text>
</g>
<!-- &#45;10&#45;&gt;127 -->
<g id="edge34" class="edge">
<title>&#45;10&#45;&gt;127</title>
<path fill="none" stroke="green" stroke-width="0.16" d="M715.71,-153.87C711.6,-149.99 706.38,-145.64 701,-142.71 648.6,-114.19 580,-98.73 540.88,-91.69"/>
<polygon fill="green" stroke="green" stroke-width="0.16" points="541.6,-88.26 531.15,-90 540.4,-95.16 541.6,-88.26"/>
</g>
<!-- &#45;11 -->
<g id="node11" class="node">
<title>&#45;11</title>
<polygon fill="lightgray" stroke="black" points="603,-238.93 575,-238.93 575,-220.43 603,-220.43 603,-238.93"/>
<text text-anchor="middle" x="589" y="-226.38" font-family="Times,serif" font-size="9.00">&#45;11</text>
</g>
<!-- &#45;12 -->
<g id="node12" class="node">
<title>&#45;12</title>
<polygon fill="lightgray" stroke="black" points="464,-172.82 436,-172.82 436,-154.32 464,-154.32 464,-172.82"/>
<text text-anchor="middle" x="450" y="-160.27" font-family="Times,serif" font-size="9.00">&#45;12</text>
</g>
<!-- &#45;12&#45;&gt;125 -->
<g id="edge25" class="edge">
<title>&#45;12&#45;&gt;125</title>
<path fill="none" stroke="red" stroke-width="0.14" d="M440.99,-153.95C436.89,-150.26 431.88,-146.04 427,-142.71 402,-125.66 371.19,-109.95 349.24,-99.56"/>
<polygon fill="red" stroke="red" stroke-width="0.14" points="350.85,-96.45 340.31,-95.4 347.9,-102.8 350.85,-96.45"/>
</g>
<!-- &#45;12&#45;&gt;126 -->
<g id="edge6" class="edge">
<title>&#45;12&#45;&gt;126</title>
<path fill="none" stroke="green" stroke-width="0.14" stroke-dasharray="1,5" d="M450,-153.88C450,-144.93 450,-130.46 450,-117.26"/>
<polygon fill="green" stroke="green" stroke-width="0.14" points="453.5,-117.27 450,-107.27 446.5,-117.27 453.5,-117.27"/>
</g>
<!-- &#45;12&#45;&gt;127 -->
<g id="edge21" class="edge">
<title>&#45;12&#45;&gt;127</title>
<path fill="none" stroke="green" stroke-width="0.12" d="M456.88,-153.88C465.19,-143.4 479.51,-125.33 491.19,-110.59"/>
<polygon fill="green" stroke="green" stroke-width="0.12" points="493.77,-112.97 497.24,-102.96 488.28,-108.62 493.77,-112.97"/>
</g>
<!-- &#45;13 -->
<g id="node13" class="node">
<title>&#45;13</title>
<polygon fill="lightgray" stroke="black" points="649,-238.93 621,-238.93 621,-220.43 649,-220.43 649,-238.93"/>
<text text-anchor="middle" x="635" y="-226.38" font-family="Times,serif" font-size="9.00">&#45;13</text>
</g>
<!-- &#45;14 -->
<g id="node14" class="node">
<title>&#45;14</title>
<polygon fill="lightgray" stroke="black" points="692,-172.82 664,-172.82 664,-154.32 692,-154.32 692,-172.82"/>
<text text-anchor="middle" x="678" y="-160.27" font-family="Times,serif" font-size="9.00">&#45;14</text>
</g>
<!-- &#45;14&#45;&gt;126 -->
<g id="edge15" class="edge">
<title>&#45;14&#45;&gt;126</title>
<path fill="none" stroke="green" stroke-width="0.35" stroke-dasharray="1,5" d="M667.98,-153.94C662.89,-149.97 656.44,-145.53 650,-142.71 579.26,-111.73 551.23,-136.55 480,-106.71 478.42,-106.05 476.83,-105.3 475.25,-104.49"/>
<polygon fill="green" stroke="green" stroke-width="0.35" points="477.36,-101.67 466.96,-99.63 473.82,-107.71 477.36,-101.67"/>
</g>
<!-- &#45;14&#45;&gt;127 -->
<g id="edge3" class="edge">
<title>&#45;14&#45;&gt;127</title>
<path fill="none" stroke="red" stroke-width="0.22" stroke-dasharray="1,5" d="M667.22,-154.01C662.17,-150.25 655.97,-145.96 650,-142.71 613.4,-122.8 568.17,-106.05 539.2,-96.23"/>
<polygon fill="red" stroke="red" stroke-width="0.22" points="540.58,-93 529.99,-93.15 538.37,-99.64 540.58,-93"/>
</g>
<!-- &#45;15 -->
<g id="node15" class="node">
<title>&#45;15</title>
<polygon fill="lightgray" stroke="black" points="330,-172.82 302,-172.82 302,-154.32 330,-154.32 330,-172.82"/>
<text text-anchor="middle" x="316" y="-160.27" font-family="Times,serif" font-size="9.00">&#45;15</text>
</g>
<!-- &#45;15&#45;&gt;125 -->
<g id="edge32" class="edge">
<title>&#45;15&#45;&gt;125</title>
<path fill="none" stroke="red" stroke-width="0.24" stroke-dasharray="1,5" d="M316.57,-153.88C317.16,-144.93 318.12,-130.46 318.99,-117.26"/>
<polygon fill="red" stroke="red" stroke-width="0.24" points="322.48,-117.63 319.64,-107.42 315.49,-117.17 322.48,-117.63"/>
</g>
<!-- &#45;16 -->
<g id="node16" class="node">
<title>&#45;16</title>
<polygon fill="lightgray" stroke="black" points="154,-172.82 126,-172.82 126,-154.32 154,-154.32 154,-172.82"/>
<text text-anchor="middle" x="140" y="-160.27" font-family="Times,serif" font-size="9.00">&#45;16</text>
</g>
<!-- &#45;16&#45;&gt;128 -->
<g id="edge23" class="edge">
<title>&#45;16&#45;&gt;128</title>
<path fill="none" stroke="red" stroke-width="0.44" d="M149.06,-153.88C160.63,-142.8 181.02,-123.25 196.81,-108.12"/>
<polygon fill="red" stroke="red" stroke-width="0.44" points="198.86,-111.01 203.65,-101.56 194.01,-105.95 198.86,-111.01"/>
</g>
<!-- &#45;16&#45;&gt;125 -->
<g id="edge12" class="edge">
<title>&#45;16&#45;&gt;125</title>
<path fill="none" stroke="red" stroke-width="0.36" d="M148.36,-154.01C152.49,-150.15 157.71,-145.78 163,-142.71 185.18,-129.83 251.77,-108.19 291.06,-95.97"/>
<polygon fill="red" stroke="red" stroke-width="0.36" points="292.09,-99.32 300.61,-93.02 290.03,-92.63 292.09,-99.32"/>
</g>
<!-- &#45;17 -->
<g id="node17" class="node">
<title>&#45;17</title>
<polygon fill="lightgray" stroke="black" points="418,-172.82 390,-172.82 390,-154.32 418,-154.32 418,-172.82"/>
<text text-anchor="middle" x="404" y="-160.27" font-family="Times,serif" font-size="9.00">&#45;17</text>
</g>
<!-- &#45;17&#45;&gt;128 -->
<g id="edge14" class="edge">
<title>&#45;17&#45;&gt;128</title>
<path fill="none" stroke="red" stroke-width="0.23" d="M395.65,-153.99C391.52,-150.13 386.3,-145.76 381,-142.71 358.11,-129.54 289.05,-107.77 248.87,-95.66"/>
<polygon fill="red" stroke="red" stroke-width="0.23" points="250,-92.35 239.42,-92.83 247.99,-99.05 250,-92.35"/>
</g>
<!-- &#45;17&#45;&gt;126 -->
<g id="edge20" class="edge">
<title>&#45;17&#45;&gt;126</title>
<path fill="none" stroke="green" stroke-width="0.25" stroke-dasharray="1,5" d="M409.28,-153.88C415.34,-143.91 425.56,-127.09 434.24,-112.79"/>
<polygon fill="green" stroke="green" stroke-width="0.25" points="437,-114.98 439.21,-104.62 431.02,-111.35 437,-114.98"/>
</g>
<!-- &#45;17&#45;&gt;127 -->
<g id="edge26" class="edge">
<title>&#45;17&#45;&gt;127</title>
<path fill="none" stroke="green" stroke-width="0.46" stroke-dasharray="1,5" d="M413.19,-154.19C417.32,-150.55 422.3,-146.3 427,-142.71 432.37,-138.61 461.86,-118.87 484.18,-104"/>
<polygon fill="green" stroke="green" stroke-width="0.46" points="485.95,-107.03 492.33,-98.58 482.07,-101.2 485.95,-107.03"/>
</g>
<!-- &#45;18 -->
<g id="node18" class="node">
<title>&#45;18</title>
<polygon fill="lightgray" stroke="black" points="28,-172.82 0,-172.82 0,-154.32 28,-154.32 28,-172.82"/>
<text text-anchor="middle" x="14" y="-160.27" font-family="Times,serif" font-size="9.00">&#45;18</text>
</g>
<!-- &#45;18&#45;&gt;128 -->
<g id="edge27" class="edge">
<title>&#45;18&#45;&gt;128</title>
<path fill="none" stroke="red" stroke-width="0.37" stroke-dasharray="1,5" d="M24.41,-154.01C29.48,-150.15 35.81,-145.79 42,-142.71 90.85,-118.43 152.49,-101.83 188.65,-93.38"/>
<polygon fill="red" stroke="red" stroke-width="0.37" points="189.06,-96.87 198.03,-91.24 187.5,-90.05 189.06,-96.87"/>
</g>
<!-- &#45;19 -->
<g id="node19" class="node">
<title>&#45;19</title>
<polygon fill="lightgray" stroke="black" points="784,-172.82 756,-172.82 756,-154.32 784,-154.32 784,-172.82"/>
<text text-anchor="middle" x="770" y="-160.27" font-family="Times,serif" font-size="9.00">&#45;19</text>
</g>
<!-- &#45;19&#45;&gt;127 -->
<g id="edge38" class="edge">
<title>&#45;19&#45;&gt;127</title>
<path fill="none" stroke="red" stroke-width="0.31" d="M762.2,-154.15C758.05,-150.13 752.64,-145.59 747,-142.71 678.71,-107.86 588.22,-94.35 541.27,-89.44"/>
<polygon fill="red" stroke="red" stroke-width="0.31" points="541.88,-85.98 531.59,-88.49 541.2,-92.95 541.88,-85.98"/>
</g>
<!-- &#45;20 -->
<g id="node20" class="node">
<title>&#45;20</title>
<polygon fill="lightgray" stroke="black" points="242,-172.82 214,-172.82 214,-154.32 242,-154.32 242,-172.82"/>
<text text-anchor="middle" x="228" y="-160.27" font-family="Times,serif" font-size="9.00">&#45;20</text>
</g>
<!-- &#45;20&#45;&gt;128 -->
<g id="edge41" class="edge">
<title>&#45;20&#45;&gt;128</title>
<path fill="none" stroke="red" stroke-width="0.45" d="M226.97,-153.88C225.91,-145.02 224.22,-130.75 222.66,-117.65"/>
<polygon fill="red" stroke="red" stroke-width="0.45" points="226.14,-117.26 221.48,-107.74 219.19,-118.09 226.14,-117.26"/>
</g>
<!-- &#45;20&#45;&gt;126 -->
<g id="edge13" class="edge">
<title>&#45;20&#45;&gt;126</title>
<path fill="none" stroke="green" stroke-width="0.35" d="M236.28,-153.85C240.38,-149.96 245.61,-145.61 251,-142.71 280.24,-127 371.15,-104.82 419.32,-93.73"/>
<polygon fill="green" stroke="green" stroke-width="0.35" points="419.99,-97.17 428.96,-91.53 418.43,-90.35 419.99,-97.17"/>
</g>
<!-- 0 -->
<g id="node21" class="node">
<title>0</title>
<ellipse fill="lightblue" stroke="black" cx="450" cy="-14.5" rx="14.5" ry="14.5"/>
<text text-anchor="middle" x="450" y="-11.2" font-family="Times,serif" font-size="9.00">0</text>
</g>
<!-- 0&#45;&gt;0 -->
<g id="edge36" class="edge">
<title>0&#45;&gt;0</title>
<path fill="none" stroke="red" stroke-width="0.19" d="M460.32,-24.94C470.81,-31.08 482.5,-27.6 482.5,-14.5 482.5,-5.49 476.97,-1.03 470.11,-1.12"/>
<polygon fill="red" stroke="red" stroke-width="0.19" points="469.16,2.25 460.58,-3.98 471.17,-4.45 469.16,2.25"/>
</g>
<!-- 1 -->
<g id="node22" class="node">
<title>1</title>
<ellipse fill="lightblue" stroke="black" cx="383" cy="-14.5" rx="14.5" ry="14.5"/>
<text text-anchor="middle" x="383" y="-11.2" font-family="Times,serif" font-size="9.00">1</text>
</g>
<!-- 2 -->
<g id="node23" class="node">
<title>2</title>
<ellipse fill="lightblue" stroke="black" cx="266" cy="-14.5" rx="14.5" ry="14.5"/>
<text text-anchor="middle" x="266" y="-11.2" font-family="Times,serif" font-size="9.00">2</text>
</g>
<!-- 2&#45;&gt;2 -->
<g id="edge2" class="edge">
<title>2&#45;&gt;2</title>
<path fill="none" stroke="green" stroke-width="0.46" stroke-dasharray="1,5" d="M276.32,-24.94C286.81,-31.08 298.5,-27.6 298.5,-14.5 298.5,-5.69 293.22,-1.23 286.58,-1.12"/>
<polygon fill="green" stroke="green" stroke-width="0.46" points="285.63,2.25 276.98,-3.87 287.55,-4.48 285.63,2.25"/>
</g>
<!-- 3 -->
<g id="node24" class="node">
<title>3</title>
<ellipse fill="lightblue" stroke="black" cx="331" cy="-14.5" rx="14.5" ry="14.5"/>
<text text-anchor="middle" x="331" y="-11.2" font-family="Times,serif" font-size="9.00">3</text>
</g>
<!-- 4 -->
<g id="node25" class="node">
<title>4</title>
<ellipse fill="lightblue" stroke="black" cx="219" cy="-14.5" rx="14.5" ry="14.5"/>
<text text-anchor="middle" x="219" y="-11.2" font-family="Times,serif" font-size="9.00">4</text>
</g>
<!-- 128&#45;&gt;2 -->
<g id="edge7" class="edge">
<title>128&#45;&gt;2</title>
<path fill="none" stroke="red" stroke-width="0.1" d="M230.38,-68.06C237.02,-58.26 245.44,-45.84 252.42,-35.53"/>
<polygon fill="red" stroke="red" stroke-width="0.1" points="255.31,-37.51 258.02,-27.26 249.52,-33.58 255.31,-37.51"/>
</g>
<!-- 128&#45;&gt;3 -->
<g id="edge18" class="edge">
<title>128&#45;&gt;3</title>
<path fill="none" stroke="green" stroke-width="0.57" stroke-dasharray="1,5" d="M236.5,-74.01C256.26,-61.78 288.41,-41.87 309.63,-28.73"/>
<polygon fill="green" stroke="green" stroke-width="0.57" points="311.41,-31.74 318.07,-23.5 307.72,-25.79 311.41,-31.74"/>
</g>
<!-- 128&#45;&gt;4 -->
<g id="edge28" class="edge">
<title>128&#45;&gt;4</title>
<path fill="none" stroke="green" stroke-width="0.34" d="M219,-64.79C219,-56.98 219,-47.96 219,-39.78"/>
<polygon fill="green" stroke="green" stroke-width="0.34" points="222.5,-39.86 219,-29.86 215.5,-39.86 222.5,-39.86"/>
</g>
<!-- 256&#45;&gt;126 -->
<g id="edge44" class="edge">
<title>256&#45;&gt;126</title>
<path fill="none" stroke="red" stroke-width="0.27" d="M491.24,-145.77C484.31,-135.86 475.41,-123.15 467.65,-112.06"/>
<polygon fill="red" stroke="red" stroke-width="0.27" points="470.56,-110.13 461.96,-103.94 464.83,-114.14 470.56,-110.13"/>
</g>
<!-- 125&#45;&gt;0 -->
<g id="edge42" class="edge">
<title>125&#45;&gt;0</title>
<path fill="none" stroke="green" stroke-width="0.41" d="M339.21,-75.06C362.63,-62.47 403.26,-40.62 428.27,-27.18"/>
<polygon fill="green" stroke="green" stroke-width="0.41" points="429.64,-30.42 436.79,-22.6 426.32,-24.25 429.64,-30.42"/>
</g>
<!-- 125&#45;&gt;1 -->
<g id="edge29" class="edge">
<title>125&#45;&gt;1</title>
<path fill="none" stroke="red" stroke-width="0.27" stroke-dasharray="1,5" d="M334.45,-69.8C343.97,-59.16 356.77,-44.84 366.84,-33.57"/>
<polygon fill="red" stroke="red" stroke-width="0.27" points="369.28,-36.1 373.33,-26.31 364.06,-31.44 369.28,-36.1"/>
</g>
<!-- 125&#45;&gt;2 -->
<g id="edge9" class="edge">
<title>125&#45;&gt;2</title>
<path fill="none" stroke="green" stroke-width="0.14" d="M308.24,-68.77C300.13,-58.53 289.59,-45.24 281.06,-34.49"/>
<polygon fill="green" stroke="green" stroke-width="0.14" points="283.83,-32.35 274.88,-26.69 278.35,-36.7 283.83,-32.35"/>
</g>
<!-- 125&#45;&gt;3 -->
<g id="edge8" class="edge">
<title>125&#45;&gt;3</title>
<path fill="none" stroke="red" stroke-width="0.48" stroke-dasharray="1,5" d="M323.89,-64.79C325.02,-56.98 326.32,-47.96 327.5,-39.78"/>
<polygon fill="red" stroke="red" stroke-width="0.48" points="330.93,-40.48 328.9,-30.08 324.01,-39.48 330.93,-40.48"/>
</g>
<!-- 125&#45;&gt;4 -->
<g id="edge24" class="edge">
<title>125&#45;&gt;4</title>
<path fill="none" stroke="green" stroke-width="0.25" d="M304.16,-73.4C286.36,-61.3 258.29,-42.21 239.29,-29.29"/>
<polygon fill="green" stroke="green" stroke-width="0.25" points="241.32,-26.44 231.09,-23.71 237.39,-32.23 241.32,-26.44"/>
</g>
<!-- 126&#45;&gt;0 -->
<g id="edge40" class="edge">
<title>126&#45;&gt;0</title>
<path fill="none" stroke="red" stroke-width="0.27" stroke-dasharray="1,5" d="M450,-64.79C450,-56.89 450,-47.75 450,-39.5"/>
<polygon fill="red" stroke="red" stroke-width="0.27" points="453.5,-39.77 450,-29.77 446.5,-39.77 453.5,-39.77"/>
</g>
<!-- 127&#45;&gt;0 -->
<g id="edge10" class="edge">
<title>127&#45;&gt;0</title>
<path fill="none" stroke="green" stroke-width="0.23" stroke-dasharray="1,5" d="M496.68,-69.46C487.46,-58.8 475.15,-44.57 465.49,-33.4"/>
<polygon fill="green" stroke="green" stroke-width="0.23" points="468.42,-31.43 459.23,-26.16 463.12,-36.01 468.42,-31.43"/>
</g>
<!-- 127&#45;&gt;1 -->
<g id="edge22" class="edge">
<title>127&#45;&gt;1</title>
<path fill="none" stroke="green" stroke-width="0.54" d="M493.08,-73.17C488.86,-70.39 484.32,-67.51 480,-64.99 455.22,-50.53 425.74,-35.83 405.84,-26.24"/>
<polygon fill="green" stroke="green" stroke-width="0.54" points="407.39,-23.11 396.86,-21.96 404.37,-29.42 407.39,-23.11"/>
</g>
<!-- 127&#45;&gt;3 -->
<g id="edge31" class="edge">
<title>127&#45;&gt;3</title>
<path fill="none" stroke="green" stroke-width="0.26" d="M493.37,-72.6C489.15,-69.85 484.52,-67.11 480,-64.99 429.58,-41.37 412.04,-48.79 360,-28.99 357.72,-28.13 355.37,-27.16 353.05,-26.15"/>
<polygon fill="green" stroke="green" stroke-width="0.26" points="354.73,-23.07 344.18,-22.11 351.82,-29.44 354.73,-23.07"/>
</g>
</g>
</svg>
