<?xml version="1.0" encoding="UTF-8" standalone="no"?>
<!DOCTYPE svg PUBLIC "-//W3C//DTD SVG 1.1//EN"
 "http://www.w3.org/Graphics/SVG/1.1/DTD/svg11.dtd">
<!-- Generated by graphviz version 12.1.1 (20240910.0053)
 -->
<!-- Pages: 1 -->
<svg width="874pt" height="169pt"
 viewBox="0.00 0.00 874.00 169.21" xmlns="http://www.w3.org/2000/svg" xmlns:xlink="http://www.w3.org/1999/xlink">
<g id="graph0" class="graph" transform="scale(1 1) rotate(0) translate(4 165.21)">
<polygon fill="white" stroke="none" points="-4,4 -4,-165.21 870,-165.21 870,4 -4,4"/>
<!-- &#45;1 -->
<g id="node1" class="node">
<title>&#45;1</title>
<polygon fill="lightgray" stroke="black" points="601.75,-161.21 578.25,-161.21 578.25,-142.71 601.75,-142.71 601.75,-161.21"/>
<text text-anchor="middle" x="590" y="-148.66" font-family="Times,serif" font-size="9.00">&#45;1</text>
</g>
<!-- 147 -->
<g id="node28" class="node">
<title>147</title>
<ellipse fill="white" stroke="black" cx="348" cy="-85.85" rx="20.86" ry="20.86"/>
<text text-anchor="middle" x="348" y="-82.55" font-family="Times,serif" font-size="9.00">147</text>
</g>
<!-- &#45;1&#45;&gt;147 -->
<g id="edge25" class="edge">
<title>&#45;1&#45;&gt;147</title>
<path fill="none" stroke="green" stroke-width="0.19" d="M578.12,-145.92C575.17,-144.77 572,-143.62 569,-142.71 497.6,-121 476.81,-127.02 405,-106.71 395.84,-104.12 386.01,-100.87 377.13,-97.75"/>
<polygon fill="green" stroke="green" stroke-width="0.19" points="378.47,-94.51 367.87,-94.43 376.1,-101.1 378.47,-94.51"/>
</g>
<!-- 148 -->
<g id="node29" class="node">
<title>148</title>
<ellipse fill="white" stroke="black" cx="435" cy="-85.85" rx="20.86" ry="20.86"/>
<text text-anchor="middle" x="435" y="-82.55" font-family="Times,serif" font-size="9.00">148</text>
</g>
<!-- &#45;1&#45;&gt;148 -->
<g id="edge6" class="edge">
<title>&#45;1&#45;&gt;148</title>
<path fill="none" stroke="green" stroke-width="0.24" d="M577.84,-145.93C553.41,-135.83 497.83,-112.84 463.65,-98.7"/>
<polygon fill="green" stroke="green" stroke-width="0.24" points="465.12,-95.52 454.54,-94.93 462.44,-101.99 465.12,-95.52"/>
</g>
<!-- &#45;2 -->
<g id="node2" class="node">
<title>&#45;2</title>
<polygon fill="lightgray" stroke="black" points="287.75,-161.21 264.25,-161.21 264.25,-142.71 287.75,-142.71 287.75,-161.21"/>
<text text-anchor="middle" x="276" y="-148.66" font-family="Times,serif" font-size="9.00">&#45;2</text>
</g>
<!-- 146 -->
<g id="node27" class="node">
<title>146</title>
<ellipse fill="white" stroke="black" cx="279" cy="-85.85" rx="20.86" ry="20.86"/>
<text text-anchor="middle" x="279" y="-82.55" font-family="Times,serif" font-size="9.00">146</text>
</g>
<!-- &#45;2&#45;&gt;146 -->
<g id="edge23" class="edge">
<title>&#45;2&#45;&gt;146</title>
<path fill="none" stroke="green" stroke-width="0.34" d="M276.4,-142.31C276.71,-135.83 277.14,-126.53 277.57,-117.4"/>
<polygon fill="green" stroke="green" stroke-width="0.34" points="281.06,-117.6 278.04,-107.45 274.07,-117.28 281.06,-117.6"/>
</g>
<!-- &#45;2&#45;&gt;147 -->
<g id="edge30" class="edge">
<title>&#45;2&#45;&gt;147</title>
<path fill="none" stroke="green" stroke-width="0.17" d="M285.71,-142.31C295.79,-133.34 311.9,-118.99 325.22,-107.14"/>
<polygon fill="green" stroke="green" stroke-width="0.17" points="327.34,-109.93 332.48,-100.67 322.68,-104.71 327.34,-109.93"/>
</g>
<!-- &#45;3 -->
<g id="node3" class="node">
<title>&#45;3</title>
<polygon fill="lightgray" stroke="black" points="157.75,-161.21 134.25,-161.21 134.25,-142.71 157.75,-142.71 157.75,-161.21"/>
<text text-anchor="middle" x="146" y="-148.66" font-family="Times,serif" font-size="9.00">&#45;3</text>
</g>
<!-- 145 -->
<g id="node26" class="node">
<title>145</title>
<ellipse fill="white" stroke="black" cx="201" cy="-85.85" rx="20.86" ry="20.86"/>
<text text-anchor="middle" x="201" y="-82.55" font-family="Times,serif" font-size="9.00">145</text>
</g>
<!-- &#45;3&#45;&gt;145 -->
<g id="edge22" class="edge">
<title>&#45;3&#45;&gt;145</title>
<path fill="none" stroke="green" stroke-width="0.37" d="M153.42,-142.31C160.5,-134.06 171.48,-121.26 181.11,-110.04"/>
<polygon fill="green" stroke="green" stroke-width="0.37" points="183.58,-112.53 187.44,-102.66 178.27,-107.97 183.58,-112.53"/>
</g>
<!-- &#45;3&#45;&gt;146 -->
<g id="edge37" class="edge">
<title>&#45;3&#45;&gt;146</title>
<path fill="none" stroke="red" stroke-width="0.25" d="M157.91,-146.16C181.28,-136.68 232.3,-115.73 249,-106.71 250.51,-105.89 252.04,-105.02 253.58,-104.12"/>
<polygon fill="red" stroke="red" stroke-width="0.25" points="255.25,-107.2 261.88,-98.93 251.54,-101.27 255.25,-107.2"/>
</g>
<!-- &#45;3&#45;&gt;148 -->
<g id="edge34" class="edge">
<title>&#45;3&#45;&gt;148</title>
<path fill="none" stroke="red" stroke-width="0.52" d="M157.85,-145.82C160.8,-144.67 163.98,-143.55 167,-142.71 258.64,-117.18 285.87,-130.44 378,-106.71 387.19,-104.34 397.01,-101.17 405.87,-98.05"/>
<polygon fill="red" stroke="red" stroke-width="0.52" points="406.78,-101.44 414.98,-94.74 404.39,-94.86 406.78,-101.44"/>
</g>
<!-- &#45;4 -->
<g id="node4" class="node">
<title>&#45;4</title>
<polygon fill="lightgray" stroke="black" points="245.75,-161.21 222.25,-161.21 222.25,-142.71 245.75,-142.71 245.75,-161.21"/>
<text text-anchor="middle" x="234" y="-148.66" font-family="Times,serif" font-size="9.00">&#45;4</text>
</g>
<!-- &#45;4&#45;&gt;145 -->
<g id="edge35" class="edge">
<title>&#45;4&#45;&gt;145</title>
<path fill="none" stroke="red" stroke-width="0.12" d="M229.55,-142.31C225.74,-134.91 220.04,-123.85 214.74,-113.55"/>
<polygon fill="red" stroke="red" stroke-width="0.12" points="218.01,-112.26 210.32,-104.97 211.79,-115.46 218.01,-112.26"/>
</g>
<!-- &#45;4&#45;&gt;148 -->
<g id="edge5" class="edge">
<title>&#45;4&#45;&gt;148</title>
<path fill="none" stroke="green" stroke-width="0.34" d="M245.93,-146.06C248.87,-144.91 252.03,-143.72 255,-142.71 308.9,-124.28 323.75,-124.09 378,-106.71 386.97,-103.84 396.66,-100.54 405.47,-97.46"/>
<polygon fill="green" stroke="green" stroke-width="0.34" points="406.55,-100.79 414.81,-94.16 404.22,-94.19 406.55,-100.79"/>
</g>
<!-- &#45;5 -->
<g id="node5" class="node">
<title>&#45;5</title>
<polygon fill="lightgray" stroke="black" points="643.75,-161.21 620.25,-161.21 620.25,-142.71 643.75,-142.71 643.75,-161.21"/>
<text text-anchor="middle" x="632" y="-148.66" font-family="Times,serif" font-size="9.00">&#45;5</text>
</g>
<!-- &#45;5&#45;&gt;148 -->
<g id="edge29" class="edge">
<title>&#45;5&#45;&gt;148</title>
<path fill="none" stroke="green" stroke-width="0.22" d="M620.06,-146.11C617.11,-144.96 613.95,-143.76 611,-142.71 559.99,-124.62 499.71,-106.09 464.58,-95.58"/>
<polygon fill="green" stroke="green" stroke-width="0.22" points="465.84,-92.3 455.26,-92.8 463.84,-99.01 465.84,-92.3"/>
</g>
<!-- &#45;6 -->
<g id="node6" class="node">
<title>&#45;6</title>
<polygon fill="lightgray" stroke="black" points="685.75,-161.21 662.25,-161.21 662.25,-142.71 685.75,-142.71 685.75,-161.21"/>
<text text-anchor="middle" x="674" y="-148.66" font-family="Times,serif" font-size="9.00">&#45;6</text>
</g>
<!-- &#45;6&#45;&gt;148 -->
<g id="edge3" class="edge">
<title>&#45;6&#45;&gt;148</title>
<path fill="none" stroke="green" stroke-width="0.26" d="M662.1,-145.99C659.15,-144.84 655.98,-143.67 653,-142.71 587.03,-121.39 507.76,-102.79 465.34,-93.38"/>
<polygon fill="green" stroke="green" stroke-width="0.26" points="466.28,-90 455.77,-91.27 464.78,-96.84 466.28,-90"/>
</g>
<!-- &#45;7 -->
<g id="node7" class="node">
<title>&#45;7</title>
<polygon fill="lightgray" stroke="black" points="69.75,-161.21 46.25,-161.21 46.25,-142.71 69.75,-142.71 69.75,-161.21"/>
<text text-anchor="middle" x="58" y="-148.66" font-family="Times,serif" font-size="9.00">&#45;7</text>
</g>
<!-- &#45;7&#45;&gt;145 -->
<g id="edge7" class="edge">
<title>&#45;7&#45;&gt;145</title>
<path fill="none" stroke="green" stroke-width="0.51" d="M70.19,-145.49C92.74,-135.39 141.5,-113.52 172.71,-99.54"/>
<polygon fill="green" stroke="green" stroke-width="0.51" points="173.76,-102.9 181.46,-95.61 170.9,-96.51 173.76,-102.9"/>
</g>
<!-- &#45;8 -->
<g id="node8" class="node">
<title>&#45;8</title>
<polygon fill="lightgray" stroke="black" points="773.75,-161.21 750.25,-161.21 750.25,-142.71 773.75,-142.71 773.75,-161.21"/>
<text text-anchor="middle" x="762" y="-148.66" font-family="Times,serif" font-size="9.00">&#45;8</text>
</g>
<!-- &#45;9 -->
<g id="node9" class="node">
<title>&#45;9</title>
<polygon fill="lightgray" stroke="black" points="513.75,-161.21 490.25,-161.21 490.25,-142.71 513.75,-142.71 513.75,-161.21"/>
<text text-anchor="middle" x="502" y="-148.66" font-family="Times,serif" font-size="9.00">&#45;9</text>
</g>
<!-- &#45;9&#45;&gt;147 -->
<g id="edge39" class="edge">
<title>&#45;9&#45;&gt;147</title>
<path fill="none" stroke="red" stroke-width="0.33" d="M489.92,-145.93C465.71,-135.86 410.71,-112.96 376.73,-98.81"/>
<polygon fill="red" stroke="red" stroke-width="0.33" points="378.37,-95.7 367.79,-95.09 375.68,-102.17 378.37,-95.7"/>
</g>
<!-- &#45;10 -->
<g id="node10" class="node">
<title>&#45;10</title>
<polygon fill="lightgray" stroke="black" points="426,-161.21 398,-161.21 398,-142.71 426,-142.71 426,-161.21"/>
<text text-anchor="middle" x="412" y="-148.66" font-family="Times,serif" font-size="9.00">&#45;10</text>
</g>
<!-- &#45;10&#45;&gt;145 -->
<g id="edge11" class="edge">
<title>&#45;10&#45;&gt;145</title>
<path fill="none" stroke="red" stroke-width="0.28" d="M397.96,-145.69C395.02,-144.65 391.92,-143.61 389,-142.71 327.59,-123.84 309.94,-127.04 249,-106.71 242.6,-104.58 235.84,-101.99 229.48,-99.41"/>
<polygon fill="red" stroke="red" stroke-width="0.28" points="230.88,-96.2 220.3,-95.56 228.18,-102.65 230.88,-96.2"/>
</g>
<!-- &#45;10&#45;&gt;147 -->
<g id="edge41" class="edge">
<title>&#45;10&#45;&gt;147</title>
<path fill="none" stroke="red" stroke-width="0.11" d="M403.37,-142.31C394.67,-133.6 380.89,-119.8 369.26,-108.15"/>
<polygon fill="red" stroke="red" stroke-width="0.11" points="372.02,-105.95 362.47,-101.35 367.06,-110.9 372.02,-105.95"/>
</g>
<!-- &#45;10&#45;&gt;148 -->
<g id="edge27" class="edge">
<title>&#45;10&#45;&gt;148</title>
<path fill="none" stroke="green" stroke-width="0.16" d="M415.1,-142.31C417.6,-135.34 421.27,-125.12 424.78,-115.35"/>
<polygon fill="green" stroke="green" stroke-width="0.16" points="428.02,-116.68 428.1,-106.08 421.43,-114.31 428.02,-116.68"/>
</g>
<!-- &#45;11 -->
<g id="node11" class="node">
<title>&#45;11</title>
<polygon fill="lightgray" stroke="black" points="472,-161.21 444,-161.21 444,-142.71 472,-142.71 472,-161.21"/>
<text text-anchor="middle" x="458" y="-148.66" font-family="Times,serif" font-size="9.00">&#45;11</text>
</g>
<!-- &#45;11&#45;&gt;146 -->
<g id="edge38" class="edge">
<title>&#45;11&#45;&gt;146</title>
<path fill="none" stroke="red" stroke-width="0.11" d="M443.93,-145.8C440.99,-144.75 437.9,-143.68 435,-142.71 383.38,-125.52 368.43,-127.13 318,-106.71 314.04,-105.11 309.93,-103.25 305.94,-101.33"/>
<polygon fill="red" stroke="red" stroke-width="0.11" points="307.6,-98.24 297.1,-96.88 304.46,-104.5 307.6,-98.24"/>
</g>
<!-- &#45;11&#45;&gt;148 -->
<g id="edge13" class="edge">
<title>&#45;11&#45;&gt;148</title>
<path fill="none" stroke="green" stroke-width="0.13" d="M454.9,-142.31C452.4,-135.34 448.73,-125.12 445.22,-115.35"/>
<polygon fill="green" stroke="green" stroke-width="0.13" points="448.56,-114.27 441.89,-106.04 441.97,-116.64 448.56,-114.27"/>
</g>
<!-- &#45;12 -->
<g id="node12" class="node">
<title>&#45;12</title>
<polygon fill="lightgray" stroke="black" points="732,-161.21 704,-161.21 704,-142.71 732,-142.71 732,-161.21"/>
<text text-anchor="middle" x="718" y="-148.66" font-family="Times,serif" font-size="9.00">&#45;12</text>
</g>
<!-- &#45;12&#45;&gt;148 -->
<g id="edge44" class="edge">
<title>&#45;12&#45;&gt;148</title>
<path fill="none" stroke="green" stroke-width="0.26" d="M703.99,-145.6C701.04,-144.57 697.94,-143.55 695,-142.71 613.31,-119.4 514.73,-100.74 465.75,-92.09"/>
<polygon fill="green" stroke="green" stroke-width="0.26" points="466.64,-88.69 456.18,-90.42 465.43,-95.59 466.64,-88.69"/>
</g>
<!-- &#45;13 -->
<g id="node13" class="node">
<title>&#45;13</title>
<polygon fill="lightgray" stroke="black" points="560,-161.21 532,-161.21 532,-142.71 560,-142.71 560,-161.21"/>
<text text-anchor="middle" x="546" y="-148.66" font-family="Times,serif" font-size="9.00">&#45;13</text>
</g>
<!-- &#45;13&#45;&gt;146 -->
<g id="edge33" class="edge">
<title>&#45;13&#45;&gt;146</title>
<path fill="none" stroke="red" stroke-width="0.11" d="M531.52,-145.34C528.72,-144.38 525.79,-143.45 523,-142.71 433.58,-119.01 405.74,-136.02 318,-106.71 313.95,-105.36 309.79,-103.64 305.77,-101.78"/>
<polygon fill="red" stroke="red" stroke-width="0.11" points="307.44,-98.7 296.92,-97.38 304.32,-104.97 307.44,-98.7"/>
</g>
<!-- &#45;13&#45;&gt;148 -->
<g id="edge28" class="edge">
<title>&#45;13&#45;&gt;148</title>
<path fill="none" stroke="red" stroke-width="0.36" d="M531.94,-142.84C514.38,-132.7 483.96,-115.13 461.88,-102.37"/>
<polygon fill="red" stroke="red" stroke-width="0.36" points="463.86,-99.48 453.45,-97.51 460.36,-105.54 463.86,-99.48"/>
</g>
<!-- &#45;14 -->
<g id="node14" class="node">
<title>&#45;14</title>
<polygon fill="lightgray" stroke="black" points="116,-161.21 88,-161.21 88,-142.71 116,-142.71 116,-161.21"/>
<text text-anchor="middle" x="102" y="-148.66" font-family="Times,serif" font-size="9.00">&#45;14</text>
</g>
<!-- &#45;14&#45;&gt;145 -->
<g id="edge40" class="edge">
<title>&#45;14&#45;&gt;145</title>
<path fill="none" stroke="red" stroke-width="0.19" d="M115.35,-142.31C130.66,-132.4 156.11,-115.92 175.3,-103.49"/>
<polygon fill="red" stroke="red" stroke-width="0.19" points="177.15,-106.47 183.64,-98.09 173.34,-100.59 177.15,-106.47"/>
</g>
<!-- &#45;14&#45;&gt;146 -->
<g id="edge17" class="edge">
<title>&#45;14&#45;&gt;146</title>
<path fill="none" stroke="green" stroke-width="0.17" d="M116.06,-145.76C119,-144.72 122.09,-143.65 125,-142.71 179.59,-125.01 196.93,-130.82 249,-106.71 250.56,-105.99 252.13,-105.19 253.69,-104.35"/>
<polygon fill="green" stroke="green" stroke-width="0.17" points="255.39,-107.41 262.17,-99.26 251.79,-101.4 255.39,-107.41"/>
</g>
<!-- &#45;15 -->
<g id="node15" class="node">
<title>&#45;15</title>
<polygon fill="lightgray" stroke="black" points="820,-161.21 792,-161.21 792,-142.71 820,-142.71 820,-161.21"/>
<text text-anchor="middle" x="806" y="-148.66" font-family="Times,serif" font-size="9.00">&#45;15</text>
</g>
<!-- &#45;16 -->
<g id="node16" class="node">
<title>&#45;16</title>
<polygon fill="lightgray" stroke="black" points="866,-161.21 838,-161.21 838,-142.71 866,-142.71 866,-161.21"/>
<text text-anchor="middle" x="852" y="-148.66" font-family="Times,serif" font-size="9.00">&#45;16</text>
</g>
<!-- &#45;17 -->
<g id="node17" class="node">
<title>&#45;17</title>
<polygon fill="lightgray" stroke="black" points="204,-161.21 176,-161.21 176,-142.71 204,-142.71 204,-161.21"/>
<text text-anchor="middle" x="190" y="-148.66" font-family="Times,serif" font-size="9.00">&#45;17</text>
</g>
<!-- &#45;17&#45;&gt;145 -->
<g id="edge15" class="edge">
<title>&#45;17&#45;&gt;145</title>
<path fill="none" stroke="red" stroke-width="0.37" d="M191.48,-142.31C192.62,-135.71 194.25,-126.19 195.85,-116.89"/>
<polygon fill="red" stroke="red" stroke-width="0.37" points="199.26,-117.67 197.51,-107.22 192.36,-116.48 199.26,-117.67"/>
</g>
<!-- &#45;17&#45;&gt;148 -->
<g id="edge21" class="edge">
<title>&#45;17&#45;&gt;148</title>
<path fill="none" stroke="red" stroke-width="0.17" d="M204.02,-145.61C206.96,-144.57 210.06,-143.55 213,-142.71 285.14,-122 305.76,-127.1 378,-106.71 387.16,-104.13 396.99,-100.88 405.87,-97.76"/>
<polygon fill="red" stroke="red" stroke-width="0.17" points="406.93,-101.1 415.16,-94.42 404.56,-94.51 406.93,-101.1"/>
</g>
<!-- &#45;18 -->
<g id="node18" class="node">
<title>&#45;18</title>
<polygon fill="lightgray" stroke="black" points="334,-161.21 306,-161.21 306,-142.71 334,-142.71 334,-161.21"/>
<text text-anchor="middle" x="320" y="-148.66" font-family="Times,serif" font-size="9.00">&#45;18</text>
</g>
<!-- &#45;18&#45;&gt;145 -->
<g id="edge32" class="edge">
<title>&#45;18&#45;&gt;145</title>
<path fill="none" stroke="red" stroke-width="0.16" d="M305.88,-143.35C286.67,-133 251.9,-114.27 227.69,-101.23"/>
<polygon fill="red" stroke="red" stroke-width="0.16" points="229.65,-98.31 219.18,-96.65 226.33,-104.47 229.65,-98.31"/>
</g>
<!-- &#45;18&#45;&gt;147 -->
<g id="edge8" class="edge">
<title>&#45;18&#45;&gt;147</title>
<path fill="none" stroke="red" stroke-width="0.11" d="M323.78,-142.31C326.9,-135.17 331.51,-124.6 335.88,-114.61"/>
<polygon fill="red" stroke="red" stroke-width="0.11" points="339.07,-116.04 339.86,-105.48 332.65,-113.24 339.07,-116.04"/>
</g>
<!-- &#45;18&#45;&gt;148 -->
<g id="edge31" class="edge">
<title>&#45;18&#45;&gt;148</title>
<path fill="none" stroke="green" stroke-width="0.14" d="M334.1,-143.1C352.53,-132.83 385.17,-114.63 408.33,-101.72"/>
<polygon fill="green" stroke="green" stroke-width="0.14" points="409.78,-104.92 416.81,-96.99 406.38,-98.8 409.78,-104.92"/>
</g>
<!-- &#45;19 -->
<g id="node19" class="node">
<title>&#45;19</title>
<polygon fill="lightgray" stroke="black" points="28,-161.21 0,-161.21 0,-142.71 28,-142.71 28,-161.21"/>
<text text-anchor="middle" x="14" y="-148.66" font-family="Times,serif" font-size="9.00">&#45;19</text>
</g>
<!-- &#45;19&#45;&gt;145 -->
<g id="edge10" class="edge">
<title>&#45;19&#45;&gt;145</title>
<path fill="none" stroke="green" stroke-width="0.18" d="M28.1,-145.86C31.04,-144.81 34.12,-143.72 37,-142.71 84.09,-126.25 138.99,-107.67 171.83,-96.63"/>
<polygon fill="green" stroke="green" stroke-width="0.18" points="172.64,-100.05 181.01,-93.54 170.41,-93.41 172.64,-100.05"/>
</g>
<!-- &#45;20 -->
<g id="node20" class="node">
<title>&#45;20</title>
<polygon fill="lightgray" stroke="black" points="380,-161.21 352,-161.21 352,-142.71 380,-142.71 380,-161.21"/>
<text text-anchor="middle" x="366" y="-148.66" font-family="Times,serif" font-size="9.00">&#45;20</text>
</g>
<!-- &#45;20&#45;&gt;145 -->
<g id="edge24" class="edge">
<title>&#45;20&#45;&gt;145</title>
<path fill="none" stroke="green" stroke-width="0.24" d="M351.54,-145.65C329.38,-137.49 285.75,-121.26 249,-106.71 242.58,-104.17 235.7,-101.37 229.22,-98.7"/>
<polygon fill="green" stroke="green" stroke-width="0.24" points="231.01,-95.65 220.43,-95.05 228.32,-102.11 231.01,-95.65"/>
</g>
<!-- &#45;20&#45;&gt;147 -->
<g id="edge9" class="edge">
<title>&#45;20&#45;&gt;147</title>
<path fill="none" stroke="red" stroke-width="0.18" d="M363.57,-142.31C361.66,-135.52 358.89,-125.63 356.21,-116.08"/>
<polygon fill="red" stroke="red" stroke-width="0.18" points="359.64,-115.34 353.56,-106.66 352.9,-117.24 359.64,-115.34"/>
</g>
<!-- &#45;20&#45;&gt;148 -->
<g id="edge16" class="edge">
<title>&#45;20&#45;&gt;148</title>
<path fill="none" stroke="green" stroke-width="0.2" d="M375.31,-142.31C384.81,-133.48 399.92,-119.44 412.56,-107.7"/>
<polygon fill="green" stroke="green" stroke-width="0.2" points="414.88,-110.32 419.82,-100.95 410.12,-105.19 414.88,-110.32"/>
</g>
<!-- 0 -->
<g id="node21" class="node">
<title>0</title>
<ellipse fill="lightblue" stroke="black" cx="295" cy="-14.5" rx="14.5" ry="14.5"/>
<text text-anchor="middle" x="295" y="-11.2" font-family="Times,serif" font-size="9.00">0</text>
</g>
<!-- 1 -->
<g id="node22" class="node">
<title>1</title>
<ellipse fill="lightblue" stroke="black" cx="389" cy="-14.5" rx="14.5" ry="14.5"/>
<text text-anchor="middle" x="389" y="-11.2" font-family="Times,serif" font-size="9.00">1</text>
</g>
<!-- 2 -->
<g id="node23" class="node">
<title>2</title>
<ellipse fill="lightblue" stroke="black" cx="201" cy="-14.5" rx="14.5" ry="14.5"/>
<text text-anchor="middle" x="201" y="-11.2" font-family="Times,serif" font-size="9.00">2</text>
</g>
<!-- 3 -->
<g id="node24" class="node">
<title>3</title>
<ellipse fill="lightblue" stroke="black" cx="342" cy="-14.5" rx="14.5" ry="14.5"/>
<text text-anchor="middle" x="342" y="-11.2" font-family="Times,serif" font-size="9.00">3</text>
</g>
<!-- 4 -->
<g id="node25" class="node">
<title>4</title>
<ellipse fill="lightblue" stroke="black" cx="248" cy="-14.5" rx="14.5" ry="14.5"/>
<text text-anchor="middle" x="248" y="-11.2" font-family="Times,serif" font-size="9.00">4</text>
</g>
<!-- 145&#45;&gt;0 -->
<g id="edge43" class="edge">
<title>145&#45;&gt;0</title>
<path fill="none" stroke="red" stroke-width="0.2" d="M217.37,-72.77C233.5,-60.87 258.14,-42.69 275.32,-30.01"/>
<polygon fill="red" stroke="red" stroke-width="0.2" points="277.34,-32.88 283.31,-24.12 273.18,-27.24 277.34,-32.88"/>
</g>
<!-- 145&#45;&gt;2 -->
<g id="edge26" class="edge">
<title>145&#45;&gt;2</title>
<path fill="none" stroke="red" stroke-width="0.25" d="M201,-64.79C201,-56.89 201,-47.75 201,-39.5"/>
<polygon fill="red" stroke="red" stroke-width="0.25" points="204.5,-39.74 201,-29.74 197.5,-39.74 204.5,-39.74"/>
</g>
<!-- 145&#45;&gt;4 -->
<g id="edge19" class="edge">
<title>145&#45;&gt;4</title>
<path fill="none" stroke="green" stroke-width="0.11" d="M212.38,-68.06C219.02,-58.26 227.44,-45.84 234.42,-35.53"/>
<polygon fill="green" stroke="green" stroke-width="0.11" points="237.31,-37.51 240.02,-27.27 231.51,-33.59 237.31,-37.51"/>
</g>
<!-- 145&#45;&gt;145 -->
<g id="edge42" class="edge">
<title>145&#45;&gt;145</title>
<path fill="none" stroke="green" stroke-width="0.33" d="M218.58,-97.37C229.49,-100.15 239.86,-96.31 239.86,-85.85 239.86,-78.82 235.18,-74.78 228.8,-73.73"/>
<polygon fill="green" stroke="green" stroke-width="0.33" points="228.86,-70.22 219.09,-74.3 229.27,-77.21 228.86,-70.22"/>
</g>
<!-- 146&#45;&gt;0 -->
<g id="edge36" class="edge">
<title>146&#45;&gt;0</title>
<path fill="none" stroke="green" stroke-width="0.22" d="M283.54,-65.16C285.41,-57.05 287.6,-47.59 289.55,-39.11"/>
<polygon fill="green" stroke="green" stroke-width="0.22" points="292.95,-39.93 291.79,-29.4 286.13,-38.36 292.95,-39.93"/>
</g>
<!-- 146&#45;&gt;2 -->
<g id="edge4" class="edge">
<title>146&#45;&gt;2</title>
<path fill="none" stroke="green" stroke-width="0.25" d="M263.59,-71.15C250.79,-59.77 232.57,-43.57 219.09,-31.58"/>
<polygon fill="green" stroke="green" stroke-width="0.25" points="221.47,-29.02 211.68,-24.99 216.82,-34.25 221.47,-29.02"/>
</g>
<!-- 146&#45;&gt;3 -->
<g id="edge14" class="edge">
<title>146&#45;&gt;3</title>
<path fill="none" stroke="green" stroke-width="0.12" d="M292.67,-69.8C302.43,-59.06 315.6,-44.56 325.88,-33.25"/>
<polygon fill="green" stroke="green" stroke-width="0.12" points="328.19,-35.9 332.33,-26.15 323.01,-31.19 328.19,-35.9"/>
</g>
<!-- 146&#45;&gt;4 -->
<g id="edge20" class="edge">
<title>146&#45;&gt;4</title>
<path fill="none" stroke="red" stroke-width="0.12" d="M270.69,-66.27C266.7,-57.33 261.89,-46.57 257.72,-37.25"/>
<polygon fill="red" stroke="red" stroke-width="0.12" points="261.04,-36.08 253.76,-28.38 254.64,-38.94 261.04,-36.08"/>
</g>
<!-- 147&#45;&gt;0 -->
<g id="edge2" class="edge">
<title>147&#45;&gt;0</title>
<path fill="none" stroke="green" stroke-width="0.49" d="M335.71,-68.77C327.97,-58.64 317.93,-45.5 309.76,-34.81"/>
<polygon fill="green" stroke="green" stroke-width="0.49" points="312.73,-32.93 303.88,-27.11 307.17,-37.18 312.73,-32.93"/>
</g>
<!-- 147&#45;&gt;1 -->
<g id="edge12" class="edge">
<title>147&#45;&gt;1</title>
<path fill="none" stroke="green" stroke-width="0.37" d="M358.35,-67.35C363.95,-57.86 370.92,-46.08 376.79,-36.14"/>
<polygon fill="green" stroke="green" stroke-width="0.37" points="379.65,-38.2 381.72,-27.81 373.62,-34.63 379.65,-38.2"/>
</g>
<!-- 147&#45;&gt;3 -->
<g id="edge18" class="edge">
<title>147&#45;&gt;3</title>
<path fill="none" stroke="green" stroke-width="0.15" d="M346.26,-64.79C345.58,-56.89 344.79,-47.75 344.08,-39.5"/>
<polygon fill="green" stroke="green" stroke-width="0.15" points="347.57,-39.24 343.22,-29.58 340.59,-39.85 347.57,-39.24"/>
</g>
<!-- 147&#45;&gt;4 -->
<g id="edge1" class="edge">
<title>147&#45;&gt;4</title>
<path fill="none" stroke="red" stroke-width="0.15" d="M331.04,-73.09C313.61,-61 286.48,-42.18 268.01,-29.37"/>
<polygon fill="red" stroke="red" stroke-width="0.15" points="270.12,-26.58 259.91,-23.76 266.13,-32.33 270.12,-26.58"/>
</g>
</g>
</svg>
