<?xml version="1.0" encoding="UTF-8" standalone="no"?>
<!DOCTYPE svg PUBLIC "-//W3C//DTD SVG 1.1//EN"
 "http://www.w3.org/Graphics/SVG/1.1/DTD/svg11.dtd">
<!-- Generated by graphviz version 12.1.1 (20240910.0053)
 -->
<!-- Pages: 1 -->
<svg width="843pt" height="251pt"
 viewBox="0.00 0.00 843.25 251.06" xmlns="http://www.w3.org/2000/svg" xmlns:xlink="http://www.w3.org/1999/xlink">
<g id="graph0" class="graph" transform="scale(1 1) rotate(0) translate(4 247.06)">
<polygon fill="white" stroke="none" points="-4,4 -4,-247.06 839.25,-247.06 839.25,4 -4,4"/>
<!-- &#45;1 -->
<g id="node1" class="node">
<title>&#45;1</title>
<polygon fill="lightgray" stroke="black" points="111.5,-237.81 88,-237.81 88,-219.31 111.5,-219.31 111.5,-237.81"/>
<text text-anchor="middle" x="99.75" y="-225.26" font-family="Times,serif" font-size="9.00">&#45;1</text>
</g>
<!-- 72 -->
<g id="node29" class="node">
<title>72</title>
<ellipse fill="white" stroke="black" cx="192.75" cy="-160.39" rx="17.68" ry="17.68"/>
<text text-anchor="middle" x="192.75" y="-157.09" font-family="Times,serif" font-size="9.00">72</text>
</g>
<!-- &#45;1&#45;&gt;72 -->
<g id="edge44" class="edge">
<title>&#45;1&#45;&gt;72</title>
<path fill="none" stroke="green" stroke-width="0.24" stroke-dasharray="1,5" d="M111.91,-218.91C126.63,-208.43 151.74,-190.57 170.07,-177.52"/>
<polygon fill="green" stroke="green" stroke-width="0.24" points="172.05,-180.42 178.16,-171.77 167.99,-174.71 172.05,-180.42"/>
</g>
<!-- &#45;2 -->
<g id="node2" class="node">
<title>&#45;2</title>
<polygon fill="lightgray" stroke="black" points="153.5,-237.81 130,-237.81 130,-219.31 153.5,-219.31 153.5,-237.81"/>
<text text-anchor="middle" x="141.75" y="-225.26" font-family="Times,serif" font-size="9.00">&#45;2</text>
</g>
<!-- 70 -->
<g id="node27" class="node">
<title>70</title>
<ellipse fill="white" stroke="black" cx="246.75" cy="-160.39" rx="17.68" ry="17.68"/>
<text text-anchor="middle" x="246.75" y="-157.09" font-family="Times,serif" font-size="9.00">70</text>
</g>
<!-- &#45;2&#45;&gt;70 -->
<g id="edge39" class="edge">
<title>&#45;2&#45;&gt;70</title>
<path fill="none" stroke="red" stroke-width="0.27" d="M153.73,-219.83C156.67,-217.94 159.82,-215.92 162.75,-214.07 183.1,-201.14 206.33,-186.59 223.19,-176.06"/>
<polygon fill="red" stroke="red" stroke-width="0.27" points="224.87,-179.14 231.5,-170.88 221.17,-173.2 224.87,-179.14"/>
</g>
<!-- 71 -->
<g id="node28" class="node">
<title>71</title>
<ellipse fill="white" stroke="black" cx="425.75" cy="-20.86" rx="17.68" ry="17.68"/>
<text text-anchor="middle" x="425.75" y="-17.56" font-family="Times,serif" font-size="9.00">71</text>
</g>
<!-- &#45;2&#45;&gt;71 -->
<g id="edge14" class="edge">
<title>&#45;2&#45;&gt;71</title>
<path fill="none" stroke="red" stroke-width="0.23" stroke-dasharray="1,5" d="M140.64,-219C137.85,-193.54 133.38,-117.62 172.75,-77.72 188.65,-61.6 336.05,-36.28 398.26,-26.21"/>
<polygon fill="red" stroke="red" stroke-width="0.23" points="398.49,-29.71 407.81,-24.67 397.38,-22.8 398.49,-29.71"/>
</g>
<!-- &#45;2&#45;&gt;72 -->
<g id="edge11" class="edge">
<title>&#45;2&#45;&gt;72</title>
<path fill="none" stroke="green" stroke-width="0.28" d="M148.42,-218.91C155.39,-209.86 166.62,-195.29 176.03,-183.09"/>
<polygon fill="green" stroke="green" stroke-width="0.28" points="178.59,-185.5 181.92,-175.44 173.04,-181.23 178.59,-185.5"/>
</g>
<!-- &#45;3 -->
<g id="node3" class="node">
<title>&#45;3</title>
<polygon fill="lightgray" stroke="black" points="23.5,-237.81 0,-237.81 0,-219.31 23.5,-219.31 23.5,-237.81"/>
<text text-anchor="middle" x="11.75" y="-225.26" font-family="Times,serif" font-size="9.00">&#45;3</text>
</g>
<!-- &#45;3&#45;&gt;71 -->
<g id="edge6" class="edge">
<title>&#45;3&#45;&gt;71</title>
<path fill="none" stroke="green" stroke-width="0.26" d="M16.79,-219.07C32.66,-193.13 84.43,-114.52 149.75,-77.72 192.34,-53.72 336.83,-33.13 398.01,-25.26"/>
<polygon fill="green" stroke="green" stroke-width="0.26" points="398.22,-28.77 407.7,-24.04 397.34,-21.82 398.22,-28.77"/>
</g>
<!-- &#45;3&#45;&gt;72 -->
<g id="edge37" class="edge">
<title>&#45;3&#45;&gt;72</title>
<path fill="none" stroke="red" stroke-width="0.12" d="M23.89,-219.03C26.72,-217.25 29.78,-215.48 32.75,-214.07 77.54,-192.73 133.23,-176.54 165.7,-168.04"/>
<polygon fill="red" stroke="red" stroke-width="0.12" points="166.39,-171.48 175.21,-165.6 164.65,-164.7 166.39,-171.48"/>
</g>
<!-- &#45;4 -->
<g id="node4" class="node">
<title>&#45;4</title>
<polygon fill="lightgray" stroke="black" points="195.5,-237.81 172,-237.81 172,-219.31 195.5,-219.31 195.5,-237.81"/>
<text text-anchor="middle" x="183.75" y="-225.26" font-family="Times,serif" font-size="9.00">&#45;4</text>
</g>
<!-- &#45;4&#45;&gt;70 -->
<g id="edge29" class="edge">
<title>&#45;4&#45;&gt;70</title>
<path fill="none" stroke="red" stroke-width="0.16" d="M191.99,-218.91C201.05,-209.39 215.91,-193.79 227.86,-181.23"/>
<polygon fill="red" stroke="red" stroke-width="0.16" points="230.33,-183.71 234.69,-174.05 225.26,-178.88 230.33,-183.71"/>
</g>
<!-- &#45;4&#45;&gt;72 -->
<g id="edge5" class="edge">
<title>&#45;4&#45;&gt;72</title>
<path fill="none" stroke="red" stroke-width="0.17" d="M184.93,-218.91C185.99,-211.11 187.61,-199.2 189.1,-188.24"/>
<polygon fill="red" stroke="red" stroke-width="0.17" points="192.55,-188.83 190.43,-178.45 185.61,-187.88 192.55,-188.83"/>
</g>
<!-- &#45;5 -->
<g id="node5" class="node">
<title>&#45;5</title>
<polygon fill="lightgray" stroke="black" points="463.5,-237.81 440,-237.81 440,-219.31 463.5,-219.31 463.5,-237.81"/>
<text text-anchor="middle" x="451.75" y="-225.26" font-family="Times,serif" font-size="9.00">&#45;5</text>
</g>
<!-- 3 -->
<g id="node24" class="node">
<title>3</title>
<ellipse fill="lightblue" stroke="black" cx="393.75" cy="-92.21" rx="14.5" ry="14.5"/>
<text text-anchor="middle" x="393.75" y="-88.91" font-family="Times,serif" font-size="9.00">3</text>
</g>
<!-- &#45;5&#45;&gt;3 -->
<g id="edge38" class="edge">
<title>&#45;5&#45;&gt;3</title>
<path fill="none" stroke="red" stroke-width="0.2" stroke-dasharray="1,5" d="M452.65,-218.87C453.92,-202.92 454.88,-168.27 442.75,-142.71 436.12,-128.75 423.9,-116.39 413.32,-107.51"/>
<polygon fill="red" stroke="red" stroke-width="0.2" points="415.57,-104.84 405.56,-101.37 411.23,-110.32 415.57,-104.84"/>
</g>
<!-- 69 -->
<g id="node26" class="node">
<title>69</title>
<ellipse fill="white" stroke="black" cx="397.75" cy="-160.39" rx="17.68" ry="17.68"/>
<text text-anchor="middle" x="397.75" y="-157.09" font-family="Times,serif" font-size="9.00">69</text>
</g>
<!-- &#45;5&#45;&gt;69 -->
<g id="edge21" class="edge">
<title>&#45;5&#45;&gt;69</title>
<path fill="none" stroke="green" stroke-width="0.16" d="M444.69,-218.91C437.19,-209.71 425.04,-194.83 414.98,-182.5"/>
<polygon fill="green" stroke="green" stroke-width="0.16" points="417.93,-180.59 408.9,-175.05 412.51,-185.01 417.93,-180.59"/>
</g>
<!-- &#45;5&#45;&gt;70 -->
<g id="edge16" class="edge">
<title>&#45;5&#45;&gt;70</title>
<path fill="none" stroke="green" stroke-width="0.21" d="M439.65,-218.94C436.82,-217.17 433.75,-215.42 430.75,-214.07 377.71,-190.06 311.09,-174.24 274.32,-166.64"/>
<polygon fill="green" stroke="green" stroke-width="0.21" points="275.14,-163.24 264.65,-164.7 273.76,-170.1 275.14,-163.24"/>
</g>
<!-- &#45;6 -->
<g id="node6" class="node">
<title>&#45;6</title>
<polygon fill="lightgray" stroke="black" points="421.5,-237.81 398,-237.81 398,-219.31 421.5,-219.31 421.5,-237.81"/>
<text text-anchor="middle" x="409.75" y="-225.26" font-family="Times,serif" font-size="9.00">&#45;6</text>
</g>
<!-- &#45;6&#45;&gt;69 -->
<g id="edge10" class="edge">
<title>&#45;6&#45;&gt;69</title>
<path fill="none" stroke="green" stroke-width="0.17" d="M408.18,-218.91C406.77,-211.11 404.61,-199.2 402.62,-188.24"/>
<polygon fill="green" stroke="green" stroke-width="0.17" points="406.07,-187.65 400.84,-178.44 399.18,-188.9 406.07,-187.65"/>
</g>
<!-- &#45;6&#45;&gt;70 -->
<g id="edge36" class="edge">
<title>&#45;6&#45;&gt;70</title>
<path fill="none" stroke="green" stroke-width="0.19" stroke-dasharray="1,5" d="M397.57,-219.11C394.74,-217.33 391.7,-215.54 388.75,-214.07 350.03,-194.73 302.4,-178.48 273.32,-169.34"/>
<polygon fill="green" stroke="green" stroke-width="0.19" points="274.73,-166.11 264.14,-166.5 272.66,-172.8 274.73,-166.11"/>
</g>
<!-- &#45;7 -->
<g id="node7" class="node">
<title>&#45;7</title>
<polygon fill="lightgray" stroke="black" points="704.5,-237.81 681,-237.81 681,-219.31 704.5,-219.31 704.5,-237.81"/>
<text text-anchor="middle" x="692.75" y="-225.26" font-family="Times,serif" font-size="9.00">&#45;7</text>
</g>
<!-- &#45;8 -->
<g id="node8" class="node">
<title>&#45;8</title>
<polygon fill="lightgray" stroke="black" points="746.5,-237.81 723,-237.81 723,-219.31 746.5,-219.31 746.5,-237.81"/>
<text text-anchor="middle" x="734.75" y="-225.26" font-family="Times,serif" font-size="9.00">&#45;8</text>
</g>
<!-- &#45;9 -->
<g id="node9" class="node">
<title>&#45;9</title>
<polygon fill="lightgray" stroke="black" points="788.5,-237.81 765,-237.81 765,-219.31 788.5,-219.31 788.5,-237.81"/>
<text text-anchor="middle" x="776.75" y="-225.26" font-family="Times,serif" font-size="9.00">&#45;9</text>
</g>
<!-- &#45;10 -->
<g id="node10" class="node">
<title>&#45;10</title>
<polygon fill="lightgray" stroke="black" points="241.75,-237.81 213.75,-237.81 213.75,-219.31 241.75,-219.31 241.75,-237.81"/>
<text text-anchor="middle" x="227.75" y="-225.26" font-family="Times,serif" font-size="9.00">&#45;10</text>
</g>
<!-- &#45;10&#45;&gt;70 -->
<g id="edge4" class="edge">
<title>&#45;10&#45;&gt;70</title>
<path fill="none" stroke="green" stroke-width="0.11" d="M230.23,-218.91C232.51,-210.97 236.01,-198.79 239.2,-187.68"/>
<polygon fill="green" stroke="green" stroke-width="0.11" points="242.56,-188.66 241.96,-178.08 235.83,-186.73 242.56,-188.66"/>
</g>
<!-- &#45;11 -->
<g id="node11" class="node">
<title>&#45;11</title>
<polygon fill="lightgray" stroke="black" points="601.75,-237.81 573.75,-237.81 573.75,-219.31 601.75,-219.31 601.75,-237.81"/>
<text text-anchor="middle" x="587.75" y="-225.26" font-family="Times,serif" font-size="9.00">&#45;11</text>
</g>
<!-- &#45;11&#45;&gt;69 -->
<g id="edge2" class="edge">
<title>&#45;11&#45;&gt;69</title>
<path fill="none" stroke="green" stroke-width="0.55" d="M574.4,-219.05C571.3,-217.26 567.97,-215.49 564.75,-214.07 517.32,-193 458.89,-176.6 425.22,-168.02"/>
<polygon fill="green" stroke="green" stroke-width="0.55" points="426.16,-164.65 415.61,-165.61 424.46,-171.44 426.16,-164.65"/>
</g>
<!-- &#45;11&#45;&gt;71 -->
<g id="edge17" class="edge">
<title>&#45;11&#45;&gt;71</title>
<path fill="none" stroke="red" stroke-width="0.32" stroke-dasharray="1,5" d="M584.58,-218.95C575.3,-194.59 546.23,-124.01 504.75,-77.72 489.05,-60.2 466.88,-45.13 450.02,-35.07"/>
<polygon fill="red" stroke="red" stroke-width="0.32" points="452.11,-32.23 441.7,-30.26 448.6,-38.29 452.11,-32.23"/>
</g>
<!-- &#45;12 -->
<g id="node12" class="node">
<title>&#45;12</title>
<polygon fill="lightgray" stroke="black" points="631.75,-101.46 603.75,-101.46 603.75,-82.96 631.75,-82.96 631.75,-101.46"/>
<text text-anchor="middle" x="617.75" y="-88.91" font-family="Times,serif" font-size="9.00">&#45;12</text>
</g>
<!-- &#45;12&#45;&gt;71 -->
<g id="edge3" class="edge">
<title>&#45;12&#45;&gt;71</title>
<path fill="none" stroke="green" stroke-width="0.13" d="M603.37,-83.87C599.04,-81.77 594.24,-79.56 589.75,-77.72 542.28,-58.28 485.27,-39.95 452.5,-29.88"/>
<polygon fill="green" stroke="green" stroke-width="0.13" points="453.53,-26.53 442.95,-26.97 451.49,-33.23 453.53,-26.53"/>
</g>
<!-- &#45;13 -->
<g id="node13" class="node">
<title>&#45;13</title>
<polygon fill="lightgray" stroke="black" points="287.75,-237.81 259.75,-237.81 259.75,-219.31 287.75,-219.31 287.75,-237.81"/>
<text text-anchor="middle" x="273.75" y="-225.26" font-family="Times,serif" font-size="9.00">&#45;13</text>
</g>
<!-- &#45;13&#45;&gt;69 -->
<g id="edge30" class="edge">
<title>&#45;13&#45;&gt;69</title>
<path fill="none" stroke="green" stroke-width="0.4" d="M287.8,-219.17C290.74,-217.45 293.83,-215.68 296.75,-214.07 322.47,-199.82 352.38,-184.36 372.94,-173.89"/>
<polygon fill="green" stroke="green" stroke-width="0.4" points="374.34,-177.11 381.68,-169.46 371.17,-170.86 374.34,-177.11"/>
</g>
<!-- &#45;13&#45;&gt;70 -->
<g id="edge8" class="edge">
<title>&#45;13&#45;&gt;70</title>
<path fill="none" stroke="green" stroke-width="0.23" d="M270.22,-218.91C266.88,-210.73 261.7,-198.04 257.06,-186.66"/>
<polygon fill="green" stroke="green" stroke-width="0.23" points="260.33,-185.4 253.31,-177.46 253.85,-188.04 260.33,-185.4"/>
</g>
<!-- &#45;13&#45;&gt;72 -->
<g id="edge20" class="edge">
<title>&#45;13&#45;&gt;72</title>
<path fill="none" stroke="green" stroke-width="0.38" stroke-dasharray="1,5" d="M263.16,-218.91C250.86,-208.86 230.24,-192.01 214.48,-179.14"/>
<polygon fill="green" stroke="green" stroke-width="0.38" points="216.71,-176.45 206.75,-172.83 212.28,-181.87 216.71,-176.45"/>
</g>
<!-- &#45;14 -->
<g id="node14" class="node">
<title>&#45;14</title>
<polygon fill="lightgray" stroke="black" points="662.75,-237.81 634.75,-237.81 634.75,-219.31 662.75,-219.31 662.75,-237.81"/>
<text text-anchor="middle" x="648.75" y="-225.26" font-family="Times,serif" font-size="9.00">&#45;14</text>
</g>
<!-- &#45;14&#45;&gt;69 -->
<g id="edge33" class="edge">
<title>&#45;14&#45;&gt;69</title>
<path fill="none" stroke="green" stroke-width="0.11" stroke-dasharray="1,5" d="M634.43,-222.1C627.35,-219.5 618.66,-216.44 610.75,-214.07 544.8,-194.25 465.79,-176.16 425.04,-167.23"/>
<polygon fill="green" stroke="green" stroke-width="0.11" points="425.98,-163.85 415.47,-165.15 424.49,-170.69 425.98,-163.85"/>
</g>
<!-- &#45;14&#45;&gt;71 -->
<g id="edge34" class="edge">
<title>&#45;14&#45;&gt;71</title>
<path fill="none" stroke="green" stroke-width="0.15" stroke-dasharray="1,5" d="M651.42,-218.89C658.57,-193.78 675.36,-120.09 640.75,-77.72 617.13,-48.8 506.21,-31.67 453.59,-25.04"/>
<polygon fill="green" stroke="green" stroke-width="0.15" points="454.17,-21.58 443.82,-23.85 453.32,-28.53 454.17,-21.58"/>
</g>
<!-- &#45;15 -->
<g id="node15" class="node">
<title>&#45;15</title>
<polygon fill="lightgray" stroke="black" points="333.75,-237.81 305.75,-237.81 305.75,-219.31 333.75,-219.31 333.75,-237.81"/>
<text text-anchor="middle" x="319.75" y="-225.26" font-family="Times,serif" font-size="9.00">&#45;15</text>
</g>
<!-- &#45;15&#45;&gt;69 -->
<g id="edge1" class="edge">
<title>&#45;15&#45;&gt;69</title>
<path fill="none" stroke="red" stroke-width="0.43" d="M329.95,-218.91C341.72,-208.92 361.42,-192.21 376.55,-179.37"/>
<polygon fill="red" stroke="red" stroke-width="0.43" points="378.56,-182.26 383.92,-173.12 374.03,-176.92 378.56,-182.26"/>
</g>
<!-- &#45;15&#45;&gt;72 -->
<g id="edge28" class="edge">
<title>&#45;15&#45;&gt;72</title>
<path fill="none" stroke="green" stroke-width="0.39" d="M305.76,-219.07C302.81,-217.36 299.7,-215.62 296.75,-214.07 263.31,-196.49 252.99,-196.02 219.75,-178.07 218.6,-177.45 217.44,-176.8 216.27,-176.14"/>
<polygon fill="green" stroke="green" stroke-width="0.39" points="218.31,-173.28 207.93,-171.18 214.74,-179.3 218.31,-173.28"/>
</g>
<!-- &#45;16 -->
<g id="node16" class="node">
<title>&#45;16</title>
<polygon fill="lightgray" stroke="black" points="555.75,-237.81 527.75,-237.81 527.75,-219.31 555.75,-219.31 555.75,-237.81"/>
<text text-anchor="middle" x="541.75" y="-225.26" font-family="Times,serif" font-size="9.00">&#45;16</text>
</g>
<!-- &#45;16&#45;&gt;69 -->
<g id="edge25" class="edge">
<title>&#45;16&#45;&gt;69</title>
<path fill="none" stroke="green" stroke-width="0.67" stroke-dasharray="1,5" d="M527.79,-219.01C524.84,-217.31 521.72,-215.58 518.75,-214.07 486.91,-197.87 448.97,-181.86 424.17,-171.82"/>
<polygon fill="green" stroke="green" stroke-width="0.67" points="425.61,-168.63 415.03,-168.15 423,-175.12 425.61,-168.63"/>
</g>
<!-- &#45;16&#45;&gt;71 -->
<g id="edge31" class="edge">
<title>&#45;16&#45;&gt;71</title>
<path fill="none" stroke="green" stroke-width="0.44" d="M539.69,-218.85C533.75,-194.82 514.88,-126.19 482.75,-77.72 473.14,-63.22 459.25,-49.51 447.59,-39.3"/>
<polygon fill="green" stroke="green" stroke-width="0.44" points="449.99,-36.75 440.09,-32.96 445.47,-42.09 449.99,-36.75"/>
</g>
<!-- &#45;17 -->
<g id="node17" class="node">
<title>&#45;17</title>
<polygon fill="lightgray" stroke="black" points="69.75,-237.81 41.75,-237.81 41.75,-219.31 69.75,-219.31 69.75,-237.81"/>
<text text-anchor="middle" x="55.75" y="-225.26" font-family="Times,serif" font-size="9.00">&#45;17</text>
</g>
<!-- &#45;17&#45;&gt;72 -->
<g id="edge15" class="edge">
<title>&#45;17&#45;&gt;72</title>
<path fill="none" stroke="red" stroke-width="0.43" stroke-dasharray="1,5" d="M69.74,-219.06C72.68,-217.35 75.8,-215.61 78.75,-214.07 108.54,-198.49 143.8,-182.57 167.13,-172.37"/>
<polygon fill="red" stroke="red" stroke-width="0.43" points="168.27,-175.69 176.05,-168.49 165.49,-169.27 168.27,-175.69"/>
</g>
<!-- &#45;18 -->
<g id="node18" class="node">
<title>&#45;18</title>
<polygon fill="lightgray" stroke="black" points="323.75,-101.46 295.75,-101.46 295.75,-82.96 323.75,-82.96 323.75,-101.46"/>
<text text-anchor="middle" x="309.75" y="-88.91" font-family="Times,serif" font-size="9.00">&#45;18</text>
</g>
<!-- &#45;18&#45;&gt;71 -->
<g id="edge23" class="edge">
<title>&#45;18&#45;&gt;71</title>
<path fill="none" stroke="red" stroke-width="0.55" d="M323.97,-82.71C343.24,-71.19 377.92,-50.46 401.38,-36.43"/>
<polygon fill="red" stroke="red" stroke-width="0.55" points="403.18,-39.43 409.97,-31.3 399.59,-33.42 403.18,-39.43"/>
</g>
<!-- &#45;19 -->
<g id="node19" class="node">
<title>&#45;19</title>
<polygon fill="lightgray" stroke="black" points="379.75,-237.81 351.75,-237.81 351.75,-219.31 379.75,-219.31 379.75,-237.81"/>
<text text-anchor="middle" x="365.75" y="-225.26" font-family="Times,serif" font-size="9.00">&#45;19</text>
</g>
<!-- &#45;19&#45;&gt;69 -->
<g id="edge26" class="edge">
<title>&#45;19&#45;&gt;69</title>
<path fill="none" stroke="green" stroke-width="0.28" d="M369.93,-218.91C373.96,-210.59 380.23,-197.61 385.81,-186.09"/>
<polygon fill="green" stroke="green" stroke-width="0.28" points="388.87,-187.79 390.07,-177.26 382.57,-184.74 388.87,-187.79"/>
</g>
<!-- &#45;19&#45;&gt;70 -->
<g id="edge32" class="edge">
<title>&#45;19&#45;&gt;70</title>
<path fill="none" stroke="green" stroke-width="0.18" stroke-dasharray="1,5" d="M351.68,-219.22C348.74,-217.5 345.65,-215.71 342.75,-214.07 318.45,-200.28 290.42,-184.96 270.94,-174.41"/>
<polygon fill="green" stroke="green" stroke-width="0.18" points="272.83,-171.45 262.37,-169.78 269.5,-177.61 272.83,-171.45"/>
</g>
<!-- &#45;19&#45;&gt;71 -->
<g id="edge9" class="edge">
<title>&#45;19&#45;&gt;71</title>
<path fill="none" stroke="red" stroke-width="0.55" d="M363.96,-218.98C359.44,-195.29 349.39,-127.47 370.75,-77.72 377.53,-61.92 391.02,-48.11 402.93,-38.17"/>
<polygon fill="red" stroke="red" stroke-width="0.55" points="404.87,-41.1 410.56,-32.17 400.54,-35.6 404.87,-41.1"/>
</g>
<!-- &#45;19&#45;&gt;72 -->
<g id="edge12" class="edge">
<title>&#45;19&#45;&gt;72</title>
<path fill="none" stroke="green" stroke-width="0.4" stroke-dasharray="1,5" d="M352.42,-219C349.32,-217.22 345.98,-215.46 342.75,-214.07 290.46,-191.48 271.78,-201.24 219.75,-178.07 218.56,-177.54 217.36,-176.96 216.16,-176.36"/>
<polygon fill="green" stroke="green" stroke-width="0.4" points="218.17,-173.47 207.74,-171.61 214.73,-179.57 218.17,-173.47"/>
</g>
<!-- &#45;20 -->
<g id="node20" class="node">
<title>&#45;20</title>
<polygon fill="lightgray" stroke="black" points="509.75,-237.81 481.75,-237.81 481.75,-219.31 509.75,-219.31 509.75,-237.81"/>
<text text-anchor="middle" x="495.75" y="-225.26" font-family="Times,serif" font-size="9.00">&#45;20</text>
</g>
<!-- &#45;20&#45;&gt;70 -->
<g id="edge24" class="edge">
<title>&#45;20&#45;&gt;70</title>
<path fill="none" stroke="green" stroke-width="0.38" stroke-dasharray="1,5" d="M482.47,-218.86C479.37,-217.09 476.02,-215.37 472.75,-214.07 404.43,-186.79 318.58,-171.62 274.98,-165.17"/>
<polygon fill="green" stroke="green" stroke-width="0.38" points="275.56,-161.72 265.17,-163.76 274.57,-168.65 275.56,-161.72"/>
</g>
<!-- &#45;20&#45;&gt;71 -->
<g id="edge27" class="edge">
<title>&#45;20&#45;&gt;71</title>
<path fill="none" stroke="red" stroke-width="0.12" d="M495.09,-219.1C493.03,-195.72 485.49,-128.6 463.75,-77.72 458.42,-65.25 450.15,-52.65 442.69,-42.58"/>
<polygon fill="red" stroke="red" stroke-width="0.12" points="445.67,-40.72 436.8,-34.92 440.12,-44.98 445.67,-40.72"/>
</g>
<!-- 0 -->
<g id="node21" class="node">
<title>0</title>
<ellipse fill="lightblue" stroke="black" cx="820.75" cy="-228.56" rx="14.5" ry="14.5"/>
<text text-anchor="middle" x="820.75" y="-225.26" font-family="Times,serif" font-size="9.00">0</text>
</g>
<!-- 1 -->
<g id="node22" class="node">
<title>1</title>
<ellipse fill="lightblue" stroke="black" cx="195.75" cy="-92.21" rx="14.5" ry="14.5"/>
<text text-anchor="middle" x="195.75" y="-88.91" font-family="Times,serif" font-size="9.00">1</text>
</g>
<!-- 2 -->
<g id="node23" class="node">
<title>2</title>
<ellipse fill="lightblue" stroke="black" cx="245.75" cy="-92.21" rx="14.5" ry="14.5"/>
<text text-anchor="middle" x="245.75" y="-88.91" font-family="Times,serif" font-size="9.00">2</text>
</g>
<!-- 2&#45;&gt;2 -->
<g id="edge35" class="edge">
<title>2&#45;&gt;2</title>
<path fill="none" stroke="red" stroke-width="0.38" stroke-dasharray="1,5" d="M256.4,-102.37C266.81,-107.98 278.25,-104.6 278.25,-92.21 278.25,-83.9 273.08,-79.64 266.54,-79.44"/>
<polygon fill="red" stroke="red" stroke-width="0.38" points="265.76,-76.03 256.95,-81.91 267.51,-82.8 265.76,-76.03"/>
</g>
<!-- 2&#45;&gt;71 -->
<g id="edge43" class="edge">
<title>2&#45;&gt;71</title>
<path fill="none" stroke="green" stroke-width="0.13" d="M259.28,-86C289.2,-74.47 361.41,-46.65 400.16,-31.72"/>
<polygon fill="green" stroke="green" stroke-width="0.13" points="400.98,-35.15 409.06,-28.29 398.47,-28.62 400.98,-35.15"/>
</g>
<!-- 393 -->
<g id="node30" class="node">
<title>393</title>
<ellipse fill="white" stroke="black" cx="245.75" cy="-20.86" rx="20.86" ry="20.86"/>
<text text-anchor="middle" x="245.75" y="-17.56" font-family="Times,serif" font-size="9.00">393</text>
</g>
<!-- 2&#45;&gt;393 -->
<g id="edge41" class="edge">
<title>2&#45;&gt;393</title>
<path fill="none" stroke="red" stroke-width="0.14" d="M240.39,-78.49C239.26,-70.86 238.82,-60.8 239.07,-51.29"/>
<polygon fill="red" stroke="red" stroke-width="0.14" points="242.55,-51.71 239.6,-41.53 235.56,-51.32 242.55,-51.71"/>
</g>
<!-- 4 -->
<g id="node25" class="node">
<title>4</title>
<ellipse fill="lightblue" stroke="black" cx="440.75" cy="-92.21" rx="14.5" ry="14.5"/>
<text text-anchor="middle" x="440.75" y="-88.91" font-family="Times,serif" font-size="9.00">4</text>
</g>
<!-- 69&#45;&gt;4 -->
<g id="edge40" class="edge">
<title>69&#45;&gt;4</title>
<path fill="none" stroke="green" stroke-width="0.15" stroke-dasharray="1,5" d="M407.08,-145.03C413.12,-135.74 421.06,-123.51 427.72,-113.27"/>
<polygon fill="green" stroke="green" stroke-width="0.15" points="430.52,-115.39 433.03,-105.09 424.65,-111.57 430.52,-115.39"/>
</g>
<!-- 69&#45;&gt;69 -->
<g id="edge7" class="edge">
<title>69&#45;&gt;69</title>
<path fill="none" stroke="green" stroke-width="0.25" stroke-dasharray="1,5" d="M411.67,-171.52C422.44,-175.68 433.43,-171.97 433.43,-160.39 433.43,-152.42 428.23,-148.18 421.49,-147.66"/>
<polygon fill="green" stroke="green" stroke-width="0.25" points="421.35,-144.14 412.04,-149.2 422.47,-151.05 421.35,-144.14"/>
</g>
<!-- 70&#45;&gt;1 -->
<g id="edge13" class="edge">
<title>70&#45;&gt;1</title>
<path fill="none" stroke="red" stroke-width="0.81" d="M236.18,-145.68C228.87,-136.19 219.03,-123.42 210.89,-112.86"/>
<polygon fill="red" stroke="red" stroke-width="0.81" points="213.9,-111.03 205.02,-105.25 208.35,-115.3 213.9,-111.03"/>
</g>
<!-- 70&#45;&gt;2 -->
<g id="edge19" class="edge">
<title>70&#45;&gt;2</title>
<path fill="none" stroke="green" stroke-width="0.31" stroke-dasharray="1,5" d="M246.49,-142.35C246.38,-134.68 246.24,-125.49 246.11,-117.15"/>
<polygon fill="green" stroke="green" stroke-width="0.31" points="249.61,-117.28 245.96,-107.34 242.61,-117.39 249.61,-117.28"/>
</g>
<!-- 72&#45;&gt;1 -->
<g id="edge18" class="edge">
<title>72&#45;&gt;1</title>
<path fill="none" stroke="red" stroke-width="0.25" d="M193.52,-142.35C193.87,-134.68 194.29,-125.49 194.66,-117.15"/>
<polygon fill="red" stroke="red" stroke-width="0.25" points="198.16,-117.4 195.11,-107.25 191.16,-117.08 198.16,-117.4"/>
</g>
<!-- 72&#45;&gt;3 -->
<g id="edge22" class="edge">
<title>72&#45;&gt;3</title>
<path fill="none" stroke="green" stroke-width="0.22" d="M207.2,-149.45C211.15,-147.02 215.52,-144.58 219.75,-142.71 246.86,-130.76 328.5,-109.55 369.58,-99.21"/>
<polygon fill="green" stroke="green" stroke-width="0.22" points="370.39,-102.62 379.24,-96.79 368.69,-95.82 370.39,-102.62"/>
</g>
<!-- 393&#45;&gt;2 -->
<g id="edge42" class="edge">
<title>393&#45;&gt;2</title>
<path fill="none" stroke="red" stroke-width="0.18" d="M251.89,-41.31C252.61,-49.77 252.69,-59.74 252.13,-68.53"/>
<polygon fill="red" stroke="red" stroke-width="0.18" points="248.67,-67.92 251.14,-78.22 255.64,-68.63 248.67,-67.92"/>
</g>
</g>
</svg>
