<?xml version="1.0" encoding="UTF-8" standalone="no"?>
<!DOCTYPE svg PUBLIC "-//W3C//DTD SVG 1.1//EN"
 "http://www.w3.org/Graphics/SVG/1.1/DTD/svg11.dtd">
<!-- Generated by graphviz version 12.1.1 (20240910.0053)
 -->
<!-- Pages: 1 -->
<svg width="985pt" height="180pt"
 viewBox="0.00 0.00 985.25 179.70" xmlns="http://www.w3.org/2000/svg" xmlns:xlink="http://www.w3.org/1999/xlink">
<g id="graph0" class="graph" transform="scale(1 1) rotate(0) translate(4 175.7)">
<polygon fill="white" stroke="none" points="-4,4 -4,-175.7 981.25,-175.7 981.25,4 -4,4"/>
<!-- &#45;1 -->
<g id="node1" class="node">
<title>&#45;1</title>
<polygon fill="lightgray" stroke="black" points="23.5,-166.46 0,-166.46 0,-147.96 23.5,-147.96 23.5,-166.46"/>
<text text-anchor="middle" x="11.75" y="-153.91" font-family="Times,serif" font-size="9.00">&#45;1</text>
</g>
<!-- &#45;2 -->
<g id="node2" class="node">
<title>&#45;2</title>
<polygon fill="lightgray" stroke="black" points="153.5,-166.46 130,-166.46 130,-147.96 153.5,-147.96 153.5,-166.46"/>
<text text-anchor="middle" x="141.75" y="-153.91" font-family="Times,serif" font-size="9.00">&#45;2</text>
</g>
<!-- 192 -->
<g id="node26" class="node">
<title>192</title>
<ellipse fill="white" stroke="black" cx="225.75" cy="-85.85" rx="20.86" ry="20.86"/>
<text text-anchor="middle" x="225.75" y="-82.55" font-family="Times,serif" font-size="9.00">192</text>
</g>
<!-- &#45;2&#45;&gt;192 -->
<g id="edge41" class="edge">
<title>&#45;2&#45;&gt;192</title>
<path fill="none" stroke="green" stroke-width="0.25" d="M152.05,-147.7C164.47,-137.44 185.75,-119.88 202.25,-106.25"/>
<polygon fill="green" stroke="green" stroke-width="0.25" points="204.14,-109.23 209.62,-100.17 199.68,-103.83 204.14,-109.23"/>
</g>
<!-- 191 -->
<g id="node29" class="node">
<title>191</title>
<ellipse fill="white" stroke="black" cx="379.75" cy="-85.85" rx="20.86" ry="20.86"/>
<text text-anchor="middle" x="379.75" y="-82.55" font-family="Times,serif" font-size="9.00">191</text>
</g>
<!-- &#45;2&#45;&gt;191 -->
<g id="edge17" class="edge">
<title>&#45;2&#45;&gt;191</title>
<path fill="none" stroke="red" stroke-width="0.17" stroke-dasharray="1,5" d="M153.32,-147.68C156.28,-145.81 159.53,-144.01 162.75,-142.71 239.22,-111.88 267.46,-135.43 344.75,-106.71 347.67,-105.63 350.63,-104.32 353.53,-102.9"/>
<polygon fill="red" stroke="red" stroke-width="0.17" points="355.09,-106.03 362.25,-98.22 351.79,-99.86 355.09,-106.03"/>
</g>
<!-- &#45;3 -->
<g id="node3" class="node">
<title>&#45;3</title>
<polygon fill="lightgray" stroke="black" points="237.5,-166.46 214,-166.46 214,-147.96 237.5,-147.96 237.5,-166.46"/>
<text text-anchor="middle" x="225.75" y="-153.91" font-family="Times,serif" font-size="9.00">&#45;3</text>
</g>
<!-- &#45;3&#45;&gt;192 -->
<g id="edge34" class="edge">
<title>&#45;3&#45;&gt;192</title>
<path fill="none" stroke="green" stroke-width="0.53" stroke-dasharray="1,5" d="M225.75,-147.7C225.75,-140.16 225.75,-128.67 225.75,-117.7"/>
<polygon fill="green" stroke="green" stroke-width="0.53" points="229.25,-117.86 225.75,-107.86 222.25,-117.86 229.25,-117.86"/>
</g>
<!-- 189 -->
<g id="node27" class="node">
<title>189</title>
<ellipse fill="white" stroke="black" cx="296.75" cy="-85.85" rx="20.86" ry="20.86"/>
<text text-anchor="middle" x="296.75" y="-82.55" font-family="Times,serif" font-size="9.00">189</text>
</g>
<!-- &#45;3&#45;&gt;189 -->
<g id="edge3" class="edge">
<title>&#45;3&#45;&gt;189</title>
<path fill="none" stroke="red" stroke-width="0.3" d="M234.46,-147.7C244.45,-137.94 261.23,-121.55 274.86,-108.24"/>
<polygon fill="red" stroke="red" stroke-width="0.3" points="277.01,-111.03 281.72,-101.54 272.12,-106.02 277.01,-111.03"/>
</g>
<!-- 190 -->
<g id="node28" class="node">
<title>190</title>
<ellipse fill="white" stroke="black" cx="439.75" cy="-85.85" rx="20.86" ry="20.86"/>
<text text-anchor="middle" x="439.75" y="-82.55" font-family="Times,serif" font-size="9.00">190</text>
</g>
<!-- &#45;3&#45;&gt;190 -->
<g id="edge1" class="edge">
<title>&#45;3&#45;&gt;190</title>
<path fill="none" stroke="red" stroke-width="0.33" d="M237.34,-147.73C240.3,-145.86 243.55,-144.04 246.75,-142.71 315.25,-114.21 341.45,-135.67 409.75,-106.71 411.33,-106.04 412.92,-105.28 414.49,-104.47"/>
<polygon fill="red" stroke="red" stroke-width="0.33" points="415.94,-107.68 422.8,-99.59 412.4,-101.64 415.94,-107.68"/>
</g>
<!-- &#45;3&#45;&gt;191 -->
<g id="edge9" class="edge">
<title>&#45;3&#45;&gt;191</title>
<path fill="none" stroke="green" stroke-width="0.15" stroke-dasharray="1,5" d="M237.92,-147.75C240.75,-145.96 243.8,-144.18 246.75,-142.71 288.29,-122.04 302.65,-126.23 344.75,-106.71 347.57,-105.4 350.48,-103.95 353.34,-102.44"/>
<polygon fill="green" stroke="green" stroke-width="0.15" points="354.97,-105.54 362.04,-97.64 351.59,-99.4 354.97,-105.54"/>
</g>
<!-- &#45;4 -->
<g id="node4" class="node">
<title>&#45;4</title>
<polygon fill="lightgray" stroke="black" points="279.5,-166.46 256,-166.46 256,-147.96 279.5,-147.96 279.5,-166.46"/>
<text text-anchor="middle" x="267.75" y="-153.91" font-family="Times,serif" font-size="9.00">&#45;4</text>
</g>
<!-- &#45;4&#45;&gt;192 -->
<g id="edge2" class="edge">
<title>&#45;4&#45;&gt;192</title>
<path fill="none" stroke="red" stroke-width="0.35" stroke-dasharray="1,5" d="M262.6,-147.7C257.4,-139.11 249.09,-125.4 241.69,-113.17"/>
<polygon fill="red" stroke="red" stroke-width="0.35" points="244.71,-111.4 236.54,-104.66 238.72,-115.03 244.71,-111.4"/>
</g>
<!-- &#45;4&#45;&gt;189 -->
<g id="edge20" class="edge">
<title>&#45;4&#45;&gt;189</title>
<path fill="none" stroke="green" stroke-width="0.19" d="M271.31,-147.7C274.71,-139.56 280.03,-126.83 284.94,-115.1"/>
<polygon fill="green" stroke="green" stroke-width="0.19" points="288.16,-116.46 288.79,-105.88 281.71,-113.76 288.16,-116.46"/>
</g>
<!-- &#45;4&#45;&gt;190 -->
<g id="edge4" class="edge">
<title>&#45;4&#45;&gt;190</title>
<path fill="none" stroke="green" stroke-width="0.28" stroke-dasharray="1,5" d="M279.86,-147.61C282.69,-145.83 285.76,-144.08 288.75,-142.71 339.75,-119.31 358.91,-130.46 409.75,-106.71 411.31,-105.98 412.87,-105.18 414.43,-104.34"/>
<polygon fill="green" stroke="green" stroke-width="0.28" points="416,-107.48 422.76,-99.32 412.39,-101.48 416,-107.48"/>
</g>
<!-- &#45;4&#45;&gt;191 -->
<g id="edge21" class="edge">
<title>&#45;4&#45;&gt;191</title>
<path fill="none" stroke="red" stroke-width="0.52" stroke-dasharray="1,5" d="M279.72,-148.46C282.66,-146.56 285.81,-144.55 288.75,-142.71 310.41,-129.11 335.15,-113.94 353.36,-102.85"/>
<polygon fill="red" stroke="red" stroke-width="0.52" points="354.84,-106.05 361.57,-97.86 351.21,-100.07 354.84,-106.05"/>
</g>
<!-- &#45;5 -->
<g id="node5" class="node">
<title>&#45;5</title>
<polygon fill="lightgray" stroke="black" points="111.5,-166.46 88,-166.46 88,-147.96 111.5,-147.96 111.5,-166.46"/>
<text text-anchor="middle" x="99.75" y="-153.91" font-family="Times,serif" font-size="9.00">&#45;5</text>
</g>
<!-- &#45;5&#45;&gt;192 -->
<g id="edge5" class="edge">
<title>&#45;5&#45;&gt;192</title>
<path fill="none" stroke="red" stroke-width="0.22" d="M111.64,-148.33C114.59,-146.44 117.76,-144.46 120.75,-142.71 146.55,-127.59 176.76,-111.7 198.14,-100.75"/>
<polygon fill="red" stroke="red" stroke-width="0.22" points="199.67,-103.9 206.99,-96.24 196.49,-97.66 199.67,-103.9"/>
</g>
<!-- &#45;5&#45;&gt;189 -->
<g id="edge35" class="edge">
<title>&#45;5&#45;&gt;189</title>
<path fill="none" stroke="red" stroke-width="0.28" stroke-dasharray="1,5" d="M111.83,-147.55C114.66,-145.77 117.74,-144.04 120.75,-142.71 177.55,-117.62 197.54,-128.34 255.75,-106.71 260.33,-105.01 265.08,-102.97 269.66,-100.86"/>
<polygon fill="red" stroke="red" stroke-width="0.28" points="270.83,-104.19 278.32,-96.69 267.79,-97.88 270.83,-104.19"/>
</g>
<!-- &#45;6 -->
<g id="node6" class="node">
<title>&#45;6</title>
<polygon fill="lightgray" stroke="black" points="819.5,-166.46 796,-166.46 796,-147.96 819.5,-147.96 819.5,-166.46"/>
<text text-anchor="middle" x="807.75" y="-153.91" font-family="Times,serif" font-size="9.00">&#45;6</text>
</g>
<!-- &#45;7 -->
<g id="node7" class="node">
<title>&#45;7</title>
<polygon fill="lightgray" stroke="black" points="321.5,-166.46 298,-166.46 298,-147.96 321.5,-147.96 321.5,-166.46"/>
<text text-anchor="middle" x="309.75" y="-153.91" font-family="Times,serif" font-size="9.00">&#45;7</text>
</g>
<!-- &#45;7&#45;&gt;189 -->
<g id="edge15" class="edge">
<title>&#45;7&#45;&gt;189</title>
<path fill="none" stroke="green" stroke-width="0.2" d="M308.16,-147.7C306.7,-139.95 304.47,-128.02 302.36,-116.77"/>
<polygon fill="green" stroke="green" stroke-width="0.2" points="305.82,-116.26 300.54,-107.07 298.94,-117.55 305.82,-116.26"/>
</g>
<!-- &#45;7&#45;&gt;190 -->
<g id="edge11" class="edge">
<title>&#45;7&#45;&gt;190</title>
<path fill="none" stroke="red" stroke-width="0.21" d="M321.56,-148.2C324.51,-146.31 327.71,-144.37 330.75,-142.71 364.62,-124.23 376,-125.42 409.75,-106.71 411.25,-105.88 412.78,-104.99 414.3,-104.08"/>
<polygon fill="red" stroke="red" stroke-width="0.21" points="416.04,-107.13 422.64,-98.84 412.31,-101.2 416.04,-107.13"/>
</g>
<!-- &#45;7&#45;&gt;191 -->
<g id="edge7" class="edge">
<title>&#45;7&#45;&gt;191</title>
<path fill="none" stroke="red" stroke-width="0.44" d="M318.33,-147.7C328.1,-138.03 344.43,-121.85 357.79,-108.61"/>
<polygon fill="red" stroke="red" stroke-width="0.44" points="360.13,-111.22 364.77,-101.69 355.2,-106.24 360.13,-111.22"/>
</g>
<!-- &#45;8 -->
<g id="node8" class="node">
<title>&#45;8</title>
<polygon fill="lightgray" stroke="black" points="195.5,-166.46 172,-166.46 172,-147.96 195.5,-147.96 195.5,-166.46"/>
<text text-anchor="middle" x="183.75" y="-153.91" font-family="Times,serif" font-size="9.00">&#45;8</text>
</g>
<!-- &#45;8&#45;&gt;189 -->
<g id="edge27" class="edge">
<title>&#45;8&#45;&gt;189</title>
<path fill="none" stroke="red" stroke-width="0.69" stroke-dasharray="1,5" d="M195.71,-148.45C198.66,-146.55 201.81,-144.55 204.75,-142.71 226.51,-129.11 251.4,-114.03 269.8,-102.97"/>
<polygon fill="red" stroke="red" stroke-width="0.69" points="271.36,-106.11 278.14,-97.96 267.76,-100.11 271.36,-106.11"/>
</g>
<!-- &#45;9 -->
<g id="node9" class="node">
<title>&#45;9</title>
<polygon fill="lightgray" stroke="black" points="593.5,-166.46 570,-166.46 570,-147.96 593.5,-147.96 593.5,-166.46"/>
<text text-anchor="middle" x="581.75" y="-153.91" font-family="Times,serif" font-size="9.00">&#45;9</text>
</g>
<!-- &#45;9&#45;&gt;190 -->
<g id="edge6" class="edge">
<title>&#45;9&#45;&gt;190</title>
<path fill="none" stroke="red" stroke-width="0.2" stroke-dasharray="1,5" d="M569.93,-148.21C566.98,-146.32 563.79,-144.38 560.75,-142.71 529.95,-125.81 493.12,-109.31 468.24,-98.67"/>
<polygon fill="red" stroke="red" stroke-width="0.2" points="469.86,-95.56 459.29,-94.88 467.13,-102 469.86,-95.56"/>
</g>
<!-- &#45;9&#45;&gt;191 -->
<g id="edge28" class="edge">
<title>&#45;9&#45;&gt;191</title>
<path fill="none" stroke="green" stroke-width="0.45" stroke-dasharray="1,5" d="M569.7,-147.49C566.86,-145.71 563.78,-144 560.75,-142.71 497.27,-115.68 473.04,-134.17 409.75,-106.71 408.32,-106.09 406.88,-105.4 405.45,-104.66"/>
<polygon fill="green" stroke="green" stroke-width="0.45" points="407.28,-101.68 396.88,-99.63 403.73,-107.71 407.28,-101.68"/>
</g>
<!-- &#45;10 -->
<g id="node10" class="node">
<title>&#45;10</title>
<polygon fill="lightgray" stroke="black" points="367.75,-166.46 339.75,-166.46 339.75,-147.96 367.75,-147.96 367.75,-166.46"/>
<text text-anchor="middle" x="353.75" y="-153.91" font-family="Times,serif" font-size="9.00">&#45;10</text>
</g>
<!-- &#45;10&#45;&gt;189 -->
<g id="edge12" class="edge">
<title>&#45;10&#45;&gt;189</title>
<path fill="none" stroke="red" stroke-width="0.29" d="M346.76,-147.7C339.2,-138.5 326.81,-123.43 316.26,-110.59"/>
<polygon fill="red" stroke="red" stroke-width="0.29" points="318.99,-108.4 309.94,-102.9 313.58,-112.85 318.99,-108.4"/>
</g>
<!-- &#45;10&#45;&gt;190 -->
<g id="edge25" class="edge">
<title>&#45;10&#45;&gt;190</title>
<path fill="none" stroke="green" stroke-width="0.32" d="M364.3,-147.7C377.09,-137.38 399.06,-119.67 416,-106"/>
<polygon fill="green" stroke="green" stroke-width="0.32" points="417.88,-108.98 423.47,-99.98 413.49,-103.53 417.88,-108.98"/>
</g>
<!-- &#45;10&#45;&gt;191 -->
<g id="edge33" class="edge">
<title>&#45;10&#45;&gt;191</title>
<path fill="none" stroke="red" stroke-width="0.31" d="M356.94,-147.7C359.94,-139.7 364.6,-127.25 368.94,-115.7"/>
<polygon fill="red" stroke="red" stroke-width="0.31" points="372.21,-116.93 372.44,-106.34 365.66,-114.48 372.21,-116.93"/>
</g>
<!-- &#45;11 -->
<g id="node11" class="node">
<title>&#45;11</title>
<polygon fill="lightgray" stroke="black" points="413.75,-166.46 385.75,-166.46 385.75,-147.96 413.75,-147.96 413.75,-166.46"/>
<text text-anchor="middle" x="399.75" y="-153.91" font-family="Times,serif" font-size="9.00">&#45;11</text>
</g>
<!-- &#45;11&#45;&gt;189 -->
<g id="edge30" class="edge">
<title>&#45;11&#45;&gt;189</title>
<path fill="none" stroke="red" stroke-width="0.34" stroke-dasharray="1,5" d="M387.12,-147.7C371.12,-136.93 343.14,-118.09 322.54,-104.22"/>
<polygon fill="red" stroke="red" stroke-width="0.34" points="324.63,-101.4 314.38,-98.72 320.72,-107.21 324.63,-101.4"/>
</g>
<!-- &#45;11&#45;&gt;190 -->
<g id="edge22" class="edge">
<title>&#45;11&#45;&gt;190</title>
<path fill="none" stroke="green" stroke-width="0.15" stroke-dasharray="1,5" d="M404.65,-147.7C409.62,-139.09 417.56,-125.32 424.64,-113.05"/>
<polygon fill="green" stroke="green" stroke-width="0.15" points="427.5,-115.09 429.47,-104.68 421.44,-111.59 427.5,-115.09"/>
</g>
<!-- &#45;11&#45;&gt;191 -->
<g id="edge16" class="edge">
<title>&#45;11&#45;&gt;191</title>
<path fill="none" stroke="red" stroke-width="0.48" d="M397.3,-147.7C395.03,-139.84 391.52,-127.68 388.24,-116.29"/>
<polygon fill="red" stroke="red" stroke-width="0.48" points="391.66,-115.54 385.53,-106.9 384.94,-117.48 391.66,-115.54"/>
</g>
<!-- &#45;12 -->
<g id="node12" class="node">
<title>&#45;12</title>
<polygon fill="lightgray" stroke="black" points="731.75,-166.46 703.75,-166.46 703.75,-147.96 731.75,-147.96 731.75,-166.46"/>
<text text-anchor="middle" x="717.75" y="-153.91" font-family="Times,serif" font-size="9.00">&#45;12</text>
</g>
<!-- &#45;12&#45;&gt;190 -->
<g id="edge24" class="edge">
<title>&#45;12&#45;&gt;190</title>
<path fill="none" stroke="red" stroke-width="0.13" d="M704.49,-147.48C701.38,-145.7 698.03,-143.99 694.75,-142.71 617.1,-112.31 519.34,-96.75 470.49,-90.41"/>
<polygon fill="red" stroke="red" stroke-width="0.13" points="471.11,-86.96 460.75,-89.18 470.24,-93.9 471.11,-86.96"/>
</g>
<!-- &#45;13 -->
<g id="node13" class="node">
<title>&#45;13</title>
<polygon fill="lightgray" stroke="black" points="639.75,-166.46 611.75,-166.46 611.75,-147.96 639.75,-147.96 639.75,-166.46"/>
<text text-anchor="middle" x="625.75" y="-153.91" font-family="Times,serif" font-size="9.00">&#45;13</text>
</g>
<!-- &#45;13&#45;&gt;190 -->
<g id="edge23" class="edge">
<title>&#45;13&#45;&gt;190</title>
<path fill="none" stroke="green" stroke-width="0.59" d="M611.88,-147.47C608.92,-145.78 605.78,-144.1 602.75,-142.71 558.17,-122.25 503.83,-105.08 470.52,-95.38"/>
<polygon fill="green" stroke="green" stroke-width="0.59" points="471.52,-92.03 460.94,-92.64 469.59,-98.76 471.52,-92.03"/>
</g>
<!-- &#45;13&#45;&gt;191 -->
<g id="edge14" class="edge">
<title>&#45;13&#45;&gt;191</title>
<path fill="none" stroke="green" stroke-width="0.12" d="M613,-147.68C609.77,-145.81 606.22,-144.01 602.75,-142.71 521.01,-112.17 490.63,-139.45 409.75,-106.71 408.16,-106.07 406.56,-105.33 404.98,-104.53"/>
<polygon fill="green" stroke="green" stroke-width="0.12" points="406.78,-101.53 396.38,-99.53 403.27,-107.58 406.78,-101.53"/>
</g>
<!-- &#45;14 -->
<g id="node14" class="node">
<title>&#45;14</title>
<polygon fill="lightgray" stroke="black" points="459.75,-166.46 431.75,-166.46 431.75,-147.96 459.75,-147.96 459.75,-166.46"/>
<text text-anchor="middle" x="445.75" y="-153.91" font-family="Times,serif" font-size="9.00">&#45;14</text>
</g>
<!-- &#45;14&#45;&gt;189 -->
<g id="edge13" class="edge">
<title>&#45;14&#45;&gt;189</title>
<path fill="none" stroke="red" stroke-width="0.22" d="M431.78,-147.67C428.83,-145.97 425.72,-144.23 422.75,-142.71 389.9,-125.86 350.88,-109.03 325.06,-98.32"/>
<polygon fill="red" stroke="red" stroke-width="0.22" points="326.73,-95.22 316.15,-94.65 324.06,-101.69 326.73,-95.22"/>
</g>
<!-- &#45;14&#45;&gt;190 -->
<g id="edge29" class="edge">
<title>&#45;14&#45;&gt;190</title>
<path fill="none" stroke="red" stroke-width="0.4" d="M445.01,-147.7C444.36,-140.08 443.35,-128.43 442.39,-117.35"/>
<polygon fill="red" stroke="red" stroke-width="0.4" points="445.9,-117.32 441.55,-107.66 438.93,-117.92 445.9,-117.32"/>
</g>
<!-- &#45;15 -->
<g id="node15" class="node">
<title>&#45;15</title>
<polygon fill="lightgray" stroke="black" points="69.75,-166.46 41.75,-166.46 41.75,-147.96 69.75,-147.96 69.75,-166.46"/>
<text text-anchor="middle" x="55.75" y="-153.91" font-family="Times,serif" font-size="9.00">&#45;15</text>
</g>
<!-- &#45;15&#45;&gt;192 -->
<g id="edge37" class="edge">
<title>&#45;15&#45;&gt;192</title>
<path fill="none" stroke="green" stroke-width="0.15" stroke-dasharray="1,5" d="M69.66,-147.55C72.61,-145.85 75.74,-144.15 78.75,-142.71 118.34,-123.74 166.2,-106.56 196.32,-96.41"/>
<polygon fill="green" stroke="green" stroke-width="0.15" points="197.22,-99.79 205.6,-93.31 195,-93.15 197.22,-99.79"/>
</g>
<!-- &#45;16 -->
<g id="node16" class="node">
<title>&#45;16</title>
<polygon fill="lightgray" stroke="black" points="777.75,-166.46 749.75,-166.46 749.75,-147.96 777.75,-147.96 777.75,-166.46"/>
<text text-anchor="middle" x="763.75" y="-153.91" font-family="Times,serif" font-size="9.00">&#45;16</text>
</g>
<!-- &#45;16&#45;&gt;190 -->
<g id="edge40" class="edge">
<title>&#45;16&#45;&gt;190</title>
<path fill="none" stroke="green" stroke-width="0.23" d="M751.01,-147.68C747.77,-145.81 744.22,-144.01 740.75,-142.71 646.45,-107.53 526.95,-93.83 471.14,-89.08"/>
<polygon fill="green" stroke="green" stroke-width="0.23" points="471.45,-85.6 461.2,-88.28 470.89,-92.57 471.45,-85.6"/>
</g>
<!-- &#45;17 -->
<g id="node17" class="node">
<title>&#45;17</title>
<polygon fill="lightgray" stroke="black" points="685.75,-166.46 657.75,-166.46 657.75,-147.96 685.75,-147.96 685.75,-166.46"/>
<text text-anchor="middle" x="671.75" y="-153.91" font-family="Times,serif" font-size="9.00">&#45;17</text>
</g>
<!-- &#45;17&#45;&gt;190 -->
<g id="edge31" class="edge">
<title>&#45;17&#45;&gt;190</title>
<path fill="none" stroke="green" stroke-width="0.29" stroke-dasharray="1,5" d="M658.44,-147.59C655.34,-145.81 652,-144.07 648.75,-142.71 587.86,-117.26 512.1,-100.43 470.56,-92.38"/>
<polygon fill="green" stroke="green" stroke-width="0.29" points="471.43,-88.98 460.96,-90.56 470.13,-95.86 471.43,-88.98"/>
</g>
<!-- &#45;17&#45;&gt;191 -->
<g id="edge10" class="edge">
<title>&#45;17&#45;&gt;191</title>
<path fill="none" stroke="green" stroke-width="0.4" d="M659.04,-147.59C655.8,-145.73 652.24,-143.95 648.75,-142.71 547.48,-106.88 510.01,-145.27 409.75,-106.71 408.11,-106.08 406.46,-105.35 404.83,-104.54"/>
<polygon fill="green" stroke="green" stroke-width="0.4" points="406.79,-101.63 396.38,-99.66 403.29,-107.69 406.79,-101.63"/>
</g>
<!-- &#45;18 -->
<g id="node18" class="node">
<title>&#45;18</title>
<polygon fill="lightgray" stroke="black" points="505.75,-166.46 477.75,-166.46 477.75,-147.96 505.75,-147.96 505.75,-166.46"/>
<text text-anchor="middle" x="491.75" y="-153.91" font-family="Times,serif" font-size="9.00">&#45;18</text>
</g>
<!-- &#45;18&#45;&gt;191 -->
<g id="edge42" class="edge">
<title>&#45;18&#45;&gt;191</title>
<path fill="none" stroke="red" stroke-width="0.25" stroke-dasharray="1,5" d="M477.42,-147.8C460.96,-138.09 433.22,-121.55 409.75,-106.71 408.3,-105.79 406.81,-104.84 405.32,-103.88"/>
<polygon fill="red" stroke="red" stroke-width="0.25" points="407.41,-101.06 397.12,-98.52 403.58,-106.92 407.41,-101.06"/>
</g>
<!-- &#45;19 -->
<g id="node19" class="node">
<title>&#45;19</title>
<polygon fill="lightgray" stroke="black" points="865.75,-166.46 837.75,-166.46 837.75,-147.96 865.75,-147.96 865.75,-166.46"/>
<text text-anchor="middle" x="851.75" y="-153.91" font-family="Times,serif" font-size="9.00">&#45;19</text>
</g>
<!-- &#45;20 -->
<g id="node20" class="node">
<title>&#45;20</title>
<polygon fill="lightgray" stroke="black" points="551.75,-166.46 523.75,-166.46 523.75,-147.96 551.75,-147.96 551.75,-166.46"/>
<text text-anchor="middle" x="537.75" y="-153.91" font-family="Times,serif" font-size="9.00">&#45;20</text>
</g>
<!-- &#45;20&#45;&gt;191 -->
<g id="edge36" class="edge">
<title>&#45;20&#45;&gt;191</title>
<path fill="none" stroke="green" stroke-width="0.18" stroke-dasharray="1,5" d="M523.88,-147.47C520.92,-145.78 517.78,-144.1 514.75,-142.71 469.92,-122.12 454.01,-128.5 409.75,-106.71 408.21,-105.95 406.65,-105.13 405.1,-104.26"/>
<polygon fill="green" stroke="green" stroke-width="0.18" points="407.02,-101.33 396.66,-99.11 403.38,-107.31 407.02,-101.33"/>
</g>
<!-- 0 -->
<g id="node21" class="node">
<title>0</title>
<ellipse fill="lightblue" stroke="black" cx="897.75" cy="-157.21" rx="14.5" ry="14.5"/>
<text text-anchor="middle" x="897.75" y="-153.91" font-family="Times,serif" font-size="9.00">0</text>
</g>
<!-- 0&#45;&gt;0 -->
<g id="edge38" class="edge">
<title>0&#45;&gt;0</title>
<path fill="none" stroke="green" stroke-width="0.16" d="M908.07,-167.65C918.56,-173.79 930.25,-170.31 930.25,-157.21 930.25,-148.2 924.72,-143.74 917.86,-143.83"/>
<polygon fill="green" stroke="green" stroke-width="0.16" points="916.87,-140.47 908.3,-146.7 918.89,-147.18 916.87,-140.47"/>
</g>
<!-- 1 -->
<g id="node22" class="node">
<title>1</title>
<ellipse fill="lightblue" stroke="black" cx="286.75" cy="-14.5" rx="14.5" ry="14.5"/>
<text text-anchor="middle" x="286.75" y="-11.2" font-family="Times,serif" font-size="9.00">1</text>
</g>
<!-- 2 -->
<g id="node23" class="node">
<title>2</title>
<ellipse fill="lightblue" stroke="black" cx="962.75" cy="-157.21" rx="14.5" ry="14.5"/>
<text text-anchor="middle" x="962.75" y="-153.91" font-family="Times,serif" font-size="9.00">2</text>
</g>
<!-- 3 -->
<g id="node24" class="node">
<title>3</title>
<ellipse fill="lightblue" stroke="black" cx="355.75" cy="-14.5" rx="14.5" ry="14.5"/>
<text text-anchor="middle" x="355.75" y="-11.2" font-family="Times,serif" font-size="9.00">3</text>
</g>
<!-- 4 -->
<g id="node25" class="node">
<title>4</title>
<ellipse fill="lightblue" stroke="black" cx="402.75" cy="-14.5" rx="14.5" ry="14.5"/>
<text text-anchor="middle" x="402.75" y="-11.2" font-family="Times,serif" font-size="9.00">4</text>
</g>
<!-- 192&#45;&gt;1 -->
<g id="edge8" class="edge">
<title>192&#45;&gt;1</title>
<path fill="none" stroke="green" stroke-width="0.18" d="M239.29,-69.46C248.67,-58.8 261.18,-44.57 271,-33.4"/>
<polygon fill="green" stroke="green" stroke-width="0.18" points="273.45,-35.92 277.42,-26.1 268.19,-31.3 273.45,-35.92"/>
</g>
<!-- 192&#45;&gt;3 -->
<g id="edge32" class="edge">
<title>192&#45;&gt;3</title>
<path fill="none" stroke="red" stroke-width="0.15" d="M244.1,-75.06C267.81,-62.41 309.01,-40.43 334.19,-27"/>
<polygon fill="red" stroke="red" stroke-width="0.15" points="335.6,-30.21 342.78,-22.42 332.31,-24.03 335.6,-30.21"/>
</g>
<!-- 189&#45;&gt;189 -->
<g id="edge19" class="edge">
<title>189&#45;&gt;189</title>
<path fill="none" stroke="green" stroke-width="0.49" stroke-dasharray="1,5" d="M313.93,-98.17C324.98,-101.39 335.61,-97.28 335.61,-85.85 335.61,-78.17 330.81,-73.8 324.31,-72.73"/>
<polygon fill="green" stroke="green" stroke-width="0.49" points="324.37,-69.22 314.67,-73.47 324.91,-76.2 324.37,-69.22"/>
</g>
<!-- 190&#45;&gt;1 -->
<g id="edge39" class="edge">
<title>190&#45;&gt;1</title>
<path fill="none" stroke="red" stroke-width="0.32" d="M422.98,-72.89C418.76,-70.13 414.17,-67.32 409.75,-64.99 376.41,-47.48 335.44,-32.13 310.21,-23.34"/>
<polygon fill="red" stroke="red" stroke-width="0.32" points="311.48,-20.07 300.89,-20.14 309.21,-26.69 311.48,-20.07"/>
</g>
<!-- 190&#45;&gt;3 -->
<g id="edge26" class="edge">
<title>190&#45;&gt;3</title>
<path fill="none" stroke="red" stroke-width="0.3" d="M423.95,-71.81C409.97,-60.26 389.53,-43.39 374.68,-31.12"/>
<polygon fill="red" stroke="red" stroke-width="0.3" points="376.95,-28.46 367.01,-24.8 372.5,-33.86 376.95,-28.46"/>
</g>
<!-- 191&#45;&gt;3 -->
<g id="edge43" class="edge">
<title>191&#45;&gt;3</title>
<path fill="none" stroke="green" stroke-width="0.32" stroke-dasharray="1,5" d="M373.19,-65.9C370.24,-57.37 366.73,-47.22 363.63,-38.28"/>
<polygon fill="green" stroke="green" stroke-width="0.32" points="366.99,-37.27 360.41,-28.96 360.37,-39.56 366.99,-37.27"/>
</g>
<!-- 191&#45;&gt;4 -->
<g id="edge18" class="edge">
<title>191&#45;&gt;4</title>
<path fill="none" stroke="green" stroke-width="0.71" d="M386.16,-65.53C388.86,-57.39 392.02,-47.84 394.86,-39.28"/>
<polygon fill="green" stroke="green" stroke-width="0.71" points="398.18,-40.4 398,-29.81 391.53,-38.2 398.18,-40.4"/>
</g>
</g>
</svg>
