<?xml version="1.0" encoding="UTF-8" standalone="no"?>
<!DOCTYPE svg PUBLIC "-//W3C//DTD SVG 1.1//EN"
 "http://www.w3.org/Graphics/SVG/1.1/DTD/svg11.dtd">
<!-- Generated by graphviz version 12.1.1 (20240910.0053)
 -->
<!-- Pages: 1 -->
<svg width="897pt" height="257pt"
 viewBox="0.00 0.00 896.99 257.42" xmlns="http://www.w3.org/2000/svg" xmlns:xlink="http://www.w3.org/1999/xlink">
<g id="graph0" class="graph" transform="scale(1 1) rotate(0) translate(4 253.42)">
<polygon fill="white" stroke="none" points="-4,4 -4,-253.42 892.99,-253.42 892.99,4 -4,4"/>
<!-- &#45;1 -->
<g id="node1" class="node">
<title>&#45;1</title>
<polygon fill="lightgray" stroke="black" points="244.25,-244.18 220.75,-244.18 220.75,-225.68 244.25,-225.68 244.25,-244.18"/>
<text text-anchor="middle" x="232.5" y="-231.63" font-family="Times,serif" font-size="9.00">&#45;1</text>
</g>
<!-- 170 -->
<g id="node28" class="node">
<title>170</title>
<ellipse fill="white" stroke="black" cx="334.5" cy="-85.85" rx="20.86" ry="20.86"/>
<text text-anchor="middle" x="334.5" y="-82.55" font-family="Times,serif" font-size="9.00">170</text>
</g>
<!-- &#45;1&#45;&gt;170 -->
<g id="edge3" class="edge">
<title>&#45;1&#45;&gt;170</title>
<path fill="none" stroke="green" stroke-width="0.61" stroke-dasharray="1,5" d="M232.22,-225.32C232.08,-208.11 233.9,-168.89 251.5,-142.71 264.66,-123.13 287.22,-108.6 305.51,-99.28"/>
<polygon fill="green" stroke="green" stroke-width="0.61" points="306.81,-102.53 314.3,-95.03 303.77,-96.23 306.81,-102.53"/>
</g>
<!-- 172 -->
<g id="node29" class="node">
<title>172</title>
<ellipse fill="white" stroke="black" cx="85.5" cy="-163.57" rx="20.86" ry="20.86"/>
<text text-anchor="middle" x="85.5" y="-160.27" font-family="Times,serif" font-size="9.00">172</text>
</g>
<!-- &#45;1&#45;&gt;172 -->
<g id="edge7" class="edge">
<title>&#45;1&#45;&gt;172</title>
<path fill="none" stroke="green" stroke-width="0.33" d="M220.39,-227.49C216.03,-225.22 211.06,-222.67 206.5,-220.43 175.09,-205.04 138.58,-188.35 113.95,-177.26"/>
<polygon fill="green" stroke="green" stroke-width="0.33" points="115.5,-174.12 104.94,-173.22 112.63,-180.5 115.5,-174.12"/>
</g>
<!-- 341 -->
<g id="node30" class="node">
<title>341</title>
<ellipse fill="white" stroke="black" cx="509.5" cy="-163.57" rx="20.86" ry="20.86"/>
<text text-anchor="middle" x="509.5" y="-160.27" font-family="Times,serif" font-size="9.00">341</text>
</g>
<!-- &#45;1&#45;&gt;341 -->
<g id="edge20" class="edge">
<title>&#45;1&#45;&gt;341</title>
<path fill="none" stroke="green" stroke-width="0.13" stroke-dasharray="1,5" d="M244.33,-231.35C276.28,-224.34 366.87,-204.15 441.5,-184.43 454.22,-181.07 468.19,-177.04 480.14,-173.5"/>
<polygon fill="green" stroke="green" stroke-width="0.13" points="480.88,-176.94 489.45,-170.72 478.87,-170.23 480.88,-176.94"/>
</g>
<!-- &#45;2 -->
<g id="node2" class="node">
<title>&#45;2</title>
<polygon fill="lightgray" stroke="black" points="426.25,-244.18 402.75,-244.18 402.75,-225.68 426.25,-225.68 426.25,-244.18"/>
<text text-anchor="middle" x="414.5" y="-231.63" font-family="Times,serif" font-size="9.00">&#45;2</text>
</g>
<!-- &#45;3 -->
<g id="node3" class="node">
<title>&#45;3</title>
<polygon fill="lightgray" stroke="black" points="468.25,-244.18 444.75,-244.18 444.75,-225.68 468.25,-225.68 468.25,-244.18"/>
<text text-anchor="middle" x="456.5" y="-231.63" font-family="Times,serif" font-size="9.00">&#45;3</text>
</g>
<!-- &#45;4 -->
<g id="node4" class="node">
<title>&#45;4</title>
<polygon fill="lightgray" stroke="black" points="510.25,-244.18 486.75,-244.18 486.75,-225.68 510.25,-225.68 510.25,-244.18"/>
<text text-anchor="middle" x="498.5" y="-231.63" font-family="Times,serif" font-size="9.00">&#45;4</text>
</g>
<!-- &#45;5 -->
<g id="node5" class="node">
<title>&#45;5</title>
<polygon fill="lightgray" stroke="black" points="390.25,-172.82 366.75,-172.82 366.75,-154.32 390.25,-154.32 390.25,-172.82"/>
<text text-anchor="middle" x="378.5" y="-160.27" font-family="Times,serif" font-size="9.00">&#45;5</text>
</g>
<!-- &#45;5&#45;&gt;170 -->
<g id="edge5" class="edge">
<title>&#45;5&#45;&gt;170</title>
<path fill="none" stroke="red" stroke-width="0.14" d="M373.45,-153.88C367.65,-143.91 357.88,-127.09 349.57,-112.79"/>
<polygon fill="red" stroke="red" stroke-width="0.14" points="352.79,-111.37 344.74,-104.48 346.74,-114.88 352.79,-111.37"/>
</g>
<!-- &#45;6 -->
<g id="node6" class="node">
<title>&#45;6</title>
<polygon fill="lightgray" stroke="black" points="552.25,-244.18 528.75,-244.18 528.75,-225.68 552.25,-225.68 552.25,-244.18"/>
<text text-anchor="middle" x="540.5" y="-231.63" font-family="Times,serif" font-size="9.00">&#45;6</text>
</g>
<!-- &#45;7 -->
<g id="node7" class="node">
<title>&#45;7</title>
<polygon fill="lightgray" stroke="black" points="432.25,-172.82 408.75,-172.82 408.75,-154.32 432.25,-154.32 432.25,-172.82"/>
<text text-anchor="middle" x="420.5" y="-160.27" font-family="Times,serif" font-size="9.00">&#45;7</text>
</g>
<!-- &#45;7&#45;&gt;170 -->
<g id="edge15" class="edge">
<title>&#45;7&#45;&gt;170</title>
<path fill="none" stroke="red" stroke-width="0.64" stroke-dasharray="1,5" d="M411.59,-153.97C407.89,-150.44 403.52,-146.34 399.5,-142.71 386.03,-130.57 370.65,-117.33 358.24,-106.78"/>
<polygon fill="red" stroke="red" stroke-width="0.64" points="360.81,-104.38 350.91,-100.59 356.29,-109.72 360.81,-104.38"/>
</g>
<!-- &#45;8 -->
<g id="node8" class="node">
<title>&#45;8</title>
<polygon fill="lightgray" stroke="black" points="594.25,-244.18 570.75,-244.18 570.75,-225.68 594.25,-225.68 594.25,-244.18"/>
<text text-anchor="middle" x="582.5" y="-231.63" font-family="Times,serif" font-size="9.00">&#45;8</text>
</g>
<!-- &#45;9 -->
<g id="node9" class="node">
<title>&#45;9</title>
<polygon fill="lightgray" stroke="black" points="54.25,-244.18 30.75,-244.18 30.75,-225.68 54.25,-225.68 54.25,-244.18"/>
<text text-anchor="middle" x="42.5" y="-231.63" font-family="Times,serif" font-size="9.00">&#45;9</text>
</g>
<!-- &#45;9&#45;&gt;172 -->
<g id="edge1" class="edge">
<title>&#45;9&#45;&gt;172</title>
<path fill="none" stroke="red" stroke-width="0.39" stroke-dasharray="1,5" d="M47.77,-225.42C53.09,-216.83 61.6,-203.12 69.18,-190.89"/>
<polygon fill="red" stroke="red" stroke-width="0.39" points="72.13,-192.77 74.43,-182.43 66.18,-189.08 72.13,-192.77"/>
</g>
<!-- &#45;10 -->
<g id="node10" class="node">
<title>&#45;10</title>
<polygon fill="lightgray" stroke="black" points="348.5,-172.82 320.5,-172.82 320.5,-154.32 348.5,-154.32 348.5,-172.82"/>
<text text-anchor="middle" x="334.5" y="-160.27" font-family="Times,serif" font-size="9.00">&#45;10</text>
</g>
<!-- &#45;10&#45;&gt;170 -->
<g id="edge4" class="edge">
<title>&#45;10&#45;&gt;170</title>
<path fill="none" stroke="green" stroke-width="0.23" d="M334.5,-153.88C334.5,-144.93 334.5,-130.46 334.5,-117.26"/>
<polygon fill="green" stroke="green" stroke-width="0.23" points="338,-117.41 334.5,-107.41 331,-117.41 338,-117.41"/>
</g>
<!-- &#45;11 -->
<g id="node11" class="node">
<title>&#45;11</title>
<polygon fill="lightgray" stroke="black" points="640.5,-244.18 612.5,-244.18 612.5,-225.68 640.5,-225.68 640.5,-244.18"/>
<text text-anchor="middle" x="626.5" y="-231.63" font-family="Times,serif" font-size="9.00">&#45;11</text>
</g>
<!-- &#45;12 -->
<g id="node12" class="node">
<title>&#45;12</title>
<polygon fill="lightgray" stroke="black" points="686.5,-244.18 658.5,-244.18 658.5,-225.68 686.5,-225.68 686.5,-244.18"/>
<text text-anchor="middle" x="672.5" y="-231.63" font-family="Times,serif" font-size="9.00">&#45;12</text>
</g>
<!-- &#45;13 -->
<g id="node13" class="node">
<title>&#45;13</title>
<polygon fill="lightgray" stroke="black" points="147.5,-244.18 119.5,-244.18 119.5,-225.68 147.5,-225.68 147.5,-244.18"/>
<text text-anchor="middle" x="133.5" y="-231.63" font-family="Times,serif" font-size="9.00">&#45;13</text>
</g>
<!-- &#45;13&#45;&gt;170 -->
<g id="edge6" class="edge">
<title>&#45;13&#45;&gt;170</title>
<path fill="none" stroke="green" stroke-width="0.15" stroke-dasharray="1,5" d="M132.75,-225.37C131.69,-207.56 131.87,-166.22 153.5,-142.71 173.89,-120.54 257.81,-101.49 303.88,-92.45"/>
<polygon fill="green" stroke="green" stroke-width="0.15" points="304.53,-95.89 313.69,-90.57 303.21,-89.02 304.53,-95.89"/>
</g>
<!-- &#45;13&#45;&gt;172 -->
<g id="edge14" class="edge">
<title>&#45;13&#45;&gt;172</title>
<path fill="none" stroke="red" stroke-width="0.11" stroke-dasharray="1,5" d="M127.61,-225.42C121.47,-216.55 111.54,-202.2 102.87,-189.67"/>
<polygon fill="red" stroke="red" stroke-width="0.11" points="105.79,-187.74 97.22,-181.51 100.03,-191.72 105.79,-187.74"/>
</g>
<!-- &#45;14 -->
<g id="node14" class="node">
<title>&#45;14</title>
<polygon fill="lightgray" stroke="black" points="384.5,-244.18 356.5,-244.18 356.5,-225.68 384.5,-225.68 384.5,-244.18"/>
<text text-anchor="middle" x="370.5" y="-231.63" font-family="Times,serif" font-size="9.00">&#45;14</text>
</g>
<!-- 354 -->
<g id="node26" class="node">
<title>354</title>
<ellipse fill="white" stroke="black" cx="281.5" cy="-163.57" rx="20.86" ry="20.86"/>
<text text-anchor="middle" x="281.5" y="-160.27" font-family="Times,serif" font-size="9.00">354</text>
</g>
<!-- &#45;14&#45;&gt;354 -->
<g id="edge23" class="edge">
<title>&#45;14&#45;&gt;354</title>
<path fill="none" stroke="green" stroke-width="0.32" stroke-dasharray="1,5" d="M359.58,-225.42C346.26,-215.04 323.33,-197.17 305.76,-183.48"/>
<polygon fill="green" stroke="green" stroke-width="0.32" points="308.05,-180.82 298.01,-177.44 303.74,-186.34 308.05,-180.82"/>
</g>
<!-- &#45;14&#45;&gt;170 -->
<g id="edge9" class="edge">
<title>&#45;14&#45;&gt;170</title>
<path fill="none" stroke="red" stroke-width="0.51" d="M384.4,-225.22C404.16,-212.7 438.35,-190.46 441.5,-184.43 450.07,-167.99 451.11,-158.57 441.5,-142.71 425.06,-115.58 390.65,-101.01 365.27,-93.62"/>
<polygon fill="red" stroke="red" stroke-width="0.51" points="366.33,-90.28 355.77,-91.08 364.53,-97.05 366.33,-90.28"/>
</g>
<!-- &#45;14&#45;&gt;172 -->
<g id="edge10" class="edge">
<title>&#45;14&#45;&gt;172</title>
<path fill="none" stroke="green" stroke-width="0.4" d="M356.21,-230.98C321.38,-223.72 229.42,-204.16 153.5,-184.43 140.88,-181.15 127.06,-177.19 115.19,-173.66"/>
<polygon fill="green" stroke="green" stroke-width="0.4" points="116.5,-170.4 105.92,-170.88 114.49,-177.11 116.5,-170.4"/>
</g>
<!-- 287 -->
<g id="node32" class="node">
<title>287</title>
<ellipse fill="white" stroke="black" cx="509.5" cy="-85.85" rx="20.86" ry="20.86"/>
<text text-anchor="middle" x="509.5" y="-82.55" font-family="Times,serif" font-size="9.00">287</text>
</g>
<!-- &#45;14&#45;&gt;287 -->
<g id="edge19" class="edge">
<title>&#45;14&#45;&gt;287</title>
<path fill="none" stroke="green" stroke-width="0.26" d="M383.78,-225.26C386.89,-223.48 390.24,-221.76 393.5,-220.43 455.41,-195.26 498.28,-237.04 539.5,-184.43 556.23,-163.07 542.21,-132.35 528.24,-111.11"/>
<polygon fill="green" stroke="green" stroke-width="0.26" points="531.16,-109.17 522.57,-102.96 525.41,-113.17 531.16,-109.17"/>
</g>
<!-- &#45;15 -->
<g id="node15" class="node">
<title>&#45;15</title>
<polygon fill="lightgray" stroke="black" points="732.5,-244.18 704.5,-244.18 704.5,-225.68 732.5,-225.68 732.5,-244.18"/>
<text text-anchor="middle" x="718.5" y="-231.63" font-family="Times,serif" font-size="9.00">&#45;15</text>
</g>
<!-- &#45;16 -->
<g id="node16" class="node">
<title>&#45;16</title>
<polygon fill="lightgray" stroke="black" points="778.5,-244.18 750.5,-244.18 750.5,-225.68 778.5,-225.68 778.5,-244.18"/>
<text text-anchor="middle" x="764.5" y="-231.63" font-family="Times,serif" font-size="9.00">&#45;16</text>
</g>
<!-- &#45;17 -->
<g id="node17" class="node">
<title>&#45;17</title>
<polygon fill="lightgray" stroke="black" points="197.5,-244.18 169.5,-244.18 169.5,-225.68 197.5,-225.68 197.5,-244.18"/>
<text text-anchor="middle" x="183.5" y="-231.63" font-family="Times,serif" font-size="9.00">&#45;17</text>
</g>
<!-- 374 -->
<g id="node31" class="node">
<title>374</title>
<ellipse fill="white" stroke="black" cx="183.5" cy="-163.57" rx="20.86" ry="20.86"/>
<text text-anchor="middle" x="183.5" y="-160.27" font-family="Times,serif" font-size="9.00">374</text>
</g>
<!-- &#45;17&#45;&gt;374 -->
<g id="edge29" class="edge">
<title>&#45;17&#45;&gt;374</title>
<path fill="none" stroke="green" stroke-width="0.4" d="M183.5,-225.42C183.5,-217.8 183.5,-206.15 183.5,-195.07"/>
<polygon fill="green" stroke="green" stroke-width="0.4" points="187,-195.38 183.5,-185.38 180,-195.38 187,-195.38"/>
</g>
<!-- &#45;18 -->
<g id="node18" class="node">
<title>&#45;18</title>
<polygon fill="lightgray" stroke="black" points="824.5,-244.18 796.5,-244.18 796.5,-225.68 824.5,-225.68 824.5,-244.18"/>
<text text-anchor="middle" x="810.5" y="-231.63" font-family="Times,serif" font-size="9.00">&#45;18</text>
</g>
<!-- &#45;19 -->
<g id="node19" class="node">
<title>&#45;19</title>
<polygon fill="lightgray" stroke="black" points="28.5,-172.82 0.5,-172.82 0.5,-154.32 28.5,-154.32 28.5,-172.82"/>
<text text-anchor="middle" x="14.5" y="-160.27" font-family="Times,serif" font-size="9.00">&#45;19</text>
</g>
<!-- 1 -->
<g id="node22" class="node">
<title>1</title>
<ellipse fill="lightblue" stroke="black" cx="14.5" cy="-85.85" rx="14.5" ry="14.5"/>
<text text-anchor="middle" x="14.5" y="-82.55" font-family="Times,serif" font-size="9.00">1</text>
</g>
<!-- &#45;19&#45;&gt;1 -->
<g id="edge18" class="edge">
<title>&#45;19&#45;&gt;1</title>
<path fill="none" stroke="green" stroke-width="0.5" d="M14.5,-153.88C14.5,-143.55 14.5,-125.84 14.5,-111.22"/>
<polygon fill="green" stroke="green" stroke-width="0.5" points="18,-111.57 14.5,-101.57 11,-111.57 18,-111.57"/>
</g>
<!-- &#45;20 -->
<g id="node20" class="node">
<title>&#45;20</title>
<polygon fill="lightgray" stroke="black" points="100.5,-244.18 72.5,-244.18 72.5,-225.68 100.5,-225.68 100.5,-244.18"/>
<text text-anchor="middle" x="86.5" y="-231.63" font-family="Times,serif" font-size="9.00">&#45;20</text>
</g>
<!-- &#45;20&#45;&gt;172 -->
<g id="edge11" class="edge">
<title>&#45;20&#45;&gt;172</title>
<path fill="none" stroke="green" stroke-width="0.28" d="M86.37,-225.42C86.26,-217.8 86.1,-206.15 85.94,-195.07"/>
<polygon fill="green" stroke="green" stroke-width="0.28" points="89.44,-195.15 85.79,-185.21 82.44,-195.26 89.44,-195.15"/>
</g>
<!-- 0 -->
<g id="node21" class="node">
<title>0</title>
<ellipse fill="lightblue" stroke="black" cx="856.5" cy="-234.93" rx="14.5" ry="14.5"/>
<text text-anchor="middle" x="856.5" y="-231.63" font-family="Times,serif" font-size="9.00">0</text>
</g>
<!-- 0&#45;&gt;0 -->
<g id="edge13" class="edge">
<title>0&#45;&gt;0</title>
<path fill="none" stroke="green" stroke-width="0.23" stroke-dasharray="1,5" d="M866.81,-245.37C877.31,-251.51 888.99,-248.03 888.99,-234.93 888.99,-225.92 883.47,-221.46 876.61,-221.55"/>
<polygon fill="green" stroke="green" stroke-width="0.23" points="875.72,-218.16 867.15,-224.38 877.73,-224.86 875.72,-218.16"/>
</g>
<!-- 2 -->
<g id="node23" class="node">
<title>2</title>
<ellipse fill="lightblue" stroke="black" cx="152.5" cy="-14.5" rx="14.5" ry="14.5"/>
<text text-anchor="middle" x="152.5" y="-11.2" font-family="Times,serif" font-size="9.00">2</text>
</g>
<!-- 3 -->
<g id="node24" class="node">
<title>3</title>
<ellipse fill="lightblue" stroke="black" cx="61.5" cy="-85.85" rx="14.5" ry="14.5"/>
<text text-anchor="middle" x="61.5" y="-82.55" font-family="Times,serif" font-size="9.00">3</text>
</g>
<!-- 4 -->
<g id="node25" class="node">
<title>4</title>
<ellipse fill="lightblue" stroke="black" cx="205.5" cy="-85.85" rx="14.5" ry="14.5"/>
<text text-anchor="middle" x="205.5" y="-82.55" font-family="Times,serif" font-size="9.00">4</text>
</g>
<!-- 354&#45;&gt;4 -->
<g id="edge28" class="edge">
<title>354&#45;&gt;4</title>
<path fill="none" stroke="green" stroke-width="0.35" stroke-dasharray="1,5" d="M267.2,-148.33C254.55,-135.72 236.06,-117.3 222.62,-103.91"/>
<polygon fill="green" stroke="green" stroke-width="0.35" points="225.31,-101.65 215.75,-97.07 220.37,-106.61 225.31,-101.65"/>
</g>
<!-- 354&#45;&gt;170 -->
<g id="edge24" class="edge">
<title>354&#45;&gt;170</title>
<path fill="none" stroke="red" stroke-width="0.2" d="M293.26,-145.77C300.26,-135.77 309.27,-122.89 317.08,-111.73"/>
<polygon fill="red" stroke="red" stroke-width="0.2" points="319.73,-114.06 322.59,-103.86 313.99,-110.04 319.73,-114.06"/>
</g>
<!-- 417 -->
<g id="node27" class="node">
<title>417</title>
<ellipse fill="white" stroke="black" cx="152.5" cy="-85.85" rx="20.86" ry="20.86"/>
<text text-anchor="middle" x="152.5" y="-82.55" font-family="Times,serif" font-size="9.00">417</text>
</g>
<!-- 417&#45;&gt;2 -->
<g id="edge27" class="edge">
<title>417&#45;&gt;2</title>
<path fill="none" stroke="green" stroke-width="0.32" stroke-dasharray="1,5" d="M152.5,-64.79C152.5,-56.98 152.5,-47.96 152.5,-39.78"/>
<polygon fill="green" stroke="green" stroke-width="0.32" points="156,-39.85 152.5,-29.85 149,-39.85 156,-39.85"/>
</g>
<!-- 170&#45;&gt;2 -->
<g id="edge16" class="edge">
<title>170&#45;&gt;2</title>
<path fill="none" stroke="red" stroke-width="0.15" d="M315.02,-77.43C280.99,-64.46 210.9,-37.75 174.91,-24.04"/>
<polygon fill="red" stroke="red" stroke-width="0.15" points="176.52,-20.91 165.93,-20.62 174.03,-27.45 176.52,-20.91"/>
</g>
<!-- 172&#45;&gt;1 -->
<g id="edge2" class="edge">
<title>172&#45;&gt;1</title>
<path fill="none" stroke="red" stroke-width="0.41" stroke-dasharray="1,5" d="M71.47,-147.61C59.82,-135.19 43.24,-117.5 30.96,-104.41"/>
<polygon fill="red" stroke="red" stroke-width="0.41" points="33.77,-102.29 24.38,-97.39 28.67,-107.08 33.77,-102.29"/>
</g>
<!-- 172&#45;&gt;2 -->
<g id="edge17" class="edge">
<title>172&#45;&gt;2</title>
<path fill="none" stroke="red" stroke-width="0.48" stroke-dasharray="1,5" d="M91.59,-143.43C98.23,-123.44 109.63,-91.37 122.5,-64.99 127.3,-55.15 133.45,-44.72 138.93,-35.98"/>
<polygon fill="red" stroke="red" stroke-width="0.48" points="141.87,-37.88 144.33,-27.57 135.98,-34.09 141.87,-37.88"/>
</g>
<!-- 172&#45;&gt;3 -->
<g id="edge8" class="edge">
<title>172&#45;&gt;3</title>
<path fill="none" stroke="green" stroke-width="0.23" d="M79.44,-143.46C76.2,-133.24 72.18,-120.57 68.77,-109.81"/>
<polygon fill="green" stroke="green" stroke-width="0.23" points="72.2,-109.03 65.84,-100.56 65.52,-111.15 72.2,-109.03"/>
</g>
<!-- 172&#45;&gt;4 -->
<g id="edge12" class="edge">
<title>172&#45;&gt;4</title>
<path fill="none" stroke="green" stroke-width="0.36" stroke-dasharray="1,5" d="M103.33,-152.41C130.34,-137.02 178.85,-109.3 182.5,-106.71 184.11,-105.57 185.74,-104.33 187.36,-103.05"/>
<polygon fill="green" stroke="green" stroke-width="0.36" points="189.24,-106.04 194.66,-96.94 184.74,-100.68 189.24,-106.04"/>
</g>
<!-- 172&#45;&gt;417 -->
<g id="edge26" class="edge">
<title>172&#45;&gt;417</title>
<path fill="none" stroke="red" stroke-width="0.47" stroke-dasharray="1,5" d="M99.05,-147.25C108.5,-136.57 121.27,-122.14 131.96,-110.06"/>
<polygon fill="red" stroke="red" stroke-width="0.47" points="134.48,-112.5 138.48,-102.69 129.24,-107.86 134.48,-112.5"/>
</g>
<!-- 341&#45;&gt;170 -->
<g id="edge21" class="edge">
<title>341&#45;&gt;170</title>
<path fill="none" stroke="red" stroke-width="0.4" stroke-dasharray="1,5" d="M491.94,-151.99C486.44,-148.84 480.29,-145.49 474.5,-142.71 437.1,-124.75 392.33,-107.61 363.66,-97.16"/>
<polygon fill="red" stroke="red" stroke-width="0.4" points="365.03,-93.94 354.44,-93.83 362.66,-100.52 365.03,-93.94"/>
</g>
<!-- 341&#45;&gt;287 -->
<g id="edge30" class="edge">
<title>341&#45;&gt;287</title>
<path fill="none" stroke="green" stroke-width="0.12" d="M503.51,-143.07C502.78,-134.95 502.57,-125.33 502.89,-116.37"/>
<polygon fill="green" stroke="green" stroke-width="0.12" points="506.38,-116.66 503.5,-106.46 499.4,-116.23 506.38,-116.66"/>
</g>
<!-- 374&#45;&gt;4 -->
<g id="edge25" class="edge">
<title>374&#45;&gt;4</title>
<path fill="none" stroke="red" stroke-width="0.19" d="M189.16,-143.07C192.1,-132.95 195.71,-120.52 198.79,-109.92"/>
<polygon fill="red" stroke="red" stroke-width="0.19" points="202.14,-110.95 201.57,-100.37 195.42,-109 202.14,-110.95"/>
</g>
<!-- 287&#45;&gt;341 -->
<g id="edge22" class="edge">
<title>287&#45;&gt;341</title>
<path fill="none" stroke="green" stroke-width="0.3" d="M515.48,-106.28C516.2,-114.31 516.42,-123.81 516.11,-132.68"/>
<polygon fill="green" stroke="green" stroke-width="0.3" points="512.62,-132.43 515.51,-142.62 519.61,-132.85 512.62,-132.43"/>
</g>
</g>
</svg>
