<?xml version="1.0" encoding="UTF-8" standalone="no"?>
<!DOCTYPE svg PUBLIC "-//W3C//DTD SVG 1.1//EN"
 "http://www.w3.org/Graphics/SVG/1.1/DTD/svg11.dtd">
<!-- Generated by graphviz version 12.1.1 (20240910.0053)
 -->
<!-- Pages: 1 -->
<svg width="899pt" height="247pt"
 viewBox="0.00 0.00 898.92 246.93" xmlns="http://www.w3.org/2000/svg" xmlns:xlink="http://www.w3.org/1999/xlink">
<g id="graph0" class="graph" transform="scale(1 1) rotate(0) translate(4 242.93)">
<polygon fill="white" stroke="none" points="-4,4 -4,-242.93 894.92,-242.93 894.92,4 -4,4"/>
<!-- &#45;1 -->
<g id="node1" class="node">
<title>&#45;1</title>
<polygon fill="lightgray" stroke="black" points="305.67,-172.82 282.17,-172.82 282.17,-154.32 305.67,-154.32 305.67,-172.82"/>
<text text-anchor="middle" x="293.92" y="-160.27" font-family="Times,serif" font-size="9.00">&#45;1</text>
</g>
<!-- 131 -->
<g id="node28" class="node">
<title>131</title>
<ellipse fill="white" stroke="black" cx="251.92" cy="-85.85" rx="20.86" ry="20.86"/>
<text text-anchor="middle" x="251.92" y="-82.55" font-family="Times,serif" font-size="9.00">131</text>
</g>
<!-- &#45;1&#45;&gt;131 -->
<g id="edge35" class="edge">
<title>&#45;1&#45;&gt;131</title>
<path fill="none" stroke="green" stroke-width="0.28" stroke-dasharray="1,5" d="M289.1,-153.88C283.66,-144.07 274.53,-127.62 266.69,-113.47"/>
<polygon fill="green" stroke="green" stroke-width="0.28" points="269.88,-112.02 261.97,-104.97 263.76,-115.41 269.88,-112.02"/>
</g>
<!-- 132 -->
<g id="node29" class="node">
<title>132</title>
<ellipse fill="white" stroke="black" cx="388.92" cy="-85.85" rx="20.86" ry="20.86"/>
<text text-anchor="middle" x="388.92" y="-82.55" font-family="Times,serif" font-size="9.00">132</text>
</g>
<!-- &#45;1&#45;&gt;132 -->
<g id="edge39" class="edge">
<title>&#45;1&#45;&gt;132</title>
<path fill="none" stroke="red" stroke-width="0.38" d="M302.71,-153.84C306.4,-150.29 310.78,-146.21 314.92,-142.71 330.59,-129.45 349.02,-115.54 363.56,-104.92"/>
<polygon fill="red" stroke="red" stroke-width="0.38" points="365.55,-107.8 371.59,-99.1 361.44,-102.13 365.55,-107.8"/>
</g>
<!-- &#45;2 -->
<g id="node2" class="node">
<title>&#45;2</title>
<polygon fill="lightgray" stroke="black" points="527.67,-172.82 504.17,-172.82 504.17,-154.32 527.67,-154.32 527.67,-172.82"/>
<text text-anchor="middle" x="515.92" y="-160.27" font-family="Times,serif" font-size="9.00">&#45;2</text>
</g>
<!-- 129 -->
<g id="node26" class="node">
<title>129</title>
<ellipse fill="white" stroke="black" cx="169.92" cy="-85.85" rx="20.86" ry="20.86"/>
<text text-anchor="middle" x="169.92" y="-82.55" font-family="Times,serif" font-size="9.00">129</text>
</g>
<!-- &#45;2&#45;&gt;129 -->
<g id="edge23" class="edge">
<title>&#45;2&#45;&gt;129</title>
<path fill="none" stroke="red" stroke-width="0.37" d="M509.04,-153.9C505.31,-149.82 500.36,-145.3 494.92,-142.71 384.42,-90.11 340.56,-136.75 221.92,-106.71 214.19,-104.75 206.04,-102 198.55,-99.16"/>
<polygon fill="red" stroke="red" stroke-width="0.37" points="199.95,-95.94 189.36,-95.51 197.36,-102.45 199.95,-95.94"/>
</g>
<!-- 130 -->
<g id="node27" class="node">
<title>130</title>
<ellipse fill="white" stroke="black" cx="625.92" cy="-85.85" rx="20.86" ry="20.86"/>
<text text-anchor="middle" x="625.92" y="-82.55" font-family="Times,serif" font-size="9.00">130</text>
</g>
<!-- &#45;2&#45;&gt;130 -->
<g id="edge9" class="edge">
<title>&#45;2&#45;&gt;130</title>
<path fill="none" stroke="green" stroke-width="0.62" d="M524.16,-154.05C527.9,-150.38 532.48,-146.15 536.92,-142.71 556.51,-127.54 580.37,-112.74 598.45,-102.19"/>
<polygon fill="green" stroke="green" stroke-width="0.62" points="600.11,-105.28 607.03,-97.26 596.62,-99.21 600.11,-105.28"/>
</g>
<!-- &#45;3 -->
<g id="node3" class="node">
<title>&#45;3</title>
<polygon fill="lightgray" stroke="black" points="393.67,-172.82 370.17,-172.82 370.17,-154.32 393.67,-154.32 393.67,-172.82"/>
<text text-anchor="middle" x="381.92" y="-160.27" font-family="Times,serif" font-size="9.00">&#45;3</text>
</g>
<!-- &#45;3&#45;&gt;131 -->
<g id="edge13" class="edge">
<title>&#45;3&#45;&gt;131</title>
<path fill="none" stroke="red" stroke-width="0.21" d="M373.82,-153.87C370.1,-150.16 365.51,-145.96 360.92,-142.71 335.36,-124.64 303.15,-108.88 280.39,-98.75"/>
<polygon fill="red" stroke="red" stroke-width="0.21" points="281.81,-95.55 271.25,-94.76 279.01,-101.96 281.81,-95.55"/>
</g>
<!-- &#45;3&#45;&gt;132 -->
<g id="edge12" class="edge">
<title>&#45;3&#45;&gt;132</title>
<path fill="none" stroke="red" stroke-width="0.27" d="M382.72,-153.88C383.55,-144.93 384.89,-130.46 386.11,-117.26"/>
<polygon fill="red" stroke="red" stroke-width="0.27" points="389.58,-117.75 387.01,-107.47 382.61,-117.11 389.58,-117.75"/>
</g>
<!-- &#45;4 -->
<g id="node4" class="node">
<title>&#45;4</title>
<polygon fill="lightgray" stroke="black" points="263.67,-172.82 240.17,-172.82 240.17,-154.32 263.67,-154.32 263.67,-172.82"/>
<text text-anchor="middle" x="251.92" y="-160.27" font-family="Times,serif" font-size="9.00">&#45;4</text>
</g>
<!-- &#45;4&#45;&gt;129 -->
<g id="edge8" class="edge">
<title>&#45;4&#45;&gt;129</title>
<path fill="none" stroke="red" stroke-width="0.21" d="M242.96,-154.03C239.24,-150.51 234.89,-146.4 230.92,-142.71 218.28,-130.95 204.05,-117.91 192.52,-107.39"/>
<polygon fill="red" stroke="red" stroke-width="0.21" points="195.01,-104.92 185.26,-100.77 190.3,-110.1 195.01,-104.92"/>
</g>
<!-- &#45;4&#45;&gt;131 -->
<g id="edge42" class="edge">
<title>&#45;4&#45;&gt;131</title>
<path fill="none" stroke="green" stroke-width="0.4" d="M251.92,-153.88C251.92,-145.02 251.92,-130.75 251.92,-117.65"/>
<polygon fill="green" stroke="green" stroke-width="0.4" points="255.42,-117.66 251.92,-107.66 248.42,-117.66 255.42,-117.66"/>
</g>
<!-- &#45;4&#45;&gt;132 -->
<g id="edge17" class="edge">
<title>&#45;4&#45;&gt;132</title>
<path fill="none" stroke="green" stroke-width="0.32" d="M259.59,-154.21C263.37,-150.4 268.13,-146.01 272.92,-142.71 300.46,-123.74 335.44,-107.86 359.75,-97.94"/>
<polygon fill="green" stroke="green" stroke-width="0.32" points="361.02,-101.2 369.01,-94.24 358.42,-94.7 361.02,-101.2"/>
</g>
<!-- &#45;5 -->
<g id="node5" class="node">
<title>&#45;5</title>
<polygon fill="lightgray" stroke="black" points="703.67,-172.82 680.17,-172.82 680.17,-154.32 703.67,-154.32 703.67,-172.82"/>
<text text-anchor="middle" x="691.92" y="-160.27" font-family="Times,serif" font-size="9.00">&#45;5</text>
</g>
<!-- &#45;5&#45;&gt;130 -->
<g id="edge4" class="edge">
<title>&#45;5&#45;&gt;130</title>
<path fill="none" stroke="red" stroke-width="0.18" d="M684.35,-153.88C675.01,-143.17 658.77,-124.53 645.77,-109.63"/>
<polygon fill="red" stroke="red" stroke-width="0.18" points="648.72,-107.68 639.51,-102.44 643.44,-112.28 648.72,-107.68"/>
</g>
<!-- &#45;6 -->
<g id="node6" class="node">
<title>&#45;6</title>
<polygon fill="lightgray" stroke="black" points="615.67,-172.82 592.17,-172.82 592.17,-154.32 615.67,-154.32 615.67,-172.82"/>
<text text-anchor="middle" x="603.92" y="-160.27" font-family="Times,serif" font-size="9.00">&#45;6</text>
</g>
<!-- &#45;6&#45;&gt;130 -->
<g id="edge27" class="edge">
<title>&#45;6&#45;&gt;130</title>
<path fill="none" stroke="red" stroke-width="0.49" d="M606.44,-153.88C609.08,-144.81 613.36,-130.07 617.24,-116.71"/>
<polygon fill="red" stroke="red" stroke-width="0.49" points="620.59,-117.73 620.02,-107.15 613.87,-115.77 620.59,-117.73"/>
</g>
<!-- &#45;6&#45;&gt;132 -->
<g id="edge18" class="edge">
<title>&#45;6&#45;&gt;132</title>
<path fill="none" stroke="green" stroke-width="0.22" d="M596.48,-153.84C592.76,-149.95 587.97,-145.6 582.92,-142.71 530.09,-112.54 459.71,-97.6 419.87,-91.11"/>
<polygon fill="green" stroke="green" stroke-width="0.22" points="420.46,-87.66 410.04,-89.58 419.39,-94.58 420.46,-87.66"/>
</g>
<!-- &#45;7 -->
<g id="node7" class="node">
<title>&#45;7</title>
<polygon fill="lightgray" stroke="black" points="798.67,-238.93 775.17,-238.93 775.17,-220.43 798.67,-220.43 798.67,-238.93"/>
<text text-anchor="middle" x="786.92" y="-226.38" font-family="Times,serif" font-size="9.00">&#45;7</text>
</g>
<!-- &#45;8 -->
<g id="node8" class="node">
<title>&#45;8</title>
<polygon fill="lightgray" stroke="black" points="41.67,-172.82 18.17,-172.82 18.17,-154.32 41.67,-154.32 41.67,-172.82"/>
<text text-anchor="middle" x="29.92" y="-160.27" font-family="Times,serif" font-size="9.00">&#45;8</text>
</g>
<!-- &#45;8&#45;&gt;129 -->
<g id="edge16" class="edge">
<title>&#45;8&#45;&gt;129</title>
<path fill="none" stroke="green" stroke-width="0.24" stroke-dasharray="1,5" d="M37.58,-154.19C41.35,-150.37 46.11,-145.99 50.92,-142.71 79.43,-123.28 115.77,-107.32 140.74,-97.51"/>
<polygon fill="green" stroke="green" stroke-width="0.24" points="141.95,-100.79 150.03,-93.94 139.44,-94.26 141.95,-100.79"/>
</g>
<!-- &#45;9 -->
<g id="node9" class="node">
<title>&#45;9</title>
<polygon fill="lightgray" stroke="black" points="175.67,-172.82 152.17,-172.82 152.17,-154.32 175.67,-154.32 175.67,-172.82"/>
<text text-anchor="middle" x="163.92" y="-160.27" font-family="Times,serif" font-size="9.00">&#45;9</text>
</g>
<!-- &#45;9&#45;&gt;129 -->
<g id="edge7" class="edge">
<title>&#45;9&#45;&gt;129</title>
<path fill="none" stroke="green" stroke-width="0.24" d="M164.61,-153.88C165.32,-144.93 166.46,-130.46 167.51,-117.26"/>
<polygon fill="green" stroke="green" stroke-width="0.24" points="170.99,-117.67 168.29,-107.42 164.01,-117.12 170.99,-117.67"/>
</g>
<!-- &#45;9&#45;&gt;131 -->
<g id="edge41" class="edge">
<title>&#45;9&#45;&gt;131</title>
<path fill="none" stroke="green" stroke-width="0.36" d="M172.8,-153.94C176.5,-150.41 180.87,-146.31 184.92,-142.71 198.95,-130.25 215.08,-116.77 228.01,-106.18"/>
<polygon fill="green" stroke="green" stroke-width="0.36" points="230.03,-109.05 235.56,-100.01 225.6,-103.62 230.03,-109.05"/>
</g>
<!-- &#45;10 -->
<g id="node10" class="node">
<title>&#45;10</title>
<polygon fill="lightgray" stroke="black" points="351.92,-172.82 323.92,-172.82 323.92,-154.32 351.92,-154.32 351.92,-172.82"/>
<text text-anchor="middle" x="337.92" y="-160.27" font-family="Times,serif" font-size="9.00">&#45;10</text>
</g>
<!-- &#45;10&#45;&gt;129 -->
<g id="edge3" class="edge">
<title>&#45;10&#45;&gt;129</title>
<path fill="none" stroke="green" stroke-width="0.18" d="M329.52,-154.07C325.38,-150.23 320.17,-145.86 314.92,-142.71 313.6,-141.92 240.57,-113.91 198.67,-97.86"/>
<polygon fill="green" stroke="green" stroke-width="0.18" points="200.09,-94.65 189.5,-94.34 197.59,-101.19 200.09,-94.65"/>
</g>
<!-- &#45;10&#45;&gt;130 -->
<g id="edge6" class="edge">
<title>&#45;10&#45;&gt;130</title>
<path fill="none" stroke="green" stroke-width="0.19" d="M345.69,-154.09C349.84,-150.06 355.25,-145.52 360.92,-142.71 439.19,-103.93 543.43,-92.02 594.71,-88.4"/>
<polygon fill="green" stroke="green" stroke-width="0.19" points="594.78,-91.9 604.54,-87.77 594.33,-84.92 594.78,-91.9"/>
</g>
<!-- &#45;11 -->
<g id="node11" class="node">
<title>&#45;11</title>
<polygon fill="lightgray" stroke="black" points="661.92,-172.82 633.92,-172.82 633.92,-154.32 661.92,-154.32 661.92,-172.82"/>
<text text-anchor="middle" x="647.92" y="-160.27" font-family="Times,serif" font-size="9.00">&#45;11</text>
</g>
<!-- &#45;11&#45;&gt;130 -->
<g id="edge33" class="edge">
<title>&#45;11&#45;&gt;130</title>
<path fill="none" stroke="green" stroke-width="0.29" stroke-dasharray="1,5" d="M645.4,-153.88C642.73,-144.72 638.39,-129.77 634.48,-116.32"/>
<polygon fill="green" stroke="green" stroke-width="0.29" points="637.89,-115.49 631.74,-106.87 631.16,-117.44 637.89,-115.49"/>
</g>
<!-- &#45;11&#45;&gt;132 -->
<g id="edge21" class="edge">
<title>&#45;11&#45;&gt;132</title>
<path fill="none" stroke="red" stroke-width="0.52" stroke-dasharray="1,5" d="M640.12,-154.15C635.96,-150.13 630.56,-145.59 624.92,-142.71 557.2,-108.11 467.57,-94.53 420.65,-89.53"/>
<polygon fill="red" stroke="red" stroke-width="0.52" points="421.04,-86.05 410.74,-88.54 420.34,-93.02 421.04,-86.05"/>
</g>
<!-- &#45;12 -->
<g id="node12" class="node">
<title>&#45;12</title>
<polygon fill="lightgray" stroke="black" points="485.92,-172.82 457.92,-172.82 457.92,-154.32 485.92,-154.32 485.92,-172.82"/>
<text text-anchor="middle" x="471.92" y="-160.27" font-family="Times,serif" font-size="9.00">&#45;12</text>
</g>
<!-- &#45;12&#45;&gt;132 -->
<g id="edge11" class="edge">
<title>&#45;12&#45;&gt;132</title>
<path fill="none" stroke="green" stroke-width="0.23" d="M462.4,-153.88C449.99,-142.57 427.91,-122.42 411.18,-107.16"/>
<polygon fill="green" stroke="green" stroke-width="0.23" points="413.93,-104.93 404.18,-100.77 409.21,-110.1 413.93,-104.93"/>
</g>
<!-- &#45;13 -->
<g id="node13" class="node">
<title>&#45;13</title>
<polygon fill="lightgray" stroke="black" points="221.92,-172.82 193.92,-172.82 193.92,-154.32 221.92,-154.32 221.92,-172.82"/>
<text text-anchor="middle" x="207.92" y="-160.27" font-family="Times,serif" font-size="9.00">&#45;13</text>
</g>
<!-- &#45;13&#45;&gt;129 -->
<g id="edge34" class="edge">
<title>&#45;13&#45;&gt;129</title>
<path fill="none" stroke="red" stroke-width="0.12" d="M203.56,-153.88C198.67,-144.13 190.49,-127.83 183.42,-113.75"/>
<polygon fill="red" stroke="red" stroke-width="0.12" points="186.67,-112.43 179.06,-105.06 180.42,-115.57 186.67,-112.43"/>
</g>
<!-- &#45;13&#45;&gt;131 -->
<g id="edge20" class="edge">
<title>&#45;13&#45;&gt;131</title>
<path fill="none" stroke="green" stroke-width="0.18" d="M212.97,-153.88C218.76,-143.91 228.54,-127.09 236.85,-112.79"/>
<polygon fill="green" stroke="green" stroke-width="0.18" points="239.65,-114.94 241.65,-104.53 233.6,-111.42 239.65,-114.94"/>
</g>
<!-- &#45;13&#45;&gt;132 -->
<g id="edge5" class="edge">
<title>&#45;13&#45;&gt;132</title>
<path fill="none" stroke="red" stroke-width="0.24" d="M216.28,-154.01C220.41,-150.15 225.63,-145.78 230.92,-142.71 272.24,-118.72 325.57,-102.52 358.49,-93.99"/>
<polygon fill="red" stroke="red" stroke-width="0.24" points="359.23,-97.41 368.08,-91.58 357.52,-90.63 359.23,-97.41"/>
</g>
<!-- &#45;14 -->
<g id="node14" class="node">
<title>&#45;14</title>
<polygon fill="lightgray" stroke="black" points="844.92,-238.93 816.92,-238.93 816.92,-220.43 844.92,-220.43 844.92,-238.93"/>
<text text-anchor="middle" x="830.92" y="-226.38" font-family="Times,serif" font-size="9.00">&#45;14</text>
</g>
<!-- &#45;15 -->
<g id="node15" class="node">
<title>&#45;15</title>
<polygon fill="lightgray" stroke="black" points="890.92,-238.93 862.92,-238.93 862.92,-220.43 890.92,-220.43 890.92,-238.93"/>
<text text-anchor="middle" x="876.92" y="-226.38" font-family="Times,serif" font-size="9.00">&#45;15</text>
</g>
<!-- &#45;16 -->
<g id="node16" class="node">
<title>&#45;16</title>
<polygon fill="lightgray" stroke="black" points="573.92,-172.82 545.92,-172.82 545.92,-154.32 573.92,-154.32 573.92,-172.82"/>
<text text-anchor="middle" x="559.92" y="-160.27" font-family="Times,serif" font-size="9.00">&#45;16</text>
</g>
<!-- &#45;16&#45;&gt;130 -->
<g id="edge28" class="edge">
<title>&#45;16&#45;&gt;130</title>
<path fill="none" stroke="red" stroke-width="0.56" stroke-dasharray="1,5" d="M567.49,-153.88C576.75,-143.26 592.78,-124.88 605.71,-110.04"/>
<polygon fill="red" stroke="red" stroke-width="0.56" points="608.02,-112.71 611.95,-102.87 602.75,-108.11 608.02,-112.71"/>
</g>
<!-- &#45;16&#45;&gt;132 -->
<g id="edge30" class="edge">
<title>&#45;16&#45;&gt;132</title>
<path fill="none" stroke="red" stroke-width="0.57" d="M551.53,-154.06C547.4,-150.21 542.18,-145.84 536.92,-142.71 498.91,-120.11 450.17,-103.84 419.23,-94.88"/>
<polygon fill="red" stroke="red" stroke-width="0.57" points="420.48,-91.6 409.91,-92.25 418.58,-98.33 420.48,-91.6"/>
</g>
<!-- &#45;17 -->
<g id="node17" class="node">
<title>&#45;17</title>
<polygon fill="lightgray" stroke="black" points="439.92,-172.82 411.92,-172.82 411.92,-154.32 439.92,-154.32 439.92,-172.82"/>
<text text-anchor="middle" x="425.92" y="-160.27" font-family="Times,serif" font-size="9.00">&#45;17</text>
</g>
<!-- &#45;17&#45;&gt;132 -->
<g id="edge36" class="edge">
<title>&#45;17&#45;&gt;132</title>
<path fill="none" stroke="red" stroke-width="0.19" d="M421.68,-153.88C416.99,-144.29 409.2,-128.35 402.39,-114.42"/>
<polygon fill="red" stroke="red" stroke-width="0.19" points="405.55,-112.9 398.01,-105.46 399.26,-115.98 405.55,-112.9"/>
</g>
<!-- &#45;18 -->
<g id="node18" class="node">
<title>&#45;18</title>
<polygon fill="lightgray" stroke="black" points="87.92,-172.82 59.92,-172.82 59.92,-154.32 87.92,-154.32 87.92,-172.82"/>
<text text-anchor="middle" x="73.92" y="-160.27" font-family="Times,serif" font-size="9.00">&#45;18</text>
</g>
<!-- &#45;18&#45;&gt;129 -->
<g id="edge40" class="edge">
<title>&#45;18&#45;&gt;129</title>
<path fill="none" stroke="red" stroke-width="0.36" d="M83.66,-153.94C87.72,-150.4 92.5,-146.31 96.92,-142.71 112.71,-129.87 130.88,-115.96 145.15,-105.23"/>
<polygon fill="red" stroke="red" stroke-width="0.36" points="147.13,-108.13 153.03,-99.33 142.93,-102.52 147.13,-108.13"/>
</g>
<!-- &#45;19 -->
<g id="node19" class="node">
<title>&#45;19</title>
<polygon fill="lightgray" stroke="black" points="133.92,-172.82 105.92,-172.82 105.92,-154.32 133.92,-154.32 133.92,-172.82"/>
<text text-anchor="middle" x="119.92" y="-160.27" font-family="Times,serif" font-size="9.00">&#45;19</text>
</g>
<!-- &#45;19&#45;&gt;129 -->
<g id="edge14" class="edge">
<title>&#45;19&#45;&gt;129</title>
<path fill="none" stroke="red" stroke-width="0.28" stroke-dasharray="1,5" d="M125.66,-153.88C132.33,-143.78 143.64,-126.65 153.16,-112.24"/>
<polygon fill="red" stroke="red" stroke-width="0.28" points="155.97,-114.32 158.56,-104.05 150.13,-110.47 155.97,-114.32"/>
</g>
<!-- &#45;20 -->
<g id="node20" class="node">
<title>&#45;20</title>
<polygon fill="lightgray" stroke="black" points="756.92,-238.93 728.92,-238.93 728.92,-220.43 756.92,-220.43 756.92,-238.93"/>
<text text-anchor="middle" x="742.92" y="-226.38" font-family="Times,serif" font-size="9.00">&#45;20</text>
</g>
<!-- &#45;20&#45;&gt;129 -->
<g id="edge19" class="edge">
<title>&#45;20&#45;&gt;129</title>
<path fill="none" stroke="green" stroke-width="0.65" d="M728.48,-228.37C627.85,-226.1 34.54,-211.65 8.92,-184.43 -3.79,-170.93 -1.83,-157.82 8.92,-142.71 38.14,-101.64 99.78,-90.49 137.74,-87.63"/>
<polygon fill="green" stroke="green" stroke-width="0.65" points="137.94,-91.13 147.71,-87.05 137.52,-84.14 137.94,-91.13"/>
</g>
<!-- &#45;20&#45;&gt;130 -->
<g id="edge15" class="edge">
<title>&#45;20&#45;&gt;130</title>
<path fill="none" stroke="red" stroke-width="0.15" stroke-dasharray="1,5" d="M750.84,-219.93C764.66,-203.56 790.15,-167.69 772.92,-142.71 746.93,-105.03 691.93,-92.75 657.07,-88.76"/>
<polygon fill="red" stroke="red" stroke-width="0.15" points="657.47,-85.28 647.18,-87.79 656.79,-92.24 657.47,-85.28"/>
</g>
<!-- 265 -->
<g id="node30" class="node">
<title>265</title>
<ellipse fill="white" stroke="black" cx="742.92" cy="-163.57" rx="20.86" ry="20.86"/>
<text text-anchor="middle" x="742.92" y="-160.27" font-family="Times,serif" font-size="9.00">265</text>
</g>
<!-- &#45;20&#45;&gt;265 -->
<g id="edge43" class="edge">
<title>&#45;20&#45;&gt;265</title>
<path fill="none" stroke="green" stroke-width="0.33" d="M742.92,-220.03C742.92,-213.6 742.92,-204.39 742.92,-195.33"/>
<polygon fill="green" stroke="green" stroke-width="0.33" points="746.42,-195.43 742.92,-185.43 739.42,-195.43 746.42,-195.43"/>
</g>
<!-- 0 -->
<g id="node21" class="node">
<title>0</title>
<ellipse fill="lightblue" stroke="black" cx="169.92" cy="-14.5" rx="14.5" ry="14.5"/>
<text text-anchor="middle" x="169.92" y="-11.2" font-family="Times,serif" font-size="9.00">0</text>
</g>
<!-- 0&#45;&gt;0 -->
<g id="edge10" class="edge">
<title>0&#45;&gt;0</title>
<path fill="none" stroke="red" stroke-width="0.24" d="M180.24,-24.94C190.73,-31.08 202.42,-27.6 202.42,-14.5 202.42,-5.49 196.89,-1.03 190.03,-1.12"/>
<polygon fill="red" stroke="red" stroke-width="0.24" points="189.16,2.28 180.59,-3.95 191.17,-4.43 189.16,2.28"/>
</g>
<!-- 1 -->
<g id="node22" class="node">
<title>1</title>
<ellipse fill="lightblue" stroke="black" cx="450.92" cy="-14.5" rx="14.5" ry="14.5"/>
<text text-anchor="middle" x="450.92" y="-11.2" font-family="Times,serif" font-size="9.00">1</text>
</g>
<!-- 1&#45;&gt;1 -->
<g id="edge38" class="edge">
<title>1&#45;&gt;1</title>
<path fill="none" stroke="red" stroke-width="0.38" d="M461.24,-24.94C471.73,-31.08 483.42,-27.6 483.42,-14.5 483.42,-5.49 477.89,-1.03 471.03,-1.12"/>
<polygon fill="red" stroke="red" stroke-width="0.38" points="470.36,2.34 461.79,-3.89 472.38,-4.37 470.36,2.34"/>
</g>
<!-- 2 -->
<g id="node23" class="node">
<title>2</title>
<ellipse fill="lightblue" stroke="black" cx="244.92" cy="-14.5" rx="14.5" ry="14.5"/>
<text text-anchor="middle" x="244.92" y="-11.2" font-family="Times,serif" font-size="9.00">2</text>
</g>
<!-- 2&#45;&gt;2 -->
<g id="edge31" class="edge">
<title>2&#45;&gt;2</title>
<path fill="none" stroke="green" stroke-width="0.23" stroke-dasharray="1,5" d="M255.24,-24.94C265.73,-31.08 277.42,-27.6 277.42,-14.5 277.42,-5.49 271.89,-1.03 265.03,-1.12"/>
<polygon fill="green" stroke="green" stroke-width="0.23" points="264.14,2.27 255.57,-3.96 266.15,-4.44 264.14,2.27"/>
</g>
<!-- 3 -->
<g id="node24" class="node">
<title>3</title>
<ellipse fill="lightblue" stroke="black" cx="309.92" cy="-14.5" rx="14.5" ry="14.5"/>
<text text-anchor="middle" x="309.92" y="-11.2" font-family="Times,serif" font-size="9.00">3</text>
</g>
<!-- 3&#45;&gt;3 -->
<g id="edge32" class="edge">
<title>3&#45;&gt;3</title>
<path fill="none" stroke="green" stroke-width="0.31" stroke-dasharray="1,5" d="M320.24,-24.94C330.73,-31.08 342.42,-27.6 342.42,-14.5 342.42,-5.49 336.89,-1.03 330.03,-1.12"/>
<polygon fill="green" stroke="green" stroke-width="0.31" points="329.26,2.3 320.68,-3.92 331.27,-4.4 329.26,2.3"/>
</g>
<!-- 4 -->
<g id="node25" class="node">
<title>4</title>
<ellipse fill="lightblue" stroke="black" cx="385.92" cy="-14.5" rx="14.5" ry="14.5"/>
<text text-anchor="middle" x="385.92" y="-11.2" font-family="Times,serif" font-size="9.00">4</text>
</g>
<!-- 4&#45;&gt;4 -->
<g id="edge29" class="edge">
<title>4&#45;&gt;4</title>
<path fill="none" stroke="red" stroke-width="0.19" stroke-dasharray="1,5" d="M396.24,-24.94C406.73,-31.08 418.42,-27.6 418.42,-14.5 418.42,-5.49 412.89,-1.03 406.03,-1.12"/>
<polygon fill="red" stroke="red" stroke-width="0.19" points="405.08,2.25 396.51,-3.97 407.1,-4.45 405.08,2.25"/>
</g>
<!-- 129&#45;&gt;0 -->
<g id="edge2" class="edge">
<title>129&#45;&gt;0</title>
<path fill="none" stroke="red" stroke-width="0.14" d="M169.92,-64.79C169.92,-56.89 169.92,-47.75 169.92,-39.5"/>
<polygon fill="red" stroke="red" stroke-width="0.14" points="173.42,-39.56 169.92,-29.56 166.42,-39.56 173.42,-39.56"/>
</g>
<!-- 129&#45;&gt;3 -->
<g id="edge25" class="edge">
<title>129&#45;&gt;3</title>
<path fill="none" stroke="green" stroke-width="0.64" d="M188.58,-76.31C211.66,-65.65 252.03,-46.66 285.92,-28.99 286.77,-28.55 287.64,-28.09 288.51,-27.62"/>
<polygon fill="green" stroke="green" stroke-width="0.64" points="289.88,-30.87 296.95,-22.98 286.5,-24.73 289.88,-30.87"/>
</g>
<!-- 131&#45;&gt;2 -->
<g id="edge22" class="edge">
<title>131&#45;&gt;2</title>
<path fill="none" stroke="red" stroke-width="0.2" d="M249.9,-64.79C249.1,-56.89 248.18,-47.75 247.34,-39.5"/>
<polygon fill="red" stroke="red" stroke-width="0.2" points="250.84,-39.25 246.35,-29.65 243.87,-39.95 250.84,-39.25"/>
</g>
<!-- 131&#45;&gt;3 -->
<g id="edge24" class="edge">
<title>131&#45;&gt;3</title>
<path fill="none" stroke="green" stroke-width="0.39" stroke-dasharray="1,5" d="M265.08,-69.11C273.73,-58.77 285.09,-45.18 294.22,-34.27"/>
<polygon fill="green" stroke="green" stroke-width="0.39" points="296.85,-36.58 300.58,-26.66 291.48,-32.09 296.85,-36.58"/>
</g>
<!-- 132&#45;&gt;1 -->
<g id="edge26" class="edge">
<title>132&#45;&gt;1</title>
<path fill="none" stroke="red" stroke-width="0.34" d="M402.37,-69.8C411.89,-59.16 424.69,-44.84 434.76,-33.57"/>
<polygon fill="red" stroke="red" stroke-width="0.34" points="437.13,-36.18 441.18,-26.39 431.91,-31.51 437.13,-36.18"/>
</g>
<!-- 132&#45;&gt;3 -->
<g id="edge37" class="edge">
<title>132&#45;&gt;3</title>
<path fill="none" stroke="green" stroke-width="0.25" stroke-dasharray="1,5" d="M373.69,-71.48C360.64,-60.03 341.84,-43.52 328.03,-31.39"/>
<polygon fill="green" stroke="green" stroke-width="0.25" points="330.66,-29.05 320.84,-25.08 326.05,-34.31 330.66,-29.05"/>
</g>
<!-- 132&#45;&gt;4 -->
<g id="edge1" class="edge">
<title>132&#45;&gt;4</title>
<path fill="none" stroke="green" stroke-width="0.69" stroke-dasharray="1,5" d="M388.05,-64.79C387.72,-57.16 387.34,-48.37 386.99,-40.34"/>
<polygon fill="green" stroke="green" stroke-width="0.69" points="390.49,-40.24 386.56,-30.4 383.5,-40.54 390.49,-40.24"/>
</g>
<!-- 265&#45;&gt;130 -->
<g id="edge44" class="edge">
<title>265&#45;&gt;130</title>
<path fill="none" stroke="green" stroke-width="0.31" stroke-dasharray="1,5" d="M725.81,-151.19C721.61,-148.4 717.11,-145.44 712.92,-142.71 692.43,-129.35 669.11,-114.39 651.77,-103.32"/>
<polygon fill="green" stroke="green" stroke-width="0.31" points="654.01,-100.59 643.7,-98.16 650.25,-106.49 654.01,-100.59"/>
</g>
</g>
</svg>
