<?xml version="1.0" encoding="UTF-8" standalone="no"?>
<!DOCTYPE svg PUBLIC "-//W3C//DTD SVG 1.1//EN"
 "http://www.w3.org/Graphics/SVG/1.1/DTD/svg11.dtd">
<!-- Generated by graphviz version 12.1.1 (20240910.0053)
 -->
<!-- Pages: 1 -->
<svg width="982pt" height="335pt"
 viewBox="0.00 0.00 982.00 335.14" xmlns="http://www.w3.org/2000/svg" xmlns:xlink="http://www.w3.org/1999/xlink">
<g id="graph0" class="graph" transform="scale(1 1) rotate(0) translate(4 331.14)">
<polygon fill="white" stroke="none" points="-4,4 -4,-331.14 978,-331.14 978,4 -4,4"/>
<!-- &#45;1 -->
<g id="node1" class="node">
<title>&#45;1</title>
<polygon fill="lightgray" stroke="black" points="375.75,-250.54 352.25,-250.54 352.25,-232.04 375.75,-232.04 375.75,-250.54"/>
<text text-anchor="middle" x="364" y="-237.99" font-family="Times,serif" font-size="9.00">&#45;1</text>
</g>
<!-- 161 -->
<g id="node26" class="node">
<title>161</title>
<ellipse fill="white" stroke="black" cx="342" cy="-163.57" rx="20.86" ry="20.86"/>
<text text-anchor="middle" x="342" y="-160.27" font-family="Times,serif" font-size="9.00">161</text>
</g>
<!-- &#45;1&#45;&gt;161 -->
<g id="edge8" class="edge">
<title>&#45;1&#45;&gt;161</title>
<path fill="none" stroke="green" stroke-width="0.36" stroke-dasharray="1,5" d="M361.48,-231.6C358.81,-222.44 354.47,-207.49 350.56,-194.04"/>
<polygon fill="green" stroke="green" stroke-width="0.36" points="353.99,-193.31 347.84,-184.68 347.27,-195.26 353.99,-193.31"/>
</g>
<!-- 162 -->
<g id="node27" class="node">
<title>162</title>
<ellipse fill="white" stroke="black" cx="148" cy="-163.57" rx="20.86" ry="20.86"/>
<text text-anchor="middle" x="148" y="-160.27" font-family="Times,serif" font-size="9.00">162</text>
</g>
<!-- &#45;1&#45;&gt;162 -->
<g id="edge34" class="edge">
<title>&#45;1&#45;&gt;162</title>
<path fill="none" stroke="red" stroke-width="0.21" stroke-dasharray="1,5" d="M356.56,-231.55C352.84,-227.66 348.06,-223.31 343,-220.43 289.78,-190.08 218.85,-175.19 178.85,-168.75"/>
<polygon fill="red" stroke="red" stroke-width="0.21" points="179.64,-165.33 169.22,-167.28 178.57,-172.25 179.64,-165.33"/>
</g>
<!-- 163 -->
<g id="node28" class="node">
<title>163</title>
<ellipse fill="white" stroke="black" cx="606" cy="-163.57" rx="20.86" ry="20.86"/>
<text text-anchor="middle" x="606" y="-160.27" font-family="Times,serif" font-size="9.00">163</text>
</g>
<!-- &#45;1&#45;&gt;163 -->
<g id="edge18" class="edge">
<title>&#45;1&#45;&gt;163</title>
<path fill="none" stroke="green" stroke-width="0.19" d="M371.02,-231.89C374.78,-227.88 379.72,-223.33 385,-220.43 447,-186.36 530.17,-172.63 574.72,-167.45"/>
<polygon fill="green" stroke="green" stroke-width="0.19" points="575.06,-170.93 584.63,-166.37 574.3,-163.98 575.06,-170.93"/>
</g>
<!-- &#45;2 -->
<g id="node2" class="node">
<title>&#45;2</title>
<polygon fill="lightgray" stroke="black" points="249.75,-250.54 226.25,-250.54 226.25,-232.04 249.75,-232.04 249.75,-250.54"/>
<text text-anchor="middle" x="238" y="-237.99" font-family="Times,serif" font-size="9.00">&#45;2</text>
</g>
<!-- &#45;2&#45;&gt;161 -->
<g id="edge6" class="edge">
<title>&#45;2&#45;&gt;161</title>
<path fill="none" stroke="green" stroke-width="0.55" d="M249.08,-231.71C253.67,-228.18 259.07,-224.08 264,-220.43 281.46,-207.51 301.37,-193.26 316.71,-182.39"/>
<polygon fill="green" stroke="green" stroke-width="0.55" points="318.33,-185.53 324.47,-176.89 314.28,-179.81 318.33,-185.53"/>
</g>
<!-- &#45;3 -->
<g id="node3" class="node">
<title>&#45;3</title>
<polygon fill="lightgray" stroke="black" points="927.75,-250.54 904.25,-250.54 904.25,-232.04 927.75,-232.04 927.75,-250.54"/>
<text text-anchor="middle" x="916" y="-237.99" font-family="Times,serif" font-size="9.00">&#45;3</text>
</g>
<!-- 164 -->
<g id="node29" class="node">
<title>164</title>
<ellipse fill="white" stroke="black" cx="780" cy="-163.57" rx="20.86" ry="20.86"/>
<text text-anchor="middle" x="780" y="-160.27" font-family="Times,serif" font-size="9.00">164</text>
</g>
<!-- &#45;3&#45;&gt;164 -->
<g id="edge7" class="edge">
<title>&#45;3&#45;&gt;164</title>
<path fill="none" stroke="red" stroke-width="0.15" d="M907.93,-231.54C904.22,-227.83 899.62,-223.63 895,-220.43 867.56,-201.46 832.7,-185.51 808.59,-175.57"/>
<polygon fill="red" stroke="red" stroke-width="0.15" points="810.09,-172.4 799.5,-171.9 807.47,-178.89 810.09,-172.4"/>
</g>
<!-- &#45;4 -->
<g id="node4" class="node">
<title>&#45;4</title>
<polygon fill="lightgray" stroke="black" points="613.75,-321.89 590.25,-321.89 590.25,-303.39 613.75,-303.39 613.75,-321.89"/>
<text text-anchor="middle" x="602" y="-309.34" font-family="Times,serif" font-size="9.00">&#45;4</text>
</g>
<!-- &#45;4&#45;&gt;163 -->
<g id="edge25" class="edge">
<title>&#45;4&#45;&gt;163</title>
<path fill="none" stroke="red" stroke-width="0.27" stroke-dasharray="1,5" d="M608.89,-303.17C616.02,-293.79 626.72,-277.91 631,-262.15 635.86,-244.25 634.87,-238.56 631,-220.43 628.88,-210.51 624.87,-200.22 620.66,-191.22"/>
<polygon fill="red" stroke="red" stroke-width="0.27" points="623.87,-189.8 616.29,-182.4 617.6,-192.91 623.87,-189.8"/>
</g>
<!-- 259 -->
<g id="node30" class="node">
<title>259</title>
<ellipse fill="white" stroke="black" cx="555" cy="-241.29" rx="20.86" ry="20.86"/>
<text text-anchor="middle" x="555" y="-237.99" font-family="Times,serif" font-size="9.00">259</text>
</g>
<!-- &#45;4&#45;&gt;259 -->
<g id="edge39" class="edge">
<title>&#45;4&#45;&gt;259</title>
<path fill="none" stroke="green" stroke-width="0.12" stroke-dasharray="1,5" d="M596.24,-303.14C590.22,-294.27 580.5,-279.92 572.01,-267.39"/>
<polygon fill="green" stroke="green" stroke-width="0.12" points="575,-265.56 566.49,-259.24 569.2,-269.49 575,-265.56"/>
</g>
<!-- &#45;5 -->
<g id="node5" class="node">
<title>&#45;5</title>
<polygon fill="lightgray" stroke="black" points="701.75,-250.54 678.25,-250.54 678.25,-232.04 701.75,-232.04 701.75,-250.54"/>
<text text-anchor="middle" x="690" y="-237.99" font-family="Times,serif" font-size="9.00">&#45;5</text>
</g>
<!-- &#45;5&#45;&gt;163 -->
<g id="edge36" class="edge">
<title>&#45;5&#45;&gt;163</title>
<path fill="none" stroke="red" stroke-width="0.22" d="M680.36,-231.6C667.81,-220.28 645.46,-200.14 628.53,-184.88"/>
<polygon fill="red" stroke="red" stroke-width="0.22" points="631.21,-182.58 621.44,-178.48 626.52,-187.78 631.21,-182.58"/>
</g>
<!-- &#45;5&#45;&gt;164 -->
<g id="edge27" class="edge">
<title>&#45;5&#45;&gt;164</title>
<path fill="none" stroke="red" stroke-width="0.38" d="M698.85,-231.63C702.55,-228.09 706.92,-224 711,-220.43 725.46,-207.77 742.2,-194.19 755.57,-183.59"/>
<polygon fill="red" stroke="red" stroke-width="0.38" points="757.68,-186.39 763.37,-177.45 753.35,-180.89 757.68,-186.39"/>
</g>
<!-- &#45;6 -->
<g id="node6" class="node">
<title>&#45;6</title>
<polygon fill="lightgray" stroke="black" points="115.75,-250.54 92.25,-250.54 92.25,-232.04 115.75,-232.04 115.75,-250.54"/>
<text text-anchor="middle" x="104" y="-237.99" font-family="Times,serif" font-size="9.00">&#45;6</text>
</g>
<!-- &#45;6&#45;&gt;162 -->
<g id="edge28" class="edge">
<title>&#45;6&#45;&gt;162</title>
<path fill="none" stroke="red" stroke-width="0.47" stroke-dasharray="1,5" d="M109.05,-231.6C114.79,-221.73 124.43,-205.12 132.69,-190.91"/>
<polygon fill="red" stroke="red" stroke-width="0.47" points="135.5,-193.04 137.5,-182.64 129.45,-189.53 135.5,-193.04"/>
</g>
<!-- &#45;7 -->
<g id="node7" class="node">
<title>&#45;7</title>
<polygon fill="lightgray" stroke="black" points="655.75,-321.89 632.25,-321.89 632.25,-303.39 655.75,-303.39 655.75,-321.89"/>
<text text-anchor="middle" x="644" y="-309.34" font-family="Times,serif" font-size="9.00">&#45;7</text>
</g>
<!-- &#45;8 -->
<g id="node8" class="node">
<title>&#45;8</title>
<polygon fill="lightgray" stroke="black" points="477.75,-250.54 454.25,-250.54 454.25,-232.04 477.75,-232.04 477.75,-250.54"/>
<text text-anchor="middle" x="466" y="-237.99" font-family="Times,serif" font-size="9.00">&#45;8</text>
</g>
<!-- &#45;8&#45;&gt;161 -->
<g id="edge23" class="edge">
<title>&#45;8&#45;&gt;161</title>
<path fill="none" stroke="green" stroke-width="0.36" d="M457.86,-231.64C454.14,-227.94 449.55,-223.73 445,-220.43 421.4,-203.32 391.94,-187.86 370.59,-177.57"/>
<polygon fill="green" stroke="green" stroke-width="0.36" points="372.13,-174.43 361.59,-173.31 369.13,-180.75 372.13,-174.43"/>
</g>
<!-- &#45;8&#45;&gt;163 -->
<g id="edge31" class="edge">
<title>&#45;8&#45;&gt;163</title>
<path fill="none" stroke="green" stroke-width="0.27" d="M476.29,-231.68C480.94,-228 486.59,-223.78 492,-220.43 519.88,-203.18 553.85,-187.12 577.42,-176.69"/>
<polygon fill="green" stroke="green" stroke-width="0.27" points="578.7,-179.95 586.47,-172.74 575.9,-173.53 578.7,-179.95"/>
</g>
<!-- &#45;9 -->
<g id="node9" class="node">
<title>&#45;9</title>
<polygon fill="lightgray" stroke="black" points="426.75,-321.89 403.25,-321.89 403.25,-303.39 426.75,-303.39 426.75,-321.89"/>
<text text-anchor="middle" x="415" y="-309.34" font-family="Times,serif" font-size="9.00">&#45;9</text>
</g>
<!-- &#45;9&#45;&gt;161 -->
<g id="edge30" class="edge">
<title>&#45;9&#45;&gt;161</title>
<path fill="none" stroke="red" stroke-width="0.17" d="M402.95,-310.78C378.05,-308.26 321.23,-298.59 297,-262.15 280.7,-237.63 301.6,-206.25 320.03,-185.79"/>
<polygon fill="red" stroke="red" stroke-width="0.17" points="322.39,-188.39 326.71,-178.72 317.3,-183.59 322.39,-188.39"/>
</g>
<!-- &#45;9&#45;&gt;163 -->
<g id="edge33" class="edge">
<title>&#45;9&#45;&gt;163</title>
<path fill="none" stroke="red" stroke-width="0.62" stroke-dasharray="1,5" d="M427.08,-304.54C441.89,-295.55 467.45,-279.2 487,-262.15 505.9,-245.67 506.11,-236.93 525,-220.43 541.99,-205.59 563.01,-191.19 579.38,-180.73"/>
<polygon fill="red" stroke="red" stroke-width="0.62" points="581.02,-183.84 587.62,-175.55 577.3,-177.91 581.02,-183.84"/>
</g>
<!-- 255 -->
<g id="node33" class="node">
<title>255</title>
<ellipse fill="white" stroke="black" cx="415" cy="-241.29" rx="20.86" ry="20.86"/>
<text text-anchor="middle" x="415" y="-237.99" font-family="Times,serif" font-size="9.00">255</text>
</g>
<!-- &#45;9&#45;&gt;255 -->
<g id="edge37" class="edge">
<title>&#45;9&#45;&gt;255</title>
<path fill="none" stroke="green" stroke-width="0.23" stroke-dasharray="1,5" d="M415,-303.14C415,-295.52 415,-283.87 415,-272.79"/>
<polygon fill="green" stroke="green" stroke-width="0.23" points="418.5,-272.85 415,-262.85 411.5,-272.85 418.5,-272.85"/>
</g>
<!-- &#45;10 -->
<g id="node10" class="node">
<title>&#45;10</title>
<polygon fill="lightgray" stroke="black" points="974,-250.54 946,-250.54 946,-232.04 974,-232.04 974,-250.54"/>
<text text-anchor="middle" x="960" y="-237.99" font-family="Times,serif" font-size="9.00">&#45;10</text>
</g>
<!-- &#45;10&#45;&gt;164 -->
<g id="edge35" class="edge">
<title>&#45;10&#45;&gt;164</title>
<path fill="none" stroke="red" stroke-width="0.46" stroke-dasharray="1,5" d="M951.63,-231.73C947.51,-227.87 942.29,-223.51 937,-220.43 896.11,-196.64 843.41,-180.45 810.66,-171.86"/>
<polygon fill="red" stroke="red" stroke-width="0.46" points="811.59,-168.48 801.04,-169.41 809.87,-175.27 811.59,-168.48"/>
</g>
<!-- &#45;11 -->
<g id="node11" class="node">
<title>&#45;11</title>
<polygon fill="lightgray" stroke="black" points="840,-250.54 812,-250.54 812,-232.04 840,-232.04 840,-250.54"/>
<text text-anchor="middle" x="826" y="-237.99" font-family="Times,serif" font-size="9.00">&#45;11</text>
</g>
<!-- &#45;11&#45;&gt;164 -->
<g id="edge12" class="edge">
<title>&#45;11&#45;&gt;164</title>
<path fill="none" stroke="red" stroke-width="0.2" d="M820.72,-231.6C814.66,-221.63 804.44,-204.81 795.76,-190.51"/>
<polygon fill="red" stroke="red" stroke-width="0.2" points="798.94,-189 790.75,-182.27 792.95,-192.64 798.94,-189"/>
</g>
<!-- &#45;12 -->
<g id="node12" class="node">
<title>&#45;12</title>
<polygon fill="lightgray" stroke="black" points="162,-250.54 134,-250.54 134,-232.04 162,-232.04 162,-250.54"/>
<text text-anchor="middle" x="148" y="-237.99" font-family="Times,serif" font-size="9.00">&#45;12</text>
</g>
<!-- &#45;12&#45;&gt;161 -->
<g id="edge1" class="edge">
<title>&#45;12&#45;&gt;161</title>
<path fill="none" stroke="red" stroke-width="0.17" stroke-dasharray="1,5" d="M156.33,-231.67C160.45,-227.8 165.67,-223.44 171,-220.43 216.79,-194.57 276.32,-178.57 311.71,-170.64"/>
<polygon fill="red" stroke="red" stroke-width="0.17" points="312.17,-174.12 321.2,-168.58 310.68,-167.28 312.17,-174.12"/>
</g>
<!-- &#45;12&#45;&gt;162 -->
<g id="edge19" class="edge">
<title>&#45;12&#45;&gt;162</title>
<path fill="none" stroke="green" stroke-width="0.12" d="M148,-231.6C148,-222.56 148,-207.9 148,-194.58"/>
<polygon fill="green" stroke="green" stroke-width="0.12" points="151.5,-194.96 148,-184.96 144.5,-194.96 151.5,-194.96"/>
</g>
<!-- &#45;13 -->
<g id="node13" class="node">
<title>&#45;13</title>
<polygon fill="lightgray" stroke="black" points="208,-250.54 180,-250.54 180,-232.04 208,-232.04 208,-250.54"/>
<text text-anchor="middle" x="194" y="-237.99" font-family="Times,serif" font-size="9.00">&#45;13</text>
</g>
<!-- &#45;13&#45;&gt;161 -->
<g id="edge5" class="edge">
<title>&#45;13&#45;&gt;161</title>
<path fill="none" stroke="red" stroke-width="0.32" d="M202.48,-231.91C206.63,-228.1 211.84,-223.71 217,-220.43 247.81,-200.84 286.65,-184.65 312.79,-174.83"/>
<polygon fill="red" stroke="red" stroke-width="0.32" points="313.86,-178.17 322.03,-171.43 311.44,-171.6 313.86,-178.17"/>
</g>
<!-- &#45;13&#45;&gt;162 -->
<g id="edge29" class="edge">
<title>&#45;13&#45;&gt;162</title>
<path fill="none" stroke="green" stroke-width="0.23" stroke-dasharray="1,5" d="M188.72,-231.6C182.66,-221.63 172.44,-204.81 163.76,-190.51"/>
<polygon fill="green" stroke="green" stroke-width="0.23" points="166.96,-189.04 158.78,-182.31 160.98,-192.68 166.96,-189.04"/>
</g>
<!-- &#45;13&#45;&gt;163 -->
<g id="edge2" class="edge">
<title>&#45;13&#45;&gt;163</title>
<path fill="none" stroke="red" stroke-width="0.93" d="M201.7,-231.65C205.83,-227.58 211.24,-223.05 217,-220.43 280.7,-191.41 492.19,-173.03 573.64,-166.87"/>
<polygon fill="red" stroke="red" stroke-width="0.93" points="573.77,-170.37 583.48,-166.14 573.25,-163.39 573.77,-170.37"/>
</g>
<!-- &#45;14 -->
<g id="node14" class="node">
<title>&#45;14</title>
<polygon fill="lightgray" stroke="black" points="622,-250.54 594,-250.54 594,-232.04 622,-232.04 622,-250.54"/>
<text text-anchor="middle" x="608" y="-237.99" font-family="Times,serif" font-size="9.00">&#45;14</text>
</g>
<!-- &#45;14&#45;&gt;161 -->
<g id="edge16" class="edge">
<title>&#45;14&#45;&gt;161</title>
<path fill="none" stroke="green" stroke-width="0.66" stroke-dasharray="1,5" d="M600.2,-231.85C596.05,-227.83 590.65,-223.29 585,-220.43 514.91,-184.9 422.03,-171.67 373.93,-166.98"/>
<polygon fill="green" stroke="green" stroke-width="0.66" points="374.25,-163.5 363.98,-166.08 373.62,-170.47 374.25,-163.5"/>
</g>
<!-- &#45;14&#45;&gt;164 -->
<g id="edge22" class="edge">
<title>&#45;14&#45;&gt;164</title>
<path fill="none" stroke="red" stroke-width="0.62" d="M622.37,-233.96C650.63,-221.52 713.94,-193.65 751.16,-177.27"/>
<polygon fill="red" stroke="red" stroke-width="0.62" points="752.31,-180.59 760.05,-173.35 749.49,-174.18 752.31,-180.59"/>
</g>
<!-- &#45;15 -->
<g id="node15" class="node">
<title>&#45;15</title>
<polygon fill="lightgray" stroke="black" points="886,-250.54 858,-250.54 858,-232.04 886,-232.04 886,-250.54"/>
<text text-anchor="middle" x="872" y="-237.99" font-family="Times,serif" font-size="9.00">&#45;15</text>
</g>
<!-- &#45;15&#45;&gt;164 -->
<g id="edge21" class="edge">
<title>&#45;15&#45;&gt;164</title>
<path fill="none" stroke="red" stroke-width="0.63" stroke-dasharray="1,5" d="M862.21,-231.72C858.15,-228.19 853.37,-224.08 849,-220.43 834.26,-208.1 817.51,-194.53 804.2,-183.85"/>
<polygon fill="red" stroke="red" stroke-width="0.63" points="806.75,-181.41 796.76,-177.9 802.38,-186.88 806.75,-181.41"/>
</g>
<!-- &#45;16 -->
<g id="node16" class="node">
<title>&#45;16</title>
<polygon fill="lightgray" stroke="black" points="28,-250.54 0,-250.54 0,-232.04 28,-232.04 28,-250.54"/>
<text text-anchor="middle" x="14" y="-237.99" font-family="Times,serif" font-size="9.00">&#45;16</text>
</g>
<!-- &#45;16&#45;&gt;162 -->
<g id="edge14" class="edge">
<title>&#45;16&#45;&gt;162</title>
<path fill="none" stroke="red" stroke-width="0.22" d="M22.98,-231.62C27.07,-227.93 32.09,-223.71 37,-220.43 63.52,-202.7 96.44,-186.82 119.52,-176.56"/>
<polygon fill="red" stroke="red" stroke-width="0.22" points="120.69,-179.87 128.45,-172.65 117.89,-173.45 120.69,-179.87"/>
</g>
<!-- &#45;17 -->
<g id="node17" class="node">
<title>&#45;17</title>
<polygon fill="lightgray" stroke="black" points="74,-250.54 46,-250.54 46,-232.04 74,-232.04 74,-250.54"/>
<text text-anchor="middle" x="60" y="-237.99" font-family="Times,serif" font-size="9.00">&#45;17</text>
</g>
<!-- &#45;17&#45;&gt;162 -->
<g id="edge4" class="edge">
<title>&#45;17&#45;&gt;162</title>
<path fill="none" stroke="green" stroke-width="0.17" stroke-dasharray="1,5" d="M69.84,-231.78C73.92,-228.26 78.68,-224.15 83,-220.43 96.87,-208.48 112.42,-195.11 124.84,-184.45"/>
<polygon fill="green" stroke="green" stroke-width="0.17" points="126.99,-187.22 132.29,-178.05 122.43,-181.91 126.99,-187.22"/>
</g>
<!-- &#45;18 -->
<g id="node18" class="node">
<title>&#45;18</title>
<polygon fill="lightgray" stroke="black" points="334,-250.54 306,-250.54 306,-232.04 334,-232.04 334,-250.54"/>
<text text-anchor="middle" x="320" y="-237.99" font-family="Times,serif" font-size="9.00">&#45;18</text>
</g>
<!-- &#45;18&#45;&gt;161 -->
<g id="edge24" class="edge">
<title>&#45;18&#45;&gt;161</title>
<path fill="none" stroke="green" stroke-width="0.17" stroke-dasharray="1,5" d="M322.52,-231.6C325.21,-222.35 329.61,-207.2 333.55,-193.64"/>
<polygon fill="green" stroke="green" stroke-width="0.17" points="336.81,-194.98 336.24,-184.4 330.09,-193.03 336.81,-194.98"/>
</g>
<!-- &#45;19 -->
<g id="node19" class="node">
<title>&#45;19</title>
<polygon fill="lightgray" stroke="black" points="794,-250.54 766,-250.54 766,-232.04 794,-232.04 794,-250.54"/>
<text text-anchor="middle" x="780" y="-237.99" font-family="Times,serif" font-size="9.00">&#45;19</text>
</g>
<!-- 2 -->
<g id="node23" class="node">
<title>2</title>
<ellipse fill="lightblue" stroke="black" cx="664" cy="-14.5" rx="14.5" ry="14.5"/>
<text text-anchor="middle" x="664" y="-11.2" font-family="Times,serif" font-size="9.00">2</text>
</g>
<!-- &#45;19&#45;&gt;2 -->
<g id="edge48" class="edge">
<title>&#45;19&#45;&gt;2</title>
<path fill="none" stroke="green" stroke-width="0.23" d="M775.26,-231.61C769.3,-220.66 758.77,-201.21 750,-184.43 722.36,-131.57 690.75,-68.88 674.64,-36.77"/>
<polygon fill="green" stroke="green" stroke-width="0.23" points="677.93,-35.52 670.32,-28.15 671.67,-38.66 677.93,-35.52"/>
</g>
<!-- &#45;19&#45;&gt;164 -->
<g id="edge32" class="edge">
<title>&#45;19&#45;&gt;164</title>
<path fill="none" stroke="green" stroke-width="0.68" stroke-dasharray="1,5" d="M780,-231.6C780,-222.83 780,-208.75 780,-195.76"/>
<polygon fill="green" stroke="green" stroke-width="0.68" points="783.5,-195.81 780,-185.81 776.5,-195.81 783.5,-195.81"/>
</g>
<!-- 315 -->
<g id="node32" class="node">
<title>315</title>
<ellipse fill="white" stroke="black" cx="666" cy="-163.57" rx="20.86" ry="20.86"/>
<text text-anchor="middle" x="666" y="-160.27" font-family="Times,serif" font-size="9.00">315</text>
</g>
<!-- &#45;19&#45;&gt;315 -->
<g id="edge47" class="edge">
<title>&#45;19&#45;&gt;315</title>
<path fill="none" stroke="green" stroke-width="0.5" d="M770.88,-231.82C766.77,-228.15 761.77,-223.92 757,-220.43 745.54,-212.05 715.23,-193.71 692.73,-180.32"/>
<polygon fill="green" stroke="green" stroke-width="0.5" points="694.67,-177.41 684.28,-175.32 691.1,-183.43 694.67,-177.41"/>
</g>
<!-- &#45;20 -->
<g id="node20" class="node">
<title>&#45;20</title>
<polygon fill="lightgray" stroke="black" points="748,-250.54 720,-250.54 720,-232.04 748,-232.04 748,-250.54"/>
<text text-anchor="middle" x="734" y="-237.99" font-family="Times,serif" font-size="9.00">&#45;20</text>
</g>
<!-- &#45;20&#45;&gt;163 -->
<g id="edge20" class="edge">
<title>&#45;20&#45;&gt;163</title>
<path fill="none" stroke="green" stroke-width="0.46" d="M725.05,-231.58C720.96,-227.87 715.94,-223.67 711,-220.43 680.07,-200.17 668.16,-202.68 636,-184.43 634.64,-183.66 633.26,-182.85 631.88,-182.02"/>
<polygon fill="green" stroke="green" stroke-width="0.46" points="633.79,-179.08 623.47,-176.7 630.05,-185 633.79,-179.08"/>
</g>
<!-- &#45;20&#45;&gt;164 -->
<g id="edge11" class="edge">
<title>&#45;20&#45;&gt;164</title>
<path fill="none" stroke="red" stroke-width="0.2" d="M739.28,-231.6C745.34,-221.63 755.56,-204.81 764.24,-190.51"/>
<polygon fill="red" stroke="red" stroke-width="0.2" points="767.04,-192.64 769.24,-182.28 761.06,-189.01 767.04,-192.64"/>
</g>
<!-- 0 -->
<g id="node21" class="node">
<title>0</title>
<ellipse fill="lightblue" stroke="black" cx="342" cy="-85.85" rx="14.5" ry="14.5"/>
<text text-anchor="middle" x="342" y="-82.55" font-family="Times,serif" font-size="9.00">0</text>
</g>
<!-- 1 -->
<g id="node22" class="node">
<title>1</title>
<ellipse fill="lightblue" stroke="black" cx="795" cy="-85.85" rx="14.5" ry="14.5"/>
<text text-anchor="middle" x="795" y="-82.55" font-family="Times,serif" font-size="9.00">1</text>
</g>
<!-- 2&#45;&gt;2 -->
<g id="edge15" class="edge">
<title>2&#45;&gt;2</title>
<path fill="none" stroke="red" stroke-width="0.59" stroke-dasharray="1,5" d="M674.32,-24.94C684.81,-31.08 696.5,-27.6 696.5,-14.5 696.5,-5.69 691.22,-1.23 684.58,-1.12"/>
<polygon fill="red" stroke="red" stroke-width="0.59" points="683.82,2.3 675.17,-3.81 685.75,-4.42 683.82,2.3"/>
</g>
<!-- 2&#45;&gt;163 -->
<g id="edge41" class="edge">
<title>2&#45;&gt;163</title>
<path fill="none" stroke="green" stroke-width="0.32" stroke-dasharray="1,5" d="M666.84,-29.08C665.15,-47.16 656.16,-79.96 645,-106.71 640.2,-118.22 633.77,-130.49 627.31,-140.58"/>
<polygon fill="green" stroke="green" stroke-width="0.32" points="624.48,-138.53 621.7,-148.76 630.25,-142.49 624.48,-138.53"/>
</g>
<!-- 3 -->
<g id="node24" class="node">
<title>3</title>
<ellipse fill="lightblue" stroke="black" cx="148" cy="-85.85" rx="14.5" ry="14.5"/>
<text text-anchor="middle" x="148" y="-82.55" font-family="Times,serif" font-size="9.00">3</text>
</g>
<!-- 4 -->
<g id="node25" class="node">
<title>4</title>
<ellipse fill="lightblue" stroke="black" cx="688" cy="-312.64" rx="14.5" ry="14.5"/>
<text text-anchor="middle" x="688" y="-309.34" font-family="Times,serif" font-size="9.00">4</text>
</g>
<!-- 161&#45;&gt;0 -->
<g id="edge17" class="edge">
<title>161&#45;&gt;0</title>
<path fill="none" stroke="red" stroke-width="0.29" stroke-dasharray="1,5" d="M342,-142.28C342,-132.63 342,-121.02 342,-110.93"/>
<polygon fill="red" stroke="red" stroke-width="0.29" points="345.5,-111.17 342,-101.17 338.5,-111.17 345.5,-111.17"/>
</g>
<!-- 162&#45;&gt;0 -->
<g id="edge43" class="edge">
<title>162&#45;&gt;0</title>
<path fill="none" stroke="red" stroke-width="0.19" stroke-dasharray="1,5" d="M167.31,-155.03C203.38,-140.95 280.82,-110.73 319.31,-95.71"/>
<polygon fill="red" stroke="red" stroke-width="0.19" points="320.33,-99.06 328.38,-92.17 317.79,-92.54 320.33,-99.06"/>
</g>
<!-- 162&#45;&gt;3 -->
<g id="edge3" class="edge">
<title>162&#45;&gt;3</title>
<path fill="none" stroke="red" stroke-width="0.18" d="M148,-142.28C148,-132.63 148,-121.02 148,-110.93"/>
<polygon fill="red" stroke="red" stroke-width="0.18" points="151.5,-111.01 148,-101.01 144.5,-111.01 151.5,-111.01"/>
</g>
<!-- 163&#45;&gt;2 -->
<g id="edge13" class="edge">
<title>163&#45;&gt;2</title>
<path fill="none" stroke="green" stroke-width="0.32" d="M609.9,-142.61C614.89,-132.15 621.87,-119 627,-106.71 636.81,-83.22 644.93,-55.05 651.8,-36.3"/>
<polygon fill="green" stroke="green" stroke-width="0.32" points="655,-37.73 655.43,-27.14 648.49,-35.15 655,-37.73"/>
</g>
<!-- 405 -->
<g id="node31" class="node">
<title>405</title>
<ellipse fill="white" stroke="black" cx="606" cy="-85.85" rx="20.86" ry="20.86"/>
<text text-anchor="middle" x="606" y="-82.55" font-family="Times,serif" font-size="9.00">405</text>
</g>
<!-- 163&#45;&gt;405 -->
<g id="edge44" class="edge">
<title>163&#45;&gt;405</title>
<path fill="none" stroke="red" stroke-width="0.15" d="M600.01,-143.07C599.28,-134.95 599.08,-125.33 599.4,-116.37"/>
<polygon fill="red" stroke="red" stroke-width="0.15" points="602.88,-116.7 600,-106.5 595.9,-116.27 602.88,-116.7"/>
</g>
<!-- 164&#45;&gt;0 -->
<g id="edge10" class="edge">
<title>164&#45;&gt;0</title>
<path fill="none" stroke="red" stroke-width="0.22" d="M759.72,-157.32C742.77,-153.04 717.91,-147.02 696,-142.71 572.98,-118.5 424.29,-97.79 366.56,-90.07"/>
<polygon fill="red" stroke="red" stroke-width="0.22" points="367.27,-86.64 356.9,-88.79 366.35,-93.58 367.27,-86.64"/>
</g>
<!-- 164&#45;&gt;1 -->
<g id="edge26" class="edge">
<title>164&#45;&gt;1</title>
<path fill="none" stroke="green" stroke-width="0.59" d="M783.94,-142.68C785.86,-133 788.18,-121.28 790.2,-111.09"/>
<polygon fill="green" stroke="green" stroke-width="0.59" points="793.63,-111.77 792.14,-101.28 786.76,-110.41 793.63,-111.77"/>
</g>
<!-- 164&#45;&gt;2 -->
<g id="edge9" class="edge">
<title>164&#45;&gt;2</title>
<path fill="none" stroke="green" stroke-width="0.31" stroke-dasharray="1,5" d="M772.96,-143.48C764.65,-122.67 749.34,-89.1 729,-64.99 716.52,-50.19 698.86,-37.1 685.11,-28.11"/>
<polygon fill="green" stroke="green" stroke-width="0.31" points="687.04,-25.19 676.71,-22.81 683.3,-31.11 687.04,-25.19"/>
</g>
<!-- 259&#45;&gt;161 -->
<g id="edge40" class="edge">
<title>259&#45;&gt;161</title>
<path fill="none" stroke="green" stroke-width="0.61" d="M535.34,-233.3C497.86,-219.98 415.95,-190.86 371.73,-175.14"/>
<polygon fill="green" stroke="green" stroke-width="0.61" points="373.07,-171.9 362.48,-171.85 370.73,-178.5 373.07,-171.9"/>
</g>
<!-- 259&#45;&gt;315 -->
<g id="edge42" class="edge">
<title>259&#45;&gt;315</title>
<path fill="none" stroke="red" stroke-width="0.26" stroke-dasharray="1,5" d="M571.86,-228.79C590.11,-216.34 619.44,-196.33 640.51,-181.96"/>
<polygon fill="red" stroke="red" stroke-width="0.26" points="642.37,-184.93 648.66,-176.4 638.43,-179.14 642.37,-184.93"/>
</g>
<!-- 405&#45;&gt;2 -->
<g id="edge45" class="edge">
<title>405&#45;&gt;2</title>
<path fill="none" stroke="red" stroke-width="0.59" d="M619.16,-69.11C627.81,-58.77 639.17,-45.18 648.3,-34.27"/>
<polygon fill="red" stroke="red" stroke-width="0.59" points="650.73,-36.82 654.46,-26.9 645.36,-32.33 650.73,-36.82"/>
</g>
<!-- 405&#45;&gt;163 -->
<g id="edge46" class="edge">
<title>405&#45;&gt;163</title>
<path fill="none" stroke="red" stroke-width="0.18" d="M611.98,-106.28C612.72,-114.4 612.92,-124.01 612.6,-132.98"/>
<polygon fill="red" stroke="red" stroke-width="0.18" points="609.12,-132.61 612,-142.8 616.11,-133.03 609.12,-132.61"/>
</g>
<!-- 255&#45;&gt;161 -->
<g id="edge38" class="edge">
<title>255&#45;&gt;161</title>
<path fill="none" stroke="red" stroke-width="0.2" d="M400.92,-225.69C390.29,-214.66 375.5,-199.32 363.41,-186.77"/>
<polygon fill="red" stroke="red" stroke-width="0.2" points="365.95,-184.37 356.49,-179.6 360.91,-189.23 365.95,-184.37"/>
</g>
</g>
</svg>
