<?xml version="1.0" encoding="UTF-8" standalone="no"?>
<!DOCTYPE svg PUBLIC "-//W3C//DTD SVG 1.1//EN"
 "http://www.w3.org/Graphics/SVG/1.1/DTD/svg11.dtd">
<!-- Generated by graphviz version 12.1.1 (20240910.0053)
 -->
<!-- Pages: 1 -->
<svg width="832pt" height="169pt"
 viewBox="0.00 0.00 831.75 169.21" xmlns="http://www.w3.org/2000/svg" xmlns:xlink="http://www.w3.org/1999/xlink">
<g id="graph0" class="graph" transform="scale(1 1) rotate(0) translate(4 165.21)">
<polygon fill="white" stroke="none" points="-4,4 -4,-165.21 827.75,-165.21 827.75,4 -4,4"/>
<!-- &#45;1 -->
<g id="node1" class="node">
<title>&#45;1</title>
<polygon fill="lightgray" stroke="black" points="241.5,-161.21 218,-161.21 218,-142.71 241.5,-142.71 241.5,-161.21"/>
<text text-anchor="middle" x="229.75" y="-148.66" font-family="Times,serif" font-size="9.00">&#45;1</text>
</g>
<!-- 177 -->
<g id="node26" class="node">
<title>177</title>
<ellipse fill="white" stroke="black" cx="357.75" cy="-85.85" rx="20.86" ry="20.86"/>
<text text-anchor="middle" x="357.75" y="-82.55" font-family="Times,serif" font-size="9.00">177</text>
</g>
<!-- &#45;1&#45;&gt;177 -->
<g id="edge26" class="edge">
<title>&#45;1&#45;&gt;177</title>
<path fill="none" stroke="green" stroke-width="0.31" stroke-dasharray="1,5" d="M241.56,-145.04C261.6,-135.01 302.77,-114.39 330.32,-100.59"/>
<polygon fill="green" stroke="green" stroke-width="0.31" points="331.65,-103.84 339.02,-96.23 328.51,-97.58 331.65,-103.84"/>
</g>
<!-- 178 -->
<g id="node27" class="node">
<title>178</title>
<ellipse fill="white" stroke="black" cx="229.75" cy="-85.85" rx="20.86" ry="20.86"/>
<text text-anchor="middle" x="229.75" y="-82.55" font-family="Times,serif" font-size="9.00">178</text>
</g>
<!-- &#45;1&#45;&gt;178 -->
<g id="edge6" class="edge">
<title>&#45;1&#45;&gt;178</title>
<path fill="none" stroke="green" stroke-width="0.39" stroke-dasharray="1,5" d="M229.75,-142.31C229.75,-135.88 229.75,-126.67 229.75,-117.61"/>
<polygon fill="green" stroke="green" stroke-width="0.39" points="233.25,-117.8 229.75,-107.8 226.25,-117.8 233.25,-117.8"/>
</g>
<!-- &#45;2 -->
<g id="node2" class="node">
<title>&#45;2</title>
<polygon fill="lightgray" stroke="black" points="601.5,-161.21 578,-161.21 578,-142.71 601.5,-142.71 601.5,-161.21"/>
<text text-anchor="middle" x="589.75" y="-148.66" font-family="Times,serif" font-size="9.00">&#45;2</text>
</g>
<!-- 179 -->
<g id="node28" class="node">
<title>179</title>
<ellipse fill="white" stroke="black" cx="520.75" cy="-85.85" rx="20.86" ry="20.86"/>
<text text-anchor="middle" x="520.75" y="-82.55" font-family="Times,serif" font-size="9.00">179</text>
</g>
<!-- &#45;2&#45;&gt;179 -->
<g id="edge36" class="edge">
<title>&#45;2&#45;&gt;179</title>
<path fill="none" stroke="red" stroke-width="0.19" stroke-dasharray="1,5" d="M580.44,-142.31C570.94,-133.48 555.83,-119.44 543.19,-107.7"/>
<polygon fill="red" stroke="red" stroke-width="0.19" points="545.63,-105.19 535.92,-100.95 540.86,-110.32 545.63,-105.19"/>
</g>
<!-- 180 -->
<g id="node29" class="node">
<title>180</title>
<ellipse fill="white" stroke="black" cx="418.75" cy="-85.85" rx="20.86" ry="20.86"/>
<text text-anchor="middle" x="418.75" y="-82.55" font-family="Times,serif" font-size="9.00">180</text>
</g>
<!-- &#45;2&#45;&gt;180 -->
<g id="edge24" class="edge">
<title>&#45;2&#45;&gt;180</title>
<path fill="none" stroke="red" stroke-width="0.23" stroke-dasharray="1,5" d="M577.82,-146.08C574.87,-144.92 571.71,-143.73 568.75,-142.71 516.13,-124.51 499.17,-130.33 448.75,-106.71 447.19,-105.98 445.63,-105.18 444.07,-104.33"/>
<polygon fill="red" stroke="red" stroke-width="0.23" points="446.05,-101.44 435.68,-99.28 442.44,-107.44 446.05,-101.44"/>
</g>
<!-- &#45;3 -->
<g id="node3" class="node">
<title>&#45;3</title>
<polygon fill="lightgray" stroke="black" points="23.5,-161.21 0,-161.21 0,-142.71 23.5,-142.71 23.5,-161.21"/>
<text text-anchor="middle" x="11.75" y="-148.66" font-family="Times,serif" font-size="9.00">&#45;3</text>
</g>
<!-- &#45;3&#45;&gt;178 -->
<g id="edge21" class="edge">
<title>&#45;3&#45;&gt;178</title>
<path fill="none" stroke="red" stroke-width="0.28" d="M23.67,-146.04C26.62,-144.89 29.78,-143.71 32.75,-142.71 91.19,-123 160.9,-104.35 199.76,-94.37"/>
<polygon fill="red" stroke="red" stroke-width="0.28" points="200.18,-97.88 209,-92.02 198.45,-91.1 200.18,-97.88"/>
</g>
<!-- &#45;4 -->
<g id="node4" class="node">
<title>&#45;4</title>
<polygon fill="lightgray" stroke="black" points="467.5,-161.21 444,-161.21 444,-142.71 467.5,-142.71 467.5,-161.21"/>
<text text-anchor="middle" x="455.75" y="-148.66" font-family="Times,serif" font-size="9.00">&#45;4</text>
</g>
<!-- &#45;4&#45;&gt;178 -->
<g id="edge3" class="edge">
<title>&#45;4&#45;&gt;178</title>
<path fill="none" stroke="green" stroke-width="0.32" d="M443.84,-146.02C440.89,-144.87 437.72,-143.7 434.75,-142.71 373.52,-122.41 300.29,-103.78 260.02,-94.01"/>
<polygon fill="green" stroke="green" stroke-width="0.32" points="261.06,-90.66 250.52,-91.72 259.42,-97.46 261.06,-90.66"/>
</g>
<!-- &#45;4&#45;&gt;179 -->
<g id="edge28" class="edge">
<title>&#45;4&#45;&gt;179</title>
<path fill="none" stroke="red" stroke-width="0.52" d="M464.52,-142.31C473.19,-133.76 486.82,-120.32 498.49,-108.81"/>
<polygon fill="red" stroke="red" stroke-width="0.52" points="500.94,-111.3 505.6,-101.79 496.03,-106.32 500.94,-111.3"/>
</g>
<!-- &#45;4&#45;&gt;180 -->
<g id="edge37" class="edge">
<title>&#45;4&#45;&gt;180</title>
<path fill="none" stroke="green" stroke-width="0.29" d="M450.76,-142.31C446.46,-134.86 440.01,-123.69 434.03,-113.33"/>
<polygon fill="green" stroke="green" stroke-width="0.29" points="437.21,-111.83 429.18,-104.92 431.14,-115.33 437.21,-111.83"/>
</g>
<!-- &#45;5 -->
<g id="node5" class="node">
<title>&#45;5</title>
<polygon fill="lightgray" stroke="black" points="481.5,-95.1 458,-95.1 458,-76.6 481.5,-76.6 481.5,-95.1"/>
<text text-anchor="middle" x="469.75" y="-82.55" font-family="Times,serif" font-size="9.00">&#45;5</text>
</g>
<!-- 4 -->
<g id="node25" class="node">
<title>4</title>
<ellipse fill="lightblue" stroke="black" cx="469.75" cy="-14.5" rx="14.5" ry="14.5"/>
<text text-anchor="middle" x="469.75" y="-11.2" font-family="Times,serif" font-size="9.00">4</text>
</g>
<!-- &#45;5&#45;&gt;4 -->
<g id="edge41" class="edge">
<title>&#45;5&#45;&gt;4</title>
<path fill="none" stroke="red" stroke-width="0.35" d="M469.75,-76.35C469.75,-67.28 469.75,-52.51 469.75,-39.8"/>
<polygon fill="red" stroke="red" stroke-width="0.35" points="473.25,-39.87 469.75,-29.87 466.25,-39.87 473.25,-39.87"/>
</g>
<!-- &#45;6 -->
<g id="node6" class="node">
<title>&#45;6</title>
<polygon fill="lightgray" stroke="black" points="65.5,-161.21 42,-161.21 42,-142.71 65.5,-142.71 65.5,-161.21"/>
<text text-anchor="middle" x="53.75" y="-148.66" font-family="Times,serif" font-size="9.00">&#45;6</text>
</g>
<!-- &#45;6&#45;&gt;178 -->
<g id="edge32" class="edge">
<title>&#45;6&#45;&gt;178</title>
<path fill="none" stroke="red" stroke-width="0.23" d="M65.72,-146.19C68.67,-145.03 71.82,-143.81 74.75,-142.71 118.47,-126.25 169.49,-108.06 200.71,-97.04"/>
<polygon fill="red" stroke="red" stroke-width="0.23" points="201.52,-100.46 209.79,-93.84 199.19,-93.86 201.52,-100.46"/>
</g>
<!-- &#45;7 -->
<g id="node7" class="node">
<title>&#45;7</title>
<polygon fill="lightgray" stroke="black" points="689.5,-161.21 666,-161.21 666,-142.71 689.5,-142.71 689.5,-161.21"/>
<text text-anchor="middle" x="677.75" y="-148.66" font-family="Times,serif" font-size="9.00">&#45;7</text>
</g>
<!-- &#45;8 -->
<g id="node8" class="node">
<title>&#45;8</title>
<polygon fill="lightgray" stroke="black" points="731.5,-161.21 708,-161.21 708,-142.71 731.5,-142.71 731.5,-161.21"/>
<text text-anchor="middle" x="719.75" y="-148.66" font-family="Times,serif" font-size="9.00">&#45;8</text>
</g>
<!-- &#45;9 -->
<g id="node9" class="node">
<title>&#45;9</title>
<polygon fill="lightgray" stroke="black" points="107.5,-161.21 84,-161.21 84,-142.71 107.5,-142.71 107.5,-161.21"/>
<text text-anchor="middle" x="95.75" y="-148.66" font-family="Times,serif" font-size="9.00">&#45;9</text>
</g>
<!-- &#45;9&#45;&gt;178 -->
<g id="edge18" class="edge">
<title>&#45;9&#45;&gt;178</title>
<path fill="none" stroke="red" stroke-width="0.3" d="M107.64,-145.27C128.7,-135.19 173.08,-113.96 202.13,-100.06"/>
<polygon fill="red" stroke="red" stroke-width="0.3" points="203.43,-103.32 210.94,-95.85 200.41,-97.01 203.43,-103.32"/>
</g>
<!-- &#45;10 -->
<g id="node10" class="node">
<title>&#45;10</title>
<polygon fill="lightgray" stroke="black" points="425.75,-161.21 397.75,-161.21 397.75,-142.71 425.75,-142.71 425.75,-161.21"/>
<text text-anchor="middle" x="411.75" y="-148.66" font-family="Times,serif" font-size="9.00">&#45;10</text>
</g>
<!-- &#45;10&#45;&gt;178 -->
<g id="edge14" class="edge">
<title>&#45;10&#45;&gt;178</title>
<path fill="none" stroke="green" stroke-width="0.24" d="M397.65,-145.88C394.71,-144.83 391.63,-143.73 388.75,-142.71 343.47,-126.64 290.85,-108.2 258.94,-97.04"/>
<polygon fill="green" stroke="green" stroke-width="0.24" points="260.29,-93.81 249.7,-93.81 257.98,-100.41 260.29,-93.81"/>
</g>
<!-- &#45;10&#45;&gt;179 -->
<g id="edge20" class="edge">
<title>&#45;10&#45;&gt;179</title>
<path fill="none" stroke="green" stroke-width="0.2" stroke-dasharray="1,5" d="M426.21,-143.28C442.19,-134.7 468.61,-120.22 490.75,-106.71 492.22,-105.82 493.71,-104.88 495.22,-103.93"/>
<polygon fill="green" stroke="green" stroke-width="0.2" points="497,-106.95 503.5,-98.58 493.2,-101.07 497,-106.95"/>
</g>
<!-- &#45;10&#45;&gt;180 -->
<g id="edge8" class="edge">
<title>&#45;10&#45;&gt;180</title>
<path fill="none" stroke="red" stroke-width="0.33" stroke-dasharray="1,5" d="M412.69,-142.31C413.41,-135.76 414.44,-126.33 415.45,-117.1"/>
<polygon fill="red" stroke="red" stroke-width="0.33" points="418.9,-117.75 416.5,-107.43 411.94,-116.99 418.9,-117.75"/>
</g>
<!-- &#45;11 -->
<g id="node11" class="node">
<title>&#45;11</title>
<polygon fill="lightgray" stroke="black" points="333.75,-161.21 305.75,-161.21 305.75,-142.71 333.75,-142.71 333.75,-161.21"/>
<text text-anchor="middle" x="319.75" y="-148.66" font-family="Times,serif" font-size="9.00">&#45;11</text>
</g>
<!-- &#45;11&#45;&gt;177 -->
<g id="edge33" class="edge">
<title>&#45;11&#45;&gt;177</title>
<path fill="none" stroke="red" stroke-width="0.38" stroke-dasharray="1,5" d="M324.87,-142.31C329.32,-134.81 336.01,-123.53 342.19,-113.11"/>
<polygon fill="red" stroke="red" stroke-width="0.38" points="345.04,-115.16 347.13,-104.77 339.02,-111.59 345.04,-115.16"/>
</g>
<!-- &#45;11&#45;&gt;178 -->
<g id="edge27" class="edge">
<title>&#45;11&#45;&gt;178</title>
<path fill="none" stroke="red" stroke-width="0.21" stroke-dasharray="1,5" d="M307.61,-142.31C294.09,-132.68 271.86,-116.84 254.6,-104.55"/>
<polygon fill="red" stroke="red" stroke-width="0.21" points="257.02,-101.98 246.85,-99.03 252.96,-107.68 257.02,-101.98"/>
</g>
<!-- &#45;11&#45;&gt;179 -->
<g id="edge15" class="edge">
<title>&#45;11&#45;&gt;179</title>
<path fill="none" stroke="red" stroke-width="0.15" d="M333.78,-145.66C336.73,-144.63 339.82,-143.59 342.75,-142.71 407.59,-123.26 428.71,-133.8 490.75,-106.71 492.32,-106.02 493.91,-105.25 495.48,-104.43"/>
<polygon fill="red" stroke="red" stroke-width="0.15" points="497.18,-107.49 504.01,-99.39 493.62,-101.46 497.18,-107.49"/>
</g>
<!-- &#45;12 -->
<g id="node12" class="node">
<title>&#45;12</title>
<polygon fill="lightgray" stroke="black" points="153.75,-161.21 125.75,-161.21 125.75,-142.71 153.75,-142.71 153.75,-161.21"/>
<text text-anchor="middle" x="139.75" y="-148.66" font-family="Times,serif" font-size="9.00">&#45;12</text>
</g>
<!-- &#45;12&#45;&gt;178 -->
<g id="edge11" class="edge">
<title>&#45;12&#45;&gt;178</title>
<path fill="none" stroke="red" stroke-width="0.22" stroke-dasharray="1,5" d="M151.89,-142.31C165.41,-132.68 187.64,-116.84 204.9,-104.55"/>
<polygon fill="red" stroke="red" stroke-width="0.22" points="206.53,-107.69 212.64,-99.04 202.47,-101.99 206.53,-107.69"/>
</g>
<!-- &#45;13 -->
<g id="node13" class="node">
<title>&#45;13</title>
<polygon fill="lightgray" stroke="black" points="777.75,-161.21 749.75,-161.21 749.75,-142.71 777.75,-142.71 777.75,-161.21"/>
<text text-anchor="middle" x="763.75" y="-148.66" font-family="Times,serif" font-size="9.00">&#45;13</text>
</g>
<!-- &#45;14 -->
<g id="node14" class="node">
<title>&#45;14</title>
<polygon fill="lightgray" stroke="black" points="513.75,-161.21 485.75,-161.21 485.75,-142.71 513.75,-142.71 513.75,-161.21"/>
<text text-anchor="middle" x="499.75" y="-148.66" font-family="Times,serif" font-size="9.00">&#45;14</text>
</g>
<!-- &#45;14&#45;&gt;177 -->
<g id="edge7" class="edge">
<title>&#45;14&#45;&gt;177</title>
<path fill="none" stroke="green" stroke-width="0.28" stroke-dasharray="1,5" d="M485.32,-145.6C459.49,-135.94 406.37,-115.76 388.75,-106.71 387,-105.81 385.23,-104.84 383.46,-103.83"/>
<polygon fill="green" stroke="green" stroke-width="0.28" points="385.51,-100.99 375.14,-98.8 381.88,-106.97 385.51,-100.99"/>
</g>
<!-- &#45;14&#45;&gt;179 -->
<g id="edge29" class="edge">
<title>&#45;14&#45;&gt;179</title>
<path fill="none" stroke="red" stroke-width="0.18" d="M502.58,-142.31C504.83,-135.47 508.1,-125.48 511.25,-115.87"/>
<polygon fill="red" stroke="red" stroke-width="0.18" points="514.57,-116.98 514.35,-106.38 507.91,-114.8 514.57,-116.98"/>
</g>
<!-- &#45;14&#45;&gt;180 -->
<g id="edge4" class="edge">
<title>&#45;14&#45;&gt;180</title>
<path fill="none" stroke="red" stroke-width="0.44" d="M488.83,-142.31C477.09,-133.03 458.08,-117.98 442.82,-105.9"/>
<polygon fill="red" stroke="red" stroke-width="0.44" points="445.33,-103.42 435.31,-99.96 440.98,-108.91 445.33,-103.42"/>
</g>
<!-- &#45;15 -->
<g id="node15" class="node">
<title>&#45;15</title>
<polygon fill="lightgray" stroke="black" points="287.75,-161.21 259.75,-161.21 259.75,-142.71 287.75,-142.71 287.75,-161.21"/>
<text text-anchor="middle" x="273.75" y="-148.66" font-family="Times,serif" font-size="9.00">&#45;15</text>
</g>
<!-- &#45;15&#45;&gt;177 -->
<g id="edge30" class="edge">
<title>&#45;15&#45;&gt;177</title>
<path fill="none" stroke="red" stroke-width="0.38" stroke-dasharray="1,5" d="M285.08,-142.31C297.32,-132.97 317.21,-117.79 333.09,-105.68"/>
<polygon fill="red" stroke="red" stroke-width="0.38" points="335.13,-108.52 340.96,-99.67 330.88,-102.95 335.13,-108.52"/>
</g>
<!-- &#45;15&#45;&gt;178 -->
<g id="edge23" class="edge">
<title>&#45;15&#45;&gt;178</title>
<path fill="none" stroke="green" stroke-width="0.11" stroke-dasharray="1,5" d="M267.82,-142.31C262.49,-134.55 254.39,-122.75 247.03,-112.03"/>
<polygon fill="green" stroke="green" stroke-width="0.11" points="249.99,-110.15 241.44,-103.89 244.22,-114.12 249.99,-110.15"/>
</g>
<!-- &#45;15&#45;&gt;180 -->
<g id="edge39" class="edge">
<title>&#45;15&#45;&gt;180</title>
<path fill="none" stroke="red" stroke-width="0.51" d="M288.16,-145.78C314.54,-136.22 369.58,-115.94 387.75,-106.71 389.36,-105.89 390.98,-105.02 392.61,-104.1"/>
<polygon fill="red" stroke="red" stroke-width="0.51" points="394.31,-107.17 401.07,-99.01 390.7,-101.17 394.31,-107.17"/>
</g>
<!-- &#45;16 -->
<g id="node16" class="node">
<title>&#45;16</title>
<polygon fill="lightgray" stroke="black" points="559.75,-161.21 531.75,-161.21 531.75,-142.71 559.75,-142.71 559.75,-161.21"/>
<text text-anchor="middle" x="545.75" y="-148.66" font-family="Times,serif" font-size="9.00">&#45;16</text>
</g>
<!-- &#45;16&#45;&gt;177 -->
<g id="edge5" class="edge">
<title>&#45;16&#45;&gt;177</title>
<path fill="none" stroke="red" stroke-width="0.19" d="M531.7,-145.72C528.76,-144.68 525.66,-143.62 522.75,-142.71 463.9,-124.28 445.16,-131.64 388.75,-106.71 386.95,-105.92 385.14,-105.03 383.34,-104.07"/>
<polygon fill="red" stroke="red" stroke-width="0.19" points="385.25,-101.14 374.85,-99.11 381.72,-107.18 385.25,-101.14"/>
</g>
<!-- &#45;16&#45;&gt;179 -->
<g id="edge1" class="edge">
<title>&#45;16&#45;&gt;179</title>
<path fill="none" stroke="green" stroke-width="0.3" d="M542.38,-142.31C539.66,-135.34 535.67,-125.12 531.86,-115.35"/>
<polygon fill="green" stroke="green" stroke-width="0.3" points="535.22,-114.33 528.33,-106.29 528.7,-116.88 535.22,-114.33"/>
</g>
<!-- &#45;16&#45;&gt;180 -->
<g id="edge2" class="edge">
<title>&#45;16&#45;&gt;180</title>
<path fill="none" stroke="red" stroke-width="0.56" stroke-dasharray="1,5" d="M531.27,-145.19C512,-137.33 477.08,-122.42 448.75,-106.71 447.38,-105.95 446,-105.15 444.61,-104.33"/>
<polygon fill="red" stroke="red" stroke-width="0.56" points="446.65,-101.47 436.32,-99.12 442.92,-107.4 446.65,-101.47"/>
</g>
<!-- &#45;17 -->
<g id="node17" class="node">
<title>&#45;17</title>
<polygon fill="lightgray" stroke="black" points="199.75,-161.21 171.75,-161.21 171.75,-142.71 199.75,-142.71 199.75,-161.21"/>
<text text-anchor="middle" x="185.75" y="-148.66" font-family="Times,serif" font-size="9.00">&#45;17</text>
</g>
<!-- &#45;17&#45;&gt;178 -->
<g id="edge9" class="edge">
<title>&#45;17&#45;&gt;178</title>
<path fill="none" stroke="green" stroke-width="0.22" d="M191.68,-142.31C197.01,-134.55 205.11,-122.75 212.47,-112.03"/>
<polygon fill="green" stroke="green" stroke-width="0.22" points="215.19,-114.26 217.96,-104.03 209.41,-110.3 215.19,-114.26"/>
</g>
<!-- &#45;18 -->
<g id="node18" class="node">
<title>&#45;18</title>
<polygon fill="lightgray" stroke="black" points="647.75,-161.21 619.75,-161.21 619.75,-142.71 647.75,-142.71 647.75,-161.21"/>
<text text-anchor="middle" x="633.75" y="-148.66" font-family="Times,serif" font-size="9.00">&#45;18</text>
</g>
<!-- &#45;18&#45;&gt;179 -->
<g id="edge17" class="edge">
<title>&#45;18&#45;&gt;179</title>
<path fill="none" stroke="red" stroke-width="0.14" d="M619.44,-142.84C601.38,-132.59 569.96,-114.77 547.42,-101.98"/>
<polygon fill="red" stroke="red" stroke-width="0.14" points="549.27,-99.01 538.85,-97.12 545.82,-105.1 549.27,-99.01"/>
</g>
<!-- &#45;19 -->
<g id="node19" class="node">
<title>&#45;19</title>
<polygon fill="lightgray" stroke="black" points="823.75,-161.21 795.75,-161.21 795.75,-142.71 823.75,-142.71 823.75,-161.21"/>
<text text-anchor="middle" x="809.75" y="-148.66" font-family="Times,serif" font-size="9.00">&#45;19</text>
</g>
<!-- &#45;20 -->
<g id="node20" class="node">
<title>&#45;20</title>
<polygon fill="lightgray" stroke="black" points="379.75,-161.21 351.75,-161.21 351.75,-142.71 379.75,-142.71 379.75,-161.21"/>
<text text-anchor="middle" x="365.75" y="-148.66" font-family="Times,serif" font-size="9.00">&#45;20</text>
</g>
<!-- &#45;20&#45;&gt;177 -->
<g id="edge13" class="edge">
<title>&#45;20&#45;&gt;177</title>
<path fill="none" stroke="red" stroke-width="0.16" d="M364.67,-142.31C363.84,-135.69 362.65,-126.13 361.49,-116.8"/>
<polygon fill="red" stroke="red" stroke-width="0.16" points="365,-116.66 360.29,-107.17 358.05,-117.52 365,-116.66"/>
</g>
<!-- 0 -->
<g id="node21" class="node">
<title>0</title>
<ellipse fill="lightblue" stroke="black" cx="357.75" cy="-14.5" rx="14.5" ry="14.5"/>
<text text-anchor="middle" x="357.75" y="-11.2" font-family="Times,serif" font-size="9.00">0</text>
</g>
<!-- 1 -->
<g id="node22" class="node">
<title>1</title>
<ellipse fill="lightblue" stroke="black" cx="520.75" cy="-14.5" rx="14.5" ry="14.5"/>
<text text-anchor="middle" x="520.75" y="-11.2" font-family="Times,serif" font-size="9.00">1</text>
</g>
<!-- 1&#45;&gt;1 -->
<g id="edge31" class="edge">
<title>1&#45;&gt;1</title>
<path fill="none" stroke="red" stroke-width="0.7" d="M531.07,-24.94C541.56,-31.08 553.25,-27.6 553.25,-14.5 553.25,-5.69 547.97,-1.23 541.33,-1.12"/>
<polygon fill="red" stroke="red" stroke-width="0.7" points="540.74,2.35 532.09,-3.76 542.66,-4.38 540.74,2.35"/>
</g>
<!-- 2 -->
<g id="node23" class="node">
<title>2</title>
<ellipse fill="lightblue" stroke="black" cx="229.75" cy="-14.5" rx="14.5" ry="14.5"/>
<text text-anchor="middle" x="229.75" y="-11.2" font-family="Times,serif" font-size="9.00">2</text>
</g>
<!-- 3 -->
<g id="node24" class="node">
<title>3</title>
<ellipse fill="lightblue" stroke="black" cx="404.75" cy="-14.5" rx="14.5" ry="14.5"/>
<text text-anchor="middle" x="404.75" y="-11.2" font-family="Times,serif" font-size="9.00">3</text>
</g>
<!-- 3&#45;&gt;3 -->
<g id="edge10" class="edge">
<title>3&#45;&gt;3</title>
<path fill="none" stroke="red" stroke-width="0.21" stroke-dasharray="1,5" d="M415.07,-24.94C425.56,-31.08 437.25,-27.6 437.25,-14.5 437.25,-5.49 431.72,-1.03 424.86,-1.12"/>
<polygon fill="red" stroke="red" stroke-width="0.21" points="423.94,2.26 415.37,-3.97 425.95,-4.45 423.94,2.26"/>
</g>
<!-- 177&#45;&gt;0 -->
<g id="edge12" class="edge">
<title>177&#45;&gt;0</title>
<path fill="none" stroke="green" stroke-width="0.11" d="M357.75,-64.79C357.75,-56.89 357.75,-47.75 357.75,-39.5"/>
<polygon fill="green" stroke="green" stroke-width="0.11" points="361.25,-39.53 357.75,-29.53 354.25,-39.53 361.25,-39.53"/>
</g>
<!-- 177&#45;&gt;3 -->
<g id="edge22" class="edge">
<title>177&#45;&gt;3</title>
<path fill="none" stroke="red" stroke-width="0.22" stroke-dasharray="1,5" d="M369.13,-68.06C375.77,-58.26 384.19,-45.84 391.17,-35.53"/>
<polygon fill="red" stroke="red" stroke-width="0.22" points="393.96,-37.66 396.67,-27.42 388.16,-33.73 393.96,-37.66"/>
</g>
<!-- 178&#45;&gt;2 -->
<g id="edge16" class="edge">
<title>178&#45;&gt;2</title>
<path fill="none" stroke="green" stroke-width="0.16" d="M229.75,-64.79C229.75,-56.89 229.75,-47.75 229.75,-39.5"/>
<polygon fill="green" stroke="green" stroke-width="0.16" points="233.25,-39.59 229.75,-29.59 226.25,-39.59 233.25,-39.59"/>
</g>
<!-- 178&#45;&gt;3 -->
<g id="edge34" class="edge">
<title>178&#45;&gt;3</title>
<path fill="none" stroke="red" stroke-width="0.26" stroke-dasharray="1,5" d="M249.7,-78.59C278.99,-69.15 335.09,-50.12 380.75,-28.99 381.75,-28.53 382.76,-28.04 383.78,-27.54"/>
<polygon fill="red" stroke="red" stroke-width="0.26" points="385.22,-30.73 392.39,-22.93 381.92,-24.56 385.22,-30.73"/>
</g>
<!-- 179&#45;&gt;1 -->
<g id="edge35" class="edge">
<title>179&#45;&gt;1</title>
<path fill="none" stroke="green" stroke-width="0.48" d="M520.75,-64.79C520.75,-57.07 520.75,-48.16 520.75,-40.06"/>
<polygon fill="green" stroke="green" stroke-width="0.48" points="524.25,-40.09 520.75,-30.09 517.25,-40.09 524.25,-40.09"/>
</g>
<!-- 179&#45;&gt;3 -->
<g id="edge25" class="edge">
<title>179&#45;&gt;3</title>
<path fill="none" stroke="green" stroke-width="0.45" stroke-dasharray="1,5" d="M503.74,-73.32C499.52,-70.54 495,-67.62 490.75,-64.99 469.11,-51.62 443.82,-37.21 426.3,-27.4"/>
<polygon fill="green" stroke="green" stroke-width="0.45" points="428.46,-24.6 418.02,-22.79 425.05,-30.72 428.46,-24.6"/>
</g>
<!-- 179&#45;&gt;4 -->
<g id="edge38" class="edge">
<title>179&#45;&gt;4</title>
<path fill="none" stroke="green" stroke-width="0.12" d="M508.66,-68.41C501.3,-58.4 491.85,-45.55 484.11,-35.02"/>
<polygon fill="green" stroke="green" stroke-width="0.12" points="486.93,-32.96 478.19,-26.97 481.29,-37.1 486.93,-32.96"/>
</g>
<!-- 180&#45;&gt;3 -->
<g id="edge19" class="edge">
<title>180&#45;&gt;3</title>
<path fill="none" stroke="red" stroke-width="0.1" d="M414.78,-65.16C413.12,-56.96 411.19,-47.38 409.46,-38.83"/>
<polygon fill="red" stroke="red" stroke-width="0.1" points="412.93,-38.33 407.52,-29.22 406.07,-39.72 412.93,-38.33"/>
</g>
<!-- 180&#45;&gt;4 -->
<g id="edge40" class="edge">
<title>180&#45;&gt;4</title>
<path fill="none" stroke="red" stroke-width="0.17" d="M430.84,-68.41C438.2,-58.4 447.65,-45.55 455.39,-35.02"/>
<polygon fill="red" stroke="red" stroke-width="0.17" points="458.16,-37.17 461.26,-27.04 452.52,-33.02 458.16,-37.17"/>
</g>
</g>
</svg>
