<?xml version="1.0" encoding="UTF-8" standalone="no"?>
<!DOCTYPE svg PUBLIC "-//W3C//DTD SVG 1.1//EN"
 "http://www.w3.org/Graphics/SVG/1.1/DTD/svg11.dtd">
<!-- Generated by graphviz version 12.1.1 (20240910.0053)
 -->
<!-- Pages: 1 -->
<svg width="938pt" height="180pt"
 viewBox="0.00 0.00 938.50 179.70" xmlns="http://www.w3.org/2000/svg" xmlns:xlink="http://www.w3.org/1999/xlink">
<g id="graph0" class="graph" transform="scale(1 1) rotate(0) translate(4 175.7)">
<polygon fill="white" stroke="none" points="-4,4 -4,-175.7 934.5,-175.7 934.5,4 -4,4"/>
<!-- &#45;1 -->
<g id="node1" class="node">
<title>&#45;1</title>
<polygon fill="lightgray" stroke="black" points="467.75,-166.46 444.25,-166.46 444.25,-147.96 467.75,-147.96 467.75,-166.46"/>
<text text-anchor="middle" x="456" y="-153.91" font-family="Times,serif" font-size="9.00">&#45;1</text>
</g>
<!-- 192 -->
<g id="node26" class="node">
<title>192</title>
<ellipse fill="white" stroke="black" cx="236" cy="-85.85" rx="20.86" ry="20.86"/>
<text text-anchor="middle" x="236" y="-82.55" font-family="Times,serif" font-size="9.00">192</text>
</g>
<!-- &#45;1&#45;&gt;192 -->
<g id="edge42" class="edge">
<title>&#45;1&#45;&gt;192</title>
<path fill="none" stroke="red" stroke-width="0.25" d="M443.91,-147.58C441.08,-145.8 438,-144.06 435,-142.71 419.5,-135.74 317.96,-108.5 266.21,-94.8"/>
<polygon fill="red" stroke="red" stroke-width="0.25" points="267.19,-91.44 256.63,-92.27 265.4,-98.21 267.19,-91.44"/>
</g>
<!-- 190 -->
<g id="node28" class="node">
<title>190</title>
<ellipse fill="white" stroke="black" cx="542" cy="-85.85" rx="20.86" ry="20.86"/>
<text text-anchor="middle" x="542" y="-82.55" font-family="Times,serif" font-size="9.00">190</text>
</g>
<!-- &#45;1&#45;&gt;190 -->
<g id="edge1" class="edge">
<title>&#45;1&#45;&gt;190</title>
<path fill="none" stroke="red" stroke-width="0.12" d="M466.55,-147.7C479.34,-137.38 501.31,-119.67 518.25,-106"/>
<polygon fill="red" stroke="red" stroke-width="0.12" points="520.37,-108.79 525.96,-99.79 515.98,-103.34 520.37,-108.79"/>
</g>
<!-- 191 -->
<g id="node29" class="node">
<title>191</title>
<ellipse fill="white" stroke="black" cx="460" cy="-85.85" rx="20.86" ry="20.86"/>
<text text-anchor="middle" x="460" y="-82.55" font-family="Times,serif" font-size="9.00">191</text>
</g>
<!-- &#45;1&#45;&gt;191 -->
<g id="edge12" class="edge">
<title>&#45;1&#45;&gt;191</title>
<path fill="none" stroke="green" stroke-width="0.37" d="M456.49,-147.7C456.93,-140.08 457.6,-128.43 458.24,-117.35"/>
<polygon fill="green" stroke="green" stroke-width="0.37" points="461.72,-117.8 458.8,-107.62 454.73,-117.4 461.72,-117.8"/>
</g>
<!-- &#45;2 -->
<g id="node2" class="node">
<title>&#45;2</title>
<polygon fill="lightgray" stroke="black" points="69.75,-166.46 46.25,-166.46 46.25,-147.96 69.75,-147.96 69.75,-166.46"/>
<text text-anchor="middle" x="58" y="-153.91" font-family="Times,serif" font-size="9.00">&#45;2</text>
</g>
<!-- &#45;2&#45;&gt;192 -->
<g id="edge5" class="edge">
<title>&#45;2&#45;&gt;192</title>
<path fill="none" stroke="red" stroke-width="0.12" d="M70.16,-147.73C72.99,-145.94 76.04,-144.16 79,-142.71 121.53,-121.82 173.9,-104.8 206.11,-95.24"/>
<polygon fill="red" stroke="red" stroke-width="0.12" points="207.04,-98.62 215.66,-92.46 205.08,-91.9 207.04,-98.62"/>
</g>
<!-- &#45;3 -->
<g id="node3" class="node">
<title>&#45;3</title>
<polygon fill="lightgray" stroke="black" points="383.75,-166.46 360.25,-166.46 360.25,-147.96 383.75,-147.96 383.75,-166.46"/>
<text text-anchor="middle" x="372" y="-153.91" font-family="Times,serif" font-size="9.00">&#45;3</text>
</g>
<!-- 189 -->
<g id="node27" class="node">
<title>189</title>
<ellipse fill="white" stroke="black" cx="344" cy="-85.85" rx="20.86" ry="20.86"/>
<text text-anchor="middle" x="344" y="-82.55" font-family="Times,serif" font-size="9.00">189</text>
</g>
<!-- &#45;3&#45;&gt;189 -->
<g id="edge28" class="edge">
<title>&#45;3&#45;&gt;189</title>
<path fill="none" stroke="red" stroke-width="0.61" d="M368.57,-147.7C365.31,-139.64 360.24,-127.08 355.55,-115.46"/>
<polygon fill="red" stroke="red" stroke-width="0.61" points="358.91,-114.44 351.92,-106.48 352.42,-117.06 358.91,-114.44"/>
</g>
<!-- &#45;3&#45;&gt;191 -->
<g id="edge15" class="edge">
<title>&#45;3&#45;&gt;191</title>
<path fill="none" stroke="red" stroke-width="0.12" stroke-dasharray="1,5" d="M382.79,-147.7C396,-137.29 418.77,-119.34 436.17,-105.63"/>
<polygon fill="red" stroke="red" stroke-width="0.12" points="437.9,-108.72 443.59,-99.78 433.57,-103.23 437.9,-108.72"/>
</g>
<!-- &#45;4 -->
<g id="node4" class="node">
<title>&#45;4</title>
<polygon fill="lightgray" stroke="black" points="685.75,-166.46 662.25,-166.46 662.25,-147.96 685.75,-147.96 685.75,-166.46"/>
<text text-anchor="middle" x="674" y="-153.91" font-family="Times,serif" font-size="9.00">&#45;4</text>
</g>
<!-- &#45;4&#45;&gt;190 -->
<g id="edge6" class="edge">
<title>&#45;4&#45;&gt;190</title>
<path fill="none" stroke="green" stroke-width="0.38" d="M662.14,-148.28C659.19,-146.39 656.01,-144.43 653,-142.71 625.42,-126.97 592.85,-110.86 570.16,-100.01"/>
<polygon fill="green" stroke="green" stroke-width="0.38" points="571.83,-96.93 561.29,-95.8 568.82,-103.25 571.83,-96.93"/>
</g>
<!-- &#45;5 -->
<g id="node5" class="node">
<title>&#45;5</title>
<polygon fill="lightgray" stroke="black" points="597.75,-166.46 574.25,-166.46 574.25,-147.96 597.75,-147.96 597.75,-166.46"/>
<text text-anchor="middle" x="586" y="-153.91" font-family="Times,serif" font-size="9.00">&#45;5</text>
</g>
<!-- &#45;5&#45;&gt;191 -->
<g id="edge35" class="edge">
<title>&#45;5&#45;&gt;191</title>
<path fill="none" stroke="green" stroke-width="0.41" d="M574.11,-148.33C571.16,-146.44 567.99,-144.46 565,-142.71 539.32,-127.66 509.26,-111.85 487.9,-100.9"/>
<polygon fill="green" stroke="green" stroke-width="0.41" points="489.51,-97.79 479.02,-96.37 486.34,-104.03 489.51,-97.79"/>
</g>
<!-- &#45;6 -->
<g id="node6" class="node">
<title>&#45;6</title>
<polygon fill="lightgray" stroke="black" points="425.75,-166.46 402.25,-166.46 402.25,-147.96 425.75,-147.96 425.75,-166.46"/>
<text text-anchor="middle" x="414" y="-153.91" font-family="Times,serif" font-size="9.00">&#45;6</text>
</g>
<!-- 2 -->
<g id="node23" class="node">
<title>2</title>
<ellipse fill="lightblue" stroke="black" cx="371" cy="-14.5" rx="14.5" ry="14.5"/>
<text text-anchor="middle" x="371" y="-11.2" font-family="Times,serif" font-size="9.00">2</text>
</g>
<!-- &#45;6&#45;&gt;2 -->
<g id="edge44" class="edge">
<title>&#45;6&#45;&gt;2</title>
<path fill="none" stroke="red" stroke-width="0.11" d="M412.4,-147.52C409.28,-131.15 401.81,-94.69 392,-64.99 388.93,-55.69 384.85,-45.7 381.1,-37.14"/>
<polygon fill="red" stroke="red" stroke-width="0.11" points="384.3,-35.72 377,-28.04 377.91,-38.6 384.3,-35.72"/>
</g>
<!-- &#45;6&#45;&gt;192 -->
<g id="edge32" class="edge">
<title>&#45;6&#45;&gt;192</title>
<path fill="none" stroke="red" stroke-width="0.43" d="M401.84,-147.73C399.01,-145.94 395.96,-144.16 393,-142.71 350.65,-121.91 298.55,-104.95 266.31,-95.37"/>
<polygon fill="red" stroke="red" stroke-width="0.43" points="267.38,-92.04 256.8,-92.59 265.41,-98.75 267.38,-92.04"/>
</g>
<!-- &#45;6&#45;&gt;189 -->
<g id="edge40" class="edge">
<title>&#45;6&#45;&gt;189</title>
<path fill="none" stroke="green" stroke-width="0.2" d="M405.42,-147.7C395.56,-137.94 379.02,-121.55 365.59,-108.24"/>
<polygon fill="green" stroke="green" stroke-width="0.2" points="368.29,-105.99 358.72,-101.44 363.36,-110.96 368.29,-105.99"/>
</g>
<!-- &#45;6&#45;&gt;190 -->
<g id="edge39" class="edge">
<title>&#45;6&#45;&gt;190</title>
<path fill="none" stroke="green" stroke-width="0.22" d="M425.88,-148.31C428.83,-146.42 432,-144.45 435,-142.71 461.52,-127.31 492.69,-111.26 514.52,-100.34"/>
<polygon fill="green" stroke="green" stroke-width="0.22" points="515.86,-103.58 523.26,-96 512.74,-97.31 515.86,-103.58"/>
</g>
<!-- &#45;6&#45;&gt;191 -->
<g id="edge7" class="edge">
<title>&#45;6&#45;&gt;191</title>
<path fill="none" stroke="red" stroke-width="0.47" d="M419.64,-147.7C425.43,-138.97 434.73,-124.94 442.95,-112.56"/>
<polygon fill="red" stroke="red" stroke-width="0.47" points="445.67,-114.78 448.28,-104.52 439.84,-110.91 445.67,-114.78"/>
</g>
<!-- &#45;7 -->
<g id="node7" class="node">
<title>&#45;7</title>
<polygon fill="lightgray" stroke="black" points="509.75,-166.46 486.25,-166.46 486.25,-147.96 509.75,-147.96 509.75,-166.46"/>
<text text-anchor="middle" x="498" y="-153.91" font-family="Times,serif" font-size="9.00">&#45;7</text>
</g>
<!-- &#45;7&#45;&gt;192 -->
<g id="edge34" class="edge">
<title>&#45;7&#45;&gt;192</title>
<path fill="none" stroke="red" stroke-width="0.18" stroke-dasharray="1,5" d="M486.41,-147.73C483.45,-145.86 480.2,-144.04 477,-142.71 408.5,-114.21 386.18,-123.87 314,-106.71 298.14,-102.94 280.53,-98.48 266.07,-94.74"/>
<polygon fill="red" stroke="red" stroke-width="0.18" points="266.98,-91.37 256.42,-92.24 265.22,-98.14 266.98,-91.37"/>
</g>
<!-- &#45;7&#45;&gt;190 -->
<g id="edge37" class="edge">
<title>&#45;7&#45;&gt;190</title>
<path fill="none" stroke="red" stroke-width="0.23" d="M503.4,-147.7C508.94,-138.97 517.83,-124.94 525.69,-112.56"/>
<polygon fill="red" stroke="red" stroke-width="0.23" points="528.58,-114.54 530.98,-104.22 522.67,-110.79 528.58,-114.54"/>
</g>
<!-- &#45;7&#45;&gt;191 -->
<g id="edge14" class="edge">
<title>&#45;7&#45;&gt;191</title>
<path fill="none" stroke="red" stroke-width="0.24" d="M493.34,-147.7C488.7,-139.23 481.32,-125.77 474.69,-113.66"/>
<polygon fill="red" stroke="red" stroke-width="0.24" points="477.86,-112.17 469.99,-105.08 471.73,-115.54 477.86,-112.17"/>
</g>
<!-- &#45;8 -->
<g id="node8" class="node">
<title>&#45;8</title>
<polygon fill="lightgray" stroke="black" points="727.75,-166.46 704.25,-166.46 704.25,-147.96 727.75,-147.96 727.75,-166.46"/>
<text text-anchor="middle" x="716" y="-153.91" font-family="Times,serif" font-size="9.00">&#45;8</text>
</g>
<!-- &#45;8&#45;&gt;190 -->
<g id="edge24" class="edge">
<title>&#45;8&#45;&gt;190</title>
<path fill="none" stroke="red" stroke-width="0.17" d="M703.83,-147.74C701,-145.96 697.95,-144.17 695,-142.71 653.63,-122.18 602.77,-105.11 571.37,-95.44"/>
<polygon fill="red" stroke="red" stroke-width="0.17" points="572.72,-92.19 562.14,-92.64 570.69,-98.89 572.72,-92.19"/>
</g>
<!-- &#45;9 -->
<g id="node9" class="node">
<title>&#45;9</title>
<polygon fill="lightgray" stroke="black" points="111.75,-166.46 88.25,-166.46 88.25,-147.96 111.75,-147.96 111.75,-166.46"/>
<text text-anchor="middle" x="100" y="-153.91" font-family="Times,serif" font-size="9.00">&#45;9</text>
</g>
<!-- &#45;9&#45;&gt;192 -->
<g id="edge11" class="edge">
<title>&#45;9&#45;&gt;192</title>
<path fill="none" stroke="red" stroke-width="0.18" d="M111.84,-148.25C114.79,-146.36 117.98,-144.41 121,-142.71 149.92,-126.47 184.25,-110.16 207.83,-99.39"/>
<polygon fill="red" stroke="red" stroke-width="0.18" points="209.01,-102.7 216.67,-95.39 206.12,-96.33 209.01,-102.7"/>
</g>
<!-- &#45;10 -->
<g id="node10" class="node">
<title>&#45;10</title>
<polygon fill="lightgray" stroke="black" points="342,-166.46 314,-166.46 314,-147.96 342,-147.96 342,-166.46"/>
<text text-anchor="middle" x="328" y="-153.91" font-family="Times,serif" font-size="9.00">&#45;10</text>
</g>
<!-- &#45;10&#45;&gt;192 -->
<g id="edge9" class="edge">
<title>&#45;10&#45;&gt;192</title>
<path fill="none" stroke="green" stroke-width="0.13" d="M316.72,-147.7C302.74,-137.16 278.53,-118.91 260.26,-105.14"/>
<polygon fill="green" stroke="green" stroke-width="0.13" points="262.59,-102.52 252.5,-99.29 258.38,-108.11 262.59,-102.52"/>
</g>
<!-- &#45;10&#45;&gt;189 -->
<g id="edge17" class="edge">
<title>&#45;10&#45;&gt;189</title>
<path fill="none" stroke="green" stroke-width="0.11" d="M329.96,-147.7C331.78,-139.81 334.6,-127.6 337.23,-116.18"/>
<polygon fill="green" stroke="green" stroke-width="0.11" points="340.6,-117.18 339.43,-106.65 333.77,-115.6 340.6,-117.18"/>
</g>
<!-- &#45;10&#45;&gt;191 -->
<g id="edge18" class="edge">
<title>&#45;10&#45;&gt;191</title>
<path fill="none" stroke="green" stroke-width="0.42" stroke-dasharray="1,5" d="M342.04,-147.8C344.98,-146.08 348.08,-144.31 351,-142.71 378.16,-127.8 409.7,-111.77 431.85,-100.72"/>
<polygon fill="green" stroke="green" stroke-width="0.42" points="433.35,-103.89 440.75,-96.3 430.24,-97.62 433.35,-103.89"/>
</g>
<!-- &#45;11 -->
<g id="node11" class="node">
<title>&#45;11</title>
<polygon fill="lightgray" stroke="black" points="820,-166.46 792,-166.46 792,-147.96 820,-147.96 820,-166.46"/>
<text text-anchor="middle" x="806" y="-153.91" font-family="Times,serif" font-size="9.00">&#45;11</text>
</g>
<!-- &#45;12 -->
<g id="node12" class="node">
<title>&#45;12</title>
<polygon fill="lightgray" stroke="black" points="158,-166.46 130,-166.46 130,-147.96 158,-147.96 158,-166.46"/>
<text text-anchor="middle" x="144" y="-153.91" font-family="Times,serif" font-size="9.00">&#45;12</text>
</g>
<!-- &#45;12&#45;&gt;192 -->
<g id="edge31" class="edge">
<title>&#45;12&#45;&gt;192</title>
<path fill="none" stroke="green" stroke-width="0.42" d="M155.28,-147.7C169.14,-137.26 193.04,-119.24 211.25,-105.51"/>
<polygon fill="green" stroke="green" stroke-width="0.42" points="213.27,-108.37 219.15,-99.55 209.06,-102.78 213.27,-108.37"/>
</g>
<!-- &#45;13 -->
<g id="node13" class="node">
<title>&#45;13</title>
<polygon fill="lightgray" stroke="black" points="204,-166.46 176,-166.46 176,-147.96 204,-147.96 204,-166.46"/>
<text text-anchor="middle" x="190" y="-153.91" font-family="Times,serif" font-size="9.00">&#45;13</text>
</g>
<!-- &#45;13&#45;&gt;192 -->
<g id="edge43" class="edge">
<title>&#45;13&#45;&gt;192</title>
<path fill="none" stroke="red" stroke-width="0.18" d="M195.64,-147.7C201.49,-138.89 210.92,-124.67 219.19,-112.2"/>
<polygon fill="red" stroke="red" stroke-width="0.18" points="221.91,-114.43 224.52,-104.16 216.07,-110.56 221.91,-114.43"/>
</g>
<!-- &#45;14 -->
<g id="node14" class="node">
<title>&#45;14</title>
<polygon fill="lightgray" stroke="black" points="644,-166.46 616,-166.46 616,-147.96 644,-147.96 644,-166.46"/>
<text text-anchor="middle" x="630" y="-153.91" font-family="Times,serif" font-size="9.00">&#45;14</text>
</g>
<!-- &#45;14&#45;&gt;191 -->
<g id="edge36" class="edge">
<title>&#45;14&#45;&gt;191</title>
<path fill="none" stroke="red" stroke-width="0.13" d="M616.09,-147.54C613.14,-145.85 610.01,-144.15 607,-142.71 566.27,-123.22 554.2,-122.77 512,-106.71 504.46,-103.84 496.32,-100.74 488.76,-97.85"/>
<polygon fill="red" stroke="red" stroke-width="0.13" points="490.03,-94.59 479.44,-94.29 487.53,-101.13 490.03,-94.59"/>
</g>
<!-- &#45;15 -->
<g id="node15" class="node">
<title>&#45;15</title>
<polygon fill="lightgray" stroke="black" points="866,-166.46 838,-166.46 838,-147.96 866,-147.96 866,-166.46"/>
<text text-anchor="middle" x="852" y="-153.91" font-family="Times,serif" font-size="9.00">&#45;15</text>
</g>
<!-- &#45;16 -->
<g id="node16" class="node">
<title>&#45;16</title>
<polygon fill="lightgray" stroke="black" points="556,-166.46 528,-166.46 528,-147.96 556,-147.96 556,-166.46"/>
<text text-anchor="middle" x="542" y="-153.91" font-family="Times,serif" font-size="9.00">&#45;16</text>
</g>
<!-- &#45;16&#45;&gt;189 -->
<g id="edge4" class="edge">
<title>&#45;16&#45;&gt;189</title>
<path fill="none" stroke="red" stroke-width="0.25" d="M528.64,-147.7C525.55,-145.92 522.21,-144.14 519,-142.71 469.96,-120.82 409.73,-103.56 374.24,-94.31"/>
<polygon fill="red" stroke="red" stroke-width="0.25" points="375.4,-91 364.85,-91.9 373.66,-97.78 375.4,-91"/>
</g>
<!-- &#45;16&#45;&gt;190 -->
<g id="edge20" class="edge">
<title>&#45;16&#45;&gt;190</title>
<path fill="none" stroke="green" stroke-width="0.26" d="M542,-147.7C542,-140.08 542,-128.43 542,-117.35"/>
<polygon fill="green" stroke="green" stroke-width="0.26" points="545.5,-117.46 542,-107.46 538.5,-117.46 545.5,-117.46"/>
</g>
<!-- &#45;16&#45;&gt;191 -->
<g id="edge16" class="edge">
<title>&#45;16&#45;&gt;191</title>
<path fill="none" stroke="green" stroke-width="0.22" d="M531.95,-147.7C519.89,-137.51 499.3,-120.09 483.23,-106.5"/>
<polygon fill="green" stroke="green" stroke-width="0.22" points="485.91,-104.18 476.01,-100.39 481.39,-109.52 485.91,-104.18"/>
</g>
<!-- &#45;17 -->
<g id="node17" class="node">
<title>&#45;17</title>
<polygon fill="lightgray" stroke="black" points="250,-166.46 222,-166.46 222,-147.96 250,-147.96 250,-166.46"/>
<text text-anchor="middle" x="236" y="-153.91" font-family="Times,serif" font-size="9.00">&#45;17</text>
</g>
<!-- &#45;17&#45;&gt;192 -->
<g id="edge21" class="edge">
<title>&#45;17&#45;&gt;192</title>
<path fill="none" stroke="green" stroke-width="0.31" d="M236,-147.7C236,-140.08 236,-128.43 236,-117.35"/>
<polygon fill="green" stroke="green" stroke-width="0.31" points="239.5,-117.53 236,-107.53 232.5,-117.53 239.5,-117.53"/>
</g>
<!-- &#45;17&#45;&gt;189 -->
<g id="edge41" class="edge">
<title>&#45;17&#45;&gt;189</title>
<path fill="none" stroke="green" stroke-width="0.29" stroke-dasharray="1,5" d="M249.24,-147.7C266.3,-136.75 296.31,-117.47 318,-103.55"/>
<polygon fill="green" stroke="green" stroke-width="0.29" points="319.83,-106.53 326.35,-98.19 316.04,-100.64 319.83,-106.53"/>
</g>
<!-- &#45;17&#45;&gt;191 -->
<g id="edge23" class="edge">
<title>&#45;17&#45;&gt;191</title>
<path fill="none" stroke="green" stroke-width="0.36" d="M249.31,-147.59C252.41,-145.82 255.76,-144.07 259,-142.71 315.46,-119.01 333.05,-123.3 392,-106.71 404.54,-103.18 418.35,-99.17 430.23,-95.68"/>
<polygon fill="green" stroke="green" stroke-width="0.36" points="430.96,-99.12 439.56,-92.93 428.98,-92.4 430.96,-99.12"/>
</g>
<!-- &#45;18 -->
<g id="node18" class="node">
<title>&#45;18</title>
<polygon fill="lightgray" stroke="black" points="28,-166.46 0,-166.46 0,-147.96 28,-147.96 28,-166.46"/>
<text text-anchor="middle" x="14" y="-153.91" font-family="Times,serif" font-size="9.00">&#45;18</text>
</g>
<!-- &#45;18&#45;&gt;192 -->
<g id="edge29" class="edge">
<title>&#45;18&#45;&gt;192</title>
<path fill="none" stroke="green" stroke-width="0.26" d="M27.32,-147.62C30.42,-145.84 33.76,-144.09 37,-142.71 94.32,-118.33 165.4,-101.33 205.23,-92.91"/>
<polygon fill="green" stroke="green" stroke-width="0.26" points="205.9,-96.35 214.98,-90.89 204.48,-89.49 205.9,-96.35"/>
</g>
<!-- &#45;19 -->
<g id="node19" class="node">
<title>&#45;19</title>
<polygon fill="lightgray" stroke="black" points="296,-166.46 268,-166.46 268,-147.96 296,-147.96 296,-166.46"/>
<text text-anchor="middle" x="282" y="-153.91" font-family="Times,serif" font-size="9.00">&#45;19</text>
</g>
<!-- &#45;19&#45;&gt;192 -->
<g id="edge8" class="edge">
<title>&#45;19&#45;&gt;192</title>
<path fill="none" stroke="red" stroke-width="0.42" d="M276.36,-147.7C270.57,-138.97 261.27,-124.94 253.05,-112.56"/>
<polygon fill="red" stroke="red" stroke-width="0.42" points="256.12,-110.85 247.67,-104.45 250.29,-114.72 256.12,-110.85"/>
</g>
<!-- &#45;19&#45;&gt;191 -->
<g id="edge38" class="edge">
<title>&#45;19&#45;&gt;191</title>
<path fill="none" stroke="green" stroke-width="0.52" d="M295.89,-147.51C298.84,-145.81 301.98,-144.13 305,-142.71 347.12,-122.97 398.27,-105.77 429.99,-95.85"/>
<polygon fill="green" stroke="green" stroke-width="0.52" points="430.68,-99.3 439.2,-93 428.61,-92.61 430.68,-99.3"/>
</g>
<!-- &#45;20 -->
<g id="node20" class="node">
<title>&#45;20</title>
<polygon fill="lightgray" stroke="black" points="774,-166.46 746,-166.46 746,-147.96 774,-147.96 774,-166.46"/>
<text text-anchor="middle" x="760" y="-153.91" font-family="Times,serif" font-size="9.00">&#45;20</text>
</g>
<!-- &#45;20&#45;&gt;190 -->
<g id="edge25" class="edge">
<title>&#45;20&#45;&gt;190</title>
<path fill="none" stroke="green" stroke-width="0.49" d="M746.67,-147.63C743.58,-145.85 740.23,-144.1 737,-142.71 681.2,-118.8 612.13,-101.76 572.96,-93.18"/>
<polygon fill="green" stroke="green" stroke-width="0.49" points="573.75,-89.77 563.24,-91.1 572.28,-96.62 573.75,-89.77"/>
</g>
<!-- 0 -->
<g id="node21" class="node">
<title>0</title>
<ellipse fill="lightblue" stroke="black" cx="557" cy="-14.5" rx="14.5" ry="14.5"/>
<text text-anchor="middle" x="557" y="-11.2" font-family="Times,serif" font-size="9.00">0</text>
</g>
<!-- 0&#45;&gt;0 -->
<g id="edge33" class="edge">
<title>0&#45;&gt;0</title>
<path fill="none" stroke="red" stroke-width="0.34" stroke-dasharray="1,5" d="M567.32,-24.94C577.81,-31.08 589.5,-27.6 589.5,-14.5 589.5,-5.49 583.97,-1.03 577.11,-1.12"/>
<polygon fill="red" stroke="red" stroke-width="0.34" points="576.38,2.32 567.81,-3.91 578.39,-4.39 576.38,2.32"/>
</g>
<!-- 1 -->
<g id="node22" class="node">
<title>1</title>
<ellipse fill="lightblue" stroke="black" cx="492" cy="-14.5" rx="14.5" ry="14.5"/>
<text text-anchor="middle" x="492" y="-11.2" font-family="Times,serif" font-size="9.00">1</text>
</g>
<!-- 1&#45;&gt;1 -->
<g id="edge30" class="edge">
<title>1&#45;&gt;1</title>
<path fill="none" stroke="red" stroke-width="0.13" d="M502.32,-24.94C512.81,-31.08 524.5,-27.6 524.5,-14.5 524.5,-5.28 518.72,-0.83 511.64,-1.13"/>
<polygon fill="red" stroke="red" stroke-width="0.13" points="511,2.34 502.51,-4 513.1,-4.34 511,2.34"/>
</g>
<!-- 2&#45;&gt;2 -->
<g id="edge2" class="edge">
<title>2&#45;&gt;2</title>
<path fill="none" stroke="green" stroke-width="0.32" stroke-dasharray="1,5" d="M381.32,-24.94C391.81,-31.08 403.5,-27.6 403.5,-14.5 403.5,-5.49 397.97,-1.03 391.11,-1.12"/>
<polygon fill="green" stroke="green" stroke-width="0.32" points="390.35,2.31 381.78,-3.92 392.36,-4.4 390.35,2.31"/>
</g>
<!-- 3 -->
<g id="node24" class="node">
<title>3</title>
<ellipse fill="lightblue" stroke="black" cx="445" cy="-14.5" rx="14.5" ry="14.5"/>
<text text-anchor="middle" x="445" y="-11.2" font-family="Times,serif" font-size="9.00">3</text>
</g>
<!-- 4 -->
<g id="node25" class="node">
<title>4</title>
<ellipse fill="lightblue" stroke="black" cx="898" cy="-157.21" rx="14.5" ry="14.5"/>
<text text-anchor="middle" x="898" y="-153.91" font-family="Times,serif" font-size="9.00">4</text>
</g>
<!-- 4&#45;&gt;4 -->
<g id="edge3" class="edge">
<title>4&#45;&gt;4</title>
<path fill="none" stroke="green" stroke-width="0.45" d="M908.32,-167.65C918.81,-173.79 930.5,-170.31 930.5,-157.21 930.5,-148.4 925.22,-143.95 918.58,-143.83"/>
<polygon fill="green" stroke="green" stroke-width="0.45" points="917.62,-140.46 908.97,-146.58 919.55,-147.19 917.62,-140.46"/>
</g>
<!-- 189&#45;&gt;2 -->
<g id="edge22" class="edge">
<title>189&#45;&gt;2</title>
<path fill="none" stroke="green" stroke-width="0.4" stroke-dasharray="1,5" d="M351.38,-65.9C354.7,-57.37 358.65,-47.22 362.13,-38.28"/>
<polygon fill="green" stroke="green" stroke-width="0.4" points="365.35,-39.65 365.72,-29.06 358.83,-37.11 365.35,-39.65"/>
</g>
<!-- 189&#45;&gt;189 -->
<g id="edge19" class="edge">
<title>189&#45;&gt;189</title>
<path fill="none" stroke="red" stroke-width="0.1" d="M361.18,-98.17C372.23,-101.39 382.86,-97.28 382.86,-85.85 382.86,-77.99 377.83,-73.6 371.1,-72.66"/>
<polygon fill="red" stroke="red" stroke-width="0.1" points="370.99,-69.16 361.33,-73.52 371.6,-76.13 370.99,-69.16"/>
</g>
<!-- 190&#45;&gt;0 -->
<g id="edge27" class="edge">
<title>190&#45;&gt;0</title>
<path fill="none" stroke="red" stroke-width="0.13" d="M546.26,-65.16C548.03,-56.96 550.1,-47.38 551.95,-38.83"/>
<polygon fill="red" stroke="red" stroke-width="0.13" points="555.33,-39.78 554.02,-29.26 548.49,-38.3 555.33,-39.78"/>
</g>
<!-- 190&#45;&gt;1 -->
<g id="edge10" class="edge">
<title>190&#45;&gt;1</title>
<path fill="none" stroke="red" stroke-width="0.15" d="M530.15,-68.41C522.93,-58.4 513.67,-45.55 506.07,-35.02"/>
<polygon fill="red" stroke="red" stroke-width="0.15" points="508.99,-33.08 500.3,-27.01 503.31,-37.17 508.99,-33.08"/>
</g>
<!-- 191&#45;&gt;1 -->
<g id="edge26" class="edge">
<title>191&#45;&gt;1</title>
<path fill="none" stroke="green" stroke-width="0.15" stroke-dasharray="1,5" d="M468.41,-66.63C472.59,-57.57 477.66,-46.57 482.04,-37.09"/>
<polygon fill="green" stroke="green" stroke-width="0.15" points="485.16,-38.66 486.18,-28.12 478.81,-35.73 485.16,-38.66"/>
</g>
<!-- 191&#45;&gt;3 -->
<g id="edge13" class="edge">
<title>191&#45;&gt;3</title>
<path fill="none" stroke="red" stroke-width="0.44" d="M455.74,-65.16C454.01,-57.14 451.99,-47.8 450.17,-39.39"/>
<polygon fill="red" stroke="red" stroke-width="0.44" points="453.61,-38.76 448.08,-29.73 446.77,-40.24 453.61,-38.76"/>
</g>
</g>
</svg>
