<?xml version="1.0" encoding="UTF-8" standalone="no"?>
<!DOCTYPE svg PUBLIC "-//W3C//DTD SVG 1.1//EN"
 "http://www.w3.org/Graphics/SVG/1.1/DTD/svg11.dtd">
<!-- Generated by graphviz version 12.1.1 (20240910.0053)
 -->
<!-- Pages: 1 -->
<svg width="848pt" height="241pt"
 viewBox="0.00 0.00 847.92 240.57" xmlns="http://www.w3.org/2000/svg" xmlns:xlink="http://www.w3.org/1999/xlink">
<g id="graph0" class="graph" transform="scale(1 1) rotate(0) translate(4 236.57)">
<polygon fill="white" stroke="none" points="-4,4 -4,-236.57 843.92,-236.57 843.92,4 -4,4"/>
<!-- &#45;1 -->
<g id="node1" class="node">
<title>&#45;1</title>
<polygon fill="lightgray" stroke="black" points="175.67,-166.46 152.17,-166.46 152.17,-147.96 175.67,-147.96 175.67,-166.46"/>
<text text-anchor="middle" x="163.92" y="-153.91" font-family="Times,serif" font-size="9.00">&#45;1</text>
</g>
<!-- 96 -->
<g id="node26" class="node">
<title>96</title>
<ellipse fill="white" stroke="black" cx="163.92" cy="-82.67" rx="17.68" ry="17.68"/>
<text text-anchor="middle" x="163.92" y="-79.37" font-family="Times,serif" font-size="9.00">96</text>
</g>
<!-- &#45;1&#45;&gt;96 -->
<g id="edge36" class="edge">
<title>&#45;1&#45;&gt;96</title>
<path fill="none" stroke="green" stroke-width="0.11" d="M163.92,-147.6C163.92,-138.54 163.92,-123.81 163.92,-110.77"/>
<polygon fill="green" stroke="green" stroke-width="0.11" points="167.42,-110.98 163.92,-100.98 160.42,-110.98 167.42,-110.98"/>
</g>
<!-- 94 -->
<g id="node29" class="node">
<title>94</title>
<ellipse fill="white" stroke="black" cx="361.92" cy="-82.67" rx="17.68" ry="17.68"/>
<text text-anchor="middle" x="361.92" y="-79.37" font-family="Times,serif" font-size="9.00">94</text>
</g>
<!-- &#45;1&#45;&gt;94 -->
<g id="edge19" class="edge">
<title>&#45;1&#45;&gt;94</title>
<path fill="none" stroke="red" stroke-width="0.24" d="M170.92,-147.77C174.68,-143.75 179.63,-139.21 184.92,-136.35 245.61,-103.53 272.44,-127.35 335.92,-100.35 336.93,-99.92 337.95,-99.45 338.96,-98.95"/>
<polygon fill="red" stroke="red" stroke-width="0.24" points="340.54,-102.08 347.51,-94.1 337.09,-95.99 340.54,-102.08"/>
</g>
<!-- &#45;2 -->
<g id="node2" class="node">
<title>&#45;2</title>
<polygon fill="lightgray" stroke="black" points="217.67,-166.46 194.17,-166.46 194.17,-147.96 217.67,-147.96 217.67,-166.46"/>
<text text-anchor="middle" x="205.92" y="-153.91" font-family="Times,serif" font-size="9.00">&#45;2</text>
</g>
<!-- &#45;2&#45;&gt;96 -->
<g id="edge10" class="edge">
<title>&#45;2&#45;&gt;96</title>
<path fill="none" stroke="green" stroke-width="0.33" stroke-dasharray="1,5" d="M200.94,-147.6C195.25,-137.78 185.71,-121.31 177.74,-107.54"/>
<polygon fill="green" stroke="green" stroke-width="0.33" points="180.83,-105.89 172.79,-98.99 174.77,-109.4 180.83,-105.89"/>
</g>
<!-- &#45;2&#45;&gt;94 -->
<g id="edge2" class="edge">
<title>&#45;2&#45;&gt;94</title>
<path fill="none" stroke="green" stroke-width="0.19" d="M213.41,-147.56C217.14,-143.69 221.92,-139.33 226.92,-136.35 270.73,-110.19 289.87,-122.29 335.92,-100.35 336.91,-99.87 337.92,-99.37 338.92,-98.84"/>
<polygon fill="green" stroke="green" stroke-width="0.19" points="340.6,-101.91 347.46,-93.84 337.07,-95.87 340.6,-101.91"/>
</g>
<!-- 95 -->
<g id="node30" class="node">
<title>95</title>
<ellipse fill="white" stroke="black" cx="308.92" cy="-82.67" rx="17.68" ry="17.68"/>
<text text-anchor="middle" x="308.92" y="-79.37" font-family="Times,serif" font-size="9.00">95</text>
</g>
<!-- &#45;2&#45;&gt;95 -->
<g id="edge33" class="edge">
<title>&#45;2&#45;&gt;95</title>
<path fill="none" stroke="red" stroke-width="0.58" d="M214.18,-147.71C217.92,-144.05 222.5,-139.81 226.92,-136.35 245.41,-121.87 267.95,-107.61 284.71,-97.59"/>
<polygon fill="red" stroke="red" stroke-width="0.58" points="286.25,-100.75 293.08,-92.65 282.69,-94.72 286.25,-100.75"/>
</g>
<!-- &#45;3 -->
<g id="node3" class="node">
<title>&#45;3</title>
<polygon fill="lightgray" stroke="black" points="747.67,-232.57 724.17,-232.57 724.17,-214.07 747.67,-214.07 747.67,-232.57"/>
<text text-anchor="middle" x="735.92" y="-220.02" font-family="Times,serif" font-size="9.00">&#45;3</text>
</g>
<!-- &#45;4 -->
<g id="node4" class="node">
<title>&#45;4</title>
<polygon fill="lightgray" stroke="black" points="745.67,-166.46 722.17,-166.46 722.17,-147.96 745.67,-147.96 745.67,-166.46"/>
<text text-anchor="middle" x="733.92" y="-153.91" font-family="Times,serif" font-size="9.00">&#45;4</text>
</g>
<!-- 93 -->
<g id="node28" class="node">
<title>93</title>
<ellipse fill="white" stroke="black" cx="628.92" cy="-82.67" rx="17.68" ry="17.68"/>
<text text-anchor="middle" x="628.92" y="-79.37" font-family="Times,serif" font-size="9.00">93</text>
</g>
<!-- &#45;4&#45;&gt;93 -->
<g id="edge7" class="edge">
<title>&#45;4&#45;&gt;93</title>
<path fill="none" stroke="green" stroke-width="0.27" d="M722.91,-147.54C718.32,-144 712.91,-139.91 707.92,-136.35 689.53,-123.21 668.18,-109.04 652.32,-98.7"/>
<polygon fill="green" stroke="green" stroke-width="0.27" points="654.31,-95.82 644.01,-93.32 650.5,-101.7 654.31,-95.82"/>
</g>
<!-- &#45;5 -->
<g id="node5" class="node">
<title>&#45;5</title>
<polygon fill="lightgray" stroke="black" points="41.67,-166.46 18.17,-166.46 18.17,-147.96 41.67,-147.96 41.67,-166.46"/>
<text text-anchor="middle" x="29.92" y="-153.91" font-family="Times,serif" font-size="9.00">&#45;5</text>
</g>
<!-- &#45;5&#45;&gt;96 -->
<g id="edge24" class="edge">
<title>&#45;5&#45;&gt;96</title>
<path fill="none" stroke="red" stroke-width="0.38" d="M37.58,-147.82C41.34,-144 46.11,-139.62 50.92,-136.35 78.53,-117.59 113.87,-102.32 137.62,-93.14"/>
<polygon fill="red" stroke="red" stroke-width="0.38" points="138.67,-96.48 146.79,-89.68 136.2,-89.93 138.67,-96.48"/>
</g>
<!-- &#45;6 -->
<g id="node6" class="node">
<title>&#45;6</title>
<polygon fill="lightgray" stroke="black" points="259.67,-166.46 236.17,-166.46 236.17,-147.96 259.67,-147.96 259.67,-166.46"/>
<text text-anchor="middle" x="247.92" y="-153.91" font-family="Times,serif" font-size="9.00">&#45;6</text>
</g>
<!-- &#45;6&#45;&gt;96 -->
<g id="edge41" class="edge">
<title>&#45;6&#45;&gt;96</title>
<path fill="none" stroke="green" stroke-width="0.14" d="M239.04,-147.58C235.34,-144.05 230.97,-139.95 226.92,-136.35 213.12,-124.07 197.14,-110.72 184.73,-100.53"/>
<polygon fill="green" stroke="green" stroke-width="0.14" points="187.27,-98.08 177.31,-94.47 182.84,-103.51 187.27,-98.08"/>
</g>
<!-- &#45;6&#45;&gt;94 -->
<g id="edge15" class="edge">
<title>&#45;6&#45;&gt;94</title>
<path fill="none" stroke="red" stroke-width="0.57" d="M256.06,-147.55C259.78,-143.85 264.37,-139.64 268.92,-136.35 296.33,-116.56 306.78,-117.49 335.92,-100.35 336.75,-99.86 337.59,-99.36 338.44,-98.85"/>
<polygon fill="red" stroke="red" stroke-width="0.57" points="340.1,-101.94 346.73,-93.68 336.4,-96 340.1,-101.94"/>
</g>
<!-- &#45;6&#45;&gt;95 -->
<g id="edge23" class="edge">
<title>&#45;6&#45;&gt;95</title>
<path fill="none" stroke="red" stroke-width="0.79" d="M255.16,-147.6C263.89,-137.22 278.88,-119.4 290.81,-105.2"/>
<polygon fill="red" stroke="red" stroke-width="0.79" points="293.24,-107.75 297,-97.85 287.89,-103.25 293.24,-107.75"/>
</g>
<!-- &#45;7 -->
<g id="node7" class="node">
<title>&#45;7</title>
<polygon fill="lightgray" stroke="black" points="481.67,-166.46 458.17,-166.46 458.17,-147.96 481.67,-147.96 481.67,-166.46"/>
<text text-anchor="middle" x="469.92" y="-153.91" font-family="Times,serif" font-size="9.00">&#45;7</text>
</g>
<!-- &#45;7&#45;&gt;94 -->
<g id="edge18" class="edge">
<title>&#45;7&#45;&gt;94</title>
<path fill="none" stroke="red" stroke-width="0.37" d="M461.71,-147.66C457.97,-143.98 453.39,-139.75 448.92,-136.35 429.01,-121.18 404.48,-106.66 386.54,-96.72"/>
<polygon fill="red" stroke="red" stroke-width="0.37" points="388.28,-93.68 377.83,-91.96 384.93,-99.82 388.28,-93.68"/>
</g>
<!-- &#45;8 -->
<g id="node8" class="node">
<title>&#45;8</title>
<polygon fill="lightgray" stroke="black" points="705.67,-232.57 682.17,-232.57 682.17,-214.07 705.67,-214.07 705.67,-232.57"/>
<text text-anchor="middle" x="693.92" y="-220.02" font-family="Times,serif" font-size="9.00">&#45;8</text>
</g>
<!-- &#45;8&#45;&gt;96 -->
<g id="edge20" class="edge">
<title>&#45;8&#45;&gt;96</title>
<path fill="none" stroke="red" stroke-width="0.14" d="M681.82,-222.5C594.01,-223.73 56.81,-229.14 8.92,-178.07 -3.76,-164.54 -1.88,-151.42 8.92,-136.35 37.92,-95.87 99.83,-86.12 136.02,-84"/>
<polygon fill="red" stroke="red" stroke-width="0.14" points="135.87,-87.51 145.71,-83.58 135.57,-80.52 135.87,-87.51"/>
</g>
<!-- 359 -->
<g id="node27" class="node">
<title>359</title>
<ellipse fill="white" stroke="black" cx="784.92" cy="-157.21" rx="20.86" ry="20.86"/>
<text text-anchor="middle" x="784.92" y="-153.91" font-family="Times,serif" font-size="9.00">359</text>
</g>
<!-- &#45;8&#45;&gt;359 -->
<g id="edge43" class="edge">
<title>&#45;8&#45;&gt;359</title>
<path fill="none" stroke="green" stroke-width="0.29" d="M705.82,-213.93C719.48,-204.31 742.28,-188.25 759.9,-175.84"/>
<polygon fill="green" stroke="green" stroke-width="0.29" points="761.55,-178.95 767.71,-170.33 757.52,-173.23 761.55,-178.95"/>
</g>
<!-- &#45;8&#45;&gt;93 -->
<g id="edge31" class="edge">
<title>&#45;8&#45;&gt;93</title>
<path fill="none" stroke="green" stroke-width="0.44" stroke-dasharray="1,5" d="M693.43,-213.8C692.23,-197.8 688.15,-162.54 674.92,-136.35 668.51,-123.65 658.33,-111.53 649.17,-102.13"/>
<polygon fill="green" stroke="green" stroke-width="0.44" points="651.89,-99.9 642.31,-95.39 646.99,-104.9 651.89,-99.9"/>
</g>
<!-- &#45;9 -->
<g id="node9" class="node">
<title>&#45;9</title>
<polygon fill="lightgray" stroke="black" points="347.67,-166.46 324.17,-166.46 324.17,-147.96 347.67,-147.96 347.67,-166.46"/>
<text text-anchor="middle" x="335.92" y="-153.91" font-family="Times,serif" font-size="9.00">&#45;9</text>
</g>
<!-- &#45;9&#45;&gt;96 -->
<g id="edge25" class="edge">
<title>&#45;9&#45;&gt;96</title>
<path fill="none" stroke="green" stroke-width="0.23" d="M328.41,-147.6C324.67,-143.73 319.9,-139.37 314.92,-136.35 275.07,-112.1 222.49,-96.99 191.05,-89.47"/>
<polygon fill="green" stroke="green" stroke-width="0.23" points="192.12,-86.12 181.59,-87.28 190.55,-92.94 192.12,-86.12"/>
</g>
<!-- &#45;9&#45;&gt;93 -->
<g id="edge30" class="edge">
<title>&#45;9&#45;&gt;93</title>
<path fill="none" stroke="green" stroke-width="0.52" d="M342.87,-147.68C346.62,-143.63 351.57,-139.1 356.92,-136.35 438.27,-94.57 548.81,-85.79 600.32,-84.04"/>
<polygon fill="green" stroke="green" stroke-width="0.52" points="600.26,-87.54 610.16,-83.77 600.07,-80.55 600.26,-87.54"/>
</g>
<!-- &#45;9&#45;&gt;94 -->
<g id="edge16" class="edge">
<title>&#45;9&#45;&gt;94</title>
<path fill="none" stroke="red" stroke-width="0.21" d="M339.01,-147.6C342.37,-138.21 347.92,-122.73 352.72,-109.35"/>
<polygon fill="red" stroke="red" stroke-width="0.21" points="356,-110.57 356.08,-99.98 349.41,-108.21 356,-110.57"/>
</g>
<!-- &#45;9&#45;&gt;95 -->
<g id="edge12" class="edge">
<title>&#45;9&#45;&gt;95</title>
<path fill="none" stroke="green" stroke-width="0.36" d="M332.72,-147.6C329.22,-138.21 323.46,-122.73 318.48,-109.35"/>
<polygon fill="green" stroke="green" stroke-width="0.36" points="321.84,-108.33 315.07,-100.18 315.28,-110.77 321.84,-108.33"/>
</g>
<!-- &#45;10 -->
<g id="node10" class="node">
<title>&#45;10</title>
<polygon fill="lightgray" stroke="black" points="527.92,-166.46 499.92,-166.46 499.92,-147.96 527.92,-147.96 527.92,-166.46"/>
<text text-anchor="middle" x="513.92" y="-153.91" font-family="Times,serif" font-size="9.00">&#45;10</text>
</g>
<!-- &#45;10&#45;&gt;94 -->
<g id="edge40" class="edge">
<title>&#45;10&#45;&gt;94</title>
<path fill="none" stroke="red" stroke-width="0.19" d="M505.49,-147.75C501.35,-143.92 496.14,-139.55 490.92,-136.35 457.82,-116.05 415.52,-100.5 388.57,-91.72"/>
<polygon fill="red" stroke="red" stroke-width="0.19" points="389.91,-88.47 379.32,-88.78 387.79,-95.15 389.91,-88.47"/>
</g>
<!-- &#45;11 -->
<g id="node11" class="node">
<title>&#45;11</title>
<polygon fill="lightgray" stroke="black" points="87.92,-166.46 59.92,-166.46 59.92,-147.96 87.92,-147.96 87.92,-166.46"/>
<text text-anchor="middle" x="73.92" y="-153.91" font-family="Times,serif" font-size="9.00">&#45;11</text>
</g>
<!-- &#45;11&#45;&gt;96 -->
<g id="edge9" class="edge">
<title>&#45;11&#45;&gt;96</title>
<path fill="none" stroke="red" stroke-width="0.16" stroke-dasharray="1,5" d="M83.69,-147.6C87.74,-144.07 92.53,-139.97 96.92,-136.35 111.82,-124.07 128.92,-110.63 142.13,-100.4"/>
<polygon fill="red" stroke="red" stroke-width="0.16" points="144.21,-103.21 149.98,-94.33 139.93,-97.67 144.21,-103.21"/>
</g>
<!-- &#45;11&#45;&gt;94 -->
<g id="edge17" class="edge">
<title>&#45;11&#45;&gt;94</title>
<path fill="none" stroke="red" stroke-width="0.59" stroke-dasharray="1,5" d="M81.63,-147.59C85.76,-143.52 91.17,-138.99 96.92,-136.35 194.52,-91.48 235.38,-138.18 335.92,-100.35 336.82,-100.01 337.72,-99.63 338.62,-99.23"/>
<polygon fill="red" stroke="red" stroke-width="0.59" points="340.03,-102.45 347.14,-94.59 336.68,-96.31 340.03,-102.45"/>
</g>
<!-- &#45;12 -->
<g id="node12" class="node">
<title>&#45;12</title>
<polygon fill="lightgray" stroke="black" points="393.92,-166.46 365.92,-166.46 365.92,-147.96 393.92,-147.96 393.92,-166.46"/>
<text text-anchor="middle" x="379.92" y="-153.91" font-family="Times,serif" font-size="9.00">&#45;12</text>
</g>
<!-- &#45;12&#45;&gt;94 -->
<g id="edge26" class="edge">
<title>&#45;12&#45;&gt;94</title>
<path fill="none" stroke="green" stroke-width="0.53" d="M377.79,-147.6C375.53,-138.51 371.86,-123.72 368.62,-110.65"/>
<polygon fill="green" stroke="green" stroke-width="0.53" points="372.03,-109.88 366.23,-101.02 365.24,-111.57 372.03,-109.88"/>
</g>
<!-- &#45;12&#45;&gt;95 -->
<g id="edge21" class="edge">
<title>&#45;12&#45;&gt;95</title>
<path fill="none" stroke="green" stroke-width="0.65" d="M371.5,-147.6C360.9,-136.77 342.37,-117.84 328.22,-103.38"/>
<polygon fill="green" stroke="green" stroke-width="0.65" points="331.07,-101.29 321.57,-96.59 326.06,-106.18 331.07,-101.29"/>
</g>
<!-- &#45;13 -->
<g id="node13" class="node">
<title>&#45;13</title>
<polygon fill="lightgray" stroke="black" points="793.92,-232.57 765.92,-232.57 765.92,-214.07 793.92,-214.07 793.92,-232.57"/>
<text text-anchor="middle" x="779.92" y="-220.02" font-family="Times,serif" font-size="9.00">&#45;13</text>
</g>
<!-- &#45;14 -->
<g id="node14" class="node">
<title>&#45;14</title>
<polygon fill="lightgray" stroke="black" points="133.92,-166.46 105.92,-166.46 105.92,-147.96 133.92,-147.96 133.92,-166.46"/>
<text text-anchor="middle" x="119.92" y="-153.91" font-family="Times,serif" font-size="9.00">&#45;14</text>
</g>
<!-- &#45;14&#45;&gt;96 -->
<g id="edge29" class="edge">
<title>&#45;14&#45;&gt;96</title>
<path fill="none" stroke="red" stroke-width="0.11" stroke-dasharray="1,5" d="M125.14,-147.6C131.19,-137.63 141.41,-120.78 149.84,-106.88"/>
<polygon fill="red" stroke="red" stroke-width="0.11" points="152.78,-108.79 154.97,-98.43 146.79,-105.16 152.78,-108.79"/>
</g>
<!-- &#45;14&#45;&gt;94 -->
<g id="edge6" class="edge">
<title>&#45;14&#45;&gt;94</title>
<path fill="none" stroke="green" stroke-width="0.26" stroke-dasharray="1,5" d="M127.67,-147.67C131.81,-143.63 137.22,-139.09 142.92,-136.35 221.56,-98.52 254.8,-132.5 335.92,-100.35 336.94,-99.94 337.97,-99.49 338.99,-99.01"/>
<polygon fill="green" stroke="green" stroke-width="0.26" points="340.51,-102.18 347.54,-94.25 337.1,-96.06 340.51,-102.18"/>
</g>
<!-- &#45;15 -->
<g id="node15" class="node">
<title>&#45;15</title>
<polygon fill="lightgray" stroke="black" points="839.92,-232.57 811.92,-232.57 811.92,-214.07 839.92,-214.07 839.92,-232.57"/>
<text text-anchor="middle" x="825.92" y="-220.02" font-family="Times,serif" font-size="9.00">&#45;15</text>
</g>
<!-- &#45;16 -->
<g id="node16" class="node">
<title>&#45;16</title>
<polygon fill="lightgray" stroke="black" points="619.92,-166.46 591.92,-166.46 591.92,-147.96 619.92,-147.96 619.92,-166.46"/>
<text text-anchor="middle" x="605.92" y="-153.91" font-family="Times,serif" font-size="9.00">&#45;16</text>
</g>
<!-- &#45;16&#45;&gt;93 -->
<g id="edge11" class="edge">
<title>&#45;16&#45;&gt;93</title>
<path fill="none" stroke="green" stroke-width="0.15" d="M608.65,-147.6C611.61,-138.27 616.47,-122.93 620.7,-109.61"/>
<polygon fill="green" stroke="green" stroke-width="0.15" points="624,-110.76 623.69,-100.17 617.33,-108.64 624,-110.76"/>
</g>
<!-- &#45;16&#45;&gt;94 -->
<g id="edge42" class="edge">
<title>&#45;16&#45;&gt;94</title>
<path fill="none" stroke="green" stroke-width="0.16" stroke-dasharray="1,5" d="M598.12,-147.79C593.96,-143.78 588.56,-139.23 582.92,-136.35 518.67,-103.46 433.35,-90.67 389.92,-86.05"/>
<polygon fill="green" stroke="green" stroke-width="0.16" points="390.34,-82.58 380.05,-85.07 389.65,-89.54 390.34,-82.58"/>
</g>
<!-- &#45;17 -->
<g id="node17" class="node">
<title>&#45;17</title>
<polygon fill="lightgray" stroke="black" points="439.92,-166.46 411.92,-166.46 411.92,-147.96 439.92,-147.96 439.92,-166.46"/>
<text text-anchor="middle" x="425.92" y="-153.91" font-family="Times,serif" font-size="9.00">&#45;17</text>
</g>
<!-- &#45;17&#45;&gt;94 -->
<g id="edge37" class="edge">
<title>&#45;17&#45;&gt;94</title>
<path fill="none" stroke="red" stroke-width="0.13" d="M418.33,-147.6C408.94,-136.96 392.66,-118.5 379.99,-104.15"/>
<polygon fill="red" stroke="red" stroke-width="0.13" points="382.76,-102 373.52,-96.82 377.51,-106.63 382.76,-102"/>
</g>
<!-- &#45;17&#45;&gt;95 -->
<g id="edge5" class="edge">
<title>&#45;17&#45;&gt;95</title>
<path fill="none" stroke="red" stroke-width="0.36" stroke-dasharray="1,5" d="M416.91,-147.59C412.81,-143.9 407.8,-139.68 402.92,-136.35 374.69,-117.05 364.45,-117.59 334.92,-100.35 333.97,-99.79 333.01,-99.22 332.04,-98.64"/>
<polygon fill="red" stroke="red" stroke-width="0.36" points="334.17,-95.84 323.83,-93.52 330.47,-101.78 334.17,-95.84"/>
</g>
<!-- &#45;18 -->
<g id="node18" class="node">
<title>&#45;18</title>
<polygon fill="lightgray" stroke="black" points="305.92,-166.46 277.92,-166.46 277.92,-147.96 305.92,-147.96 305.92,-166.46"/>
<text text-anchor="middle" x="291.92" y="-153.91" font-family="Times,serif" font-size="9.00">&#45;18</text>
</g>
<!-- &#45;18&#45;&gt;94 -->
<g id="edge1" class="edge">
<title>&#45;18&#45;&gt;94</title>
<path fill="none" stroke="red" stroke-width="0.13" stroke-dasharray="1,5" d="M300.23,-147.6C310.71,-136.73 329.07,-117.71 343.04,-103.24"/>
<polygon fill="red" stroke="red" stroke-width="0.13" points="345.32,-105.91 349.75,-96.28 340.29,-101.05 345.32,-105.91"/>
</g>
<!-- &#45;18&#45;&gt;95 -->
<g id="edge27" class="edge">
<title>&#45;18&#45;&gt;95</title>
<path fill="none" stroke="red" stroke-width="0.16" d="M293.94,-147.6C296.11,-138.33 299.68,-123.12 302.78,-109.87"/>
<polygon fill="red" stroke="red" stroke-width="0.16" points="306.11,-111.01 304.98,-100.47 299.29,-109.41 306.11,-111.01"/>
</g>
<!-- &#45;19 -->
<g id="node19" class="node">
<title>&#45;19</title>
<polygon fill="lightgray" stroke="black" points="573.92,-166.46 545.92,-166.46 545.92,-147.96 573.92,-147.96 573.92,-166.46"/>
<text text-anchor="middle" x="559.92" y="-153.91" font-family="Times,serif" font-size="9.00">&#45;19</text>
</g>
<!-- &#45;19&#45;&gt;94 -->
<g id="edge34" class="edge">
<title>&#45;19&#45;&gt;94</title>
<path fill="none" stroke="green" stroke-width="0.13" d="M551.62,-147.53C547.51,-143.65 542.29,-139.29 536.92,-136.35 488.45,-109.72 424.86,-94.93 389.21,-88.21"/>
<polygon fill="green" stroke="green" stroke-width="0.13" points="390.17,-84.82 379.71,-86.48 388.92,-91.71 390.17,-84.82"/>
</g>
<!-- &#45;20 -->
<g id="node20" class="node">
<title>&#45;20</title>
<polygon fill="lightgray" stroke="black" points="665.92,-166.46 637.92,-166.46 637.92,-147.96 665.92,-147.96 665.92,-166.46"/>
<text text-anchor="middle" x="651.92" y="-153.91" font-family="Times,serif" font-size="9.00">&#45;20</text>
</g>
<!-- &#45;20&#45;&gt;93 -->
<g id="edge35" class="edge">
<title>&#45;20&#45;&gt;93</title>
<path fill="none" stroke="red" stroke-width="0.14" d="M649.19,-147.6C646.24,-138.27 641.37,-122.93 637.15,-109.61"/>
<polygon fill="red" stroke="red" stroke-width="0.14" points="640.51,-108.62 634.15,-100.15 633.83,-110.74 640.51,-108.62"/>
</g>
<!-- 0 -->
<g id="node21" class="node">
<title>0</title>
<ellipse fill="lightblue" stroke="black" cx="308.92" cy="-14.5" rx="14.5" ry="14.5"/>
<text text-anchor="middle" x="308.92" y="-11.2" font-family="Times,serif" font-size="9.00">0</text>
</g>
<!-- 1 -->
<g id="node22" class="node">
<title>1</title>
<ellipse fill="lightblue" stroke="black" cx="358.92" cy="-14.5" rx="14.5" ry="14.5"/>
<text text-anchor="middle" x="358.92" y="-11.2" font-family="Times,serif" font-size="9.00">1</text>
</g>
<!-- 2 -->
<g id="node23" class="node">
<title>2</title>
<ellipse fill="lightblue" stroke="black" cx="221.92" cy="-14.5" rx="14.5" ry="14.5"/>
<text text-anchor="middle" x="221.92" y="-11.2" font-family="Times,serif" font-size="9.00">2</text>
</g>
<!-- 3 -->
<g id="node24" class="node">
<title>3</title>
<ellipse fill="lightblue" stroke="black" cx="590.92" cy="-14.5" rx="14.5" ry="14.5"/>
<text text-anchor="middle" x="590.92" y="-11.2" font-family="Times,serif" font-size="9.00">3</text>
</g>
<!-- 4 -->
<g id="node25" class="node">
<title>4</title>
<ellipse fill="lightblue" stroke="black" cx="449.92" cy="-14.5" rx="14.5" ry="14.5"/>
<text text-anchor="middle" x="449.92" y="-11.2" font-family="Times,serif" font-size="9.00">4</text>
</g>
<!-- 4&#45;&gt;4 -->
<g id="edge13" class="edge">
<title>4&#45;&gt;4</title>
<path fill="none" stroke="green" stroke-width="0.37" d="M460.57,-24.65C470.98,-30.26 482.42,-26.88 482.42,-14.5 482.42,-6.18 477.26,-1.92 470.71,-1.72"/>
<polygon fill="green" stroke="green" stroke-width="0.37" points="469.93,1.69 461.12,-4.2 471.68,-5.08 469.93,1.69"/>
</g>
<!-- 96&#45;&gt;2 -->
<g id="edge39" class="edge">
<title>96&#45;&gt;2</title>
<path fill="none" stroke="red" stroke-width="0.34" stroke-dasharray="1,5" d="M175.38,-68.6C184.12,-58.63 196.25,-44.79 205.94,-33.73"/>
<polygon fill="red" stroke="red" stroke-width="0.34" points="208.48,-36.14 212.44,-26.31 203.22,-31.53 208.48,-36.14"/>
</g>
<!-- 359&#45;&gt;93 -->
<g id="edge44" class="edge">
<title>359&#45;&gt;93</title>
<path fill="none" stroke="green" stroke-width="0.34" d="M768.13,-144.29C763.91,-141.52 759.33,-138.7 754.92,-136.35 721.83,-118.68 681.52,-102.73 655.55,-93.12"/>
<polygon fill="green" stroke="green" stroke-width="0.34" points="656.76,-89.84 646.17,-89.7 654.36,-96.42 656.76,-89.84"/>
</g>
<!-- 93&#45;&gt;3 -->
<g id="edge3" class="edge">
<title>93&#45;&gt;3</title>
<path fill="none" stroke="red" stroke-width="0.56" d="M620.49,-66.98C615.37,-58.07 608.76,-46.55 603.08,-36.67"/>
<polygon fill="red" stroke="red" stroke-width="0.56" points="606.25,-35.15 598.23,-28.23 600.18,-38.64 606.25,-35.15"/>
</g>
<!-- 93&#45;&gt;4 -->
<g id="edge32" class="edge">
<title>93&#45;&gt;4</title>
<path fill="none" stroke="red" stroke-width="0.16" stroke-dasharray="1,5" d="M612.4,-75.56C580.28,-63.69 509.36,-37.47 472.77,-23.94"/>
<polygon fill="red" stroke="red" stroke-width="0.16" points="474.24,-20.75 463.64,-20.57 471.81,-27.32 474.24,-20.75"/>
</g>
<!-- 94&#45;&gt;1 -->
<g id="edge28" class="edge">
<title>94&#45;&gt;1</title>
<path fill="none" stroke="green" stroke-width="0.18" stroke-dasharray="1,5" d="M361.15,-64.63C360.8,-56.87 360.38,-47.57 359.99,-39.15"/>
<polygon fill="green" stroke="green" stroke-width="0.18" points="363.5,-39.25 359.55,-29.42 356.51,-39.57 363.5,-39.25"/>
</g>
<!-- 95&#45;&gt;0 -->
<g id="edge22" class="edge">
<title>95&#45;&gt;0</title>
<path fill="none" stroke="red" stroke-width="0.29" d="M308.92,-64.63C308.92,-56.96 308.92,-47.77 308.92,-39.43"/>
<polygon fill="red" stroke="red" stroke-width="0.29" points="312.42,-39.58 308.92,-29.58 305.42,-39.58 312.42,-39.58"/>
</g>
<!-- 95&#45;&gt;1 -->
<g id="edge38" class="edge">
<title>95&#45;&gt;1</title>
<path fill="none" stroke="red" stroke-width="0.46" d="M319.28,-67.96C326.52,-58.38 336.29,-45.45 344.32,-34.82"/>
<polygon fill="red" stroke="red" stroke-width="0.46" points="346.9,-37.21 350.14,-27.12 341.32,-32.99 346.9,-37.21"/>
</g>
<!-- 95&#45;&gt;2 -->
<g id="edge8" class="edge">
<title>95&#45;&gt;2</title>
<path fill="none" stroke="red" stroke-width="0.42" d="M295.33,-71.33C280.89,-60.35 257.94,-42.89 241.55,-30.42"/>
<polygon fill="red" stroke="red" stroke-width="0.42" points="243.8,-27.74 233.72,-24.47 239.56,-33.31 243.8,-27.74"/>
</g>
<!-- 95&#45;&gt;3 -->
<g id="edge4" class="edge">
<title>95&#45;&gt;3</title>
<path fill="none" stroke="green" stroke-width="0.2" d="M322.97,-71.29C326.7,-68.92 330.84,-66.63 334.92,-64.99 377.18,-48.08 511.01,-27.2 566.48,-19.02"/>
<polygon fill="green" stroke="green" stroke-width="0.2" points="566.79,-22.51 576.18,-17.6 565.78,-15.58 566.79,-22.51"/>
</g>
<!-- 95&#45;&gt;4 -->
<g id="edge14" class="edge">
<title>95&#45;&gt;4</title>
<path fill="none" stroke="green" stroke-width="0.15" d="M323.25,-71.89C326.98,-69.51 331.04,-67.05 334.92,-64.99 365.86,-48.56 403.41,-33.2 427,-24.08"/>
<polygon fill="green" stroke="green" stroke-width="0.15" points="428.18,-27.37 436.27,-20.53 425.68,-20.83 428.18,-27.37"/>
</g>
</g>
</svg>
