<?xml version="1.0" encoding="UTF-8" standalone="no"?>
<!DOCTYPE svg PUBLIC "-//W3C//DTD SVG 1.1//EN"
 "http://www.w3.org/Graphics/SVG/1.1/DTD/svg11.dtd">
<!-- Generated by graphviz version 12.1.1 (20240910.0053)
 -->
<!-- Pages: 1 -->
<svg width="874pt" height="247pt"
 viewBox="0.00 0.00 873.75 246.93" xmlns="http://www.w3.org/2000/svg" xmlns:xlink="http://www.w3.org/1999/xlink">
<g id="graph0" class="graph" transform="scale(1 1) rotate(0) translate(4 242.93)">
<polygon fill="white" stroke="none" points="-4,4 -4,-242.93 869.75,-242.93 869.75,4 -4,4"/>
<!-- &#45;1 -->
<g id="node1" class="node">
<title>&#45;1</title>
<polygon fill="lightgray" stroke="black" points="643.5,-238.93 620,-238.93 620,-220.43 643.5,-220.43 643.5,-238.93"/>
<text text-anchor="middle" x="631.75" y="-226.38" font-family="Times,serif" font-size="9.00">&#45;1</text>
</g>
<!-- 169 -->
<g id="node27" class="node">
<title>169</title>
<ellipse fill="white" stroke="black" cx="392.75" cy="-163.57" rx="20.86" ry="20.86"/>
<text text-anchor="middle" x="392.75" y="-160.27" font-family="Times,serif" font-size="9.00">169</text>
</g>
<!-- &#45;1&#45;&gt;169 -->
<g id="edge17" class="edge">
<title>&#45;1&#45;&gt;169</title>
<path fill="none" stroke="green" stroke-width="0.64" d="M619.85,-223.7C616.9,-222.55 613.73,-221.39 610.75,-220.43 548.34,-200.41 531.21,-200.82 467.75,-184.43 453.14,-180.66 436.95,-176.38 423.36,-172.77"/>
<polygon fill="green" stroke="green" stroke-width="0.64" points="424.61,-169.48 414.04,-170.28 422.8,-176.24 424.61,-169.48"/>
</g>
<!-- 170 -->
<g id="node28" class="node">
<title>170</title>
<ellipse fill="white" stroke="black" cx="652.75" cy="-163.57" rx="20.86" ry="20.86"/>
<text text-anchor="middle" x="652.75" y="-160.27" font-family="Times,serif" font-size="9.00">170</text>
</g>
<!-- &#45;1&#45;&gt;170 -->
<g id="edge4" class="edge">
<title>&#45;1&#45;&gt;170</title>
<path fill="none" stroke="green" stroke-width="0.2" stroke-dasharray="1,5" d="M634.58,-220.03C636.83,-213.18 640.1,-203.2 643.25,-193.59"/>
<polygon fill="green" stroke="green" stroke-width="0.2" points="646.55,-194.73 646.34,-184.13 639.9,-192.55 646.55,-194.73"/>
</g>
<!-- 172 -->
<g id="node30" class="node">
<title>172</title>
<ellipse fill="white" stroke="black" cx="497.75" cy="-163.57" rx="20.86" ry="20.86"/>
<text text-anchor="middle" x="497.75" y="-160.27" font-family="Times,serif" font-size="9.00">172</text>
</g>
<!-- &#45;1&#45;&gt;172 -->
<g id="edge16" class="edge">
<title>&#45;1&#45;&gt;172</title>
<path fill="none" stroke="green" stroke-width="0.7" d="M619.86,-222.99C598.98,-213 555.19,-192.05 526.13,-178.15"/>
<polygon fill="green" stroke="green" stroke-width="0.7" points="527.65,-174.99 517.12,-173.84 524.63,-181.31 527.65,-174.99"/>
</g>
<!-- &#45;2 -->
<g id="node2" class="node">
<title>&#45;2</title>
<polygon fill="lightgray" stroke="black" points="383.5,-238.93 360,-238.93 360,-220.43 383.5,-220.43 383.5,-238.93"/>
<text text-anchor="middle" x="371.75" y="-226.38" font-family="Times,serif" font-size="9.00">&#45;2</text>
</g>
<!-- &#45;2&#45;&gt;169 -->
<g id="edge11" class="edge">
<title>&#45;2&#45;&gt;169</title>
<path fill="none" stroke="red" stroke-width="0.18" d="M374.58,-220.03C376.83,-213.18 380.1,-203.2 383.25,-193.59"/>
<polygon fill="red" stroke="red" stroke-width="0.18" points="386.57,-194.69 386.35,-184.1 379.91,-192.51 386.57,-194.69"/>
</g>
<!-- &#45;3 -->
<g id="node3" class="node">
<title>&#45;3</title>
<polygon fill="lightgray" stroke="black" points="425.5,-238.93 402,-238.93 402,-220.43 425.5,-220.43 425.5,-238.93"/>
<text text-anchor="middle" x="413.75" y="-226.38" font-family="Times,serif" font-size="9.00">&#45;3</text>
</g>
<!-- &#45;3&#45;&gt;169 -->
<g id="edge41" class="edge">
<title>&#45;3&#45;&gt;169</title>
<path fill="none" stroke="red" stroke-width="0.22" stroke-dasharray="1,5" d="M410.92,-220.03C408.67,-213.18 405.4,-203.2 402.25,-193.59"/>
<polygon fill="red" stroke="red" stroke-width="0.22" points="405.61,-192.58 399.17,-184.16 398.96,-194.76 405.61,-192.58"/>
</g>
<!-- &#45;4 -->
<g id="node4" class="node">
<title>&#45;4</title>
<polygon fill="lightgray" stroke="black" points="467.5,-238.93 444,-238.93 444,-220.43 467.5,-220.43 467.5,-238.93"/>
<text text-anchor="middle" x="455.75" y="-226.38" font-family="Times,serif" font-size="9.00">&#45;4</text>
</g>
<!-- &#45;4&#45;&gt;169 -->
<g id="edge36" class="edge">
<title>&#45;4&#45;&gt;169</title>
<path fill="none" stroke="green" stroke-width="0.11" d="M447.25,-220.03C438.77,-211.4 425.38,-197.78 414,-186.2"/>
<polygon fill="green" stroke="green" stroke-width="0.11" points="416.5,-183.75 407,-179.07 411.51,-188.66 416.5,-183.75"/>
</g>
<!-- &#45;5 -->
<g id="node5" class="node">
<title>&#45;5</title>
<polygon fill="lightgray" stroke="black" points="819.5,-238.93 796,-238.93 796,-220.43 819.5,-220.43 819.5,-238.93"/>
<text text-anchor="middle" x="807.75" y="-226.38" font-family="Times,serif" font-size="9.00">&#45;5</text>
</g>
<!-- &#45;5&#45;&gt;170 -->
<g id="edge10" class="edge">
<title>&#45;5&#45;&gt;170</title>
<path fill="none" stroke="red" stroke-width="0.2" d="M795.59,-223.65C771.16,-213.55 715.58,-190.56 681.4,-176.42"/>
<polygon fill="red" stroke="red" stroke-width="0.2" points="682.81,-173.22 672.23,-172.63 680.13,-179.68 682.81,-173.22"/>
</g>
<!-- &#45;6 -->
<g id="node6" class="node">
<title>&#45;6</title>
<polygon fill="lightgray" stroke="black" points="203.5,-238.93 180,-238.93 180,-220.43 203.5,-220.43 203.5,-238.93"/>
<text text-anchor="middle" x="191.75" y="-226.38" font-family="Times,serif" font-size="9.00">&#45;6</text>
</g>
<!-- &#45;6&#45;&gt;169 -->
<g id="edge7" class="edge">
<title>&#45;6&#45;&gt;169</title>
<path fill="none" stroke="green" stroke-width="0.26" d="M203.69,-223.82C206.63,-222.66 209.79,-221.47 212.75,-220.43 265.01,-202.08 326.87,-183.57 362.78,-173.14"/>
<polygon fill="green" stroke="green" stroke-width="0.26" points="363.6,-176.54 372.24,-170.4 361.66,-169.82 363.6,-176.54"/>
</g>
<!-- 171 -->
<g id="node29" class="node">
<title>171</title>
<ellipse fill="white" stroke="black" cx="226.75" cy="-163.57" rx="20.86" ry="20.86"/>
<text text-anchor="middle" x="226.75" y="-160.27" font-family="Times,serif" font-size="9.00">171</text>
</g>
<!-- &#45;6&#45;&gt;171 -->
<g id="edge31" class="edge">
<title>&#45;6&#45;&gt;171</title>
<path fill="none" stroke="red" stroke-width="0.23" d="M196.47,-220.03C200.47,-212.71 206.43,-201.79 212.01,-191.58"/>
<polygon fill="red" stroke="red" stroke-width="0.23" points="215.06,-193.28 216.78,-182.83 208.92,-189.93 215.06,-193.28"/>
</g>
<!-- &#45;7 -->
<g id="node7" class="node">
<title>&#45;7</title>
<polygon fill="lightgray" stroke="black" points="685.5,-238.93 662,-238.93 662,-220.43 685.5,-220.43 685.5,-238.93"/>
<text text-anchor="middle" x="673.75" y="-226.38" font-family="Times,serif" font-size="9.00">&#45;7</text>
</g>
<!-- &#45;7&#45;&gt;169 -->
<g id="edge30" class="edge">
<title>&#45;7&#45;&gt;169</title>
<path fill="none" stroke="green" stroke-width="0.39" d="M661.89,-223.59C658.94,-222.44 655.76,-221.31 652.75,-220.43 572.32,-197.02 549.39,-203.16 467.75,-184.43 452.79,-181 436.29,-176.69 422.58,-172.96"/>
<polygon fill="green" stroke="green" stroke-width="0.39" points="423.85,-169.68 413.28,-170.4 421.99,-176.43 423.85,-169.68"/>
</g>
<!-- &#45;7&#45;&gt;170 -->
<g id="edge35" class="edge">
<title>&#45;7&#45;&gt;170</title>
<path fill="none" stroke="green" stroke-width="0.29" d="M670.92,-220.03C668.67,-213.18 665.4,-203.2 662.25,-193.59"/>
<polygon fill="green" stroke="green" stroke-width="0.29" points="665.64,-192.67 659.2,-184.26 658.99,-194.85 665.64,-192.67"/>
</g>
<!-- &#45;8 -->
<g id="node8" class="node">
<title>&#45;8</title>
<polygon fill="lightgray" stroke="black" points="23.5,-238.93 0,-238.93 0,-220.43 23.5,-220.43 23.5,-238.93"/>
<text text-anchor="middle" x="11.75" y="-226.38" font-family="Times,serif" font-size="9.00">&#45;8</text>
</g>
<!-- &#45;8&#45;&gt;171 -->
<g id="edge32" class="edge">
<title>&#45;8&#45;&gt;171</title>
<path fill="none" stroke="red" stroke-width="0.45" d="M23.67,-223.77C26.62,-222.62 29.78,-221.44 32.75,-220.43 89.93,-201.01 158.02,-182.43 196.43,-172.35"/>
<polygon fill="red" stroke="red" stroke-width="0.45" points="197,-175.82 205.79,-169.91 195.23,-169.05 197,-175.82"/>
</g>
<!-- &#45;9 -->
<g id="node9" class="node">
<title>&#45;9</title>
<polygon fill="lightgray" stroke="black" points="509.5,-238.93 486,-238.93 486,-220.43 509.5,-220.43 509.5,-238.93"/>
<text text-anchor="middle" x="497.75" y="-226.38" font-family="Times,serif" font-size="9.00">&#45;9</text>
</g>
<!-- &#45;9&#45;&gt;169 -->
<g id="edge26" class="edge">
<title>&#45;9&#45;&gt;169</title>
<path fill="none" stroke="red" stroke-width="0.18" stroke-dasharray="1,5" d="M485.71,-221.33C469.49,-211.43 440.21,-193.55 418.84,-180.5"/>
<polygon fill="red" stroke="red" stroke-width="0.18" points="420.81,-177.6 410.45,-175.38 417.16,-183.58 420.81,-177.6"/>
</g>
<!-- &#45;9&#45;&gt;172 -->
<g id="edge1" class="edge">
<title>&#45;9&#45;&gt;172</title>
<path fill="none" stroke="red" stroke-width="0.11" d="M497.75,-220.03C497.75,-213.53 497.75,-204.19 497.75,-195.03"/>
<polygon fill="red" stroke="red" stroke-width="0.11" points="501.25,-195.09 497.75,-185.09 494.25,-195.09 501.25,-195.09"/>
</g>
<!-- &#45;10 -->
<g id="node10" class="node">
<title>&#45;10</title>
<polygon fill="lightgray" stroke="black" points="555.75,-238.93 527.75,-238.93 527.75,-220.43 555.75,-220.43 555.75,-238.93"/>
<text text-anchor="middle" x="541.75" y="-226.38" font-family="Times,serif" font-size="9.00">&#45;10</text>
</g>
<!-- &#45;10&#45;&gt;170 -->
<g id="edge8" class="edge">
<title>&#45;10&#45;&gt;170</title>
<path fill="none" stroke="green" stroke-width="0.2" d="M555.81,-220.56C573.37,-210.42 603.79,-192.85 625.87,-180.09"/>
<polygon fill="green" stroke="green" stroke-width="0.2" points="627.6,-183.14 634.51,-175.11 624.1,-177.08 627.6,-183.14"/>
</g>
<!-- &#45;10&#45;&gt;171 -->
<g id="edge9" class="edge">
<title>&#45;10&#45;&gt;171</title>
<path fill="none" stroke="green" stroke-width="0.44" d="M527.26,-223.1C524.46,-222.13 521.53,-221.19 518.75,-220.43 425.12,-194.85 311.49,-176.71 257.76,-168.88"/>
<polygon fill="green" stroke="green" stroke-width="0.44" points="258.59,-165.46 248.19,-167.51 257.59,-172.39 258.59,-165.46"/>
</g>
<!-- &#45;11 -->
<g id="node11" class="node">
<title>&#45;11</title>
<polygon fill="lightgray" stroke="black" points="249.75,-238.93 221.75,-238.93 221.75,-220.43 249.75,-220.43 249.75,-238.93"/>
<text text-anchor="middle" x="235.75" y="-226.38" font-family="Times,serif" font-size="9.00">&#45;11</text>
</g>
<!-- &#45;11&#45;&gt;169 -->
<g id="edge38" class="edge">
<title>&#45;11&#45;&gt;169</title>
<path fill="none" stroke="red" stroke-width="0.18" d="M250.24,-222.76C276.08,-212.21 330.55,-189.97 364.16,-176.24"/>
<polygon fill="red" stroke="red" stroke-width="0.18" points="365.27,-179.57 373.2,-172.55 362.62,-173.09 365.27,-179.57"/>
</g>
<!-- &#45;11&#45;&gt;171 -->
<g id="edge43" class="edge">
<title>&#45;11&#45;&gt;171</title>
<path fill="none" stroke="green" stroke-width="0.15" d="M234.54,-220.03C233.61,-213.41 232.26,-203.85 230.96,-194.52"/>
<polygon fill="green" stroke="green" stroke-width="0.15" points="234.46,-194.29 229.6,-184.88 227.53,-195.27 234.46,-194.29"/>
</g>
<!-- &#45;12 -->
<g id="node12" class="node">
<title>&#45;12</title>
<polygon fill="lightgray" stroke="black" points="115.75,-238.93 87.75,-238.93 87.75,-220.43 115.75,-220.43 115.75,-238.93"/>
<text text-anchor="middle" x="101.75" y="-226.38" font-family="Times,serif" font-size="9.00">&#45;12</text>
</g>
<!-- &#45;12&#45;&gt;171 -->
<g id="edge6" class="edge">
<title>&#45;12&#45;&gt;171</title>
<path fill="none" stroke="green" stroke-width="0.35" d="M116.09,-221.33C136.33,-210.94 173.68,-191.79 199.34,-178.63"/>
<polygon fill="green" stroke="green" stroke-width="0.35" points="200.78,-181.82 208.08,-174.14 197.59,-175.59 200.78,-181.82"/>
</g>
<!-- &#45;13 -->
<g id="node13" class="node">
<title>&#45;13</title>
<polygon fill="lightgray" stroke="black" points="731.75,-238.93 703.75,-238.93 703.75,-220.43 731.75,-220.43 731.75,-238.93"/>
<text text-anchor="middle" x="717.75" y="-226.38" font-family="Times,serif" font-size="9.00">&#45;13</text>
</g>
<!-- &#45;13&#45;&gt;170 -->
<g id="edge14" class="edge">
<title>&#45;13&#45;&gt;170</title>
<path fill="none" stroke="green" stroke-width="0.2" stroke-dasharray="1,5" d="M708.98,-220.03C700.15,-211.32 686.16,-197.52 674.34,-185.87"/>
<polygon fill="green" stroke="green" stroke-width="0.2" points="677.12,-183.69 667.55,-179.16 672.21,-188.68 677.12,-183.69"/>
</g>
<!-- &#45;13&#45;&gt;172 -->
<g id="edge34" class="edge">
<title>&#45;13&#45;&gt;172</title>
<path fill="none" stroke="green" stroke-width="0.12" d="M703.69,-223.47C700.75,-222.42 697.66,-221.36 694.75,-220.43 636.02,-201.59 566.41,-182.63 527.65,-172.37"/>
<polygon fill="green" stroke="green" stroke-width="0.12" points="528.76,-169.04 518.2,-169.88 526.98,-175.81 528.76,-169.04"/>
</g>
<!-- &#45;14 -->
<g id="node14" class="node">
<title>&#45;14</title>
<polygon fill="lightgray" stroke="black" points="601.75,-238.93 573.75,-238.93 573.75,-220.43 601.75,-220.43 601.75,-238.93"/>
<text text-anchor="middle" x="587.75" y="-226.38" font-family="Times,serif" font-size="9.00">&#45;14</text>
</g>
<!-- &#45;14&#45;&gt;169 -->
<g id="edge20" class="edge">
<title>&#45;14&#45;&gt;169</title>
<path fill="none" stroke="green" stroke-width="0.32" d="M573.66,-223.55C570.72,-222.5 567.64,-221.42 564.75,-220.43 515.07,-203.46 456.91,-184.83 422.55,-173.94"/>
<polygon fill="green" stroke="green" stroke-width="0.32" points="423.73,-170.65 413.15,-170.97 421.63,-177.32 423.73,-170.65"/>
</g>
<!-- &#45;14&#45;&gt;170 -->
<g id="edge19" class="edge">
<title>&#45;14&#45;&gt;170</title>
<path fill="none" stroke="red" stroke-width="0.23" d="M596.52,-220.03C605.27,-211.4 619.08,-197.78 630.82,-186.2"/>
<polygon fill="red" stroke="red" stroke-width="0.23" points="633.26,-188.71 637.92,-179.2 628.34,-183.73 633.26,-188.71"/>
</g>
<!-- &#45;14&#45;&gt;172 -->
<g id="edge22" class="edge">
<title>&#45;14&#45;&gt;172</title>
<path fill="none" stroke="green" stroke-width="0.49" d="M575.61,-220.03C562.21,-210.49 540.26,-194.85 523.07,-182.61"/>
<polygon fill="green" stroke="green" stroke-width="0.49" points="525.37,-179.95 515.2,-177 521.31,-185.65 525.37,-179.95"/>
</g>
<!-- &#45;15 -->
<g id="node15" class="node">
<title>&#45;15</title>
<polygon fill="lightgray" stroke="black" points="295.75,-238.93 267.75,-238.93 267.75,-220.43 295.75,-220.43 295.75,-238.93"/>
<text text-anchor="middle" x="281.75" y="-226.38" font-family="Times,serif" font-size="9.00">&#45;15</text>
</g>
<!-- &#45;15&#45;&gt;169 -->
<g id="edge23" class="edge">
<title>&#45;15&#45;&gt;169</title>
<path fill="none" stroke="green" stroke-width="0.23" d="M295.81,-220.56C313.37,-210.42 343.79,-192.85 365.87,-180.09"/>
<polygon fill="green" stroke="green" stroke-width="0.23" points="367.56,-183.16 374.47,-175.13 364.06,-177.1 367.56,-183.16"/>
</g>
<!-- &#45;16 -->
<g id="node16" class="node">
<title>&#45;16</title>
<polygon fill="lightgray" stroke="black" points="161.75,-238.93 133.75,-238.93 133.75,-220.43 161.75,-220.43 161.75,-238.93"/>
<text text-anchor="middle" x="147.75" y="-226.38" font-family="Times,serif" font-size="9.00">&#45;16</text>
</g>
<!-- &#45;16&#45;&gt;169 -->
<g id="edge12" class="edge">
<title>&#45;16&#45;&gt;169</title>
<path fill="none" stroke="green" stroke-width="0.2" d="M161.79,-223.4C164.73,-222.36 167.83,-221.32 170.75,-220.43 238.54,-199.8 319.59,-180.81 362.55,-171.18"/>
<polygon fill="green" stroke="green" stroke-width="0.2" points="363.06,-174.65 372.06,-169.06 361.54,-167.82 363.06,-174.65"/>
</g>
<!-- &#45;16&#45;&gt;171 -->
<g id="edge25" class="edge">
<title>&#45;16&#45;&gt;171</title>
<path fill="none" stroke="green" stroke-width="0.34" d="M158.4,-220.03C169.78,-210.81 188.16,-195.89 203,-183.84"/>
<polygon fill="green" stroke="green" stroke-width="0.34" points="204.86,-186.84 210.42,-177.82 200.45,-181.41 204.86,-186.84"/>
</g>
<!-- &#45;17 -->
<g id="node17" class="node">
<title>&#45;17</title>
<polygon fill="lightgray" stroke="black" points="865.75,-238.93 837.75,-238.93 837.75,-220.43 865.75,-220.43 865.75,-238.93"/>
<text text-anchor="middle" x="851.75" y="-226.38" font-family="Times,serif" font-size="9.00">&#45;17</text>
</g>
<!-- &#45;18 -->
<g id="node18" class="node">
<title>&#45;18</title>
<polygon fill="lightgray" stroke="black" points="777.75,-238.93 749.75,-238.93 749.75,-220.43 777.75,-220.43 777.75,-238.93"/>
<text text-anchor="middle" x="763.75" y="-226.38" font-family="Times,serif" font-size="9.00">&#45;18</text>
</g>
<!-- &#45;18&#45;&gt;170 -->
<g id="edge33" class="edge">
<title>&#45;18&#45;&gt;170</title>
<path fill="none" stroke="green" stroke-width="0.45" d="M749.69,-220.56C732.21,-210.46 701.99,-193.01 679.92,-180.26"/>
<polygon fill="green" stroke="green" stroke-width="0.45" points="681.73,-177.27 671.32,-175.3 678.23,-183.33 681.73,-177.27"/>
</g>
<!-- &#45;19 -->
<g id="node19" class="node">
<title>&#45;19</title>
<polygon fill="lightgray" stroke="black" points="69.75,-238.93 41.75,-238.93 41.75,-220.43 69.75,-220.43 69.75,-238.93"/>
<text text-anchor="middle" x="55.75" y="-226.38" font-family="Times,serif" font-size="9.00">&#45;19</text>
</g>
<!-- 1 -->
<g id="node22" class="node">
<title>1</title>
<ellipse fill="lightblue" stroke="black" cx="306.75" cy="-85.85" rx="14.5" ry="14.5"/>
<text text-anchor="middle" x="306.75" y="-82.55" font-family="Times,serif" font-size="9.00">1</text>
</g>
<!-- &#45;19&#45;&gt;1 -->
<g id="edge47" class="edge">
<title>&#45;19&#45;&gt;1</title>
<path fill="none" stroke="red" stroke-width="0.15" d="M69.15,-220.03C93.97,-204.11 148.92,-169.38 196.75,-142.71 226.73,-125.99 262.29,-108.31 284.69,-97.43"/>
<polygon fill="red" stroke="red" stroke-width="0.15" points="286.03,-100.67 293.51,-93.16 282.98,-94.36 286.03,-100.67"/>
</g>
<!-- &#45;19&#45;&gt;169 -->
<g id="edge44" class="edge">
<title>&#45;19&#45;&gt;169</title>
<path fill="none" stroke="red" stroke-width="0.2" d="M70.23,-223.07C73.03,-222.1 75.96,-221.17 78.75,-220.43 132.2,-206.2 293.5,-180.15 361.73,-169.41"/>
<polygon fill="red" stroke="red" stroke-width="0.2" points="362.22,-172.87 371.55,-167.86 361.13,-165.96 362.22,-172.87"/>
</g>
<!-- &#45;19&#45;&gt;171 -->
<g id="edge37" class="edge">
<title>&#45;19&#45;&gt;171</title>
<path fill="none" stroke="red" stroke-width="0.27" d="M70.04,-223.32C97.99,-212.84 160.42,-189.44 197.49,-175.54"/>
<polygon fill="red" stroke="red" stroke-width="0.27" points="198.72,-178.82 206.85,-172.03 196.26,-172.26 198.72,-178.82"/>
</g>
<!-- &#45;20 -->
<g id="node20" class="node">
<title>&#45;20</title>
<polygon fill="lightgray" stroke="black" points="341.75,-238.93 313.75,-238.93 313.75,-220.43 341.75,-220.43 341.75,-238.93"/>
<text text-anchor="middle" x="327.75" y="-226.38" font-family="Times,serif" font-size="9.00">&#45;20</text>
</g>
<!-- &#45;20&#45;&gt;171 -->
<g id="edge3" class="edge">
<title>&#45;20&#45;&gt;171</title>
<path fill="none" stroke="red" stroke-width="0.13" d="M314.13,-220.03C298.44,-210.08 272.31,-193.49 252.7,-181.04"/>
<polygon fill="red" stroke="red" stroke-width="0.13" points="254.69,-178.16 244.38,-175.76 250.94,-184.07 254.69,-178.16"/>
</g>
<!-- &#45;20&#45;&gt;172 -->
<g id="edge27" class="edge">
<title>&#45;20&#45;&gt;172</title>
<path fill="none" stroke="green" stroke-width="0.13" d="M342.24,-223.21C370.25,-212.65 432.28,-189.26 468.97,-175.42"/>
<polygon fill="green" stroke="green" stroke-width="0.13" points="469.86,-178.83 477.98,-172.03 467.39,-172.28 469.86,-178.83"/>
</g>
<!-- 0 -->
<g id="node21" class="node">
<title>0</title>
<ellipse fill="lightblue" stroke="black" cx="348.75" cy="-14.5" rx="14.5" ry="14.5"/>
<text text-anchor="middle" x="348.75" y="-11.2" font-family="Times,serif" font-size="9.00">0</text>
</g>
<!-- 0&#45;&gt;0 -->
<g id="edge29" class="edge">
<title>0&#45;&gt;0</title>
<path fill="none" stroke="red" stroke-width="0.16" d="M359.07,-24.94C369.56,-31.08 381.25,-27.6 381.25,-14.5 381.25,-5.49 375.72,-1.03 368.86,-1.12"/>
<polygon fill="red" stroke="red" stroke-width="0.16" points="367.87,2.24 359.3,-3.99 369.88,-4.47 367.87,2.24"/>
</g>
<!-- 2 -->
<g id="node23" class="node">
<title>2</title>
<ellipse fill="lightblue" stroke="black" cx="497.75" cy="-85.85" rx="14.5" ry="14.5"/>
<text text-anchor="middle" x="497.75" y="-82.55" font-family="Times,serif" font-size="9.00">2</text>
</g>
<!-- 3 -->
<g id="node24" class="node">
<title>3</title>
<ellipse fill="lightblue" stroke="black" cx="450.75" cy="-85.85" rx="14.5" ry="14.5"/>
<text text-anchor="middle" x="450.75" y="-82.55" font-family="Times,serif" font-size="9.00">3</text>
</g>
<!-- 4 -->
<g id="node25" class="node">
<title>4</title>
<ellipse fill="lightblue" stroke="black" cx="550.75" cy="-14.5" rx="14.5" ry="14.5"/>
<text text-anchor="middle" x="550.75" y="-11.2" font-family="Times,serif" font-size="9.00">4</text>
</g>
<!-- 296 -->
<g id="node26" class="node">
<title>296</title>
<ellipse fill="white" stroke="black" cx="397.75" cy="-85.85" rx="20.86" ry="20.86"/>
<text text-anchor="middle" x="397.75" y="-82.55" font-family="Times,serif" font-size="9.00">296</text>
</g>
<!-- 296&#45;&gt;0 -->
<g id="edge49" class="edge">
<title>296&#45;&gt;0</title>
<path fill="none" stroke="red" stroke-width="0.43" d="M386.14,-68.41C379.13,-58.5 370.16,-45.81 362.77,-35.33"/>
<polygon fill="red" stroke="red" stroke-width="0.43" points="365.76,-33.51 357.14,-27.36 360.05,-37.55 365.76,-33.51"/>
</g>
<!-- 169&#45;&gt;1 -->
<g id="edge40" class="edge">
<title>169&#45;&gt;1</title>
<path fill="none" stroke="green" stroke-width="0.27" d="M377.37,-149.03C362.65,-136.07 340.42,-116.49 324.84,-102.78"/>
<polygon fill="green" stroke="green" stroke-width="0.27" points="327.5,-100.46 317.68,-96.48 322.88,-105.71 327.5,-100.46"/>
</g>
<!-- 169&#45;&gt;2 -->
<g id="edge15" class="edge">
<title>169&#45;&gt;2</title>
<path fill="none" stroke="red" stroke-width="0.25" d="M410.12,-151.23C426.74,-140.23 452.36,-122.89 473.75,-106.71 475.57,-105.33 477.45,-103.87 479.31,-102.38"/>
<polygon fill="red" stroke="red" stroke-width="0.25" points="481.35,-105.23 486.87,-96.19 476.92,-99.82 481.35,-105.23"/>
</g>
<!-- 170&#45;&gt;2 -->
<g id="edge39" class="edge">
<title>170&#45;&gt;2</title>
<path fill="none" stroke="red" stroke-width="0.29" d="M633.03,-156.39C606.39,-147.57 557.94,-129.84 520.75,-106.71 519,-105.62 517.25,-104.41 515.54,-103.13"/>
<polygon fill="red" stroke="red" stroke-width="0.29" points="517.79,-100.44 507.86,-96.76 513.32,-105.83 517.79,-100.44"/>
</g>
<!-- 171&#45;&gt;0 -->
<g id="edge5" class="edge">
<title>171&#45;&gt;0</title>
<path fill="none" stroke="red" stroke-width="0.18" stroke-dasharray="1,5" d="M226.92,-142.5C228.1,-121.13 232.94,-87.38 250.75,-64.99 269.5,-41.43 302.43,-28.1 324.9,-21.34"/>
<polygon fill="red" stroke="red" stroke-width="0.18" points="325.73,-24.75 334.42,-18.69 323.85,-18 325.73,-24.75"/>
</g>
<!-- 171&#45;&gt;1 -->
<g id="edge21" class="edge">
<title>171&#45;&gt;1</title>
<path fill="none" stroke="red" stroke-width="0.24" stroke-dasharray="1,5" d="M241.42,-148.68C254.97,-135.86 275.11,-116.8 289.44,-103.24"/>
<polygon fill="red" stroke="red" stroke-width="0.24" points="291.6,-106.01 296.46,-96.59 286.79,-100.92 291.6,-106.01"/>
</g>
<!-- 171&#45;&gt;4 -->
<g id="edge13" class="edge">
<title>171&#45;&gt;4</title>
<path fill="none" stroke="green" stroke-width="0.2" d="M235.22,-144.14C247.24,-118.77 269.38,-75.09 283.75,-64.99 322.79,-37.55 467.07,-22.56 525.72,-17.48"/>
<polygon fill="green" stroke="green" stroke-width="0.2" points="525.96,-20.98 535.63,-16.65 525.37,-14 525.96,-20.98"/>
</g>
<!-- 172&#45;&gt;0 -->
<g id="edge24" class="edge">
<title>172&#45;&gt;0</title>
<path fill="none" stroke="red" stroke-width="0.46" stroke-dasharray="1,5" d="M477.68,-156.46C444.95,-146.1 382.28,-124.5 367.75,-106.71 352.36,-87.88 348.49,-59.71 347.92,-39.66"/>
<polygon fill="red" stroke="red" stroke-width="0.46" points="351.42,-39.89 347.9,-29.9 344.42,-39.91 351.42,-39.89"/>
</g>
<!-- 172&#45;&gt;1 -->
<g id="edge2" class="edge">
<title>172&#45;&gt;1</title>
<path fill="none" stroke="red" stroke-width="0.51" d="M477.43,-157.62C445.83,-149.49 383.47,-131.68 334.75,-106.71 331.97,-105.28 329.15,-103.61 326.42,-101.84"/>
<polygon fill="red" stroke="red" stroke-width="0.51" points="328.55,-99.06 318.36,-96.19 324.53,-104.79 328.55,-99.06"/>
</g>
<!-- 172&#45;&gt;2 -->
<g id="edge42" class="edge">
<title>172&#45;&gt;2</title>
<path fill="none" stroke="red" stroke-width="0.15" d="M497.75,-142.28C497.75,-132.63 497.75,-121.02 497.75,-110.93"/>
<polygon fill="red" stroke="red" stroke-width="0.15" points="501.25,-110.96 497.75,-100.96 494.25,-110.96 501.25,-110.96"/>
</g>
<!-- 172&#45;&gt;3 -->
<g id="edge18" class="edge">
<title>172&#45;&gt;3</title>
<path fill="none" stroke="green" stroke-width="0.25" d="M487.08,-145.39C480.08,-134.1 470.87,-119.26 463.48,-107.35"/>
<polygon fill="green" stroke="green" stroke-width="0.25" points="466.46,-105.52 458.21,-98.87 460.51,-109.21 466.46,-105.52"/>
</g>
<!-- 172&#45;&gt;4 -->
<g id="edge28" class="edge">
<title>172&#45;&gt;4</title>
<path fill="none" stroke="green" stroke-width="0.19" stroke-dasharray="1,5" d="M517.39,-155.71C537.43,-147.51 567.45,-131.7 580.75,-106.71 593.26,-83.21 578.49,-53.53 565.6,-34.53"/>
<polygon fill="green" stroke="green" stroke-width="0.19" points="568.58,-32.68 559.91,-26.61 562.9,-36.77 568.58,-32.68"/>
</g>
<!-- 172&#45;&gt;296 -->
<g id="edge48" class="edge">
<title>172&#45;&gt;296</title>
<path fill="none" stroke="red" stroke-width="0.16" d="M481.24,-150.07C465.07,-137.83 440.27,-119.05 421.89,-105.13"/>
<polygon fill="red" stroke="red" stroke-width="0.16" points="424.24,-102.52 414.15,-99.27 420.01,-108.1 424.24,-102.52"/>
</g>
<!-- 278 -->
<g id="node31" class="node">
<title>278</title>
<ellipse fill="white" stroke="black" cx="550.75" cy="-85.85" rx="20.86" ry="20.86"/>
<text text-anchor="middle" x="550.75" y="-82.55" font-family="Times,serif" font-size="9.00">278</text>
</g>
<!-- 172&#45;&gt;278 -->
<g id="edge45" class="edge">
<title>172&#45;&gt;278</title>
<path fill="none" stroke="green" stroke-width="0.36" d="M509.51,-145.77C516.44,-135.86 525.34,-123.15 533.1,-112.06"/>
<polygon fill="green" stroke="green" stroke-width="0.36" points="535.84,-114.25 538.71,-104.05 530.11,-110.24 535.84,-114.25"/>
</g>
<!-- 278&#45;&gt;4 -->
<g id="edge46" class="edge">
<title>278&#45;&gt;4</title>
<path fill="none" stroke="red" stroke-width="0.46" d="M550.75,-64.79C550.75,-56.98 550.75,-47.96 550.75,-39.78"/>
<polygon fill="red" stroke="red" stroke-width="0.46" points="554.25,-40.05 550.75,-30.05 547.25,-40.05 554.25,-40.05"/>
</g>
</g>
</svg>
