<?xml version="1.0" encoding="UTF-8" standalone="no"?>
<!DOCTYPE svg PUBLIC "-//W3C//DTD SVG 1.1//EN"
 "http://www.w3.org/Graphics/SVG/1.1/DTD/svg11.dtd">
<!-- Generated by graphviz version 12.1.1 (20240910.0053)
 -->
<!-- Pages: 1 -->
<svg width="874pt" height="163pt"
 viewBox="0.00 0.00 873.75 162.85" xmlns="http://www.w3.org/2000/svg" xmlns:xlink="http://www.w3.org/1999/xlink">
<g id="graph0" class="graph" transform="scale(1 1) rotate(0) translate(4 158.85)">
<polygon fill="white" stroke="none" points="-4,4 -4,-158.85 869.75,-158.85 869.75,4 -4,4"/>
<!-- &#45;1 -->
<g id="node1" class="node">
<title>&#45;1</title>
<polygon fill="lightgray" stroke="black" points="65.5,-154.85 42,-154.85 42,-136.35 65.5,-136.35 65.5,-154.85"/>
<text text-anchor="middle" x="53.75" y="-142.3" font-family="Times,serif" font-size="9.00">&#45;1</text>
</g>
<!-- 96 -->
<g id="node26" class="node">
<title>96</title>
<ellipse fill="white" stroke="black" cx="181.75" cy="-82.67" rx="17.68" ry="17.68"/>
<text text-anchor="middle" x="181.75" y="-79.37" font-family="Times,serif" font-size="9.00">96</text>
</g>
<!-- &#45;1&#45;&gt;96 -->
<g id="edge38" class="edge">
<title>&#45;1&#45;&gt;96</title>
<path fill="none" stroke="red" stroke-width="0.1" d="M65.56,-138.97C86.27,-129.12 129.52,-108.53 157.02,-95.44"/>
<polygon fill="red" stroke="red" stroke-width="0.1" points="158.36,-98.68 165.88,-91.22 155.35,-92.36 158.36,-98.68"/>
</g>
<!-- 94 -->
<g id="node28" class="node">
<title>94</title>
<ellipse fill="white" stroke="black" cx="361.75" cy="-82.67" rx="17.68" ry="17.68"/>
<text text-anchor="middle" x="361.75" y="-79.37" font-family="Times,serif" font-size="9.00">94</text>
</g>
<!-- &#45;1&#45;&gt;94 -->
<g id="edge21" class="edge">
<title>&#45;1&#45;&gt;94</title>
<path fill="none" stroke="green" stroke-width="0.18" d="M65.58,-139.38C68.53,-138.24 71.72,-137.14 74.75,-136.35 188.04,-106.73 225.9,-140.91 335.75,-100.35 336.78,-99.97 337.81,-99.54 338.84,-99.08"/>
<polygon fill="green" stroke="green" stroke-width="0.18" points="340.43,-102.2 347.52,-94.33 337.07,-96.06 340.43,-102.2"/>
</g>
<!-- &#45;2 -->
<g id="node2" class="node">
<title>&#45;2</title>
<polygon fill="lightgray" stroke="black" points="107.5,-154.85 84,-154.85 84,-136.35 107.5,-136.35 107.5,-154.85"/>
<text text-anchor="middle" x="95.75" y="-142.3" font-family="Times,serif" font-size="9.00">&#45;2</text>
</g>
<!-- &#45;2&#45;&gt;96 -->
<g id="edge11" class="edge">
<title>&#45;2&#45;&gt;96</title>
<path fill="none" stroke="red" stroke-width="0.57" d="M107.71,-136.12C120.95,-126.74 142.6,-111.41 159.07,-99.73"/>
<polygon fill="red" stroke="red" stroke-width="0.57" points="160.76,-102.83 166.9,-94.19 156.72,-97.11 160.76,-102.83"/>
</g>
<!-- &#45;2&#45;&gt;94 -->
<g id="edge3" class="edge">
<title>&#45;2&#45;&gt;94</title>
<path fill="none" stroke="red" stroke-width="0.19" d="M107.6,-139.44C110.54,-138.3 113.73,-137.18 116.75,-136.35 211.85,-110.17 243.67,-135.71 335.75,-100.35 336.78,-99.95 337.8,-99.51 338.83,-99.04"/>
<polygon fill="red" stroke="red" stroke-width="0.19" points="340.42,-102.16 347.49,-94.26 337.04,-96.03 340.42,-102.16"/>
</g>
<!-- 95 -->
<g id="node29" class="node">
<title>95</title>
<ellipse fill="white" stroke="black" cx="308.75" cy="-82.67" rx="17.68" ry="17.68"/>
<text text-anchor="middle" x="308.75" y="-79.37" font-family="Times,serif" font-size="9.00">95</text>
</g>
<!-- &#45;2&#45;&gt;95 -->
<g id="edge35" class="edge">
<title>&#45;2&#45;&gt;95</title>
<path fill="none" stroke="red" stroke-width="0.39" d="M107.66,-139.66C110.61,-138.51 113.78,-137.34 116.75,-136.35 174.51,-117.14 243.67,-99.43 281.2,-90.24"/>
<polygon fill="red" stroke="red" stroke-width="0.39" points="281.88,-93.68 290.78,-87.92 280.23,-86.88 281.88,-93.68"/>
</g>
<!-- &#45;3 -->
<g id="node3" class="node">
<title>&#45;3</title>
<polygon fill="lightgray" stroke="black" points="819.5,-154.85 796,-154.85 796,-136.35 819.5,-136.35 819.5,-154.85"/>
<text text-anchor="middle" x="807.75" y="-142.3" font-family="Times,serif" font-size="9.00">&#45;3</text>
</g>
<!-- &#45;4 -->
<g id="node4" class="node">
<title>&#45;4</title>
<polygon fill="lightgray" stroke="black" points="731.5,-154.85 708,-154.85 708,-136.35 731.5,-136.35 731.5,-154.85"/>
<text text-anchor="middle" x="719.75" y="-142.3" font-family="Times,serif" font-size="9.00">&#45;4</text>
</g>
<!-- 93 -->
<g id="node27" class="node">
<title>93</title>
<ellipse fill="white" stroke="black" cx="459.75" cy="-82.67" rx="17.68" ry="17.68"/>
<text text-anchor="middle" x="459.75" y="-79.37" font-family="Times,serif" font-size="9.00">93</text>
</g>
<!-- &#45;4&#45;&gt;93 -->
<g id="edge8" class="edge">
<title>&#45;4&#45;&gt;93</title>
<path fill="none" stroke="green" stroke-width="0.26" d="M707.87,-139.55C704.92,-138.41 701.75,-137.26 698.75,-136.35 623.65,-113.47 532.46,-96.18 487.52,-88.32"/>
<polygon fill="green" stroke="green" stroke-width="0.26" points="488.23,-84.89 477.78,-86.64 487.04,-91.79 488.23,-84.89"/>
</g>
<!-- &#45;5 -->
<g id="node5" class="node">
<title>&#45;5</title>
<polygon fill="lightgray" stroke="black" points="23.5,-154.85 0,-154.85 0,-136.35 23.5,-136.35 23.5,-154.85"/>
<text text-anchor="middle" x="11.75" y="-142.3" font-family="Times,serif" font-size="9.00">&#45;5</text>
</g>
<!-- &#45;5&#45;&gt;96 -->
<g id="edge26" class="edge">
<title>&#45;5&#45;&gt;96</title>
<path fill="none" stroke="red" stroke-width="0.36" d="M23.72,-139.81C26.66,-138.66 29.81,-137.44 32.75,-136.35 75.52,-120.39 125.63,-102.92 155.48,-92.65"/>
<polygon fill="red" stroke="red" stroke-width="0.36" points="156.31,-96.07 164.63,-89.51 154.04,-89.44 156.31,-96.07"/>
</g>
<!-- &#45;6 -->
<g id="node6" class="node">
<title>&#45;6</title>
<polygon fill="lightgray" stroke="black" points="149.5,-154.85 126,-154.85 126,-136.35 149.5,-136.35 149.5,-154.85"/>
<text text-anchor="middle" x="137.75" y="-142.3" font-family="Times,serif" font-size="9.00">&#45;6</text>
</g>
<!-- &#45;6&#45;&gt;96 -->
<g id="edge43" class="edge">
<title>&#45;6&#45;&gt;96</title>
<path fill="none" stroke="green" stroke-width="0.3" d="M144.05,-135.87C149.7,-128.05 158.22,-116.26 165.73,-105.85"/>
<polygon fill="green" stroke="green" stroke-width="0.3" points="168.43,-108.09 171.45,-97.93 162.76,-103.99 168.43,-108.09"/>
</g>
<!-- &#45;6&#45;&gt;94 -->
<g id="edge17" class="edge">
<title>&#45;6&#45;&gt;94</title>
<path fill="none" stroke="red" stroke-width="0.58" d="M149.62,-139.52C152.57,-138.37 155.74,-137.24 158.75,-136.35 235.73,-113.58 261.36,-130.53 335.75,-100.35 336.64,-99.99 337.54,-99.59 338.43,-99.17"/>
<polygon fill="red" stroke="red" stroke-width="0.58" points="339.89,-102.36 346.93,-94.44 336.49,-96.25 339.89,-102.36"/>
</g>
<!-- &#45;6&#45;&gt;95 -->
<g id="edge25" class="edge">
<title>&#45;6&#45;&gt;95</title>
<path fill="none" stroke="red" stroke-width="0.57" d="M149.71,-139.81C152.66,-138.65 155.81,-137.44 158.75,-136.35 201.61,-120.41 251.81,-103.04 281.9,-92.77"/>
<polygon fill="red" stroke="red" stroke-width="0.57" points="282.88,-96.13 291.22,-89.59 280.63,-89.5 282.88,-96.13"/>
</g>
<!-- &#45;7 -->
<g id="node7" class="node">
<title>&#45;7</title>
<polygon fill="lightgray" stroke="black" points="597.5,-154.85 574,-154.85 574,-136.35 597.5,-136.35 597.5,-154.85"/>
<text text-anchor="middle" x="585.75" y="-142.3" font-family="Times,serif" font-size="9.00">&#45;7</text>
</g>
<!-- &#45;7&#45;&gt;94 -->
<g id="edge20" class="edge">
<title>&#45;7&#45;&gt;94</title>
<path fill="none" stroke="red" stroke-width="0.31" d="M573.85,-139.63C570.9,-138.48 567.73,-137.31 564.75,-136.35 531.98,-125.7 436.71,-102.01 389.27,-90.37"/>
<polygon fill="red" stroke="red" stroke-width="0.31" points="390.11,-86.97 379.56,-88 388.44,-93.77 390.11,-86.97"/>
</g>
<!-- &#45;8 -->
<g id="node8" class="node">
<title>&#45;8</title>
<polygon fill="lightgray" stroke="black" points="463.5,-154.85 440,-154.85 440,-136.35 463.5,-136.35 463.5,-154.85"/>
<text text-anchor="middle" x="451.75" y="-142.3" font-family="Times,serif" font-size="9.00">&#45;8</text>
</g>
<!-- &#45;8&#45;&gt;96 -->
<g id="edge22" class="edge">
<title>&#45;8&#45;&gt;96</title>
<path fill="none" stroke="green" stroke-width="0.24" d="M439.88,-139.54C436.93,-138.39 433.75,-137.25 430.75,-136.35 351.99,-112.72 256.17,-95.61 209.7,-88.02"/>
<polygon fill="green" stroke="green" stroke-width="0.24" points="210.3,-84.58 199.88,-86.44 209.19,-91.49 210.3,-84.58"/>
</g>
<!-- &#45;8&#45;&gt;93 -->
<g id="edge33" class="edge">
<title>&#45;8&#45;&gt;93</title>
<path fill="none" stroke="green" stroke-width="0.2" d="M452.9,-135.87C453.78,-129.17 455.04,-119.56 456.24,-110.4"/>
<polygon fill="green" stroke="green" stroke-width="0.2" points="459.68,-111.11 457.51,-100.74 452.74,-110.19 459.68,-111.11"/>
</g>
<!-- &#45;8&#45;&gt;94 -->
<g id="edge13" class="edge">
<title>&#45;8&#45;&gt;94</title>
<path fill="none" stroke="green" stroke-width="0.26" d="M439.61,-136.38C425.56,-126.86 402.1,-110.98 384.59,-99.13"/>
<polygon fill="green" stroke="green" stroke-width="0.26" points="386.63,-96.29 376.39,-93.58 382.71,-102.08 386.63,-96.29"/>
</g>
<!-- &#45;9 -->
<g id="node9" class="node">
<title>&#45;9</title>
<polygon fill="lightgray" stroke="black" points="283.5,-154.85 260,-154.85 260,-136.35 283.5,-136.35 283.5,-154.85"/>
<text text-anchor="middle" x="271.75" y="-142.3" font-family="Times,serif" font-size="9.00">&#45;9</text>
</g>
<!-- &#45;9&#45;&gt;96 -->
<g id="edge27" class="edge">
<title>&#45;9&#45;&gt;96</title>
<path fill="none" stroke="green" stroke-width="0.53" d="M259.61,-136.38C245.56,-126.86 222.1,-110.98 204.59,-99.13"/>
<polygon fill="green" stroke="green" stroke-width="0.53" points="206.98,-96.52 196.74,-93.81 203.06,-102.32 206.98,-96.52"/>
</g>
<!-- &#45;9&#45;&gt;93 -->
<g id="edge32" class="edge">
<title>&#45;9&#45;&gt;93</title>
<path fill="none" stroke="green" stroke-width="0.1" d="M283.69,-139.74C286.64,-138.59 289.8,-137.39 292.75,-136.35 342.1,-118.89 400.62,-101.09 433.64,-91.3"/>
<polygon fill="green" stroke="green" stroke-width="0.1" points="434.28,-94.76 442.88,-88.57 432.3,-88.04 434.28,-94.76"/>
</g>
<!-- &#45;9&#45;&gt;94 -->
<g id="edge18" class="edge">
<title>&#45;9&#45;&gt;94</title>
<path fill="none" stroke="red" stroke-width="0.25" d="M283.89,-136.38C297.94,-126.86 321.4,-110.98 338.91,-99.13"/>
<polygon fill="red" stroke="red" stroke-width="0.25" points="340.8,-102.08 347.12,-93.57 336.88,-96.28 340.8,-102.08"/>
</g>
<!-- &#45;9&#45;&gt;95 -->
<g id="edge14" class="edge">
<title>&#45;9&#45;&gt;95</title>
<path fill="none" stroke="green" stroke-width="0.13" d="M277.05,-135.87C281.69,-128.23 288.63,-116.8 294.84,-106.57"/>
<polygon fill="green" stroke="green" stroke-width="0.13" points="297.73,-108.56 299.93,-98.2 291.74,-104.93 297.73,-108.56"/>
</g>
<!-- &#45;10 -->
<g id="node10" class="node">
<title>&#45;10</title>
<polygon fill="lightgray" stroke="black" points="643.75,-154.85 615.75,-154.85 615.75,-136.35 643.75,-136.35 643.75,-154.85"/>
<text text-anchor="middle" x="629.75" y="-142.3" font-family="Times,serif" font-size="9.00">&#45;10</text>
</g>
<!-- &#45;10&#45;&gt;94 -->
<g id="edge42" class="edge">
<title>&#45;10&#45;&gt;94</title>
<path fill="none" stroke="green" stroke-width="0.2" d="M615.74,-139.22C612.8,-138.19 609.69,-137.17 606.75,-136.35 530.73,-114.96 509.86,-117.38 432.75,-100.35 418.21,-97.14 402.05,-93.36 388.83,-90.21"/>
<polygon fill="green" stroke="green" stroke-width="0.2" points="389.77,-86.84 379.23,-87.91 388.14,-93.64 389.77,-86.84"/>
</g>
<!-- &#45;11 -->
<g id="node11" class="node">
<title>&#45;11</title>
<polygon fill="lightgray" stroke="black" points="195.75,-154.85 167.75,-154.85 167.75,-136.35 195.75,-136.35 195.75,-154.85"/>
<text text-anchor="middle" x="181.75" y="-142.3" font-family="Times,serif" font-size="9.00">&#45;11</text>
</g>
<!-- &#45;11&#45;&gt;96 -->
<g id="edge10" class="edge">
<title>&#45;11&#45;&gt;96</title>
<path fill="none" stroke="green" stroke-width="0.2" d="M181.75,-135.87C181.75,-129.25 181.75,-119.76 181.75,-110.7"/>
<polygon fill="green" stroke="green" stroke-width="0.2" points="185.25,-110.73 181.75,-100.73 178.25,-110.73 185.25,-110.73"/>
</g>
<!-- &#45;11&#45;&gt;94 -->
<g id="edge19" class="edge">
<title>&#45;11&#45;&gt;94</title>
<path fill="none" stroke="red" stroke-width="0.59" d="M195.8,-139.36C198.74,-138.32 201.84,-137.27 204.75,-136.35 262.32,-118.14 280.6,-124.93 335.75,-100.35 336.63,-99.96 337.51,-99.54 338.39,-99.1"/>
<polygon fill="red" stroke="red" stroke-width="0.59" points="339.89,-102.27 346.84,-94.27 336.42,-96.19 339.89,-102.27"/>
</g>
<!-- &#45;12 -->
<g id="node12" class="node">
<title>&#45;12</title>
<polygon fill="lightgray" stroke="black" points="329.75,-154.85 301.75,-154.85 301.75,-136.35 329.75,-136.35 329.75,-154.85"/>
<text text-anchor="middle" x="315.75" y="-142.3" font-family="Times,serif" font-size="9.00">&#45;12</text>
</g>
<!-- &#45;12&#45;&gt;94 -->
<g id="edge28" class="edge">
<title>&#45;12&#45;&gt;94</title>
<path fill="none" stroke="green" stroke-width="0.3" d="M322.34,-135.87C328.32,-127.95 337.38,-115.94 345.31,-105.44"/>
<polygon fill="green" stroke="green" stroke-width="0.3" points="348.1,-107.55 351.33,-97.46 342.52,-103.34 348.1,-107.55"/>
</g>
<!-- &#45;12&#45;&gt;95 -->
<g id="edge23" class="edge">
<title>&#45;12&#45;&gt;95</title>
<path fill="none" stroke="green" stroke-width="0.39" d="M314.75,-135.87C313.99,-129.25 312.9,-119.76 311.86,-110.7"/>
<polygon fill="green" stroke="green" stroke-width="0.39" points="315.36,-110.55 310.74,-101.02 308.41,-111.35 315.36,-110.55"/>
</g>
<!-- &#45;13 -->
<g id="node13" class="node">
<title>&#45;13</title>
<polygon fill="lightgray" stroke="black" points="865.75,-154.85 837.75,-154.85 837.75,-136.35 865.75,-136.35 865.75,-154.85"/>
<text text-anchor="middle" x="851.75" y="-142.3" font-family="Times,serif" font-size="9.00">&#45;13</text>
</g>
<!-- &#45;14 -->
<g id="node14" class="node">
<title>&#45;14</title>
<polygon fill="lightgray" stroke="black" points="241.75,-154.85 213.75,-154.85 213.75,-136.35 241.75,-136.35 241.75,-154.85"/>
<text text-anchor="middle" x="227.75" y="-142.3" font-family="Times,serif" font-size="9.00">&#45;14</text>
</g>
<!-- &#45;14&#45;&gt;96 -->
<g id="edge31" class="edge">
<title>&#45;14&#45;&gt;96</title>
<path fill="none" stroke="red" stroke-width="0.11" d="M221.16,-135.87C215.12,-127.87 205.94,-115.7 197.95,-105.13"/>
<polygon fill="red" stroke="red" stroke-width="0.11" points="200.81,-103.11 191.99,-97.24 195.23,-107.33 200.81,-103.11"/>
</g>
<!-- &#45;14&#45;&gt;94 -->
<g id="edge7" class="edge">
<title>&#45;14&#45;&gt;94</title>
<path fill="none" stroke="green" stroke-width="0.12" d="M242.18,-139.06C267.45,-129.3 318.67,-109.23 335.75,-100.35 336.85,-99.78 337.96,-99.17 339.07,-98.55"/>
<polygon fill="green" stroke="green" stroke-width="0.12" points="340.54,-101.75 347.3,-93.59 336.93,-95.75 340.54,-101.75"/>
</g>
<!-- &#45;15 -->
<g id="node15" class="node">
<title>&#45;15</title>
<polygon fill="lightgray" stroke="black" points="509.75,-154.85 481.75,-154.85 481.75,-136.35 509.75,-136.35 509.75,-154.85"/>
<text text-anchor="middle" x="495.75" y="-142.3" font-family="Times,serif" font-size="9.00">&#45;15</text>
</g>
<!-- &#45;15&#45;&gt;94 -->
<g id="edge1" class="edge">
<title>&#45;15&#45;&gt;94</title>
<path fill="none" stroke="green" stroke-width="0.1" d="M481.41,-138.08C458.82,-127.81 414.66,-107.73 386.77,-95.04"/>
<polygon fill="green" stroke="green" stroke-width="0.1" points="388.33,-91.91 377.78,-90.96 385.43,-98.28 388.33,-91.91"/>
</g>
<!-- &#45;16 -->
<g id="node16" class="node">
<title>&#45;16</title>
<polygon fill="lightgray" stroke="black" points="689.75,-154.85 661.75,-154.85 661.75,-136.35 689.75,-136.35 689.75,-154.85"/>
<text text-anchor="middle" x="675.75" y="-142.3" font-family="Times,serif" font-size="9.00">&#45;16</text>
</g>
<!-- &#45;16&#45;&gt;93 -->
<g id="edge12" class="edge">
<title>&#45;16&#45;&gt;93</title>
<path fill="none" stroke="green" stroke-width="0.12" d="M661.7,-139.36C658.76,-138.32 655.66,-137.27 652.75,-136.35 594.01,-117.83 524.04,-99.69 486.59,-90.29"/>
<polygon fill="green" stroke="green" stroke-width="0.12" points="487.64,-86.94 477.09,-87.92 485.95,-93.74 487.64,-86.94"/>
</g>
<!-- &#45;16&#45;&gt;94 -->
<g id="edge44" class="edge">
<title>&#45;16&#45;&gt;94</title>
<path fill="none" stroke="green" stroke-width="0.18" d="M661.27,-138.95C658.47,-137.99 655.54,-137.07 652.75,-136.35 556.83,-111.52 529.92,-119.69 432.75,-100.35 418.15,-97.44 401.98,-93.69 388.77,-90.48"/>
<polygon fill="green" stroke="green" stroke-width="0.18" points="389.71,-87.1 379.17,-88.11 388.04,-93.9 389.71,-87.1"/>
</g>
<!-- &#45;17 -->
<g id="node17" class="node">
<title>&#45;17</title>
<polygon fill="lightgray" stroke="black" points="375.75,-154.85 347.75,-154.85 347.75,-136.35 375.75,-136.35 375.75,-154.85"/>
<text text-anchor="middle" x="361.75" y="-142.3" font-family="Times,serif" font-size="9.00">&#45;17</text>
</g>
<!-- &#45;17&#45;&gt;94 -->
<g id="edge39" class="edge">
<title>&#45;17&#45;&gt;94</title>
<path fill="none" stroke="red" stroke-width="0.43" d="M361.75,-135.87C361.75,-129.32 361.75,-119.97 361.75,-110.99"/>
<polygon fill="red" stroke="red" stroke-width="0.43" points="365.25,-111.08 361.75,-101.08 358.25,-111.08 365.25,-111.08"/>
</g>
<!-- &#45;17&#45;&gt;95 -->
<g id="edge6" class="edge">
<title>&#45;17&#45;&gt;95</title>
<path fill="none" stroke="red" stroke-width="0.28" d="M354.16,-135.87C347.04,-127.69 336.13,-115.14 326.78,-104.4"/>
<polygon fill="red" stroke="red" stroke-width="0.28" points="329.52,-102.21 320.32,-96.96 324.24,-106.81 329.52,-102.21"/>
</g>
<!-- &#45;18 -->
<g id="node18" class="node">
<title>&#45;18</title>
<polygon fill="lightgray" stroke="black" points="421.75,-154.85 393.75,-154.85 393.75,-136.35 421.75,-136.35 421.75,-154.85"/>
<text text-anchor="middle" x="407.75" y="-142.3" font-family="Times,serif" font-size="9.00">&#45;18</text>
</g>
<!-- &#45;18&#45;&gt;94 -->
<g id="edge2" class="edge">
<title>&#45;18&#45;&gt;94</title>
<path fill="none" stroke="green" stroke-width="0.22" d="M401.16,-135.87C395.12,-127.87 385.94,-115.7 377.95,-105.13"/>
<polygon fill="green" stroke="green" stroke-width="0.22" points="380.91,-103.23 372.09,-97.36 375.32,-107.45 380.91,-103.23"/>
</g>
<!-- &#45;18&#45;&gt;95 -->
<g id="edge29" class="edge">
<title>&#45;18&#45;&gt;95</title>
<path fill="none" stroke="red" stroke-width="0.16" d="M393.42,-136.05C378.65,-127.22 355,-112.97 334.75,-100.35 333.82,-99.76 332.87,-99.17 331.91,-98.57"/>
<polygon fill="red" stroke="red" stroke-width="0.16" points="333.81,-95.62 323.49,-93.21 330.05,-101.53 333.81,-95.62"/>
</g>
<!-- &#45;19 -->
<g id="node19" class="node">
<title>&#45;19</title>
<polygon fill="lightgray" stroke="black" points="555.75,-154.85 527.75,-154.85 527.75,-136.35 555.75,-136.35 555.75,-154.85"/>
<text text-anchor="middle" x="541.75" y="-142.3" font-family="Times,serif" font-size="9.00">&#45;19</text>
</g>
<!-- &#45;19&#45;&gt;94 -->
<g id="edge36" class="edge">
<title>&#45;19&#45;&gt;94</title>
<path fill="none" stroke="green" stroke-width="0.16" d="M527.66,-139.49C524.72,-138.44 521.64,-137.35 518.75,-136.35 472.87,-120.42 419.19,-102.58 387.97,-92.28"/>
<polygon fill="green" stroke="green" stroke-width="0.16" points="389.11,-88.97 378.51,-89.17 386.92,-95.62 389.11,-88.97"/>
</g>
<!-- &#45;20 -->
<g id="node20" class="node">
<title>&#45;20</title>
<polygon fill="lightgray" stroke="black" points="777.75,-154.85 749.75,-154.85 749.75,-136.35 777.75,-136.35 777.75,-154.85"/>
<text text-anchor="middle" x="763.75" y="-142.3" font-family="Times,serif" font-size="9.00">&#45;20</text>
</g>
<!-- &#45;20&#45;&gt;93 -->
<g id="edge37" class="edge">
<title>&#45;20&#45;&gt;93</title>
<path fill="none" stroke="red" stroke-width="0.17" d="M749.26,-139.01C746.46,-138.04 743.53,-137.1 740.75,-136.35 649.29,-111.54 537.96,-94.44 487.27,-87.34"/>
<polygon fill="red" stroke="red" stroke-width="0.17" points="488.03,-83.91 477.65,-86.02 487.08,-90.85 488.03,-83.91"/>
</g>
<!-- 0 -->
<g id="node21" class="node">
<title>0</title>
<ellipse fill="lightblue" stroke="black" cx="300.75" cy="-14.5" rx="14.5" ry="14.5"/>
<text text-anchor="middle" x="300.75" y="-11.2" font-family="Times,serif" font-size="9.00">0</text>
</g>
<!-- 1 -->
<g id="node22" class="node">
<title>1</title>
<ellipse fill="lightblue" stroke="black" cx="347.75" cy="-14.5" rx="14.5" ry="14.5"/>
<text text-anchor="middle" x="347.75" y="-11.2" font-family="Times,serif" font-size="9.00">1</text>
</g>
<!-- 2 -->
<g id="node23" class="node">
<title>2</title>
<ellipse fill="lightblue" stroke="black" cx="221.75" cy="-14.5" rx="14.5" ry="14.5"/>
<text text-anchor="middle" x="221.75" y="-11.2" font-family="Times,serif" font-size="9.00">2</text>
</g>
<!-- 3 -->
<g id="node24" class="node">
<title>3</title>
<ellipse fill="lightblue" stroke="black" cx="459.75" cy="-14.5" rx="14.5" ry="14.5"/>
<text text-anchor="middle" x="459.75" y="-11.2" font-family="Times,serif" font-size="9.00">3</text>
</g>
<!-- 4 -->
<g id="node25" class="node">
<title>4</title>
<ellipse fill="lightblue" stroke="black" cx="394.75" cy="-14.5" rx="14.5" ry="14.5"/>
<text text-anchor="middle" x="394.75" y="-11.2" font-family="Times,serif" font-size="9.00">4</text>
</g>
<!-- 4&#45;&gt;4 -->
<g id="edge15" class="edge">
<title>4&#45;&gt;4</title>
<path fill="none" stroke="green" stroke-width="0.25" d="M405.4,-24.65C415.81,-30.26 427.25,-26.88 427.25,-14.5 427.25,-5.98 421.84,-1.72 415.08,-1.71"/>
<polygon fill="green" stroke="green" stroke-width="0.25" points="414.51,1.76 405.77,-4.24 416.34,-5 414.51,1.76"/>
</g>
<!-- 96&#45;&gt;2 -->
<g id="edge41" class="edge">
<title>96&#45;&gt;2</title>
<path fill="none" stroke="red" stroke-width="0.28" d="M190.63,-66.98C196.07,-57.98 203.12,-46.31 209.14,-36.36"/>
<polygon fill="red" stroke="red" stroke-width="0.28" points="212.1,-38.22 214.28,-27.85 206.11,-34.6 212.1,-38.22"/>
</g>
<!-- 93&#45;&gt;3 -->
<g id="edge4" class="edge">
<title>93&#45;&gt;3</title>
<path fill="none" stroke="red" stroke-width="0.54" d="M459.75,-64.63C459.75,-57.05 459.75,-47.98 459.75,-39.71"/>
<polygon fill="red" stroke="red" stroke-width="0.54" points="463.25,-39.97 459.75,-29.97 456.25,-39.97 463.25,-39.97"/>
</g>
<!-- 93&#45;&gt;4 -->
<g id="edge34" class="edge">
<title>93&#45;&gt;4</title>
<path fill="none" stroke="green" stroke-width="0.25" d="M447.52,-69.22C437.36,-58.88 422.81,-44.06 411.55,-32.6"/>
<polygon fill="green" stroke="green" stroke-width="0.25" points="414.15,-30.25 404.64,-25.57 409.15,-35.15 414.15,-30.25"/>
</g>
<!-- 94&#45;&gt;1 -->
<g id="edge30" class="edge">
<title>94&#45;&gt;1</title>
<path fill="none" stroke="green" stroke-width="0.13" d="M358.22,-64.97C356.54,-57.02 354.5,-47.39 352.67,-38.74"/>
<polygon fill="green" stroke="green" stroke-width="0.13" points="356.11,-38.12 350.62,-29.06 349.26,-39.56 356.11,-38.12"/>
</g>
<!-- 95&#45;&gt;0 -->
<g id="edge24" class="edge">
<title>95&#45;&gt;0</title>
<path fill="none" stroke="red" stroke-width="0.26" d="M306.69,-64.63C305.76,-56.96 304.65,-47.77 303.64,-39.43"/>
<polygon fill="red" stroke="red" stroke-width="0.26" points="307.12,-39.05 302.45,-29.54 300.17,-39.89 307.12,-39.05"/>
</g>
<!-- 95&#45;&gt;1 -->
<g id="edge40" class="edge">
<title>95&#45;&gt;1</title>
<path fill="none" stroke="red" stroke-width="0.48" d="M317.41,-66.98C322.66,-58.07 329.45,-46.55 335.27,-36.67"/>
<polygon fill="red" stroke="red" stroke-width="0.48" points="338.25,-38.51 340.31,-28.12 332.22,-34.95 338.25,-38.51"/>
</g>
<!-- 95&#45;&gt;2 -->
<g id="edge9" class="edge">
<title>95&#45;&gt;2</title>
<path fill="none" stroke="red" stroke-width="0.29" d="M295.16,-71.33C280.59,-60.25 257.34,-42.57 240.92,-30.08"/>
<polygon fill="red" stroke="red" stroke-width="0.29" points="243.46,-27.61 233.39,-24.35 239.23,-33.19 243.46,-27.61"/>
</g>
<!-- 95&#45;&gt;3 -->
<g id="edge5" class="edge">
<title>95&#45;&gt;3</title>
<path fill="none" stroke="green" stroke-width="0.11" d="M322.99,-71.71C326.72,-69.34 330.8,-66.93 334.75,-64.99 377.53,-43.99 392.38,-48.74 435.75,-28.99 436.75,-28.54 437.77,-28.05 438.78,-27.55"/>
<polygon fill="green" stroke="green" stroke-width="0.11" points="440.42,-30.65 447.6,-22.85 437.13,-24.47 440.42,-30.65"/>
</g>
<!-- 95&#45;&gt;4 -->
<g id="edge16" class="edge">
<title>95&#45;&gt;4</title>
<path fill="none" stroke="green" stroke-width="0.18" d="M322.57,-71.04C336.96,-59.96 359.62,-42.53 375.7,-30.15"/>
<polygon fill="green" stroke="green" stroke-width="0.18" points="377.43,-33.24 383.22,-24.37 373.16,-27.69 377.43,-33.24"/>
</g>
</g>
</svg>
