<?xml version="1.0" encoding="UTF-8" standalone="no"?>
<!DOCTYPE svg PUBLIC "-//W3C//DTD SVG 1.1//EN"
 "http://www.w3.org/Graphics/SVG/1.1/DTD/svg11.dtd">
<!-- Generated by graphviz version 12.1.1 (20240910.0053)
 -->
<!-- Pages: 1 -->
<svg width="746pt" height="247pt"
 viewBox="0.00 0.00 746.00 246.93" xmlns="http://www.w3.org/2000/svg" xmlns:xlink="http://www.w3.org/1999/xlink">
<g id="graph0" class="graph" transform="scale(1 1) rotate(0) translate(4 242.93)">
<polygon fill="white" stroke="none" points="-4,4 -4,-242.93 742,-242.93 742,4 -4,4"/>
<!-- &#45;1 -->
<g id="node1" class="node">
<title>&#45;1</title>
<polygon fill="lightgray" stroke="black" points="293.75,-172.82 270.25,-172.82 270.25,-154.32 293.75,-154.32 293.75,-172.82"/>
<text text-anchor="middle" x="282" y="-160.27" font-family="Times,serif" font-size="9.00">&#45;1</text>
</g>
<!-- 177 -->
<g id="node27" class="node">
<title>177</title>
<ellipse fill="white" stroke="black" cx="418" cy="-85.85" rx="20.86" ry="20.86"/>
<text text-anchor="middle" x="418" y="-82.55" font-family="Times,serif" font-size="9.00">177</text>
</g>
<!-- &#45;1&#45;&gt;177 -->
<g id="edge27" class="edge">
<title>&#45;1&#45;&gt;177</title>
<path fill="none" stroke="green" stroke-width="0.53" d="M290.07,-153.82C293.78,-150.11 298.38,-145.91 303,-142.71 330.2,-123.91 364.68,-108.08 388.76,-98.12"/>
<polygon fill="green" stroke="green" stroke-width="0.53" points="390.01,-101.39 397.97,-94.4 387.38,-94.9 390.01,-101.39"/>
</g>
<!-- &#45;2 -->
<g id="node2" class="node">
<title>&#45;2</title>
<polygon fill="lightgray" stroke="black" points="691.75,-172.82 668.25,-172.82 668.25,-154.32 691.75,-154.32 691.75,-172.82"/>
<text text-anchor="middle" x="680" y="-160.27" font-family="Times,serif" font-size="9.00">&#45;2</text>
</g>
<!-- 179 -->
<g id="node29" class="node">
<title>179</title>
<ellipse fill="white" stroke="black" cx="590" cy="-85.85" rx="20.86" ry="20.86"/>
<text text-anchor="middle" x="590" y="-82.55" font-family="Times,serif" font-size="9.00">179</text>
</g>
<!-- &#45;2&#45;&gt;179 -->
<g id="edge37" class="edge">
<title>&#45;2&#45;&gt;179</title>
<path fill="none" stroke="red" stroke-width="0.17" stroke-dasharray="1,5" d="M671.15,-153.91C667.45,-150.37 663.08,-146.28 659,-142.71 644.4,-129.93 627.48,-116.22 614.04,-105.57"/>
<polygon fill="red" stroke="red" stroke-width="0.17" points="616.41,-102.98 606.39,-99.54 612.08,-108.48 616.41,-102.98"/>
</g>
<!-- 180 -->
<g id="node30" class="node">
<title>180</title>
<ellipse fill="white" stroke="black" cx="530" cy="-85.85" rx="20.86" ry="20.86"/>
<text text-anchor="middle" x="530" y="-82.55" font-family="Times,serif" font-size="9.00">180</text>
</g>
<!-- &#45;2&#45;&gt;180 -->
<g id="edge25" class="edge">
<title>&#45;2&#45;&gt;180</title>
<path fill="none" stroke="red" stroke-width="0.56" stroke-dasharray="1,5" d="M672.47,-153.99C668.73,-150.13 663.95,-145.77 659,-142.71 619.16,-118.11 601.81,-127.78 560,-106.71 558.61,-106.01 557.2,-105.25 555.79,-104.46"/>
<polygon fill="red" stroke="red" stroke-width="0.56" points="557.79,-101.58 547.43,-99.36 554.14,-107.56 557.79,-101.58"/>
</g>
<!-- &#45;3 -->
<g id="node3" class="node">
<title>&#45;3</title>
<polygon fill="lightgray" stroke="black" points="69.75,-172.82 46.25,-172.82 46.25,-154.32 69.75,-154.32 69.75,-172.82"/>
<text text-anchor="middle" x="58" y="-160.27" font-family="Times,serif" font-size="9.00">&#45;3</text>
</g>
<!-- 178 -->
<g id="node28" class="node">
<title>178</title>
<ellipse fill="white" stroke="black" cx="254" cy="-85.85" rx="20.86" ry="20.86"/>
<text text-anchor="middle" x="254" y="-82.55" font-family="Times,serif" font-size="9.00">178</text>
</g>
<!-- &#45;3&#45;&gt;178 -->
<g id="edge22" class="edge">
<title>&#45;3&#45;&gt;178</title>
<path fill="none" stroke="red" stroke-width="0.3" d="M65.47,-153.9C69.21,-150.02 73.99,-145.67 79,-142.71 125.49,-115.27 187.02,-99.69 223.37,-92.29"/>
<polygon fill="red" stroke="red" stroke-width="0.3" points="223.78,-95.78 232.92,-90.42 222.43,-88.91 223.78,-95.78"/>
</g>
<!-- &#45;4 -->
<g id="node4" class="node">
<title>&#45;4</title>
<polygon fill="lightgray" stroke="black" points="511.75,-172.82 488.25,-172.82 488.25,-154.32 511.75,-154.32 511.75,-172.82"/>
<text text-anchor="middle" x="500" y="-160.27" font-family="Times,serif" font-size="9.00">&#45;4</text>
</g>
<!-- &#45;4&#45;&gt;178 -->
<g id="edge3" class="edge">
<title>&#45;4&#45;&gt;178</title>
<path fill="none" stroke="green" stroke-width="0.38" stroke-dasharray="1,5" d="M487.84,-158.34C475.94,-154.23 457.28,-147.88 441,-142.71 385.89,-125.21 321.16,-106.22 284.12,-95.5"/>
<polygon fill="green" stroke="green" stroke-width="0.38" points="285.13,-92.15 274.55,-92.74 283.19,-98.88 285.13,-92.15"/>
</g>
<!-- &#45;4&#45;&gt;179 -->
<g id="edge29" class="edge">
<title>&#45;4&#45;&gt;179</title>
<path fill="none" stroke="red" stroke-width="0.35" d="M508.85,-153.91C512.55,-150.37 516.92,-146.28 521,-142.71 535.46,-130.05 552.2,-116.47 565.57,-105.87"/>
<polygon fill="red" stroke="red" stroke-width="0.35" points="567.71,-108.65 573.4,-99.71 563.38,-103.15 567.71,-108.65"/>
</g>
<!-- &#45;4&#45;&gt;180 -->
<g id="edge38" class="edge">
<title>&#45;4&#45;&gt;180</title>
<path fill="none" stroke="green" stroke-width="0.28" d="M503.44,-153.88C507.16,-144.51 513.27,-129.07 518.7,-115.37"/>
<polygon fill="green" stroke="green" stroke-width="0.28" points="521.9,-116.8 522.33,-106.22 515.39,-114.23 521.9,-116.8"/>
</g>
<!-- &#45;5 -->
<g id="node5" class="node">
<title>&#45;5</title>
<polygon fill="lightgray" stroke="black" points="652.75,-95.1 629.25,-95.1 629.25,-76.6 652.75,-76.6 652.75,-95.1"/>
<text text-anchor="middle" x="641" y="-82.55" font-family="Times,serif" font-size="9.00">&#45;5</text>
</g>
<!-- 4 -->
<g id="node25" class="node">
<title>4</title>
<ellipse fill="lightblue" stroke="black" cx="595" cy="-14.5" rx="14.5" ry="14.5"/>
<text text-anchor="middle" x="595" y="-11.2" font-family="Times,serif" font-size="9.00">4</text>
</g>
<!-- &#45;5&#45;&gt;4 -->
<g id="edge42" class="edge">
<title>&#45;5&#45;&gt;4</title>
<path fill="none" stroke="red" stroke-width="0.27" stroke-dasharray="1,5" d="M635.36,-76.35C628.65,-66.24 617.24,-49.03 608.26,-35.49"/>
<polygon fill="red" stroke="red" stroke-width="0.27" points="611.19,-33.58 602.75,-27.18 605.36,-37.44 611.19,-33.58"/>
</g>
<!-- &#45;6 -->
<g id="node6" class="node">
<title>&#45;6</title>
<polygon fill="lightgray" stroke="black" points="111.75,-172.82 88.25,-172.82 88.25,-154.32 111.75,-154.32 111.75,-172.82"/>
<text text-anchor="middle" x="100" y="-160.27" font-family="Times,serif" font-size="9.00">&#45;6</text>
</g>
<!-- &#45;6&#45;&gt;178 -->
<g id="edge33" class="edge">
<title>&#45;6&#45;&gt;178</title>
<path fill="none" stroke="green" stroke-width="0.26" stroke-dasharray="1,5" d="M107.6,-154.1C111.35,-150.26 116.12,-145.89 121,-142.71 153.89,-121.28 196.37,-105.15 224.36,-95.86"/>
<polygon fill="green" stroke="green" stroke-width="0.26" points="225.16,-99.28 233.59,-92.88 223,-92.62 225.16,-99.28"/>
</g>
<!-- &#45;7 -->
<g id="node7" class="node">
<title>&#45;7</title>
<polygon fill="lightgray" stroke="black" points="286.75,-238.93 263.25,-238.93 263.25,-220.43 286.75,-220.43 286.75,-238.93"/>
<text text-anchor="middle" x="275" y="-226.38" font-family="Times,serif" font-size="9.00">&#45;7</text>
</g>
<!-- &#45;8 -->
<g id="node8" class="node">
<title>&#45;8</title>
<polygon fill="lightgray" stroke="black" points="328.75,-238.93 305.25,-238.93 305.25,-220.43 328.75,-220.43 328.75,-238.93"/>
<text text-anchor="middle" x="317" y="-226.38" font-family="Times,serif" font-size="9.00">&#45;8</text>
</g>
<!-- &#45;9 -->
<g id="node9" class="node">
<title>&#45;9</title>
<polygon fill="lightgray" stroke="black" points="153.75,-172.82 130.25,-172.82 130.25,-154.32 153.75,-154.32 153.75,-172.82"/>
<text text-anchor="middle" x="142" y="-160.27" font-family="Times,serif" font-size="9.00">&#45;9</text>
</g>
<!-- &#45;9&#45;&gt;178 -->
<g id="edge18" class="edge">
<title>&#45;9&#45;&gt;178</title>
<path fill="none" stroke="red" stroke-width="0.39" d="M153,-153.88C157.58,-150.33 162.99,-146.25 168,-142.71 187.64,-128.86 210.48,-114.08 227.69,-103.21"/>
<polygon fill="red" stroke="red" stroke-width="0.39" points="229.51,-106.2 236.11,-97.92 225.78,-100.27 229.51,-106.2"/>
</g>
<!-- &#45;10 -->
<g id="node10" class="node">
<title>&#45;10</title>
<polygon fill="lightgray" stroke="black" points="558,-172.82 530,-172.82 530,-154.32 558,-154.32 558,-172.82"/>
<text text-anchor="middle" x="544" y="-160.27" font-family="Times,serif" font-size="9.00">&#45;10</text>
</g>
<!-- &#45;10&#45;&gt;178 -->
<g id="edge14" class="edge">
<title>&#45;10&#45;&gt;178</title>
<path fill="none" stroke="green" stroke-width="0.15" d="M536.23,-154.09C532.08,-150.06 526.67,-145.52 521,-142.71 479.47,-122.17 345.43,-100.39 284.57,-91.27"/>
<polygon fill="green" stroke="green" stroke-width="0.15" points="285.4,-87.86 275,-89.85 284.38,-94.78 285.4,-87.86"/>
</g>
<!-- &#45;10&#45;&gt;179 -->
<g id="edge21" class="edge">
<title>&#45;10&#45;&gt;179</title>
<path fill="none" stroke="green" stroke-width="0.29" d="M549.28,-153.88C555.28,-144.01 565.36,-127.4 574,-113.19"/>
<polygon fill="green" stroke="green" stroke-width="0.29" points="576.97,-115.04 579.17,-104.67 570.99,-111.4 576.97,-115.04"/>
</g>
<!-- &#45;10&#45;&gt;180 -->
<g id="edge8" class="edge">
<title>&#45;10&#45;&gt;180</title>
<path fill="none" stroke="red" stroke-width="0.17" stroke-dasharray="1,5" d="M542.39,-153.88C540.71,-144.78 537.97,-129.98 535.5,-116.59"/>
<polygon fill="red" stroke="red" stroke-width="0.17" points="538.98,-116.19 533.72,-107 532.1,-117.47 538.98,-116.19"/>
</g>
<!-- &#45;11 -->
<g id="node11" class="node">
<title>&#45;11</title>
<polygon fill="lightgray" stroke="black" points="386,-172.82 358,-172.82 358,-154.32 386,-154.32 386,-172.82"/>
<text text-anchor="middle" x="372" y="-160.27" font-family="Times,serif" font-size="9.00">&#45;11</text>
</g>
<!-- &#45;11&#45;&gt;177 -->
<g id="edge34" class="edge">
<title>&#45;11&#45;&gt;177</title>
<path fill="none" stroke="green" stroke-width="0.16" stroke-dasharray="1,5" d="M377.28,-153.88C383.34,-143.91 393.56,-127.09 402.24,-112.79"/>
<polygon fill="green" stroke="green" stroke-width="0.16" points="405.07,-114.87 407.27,-104.51 399.09,-111.24 405.07,-114.87"/>
</g>
<!-- &#45;11&#45;&gt;178 -->
<g id="edge28" class="edge">
<title>&#45;11&#45;&gt;178</title>
<path fill="none" stroke="red" stroke-width="0.13" stroke-dasharray="1,5" d="M362.91,-154.06C358.81,-150.38 353.8,-146.15 349,-142.71 327.22,-127.1 300.83,-111.85 281.4,-101.23"/>
<polygon fill="red" stroke="red" stroke-width="0.13" points="283.11,-98.18 272.64,-96.51 279.78,-104.34 283.11,-98.18"/>
</g>
<!-- &#45;11&#45;&gt;179 -->
<g id="edge15" class="edge">
<title>&#45;11&#45;&gt;179</title>
<path fill="none" stroke="red" stroke-width="0.13" d="M379.78,-154.11C383.93,-150.08 389.34,-145.54 395,-142.71 462.14,-109.15 490.86,-135.93 560,-106.71 561.58,-106.04 563.17,-105.29 564.75,-104.47"/>
<polygon fill="red" stroke="red" stroke-width="0.13" points="566.47,-107.52 573.32,-99.44 562.92,-101.49 566.47,-107.52"/>
</g>
<!-- &#45;12 -->
<g id="node12" class="node">
<title>&#45;12</title>
<polygon fill="lightgray" stroke="black" points="245,-238.93 217,-238.93 217,-220.43 245,-220.43 245,-238.93"/>
<text text-anchor="middle" x="231" y="-226.38" font-family="Times,serif" font-size="9.00">&#45;12</text>
</g>
<!-- 290 -->
<g id="node26" class="node">
<title>290</title>
<ellipse fill="white" stroke="black" cx="231" cy="-163.57" rx="20.86" ry="20.86"/>
<text text-anchor="middle" x="231" y="-160.27" font-family="Times,serif" font-size="9.00">290</text>
</g>
<!-- &#45;12&#45;&gt;290 -->
<g id="edge43" class="edge">
<title>&#45;12&#45;&gt;290</title>
<path fill="none" stroke="green" stroke-width="0.51" d="M231,-220.03C231,-213.67 231,-204.59 231,-195.62"/>
<polygon fill="green" stroke="green" stroke-width="0.51" points="234.5,-195.7 231,-185.7 227.5,-195.7 234.5,-195.7"/>
</g>
<!-- &#45;12&#45;&gt;177 -->
<g id="edge20" class="edge">
<title>&#45;12&#45;&gt;177</title>
<path fill="none" stroke="red" stroke-width="0.44" stroke-dasharray="1,5" d="M245.49,-223.1C248.29,-222.13 251.22,-221.19 254,-220.43 335.63,-198.08 387.11,-249.69 441,-184.43 457.63,-164.3 446.87,-134.25 435.11,-112.82"/>
<polygon fill="red" stroke="red" stroke-width="0.44" points="438.15,-111.09 430.07,-104.23 432.11,-114.63 438.15,-111.09"/>
</g>
<!-- &#45;12&#45;&gt;178 -->
<g id="edge11" class="edge">
<title>&#45;12&#45;&gt;178</title>
<path fill="none" stroke="red" stroke-width="0.16" stroke-dasharray="1,5" d="M222.79,-220.03C215.46,-211.68 205.25,-198.27 201,-184.43 195.56,-166.7 194.13,-159.93 201,-142.71 206.86,-128.02 218.62,-114.98 229.58,-105.2"/>
<polygon fill="red" stroke="red" stroke-width="0.16" points="231.74,-107.95 237.14,-98.83 227.23,-102.6 231.74,-107.95"/>
</g>
<!-- &#45;13 -->
<g id="node13" class="node">
<title>&#45;13</title>
<polygon fill="lightgray" stroke="black" points="375,-238.93 347,-238.93 347,-220.43 375,-220.43 375,-238.93"/>
<text text-anchor="middle" x="361" y="-226.38" font-family="Times,serif" font-size="9.00">&#45;13</text>
</g>
<!-- &#45;14 -->
<g id="node14" class="node">
<title>&#45;14</title>
<polygon fill="lightgray" stroke="black" points="604,-172.82 576,-172.82 576,-154.32 604,-154.32 604,-172.82"/>
<text text-anchor="middle" x="590" y="-160.27" font-family="Times,serif" font-size="9.00">&#45;14</text>
</g>
<!-- &#45;14&#45;&gt;177 -->
<g id="edge7" class="edge">
<title>&#45;14&#45;&gt;177</title>
<path fill="none" stroke="red" stroke-width="0.14" d="M581.61,-154.05C577.48,-150.2 572.26,-145.83 567,-142.71 528.58,-119.91 479.24,-103.63 448.11,-94.72"/>
<polygon fill="red" stroke="red" stroke-width="0.14" points="449.06,-91.36 438.49,-92.04 447.18,-98.1 449.06,-91.36"/>
</g>
<!-- &#45;14&#45;&gt;179 -->
<g id="edge30" class="edge">
<title>&#45;14&#45;&gt;179</title>
<path fill="none" stroke="red" stroke-width="0.28" d="M590,-153.88C590,-144.93 590,-130.46 590,-117.26"/>
<polygon fill="red" stroke="red" stroke-width="0.28" points="593.5,-117.49 590,-107.49 586.5,-117.49 593.5,-117.49"/>
</g>
<!-- &#45;14&#45;&gt;180 -->
<g id="edge4" class="edge">
<title>&#45;14&#45;&gt;180</title>
<path fill="none" stroke="red" stroke-width="0.53" d="M583.12,-153.88C574.88,-143.49 560.75,-125.66 549.14,-111"/>
<polygon fill="red" stroke="red" stroke-width="0.53" points="552.1,-109.11 543.15,-103.45 546.62,-113.46 552.1,-109.11"/>
</g>
<!-- &#45;15 -->
<g id="node15" class="node">
<title>&#45;15</title>
<polygon fill="lightgray" stroke="black" points="340,-172.82 312,-172.82 312,-154.32 340,-154.32 340,-172.82"/>
<text text-anchor="middle" x="326" y="-160.27" font-family="Times,serif" font-size="9.00">&#45;15</text>
</g>
<!-- &#45;15&#45;&gt;177 -->
<g id="edge31" class="edge">
<title>&#45;15&#45;&gt;177</title>
<path fill="none" stroke="red" stroke-width="0.37" d="M335.79,-154C339.85,-150.47 344.63,-146.37 349,-142.71 363.74,-130.38 380.49,-116.81 393.8,-106.13"/>
<polygon fill="red" stroke="red" stroke-width="0.37" points="395.93,-108.91 401.55,-99.93 391.56,-103.44 395.93,-108.91"/>
</g>
<!-- &#45;15&#45;&gt;178 -->
<g id="edge24" class="edge">
<title>&#45;15&#45;&gt;178</title>
<path fill="none" stroke="red" stroke-width="0.28" d="M317.74,-153.88C307.42,-143.03 289.39,-124.07 275.14,-109.08"/>
<polygon fill="red" stroke="red" stroke-width="0.28" points="277.8,-106.8 268.38,-101.97 272.73,-111.63 277.8,-106.8"/>
</g>
<!-- &#45;15&#45;&gt;180 -->
<g id="edge40" class="edge">
<title>&#45;15&#45;&gt;180</title>
<path fill="none" stroke="red" stroke-width="0.61" d="M334.31,-153.91C338.42,-150.03 343.65,-145.68 349,-142.71 375.06,-128.28 454.87,-106.3 499.31,-94.68"/>
<polygon fill="red" stroke="red" stroke-width="0.61" points="500.1,-98.09 508.9,-92.19 498.34,-91.32 500.1,-98.09"/>
</g>
<!-- &#45;16 -->
<g id="node16" class="node">
<title>&#45;16</title>
<polygon fill="lightgray" stroke="black" points="650,-172.82 622,-172.82 622,-154.32 650,-154.32 650,-172.82"/>
<text text-anchor="middle" x="636" y="-160.27" font-family="Times,serif" font-size="9.00">&#45;16</text>
</g>
<!-- &#45;16&#45;&gt;177 -->
<g id="edge5" class="edge">
<title>&#45;16&#45;&gt;177</title>
<path fill="none" stroke="red" stroke-width="0.12" d="M627.72,-153.86C623.61,-149.97 618.38,-145.62 613,-142.71 598.36,-134.8 499.07,-108.13 448.09,-94.7"/>
<polygon fill="red" stroke="red" stroke-width="0.12" points="449.01,-91.33 438.45,-92.17 447.23,-98.1 449.01,-91.33"/>
</g>
<!-- &#45;16&#45;&gt;179 -->
<g id="edge1" class="edge">
<title>&#45;16&#45;&gt;179</title>
<path fill="none" stroke="green" stroke-width="0.35" d="M630.72,-153.88C624.72,-144.01 614.64,-127.4 606,-113.19"/>
<polygon fill="green" stroke="green" stroke-width="0.35" points="609.06,-111.48 600.87,-104.75 603.08,-115.11 609.06,-111.48"/>
</g>
<!-- &#45;16&#45;&gt;180 -->
<g id="edge2" class="edge">
<title>&#45;16&#45;&gt;180</title>
<path fill="none" stroke="green" stroke-width="0.33" stroke-dasharray="1,5" d="M626.81,-154.19C622.68,-150.55 617.7,-146.3 613,-142.71 607.63,-138.61 578.14,-118.87 555.82,-104"/>
<polygon fill="green" stroke="green" stroke-width="0.33" points="557.76,-101.09 547.5,-98.47 553.89,-106.92 557.76,-101.09"/>
</g>
<!-- &#45;17 -->
<g id="node17" class="node">
<title>&#45;17</title>
<polygon fill="lightgray" stroke="black" points="28,-172.82 0,-172.82 0,-154.32 28,-154.32 28,-172.82"/>
<text text-anchor="middle" x="14" y="-160.27" font-family="Times,serif" font-size="9.00">&#45;17</text>
</g>
<!-- &#45;17&#45;&gt;178 -->
<g id="edge9" class="edge">
<title>&#45;17&#45;&gt;178</title>
<path fill="none" stroke="green" stroke-width="0.21" d="M21.83,-154.2C25.99,-150.19 31.39,-145.65 37,-142.71 98.46,-110.55 179.57,-96.09 223.15,-90.28"/>
<polygon fill="green" stroke="green" stroke-width="0.21" points="223.34,-93.78 232.82,-89.05 222.46,-86.84 223.34,-93.78"/>
</g>
<!-- &#45;18 -->
<g id="node18" class="node">
<title>&#45;18</title>
<polygon fill="lightgray" stroke="black" points="738,-172.82 710,-172.82 710,-154.32 738,-154.32 738,-172.82"/>
<text text-anchor="middle" x="724" y="-160.27" font-family="Times,serif" font-size="9.00">&#45;18</text>
</g>
<!-- &#45;18&#45;&gt;179 -->
<g id="edge17" class="edge">
<title>&#45;18&#45;&gt;179</title>
<path fill="none" stroke="red" stroke-width="0.19" d="M715.52,-154.19C711.37,-150.37 706.17,-145.99 701,-142.71 667.73,-121.61 654.54,-125.65 620,-106.71 618.49,-105.88 616.97,-105.01 615.44,-104.1"/>
<polygon fill="red" stroke="red" stroke-width="0.19" points="617.41,-101.2 607.08,-98.85 613.69,-107.13 617.41,-101.2"/>
</g>
<!-- &#45;19 -->
<g id="node19" class="node">
<title>&#45;19</title>
<polygon fill="lightgray" stroke="black" points="421,-238.93 393,-238.93 393,-220.43 421,-220.43 421,-238.93"/>
<text text-anchor="middle" x="407" y="-226.38" font-family="Times,serif" font-size="9.00">&#45;19</text>
</g>
<!-- &#45;20 -->
<g id="node20" class="node">
<title>&#45;20</title>
<polygon fill="lightgray" stroke="black" points="432,-172.82 404,-172.82 404,-154.32 432,-154.32 432,-172.82"/>
<text text-anchor="middle" x="418" y="-160.27" font-family="Times,serif" font-size="9.00">&#45;20</text>
</g>
<!-- &#45;20&#45;&gt;177 -->
<g id="edge13" class="edge">
<title>&#45;20&#45;&gt;177</title>
<path fill="none" stroke="green" stroke-width="0.11" d="M418,-153.88C418,-144.85 418,-130.18 418,-116.86"/>
<polygon fill="green" stroke="green" stroke-width="0.11" points="421.5,-117.23 418,-107.23 414.5,-117.23 421.5,-117.23"/>
</g>
<!-- 0 -->
<g id="node21" class="node">
<title>0</title>
<ellipse fill="lightblue" stroke="black" cx="418" cy="-14.5" rx="14.5" ry="14.5"/>
<text text-anchor="middle" x="418" y="-11.2" font-family="Times,serif" font-size="9.00">0</text>
</g>
<!-- 1 -->
<g id="node22" class="node">
<title>1</title>
<ellipse fill="lightblue" stroke="black" cx="530" cy="-14.5" rx="14.5" ry="14.5"/>
<text text-anchor="middle" x="530" y="-11.2" font-family="Times,serif" font-size="9.00">1</text>
</g>
<!-- 1&#45;&gt;1 -->
<g id="edge32" class="edge">
<title>1&#45;&gt;1</title>
<path fill="none" stroke="red" stroke-width="0.65" d="M540.32,-24.94C550.81,-31.08 562.5,-27.6 562.5,-14.5 562.5,-5.69 557.22,-1.23 550.58,-1.12"/>
<polygon fill="red" stroke="red" stroke-width="0.65" points="549.92,2.33 541.27,-3.78 551.84,-4.4 549.92,2.33"/>
</g>
<!-- 2 -->
<g id="node23" class="node">
<title>2</title>
<ellipse fill="lightblue" stroke="black" cx="254" cy="-14.5" rx="14.5" ry="14.5"/>
<text text-anchor="middle" x="254" y="-11.2" font-family="Times,serif" font-size="9.00">2</text>
</g>
<!-- 3 -->
<g id="node24" class="node">
<title>3</title>
<ellipse fill="lightblue" stroke="black" cx="465" cy="-14.5" rx="14.5" ry="14.5"/>
<text text-anchor="middle" x="465" y="-11.2" font-family="Times,serif" font-size="9.00">3</text>
</g>
<!-- 3&#45;&gt;3 -->
<g id="edge10" class="edge">
<title>3&#45;&gt;3</title>
<path fill="none" stroke="red" stroke-width="0.21" stroke-dasharray="1,5" d="M475.32,-24.94C485.81,-31.08 497.5,-27.6 497.5,-14.5 497.5,-5.49 491.97,-1.03 485.11,-1.12"/>
<polygon fill="red" stroke="red" stroke-width="0.21" points="484.19,2.26 475.62,-3.97 486.2,-4.45 484.19,2.26"/>
</g>
<!-- 290&#45;&gt;177 -->
<g id="edge44" class="edge">
<title>290&#45;&gt;177</title>
<path fill="none" stroke="green" stroke-width="0.22" d="M247.7,-150.48C251.92,-147.72 256.53,-144.94 261,-142.71 303.39,-121.54 355.8,-104.59 388.06,-95.13"/>
<polygon fill="green" stroke="green" stroke-width="0.22" points="388.83,-98.55 397.47,-92.42 386.89,-91.83 388.83,-98.55"/>
</g>
<!-- 177&#45;&gt;0 -->
<g id="edge12" class="edge">
<title>177&#45;&gt;0</title>
<path fill="none" stroke="green" stroke-width="0.13" d="M418,-64.79C418,-56.89 418,-47.75 418,-39.5"/>
<polygon fill="green" stroke="green" stroke-width="0.13" points="421.5,-39.56 418,-29.56 414.5,-39.56 421.5,-39.56"/>
</g>
<!-- 177&#45;&gt;3 -->
<g id="edge23" class="edge">
<title>177&#45;&gt;3</title>
<path fill="none" stroke="green" stroke-width="0.19" d="M429.38,-68.06C436.02,-58.26 444.44,-45.84 451.42,-35.53"/>
<polygon fill="green" stroke="green" stroke-width="0.19" points="454.24,-37.61 456.95,-27.37 448.45,-33.69 454.24,-37.61"/>
</g>
<!-- 178&#45;&gt;2 -->
<g id="edge16" class="edge">
<title>178&#45;&gt;2</title>
<path fill="none" stroke="green" stroke-width="0.15" d="M254,-64.79C254,-56.89 254,-47.75 254,-39.5"/>
<polygon fill="green" stroke="green" stroke-width="0.15" points="257.5,-39.58 254,-29.58 250.5,-39.58 257.5,-39.58"/>
</g>
<!-- 178&#45;&gt;3 -->
<g id="edge35" class="edge">
<title>178&#45;&gt;3</title>
<path fill="none" stroke="green" stroke-width="0.25" stroke-dasharray="1,5" d="M274.44,-80.32C309.39,-72.24 382.52,-53.81 441,-28.99 442.01,-28.56 443.04,-28.1 444.06,-27.62"/>
<polygon fill="green" stroke="green" stroke-width="0.25" points="445.48,-30.82 452.71,-23.08 442.23,-24.62 445.48,-30.82"/>
</g>
<!-- 179&#45;&gt;1 -->
<g id="edge36" class="edge">
<title>179&#45;&gt;1</title>
<path fill="none" stroke="green" stroke-width="0.55" d="M576.68,-69.46C567.64,-59 555.63,-45.12 546.06,-34.05"/>
<polygon fill="green" stroke="green" stroke-width="0.55" points="548.73,-31.8 539.54,-26.53 543.44,-36.38 548.73,-31.8"/>
</g>
<!-- 179&#45;&gt;3 -->
<g id="edge26" class="edge">
<title>179&#45;&gt;3</title>
<path fill="none" stroke="green" stroke-width="0.45" d="M573.06,-73.19C568.85,-70.42 564.3,-67.53 560,-64.99 535.69,-50.66 506.82,-35.93 487.34,-26.31"/>
<polygon fill="green" stroke="green" stroke-width="0.45" points="488.96,-23.2 478.44,-21.95 485.88,-29.49 488.96,-23.2"/>
</g>
<!-- 179&#45;&gt;4 -->
<g id="edge39" class="edge">
<title>179&#45;&gt;4</title>
<path fill="none" stroke="red" stroke-width="0.14" d="M591.45,-64.79C592.02,-56.89 592.67,-47.75 593.27,-39.5"/>
<polygon fill="red" stroke="red" stroke-width="0.14" points="596.76,-39.8 593.99,-29.57 589.78,-39.29 596.76,-39.8"/>
</g>
<!-- 180&#45;&gt;1 -->
<g id="edge6" class="edge">
<title>180&#45;&gt;1</title>
<path fill="none" stroke="red" stroke-width="0.22" d="M530,-64.79C530,-56.89 530,-47.75 530,-39.5"/>
<polygon fill="red" stroke="red" stroke-width="0.22" points="533.5,-39.69 530,-29.69 526.5,-39.69 533.5,-39.69"/>
</g>
<!-- 180&#45;&gt;3 -->
<g id="edge19" class="edge">
<title>180&#45;&gt;3</title>
<path fill="none" stroke="green" stroke-width="0.19" d="M516.22,-70.14C506.04,-59.29 492.16,-44.47 481.41,-33.01"/>
<polygon fill="green" stroke="green" stroke-width="0.19" points="484.14,-30.8 474.75,-25.9 479.03,-35.59 484.14,-30.8"/>
</g>
<!-- 180&#45;&gt;4 -->
<g id="edge41" class="edge">
<title>180&#45;&gt;4</title>
<path fill="none" stroke="green" stroke-width="0.12" stroke-dasharray="1,5" d="M543.78,-70.14C553.96,-59.29 567.84,-44.47 578.59,-33.01"/>
<polygon fill="green" stroke="green" stroke-width="0.12" points="581.03,-35.52 585.32,-25.83 575.92,-30.73 581.03,-35.52"/>
</g>
</g>
</svg>
