<?xml version="1.0" encoding="UTF-8" standalone="no"?>
<!DOCTYPE svg PUBLIC "-//W3C//DTD SVG 1.1//EN"
 "http://www.w3.org/Graphics/SVG/1.1/DTD/svg11.dtd">
<!-- Generated by graphviz version 12.1.1 (20240910.0053)
 -->
<!-- Pages: 1 -->
<svg width="838pt" height="387pt"
 viewBox="0.00 0.00 837.75 387.40" xmlns="http://www.w3.org/2000/svg" xmlns:xlink="http://www.w3.org/1999/xlink">
<g id="graph0" class="graph" transform="scale(1 1) rotate(0) translate(4 383.4)">
<polygon fill="white" stroke="none" points="-4,4 -4,-383.4 833.75,-383.4 833.75,4 -4,4"/>
<!-- &#45;1 -->
<g id="node1" class="node">
<title>&#45;1</title>
<polygon fill="lightgray" stroke="black" points="169.5,-374.16 146,-374.16 146,-355.66 169.5,-355.66 169.5,-374.16"/>
<text text-anchor="middle" x="157.75" y="-361.61" font-family="Times,serif" font-size="9.00">&#45;1</text>
</g>
<!-- &#45;2 -->
<g id="node2" class="node">
<title>&#45;2</title>
<polygon fill="lightgray" stroke="black" points="65.5,-302.8 42,-302.8 42,-284.3 65.5,-284.3 65.5,-302.8"/>
<text text-anchor="middle" x="53.75" y="-290.25" font-family="Times,serif" font-size="9.00">&#45;2</text>
</g>
<!-- 38 -->
<g id="node27" class="node">
<title>38</title>
<ellipse fill="white" stroke="black" cx="235.75" cy="-219.02" rx="17.68" ry="17.68"/>
<text text-anchor="middle" x="235.75" y="-215.72" font-family="Times,serif" font-size="9.00">38</text>
</g>
<!-- &#45;2&#45;&gt;38 -->
<g id="edge42" class="edge">
<title>&#45;2&#45;&gt;38</title>
<path fill="none" stroke="green" stroke-width="0.46" stroke-dasharray="1,5" d="M61.23,-283.9C64.97,-280.03 69.75,-275.67 74.75,-272.69 117.66,-247.15 174.48,-232.32 207.88,-225.22"/>
<polygon fill="green" stroke="green" stroke-width="0.46" points="208.48,-228.67 217.58,-223.25 207.08,-221.81 208.48,-228.67"/>
</g>
<!-- 39 -->
<g id="node28" class="node">
<title>39</title>
<ellipse fill="white" stroke="black" cx="235.75" cy="-82.67" rx="17.68" ry="17.68"/>
<text text-anchor="middle" x="235.75" y="-79.37" font-family="Times,serif" font-size="9.00">39</text>
</g>
<!-- &#45;2&#45;&gt;39 -->
<g id="edge34" class="edge">
<title>&#45;2&#45;&gt;39</title>
<path fill="none" stroke="red" stroke-width="0.3" d="M57.13,-284.16C67.55,-259.1 101.35,-183.66 148.75,-136.35 166.55,-118.58 191.47,-104.28 210.08,-95.09"/>
<polygon fill="red" stroke="red" stroke-width="0.3" points="211.49,-98.29 219.01,-90.83 208.47,-91.97 211.49,-98.29"/>
</g>
<!-- 40 -->
<g id="node29" class="node">
<title>40</title>
<ellipse fill="white" stroke="black" cx="369.75" cy="-219.02" rx="17.68" ry="17.68"/>
<text text-anchor="middle" x="369.75" y="-215.72" font-family="Times,serif" font-size="9.00">40</text>
</g>
<!-- &#45;2&#45;&gt;40 -->
<g id="edge37" class="edge">
<title>&#45;2&#45;&gt;40</title>
<path fill="none" stroke="red" stroke-width="0.14" d="M60.68,-283.99C64.42,-279.94 69.37,-275.4 74.75,-272.69 86.73,-266.65 271.16,-236.11 342.17,-224.5"/>
<polygon fill="red" stroke="red" stroke-width="0.14" points="342.65,-227.97 351.96,-222.9 341.53,-221.06 342.65,-227.97"/>
</g>
<!-- &#45;3 -->
<g id="node3" class="node">
<title>&#45;3</title>
<polygon fill="lightgray" stroke="black" points="607.5,-302.8 584,-302.8 584,-284.3 607.5,-284.3 607.5,-302.8"/>
<text text-anchor="middle" x="595.75" y="-290.25" font-family="Times,serif" font-size="9.00">&#45;3</text>
</g>
<!-- 37 -->
<g id="node26" class="node">
<title>37</title>
<ellipse fill="white" stroke="black" cx="639.75" cy="-219.02" rx="17.68" ry="17.68"/>
<text text-anchor="middle" x="639.75" y="-215.72" font-family="Times,serif" font-size="9.00">37</text>
</g>
<!-- &#45;3&#45;&gt;37 -->
<g id="edge30" class="edge">
<title>&#45;3&#45;&gt;37</title>
<path fill="none" stroke="green" stroke-width="0.2" stroke-dasharray="1,5" d="M600.97,-283.95C607.02,-273.97 617.24,-257.13 625.67,-243.23"/>
<polygon fill="green" stroke="green" stroke-width="0.2" points="628.54,-245.25 630.73,-234.88 622.55,-241.62 628.54,-245.25"/>
</g>
<!-- &#45;3&#45;&gt;40 -->
<g id="edge22" class="edge">
<title>&#45;3&#45;&gt;40</title>
<path fill="none" stroke="red" stroke-width="0.21" d="M588.73,-284.16C584.97,-280.15 580.02,-275.6 574.75,-272.69 516.72,-240.65 438.69,-227.61 397.65,-222.7"/>
<polygon fill="red" stroke="red" stroke-width="0.21" points="398.23,-219.25 387.9,-221.61 397.45,-226.2 398.23,-219.25"/>
</g>
<!-- &#45;4 -->
<g id="node4" class="node">
<title>&#45;4</title>
<polygon fill="lightgray" stroke="black" points="23.5,-302.8 0,-302.8 0,-284.3 23.5,-284.3 23.5,-302.8"/>
<text text-anchor="middle" x="11.75" y="-290.25" font-family="Times,serif" font-size="9.00">&#45;4</text>
</g>
<!-- 4 -->
<g id="node25" class="node">
<title>4</title>
<ellipse fill="lightblue" stroke="black" cx="235.75" cy="-14.5" rx="14.5" ry="14.5"/>
<text text-anchor="middle" x="235.75" y="-11.2" font-family="Times,serif" font-size="9.00">4</text>
</g>
<!-- &#45;4&#45;&gt;4 -->
<g id="edge46" class="edge">
<title>&#45;4&#45;&gt;4</title>
<path fill="none" stroke="red" stroke-width="0.62" d="M17.74,-283.99C29.05,-267.83 54.35,-231.7 75.75,-201.34 96.14,-172.41 99.33,-163.73 121.75,-136.35 153.48,-97.59 194.63,-55.8 217.81,-32.93"/>
<polygon fill="red" stroke="red" stroke-width="0.62" points="220.13,-35.56 224.81,-26.06 215.22,-30.56 220.13,-35.56"/>
</g>
<!-- &#45;4&#45;&gt;38 -->
<g id="edge33" class="edge">
<title>&#45;4&#45;&gt;38</title>
<path fill="none" stroke="red" stroke-width="0.21" d="M18.77,-284.16C22.54,-280.16 27.48,-275.61 32.75,-272.69 90.06,-240.96 167.09,-227.81 207.81,-222.8"/>
<polygon fill="red" stroke="red" stroke-width="0.21" points="207.96,-226.31 217.49,-221.68 207.15,-219.35 207.96,-226.31"/>
</g>
<!-- &#45;5 -->
<g id="node5" class="node">
<title>&#45;5</title>
<polygon fill="lightgray" stroke="black" points="381.5,-302.8 358,-302.8 358,-284.3 381.5,-284.3 381.5,-302.8"/>
<text text-anchor="middle" x="369.75" y="-290.25" font-family="Times,serif" font-size="9.00">&#45;5</text>
</g>
<!-- &#45;5&#45;&gt;38 -->
<g id="edge5" class="edge">
<title>&#45;5&#45;&gt;38</title>
<path fill="none" stroke="red" stroke-width="0.22" d="M362.1,-284.17C358.33,-280.35 353.56,-275.97 348.75,-272.69 321.02,-253.85 285.49,-238.53 261.74,-229.36"/>
<polygon fill="red" stroke="red" stroke-width="0.22" points="263.24,-226.19 252.64,-225.93 260.77,-232.74 263.24,-226.19"/>
</g>
<!-- &#45;5&#45;&gt;40 -->
<g id="edge28" class="edge">
<title>&#45;5&#45;&gt;40</title>
<path fill="none" stroke="red" stroke-width="0.19" d="M369.75,-283.95C369.75,-274.89 369.75,-260.15 369.75,-247.11"/>
<polygon fill="red" stroke="red" stroke-width="0.19" points="373.25,-247.44 369.75,-237.44 366.25,-247.44 373.25,-247.44"/>
</g>
<!-- &#45;6 -->
<g id="node6" class="node">
<title>&#45;6</title>
<polygon fill="lightgray" stroke="black" points="149.5,-302.8 126,-302.8 126,-284.3 149.5,-284.3 149.5,-302.8"/>
<text text-anchor="middle" x="137.75" y="-290.25" font-family="Times,serif" font-size="9.00">&#45;6</text>
</g>
<!-- &#45;6&#45;&gt;39 -->
<g id="edge15" class="edge">
<title>&#45;6&#45;&gt;39</title>
<path fill="none" stroke="green" stroke-width="0.21" stroke-dasharray="1,5" d="M137.2,-284.01C136.01,-259.17 135.43,-185.63 165.75,-136.35 176.61,-118.7 195.74,-104.91 211.26,-95.88"/>
<polygon fill="green" stroke="green" stroke-width="0.21" points="212.55,-99.16 219.61,-91.27 209.17,-93.03 212.55,-99.16"/>
</g>
<!-- &#45;6&#45;&gt;40 -->
<g id="edge32" class="edge">
<title>&#45;6&#45;&gt;40</title>
<path fill="none" stroke="green" stroke-width="0.35" stroke-dasharray="1,5" d="M149.92,-288.34C161.83,-284.25 180.49,-277.9 196.75,-272.69 248.28,-256.18 308.84,-238.03 342.91,-227.92"/>
<polygon fill="green" stroke="green" stroke-width="0.35" points="343.9,-231.28 352.5,-225.09 341.92,-224.57 343.9,-231.28"/>
</g>
<!-- &#45;7 -->
<g id="node7" class="node">
<title>&#45;7</title>
<polygon fill="lightgray" stroke="black" points="783.5,-302.8 760,-302.8 760,-284.3 783.5,-284.3 783.5,-302.8"/>
<text text-anchor="middle" x="771.75" y="-290.25" font-family="Times,serif" font-size="9.00">&#45;7</text>
</g>
<!-- &#45;7&#45;&gt;37 -->
<g id="edge19" class="edge">
<title>&#45;7&#45;&gt;37</title>
<path fill="none" stroke="red" stroke-width="0.23" d="M764.09,-284.18C760.32,-280.37 755.55,-275.98 750.75,-272.69 723.76,-254.22 689.29,-238.98 665.98,-229.73"/>
<polygon fill="red" stroke="red" stroke-width="0.23" points="667.34,-226.5 656.75,-226.15 664.81,-233.03 667.34,-226.5"/>
</g>
<!-- &#45;8 -->
<g id="node8" class="node">
<title>&#45;8</title>
<polygon fill="lightgray" stroke="black" points="107.5,-302.8 84,-302.8 84,-284.3 107.5,-284.3 107.5,-302.8"/>
<text text-anchor="middle" x="95.75" y="-290.25" font-family="Times,serif" font-size="9.00">&#45;8</text>
</g>
<!-- &#45;8&#45;&gt;38 -->
<g id="edge31" class="edge">
<title>&#45;8&#45;&gt;38</title>
<path fill="none" stroke="green" stroke-width="0.3" d="M103.37,-284.12C107.14,-280.3 111.9,-275.92 116.75,-272.69 146.21,-253.09 184.17,-237.76 209.19,-228.8"/>
<polygon fill="green" stroke="green" stroke-width="0.3" points="210.34,-232.11 218.63,-225.52 208.04,-225.5 210.34,-232.11"/>
</g>
<!-- &#45;9 -->
<g id="node9" class="node">
<title>&#45;9</title>
<polygon fill="lightgray" stroke="black" points="695.5,-302.8 672,-302.8 672,-284.3 695.5,-284.3 695.5,-302.8"/>
<text text-anchor="middle" x="683.75" y="-290.25" font-family="Times,serif" font-size="9.00">&#45;9</text>
</g>
<!-- &#45;9&#45;&gt;37 -->
<g id="edge4" class="edge">
<title>&#45;9&#45;&gt;37</title>
<path fill="none" stroke="red" stroke-width="0.14" d="M678.53,-283.95C672.48,-273.97 662.26,-257.13 653.83,-243.23"/>
<polygon fill="red" stroke="red" stroke-width="0.14" points="656.9,-241.55 648.73,-234.81 650.92,-245.18 656.9,-241.55"/>
</g>
<!-- &#45;10 -->
<g id="node10" class="node">
<title>&#45;10</title>
<polygon fill="lightgray" stroke="black" points="427.75,-302.8 399.75,-302.8 399.75,-284.3 427.75,-284.3 427.75,-302.8"/>
<text text-anchor="middle" x="413.75" y="-290.25" font-family="Times,serif" font-size="9.00">&#45;10</text>
</g>
<!-- &#45;10&#45;&gt;37 -->
<g id="edge16" class="edge">
<title>&#45;10&#45;&gt;37</title>
<path fill="none" stroke="red" stroke-width="0.23" d="M421.58,-284.18C425.74,-280.18 431.14,-275.63 436.75,-272.69 494.64,-242.33 571.18,-228.64 611.73,-223.18"/>
<polygon fill="red" stroke="red" stroke-width="0.23" points="612.12,-226.66 621.59,-221.92 611.23,-219.72 612.12,-226.66"/>
</g>
<!-- &#45;10&#45;&gt;38 -->
<g id="edge36" class="edge">
<title>&#45;10&#45;&gt;38</title>
<path fill="none" stroke="green" stroke-width="0.3" d="M405.4,-283.96C401.28,-280.1 396.06,-275.73 390.75,-272.69 349.09,-248.84 294.93,-233.53 262.9,-225.88"/>
<polygon fill="green" stroke="green" stroke-width="0.3" points="263.91,-222.52 253.38,-223.68 262.33,-229.34 263.91,-222.52"/>
</g>
<!-- &#45;10&#45;&gt;40 -->
<g id="edge38" class="edge">
<title>&#45;10&#45;&gt;40</title>
<path fill="none" stroke="red" stroke-width="0.26" stroke-dasharray="1,5" d="M408.53,-283.95C402.48,-273.97 392.26,-257.13 383.83,-243.23"/>
<polygon fill="red" stroke="red" stroke-width="0.26" points="387,-241.7 378.82,-234.96 381.01,-245.33 387,-241.7"/>
</g>
<!-- &#45;11 -->
<g id="node11" class="node">
<title>&#45;11</title>
<polygon fill="lightgray" stroke="black" points="653.75,-302.8 625.75,-302.8 625.75,-284.3 653.75,-284.3 653.75,-302.8"/>
<text text-anchor="middle" x="639.75" y="-290.25" font-family="Times,serif" font-size="9.00">&#45;11</text>
</g>
<!-- &#45;11&#45;&gt;37 -->
<g id="edge8" class="edge">
<title>&#45;11&#45;&gt;37</title>
<path fill="none" stroke="red" stroke-width="0.27" d="M639.75,-283.95C639.75,-274.98 639.75,-260.44 639.75,-247.5"/>
<polygon fill="red" stroke="red" stroke-width="0.27" points="643.25,-247.57 639.75,-237.57 636.25,-247.57 643.25,-247.57"/>
</g>
<!-- &#45;11&#45;&gt;40 -->
<g id="edge13" class="edge">
<title>&#45;11&#45;&gt;40</title>
<path fill="none" stroke="green" stroke-width="0.15" d="M631.97,-284.08C627.83,-280.05 622.42,-275.51 616.75,-272.69 543.35,-236.22 445.44,-224.92 397.95,-221.48"/>
<polygon fill="green" stroke="green" stroke-width="0.15" points="398.24,-218 388.03,-220.83 397.78,-224.98 398.24,-218"/>
</g>
<!-- &#45;12 -->
<g id="node12" class="node">
<title>&#45;12</title>
<polygon fill="lightgray" stroke="black" points="829.75,-302.8 801.75,-302.8 801.75,-284.3 829.75,-284.3 829.75,-302.8"/>
<text text-anchor="middle" x="815.75" y="-290.25" font-family="Times,serif" font-size="9.00">&#45;12</text>
</g>
<!-- &#45;12&#45;&gt;37 -->
<g id="edge23" class="edge">
<title>&#45;12&#45;&gt;37</title>
<path fill="none" stroke="red" stroke-width="0.12" d="M807.4,-283.97C803.27,-280.11 798.05,-275.74 792.75,-272.69 751.84,-249.16 698.73,-233.83 667.05,-226.07"/>
<polygon fill="red" stroke="red" stroke-width="0.12" points="667.89,-222.67 657.35,-223.77 666.27,-229.48 667.89,-222.67"/>
</g>
<!-- &#45;12&#45;&gt;39 -->
<g id="edge14" class="edge">
<title>&#45;12&#45;&gt;39</title>
<path fill="none" stroke="green" stroke-width="0.21" stroke-dasharray="1,5" d="M811.31,-283.84C796.86,-256.51 748.19,-172.14 680.75,-136.35 607.84,-97.65 350.05,-86.91 263.97,-84.37"/>
<polygon fill="green" stroke="green" stroke-width="0.21" points="264.08,-80.87 253.98,-84.09 263.88,-87.87 264.08,-80.87"/>
</g>
<!-- &#45;13 -->
<g id="node13" class="node">
<title>&#45;13</title>
<polygon fill="lightgray" stroke="black" points="293.75,-302.8 265.75,-302.8 265.75,-284.3 293.75,-284.3 293.75,-302.8"/>
<text text-anchor="middle" x="279.75" y="-290.25" font-family="Times,serif" font-size="9.00">&#45;13</text>
</g>
<!-- &#45;13&#45;&gt;38 -->
<g id="edge39" class="edge">
<title>&#45;13&#45;&gt;38</title>
<path fill="none" stroke="green" stroke-width="0.3" d="M274.53,-283.95C268.48,-273.97 258.26,-257.13 249.83,-243.23"/>
<polygon fill="green" stroke="green" stroke-width="0.3" points="253.02,-241.75 244.85,-235.01 247.04,-245.38 253.02,-241.75"/>
</g>
<!-- &#45;13&#45;&gt;40 -->
<g id="edge7" class="edge">
<title>&#45;13&#45;&gt;40</title>
<path fill="none" stroke="green" stroke-width="0.25" d="M289.51,-283.95C293.57,-280.42 298.35,-276.32 302.75,-272.69 317.64,-260.42 334.75,-246.98 347.95,-236.75"/>
<polygon fill="green" stroke="green" stroke-width="0.25" points="349.93,-239.65 355.7,-230.76 345.65,-234.11 349.93,-239.65"/>
</g>
<!-- &#45;14 -->
<g id="node14" class="node">
<title>&#45;14</title>
<polygon fill="lightgray" stroke="black" points="313.75,-160.09 285.75,-160.09 285.75,-141.59 313.75,-141.59 313.75,-160.09"/>
<text text-anchor="middle" x="299.75" y="-147.54" font-family="Times,serif" font-size="9.00">&#45;14</text>
</g>
<!-- &#45;14&#45;&gt;39 -->
<g id="edge9" class="edge">
<title>&#45;14&#45;&gt;39</title>
<path fill="none" stroke="red" stroke-width="0.37" d="M291.38,-141.19C282.18,-131.68 267.08,-116.07 254.94,-103.51"/>
<polygon fill="red" stroke="red" stroke-width="0.37" points="257.69,-101.32 248.22,-96.57 252.66,-106.19 257.69,-101.32"/>
</g>
<!-- &#45;15 -->
<g id="node15" class="node">
<title>&#45;15</title>
<polygon fill="lightgray" stroke="black" points="473.75,-302.8 445.75,-302.8 445.75,-284.3 473.75,-284.3 473.75,-302.8"/>
<text text-anchor="middle" x="459.75" y="-290.25" font-family="Times,serif" font-size="9.00">&#45;15</text>
</g>
<!-- &#45;15&#45;&gt;40 -->
<g id="edge29" class="edge">
<title>&#45;15&#45;&gt;40</title>
<path fill="none" stroke="green" stroke-width="0.11" d="M449.99,-283.95C445.93,-280.42 441.15,-276.32 436.75,-272.69 421.86,-260.42 404.75,-246.98 391.55,-236.75"/>
<polygon fill="green" stroke="green" stroke-width="0.11" points="393.69,-233.98 383.63,-230.63 389.41,-239.52 393.69,-233.98"/>
</g>
<!-- &#45;16 -->
<g id="node16" class="node">
<title>&#45;16</title>
<polygon fill="lightgray" stroke="black" points="339.75,-302.8 311.75,-302.8 311.75,-284.3 339.75,-284.3 339.75,-302.8"/>
<text text-anchor="middle" x="325.75" y="-290.25" font-family="Times,serif" font-size="9.00">&#45;16</text>
</g>
<!-- &#45;16&#45;&gt;38 -->
<g id="edge17" class="edge">
<title>&#45;16&#45;&gt;38</title>
<path fill="none" stroke="green" stroke-width="0.3" d="M315.99,-283.95C311.93,-280.42 307.15,-276.32 302.75,-272.69 287.86,-260.42 270.75,-246.98 257.55,-236.75"/>
<polygon fill="green" stroke="green" stroke-width="0.3" points="259.91,-234.15 249.86,-230.81 255.63,-239.69 259.91,-234.15"/>
</g>
<!-- &#45;16&#45;&gt;40 -->
<g id="edge41" class="edge">
<title>&#45;16&#45;&gt;40</title>
<path fill="none" stroke="red" stroke-width="0.61" stroke-dasharray="1,5" d="M330.97,-283.95C336.96,-274.07 347.04,-257.45 355.43,-243.63"/>
<polygon fill="red" stroke="red" stroke-width="0.61" points="358.22,-245.78 360.41,-235.41 352.23,-242.14 358.22,-245.78"/>
</g>
<!-- &#45;17 -->
<g id="node17" class="node">
<title>&#45;17</title>
<polygon fill="lightgray" stroke="black" points="215.75,-374.16 187.75,-374.16 187.75,-355.66 215.75,-355.66 215.75,-374.16"/>
<text text-anchor="middle" x="201.75" y="-361.61" font-family="Times,serif" font-size="9.00">&#45;17</text>
</g>
<!-- &#45;17&#45;&gt;38 -->
<g id="edge3" class="edge">
<title>&#45;17&#45;&gt;38</title>
<path fill="none" stroke="red" stroke-width="0.41" stroke-dasharray="1,5" d="M199.32,-355.59C194.95,-339.23 187.11,-301.91 196.75,-272.69 200.73,-260.61 208.68,-249.04 216.36,-239.83"/>
<polygon fill="red" stroke="red" stroke-width="0.41" points="218.79,-242.36 222.81,-232.56 213.56,-237.72 218.79,-242.36"/>
</g>
<!-- 267 -->
<g id="node30" class="node">
<title>267</title>
<ellipse fill="white" stroke="black" cx="226.75" cy="-293.55" rx="20.86" ry="20.86"/>
<text text-anchor="middle" x="226.75" y="-290.25" font-family="Times,serif" font-size="9.00">267</text>
</g>
<!-- &#45;17&#45;&gt;267 -->
<g id="edge44" class="edge">
<title>&#45;17&#45;&gt;267</title>
<path fill="none" stroke="green" stroke-width="0.34" d="M204.82,-355.4C207.7,-347.4 212.19,-334.96 216.35,-323.4"/>
<polygon fill="green" stroke="green" stroke-width="0.34" points="219.61,-324.69 219.7,-314.1 213.02,-322.32 219.61,-324.69"/>
</g>
<!-- &#45;18 -->
<g id="node18" class="node">
<title>&#45;18</title>
<polygon fill="lightgray" stroke="black" points="519.75,-302.8 491.75,-302.8 491.75,-284.3 519.75,-284.3 519.75,-302.8"/>
<text text-anchor="middle" x="505.75" y="-290.25" font-family="Times,serif" font-size="9.00">&#45;18</text>
</g>
<!-- &#45;18&#45;&gt;37 -->
<g id="edge24" class="edge">
<title>&#45;18&#45;&gt;37</title>
<path fill="none" stroke="green" stroke-width="0.43" stroke-dasharray="1,5" d="M514.7,-283.83C518.78,-280.12 523.8,-275.92 528.75,-272.69 556.02,-254.92 590.23,-239.61 613.41,-230.15"/>
<polygon fill="green" stroke="green" stroke-width="0.43" points="614.64,-233.43 622.62,-226.47 612.04,-226.93 614.64,-233.43"/>
</g>
<!-- &#45;18&#45;&gt;38 -->
<g id="edge40" class="edge">
<title>&#45;18&#45;&gt;38</title>
<path fill="none" stroke="green" stroke-width="0.53" d="M497.97,-284.08C493.83,-280.05 488.42,-275.51 482.75,-272.69 444.36,-253.62 320.52,-232.95 264.16,-224.25"/>
<polygon fill="green" stroke="green" stroke-width="0.53" points="264.73,-220.8 254.31,-222.75 263.67,-227.72 264.73,-220.8"/>
</g>
<!-- &#45;18&#45;&gt;40 -->
<g id="edge35" class="edge">
<title>&#45;18&#45;&gt;40</title>
<path fill="none" stroke="red" stroke-width="0.19" stroke-dasharray="1,5" d="M496.81,-283.82C492.73,-280.11 487.71,-275.9 482.75,-272.69 454.6,-254.48 419.16,-239.03 395.54,-229.66"/>
<polygon fill="red" stroke="red" stroke-width="0.19" points="397.06,-226.49 386.47,-226.13 394.52,-233.02 397.06,-226.49"/>
</g>
<!-- &#45;19 -->
<g id="node19" class="node">
<title>&#45;19</title>
<polygon fill="lightgray" stroke="black" points="565.75,-302.8 537.75,-302.8 537.75,-284.3 565.75,-284.3 565.75,-302.8"/>
<text text-anchor="middle" x="551.75" y="-290.25" font-family="Times,serif" font-size="9.00">&#45;19</text>
</g>
<!-- &#45;19&#45;&gt;37 -->
<g id="edge6" class="edge">
<title>&#45;19&#45;&gt;37</title>
<path fill="none" stroke="green" stroke-width="0.3" stroke-dasharray="1,5" d="M561.54,-283.98C565.6,-280.46 570.38,-276.35 574.75,-272.69 589.05,-260.73 605.36,-247.52 618.06,-237.32"/>
<polygon fill="green" stroke="green" stroke-width="0.3" points="620.24,-240.05 625.85,-231.07 615.86,-234.59 620.24,-240.05"/>
</g>
<!-- &#45;19&#45;&gt;38 -->
<g id="edge21" class="edge">
<title>&#45;19&#45;&gt;38</title>
<path fill="none" stroke="green" stroke-width="0.2" d="M544.01,-284C539.87,-279.95 534.46,-275.42 528.75,-272.69 516.71,-266.95 333.62,-236.23 263.12,-224.53"/>
<polygon fill="green" stroke="green" stroke-width="0.2" points="263.93,-221.12 253.5,-222.94 262.79,-228.03 263.93,-221.12"/>
</g>
<!-- &#45;20 -->
<g id="node20" class="node">
<title>&#45;20</title>
<polygon fill="lightgray" stroke="black" points="741.75,-302.8 713.75,-302.8 713.75,-284.3 741.75,-284.3 741.75,-302.8"/>
<text text-anchor="middle" x="727.75" y="-290.25" font-family="Times,serif" font-size="9.00">&#45;20</text>
</g>
<!-- &#45;20&#45;&gt;37 -->
<g id="edge18" class="edge">
<title>&#45;20&#45;&gt;37</title>
<path fill="none" stroke="green" stroke-width="0.2" stroke-dasharray="1,5" d="M717.96,-283.98C713.9,-280.46 709.12,-276.35 704.75,-272.69 690.31,-260.61 673.83,-247.26 661.08,-237.02"/>
<polygon fill="green" stroke="green" stroke-width="0.2" points="663.53,-234.5 653.54,-230.98 659.15,-239.97 663.53,-234.5"/>
</g>
<!-- 0 -->
<g id="node21" class="node">
<title>0</title>
<ellipse fill="lightblue" stroke="black" cx="247.75" cy="-364.91" rx="14.5" ry="14.5"/>
<text text-anchor="middle" x="247.75" y="-361.61" font-family="Times,serif" font-size="9.00">0</text>
</g>
<!-- 0&#45;&gt;0 -->
<g id="edge10" class="edge">
<title>0&#45;&gt;0</title>
<path fill="none" stroke="red" stroke-width="0.17" d="M258.07,-375.35C268.56,-381.49 280.25,-378.01 280.25,-364.91 280.25,-355.9 274.72,-351.44 267.86,-351.53"/>
<polygon fill="red" stroke="red" stroke-width="0.17" points="266.88,-348.17 258.31,-354.4 268.89,-354.88 266.88,-348.17"/>
</g>
<!-- 1 -->
<g id="node22" class="node">
<title>1</title>
<ellipse fill="lightblue" stroke="black" cx="639.75" cy="-150.84" rx="14.5" ry="14.5"/>
<text text-anchor="middle" x="639.75" y="-147.54" font-family="Times,serif" font-size="9.00">1</text>
</g>
<!-- 1&#45;&gt;1 -->
<g id="edge2" class="edge">
<title>1&#45;&gt;1</title>
<path fill="none" stroke="green" stroke-width="0.68" d="M650.4,-161C660.81,-166.61 672.25,-163.23 672.25,-150.84 672.25,-142.72 667.32,-138.46 660.99,-138.09"/>
<polygon fill="green" stroke="green" stroke-width="0.68" points="660.28,-134.66 651.4,-140.44 661.95,-141.46 660.28,-134.66"/>
</g>
<!-- 2 -->
<g id="node23" class="node">
<title>2</title>
<ellipse fill="lightblue" stroke="black" cx="235.75" cy="-150.84" rx="14.5" ry="14.5"/>
<text text-anchor="middle" x="235.75" y="-147.54" font-family="Times,serif" font-size="9.00">2</text>
</g>
<!-- 2&#45;&gt;2 -->
<g id="edge20" class="edge">
<title>2&#45;&gt;2</title>
<path fill="none" stroke="green" stroke-width="0.23" stroke-dasharray="1,5" d="M246.4,-161C256.81,-166.61 268.25,-163.23 268.25,-150.84 268.25,-142.33 262.84,-138.07 256.08,-138.06"/>
<polygon fill="green" stroke="green" stroke-width="0.23" points="255.47,-134.6 246.73,-140.59 257.3,-141.35 255.47,-134.6"/>
</g>
<!-- 2&#45;&gt;39 -->
<g id="edge43" class="edge">
<title>2&#45;&gt;39</title>
<path fill="none" stroke="green" stroke-width="0.23" d="M235.75,-136.13C235.75,-128.81 235.75,-119.54 235.75,-110.83"/>
<polygon fill="green" stroke="green" stroke-width="0.23" points="239.25,-111.01 235.75,-101.01 232.25,-111.01 239.25,-111.01"/>
</g>
<!-- 3 -->
<g id="node24" class="node">
<title>3</title>
<ellipse fill="lightblue" stroke="black" cx="188.75" cy="-150.84" rx="14.5" ry="14.5"/>
<text text-anchor="middle" x="188.75" y="-147.54" font-family="Times,serif" font-size="9.00">3</text>
</g>
<!-- 4&#45;&gt;4 -->
<g id="edge12" class="edge">
<title>4&#45;&gt;4</title>
<path fill="none" stroke="red" stroke-width="0.3" d="M246.4,-24.65C256.81,-30.26 268.25,-26.88 268.25,-14.5 268.25,-5.98 262.84,-1.72 256.08,-1.71"/>
<polygon fill="red" stroke="red" stroke-width="0.3" points="255.57,1.78 246.84,-4.22 257.41,-4.98 255.57,1.78"/>
</g>
<!-- 37&#45;&gt;1 -->
<g id="edge25" class="edge">
<title>37&#45;&gt;1</title>
<path fill="none" stroke="green" stroke-width="0.67" d="M639.75,-200.97C639.75,-193.48 639.75,-184.53 639.75,-176.34"/>
<polygon fill="green" stroke="green" stroke-width="0.67" points="643.25,-176.5 639.75,-166.5 636.25,-176.5 643.25,-176.5"/>
</g>
<!-- 38&#45;&gt;2 -->
<g id="edge11" class="edge">
<title>38&#45;&gt;2</title>
<path fill="none" stroke="red" stroke-width="0.2" d="M235.75,-200.97C235.75,-193.31 235.75,-184.12 235.75,-175.78"/>
<polygon fill="red" stroke="red" stroke-width="0.2" points="239.25,-175.79 235.75,-165.79 232.25,-175.79 239.25,-175.79"/>
</g>
<!-- 38&#45;&gt;3 -->
<g id="edge26" class="edge">
<title>38&#45;&gt;3</title>
<path fill="none" stroke="green" stroke-width="0.36" d="M225.78,-203.98C219.11,-194.59 210.24,-182.1 202.85,-171.69"/>
<polygon fill="green" stroke="green" stroke-width="0.36" points="205.79,-169.79 197.15,-163.67 200.09,-173.85 205.79,-169.79"/>
</g>
<!-- 39&#45;&gt;4 -->
<g id="edge1" class="edge">
<title>39&#45;&gt;4</title>
<path fill="none" stroke="red" stroke-width="0.3" d="M235.75,-64.63C235.75,-56.96 235.75,-47.77 235.75,-39.43"/>
<polygon fill="red" stroke="red" stroke-width="0.3" points="239.25,-39.6 235.75,-29.6 232.25,-39.6 239.25,-39.6"/>
</g>
<!-- 40&#45;&gt;4 -->
<g id="edge27" class="edge">
<title>40&#45;&gt;4</title>
<path fill="none" stroke="green" stroke-width="0.34" d="M361.7,-202.99C352.68,-186.4 337.39,-159.03 322.75,-136.35 298.88,-99.36 268.28,-58.12 250.46,-34.64"/>
<polygon fill="green" stroke="green" stroke-width="0.34" points="253.46,-32.8 244.61,-26.97 247.89,-37.04 253.46,-32.8"/>
</g>
<!-- 267&#45;&gt;38 -->
<g id="edge45" class="edge">
<title>267&#45;&gt;38</title>
<path fill="none" stroke="red" stroke-width="0.26" stroke-dasharray="1,5" d="M229.26,-272.35C230.24,-264.45 231.38,-255.27 232.42,-246.84"/>
<polygon fill="red" stroke="red" stroke-width="0.26" points="235.88,-247.43 233.63,-237.07 228.93,-246.56 235.88,-247.43"/>
</g>
</g>
</svg>
