<?xml version="1.0" encoding="UTF-8" standalone="no"?>
<!DOCTYPE svg PUBLIC "-//W3C//DTD SVG 1.1//EN"
 "http://www.w3.org/Graphics/SVG/1.1/DTD/svg11.dtd">
<!-- Generated by graphviz version 12.1.1 (20240910.0053)
 -->
<!-- Pages: 1 -->
<svg width="874pt" height="163pt"
 viewBox="0.00 0.00 873.75 162.85" xmlns="http://www.w3.org/2000/svg" xmlns:xlink="http://www.w3.org/1999/xlink">
<g id="graph0" class="graph" transform="scale(1 1) rotate(0) translate(4 158.85)">
<polygon fill="white" stroke="none" points="-4,4 -4,-158.85 869.75,-158.85 869.75,4 -4,4"/>
<!-- &#45;1 -->
<g id="node1" class="node">
<title>&#45;1</title>
<polygon fill="lightgray" stroke="black" points="195.5,-154.85 172,-154.85 172,-136.35 195.5,-136.35 195.5,-154.85"/>
<text text-anchor="middle" x="183.75" y="-142.3" font-family="Times,serif" font-size="9.00">&#45;1</text>
</g>
<!-- 69 -->
<g id="node26" class="node">
<title>69</title>
<ellipse fill="white" stroke="black" cx="362.75" cy="-82.67" rx="17.68" ry="17.68"/>
<text text-anchor="middle" x="362.75" y="-79.37" font-family="Times,serif" font-size="9.00">69</text>
</g>
<!-- &#45;1&#45;&gt;69 -->
<g id="edge3" class="edge">
<title>&#45;1&#45;&gt;69</title>
<path fill="none" stroke="green" stroke-width="0.16" d="M195.7,-139.78C198.65,-138.62 201.8,-137.42 204.75,-136.35 250.86,-119.62 305.24,-101.93 336.68,-91.9"/>
<polygon fill="green" stroke="green" stroke-width="0.16" points="337.35,-95.36 345.82,-88.99 335.23,-88.69 337.35,-95.36"/>
</g>
<!-- 70 -->
<g id="node27" class="node">
<title>70</title>
<ellipse fill="white" stroke="black" cx="141.75" cy="-82.67" rx="17.68" ry="17.68"/>
<text text-anchor="middle" x="141.75" y="-79.37" font-family="Times,serif" font-size="9.00">70</text>
</g>
<!-- &#45;1&#45;&gt;70 -->
<g id="edge14" class="edge">
<title>&#45;1&#45;&gt;70</title>
<path fill="none" stroke="red" stroke-width="0.15" d="M177.73,-135.87C172.35,-128.05 164.21,-116.26 157.04,-105.85"/>
<polygon fill="red" stroke="red" stroke-width="0.15" points="160.02,-104 151.46,-97.75 154.25,-107.97 160.02,-104"/>
</g>
<!-- &#45;2 -->
<g id="node2" class="node">
<title>&#45;2</title>
<polygon fill="lightgray" stroke="black" points="283.5,-154.85 260,-154.85 260,-136.35 283.5,-136.35 283.5,-154.85"/>
<text text-anchor="middle" x="271.75" y="-142.3" font-family="Times,serif" font-size="9.00">&#45;2</text>
</g>
<!-- &#45;2&#45;&gt;69 -->
<g id="edge16" class="edge">
<title>&#45;2&#45;&gt;69</title>
<path fill="none" stroke="red" stroke-width="0.29" d="M283.65,-136.63C297.89,-127.1 322.06,-110.92 339.94,-98.94"/>
<polygon fill="red" stroke="red" stroke-width="0.29" points="341.42,-102.16 347.78,-93.69 337.52,-96.35 341.42,-102.16"/>
</g>
<!-- 71 -->
<g id="node28" class="node">
<title>71</title>
<ellipse fill="white" stroke="black" cx="250.75" cy="-82.67" rx="17.68" ry="17.68"/>
<text text-anchor="middle" x="250.75" y="-79.37" font-family="Times,serif" font-size="9.00">71</text>
</g>
<!-- &#45;2&#45;&gt;71 -->
<g id="edge7" class="edge">
<title>&#45;2&#45;&gt;71</title>
<path fill="none" stroke="red" stroke-width="0.43" d="M268.74,-135.87C266.4,-129.08 263.02,-119.28 259.83,-110.01"/>
<polygon fill="red" stroke="red" stroke-width="0.43" points="263.14,-108.87 256.57,-100.55 256.52,-111.15 263.14,-108.87"/>
</g>
<!-- &#45;3 -->
<g id="node3" class="node">
<title>&#45;3</title>
<polygon fill="lightgray" stroke="black" points="23.5,-154.85 0,-154.85 0,-136.35 23.5,-136.35 23.5,-154.85"/>
<text text-anchor="middle" x="11.75" y="-142.3" font-family="Times,serif" font-size="9.00">&#45;3</text>
</g>
<!-- &#45;3&#45;&gt;70 -->
<g id="edge39" class="edge">
<title>&#45;3&#45;&gt;70</title>
<path fill="none" stroke="green" stroke-width="0.26" d="M23.75,-138.97C44.78,-129.12 88.71,-108.53 116.63,-95.44"/>
<polygon fill="green" stroke="green" stroke-width="0.26" points="117.85,-98.74 125.42,-91.32 114.88,-92.4 117.85,-98.74"/>
</g>
<!-- &#45;3&#45;&gt;71 -->
<g id="edge24" class="edge">
<title>&#45;3&#45;&gt;71</title>
<path fill="none" stroke="green" stroke-width="0.23" d="M23.64,-139.6C26.59,-138.45 29.76,-137.29 32.75,-136.35 100.21,-115.06 181.72,-97.45 223.36,-89.03"/>
<polygon fill="green" stroke="green" stroke-width="0.23" points="223.83,-92.5 232.95,-87.11 222.45,-85.64 223.83,-92.5"/>
</g>
<!-- &#45;4 -->
<g id="node4" class="node">
<title>&#45;4</title>
<polygon fill="lightgray" stroke="black" points="547.5,-154.85 524,-154.85 524,-136.35 547.5,-136.35 547.5,-154.85"/>
<text text-anchor="middle" x="535.75" y="-142.3" font-family="Times,serif" font-size="9.00">&#45;4</text>
</g>
<!-- &#45;4&#45;&gt;69 -->
<g id="edge20" class="edge">
<title>&#45;4&#45;&gt;69</title>
<path fill="none" stroke="red" stroke-width="0.34" d="M523.79,-139.8C520.84,-138.65 517.69,-137.43 514.75,-136.35 470.93,-120.15 419.48,-102.63 389.08,-92.43"/>
<polygon fill="red" stroke="red" stroke-width="0.34" points="390.33,-89.16 379.73,-89.3 388.11,-95.8 390.33,-89.16"/>
</g>
<!-- 72 -->
<g id="node29" class="node">
<title>72</title>
<ellipse fill="white" stroke="black" cx="514.75" cy="-82.67" rx="17.68" ry="17.68"/>
<text text-anchor="middle" x="514.75" y="-79.37" font-family="Times,serif" font-size="9.00">72</text>
</g>
<!-- &#45;4&#45;&gt;72 -->
<g id="edge18" class="edge">
<title>&#45;4&#45;&gt;72</title>
<path fill="none" stroke="green" stroke-width="0.2" d="M532.74,-135.87C530.35,-128.93 526.88,-118.86 523.62,-109.41"/>
<polygon fill="green" stroke="green" stroke-width="0.2" points="527.03,-108.55 520.46,-100.23 520.41,-110.83 527.03,-108.55"/>
</g>
<!-- &#45;5 -->
<g id="node5" class="node">
<title>&#45;5</title>
<polygon fill="lightgray" stroke="black" points="505.5,-154.85 482,-154.85 482,-136.35 505.5,-136.35 505.5,-154.85"/>
<text text-anchor="middle" x="493.75" y="-142.3" font-family="Times,serif" font-size="9.00">&#45;5</text>
</g>
<!-- &#45;5&#45;&gt;71 -->
<g id="edge26" class="edge">
<title>&#45;5&#45;&gt;71</title>
<path fill="none" stroke="red" stroke-width="0.24" d="M481.86,-139.59C478.91,-138.44 475.74,-137.28 472.75,-136.35 403.9,-114.77 320.64,-97.23 278.33,-88.91"/>
<polygon fill="red" stroke="red" stroke-width="0.24" points="279.08,-85.49 268.6,-87.01 277.75,-92.36 279.08,-85.49"/>
</g>
<!-- &#45;5&#45;&gt;72 -->
<g id="edge37" class="edge">
<title>&#45;5&#45;&gt;72</title>
<path fill="none" stroke="red" stroke-width="0.14" d="M496.76,-135.87C499.15,-128.93 502.62,-118.86 505.88,-109.41"/>
<polygon fill="red" stroke="red" stroke-width="0.14" points="509.12,-110.74 509.07,-100.14 502.5,-108.46 509.12,-110.74"/>
</g>
<!-- &#45;6 -->
<g id="node6" class="node">
<title>&#45;6</title>
<polygon fill="lightgray" stroke="black" points="463.5,-154.85 440,-154.85 440,-136.35 463.5,-136.35 463.5,-154.85"/>
<text text-anchor="middle" x="451.75" y="-142.3" font-family="Times,serif" font-size="9.00">&#45;6</text>
</g>
<!-- &#45;6&#45;&gt;69 -->
<g id="edge38" class="edge">
<title>&#45;6&#45;&gt;69</title>
<path fill="none" stroke="green" stroke-width="0.14" d="M439.75,-136.38C425.93,-126.92 402.92,-111.17 385.64,-99.34"/>
<polygon fill="green" stroke="green" stroke-width="0.14" points="387.62,-96.45 377.39,-93.69 383.67,-102.23 387.62,-96.45"/>
</g>
<!-- &#45;7 -->
<g id="node7" class="node">
<title>&#45;7</title>
<polygon fill="lightgray" stroke="black" points="111.5,-154.85 88,-154.85 88,-136.35 111.5,-136.35 111.5,-154.85"/>
<text text-anchor="middle" x="99.75" y="-142.3" font-family="Times,serif" font-size="9.00">&#45;7</text>
</g>
<!-- &#45;7&#45;&gt;69 -->
<g id="edge8" class="edge">
<title>&#45;7&#45;&gt;69</title>
<path fill="none" stroke="red" stroke-width="0.34" d="M111.63,-139.55C114.58,-138.4 117.75,-137.26 120.75,-136.35 160.88,-124.18 280.36,-99.97 334.96,-89.13"/>
<polygon fill="red" stroke="red" stroke-width="0.34" points="335.64,-92.57 344.77,-87.19 334.28,-85.7 335.64,-92.57"/>
</g>
<!-- &#45;7&#45;&gt;70 -->
<g id="edge23" class="edge">
<title>&#45;7&#45;&gt;70</title>
<path fill="none" stroke="red" stroke-width="0.22" d="M105.77,-135.87C111.15,-128.05 119.29,-116.26 126.46,-105.85"/>
<polygon fill="red" stroke="red" stroke-width="0.22" points="129.19,-108.06 131.98,-97.84 123.42,-104.09 129.19,-108.06"/>
</g>
<!-- &#45;7&#45;&gt;71 -->
<g id="edge40" class="edge">
<title>&#45;7&#45;&gt;71</title>
<path fill="none" stroke="green" stroke-width="0.26" d="M111.85,-139.71C136.33,-129.84 192.2,-107.29 225.14,-94"/>
<polygon fill="green" stroke="green" stroke-width="0.26" points="226.23,-97.34 234.2,-90.35 223.61,-90.84 226.23,-97.34"/>
</g>
<!-- &#45;8 -->
<g id="node8" class="node">
<title>&#45;8</title>
<polygon fill="lightgray" stroke="black" points="153.5,-154.85 130,-154.85 130,-136.35 153.5,-136.35 153.5,-154.85"/>
<text text-anchor="middle" x="141.75" y="-142.3" font-family="Times,serif" font-size="9.00">&#45;8</text>
</g>
<!-- &#45;8&#45;&gt;71 -->
<g id="edge30" class="edge">
<title>&#45;8&#45;&gt;71</title>
<path fill="none" stroke="green" stroke-width="0.36" d="M153.83,-137.84C171.29,-128.08 203.95,-109.83 226.5,-97.22"/>
<polygon fill="green" stroke="green" stroke-width="0.36" points="227.98,-100.41 235,-92.47 224.56,-94.3 227.98,-100.41"/>
</g>
<!-- &#45;9 -->
<g id="node9" class="node">
<title>&#45;9</title>
<polygon fill="lightgray" stroke="black" points="727.5,-154.85 704,-154.85 704,-136.35 727.5,-136.35 727.5,-154.85"/>
<text text-anchor="middle" x="715.75" y="-142.3" font-family="Times,serif" font-size="9.00">&#45;9</text>
</g>
<!-- &#45;10 -->
<g id="node10" class="node">
<title>&#45;10</title>
<polygon fill="lightgray" stroke="black" points="593.75,-154.85 565.75,-154.85 565.75,-136.35 593.75,-136.35 593.75,-154.85"/>
<text text-anchor="middle" x="579.75" y="-142.3" font-family="Times,serif" font-size="9.00">&#45;10</text>
</g>
<!-- &#45;10&#45;&gt;69 -->
<g id="edge10" class="edge">
<title>&#45;10&#45;&gt;69</title>
<path fill="none" stroke="red" stroke-width="0.28" d="M565.7,-139.36C562.76,-138.32 559.66,-137.26 556.75,-136.35 497.71,-117.78 427.38,-99.66 389.73,-90.27"/>
<polygon fill="red" stroke="red" stroke-width="0.28" points="390.97,-86.98 380.42,-87.97 389.29,-93.77 390.97,-86.98"/>
</g>
<!-- &#45;10&#45;&gt;72 -->
<g id="edge36" class="edge">
<title>&#45;10&#45;&gt;72</title>
<path fill="none" stroke="red" stroke-width="0.38" d="M570.44,-135.87C561.2,-127.21 546.74,-113.65 534.87,-102.53"/>
<polygon fill="red" stroke="red" stroke-width="0.38" points="537.26,-99.98 527.57,-95.69 532.48,-105.08 537.26,-99.98"/>
</g>
<!-- &#45;11 -->
<g id="node11" class="node">
<title>&#45;11</title>
<polygon fill="lightgray" stroke="black" points="639.75,-154.85 611.75,-154.85 611.75,-136.35 639.75,-136.35 639.75,-154.85"/>
<text text-anchor="middle" x="625.75" y="-142.3" font-family="Times,serif" font-size="9.00">&#45;11</text>
</g>
<!-- &#45;11&#45;&gt;69 -->
<g id="edge33" class="edge">
<title>&#45;11&#45;&gt;69</title>
<path fill="none" stroke="red" stroke-width="0.33" d="M611.73,-139.25C608.79,-138.21 605.69,-137.19 602.75,-136.35 527.01,-114.55 435.58,-96.77 390.56,-88.57"/>
<polygon fill="red" stroke="red" stroke-width="0.33" points="391.37,-85.16 380.91,-86.83 390.13,-92.05 391.37,-85.16"/>
</g>
<!-- &#45;11&#45;&gt;72 -->
<g id="edge34" class="edge">
<title>&#45;11&#45;&gt;72</title>
<path fill="none" stroke="red" stroke-width="0.13" d="M611.69,-136.88C593.42,-126.85 561.22,-109.17 538.97,-96.96"/>
<polygon fill="red" stroke="red" stroke-width="0.13" points="540.74,-93.94 530.29,-92.2 537.37,-100.08 540.74,-93.94"/>
</g>
<!-- &#45;12 -->
<g id="node12" class="node">
<title>&#45;12</title>
<polygon fill="lightgray" stroke="black" points="375.75,-154.85 347.75,-154.85 347.75,-136.35 375.75,-136.35 375.75,-154.85"/>
<text text-anchor="middle" x="361.75" y="-142.3" font-family="Times,serif" font-size="9.00">&#45;12</text>
</g>
<!-- &#45;12&#45;&gt;69 -->
<g id="edge4" class="edge">
<title>&#45;12&#45;&gt;69</title>
<path fill="none" stroke="green" stroke-width="0.18" d="M361.89,-135.87C362,-129.25 362.16,-119.76 362.31,-110.7"/>
<polygon fill="green" stroke="green" stroke-width="0.18" points="365.81,-110.77 362.47,-100.71 358.81,-110.65 365.81,-110.77"/>
</g>
<!-- &#45;12&#45;&gt;71 -->
<g id="edge5" class="edge">
<title>&#45;12&#45;&gt;71</title>
<path fill="none" stroke="green" stroke-width="0.16" d="M347.69,-136.88C329.42,-126.85 297.22,-109.17 274.97,-96.96"/>
<polygon fill="green" stroke="green" stroke-width="0.16" points="276.78,-93.96 266.33,-92.22 273.41,-100.1 276.78,-93.96"/>
</g>
<!-- &#45;13 -->
<g id="node13" class="node">
<title>&#45;13</title>
<polygon fill="lightgray" stroke="black" points="773.75,-154.85 745.75,-154.85 745.75,-136.35 773.75,-136.35 773.75,-154.85"/>
<text text-anchor="middle" x="759.75" y="-142.3" font-family="Times,serif" font-size="9.00">&#45;13</text>
</g>
<!-- &#45;14 -->
<g id="node14" class="node">
<title>&#45;14</title>
<polygon fill="lightgray" stroke="black" points="819.75,-154.85 791.75,-154.85 791.75,-136.35 819.75,-136.35 819.75,-154.85"/>
<text text-anchor="middle" x="805.75" y="-142.3" font-family="Times,serif" font-size="9.00">&#45;14</text>
</g>
<!-- &#45;15 -->
<g id="node15" class="node">
<title>&#45;15</title>
<polygon fill="lightgray" stroke="black" points="865.75,-154.85 837.75,-154.85 837.75,-136.35 865.75,-136.35 865.75,-154.85"/>
<text text-anchor="middle" x="851.75" y="-142.3" font-family="Times,serif" font-size="9.00">&#45;15</text>
</g>
<!-- &#45;16 -->
<g id="node16" class="node">
<title>&#45;16</title>
<polygon fill="lightgray" stroke="black" points="421.75,-154.85 393.75,-154.85 393.75,-136.35 421.75,-136.35 421.75,-154.85"/>
<text text-anchor="middle" x="407.75" y="-142.3" font-family="Times,serif" font-size="9.00">&#45;16</text>
</g>
<!-- &#45;16&#45;&gt;69 -->
<g id="edge27" class="edge">
<title>&#45;16&#45;&gt;69</title>
<path fill="none" stroke="green" stroke-width="0.25" d="M401.3,-135.87C395.53,-128.05 386.82,-116.26 379.14,-105.85"/>
<polygon fill="green" stroke="green" stroke-width="0.25" points="381.99,-103.83 373.24,-97.87 376.36,-107.99 381.99,-103.83"/>
</g>
<!-- &#45;17 -->
<g id="node17" class="node">
<title>&#45;17</title>
<polygon fill="lightgray" stroke="black" points="241.75,-154.85 213.75,-154.85 213.75,-136.35 241.75,-136.35 241.75,-154.85"/>
<text text-anchor="middle" x="227.75" y="-142.3" font-family="Times,serif" font-size="9.00">&#45;17</text>
</g>
<!-- &#45;17&#45;&gt;70 -->
<g id="edge11" class="edge">
<title>&#45;17&#45;&gt;70</title>
<path fill="none" stroke="green" stroke-width="0.39" d="M215.43,-135.87C202.18,-126.48 180.83,-111.36 164.52,-99.8"/>
<polygon fill="green" stroke="green" stroke-width="0.39" points="166.71,-97.07 156.53,-94.14 162.67,-102.78 166.71,-97.07"/>
</g>
<!-- &#45;17&#45;&gt;71 -->
<g id="edge43" class="edge">
<title>&#45;17&#45;&gt;71</title>
<path fill="none" stroke="green" stroke-width="0.49" d="M231.05,-135.87C233.67,-128.91 237.49,-118.79 241.07,-109.31"/>
<polygon fill="green" stroke="green" stroke-width="0.49" points="244.27,-110.74 244.53,-100.15 237.72,-108.27 244.27,-110.74"/>
</g>
<!-- &#45;17&#45;&gt;72 -->
<g id="edge1" class="edge">
<title>&#45;17&#45;&gt;72</title>
<path fill="none" stroke="red" stroke-width="0.3" d="M242.25,-139.03C245.04,-138.06 247.97,-137.12 250.75,-136.35 335.56,-112.81 438.47,-95.4 486.94,-87.83"/>
<polygon fill="red" stroke="red" stroke-width="0.3" points="487.45,-91.3 496.8,-86.31 486.39,-84.38 487.45,-91.3"/>
</g>
<!-- &#45;18 -->
<g id="node18" class="node">
<title>&#45;18</title>
<polygon fill="lightgray" stroke="black" points="329.75,-154.85 301.75,-154.85 301.75,-136.35 329.75,-136.35 329.75,-154.85"/>
<text text-anchor="middle" x="315.75" y="-142.3" font-family="Times,serif" font-size="9.00">&#45;18</text>
</g>
<!-- &#45;18&#45;&gt;69 -->
<g id="edge41" class="edge">
<title>&#45;18&#45;&gt;69</title>
<path fill="none" stroke="red" stroke-width="0.26" d="M322.48,-135.87C328.65,-127.87 338.04,-115.7 346.2,-105.13"/>
<polygon fill="red" stroke="red" stroke-width="0.26" points="348.81,-107.47 352.15,-97.42 343.27,-103.2 348.81,-107.47"/>
</g>
<!-- &#45;18&#45;&gt;70 -->
<g id="edge17" class="edge">
<title>&#45;18&#45;&gt;70</title>
<path fill="none" stroke="green" stroke-width="0.44" d="M301.65,-139.52C298.71,-138.46 295.63,-137.37 292.75,-136.35 249.2,-120.94 198.47,-103.31 168.3,-92.85"/>
<polygon fill="green" stroke="green" stroke-width="0.44" points="169.75,-89.65 159.16,-89.69 167.46,-96.27 169.75,-89.65"/>
</g>
<!-- &#45;18&#45;&gt;71 -->
<g id="edge32" class="edge">
<title>&#45;18&#45;&gt;71</title>
<path fill="none" stroke="green" stroke-width="0.37" d="M306.44,-135.87C297.2,-127.21 282.74,-113.65 270.87,-102.53"/>
<polygon fill="green" stroke="green" stroke-width="0.37" points="273.26,-99.97 263.57,-95.69 268.47,-105.08 273.26,-99.97"/>
</g>
<!-- &#45;18&#45;&gt;72 -->
<g id="edge42" class="edge">
<title>&#45;18&#45;&gt;72</title>
<path fill="none" stroke="red" stroke-width="0.26" d="M329.82,-139.42C332.76,-138.37 335.85,-137.3 338.75,-136.35 391.2,-119.11 453.18,-101.1 487.83,-91.24"/>
<polygon fill="red" stroke="red" stroke-width="0.26" points="488.62,-94.66 497.29,-88.56 486.71,-87.92 488.62,-94.66"/>
</g>
<!-- &#45;19 -->
<g id="node19" class="node">
<title>&#45;19</title>
<polygon fill="lightgray" stroke="black" points="69.75,-154.85 41.75,-154.85 41.75,-136.35 69.75,-136.35 69.75,-154.85"/>
<text text-anchor="middle" x="55.75" y="-142.3" font-family="Times,serif" font-size="9.00">&#45;19</text>
</g>
<!-- &#45;19&#45;&gt;70 -->
<g id="edge31" class="edge">
<title>&#45;19&#45;&gt;70</title>
<path fill="none" stroke="red" stroke-width="0.55" d="M68.07,-135.87C81.32,-126.48 102.67,-111.36 118.98,-99.8"/>
<polygon fill="red" stroke="red" stroke-width="0.55" points="120.63,-102.92 126.76,-94.29 116.58,-97.21 120.63,-102.92"/>
</g>
<!-- &#45;19&#45;&gt;71 -->
<g id="edge21" class="edge">
<title>&#45;19&#45;&gt;71</title>
<path fill="none" stroke="green" stroke-width="0.16" d="M69.82,-139.43C72.76,-138.38 75.85,-137.31 78.75,-136.35 130.05,-119.3 190.61,-101.22 224.46,-91.3"/>
<polygon fill="green" stroke="green" stroke-width="0.16" points="225.22,-94.73 233.84,-88.56 223.26,-88.01 225.22,-94.73"/>
</g>
<!-- &#45;20 -->
<g id="node20" class="node">
<title>&#45;20</title>
<polygon fill="lightgray" stroke="black" points="685.75,-154.85 657.75,-154.85 657.75,-136.35 685.75,-136.35 685.75,-154.85"/>
<text text-anchor="middle" x="671.75" y="-142.3" font-family="Times,serif" font-size="9.00">&#45;20</text>
</g>
<!-- &#45;20&#45;&gt;72 -->
<g id="edge22" class="edge">
<title>&#45;20&#45;&gt;72</title>
<path fill="none" stroke="red" stroke-width="0.24" d="M657.26,-138.97C630.71,-128.67 573.91,-106.63 540.6,-93.7"/>
<polygon fill="red" stroke="red" stroke-width="0.24" points="541.99,-90.49 531.4,-90.13 539.46,-97.01 541.99,-90.49"/>
</g>
<!-- 0 -->
<g id="node21" class="node">
<title>0</title>
<ellipse fill="lightblue" stroke="black" cx="297.75" cy="-14.5" rx="14.5" ry="14.5"/>
<text text-anchor="middle" x="297.75" y="-11.2" font-family="Times,serif" font-size="9.00">0</text>
</g>
<!-- 0&#45;&gt;0 -->
<g id="edge28" class="edge">
<title>0&#45;&gt;0</title>
<path fill="none" stroke="red" stroke-width="0.42" d="M308.4,-24.65C318.81,-30.26 330.25,-26.88 330.25,-14.5 330.25,-6.18 325.08,-1.92 318.54,-1.72"/>
<polygon fill="red" stroke="red" stroke-width="0.42" points="317.82,1.71 309.01,-4.18 319.57,-5.07 317.82,1.71"/>
</g>
<!-- 1 -->
<g id="node22" class="node">
<title>1</title>
<ellipse fill="lightblue" stroke="black" cx="427.75" cy="-14.5" rx="14.5" ry="14.5"/>
<text text-anchor="middle" x="427.75" y="-11.2" font-family="Times,serif" font-size="9.00">1</text>
</g>
<!-- 1&#45;&gt;1 -->
<g id="edge6" class="edge">
<title>1&#45;&gt;1</title>
<path fill="none" stroke="green" stroke-width="0.39" d="M438.4,-24.65C448.81,-30.26 460.25,-26.88 460.25,-14.5 460.25,-6.18 455.08,-1.92 448.54,-1.72"/>
<polygon fill="green" stroke="green" stroke-width="0.39" points="447.78,1.7 438.97,-4.19 449.53,-5.08 447.78,1.7"/>
</g>
<!-- 2 -->
<g id="node23" class="node">
<title>2</title>
<ellipse fill="lightblue" stroke="black" cx="362.75" cy="-14.5" rx="14.5" ry="14.5"/>
<text text-anchor="middle" x="362.75" y="-11.2" font-family="Times,serif" font-size="9.00">2</text>
</g>
<!-- 2&#45;&gt;2 -->
<g id="edge44" class="edge">
<title>2&#45;&gt;2</title>
<path fill="none" stroke="green" stroke-width="0.12" d="M373.4,-24.65C383.81,-30.26 395.25,-26.88 395.25,-14.5 395.25,-5.98 389.84,-1.72 383.08,-1.71"/>
<polygon fill="green" stroke="green" stroke-width="0.12" points="382.32,1.71 373.58,-4.29 384.15,-5.05 382.32,1.71"/>
</g>
<!-- 3 -->
<g id="node24" class="node">
<title>3</title>
<ellipse fill="lightblue" stroke="black" cx="250.75" cy="-14.5" rx="14.5" ry="14.5"/>
<text text-anchor="middle" x="250.75" y="-11.2" font-family="Times,serif" font-size="9.00">3</text>
</g>
<!-- 4 -->
<g id="node25" class="node">
<title>4</title>
<ellipse fill="lightblue" stroke="black" cx="514.75" cy="-14.5" rx="14.5" ry="14.5"/>
<text text-anchor="middle" x="514.75" y="-11.2" font-family="Times,serif" font-size="9.00">4</text>
</g>
<!-- 69&#45;&gt;0 -->
<g id="edge9" class="edge">
<title>69&#45;&gt;0</title>
<path fill="none" stroke="green" stroke-width="0.18" d="M350.52,-69.22C340.36,-58.88 325.81,-44.06 314.55,-32.6"/>
<polygon fill="green" stroke="green" stroke-width="0.18" points="317.08,-30.18 307.58,-25.5 312.09,-35.09 317.08,-30.18"/>
</g>
<!-- 69&#45;&gt;1 -->
<g id="edge25" class="edge">
<title>69&#45;&gt;1</title>
<path fill="none" stroke="green" stroke-width="0.16" d="M374.98,-69.22C385.14,-58.88 399.69,-44.06 410.95,-32.6"/>
<polygon fill="green" stroke="green" stroke-width="0.16" points="413.44,-35.06 417.95,-25.47 408.45,-30.15 413.44,-35.06"/>
</g>
<!-- 69&#45;&gt;2 -->
<g id="edge2" class="edge">
<title>69&#45;&gt;2</title>
<path fill="none" stroke="green" stroke-width="0.15" d="M362.75,-64.63C362.75,-56.87 362.75,-47.57 362.75,-39.15"/>
<polygon fill="green" stroke="green" stroke-width="0.15" points="366.25,-39.37 362.75,-29.37 359.25,-39.37 366.25,-39.37"/>
</g>
<!-- 69&#45;&gt;3 -->
<g id="edge12" class="edge">
<title>69&#45;&gt;3</title>
<path fill="none" stroke="green" stroke-width="0.41" d="M347.65,-72.74C328.09,-61.19 293.9,-40.99 271.8,-27.94"/>
<polygon fill="green" stroke="green" stroke-width="0.41" points="273.8,-25.05 263.41,-22.97 270.24,-31.07 273.8,-25.05"/>
</g>
<!-- 69&#45;&gt;4 -->
<g id="edge19" class="edge">
<title>69&#45;&gt;4</title>
<path fill="none" stroke="green" stroke-width="0.15" d="M379.02,-74.59C406.38,-62.67 461.66,-38.61 492.57,-25.15"/>
<polygon fill="green" stroke="green" stroke-width="0.15" points="493.69,-28.48 501.46,-21.28 490.9,-22.06 493.69,-28.48"/>
</g>
<!-- 71&#45;&gt;0 -->
<g id="edge13" class="edge">
<title>71&#45;&gt;0</title>
<path fill="none" stroke="red" stroke-width="0.31" d="M260.72,-67.64C267.39,-58.25 276.26,-45.75 283.65,-35.35"/>
<polygon fill="red" stroke="red" stroke-width="0.31" points="286.46,-37.43 289.4,-27.25 280.75,-33.38 286.46,-37.43"/>
</g>
<!-- 71&#45;&gt;3 -->
<g id="edge15" class="edge">
<title>71&#45;&gt;3</title>
<path fill="none" stroke="green" stroke-width="0.13" d="M250.75,-64.63C250.75,-56.87 250.75,-47.57 250.75,-39.15"/>
<polygon fill="green" stroke="green" stroke-width="0.13" points="254.25,-39.34 250.75,-29.35 247.25,-39.35 254.25,-39.34"/>
</g>
<!-- 72&#45;&gt;4 -->
<g id="edge29" class="edge">
<title>72&#45;&gt;4</title>
<path fill="none" stroke="red" stroke-width="0.41" d="M514.75,-64.63C514.75,-57.05 514.75,-47.98 514.75,-39.71"/>
<polygon fill="red" stroke="red" stroke-width="0.41" points="518.25,-39.77 514.75,-29.77 511.25,-39.77 518.25,-39.77"/>
</g>
<!-- 72&#45;&gt;72 -->
<g id="edge35" class="edge">
<title>72&#45;&gt;72</title>
<path fill="none" stroke="red" stroke-width="0.36" d="M529.41,-93.2C539.94,-96.63 550.43,-93.12 550.43,-82.67 550.43,-75.81 545.91,-71.95 539.83,-71.06"/>
<polygon fill="red" stroke="red" stroke-width="0.36" points="539.54,-67.58 529.96,-72.08 540.26,-74.54 539.54,-67.58"/>
</g>
</g>
</svg>
