<?xml version="1.0" encoding="UTF-8" standalone="no"?>
<!DOCTYPE svg PUBLIC "-//W3C//DTD SVG 1.1//EN"
 "http://www.w3.org/Graphics/SVG/1.1/DTD/svg11.dtd">
<!-- Generated by graphviz version 12.1.1 (20240910.0053)
 -->
<!-- Pages: 1 -->
<svg width="918pt" height="247pt"
 viewBox="0.00 0.00 918.00 246.93" xmlns="http://www.w3.org/2000/svg" xmlns:xlink="http://www.w3.org/1999/xlink">
<g id="graph0" class="graph" transform="scale(1 1) rotate(0) translate(4 242.93)">
<polygon fill="white" stroke="none" points="-4,4 -4,-242.93 914,-242.93 914,4 -4,4"/>
<!-- &#45;1 -->
<g id="node1" class="node">
<title>&#45;1</title>
<polygon fill="lightgray" stroke="black" points="675.75,-238.93 652.25,-238.93 652.25,-220.43 675.75,-220.43 675.75,-238.93"/>
<text text-anchor="middle" x="664" y="-226.38" font-family="Times,serif" font-size="9.00">&#45;1</text>
</g>
<!-- &#45;2 -->
<g id="node2" class="node">
<title>&#45;2</title>
<polygon fill="lightgray" stroke="black" points="69.75,-172.82 46.25,-172.82 46.25,-154.32 69.75,-154.32 69.75,-172.82"/>
<text text-anchor="middle" x="58" y="-160.27" font-family="Times,serif" font-size="9.00">&#45;2</text>
</g>
<!-- 166 -->
<g id="node27" class="node">
<title>166</title>
<ellipse fill="white" stroke="black" cx="205" cy="-85.85" rx="20.86" ry="20.86"/>
<text text-anchor="middle" x="205" y="-82.55" font-family="Times,serif" font-size="9.00">166</text>
</g>
<!-- &#45;2&#45;&gt;166 -->
<g id="edge13" class="edge">
<title>&#45;2&#45;&gt;166</title>
<path fill="none" stroke="green" stroke-width="0.25" stroke-dasharray="1,5" d="M65.63,-154.14C69.39,-150.32 74.15,-145.94 79,-142.71 109.73,-122.25 149.19,-106.16 175.69,-96.61"/>
<polygon fill="green" stroke="green" stroke-width="0.25" points="176.54,-100.02 184.81,-93.4 174.21,-93.42 176.54,-100.02"/>
</g>
<!-- &#45;3 -->
<g id="node3" class="node">
<title>&#45;3</title>
<polygon fill="lightgray" stroke="black" points="763.75,-238.93 740.25,-238.93 740.25,-220.43 763.75,-220.43 763.75,-238.93"/>
<text text-anchor="middle" x="752" y="-226.38" font-family="Times,serif" font-size="9.00">&#45;3</text>
</g>
<!-- &#45;4 -->
<g id="node4" class="node">
<title>&#45;4</title>
<polygon fill="lightgray" stroke="black" points="459.75,-172.82 436.25,-172.82 436.25,-154.32 459.75,-154.32 459.75,-172.82"/>
<text text-anchor="middle" x="448" y="-160.27" font-family="Times,serif" font-size="9.00">&#45;4</text>
</g>
<!-- 165 -->
<g id="node26" class="node">
<title>165</title>
<ellipse fill="white" stroke="black" cx="340" cy="-85.85" rx="20.86" ry="20.86"/>
<text text-anchor="middle" x="340" y="-82.55" font-family="Times,serif" font-size="9.00">165</text>
</g>
<!-- &#45;4&#45;&gt;165 -->
<g id="edge14" class="edge">
<title>&#45;4&#45;&gt;165</title>
<path fill="none" stroke="red" stroke-width="0.21" d="M439.74,-154.08C436,-150.41 431.43,-146.17 427,-142.71 407.74,-127.64 384.34,-112.78 366.66,-102.19"/>
<polygon fill="red" stroke="red" stroke-width="0.21" points="368.65,-99.3 358.27,-97.22 365.09,-105.33 368.65,-99.3"/>
</g>
<!-- 167 -->
<g id="node28" class="node">
<title>167</title>
<ellipse fill="white" stroke="black" cx="556" cy="-85.85" rx="20.86" ry="20.86"/>
<text text-anchor="middle" x="556" y="-82.55" font-family="Times,serif" font-size="9.00">167</text>
</g>
<!-- &#45;4&#45;&gt;167 -->
<g id="edge11" class="edge">
<title>&#45;4&#45;&gt;167</title>
<path fill="none" stroke="red" stroke-width="0.77" stroke-dasharray="1,5" d="M456.26,-154.08C460,-150.41 464.57,-146.17 469,-142.71 488.08,-127.77 511.23,-113.06 528.85,-102.48"/>
<polygon fill="red" stroke="red" stroke-width="0.77" points="530.19,-105.76 537.01,-97.65 526.62,-99.73 530.19,-105.76"/>
</g>
<!-- &#45;5 -->
<g id="node5" class="node">
<title>&#45;5</title>
<polygon fill="lightgray" stroke="black" points="547.75,-172.82 524.25,-172.82 524.25,-154.32 547.75,-154.32 547.75,-172.82"/>
<text text-anchor="middle" x="536" y="-160.27" font-family="Times,serif" font-size="9.00">&#45;5</text>
</g>
<!-- &#45;5&#45;&gt;166 -->
<g id="edge12" class="edge">
<title>&#45;5&#45;&gt;166</title>
<path fill="none" stroke="green" stroke-width="0.29" d="M529.07,-154C525.33,-149.95 520.38,-145.41 515,-142.71 432.34,-101.17 401,-123.31 310,-106.71 284.98,-102.15 256.64,-96.78 235.72,-92.77"/>
<polygon fill="green" stroke="green" stroke-width="0.29" points="236.42,-89.34 225.94,-90.9 235.1,-96.22 236.42,-89.34"/>
</g>
<!-- &#45;5&#45;&gt;167 -->
<g id="edge19" class="edge">
<title>&#45;5&#45;&gt;167</title>
<path fill="none" stroke="green" stroke-width="0.16" stroke-dasharray="1,5" d="M538.29,-153.88C540.71,-144.72 544.66,-129.77 548.22,-116.32"/>
<polygon fill="green" stroke="green" stroke-width="0.16" points="551.59,-117.24 550.76,-106.68 544.83,-115.45 551.59,-117.24"/>
</g>
<!-- 168 -->
<g id="node29" class="node">
<title>168</title>
<ellipse fill="white" stroke="black" cx="732" cy="-85.85" rx="20.86" ry="20.86"/>
<text text-anchor="middle" x="732" y="-82.55" font-family="Times,serif" font-size="9.00">168</text>
</g>
<!-- &#45;5&#45;&gt;168 -->
<g id="edge34" class="edge">
<title>&#45;5&#45;&gt;168</title>
<path fill="none" stroke="green" stroke-width="0.21" stroke-dasharray="1,5" d="M543.47,-153.9C547.21,-150.02 551.99,-145.67 557,-142.71 603.49,-115.27 665.02,-99.69 701.37,-92.29"/>
<polygon fill="green" stroke="green" stroke-width="0.21" points="701.9,-95.75 711.04,-90.4 700.56,-88.88 701.9,-95.75"/>
</g>
<!-- &#45;6 -->
<g id="node6" class="node">
<title>&#45;6</title>
<polygon fill="lightgray" stroke="black" points="329.75,-172.82 306.25,-172.82 306.25,-154.32 329.75,-154.32 329.75,-172.82"/>
<text text-anchor="middle" x="318" y="-160.27" font-family="Times,serif" font-size="9.00">&#45;6</text>
</g>
<!-- &#45;6&#45;&gt;165 -->
<g id="edge17" class="edge">
<title>&#45;6&#45;&gt;165</title>
<path fill="none" stroke="green" stroke-width="0.62" d="M320.52,-153.88C323.16,-144.81 327.44,-130.07 331.32,-116.71"/>
<polygon fill="green" stroke="green" stroke-width="0.62" points="334.62,-117.92 334.05,-107.34 327.89,-115.97 334.62,-117.92"/>
</g>
<!-- &#45;6&#45;&gt;166 -->
<g id="edge38" class="edge">
<title>&#45;6&#45;&gt;166</title>
<path fill="none" stroke="red" stroke-width="0.1" d="M309.78,-154.02C306.05,-150.35 301.47,-146.12 297,-142.71 276.32,-126.93 250.92,-111.8 232.05,-101.27"/>
<polygon fill="red" stroke="red" stroke-width="0.1" points="233.95,-98.32 223.51,-96.57 230.58,-104.45 233.95,-98.32"/>
</g>
<!-- &#45;6&#45;&gt;167 -->
<g id="edge3" class="edge">
<title>&#45;6&#45;&gt;167</title>
<path fill="none" stroke="green" stroke-width="0.29" d="M325.02,-154.18C328.79,-150.17 333.73,-145.62 339,-142.71 399.58,-109.24 480.77,-95.31 524.66,-89.93"/>
<polygon fill="green" stroke="green" stroke-width="0.29" points="525.02,-93.41 534.55,-88.79 524.21,-86.46 525.02,-93.41"/>
</g>
<!-- &#45;7 -->
<g id="node7" class="node">
<title>&#45;7</title>
<polygon fill="lightgray" stroke="black" points="111.75,-172.82 88.25,-172.82 88.25,-154.32 111.75,-154.32 111.75,-172.82"/>
<text text-anchor="middle" x="100" y="-160.27" font-family="Times,serif" font-size="9.00">&#45;7</text>
</g>
<!-- &#45;7&#45;&gt;166 -->
<g id="edge33" class="edge">
<title>&#45;7&#45;&gt;166</title>
<path fill="none" stroke="red" stroke-width="0.3" d="M111.07,-153.98C115.66,-150.45 121.06,-146.34 126,-142.71 143.65,-129.74 163.82,-115.49 179.36,-104.63"/>
<polygon fill="red" stroke="red" stroke-width="0.3" points="181.34,-107.51 187.54,-98.92 177.34,-101.77 181.34,-107.51"/>
</g>
<!-- &#45;8 -->
<g id="node8" class="node">
<title>&#45;8</title>
<polygon fill="lightgray" stroke="black" points="417.75,-172.82 394.25,-172.82 394.25,-154.32 417.75,-154.32 417.75,-172.82"/>
<text text-anchor="middle" x="406" y="-160.27" font-family="Times,serif" font-size="9.00">&#45;8</text>
</g>
<!-- &#45;8&#45;&gt;165 -->
<g id="edge39" class="edge">
<title>&#45;8&#45;&gt;165</title>
<path fill="none" stroke="red" stroke-width="0.12" d="M398.43,-153.88C389.09,-143.17 372.85,-124.53 359.85,-109.63"/>
<polygon fill="red" stroke="red" stroke-width="0.12" points="362.74,-107.61 353.53,-102.38 357.46,-112.21 362.74,-107.61"/>
</g>
<!-- &#45;9 -->
<g id="node9" class="node">
<title>&#45;9</title>
<polygon fill="lightgray" stroke="black" points="765.75,-172.82 742.25,-172.82 742.25,-154.32 765.75,-154.32 765.75,-172.82"/>
<text text-anchor="middle" x="754" y="-160.27" font-family="Times,serif" font-size="9.00">&#45;9</text>
</g>
<!-- &#45;9&#45;&gt;167 -->
<g id="edge24" class="edge">
<title>&#45;9&#45;&gt;167</title>
<path fill="none" stroke="red" stroke-width="0.36" d="M746.53,-153.9C742.8,-150.02 738.02,-145.66 733,-142.71 685.98,-115.06 623.74,-99.55 586.98,-92.22"/>
<polygon fill="red" stroke="red" stroke-width="0.36" points="587.89,-88.83 577.41,-90.38 586.58,-95.7 587.89,-88.83"/>
</g>
<!-- &#45;9&#45;&gt;168 -->
<g id="edge25" class="edge">
<title>&#45;9&#45;&gt;168</title>
<path fill="none" stroke="red" stroke-width="0.13" d="M751.48,-153.88C748.79,-144.63 744.39,-129.48 740.45,-115.92"/>
<polygon fill="red" stroke="red" stroke-width="0.13" points="743.9,-115.25 737.74,-106.62 737.17,-117.2 743.9,-115.25"/>
</g>
<!-- &#45;10 -->
<g id="node10" class="node">
<title>&#45;10</title>
<polygon fill="lightgray" stroke="black" points="242,-172.82 214,-172.82 214,-154.32 242,-154.32 242,-172.82"/>
<text text-anchor="middle" x="228" y="-160.27" font-family="Times,serif" font-size="9.00">&#45;10</text>
</g>
<!-- &#45;10&#45;&gt;165 -->
<g id="edge30" class="edge">
<title>&#45;10&#45;&gt;165</title>
<path fill="none" stroke="red" stroke-width="0.16" d="M237.13,-154.12C241.25,-150.46 246.25,-146.22 251,-142.71 271.12,-127.85 295.21,-112.88 313.26,-102.19"/>
<polygon fill="red" stroke="red" stroke-width="0.16" points="315.02,-105.21 321.88,-97.13 311.48,-99.17 315.02,-105.21"/>
</g>
<!-- &#45;10&#45;&gt;166 -->
<g id="edge15" class="edge">
<title>&#45;10&#45;&gt;166</title>
<path fill="none" stroke="red" stroke-width="0.25" d="M225.36,-153.88C222.56,-144.66 217.98,-129.57 213.87,-116.04"/>
<polygon fill="red" stroke="red" stroke-width="0.25" points="217.22,-115.03 210.96,-106.48 210.52,-117.07 217.22,-115.03"/>
</g>
<!-- &#45;11 -->
<g id="node11" class="node">
<title>&#45;11</title>
<polygon fill="lightgray" stroke="black" points="724,-172.82 696,-172.82 696,-154.32 724,-154.32 724,-172.82"/>
<text text-anchor="middle" x="710" y="-160.27" font-family="Times,serif" font-size="9.00">&#45;11</text>
</g>
<!-- &#45;11&#45;&gt;166 -->
<g id="edge36" class="edge">
<title>&#45;11&#45;&gt;166</title>
<path fill="none" stroke="green" stroke-width="0.19" stroke-dasharray="1,5" d="M702.76,-154.23C698.6,-150.02 693.02,-145.28 687,-142.71 532.21,-76.59 476.65,-130.38 310,-106.71 284.7,-103.12 256.23,-97.64 235.33,-93.35"/>
<polygon fill="green" stroke="green" stroke-width="0.19" points="236.22,-89.96 225.72,-91.35 234.79,-96.81 236.22,-89.96"/>
</g>
<!-- &#45;11&#45;&gt;167 -->
<g id="edge5" class="edge">
<title>&#45;11&#45;&gt;167</title>
<path fill="none" stroke="green" stroke-width="0.35" d="M701.55,-154.15C697.4,-150.33 692.19,-145.95 687,-142.71 654.45,-122.41 613.23,-106.19 585.81,-96.57"/>
<polygon fill="green" stroke="green" stroke-width="0.35" points="587.11,-93.32 576.52,-93.38 584.84,-99.94 587.11,-93.32"/>
</g>
<!-- &#45;11&#45;&gt;168 -->
<g id="edge28" class="edge">
<title>&#45;11&#45;&gt;168</title>
<path fill="none" stroke="red" stroke-width="0.33" d="M712.52,-153.88C715.19,-144.72 719.53,-129.77 723.44,-116.32"/>
<polygon fill="red" stroke="red" stroke-width="0.33" points="726.74,-117.5 726.17,-106.92 720.02,-115.54 726.74,-117.5"/>
</g>
<!-- &#45;12 -->
<g id="node12" class="node">
<title>&#45;12</title>
<polygon fill="lightgray" stroke="black" points="28,-172.82 0,-172.82 0,-154.32 28,-154.32 28,-172.82"/>
<text text-anchor="middle" x="14" y="-160.27" font-family="Times,serif" font-size="9.00">&#45;12</text>
</g>
<!-- 1 -->
<g id="node22" class="node">
<title>1</title>
<ellipse fill="lightblue" stroke="black" cx="181" cy="-14.5" rx="14.5" ry="14.5"/>
<text text-anchor="middle" x="181" y="-11.2" font-family="Times,serif" font-size="9.00">1</text>
</g>
<!-- &#45;12&#45;&gt;1 -->
<g id="edge46" class="edge">
<title>&#45;12&#45;&gt;1</title>
<path fill="none" stroke="green" stroke-width="0.13" d="M23.46,-154.24C50.4,-130.51 127.88,-62.28 163.14,-31.23"/>
<polygon fill="green" stroke="green" stroke-width="0.13" points="165.04,-34.22 170.23,-24.98 160.41,-28.96 165.04,-34.22"/>
</g>
<!-- &#45;12&#45;&gt;165 -->
<g id="edge6" class="edge">
<title>&#45;12&#45;&gt;165</title>
<path fill="none" stroke="red" stroke-width="0.33" d="M21.74,-154.02C25.88,-149.98 31.29,-145.44 37,-142.71 117.69,-104.12 147.06,-123.02 235,-106.71 260.01,-102.07 288.35,-96.71 309.27,-92.72"/>
<polygon fill="red" stroke="red" stroke-width="0.33" points="309.83,-96.18 319,-90.87 308.52,-89.3 309.83,-96.18"/>
</g>
<!-- &#45;12&#45;&gt;166 -->
<g id="edge37" class="edge">
<title>&#45;12&#45;&gt;166</title>
<path fill="none" stroke="green" stroke-width="0.53" d="M22.34,-153.96C26.46,-150.09 31.68,-145.73 37,-142.71 81.37,-117.5 138.85,-101.5 173.78,-93.36"/>
<polygon fill="green" stroke="green" stroke-width="0.53" points="174.52,-96.78 183.5,-91.17 172.98,-89.95 174.52,-96.78"/>
</g>
<!-- &#45;13 -->
<g id="node13" class="node">
<title>&#45;13</title>
<polygon fill="lightgray" stroke="black" points="376,-172.82 348,-172.82 348,-154.32 376,-154.32 376,-172.82"/>
<text text-anchor="middle" x="362" y="-160.27" font-family="Times,serif" font-size="9.00">&#45;13</text>
</g>
<!-- &#45;13&#45;&gt;165 -->
<g id="edge27" class="edge">
<title>&#45;13&#45;&gt;165</title>
<path fill="none" stroke="red" stroke-width="0.13" d="M359.48,-153.88C356.79,-144.63 352.39,-129.48 348.45,-115.92"/>
<polygon fill="red" stroke="red" stroke-width="0.13" points="351.9,-115.26 345.75,-106.63 345.18,-117.21 351.9,-115.26"/>
</g>
<!-- &#45;13&#45;&gt;166 -->
<g id="edge18" class="edge">
<title>&#45;13&#45;&gt;166</title>
<path fill="none" stroke="red" stroke-width="0.23" d="M353.56,-154.14C349.42,-150.31 344.21,-145.93 339,-142.71 305.39,-121.94 262.7,-105.66 234.65,-96.16"/>
<polygon fill="red" stroke="red" stroke-width="0.23" points="235.95,-92.9 225.35,-93.08 233.75,-99.55 235.95,-92.9"/>
</g>
<!-- &#45;13&#45;&gt;167 -->
<g id="edge32" class="edge">
<title>&#45;13&#45;&gt;167</title>
<path fill="none" stroke="green" stroke-width="0.16" stroke-dasharray="1,5" d="M370.33,-153.95C374.45,-150.08 379.67,-145.72 385,-142.71 430.79,-116.86 490.32,-100.85 525.71,-92.92"/>
<polygon fill="green" stroke="green" stroke-width="0.16" points="526.17,-96.4 535.2,-90.86 524.69,-89.56 526.17,-96.4"/>
</g>
<!-- &#45;14 -->
<g id="node14" class="node">
<title>&#45;14</title>
<polygon fill="lightgray" stroke="black" points="506,-172.82 478,-172.82 478,-154.32 506,-154.32 506,-172.82"/>
<text text-anchor="middle" x="492" y="-160.27" font-family="Times,serif" font-size="9.00">&#45;14</text>
</g>
<!-- &#45;14&#45;&gt;167 -->
<g id="edge20" class="edge">
<title>&#45;14&#45;&gt;167</title>
<path fill="none" stroke="red" stroke-width="0.32" stroke-dasharray="1,5" d="M499.34,-153.88C508.26,-143.33 523.67,-125.1 536.17,-110.32"/>
<polygon fill="red" stroke="red" stroke-width="0.32" points="538.66,-112.79 542.44,-102.89 533.31,-108.27 538.66,-112.79"/>
</g>
<!-- &#45;15 -->
<g id="node15" class="node">
<title>&#45;15</title>
<polygon fill="lightgray" stroke="black" points="722,-238.93 694,-238.93 694,-220.43 722,-220.43 722,-238.93"/>
<text text-anchor="middle" x="708" y="-226.38" font-family="Times,serif" font-size="9.00">&#45;15</text>
</g>
<!-- &#45;15&#45;&gt;166 -->
<g id="edge10" class="edge">
<title>&#45;15&#45;&gt;166</title>
<path fill="none" stroke="red" stroke-width="0.18" d="M693.57,-222.82C690.77,-221.88 687.82,-221.02 685,-220.43 627.66,-208.43 198.98,-227.24 159,-184.43 138.19,-162.15 162.45,-128.74 182.88,-107.37"/>
<polygon fill="red" stroke="red" stroke-width="0.18" points="185.1,-110.1 189.67,-100.54 180.14,-105.16 185.1,-110.1"/>
</g>
<!-- &#45;15&#45;&gt;167 -->
<g id="edge16" class="edge">
<title>&#45;15&#45;&gt;167</title>
<path fill="none" stroke="green" stroke-width="0.14" stroke-dasharray="1,5" d="M693.62,-220.72C679.49,-212.56 657.68,-199.03 641,-184.43 633.77,-178.1 598.23,-136.64 575.46,-109.84"/>
<polygon fill="green" stroke="green" stroke-width="0.14" points="578.4,-107.89 569.26,-102.53 573.06,-112.42 578.4,-107.89"/>
</g>
<!-- &#45;15&#45;&gt;168 -->
<g id="edge2" class="edge">
<title>&#45;15&#45;&gt;168</title>
<path fill="none" stroke="red" stroke-width="0.1" d="M722.37,-223.9C738.52,-217.67 763.91,-205.05 775,-184.43 783.78,-168.1 780.97,-160.26 775,-142.71 770.69,-130.04 762.21,-118 753.92,-108.36"/>
<polygon fill="red" stroke="red" stroke-width="0.1" points="756.51,-106.02 747.19,-100.99 751.34,-110.73 756.51,-106.02"/>
</g>
<!-- 282 -->
<g id="node30" class="node">
<title>282</title>
<ellipse fill="white" stroke="black" cx="843" cy="-163.57" rx="20.86" ry="20.86"/>
<text text-anchor="middle" x="843" y="-160.27" font-family="Times,serif" font-size="9.00">282</text>
</g>
<!-- &#45;15&#45;&gt;282 -->
<g id="edge43" class="edge">
<title>&#45;15&#45;&gt;282</title>
<path fill="none" stroke="green" stroke-width="0.53" stroke-dasharray="1,5" d="M722.45,-222.82C742.08,-214.73 778.15,-199.45 808,-184.43 810.6,-183.12 813.28,-181.71 815.95,-180.27"/>
<polygon fill="green" stroke="green" stroke-width="0.53" points="817.65,-183.33 824.68,-175.41 814.24,-177.21 817.65,-183.33"/>
</g>
<!-- &#45;16 -->
<g id="node16" class="node">
<title>&#45;16</title>
<polygon fill="lightgray" stroke="black" points="288,-172.82 260,-172.82 260,-154.32 288,-154.32 288,-172.82"/>
<text text-anchor="middle" x="274" y="-160.27" font-family="Times,serif" font-size="9.00">&#45;16</text>
</g>
<!-- &#45;16&#45;&gt;165 -->
<g id="edge9" class="edge">
<title>&#45;16&#45;&gt;165</title>
<path fill="none" stroke="red" stroke-width="0.43" d="M281.57,-153.88C290.83,-143.26 306.86,-124.88 319.79,-110.04"/>
<polygon fill="red" stroke="red" stroke-width="0.43" points="322.23,-112.57 326.16,-102.73 316.95,-107.97 322.23,-112.57"/>
</g>
<!-- &#45;16&#45;&gt;166 -->
<g id="edge35" class="edge">
<title>&#45;16&#45;&gt;166</title>
<path fill="none" stroke="red" stroke-width="0.18" stroke-dasharray="1,5" d="M266.08,-153.88C256.26,-143.1 239.13,-124.3 225.51,-109.35"/>
<polygon fill="red" stroke="red" stroke-width="0.18" points="228.26,-107.18 218.94,-102.15 223.09,-111.9 228.26,-107.18"/>
</g>
<!-- &#45;17 -->
<g id="node17" class="node">
<title>&#45;17</title>
<polygon fill="lightgray" stroke="black" points="594,-172.82 566,-172.82 566,-154.32 594,-154.32 594,-172.82"/>
<text text-anchor="middle" x="580" y="-160.27" font-family="Times,serif" font-size="9.00">&#45;17</text>
</g>
<!-- 0 -->
<g id="node21" class="node">
<title>0</title>
<ellipse fill="lightblue" stroke="black" cx="703" cy="-14.5" rx="14.5" ry="14.5"/>
<text text-anchor="middle" x="703" y="-11.2" font-family="Times,serif" font-size="9.00">0</text>
</g>
<!-- &#45;17&#45;&gt;0 -->
<g id="edge45" class="edge">
<title>&#45;17&#45;&gt;0</title>
<path fill="none" stroke="green" stroke-width="0.22" d="M586.97,-154.24C606.28,-131.15 660.85,-65.89 687.7,-33.79"/>
<polygon fill="green" stroke="green" stroke-width="0.22" points="690.24,-36.21 693.97,-26.29 684.87,-31.72 690.24,-36.21"/>
</g>
<!-- &#45;17&#45;&gt;165 -->
<g id="edge31" class="edge">
<title>&#45;17&#45;&gt;165</title>
<path fill="none" stroke="green" stroke-width="0.31" d="M572.17,-154.2C568.01,-150.19 562.61,-145.65 557,-142.71 495.67,-110.62 414.77,-96.15 371.13,-90.31"/>
<polygon fill="green" stroke="green" stroke-width="0.31" points="371.69,-86.86 361.33,-89.07 370.81,-93.8 371.69,-86.86"/>
</g>
<!-- &#45;17&#45;&gt;167 -->
<g id="edge29" class="edge">
<title>&#45;17&#45;&gt;167</title>
<path fill="none" stroke="red" stroke-width="0.15" d="M577.25,-153.88C574.29,-144.57 569.45,-129.28 565.13,-115.65"/>
<polygon fill="red" stroke="red" stroke-width="0.15" points="568.54,-114.82 562.18,-106.35 561.87,-116.94 568.54,-114.82"/>
</g>
<!-- &#45;18 -->
<g id="node18" class="node">
<title>&#45;18</title>
<polygon fill="lightgray" stroke="black" points="678,-172.82 650,-172.82 650,-154.32 678,-154.32 678,-172.82"/>
<text text-anchor="middle" x="664" y="-160.27" font-family="Times,serif" font-size="9.00">&#45;18</text>
</g>
<!-- &#45;18&#45;&gt;167 -->
<g id="edge22" class="edge">
<title>&#45;18&#45;&gt;167</title>
<path fill="none" stroke="green" stroke-width="0.39" stroke-dasharray="1,5" d="M651.75,-153.85C646.85,-150.38 641.17,-146.35 636,-142.71 617.82,-129.92 597.25,-115.56 581.53,-104.6"/>
<polygon fill="green" stroke="green" stroke-width="0.39" points="583.57,-101.76 573.36,-98.92 579.57,-107.5 583.57,-101.76"/>
</g>
<!-- &#45;19 -->
<g id="node19" class="node">
<title>&#45;19</title>
<polygon fill="lightgray" stroke="black" points="196,-172.82 168,-172.82 168,-154.32 196,-154.32 196,-172.82"/>
<text text-anchor="middle" x="182" y="-160.27" font-family="Times,serif" font-size="9.00">&#45;19</text>
</g>
<!-- &#45;19&#45;&gt;165 -->
<g id="edge23" class="edge">
<title>&#45;19&#45;&gt;165</title>
<path fill="none" stroke="green" stroke-width="0.65" d="M190.44,-154.13C194.58,-150.3 199.79,-145.92 205,-142.71 238.74,-121.92 281.59,-105.7 309.86,-96.21"/>
<polygon fill="green" stroke="green" stroke-width="0.65" points="310.93,-99.54 319.35,-93.1 308.76,-92.89 310.93,-99.54"/>
</g>
<!-- &#45;19&#45;&gt;166 -->
<g id="edge26" class="edge">
<title>&#45;19&#45;&gt;166</title>
<path fill="none" stroke="red" stroke-width="0.38" stroke-dasharray="1,5" d="M184.64,-153.88C187.44,-144.66 192.02,-129.57 196.13,-116.04"/>
<polygon fill="red" stroke="red" stroke-width="0.38" points="199.42,-117.26 198.98,-106.68 192.72,-115.23 199.42,-117.26"/>
</g>
<!-- &#45;20 -->
<g id="node20" class="node">
<title>&#45;20</title>
<polygon fill="lightgray" stroke="black" points="910,-172.82 882,-172.82 882,-154.32 910,-154.32 910,-172.82"/>
<text text-anchor="middle" x="896" y="-160.27" font-family="Times,serif" font-size="9.00">&#45;20</text>
</g>
<!-- &#45;20&#45;&gt;168 -->
<g id="edge42" class="edge">
<title>&#45;20&#45;&gt;168</title>
<path fill="none" stroke="green" stroke-width="0.26" d="M887.58,-154.09C883.45,-150.26 878.23,-145.88 873,-142.71 837.14,-120.99 791.34,-104.68 761.84,-95.45"/>
<polygon fill="green" stroke="green" stroke-width="0.26" points="763.1,-92.17 752.51,-92.6 761.05,-98.87 763.1,-92.17"/>
</g>
<!-- 2 -->
<g id="node23" class="node">
<title>2</title>
<ellipse fill="lightblue" stroke="black" cx="641" cy="-14.5" rx="14.5" ry="14.5"/>
<text text-anchor="middle" x="641" y="-11.2" font-family="Times,serif" font-size="9.00">2</text>
</g>
<!-- 3 -->
<g id="node24" class="node">
<title>3</title>
<ellipse fill="lightblue" stroke="black" cx="574" cy="-14.5" rx="14.5" ry="14.5"/>
<text text-anchor="middle" x="574" y="-11.2" font-family="Times,serif" font-size="9.00">3</text>
</g>
<!-- 4 -->
<g id="node25" class="node">
<title>4</title>
<ellipse fill="lightblue" stroke="black" cx="527" cy="-14.5" rx="14.5" ry="14.5"/>
<text text-anchor="middle" x="527" y="-11.2" font-family="Times,serif" font-size="9.00">4</text>
</g>
<!-- 165&#45;&gt;2 -->
<g id="edge41" class="edge">
<title>165&#45;&gt;2</title>
<path fill="none" stroke="green" stroke-width="0.14" stroke-dasharray="1,5" d="M360.46,-81.01C404.16,-72.67 509.76,-51.81 597,-28.99 603.7,-27.24 610.9,-25.13 617.5,-23.1"/>
<polygon fill="green" stroke="green" stroke-width="0.14" points="618.52,-26.45 627.01,-20.11 616.42,-19.77 618.52,-26.45"/>
</g>
<!-- 166&#45;&gt;1 -->
<g id="edge7" class="edge">
<title>166&#45;&gt;1</title>
<path fill="none" stroke="red" stroke-width="0.19" d="M198.44,-65.9C195.46,-57.27 191.9,-47 188.78,-37.99"/>
<polygon fill="red" stroke="red" stroke-width="0.19" points="192.17,-37.08 185.6,-28.78 185.56,-39.37 192.17,-37.08"/>
</g>
<!-- 167&#45;&gt;3 -->
<g id="edge4" class="edge">
<title>167&#45;&gt;3</title>
<path fill="none" stroke="green" stroke-width="0.66" d="M561.11,-65.16C563.22,-57.03 565.68,-47.54 567.89,-39.04"/>
<polygon fill="green" stroke="green" stroke-width="0.66" points="571.21,-40.18 570.33,-29.62 564.43,-38.42 571.21,-40.18"/>
</g>
<!-- 167&#45;&gt;4 -->
<g id="edge8" class="edge">
<title>167&#45;&gt;4</title>
<path fill="none" stroke="green" stroke-width="0.7" d="M548.23,-66.27C544.61,-57.61 540.28,-47.24 536.47,-38.14"/>
<polygon fill="green" stroke="green" stroke-width="0.7" points="539.81,-37.06 532.72,-29.19 533.35,-39.76 539.81,-37.06"/>
</g>
<!-- 168&#45;&gt;0 -->
<g id="edge21" class="edge">
<title>168&#45;&gt;0</title>
<path fill="none" stroke="green" stroke-width="0.21" stroke-dasharray="1,5" d="M724.23,-66.27C720.53,-57.43 716.09,-46.79 712.22,-37.55"/>
<polygon fill="green" stroke="green" stroke-width="0.21" points="715.52,-36.37 708.44,-28.5 709.07,-39.07 715.52,-36.37"/>
</g>
<!-- 168&#45;&gt;2 -->
<g id="edge1" class="edge">
<title>168&#45;&gt;2</title>
<path fill="none" stroke="red" stroke-width="0.13" stroke-dasharray="1,5" d="M715.73,-72.45C700.15,-60.57 676.63,-42.65 660.15,-30.09"/>
<polygon fill="red" stroke="red" stroke-width="0.13" points="662.48,-27.47 652.41,-24.19 658.24,-33.03 662.48,-27.47"/>
</g>
<!-- 168&#45;&gt;168 -->
<g id="edge40" class="edge">
<title>168&#45;&gt;168</title>
<path fill="none" stroke="red" stroke-width="0.23" stroke-dasharray="1,5" d="M749.18,-98.17C760.23,-101.39 770.86,-97.28 770.86,-85.85 770.86,-77.99 765.83,-73.6 759.1,-72.66"/>
<polygon fill="red" stroke="red" stroke-width="0.23" points="759.19,-69.14 749.53,-73.5 759.8,-76.11 759.19,-69.14"/>
</g>
<!-- 282&#45;&gt;168 -->
<g id="edge44" class="edge">
<title>282&#45;&gt;168</title>
<path fill="none" stroke="red" stroke-width="0.24" d="M826.14,-151.07C807.89,-138.62 778.56,-118.61 757.49,-104.24"/>
<polygon fill="red" stroke="red" stroke-width="0.24" points="759.55,-101.4 749.31,-98.66 755.6,-107.19 759.55,-101.4"/>
</g>
</g>
</svg>
