<?xml version="1.0" encoding="UTF-8" standalone="no"?>
<!DOCTYPE svg PUBLIC "-//W3C//DTD SVG 1.1//EN"
 "http://www.w3.org/Graphics/SVG/1.1/DTD/svg11.dtd">
<!-- Generated by graphviz version 12.1.1 (20240910.0053)
 -->
<!-- Pages: 1 -->
<svg width="644pt" height="499pt"
 viewBox="0.00 0.00 643.86 499.18" xmlns="http://www.w3.org/2000/svg" xmlns:xlink="http://www.w3.org/1999/xlink">
<g id="graph0" class="graph" transform="scale(1 1) rotate(0) translate(4 495.18)">
<polygon fill="white" stroke="none" points="-4,4 -4,-495.18 639.86,-495.18 639.86,4 -4,4"/>
<!-- &#45;1 -->
<g id="node1" class="node">
<title>&#45;1</title>
<polygon fill="lightgray" stroke="black" points="133.61,-176 110.11,-176 110.11,-157.5 133.61,-157.5 133.61,-176"/>
<text text-anchor="middle" x="121.86" y="-163.45" font-family="Times,serif" font-size="9.00">&#45;1</text>
</g>
<!-- 1 -->
<g id="node22" class="node">
<title>1</title>
<ellipse fill="lightblue" stroke="black" cx="167.86" cy="-85.85" rx="14.5" ry="14.5"/>
<text text-anchor="middle" x="167.86" y="-82.55" font-family="Times,serif" font-size="9.00">1</text>
</g>
<!-- &#45;1&#45;&gt;1 -->
<g id="edge39" class="edge">
<title>&#45;1&#45;&gt;1</title>
<path fill="none" stroke="red" stroke-width="0.46" d="M126.96,-157.01C133.78,-145.31 146.09,-124.19 155.43,-108.17"/>
<polygon fill="red" stroke="red" stroke-width="0.46" points="158.42,-109.99 160.43,-99.59 152.37,-106.46 158.42,-109.99"/>
</g>
<!-- 4 -->
<g id="node25" class="node">
<title>4</title>
<ellipse fill="lightblue" stroke="black" cx="121.86" cy="-14.5" rx="14.5" ry="14.5"/>
<text text-anchor="middle" x="121.86" y="-11.2" font-family="Times,serif" font-size="9.00">4</text>
</g>
<!-- &#45;1&#45;&gt;4 -->
<g id="edge45" class="edge">
<title>&#45;1&#45;&gt;4</title>
<path fill="none" stroke="red" stroke-width="0.55" d="M121.86,-157.24C121.86,-134.93 121.86,-74.11 121.86,-39.83"/>
<polygon fill="red" stroke="red" stroke-width="0.55" points="125.36,-40.15 121.86,-30.15 118.36,-40.15 125.36,-40.15"/>
</g>
<!-- &#45;2 -->
<g id="node2" class="node">
<title>&#45;2</title>
<polygon fill="lightgray" stroke="black" points="624.61,-421.89 601.11,-421.89 601.11,-403.39 624.61,-403.39 624.61,-421.89"/>
<text text-anchor="middle" x="612.86" y="-409.34" font-family="Times,serif" font-size="9.00">&#45;2</text>
</g>
<!-- 0 -->
<g id="node21" class="node">
<title>0</title>
<ellipse fill="lightblue" stroke="black" cx="370.86" cy="-14.5" rx="14.5" ry="14.5"/>
<text text-anchor="middle" x="370.86" y="-11.2" font-family="Times,serif" font-size="9.00">0</text>
</g>
<!-- &#45;2&#45;&gt;0 -->
<g id="edge40" class="edge">
<title>&#45;2&#45;&gt;0</title>
<path fill="none" stroke="red" stroke-width="0.59" d="M614.9,-403.21C620.53,-379.22 635.86,-308.38 635.86,-248.65 635.86,-248.65 635.86,-248.65 635.86,-165.75 635.86,-56.24 462.48,-25.58 396.2,-17.86"/>
<polygon fill="red" stroke="red" stroke-width="0.59" points="396.68,-14.39 386.37,-16.8 395.93,-21.35 396.68,-14.39"/>
</g>
<!-- 394 -->
<g id="node28" class="node">
<title>394</title>
<ellipse fill="white" stroke="black" cx="449.86" cy="-328.55" rx="20.86" ry="20.86"/>
<text text-anchor="middle" x="449.86" y="-325.25" font-family="Times,serif" font-size="9.00">394</text>
</g>
<!-- &#45;2&#45;&gt;394 -->
<g id="edge24" class="edge">
<title>&#45;2&#45;&gt;394</title>
<path fill="none" stroke="green" stroke-width="0.26" d="M600.94,-405.31C592.11,-400.64 579.77,-394.16 568.86,-388.6 537.8,-372.76 501.93,-355.04 477.75,-343.18"/>
<polygon fill="green" stroke="green" stroke-width="0.26" points="479.34,-340.06 468.82,-338.81 476.26,-346.35 479.34,-340.06"/>
</g>
<!-- &#45;3 -->
<g id="node3" class="node">
<title>&#45;3</title>
<polygon fill="lightgray" stroke="black" points="327.61,-491.18 304.11,-491.18 304.11,-472.68 327.61,-472.68 327.61,-491.18"/>
<text text-anchor="middle" x="315.86" y="-478.63" font-family="Times,serif" font-size="9.00">&#45;3</text>
</g>
<!-- &#45;4 -->
<g id="node4" class="node">
<title>&#45;4</title>
<polygon fill="lightgray" stroke="black" points="205.61,-256.9 182.11,-256.9 182.11,-238.4 205.61,-238.4 205.61,-256.9"/>
<text text-anchor="middle" x="193.86" y="-244.35" font-family="Times,serif" font-size="9.00">&#45;4</text>
</g>
<!-- 395 -->
<g id="node29" class="node">
<title>395</title>
<ellipse fill="white" stroke="black" cx="172.86" cy="-166.75" rx="20.86" ry="20.86"/>
<text text-anchor="middle" x="172.86" y="-163.45" font-family="Times,serif" font-size="9.00">395</text>
</g>
<!-- &#45;4&#45;&gt;395 -->
<g id="edge1" class="edge">
<title>&#45;4&#45;&gt;395</title>
<path fill="none" stroke="green" stroke-width="0.33" stroke-dasharray="1,5" d="M191.53,-237.91C188.94,-228.16 184.6,-211.86 180.76,-197.42"/>
<polygon fill="green" stroke="green" stroke-width="0.33" points="184.16,-196.61 178.21,-187.85 177.4,-198.41 184.16,-196.61"/>
</g>
<!-- &#45;5 -->
<g id="node5" class="node">
<title>&#45;5</title>
<polygon fill="lightgray" stroke="black" points="323.61,-421.89 300.11,-421.89 300.11,-403.39 323.61,-403.39 323.61,-421.89"/>
<text text-anchor="middle" x="311.86" y="-409.34" font-family="Times,serif" font-size="9.00">&#45;5</text>
</g>
<!-- &#45;5&#45;&gt;394 -->
<g id="edge8" class="edge">
<title>&#45;5&#45;&gt;394</title>
<path fill="none" stroke="green" stroke-width="0.3" stroke-dasharray="1,5" d="M318.22,-403.26C322.09,-398.55 327.34,-392.79 332.86,-388.6 360.25,-367.79 396.09,-350.97 420.85,-340.68"/>
<polygon fill="green" stroke="green" stroke-width="0.3" points="422.04,-343.98 429.99,-336.98 419.4,-337.49 422.04,-343.98"/>
</g>
<!-- &#45;5&#45;&gt;395 -->
<g id="edge19" class="edge">
<title>&#45;5&#45;&gt;395</title>
<path fill="none" stroke="green" stroke-width="0.18" stroke-dasharray="1,5" d="M309.39,-402.96C301.3,-375.45 273.71,-288.4 231.86,-226.79 221.91,-212.14 208.01,-198.02 196.2,-187.27"/>
<polygon fill="green" stroke="green" stroke-width="0.18" points="198.82,-184.91 189.01,-180.9 194.18,-190.15 198.82,-184.91"/>
</g>
<!-- &#45;6 -->
<g id="node6" class="node">
<title>&#45;6</title>
<polygon fill="lightgray" stroke="black" points="431.61,-421.89 408.11,-421.89 408.11,-403.39 431.61,-403.39 431.61,-421.89"/>
<text text-anchor="middle" x="419.86" y="-409.34" font-family="Times,serif" font-size="9.00">&#45;6</text>
</g>
<!-- &#45;6&#45;&gt;394 -->
<g id="edge20" class="edge">
<title>&#45;6&#45;&gt;394</title>
<path fill="none" stroke="red" stroke-width="0.43" stroke-dasharray="1,5" d="M422.96,-403.16C426.79,-392.68 433.51,-374.28 439.28,-358.51"/>
<polygon fill="red" stroke="red" stroke-width="0.43" points="442.52,-359.83 442.67,-349.24 435.95,-357.43 442.52,-359.83"/>
</g>
<!-- &#45;7 -->
<g id="node7" class="node">
<title>&#45;7</title>
<polygon fill="lightgray" stroke="black" points="369.61,-491.18 346.11,-491.18 346.11,-472.68 369.61,-472.68 369.61,-491.18"/>
<text text-anchor="middle" x="357.86" y="-478.63" font-family="Times,serif" font-size="9.00">&#45;7</text>
</g>
<!-- &#45;8 -->
<g id="node8" class="node">
<title>&#45;8</title>
<polygon fill="lightgray" stroke="black" points="224.61,-337.8 201.11,-337.8 201.11,-319.3 224.61,-319.3 224.61,-337.8"/>
<text text-anchor="middle" x="212.86" y="-325.25" font-family="Times,serif" font-size="9.00">&#45;8</text>
</g>
<!-- &#45;8&#45;&gt;395 -->
<g id="edge4" class="edge">
<title>&#45;8&#45;&gt;395</title>
<path fill="none" stroke="red" stroke-width="0.48" stroke-dasharray="1,5" d="M214.86,-318.93C218.58,-301.17 225.29,-259.46 214.86,-226.79 210.61,-213.5 202.16,-200.64 193.94,-190.34"/>
<polygon fill="red" stroke="red" stroke-width="0.48" points="196.79,-188.28 187.66,-182.88 191.43,-192.79 196.79,-188.28"/>
</g>
<!-- 848 -->
<g id="node31" class="node">
<title>848</title>
<ellipse fill="white" stroke="black" cx="20.86" cy="-247.65" rx="20.86" ry="20.86"/>
<text text-anchor="middle" x="20.86" y="-244.35" font-family="Times,serif" font-size="9.00">848</text>
</g>
<!-- &#45;8&#45;&gt;848 -->
<g id="edge29" class="edge">
<title>&#45;8&#45;&gt;848</title>
<path fill="none" stroke="red" stroke-width="0.62" stroke-dasharray="1,5" d="M200.85,-322.62C171.03,-310.37 92.94,-278.27 50.07,-260.66"/>
<polygon fill="red" stroke="red" stroke-width="0.62" points="51.43,-257.43 40.85,-256.87 48.77,-263.91 51.43,-257.43"/>
</g>
<!-- &#45;9 -->
<g id="node9" class="node">
<title>&#45;9</title>
<polygon fill="lightgray" stroke="black" points="411.61,-491.18 388.11,-491.18 388.11,-472.68 411.61,-472.68 411.61,-491.18"/>
<text text-anchor="middle" x="399.86" y="-478.63" font-family="Times,serif" font-size="9.00">&#45;9</text>
</g>
<!-- &#45;10 -->
<g id="node10" class="node">
<title>&#45;10</title>
<polygon fill="lightgray" stroke="black" points="559.86,-421.89 531.86,-421.89 531.86,-403.39 559.86,-403.39 559.86,-421.89"/>
<text text-anchor="middle" x="545.86" y="-409.34" font-family="Times,serif" font-size="9.00">&#45;10</text>
</g>
<!-- 1411 -->
<g id="node26" class="node">
<title>1411</title>
<ellipse fill="white" stroke="black" cx="545.86" cy="-328.55" rx="24.04" ry="24.04"/>
<text text-anchor="middle" x="545.86" y="-325.25" font-family="Times,serif" font-size="9.00">1411</text>
</g>
<!-- &#45;10&#45;&gt;1411 -->
<g id="edge33" class="edge">
<title>&#45;10&#45;&gt;1411</title>
<path fill="none" stroke="green" stroke-width="0.17" d="M545.86,-403.16C545.86,-393.64 545.86,-377.6 545.86,-362.92"/>
<polygon fill="green" stroke="green" stroke-width="0.17" points="549.36,-363.33 545.86,-353.33 542.36,-363.33 549.36,-363.33"/>
</g>
<!-- &#45;10&#45;&gt;394 -->
<g id="edge7" class="edge">
<title>&#45;10&#45;&gt;394</title>
<path fill="none" stroke="green" stroke-width="0.32" stroke-dasharray="1,5" d="M535.95,-403.16C521.3,-390.63 493.43,-366.81 473.36,-349.65"/>
<polygon fill="green" stroke="green" stroke-width="0.32" points="475.81,-347.13 465.93,-343.3 471.26,-352.45 475.81,-347.13"/>
</g>
<!-- 396 -->
<g id="node30" class="node">
<title>396</title>
<ellipse fill="white" stroke="black" cx="370.86" cy="-85.85" rx="20.86" ry="20.86"/>
<text text-anchor="middle" x="370.86" y="-82.55" font-family="Times,serif" font-size="9.00">396</text>
</g>
<!-- &#45;10&#45;&gt;396 -->
<g id="edge31" class="edge">
<title>&#45;10&#45;&gt;396</title>
<path fill="none" stroke="green" stroke-width="0.31" stroke-dasharray="1,5" d="M552.54,-403.05C560.62,-392.08 573.77,-372.14 578.86,-352.6 602.43,-262.13 626.23,-213.24 564.86,-142.71 523.82,-95.55 445.78,-86.99 402.23,-86.14"/>
<polygon fill="green" stroke="green" stroke-width="0.31" points="402.44,-82.64 392.42,-86.07 402.39,-89.64 402.44,-82.64"/>
</g>
<!-- &#45;11 -->
<g id="node11" class="node">
<title>&#45;11</title>
<polygon fill="lightgray" stroke="black" points="457.86,-491.18 429.86,-491.18 429.86,-472.68 457.86,-472.68 457.86,-491.18"/>
<text text-anchor="middle" x="443.86" y="-478.63" font-family="Times,serif" font-size="9.00">&#45;11</text>
</g>
<!-- &#45;12 -->
<g id="node12" class="node">
<title>&#45;12</title>
<polygon fill="lightgray" stroke="black" points="285.86,-491.18 257.86,-491.18 257.86,-472.68 285.86,-472.68 285.86,-491.18"/>
<text text-anchor="middle" x="271.86" y="-478.63" font-family="Times,serif" font-size="9.00">&#45;12</text>
</g>
<!-- &#45;12&#45;&gt;394 -->
<g id="edge6" class="edge">
<title>&#45;12&#45;&gt;394</title>
<path fill="none" stroke="green" stroke-width="0.3" stroke-dasharray="1,5" d="M285.89,-475.64C288.84,-474.6 291.94,-473.56 294.86,-472.68 358.84,-453.37 397.48,-487.52 440.86,-436.68 458.82,-415.63 459,-383.02 455.96,-359.31"/>
<polygon fill="green" stroke="green" stroke-width="0.3" points="459.44,-358.91 454.46,-349.56 452.52,-359.98 459.44,-358.91"/>
</g>
<!-- &#45;12&#45;&gt;395 -->
<g id="edge10" class="edge">
<title>&#45;12&#45;&gt;395</title>
<path fill="none" stroke="green" stroke-width="0.77" stroke-dasharray="1,5" d="M257.41,-478.13C235.67,-473.25 194.38,-461.24 168.86,-436.68 109.23,-379.29 107.08,-349.25 88.86,-268.51 84.78,-250.43 80.11,-243.14 88.86,-226.79 102.47,-201.36 119.41,-207.59 142.86,-190.79 144.58,-189.56 146.35,-188.27 148.11,-186.96"/>
<polygon fill="green" stroke="green" stroke-width="0.77" points="150.02,-189.91 155.89,-181.09 145.8,-184.33 150.02,-189.91"/>
</g>
<!-- &#45;12&#45;&gt;396 -->
<g id="edge25" class="edge">
<title>&#45;12&#45;&gt;396</title>
<path fill="none" stroke="green" stroke-width="0.39" d="M270.44,-472.38C262.27,-422.56 222.17,-171.09 240.86,-142.71 252.34,-125.28 305.85,-106.38 340.54,-95.64"/>
<polygon fill="green" stroke="green" stroke-width="0.39" points="341.51,-99 350.07,-92.75 339.48,-92.3 341.51,-99"/>
</g>
<!-- &#45;12&#45;&gt;848 -->
<g id="edge32" class="edge">
<title>&#45;12&#45;&gt;848</title>
<path fill="none" stroke="green" stroke-width="0.9" d="M257.43,-480.02C213.76,-476.98 84.29,-465.63 55.86,-436.68 14.8,-394.87 13.72,-321.34 17.01,-279.7"/>
<polygon fill="green" stroke="green" stroke-width="0.9" points="20.47,-280.25 17.92,-269.96 13.5,-279.59 20.47,-280.25"/>
</g>
<!-- 2043 -->
<g id="node33" class="node">
<title>2043</title>
<ellipse fill="white" stroke="black" cx="365.86" cy="-412.64" rx="24.04" ry="24.04"/>
<text text-anchor="middle" x="365.86" y="-409.34" font-family="Times,serif" font-size="9.00">2043</text>
</g>
<!-- &#45;12&#45;&gt;2043 -->
<g id="edge43" class="edge">
<title>&#45;12&#45;&gt;2043</title>
<path fill="none" stroke="green" stroke-width="0.19" d="M283.76,-472.41C297.47,-462.59 320.44,-446.15 338.6,-433.15"/>
<polygon fill="green" stroke="green" stroke-width="0.19" points="340.23,-436.29 346.33,-427.62 336.16,-430.6 340.23,-436.29"/>
</g>
<!-- &#45;13 -->
<g id="node13" class="node">
<title>&#45;13</title>
<polygon fill="lightgray" stroke="black" points="205.86,-421.89 177.86,-421.89 177.86,-403.39 205.86,-403.39 205.86,-421.89"/>
<text text-anchor="middle" x="191.86" y="-409.34" font-family="Times,serif" font-size="9.00">&#45;13</text>
</g>
<!-- &#45;13&#45;&gt;394 -->
<g id="edge15" class="edge">
<title>&#45;13&#45;&gt;394</title>
<path fill="none" stroke="red" stroke-width="0.47" stroke-dasharray="1,5" d="M206.1,-407.11C246.79,-394.16 364.21,-356.8 419.89,-339.09"/>
<polygon fill="red" stroke="red" stroke-width="0.47" points="420.7,-342.5 429.17,-336.14 418.58,-335.83 420.7,-342.5"/>
</g>
<!-- &#45;13&#45;&gt;395 -->
<g id="edge2" class="edge">
<title>&#45;13&#45;&gt;395</title>
<path fill="none" stroke="red" stroke-width="0.2" d="M190.3,-402.97C186.39,-380.72 176.25,-319.79 172.86,-268.51 171.3,-244.84 171.39,-217.97 171.82,-197.93"/>
<polygon fill="red" stroke="red" stroke-width="0.2" points="175.32,-198.24 172.07,-188.15 168.32,-198.06 175.32,-198.24"/>
</g>
<!-- &#45;14 -->
<g id="node14" class="node">
<title>&#45;14</title>
<polygon fill="lightgray" stroke="black" points="365.86,-256.9 337.86,-256.9 337.86,-238.4 365.86,-238.4 365.86,-256.9"/>
<text text-anchor="middle" x="351.86" y="-244.35" font-family="Times,serif" font-size="9.00">&#45;14</text>
</g>
<!-- &#45;14&#45;&gt;395 -->
<g id="edge16" class="edge">
<title>&#45;14&#45;&gt;395</title>
<path fill="none" stroke="red" stroke-width="0.23" stroke-dasharray="1,5" d="M341.09,-238.08C336.05,-234.31 329.84,-230.02 323.86,-226.79 302.14,-215.08 239.34,-191.71 201.92,-178.15"/>
<polygon fill="red" stroke="red" stroke-width="0.23" points="203.47,-174.99 192.87,-174.89 201.09,-181.58 203.47,-174.99"/>
</g>
<!-- &#45;14&#45;&gt;396 -->
<g id="edge21" class="edge">
<title>&#45;14&#45;&gt;396</title>
<path fill="none" stroke="green" stroke-width="0.1" d="M352.88,-238.06C355.56,-215.54 362.88,-153.99 367.31,-116.72"/>
<polygon fill="green" stroke="green" stroke-width="0.1" points="370.75,-117.4 368.46,-107.06 363.8,-116.58 370.75,-117.4"/>
</g>
<!-- &#45;15 -->
<g id="node15" class="node">
<title>&#45;15</title>
<polygon fill="lightgray" stroke="black" points="277.86,-176 249.86,-176 249.86,-157.5 277.86,-157.5 277.86,-176"/>
<text text-anchor="middle" x="263.86" y="-163.45" font-family="Times,serif" font-size="9.00">&#45;15</text>
</g>
<!-- &#45;15&#45;&gt;396 -->
<g id="edge18" class="edge">
<title>&#45;15&#45;&gt;396</title>
<path fill="none" stroke="green" stroke-width="0.27" d="M271.57,-157.24C275.87,-152.7 281.44,-147.15 286.86,-142.71 305.03,-127.82 327.23,-113.19 344.24,-102.65"/>
<polygon fill="green" stroke="green" stroke-width="0.27" points="346.04,-105.64 352.75,-97.44 342.39,-99.67 346.04,-105.64"/>
</g>
<!-- &#45;16 -->
<g id="node16" class="node">
<title>&#45;16</title>
<polygon fill="lightgray" stroke="black" points="413.86,-256.9 385.86,-256.9 385.86,-238.4 413.86,-238.4 413.86,-256.9"/>
<text text-anchor="middle" x="399.86" y="-244.35" font-family="Times,serif" font-size="9.00">&#45;16</text>
</g>
<!-- 1639 -->
<g id="node27" class="node">
<title>1639</title>
<ellipse fill="white" stroke="black" cx="507.86" cy="-166.75" rx="24.04" ry="24.04"/>
<text text-anchor="middle" x="507.86" y="-163.45" font-family="Times,serif" font-size="9.00">1639</text>
</g>
<!-- &#45;16&#45;&gt;1639 -->
<g id="edge35" class="edge">
<title>&#45;16&#45;&gt;1639</title>
<path fill="none" stroke="red" stroke-width="0.4" d="M411.68,-237.94C416.4,-234.47 421.88,-230.44 426.86,-226.79 444.63,-213.78 464.63,-199.21 480.31,-187.79"/>
<polygon fill="red" stroke="red" stroke-width="0.4" points="482.01,-190.88 488.04,-182.17 477.89,-185.22 482.01,-190.88"/>
</g>
<!-- &#45;16&#45;&gt;395 -->
<g id="edge17" class="edge">
<title>&#45;16&#45;&gt;395</title>
<path fill="none" stroke="red" stroke-width="0.42" stroke-dasharray="1,5" d="M390.76,-237.93C386.27,-234.04 380.6,-229.69 374.86,-226.79 319.79,-199.04 299.87,-208.7 240.86,-190.79 228.13,-186.93 214.19,-182.28 202.27,-178.18"/>
<polygon fill="red" stroke="red" stroke-width="0.42" points="203.59,-174.93 193,-174.95 201.29,-181.54 203.59,-174.93"/>
</g>
<!-- &#45;16&#45;&gt;396 -->
<g id="edge5" class="edge">
<title>&#45;16&#45;&gt;396</title>
<path fill="none" stroke="red" stroke-width="0.11" stroke-dasharray="1,5" d="M398.3,-238.06C394.2,-215.48 382.98,-153.66 376.23,-116.43"/>
<polygon fill="red" stroke="red" stroke-width="0.11" points="379.71,-116.01 374.48,-106.79 372.82,-117.26 379.71,-116.01"/>
</g>
<!-- 2002 -->
<g id="node32" class="node">
<title>2002</title>
<ellipse fill="white" stroke="black" cx="441.86" cy="-166.75" rx="24.04" ry="24.04"/>
<text text-anchor="middle" x="441.86" y="-163.45" font-family="Times,serif" font-size="9.00">2002</text>
</g>
<!-- &#45;16&#45;&gt;2002 -->
<g id="edge41" class="edge">
<title>&#45;16&#45;&gt;2002</title>
<path fill="none" stroke="green" stroke-width="0.79" d="M404.51,-237.91C409.65,-228.26 418.2,-212.2 425.83,-197.87"/>
<polygon fill="green" stroke="green" stroke-width="0.79" points="428.73,-199.87 430.34,-189.39 422.55,-196.58 428.73,-199.87"/>
</g>
<!-- &#45;17 -->
<g id="node17" class="node">
<title>&#45;17</title>
<polygon fill="lightgray" stroke="black" points="503.86,-491.18 475.86,-491.18 475.86,-472.68 503.86,-472.68 503.86,-491.18"/>
<text text-anchor="middle" x="489.86" y="-478.63" font-family="Times,serif" font-size="9.00">&#45;17</text>
</g>
<!-- &#45;18 -->
<g id="node18" class="node">
<title>&#45;18</title>
<polygon fill="lightgray" stroke="black" points="323.86,-176 295.86,-176 295.86,-157.5 323.86,-157.5 323.86,-176"/>
<text text-anchor="middle" x="309.86" y="-163.45" font-family="Times,serif" font-size="9.00">&#45;18</text>
</g>
<!-- &#45;18&#45;&gt;396 -->
<g id="edge27" class="edge">
<title>&#45;18&#45;&gt;396</title>
<path fill="none" stroke="green" stroke-width="0.2" stroke-dasharray="1,5" d="M316.62,-157.01C325.18,-145.94 340.26,-126.43 352.36,-110.78"/>
<polygon fill="green" stroke="green" stroke-width="0.2" points="354.83,-113.31 358.17,-103.26 349.29,-109.03 354.83,-113.31"/>
</g>
<!-- &#45;19 -->
<g id="node19" class="node">
<title>&#45;19</title>
<polygon fill="lightgray" stroke="black" points="125.86,-256.9 97.86,-256.9 97.86,-238.4 125.86,-238.4 125.86,-256.9"/>
<text text-anchor="middle" x="111.86" y="-244.35" font-family="Times,serif" font-size="9.00">&#45;19</text>
</g>
<!-- &#45;19&#45;&gt;395 -->
<g id="edge28" class="edge">
<title>&#45;19&#45;&gt;395</title>
<path fill="none" stroke="green" stroke-width="0.15" stroke-dasharray="1,5" d="M118.62,-237.91C127.18,-226.84 142.26,-207.33 154.36,-191.69"/>
<polygon fill="green" stroke="green" stroke-width="0.15" points="156.87,-194.16 160.21,-184.11 151.33,-189.88 156.87,-194.16"/>
</g>
<!-- &#45;20 -->
<g id="node20" class="node">
<title>&#45;20</title>
<polygon fill="lightgray" stroke="black" points="549.86,-491.18 521.86,-491.18 521.86,-472.68 549.86,-472.68 549.86,-491.18"/>
<text text-anchor="middle" x="535.86" y="-478.63" font-family="Times,serif" font-size="9.00">&#45;20</text>
</g>
<!-- 0&#45;&gt;0 -->
<g id="edge23" class="edge">
<title>0&#45;&gt;0</title>
<path fill="none" stroke="green" stroke-width="0.27" stroke-dasharray="1,5" d="M381.18,-24.94C391.67,-31.08 403.36,-27.6 403.36,-14.5 403.36,-5.49 397.83,-1.03 390.97,-1.12"/>
<polygon fill="green" stroke="green" stroke-width="0.27" points="390.14,2.29 381.56,-3.94 392.15,-4.42 390.14,2.29"/>
</g>
<!-- 2 -->
<g id="node23" class="node">
<title>2</title>
<ellipse fill="lightblue" stroke="black" cx="498.86" cy="-247.65" rx="14.5" ry="14.5"/>
<text text-anchor="middle" x="498.86" y="-244.35" font-family="Times,serif" font-size="9.00">2</text>
</g>
<!-- 2&#45;&gt;2 -->
<g id="edge22" class="edge">
<title>2&#45;&gt;2</title>
<path fill="none" stroke="red" stroke-width="0.3" d="M508.51,-259.03C519.17,-266.61 531.36,-262.82 531.36,-247.65 531.36,-236.99 525.33,-231.95 518.05,-232.53"/>
<polygon fill="red" stroke="red" stroke-width="0.3" points="516.96,-229.2 508.93,-236.11 519.52,-235.71 516.96,-229.2"/>
</g>
<!-- 2&#45;&gt;1639 -->
<g id="edge37" class="edge">
<title>2&#45;&gt;1639</title>
<path fill="none" stroke="green" stroke-width="0.22" d="M500.43,-232.91C501.44,-224.05 502.8,-212.14 504.08,-200.91"/>
<polygon fill="green" stroke="green" stroke-width="0.22" points="507.52,-201.58 505.18,-191.25 500.57,-200.79 507.52,-201.58"/>
</g>
<!-- 3 -->
<g id="node24" class="node">
<title>3</title>
<ellipse fill="lightblue" stroke="black" cx="449.86" cy="-247.65" rx="14.5" ry="14.5"/>
<text text-anchor="middle" x="449.86" y="-244.35" font-family="Times,serif" font-size="9.00">3</text>
</g>
<!-- 1411&#45;&gt;396 -->
<g id="edge34" class="edge">
<title>1411&#45;&gt;396</title>
<path fill="none" stroke="red" stroke-width="0.12" stroke-dasharray="1,5" d="M552.7,-305.3C562.78,-267.7 576.82,-190.98 540.86,-142.71 508.65,-99.46 441.96,-89.18 402.36,-87.04"/>
<polygon fill="red" stroke="red" stroke-width="0.12" points="402.51,-83.55 392.38,-86.65 402.24,-90.54 402.51,-83.55"/>
</g>
<!-- 1639&#45;&gt;396 -->
<g id="edge36" class="edge">
<title>1639&#45;&gt;396</title>
<path fill="none" stroke="red" stroke-width="0.28" stroke-dasharray="1,5" d="M488.57,-151.72C484.13,-148.65 479.38,-145.49 474.86,-142.71 449.57,-127.17 419.62,-111.33 398.36,-100.51"/>
<polygon fill="red" stroke="red" stroke-width="0.28" points="400.14,-97.49 389.64,-96.1 396.99,-103.74 400.14,-97.49"/>
</g>
<!-- 394&#45;&gt;2 -->
<g id="edge14" class="edge">
<title>394&#45;&gt;2</title>
<path fill="none" stroke="red" stroke-width="0.14" stroke-dasharray="1,5" d="M460.49,-310.43C468.01,-298.33 478.13,-282.03 486.09,-269.22"/>
<polygon fill="red" stroke="red" stroke-width="0.14" points="489.02,-271.14 491.32,-260.8 483.07,-267.45 489.02,-271.14"/>
</g>
<!-- 394&#45;&gt;3 -->
<g id="edge9" class="edge">
<title>394&#45;&gt;3</title>
<path fill="none" stroke="green" stroke-width="0.16" d="M449.86,-307.24C449.86,-296.58 449.86,-283.46 449.86,-272.35"/>
<polygon fill="green" stroke="green" stroke-width="0.16" points="453.36,-272.69 449.86,-262.69 446.36,-272.69 453.36,-272.69"/>
</g>
<!-- 395&#45;&gt;0 -->
<g id="edge3" class="edge">
<title>395&#45;&gt;0</title>
<path fill="none" stroke="red" stroke-width="0.21" stroke-dasharray="1,5" d="M189.06,-153.46C225.3,-125.96 312.75,-59.6 351.65,-30.08"/>
<polygon fill="red" stroke="red" stroke-width="0.21" points="353.49,-33.07 359.34,-24.24 349.26,-27.5 353.49,-33.07"/>
</g>
<!-- 395&#45;&gt;1 -->
<g id="edge12" class="edge">
<title>395&#45;&gt;1</title>
<path fill="none" stroke="red" stroke-width="0.65" d="M171.57,-145.43C170.92,-135.11 170.12,-122.47 169.43,-111.58"/>
<polygon fill="red" stroke="red" stroke-width="0.65" points="172.92,-111.39 168.8,-101.63 165.94,-111.83 172.92,-111.39"/>
</g>
<!-- 396&#45;&gt;0 -->
<g id="edge13" class="edge">
<title>396&#45;&gt;0</title>
<path fill="none" stroke="green" stroke-width="0.13" stroke-dasharray="1,5" d="M370.86,-64.79C370.86,-56.89 370.86,-47.75 370.86,-39.5"/>
<polygon fill="green" stroke="green" stroke-width="0.13" points="374.36,-39.56 370.86,-29.56 367.36,-39.56 374.36,-39.56"/>
</g>
<!-- 396&#45;&gt;4 -->
<g id="edge11" class="edge">
<title>396&#45;&gt;4</title>
<path fill="none" stroke="red" stroke-width="0.18" d="M350.9,-79.29C305.43,-66.63 194.26,-35.66 145.47,-22.07"/>
<polygon fill="red" stroke="red" stroke-width="0.18" points="146.62,-18.76 136.05,-19.45 144.74,-25.5 146.62,-18.76"/>
</g>
<!-- 396&#45;&gt;396 -->
<g id="edge26" class="edge">
<title>396&#45;&gt;396</title>
<path fill="none" stroke="green" stroke-width="0.19" stroke-dasharray="1,5" d="M388.04,-98.17C399.09,-101.39 409.72,-97.28 409.72,-85.85 409.72,-77.99 404.69,-73.6 397.96,-72.66"/>
<polygon fill="green" stroke="green" stroke-width="0.19" points="397.98,-69.15 388.32,-73.51 398.59,-76.12 397.98,-69.15"/>
</g>
<!-- 848&#45;&gt;4 -->
<g id="edge38" class="edge">
<title>848&#45;&gt;4</title>
<path fill="none" stroke="red" stroke-width="0.38" d="M28.95,-228.13C47.37,-185.99 92.33,-83.09 112.17,-37.67"/>
<polygon fill="red" stroke="red" stroke-width="0.38" points="115.3,-39.25 116.1,-28.69 108.88,-36.45 115.3,-39.25"/>
</g>
<!-- 848&#45;&gt;395 -->
<g id="edge30" class="edge">
<title>848&#45;&gt;395</title>
<path fill="none" stroke="green" stroke-width="0.16" d="M38.44,-236.12C43.94,-232.97 50.08,-229.61 55.86,-226.79 93.46,-208.43 106.62,-211.72 142.86,-190.79 145,-189.56 147.16,-188.19 149.28,-186.75"/>
<polygon fill="green" stroke="green" stroke-width="0.16" points="150.98,-189.84 157.02,-181.14 146.87,-184.18 150.98,-189.84"/>
</g>
<!-- 2002&#45;&gt;396 -->
<g id="edge42" class="edge">
<title>2002&#45;&gt;396</title>
<path fill="none" stroke="green" stroke-width="0.23" d="M426.1,-148.24C415.85,-136.85 402.37,-121.87 391.29,-109.56"/>
<polygon fill="green" stroke="green" stroke-width="0.23" points="393.94,-107.27 384.65,-102.18 388.74,-111.95 393.94,-107.27"/>
</g>
<!-- 2043&#45;&gt;394 -->
<g id="edge44" class="edge">
<title>2043&#45;&gt;394</title>
<path fill="none" stroke="red" stroke-width="0.11" d="M382.86,-395.03C395.92,-382.26 414.06,-364.54 428.17,-350.75"/>
<polygon fill="red" stroke="red" stroke-width="0.11" points="430.31,-353.56 435.01,-344.06 425.41,-348.55 430.31,-353.56"/>
</g>
</g>
</svg>
