<?xml version="1.0" encoding="UTF-8" standalone="no"?>
<!DOCTYPE svg PUBLIC "-//W3C//DTD SVG 1.1//EN"
 "http://www.w3.org/Graphics/SVG/1.1/DTD/svg11.dtd">
<!-- Generated by graphviz version 12.1.1 (20240910.0053)
 -->
<!-- Pages: 1 -->
<svg width="979pt" height="251pt"
 viewBox="0.00 0.00 979.25 251.06" xmlns="http://www.w3.org/2000/svg" xmlns:xlink="http://www.w3.org/1999/xlink">
<g id="graph0" class="graph" transform="scale(1 1) rotate(0) translate(4 247.06)">
<polygon fill="white" stroke="none" points="-4,4 -4,-247.06 975.25,-247.06 975.25,4 -4,4"/>
<!-- &#45;1 -->
<g id="node1" class="node">
<title>&#45;1</title>
<polygon fill="lightgray" stroke="black" points="103.5,-166.46 80,-166.46 80,-147.96 103.5,-147.96 103.5,-166.46"/>
<text text-anchor="middle" x="91.75" y="-153.91" font-family="Times,serif" font-size="9.00">&#45;1</text>
</g>
<!-- 42 -->
<g id="node28" class="node">
<title>42</title>
<ellipse fill="white" stroke="black" cx="113.75" cy="-82.67" rx="17.68" ry="17.68"/>
<text text-anchor="middle" x="113.75" y="-79.37" font-family="Times,serif" font-size="9.00">42</text>
</g>
<!-- &#45;1&#45;&gt;42 -->
<g id="edge4" class="edge">
<title>&#45;1&#45;&gt;42</title>
<path fill="none" stroke="red" stroke-width="0.11" stroke-dasharray="1,5" d="M94.36,-147.6C97.19,-138.27 101.84,-122.93 105.88,-109.61"/>
<polygon fill="red" stroke="red" stroke-width="0.11" points="109.21,-110.7 108.76,-100.12 102.51,-108.67 109.21,-110.7"/>
</g>
<!-- 44 -->
<g id="node30" class="node">
<title>44</title>
<ellipse fill="white" stroke="black" cx="311.75" cy="-82.67" rx="17.68" ry="17.68"/>
<text text-anchor="middle" x="311.75" y="-79.37" font-family="Times,serif" font-size="9.00">44</text>
</g>
<!-- &#45;1&#45;&gt;44 -->
<g id="edge17" class="edge">
<title>&#45;1&#45;&gt;44</title>
<path fill="none" stroke="red" stroke-width="0.53" stroke-dasharray="1,5" d="M98.78,-147.83C102.55,-143.82 107.49,-139.28 112.75,-136.35 168.43,-105.34 243.09,-91.97 283.28,-86.71"/>
<polygon fill="red" stroke="red" stroke-width="0.53" points="283.59,-90.2 293.09,-85.51 282.73,-83.25 283.59,-90.2"/>
</g>
<!-- &#45;2 -->
<g id="node2" class="node">
<title>&#45;2</title>
<polygon fill="lightgray" stroke="black" points="772.5,-237.81 749,-237.81 749,-219.31 772.5,-219.31 772.5,-237.81"/>
<text text-anchor="middle" x="760.75" y="-225.26" font-family="Times,serif" font-size="9.00">&#45;2</text>
</g>
<!-- 41 -->
<g id="node27" class="node">
<title>41</title>
<ellipse fill="white" stroke="black" cx="535.75" cy="-82.67" rx="17.68" ry="17.68"/>
<text text-anchor="middle" x="535.75" y="-79.37" font-family="Times,serif" font-size="9.00">41</text>
</g>
<!-- &#45;2&#45;&gt;41 -->
<g id="edge31" class="edge">
<title>&#45;2&#45;&gt;41</title>
<path fill="none" stroke="green" stroke-width="0.35" stroke-dasharray="1,5" d="M748.7,-226.35C708.84,-222.1 582.18,-206.54 554.75,-178.07 537.66,-160.33 533.95,-131.75 533.88,-110.67"/>
<polygon fill="green" stroke="green" stroke-width="0.35" points="537.37,-111.04 534.11,-100.96 530.37,-110.88 537.37,-111.04"/>
</g>
<!-- 43 -->
<g id="node29" class="node">
<title>43</title>
<ellipse fill="white" stroke="black" cx="623.75" cy="-82.67" rx="17.68" ry="17.68"/>
<text text-anchor="middle" x="623.75" y="-79.37" font-family="Times,serif" font-size="9.00">43</text>
</g>
<!-- &#45;2&#45;&gt;43 -->
<g id="edge30" class="edge">
<title>&#45;2&#45;&gt;43</title>
<path fill="none" stroke="red" stroke-width="0.12" stroke-dasharray="1,5" d="M772.81,-218.87C775.65,-217.1 778.73,-215.38 781.75,-214.07 841.89,-188.01 884.46,-229.76 924.75,-178.07 936.15,-163.44 936.68,-150.54 924.75,-136.35 889.93,-94.9 719.33,-86.06 651.57,-84.18"/>
<polygon fill="red" stroke="red" stroke-width="0.12" points="651.88,-80.68 641.79,-83.93 651.71,-87.68 651.88,-80.68"/>
</g>
<!-- 442 -->
<g id="node31" class="node">
<title>442</title>
<ellipse fill="white" stroke="black" cx="760.75" cy="-157.21" rx="20.86" ry="20.86"/>
<text text-anchor="middle" x="760.75" y="-153.91" font-family="Times,serif" font-size="9.00">442</text>
</g>
<!-- &#45;2&#45;&gt;442 -->
<g id="edge42" class="edge">
<title>&#45;2&#45;&gt;442</title>
<path fill="none" stroke="green" stroke-width="0.11" d="M760.75,-219.06C760.75,-211.36 760.75,-199.54 760.75,-188.37"/>
<polygon fill="green" stroke="green" stroke-width="0.11" points="764.25,-188.59 760.75,-178.59 757.25,-188.59 764.25,-188.59"/>
</g>
<!-- &#45;3 -->
<g id="node3" class="node">
<title>&#45;3</title>
<polygon fill="lightgray" stroke="black" points="367.5,-166.46 344,-166.46 344,-147.96 367.5,-147.96 367.5,-166.46"/>
<text text-anchor="middle" x="355.75" y="-153.91" font-family="Times,serif" font-size="9.00">&#45;3</text>
</g>
<!-- &#45;3&#45;&gt;43 -->
<g id="edge37" class="edge">
<title>&#45;3&#45;&gt;43</title>
<path fill="none" stroke="red" stroke-width="0.42" stroke-dasharray="1,5" d="M362.7,-147.68C366.44,-143.63 371.39,-139.1 376.75,-136.35 451.65,-97.89 480.75,-119.46 562.75,-100.35 573.98,-97.73 586.26,-94.45 596.84,-91.5"/>
<polygon fill="red" stroke="red" stroke-width="0.42" points="597.47,-94.96 606.13,-88.86 595.56,-88.22 597.47,-94.96"/>
</g>
<!-- &#45;3&#45;&gt;44 -->
<g id="edge38" class="edge">
<title>&#45;3&#45;&gt;44</title>
<path fill="none" stroke="red" stroke-width="0.39" d="M350.53,-147.6C344.54,-137.72 334.46,-121.1 326.07,-107.28"/>
<polygon fill="red" stroke="red" stroke-width="0.39" points="329.1,-105.52 320.92,-98.78 323.11,-109.15 329.1,-105.52"/>
</g>
<!-- &#45;4 -->
<g id="node4" class="node">
<title>&#45;4</title>
<polygon fill="lightgray" stroke="black" points="23.5,-166.46 0,-166.46 0,-147.96 23.5,-147.96 23.5,-166.46"/>
<text text-anchor="middle" x="11.75" y="-153.91" font-family="Times,serif" font-size="9.00">&#45;4</text>
</g>
<!-- &#45;4&#45;&gt;42 -->
<g id="edge35" class="edge">
<title>&#45;4&#45;&gt;42</title>
<path fill="none" stroke="red" stroke-width="0.21" stroke-dasharray="1,5" d="M22.8,-147.59C27.39,-144.06 32.79,-139.96 37.75,-136.35 55.44,-123.47 75.83,-109.38 91.03,-99.01"/>
<polygon fill="red" stroke="red" stroke-width="0.21" points="92.76,-102.07 99.06,-93.56 88.82,-96.28 92.76,-102.07"/>
</g>
<!-- &#45;5 -->
<g id="node5" class="node">
<title>&#45;5</title>
<polygon fill="lightgray" stroke="black" points="823.5,-166.46 800,-166.46 800,-147.96 823.5,-147.96 823.5,-166.46"/>
<text text-anchor="middle" x="811.75" y="-153.91" font-family="Times,serif" font-size="9.00">&#45;5</text>
</g>
<!-- &#45;5&#45;&gt;43 -->
<g id="edge5" class="edge">
<title>&#45;5&#45;&gt;43</title>
<path fill="none" stroke="red" stroke-width="0.31" d="M804.28,-147.53C800.55,-143.65 795.77,-139.3 790.75,-136.35 745.82,-109.93 686.17,-95.27 651.67,-88.47"/>
<polygon fill="red" stroke="red" stroke-width="0.31" points="652.34,-85.03 641.86,-86.62 651.04,-91.91 652.34,-85.03"/>
</g>
<!-- &#45;6 -->
<g id="node6" class="node">
<title>&#45;6</title>
<polygon fill="lightgray" stroke="black" points="679.5,-166.46 656,-166.46 656,-147.96 679.5,-147.96 679.5,-166.46"/>
<text text-anchor="middle" x="667.75" y="-153.91" font-family="Times,serif" font-size="9.00">&#45;6</text>
</g>
<!-- &#45;6&#45;&gt;41 -->
<g id="edge33" class="edge">
<title>&#45;6&#45;&gt;41</title>
<path fill="none" stroke="green" stroke-width="0.33" d="M660.09,-147.83C656.32,-144.02 651.55,-139.63 646.75,-136.35 619.76,-117.87 585.29,-102.63 561.98,-93.38"/>
<polygon fill="green" stroke="green" stroke-width="0.33" points="563.47,-90.21 552.88,-89.85 560.94,-96.73 563.47,-90.21"/>
</g>
<!-- &#45;7 -->
<g id="node7" class="node">
<title>&#45;7</title>
<polygon fill="lightgray" stroke="black" points="409.5,-166.46 386,-166.46 386,-147.96 409.5,-147.96 409.5,-166.46"/>
<text text-anchor="middle" x="397.75" y="-153.91" font-family="Times,serif" font-size="9.00">&#45;7</text>
</g>
<!-- &#45;7&#45;&gt;43 -->
<g id="edge39" class="edge">
<title>&#45;7&#45;&gt;43</title>
<path fill="none" stroke="red" stroke-width="0.11" d="M404.76,-147.8C408.52,-143.78 413.47,-139.24 418.75,-136.35 476.6,-104.65 498.93,-117.05 562.75,-100.35 574.02,-97.4 586.42,-94.03 597.09,-91.09"/>
<polygon fill="red" stroke="red" stroke-width="0.11" points="597.82,-94.52 606.53,-88.48 595.96,-87.78 597.82,-94.52"/>
</g>
<!-- &#45;7&#45;&gt;44 -->
<g id="edge16" class="edge">
<title>&#45;7&#45;&gt;44</title>
<path fill="none" stroke="green" stroke-width="0.15" stroke-dasharray="1,5" d="M388.9,-147.55C385.2,-144.01 380.83,-139.92 376.75,-136.35 362.59,-123.94 346.1,-110.6 333.28,-100.44"/>
<polygon fill="green" stroke="green" stroke-width="0.15" points="335.64,-97.84 325.62,-94.41 331.31,-103.34 335.64,-97.84"/>
</g>
<!-- &#45;8 -->
<g id="node8" class="node">
<title>&#45;8</title>
<polygon fill="lightgray" stroke="black" points="814.5,-237.81 791,-237.81 791,-219.31 814.5,-219.31 814.5,-237.81"/>
<text text-anchor="middle" x="802.75" y="-225.26" font-family="Times,serif" font-size="9.00">&#45;8</text>
</g>
<!-- &#45;9 -->
<g id="node9" class="node">
<title>&#45;9</title>
<polygon fill="lightgray" stroke="black" points="721.5,-166.46 698,-166.46 698,-147.96 721.5,-147.96 721.5,-166.46"/>
<text text-anchor="middle" x="709.75" y="-153.91" font-family="Times,serif" font-size="9.00">&#45;9</text>
</g>
<!-- &#45;9&#45;&gt;41 -->
<g id="edge18" class="edge">
<title>&#45;9&#45;&gt;41</title>
<path fill="none" stroke="green" stroke-width="0.15" d="M702.24,-147.59C698.51,-143.72 693.73,-139.36 688.75,-136.35 667.08,-123.22 599.99,-102.44 562.24,-91.31"/>
<polygon fill="green" stroke="green" stroke-width="0.15" points="563.67,-88.08 553.09,-88.63 561.71,-94.8 563.67,-88.08"/>
</g>
<!-- &#45;9&#45;&gt;43 -->
<g id="edge28" class="edge">
<title>&#45;9&#45;&gt;43</title>
<path fill="none" stroke="green" stroke-width="0.35" stroke-dasharray="1,5" d="M700.9,-147.55C697.2,-144.01 692.83,-139.92 688.75,-136.35 674.72,-124.06 658.42,-110.85 645.65,-100.73"/>
<polygon fill="green" stroke="green" stroke-width="0.35" points="647.88,-98.03 637.86,-94.6 643.55,-103.53 647.88,-98.03"/>
</g>
<!-- &#45;10 -->
<g id="node10" class="node">
<title>&#45;10</title>
<polygon fill="lightgray" stroke="black" points="327.75,-237.81 299.75,-237.81 299.75,-219.31 327.75,-219.31 327.75,-237.81"/>
<text text-anchor="middle" x="313.75" y="-225.26" font-family="Times,serif" font-size="9.00">&#45;10</text>
</g>
<!-- 808 -->
<g id="node26" class="node">
<title>808</title>
<ellipse fill="white" stroke="black" cx="448.75" cy="-157.21" rx="20.86" ry="20.86"/>
<text text-anchor="middle" x="448.75" y="-153.91" font-family="Times,serif" font-size="9.00">808</text>
</g>
<!-- &#45;10&#45;&gt;808 -->
<g id="edge44" class="edge">
<title>&#45;10&#45;&gt;808</title>
<path fill="none" stroke="green" stroke-width="0.29" d="M328,-221.62C348.5,-212.91 387.31,-195.76 418.75,-178.07 420.25,-177.22 421.77,-176.33 423.29,-175.41"/>
<polygon fill="green" stroke="green" stroke-width="0.29" points="424.92,-178.52 431.51,-170.22 421.18,-172.61 424.92,-178.52"/>
</g>
<!-- &#45;10&#45;&gt;42 -->
<g id="edge20" class="edge">
<title>&#45;10&#45;&gt;42</title>
<path fill="none" stroke="red" stroke-width="0.22" d="M299.3,-226.92C251.53,-224.46 100.03,-213.91 70.75,-178.07 52.04,-155.16 75.03,-122.81 93.91,-102.54"/>
<polygon fill="red" stroke="red" stroke-width="0.22" points="96.4,-105.01 100.88,-95.4 91.39,-100.12 96.4,-105.01"/>
</g>
<!-- &#45;10&#45;&gt;43 -->
<g id="edge41" class="edge">
<title>&#45;10&#45;&gt;43</title>
<path fill="none" stroke="green" stroke-width="0.61" stroke-dasharray="1,5" d="M327.93,-224.74C357.1,-218.64 425.57,-202.73 478.75,-178.07 525.27,-156.49 574.22,-121.72 601.68,-100.94"/>
<polygon fill="green" stroke="green" stroke-width="0.61" points="603.58,-103.89 609.4,-95.03 599.33,-98.33 603.58,-103.89"/>
</g>
<!-- &#45;10&#45;&gt;44 -->
<g id="edge10" class="edge">
<title>&#45;10&#45;&gt;44</title>
<path fill="none" stroke="green" stroke-width="0.16" d="M299.45,-226.4C273.7,-223.45 220.02,-213.18 196.75,-178.07 186.51,-162.61 186.73,-151.95 196.75,-136.35 215.89,-106.52 256.6,-93.37 284.08,-87.72"/>
<polygon fill="green" stroke="green" stroke-width="0.16" points="284.45,-91.21 293.65,-85.94 283.18,-84.32 284.45,-91.21"/>
</g>
<!-- &#45;11 -->
<g id="node11" class="node">
<title>&#45;11</title>
<polygon fill="lightgray" stroke="black" points="860.75,-237.81 832.75,-237.81 832.75,-219.31 860.75,-219.31 860.75,-237.81"/>
<text text-anchor="middle" x="846.75" y="-225.26" font-family="Times,serif" font-size="9.00">&#45;11</text>
</g>
<!-- &#45;12 -->
<g id="node12" class="node">
<title>&#45;12</title>
<polygon fill="lightgray" stroke="black" points="325.75,-166.46 297.75,-166.46 297.75,-147.96 325.75,-147.96 325.75,-166.46"/>
<text text-anchor="middle" x="311.75" y="-153.91" font-family="Times,serif" font-size="9.00">&#45;12</text>
</g>
<!-- &#45;12&#45;&gt;41 -->
<g id="edge13" class="edge">
<title>&#45;12&#45;&gt;41</title>
<path fill="none" stroke="red" stroke-width="0.16" d="M319.58,-147.84C323.74,-143.84 329.15,-139.29 334.75,-136.35 391.92,-106.27 467.47,-92.49 507.7,-86.93"/>
<polygon fill="red" stroke="red" stroke-width="0.16" points="508.14,-90.4 517.6,-85.63 507.23,-83.46 508.14,-90.4"/>
</g>
<!-- &#45;12&#45;&gt;44 -->
<g id="edge8" class="edge">
<title>&#45;12&#45;&gt;44</title>
<path fill="none" stroke="red" stroke-width="0.28" stroke-dasharray="1,5" d="M311.75,-147.6C311.75,-138.63 311.75,-124.1 311.75,-111.15"/>
<polygon fill="red" stroke="red" stroke-width="0.28" points="315.25,-111.23 311.75,-101.23 308.25,-111.23 315.25,-111.23"/>
</g>
<!-- &#45;13 -->
<g id="node13" class="node">
<title>&#45;13</title>
<polygon fill="lightgray" stroke="black" points="149.75,-166.46 121.75,-166.46 121.75,-147.96 149.75,-147.96 149.75,-166.46"/>
<text text-anchor="middle" x="135.75" y="-153.91" font-family="Times,serif" font-size="9.00">&#45;13</text>
</g>
<!-- &#45;13&#45;&gt;41 -->
<g id="edge19" class="edge">
<title>&#45;13&#45;&gt;41</title>
<path fill="none" stroke="green" stroke-width="0.22" d="M150.11,-150.81C162.35,-146.38 180.5,-140.23 196.75,-136.35 310.5,-109.18 449.18,-92.7 507.63,-86.49"/>
<polygon fill="green" stroke="green" stroke-width="0.22" points="507.99,-89.97 517.57,-85.45 507.26,-83.01 507.99,-89.97"/>
</g>
<!-- &#45;13&#45;&gt;42 -->
<g id="edge26" class="edge">
<title>&#45;13&#45;&gt;42</title>
<path fill="none" stroke="red" stroke-width="0.11" d="M133.14,-147.6C130.31,-138.27 125.66,-122.93 121.62,-109.61"/>
<polygon fill="red" stroke="red" stroke-width="0.11" points="124.99,-108.66 118.74,-100.11 118.29,-110.7 124.99,-108.66"/>
</g>
<!-- &#45;13&#45;&gt;44 -->
<g id="edge1" class="edge">
<title>&#45;13&#45;&gt;44</title>
<path fill="none" stroke="green" stroke-width="0.35" d="M146.47,-147.55C151.51,-143.76 157.72,-139.48 163.75,-136.35 204.01,-115.41 254.46,-99.44 284.84,-90.82"/>
<polygon fill="green" stroke="green" stroke-width="0.35" points="285.49,-94.27 294.19,-88.22 283.62,-87.53 285.49,-94.27"/>
</g>
<!-- &#45;14 -->
<g id="node14" class="node">
<title>&#45;14</title>
<polygon fill="lightgray" stroke="black" points="233.75,-166.46 205.75,-166.46 205.75,-147.96 233.75,-147.96 233.75,-166.46"/>
<text text-anchor="middle" x="219.75" y="-153.91" font-family="Times,serif" font-size="9.00">&#45;14</text>
</g>
<!-- &#45;14&#45;&gt;41 -->
<g id="edge15" class="edge">
<title>&#45;14&#45;&gt;41</title>
<path fill="none" stroke="red" stroke-width="0.48" d="M227.49,-147.65C231.63,-143.61 237.04,-139.07 242.75,-136.35 332.68,-93.45 453.33,-85.29 507.43,-83.87"/>
<polygon fill="red" stroke="red" stroke-width="0.48" points="507.28,-87.38 517.21,-83.68 507.14,-80.38 507.28,-87.38"/>
</g>
<!-- &#45;14&#45;&gt;42 -->
<g id="edge7" class="edge">
<title>&#45;14&#45;&gt;42</title>
<path fill="none" stroke="green" stroke-width="0.22" stroke-dasharray="1,5" d="M207.17,-147.6C189.73,-135.66 157.89,-113.87 136.28,-99.09"/>
<polygon fill="green" stroke="green" stroke-width="0.22" points="138.5,-96.36 128.27,-93.6 134.54,-102.14 138.5,-96.36"/>
</g>
<!-- &#45;15 -->
<g id="node15" class="node">
<title>&#45;15</title>
<polygon fill="lightgray" stroke="black" points="637.75,-166.46 609.75,-166.46 609.75,-147.96 637.75,-147.96 637.75,-166.46"/>
<text text-anchor="middle" x="623.75" y="-153.91" font-family="Times,serif" font-size="9.00">&#45;15</text>
</g>
<!-- &#45;15&#45;&gt;41 -->
<g id="edge21" class="edge">
<title>&#45;15&#45;&gt;41</title>
<path fill="none" stroke="green" stroke-width="0.29" d="M613.96,-147.63C609.9,-144.11 605.12,-140 600.75,-136.35 586.31,-124.27 569.83,-110.92 557.08,-100.68"/>
<polygon fill="green" stroke="green" stroke-width="0.29" points="559.63,-98.24 549.64,-94.72 555.25,-103.7 559.63,-98.24"/>
</g>
<!-- &#45;15&#45;&gt;43 -->
<g id="edge6" class="edge">
<title>&#45;15&#45;&gt;43</title>
<path fill="none" stroke="red" stroke-width="0.34" stroke-dasharray="1,5" d="M623.75,-147.6C623.75,-138.63 623.75,-124.1 623.75,-111.15"/>
<polygon fill="red" stroke="red" stroke-width="0.34" points="627.25,-111.33 623.75,-101.33 620.25,-111.33 627.25,-111.33"/>
</g>
<!-- &#45;15&#45;&gt;44 -->
<g id="edge14" class="edge">
<title>&#45;15&#45;&gt;44</title>
<path fill="none" stroke="green" stroke-width="0.43" d="M616.01,-147.66C611.87,-143.61 606.46,-139.08 600.75,-136.35 512.27,-94.01 393.63,-85.56 340.08,-83.97"/>
<polygon fill="green" stroke="green" stroke-width="0.43" points="340.4,-80.47 330.32,-83.74 340.24,-87.47 340.4,-80.47"/>
</g>
<!-- &#45;16 -->
<g id="node16" class="node">
<title>&#45;16</title>
<polygon fill="lightgray" stroke="black" points="279.75,-166.46 251.75,-166.46 251.75,-147.96 279.75,-147.96 279.75,-166.46"/>
<text text-anchor="middle" x="265.75" y="-153.91" font-family="Times,serif" font-size="9.00">&#45;16</text>
</g>
<!-- &#45;16&#45;&gt;44 -->
<g id="edge24" class="edge">
<title>&#45;16&#45;&gt;44</title>
<path fill="none" stroke="red" stroke-width="0.14" d="M271.21,-147.6C277.53,-137.63 288.22,-120.78 297.03,-106.88"/>
<polygon fill="red" stroke="red" stroke-width="0.14" points="299.97,-108.78 302.37,-98.46 294.06,-105.03 299.97,-108.78"/>
</g>
<!-- &#45;17 -->
<g id="node17" class="node">
<title>&#45;17</title>
<polygon fill="lightgray" stroke="black" points="869.75,-166.46 841.75,-166.46 841.75,-147.96 869.75,-147.96 869.75,-166.46"/>
<text text-anchor="middle" x="855.75" y="-153.91" font-family="Times,serif" font-size="9.00">&#45;17</text>
</g>
<!-- &#45;17&#45;&gt;43 -->
<g id="edge12" class="edge">
<title>&#45;17&#45;&gt;43</title>
<path fill="none" stroke="red" stroke-width="0.32" d="M847.93,-147.82C843.77,-143.81 838.37,-139.27 832.75,-136.35 772.71,-105.12 693.2,-91.73 651.69,-86.55"/>
<polygon fill="red" stroke="red" stroke-width="0.32" points="652.34,-83.1 642,-85.41 651.52,-90.06 652.34,-83.1"/>
</g>
<!-- &#45;18 -->
<g id="node18" class="node">
<title>&#45;18</title>
<polygon fill="lightgray" stroke="black" points="591.75,-166.46 563.75,-166.46 563.75,-147.96 591.75,-147.96 591.75,-166.46"/>
<text text-anchor="middle" x="577.75" y="-153.91" font-family="Times,serif" font-size="9.00">&#45;18</text>
</g>
<!-- &#45;18&#45;&gt;42 -->
<g id="edge34" class="edge">
<title>&#45;18&#45;&gt;42</title>
<path fill="none" stroke="green" stroke-width="0.21" d="M563.37,-153.06C544.14,-148.92 508.98,-141.56 478.75,-136.35 353.16,-114.7 202.21,-94.87 141.26,-87.12"/>
<polygon fill="green" stroke="green" stroke-width="0.21" points="141.96,-83.68 131.6,-85.89 141.08,-90.62 141.96,-83.68"/>
</g>
<!-- &#45;18&#45;&gt;43 -->
<g id="edge2" class="edge">
<title>&#45;18&#45;&gt;43</title>
<path fill="none" stroke="red" stroke-width="0.5" d="M583.21,-147.6C589.47,-137.72 600.01,-121.1 608.78,-107.28"/>
<polygon fill="red" stroke="red" stroke-width="0.5" points="611.68,-109.24 614.08,-98.92 605.76,-105.49 611.68,-109.24"/>
</g>
<!-- &#45;19 -->
<g id="node19" class="node">
<title>&#45;19</title>
<polygon fill="lightgray" stroke="black" points="906.75,-237.81 878.75,-237.81 878.75,-219.31 906.75,-219.31 906.75,-237.81"/>
<text text-anchor="middle" x="892.75" y="-225.26" font-family="Times,serif" font-size="9.00">&#45;19</text>
</g>
<!-- &#45;20 -->
<g id="node20" class="node">
<title>&#45;20</title>
<polygon fill="lightgray" stroke="black" points="915.75,-166.46 887.75,-166.46 887.75,-147.96 915.75,-147.96 915.75,-166.46"/>
<text text-anchor="middle" x="901.75" y="-153.91" font-family="Times,serif" font-size="9.00">&#45;20</text>
</g>
<!-- &#45;20&#45;&gt;43 -->
<g id="edge36" class="edge">
<title>&#45;20&#45;&gt;43</title>
<path fill="none" stroke="red" stroke-width="0.47" stroke-dasharray="1,5" d="M893.98,-147.72C889.84,-143.68 884.43,-139.15 878.75,-136.35 802.74,-98.88 701.3,-88.04 652.44,-84.92"/>
<polygon fill="red" stroke="red" stroke-width="0.47" points="652.65,-81.42 642.47,-84.35 652.25,-88.41 652.65,-81.42"/>
</g>
<!-- 0 -->
<g id="node21" class="node">
<title>0</title>
<ellipse fill="lightblue" stroke="black" cx="113.75" cy="-14.5" rx="14.5" ry="14.5"/>
<text text-anchor="middle" x="113.75" y="-11.2" font-family="Times,serif" font-size="9.00">0</text>
</g>
<!-- 0&#45;&gt;0 -->
<g id="edge25" class="edge">
<title>0&#45;&gt;0</title>
<path fill="none" stroke="red" stroke-width="0.58" d="M124.4,-24.65C134.81,-30.26 146.25,-26.88 146.25,-14.5 146.25,-6.18 141.08,-1.92 134.54,-1.72"/>
<polygon fill="red" stroke="red" stroke-width="0.58" points="134.06,1.77 125.26,-4.12 135.81,-5.01 134.06,1.77"/>
</g>
<!-- 1 -->
<g id="node22" class="node">
<title>1</title>
<ellipse fill="lightblue" stroke="black" cx="414.75" cy="-14.5" rx="14.5" ry="14.5"/>
<text text-anchor="middle" x="414.75" y="-11.2" font-family="Times,serif" font-size="9.00">1</text>
</g>
<!-- 1&#45;&gt;1 -->
<g id="edge29" class="edge">
<title>1&#45;&gt;1</title>
<path fill="none" stroke="red" stroke-width="0.21" stroke-dasharray="1,5" d="M425.4,-24.65C435.81,-30.26 447.25,-26.88 447.25,-14.5 447.25,-5.98 441.84,-1.72 435.08,-1.71"/>
<polygon fill="red" stroke="red" stroke-width="0.21" points="434.44,1.74 425.71,-4.25 436.27,-5.02 434.44,1.74"/>
</g>
<!-- 2 -->
<g id="node23" class="node">
<title>2</title>
<ellipse fill="lightblue" stroke="black" cx="938.75" cy="-228.56" rx="14.5" ry="14.5"/>
<text text-anchor="middle" x="938.75" y="-225.26" font-family="Times,serif" font-size="9.00">2</text>
</g>
<!-- 2&#45;&gt;2 -->
<g id="edge3" class="edge">
<title>2&#45;&gt;2</title>
<path fill="none" stroke="red" stroke-width="0.41" d="M949.07,-239C959.56,-245.14 971.25,-241.66 971.25,-228.56 971.25,-219.56 965.72,-215.1 958.86,-215.18"/>
<polygon fill="red" stroke="red" stroke-width="0.41" points="958.23,-211.72 949.65,-217.95 960.24,-218.42 958.23,-211.72"/>
</g>
<!-- 3 -->
<g id="node24" class="node">
<title>3</title>
<ellipse fill="lightblue" stroke="black" cx="311.75" cy="-14.5" rx="14.5" ry="14.5"/>
<text text-anchor="middle" x="311.75" y="-11.2" font-family="Times,serif" font-size="9.00">3</text>
</g>
<!-- 4 -->
<g id="node25" class="node">
<title>4</title>
<ellipse fill="lightblue" stroke="black" cx="535.75" cy="-14.5" rx="14.5" ry="14.5"/>
<text text-anchor="middle" x="535.75" y="-11.2" font-family="Times,serif" font-size="9.00">4</text>
</g>
<!-- 808&#45;&gt;43 -->
<g id="edge45" class="edge">
<title>808&#45;&gt;43</title>
<path fill="none" stroke="green" stroke-width="0.41" d="M466.27,-145.55C471.77,-142.4 477.93,-139.07 483.75,-136.35 522.12,-118.38 568.45,-101.91 597,-92.34"/>
<polygon fill="green" stroke="green" stroke-width="0.41" points="598.05,-95.68 606.44,-89.21 595.85,-89.03 598.05,-95.68"/>
</g>
<!-- 41&#45;&gt;4 -->
<g id="edge23" class="edge">
<title>41&#45;&gt;4</title>
<path fill="none" stroke="green" stroke-width="0.3" d="M535.75,-64.63C535.75,-56.96 535.75,-47.77 535.75,-39.43"/>
<polygon fill="green" stroke="green" stroke-width="0.3" points="539.25,-39.6 535.75,-29.6 532.25,-39.6 539.25,-39.6"/>
</g>
<!-- 42&#45;&gt;0 -->
<g id="edge40" class="edge">
<title>42&#45;&gt;0</title>
<path fill="none" stroke="red" stroke-width="0.29" stroke-dasharray="1,5" d="M113.75,-64.63C113.75,-56.96 113.75,-47.77 113.75,-39.43"/>
<polygon fill="red" stroke="red" stroke-width="0.29" points="117.25,-39.58 113.75,-29.58 110.25,-39.58 117.25,-39.58"/>
</g>
<!-- 42&#45;&gt;42 -->
<g id="edge32" class="edge">
<title>42&#45;&gt;42</title>
<path fill="none" stroke="red" stroke-width="0.24" d="M127.67,-93.8C138.44,-97.96 149.43,-94.25 149.43,-82.67 149.43,-74.7 144.23,-70.46 137.49,-69.94"/>
<polygon fill="red" stroke="red" stroke-width="0.24" points="137.34,-66.42 128.03,-71.48 138.46,-73.33 137.34,-66.42"/>
</g>
<!-- 43&#45;&gt;1 -->
<g id="edge27" class="edge">
<title>43&#45;&gt;1</title>
<path fill="none" stroke="red" stroke-width="0.13" stroke-dasharray="1,5" d="M607,-76.37C569.86,-64.61 480.55,-36.33 438.02,-22.86"/>
<polygon fill="red" stroke="red" stroke-width="0.13" points="439.28,-19.59 428.69,-19.91 437.17,-26.27 439.28,-19.59"/>
</g>
<!-- 43&#45;&gt;43 -->
<g id="edge11" class="edge">
<title>43&#45;&gt;43</title>
<path fill="none" stroke="red" stroke-width="0.33" stroke-dasharray="1,5" d="M637.67,-93.8C648.44,-97.96 659.43,-94.25 659.43,-82.67 659.43,-74.89 654.47,-70.66 647.94,-69.98"/>
<polygon fill="red" stroke="red" stroke-width="0.33" points="647.53,-66.51 638.16,-71.46 648.58,-73.43 647.53,-66.51"/>
</g>
<!-- 44&#45;&gt;1 -->
<g id="edge22" class="edge">
<title>44&#45;&gt;1</title>
<path fill="none" stroke="green" stroke-width="0.73" d="M326.51,-72.19C344.11,-60.88 373.68,-41.88 393.68,-29.03"/>
<polygon fill="green" stroke="green" stroke-width="0.73" points="395.46,-32.05 401.98,-23.7 391.67,-26.16 395.46,-32.05"/>
</g>
<!-- 44&#45;&gt;3 -->
<g id="edge9" class="edge">
<title>44&#45;&gt;3</title>
<path fill="none" stroke="green" stroke-width="0.39" d="M311.75,-64.63C311.75,-57.05 311.75,-47.98 311.75,-39.71"/>
<polygon fill="green" stroke="green" stroke-width="0.39" points="315.25,-39.73 311.75,-29.73 308.25,-39.73 315.25,-39.73"/>
</g>
<!-- 442&#45;&gt;43 -->
<g id="edge43" class="edge">
<title>442&#45;&gt;43</title>
<path fill="none" stroke="green" stroke-width="0.35" stroke-dasharray="1,5" d="M743.85,-144.48C739.64,-141.71 735.08,-138.83 730.75,-136.35 703.5,-120.7 670.96,-105.09 648.97,-94.98"/>
<polygon fill="green" stroke="green" stroke-width="0.35" points="650.7,-91.92 640.15,-90.96 647.8,-98.29 650.7,-91.92"/>
</g>
</g>
</svg>
