<?xml version="1.0" encoding="UTF-8" standalone="no"?>
<!DOCTYPE svg PUBLIC "-//W3C//DTD SVG 1.1//EN"
 "http://www.w3.org/Graphics/SVG/1.1/DTD/svg11.dtd">
<!-- Generated by graphviz version 12.1.1 (20240910.0053)
 -->
<!-- Pages: 1 -->
<svg width="1058pt" height="322pt"
 viewBox="0.00 0.00 1058.50 322.41" xmlns="http://www.w3.org/2000/svg" xmlns:xlink="http://www.w3.org/1999/xlink">
<g id="graph0" class="graph" transform="scale(1 1) rotate(0) translate(4 318.41)">
<polygon fill="white" stroke="none" points="-4,4 -4,-318.41 1054.5,-318.41 1054.5,4 -4,4"/>
<!-- &#45;1 -->
<g id="node1" class="node">
<title>&#45;1</title>
<polygon fill="lightgray" stroke="black" points="207.75,-309.17 184.25,-309.17 184.25,-290.67 207.75,-290.67 207.75,-309.17"/>
<text text-anchor="middle" x="196" y="-296.62" font-family="Times,serif" font-size="9.00">&#45;1</text>
</g>
<!-- 42 -->
<g id="node28" class="node">
<title>42</title>
<ellipse fill="white" stroke="black" cx="121" cy="-228.56" rx="17.68" ry="17.68"/>
<text text-anchor="middle" x="121" y="-225.26" font-family="Times,serif" font-size="9.00">42</text>
</g>
<!-- &#45;1&#45;&gt;42 -->
<g id="edge4" class="edge">
<title>&#45;1&#45;&gt;42</title>
<path fill="none" stroke="green" stroke-width="0.27" d="M186.8,-290.41C175.48,-279.94 155.92,-261.85 141.06,-248.11"/>
<polygon fill="green" stroke="green" stroke-width="0.27" points="143.8,-245.88 134.08,-241.66 139.05,-251.02 143.8,-245.88"/>
</g>
<!-- 44 -->
<g id="node30" class="node">
<title>44</title>
<ellipse fill="white" stroke="black" cx="315" cy="-154.02" rx="17.68" ry="17.68"/>
<text text-anchor="middle" x="315" y="-150.72" font-family="Times,serif" font-size="9.00">44</text>
</g>
<!-- &#45;1&#45;&gt;44 -->
<g id="edge17" class="edge">
<title>&#45;1&#45;&gt;44</title>
<path fill="none" stroke="green" stroke-width="0.24" stroke-dasharray="1,5" d="M208.01,-291.24C221.33,-282.32 242.92,-266.61 258,-249.42 276.77,-228.03 292.96,-199.64 303.24,-179.61"/>
<polygon fill="green" stroke="green" stroke-width="0.24" points="306.29,-181.34 307.64,-170.83 300.03,-178.2 306.29,-181.34"/>
</g>
<!-- &#45;2 -->
<g id="node2" class="node">
<title>&#45;2</title>
<polygon fill="lightgray" stroke="black" points="809.75,-309.17 786.25,-309.17 786.25,-290.67 809.75,-290.67 809.75,-309.17"/>
<text text-anchor="middle" x="798" y="-296.62" font-family="Times,serif" font-size="9.00">&#45;2</text>
</g>
<!-- 41 -->
<g id="node27" class="node">
<title>41</title>
<ellipse fill="white" stroke="black" cx="159" cy="-82.67" rx="17.68" ry="17.68"/>
<text text-anchor="middle" x="159" y="-79.37" font-family="Times,serif" font-size="9.00">41</text>
</g>
<!-- &#45;2&#45;&gt;41 -->
<g id="edge31" class="edge">
<title>&#45;2&#45;&gt;41</title>
<path fill="none" stroke="green" stroke-width="0.18" stroke-dasharray="1,5" d="M810.12,-291.12C831.47,-277.39 873.55,-250.25 874,-249.42 882.84,-233.12 885.09,-222.56 874,-207.7 795.36,-102.29 422.65,-115.41 292,-100.35 255.47,-96.13 213.36,-90.77 186.48,-87.28"/>
<polygon fill="green" stroke="green" stroke-width="0.18" points="187.26,-83.85 176.9,-86.03 186.36,-90.79 187.26,-83.85"/>
</g>
<!-- 43 -->
<g id="node29" class="node">
<title>43</title>
<ellipse fill="white" stroke="black" cx="589" cy="-154.02" rx="17.68" ry="17.68"/>
<text text-anchor="middle" x="589" y="-150.72" font-family="Times,serif" font-size="9.00">43</text>
</g>
<!-- &#45;2&#45;&gt;43 -->
<g id="edge30" class="edge">
<title>&#45;2&#45;&gt;43</title>
<path fill="none" stroke="red" stroke-width="0.19" stroke-dasharray="1,5" d="M785.77,-290.51C771.44,-280.67 746.99,-263.87 726,-249.42 685.81,-221.76 639.02,-189.51 611.83,-170.76"/>
<polygon fill="red" stroke="red" stroke-width="0.19" points="613.85,-167.91 603.63,-165.11 609.88,-173.67 613.85,-167.91"/>
</g>
<!-- 442 -->
<g id="node31" class="node">
<title>442</title>
<ellipse fill="white" stroke="black" cx="798" cy="-228.56" rx="20.86" ry="20.86"/>
<text text-anchor="middle" x="798" y="-225.26" font-family="Times,serif" font-size="9.00">442</text>
</g>
<!-- &#45;2&#45;&gt;442 -->
<g id="edge41" class="edge">
<title>&#45;2&#45;&gt;442</title>
<path fill="none" stroke="green" stroke-width="0.21" d="M798,-290.41C798,-282.79 798,-271.14 798,-260.07"/>
<polygon fill="green" stroke="green" stroke-width="0.21" points="801.5,-260.1 798,-250.1 794.5,-260.1 801.5,-260.1"/>
</g>
<!-- &#45;3 -->
<g id="node3" class="node">
<title>&#45;3</title>
<polygon fill="lightgray" stroke="black" points="408.75,-237.81 385.25,-237.81 385.25,-219.31 408.75,-219.31 408.75,-237.81"/>
<text text-anchor="middle" x="397" y="-225.26" font-family="Times,serif" font-size="9.00">&#45;3</text>
</g>
<!-- &#45;3&#45;&gt;43 -->
<g id="edge36" class="edge">
<title>&#45;3&#45;&gt;43</title>
<path fill="none" stroke="green" stroke-width="0.19" stroke-dasharray="1,5" d="M404.46,-218.87C408.19,-214.99 412.97,-210.64 418,-207.7 464.44,-180.6 526.26,-166.07 561.43,-159.49"/>
<polygon fill="green" stroke="green" stroke-width="0.19" points="561.92,-162.96 571.15,-157.76 560.69,-156.07 561.92,-162.96"/>
</g>
<!-- &#45;3&#45;&gt;44 -->
<g id="edge37" class="edge">
<title>&#45;3&#45;&gt;44</title>
<path fill="none" stroke="red" stroke-width="0.21" d="M388.09,-218.97C384.39,-215.44 380.02,-211.34 376,-207.7 362.84,-195.81 347.76,-182.78 335.88,-172.65"/>
<polygon fill="red" stroke="red" stroke-width="0.21" points="338.37,-170.17 328.48,-166.37 333.84,-175.51 338.37,-170.17"/>
</g>
<!-- &#45;4 -->
<g id="node4" class="node">
<title>&#45;4</title>
<polygon fill="lightgray" stroke="black" points="851.75,-309.17 828.25,-309.17 828.25,-290.67 851.75,-290.67 851.75,-309.17"/>
<text text-anchor="middle" x="840" y="-296.62" font-family="Times,serif" font-size="9.00">&#45;4</text>
</g>
<!-- &#45;5 -->
<g id="node5" class="node">
<title>&#45;5</title>
<polygon fill="lightgray" stroke="black" points="758.75,-237.81 735.25,-237.81 735.25,-219.31 758.75,-219.31 758.75,-237.81"/>
<text text-anchor="middle" x="747" y="-225.26" font-family="Times,serif" font-size="9.00">&#45;5</text>
</g>
<!-- &#45;5&#45;&gt;43 -->
<g id="edge5" class="edge">
<title>&#45;5&#45;&gt;43</title>
<path fill="none" stroke="red" stroke-width="0.31" d="M737.32,-219.16C732.61,-215.34 726.73,-210.95 721,-207.7 686.36,-188.05 642.94,-172.24 615.57,-163.24"/>
<polygon fill="red" stroke="red" stroke-width="0.31" points="616.95,-160.01 606.36,-160.27 614.81,-166.67 616.95,-160.01"/>
</g>
<!-- &#45;6 -->
<g id="node6" class="node">
<title>&#45;6</title>
<polygon fill="lightgray" stroke="black" points="96.75,-163.27 73.25,-163.27 73.25,-144.77 96.75,-144.77 96.75,-163.27"/>
<text text-anchor="middle" x="85" y="-150.72" font-family="Times,serif" font-size="9.00">&#45;6</text>
</g>
<!-- &#45;6&#45;&gt;41 -->
<g id="edge33" class="edge">
<title>&#45;6&#45;&gt;41</title>
<path fill="none" stroke="red" stroke-width="0.2" d="M94.07,-144.52C105.25,-134.05 124.55,-115.96 139.21,-102.22"/>
<polygon fill="red" stroke="red" stroke-width="0.2" points="141.26,-105.09 146.16,-95.7 136.47,-99.99 141.26,-105.09"/>
</g>
<!-- &#45;7 -->
<g id="node7" class="node">
<title>&#45;7</title>
<polygon fill="lightgray" stroke="black" points="366.75,-237.81 343.25,-237.81 343.25,-219.31 366.75,-219.31 366.75,-237.81"/>
<text text-anchor="middle" x="355" y="-225.26" font-family="Times,serif" font-size="9.00">&#45;7</text>
</g>
<!-- &#45;7&#45;&gt;43 -->
<g id="edge38" class="edge">
<title>&#45;7&#45;&gt;43</title>
<path fill="none" stroke="green" stroke-width="0.35" stroke-dasharray="1,5" d="M362.01,-219.15C365.77,-215.13 370.72,-210.59 376,-207.7 436.61,-174.59 518.2,-161.96 560.66,-157.41"/>
<polygon fill="green" stroke="green" stroke-width="0.35" points="560.93,-160.9 570.53,-156.42 560.23,-153.93 560.93,-160.9"/>
</g>
<!-- &#45;7&#45;&gt;44 -->
<g id="edge16" class="edge">
<title>&#45;7&#45;&gt;44</title>
<path fill="none" stroke="red" stroke-width="0.34" stroke-dasharray="1,5" d="M350.25,-218.96C344.84,-209.14 335.75,-192.66 328.16,-178.89"/>
<polygon fill="red" stroke="red" stroke-width="0.34" points="331.35,-177.42 323.46,-170.36 325.22,-180.8 331.35,-177.42"/>
</g>
<!-- &#45;8 -->
<g id="node8" class="node">
<title>&#45;8</title>
<polygon fill="lightgray" stroke="black" points="893.75,-309.17 870.25,-309.17 870.25,-290.67 893.75,-290.67 893.75,-309.17"/>
<text text-anchor="middle" x="882" y="-296.62" font-family="Times,serif" font-size="9.00">&#45;8</text>
</g>
<!-- &#45;9 -->
<g id="node9" class="node">
<title>&#45;9</title>
<polygon fill="lightgray" stroke="black" points="496.75,-237.81 473.25,-237.81 473.25,-219.31 496.75,-219.31 496.75,-237.81"/>
<text text-anchor="middle" x="485" y="-225.26" font-family="Times,serif" font-size="9.00">&#45;9</text>
</g>
<!-- &#45;9&#45;&gt;41 -->
<g id="edge18" class="edge">
<title>&#45;9&#45;&gt;41</title>
<path fill="none" stroke="green" stroke-width="0.49" d="M477.84,-218.97C462.14,-200.71 422.65,-157.96 380,-136.35 315.89,-103.86 231.08,-90.93 187.52,-86.18"/>
<polygon fill="green" stroke="green" stroke-width="0.49" points="187.91,-82.7 177.6,-85.17 187.2,-89.66 187.91,-82.7"/>
</g>
<!-- &#45;9&#45;&gt;43 -->
<g id="edge28" class="edge">
<title>&#45;9&#45;&gt;43</title>
<path fill="none" stroke="green" stroke-width="0.53" d="M493.25,-219.06C496.99,-215.39 501.57,-211.15 506,-207.7 524.69,-193.15 547.5,-178.9 564.48,-168.89"/>
<polygon fill="green" stroke="green" stroke-width="0.53" points="566.15,-171.97 573.04,-163.93 562.63,-165.92 566.15,-171.97"/>
</g>
<!-- &#45;10 -->
<g id="node10" class="node">
<title>&#45;10</title>
<polygon fill="lightgray" stroke="black" points="406,-309.17 378,-309.17 378,-290.67 406,-290.67 406,-309.17"/>
<text text-anchor="middle" x="392" y="-296.62" font-family="Times,serif" font-size="9.00">&#45;10</text>
</g>
<!-- 808 -->
<g id="node26" class="node">
<title>808</title>
<ellipse fill="white" stroke="black" cx="536" cy="-228.56" rx="20.86" ry="20.86"/>
<text text-anchor="middle" x="536" y="-225.26" font-family="Times,serif" font-size="9.00">808</text>
</g>
<!-- &#45;10&#45;&gt;808 -->
<g id="edge43" class="edge">
<title>&#45;10&#45;&gt;808</title>
<path fill="none" stroke="green" stroke-width="0.48" d="M406.42,-293.6C428.43,-285.27 471.48,-268.15 506,-249.42 507.37,-248.68 508.76,-247.89 510.15,-247.07"/>
<polygon fill="green" stroke="green" stroke-width="0.48" points="511.94,-250.08 518.57,-241.82 508.24,-244.14 511.94,-250.08"/>
</g>
<!-- &#45;10&#45;&gt;42 -->
<g id="edge20" class="edge">
<title>&#45;10&#45;&gt;42</title>
<path fill="none" stroke="red" stroke-width="0.11" stroke-dasharray="1,5" d="M377.72,-296.81C341.63,-291.26 244.08,-274.92 166,-249.42 159.24,-247.21 152.11,-244.34 145.57,-241.47"/>
<polygon fill="red" stroke="red" stroke-width="0.11" points="147.22,-238.37 136.67,-237.4 144.31,-244.74 147.22,-238.37"/>
</g>
<!-- &#45;10&#45;&gt;43 -->
<g id="edge40" class="edge">
<title>&#45;10&#45;&gt;43</title>
<path fill="none" stroke="green" stroke-width="0.32" stroke-dasharray="1,5" d="M406.44,-296.73C453.29,-289.49 598.89,-265.81 612,-249.42 628.36,-228.98 616.42,-198.62 604.49,-177.89"/>
<polygon fill="green" stroke="green" stroke-width="0.32" points="607.57,-176.21 599.36,-169.52 601.6,-179.87 607.57,-176.21"/>
</g>
<!-- &#45;10&#45;&gt;44 -->
<g id="edge10" class="edge">
<title>&#45;10&#45;&gt;44</title>
<path fill="none" stroke="green" stroke-width="0.19" d="M377.67,-290.64C364.21,-282.08 344.6,-267.45 334,-249.42 321.92,-228.87 317.4,-201.93 315.77,-182.09"/>
<polygon fill="green" stroke="green" stroke-width="0.19" points="319.27,-181.94 315.15,-172.18 312.28,-182.37 319.27,-181.94"/>
</g>
<!-- &#45;11 -->
<g id="node11" class="node">
<title>&#45;11</title>
<polygon fill="lightgray" stroke="black" points="940,-309.17 912,-309.17 912,-290.67 940,-290.67 940,-309.17"/>
<text text-anchor="middle" x="926" y="-296.62" font-family="Times,serif" font-size="9.00">&#45;11</text>
</g>
<!-- &#45;12 -->
<g id="node12" class="node">
<title>&#45;12</title>
<polygon fill="lightgray" stroke="black" points="203,-237.81 175,-237.81 175,-219.31 203,-219.31 203,-237.81"/>
<text text-anchor="middle" x="189" y="-225.26" font-family="Times,serif" font-size="9.00">&#45;12</text>
</g>
<!-- &#45;12&#45;&gt;41 -->
<g id="edge13" class="edge">
<title>&#45;12&#45;&gt;41</title>
<path fill="none" stroke="red" stroke-width="0.34" stroke-dasharray="1,5" d="M187.22,-219.01C183.86,-202.86 176.34,-166.75 170,-136.35 168.25,-127.95 166.34,-118.81 164.61,-110.53"/>
<polygon fill="red" stroke="red" stroke-width="0.34" points="168.04,-109.85 162.57,-100.77 161.19,-111.28 168.04,-109.85"/>
</g>
<!-- &#45;12&#45;&gt;44 -->
<g id="edge8" class="edge">
<title>&#45;12&#45;&gt;44</title>
<path fill="none" stroke="green" stroke-width="0.12" stroke-dasharray="1,5" d="M197.99,-218.91C202.08,-215.22 207.1,-211 212,-207.7 237.14,-190.78 268.43,-175.5 289.88,-165.81"/>
<polygon fill="green" stroke="green" stroke-width="0.12" points="291.1,-169.1 298.82,-161.85 288.26,-162.71 291.1,-169.1"/>
</g>
<!-- &#45;13 -->
<g id="node13" class="node">
<title>&#45;13</title>
<polygon fill="lightgray" stroke="black" points="89,-309.17 61,-309.17 61,-290.67 89,-290.67 89,-309.17"/>
<text text-anchor="middle" x="75" y="-296.62" font-family="Times,serif" font-size="9.00">&#45;13</text>
</g>
<!-- &#45;13&#45;&gt;41 -->
<g id="edge19" class="edge">
<title>&#45;13&#45;&gt;41</title>
<path fill="none" stroke="red" stroke-width="0.27" stroke-dasharray="1,5" d="M71.29,-290.38C60.82,-264.87 33.71,-187.78 64,-136.35 78.52,-111.69 109.21,-97.75 131.8,-90.49"/>
<polygon fill="red" stroke="red" stroke-width="0.27" points="132.52,-93.93 141.12,-87.73 130.54,-87.22 132.52,-93.93"/>
</g>
<!-- &#45;13&#45;&gt;42 -->
<g id="edge26" class="edge">
<title>&#45;13&#45;&gt;42</title>
<path fill="none" stroke="red" stroke-width="0.19" stroke-dasharray="1,5" d="M80.64,-290.41C86.88,-281.01 97.19,-265.46 105.83,-252.44"/>
<polygon fill="red" stroke="red" stroke-width="0.19" points="108.7,-254.43 111.31,-244.17 102.87,-250.57 108.7,-254.43"/>
</g>
<!-- &#45;13&#45;&gt;44 -->
<g id="edge1" class="edge">
<title>&#45;13&#45;&gt;44</title>
<path fill="none" stroke="green" stroke-width="0.24" stroke-dasharray="1,5" d="M74.02,-290.26C72.51,-272.25 71.79,-230.56 94,-207.7 120.68,-180.25 233.98,-164.14 287.19,-157.96"/>
<polygon fill="green" stroke="green" stroke-width="0.24" points="287.38,-161.46 296.92,-156.86 286.59,-154.5 287.38,-161.46"/>
</g>
<!-- &#45;14 -->
<g id="node14" class="node">
<title>&#45;14</title>
<polygon fill="lightgray" stroke="black" points="28,-309.17 0,-309.17 0,-290.67 28,-290.67 28,-309.17"/>
<text text-anchor="middle" x="14" y="-296.62" font-family="Times,serif" font-size="9.00">&#45;14</text>
</g>
<!-- &#45;14&#45;&gt;41 -->
<g id="edge15" class="edge">
<title>&#45;14&#45;&gt;41</title>
<path fill="none" stroke="red" stroke-width="0.36" d="M13.32,-290.42C11.68,-264.35 10.19,-184.38 48,-136.35 68.78,-109.95 106.01,-96.09 131.58,-89.34"/>
<polygon fill="red" stroke="red" stroke-width="0.36" points="132.32,-92.76 141.2,-86.99 130.66,-85.96 132.32,-92.76"/>
</g>
<!-- &#45;14&#45;&gt;42 -->
<g id="edge7" class="edge">
<title>&#45;14&#45;&gt;42</title>
<path fill="none" stroke="green" stroke-width="0.26" d="M27.12,-290.41C44.7,-279.02 76.18,-258.61 97.81,-244.59"/>
<polygon fill="green" stroke="green" stroke-width="0.26" points="99.59,-247.61 106.08,-239.23 95.78,-241.74 99.59,-247.61"/>
</g>
<!-- &#45;15 -->
<g id="node15" class="node">
<title>&#45;15</title>
<polygon fill="lightgray" stroke="black" points="455,-237.81 427,-237.81 427,-219.31 455,-219.31 455,-237.81"/>
<text text-anchor="middle" x="441" y="-225.26" font-family="Times,serif" font-size="9.00">&#45;15</text>
</g>
<!-- &#45;15&#45;&gt;41 -->
<g id="edge21" class="edge">
<title>&#45;15&#45;&gt;41</title>
<path fill="none" stroke="red" stroke-width="0.17" d="M434.04,-218.86C419.12,-200.77 382.13,-158.92 342,-136.35 291.38,-107.88 224.07,-93.67 186.8,-87.56"/>
<polygon fill="red" stroke="red" stroke-width="0.17" points="187.37,-84.11 176.95,-86.03 186.29,-91.03 187.37,-84.11"/>
</g>
<!-- &#45;15&#45;&gt;43 -->
<g id="edge6" class="edge">
<title>&#45;15&#45;&gt;43</title>
<path fill="none" stroke="red" stroke-width="0.12" stroke-dasharray="1,5" d="M449.45,-219.14C453.59,-215.31 458.8,-210.93 464,-207.7 495.79,-187.97 536.28,-172.43 562.42,-163.49"/>
<polygon fill="red" stroke="red" stroke-width="0.12" points="563.47,-166.83 571.84,-160.34 561.25,-160.19 563.47,-166.83"/>
</g>
<!-- &#45;15&#45;&gt;44 -->
<g id="edge14" class="edge">
<title>&#45;15&#45;&gt;44</title>
<path fill="none" stroke="red" stroke-width="0.42" d="M432.01,-218.91C427.92,-215.22 422.9,-211 418,-207.7 393.09,-190.93 362.14,-175.78 340.7,-166.08"/>
<polygon fill="red" stroke="red" stroke-width="0.42" points="342.15,-162.89 331.59,-162.03 339.31,-169.29 342.15,-162.89"/>
</g>
<!-- &#45;16 -->
<g id="node16" class="node">
<title>&#45;16</title>
<polygon fill="lightgray" stroke="black" points="249,-237.81 221,-237.81 221,-219.31 249,-219.31 249,-237.81"/>
<text text-anchor="middle" x="235" y="-225.26" font-family="Times,serif" font-size="9.00">&#45;16</text>
</g>
<!-- &#45;16&#45;&gt;44 -->
<g id="edge24" class="edge">
<title>&#45;16&#45;&gt;44</title>
<path fill="none" stroke="red" stroke-width="0.28" d="M244.49,-218.96C256.8,-207.8 278.59,-188.04 294.7,-173.43"/>
<polygon fill="red" stroke="red" stroke-width="0.28" points="296.72,-176.33 301.77,-167.02 292.02,-171.14 296.72,-176.33"/>
</g>
<!-- &#45;17 -->
<g id="node17" class="node">
<title>&#45;17</title>
<polygon fill="lightgray" stroke="black" points="865,-237.81 837,-237.81 837,-219.31 865,-219.31 865,-237.81"/>
<text text-anchor="middle" x="851" y="-225.26" font-family="Times,serif" font-size="9.00">&#45;17</text>
</g>
<!-- &#45;17&#45;&gt;43 -->
<g id="edge12" class="edge">
<title>&#45;17&#45;&gt;43</title>
<path fill="none" stroke="red" stroke-width="0.1" stroke-dasharray="1,5" d="M843.22,-219.1C839.07,-215.08 833.66,-210.54 828,-207.7 757.17,-172.2 662.71,-160.47 616.64,-156.71"/>
<polygon fill="red" stroke="red" stroke-width="0.1" points="617.17,-153.25 606.94,-155.99 616.65,-160.23 617.17,-153.25"/>
</g>
<!-- &#45;18 -->
<g id="node18" class="node">
<title>&#45;18</title>
<polygon fill="lightgray" stroke="black" points="529,-309.17 501,-309.17 501,-290.67 529,-290.67 529,-309.17"/>
<text text-anchor="middle" x="515" y="-296.62" font-family="Times,serif" font-size="9.00">&#45;18</text>
</g>
<!-- &#45;18&#45;&gt;42 -->
<g id="edge34" class="edge">
<title>&#45;18&#45;&gt;42</title>
<path fill="none" stroke="green" stroke-width="0.34" d="M500.78,-297.01C437.32,-288.49 182.48,-254.13 166,-249.42 159.32,-247.51 152.34,-244.81 145.92,-242.01"/>
<polygon fill="green" stroke="green" stroke-width="0.34" points="147.45,-238.86 136.9,-237.85 144.52,-245.22 147.45,-238.86"/>
</g>
<!-- &#45;18&#45;&gt;43 -->
<g id="edge2" class="edge">
<title>&#45;18&#45;&gt;43</title>
<path fill="none" stroke="green" stroke-width="0.25" d="M529.07,-298.43C556.84,-296.62 618.27,-288.19 645,-249.42 655.52,-234.15 652.36,-224.72 645,-207.7 638.24,-192.07 624.32,-178.94 612.04,-169.7"/>
<polygon fill="green" stroke="green" stroke-width="0.25" points="614.41,-167.08 604.22,-164.15 610.36,-172.79 614.41,-167.08"/>
</g>
<!-- &#45;19 -->
<g id="node19" class="node">
<title>&#45;19</title>
<polygon fill="lightgray" stroke="black" points="986,-309.17 958,-309.17 958,-290.67 986,-290.67 986,-309.17"/>
<text text-anchor="middle" x="972" y="-296.62" font-family="Times,serif" font-size="9.00">&#45;19</text>
</g>
<!-- &#45;20 -->
<g id="node20" class="node">
<title>&#45;20</title>
<polygon fill="lightgray" stroke="black" points="603,-237.81 575,-237.81 575,-219.31 603,-219.31 603,-237.81"/>
<text text-anchor="middle" x="589" y="-225.26" font-family="Times,serif" font-size="9.00">&#45;20</text>
</g>
<!-- &#45;20&#45;&gt;43 -->
<g id="edge35" class="edge">
<title>&#45;20&#45;&gt;43</title>
<path fill="none" stroke="red" stroke-width="0.42" d="M589,-218.96C589,-209.98 589,-195.45 589,-182.51"/>
<polygon fill="red" stroke="red" stroke-width="0.42" points="592.5,-182.8 589,-172.8 585.5,-182.8 592.5,-182.8"/>
</g>
<!-- 0 -->
<g id="node21" class="node">
<title>0</title>
<ellipse fill="lightblue" stroke="black" cx="129" cy="-154.02" rx="14.5" ry="14.5"/>
<text text-anchor="middle" x="129" y="-150.72" font-family="Times,serif" font-size="9.00">0</text>
</g>
<!-- 0&#45;&gt;0 -->
<g id="edge25" class="edge">
<title>0&#45;&gt;0</title>
<path fill="none" stroke="red" stroke-width="0.61" stroke-dasharray="1,5" d="M139.32,-164.46C149.81,-170.6 161.5,-167.12 161.5,-154.02 161.5,-145.22 156.22,-140.76 149.58,-140.65"/>
<polygon fill="red" stroke="red" stroke-width="0.61" points="148.85,-137.21 140.2,-143.33 150.78,-143.94 148.85,-137.21"/>
</g>
<!-- 0&#45;&gt;41 -->
<g id="edge45" class="edge">
<title>0&#45;&gt;41</title>
<path fill="none" stroke="red" stroke-width="0.13" d="M134.5,-140.3C138.31,-131.5 143.5,-119.49 148.13,-108.8"/>
<polygon fill="red" stroke="red" stroke-width="0.13" points="151.33,-110.22 152.09,-99.65 144.9,-107.44 151.33,-110.22"/>
</g>
<!-- 1 -->
<g id="node22" class="node">
<title>1</title>
<ellipse fill="lightblue" stroke="black" cx="475" cy="-82.67" rx="14.5" ry="14.5"/>
<text text-anchor="middle" x="475" y="-79.37" font-family="Times,serif" font-size="9.00">1</text>
</g>
<!-- 1&#45;&gt;1 -->
<g id="edge29" class="edge">
<title>1&#45;&gt;1</title>
<path fill="none" stroke="green" stroke-width="0.15" stroke-dasharray="1,5" d="M485.65,-92.83C496.06,-98.44 507.5,-95.05 507.5,-82.67 507.5,-74.16 502.09,-69.89 495.33,-69.89"/>
<polygon fill="green" stroke="green" stroke-width="0.15" points="494.6,-66.46 485.87,-72.45 496.44,-73.21 494.6,-66.46"/>
</g>
<!-- 2 -->
<g id="node23" class="node">
<title>2</title>
<ellipse fill="lightblue" stroke="black" cx="1018" cy="-299.92" rx="14.5" ry="14.5"/>
<text text-anchor="middle" x="1018" y="-296.62" font-family="Times,serif" font-size="9.00">2</text>
</g>
<!-- 2&#45;&gt;2 -->
<g id="edge3" class="edge">
<title>2&#45;&gt;2</title>
<path fill="none" stroke="red" stroke-width="0.31" d="M1028.32,-310.36C1038.81,-316.5 1050.5,-313.02 1050.5,-299.92 1050.5,-290.91 1044.97,-286.45 1038.11,-286.54"/>
<polygon fill="red" stroke="red" stroke-width="0.31" points="1037.33,-283.12 1028.76,-289.34 1039.35,-289.82 1037.33,-283.12"/>
</g>
<!-- 3 -->
<g id="node24" class="node">
<title>3</title>
<ellipse fill="lightblue" stroke="black" cx="315" cy="-82.67" rx="14.5" ry="14.5"/>
<text text-anchor="middle" x="315" y="-79.37" font-family="Times,serif" font-size="9.00">3</text>
</g>
<!-- 4 -->
<g id="node25" class="node">
<title>4</title>
<ellipse fill="lightblue" stroke="black" cx="159" cy="-14.5" rx="14.5" ry="14.5"/>
<text text-anchor="middle" x="159" y="-11.2" font-family="Times,serif" font-size="9.00">4</text>
</g>
<!-- 808&#45;&gt;43 -->
<g id="edge44" class="edge">
<title>808&#45;&gt;43</title>
<path fill="none" stroke="green" stroke-width="0.43" d="M548.03,-211.1C555.28,-201.17 564.62,-188.39 572.55,-177.54"/>
<polygon fill="green" stroke="green" stroke-width="0.43" points="575.35,-179.64 578.42,-169.5 569.7,-175.51 575.35,-179.64"/>
</g>
<!-- 41&#45;&gt;4 -->
<g id="edge23" class="edge">
<title>41&#45;&gt;4</title>
<path fill="none" stroke="green" stroke-width="0.14" d="M159,-64.63C159,-56.87 159,-47.57 159,-39.15"/>
<polygon fill="green" stroke="green" stroke-width="0.14" points="162.5,-39.36 159,-29.36 155.5,-39.36 162.5,-39.36"/>
</g>
<!-- 42&#45;&gt;0 -->
<g id="edge39" class="edge">
<title>42&#45;&gt;0</title>
<path fill="none" stroke="red" stroke-width="0.44" stroke-dasharray="1,5" d="M122.86,-210.74C123.89,-201.39 125.19,-189.61 126.32,-179.28"/>
<polygon fill="red" stroke="red" stroke-width="0.44" points="129.79,-179.82 127.4,-169.5 122.83,-179.06 129.79,-179.82"/>
</g>
<!-- 42&#45;&gt;42 -->
<g id="edge32" class="edge">
<title>42&#45;&gt;42</title>
<path fill="none" stroke="green" stroke-width="0.17" stroke-dasharray="1,5" d="M134.92,-240.21C145.69,-244.57 156.68,-240.69 156.68,-228.56 156.68,-220.23 151.48,-215.79 144.74,-215.24"/>
<polygon fill="green" stroke="green" stroke-width="0.17" points="144.45,-211.74 135.17,-216.87 145.62,-218.64 144.45,-211.74"/>
</g>
<!-- 43&#45;&gt;1 -->
<g id="edge27" class="edge">
<title>43&#45;&gt;1</title>
<path fill="none" stroke="green" stroke-width="0.11" d="M574.1,-143.96C554.05,-131.76 518.29,-110.01 495.66,-96.24"/>
<polygon fill="green" stroke="green" stroke-width="0.11" points="497.63,-93.34 487.27,-91.13 493.99,-99.32 497.63,-93.34"/>
</g>
<!-- 43&#45;&gt;43 -->
<g id="edge11" class="edge">
<title>43&#45;&gt;43</title>
<path fill="none" stroke="red" stroke-width="0.13" stroke-dasharray="1,5" d="M602.92,-165.68C613.69,-170.03 624.68,-166.15 624.68,-154.02 624.68,-145.69 619.48,-141.25 612.74,-140.7"/>
<polygon fill="red" stroke="red" stroke-width="0.13" points="612.38,-137.21 603.1,-142.34 613.55,-144.11 612.38,-137.21"/>
</g>
<!-- 44&#45;&gt;1 -->
<g id="edge22" class="edge">
<title>44&#45;&gt;1</title>
<path fill="none" stroke="green" stroke-width="0.77" d="M331.22,-145.99C359.77,-133.62 419.08,-107.91 451.9,-93.68"/>
<polygon fill="green" stroke="green" stroke-width="0.77" points="453.08,-96.98 460.87,-89.8 450.3,-90.56 453.08,-96.98"/>
</g>
<!-- 44&#45;&gt;3 -->
<g id="edge9" class="edge">
<title>44&#45;&gt;3</title>
<path fill="none" stroke="green" stroke-width="0.31" d="M315,-135.88C315,-127.35 315,-116.89 315,-107.58"/>
<polygon fill="green" stroke="green" stroke-width="0.31" points="318.5,-107.83 315,-97.83 311.5,-107.83 318.5,-107.83"/>
</g>
<!-- 442&#45;&gt;43 -->
<g id="edge42" class="edge">
<title>442&#45;&gt;43</title>
<path fill="none" stroke="green" stroke-width="0.26" stroke-dasharray="1,5" d="M781.38,-215.3C777.16,-212.54 772.53,-209.81 768,-207.7 716.67,-183.82 652.01,-168 616.14,-160.36"/>
<polygon fill="green" stroke="green" stroke-width="0.26" points="617.29,-157.02 606.79,-158.42 615.87,-163.88 617.29,-157.02"/>
</g>
</g>
</svg>
