<?xml version="1.0" encoding="UTF-8" standalone="no"?>
<!DOCTYPE svg PUBLIC "-//W3C//DTD SVG 1.1//EN"
 "http://www.w3.org/Graphics/SVG/1.1/DTD/svg11.dtd">
<!-- Generated by graphviz version 12.1.1 (20240910.0053)
 -->
<!-- Pages: 1 -->
<svg width="836pt" height="342pt"
 viewBox="0.00 0.00 836.25 341.50" xmlns="http://www.w3.org/2000/svg" xmlns:xlink="http://www.w3.org/1999/xlink">
<g id="graph0" class="graph" transform="scale(1 1) rotate(0) translate(4 337.5)">
<polygon fill="white" stroke="none" points="-4,4 -4,-337.5 832.25,-337.5 832.25,4 -4,4"/>
<!-- &#45;1 -->
<g id="node1" class="node">
<title>&#45;1</title>
<polygon fill="lightgray" stroke="black" points="379.5,-253.72 356,-253.72 356,-235.22 379.5,-235.22 379.5,-253.72"/>
<text text-anchor="middle" x="367.75" y="-241.17" font-family="Times,serif" font-size="9.00">&#45;1</text>
</g>
<!-- 352 -->
<g id="node26" class="node">
<title>352</title>
<ellipse fill="white" stroke="black" cx="196.75" cy="-163.57" rx="20.86" ry="20.86"/>
<text text-anchor="middle" x="196.75" y="-160.27" font-family="Times,serif" font-size="9.00">352</text>
</g>
<!-- &#45;1&#45;&gt;352 -->
<g id="edge14" class="edge">
<title>&#45;1&#45;&gt;352</title>
<path fill="none" stroke="red" stroke-width="0.13" stroke-dasharray="1,5" d="M361.56,-234.86C357.74,-230.07 352.49,-224.31 346.75,-220.43 309.14,-195.02 258.47,-179.3 226.7,-171.24"/>
<polygon fill="red" stroke="red" stroke-width="0.13" points="227.84,-167.92 217.3,-168.94 226.18,-174.72 227.84,-167.92"/>
</g>
<!-- 350 -->
<g id="node29" class="node">
<title>350</title>
<ellipse fill="white" stroke="black" cx="411.75" cy="-163.57" rx="20.86" ry="20.86"/>
<text text-anchor="middle" x="411.75" y="-160.27" font-family="Times,serif" font-size="9.00">350</text>
</g>
<!-- &#45;1&#45;&gt;350 -->
<g id="edge11" class="edge">
<title>&#45;1&#45;&gt;350</title>
<path fill="none" stroke="green" stroke-width="0.36" stroke-dasharray="1,5" d="M372.63,-234.73C378.45,-224.29 388.44,-206.36 396.88,-191.24"/>
<polygon fill="green" stroke="green" stroke-width="0.36" points="399.8,-193.19 401.61,-182.76 393.68,-189.78 399.8,-193.19"/>
</g>
<!-- 351 -->
<g id="node30" class="node">
<title>351</title>
<ellipse fill="white" stroke="black" cx="307.75" cy="-163.57" rx="20.86" ry="20.86"/>
<text text-anchor="middle" x="307.75" y="-160.27" font-family="Times,serif" font-size="9.00">351</text>
</g>
<!-- &#45;1&#45;&gt;351 -->
<g id="edge26" class="edge">
<title>&#45;1&#45;&gt;351</title>
<path fill="none" stroke="green" stroke-width="0.15" d="M361.1,-234.73C352.68,-223.66 337.84,-204.14 325.95,-188.5"/>
<polygon fill="green" stroke="green" stroke-width="0.15" points="329.03,-186.77 320.19,-180.93 323.45,-191 329.03,-186.77"/>
</g>
<!-- &#45;2 -->
<g id="node2" class="node">
<title>&#45;2</title>
<polygon fill="lightgray" stroke="black" points="605.5,-328.26 582,-328.26 582,-309.76 605.5,-309.76 605.5,-328.26"/>
<text text-anchor="middle" x="593.75" y="-315.71" font-family="Times,serif" font-size="9.00">&#45;2</text>
</g>
<!-- &#45;3 -->
<g id="node3" class="node">
<title>&#45;3</title>
<polygon fill="lightgray" stroke="black" points="647.5,-328.26 624,-328.26 624,-309.76 647.5,-309.76 647.5,-328.26"/>
<text text-anchor="middle" x="635.75" y="-315.71" font-family="Times,serif" font-size="9.00">&#45;3</text>
</g>
<!-- &#45;4 -->
<g id="node4" class="node">
<title>&#45;4</title>
<polygon fill="lightgray" stroke="black" points="563.5,-328.26 540,-328.26 540,-309.76 563.5,-309.76 563.5,-328.26"/>
<text text-anchor="middle" x="551.75" y="-315.71" font-family="Times,serif" font-size="9.00">&#45;4</text>
</g>
<!-- 1017 -->
<g id="node27" class="node">
<title>1017</title>
<ellipse fill="white" stroke="black" cx="551.75" cy="-244.47" rx="24.04" ry="24.04"/>
<text text-anchor="middle" x="551.75" y="-241.17" font-family="Times,serif" font-size="9.00">1017</text>
</g>
<!-- &#45;4&#45;&gt;1017 -->
<g id="edge46" class="edge">
<title>&#45;4&#45;&gt;1017</title>
<path fill="none" stroke="green" stroke-width="0.33" d="M551.75,-309.4C551.75,-301.9 551.75,-290.49 551.75,-279.39"/>
<polygon fill="green" stroke="green" stroke-width="0.33" points="555.25,-279.46 551.75,-269.46 548.25,-279.46 555.25,-279.46"/>
</g>
<!-- 349 -->
<g id="node28" class="node">
<title>349</title>
<ellipse fill="white" stroke="black" cx="293.75" cy="-20.86" rx="20.86" ry="20.86"/>
<text text-anchor="middle" x="293.75" y="-17.56" font-family="Times,serif" font-size="9.00">349</text>
</g>
<!-- &#45;4&#45;&gt;349 -->
<g id="edge37" class="edge">
<title>&#45;4&#45;&gt;349</title>
<path fill="none" stroke="green" stroke-width="0.25" stroke-dasharray="1,5" d="M559.87,-309.37C567.97,-300.09 579.9,-284.53 584.75,-268.51 590.94,-248.06 590.37,-241.05 584.75,-220.43 565.4,-149.42 559.29,-122.33 500.75,-77.72 448.07,-37.58 368.63,-26.25 325.07,-23.08"/>
<polygon fill="green" stroke="green" stroke-width="0.25" points="325.39,-19.59 315.19,-22.46 324.95,-26.58 325.39,-19.59"/>
</g>
<!-- &#45;4&#45;&gt;350 -->
<g id="edge9" class="edge">
<title>&#45;4&#45;&gt;350</title>
<path fill="none" stroke="red" stroke-width="0.11" d="M539.53,-312.65C522.83,-304.86 492.71,-289.06 472.75,-268.51 451.06,-246.19 433.98,-214.71 423.48,-192.26"/>
<polygon fill="red" stroke="red" stroke-width="0.11" points="426.78,-191.05 419.45,-183.39 420.4,-193.95 426.78,-191.05"/>
</g>
<!-- &#45;5 -->
<g id="node5" class="node">
<title>&#45;5</title>
<polygon fill="lightgray" stroke="black" points="337.5,-253.72 314,-253.72 314,-235.22 337.5,-235.22 337.5,-253.72"/>
<text text-anchor="middle" x="325.75" y="-241.17" font-family="Times,serif" font-size="9.00">&#45;5</text>
</g>
<!-- &#45;5&#45;&gt;352 -->
<g id="edge1" class="edge">
<title>&#45;5&#45;&gt;352</title>
<path fill="none" stroke="red" stroke-width="0.2" stroke-dasharray="1,5" d="M319.37,-235.11C315.5,-230.41 310.25,-224.65 304.75,-220.43 280.24,-201.62 248.46,-186.06 225.73,-176.19"/>
<polygon fill="red" stroke="red" stroke-width="0.2" points="227.14,-172.98 216.57,-172.3 224.41,-179.43 227.14,-172.98"/>
</g>
<!-- &#45;5&#45;&gt;350 -->
<g id="edge6" class="edge">
<title>&#45;5&#45;&gt;350</title>
<path fill="none" stroke="red" stroke-width="0.41" stroke-dasharray="1,5" d="M332.9,-235.14C336.86,-230.66 341.94,-225.11 346.75,-220.43 359.76,-207.8 375.11,-194.53 387.63,-184.1"/>
<polygon fill="red" stroke="red" stroke-width="0.41" points="389.82,-186.83 395.3,-177.77 385.36,-181.43 389.82,-186.83"/>
</g>
<!-- &#45;6 -->
<g id="node6" class="node">
<title>&#45;6</title>
<polygon fill="lightgray" stroke="black" points="111.5,-253.72 88,-253.72 88,-235.22 111.5,-235.22 111.5,-253.72"/>
<text text-anchor="middle" x="99.75" y="-241.17" font-family="Times,serif" font-size="9.00">&#45;6</text>
</g>
<!-- &#45;6&#45;&gt;352 -->
<g id="edge3" class="edge">
<title>&#45;6&#45;&gt;352</title>
<path fill="none" stroke="red" stroke-width="0.54" stroke-dasharray="1,5" d="M106.76,-234.99C110.68,-230.47 115.76,-224.92 120.75,-220.43 136.37,-206.37 155.44,-192.37 170.56,-181.9"/>
<polygon fill="red" stroke="red" stroke-width="0.54" points="172.43,-184.86 178.72,-176.33 168.49,-179.07 172.43,-184.86"/>
</g>
<!-- &#45;6&#45;&gt;349 -->
<g id="edge21" class="edge">
<title>&#45;6&#45;&gt;349</title>
<path fill="none" stroke="red" stroke-width="0.16" stroke-dasharray="1,5" d="M99.01,-234.99C97.16,-208.27 95.14,-124.76 136.75,-77.72 169.12,-41.14 227.08,-28.51 262.8,-24.15"/>
<polygon fill="red" stroke="red" stroke-width="0.16" points="262.87,-27.67 272.43,-23.12 262.12,-20.71 262.87,-27.67"/>
</g>
<!-- &#45;6&#45;&gt;350 -->
<g id="edge15" class="edge">
<title>&#45;6&#45;&gt;350</title>
<path fill="none" stroke="green" stroke-width="0.13" stroke-dasharray="1,5" d="M105.33,-234.87C109.07,-229.82 114.45,-223.8 120.75,-220.43 213.89,-170.53 253.28,-210.2 355.75,-184.43 364.84,-182.14 374.52,-178.98 383.24,-175.85"/>
<polygon fill="green" stroke="green" stroke-width="0.13" points="384.25,-179.21 392.41,-172.45 381.81,-172.65 384.25,-179.21"/>
</g>
<!-- &#45;7 -->
<g id="node7" class="node">
<title>&#45;7</title>
<polygon fill="lightgray" stroke="black" points="23.5,-253.72 0,-253.72 0,-235.22 23.5,-235.22 23.5,-253.72"/>
<text text-anchor="middle" x="11.75" y="-241.17" font-family="Times,serif" font-size="9.00">&#45;7</text>
</g>
<!-- &#45;7&#45;&gt;352 -->
<g id="edge32" class="edge">
<title>&#45;7&#45;&gt;352</title>
<path fill="none" stroke="red" stroke-width="0.28" d="M17.9,-234.8C21.71,-229.99 26.96,-224.23 32.75,-220.43 74.7,-192.94 131.58,-177.56 166.15,-170.18"/>
<polygon fill="red" stroke="red" stroke-width="0.28" points="166.61,-173.66 175.7,-168.23 165.2,-166.8 166.61,-173.66"/>
</g>
<!-- &#45;7&#45;&gt;349 -->
<g id="edge2" class="edge">
<title>&#45;7&#45;&gt;349</title>
<path fill="none" stroke="red" stroke-width="0.51" d="M14.66,-234.75C24.27,-207.3 57.68,-121.89 114.75,-77.72 158.8,-43.63 223.93,-30.15 262.29,-24.97"/>
<polygon fill="red" stroke="red" stroke-width="0.51" points="262.56,-28.46 272.05,-23.76 261.7,-21.51 262.56,-28.46"/>
</g>
<!-- &#45;8 -->
<g id="node8" class="node">
<title>&#45;8</title>
<polygon fill="lightgray" stroke="black" points="260.5,-101.46 237,-101.46 237,-82.96 260.5,-82.96 260.5,-101.46"/>
<text text-anchor="middle" x="248.75" y="-88.91" font-family="Times,serif" font-size="9.00">&#45;8</text>
</g>
<!-- &#45;8&#45;&gt;349 -->
<g id="edge22" class="edge">
<title>&#45;8&#45;&gt;349</title>
<path fill="none" stroke="red" stroke-width="0.12" d="M254.27,-82.71C259.99,-73.89 269.21,-59.68 277.3,-47.21"/>
<polygon fill="red" stroke="red" stroke-width="0.12" points="280.07,-49.38 282.57,-39.09 274.19,-45.57 280.07,-49.38"/>
</g>
<!-- &#45;9 -->
<g id="node9" class="node">
<title>&#45;9</title>
<polygon fill="lightgray" stroke="black" points="689.5,-328.26 666,-328.26 666,-309.76 689.5,-309.76 689.5,-328.26"/>
<text text-anchor="middle" x="677.75" y="-315.71" font-family="Times,serif" font-size="9.00">&#45;9</text>
</g>
<!-- &#45;10 -->
<g id="node10" class="node">
<title>&#45;10</title>
<polygon fill="lightgray" stroke="black" points="425.75,-253.72 397.75,-253.72 397.75,-235.22 425.75,-235.22 425.75,-253.72"/>
<text text-anchor="middle" x="411.75" y="-241.17" font-family="Times,serif" font-size="9.00">&#45;10</text>
</g>
<!-- 4 -->
<g id="node25" class="node">
<title>4</title>
<ellipse fill="lightblue" stroke="black" cx="477.75" cy="-92.21" rx="14.5" ry="14.5"/>
<text text-anchor="middle" x="477.75" y="-88.91" font-family="Times,serif" font-size="9.00">4</text>
</g>
<!-- &#45;10&#45;&gt;4 -->
<g id="edge43" class="edge">
<title>&#45;10&#45;&gt;4</title>
<path fill="none" stroke="red" stroke-width="0.48" d="M416.48,-234.79C422.63,-223.39 433.54,-202.67 441.75,-184.43 452.03,-161.59 462.39,-134.88 469.33,-116.28"/>
<polygon fill="red" stroke="red" stroke-width="0.48" points="472.57,-117.64 472.75,-107.04 466,-115.21 472.57,-117.64"/>
</g>
<!-- &#45;10&#45;&gt;352 -->
<g id="edge25" class="edge">
<title>&#45;10&#45;&gt;352</title>
<path fill="none" stroke="red" stroke-width="0.53" d="M405.31,-235.17C401.08,-230.24 395.17,-224.23 388.75,-220.43 374.73,-212.13 278.03,-185.96 227.44,-172.6"/>
<polygon fill="red" stroke="red" stroke-width="0.53" points="228.44,-169.24 217.88,-170.08 226.66,-176.01 228.44,-169.24"/>
</g>
<!-- &#45;10&#45;&gt;350 -->
<g id="edge41" class="edge">
<title>&#45;10&#45;&gt;350</title>
<path fill="none" stroke="red" stroke-width="0.12" stroke-dasharray="1,5" d="M411.75,-234.73C411.75,-225.1 411.75,-209.11 411.75,-194.82"/>
<polygon fill="red" stroke="red" stroke-width="0.12" points="415.25,-195 411.75,-185 408.25,-195 415.25,-195"/>
</g>
<!-- &#45;10&#45;&gt;351 -->
<g id="edge17" class="edge">
<title>&#45;10&#45;&gt;351</title>
<path fill="none" stroke="red" stroke-width="0.12" stroke-dasharray="1,5" d="M404,-234.99C399.7,-230.46 394.13,-224.92 388.75,-220.43 371.37,-205.94 350.29,-191.49 333.99,-180.92"/>
<polygon fill="red" stroke="red" stroke-width="0.12" points="335.94,-178.01 325.63,-175.56 332.16,-183.9 335.94,-178.01"/>
</g>
<!-- &#45;11 -->
<g id="node11" class="node">
<title>&#45;11</title>
<polygon fill="lightgray" stroke="black" points="157.75,-253.72 129.75,-253.72 129.75,-235.22 157.75,-235.22 157.75,-253.72"/>
<text text-anchor="middle" x="143.75" y="-241.17" font-family="Times,serif" font-size="9.00">&#45;11</text>
</g>
<!-- &#45;11&#45;&gt;352 -->
<g id="edge5" class="edge">
<title>&#45;11&#45;&gt;352</title>
<path fill="none" stroke="green" stroke-width="0.37" d="M149.62,-234.73C156.83,-223.99 169.37,-205.33 179.71,-189.94"/>
<polygon fill="green" stroke="green" stroke-width="0.37" points="182.49,-192.07 185.16,-181.82 176.68,-188.17 182.49,-192.07"/>
</g>
<!-- &#45;11&#45;&gt;349 -->
<g id="edge27" class="edge">
<title>&#45;11&#45;&gt;349</title>
<path fill="none" stroke="red" stroke-width="0.2" d="M141.43,-234.85C134.87,-208.4 118.85,-127.21 154.75,-77.72 179.83,-43.14 229.93,-29.94 262.63,-24.92"/>
<polygon fill="red" stroke="red" stroke-width="0.2" points="262.85,-28.42 272.28,-23.6 261.9,-21.49 262.85,-28.42"/>
</g>
<!-- &#45;11&#45;&gt;350 -->
<g id="edge8" class="edge">
<title>&#45;11&#45;&gt;350</title>
<path fill="none" stroke="green" stroke-width="0.24" d="M150.07,-234.95C154.25,-229.94 160.16,-223.92 166.75,-220.43 242.31,-180.39 273.21,-206.79 355.75,-184.43 364.62,-182.03 374.11,-178.89 382.7,-175.82"/>
<polygon fill="green" stroke="green" stroke-width="0.24" points="383.77,-179.16 391.95,-172.42 381.36,-172.58 383.77,-179.16"/>
</g>
<!-- &#45;11&#45;&gt;351 -->
<g id="edge29" class="edge">
<title>&#45;11&#45;&gt;351</title>
<path fill="none" stroke="red" stroke-width="0.39" d="M150.72,-234.93C154.96,-230.17 160.71,-224.41 166.75,-220.43 185.67,-207.99 242.83,-187.04 278.29,-174.64"/>
<polygon fill="red" stroke="red" stroke-width="0.39" points="279.25,-178.01 287.55,-171.43 276.96,-171.4 279.25,-178.01"/>
</g>
<!-- &#45;12 -->
<g id="node12" class="node">
<title>&#45;12</title>
<polygon fill="lightgray" stroke="black" points="203.75,-253.72 175.75,-253.72 175.75,-235.22 203.75,-235.22 203.75,-253.72"/>
<text text-anchor="middle" x="189.75" y="-241.17" font-family="Times,serif" font-size="9.00">&#45;12</text>
</g>
<!-- &#45;12&#45;&gt;352 -->
<g id="edge13" class="edge">
<title>&#45;12&#45;&gt;352</title>
<path fill="none" stroke="green" stroke-width="0.28" stroke-dasharray="1,5" d="M190.53,-234.73C191.38,-225.1 192.8,-209.11 194.07,-194.82"/>
<polygon fill="green" stroke="green" stroke-width="0.28" points="197.52,-195.52 194.92,-185.25 190.54,-194.9 197.52,-195.52"/>
</g>
<!-- &#45;12&#45;&gt;351 -->
<g id="edge7" class="edge">
<title>&#45;12&#45;&gt;351</title>
<path fill="none" stroke="green" stroke-width="0.12" stroke-dasharray="1,5" d="M197.37,-234.83C201.64,-230.26 207.21,-224.72 212.75,-220.43 233.94,-204.02 260.38,-188.84 279.99,-178.46"/>
<polygon fill="green" stroke="green" stroke-width="0.12" points="281.6,-181.57 288.85,-173.85 278.37,-175.36 281.6,-181.57"/>
</g>
<!-- &#45;13 -->
<g id="node13" class="node">
<title>&#45;13</title>
<polygon fill="lightgray" stroke="black" points="735.75,-328.26 707.75,-328.26 707.75,-309.76 735.75,-309.76 735.75,-328.26"/>
<text text-anchor="middle" x="721.75" y="-315.71" font-family="Times,serif" font-size="9.00">&#45;13</text>
</g>
<!-- &#45;14 -->
<g id="node14" class="node">
<title>&#45;14</title>
<polygon fill="lightgray" stroke="black" points="69.75,-253.72 41.75,-253.72 41.75,-235.22 69.75,-235.22 69.75,-253.72"/>
<text text-anchor="middle" x="55.75" y="-241.17" font-family="Times,serif" font-size="9.00">&#45;14</text>
</g>
<!-- &#45;14&#45;&gt;352 -->
<g id="edge30" class="edge">
<title>&#45;14&#45;&gt;352</title>
<path fill="none" stroke="green" stroke-width="0.2" stroke-dasharray="1,5" d="M62.82,-235.08C67.09,-230.36 72.84,-224.6 78.75,-220.43 106.75,-200.68 142.83,-184.78 167.68,-175.07"/>
<polygon fill="green" stroke="green" stroke-width="0.2" points="168.89,-178.35 176.99,-171.51 166.4,-171.81 168.89,-178.35"/>
</g>
<!-- &#45;15 -->
<g id="node15" class="node">
<title>&#45;15</title>
<polygon fill="lightgray" stroke="black" points="352.75,-101.46 324.75,-101.46 324.75,-82.96 352.75,-82.96 352.75,-101.46"/>
<text text-anchor="middle" x="338.75" y="-88.91" font-family="Times,serif" font-size="9.00">&#45;15</text>
</g>
<!-- &#45;15&#45;&gt;349 -->
<g id="edge40" class="edge">
<title>&#45;15&#45;&gt;349</title>
<path fill="none" stroke="red" stroke-width="0.23" stroke-dasharray="1,5" d="M333.23,-82.71C327.57,-73.98 318.47,-59.95 310.43,-47.57"/>
<polygon fill="red" stroke="red" stroke-width="0.23" points="313.4,-45.71 305.02,-39.23 307.53,-49.52 313.4,-45.71"/>
</g>
<!-- &#45;16 -->
<g id="node16" class="node">
<title>&#45;16</title>
<polygon fill="lightgray" stroke="black" points="781.75,-328.26 753.75,-328.26 753.75,-309.76 781.75,-309.76 781.75,-328.26"/>
<text text-anchor="middle" x="767.75" y="-315.71" font-family="Times,serif" font-size="9.00">&#45;16</text>
</g>
<!-- &#45;17 -->
<g id="node17" class="node">
<title>&#45;17</title>
<polygon fill="lightgray" stroke="black" points="398.75,-101.46 370.75,-101.46 370.75,-82.96 398.75,-82.96 398.75,-101.46"/>
<text text-anchor="middle" x="384.75" y="-88.91" font-family="Times,serif" font-size="9.00">&#45;17</text>
</g>
<!-- &#45;17&#45;&gt;349 -->
<g id="edge19" class="edge">
<title>&#45;17&#45;&gt;349</title>
<path fill="none" stroke="red" stroke-width="0.36" stroke-dasharray="1,5" d="M373.59,-82.71C359.97,-72.33 336.53,-54.46 318.56,-40.77"/>
<polygon fill="red" stroke="red" stroke-width="0.36" points="320.76,-38.04 310.68,-34.76 316.51,-43.61 320.76,-38.04"/>
</g>
<!-- &#45;18 -->
<g id="node18" class="node">
<title>&#45;18</title>
<polygon fill="lightgray" stroke="black" points="249.75,-253.72 221.75,-253.72 221.75,-235.22 249.75,-235.22 249.75,-253.72"/>
<text text-anchor="middle" x="235.75" y="-241.17" font-family="Times,serif" font-size="9.00">&#45;18</text>
</g>
<!-- &#45;18&#45;&gt;352 -->
<g id="edge12" class="edge">
<title>&#45;18&#45;&gt;352</title>
<path fill="none" stroke="green" stroke-width="0.36" stroke-dasharray="1,5" d="M231.43,-234.73C226.38,-224.52 217.8,-207.15 210.43,-192.24"/>
<polygon fill="green" stroke="green" stroke-width="0.36" points="213.62,-190.81 206.06,-183.4 207.35,-193.91 213.62,-190.81"/>
</g>
<!-- &#45;18&#45;&gt;351 -->
<g id="edge42" class="edge">
<title>&#45;18&#45;&gt;351</title>
<path fill="none" stroke="red" stroke-width="0.4" stroke-dasharray="1,5" d="M243.73,-234.73C254.08,-223.38 272.52,-203.18 286.96,-187.35"/>
<polygon fill="red" stroke="red" stroke-width="0.4" points="289.52,-189.74 293.67,-180 284.35,-185.03 289.52,-189.74"/>
</g>
<!-- &#45;19 -->
<g id="node19" class="node">
<title>&#45;19</title>
<polygon fill="lightgray" stroke="black" points="509.75,-253.72 481.75,-253.72 481.75,-235.22 509.75,-235.22 509.75,-253.72"/>
<text text-anchor="middle" x="495.75" y="-241.17" font-family="Times,serif" font-size="9.00">&#45;19</text>
</g>
<!-- &#45;19&#45;&gt;349 -->
<g id="edge28" class="edge">
<title>&#45;19&#45;&gt;349</title>
<path fill="none" stroke="green" stroke-width="0.29" d="M499.43,-234.76C510.08,-208.05 537.86,-126.17 500.75,-77.72 479.42,-49.87 377.26,-32.74 324.87,-25.65"/>
<polygon fill="green" stroke="green" stroke-width="0.29" points="325.61,-22.22 315.24,-24.39 324.7,-29.16 325.61,-22.22"/>
</g>
<!-- &#45;19&#45;&gt;350 -->
<g id="edge23" class="edge">
<title>&#45;19&#45;&gt;350</title>
<path fill="none" stroke="green" stroke-width="0.53" d="M486.44,-234.73C474.03,-223.07 451.66,-202.06 434.63,-186.06"/>
<polygon fill="green" stroke="green" stroke-width="0.53" points="437.03,-183.52 427.35,-179.22 432.24,-188.62 437.03,-183.52"/>
</g>
<!-- &#45;19&#45;&gt;351 -->
<g id="edge16" class="edge">
<title>&#45;19&#45;&gt;351</title>
<path fill="none" stroke="green" stroke-width="0.74" stroke-dasharray="1,5" d="M481.31,-237.41C450.53,-224.49 377.94,-194.03 337.05,-176.87"/>
<polygon fill="green" stroke="green" stroke-width="0.74" points="338.52,-173.69 327.94,-173.04 335.81,-180.14 338.52,-173.69"/>
</g>
<!-- &#45;20 -->
<g id="node20" class="node">
<title>&#45;20</title>
<polygon fill="lightgray" stroke="black" points="295.75,-253.72 267.75,-253.72 267.75,-235.22 295.75,-235.22 295.75,-253.72"/>
<text text-anchor="middle" x="281.75" y="-241.17" font-family="Times,serif" font-size="9.00">&#45;20</text>
</g>
<!-- &#45;20&#45;&gt;352 -->
<g id="edge38" class="edge">
<title>&#45;20&#45;&gt;352</title>
<path fill="none" stroke="green" stroke-width="0.19" stroke-dasharray="1,5" d="M273.34,-234.83C269.03,-230.46 263.67,-225.1 258.75,-220.43 246.12,-208.43 231.68,-195.38 219.91,-184.91"/>
<polygon fill="green" stroke="green" stroke-width="0.19" points="222.27,-182.32 212.46,-178.31 217.62,-187.56 222.27,-182.32"/>
</g>
<!-- &#45;20&#45;&gt;351 -->
<g id="edge45" class="edge">
<title>&#45;20&#45;&gt;351</title>
<path fill="none" stroke="red" stroke-width="0.22" d="M284.63,-234.73C287.9,-224.82 293.39,-208.14 298.21,-193.53"/>
<polygon fill="red" stroke="red" stroke-width="0.22" points="301.48,-194.77 301.29,-184.17 294.84,-192.58 301.48,-194.77"/>
</g>
<!-- 0 -->
<g id="node21" class="node">
<title>0</title>
<ellipse fill="lightblue" stroke="black" cx="430.75" cy="-92.21" rx="14.5" ry="14.5"/>
<text text-anchor="middle" x="430.75" y="-88.91" font-family="Times,serif" font-size="9.00">0</text>
</g>
<!-- 0&#45;&gt;349 -->
<g id="edge44" class="edge">
<title>0&#45;&gt;349</title>
<path fill="none" stroke="red" stroke-width="0.31" d="M418.67,-83.9C415.18,-81.85 411.34,-79.65 407.75,-77.72 378.87,-62.2 345.06,-45.86 321.81,-34.89"/>
<polygon fill="red" stroke="red" stroke-width="0.31" points="323.49,-31.81 312.95,-30.73 320.51,-38.15 323.49,-31.81"/>
</g>
<!-- 1 -->
<g id="node22" class="node">
<title>1</title>
<ellipse fill="lightblue" stroke="black" cx="186.75" cy="-92.21" rx="14.5" ry="14.5"/>
<text text-anchor="middle" x="186.75" y="-88.91" font-family="Times,serif" font-size="9.00">1</text>
</g>
<!-- 1&#45;&gt;1 -->
<g id="edge35" class="edge">
<title>1&#45;&gt;1</title>
<path fill="none" stroke="red" stroke-width="0.11" stroke-dasharray="1,5" d="M197.07,-102.65C207.56,-108.8 219.25,-105.32 219.25,-92.21 219.25,-83 213.47,-78.55 206.39,-78.85"/>
<polygon fill="red" stroke="red" stroke-width="0.11" points="205.72,-75.39 197.23,-81.72 207.82,-82.07 205.72,-75.39"/>
</g>
<!-- 2 -->
<g id="node23" class="node">
<title>2</title>
<ellipse fill="lightblue" stroke="black" cx="813.75" cy="-319.01" rx="14.5" ry="14.5"/>
<text text-anchor="middle" x="813.75" y="-315.71" font-family="Times,serif" font-size="9.00">2</text>
</g>
<!-- 3 -->
<g id="node24" class="node">
<title>3</title>
<ellipse fill="lightblue" stroke="black" cx="292.75" cy="-92.21" rx="14.5" ry="14.5"/>
<text text-anchor="middle" x="292.75" y="-88.91" font-family="Times,serif" font-size="9.00">3</text>
</g>
<!-- 352&#45;&gt;1 -->
<g id="edge31" class="edge">
<title>352&#45;&gt;1</title>
<path fill="none" stroke="green" stroke-width="0.7" d="M193.86,-142.51C192.74,-134.79 191.46,-125.88 190.29,-117.78"/>
<polygon fill="green" stroke="green" stroke-width="0.7" points="193.79,-117.53 188.9,-108.13 186.86,-118.53 193.79,-117.53"/>
</g>
<!-- 352&#45;&gt;3 -->
<g id="edge33" class="edge">
<title>352&#45;&gt;3</title>
<path fill="none" stroke="green" stroke-width="0.58" d="M213.47,-150.49C230.03,-138.53 255.39,-120.21 272.95,-107.52"/>
<polygon fill="green" stroke="green" stroke-width="0.58" points="274.56,-110.67 280.62,-101.98 270.46,-105 274.56,-110.67"/>
</g>
<!-- 352&#45;&gt;4 -->
<g id="edge20" class="edge">
<title>352&#45;&gt;4</title>
<path fill="none" stroke="green" stroke-width="0.35" d="M217,-157.37C233.36,-153.23 256.98,-147.38 277.75,-142.71 355.65,-125.2 378.94,-134.61 453.75,-106.71 454.78,-106.33 455.82,-105.9 456.86,-105.45"/>
<polygon fill="green" stroke="green" stroke-width="0.35" points="458.1,-108.74 465.42,-101.08 454.92,-102.5 458.1,-108.74"/>
</g>
<!-- 352&#45;&gt;352 -->
<g id="edge34" class="edge">
<title>352&#45;&gt;352</title>
<path fill="none" stroke="green" stroke-width="0.13" stroke-dasharray="1,5" d="M213.93,-175.89C224.98,-179.11 235.61,-175 235.61,-163.57 235.61,-155.71 230.58,-151.32 223.85,-150.38"/>
<polygon fill="green" stroke="green" stroke-width="0.13" points="223.79,-146.87 214.13,-151.23 224.4,-153.85 223.79,-146.87"/>
</g>
<!-- 352&#45;&gt;349 -->
<g id="edge48" class="edge">
<title>352&#45;&gt;349</title>
<path fill="none" stroke="red" stroke-width="0.24" d="M182.82,-147.56C168.14,-129.86 149.06,-100.03 163.75,-77.72 185.72,-44.36 232.24,-30.84 263.25,-25.42"/>
<polygon fill="red" stroke="red" stroke-width="0.24" points="263.42,-28.94 272.75,-23.93 262.33,-22.02 263.42,-28.94"/>
</g>
<!-- 1017&#45;&gt;350 -->
<g id="edge47" class="edge">
<title>1017&#45;&gt;350</title>
<path fill="none" stroke="red" stroke-width="0.28" d="M532.48,-229.4C528.04,-226.33 523.29,-223.18 518.75,-220.43 492.65,-204.59 461.6,-188.69 439.69,-177.93"/>
<polygon fill="red" stroke="red" stroke-width="0.28" points="441.23,-174.78 430.7,-173.55 438.16,-181.07 441.23,-174.78"/>
</g>
<!-- 349&#45;&gt;349 -->
<g id="edge4" class="edge">
<title>349&#45;&gt;349</title>
<path fill="none" stroke="red" stroke-width="0.2" stroke-dasharray="1,5" d="M310.93,-33.18C321.98,-36.39 332.61,-32.29 332.61,-20.86 332.61,-13 327.58,-8.61 320.85,-7.67"/>
<polygon fill="red" stroke="red" stroke-width="0.2" points="320.89,-4.15 311.23,-8.51 321.5,-11.13 320.89,-4.15"/>
</g>
<!-- 350&#45;&gt;0 -->
<g id="edge39" class="edge">
<title>350&#45;&gt;0</title>
<path fill="none" stroke="red" stroke-width="0.28" stroke-dasharray="1,5" d="M417.04,-143.25C419.32,-134.93 422.01,-125.13 424.39,-116.42"/>
<polygon fill="red" stroke="red" stroke-width="0.28" points="427.73,-117.48 427,-106.91 420.98,-115.63 427.73,-117.48"/>
</g>
<!-- 350&#45;&gt;3 -->
<g id="edge36" class="edge">
<title>350&#45;&gt;3</title>
<path fill="none" stroke="red" stroke-width="0.25" stroke-dasharray="1,5" d="M394.05,-152.29C374.77,-141.1 343.05,-122.67 315.75,-106.71 315.09,-106.33 314.42,-105.93 313.74,-105.54"/>
<polygon fill="red" stroke="red" stroke-width="0.25" points="315.64,-102.59 305.25,-100.56 312.1,-108.63 315.64,-102.59"/>
</g>
<!-- 350&#45;&gt;4 -->
<g id="edge24" class="edge">
<title>350&#45;&gt;4</title>
<path fill="none" stroke="red" stroke-width="0.42" d="M425.75,-147.86C435.98,-137.11 449.91,-122.48 460.77,-111.06"/>
<polygon fill="red" stroke="red" stroke-width="0.42" points="463.25,-113.53 467.61,-103.87 458.18,-108.7 463.25,-113.53"/>
</g>
<!-- 351&#45;&gt;0 -->
<g id="edge18" class="edge">
<title>351&#45;&gt;0</title>
<path fill="none" stroke="green" stroke-width="0.43" d="M325.88,-152.59C345.96,-141.51 379.28,-123.02 407.75,-106.71 408.3,-106.39 408.86,-106.07 409.43,-105.75"/>
<polygon fill="green" stroke="green" stroke-width="0.43" points="411.15,-108.79 418.04,-100.74 407.63,-102.74 411.15,-108.79"/>
</g>
<!-- 351&#45;&gt;351 -->
<g id="edge10" class="edge">
<title>351&#45;&gt;351</title>
<path fill="none" stroke="red" stroke-width="0.33" d="M324.93,-175.89C335.98,-179.11 346.61,-175 346.61,-163.57 346.61,-155.89 341.81,-151.52 335.31,-150.45"/>
<polygon fill="red" stroke="red" stroke-width="0.33" points="335.13,-146.95 325.43,-151.21 335.67,-153.93 335.13,-146.95"/>
</g>
</g>
</svg>
