<?xml version="1.0" encoding="UTF-8" standalone="no"?>
<!DOCTYPE svg PUBLIC "-//W3C//DTD SVG 1.1//EN"
 "http://www.w3.org/Graphics/SVG/1.1/DTD/svg11.dtd">
<!-- Generated by graphviz version 12.1.1 (20240910.0053)
 -->
<!-- Pages: 1 -->
<svg width="1088pt" height="331pt"
 viewBox="0.00 0.00 1087.75 331.01" xmlns="http://www.w3.org/2000/svg" xmlns:xlink="http://www.w3.org/1999/xlink">
<g id="graph0" class="graph" transform="scale(1 1) rotate(0) translate(4 327.01)">
<polygon fill="white" stroke="none" points="-4,4 -4,-327.01 1083.75,-327.01 1083.75,4 -4,4"/>
<!-- &#45;1 -->
<g id="node1" class="node">
<title>&#45;1</title>
<polygon fill="lightgray" stroke="black" points="149.5,-253.72 126,-253.72 126,-235.22 149.5,-235.22 149.5,-253.72"/>
<text text-anchor="middle" x="137.75" y="-241.17" font-family="Times,serif" font-size="9.00">&#45;1</text>
</g>
<!-- 49 -->
<g id="node29" class="node">
<title>49</title>
<ellipse fill="white" stroke="black" cx="365.75" cy="-166.75" rx="17.68" ry="17.68"/>
<text text-anchor="middle" x="365.75" y="-163.45" font-family="Times,serif" font-size="9.00">49</text>
</g>
<!-- &#45;1&#45;&gt;49 -->
<g id="edge9" class="edge">
<title>&#45;1&#45;&gt;49</title>
<path fill="none" stroke="red" stroke-width="0.54" stroke-dasharray="1,5" d="M143.44,-235.06C147.22,-230.1 152.61,-224.08 158.75,-220.43 216.18,-186.26 240.07,-201.24 304.75,-184.43 315.79,-181.56 327.92,-178.27 338.43,-175.38"/>
<polygon fill="red" stroke="red" stroke-width="0.54" points="339.19,-178.8 347.9,-172.76 337.32,-172.05 339.19,-178.8"/>
</g>
<!-- 52 -->
<g id="node32" class="node">
<title>52</title>
<ellipse fill="white" stroke="black" cx="159.75" cy="-166.75" rx="17.68" ry="17.68"/>
<text text-anchor="middle" x="159.75" y="-163.45" font-family="Times,serif" font-size="9.00">52</text>
</g>
<!-- &#45;1&#45;&gt;52 -->
<g id="edge17" class="edge">
<title>&#45;1&#45;&gt;52</title>
<path fill="none" stroke="red" stroke-width="0.32" d="M140.27,-234.79C143.16,-224.85 148.03,-208.1 152.17,-193.83"/>
<polygon fill="red" stroke="red" stroke-width="0.32" points="155.46,-195.05 154.89,-184.47 148.74,-193.1 155.46,-195.05"/>
</g>
<!-- &#45;2 -->
<g id="node2" class="node">
<title>&#45;2</title>
<polygon fill="lightgray" stroke="black" points="633.5,-253.72 610,-253.72 610,-235.22 633.5,-235.22 633.5,-253.72"/>
<text text-anchor="middle" x="621.75" y="-241.17" font-family="Times,serif" font-size="9.00">&#45;2</text>
</g>
<!-- &#45;2&#45;&gt;49 -->
<g id="edge3" class="edge">
<title>&#45;2&#45;&gt;49</title>
<path fill="none" stroke="green" stroke-width="0.21" d="M616.09,-235.02C612.32,-230.03 606.93,-224.02 600.75,-220.43 533.47,-181.36 439.83,-171.26 393.71,-168.65"/>
<polygon fill="green" stroke="green" stroke-width="0.21" points="394.05,-165.16 383.89,-168.17 393.71,-172.16 394.05,-165.16"/>
</g>
<!-- 51 -->
<g id="node31" class="node">
<title>51</title>
<ellipse fill="white" stroke="black" cx="751.75" cy="-166.75" rx="17.68" ry="17.68"/>
<text text-anchor="middle" x="751.75" y="-163.45" font-family="Times,serif" font-size="9.00">51</text>
</g>
<!-- &#45;2&#45;&gt;51 -->
<g id="edge10" class="edge">
<title>&#45;2&#45;&gt;51</title>
<path fill="none" stroke="red" stroke-width="0.29" d="M628.09,-235.06C631.95,-230.33 637.2,-224.57 642.75,-220.43 668.58,-201.16 702.56,-186.08 725.67,-177.08"/>
<polygon fill="red" stroke="red" stroke-width="0.29" points="726.63,-180.46 734.74,-173.65 724.15,-173.91 726.63,-180.46"/>
</g>
<!-- &#45;3 -->
<g id="node3" class="node">
<title>&#45;3</title>
<polygon fill="lightgray" stroke="black" points="405.5,-253.72 382,-253.72 382,-235.22 405.5,-235.22 405.5,-253.72"/>
<text text-anchor="middle" x="393.75" y="-241.17" font-family="Times,serif" font-size="9.00">&#45;3</text>
</g>
<!-- &#45;3&#45;&gt;49 -->
<g id="edge28" class="edge">
<title>&#45;3&#45;&gt;49</title>
<path fill="none" stroke="red" stroke-width="0.27" d="M390.54,-234.79C386.8,-224.69 380.47,-207.56 375.14,-193.14"/>
<polygon fill="red" stroke="red" stroke-width="0.27" points="378.55,-192.27 371.8,-184.1 371.98,-194.7 378.55,-192.27"/>
</g>
<!-- &#45;3&#45;&gt;51 -->
<g id="edge36" class="edge">
<title>&#45;3&#45;&gt;51</title>
<path fill="none" stroke="red" stroke-width="0.64" d="M399.33,-234.87C403.07,-229.83 408.46,-223.81 414.75,-220.43 468.11,-191.74 651.45,-175.26 722.91,-169.8"/>
<polygon fill="red" stroke="red" stroke-width="0.64" points="723.09,-173.3 732.8,-169.06 722.57,-166.32 723.09,-173.3"/>
</g>
<!-- &#45;3&#45;&gt;52 -->
<g id="edge5" class="edge">
<title>&#45;3&#45;&gt;52</title>
<path fill="none" stroke="green" stroke-width="0.39" d="M388.06,-235.06C384.28,-230.1 378.89,-224.09 372.75,-220.43 341.42,-201.77 237.82,-181.56 187.57,-172.55"/>
<polygon fill="green" stroke="green" stroke-width="0.39" points="188.46,-169.16 178,-170.86 187.24,-176.05 188.46,-169.16"/>
</g>
<!-- &#45;4 -->
<g id="node4" class="node">
<title>&#45;4</title>
<polygon fill="lightgray" stroke="black" points="591.5,-253.72 568,-253.72 568,-235.22 591.5,-235.22 591.5,-253.72"/>
<text text-anchor="middle" x="579.75" y="-241.17" font-family="Times,serif" font-size="9.00">&#45;4</text>
</g>
<!-- &#45;4&#45;&gt;51 -->
<g id="edge37" class="edge">
<title>&#45;4&#45;&gt;51</title>
<path fill="none" stroke="green" stroke-width="0.19" stroke-dasharray="1,5" d="M585.91,-234.81C589.72,-230.01 594.97,-224.25 600.75,-220.43 639.67,-194.72 692.54,-180.07 724.29,-173.03"/>
<polygon fill="green" stroke="green" stroke-width="0.19" points="724.85,-176.49 733.91,-170.99 723.4,-169.64 724.85,-176.49"/>
</g>
<!-- &#45;4&#45;&gt;52 -->
<g id="edge15" class="edge">
<title>&#45;4&#45;&gt;52</title>
<path fill="none" stroke="green" stroke-width="0.11" stroke-dasharray="1,5" d="M567.82,-237.85C556.1,-232.56 537.57,-224.8 520.75,-220.43 407,-190.85 374.94,-202.19 258.75,-184.43 234.51,-180.72 207,-176.05 187.15,-172.6"/>
<polygon fill="green" stroke="green" stroke-width="0.11" points="187.87,-169.17 177.42,-170.9 186.67,-176.07 187.87,-169.17"/>
</g>
<!-- &#45;5 -->
<g id="node5" class="node">
<title>&#45;5</title>
<polygon fill="lightgray" stroke="black" points="851.5,-253.72 828,-253.72 828,-235.22 851.5,-235.22 851.5,-253.72"/>
<text text-anchor="middle" x="839.75" y="-241.17" font-family="Times,serif" font-size="9.00">&#45;5</text>
</g>
<!-- 50 -->
<g id="node30" class="node">
<title>50</title>
<ellipse fill="white" stroke="black" cx="539.75" cy="-166.75" rx="17.68" ry="17.68"/>
<text text-anchor="middle" x="539.75" y="-163.45" font-family="Times,serif" font-size="9.00">50</text>
</g>
<!-- &#45;5&#45;&gt;50 -->
<g id="edge14" class="edge">
<title>&#45;5&#45;&gt;50</title>
<path fill="none" stroke="red" stroke-width="0.55" stroke-dasharray="1,5" d="M834.13,-234.94C830.38,-229.93 824.99,-223.91 818.75,-220.43 736.35,-174.43 621.15,-167.77 568.3,-167.34"/>
<polygon fill="red" stroke="red" stroke-width="0.55" points="568.55,-163.84 558.55,-167.33 568.55,-170.84 568.55,-163.84"/>
</g>
<!-- &#45;5&#45;&gt;51 -->
<g id="edge4" class="edge">
<title>&#45;5&#45;&gt;51</title>
<path fill="none" stroke="red" stroke-width="0.32" stroke-dasharray="1,5" d="M832.68,-235.06C828.75,-230.55 823.67,-225 818.75,-220.43 804.62,-207.29 787.49,-193.86 774.09,-183.86"/>
<polygon fill="red" stroke="red" stroke-width="0.32" points="776.41,-181.22 766.29,-178.1 772.26,-186.85 776.41,-181.22"/>
</g>
<!-- &#45;6 -->
<g id="node6" class="node">
<title>&#45;6</title>
<polygon fill="lightgray" stroke="black" points="763.5,-253.72 740,-253.72 740,-235.22 763.5,-235.22 763.5,-253.72"/>
<text text-anchor="middle" x="751.75" y="-241.17" font-family="Times,serif" font-size="9.00">&#45;6</text>
</g>
<!-- &#45;6&#45;&gt;49 -->
<g id="edge24" class="edge">
<title>&#45;6&#45;&gt;49</title>
<path fill="none" stroke="red" stroke-width="0.57" d="M746.18,-234.85C742.45,-229.8 737.06,-223.78 730.75,-220.43 715.83,-212.52 477.38,-181.84 394.15,-171.32"/>
<polygon fill="red" stroke="red" stroke-width="0.57" points="394.69,-167.86 384.33,-170.08 393.81,-174.8 394.69,-167.86"/>
</g>
<!-- &#45;6&#45;&gt;51 -->
<g id="edge7" class="edge">
<title>&#45;6&#45;&gt;51</title>
<path fill="none" stroke="green" stroke-width="0.4" d="M751.75,-234.79C751.75,-225.22 751.75,-209.36 751.75,-195.46"/>
<polygon fill="green" stroke="green" stroke-width="0.4" points="755.25,-195.51 751.75,-185.51 748.25,-195.51 755.25,-195.51"/>
</g>
<!-- &#45;7 -->
<g id="node7" class="node">
<title>&#45;7</title>
<polygon fill="lightgray" stroke="black" points="369.5,-323.01 346,-323.01 346,-304.51 369.5,-304.51 369.5,-323.01"/>
<text text-anchor="middle" x="357.75" y="-310.46" font-family="Times,serif" font-size="9.00">&#45;7</text>
</g>
<!-- 801 -->
<g id="node26" class="node">
<title>801</title>
<ellipse fill="white" stroke="black" cx="490.75" cy="-244.47" rx="20.86" ry="20.86"/>
<text text-anchor="middle" x="490.75" y="-241.17" font-family="Times,serif" font-size="9.00">801</text>
</g>
<!-- &#45;7&#45;&gt;801 -->
<g id="edge44" class="edge">
<title>&#45;7&#45;&gt;801</title>
<path fill="none" stroke="green" stroke-width="0.67" d="M369.96,-308.64C389.73,-301.72 429.69,-286.73 460.75,-268.51 462.58,-267.44 464.42,-266.27 466.25,-265.05"/>
<polygon fill="green" stroke="green" stroke-width="0.67" points="468.2,-267.96 474.26,-259.27 464.1,-262.29 468.2,-267.96"/>
</g>
<!-- &#45;7&#45;&gt;49 -->
<g id="edge34" class="edge">
<title>&#45;7&#45;&gt;49</title>
<path fill="none" stroke="green" stroke-width="0.22" stroke-dasharray="1,5" d="M345.82,-312.09C322.28,-310.04 270.22,-301.77 247.75,-268.51 235.79,-250.81 236.12,-238.36 247.75,-220.43 258.27,-204.21 308.11,-185.95 339.56,-175.76"/>
<polygon fill="green" stroke="green" stroke-width="0.22" points="340.26,-179.2 348.73,-172.84 338.14,-172.53 340.26,-179.2"/>
</g>
<!-- &#45;7&#45;&gt;50 -->
<g id="edge21" class="edge">
<title>&#45;7&#45;&gt;50</title>
<path fill="none" stroke="green" stroke-width="0.68" d="M369.72,-313.45C399.97,-314.48 479.95,-312.66 520.75,-268.51 538.76,-249.03 542.24,-218.09 542,-195.63"/>
<polygon fill="green" stroke="green" stroke-width="0.68" points="545.51,-195.66 541.64,-185.8 538.51,-195.92 545.51,-195.66"/>
</g>
<!-- &#45;7&#45;&gt;52 -->
<g id="edge54" class="edge">
<title>&#45;7&#45;&gt;52</title>
<path fill="none" stroke="red" stroke-width="0.4" d="M345.84,-312.88C296.26,-313.07 107.18,-310.99 70.75,-268.51 56.84,-252.29 60.17,-238.99 70.75,-220.43 83.91,-197.35 111.6,-183.35 132.62,-175.64"/>
<polygon fill="red" stroke="red" stroke-width="0.4" points="133.67,-178.98 142.02,-172.46 131.43,-172.35 133.67,-178.98"/>
</g>
<!-- &#45;8 -->
<g id="node8" class="node">
<title>&#45;8</title>
<polygon fill="lightgray" stroke="black" points="675.5,-253.72 652,-253.72 652,-235.22 675.5,-235.22 675.5,-253.72"/>
<text text-anchor="middle" x="663.75" y="-241.17" font-family="Times,serif" font-size="9.00">&#45;8</text>
</g>
<!-- &#45;8&#45;&gt;50 -->
<g id="edge35" class="edge">
<title>&#45;8&#45;&gt;50</title>
<path fill="none" stroke="green" stroke-width="0.41" stroke-dasharray="1,5" d="M657.38,-235.1C653.51,-230.4 648.26,-224.63 642.75,-220.43 618.77,-202.12 587.47,-187.16 565.7,-177.92"/>
<polygon fill="green" stroke="green" stroke-width="0.41" points="567.28,-174.79 556.7,-174.21 564.61,-181.26 567.28,-174.79"/>
</g>
<!-- &#45;9 -->
<g id="node9" class="node">
<title>&#45;9</title>
<polygon fill="lightgray" stroke="black" points="23.5,-253.72 0,-253.72 0,-235.22 23.5,-235.22 23.5,-253.72"/>
<text text-anchor="middle" x="11.75" y="-241.17" font-family="Times,serif" font-size="9.00">&#45;9</text>
</g>
<!-- &#45;9&#45;&gt;52 -->
<g id="edge33" class="edge">
<title>&#45;9&#45;&gt;52</title>
<path fill="none" stroke="green" stroke-width="0.5" d="M19.86,-235.06C24.74,-230.33 31.24,-224.57 37.75,-220.43 68.41,-200.93 107.52,-185.49 133.08,-176.49"/>
<polygon fill="green" stroke="green" stroke-width="0.5" points="134.1,-179.84 142.42,-173.28 131.83,-173.22 134.1,-179.84"/>
</g>
<!-- &#45;10 -->
<g id="node10" class="node">
<title>&#45;10</title>
<polygon fill="lightgray" stroke="black" points="195.75,-253.72 167.75,-253.72 167.75,-235.22 195.75,-235.22 195.75,-253.72"/>
<text text-anchor="middle" x="181.75" y="-241.17" font-family="Times,serif" font-size="9.00">&#45;10</text>
</g>
<!-- &#45;10&#45;&gt;49 -->
<g id="edge2" class="edge">
<title>&#45;10&#45;&gt;49</title>
<path fill="none" stroke="green" stroke-width="0.36" stroke-dasharray="1,5" d="M190.47,-234.89C195.71,-230.1 202.71,-224.34 209.75,-220.43 232.25,-207.93 300.28,-186.95 338.66,-175.61"/>
<polygon fill="green" stroke="green" stroke-width="0.36" points="339.5,-179.01 348.11,-172.83 337.53,-172.29 339.5,-179.01"/>
</g>
<!-- &#45;10&#45;&gt;52 -->
<g id="edge32" class="edge">
<title>&#45;10&#45;&gt;52</title>
<path fill="none" stroke="green" stroke-width="0.18" d="M179.23,-234.79C176.34,-224.85 171.47,-208.1 167.33,-193.83"/>
<polygon fill="green" stroke="green" stroke-width="0.18" points="170.7,-192.9 164.55,-184.27 163.98,-194.85 170.7,-192.9"/>
</g>
<!-- &#45;11 -->
<g id="node11" class="node">
<title>&#45;11</title>
<polygon fill="lightgray" stroke="black" points="953.75,-323.01 925.75,-323.01 925.75,-304.51 953.75,-304.51 953.75,-323.01"/>
<text text-anchor="middle" x="939.75" y="-310.46" font-family="Times,serif" font-size="9.00">&#45;11</text>
</g>
<!-- &#45;12 -->
<g id="node12" class="node">
<title>&#45;12</title>
<polygon fill="lightgray" stroke="black" points="809.75,-253.72 781.75,-253.72 781.75,-235.22 809.75,-235.22 809.75,-253.72"/>
<text text-anchor="middle" x="795.75" y="-241.17" font-family="Times,serif" font-size="9.00">&#45;12</text>
</g>
<!-- &#45;12&#45;&gt;50 -->
<g id="edge42" class="edge">
<title>&#45;12&#45;&gt;50</title>
<path fill="none" stroke="red" stroke-width="0.53" stroke-dasharray="1,5" d="M789.39,-235.03C785.19,-230.05 779.28,-224.04 772.75,-220.43 705.64,-183.39 613.97,-172.37 568.2,-169.11"/>
<polygon fill="red" stroke="red" stroke-width="0.53" points="568.6,-165.63 558.4,-168.49 568.15,-172.62 568.6,-165.63"/>
</g>
<!-- &#45;12&#45;&gt;51 -->
<g id="edge41" class="edge">
<title>&#45;12&#45;&gt;51</title>
<path fill="none" stroke="red" stroke-width="0.15" d="M790.7,-234.79C784.57,-224.23 773.98,-206.01 765.39,-191.23"/>
<polygon fill="red" stroke="red" stroke-width="0.15" points="768.52,-189.65 760.47,-182.76 762.47,-193.16 768.52,-189.65"/>
</g>
<!-- &#45;13 -->
<g id="node13" class="node">
<title>&#45;13</title>
<polygon fill="lightgray" stroke="black" points="317.75,-253.72 289.75,-253.72 289.75,-235.22 317.75,-235.22 317.75,-253.72"/>
<text text-anchor="middle" x="303.75" y="-241.17" font-family="Times,serif" font-size="9.00">&#45;13</text>
</g>
<!-- &#45;13&#45;&gt;49 -->
<g id="edge23" class="edge">
<title>&#45;13&#45;&gt;49</title>
<path fill="none" stroke="red" stroke-width="0.35" d="M310.86,-234.79C319.93,-223.71 335.93,-204.17 348.32,-189.04"/>
<polygon fill="red" stroke="red" stroke-width="0.35" points="350.8,-191.53 354.43,-181.58 345.38,-187.1 350.8,-191.53"/>
</g>
<!-- &#45;13&#45;&gt;50 -->
<g id="edge39" class="edge">
<title>&#45;13&#45;&gt;50</title>
<path fill="none" stroke="green" stroke-width="0.14" d="M310.14,-235.07C314.34,-230.11 320.25,-224.1 326.75,-220.43 387,-186.38 469.02,-174.13 511.56,-169.88"/>
<polygon fill="green" stroke="green" stroke-width="0.14" points="511.87,-173.37 521.51,-168.97 511.23,-166.4 511.87,-173.37"/>
</g>
<!-- &#45;13&#45;&gt;52 -->
<g id="edge6" class="edge">
<title>&#45;13&#45;&gt;52</title>
<path fill="none" stroke="red" stroke-width="0.11" d="M289.42,-235.93C264.79,-222.98 214.18,-196.38 183.99,-180.5"/>
<polygon fill="red" stroke="red" stroke-width="0.11" points="185.95,-177.58 175.47,-176.02 182.69,-183.77 185.95,-177.58"/>
</g>
<!-- &#45;14 -->
<g id="node14" class="node">
<title>&#45;14</title>
<polygon fill="lightgray" stroke="black" points="999.75,-323.01 971.75,-323.01 971.75,-304.51 999.75,-304.51 999.75,-323.01"/>
<text text-anchor="middle" x="985.75" y="-310.46" font-family="Times,serif" font-size="9.00">&#45;14</text>
</g>
<!-- &#45;15 -->
<g id="node15" class="node">
<title>&#45;15</title>
<polygon fill="lightgray" stroke="black" points="107.75,-253.72 79.75,-253.72 79.75,-235.22 107.75,-235.22 107.75,-253.72"/>
<text text-anchor="middle" x="93.75" y="-241.17" font-family="Times,serif" font-size="9.00">&#45;15</text>
</g>
<!-- 4 -->
<g id="node25" class="node">
<title>4</title>
<ellipse fill="lightblue" stroke="black" cx="281.75" cy="-166.75" rx="14.5" ry="14.5"/>
<text text-anchor="middle" x="281.75" y="-163.45" font-family="Times,serif" font-size="9.00">4</text>
</g>
<!-- &#45;15&#45;&gt;4 -->
<g id="edge51" class="edge">
<title>&#45;15&#45;&gt;4</title>
<path fill="none" stroke="red" stroke-width="0.16" d="M100.62,-234.78C104.82,-229.96 110.57,-224.2 116.75,-220.43 162.39,-192.6 224.2,-178.02 257.72,-171.71"/>
<polygon fill="red" stroke="red" stroke-width="0.16" points="258.09,-175.2 267.32,-169.98 256.86,-168.31 258.09,-175.2"/>
</g>
<!-- &#45;15&#45;&gt;52 -->
<g id="edge31" class="edge">
<title>&#45;15&#45;&gt;52</title>
<path fill="none" stroke="red" stroke-width="0.26" d="M101.32,-234.79C111.18,-223.47 128.73,-203.34 142.03,-188.08"/>
<polygon fill="red" stroke="red" stroke-width="0.26" points="144.34,-190.76 148.27,-180.92 139.06,-186.16 144.34,-190.76"/>
</g>
<!-- &#45;16 -->
<g id="node16" class="node">
<title>&#45;16</title>
<polygon fill="lightgray" stroke="black" points="907.75,-323.01 879.75,-323.01 879.75,-304.51 907.75,-304.51 907.75,-323.01"/>
<text text-anchor="middle" x="893.75" y="-310.46" font-family="Times,serif" font-size="9.00">&#45;16</text>
</g>
<!-- &#45;16&#45;&gt;49 -->
<g id="edge13" class="edge">
<title>&#45;16&#45;&gt;49</title>
<path fill="none" stroke="green" stroke-width="0.13" stroke-dasharray="1,5" d="M879.42,-312.87C791.09,-313.35 322.86,-313.77 280.75,-268.51 266.19,-252.87 270.35,-239.1 280.75,-220.43 293.1,-198.24 319.09,-184.21 339.1,-176.26"/>
<polygon fill="green" stroke="green" stroke-width="0.13" points="340.28,-179.55 348.45,-172.81 337.86,-172.99 340.28,-179.55"/>
</g>
<!-- &#45;16&#45;&gt;51 -->
<g id="edge29" class="edge">
<title>&#45;16&#45;&gt;51</title>
<path fill="none" stroke="red" stroke-width="0.12" stroke-dasharray="1,5" d="M902.77,-304.28C910.82,-296.03 922.04,-282.7 926.75,-268.51 933.48,-248.23 939.5,-237.58 926.75,-220.43 892.68,-174.59 820.01,-167.17 779.86,-166.8"/>
<polygon fill="red" stroke="red" stroke-width="0.12" points="779.85,-163.3 769.87,-166.86 779.88,-170.3 779.85,-163.3"/>
</g>
<!-- 2687 -->
<g id="node33" class="node">
<title>2687</title>
<ellipse fill="white" stroke="black" cx="893.75" cy="-244.47" rx="24.04" ry="24.04"/>
<text text-anchor="middle" x="893.75" y="-241.17" font-family="Times,serif" font-size="9.00">2687</text>
</g>
<!-- &#45;16&#45;&gt;2687 -->
<g id="edge49" class="edge">
<title>&#45;16&#45;&gt;2687</title>
<path fill="none" stroke="green" stroke-width="0.34" d="M893.75,-304.24C893.75,-297.82 893.75,-288.55 893.75,-279.28"/>
<polygon fill="green" stroke="green" stroke-width="0.34" points="897.25,-279.45 893.75,-269.45 890.25,-279.45 897.25,-279.45"/>
</g>
<!-- &#45;17 -->
<g id="node17" class="node">
<title>&#45;17</title>
<polygon fill="lightgray" stroke="black" points="451.75,-253.72 423.75,-253.72 423.75,-235.22 451.75,-235.22 451.75,-253.72"/>
<text text-anchor="middle" x="437.75" y="-241.17" font-family="Times,serif" font-size="9.00">&#45;17</text>
</g>
<!-- 1 -->
<g id="node22" class="node">
<title>1</title>
<ellipse fill="lightblue" stroke="black" cx="619.75" cy="-14.5" rx="14.5" ry="14.5"/>
<text text-anchor="middle" x="619.75" y="-11.2" font-family="Times,serif" font-size="9.00">1</text>
</g>
<!-- &#45;17&#45;&gt;1 -->
<g id="edge48" class="edge">
<title>&#45;17&#45;&gt;1</title>
<path fill="none" stroke="red" stroke-width="0.45" stroke-dasharray="1,5" d="M436.55,-234.74C433.16,-206.4 426.46,-115.85 470.75,-64.99 502.27,-28.79 560.93,-18.97 594.48,-16.37"/>
<polygon fill="red" stroke="red" stroke-width="0.45" points="594.37,-19.89 604.14,-15.78 593.94,-12.9 594.37,-19.89"/>
</g>
<!-- &#45;17&#45;&gt;49 -->
<g id="edge19" class="edge">
<title>&#45;17&#45;&gt;49</title>
<path fill="none" stroke="green" stroke-width="0.39" stroke-dasharray="1,5" d="M429.49,-234.79C418.67,-223.41 399.37,-203.1 384.83,-187.82"/>
<polygon fill="green" stroke="green" stroke-width="0.39" points="387.56,-185.61 378.13,-180.78 382.49,-190.43 387.56,-185.61"/>
</g>
<!-- &#45;17&#45;&gt;50 -->
<g id="edge25" class="edge">
<title>&#45;17&#45;&gt;50</title>
<path fill="none" stroke="red" stroke-width="0.21" d="M445.47,-234.96C449.77,-230.42 455.33,-224.88 460.75,-220.43 478.38,-205.96 500.04,-191.74 516.21,-181.73"/>
<polygon fill="red" stroke="red" stroke-width="0.21" points="517.59,-184.99 524.3,-176.79 513.94,-179.01 517.59,-184.99"/>
</g>
<!-- &#45;18 -->
<g id="node18" class="node">
<title>&#45;18</title>
<polygon fill="lightgray" stroke="black" points="721.75,-253.72 693.75,-253.72 693.75,-235.22 721.75,-235.22 721.75,-253.72"/>
<text text-anchor="middle" x="707.75" y="-241.17" font-family="Times,serif" font-size="9.00">&#45;18</text>
</g>
<!-- &#45;18&#45;&gt;49 -->
<g id="edge20" class="edge">
<title>&#45;18&#45;&gt;49</title>
<path fill="none" stroke="red" stroke-width="0.24" stroke-dasharray="1,5" d="M701.46,-234.89C697.29,-229.86 691.38,-223.84 684.75,-220.43 658.93,-207.15 466.51,-180.93 393.62,-171.36"/>
<polygon fill="red" stroke="red" stroke-width="0.24" points="394.11,-167.89 383.74,-170.07 393.2,-174.83 394.11,-167.89"/>
</g>
<!-- &#45;18&#45;&gt;50 -->
<g id="edge26" class="edge">
<title>&#45;18&#45;&gt;50</title>
<path fill="none" stroke="green" stroke-width="0.57" d="M700.83,-234.87C696.6,-230.08 690.85,-224.32 684.75,-220.43 647.33,-196.59 597.63,-181.54 567.2,-173.89"/>
<polygon fill="green" stroke="green" stroke-width="0.57" points="568.3,-170.56 557.75,-171.61 566.65,-177.36 568.3,-170.56"/>
</g>
<!-- &#45;18&#45;&gt;51 -->
<g id="edge1" class="edge">
<title>&#45;18&#45;&gt;51</title>
<path fill="none" stroke="red" stroke-width="0.25" d="M712.8,-234.79C718.93,-224.23 729.52,-206.01 738.11,-191.23"/>
<polygon fill="red" stroke="red" stroke-width="0.25" points="740.95,-193.3 742.95,-182.89 734.9,-189.78 740.95,-193.3"/>
</g>
<!-- &#45;19 -->
<g id="node19" class="node">
<title>&#45;19</title>
<polygon fill="lightgray" stroke="black" points="363.75,-253.72 335.75,-253.72 335.75,-235.22 363.75,-235.22 363.75,-253.72"/>
<text text-anchor="middle" x="349.75" y="-241.17" font-family="Times,serif" font-size="9.00">&#45;19</text>
</g>
<!-- &#45;19&#45;&gt;4 -->
<g id="edge47" class="edge">
<title>&#45;19&#45;&gt;4</title>
<path fill="none" stroke="green" stroke-width="0.52" d="M341.95,-234.79C331.35,-222.99 312.14,-201.59 298.27,-186.14"/>
<polygon fill="green" stroke="green" stroke-width="0.52" points="301.01,-183.96 291.72,-178.86 295.8,-188.64 301.01,-183.96"/>
</g>
<!-- &#45;19&#45;&gt;49 -->
<g id="edge30" class="edge">
<title>&#45;19&#45;&gt;49</title>
<path fill="none" stroke="green" stroke-width="0.21" d="M351.59,-234.79C353.67,-224.91 357.18,-208.31 360.18,-194.1"/>
<polygon fill="green" stroke="green" stroke-width="0.21" points="363.54,-195.12 362.19,-184.62 356.69,-193.68 363.54,-195.12"/>
</g>
<!-- &#45;19&#45;&gt;50 -->
<g id="edge18" class="edge">
<title>&#45;19&#45;&gt;50</title>
<path fill="none" stroke="green" stroke-width="0.67" d="M356.61,-234.77C360.82,-229.95 366.57,-224.19 372.75,-220.43 417.1,-193.48 476.56,-179.05 511.26,-172.43"/>
<polygon fill="green" stroke="green" stroke-width="0.67" points="511.8,-175.88 521.02,-170.65 510.55,-169 511.8,-175.88"/>
</g>
<!-- &#45;20 -->
<g id="node20" class="node">
<title>&#45;20</title>
<polygon fill="lightgray" stroke="black" points="1079.75,-253.72 1051.75,-253.72 1051.75,-235.22 1079.75,-235.22 1079.75,-253.72"/>
<text text-anchor="middle" x="1065.75" y="-241.17" font-family="Times,serif" font-size="9.00">&#45;20</text>
</g>
<!-- &#45;20&#45;&gt;51 -->
<g id="edge38" class="edge">
<title>&#45;20&#45;&gt;51</title>
<path fill="none" stroke="red" stroke-width="0.36" d="M1059.44,-234.93C1055.27,-229.91 1049.36,-223.89 1042.75,-220.43 955.08,-174.49 834.42,-167.87 780.18,-167.4"/>
<polygon fill="red" stroke="red" stroke-width="0.36" points="780.21,-163.9 770.2,-167.38 780.19,-170.9 780.21,-163.9"/>
</g>
<!-- 0 -->
<g id="node21" class="node">
<title>0</title>
<ellipse fill="lightblue" stroke="black" cx="365.75" cy="-89.03" rx="14.5" ry="14.5"/>
<text text-anchor="middle" x="365.75" y="-85.73" font-family="Times,serif" font-size="9.00">0</text>
</g>
<!-- 0&#45;&gt;0 -->
<g id="edge16" class="edge">
<title>0&#45;&gt;0</title>
<path fill="none" stroke="red" stroke-width="0.2" stroke-dasharray="1,5" d="M375.73,-99.73C386.31,-106.43 398.25,-102.86 398.25,-89.03 398.25,-79.31 392.35,-74.66 385.16,-75.08"/>
<polygon fill="red" stroke="red" stroke-width="0.2" points="384.33,-71.67 376.02,-78.24 386.61,-78.29 384.33,-71.67"/>
</g>
<!-- 2 -->
<g id="node23" class="node">
<title>2</title>
<ellipse fill="lightblue" stroke="black" cx="581.75" cy="-89.03" rx="14.5" ry="14.5"/>
<text text-anchor="middle" x="581.75" y="-85.73" font-family="Times,serif" font-size="9.00">2</text>
</g>
<!-- 3 -->
<g id="node24" class="node">
<title>3</title>
<ellipse fill="lightblue" stroke="black" cx="493.75" cy="-89.03" rx="14.5" ry="14.5"/>
<text text-anchor="middle" x="493.75" y="-85.73" font-family="Times,serif" font-size="9.00">3</text>
</g>
<!-- 801&#45;&gt;50 -->
<g id="edge45" class="edge">
<title>801&#45;&gt;50</title>
<path fill="none" stroke="green" stroke-width="0.17" stroke-dasharray="1,5" d="M501.87,-226.29C508.8,-215.58 517.79,-201.69 525.27,-190.12"/>
<polygon fill="green" stroke="green" stroke-width="0.17" points="528.01,-192.33 530.51,-182.04 522.13,-188.53 528.01,-192.33"/>
</g>
<!-- 2784 -->
<g id="node27" class="node">
<title>2784</title>
<ellipse fill="white" stroke="black" cx="654.75" cy="-89.03" rx="24.04" ry="24.04"/>
<text text-anchor="middle" x="654.75" y="-85.73" font-family="Times,serif" font-size="9.00">2784</text>
</g>
<!-- 2784&#45;&gt;1 -->
<g id="edge53" class="edge">
<title>2784&#45;&gt;1</title>
<path fill="none" stroke="green" stroke-width="0.69" stroke-dasharray="1,5" d="M644.63,-67.05C640.17,-57.81 634.93,-46.95 630.41,-37.58"/>
<polygon fill="green" stroke="green" stroke-width="0.69" points="633.64,-36.23 626.14,-28.75 627.34,-39.28 633.64,-36.23"/>
</g>
<!-- 457 -->
<g id="node28" class="node">
<title>457</title>
<ellipse fill="white" stroke="black" cx="994.75" cy="-244.47" rx="20.86" ry="20.86"/>
<text text-anchor="middle" x="994.75" y="-241.17" font-family="Times,serif" font-size="9.00">457</text>
</g>
<!-- 457&#45;&gt;457 -->
<g id="edge46" class="edge">
<title>457&#45;&gt;457</title>
<path fill="none" stroke="red" stroke-width="0.21" stroke-dasharray="1,5" d="M1012.33,-256.55C1023.24,-259.46 1033.61,-255.43 1033.61,-244.47 1033.61,-237.11 1028.93,-232.87 1022.55,-231.77"/>
<polygon fill="red" stroke="red" stroke-width="0.21" points="1022.43,-228.27 1012.66,-232.38 1022.85,-235.26 1022.43,-228.27"/>
</g>
<!-- 457&#45;&gt;51 -->
<g id="edge43" class="edge">
<title>457&#45;&gt;51</title>
<path fill="none" stroke="red" stroke-width="0.52" stroke-dasharray="1,5" d="M978.31,-231.02C972.66,-227.19 966.14,-223.25 959.75,-220.43 898.52,-193.45 820.82,-178.4 779.9,-171.82"/>
<polygon fill="red" stroke="red" stroke-width="0.52" points="780.58,-168.38 770.16,-170.3 779.5,-175.3 780.58,-168.38"/>
</g>
<!-- 49&#45;&gt;0 -->
<g id="edge27" class="edge">
<title>49&#45;&gt;0</title>
<path fill="none" stroke="red" stroke-width="0.38" d="M365.75,-148.95C365.75,-138.75 365.75,-125.57 365.75,-114.26"/>
<polygon fill="red" stroke="red" stroke-width="0.38" points="369.25,-114.33 365.75,-104.33 362.25,-114.33 369.25,-114.33"/>
</g>
<!-- 49&#45;&gt;3 -->
<g id="edge40" class="edge">
<title>49&#45;&gt;3</title>
<path fill="none" stroke="green" stroke-width="0.15" d="M380.94,-156.77C403.82,-143.23 447.2,-117.57 472.99,-102.31"/>
<polygon fill="green" stroke="green" stroke-width="0.15" points="474.6,-105.43 481.43,-97.32 471.04,-99.4 474.6,-105.43"/>
</g>
<!-- 50&#45;&gt;1 -->
<g id="edge22" class="edge">
<title>50&#45;&gt;1</title>
<path fill="none" stroke="red" stroke-width="0.32" stroke-dasharray="1,5" d="M539.48,-148.82C539.88,-127.73 543.07,-91.29 558.75,-64.99 568.23,-49.1 584.8,-36.15 598.27,-27.49"/>
<polygon fill="red" stroke="red" stroke-width="0.32" points="599.84,-30.63 606.57,-22.44 596.21,-24.65 599.84,-30.63"/>
</g>
<!-- 50&#45;&gt;2 -->
<g id="edge11" class="edge">
<title>50&#45;&gt;2</title>
<path fill="none" stroke="red" stroke-width="0.3" d="M548.05,-150.79C554.37,-139.39 563.16,-123.55 570.18,-110.9"/>
<polygon fill="red" stroke="red" stroke-width="0.3" points="573.12,-112.81 574.91,-102.37 566.99,-109.42 573.12,-112.81"/>
</g>
<!-- 50&#45;&gt;3 -->
<g id="edge8" class="edge">
<title>50&#45;&gt;3</title>
<path fill="none" stroke="red" stroke-width="0.53" stroke-dasharray="1,5" d="M530.88,-151.15C523.97,-139.78 514.29,-123.84 506.54,-111.09"/>
<polygon fill="red" stroke="red" stroke-width="0.53" points="509.67,-109.51 501.49,-102.78 503.69,-113.14 509.67,-109.51"/>
</g>
<!-- 51&#45;&gt;1 -->
<g id="edge12" class="edge">
<title>51&#45;&gt;1</title>
<path fill="none" stroke="green" stroke-width="0.74" stroke-dasharray="1,5" d="M744.4,-150.53C733.84,-129.67 712.85,-91.74 687.75,-64.99 674.03,-50.37 655.46,-37.2 641.2,-28.12"/>
<polygon fill="green" stroke="green" stroke-width="0.74" points="643.42,-25.38 633.07,-23.11 639.75,-31.34 643.42,-25.38"/>
</g>
<!-- 51&#45;&gt;2784 -->
<g id="edge52" class="edge">
<title>51&#45;&gt;2784</title>
<path fill="none" stroke="green" stroke-width="0.26" d="M738.26,-155.22C723.64,-143.81 699.91,-125.29 681.48,-110.9"/>
<polygon fill="green" stroke="green" stroke-width="0.26" points="683.79,-108.26 673.75,-104.87 679.48,-113.78 683.79,-108.26"/>
</g>
<!-- 2687&#45;&gt;51 -->
<g id="edge50" class="edge">
<title>2687&#45;&gt;51</title>
<path fill="none" stroke="green" stroke-width="0.25" d="M874.54,-229.3C870.1,-226.24 865.33,-223.11 860.75,-220.43 833.1,-204.24 799.73,-188.65 777.26,-178.69"/>
<polygon fill="green" stroke="green" stroke-width="0.25" points="778.96,-175.61 768.4,-174.81 776.15,-182.03 778.96,-175.61"/>
</g>
</g>
</svg>
