<?xml version="1.0" encoding="UTF-8" standalone="no"?>
<!DOCTYPE svg PUBLIC "-//W3C//DTD SVG 1.1//EN"
 "http://www.w3.org/Graphics/SVG/1.1/DTD/svg11.dtd">
<!-- Generated by graphviz version 12.1.1 (20240910.0053)
 -->
<!-- Pages: 1 -->
<svg width="824pt" height="335pt"
 viewBox="0.00 0.00 823.60 335.14" xmlns="http://www.w3.org/2000/svg" xmlns:xlink="http://www.w3.org/1999/xlink">
<g id="graph0" class="graph" transform="scale(1 1) rotate(0) translate(4 331.14)">
<polygon fill="white" stroke="none" points="-4,4 -4,-331.14 819.6,-331.14 819.6,4 -4,4"/>
<!-- &#45;1 -->
<g id="node1" class="node">
<title>&#45;1</title>
<polygon fill="lightgray" stroke="black" points="505.35,-250.54 481.85,-250.54 481.85,-232.04 505.35,-232.04 505.35,-250.54"/>
<text text-anchor="middle" x="493.6" y="-237.99" font-family="Times,serif" font-size="9.00">&#45;1</text>
</g>
<!-- 281 -->
<g id="node28" class="node">
<title>281</title>
<ellipse fill="white" stroke="black" cx="631.6" cy="-163.57" rx="20.86" ry="20.86"/>
<text text-anchor="middle" x="631.6" y="-160.27" font-family="Times,serif" font-size="9.00">281</text>
</g>
<!-- &#45;1&#45;&gt;281 -->
<g id="edge19" class="edge">
<title>&#45;1&#45;&gt;281</title>
<path fill="none" stroke="red" stroke-width="0.22" d="M501.26,-231.92C505.04,-228.11 509.8,-223.72 514.6,-220.43 542.49,-201.29 577.96,-185.37 602.49,-175.49"/>
<polygon fill="red" stroke="red" stroke-width="0.22" points="603.63,-178.8 611.65,-171.88 601.06,-172.29 603.63,-178.8"/>
</g>
<!-- 282 -->
<g id="node29" class="node">
<title>282</title>
<ellipse fill="white" stroke="black" cx="429.6" cy="-163.57" rx="20.86" ry="20.86"/>
<text text-anchor="middle" x="429.6" y="-160.27" font-family="Times,serif" font-size="9.00">282</text>
</g>
<!-- &#45;1&#45;&gt;282 -->
<g id="edge24" class="edge">
<title>&#45;1&#45;&gt;282</title>
<path fill="none" stroke="red" stroke-width="0.4" d="M486.26,-231.6C477.34,-221.05 461.93,-202.82 449.43,-188.03"/>
<polygon fill="red" stroke="red" stroke-width="0.4" points="452.37,-186.09 443.24,-180.71 447.02,-190.61 452.37,-186.09"/>
</g>
<!-- 283 -->
<g id="node30" class="node">
<title>283</title>
<ellipse fill="white" stroke="black" cx="514.6" cy="-163.57" rx="20.86" ry="20.86"/>
<text text-anchor="middle" x="514.6" y="-160.27" font-family="Times,serif" font-size="9.00">283</text>
</g>
<!-- &#45;1&#45;&gt;283 -->
<g id="edge36" class="edge">
<title>&#45;1&#45;&gt;283</title>
<path fill="none" stroke="green" stroke-width="0.14" stroke-dasharray="1,5" d="M496.01,-231.6C498.57,-222.35 502.77,-207.2 506.53,-193.64"/>
<polygon fill="green" stroke="green" stroke-width="0.14" points="509.81,-194.93 509.11,-184.36 503.06,-193.06 509.81,-194.93"/>
</g>
<!-- 284 -->
<g id="node31" class="node">
<title>284</title>
<ellipse fill="white" stroke="black" cx="292.6" cy="-163.57" rx="20.86" ry="20.86"/>
<text text-anchor="middle" x="292.6" y="-160.27" font-family="Times,serif" font-size="9.00">284</text>
</g>
<!-- &#45;1&#45;&gt;284 -->
<g id="edge14" class="edge">
<title>&#45;1&#45;&gt;284</title>
<path fill="none" stroke="green" stroke-width="0.19" d="M486.13,-231.6C482.4,-227.72 477.62,-223.37 472.6,-220.43 424.32,-192.19 360.26,-176.76 323.02,-169.62"/>
<polygon fill="green" stroke="green" stroke-width="0.19" points="324.02,-166.25 313.55,-167.88 322.75,-173.13 324.02,-166.25"/>
</g>
<!-- &#45;2 -->
<g id="node2" class="node">
<title>&#45;2</title>
<polygon fill="lightgray" stroke="black" points="71.35,-321.89 47.85,-321.89 47.85,-303.39 71.35,-303.39 71.35,-321.89"/>
<text text-anchor="middle" x="59.6" y="-309.34" font-family="Times,serif" font-size="9.00">&#45;2</text>
</g>
<!-- &#45;3 -->
<g id="node3" class="node">
<title>&#45;3</title>
<polygon fill="lightgray" stroke="black" points="113.35,-321.89 89.85,-321.89 89.85,-303.39 113.35,-303.39 113.35,-321.89"/>
<text text-anchor="middle" x="101.6" y="-309.34" font-family="Times,serif" font-size="9.00">&#45;3</text>
</g>
<!-- &#45;4 -->
<g id="node4" class="node">
<title>&#45;4</title>
<polygon fill="lightgray" stroke="black" points="547.35,-250.54 523.85,-250.54 523.85,-232.04 547.35,-232.04 547.35,-250.54"/>
<text text-anchor="middle" x="535.6" y="-237.99" font-family="Times,serif" font-size="9.00">&#45;4</text>
</g>
<!-- &#45;4&#45;&gt;282 -->
<g id="edge38" class="edge">
<title>&#45;4&#45;&gt;282</title>
<path fill="none" stroke="green" stroke-width="0.13" d="M527.32,-231.82C523.57,-228.15 519,-223.92 514.6,-220.43 495.85,-205.59 473.15,-190.82 455.93,-180.2"/>
<polygon fill="green" stroke="green" stroke-width="0.13" points="458.01,-177.37 447.65,-175.15 454.37,-183.35 458.01,-177.37"/>
</g>
<!-- &#45;4&#45;&gt;283 -->
<g id="edge42" class="edge">
<title>&#45;4&#45;&gt;283</title>
<path fill="none" stroke="green" stroke-width="0.16" d="M533.19,-231.6C530.62,-222.35 526.42,-207.2 522.66,-193.64"/>
<polygon fill="green" stroke="green" stroke-width="0.16" points="526.14,-193.1 520.1,-184.39 519.4,-194.97 526.14,-193.1"/>
</g>
<!-- &#45;5 -->
<g id="node5" class="node">
<title>&#45;5</title>
<polygon fill="lightgray" stroke="black" points="237.35,-250.54 213.85,-250.54 213.85,-232.04 237.35,-232.04 237.35,-250.54"/>
<text text-anchor="middle" x="225.6" y="-237.99" font-family="Times,serif" font-size="9.00">&#45;5</text>
</g>
<!-- &#45;5&#45;&gt;282 -->
<g id="edge4" class="edge">
<title>&#45;5&#45;&gt;282</title>
<path fill="none" stroke="red" stroke-width="0.3" d="M233.06,-231.59C236.78,-227.71 241.57,-223.36 246.6,-220.43 295.81,-191.8 361.15,-176.47 398.97,-169.46"/>
<polygon fill="red" stroke="red" stroke-width="0.3" points="399.19,-172.98 408.43,-167.78 397.97,-166.08 399.19,-172.98"/>
</g>
<!-- &#45;5&#45;&gt;283 -->
<g id="edge26" class="edge">
<title>&#45;5&#45;&gt;283</title>
<path fill="none" stroke="red" stroke-width="0.24" d="M232.52,-231.7C236.26,-227.65 241.21,-223.12 246.6,-220.43 332.52,-177.59 366.74,-208.83 459.6,-184.43 468.18,-182.17 477.32,-179.14 485.63,-176.13"/>
<polygon fill="red" stroke="red" stroke-width="0.24" points="486.8,-179.43 494.93,-172.64 484.34,-172.87 486.8,-179.43"/>
</g>
<!-- &#45;5&#45;&gt;284 -->
<g id="edge10" class="edge">
<title>&#45;5&#45;&gt;284</title>
<path fill="none" stroke="red" stroke-width="0.43" d="M233.28,-231.6C242.68,-220.98 258.95,-202.59 272.08,-187.76"/>
<polygon fill="red" stroke="red" stroke-width="0.43" points="274.54,-190.26 278.55,-180.45 269.3,-185.62 274.54,-190.26"/>
</g>
<!-- &#45;6 -->
<g id="node6" class="node">
<title>&#45;6</title>
<polygon fill="lightgray" stroke="black" points="195.35,-250.54 171.85,-250.54 171.85,-232.04 195.35,-232.04 195.35,-250.54"/>
<text text-anchor="middle" x="183.6" y="-237.99" font-family="Times,serif" font-size="9.00">&#45;6</text>
</g>
<!-- &#45;6&#45;&gt;282 -->
<g id="edge40" class="edge">
<title>&#45;6&#45;&gt;282</title>
<path fill="none" stroke="green" stroke-width="0.15" d="M190.61,-231.88C194.37,-227.86 199.31,-223.32 204.6,-220.43 238.12,-202.1 345.66,-180.24 399,-170.16"/>
<polygon fill="green" stroke="green" stroke-width="0.15" points="399.5,-173.63 408.69,-168.35 398.21,-166.75 399.5,-173.63"/>
</g>
<!-- &#45;6&#45;&gt;284 -->
<g id="edge35" class="edge">
<title>&#45;6&#45;&gt;284</title>
<path fill="none" stroke="green" stroke-width="0.24" d="M191.85,-231.78C195.59,-228.12 200.16,-223.88 204.6,-220.43 224.05,-205.28 247.73,-190.44 265.62,-179.86"/>
<polygon fill="green" stroke="green" stroke-width="0.24" points="267.21,-182.98 274.08,-174.92 263.68,-176.94 267.21,-182.98"/>
</g>
<!-- &#45;7 -->
<g id="node7" class="node">
<title>&#45;7</title>
<polygon fill="lightgray" stroke="black" points="589.35,-250.54 565.85,-250.54 565.85,-232.04 589.35,-232.04 589.35,-250.54"/>
<text text-anchor="middle" x="577.6" y="-237.99" font-family="Times,serif" font-size="9.00">&#45;7</text>
</g>
<!-- &#45;7&#45;&gt;283 -->
<g id="edge20" class="edge">
<title>&#45;7&#45;&gt;283</title>
<path fill="none" stroke="green" stroke-width="0.18" d="M570.37,-231.6C561.59,-221.05 546.42,-202.82 534.12,-188.03"/>
<polygon fill="green" stroke="green" stroke-width="0.18" points="536.9,-185.9 527.81,-180.45 531.52,-190.38 536.9,-185.9"/>
</g>
<!-- &#45;8 -->
<g id="node8" class="node">
<title>&#45;8</title>
<polygon fill="lightgray" stroke="black" points="463.35,-250.54 439.85,-250.54 439.85,-232.04 463.35,-232.04 463.35,-250.54"/>
<text text-anchor="middle" x="451.6" y="-237.99" font-family="Times,serif" font-size="9.00">&#45;8</text>
</g>
<!-- &#45;8&#45;&gt;282 -->
<g id="edge9" class="edge">
<title>&#45;8&#45;&gt;282</title>
<path fill="none" stroke="red" stroke-width="0.16" stroke-dasharray="1,5" d="M449.07,-231.6C446.39,-222.35 441.98,-207.2 438.04,-193.64"/>
<polygon fill="red" stroke="red" stroke-width="0.16" points="441.51,-193.02 435.36,-184.4 434.79,-194.97 441.51,-193.02"/>
</g>
<!-- &#45;9 -->
<g id="node9" class="node">
<title>&#45;9</title>
<polygon fill="lightgray" stroke="black" points="769.35,-250.54 745.85,-250.54 745.85,-232.04 769.35,-232.04 769.35,-250.54"/>
<text text-anchor="middle" x="757.6" y="-237.99" font-family="Times,serif" font-size="9.00">&#45;9</text>
</g>
<!-- &#45;9&#45;&gt;281 -->
<g id="edge43" class="edge">
<title>&#45;9&#45;&gt;281</title>
<path fill="none" stroke="red" stroke-width="0.18" d="M749.47,-231.62C745.75,-227.92 741.16,-223.71 736.6,-220.43 712.21,-202.9 681.63,-187.25 659.77,-177.01"/>
<polygon fill="red" stroke="red" stroke-width="0.18" points="661.49,-173.95 650.94,-172.95 658.56,-180.31 661.49,-173.95"/>
</g>
<!-- &#45;9&#45;&gt;283 -->
<g id="edge6" class="edge">
<title>&#45;9&#45;&gt;283</title>
<path fill="none" stroke="green" stroke-width="0.12" stroke-dasharray="1,5" d="M750.58,-231.88C746.82,-227.87 741.88,-223.33 736.6,-220.43 728.09,-215.76 603.39,-185.71 544.71,-171.72"/>
<polygon fill="green" stroke="green" stroke-width="0.12" points="545.6,-168.34 535.07,-169.42 543.98,-175.15 545.6,-168.34"/>
</g>
<!-- &#45;10 -->
<g id="node10" class="node">
<title>&#45;10</title>
<polygon fill="lightgray" stroke="black" points="107.6,-250.54 79.6,-250.54 79.6,-232.04 107.6,-232.04 107.6,-250.54"/>
<text text-anchor="middle" x="93.6" y="-237.99" font-family="Times,serif" font-size="9.00">&#45;10</text>
</g>
<!-- &#45;10&#45;&gt;284 -->
<g id="edge7" class="edge">
<title>&#45;10&#45;&gt;284</title>
<path fill="none" stroke="green" stroke-width="0.31" d="M101.92,-231.65C106.03,-227.77 111.26,-223.42 116.6,-220.43 163.97,-193.95 225.65,-178.06 262,-170.34"/>
<polygon fill="green" stroke="green" stroke-width="0.31" points="262.44,-173.82 271.53,-168.38 261.03,-166.97 262.44,-173.82"/>
</g>
<!-- &#45;11 -->
<g id="node11" class="node">
<title>&#45;11</title>
<polygon fill="lightgray" stroke="black" points="635.6,-250.54 607.6,-250.54 607.6,-232.04 635.6,-232.04 635.6,-250.54"/>
<text text-anchor="middle" x="621.6" y="-237.99" font-family="Times,serif" font-size="9.00">&#45;11</text>
</g>
<!-- &#45;11&#45;&gt;283 -->
<g id="edge17" class="edge">
<title>&#45;11&#45;&gt;283</title>
<path fill="none" stroke="green" stroke-width="0.25" stroke-dasharray="1,5" d="M612.42,-231.9C608.29,-228.25 603.3,-224 598.6,-220.43 579.89,-206.22 557.72,-191.56 540.85,-180.83"/>
<polygon fill="green" stroke="green" stroke-width="0.25" points="542.73,-177.88 532.41,-175.5 539,-183.8 542.73,-177.88"/>
</g>
<!-- &#45;12 -->
<g id="node12" class="node">
<title>&#45;12</title>
<polygon fill="lightgray" stroke="black" points="375.6,-250.54 347.6,-250.54 347.6,-232.04 375.6,-232.04 375.6,-250.54"/>
<text text-anchor="middle" x="361.6" y="-237.99" font-family="Times,serif" font-size="9.00">&#45;12</text>
</g>
<!-- &#45;12&#45;&gt;282 -->
<g id="edge3" class="edge">
<title>&#45;12&#45;&gt;282</title>
<path fill="none" stroke="green" stroke-width="0.18" d="M369.4,-231.6C379.08,-220.82 395.96,-202.02 409.39,-187.07"/>
<polygon fill="green" stroke="green" stroke-width="0.18" points="411.78,-189.65 415.86,-179.87 406.57,-184.97 411.78,-189.65"/>
</g>
<!-- &#45;12&#45;&gt;283 -->
<g id="edge44" class="edge">
<title>&#45;12&#45;&gt;283</title>
<path fill="none" stroke="red" stroke-width="0.56" stroke-dasharray="1,5" d="M370.05,-231.88C374.2,-228.06 379.41,-223.68 384.6,-220.43 402.07,-209.5 452.51,-188.89 485.18,-175.99"/>
<polygon fill="red" stroke="red" stroke-width="0.56" points="486.27,-179.32 494.3,-172.41 483.72,-172.81 486.27,-179.32"/>
</g>
<!-- &#45;12&#45;&gt;284 -->
<g id="edge8" class="edge">
<title>&#45;12&#45;&gt;284</title>
<path fill="none" stroke="red" stroke-width="0.42" stroke-dasharray="1,5" d="M353.68,-231.6C343.95,-220.92 327.04,-202.37 313.48,-187.49"/>
<polygon fill="red" stroke="red" stroke-width="0.42" points="316.11,-185.18 306.79,-180.14 310.94,-189.89 316.11,-185.18"/>
</g>
<!-- &#45;13 -->
<g id="node13" class="node">
<title>&#45;13</title>
<polygon fill="lightgray" stroke="black" points="815.6,-250.54 787.6,-250.54 787.6,-232.04 815.6,-232.04 815.6,-250.54"/>
<text text-anchor="middle" x="801.6" y="-237.99" font-family="Times,serif" font-size="9.00">&#45;13</text>
</g>
<!-- 3 -->
<g id="node24" class="node">
<title>3</title>
<ellipse fill="lightblue" stroke="black" cx="511.6" cy="-85.85" rx="14.5" ry="14.5"/>
<text text-anchor="middle" x="511.6" y="-82.55" font-family="Times,serif" font-size="9.00">3</text>
</g>
<!-- &#45;13&#45;&gt;3 -->
<g id="edge49" class="edge">
<title>&#45;13&#45;&gt;3</title>
<path fill="none" stroke="red" stroke-width="0.19" d="M793.22,-231.73C774.49,-213.05 727.14,-168.27 679.6,-142.71 631.47,-116.84 569.18,-99.96 535.6,-92.06"/>
<polygon fill="red" stroke="red" stroke-width="0.19" points="536.56,-88.7 526.04,-89.88 535,-95.52 536.56,-88.7"/>
</g>
<!-- &#45;13&#45;&gt;281 -->
<g id="edge37" class="edge">
<title>&#45;13&#45;&gt;281</title>
<path fill="none" stroke="green" stroke-width="0.19" d="M793.2,-231.78C789.07,-227.94 783.85,-223.56 778.6,-220.43 740.68,-197.82 692,-181.48 661.3,-172.52"/>
<polygon fill="green" stroke="green" stroke-width="0.19" points="662.46,-169.21 651.89,-169.84 660.55,-175.94 662.46,-169.21"/>
</g>
<!-- &#45;13&#45;&gt;283 -->
<g id="edge16" class="edge">
<title>&#45;13&#45;&gt;283</title>
<path fill="none" stroke="green" stroke-width="0.39" stroke-dasharray="1,5" d="M793.83,-231.79C789.69,-227.76 784.28,-223.22 778.6,-220.43 706.54,-185.05 680.07,-201.36 601.6,-184.43 582.84,-180.38 561.86,-175.6 545.21,-171.75"/>
<polygon fill="green" stroke="green" stroke-width="0.39" points="546.07,-168.35 535.54,-169.5 544.49,-175.17 546.07,-168.35"/>
</g>
<!-- &#45;14 -->
<g id="node14" class="node">
<title>&#45;14</title>
<polygon fill="lightgray" stroke="black" points="153.6,-250.54 125.6,-250.54 125.6,-232.04 153.6,-232.04 153.6,-250.54"/>
<text text-anchor="middle" x="139.6" y="-237.99" font-family="Times,serif" font-size="9.00">&#45;14</text>
</g>
<!-- &#45;14&#45;&gt;284 -->
<g id="edge1" class="edge">
<title>&#45;14&#45;&gt;284</title>
<path fill="none" stroke="green" stroke-width="0.61" stroke-dasharray="1,5" d="M148.05,-231.88C152.2,-228.06 157.41,-223.68 162.6,-220.43 194.77,-200.3 235.46,-184.12 262.66,-174.46"/>
<polygon fill="green" stroke="green" stroke-width="0.61" points="263.56,-177.85 271.86,-171.27 261.26,-171.24 263.56,-177.85"/>
</g>
<!-- &#45;15 -->
<g id="node15" class="node">
<title>&#45;15</title>
<polygon fill="lightgray" stroke="black" points="283.6,-250.54 255.6,-250.54 255.6,-232.04 283.6,-232.04 283.6,-250.54"/>
<text text-anchor="middle" x="269.6" y="-237.99" font-family="Times,serif" font-size="9.00">&#45;15</text>
</g>
<!-- &#45;15&#45;&gt;283 -->
<g id="edge30" class="edge">
<title>&#45;15&#45;&gt;283</title>
<path fill="none" stroke="red" stroke-width="0.27" d="M277.38,-231.82C281.52,-227.79 286.93,-223.25 292.6,-220.43 360.55,-186.57 386.61,-205.37 459.6,-184.43 468.13,-181.98 477.25,-178.89 485.56,-175.88"/>
<polygon fill="red" stroke="red" stroke-width="0.27" points="486.66,-179.2 494.82,-172.44 484.22,-172.64 486.66,-179.2"/>
</g>
<!-- &#45;15&#45;&gt;284 -->
<g id="edge31" class="edge">
<title>&#45;15&#45;&gt;284</title>
<path fill="none" stroke="red" stroke-width="0.33" d="M272.24,-231.6C275.04,-222.38 279.62,-207.29 283.73,-193.76"/>
<polygon fill="red" stroke="red" stroke-width="0.33" points="287.04,-194.91 286.6,-184.32 280.34,-192.87 287.04,-194.91"/>
</g>
<!-- &#45;16 -->
<g id="node16" class="node">
<title>&#45;16</title>
<polygon fill="lightgray" stroke="black" points="681.6,-250.54 653.6,-250.54 653.6,-232.04 681.6,-232.04 681.6,-250.54"/>
<text text-anchor="middle" x="667.6" y="-237.99" font-family="Times,serif" font-size="9.00">&#45;16</text>
</g>
<!-- &#45;16&#45;&gt;281 -->
<g id="edge21" class="edge">
<title>&#45;16&#45;&gt;281</title>
<path fill="none" stroke="green" stroke-width="0.23" d="M663.47,-231.6C658.91,-222.01 651.33,-206.07 644.71,-192.14"/>
<polygon fill="green" stroke="green" stroke-width="0.23" points="647.93,-190.77 640.47,-183.24 641.61,-193.77 647.93,-190.77"/>
</g>
<!-- &#45;16&#45;&gt;282 -->
<g id="edge41" class="edge">
<title>&#45;16&#45;&gt;282</title>
<path fill="none" stroke="green" stroke-width="0.21" stroke-dasharray="1,5" d="M659.81,-231.84C655.66,-227.82 650.25,-223.28 644.6,-220.43 579.51,-187.63 554.57,-204.85 484.6,-184.43 476.08,-181.94 466.96,-178.84 458.65,-175.83"/>
<polygon fill="green" stroke="green" stroke-width="0.21" points="459.89,-172.56 449.3,-172.36 457.46,-179.12 459.89,-172.56"/>
</g>
<!-- &#45;17 -->
<g id="node17" class="node">
<title>&#45;17</title>
<polygon fill="lightgray" stroke="black" points="329.6,-250.54 301.6,-250.54 301.6,-232.04 329.6,-232.04 329.6,-250.54"/>
<text text-anchor="middle" x="315.6" y="-237.99" font-family="Times,serif" font-size="9.00">&#45;17</text>
</g>
<!-- &#45;17&#45;&gt;282 -->
<g id="edge39" class="edge">
<title>&#45;17&#45;&gt;282</title>
<path fill="none" stroke="green" stroke-width="0.37" stroke-dasharray="1,5" d="M324.72,-231.82C328.83,-228.15 333.83,-223.92 338.6,-220.43 359.24,-205.33 384.06,-190.29 402.56,-179.62"/>
<polygon fill="green" stroke="green" stroke-width="0.37" points="404.17,-182.73 411.12,-174.74 400.7,-176.65 404.17,-182.73"/>
</g>
<!-- &#45;17&#45;&gt;283 -->
<g id="edge5" class="edge">
<title>&#45;17&#45;&gt;283</title>
<path fill="none" stroke="green" stroke-width="0.11" d="M323.89,-231.6C328,-227.72 333.23,-223.37 338.6,-220.43 387.82,-193.5 406.3,-201.96 459.6,-184.43 468.12,-181.63 477.32,-178.39 485.71,-175.35"/>
<polygon fill="green" stroke="green" stroke-width="0.11" points="486.75,-178.7 494.94,-171.98 484.35,-172.12 486.75,-178.7"/>
</g>
<!-- &#45;17&#45;&gt;284 -->
<g id="edge28" class="edge">
<title>&#45;17&#45;&gt;284</title>
<path fill="none" stroke="green" stroke-width="0.38" d="M312.96,-231.6C310.16,-222.38 305.57,-207.29 301.46,-193.76"/>
<polygon fill="green" stroke="green" stroke-width="0.38" points="304.88,-192.95 298.62,-184.4 298.18,-194.99 304.88,-192.95"/>
</g>
<!-- &#45;18 -->
<g id="node18" class="node">
<title>&#45;18</title>
<polygon fill="lightgray" stroke="black" points="727.6,-250.54 699.6,-250.54 699.6,-232.04 727.6,-232.04 727.6,-250.54"/>
<text text-anchor="middle" x="713.6" y="-237.99" font-family="Times,serif" font-size="9.00">&#45;18</text>
</g>
<!-- &#45;18&#45;&gt;281 -->
<g id="edge2" class="edge">
<title>&#45;18&#45;&gt;281</title>
<path fill="none" stroke="green" stroke-width="0.18" stroke-dasharray="1,5" d="M704.19,-231.6C692.01,-220.35 670.38,-200.38 653.89,-185.15"/>
<polygon fill="green" stroke="green" stroke-width="0.18" points="656.65,-182.94 646.93,-178.73 651.9,-188.08 656.65,-182.94"/>
</g>
<!-- &#45;18&#45;&gt;282 -->
<g id="edge27" class="edge">
<title>&#45;18&#45;&gt;282</title>
<path fill="none" stroke="green" stroke-width="0.2" d="M705.86,-231.73C701.73,-227.67 696.32,-223.14 690.6,-220.43 606.61,-180.62 574.42,-208.3 484.6,-184.43 476.02,-182.15 466.88,-179.11 458.57,-176.1"/>
<polygon fill="green" stroke="green" stroke-width="0.2" points="459.81,-172.82 449.22,-172.59 457.36,-179.38 459.81,-172.82"/>
</g>
<!-- &#45;19 -->
<g id="node19" class="node">
<title>&#45;19</title>
<polygon fill="lightgray" stroke="black" points="421.6,-250.54 393.6,-250.54 393.6,-232.04 421.6,-232.04 421.6,-250.54"/>
<text text-anchor="middle" x="407.6" y="-237.99" font-family="Times,serif" font-size="9.00">&#45;19</text>
</g>
<!-- &#45;19&#45;&gt;281 -->
<g id="edge18" class="edge">
<title>&#45;19&#45;&gt;281</title>
<path fill="none" stroke="green" stroke-width="0.19" d="M415.87,-231.56C419.97,-227.67 425.2,-223.32 430.6,-220.43 460.27,-204.54 552.81,-182.28 601.28,-171.27"/>
<polygon fill="green" stroke="green" stroke-width="0.19" points="601.93,-174.72 610.91,-169.1 600.39,-167.89 601.93,-174.72"/>
</g>
<!-- &#45;19&#45;&gt;282 -->
<g id="edge11" class="edge">
<title>&#45;19&#45;&gt;282</title>
<path fill="none" stroke="green" stroke-width="0.19" d="M410.12,-231.6C412.81,-222.35 417.21,-207.2 421.15,-193.64"/>
<polygon fill="green" stroke="green" stroke-width="0.19" points="424.4,-195.01 423.83,-184.43 417.68,-193.06 424.4,-195.01"/>
</g>
<!-- &#45;19&#45;&gt;284 -->
<g id="edge23" class="edge">
<title>&#45;19&#45;&gt;284</title>
<path fill="none" stroke="red" stroke-width="0.14" d="M398.49,-231.81C394.37,-228.14 389.38,-223.91 384.6,-220.43 363.66,-205.2 338.43,-190.08 319.69,-179.43"/>
<polygon fill="red" stroke="red" stroke-width="0.14" points="321.42,-176.39 310.99,-174.54 317.99,-182.49 321.42,-176.39"/>
</g>
<!-- &#45;20 -->
<g id="node20" class="node">
<title>&#45;20</title>
<polygon fill="lightgray" stroke="black" points="29.6,-321.89 1.6,-321.89 1.6,-303.39 29.6,-303.39 29.6,-321.89"/>
<text text-anchor="middle" x="15.6" y="-309.34" font-family="Times,serif" font-size="9.00">&#45;20</text>
</g>
<!-- 425 -->
<g id="node27" class="node">
<title>425</title>
<ellipse fill="white" stroke="black" cx="40.6" cy="-241.29" rx="20.86" ry="20.86"/>
<text text-anchor="middle" x="40.6" y="-237.99" font-family="Times,serif" font-size="9.00">425</text>
</g>
<!-- &#45;20&#45;&gt;425 -->
<g id="edge45" class="edge">
<title>&#45;20&#45;&gt;425</title>
<path fill="none" stroke="green" stroke-width="0.4" d="M18.66,-303.14C21.55,-295.14 26.03,-282.69 30.2,-271.14"/>
<polygon fill="green" stroke="green" stroke-width="0.4" points="33.43,-272.51 33.52,-261.91 26.84,-270.13 33.43,-272.51"/>
</g>
<!-- &#45;20&#45;&gt;284 -->
<g id="edge22" class="edge">
<title>&#45;20&#45;&gt;284</title>
<path fill="none" stroke="red" stroke-width="0.15" d="M11.65,-302.92C4.28,-285.16 -9.13,-244.45 10.6,-220.43 42.09,-182.08 194.82,-169.6 261.43,-165.95"/>
<polygon fill="red" stroke="red" stroke-width="0.15" points="261.32,-169.46 271.12,-165.44 260.95,-162.47 261.32,-169.46"/>
</g>
<!-- 0 -->
<g id="node21" class="node">
<title>0</title>
<ellipse fill="lightblue" stroke="black" cx="145.6" cy="-312.64" rx="14.5" ry="14.5"/>
<text text-anchor="middle" x="145.6" y="-309.34" font-family="Times,serif" font-size="9.00">0</text>
</g>
<!-- 1 -->
<g id="node22" class="node">
<title>1</title>
<ellipse fill="lightblue" stroke="black" cx="341.6" cy="-14.5" rx="14.5" ry="14.5"/>
<text text-anchor="middle" x="341.6" y="-11.2" font-family="Times,serif" font-size="9.00">1</text>
</g>
<!-- 2 -->
<g id="node23" class="node">
<title>2</title>
<ellipse fill="lightblue" stroke="black" cx="464.6" cy="-85.85" rx="14.5" ry="14.5"/>
<text text-anchor="middle" x="464.6" y="-82.55" font-family="Times,serif" font-size="9.00">2</text>
</g>
<!-- 4 -->
<g id="node25" class="node">
<title>4</title>
<ellipse fill="lightblue" stroke="black" cx="417.6" cy="-85.85" rx="14.5" ry="14.5"/>
<text text-anchor="middle" x="417.6" y="-82.55" font-family="Times,serif" font-size="9.00">4</text>
</g>
<!-- 513 -->
<g id="node26" class="node">
<title>513</title>
<ellipse fill="white" stroke="black" cx="292.6" cy="-85.85" rx="20.86" ry="20.86"/>
<text text-anchor="middle" x="292.6" y="-82.55" font-family="Times,serif" font-size="9.00">513</text>
</g>
<!-- 513&#45;&gt;1 -->
<g id="edge48" class="edge">
<title>513&#45;&gt;1</title>
<path fill="none" stroke="green" stroke-width="0.32" d="M304.21,-68.41C311.21,-58.5 320.18,-45.81 327.58,-35.33"/>
<polygon fill="green" stroke="green" stroke-width="0.32" points="330.4,-37.42 333.31,-27.23 324.68,-33.38 330.4,-37.42"/>
</g>
<!-- 425&#45;&gt;284 -->
<g id="edge46" class="edge">
<title>425&#45;&gt;284</title>
<path fill="none" stroke="green" stroke-width="0.43" d="M57.16,-227.9C61.38,-225.14 66.03,-222.45 70.6,-220.43 135.29,-191.88 217.29,-176.03 261.3,-169.02"/>
<polygon fill="green" stroke="green" stroke-width="0.43" points="261.63,-172.51 270.98,-167.53 260.57,-165.59 261.63,-172.51"/>
</g>
<!-- 281&#45;&gt;1 -->
<g id="edge29" class="edge">
<title>281&#45;&gt;1</title>
<path fill="none" stroke="red" stroke-width="0.16" d="M619.79,-146.06C603.25,-124.16 571.09,-85.87 534.6,-64.99 479.44,-33.43 404.04,-21.68 365.87,-17.56"/>
<polygon fill="red" stroke="red" stroke-width="0.16" points="366.68,-14.12 356.38,-16.61 365.98,-21.08 366.68,-14.12"/>
</g>
<!-- 281&#45;&gt;2 -->
<g id="edge33" class="edge">
<title>281&#45;&gt;2</title>
<path fill="none" stroke="green" stroke-width="0.28" stroke-dasharray="1,5" d="M611.73,-157.02C583.25,-148.58 529.72,-130.91 488.6,-106.71 486.63,-105.55 484.65,-104.23 482.73,-102.84"/>
<polygon fill="green" stroke="green" stroke-width="0.28" points="485.14,-100.28 475.13,-96.79 480.77,-105.76 485.14,-100.28"/>
</g>
<!-- 281&#45;&gt;281 -->
<g id="edge25" class="edge">
<title>281&#45;&gt;281</title>
<path fill="none" stroke="red" stroke-width="0.15" stroke-dasharray="1,5" d="M647.97,-176.72C659.3,-180.7 670.46,-176.32 670.46,-163.57 670.46,-154.6 664.94,-149.78 657.73,-149.08"/>
<polygon fill="red" stroke="red" stroke-width="0.15" points="657.63,-145.57 648.2,-150.39 658.58,-152.5 657.63,-145.57"/>
</g>
<!-- 282&#45;&gt;3 -->
<g id="edge15" class="edge">
<title>282&#45;&gt;3</title>
<path fill="none" stroke="red" stroke-width="0.46" stroke-dasharray="1,5" d="M444.64,-148.68C458.53,-135.86 479.16,-116.8 493.85,-103.24"/>
<polygon fill="red" stroke="red" stroke-width="0.46" points="495.84,-106.17 500.81,-96.81 491.09,-101.02 495.84,-106.17"/>
</g>
<!-- 282&#45;&gt;4 -->
<g id="edge32" class="edge">
<title>282&#45;&gt;4</title>
<path fill="none" stroke="green" stroke-width="0.11" d="M426.44,-142.68C424.88,-132.79 422.97,-120.78 421.33,-110.43"/>
<polygon fill="green" stroke="green" stroke-width="0.11" points="424.79,-109.9 419.77,-100.58 417.88,-111 424.79,-109.9"/>
</g>
<!-- 284&#45;&gt;1 -->
<g id="edge13" class="edge">
<title>284&#45;&gt;1</title>
<path fill="none" stroke="green" stroke-width="0.28" stroke-dasharray="1,5" d="M303.4,-145.56C309.81,-134.79 317.63,-120.36 322.6,-106.71 330.65,-84.58 335.69,-58.11 338.54,-39.41"/>
<polygon fill="green" stroke="green" stroke-width="0.28" points="342,-39.93 339.94,-29.54 335.07,-38.95 342,-39.93"/>
</g>
<!-- 284&#45;&gt;2 -->
<g id="edge12" class="edge">
<title>284&#45;&gt;2</title>
<path fill="none" stroke="red" stroke-width="0.36" stroke-dasharray="1,5" d="M312.68,-157.29C342.05,-149.07 397.85,-131.53 440.6,-106.71 442.57,-105.56 444.55,-104.25 446.48,-102.87"/>
<polygon fill="red" stroke="red" stroke-width="0.36" points="448.34,-105.85 453.99,-96.89 443.98,-100.38 448.34,-105.85"/>
</g>
<!-- 284&#45;&gt;3 -->
<g id="edge34" class="edge">
<title>284&#45;&gt;3</title>
<path fill="none" stroke="red" stroke-width="0.17" d="M313.29,-159.52C350.08,-153.49 428.56,-137.83 487.6,-106.71 489.62,-105.65 491.63,-104.39 493.57,-103.04"/>
<polygon fill="red" stroke="red" stroke-width="0.17" points="495.64,-105.87 501.32,-96.93 491.3,-100.37 495.64,-105.87"/>
</g>
<!-- 284&#45;&gt;513 -->
<g id="edge47" class="edge">
<title>284&#45;&gt;513</title>
<path fill="none" stroke="green" stroke-width="0.38" d="M292.6,-142.28C292.6,-134.73 292.6,-125.97 292.6,-117.68"/>
<polygon fill="green" stroke="green" stroke-width="0.38" points="296.1,-117.78 292.6,-107.78 289.1,-117.78 296.1,-117.78"/>
</g>
</g>
</svg>
