<?xml version="1.0" encoding="UTF-8" standalone="no"?>
<!DOCTYPE svg PUBLIC "-//W3C//DTD SVG 1.1//EN"
 "http://www.w3.org/Graphics/SVG/1.1/DTD/svg11.dtd">
<!-- Generated by graphviz version 12.1.1 (20240910.0053)
 -->
<!-- Pages: 1 -->
<svg width="1157pt" height="619pt"
 viewBox="0.00 0.00 1157.28 619.21" xmlns="http://www.w3.org/2000/svg" xmlns:xlink="http://www.w3.org/1999/xlink">
<g id="graph0" class="graph" transform="scale(1 1) rotate(0) translate(4 615.21)">
<polygon fill="white" stroke="none" points="-4,4 -4,-615.21 1153.28,-615.21 1153.28,4 -4,4"/>
<!-- &#45;1 -->
<g id="node1" class="node">
<title>&#45;1</title>
<polygon fill="lightgray" stroke="black" points="100.53,-534.61 77.03,-534.61 77.03,-516.11 100.53,-516.11 100.53,-534.61"/>
<text text-anchor="middle" x="88.78" y="-522.06" font-family="Times,serif" font-size="9.00">&#45;1</text>
</g>
<!-- 4 -->
<g id="node25" class="node">
<title>4</title>
<ellipse fill="lightblue" stroke="black" cx="379.78" cy="-444.46" rx="14.5" ry="14.5"/>
<text text-anchor="middle" x="379.78" y="-441.16" font-family="Times,serif" font-size="9.00">4</text>
</g>
<!-- &#45;1&#45;&gt;4 -->
<g id="edge22" class="edge">
<title>&#45;1&#45;&gt;4</title>
<path fill="none" stroke="red" stroke-width="0.83" d="M100.91,-521.07C144.78,-509.18 295.69,-468.26 355.29,-452.1"/>
<polygon fill="red" stroke="red" stroke-width="0.83" points="355.98,-455.54 364.72,-449.54 354.15,-448.78 355.98,-455.54"/>
</g>
<!-- 52 -->
<g id="node34" class="node">
<title>52</title>
<ellipse fill="white" stroke="black" cx="180.78" cy="-24.04" rx="17.68" ry="17.68"/>
<text text-anchor="middle" x="180.78" y="-20.74" font-family="Times,serif" font-size="9.00">52</text>
</g>
<!-- &#45;1&#45;&gt;52 -->
<g id="edge8" class="edge">
<title>&#45;1&#45;&gt;52</title>
<path fill="none" stroke="green" stroke-width="0.53" d="M88.25,-515.88C86.78,-491.74 82.78,-420.55 82.78,-361.37 82.78,-361.37 82.78,-361.37 82.78,-191.21 82.78,-130.59 131.76,-72.63 160.47,-43.87"/>
<polygon fill="green" stroke="green" stroke-width="0.53" points="162.68,-46.6 167.4,-37.11 157.8,-41.59 162.68,-46.6"/>
</g>
<!-- &#45;2 -->
<g id="node2" class="node">
<title>&#45;2</title>
<polygon fill="lightgray" stroke="black" points="1038.53,-534.61 1015.03,-534.61 1015.03,-516.11 1038.53,-516.11 1038.53,-534.61"/>
<text text-anchor="middle" x="1026.78" y="-522.06" font-family="Times,serif" font-size="9.00">&#45;2</text>
</g>
<!-- 7194 -->
<g id="node27" class="node">
<title>7194</title>
<ellipse fill="white" stroke="black" cx="960.78" cy="-444.46" rx="24.04" ry="24.04"/>
<text text-anchor="middle" x="960.78" y="-441.16" font-family="Times,serif" font-size="9.00">7194</text>
</g>
<!-- &#45;2&#45;&gt;7194 -->
<g id="edge40" class="edge">
<title>&#45;2&#45;&gt;7194</title>
<path fill="none" stroke="green" stroke-width="0.3" stroke-dasharray="1,5" d="M1019.47,-515.61C1010.55,-504.95 995.08,-486.47 982.27,-471.14"/>
<polygon fill="green" stroke="green" stroke-width="0.3" points="985.25,-469.25 976.15,-463.83 979.88,-473.74 985.25,-469.25"/>
</g>
<!-- 51 -->
<g id="node33" class="node">
<title>51</title>
<ellipse fill="white" stroke="black" cx="865.78" cy="-360.37" rx="17.68" ry="17.68"/>
<text text-anchor="middle" x="865.78" y="-357.07" font-family="Times,serif" font-size="9.00">51</text>
</g>
<!-- &#45;2&#45;&gt;51 -->
<g id="edge5" class="edge">
<title>&#45;2&#45;&gt;51</title>
<path fill="none" stroke="green" stroke-width="0.37" stroke-dasharray="1,5" d="M1034.3,-515.7C1049.83,-496.71 1082.21,-450.69 1059.78,-420.42 1039.86,-393.53 942.53,-374.01 893.75,-365.75"/>
<polygon fill="green" stroke="green" stroke-width="0.37" points="894.56,-362.34 884.12,-364.16 893.42,-369.24 894.56,-362.34"/>
</g>
<!-- 8279 -->
<g id="node39" class="node">
<title>8279</title>
<ellipse fill="white" stroke="black" cx="1026.78" cy="-444.46" rx="24.04" ry="24.04"/>
<text text-anchor="middle" x="1026.78" y="-441.16" font-family="Times,serif" font-size="9.00">8279</text>
</g>
<!-- &#45;2&#45;&gt;8279 -->
<g id="edge53" class="edge">
<title>&#45;2&#45;&gt;8279</title>
<path fill="none" stroke="green" stroke-width="0.17" stroke-dasharray="1,5" d="M1026.78,-515.61C1026.78,-506.66 1026.78,-492.19 1026.78,-478.71"/>
<polygon fill="green" stroke="green" stroke-width="0.17" points="1030.28,-478.96 1026.78,-468.96 1023.28,-478.96 1030.28,-478.96"/>
</g>
<!-- &#45;3 -->
<g id="node3" class="node">
<title>&#45;3</title>
<polygon fill="lightgray" stroke="black" points="520.53,-453.71 497.03,-453.71 497.03,-435.21 520.53,-435.21 520.53,-453.71"/>
<text text-anchor="middle" x="508.78" y="-441.16" font-family="Times,serif" font-size="9.00">&#45;3</text>
</g>
<!-- 6688 -->
<g id="node28" class="node">
<title>6688</title>
<ellipse fill="white" stroke="black" cx="597.78" cy="-360.37" rx="24.04" ry="24.04"/>
<text text-anchor="middle" x="597.78" y="-357.07" font-family="Times,serif" font-size="9.00">6688</text>
</g>
<!-- &#45;3&#45;&gt;6688 -->
<g id="edge32" class="edge">
<title>&#45;3&#45;&gt;6688</title>
<path fill="none" stroke="red" stroke-width="0.21" d="M515.94,-435.14C519.9,-430.66 524.98,-425.1 529.78,-420.42 543.12,-407.39 558.79,-393.69 571.72,-382.77"/>
<polygon fill="red" stroke="red" stroke-width="0.21" points="573.71,-385.67 579.13,-376.56 569.22,-380.3 573.71,-385.67"/>
</g>
<!-- &#45;3&#45;&gt;52 -->
<g id="edge2" class="edge">
<title>&#45;3&#45;&gt;52</title>
<path fill="none" stroke="red" stroke-width="0.91" d="M507.09,-434.85C502.44,-410.33 489.78,-337.98 489.78,-277.29 489.78,-277.29 489.78,-277.29 489.78,-191.21 489.78,-142.42 500.56,-118.3 465.78,-84.08 429.59,-48.47 274.55,-32.38 209.59,-27.11"/>
<polygon fill="red" stroke="red" stroke-width="0.91" points="210.17,-23.65 199.92,-26.36 209.62,-30.63 210.17,-23.65"/>
</g>
<!-- &#45;4 -->
<g id="node4" class="node">
<title>&#45;4</title>
<polygon fill="lightgray" stroke="black" points="1130.53,-453.71 1107.03,-453.71 1107.03,-435.21 1130.53,-435.21 1130.53,-453.71"/>
<text text-anchor="middle" x="1118.78" y="-441.16" font-family="Times,serif" font-size="9.00">&#45;4</text>
</g>
<!-- &#45;4&#45;&gt;51 -->
<g id="edge12" class="edge">
<title>&#45;4&#45;&gt;51</title>
<path fill="none" stroke="red" stroke-width="0.19" d="M1111.33,-435.11C1106.5,-430.17 1099.81,-424.16 1092.78,-420.42 1057.9,-401.82 945.39,-377.48 893.04,-366.8"/>
<polygon fill="red" stroke="red" stroke-width="0.19" points="893.9,-363.4 883.4,-364.85 892.51,-370.26 893.9,-363.4"/>
</g>
<!-- 6622 -->
<g id="node41" class="node">
<title>6622</title>
<ellipse fill="white" stroke="black" cx="1017.78" cy="-276.29" rx="24.04" ry="24.04"/>
<text text-anchor="middle" x="1017.78" y="-272.99" font-family="Times,serif" font-size="9.00">6622</text>
</g>
<!-- &#45;4&#45;&gt;6622 -->
<g id="edge29" class="edge">
<title>&#45;4&#45;&gt;6622</title>
<path fill="none" stroke="red" stroke-width="0.13" stroke-dasharray="1,5" d="M1113.63,-434.99C1099.32,-411.44 1058.56,-344.37 1035.05,-305.71"/>
<polygon fill="red" stroke="red" stroke-width="0.13" points="1038.32,-304.35 1030.14,-297.62 1032.34,-307.98 1038.32,-304.35"/>
</g>
<!-- 7791 -->
<g id="node45" class="node">
<title>7791</title>
<ellipse fill="white" stroke="black" cx="1019.78" cy="-360.37" rx="24.04" ry="24.04"/>
<text text-anchor="middle" x="1019.78" y="-357.07" font-family="Times,serif" font-size="9.00">7791</text>
</g>
<!-- &#45;4&#45;&gt;7791 -->
<g id="edge43" class="edge">
<title>&#45;4&#45;&gt;7791</title>
<path fill="none" stroke="green" stroke-width="0.75" d="M1109.24,-434.82C1104.36,-430.45 1098.3,-425.09 1092.78,-420.42 1077.78,-407.71 1060.71,-393.88 1046.86,-382.8"/>
<polygon fill="green" stroke="green" stroke-width="0.75" points="1049.15,-380.15 1039.15,-376.65 1044.79,-385.62 1049.15,-380.15"/>
</g>
<!-- &#45;5 -->
<g id="node5" class="node">
<title>&#45;5</title>
<polygon fill="lightgray" stroke="black" points="778.53,-534.61 755.03,-534.61 755.03,-516.11 778.53,-516.11 778.53,-534.61"/>
<text text-anchor="middle" x="766.78" y="-522.06" font-family="Times,serif" font-size="9.00">&#45;5</text>
</g>
<!-- &#45;5&#45;&gt;4 -->
<g id="edge54" class="edge">
<title>&#45;5&#45;&gt;4</title>
<path fill="none" stroke="red" stroke-width="0.55" d="M754.72,-521.54C737.63,-517.57 705.38,-510.19 677.78,-504.5 593.61,-487.14 572.04,-485.47 487.78,-468.5 459.13,-462.73 426.31,-455.66 404.44,-450.89"/>
<polygon fill="red" stroke="red" stroke-width="0.55" points="405.41,-447.52 394.89,-448.8 403.91,-454.35 405.41,-447.52"/>
</g>
<!-- &#45;5&#45;&gt;51 -->
<g id="edge1" class="edge">
<title>&#45;5&#45;&gt;51</title>
<path fill="none" stroke="red" stroke-width="0.32" d="M766.31,-515.8C765.69,-497.02 766.45,-451.39 785.78,-420.42 798.93,-399.34 822.58,-383.3 840.77,-373.3"/>
<polygon fill="red" stroke="red" stroke-width="0.32" points="842.03,-376.59 849.26,-368.85 838.78,-370.39 842.03,-376.59"/>
</g>
<!-- 8665 -->
<g id="node40" class="node">
<title>8665</title>
<ellipse fill="white" stroke="black" cx="818.78" cy="-444.46" rx="24.04" ry="24.04"/>
<text text-anchor="middle" x="818.78" y="-441.16" font-family="Times,serif" font-size="9.00">8665</text>
</g>
<!-- &#45;5&#45;&gt;8665 -->
<g id="edge68" class="edge">
<title>&#45;5&#45;&gt;8665</title>
<path fill="none" stroke="green" stroke-width="0.48" d="M772.54,-515.61C779.16,-505.58 790.34,-488.61 800.05,-473.87"/>
<polygon fill="green" stroke="green" stroke-width="0.48" points="802.88,-475.95 805.46,-465.67 797.03,-472.1 802.88,-475.95"/>
</g>
<!-- &#45;6 -->
<g id="node6" class="node">
<title>&#45;6</title>
<polygon fill="lightgray" stroke="black" points="880.53,-534.61 857.03,-534.61 857.03,-516.11 880.53,-516.11 880.53,-534.61"/>
<text text-anchor="middle" x="868.78" y="-522.06" font-family="Times,serif" font-size="9.00">&#45;6</text>
</g>
<!-- &#45;6&#45;&gt;7194 -->
<g id="edge34" class="edge">
<title>&#45;6&#45;&gt;7194</title>
<path fill="none" stroke="green" stroke-width="0.43" stroke-dasharray="1,5" d="M878.98,-515.61C892.37,-504.13 916.34,-483.57 934.89,-467.66"/>
<polygon fill="green" stroke="green" stroke-width="0.43" points="937.17,-470.32 942.48,-461.16 932.61,-465.01 937.17,-470.32"/>
</g>
<!-- &#45;6&#45;&gt;51 -->
<g id="edge4" class="edge">
<title>&#45;6&#45;&gt;51</title>
<path fill="none" stroke="red" stroke-width="0.43" d="M868.63,-516.05C868.2,-492.85 866.98,-426.57 866.28,-388.73"/>
<polygon fill="red" stroke="red" stroke-width="0.43" points="869.79,-389.02 866.11,-379.08 862.79,-389.14 869.79,-389.02"/>
</g>
<!-- &#45;6&#45;&gt;8665 -->
<g id="edge71" class="edge">
<title>&#45;6&#45;&gt;8665</title>
<path fill="none" stroke="green" stroke-width="0.46" d="M863.24,-515.61C856.92,-505.65 846.27,-488.83 836.97,-474.17"/>
<polygon fill="green" stroke="green" stroke-width="0.46" points="840.1,-472.56 831.79,-465.98 834.18,-476.3 840.1,-472.56"/>
</g>
<!-- &#45;7 -->
<g id="node7" class="node">
<title>&#45;7</title>
<polygon fill="lightgray" stroke="black" points="186.53,-605.96 163.03,-605.96 163.03,-587.46 186.53,-587.46 186.53,-605.96"/>
<text text-anchor="middle" x="174.78" y="-593.41" font-family="Times,serif" font-size="9.00">&#45;7</text>
</g>
<!-- 801 -->
<g id="node29" class="node">
<title>801</title>
<ellipse fill="white" stroke="black" cx="647.78" cy="-525.36" rx="20.86" ry="20.86"/>
<text text-anchor="middle" x="647.78" y="-522.06" font-family="Times,serif" font-size="9.00">801</text>
</g>
<!-- &#45;7&#45;&gt;801 -->
<g id="edge14" class="edge">
<title>&#45;7&#45;&gt;801</title>
<path fill="none" stroke="red" stroke-width="0.18" d="M186.89,-594.2C232.46,-588.48 397.95,-567.41 533.78,-546.22 562.18,-541.79 594.45,-536.11 617.39,-531.96"/>
<polygon fill="red" stroke="red" stroke-width="0.18" points="617.74,-535.45 626.95,-530.22 616.49,-528.56 617.74,-535.45"/>
</g>
<!-- &#45;7&#45;&gt;52 -->
<g id="edge21" class="edge">
<title>&#45;7&#45;&gt;52</title>
<path fill="none" stroke="red" stroke-width="0.52" d="M162.64,-595.7C133.5,-594.95 59.24,-588.75 21.78,-546.22 -8.34,-512.02 2.78,-491.03 2.78,-445.46 2.78,-445.46 2.78,-445.46 2.78,-191.21 2.78,-138.67 15.54,-121.15 52.78,-84.08 80.95,-56.04 124.91,-39.81 153.28,-31.7"/>
<polygon fill="red" stroke="red" stroke-width="0.52" points="154.18,-35.08 162.92,-29.09 152.35,-28.32 154.18,-35.08"/>
</g>
<!-- &#45;8 -->
<g id="node8" class="node">
<title>&#45;8</title>
<polygon fill="lightgray" stroke="black" points="854.53,-605.96 831.03,-605.96 831.03,-587.46 854.53,-587.46 854.53,-605.96"/>
<text text-anchor="middle" x="842.78" y="-593.41" font-family="Times,serif" font-size="9.00">&#45;8</text>
</g>
<!-- &#45;9 -->
<g id="node9" class="node">
<title>&#45;9</title>
<polygon fill="lightgray" stroke="black" points="134.53,-285.54 111.03,-285.54 111.03,-267.04 134.53,-267.04 134.53,-285.54"/>
<text text-anchor="middle" x="122.78" y="-272.99" font-family="Times,serif" font-size="9.00">&#45;9</text>
</g>
<!-- &#45;9&#45;&gt;52 -->
<g id="edge11" class="edge">
<title>&#45;9&#45;&gt;52</title>
<path fill="none" stroke="red" stroke-width="0.33" d="M124.78,-266.68C132.64,-232.76 161.66,-107.54 174.55,-51.94"/>
<polygon fill="red" stroke="red" stroke-width="0.33" points="177.94,-52.82 176.78,-42.29 171.12,-51.24 177.94,-52.82"/>
</g>
<!-- 6368 -->
<g id="node43" class="node">
<title>6368</title>
<ellipse fill="white" stroke="black" cx="200.78" cy="-192.21" rx="24.04" ry="24.04"/>
<text text-anchor="middle" x="200.78" y="-188.91" font-family="Times,serif" font-size="9.00">6368</text>
</g>
<!-- &#45;9&#45;&gt;6368 -->
<g id="edge45" class="edge">
<title>&#45;9&#45;&gt;6368</title>
<path fill="none" stroke="green" stroke-width="0.14" d="M130.83,-266.82C141.77,-255.31 161.77,-234.26 177.59,-217.61"/>
<polygon fill="green" stroke="green" stroke-width="0.14" points="180.02,-220.14 184.37,-210.48 174.95,-215.31 180.02,-220.14"/>
</g>
<!-- &#45;10 -->
<g id="node10" class="node">
<title>&#45;10</title>
<polygon fill="lightgray" stroke="black" points="900.78,-605.96 872.78,-605.96 872.78,-587.46 900.78,-587.46 900.78,-605.96"/>
<text text-anchor="middle" x="886.78" y="-593.41" font-family="Times,serif" font-size="9.00">&#45;10</text>
</g>
<!-- &#45;11 -->
<g id="node11" class="node">
<title>&#45;11</title>
<polygon fill="lightgray" stroke="black" points="946.78,-605.96 918.78,-605.96 918.78,-587.46 946.78,-587.46 946.78,-605.96"/>
<text text-anchor="middle" x="932.78" y="-593.41" font-family="Times,serif" font-size="9.00">&#45;11</text>
</g>
<!-- &#45;12 -->
<g id="node12" class="node">
<title>&#45;12</title>
<polygon fill="lightgray" stroke="black" points="812.78,-605.96 784.78,-605.96 784.78,-587.46 812.78,-587.46 812.78,-605.96"/>
<text text-anchor="middle" x="798.78" y="-593.41" font-family="Times,serif" font-size="9.00">&#45;12</text>
</g>
<!-- &#45;12&#45;&gt;801 -->
<g id="edge24" class="edge">
<title>&#45;12&#45;&gt;801</title>
<path fill="none" stroke="red" stroke-width="0.37" stroke-dasharray="1,5" d="M784.3,-589.06C759.42,-577.63 708.11,-554.07 675.97,-539.31"/>
<polygon fill="red" stroke="red" stroke-width="0.37" points="677.72,-536.26 667.17,-535.26 674.79,-542.62 677.72,-536.26"/>
</g>
<!-- &#45;12&#45;&gt;51 -->
<g id="edge13" class="edge">
<title>&#45;12&#45;&gt;51</title>
<path fill="none" stroke="red" stroke-width="0.15" stroke-dasharray="1,5" d="M812.83,-587.34C815.78,-585.62 818.87,-583.84 821.78,-582.22 851.65,-565.56 872.14,-575.51 889.78,-546.22 920.27,-495.58 895.03,-423.09 878.06,-385.72"/>
<polygon fill="red" stroke="red" stroke-width="0.15" points="881.29,-384.35 873.86,-376.79 874.96,-387.33 881.29,-384.35"/>
</g>
<!-- &#45;13 -->
<g id="node13" class="node">
<title>&#45;13</title>
<polygon fill="lightgray" stroke="black" points="524.78,-534.61 496.78,-534.61 496.78,-516.11 524.78,-516.11 524.78,-534.61"/>
<text text-anchor="middle" x="510.78" y="-522.06" font-family="Times,serif" font-size="9.00">&#45;13</text>
</g>
<!-- &#45;13&#45;&gt;6688 -->
<g id="edge30" class="edge">
<title>&#45;13&#45;&gt;6688</title>
<path fill="none" stroke="red" stroke-width="0.18" d="M525.08,-519.75C545.04,-512.46 580.52,-496.18 595.78,-468.5 608.19,-446 607.79,-416.6 604.79,-394.29"/>
<polygon fill="red" stroke="red" stroke-width="0.18" points="608.27,-393.87 603.25,-384.54 601.36,-394.97 608.27,-393.87"/>
</g>
<!-- &#45;13&#45;&gt;52 -->
<g id="edge3" class="edge">
<title>&#45;13&#45;&gt;52</title>
<path fill="none" stroke="red" stroke-width="0.28" stroke-dasharray="1,5" d="M504.9,-515.69C497.99,-505.06 486.7,-486.25 480.78,-468.5 453.61,-386.96 451.78,-363.24 451.78,-277.29 451.78,-277.29 451.78,-277.29 451.78,-191.21 451.78,-78.05 277.95,-39.56 208.73,-28.72"/>
<polygon fill="red" stroke="red" stroke-width="0.28" points="209.39,-25.28 198.98,-27.28 208.36,-32.21 209.39,-25.28"/>
</g>
<!-- 8378 -->
<g id="node35" class="node">
<title>8378</title>
<ellipse fill="white" stroke="black" cx="562.78" cy="-444.46" rx="24.04" ry="24.04"/>
<text text-anchor="middle" x="562.78" y="-441.16" font-family="Times,serif" font-size="9.00">8378</text>
</g>
<!-- &#45;13&#45;&gt;8378 -->
<g id="edge55" class="edge">
<title>&#45;13&#45;&gt;8378</title>
<path fill="none" stroke="green" stroke-width="0.61" d="M516.54,-515.61C523.16,-505.58 534.34,-488.61 544.05,-473.87"/>
<polygon fill="green" stroke="green" stroke-width="0.61" points="546.77,-476.11 549.35,-465.83 540.93,-472.26 546.77,-476.11"/>
</g>
<!-- 6208 -->
<g id="node38" class="node">
<title>6208</title>
<ellipse fill="white" stroke="black" cx="541.78" cy="-276.29" rx="24.04" ry="24.04"/>
<text text-anchor="middle" x="541.78" y="-272.99" font-family="Times,serif" font-size="9.00">6208</text>
</g>
<!-- &#45;13&#45;&gt;6208 -->
<g id="edge57" class="edge">
<title>&#45;13&#45;&gt;6208</title>
<path fill="none" stroke="red" stroke-width="0.12" stroke-dasharray="1,5" d="M506.11,-515.98C500.46,-505.33 491.28,-486.2 487.78,-468.5 483.63,-447.54 483.95,-441.44 487.78,-420.42 495.23,-379.57 513.72,-335.24 526.99,-306.91"/>
<polygon fill="red" stroke="red" stroke-width="0.12" points="530.04,-308.64 531.18,-298.11 523.72,-305.63 530.04,-308.64"/>
</g>
<!-- &#45;14 -->
<g id="node14" class="node">
<title>&#45;14</title>
<polygon fill="lightgray" stroke="black" points="992.78,-605.96 964.78,-605.96 964.78,-587.46 992.78,-587.46 992.78,-605.96"/>
<text text-anchor="middle" x="978.78" y="-593.41" font-family="Times,serif" font-size="9.00">&#45;14</text>
</g>
<!-- &#45;15 -->
<g id="node15" class="node">
<title>&#45;15</title>
<polygon fill="lightgray" stroke="black" points="58.78,-534.61 30.78,-534.61 30.78,-516.11 58.78,-516.11 58.78,-534.61"/>
<text text-anchor="middle" x="44.78" y="-522.06" font-family="Times,serif" font-size="9.00">&#45;15</text>
</g>
<!-- &#45;15&#45;&gt;4 -->
<g id="edge18" class="edge">
<title>&#45;15&#45;&gt;4</title>
<path fill="none" stroke="red" stroke-width="0.29" d="M52.5,-515.76C56.63,-511.7 62.04,-507.17 67.78,-504.5 158.78,-462.09 192.52,-489.1 290.78,-468.5 313.01,-463.84 338.02,-457.24 355.85,-452.3"/>
<polygon fill="red" stroke="red" stroke-width="0.29" points="356.59,-455.73 365.27,-449.66 354.7,-448.99 356.59,-455.73"/>
</g>
<!-- &#45;15&#45;&gt;52 -->
<g id="edge10" class="edge">
<title>&#45;15&#45;&gt;52</title>
<path fill="none" stroke="green" stroke-width="0.37" stroke-dasharray="1,5" d="M44.78,-515.88C44.78,-491.72 44.78,-420.51 44.78,-361.37 44.78,-361.37 44.78,-361.37 44.78,-191.21 44.78,-139.04 59.15,-123.97 92.78,-84.08 110.05,-63.6 136.15,-47.32 155.44,-37.08"/>
<polygon fill="green" stroke="green" stroke-width="0.37" points="157.01,-40.21 164.33,-32.55 153.83,-33.98 157.01,-40.21"/>
</g>
<!-- &#45;16 -->
<g id="node16" class="node">
<title>&#45;16</title>
<polygon fill="lightgray" stroke="black" points="297.78,-534.61 269.78,-534.61 269.78,-516.11 297.78,-516.11 297.78,-534.61"/>
<text text-anchor="middle" x="283.78" y="-522.06" font-family="Times,serif" font-size="9.00">&#45;16</text>
</g>
<!-- 3 -->
<g id="node24" class="node">
<title>3</title>
<ellipse fill="lightblue" stroke="black" cx="162.78" cy="-360.37" rx="14.5" ry="14.5"/>
<text text-anchor="middle" x="162.78" y="-357.07" font-family="Times,serif" font-size="9.00">3</text>
</g>
<!-- &#45;16&#45;&gt;3 -->
<g id="edge33" class="edge">
<title>&#45;16&#45;&gt;3</title>
<path fill="none" stroke="green" stroke-width="0.16" d="M272.87,-515.69C260.29,-505.34 239.47,-487.09 224.78,-468.5 203.2,-441.18 184.1,-405.53 172.99,-383.04"/>
<polygon fill="green" stroke="green" stroke-width="0.16" points="176.21,-381.68 168.7,-374.21 169.92,-384.73 176.21,-381.68"/>
</g>
<!-- 8491 -->
<g id="node31" class="node">
<title>8491</title>
<ellipse fill="white" stroke="black" cx="257.78" cy="-444.46" rx="24.04" ry="24.04"/>
<text text-anchor="middle" x="257.78" y="-441.16" font-family="Times,serif" font-size="9.00">8491</text>
</g>
<!-- &#45;16&#45;&gt;8491 -->
<g id="edge60" class="edge">
<title>&#45;16&#45;&gt;8491</title>
<path fill="none" stroke="green" stroke-width="0.96" d="M280.9,-515.61C277.92,-506.56 273.07,-491.86 268.58,-478.24"/>
<polygon fill="green" stroke="green" stroke-width="0.96" points="272.02,-477.47 265.56,-469.07 265.37,-479.66 272.02,-477.47"/>
</g>
<!-- &#45;16&#45;&gt;51 -->
<g id="edge9" class="edge">
<title>&#45;16&#45;&gt;51</title>
<path fill="none" stroke="red" stroke-width="0.5" d="M298,-522.84C342.58,-517.87 483.32,-500.53 595.78,-468.5 688.44,-442.11 793.18,-395.45 840.35,-373.47"/>
<polygon fill="red" stroke="red" stroke-width="0.5" points="841.78,-376.66 849.35,-369.25 838.81,-370.33 841.78,-376.66"/>
</g>
<!-- 2687 -->
<g id="node47" class="node">
<title>2687</title>
<ellipse fill="white" stroke="black" cx="290.78" cy="-276.29" rx="24.04" ry="24.04"/>
<text text-anchor="middle" x="290.78" y="-272.99" font-family="Times,serif" font-size="9.00">2687</text>
</g>
<!-- &#45;16&#45;&gt;2687 -->
<g id="edge17" class="edge">
<title>&#45;16&#45;&gt;2687</title>
<path fill="none" stroke="green" stroke-width="0.18" stroke-dasharray="1,5" d="M285.21,-515.68C286.93,-504.73 289.73,-485.28 290.78,-468.5 294.23,-413.23 293.18,-348.8 292.04,-310.62"/>
<polygon fill="green" stroke="green" stroke-width="0.18" points="295.54,-310.72 291.72,-300.84 288.55,-310.95 295.54,-310.72"/>
</g>
<!-- &#45;17 -->
<g id="node17" class="node">
<title>&#45;17</title>
<polygon fill="lightgray" stroke="black" points="1134.78,-369.62 1106.78,-369.62 1106.78,-351.12 1134.78,-351.12 1134.78,-369.62"/>
<text text-anchor="middle" x="1120.78" y="-357.07" font-family="Times,serif" font-size="9.00">&#45;17</text>
</g>
<!-- 1 -->
<g id="node22" class="node">
<title>1</title>
<ellipse fill="lightblue" stroke="black" cx="928.78" cy="-192.21" rx="14.5" ry="14.5"/>
<text text-anchor="middle" x="928.78" y="-188.91" font-family="Times,serif" font-size="9.00">1</text>
</g>
<!-- &#45;17&#45;&gt;1 -->
<g id="edge16" class="edge">
<title>&#45;17&#45;&gt;1</title>
<path fill="none" stroke="green" stroke-width="0.51" d="M1115.97,-350.77C1103.16,-328.1 1068.05,-267.44 1050.78,-252.25 1021.56,-226.55 979.18,-209.42 952.84,-200.51"/>
<polygon fill="green" stroke="green" stroke-width="0.51" points="953.95,-197.18 943.35,-197.43 951.79,-203.84 953.95,-197.18"/>
</g>
<!-- 8252 -->
<g id="node36" class="node">
<title>8252</title>
<ellipse fill="white" stroke="black" cx="1121.78" cy="-276.29" rx="24.04" ry="24.04"/>
<text text-anchor="middle" x="1121.78" y="-272.99" font-family="Times,serif" font-size="9.00">8252</text>
</g>
<!-- &#45;17&#45;&gt;8252 -->
<g id="edge51" class="edge">
<title>&#45;17&#45;&gt;8252</title>
<path fill="none" stroke="red" stroke-width="0.41" d="M1120.88,-350.9C1121,-341.47 1121.19,-325.65 1121.37,-311.08"/>
<polygon fill="red" stroke="red" stroke-width="0.41" points="1124.86,-311.48 1121.49,-301.44 1117.86,-311.39 1124.86,-311.48"/>
</g>
<!-- &#45;18 -->
<g id="node18" class="node">
<title>&#45;18</title>
<polygon fill="lightgray" stroke="black" points="1038.78,-605.96 1010.78,-605.96 1010.78,-587.46 1038.78,-587.46 1038.78,-605.96"/>
<text text-anchor="middle" x="1024.78" y="-593.41" font-family="Times,serif" font-size="9.00">&#45;18</text>
</g>
<!-- &#45;19 -->
<g id="node19" class="node">
<title>&#45;19</title>
<polygon fill="lightgray" stroke="black" points="393.78,-605.96 365.78,-605.96 365.78,-587.46 393.78,-587.46 393.78,-605.96"/>
<text text-anchor="middle" x="379.78" y="-593.41" font-family="Times,serif" font-size="9.00">&#45;19</text>
</g>
<!-- &#45;19&#45;&gt;4 -->
<g id="edge15" class="edge">
<title>&#45;19&#45;&gt;4</title>
<path fill="none" stroke="green" stroke-width="0.23" stroke-dasharray="1,5" d="M379.78,-587.21C379.78,-564.8 379.78,-503.54 379.78,-469.34"/>
<polygon fill="green" stroke="green" stroke-width="0.23" points="383.28,-469.62 379.78,-459.62 376.28,-469.62 383.28,-469.62"/>
</g>
<!-- &#45;19&#45;&gt;801 -->
<g id="edge31" class="edge">
<title>&#45;19&#45;&gt;801</title>
<path fill="none" stroke="green" stroke-width="0.45" stroke-dasharray="1,5" d="M394.19,-591.99C436.27,-581.1 559.65,-549.17 617.36,-534.23"/>
<polygon fill="green" stroke="green" stroke-width="0.45" points="618.2,-537.63 627,-531.74 616.45,-530.85 618.2,-537.63"/>
</g>
<!-- &#45;19&#45;&gt;6368 -->
<g id="edge28" class="edge">
<title>&#45;19&#45;&gt;6368</title>
<path fill="none" stroke="red" stroke-width="0.27" d="M365.61,-591.98C342.27,-585.36 294.92,-570.02 260.78,-546.22 187.12,-494.86 163.2,-471.11 139.78,-384.42 123.91,-325.65 158.1,-258.05 181.43,-221.03"/>
<polygon fill="red" stroke="red" stroke-width="0.27" points="184.36,-222.95 186.86,-212.65 178.49,-219.14 184.36,-222.95"/>
</g>
<!-- &#45;20 -->
<g id="node20" class="node">
<title>&#45;20</title>
<polygon fill="lightgray" stroke="black" points="1084.78,-605.96 1056.78,-605.96 1056.78,-587.46 1084.78,-587.46 1084.78,-605.96"/>
<text text-anchor="middle" x="1070.78" y="-593.41" font-family="Times,serif" font-size="9.00">&#45;20</text>
</g>
<!-- 0 -->
<g id="node21" class="node">
<title>0</title>
<ellipse fill="lightblue" stroke="black" cx="1116.78" cy="-596.71" rx="14.5" ry="14.5"/>
<text text-anchor="middle" x="1116.78" y="-593.41" font-family="Times,serif" font-size="9.00">0</text>
</g>
<!-- 0&#45;&gt;0 -->
<g id="edge7" class="edge">
<title>0&#45;&gt;0</title>
<path fill="none" stroke="red" stroke-width="0.24" d="M1127.1,-607.15C1137.59,-613.29 1149.28,-609.81 1149.28,-596.71 1149.28,-587.71 1143.75,-583.25 1136.89,-583.34"/>
<polygon fill="red" stroke="red" stroke-width="0.24" points="1136.02,-579.94 1127.45,-586.17 1138.03,-586.65 1136.02,-579.94"/>
</g>
<!-- 2 -->
<g id="node23" class="node">
<title>2</title>
<ellipse fill="lightblue" stroke="black" cx="728.78" cy="-108.12" rx="14.5" ry="14.5"/>
<text text-anchor="middle" x="728.78" y="-104.82" font-family="Times,serif" font-size="9.00">2</text>
</g>
<!-- 7602 -->
<g id="node32" class="node">
<title>7602</title>
<ellipse fill="white" stroke="black" cx="799.78" cy="-24.04" rx="24.04" ry="24.04"/>
<text text-anchor="middle" x="799.78" y="-20.74" font-family="Times,serif" font-size="9.00">7602</text>
</g>
<!-- 2&#45;&gt;7602 -->
<g id="edge70" class="edge">
<title>2&#45;&gt;7602</title>
<path fill="none" stroke="red" stroke-width="0.59" stroke-dasharray="1,5" d="M738.06,-96.39C747.96,-84.95 763.99,-66.42 777.24,-51.1"/>
<polygon fill="red" stroke="red" stroke-width="0.59" points="779.77,-53.53 783.67,-43.67 774.48,-48.95 779.77,-53.53"/>
</g>
<!-- 3&#45;&gt;6368 -->
<g id="edge46" class="edge">
<title>3&#45;&gt;6368</title>
<path fill="none" stroke="red" stroke-width="0.48" d="M166.05,-345.78C168.92,-333.83 173.18,-315.94 176.78,-300.33 182.47,-275.66 188.72,-247.75 193.41,-226.6"/>
<polygon fill="red" stroke="red" stroke-width="0.48" points="196.81,-227.45 195.56,-216.93 189.97,-225.93 196.81,-227.45"/>
</g>
<!-- 8437 -->
<g id="node46" class="node">
<title>8437</title>
<ellipse fill="white" stroke="black" cx="399.78" cy="-360.37" rx="24.04" ry="24.04"/>
<text text-anchor="middle" x="399.78" y="-357.07" font-family="Times,serif" font-size="9.00">8437</text>
</g>
<!-- 4&#45;&gt;8437 -->
<g id="edge58" class="edge">
<title>4&#45;&gt;8437</title>
<path fill="none" stroke="green" stroke-width="0.48" d="M383.08,-429.9C385.44,-420.23 388.72,-406.78 391.74,-394.36"/>
<polygon fill="green" stroke="green" stroke-width="0.48" points="395.06,-395.52 394.03,-384.98 388.26,-393.87 395.06,-395.52"/>
</g>
<!-- 4&#45;&gt;2687 -->
<g id="edge48" class="edge">
<title>4&#45;&gt;2687</title>
<path fill="none" stroke="red" stroke-width="0.3" d="M373.51,-431.19C363.27,-411.22 342.25,-370.48 323.78,-336.33 318.54,-326.65 312.72,-316.14 307.44,-306.71"/>
<polygon fill="red" stroke="red" stroke-width="0.3" points="310.55,-305.1 302.6,-298.1 304.44,-308.53 310.55,-305.1"/>
</g>
<!-- 7706 -->
<g id="node26" class="node">
<title>7706</title>
<ellipse fill="white" stroke="black" cx="676.78" cy="-192.21" rx="24.04" ry="24.04"/>
<text text-anchor="middle" x="676.78" y="-188.91" font-family="Times,serif" font-size="9.00">7706</text>
</g>
<!-- 7706&#45;&gt;2 -->
<g id="edge42" class="edge">
<title>7706&#45;&gt;2</title>
<path fill="none" stroke="green" stroke-width="0.92" d="M689.37,-171.34C697.24,-158.91 707.38,-142.91 715.4,-130.25"/>
<polygon fill="green" stroke="green" stroke-width="0.92" points="718.15,-132.45 720.54,-122.13 712.24,-128.7 718.15,-132.45"/>
</g>
<!-- 8172 -->
<g id="node44" class="node">
<title>8172</title>
<ellipse fill="white" stroke="black" cx="232.78" cy="-108.12" rx="24.04" ry="24.04"/>
<text text-anchor="middle" x="232.78" y="-104.82" font-family="Times,serif" font-size="9.00">8172</text>
</g>
<!-- 7706&#45;&gt;8172 -->
<g id="edge64" class="edge">
<title>7706&#45;&gt;8172</title>
<path fill="none" stroke="red" stroke-width="0.49" d="M654.6,-182.04C642.43,-177.31 626.97,-171.79 612.78,-168.17 487.77,-136.27 334.96,-118.88 267.56,-112.28"/>
<polygon fill="red" stroke="red" stroke-width="0.49" points="268.14,-108.82 257.85,-111.35 267.47,-115.79 268.14,-108.82"/>
</g>
<!-- 7194&#45;&gt;51 -->
<g id="edge35" class="edge">
<title>7194&#45;&gt;51</title>
<path fill="none" stroke="green" stroke-width="0.21" stroke-dasharray="1,5" d="M942.91,-428.02C926.93,-414.21 903.5,-393.96 886.66,-379.41"/>
<polygon fill="green" stroke="green" stroke-width="0.21" points="889.08,-376.88 879.23,-372.99 884.51,-382.18 889.08,-376.88"/>
</g>
<!-- 2784 -->
<g id="node42" class="node">
<title>2784</title>
<ellipse fill="white" stroke="black" cx="799.78" cy="-276.29" rx="24.04" ry="24.04"/>
<text text-anchor="middle" x="799.78" y="-272.99" font-family="Times,serif" font-size="9.00">2784</text>
</g>
<!-- 6688&#45;&gt;2784 -->
<g id="edge47" class="edge">
<title>6688&#45;&gt;2784</title>
<path fill="none" stroke="green" stroke-width="0.36" stroke-dasharray="1,5" d="M619.78,-350.43C655.59,-335.89 726.6,-307.03 767.92,-290.24"/>
<polygon fill="green" stroke="green" stroke-width="0.36" points="769.05,-293.56 777,-286.55 766.41,-287.07 769.05,-293.56"/>
</g>
<!-- 801&#45;&gt;2 -->
<g id="edge27" class="edge">
<title>801&#45;&gt;2</title>
<path fill="none" stroke="red" stroke-width="0.12" stroke-dasharray="1,5" d="M661.16,-509.42C684.16,-482.11 728.78,-421.41 728.78,-361.37 728.78,-361.37 728.78,-361.37 728.78,-275.29 728.78,-224.49 728.78,-164.96 728.78,-132.74"/>
<polygon fill="red" stroke="red" stroke-width="0.12" points="732.28,-133.09 728.78,-123.09 725.28,-133.09 732.28,-133.09"/>
</g>
<!-- 801&#45;&gt;4 -->
<g id="edge63" class="edge">
<title>801&#45;&gt;4</title>
<path fill="none" stroke="green" stroke-width="0.3" d="M627.64,-518.43C579.11,-504.14 455.89,-467.87 403.71,-452.5"/>
<polygon fill="green" stroke="green" stroke-width="0.3" points="404.73,-449.15 394.15,-449.69 402.75,-455.87 404.73,-449.15"/>
</g>
<!-- 801&#45;&gt;7706 -->
<g id="edge41" class="edge">
<title>801&#45;&gt;7706</title>
<path fill="none" stroke="green" stroke-width="0.44" d="M649.55,-504.14C654.38,-448.96 667.84,-295.31 673.83,-226.86"/>
<polygon fill="green" stroke="green" stroke-width="0.44" points="677.29,-227.57 674.67,-217.3 670.31,-226.96 677.29,-227.57"/>
</g>
<!-- 7337 -->
<g id="node30" class="node">
<title>7337</title>
<ellipse fill="white" stroke="black" cx="579.78" cy="-192.21" rx="24.04" ry="24.04"/>
<text text-anchor="middle" x="579.78" y="-188.91" font-family="Times,serif" font-size="9.00">7337</text>
</g>
<!-- 8637 -->
<g id="node37" class="node">
<title>8637</title>
<ellipse fill="white" stroke="black" cx="219.78" cy="-360.37" rx="24.04" ry="24.04"/>
<text text-anchor="middle" x="219.78" y="-357.07" font-family="Times,serif" font-size="9.00">8637</text>
</g>
<!-- 8491&#45;&gt;8637 -->
<g id="edge65" class="edge">
<title>8491&#45;&gt;8637</title>
<path fill="none" stroke="red" stroke-width="0.24" d="M247.99,-422.32C243.73,-413.1 238.64,-402.12 233.98,-392.04"/>
<polygon fill="red" stroke="red" stroke-width="0.24" points="237.2,-390.66 229.82,-383.06 230.84,-393.6 237.2,-390.66"/>
</g>
<!-- 8491&#45;&gt;2687 -->
<g id="edge61" class="edge">
<title>8491&#45;&gt;2687</title>
<path fill="none" stroke="red" stroke-width="0.18" stroke-dasharray="1,5" d="M262.37,-420.35C268.06,-391.71 277.79,-342.69 284.26,-310.14"/>
<polygon fill="red" stroke="red" stroke-width="0.18" points="287.66,-310.95 286.18,-300.46 280.8,-309.59 287.66,-310.95"/>
</g>
<!-- 7602&#45;&gt;2784 -->
<g id="edge38" class="edge">
<title>7602&#45;&gt;2784</title>
<path fill="none" stroke="red" stroke-width="0.21" d="M799.78,-48.44C799.78,-93.08 799.78,-190.52 799.78,-241.95"/>
<polygon fill="red" stroke="red" stroke-width="0.21" points="796.28,-241.87 799.78,-251.87 803.28,-241.87 796.28,-241.87"/>
</g>
<!-- 51&#45;&gt;1 -->
<g id="edge6" class="edge">
<title>51&#45;&gt;1</title>
<path fill="none" stroke="green" stroke-width="0.35" stroke-dasharray="1,5" d="M871.82,-343.44C883.1,-313.7 907.37,-249.67 920.29,-215.6"/>
<polygon fill="green" stroke="green" stroke-width="0.35" points="923.45,-217.14 923.72,-206.55 916.9,-214.66 923.45,-217.14"/>
</g>
<!-- 51&#45;&gt;7602 -->
<g id="edge37" class="edge">
<title>51&#45;&gt;7602</title>
<path fill="none" stroke="red" stroke-width="0.51" d="M862.88,-342.56C855.4,-299.47 834.54,-181.61 813.78,-84.08 811.98,-75.61 809.89,-66.48 807.88,-58"/>
<polygon fill="red" stroke="red" stroke-width="0.51" points="811.33,-57.36 805.59,-48.45 804.52,-58.99 811.33,-57.36"/>
</g>
<!-- 51&#45;&gt;6208 -->
<g id="edge62" class="edge">
<title>51&#45;&gt;6208</title>
<path fill="none" stroke="red" stroke-width="0.35" d="M848.82,-355.08C797.54,-342.09 643.52,-303.07 575.13,-285.74"/>
<polygon fill="red" stroke="red" stroke-width="0.35" points="576.36,-282.44 565.81,-283.38 574.65,-289.23 576.36,-282.44"/>
</g>
<!-- 51&#45;&gt;2784 -->
<g id="edge19" class="edge">
<title>51&#45;&gt;2784</title>
<path fill="none" stroke="green" stroke-width="0.19" stroke-dasharray="1,5" d="M855.18,-346.19C845.98,-334.75 832.38,-317.84 820.96,-303.63"/>
<polygon fill="green" stroke="green" stroke-width="0.19" points="823.72,-301.48 814.72,-295.88 818.26,-305.86 823.72,-301.48"/>
</g>
<!-- 8378&#45;&gt;6688 -->
<g id="edge56" class="edge">
<title>8378&#45;&gt;6688</title>
<path fill="none" stroke="green" stroke-width="0.16" d="M571.98,-421.89C575.84,-412.82 580.42,-402.1 584.63,-392.22"/>
<polygon fill="green" stroke="green" stroke-width="0.16" points="587.73,-393.88 588.43,-383.3 581.29,-391.13 587.73,-393.88"/>
</g>
<!-- 8252&#45;&gt;1 -->
<g id="edge52" class="edge">
<title>8252&#45;&gt;1</title>
<path fill="none" stroke="red" stroke-width="0.58" stroke-dasharray="1,5" d="M1102.05,-262.4C1096.28,-258.88 1089.88,-255.23 1083.78,-252.25 1038.85,-230.29 983.54,-210.96 952.62,-200.79"/>
<polygon fill="red" stroke="red" stroke-width="0.58" points="953.82,-197.5 943.23,-197.74 951.66,-204.16 953.82,-197.5"/>
</g>
<!-- 8637&#45;&gt;2687 -->
<g id="edge66" class="edge">
<title>8637&#45;&gt;2687</title>
<path fill="none" stroke="red" stroke-width="0.17" stroke-dasharray="1,5" d="M235.19,-341.56C245.05,-330.16 258,-315.19 268.91,-302.57"/>
<polygon fill="red" stroke="red" stroke-width="0.17" points="271.34,-305.12 275.23,-295.27 266.04,-300.54 271.34,-305.12"/>
</g>
<!-- 6208&#45;&gt;7337 -->
<g id="edge36" class="edge">
<title>6208&#45;&gt;7337</title>
<path fill="none" stroke="green" stroke-width="0.6" d="M551.57,-254.15C555.79,-245.03 560.81,-234.18 565.44,-224.18"/>
<polygon fill="green" stroke="green" stroke-width="0.6" points="568.49,-225.93 569.51,-215.39 562.14,-222.99 568.49,-225.93"/>
</g>
<!-- 6208&#45;&gt;52 -->
<g id="edge23" class="edge">
<title>6208&#45;&gt;52</title>
<path fill="none" stroke="green" stroke-width="0.18" d="M544.7,-252.08C548.35,-211.8 549.36,-128.97 503.78,-84.08 462.06,-42.99 279.26,-29.83 208.71,-26.23"/>
<polygon fill="green" stroke="green" stroke-width="0.18" points="209.19,-22.75 199.03,-25.76 208.85,-29.74 209.19,-22.75"/>
</g>
<!-- 6208&#45;&gt;6368 -->
<g id="edge25" class="edge">
<title>6208&#45;&gt;6368</title>
<path fill="none" stroke="red" stroke-width="0.11" d="M518.34,-269.65C458.97,-255.36 302.49,-217.69 233.85,-201.17"/>
<polygon fill="red" stroke="red" stroke-width="0.11" points="235.09,-197.87 224.55,-198.93 233.45,-204.67 235.09,-197.87"/>
</g>
<!-- 8665&#45;&gt;51 -->
<g id="edge69" class="edge">
<title>8665&#45;&gt;51</title>
<path fill="none" stroke="red" stroke-width="0.67" d="M830.4,-423.17C836.9,-411.82 845.04,-397.6 851.88,-385.66"/>
<polygon fill="red" stroke="red" stroke-width="0.67" points="854.81,-387.58 856.74,-377.16 848.74,-384.1 854.81,-387.58"/>
</g>
<!-- 2784&#45;&gt;1 -->
<g id="edge20" class="edge">
<title>2784&#45;&gt;1</title>
<path fill="none" stroke="red" stroke-width="0.49" d="M819.94,-262.47C843.96,-247.18 883.89,-221.77 908.13,-206.35"/>
<polygon fill="red" stroke="red" stroke-width="0.49" points="909.69,-209.51 916.25,-201.18 905.93,-203.6 909.69,-209.51"/>
</g>
<!-- 2784&#45;&gt;7706 -->
<g id="edge67" class="edge">
<title>2784&#45;&gt;7706</title>
<path fill="none" stroke="red" stroke-width="0.43" stroke-dasharray="1,5" d="M780.02,-262.1C759.76,-248.58 728.05,-227.42 705.11,-212.12"/>
<polygon fill="red" stroke="red" stroke-width="0.43" points="707.3,-209.36 697.03,-206.72 703.41,-215.19 707.3,-209.36"/>
</g>
<!-- 6368&#45;&gt;52 -->
<g id="edge26" class="edge">
<title>6368&#45;&gt;52</title>
<path fill="none" stroke="green" stroke-width="1.03" d="M198,-168.1C194.38,-138.06 188.07,-85.6 184.17,-53.24"/>
<polygon fill="green" stroke="green" stroke-width="1.03" points="187.67,-52.97 183,-43.46 180.72,-53.81 187.67,-52.97"/>
</g>
<!-- 6368&#45;&gt;8172 -->
<g id="edge49" class="edge">
<title>6368&#45;&gt;8172</title>
<path fill="none" stroke="red" stroke-width="0.26" d="M209.19,-169.64C212.66,-160.74 216.75,-150.24 220.55,-140.51"/>
<polygon fill="red" stroke="red" stroke-width="0.26" points="223.69,-142.07 224.06,-131.48 217.17,-139.53 223.69,-142.07"/>
</g>
<!-- 8172&#45;&gt;52 -->
<g id="edge50" class="edge">
<title>8172&#45;&gt;52</title>
<path fill="none" stroke="green" stroke-width="0.45" d="M220.19,-87.25C212.77,-75.53 203.33,-60.64 195.56,-48.36"/>
<polygon fill="green" stroke="green" stroke-width="0.45" points="198.67,-46.74 190.36,-40.16 192.75,-50.48 198.67,-46.74"/>
</g>
<!-- 7791&#45;&gt;6622 -->
<g id="edge44" class="edge">
<title>7791&#45;&gt;6622</title>
<path fill="none" stroke="red" stroke-width="0.4" stroke-dasharray="1,5" d="M1019.21,-336.07C1019.02,-328.27 1018.81,-319.42 1018.6,-310.99"/>
<polygon fill="red" stroke="red" stroke-width="0.4" points="1022.11,-311.17 1018.36,-301.26 1015.11,-311.34 1022.11,-311.17"/>
</g>
<!-- 8437&#45;&gt;2687 -->
<g id="edge59" class="edge">
<title>8437&#45;&gt;2687</title>
<path fill="none" stroke="green" stroke-width="0.41" d="M380.79,-345.08C363.37,-331.95 337.36,-312.37 317.77,-297.62"/>
<polygon fill="green" stroke="green" stroke-width="0.41" points="320.14,-295.02 310.04,-291.8 315.93,-300.61 320.14,-295.02"/>
</g>
<!-- 2687&#45;&gt;6368 -->
<g id="edge39" class="edge">
<title>2687&#45;&gt;6368</title>
<path fill="none" stroke="green" stroke-width="0.43" d="M273.43,-259.46C259.94,-247.17 241.05,-229.94 225.91,-216.13"/>
<polygon fill="green" stroke="green" stroke-width="0.43" points="228.62,-213.86 218.87,-209.71 223.9,-219.03 228.62,-213.86"/>
</g>
</g>
</svg>
