<?xml version="1.0" encoding="UTF-8" standalone="no"?>
<!DOCTYPE svg PUBLIC "-//W3C//DTD SVG 1.1//EN"
 "http://www.w3.org/Graphics/SVG/1.1/DTD/svg11.dtd">
<!-- Generated by graphviz version 12.1.1 (20240910.0053)
 -->
<!-- Pages: 1 -->
<svg width="985pt" height="251pt"
 viewBox="0.00 0.00 985.50 251.06" xmlns="http://www.w3.org/2000/svg" xmlns:xlink="http://www.w3.org/1999/xlink">
<g id="graph0" class="graph" transform="scale(1 1) rotate(0) translate(4 247.06)">
<polygon fill="white" stroke="none" points="-4,4 -4,-247.06 981.5,-247.06 981.5,4 -4,4"/>
<!-- &#45;1 -->
<g id="node1" class="node">
<title>&#45;1</title>
<polygon fill="lightgray" stroke="black" points="111.75,-166.46 88.25,-166.46 88.25,-147.96 111.75,-147.96 111.75,-166.46"/>
<text text-anchor="middle" x="100" y="-153.91" font-family="Times,serif" font-size="9.00">&#45;1</text>
</g>
<!-- 49 -->
<g id="node28" class="node">
<title>49</title>
<ellipse fill="white" stroke="black" cx="378" cy="-82.67" rx="17.68" ry="17.68"/>
<text text-anchor="middle" x="378" y="-79.37" font-family="Times,serif" font-size="9.00">49</text>
</g>
<!-- &#45;1&#45;&gt;49 -->
<g id="edge9" class="edge">
<title>&#45;1&#45;&gt;49</title>
<path fill="none" stroke="red" stroke-width="0.34" d="M106.96,-147.7C110.71,-143.66 115.66,-139.13 121,-136.35 197.09,-96.75 300.32,-86.9 349.57,-84.47"/>
<polygon fill="red" stroke="red" stroke-width="0.34" points="349.7,-87.96 359.54,-84.04 349.4,-80.97 349.7,-87.96"/>
</g>
<!-- 52 -->
<g id="node31" class="node">
<title>52</title>
<ellipse fill="white" stroke="black" cx="166" cy="-82.67" rx="17.68" ry="17.68"/>
<text text-anchor="middle" x="166" y="-79.37" font-family="Times,serif" font-size="9.00">52</text>
</g>
<!-- &#45;1&#45;&gt;52 -->
<g id="edge17" class="edge">
<title>&#45;1&#45;&gt;52</title>
<path fill="none" stroke="red" stroke-width="0.44" stroke-dasharray="1,5" d="M107.83,-147.6C117.48,-137 134.19,-118.63 147.24,-104.29"/>
<polygon fill="red" stroke="red" stroke-width="0.44" points="149.82,-106.65 153.96,-96.9 144.65,-101.94 149.82,-106.65"/>
</g>
<!-- &#45;2 -->
<g id="node2" class="node">
<title>&#45;2</title>
<polygon fill="lightgray" stroke="black" points="283.75,-166.46 260.25,-166.46 260.25,-147.96 283.75,-147.96 283.75,-166.46"/>
<text text-anchor="middle" x="272" y="-153.91" font-family="Times,serif" font-size="9.00">&#45;2</text>
</g>
<!-- &#45;2&#45;&gt;49 -->
<g id="edge3" class="edge">
<title>&#45;2&#45;&gt;49</title>
<path fill="none" stroke="green" stroke-width="0.43" d="M280.23,-147.68C283.97,-144.01 288.55,-139.78 293,-136.35 312.38,-121.42 336.18,-106.97 353.66,-96.99"/>
<polygon fill="green" stroke="green" stroke-width="0.43" points="355.08,-100.21 362.08,-92.25 351.65,-94.1 355.08,-100.21"/>
</g>
<!-- 51 -->
<g id="node30" class="node">
<title>51</title>
<ellipse fill="white" stroke="black" cx="488" cy="-82.67" rx="17.68" ry="17.68"/>
<text text-anchor="middle" x="488" y="-79.37" font-family="Times,serif" font-size="9.00">51</text>
</g>
<!-- &#45;2&#45;&gt;51 -->
<g id="edge10" class="edge">
<title>&#45;2&#45;&gt;51</title>
<path fill="none" stroke="green" stroke-width="0.21" stroke-dasharray="1,5" d="M279.04,-147.84C282.8,-143.84 287.75,-139.29 293,-136.35 321.88,-120.17 414.22,-99.2 460.71,-89.31"/>
<polygon fill="green" stroke="green" stroke-width="0.21" points="461.32,-92.76 470.38,-87.27 459.87,-85.91 461.32,-92.76"/>
</g>
<!-- &#45;2&#45;&gt;52 -->
<g id="edge41" class="edge">
<title>&#45;2&#45;&gt;52</title>
<path fill="none" stroke="green" stroke-width="0.2" stroke-dasharray="1,5" d="M263.77,-147.68C260.03,-144.01 255.45,-139.78 251,-136.35 231.44,-121.28 207.38,-106.7 189.86,-96.71"/>
<polygon fill="green" stroke="green" stroke-width="0.2" points="192.05,-93.93 181.61,-92.08 188.62,-100.03 192.05,-93.93"/>
</g>
<!-- &#45;3 -->
<g id="node3" class="node">
<title>&#45;3</title>
<polygon fill="lightgray" stroke="black" points="241.75,-166.46 218.25,-166.46 218.25,-147.96 241.75,-147.96 241.75,-166.46"/>
<text text-anchor="middle" x="230" y="-153.91" font-family="Times,serif" font-size="9.00">&#45;3</text>
</g>
<!-- &#45;3&#45;&gt;49 -->
<g id="edge28" class="edge">
<title>&#45;3&#45;&gt;49</title>
<path fill="none" stroke="red" stroke-width="0.51" d="M237.59,-147.73C241.35,-143.89 246.12,-139.51 251,-136.35 282.86,-115.68 324.16,-100.36 350.87,-91.72"/>
<polygon fill="red" stroke="red" stroke-width="0.51" points="351.79,-95.1 360.28,-88.76 349.69,-88.42 351.79,-95.1"/>
</g>
<!-- &#45;3&#45;&gt;51 -->
<g id="edge36" class="edge">
<title>&#45;3&#45;&gt;51</title>
<path fill="none" stroke="green" stroke-width="0.59" stroke-dasharray="1,5" d="M236.98,-147.74C240.73,-143.71 245.68,-139.17 251,-136.35 260.31,-131.4 399.79,-102.02 460.32,-89.41"/>
<polygon fill="green" stroke="green" stroke-width="0.59" points="460.7,-92.91 469.77,-87.44 459.27,-86.05 460.7,-92.91"/>
</g>
<!-- &#45;3&#45;&gt;52 -->
<g id="edge5" class="edge">
<title>&#45;3&#45;&gt;52</title>
<path fill="none" stroke="green" stroke-width="0.19" d="M222.41,-147.6C213.02,-136.96 196.73,-118.5 184.07,-104.15"/>
<polygon fill="green" stroke="green" stroke-width="0.19" points="186.91,-102.07 177.66,-96.89 181.66,-106.7 186.91,-102.07"/>
</g>
<!-- &#45;4 -->
<g id="node4" class="node">
<title>&#45;4</title>
<polygon fill="lightgray" stroke="black" points="199.75,-166.46 176.25,-166.46 176.25,-147.96 199.75,-147.96 199.75,-166.46"/>
<text text-anchor="middle" x="188" y="-153.91" font-family="Times,serif" font-size="9.00">&#45;4</text>
</g>
<!-- &#45;4&#45;&gt;51 -->
<g id="edge37" class="edge">
<title>&#45;4&#45;&gt;51</title>
<path fill="none" stroke="green" stroke-width="0.12" d="M194.94,-147.65C198.68,-143.61 203.63,-139.07 209,-136.35 287.98,-96.27 318.03,-117.07 405,-100.35 423.59,-96.77 444.48,-92.57 460.65,-89.28"/>
<polygon fill="green" stroke="green" stroke-width="0.12" points="461.25,-92.73 470.35,-87.3 459.85,-85.87 461.25,-92.73"/>
</g>
<!-- &#45;4&#45;&gt;52 -->
<g id="edge15" class="edge">
<title>&#45;4&#45;&gt;52</title>
<path fill="none" stroke="red" stroke-width="0.43" stroke-dasharray="1,5" d="M185.39,-147.6C182.59,-138.36 178,-123.23 173.99,-110"/>
<polygon fill="red" stroke="red" stroke-width="0.43" points="177.38,-109.14 171.13,-100.58 170.68,-111.17 177.38,-109.14"/>
</g>
<!-- &#45;5 -->
<g id="node5" class="node">
<title>&#45;5</title>
<polygon fill="lightgray" stroke="black" points="741.75,-166.46 718.25,-166.46 718.25,-147.96 741.75,-147.96 741.75,-166.46"/>
<text text-anchor="middle" x="730" y="-153.91" font-family="Times,serif" font-size="9.00">&#45;5</text>
</g>
<!-- 50 -->
<g id="node29" class="node">
<title>50</title>
<ellipse fill="white" stroke="black" cx="686" cy="-82.67" rx="17.68" ry="17.68"/>
<text text-anchor="middle" x="686" y="-79.37" font-family="Times,serif" font-size="9.00">50</text>
</g>
<!-- &#45;5&#45;&gt;50 -->
<g id="edge14" class="edge">
<title>&#45;5&#45;&gt;50</title>
<path fill="none" stroke="red" stroke-width="0.64" d="M724.78,-147.6C718.79,-137.72 708.71,-121.1 700.32,-107.28"/>
<polygon fill="red" stroke="red" stroke-width="0.64" points="703.54,-105.84 695.37,-99.11 697.56,-109.47 703.54,-105.84"/>
</g>
<!-- &#45;5&#45;&gt;51 -->
<g id="edge4" class="edge">
<title>&#45;5&#45;&gt;51</title>
<path fill="none" stroke="green" stroke-width="0.17" stroke-dasharray="1,5" d="M723,-147.77C719.24,-143.75 714.3,-139.21 709,-136.35 645.51,-102.01 559.87,-89.85 516.18,-85.7"/>
<polygon fill="green" stroke="green" stroke-width="0.17" points="516.54,-82.22 506.27,-84.83 515.93,-89.19 516.54,-82.22"/>
</g>
<!-- &#45;6 -->
<g id="node6" class="node">
<title>&#45;6</title>
<polygon fill="lightgray" stroke="black" points="409.75,-166.46 386.25,-166.46 386.25,-147.96 409.75,-147.96 409.75,-166.46"/>
<text text-anchor="middle" x="398" y="-153.91" font-family="Times,serif" font-size="9.00">&#45;6</text>
</g>
<!-- &#45;6&#45;&gt;49 -->
<g id="edge24" class="edge">
<title>&#45;6&#45;&gt;49</title>
<path fill="none" stroke="red" stroke-width="0.24" d="M395.63,-147.6C393.07,-138.33 388.88,-123.12 385.22,-109.87"/>
<polygon fill="red" stroke="red" stroke-width="0.24" points="388.7,-109.3 382.66,-100.59 381.95,-111.16 388.7,-109.3"/>
</g>
<!-- &#45;6&#45;&gt;51 -->
<g id="edge7" class="edge">
<title>&#45;6&#45;&gt;51</title>
<path fill="none" stroke="red" stroke-width="0.27" stroke-dasharray="1,5" d="M406.8,-147.49C410.49,-143.94 414.87,-139.86 419,-136.35 434.07,-123.53 451.82,-110.01 465.55,-99.88"/>
<polygon fill="red" stroke="red" stroke-width="0.27" points="467.59,-102.72 473.59,-93.98 463.46,-97.07 467.59,-102.72"/>
</g>
<!-- &#45;7 -->
<g id="node7" class="node">
<title>&#45;7</title>
<polygon fill="lightgray" stroke="black" points="838.75,-237.81 815.25,-237.81 815.25,-219.31 838.75,-219.31 838.75,-237.81"/>
<text text-anchor="middle" x="827" y="-225.26" font-family="Times,serif" font-size="9.00">&#45;7</text>
</g>
<!-- 801 -->
<g id="node26" class="node">
<title>801</title>
<ellipse fill="white" stroke="black" cx="827" cy="-157.21" rx="20.86" ry="20.86"/>
<text text-anchor="middle" x="827" y="-153.91" font-family="Times,serif" font-size="9.00">801</text>
</g>
<!-- &#45;7&#45;&gt;801 -->
<g id="edge45" class="edge">
<title>&#45;7&#45;&gt;801</title>
<path fill="none" stroke="green" stroke-width="0.21" stroke-dasharray="1,5" d="M827,-219.06C827,-211.44 827,-199.79 827,-188.71"/>
<polygon fill="green" stroke="green" stroke-width="0.21" points="830.5,-188.73 827,-178.73 823.5,-188.73 830.5,-188.73"/>
</g>
<!-- &#45;7&#45;&gt;49 -->
<g id="edge34" class="edge">
<title>&#45;7&#45;&gt;49</title>
<path fill="none" stroke="green" stroke-width="0.1" stroke-dasharray="1,5" d="M814.95,-227.18C746.36,-224.86 407.16,-211.72 377,-178.07 360.55,-159.71 363.77,-130.34 369.23,-109.24"/>
<polygon fill="green" stroke="green" stroke-width="0.1" points="372.55,-110.35 371.97,-99.77 365.83,-108.4 372.55,-110.35"/>
</g>
<!-- &#45;7&#45;&gt;50 -->
<g id="edge21" class="edge">
<title>&#45;7&#45;&gt;50</title>
<path fill="none" stroke="red" stroke-width="0.18" stroke-dasharray="1,5" d="M834.59,-218.95C848.8,-201.73 876.31,-162.5 857,-136.35 824.03,-91.69 753.77,-83.71 714.34,-82.96"/>
<polygon fill="red" stroke="red" stroke-width="0.18" points="714.38,-79.46 704.37,-82.92 714.35,-86.46 714.38,-79.46"/>
</g>
<!-- &#45;8 -->
<g id="node8" class="node">
<title>&#45;8</title>
<polygon fill="lightgray" stroke="black" points="927.75,-166.46 904.25,-166.46 904.25,-147.96 927.75,-147.96 927.75,-166.46"/>
<text text-anchor="middle" x="916" y="-153.91" font-family="Times,serif" font-size="9.00">&#45;8</text>
</g>
<!-- &#45;8&#45;&gt;50 -->
<g id="edge35" class="edge">
<title>&#45;8&#45;&gt;50</title>
<path fill="none" stroke="green" stroke-width="0.68" stroke-dasharray="1,5" d="M906.49,-147.47C901.82,-143.58 895.93,-139.23 890,-136.35 831.19,-107.76 755.03,-93.41 714.44,-87.35"/>
<polygon fill="green" stroke="green" stroke-width="0.68" points="715.16,-83.92 704.76,-85.97 714.17,-90.85 715.16,-83.92"/>
</g>
<!-- &#45;9 -->
<g id="node9" class="node">
<title>&#45;9</title>
<polygon fill="lightgray" stroke="black" points="69.75,-166.46 46.25,-166.46 46.25,-147.96 69.75,-147.96 69.75,-166.46"/>
<text text-anchor="middle" x="58" y="-153.91" font-family="Times,serif" font-size="9.00">&#45;9</text>
</g>
<!-- &#45;9&#45;&gt;52 -->
<g id="edge33" class="edge">
<title>&#45;9&#45;&gt;52</title>
<path fill="none" stroke="red" stroke-width="0.4" stroke-dasharray="1,5" d="M66.21,-147.66C69.95,-143.98 74.53,-139.75 79,-136.35 98.91,-121.18 123.45,-106.66 141.38,-96.72"/>
<polygon fill="red" stroke="red" stroke-width="0.4" points="142.96,-99.84 150.06,-91.98 139.61,-93.7 142.96,-99.84"/>
</g>
<!-- &#45;10 -->
<g id="node10" class="node">
<title>&#45;10</title>
<polygon fill="lightgray" stroke="black" points="158,-166.46 130,-166.46 130,-147.96 158,-147.96 158,-166.46"/>
<text text-anchor="middle" x="144" y="-153.91" font-family="Times,serif" font-size="9.00">&#45;10</text>
</g>
<!-- &#45;10&#45;&gt;49 -->
<g id="edge2" class="edge">
<title>&#45;10&#45;&gt;49</title>
<path fill="none" stroke="green" stroke-width="0.48" d="M151.82,-147.81C155.98,-143.81 161.38,-139.26 167,-136.35 227.48,-104.98 307.54,-91.66 349.52,-86.53"/>
<polygon fill="green" stroke="green" stroke-width="0.48" points="349.8,-90.02 359.34,-85.4 349,-83.06 349.8,-90.02"/>
</g>
<!-- &#45;10&#45;&gt;52 -->
<g id="edge32" class="edge">
<title>&#45;10&#45;&gt;52</title>
<path fill="none" stroke="red" stroke-width="0.13" d="M146.61,-147.6C149.44,-138.27 154.09,-122.93 158.13,-109.61"/>
<polygon fill="red" stroke="red" stroke-width="0.13" points="161.45,-110.73 161,-100.15 154.75,-108.7 161.45,-110.73"/>
</g>
<!-- &#45;11 -->
<g id="node11" class="node">
<title>&#45;11</title>
<polygon fill="lightgray" stroke="black" points="885,-237.81 857,-237.81 857,-219.31 885,-219.31 885,-237.81"/>
<text text-anchor="middle" x="871" y="-225.26" font-family="Times,serif" font-size="9.00">&#45;11</text>
</g>
<!-- &#45;12 -->
<g id="node12" class="node">
<title>&#45;12</title>
<polygon fill="lightgray" stroke="black" points="788,-166.46 760,-166.46 760,-147.96 788,-147.96 788,-166.46"/>
<text text-anchor="middle" x="774" y="-153.91" font-family="Times,serif" font-size="9.00">&#45;12</text>
</g>
<!-- &#45;12&#45;&gt;50 -->
<g id="edge43" class="edge">
<title>&#45;12&#45;&gt;50</title>
<path fill="none" stroke="green" stroke-width="0.26" d="M764.21,-147.63C760.15,-144.11 755.37,-140 751,-136.35 736.56,-124.27 720.08,-110.92 707.33,-100.68"/>
<polygon fill="green" stroke="green" stroke-width="0.26" points="709.84,-98.21 699.85,-94.69 705.47,-103.67 709.84,-98.21"/>
</g>
<!-- &#45;12&#45;&gt;51 -->
<g id="edge42" class="edge">
<title>&#45;12&#45;&gt;51</title>
<path fill="none" stroke="red" stroke-width="0.13" d="M766.24,-147.7C762.1,-143.67 756.69,-139.13 751,-136.35 671.7,-97.55 565.61,-87.33 515.9,-84.63"/>
<polygon fill="red" stroke="red" stroke-width="0.13" points="516.26,-81.15 506.1,-84.16 515.92,-88.14 516.26,-81.15"/>
</g>
<!-- &#45;13 -->
<g id="node13" class="node">
<title>&#45;13</title>
<polygon fill="lightgray" stroke="black" points="330,-166.46 302,-166.46 302,-147.96 330,-147.96 330,-166.46"/>
<text text-anchor="middle" x="316" y="-153.91" font-family="Times,serif" font-size="9.00">&#45;13</text>
</g>
<!-- &#45;13&#45;&gt;49 -->
<g id="edge23" class="edge">
<title>&#45;13&#45;&gt;49</title>
<path fill="none" stroke="red" stroke-width="0.65" d="M323.36,-147.6C332.28,-137.16 347.64,-119.18 359.81,-104.95"/>
<polygon fill="red" stroke="red" stroke-width="0.65" points="362.41,-107.29 366.25,-97.42 357.09,-102.74 362.41,-107.29"/>
</g>
<!-- &#45;13&#45;&gt;50 -->
<g id="edge39" class="edge">
<title>&#45;13&#45;&gt;50</title>
<path fill="none" stroke="red" stroke-width="0.11" d="M330.37,-150.87C342.63,-146.48 360.78,-140.35 377,-136.35 479.54,-111.06 604.18,-93.84 658.5,-86.99"/>
<polygon fill="red" stroke="red" stroke-width="0.11" points="658.73,-90.48 668.22,-85.78 657.87,-83.54 658.73,-90.48"/>
</g>
<!-- &#45;13&#45;&gt;52 -->
<g id="edge6" class="edge">
<title>&#45;13&#45;&gt;52</title>
<path fill="none" stroke="red" stroke-width="0.3" stroke-dasharray="1,5" d="M307.56,-147.77C303.42,-143.94 298.21,-139.56 293,-136.35 260.54,-116.32 219.12,-100.77 192.58,-91.91"/>
<polygon fill="red" stroke="red" stroke-width="0.3" points="193.87,-88.65 183.28,-88.88 191.7,-95.31 193.87,-88.65"/>
</g>
<!-- &#45;14 -->
<g id="node14" class="node">
<title>&#45;14</title>
<polygon fill="lightgray" stroke="black" points="931,-237.81 903,-237.81 903,-219.31 931,-219.31 931,-237.81"/>
<text text-anchor="middle" x="917" y="-225.26" font-family="Times,serif" font-size="9.00">&#45;14</text>
</g>
<!-- &#45;15 -->
<g id="node15" class="node">
<title>&#45;15</title>
<polygon fill="lightgray" stroke="black" points="28,-166.46 0,-166.46 0,-147.96 28,-147.96 28,-166.46"/>
<text text-anchor="middle" x="14" y="-153.91" font-family="Times,serif" font-size="9.00">&#45;15</text>
</g>
<!-- &#45;15&#45;&gt;52 -->
<g id="edge31" class="edge">
<title>&#45;15&#45;&gt;52</title>
<path fill="none" stroke="red" stroke-width="0.33" stroke-dasharray="1,5" d="M22.43,-147.75C26.57,-143.92 31.78,-139.55 37,-136.35 69.95,-116.14 112.03,-100.64 139,-91.84"/>
<polygon fill="red" stroke="red" stroke-width="0.33" points="139.95,-95.21 148.41,-88.84 137.82,-88.54 139.95,-95.21"/>
</g>
<!-- &#45;16 -->
<g id="node16" class="node">
<title>&#45;16</title>
<polygon fill="lightgray" stroke="black" points="456,-166.46 428,-166.46 428,-147.96 456,-147.96 456,-166.46"/>
<text text-anchor="middle" x="442" y="-153.91" font-family="Times,serif" font-size="9.00">&#45;16</text>
</g>
<!-- &#45;16&#45;&gt;49 -->
<g id="edge13" class="edge">
<title>&#45;16&#45;&gt;49</title>
<path fill="none" stroke="red" stroke-width="0.13" stroke-dasharray="1,5" d="M434.41,-147.6C425.02,-136.96 408.73,-118.5 396.07,-104.15"/>
<polygon fill="red" stroke="red" stroke-width="0.13" points="398.84,-102 389.6,-96.82 393.59,-106.63 398.84,-102"/>
</g>
<!-- &#45;16&#45;&gt;51 -->
<g id="edge29" class="edge">
<title>&#45;16&#45;&gt;51</title>
<path fill="none" stroke="green" stroke-width="0.3" stroke-dasharray="1,5" d="M447.46,-147.6C453.78,-137.63 464.47,-120.78 473.28,-106.88"/>
<polygon fill="green" stroke="green" stroke-width="0.3" points="476.09,-108.98 478.49,-98.66 470.18,-105.24 476.09,-108.98"/>
</g>
<!-- &#45;17 -->
<g id="node17" class="node">
<title>&#45;17</title>
<polygon fill="lightgray" stroke="black" points="654,-166.46 626,-166.46 626,-147.96 654,-147.96 654,-166.46"/>
<text text-anchor="middle" x="640" y="-153.91" font-family="Times,serif" font-size="9.00">&#45;17</text>
</g>
<!-- &#45;17&#45;&gt;49 -->
<g id="edge19" class="edge">
<title>&#45;17&#45;&gt;49</title>
<path fill="none" stroke="red" stroke-width="0.16" d="M632.22,-147.75C628.07,-143.72 622.66,-139.18 617,-136.35 607.46,-131.57 465.73,-101.85 405.14,-89.28"/>
<polygon fill="red" stroke="red" stroke-width="0.16" points="406.22,-85.93 395.72,-87.33 404.8,-92.78 406.22,-85.93"/>
</g>
<!-- &#45;17&#45;&gt;50 -->
<g id="edge25" class="edge">
<title>&#45;17&#45;&gt;50</title>
<path fill="none" stroke="green" stroke-width="0.2" d="M645.46,-147.6C651.78,-137.63 662.47,-120.78 671.28,-106.88"/>
<polygon fill="green" stroke="green" stroke-width="0.2" points="674.18,-108.85 676.58,-98.53 668.26,-105.1 674.18,-108.85"/>
</g>
<!-- &#45;18 -->
<g id="node18" class="node">
<title>&#45;18</title>
<polygon fill="lightgray" stroke="black" points="502,-166.46 474,-166.46 474,-147.96 502,-147.96 502,-166.46"/>
<text text-anchor="middle" x="488" y="-153.91" font-family="Times,serif" font-size="9.00">&#45;18</text>
</g>
<!-- &#45;18&#45;&gt;49 -->
<g id="edge20" class="edge">
<title>&#45;18&#45;&gt;49</title>
<path fill="none" stroke="red" stroke-width="0.34" d="M478.89,-147.72C474.78,-144.06 469.78,-139.82 465,-136.35 444.75,-121.63 420.25,-107.06 402.42,-96.99"/>
<polygon fill="red" stroke="red" stroke-width="0.34" points="404.15,-93.95 393.72,-92.13 400.74,-100.06 404.15,-93.95"/>
</g>
<!-- &#45;18&#45;&gt;50 -->
<g id="edge26" class="edge">
<title>&#45;18&#45;&gt;50</title>
<path fill="none" stroke="green" stroke-width="0.56" d="M496.3,-147.53C500.41,-143.65 505.64,-139.29 511,-136.35 559.05,-109.95 621.97,-95.19 657.79,-88.38"/>
<polygon fill="green" stroke="green" stroke-width="0.56" points="658.37,-91.83 667.58,-86.6 657.11,-84.95 658.37,-91.83"/>
</g>
<!-- &#45;18&#45;&gt;51 -->
<g id="edge1" class="edge">
<title>&#45;18&#45;&gt;51</title>
<path fill="none" stroke="red" stroke-width="0.32" stroke-dasharray="1,5" d="M488,-147.6C488,-138.63 488,-124.1 488,-111.15"/>
<polygon fill="red" stroke="red" stroke-width="0.32" points="491.5,-111.29 488,-101.29 484.5,-111.29 491.5,-111.29"/>
</g>
<!-- &#45;19 -->
<g id="node19" class="node">
<title>&#45;19</title>
<polygon fill="lightgray" stroke="black" points="700,-166.46 672,-166.46 672,-147.96 700,-147.96 700,-166.46"/>
<text text-anchor="middle" x="686" y="-153.91" font-family="Times,serif" font-size="9.00">&#45;19</text>
</g>
<!-- &#45;19&#45;&gt;49 -->
<g id="edge30" class="edge">
<title>&#45;19&#45;&gt;49</title>
<path fill="none" stroke="green" stroke-width="0.24" d="M678.26,-147.65C674.13,-143.6 668.72,-139.07 663,-136.35 580.66,-97.15 550.6,-117.33 461,-100.35 442.4,-96.82 421.51,-92.62 405.34,-89.32"/>
<polygon fill="green" stroke="green" stroke-width="0.24" points="406.33,-85.95 395.83,-87.37 404.92,-92.81 406.33,-85.95"/>
</g>
<!-- &#45;19&#45;&gt;50 -->
<g id="edge18" class="edge">
<title>&#45;19&#45;&gt;50</title>
<path fill="none" stroke="green" stroke-width="0.35" stroke-dasharray="1,5" d="M686,-147.6C686,-138.63 686,-124.1 686,-111.15"/>
<polygon fill="green" stroke="green" stroke-width="0.35" points="689.5,-111.33 686,-101.33 682.5,-111.33 689.5,-111.33"/>
</g>
<!-- &#45;20 -->
<g id="node20" class="node">
<title>&#45;20</title>
<polygon fill="lightgray" stroke="black" points="608,-166.46 580,-166.46 580,-147.96 608,-147.96 608,-166.46"/>
<text text-anchor="middle" x="594" y="-153.91" font-family="Times,serif" font-size="9.00">&#45;20</text>
</g>
<!-- &#45;20&#45;&gt;51 -->
<g id="edge38" class="edge">
<title>&#45;20&#45;&gt;51</title>
<path fill="none" stroke="green" stroke-width="0.28" d="M584.86,-147.77C580.74,-144.11 575.74,-139.87 571,-136.35 551.81,-122.09 528.77,-107.67 511.84,-97.53"/>
<polygon fill="green" stroke="green" stroke-width="0.28" points="513.89,-94.67 503.5,-92.58 510.32,-100.69 513.89,-94.67"/>
</g>
<!-- 0 -->
<g id="node21" class="node">
<title>0</title>
<ellipse fill="lightblue" stroke="black" cx="378" cy="-14.5" rx="14.5" ry="14.5"/>
<text text-anchor="middle" x="378" y="-11.2" font-family="Times,serif" font-size="9.00">0</text>
</g>
<!-- 0&#45;&gt;0 -->
<g id="edge16" class="edge">
<title>0&#45;&gt;0</title>
<path fill="none" stroke="green" stroke-width="0.44" stroke-dasharray="1,5" d="M388.65,-24.65C399.06,-30.26 410.5,-26.88 410.5,-14.5 410.5,-6.18 405.33,-1.92 398.79,-1.72"/>
<polygon fill="green" stroke="green" stroke-width="0.44" points="398.1,1.72 389.29,-4.17 399.85,-5.06 398.1,1.72"/>
</g>
<!-- 1 -->
<g id="node22" class="node">
<title>1</title>
<ellipse fill="lightblue" stroke="black" cx="597" cy="-14.5" rx="14.5" ry="14.5"/>
<text text-anchor="middle" x="597" y="-11.2" font-family="Times,serif" font-size="9.00">1</text>
</g>
<!-- 2 -->
<g id="node23" class="node">
<title>2</title>
<ellipse fill="lightblue" stroke="black" cx="686" cy="-14.5" rx="14.5" ry="14.5"/>
<text text-anchor="middle" x="686" y="-11.2" font-family="Times,serif" font-size="9.00">2</text>
</g>
<!-- 3 -->
<g id="node24" class="node">
<title>3</title>
<ellipse fill="lightblue" stroke="black" cx="466" cy="-14.5" rx="14.5" ry="14.5"/>
<text text-anchor="middle" x="466" y="-11.2" font-family="Times,serif" font-size="9.00">3</text>
</g>
<!-- 4 -->
<g id="node25" class="node">
<title>4</title>
<ellipse fill="lightblue" stroke="black" cx="963" cy="-228.56" rx="14.5" ry="14.5"/>
<text text-anchor="middle" x="963" y="-225.26" font-family="Times,serif" font-size="9.00">4</text>
</g>
<!-- 801&#45;&gt;50 -->
<g id="edge46" class="edge">
<title>801&#45;&gt;50</title>
<path fill="none" stroke="green" stroke-width="0.41" stroke-dasharray="1,5" d="M810.13,-144.44C805.91,-141.66 801.35,-138.8 797,-136.35 768.65,-120.34 734.65,-104.7 711.81,-94.67"/>
<polygon fill="green" stroke="green" stroke-width="0.41" points="713.3,-91.5 702.73,-90.73 710.51,-97.92 713.3,-91.5"/>
</g>
<!-- 457 -->
<g id="node27" class="node">
<title>457</title>
<ellipse fill="white" stroke="black" cx="541" cy="-157.21" rx="20.86" ry="20.86"/>
<text text-anchor="middle" x="541" y="-153.91" font-family="Times,serif" font-size="9.00">457</text>
</g>
<!-- 457&#45;&gt;51 -->
<g id="edge44" class="edge">
<title>457&#45;&gt;51</title>
<path fill="none" stroke="red" stroke-width="0.31" stroke-dasharray="1,5" d="M528.97,-139.75C521.65,-129.72 512.19,-116.78 504.21,-105.86"/>
<polygon fill="red" stroke="red" stroke-width="0.31" points="507.2,-104.01 498.47,-98 501.54,-108.14 507.2,-104.01"/>
</g>
<!-- 49&#45;&gt;0 -->
<g id="edge27" class="edge">
<title>49&#45;&gt;0</title>
<path fill="none" stroke="red" stroke-width="0.28" d="M378,-64.63C378,-56.96 378,-47.77 378,-39.43"/>
<polygon fill="red" stroke="red" stroke-width="0.28" points="381.5,-39.57 378,-29.57 374.5,-39.57 381.5,-39.57"/>
</g>
<!-- 49&#45;&gt;3 -->
<g id="edge40" class="edge">
<title>49&#45;&gt;3</title>
<path fill="none" stroke="red" stroke-width="0.6" d="M391.75,-71.33C406.35,-60.35 429.57,-42.89 446.15,-30.42"/>
<polygon fill="red" stroke="red" stroke-width="0.6" points="447.98,-33.43 453.86,-24.62 443.77,-27.83 447.98,-33.43"/>
</g>
<!-- 50&#45;&gt;1 -->
<g id="edge22" class="edge">
<title>50&#45;&gt;1</title>
<path fill="none" stroke="red" stroke-width="0.81" stroke-dasharray="1,5" d="M672.09,-71.33C657.38,-60.39 634.02,-43.02 617.26,-30.56"/>
<polygon fill="red" stroke="red" stroke-width="0.81" points="619.36,-27.76 609.25,-24.6 615.19,-33.38 619.36,-27.76"/>
</g>
<!-- 50&#45;&gt;2 -->
<g id="edge11" class="edge">
<title>50&#45;&gt;2</title>
<path fill="none" stroke="red" stroke-width="0.33" d="M686,-64.63C686,-56.96 686,-47.77 686,-39.43"/>
<polygon fill="red" stroke="red" stroke-width="0.33" points="689.5,-39.65 686,-29.65 682.5,-39.65 689.5,-39.65"/>
</g>
<!-- 50&#45;&gt;3 -->
<g id="edge8" class="edge">
<title>50&#45;&gt;3</title>
<path fill="none" stroke="green" stroke-width="0.21" stroke-dasharray="1,5" d="M669.1,-76.59C630.26,-64.9 534.52,-36.11 489.77,-22.65"/>
<polygon fill="green" stroke="green" stroke-width="0.21" points="490.94,-19.34 480.35,-19.81 488.92,-26.04 490.94,-19.34"/>
</g>
<!-- 51&#45;&gt;1 -->
<g id="edge12" class="edge">
<title>51&#45;&gt;1</title>
<path fill="none" stroke="red" stroke-width="0.29" d="M502.7,-72.74C521.63,-61.25 554.65,-41.21 576.17,-28.14"/>
<polygon fill="red" stroke="red" stroke-width="0.29" points="577.78,-31.26 584.51,-23.08 574.14,-25.28 577.78,-31.26"/>
</g>
</g>
</svg>
