<?xml version="1.0" encoding="UTF-8" standalone="no"?>
<!DOCTYPE svg PUBLIC "-//W3C//DTD SVG 1.1//EN"
 "http://www.w3.org/Graphics/SVG/1.1/DTD/svg11.dtd">
<!-- Generated by graphviz version 12.1.1 (20240910.0053)
 -->
<!-- Pages: 1 -->
<svg width="914pt" height="486pt"
 viewBox="0.00 0.00 913.85 486.45" xmlns="http://www.w3.org/2000/svg" xmlns:xlink="http://www.w3.org/1999/xlink">
<g id="graph0" class="graph" transform="scale(1 1) rotate(0) translate(4 482.45)">
<polygon fill="white" stroke="none" points="-4,4 -4,-482.45 909.85,-482.45 909.85,4 -4,4"/>
<!-- &#45;1 -->
<g id="node1" class="node">
<title>&#45;1</title>
<polygon fill="lightgray" stroke="black" points="458.6,-409.16 435.1,-409.16 435.1,-390.66 458.6,-390.66 458.6,-409.16"/>
<text text-anchor="middle" x="446.85" y="-396.61" font-family="Times,serif" font-size="9.00">&#45;1</text>
</g>
<!-- 305 -->
<g id="node27" class="node">
<title>305</title>
<ellipse fill="white" stroke="black" cx="406.85" cy="-319.01" rx="20.86" ry="20.86"/>
<text text-anchor="middle" x="406.85" y="-315.71" font-family="Times,serif" font-size="9.00">305</text>
</g>
<!-- &#45;1&#45;&gt;305 -->
<g id="edge35" class="edge">
<title>&#45;1&#45;&gt;305</title>
<path fill="none" stroke="green" stroke-width="0.52" stroke-dasharray="1,5" d="M442.42,-390.16C437.21,-379.9 428.32,-362.36 420.74,-347.39"/>
<polygon fill="green" stroke="green" stroke-width="0.52" points="423.99,-346.07 416.34,-338.73 417.74,-349.23 423.99,-346.07"/>
</g>
<!-- 308 -->
<g id="node30" class="node">
<title>308</title>
<ellipse fill="white" stroke="black" cx="466.85" cy="-319.01" rx="20.86" ry="20.86"/>
<text text-anchor="middle" x="466.85" y="-315.71" font-family="Times,serif" font-size="9.00">308</text>
</g>
<!-- &#45;1&#45;&gt;308 -->
<g id="edge28" class="edge">
<title>&#45;1&#45;&gt;308</title>
<path fill="none" stroke="green" stroke-width="0.26" d="M449.07,-390.16C451.54,-380.41 455.67,-364.11 459.33,-349.68"/>
<polygon fill="green" stroke="green" stroke-width="0.26" points="462.72,-350.55 461.79,-340 455.94,-348.83 462.72,-350.55"/>
</g>
<!-- &#45;2 -->
<g id="node2" class="node">
<title>&#45;2</title>
<polygon fill="lightgray" stroke="black" points="244.6,-409.16 221.1,-409.16 221.1,-390.66 244.6,-390.66 244.6,-409.16"/>
<text text-anchor="middle" x="232.85" y="-396.61" font-family="Times,serif" font-size="9.00">&#45;2</text>
</g>
<!-- 2 -->
<g id="node23" class="node">
<title>2</title>
<ellipse fill="lightblue" stroke="black" cx="282.85" cy="-241.29" rx="14.5" ry="14.5"/>
<text text-anchor="middle" x="282.85" y="-237.99" font-family="Times,serif" font-size="9.00">2</text>
</g>
<!-- &#45;2&#45;&gt;2 -->
<g id="edge48" class="edge">
<title>&#45;2&#45;&gt;2</title>
<path fill="none" stroke="red" stroke-width="0.45" d="M235.54,-390.49C243,-367.11 264.17,-300.8 275.5,-265.33"/>
<polygon fill="red" stroke="red" stroke-width="0.45" points="278.75,-266.64 278.46,-256.05 272.08,-264.51 278.75,-266.64"/>
</g>
<!-- &#45;2&#45;&gt;305 -->
<g id="edge1" class="edge">
<title>&#45;2&#45;&gt;305</title>
<path fill="none" stroke="green" stroke-width="0.16" d="M240.8,-390.22C245.62,-385.4 252.12,-379.64 258.85,-375.87 306.69,-349.07 327.25,-363.24 376.85,-339.87 378.41,-339.14 379.97,-338.33 381.53,-337.48"/>
<polygon fill="green" stroke="green" stroke-width="0.16" points="383.26,-340.53 390.01,-332.37 379.64,-334.53 383.26,-340.53"/>
</g>
<!-- &#45;3 -->
<g id="node3" class="node">
<title>&#45;3</title>
<polygon fill="lightgray" stroke="black" points="500.6,-409.16 477.1,-409.16 477.1,-390.66 500.6,-390.66 500.6,-409.16"/>
<text text-anchor="middle" x="488.85" y="-396.61" font-family="Times,serif" font-size="9.00">&#45;3</text>
</g>
<!-- &#45;3&#45;&gt;305 -->
<g id="edge37" class="edge">
<title>&#45;3&#45;&gt;305</title>
<path fill="none" stroke="red" stroke-width="0.1" stroke-dasharray="1,5" d="M481.25,-390.2C477.34,-385.82 472.44,-380.47 467.85,-375.87 455.66,-363.64 441.46,-350.58 429.83,-340.16"/>
<polygon fill="red" stroke="red" stroke-width="0.1" points="432.16,-337.55 422.36,-333.51 427.51,-342.78 432.16,-337.55"/>
</g>
<!-- &#45;3&#45;&gt;308 -->
<g id="edge31" class="edge">
<title>&#45;3&#45;&gt;308</title>
<path fill="none" stroke="red" stroke-width="0.78" stroke-dasharray="1,5" d="M486.41,-390.16C483.72,-380.51 479.24,-364.43 475.24,-350.1"/>
<polygon fill="red" stroke="red" stroke-width="0.78" points="478.7,-349.46 472.64,-340.76 471.95,-351.34 478.7,-349.46"/>
</g>
<!-- &#45;4 -->
<g id="node4" class="node">
<title>&#45;4</title>
<polygon fill="lightgray" stroke="black" points="547.6,-328.26 524.1,-328.26 524.1,-309.76 547.6,-309.76 547.6,-328.26"/>
<text text-anchor="middle" x="535.85" y="-315.71" font-family="Times,serif" font-size="9.00">&#45;4</text>
</g>
<!-- 484 -->
<g id="node26" class="node">
<title>484</title>
<ellipse fill="white" stroke="black" cx="557.85" cy="-241.29" rx="20.86" ry="20.86"/>
<text text-anchor="middle" x="557.85" y="-237.99" font-family="Times,serif" font-size="9.00">484</text>
</g>
<!-- &#45;4&#45;&gt;484 -->
<g id="edge51" class="edge">
<title>&#45;4&#45;&gt;484</title>
<path fill="none" stroke="green" stroke-width="0.2" stroke-dasharray="1,5" d="M538.38,-309.32C541.04,-300.16 545.38,-285.21 549.29,-271.76"/>
<polygon fill="green" stroke="green" stroke-width="0.2" points="552.65,-272.75 552.08,-262.17 545.93,-270.79 552.65,-272.75"/>
</g>
<!-- &#45;5 -->
<g id="node5" class="node">
<title>&#45;5</title>
<polygon fill="lightgray" stroke="black" points="370.6,-409.16 347.1,-409.16 347.1,-390.66 370.6,-390.66 370.6,-409.16"/>
<text text-anchor="middle" x="358.85" y="-396.61" font-family="Times,serif" font-size="9.00">&#45;5</text>
</g>
<!-- 4 -->
<g id="node25" class="node">
<title>4</title>
<ellipse fill="lightblue" stroke="black" cx="353.85" cy="-319.01" rx="14.5" ry="14.5"/>
<text text-anchor="middle" x="353.85" y="-315.71" font-family="Times,serif" font-size="9.00">4</text>
</g>
<!-- &#45;5&#45;&gt;4 -->
<g id="edge53" class="edge">
<title>&#45;5&#45;&gt;4</title>
<path fill="none" stroke="red" stroke-width="0.21" d="M358.3,-390.16C357.6,-379.08 356.36,-359.53 355.37,-343.88"/>
<polygon fill="red" stroke="red" stroke-width="0.21" points="358.87,-343.91 354.75,-334.15 351.89,-344.35 358.87,-343.91"/>
</g>
<!-- &#45;5&#45;&gt;305 -->
<g id="edge18" class="edge">
<title>&#45;5&#45;&gt;305</title>
<path fill="none" stroke="red" stroke-width="0.29" d="M364.17,-390.16C370.62,-379.57 381.78,-361.23 391.07,-345.96"/>
<polygon fill="red" stroke="red" stroke-width="0.29" points="393.83,-348.15 396.04,-337.79 387.85,-344.51 393.83,-348.15"/>
</g>
<!-- &#45;5&#45;&gt;308 -->
<g id="edge34" class="edge">
<title>&#45;5&#45;&gt;308</title>
<path fill="none" stroke="red" stroke-width="0.57" stroke-dasharray="1,5" d="M365.74,-390.29C369.62,-385.72 374.71,-380.18 379.85,-375.87 402.82,-356.62 411.69,-356.14 436.85,-339.87 438.16,-339.02 439.51,-338.15 440.86,-337.27"/>
<polygon fill="red" stroke="red" stroke-width="0.57" points="442.61,-340.31 449.04,-331.89 438.76,-334.46 442.61,-340.31"/>
</g>
<!-- &#45;6 -->
<g id="node6" class="node">
<title>&#45;6</title>
<polygon fill="lightgray" stroke="black" points="589.6,-328.26 566.1,-328.26 566.1,-309.76 589.6,-309.76 589.6,-328.26"/>
<text text-anchor="middle" x="577.85" y="-315.71" font-family="Times,serif" font-size="9.00">&#45;6</text>
</g>
<!-- &#45;6&#45;&gt;484 -->
<g id="edge56" class="edge">
<title>&#45;6&#45;&gt;484</title>
<path fill="none" stroke="red" stroke-width="0.32" d="M575.56,-309.32C573.14,-300.16 569.19,-285.21 565.64,-271.76"/>
<polygon fill="red" stroke="red" stroke-width="0.32" points="569.09,-271.12 563.15,-262.34 562.32,-272.9 569.09,-271.12"/>
</g>
<!-- &#45;7 -->
<g id="node7" class="node">
<title>&#45;7</title>
<polygon fill="lightgray" stroke="black" points="764.6,-409.16 741.1,-409.16 741.1,-390.66 764.6,-390.66 764.6,-409.16"/>
<text text-anchor="middle" x="752.85" y="-396.61" font-family="Times,serif" font-size="9.00">&#45;7</text>
</g>
<!-- &#45;7&#45;&gt;305 -->
<g id="edge7" class="edge">
<title>&#45;7&#45;&gt;305</title>
<path fill="none" stroke="red" stroke-width="0.24" stroke-dasharray="1,5" d="M740.92,-393.3C729.2,-388.01 710.66,-380.26 693.85,-375.87 582.27,-346.69 544.72,-380.71 436.85,-339.87 435.21,-339.25 433.56,-338.52 431.93,-337.72"/>
<polygon fill="red" stroke="red" stroke-width="0.24" points="433.69,-334.69 423.27,-332.73 430.19,-340.76 433.69,-334.69"/>
</g>
<!-- 306 -->
<g id="node28" class="node">
<title>306</title>
<ellipse fill="white" stroke="black" cx="459.85" cy="-85.85" rx="20.86" ry="20.86"/>
<text text-anchor="middle" x="459.85" y="-82.55" font-family="Times,serif" font-size="9.00">306</text>
</g>
<!-- &#45;7&#45;&gt;306 -->
<g id="edge42" class="edge">
<title>&#45;7&#45;&gt;306</title>
<path fill="none" stroke="green" stroke-width="0.31" d="M749.79,-390.55C736.52,-355.45 680.67,-218.29 591.85,-142.71 561.98,-117.29 518.84,-101.99 490.11,-93.99"/>
<polygon fill="green" stroke="green" stroke-width="0.31" points="491.23,-90.67 480.67,-91.49 489.44,-97.44 491.23,-90.67"/>
</g>
<!-- &#45;7&#45;&gt;308 -->
<g id="edge20" class="edge">
<title>&#45;7&#45;&gt;308</title>
<path fill="none" stroke="green" stroke-width="0.26" stroke-dasharray="1,5" d="M745.52,-390.35C740.72,-385.33 734.03,-379.31 726.85,-375.87 640.66,-334.58 606.7,-366.3 514.85,-339.87 508.37,-338 501.58,-335.53 495.21,-332.97"/>
<polygon fill="green" stroke="green" stroke-width="0.26" points="496.59,-329.75 486.02,-329.09 493.87,-336.2 496.59,-329.75"/>
</g>
<!-- &#45;8 -->
<g id="node8" class="node">
<title>&#45;8</title>
<polygon fill="lightgray" stroke="black" points="813.6,-478.45 790.1,-478.45 790.1,-459.95 813.6,-459.95 813.6,-478.45"/>
<text text-anchor="middle" x="801.85" y="-465.9" font-family="Times,serif" font-size="9.00">&#45;8</text>
</g>
<!-- &#45;9 -->
<g id="node9" class="node">
<title>&#45;9</title>
<polygon fill="lightgray" stroke="black" points="771.6,-478.45 748.1,-478.45 748.1,-459.95 771.6,-459.95 771.6,-478.45"/>
<text text-anchor="middle" x="759.85" y="-465.9" font-family="Times,serif" font-size="9.00">&#45;9</text>
</g>
<!-- &#45;9&#45;&gt;308 -->
<g id="edge13" class="edge">
<title>&#45;9&#45;&gt;308</title>
<path fill="none" stroke="green" stroke-width="0.48" stroke-dasharray="1,5" d="M754.26,-459.64C739.92,-437.81 702.37,-381.38 693.85,-375.87 625.72,-331.78 592.49,-363.49 514.85,-339.87 508.4,-337.9 501.62,-335.39 495.25,-332.82"/>
<polygon fill="green" stroke="green" stroke-width="0.48" points="496.94,-329.73 486.37,-329.08 494.22,-336.19 496.94,-329.73"/>
</g>
<!-- 1021 -->
<g id="node33" class="node">
<title>1021</title>
<ellipse fill="white" stroke="black" cx="806.85" cy="-399.91" rx="24.04" ry="24.04"/>
<text text-anchor="middle" x="806.85" y="-396.61" font-family="Times,serif" font-size="9.00">1021</text>
</g>
<!-- &#45;9&#45;&gt;1021 -->
<g id="edge54" class="edge">
<title>&#45;9&#45;&gt;1021</title>
<path fill="none" stroke="green" stroke-width="0.23" d="M765.81,-459.68C771.32,-451.79 779.82,-439.61 787.66,-428.39"/>
<polygon fill="green" stroke="green" stroke-width="0.23" points="790.41,-430.56 793.27,-420.36 784.67,-426.55 790.41,-430.56"/>
</g>
<!-- &#45;10 -->
<g id="node10" class="node">
<title>&#45;10</title>
<polygon fill="lightgray" stroke="black" points="159.85,-478.45 131.85,-478.45 131.85,-459.95 159.85,-459.95 159.85,-478.45"/>
<text text-anchor="middle" x="145.85" y="-465.9" font-family="Times,serif" font-size="9.00">&#45;10</text>
</g>
<!-- &#45;10&#45;&gt;305 -->
<g id="edge23" class="edge">
<title>&#45;10&#45;&gt;305</title>
<path fill="none" stroke="green" stroke-width="0.14" d="M160.32,-464.81C182.23,-459.14 224.39,-446.14 253.85,-423.95 275.61,-407.57 270.19,-392.38 291.85,-375.87 324.48,-351 340.71,-359.27 376.85,-339.87 378.37,-339.06 379.9,-338.19 381.43,-337.29"/>
<polygon fill="green" stroke="green" stroke-width="0.14" points="383.24,-340.29 389.87,-332.02 379.54,-334.35 383.24,-340.29"/>
</g>
<!-- &#45;10&#45;&gt;306 -->
<g id="edge24" class="edge">
<title>&#45;10&#45;&gt;306</title>
<path fill="none" stroke="red" stroke-width="0.49" d="M131.4,-467.53C105.24,-465.48 50.13,-457.22 21.85,-423.95 -8.56,-388.17 2.85,-366.97 2.85,-320.01 2.85,-320.01 2.85,-320.01 2.85,-240.29 2.85,-150.25 325.67,-103.18 428.67,-90.45"/>
<polygon fill="red" stroke="red" stroke-width="0.49" points="428.79,-93.96 438.29,-89.28 427.94,-87.01 428.79,-93.96"/>
</g>
<!-- 307 -->
<g id="node29" class="node">
<title>307</title>
<ellipse fill="white" stroke="black" cx="209.85" cy="-319.01" rx="20.86" ry="20.86"/>
<text text-anchor="middle" x="209.85" y="-315.71" font-family="Times,serif" font-size="9.00">307</text>
</g>
<!-- &#45;10&#45;&gt;307 -->
<g id="edge33" class="edge">
<title>&#45;10&#45;&gt;307</title>
<path fill="none" stroke="green" stroke-width="0.3" stroke-dasharray="1,5" d="M152.05,-459.73C158.18,-451.07 167.54,-437.06 173.85,-423.95 185.55,-399.66 195.29,-370.56 201.68,-349.33"/>
<polygon fill="green" stroke="green" stroke-width="0.3" points="205.03,-350.33 204.49,-339.75 198.32,-348.36 205.03,-350.33"/>
</g>
<!-- 565 -->
<g id="node31" class="node">
<title>565</title>
<ellipse fill="white" stroke="black" cx="97.85" cy="-399.91" rx="20.86" ry="20.86"/>
<text text-anchor="middle" x="97.85" y="-396.61" font-family="Times,serif" font-size="9.00">565</text>
</g>
<!-- &#45;10&#45;&gt;565 -->
<g id="edge49" class="edge">
<title>&#45;10&#45;&gt;565</title>
<path fill="none" stroke="green" stroke-width="0.17" d="M139.77,-459.68C133.72,-451.2 124.15,-437.77 115.67,-425.89"/>
<polygon fill="green" stroke="green" stroke-width="0.17" points="118.57,-423.93 109.91,-417.82 112.87,-427.99 118.57,-423.93"/>
</g>
<!-- &#45;11 -->
<g id="node11" class="node">
<title>&#45;11</title>
<polygon fill="lightgray" stroke="black" points="58.85,-409.16 30.85,-409.16 30.85,-390.66 58.85,-390.66 58.85,-409.16"/>
<text text-anchor="middle" x="44.85" y="-396.61" font-family="Times,serif" font-size="9.00">&#45;11</text>
</g>
<!-- &#45;11&#45;&gt;307 -->
<g id="edge4" class="edge">
<title>&#45;11&#45;&gt;307</title>
<path fill="none" stroke="red" stroke-width="0.17" stroke-dasharray="1,5" d="M51.82,-390.37C56.05,-385.6 61.8,-379.84 67.85,-375.87 103.32,-352.6 149.97,-336.59 179.94,-327.86"/>
<polygon fill="red" stroke="red" stroke-width="0.17" points="180.88,-331.23 189.55,-325.14 178.97,-324.49 180.88,-331.23"/>
</g>
<!-- &#45;12 -->
<g id="node12" class="node">
<title>&#45;12</title>
<polygon fill="lightgray" stroke="black" points="684.85,-409.16 656.85,-409.16 656.85,-390.66 684.85,-390.66 684.85,-409.16"/>
<text text-anchor="middle" x="670.85" y="-396.61" font-family="Times,serif" font-size="9.00">&#45;12</text>
</g>
<!-- &#45;12&#45;&gt;305 -->
<g id="edge41" class="edge">
<title>&#45;12&#45;&gt;305</title>
<path fill="none" stroke="green" stroke-width="0.26" d="M664.56,-390.34C660.39,-385.32 654.48,-379.3 647.85,-375.87 563.37,-332.14 525.31,-374.88 436.85,-339.87 435.22,-339.22 433.58,-338.47 431.95,-337.66"/>
<polygon fill="green" stroke="green" stroke-width="0.26" points="433.73,-334.64 423.32,-332.64 430.21,-340.7 433.73,-334.64"/>
</g>
<!-- &#45;12&#45;&gt;306 -->
<g id="edge16" class="edge">
<title>&#45;12&#45;&gt;306</title>
<path fill="none" stroke="green" stroke-width="0.16" d="M669.68,-390.46C664.33,-354.97 638.99,-216.49 560.85,-142.71 539.75,-122.79 510.2,-107.53 488.52,-98.03"/>
<polygon fill="green" stroke="green" stroke-width="0.16" points="489.97,-94.85 479.39,-94.18 487.24,-101.3 489.97,-94.85"/>
</g>
<!-- &#45;13 -->
<g id="node13" class="node">
<title>&#45;13</title>
<polygon fill="lightgray" stroke="black" points="164.85,-409.16 136.85,-409.16 136.85,-390.66 164.85,-390.66 164.85,-409.16"/>
<text text-anchor="middle" x="150.85" y="-396.61" font-family="Times,serif" font-size="9.00">&#45;13</text>
</g>
<!-- &#45;13&#45;&gt;305 -->
<g id="edge26" class="edge">
<title>&#45;13&#45;&gt;305</title>
<path fill="none" stroke="red" stroke-width="0.21" d="M165.19,-392.81C177.43,-387.77 195.57,-380.69 211.85,-375.87 283.82,-354.55 307.71,-369.08 376.85,-339.87 378.44,-339.2 380.02,-338.45 381.6,-337.63"/>
<polygon fill="red" stroke="red" stroke-width="0.21" points="383.21,-340.75 390.06,-332.67 379.67,-334.71 383.21,-340.75"/>
</g>
<!-- &#45;13&#45;&gt;306 -->
<g id="edge52" class="edge">
<title>&#45;13&#45;&gt;306</title>
<path fill="none" stroke="red" stroke-width="0.4" stroke-dasharray="1,5" d="M151.83,-390.22C154.18,-371.99 161.41,-328.91 179.85,-298.15 241.3,-195.66 373.05,-126.15 431.23,-99.27"/>
<polygon fill="red" stroke="red" stroke-width="0.4" points="432.67,-102.46 440.33,-95.14 429.78,-96.09 432.67,-102.46"/>
</g>
<!-- &#45;13&#45;&gt;307 -->
<g id="edge12" class="edge">
<title>&#45;13&#45;&gt;307</title>
<path fill="none" stroke="red" stroke-width="0.16" stroke-dasharray="1,5" d="M157.39,-390.16C165.59,-379.2 179.99,-359.94 191.63,-344.37"/>
<polygon fill="red" stroke="red" stroke-width="0.16" points="194.43,-346.48 197.62,-336.37 188.82,-342.29 194.43,-346.48"/>
</g>
<!-- &#45;14 -->
<g id="node14" class="node">
<title>&#45;14</title>
<polygon fill="lightgray" stroke="black" points="592.85,-409.16 564.85,-409.16 564.85,-390.66 592.85,-390.66 592.85,-409.16"/>
<text text-anchor="middle" x="578.85" y="-396.61" font-family="Times,serif" font-size="9.00">&#45;14</text>
</g>
<!-- &#45;14&#45;&gt;305 -->
<g id="edge14" class="edge">
<title>&#45;14&#45;&gt;305</title>
<path fill="none" stroke="green" stroke-width="0.11" stroke-dasharray="1,5" d="M572.01,-390.18C567.81,-385.35 562.06,-379.59 555.85,-375.87 508.46,-347.46 486.86,-363.37 436.85,-339.87 435.3,-339.14 433.73,-338.34 432.17,-337.48"/>
<polygon fill="green" stroke="green" stroke-width="0.11" points="434,-334.5 423.63,-332.34 430.39,-340.49 434,-334.5"/>
</g>
<!-- &#45;14&#45;&gt;306 -->
<g id="edge10" class="edge">
<title>&#45;14&#45;&gt;306</title>
<path fill="none" stroke="green" stroke-width="0.21" stroke-dasharray="1,5" d="M582.75,-390.34C587.65,-379.05 595.79,-358.45 598.85,-339.87 607.52,-287.27 611.15,-268.38 587.85,-220.43 563.73,-170.79 514.32,-127.6 484.44,-104.57"/>
<polygon fill="green" stroke="green" stroke-width="0.21" points="486.9,-102.05 476.81,-98.81 482.68,-107.63 486.9,-102.05"/>
</g>
<!-- &#45;14&#45;&gt;308 -->
<g id="edge40" class="edge">
<title>&#45;14&#45;&gt;308</title>
<path fill="none" stroke="green" stroke-width="0.46" stroke-dasharray="1,5" d="M571.18,-390.34C566.9,-385.78 561.33,-380.24 555.85,-375.87 536.3,-360.27 512.17,-345.36 493.96,-334.87"/>
<polygon fill="green" stroke="green" stroke-width="0.46" points="496.07,-332.04 485.65,-330.15 492.62,-338.13 496.07,-332.04"/>
</g>
<!-- &#45;15 -->
<g id="node15" class="node">
<title>&#45;15</title>
<polygon fill="lightgray" stroke="black" points="546.85,-409.16 518.85,-409.16 518.85,-390.66 546.85,-390.66 546.85,-409.16"/>
<text text-anchor="middle" x="532.85" y="-396.61" font-family="Times,serif" font-size="9.00">&#45;15</text>
</g>
<!-- &#45;15&#45;&gt;305 -->
<g id="edge39" class="edge">
<title>&#45;15&#45;&gt;305</title>
<path fill="none" stroke="red" stroke-width="0.12" stroke-dasharray="1,5" d="M525.76,-390.55C521.48,-385.85 515.73,-380.09 509.85,-375.87 480.46,-354.78 468.22,-357.89 436.85,-339.87 435.36,-339.01 433.85,-338.11 432.33,-337.19"/>
<polygon fill="red" stroke="red" stroke-width="0.12" points="434.22,-334.24 423.9,-331.83 430.46,-340.15 434.22,-334.24"/>
</g>
<!-- &#45;15&#45;&gt;308 -->
<g id="edge8" class="edge">
<title>&#45;15&#45;&gt;308</title>
<path fill="none" stroke="red" stroke-width="0.33" d="M525.54,-390.16C516.16,-378.96 499.55,-359.1 486.39,-343.36"/>
<polygon fill="red" stroke="red" stroke-width="0.33" points="489.3,-341.39 480.2,-335.96 483.93,-345.88 489.3,-341.39"/>
</g>
<!-- &#45;16 -->
<g id="node16" class="node">
<title>&#45;16</title>
<polygon fill="lightgray" stroke="black" points="328.85,-409.16 300.85,-409.16 300.85,-390.66 328.85,-390.66 328.85,-409.16"/>
<text text-anchor="middle" x="314.85" y="-396.61" font-family="Times,serif" font-size="9.00">&#45;16</text>
</g>
<!-- &#45;16&#45;&gt;307 -->
<g id="edge38" class="edge">
<title>&#45;16&#45;&gt;307</title>
<path fill="none" stroke="red" stroke-width="0.28" d="M303.22,-390.16C286.72,-377.77 256.13,-354.78 234.47,-338.5"/>
<polygon fill="red" stroke="red" stroke-width="0.28" points="236.81,-335.88 226.71,-332.67 232.6,-341.48 236.81,-335.88"/>
</g>
<!-- &#45;16&#45;&gt;308 -->
<g id="edge22" class="edge">
<title>&#45;16&#45;&gt;308</title>
<path fill="none" stroke="red" stroke-width="0.4" stroke-dasharray="1,5" d="M321.78,-390.31C326,-385.52 331.75,-379.76 337.85,-375.87 377.33,-350.7 395.04,-360.94 436.85,-339.87 438.39,-339.1 439.94,-338.26 441.48,-337.38"/>
<polygon fill="red" stroke="red" stroke-width="0.4" points="442.93,-340.6 449.62,-332.39 439.27,-334.64 442.93,-340.6"/>
</g>
<!-- &#45;17 -->
<g id="node17" class="node">
<title>&#45;17</title>
<polygon fill="lightgray" stroke="black" points="859.85,-478.45 831.85,-478.45 831.85,-459.95 859.85,-459.95 859.85,-478.45"/>
<text text-anchor="middle" x="845.85" y="-465.9" font-family="Times,serif" font-size="9.00">&#45;17</text>
</g>
<!-- &#45;18 -->
<g id="node18" class="node">
<title>&#45;18</title>
<polygon fill="lightgray" stroke="black" points="638.85,-409.16 610.85,-409.16 610.85,-390.66 638.85,-390.66 638.85,-409.16"/>
<text text-anchor="middle" x="624.85" y="-396.61" font-family="Times,serif" font-size="9.00">&#45;18</text>
</g>
<!-- &#45;18&#45;&gt;308 -->
<g id="edge19" class="edge">
<title>&#45;18&#45;&gt;308</title>
<path fill="none" stroke="red" stroke-width="0.35" stroke-dasharray="1,5" d="M617.86,-390.41C613.62,-385.65 607.87,-379.89 601.85,-375.87 601.78,-375.82 535.52,-348.41 495.87,-332.01"/>
<polygon fill="red" stroke="red" stroke-width="0.35" points="497.25,-328.79 486.67,-328.21 494.57,-335.26 497.25,-328.79"/>
</g>
<!-- &#45;19 -->
<g id="node19" class="node">
<title>&#45;19</title>
<polygon fill="lightgray" stroke="black" points="416.85,-409.16 388.85,-409.16 388.85,-390.66 416.85,-390.66 416.85,-409.16"/>
<text text-anchor="middle" x="402.85" y="-396.61" font-family="Times,serif" font-size="9.00">&#45;19</text>
</g>
<!-- &#45;19&#45;&gt;305 -->
<g id="edge9" class="edge">
<title>&#45;19&#45;&gt;305</title>
<path fill="none" stroke="red" stroke-width="0.38" d="M403.3,-390.16C403.78,-380.64 404.58,-364.86 405.3,-350.67"/>
<polygon fill="red" stroke="red" stroke-width="0.38" points="408.79,-351 405.8,-340.84 401.8,-350.65 408.79,-351"/>
</g>
<!-- &#45;19&#45;&gt;308 -->
<g id="edge25" class="edge">
<title>&#45;19&#45;&gt;308</title>
<path fill="none" stroke="green" stroke-width="0.15" d="M409.95,-390.16C418.98,-379.03 434.95,-359.34 447.67,-343.65"/>
<polygon fill="green" stroke="green" stroke-width="0.15" points="450.25,-346.03 453.83,-336.06 444.82,-341.62 450.25,-346.03"/>
</g>
<!-- &#45;20 -->
<g id="node20" class="node">
<title>&#45;20</title>
<polygon fill="lightgray" stroke="black" points="905.85,-478.45 877.85,-478.45 877.85,-459.95 905.85,-459.95 905.85,-478.45"/>
<text text-anchor="middle" x="891.85" y="-465.9" font-family="Times,serif" font-size="9.00">&#45;20</text>
</g>
<!-- 0 -->
<g id="node21" class="node">
<title>0</title>
<ellipse fill="lightblue" stroke="black" cx="390.85" cy="-14.5" rx="14.5" ry="14.5"/>
<text text-anchor="middle" x="390.85" y="-11.2" font-family="Times,serif" font-size="9.00">0</text>
</g>
<!-- 1 -->
<g id="node22" class="node">
<title>1</title>
<ellipse fill="lightblue" stroke="black" cx="459.85" cy="-14.5" rx="14.5" ry="14.5"/>
<text text-anchor="middle" x="459.85" y="-11.2" font-family="Times,serif" font-size="9.00">1</text>
</g>
<!-- 2&#45;&gt;2 -->
<g id="edge29" class="edge">
<title>2&#45;&gt;2</title>
<path fill="none" stroke="red" stroke-width="0.16" stroke-dasharray="1,5" d="M292.83,-252.44C303.42,-259.43 315.35,-255.71 315.35,-241.29 315.35,-231.15 309.45,-226.3 302.27,-226.75"/>
<polygon fill="red" stroke="red" stroke-width="0.16" points="301.29,-223.38 293.07,-230.05 303.66,-229.96 301.29,-223.38"/>
</g>
<!-- 3 -->
<g id="node24" class="node">
<title>3</title>
<ellipse fill="lightblue" stroke="black" cx="410.85" cy="-241.29" rx="14.5" ry="14.5"/>
<text text-anchor="middle" x="410.85" y="-237.99" font-family="Times,serif" font-size="9.00">3</text>
</g>
<!-- 406 -->
<g id="node32" class="node">
<title>406</title>
<ellipse fill="white" stroke="black" cx="459.85" cy="-163.57" rx="20.86" ry="20.86"/>
<text text-anchor="middle" x="459.85" y="-160.27" font-family="Times,serif" font-size="9.00">406</text>
</g>
<!-- 484&#45;&gt;406 -->
<g id="edge46" class="edge">
<title>484&#45;&gt;406</title>
<path fill="none" stroke="red" stroke-width="0.18" d="M541.67,-227.79C525.92,-215.62 501.81,-196.99 483.83,-183.1"/>
<polygon fill="red" stroke="red" stroke-width="0.18" points="486.33,-180.61 476.28,-177.26 482.05,-186.15 486.33,-180.61"/>
</g>
<!-- 305&#45;&gt;0 -->
<g id="edge2" class="edge">
<title>305&#45;&gt;0</title>
<path fill="none" stroke="red" stroke-width="0.25" d="M398.76,-299.28C394.6,-288.61 389.96,-274.88 387.85,-262.15 374.48,-181.33 382.77,-83.57 387.81,-39.32"/>
<polygon fill="red" stroke="red" stroke-width="0.25" points="391.26,-39.98 388.96,-29.64 384.31,-39.15 391.26,-39.98"/>
</g>
<!-- 305&#45;&gt;2 -->
<g id="edge36" class="edge">
<title>305&#45;&gt;2</title>
<path fill="none" stroke="red" stroke-width="0.26" d="M389.81,-306.52C385.6,-303.74 381.09,-300.81 376.85,-298.15 352.09,-282.61 323.11,-265.55 303.94,-254.43"/>
<polygon fill="red" stroke="red" stroke-width="0.26" points="305.89,-251.51 295.48,-249.53 302.39,-257.57 305.89,-251.51"/>
</g>
<!-- 305&#45;&gt;3 -->
<g id="edge27" class="edge">
<title>305&#45;&gt;3</title>
<path fill="none" stroke="green" stroke-width="0.46" d="M407.92,-297.72C408.43,-288.17 409.03,-276.7 409.56,-266.69"/>
<polygon fill="green" stroke="green" stroke-width="0.46" points="413.05,-267.04 410.08,-256.86 406.06,-266.67 413.05,-267.04"/>
</g>
<!-- 306&#45;&gt;0 -->
<g id="edge21" class="edge">
<title>306&#45;&gt;0</title>
<path fill="none" stroke="green" stroke-width="0.6" d="M445.56,-70.48C434.76,-59.63 419.88,-44.67 408.36,-33.1"/>
<polygon fill="green" stroke="green" stroke-width="0.6" points="410.85,-30.64 401.32,-26.02 405.89,-35.57 410.85,-30.64"/>
</g>
<!-- 306&#45;&gt;1 -->
<g id="edge30" class="edge">
<title>306&#45;&gt;1</title>
<path fill="none" stroke="green" stroke-width="0.29" d="M459.85,-64.79C459.85,-56.98 459.85,-47.96 459.85,-39.78"/>
<polygon fill="green" stroke="green" stroke-width="0.29" points="463.35,-39.8 459.85,-29.8 456.35,-39.8 463.35,-39.8"/>
</g>
<!-- 307&#45;&gt;1 -->
<g id="edge6" class="edge">
<title>307&#45;&gt;1</title>
<path fill="none" stroke="red" stroke-width="0.52" stroke-dasharray="1,5" d="M217.52,-299.08C226.23,-278.69 241.63,-245.78 259.85,-220.43 316.54,-141.58 403.17,-63.74 441.04,-31.28"/>
<polygon fill="red" stroke="red" stroke-width="0.52" points="443.21,-34.03 448.56,-24.88 438.67,-28.69 443.21,-34.03"/>
</g>
<!-- 307&#45;&gt;2 -->
<g id="edge3" class="edge">
<title>307&#45;&gt;2</title>
<path fill="none" stroke="green" stroke-width="0.2" d="M223.93,-303.41C235.98,-290.91 253.36,-272.88 266.12,-259.64"/>
<polygon fill="green" stroke="green" stroke-width="0.2" points="268.4,-262.33 272.82,-252.7 263.36,-257.47 268.4,-262.33"/>
</g>
<!-- 307&#45;&gt;3 -->
<g id="edge15" class="edge">
<title>307&#45;&gt;3</title>
<path fill="none" stroke="green" stroke-width="0.79" stroke-dasharray="1,5" d="M229.49,-310.61C266.52,-296.66 346.55,-266.51 386.76,-251.36"/>
<polygon fill="green" stroke="green" stroke-width="0.79" points="387.96,-254.65 396.08,-247.85 385.49,-248.1 387.96,-254.65"/>
</g>
<!-- 308&#45;&gt;1 -->
<g id="edge17" class="edge">
<title>308&#45;&gt;1</title>
<path fill="none" stroke="green" stroke-width="0.53" stroke-dasharray="1,5" d="M475.08,-299.54C479.43,-288.84 484.37,-274.99 486.85,-262.15 503.51,-176.11 513.44,-149.39 489.85,-64.99 486.83,-54.19 480.74,-43.4 474.84,-34.66"/>
<polygon fill="green" stroke="green" stroke-width="0.53" points="477.81,-32.8 469.12,-26.74 472.13,-36.9 477.81,-32.8"/>
</g>
<!-- 308&#45;&gt;2 -->
<g id="edge11" class="edge">
<title>308&#45;&gt;2</title>
<path fill="none" stroke="green" stroke-width="0.17" stroke-dasharray="1,5" d="M450.14,-305.94C445.92,-303.18 441.32,-300.4 436.85,-298.15 392.58,-275.86 337.2,-258.03 306.37,-248.92"/>
<polygon fill="green" stroke="green" stroke-width="0.17" points="307.73,-245.67 297.15,-246.24 305.77,-252.39 307.73,-245.67"/>
</g>
<!-- 308&#45;&gt;3 -->
<g id="edge5" class="edge">
<title>308&#45;&gt;3</title>
<path fill="none" stroke="green" stroke-width="0.3" d="M454.7,-301.58C446,-289.82 434.26,-273.95 425.12,-261.58"/>
<polygon fill="green" stroke="green" stroke-width="0.3" points="428.04,-259.64 419.28,-253.68 422.41,-263.8 428.04,-259.64"/>
</g>
<!-- 308&#45;&gt;484 -->
<g id="edge45" class="edge">
<title>308&#45;&gt;484</title>
<path fill="none" stroke="green" stroke-width="0.23" d="M482.7,-304.82C497.06,-292.88 518.38,-275.13 534.65,-261.59"/>
<polygon fill="green" stroke="green" stroke-width="0.23" points="536.47,-264.63 541.92,-255.55 531.99,-259.25 536.47,-264.63"/>
</g>
<!-- 308&#45;&gt;308 -->
<g id="edge32" class="edge">
<title>308&#45;&gt;308</title>
<path fill="none" stroke="red" stroke-width="0.17" stroke-dasharray="1,5" d="M483.22,-332.16C494.56,-336.14 505.71,-331.76 505.71,-319.01 505.71,-310.04 500.2,-305.21 492.98,-304.52"/>
<polygon fill="red" stroke="red" stroke-width="0.17" points="492.91,-301 483.47,-305.83 493.86,-307.94 492.91,-301"/>
</g>
<!-- 308&#45;&gt;406 -->
<g id="edge43" class="edge">
<title>308&#45;&gt;406</title>
<path fill="none" stroke="green" stroke-width="0.2" d="M461.29,-298.58C457.63,-272.32 455.21,-225.26 455.74,-194.48"/>
<polygon fill="green" stroke="green" stroke-width="0.2" points="459.23,-194.73 456.04,-184.63 452.24,-194.51 459.23,-194.73"/>
</g>
<!-- 565&#45;&gt;307 -->
<g id="edge50" class="edge">
<title>565&#45;&gt;307</title>
<path fill="none" stroke="green" stroke-width="0.75" stroke-dasharray="1,5" d="M113.92,-386.3C118.39,-382.87 123.28,-379.18 127.85,-375.87 146.28,-362.53 167.52,-348.09 183.77,-337.23"/>
<polygon fill="green" stroke="green" stroke-width="0.75" points="185.36,-340.37 191.75,-331.92 181.48,-334.54 185.36,-340.37"/>
</g>
<!-- 406&#45;&gt;306 -->
<g id="edge47" class="edge">
<title>406&#45;&gt;306</title>
<path fill="none" stroke="red" stroke-width="0.4" d="M459.85,-142.28C459.85,-134.73 459.85,-125.97 459.85,-117.68"/>
<polygon fill="red" stroke="red" stroke-width="0.4" points="463.35,-117.81 459.85,-107.81 456.35,-117.81 463.35,-117.81"/>
</g>
<!-- 406&#45;&gt;308 -->
<g id="edge44" class="edge">
<title>406&#45;&gt;308</title>
<path fill="none" stroke="green" stroke-width="1.04" stroke-dasharray="1,5" d="M465.38,-183.76C469.01,-209.62 471.43,-255.97 470.99,-286.86"/>
<polygon fill="green" stroke="green" stroke-width="1.04" points="467.49,-286.6 470.7,-296.7 474.49,-286.8 467.49,-286.6"/>
</g>
<!-- 1021&#45;&gt;308 -->
<g id="edge55" class="edge">
<title>1021&#45;&gt;308</title>
<path fill="none" stroke="green" stroke-width="0.54" d="M788.54,-383.87C783.97,-380.78 778.93,-377.86 773.85,-375.87 665.66,-333.43 627.01,-370.33 514.85,-339.87 508.34,-338.1 501.54,-335.67 495.17,-333.11"/>
<polygon fill="green" stroke="green" stroke-width="0.54" points="496.94,-330.06 486.37,-329.39 494.21,-336.51 496.94,-330.06"/>
</g>
</g>
</svg>
