<?xml version="1.0" encoding="UTF-8" standalone="no"?>
<!DOCTYPE svg PUBLIC "-//W3C//DTD SVG 1.1//EN"
 "http://www.w3.org/Graphics/SVG/1.1/DTD/svg11.dtd">
<!-- Generated by graphviz version 12.1.1 (20240910.0053)
 -->
<!-- Pages: 1 -->
<svg width="991pt" height="506pt"
 viewBox="0.00 0.00 990.52 505.54" xmlns="http://www.w3.org/2000/svg" xmlns:xlink="http://www.w3.org/1999/xlink">
<g id="graph0" class="graph" transform="scale(1 1) rotate(0) translate(4 501.54)">
<polygon fill="white" stroke="none" points="-4,4 -4,-501.54 986.52,-501.54 986.52,4 -4,4"/>
<!-- &#45;1 -->
<g id="node1" class="node">
<title>&#45;1</title>
<polygon fill="lightgray" stroke="black" points="789.27,-176 765.77,-176 765.77,-157.5 789.27,-157.5 789.27,-176"/>
<text text-anchor="middle" x="777.52" y="-163.45" font-family="Times,serif" font-size="9.00">&#45;1</text>
</g>
<!-- 1 -->
<g id="node22" class="node">
<title>1</title>
<ellipse fill="lightblue" stroke="black" cx="604.52" cy="-85.85" rx="14.5" ry="14.5"/>
<text text-anchor="middle" x="604.52" y="-82.55" font-family="Times,serif" font-size="9.00">1</text>
</g>
<!-- &#45;1&#45;&gt;1 -->
<g id="edge39" class="edge">
<title>&#45;1&#45;&gt;1</title>
<path fill="none" stroke="red" stroke-width="0.11" d="M769.47,-157.23C764.62,-152.47 758.12,-146.71 751.52,-142.71 711.19,-118.31 658.4,-101.42 628.3,-93"/>
<polygon fill="red" stroke="red" stroke-width="0.11" points="629.37,-89.67 618.81,-90.42 627.54,-96.42 629.37,-89.67"/>
</g>
<!-- 4 -->
<g id="node25" class="node">
<title>4</title>
<ellipse fill="lightblue" stroke="black" cx="777.52" cy="-14.5" rx="14.5" ry="14.5"/>
<text text-anchor="middle" x="777.52" y="-11.2" font-family="Times,serif" font-size="9.00">4</text>
</g>
<!-- &#45;1&#45;&gt;4 -->
<g id="edge45" class="edge">
<title>&#45;1&#45;&gt;4</title>
<path fill="none" stroke="red" stroke-width="0.81" stroke-dasharray="1,5" d="M777.52,-157.24C777.52,-135.03 777.52,-74.64 777.52,-40.27"/>
<polygon fill="red" stroke="red" stroke-width="0.81" points="781.02,-40.55 777.52,-30.55 774.02,-40.55 781.02,-40.55"/>
</g>
<!-- &#45;2 -->
<g id="node2" class="node">
<title>&#45;2</title>
<polygon fill="lightgray" stroke="black" points="106.27,-428.25 82.77,-428.25 82.77,-409.75 106.27,-409.75 106.27,-428.25"/>
<text text-anchor="middle" x="94.52" y="-415.7" font-family="Times,serif" font-size="9.00">&#45;2</text>
</g>
<!-- 0 -->
<g id="node21" class="node">
<title>0</title>
<ellipse fill="lightblue" stroke="black" cx="351.52" cy="-14.5" rx="14.5" ry="14.5"/>
<text text-anchor="middle" x="351.52" y="-11.2" font-family="Times,serif" font-size="9.00">0</text>
</g>
<!-- &#45;2&#45;&gt;0 -->
<g id="edge40" class="edge">
<title>&#45;2&#45;&gt;0</title>
<path fill="none" stroke="red" stroke-width="0.55" stroke-dasharray="1,5" d="M92.85,-409.44C86.32,-373.38 65.65,-231.74 124.52,-142.71 172.96,-69.45 278.75,-34.09 326.84,-21.32"/>
<polygon fill="red" stroke="red" stroke-width="0.55" points="327.6,-24.74 336.42,-18.88 325.87,-17.96 327.6,-24.74"/>
</g>
<!-- 394 -->
<g id="node29" class="node">
<title>394</title>
<ellipse fill="white" stroke="black" cx="190.52" cy="-334.92" rx="20.86" ry="20.86"/>
<text text-anchor="middle" x="190.52" y="-331.62" font-family="Times,serif" font-size="9.00">394</text>
</g>
<!-- &#45;2&#45;&gt;394 -->
<g id="edge24" class="edge">
<title>&#45;2&#45;&gt;394</title>
<path fill="none" stroke="green" stroke-width="0.39" d="M101.59,-409.59C105.52,-405.08 110.6,-399.53 115.52,-394.96 131.34,-380.24 150.5,-365.2 165.5,-353.98"/>
<polygon fill="green" stroke="green" stroke-width="0.39" points="167.35,-356.96 173.31,-348.2 163.19,-351.33 167.35,-356.96"/>
</g>
<!-- &#45;3 -->
<g id="node3" class="node">
<title>&#45;3</title>
<polygon fill="lightgray" stroke="black" points="760.27,-497.54 736.77,-497.54 736.77,-479.04 760.27,-479.04 760.27,-497.54"/>
<text text-anchor="middle" x="748.52" y="-484.99" font-family="Times,serif" font-size="9.00">&#45;3</text>
</g>
<!-- &#45;4 -->
<g id="node4" class="node">
<title>&#45;4</title>
<polygon fill="lightgray" stroke="black" points="630.27,-260.09 606.77,-260.09 606.77,-241.59 630.27,-241.59 630.27,-260.09"/>
<text text-anchor="middle" x="618.52" y="-247.54" font-family="Times,serif" font-size="9.00">&#45;4</text>
</g>
<!-- 395 -->
<g id="node30" class="node">
<title>395</title>
<ellipse fill="white" stroke="black" cx="559.52" cy="-166.75" rx="20.86" ry="20.86"/>
<text text-anchor="middle" x="559.52" y="-163.45" font-family="Times,serif" font-size="9.00">395</text>
</g>
<!-- &#45;4&#45;&gt;395 -->
<g id="edge1" class="edge">
<title>&#45;4&#45;&gt;395</title>
<path fill="none" stroke="green" stroke-width="0.51" d="M612.43,-241.36C604.28,-230.02 589.48,-209.44 577.6,-192.91"/>
<polygon fill="green" stroke="green" stroke-width="0.51" points="580.49,-190.93 571.81,-184.85 574.81,-195.02 580.49,-190.93"/>
</g>
<!-- &#45;5 -->
<g id="node5" class="node">
<title>&#45;5</title>
<polygon fill="lightgray" stroke="black" points="478.27,-428.25 454.77,-428.25 454.77,-409.75 478.27,-409.75 478.27,-428.25"/>
<text text-anchor="middle" x="466.52" y="-415.7" font-family="Times,serif" font-size="9.00">&#45;5</text>
</g>
<!-- &#45;5&#45;&gt;394 -->
<g id="edge8" class="edge">
<title>&#45;5&#45;&gt;394</title>
<path fill="none" stroke="red" stroke-width="0.13" d="M454.47,-412.4C443.44,-407.4 426.61,-400.11 411.52,-394.96 344.5,-372.09 263.63,-352.44 220.72,-342.61"/>
<polygon fill="red" stroke="red" stroke-width="0.13" points="221.62,-339.23 211.1,-340.43 220.07,-346.06 221.62,-339.23"/>
</g>
<!-- &#45;5&#45;&gt;395 -->
<g id="edge19" class="edge">
<title>&#45;5&#45;&gt;395</title>
<path fill="none" stroke="green" stroke-width="0.36" stroke-dasharray="1,5" d="M468.55,-409.39C475.13,-382.03 497.19,-294.85 526.52,-226.79 531.31,-215.68 537.59,-203.94 543.38,-193.89"/>
<polygon fill="green" stroke="green" stroke-width="0.36" points="546.38,-195.69 548.46,-185.3 540.36,-192.14 546.38,-195.69"/>
</g>
<!-- &#45;6 -->
<g id="node6" class="node">
<title>&#45;6</title>
<polygon fill="lightgray" stroke="black" points="148.27,-428.25 124.77,-428.25 124.77,-409.75 148.27,-409.75 148.27,-428.25"/>
<text text-anchor="middle" x="136.52" y="-415.7" font-family="Times,serif" font-size="9.00">&#45;6</text>
</g>
<!-- &#45;6&#45;&gt;394 -->
<g id="edge20" class="edge">
<title>&#45;6&#45;&gt;394</title>
<path fill="none" stroke="green" stroke-width="0.43" stroke-dasharray="1,5" d="M142.09,-409.53C149.46,-398.33 162.77,-378.1 173.57,-361.68"/>
<polygon fill="green" stroke="green" stroke-width="0.43" points="176.33,-363.85 178.9,-353.58 170.48,-360.01 176.33,-363.85"/>
</g>
<!-- &#45;7 -->
<g id="node7" class="node">
<title>&#45;7</title>
<polygon fill="lightgray" stroke="black" points="802.27,-497.54 778.77,-497.54 778.77,-479.04 802.27,-479.04 802.27,-497.54"/>
<text text-anchor="middle" x="790.52" y="-484.99" font-family="Times,serif" font-size="9.00">&#45;7</text>
</g>
<!-- &#45;8 -->
<g id="node8" class="node">
<title>&#45;8</title>
<polygon fill="lightgray" stroke="black" points="634.27,-344.17 610.77,-344.17 610.77,-325.67 634.27,-325.67 634.27,-344.17"/>
<text text-anchor="middle" x="622.52" y="-331.62" font-family="Times,serif" font-size="9.00">&#45;8</text>
</g>
<!-- &#45;8&#45;&gt;395 -->
<g id="edge4" class="edge">
<title>&#45;8&#45;&gt;395</title>
<path fill="none" stroke="green" stroke-width="0.53" d="M618.63,-325.18C613.56,-313.72 604.53,-292.93 597.52,-274.88 587.37,-248.76 576.78,-218.65 569.37,-197.02"/>
<polygon fill="green" stroke="green" stroke-width="0.53" points="572.7,-195.94 566.16,-187.6 566.08,-198.19 572.7,-195.94"/>
</g>
<!-- 848 -->
<g id="node32" class="node">
<title>848</title>
<ellipse fill="white" stroke="black" cx="753.52" cy="-250.84" rx="20.86" ry="20.86"/>
<text text-anchor="middle" x="753.52" y="-247.54" font-family="Times,serif" font-size="9.00">848</text>
</g>
<!-- &#45;8&#45;&gt;848 -->
<g id="edge29" class="edge">
<title>&#45;8&#45;&gt;848</title>
<path fill="none" stroke="green" stroke-width="0.44" stroke-dasharray="1,5" d="M634.61,-326.34C655.55,-313.22 699.03,-285.98 727.21,-268.32"/>
<polygon fill="green" stroke="green" stroke-width="0.44" points="728.94,-271.37 735.55,-263.09 725.22,-265.44 728.94,-271.37"/>
</g>
<!-- &#45;9 -->
<g id="node9" class="node">
<title>&#45;9</title>
<polygon fill="lightgray" stroke="black" points="844.27,-497.54 820.77,-497.54 820.77,-479.04 844.27,-479.04 844.27,-497.54"/>
<text text-anchor="middle" x="832.52" y="-484.99" font-family="Times,serif" font-size="9.00">&#45;9</text>
</g>
<!-- &#45;10 -->
<g id="node10" class="node">
<title>&#45;10</title>
<polygon fill="lightgray" stroke="black" points="402.52,-428.25 374.52,-428.25 374.52,-409.75 402.52,-409.75 402.52,-428.25"/>
<text text-anchor="middle" x="388.52" y="-415.7" font-family="Times,serif" font-size="9.00">&#45;10</text>
</g>
<!-- 1411 -->
<g id="node26" class="node">
<title>1411</title>
<ellipse fill="white" stroke="black" cx="366.52" cy="-250.84" rx="24.04" ry="24.04"/>
<text text-anchor="middle" x="366.52" y="-247.54" font-family="Times,serif" font-size="9.00">1411</text>
</g>
<!-- &#45;10&#45;&gt;1411 -->
<g id="edge33" class="edge">
<title>&#45;10&#45;&gt;1411</title>
<path fill="none" stroke="red" stroke-width="0.43" d="M387.4,-409.53C384.41,-386.98 376.14,-324.54 370.95,-285.33"/>
<polygon fill="red" stroke="red" stroke-width="0.43" points="374.44,-285.03 369.66,-275.58 367.5,-285.95 374.44,-285.03"/>
</g>
<!-- &#45;10&#45;&gt;394 -->
<g id="edge7" class="edge">
<title>&#45;10&#45;&gt;394</title>
<path fill="none" stroke="green" stroke-width="0.29" stroke-dasharray="1,5" d="M380.38,-409.69C375.12,-404.77 367.91,-398.76 360.52,-394.96 305.28,-366.58 282.18,-384.36 225.52,-358.96 222.23,-357.49 218.91,-355.72 215.68,-353.83"/>
<polygon fill="green" stroke="green" stroke-width="0.29" points="217.67,-350.95 207.35,-348.56 213.93,-356.86 217.67,-350.95"/>
</g>
<!-- 396 -->
<g id="node31" class="node">
<title>396</title>
<ellipse fill="white" stroke="black" cx="351.52" cy="-85.85" rx="20.86" ry="20.86"/>
<text text-anchor="middle" x="351.52" y="-82.55" font-family="Times,serif" font-size="9.00">396</text>
</g>
<!-- &#45;10&#45;&gt;396 -->
<g id="edge31" class="edge">
<title>&#45;10&#45;&gt;396</title>
<path fill="none" stroke="green" stroke-width="0.37" stroke-dasharray="1,5" d="M377.94,-409.3C342.03,-379.69 226.8,-284.22 222.52,-274.88 197.71,-220.74 207.41,-189.28 244.52,-142.71 264.06,-118.19 297.31,-103.25 321.57,-95.07"/>
<polygon fill="green" stroke="green" stroke-width="0.37" points="322.34,-98.49 330.82,-92.13 320.23,-91.82 322.34,-98.49"/>
</g>
<!-- 2741 -->
<g id="node34" class="node">
<title>2741</title>
<ellipse fill="white" stroke="black" cx="418.52" cy="-334.92" rx="24.04" ry="24.04"/>
<text text-anchor="middle" x="418.52" y="-331.62" font-family="Times,serif" font-size="9.00">2741</text>
</g>
<!-- &#45;10&#45;&gt;2741 -->
<g id="edge47" class="edge">
<title>&#45;10&#45;&gt;2741</title>
<path fill="none" stroke="green" stroke-width="0.42" d="M391.62,-409.53C395.23,-399.65 401.4,-382.74 406.93,-367.62"/>
<polygon fill="green" stroke="green" stroke-width="0.42" points="410.07,-369.23 410.22,-358.63 403.5,-366.82 410.07,-369.23"/>
</g>
<!-- &#45;11 -->
<g id="node11" class="node">
<title>&#45;11</title>
<polygon fill="lightgray" stroke="black" points="890.52,-497.54 862.52,-497.54 862.52,-479.04 890.52,-479.04 890.52,-497.54"/>
<text text-anchor="middle" x="876.52" y="-484.99" font-family="Times,serif" font-size="9.00">&#45;11</text>
</g>
<!-- &#45;12 -->
<g id="node12" class="node">
<title>&#45;12</title>
<polygon fill="lightgray" stroke="black" points="718.52,-497.54 690.52,-497.54 690.52,-479.04 718.52,-479.04 718.52,-497.54"/>
<text text-anchor="middle" x="704.52" y="-484.99" font-family="Times,serif" font-size="9.00">&#45;12</text>
</g>
<!-- &#45;12&#45;&gt;394 -->
<g id="edge6" class="edge">
<title>&#45;12&#45;&gt;394</title>
<path fill="none" stroke="red" stroke-width="0.26" d="M690.05,-486.84C632.8,-484.83 422.44,-475.32 365.52,-443.04 341.82,-429.61 349.68,-410.8 327.52,-394.96 288.41,-367 268.58,-380.34 225.52,-358.96 222.29,-357.36 219.01,-355.52 215.8,-353.58"/>
<polygon fill="red" stroke="red" stroke-width="0.26" points="217.75,-350.68 207.44,-348.24 213.98,-356.57 217.75,-350.68"/>
</g>
<!-- &#45;12&#45;&gt;395 -->
<g id="edge10" class="edge">
<title>&#45;12&#45;&gt;395</title>
<path fill="none" stroke="green" stroke-width="0.43" stroke-dasharray="1,5" d="M705.02,-478.61C707.2,-438.2 714.44,-268.82 685.52,-226.79 663.69,-195.07 620.18,-179.96 590.46,-173.07"/>
<polygon fill="green" stroke="green" stroke-width="0.43" points="591.35,-169.68 580.84,-171.03 589.89,-176.53 591.35,-169.68"/>
</g>
<!-- &#45;12&#45;&gt;396 -->
<g id="edge25" class="edge">
<title>&#45;12&#45;&gt;396</title>
<path fill="none" stroke="red" stroke-width="0.18" stroke-dasharray="1,5" d="M711.76,-478.91C740.32,-444.81 840.83,-314.11 783.52,-226.79 737.79,-157.14 473.05,-107.1 382.15,-91.77"/>
<polygon fill="red" stroke="red" stroke-width="0.18" points="382.9,-88.35 372.46,-90.16 381.75,-95.26 382.9,-88.35"/>
</g>
<!-- &#45;12&#45;&gt;848 -->
<g id="edge32" class="edge">
<title>&#45;12&#45;&gt;848</title>
<path fill="none" stroke="green" stroke-width="0.15" d="M707.64,-478.57C710.72,-469.71 715.41,-455.55 718.52,-443.04 732.55,-386.62 743.55,-319.53 749.24,-281.69"/>
<polygon fill="green" stroke="green" stroke-width="0.15" points="752.67,-282.45 750.67,-272.05 745.74,-281.43 752.67,-282.45"/>
</g>
<!-- 2043 -->
<g id="node35" class="node">
<title>2043</title>
<ellipse fill="white" stroke="black" cx="294.52" cy="-419" rx="24.04" ry="24.04"/>
<text text-anchor="middle" x="294.52" y="-415.7" font-family="Times,serif" font-size="9.00">2043</text>
</g>
<!-- &#45;12&#45;&gt;2043 -->
<g id="edge43" class="edge">
<title>&#45;12&#45;&gt;2043</title>
<path fill="none" stroke="green" stroke-width="0.17" stroke-dasharray="1,5" d="M690.19,-487.73C639.66,-488.84 465.65,-488.9 332.52,-443.04 329.21,-441.9 325.88,-440.44 322.64,-438.81"/>
<polygon fill="green" stroke="green" stroke-width="0.17" points="324.49,-435.84 314.06,-434.01 321.08,-441.95 324.49,-435.84"/>
</g>
<!-- &#45;13 -->
<g id="node13" class="node">
<title>&#45;13</title>
<polygon fill="lightgray" stroke="black" points="230.52,-497.54 202.52,-497.54 202.52,-479.04 230.52,-479.04 230.52,-497.54"/>
<text text-anchor="middle" x="216.52" y="-484.99" font-family="Times,serif" font-size="9.00">&#45;13</text>
</g>
<!-- 2885 -->
<g id="node27" class="node">
<title>2885</title>
<ellipse fill="white" stroke="black" cx="190.52" cy="-419" rx="24.04" ry="24.04"/>
<text text-anchor="middle" x="190.52" y="-415.7" font-family="Times,serif" font-size="9.00">2885</text>
</g>
<!-- &#45;13&#45;&gt;2885 -->
<g id="edge50" class="edge">
<title>&#45;13&#45;&gt;2885</title>
<path fill="none" stroke="green" stroke-width="0.13" d="M213.23,-478.77C210.53,-471.8 206.55,-461.49 202.67,-451.45"/>
<polygon fill="green" stroke="green" stroke-width="0.13" points="205.96,-450.27 199.1,-442.2 199.43,-452.79 205.96,-450.27"/>
</g>
<!-- &#45;13&#45;&gt;394 -->
<g id="edge15" class="edge">
<title>&#45;13&#45;&gt;394</title>
<path fill="none" stroke="red" stroke-width="0.46" stroke-dasharray="1,5" d="M218.93,-478.98C223.31,-462.6 231.38,-425.14 223.52,-394.96 220.42,-383.08 214.35,-371.05 208.25,-360.98"/>
<polygon fill="red" stroke="red" stroke-width="0.46" points="211.21,-359.11 202.86,-352.58 205.31,-362.89 211.21,-359.11"/>
</g>
<!-- &#45;13&#45;&gt;395 -->
<g id="edge2" class="edge">
<title>&#45;13&#45;&gt;395</title>
<path fill="none" stroke="green" stroke-width="0.22" d="M230.81,-486.95C281.14,-485.45 449.27,-477.86 487.52,-443.04 557.88,-379 563.12,-255.52 561.4,-198.27"/>
<polygon fill="green" stroke="green" stroke-width="0.22" points="564.91,-198.25 561.01,-188.4 557.91,-198.53 564.91,-198.25"/>
</g>
<!-- &#45;13&#45;&gt;396 -->
<g id="edge52" class="edge">
<title>&#45;13&#45;&gt;396</title>
<path fill="none" stroke="red" stroke-width="0.48" d="M202.07,-487.89C172.2,-488.24 103.9,-484.25 73.52,-443.04 21.07,-371.92 -83.94,-360.07 124.52,-142.71 151.38,-114.7 264.8,-97.37 320.45,-90.39"/>
<polygon fill="red" stroke="red" stroke-width="0.48" points="320.54,-93.9 330.05,-89.22 319.7,-86.95 320.54,-93.9"/>
</g>
<!-- &#45;14 -->
<g id="node14" class="node">
<title>&#45;14</title>
<polygon fill="lightgray" stroke="black" points="436.52,-260.09 408.52,-260.09 408.52,-241.59 436.52,-241.59 436.52,-260.09"/>
<text text-anchor="middle" x="422.52" y="-247.54" font-family="Times,serif" font-size="9.00">&#45;14</text>
</g>
<!-- &#45;14&#45;&gt;395 -->
<g id="edge16" class="edge">
<title>&#45;14&#45;&gt;395</title>
<path fill="none" stroke="green" stroke-width="0.23" d="M432.01,-241.25C437.27,-236.7 444.04,-231.15 450.52,-226.79 476.92,-209.02 509.19,-192.08 531.74,-180.94"/>
<polygon fill="green" stroke="green" stroke-width="0.23" points="533,-184.22 540.45,-176.69 529.93,-177.93 533,-184.22"/>
</g>
<!-- &#45;14&#45;&gt;396 -->
<g id="edge21" class="edge">
<title>&#45;14&#45;&gt;396</title>
<path fill="none" stroke="red" stroke-width="0.23" stroke-dasharray="1,5" d="M418.9,-241.53C408.86,-218.48 380.31,-152.95 363.77,-114.99"/>
<polygon fill="red" stroke="red" stroke-width="0.23" points="366.99,-113.6 359.79,-105.83 360.57,-116.4 366.99,-113.6"/>
</g>
<!-- &#45;15 -->
<g id="node15" class="node">
<title>&#45;15</title>
<polygon fill="lightgray" stroke="black" points="445.52,-176 417.52,-176 417.52,-157.5 445.52,-157.5 445.52,-176"/>
<text text-anchor="middle" x="431.52" y="-163.45" font-family="Times,serif" font-size="9.00">&#45;15</text>
</g>
<!-- &#45;15&#45;&gt;396 -->
<g id="edge18" class="edge">
<title>&#45;15&#45;&gt;396</title>
<path fill="none" stroke="green" stroke-width="0.79" d="M422.65,-157.01C411.01,-145.53 390.17,-124.97 374.04,-109.06"/>
<polygon fill="green" stroke="green" stroke-width="0.79" points="376.54,-106.62 366.97,-102.09 371.63,-111.6 376.54,-106.62"/>
</g>
<!-- &#45;16 -->
<g id="node16" class="node">
<title>&#45;16</title>
<polygon fill="lightgray" stroke="black" points="259.52,-260.09 231.52,-260.09 231.52,-241.59 259.52,-241.59 259.52,-260.09"/>
<text text-anchor="middle" x="245.52" y="-247.54" font-family="Times,serif" font-size="9.00">&#45;16</text>
</g>
<!-- 1639 -->
<g id="node28" class="node">
<title>1639</title>
<ellipse fill="white" stroke="black" cx="299.52" cy="-166.75" rx="24.04" ry="24.04"/>
<text text-anchor="middle" x="299.52" y="-163.45" font-family="Times,serif" font-size="9.00">1639</text>
</g>
<!-- &#45;16&#45;&gt;1639 -->
<g id="edge35" class="edge">
<title>&#45;16&#45;&gt;1639</title>
<path fill="none" stroke="green" stroke-width="0.54" stroke-dasharray="1,5" d="M251.09,-241.36C258.03,-230.81 270.24,-212.26 280.66,-196.42"/>
<polygon fill="green" stroke="green" stroke-width="0.54" points="283.51,-198.45 286.08,-188.18 277.66,-194.61 283.51,-198.45"/>
</g>
<!-- &#45;16&#45;&gt;395 -->
<g id="edge17" class="edge">
<title>&#45;16&#45;&gt;395</title>
<path fill="none" stroke="green" stroke-width="0.33" d="M251.8,-241.23C255.96,-236.19 261.87,-230.17 268.52,-226.79 361.54,-179.53 399.76,-217.93 500.52,-190.79 510.68,-188.06 521.5,-184.14 531.05,-180.32"/>
<polygon fill="green" stroke="green" stroke-width="0.33" points="532.11,-183.67 540.01,-176.61 529.43,-177.2 532.11,-183.67"/>
</g>
<!-- &#45;16&#45;&gt;396 -->
<g id="edge5" class="edge">
<title>&#45;16&#45;&gt;396</title>
<path fill="none" stroke="green" stroke-width="0.16" d="M245.06,-241.22C244.45,-221.86 245.38,-174.18 266.52,-142.71 280.16,-122.4 303.95,-107.71 322.89,-98.5"/>
<polygon fill="green" stroke="green" stroke-width="0.16" points="324.16,-101.77 331.78,-94.41 321.23,-95.41 324.16,-101.77"/>
</g>
<!-- 2002 -->
<g id="node33" class="node">
<title>2002</title>
<ellipse fill="white" stroke="black" cx="157.52" cy="-166.75" rx="24.04" ry="24.04"/>
<text text-anchor="middle" x="157.52" y="-163.45" font-family="Times,serif" font-size="9.00">2002</text>
</g>
<!-- &#45;16&#45;&gt;2002 -->
<g id="edge41" class="edge">
<title>&#45;16&#45;&gt;2002</title>
<path fill="none" stroke="green" stroke-width="0.55" d="M236.43,-241.36C223.86,-229.64 200.69,-208.02 182.7,-191.24"/>
<polygon fill="green" stroke="green" stroke-width="0.55" points="185.16,-188.75 175.46,-184.49 180.39,-193.87 185.16,-188.75"/>
</g>
<!-- &#45;17 -->
<g id="node17" class="node">
<title>&#45;17</title>
<polygon fill="lightgray" stroke="black" points="936.52,-497.54 908.52,-497.54 908.52,-479.04 936.52,-479.04 936.52,-497.54"/>
<text text-anchor="middle" x="922.52" y="-484.99" font-family="Times,serif" font-size="9.00">&#45;17</text>
</g>
<!-- &#45;18 -->
<g id="node18" class="node">
<title>&#45;18</title>
<polygon fill="lightgray" stroke="black" points="491.52,-176 463.52,-176 463.52,-157.5 491.52,-157.5 491.52,-176"/>
<text text-anchor="middle" x="477.52" y="-163.45" font-family="Times,serif" font-size="9.00">&#45;18</text>
</g>
<!-- &#45;18&#45;&gt;396 -->
<g id="edge27" class="edge">
<title>&#45;18&#45;&gt;396</title>
<path fill="none" stroke="red" stroke-width="0.14" d="M469.96,-157.04C465.7,-152.44 460.13,-146.91 454.52,-142.71 430.92,-125.08 401.06,-109.52 379.57,-99.33"/>
<polygon fill="red" stroke="red" stroke-width="0.14" points="381.08,-96.17 370.54,-95.13 378.13,-102.52 381.08,-96.17"/>
</g>
<!-- &#45;19 -->
<g id="node19" class="node">
<title>&#45;19</title>
<polygon fill="lightgray" stroke="black" points="676.52,-260.09 648.52,-260.09 648.52,-241.59 676.52,-241.59 676.52,-260.09"/>
<text text-anchor="middle" x="662.52" y="-247.54" font-family="Times,serif" font-size="9.00">&#45;19</text>
</g>
<!-- &#45;19&#45;&gt;395 -->
<g id="edge28" class="edge">
<title>&#45;19&#45;&gt;395</title>
<path fill="none" stroke="green" stroke-width="0.53" d="M654.71,-241.42C650.39,-236.92 644.83,-231.37 639.52,-226.79 622.24,-211.91 601.5,-196.67 585.46,-185.4"/>
<polygon fill="green" stroke="green" stroke-width="0.53" points="587.49,-182.55 577.28,-179.72 583.5,-188.3 587.49,-182.55"/>
</g>
<!-- &#45;20 -->
<g id="node20" class="node">
<title>&#45;20</title>
<polygon fill="lightgray" stroke="black" points="982.52,-497.54 954.52,-497.54 954.52,-479.04 982.52,-479.04 982.52,-497.54"/>
<text text-anchor="middle" x="968.52" y="-484.99" font-family="Times,serif" font-size="9.00">&#45;20</text>
</g>
<!-- 0&#45;&gt;0 -->
<g id="edge23" class="edge">
<title>0&#45;&gt;0</title>
<path fill="none" stroke="green" stroke-width="1.1" stroke-dasharray="1,5" d="M361.83,-24.94C372.33,-31.08 384.01,-27.6 384.01,-14.5 384.01,-6.1 379.22,-1.66 373.01,-1.16"/>
<polygon fill="green" stroke="green" stroke-width="1.1" points="372.25,2.25 363.45,-3.64 374,-4.52 372.25,2.25"/>
</g>
<!-- 2 -->
<g id="node23" class="node">
<title>2</title>
<ellipse fill="lightblue" stroke="black" cx="291.52" cy="-250.84" rx="14.5" ry="14.5"/>
<text text-anchor="middle" x="291.52" y="-247.54" font-family="Times,serif" font-size="9.00">2</text>
</g>
<!-- 2&#45;&gt;2 -->
<g id="edge22" class="edge">
<title>2&#45;&gt;2</title>
<path fill="none" stroke="green" stroke-width="0.1" d="M300.83,-262.41C311.57,-270.62 324.01,-266.77 324.01,-250.84 324.01,-239.39 317.59,-234.17 309.98,-235.2"/>
<polygon fill="green" stroke="green" stroke-width="0.1" points="308.69,-231.94 300.98,-239.2 311.53,-238.34 308.69,-231.94"/>
</g>
<!-- 2&#45;&gt;1639 -->
<g id="edge37" class="edge">
<title>2&#45;&gt;1639</title>
<path fill="none" stroke="red" stroke-width="0.21" d="M292.88,-235.91C293.81,-226.33 295.09,-213.19 296.28,-201"/>
<polygon fill="red" stroke="red" stroke-width="0.21" points="299.73,-201.69 297.21,-191.4 292.76,-201.01 299.73,-201.69"/>
</g>
<!-- 3 -->
<g id="node24" class="node">
<title>3</title>
<ellipse fill="lightblue" stroke="black" cx="158.52" cy="-250.84" rx="14.5" ry="14.5"/>
<text text-anchor="middle" x="158.52" y="-247.54" font-family="Times,serif" font-size="9.00">3</text>
</g>
<!-- 3&#45;&gt;2002 -->
<g id="edge46" class="edge">
<title>3&#45;&gt;2002</title>
<path fill="none" stroke="red" stroke-width="0.2" stroke-dasharray="1,5" d="M158.35,-235.91C158.23,-226.43 158.07,-213.45 157.93,-201.37"/>
<polygon fill="red" stroke="red" stroke-width="0.2" points="161.43,-201.35 157.81,-191.39 154.43,-201.43 161.43,-201.35"/>
</g>
<!-- 1411&#45;&gt;396 -->
<g id="edge34" class="edge">
<title>1411&#45;&gt;396</title>
<path fill="none" stroke="green" stroke-width="0.22" stroke-dasharray="1,5" d="M364.37,-226.48C361.72,-197.7 357.21,-148.72 354.3,-117.08"/>
<polygon fill="green" stroke="green" stroke-width="0.22" points="357.81,-117.04 353.41,-107.4 350.84,-117.68 357.81,-117.04"/>
</g>
<!-- 2885&#45;&gt;394 -->
<g id="edge51" class="edge">
<title>2885&#45;&gt;394</title>
<path fill="none" stroke="green" stroke-width="0.27" d="M190.52,-394.7C190.52,-385.88 190.52,-375.72 190.52,-366.34"/>
<polygon fill="green" stroke="green" stroke-width="0.27" points="194.02,-366.61 190.52,-356.62 187.02,-366.62 194.02,-366.61"/>
</g>
<!-- 1639&#45;&gt;396 -->
<g id="edge36" class="edge">
<title>1639&#45;&gt;396</title>
<path fill="none" stroke="green" stroke-width="0.7" stroke-dasharray="1,5" d="M312.37,-146.25C319.02,-136.15 327.24,-123.7 334.42,-112.8"/>
<polygon fill="green" stroke="green" stroke-width="0.7" points="337.24,-114.88 339.82,-104.6 331.39,-111.03 337.24,-114.88"/>
</g>
<!-- 394&#45;&gt;2 -->
<g id="edge14" class="edge">
<title>394&#45;&gt;2</title>
<path fill="none" stroke="green" stroke-width="0.14" stroke-dasharray="1,5" d="M207.47,-322.12C223.64,-310.64 248.42,-292.4 268.52,-274.88 270.67,-273 272.88,-270.96 275.02,-268.9"/>
<polygon fill="green" stroke="green" stroke-width="0.14" points="277.18,-271.69 281.81,-262.16 272.25,-266.73 277.18,-271.69"/>
</g>
<!-- 394&#45;&gt;3 -->
<g id="edge9" class="edge">
<title>394&#45;&gt;3</title>
<path fill="none" stroke="green" stroke-width="0.33" d="M183.26,-315.29C178.51,-303.13 172.29,-287.17 167.27,-274.3"/>
<polygon fill="green" stroke="green" stroke-width="0.33" points="170.63,-273.28 163.74,-265.23 164.11,-275.82 170.63,-273.28"/>
</g>
<!-- 395&#45;&gt;0 -->
<g id="edge3" class="edge">
<title>395&#45;&gt;0</title>
<path fill="none" stroke="red" stroke-width="0.34" d="M542.85,-153.71C504.94,-126.32 412.39,-59.47 371.5,-29.93"/>
<polygon fill="red" stroke="red" stroke-width="0.34" points="373.73,-27.22 363.57,-24.2 369.63,-32.9 373.73,-27.22"/>
</g>
<!-- 395&#45;&gt;1 -->
<g id="edge12" class="edge">
<title>395&#45;&gt;1</title>
<path fill="none" stroke="green" stroke-width="0.23" stroke-dasharray="1,5" d="M569.5,-148.24C576.36,-136.23 585.47,-120.24 592.69,-107.59"/>
<polygon fill="green" stroke="green" stroke-width="0.23" points="595.68,-109.41 597.59,-98.99 589.6,-105.94 595.68,-109.41"/>
</g>
<!-- 396&#45;&gt;0 -->
<g id="edge13" class="edge">
<title>396&#45;&gt;0</title>
<path fill="none" stroke="green" stroke-width="0.3" stroke-dasharray="1,5" d="M351.52,-64.79C351.52,-56.98 351.52,-47.96 351.52,-39.78"/>
<polygon fill="green" stroke="green" stroke-width="0.3" points="355.02,-39.81 351.52,-29.81 348.02,-39.81 355.02,-39.81"/>
</g>
<!-- 396&#45;&gt;4 -->
<g id="edge11" class="edge">
<title>396&#45;&gt;4</title>
<path fill="none" stroke="green" stroke-width="0.47" stroke-dasharray="1,5" d="M372.35,-81.46C443.38,-69.9 675.84,-32.05 752.64,-19.55"/>
<polygon fill="green" stroke="green" stroke-width="0.47" points="753.18,-23 762.49,-17.94 752.06,-16.1 753.18,-23"/>
</g>
<!-- 396&#45;&gt;396 -->
<g id="edge26" class="edge">
<title>396&#45;&gt;396</title>
<path fill="none" stroke="green" stroke-width="0.36" stroke-dasharray="1,5" d="M368.7,-98.17C379.75,-101.39 390.38,-97.28 390.38,-85.85 390.38,-78.17 385.58,-73.8 379.08,-72.73"/>
<polygon fill="green" stroke="green" stroke-width="0.36" points="378.94,-69.23 369.24,-73.49 379.48,-76.21 378.94,-69.23"/>
</g>
<!-- 848&#45;&gt;4 -->
<g id="edge38" class="edge">
<title>848&#45;&gt;4</title>
<path fill="none" stroke="red" stroke-width="0.62" stroke-dasharray="1,5" d="M768.41,-235.92C779.08,-224.86 792.58,-208.38 798.52,-190.79 816.3,-138.12 798.35,-72.09 786.37,-38.07"/>
<polygon fill="red" stroke="red" stroke-width="0.62" points="789.8,-37.26 783.06,-29.09 783.23,-39.68 789.8,-37.26"/>
</g>
<!-- 848&#45;&gt;395 -->
<g id="edge30" class="edge">
<title>848&#45;&gt;395</title>
<path fill="none" stroke="green" stroke-width="0.12" stroke-dasharray="1,5" d="M736.89,-237.78C731.23,-233.98 724.75,-229.95 718.52,-226.79 675.19,-204.85 621.69,-186.67 589.11,-176.52"/>
<polygon fill="green" stroke="green" stroke-width="0.12" points="590.47,-173.27 579.89,-173.68 588.42,-179.97 590.47,-173.27"/>
</g>
<!-- 2002&#45;&gt;396 -->
<g id="edge42" class="edge">
<title>2002&#45;&gt;396</title>
<path fill="none" stroke="green" stroke-width="0.25" stroke-dasharray="1,5" d="M177.21,-152.78C182.98,-149.26 189.39,-145.63 195.52,-142.71 237.94,-122.51 289.73,-105.35 321.66,-95.57"/>
<polygon fill="green" stroke="green" stroke-width="0.25" points="322.38,-99.01 330.94,-92.77 320.36,-92.31 322.38,-99.01"/>
</g>
<!-- 2741&#45;&gt;1411 -->
<g id="edge48" class="edge">
<title>2741&#45;&gt;1411</title>
<path fill="none" stroke="green" stroke-width="0.33" d="M405.93,-314.05C399.53,-303.94 391.63,-291.47 384.59,-280.36"/>
<polygon fill="green" stroke="green" stroke-width="0.33" points="387.75,-278.81 379.44,-272.23 381.83,-282.55 387.75,-278.81"/>
</g>
<!-- 2741&#45;&gt;395 -->
<g id="edge49" class="edge">
<title>2741&#45;&gt;395</title>
<path fill="none" stroke="red" stroke-width="0.11" d="M429.52,-313.31C442.1,-290.75 464.13,-254.16 488.52,-226.79 502.25,-211.39 520.12,-196.54 534.5,-185.6"/>
<polygon fill="red" stroke="red" stroke-width="0.11" points="536.45,-188.51 542.37,-179.72 532.27,-182.9 536.45,-188.51"/>
</g>
<!-- 2043&#45;&gt;394 -->
<g id="edge44" class="edge">
<title>2043&#45;&gt;394</title>
<path fill="none" stroke="green" stroke-width="0.16" stroke-dasharray="1,5" d="M275.92,-403.33C258.72,-389.75 233.06,-369.5 214.36,-354.74"/>
<polygon fill="green" stroke="green" stroke-width="0.16" points="216.77,-352.18 206.76,-348.74 212.44,-357.68 216.77,-352.18"/>
</g>
</g>
</svg>
