<?xml version="1.0" encoding="UTF-8" standalone="no"?>
<!DOCTYPE svg PUBLIC "-//W3C//DTD SVG 1.1//EN"
 "http://www.w3.org/Graphics/SVG/1.1/DTD/svg11.dtd">
<!-- Generated by graphviz version 12.1.1 (20240910.0053)
 -->
<!-- Pages: 1 -->
<svg width="1192pt" height="619pt"
 viewBox="0.00 0.00 1192.14 619.21" xmlns="http://www.w3.org/2000/svg" xmlns:xlink="http://www.w3.org/1999/xlink">
<g id="graph0" class="graph" transform="scale(1 1) rotate(0) translate(4 615.21)">
<polygon fill="white" stroke="none" points="-4,4 -4,-615.21 1188.14,-615.21 1188.14,4 -4,4"/>
<!-- &#45;1 -->
<g id="node1" class="node">
<title>&#45;1</title>
<polygon fill="lightgray" stroke="black" points="533.89,-447.34 510.39,-447.34 510.39,-428.84 533.89,-428.84 533.89,-447.34"/>
<text text-anchor="middle" x="522.14" y="-434.79" font-family="Times,serif" font-size="9.00">&#45;1</text>
</g>
<!-- 4 -->
<g id="node25" class="node">
<title>4</title>
<ellipse fill="lightblue" stroke="black" cx="387.14" cy="-354.01" rx="14.5" ry="14.5"/>
<text text-anchor="middle" x="387.14" y="-350.71" font-family="Times,serif" font-size="9.00">4</text>
</g>
<!-- &#45;1&#45;&gt;4 -->
<g id="edge21" class="edge">
<title>&#45;1&#45;&gt;4</title>
<path fill="none" stroke="red" stroke-width="0.22" d="M513.42,-428.45C508.56,-423.88 502.27,-418.34 496.14,-414.05 467.73,-394.16 431.89,-375.92 409.24,-365.13"/>
<polygon fill="red" stroke="red" stroke-width="0.22" points="410.95,-362.06 400.41,-360.99 407.98,-368.4 410.95,-362.06"/>
</g>
<!-- 52 -->
<g id="node34" class="node">
<title>52</title>
<ellipse fill="white" stroke="black" cx="623.14" cy="-17.68" rx="17.68" ry="17.68"/>
<text text-anchor="middle" x="623.14" y="-14.38" font-family="Times,serif" font-size="9.00">52</text>
</g>
<!-- &#45;1&#45;&gt;52 -->
<g id="edge8" class="edge">
<title>&#45;1&#45;&gt;52</title>
<path fill="none" stroke="green" stroke-width="0.64" stroke-dasharray="1,5" d="M528.98,-428.41C532.85,-423.83 537.94,-418.29 543.14,-414.05 583.8,-380.98 720.18,-339.5 746.14,-293.97 796.53,-205.62 754.68,-152.33 693.14,-71.36 680.91,-55.26 662.52,-41.68 647.65,-32.34"/>
<polygon fill="green" stroke="green" stroke-width="0.64" points="649.69,-29.49 639.32,-27.33 646.09,-35.49 649.69,-29.49"/>
</g>
<!-- &#45;2 -->
<g id="node2" class="node">
<title>&#45;2</title>
<polygon fill="lightgray" stroke="black" points="865.89,-531.43 842.39,-531.43 842.39,-512.93 865.89,-512.93 865.89,-531.43"/>
<text text-anchor="middle" x="854.14" y="-518.88" font-family="Times,serif" font-size="9.00">&#45;2</text>
</g>
<!-- 7194 -->
<g id="node28" class="node">
<title>7194</title>
<ellipse fill="white" stroke="black" cx="802.14" cy="-438.09" rx="24.04" ry="24.04"/>
<text text-anchor="middle" x="802.14" y="-434.79" font-family="Times,serif" font-size="9.00">7194</text>
</g>
<!-- &#45;2&#45;&gt;7194 -->
<g id="edge35" class="edge">
<title>&#45;2&#45;&gt;7194</title>
<path fill="none" stroke="green" stroke-width="0.35" d="M848.77,-512.7C842.03,-502.06 830.12,-483.26 820.02,-467.32"/>
<polygon fill="green" stroke="green" stroke-width="0.35" points="823.23,-465.85 814.92,-459.27 817.32,-469.59 823.23,-465.85"/>
</g>
<!-- 51 -->
<g id="node33" class="node">
<title>51</title>
<ellipse fill="white" stroke="black" cx="776.14" cy="-354.01" rx="17.68" ry="17.68"/>
<text text-anchor="middle" x="776.14" y="-350.71" font-family="Times,serif" font-size="9.00">51</text>
</g>
<!-- &#45;2&#45;&gt;51 -->
<g id="edge5" class="edge">
<title>&#45;2&#45;&gt;51</title>
<path fill="none" stroke="red" stroke-width="0.26" d="M854.32,-512.57C854.36,-493.63 852.51,-447.39 835.14,-414.05 826.35,-397.18 811.07,-382.09 798.26,-371.39"/>
<polygon fill="red" stroke="red" stroke-width="0.26" points="800.59,-368.78 790.6,-365.26 796.22,-374.24 800.59,-368.78"/>
</g>
<!-- 8279 -->
<g id="node40" class="node">
<title>8279</title>
<ellipse fill="white" stroke="black" cx="1094.14" cy="-438.09" rx="24.04" ry="24.04"/>
<text text-anchor="middle" x="1094.14" y="-434.79" font-family="Times,serif" font-size="9.00">8279</text>
</g>
<!-- &#45;2&#45;&gt;8279 -->
<g id="edge47" class="edge">
<title>&#45;2&#45;&gt;8279</title>
<path fill="none" stroke="red" stroke-width="0.34" d="M866.31,-519.17C899.05,-513.45 991.27,-495.34 1061.14,-462.14 1063.14,-461.19 1065.15,-460.12 1067.14,-458.97"/>
<polygon fill="red" stroke="red" stroke-width="0.34" points="1068.59,-462.2 1075.17,-453.9 1064.85,-456.28 1068.59,-462.2"/>
</g>
<!-- &#45;3 -->
<g id="node3" class="node">
<title>&#45;3</title>
<polygon fill="lightgray" stroke="black" points="1051.89,-447.34 1028.39,-447.34 1028.39,-428.84 1051.89,-428.84 1051.89,-447.34"/>
<text text-anchor="middle" x="1040.14" y="-434.79" font-family="Times,serif" font-size="9.00">&#45;3</text>
</g>
<!-- 6688 -->
<g id="node29" class="node">
<title>6688</title>
<ellipse fill="white" stroke="black" cx="938.14" cy="-354.01" rx="24.04" ry="24.04"/>
<text text-anchor="middle" x="938.14" y="-350.71" font-family="Times,serif" font-size="9.00">6688</text>
</g>
<!-- &#45;3&#45;&gt;6688 -->
<g id="edge29" class="edge">
<title>&#45;3&#45;&gt;6688</title>
<path fill="none" stroke="red" stroke-width="0.38" d="M1030.64,-428.41C1025.77,-424.03 1019.71,-418.68 1014.14,-414.05 998.24,-400.85 979.95,-386.62 965.31,-375.44"/>
<polygon fill="red" stroke="red" stroke-width="0.38" points="967.68,-372.84 957.6,-369.58 963.45,-378.42 967.68,-372.84"/>
</g>
<!-- &#45;3&#45;&gt;52 -->
<g id="edge2" class="edge">
<title>&#45;3&#45;&gt;52</title>
<path fill="none" stroke="green" stroke-width="0.28" d="M1034.95,-428.62C1019.75,-403.83 976.08,-333.07 971.14,-329.97 860.79,-260.65 785.08,-371.24 680.14,-293.97 602.24,-236.6 610.8,-103.02 618.64,-45.65"/>
<polygon fill="green" stroke="green" stroke-width="0.28" points="622.07,-46.37 620.06,-35.97 615.14,-45.35 622.07,-46.37"/>
</g>
<!-- &#45;4 -->
<g id="node4" class="node">
<title>&#45;4</title>
<polygon fill="lightgray" stroke="black" points="905.89,-447.34 882.39,-447.34 882.39,-428.84 905.89,-428.84 905.89,-447.34"/>
<text text-anchor="middle" x="894.14" y="-434.79" font-family="Times,serif" font-size="9.00">&#45;4</text>
</g>
<!-- &#45;4&#45;&gt;51 -->
<g id="edge12" class="edge">
<title>&#45;4&#45;&gt;51</title>
<path fill="none" stroke="green" stroke-width="0.12" d="M885.29,-428.63C880.39,-424.11 874.1,-418.57 868.14,-414.05 845.9,-397.22 818.88,-380.26 799.89,-368.86"/>
<polygon fill="green" stroke="green" stroke-width="0.12" points="801.82,-365.93 791.43,-363.83 798.24,-371.95 801.82,-365.93"/>
</g>
<!-- 7791 -->
<g id="node46" class="node">
<title>7791</title>
<ellipse fill="white" stroke="black" cx="872.14" cy="-354.01" rx="24.04" ry="24.04"/>
<text text-anchor="middle" x="872.14" y="-350.71" font-family="Times,serif" font-size="9.00">7791</text>
</g>
<!-- &#45;4&#45;&gt;7791 -->
<g id="edge38" class="edge">
<title>&#45;4&#45;&gt;7791</title>
<path fill="none" stroke="green" stroke-width="0.29" stroke-dasharray="1,5" d="M891.87,-428.62C889.27,-418.9 884.84,-402.38 880.84,-387.46"/>
<polygon fill="green" stroke="green" stroke-width="0.29" points="884.25,-386.66 878.28,-377.9 877.49,-388.47 884.25,-386.66"/>
</g>
<!-- &#45;5 -->
<g id="node5" class="node">
<title>&#45;5</title>
<polygon fill="lightgray" stroke="black" points="619.89,-531.43 596.39,-531.43 596.39,-512.93 619.89,-512.93 619.89,-531.43"/>
<text text-anchor="middle" x="608.14" y="-518.88" font-family="Times,serif" font-size="9.00">&#45;5</text>
</g>
<!-- &#45;5&#45;&gt;4 -->
<g id="edge48" class="edge">
<title>&#45;5&#45;&gt;4</title>
<path fill="none" stroke="red" stroke-width="0.2" d="M596,-515.71C575.53,-506.23 533.22,-485.49 501.14,-462.14 463.2,-434.52 424.55,-395.38 403.42,-372.86"/>
<polygon fill="red" stroke="red" stroke-width="0.2" points="406.04,-370.53 396.67,-365.58 400.91,-375.29 406.04,-370.53"/>
</g>
<!-- &#45;5&#45;&gt;51 -->
<g id="edge1" class="edge">
<title>&#45;5&#45;&gt;51</title>
<path fill="none" stroke="green" stroke-width="0.28" stroke-dasharray="1,5" d="M606.95,-512.7C604.65,-492.81 601.87,-442.64 627.14,-414.05 663.18,-373.29 695.42,-402.27 744.14,-378.05 747.59,-376.34 751.08,-374.26 754.41,-372.07"/>
<polygon fill="green" stroke="green" stroke-width="0.28" points="756.27,-375.04 762.4,-366.39 752.22,-369.33 756.27,-375.04"/>
</g>
<!-- 8665 -->
<g id="node41" class="node">
<title>8665</title>
<ellipse fill="white" stroke="black" cx="660.14" cy="-438.09" rx="24.04" ry="24.04"/>
<text text-anchor="middle" x="660.14" y="-434.79" font-family="Times,serif" font-size="9.00">8665</text>
</g>
<!-- &#45;5&#45;&gt;8665 -->
<g id="edge61" class="edge">
<title>&#45;5&#45;&gt;8665</title>
<path fill="none" stroke="red" stroke-width="0.51" d="M613.51,-512.7C620.19,-502.16 631.94,-483.6 641.98,-467.76"/>
<polygon fill="red" stroke="red" stroke-width="0.51" points="644.83,-469.8 647.23,-459.48 638.92,-466.06 644.83,-469.8"/>
</g>
<!-- &#45;6 -->
<g id="node6" class="node">
<title>&#45;6</title>
<polygon fill="lightgray" stroke="black" points="721.89,-531.43 698.39,-531.43 698.39,-512.93 721.89,-512.93 721.89,-531.43"/>
<text text-anchor="middle" x="710.14" y="-518.88" font-family="Times,serif" font-size="9.00">&#45;6</text>
</g>
<!-- &#45;6&#45;&gt;7194 -->
<g id="edge31" class="edge">
<title>&#45;6&#45;&gt;7194</title>
<path fill="none" stroke="red" stroke-width="0.55" stroke-dasharray="1,5" d="M719.64,-512.7C732.92,-500.86 757.52,-478.91 776.41,-462.05"/>
<polygon fill="red" stroke="red" stroke-width="0.55" points="778.62,-464.77 783.75,-455.5 773.96,-459.55 778.62,-464.77"/>
</g>
<!-- &#45;6&#45;&gt;51 -->
<g id="edge4" class="edge">
<title>&#45;6&#45;&gt;51</title>
<path fill="none" stroke="green" stroke-width="0.39" stroke-dasharray="1,5" d="M711.18,-512.51C713.64,-493.84 720.8,-448.7 736.14,-414.05 742.01,-400.79 750.89,-387.29 758.79,-376.56"/>
<polygon fill="green" stroke="green" stroke-width="0.39" points="761.49,-378.8 764.76,-368.73 755.92,-374.56 761.49,-378.8"/>
</g>
<!-- &#45;6&#45;&gt;8665 -->
<g id="edge63" class="edge">
<title>&#45;6&#45;&gt;8665</title>
<path fill="none" stroke="red" stroke-width="0.27" d="M704.98,-512.7C698.54,-502.13 687.19,-483.5 677.52,-467.63"/>
<polygon fill="red" stroke="red" stroke-width="0.27" points="680.77,-466.23 672.58,-459.52 674.79,-469.88 680.77,-466.23"/>
</g>
<!-- &#45;7 -->
<g id="node7" class="node">
<title>&#45;7</title>
<polygon fill="lightgray" stroke="black" points="46.89,-531.43 23.39,-531.43 23.39,-512.93 46.89,-512.93 46.89,-531.43"/>
<text text-anchor="middle" x="35.14" y="-518.88" font-family="Times,serif" font-size="9.00">&#45;7</text>
</g>
<!-- 801 -->
<g id="node30" class="node">
<title>801</title>
<ellipse fill="white" stroke="black" cx="253.14" cy="-438.09" rx="20.86" ry="20.86"/>
<text text-anchor="middle" x="253.14" y="-434.79" font-family="Times,serif" font-size="9.00">801</text>
</g>
<!-- &#45;7&#45;&gt;801 -->
<g id="edge14" class="edge">
<title>&#45;7&#45;&gt;801</title>
<path fill="none" stroke="green" stroke-width="0.71" d="M47.29,-512.47C54.51,-507.65 64.01,-501.89 73.14,-498.14 136.54,-472.05 161.27,-491.66 223.14,-462.14 225.05,-461.22 226.96,-460.18 228.83,-459.04"/>
<polygon fill="green" stroke="green" stroke-width="0.71" points="230.65,-462.04 236.89,-453.47 226.67,-456.28 230.65,-462.04"/>
</g>
<!-- &#45;7&#45;&gt;52 -->
<g id="edge20" class="edge">
<title>&#45;7&#45;&gt;52</title>
<path fill="none" stroke="green" stroke-width="0.89" d="M33.46,-512.57C28.81,-488.05 16.14,-415.7 16.14,-355.01 16.14,-355.01 16.14,-355.01 16.14,-181.66 16.14,-110.84 66.93,-101.24 131.14,-71.36 214.25,-32.67 500.73,-21.88 593.73,-19.35"/>
<polygon fill="green" stroke="green" stroke-width="0.89" points="593.8,-22.85 603.71,-19.1 593.62,-15.86 593.8,-22.85"/>
</g>
<!-- &#45;8 -->
<g id="node8" class="node">
<title>&#45;8</title>
<polygon fill="lightgray" stroke="black" points="213.89,-605.96 190.39,-605.96 190.39,-587.46 213.89,-587.46 213.89,-605.96"/>
<text text-anchor="middle" x="202.14" y="-593.41" font-family="Times,serif" font-size="9.00">&#45;8</text>
</g>
<!-- &#45;9 -->
<g id="node9" class="node">
<title>&#45;9</title>
<polygon fill="lightgray" stroke="black" points="68.89,-279.18 45.39,-279.18 45.39,-260.68 68.89,-260.68 68.89,-279.18"/>
<text text-anchor="middle" x="57.14" y="-266.63" font-family="Times,serif" font-size="9.00">&#45;9</text>
</g>
<!-- &#45;9&#45;&gt;52 -->
<g id="edge11" class="edge">
<title>&#45;9&#45;&gt;52</title>
<path fill="none" stroke="green" stroke-width="0.36" stroke-dasharray="1,5" d="M59.78,-260.23C69.96,-228.43 109.89,-117.84 186.14,-71.36 255.3,-29.19 509.56,-20.74 594.96,-19.07"/>
<polygon fill="green" stroke="green" stroke-width="0.36" points="594.92,-22.58 604.86,-18.9 594.8,-15.58 594.92,-22.58"/>
</g>
<!-- 6368 -->
<g id="node43" class="node">
<title>6368</title>
<ellipse fill="white" stroke="black" cx="187.14" cy="-182.66" rx="24.04" ry="24.04"/>
<text text-anchor="middle" x="187.14" y="-179.36" font-family="Times,serif" font-size="9.00">6368</text>
</g>
<!-- &#45;9&#45;&gt;6368 -->
<g id="edge39" class="edge">
<title>&#45;9&#45;&gt;6368</title>
<path fill="none" stroke="green" stroke-width="0.51" d="M65.94,-260.39C70.82,-255.85 77.11,-250.31 83.14,-245.89 106.84,-228.53 135.62,-211.6 156.9,-199.79"/>
<polygon fill="green" stroke="green" stroke-width="0.51" points="158.33,-202.99 165.42,-195.11 154.97,-196.85 158.33,-202.99"/>
</g>
<!-- &#45;10 -->
<g id="node10" class="node">
<title>&#45;10</title>
<polygon fill="lightgray" stroke="black" points="260.14,-605.96 232.14,-605.96 232.14,-587.46 260.14,-587.46 260.14,-605.96"/>
<text text-anchor="middle" x="246.14" y="-593.41" font-family="Times,serif" font-size="9.00">&#45;10</text>
</g>
<!-- &#45;11 -->
<g id="node11" class="node">
<title>&#45;11</title>
<polygon fill="lightgray" stroke="black" points="306.14,-605.96 278.14,-605.96 278.14,-587.46 306.14,-587.46 306.14,-605.96"/>
<text text-anchor="middle" x="292.14" y="-593.41" font-family="Times,serif" font-size="9.00">&#45;11</text>
</g>
<!-- &#45;12 -->
<g id="node12" class="node">
<title>&#45;12</title>
<polygon fill="lightgray" stroke="black" points="427.14,-531.43 399.14,-531.43 399.14,-512.93 427.14,-512.93 427.14,-531.43"/>
<text text-anchor="middle" x="413.14" y="-518.88" font-family="Times,serif" font-size="9.00">&#45;12</text>
</g>
<!-- &#45;12&#45;&gt;801 -->
<g id="edge23" class="edge">
<title>&#45;12&#45;&gt;801</title>
<path fill="none" stroke="red" stroke-width="0.13" stroke-dasharray="1,5" d="M398.66,-513.75C372.01,-500.08 314.8,-470.73 280.59,-453.18"/>
<polygon fill="red" stroke="red" stroke-width="0.13" points="282.26,-450.1 271.77,-448.65 279.07,-456.33 282.26,-450.1"/>
</g>
<!-- &#45;12&#45;&gt;51 -->
<g id="edge13" class="edge">
<title>&#45;12&#45;&gt;51</title>
<path fill="none" stroke="green" stroke-width="0.23" stroke-dasharray="1,5" d="M417.53,-512.57C428.53,-491.94 459.42,-439.48 501.14,-414.05 581.14,-365.3 695.68,-356.46 748.06,-355.09"/>
<polygon fill="green" stroke="green" stroke-width="0.23" points="747.99,-358.59 757.92,-354.91 747.86,-351.59 747.99,-358.59"/>
</g>
<!-- &#45;13 -->
<g id="node13" class="node">
<title>&#45;13</title>
<polygon fill="lightgray" stroke="black" points="1087.14,-531.43 1059.14,-531.43 1059.14,-512.93 1087.14,-512.93 1087.14,-531.43"/>
<text text-anchor="middle" x="1073.14" y="-518.88" font-family="Times,serif" font-size="9.00">&#45;13</text>
</g>
<!-- &#45;13&#45;&gt;6688 -->
<g id="edge28" class="edge">
<title>&#45;13&#45;&gt;6688</title>
<path fill="none" stroke="green" stroke-width="0.7" d="M1064.83,-512.6C1053.99,-501.31 1034.6,-480.71 1019.14,-462.14 997.35,-435.95 974.04,-404.75 958.05,-382.8"/>
<polygon fill="green" stroke="green" stroke-width="0.7" points="961,-380.9 952.29,-374.86 955.33,-385.01 961,-380.9"/>
</g>
<!-- &#45;13&#45;&gt;52 -->
<g id="edge3" class="edge">
<title>&#45;13&#45;&gt;52</title>
<path fill="none" stroke="red" stroke-width="0.12" d="M1087.59,-512.46C1103.46,-502.22 1128.74,-483.84 1144.14,-462.14 1173.56,-420.69 1184.14,-405.83 1184.14,-355.01 1184.14,-355.01 1184.14,-355.01 1184.14,-181.66 1184.14,-69.41 764.69,-29.42 651.18,-20.66"/>
<polygon fill="red" stroke="red" stroke-width="0.12" points="651.59,-17.18 641.35,-19.92 651.06,-24.16 651.59,-17.18"/>
</g>
<!-- 8378 -->
<g id="node36" class="node">
<title>8378</title>
<ellipse fill="white" stroke="black" cx="948.14" cy="-438.09" rx="24.04" ry="24.04"/>
<text text-anchor="middle" x="948.14" y="-434.79" font-family="Times,serif" font-size="9.00">8378</text>
</g>
<!-- &#45;13&#45;&gt;8378 -->
<g id="edge49" class="edge">
<title>&#45;13&#45;&gt;8378</title>
<path fill="none" stroke="red" stroke-width="0.19" d="M1060.23,-512.7C1040.62,-499.82 1002.82,-475 976.57,-457.76"/>
<polygon fill="red" stroke="red" stroke-width="0.19" points="978.67,-454.95 968.39,-452.39 974.83,-460.8 978.67,-454.95"/>
</g>
<!-- 6208 -->
<g id="node39" class="node">
<title>6208</title>
<ellipse fill="white" stroke="black" cx="713.14" cy="-269.93" rx="24.04" ry="24.04"/>
<text text-anchor="middle" x="713.14" y="-266.63" font-family="Times,serif" font-size="9.00">6208</text>
</g>
<!-- &#45;13&#45;&gt;6208 -->
<g id="edge51" class="edge">
<title>&#45;13&#45;&gt;6208</title>
<path fill="none" stroke="green" stroke-width="0.34" stroke-dasharray="1,5" d="M1084.9,-512.76C1098.08,-502.52 1118.69,-483.89 1127.14,-462.14 1134.88,-442.21 1137.12,-432.95 1127.14,-414.05 1096.24,-355.49 1065.14,-355.75 1004.14,-329.97 916.45,-292.9 803.83,-278.59 747.89,-273.49"/>
<polygon fill="green" stroke="green" stroke-width="0.34" points="748.26,-270.01 738,-272.63 747.66,-276.98 748.26,-270.01"/>
</g>
<!-- &#45;14 -->
<g id="node14" class="node">
<title>&#45;14</title>
<polygon fill="lightgray" stroke="black" points="352.14,-605.96 324.14,-605.96 324.14,-587.46 352.14,-587.46 352.14,-605.96"/>
<text text-anchor="middle" x="338.14" y="-593.41" font-family="Times,serif" font-size="9.00">&#45;14</text>
</g>
<!-- &#45;15 -->
<g id="node15" class="node">
<title>&#45;15</title>
<polygon fill="lightgray" stroke="black" points="580.14,-447.34 552.14,-447.34 552.14,-428.84 580.14,-428.84 580.14,-447.34"/>
<text text-anchor="middle" x="566.14" y="-434.79" font-family="Times,serif" font-size="9.00">&#45;15</text>
</g>
<!-- &#45;15&#45;&gt;4 -->
<g id="edge17" class="edge">
<title>&#45;15&#45;&gt;4</title>
<path fill="none" stroke="green" stroke-width="0.31" d="M559.2,-428.52C554.97,-423.74 549.22,-417.98 543.14,-414.05 500.54,-386.5 443.19,-369.01 411.22,-360.71"/>
<polygon fill="green" stroke="green" stroke-width="0.31" points="412.42,-357.4 401.87,-358.36 410.71,-364.19 412.42,-357.4"/>
</g>
<!-- &#45;15&#45;&gt;52 -->
<g id="edge10" class="edge">
<title>&#45;15&#45;&gt;52</title>
<path fill="none" stroke="green" stroke-width="0.24" stroke-dasharray="1,5" d="M578.42,-428.49C585.44,-423.82 594.54,-418.17 603.14,-414.05 646.88,-393.11 666.01,-405.28 706.14,-378.05 708.7,-376.32 778.06,-296.87 779.14,-293.97 813.76,-201.28 836.84,-151.73 779.14,-71.36 749.94,-30.67 687.64,-21 651.22,-18.95"/>
<polygon fill="green" stroke="green" stroke-width="0.24" points="651.75,-15.47 641.61,-18.56 651.46,-22.46 651.75,-15.47"/>
</g>
<!-- &#45;16 -->
<g id="node16" class="node">
<title>&#45;16</title>
<polygon fill="lightgray" stroke="black" points="172.14,-605.96 144.14,-605.96 144.14,-587.46 172.14,-587.46 172.14,-605.96"/>
<text text-anchor="middle" x="158.14" y="-593.41" font-family="Times,serif" font-size="9.00">&#45;16</text>
</g>
<!-- 3 -->
<g id="node24" class="node">
<title>3</title>
<ellipse fill="lightblue" stroke="black" cx="69.14" cy="-354.01" rx="14.5" ry="14.5"/>
<text text-anchor="middle" x="69.14" y="-350.71" font-family="Times,serif" font-size="9.00">3</text>
</g>
<!-- &#45;16&#45;&gt;3 -->
<g id="edge30" class="edge">
<title>&#45;16&#45;&gt;3</title>
<path fill="none" stroke="green" stroke-width="1.07" d="M144,-595.8C114.06,-595.13 44.55,-588.82 14.14,-546.22 -24.38,-492.25 25.79,-411.71 53.3,-374.79"/>
<polygon fill="green" stroke="green" stroke-width="1.07" points="56.07,-376.94 59.38,-366.88 50.52,-372.67 56.07,-376.94"/>
</g>
<!-- 8491 -->
<g id="node32" class="node">
<title>8491</title>
<ellipse fill="white" stroke="black" cx="106.14" cy="-522.18" rx="24.04" ry="24.04"/>
<text text-anchor="middle" x="106.14" y="-518.88" font-family="Times,serif" font-size="9.00">8491</text>
</g>
<!-- &#45;16&#45;&gt;8491 -->
<g id="edge53" class="edge">
<title>&#45;16&#45;&gt;8491</title>
<path fill="none" stroke="green" stroke-width="0.22" d="M151.97,-587.11C145.53,-578.12 135.08,-563.55 125.79,-550.59"/>
<polygon fill="green" stroke="green" stroke-width="0.22" points="128.77,-548.73 120.09,-542.64 123.08,-552.81 128.77,-548.73"/>
</g>
<!-- &#45;16&#45;&gt;51 -->
<g id="edge9" class="edge">
<title>&#45;16&#45;&gt;51</title>
<path fill="none" stroke="red" stroke-width="0.61" stroke-dasharray="1,5" d="M170.3,-587.17C173.67,-585.21 177.42,-583.36 181.14,-582.22 239.68,-564.24 684.4,-585.79 731.14,-546.22 743.67,-535.61 762.8,-432.84 771.52,-382.51"/>
<polygon fill="red" stroke="red" stroke-width="0.61" points="774.97,-383.12 773.21,-372.68 768.07,-381.94 774.97,-383.12"/>
</g>
<!-- 8637 -->
<g id="node38" class="node">
<title>8637</title>
<ellipse fill="white" stroke="black" cx="135.14" cy="-354.01" rx="24.04" ry="24.04"/>
<text text-anchor="middle" x="135.14" y="-350.71" font-family="Times,serif" font-size="9.00">8637</text>
</g>
<!-- &#45;16&#45;&gt;8637 -->
<g id="edge70" class="edge">
<title>&#45;16&#45;&gt;8637</title>
<path fill="none" stroke="green" stroke-width="0.68" d="M157.32,-587.15C154.32,-555.73 143.81,-445.72 138.4,-389.16"/>
<polygon fill="green" stroke="green" stroke-width="0.68" points="141.9,-388.93 137.46,-379.31 134.93,-389.6 141.9,-388.93"/>
</g>
<!-- 2687 -->
<g id="node49" class="node">
<title>2687</title>
<ellipse fill="white" stroke="black" cx="316.14" cy="-269.93" rx="24.04" ry="24.04"/>
<text text-anchor="middle" x="316.14" y="-266.63" font-family="Times,serif" font-size="9.00">2687</text>
</g>
<!-- &#45;16&#45;&gt;2687 -->
<g id="edge16" class="edge">
<title>&#45;16&#45;&gt;2687</title>
<path fill="none" stroke="red" stroke-width="0.25" stroke-dasharray="1,5" d="M169.79,-587.08C202.14,-562.87 291.93,-494.01 310.14,-462.14 338.34,-412.76 331.51,-343.91 323.88,-303.72"/>
<polygon fill="red" stroke="red" stroke-width="0.25" points="327.34,-303.14 321.92,-294.03 320.48,-304.53 327.34,-303.14"/>
</g>
<!-- &#45;17 -->
<g id="node17" class="node">
<title>&#45;17</title>
<polygon fill="lightgray" stroke="black" points="518.14,-279.18 490.14,-279.18 490.14,-260.68 518.14,-260.68 518.14,-279.18"/>
<text text-anchor="middle" x="504.14" y="-266.63" font-family="Times,serif" font-size="9.00">&#45;17</text>
</g>
<!-- 10247 -->
<g id="node26" class="node">
<title>10247</title>
<ellipse fill="white" stroke="black" cx="360.14" cy="-182.66" rx="27.22" ry="27.22"/>
<text text-anchor="middle" x="360.14" y="-179.36" font-family="Times,serif" font-size="9.00">10247</text>
</g>
<!-- &#45;17&#45;&gt;10247 -->
<g id="edge71" class="edge">
<title>&#45;17&#45;&gt;10247</title>
<path fill="none" stroke="green" stroke-width="0.33" d="M497.14,-260.44C492.89,-255.69 487.14,-249.93 481.14,-245.89 447.13,-222.94 431.84,-230.1 396.14,-209.89 393.96,-208.65 391.76,-207.31 389.57,-205.91"/>
<polygon fill="green" stroke="green" stroke-width="0.33" points="391.97,-203.31 381.73,-200.59 388.04,-209.1 391.97,-203.31"/>
</g>
<!-- 8252 -->
<g id="node37" class="node">
<title>8252</title>
<ellipse fill="white" stroke="black" cx="429.14" cy="-182.66" rx="24.04" ry="24.04"/>
<text text-anchor="middle" x="429.14" y="-179.36" font-family="Times,serif" font-size="9.00">8252</text>
</g>
<!-- &#45;17&#45;&gt;8252 -->
<g id="edge45" class="edge">
<title>&#45;17&#45;&gt;8252</title>
<path fill="none" stroke="green" stroke-width="0.45" stroke-dasharray="1,5" d="M496.68,-260.44C486.2,-248.53 466.7,-226.37 451.34,-208.9"/>
<polygon fill="green" stroke="green" stroke-width="0.45" points="454.3,-206.97 445.07,-201.77 449.05,-211.59 454.3,-206.97"/>
</g>
<!-- &#45;18 -->
<g id="node18" class="node">
<title>&#45;18</title>
<polygon fill="lightgray" stroke="black" points="398.14,-605.96 370.14,-605.96 370.14,-587.46 398.14,-587.46 398.14,-605.96"/>
<text text-anchor="middle" x="384.14" y="-593.41" font-family="Times,serif" font-size="9.00">&#45;18</text>
</g>
<!-- &#45;19 -->
<g id="node19" class="node">
<title>&#45;19</title>
<polygon fill="lightgray" stroke="black" points="214.14,-447.34 186.14,-447.34 186.14,-428.84 214.14,-428.84 214.14,-447.34"/>
<text text-anchor="middle" x="200.14" y="-434.79" font-family="Times,serif" font-size="9.00">&#45;19</text>
</g>
<!-- &#45;19&#45;&gt;4 -->
<g id="edge15" class="edge">
<title>&#45;19&#45;&gt;4</title>
<path fill="none" stroke="green" stroke-width="0.14" stroke-dasharray="1,5" d="M207.06,-428.48C211.28,-423.69 217.03,-417.93 223.14,-414.05 268.55,-385.21 329.97,-367.95 363.27,-360.1"/>
<polygon fill="green" stroke="green" stroke-width="0.14" points="363.86,-363.56 372.84,-357.93 362.31,-356.73 363.86,-363.56"/>
</g>
<!-- &#45;19&#45;&gt;6368 -->
<g id="edge27" class="edge">
<title>&#45;19&#45;&gt;6368</title>
<path fill="none" stroke="red" stroke-width="0.66" stroke-dasharray="1,5" d="M199.69,-428.37C198,-395.34 191.92,-276.81 188.89,-217.69"/>
<polygon fill="red" stroke="red" stroke-width="0.66" points="192.4,-217.85 188.39,-208.04 185.41,-218.21 192.4,-217.85"/>
</g>
<!-- &#45;20 -->
<g id="node20" class="node">
<title>&#45;20</title>
<polygon fill="lightgray" stroke="black" points="444.14,-605.96 416.14,-605.96 416.14,-587.46 444.14,-587.46 444.14,-605.96"/>
<text text-anchor="middle" x="430.14" y="-593.41" font-family="Times,serif" font-size="9.00">&#45;20</text>
</g>
<!-- 0 -->
<g id="node21" class="node">
<title>0</title>
<ellipse fill="lightblue" stroke="black" cx="476.14" cy="-596.71" rx="14.5" ry="14.5"/>
<text text-anchor="middle" x="476.14" y="-593.41" font-family="Times,serif" font-size="9.00">0</text>
</g>
<!-- 0&#45;&gt;0 -->
<g id="edge7" class="edge">
<title>0&#45;&gt;0</title>
<path fill="none" stroke="red" stroke-width="0.31" stroke-dasharray="1,5" d="M486.12,-607.41C496.7,-614.11 508.64,-610.54 508.64,-596.71 508.64,-587.21 503,-582.55 496.03,-582.74"/>
<polygon fill="red" stroke="red" stroke-width="0.31" points="494.97,-579.41 486.57,-585.87 497.16,-586.06 494.97,-579.41"/>
</g>
<!-- 1 -->
<g id="node22" class="node">
<title>1</title>
<ellipse fill="lightblue" stroke="black" cx="481.14" cy="-95.4" rx="14.5" ry="14.5"/>
<text text-anchor="middle" x="481.14" y="-92.1" font-family="Times,serif" font-size="9.00">1</text>
</g>
<!-- 2 -->
<g id="node23" class="node">
<title>2</title>
<ellipse fill="lightblue" stroke="black" cx="305.14" cy="-95.4" rx="14.5" ry="14.5"/>
<text text-anchor="middle" x="305.14" y="-92.1" font-family="Times,serif" font-size="9.00">2</text>
</g>
<!-- 3&#45;&gt;6368 -->
<g id="edge40" class="edge">
<title>3&#45;&gt;6368</title>
<path fill="none" stroke="red" stroke-width="0.47" stroke-dasharray="1,5" d="M77.07,-341.64C95.44,-315.27 141.36,-249.36 167.72,-211.53"/>
<polygon fill="red" stroke="red" stroke-width="0.47" points="170.41,-213.79 173.26,-203.59 164.67,-209.79 170.41,-213.79"/>
</g>
<!-- 8437 -->
<g id="node48" class="node">
<title>8437</title>
<ellipse fill="white" stroke="black" cx="382.14" cy="-269.93" rx="24.04" ry="24.04"/>
<text text-anchor="middle" x="382.14" y="-266.63" font-family="Times,serif" font-size="9.00">8437</text>
</g>
<!-- 4&#45;&gt;8437 -->
<g id="edge52" class="edge">
<title>4&#45;&gt;8437</title>
<path fill="none" stroke="red" stroke-width="0.29" d="M386.29,-339.09C385.72,-329.61 384.93,-316.63 384.19,-304.54"/>
<polygon fill="red" stroke="red" stroke-width="0.29" points="387.69,-304.47 383.59,-294.7 380.7,-304.9 387.69,-304.47"/>
</g>
<!-- 4&#45;&gt;2687 -->
<g id="edge42" class="edge">
<title>4&#45;&gt;2687</title>
<path fill="none" stroke="green" stroke-width="0.53" stroke-dasharray="1,5" d="M377.86,-342.28C367.96,-330.84 351.93,-312.3 338.68,-296.99"/>
<polygon fill="green" stroke="green" stroke-width="0.53" points="341.38,-294.76 332.19,-289.48 336.09,-299.34 341.38,-294.76"/>
</g>
<!-- 10247&#45;&gt;1 -->
<g id="edge72" class="edge">
<title>10247&#45;&gt;1</title>
<path fill="none" stroke="green" stroke-width="0.4" d="M381.79,-165.77C386.5,-162.35 391.48,-158.76 396.14,-155.44 418.01,-139.88 443.29,-122.38 460.56,-110.5"/>
<polygon fill="green" stroke="green" stroke-width="0.4" points="462.49,-113.42 468.75,-104.87 458.53,-107.65 462.49,-113.42"/>
</g>
<!-- 7706 -->
<g id="node27" class="node">
<title>7706</title>
<ellipse fill="white" stroke="black" cx="253.14" cy="-182.66" rx="24.04" ry="24.04"/>
<text text-anchor="middle" x="253.14" y="-179.36" font-family="Times,serif" font-size="9.00">7706</text>
</g>
<!-- 7706&#45;&gt;2 -->
<g id="edge37" class="edge">
<title>7706&#45;&gt;2</title>
<path fill="none" stroke="green" stroke-width="1.09" stroke-dasharray="1,5" d="M265.46,-161.46C273.43,-148.4 283.78,-131.42 291.92,-118.08"/>
<polygon fill="green" stroke="green" stroke-width="1.09" points="294.8,-120.08 297.01,-109.72 288.82,-116.44 294.8,-120.08"/>
</g>
<!-- 8172 -->
<g id="node45" class="node">
<title>8172</title>
<ellipse fill="white" stroke="black" cx="248.14" cy="-95.4" rx="24.04" ry="24.04"/>
<text text-anchor="middle" x="248.14" y="-92.1" font-family="Times,serif" font-size="9.00">8172</text>
</g>
<!-- 7706&#45;&gt;8172 -->
<g id="edge57" class="edge">
<title>7706&#45;&gt;8172</title>
<path fill="none" stroke="green" stroke-width="0.37" d="M251.78,-158.36C251.26,-149.62 250.67,-139.5 250.11,-130.01"/>
<polygon fill="green" stroke="green" stroke-width="0.37" points="253.62,-130.01 249.54,-120.23 246.63,-130.42 253.62,-130.01"/>
</g>
<!-- 7194&#45;&gt;51 -->
<g id="edge32" class="edge">
<title>7194&#45;&gt;51</title>
<path fill="none" stroke="red" stroke-width="0.12" stroke-dasharray="1,5" d="M795.04,-414.66C791.72,-404.2 787.76,-391.68 784.32,-380.82"/>
<polygon fill="red" stroke="red" stroke-width="0.12" points="787.75,-380.07 781.39,-371.6 781.08,-382.19 787.75,-380.07"/>
</g>
<!-- 2784 -->
<g id="node42" class="node">
<title>2784</title>
<ellipse fill="white" stroke="black" cx="448.14" cy="-269.93" rx="24.04" ry="24.04"/>
<text text-anchor="middle" x="448.14" y="-266.63" font-family="Times,serif" font-size="9.00">2784</text>
</g>
<!-- 6688&#45;&gt;2784 -->
<g id="edge41" class="edge">
<title>6688&#45;&gt;2784</title>
<path fill="none" stroke="red" stroke-width="0.3" d="M919.9,-337.77C915.33,-334.69 910.27,-331.82 905.14,-329.97 727.3,-265.63 658.98,-358.31 481.14,-293.97 479.06,-293.22 476.99,-292.3 474.95,-291.26"/>
<polygon fill="red" stroke="red" stroke-width="0.3" points="477.16,-288.5 466.77,-286.4 473.58,-294.52 477.16,-288.5"/>
</g>
<!-- 801&#45;&gt;2 -->
<g id="edge26" class="edge">
<title>801&#45;&gt;2</title>
<path fill="none" stroke="red" stroke-width="0.18" d="M256.16,-417.3C265.18,-358.23 291.87,-183.35 301.57,-119.81"/>
<polygon fill="red" stroke="red" stroke-width="0.18" points="304.98,-120.62 303.03,-110.21 298.06,-119.57 304.98,-120.62"/>
</g>
<!-- 801&#45;&gt;4 -->
<g id="edge56" class="edge">
<title>801&#45;&gt;4</title>
<path fill="none" stroke="green" stroke-width="0.38" stroke-dasharray="1,5" d="M270.66,-426.36C295.3,-411.27 340.12,-383.82 366.39,-367.72"/>
<polygon fill="green" stroke="green" stroke-width="0.38" points="367.98,-370.86 374.67,-362.65 364.32,-364.89 367.98,-370.86"/>
</g>
<!-- 801&#45;&gt;7706 -->
<g id="edge36" class="edge">
<title>801&#45;&gt;7706</title>
<path fill="none" stroke="red" stroke-width="0.53" d="M251.86,-416.88C251.2,-405.48 250.47,-390.98 250.14,-378.05 248.65,-319.33 248.73,-304.61 250.14,-245.89 250.36,-236.74 250.76,-226.84 251.2,-217.69"/>
<polygon fill="red" stroke="red" stroke-width="0.53" points="254.69,-217.97 251.71,-207.8 247.7,-217.61 254.69,-217.97"/>
</g>
<!-- 7337 -->
<g id="node31" class="node">
<title>7337</title>
<ellipse fill="white" stroke="black" cx="675.14" cy="-182.66" rx="24.04" ry="24.04"/>
<text text-anchor="middle" x="675.14" y="-179.36" font-family="Times,serif" font-size="9.00">7337</text>
</g>
<!-- 8491&#45;&gt;8637 -->
<g id="edge58" class="edge">
<title>8491&#45;&gt;8637</title>
<path fill="none" stroke="red" stroke-width="0.21" stroke-dasharray="1,5" d="M110.17,-498.07C115.16,-469.51 123.68,-420.69 129.36,-388.14"/>
<polygon fill="red" stroke="red" stroke-width="0.21" points="132.77,-388.95 131.04,-378.5 125.88,-387.75 132.77,-388.95"/>
</g>
<!-- 9328 -->
<g id="node47" class="node">
<title>9328</title>
<ellipse fill="white" stroke="black" cx="68.14" cy="-438.09" rx="24.04" ry="24.04"/>
<text text-anchor="middle" x="68.14" y="-434.79" font-family="Times,serif" font-size="9.00">9328</text>
</g>
<!-- 8491&#45;&gt;9328 -->
<g id="edge68" class="edge">
<title>8491&#45;&gt;9328</title>
<path fill="none" stroke="green" stroke-width="0.16" stroke-dasharray="1,5" d="M96.36,-500.04C92.05,-490.73 86.9,-479.62 82.19,-469.44"/>
<polygon fill="green" stroke="green" stroke-width="0.16" points="85.51,-468.28 78.13,-460.67 79.16,-471.22 85.51,-468.28"/>
</g>
<!-- 8491&#45;&gt;2687 -->
<g id="edge54" class="edge">
<title>8491&#45;&gt;2687</title>
<path fill="none" stroke="green" stroke-width="0.65" stroke-dasharray="1,5" d="M130.42,-520.56C169.04,-518.18 244.08,-507.59 283.14,-462.14 320.95,-418.14 322.82,-346.81 320,-304.83"/>
<polygon fill="green" stroke="green" stroke-width="0.65" points="323.5,-304.73 319.21,-295.05 316.53,-305.3 323.5,-304.73"/>
</g>
<!-- 51&#45;&gt;1 -->
<g id="edge6" class="edge">
<title>51&#45;&gt;1</title>
<path fill="none" stroke="red" stroke-width="0.45" d="M758.31,-350.99C723.87,-346.31 647.11,-332.07 596.14,-293.97 535.59,-248.7 501.48,-161.42 487.99,-119.7"/>
<polygon fill="red" stroke="red" stroke-width="0.45" points="491.38,-118.82 485.06,-110.32 484.69,-120.91 491.38,-118.82"/>
</g>
<!-- 51&#45;&gt;6208 -->
<g id="edge55" class="edge">
<title>51&#45;&gt;6208</title>
<path fill="none" stroke="green" stroke-width="0.63" d="M765.74,-339.46C757.19,-328.33 744.82,-312.2 734.22,-298.39"/>
<polygon fill="green" stroke="green" stroke-width="0.63" points="737.01,-296.28 728.15,-290.48 731.46,-300.54 737.01,-296.28"/>
</g>
<!-- 51&#45;&gt;2784 -->
<g id="edge18" class="edge">
<title>51&#45;&gt;2784</title>
<path fill="none" stroke="red" stroke-width="0.2" stroke-dasharray="1,5" d="M758.1,-351.97C710.81,-348.7 580.09,-336.22 481.14,-293.97 479.1,-293.1 477.07,-292.09 475.06,-290.99"/>
<polygon fill="red" stroke="red" stroke-width="0.2" points="477.15,-288.17 466.8,-285.91 473.48,-294.13 477.15,-288.17"/>
</g>
<!-- 8808 -->
<g id="node44" class="node">
<title>8808</title>
<ellipse fill="white" stroke="black" cx="571.14" cy="-182.66" rx="24.04" ry="24.04"/>
<text text-anchor="middle" x="571.14" y="-179.36" font-family="Times,serif" font-size="9.00">8808</text>
</g>
<!-- 51&#45;&gt;8808 -->
<g id="edge64" class="edge">
<title>51&#45;&gt;8808</title>
<path fill="none" stroke="red" stroke-width="0.27" stroke-dasharray="1,5" d="M758.89,-349.37C730.63,-342.65 673.91,-326 637.14,-293.97 612.44,-272.45 594.37,-239.35 583.44,-215.02"/>
<polygon fill="red" stroke="red" stroke-width="0.27" points="586.68,-213.67 579.5,-205.88 580.25,-216.45 586.68,-213.67"/>
</g>
<!-- 9269 -->
<g id="node35" class="node">
<title>9269</title>
<ellipse fill="white" stroke="black" cx="392.14" cy="-438.09" rx="24.04" ry="24.04"/>
<text text-anchor="middle" x="392.14" y="-434.79" font-family="Times,serif" font-size="9.00">9269</text>
</g>
<!-- 9269&#45;&gt;4 -->
<g id="edge67" class="edge">
<title>9269&#45;&gt;4</title>
<path fill="none" stroke="red" stroke-width="0.67" stroke-dasharray="1,5" d="M390.72,-413.79C390.07,-403.07 389.29,-390.35 388.63,-379.49"/>
<polygon fill="red" stroke="red" stroke-width="0.67" points="392.13,-379.4 388.03,-369.63 385.15,-379.83 392.13,-379.4"/>
</g>
<!-- 8378&#45;&gt;6688 -->
<g id="edge50" class="edge">
<title>8378&#45;&gt;6688</title>
<path fill="none" stroke="green" stroke-width="0.15" stroke-dasharray="1,5" d="M945.3,-413.79C944.34,-405.91 943.25,-396.94 942.21,-388.43"/>
<polygon fill="green" stroke="green" stroke-width="0.15" points="945.7,-388.1 941.01,-378.6 938.75,-388.95 945.7,-388.1"/>
</g>
<!-- 8252&#45;&gt;1 -->
<g id="edge46" class="edge">
<title>8252&#45;&gt;1</title>
<path fill="none" stroke="red" stroke-width="0.23" stroke-dasharray="1,5" d="M441.46,-161.46C449.66,-148.01 460.4,-130.41 468.64,-116.9"/>
<polygon fill="red" stroke="red" stroke-width="0.23" points="471.48,-118.97 473.69,-108.61 465.5,-115.32 471.48,-118.97"/>
</g>
<!-- 8252&#45;&gt;8172 -->
<g id="edge66" class="edge">
<title>8252&#45;&gt;8172</title>
<path fill="none" stroke="green" stroke-width="0.22" stroke-dasharray="1,5" d="M411.47,-165.69C406.73,-161.96 401.44,-158.26 396.14,-155.44 349.23,-130.49 329.97,-142.58 282.14,-119.44 279.89,-118.35 277.63,-117.13 275.39,-115.83"/>
<polygon fill="green" stroke="green" stroke-width="0.22" points="277.59,-113.08 267.25,-110.75 273.87,-119.02 277.59,-113.08"/>
</g>
<!-- 8637&#45;&gt;8172 -->
<g id="edge74" class="edge">
<title>8637&#45;&gt;8172</title>
<path fill="none" stroke="red" stroke-width="0.11" d="M131.21,-329.95C125.79,-290.85 120.21,-210.42 154.14,-155.44 168.18,-132.68 194.62,-117.25 215.89,-107.89"/>
<polygon fill="red" stroke="red" stroke-width="0.11" points="217.18,-111.14 225.08,-104.07 214.5,-104.67 217.18,-111.14"/>
</g>
<!-- 8637&#45;&gt;2687 -->
<g id="edge59" class="edge">
<title>8637&#45;&gt;2687</title>
<path fill="none" stroke="green" stroke-width="0.22" d="M156.97,-343.11C188.91,-328.63 248.52,-301.59 285.03,-285.04"/>
<polygon fill="green" stroke="green" stroke-width="0.22" points="286.26,-288.32 293.92,-281 283.37,-281.95 286.26,-288.32"/>
</g>
<!-- 6208&#45;&gt;7337 -->
<g id="edge33" class="edge">
<title>6208&#45;&gt;7337</title>
<path fill="none" stroke="red" stroke-width="0.13" d="M703.55,-247.41C699.1,-237.41 693.72,-225.34 688.84,-214.41"/>
<polygon fill="red" stroke="red" stroke-width="0.13" points="692.08,-213.06 684.81,-205.35 685.68,-215.91 692.08,-213.06"/>
</g>
<!-- 6208&#45;&gt;52 -->
<g id="edge22" class="edge">
<title>6208&#45;&gt;52</title>
<path fill="none" stroke="red" stroke-width="0.19" d="M715.49,-245.74C717.09,-222.38 717.47,-185.58 708.14,-155.44 694.11,-110.09 661.3,-64.73 640.79,-39.33"/>
<polygon fill="red" stroke="red" stroke-width="0.19" points="643.59,-37.23 634.54,-31.73 638.19,-41.67 643.59,-37.23"/>
</g>
<!-- 6208&#45;&gt;6368 -->
<g id="edge24" class="edge">
<title>6208&#45;&gt;6368</title>
<path fill="none" stroke="green" stroke-width="0.16" d="M689.07,-265.89C653.62,-261.44 585.29,-252.9 527.14,-245.89 390.75,-229.44 346.99,-262.64 220.14,-209.89 217.48,-208.78 214.86,-207.39 212.32,-205.84"/>
<polygon fill="green" stroke="green" stroke-width="0.16" points="214.52,-203.1 204.33,-200.21 210.49,-208.83 214.52,-203.1"/>
</g>
<!-- 8665&#45;&gt;51 -->
<g id="edge62" class="edge">
<title>8665&#45;&gt;51</title>
<path fill="none" stroke="green" stroke-width="0.1" d="M679.54,-423.56C696.59,-411.63 722.06,-393.76 744.14,-378.05 747.37,-375.75 750.78,-373.31 754.13,-370.91"/>
<polygon fill="green" stroke="green" stroke-width="0.1" points="755.95,-373.91 762.02,-365.23 751.86,-368.23 755.95,-373.91"/>
</g>
<!-- 2784&#45;&gt;1 -->
<g id="edge19" class="edge">
<title>2784&#45;&gt;1</title>
<path fill="none" stroke="red" stroke-width="0.23" stroke-dasharray="1,5" d="M453.88,-246.3C456.57,-235.34 459.7,-221.97 462.14,-209.89 468.36,-179.09 474.11,-143.3 477.62,-120.28"/>
<polygon fill="red" stroke="red" stroke-width="0.23" points="481.07,-120.83 479.1,-110.42 474.15,-119.79 481.07,-120.83"/>
</g>
<!-- 2784&#45;&gt;7706 -->
<g id="edge60" class="edge">
<title>2784&#45;&gt;7706</title>
<path fill="none" stroke="red" stroke-width="0.37" d="M429.1,-254.47C424.65,-251.42 419.83,-248.38 415.14,-245.89 403.29,-239.59 329.43,-211.91 285.64,-195.66"/>
<polygon fill="red" stroke="red" stroke-width="0.37" points="286.86,-192.38 276.27,-192.19 284.43,-198.95 286.86,-192.38"/>
</g>
<!-- 6368&#45;&gt;52 -->
<g id="edge25" class="edge">
<title>6368&#45;&gt;52</title>
<path fill="none" stroke="green" stroke-width="0.91" d="M185.99,-158.41C186.11,-133.03 190.6,-93.11 215.14,-71.36 271.3,-21.57 510.23,-18.02 593.99,-18.35"/>
<polygon fill="green" stroke="green" stroke-width="0.91" points="593.78,-21.85 603.8,-18.41 593.82,-14.85 593.78,-21.85"/>
</g>
<!-- 6368&#45;&gt;8172 -->
<g id="edge43" class="edge">
<title>6368&#45;&gt;8172</title>
<path fill="none" stroke="red" stroke-width="0.22" stroke-dasharray="1,5" d="M200.68,-162.74C208.84,-151.34 219.36,-136.62 228.43,-123.95"/>
<polygon fill="red" stroke="red" stroke-width="0.22" points="231.27,-126 234.24,-115.83 225.57,-121.93 231.27,-126"/>
</g>
<!-- 8808&#45;&gt;1 -->
<g id="edge65" class="edge">
<title>8808&#45;&gt;1</title>
<path fill="none" stroke="red" stroke-width="0.38" stroke-dasharray="1,5" d="M554.21,-165.62C538.43,-150.67 514.97,-128.45 498.92,-113.24"/>
<polygon fill="red" stroke="red" stroke-width="0.38" points="501.36,-110.73 491.69,-106.4 496.55,-115.81 501.36,-110.73"/>
</g>
<!-- 8172&#45;&gt;52 -->
<g id="edge44" class="edge">
<title>8172&#45;&gt;52</title>
<path fill="none" stroke="red" stroke-width="0.43" stroke-dasharray="1,5" d="M266.73,-79.66C271.52,-76.47 276.83,-73.44 282.14,-71.36 391.87,-28.23 534.43,-20.28 594.49,-18.91"/>
<polygon fill="red" stroke="red" stroke-width="0.43" points="594.45,-22.41 604.38,-18.73 594.32,-15.41 594.45,-22.41"/>
</g>
<!-- 9328&#45;&gt;8637 -->
<g id="edge69" class="edge">
<title>9328&#45;&gt;8637</title>
<path fill="none" stroke="green" stroke-width="0.27" d="M83.01,-418.88C92.12,-407.72 103.92,-393.26 113.99,-380.92"/>
<polygon fill="green" stroke="green" stroke-width="0.27" points="116.44,-383.45 120.05,-373.49 111.02,-379.03 116.44,-383.45"/>
</g>
<!-- 2687&#45;&gt;10247 -->
<g id="edge73" class="edge">
<title>2687&#45;&gt;10247</title>
<path fill="none" stroke="green" stroke-width="0.48" d="M326.79,-248.29C331.66,-238.85 337.55,-227.44 343.02,-216.85"/>
<polygon fill="green" stroke="green" stroke-width="0.48" points="346.06,-218.57 347.54,-208.08 339.84,-215.36 346.06,-218.57"/>
</g>
<!-- 2687&#45;&gt;6368 -->
<g id="edge34" class="edge">
<title>2687&#45;&gt;6368</title>
<path fill="none" stroke="green" stroke-width="1.07" stroke-dasharray="1,5" d="M295.46,-257.18C275.7,-245.73 245.3,-227.52 220.14,-209.89 218.3,-208.59 216.42,-207.23 214.55,-205.84"/>
<polygon fill="green" stroke="green" stroke-width="1.07" points="216.69,-203.08 206.63,-199.75 212.43,-208.63 216.69,-203.08"/>
</g>
</g>
</svg>
