<?xml version="1.0" encoding="UTF-8" standalone="no"?>
<!DOCTYPE svg PUBLIC "-//W3C//DTD SVG 1.1//EN"
 "http://www.w3.org/Graphics/SVG/1.1/DTD/svg11.dtd">
<!-- Generated by graphviz version 12.1.1 (20240910.0053)
 -->
<!-- Pages: 1 -->
<svg width="967pt" height="180pt"
 viewBox="0.00 0.00 967.50 179.70" xmlns="http://www.w3.org/2000/svg" xmlns:xlink="http://www.w3.org/1999/xlink">
<g id="graph0" class="graph" transform="scale(1 1) rotate(0) translate(4 175.7)">
<polygon fill="white" stroke="none" points="-4,4 -4,-175.7 963.5,-175.7 963.5,4 -4,4"/>
<!-- &#45;1 -->
<g id="node1" class="node">
<title>&#45;1</title>
<polygon fill="lightgray" stroke="black" points="333.75,-166.46 310.25,-166.46 310.25,-147.96 333.75,-147.96 333.75,-166.46"/>
<text text-anchor="middle" x="322" y="-153.91" font-family="Times,serif" font-size="9.00">&#45;1</text>
</g>
<!-- 283 -->
<g id="node27" class="node">
<title>283</title>
<ellipse fill="white" stroke="black" cx="213" cy="-85.85" rx="20.86" ry="20.86"/>
<text text-anchor="middle" x="213" y="-82.55" font-family="Times,serif" font-size="9.00">283</text>
</g>
<!-- &#45;1&#45;&gt;283 -->
<g id="edge20" class="edge">
<title>&#45;1&#45;&gt;283</title>
<path fill="none" stroke="red" stroke-width="0.24" stroke-dasharray="1,5" d="M310.01,-148.49C307.07,-146.59 303.92,-144.58 301,-142.71 280.22,-129.44 256.63,-114.47 239.11,-103.37"/>
<polygon fill="red" stroke="red" stroke-width="0.24" points="241.18,-100.54 230.85,-98.14 237.43,-106.45 241.18,-100.54"/>
</g>
<!-- 284 -->
<g id="node28" class="node">
<title>284</title>
<ellipse fill="white" stroke="black" cx="454" cy="-85.85" rx="20.86" ry="20.86"/>
<text text-anchor="middle" x="454" y="-82.55" font-family="Times,serif" font-size="9.00">284</text>
</g>
<!-- &#45;1&#45;&gt;284 -->
<g id="edge9" class="edge">
<title>&#45;1&#45;&gt;284</title>
<path fill="none" stroke="green" stroke-width="0.2" stroke-dasharray="1,5" d="M333.86,-148.28C336.81,-146.39 339.99,-144.43 343,-142.71 370.71,-126.89 403.44,-110.71 426.15,-99.86"/>
<polygon fill="green" stroke="green" stroke-width="0.2" points="427.41,-103.14 434.95,-95.69 424.41,-96.82 427.41,-103.14"/>
</g>
<!-- &#45;2 -->
<g id="node2" class="node">
<title>&#45;2</title>
<polygon fill="lightgray" stroke="black" points="689.75,-166.46 666.25,-166.46 666.25,-147.96 689.75,-147.96 689.75,-166.46"/>
<text text-anchor="middle" x="678" y="-153.91" font-family="Times,serif" font-size="9.00">&#45;2</text>
</g>
<!-- &#45;3 -->
<g id="node3" class="node">
<title>&#45;3</title>
<polygon fill="lightgray" stroke="black" points="731.75,-166.46 708.25,-166.46 708.25,-147.96 731.75,-147.96 731.75,-166.46"/>
<text text-anchor="middle" x="720" y="-153.91" font-family="Times,serif" font-size="9.00">&#45;3</text>
</g>
<!-- &#45;4 -->
<g id="node4" class="node">
<title>&#45;4</title>
<polygon fill="lightgray" stroke="black" points="161.75,-166.46 138.25,-166.46 138.25,-147.96 161.75,-147.96 161.75,-166.46"/>
<text text-anchor="middle" x="150" y="-153.91" font-family="Times,serif" font-size="9.00">&#45;4</text>
</g>
<!-- &#45;4&#45;&gt;283 -->
<g id="edge21" class="edge">
<title>&#45;4&#45;&gt;283</title>
<path fill="none" stroke="red" stroke-width="0.62" d="M157.73,-147.7C166.19,-138.39 180.13,-123.04 191.89,-110.09"/>
<polygon fill="red" stroke="red" stroke-width="0.62" points="194.46,-112.47 198.59,-102.72 189.27,-107.76 194.46,-112.47"/>
</g>
<!-- &#45;5 -->
<g id="node5" class="node">
<title>&#45;5</title>
<polygon fill="lightgray" stroke="black" points="375.75,-166.46 352.25,-166.46 352.25,-147.96 375.75,-147.96 375.75,-166.46"/>
<text text-anchor="middle" x="364" y="-153.91" font-family="Times,serif" font-size="9.00">&#45;5</text>
</g>
<!-- &#45;5&#45;&gt;283 -->
<g id="edge15" class="edge">
<title>&#45;5&#45;&gt;283</title>
<path fill="none" stroke="green" stroke-width="0.25" stroke-dasharray="1,5" d="M351.77,-147.87C348.94,-146.07 345.91,-144.26 343,-142.71 309.34,-124.82 268.72,-108.1 241.95,-97.7"/>
<polygon fill="green" stroke="green" stroke-width="0.25" points="243.35,-94.49 232.76,-94.17 240.84,-101.02 243.35,-94.49"/>
</g>
<!-- &#45;5&#45;&gt;284 -->
<g id="edge6" class="edge">
<title>&#45;5&#45;&gt;284</title>
<path fill="none" stroke="red" stroke-width="0.49" d="M375.04,-147.7C388.51,-137.32 411.69,-119.45 429.46,-105.76"/>
<polygon fill="red" stroke="red" stroke-width="0.49" points="431.31,-108.75 437.1,-99.88 427.04,-103.21 431.31,-108.75"/>
</g>
<!-- &#45;6 -->
<g id="node6" class="node">
<title>&#45;6</title>
<polygon fill="lightgray" stroke="black" points="601.75,-166.46 578.25,-166.46 578.25,-147.96 601.75,-147.96 601.75,-166.46"/>
<text text-anchor="middle" x="590" y="-153.91" font-family="Times,serif" font-size="9.00">&#45;6</text>
</g>
<!-- &#45;6&#45;&gt;284 -->
<g id="edge19" class="edge">
<title>&#45;6&#45;&gt;284</title>
<path fill="none" stroke="red" stroke-width="0.24" d="M578.16,-148.25C575.21,-146.36 572.02,-144.41 569,-142.71 540.21,-126.54 506.05,-110.31 482.48,-99.54"/>
<polygon fill="red" stroke="red" stroke-width="0.24" points="483.96,-96.36 473.41,-95.42 481.07,-102.74 483.96,-96.36"/>
</g>
<!-- &#45;7 -->
<g id="node7" class="node">
<title>&#45;7</title>
<polygon fill="lightgray" stroke="black" points="203.75,-166.46 180.25,-166.46 180.25,-147.96 203.75,-147.96 203.75,-166.46"/>
<text text-anchor="middle" x="192" y="-153.91" font-family="Times,serif" font-size="9.00">&#45;7</text>
</g>
<!-- &#45;7&#45;&gt;283 -->
<g id="edge12" class="edge">
<title>&#45;7&#45;&gt;283</title>
<path fill="none" stroke="red" stroke-width="0.15" d="M194.58,-147.7C196.98,-139.76 200.71,-127.43 204.19,-115.94"/>
<polygon fill="red" stroke="red" stroke-width="0.15" points="207.53,-116.99 207.08,-106.41 200.83,-114.96 207.53,-116.99"/>
</g>
<!-- &#45;8 -->
<g id="node8" class="node">
<title>&#45;8</title>
<polygon fill="lightgray" stroke="black" points="773.75,-166.46 750.25,-166.46 750.25,-147.96 773.75,-147.96 773.75,-166.46"/>
<text text-anchor="middle" x="762" y="-153.91" font-family="Times,serif" font-size="9.00">&#45;8</text>
</g>
<!-- &#45;9 -->
<g id="node9" class="node">
<title>&#45;9</title>
<polygon fill="lightgray" stroke="black" points="245.75,-166.46 222.25,-166.46 222.25,-147.96 245.75,-147.96 245.75,-166.46"/>
<text text-anchor="middle" x="234" y="-153.91" font-family="Times,serif" font-size="9.00">&#45;9</text>
</g>
<!-- &#45;9&#45;&gt;283 -->
<g id="edge3" class="edge">
<title>&#45;9&#45;&gt;283</title>
<path fill="none" stroke="green" stroke-width="0.58" d="M231.42,-147.7C229.04,-139.84 225.36,-127.68 221.91,-116.29"/>
<polygon fill="green" stroke="green" stroke-width="0.58" points="225.36,-115.59 219.11,-107.04 218.66,-117.62 225.36,-115.59"/>
</g>
<!-- &#45;10 -->
<g id="node10" class="node">
<title>&#45;10</title>
<polygon fill="lightgray" stroke="black" points="468,-166.46 440,-166.46 440,-147.96 468,-147.96 468,-166.46"/>
<text text-anchor="middle" x="454" y="-153.91" font-family="Times,serif" font-size="9.00">&#45;10</text>
</g>
<!-- &#45;10&#45;&gt;284 -->
<g id="edge4" class="edge">
<title>&#45;10&#45;&gt;284</title>
<path fill="none" stroke="green" stroke-width="0.28" d="M454,-147.7C454,-140.08 454,-128.43 454,-117.35"/>
<polygon fill="green" stroke="green" stroke-width="0.28" points="457.5,-117.49 454,-107.49 450.5,-117.49 457.5,-117.49"/>
</g>
<!-- &#45;11 -->
<g id="node11" class="node">
<title>&#45;11</title>
<polygon fill="lightgray" stroke="black" points="28,-166.46 0,-166.46 0,-147.96 28,-147.96 28,-166.46"/>
<text text-anchor="middle" x="14" y="-153.91" font-family="Times,serif" font-size="9.00">&#45;11</text>
</g>
<!-- &#45;11&#45;&gt;283 -->
<g id="edge11" class="edge">
<title>&#45;11&#45;&gt;283</title>
<path fill="none" stroke="red" stroke-width="0.14" d="M27.36,-147.7C30.45,-145.91 33.79,-144.14 37,-142.71 86.44,-120.69 147.22,-103.42 182.88,-94.21"/>
<polygon fill="red" stroke="red" stroke-width="0.14" points="183.63,-97.63 192.46,-91.77 181.91,-90.85 183.63,-97.63"/>
</g>
<!-- &#45;12 -->
<g id="node12" class="node">
<title>&#45;12</title>
<polygon fill="lightgray" stroke="black" points="422,-166.46 394,-166.46 394,-147.96 422,-147.96 422,-166.46"/>
<text text-anchor="middle" x="408" y="-153.91" font-family="Times,serif" font-size="9.00">&#45;12</text>
</g>
<!-- &#45;12&#45;&gt;283 -->
<g id="edge22" class="edge">
<title>&#45;12&#45;&gt;283</title>
<path fill="none" stroke="red" stroke-width="0.16" stroke-dasharray="1,5" d="M394.64,-147.71C391.54,-145.93 388.21,-144.15 385,-142.71 336.91,-121.1 277.9,-103.81 242.99,-94.46"/>
<polygon fill="red" stroke="red" stroke-width="0.16" points="244.18,-91.16 233.62,-91.99 242.4,-97.93 244.18,-91.16"/>
</g>
<!-- &#45;12&#45;&gt;284 -->
<g id="edge5" class="edge">
<title>&#45;12&#45;&gt;284</title>
<path fill="none" stroke="red" stroke-width="0.24" d="M413.64,-147.7C419.43,-138.97 428.73,-124.94 436.95,-112.56"/>
<polygon fill="red" stroke="red" stroke-width="0.24" points="439.87,-114.49 442.48,-104.23 434.03,-110.63 439.87,-114.49"/>
</g>
<!-- &#45;13 -->
<g id="node13" class="node">
<title>&#45;13</title>
<polygon fill="lightgray" stroke="black" points="74,-166.46 46,-166.46 46,-147.96 74,-147.96 74,-166.46"/>
<text text-anchor="middle" x="60" y="-153.91" font-family="Times,serif" font-size="9.00">&#45;13</text>
</g>
<!-- &#45;13&#45;&gt;283 -->
<g id="edge10" class="edge">
<title>&#45;13&#45;&gt;283</title>
<path fill="none" stroke="green" stroke-width="0.37" stroke-dasharray="1,5" d="M73.96,-147.64C76.9,-145.94 80.03,-144.22 83,-142.71 117.02,-125.51 157.56,-108.64 184.22,-98.01"/>
<polygon fill="green" stroke="green" stroke-width="0.37" points="185.18,-101.4 193.2,-94.47 182.61,-94.89 185.18,-101.4"/>
</g>
<!-- &#45;14 -->
<g id="node14" class="node">
<title>&#45;14</title>
<polygon fill="lightgray" stroke="black" points="514,-166.46 486,-166.46 486,-147.96 514,-147.96 514,-166.46"/>
<text text-anchor="middle" x="500" y="-153.91" font-family="Times,serif" font-size="9.00">&#45;14</text>
</g>
<!-- &#45;14&#45;&gt;284 -->
<g id="edge1" class="edge">
<title>&#45;14&#45;&gt;284</title>
<path fill="none" stroke="red" stroke-width="0.23" stroke-dasharray="1,5" d="M494.36,-147.7C488.51,-138.89 479.08,-124.67 470.81,-112.2"/>
<polygon fill="red" stroke="red" stroke-width="0.23" points="473.96,-110.62 465.52,-104.22 468.13,-114.49 473.96,-110.62"/>
</g>
<!-- &#45;15 -->
<g id="node15" class="node">
<title>&#45;15</title>
<polygon fill="lightgray" stroke="black" points="120,-166.46 92,-166.46 92,-147.96 120,-147.96 120,-166.46"/>
<text text-anchor="middle" x="106" y="-153.91" font-family="Times,serif" font-size="9.00">&#45;15</text>
</g>
<!-- &#45;15&#45;&gt;283 -->
<g id="edge17" class="edge">
<title>&#45;15&#45;&gt;283</title>
<path fill="none" stroke="red" stroke-width="0.24" d="M119.12,-147.7C136.02,-136.75 165.75,-117.47 187.24,-103.55"/>
<polygon fill="red" stroke="red" stroke-width="0.24" points="189.09,-106.52 195.58,-98.14 185.28,-100.64 189.09,-106.52"/>
</g>
<!-- &#45;16 -->
<g id="node16" class="node">
<title>&#45;16</title>
<polygon fill="lightgray" stroke="black" points="820,-166.46 792,-166.46 792,-147.96 820,-147.96 820,-166.46"/>
<text text-anchor="middle" x="806" y="-153.91" font-family="Times,serif" font-size="9.00">&#45;16</text>
</g>
<!-- &#45;17 -->
<g id="node17" class="node">
<title>&#45;17</title>
<polygon fill="lightgray" stroke="black" points="292,-166.46 264,-166.46 264,-147.96 292,-147.96 292,-166.46"/>
<text text-anchor="middle" x="278" y="-153.91" font-family="Times,serif" font-size="9.00">&#45;17</text>
</g>
<!-- &#45;17&#45;&gt;283 -->
<g id="edge2" class="edge">
<title>&#45;17&#45;&gt;283</title>
<path fill="none" stroke="red" stroke-width="0.36" d="M270.03,-147.7C261.07,-138.15 246.18,-122.25 233.86,-109.11"/>
<polygon fill="red" stroke="red" stroke-width="0.36" points="236.73,-107.05 227.34,-102.15 231.62,-111.84 236.73,-107.05"/>
</g>
<!-- &#45;17&#45;&gt;284 -->
<g id="edge16" class="edge">
<title>&#45;17&#45;&gt;284</title>
<path fill="none" stroke="green" stroke-width="0.21" stroke-dasharray="1,5" d="M291.89,-147.51C294.85,-145.82 297.98,-144.13 301,-142.71 342.6,-123.11 393.08,-105.87 424.38,-95.9"/>
<polygon fill="green" stroke="green" stroke-width="0.21" points="425.43,-99.24 433.92,-92.9 423.33,-92.56 425.43,-99.24"/>
</g>
<!-- &#45;18 -->
<g id="node18" class="node">
<title>&#45;18</title>
<polygon fill="lightgray" stroke="black" points="866,-166.46 838,-166.46 838,-147.96 866,-147.96 866,-166.46"/>
<text text-anchor="middle" x="852" y="-153.91" font-family="Times,serif" font-size="9.00">&#45;18</text>
</g>
<!-- &#45;19 -->
<g id="node19" class="node">
<title>&#45;19</title>
<polygon fill="lightgray" stroke="black" points="648,-166.46 620,-166.46 620,-147.96 648,-147.96 648,-166.46"/>
<text text-anchor="middle" x="634" y="-153.91" font-family="Times,serif" font-size="9.00">&#45;19</text>
</g>
<!-- 739 -->
<g id="node26" class="node">
<title>739</title>
<ellipse fill="white" stroke="black" cx="634" cy="-85.85" rx="20.86" ry="20.86"/>
<text text-anchor="middle" x="634" y="-82.55" font-family="Times,serif" font-size="9.00">739</text>
</g>
<!-- &#45;19&#45;&gt;739 -->
<g id="edge23" class="edge">
<title>&#45;19&#45;&gt;739</title>
<path fill="none" stroke="red" stroke-width="0.14" stroke-dasharray="1,5" d="M634,-147.7C634,-140 634,-128.19 634,-117.01"/>
<polygon fill="red" stroke="red" stroke-width="0.14" points="637.5,-117.28 634,-107.28 630.5,-117.28 637.5,-117.28"/>
</g>
<!-- &#45;19&#45;&gt;284 -->
<g id="edge14" class="edge">
<title>&#45;19&#45;&gt;284</title>
<path fill="none" stroke="green" stroke-width="0.21" d="M620.12,-147.5C617.16,-145.8 614.02,-144.12 611,-142.71 568.06,-122.69 515.8,-105.42 483.73,-95.58"/>
<polygon fill="green" stroke="green" stroke-width="0.21" points="484.95,-92.3 474.37,-92.75 482.92,-99 484.95,-92.3"/>
</g>
<!-- &#45;20 -->
<g id="node20" class="node">
<title>&#45;20</title>
<polygon fill="lightgray" stroke="black" points="560,-166.46 532,-166.46 532,-147.96 560,-147.96 560,-166.46"/>
<text text-anchor="middle" x="546" y="-153.91" font-family="Times,serif" font-size="9.00">&#45;20</text>
</g>
<!-- &#45;20&#45;&gt;284 -->
<g id="edge13" class="edge">
<title>&#45;20&#45;&gt;284</title>
<path fill="none" stroke="green" stroke-width="0.71" d="M534.72,-147.7C520.86,-137.26 496.96,-119.24 478.75,-105.51"/>
<polygon fill="green" stroke="green" stroke-width="0.71" points="481.29,-103.04 471.19,-99.81 477.07,-108.63 481.29,-103.04"/>
</g>
<!-- 0 -->
<g id="node21" class="node">
<title>0</title>
<ellipse fill="lightblue" stroke="black" cx="898" cy="-157.21" rx="14.5" ry="14.5"/>
<text text-anchor="middle" x="898" y="-153.91" font-family="Times,serif" font-size="9.00">0</text>
</g>
<!-- 1 -->
<g id="node22" class="node">
<title>1</title>
<ellipse fill="lightblue" stroke="black" cx="407" cy="-14.5" rx="14.5" ry="14.5"/>
<text text-anchor="middle" x="407" y="-11.2" font-family="Times,serif" font-size="9.00">1</text>
</g>
<!-- 2 -->
<g id="node23" class="node">
<title>2</title>
<ellipse fill="lightblue" stroke="black" cx="454" cy="-14.5" rx="14.5" ry="14.5"/>
<text text-anchor="middle" x="454" y="-11.2" font-family="Times,serif" font-size="9.00">2</text>
</g>
<!-- 3 -->
<g id="node24" class="node">
<title>3</title>
<ellipse fill="lightblue" stroke="black" cx="501" cy="-14.5" rx="14.5" ry="14.5"/>
<text text-anchor="middle" x="501" y="-11.2" font-family="Times,serif" font-size="9.00">3</text>
</g>
<!-- 4 -->
<g id="node25" class="node">
<title>4</title>
<ellipse fill="lightblue" stroke="black" cx="945" cy="-157.21" rx="14.5" ry="14.5"/>
<text text-anchor="middle" x="945" y="-153.91" font-family="Times,serif" font-size="9.00">4</text>
</g>
<!-- 284&#45;&gt;1 -->
<g id="edge8" class="edge">
<title>284&#45;&gt;1</title>
<path fill="none" stroke="green" stroke-width="0.53" d="M442.62,-68.06C436.05,-58.36 427.73,-46.09 420.79,-35.85"/>
<polygon fill="green" stroke="green" stroke-width="0.53" points="423.85,-34.12 415.34,-27.8 418.05,-38.04 423.85,-34.12"/>
</g>
<!-- 284&#45;&gt;2 -->
<g id="edge7" class="edge">
<title>284&#45;&gt;2</title>
<path fill="none" stroke="red" stroke-width="0.18" d="M454,-64.79C454,-56.89 454,-47.75 454,-39.5"/>
<polygon fill="red" stroke="red" stroke-width="0.18" points="457.5,-39.62 454,-29.62 450.5,-39.62 457.5,-39.62"/>
</g>
<!-- 284&#45;&gt;3 -->
<g id="edge18" class="edge">
<title>284&#45;&gt;3</title>
<path fill="none" stroke="red" stroke-width="0.11" d="M465.38,-68.06C472.02,-58.26 480.44,-45.84 487.42,-35.53"/>
<polygon fill="red" stroke="red" stroke-width="0.11" points="490.3,-37.52 493.02,-27.28 484.51,-33.59 490.3,-37.52"/>
</g>
</g>
</svg>
