<?xml version="1.0" encoding="UTF-8" standalone="no"?>
<!DOCTYPE svg PUBLIC "-//W3C//DTD SVG 1.1//EN"
 "http://www.w3.org/Graphics/SVG/1.1/DTD/svg11.dtd">
<!-- Generated by graphviz version 12.1.1 (20240910.0053)
 -->
<!-- Pages: 1 -->
<svg width="973pt" height="325pt"
 viewBox="0.00 0.00 972.75 324.65" xmlns="http://www.w3.org/2000/svg" xmlns:xlink="http://www.w3.org/1999/xlink">
<g id="graph0" class="graph" transform="scale(1 1) rotate(0) translate(4 320.65)">
<polygon fill="white" stroke="none" points="-4,4 -4,-320.65 968.75,-320.65 968.75,4 -4,4"/>
<!-- &#45;1 -->
<g id="node1" class="node">
<title>&#45;1</title>
<polygon fill="lightgray" stroke="black" points="103.5,-250.54 80,-250.54 80,-232.04 103.5,-232.04 103.5,-250.54"/>
<text text-anchor="middle" x="91.75" y="-237.99" font-family="Times,serif" font-size="9.00">&#45;1</text>
</g>
<!-- 96 -->
<g id="node26" class="node">
<title>96</title>
<ellipse fill="white" stroke="black" cx="158.75" cy="-163.57" rx="17.68" ry="17.68"/>
<text text-anchor="middle" x="158.75" y="-160.27" font-family="Times,serif" font-size="9.00">96</text>
</g>
<!-- &#45;1&#45;&gt;96 -->
<g id="edge34" class="edge">
<title>&#45;1&#45;&gt;96</title>
<path fill="none" stroke="green" stroke-width="0.27" d="M99.44,-231.6C109.45,-220.29 127.26,-200.16 140.76,-184.9"/>
<polygon fill="green" stroke="green" stroke-width="0.27" points="143.09,-187.55 147.1,-177.74 137.85,-182.91 143.09,-187.55"/>
</g>
<!-- 94 -->
<g id="node32" class="node">
<title>94</title>
<ellipse fill="white" stroke="black" cx="391.75" cy="-163.57" rx="17.68" ry="17.68"/>
<text text-anchor="middle" x="391.75" y="-160.27" font-family="Times,serif" font-size="9.00">94</text>
</g>
<!-- &#45;1&#45;&gt;94 -->
<g id="edge18" class="edge">
<title>&#45;1&#45;&gt;94</title>
<path fill="none" stroke="green" stroke-width="0.2" stroke-dasharray="1,5" d="M98.64,-231.65C102.37,-227.57 107.33,-223.05 112.75,-220.43 214.64,-171.25 260.02,-227.24 364.75,-184.43 366.61,-183.67 368.46,-182.75 370.26,-181.74"/>
<polygon fill="green" stroke="green" stroke-width="0.2" points="372.15,-184.69 378.56,-176.25 368.29,-178.85 372.15,-184.69"/>
</g>
<!-- &#45;2 -->
<g id="node2" class="node">
<title>&#45;2</title>
<polygon fill="lightgray" stroke="black" points="237.5,-250.54 214,-250.54 214,-232.04 237.5,-232.04 237.5,-250.54"/>
<text text-anchor="middle" x="225.75" y="-237.99" font-family="Times,serif" font-size="9.00">&#45;2</text>
</g>
<!-- &#45;2&#45;&gt;96 -->
<g id="edge10" class="edge">
<title>&#45;2&#45;&gt;96</title>
<path fill="none" stroke="green" stroke-width="0.26" d="M218.06,-231.6C208.05,-220.29 190.24,-200.16 176.74,-184.9"/>
<polygon fill="green" stroke="green" stroke-width="0.26" points="179.65,-182.91 170.4,-177.74 174.41,-187.55 179.65,-182.91"/>
</g>
<!-- &#45;2&#45;&gt;94 -->
<g id="edge2" class="edge">
<title>&#45;2&#45;&gt;94</title>
<path fill="none" stroke="green" stroke-width="0.14" d="M235.33,-231.7C240.02,-227.84 245.91,-223.47 251.75,-220.43 298.49,-196.07 317.79,-208.36 364.75,-184.43 366.5,-183.54 368.26,-182.54 369.99,-181.47"/>
<polygon fill="green" stroke="green" stroke-width="0.14" points="371.84,-184.44 378.12,-175.91 367.89,-178.66 371.84,-184.44"/>
</g>
<!-- 95 -->
<g id="node33" class="node">
<title>95</title>
<ellipse fill="white" stroke="black" cx="543.75" cy="-163.57" rx="17.68" ry="17.68"/>
<text text-anchor="middle" x="543.75" y="-160.27" font-family="Times,serif" font-size="9.00">95</text>
</g>
<!-- &#45;2&#45;&gt;95 -->
<g id="edge31" class="edge">
<title>&#45;2&#45;&gt;95</title>
<path fill="none" stroke="red" stroke-width="0.11" d="M237.83,-235.78C249.67,-231.46 268.29,-224.96 284.75,-220.43 368.24,-197.45 469.01,-178.06 516.48,-169.41"/>
<polygon fill="red" stroke="red" stroke-width="0.11" points="516.93,-172.88 526.15,-167.66 515.68,-165.99 516.93,-172.88"/>
</g>
<!-- &#45;3 -->
<g id="node3" class="node">
<title>&#45;3</title>
<polygon fill="lightgray" stroke="black" points="872.5,-316.65 849,-316.65 849,-298.15 872.5,-298.15 872.5,-316.65"/>
<text text-anchor="middle" x="860.75" y="-304.1" font-family="Times,serif" font-size="9.00">&#45;3</text>
</g>
<!-- &#45;4 -->
<g id="node4" class="node">
<title>&#45;4</title>
<polygon fill="lightgray" stroke="black" points="919.5,-250.54 896,-250.54 896,-232.04 919.5,-232.04 919.5,-250.54"/>
<text text-anchor="middle" x="907.75" y="-237.99" font-family="Times,serif" font-size="9.00">&#45;4</text>
</g>
<!-- 3 -->
<g id="node24" class="node">
<title>3</title>
<ellipse fill="lightblue" stroke="black" cx="765.75" cy="-85.85" rx="14.5" ry="14.5"/>
<text text-anchor="middle" x="765.75" y="-82.55" font-family="Times,serif" font-size="9.00">3</text>
</g>
<!-- &#45;4&#45;&gt;3 -->
<g id="edge44" class="edge">
<title>&#45;4&#45;&gt;3</title>
<path fill="none" stroke="red" stroke-width="0.32" stroke-dasharray="1,5" d="M899.71,-231.6C877.1,-207.17 812.64,-137.52 782.14,-104.56"/>
<polygon fill="red" stroke="red" stroke-width="0.32" points="784.85,-102.33 775.49,-97.37 779.71,-107.09 784.85,-102.33"/>
</g>
<!-- 93 -->
<g id="node31" class="node">
<title>93</title>
<ellipse fill="white" stroke="black" cx="765.75" cy="-163.57" rx="17.68" ry="17.68"/>
<text text-anchor="middle" x="765.75" y="-160.27" font-family="Times,serif" font-size="9.00">93</text>
</g>
<!-- &#45;4&#45;&gt;93 -->
<g id="edge7" class="edge">
<title>&#45;4&#45;&gt;93</title>
<path fill="none" stroke="green" stroke-width="0.44" d="M897.47,-231.67C892.83,-227.98 887.17,-223.76 881.75,-220.43 852.21,-202.3 815.9,-185.64 791.86,-175.32"/>
<polygon fill="green" stroke="green" stroke-width="0.44" points="793.24,-172.11 782.67,-171.43 790.52,-178.55 793.24,-172.11"/>
</g>
<!-- &#45;5 -->
<g id="node5" class="node">
<title>&#45;5</title>
<polygon fill="lightgray" stroke="black" points="23.5,-250.54 0,-250.54 0,-232.04 23.5,-232.04 23.5,-250.54"/>
<text text-anchor="middle" x="11.75" y="-237.99" font-family="Times,serif" font-size="9.00">&#45;5</text>
</g>
<!-- &#45;5&#45;&gt;96 -->
<g id="edge23" class="edge">
<title>&#45;5&#45;&gt;96</title>
<path fill="none" stroke="red" stroke-width="0.45" stroke-dasharray="1,5" d="M22,-231.62C26.64,-227.93 32.3,-223.71 37.75,-220.43 68.79,-201.72 107.14,-185 132.24,-174.83"/>
<polygon fill="red" stroke="red" stroke-width="0.45" points="133.49,-178.1 141.48,-171.14 130.9,-171.6 133.49,-178.1"/>
</g>
<!-- &#45;6 -->
<g id="node6" class="node">
<title>&#45;6</title>
<polygon fill="lightgray" stroke="black" points="317.5,-250.54 294,-250.54 294,-232.04 317.5,-232.04 317.5,-250.54"/>
<text text-anchor="middle" x="305.75" y="-237.99" font-family="Times,serif" font-size="9.00">&#45;6</text>
</g>
<!-- &#45;6&#45;&gt;96 -->
<g id="edge39" class="edge">
<title>&#45;6&#45;&gt;96</title>
<path fill="none" stroke="green" stroke-width="0.38" d="M293.72,-234.09C269.73,-221.74 215.52,-193.81 183.58,-177.36"/>
<polygon fill="green" stroke="green" stroke-width="0.38" points="185.44,-174.38 174.95,-172.91 182.24,-180.61 185.44,-174.38"/>
</g>
<!-- &#45;6&#45;&gt;94 -->
<g id="edge14" class="edge">
<title>&#45;6&#45;&gt;94</title>
<path fill="none" stroke="red" stroke-width="0.56" d="M314.66,-231.69C318.36,-228.16 322.73,-224.06 326.75,-220.43 341.03,-207.56 357.45,-193.45 370.21,-182.64"/>
<polygon fill="red" stroke="red" stroke-width="0.56" points="372.37,-185.4 377.75,-176.27 367.85,-180.05 372.37,-185.4"/>
</g>
<!-- &#45;6&#45;&gt;95 -->
<g id="edge22" class="edge">
<title>&#45;6&#45;&gt;95</title>
<path fill="none" stroke="red" stroke-width="0.15" stroke-dasharray="1,5" d="M312.77,-231.9C316.54,-227.89 321.48,-223.34 326.75,-220.43 388.9,-186.09 472.74,-172.32 515.75,-167.25"/>
<polygon fill="red" stroke="red" stroke-width="0.15" points="515.98,-170.74 525.53,-166.16 515.21,-163.79 515.98,-170.74"/>
</g>
<!-- &#45;7 -->
<g id="node7" class="node">
<title>&#45;7</title>
<polygon fill="lightgray" stroke="black" points="359.5,-250.54 336,-250.54 336,-232.04 359.5,-232.04 359.5,-250.54"/>
<text text-anchor="middle" x="347.75" y="-237.99" font-family="Times,serif" font-size="9.00">&#45;7</text>
</g>
<!-- &#45;7&#45;&gt;94 -->
<g id="edge17" class="edge">
<title>&#45;7&#45;&gt;94</title>
<path fill="none" stroke="red" stroke-width="0.22" stroke-dasharray="1,5" d="M352.8,-231.6C358.93,-221.05 369.52,-202.83 378.11,-188.05"/>
<polygon fill="red" stroke="red" stroke-width="0.22" points="380.98,-190.08 382.97,-179.67 374.92,-186.56 380.98,-190.08"/>
</g>
<!-- &#45;8 -->
<g id="node8" class="node">
<title>&#45;8</title>
<polygon fill="lightgray" stroke="black" points="830.5,-316.65 807,-316.65 807,-298.15 830.5,-298.15 830.5,-316.65"/>
<text text-anchor="middle" x="818.75" y="-304.1" font-family="Times,serif" font-size="9.00">&#45;8</text>
</g>
<!-- &#45;8&#45;&gt;96 -->
<g id="edge19" class="edge">
<title>&#45;8&#45;&gt;96</title>
<path fill="none" stroke="green" stroke-width="0.19" d="M806.55,-306.15C711.85,-304.15 97.1,-290.1 70.75,-262.15 58.03,-248.66 61.82,-236.68 70.75,-220.43 83.71,-196.85 111.3,-181.82 132.15,-173.36"/>
<polygon fill="green" stroke="green" stroke-width="0.19" points="133.38,-176.64 141.49,-169.83 130.9,-170.09 133.38,-176.64"/>
</g>
<!-- 359 -->
<g id="node28" class="node">
<title>359</title>
<ellipse fill="white" stroke="black" cx="818.75" cy="-241.29" rx="20.86" ry="20.86"/>
<text text-anchor="middle" x="818.75" y="-237.99" font-family="Times,serif" font-size="9.00">359</text>
</g>
<!-- &#45;8&#45;&gt;359 -->
<g id="edge41" class="edge">
<title>&#45;8&#45;&gt;359</title>
<path fill="none" stroke="green" stroke-width="0.15" d="M818.75,-297.75C818.75,-291.25 818.75,-281.91 818.75,-272.75"/>
<polygon fill="green" stroke="green" stroke-width="0.15" points="822.25,-272.88 818.75,-262.88 815.25,-272.88 822.25,-272.88"/>
</g>
<!-- &#45;8&#45;&gt;93 -->
<g id="edge29" class="edge">
<title>&#45;8&#45;&gt;93</title>
<path fill="none" stroke="red" stroke-width="0.12" stroke-dasharray="1,5" d="M826.96,-297.75C834.29,-289.39 844.5,-275.99 848.75,-262.15 854.19,-244.42 857.46,-236.8 848.75,-220.43 836.81,-198 811.41,-182.97 791.84,-174.2"/>
<polygon fill="red" stroke="red" stroke-width="0.12" points="793.26,-171 782.68,-170.36 790.55,-177.45 793.26,-171"/>
</g>
<!-- &#45;9 -->
<g id="node9" class="node">
<title>&#45;9</title>
<polygon fill="lightgray" stroke="black" points="456.5,-316.65 433,-316.65 433,-298.15 456.5,-298.15 456.5,-316.65"/>
<text text-anchor="middle" x="444.75" y="-304.1" font-family="Times,serif" font-size="9.00">&#45;9</text>
</g>
<!-- 457 -->
<g id="node29" class="node">
<title>457</title>
<ellipse fill="white" stroke="black" cx="444.75" cy="-241.29" rx="20.86" ry="20.86"/>
<text text-anchor="middle" x="444.75" y="-237.99" font-family="Times,serif" font-size="9.00">457</text>
</g>
<!-- &#45;9&#45;&gt;457 -->
<g id="edge45" class="edge">
<title>&#45;9&#45;&gt;457</title>
<path fill="none" stroke="green" stroke-width="0.17" d="M444.75,-297.75C444.75,-291.25 444.75,-281.91 444.75,-272.75"/>
<polygon fill="green" stroke="green" stroke-width="0.17" points="448.25,-272.9 444.75,-262.9 441.25,-272.9 448.25,-272.9"/>
</g>
<!-- &#45;9&#45;&gt;93 -->
<g id="edge28" class="edge">
<title>&#45;9&#45;&gt;93</title>
<path fill="none" stroke="red" stroke-width="0.12" stroke-dasharray="1,5" d="M456.86,-305.64C502.43,-302.6 663.1,-290.06 704.75,-262.15 730.48,-244.91 747.42,-212.75 756.78,-190.08"/>
<polygon fill="red" stroke="red" stroke-width="0.12" points="759.99,-191.48 760.37,-180.89 753.47,-188.93 759.99,-191.48"/>
</g>
<!-- &#45;9&#45;&gt;94 -->
<g id="edge15" class="edge">
<title>&#45;9&#45;&gt;94</title>
<path fill="none" stroke="green" stroke-width="0.17" stroke-dasharray="1,5" d="M432.88,-304.96C399,-300.58 303.08,-286.23 284.75,-262.15 273.52,-247.39 274.68,-236 284.75,-220.43 305.92,-187.69 331.08,-204.09 364.75,-184.43 366.45,-183.44 368.16,-182.37 369.87,-181.25"/>
<polygon fill="green" stroke="green" stroke-width="0.17" points="371.73,-184.21 377.91,-175.61 367.71,-178.48 371.73,-184.21"/>
</g>
<!-- &#45;10 -->
<g id="node10" class="node">
<title>&#45;10</title>
<polygon fill="lightgray" stroke="black" points="405.75,-250.54 377.75,-250.54 377.75,-232.04 405.75,-232.04 405.75,-250.54"/>
<text text-anchor="middle" x="391.75" y="-237.99" font-family="Times,serif" font-size="9.00">&#45;10</text>
</g>
<!-- &#45;10&#45;&gt;94 -->
<g id="edge38" class="edge">
<title>&#45;10&#45;&gt;94</title>
<path fill="none" stroke="red" stroke-width="0.22" stroke-dasharray="1,5" d="M391.75,-231.6C391.75,-221.95 391.75,-205.86 391.75,-191.87"/>
<polygon fill="red" stroke="red" stroke-width="0.22" points="395.25,-192.05 391.75,-182.05 388.25,-192.05 395.25,-192.05"/>
</g>
<!-- &#45;11 -->
<g id="node11" class="node">
<title>&#45;11</title>
<polygon fill="lightgray" stroke="black" points="149.75,-250.54 121.75,-250.54 121.75,-232.04 149.75,-232.04 149.75,-250.54"/>
<text text-anchor="middle" x="135.75" y="-237.99" font-family="Times,serif" font-size="9.00">&#45;11</text>
</g>
<!-- &#45;11&#45;&gt;96 -->
<g id="edge9" class="edge">
<title>&#45;11&#45;&gt;96</title>
<path fill="none" stroke="red" stroke-width="0.16" stroke-dasharray="1,5" d="M138.39,-231.6C141.44,-221.57 146.59,-204.59 150.96,-190.23"/>
<polygon fill="red" stroke="red" stroke-width="0.16" points="154.18,-191.64 153.74,-181.06 147.49,-189.61 154.18,-191.64"/>
</g>
<!-- &#45;11&#45;&gt;94 -->
<g id="edge16" class="edge">
<title>&#45;11&#45;&gt;94</title>
<path fill="none" stroke="red" stroke-width="0.74" stroke-dasharray="1,5" d="M143.48,-231.73C147.62,-227.67 153.03,-223.14 158.75,-220.43 242.74,-180.62 279.27,-220.93 364.75,-184.43 366.44,-183.71 368.13,-182.86 369.78,-181.93"/>
<polygon fill="red" stroke="red" stroke-width="0.74" points="371.42,-185.05 377.83,-176.61 367.55,-179.21 371.42,-185.05"/>
</g>
<!-- &#45;12 -->
<g id="node12" class="node">
<title>&#45;12</title>
<polygon fill="lightgray" stroke="black" points="557.75,-250.54 529.75,-250.54 529.75,-232.04 557.75,-232.04 557.75,-250.54"/>
<text text-anchor="middle" x="543.75" y="-237.99" font-family="Times,serif" font-size="9.00">&#45;12</text>
</g>
<!-- &#45;12&#45;&gt;94 -->
<g id="edge24" class="edge">
<title>&#45;12&#45;&gt;94</title>
<path fill="none" stroke="green" stroke-width="0.83" stroke-dasharray="1,5" d="M535.29,-231.89C531.14,-228.07 525.93,-223.68 520.75,-220.43 487.83,-199.77 445.95,-183.2 418.99,-173.62"/>
<polygon fill="green" stroke="green" stroke-width="0.83" points="420.21,-170.34 409.61,-170.37 417.92,-176.95 420.21,-170.34"/>
</g>
<!-- &#45;12&#45;&gt;95 -->
<g id="edge20" class="edge">
<title>&#45;12&#45;&gt;95</title>
<path fill="none" stroke="green" stroke-width="0.3" d="M543.75,-231.6C543.75,-221.95 543.75,-205.86 543.75,-191.87"/>
<polygon fill="green" stroke="green" stroke-width="0.3" points="547.25,-192.17 543.75,-182.17 540.25,-192.17 547.25,-192.17"/>
</g>
<!-- &#45;13 -->
<g id="node13" class="node">
<title>&#45;13</title>
<polygon fill="lightgray" stroke="black" points="918.75,-316.65 890.75,-316.65 890.75,-298.15 918.75,-298.15 918.75,-316.65"/>
<text text-anchor="middle" x="904.75" y="-304.1" font-family="Times,serif" font-size="9.00">&#45;13</text>
</g>
<!-- &#45;14 -->
<g id="node14" class="node">
<title>&#45;14</title>
<polygon fill="lightgray" stroke="black" points="195.75,-250.54 167.75,-250.54 167.75,-232.04 195.75,-232.04 195.75,-250.54"/>
<text text-anchor="middle" x="181.75" y="-237.99" font-family="Times,serif" font-size="9.00">&#45;14</text>
</g>
<!-- &#45;14&#45;&gt;96 -->
<g id="edge27" class="edge">
<title>&#45;14&#45;&gt;96</title>
<path fill="none" stroke="red" stroke-width="0.1" d="M179.11,-231.6C176.06,-221.57 170.91,-204.59 166.54,-190.23"/>
<polygon fill="red" stroke="red" stroke-width="0.1" points="169.99,-189.53 163.73,-180.97 163.29,-191.56 169.99,-189.53"/>
</g>
<!-- &#45;14&#45;&gt;94 -->
<g id="edge6" class="edge">
<title>&#45;14&#45;&gt;94</title>
<path fill="none" stroke="green" stroke-width="0.35" d="M189.54,-231.84C193.69,-227.82 199.1,-223.28 204.75,-220.43 269.84,-187.63 298.43,-214.67 364.75,-184.43 366.58,-183.6 368.4,-182.63 370.19,-181.57"/>
<polygon fill="green" stroke="green" stroke-width="0.35" points="371.93,-184.63 378.27,-176.14 368.02,-178.82 371.93,-184.63"/>
</g>
<!-- &#45;15 -->
<g id="node15" class="node">
<title>&#45;15</title>
<polygon fill="lightgray" stroke="black" points="964.75,-316.65 936.75,-316.65 936.75,-298.15 964.75,-298.15 964.75,-316.65"/>
<text text-anchor="middle" x="950.75" y="-304.1" font-family="Times,serif" font-size="9.00">&#45;15</text>
</g>
<!-- &#45;16 -->
<g id="node16" class="node">
<title>&#45;16</title>
<polygon fill="lightgray" stroke="black" points="695.75,-250.54 667.75,-250.54 667.75,-232.04 695.75,-232.04 695.75,-250.54"/>
<text text-anchor="middle" x="681.75" y="-237.99" font-family="Times,serif" font-size="9.00">&#45;16</text>
</g>
<!-- &#45;16&#45;&gt;93 -->
<g id="edge11" class="edge">
<title>&#45;16&#45;&gt;93</title>
<path fill="none" stroke="red" stroke-width="0.58" stroke-dasharray="1,5" d="M691.39,-231.6C704.42,-219.85 728.01,-198.59 745.13,-183.15"/>
<polygon fill="red" stroke="red" stroke-width="0.58" points="747.21,-186 752.29,-176.7 742.52,-180.8 747.21,-186"/>
</g>
<!-- &#45;16&#45;&gt;94 -->
<g id="edge40" class="edge">
<title>&#45;16&#45;&gt;94</title>
<path fill="none" stroke="green" stroke-width="0.36" stroke-dasharray="1,5" d="M673.98,-231.81C669.83,-227.78 664.42,-223.24 658.75,-220.43 616.59,-199.58 479.11,-177.46 419.61,-168.59"/>
<polygon fill="green" stroke="green" stroke-width="0.36" points="420.39,-165.16 409.99,-167.17 419.37,-172.09 420.39,-165.16"/>
</g>
<!-- &#45;17 -->
<g id="node17" class="node">
<title>&#45;17</title>
<polygon fill="lightgray" stroke="black" points="603.75,-250.54 575.75,-250.54 575.75,-232.04 603.75,-232.04 603.75,-250.54"/>
<text text-anchor="middle" x="589.75" y="-237.99" font-family="Times,serif" font-size="9.00">&#45;17</text>
</g>
<!-- &#45;17&#45;&gt;94 -->
<g id="edge35" class="edge">
<title>&#45;17&#45;&gt;94</title>
<path fill="none" stroke="green" stroke-width="0.11" stroke-dasharray="1,5" d="M581.43,-231.65C577.31,-227.78 572.09,-223.42 566.75,-220.43 518.25,-193.26 454.67,-177.2 419.03,-169.71"/>
<polygon fill="green" stroke="green" stroke-width="0.11" points="419.98,-166.33 409.49,-167.77 418.59,-173.19 419.98,-166.33"/>
</g>
<!-- &#45;17&#45;&gt;95 -->
<g id="edge5" class="edge">
<title>&#45;17&#45;&gt;95</title>
<path fill="none" stroke="green" stroke-width="0.23" stroke-dasharray="1,5" d="M584.47,-231.6C578.02,-220.99 566.86,-202.61 557.85,-187.78"/>
<polygon fill="green" stroke="green" stroke-width="0.23" points="560.94,-186.13 552.76,-179.4 554.96,-189.77 560.94,-186.13"/>
</g>
<!-- &#45;18 -->
<g id="node18" class="node">
<title>&#45;18</title>
<polygon fill="lightgray" stroke="black" points="649.75,-250.54 621.75,-250.54 621.75,-232.04 649.75,-232.04 649.75,-250.54"/>
<text text-anchor="middle" x="635.75" y="-237.99" font-family="Times,serif" font-size="9.00">&#45;18</text>
</g>
<!-- &#45;18&#45;&gt;94 -->
<g id="edge1" class="edge">
<title>&#45;18&#45;&gt;94</title>
<path fill="none" stroke="red" stroke-width="0.19" stroke-dasharray="1,5" d="M627.93,-231.9C623.77,-227.9 618.37,-223.35 612.75,-220.43 548.51,-186.99 463.19,-172.82 419.75,-167.45"/>
<polygon fill="red" stroke="red" stroke-width="0.19" points="420.27,-163.99 409.93,-166.3 419.46,-170.94 420.27,-163.99"/>
</g>
<!-- &#45;18&#45;&gt;95 -->
<g id="edge25" class="edge">
<title>&#45;18&#45;&gt;95</title>
<path fill="none" stroke="green" stroke-width="0.12" d="M625.96,-231.72C621.9,-228.19 617.12,-224.08 612.75,-220.43 596.99,-207.25 578.93,-192.65 565.24,-181.68"/>
<polygon fill="green" stroke="green" stroke-width="0.12" points="567.47,-178.98 557.48,-175.47 563.1,-184.45 567.47,-178.98"/>
</g>
<!-- &#45;19 -->
<g id="node19" class="node">
<title>&#45;19</title>
<polygon fill="lightgray" stroke="black" points="511.75,-250.54 483.75,-250.54 483.75,-232.04 511.75,-232.04 511.75,-250.54"/>
<text text-anchor="middle" x="497.75" y="-237.99" font-family="Times,serif" font-size="9.00">&#45;19</text>
</g>
<!-- &#45;19&#45;&gt;94 -->
<g id="edge32" class="edge">
<title>&#45;19&#45;&gt;94</title>
<path fill="none" stroke="red" stroke-width="0.14" d="M488.56,-231.91C484.43,-228.27 479.45,-224.02 474.75,-220.43 455.12,-205.44 431.69,-189.86 414.73,-178.98"/>
<polygon fill="red" stroke="red" stroke-width="0.14" points="417,-176.28 406.69,-173.86 413.24,-182.18 417,-176.28"/>
</g>
<!-- &#45;20 -->
<g id="node20" class="node">
<title>&#45;20</title>
<polygon fill="lightgray" stroke="black" points="779.75,-250.54 751.75,-250.54 751.75,-232.04 779.75,-232.04 779.75,-250.54"/>
<text text-anchor="middle" x="765.75" y="-237.99" font-family="Times,serif" font-size="9.00">&#45;20</text>
</g>
<!-- &#45;20&#45;&gt;93 -->
<g id="edge33" class="edge">
<title>&#45;20&#45;&gt;93</title>
<path fill="none" stroke="red" stroke-width="0.17" stroke-dasharray="1,5" d="M765.75,-231.6C765.75,-221.95 765.75,-205.86 765.75,-191.87"/>
<polygon fill="red" stroke="red" stroke-width="0.17" points="769.25,-191.97 765.75,-181.97 762.25,-191.97 769.25,-191.97"/>
</g>
<!-- 0 -->
<g id="node21" class="node">
<title>0</title>
<ellipse fill="lightblue" stroke="black" cx="543.75" cy="-85.85" rx="14.5" ry="14.5"/>
<text text-anchor="middle" x="543.75" y="-82.55" font-family="Times,serif" font-size="9.00">0</text>
</g>
<!-- 1 -->
<g id="node22" class="node">
<title>1</title>
<ellipse fill="lightblue" stroke="black" cx="391.75" cy="-85.85" rx="14.5" ry="14.5"/>
<text text-anchor="middle" x="391.75" y="-82.55" font-family="Times,serif" font-size="9.00">1</text>
</g>
<!-- 2 -->
<g id="node23" class="node">
<title>2</title>
<ellipse fill="lightblue" stroke="black" cx="207.75" cy="-14.5" rx="14.5" ry="14.5"/>
<text text-anchor="middle" x="207.75" y="-11.2" font-family="Times,serif" font-size="9.00">2</text>
</g>
<!-- 4 -->
<g id="node25" class="node">
<title>4</title>
<ellipse fill="lightblue" stroke="black" cx="645.75" cy="-85.85" rx="14.5" ry="14.5"/>
<text text-anchor="middle" x="645.75" y="-82.55" font-family="Times,serif" font-size="9.00">4</text>
</g>
<!-- 4&#45;&gt;4 -->
<g id="edge12" class="edge">
<title>4&#45;&gt;4</title>
<path fill="none" stroke="red" stroke-width="0.16" stroke-dasharray="1,5" d="M656.07,-96.29C666.56,-102.43 678.25,-98.95 678.25,-85.85 678.25,-76.84 672.72,-72.39 665.86,-72.47"/>
<polygon fill="red" stroke="red" stroke-width="0.16" points="664.87,-69.12 656.3,-75.34 666.88,-75.82 664.87,-69.12"/>
</g>
<!-- 96&#45;&gt;2 -->
<g id="edge37" class="edge">
<title>96&#45;&gt;2</title>
<path fill="none" stroke="green" stroke-width="0.5" stroke-dasharray="1,5" d="M160.24,-145.49C162.38,-125.61 167.3,-92.04 177.75,-64.99 181.74,-54.67 187.85,-44.06 193.52,-35.33"/>
<polygon fill="green" stroke="green" stroke-width="0.5" points="196.24,-37.56 198.95,-27.32 190.44,-33.63 196.24,-37.56"/>
</g>
<!-- 579 -->
<g id="node27" class="node">
<title>579</title>
<ellipse fill="white" stroke="black" cx="207.75" cy="-85.85" rx="20.86" ry="20.86"/>
<text text-anchor="middle" x="207.75" y="-82.55" font-family="Times,serif" font-size="9.00">579</text>
</g>
<!-- 96&#45;&gt;579 -->
<g id="edge47" class="edge">
<title>96&#45;&gt;579</title>
<path fill="none" stroke="green" stroke-width="0.36" d="M167.97,-148.33C174.46,-138.29 183.34,-124.57 191.07,-112.63"/>
<polygon fill="green" stroke="green" stroke-width="0.36" points="193.9,-114.69 196.4,-104.4 188.02,-110.89 193.9,-114.69"/>
</g>
<!-- 579&#45;&gt;2 -->
<g id="edge48" class="edge">
<title>579&#45;&gt;2</title>
<path fill="none" stroke="green" stroke-width="0.25" d="M207.75,-64.79C207.75,-56.89 207.75,-47.75 207.75,-39.5"/>
<polygon fill="green" stroke="green" stroke-width="0.25" points="211.25,-39.74 207.75,-29.74 204.25,-39.74 211.25,-39.74"/>
</g>
<!-- 359&#45;&gt;93 -->
<g id="edge42" class="edge">
<title>359&#45;&gt;93</title>
<path fill="none" stroke="green" stroke-width="0.5" d="M806.99,-223.49C799.48,-212.76 789.66,-198.73 781.48,-187.05"/>
<polygon fill="green" stroke="green" stroke-width="0.5" points="784.39,-185.1 775.79,-178.91 778.66,-189.11 784.39,-185.1"/>
</g>
<!-- 457&#45;&gt;94 -->
<g id="edge46" class="edge">
<title>457&#45;&gt;94</title>
<path fill="none" stroke="red" stroke-width="0.16" d="M432.99,-223.49C425.33,-212.55 415.27,-198.17 407,-186.36"/>
<polygon fill="red" stroke="red" stroke-width="0.16" points="410.1,-184.68 401.5,-178.49 404.36,-188.69 410.1,-184.68"/>
</g>
<!-- 410 -->
<g id="node30" class="node">
<title>410</title>
<ellipse fill="white" stroke="black" cx="334.75" cy="-163.57" rx="20.86" ry="20.86"/>
<text text-anchor="middle" x="334.75" y="-160.27" font-family="Times,serif" font-size="9.00">410</text>
</g>
<!-- 410&#45;&gt;1 -->
<g id="edge43" class="edge">
<title>410&#45;&gt;1</title>
<path fill="none" stroke="red" stroke-width="0.32" d="M346.84,-146.51C355.67,-134.77 367.7,-118.8 377.09,-106.33"/>
<polygon fill="red" stroke="red" stroke-width="0.32" points="379.86,-108.46 383.08,-98.37 374.27,-104.25 379.86,-108.46"/>
</g>
<!-- 93&#45;&gt;3 -->
<g id="edge3" class="edge">
<title>93&#45;&gt;3</title>
<path fill="none" stroke="red" stroke-width="0.74" stroke-dasharray="1,5" d="M765.75,-145.77C765.75,-135.68 765.75,-122.66 765.75,-111.43"/>
<polygon fill="red" stroke="red" stroke-width="0.74" points="769.25,-111.7 765.75,-101.7 762.25,-111.7 769.25,-111.7"/>
</g>
<!-- 93&#45;&gt;4 -->
<g id="edge30" class="edge">
<title>93&#45;&gt;4</title>
<path fill="none" stroke="green" stroke-width="0.14" d="M751.04,-153.29C729.73,-139.84 690.19,-114.89 666.1,-99.69"/>
<polygon fill="green" stroke="green" stroke-width="0.14" points="668.2,-96.88 657.88,-94.5 664.47,-102.8 668.2,-96.88"/>
</g>
<!-- 94&#45;&gt;1 -->
<g id="edge26" class="edge">
<title>94&#45;&gt;1</title>
<path fill="none" stroke="red" stroke-width="0.54" stroke-dasharray="1,5" d="M391.75,-145.77C391.75,-135.57 391.75,-122.39 391.75,-111.08"/>
<polygon fill="red" stroke="red" stroke-width="0.54" points="395.25,-111.38 391.75,-101.38 388.25,-111.38 395.25,-111.38"/>
</g>
<!-- 95&#45;&gt;0 -->
<g id="edge21" class="edge">
<title>95&#45;&gt;0</title>
<path fill="none" stroke="red" stroke-width="0.13" stroke-dasharray="1,5" d="M543.75,-145.77C543.75,-135.46 543.75,-122.11 543.75,-110.73"/>
<polygon fill="red" stroke="red" stroke-width="0.13" points="547.25,-110.77 543.75,-100.77 540.25,-110.77 547.25,-110.77"/>
</g>
<!-- 95&#45;&gt;1 -->
<g id="edge36" class="edge">
<title>95&#45;&gt;1</title>
<path fill="none" stroke="green" stroke-width="0.15" d="M528.06,-154.75C500.82,-141.18 444.73,-113.24 413.66,-97.77"/>
<polygon fill="green" stroke="green" stroke-width="0.15" points="415.24,-94.64 404.73,-93.32 412.12,-100.91 415.24,-94.64"/>
</g>
<!-- 95&#45;&gt;2 -->
<g id="edge8" class="edge">
<title>95&#45;&gt;2</title>
<path fill="none" stroke="red" stroke-width="0.58" d="M531.38,-150.34C509.68,-129.59 462.49,-87.53 414.75,-64.99 353.32,-35.98 273.36,-23.11 233.17,-18.16"/>
<polygon fill="red" stroke="red" stroke-width="0.58" points="233.69,-14.7 223.35,-17.02 232.88,-21.65 233.69,-14.7"/>
</g>
<!-- 95&#45;&gt;3 -->
<g id="edge4" class="edge">
<title>95&#45;&gt;3</title>
<path fill="none" stroke="red" stroke-width="0.22" d="M560.44,-156.88C599.55,-143.54 697.25,-110.22 742.31,-94.85"/>
<polygon fill="red" stroke="red" stroke-width="0.22" points="743.42,-98.17 751.75,-91.63 741.16,-91.54 743.42,-98.17"/>
</g>
<!-- 95&#45;&gt;4 -->
<g id="edge13" class="edge">
<title>95&#45;&gt;4</title>
<path fill="none" stroke="green" stroke-width="0.35" d="M557.51,-152.36C575.14,-139.27 605.84,-116.47 625.98,-101.53"/>
<polygon fill="green" stroke="green" stroke-width="0.35" points="628.04,-104.36 633.98,-95.59 623.86,-98.74 628.04,-104.36"/>
</g>
</g>
</svg>
