<?xml version="1.0" encoding="UTF-8" standalone="no"?>
<!DOCTYPE svg PUBLIC "-//W3C//DTD SVG 1.1//EN"
 "http://www.w3.org/Graphics/SVG/1.1/DTD/svg11.dtd">
<!-- Generated by graphviz version 12.1.1 (20240910.0053)
 -->
<!-- Pages: 1 -->
<svg width="938pt" height="173pt"
 viewBox="0.00 0.00 938.25 173.34" xmlns="http://www.w3.org/2000/svg" xmlns:xlink="http://www.w3.org/1999/xlink">
<g id="graph0" class="graph" transform="scale(1 1) rotate(0) translate(4 169.34)">
<polygon fill="white" stroke="none" points="-4,4 -4,-169.34 934.25,-169.34 934.25,4 -4,4"/>
<!-- &#45;1 -->
<g id="node1" class="node">
<title>&#45;1</title>
<polygon fill="lightgray" stroke="black" points="157.5,-160.09 134,-160.09 134,-141.59 157.5,-141.59 157.5,-160.09"/>
<text text-anchor="middle" x="145.75" y="-147.54" font-family="Times,serif" font-size="9.00">&#45;1</text>
</g>
<!-- 37 -->
<g id="node26" class="node">
<title>37</title>
<ellipse fill="white" stroke="black" cx="300.75" cy="-82.67" rx="17.68" ry="17.68"/>
<text text-anchor="middle" x="300.75" y="-79.37" font-family="Times,serif" font-size="9.00">37</text>
</g>
<!-- &#45;1&#45;&gt;37 -->
<g id="edge11" class="edge">
<title>&#45;1&#45;&gt;37</title>
<path fill="none" stroke="red" stroke-width="0.24" d="M157.95,-141.43C160.78,-139.65 163.82,-137.85 166.75,-136.35 202.66,-117.97 246.55,-101.83 274.08,-92.41"/>
<polygon fill="red" stroke="red" stroke-width="0.24" points="275.08,-95.77 283.44,-89.25 272.84,-89.13 275.08,-95.77"/>
</g>
<!-- 39 -->
<g id="node28" class="node">
<title>39</title>
<ellipse fill="white" stroke="black" cx="205.75" cy="-82.67" rx="17.68" ry="17.68"/>
<text text-anchor="middle" x="205.75" y="-79.37" font-family="Times,serif" font-size="9.00">39</text>
</g>
<!-- &#45;1&#45;&gt;39 -->
<g id="edge19" class="edge">
<title>&#45;1&#45;&gt;39</title>
<path fill="none" stroke="green" stroke-width="0.33" d="M153.59,-141.19C162.14,-131.77 176.11,-116.36 187.44,-103.86"/>
<polygon fill="green" stroke="green" stroke-width="0.33" points="189.96,-106.3 194.08,-96.54 184.77,-101.59 189.96,-106.3"/>
</g>
<!-- &#45;2 -->
<g id="node2" class="node">
<title>&#45;2</title>
<polygon fill="lightgray" stroke="black" points="819.5,-160.09 796,-160.09 796,-141.59 819.5,-141.59 819.5,-160.09"/>
<text text-anchor="middle" x="807.75" y="-147.54" font-family="Times,serif" font-size="9.00">&#45;2</text>
</g>
<!-- &#45;3 -->
<g id="node3" class="node">
<title>&#45;3</title>
<polygon fill="lightgray" stroke="black" points="777.5,-160.09 754,-160.09 754,-141.59 777.5,-141.59 777.5,-160.09"/>
<text text-anchor="middle" x="765.75" y="-147.54" font-family="Times,serif" font-size="9.00">&#45;3</text>
</g>
<!-- 40 -->
<g id="node29" class="node">
<title>40</title>
<ellipse fill="white" stroke="black" cx="611.75" cy="-82.67" rx="17.68" ry="17.68"/>
<text text-anchor="middle" x="611.75" y="-79.37" font-family="Times,serif" font-size="9.00">40</text>
</g>
<!-- &#45;3&#45;&gt;40 -->
<g id="edge26" class="edge">
<title>&#45;3&#45;&gt;40</title>
<path fill="none" stroke="red" stroke-width="0.27" d="M753.55,-141.44C750.72,-139.65 747.68,-137.85 744.75,-136.35 709.09,-118.05 665.54,-101.88 638.21,-92.44"/>
<polygon fill="red" stroke="red" stroke-width="0.27" points="639.56,-89.2 628.96,-89.29 637.3,-95.82 639.56,-89.2"/>
</g>
<!-- &#45;4 -->
<g id="node4" class="node">
<title>&#45;4</title>
<polygon fill="lightgray" stroke="black" points="467.5,-160.09 444,-160.09 444,-141.59 467.5,-141.59 467.5,-160.09"/>
<text text-anchor="middle" x="455.75" y="-147.54" font-family="Times,serif" font-size="9.00">&#45;4</text>
</g>
<!-- 38 -->
<g id="node27" class="node">
<title>38</title>
<ellipse fill="white" stroke="black" cx="455.75" cy="-82.67" rx="17.68" ry="17.68"/>
<text text-anchor="middle" x="455.75" y="-79.37" font-family="Times,serif" font-size="9.00">38</text>
</g>
<!-- &#45;4&#45;&gt;38 -->
<g id="edge5" class="edge">
<title>&#45;4&#45;&gt;38</title>
<path fill="none" stroke="red" stroke-width="0.26" d="M455.75,-141.19C455.75,-133.52 455.75,-121.89 455.75,-111.08"/>
<polygon fill="red" stroke="red" stroke-width="0.26" points="459.25,-111.13 455.75,-101.13 452.25,-111.13 459.25,-111.13"/>
</g>
<!-- &#45;5 -->
<g id="node5" class="node">
<title>&#45;5</title>
<polygon fill="lightgray" stroke="black" points="689.5,-160.09 666,-160.09 666,-141.59 689.5,-141.59 689.5,-160.09"/>
<text text-anchor="middle" x="677.75" y="-147.54" font-family="Times,serif" font-size="9.00">&#45;5</text>
</g>
<!-- &#45;5&#45;&gt;37 -->
<g id="edge3" class="edge">
<title>&#45;5&#45;&gt;37</title>
<path fill="none" stroke="green" stroke-width="0.17" d="M666.22,-141.2C663.26,-139.34 660,-137.56 656.75,-136.35 641.32,-130.56 409.43,-98.52 328.42,-87.44"/>
<polygon fill="green" stroke="green" stroke-width="0.17" points="329.09,-84 318.71,-86.11 328.14,-90.93 329.09,-84"/>
</g>
<!-- &#45;5&#45;&gt;38 -->
<g id="edge15" class="edge">
<title>&#45;5&#45;&gt;38</title>
<path fill="none" stroke="red" stroke-width="0.12" d="M665.68,-141.17C662.84,-139.4 659.77,-137.67 656.75,-136.35 597.6,-110.37 522.85,-94.96 483.26,-88.04"/>
<polygon fill="red" stroke="red" stroke-width="0.12" points="483.92,-84.61 473.48,-86.38 482.75,-91.51 483.92,-84.61"/>
</g>
<!-- &#45;5&#45;&gt;40 -->
<g id="edge27" class="edge">
<title>&#45;5&#45;&gt;40</title>
<path fill="none" stroke="red" stroke-width="0.15" d="M669.12,-141.19C659.42,-131.47 643.38,-115.38 630.72,-102.69"/>
<polygon fill="red" stroke="red" stroke-width="0.15" points="633.44,-100.46 623.9,-95.85 628.48,-105.4 633.44,-100.46"/>
</g>
<!-- &#45;6 -->
<g id="node6" class="node">
<title>&#45;6</title>
<polygon fill="lightgray" stroke="black" points="601.5,-160.09 578,-160.09 578,-141.59 601.5,-141.59 601.5,-160.09"/>
<text text-anchor="middle" x="589.75" y="-147.54" font-family="Times,serif" font-size="9.00">&#45;6</text>
</g>
<!-- &#45;6&#45;&gt;37 -->
<g id="edge2" class="edge">
<title>&#45;6&#45;&gt;37</title>
<path fill="none" stroke="red" stroke-width="0.11" d="M578.18,-141.31C575.22,-139.44 571.97,-137.64 568.75,-136.35 524.97,-118.73 387.25,-96.66 328.14,-87.71"/>
<polygon fill="red" stroke="red" stroke-width="0.11" points="328.96,-84.3 318.55,-86.27 327.92,-91.22 328.96,-84.3"/>
</g>
<!-- &#45;6&#45;&gt;40 -->
<g id="edge16" class="edge">
<title>&#45;6&#45;&gt;40</title>
<path fill="none" stroke="green" stroke-width="0.3" d="M592.63,-141.19C595.28,-133.2 599.37,-120.91 603.08,-109.73"/>
<polygon fill="green" stroke="green" stroke-width="0.3" points="606.36,-110.96 606.2,-100.37 599.72,-108.76 606.36,-110.96"/>
</g>
<!-- &#45;7 -->
<g id="node7" class="node">
<title>&#45;7</title>
<polygon fill="lightgray" stroke="black" points="23.5,-160.09 0,-160.09 0,-141.59 23.5,-141.59 23.5,-160.09"/>
<text text-anchor="middle" x="11.75" y="-147.54" font-family="Times,serif" font-size="9.00">&#45;7</text>
</g>
<!-- &#45;7&#45;&gt;39 -->
<g id="edge30" class="edge">
<title>&#45;7&#45;&gt;39</title>
<path fill="none" stroke="red" stroke-width="0.39" d="M23.86,-141.26C26.7,-139.48 29.76,-137.73 32.75,-136.35 81.94,-113.58 143.46,-97.57 178.31,-89.55"/>
<polygon fill="red" stroke="red" stroke-width="0.39" points="178.66,-93.06 187.65,-87.45 177.13,-86.23 178.66,-93.06"/>
</g>
<!-- &#45;8 -->
<g id="node8" class="node">
<title>&#45;8</title>
<polygon fill="lightgray" stroke="black" points="379.5,-160.09 356,-160.09 356,-141.59 379.5,-141.59 379.5,-160.09"/>
<text text-anchor="middle" x="367.75" y="-147.54" font-family="Times,serif" font-size="9.00">&#45;8</text>
</g>
<!-- &#45;8&#45;&gt;38 -->
<g id="edge6" class="edge">
<title>&#45;8&#45;&gt;38</title>
<path fill="none" stroke="red" stroke-width="0.15" d="M379.25,-141.19C393.11,-130.77 416.67,-113.06 433.99,-100.03"/>
<polygon fill="red" stroke="red" stroke-width="0.15" points="435.86,-103.01 441.74,-94.2 431.65,-97.41 435.86,-103.01"/>
</g>
<!-- &#45;8&#45;&gt;39 -->
<g id="edge32" class="edge">
<title>&#45;8&#45;&gt;39</title>
<path fill="none" stroke="red" stroke-width="0.15" d="M355.57,-141.4C352.74,-139.61 349.69,-137.82 346.75,-136.35 308.29,-117.08 261,-100.82 232.13,-91.65"/>
<polygon fill="red" stroke="red" stroke-width="0.15" points="233.55,-88.43 222.96,-88.79 231.46,-95.11 233.55,-88.43"/>
</g>
<!-- &#45;9 -->
<g id="node9" class="node">
<title>&#45;9</title>
<polygon fill="lightgray" stroke="black" points="199.5,-160.09 176,-160.09 176,-141.59 199.5,-141.59 199.5,-160.09"/>
<text text-anchor="middle" x="187.75" y="-147.54" font-family="Times,serif" font-size="9.00">&#45;9</text>
</g>
<!-- &#45;9&#45;&gt;37 -->
<g id="edge33" class="edge">
<title>&#45;9&#45;&gt;37</title>
<path fill="none" stroke="red" stroke-width="0.31" d="M199.68,-142.03C202.62,-140.14 205.79,-138.15 208.75,-136.35 231.39,-122.6 257.65,-107.66 276.31,-97.22"/>
<polygon fill="red" stroke="red" stroke-width="0.31" points="277.87,-100.35 284.9,-92.42 274.46,-94.24 277.87,-100.35"/>
</g>
<!-- &#45;9&#45;&gt;39 -->
<g id="edge36" class="edge">
<title>&#45;9&#45;&gt;39</title>
<path fill="none" stroke="green" stroke-width="0.37" d="M190.1,-141.19C192.24,-133.33 195.51,-121.32 198.51,-110.3"/>
<polygon fill="green" stroke="green" stroke-width="0.37" points="201.86,-111.32 201.1,-100.75 195.1,-109.48 201.86,-111.32"/>
</g>
<!-- &#45;10 -->
<g id="node10" class="node">
<title>&#45;10</title>
<polygon fill="lightgray" stroke="black" points="559.75,-160.09 531.75,-160.09 531.75,-141.59 559.75,-141.59 559.75,-160.09"/>
<text text-anchor="middle" x="545.75" y="-147.54" font-family="Times,serif" font-size="9.00">&#45;10</text>
</g>
<!-- &#45;10&#45;&gt;38 -->
<g id="edge42" class="edge">
<title>&#45;10&#45;&gt;38</title>
<path fill="none" stroke="red" stroke-width="0.22" d="M533.98,-141.19C519.82,-130.77 495.72,-113.06 478,-100.03"/>
<polygon fill="red" stroke="red" stroke-width="0.22" points="480.29,-97.37 470.16,-94.27 476.15,-103.01 480.29,-97.37"/>
</g>
<!-- &#45;10&#45;&gt;39 -->
<g id="edge17" class="edge">
<title>&#45;10&#45;&gt;39</title>
<path fill="none" stroke="green" stroke-width="0.29" d="M533.04,-141.21C529.8,-139.35 526.25,-137.57 522.75,-136.35 417.23,-99.36 383.51,-121.69 273.75,-100.35 260.14,-97.7 245.16,-94.1 232.73,-90.92"/>
<polygon fill="green" stroke="green" stroke-width="0.29" points="233.96,-87.63 223.4,-88.49 232.2,-94.4 233.96,-87.63"/>
</g>
<!-- &#45;10&#45;&gt;40 -->
<g id="edge20" class="edge">
<title>&#45;10&#45;&gt;40</title>
<path fill="none" stroke="green" stroke-width="0.27" d="M554.38,-141.19C563.99,-131.56 579.82,-115.69 592.42,-103.05"/>
<polygon fill="green" stroke="green" stroke-width="0.27" points="594.89,-105.53 599.47,-95.98 589.93,-100.59 594.89,-105.53"/>
</g>
<!-- &#45;11 -->
<g id="node11" class="node">
<title>&#45;11</title>
<polygon fill="lightgray" stroke="black" points="69.75,-160.09 41.75,-160.09 41.75,-141.59 69.75,-141.59 69.75,-160.09"/>
<text text-anchor="middle" x="55.75" y="-147.54" font-family="Times,serif" font-size="9.00">&#45;11</text>
</g>
<!-- &#45;11&#45;&gt;37 -->
<g id="edge7" class="edge">
<title>&#45;11&#45;&gt;37</title>
<path fill="none" stroke="red" stroke-width="0.13" d="M69.03,-141.15C72.13,-139.37 75.48,-137.65 78.75,-136.35 144.02,-110.27 164.39,-116.72 232.75,-100.35 246.23,-97.12 261.2,-93.45 273.65,-90.39"/>
<polygon fill="red" stroke="red" stroke-width="0.13" points="274.37,-93.81 283.24,-88.02 272.69,-87.02 274.37,-93.81"/>
</g>
<!-- &#45;11&#45;&gt;39 -->
<g id="edge12" class="edge">
<title>&#45;11&#45;&gt;39</title>
<path fill="none" stroke="red" stroke-width="0.11" d="M69.69,-141.25C72.64,-139.55 75.77,-137.83 78.75,-136.35 112.89,-119.35 153.89,-103.05 179.89,-93.19"/>
<polygon fill="red" stroke="red" stroke-width="0.11" points="181.1,-96.48 189.23,-89.69 178.64,-89.92 181.1,-96.48"/>
</g>
<!-- &#45;12 -->
<g id="node12" class="node">
<title>&#45;12</title>
<polygon fill="lightgray" stroke="black" points="513.75,-160.09 485.75,-160.09 485.75,-141.59 513.75,-141.59 513.75,-160.09"/>
<text text-anchor="middle" x="499.75" y="-147.54" font-family="Times,serif" font-size="9.00">&#45;12</text>
</g>
<!-- &#45;12&#45;&gt;38 -->
<g id="edge23" class="edge">
<title>&#45;12&#45;&gt;38</title>
<path fill="none" stroke="red" stroke-width="0.18" d="M494,-141.19C488.11,-132.34 478.72,-118.22 470.72,-106.18"/>
<polygon fill="red" stroke="red" stroke-width="0.18" points="473.81,-104.51 465.36,-98.12 467.98,-108.38 473.81,-104.51"/>
</g>
<!-- &#45;13 -->
<g id="node13" class="node">
<title>&#45;13</title>
<polygon fill="lightgray" stroke="black" points="647.75,-160.09 619.75,-160.09 619.75,-141.59 647.75,-141.59 647.75,-160.09"/>
<text text-anchor="middle" x="633.75" y="-147.54" font-family="Times,serif" font-size="9.00">&#45;13</text>
</g>
<!-- &#45;13&#45;&gt;37 -->
<g id="edge35" class="edge">
<title>&#45;13&#45;&gt;37</title>
<path fill="none" stroke="red" stroke-width="0.27" d="M621.02,-141.28C617.78,-139.41 614.23,-137.61 610.75,-136.35 558.76,-117.4 394.73,-95.43 328.69,-87.1"/>
<polygon fill="red" stroke="red" stroke-width="0.27" points="329.37,-83.66 319.01,-85.89 328.5,-90.61 329.37,-83.66"/>
</g>
<!-- &#45;13&#45;&gt;40 -->
<g id="edge21" class="edge">
<title>&#45;13&#45;&gt;40</title>
<path fill="none" stroke="red" stroke-width="0.21" d="M630.87,-141.19C628.19,-133.12 624.05,-120.66 620.3,-109.39"/>
<polygon fill="red" stroke="red" stroke-width="0.21" points="623.74,-108.63 617.26,-100.24 617.09,-110.84 623.74,-108.63"/>
</g>
<!-- &#45;14 -->
<g id="node14" class="node">
<title>&#45;14</title>
<polygon fill="lightgray" stroke="black" points="115.75,-160.09 87.75,-160.09 87.75,-141.59 115.75,-141.59 115.75,-160.09"/>
<text text-anchor="middle" x="101.75" y="-147.54" font-family="Times,serif" font-size="9.00">&#45;14</text>
</g>
<!-- &#45;14&#45;&gt;37 -->
<g id="edge10" class="edge">
<title>&#45;14&#45;&gt;37</title>
<path fill="none" stroke="red" stroke-width="0.23" d="M115.09,-141.29C118.19,-139.51 121.52,-137.75 124.75,-136.35 151.78,-124.58 231.52,-102.34 273.78,-90.89"/>
<polygon fill="red" stroke="red" stroke-width="0.23" points="274.58,-94.3 283.32,-88.31 272.76,-87.54 274.58,-94.3"/>
</g>
<!-- &#45;14&#45;&gt;39 -->
<g id="edge41" class="edge">
<title>&#45;14&#45;&gt;39</title>
<path fill="none" stroke="green" stroke-width="0.23" d="M115.35,-141.19C132.42,-130.33 161.98,-111.52 182.63,-98.38"/>
<polygon fill="green" stroke="green" stroke-width="0.23" points="184.3,-101.47 190.86,-93.15 180.54,-95.56 184.3,-101.47"/>
</g>
<!-- &#45;15 -->
<g id="node15" class="node">
<title>&#45;15</title>
<polygon fill="lightgray" stroke="black" points="735.75,-160.09 707.75,-160.09 707.75,-141.59 735.75,-141.59 735.75,-160.09"/>
<text text-anchor="middle" x="721.75" y="-147.54" font-family="Times,serif" font-size="9.00">&#45;15</text>
</g>
<!-- &#45;15&#45;&gt;38 -->
<g id="edge38" class="edge">
<title>&#45;15&#45;&gt;38</title>
<path fill="none" stroke="green" stroke-width="0.11" d="M708.49,-141.11C705.39,-139.33 702.03,-137.63 698.75,-136.35 623.92,-107.15 529.48,-92.56 483.48,-86.78"/>
<polygon fill="green" stroke="green" stroke-width="0.11" points="483.91,-83.3 473.56,-85.57 483.06,-90.25 483.91,-83.3"/>
</g>
<!-- &#45;15&#45;&gt;40 -->
<g id="edge37" class="edge">
<title>&#45;15&#45;&gt;40</title>
<path fill="none" stroke="red" stroke-width="0.3" d="M707.37,-141.19C689.13,-130.22 657.41,-111.14 635.54,-97.98"/>
<polygon fill="red" stroke="red" stroke-width="0.3" points="637.6,-95.13 627.22,-92.98 633.99,-101.13 637.6,-95.13"/>
</g>
<!-- &#45;16 -->
<g id="node16" class="node">
<title>&#45;16</title>
<polygon fill="lightgray" stroke="black" points="245.75,-160.09 217.75,-160.09 217.75,-141.59 245.75,-141.59 245.75,-160.09"/>
<text text-anchor="middle" x="231.75" y="-147.54" font-family="Times,serif" font-size="9.00">&#45;16</text>
</g>
<!-- &#45;16&#45;&gt;37 -->
<g id="edge1" class="edge">
<title>&#45;16&#45;&gt;37</title>
<path fill="none" stroke="red" stroke-width="0.3" d="M240.77,-141.19C250.91,-131.47 267.68,-115.38 280.91,-102.69"/>
<polygon fill="red" stroke="red" stroke-width="0.3" points="283.1,-105.45 287.89,-96 278.25,-100.4 283.1,-105.45"/>
</g>
<!-- &#45;16&#45;&gt;38 -->
<g id="edge9" class="edge">
<title>&#45;16&#45;&gt;38</title>
<path fill="none" stroke="green" stroke-width="0.21" d="M245.05,-141.21C248.15,-139.43 251.5,-137.7 254.75,-136.35 314.26,-111.64 388.58,-95.77 428.07,-88.43"/>
<polygon fill="green" stroke="green" stroke-width="0.21" points="428.5,-91.91 437.71,-86.68 427.25,-85.02 428.5,-91.91"/>
</g>
<!-- &#45;16&#45;&gt;39 -->
<g id="edge13" class="edge">
<title>&#45;16&#45;&gt;39</title>
<path fill="none" stroke="green" stroke-width="0.11" d="M228.35,-141.19C225.12,-132.98 220.12,-120.23 215.63,-108.82"/>
<polygon fill="green" stroke="green" stroke-width="0.11" points="219.02,-107.87 212.1,-99.84 212.5,-110.43 219.02,-107.87"/>
</g>
<!-- &#45;17 -->
<g id="node17" class="node">
<title>&#45;17</title>
<polygon fill="lightgray" stroke="black" points="337.75,-160.09 309.75,-160.09 309.75,-141.59 337.75,-141.59 337.75,-160.09"/>
<text text-anchor="middle" x="323.75" y="-147.54" font-family="Times,serif" font-size="9.00">&#45;17</text>
</g>
<!-- &#45;17&#45;&gt;37 -->
<g id="edge18" class="edge">
<title>&#45;17&#45;&gt;37</title>
<path fill="none" stroke="red" stroke-width="0.13" d="M320.74,-141.19C317.92,-133.06 313.55,-120.49 309.61,-109.17"/>
<polygon fill="red" stroke="red" stroke-width="0.13" points="312.97,-108.16 306.38,-99.87 306.36,-110.46 312.97,-108.16"/>
</g>
<!-- &#45;18 -->
<g id="node18" class="node">
<title>&#45;18</title>
<polygon fill="lightgray" stroke="black" points="291.75,-160.09 263.75,-160.09 263.75,-141.59 291.75,-141.59 291.75,-160.09"/>
<text text-anchor="middle" x="277.75" y="-147.54" font-family="Times,serif" font-size="9.00">&#45;18</text>
</g>
<!-- &#45;18&#45;&gt;37 -->
<g id="edge22" class="edge">
<title>&#45;18&#45;&gt;37</title>
<path fill="none" stroke="red" stroke-width="0.37" d="M280.76,-141.19C283.55,-133.14 287.86,-120.74 291.77,-109.51"/>
<polygon fill="red" stroke="red" stroke-width="0.37" points="295.02,-110.8 295,-100.21 288.41,-108.5 295.02,-110.8"/>
</g>
<!-- &#45;19 -->
<g id="node19" class="node">
<title>&#45;19</title>
<polygon fill="lightgray" stroke="black" points="865.75,-160.09 837.75,-160.09 837.75,-141.59 865.75,-141.59 865.75,-160.09"/>
<text text-anchor="middle" x="851.75" y="-147.54" font-family="Times,serif" font-size="9.00">&#45;19</text>
</g>
<!-- &#45;20 -->
<g id="node20" class="node">
<title>&#45;20</title>
<polygon fill="lightgray" stroke="black" points="425.75,-160.09 397.75,-160.09 397.75,-141.59 425.75,-141.59 425.75,-160.09"/>
<text text-anchor="middle" x="411.75" y="-147.54" font-family="Times,serif" font-size="9.00">&#45;20</text>
</g>
<!-- &#45;20&#45;&gt;37 -->
<g id="edge40" class="edge">
<title>&#45;20&#45;&gt;37</title>
<path fill="none" stroke="red" stroke-width="0.13" d="M397.69,-141.46C379.23,-130.46 346.57,-110.98 324.3,-97.71"/>
<polygon fill="red" stroke="red" stroke-width="0.13" points="326.31,-94.83 315.93,-92.72 322.72,-100.84 326.31,-94.83"/>
</g>
<!-- &#45;20&#45;&gt;38 -->
<g id="edge8" class="edge">
<title>&#45;20&#45;&gt;38</title>
<path fill="none" stroke="green" stroke-width="0.1" d="M417.5,-141.19C423.39,-132.34 432.78,-118.22 440.78,-106.18"/>
<polygon fill="green" stroke="green" stroke-width="0.1" points="443.59,-108.28 446.21,-98.02 437.76,-104.41 443.59,-108.28"/>
</g>
<!-- &#45;20&#45;&gt;39 -->
<g id="edge44" class="edge">
<title>&#45;20&#45;&gt;39</title>
<path fill="none" stroke="red" stroke-width="0.17" d="M398.42,-141.27C395.32,-139.49 391.98,-137.73 388.75,-136.35 360.41,-124.18 276.2,-101.78 232.59,-90.51"/>
<polygon fill="red" stroke="red" stroke-width="0.17" points="233.74,-87.19 223.18,-88.09 232,-93.97 233.74,-87.19"/>
</g>
<!-- &#45;20&#45;&gt;40 -->
<g id="edge25" class="edge">
<title>&#45;20&#45;&gt;40</title>
<path fill="none" stroke="green" stroke-width="0.44" d="M425.09,-141.29C428.18,-139.51 431.52,-137.75 434.75,-136.35 485.78,-114.17 548.97,-97.85 584.37,-89.64"/>
<polygon fill="green" stroke="green" stroke-width="0.44" points="584.8,-93.13 593.77,-87.5 583.25,-86.31 584.8,-93.13"/>
</g>
<!-- 0 -->
<g id="node21" class="node">
<title>0</title>
<ellipse fill="lightblue" stroke="black" cx="343.75" cy="-14.5" rx="14.5" ry="14.5"/>
<text text-anchor="middle" x="343.75" y="-11.2" font-family="Times,serif" font-size="9.00">0</text>
</g>
<!-- 1 -->
<g id="node22" class="node">
<title>1</title>
<ellipse fill="lightblue" stroke="black" cx="455.75" cy="-14.5" rx="14.5" ry="14.5"/>
<text text-anchor="middle" x="455.75" y="-11.2" font-family="Times,serif" font-size="9.00">1</text>
</g>
<!-- 2 -->
<g id="node23" class="node">
<title>2</title>
<ellipse fill="lightblue" stroke="black" cx="897.75" cy="-150.84" rx="14.5" ry="14.5"/>
<text text-anchor="middle" x="897.75" y="-147.54" font-family="Times,serif" font-size="9.00">2</text>
</g>
<!-- 2&#45;&gt;2 -->
<g id="edge4" class="edge">
<title>2&#45;&gt;2</title>
<path fill="none" stroke="red" stroke-width="0.55" d="M908.4,-161C918.81,-166.61 930.25,-163.23 930.25,-150.84 930.25,-142.52 925.08,-138.26 918.54,-138.07"/>
<polygon fill="red" stroke="red" stroke-width="0.55" points="918.01,-134.59 909.2,-140.48 919.76,-141.37 918.01,-134.59"/>
</g>
<!-- 3 -->
<g id="node24" class="node">
<title>3</title>
<ellipse fill="lightblue" stroke="black" cx="229.75" cy="-14.5" rx="14.5" ry="14.5"/>
<text text-anchor="middle" x="229.75" y="-11.2" font-family="Times,serif" font-size="9.00">3</text>
</g>
<!-- 4 -->
<g id="node25" class="node">
<title>4</title>
<ellipse fill="lightblue" stroke="black" cx="182.75" cy="-14.5" rx="14.5" ry="14.5"/>
<text text-anchor="middle" x="182.75" y="-11.2" font-family="Times,serif" font-size="9.00">4</text>
</g>
<!-- 37&#45;&gt;0 -->
<g id="edge43" class="edge">
<title>37&#45;&gt;0</title>
<path fill="none" stroke="green" stroke-width="0.29" d="M310.08,-67.31C316.06,-58.11 323.9,-46.04 330.52,-35.86"/>
<polygon fill="green" stroke="green" stroke-width="0.29" points="333.41,-37.84 335.92,-27.55 327.54,-34.02 333.41,-37.84"/>
</g>
<!-- 38&#45;&gt;0 -->
<g id="edge31" class="edge">
<title>38&#45;&gt;0</title>
<path fill="none" stroke="red" stroke-width="0.26" d="M440.65,-72.74C421.09,-61.19 386.9,-40.99 364.8,-27.94"/>
<polygon fill="red" stroke="red" stroke-width="0.26" points="366.61,-24.93 356.22,-22.86 363.05,-30.96 366.61,-24.93"/>
</g>
<!-- 38&#45;&gt;1 -->
<g id="edge28" class="edge">
<title>38&#45;&gt;1</title>
<path fill="none" stroke="red" stroke-width="0.29" d="M455.75,-64.63C455.75,-56.96 455.75,-47.77 455.75,-39.43"/>
<polygon fill="red" stroke="red" stroke-width="0.29" points="459.25,-39.58 455.75,-29.58 452.25,-39.58 459.25,-39.58"/>
</g>
<!-- 38&#45;&gt;38 -->
<g id="edge34" class="edge">
<title>38&#45;&gt;38</title>
<path fill="none" stroke="green" stroke-width="0.31" d="M469.67,-93.8C480.44,-97.96 491.43,-94.25 491.43,-82.67 491.43,-74.89 486.47,-70.66 479.94,-69.98"/>
<polygon fill="green" stroke="green" stroke-width="0.31" points="479.49,-66.51 470.13,-71.47 480.54,-73.43 479.49,-66.51"/>
</g>
<!-- 39&#45;&gt;1 -->
<g id="edge24" class="edge">
<title>39&#45;&gt;1</title>
<path fill="none" stroke="green" stroke-width="0.18" d="M222.93,-77.12C266.6,-65.56 381.91,-35.04 431.98,-21.79"/>
<polygon fill="green" stroke="green" stroke-width="0.18" points="432.59,-25.25 441.37,-19.3 430.8,-18.48 432.59,-25.25"/>
</g>
<!-- 39&#45;&gt;3 -->
<g id="edge39" class="edge">
<title>39&#45;&gt;3</title>
<path fill="none" stroke="red" stroke-width="0.18" d="M211.56,-65.65C214.54,-57.42 218.23,-47.26 221.5,-38.24"/>
<polygon fill="red" stroke="red" stroke-width="0.18" points="224.75,-39.55 224.87,-28.95 218.17,-37.16 224.75,-39.55"/>
</g>
<!-- 39&#45;&gt;4 -->
<g id="edge29" class="edge">
<title>39&#45;&gt;4</title>
<path fill="none" stroke="red" stroke-width="0.15" d="M200.18,-65.65C197.32,-57.42 193.79,-47.26 190.65,-38.24"/>
<polygon fill="red" stroke="red" stroke-width="0.15" points="194,-37.21 187.41,-28.91 187.39,-39.51 194,-37.21"/>
</g>
<!-- 40&#45;&gt;1 -->
<g id="edge14" class="edge">
<title>40&#45;&gt;1</title>
<path fill="none" stroke="red" stroke-width="0.17" d="M595.64,-74.84C567.69,-62.98 510.12,-38.56 478.24,-25.03"/>
<polygon fill="red" stroke="red" stroke-width="0.17" points="479.67,-21.84 469.09,-21.16 476.93,-28.28 479.67,-21.84"/>
</g>
</g>
</svg>
