<?xml version="1.0" encoding="UTF-8" standalone="no"?>
<!DOCTYPE svg PUBLIC "-//W3C//DTD SVG 1.1//EN"
 "http://www.w3.org/Graphics/SVG/1.1/DTD/svg11.dtd">
<!-- Generated by graphviz version 12.1.1 (20240910.0053)
 -->
<!-- Pages: 1 -->
<svg width="801pt" height="335pt"
 viewBox="0.00 0.00 801.50 335.14" xmlns="http://www.w3.org/2000/svg" xmlns:xlink="http://www.w3.org/1999/xlink">
<g id="graph0" class="graph" transform="scale(1 1) rotate(0) translate(4 331.14)">
<polygon fill="white" stroke="none" points="-4,4 -4,-331.14 797.5,-331.14 797.5,4 -4,4"/>
<!-- &#45;1 -->
<g id="node1" class="node">
<title>&#45;1</title>
<polygon fill="lightgray" stroke="black" points="570.75,-321.89 547.25,-321.89 547.25,-303.39 570.75,-303.39 570.75,-321.89"/>
<text text-anchor="middle" x="559" y="-309.34" font-family="Times,serif" font-size="9.00">&#45;1</text>
</g>
<!-- 586 -->
<g id="node26" class="node">
<title>586</title>
<ellipse fill="white" stroke="black" cx="493" cy="-241.29" rx="20.86" ry="20.86"/>
<text text-anchor="middle" x="493" y="-237.99" font-family="Times,serif" font-size="9.00">586</text>
</g>
<!-- &#45;1&#45;&gt;586 -->
<g id="edge33" class="edge">
<title>&#45;1&#45;&gt;586</title>
<path fill="none" stroke="green" stroke-width="0.25" d="M550.91,-303.14C541.81,-293.59 526.69,-277.69 514.18,-264.54"/>
<polygon fill="green" stroke="green" stroke-width="0.25" points="516.87,-262.3 507.44,-257.47 511.8,-267.12 516.87,-262.3"/>
</g>
<!-- 112 -->
<g id="node30" class="node">
<title>112</title>
<ellipse fill="white" stroke="black" cx="408" cy="-163.57" rx="20.86" ry="20.86"/>
<text text-anchor="middle" x="408" y="-160.27" font-family="Times,serif" font-size="9.00">112</text>
</g>
<!-- &#45;1&#45;&gt;112 -->
<g id="edge21" class="edge">
<title>&#45;1&#45;&gt;112</title>
<path fill="none" stroke="red" stroke-width="0.53" stroke-dasharray="1,5" d="M571.15,-303.47C582.86,-294.8 599.81,-279.9 607,-262.15 613.96,-244.96 618.2,-235.21 607,-220.43 586.76,-193.72 490.11,-176.25 439.33,-168.75"/>
<polygon fill="red" stroke="red" stroke-width="0.53" points="440.13,-165.33 429.73,-167.38 439.14,-172.26 440.13,-165.33"/>
</g>
<!-- &#45;2 -->
<g id="node2" class="node">
<title>&#45;2</title>
<polygon fill="lightgray" stroke="black" points="188.75,-321.89 165.25,-321.89 165.25,-303.39 188.75,-303.39 188.75,-321.89"/>
<text text-anchor="middle" x="177" y="-309.34" font-family="Times,serif" font-size="9.00">&#45;2</text>
</g>
<!-- 111 -->
<g id="node29" class="node">
<title>111</title>
<ellipse fill="white" stroke="black" cx="37" cy="-241.29" rx="20.86" ry="20.86"/>
<text text-anchor="middle" x="37" y="-237.99" font-family="Times,serif" font-size="9.00">111</text>
</g>
<!-- &#45;2&#45;&gt;111 -->
<g id="edge12" class="edge">
<title>&#45;2&#45;&gt;111</title>
<path fill="none" stroke="red" stroke-width="0.36" stroke-dasharray="1,5" d="M164.81,-306.92C144.18,-298.75 101.3,-281.05 67,-262.15 65.5,-261.32 63.97,-260.44 62.44,-259.53"/>
<polygon fill="red" stroke="red" stroke-width="0.36" points="64.63,-256.77 54.3,-254.41 60.9,-262.7 64.63,-256.77"/>
</g>
<!-- &#45;2&#45;&gt;112 -->
<g id="edge22" class="edge">
<title>&#45;2&#45;&gt;112</title>
<path fill="none" stroke="green" stroke-width="0.24" d="M188.97,-307.57C210.04,-300.15 254.78,-283.2 289,-262.15 308.76,-249.99 356.48,-209.42 385.13,-184.58"/>
<polygon fill="green" stroke="green" stroke-width="0.24" points="387.14,-187.47 392.39,-178.27 382.54,-182.19 387.14,-187.47"/>
</g>
<!-- &#45;3 -->
<g id="node3" class="node">
<title>&#45;3</title>
<polygon fill="lightgray" stroke="black" points="99.75,-250.54 76.25,-250.54 76.25,-232.04 99.75,-232.04 99.75,-250.54"/>
<text text-anchor="middle" x="88" y="-237.99" font-family="Times,serif" font-size="9.00">&#45;3</text>
</g>
<!-- 110 -->
<g id="node28" class="node">
<title>110</title>
<ellipse fill="white" stroke="black" cx="124" cy="-163.57" rx="20.86" ry="20.86"/>
<text text-anchor="middle" x="124" y="-160.27" font-family="Times,serif" font-size="9.00">110</text>
</g>
<!-- &#45;3&#45;&gt;110 -->
<g id="edge8" class="edge">
<title>&#45;3&#45;&gt;110</title>
<path fill="none" stroke="green" stroke-width="0.26" d="M92.13,-231.6C96.69,-222.01 104.27,-206.07 110.89,-192.14"/>
<polygon fill="green" stroke="green" stroke-width="0.26" points="113.97,-193.81 115.11,-183.27 107.65,-190.8 113.97,-193.81"/>
</g>
<!-- &#45;4 -->
<g id="node4" class="node">
<title>&#45;4</title>
<polygon fill="lightgray" stroke="black" points="327.75,-321.89 304.25,-321.89 304.25,-303.39 327.75,-303.39 327.75,-321.89"/>
<text text-anchor="middle" x="316" y="-309.34" font-family="Times,serif" font-size="9.00">&#45;4</text>
</g>
<!-- &#45;4&#45;&gt;111 -->
<g id="edge27" class="edge">
<title>&#45;4&#45;&gt;111</title>
<path fill="none" stroke="green" stroke-width="0.4" stroke-dasharray="1,5" d="M303.86,-310.89C266.93,-308.27 153.2,-297.63 67,-262.15 65.41,-261.5 63.82,-260.75 62.24,-259.95"/>
<polygon fill="green" stroke="green" stroke-width="0.4" points="64.41,-257.16 54.01,-255.15 60.89,-263.21 64.41,-257.16"/>
</g>
<!-- &#45;4&#45;&gt;112 -->
<g id="edge4" class="edge">
<title>&#45;4&#45;&gt;112</title>
<path fill="none" stroke="red" stroke-width="0.18" d="M321.21,-303.32C334.61,-281.9 370.7,-224.2 391.88,-190.34"/>
<polygon fill="red" stroke="red" stroke-width="0.18" points="394.7,-192.44 397.03,-182.11 388.76,-188.73 394.7,-192.44"/>
</g>
<!-- &#45;5 -->
<g id="node5" class="node">
<title>&#45;5</title>
<polygon fill="lightgray" stroke="black" points="555.75,-250.54 532.25,-250.54 532.25,-232.04 555.75,-232.04 555.75,-250.54"/>
<text text-anchor="middle" x="544" y="-237.99" font-family="Times,serif" font-size="9.00">&#45;5</text>
</g>
<!-- &#45;5&#45;&gt;112 -->
<g id="edge14" class="edge">
<title>&#45;5&#45;&gt;112</title>
<path fill="none" stroke="green" stroke-width="0.37" d="M535.93,-231.54C532.22,-227.83 527.62,-223.63 523,-220.43 495.68,-201.55 461.01,-185.65 436.92,-175.71"/>
<polygon fill="green" stroke="green" stroke-width="0.37" points="438.39,-172.53 427.8,-172.03 435.77,-179.02 438.39,-172.53"/>
</g>
<!-- &#45;6 -->
<g id="node6" class="node">
<title>&#45;6</title>
<polygon fill="lightgray" stroke="black" points="612.75,-321.89 589.25,-321.89 589.25,-303.39 612.75,-303.39 612.75,-321.89"/>
<text text-anchor="middle" x="601" y="-309.34" font-family="Times,serif" font-size="9.00">&#45;6</text>
</g>
<!-- &#45;7 -->
<g id="node7" class="node">
<title>&#45;7</title>
<polygon fill="lightgray" stroke="black" points="141.75,-250.54 118.25,-250.54 118.25,-232.04 141.75,-232.04 141.75,-250.54"/>
<text text-anchor="middle" x="130" y="-237.99" font-family="Times,serif" font-size="9.00">&#45;7</text>
</g>
<!-- &#45;7&#45;&gt;110 -->
<g id="edge1" class="edge">
<title>&#45;7&#45;&gt;110</title>
<path fill="none" stroke="red" stroke-width="0.14" d="M129.31,-231.6C128.6,-222.56 127.43,-207.9 126.38,-194.58"/>
<polygon fill="red" stroke="red" stroke-width="0.14" points="129.9,-194.68 125.62,-184.99 122.92,-195.24 129.9,-194.68"/>
</g>
<!-- &#45;7&#45;&gt;112 -->
<g id="edge23" class="edge">
<title>&#45;7&#45;&gt;112</title>
<path fill="none" stroke="red" stroke-width="0.23" d="M136.97,-231.81C140.73,-227.78 145.68,-223.24 151,-220.43 225.67,-181.01 326.57,-169.39 376.84,-165.98"/>
<polygon fill="red" stroke="red" stroke-width="0.23" points="376.95,-169.48 386.72,-165.38 376.52,-162.49 376.95,-169.48"/>
</g>
<!-- &#45;8 -->
<g id="node8" class="node">
<title>&#45;8</title>
<polygon fill="lightgray" stroke="black" points="597.75,-250.54 574.25,-250.54 574.25,-232.04 597.75,-232.04 597.75,-250.54"/>
<text text-anchor="middle" x="586" y="-237.99" font-family="Times,serif" font-size="9.00">&#45;8</text>
</g>
<!-- &#45;8&#45;&gt;112 -->
<g id="edge10" class="edge">
<title>&#45;8&#45;&gt;112</title>
<path fill="none" stroke="red" stroke-width="0.41" d="M578.48,-231.7C574.74,-227.83 569.96,-223.47 565,-220.43 524.49,-195.61 471.34,-179.65 438.44,-171.39"/>
<polygon fill="red" stroke="red" stroke-width="0.41" points="439.66,-168.08 429.12,-169.12 438.01,-174.89 439.66,-168.08"/>
</g>
<!-- &#45;9 -->
<g id="node9" class="node">
<title>&#45;9</title>
<polygon fill="lightgray" stroke="black" points="654.75,-321.89 631.25,-321.89 631.25,-303.39 654.75,-303.39 654.75,-321.89"/>
<text text-anchor="middle" x="643" y="-309.34" font-family="Times,serif" font-size="9.00">&#45;9</text>
</g>
<!-- &#45;10 -->
<g id="node10" class="node">
<title>&#45;10</title>
<polygon fill="lightgray" stroke="black" points="422,-321.89 394,-321.89 394,-303.39 422,-303.39 422,-321.89"/>
<text text-anchor="middle" x="408" y="-309.34" font-family="Times,serif" font-size="9.00">&#45;10</text>
</g>
<!-- &#45;10&#45;&gt;112 -->
<g id="edge18" class="edge">
<title>&#45;10&#45;&gt;112</title>
<path fill="none" stroke="green" stroke-width="0.42" stroke-dasharray="1,5" d="M406.85,-302.9C405.61,-293.03 403.72,-276.47 403,-262.15 402.07,-243.63 402.17,-238.95 403,-220.43 403.37,-212.18 404.04,-203.26 404.78,-195.03"/>
<polygon fill="green" stroke="green" stroke-width="0.42" points="408.24,-195.63 405.7,-185.34 401.27,-194.96 408.24,-195.63"/>
</g>
<!-- 658 -->
<g id="node31" class="node">
<title>658</title>
<ellipse fill="white" stroke="black" cx="433" cy="-241.29" rx="20.86" ry="20.86"/>
<text text-anchor="middle" x="433" y="-237.99" font-family="Times,serif" font-size="9.00">658</text>
</g>
<!-- &#45;10&#45;&gt;658 -->
<g id="edge36" class="edge">
<title>&#45;10&#45;&gt;658</title>
<path fill="none" stroke="green" stroke-width="0.18" d="M411.07,-303.14C413.98,-295.06 418.53,-282.44 422.73,-270.79"/>
<polygon fill="green" stroke="green" stroke-width="0.18" points="425.94,-272.2 426.04,-261.61 419.35,-269.83 425.94,-272.2"/>
</g>
<!-- &#45;11 -->
<g id="node11" class="node">
<title>&#45;11</title>
<polygon fill="lightgray" stroke="black" points="728,-250.54 700,-250.54 700,-232.04 728,-232.04 728,-250.54"/>
<text text-anchor="middle" x="714" y="-237.99" font-family="Times,serif" font-size="9.00">&#45;11</text>
</g>
<!-- 2 -->
<g id="node23" class="node">
<title>2</title>
<ellipse fill="lightblue" stroke="black" cx="714" cy="-163.57" rx="14.5" ry="14.5"/>
<text text-anchor="middle" x="714" y="-160.27" font-family="Times,serif" font-size="9.00">2</text>
</g>
<!-- &#45;11&#45;&gt;2 -->
<g id="edge35" class="edge">
<title>&#45;11&#45;&gt;2</title>
<path fill="none" stroke="red" stroke-width="0.28" d="M714,-231.6C714,-221.26 714,-203.56 714,-188.94"/>
<polygon fill="red" stroke="red" stroke-width="0.28" points="717.5,-188.96 714,-178.96 710.5,-188.96 717.5,-188.96"/>
</g>
<!-- &#45;11&#45;&gt;112 -->
<g id="edge24" class="edge">
<title>&#45;11&#45;&gt;112</title>
<path fill="none" stroke="red" stroke-width="0.32" stroke-dasharray="1,5" d="M706.24,-231.78C702.1,-227.74 696.69,-223.2 691,-220.43 606.35,-179.17 493.36,-168.38 439.34,-165.57"/>
<polygon fill="red" stroke="red" stroke-width="0.32" points="439.69,-162.08 429.54,-165.11 439.36,-169.07 439.69,-162.08"/>
</g>
<!-- &#45;12 -->
<g id="node12" class="node">
<title>&#45;12</title>
<polygon fill="lightgray" stroke="black" points="682,-250.54 654,-250.54 654,-232.04 682,-232.04 682,-250.54"/>
<text text-anchor="middle" x="668" y="-237.99" font-family="Times,serif" font-size="9.00">&#45;12</text>
</g>
<!-- &#45;12&#45;&gt;112 -->
<g id="edge9" class="edge">
<title>&#45;12&#45;&gt;112</title>
<path fill="none" stroke="green" stroke-width="0.42" stroke-dasharray="1,5" d="M657.94,-231.74C652.85,-227.79 646.4,-223.34 640,-220.43 572.23,-189.63 485.3,-174.55 439.49,-168.29"/>
<polygon fill="green" stroke="green" stroke-width="0.42" points="440.04,-164.83 429.67,-167 439.13,-171.77 440.04,-164.83"/>
</g>
<!-- &#45;13 -->
<g id="node13" class="node">
<title>&#45;13</title>
<polygon fill="lightgray" stroke="black" points="701,-321.89 673,-321.89 673,-303.39 701,-303.39 701,-321.89"/>
<text text-anchor="middle" x="687" y="-309.34" font-family="Times,serif" font-size="9.00">&#45;13</text>
</g>
<!-- &#45;14 -->
<g id="node14" class="node">
<title>&#45;14</title>
<polygon fill="lightgray" stroke="black" points="234,-250.54 206,-250.54 206,-232.04 234,-232.04 234,-250.54"/>
<text text-anchor="middle" x="220" y="-237.99" font-family="Times,serif" font-size="9.00">&#45;14</text>
</g>
<!-- &#45;14&#45;&gt;112 -->
<g id="edge28" class="edge">
<title>&#45;14&#45;&gt;112</title>
<path fill="none" stroke="red" stroke-width="0.25" stroke-dasharray="1,5" d="M228.35,-231.69C232.47,-227.83 237.69,-223.47 243,-220.43 286.66,-195.47 343.22,-179.37 377.5,-171.15"/>
<polygon fill="red" stroke="red" stroke-width="0.25" points="378.07,-174.61 387.01,-168.93 376.48,-167.79 378.07,-174.61"/>
</g>
<!-- &#45;15 -->
<g id="node15" class="node">
<title>&#45;15</title>
<polygon fill="lightgray" stroke="black" points="774,-250.54 746,-250.54 746,-232.04 774,-232.04 774,-250.54"/>
<text text-anchor="middle" x="760" y="-237.99" font-family="Times,serif" font-size="9.00">&#45;15</text>
</g>
<!-- &#45;15&#45;&gt;2 -->
<g id="edge30" class="edge">
<title>&#45;15&#45;&gt;2</title>
<path fill="none" stroke="red" stroke-width="0.38" d="M754.72,-231.6C747.92,-220.41 735.88,-200.58 726.64,-185.38"/>
<polygon fill="red" stroke="red" stroke-width="0.38" points="729.81,-183.86 721.63,-177.13 723.83,-187.5 729.81,-183.86"/>
</g>
<!-- &#45;15&#45;&gt;112 -->
<g id="edge13" class="edge">
<title>&#45;15&#45;&gt;112</title>
<path fill="none" stroke="green" stroke-width="0.14" stroke-dasharray="1,5" d="M752.27,-231.71C748.14,-227.66 742.73,-223.13 737,-220.43 635.64,-172.69 499.67,-165.2 439.22,-164.39"/>
<polygon fill="green" stroke="green" stroke-width="0.14" points="439.42,-160.89 429.39,-164.31 439.36,-167.89 439.42,-160.89"/>
</g>
<!-- &#45;16 -->
<g id="node16" class="node">
<title>&#45;16</title>
<polygon fill="lightgray" stroke="black" points="188,-250.54 160,-250.54 160,-232.04 188,-232.04 188,-250.54"/>
<text text-anchor="middle" x="174" y="-237.99" font-family="Times,serif" font-size="9.00">&#45;16</text>
</g>
<!-- &#45;16&#45;&gt;110 -->
<g id="edge25" class="edge">
<title>&#45;16&#45;&gt;110</title>
<path fill="none" stroke="green" stroke-width="0.13" stroke-dasharray="1,5" d="M168.26,-231.6C161.53,-221.41 150.07,-204.05 140.49,-189.55"/>
<polygon fill="green" stroke="green" stroke-width="0.13" points="143.67,-188 135.24,-181.58 137.82,-191.86 143.67,-188"/>
</g>
<!-- &#45;16&#45;&gt;112 -->
<g id="edge19" class="edge">
<title>&#45;16&#45;&gt;112</title>
<path fill="none" stroke="red" stroke-width="0.37" d="M181.84,-231.93C186,-227.93 191.4,-223.38 197,-220.43 256.19,-189.2 334.15,-174.47 376.8,-168.34"/>
<polygon fill="red" stroke="red" stroke-width="0.37" points="377.11,-171.83 386.54,-167.01 376.16,-164.9 377.11,-171.83"/>
</g>
<!-- &#45;17 -->
<g id="node17" class="node">
<title>&#45;17</title>
<polygon fill="lightgray" stroke="black" points="28,-321.89 0,-321.89 0,-303.39 28,-303.39 28,-321.89"/>
<text text-anchor="middle" x="14" y="-309.34" font-family="Times,serif" font-size="9.00">&#45;17</text>
</g>
<!-- &#45;17&#45;&gt;111 -->
<g id="edge5" class="edge">
<title>&#45;17&#45;&gt;111</title>
<path fill="none" stroke="green" stroke-width="0.25" d="M16.82,-303.14C19.46,-295.2 23.54,-282.87 27.35,-271.38"/>
<polygon fill="green" stroke="green" stroke-width="0.25" points="30.64,-272.58 30.47,-261.99 24,-270.38 30.64,-272.58"/>
</g>
<!-- &#45;18 -->
<g id="node18" class="node">
<title>&#45;18</title>
<polygon fill="lightgray" stroke="black" points="280,-250.54 252,-250.54 252,-232.04 280,-232.04 280,-250.54"/>
<text text-anchor="middle" x="266" y="-237.99" font-family="Times,serif" font-size="9.00">&#45;18</text>
</g>
<!-- &#45;18&#45;&gt;112 -->
<g id="edge3" class="edge">
<title>&#45;18&#45;&gt;112</title>
<path fill="none" stroke="green" stroke-width="0.1" d="M277.43,-231.55C282.4,-227.92 288.36,-223.78 294,-220.43 322.31,-203.6 356.41,-187.39 379.89,-176.81"/>
<polygon fill="green" stroke="green" stroke-width="0.1" points="381.1,-180.1 388.81,-172.83 378.25,-173.71 381.1,-180.1"/>
</g>
<!-- &#45;19 -->
<g id="node19" class="node">
<title>&#45;19</title>
<polygon fill="lightgray" stroke="black" points="74,-321.89 46,-321.89 46,-303.39 74,-303.39 74,-321.89"/>
<text text-anchor="middle" x="60" y="-309.34" font-family="Times,serif" font-size="9.00">&#45;19</text>
</g>
<!-- &#45;19&#45;&gt;111 -->
<g id="edge6" class="edge">
<title>&#45;19&#45;&gt;111</title>
<path fill="none" stroke="red" stroke-width="0.15" d="M57.18,-303.14C54.52,-295.12 50.37,-282.62 46.53,-271.03"/>
<polygon fill="red" stroke="red" stroke-width="0.15" points="49.96,-270.24 43.49,-261.85 43.31,-272.44 49.96,-270.24"/>
</g>
<!-- &#45;20 -->
<g id="node20" class="node">
<title>&#45;20</title>
<polygon fill="lightgray" stroke="black" points="747,-321.89 719,-321.89 719,-303.39 747,-303.39 747,-321.89"/>
<text text-anchor="middle" x="733" y="-309.34" font-family="Times,serif" font-size="9.00">&#45;20</text>
</g>
<!-- 0 -->
<g id="node21" class="node">
<title>0</title>
<ellipse fill="lightblue" stroke="black" cx="779" cy="-312.64" rx="14.5" ry="14.5"/>
<text text-anchor="middle" x="779" y="-309.34" font-family="Times,serif" font-size="9.00">0</text>
</g>
<!-- 1 -->
<g id="node22" class="node">
<title>1</title>
<ellipse fill="lightblue" stroke="black" cx="57" cy="-85.85" rx="14.5" ry="14.5"/>
<text text-anchor="middle" x="57" y="-82.55" font-family="Times,serif" font-size="9.00">1</text>
</g>
<!-- 3 -->
<g id="node24" class="node">
<title>3</title>
<ellipse fill="lightblue" stroke="black" cx="124" cy="-85.85" rx="14.5" ry="14.5"/>
<text text-anchor="middle" x="124" y="-82.55" font-family="Times,serif" font-size="9.00">3</text>
</g>
<!-- 4 -->
<g id="node25" class="node">
<title>4</title>
<ellipse fill="lightblue" stroke="black" cx="407" cy="-14.5" rx="14.5" ry="14.5"/>
<text text-anchor="middle" x="407" y="-11.2" font-family="Times,serif" font-size="9.00">4</text>
</g>
<!-- 586&#45;&gt;112 -->
<g id="edge34" class="edge">
<title>586&#45;&gt;112</title>
<path fill="none" stroke="red" stroke-width="0.45" d="M477.8,-226.75C464.83,-215.2 445.97,-198.39 431.12,-185.17"/>
<polygon fill="red" stroke="red" stroke-width="0.45" points="433.66,-182.74 423.86,-178.7 429,-187.97 433.66,-182.74"/>
</g>
<!-- 492 -->
<g id="node27" class="node">
<title>492</title>
<ellipse fill="white" stroke="black" cx="383" cy="-85.85" rx="20.86" ry="20.86"/>
<text text-anchor="middle" x="383" y="-82.55" font-family="Times,serif" font-size="9.00">492</text>
</g>
<!-- 492&#45;&gt;4 -->
<g id="edge32" class="edge">
<title>492&#45;&gt;4</title>
<path fill="none" stroke="red" stroke-width="0.44" d="M389.56,-65.9C392.48,-57.46 395.94,-47.44 399.01,-38.57"/>
<polygon fill="red" stroke="red" stroke-width="0.44" points="402.32,-39.73 402.28,-29.13 395.7,-37.44 402.32,-39.73"/>
</g>
<!-- 110&#45;&gt;1 -->
<g id="edge2" class="edge">
<title>110&#45;&gt;1</title>
<path fill="none" stroke="green" stroke-width="0.67" d="M110.44,-147.25C99.75,-135.17 84.81,-118.28 73.44,-105.43"/>
<polygon fill="green" stroke="green" stroke-width="0.67" points="76.15,-103.21 66.9,-98.04 70.91,-107.85 76.15,-103.21"/>
</g>
<!-- 110&#45;&gt;3 -->
<g id="edge26" class="edge">
<title>110&#45;&gt;3</title>
<path fill="none" stroke="green" stroke-width="0.63" d="M124,-142.28C124,-132.83 124,-121.51 124,-111.57"/>
<polygon fill="green" stroke="green" stroke-width="0.63" points="127.5,-111.69 124,-101.69 120.5,-111.69 127.5,-111.69"/>
</g>
<!-- 110&#45;&gt;110 -->
<g id="edge11" class="edge">
<title>110&#45;&gt;110</title>
<path fill="none" stroke="green" stroke-width="0.39" stroke-dasharray="1,5" d="M140.37,-176.72C151.7,-180.7 162.86,-176.32 162.86,-163.57 162.86,-154.8 157.59,-149.99 150.61,-149.14"/>
<polygon fill="green" stroke="green" stroke-width="0.39" points="150.45,-145.63 140.96,-150.35 151.32,-152.58 150.45,-145.63"/>
</g>
<!-- 111&#45;&gt;1 -->
<g id="edge16" class="edge">
<title>111&#45;&gt;1</title>
<path fill="none" stroke="red" stroke-width="0.12" stroke-dasharray="1,5" d="M39.61,-220.23C43.29,-192.01 49.98,-140.7 53.9,-110.61"/>
<polygon fill="red" stroke="red" stroke-width="0.12" points="57.37,-111.11 55.19,-100.74 50.43,-110.21 57.37,-111.11"/>
</g>
<!-- 111&#45;&gt;2 -->
<g id="edge7" class="edge">
<title>111&#45;&gt;2</title>
<path fill="none" stroke="red" stroke-width="0.13" d="M53.03,-227.57C57.35,-224.76 62.16,-222.12 67,-220.43 96.97,-209.98 575.04,-174.68 689.51,-166.34"/>
<polygon fill="red" stroke="red" stroke-width="0.13" points="689.51,-169.85 699.23,-165.64 689,-162.87 689.51,-169.85"/>
</g>
<!-- 111&#45;&gt;3 -->
<g id="edge20" class="edge">
<title>111&#45;&gt;3</title>
<path fill="none" stroke="red" stroke-width="0.44" d="M46.98,-222.69C63.09,-194.28 94.76,-138.42 112.05,-107.93"/>
<polygon fill="red" stroke="red" stroke-width="0.44" points="114.9,-109.99 116.79,-99.57 108.81,-106.54 114.9,-109.99"/>
</g>
<!-- 111&#45;&gt;110 -->
<g id="edge29" class="edge">
<title>111&#45;&gt;110</title>
<path fill="none" stroke="green" stroke-width="0.15" d="M52.55,-226.75C66.04,-215.02 85.74,-197.87 101.04,-184.56"/>
<polygon fill="green" stroke="green" stroke-width="0.15" points="103.17,-187.34 108.41,-178.14 98.57,-182.06 103.17,-187.34"/>
</g>
<!-- 112&#45;&gt;3 -->
<g id="edge15" class="edge">
<title>112&#45;&gt;3</title>
<path fill="none" stroke="green" stroke-width="0.42" d="M388.03,-157.25C337.24,-143.7 203.26,-107.98 148.18,-93.3"/>
<polygon fill="green" stroke="green" stroke-width="0.42" points="149.14,-89.93 138.58,-90.74 147.34,-96.7 149.14,-89.93"/>
</g>
<!-- 112&#45;&gt;4 -->
<g id="edge17" class="edge">
<title>112&#45;&gt;4</title>
<path fill="none" stroke="green" stroke-width="0.14" stroke-dasharray="1,5" d="M410.35,-142.38C412.33,-122.64 414.62,-91.74 413,-64.99 412.49,-56.58 411.5,-47.41 410.47,-39.27"/>
<polygon fill="green" stroke="green" stroke-width="0.14" points="413.96,-38.97 409.16,-29.53 407.03,-39.91 413.96,-38.97"/>
</g>
<!-- 112&#45;&gt;492 -->
<g id="edge31" class="edge">
<title>112&#45;&gt;492</title>
<path fill="none" stroke="green" stroke-width="0.47" d="M401.69,-143.46C398.96,-135.19 395.7,-125.31 392.67,-116.14"/>
<polygon fill="green" stroke="green" stroke-width="0.47" points="396.07,-115.28 389.61,-106.89 389.43,-117.48 396.07,-115.28"/>
</g>
<!-- 658&#45;&gt;112 -->
<g id="edge37" class="edge">
<title>658&#45;&gt;112</title>
<path fill="none" stroke="green" stroke-width="0.5" d="M426.69,-221.18C423.96,-212.91 420.7,-203.03 417.67,-193.86"/>
<polygon fill="green" stroke="green" stroke-width="0.5" points="421.09,-193.06 414.63,-184.66 414.44,-195.25 421.09,-193.06"/>
</g>
</g>
</svg>
