<?xml version="1.0" encoding="UTF-8" standalone="no"?>
<!DOCTYPE svg PUBLIC "-//W3C//DTD SVG 1.1//EN"
 "http://www.w3.org/Graphics/SVG/1.1/DTD/svg11.dtd">
<!-- Generated by graphviz version 12.1.1 (20240910.0053)
 -->
<!-- Pages: 1 -->
<svg width="874pt" height="163pt"
 viewBox="0.00 0.00 873.75 162.85" xmlns="http://www.w3.org/2000/svg" xmlns:xlink="http://www.w3.org/1999/xlink">
<g id="graph0" class="graph" transform="scale(1 1) rotate(0) translate(4 158.85)">
<polygon fill="white" stroke="none" points="-4,4 -4,-158.85 869.75,-158.85 869.75,4 -4,4"/>
<!-- &#45;1 -->
<g id="node1" class="node">
<title>&#45;1</title>
<polygon fill="lightgray" stroke="black" points="287.5,-154.85 264,-154.85 264,-136.35 287.5,-136.35 287.5,-154.85"/>
<text text-anchor="middle" x="275.75" y="-142.3" font-family="Times,serif" font-size="9.00">&#45;1</text>
</g>
<!-- 13 -->
<g id="node26" class="node">
<title>13</title>
<ellipse fill="white" stroke="black" cx="365.75" cy="-82.67" rx="17.68" ry="17.68"/>
<text text-anchor="middle" x="365.75" y="-79.37" font-family="Times,serif" font-size="9.00">13</text>
</g>
<!-- &#45;1&#45;&gt;13 -->
<g id="edge2" class="edge">
<title>&#45;1&#45;&gt;13</title>
<path fill="none" stroke="green" stroke-width="0.12" d="M287.89,-136.38C302.07,-126.78 325.83,-110.69 343.39,-98.81"/>
<polygon fill="green" stroke="green" stroke-width="0.12" points="344.97,-101.97 351.28,-93.46 341.04,-96.17 344.97,-101.97"/>
</g>
<!-- &#45;2 -->
<g id="node2" class="node">
<title>&#45;2</title>
<polygon fill="lightgray" stroke="black" points="647.5,-154.85 624,-154.85 624,-136.35 647.5,-136.35 647.5,-154.85"/>
<text text-anchor="middle" x="635.75" y="-142.3" font-family="Times,serif" font-size="9.00">&#45;2</text>
</g>
<!-- &#45;2&#45;&gt;13 -->
<g id="edge39" class="edge">
<title>&#45;2&#45;&gt;13</title>
<path fill="none" stroke="green" stroke-width="0.4" d="M623.89,-139.5C620.94,-138.35 617.76,-137.22 614.75,-136.35 533.89,-112.85 510.83,-119.13 428.75,-100.35 416.88,-97.63 403.86,-94.25 392.75,-91.25"/>
<polygon fill="green" stroke="green" stroke-width="0.4" points="393.94,-87.94 383.37,-88.67 392.09,-94.69 393.94,-87.94"/>
</g>
<!-- 14 -->
<g id="node27" class="node">
<title>14</title>
<ellipse fill="white" stroke="black" cx="591.75" cy="-82.67" rx="17.68" ry="17.68"/>
<text text-anchor="middle" x="591.75" y="-79.37" font-family="Times,serif" font-size="9.00">14</text>
</g>
<!-- &#45;2&#45;&gt;14 -->
<g id="edge44" class="edge">
<title>&#45;2&#45;&gt;14</title>
<path fill="none" stroke="green" stroke-width="0.31" d="M629.45,-135.87C623.8,-128.05 615.28,-116.26 607.77,-105.85"/>
<polygon fill="green" stroke="green" stroke-width="0.31" points="610.75,-104 602.06,-97.95 605.08,-108.1 610.75,-104"/>
</g>
<!-- 16 -->
<g id="node29" class="node">
<title>16</title>
<ellipse fill="white" stroke="black" cx="455.75" cy="-82.67" rx="17.68" ry="17.68"/>
<text text-anchor="middle" x="455.75" y="-79.37" font-family="Times,serif" font-size="9.00">16</text>
</g>
<!-- &#45;2&#45;&gt;16 -->
<g id="edge1" class="edge">
<title>&#45;2&#45;&gt;16</title>
<path fill="none" stroke="green" stroke-width="0.26" d="M623.8,-139.77C620.85,-138.62 617.7,-137.41 614.75,-136.35 568.56,-119.64 514.11,-102.05 482.4,-92.01"/>
<polygon fill="green" stroke="green" stroke-width="0.26" points="483.52,-88.69 472.93,-89.02 481.42,-95.37 483.52,-88.69"/>
</g>
<!-- &#45;3 -->
<g id="node3" class="node">
<title>&#45;3</title>
<polygon fill="lightgray" stroke="black" points="689.5,-154.85 666,-154.85 666,-136.35 689.5,-136.35 689.5,-154.85"/>
<text text-anchor="middle" x="677.75" y="-142.3" font-family="Times,serif" font-size="9.00">&#45;3</text>
</g>
<!-- &#45;3&#45;&gt;14 -->
<g id="edge29" class="edge">
<title>&#45;3&#45;&gt;14</title>
<path fill="none" stroke="red" stroke-width="0.11" d="M665.79,-136.12C652.43,-126.66 630.5,-111.12 613.97,-99.41"/>
<polygon fill="red" stroke="red" stroke-width="0.11" points="616.21,-96.71 606.03,-93.79 612.17,-102.42 616.21,-96.71"/>
</g>
<!-- &#45;3&#45;&gt;16 -->
<g id="edge17" class="edge">
<title>&#45;3&#45;&gt;16</title>
<path fill="none" stroke="green" stroke-width="0.15" d="M665.84,-139.64C662.9,-138.49 659.73,-137.32 656.75,-136.35 595.36,-116.32 521.55,-98.54 482.7,-89.66"/>
<polygon fill="green" stroke="green" stroke-width="0.15" points="483.91,-86.35 473.38,-87.55 482.36,-93.18 483.91,-86.35"/>
</g>
<!-- &#45;4 -->
<g id="node4" class="node">
<title>&#45;4</title>
<polygon fill="lightgray" stroke="black" points="23.5,-154.85 0,-154.85 0,-136.35 23.5,-136.35 23.5,-154.85"/>
<text text-anchor="middle" x="11.75" y="-142.3" font-family="Times,serif" font-size="9.00">&#45;4</text>
</g>
<!-- 15 -->
<g id="node28" class="node">
<title>15</title>
<ellipse fill="white" stroke="black" cx="166.75" cy="-82.67" rx="17.68" ry="17.68"/>
<text text-anchor="middle" x="166.75" y="-79.37" font-family="Times,serif" font-size="9.00">15</text>
</g>
<!-- &#45;4&#45;&gt;15 -->
<g id="edge4" class="edge">
<title>&#45;4&#45;&gt;15</title>
<path fill="none" stroke="red" stroke-width="0.39" d="M23.91,-139.82C49.01,-129.95 107,-107.15 140.87,-93.84"/>
<polygon fill="red" stroke="red" stroke-width="0.39" points="141.98,-97.17 150,-90.25 139.41,-90.65 141.98,-97.17"/>
</g>
<!-- &#45;5 -->
<g id="node5" class="node">
<title>&#45;5</title>
<polygon fill="lightgray" stroke="black" points="731.5,-154.85 708,-154.85 708,-136.35 731.5,-136.35 731.5,-154.85"/>
<text text-anchor="middle" x="719.75" y="-142.3" font-family="Times,serif" font-size="9.00">&#45;5</text>
</g>
<!-- &#45;5&#45;&gt;14 -->
<g id="edge15" class="edge">
<title>&#45;5&#45;&gt;14</title>
<path fill="none" stroke="red" stroke-width="0.6" d="M707.94,-138.97C687.41,-129.2 644.73,-108.89 617.21,-95.79"/>
<polygon fill="red" stroke="red" stroke-width="0.6" points="618.83,-92.68 608.29,-91.54 615.82,-99 618.83,-92.68"/>
</g>
<!-- &#45;6 -->
<g id="node6" class="node">
<title>&#45;6</title>
<polygon fill="lightgray" stroke="black" points="157.5,-154.85 134,-154.85 134,-136.35 157.5,-136.35 157.5,-154.85"/>
<text text-anchor="middle" x="145.75" y="-142.3" font-family="Times,serif" font-size="9.00">&#45;6</text>
</g>
<!-- &#45;6&#45;&gt;13 -->
<g id="edge26" class="edge">
<title>&#45;6&#45;&gt;13</title>
<path fill="none" stroke="red" stroke-width="0.24" d="M157.66,-139.64C160.6,-138.49 163.77,-137.32 166.75,-136.35 227.13,-116.57 299.62,-98.85 338.28,-89.88"/>
<polygon fill="red" stroke="red" stroke-width="0.24" points="338.94,-93.32 347.9,-87.66 337.37,-86.5 338.94,-93.32"/>
</g>
<!-- &#45;6&#45;&gt;15 -->
<g id="edge20" class="edge">
<title>&#45;6&#45;&gt;15</title>
<path fill="none" stroke="red" stroke-width="0.18" d="M148.76,-135.87C151.15,-128.93 154.62,-118.86 157.88,-109.41"/>
<polygon fill="red" stroke="red" stroke-width="0.18" points="161.1,-110.79 161.05,-100.19 154.49,-108.51 161.1,-110.79"/>
</g>
<!-- &#45;7 -->
<g id="node7" class="node">
<title>&#45;7</title>
<polygon fill="lightgray" stroke="black" points="819.5,-154.85 796,-154.85 796,-136.35 819.5,-136.35 819.5,-154.85"/>
<text text-anchor="middle" x="807.75" y="-142.3" font-family="Times,serif" font-size="9.00">&#45;7</text>
</g>
<!-- &#45;8 -->
<g id="node8" class="node">
<title>&#45;8</title>
<polygon fill="lightgray" stroke="black" points="199.5,-154.85 176,-154.85 176,-136.35 199.5,-136.35 199.5,-154.85"/>
<text text-anchor="middle" x="187.75" y="-142.3" font-family="Times,serif" font-size="9.00">&#45;8</text>
</g>
<!-- &#45;8&#45;&gt;13 -->
<g id="edge30" class="edge">
<title>&#45;8&#45;&gt;13</title>
<path fill="none" stroke="green" stroke-width="0.18" d="M199.7,-139.78C202.65,-138.63 205.81,-137.42 208.75,-136.35 254.38,-119.74 308.15,-102.12 339.44,-92.05"/>
<polygon fill="green" stroke="green" stroke-width="0.18" points="340.44,-95.4 348.9,-89.01 338.31,-88.74 340.44,-95.4"/>
</g>
<!-- &#45;8&#45;&gt;15 -->
<g id="edge10" class="edge">
<title>&#45;8&#45;&gt;15</title>
<path fill="none" stroke="red" stroke-width="0.33" d="M184.74,-135.87C182.38,-129 178.95,-119.07 175.72,-109.71"/>
<polygon fill="red" stroke="red" stroke-width="0.33" points="179.09,-108.73 172.52,-100.42 172.47,-111.01 179.09,-108.73"/>
</g>
<!-- &#45;9 -->
<g id="node9" class="node">
<title>&#45;9</title>
<polygon fill="lightgray" stroke="black" points="467.5,-154.85 444,-154.85 444,-136.35 467.5,-136.35 467.5,-154.85"/>
<text text-anchor="middle" x="455.75" y="-142.3" font-family="Times,serif" font-size="9.00">&#45;9</text>
</g>
<!-- &#45;9&#45;&gt;13 -->
<g id="edge38" class="edge">
<title>&#45;9&#45;&gt;13</title>
<path fill="none" stroke="red" stroke-width="0.13" d="M443.61,-136.38C429.43,-126.78 405.67,-110.69 388.11,-98.81"/>
<polygon fill="red" stroke="red" stroke-width="0.13" points="390.47,-96.17 380.22,-93.47 386.54,-101.97 390.47,-96.17"/>
</g>
<!-- &#45;9&#45;&gt;14 -->
<g id="edge21" class="edge">
<title>&#45;9&#45;&gt;14</title>
<path fill="none" stroke="red" stroke-width="0.3" d="M467.82,-139.19C489.9,-129.3 537.21,-108.1 566.57,-94.95"/>
<polygon fill="red" stroke="red" stroke-width="0.3" points="567.67,-98.29 575.36,-91.01 564.81,-91.9 567.67,-98.29"/>
</g>
<!-- &#45;9&#45;&gt;16 -->
<g id="edge43" class="edge">
<title>&#45;9&#45;&gt;16</title>
<path fill="none" stroke="red" stroke-width="0.12" d="M455.75,-135.87C455.75,-129.17 455.75,-119.56 455.75,-110.4"/>
<polygon fill="red" stroke="red" stroke-width="0.12" points="459.25,-110.61 455.75,-100.61 452.25,-110.61 459.25,-110.61"/>
</g>
<!-- &#45;10 -->
<g id="node10" class="node">
<title>&#45;10</title>
<polygon fill="lightgray" stroke="black" points="333.75,-154.85 305.75,-154.85 305.75,-136.35 333.75,-136.35 333.75,-154.85"/>
<text text-anchor="middle" x="319.75" y="-142.3" font-family="Times,serif" font-size="9.00">&#45;10</text>
</g>
<!-- &#45;10&#45;&gt;13 -->
<g id="edge24" class="edge">
<title>&#45;10&#45;&gt;13</title>
<path fill="none" stroke="green" stroke-width="0.29" d="M326.34,-135.87C332.38,-127.87 341.56,-115.7 349.55,-105.13"/>
<polygon fill="green" stroke="green" stroke-width="0.29" points="352.12,-107.53 355.35,-97.44 346.53,-103.32 352.12,-107.53"/>
</g>
<!-- &#45;10&#45;&gt;16 -->
<g id="edge12" class="edge">
<title>&#45;10&#45;&gt;16</title>
<path fill="none" stroke="green" stroke-width="0.32" d="M334.05,-138.19C356.99,-127.92 402.31,-107.61 430.7,-94.89"/>
<polygon fill="green" stroke="green" stroke-width="0.32" points="431.85,-98.21 439.54,-90.93 428.99,-91.82 431.85,-98.21"/>
</g>
<!-- &#45;11 -->
<g id="node11" class="node">
<title>&#45;11</title>
<polygon fill="lightgray" stroke="black" points="69.75,-154.85 41.75,-154.85 41.75,-136.35 69.75,-136.35 69.75,-154.85"/>
<text text-anchor="middle" x="55.75" y="-142.3" font-family="Times,serif" font-size="9.00">&#45;11</text>
</g>
<!-- &#45;11&#45;&gt;15 -->
<g id="edge3" class="edge">
<title>&#45;11&#45;&gt;15</title>
<path fill="none" stroke="green" stroke-width="0.33" d="M69.81,-136.88C88,-126.89 120,-109.33 142.23,-97.13"/>
<polygon fill="green" stroke="green" stroke-width="0.33" points="143.86,-100.23 150.94,-92.35 140.49,-94.09 143.86,-100.23"/>
</g>
<!-- &#45;12 -->
<g id="node12" class="node">
<title>&#45;12</title>
<polygon fill="lightgray" stroke="black" points="115.75,-154.85 87.75,-154.85 87.75,-136.35 115.75,-136.35 115.75,-154.85"/>
<text text-anchor="middle" x="101.75" y="-142.3" font-family="Times,serif" font-size="9.00">&#45;12</text>
</g>
<!-- &#45;12&#45;&gt;15 -->
<g id="edge32" class="edge">
<title>&#45;12&#45;&gt;15</title>
<path fill="none" stroke="green" stroke-width="0.3" d="M111.06,-135.87C120.39,-127.12 135.04,-113.39 146.97,-102.21"/>
<polygon fill="green" stroke="green" stroke-width="0.3" points="149.11,-105 154.01,-95.61 144.32,-99.89 149.11,-105"/>
</g>
<!-- &#45;13 -->
<g id="node13" class="node">
<title>&#45;13</title>
<polygon fill="lightgray" stroke="black" points="245.75,-154.85 217.75,-154.85 217.75,-136.35 245.75,-136.35 245.75,-154.85"/>
<text text-anchor="middle" x="231.75" y="-142.3" font-family="Times,serif" font-size="9.00">&#45;13</text>
</g>
<!-- &#45;13&#45;&gt;13 -->
<g id="edge18" class="edge">
<title>&#45;13&#45;&gt;13</title>
<path fill="none" stroke="red" stroke-width="0.18" d="M246.09,-138.08C268.68,-127.81 312.84,-107.73 340.73,-95.04"/>
<polygon fill="red" stroke="red" stroke-width="0.18" points="341.96,-98.33 349.61,-91.01 339.06,-91.96 341.96,-98.33"/>
</g>
<!-- &#45;14 -->
<g id="node14" class="node">
<title>&#45;14</title>
<polygon fill="lightgray" stroke="black" points="379.75,-154.85 351.75,-154.85 351.75,-136.35 379.75,-136.35 379.75,-154.85"/>
<text text-anchor="middle" x="365.75" y="-142.3" font-family="Times,serif" font-size="9.00">&#45;14</text>
</g>
<!-- &#45;14&#45;&gt;13 -->
<g id="edge31" class="edge">
<title>&#45;14&#45;&gt;13</title>
<path fill="none" stroke="green" stroke-width="0.31" d="M365.75,-135.87C365.75,-129.25 365.75,-119.76 365.75,-110.7"/>
<polygon fill="green" stroke="green" stroke-width="0.31" points="369.25,-110.91 365.75,-100.91 362.25,-110.91 369.25,-110.91"/>
</g>
<!-- &#45;14&#45;&gt;16 -->
<g id="edge40" class="edge">
<title>&#45;14&#45;&gt;16</title>
<path fill="none" stroke="red" stroke-width="0.61" d="M378.64,-135.87C392.67,-126.37 415.38,-111 432.53,-99.39"/>
<polygon fill="red" stroke="red" stroke-width="0.61" points="434.3,-102.42 440.62,-93.91 430.38,-96.62 434.3,-102.42"/>
</g>
<!-- &#45;15 -->
<g id="node15" class="node">
<title>&#45;15</title>
<polygon fill="lightgray" stroke="black" points="777.75,-154.85 749.75,-154.85 749.75,-136.35 777.75,-136.35 777.75,-154.85"/>
<text text-anchor="middle" x="763.75" y="-142.3" font-family="Times,serif" font-size="9.00">&#45;15</text>
</g>
<!-- &#45;15&#45;&gt;14 -->
<g id="edge13" class="edge">
<title>&#45;15&#45;&gt;14</title>
<path fill="none" stroke="green" stroke-width="0.14" d="M749.64,-139.53C746.71,-138.47 743.63,-137.37 740.75,-136.35 697.56,-120.97 647.26,-103.22 617.55,-92.75"/>
<polygon fill="green" stroke="green" stroke-width="0.14" points="619.09,-89.58 608.49,-89.56 616.76,-96.18 619.09,-89.58"/>
</g>
<!-- &#45;16 -->
<g id="node16" class="node">
<title>&#45;16</title>
<polygon fill="lightgray" stroke="black" points="425.75,-154.85 397.75,-154.85 397.75,-136.35 425.75,-136.35 425.75,-154.85"/>
<text text-anchor="middle" x="411.75" y="-142.3" font-family="Times,serif" font-size="9.00">&#45;16</text>
</g>
<!-- &#45;16&#45;&gt;14 -->
<g id="edge14" class="edge">
<title>&#45;16&#45;&gt;14</title>
<path fill="none" stroke="green" stroke-width="0.3" d="M425.84,-139.49C428.78,-138.44 431.86,-137.35 434.75,-136.35 480.63,-120.42 534.31,-102.58 565.53,-92.28"/>
<polygon fill="green" stroke="green" stroke-width="0.3" points="566.38,-95.69 574.78,-89.24 564.19,-89.04 566.38,-95.69"/>
</g>
<!-- &#45;16&#45;&gt;15 -->
<g id="edge42" class="edge">
<title>&#45;16&#45;&gt;15</title>
<path fill="none" stroke="red" stroke-width="0.28" d="M397.72,-139.29C394.78,-138.25 391.68,-137.22 388.75,-136.35 319.58,-115.81 236.46,-97.83 194.25,-89.16"/>
<polygon fill="red" stroke="red" stroke-width="0.28" points="195.11,-85.77 184.62,-87.2 193.72,-92.63 195.11,-85.77"/>
</g>
<!-- &#45;17 -->
<g id="node17" class="node">
<title>&#45;17</title>
<polygon fill="lightgray" stroke="black" points="605.75,-154.85 577.75,-154.85 577.75,-136.35 605.75,-136.35 605.75,-154.85"/>
<text text-anchor="middle" x="591.75" y="-142.3" font-family="Times,serif" font-size="9.00">&#45;17</text>
</g>
<!-- &#45;17&#45;&gt;13 -->
<g id="edge6" class="edge">
<title>&#45;17&#45;&gt;13</title>
<path fill="none" stroke="red" stroke-width="0.46" d="M577.71,-139.33C574.77,-138.29 571.67,-137.24 568.75,-136.35 507.34,-117.48 490.92,-116.57 428.75,-100.35 417.09,-97.3 404.23,-93.91 393.18,-90.98"/>
<polygon fill="red" stroke="red" stroke-width="0.46" points="394.09,-87.6 383.53,-88.41 392.3,-94.36 394.09,-87.6"/>
</g>
<!-- &#45;17&#45;&gt;14 -->
<g id="edge41" class="edge">
<title>&#45;17&#45;&gt;14</title>
<path fill="none" stroke="green" stroke-width="0.42" d="M591.75,-135.87C591.75,-129.32 591.75,-119.97 591.75,-110.99"/>
<polygon fill="green" stroke="green" stroke-width="0.42" points="595.25,-111.07 591.75,-101.07 588.25,-111.07 595.25,-111.07"/>
</g>
<!-- &#45;17&#45;&gt;16 -->
<g id="edge35" class="edge">
<title>&#45;17&#45;&gt;16</title>
<path fill="none" stroke="green" stroke-width="0.17" d="M577.45,-138.19C554.51,-127.92 509.19,-107.61 480.8,-94.89"/>
<polygon fill="green" stroke="green" stroke-width="0.17" points="482.32,-91.74 471.76,-90.84 479.45,-98.12 482.32,-91.74"/>
</g>
<!-- &#45;18 -->
<g id="node18" class="node">
<title>&#45;18</title>
<polygon fill="lightgray" stroke="black" points="865.75,-154.85 837.75,-154.85 837.75,-136.35 865.75,-136.35 865.75,-154.85"/>
<text text-anchor="middle" x="851.75" y="-142.3" font-family="Times,serif" font-size="9.00">&#45;18</text>
</g>
<!-- &#45;19 -->
<g id="node19" class="node">
<title>&#45;19</title>
<polygon fill="lightgray" stroke="black" points="513.75,-154.85 485.75,-154.85 485.75,-136.35 513.75,-136.35 513.75,-154.85"/>
<text text-anchor="middle" x="499.75" y="-142.3" font-family="Times,serif" font-size="9.00">&#45;19</text>
</g>
<!-- &#45;19&#45;&gt;13 -->
<g id="edge7" class="edge">
<title>&#45;19&#45;&gt;13</title>
<path fill="none" stroke="green" stroke-width="0.16" d="M485.41,-138.08C462.82,-127.81 418.66,-107.73 390.77,-95.04"/>
<polygon fill="green" stroke="green" stroke-width="0.16" points="392.42,-91.95 381.87,-91 389.52,-98.32 392.42,-91.95"/>
</g>
<!-- &#45;19&#45;&gt;14 -->
<g id="edge25" class="edge">
<title>&#45;19&#45;&gt;14</title>
<path fill="none" stroke="green" stroke-width="0.39" d="M512.93,-135.87C527.4,-126.28 550.91,-110.71 568.5,-99.07"/>
<polygon fill="green" stroke="green" stroke-width="0.39" points="570.17,-102.16 576.58,-93.72 566.31,-96.32 570.17,-102.16"/>
</g>
<!-- &#45;20 -->
<g id="node20" class="node">
<title>&#45;20</title>
<polygon fill="lightgray" stroke="black" points="559.75,-154.85 531.75,-154.85 531.75,-136.35 559.75,-136.35 559.75,-154.85"/>
<text text-anchor="middle" x="545.75" y="-142.3" font-family="Times,serif" font-size="9.00">&#45;20</text>
</g>
<!-- &#45;20&#45;&gt;16 -->
<g id="edge36" class="edge">
<title>&#45;20&#45;&gt;16</title>
<path fill="none" stroke="green" stroke-width="0.12" d="M532.86,-135.87C518.7,-126.28 495.7,-110.71 478.5,-99.07"/>
<polygon fill="green" stroke="green" stroke-width="0.12" points="480.51,-96.2 470.26,-93.49 476.58,-102 480.51,-96.2"/>
</g>
<!-- 0 -->
<g id="node21" class="node">
<title>0</title>
<ellipse fill="lightblue" stroke="black" cx="443.75" cy="-14.5" rx="14.5" ry="14.5"/>
<text text-anchor="middle" x="443.75" y="-11.2" font-family="Times,serif" font-size="9.00">0</text>
</g>
<!-- 0&#45;&gt;0 -->
<g id="edge22" class="edge">
<title>0&#45;&gt;0</title>
<path fill="none" stroke="green" stroke-width="0.22" d="M454.4,-24.65C464.81,-30.26 476.25,-26.88 476.25,-14.5 476.25,-5.98 470.84,-1.72 464.08,-1.71"/>
<polygon fill="green" stroke="green" stroke-width="0.22" points="463.46,1.74 454.72,-4.25 465.29,-5.01 463.46,1.74"/>
</g>
<!-- 1 -->
<g id="node22" class="node">
<title>1</title>
<ellipse fill="lightblue" stroke="black" cx="166.75" cy="-14.5" rx="14.5" ry="14.5"/>
<text text-anchor="middle" x="166.75" y="-11.2" font-family="Times,serif" font-size="9.00">1</text>
</g>
<!-- 2 -->
<g id="node23" class="node">
<title>2</title>
<ellipse fill="lightblue" stroke="black" cx="508.75" cy="-14.5" rx="14.5" ry="14.5"/>
<text text-anchor="middle" x="508.75" y="-11.2" font-family="Times,serif" font-size="9.00">2</text>
</g>
<!-- 2&#45;&gt;2 -->
<g id="edge23" class="edge">
<title>2&#45;&gt;2</title>
<path fill="none" stroke="red" stroke-width="0.24" d="M519.4,-24.65C529.81,-30.26 541.25,-26.88 541.25,-14.5 541.25,-5.98 535.84,-1.72 529.08,-1.71"/>
<polygon fill="red" stroke="red" stroke-width="0.24" points="528.48,1.75 519.75,-4.24 530.31,-5 528.48,1.75"/>
</g>
<!-- 3 -->
<g id="node24" class="node">
<title>3</title>
<ellipse fill="lightblue" stroke="black" cx="255.75" cy="-14.5" rx="14.5" ry="14.5"/>
<text text-anchor="middle" x="255.75" y="-11.2" font-family="Times,serif" font-size="9.00">3</text>
</g>
<!-- 4 -->
<g id="node25" class="node">
<title>4</title>
<ellipse fill="lightblue" stroke="black" cx="365.75" cy="-14.5" rx="14.5" ry="14.5"/>
<text text-anchor="middle" x="365.75" y="-11.2" font-family="Times,serif" font-size="9.00">4</text>
</g>
<!-- 4&#45;&gt;4 -->
<g id="edge19" class="edge">
<title>4&#45;&gt;4</title>
<path fill="none" stroke="green" stroke-width="0.36" d="M376.4,-24.65C386.81,-30.26 398.25,-26.88 398.25,-14.5 398.25,-6.18 393.08,-1.92 386.54,-1.72"/>
<polygon fill="green" stroke="green" stroke-width="0.36" points="385.73,1.69 376.92,-4.2 387.48,-5.09 385.73,1.69"/>
</g>
<!-- 13&#45;&gt;0 -->
<g id="edge28" class="edge">
<title>13&#45;&gt;0</title>
<path fill="none" stroke="red" stroke-width="0.31" d="M378.98,-70.44C391.77,-59.59 411.25,-43.07 425.51,-30.97"/>
<polygon fill="red" stroke="red" stroke-width="0.31" points="427.49,-33.88 432.86,-24.74 422.97,-28.54 427.49,-33.88"/>
</g>
<!-- 13&#45;&gt;4 -->
<g id="edge37" class="edge">
<title>13&#45;&gt;4</title>
<path fill="none" stroke="red" stroke-width="0.31" d="M365.75,-64.63C365.75,-56.96 365.75,-47.77 365.75,-39.43"/>
<polygon fill="red" stroke="red" stroke-width="0.31" points="369.25,-39.62 365.75,-29.62 362.25,-39.62 369.25,-39.62"/>
</g>
<!-- 14&#45;&gt;0 -->
<g id="edge34" class="edge">
<title>14&#45;&gt;0</title>
<path fill="none" stroke="red" stroke-width="0.43" d="M575.63,-74.46C549.22,-62.66 496.68,-39.16 466.5,-25.67"/>
<polygon fill="red" stroke="red" stroke-width="0.43" points="467.98,-22.5 457.42,-21.61 465.12,-28.89 467.98,-22.5"/>
</g>
<!-- 15&#45;&gt;1 -->
<g id="edge16" class="edge">
<title>15&#45;&gt;1</title>
<path fill="none" stroke="red" stroke-width="0.2" d="M166.75,-64.63C166.75,-56.96 166.75,-47.77 166.75,-39.43"/>
<polygon fill="red" stroke="red" stroke-width="0.2" points="170.25,-39.44 166.75,-29.44 163.25,-39.44 170.25,-39.44"/>
</g>
<!-- 15&#45;&gt;3 -->
<g id="edge8" class="edge">
<title>15&#45;&gt;3</title>
<path fill="none" stroke="red" stroke-width="0.11" d="M180.66,-71.33C195.64,-60.19 219.61,-42.37 236.42,-29.87"/>
<polygon fill="red" stroke="red" stroke-width="0.11" points="238.41,-32.75 244.34,-23.98 234.23,-27.13 238.41,-32.75"/>
</g>
<!-- 15&#45;&gt;4 -->
<g id="edge9" class="edge">
<title>15&#45;&gt;4</title>
<path fill="none" stroke="red" stroke-width="0.14" d="M183.37,-76.14C218.78,-64.37 301.7,-36.79 342.39,-23.26"/>
<polygon fill="red" stroke="red" stroke-width="0.14" points="343.42,-26.61 351.8,-20.13 341.21,-19.97 343.42,-26.61"/>
</g>
<!-- 16&#45;&gt;0 -->
<g id="edge11" class="edge">
<title>16&#45;&gt;0</title>
<path fill="none" stroke="green" stroke-width="0.24" d="M452.72,-64.97C451.3,-57.11 449.57,-47.6 448.02,-39.02"/>
<polygon fill="green" stroke="green" stroke-width="0.24" points="451.46,-38.42 446.24,-29.21 444.58,-39.67 451.46,-38.42"/>
</g>
<!-- 16&#45;&gt;2 -->
<g id="edge5" class="edge">
<title>16&#45;&gt;2</title>
<path fill="none" stroke="green" stroke-width="0.37" d="M466.48,-68.28C474.3,-58.5 485.02,-45.12 493.7,-34.28"/>
<polygon fill="green" stroke="green" stroke-width="0.37" points="496.27,-36.68 499.79,-26.69 490.8,-32.3 496.27,-36.68"/>
</g>
<!-- 16&#45;&gt;3 -->
<g id="edge33" class="edge">
<title>16&#45;&gt;3</title>
<path fill="none" stroke="green" stroke-width="0.45" d="M439.04,-76.14C403.54,-64.39 320.47,-36.91 279.48,-23.35"/>
<polygon fill="green" stroke="green" stroke-width="0.45" points="280.81,-20.1 270.22,-20.28 278.61,-26.75 280.81,-20.1"/>
</g>
<!-- 16&#45;&gt;4 -->
<g id="edge27" class="edge">
<title>16&#45;&gt;4</title>
<path fill="none" stroke="red" stroke-width="0.18" d="M441.69,-71.33C426.53,-60.19 402.3,-42.37 385.3,-29.87"/>
<polygon fill="red" stroke="red" stroke-width="0.18" points="387.5,-27.14 377.37,-24.04 383.35,-32.78 387.5,-27.14"/>
</g>
</g>
</svg>
