<?xml version="1.0" encoding="UTF-8" standalone="no"?>
<!DOCTYPE svg PUBLIC "-//W3C//DTD SVG 1.1//EN"
 "http://www.w3.org/Graphics/SVG/1.1/DTD/svg11.dtd">
<!-- Generated by graphviz version 12.1.1 (20240910.0053)
 -->
<!-- Pages: 1 -->
<svg width="934pt" height="186pt"
 viewBox="0.00 0.00 933.75 186.07" xmlns="http://www.w3.org/2000/svg" xmlns:xlink="http://www.w3.org/1999/xlink">
<g id="graph0" class="graph" transform="scale(1 1) rotate(0) translate(4 182.07)">
<polygon fill="white" stroke="none" points="-4,4 -4,-182.07 929.75,-182.07 929.75,4 -4,4"/>
<!-- &#45;1 -->
<g id="node1" class="node">
<title>&#45;1</title>
<polygon fill="lightgray" stroke="black" points="23.5,-166.46 0,-166.46 0,-147.96 23.5,-147.96 23.5,-166.46"/>
<text text-anchor="middle" x="11.75" y="-153.91" font-family="Times,serif" font-size="9.00">&#45;1</text>
</g>
<!-- 89 -->
<g id="node27" class="node">
<title>89</title>
<ellipse fill="white" stroke="black" cx="185.75" cy="-82.67" rx="17.68" ry="17.68"/>
<text text-anchor="middle" x="185.75" y="-79.37" font-family="Times,serif" font-size="9.00">89</text>
</g>
<!-- &#45;1&#45;&gt;89 -->
<g id="edge10" class="edge">
<title>&#45;1&#45;&gt;89</title>
<path fill="none" stroke="red" stroke-width="0.17" stroke-dasharray="1,5" d="M19.26,-147.59C22.99,-143.72 27.77,-139.36 32.75,-136.35 73.12,-111.9 126.4,-96.85 158.26,-89.4"/>
<polygon fill="red" stroke="red" stroke-width="0.17" points="158.96,-92.83 167.94,-87.21 157.42,-86 158.96,-92.83"/>
</g>
<!-- &#45;2 -->
<g id="node2" class="node">
<title>&#45;2</title>
<polygon fill="lightgray" stroke="black" points="749.5,-166.46 726,-166.46 726,-147.96 749.5,-147.96 749.5,-166.46"/>
<text text-anchor="middle" x="737.75" y="-153.91" font-family="Times,serif" font-size="9.00">&#45;2</text>
</g>
<!-- 4 -->
<g id="node25" class="node">
<title>4</title>
<ellipse fill="lightblue" stroke="black" cx="500.75" cy="-14.5" rx="14.5" ry="14.5"/>
<text text-anchor="middle" x="500.75" y="-11.2" font-family="Times,serif" font-size="9.00">4</text>
</g>
<!-- &#45;2&#45;&gt;4 -->
<g id="edge45" class="edge">
<title>&#45;2&#45;&gt;4</title>
<path fill="none" stroke="red" stroke-width="0.23" d="M731.44,-147.62C717.88,-129.74 684.16,-88.28 646.75,-64.99 641.38,-61.65 564.28,-36.24 524.35,-23.18"/>
<polygon fill="red" stroke="red" stroke-width="0.23" points="525.53,-19.89 514.94,-20.11 523.36,-26.54 525.53,-19.89"/>
</g>
<!-- 92 -->
<g id="node30" class="node">
<title>92</title>
<ellipse fill="white" stroke="black" cx="601.75" cy="-82.67" rx="17.68" ry="17.68"/>
<text text-anchor="middle" x="601.75" y="-79.37" font-family="Times,serif" font-size="9.00">92</text>
</g>
<!-- &#45;2&#45;&gt;92 -->
<g id="edge2" class="edge">
<title>&#45;2&#45;&gt;92</title>
<path fill="none" stroke="red" stroke-width="0.18" d="M730.11,-147.81C726.34,-143.99 721.58,-139.6 716.75,-136.35 688.4,-117.22 651.98,-101.87 627.8,-92.78"/>
<polygon fill="red" stroke="red" stroke-width="0.18" points="629.1,-89.52 618.5,-89.37 626.69,-96.1 629.1,-89.52"/>
</g>
<!-- &#45;3 -->
<g id="node3" class="node">
<title>&#45;3</title>
<polygon fill="lightgray" stroke="black" points="833.5,-166.46 810,-166.46 810,-147.96 833.5,-147.96 833.5,-166.46"/>
<text text-anchor="middle" x="821.75" y="-153.91" font-family="Times,serif" font-size="9.00">&#45;3</text>
</g>
<!-- &#45;4 -->
<g id="node4" class="node">
<title>&#45;4</title>
<polygon fill="lightgray" stroke="black" points="283.5,-166.46 260,-166.46 260,-147.96 283.5,-147.96 283.5,-166.46"/>
<text text-anchor="middle" x="271.75" y="-153.91" font-family="Times,serif" font-size="9.00">&#45;4</text>
</g>
<!-- &#45;4&#45;&gt;89 -->
<g id="edge1" class="edge">
<title>&#45;4&#45;&gt;89</title>
<path fill="none" stroke="red" stroke-width="0.27" d="M262.9,-147.55C259.2,-144.01 254.83,-139.92 250.75,-136.35 236.59,-123.94 220.1,-110.6 207.28,-100.44"/>
<polygon fill="red" stroke="red" stroke-width="0.27" points="209.79,-97.96 199.77,-94.53 205.46,-103.46 209.79,-97.96"/>
</g>
<!-- 90 -->
<g id="node28" class="node">
<title>90</title>
<ellipse fill="white" stroke="black" cx="509.75" cy="-82.67" rx="17.68" ry="17.68"/>
<text text-anchor="middle" x="509.75" y="-79.37" font-family="Times,serif" font-size="9.00">90</text>
</g>
<!-- &#45;4&#45;&gt;90 -->
<g id="edge25" class="edge">
<title>&#45;4&#45;&gt;90</title>
<path fill="none" stroke="green" stroke-width="0.33" stroke-dasharray="1,5" d="M278.75,-147.78C282.51,-143.77 287.46,-139.22 292.75,-136.35 354.79,-102.63 438.4,-90.22 481.48,-85.87"/>
<polygon fill="green" stroke="green" stroke-width="0.33" points="481.64,-89.37 491.27,-84.96 480.98,-82.4 481.64,-89.37"/>
</g>
<!-- &#45;5 -->
<g id="node5" class="node">
<title>&#45;5</title>
<polygon fill="lightgray" stroke="black" points="241.5,-166.46 218,-166.46 218,-147.96 241.5,-147.96 241.5,-166.46"/>
<text text-anchor="middle" x="229.75" y="-153.91" font-family="Times,serif" font-size="9.00">&#45;5</text>
</g>
<!-- 0 -->
<g id="node21" class="node">
<title>0</title>
<ellipse fill="lightblue" stroke="black" cx="348.75" cy="-14.5" rx="14.5" ry="14.5"/>
<text text-anchor="middle" x="348.75" y="-11.2" font-family="Times,serif" font-size="9.00">0</text>
</g>
<!-- &#45;5&#45;&gt;0 -->
<g id="edge44" class="edge">
<title>&#45;5&#45;&gt;0</title>
<path fill="none" stroke="red" stroke-width="0.43" d="M236.84,-147.83C255.59,-125.65 306.85,-65.04 332.98,-34.14"/>
<polygon fill="red" stroke="red" stroke-width="0.43" points="335.43,-36.66 339.22,-26.77 330.09,-32.14 335.43,-36.66"/>
</g>
<!-- &#45;5&#45;&gt;89 -->
<g id="edge27" class="edge">
<title>&#45;5&#45;&gt;89</title>
<path fill="none" stroke="red" stroke-width="0.18" stroke-dasharray="1,5" d="M224.53,-147.6C218.48,-137.63 208.26,-120.78 199.83,-106.88"/>
<polygon fill="red" stroke="red" stroke-width="0.18" points="202.93,-105.24 194.75,-98.51 196.94,-108.87 202.93,-105.24"/>
</g>
<!-- &#45;5&#45;&gt;90 -->
<g id="edge34" class="edge">
<title>&#45;5&#45;&gt;90</title>
<path fill="none" stroke="green" stroke-width="0.24" d="M236.71,-147.7C240.46,-143.66 245.41,-139.12 250.75,-136.35 291.1,-115.39 424.17,-95.31 482.24,-87.31"/>
<polygon fill="green" stroke="green" stroke-width="0.24" points="482.38,-90.82 491.82,-86.01 481.44,-83.89 482.38,-90.82"/>
</g>
<!-- &#45;6 -->
<g id="node6" class="node">
<title>&#45;6</title>
<polygon fill="lightgray" stroke="black" points="111.5,-166.46 88,-166.46 88,-147.96 111.5,-147.96 111.5,-166.46"/>
<text text-anchor="middle" x="99.75" y="-153.91" font-family="Times,serif" font-size="9.00">&#45;6</text>
</g>
<!-- &#45;6&#45;&gt;89 -->
<g id="edge29" class="edge">
<title>&#45;6&#45;&gt;89</title>
<path fill="none" stroke="red" stroke-width="0.38" d="M108.6,-147.55C112.3,-144.01 116.67,-139.92 120.75,-136.35 134.78,-124.06 151.08,-110.85 163.85,-100.73"/>
<polygon fill="red" stroke="red" stroke-width="0.38" points="165.91,-103.57 171.6,-94.63 161.58,-98.07 165.91,-103.57"/>
</g>
<!-- &#45;7 -->
<g id="node7" class="node">
<title>&#45;7</title>
<polygon fill="lightgray" stroke="black" points="153.5,-166.46 130,-166.46 130,-147.96 153.5,-147.96 153.5,-166.46"/>
<text text-anchor="middle" x="141.75" y="-153.91" font-family="Times,serif" font-size="9.00">&#45;7</text>
</g>
<!-- &#45;7&#45;&gt;89 -->
<g id="edge5" class="edge">
<title>&#45;7&#45;&gt;89</title>
<path fill="none" stroke="red" stroke-width="0.58" stroke-dasharray="1,5" d="M146.97,-147.6C152.96,-137.72 163.04,-121.1 171.43,-107.28"/>
<polygon fill="red" stroke="red" stroke-width="0.58" points="174.24,-109.39 176.43,-99.03 168.25,-105.76 174.24,-109.39"/>
</g>
<!-- 91 -->
<g id="node29" class="node">
<title>91</title>
<ellipse fill="white" stroke="black" cx="348.75" cy="-82.67" rx="17.68" ry="17.68"/>
<text text-anchor="middle" x="348.75" y="-79.37" font-family="Times,serif" font-size="9.00">91</text>
</g>
<!-- &#45;7&#45;&gt;91 -->
<g id="edge26" class="edge">
<title>&#45;7&#45;&gt;91</title>
<path fill="none" stroke="red" stroke-width="0.19" d="M149.18,-147.46C152.9,-143.57 157.69,-139.22 162.75,-136.35 214.36,-107.02 283.44,-93.07 321.22,-87.25"/>
<polygon fill="red" stroke="red" stroke-width="0.19" points="321.33,-90.77 330.72,-85.86 320.32,-83.84 321.33,-90.77"/>
</g>
<!-- &#45;8 -->
<g id="node8" class="node">
<title>&#45;8</title>
<polygon fill="lightgray" stroke="black" points="791.5,-166.46 768,-166.46 768,-147.96 791.5,-147.96 791.5,-166.46"/>
<text text-anchor="middle" x="779.75" y="-153.91" font-family="Times,serif" font-size="9.00">&#45;8</text>
</g>
<!-- 2 -->
<g id="node23" class="node">
<title>2</title>
<ellipse fill="lightblue" stroke="black" cx="680.75" cy="-14.5" rx="14.5" ry="14.5"/>
<text text-anchor="middle" x="680.75" y="-11.2" font-family="Times,serif" font-size="9.00">2</text>
</g>
<!-- &#45;8&#45;&gt;2 -->
<g id="edge41" class="edge">
<title>&#45;8&#45;&gt;2</title>
<path fill="none" stroke="red" stroke-width="0.38" d="M773.76,-147.65C762.44,-131.48 737.14,-95.36 715.75,-64.99 708.84,-55.18 701.14,-44.29 694.73,-35.23"/>
<polygon fill="red" stroke="red" stroke-width="0.38" points="697.79,-33.49 689.15,-27.36 692.08,-37.54 697.79,-33.49"/>
</g>
<!-- &#45;8&#45;&gt;92 -->
<g id="edge19" class="edge">
<title>&#45;8&#45;&gt;92</title>
<path fill="none" stroke="green" stroke-width="0.23" d="M772.26,-147.57C768.52,-143.7 763.74,-139.34 758.75,-136.35 716.93,-111.25 661.6,-96.28 629.02,-89.04"/>
<polygon fill="green" stroke="green" stroke-width="0.23" points="630.15,-85.7 619.64,-87.03 628.68,-92.55 630.15,-85.7"/>
</g>
<!-- &#45;9 -->
<g id="node9" class="node">
<title>&#45;9</title>
<polygon fill="lightgray" stroke="black" points="477.5,-166.46 454,-166.46 454,-147.96 477.5,-147.96 477.5,-166.46"/>
<text text-anchor="middle" x="465.75" y="-153.91" font-family="Times,serif" font-size="9.00">&#45;9</text>
</g>
<!-- &#45;9&#45;&gt;90 -->
<g id="edge23" class="edge">
<title>&#45;9&#45;&gt;90</title>
<path fill="none" stroke="green" stroke-width="0.2" d="M470.97,-147.6C477.02,-137.63 487.24,-120.78 495.67,-106.88"/>
<polygon fill="green" stroke="green" stroke-width="0.2" points="498.53,-108.91 500.73,-98.54 492.55,-105.28 498.53,-108.91"/>
</g>
<!-- &#45;10 -->
<g id="node10" class="node">
<title>&#45;10</title>
<polygon fill="lightgray" stroke="black" points="389.75,-166.46 361.75,-166.46 361.75,-147.96 389.75,-147.96 389.75,-166.46"/>
<text text-anchor="middle" x="375.75" y="-153.91" font-family="Times,serif" font-size="9.00">&#45;10</text>
</g>
<!-- &#45;10&#45;&gt;91 -->
<g id="edge35" class="edge">
<title>&#45;10&#45;&gt;91</title>
<path fill="none" stroke="green" stroke-width="0.74" d="M372.55,-147.6C369.09,-138.3 363.4,-123.03 358.46,-109.75"/>
<polygon fill="green" stroke="green" stroke-width="0.74" points="361.87,-108.87 355.1,-100.72 355.31,-111.31 361.87,-108.87"/>
</g>
<!-- &#45;11 -->
<g id="node11" class="node">
<title>&#45;11</title>
<polygon fill="lightgray" stroke="black" points="569.75,-166.46 541.75,-166.46 541.75,-147.96 569.75,-147.96 569.75,-166.46"/>
<text text-anchor="middle" x="555.75" y="-153.91" font-family="Times,serif" font-size="9.00">&#45;11</text>
</g>
<!-- &#45;11&#45;&gt;90 -->
<g id="edge38" class="edge">
<title>&#45;11&#45;&gt;90</title>
<path fill="none" stroke="green" stroke-width="0.16" stroke-dasharray="1,5" d="M550.29,-147.6C543.97,-137.63 533.28,-120.78 524.47,-106.88"/>
<polygon fill="green" stroke="green" stroke-width="0.16" points="527.46,-105.06 519.15,-98.49 521.55,-108.81 527.46,-105.06"/>
</g>
<!-- &#45;11&#45;&gt;91 -->
<g id="edge32" class="edge">
<title>&#45;11&#45;&gt;91</title>
<path fill="none" stroke="red" stroke-width="0.26" stroke-dasharray="1,5" d="M547.47,-147.5C543.36,-143.61 538.13,-139.26 532.75,-136.35 481.4,-108.59 413.89,-94.12 376.57,-87.78"/>
<polygon fill="red" stroke="red" stroke-width="0.26" points="377.26,-84.34 366.83,-86.19 376.14,-91.25 377.26,-84.34"/>
</g>
<!-- &#45;11&#45;&gt;92 -->
<g id="edge8" class="edge">
<title>&#45;11&#45;&gt;92</title>
<path fill="none" stroke="green" stroke-width="0.81" stroke-dasharray="1,5" d="M561.21,-147.6C567.41,-137.82 577.81,-121.42 586.52,-107.68"/>
<polygon fill="green" stroke="green" stroke-width="0.81" points="589.43,-109.64 591.83,-99.32 583.51,-105.89 589.43,-109.64"/>
</g>
<!-- &#45;12 -->
<g id="node12" class="node">
<title>&#45;12</title>
<polygon fill="lightgray" stroke="black" points="523.75,-166.46 495.75,-166.46 495.75,-147.96 523.75,-147.96 523.75,-166.46"/>
<text text-anchor="middle" x="509.75" y="-153.91" font-family="Times,serif" font-size="9.00">&#45;12</text>
</g>
<!-- &#45;12&#45;&gt;90 -->
<g id="edge21" class="edge">
<title>&#45;12&#45;&gt;90</title>
<path fill="none" stroke="green" stroke-width="0.37" stroke-dasharray="1,5" d="M509.75,-147.6C509.75,-138.63 509.75,-124.1 509.75,-111.15"/>
<polygon fill="green" stroke="green" stroke-width="0.37" points="513.25,-111.37 509.75,-101.37 506.25,-111.37 513.25,-111.37"/>
</g>
<!-- &#45;13 -->
<g id="node13" class="node">
<title>&#45;13</title>
<polygon fill="lightgray" stroke="black" points="199.75,-166.46 171.75,-166.46 171.75,-147.96 199.75,-147.96 199.75,-166.46"/>
<text text-anchor="middle" x="185.75" y="-153.91" font-family="Times,serif" font-size="9.00">&#45;13</text>
</g>
<!-- &#45;13&#45;&gt;89 -->
<g id="edge6" class="edge">
<title>&#45;13&#45;&gt;89</title>
<path fill="none" stroke="red" stroke-width="0.31" stroke-dasharray="1,5" d="M185.75,-147.6C185.75,-138.63 185.75,-124.1 185.75,-111.15"/>
<polygon fill="red" stroke="red" stroke-width="0.31" points="189.25,-111.29 185.75,-101.29 182.25,-111.29 189.25,-111.29"/>
</g>
<!-- &#45;13&#45;&gt;91 -->
<g id="edge28" class="edge">
<title>&#45;13&#45;&gt;91</title>
<path fill="none" stroke="red" stroke-width="0.15" stroke-dasharray="1,5" d="M194.14,-147.69C198.27,-143.84 203.49,-139.47 208.75,-136.35 245.5,-114.51 292.86,-98.98 322.01,-90.67"/>
<polygon fill="red" stroke="red" stroke-width="0.15" points="322.58,-94.14 331.28,-88.1 320.71,-87.4 322.58,-94.14"/>
</g>
<!-- &#45;14 -->
<g id="node14" class="node">
<title>&#45;14</title>
<polygon fill="lightgray" stroke="black" points="879.75,-166.46 851.75,-166.46 851.75,-147.96 879.75,-147.96 879.75,-166.46"/>
<text text-anchor="middle" x="865.75" y="-153.91" font-family="Times,serif" font-size="9.00">&#45;14</text>
</g>
<!-- &#45;15 -->
<g id="node15" class="node">
<title>&#45;15</title>
<polygon fill="lightgray" stroke="black" points="661.75,-166.46 633.75,-166.46 633.75,-147.96 661.75,-147.96 661.75,-166.46"/>
<text text-anchor="middle" x="647.75" y="-153.91" font-family="Times,serif" font-size="9.00">&#45;15</text>
</g>
<!-- &#45;15&#45;&gt;90 -->
<g id="edge22" class="edge">
<title>&#45;15&#45;&gt;90</title>
<path fill="none" stroke="red" stroke-width="0.12" d="M639.26,-147.85C635.1,-144.04 629.9,-139.65 624.75,-136.35 596.13,-117.97 560.05,-102.55 536.01,-93.23"/>
<polygon fill="red" stroke="red" stroke-width="0.12" points="537.27,-89.96 526.68,-89.69 534.78,-96.51 537.27,-89.96"/>
</g>
<!-- &#45;16 -->
<g id="node16" class="node">
<title>&#45;16</title>
<polygon fill="lightgray" stroke="black" points="69.75,-166.46 41.75,-166.46 41.75,-147.96 69.75,-147.96 69.75,-166.46"/>
<text text-anchor="middle" x="55.75" y="-153.91" font-family="Times,serif" font-size="9.00">&#45;16</text>
</g>
<!-- 3 -->
<g id="node24" class="node">
<title>3</title>
<ellipse fill="lightblue" stroke="black" cx="453.75" cy="-14.5" rx="14.5" ry="14.5"/>
<text text-anchor="middle" x="453.75" y="-11.2" font-family="Times,serif" font-size="9.00">3</text>
</g>
<!-- &#45;16&#45;&gt;3 -->
<g id="edge42" class="edge">
<title>&#45;16&#45;&gt;3</title>
<path fill="none" stroke="red" stroke-width="0.26" d="M62.4,-147.66C77.36,-129.12 115.74,-85.22 158.75,-64.99 252.77,-20.76 287.55,-47.72 389.75,-28.99 402.92,-26.58 417.53,-23.53 429.47,-20.93"/>
<polygon fill="red" stroke="red" stroke-width="0.26" points="430.15,-24.37 439.17,-18.8 428.65,-17.53 430.15,-24.37"/>
</g>
<!-- &#45;16&#45;&gt;89 -->
<g id="edge33" class="edge">
<title>&#45;16&#45;&gt;89</title>
<path fill="none" stroke="green" stroke-width="0.23" d="M64.72,-147.52C68.81,-143.82 73.82,-139.61 78.75,-136.35 104.95,-119 137.69,-103.71 160.01,-94.13"/>
<polygon fill="green" stroke="green" stroke-width="0.23" points="161.29,-97.39 169.15,-90.28 158.57,-90.94 161.29,-97.39"/>
</g>
<!-- &#45;16&#45;&gt;91 -->
<g id="edge11" class="edge">
<title>&#45;16&#45;&gt;91</title>
<path fill="none" stroke="green" stroke-width="0.3" d="M63.51,-147.69C67.65,-143.65 73.06,-139.11 78.75,-136.35 121.51,-115.56 261.08,-95.24 321.01,-87.24"/>
<polygon fill="green" stroke="green" stroke-width="0.3" points="321.32,-90.73 330.78,-85.95 320.4,-83.79 321.32,-90.73"/>
</g>
<!-- &#45;17 -->
<g id="node17" class="node">
<title>&#45;17</title>
<polygon fill="lightgray" stroke="black" points="615.75,-166.46 587.75,-166.46 587.75,-147.96 615.75,-147.96 615.75,-166.46"/>
<text text-anchor="middle" x="601.75" y="-153.91" font-family="Times,serif" font-size="9.00">&#45;17</text>
</g>
<!-- &#45;17&#45;&gt;90 -->
<g id="edge16" class="edge">
<title>&#45;17&#45;&gt;90</title>
<path fill="none" stroke="green" stroke-width="0.11" stroke-dasharray="1,5" d="M592.01,-147.57C587.96,-144.03 583.17,-139.94 578.75,-136.35 563.25,-123.76 545.31,-110.09 531.61,-99.83"/>
<polygon fill="green" stroke="green" stroke-width="0.11" points="533.93,-97.19 523.82,-94.02 529.75,-102.81 533.93,-97.19"/>
</g>
<!-- &#45;17&#45;&gt;91 -->
<g id="edge37" class="edge">
<title>&#45;17&#45;&gt;91</title>
<path fill="none" stroke="green" stroke-width="0.25" stroke-dasharray="1,5" d="M593.96,-147.77C589.8,-143.75 584.4,-139.21 578.75,-136.35 511.39,-102.24 421.81,-89.94 376.92,-85.72"/>
<polygon fill="green" stroke="green" stroke-width="0.25" points="377.41,-82.25 367.14,-84.87 376.8,-89.23 377.41,-82.25"/>
</g>
<!-- &#45;17&#45;&gt;92 -->
<g id="edge12" class="edge">
<title>&#45;17&#45;&gt;92</title>
<path fill="none" stroke="green" stroke-width="0.37" d="M601.75,-147.6C601.75,-138.63 601.75,-124.1 601.75,-111.15"/>
<polygon fill="green" stroke="green" stroke-width="0.37" points="605.25,-111.38 601.75,-101.38 598.25,-111.38 605.25,-111.38"/>
</g>
<!-- &#45;18 -->
<g id="node18" class="node">
<title>&#45;18</title>
<polygon fill="lightgray" stroke="black" points="435.75,-166.46 407.75,-166.46 407.75,-147.96 435.75,-147.96 435.75,-166.46"/>
<text text-anchor="middle" x="421.75" y="-153.91" font-family="Times,serif" font-size="9.00">&#45;18</text>
</g>
<!-- &#45;18&#45;&gt;89 -->
<g id="edge24" class="edge">
<title>&#45;18&#45;&gt;89</title>
<path fill="none" stroke="green" stroke-width="0.13" d="M413.93,-147.81C409.78,-143.8 404.37,-139.26 398.75,-136.35 337.28,-104.55 255.78,-91.35 213.64,-86.37"/>
<polygon fill="green" stroke="green" stroke-width="0.13" points="214.09,-82.9 203.76,-85.27 213.31,-89.86 214.09,-82.9"/>
</g>
<!-- &#45;18&#45;&gt;90 -->
<g id="edge20" class="edge">
<title>&#45;18&#45;&gt;90</title>
<path fill="none" stroke="green" stroke-width="0.24" stroke-dasharray="1,5" d="M431.54,-147.63C435.6,-144.11 440.38,-140 444.75,-136.35 459.19,-124.27 475.67,-110.92 488.42,-100.68"/>
<polygon fill="green" stroke="green" stroke-width="0.24" points="490.3,-103.66 495.92,-94.67 485.93,-98.19 490.3,-103.66"/>
</g>
<!-- &#45;18&#45;&gt;91 -->
<g id="edge17" class="edge">
<title>&#45;18&#45;&gt;91</title>
<path fill="none" stroke="green" stroke-width="0.32" stroke-dasharray="1,5" d="M413.09,-147.6C402.09,-136.67 382.79,-117.49 368.19,-102.98"/>
<polygon fill="green" stroke="green" stroke-width="0.32" points="370.95,-100.8 361.39,-96.23 366.02,-105.76 370.95,-100.8"/>
</g>
<!-- &#45;18&#45;&gt;92 -->
<g id="edge30" class="edge">
<title>&#45;18&#45;&gt;92</title>
<path fill="none" stroke="green" stroke-width="0.11" d="M430.09,-147.6C434.21,-143.74 439.43,-139.38 444.75,-136.35 467.39,-123.44 536.71,-102.4 575.23,-91.21"/>
<polygon fill="green" stroke="green" stroke-width="0.11" points="575.97,-94.64 584.6,-88.51 574.03,-87.92 575.97,-94.64"/>
</g>
<!-- &#45;19 -->
<g id="node19" class="node">
<title>&#45;19</title>
<polygon fill="lightgray" stroke="black" points="707.75,-166.46 679.75,-166.46 679.75,-147.96 707.75,-147.96 707.75,-166.46"/>
<text text-anchor="middle" x="693.75" y="-153.91" font-family="Times,serif" font-size="9.00">&#45;19</text>
</g>
<!-- &#45;19&#45;&gt;90 -->
<g id="edge36" class="edge">
<title>&#45;19&#45;&gt;90</title>
<path fill="none" stroke="red" stroke-width="0.49" stroke-dasharray="1,5" d="M685.42,-147.58C681.3,-143.72 676.08,-139.36 670.75,-136.35 647.58,-123.26 576.7,-102.35 537.15,-91.22"/>
<polygon fill="red" stroke="red" stroke-width="0.49" points="538.18,-87.87 527.61,-88.55 536.3,-94.61 538.18,-87.87"/>
</g>
<!-- &#45;19&#45;&gt;92 -->
<g id="edge9" class="edge">
<title>&#45;19&#45;&gt;92</title>
<path fill="none" stroke="green" stroke-width="0.12" d="M684.01,-147.57C679.96,-144.03 675.17,-139.94 670.75,-136.35 655.25,-123.76 637.31,-110.09 623.61,-99.83"/>
<polygon fill="green" stroke="green" stroke-width="0.12" points="625.94,-97.2 615.83,-94.03 621.75,-102.81 625.94,-97.2"/>
</g>
<!-- &#45;20 -->
<g id="node20" class="node">
<title>&#45;20</title>
<polygon fill="lightgray" stroke="black" points="925.75,-166.46 897.75,-166.46 897.75,-147.96 925.75,-147.96 925.75,-166.46"/>
<text text-anchor="middle" x="911.75" y="-153.91" font-family="Times,serif" font-size="9.00">&#45;20</text>
</g>
<!-- 0&#45;&gt;0 -->
<g id="edge3" class="edge">
<title>0&#45;&gt;0</title>
<path fill="none" stroke="green" stroke-width="0.34" d="M359.4,-24.65C369.81,-30.26 381.25,-26.88 381.25,-14.5 381.25,-6.18 376.08,-1.92 369.54,-1.72"/>
<polygon fill="green" stroke="green" stroke-width="0.34" points="368.7,1.68 359.89,-4.21 370.45,-5.1 368.7,1.68"/>
</g>
<!-- 1 -->
<g id="node22" class="node">
<title>1</title>
<ellipse fill="lightblue" stroke="black" cx="565.75" cy="-14.5" rx="14.5" ry="14.5"/>
<text text-anchor="middle" x="565.75" y="-11.2" font-family="Times,serif" font-size="9.00">1</text>
</g>
<!-- 4&#45;&gt;4 -->
<g id="edge31" class="edge">
<title>4&#45;&gt;4</title>
<path fill="none" stroke="red" stroke-width="0.33" stroke-dasharray="1,5" d="M511.4,-24.65C521.81,-30.26 533.25,-26.88 533.25,-14.5 533.25,-6.18 528.08,-1.92 521.54,-1.72"/>
<polygon fill="red" stroke="red" stroke-width="0.33" points="520.69,1.68 511.88,-4.21 522.44,-5.1 520.69,1.68"/>
</g>
<!-- 359 -->
<g id="node26" class="node">
<title>359</title>
<ellipse fill="white" stroke="black" cx="322.75" cy="-157.21" rx="20.86" ry="20.86"/>
<text text-anchor="middle" x="322.75" y="-153.91" font-family="Times,serif" font-size="9.00">359</text>
</g>
<!-- 359&#45;&gt;91 -->
<g id="edge43" class="edge">
<title>359&#45;&gt;91</title>
<path fill="none" stroke="green" stroke-width="0.39" d="M329.58,-137.15C332.64,-128.61 336.3,-118.41 339.59,-109.22"/>
<polygon fill="green" stroke="green" stroke-width="0.39" points="342.82,-110.58 342.9,-99.98 336.23,-108.21 342.82,-110.58"/>
</g>
<!-- 89&#45;&gt;4 -->
<g id="edge4" class="edge">
<title>89&#45;&gt;4</title>
<path fill="none" stroke="red" stroke-width="0.28" d="M203.27,-79.28C258.02,-71.68 425.31,-47.52 476.75,-28.99 477.78,-28.62 478.83,-28.2 479.87,-27.76"/>
<polygon fill="red" stroke="red" stroke-width="0.28" points="481.2,-31.01 488.54,-23.37 478.04,-24.76 481.2,-31.01"/>
</g>
<!-- 90&#45;&gt;1 -->
<g id="edge15" class="edge">
<title>90&#45;&gt;1</title>
<path fill="none" stroke="red" stroke-width="0.21" stroke-dasharray="1,5" d="M520.81,-68.6C529.25,-58.63 540.96,-44.79 550.32,-33.73"/>
<polygon fill="red" stroke="red" stroke-width="0.21" points="552.92,-36.07 556.71,-26.18 547.58,-31.55 552.92,-36.07"/>
</g>
<!-- 90&#45;&gt;3 -->
<g id="edge18" class="edge">
<title>90&#45;&gt;3</title>
<path fill="none" stroke="red" stroke-width="0.22" d="M498.69,-68.6C490.25,-58.63 478.54,-44.79 469.18,-33.73"/>
<polygon fill="red" stroke="red" stroke-width="0.22" points="471.93,-31.56 462.8,-26.18 466.58,-36.08 471.93,-31.56"/>
</g>
<!-- 91&#45;&gt;0 -->
<g id="edge39" class="edge">
<title>91&#45;&gt;0</title>
<path fill="none" stroke="red" stroke-width="0.25" d="M348.75,-64.63C348.75,-56.96 348.75,-47.77 348.75,-39.43"/>
<polygon fill="red" stroke="red" stroke-width="0.25" points="352.25,-39.52 348.75,-29.52 345.25,-39.52 352.25,-39.52"/>
</g>
<!-- 92&#45;&gt;0 -->
<g id="edge13" class="edge">
<title>92&#45;&gt;0</title>
<path fill="none" stroke="green" stroke-width="0.36" d="M584.76,-77.22C540.89,-65.75 423.73,-35.11 372.87,-21.8"/>
<polygon fill="green" stroke="green" stroke-width="0.36" points="373.89,-18.45 363.33,-19.31 372.11,-25.22 373.89,-18.45"/>
</g>
<!-- 92&#45;&gt;2 -->
<g id="edge40" class="edge">
<title>92&#45;&gt;2</title>
<path fill="none" stroke="green" stroke-width="0.19" d="M615.15,-70.44C628.1,-59.59 647.84,-43.07 662.28,-30.97"/>
<polygon fill="green" stroke="green" stroke-width="0.19" points="664.43,-33.73 669.85,-24.62 659.94,-28.36 664.43,-33.73"/>
</g>
<!-- 92&#45;&gt;3 -->
<g id="edge7" class="edge">
<title>92&#45;&gt;3</title>
<path fill="none" stroke="green" stroke-width="0.81" d="M585.44,-75.41C561.49,-66.06 515.53,-47.57 477.75,-28.99 477.01,-28.63 476.26,-28.25 475.51,-27.87"/>
<polygon fill="green" stroke="green" stroke-width="0.81" points="477.36,-24.89 466.9,-23.21 474.03,-31.05 477.36,-24.89"/>
</g>
<!-- 92&#45;&gt;92 -->
<g id="edge14" class="edge">
<title>92&#45;&gt;92</title>
<path fill="none" stroke="green" stroke-width="0.1" stroke-dasharray="1,5" d="M615.67,-93.8C626.44,-97.96 637.43,-94.25 637.43,-82.67 637.43,-74.7 632.23,-70.46 625.49,-69.94"/>
<polygon fill="green" stroke="green" stroke-width="0.1" points="625.13,-66.45 615.82,-71.51 626.25,-73.36 625.13,-66.45"/>
</g>
</g>
</svg>
