<?xml version="1.0" encoding="UTF-8" standalone="no"?>
<!DOCTYPE svg PUBLIC "-//W3C//DTD SVG 1.1//EN"
 "http://www.w3.org/Graphics/SVG/1.1/DTD/svg11.dtd">
<!-- Generated by graphviz version 12.1.1 (20240910.0053)
 -->
<!-- Pages: 1 -->
<svg width="832pt" height="169pt"
 viewBox="0.00 0.00 831.75 169.21" xmlns="http://www.w3.org/2000/svg" xmlns:xlink="http://www.w3.org/1999/xlink">
<g id="graph0" class="graph" transform="scale(1 1) rotate(0) translate(4 165.21)">
<polygon fill="white" stroke="none" points="-4,4 -4,-165.21 827.75,-165.21 827.75,4 -4,4"/>
<!-- &#45;1 -->
<g id="node1" class="node">
<title>&#45;1</title>
<polygon fill="lightgray" stroke="black" points="241.5,-161.21 218,-161.21 218,-142.71 241.5,-142.71 241.5,-161.21"/>
<text text-anchor="middle" x="229.75" y="-148.66" font-family="Times,serif" font-size="9.00">&#45;1</text>
</g>
<!-- 177 -->
<g id="node26" class="node">
<title>177</title>
<ellipse fill="white" stroke="black" cx="360.75" cy="-85.85" rx="20.86" ry="20.86"/>
<text text-anchor="middle" x="360.75" y="-82.55" font-family="Times,serif" font-size="9.00">177</text>
</g>
<!-- &#45;1&#45;&gt;177 -->
<g id="edge27" class="edge">
<title>&#45;1&#45;&gt;177</title>
<path fill="none" stroke="green" stroke-width="0.43" d="M241.84,-145.04C262.35,-135.01 304.48,-114.39 332.68,-100.59"/>
<polygon fill="green" stroke="green" stroke-width="0.43" points="333.99,-103.84 341.43,-96.31 330.91,-97.56 333.99,-103.84"/>
</g>
<!-- 178 -->
<g id="node27" class="node">
<title>178</title>
<ellipse fill="white" stroke="black" cx="229.75" cy="-85.85" rx="20.86" ry="20.86"/>
<text text-anchor="middle" x="229.75" y="-82.55" font-family="Times,serif" font-size="9.00">178</text>
</g>
<!-- &#45;1&#45;&gt;178 -->
<g id="edge7" class="edge">
<title>&#45;1&#45;&gt;178</title>
<path fill="none" stroke="green" stroke-width="0.26" stroke-dasharray="1,5" d="M229.75,-142.31C229.75,-135.81 229.75,-126.47 229.75,-117.31"/>
<polygon fill="green" stroke="green" stroke-width="0.26" points="233.25,-117.6 229.75,-107.6 226.25,-117.6 233.25,-117.6"/>
</g>
<!-- &#45;2 -->
<g id="node2" class="node">
<title>&#45;2</title>
<polygon fill="lightgray" stroke="black" points="601.5,-161.21 578,-161.21 578,-142.71 601.5,-142.71 601.5,-161.21"/>
<text text-anchor="middle" x="589.75" y="-148.66" font-family="Times,serif" font-size="9.00">&#45;2</text>
</g>
<!-- 179 -->
<g id="node28" class="node">
<title>179</title>
<ellipse fill="white" stroke="black" cx="504.75" cy="-85.85" rx="20.86" ry="20.86"/>
<text text-anchor="middle" x="504.75" y="-82.55" font-family="Times,serif" font-size="9.00">179</text>
</g>
<!-- &#45;2&#45;&gt;179 -->
<g id="edge37" class="edge">
<title>&#45;2&#45;&gt;179</title>
<path fill="none" stroke="green" stroke-width="0.17" stroke-dasharray="1,5" d="M578.29,-142.31C565.78,-132.88 545.4,-117.51 529.26,-105.34"/>
<polygon fill="green" stroke="green" stroke-width="0.17" points="531.57,-102.7 521.48,-99.47 527.36,-108.29 531.57,-102.7"/>
</g>
<!-- 180 -->
<g id="node29" class="node">
<title>180</title>
<ellipse fill="white" stroke="black" cx="444.75" cy="-85.85" rx="20.86" ry="20.86"/>
<text text-anchor="middle" x="444.75" y="-82.55" font-family="Times,serif" font-size="9.00">180</text>
</g>
<!-- &#45;2&#45;&gt;180 -->
<g id="edge25" class="edge">
<title>&#45;2&#45;&gt;180</title>
<path fill="none" stroke="red" stroke-width="0.48" d="M577.76,-146.23C574.82,-145.07 571.67,-143.84 568.75,-142.71 527.04,-126.53 514.53,-127.18 474.75,-106.71 473.36,-106 471.96,-105.23 470.56,-104.43"/>
<polygon fill="red" stroke="red" stroke-width="0.48" points="472.46,-101.49 462.11,-99.24 468.79,-107.46 472.46,-101.49"/>
</g>
<!-- &#45;3 -->
<g id="node3" class="node">
<title>&#45;3</title>
<polygon fill="lightgray" stroke="black" points="23.5,-161.21 0,-161.21 0,-142.71 23.5,-142.71 23.5,-161.21"/>
<text text-anchor="middle" x="11.75" y="-148.66" font-family="Times,serif" font-size="9.00">&#45;3</text>
</g>
<!-- &#45;3&#45;&gt;178 -->
<g id="edge22" class="edge">
<title>&#45;3&#45;&gt;178</title>
<path fill="none" stroke="red" stroke-width="0.17" d="M23.67,-146.04C26.62,-144.89 29.78,-143.71 32.75,-142.71 91.19,-123 160.9,-104.35 199.76,-94.37"/>
<polygon fill="red" stroke="red" stroke-width="0.17" points="200.34,-97.84 209.17,-91.98 198.61,-91.06 200.34,-97.84"/>
</g>
<!-- &#45;4 -->
<g id="node4" class="node">
<title>&#45;4</title>
<polygon fill="lightgray" stroke="black" points="467.5,-161.21 444,-161.21 444,-142.71 467.5,-142.71 467.5,-161.21"/>
<text text-anchor="middle" x="455.75" y="-148.66" font-family="Times,serif" font-size="9.00">&#45;4</text>
</g>
<!-- &#45;4&#45;&gt;178 -->
<g id="edge3" class="edge">
<title>&#45;4&#45;&gt;178</title>
<path fill="none" stroke="green" stroke-width="0.17" d="M443.84,-146.02C440.89,-144.87 437.72,-143.7 434.75,-142.71 373.52,-122.41 300.29,-103.78 260.02,-94.01"/>
<polygon fill="green" stroke="green" stroke-width="0.17" points="260.84,-90.61 250.3,-91.67 259.2,-97.41 260.84,-90.61"/>
</g>
<!-- &#45;4&#45;&gt;179 -->
<g id="edge29" class="edge">
<title>&#45;4&#45;&gt;179</title>
<path fill="none" stroke="red" stroke-width="0.48" d="M462.36,-142.31C468.42,-134.39 477.69,-122.26 486.02,-111.36"/>
<polygon fill="red" stroke="red" stroke-width="0.48" points="488.68,-113.63 491.98,-103.56 483.12,-109.38 488.68,-113.63"/>
</g>
<!-- &#45;4&#45;&gt;180 -->
<g id="edge38" class="edge">
<title>&#45;4&#45;&gt;180</title>
<path fill="none" stroke="green" stroke-width="0.39" stroke-dasharray="1,5" d="M454.27,-142.31C453.13,-135.71 451.5,-126.19 449.9,-116.89"/>
<polygon fill="green" stroke="green" stroke-width="0.39" points="453.39,-116.51 448.25,-107.24 446.49,-117.69 453.39,-116.51"/>
</g>
<!-- &#45;5 -->
<g id="node5" class="node">
<title>&#45;5</title>
<polygon fill="lightgray" stroke="black" points="567.5,-95.1 544,-95.1 544,-76.6 567.5,-76.6 567.5,-95.1"/>
<text text-anchor="middle" x="555.75" y="-82.55" font-family="Times,serif" font-size="9.00">&#45;5</text>
</g>
<!-- 4 -->
<g id="node25" class="node">
<title>4</title>
<ellipse fill="lightblue" stroke="black" cx="528.75" cy="-14.5" rx="14.5" ry="14.5"/>
<text text-anchor="middle" x="528.75" y="-11.2" font-family="Times,serif" font-size="9.00">4</text>
</g>
<!-- &#45;5&#45;&gt;4 -->
<g id="edge42" class="edge">
<title>&#45;5&#45;&gt;4</title>
<path fill="none" stroke="red" stroke-width="0.35" d="M552.44,-76.35C548.77,-66.93 542.71,-51.35 537.63,-38.31"/>
<polygon fill="red" stroke="red" stroke-width="0.35" points="540.92,-37.11 534.03,-29.06 534.4,-39.65 540.92,-37.11"/>
</g>
<!-- &#45;6 -->
<g id="node6" class="node">
<title>&#45;6</title>
<polygon fill="lightgray" stroke="black" points="65.5,-161.21 42,-161.21 42,-142.71 65.5,-142.71 65.5,-161.21"/>
<text text-anchor="middle" x="53.75" y="-148.66" font-family="Times,serif" font-size="9.00">&#45;6</text>
</g>
<!-- &#45;6&#45;&gt;178 -->
<g id="edge33" class="edge">
<title>&#45;6&#45;&gt;178</title>
<path fill="none" stroke="red" stroke-width="0.23" d="M65.72,-146.19C68.67,-145.03 71.82,-143.81 74.75,-142.71 118.47,-126.25 169.49,-108.06 200.71,-97.04"/>
<polygon fill="red" stroke="red" stroke-width="0.23" points="201.51,-100.47 209.78,-93.84 199.18,-93.87 201.51,-100.47"/>
</g>
<!-- &#45;7 -->
<g id="node7" class="node">
<title>&#45;7</title>
<polygon fill="lightgray" stroke="black" points="689.5,-161.21 666,-161.21 666,-142.71 689.5,-142.71 689.5,-161.21"/>
<text text-anchor="middle" x="677.75" y="-148.66" font-family="Times,serif" font-size="9.00">&#45;7</text>
</g>
<!-- &#45;8 -->
<g id="node8" class="node">
<title>&#45;8</title>
<polygon fill="lightgray" stroke="black" points="731.5,-161.21 708,-161.21 708,-142.71 731.5,-142.71 731.5,-161.21"/>
<text text-anchor="middle" x="719.75" y="-148.66" font-family="Times,serif" font-size="9.00">&#45;8</text>
</g>
<!-- &#45;9 -->
<g id="node9" class="node">
<title>&#45;9</title>
<polygon fill="lightgray" stroke="black" points="107.5,-161.21 84,-161.21 84,-142.71 107.5,-142.71 107.5,-161.21"/>
<text text-anchor="middle" x="95.75" y="-148.66" font-family="Times,serif" font-size="9.00">&#45;9</text>
</g>
<!-- &#45;9&#45;&gt;178 -->
<g id="edge19" class="edge">
<title>&#45;9&#45;&gt;178</title>
<path fill="none" stroke="red" stroke-width="0.22" d="M107.64,-145.27C128.7,-135.19 173.08,-113.96 202.13,-100.06"/>
<polygon fill="red" stroke="red" stroke-width="0.22" points="203.53,-103.27 211.04,-95.8 200.51,-96.96 203.53,-103.27"/>
</g>
<!-- &#45;10 -->
<g id="node10" class="node">
<title>&#45;10</title>
<polygon fill="lightgray" stroke="black" points="425.75,-161.21 397.75,-161.21 397.75,-142.71 425.75,-142.71 425.75,-161.21"/>
<text text-anchor="middle" x="411.75" y="-148.66" font-family="Times,serif" font-size="9.00">&#45;10</text>
</g>
<!-- &#45;10&#45;&gt;178 -->
<g id="edge15" class="edge">
<title>&#45;10&#45;&gt;178</title>
<path fill="none" stroke="green" stroke-width="0.16" d="M397.65,-145.88C394.71,-144.83 391.63,-143.73 388.75,-142.71 343.47,-126.64 290.85,-108.2 258.94,-97.04"/>
<polygon fill="green" stroke="green" stroke-width="0.16" points="260.17,-93.76 249.57,-93.77 257.86,-100.37 260.17,-93.76"/>
</g>
<!-- &#45;10&#45;&gt;179 -->
<g id="edge21" class="edge">
<title>&#45;10&#45;&gt;179</title>
<path fill="none" stroke="green" stroke-width="0.27" stroke-dasharray="1,5" d="M424.29,-142.31C438.35,-132.62 461.52,-116.65 479.39,-104.33"/>
<polygon fill="green" stroke="green" stroke-width="0.27" points="481.1,-107.41 487.35,-98.85 477.13,-101.64 481.1,-107.41"/>
</g>
<!-- &#45;10&#45;&gt;180 -->
<g id="edge9" class="edge">
<title>&#45;10&#45;&gt;180</title>
<path fill="none" stroke="green" stroke-width="0.15" stroke-dasharray="1,5" d="M416.2,-142.31C419.97,-134.99 425.59,-124.07 430.85,-113.86"/>
<polygon fill="green" stroke="green" stroke-width="0.15" points="433.94,-115.5 435.41,-105.01 427.72,-112.29 433.94,-115.5"/>
</g>
<!-- &#45;11 -->
<g id="node11" class="node">
<title>&#45;11</title>
<polygon fill="lightgray" stroke="black" points="333.75,-161.21 305.75,-161.21 305.75,-142.71 333.75,-142.71 333.75,-161.21"/>
<text text-anchor="middle" x="319.75" y="-148.66" font-family="Times,serif" font-size="9.00">&#45;11</text>
</g>
<!-- &#45;11&#45;&gt;177 -->
<g id="edge34" class="edge">
<title>&#45;11&#45;&gt;177</title>
<path fill="none" stroke="red" stroke-width="0.42" stroke-dasharray="1,5" d="M325.28,-142.31C330.11,-134.75 337.39,-123.37 344.1,-112.89"/>
<polygon fill="red" stroke="red" stroke-width="0.42" points="346.99,-114.87 349.43,-104.56 341.09,-111.1 346.99,-114.87"/>
</g>
<!-- &#45;11&#45;&gt;178 -->
<g id="edge28" class="edge">
<title>&#45;11&#45;&gt;178</title>
<path fill="none" stroke="red" stroke-width="0.34" d="M307.61,-142.31C294.21,-132.77 272.26,-117.13 255.07,-104.89"/>
<polygon fill="red" stroke="red" stroke-width="0.34" points="257.19,-102.1 247.01,-99.15 253.13,-107.8 257.19,-102.1"/>
</g>
<!-- &#45;11&#45;&gt;179 -->
<g id="edge16" class="edge">
<title>&#45;11&#45;&gt;179</title>
<path fill="none" stroke="green" stroke-width="0.18" d="M333.8,-145.72C336.74,-144.68 339.84,-143.63 342.75,-142.71 400.75,-124.43 419.36,-131.81 474.75,-106.71 476.31,-106 477.89,-105.22 479.45,-104.38"/>
<polygon fill="green" stroke="green" stroke-width="0.18" points="481.14,-107.45 487.93,-99.32 477.55,-101.44 481.14,-107.45"/>
</g>
<!-- &#45;12 -->
<g id="node12" class="node">
<title>&#45;12</title>
<polygon fill="lightgray" stroke="black" points="153.75,-161.21 125.75,-161.21 125.75,-142.71 153.75,-142.71 153.75,-161.21"/>
<text text-anchor="middle" x="139.75" y="-148.66" font-family="Times,serif" font-size="9.00">&#45;12</text>
</g>
<!-- &#45;12&#45;&gt;178 -->
<g id="edge12" class="edge">
<title>&#45;12&#45;&gt;178</title>
<path fill="none" stroke="green" stroke-width="0.14" stroke-dasharray="1,5" d="M151.89,-142.31C165.41,-132.68 187.64,-116.84 204.9,-104.55"/>
<polygon fill="green" stroke="green" stroke-width="0.14" points="206.62,-107.62 212.74,-98.97 202.56,-101.92 206.62,-107.62"/>
</g>
<!-- &#45;13 -->
<g id="node13" class="node">
<title>&#45;13</title>
<polygon fill="lightgray" stroke="black" points="777.75,-161.21 749.75,-161.21 749.75,-142.71 777.75,-142.71 777.75,-161.21"/>
<text text-anchor="middle" x="763.75" y="-148.66" font-family="Times,serif" font-size="9.00">&#45;13</text>
</g>
<!-- &#45;14 -->
<g id="node14" class="node">
<title>&#45;14</title>
<polygon fill="lightgray" stroke="black" points="513.75,-161.21 485.75,-161.21 485.75,-142.71 513.75,-142.71 513.75,-161.21"/>
<text text-anchor="middle" x="499.75" y="-148.66" font-family="Times,serif" font-size="9.00">&#45;14</text>
</g>
<!-- &#45;14&#45;&gt;177 -->
<g id="edge8" class="edge">
<title>&#45;14&#45;&gt;177</title>
<path fill="none" stroke="green" stroke-width="0.23" stroke-dasharray="1,5" d="M485.4,-144.34C462.71,-133.88 418.15,-113.33 388.92,-99.84"/>
<polygon fill="green" stroke="green" stroke-width="0.23" points="390.5,-96.72 379.95,-95.71 387.57,-103.08 390.5,-96.72"/>
</g>
<!-- &#45;14&#45;&gt;179 -->
<g id="edge30" class="edge">
<title>&#45;14&#45;&gt;179</title>
<path fill="none" stroke="red" stroke-width="0.14" d="M500.42,-142.31C500.94,-135.76 501.67,-126.33 502.39,-117.1"/>
<polygon fill="red" stroke="red" stroke-width="0.14" points="505.88,-117.39 503.17,-107.14 498.9,-116.84 505.88,-117.39"/>
</g>
<!-- &#45;14&#45;&gt;180 -->
<g id="edge4" class="edge">
<title>&#45;14&#45;&gt;180</title>
<path fill="none" stroke="red" stroke-width="0.19" d="M492.33,-142.31C485.19,-133.98 474.06,-121.01 464.36,-109.71"/>
<polygon fill="red" stroke="red" stroke-width="0.19" points="467.29,-107.75 458.13,-102.44 461.98,-112.31 467.29,-107.75"/>
</g>
<!-- &#45;15 -->
<g id="node15" class="node">
<title>&#45;15</title>
<polygon fill="lightgray" stroke="black" points="287.75,-161.21 259.75,-161.21 259.75,-142.71 287.75,-142.71 287.75,-161.21"/>
<text text-anchor="middle" x="273.75" y="-148.66" font-family="Times,serif" font-size="9.00">&#45;15</text>
</g>
<!-- &#45;15&#45;&gt;177 -->
<g id="edge31" class="edge">
<title>&#45;15&#45;&gt;177</title>
<path fill="none" stroke="red" stroke-width="0.29" stroke-dasharray="1,5" d="M285.48,-142.31C298.36,-132.83 319.4,-117.32 335.97,-105.11"/>
<polygon fill="red" stroke="red" stroke-width="0.29" points="337.83,-108.09 343.8,-99.34 333.68,-102.45 337.83,-108.09"/>
</g>
<!-- &#45;15&#45;&gt;178 -->
<g id="edge24" class="edge">
<title>&#45;15&#45;&gt;178</title>
<path fill="none" stroke="red" stroke-width="0.17" stroke-dasharray="1,5" d="M267.82,-142.31C262.49,-134.55 254.39,-122.75 247.03,-112.03"/>
<polygon fill="red" stroke="red" stroke-width="0.17" points="250.04,-110.23 241.5,-103.97 244.27,-114.19 250.04,-110.23"/>
</g>
<!-- &#45;15&#45;&gt;180 -->
<g id="edge40" class="edge">
<title>&#45;15&#45;&gt;180</title>
<path fill="none" stroke="red" stroke-width="0.63" stroke-dasharray="1,5" d="M288.04,-145.6C315.87,-135.17 377.89,-111.92 415.02,-98"/>
<polygon fill="red" stroke="red" stroke-width="0.63" points="416.2,-101.29 424.34,-94.5 413.75,-94.74 416.2,-101.29"/>
</g>
<!-- &#45;16 -->
<g id="node16" class="node">
<title>&#45;16</title>
<polygon fill="lightgray" stroke="black" points="559.75,-161.21 531.75,-161.21 531.75,-142.71 559.75,-142.71 559.75,-161.21"/>
<text text-anchor="middle" x="545.75" y="-148.66" font-family="Times,serif" font-size="9.00">&#45;16</text>
</g>
<!-- &#45;16&#45;&gt;177 -->
<g id="edge5" class="edge">
<title>&#45;16&#45;&gt;177</title>
<path fill="none" stroke="red" stroke-width="0.19" d="M531.66,-145.85C528.72,-144.8 525.64,-143.71 522.75,-142.71 474.93,-126.17 462.5,-123.44 414.75,-106.71 406.57,-103.85 397.74,-100.64 389.63,-97.66"/>
<polygon fill="red" stroke="red" stroke-width="0.19" points="391.05,-94.45 380.46,-94.26 388.62,-101.02 391.05,-94.45"/>
</g>
<!-- &#45;16&#45;&gt;179 -->
<g id="edge1" class="edge">
<title>&#45;16&#45;&gt;179</title>
<path fill="none" stroke="green" stroke-width="0.51" stroke-dasharray="1,5" d="M540.22,-142.31C535.39,-134.75 528.11,-123.37 521.4,-112.89"/>
<polygon fill="green" stroke="green" stroke-width="0.51" points="524.48,-111.21 516.14,-104.67 518.58,-114.98 524.48,-111.21"/>
</g>
<!-- &#45;16&#45;&gt;180 -->
<g id="edge2" class="edge">
<title>&#45;16&#45;&gt;180</title>
<path fill="none" stroke="red" stroke-width="0.45" stroke-dasharray="1,5" d="M531.53,-142.26C517.15,-133.42 494.3,-119.27 474.75,-106.71 473.44,-105.87 472.09,-105 470.74,-104.12"/>
<polygon fill="red" stroke="red" stroke-width="0.45" points="472.68,-101.21 462.4,-98.65 468.84,-107.06 472.68,-101.21"/>
</g>
<!-- &#45;17 -->
<g id="node17" class="node">
<title>&#45;17</title>
<polygon fill="lightgray" stroke="black" points="199.75,-161.21 171.75,-161.21 171.75,-142.71 199.75,-142.71 199.75,-161.21"/>
<text text-anchor="middle" x="185.75" y="-148.66" font-family="Times,serif" font-size="9.00">&#45;17</text>
</g>
<!-- &#45;17&#45;&gt;178 -->
<g id="edge10" class="edge">
<title>&#45;17&#45;&gt;178</title>
<path fill="none" stroke="green" stroke-width="0.38" d="M191.68,-142.31C196.96,-134.62 204.95,-122.98 212.25,-112.35"/>
<polygon fill="green" stroke="green" stroke-width="0.38" points="215.05,-114.46 217.82,-104.23 209.28,-110.5 215.05,-114.46"/>
</g>
<!-- &#45;18 -->
<g id="node18" class="node">
<title>&#45;18</title>
<polygon fill="lightgray" stroke="black" points="647.75,-161.21 619.75,-161.21 619.75,-142.71 647.75,-142.71 647.75,-161.21"/>
<text text-anchor="middle" x="633.75" y="-148.66" font-family="Times,serif" font-size="9.00">&#45;18</text>
</g>
<!-- &#45;18&#45;&gt;179 -->
<g id="edge18" class="edge">
<title>&#45;18&#45;&gt;179</title>
<path fill="none" stroke="red" stroke-width="0.13" d="M619.3,-145.37C599.69,-137.6 563.79,-122.67 534.75,-106.71 533.24,-105.88 531.72,-105 530.19,-104.09"/>
<polygon fill="red" stroke="red" stroke-width="0.13" points="532.08,-101.15 521.75,-98.8 528.36,-107.08 532.08,-101.15"/>
</g>
<!-- &#45;19 -->
<g id="node19" class="node">
<title>&#45;19</title>
<polygon fill="lightgray" stroke="black" points="823.75,-161.21 795.75,-161.21 795.75,-142.71 823.75,-142.71 823.75,-161.21"/>
<text text-anchor="middle" x="809.75" y="-148.66" font-family="Times,serif" font-size="9.00">&#45;19</text>
</g>
<!-- &#45;20 -->
<g id="node20" class="node">
<title>&#45;20</title>
<polygon fill="lightgray" stroke="black" points="379.75,-161.21 351.75,-161.21 351.75,-142.71 379.75,-142.71 379.75,-161.21"/>
<text text-anchor="middle" x="365.75" y="-148.66" font-family="Times,serif" font-size="9.00">&#45;20</text>
</g>
<!-- &#45;20&#45;&gt;177 -->
<g id="edge14" class="edge">
<title>&#45;20&#45;&gt;177</title>
<path fill="none" stroke="green" stroke-width="0.16" d="M365.08,-142.31C364.56,-135.76 363.83,-126.33 363.11,-117.1"/>
<polygon fill="green" stroke="green" stroke-width="0.16" points="366.6,-116.88 362.34,-107.18 359.62,-117.42 366.6,-116.88"/>
</g>
<!-- 0 -->
<g id="node21" class="node">
<title>0</title>
<ellipse fill="lightblue" stroke="black" cx="351.75" cy="-14.5" rx="14.5" ry="14.5"/>
<text text-anchor="middle" x="351.75" y="-11.2" font-family="Times,serif" font-size="9.00">0</text>
</g>
<!-- 1 -->
<g id="node22" class="node">
<title>1</title>
<ellipse fill="lightblue" stroke="black" cx="463.75" cy="-14.5" rx="14.5" ry="14.5"/>
<text text-anchor="middle" x="463.75" y="-11.2" font-family="Times,serif" font-size="9.00">1</text>
</g>
<!-- 1&#45;&gt;1 -->
<g id="edge32" class="edge">
<title>1&#45;&gt;1</title>
<path fill="none" stroke="red" stroke-width="0.76" d="M474.07,-24.94C484.56,-31.08 496.25,-27.6 496.25,-14.5 496.25,-5.9 491.21,-1.44 484.79,-1.13"/>
<polygon fill="red" stroke="red" stroke-width="0.76" points="483.9,2.25 475.17,-3.76 485.74,-4.5 483.9,2.25"/>
</g>
<!-- 2 -->
<g id="node23" class="node">
<title>2</title>
<ellipse fill="lightblue" stroke="black" cx="229.75" cy="-14.5" rx="14.5" ry="14.5"/>
<text text-anchor="middle" x="229.75" y="-11.2" font-family="Times,serif" font-size="9.00">2</text>
</g>
<!-- 3 -->
<g id="node24" class="node">
<title>3</title>
<ellipse fill="lightblue" stroke="black" cx="398.75" cy="-14.5" rx="14.5" ry="14.5"/>
<text text-anchor="middle" x="398.75" y="-11.2" font-family="Times,serif" font-size="9.00">3</text>
</g>
<!-- 3&#45;&gt;3 -->
<g id="edge11" class="edge">
<title>3&#45;&gt;3</title>
<path fill="none" stroke="red" stroke-width="0.37" stroke-dasharray="1,5" d="M409.07,-24.94C419.56,-31.08 431.25,-27.6 431.25,-14.5 431.25,-5.49 425.72,-1.03 418.86,-1.12"/>
<polygon fill="red" stroke="red" stroke-width="0.37" points="418.18,2.33 409.61,-3.89 420.19,-4.37 418.18,2.33"/>
</g>
<!-- 177&#45;&gt;0 -->
<g id="edge13" class="edge">
<title>177&#45;&gt;0</title>
<path fill="none" stroke="green" stroke-width="0.57" d="M358.15,-64.79C357.14,-57.07 355.99,-48.16 354.94,-40.06"/>
<polygon fill="green" stroke="green" stroke-width="0.57" points="358.42,-39.68 353.66,-30.21 351.48,-40.58 358.42,-39.68"/>
</g>
<!-- 177&#45;&gt;3 -->
<g id="edge23" class="edge">
<title>177&#45;&gt;3</title>
<path fill="none" stroke="red" stroke-width="0.24" stroke-dasharray="1,5" d="M370.54,-66.99C375.62,-57.72 381.85,-46.33 387.17,-36.62"/>
<polygon fill="red" stroke="red" stroke-width="0.24" points="390.2,-38.39 391.93,-27.93 384.06,-35.02 390.2,-38.39"/>
</g>
<!-- 178&#45;&gt;2 -->
<g id="edge17" class="edge">
<title>178&#45;&gt;2</title>
<path fill="none" stroke="green" stroke-width="0.34" d="M229.75,-64.79C229.75,-56.98 229.75,-47.96 229.75,-39.78"/>
<polygon fill="green" stroke="green" stroke-width="0.34" points="233.25,-39.87 229.75,-29.87 226.25,-39.87 233.25,-39.87"/>
</g>
<!-- 178&#45;&gt;3 -->
<g id="edge35" class="edge">
<title>178&#45;&gt;3</title>
<path fill="none" stroke="red" stroke-width="0.17" d="M249.36,-78.31C277.58,-68.67 331.06,-49.56 374.75,-28.99 375.74,-28.52 376.75,-28.03 377.77,-27.52"/>
<polygon fill="red" stroke="red" stroke-width="0.17" points="379.35,-30.65 386.5,-22.83 376.03,-24.48 379.35,-30.65"/>
</g>
<!-- 179&#45;&gt;1 -->
<g id="edge36" class="edge">
<title>179&#45;&gt;1</title>
<path fill="none" stroke="red" stroke-width="0.23" d="M494.4,-67.35C488.8,-57.86 481.83,-46.08 475.96,-36.14"/>
<polygon fill="red" stroke="red" stroke-width="0.23" points="479.02,-34.45 470.92,-27.62 473,-38.01 479.02,-34.45"/>
</g>
<!-- 179&#45;&gt;3 -->
<g id="edge26" class="edge">
<title>179&#45;&gt;3</title>
<path fill="none" stroke="green" stroke-width="0.27" d="M487.63,-73.49C483.42,-70.7 478.93,-67.73 474.75,-64.99 456,-52.68 434.59,-38.75 419.28,-28.81"/>
<polygon fill="green" stroke="green" stroke-width="0.27" points="421.25,-25.91 410.95,-23.4 417.44,-31.78 421.25,-25.91"/>
</g>
<!-- 179&#45;&gt;4 -->
<g id="edge39" class="edge">
<title>179&#45;&gt;4</title>
<path fill="none" stroke="red" stroke-width="0.12" d="M511.31,-65.9C514.29,-57.27 517.85,-47 520.97,-37.99"/>
<polygon fill="red" stroke="red" stroke-width="0.12" points="524.23,-39.26 524.19,-28.67 517.61,-36.97 524.23,-39.26"/>
</g>
<!-- 180&#45;&gt;1 -->
<g id="edge6" class="edge">
<title>180&#45;&gt;1</title>
<path fill="none" stroke="red" stroke-width="0.17" d="M450.04,-65.53C452.35,-57.12 455.07,-47.2 457.47,-38.41"/>
<polygon fill="red" stroke="red" stroke-width="0.17" points="460.78,-39.6 460.04,-29.03 454.02,-37.75 460.78,-39.6"/>
</g>
<!-- 180&#45;&gt;3 -->
<g id="edge20" class="edge">
<title>180&#45;&gt;3</title>
<path fill="none" stroke="red" stroke-width="0.22" d="M433.61,-68.06C427.12,-58.26 418.88,-45.84 412.04,-35.53"/>
<polygon fill="red" stroke="red" stroke-width="0.22" points="415.1,-33.81 406.65,-27.41 409.27,-37.68 415.1,-33.81"/>
</g>
<!-- 180&#45;&gt;4 -->
<g id="edge41" class="edge">
<title>180&#45;&gt;4</title>
<path fill="none" stroke="red" stroke-width="0.17" d="M460.55,-71.81C474.66,-60.15 495.35,-43.07 510.24,-30.78"/>
<polygon fill="red" stroke="red" stroke-width="0.17" points="512.15,-33.74 517.64,-24.67 507.7,-28.34 512.15,-33.74"/>
</g>
</g>
</svg>
