<?xml version="1.0" encoding="UTF-8" standalone="no"?>
<!DOCTYPE svg PUBLIC "-//W3C//DTD SVG 1.1//EN"
 "http://www.w3.org/Graphics/SVG/1.1/DTD/svg11.dtd">
<!-- Generated by graphviz version 12.1.1 (20240910.0053)
 -->
<!-- Pages: 1 -->
<svg width="805pt" height="318pt"
 viewBox="0.00 0.00 804.68 318.29" xmlns="http://www.w3.org/2000/svg" xmlns:xlink="http://www.w3.org/1999/xlink">
<g id="graph0" class="graph" transform="scale(1 1) rotate(0) translate(4 314.29)">
<polygon fill="white" stroke="none" points="-4,4 -4,-314.29 800.68,-314.29 800.68,4 -4,4"/>
<!-- &#45;1 -->
<g id="node1" class="node">
<title>&#45;1</title>
<polygon fill="lightgray" stroke="black" points="314.43,-244.18 290.93,-244.18 290.93,-225.68 314.43,-225.68 314.43,-244.18"/>
<text text-anchor="middle" x="302.68" y="-231.63" font-family="Times,serif" font-size="9.00">&#45;1</text>
</g>
<!-- 83 -->
<g id="node29" class="node">
<title>83</title>
<ellipse fill="white" stroke="black" cx="302.68" cy="-160.39" rx="17.68" ry="17.68"/>
<text text-anchor="middle" x="302.68" y="-157.09" font-family="Times,serif" font-size="9.00">83</text>
</g>
<!-- &#45;1&#45;&gt;83 -->
<g id="edge41" class="edge">
<title>&#45;1&#45;&gt;83</title>
<path fill="none" stroke="red" stroke-width="0.2" d="M302.68,-225.32C302.68,-216.26 302.68,-201.53 302.68,-188.49"/>
<polygon fill="red" stroke="red" stroke-width="0.2" points="306.18,-188.84 302.68,-178.84 299.18,-188.84 306.18,-188.84"/>
</g>
<!-- &#45;2 -->
<g id="node2" class="node">
<title>&#45;2</title>
<polygon fill="lightgray" stroke="black" points="402.43,-244.18 378.93,-244.18 378.93,-225.68 402.43,-225.68 402.43,-244.18"/>
<text text-anchor="middle" x="390.68" y="-231.63" font-family="Times,serif" font-size="9.00">&#45;2</text>
</g>
<!-- 81 -->
<g id="node27" class="node">
<title>81</title>
<ellipse fill="white" stroke="black" cx="443.68" cy="-160.39" rx="17.68" ry="17.68"/>
<text text-anchor="middle" x="443.68" y="-157.09" font-family="Times,serif" font-size="9.00">81</text>
</g>
<!-- &#45;2&#45;&gt;81 -->
<g id="edge18" class="edge">
<title>&#45;2&#45;&gt;81</title>
<path fill="none" stroke="green" stroke-width="0.16" d="M396.96,-225.32C404.46,-215.06 417.26,-197.54 427.57,-183.43"/>
<polygon fill="green" stroke="green" stroke-width="0.16" points="430.38,-185.52 433.45,-175.38 424.73,-181.39 430.38,-185.52"/>
</g>
<!-- &#45;3 -->
<g id="node3" class="node">
<title>&#45;3</title>
<polygon fill="lightgray" stroke="black" points="161.43,-310.29 137.93,-310.29 137.93,-291.79 161.43,-291.79 161.43,-310.29"/>
<text text-anchor="middle" x="149.68" y="-297.74" font-family="Times,serif" font-size="9.00">&#45;3</text>
</g>
<!-- &#45;4 -->
<g id="node4" class="node">
<title>&#45;4</title>
<polygon fill="lightgray" stroke="black" points="272.43,-244.18 248.93,-244.18 248.93,-225.68 272.43,-225.68 272.43,-244.18"/>
<text text-anchor="middle" x="260.68" y="-231.63" font-family="Times,serif" font-size="9.00">&#45;4</text>
</g>
<!-- 82 -->
<g id="node28" class="node">
<title>82</title>
<ellipse fill="white" stroke="black" cx="137.68" cy="-160.39" rx="17.68" ry="17.68"/>
<text text-anchor="middle" x="137.68" y="-157.09" font-family="Times,serif" font-size="9.00">82</text>
</g>
<!-- &#45;4&#45;&gt;82 -->
<g id="edge32" class="edge">
<title>&#45;4&#45;&gt;82</title>
<path fill="none" stroke="green" stroke-width="0.23" stroke-dasharray="1,5" d="M252.57,-225.23C248.85,-221.53 244.26,-217.32 239.68,-214.07 215.4,-196.84 184.73,-181.79 163.4,-172.23"/>
<polygon fill="green" stroke="green" stroke-width="0.23" points="164.9,-169.07 154.34,-168.26 162.09,-175.48 164.9,-169.07"/>
</g>
<!-- 84 -->
<g id="node30" class="node">
<title>84</title>
<ellipse fill="white" stroke="black" cx="514.68" cy="-160.39" rx="17.68" ry="17.68"/>
<text text-anchor="middle" x="514.68" y="-157.09" font-family="Times,serif" font-size="9.00">84</text>
</g>
<!-- &#45;4&#45;&gt;84 -->
<g id="edge12" class="edge">
<title>&#45;4&#45;&gt;84</title>
<path fill="none" stroke="red" stroke-width="0.23" d="M267.6,-225.35C271.34,-221.3 276.29,-216.77 281.68,-214.07 365.15,-172.2 401.66,-211.94 488.68,-178.07 489.7,-177.67 490.73,-177.23 491.75,-176.75"/>
<polygon fill="red" stroke="red" stroke-width="0.23" points="493.29,-179.9 500.34,-171.99 489.9,-173.77 493.29,-179.9"/>
</g>
<!-- &#45;5 -->
<g id="node5" class="node">
<title>&#45;5</title>
<polygon fill="lightgray" stroke="black" points="482.43,-244.18 458.93,-244.18 458.93,-225.68 482.43,-225.68 482.43,-244.18"/>
<text text-anchor="middle" x="470.68" y="-231.63" font-family="Times,serif" font-size="9.00">&#45;5</text>
</g>
<!-- &#45;5&#45;&gt;81 -->
<g id="edge34" class="edge">
<title>&#45;5&#45;&gt;81</title>
<path fill="none" stroke="green" stroke-width="0.3" stroke-dasharray="1,5" d="M467.47,-225.32C463.98,-215.93 458.21,-200.45 453.24,-187.07"/>
<polygon fill="green" stroke="green" stroke-width="0.3" points="456.56,-185.96 449.79,-177.81 450,-188.4 456.56,-185.96"/>
</g>
<!-- &#45;5&#45;&gt;83 -->
<g id="edge20" class="edge">
<title>&#45;5&#45;&gt;83</title>
<path fill="none" stroke="red" stroke-width="0.11" d="M458.59,-228.71C431.31,-216.93 364.47,-188.07 327.79,-172.23"/>
<polygon fill="red" stroke="red" stroke-width="0.11" points="329.44,-169.13 318.87,-168.38 326.67,-175.56 329.44,-169.13"/>
</g>
<!-- &#45;5&#45;&gt;84 -->
<g id="edge43" class="edge">
<title>&#45;5&#45;&gt;84</title>
<path fill="none" stroke="red" stroke-width="0.39" stroke-dasharray="1,5" d="M475.9,-225.32C481.89,-215.44 491.97,-198.82 500.35,-185"/>
<polygon fill="red" stroke="red" stroke-width="0.39" points="503.32,-186.86 505.51,-176.5 497.33,-183.23 503.32,-186.86"/>
</g>
<!-- &#45;6 -->
<g id="node6" class="node">
<title>&#45;6</title>
<polygon fill="lightgray" stroke="black" points="146.43,-244.18 122.93,-244.18 122.93,-225.68 146.43,-225.68 146.43,-244.18"/>
<text text-anchor="middle" x="134.68" y="-231.63" font-family="Times,serif" font-size="9.00">&#45;6</text>
</g>
<!-- &#45;6&#45;&gt;81 -->
<g id="edge31" class="edge">
<title>&#45;6&#45;&gt;81</title>
<path fill="none" stroke="red" stroke-width="0.15" stroke-dasharray="1,5" d="M146.75,-229.4C158.59,-225.07 177.2,-218.56 193.68,-214.07 273.67,-192.25 370.15,-174.21 416.38,-166.06"/>
<polygon fill="red" stroke="red" stroke-width="0.15" points="416.76,-169.54 426.01,-164.38 415.56,-162.65 416.76,-169.54"/>
</g>
<!-- &#45;6&#45;&gt;82 -->
<g id="edge38" class="edge">
<title>&#45;6&#45;&gt;82</title>
<path fill="none" stroke="green" stroke-width="0.5" stroke-dasharray="1,5" d="M135.03,-225.32C135.4,-216.44 135.99,-202.11 136.52,-189.26"/>
<polygon fill="green" stroke="green" stroke-width="0.5" points="140.02,-189.43 136.94,-179.29 133.03,-189.14 140.02,-189.43"/>
</g>
<!-- &#45;6&#45;&gt;83 -->
<g id="edge9" class="edge">
<title>&#45;6&#45;&gt;83</title>
<path fill="none" stroke="red" stroke-width="0.17" d="M144.32,-225.46C149.03,-221.62 154.91,-217.25 160.68,-214.07 198.78,-193.06 246.96,-177.2 276.27,-168.61"/>
<polygon fill="red" stroke="red" stroke-width="0.17" points="276.9,-172.07 285.55,-165.95 274.97,-165.34 276.9,-172.07"/>
</g>
<!-- &#45;7 -->
<g id="node7" class="node">
<title>&#45;7</title>
<polygon fill="lightgray" stroke="black" points="750.43,-244.18 726.93,-244.18 726.93,-225.68 750.43,-225.68 750.43,-244.18"/>
<text text-anchor="middle" x="738.68" y="-231.63" font-family="Times,serif" font-size="9.00">&#45;7</text>
</g>
<!-- &#45;7&#45;&gt;81 -->
<g id="edge6" class="edge">
<title>&#45;7&#45;&gt;81</title>
<path fill="none" stroke="red" stroke-width="0.31" d="M731.77,-225.31C728.03,-221.25 723.08,-216.72 717.68,-214.07 624.8,-168.47 587.7,-204.54 487.68,-178.07 481.6,-176.46 475.21,-174.31 469.24,-172.1"/>
<polygon fill="red" stroke="red" stroke-width="0.31" points="470.73,-168.92 460.14,-168.55 468.19,-175.44 470.73,-168.92"/>
</g>
<!-- &#45;7&#45;&gt;84 -->
<g id="edge28" class="edge">
<title>&#45;7&#45;&gt;84</title>
<path fill="none" stroke="red" stroke-width="0.22" d="M731.65,-225.54C727.89,-221.53 722.94,-216.98 717.68,-214.07 660.37,-182.33 583.34,-169.18 542.62,-164.17"/>
<polygon fill="red" stroke="red" stroke-width="0.22" points="543.28,-160.73 532.94,-163.05 542.48,-167.68 543.28,-160.73"/>
</g>
<!-- &#45;8 -->
<g id="node8" class="node">
<title>&#45;8</title>
<polygon fill="lightgray" stroke="black" points="203.43,-310.29 179.93,-310.29 179.93,-291.79 203.43,-291.79 203.43,-310.29"/>
<text text-anchor="middle" x="191.68" y="-297.74" font-family="Times,serif" font-size="9.00">&#45;8</text>
</g>
<!-- &#45;9 -->
<g id="node9" class="node">
<title>&#45;9</title>
<polygon fill="lightgray" stroke="black" points="570.43,-244.18 546.93,-244.18 546.93,-225.68 570.43,-225.68 570.43,-244.18"/>
<text text-anchor="middle" x="558.68" y="-231.63" font-family="Times,serif" font-size="9.00">&#45;9</text>
</g>
<!-- &#45;9&#45;&gt;81 -->
<g id="edge37" class="edge">
<title>&#45;9&#45;&gt;81</title>
<path fill="none" stroke="green" stroke-width="1.09" stroke-dasharray="1,5" d="M550.51,-225.3C546.79,-221.61 542.2,-217.4 537.68,-214.07 516.16,-198.24 489.41,-183.68 469.95,-173.9"/>
<polygon fill="green" stroke="green" stroke-width="1.09" points="471.69,-170.86 461.18,-169.58 468.6,-177.14 471.69,-170.86"/>
</g>
<!-- &#45;10 -->
<g id="node10" class="node">
<title>&#45;10</title>
<polygon fill="lightgray" stroke="black" points="104.68,-244.18 76.68,-244.18 76.68,-225.68 104.68,-225.68 104.68,-244.18"/>
<text text-anchor="middle" x="90.68" y="-231.63" font-family="Times,serif" font-size="9.00">&#45;10</text>
</g>
<!-- &#45;10&#45;&gt;81 -->
<g id="edge19" class="edge">
<title>&#45;10&#45;&gt;81</title>
<path fill="none" stroke="green" stroke-width="0.18" stroke-dasharray="1,5" d="M98.39,-225.31C102.51,-221.25 107.93,-216.72 113.68,-214.07 209.21,-169.97 243.84,-195.07 347.68,-178.07 370.78,-174.28 396.95,-169.72 416.13,-166.32"/>
<polygon fill="green" stroke="green" stroke-width="0.18" points="416.5,-169.81 425.73,-164.61 415.28,-162.92 416.5,-169.81"/>
</g>
<!-- &#45;10&#45;&gt;82 -->
<g id="edge22" class="edge">
<title>&#45;10&#45;&gt;82</title>
<path fill="none" stroke="red" stroke-width="0.21" d="M96.25,-225.32C102.75,-215.28 113.77,-198.29 122.8,-184.35"/>
<polygon fill="red" stroke="red" stroke-width="0.21" points="125.71,-186.29 128.21,-175.99 119.84,-182.48 125.71,-186.29"/>
</g>
<!-- &#45;10&#45;&gt;83 -->
<g id="edge3" class="edge">
<title>&#45;10&#45;&gt;83</title>
<path fill="none" stroke="red" stroke-width="0.4" stroke-dasharray="1,5" d="M98.95,-225.2C103.05,-221.31 108.28,-216.96 113.68,-214.07 166.69,-185.65 236.48,-171.37 274.69,-165.25"/>
<polygon fill="red" stroke="red" stroke-width="0.4" points="275.08,-168.73 284.43,-163.76 274.02,-161.81 275.08,-168.73"/>
</g>
<!-- &#45;11 -->
<g id="node11" class="node">
<title>&#45;11</title>
<polygon fill="lightgray" stroke="black" points="249.68,-310.29 221.68,-310.29 221.68,-291.79 249.68,-291.79 249.68,-310.29"/>
<text text-anchor="middle" x="235.68" y="-297.74" font-family="Times,serif" font-size="9.00">&#45;11</text>
</g>
<!-- &#45;12 -->
<g id="node12" class="node">
<title>&#45;12</title>
<polygon fill="lightgray" stroke="black" points="528.68,-244.18 500.68,-244.18 500.68,-225.68 528.68,-225.68 528.68,-244.18"/>
<text text-anchor="middle" x="514.68" y="-231.63" font-family="Times,serif" font-size="9.00">&#45;12</text>
</g>
<!-- &#45;12&#45;&gt;81 -->
<g id="edge35" class="edge">
<title>&#45;12&#45;&gt;81</title>
<path fill="none" stroke="red" stroke-width="0.18" d="M506.25,-225.32C495.55,-214.39 476.78,-195.21 462.58,-180.7"/>
<polygon fill="red" stroke="red" stroke-width="0.18" points="465.33,-178.5 455.83,-173.8 460.32,-183.4 465.33,-178.5"/>
</g>
<!-- &#45;12&#45;&gt;83 -->
<g id="edge13" class="edge">
<title>&#45;12&#45;&gt;83</title>
<path fill="none" stroke="red" stroke-width="0.23" d="M506.4,-225.2C502.3,-221.31 497.07,-216.96 491.68,-214.07 438.44,-185.53 368.27,-171.25 330.17,-165.17"/>
<polygon fill="red" stroke="red" stroke-width="0.23" points="331.07,-161.77 320.66,-163.72 330.01,-168.69 331.07,-161.77"/>
</g>
<!-- &#45;12&#45;&gt;84 -->
<g id="edge27" class="edge">
<title>&#45;12&#45;&gt;84</title>
<path fill="none" stroke="red" stroke-width="0.29" d="M514.68,-225.32C514.68,-216.35 514.68,-201.82 514.68,-188.87"/>
<polygon fill="red" stroke="red" stroke-width="0.29" points="518.18,-188.97 514.68,-178.97 511.18,-188.97 518.18,-188.97"/>
</g>
<!-- &#45;13 -->
<g id="node13" class="node">
<title>&#45;13</title>
<polygon fill="lightgray" stroke="black" points="230.68,-244.18 202.68,-244.18 202.68,-225.68 230.68,-225.68 230.68,-244.18"/>
<text text-anchor="middle" x="216.68" y="-231.63" font-family="Times,serif" font-size="9.00">&#45;13</text>
</g>
<!-- &#45;13&#45;&gt;83 -->
<g id="edge25" class="edge">
<title>&#45;13&#45;&gt;83</title>
<path fill="none" stroke="green" stroke-width="0.16" stroke-dasharray="1,5" d="M226.5,-225.39C230.56,-221.87 235.33,-217.76 239.68,-214.07 253.76,-202.1 269.73,-188.75 282.07,-178.48"/>
<polygon fill="green" stroke="green" stroke-width="0.16" points="283.96,-181.46 289.41,-172.37 279.49,-176.08 283.96,-181.46"/>
</g>
<!-- &#45;14 -->
<g id="node14" class="node">
<title>&#45;14</title>
<polygon fill="lightgray" stroke="black" points="360.68,-244.18 332.68,-244.18 332.68,-225.68 360.68,-225.68 360.68,-244.18"/>
<text text-anchor="middle" x="346.68" y="-231.63" font-family="Times,serif" font-size="9.00">&#45;14</text>
</g>
<!-- &#45;14&#45;&gt;81 -->
<g id="edge40" class="edge">
<title>&#45;14&#45;&gt;81</title>
<path fill="none" stroke="green" stroke-width="0.16" d="M356.36,-225.21C360.4,-221.67 365.19,-217.58 369.68,-214.07 386.48,-200.88 406.21,-186.9 421.07,-176.66"/>
<polygon fill="green" stroke="green" stroke-width="0.16" points="422.72,-179.77 429,-171.24 418.77,-174 422.72,-179.77"/>
</g>
<!-- &#45;14&#45;&gt;83 -->
<g id="edge39" class="edge">
<title>&#45;14&#45;&gt;83</title>
<path fill="none" stroke="red" stroke-width="0.15" stroke-dasharray="1,5" d="M341.46,-225.32C335.41,-215.35 325.19,-198.5 316.76,-184.6"/>
<polygon fill="red" stroke="red" stroke-width="0.15" points="319.83,-182.93 311.66,-176.19 313.85,-186.56 319.83,-182.93"/>
</g>
<!-- &#45;15 -->
<g id="node15" class="node">
<title>&#45;15</title>
<polygon fill="lightgray" stroke="black" points="796.68,-244.18 768.68,-244.18 768.68,-225.68 796.68,-225.68 796.68,-244.18"/>
<text text-anchor="middle" x="782.68" y="-231.63" font-family="Times,serif" font-size="9.00">&#45;15</text>
</g>
<!-- &#45;15&#45;&gt;84 -->
<g id="edge1" class="edge">
<title>&#45;15&#45;&gt;84</title>
<path fill="none" stroke="green" stroke-width="0.43" d="M774.9,-225.46C770.75,-221.43 765.34,-216.89 759.68,-214.07 687.03,-177.89 590.16,-166.46 542.95,-162.93"/>
<polygon fill="green" stroke="green" stroke-width="0.43" points="543.45,-159.45 533.23,-162.26 542.97,-166.44 543.45,-159.45"/>
</g>
<!-- &#45;16 -->
<g id="node16" class="node">
<title>&#45;16</title>
<polygon fill="lightgray" stroke="black" points="616.68,-244.18 588.68,-244.18 588.68,-225.68 616.68,-225.68 616.68,-244.18"/>
<text text-anchor="middle" x="602.68" y="-231.63" font-family="Times,serif" font-size="9.00">&#45;16</text>
</g>
<!-- &#45;16&#45;&gt;81 -->
<g id="edge7" class="edge">
<title>&#45;16&#45;&gt;81</title>
<path fill="none" stroke="green" stroke-width="0.2" d="M594.27,-225.43C590.14,-221.59 584.92,-217.22 579.68,-214.07 577.19,-212.57 508.66,-186.26 469.85,-171.4"/>
<polygon fill="green" stroke="green" stroke-width="0.2" points="471.11,-168.13 460.52,-167.83 468.61,-174.67 471.11,-168.13"/>
</g>
<!-- &#45;17 -->
<g id="node17" class="node">
<title>&#45;17</title>
<polygon fill="lightgray" stroke="black" points="295.68,-310.29 267.68,-310.29 267.68,-291.79 295.68,-291.79 295.68,-310.29"/>
<text text-anchor="middle" x="281.68" y="-297.74" font-family="Times,serif" font-size="9.00">&#45;17</text>
</g>
<!-- &#45;18 -->
<g id="node18" class="node">
<title>&#45;18</title>
<polygon fill="lightgray" stroke="black" points="119.68,-310.29 91.68,-310.29 91.68,-291.79 119.68,-291.79 119.68,-310.29"/>
<text text-anchor="middle" x="105.68" y="-297.74" font-family="Times,serif" font-size="9.00">&#45;18</text>
</g>
<!-- 265 -->
<g id="node26" class="node">
<title>265</title>
<ellipse fill="white" stroke="black" cx="37.68" cy="-234.93" rx="20.86" ry="20.86"/>
<text text-anchor="middle" x="37.68" y="-231.63" font-family="Times,serif" font-size="9.00">265</text>
</g>
<!-- &#45;18&#45;&gt;265 -->
<g id="edge44" class="edge">
<title>&#45;18&#45;&gt;265</title>
<path fill="none" stroke="red" stroke-width="0.31" stroke-dasharray="1,5" d="M96.51,-291.39C87.2,-282.62 72.43,-268.7 60.03,-257"/>
<polygon fill="red" stroke="red" stroke-width="0.31" points="62.69,-254.7 53.01,-250.39 57.89,-259.79 62.69,-254.7"/>
</g>
<!-- &#45;18&#45;&gt;81 -->
<g id="edge23" class="edge">
<title>&#45;18&#45;&gt;81</title>
<path fill="none" stroke="red" stroke-width="0.25" stroke-dasharray="1,5" d="M120.13,-294.31C122.93,-293.36 125.87,-292.46 128.68,-291.79 190.32,-277 362.59,-295.91 411.68,-255.79 431.62,-239.48 439.19,-210.23 442.03,-188.59"/>
<polygon fill="red" stroke="red" stroke-width="0.25" points="445.5,-189.05 443.07,-178.74 438.54,-188.32 445.5,-189.05"/>
</g>
<!-- &#45;18&#45;&gt;82 -->
<g id="edge14" class="edge">
<title>&#45;18&#45;&gt;82</title>
<path fill="none" stroke="green" stroke-width="0.4" stroke-dasharray="1,5" d="M91.2,-298.35C68.78,-294.88 26.31,-284.64 7.68,-255.79 -2.38,-240.21 -2.68,-229.44 7.68,-214.07 30.34,-180.43 78.54,-168.26 109.45,-163.87"/>
<polygon fill="green" stroke="green" stroke-width="0.4" points="109.88,-167.34 119.37,-162.65 109.02,-160.4 109.88,-167.34"/>
</g>
<!-- &#45;18&#45;&gt;83 -->
<g id="edge15" class="edge">
<title>&#45;18&#45;&gt;83</title>
<path fill="none" stroke="green" stroke-width="0.32" d="M115.92,-291.53C126.24,-282.84 142.47,-268.81 155.68,-255.79 173.54,-238.18 173.58,-229.07 193.68,-214.07 219.38,-194.88 253.18,-179.85 276.29,-170.84"/>
<polygon fill="green" stroke="green" stroke-width="0.32" points="277.51,-174.11 285.62,-167.3 275.03,-167.57 277.51,-174.11"/>
</g>
<!-- &#45;19 -->
<g id="node19" class="node">
<title>&#45;19</title>
<polygon fill="lightgray" stroke="black" points="662.68,-244.18 634.68,-244.18 634.68,-225.68 662.68,-225.68 662.68,-244.18"/>
<text text-anchor="middle" x="648.68" y="-231.63" font-family="Times,serif" font-size="9.00">&#45;19</text>
</g>
<!-- &#45;19&#45;&gt;83 -->
<g id="edge33" class="edge">
<title>&#45;19&#45;&gt;83</title>
<path fill="none" stroke="green" stroke-width="0.51" d="M640.96,-225.33C636.82,-221.28 631.41,-216.75 625.68,-214.07 612.27,-207.81 406.82,-176.86 330.74,-165.54"/>
<polygon fill="green" stroke="green" stroke-width="0.51" points="331.25,-162.08 320.84,-164.07 330.22,-169 331.25,-162.08"/>
</g>
<!-- &#45;19&#45;&gt;84 -->
<g id="edge16" class="edge">
<title>&#45;19&#45;&gt;84</title>
<path fill="none" stroke="green" stroke-width="0.68" stroke-dasharray="1,5" d="M639.73,-225.21C635.65,-221.5 630.63,-217.29 625.68,-214.07 598.53,-196.37 564.5,-181.12 541.33,-171.65"/>
<polygon fill="green" stroke="green" stroke-width="0.68" points="542.75,-168.45 532.16,-167.98 540.15,-174.95 542.75,-168.45"/>
</g>
<!-- &#45;20 -->
<g id="node20" class="node">
<title>&#45;20</title>
<polygon fill="lightgray" stroke="black" points="708.68,-244.18 680.68,-244.18 680.68,-225.68 708.68,-225.68 708.68,-244.18"/>
<text text-anchor="middle" x="694.68" y="-231.63" font-family="Times,serif" font-size="9.00">&#45;20</text>
</g>
<!-- &#45;20&#45;&gt;81 -->
<g id="edge10" class="edge">
<title>&#45;20&#45;&gt;81</title>
<path fill="none" stroke="green" stroke-width="0.13" stroke-dasharray="1,5" d="M686.92,-225.41C682.78,-221.37 677.37,-216.84 671.68,-214.07 596.74,-177.62 567.81,-200.91 487.68,-178.07 481.49,-176.3 474.95,-174.05 468.85,-171.77"/>
<polygon fill="green" stroke="green" stroke-width="0.13" points="470.53,-168.66 459.94,-168.31 468,-175.19 470.53,-168.66"/>
</g>
<!-- &#45;20&#45;&gt;84 -->
<g id="edge29" class="edge">
<title>&#45;20&#45;&gt;84</title>
<path fill="none" stroke="green" stroke-width="1.02" d="M686.33,-225.32C682.21,-221.46 676.99,-217.1 671.68,-214.07 629.85,-190.23 575.58,-175.04 543.03,-167.38"/>
<polygon fill="green" stroke="green" stroke-width="1.02" points="544.12,-164.04 533.59,-165.24 542.57,-170.87 544.12,-164.04"/>
</g>
<!-- 0 -->
<g id="node21" class="node">
<title>0</title>
<ellipse fill="lightblue" stroke="black" cx="348.68" cy="-85.85" rx="14.5" ry="14.5"/>
<text text-anchor="middle" x="348.68" y="-82.55" font-family="Times,serif" font-size="9.00">0</text>
</g>
<!-- 0&#45;&gt;0 -->
<g id="edge26" class="edge">
<title>0&#45;&gt;0</title>
<path fill="none" stroke="red" stroke-width="0.33" stroke-dasharray="1,5" d="M358.99,-96.29C369.49,-102.43 381.17,-98.95 381.17,-85.85 381.17,-76.84 375.65,-72.39 368.79,-72.47"/>
<polygon fill="red" stroke="red" stroke-width="0.33" points="368.04,-69.04 359.47,-75.27 370.05,-75.75 368.04,-69.04"/>
</g>
<!-- 1 -->
<g id="node22" class="node">
<title>1</title>
<ellipse fill="lightblue" stroke="black" cx="472.68" cy="-85.85" rx="14.5" ry="14.5"/>
<text text-anchor="middle" x="472.68" y="-82.55" font-family="Times,serif" font-size="9.00">1</text>
</g>
<!-- 2 -->
<g id="node23" class="node">
<title>2</title>
<ellipse fill="lightblue" stroke="black" cx="421.68" cy="-85.85" rx="14.5" ry="14.5"/>
<text text-anchor="middle" x="421.68" y="-82.55" font-family="Times,serif" font-size="9.00">2</text>
</g>
<!-- 3 -->
<g id="node24" class="node">
<title>3</title>
<ellipse fill="lightblue" stroke="black" cx="137.68" cy="-85.85" rx="14.5" ry="14.5"/>
<text text-anchor="middle" x="137.68" y="-82.55" font-family="Times,serif" font-size="9.00">3</text>
</g>
<!-- 4 -->
<g id="node25" class="node">
<title>4</title>
<ellipse fill="lightblue" stroke="black" cx="268.68" cy="-14.5" rx="14.5" ry="14.5"/>
<text text-anchor="middle" x="268.68" y="-11.2" font-family="Times,serif" font-size="9.00">4</text>
</g>
<!-- 265&#45;&gt;83 -->
<g id="edge45" class="edge">
<title>265&#45;&gt;83</title>
<path fill="none" stroke="green" stroke-width="0.39" d="M54.2,-221.45C58.42,-218.7 63.08,-216.02 67.68,-214.07 138.6,-183.86 229.26,-169.84 274.44,-164.36"/>
<polygon fill="green" stroke="green" stroke-width="0.39" points="274.79,-167.84 284.32,-163.21 273.98,-160.89 274.79,-167.84"/>
</g>
<!-- 81&#45;&gt;81 -->
<g id="edge17" class="edge">
<title>81&#45;&gt;81</title>
<path fill="none" stroke="green" stroke-width="0.13" stroke-dasharray="1,5" d="M457.22,-172.4C468.11,-177.2 479.35,-173.2 479.35,-160.39 479.35,-151.58 474.04,-146.94 467.18,-146.45"/>
<polygon fill="green" stroke="green" stroke-width="0.13" points="466.56,-143.01 457.41,-148.34 467.89,-149.88 466.56,-143.01"/>
</g>
<!-- 82&#45;&gt;3 -->
<g id="edge5" class="edge">
<title>82&#45;&gt;3</title>
<path fill="none" stroke="green" stroke-width="0.3" d="M137.68,-142.56C137.68,-133.22 137.68,-121.43 137.68,-111.11"/>
<polygon fill="green" stroke="green" stroke-width="0.3" points="141.18,-111.11 137.68,-101.11 134.18,-111.11 141.18,-111.11"/>
</g>
<!-- 82&#45;&gt;4 -->
<g id="edge2" class="edge">
<title>82&#45;&gt;4</title>
<path fill="none" stroke="green" stroke-width="0.19" d="M147.81,-145.75C162.01,-126.92 188.98,-92.21 214.68,-64.99 225.95,-53.05 239.58,-40.57 250.33,-31.12"/>
<polygon fill="green" stroke="green" stroke-width="0.19" points="252.42,-33.94 257.68,-24.75 247.83,-28.66 252.42,-33.94"/>
</g>
<!-- 405 -->
<g id="node31" class="node">
<title>405</title>
<ellipse fill="white" stroke="black" cx="244.68" cy="-85.85" rx="20.86" ry="20.86"/>
<text text-anchor="middle" x="244.68" y="-82.55" font-family="Times,serif" font-size="9.00">405</text>
</g>
<!-- 82&#45;&gt;405 -->
<g id="edge46" class="edge">
<title>82&#45;&gt;405</title>
<path fill="none" stroke="green" stroke-width="0.24" d="M152.11,-149.61C169.28,-137.97 198.25,-118.32 219.22,-104.11"/>
<polygon fill="green" stroke="green" stroke-width="0.24" points="221.04,-107.1 227.35,-98.6 217.11,-101.31 221.04,-107.1"/>
</g>
<!-- 83&#45;&gt;0 -->
<g id="edge24" class="edge">
<title>83&#45;&gt;0</title>
<path fill="none" stroke="green" stroke-width="0.34" stroke-dasharray="1,5" d="M311.76,-145.06C318.61,-134.27 328.08,-119.32 335.72,-107.28"/>
<polygon fill="green" stroke="green" stroke-width="0.34" points="338.45,-109.51 340.85,-99.19 332.54,-105.76 338.45,-109.51"/>
</g>
<!-- 83&#45;&gt;2 -->
<g id="edge4" class="edge">
<title>83&#45;&gt;2</title>
<path fill="none" stroke="red" stroke-width="0.62" stroke-dasharray="1,5" d="M317.79,-150.3C335.17,-139.84 364.54,-122.12 389.68,-106.71 393.17,-104.57 396.87,-102.28 400.47,-100.06"/>
<polygon fill="red" stroke="red" stroke-width="0.62" points="402.09,-103.17 408.74,-94.92 398.4,-97.23 402.09,-103.17"/>
</g>
<!-- 83&#45;&gt;4 -->
<g id="edge42" class="edge">
<title>83&#45;&gt;4</title>
<path fill="none" stroke="green" stroke-width="0.46" stroke-dasharray="1,5" d="M298.78,-142.88C292.74,-117.35 281.13,-68.2 274.22,-38.98"/>
<polygon fill="green" stroke="green" stroke-width="0.46" points="277.7,-38.45 271.99,-29.52 270.88,-40.06 277.7,-38.45"/>
</g>
<!-- 83&#45;&gt;83 -->
<g id="edge36" class="edge">
<title>83&#45;&gt;83</title>
<path fill="none" stroke="green" stroke-width="0.63" d="M316.22,-172.4C327.11,-177.2 338.35,-173.2 338.35,-160.39 338.35,-151.78 333.28,-147.15 326.65,-146.49"/>
<polygon fill="green" stroke="green" stroke-width="0.63" points="326.37,-142.99 317.15,-148.21 327.62,-149.87 326.37,-142.99"/>
</g>
<!-- 84&#45;&gt;0 -->
<g id="edge30" class="edge">
<title>84&#45;&gt;0</title>
<path fill="none" stroke="green" stroke-width="0.29" stroke-dasharray="1,5" d="M500.39,-149.54C496.66,-147.16 492.59,-144.72 488.68,-142.71 487.3,-142 411.2,-111.72 371.79,-96.04"/>
<polygon fill="green" stroke="green" stroke-width="0.29" points="373.18,-92.83 362.59,-92.38 370.59,-99.33 373.18,-92.83"/>
</g>
<!-- 84&#45;&gt;1 -->
<g id="edge11" class="edge">
<title>84&#45;&gt;1</title>
<path fill="none" stroke="green" stroke-width="0.24" d="M506.18,-144.71C499.97,-134 491.48,-119.33 484.6,-107.44"/>
<polygon fill="green" stroke="green" stroke-width="0.24" points="487.72,-105.85 479.68,-98.95 481.66,-109.36 487.72,-105.85"/>
</g>
<!-- 84&#45;&gt;2 -->
<g id="edge21" class="edge">
<title>84&#45;&gt;2</title>
<path fill="none" stroke="red" stroke-width="0.16" stroke-dasharray="1,5" d="M500.95,-148.69C485.06,-136.29 458.78,-115.79 440.87,-101.82"/>
<polygon fill="red" stroke="red" stroke-width="0.16" points="443.05,-99.09 433.02,-95.7 438.75,-104.61 443.05,-99.09"/>
</g>
<!-- 84&#45;&gt;4 -->
<g id="edge8" class="edge">
<title>84&#45;&gt;4</title>
<path fill="none" stroke="green" stroke-width="0.22" d="M516.38,-142.55C517.51,-121.47 515.96,-85.6 495.68,-64.99 467.61,-36.47 346.72,-22.43 293.73,-17.55"/>
<polygon fill="green" stroke="green" stroke-width="0.22" points="294.11,-14.08 283.85,-16.68 293.5,-21.05 294.11,-14.08"/>
</g>
<!-- 405&#45;&gt;4 -->
<g id="edge47" class="edge">
<title>405&#45;&gt;4</title>
<path fill="none" stroke="green" stroke-width="0.24" d="M251.23,-65.9C254.19,-57.37 257.7,-47.22 260.79,-38.28"/>
<polygon fill="green" stroke="green" stroke-width="0.24" points="264.09,-39.44 264.06,-28.85 257.48,-37.15 264.09,-39.44"/>
</g>
</g>
</svg>
