<?xml version="1.0" encoding="UTF-8" standalone="no"?>
<!DOCTYPE svg PUBLIC "-//W3C//DTD SVG 1.1//EN"
 "http://www.w3.org/Graphics/SVG/1.1/DTD/svg11.dtd">
<!-- Generated by graphviz version 12.1.1 (20240910.0053)
 -->
<!-- Pages: 1 -->
<svg width="1122pt" height="241pt"
 viewBox="0.00 0.00 1121.50 240.57" xmlns="http://www.w3.org/2000/svg" xmlns:xlink="http://www.w3.org/1999/xlink">
<g id="graph0" class="graph" transform="scale(1 1) rotate(0) translate(4 236.57)">
<polygon fill="white" stroke="none" points="-4,4 -4,-236.57 1117.5,-236.57 1117.5,4 -4,4"/>
<!-- &#45;1 -->
<g id="node1" class="node">
<title>&#45;1</title>
<polygon fill="lightgray" stroke="black" points="23.5,-232.57 0,-232.57 0,-214.07 23.5,-214.07 23.5,-232.57"/>
<text text-anchor="middle" x="11.75" y="-220.02" font-family="Times,serif" font-size="9.00">&#45;1</text>
</g>
<!-- &#45;2 -->
<g id="node2" class="node">
<title>&#45;2</title>
<polygon fill="lightgray" stroke="black" points="935.5,-166.46 912,-166.46 912,-147.96 935.5,-147.96 935.5,-166.46"/>
<text text-anchor="middle" x="923.75" y="-153.91" font-family="Times,serif" font-size="9.00">&#45;2</text>
</g>
<!-- 4 -->
<g id="node25" class="node">
<title>4</title>
<ellipse fill="lightblue" stroke="black" cx="420.75" cy="-14.5" rx="14.5" ry="14.5"/>
<text text-anchor="middle" x="420.75" y="-11.2" font-family="Times,serif" font-size="9.00">4</text>
</g>
<!-- &#45;2&#45;&gt;4 -->
<g id="edge43" class="edge">
<title>&#45;2&#45;&gt;4</title>
<path fill="none" stroke="red" stroke-width="0.11" d="M914.13,-147.69C909.43,-143.84 903.55,-139.47 897.75,-136.35 729.29,-45.54 668.52,-65.95 480.75,-28.99 468.84,-26.65 455.68,-23.72 444.72,-21.2"/>
<polygon fill="red" stroke="red" stroke-width="0.11" points="445.71,-17.83 435.17,-18.97 444.12,-24.65 445.71,-17.83"/>
</g>
<!-- 92 -->
<g id="node33" class="node">
<title>92</title>
<ellipse fill="white" stroke="black" cx="943.75" cy="-82.67" rx="17.68" ry="17.68"/>
<text text-anchor="middle" x="943.75" y="-79.37" font-family="Times,serif" font-size="9.00">92</text>
</g>
<!-- &#45;2&#45;&gt;92 -->
<g id="edge2" class="edge">
<title>&#45;2&#45;&gt;92</title>
<path fill="none" stroke="green" stroke-width="0.24" stroke-dasharray="1,5" d="M926.12,-147.6C928.68,-138.33 932.87,-123.12 936.53,-109.87"/>
<polygon fill="green" stroke="green" stroke-width="0.24" points="939.8,-111.16 939.08,-100.59 933.05,-109.3 939.8,-111.16"/>
</g>
<!-- &#45;3 -->
<g id="node3" class="node">
<title>&#45;3</title>
<polygon fill="lightgray" stroke="black" points="1003.5,-232.57 980,-232.57 980,-214.07 1003.5,-214.07 1003.5,-232.57"/>
<text text-anchor="middle" x="991.75" y="-220.02" font-family="Times,serif" font-size="9.00">&#45;3</text>
</g>
<!-- &#45;4 -->
<g id="node4" class="node">
<title>&#45;4</title>
<polygon fill="lightgray" stroke="black" points="257.5,-166.46 234,-166.46 234,-147.96 257.5,-147.96 257.5,-166.46"/>
<text text-anchor="middle" x="245.75" y="-153.91" font-family="Times,serif" font-size="9.00">&#45;4</text>
</g>
<!-- 89 -->
<g id="node30" class="node">
<title>89</title>
<ellipse fill="white" stroke="black" cx="386.75" cy="-82.67" rx="17.68" ry="17.68"/>
<text text-anchor="middle" x="386.75" y="-79.37" font-family="Times,serif" font-size="9.00">89</text>
</g>
<!-- &#45;4&#45;&gt;89 -->
<g id="edge1" class="edge">
<title>&#45;4&#45;&gt;89</title>
<path fill="none" stroke="red" stroke-width="0.73" d="M253.37,-147.77C257.13,-143.94 261.9,-139.56 266.75,-136.35 296.32,-116.74 334.38,-101.47 359.63,-92.54"/>
<polygon fill="red" stroke="red" stroke-width="0.73" points="360.56,-95.92 368.88,-89.35 358.28,-89.3 360.56,-95.92"/>
</g>
<!-- 90 -->
<g id="node31" class="node">
<title>90</title>
<ellipse fill="white" stroke="black" cx="223.75" cy="-82.67" rx="17.68" ry="17.68"/>
<text text-anchor="middle" x="223.75" y="-79.37" font-family="Times,serif" font-size="9.00">90</text>
</g>
<!-- &#45;4&#45;&gt;90 -->
<g id="edge23" class="edge">
<title>&#45;4&#45;&gt;90</title>
<path fill="none" stroke="green" stroke-width="0.24" stroke-dasharray="1,5" d="M243.14,-147.6C240.31,-138.27 235.66,-122.93 231.62,-109.61"/>
<polygon fill="green" stroke="green" stroke-width="0.24" points="235.05,-108.85 228.79,-100.3 228.35,-110.88 235.05,-108.85"/>
</g>
<!-- &#45;5 -->
<g id="node5" class="node">
<title>&#45;5</title>
<polygon fill="lightgray" stroke="black" points="299.5,-166.46 276,-166.46 276,-147.96 299.5,-147.96 299.5,-166.46"/>
<text text-anchor="middle" x="287.75" y="-153.91" font-family="Times,serif" font-size="9.00">&#45;5</text>
</g>
<!-- 0 -->
<g id="node21" class="node">
<title>0</title>
<ellipse fill="lightblue" stroke="black" cx="666.75" cy="-14.5" rx="14.5" ry="14.5"/>
<text text-anchor="middle" x="666.75" y="-11.2" font-family="Times,serif" font-size="9.00">0</text>
</g>
<!-- &#45;5&#45;&gt;0 -->
<g id="edge42" class="edge">
<title>&#45;5&#45;&gt;0</title>
<path fill="none" stroke="red" stroke-width="0.22" d="M291.72,-147.68C300.83,-129.17 325.13,-85.33 359.75,-64.99 384.11,-50.68 573.85,-26.69 642.26,-18.41"/>
<polygon fill="red" stroke="red" stroke-width="0.22" points="642.32,-21.93 651.83,-17.26 641.48,-14.98 642.32,-21.93"/>
</g>
<!-- &#45;5&#45;&gt;89 -->
<g id="edge24" class="edge">
<title>&#45;5&#45;&gt;89</title>
<path fill="none" stroke="red" stroke-width="0.61" d="M296.05,-147.76C299.8,-144.1 304.36,-139.86 308.75,-136.35 326.07,-122.47 346.96,-108.49 362.77,-98.42"/>
<polygon fill="red" stroke="red" stroke-width="0.61" points="364.49,-101.47 371.09,-93.18 360.77,-95.54 364.49,-101.47"/>
</g>
<!-- &#45;5&#45;&gt;90 -->
<g id="edge31" class="edge">
<title>&#45;5&#45;&gt;90</title>
<path fill="none" stroke="green" stroke-width="0.11" stroke-dasharray="1,5" d="M280.16,-147.6C270.77,-136.96 254.48,-118.5 241.82,-104.15"/>
<polygon fill="green" stroke="green" stroke-width="0.11" points="244.57,-101.97 235.33,-96.79 239.32,-106.6 244.57,-101.97"/>
</g>
<!-- &#45;6 -->
<g id="node6" class="node">
<title>&#45;6</title>
<polygon fill="lightgray" stroke="black" points="559.5,-166.46 536,-166.46 536,-147.96 559.5,-147.96 559.5,-166.46"/>
<text text-anchor="middle" x="547.75" y="-153.91" font-family="Times,serif" font-size="9.00">&#45;6</text>
</g>
<!-- &#45;6&#45;&gt;89 -->
<g id="edge26" class="edge">
<title>&#45;6&#45;&gt;89</title>
<path fill="none" stroke="green" stroke-width="0.31" d="M540.21,-147.65C536.46,-143.8 531.69,-139.43 526.75,-136.35 490.66,-113.79 443.41,-98.52 414.07,-90.46"/>
<polygon fill="green" stroke="green" stroke-width="0.31" points="415.15,-87.13 404.58,-87.94 413.35,-93.89 415.15,-87.13"/>
</g>
<!-- 91 -->
<g id="node32" class="node">
<title>91</title>
<ellipse fill="white" stroke="black" cx="666.75" cy="-82.67" rx="17.68" ry="17.68"/>
<text text-anchor="middle" x="666.75" y="-79.37" font-family="Times,serif" font-size="9.00">91</text>
</g>
<!-- &#45;6&#45;&gt;91 -->
<g id="edge51" class="edge">
<title>&#45;6&#45;&gt;91</title>
<path fill="none" stroke="green" stroke-width="0.33" d="M558.39,-147.56C563,-143.94 568.54,-139.79 573.75,-136.35 596.16,-121.54 622.97,-106.63 642.03,-96.48"/>
<polygon fill="green" stroke="green" stroke-width="0.33" points="643.57,-99.62 650.78,-91.86 640.31,-93.43 643.57,-99.62"/>
</g>
<!-- &#45;7 -->
<g id="node7" class="node">
<title>&#45;7</title>
<polygon fill="lightgray" stroke="black" points="341.5,-166.46 318,-166.46 318,-147.96 341.5,-147.96 341.5,-166.46"/>
<text text-anchor="middle" x="329.75" y="-153.91" font-family="Times,serif" font-size="9.00">&#45;7</text>
</g>
<!-- &#45;7&#45;&gt;89 -->
<g id="edge5" class="edge">
<title>&#45;7&#45;&gt;89</title>
<path fill="none" stroke="red" stroke-width="0.44" d="M336.51,-147.6C344.62,-137.28 358.51,-119.61 369.63,-105.46"/>
<polygon fill="red" stroke="red" stroke-width="0.44" points="372.28,-107.75 375.71,-97.72 366.77,-103.42 372.28,-107.75"/>
</g>
<!-- &#45;8 -->
<g id="node8" class="node">
<title>&#45;8</title>
<polygon fill="lightgray" stroke="black" points="1113.5,-166.46 1090,-166.46 1090,-147.96 1113.5,-147.96 1113.5,-166.46"/>
<text text-anchor="middle" x="1101.75" y="-153.91" font-family="Times,serif" font-size="9.00">&#45;8</text>
</g>
<!-- 2 -->
<g id="node23" class="node">
<title>2</title>
<ellipse fill="lightblue" stroke="black" cx="1003.75" cy="-14.5" rx="14.5" ry="14.5"/>
<text text-anchor="middle" x="1003.75" y="-11.2" font-family="Times,serif" font-size="9.00">2</text>
</g>
<!-- &#45;8&#45;&gt;2 -->
<g id="edge38" class="edge">
<title>&#45;8&#45;&gt;2</title>
<path fill="none" stroke="red" stroke-width="0.32" d="M1095.91,-147.83C1080.69,-125.96 1039.43,-66.73 1017.65,-35.46"/>
<polygon fill="red" stroke="red" stroke-width="0.32" points="1020.68,-33.68 1012.09,-27.47 1014.93,-37.68 1020.68,-33.68"/>
</g>
<!-- &#45;8&#45;&gt;92 -->
<g id="edge18" class="edge">
<title>&#45;8&#45;&gt;92</title>
<path fill="none" stroke="green" stroke-width="0.31" stroke-dasharray="1,5" d="M1092.07,-147.8C1087.36,-143.98 1081.48,-139.6 1075.75,-136.35 1041.11,-116.7 997.69,-100.89 970.32,-91.89"/>
<polygon fill="green" stroke="green" stroke-width="0.31" points="971.7,-88.65 961.11,-88.92 969.56,-95.32 971.7,-88.65"/>
</g>
<!-- &#45;9 -->
<g id="node9" class="node">
<title>&#45;9</title>
<polygon fill="lightgray" stroke="black" points="131.5,-166.46 108,-166.46 108,-147.96 131.5,-147.96 131.5,-166.46"/>
<text text-anchor="middle" x="119.75" y="-153.91" font-family="Times,serif" font-size="9.00">&#45;9</text>
</g>
<!-- &#45;9&#45;&gt;90 -->
<g id="edge21" class="edge">
<title>&#45;9&#45;&gt;90</title>
<path fill="none" stroke="red" stroke-width="0.51" d="M130.78,-147.56C135.36,-144.02 140.77,-139.93 145.75,-136.35 163.77,-123.4 184.62,-109.36 200.23,-99.04"/>
<polygon fill="red" stroke="red" stroke-width="0.51" points="202.12,-101.98 208.55,-93.56 198.27,-96.13 202.12,-101.98"/>
</g>
<!-- &#45;10 -->
<g id="node10" class="node">
<title>&#45;10</title>
<polygon fill="lightgray" stroke="black" points="809.75,-166.46 781.75,-166.46 781.75,-147.96 809.75,-147.96 809.75,-166.46"/>
<text text-anchor="middle" x="795.75" y="-153.91" font-family="Times,serif" font-size="9.00">&#45;10</text>
</g>
<!-- &#45;10&#45;&gt;91 -->
<g id="edge32" class="edge">
<title>&#45;10&#45;&gt;91</title>
<path fill="none" stroke="red" stroke-width="0.21" stroke-dasharray="1,5" d="M786.78,-147.53C782.69,-143.83 777.67,-139.62 772.75,-136.35 746.78,-119.08 714.35,-103.77 692.25,-94.17"/>
<polygon fill="red" stroke="red" stroke-width="0.21" points="693.74,-91 683.17,-90.3 691,-97.44 693.74,-91"/>
</g>
<!-- &#45;11 -->
<g id="node11" class="node">
<title>&#45;11</title>
<polygon fill="lightgray" stroke="black" points="650.75,-232.57 622.75,-232.57 622.75,-214.07 650.75,-214.07 650.75,-232.57"/>
<text text-anchor="middle" x="636.75" y="-220.02" font-family="Times,serif" font-size="9.00">&#45;11</text>
</g>
<!-- 359 -->
<g id="node26" class="node">
<title>359</title>
<ellipse fill="white" stroke="black" cx="636.75" cy="-157.21" rx="20.86" ry="20.86"/>
<text text-anchor="middle" x="636.75" y="-153.91" font-family="Times,serif" font-size="9.00">359</text>
</g>
<!-- &#45;11&#45;&gt;359 -->
<g id="edge40" class="edge">
<title>&#45;11&#45;&gt;359</title>
<path fill="none" stroke="red" stroke-width="0.13" stroke-dasharray="1,5" d="M636.75,-213.67C636.75,-207.16 636.75,-197.83 636.75,-188.67"/>
<polygon fill="red" stroke="red" stroke-width="0.13" points="640.25,-188.75 636.75,-178.75 633.25,-188.75 640.25,-188.75"/>
</g>
<!-- 501 -->
<g id="node29" class="node">
<title>501</title>
<ellipse fill="white" stroke="black" cx="696.75" cy="-157.21" rx="20.86" ry="20.86"/>
<text text-anchor="middle" x="696.75" y="-153.91" font-family="Times,serif" font-size="9.00">501</text>
</g>
<!-- &#45;11&#45;&gt;501 -->
<g id="edge45" class="edge">
<title>&#45;11&#45;&gt;501</title>
<path fill="none" stroke="green" stroke-width="0.39" d="M644.84,-213.67C652.74,-205.23 665.1,-192.02 675.78,-180.62"/>
<polygon fill="green" stroke="green" stroke-width="0.39" points="678.15,-183.21 682.42,-173.51 673.03,-178.42 678.15,-183.21"/>
</g>
<!-- &#45;11&#45;&gt;90 -->
<g id="edge35" class="edge">
<title>&#45;11&#45;&gt;90</title>
<path fill="none" stroke="green" stroke-width="0.52" stroke-dasharray="1,5" d="M622.61,-222.05C548.74,-220.54 209.36,-211.78 178.75,-178.07 158.6,-155.88 183.15,-123.05 203.13,-102.53"/>
<polygon fill="green" stroke="green" stroke-width="0.52" points="205.49,-105.12 210.17,-95.62 200.59,-100.13 205.49,-105.12"/>
</g>
<!-- &#45;11&#45;&gt;91 -->
<g id="edge29" class="edge">
<title>&#45;11&#45;&gt;91</title>
<path fill="none" stroke="red" stroke-width="0.22" stroke-dasharray="1,5" d="M628.54,-213.67C621.21,-205.31 611,-191.91 606.75,-178.07 601.31,-160.34 599.1,-153.24 606.75,-136.35 614.21,-119.88 629.64,-106.51 642.99,-97.37"/>
<polygon fill="red" stroke="red" stroke-width="0.22" points="644.56,-100.52 651.07,-92.16 640.77,-94.63 644.56,-100.52"/>
</g>
<!-- &#45;11&#45;&gt;92 -->
<g id="edge8" class="edge">
<title>&#45;11&#45;&gt;92</title>
<path fill="none" stroke="red" stroke-width="0.42" d="M651,-222.6C706.34,-223.38 905.83,-222.97 944.75,-178.07 960.75,-159.61 957.78,-130.65 952.51,-109.67"/>
<polygon fill="red" stroke="red" stroke-width="0.42" points="955.9,-108.8 949.8,-100.14 949.16,-110.71 955.9,-108.8"/>
</g>
<!-- &#45;12 -->
<g id="node12" class="node">
<title>&#45;12</title>
<polygon fill="lightgray" stroke="black" points="69.75,-232.57 41.75,-232.57 41.75,-214.07 69.75,-214.07 69.75,-232.57"/>
<text text-anchor="middle" x="55.75" y="-220.02" font-family="Times,serif" font-size="9.00">&#45;12</text>
</g>
<!-- 551 -->
<g id="node27" class="node">
<title>551</title>
<ellipse fill="white" stroke="black" cx="30.75" cy="-157.21" rx="20.86" ry="20.86"/>
<text text-anchor="middle" x="30.75" y="-153.91" font-family="Times,serif" font-size="9.00">551</text>
</g>
<!-- &#45;12&#45;&gt;551 -->
<g id="edge47" class="edge">
<title>&#45;12&#45;&gt;551</title>
<path fill="none" stroke="green" stroke-width="0.41" d="M52.38,-213.67C49.69,-206.77 45.76,-196.69 41.98,-187.01"/>
<polygon fill="green" stroke="green" stroke-width="0.41" points="45.28,-185.84 38.39,-177.8 38.76,-188.38 45.28,-185.84"/>
</g>
<!-- &#45;12&#45;&gt;90 -->
<g id="edge19" class="edge">
<title>&#45;12&#45;&gt;90</title>
<path fill="none" stroke="red" stroke-width="0.27" stroke-dasharray="1,5" d="M57.87,-213.79C62.48,-196.83 75,-158.6 98.75,-136.35 126.48,-110.36 168.93,-96.2 196.51,-89.29"/>
<polygon fill="red" stroke="red" stroke-width="0.27" points="196.96,-92.78 205.89,-87.08 195.36,-85.96 196.96,-92.78"/>
</g>
<!-- &#45;13 -->
<g id="node13" class="node">
<title>&#45;13</title>
<polygon fill="lightgray" stroke="black" points="471.75,-166.46 443.75,-166.46 443.75,-147.96 471.75,-147.96 471.75,-166.46"/>
<text text-anchor="middle" x="457.75" y="-153.91" font-family="Times,serif" font-size="9.00">&#45;13</text>
</g>
<!-- &#45;13&#45;&gt;89 -->
<g id="edge6" class="edge">
<title>&#45;13&#45;&gt;89</title>
<path fill="none" stroke="red" stroke-width="0.37" d="M449.33,-147.6C438.73,-136.77 420.2,-117.84 406.04,-103.38"/>
<polygon fill="red" stroke="red" stroke-width="0.37" points="408.6,-100.99 399.1,-96.29 403.6,-105.89 408.6,-100.99"/>
</g>
<!-- &#45;13&#45;&gt;91 -->
<g id="edge25" class="edge">
<title>&#45;13&#45;&gt;91</title>
<path fill="none" stroke="red" stroke-width="0.24" d="M466.03,-147.49C470.13,-143.6 475.36,-139.25 480.75,-136.35 532.79,-108.31 601.26,-93.92 638.92,-87.67"/>
<polygon fill="red" stroke="red" stroke-width="0.24" points="639.45,-91.13 648.77,-86.1 638.35,-84.21 639.45,-91.13"/>
</g>
<!-- &#45;14 -->
<g id="node14" class="node">
<title>&#45;14</title>
<polygon fill="lightgray" stroke="black" points="855.75,-166.46 827.75,-166.46 827.75,-147.96 855.75,-147.96 855.75,-166.46"/>
<text text-anchor="middle" x="841.75" y="-153.91" font-family="Times,serif" font-size="9.00">&#45;14</text>
</g>
<!-- &#45;14&#45;&gt;91 -->
<g id="edge44" class="edge">
<title>&#45;14&#45;&gt;91</title>
<path fill="none" stroke="green" stroke-width="0.42" stroke-dasharray="1,5" d="M833.39,-147.63C829.27,-143.77 824.05,-139.4 818.75,-136.35 778.28,-113.01 725.8,-97.68 694.28,-89.86"/>
<polygon fill="green" stroke="green" stroke-width="0.42" points="695.23,-86.49 684.69,-87.55 693.59,-93.29 695.23,-86.49"/>
</g>
<!-- &#45;15 -->
<g id="node15" class="node">
<title>&#45;15</title>
<polygon fill="lightgray" stroke="black" points="215.75,-166.46 187.75,-166.46 187.75,-147.96 215.75,-147.96 215.75,-166.46"/>
<text text-anchor="middle" x="201.75" y="-153.91" font-family="Times,serif" font-size="9.00">&#45;15</text>
</g>
<!-- &#45;15&#45;&gt;90 -->
<g id="edge20" class="edge">
<title>&#45;15&#45;&gt;90</title>
<path fill="none" stroke="red" stroke-width="0.3" d="M204.36,-147.6C207.19,-138.27 211.84,-122.93 215.88,-109.61"/>
<polygon fill="red" stroke="red" stroke-width="0.3" points="219.12,-110.98 218.68,-100.4 212.43,-108.95 219.12,-110.98"/>
</g>
<!-- &#45;16 -->
<g id="node16" class="node">
<title>&#45;16</title>
<polygon fill="lightgray" stroke="black" points="517.75,-166.46 489.75,-166.46 489.75,-147.96 517.75,-147.96 517.75,-166.46"/>
<text text-anchor="middle" x="503.75" y="-153.91" font-family="Times,serif" font-size="9.00">&#45;16</text>
</g>
<!-- 3 -->
<g id="node24" class="node">
<title>3</title>
<ellipse fill="lightblue" stroke="black" cx="503.75" cy="-14.5" rx="14.5" ry="14.5"/>
<text text-anchor="middle" x="503.75" y="-11.2" font-family="Times,serif" font-size="9.00">3</text>
</g>
<!-- &#45;16&#45;&gt;3 -->
<g id="edge39" class="edge">
<title>&#45;16&#45;&gt;3</title>
<path fill="none" stroke="green" stroke-width="0.16" d="M503.75,-147.83C503.75,-126.78 503.75,-71.08 503.75,-39.06"/>
<polygon fill="green" stroke="green" stroke-width="0.16" points="507.25,-39.43 503.75,-29.43 500.25,-39.43 507.25,-39.43"/>
</g>
<!-- &#45;16&#45;&gt;89 -->
<g id="edge30" class="edge">
<title>&#45;16&#45;&gt;89</title>
<path fill="none" stroke="red" stroke-width="0.11" d="M494.7,-147.64C490.59,-143.96 485.59,-139.74 480.75,-136.35 458.37,-120.66 430.92,-105.72 411.48,-95.78"/>
<polygon fill="red" stroke="red" stroke-width="0.11" points="413.28,-92.78 402.78,-91.4 410.13,-99.03 413.28,-92.78"/>
</g>
<!-- &#45;16&#45;&gt;91 -->
<g id="edge10" class="edge">
<title>&#45;16&#45;&gt;91</title>
<path fill="none" stroke="green" stroke-width="0.26" stroke-dasharray="1,5" d="M512.14,-147.69C516.27,-143.84 521.49,-139.47 526.75,-136.35 563.34,-114.61 610.45,-99.12 639.62,-90.78"/>
<polygon fill="green" stroke="green" stroke-width="0.26" points="640.43,-94.19 649.13,-88.14 638.55,-87.44 640.43,-94.19"/>
</g>
<!-- &#45;17 -->
<g id="node17" class="node">
<title>&#45;17</title>
<polygon fill="lightgray" stroke="black" points="763.75,-166.46 735.75,-166.46 735.75,-147.96 763.75,-147.96 763.75,-166.46"/>
<text text-anchor="middle" x="749.75" y="-153.91" font-family="Times,serif" font-size="9.00">&#45;17</text>
</g>
<!-- &#45;17&#45;&gt;90 -->
<g id="edge15" class="edge">
<title>&#45;17&#45;&gt;90</title>
<path fill="none" stroke="red" stroke-width="0.58" stroke-dasharray="1,5" d="M742.1,-147.46C737.99,-143.36 732.57,-138.84 726.75,-136.35 576.12,-71.77 522.66,-118.32 359.75,-100.35 322.51,-96.24 279.61,-90.87 252.12,-87.35"/>
<polygon fill="red" stroke="red" stroke-width="0.58" points="252.57,-83.88 242.2,-86.08 251.67,-90.82 252.57,-83.88"/>
</g>
<!-- &#45;17&#45;&gt;91 -->
<g id="edge34" class="edge">
<title>&#45;17&#45;&gt;91</title>
<path fill="none" stroke="green" stroke-width="0.11" d="M739.9,-147.6C726.94,-136.28 703.85,-116.09 687.07,-101.42"/>
<polygon fill="green" stroke="green" stroke-width="0.11" points="689.82,-99.18 679.99,-95.24 685.21,-104.45 689.82,-99.18"/>
</g>
<!-- &#45;17&#45;&gt;92 -->
<g id="edge11" class="edge">
<title>&#45;17&#45;&gt;92</title>
<path fill="none" stroke="red" stroke-width="0.26" d="M758.06,-147.54C762.17,-143.67 767.4,-139.31 772.75,-136.35 819.67,-110.37 881.08,-95.48 916.09,-88.53"/>
<polygon fill="red" stroke="red" stroke-width="0.26" points="916.52,-92.01 925.68,-86.69 915.2,-85.13 916.52,-92.01"/>
</g>
<!-- &#45;18 -->
<g id="node18" class="node">
<title>&#45;18</title>
<polygon fill="lightgray" stroke="black" points="961.75,-232.57 933.75,-232.57 933.75,-214.07 961.75,-214.07 961.75,-232.57"/>
<text text-anchor="middle" x="947.75" y="-220.02" font-family="Times,serif" font-size="9.00">&#45;18</text>
</g>
<!-- 619 -->
<g id="node28" class="node">
<title>619</title>
<ellipse fill="white" stroke="black" cx="1012.75" cy="-157.21" rx="20.86" ry="20.86"/>
<text text-anchor="middle" x="1012.75" y="-153.91" font-family="Times,serif" font-size="9.00">619</text>
</g>
<!-- &#45;18&#45;&gt;619 -->
<g id="edge49" class="edge">
<title>&#45;18&#45;&gt;619</title>
<path fill="none" stroke="green" stroke-width="0.25" d="M956.52,-213.67C965.27,-205.03 979.08,-191.42 990.82,-179.83"/>
<polygon fill="green" stroke="green" stroke-width="0.25" points="993.24,-182.37 997.9,-172.85 988.32,-177.38 993.24,-182.37"/>
</g>
<!-- &#45;18&#45;&gt;89 -->
<g id="edge22" class="edge">
<title>&#45;18&#45;&gt;89</title>
<path fill="none" stroke="green" stroke-width="0.13" d="M933.35,-221.72C847.67,-218.09 408.04,-198.51 388.75,-178.07 371.83,-160.14 374.1,-130.7 378.85,-109.46"/>
<polygon fill="green" stroke="green" stroke-width="0.13" points="382.19,-110.52 381.26,-99.96 375.41,-108.79 382.19,-110.52"/>
</g>
<!-- &#45;18&#45;&gt;91 -->
<g id="edge16" class="edge">
<title>&#45;18&#45;&gt;91</title>
<path fill="none" stroke="green" stroke-width="0.45" stroke-dasharray="1,5" d="M938.64,-213.64C929.45,-204.82 914.91,-190.7 902.75,-178.07 885.36,-160 886.18,-149.37 864.75,-136.35 810.43,-103.34 735.47,-90.74 695.15,-86.15"/>
<polygon fill="green" stroke="green" stroke-width="0.45" points="695.73,-82.69 685.42,-85.13 695,-89.65 695.73,-82.69"/>
</g>
<!-- &#45;18&#45;&gt;92 -->
<g id="edge27" class="edge">
<title>&#45;18&#45;&gt;92</title>
<path fill="none" stroke="green" stroke-width="0.25" stroke-dasharray="1,5" d="M962.11,-216.62C987.5,-206.42 1038.08,-185.39 1042.75,-178.07 1052.72,-162.43 1052.3,-152.24 1042.75,-136.35 1027.29,-110.61 994.54,-96.77 970.94,-89.83"/>
<polygon fill="green" stroke="green" stroke-width="0.25" points="972.07,-86.51 961.5,-87.28 970.25,-93.27 972.07,-86.51"/>
</g>
<!-- &#45;19 -->
<g id="node19" class="node">
<title>&#45;19</title>
<polygon fill="lightgray" stroke="black" points="425.75,-166.46 397.75,-166.46 397.75,-147.96 425.75,-147.96 425.75,-166.46"/>
<text text-anchor="middle" x="411.75" y="-153.91" font-family="Times,serif" font-size="9.00">&#45;19</text>
</g>
<!-- &#45;19&#45;&gt;90 -->
<g id="edge33" class="edge">
<title>&#45;19&#45;&gt;90</title>
<path fill="none" stroke="red" stroke-width="0.26" stroke-dasharray="1,5" d="M397.31,-150.63C365.67,-138.43 289.86,-109.18 249.72,-93.69"/>
<polygon fill="red" stroke="red" stroke-width="0.26" points="251.05,-90.45 240.46,-90.12 248.53,-96.98 251.05,-90.45"/>
</g>
<!-- &#45;19&#45;&gt;92 -->
<g id="edge9" class="edge">
<title>&#45;19&#45;&gt;92</title>
<path fill="none" stroke="red" stroke-width="0.43" d="M419.41,-147.47C423.52,-143.38 428.94,-138.86 434.75,-136.35 479.02,-117.23 814.37,-92.64 915.17,-85.62"/>
<polygon fill="red" stroke="red" stroke-width="0.43" points="915.37,-89.12 925.11,-84.93 914.89,-82.13 915.37,-89.12"/>
</g>
<!-- &#45;20 -->
<g id="node20" class="node">
<title>&#45;20</title>
<polygon fill="lightgray" stroke="black" points="1049.75,-232.57 1021.75,-232.57 1021.75,-214.07 1049.75,-214.07 1049.75,-232.57"/>
<text text-anchor="middle" x="1035.75" y="-220.02" font-family="Times,serif" font-size="9.00">&#45;20</text>
</g>
<!-- 0&#45;&gt;0 -->
<g id="edge3" class="edge">
<title>0&#45;&gt;0</title>
<path fill="none" stroke="red" stroke-width="0.16" d="M677.4,-24.65C687.81,-30.26 699.25,-26.88 699.25,-14.5 699.25,-5.98 693.84,-1.72 687.08,-1.71"/>
<polygon fill="red" stroke="red" stroke-width="0.16" points="686.37,1.72 677.63,-4.28 688.2,-5.04 686.37,1.72"/>
</g>
<!-- 1 -->
<g id="node22" class="node">
<title>1</title>
<ellipse fill="lightblue" stroke="black" cx="223.75" cy="-14.5" rx="14.5" ry="14.5"/>
<text text-anchor="middle" x="223.75" y="-11.2" font-family="Times,serif" font-size="9.00">1</text>
</g>
<!-- 4&#45;&gt;4 -->
<g id="edge28" class="edge">
<title>4&#45;&gt;4</title>
<path fill="none" stroke="red" stroke-width="0.18" stroke-dasharray="1,5" d="M431.4,-24.65C441.81,-30.26 453.25,-26.88 453.25,-14.5 453.25,-5.98 447.84,-1.72 441.08,-1.71"/>
<polygon fill="red" stroke="red" stroke-width="0.18" points="440.39,1.73 431.66,-4.27 442.22,-5.03 440.39,1.73"/>
</g>
<!-- 359&#45;&gt;91 -->
<g id="edge41" class="edge">
<title>359&#45;&gt;91</title>
<path fill="none" stroke="green" stroke-width="0.12" d="M644.48,-137.53C648.08,-128.8 652.43,-118.29 656.33,-108.87"/>
<polygon fill="green" stroke="green" stroke-width="0.12" points="659.51,-110.33 660.1,-99.75 653.04,-107.65 659.51,-110.33"/>
</g>
<!-- 551&#45;&gt;90 -->
<g id="edge48" class="edge">
<title>551&#45;&gt;90</title>
<path fill="none" stroke="red" stroke-width="0.2" stroke-dasharray="1,5" d="M48.21,-145.42C53.71,-142.26 59.88,-138.96 65.75,-136.35 110.37,-116.48 164.89,-99.9 196.82,-90.91"/>
<polygon fill="red" stroke="red" stroke-width="0.2" points="197.74,-94.29 206.44,-88.25 195.87,-87.55 197.74,-94.29"/>
</g>
<!-- 619&#45;&gt;92 -->
<g id="edge50" class="edge">
<title>619&#45;&gt;92</title>
<path fill="none" stroke="red" stroke-width="0.14" d="M998.79,-141.53C988.32,-130.52 973.89,-115.35 962.43,-103.31"/>
<polygon fill="red" stroke="red" stroke-width="0.14" points="964.97,-100.9 955.54,-96.07 959.9,-105.73 964.97,-100.9"/>
</g>
<!-- 501&#45;&gt;91 -->
<g id="edge46" class="edge">
<title>501&#45;&gt;91</title>
<path fill="none" stroke="red" stroke-width="0.4" d="M689.02,-137.53C685.45,-128.89 681.16,-118.51 677.3,-109.17"/>
<polygon fill="red" stroke="red" stroke-width="0.4" points="680.62,-108.05 673.56,-100.14 674.15,-110.72 680.62,-108.05"/>
</g>
<!-- 89&#45;&gt;4 -->
<g id="edge4" class="edge">
<title>89&#45;&gt;4</title>
<path fill="none" stroke="red" stroke-width="0.35" stroke-dasharray="1,5" d="M394.64,-66.32C399.12,-57.59 404.81,-46.53 409.73,-36.95"/>
<polygon fill="red" stroke="red" stroke-width="0.35" points="412.79,-38.64 414.25,-28.14 406.57,-35.44 412.79,-38.64"/>
</g>
<!-- 90&#45;&gt;1 -->
<g id="edge14" class="edge">
<title>90&#45;&gt;1</title>
<path fill="none" stroke="red" stroke-width="0.15" stroke-dasharray="1,5" d="M223.75,-64.63C223.75,-56.87 223.75,-47.57 223.75,-39.15"/>
<polygon fill="red" stroke="red" stroke-width="0.15" points="227.25,-39.37 223.75,-29.37 220.25,-39.37 227.25,-39.37"/>
</g>
<!-- 90&#45;&gt;3 -->
<g id="edge17" class="edge">
<title>90&#45;&gt;3</title>
<path fill="none" stroke="red" stroke-width="0.41" stroke-dasharray="1,5" d="M241.21,-78.38C280.74,-70.82 380.05,-51.11 461.75,-28.99 467.76,-27.37 474.18,-25.41 480.15,-23.5"/>
<polygon fill="red" stroke="red" stroke-width="0.41" points="481.23,-26.83 489.64,-20.39 479.05,-20.18 481.23,-26.83"/>
</g>
<!-- 91&#45;&gt;0 -->
<g id="edge36" class="edge">
<title>91&#45;&gt;0</title>
<path fill="none" stroke="green" stroke-width="0.25" stroke-dasharray="1,5" d="M666.75,-64.63C666.75,-56.96 666.75,-47.77 666.75,-39.43"/>
<polygon fill="green" stroke="green" stroke-width="0.25" points="670.25,-39.52 666.75,-29.52 663.25,-39.52 670.25,-39.52"/>
</g>
<!-- 92&#45;&gt;0 -->
<g id="edge12" class="edge">
<title>92&#45;&gt;0</title>
<path fill="none" stroke="green" stroke-width="0.4" d="M926.42,-77.53C878.89,-66.17 746.31,-34.5 691.23,-21.34"/>
<polygon fill="green" stroke="green" stroke-width="0.4" points="692.13,-17.96 681.59,-19.04 690.51,-24.77 692.13,-17.96"/>
</g>
<!-- 92&#45;&gt;2 -->
<g id="edge37" class="edge">
<title>92&#45;&gt;2</title>
<path fill="none" stroke="red" stroke-width="0.16" stroke-dasharray="1,5" d="M955.32,-68.91C964.42,-58.88 977.21,-44.77 987.36,-33.57"/>
<polygon fill="red" stroke="red" stroke-width="0.16" points="989.91,-35.97 994.03,-26.21 984.72,-31.27 989.91,-35.97"/>
</g>
<!-- 92&#45;&gt;3 -->
<g id="edge7" class="edge">
<title>92&#45;&gt;3</title>
<path fill="none" stroke="green" stroke-width="0.26" d="M926.24,-78.6C906.47,-75.15 873.33,-69.47 844.75,-64.99 726.46,-46.45 584.69,-26.64 528.46,-18.89"/>
<polygon fill="green" stroke="green" stroke-width="0.26" points="529.16,-15.45 518.78,-17.55 528.2,-22.38 529.16,-15.45"/>
</g>
<!-- 92&#45;&gt;92 -->
<g id="edge13" class="edge">
<title>92&#45;&gt;92</title>
<path fill="none" stroke="red" stroke-width="0.24" stroke-dasharray="1,5" d="M957.67,-93.8C968.44,-97.96 979.43,-94.25 979.43,-82.67 979.43,-74.7 974.23,-70.46 967.49,-69.94"/>
<polygon fill="red" stroke="red" stroke-width="0.24" points="967.34,-66.42 958.03,-71.48 968.46,-73.33 967.34,-66.42"/>
</g>
</g>
</svg>
