<?xml version="1.0" encoding="UTF-8" standalone="no"?>
<!DOCTYPE svg PUBLIC "-//W3C//DTD SVG 1.1//EN"
 "http://www.w3.org/Graphics/SVG/1.1/DTD/svg11.dtd">
<!-- Generated by graphviz version 12.1.1 (20240910.0053)
 -->
<!-- Pages: 1 -->
<svg width="920pt" height="173pt"
 viewBox="0.00 0.00 920.50 173.34" xmlns="http://www.w3.org/2000/svg" xmlns:xlink="http://www.w3.org/1999/xlink">
<g id="graph0" class="graph" transform="scale(1 1) rotate(0) translate(4 169.34)">
<polygon fill="white" stroke="none" points="-4,4 -4,-169.34 916.5,-169.34 916.5,4 -4,4"/>
<!-- &#45;1 -->
<g id="node1" class="node">
<title>&#45;1</title>
<polygon fill="lightgray" stroke="black" points="375.75,-160.09 352.25,-160.09 352.25,-141.59 375.75,-141.59 375.75,-160.09"/>
<text text-anchor="middle" x="364" y="-147.54" font-family="Times,serif" font-size="9.00">&#45;1</text>
</g>
<!-- 32 -->
<g id="node26" class="node">
<title>32</title>
<ellipse fill="white" stroke="black" cx="364" cy="-82.67" rx="17.68" ry="17.68"/>
<text text-anchor="middle" x="364" y="-79.37" font-family="Times,serif" font-size="9.00">32</text>
</g>
<!-- &#45;1&#45;&gt;32 -->
<g id="edge10" class="edge">
<title>&#45;1&#45;&gt;32</title>
<path fill="none" stroke="red" stroke-width="0.27" d="M364,-141.19C364,-133.52 364,-121.89 364,-111.08"/>
<polygon fill="red" stroke="red" stroke-width="0.27" points="367.5,-111.14 364,-101.14 360.5,-111.14 367.5,-111.14"/>
</g>
<!-- 29 -->
<g id="node27" class="node">
<title>29</title>
<ellipse fill="white" stroke="black" cx="454" cy="-82.67" rx="17.68" ry="17.68"/>
<text text-anchor="middle" x="454" y="-79.37" font-family="Times,serif" font-size="9.00">29</text>
</g>
<!-- &#45;1&#45;&gt;29 -->
<g id="edge21" class="edge">
<title>&#45;1&#45;&gt;29</title>
<path fill="none" stroke="green" stroke-width="0.18" d="M375.77,-141.19C389.93,-130.77 414.03,-113.06 431.75,-100.03"/>
<polygon fill="green" stroke="green" stroke-width="0.18" points="433.66,-102.97 439.64,-94.22 429.51,-97.33 433.66,-102.97"/>
</g>
<!-- &#45;2 -->
<g id="node2" class="node">
<title>&#45;2</title>
<polygon fill="lightgray" stroke="black" points="731.75,-160.09 708.25,-160.09 708.25,-141.59 731.75,-141.59 731.75,-160.09"/>
<text text-anchor="middle" x="720" y="-147.54" font-family="Times,serif" font-size="9.00">&#45;2</text>
</g>
<!-- 30 -->
<g id="node28" class="node">
<title>30</title>
<ellipse fill="white" stroke="black" cx="535" cy="-82.67" rx="17.68" ry="17.68"/>
<text text-anchor="middle" x="535" y="-79.37" font-family="Times,serif" font-size="9.00">30</text>
</g>
<!-- &#45;2&#45;&gt;30 -->
<g id="edge14" class="edge">
<title>&#45;2&#45;&gt;30</title>
<path fill="none" stroke="green" stroke-width="0.25" d="M707.87,-141.29C705.04,-139.51 701.98,-137.75 699,-136.35 652.88,-114.58 595.42,-98.43 562.21,-90.08"/>
<polygon fill="green" stroke="green" stroke-width="0.25" points="563.23,-86.73 552.69,-87.74 561.56,-93.53 563.23,-86.73"/>
</g>
<!-- &#45;3 -->
<g id="node3" class="node">
<title>&#45;3</title>
<polygon fill="lightgray" stroke="black" points="689.75,-160.09 666.25,-160.09 666.25,-141.59 689.75,-141.59 689.75,-160.09"/>
<text text-anchor="middle" x="678" y="-147.54" font-family="Times,serif" font-size="9.00">&#45;3</text>
</g>
<!-- &#45;3&#45;&gt;30 -->
<g id="edge5" class="edge">
<title>&#45;3&#45;&gt;30</title>
<path fill="none" stroke="green" stroke-width="0.26" d="M665.77,-141.51C662.94,-139.71 659.91,-137.9 657,-136.35 624.96,-119.28 586.23,-103.3 561.13,-93.51"/>
<polygon fill="green" stroke="green" stroke-width="0.26" points="562.53,-90.3 551.94,-89.97 560.01,-96.83 562.53,-90.3"/>
</g>
<!-- &#45;4 -->
<g id="node4" class="node">
<title>&#45;4</title>
<polygon fill="lightgray" stroke="black" points="69.75,-160.09 46.25,-160.09 46.25,-141.59 69.75,-141.59 69.75,-160.09"/>
<text text-anchor="middle" x="58" y="-147.54" font-family="Times,serif" font-size="9.00">&#45;4</text>
</g>
<!-- 31 -->
<g id="node29" class="node">
<title>31</title>
<ellipse fill="white" stroke="black" cx="234" cy="-82.67" rx="17.68" ry="17.68"/>
<text text-anchor="middle" x="234" y="-79.37" font-family="Times,serif" font-size="9.00">31</text>
</g>
<!-- &#45;4&#45;&gt;31 -->
<g id="edge4" class="edge">
<title>&#45;4&#45;&gt;31</title>
<path fill="none" stroke="green" stroke-width="0.39" d="M70.15,-141.33C72.98,-139.55 76.03,-137.78 79,-136.35 122.01,-115.6 175.33,-99.4 206.9,-90.71"/>
<polygon fill="green" stroke="green" stroke-width="0.39" points="207.41,-94.2 216.15,-88.21 205.58,-87.44 207.41,-94.2"/>
</g>
<!-- &#45;5 -->
<g id="node5" class="node">
<title>&#45;5</title>
<polygon fill="lightgray" stroke="black" points="601.75,-160.09 578.25,-160.09 578.25,-141.59 601.75,-141.59 601.75,-160.09"/>
<text text-anchor="middle" x="590" y="-147.54" font-family="Times,serif" font-size="9.00">&#45;5</text>
</g>
<!-- &#45;5&#45;&gt;29 -->
<g id="edge37" class="edge">
<title>&#45;5&#45;&gt;29</title>
<path fill="none" stroke="green" stroke-width="0.1" d="M578.18,-141.84C575.23,-139.95 572.04,-138.01 569,-136.35 539.16,-120.03 503.33,-104.18 479.69,-94.2"/>
<polygon fill="green" stroke="green" stroke-width="0.1" points="481.07,-90.98 470.5,-90.35 478.37,-97.44 481.07,-90.98"/>
</g>
<!-- &#45;5&#45;&gt;30 -->
<g id="edge38" class="edge">
<title>&#45;5&#45;&gt;30</title>
<path fill="none" stroke="green" stroke-width="0.13" d="M582.81,-141.19C575.07,-131.88 562.48,-116.74 552.17,-104.32"/>
<polygon fill="green" stroke="green" stroke-width="0.13" points="555,-102.26 545.92,-96.8 549.62,-106.73 555,-102.26"/>
</g>
<!-- &#45;6 -->
<g id="node6" class="node">
<title>&#45;6</title>
<polygon fill="lightgray" stroke="black" points="111.75,-160.09 88.25,-160.09 88.25,-141.59 111.75,-141.59 111.75,-160.09"/>
<text text-anchor="middle" x="100" y="-147.54" font-family="Times,serif" font-size="9.00">&#45;6</text>
</g>
<!-- &#45;6&#45;&gt;31 -->
<g id="edge30" class="edge">
<title>&#45;6&#45;&gt;31</title>
<path fill="none" stroke="green" stroke-width="0.2" d="M111.82,-141.85C114.77,-139.97 117.96,-138.02 121,-136.35 150.36,-120.17 185.55,-104.28 208.78,-94.26"/>
<polygon fill="green" stroke="green" stroke-width="0.2" points="209.85,-97.61 217.67,-90.46 207.1,-91.17 209.85,-97.61"/>
</g>
<!-- &#45;7 -->
<g id="node7" class="node">
<title>&#45;7</title>
<polygon fill="lightgray" stroke="black" points="333.75,-160.09 310.25,-160.09 310.25,-141.59 333.75,-141.59 333.75,-160.09"/>
<text text-anchor="middle" x="322" y="-147.54" font-family="Times,serif" font-size="9.00">&#45;7</text>
</g>
<!-- &#45;7&#45;&gt;32 -->
<g id="edge12" class="edge">
<title>&#45;7&#45;&gt;32</title>
<path fill="none" stroke="red" stroke-width="0.15" d="M327.49,-141.19C333.02,-132.48 341.79,-118.67 349.35,-106.76"/>
<polygon fill="red" stroke="red" stroke-width="0.15" points="352.29,-108.65 354.7,-98.33 346.38,-104.89 352.29,-108.65"/>
</g>
<!-- &#45;7&#45;&gt;29 -->
<g id="edge43" class="edge">
<title>&#45;7&#45;&gt;29</title>
<path fill="none" stroke="green" stroke-width="0.34" d="M333.83,-141.86C336.78,-139.98 339.97,-138.03 343,-136.35 371.46,-120.53 405.44,-104.85 428.24,-94.77"/>
<polygon fill="green" stroke="green" stroke-width="0.34" points="429.64,-97.97 437.39,-90.75 426.83,-91.56 429.64,-97.97"/>
</g>
<!-- &#45;7&#45;&gt;31 -->
<g id="edge26" class="edge">
<title>&#45;7&#45;&gt;31</title>
<path fill="none" stroke="green" stroke-width="0.37" d="M310.5,-141.19C296.77,-130.87 273.51,-113.38 256.23,-100.39"/>
<polygon fill="green" stroke="green" stroke-width="0.37" points="258.37,-97.61 248.27,-94.4 254.16,-103.21 258.37,-97.61"/>
</g>
<!-- &#45;8 -->
<g id="node8" class="node">
<title>&#45;8</title>
<polygon fill="lightgray" stroke="black" points="245.75,-160.09 222.25,-160.09 222.25,-141.59 245.75,-141.59 245.75,-160.09"/>
<text text-anchor="middle" x="234" y="-147.54" font-family="Times,serif" font-size="9.00">&#45;8</text>
</g>
<!-- &#45;8&#45;&gt;29 -->
<g id="edge1" class="edge">
<title>&#45;8&#45;&gt;29</title>
<path fill="none" stroke="green" stroke-width="0.24" d="M246.05,-141.11C248.88,-139.34 251.97,-137.63 255,-136.35 319.73,-108.95 341.69,-120.6 409,-100.35 415.39,-98.42 422.18,-96.07 428.5,-93.75"/>
<polygon fill="green" stroke="green" stroke-width="0.24" points="429.46,-97.13 437.58,-90.32 426.98,-90.58 429.46,-97.13"/>
</g>
<!-- &#45;8&#45;&gt;31 -->
<g id="edge42" class="edge">
<title>&#45;8&#45;&gt;31</title>
<path fill="none" stroke="red" stroke-width="0.21" d="M234,-141.19C234,-133.44 234,-121.64 234,-110.75"/>
<polygon fill="red" stroke="red" stroke-width="0.21" points="237.5,-111.06 234,-101.06 230.5,-111.06 237.5,-111.06"/>
</g>
<!-- &#45;9 -->
<g id="node9" class="node">
<title>&#45;9</title>
<polygon fill="lightgray" stroke="black" points="773.75,-160.09 750.25,-160.09 750.25,-141.59 773.75,-141.59 773.75,-160.09"/>
<text text-anchor="middle" x="762" y="-147.54" font-family="Times,serif" font-size="9.00">&#45;9</text>
</g>
<!-- &#45;10 -->
<g id="node10" class="node">
<title>&#45;10</title>
<polygon fill="lightgray" stroke="black" points="158,-160.09 130,-160.09 130,-141.59 158,-141.59 158,-160.09"/>
<text text-anchor="middle" x="144" y="-147.54" font-family="Times,serif" font-size="9.00">&#45;10</text>
</g>
<!-- &#45;10&#45;&gt;31 -->
<g id="edge36" class="edge">
<title>&#45;10&#45;&gt;31</title>
<path fill="none" stroke="red" stroke-width="0.26" d="M155.77,-141.19C169.93,-130.77 194.03,-113.06 211.75,-100.03"/>
<polygon fill="red" stroke="red" stroke-width="0.26" points="213.56,-103.04 219.54,-94.3 209.41,-97.4 213.56,-103.04"/>
</g>
<!-- &#45;11 -->
<g id="node11" class="node">
<title>&#45;11</title>
<polygon fill="lightgray" stroke="black" points="204,-160.09 176,-160.09 176,-141.59 204,-141.59 204,-160.09"/>
<text text-anchor="middle" x="190" y="-147.54" font-family="Times,serif" font-size="9.00">&#45;11</text>
</g>
<!-- &#45;11&#45;&gt;32 -->
<g id="edge23" class="edge">
<title>&#45;11&#45;&gt;32</title>
<path fill="none" stroke="green" stroke-width="0.33" d="M203.88,-141.12C206.83,-139.43 209.97,-137.75 213,-136.35 254.93,-116.96 306.14,-100.52 336.86,-91.39"/>
<polygon fill="green" stroke="green" stroke-width="0.33" points="337.73,-94.78 346.35,-88.61 335.77,-88.06 337.73,-94.78"/>
</g>
<!-- &#45;11&#45;&gt;31 -->
<g id="edge11" class="edge">
<title>&#45;11&#45;&gt;31</title>
<path fill="none" stroke="red" stroke-width="0.21" d="M195.75,-141.19C201.64,-132.34 211.03,-118.22 219.03,-106.18"/>
<polygon fill="red" stroke="red" stroke-width="0.21" points="221.75,-108.42 224.37,-98.15 215.92,-104.54 221.75,-108.42"/>
</g>
<!-- &#45;12 -->
<g id="node12" class="node">
<title>&#45;12</title>
<polygon fill="lightgray" stroke="black" points="468,-160.09 440,-160.09 440,-141.59 468,-141.59 468,-160.09"/>
<text text-anchor="middle" x="454" y="-147.54" font-family="Times,serif" font-size="9.00">&#45;12</text>
</g>
<!-- &#45;12&#45;&gt;29 -->
<g id="edge28" class="edge">
<title>&#45;12&#45;&gt;29</title>
<path fill="none" stroke="green" stroke-width="0.13" d="M454,-141.19C454,-133.44 454,-121.64 454,-110.75"/>
<polygon fill="green" stroke="green" stroke-width="0.13" points="457.5,-110.93 454,-100.93 450.5,-110.93 457.5,-110.93"/>
</g>
<!-- &#45;12&#45;&gt;30 -->
<g id="edge35" class="edge">
<title>&#45;12&#45;&gt;30</title>
<path fill="none" stroke="red" stroke-width="0.19" d="M464.59,-141.19C477.01,-131.05 497.89,-113.98 513.7,-101.07"/>
<polygon fill="red" stroke="red" stroke-width="0.19" points="515.68,-103.97 521.21,-94.93 511.25,-98.55 515.68,-103.97"/>
</g>
<!-- &#45;12&#45;&gt;31 -->
<g id="edge16" class="edge">
<title>&#45;12&#45;&gt;31</title>
<path fill="none" stroke="red" stroke-width="0.14" d="M440.69,-141.22C437.59,-139.44 434.25,-137.7 431,-136.35 372.93,-112.07 300.5,-96.11 261.67,-88.62"/>
<polygon fill="red" stroke="red" stroke-width="0.14" points="262.33,-85.18 251.86,-86.77 261.04,-92.06 262.33,-85.18"/>
</g>
<!-- &#45;13 -->
<g id="node13" class="node">
<title>&#45;13</title>
<polygon fill="lightgray" stroke="black" points="560,-160.09 532,-160.09 532,-141.59 560,-141.59 560,-160.09"/>
<text text-anchor="middle" x="546" y="-147.54" font-family="Times,serif" font-size="9.00">&#45;13</text>
</g>
<!-- &#45;13&#45;&gt;32 -->
<g id="edge13" class="edge">
<title>&#45;13&#45;&gt;32</title>
<path fill="none" stroke="red" stroke-width="0.26" d="M532.63,-141.36C529.53,-139.58 526.21,-137.8 523,-136.35 478.26,-116.08 423.34,-99.63 391.15,-90.78"/>
<polygon fill="red" stroke="red" stroke-width="0.26" points="392.11,-87.41 381.54,-88.18 390.28,-94.17 392.11,-87.41"/>
</g>
<!-- &#45;13&#45;&gt;29 -->
<g id="edge44" class="edge">
<title>&#45;13&#45;&gt;29</title>
<path fill="none" stroke="green" stroke-width="0.54" d="M533.97,-141.19C519.41,-130.71 494.57,-112.85 476.43,-99.81"/>
<polygon fill="green" stroke="green" stroke-width="0.54" points="478.96,-97.31 468.8,-94.31 474.87,-102.99 478.96,-97.31"/>
</g>
<!-- &#45;13&#45;&gt;30 -->
<g id="edge9" class="edge">
<title>&#45;13&#45;&gt;30</title>
<path fill="none" stroke="green" stroke-width="0.23" d="M544.56,-141.19C543.26,-133.39 541.29,-121.48 539.46,-110.52"/>
<polygon fill="green" stroke="green" stroke-width="0.23" points="542.94,-110.1 537.85,-100.81 536.04,-111.25 542.94,-110.1"/>
</g>
<!-- &#45;14 -->
<g id="node14" class="node">
<title>&#45;14</title>
<polygon fill="lightgray" stroke="black" points="648,-160.09 620,-160.09 620,-141.59 648,-141.59 648,-160.09"/>
<text text-anchor="middle" x="634" y="-147.54" font-family="Times,serif" font-size="9.00">&#45;14</text>
</g>
<!-- &#45;14&#45;&gt;29 -->
<g id="edge7" class="edge">
<title>&#45;14&#45;&gt;29</title>
<path fill="none" stroke="red" stroke-width="0.33" d="M620.63,-141.37C617.53,-139.59 614.2,-137.8 611,-136.35 587.44,-125.62 519.35,-103.92 481.02,-91.99"/>
<polygon fill="red" stroke="red" stroke-width="0.33" points="482.13,-88.67 471.55,-89.05 480.06,-95.36 482.13,-88.67"/>
</g>
<!-- &#45;14&#45;&gt;30 -->
<g id="edge19" class="edge">
<title>&#45;14&#45;&gt;30</title>
<path fill="none" stroke="green" stroke-width="0.1" d="M621.06,-141.19C605.06,-130.5 577.55,-112.11 557.94,-99"/>
<polygon fill="green" stroke="green" stroke-width="0.1" points="559.94,-96.13 549.68,-93.48 556.05,-101.95 559.94,-96.13"/>
</g>
<!-- &#45;15 -->
<g id="node15" class="node">
<title>&#45;15</title>
<polygon fill="lightgray" stroke="black" points="292,-160.09 264,-160.09 264,-141.59 292,-141.59 292,-160.09"/>
<text text-anchor="middle" x="278" y="-147.54" font-family="Times,serif" font-size="9.00">&#45;15</text>
</g>
<!-- &#45;15&#45;&gt;32 -->
<g id="edge3" class="edge">
<title>&#45;15&#45;&gt;32</title>
<path fill="none" stroke="red" stroke-width="0.17" d="M289.24,-141.19C302.7,-130.83 325.54,-113.26 342.44,-100.26"/>
<polygon fill="red" stroke="red" stroke-width="0.17" points="344.2,-103.32 349.99,-94.45 339.93,-97.78 344.2,-103.32"/>
</g>
<!-- &#45;16 -->
<g id="node16" class="node">
<title>&#45;16</title>
<polygon fill="lightgray" stroke="black" points="820,-160.09 792,-160.09 792,-141.59 820,-141.59 820,-160.09"/>
<text text-anchor="middle" x="806" y="-147.54" font-family="Times,serif" font-size="9.00">&#45;16</text>
</g>
<!-- &#45;17 -->
<g id="node17" class="node">
<title>&#45;17</title>
<polygon fill="lightgray" stroke="black" points="422,-160.09 394,-160.09 394,-141.59 422,-141.59 422,-160.09"/>
<text text-anchor="middle" x="408" y="-147.54" font-family="Times,serif" font-size="9.00">&#45;17</text>
</g>
<!-- &#45;17&#45;&gt;32 -->
<g id="edge29" class="edge">
<title>&#45;17&#45;&gt;32</title>
<path fill="none" stroke="red" stroke-width="0.35" d="M402.25,-141.19C396.42,-132.43 387.15,-118.49 379.2,-106.53"/>
<polygon fill="red" stroke="red" stroke-width="0.35" points="382.2,-104.72 373.75,-98.33 376.37,-108.59 382.2,-104.72"/>
</g>
<!-- &#45;17&#45;&gt;29 -->
<g id="edge31" class="edge">
<title>&#45;17&#45;&gt;29</title>
<path fill="none" stroke="red" stroke-width="0.15" d="M414.01,-141.19C420.17,-132.34 429.99,-118.22 438.35,-106.18"/>
<polygon fill="red" stroke="red" stroke-width="0.15" points="441.15,-108.28 443.99,-98.07 435.4,-104.29 441.15,-108.28"/>
</g>
<!-- &#45;17&#45;&gt;30 -->
<g id="edge41" class="edge">
<title>&#45;17&#45;&gt;30</title>
<path fill="none" stroke="red" stroke-width="0.53" d="M422.03,-141.42C424.97,-139.71 428.07,-137.94 431,-136.35 457.56,-121.84 488.58,-106.31 509.78,-95.9"/>
<polygon fill="red" stroke="red" stroke-width="0.53" points="511.17,-99.12 518.62,-91.58 508.1,-92.83 511.17,-99.12"/>
</g>
<!-- &#45;17&#45;&gt;31 -->
<g id="edge18" class="edge">
<title>&#45;17&#45;&gt;31</title>
<path fill="none" stroke="red" stroke-width="0.39" d="M394.12,-141.12C391.17,-139.43 388.03,-137.75 385,-136.35 343.07,-116.96 291.86,-100.52 261.14,-91.39"/>
<polygon fill="red" stroke="red" stroke-width="0.39" points="262.33,-88.09 251.75,-88.64 260.36,-94.81 262.33,-88.09"/>
</g>
<!-- &#45;18 -->
<g id="node18" class="node">
<title>&#45;18</title>
<polygon fill="lightgray" stroke="black" points="514,-160.09 486,-160.09 486,-141.59 514,-141.59 514,-160.09"/>
<text text-anchor="middle" x="500" y="-147.54" font-family="Times,serif" font-size="9.00">&#45;18</text>
</g>
<!-- &#45;18&#45;&gt;29 -->
<g id="edge33" class="edge">
<title>&#45;18&#45;&gt;29</title>
<path fill="none" stroke="green" stroke-width="0.15" d="M493.99,-141.19C487.83,-132.34 478.01,-118.22 469.65,-106.18"/>
<polygon fill="green" stroke="green" stroke-width="0.15" points="472.59,-104.28 464.01,-98.07 466.85,-108.28 472.59,-104.28"/>
</g>
<!-- &#45;19 -->
<g id="node19" class="node">
<title>&#45;19</title>
<polygon fill="lightgray" stroke="black" points="28,-160.09 0,-160.09 0,-141.59 28,-141.59 28,-160.09"/>
<text text-anchor="middle" x="14" y="-147.54" font-family="Times,serif" font-size="9.00">&#45;19</text>
</g>
<!-- &#45;19&#45;&gt;31 -->
<g id="edge32" class="edge">
<title>&#45;19&#45;&gt;31</title>
<path fill="none" stroke="red" stroke-width="0.35" d="M27.31,-141.22C30.41,-139.44 33.75,-137.7 37,-136.35 95.07,-112.07 167.5,-96.11 206.33,-88.62"/>
<polygon fill="red" stroke="red" stroke-width="0.35" points="206.66,-92.12 215.84,-86.83 205.36,-85.24 206.66,-92.12"/>
</g>
<!-- &#45;20 -->
<g id="node20" class="node">
<title>&#45;20</title>
<polygon fill="lightgray" stroke="black" points="866,-160.09 838,-160.09 838,-141.59 866,-141.59 866,-160.09"/>
<text text-anchor="middle" x="852" y="-147.54" font-family="Times,serif" font-size="9.00">&#45;20</text>
</g>
<!-- 0 -->
<g id="node21" class="node">
<title>0</title>
<ellipse fill="lightblue" stroke="black" cx="513" cy="-14.5" rx="14.5" ry="14.5"/>
<text text-anchor="middle" x="513" y="-11.2" font-family="Times,serif" font-size="9.00">0</text>
</g>
<!-- 0&#45;&gt;0 -->
<g id="edge20" class="edge">
<title>0&#45;&gt;0</title>
<path fill="none" stroke="red" stroke-width="0.32" d="M523.65,-24.65C534.06,-30.26 545.5,-26.88 545.5,-14.5 545.5,-6.18 540.33,-1.92 533.79,-1.72"/>
<polygon fill="red" stroke="red" stroke-width="0.32" points="532.93,1.67 524.13,-4.22 534.68,-5.1 532.93,1.67"/>
</g>
<!-- 1 -->
<g id="node22" class="node">
<title>1</title>
<ellipse fill="lightblue" stroke="black" cx="385" cy="-14.5" rx="14.5" ry="14.5"/>
<text text-anchor="middle" x="385" y="-11.2" font-family="Times,serif" font-size="9.00">1</text>
</g>
<!-- 2 -->
<g id="node23" class="node">
<title>2</title>
<ellipse fill="lightblue" stroke="black" cx="898" cy="-150.84" rx="14.5" ry="14.5"/>
<text text-anchor="middle" x="898" y="-147.54" font-family="Times,serif" font-size="9.00">2</text>
</g>
<!-- 3 -->
<g id="node24" class="node">
<title>3</title>
<ellipse fill="lightblue" stroke="black" cx="234" cy="-14.5" rx="14.5" ry="14.5"/>
<text text-anchor="middle" x="234" y="-11.2" font-family="Times,serif" font-size="9.00">3</text>
</g>
<!-- 4 -->
<g id="node25" class="node">
<title>4</title>
<ellipse fill="lightblue" stroke="black" cx="454" cy="-14.5" rx="14.5" ry="14.5"/>
<text text-anchor="middle" x="454" y="-11.2" font-family="Times,serif" font-size="9.00">4</text>
</g>
<!-- 32&#45;&gt;1 -->
<g id="edge8" class="edge">
<title>32&#45;&gt;1</title>
<path fill="none" stroke="green" stroke-width="0.33" d="M369.19,-65.31C371.78,-57.17 374.94,-47.19 377.76,-38.31"/>
<polygon fill="green" stroke="green" stroke-width="0.33" points="381.01,-39.63 380.7,-29.04 374.34,-37.51 381.01,-39.63"/>
</g>
<!-- 32&#45;&gt;32 -->
<g id="edge34" class="edge">
<title>32&#45;&gt;32</title>
<path fill="none" stroke="green" stroke-width="0.26" d="M377.92,-93.8C388.69,-97.96 399.68,-94.25 399.68,-82.67 399.68,-74.89 394.72,-70.66 388.19,-69.98"/>
<polygon fill="green" stroke="green" stroke-width="0.26" points="387.67,-66.52 378.31,-71.48 388.72,-73.44 387.67,-66.52"/>
</g>
<!-- 29&#45;&gt;0 -->
<g id="edge24" class="edge">
<title>29&#45;&gt;0</title>
<path fill="none" stroke="red" stroke-width="0.11" d="M465.38,-68.91C474.32,-58.88 486.9,-44.77 496.88,-33.57"/>
<polygon fill="red" stroke="red" stroke-width="0.11" points="499.45,-35.95 503.49,-26.16 494.23,-31.29 499.45,-35.95"/>
</g>
<!-- 29&#45;&gt;1 -->
<g id="edge40" class="edge">
<title>29&#45;&gt;1</title>
<path fill="none" stroke="green" stroke-width="0.18" d="M441.66,-69.84C430.73,-59.35 414.63,-43.91 402.39,-32.17"/>
<polygon fill="green" stroke="green" stroke-width="0.18" points="404.82,-29.66 395.18,-25.26 399.98,-34.71 404.82,-29.66"/>
</g>
<!-- 29&#45;&gt;4 -->
<g id="edge2" class="edge">
<title>29&#45;&gt;4</title>
<path fill="none" stroke="red" stroke-width="0.25" d="M454,-64.63C454,-56.96 454,-47.77 454,-39.43"/>
<polygon fill="red" stroke="red" stroke-width="0.25" points="457.5,-39.52 454,-29.52 450.5,-39.52 457.5,-39.52"/>
</g>
<!-- 29&#45;&gt;29 -->
<g id="edge39" class="edge">
<title>29&#45;&gt;29</title>
<path fill="none" stroke="green" stroke-width="0.1" d="M467.92,-93.8C478.69,-97.96 489.68,-94.25 489.68,-82.67 489.68,-74.7 484.48,-70.46 477.74,-69.94"/>
<polygon fill="green" stroke="green" stroke-width="0.1" points="477.38,-66.45 468.07,-71.51 478.5,-73.36 477.38,-66.45"/>
</g>
<!-- 30&#45;&gt;0 -->
<g id="edge17" class="edge">
<title>30&#45;&gt;0</title>
<path fill="none" stroke="green" stroke-width="0.17" d="M529.67,-65.65C526.94,-57.42 523.56,-47.26 520.56,-38.24"/>
<polygon fill="green" stroke="green" stroke-width="0.17" points="523.94,-37.32 517.47,-28.94 517.3,-39.53 523.94,-37.32"/>
</g>
<!-- 30&#45;&gt;1 -->
<g id="edge22" class="edge">
<title>30&#45;&gt;1</title>
<path fill="none" stroke="green" stroke-width="0.41" d="M519.27,-74.28C512.98,-71.35 505.66,-67.98 499,-64.99 467.59,-50.9 431.05,-35.15 407.97,-25.28"/>
<polygon fill="green" stroke="green" stroke-width="0.41" points="409.52,-22.13 398.95,-21.42 406.77,-28.57 409.52,-22.13"/>
</g>
<!-- 30&#45;&gt;4 -->
<g id="edge6" class="edge">
<title>30&#45;&gt;4</title>
<path fill="none" stroke="green" stroke-width="0.37" d="M521.62,-70.74C508.4,-59.94 488.04,-43.31 473.12,-31.11"/>
<polygon fill="green" stroke="green" stroke-width="0.37" points="475.44,-28.49 465.48,-24.88 471.01,-33.91 475.44,-28.49"/>
</g>
<!-- 31&#45;&gt;1 -->
<g id="edge15" class="edge">
<title>31&#45;&gt;1</title>
<path fill="none" stroke="green" stroke-width="0.25" d="M250.16,-74.59C277.23,-62.73 331.79,-38.82 362.56,-25.33"/>
<polygon fill="green" stroke="green" stroke-width="0.25" points="363.9,-28.56 371.66,-21.34 361.09,-22.15 363.9,-28.56"/>
</g>
<!-- 31&#45;&gt;3 -->
<g id="edge27" class="edge">
<title>31&#45;&gt;3</title>
<path fill="none" stroke="red" stroke-width="0.36" d="M234,-64.63C234,-56.96 234,-47.77 234,-39.43"/>
<polygon fill="red" stroke="red" stroke-width="0.36" points="237.5,-39.7 234,-29.7 230.5,-39.7 237.5,-39.7"/>
</g>
<!-- 31&#45;&gt;4 -->
<g id="edge25" class="edge">
<title>31&#45;&gt;4</title>
<path fill="none" stroke="green" stroke-width="0.56" d="M250.9,-76.59C289.58,-64.95 384.67,-36.35 429.66,-22.82"/>
<polygon fill="green" stroke="green" stroke-width="0.56" points="430.57,-26.2 439.14,-19.97 428.56,-19.49 430.57,-26.2"/>
</g>
</g>
</svg>
