<?xml version="1.0" encoding="UTF-8" standalone="no"?>
<!DOCTYPE svg PUBLIC "-//W3C//DTD SVG 1.1//EN"
 "http://www.w3.org/Graphics/SVG/1.1/DTD/svg11.dtd">
<!-- Generated by graphviz version 12.1.1 (20240910.0053)
 -->
<!-- Pages: 1 -->
<svg width="828pt" height="318pt"
 viewBox="0.00 0.00 827.75 318.29" xmlns="http://www.w3.org/2000/svg" xmlns:xlink="http://www.w3.org/1999/xlink">
<g id="graph0" class="graph" transform="scale(1 1) rotate(0) translate(4 314.29)">
<polygon fill="white" stroke="none" points="-4,4 -4,-314.29 823.75,-314.29 823.75,4 -4,4"/>
<!-- &#45;1 -->
<g id="node1" class="node">
<title>&#45;1</title>
<polygon fill="lightgray" stroke="black" points="23.5,-310.29 0,-310.29 0,-291.79 23.5,-291.79 23.5,-310.29"/>
<text text-anchor="middle" x="11.75" y="-297.74" font-family="Times,serif" font-size="9.00">&#45;1</text>
</g>
<!-- &#45;2 -->
<g id="node2" class="node">
<title>&#45;2</title>
<polygon fill="lightgray" stroke="black" points="283.5,-310.29 260,-310.29 260,-291.79 283.5,-291.79 283.5,-310.29"/>
<text text-anchor="middle" x="271.75" y="-297.74" font-family="Times,serif" font-size="9.00">&#45;2</text>
</g>
<!-- 94 -->
<g id="node29" class="node">
<title>94</title>
<ellipse fill="white" stroke="black" cx="359.75" cy="-238.11" rx="17.68" ry="17.68"/>
<text text-anchor="middle" x="359.75" y="-234.81" font-family="Times,serif" font-size="9.00">94</text>
</g>
<!-- &#45;2&#45;&gt;94 -->
<g id="edge9" class="edge">
<title>&#45;2&#45;&gt;94</title>
<path fill="none" stroke="red" stroke-width="0.21" stroke-dasharray="1,5" d="M283.99,-291.56C297.74,-282.04 320.36,-266.38 337.31,-254.64"/>
<polygon fill="red" stroke="red" stroke-width="0.21" points="339.09,-257.67 345.31,-249.1 335.1,-251.92 339.09,-257.67"/>
</g>
<!-- &#45;3 -->
<g id="node3" class="node">
<title>&#45;3</title>
<polygon fill="lightgray" stroke="black" points="413.5,-310.29 390,-310.29 390,-291.79 413.5,-291.79 413.5,-310.29"/>
<text text-anchor="middle" x="401.75" y="-297.74" font-family="Times,serif" font-size="9.00">&#45;3</text>
</g>
<!-- &#45;3&#45;&gt;94 -->
<g id="edge23" class="edge">
<title>&#45;3&#45;&gt;94</title>
<path fill="none" stroke="red" stroke-width="0.75" d="M395.73,-291.31C390.45,-283.65 382.54,-272.16 375.47,-261.92"/>
<polygon fill="red" stroke="red" stroke-width="0.75" points="378.53,-260.18 369.97,-253.94 372.77,-264.16 378.53,-260.18"/>
</g>
<!-- &#45;4 -->
<g id="node4" class="node">
<title>&#45;4</title>
<polygon fill="lightgray" stroke="black" points="371.5,-310.29 348,-310.29 348,-291.79 371.5,-291.79 371.5,-310.29"/>
<text text-anchor="middle" x="359.75" y="-297.74" font-family="Times,serif" font-size="9.00">&#45;4</text>
</g>
<!-- 93 -->
<g id="node28" class="node">
<title>93</title>
<ellipse fill="white" stroke="black" cx="215.75" cy="-238.11" rx="17.68" ry="17.68"/>
<text text-anchor="middle" x="215.75" y="-234.81" font-family="Times,serif" font-size="9.00">93</text>
</g>
<!-- &#45;4&#45;&gt;93 -->
<g id="edge15" class="edge">
<title>&#45;4&#45;&gt;93</title>
<path fill="none" stroke="red" stroke-width="0.36" stroke-dasharray="1,5" d="M347.97,-295.05C324.81,-285.25 272.91,-263.29 241.46,-249.99"/>
<polygon fill="red" stroke="red" stroke-width="0.36" points="243.11,-246.88 232.54,-246.21 240.38,-253.33 243.11,-246.88"/>
</g>
<!-- &#45;4&#45;&gt;94 -->
<g id="edge10" class="edge">
<title>&#45;4&#45;&gt;94</title>
<path fill="none" stroke="green" stroke-width="0.12" stroke-dasharray="1,5" d="M359.75,-291.31C359.75,-284.61 359.75,-275 359.75,-265.84"/>
<polygon fill="green" stroke="green" stroke-width="0.12" points="363.25,-266.05 359.75,-256.05 356.25,-266.05 363.25,-266.05"/>
</g>
<!-- 95 -->
<g id="node30" class="node">
<title>95</title>
<ellipse fill="white" stroke="black" cx="483.75" cy="-238.11" rx="17.68" ry="17.68"/>
<text text-anchor="middle" x="483.75" y="-234.81" font-family="Times,serif" font-size="9.00">95</text>
</g>
<!-- &#45;4&#45;&gt;95 -->
<g id="edge2" class="edge">
<title>&#45;4&#45;&gt;95</title>
<path fill="none" stroke="red" stroke-width="0.72" d="M371.64,-294.19C391.55,-284.41 432.04,-264.52 458.52,-251.5"/>
<polygon fill="red" stroke="red" stroke-width="0.72" points="459.84,-254.75 467.27,-247.2 456.76,-248.47 459.84,-254.75"/>
</g>
<!-- &#45;5 -->
<g id="node5" class="node">
<title>&#45;5</title>
<polygon fill="lightgray" stroke="black" points="635.5,-310.29 612,-310.29 612,-291.79 635.5,-291.79 635.5,-310.29"/>
<text text-anchor="middle" x="623.75" y="-297.74" font-family="Times,serif" font-size="9.00">&#45;5</text>
</g>
<!-- &#45;6 -->
<g id="node6" class="node">
<title>&#45;6</title>
<polygon fill="lightgray" stroke="black" points="593.5,-310.29 570,-310.29 570,-291.79 593.5,-291.79 593.5,-310.29"/>
<text text-anchor="middle" x="581.75" y="-297.74" font-family="Times,serif" font-size="9.00">&#45;6</text>
</g>
<!-- &#45;6&#45;&gt;95 -->
<g id="edge1" class="edge">
<title>&#45;6&#45;&gt;95</title>
<path fill="none" stroke="red" stroke-width="0.27" d="M569.73,-292.56C554.2,-282.91 526.82,-265.88 507.12,-253.64"/>
<polygon fill="red" stroke="red" stroke-width="0.27" points="509.11,-250.75 498.77,-248.44 505.41,-256.7 509.11,-250.75"/>
</g>
<!-- &#45;7 -->
<g id="node7" class="node">
<title>&#45;7</title>
<polygon fill="lightgray" stroke="black" points="241.5,-310.29 218,-310.29 218,-291.79 241.5,-291.79 241.5,-310.29"/>
<text text-anchor="middle" x="229.75" y="-297.74" font-family="Times,serif" font-size="9.00">&#45;7</text>
</g>
<!-- &#45;7&#45;&gt;93 -->
<g id="edge28" class="edge">
<title>&#45;7&#45;&gt;93</title>
<path fill="none" stroke="green" stroke-width="0.35" d="M227.74,-291.31C226.22,-284.68 224.04,-275.2 221.96,-266.13"/>
<polygon fill="green" stroke="green" stroke-width="0.35" points="225.37,-265.35 219.72,-256.39 218.55,-266.92 225.37,-265.35"/>
</g>
<!-- &#45;7&#45;&gt;94 -->
<g id="edge8" class="edge">
<title>&#45;7&#45;&gt;94</title>
<path fill="none" stroke="red" stroke-width="0.69" stroke-dasharray="1,5" d="M241.75,-294.41C262.59,-284.64 305.94,-264.33 333.9,-251.22"/>
<polygon fill="red" stroke="red" stroke-width="0.69" points="335.26,-254.45 342.83,-247.04 332.29,-248.11 335.26,-254.45"/>
</g>
<!-- &#45;8 -->
<g id="node8" class="node">
<title>&#45;8</title>
<polygon fill="lightgray" stroke="black" points="111.5,-310.29 88,-310.29 88,-291.79 111.5,-291.79 111.5,-310.29"/>
<text text-anchor="middle" x="99.75" y="-297.74" font-family="Times,serif" font-size="9.00">&#45;8</text>
</g>
<!-- &#45;8&#45;&gt;93 -->
<g id="edge25" class="edge">
<title>&#45;8&#45;&gt;93</title>
<path fill="none" stroke="red" stroke-width="0.18" d="M111.73,-293.74C130.43,-283.92 166.96,-264.74 191.36,-251.92"/>
<polygon fill="red" stroke="red" stroke-width="0.18" points="192.9,-255.06 200.13,-247.31 189.64,-248.87 192.9,-255.06"/>
</g>
<!-- &#45;9 -->
<g id="node9" class="node">
<title>&#45;9</title>
<polygon fill="lightgray" stroke="black" points="153.5,-310.29 130,-310.29 130,-291.79 153.5,-291.79 153.5,-310.29"/>
<text text-anchor="middle" x="141.75" y="-297.74" font-family="Times,serif" font-size="9.00">&#45;9</text>
</g>
<!-- &#45;9&#45;&gt;93 -->
<g id="edge17" class="edge">
<title>&#45;9&#45;&gt;93</title>
<path fill="none" stroke="green" stroke-width="0.51" d="M152.35,-291.31C163.27,-282.31 180.6,-268.05 194.38,-256.7"/>
<polygon fill="green" stroke="green" stroke-width="0.51" points="196.32,-259.64 201.82,-250.58 191.87,-254.23 196.32,-259.64"/>
</g>
<!-- &#45;10 -->
<g id="node10" class="node">
<title>&#45;10</title>
<polygon fill="lightgray" stroke="black" points="681.75,-310.29 653.75,-310.29 653.75,-291.79 681.75,-291.79 681.75,-310.29"/>
<text text-anchor="middle" x="667.75" y="-297.74" font-family="Times,serif" font-size="9.00">&#45;10</text>
</g>
<!-- &#45;11 -->
<g id="node11" class="node">
<title>&#45;11</title>
<polygon fill="lightgray" stroke="black" points="727.75,-310.29 699.75,-310.29 699.75,-291.79 727.75,-291.79 727.75,-310.29"/>
<text text-anchor="middle" x="713.75" y="-297.74" font-family="Times,serif" font-size="9.00">&#45;11</text>
</g>
<!-- &#45;12 -->
<g id="node12" class="node">
<title>&#45;12</title>
<polygon fill="lightgray" stroke="black" points="551.75,-310.29 523.75,-310.29 523.75,-291.79 551.75,-291.79 551.75,-310.29"/>
<text text-anchor="middle" x="537.75" y="-297.74" font-family="Times,serif" font-size="9.00">&#45;12</text>
</g>
<!-- &#45;12&#45;&gt;95 -->
<g id="edge16" class="edge">
<title>&#45;12&#45;&gt;95</title>
<path fill="none" stroke="red" stroke-width="0.36" stroke-dasharray="1,5" d="M530.01,-291.31C522.76,-283.13 511.64,-270.58 502.13,-259.84"/>
<polygon fill="red" stroke="red" stroke-width="0.36" points="504.86,-257.65 495.61,-252.49 499.62,-262.29 504.86,-257.65"/>
</g>
<!-- &#45;13 -->
<g id="node13" class="node">
<title>&#45;13</title>
<polygon fill="lightgray" stroke="black" points="459.75,-310.29 431.75,-310.29 431.75,-291.79 459.75,-291.79 459.75,-310.29"/>
<text text-anchor="middle" x="445.75" y="-297.74" font-family="Times,serif" font-size="9.00">&#45;13</text>
</g>
<!-- &#45;13&#45;&gt;94 -->
<g id="edge30" class="edge">
<title>&#45;13&#45;&gt;94</title>
<path fill="none" stroke="green" stroke-width="0.2" d="M433.43,-291.31C420.06,-281.84 398.44,-266.52 382.07,-254.92"/>
<polygon fill="green" stroke="green" stroke-width="0.2" points="384.48,-252.34 374.3,-249.41 380.44,-258.05 384.48,-252.34"/>
</g>
<!-- &#45;14 -->
<g id="node14" class="node">
<title>&#45;14</title>
<polygon fill="lightgray" stroke="black" points="329.75,-310.29 301.75,-310.29 301.75,-291.79 329.75,-291.79 329.75,-310.29"/>
<text text-anchor="middle" x="315.75" y="-297.74" font-family="Times,serif" font-size="9.00">&#45;14</text>
</g>
<!-- &#45;14&#45;&gt;93 -->
<g id="edge20" class="edge">
<title>&#45;14&#45;&gt;93</title>
<path fill="none" stroke="red" stroke-width="0.34" d="M301.42,-291.31C285.27,-281.47 258.76,-265.31 239.5,-253.58"/>
<polygon fill="red" stroke="red" stroke-width="0.34" points="241.51,-250.7 231.15,-248.49 237.87,-256.68 241.51,-250.7"/>
</g>
<!-- &#45;14&#45;&gt;95 -->
<g id="edge13" class="edge">
<title>&#45;14&#45;&gt;95</title>
<path fill="none" stroke="red" stroke-width="0.23" stroke-dasharray="1,5" d="M330.07,-294.84C358.43,-284.56 422.08,-261.47 457.93,-248.47"/>
<polygon fill="red" stroke="red" stroke-width="0.23" points="458.72,-251.91 466.92,-245.21 456.33,-245.33 458.72,-251.91"/>
</g>
<!-- &#45;15 -->
<g id="node15" class="node">
<title>&#45;15</title>
<polygon fill="lightgray" stroke="black" points="773.75,-310.29 745.75,-310.29 745.75,-291.79 773.75,-291.79 773.75,-310.29"/>
<text text-anchor="middle" x="759.75" y="-297.74" font-family="Times,serif" font-size="9.00">&#45;15</text>
</g>
<!-- &#45;16 -->
<g id="node16" class="node">
<title>&#45;16</title>
<polygon fill="lightgray" stroke="black" points="199.75,-310.29 171.75,-310.29 171.75,-291.79 199.75,-291.79 199.75,-310.29"/>
<text text-anchor="middle" x="185.75" y="-297.74" font-family="Times,serif" font-size="9.00">&#45;16</text>
</g>
<!-- &#45;16&#45;&gt;93 -->
<g id="edge27" class="edge">
<title>&#45;16&#45;&gt;93</title>
<path fill="none" stroke="green" stroke-width="0.18" d="M190.05,-291.31C193.63,-284.02 198.92,-273.29 203.77,-263.44"/>
<polygon fill="green" stroke="green" stroke-width="0.18" points="206.81,-265.18 208.09,-254.66 200.53,-262.09 206.81,-265.18"/>
</g>
<!-- &#45;17 -->
<g id="node17" class="node">
<title>&#45;17</title>
<polygon fill="lightgray" stroke="black" points="819.75,-310.29 791.75,-310.29 791.75,-291.79 819.75,-291.79 819.75,-310.29"/>
<text text-anchor="middle" x="805.75" y="-297.74" font-family="Times,serif" font-size="9.00">&#45;17</text>
</g>
<!-- &#45;18 -->
<g id="node18" class="node">
<title>&#45;18</title>
<polygon fill="lightgray" stroke="black" points="297.75,-247.36 269.75,-247.36 269.75,-228.86 297.75,-228.86 297.75,-247.36"/>
<text text-anchor="middle" x="283.75" y="-234.81" font-family="Times,serif" font-size="9.00">&#45;18</text>
</g>
<!-- 2 -->
<g id="node23" class="node">
<title>2</title>
<ellipse fill="lightblue" stroke="black" cx="257.75" cy="-163.57" rx="14.5" ry="14.5"/>
<text text-anchor="middle" x="257.75" y="-160.27" font-family="Times,serif" font-size="9.00">2</text>
</g>
<!-- &#45;18&#45;&gt;2 -->
<g id="edge36" class="edge">
<title>&#45;18&#45;&gt;2</title>
<path fill="none" stroke="red" stroke-width="0.22" d="M280.67,-228.5C277.03,-218.36 270.84,-201.1 265.81,-187.07"/>
<polygon fill="red" stroke="red" stroke-width="0.22" points="269.19,-186.11 262.52,-177.88 262.6,-188.47 269.19,-186.11"/>
</g>
<!-- &#45;19 -->
<g id="node19" class="node">
<title>&#45;19</title>
<polygon fill="lightgray" stroke="black" points="69.75,-310.29 41.75,-310.29 41.75,-291.79 69.75,-291.79 69.75,-310.29"/>
<text text-anchor="middle" x="55.75" y="-297.74" font-family="Times,serif" font-size="9.00">&#45;19</text>
</g>
<!-- &#45;19&#45;&gt;93 -->
<g id="edge4" class="edge">
<title>&#45;19&#45;&gt;93</title>
<path fill="none" stroke="green" stroke-width="0.42" d="M70.23,-294.52C97.28,-284.22 155.81,-261.93 189.82,-248.98"/>
<polygon fill="green" stroke="green" stroke-width="0.42" points="190.84,-252.34 198.94,-245.51 188.34,-245.8 190.84,-252.34"/>
</g>
<!-- &#45;20 -->
<g id="node20" class="node">
<title>&#45;20</title>
<polygon fill="lightgray" stroke="black" points="505.75,-310.29 477.75,-310.29 477.75,-291.79 505.75,-291.79 505.75,-310.29"/>
<text text-anchor="middle" x="491.75" y="-297.74" font-family="Times,serif" font-size="9.00">&#45;20</text>
</g>
<!-- &#45;20&#45;&gt;94 -->
<g id="edge18" class="edge">
<title>&#45;20&#45;&gt;94</title>
<path fill="none" stroke="red" stroke-width="0.16" d="M477.37,-293.4C455.14,-283.14 412.12,-263.28 384.73,-250.64"/>
<polygon fill="red" stroke="red" stroke-width="0.16" points="386.51,-247.61 375.97,-246.59 383.58,-253.96 386.51,-247.61"/>
</g>
<!-- 0 -->
<g id="node21" class="node">
<title>0</title>
<ellipse fill="lightblue" stroke="black" cx="359.75" cy="-163.57" rx="14.5" ry="14.5"/>
<text text-anchor="middle" x="359.75" y="-160.27" font-family="Times,serif" font-size="9.00">0</text>
</g>
<!-- 1 -->
<g id="node22" class="node">
<title>1</title>
<ellipse fill="lightblue" stroke="black" cx="406.75" cy="-163.57" rx="14.5" ry="14.5"/>
<text text-anchor="middle" x="406.75" y="-160.27" font-family="Times,serif" font-size="9.00">1</text>
</g>
<!-- 2&#45;&gt;2 -->
<g id="edge3" class="edge">
<title>2&#45;&gt;2</title>
<path fill="none" stroke="green" stroke-width="0.25" stroke-dasharray="1,5" d="M267.73,-174.27C278.31,-180.97 290.25,-177.4 290.25,-163.57 290.25,-153.85 284.35,-149.2 277.16,-149.62"/>
<polygon fill="green" stroke="green" stroke-width="0.25" points="276.41,-146.18 268.09,-152.75 278.69,-152.8 276.41,-146.18"/>
</g>
<!-- 3 -->
<g id="node24" class="node">
<title>3</title>
<ellipse fill="lightblue" stroke="black" cx="453.75" cy="-163.57" rx="14.5" ry="14.5"/>
<text text-anchor="middle" x="453.75" y="-160.27" font-family="Times,serif" font-size="9.00">3</text>
</g>
<!-- 3&#45;&gt;3 -->
<g id="edge26" class="edge">
<title>3&#45;&gt;3</title>
<path fill="none" stroke="green" stroke-width="0.3" stroke-dasharray="1,5" d="M463.73,-174.27C474.31,-180.97 486.25,-177.4 486.25,-163.57 486.25,-154.06 480.61,-149.41 473.64,-149.6"/>
<polygon fill="green" stroke="green" stroke-width="0.3" points="472.56,-146.27 464.16,-152.73 474.75,-152.92 472.56,-146.27"/>
</g>
<!-- 4 -->
<g id="node25" class="node">
<title>4</title>
<ellipse fill="lightblue" stroke="black" cx="415.75" cy="-14.5" rx="14.5" ry="14.5"/>
<text text-anchor="middle" x="415.75" y="-11.2" font-family="Times,serif" font-size="9.00">4</text>
</g>
<!-- 302 -->
<g id="node26" class="node">
<title>302</title>
<ellipse fill="white" stroke="black" cx="513.75" cy="-85.85" rx="20.86" ry="20.86"/>
<text text-anchor="middle" x="513.75" y="-82.55" font-family="Times,serif" font-size="9.00">302</text>
</g>
<!-- 302&#45;&gt;4 -->
<g id="edge33" class="edge">
<title>302&#45;&gt;4</title>
<path fill="none" stroke="green" stroke-width="0.36" d="M497.13,-73.09C480.04,-61 453.46,-42.18 435.36,-29.37"/>
<polygon fill="green" stroke="green" stroke-width="0.36" points="437.87,-26.86 427.68,-23.94 433.82,-32.57 437.87,-26.86"/>
</g>
<!-- 469 -->
<g id="node27" class="node">
<title>469</title>
<ellipse fill="white" stroke="black" cx="562.75" cy="-163.57" rx="20.86" ry="20.86"/>
<text text-anchor="middle" x="562.75" y="-160.27" font-family="Times,serif" font-size="9.00">469</text>
</g>
<!-- 469&#45;&gt;302 -->
<g id="edge35" class="edge">
<title>469&#45;&gt;302</title>
<path fill="none" stroke="red" stroke-width="0.12" d="M551.63,-145.39C545.3,-135.61 537.26,-123.18 530.21,-112.29"/>
<polygon fill="red" stroke="red" stroke-width="0.12" points="533.3,-110.62 524.93,-104.12 527.42,-114.42 533.3,-110.62"/>
</g>
<!-- 93&#45;&gt;0 -->
<g id="edge12" class="edge">
<title>93&#45;&gt;0</title>
<path fill="none" stroke="red" stroke-width="0.32" d="M231.43,-229.21C257.24,-216.21 308.7,-190.29 338,-175.53"/>
<polygon fill="red" stroke="red" stroke-width="0.32" points="339.23,-178.83 346.58,-171.2 336.08,-172.58 339.23,-178.83"/>
</g>
<!-- 93&#45;&gt;2 -->
<g id="edge31" class="edge">
<title>93&#45;&gt;2</title>
<path fill="none" stroke="red" stroke-width="0.14" d="M224.25,-222.43C230.45,-211.71 238.95,-197.05 245.83,-185.16"/>
<polygon fill="red" stroke="red" stroke-width="0.14" points="248.84,-186.95 250.82,-176.54 242.78,-183.44 248.84,-186.95"/>
</g>
<!-- 93&#45;&gt;4 -->
<g id="edge14" class="edge">
<title>93&#45;&gt;4</title>
<path fill="none" stroke="green" stroke-width="0.39" d="M215.49,-220.01C215.97,-199.93 219.31,-166.37 234.75,-142.71 274.18,-82.32 353.15,-42.07 392.44,-24.92"/>
<polygon fill="green" stroke="green" stroke-width="0.39" points="393.81,-28.14 401.64,-21.01 391.07,-21.7 393.81,-28.14"/>
</g>
<!-- 93&#45;&gt;93 -->
<g id="edge7" class="edge">
<title>93&#45;&gt;93</title>
<path fill="none" stroke="green" stroke-width="0.25" stroke-dasharray="1,5" d="M230.41,-248.64C240.94,-252.06 251.43,-248.55 251.43,-238.11 251.43,-231.09 246.69,-227.2 240.39,-226.45"/>
<polygon fill="green" stroke="green" stroke-width="0.25" points="240.32,-222.93 230.78,-227.54 241.11,-229.89 240.32,-222.93"/>
</g>
<!-- 94&#45;&gt;0 -->
<g id="edge11" class="edge">
<title>94&#45;&gt;0</title>
<path fill="none" stroke="green" stroke-width="0.75" stroke-dasharray="1,5" d="M359.75,-220.28C359.75,-211.14 359.75,-199.65 359.75,-189.49"/>
<polygon fill="green" stroke="green" stroke-width="0.75" points="363.25,-189.52 359.75,-179.52 356.25,-189.52 363.25,-189.52"/>
</g>
<!-- 94&#45;&gt;1 -->
<g id="edge24" class="edge">
<title>94&#45;&gt;1</title>
<path fill="none" stroke="red" stroke-width="0.39" d="M369.04,-222.78C376.11,-211.85 385.95,-196.68 393.8,-184.56"/>
<polygon fill="red" stroke="red" stroke-width="0.39" points="396.51,-186.8 399.02,-176.51 390.64,-183 396.51,-186.8"/>
</g>
<!-- 94&#45;&gt;2 -->
<g id="edge29" class="edge">
<title>94&#45;&gt;2</title>
<path fill="none" stroke="green" stroke-width="0.75" stroke-dasharray="1,5" d="M345.57,-227.02C328.07,-214.58 298.18,-193.33 278.2,-179.12"/>
<polygon fill="green" stroke="green" stroke-width="0.75" points="280.39,-176.37 270.21,-173.43 276.33,-182.08 280.39,-176.37"/>
</g>
<!-- 94&#45;&gt;4 -->
<g id="edge6" class="edge">
<title>94&#45;&gt;4</title>
<path fill="none" stroke="red" stroke-width="0.13" stroke-dasharray="1,5" d="M351.39,-222.44C346.03,-212.16 339.56,-197.91 336.75,-184.43 332.96,-166.28 331.66,-160.54 336.75,-142.71 349.01,-99.74 380.42,-57.12 399.74,-33.75"/>
<polygon fill="red" stroke="red" stroke-width="0.13" points="402.34,-36.1 406.12,-26.2 396.99,-31.58 402.34,-36.1"/>
</g>
<!-- 95&#45;&gt;0 -->
<g id="edge5" class="edge">
<title>95&#45;&gt;0</title>
<path fill="none" stroke="red" stroke-width="0.63" stroke-dasharray="1,5" d="M467.59,-229.86C447.32,-220.5 411.83,-203.15 383.75,-184.43 382,-183.26 380.22,-181.99 378.47,-180.67"/>
<polygon fill="red" stroke="red" stroke-width="0.63" points="380.87,-178.1 370.88,-174.56 376.48,-183.56 380.87,-178.1"/>
</g>
<!-- 95&#45;&gt;1 -->
<g id="edge19" class="edge">
<title>95&#45;&gt;1</title>
<path fill="none" stroke="green" stroke-width="0.42" d="M471.04,-225.13C458.32,-213.15 438.67,-194.64 424.44,-181.24"/>
<polygon fill="green" stroke="green" stroke-width="0.42" points="426.92,-178.76 417.24,-174.45 422.12,-183.86 426.92,-178.76"/>
</g>
<!-- 95&#45;&gt;3 -->
<g id="edge22" class="edge">
<title>95&#45;&gt;3</title>
<path fill="none" stroke="red" stroke-width="0.21" d="M477.24,-221.37C473.07,-211.29 467.6,-198.05 462.98,-186.89"/>
<polygon fill="red" stroke="red" stroke-width="0.21" points="466.22,-185.57 459.17,-177.67 459.75,-188.25 466.22,-185.57"/>
</g>
<!-- 95&#45;&gt;4 -->
<g id="edge21" class="edge">
<title>95&#45;&gt;4</title>
<path fill="none" stroke="red" stroke-width="0.12" stroke-dasharray="1,5" d="M501.13,-234.49C526.42,-229.65 572.53,-216.66 592.75,-184.43 602.6,-168.72 597.9,-160.52 592.75,-142.71 581.42,-103.48 575.28,-90.94 543.75,-64.99 512.92,-39.62 467.6,-26.25 439.97,-20.05"/>
<polygon fill="red" stroke="red" stroke-width="0.12" points="441,-16.69 430.49,-18.05 439.55,-23.54 441,-16.69"/>
</g>
<!-- 95&#45;&gt;302 -->
<g id="edge32" class="edge">
<title>95&#45;&gt;302</title>
<path fill="none" stroke="green" stroke-width="0.21" d="M487.28,-220.51C489.46,-210.15 492.31,-196.52 494.75,-184.43 499.33,-161.73 504.33,-136.03 508.05,-116.7"/>
<polygon fill="green" stroke="green" stroke-width="0.21" points="511.46,-117.47 509.91,-106.99 504.59,-116.15 511.46,-117.47"/>
</g>
<!-- 95&#45;&gt;469 -->
<g id="edge34" class="edge">
<title>95&#45;&gt;469</title>
<path fill="none" stroke="red" stroke-width="0.25" d="M496.44,-225.45C508.22,-214.64 526.01,-198.3 540.21,-185.27"/>
<polygon fill="red" stroke="red" stroke-width="0.25" points="542.38,-188.03 547.38,-178.69 537.64,-182.87 542.38,-188.03"/>
</g>
</g>
</svg>
