<?xml version="1.0" encoding="UTF-8" standalone="no"?>
<!DOCTYPE svg PUBLIC "-//W3C//DTD SVG 1.1//EN"
 "http://www.w3.org/Graphics/SVG/1.1/DTD/svg11.dtd">
<!-- Generated by graphviz version 12.1.1 (20240910.0053)
 -->
<!-- Pages: 1 -->
<svg width="874pt" height="169pt"
 viewBox="0.00 0.00 874.00 169.21" xmlns="http://www.w3.org/2000/svg" xmlns:xlink="http://www.w3.org/1999/xlink">
<g id="graph0" class="graph" transform="scale(1 1) rotate(0) translate(4 165.21)">
<polygon fill="white" stroke="none" points="-4,4 -4,-165.21 870,-165.21 870,4 -4,4"/>
<!-- &#45;1 -->
<g id="node1" class="node">
<title>&#45;1</title>
<polygon fill="lightgray" stroke="black" points="245.75,-161.21 222.25,-161.21 222.25,-142.71 245.75,-142.71 245.75,-161.21"/>
<text text-anchor="middle" x="234" y="-148.66" font-family="Times,serif" font-size="9.00">&#45;1</text>
</g>
<!-- 49 -->
<g id="node26" class="node">
<title>49</title>
<ellipse fill="white" stroke="black" cx="249" cy="-85.85" rx="17.68" ry="17.68"/>
<text text-anchor="middle" x="249" y="-82.55" font-family="Times,serif" font-size="9.00">49</text>
</g>
<!-- &#45;1&#45;&gt;49 -->
<g id="edge18" class="edge">
<title>&#45;1&#45;&gt;49</title>
<path fill="none" stroke="green" stroke-width="0.14" d="M236.02,-142.31C237.76,-134.88 240.37,-123.75 242.79,-113.41"/>
<polygon fill="green" stroke="green" stroke-width="0.14" points="246.19,-114.24 245.06,-103.71 239.37,-112.65 246.19,-114.24"/>
</g>
<!-- 51 -->
<g id="node27" class="node">
<title>51</title>
<ellipse fill="white" stroke="black" cx="412" cy="-85.85" rx="17.68" ry="17.68"/>
<text text-anchor="middle" x="412" y="-82.55" font-family="Times,serif" font-size="9.00">51</text>
</g>
<!-- &#45;1&#45;&gt;51 -->
<g id="edge20" class="edge">
<title>&#45;1&#45;&gt;51</title>
<path fill="none" stroke="green" stroke-width="0.52" d="M245.97,-146.18C248.91,-145.03 252.07,-143.81 255,-142.71 300.57,-125.66 354.02,-106.9 385.33,-96.04"/>
<polygon fill="green" stroke="green" stroke-width="0.52" points="386.38,-99.38 394.69,-92.8 384.09,-92.77 386.38,-99.38"/>
</g>
<!-- &#45;2 -->
<g id="node2" class="node">
<title>&#45;2</title>
<polygon fill="lightgray" stroke="black" points="287.75,-161.21 264.25,-161.21 264.25,-142.71 287.75,-142.71 287.75,-161.21"/>
<text text-anchor="middle" x="276" y="-148.66" font-family="Times,serif" font-size="9.00">&#45;2</text>
</g>
<!-- &#45;2&#45;&gt;49 -->
<g id="edge6" class="edge">
<title>&#45;2&#45;&gt;49</title>
<path fill="none" stroke="green" stroke-width="0.15" d="M272.36,-142.31C269.1,-134.57 264.15,-122.81 259.64,-112.12"/>
<polygon fill="green" stroke="green" stroke-width="0.15" points="262.88,-110.8 255.78,-102.94 256.43,-113.52 262.88,-110.8"/>
</g>
<!-- &#45;2&#45;&gt;51 -->
<g id="edge1" class="edge">
<title>&#45;2&#45;&gt;51</title>
<path fill="none" stroke="green" stroke-width="0.38" d="M288.07,-145.27C310.15,-134.86 357.46,-112.56 386.82,-98.72"/>
<polygon fill="green" stroke="green" stroke-width="0.38" points="387.95,-102.06 395.51,-94.63 384.97,-95.72 387.95,-102.06"/>
</g>
<!-- &#45;3 -->
<g id="node3" class="node">
<title>&#45;3</title>
<polygon fill="lightgray" stroke="black" points="777.75,-161.21 754.25,-161.21 754.25,-142.71 777.75,-142.71 777.75,-161.21"/>
<text text-anchor="middle" x="766" y="-148.66" font-family="Times,serif" font-size="9.00">&#45;3</text>
</g>
<!-- 0 -->
<g id="node21" class="node">
<title>0</title>
<ellipse fill="lightblue" stroke="black" cx="766" cy="-85.85" rx="14.5" ry="14.5"/>
<text text-anchor="middle" x="766" y="-82.55" font-family="Times,serif" font-size="9.00">0</text>
</g>
<!-- &#45;3&#45;&gt;0 -->
<g id="edge37" class="edge">
<title>&#45;3&#45;&gt;0</title>
<path fill="none" stroke="red" stroke-width="0.32" d="M766,-142.31C766,-134.32 766,-122.04 766,-111.08"/>
<polygon fill="red" stroke="red" stroke-width="0.32" points="769.5,-111.23 766,-101.23 762.5,-111.23 769.5,-111.23"/>
</g>
<!-- &#45;3&#45;&gt;51 -->
<g id="edge23" class="edge">
<title>&#45;3&#45;&gt;51</title>
<path fill="none" stroke="red" stroke-width="0.39" d="M754.15,-145.81C751.2,-144.67 748.02,-143.55 745,-142.71 634.35,-112.05 498.07,-95.61 440.17,-89.57"/>
<polygon fill="red" stroke="red" stroke-width="0.39" points="440.86,-86.13 430.56,-88.6 440.15,-93.09 440.86,-86.13"/>
</g>
<!-- 52 -->
<g id="node28" class="node">
<title>52</title>
<ellipse fill="white" stroke="black" cx="614" cy="-85.85" rx="17.68" ry="17.68"/>
<text text-anchor="middle" x="614" y="-82.55" font-family="Times,serif" font-size="9.00">52</text>
</g>
<!-- &#45;3&#45;&gt;52 -->
<g id="edge30" class="edge">
<title>&#45;3&#45;&gt;52</title>
<path fill="none" stroke="green" stroke-width="0.26" d="M753.82,-145.82C729.17,-135.43 672.94,-111.71 639.78,-97.73"/>
<polygon fill="green" stroke="green" stroke-width="0.26" points="641.24,-94.54 630.66,-93.88 638.52,-100.99 641.24,-94.54"/>
</g>
<!-- &#45;4 -->
<g id="node4" class="node">
<title>&#45;4</title>
<polygon fill="lightgray" stroke="black" points="689.75,-161.21 666.25,-161.21 666.25,-142.71 689.75,-142.71 689.75,-161.21"/>
<text text-anchor="middle" x="678" y="-148.66" font-family="Times,serif" font-size="9.00">&#45;4</text>
</g>
<!-- &#45;4&#45;&gt;52 -->
<g id="edge35" class="edge">
<title>&#45;4&#45;&gt;52</title>
<path fill="none" stroke="red" stroke-width="0.46" d="M669.37,-142.31C660.19,-133.12 645.37,-118.27 633.37,-106.25"/>
<polygon fill="red" stroke="red" stroke-width="0.46" points="636.01,-103.95 626.47,-99.34 631.06,-108.89 636.01,-103.95"/>
</g>
<!-- &#45;5 -->
<g id="node5" class="node">
<title>&#45;5</title>
<polygon fill="lightgray" stroke="black" points="203.75,-161.21 180.25,-161.21 180.25,-142.71 203.75,-142.71 203.75,-161.21"/>
<text text-anchor="middle" x="192" y="-148.66" font-family="Times,serif" font-size="9.00">&#45;5</text>
</g>
<!-- &#45;5&#45;&gt;49 -->
<g id="edge10" class="edge">
<title>&#45;5&#45;&gt;49</title>
<path fill="none" stroke="green" stroke-width="0.47" stroke-dasharray="1,5" d="M199.69,-142.31C207.59,-133.43 220.18,-119.26 230.66,-107.47"/>
<polygon fill="green" stroke="green" stroke-width="0.47" points="232.99,-110.12 237.02,-100.32 227.76,-105.47 232.99,-110.12"/>
</g>
<!-- &#45;5&#45;&gt;51 -->
<g id="edge19" class="edge">
<title>&#45;5&#45;&gt;51</title>
<path fill="none" stroke="red" stroke-width="0.44" stroke-dasharray="1,5" d="M203.91,-146C206.85,-144.85 210.02,-143.68 213,-142.71 272.85,-123.17 289.56,-124.32 350,-106.71 361.68,-103.31 374.49,-99.26 385.43,-95.7"/>
<polygon fill="red" stroke="red" stroke-width="0.44" points="386.19,-99.14 394.61,-92.69 384.01,-92.48 386.19,-99.14"/>
</g>
<!-- &#45;6 -->
<g id="node6" class="node">
<title>&#45;6</title>
<polygon fill="lightgray" stroke="black" points="513.75,-161.21 490.25,-161.21 490.25,-142.71 513.75,-142.71 513.75,-161.21"/>
<text text-anchor="middle" x="502" y="-148.66" font-family="Times,serif" font-size="9.00">&#45;6</text>
</g>
<!-- &#45;6&#45;&gt;51 -->
<g id="edge7" class="edge">
<title>&#45;6&#45;&gt;51</title>
<path fill="none" stroke="red" stroke-width="0.26" d="M489.86,-142.31C475.68,-132.21 451.92,-115.28 434.36,-102.78"/>
<polygon fill="red" stroke="red" stroke-width="0.26" points="436.81,-100.23 426.64,-97.28 432.75,-105.93 436.81,-100.23"/>
</g>
<!-- &#45;7 -->
<g id="node7" class="node">
<title>&#45;7</title>
<polygon fill="lightgray" stroke="black" points="115.75,-161.21 92.25,-161.21 92.25,-142.71 115.75,-142.71 115.75,-161.21"/>
<text text-anchor="middle" x="104" y="-148.66" font-family="Times,serif" font-size="9.00">&#45;7</text>
</g>
<!-- &#45;7&#45;&gt;49 -->
<g id="edge9" class="edge">
<title>&#45;7&#45;&gt;49</title>
<path fill="none" stroke="red" stroke-width="0.18" d="M115.87,-145.71C139.4,-135.31 192.45,-111.85 224.02,-97.9"/>
<polygon fill="red" stroke="red" stroke-width="0.18" points="225.09,-101.25 232.82,-94 222.26,-94.85 225.09,-101.25"/>
</g>
<!-- &#45;8 -->
<g id="node8" class="node">
<title>&#45;8</title>
<polygon fill="lightgray" stroke="black" points="647.75,-161.21 624.25,-161.21 624.25,-142.71 647.75,-142.71 647.75,-161.21"/>
<text text-anchor="middle" x="636" y="-148.66" font-family="Times,serif" font-size="9.00">&#45;8</text>
</g>
<!-- &#45;8&#45;&gt;51 -->
<g id="edge2" class="edge">
<title>&#45;8&#45;&gt;51</title>
<path fill="none" stroke="red" stroke-width="0.18" stroke-dasharray="1,5" d="M624.09,-146.03C621.14,-144.88 617.97,-143.7 615,-142.71 552.89,-122.03 478.34,-102.95 439.15,-93.35"/>
<polygon fill="red" stroke="red" stroke-width="0.18" points="440.11,-89.98 429.56,-91.02 438.45,-96.78 440.11,-89.98"/>
</g>
<!-- &#45;8&#45;&gt;52 -->
<g id="edge33" class="edge">
<title>&#45;8&#45;&gt;52</title>
<path fill="none" stroke="green" stroke-width="0.21" d="M633.03,-142.31C630.42,-134.7 626.48,-123.21 622.86,-112.66"/>
<polygon fill="green" stroke="green" stroke-width="0.21" points="626.2,-111.61 619.64,-103.29 619.58,-113.89 626.2,-111.61"/>
</g>
<!-- &#45;9 -->
<g id="node9" class="node">
<title>&#45;9</title>
<polygon fill="lightgray" stroke="black" points="819.75,-161.21 796.25,-161.21 796.25,-142.71 819.75,-142.71 819.75,-161.21"/>
<text text-anchor="middle" x="808" y="-148.66" font-family="Times,serif" font-size="9.00">&#45;9</text>
</g>
<!-- &#45;10 -->
<g id="node10" class="node">
<title>&#45;10</title>
<polygon fill="lightgray" stroke="black" points="560,-161.21 532,-161.21 532,-142.71 560,-142.71 560,-161.21"/>
<text text-anchor="middle" x="546" y="-148.66" font-family="Times,serif" font-size="9.00">&#45;10</text>
</g>
<!-- &#45;10&#45;&gt;51 -->
<g id="edge14" class="edge">
<title>&#45;10&#45;&gt;51</title>
<path fill="none" stroke="green" stroke-width="0.33" d="M531.66,-144.1C509.07,-133.29 464.91,-112.17 437.02,-98.82"/>
<polygon fill="green" stroke="green" stroke-width="0.33" points="438.87,-95.83 428.34,-94.67 435.85,-102.14 438.87,-95.83"/>
</g>
<!-- &#45;11 -->
<g id="node11" class="node">
<title>&#45;11</title>
<polygon fill="lightgray" stroke="black" points="866,-161.21 838,-161.21 838,-142.71 866,-142.71 866,-161.21"/>
<text text-anchor="middle" x="852" y="-148.66" font-family="Times,serif" font-size="9.00">&#45;11</text>
</g>
<!-- &#45;12 -->
<g id="node12" class="node">
<title>&#45;12</title>
<polygon fill="lightgray" stroke="black" points="426,-161.21 398,-161.21 398,-142.71 426,-142.71 426,-161.21"/>
<text text-anchor="middle" x="412" y="-148.66" font-family="Times,serif" font-size="9.00">&#45;12</text>
</g>
<!-- &#45;12&#45;&gt;49 -->
<g id="edge11" class="edge">
<title>&#45;12&#45;&gt;49</title>
<path fill="none" stroke="red" stroke-width="0.2" d="M397.79,-145.85C366.73,-134.68 295.19,-108.9 290,-106.71 284.63,-104.44 278.95,-101.83 273.58,-99.27"/>
<polygon fill="red" stroke="red" stroke-width="0.2" points="275.19,-96.16 264.67,-94.91 272.12,-102.45 275.19,-96.16"/>
</g>
<!-- &#45;12&#45;&gt;51 -->
<g id="edge8" class="edge">
<title>&#45;12&#45;&gt;51</title>
<path fill="none" stroke="green" stroke-width="0.53" stroke-dasharray="1,5" d="M412,-142.31C412,-135.21 412,-124.74 412,-114.8"/>
<polygon fill="green" stroke="green" stroke-width="0.53" points="415.5,-114.83 412,-104.83 408.5,-114.83 415.5,-114.83"/>
</g>
<!-- &#45;12&#45;&gt;52 -->
<g id="edge12" class="edge">
<title>&#45;12&#45;&gt;52</title>
<path fill="none" stroke="red" stroke-width="0.45" d="M426.08,-145.81C429.02,-144.76 432.1,-143.68 435,-142.71 488.57,-124.75 551.77,-105.47 586.93,-94.91"/>
<polygon fill="red" stroke="red" stroke-width="0.45" points="587.66,-98.35 596.24,-92.13 585.65,-91.64 587.66,-98.35"/>
</g>
<!-- &#45;13 -->
<g id="node13" class="node">
<title>&#45;13</title>
<polygon fill="lightgray" stroke="black" points="380,-161.21 352,-161.21 352,-142.71 380,-142.71 380,-161.21"/>
<text text-anchor="middle" x="366" y="-148.66" font-family="Times,serif" font-size="9.00">&#45;13</text>
</g>
<!-- &#45;13&#45;&gt;51 -->
<g id="edge24" class="edge">
<title>&#45;13&#45;&gt;51</title>
<path fill="none" stroke="green" stroke-width="0.43" stroke-dasharray="1,5" d="M372.2,-142.31C378.24,-133.9 387.67,-120.75 395.84,-109.37"/>
<polygon fill="green" stroke="green" stroke-width="0.43" points="398.66,-111.45 401.65,-101.28 392.97,-107.36 398.66,-111.45"/>
</g>
<!-- &#45;14 -->
<g id="node14" class="node">
<title>&#45;14</title>
<polygon fill="lightgray" stroke="black" points="606,-161.21 578,-161.21 578,-142.71 606,-142.71 606,-161.21"/>
<text text-anchor="middle" x="592" y="-148.66" font-family="Times,serif" font-size="9.00">&#45;14</text>
</g>
<!-- &#45;14&#45;&gt;51 -->
<g id="edge34" class="edge">
<title>&#45;14&#45;&gt;51</title>
<path fill="none" stroke="green" stroke-width="0.55" d="M577.89,-145.89C574.95,-144.84 571.88,-143.74 569,-142.71 523.18,-126.34 469.81,-107.37 438.58,-96.28"/>
<polygon fill="green" stroke="green" stroke-width="0.55" points="439.89,-93.04 429.29,-92.99 437.55,-99.63 439.89,-93.04"/>
</g>
<!-- &#45;14&#45;&gt;52 -->
<g id="edge13" class="edge">
<title>&#45;14&#45;&gt;52</title>
<path fill="none" stroke="green" stroke-width="0.23" d="M594.97,-142.31C597.58,-134.7 601.52,-123.21 605.14,-112.66"/>
<polygon fill="green" stroke="green" stroke-width="0.23" points="608.42,-113.91 608.35,-103.31 601.8,-111.63 608.42,-113.91"/>
</g>
<!-- &#45;15 -->
<g id="node15" class="node">
<title>&#45;15</title>
<polygon fill="lightgray" stroke="black" points="472,-161.21 444,-161.21 444,-142.71 472,-142.71 472,-161.21"/>
<text text-anchor="middle" x="458" y="-148.66" font-family="Times,serif" font-size="9.00">&#45;15</text>
</g>
<!-- &#45;15&#45;&gt;51 -->
<g id="edge28" class="edge">
<title>&#45;15&#45;&gt;51</title>
<path fill="none" stroke="green" stroke-width="0.27" d="M451.8,-142.31C445.7,-133.82 436.14,-120.49 427.92,-109.04"/>
<polygon fill="green" stroke="green" stroke-width="0.27" points="430.88,-107.16 422.21,-101.08 425.19,-111.24 430.88,-107.16"/>
</g>
<!-- &#45;16 -->
<g id="node16" class="node">
<title>&#45;16</title>
<polygon fill="lightgray" stroke="black" points="736,-161.21 708,-161.21 708,-142.71 736,-142.71 736,-161.21"/>
<text text-anchor="middle" x="722" y="-148.66" font-family="Times,serif" font-size="9.00">&#45;16</text>
</g>
<!-- &#45;16&#45;&gt;52 -->
<g id="edge17" class="edge">
<title>&#45;16&#45;&gt;52</title>
<path fill="none" stroke="green" stroke-width="0.37" d="M707.88,-142.58C690.15,-132.05 659.46,-113.83 638.01,-101.1"/>
<polygon fill="green" stroke="green" stroke-width="0.37" points="640.04,-98.24 629.65,-96.14 636.46,-104.26 640.04,-98.24"/>
</g>
<!-- &#45;17 -->
<g id="node17" class="node">
<title>&#45;17</title>
<polygon fill="lightgray" stroke="black" points="162,-161.21 134,-161.21 134,-142.71 162,-142.71 162,-161.21"/>
<text text-anchor="middle" x="148" y="-148.66" font-family="Times,serif" font-size="9.00">&#45;17</text>
</g>
<!-- &#45;17&#45;&gt;49 -->
<g id="edge4" class="edge">
<title>&#45;17&#45;&gt;49</title>
<path fill="none" stroke="red" stroke-width="0.21" d="M161.62,-142.31C178.06,-131.88 205.95,-114.17 225.8,-101.58"/>
<polygon fill="red" stroke="red" stroke-width="0.21" points="227.45,-104.68 234.01,-96.36 223.7,-98.77 227.45,-104.68"/>
</g>
<!-- &#45;18 -->
<g id="node18" class="node">
<title>&#45;18</title>
<polygon fill="lightgray" stroke="black" points="28,-161.21 0,-161.21 0,-142.71 28,-142.71 28,-161.21"/>
<text text-anchor="middle" x="14" y="-148.66" font-family="Times,serif" font-size="9.00">&#45;18</text>
</g>
<!-- &#45;18&#45;&gt;49 -->
<g id="edge22" class="edge">
<title>&#45;18&#45;&gt;49</title>
<path fill="none" stroke="red" stroke-width="0.27" d="M28.04,-145.7C30.99,-144.67 34.08,-143.62 37,-142.71 102.57,-122.35 180.99,-102.95 221.6,-93.27"/>
<polygon fill="red" stroke="red" stroke-width="0.27" points="222.22,-96.71 231.14,-91 220.61,-89.9 222.22,-96.71"/>
</g>
<!-- &#45;19 -->
<g id="node19" class="node">
<title>&#45;19</title>
<polygon fill="lightgray" stroke="black" points="334,-161.21 306,-161.21 306,-142.71 334,-142.71 334,-161.21"/>
<text text-anchor="middle" x="320" y="-148.66" font-family="Times,serif" font-size="9.00">&#45;19</text>
</g>
<!-- &#45;19&#45;&gt;49 -->
<g id="edge26" class="edge">
<title>&#45;19&#45;&gt;49</title>
<path fill="none" stroke="green" stroke-width="0.26" d="M310.42,-142.31C299.92,-132.83 282.76,-117.33 269.24,-105.12"/>
<polygon fill="green" stroke="green" stroke-width="0.26" points="271.84,-102.76 262.07,-98.66 267.15,-107.96 271.84,-102.76"/>
</g>
<!-- &#45;19&#45;&gt;52 -->
<g id="edge15" class="edge">
<title>&#45;19&#45;&gt;52</title>
<path fill="none" stroke="green" stroke-width="0.25" stroke-dasharray="1,5" d="M334.01,-145.58C336.95,-144.55 340.06,-143.54 343,-142.71 430.5,-118.13 536.68,-99.37 586.14,-91.26"/>
<polygon fill="green" stroke="green" stroke-width="0.25" points="586.67,-94.72 595.98,-89.66 585.55,-87.81 586.67,-94.72"/>
</g>
<!-- 255 -->
<g id="node29" class="node">
<title>255</title>
<ellipse fill="white" stroke="black" cx="320" cy="-85.85" rx="20.86" ry="20.86"/>
<text text-anchor="middle" x="320" y="-82.55" font-family="Times,serif" font-size="9.00">255</text>
</g>
<!-- &#45;19&#45;&gt;255 -->
<g id="edge36" class="edge">
<title>&#45;19&#45;&gt;255</title>
<path fill="none" stroke="green" stroke-width="0.12" stroke-dasharray="1,5" d="M320,-142.31C320,-135.81 320,-126.47 320,-117.31"/>
<polygon fill="green" stroke="green" stroke-width="0.12" points="323.5,-117.38 320,-107.38 316.5,-117.38 323.5,-117.38"/>
</g>
<!-- &#45;20 -->
<g id="node20" class="node">
<title>&#45;20</title>
<polygon fill="lightgray" stroke="black" points="74,-161.21 46,-161.21 46,-142.71 74,-142.71 74,-161.21"/>
<text text-anchor="middle" x="60" y="-148.66" font-family="Times,serif" font-size="9.00">&#45;20</text>
</g>
<!-- &#45;20&#45;&gt;49 -->
<g id="edge32" class="edge">
<title>&#45;20&#45;&gt;49</title>
<path fill="none" stroke="green" stroke-width="0.28" d="M74.09,-145.86C77.03,-144.8 80.11,-143.71 83,-142.71 132.24,-125.6 189.98,-106.35 222.75,-95.51"/>
<polygon fill="green" stroke="green" stroke-width="0.28" points="223.67,-98.89 232.06,-92.43 221.47,-92.24 223.67,-98.89"/>
</g>
<!-- 1 -->
<g id="node22" class="node">
<title>1</title>
<ellipse fill="lightblue" stroke="black" cx="499" cy="-14.5" rx="14.5" ry="14.5"/>
<text text-anchor="middle" x="499" y="-11.2" font-family="Times,serif" font-size="9.00">1</text>
</g>
<!-- 2 -->
<g id="node23" class="node">
<title>2</title>
<ellipse fill="lightblue" stroke="black" cx="361" cy="-14.5" rx="14.5" ry="14.5"/>
<text text-anchor="middle" x="361" y="-11.2" font-family="Times,serif" font-size="9.00">2</text>
</g>
<!-- 3 -->
<g id="node24" class="node">
<title>3</title>
<ellipse fill="lightblue" stroke="black" cx="289" cy="-14.5" rx="14.5" ry="14.5"/>
<text text-anchor="middle" x="289" y="-11.2" font-family="Times,serif" font-size="9.00">3</text>
</g>
<!-- 4 -->
<g id="node25" class="node">
<title>4</title>
<ellipse fill="lightblue" stroke="black" cx="614" cy="-14.5" rx="14.5" ry="14.5"/>
<text text-anchor="middle" x="614" y="-11.2" font-family="Times,serif" font-size="9.00">4</text>
</g>
<!-- 49&#45;&gt;1 -->
<g id="edge27" class="edge">
<title>49&#45;&gt;1</title>
<path fill="none" stroke="red" stroke-width="0.18" d="M264.23,-76.49C271.81,-72.58 281.21,-68.12 290,-64.99 354.87,-41.91 434.89,-26.38 474.46,-19.51"/>
<polygon fill="red" stroke="red" stroke-width="0.18" points="474.96,-22.97 484.23,-17.85 473.79,-16.07 474.96,-22.97"/>
</g>
<!-- 49&#45;&gt;2 -->
<g id="edge3" class="edge">
<title>49&#45;&gt;2</title>
<path fill="none" stroke="green" stroke-width="0.69" d="M263.64,-75.78C282.98,-63.81 317.17,-42.64 339.46,-28.84"/>
<polygon fill="green" stroke="green" stroke-width="0.69" points="341.22,-31.86 347.88,-23.62 337.53,-25.91 341.22,-31.86"/>
</g>
<!-- 49&#45;&gt;3 -->
<g id="edge29" class="edge">
<title>49&#45;&gt;3</title>
<path fill="none" stroke="red" stroke-width="0.24" d="M257.48,-70.14C263.16,-60.3 270.71,-47.2 277,-36.3"/>
<polygon fill="red" stroke="red" stroke-width="0.24" points="279.98,-38.15 281.94,-27.74 273.91,-34.65 279.98,-38.15"/>
</g>
<!-- 51&#45;&gt;2 -->
<g id="edge5" class="edge">
<title>51&#45;&gt;2</title>
<path fill="none" stroke="green" stroke-width="0.15" d="M401.92,-71.15C394.34,-60.83 383.83,-46.54 375.36,-35.03"/>
<polygon fill="green" stroke="green" stroke-width="0.15" points="378.24,-33.04 369.5,-27.05 372.6,-37.18 378.24,-33.04"/>
</g>
<!-- 51&#45;&gt;3 -->
<g id="edge31" class="edge">
<title>51&#45;&gt;3</title>
<path fill="none" stroke="green" stroke-width="0.17" d="M396.67,-76.21C374.86,-63.91 334.78,-41.31 310.15,-27.42"/>
<polygon fill="green" stroke="green" stroke-width="0.17" points="312.19,-24.56 301.76,-22.69 308.76,-30.65 312.19,-24.56"/>
</g>
<!-- 52&#45;&gt;1 -->
<g id="edge16" class="edge">
<title>52&#45;&gt;1</title>
<path fill="none" stroke="green" stroke-width="0.42" d="M598.97,-75.78C578.83,-63.64 542.99,-42.03 520.14,-28.25"/>
<polygon fill="green" stroke="green" stroke-width="0.42" points="522.14,-25.36 511.77,-23.2 518.52,-31.36 522.14,-25.36"/>
</g>
<!-- 52&#45;&gt;4 -->
<g id="edge21" class="edge">
<title>52&#45;&gt;4</title>
<path fill="none" stroke="red" stroke-width="0.32" stroke-dasharray="1,5" d="M614,-67.71C614,-59.17 614,-48.72 614,-39.41"/>
<polygon fill="red" stroke="red" stroke-width="0.32" points="617.5,-39.68 614,-29.68 610.5,-39.68 617.5,-39.68"/>
</g>
<!-- 52&#45;&gt;52 -->
<g id="edge25" class="edge">
<title>52&#45;&gt;52</title>
<path fill="none" stroke="red" stroke-width="0.47" d="M628.29,-96.78C638.94,-100.6 649.68,-96.96 649.68,-85.85 649.68,-78.56 645.05,-74.49 638.86,-73.63"/>
<polygon fill="red" stroke="red" stroke-width="0.47" points="638.49,-70.15 628.99,-74.83 639.34,-77.1 638.49,-70.15"/>
</g>
</g>
</svg>
