<?xml version="1.0" encoding="UTF-8" standalone="no"?>
<!DOCTYPE svg PUBLIC "-//W3C//DTD SVG 1.1//EN"
 "http://www.w3.org/Graphics/SVG/1.1/DTD/svg11.dtd">
<!-- Generated by graphviz version 12.1.1 (20240910.0053)
 -->
<!-- Pages: 1 -->
<svg width="843pt" height="251pt"
 viewBox="0.00 0.00 843.25 251.06" xmlns="http://www.w3.org/2000/svg" xmlns:xlink="http://www.w3.org/1999/xlink">
<g id="graph0" class="graph" transform="scale(1 1) rotate(0) translate(4 247.06)">
<polygon fill="white" stroke="none" points="-4,4 -4,-247.06 839.25,-247.06 839.25,4 -4,4"/>
<!-- &#45;1 -->
<g id="node1" class="node">
<title>&#45;1</title>
<polygon fill="lightgray" stroke="black" points="566.5,-237.81 543,-237.81 543,-219.31 566.5,-219.31 566.5,-237.81"/>
<text text-anchor="middle" x="554.75" y="-225.26" font-family="Times,serif" font-size="9.00">&#45;1</text>
</g>
<!-- 288 -->
<g id="node26" class="node">
<title>288</title>
<ellipse fill="white" stroke="black" cx="268.75" cy="-157.21" rx="20.86" ry="20.86"/>
<text text-anchor="middle" x="268.75" y="-153.91" font-family="Times,serif" font-size="9.00">288</text>
</g>
<!-- &#45;1&#45;&gt;288 -->
<g id="edge39" class="edge">
<title>&#45;1&#45;&gt;288</title>
<path fill="none" stroke="green" stroke-width="0.19" stroke-dasharray="1,5" d="M542.87,-225.13C509.97,-218.34 414.89,-198.33 336.75,-178.07 324.14,-174.8 310.31,-170.83 298.44,-167.3"/>
<polygon fill="green" stroke="green" stroke-width="0.19" points="299.46,-163.96 288.88,-164.43 297.45,-170.66 299.46,-163.96"/>
</g>
<!-- 52 -->
<g id="node29" class="node">
<title>52</title>
<ellipse fill="white" stroke="black" cx="558.75" cy="-82.67" rx="17.68" ry="17.68"/>
<text text-anchor="middle" x="558.75" y="-79.37" font-family="Times,serif" font-size="9.00">52</text>
</g>
<!-- &#45;1&#45;&gt;52 -->
<g id="edge1" class="edge">
<title>&#45;1&#45;&gt;52</title>
<path fill="none" stroke="red" stroke-width="0.3" d="M566.8,-218.83C569.63,-217.06 572.72,-215.35 575.75,-214.07 640.9,-186.54 686.76,-233.44 730.75,-178.07 742.28,-163.55 741.78,-151.25 730.75,-136.35 697.48,-91.36 626.54,-83.54 586.95,-82.9"/>
<polygon fill="red" stroke="red" stroke-width="0.3" points="587.13,-79.4 577.13,-82.88 587.12,-86.4 587.13,-79.4"/>
</g>
<!-- &#45;2 -->
<g id="node2" class="node">
<title>&#45;2</title>
<polygon fill="lightgray" stroke="black" points="461.5,-166.46 438,-166.46 438,-147.96 461.5,-147.96 461.5,-166.46"/>
<text text-anchor="middle" x="449.75" y="-153.91" font-family="Times,serif" font-size="9.00">&#45;2</text>
</g>
<!-- 51 -->
<g id="node28" class="node">
<title>51</title>
<ellipse fill="white" stroke="black" cx="316.75" cy="-82.67" rx="17.68" ry="17.68"/>
<text text-anchor="middle" x="316.75" y="-79.37" font-family="Times,serif" font-size="9.00">51</text>
</g>
<!-- &#45;2&#45;&gt;51 -->
<g id="edge27" class="edge">
<title>&#45;2&#45;&gt;51</title>
<path fill="none" stroke="red" stroke-width="0.48" d="M442.09,-147.83C438.32,-144.01 433.56,-139.63 428.75,-136.35 401.5,-117.76 366.67,-102.53 343.14,-93.3"/>
<polygon fill="red" stroke="red" stroke-width="0.48" points="344.45,-90.06 333.86,-89.76 341.95,-96.6 344.45,-90.06"/>
</g>
<!-- &#45;3 -->
<g id="node3" class="node">
<title>&#45;3</title>
<polygon fill="lightgray" stroke="black" points="549.5,-166.46 526,-166.46 526,-147.96 549.5,-147.96 549.5,-166.46"/>
<text text-anchor="middle" x="537.75" y="-153.91" font-family="Times,serif" font-size="9.00">&#45;3</text>
</g>
<!-- &#45;3&#45;&gt;51 -->
<g id="edge3" class="edge">
<title>&#45;3&#45;&gt;51</title>
<path fill="none" stroke="red" stroke-width="0.22" stroke-dasharray="1,5" d="M530.72,-147.82C526.96,-143.82 522.01,-139.27 516.75,-136.35 460.55,-105.1 385.11,-91.79 344.85,-86.61"/>
<polygon fill="red" stroke="red" stroke-width="0.22" points="345.38,-83.15 335.03,-85.43 344.54,-90.1 345.38,-83.15"/>
</g>
<!-- &#45;3&#45;&gt;52 -->
<g id="edge20" class="edge">
<title>&#45;3&#45;&gt;52</title>
<path fill="none" stroke="green" stroke-width="0.23" stroke-dasharray="1,5" d="M540.24,-147.6C542.94,-138.27 547.38,-122.93 551.24,-109.61"/>
<polygon fill="green" stroke="green" stroke-width="0.23" points="554.52,-110.87 553.94,-100.29 547.8,-108.92 554.52,-110.87"/>
</g>
<!-- &#45;4 -->
<g id="node4" class="node">
<title>&#45;4</title>
<polygon fill="lightgray" stroke="black" points="608.5,-237.81 585,-237.81 585,-219.31 608.5,-219.31 608.5,-237.81"/>
<text text-anchor="middle" x="596.75" y="-225.26" font-family="Times,serif" font-size="9.00">&#45;4</text>
</g>
<!-- &#45;5 -->
<g id="node5" class="node">
<title>&#45;5</title>
<polygon fill="lightgray" stroke="black" points="591.5,-166.46 568,-166.46 568,-147.96 591.5,-147.96 591.5,-166.46"/>
<text text-anchor="middle" x="579.75" y="-153.91" font-family="Times,serif" font-size="9.00">&#45;5</text>
</g>
<!-- &#45;5&#45;&gt;51 -->
<g id="edge23" class="edge">
<title>&#45;5&#45;&gt;51</title>
<path fill="none" stroke="red" stroke-width="0.63" stroke-dasharray="1,5" d="M572.78,-147.73C569.02,-143.7 564.07,-139.16 558.75,-136.35 488.12,-99.05 392.57,-88.14 345.46,-84.97"/>
<polygon fill="red" stroke="red" stroke-width="0.63" points="345.71,-81.47 335.51,-84.37 345.29,-88.46 345.71,-81.47"/>
</g>
<!-- &#45;5&#45;&gt;52 -->
<g id="edge30" class="edge">
<title>&#45;5&#45;&gt;52</title>
<path fill="none" stroke="red" stroke-width="0.16" d="M577.26,-147.6C574.56,-138.27 570.12,-122.93 566.26,-109.61"/>
<polygon fill="red" stroke="red" stroke-width="0.16" points="569.67,-108.81 563.53,-100.18 562.95,-110.76 569.67,-108.81"/>
</g>
<!-- &#45;6 -->
<g id="node6" class="node">
<title>&#45;6</title>
<polygon fill="lightgray" stroke="black" points="107.5,-166.46 84,-166.46 84,-147.96 107.5,-147.96 107.5,-166.46"/>
<text text-anchor="middle" x="95.75" y="-153.91" font-family="Times,serif" font-size="9.00">&#45;6</text>
</g>
<!-- 49 -->
<g id="node27" class="node">
<title>49</title>
<ellipse fill="white" stroke="black" cx="219.75" cy="-82.67" rx="17.68" ry="17.68"/>
<text text-anchor="middle" x="219.75" y="-79.37" font-family="Times,serif" font-size="9.00">49</text>
</g>
<!-- &#45;6&#45;&gt;49 -->
<g id="edge2" class="edge">
<title>&#45;6&#45;&gt;49</title>
<path fill="none" stroke="green" stroke-width="0.45" d="M103.85,-147.5C107.57,-143.8 112.16,-139.59 116.75,-136.35 141.28,-119.02 172.29,-103.96 193.85,-94.43"/>
<polygon fill="green" stroke="green" stroke-width="0.45" points="195.18,-97.67 202.97,-90.49 192.4,-91.24 195.18,-97.67"/>
</g>
<!-- &#45;6&#45;&gt;51 -->
<g id="edge35" class="edge">
<title>&#45;6&#45;&gt;51</title>
<path fill="none" stroke="red" stroke-width="0.14" d="M102.78,-147.82C106.54,-143.82 111.49,-139.27 116.75,-136.35 124.42,-132.08 236.98,-103.62 289.78,-90.4"/>
<polygon fill="red" stroke="red" stroke-width="0.14" points="290.43,-93.84 299.28,-88.02 288.73,-87.05 290.43,-93.84"/>
</g>
<!-- &#45;7 -->
<g id="node7" class="node">
<title>&#45;7</title>
<polygon fill="lightgray" stroke="black" points="23.5,-166.46 0,-166.46 0,-147.96 23.5,-147.96 23.5,-166.46"/>
<text text-anchor="middle" x="11.75" y="-153.91" font-family="Times,serif" font-size="9.00">&#45;7</text>
</g>
<!-- 1 -->
<g id="node22" class="node">
<title>1</title>
<ellipse fill="lightblue" stroke="black" cx="219.75" cy="-14.5" rx="14.5" ry="14.5"/>
<text text-anchor="middle" x="219.75" y="-11.2" font-family="Times,serif" font-size="9.00">1</text>
</g>
<!-- &#45;7&#45;&gt;1 -->
<g id="edge36" class="edge">
<title>&#45;7&#45;&gt;1</title>
<path fill="none" stroke="red" stroke-width="0.1" stroke-dasharray="1,5" d="M20.01,-147.72C23.76,-144.05 28.33,-139.82 32.75,-136.35 89.69,-91.64 163.39,-47.67 198.86,-27.29"/>
<polygon fill="red" stroke="red" stroke-width="0.1" points="200.33,-30.48 207.28,-22.48 196.86,-24.4 200.33,-30.48"/>
</g>
<!-- &#45;7&#45;&gt;49 -->
<g id="edge4" class="edge">
<title>&#45;7&#45;&gt;49</title>
<path fill="none" stroke="green" stroke-width="0.15" d="M18.78,-147.83C22.55,-143.83 27.49,-139.28 32.75,-136.35 86.97,-106.08 108.17,-117.83 167.75,-100.35 176.16,-97.88 185.27,-95.02 193.49,-92.37"/>
<polygon fill="green" stroke="green" stroke-width="0.15" points="194.31,-95.79 202.73,-89.36 192.14,-89.13 194.31,-95.79"/>
</g>
<!-- &#45;8 -->
<g id="node8" class="node">
<title>&#45;8</title>
<polygon fill="lightgray" stroke="black" points="65.5,-166.46 42,-166.46 42,-147.96 65.5,-147.96 65.5,-166.46"/>
<text text-anchor="middle" x="53.75" y="-153.91" font-family="Times,serif" font-size="9.00">&#45;8</text>
</g>
<!-- 2 -->
<g id="node23" class="node">
<title>2</title>
<ellipse fill="lightblue" stroke="black" cx="114.75" cy="-14.5" rx="14.5" ry="14.5"/>
<text text-anchor="middle" x="114.75" y="-11.2" font-family="Times,serif" font-size="9.00">2</text>
</g>
<!-- &#45;8&#45;&gt;2 -->
<g id="edge41" class="edge">
<title>&#45;8&#45;&gt;2</title>
<path fill="none" stroke="red" stroke-width="0.17" stroke-dasharray="1,5" d="M57.38,-147.83C66.64,-126.47 91.36,-69.46 105.13,-37.68"/>
<polygon fill="red" stroke="red" stroke-width="0.17" points="108.32,-39.12 109.09,-28.56 101.9,-36.34 108.32,-39.12"/>
</g>
<!-- &#45;8&#45;&gt;49 -->
<g id="edge25" class="edge">
<title>&#45;8&#45;&gt;49</title>
<path fill="none" stroke="green" stroke-width="0.7" d="M61.28,-147.63C65.02,-143.77 69.8,-139.4 74.75,-136.35 85.09,-129.96 153.66,-106.15 192.69,-92.83"/>
<polygon fill="green" stroke="green" stroke-width="0.7" points="193.73,-96.18 202.07,-89.64 191.47,-89.55 193.73,-96.18"/>
</g>
<!-- &#45;8&#45;&gt;51 -->
<g id="edge18" class="edge">
<title>&#45;8&#45;&gt;51</title>
<path fill="none" stroke="red" stroke-width="0.13" d="M60.72,-147.71C64.47,-143.68 69.41,-139.14 74.75,-136.35 143.96,-100.15 170.53,-117.4 246.75,-100.35 260.99,-97.16 276.8,-93.41 289.79,-90.28"/>
<polygon fill="red" stroke="red" stroke-width="0.13" points="290.43,-93.72 299.32,-87.96 288.78,-86.92 290.43,-93.72"/>
</g>
<!-- &#45;9 -->
<g id="node9" class="node">
<title>&#45;9</title>
<polygon fill="lightgray" stroke="black" points="650.5,-237.81 627,-237.81 627,-219.31 650.5,-219.31 650.5,-237.81"/>
<text text-anchor="middle" x="638.75" y="-225.26" font-family="Times,serif" font-size="9.00">&#45;9</text>
</g>
<!-- &#45;10 -->
<g id="node10" class="node">
<title>&#45;10</title>
<polygon fill="lightgray" stroke="black" points="675.75,-166.46 647.75,-166.46 647.75,-147.96 675.75,-147.96 675.75,-166.46"/>
<text text-anchor="middle" x="661.75" y="-153.91" font-family="Times,serif" font-size="9.00">&#45;10</text>
</g>
<!-- &#45;10&#45;&gt;52 -->
<g id="edge26" class="edge">
<title>&#45;10&#45;&gt;52</title>
<path fill="none" stroke="red" stroke-width="0.44" stroke-dasharray="1,5" d="M649.49,-147.49C644.6,-144.02 638.91,-139.99 633.75,-136.35 616.31,-124.04 596.55,-110.16 581.69,-99.74"/>
<polygon fill="red" stroke="red" stroke-width="0.44" points="583.88,-97 573.68,-94.13 579.86,-102.73 583.88,-97"/>
</g>
<!-- &#45;11 -->
<g id="node11" class="node">
<title>&#45;11</title>
<polygon fill="lightgray" stroke="black" points="507.75,-166.46 479.75,-166.46 479.75,-147.96 507.75,-147.96 507.75,-166.46"/>
<text text-anchor="middle" x="493.75" y="-153.91" font-family="Times,serif" font-size="9.00">&#45;11</text>
</g>
<!-- &#45;11&#45;&gt;51 -->
<g id="edge9" class="edge">
<title>&#45;11&#45;&gt;51</title>
<path fill="none" stroke="red" stroke-width="0.56" d="M485.4,-147.62C481.28,-143.76 476.06,-139.39 470.75,-136.35 429.75,-112.82 376.58,-97.55 344.65,-89.79"/>
<polygon fill="red" stroke="red" stroke-width="0.56" points="345.66,-86.43 335.12,-87.55 344.06,-93.24 345.66,-86.43"/>
</g>
<!-- &#45;11&#45;&gt;52 -->
<g id="edge16" class="edge">
<title>&#45;11&#45;&gt;52</title>
<path fill="none" stroke="green" stroke-width="0.17" stroke-dasharray="1,5" d="M501.46,-147.6C511.05,-136.9 527.73,-118.28 540.63,-103.89"/>
<polygon fill="green" stroke="green" stroke-width="0.17" points="543.1,-106.38 547.16,-96.6 537.88,-101.71 543.1,-106.38"/>
</g>
<!-- &#45;12 -->
<g id="node12" class="node">
<title>&#45;12</title>
<polygon fill="lightgray" stroke="black" points="240.75,-237.81 212.75,-237.81 212.75,-219.31 240.75,-219.31 240.75,-237.81"/>
<text text-anchor="middle" x="226.75" y="-225.26" font-family="Times,serif" font-size="9.00">&#45;12</text>
</g>
<!-- &#45;12&#45;&gt;288 -->
<g id="edge40" class="edge">
<title>&#45;12&#45;&gt;288</title>
<path fill="none" stroke="green" stroke-width="0.52" d="M231.9,-219.06C237.1,-210.47 245.41,-196.76 252.81,-184.52"/>
<polygon fill="green" stroke="green" stroke-width="0.52" points="255.64,-186.61 257.83,-176.24 249.65,-182.98 255.64,-186.61"/>
</g>
<!-- &#45;12&#45;&gt;51 -->
<g id="edge7" class="edge">
<title>&#45;12&#45;&gt;51</title>
<path fill="none" stroke="red" stroke-width="0.33" stroke-dasharray="1,5" d="M225.68,-219.01C223.98,-201.9 222.37,-162.84 238.75,-136.35 250.86,-116.76 273.27,-102.78 290.97,-94.16"/>
<polygon fill="red" stroke="red" stroke-width="0.33" points="292.13,-97.48 299.77,-90.14 289.22,-91.11 292.13,-97.48"/>
</g>
<!-- &#45;13 -->
<g id="node13" class="node">
<title>&#45;13</title>
<polygon fill="lightgray" stroke="black" points="306.75,-237.81 278.75,-237.81 278.75,-219.31 306.75,-219.31 306.75,-237.81"/>
<text text-anchor="middle" x="292.75" y="-225.26" font-family="Times,serif" font-size="9.00">&#45;13</text>
</g>
<!-- &#45;13&#45;&gt;288 -->
<g id="edge37" class="edge">
<title>&#45;13&#45;&gt;288</title>
<path fill="none" stroke="green" stroke-width="0.3" d="M289.81,-219.06C287.04,-211.06 282.73,-198.61 278.73,-187.05"/>
<polygon fill="green" stroke="green" stroke-width="0.3" points="282.07,-186 275.49,-177.7 275.46,-188.29 282.07,-186"/>
</g>
<!-- &#45;13&#45;&gt;49 -->
<g id="edge5" class="edge">
<title>&#45;13&#45;&gt;49</title>
<path fill="none" stroke="red" stroke-width="0.16" stroke-dasharray="1,5" d="M279.41,-219.05C266.88,-210.32 248.62,-195.57 238.75,-178.07 227.1,-157.43 222.53,-130.7 220.77,-110.96"/>
<polygon fill="red" stroke="red" stroke-width="0.16" points="224.26,-110.76 220.07,-101.03 217.28,-111.25 224.26,-110.76"/>
</g>
<!-- &#45;13&#45;&gt;51 -->
<g id="edge10" class="edge">
<title>&#45;13&#45;&gt;51</title>
<path fill="none" stroke="green" stroke-width="0.24" stroke-dasharray="1,5" d="M294.18,-218.99C297.68,-198.03 306.78,-143.46 312.3,-110.37"/>
<polygon fill="green" stroke="green" stroke-width="0.24" points="315.7,-111.25 313.89,-100.81 308.79,-110.1 315.7,-111.25"/>
</g>
<!-- &#45;13&#45;&gt;52 -->
<g id="edge28" class="edge">
<title>&#45;13&#45;&gt;52</title>
<path fill="none" stroke="green" stroke-width="0.24" d="M307.02,-227.59C362.42,-227.37 562.11,-223.41 600.75,-178.07 619.85,-155.65 597.17,-123.15 578.45,-102.73"/>
<polygon fill="green" stroke="green" stroke-width="0.24" points="581,-100.34 571.55,-95.54 575.95,-105.18 581,-100.34"/>
</g>
<!-- &#45;14 -->
<g id="node14" class="node">
<title>&#45;14</title>
<polygon fill="lightgray" stroke="black" points="696.75,-237.81 668.75,-237.81 668.75,-219.31 696.75,-219.31 696.75,-237.81"/>
<text text-anchor="middle" x="682.75" y="-225.26" font-family="Times,serif" font-size="9.00">&#45;14</text>
</g>
<!-- &#45;15 -->
<g id="node15" class="node">
<title>&#45;15</title>
<polygon fill="lightgray" stroke="black" points="419.75,-166.46 391.75,-166.46 391.75,-147.96 419.75,-147.96 419.75,-166.46"/>
<text text-anchor="middle" x="405.75" y="-153.91" font-family="Times,serif" font-size="9.00">&#45;15</text>
</g>
<!-- &#45;15&#45;&gt;49 -->
<g id="edge31" class="edge">
<title>&#45;15&#45;&gt;49</title>
<path fill="none" stroke="red" stroke-width="0.26" stroke-dasharray="1,5" d="M397.42,-147.58C393.31,-143.71 388.08,-139.35 382.75,-136.35 359.13,-123.06 286.56,-102 246.68,-90.96"/>
<polygon fill="red" stroke="red" stroke-width="0.26" points="247.78,-87.64 237.21,-88.36 245.93,-94.39 247.78,-87.64"/>
</g>
<!-- &#45;15&#45;&gt;51 -->
<g id="edge32" class="edge">
<title>&#45;15&#45;&gt;51</title>
<path fill="none" stroke="red" stroke-width="0.72" stroke-dasharray="1,5" d="M395.97,-147.62C391.91,-144.09 387.13,-139.99 382.75,-136.35 368.41,-124.44 352.03,-111.37 339.18,-101.22"/>
<polygon fill="red" stroke="red" stroke-width="0.72" points="341.41,-98.52 331.38,-95.09 337.08,-104.02 341.41,-98.52"/>
</g>
<!-- &#45;15&#45;&gt;52 -->
<g id="edge29" class="edge">
<title>&#45;15&#45;&gt;52</title>
<path fill="none" stroke="red" stroke-width="0.15" d="M414.18,-147.75C418.32,-143.92 423.53,-139.54 428.75,-136.35 462.28,-115.85 505.2,-100.26 532.34,-91.54"/>
<polygon fill="red" stroke="red" stroke-width="0.15" points="533.21,-94.93 541.71,-88.6 531.12,-88.25 533.21,-94.93"/>
</g>
<!-- &#45;16 -->
<g id="node16" class="node">
<title>&#45;16</title>
<polygon fill="lightgray" stroke="black" points="742.75,-237.81 714.75,-237.81 714.75,-219.31 742.75,-219.31 742.75,-237.81"/>
<text text-anchor="middle" x="728.75" y="-225.26" font-family="Times,serif" font-size="9.00">&#45;16</text>
</g>
<!-- &#45;17 -->
<g id="node17" class="node">
<title>&#45;17</title>
<polygon fill="lightgray" stroke="black" points="153.75,-166.46 125.75,-166.46 125.75,-147.96 153.75,-147.96 153.75,-166.46"/>
<text text-anchor="middle" x="139.75" y="-153.91" font-family="Times,serif" font-size="9.00">&#45;17</text>
</g>
<!-- &#45;17&#45;&gt;49 -->
<g id="edge14" class="edge">
<title>&#45;17&#45;&gt;49</title>
<path fill="none" stroke="green" stroke-width="0.3" stroke-dasharray="1,5" d="M149.24,-147.6C161.55,-136.44 183.34,-116.68 199.45,-102.07"/>
<polygon fill="green" stroke="green" stroke-width="0.3" points="201.45,-104.99 206.51,-95.68 196.75,-99.8 201.45,-104.99"/>
</g>
<!-- &#45;17&#45;&gt;51 -->
<g id="edge24" class="edge">
<title>&#45;17&#45;&gt;51</title>
<path fill="none" stroke="red" stroke-width="0.32" stroke-dasharray="1,5" d="M150.47,-147.54C155.51,-143.75 161.72,-139.47 167.75,-136.35 208.28,-115.33 259.06,-99.38 289.65,-90.79"/>
<polygon fill="red" stroke="red" stroke-width="0.32" points="290.4,-94.21 299.12,-88.19 288.55,-87.46 290.4,-94.21"/>
</g>
<!-- &#45;18 -->
<g id="node18" class="node">
<title>&#45;18</title>
<polygon fill="lightgray" stroke="black" points="721.75,-166.46 693.75,-166.46 693.75,-147.96 721.75,-147.96 721.75,-166.46"/>
<text text-anchor="middle" x="707.75" y="-153.91" font-family="Times,serif" font-size="9.00">&#45;18</text>
</g>
<!-- &#45;18&#45;&gt;52 -->
<g id="edge17" class="edge">
<title>&#45;18&#45;&gt;52</title>
<path fill="none" stroke="red" stroke-width="0.3" stroke-dasharray="1,5" d="M699.31,-147.77C695.16,-143.95 689.95,-139.57 684.75,-136.35 652.53,-116.41 611.45,-100.84 585.11,-91.95"/>
<polygon fill="red" stroke="red" stroke-width="0.3" points="586.48,-88.72 575.89,-88.91 584.29,-95.36 586.48,-88.72"/>
</g>
<!-- &#45;19 -->
<g id="node19" class="node">
<title>&#45;19</title>
<polygon fill="lightgray" stroke="black" points="373.75,-166.46 345.75,-166.46 345.75,-147.96 373.75,-147.96 373.75,-166.46"/>
<text text-anchor="middle" x="359.75" y="-153.91" font-family="Times,serif" font-size="9.00">&#45;19</text>
</g>
<!-- &#45;19&#45;&gt;49 -->
<g id="edge8" class="edge">
<title>&#45;19&#45;&gt;49</title>
<path fill="none" stroke="green" stroke-width="0.39" d="M345.29,-148.72C321.44,-136.36 273.58,-111.56 244.33,-96.41"/>
<polygon fill="green" stroke="green" stroke-width="0.39" points="246.2,-93.43 235.71,-91.94 242.98,-99.65 246.2,-93.43"/>
</g>
<!-- &#45;19&#45;&gt;52 -->
<g id="edge12" class="edge">
<title>&#45;19&#45;&gt;52</title>
<path fill="none" stroke="green" stroke-width="0.78" d="M368.05,-147.52C372.16,-143.64 377.38,-139.29 382.75,-136.35 431.08,-109.85 494.35,-95.12 530.38,-88.35"/>
<polygon fill="green" stroke="green" stroke-width="0.78" points="530.68,-91.85 539.9,-86.63 529.44,-84.96 530.68,-91.85"/>
</g>
<!-- &#45;20 -->
<g id="node20" class="node">
<title>&#45;20</title>
<polygon fill="lightgray" stroke="black" points="788.75,-237.81 760.75,-237.81 760.75,-219.31 788.75,-219.31 788.75,-237.81"/>
<text text-anchor="middle" x="774.75" y="-225.26" font-family="Times,serif" font-size="9.00">&#45;20</text>
</g>
<!-- 0 -->
<g id="node21" class="node">
<title>0</title>
<ellipse fill="lightblue" stroke="black" cx="820.75" cy="-228.56" rx="14.5" ry="14.5"/>
<text text-anchor="middle" x="820.75" y="-225.26" font-family="Times,serif" font-size="9.00">0</text>
</g>
<!-- 2&#45;&gt;2 -->
<g id="edge33" class="edge">
<title>2&#45;&gt;2</title>
<path fill="none" stroke="red" stroke-width="0.55" stroke-dasharray="1,5" d="M125.4,-24.65C135.81,-30.26 147.25,-26.88 147.25,-14.5 147.25,-6.18 142.08,-1.92 135.54,-1.72"/>
<polygon fill="red" stroke="red" stroke-width="0.55" points="135.01,1.76 126.2,-4.13 136.76,-5.02 135.01,1.76"/>
</g>
<!-- 3 -->
<g id="node24" class="node">
<title>3</title>
<ellipse fill="lightblue" stroke="black" cx="268.75" cy="-14.5" rx="14.5" ry="14.5"/>
<text text-anchor="middle" x="268.75" y="-11.2" font-family="Times,serif" font-size="9.00">3</text>
</g>
<!-- 4 -->
<g id="node25" class="node">
<title>4</title>
<ellipse fill="lightblue" stroke="black" cx="316.75" cy="-14.5" rx="14.5" ry="14.5"/>
<text text-anchor="middle" x="316.75" y="-11.2" font-family="Times,serif" font-size="9.00">4</text>
</g>
<!-- 4&#45;&gt;4 -->
<g id="edge34" class="edge">
<title>4&#45;&gt;4</title>
<path fill="none" stroke="green" stroke-width="0.15" d="M327.4,-24.65C337.81,-30.26 349.25,-26.88 349.25,-14.5 349.25,-5.98 343.84,-1.72 337.08,-1.71"/>
<polygon fill="green" stroke="green" stroke-width="0.15" points="336.36,1.72 327.62,-4.28 338.19,-5.04 336.36,1.72"/>
</g>
<!-- 288&#45;&gt;49 -->
<g id="edge38" class="edge">
<title>288&#45;&gt;49</title>
<path fill="none" stroke="red" stroke-width="0.21" stroke-dasharray="1,5" d="M257.39,-139.38C250.76,-129.57 242.31,-117.07 235.1,-106.39"/>
<polygon fill="red" stroke="red" stroke-width="0.21" points="238.08,-104.55 229.58,-98.22 232.28,-108.47 238.08,-104.55"/>
</g>
<!-- 49&#45;&gt;1 -->
<g id="edge6" class="edge">
<title>49&#45;&gt;1</title>
<path fill="none" stroke="red" stroke-width="0.43" stroke-dasharray="1,5" d="M219.75,-64.63C219.75,-57.05 219.75,-47.98 219.75,-39.71"/>
<polygon fill="red" stroke="red" stroke-width="0.43" points="223.25,-39.8 219.75,-29.8 216.25,-39.8 223.25,-39.8"/>
</g>
<!-- 49&#45;&gt;2 -->
<g id="edge21" class="edge">
<title>49&#45;&gt;2</title>
<path fill="none" stroke="red" stroke-width="0.56" d="M205.15,-72.47C187.15,-61.12 156.43,-41.76 135.86,-28.8"/>
<polygon fill="red" stroke="red" stroke-width="0.56" points="137.99,-26 127.66,-23.63 134.25,-31.92 137.99,-26"/>
</g>
<!-- 49&#45;&gt;3 -->
<g id="edge13" class="edge">
<title>49&#45;&gt;3</title>
<path fill="none" stroke="red" stroke-width="0.2" d="M229.9,-67.96C237,-58.38 246.57,-45.45 254.44,-34.82"/>
<polygon fill="red" stroke="red" stroke-width="0.2" points="257.24,-36.93 260.37,-26.81 251.61,-32.76 257.24,-36.93"/>
</g>
<!-- 49&#45;&gt;4 -->
<g id="edge19" class="edge">
<title>49&#45;&gt;4</title>
<path fill="none" stroke="red" stroke-width="0.43" d="M234.06,-71.9C250.56,-60.65 277.8,-42.06 296.48,-29.32"/>
<polygon fill="red" stroke="red" stroke-width="0.43" points="298.3,-32.32 304.58,-23.8 294.35,-26.54 298.3,-32.32"/>
</g>
<!-- 51&#45;&gt;3 -->
<g id="edge22" class="edge">
<title>51&#45;&gt;3</title>
<path fill="none" stroke="green" stroke-width="0.42" d="M306.57,-67.64C299.76,-58.25 290.7,-45.75 283.15,-35.35"/>
<polygon fill="green" stroke="green" stroke-width="0.42" points="286.08,-33.42 277.37,-27.38 280.41,-37.53 286.08,-33.42"/>
</g>
<!-- 51&#45;&gt;4 -->
<g id="edge15" class="edge">
<title>51&#45;&gt;4</title>
<path fill="none" stroke="red" stroke-width="0.46" d="M316.75,-64.63C316.75,-57.05 316.75,-47.98 316.75,-39.71"/>
<polygon fill="red" stroke="red" stroke-width="0.46" points="320.25,-39.85 316.75,-29.85 313.25,-39.85 320.25,-39.85"/>
</g>
<!-- 52&#45;&gt;1 -->
<g id="edge11" class="edge">
<title>52&#45;&gt;1</title>
<path fill="none" stroke="green" stroke-width="0.14" d="M540.98,-80.62C492.47,-77.34 354.19,-65.26 245.75,-28.99 244.16,-28.46 242.55,-27.84 240.94,-27.16"/>
<polygon fill="green" stroke="green" stroke-width="0.14" points="242.82,-24.18 232.29,-23 239.78,-30.49 242.82,-24.18"/>
</g>
</g>
</svg>
