<?xml version="1.0" encoding="UTF-8" standalone="no"?>
<!DOCTYPE svg PUBLIC "-//W3C//DTD SVG 1.1//EN"
 "http://www.w3.org/Graphics/SVG/1.1/DTD/svg11.dtd">
<!-- Generated by graphviz version 12.1.1 (20240910.0053)
 -->
<!-- Pages: 1 -->
<svg width="956pt" height="329pt"
 viewBox="0.00 0.00 955.75 328.78" xmlns="http://www.w3.org/2000/svg" xmlns:xlink="http://www.w3.org/1999/xlink">
<g id="graph0" class="graph" transform="scale(1 1) rotate(0) translate(4 324.78)">
<polygon fill="white" stroke="none" points="-4,4 -4,-324.78 951.75,-324.78 951.75,4 -4,4"/>
<!-- &#45;1 -->
<g id="node1" class="node">
<title>&#45;1</title>
<polygon fill="lightgray" stroke="black" points="107.5,-166.46 84,-166.46 84,-147.96 107.5,-147.96 107.5,-166.46"/>
<text text-anchor="middle" x="95.75" y="-153.91" font-family="Times,serif" font-size="9.00">&#45;1</text>
</g>
<!-- 89 -->
<g id="node28" class="node">
<title>89</title>
<ellipse fill="white" stroke="black" cx="224.75" cy="-82.67" rx="17.68" ry="17.68"/>
<text text-anchor="middle" x="224.75" y="-79.37" font-family="Times,serif" font-size="9.00">89</text>
</g>
<!-- &#45;1&#45;&gt;89 -->
<g id="edge34" class="edge">
<title>&#45;1&#45;&gt;89</title>
<path fill="none" stroke="red" stroke-width="0.14" stroke-dasharray="1,5" d="M106.07,-147.64C110.72,-143.96 116.37,-139.74 121.75,-136.35 147.24,-120.28 178.23,-104.95 199.51,-95.02"/>
<polygon fill="red" stroke="red" stroke-width="0.14" points="200.75,-98.3 208.37,-90.93 197.82,-91.94 200.75,-98.3"/>
</g>
<!-- &#45;2 -->
<g id="node2" class="node">
<title>&#45;2</title>
<polygon fill="lightgray" stroke="black" points="23.5,-166.46 0,-166.46 0,-147.96 23.5,-147.96 23.5,-166.46"/>
<text text-anchor="middle" x="11.75" y="-153.91" font-family="Times,serif" font-size="9.00">&#45;2</text>
</g>
<!-- &#45;2&#45;&gt;89 -->
<g id="edge22" class="edge">
<title>&#45;2&#45;&gt;89</title>
<path fill="none" stroke="green" stroke-width="0.15" d="M18.79,-147.85C22.56,-143.85 27.5,-139.3 32.75,-136.35 86.3,-106.21 158.07,-92.52 196.93,-86.98"/>
<polygon fill="green" stroke="green" stroke-width="0.15" points="197.31,-90.46 206.75,-85.65 196.37,-83.52 197.31,-90.46"/>
</g>
<!-- &#45;3 -->
<g id="node3" class="node">
<title>&#45;3</title>
<polygon fill="lightgray" stroke="black" points="633.5,-166.46 610,-166.46 610,-147.96 633.5,-147.96 633.5,-166.46"/>
<text text-anchor="middle" x="621.75" y="-153.91" font-family="Times,serif" font-size="9.00">&#45;3</text>
</g>
<!-- 90 -->
<g id="node29" class="node">
<title>90</title>
<ellipse fill="white" stroke="black" cx="442.75" cy="-82.67" rx="17.68" ry="17.68"/>
<text text-anchor="middle" x="442.75" y="-79.37" font-family="Times,serif" font-size="9.00">90</text>
</g>
<!-- &#45;3&#45;&gt;90 -->
<g id="edge32" class="edge">
<title>&#45;3&#45;&gt;90</title>
<path fill="none" stroke="green" stroke-width="0.43" d="M614.26,-147.57C610.52,-143.7 605.74,-139.34 600.75,-136.35 558.85,-111.25 503.46,-96.34 470.62,-89.1"/>
<polygon fill="green" stroke="green" stroke-width="0.43" points="471.54,-85.71 461.03,-87.07 470.09,-92.56 471.54,-85.71"/>
</g>
<!-- 91 -->
<g id="node30" class="node">
<title>91</title>
<ellipse fill="white" stroke="black" cx="665.75" cy="-82.67" rx="17.68" ry="17.68"/>
<text text-anchor="middle" x="665.75" y="-79.37" font-family="Times,serif" font-size="9.00">91</text>
</g>
<!-- &#45;3&#45;&gt;91 -->
<g id="edge8" class="edge">
<title>&#45;3&#45;&gt;91</title>
<path fill="none" stroke="red" stroke-width="0.4" d="M626.97,-147.6C632.96,-137.72 643.04,-121.1 651.43,-107.28"/>
<polygon fill="red" stroke="red" stroke-width="0.4" points="654.38,-109.16 656.58,-98.79 648.4,-105.53 654.38,-109.16"/>
</g>
<!-- &#45;4 -->
<g id="node4" class="node">
<title>&#45;4</title>
<polygon fill="lightgray" stroke="black" points="767.5,-166.46 744,-166.46 744,-147.96 767.5,-147.96 767.5,-166.46"/>
<text text-anchor="middle" x="755.75" y="-153.91" font-family="Times,serif" font-size="9.00">&#45;4</text>
</g>
<!-- 92 -->
<g id="node31" class="node">
<title>92</title>
<ellipse fill="white" stroke="black" cx="612.75" cy="-82.67" rx="17.68" ry="17.68"/>
<text text-anchor="middle" x="612.75" y="-79.37" font-family="Times,serif" font-size="9.00">92</text>
</g>
<!-- &#45;4&#45;&gt;92 -->
<g id="edge13" class="edge">
<title>&#45;4&#45;&gt;92</title>
<path fill="none" stroke="green" stroke-width="0.59" stroke-dasharray="1,5" d="M748.21,-147.65C744.46,-143.8 739.69,-139.43 734.75,-136.35 696.1,-112.21 679.49,-120.76 638.75,-100.35 637.89,-99.92 637.02,-99.46 636.15,-98.99"/>
<polygon fill="green" stroke="green" stroke-width="0.59" points="638.16,-96.12 627.78,-94.03 634.6,-102.14 638.16,-96.12"/>
</g>
<!-- &#45;5 -->
<g id="node5" class="node">
<title>&#45;5</title>
<polygon fill="lightgray" stroke="black" points="499.5,-166.46 476,-166.46 476,-147.96 499.5,-147.96 499.5,-166.46"/>
<text text-anchor="middle" x="487.75" y="-153.91" font-family="Times,serif" font-size="9.00">&#45;5</text>
</g>
<!-- &#45;5&#45;&gt;90 -->
<g id="edge7" class="edge">
<title>&#45;5&#45;&gt;90</title>
<path fill="none" stroke="red" stroke-width="0.16" d="M482.41,-147.6C476.22,-137.63 465.77,-120.78 457.15,-106.88"/>
<polygon fill="red" stroke="red" stroke-width="0.16" points="460.19,-105.14 451.94,-98.49 454.24,-108.83 460.19,-105.14"/>
</g>
<!-- &#45;5&#45;&gt;92 -->
<g id="edge35" class="edge">
<title>&#45;5&#45;&gt;92</title>
<path fill="none" stroke="green" stroke-width="0.21" d="M495.85,-147.49C499.56,-143.79 504.15,-139.58 508.75,-136.35 533.73,-118.77 565.39,-103.61 587.18,-94.13"/>
<polygon fill="green" stroke="green" stroke-width="0.21" points="588.32,-97.45 596.15,-90.31 585.58,-91.01 588.32,-97.45"/>
</g>
<!-- &#45;6 -->
<g id="node6" class="node">
<title>&#45;6</title>
<polygon fill="lightgray" stroke="black" points="185.5,-315.53 162,-315.53 162,-297.03 185.5,-297.03 185.5,-315.53"/>
<text text-anchor="middle" x="173.75" y="-302.98" font-family="Times,serif" font-size="9.00">&#45;6</text>
</g>
<!-- 364 -->
<g id="node27" class="node">
<title>364</title>
<ellipse fill="white" stroke="black" cx="264.75" cy="-234.93" rx="20.86" ry="20.86"/>
<text text-anchor="middle" x="264.75" y="-231.63" font-family="Times,serif" font-size="9.00">364</text>
</g>
<!-- &#45;6&#45;&gt;364 -->
<g id="edge48" class="edge">
<title>&#45;6&#45;&gt;364</title>
<path fill="none" stroke="red" stroke-width="0.34" d="M184.91,-296.78C198.53,-286.39 221.97,-268.53 239.94,-254.83"/>
<polygon fill="red" stroke="red" stroke-width="0.34" points="242.02,-257.65 247.85,-248.81 237.77,-252.08 242.02,-257.65"/>
</g>
<!-- &#45;6&#45;&gt;89 -->
<g id="edge40" class="edge">
<title>&#45;6&#45;&gt;89</title>
<path fill="none" stroke="red" stroke-width="0.47" stroke-dasharray="1,5" d="M170.13,-296.65C159.87,-270.82 133.03,-192.4 159.75,-136.35 168.06,-118.92 185.25,-105.39 199.87,-96.41"/>
<polygon fill="red" stroke="red" stroke-width="0.47" points="201.45,-99.54 208.37,-91.52 197.96,-93.47 201.45,-99.54"/>
</g>
<!-- &#45;6&#45;&gt;90 -->
<g id="edge9" class="edge">
<title>&#45;6&#45;&gt;90</title>
<path fill="none" stroke="green" stroke-width="0.24" d="M172.64,-296.82C169.55,-269.4 163.82,-182.06 208.75,-136.35 237.35,-107.25 359.25,-91.84 414.87,-86.2"/>
<polygon fill="green" stroke="green" stroke-width="0.24" points="415.1,-89.7 424.71,-85.24 414.42,-82.73 415.1,-89.7"/>
</g>
<!-- &#45;7 -->
<g id="node7" class="node">
<title>&#45;7</title>
<polygon fill="lightgray" stroke="black" points="225.5,-244.18 202,-244.18 202,-225.68 225.5,-225.68 225.5,-244.18"/>
<text text-anchor="middle" x="213.75" y="-231.63" font-family="Times,serif" font-size="9.00">&#45;7</text>
</g>
<!-- 281 -->
<g id="node26" class="node">
<title>281</title>
<ellipse fill="white" stroke="black" cx="260.75" cy="-157.21" rx="20.86" ry="20.86"/>
<text text-anchor="middle" x="260.75" y="-153.91" font-family="Times,serif" font-size="9.00">281</text>
</g>
<!-- &#45;7&#45;&gt;281 -->
<g id="edge42" class="edge">
<title>&#45;7&#45;&gt;281</title>
<path fill="none" stroke="green" stroke-width="0.48" stroke-dasharray="1,5" d="M219.14,-225.24C225.31,-215.3 235.71,-198.55 244.57,-184.28"/>
<polygon fill="green" stroke="green" stroke-width="0.48" points="247.42,-186.31 249.72,-175.97 241.48,-182.62 247.42,-186.31"/>
</g>
<!-- &#45;7&#45;&gt;90 -->
<g id="edge6" class="edge">
<title>&#45;7&#45;&gt;90</title>
<path fill="none" stroke="red" stroke-width="0.37" stroke-dasharray="1,5" d="M212.43,-225.29C210.09,-206.46 207.43,-161.39 230.75,-136.35 255.61,-109.65 362.83,-93.33 414.59,-86.87"/>
<polygon fill="red" stroke="red" stroke-width="0.37" points="414.96,-90.35 424.47,-85.67 414.12,-83.4 414.96,-90.35"/>
</g>
<!-- &#45;8 -->
<g id="node8" class="node">
<title>&#45;8</title>
<polygon fill="lightgray" stroke="black" points="65.5,-166.46 42,-166.46 42,-147.96 65.5,-147.96 65.5,-166.46"/>
<text text-anchor="middle" x="53.75" y="-153.91" font-family="Times,serif" font-size="9.00">&#45;8</text>
</g>
<!-- &#45;8&#45;&gt;89 -->
<g id="edge18" class="edge">
<title>&#45;8&#45;&gt;89</title>
<path fill="none" stroke="red" stroke-width="0.35" d="M61.26,-147.6C65,-143.74 69.78,-139.38 74.75,-136.35 114.17,-112.31 166.12,-97.19 197.39,-89.6"/>
<polygon fill="red" stroke="red" stroke-width="0.35" points="198.08,-93.04 207.02,-87.35 196.49,-86.22 198.08,-93.04"/>
</g>
<!-- &#45;9 -->
<g id="node9" class="node">
<title>&#45;9</title>
<polygon fill="lightgray" stroke="black" points="855.5,-166.46 832,-166.46 832,-147.96 855.5,-147.96 855.5,-166.46"/>
<text text-anchor="middle" x="843.75" y="-153.91" font-family="Times,serif" font-size="9.00">&#45;9</text>
</g>
<!-- &#45;9&#45;&gt;91 -->
<g id="edge36" class="edge">
<title>&#45;9&#45;&gt;91</title>
<path fill="none" stroke="green" stroke-width="0.13" d="M836.26,-147.57C832.52,-143.7 827.74,-139.34 822.75,-136.35 780.93,-111.25 725.6,-96.28 693.02,-89.04"/>
<polygon fill="green" stroke="green" stroke-width="0.13" points="694,-85.67 683.49,-87 692.53,-92.51 694,-85.67"/>
</g>
<!-- &#45;9&#45;&gt;92 -->
<g id="edge28" class="edge">
<title>&#45;9&#45;&gt;92</title>
<path fill="none" stroke="red" stroke-width="0.81" d="M836.8,-147.68C833.05,-143.64 828.1,-139.1 822.75,-136.35 748.66,-98.21 716.08,-131.39 638.75,-100.35 637.98,-100.04 637.22,-99.71 636.45,-99.36"/>
<polygon fill="red" stroke="red" stroke-width="0.81" points="638.32,-96.39 627.87,-94.63 634.94,-102.52 638.32,-96.39"/>
</g>
<!-- &#45;10 -->
<g id="node10" class="node">
<title>&#45;10</title>
<polygon fill="lightgray" stroke="black" points="901.75,-166.46 873.75,-166.46 873.75,-147.96 901.75,-147.96 901.75,-166.46"/>
<text text-anchor="middle" x="887.75" y="-153.91" font-family="Times,serif" font-size="9.00">&#45;10</text>
</g>
<!-- &#45;10&#45;&gt;91 -->
<g id="edge24" class="edge">
<title>&#45;10&#45;&gt;91</title>
<path fill="none" stroke="green" stroke-width="0.44" stroke-dasharray="1,5" d="M879.91,-147.85C875.75,-143.85 870.35,-139.3 864.75,-136.35 808.39,-106.61 733.99,-92.74 694.03,-87.06"/>
<polygon fill="green" stroke="green" stroke-width="0.44" points="694.53,-83.6 684.15,-85.73 693.6,-90.53 694.53,-83.6"/>
</g>
<!-- &#45;11 -->
<g id="node11" class="node">
<title>&#45;11</title>
<polygon fill="lightgray" stroke="black" points="327.75,-166.46 299.75,-166.46 299.75,-147.96 327.75,-147.96 327.75,-166.46"/>
<text text-anchor="middle" x="313.75" y="-153.91" font-family="Times,serif" font-size="9.00">&#45;11</text>
</g>
<!-- &#45;11&#45;&gt;89 -->
<g id="edge27" class="edge">
<title>&#45;11&#45;&gt;89</title>
<path fill="none" stroke="red" stroke-width="0.12" stroke-dasharray="1,5" d="M303.97,-147.62C299.91,-144.09 295.13,-139.99 290.75,-136.35 276.13,-124.21 259.4,-110.86 246.44,-100.64"/>
<polygon fill="red" stroke="red" stroke-width="0.12" points="248.69,-97.95 238.66,-94.52 244.36,-103.45 248.69,-97.95"/>
</g>
<!-- &#45;11&#45;&gt;92 -->
<g id="edge39" class="edge">
<title>&#45;11&#45;&gt;92</title>
<path fill="none" stroke="green" stroke-width="0.13" stroke-dasharray="1,5" d="M321.5,-147.68C325.64,-143.64 331.05,-139.1 336.75,-136.35 380.66,-115.11 524.41,-94.91 585.2,-87.08"/>
<polygon fill="green" stroke="green" stroke-width="0.13" points="585.54,-90.57 595.02,-85.83 584.66,-83.62 585.54,-90.57"/>
</g>
<!-- &#45;12 -->
<g id="node12" class="node">
<title>&#45;12</title>
<polygon fill="lightgray" stroke="black" points="373.75,-166.46 345.75,-166.46 345.75,-147.96 373.75,-147.96 373.75,-166.46"/>
<text text-anchor="middle" x="359.75" y="-153.91" font-family="Times,serif" font-size="9.00">&#45;12</text>
</g>
<!-- &#45;12&#45;&gt;89 -->
<g id="edge25" class="edge">
<title>&#45;12&#45;&gt;89</title>
<path fill="none" stroke="green" stroke-width="0.15" d="M350.81,-147.48C346.73,-143.77 341.71,-139.56 336.75,-136.35 309,-118.32 274.1,-102.92 250.7,-93.51"/>
<polygon fill="green" stroke="green" stroke-width="0.15" points="252.24,-90.35 241.65,-89.94 249.67,-96.86 252.24,-90.35"/>
</g>
<!-- &#45;12&#45;&gt;90 -->
<g id="edge12" class="edge">
<title>&#45;12&#45;&gt;90</title>
<path fill="none" stroke="green" stroke-width="0.6" stroke-dasharray="1,5" d="M369.6,-147.6C382.32,-136.48 404.82,-116.81 421.52,-102.22"/>
<polygon fill="green" stroke="green" stroke-width="0.6" points="423.73,-104.94 428.96,-95.72 419.13,-99.67 423.73,-104.94"/>
</g>
<!-- &#45;12&#45;&gt;92 -->
<g id="edge20" class="edge">
<title>&#45;12&#45;&gt;92</title>
<path fill="none" stroke="green" stroke-width="0.14" stroke-dasharray="1,5" d="M374.23,-151.28C386.56,-147.14 404.75,-141.14 420.75,-136.35 479.31,-118.79 548.6,-100.35 585.84,-90.62"/>
<polygon fill="green" stroke="green" stroke-width="0.14" points="586.46,-94.08 595.25,-88.18 584.69,-87.31 586.46,-94.08"/>
</g>
<!-- &#45;13 -->
<g id="node13" class="node">
<title>&#45;13</title>
<polygon fill="lightgray" stroke="black" points="813.75,-166.46 785.75,-166.46 785.75,-147.96 813.75,-147.96 813.75,-166.46"/>
<text text-anchor="middle" x="799.75" y="-153.91" font-family="Times,serif" font-size="9.00">&#45;13</text>
</g>
<!-- &#45;13&#45;&gt;92 -->
<g id="edge21" class="edge">
<title>&#45;13&#45;&gt;92</title>
<path fill="none" stroke="green" stroke-width="0.37" d="M791.92,-147.84C787.76,-143.84 782.35,-139.29 776.75,-136.35 720.64,-106.87 696.81,-125.77 638.75,-100.35 637.74,-99.91 636.73,-99.43 635.72,-98.92"/>
<polygon fill="green" stroke="green" stroke-width="0.37" points="637.77,-96.07 627.35,-94.14 634.3,-102.14 637.77,-96.07"/>
</g>
<!-- &#45;14 -->
<g id="node14" class="node">
<title>&#45;14</title>
<polygon fill="lightgray" stroke="black" points="947.75,-166.46 919.75,-166.46 919.75,-147.96 947.75,-147.96 947.75,-166.46"/>
<text text-anchor="middle" x="933.75" y="-153.91" font-family="Times,serif" font-size="9.00">&#45;14</text>
</g>
<!-- &#45;14&#45;&gt;91 -->
<g id="edge23" class="edge">
<title>&#45;14&#45;&gt;91</title>
<path fill="none" stroke="red" stroke-width="0.22" d="M925.97,-147.74C921.82,-143.71 916.42,-139.17 910.75,-136.35 837.95,-100.09 740.83,-88.7 693.73,-85.19"/>
<polygon fill="red" stroke="red" stroke-width="0.22" points="694.22,-81.71 684,-84.52 693.74,-88.7 694.22,-81.71"/>
</g>
<!-- &#45;15 -->
<g id="node15" class="node">
<title>&#45;15</title>
<polygon fill="lightgray" stroke="black" points="591.75,-166.46 563.75,-166.46 563.75,-147.96 591.75,-147.96 591.75,-166.46"/>
<text text-anchor="middle" x="577.75" y="-153.91" font-family="Times,serif" font-size="9.00">&#45;15</text>
</g>
<!-- &#45;15&#45;&gt;89 -->
<g id="edge1" class="edge">
<title>&#45;15&#45;&gt;89</title>
<path fill="none" stroke="green" stroke-width="0.44" stroke-dasharray="1,5" d="M570.03,-147.61C565.9,-143.55 560.49,-139.02 554.75,-136.35 500.94,-111.33 322.43,-92.66 252.85,-86.16"/>
<polygon fill="green" stroke="green" stroke-width="0.44" points="253.6,-82.72 243.32,-85.29 252.96,-89.69 253.6,-82.72"/>
</g>
<!-- &#45;15&#45;&gt;91 -->
<g id="edge37" class="edge">
<title>&#45;15&#45;&gt;91</title>
<path fill="none" stroke="red" stroke-width="0.16" stroke-dasharray="1,5" d="M587.54,-147.63C591.6,-144.11 596.38,-140 600.75,-136.35 615.19,-124.27 631.67,-110.92 644.42,-100.68"/>
<polygon fill="red" stroke="red" stroke-width="0.16" points="646.4,-103.58 652.02,-94.59 642.03,-98.11 646.4,-103.58"/>
</g>
<!-- &#45;15&#45;&gt;92 -->
<g id="edge33" class="edge">
<title>&#45;15&#45;&gt;92</title>
<path fill="none" stroke="red" stroke-width="0.77" d="M581.9,-147.6C586.49,-138.09 594.09,-122.33 600.6,-108.84"/>
<polygon fill="red" stroke="red" stroke-width="0.77" points="603.6,-110.68 604.8,-100.15 597.3,-107.64 603.6,-110.68"/>
</g>
<!-- &#45;16 -->
<g id="node16" class="node">
<title>&#45;16</title>
<polygon fill="lightgray" stroke="black" points="679.75,-166.46 651.75,-166.46 651.75,-147.96 679.75,-147.96 679.75,-166.46"/>
<text text-anchor="middle" x="665.75" y="-153.91" font-family="Times,serif" font-size="9.00">&#45;16</text>
</g>
<!-- &#45;16&#45;&gt;90 -->
<g id="edge17" class="edge">
<title>&#45;16&#45;&gt;90</title>
<path fill="none" stroke="red" stroke-width="0.31" stroke-dasharray="1,5" d="M657.92,-147.85C653.75,-143.85 648.35,-139.3 642.75,-136.35 585.98,-106.44 511.01,-92.62 470.92,-87"/>
<polygon fill="red" stroke="red" stroke-width="0.31" points="471.42,-83.53 461.05,-85.69 470.5,-90.47 471.42,-83.53"/>
</g>
<!-- &#45;16&#45;&gt;91 -->
<g id="edge16" class="edge">
<title>&#45;16&#45;&gt;91</title>
<path fill="none" stroke="red" stroke-width="0.28" d="M665.75,-147.6C665.75,-138.63 665.75,-124.1 665.75,-111.15"/>
<polygon fill="red" stroke="red" stroke-width="0.28" points="669.25,-111.24 665.75,-101.24 662.25,-111.24 669.25,-111.24"/>
</g>
<!-- &#45;16&#45;&gt;92 -->
<g id="edge30" class="edge">
<title>&#45;16&#45;&gt;92</title>
<path fill="none" stroke="green" stroke-width="0.2" d="M659.46,-147.6C651.97,-137.34 639.17,-119.82 628.86,-105.71"/>
<polygon fill="green" stroke="green" stroke-width="0.2" points="631.74,-103.72 623.01,-97.71 626.08,-107.85 631.74,-103.72"/>
</g>
<!-- &#45;17 -->
<g id="node17" class="node">
<title>&#45;17</title>
<polygon fill="lightgray" stroke="black" points="545.75,-166.46 517.75,-166.46 517.75,-147.96 545.75,-147.96 545.75,-166.46"/>
<text text-anchor="middle" x="531.75" y="-153.91" font-family="Times,serif" font-size="9.00">&#45;17</text>
</g>
<!-- &#45;17&#45;&gt;90 -->
<g id="edge10" class="edge">
<title>&#45;17&#45;&gt;90</title>
<path fill="none" stroke="red" stroke-width="0.37" d="M521.97,-147.62C517.91,-144.09 513.13,-139.99 508.75,-136.35 494.27,-124.32 477.72,-111.11 464.81,-100.93"/>
<polygon fill="red" stroke="red" stroke-width="0.37" points="466.99,-98.19 456.96,-94.76 462.66,-103.69 466.99,-98.19"/>
</g>
<!-- &#45;17&#45;&gt;92 -->
<g id="edge47" class="edge">
<title>&#45;17&#45;&gt;92</title>
<path fill="none" stroke="red" stroke-width="0.67" stroke-dasharray="1,5" d="M541.36,-147.6C553.78,-136.48 575.74,-116.81 592.03,-102.22"/>
<polygon fill="red" stroke="red" stroke-width="0.67" points="594.08,-105.08 599.2,-95.8 589.41,-99.87 594.08,-105.08"/>
</g>
<!-- &#45;18 -->
<g id="node18" class="node">
<title>&#45;18</title>
<polygon fill="lightgray" stroke="black" points="231.75,-315.53 203.75,-315.53 203.75,-297.03 231.75,-297.03 231.75,-315.53"/>
<text text-anchor="middle" x="217.75" y="-302.98" font-family="Times,serif" font-size="9.00">&#45;18</text>
</g>
<!-- &#45;19 -->
<g id="node19" class="node">
<title>&#45;19</title>
<polygon fill="lightgray" stroke="black" points="725.75,-166.46 697.75,-166.46 697.75,-147.96 725.75,-147.96 725.75,-166.46"/>
<text text-anchor="middle" x="711.75" y="-153.91" font-family="Times,serif" font-size="9.00">&#45;19</text>
</g>
<!-- &#45;19&#45;&gt;90 -->
<g id="edge14" class="edge">
<title>&#45;19&#45;&gt;90</title>
<path fill="none" stroke="green" stroke-width="0.16" d="M703.97,-147.73C699.83,-143.71 694.42,-139.17 688.75,-136.35 615.65,-99.98 518.13,-88.64 470.84,-85.16"/>
<polygon fill="green" stroke="green" stroke-width="0.16" points="471.19,-81.68 460.98,-84.5 470.72,-88.66 471.19,-81.68"/>
</g>
<!-- &#45;19&#45;&gt;91 -->
<g id="edge2" class="edge">
<title>&#45;19&#45;&gt;91</title>
<path fill="none" stroke="green" stroke-width="0.12" d="M706.29,-147.6C699.91,-137.53 689.08,-120.46 680.22,-106.49"/>
<polygon fill="green" stroke="green" stroke-width="0.12" points="683.42,-105 675.11,-98.43 677.51,-108.75 683.42,-105"/>
</g>
<!-- &#45;19&#45;&gt;92 -->
<g id="edge29" class="edge">
<title>&#45;19&#45;&gt;92</title>
<path fill="none" stroke="red" stroke-width="0.16" stroke-dasharray="1,5" d="M702.09,-147.47C698.05,-143.92 693.25,-139.84 688.75,-136.35 671.46,-122.95 651.04,-108.89 635.73,-98.67"/>
<polygon fill="red" stroke="red" stroke-width="0.16" points="637.83,-95.87 627.56,-93.26 633.97,-101.7 637.83,-95.87"/>
</g>
<!-- &#45;20 -->
<g id="node20" class="node">
<title>&#45;20</title>
<polygon fill="lightgray" stroke="black" points="457.75,-166.46 429.75,-166.46 429.75,-147.96 457.75,-147.96 457.75,-166.46"/>
<text text-anchor="middle" x="443.75" y="-153.91" font-family="Times,serif" font-size="9.00">&#45;20</text>
</g>
<!-- &#45;20&#45;&gt;89 -->
<g id="edge26" class="edge">
<title>&#45;20&#45;&gt;89</title>
<path fill="none" stroke="red" stroke-width="0.51" stroke-dasharray="1,5" d="M429.38,-151.45C393.27,-139.49 298.29,-108.03 251.54,-92.54"/>
<polygon fill="red" stroke="red" stroke-width="0.51" points="252.87,-89.29 242.27,-89.47 250.66,-95.94 252.87,-89.29"/>
</g>
<!-- &#45;20&#45;&gt;91 -->
<g id="edge11" class="edge">
<title>&#45;20&#45;&gt;91</title>
<path fill="none" stroke="red" stroke-width="0.41" stroke-dasharray="1,5" d="M451.52,-147.72C455.67,-143.69 461.07,-139.15 466.75,-136.35 537.17,-101.57 567.04,-130.04 639.75,-100.35 640.64,-99.98 641.53,-99.59 642.43,-99.17"/>
<polygon fill="red" stroke="red" stroke-width="0.41" points="644.11,-102.24 651.14,-94.31 640.7,-96.12 644.11,-102.24"/>
</g>
<!-- 0 -->
<g id="node21" class="node">
<title>0</title>
<ellipse fill="lightblue" stroke="black" cx="224.75" cy="-14.5" rx="14.5" ry="14.5"/>
<text text-anchor="middle" x="224.75" y="-11.2" font-family="Times,serif" font-size="9.00">0</text>
</g>
<!-- 0&#45;&gt;0 -->
<g id="edge38" class="edge">
<title>0&#45;&gt;0</title>
<path fill="none" stroke="red" stroke-width="0.16" d="M235.4,-24.65C245.81,-30.26 257.25,-26.88 257.25,-14.5 257.25,-5.98 251.84,-1.72 245.08,-1.71"/>
<polygon fill="red" stroke="red" stroke-width="0.16" points="244.37,1.72 235.63,-4.27 246.2,-5.04 244.37,1.72"/>
</g>
<!-- 1 -->
<g id="node22" class="node">
<title>1</title>
<ellipse fill="lightblue" stroke="black" cx="263.75" cy="-306.28" rx="14.5" ry="14.5"/>
<text text-anchor="middle" x="263.75" y="-302.98" font-family="Times,serif" font-size="9.00">1</text>
</g>
<!-- 2 -->
<g id="node23" class="node">
<title>2</title>
<ellipse fill="lightblue" stroke="black" cx="483.75" cy="-14.5" rx="14.5" ry="14.5"/>
<text text-anchor="middle" x="483.75" y="-11.2" font-family="Times,serif" font-size="9.00">2</text>
</g>
<!-- 3 -->
<g id="node24" class="node">
<title>3</title>
<ellipse fill="lightblue" stroke="black" cx="615.75" cy="-14.5" rx="14.5" ry="14.5"/>
<text text-anchor="middle" x="615.75" y="-11.2" font-family="Times,serif" font-size="9.00">3</text>
</g>
<!-- 4 -->
<g id="node25" class="node">
<title>4</title>
<ellipse fill="lightblue" stroke="black" cx="665.75" cy="-14.5" rx="14.5" ry="14.5"/>
<text text-anchor="middle" x="665.75" y="-11.2" font-family="Times,serif" font-size="9.00">4</text>
</g>
<!-- 4&#45;&gt;4 -->
<g id="edge19" class="edge">
<title>4&#45;&gt;4</title>
<path fill="none" stroke="green" stroke-width="0.52" d="M676.4,-24.65C686.81,-30.26 698.25,-26.88 698.25,-14.5 698.25,-6.18 693.08,-1.92 686.54,-1.72"/>
<polygon fill="green" stroke="green" stroke-width="0.52" points="685.96,1.75 677.16,-4.14 687.71,-5.03 685.96,1.75"/>
</g>
<!-- 281&#45;&gt;90 -->
<g id="edge43" class="edge">
<title>281&#45;&gt;90</title>
<path fill="none" stroke="red" stroke-width="0.24" stroke-dasharray="1,5" d="M274.04,-140.61C276.56,-139.08 279.17,-137.62 281.75,-136.35 326.25,-114.34 382.24,-97.5 415.32,-89.26"/>
<polygon fill="red" stroke="red" stroke-width="0.24" points="415.95,-92.7 424.86,-86.97 414.32,-85.9 415.95,-92.7"/>
</g>
<!-- 364&#45;&gt;281 -->
<g id="edge46" class="edge">
<title>364&#45;&gt;281</title>
<path fill="none" stroke="red" stroke-width="0.44" stroke-dasharray="1,5" d="M263.68,-213.63C263.28,-206.02 262.81,-197.19 262.37,-188.84"/>
<polygon fill="red" stroke="red" stroke-width="0.44" points="265.87,-188.75 261.85,-178.95 258.88,-189.12 265.87,-188.75"/>
</g>
<!-- 89&#45;&gt;0 -->
<g id="edge5" class="edge">
<title>89&#45;&gt;0</title>
<path fill="none" stroke="red" stroke-width="0.16" d="M224.75,-64.63C224.75,-56.87 224.75,-47.57 224.75,-39.15"/>
<polygon fill="red" stroke="red" stroke-width="0.16" points="228.25,-39.39 224.75,-29.39 221.25,-39.39 228.25,-39.39"/>
</g>
<!-- 90&#45;&gt;2 -->
<g id="edge15" class="edge">
<title>90&#45;&gt;2</title>
<path fill="none" stroke="red" stroke-width="0.6" d="M451.85,-66.98C457.37,-58.07 464.51,-46.55 470.63,-36.67"/>
<polygon fill="red" stroke="red" stroke-width="0.6" points="473.55,-38.6 475.84,-28.26 467.6,-34.91 473.55,-38.6"/>
</g>
<!-- 90&#45;&gt;281 -->
<g id="edge44" class="edge">
<title>90&#45;&gt;281</title>
<path fill="none" stroke="green" stroke-width="0.47" stroke-dasharray="1,5" d="M426.01,-89.65C398.5,-98.02 343.56,-114.68 299.75,-136.35 296.14,-138.13 292.44,-140.28 288.78,-142.49"/>
<polygon fill="green" stroke="green" stroke-width="0.47" points="287.17,-139.38 280.47,-147.59 290.83,-145.35 287.17,-139.38"/>
</g>
<!-- 90&#45;&gt;364 -->
<g id="edge45" class="edge">
<title>90&#45;&gt;364</title>
<path fill="none" stroke="green" stroke-width="0.4" d="M436.18,-99.28C426.91,-119.72 408.22,-155.57 382.75,-178.07 356.92,-200.88 320.14,-216.3 294.54,-225.06"/>
<polygon fill="green" stroke="green" stroke-width="0.4" points="293.64,-221.67 285.23,-228.11 295.82,-228.32 293.64,-221.67"/>
</g>
<!-- 91&#45;&gt;2 -->
<g id="edge3" class="edge">
<title>91&#45;&gt;2</title>
<path fill="none" stroke="red" stroke-width="0.1" d="M651.56,-71.62C647.83,-69.24 643.73,-66.86 639.75,-64.99 594.92,-43.95 538.82,-28.62 507.58,-20.97"/>
<polygon fill="red" stroke="red" stroke-width="0.1" points="508.68,-17.64 498.14,-18.71 507.05,-24.45 508.68,-17.64"/>
</g>
<!-- 91&#45;&gt;3 -->
<g id="edge4" class="edge">
<title>91&#45;&gt;3</title>
<path fill="none" stroke="red" stroke-width="0.27" d="M655.39,-67.96C648.15,-58.38 638.38,-45.45 630.35,-34.82"/>
<polygon fill="red" stroke="red" stroke-width="0.27" points="633.18,-32.75 624.36,-26.89 627.59,-36.97 633.18,-32.75"/>
</g>
<!-- 91&#45;&gt;4 -->
<g id="edge41" class="edge">
<title>91&#45;&gt;4</title>
<path fill="none" stroke="red" stroke-width="0.63" d="M665.75,-64.63C665.75,-57.13 665.75,-48.19 665.75,-39.99"/>
<polygon fill="red" stroke="red" stroke-width="0.63" points="669.25,-40.09 665.75,-30.09 662.25,-40.09 669.25,-40.09"/>
</g>
<!-- 92&#45;&gt;3 -->
<g id="edge31" class="edge">
<title>92&#45;&gt;3</title>
<path fill="none" stroke="green" stroke-width="0.48" d="M613.52,-64.63C613.87,-57.05 614.28,-47.98 614.65,-39.71"/>
<polygon fill="green" stroke="green" stroke-width="0.48" points="618.14,-40.01 615.1,-29.87 611.15,-39.7 618.14,-40.01"/>
</g>
</g>
</svg>
