<?xml version="1.0" encoding="UTF-8" standalone="no"?>
<!DOCTYPE svg PUBLIC "-//W3C//DTD SVG 1.1//EN"
 "http://www.w3.org/Graphics/SVG/1.1/DTD/svg11.dtd">
<!-- Generated by graphviz version 12.1.1 (20240910.0053)
 -->
<!-- Pages: 1 -->
<svg width="1084pt" height="344pt"
 viewBox="0.00 0.00 1083.75 343.74" xmlns="http://www.w3.org/2000/svg" xmlns:xlink="http://www.w3.org/1999/xlink">
<g id="graph0" class="graph" transform="scale(1 1) rotate(0) translate(4 339.74)">
<polygon fill="white" stroke="none" points="-4,4 -4,-339.74 1079.75,-339.74 1079.75,4 -4,4"/>
<!-- &#45;1 -->
<g id="node1" class="node">
<title>&#45;1</title>
<polygon fill="lightgray" stroke="black" points="107.5,-266.45 84,-266.45 84,-247.95 107.5,-247.95 107.5,-266.45"/>
<text text-anchor="middle" x="95.75" y="-253.9" font-family="Times,serif" font-size="9.00">&#45;1</text>
</g>
<!-- 1 -->
<g id="node22" class="node">
<title>1</title>
<ellipse fill="lightblue" stroke="black" cx="146.75" cy="-89.03" rx="14.5" ry="14.5"/>
<text text-anchor="middle" x="146.75" y="-85.73" font-family="Times,serif" font-size="9.00">1</text>
</g>
<!-- &#45;1&#45;&gt;1 -->
<g id="edge47" class="edge">
<title>&#45;1&#45;&gt;1</title>
<path fill="none" stroke="red" stroke-width="0.25" d="M98.35,-247.73C105.96,-222.95 128.36,-149.95 139.82,-112.61"/>
<polygon fill="red" stroke="red" stroke-width="0.25" points="143.04,-114.04 142.63,-103.45 136.35,-111.99 143.04,-114.04"/>
</g>
<!-- 3488 -->
<g id="node26" class="node">
<title>3488</title>
<ellipse fill="white" stroke="black" cx="176.75" cy="-173.12" rx="24.04" ry="24.04"/>
<text text-anchor="middle" x="176.75" y="-169.82" font-family="Times,serif" font-size="9.00">3488</text>
</g>
<!-- &#45;1&#45;&gt;3488 -->
<g id="edge15" class="edge">
<title>&#45;1&#45;&gt;3488</title>
<path fill="none" stroke="red" stroke-width="0.27" d="M103.42,-247.56C107.35,-243.19 112.25,-237.84 116.75,-233.16 128.28,-221.18 141.41,-208.19 152.44,-197.45"/>
<polygon fill="red" stroke="red" stroke-width="0.27" points="154.66,-200.17 159.41,-190.7 149.79,-195.14 154.66,-200.17"/>
</g>
<!-- 3486 -->
<g id="node32" class="node">
<title>3486</title>
<ellipse fill="white" stroke="black" cx="776.75" cy="-173.12" rx="24.04" ry="24.04"/>
<text text-anchor="middle" x="776.75" y="-169.82" font-family="Times,serif" font-size="9.00">3486</text>
</g>
<!-- &#45;1&#45;&gt;3486 -->
<g id="edge39" class="edge">
<title>&#45;1&#45;&gt;3486</title>
<path fill="none" stroke="red" stroke-width="0.11" d="M100.9,-247.87C104.61,-242.67 110.12,-236.37 116.75,-233.16 219.81,-183.27 516.98,-210.09 630.75,-197.16 669.52,-192.75 713.75,-185.45 743.27,-180.25"/>
<polygon fill="red" stroke="red" stroke-width="0.11" points="743.67,-183.73 752.9,-178.53 742.45,-176.84 743.67,-183.73"/>
</g>
<!-- &#45;2 -->
<g id="node2" class="node">
<title>&#45;2</title>
<polygon fill="lightgray" stroke="black" points="1029.5,-335.74 1006,-335.74 1006,-317.24 1029.5,-317.24 1029.5,-335.74"/>
<text text-anchor="middle" x="1017.75" y="-323.19" font-family="Times,serif" font-size="9.00">&#45;2</text>
</g>
<!-- &#45;3 -->
<g id="node3" class="node">
<title>&#45;3</title>
<polygon fill="lightgray" stroke="black" points="547.5,-266.45 524,-266.45 524,-247.95 547.5,-247.95 547.5,-266.45"/>
<text text-anchor="middle" x="535.75" y="-253.9" font-family="Times,serif" font-size="9.00">&#45;3</text>
</g>
<!-- 3485 -->
<g id="node31" class="node">
<title>3485</title>
<ellipse fill="white" stroke="black" cx="424.75" cy="-173.12" rx="24.04" ry="24.04"/>
<text text-anchor="middle" x="424.75" y="-169.82" font-family="Times,serif" font-size="9.00">3485</text>
</g>
<!-- &#45;3&#45;&gt;3485 -->
<g id="edge24" class="edge">
<title>&#45;3&#45;&gt;3485</title>
<path fill="none" stroke="green" stroke-width="0.55" d="M528.83,-247.61C524.94,-243.06 519.86,-237.51 514.75,-233.16 495.98,-217.15 472.64,-201.96 454.43,-190.99"/>
<polygon fill="green" stroke="green" stroke-width="0.55" points="456.54,-188.17 446.15,-186.08 452.97,-194.19 456.54,-188.17"/>
</g>
<!-- 3487 -->
<g id="node33" class="node">
<title>3487</title>
<ellipse fill="white" stroke="black" cx="597.75" cy="-173.12" rx="24.04" ry="24.04"/>
<text text-anchor="middle" x="597.75" y="-169.82" font-family="Times,serif" font-size="9.00">3487</text>
</g>
<!-- &#45;3&#45;&gt;3487 -->
<g id="edge9" class="edge">
<title>&#45;3&#45;&gt;3487</title>
<path fill="none" stroke="green" stroke-width="0.76" stroke-dasharray="1,5" d="M542.15,-247.72C550.35,-236.87 564.95,-217.54 577.13,-201.41"/>
<polygon fill="green" stroke="green" stroke-width="0.76" points="579.67,-203.86 582.91,-193.77 574.09,-199.64 579.67,-203.86"/>
</g>
<!-- &#45;4 -->
<g id="node4" class="node">
<title>&#45;4</title>
<polygon fill="lightgray" stroke="black" points="287.5,-266.45 264,-266.45 264,-247.95 287.5,-247.95 287.5,-266.45"/>
<text text-anchor="middle" x="275.75" y="-253.9" font-family="Times,serif" font-size="9.00">&#45;4</text>
</g>
<!-- &#45;4&#45;&gt;3485 -->
<g id="edge30" class="edge">
<title>&#45;4&#45;&gt;3485</title>
<path fill="none" stroke="green" stroke-width="0.15" d="M282.06,-247.75C285.91,-243.01 291.16,-237.25 296.75,-233.16 326.47,-211.4 365.49,-194.82 392.6,-184.85"/>
<polygon fill="green" stroke="green" stroke-width="0.15" points="393.56,-188.22 401.79,-181.55 391.2,-181.63 393.56,-188.22"/>
</g>
<!-- &#45;5 -->
<g id="node5" class="node">
<title>&#45;5</title>
<polygon fill="lightgray" stroke="black" points="23.5,-266.45 0,-266.45 0,-247.95 23.5,-247.95 23.5,-266.45"/>
<text text-anchor="middle" x="11.75" y="-253.9" font-family="Times,serif" font-size="9.00">&#45;5</text>
</g>
<!-- &#45;5&#45;&gt;3488 -->
<g id="edge21" class="edge">
<title>&#45;5&#45;&gt;3488</title>
<path fill="none" stroke="red" stroke-width="0.28" d="M17.99,-247.66C21.82,-242.89 27.07,-237.13 32.75,-233.16 67.26,-209.02 113.13,-192.38 143.74,-183.07"/>
<polygon fill="red" stroke="red" stroke-width="0.28" points="144.48,-186.5 153.08,-180.31 142.5,-179.78 144.48,-186.5"/>
</g>
<!-- &#45;6 -->
<g id="node6" class="node">
<title>&#45;6</title>
<polygon fill="lightgray" stroke="black" points="65.5,-266.45 42,-266.45 42,-247.95 65.5,-247.95 65.5,-266.45"/>
<text text-anchor="middle" x="53.75" y="-253.9" font-family="Times,serif" font-size="9.00">&#45;6</text>
</g>
<!-- &#45;6&#45;&gt;3488 -->
<g id="edge19" class="edge">
<title>&#45;6&#45;&gt;3488</title>
<path fill="none" stroke="green" stroke-width="0.4" d="M60.57,-247.5C64.43,-242.91 69.52,-237.37 74.75,-233.16 96.76,-215.43 124.71,-199.64 145.79,-188.86"/>
<polygon fill="green" stroke="green" stroke-width="0.4" points="147.31,-192.01 154.69,-184.4 144.18,-185.75 147.31,-192.01"/>
</g>
<!-- &#45;7 -->
<g id="node7" class="node">
<title>&#45;7</title>
<polygon fill="lightgray" stroke="black" points="589.5,-266.45 566,-266.45 566,-247.95 589.5,-247.95 589.5,-266.45"/>
<text text-anchor="middle" x="577.75" y="-253.9" font-family="Times,serif" font-size="9.00">&#45;7</text>
</g>
<!-- &#45;7&#45;&gt;3488 -->
<g id="edge16" class="edge">
<title>&#45;7&#45;&gt;3488</title>
<path fill="none" stroke="green" stroke-width="0.12" d="M572.17,-247.6C568.43,-242.56 563.04,-236.54 556.75,-233.16 526.44,-216.88 298.59,-188.54 210.95,-178.11"/>
<polygon fill="green" stroke="green" stroke-width="0.12" points="211.51,-174.65 201.16,-176.95 210.68,-181.61 211.51,-174.65"/>
</g>
<!-- &#45;7&#45;&gt;3485 -->
<g id="edge7" class="edge">
<title>&#45;7&#45;&gt;3485</title>
<path fill="none" stroke="green" stroke-width="0.11" stroke-dasharray="1,5" d="M571.46,-247.72C567.61,-242.98 562.36,-237.22 556.75,-233.16 525.82,-210.79 485.05,-194.16 457.06,-184.35"/>
<polygon fill="green" stroke="green" stroke-width="0.11" points="458.48,-181.13 447.89,-181.22 456.22,-187.76 458.48,-181.13"/>
</g>
<!-- &#45;7&#45;&gt;3486 -->
<g id="edge6" class="edge">
<title>&#45;7&#45;&gt;3486</title>
<path fill="none" stroke="green" stroke-width="0.28" d="M589.9,-251.19C620.26,-238.67 700.22,-205.68 745.08,-187.18"/>
<polygon fill="green" stroke="green" stroke-width="0.28" points="746.32,-190.45 754.23,-183.4 743.65,-183.98 746.32,-190.45"/>
</g>
<!-- &#45;7&#45;&gt;3487 -->
<g id="edge29" class="edge">
<title>&#45;7&#45;&gt;3487</title>
<path fill="none" stroke="green" stroke-width="0.58" stroke-dasharray="1,5" d="M579.82,-247.72C582.14,-238.17 586.08,-222.03 589.67,-207.3"/>
<polygon fill="green" stroke="green" stroke-width="0.58" points="593.02,-208.32 591.98,-197.78 586.22,-206.67 593.02,-208.32"/>
</g>
<!-- &#45;8 -->
<g id="node8" class="node">
<title>&#45;8</title>
<polygon fill="lightgray" stroke="black" points="761.5,-266.45 738,-266.45 738,-247.95 761.5,-247.95 761.5,-266.45"/>
<text text-anchor="middle" x="749.75" y="-253.9" font-family="Times,serif" font-size="9.00">&#45;8</text>
</g>
<!-- &#45;8&#45;&gt;3486 -->
<g id="edge22" class="edge">
<title>&#45;8&#45;&gt;3486</title>
<path fill="none" stroke="green" stroke-width="1.05" d="M752.54,-247.72C755.69,-238.13 761.03,-221.9 765.89,-207.12"/>
<polygon fill="green" stroke="green" stroke-width="1.05" points="769.18,-208.34 768.98,-197.74 762.53,-206.15 769.18,-208.34"/>
</g>
<!-- &#45;8&#45;&gt;3487 -->
<g id="edge10" class="edge">
<title>&#45;8&#45;&gt;3487</title>
<path fill="none" stroke="green" stroke-width="0.36" d="M743.46,-247.73C739.61,-242.99 734.36,-237.23 728.75,-233.16 698.18,-210.98 657.94,-194.38 630.17,-184.52"/>
<polygon fill="green" stroke="green" stroke-width="0.36" points="631.66,-181.33 621.07,-181.38 629.38,-187.95 631.66,-181.33"/>
</g>
<!-- &#45;9 -->
<g id="node9" class="node">
<title>&#45;9</title>
<polygon fill="lightgray" stroke="black" points="375.5,-266.45 352,-266.45 352,-247.95 375.5,-247.95 375.5,-266.45"/>
<text text-anchor="middle" x="363.75" y="-253.9" font-family="Times,serif" font-size="9.00">&#45;9</text>
</g>
<!-- &#45;9&#45;&gt;3488 -->
<g id="edge4" class="edge">
<title>&#45;9&#45;&gt;3488</title>
<path fill="none" stroke="red" stroke-width="0.87" d="M357.58,-247.56C353.77,-242.75 348.52,-236.99 342.75,-233.16 301.61,-205.81 246.3,-189.46 211.08,-181.13"/>
<polygon fill="red" stroke="red" stroke-width="0.87" points="212.2,-177.79 201.67,-178.99 210.65,-184.62 212.2,-177.79"/>
</g>
<!-- &#45;9&#45;&gt;3487 -->
<g id="edge28" class="edge">
<title>&#45;9&#45;&gt;3487</title>
<path fill="none" stroke="red" stroke-width="0.15" d="M375.89,-251.27C387.77,-246.48 406.42,-239.1 422.75,-233.16 472.19,-215.17 530.14,-195.99 565.39,-184.53"/>
<polygon fill="red" stroke="red" stroke-width="0.15" points="566.04,-188 574.48,-181.58 563.88,-181.34 566.04,-188"/>
</g>
<!-- &#45;10 -->
<g id="node10" class="node">
<title>&#45;10</title>
<polygon fill="lightgray" stroke="black" points="153.75,-266.45 125.75,-266.45 125.75,-247.95 153.75,-247.95 153.75,-266.45"/>
<text text-anchor="middle" x="139.75" y="-253.9" font-family="Times,serif" font-size="9.00">&#45;10</text>
</g>
<!-- &#45;10&#45;&gt;3488 -->
<g id="edge37" class="edge">
<title>&#45;10&#45;&gt;3488</title>
<path fill="none" stroke="red" stroke-width="0.34" d="M143.57,-247.72C148.13,-237.62 156,-220.15 162.93,-204.77"/>
<polygon fill="red" stroke="red" stroke-width="0.34" points="165.96,-206.58 166.88,-196.02 159.58,-203.7 165.96,-206.58"/>
</g>
<!-- &#45;11 -->
<g id="node11" class="node">
<title>&#45;11</title>
<polygon fill="lightgray" stroke="black" points="987.75,-335.74 959.75,-335.74 959.75,-317.24 987.75,-317.24 987.75,-335.74"/>
<text text-anchor="middle" x="973.75" y="-323.19" font-family="Times,serif" font-size="9.00">&#45;11</text>
</g>
<!-- 3630 -->
<g id="node29" class="node">
<title>3630</title>
<ellipse fill="white" stroke="black" cx="973.75" cy="-257.2" rx="24.04" ry="24.04"/>
<text text-anchor="middle" x="973.75" y="-253.9" font-family="Times,serif" font-size="9.00">3630</text>
</g>
<!-- &#45;11&#45;&gt;3630 -->
<g id="edge43" class="edge">
<title>&#45;11&#45;&gt;3630</title>
<path fill="none" stroke="green" stroke-width="0.2" d="M973.75,-316.97C973.75,-310.48 973.75,-301.08 973.75,-291.7"/>
<polygon fill="green" stroke="green" stroke-width="0.2" points="977.25,-291.97 973.75,-281.97 970.25,-291.97 977.25,-291.97"/>
</g>
<!-- &#45;11&#45;&gt;3486 -->
<g id="edge38" class="edge">
<title>&#45;11&#45;&gt;3486</title>
<path fill="none" stroke="red" stroke-width="0.57" stroke-dasharray="1,5" d="M982.77,-317.01C990.82,-308.76 1002.04,-295.43 1006.75,-281.24 1013.48,-260.96 1019.85,-250.04 1006.75,-233.16 982.95,-202.48 869.66,-184.98 811.45,-177.88"/>
<polygon fill="red" stroke="red" stroke-width="0.57" points="812.13,-174.43 801.79,-176.74 811.31,-181.39 812.13,-174.43"/>
</g>
<!-- &#45;11&#45;&gt;3487 -->
<g id="edge14" class="edge">
<title>&#45;11&#45;&gt;3487</title>
<path fill="none" stroke="green" stroke-width="0.2" d="M959.26,-324.47C898.02,-320.04 662.35,-301.78 636.75,-281.24 614.46,-263.36 604.91,-231.58 600.82,-207.26"/>
<polygon fill="green" stroke="green" stroke-width="0.2" points="604.32,-207.04 599.42,-197.65 597.39,-208.05 604.32,-207.04"/>
</g>
<!-- &#45;12 -->
<g id="node12" class="node">
<title>&#45;12</title>
<polygon fill="lightgray" stroke="black" points="199.75,-266.45 171.75,-266.45 171.75,-247.95 199.75,-247.95 199.75,-266.45"/>
<text text-anchor="middle" x="185.75" y="-253.9" font-family="Times,serif" font-size="9.00">&#45;12</text>
</g>
<!-- &#45;12&#45;&gt;3488 -->
<g id="edge3" class="edge">
<title>&#45;12&#45;&gt;3488</title>
<path fill="none" stroke="green" stroke-width="0.16" d="M184.82,-247.72C183.77,-238.14 181.99,-221.94 180.37,-207.18"/>
<polygon fill="green" stroke="green" stroke-width="0.16" points="183.88,-207.07 179.32,-197.52 176.93,-207.84 183.88,-207.07"/>
</g>
<!-- &#45;12&#45;&gt;3485 -->
<g id="edge26" class="edge">
<title>&#45;12&#45;&gt;3485</title>
<path fill="none" stroke="green" stroke-width="0.12" d="M192.17,-247.86C196.39,-242.92 202.3,-236.91 208.75,-233.16 267.25,-199.15 346.04,-184.1 390.5,-177.94"/>
<polygon fill="green" stroke="green" stroke-width="0.12" points="390.86,-181.42 400.32,-176.65 389.95,-174.48 390.86,-181.42"/>
</g>
<!-- &#45;13 -->
<g id="node13" class="node">
<title>&#45;13</title>
<polygon fill="lightgray" stroke="black" points="1075.75,-335.74 1047.75,-335.74 1047.75,-317.24 1075.75,-317.24 1075.75,-335.74"/>
<text text-anchor="middle" x="1061.75" y="-323.19" font-family="Times,serif" font-size="9.00">&#45;13</text>
</g>
<!-- &#45;14 -->
<g id="node14" class="node">
<title>&#45;14</title>
<polygon fill="lightgray" stroke="black" points="333.75,-266.45 305.75,-266.45 305.75,-247.95 333.75,-247.95 333.75,-266.45"/>
<text text-anchor="middle" x="319.75" y="-253.9" font-family="Times,serif" font-size="9.00">&#45;14</text>
</g>
<!-- &#45;14&#45;&gt;3485 -->
<g id="edge11" class="edge">
<title>&#45;14&#45;&gt;3485</title>
<path fill="none" stroke="red" stroke-width="0.37" d="M327.53,-247.76C331.85,-243.25 337.41,-237.7 342.75,-233.16 359.77,-218.67 380.16,-203.98 396.35,-192.88"/>
<polygon fill="red" stroke="red" stroke-width="0.37" points="398.09,-195.93 404.4,-187.42 394.16,-190.13 398.09,-195.93"/>
</g>
<!-- &#45;15 -->
<g id="node15" class="node">
<title>&#45;15</title>
<polygon fill="lightgray" stroke="black" points="719.75,-266.45 691.75,-266.45 691.75,-247.95 719.75,-247.95 719.75,-266.45"/>
<text text-anchor="middle" x="705.75" y="-253.9" font-family="Times,serif" font-size="9.00">&#45;15</text>
</g>
<!-- &#45;15&#45;&gt;3486 -->
<g id="edge18" class="edge">
<title>&#45;15&#45;&gt;3486</title>
<path fill="none" stroke="green" stroke-width="0.13" stroke-dasharray="1,5" d="M713.08,-247.72C722.82,-236.46 740.47,-216.06 754.72,-199.59"/>
<polygon fill="green" stroke="green" stroke-width="0.13" points="757.36,-201.88 761.26,-192.03 752.07,-197.3 757.36,-201.88"/>
</g>
<!-- &#45;15&#45;&gt;3487 -->
<g id="edge20" class="edge">
<title>&#45;15&#45;&gt;3487</title>
<path fill="none" stroke="red" stroke-width="0.39" stroke-dasharray="1,5" d="M698,-247.73C693.69,-243.2 688.13,-237.66 682.75,-233.16 665.08,-218.37 643.78,-203.58 626.92,-192.5"/>
<polygon fill="red" stroke="red" stroke-width="0.39" points="628.85,-189.59 618.56,-187.08 625.04,-195.46 628.85,-189.59"/>
</g>
<!-- &#45;16 -->
<g id="node16" class="node">
<title>&#45;16</title>
<polygon fill="lightgray" stroke="black" points="673.75,-266.45 645.75,-266.45 645.75,-247.95 673.75,-247.95 673.75,-266.45"/>
<text text-anchor="middle" x="659.75" y="-253.9" font-family="Times,serif" font-size="9.00">&#45;16</text>
</g>
<!-- &#45;16&#45;&gt;3485 -->
<g id="edge32" class="edge">
<title>&#45;16&#45;&gt;3485</title>
<path fill="none" stroke="red" stroke-width="0.23" d="M645.26,-250.57C632.93,-245.81 614.74,-238.89 598.75,-233.16 549.69,-215.57 492.38,-196.39 457.34,-184.81"/>
<polygon fill="red" stroke="red" stroke-width="0.23" points="458.56,-181.52 447.97,-181.72 456.37,-188.17 458.56,-181.52"/>
</g>
<!-- &#45;16&#45;&gt;3486 -->
<g id="edge33" class="edge">
<title>&#45;16&#45;&gt;3486</title>
<path fill="none" stroke="green" stroke-width="0.32" d="M667.42,-247.63C671.7,-243.07 677.27,-237.53 682.75,-233.16 702.94,-217.04 727.77,-201.61 746.83,-190.57"/>
<polygon fill="green" stroke="green" stroke-width="0.32" points="748.31,-193.76 755.26,-185.76 744.84,-187.68 748.31,-193.76"/>
</g>
<!-- &#45;16&#45;&gt;3487 -->
<g id="edge13" class="edge">
<title>&#45;16&#45;&gt;3487</title>
<path fill="none" stroke="green" stroke-width="0.28" d="M653.35,-247.72C645.08,-236.77 630.28,-217.18 618.03,-200.97"/>
<polygon fill="green" stroke="green" stroke-width="0.28" points="620.98,-199.07 612.16,-193.2 615.4,-203.29 620.98,-199.07"/>
</g>
<!-- &#45;17 -->
<g id="node17" class="node">
<title>&#45;17</title>
<polygon fill="lightgray" stroke="black" points="245.75,-266.45 217.75,-266.45 217.75,-247.95 245.75,-247.95 245.75,-266.45"/>
<text text-anchor="middle" x="231.75" y="-253.9" font-family="Times,serif" font-size="9.00">&#45;17</text>
</g>
<!-- &#45;17&#45;&gt;3488 -->
<g id="edge25" class="edge">
<title>&#45;17&#45;&gt;3488</title>
<path fill="none" stroke="green" stroke-width="0.63" d="M226.07,-247.72C218.96,-237.11 206.41,-218.38 195.75,-202.48"/>
<polygon fill="green" stroke="green" stroke-width="0.63" points="198.75,-200.66 190.28,-194.31 192.94,-204.56 198.75,-200.66"/>
</g>
<!-- &#45;17&#45;&gt;3485 -->
<g id="edge34" class="edge">
<title>&#45;17&#45;&gt;3485</title>
<path fill="none" stroke="green" stroke-width="0.29" stroke-dasharray="1,5" d="M238.65,-247.56C242.87,-242.76 248.62,-237 254.75,-233.16 297.99,-206.03 355.28,-189.48 391.07,-181.06"/>
<polygon fill="green" stroke="green" stroke-width="0.29" points="391.6,-184.53 400.58,-178.9 390.05,-177.7 391.6,-184.53"/>
</g>
<!-- &#45;18 -->
<g id="node18" class="node">
<title>&#45;18</title>
<polygon fill="lightgray" stroke="black" points="850.75,-335.74 822.75,-335.74 822.75,-317.24 850.75,-317.24 850.75,-335.74"/>
<text text-anchor="middle" x="836.75" y="-323.19" font-family="Times,serif" font-size="9.00">&#45;18</text>
</g>
<!-- 3661 -->
<g id="node28" class="node">
<title>3661</title>
<ellipse fill="white" stroke="black" cx="803.75" cy="-257.2" rx="24.04" ry="24.04"/>
<text text-anchor="middle" x="803.75" y="-253.9" font-family="Times,serif" font-size="9.00">3661</text>
</g>
<!-- &#45;18&#45;&gt;3661 -->
<g id="edge45" class="edge">
<title>&#45;18&#45;&gt;3661</title>
<path fill="none" stroke="green" stroke-width="0.24" d="M832.57,-316.97C829.04,-309.77 823.76,-299 818.68,-288.63"/>
<polygon fill="green" stroke="green" stroke-width="0.24" points="821.83,-287.11 814.28,-279.67 815.54,-290.19 821.83,-287.11"/>
</g>
<!-- 3572 -->
<g id="node30" class="node">
<title>3572</title>
<ellipse fill="white" stroke="black" cx="869.75" cy="-257.2" rx="24.04" ry="24.04"/>
<text text-anchor="middle" x="869.75" y="-253.9" font-family="Times,serif" font-size="9.00">3572</text>
</g>
<!-- &#45;18&#45;&gt;3572 -->
<g id="edge41" class="edge">
<title>&#45;18&#45;&gt;3572</title>
<path fill="none" stroke="red" stroke-width="0.19" stroke-dasharray="1,5" d="M840.93,-316.97C844.5,-309.69 849.85,-298.78 854.98,-288.32"/>
<polygon fill="red" stroke="red" stroke-width="0.19" points="857.99,-290.13 859.25,-279.61 851.71,-287.04 857.99,-290.13"/>
</g>
<!-- &#45;18&#45;&gt;3485 -->
<g id="edge1" class="edge">
<title>&#45;18&#45;&gt;3485</title>
<path fill="none" stroke="red" stroke-width="0.52" d="M822.61,-325.08C753.14,-322.9 450.11,-311.68 422.75,-281.24 404.85,-261.33 407.71,-229.94 413.65,-206.27"/>
<polygon fill="red" stroke="red" stroke-width="0.52" points="416.98,-207.35 416.32,-196.77 410.24,-205.45 416.98,-207.35"/>
</g>
<!-- &#45;18&#45;&gt;3486 -->
<g id="edge5" class="edge">
<title>&#45;18&#45;&gt;3486</title>
<path fill="none" stroke="red" stroke-width="0.32" stroke-dasharray="1,5" d="M851.2,-320.54C867.12,-314.21 891.91,-301.57 902.75,-281.24 912.81,-262.39 914.22,-251.19 902.75,-233.16 882.69,-201.61 840.84,-186.63 810.87,-179.71"/>
<polygon fill="red" stroke="red" stroke-width="0.32" points="811.81,-176.33 801.3,-177.69 810.36,-183.18 811.81,-176.33"/>
</g>
<!-- &#45;19 -->
<g id="node19" class="node">
<title>&#45;19</title>
<polygon fill="lightgray" stroke="black" points="459.75,-266.45 431.75,-266.45 431.75,-247.95 459.75,-247.95 459.75,-266.45"/>
<text text-anchor="middle" x="445.75" y="-253.9" font-family="Times,serif" font-size="9.00">&#45;19</text>
</g>
<!-- &#45;19&#45;&gt;3485 -->
<g id="edge17" class="edge">
<title>&#45;19&#45;&gt;3485</title>
<path fill="none" stroke="red" stroke-width="0.5" stroke-dasharray="1,5" d="M443.58,-247.72C441.14,-238.17 437.01,-222.03 433.24,-207.3"/>
<polygon fill="red" stroke="red" stroke-width="0.5" points="436.65,-206.49 430.78,-197.67 429.86,-208.23 436.65,-206.49"/>
</g>
<!-- &#45;20 -->
<g id="node20" class="node">
<title>&#45;20</title>
<polygon fill="lightgray" stroke="black" points="505.75,-266.45 477.75,-266.45 477.75,-247.95 505.75,-247.95 505.75,-266.45"/>
<text text-anchor="middle" x="491.75" y="-253.9" font-family="Times,serif" font-size="9.00">&#45;20</text>
</g>
<!-- &#45;20&#45;&gt;3485 -->
<g id="edge36" class="edge">
<title>&#45;20&#45;&gt;3485</title>
<path fill="none" stroke="red" stroke-width="0.57" stroke-dasharray="1,5" d="M484.83,-247.72C475.78,-236.63 459.49,-216.68 446.16,-200.35"/>
<polygon fill="red" stroke="red" stroke-width="0.57" points="449.1,-198.41 440.06,-192.87 443.67,-202.83 449.1,-198.41"/>
</g>
<!-- 0 -->
<g id="node21" class="node">
<title>0</title>
<ellipse fill="lightblue" stroke="black" cx="205.75" cy="-89.03" rx="14.5" ry="14.5"/>
<text text-anchor="middle" x="205.75" y="-85.73" font-family="Times,serif" font-size="9.00">0</text>
</g>
<!-- 2 -->
<g id="node23" class="node">
<title>2</title>
<ellipse fill="lightblue" stroke="black" cx="487.75" cy="-89.03" rx="14.5" ry="14.5"/>
<text text-anchor="middle" x="487.75" y="-85.73" font-family="Times,serif" font-size="9.00">2</text>
</g>
<!-- 3 -->
<g id="node24" class="node">
<title>3</title>
<ellipse fill="lightblue" stroke="black" cx="597.75" cy="-89.03" rx="14.5" ry="14.5"/>
<text text-anchor="middle" x="597.75" y="-85.73" font-family="Times,serif" font-size="9.00">3</text>
</g>
<!-- 4 -->
<g id="node25" class="node">
<title>4</title>
<ellipse fill="lightblue" stroke="black" cx="776.75" cy="-14.5" rx="14.5" ry="14.5"/>
<text text-anchor="middle" x="776.75" y="-11.2" font-family="Times,serif" font-size="9.00">4</text>
</g>
<!-- 4&#45;&gt;4 -->
<g id="edge40" class="edge">
<title>4&#45;&gt;4</title>
<path fill="none" stroke="green" stroke-width="0.69" stroke-dasharray="1,5" d="M786.73,-25.19C797.31,-31.89 809.25,-28.33 809.25,-14.5 809.25,-5.2 803.86,-0.54 797.11,-0.52"/>
<polygon fill="green" stroke="green" stroke-width="0.69" points="796.21,2.87 787.73,-3.48 798.32,-3.81 796.21,2.87"/>
</g>
<!-- 3488&#45;&gt;0 -->
<g id="edge8" class="edge">
<title>3488&#45;&gt;0</title>
<path fill="none" stroke="red" stroke-width="0.45" d="M184.52,-150.12C188.58,-138.63 193.54,-124.58 197.65,-112.96"/>
<polygon fill="red" stroke="red" stroke-width="0.45" points="200.87,-114.35 200.9,-103.75 194.27,-112.02 200.87,-114.35"/>
</g>
<!-- 3488&#45;&gt;1 -->
<g id="edge35" class="edge">
<title>3488&#45;&gt;1</title>
<path fill="none" stroke="red" stroke-width="0.44" d="M168.71,-150.12C164.51,-138.63 159.38,-124.58 155.13,-112.96"/>
<polygon fill="red" stroke="red" stroke-width="0.44" points="158.48,-111.93 151.76,-103.74 151.9,-114.33 158.48,-111.93"/>
</g>
<!-- 4396 -->
<g id="node27" class="node">
<title>4396</title>
<ellipse fill="white" stroke="black" cx="750.75" cy="-89.03" rx="24.04" ry="24.04"/>
<text text-anchor="middle" x="750.75" y="-85.73" font-family="Times,serif" font-size="9.00">4396</text>
</g>
<!-- 4396&#45;&gt;4 -->
<g id="edge49" class="edge">
<title>4396&#45;&gt;4</title>
<path fill="none" stroke="green" stroke-width="0.57" stroke-dasharray="1,5" d="M758.69,-65.88C761.76,-57.32 765.27,-47.53 768.37,-38.86"/>
<polygon fill="green" stroke="green" stroke-width="0.57" points="771.66,-40.08 771.74,-29.49 765.07,-37.72 771.66,-40.08"/>
</g>
<!-- 3661&#45;&gt;3486 -->
<g id="edge46" class="edge">
<title>3661&#45;&gt;3486</title>
<path fill="none" stroke="green" stroke-width="0.28" d="M796.51,-234.2C793.69,-225.62 790.4,-215.62 787.32,-206.26"/>
<polygon fill="green" stroke="green" stroke-width="0.28" points="790.68,-205.26 784.23,-196.86 784.03,-207.45 790.68,-205.26"/>
</g>
<!-- 3630&#45;&gt;3486 -->
<g id="edge44" class="edge">
<title>3630&#45;&gt;3486</title>
<path fill="none" stroke="red" stroke-width="0.22" d="M954.03,-243.27C948.26,-239.76 941.86,-236.11 935.75,-233.16 893.35,-212.66 841.86,-194.73 809.19,-184.16"/>
<polygon fill="red" stroke="red" stroke-width="0.22" points="810.6,-180.93 800.01,-181.22 808.47,-187.6 810.6,-180.93"/>
</g>
<!-- 3572&#45;&gt;3486 -->
<g id="edge42" class="edge">
<title>3572&#45;&gt;3486</title>
<path fill="none" stroke="green" stroke-width="0.6" d="M852.26,-240.76C838.19,-228.34 818.22,-210.72 802.35,-196.71"/>
<polygon fill="green" stroke="green" stroke-width="0.6" points="804.97,-194.36 795.16,-190.37 800.34,-199.61 804.97,-194.36"/>
</g>
<!-- 3485&#45;&gt;0 -->
<g id="edge31" class="edge">
<title>3485&#45;&gt;0</title>
<path fill="none" stroke="green" stroke-width="0.44" d="M402.14,-163.64C360.42,-148 271.73,-114.76 229.31,-98.86"/>
<polygon fill="green" stroke="green" stroke-width="0.44" points="230.55,-95.59 219.96,-95.36 228.1,-102.15 230.55,-95.59"/>
</g>
<!-- 3485&#45;&gt;2 -->
<g id="edge2" class="edge">
<title>3485&#45;&gt;2</title>
<path fill="none" stroke="red" stroke-width="0.3" stroke-dasharray="1,5" d="M439.05,-153.49C449.17,-140.3 462.72,-122.65 472.95,-109.31"/>
<polygon fill="red" stroke="red" stroke-width="0.3" points="475.54,-111.69 478.85,-101.63 469.99,-107.43 475.54,-111.69"/>
</g>
<!-- 3486&#45;&gt;4 -->
<g id="edge27" class="edge">
<title>3486&#45;&gt;4</title>
<path fill="none" stroke="green" stroke-width="0.17" d="M780.14,-148.9C781.57,-138.04 783.05,-124.92 783.75,-113.07 785.01,-91.74 785.25,-86.31 783.75,-64.99 783.15,-56.44 781.97,-47.13 780.75,-38.91"/>
<polygon fill="green" stroke="green" stroke-width="0.17" points="784.22,-38.48 779.2,-29.14 777.31,-39.57 784.22,-38.48"/>
</g>
<!-- 3486&#45;&gt;4396 -->
<g id="edge48" class="edge">
<title>3486&#45;&gt;4396</title>
<path fill="none" stroke="red" stroke-width="0.26" stroke-dasharray="1,5" d="M769.65,-149.69C766.95,-141.18 763.83,-131.32 760.91,-122.1"/>
<polygon fill="red" stroke="red" stroke-width="0.26" points="764.32,-121.29 757.96,-112.81 757.65,-123.4 764.32,-121.29"/>
</g>
<!-- 3487&#45;&gt;2 -->
<g id="edge12" class="edge">
<title>3487&#45;&gt;2</title>
<path fill="none" stroke="red" stroke-width="0.96" stroke-dasharray="1,5" d="M578.59,-157.82C558.81,-143.06 528.06,-120.12 507.92,-105.08"/>
<polygon fill="red" stroke="red" stroke-width="0.96" points="510.25,-102.45 500.14,-99.28 506.06,-108.06 510.25,-102.45"/>
</g>
<!-- 3487&#45;&gt;3 -->
<g id="edge23" class="edge">
<title>3487&#45;&gt;3</title>
<path fill="none" stroke="green" stroke-width="0.46" d="M597.75,-148.81C597.75,-137.98 597.75,-125.1 597.75,-114.17"/>
<polygon fill="green" stroke="green" stroke-width="0.46" points="601.25,-114.33 597.75,-104.33 594.25,-114.33 601.25,-114.33"/>
</g>
</g>
</svg>
