<?xml version="1.0" encoding="UTF-8" standalone="no"?>
<!DOCTYPE svg PUBLIC "-//W3C//DTD SVG 1.1//EN"
 "http://www.w3.org/Graphics/SVG/1.1/DTD/svg11.dtd">
<!-- Generated by graphviz version 12.1.1 (20240910.0053)
 -->
<!-- Pages: 1 -->
<svg width="1055pt" height="344pt"
 viewBox="0.00 0.00 1054.63 343.74" xmlns="http://www.w3.org/2000/svg" xmlns:xlink="http://www.w3.org/1999/xlink">
<g id="graph0" class="graph" transform="scale(1 1) rotate(0) translate(4 339.74)">
<polygon fill="white" stroke="none" points="-4,4 -4,-339.74 1050.63,-339.74 1050.63,4 -4,4"/>
<!-- &#45;1 -->
<g id="node1" class="node">
<title>&#45;1</title>
<polygon fill="lightgray" stroke="black" points="110.34,-266.45 86.84,-266.45 86.84,-247.95 110.34,-247.95 110.34,-266.45"/>
<text text-anchor="middle" x="98.59" y="-253.9" font-family="Times,serif" font-size="9.00">&#45;1</text>
</g>
<!-- 2 -->
<g id="node23" class="node">
<title>2</title>
<ellipse fill="lightblue" stroke="black" cx="244.59" cy="-14.5" rx="14.5" ry="14.5"/>
<text text-anchor="middle" x="244.59" y="-11.2" font-family="Times,serif" font-size="9.00">2</text>
</g>
<!-- &#45;1&#45;&gt;2 -->
<g id="edge41" class="edge">
<title>&#45;1&#45;&gt;2</title>
<path fill="none" stroke="green" stroke-width="0.77" d="M86.65,-252.61C66.08,-245.71 24.58,-228.43 7.59,-197.16 -2.61,-178.38 -2.42,-167.96 7.59,-149.07 29.99,-106.81 165.31,-47.81 220.84,-25.01"/>
<polygon fill="green" stroke="green" stroke-width="0.77" points="222.1,-28.27 230.04,-21.27 219.46,-21.79 222.1,-28.27"/>
</g>
<!-- 7476 -->
<g id="node30" class="node">
<title>7476</title>
<ellipse fill="white" stroke="black" cx="164.59" cy="-89.03" rx="24.04" ry="24.04"/>
<text text-anchor="middle" x="164.59" y="-85.73" font-family="Times,serif" font-size="9.00">7476</text>
</g>
<!-- &#45;1&#45;&gt;7476 -->
<g id="edge36" class="edge">
<title>&#45;1&#45;&gt;7476</title>
<path fill="none" stroke="red" stroke-width="0.27" d="M86.41,-251.37C67.97,-243.31 33.63,-225.17 19.59,-197.16 10.02,-178.05 7.66,-166.81 19.59,-149.07 44.2,-112.49 95.84,-98.56 130.38,-93.27"/>
<polygon fill="red" stroke="red" stroke-width="0.27" points="130.66,-96.76 140.1,-91.94 129.72,-89.83 130.66,-96.76"/>
</g>
<!-- 7477 -->
<g id="node31" class="node">
<title>7477</title>
<ellipse fill="white" stroke="black" cx="374.59" cy="-89.03" rx="24.04" ry="24.04"/>
<text text-anchor="middle" x="374.59" y="-85.73" font-family="Times,serif" font-size="9.00">7477</text>
</g>
<!-- &#45;1&#45;&gt;7477 -->
<g id="edge27" class="edge">
<title>&#45;1&#45;&gt;7477</title>
<path fill="none" stroke="green" stroke-width="0.13" stroke-dasharray="1,5" d="M110.79,-252.05C133.63,-243.91 183.8,-224.23 219.59,-197.16 242.46,-179.86 240,-166.72 262.59,-149.07 287.56,-129.57 319.92,-113.31 343.43,-102.83"/>
<polygon fill="green" stroke="green" stroke-width="0.13" points="344.65,-106.11 352.42,-98.91 341.85,-99.7 344.65,-106.11"/>
</g>
<!-- 7478 -->
<g id="node32" class="node">
<title>7478</title>
<ellipse fill="white" stroke="black" cx="695.59" cy="-89.03" rx="24.04" ry="24.04"/>
<text text-anchor="middle" x="695.59" y="-85.73" font-family="Times,serif" font-size="9.00">7478</text>
</g>
<!-- &#45;1&#45;&gt;7478 -->
<g id="edge21" class="edge">
<title>&#45;1&#45;&gt;7478</title>
<path fill="none" stroke="red" stroke-width="0.19" d="M110.73,-255.04C146.23,-251.66 252.99,-241.51 341.59,-233.16 384.26,-229.14 696.74,-228.84 725.59,-197.16 745.63,-175.16 730.68,-140.83 715.6,-116.99"/>
<polygon fill="red" stroke="red" stroke-width="0.19" points="718.71,-115.35 710.26,-108.96 712.88,-119.22 718.71,-115.35"/>
</g>
<!-- 7736 -->
<g id="node33" class="node">
<title>7736</title>
<ellipse fill="white" stroke="black" cx="98.59" cy="-173.12" rx="24.04" ry="24.04"/>
<text text-anchor="middle" x="98.59" y="-169.82" font-family="Times,serif" font-size="9.00">7736</text>
</g>
<!-- &#45;1&#45;&gt;7736 -->
<g id="edge44" class="edge">
<title>&#45;1&#45;&gt;7736</title>
<path fill="none" stroke="green" stroke-width="0.18" d="M98.59,-247.72C98.59,-238.21 98.59,-222.17 98.59,-207.48"/>
<polygon fill="green" stroke="green" stroke-width="0.18" points="102.09,-207.91 98.59,-197.91 95.09,-207.91 102.09,-207.91"/>
</g>
<!-- &#45;2 -->
<g id="node2" class="node">
<title>&#45;2</title>
<polygon fill="lightgray" stroke="black" points="376.34,-335.74 352.84,-335.74 352.84,-317.24 376.34,-317.24 376.34,-335.74"/>
<text text-anchor="middle" x="364.59" y="-323.19" font-family="Times,serif" font-size="9.00">&#45;2</text>
</g>
<!-- &#45;3 -->
<g id="node3" class="node">
<title>&#45;3</title>
<polygon fill="lightgray" stroke="black" points="578.34,-182.37 554.84,-182.37 554.84,-163.87 578.34,-163.87 578.34,-182.37"/>
<text text-anchor="middle" x="566.59" y="-169.82" font-family="Times,serif" font-size="9.00">&#45;3</text>
</g>
<!-- &#45;3&#45;&gt;7477 -->
<g id="edge30" class="edge">
<title>&#45;3&#45;&gt;7477</title>
<path fill="none" stroke="red" stroke-width="0.53" d="M560.43,-163.45C556.63,-158.64 551.38,-152.88 545.59,-149.07 502.8,-120.91 445.11,-104.66 408.88,-96.59"/>
<polygon fill="red" stroke="red" stroke-width="0.53" points="409.67,-93.17 399.16,-94.5 408.2,-100.02 409.67,-93.17"/>
</g>
<!-- &#45;3&#45;&gt;7478 -->
<g id="edge15" class="edge">
<title>&#45;3&#45;&gt;7478</title>
<path fill="none" stroke="red" stroke-width="0.16" stroke-dasharray="1,5" d="M572.97,-163.77C576.85,-159.06 582.1,-153.3 587.59,-149.07 614.99,-127.97 626.36,-129.88 656.59,-113.07 659.8,-111.29 663.14,-109.39 666.46,-107.47"/>
<polygon fill="red" stroke="red" stroke-width="0.16" points="667.99,-110.63 674.85,-102.56 664.45,-104.59 667.99,-110.63"/>
</g>
<!-- &#45;4 -->
<g id="node4" class="node">
<title>&#45;4</title>
<polygon fill="lightgray" stroke="black" points="834.34,-182.37 810.84,-182.37 810.84,-163.87 834.34,-163.87 834.34,-182.37"/>
<text text-anchor="middle" x="822.59" y="-169.82" font-family="Times,serif" font-size="9.00">&#45;4</text>
</g>
<!-- &#45;4&#45;&gt;7478 -->
<g id="edge7" class="edge">
<title>&#45;4&#45;&gt;7478</title>
<path fill="none" stroke="green" stroke-width="0.42" stroke-dasharray="1,5" d="M813.81,-163.56C808.94,-159.01 802.65,-153.46 796.59,-149.07 774.02,-132.72 746.61,-116.93 726.05,-105.8"/>
<polygon fill="green" stroke="green" stroke-width="0.42" points="727.87,-102.8 717.41,-101.18 724.58,-108.98 727.87,-102.8"/>
</g>
<!-- &#45;5 -->
<g id="node5" class="node">
<title>&#45;5</title>
<polygon fill="lightgray" stroke="black" points="210.34,-182.37 186.84,-182.37 186.84,-163.87 210.34,-163.87 210.34,-182.37"/>
<text text-anchor="middle" x="198.59" y="-169.82" font-family="Times,serif" font-size="9.00">&#45;5</text>
</g>
<!-- &#45;5&#45;&gt;7476 -->
<g id="edge49" class="edge">
<title>&#45;5&#45;&gt;7476</title>
<path fill="none" stroke="red" stroke-width="0.69" d="M195.08,-163.64C191,-153.79 184.03,-136.95 177.78,-121.87"/>
<polygon fill="red" stroke="red" stroke-width="0.69" points="181.07,-120.68 174.01,-112.78 174.6,-123.35 181.07,-120.68"/>
</g>
<!-- &#45;5&#45;&gt;7478 -->
<g id="edge40" class="edge">
<title>&#45;5&#45;&gt;7478</title>
<path fill="none" stroke="red" stroke-width="0.31" d="M210.73,-168.68C229,-163.63 264.69,-154.26 295.59,-149.07 454.61,-122.38 503.36,-163.26 656.59,-113.07 660.16,-111.9 663.76,-110.37 667.25,-108.64"/>
<polygon fill="red" stroke="red" stroke-width="0.31" points="668.66,-111.86 675.74,-103.98 665.29,-105.73 668.66,-111.86"/>
</g>
<!-- &#45;6 -->
<g id="node6" class="node">
<title>&#45;6</title>
<polygon fill="lightgray" stroke="black" points="876.34,-182.37 852.84,-182.37 852.84,-163.87 876.34,-163.87 876.34,-182.37"/>
<text text-anchor="middle" x="864.59" y="-169.82" font-family="Times,serif" font-size="9.00">&#45;6</text>
</g>
<!-- &#45;6&#45;&gt;7478 -->
<g id="edge14" class="edge">
<title>&#45;6&#45;&gt;7478</title>
<path fill="none" stroke="green" stroke-width="0.41" stroke-dasharray="1,5" d="M858.36,-163.55C854.54,-158.78 849.29,-153.02 843.59,-149.07 807.93,-124.38 760.44,-107.79 728.99,-98.64"/>
<polygon fill="green" stroke="green" stroke-width="0.41" points="730.15,-95.33 719.58,-95.99 728.25,-102.07 730.15,-95.33"/>
</g>
<!-- &#45;7 -->
<g id="node7" class="node">
<title>&#45;7</title>
<polygon fill="lightgray" stroke="black" points="418.34,-335.74 394.84,-335.74 394.84,-317.24 418.34,-317.24 418.34,-335.74"/>
<text text-anchor="middle" x="406.59" y="-323.19" font-family="Times,serif" font-size="9.00">&#45;7</text>
</g>
<!-- &#45;8 -->
<g id="node8" class="node">
<title>&#45;8</title>
<polygon fill="lightgray" stroke="black" points="460.34,-335.74 436.84,-335.74 436.84,-317.24 460.34,-317.24 460.34,-335.74"/>
<text text-anchor="middle" x="448.59" y="-323.19" font-family="Times,serif" font-size="9.00">&#45;8</text>
</g>
<!-- &#45;9 -->
<g id="node9" class="node">
<title>&#45;9</title>
<polygon fill="lightgray" stroke="black" points="334.34,-335.74 310.84,-335.74 310.84,-317.24 334.34,-317.24 334.34,-335.74"/>
<text text-anchor="middle" x="322.59" y="-323.19" font-family="Times,serif" font-size="9.00">&#45;9</text>
</g>
<!-- 7882 -->
<g id="node27" class="node">
<title>7882</title>
<ellipse fill="white" stroke="black" cx="374.59" cy="-173.12" rx="24.04" ry="24.04"/>
<text text-anchor="middle" x="374.59" y="-169.82" font-family="Times,serif" font-size="9.00">7882</text>
</g>
<!-- &#45;9&#45;&gt;7882 -->
<g id="edge47" class="edge">
<title>&#45;9&#45;&gt;7882</title>
<path fill="none" stroke="red" stroke-width="0.11" stroke-dasharray="1,5" d="M323.47,-316.85C325.37,-300.21 330.57,-262.76 341.59,-233.16 345.47,-222.73 351,-211.94 356.42,-202.48"/>
<polygon fill="red" stroke="red" stroke-width="0.11" points="359.35,-204.39 361.45,-194.01 353.33,-200.82 359.35,-204.39"/>
</g>
<!-- &#45;9&#45;&gt;7477 -->
<g id="edge39" class="edge">
<title>&#45;9&#45;&gt;7477</title>
<path fill="none" stroke="green" stroke-width="0.15" stroke-dasharray="1,5" d="M317.86,-316.85C303.99,-290.25 266.17,-207.8 295.59,-149.07 305.65,-129 326.13,-114 343.72,-104.14"/>
<polygon fill="green" stroke="green" stroke-width="0.15" points="345.18,-107.33 352.38,-99.56 341.9,-101.14 345.18,-107.33"/>
</g>
<!-- 8383 -->
<g id="node34" class="node">
<title>8383</title>
<ellipse fill="white" stroke="black" cx="374.59" cy="-257.2" rx="24.04" ry="24.04"/>
<text text-anchor="middle" x="374.59" y="-253.9" font-family="Times,serif" font-size="9.00">8383</text>
</g>
<!-- &#45;9&#45;&gt;8383 -->
<g id="edge53" class="edge">
<title>&#45;9&#45;&gt;8383</title>
<path fill="none" stroke="red" stroke-width="0.12" d="M329.18,-316.97C335.42,-308.89 345.14,-296.31 353.99,-284.86"/>
<polygon fill="red" stroke="red" stroke-width="0.12" points="356.75,-287.01 360.1,-276.96 351.21,-282.73 356.75,-287.01"/>
</g>
<!-- &#45;10 -->
<g id="node10" class="node">
<title>&#45;10</title>
<polygon fill="lightgray" stroke="black" points="444.59,-182.37 416.59,-182.37 416.59,-163.87 444.59,-163.87 444.59,-182.37"/>
<text text-anchor="middle" x="430.59" y="-169.82" font-family="Times,serif" font-size="9.00">&#45;10</text>
</g>
<!-- 7475 -->
<g id="node29" class="node">
<title>7475</title>
<ellipse fill="white" stroke="black" cx="623.59" cy="-89.03" rx="24.04" ry="24.04"/>
<text text-anchor="middle" x="623.59" y="-85.73" font-family="Times,serif" font-size="9.00">7475</text>
</g>
<!-- &#45;10&#45;&gt;7475 -->
<g id="edge34" class="edge">
<title>&#45;10&#45;&gt;7475</title>
<path fill="none" stroke="red" stroke-width="0.52" d="M437.49,-163.48C441.71,-158.68 447.46,-152.92 453.59,-149.07 496.64,-122.07 553.62,-105.54 589.45,-97.08"/>
<polygon fill="red" stroke="red" stroke-width="0.52" points="590.11,-100.52 599.09,-94.89 588.56,-93.7 590.11,-100.52"/>
</g>
<!-- &#45;10&#45;&gt;7476 -->
<g id="edge46" class="edge">
<title>&#45;10&#45;&gt;7476</title>
<path fill="none" stroke="red" stroke-width="0.12" stroke-dasharray="1,5" d="M424.21,-163.71C420.01,-158.74 414.09,-152.73 407.59,-149.07 339.9,-111.01 248.17,-97.31 199.04,-92.51"/>
<polygon fill="red" stroke="red" stroke-width="0.12" points="199.39,-89.03 189.12,-91.61 198.76,-96 199.39,-89.03"/>
</g>
<!-- &#45;10&#45;&gt;7477 -->
<g id="edge25" class="edge">
<title>&#45;10&#45;&gt;7477</title>
<path fill="none" stroke="green" stroke-width="0.18" d="M424.81,-163.64C417.43,-152.83 404.31,-133.6 393.33,-117.5"/>
<polygon fill="green" stroke="green" stroke-width="0.18" points="396.51,-115.95 387.98,-109.66 390.73,-119.89 396.51,-115.95"/>
</g>
<!-- &#45;10&#45;&gt;7478 -->
<g id="edge28" class="edge">
<title>&#45;10&#45;&gt;7478</title>
<path fill="none" stroke="red" stroke-width="0.92" stroke-dasharray="1,5" d="M436.9,-163.56C441.07,-158.54 446.98,-152.53 453.59,-149.07 534.83,-106.69 570.66,-144.89 656.59,-113.07 659.81,-111.88 663.06,-110.43 666.24,-108.84"/>
<polygon fill="red" stroke="red" stroke-width="0.92" points="667.76,-112 674.82,-104.1 664.37,-105.87 667.76,-112"/>
</g>
<!-- &#45;11 -->
<g id="node11" class="node">
<title>&#45;11</title>
<polygon fill="lightgray" stroke="black" points="56.59,-182.37 28.59,-182.37 28.59,-163.87 56.59,-163.87 56.59,-182.37"/>
<text text-anchor="middle" x="42.59" y="-169.82" font-family="Times,serif" font-size="9.00">&#45;11</text>
</g>
<!-- &#45;11&#45;&gt;7476 -->
<g id="edge37" class="edge">
<title>&#45;11&#45;&gt;7476</title>
<path fill="none" stroke="green" stroke-width="0.57" d="M50.22,-163.49C54.49,-158.92 60.06,-153.38 65.59,-149.07 87.02,-132.37 113.57,-116.78 133.78,-105.81"/>
<polygon fill="green" stroke="green" stroke-width="0.57" points="135.2,-109.02 142.37,-101.23 131.9,-102.85 135.2,-109.02"/>
</g>
<!-- &#45;12 -->
<g id="node12" class="node">
<title>&#45;12</title>
<polygon fill="lightgray" stroke="black" points="506.59,-335.74 478.59,-335.74 478.59,-317.24 506.59,-317.24 506.59,-335.74"/>
<text text-anchor="middle" x="492.59" y="-323.19" font-family="Times,serif" font-size="9.00">&#45;12</text>
</g>
<!-- &#45;13 -->
<g id="node13" class="node">
<title>&#45;13</title>
<polygon fill="lightgray" stroke="black" points="490.59,-182.37 462.59,-182.37 462.59,-163.87 490.59,-163.87 490.59,-182.37"/>
<text text-anchor="middle" x="476.59" y="-169.82" font-family="Times,serif" font-size="9.00">&#45;13</text>
</g>
<!-- &#45;13&#45;&gt;7475 -->
<g id="edge18" class="edge">
<title>&#45;13&#45;&gt;7475</title>
<path fill="none" stroke="green" stroke-width="0.2" stroke-dasharray="1,5" d="M483.66,-163.73C487.93,-159.01 493.68,-153.25 499.59,-149.07 528.42,-128.69 565.39,-112.14 591.43,-101.8"/>
<polygon fill="green" stroke="green" stroke-width="0.2" points="592.51,-105.14 600.56,-98.25 589.97,-98.61 592.51,-105.14"/>
</g>
<!-- &#45;13&#45;&gt;7477 -->
<g id="edge8" class="edge">
<title>&#45;13&#45;&gt;7477</title>
<path fill="none" stroke="red" stroke-width="0.2" d="M468.78,-163.72C464.45,-159.21 458.89,-153.66 453.59,-149.07 437.21,-134.88 417.72,-120.29 402.2,-109.17"/>
<polygon fill="red" stroke="red" stroke-width="0.2" points="404.46,-106.48 394.27,-103.54 400.4,-112.19 404.46,-106.48"/>
</g>
<!-- &#45;14 -->
<g id="node14" class="node">
<title>&#45;14</title>
<polygon fill="lightgray" stroke="black" points="332.59,-182.37 304.59,-182.37 304.59,-163.87 332.59,-163.87 332.59,-182.37"/>
<text text-anchor="middle" x="318.59" y="-169.82" font-family="Times,serif" font-size="9.00">&#45;14</text>
</g>
<!-- &#45;14&#45;&gt;7477 -->
<g id="edge6" class="edge">
<title>&#45;14&#45;&gt;7477</title>
<path fill="none" stroke="red" stroke-width="0.25" stroke-dasharray="1,5" d="M324.37,-163.64C331.68,-152.93 344.63,-133.95 355.55,-117.95"/>
<polygon fill="red" stroke="red" stroke-width="0.25" points="358.4,-119.98 361.14,-109.75 352.61,-116.04 358.4,-119.98"/>
</g>
<!-- &#45;15 -->
<g id="node15" class="node">
<title>&#45;15</title>
<polygon fill="lightgray" stroke="black" points="624.59,-182.37 596.59,-182.37 596.59,-163.87 624.59,-163.87 624.59,-182.37"/>
<text text-anchor="middle" x="610.59" y="-169.82" font-family="Times,serif" font-size="9.00">&#45;15</text>
</g>
<!-- &#45;15&#45;&gt;7475 -->
<g id="edge33" class="edge">
<title>&#45;15&#45;&gt;7475</title>
<path fill="none" stroke="red" stroke-width="0.25" stroke-dasharray="1,5" d="M611.93,-163.64C613.45,-154.06 616.02,-137.86 618.36,-123.09"/>
<polygon fill="red" stroke="red" stroke-width="0.25" points="621.76,-124 619.86,-113.57 614.84,-122.9 621.76,-124"/>
</g>
<!-- &#45;15&#45;&gt;7477 -->
<g id="edge24" class="edge">
<title>&#45;15&#45;&gt;7477</title>
<path fill="none" stroke="green" stroke-width="0.31" d="M604.17,-163.78C599.95,-158.84 594.03,-152.84 587.59,-149.07 530.19,-115.57 452.95,-100.37 409,-94.05"/>
<polygon fill="green" stroke="green" stroke-width="0.31" points="409.68,-90.61 399.29,-92.72 408.73,-97.55 409.68,-90.61"/>
</g>
<!-- &#45;15&#45;&gt;7478 -->
<g id="edge22" class="edge">
<title>&#45;15&#45;&gt;7478</title>
<path fill="none" stroke="green" stroke-width="0.33" d="M619.06,-163.53C623.38,-159.17 628.74,-153.81 633.59,-149.07 645.77,-137.18 659.47,-124.1 670.88,-113.29"/>
<polygon fill="green" stroke="green" stroke-width="0.33" points="673.15,-115.97 678.01,-106.55 668.34,-110.88 673.15,-115.97"/>
</g>
<!-- &#45;16 -->
<g id="node16" class="node">
<title>&#45;16</title>
<polygon fill="lightgray" stroke="black" points="716.59,-182.37 688.59,-182.37 688.59,-163.87 716.59,-163.87 716.59,-182.37"/>
<text text-anchor="middle" x="702.59" y="-169.82" font-family="Times,serif" font-size="9.00">&#45;16</text>
</g>
<!-- &#45;16&#45;&gt;7475 -->
<g id="edge4" class="edge">
<title>&#45;16&#45;&gt;7475</title>
<path fill="none" stroke="red" stroke-width="0.47" stroke-dasharray="1,5" d="M694.43,-163.64C683.36,-152.13 663.1,-131.09 647.08,-114.44"/>
<polygon fill="red" stroke="red" stroke-width="0.47" points="650.02,-112.44 640.56,-107.66 644.97,-117.3 650.02,-112.44"/>
</g>
<!-- &#45;16&#45;&gt;7478 -->
<g id="edge5" class="edge">
<title>&#45;16&#45;&gt;7478</title>
<path fill="none" stroke="green" stroke-width="0.28" stroke-dasharray="1,5" d="M701.87,-163.64C701.06,-154.15 699.7,-138.17 698.45,-123.52"/>
<polygon fill="green" stroke="green" stroke-width="0.28" points="701.94,-123.29 697.6,-113.63 694.97,-123.89 701.94,-123.29"/>
</g>
<!-- &#45;17 -->
<g id="node17" class="node">
<title>&#45;17</title>
<polygon fill="lightgray" stroke="black" points="670.59,-182.37 642.59,-182.37 642.59,-163.87 670.59,-163.87 670.59,-182.37"/>
<text text-anchor="middle" x="656.59" y="-169.82" font-family="Times,serif" font-size="9.00">&#45;17</text>
</g>
<!-- &#45;17&#45;&gt;7475 -->
<g id="edge2" class="edge">
<title>&#45;17&#45;&gt;7475</title>
<path fill="none" stroke="red" stroke-width="0.54" d="M653.18,-163.64C649.19,-153.7 642.32,-136.63 636.21,-121.43"/>
<polygon fill="red" stroke="red" stroke-width="0.54" points="639.63,-120.54 632.65,-112.57 633.13,-123.15 639.63,-120.54"/>
</g>
<!-- &#45;17&#45;&gt;7477 -->
<g id="edge19" class="edge">
<title>&#45;17&#45;&gt;7477</title>
<path fill="none" stroke="green" stroke-width="0.79" d="M650.23,-163.68C646.03,-158.7 640.12,-152.69 633.59,-149.07 560.8,-108.82 462.02,-95.98 410,-91.91"/>
<polygon fill="green" stroke="green" stroke-width="0.79" points="410.45,-88.43 400.22,-91.21 409.95,-95.41 410.45,-88.43"/>
</g>
<!-- &#45;17&#45;&gt;7478 -->
<g id="edge9" class="edge">
<title>&#45;17&#45;&gt;7478</title>
<path fill="none" stroke="red" stroke-width="0.14" stroke-dasharray="1,5" d="M660.62,-163.64C665.5,-153.37 673.99,-135.5 681.38,-119.94"/>
<polygon fill="red" stroke="red" stroke-width="0.14" points="684.35,-121.85 685.48,-111.31 678.03,-118.84 684.35,-121.85"/>
</g>
<!-- &#45;18 -->
<g id="node18" class="node">
<title>&#45;18</title>
<polygon fill="lightgray" stroke="black" points="168.59,-182.37 140.59,-182.37 140.59,-163.87 168.59,-163.87 168.59,-182.37"/>
<text text-anchor="middle" x="154.59" y="-169.82" font-family="Times,serif" font-size="9.00">&#45;18</text>
</g>
<!-- &#45;18&#45;&gt;7476 -->
<g id="edge16" class="edge">
<title>&#45;18&#45;&gt;7476</title>
<path fill="none" stroke="red" stroke-width="0.28" stroke-dasharray="1,5" d="M155.62,-163.64C156.78,-154.15 158.73,-138.17 160.51,-123.52"/>
<polygon fill="red" stroke="red" stroke-width="0.28" points="163.98,-123.97 161.72,-113.62 157.03,-123.12 163.98,-123.97"/>
</g>
<!-- &#45;18&#45;&gt;7477 -->
<g id="edge11" class="edge">
<title>&#45;18&#45;&gt;7477</title>
<path fill="none" stroke="red" stroke-width="0.37" stroke-dasharray="1,5" d="M161.43,-163.38C165.63,-158.55 171.38,-152.79 177.59,-149.07 229.64,-117.97 299.32,-102.15 340.34,-95.02"/>
<polygon fill="red" stroke="red" stroke-width="0.37" points="340.77,-98.5 350.06,-93.41 339.63,-91.6 340.77,-98.5"/>
</g>
<!-- &#45;19 -->
<g id="node19" class="node">
<title>&#45;19</title>
<polygon fill="lightgray" stroke="black" points="944.59,-266.45 916.59,-266.45 916.59,-247.95 944.59,-247.95 944.59,-266.45"/>
<text text-anchor="middle" x="930.59" y="-253.9" font-family="Times,serif" font-size="9.00">&#45;19</text>
</g>
<!-- 7690 -->
<g id="node26" class="node">
<title>7690</title>
<ellipse fill="white" stroke="black" cx="956.59" cy="-173.12" rx="24.04" ry="24.04"/>
<text text-anchor="middle" x="956.59" y="-169.82" font-family="Times,serif" font-size="9.00">7690</text>
</g>
<!-- &#45;19&#45;&gt;7690 -->
<g id="edge42" class="edge">
<title>&#45;19&#45;&gt;7690</title>
<path fill="none" stroke="green" stroke-width="0.84" stroke-dasharray="1,5" d="M933.28,-247.72C936.32,-238.1 941.49,-221.81 946.18,-206.99"/>
<polygon fill="green" stroke="green" stroke-width="0.84" points="949.41,-208.39 949.09,-197.8 942.73,-206.28 949.41,-208.39"/>
</g>
<!-- 8016 -->
<g id="node28" class="node">
<title>8016</title>
<ellipse fill="white" stroke="black" cx="1022.59" cy="-173.12" rx="24.04" ry="24.04"/>
<text text-anchor="middle" x="1022.59" y="-169.82" font-family="Times,serif" font-size="9.00">8016</text>
</g>
<!-- &#45;19&#45;&gt;8016 -->
<g id="edge50" class="edge">
<title>&#45;19&#45;&gt;8016</title>
<path fill="none" stroke="red" stroke-width="0.25" stroke-dasharray="1,5" d="M940.09,-247.72C953.43,-235.83 978.19,-213.73 997.12,-196.84"/>
<polygon fill="red" stroke="red" stroke-width="0.25" points="999.41,-199.49 1004.54,-190.22 994.75,-194.26 999.41,-199.49"/>
</g>
<!-- &#45;19&#45;&gt;7475 -->
<g id="edge1" class="edge">
<title>&#45;19&#45;&gt;7475</title>
<path fill="none" stroke="red" stroke-width="0.3" d="M916.35,-250.43C892.25,-240.49 842.08,-219.1 801.59,-197.16 766.45,-178.11 759.84,-169.68 725.59,-149.07 697.96,-132.45 690.47,-129.28 662.59,-113.07 659.51,-111.28 656.29,-109.4 653.08,-107.52"/>
<polygon fill="red" stroke="red" stroke-width="0.3" points="654.98,-104.57 644.59,-102.51 651.43,-110.61 654.98,-104.57"/>
</g>
<!-- &#45;19&#45;&gt;7478 -->
<g id="edge26" class="edge">
<title>&#45;19&#45;&gt;7478</title>
<path fill="none" stroke="green" stroke-width="0.14" stroke-dasharray="1,5" d="M929.46,-247.57C926.34,-227.33 915.76,-176.47 885.59,-149.07 841.74,-109.26 771.39,-96.29 729.72,-92.07"/>
<polygon fill="green" stroke="green" stroke-width="0.14" points="730.25,-88.6 719.98,-91.19 729.62,-95.58 730.25,-88.6"/>
</g>
<!-- &#45;20 -->
<g id="node20" class="node">
<title>&#45;20</title>
<polygon fill="lightgray" stroke="black" points="536.59,-182.37 508.59,-182.37 508.59,-163.87 536.59,-163.87 536.59,-182.37"/>
<text text-anchor="middle" x="522.59" y="-169.82" font-family="Times,serif" font-size="9.00">&#45;20</text>
</g>
<!-- &#45;20&#45;&gt;7475 -->
<g id="edge23" class="edge">
<title>&#45;20&#45;&gt;7475</title>
<path fill="none" stroke="green" stroke-width="0.37" stroke-dasharray="1,5" d="M530.42,-163.73C534.75,-159.23 540.31,-153.68 545.59,-149.07 561.53,-135.17 580.43,-120.82 595.63,-109.75"/>
<polygon fill="green" stroke="green" stroke-width="0.37" points="597.58,-112.66 603.64,-103.97 593.48,-106.98 597.58,-112.66"/>
</g>
<!-- &#45;20&#45;&gt;7477 -->
<g id="edge31" class="edge">
<title>&#45;20&#45;&gt;7477</title>
<path fill="none" stroke="green" stroke-width="0.39" stroke-dasharray="1,5" d="M515.53,-163.72C511.26,-159 505.51,-153.24 499.59,-149.07 470.49,-128.57 433.15,-112.01 406.89,-101.7"/>
<polygon fill="green" stroke="green" stroke-width="0.39" points="408.21,-98.46 397.62,-98.15 405.7,-105 408.21,-98.46"/>
</g>
<!-- 0 -->
<g id="node21" class="node">
<title>0</title>
<ellipse fill="lightblue" stroke="black" cx="656.59" cy="-14.5" rx="14.5" ry="14.5"/>
<text text-anchor="middle" x="656.59" y="-11.2" font-family="Times,serif" font-size="9.00">0</text>
</g>
<!-- 0&#45;&gt;0 -->
<g id="edge10" class="edge">
<title>0&#45;&gt;0</title>
<path fill="none" stroke="red" stroke-width="0.15" stroke-dasharray="1,5" d="M666.57,-25.19C677.15,-31.89 689.09,-28.33 689.09,-14.5 689.09,-4.77 683.19,-0.12 676.01,-0.55"/>
<polygon fill="red" stroke="red" stroke-width="0.15" points="675.1,2.84 666.79,-3.73 677.38,-3.77 675.1,2.84"/>
</g>
<!-- 1 -->
<g id="node22" class="node">
<title>1</title>
<ellipse fill="lightblue" stroke="black" cx="354.59" cy="-14.5" rx="14.5" ry="14.5"/>
<text text-anchor="middle" x="354.59" y="-11.2" font-family="Times,serif" font-size="9.00">1</text>
</g>
<!-- 3 -->
<g id="node24" class="node">
<title>3</title>
<ellipse fill="lightblue" stroke="black" cx="140.59" cy="-14.5" rx="14.5" ry="14.5"/>
<text text-anchor="middle" x="140.59" y="-11.2" font-family="Times,serif" font-size="9.00">3</text>
</g>
<!-- 4 -->
<g id="node25" class="node">
<title>4</title>
<ellipse fill="lightblue" stroke="black" cx="187.59" cy="-14.5" rx="14.5" ry="14.5"/>
<text text-anchor="middle" x="187.59" y="-11.2" font-family="Times,serif" font-size="9.00">4</text>
</g>
<!-- 7690&#45;&gt;7478 -->
<g id="edge43" class="edge">
<title>7690&#45;&gt;7478</title>
<path fill="none" stroke="green" stroke-width="0.27" d="M937.05,-158.8C931.28,-155.28 924.84,-151.73 918.59,-149.07 854.27,-121.73 774.02,-104.23 729.44,-95.86"/>
<polygon fill="green" stroke="green" stroke-width="0.27" points="730.3,-92.46 719.83,-94.1 729.03,-99.34 730.3,-92.46"/>
</g>
<!-- 7882&#45;&gt;7477 -->
<g id="edge48" class="edge">
<title>7882&#45;&gt;7477</title>
<path fill="none" stroke="red" stroke-width="0.21" stroke-dasharray="1,5" d="M374.59,-148.81C374.59,-140.93 374.59,-131.96 374.59,-123.45"/>
<polygon fill="red" stroke="red" stroke-width="0.21" points="378.09,-123.71 374.59,-113.71 371.09,-123.71 378.09,-123.71"/>
</g>
<!-- 8016&#45;&gt;7478 -->
<g id="edge51" class="edge">
<title>8016&#45;&gt;7478</title>
<path fill="none" stroke="green" stroke-width="0.5" d="M1004.18,-157.29C999.62,-154.19 994.6,-151.22 989.59,-149.07 900.95,-111.19 786.74,-97.22 730.31,-92.39"/>
<polygon fill="green" stroke="green" stroke-width="0.5" points="730.82,-88.92 720.57,-91.6 730.25,-95.9 730.82,-88.92"/>
</g>
<!-- 7475&#45;&gt;0 -->
<g id="edge32" class="edge">
<title>7475&#45;&gt;0</title>
<path fill="none" stroke="green" stroke-width="0.1" stroke-dasharray="1,5" d="M633.31,-66.66C637.55,-57.36 642.5,-46.47 646.75,-37.13"/>
<polygon fill="green" stroke="green" stroke-width="0.1" points="649.84,-38.79 650.79,-28.24 643.46,-35.9 649.84,-38.79"/>
</g>
<!-- 7476&#45;&gt;1 -->
<g id="edge38" class="edge">
<title>7476&#45;&gt;1</title>
<path fill="none" stroke="green" stroke-width="0.27" d="M187.13,-79.43C223.61,-65.5 295.19,-38.17 331.82,-24.19"/>
<polygon fill="green" stroke="green" stroke-width="0.27" points="332.69,-27.6 340.79,-20.77 330.2,-21.06 332.69,-27.6"/>
</g>
<!-- 7476&#45;&gt;2 -->
<g id="edge12" class="edge">
<title>7476&#45;&gt;2</title>
<path fill="none" stroke="green" stroke-width="0.44" d="M181.95,-72.29C195.19,-60.29 213.37,-43.8 226.74,-31.68"/>
<polygon fill="green" stroke="green" stroke-width="0.44" points="228.8,-34.54 233.86,-25.23 224.1,-29.35 228.8,-34.54"/>
</g>
<!-- 7476&#45;&gt;3 -->
<g id="edge3" class="edge">
<title>7476&#45;&gt;3</title>
<path fill="none" stroke="green" stroke-width="0.61" d="M157.26,-65.88C154.43,-57.32 151.19,-47.53 148.32,-38.86"/>
<polygon fill="green" stroke="green" stroke-width="0.61" points="151.7,-37.94 145.24,-29.55 145.06,-40.14 151.7,-37.94"/>
</g>
<!-- 7476&#45;&gt;4 -->
<g id="edge35" class="edge">
<title>7476&#45;&gt;4</title>
<path fill="none" stroke="red" stroke-width="0.22" stroke-dasharray="1,5" d="M171.62,-65.88C174.39,-57.13 177.57,-47.09 180.36,-38.29"/>
<polygon fill="red" stroke="red" stroke-width="0.22" points="183.63,-39.57 183.31,-28.98 176.96,-37.46 183.63,-39.57"/>
</g>
<!-- 7477&#45;&gt;1 -->
<g id="edge20" class="edge">
<title>7477&#45;&gt;1</title>
<path fill="none" stroke="red" stroke-width="0.14" d="M368.37,-65.48C366.02,-56.96 363.35,-47.27 360.99,-38.69"/>
<polygon fill="red" stroke="red" stroke-width="0.14" points="364.39,-37.86 358.35,-29.15 357.64,-39.72 364.39,-37.86"/>
</g>
<!-- 7477&#45;&gt;2 -->
<g id="edge52" class="edge">
<title>7477&#45;&gt;2</title>
<path fill="none" stroke="green" stroke-width="0.22" stroke-dasharray="1,5" d="M353.7,-76.38C329.63,-62.94 290.26,-40.98 265.97,-27.43"/>
<polygon fill="green" stroke="green" stroke-width="0.22" points="267.9,-24.49 257.46,-22.68 264.49,-30.61 267.9,-24.49"/>
</g>
<!-- 7477&#45;&gt;7477 -->
<g id="edge13" class="edge">
<title>7477&#45;&gt;7477</title>
<path fill="none" stroke="red" stroke-width="0.39" stroke-dasharray="1,5" d="M394.92,-102.34C406.22,-104.82 416.63,-100.39 416.63,-89.03 416.63,-81.4 411.93,-76.9 405.42,-75.52"/>
<polygon fill="red" stroke="red" stroke-width="0.39" points="405.45,-72.01 395.52,-75.71 405.59,-79.01 405.45,-72.01"/>
</g>
<!-- 7478&#45;&gt;0 -->
<g id="edge29" class="edge">
<title>7478&#45;&gt;0</title>
<path fill="none" stroke="green" stroke-width="0.59" stroke-dasharray="1,5" d="M684.52,-67.44C679.37,-57.87 673.25,-46.49 668.06,-36.82"/>
<polygon fill="green" stroke="green" stroke-width="0.59" points="671.29,-35.45 663.48,-28.3 665.13,-38.77 671.29,-35.45"/>
</g>
<!-- 7478&#45;&gt;2 -->
<g id="edge17" class="edge">
<title>7478&#45;&gt;2</title>
<path fill="none" stroke="red" stroke-width="0.32" stroke-dasharray="1,5" d="M676.13,-74.36C670.12,-70.74 663.31,-67.23 656.59,-64.99 518.73,-19 475.65,-48.13 331.59,-28.99 310.39,-26.17 286.36,-22.4 268.94,-19.56"/>
<polygon fill="red" stroke="red" stroke-width="0.32" points="269.94,-16.18 259.5,-18.01 268.8,-23.09 269.94,-16.18"/>
</g>
<!-- 7736&#45;&gt;7476 -->
<g id="edge45" class="edge">
<title>7736&#45;&gt;7476</title>
<path fill="none" stroke="green" stroke-width="0.13" d="M113.24,-153.9C122.15,-142.82 133.67,-128.48 143.55,-116.2"/>
<polygon fill="green" stroke="green" stroke-width="0.13" points="146.09,-118.63 149.63,-108.64 140.64,-114.24 146.09,-118.63"/>
</g>
<!-- 8383&#45;&gt;7882 -->
<g id="edge54" class="edge">
<title>8383&#45;&gt;7882</title>
<path fill="none" stroke="green" stroke-width="0.25" d="M374.59,-232.9C374.59,-225.1 374.59,-216.24 374.59,-207.81"/>
<polygon fill="green" stroke="green" stroke-width="0.25" points="378.09,-207.85 374.59,-197.85 371.09,-207.85 378.09,-207.85"/>
</g>
</g>
</svg>
