<?xml version="1.0" encoding="UTF-8" standalone="no"?>
<!DOCTYPE svg PUBLIC "-//W3C//DTD SVG 1.1//EN"
 "http://www.w3.org/Graphics/SVG/1.1/DTD/svg11.dtd">
<!-- Generated by graphviz version 12.1.1 (20240910.0053)
 -->
<!-- Pages: 1 -->
<svg width="1044pt" height="344pt"
 viewBox="0.00 0.00 1044.04 343.74" xmlns="http://www.w3.org/2000/svg" xmlns:xlink="http://www.w3.org/1999/xlink">
<g id="graph0" class="graph" transform="scale(1 1) rotate(0) translate(4 339.74)">
<polygon fill="white" stroke="none" points="-4,4 -4,-339.74 1040.04,-339.74 1040.04,4 -4,4"/>
<!-- &#45;1 -->
<g id="node1" class="node">
<title>&#45;1</title>
<polygon fill="lightgray" stroke="black" points="297.79,-266.45 274.29,-266.45 274.29,-247.95 297.79,-247.95 297.79,-266.45"/>
<text text-anchor="middle" x="286.04" y="-253.9" font-family="Times,serif" font-size="9.00">&#45;1</text>
</g>
<!-- 1 -->
<g id="node22" class="node">
<title>1</title>
<ellipse fill="lightblue" stroke="black" cx="414.04" cy="-89.03" rx="14.5" ry="14.5"/>
<text text-anchor="middle" x="414.04" y="-85.73" font-family="Times,serif" font-size="9.00">1</text>
</g>
<!-- &#45;1&#45;&gt;1 -->
<g id="edge48" class="edge">
<title>&#45;1&#45;&gt;1</title>
<path fill="none" stroke="red" stroke-width="0.23" d="M292.57,-247.73C312.28,-222.14 371.59,-145.15 399.38,-109.07"/>
<polygon fill="red" stroke="red" stroke-width="0.23" points="401.87,-111.57 405.2,-101.51 396.33,-107.3 401.87,-111.57"/>
</g>
<!-- 3488 -->
<g id="node26" class="node">
<title>3488</title>
<ellipse fill="white" stroke="black" cx="504.04" cy="-173.12" rx="24.04" ry="24.04"/>
<text text-anchor="middle" x="504.04" y="-169.82" font-family="Times,serif" font-size="9.00">3488</text>
</g>
<!-- &#45;1&#45;&gt;3488 -->
<g id="edge15" class="edge">
<title>&#45;1&#45;&gt;3488</title>
<path fill="none" stroke="red" stroke-width="0.15" d="M291.79,-247.9C295.6,-242.97 300.99,-236.96 307.04,-233.16 358.48,-200.81 428.59,-185.38 469.81,-178.67"/>
<polygon fill="red" stroke="red" stroke-width="0.15" points="470.32,-182.13 479.66,-177.14 469.24,-175.21 470.32,-182.13"/>
</g>
<!-- 3486 -->
<g id="node32" class="node">
<title>3486</title>
<ellipse fill="white" stroke="black" cx="266.04" cy="-173.12" rx="24.04" ry="24.04"/>
<text text-anchor="middle" x="266.04" y="-169.82" font-family="Times,serif" font-size="9.00">3486</text>
</g>
<!-- &#45;1&#45;&gt;3486 -->
<g id="edge40" class="edge">
<title>&#45;1&#45;&gt;3486</title>
<path fill="none" stroke="green" stroke-width="0.41" stroke-dasharray="1,5" d="M283.98,-247.72C281.62,-238.07 277.64,-221.72 274.02,-206.87"/>
<polygon fill="green" stroke="green" stroke-width="0.41" points="277.52,-206.43 271.75,-197.54 270.72,-208.09 277.52,-206.43"/>
</g>
<!-- &#45;2 -->
<g id="node2" class="node">
<title>&#45;2</title>
<polygon fill="lightgray" stroke="black" points="301.79,-335.74 278.29,-335.74 278.29,-317.24 301.79,-317.24 301.79,-335.74"/>
<text text-anchor="middle" x="290.04" y="-323.19" font-family="Times,serif" font-size="9.00">&#45;2</text>
</g>
<!-- &#45;3 -->
<g id="node3" class="node">
<title>&#45;3</title>
<polygon fill="lightgray" stroke="black" points="817.79,-266.45 794.29,-266.45 794.29,-247.95 817.79,-247.95 817.79,-266.45"/>
<text text-anchor="middle" x="806.04" y="-253.9" font-family="Times,serif" font-size="9.00">&#45;3</text>
</g>
<!-- 3485 -->
<g id="node31" class="node">
<title>3485</title>
<ellipse fill="white" stroke="black" cx="784.04" cy="-173.12" rx="24.04" ry="24.04"/>
<text text-anchor="middle" x="784.04" y="-169.82" font-family="Times,serif" font-size="9.00">3485</text>
</g>
<!-- &#45;3&#45;&gt;3485 -->
<g id="edge25" class="edge">
<title>&#45;3&#45;&gt;3485</title>
<path fill="none" stroke="green" stroke-width="0.65" d="M803.77,-247.72C801.19,-238.1 796.82,-221.81 792.85,-206.99"/>
<polygon fill="green" stroke="green" stroke-width="0.65" points="796.29,-206.29 790.32,-197.54 789.53,-208.1 796.29,-206.29"/>
</g>
<!-- 3487 -->
<g id="node33" class="node">
<title>3487</title>
<ellipse fill="white" stroke="black" cx="608.04" cy="-173.12" rx="24.04" ry="24.04"/>
<text text-anchor="middle" x="608.04" y="-169.82" font-family="Times,serif" font-size="9.00">3487</text>
</g>
<!-- &#45;3&#45;&gt;3487 -->
<g id="edge9" class="edge">
<title>&#45;3&#45;&gt;3487</title>
<path fill="none" stroke="green" stroke-width="0.41" stroke-dasharray="1,5" d="M799.9,-247.51C796.1,-242.7 790.85,-236.94 785.04,-233.16 740.31,-204.05 679.85,-187.96 642.43,-180.18"/>
<polygon fill="green" stroke="green" stroke-width="0.41" points="643.16,-176.76 632.67,-178.24 641.79,-183.62 643.16,-176.76"/>
</g>
<!-- &#45;4 -->
<g id="node4" class="node">
<title>&#45;4</title>
<polygon fill="lightgray" stroke="black" points="989.79,-266.45 966.29,-266.45 966.29,-247.95 989.79,-247.95 989.79,-266.45"/>
<text text-anchor="middle" x="978.04" y="-253.9" font-family="Times,serif" font-size="9.00">&#45;4</text>
</g>
<!-- &#45;4&#45;&gt;3485 -->
<g id="edge31" class="edge">
<title>&#45;4&#45;&gt;3485</title>
<path fill="none" stroke="red" stroke-width="0.12" d="M971.89,-247.53C968.09,-242.72 962.84,-236.96 957.04,-233.16 913.25,-204.45 854.05,-188.22 817.49,-180.31"/>
<polygon fill="red" stroke="red" stroke-width="0.12" points="818.48,-176.94 807.98,-178.33 817.06,-183.8 818.48,-176.94"/>
</g>
<!-- &#45;5 -->
<g id="node5" class="node">
<title>&#45;5</title>
<polygon fill="lightgray" stroke="black" points="427.79,-266.45 404.29,-266.45 404.29,-247.95 427.79,-247.95 427.79,-266.45"/>
<text text-anchor="middle" x="416.04" y="-253.9" font-family="Times,serif" font-size="9.00">&#45;5</text>
</g>
<!-- &#45;5&#45;&gt;3488 -->
<g id="edge22" class="edge">
<title>&#45;5&#45;&gt;3488</title>
<path fill="none" stroke="red" stroke-width="0.18" stroke-dasharray="1,5" d="M423.6,-247.46C427.51,-243.06 432.41,-237.71 437.04,-233.16 450.22,-220.19 465.66,-206.5 478.4,-195.56"/>
<polygon fill="red" stroke="red" stroke-width="0.18" points="480.38,-198.47 485.72,-189.32 475.84,-193.14 480.38,-198.47"/>
</g>
<!-- &#45;6 -->
<g id="node6" class="node">
<title>&#45;6</title>
<polygon fill="lightgray" stroke="black" points="515.79,-266.45 492.29,-266.45 492.29,-247.95 515.79,-247.95 515.79,-266.45"/>
<text text-anchor="middle" x="504.04" y="-253.9" font-family="Times,serif" font-size="9.00">&#45;6</text>
</g>
<!-- &#45;6&#45;&gt;3488 -->
<g id="edge19" class="edge">
<title>&#45;6&#45;&gt;3488</title>
<path fill="none" stroke="green" stroke-width="0.66" stroke-dasharray="1,5" d="M504.04,-247.72C504.04,-238.39 504.04,-222.78 504.04,-208.33"/>
<polygon fill="green" stroke="green" stroke-width="0.66" points="507.54,-208.63 504.04,-198.63 500.54,-208.63 507.54,-208.63"/>
</g>
<!-- &#45;7 -->
<g id="node7" class="node">
<title>&#45;7</title>
<polygon fill="lightgray" stroke="black" points="599.79,-266.45 576.29,-266.45 576.29,-247.95 599.79,-247.95 599.79,-266.45"/>
<text text-anchor="middle" x="588.04" y="-253.9" font-family="Times,serif" font-size="9.00">&#45;7</text>
</g>
<!-- &#45;7&#45;&gt;3488 -->
<g id="edge16" class="edge">
<title>&#45;7&#45;&gt;3488</title>
<path fill="none" stroke="red" stroke-width="0.34" stroke-dasharray="1,5" d="M580.42,-247.52C576.5,-243.13 571.6,-237.78 567.04,-233.16 554.98,-220.93 541.1,-207.82 529.44,-197.07"/>
<polygon fill="red" stroke="red" stroke-width="0.34" points="531.89,-194.57 522.16,-190.39 527.16,-199.73 531.89,-194.57"/>
</g>
<!-- &#45;7&#45;&gt;3485 -->
<g id="edge7" class="edge">
<title>&#45;7&#45;&gt;3485</title>
<path fill="none" stroke="green" stroke-width="0.38" stroke-dasharray="1,5" d="M600.01,-251.19C629.77,-238.72 707.93,-205.99 752.22,-187.44"/>
<polygon fill="green" stroke="green" stroke-width="0.38" points="753.52,-190.69 761.39,-183.6 750.82,-184.24 753.52,-190.69"/>
</g>
<!-- &#45;7&#45;&gt;3486 -->
<g id="edge6" class="edge">
<title>&#45;7&#45;&gt;3486</title>
<path fill="none" stroke="red" stroke-width="0.11" d="M582.42,-247.69C578.66,-242.68 573.27,-236.66 567.04,-233.16 521.47,-207.5 368.63,-186.46 299.96,-178.05"/>
<polygon fill="red" stroke="red" stroke-width="0.11" points="300.6,-174.6 290.25,-176.88 299.76,-181.55 300.6,-174.6"/>
</g>
<!-- &#45;7&#45;&gt;3487 -->
<g id="edge30" class="edge">
<title>&#45;7&#45;&gt;3487</title>
<path fill="none" stroke="green" stroke-width="0.28" stroke-dasharray="1,5" d="M590.11,-247.72C592.46,-238.07 596.44,-221.72 600.06,-206.87"/>
<polygon fill="green" stroke="green" stroke-width="0.28" points="603.41,-207.89 602.38,-197.35 596.61,-206.24 603.41,-207.89"/>
</g>
<!-- &#45;8 -->
<g id="node8" class="node">
<title>&#45;8</title>
<polygon fill="lightgray" stroke="black" points="385.79,-266.45 362.29,-266.45 362.29,-247.95 385.79,-247.95 385.79,-266.45"/>
<text text-anchor="middle" x="374.04" y="-253.9" font-family="Times,serif" font-size="9.00">&#45;8</text>
</g>
<!-- &#45;8&#45;&gt;3488 -->
<g id="edge20" class="edge">
<title>&#45;8&#45;&gt;3488</title>
<path fill="none" stroke="green" stroke-width="0.63" d="M380.45,-247.88C384.34,-243.19 389.59,-237.43 395.04,-233.16 418.85,-214.52 449.35,-198.56 472.03,-187.95"/>
<polygon fill="green" stroke="green" stroke-width="0.63" points="473.35,-191.2 480.98,-183.86 470.43,-184.83 473.35,-191.2"/>
</g>
<!-- &#45;8&#45;&gt;3486 -->
<g id="edge23" class="edge">
<title>&#45;8&#45;&gt;3486</title>
<path fill="none" stroke="green" stroke-width="0.83" d="M367.1,-247.64C363.2,-243.1 358.11,-237.55 353.04,-233.16 335.23,-217.73 313.26,-202.84 295.85,-191.88"/>
<polygon fill="green" stroke="green" stroke-width="0.83" points="298.12,-189.17 287.77,-186.88 294.43,-195.12 298.12,-189.17"/>
</g>
<!-- &#45;8&#45;&gt;3487 -->
<g id="edge10" class="edge">
<title>&#45;8&#45;&gt;3487</title>
<path fill="none" stroke="red" stroke-width="0.44" stroke-dasharray="1,5" d="M379.74,-247.8C383.52,-242.84 388.91,-236.83 395.04,-233.16 450.88,-199.68 474.49,-215.22 537.04,-197.16 549.66,-193.52 563.41,-189.15 575.42,-185.2"/>
<polygon fill="red" stroke="red" stroke-width="0.44" points="576.43,-188.55 584.82,-182.08 574.22,-181.91 576.43,-188.55"/>
</g>
<!-- &#45;9 -->
<g id="node9" class="node">
<title>&#45;9</title>
<polygon fill="lightgray" stroke="black" points="557.79,-266.45 534.29,-266.45 534.29,-247.95 557.79,-247.95 557.79,-266.45"/>
<text text-anchor="middle" x="546.04" y="-253.9" font-family="Times,serif" font-size="9.00">&#45;9</text>
</g>
<!-- &#45;9&#45;&gt;3488 -->
<g id="edge4" class="edge">
<title>&#45;9&#45;&gt;3488</title>
<path fill="none" stroke="red" stroke-width="0.77" d="M541.71,-247.72C536.51,-237.58 527.53,-220.02 519.64,-204.59"/>
<polygon fill="red" stroke="red" stroke-width="0.77" points="522.86,-203.21 515.19,-195.9 516.63,-206.4 522.86,-203.21"/>
</g>
<!-- &#45;9&#45;&gt;3487 -->
<g id="edge29" class="edge">
<title>&#45;9&#45;&gt;3487</title>
<path fill="none" stroke="green" stroke-width="0.13" d="M552.44,-247.72C560.72,-236.77 575.51,-217.18 587.76,-200.97"/>
<polygon fill="green" stroke="green" stroke-width="0.13" points="590.54,-203.1 593.77,-193.01 584.95,-198.88 590.54,-203.1"/>
</g>
<!-- &#45;10 -->
<g id="node10" class="node">
<title>&#45;10</title>
<polygon fill="lightgray" stroke="black" points="344.04,-266.45 316.04,-266.45 316.04,-247.95 344.04,-247.95 344.04,-266.45"/>
<text text-anchor="middle" x="330.04" y="-253.9" font-family="Times,serif" font-size="9.00">&#45;10</text>
</g>
<!-- &#45;10&#45;&gt;3488 -->
<g id="edge38" class="edge">
<title>&#45;10&#45;&gt;3488</title>
<path fill="none" stroke="red" stroke-width="0.34" d="M337,-247.65C341.24,-242.88 346.99,-237.12 353.04,-233.16 390.23,-208.82 439,-192.04 470.9,-182.76"/>
<polygon fill="red" stroke="red" stroke-width="0.34" points="471.47,-186.24 480.14,-180.15 469.56,-179.5 471.47,-186.24"/>
</g>
<!-- &#45;11 -->
<g id="node11" class="node">
<title>&#45;11</title>
<polygon fill="lightgray" stroke="black" points="260.04,-335.74 232.04,-335.74 232.04,-317.24 260.04,-317.24 260.04,-335.74"/>
<text text-anchor="middle" x="246.04" y="-323.19" font-family="Times,serif" font-size="9.00">&#45;11</text>
</g>
<!-- 3630 -->
<g id="node29" class="node">
<title>3630</title>
<ellipse fill="white" stroke="black" cx="194.04" cy="-257.2" rx="24.04" ry="24.04"/>
<text text-anchor="middle" x="194.04" y="-253.9" font-family="Times,serif" font-size="9.00">3630</text>
</g>
<!-- &#45;11&#45;&gt;3630 -->
<g id="edge44" class="edge">
<title>&#45;11&#45;&gt;3630</title>
<path fill="none" stroke="red" stroke-width="0.23" d="M239.46,-316.97C233.21,-308.89 223.49,-296.31 214.65,-284.86"/>
<polygon fill="red" stroke="red" stroke-width="0.23" points="217.52,-282.85 208.63,-277.08 211.98,-287.14 217.52,-282.85"/>
</g>
<!-- &#45;11&#45;&gt;3486 -->
<g id="edge39" class="edge">
<title>&#45;11&#45;&gt;3486</title>
<path fill="none" stroke="red" stroke-width="0.63" stroke-dasharray="1,5" d="M247.17,-316.92C249.89,-296.38 256.88,-243.42 261.55,-208.09"/>
<polygon fill="red" stroke="red" stroke-width="0.63" points="265.01,-208.62 262.85,-198.25 258.07,-207.7 265.01,-208.62"/>
</g>
<!-- &#45;11&#45;&gt;3487 -->
<g id="edge14" class="edge">
<title>&#45;11&#45;&gt;3487</title>
<path fill="none" stroke="green" stroke-width="0.13" stroke-dasharray="1,5" d="M260.49,-319.72C263.29,-318.77 266.23,-317.88 269.04,-317.24 343.11,-300.29 558.22,-337.72 609.04,-281.24 627.11,-261.16 624.35,-229.38 618.59,-205.64"/>
<polygon fill="green" stroke="green" stroke-width="0.13" points="622.02,-204.94 616.03,-196.21 615.27,-206.77 622.02,-204.94"/>
</g>
<!-- &#45;12 -->
<g id="node12" class="node">
<title>&#45;12</title>
<polygon fill="lightgray" stroke="black" points="730.04,-266.45 702.04,-266.45 702.04,-247.95 730.04,-247.95 730.04,-266.45"/>
<text text-anchor="middle" x="716.04" y="-253.9" font-family="Times,serif" font-size="9.00">&#45;12</text>
</g>
<!-- &#45;12&#45;&gt;3488 -->
<g id="edge3" class="edge">
<title>&#45;12&#45;&gt;3488</title>
<path fill="none" stroke="green" stroke-width="0.28" stroke-dasharray="1,5" d="M709.19,-247.47C704.99,-242.65 699.24,-236.89 693.04,-233.16 646.05,-204.91 627.34,-213.62 575.04,-197.16 562.49,-193.21 548.72,-188.76 536.68,-184.84"/>
<polygon fill="green" stroke="green" stroke-width="0.28" points="538.03,-181.6 527.43,-181.82 535.85,-188.25 538.03,-181.6"/>
</g>
<!-- &#45;12&#45;&gt;3485 -->
<g id="edge27" class="edge">
<title>&#45;12&#45;&gt;3485</title>
<path fill="none" stroke="green" stroke-width="0.21" stroke-dasharray="1,5" d="M723.06,-247.72C732.34,-236.53 749.08,-216.32 762.68,-199.9"/>
<polygon fill="green" stroke="green" stroke-width="0.21" points="765.17,-202.38 768.86,-192.45 759.78,-197.92 765.17,-202.38"/>
</g>
<!-- &#45;13 -->
<g id="node13" class="node">
<title>&#45;13</title>
<polygon fill="lightgray" stroke="black" points="348.04,-335.74 320.04,-335.74 320.04,-317.24 348.04,-317.24 348.04,-335.74"/>
<text text-anchor="middle" x="334.04" y="-323.19" font-family="Times,serif" font-size="9.00">&#45;13</text>
</g>
<!-- &#45;14 -->
<g id="node14" class="node">
<title>&#45;14</title>
<polygon fill="lightgray" stroke="black" points="1036.04,-266.45 1008.04,-266.45 1008.04,-247.95 1036.04,-247.95 1036.04,-266.45"/>
<text text-anchor="middle" x="1022.04" y="-253.9" font-family="Times,serif" font-size="9.00">&#45;14</text>
</g>
<!-- &#45;14&#45;&gt;3485 -->
<g id="edge11" class="edge">
<title>&#45;14&#45;&gt;3485</title>
<path fill="none" stroke="red" stroke-width="0.22" d="M1015.62,-247.86C1011.4,-242.92 1005.49,-236.91 999.04,-233.16 940.94,-199.34 862.72,-184.23 818.42,-178.01"/>
<polygon fill="red" stroke="red" stroke-width="0.22" points="818.88,-174.55 808.51,-176.7 817.96,-181.48 818.88,-174.55"/>
</g>
<!-- &#45;15 -->
<g id="node15" class="node">
<title>&#45;15</title>
<polygon fill="lightgray" stroke="black" points="474.04,-266.45 446.04,-266.45 446.04,-247.95 474.04,-247.95 474.04,-266.45"/>
<text text-anchor="middle" x="460.04" y="-253.9" font-family="Times,serif" font-size="9.00">&#45;15</text>
</g>
<!-- &#45;15&#45;&gt;3486 -->
<g id="edge18" class="edge">
<title>&#45;15&#45;&gt;3486</title>
<path fill="none" stroke="green" stroke-width="0.25" stroke-dasharray="1,5" d="M453.14,-247.56C448.92,-242.76 443.17,-237 437.04,-233.16 393.43,-205.85 335.61,-189.32 299.62,-180.95"/>
<polygon fill="green" stroke="green" stroke-width="0.25" points="300.53,-177.56 290,-178.79 298.99,-184.39 300.53,-177.56"/>
</g>
<!-- &#45;15&#45;&gt;3487 -->
<g id="edge21" class="edge">
<title>&#45;15&#45;&gt;3487</title>
<path fill="none" stroke="red" stroke-width="0.56" stroke-dasharray="1,5" d="M467.11,-247.8C471.38,-243.09 477.13,-237.32 483.04,-233.16 512.14,-212.66 549.48,-196.09 575.74,-185.79"/>
<polygon fill="red" stroke="red" stroke-width="0.56" points="576.7,-189.17 584.78,-182.32 574.19,-182.63 576.7,-189.17"/>
</g>
<!-- &#45;16 -->
<g id="node16" class="node">
<title>&#45;16</title>
<polygon fill="lightgray" stroke="black" points="684.04,-266.45 656.04,-266.45 656.04,-247.95 684.04,-247.95 684.04,-266.45"/>
<text text-anchor="middle" x="670.04" y="-253.9" font-family="Times,serif" font-size="9.00">&#45;16</text>
</g>
<!-- &#45;16&#45;&gt;3485 -->
<g id="edge33" class="edge">
<title>&#45;16&#45;&gt;3485</title>
<path fill="none" stroke="red" stroke-width="0.2" d="M677.74,-247.66C682.03,-243.11 687.6,-237.57 693.04,-233.16 712.44,-217.44 736.16,-202.16 754.52,-191.09"/>
<polygon fill="red" stroke="red" stroke-width="0.2" points="756.25,-194.13 763.05,-186.01 752.67,-188.12 756.25,-194.13"/>
</g>
<!-- &#45;16&#45;&gt;3486 -->
<g id="edge34" class="edge">
<title>&#45;16&#45;&gt;3486</title>
<path fill="none" stroke="green" stroke-width="0.36" d="M655.75,-249.91C643.55,-244.76 625.43,-237.62 609.04,-233.16 498.22,-202.99 362.86,-185.07 300.51,-177.84"/>
<polygon fill="green" stroke="green" stroke-width="0.36" points="300.96,-174.37 290.63,-176.72 300.17,-181.33 300.96,-174.37"/>
</g>
<!-- &#45;16&#45;&gt;3487 -->
<g id="edge13" class="edge">
<title>&#45;16&#45;&gt;3487</title>
<path fill="none" stroke="green" stroke-width="0.35" d="M663.64,-247.72C655.37,-236.77 640.57,-217.18 628.32,-200.97"/>
<polygon fill="green" stroke="green" stroke-width="0.35" points="631.33,-199.14 622.51,-193.27 625.75,-203.36 631.33,-199.14"/>
</g>
<!-- &#45;17 -->
<g id="node17" class="node">
<title>&#45;17</title>
<polygon fill="lightgray" stroke="black" points="776.04,-266.45 748.04,-266.45 748.04,-247.95 776.04,-247.95 776.04,-266.45"/>
<text text-anchor="middle" x="762.04" y="-253.9" font-family="Times,serif" font-size="9.00">&#45;17</text>
</g>
<!-- &#45;17&#45;&gt;3488 -->
<g id="edge26" class="edge">
<title>&#45;17&#45;&gt;3488</title>
<path fill="none" stroke="green" stroke-width="0.53" d="M755.69,-247.74C751.5,-242.76 745.58,-236.74 739.04,-233.16 673.6,-197.3 647.06,-216.7 575.04,-197.16 562.37,-193.72 548.61,-189.39 536.6,-185.42"/>
<polygon fill="green" stroke="green" stroke-width="0.53" points="537.94,-182.18 527.34,-182.31 535.71,-188.81 537.94,-182.18"/>
</g>
<!-- &#45;17&#45;&gt;3485 -->
<g id="edge35" class="edge">
<title>&#45;17&#45;&gt;3485</title>
<path fill="none" stroke="green" stroke-width="0.31" d="M764.31,-247.72C766.92,-238.01 771.34,-221.49 775.35,-206.56"/>
<polygon fill="green" stroke="green" stroke-width="0.31" points="778.69,-207.61 777.9,-197.04 771.93,-205.79 778.69,-207.61"/>
</g>
<!-- &#45;18 -->
<g id="node18" class="node">
<title>&#45;18</title>
<polygon fill="lightgray" stroke="black" points="130.04,-335.74 102.04,-335.74 102.04,-317.24 130.04,-317.24 130.04,-335.74"/>
<text text-anchor="middle" x="116.04" y="-323.19" font-family="Times,serif" font-size="9.00">&#45;18</text>
</g>
<!-- 3661 -->
<g id="node28" class="node">
<title>3661</title>
<ellipse fill="white" stroke="black" cx="24.04" cy="-257.2" rx="24.04" ry="24.04"/>
<text text-anchor="middle" x="24.04" y="-253.9" font-family="Times,serif" font-size="9.00">3661</text>
</g>
<!-- &#45;18&#45;&gt;3661 -->
<g id="edge46" class="edge">
<title>&#45;18&#45;&gt;3661</title>
<path fill="none" stroke="green" stroke-width="0.16" d="M104.39,-316.97C91.18,-307.3 69.18,-291.21 51.54,-278.31"/>
<polygon fill="green" stroke="green" stroke-width="0.16" points="53.61,-275.49 43.48,-272.42 49.48,-281.14 53.61,-275.49"/>
</g>
<!-- 3572 -->
<g id="node30" class="node">
<title>3572</title>
<ellipse fill="white" stroke="black" cx="90.04" cy="-257.2" rx="24.04" ry="24.04"/>
<text text-anchor="middle" x="90.04" y="-253.9" font-family="Times,serif" font-size="9.00">3572</text>
</g>
<!-- &#45;18&#45;&gt;3572 -->
<g id="edge42" class="edge">
<title>&#45;18&#45;&gt;3572</title>
<path fill="none" stroke="green" stroke-width="0.37" stroke-dasharray="1,5" d="M112.75,-316.97C110.08,-310.07 106.16,-299.9 102.31,-289.96"/>
<polygon fill="green" stroke="green" stroke-width="0.37" points="105.62,-288.8 98.75,-280.73 99.09,-291.32 105.62,-288.8"/>
</g>
<!-- &#45;18&#45;&gt;3485 -->
<g id="edge1" class="edge">
<title>&#45;18&#45;&gt;3485</title>
<path fill="none" stroke="red" stroke-width="0.56" d="M130.23,-324.32C150.71,-322.64 189.77,-319.52 223.04,-317.24 290.12,-312.66 780.94,-330.17 827.04,-281.24 848.71,-258.25 827.38,-222.95 807.8,-199.22"/>
<polygon fill="red" stroke="red" stroke-width="0.56" points="810.48,-196.97 801.3,-191.69 805.18,-201.55 810.48,-196.97"/>
</g>
<!-- &#45;18&#45;&gt;3486 -->
<g id="edge5" class="edge">
<title>&#45;18&#45;&gt;3486</title>
<path fill="none" stroke="green" stroke-width="0.62" stroke-dasharray="1,5" d="M118.35,-316.84C123.42,-299.2 137.06,-258.59 161.04,-233.16 181.2,-211.78 210.85,-196.09 233.51,-186.27"/>
<polygon fill="green" stroke="green" stroke-width="0.62" points="234.61,-189.61 242.51,-182.54 231.93,-183.14 234.61,-189.61"/>
</g>
<!-- &#45;19 -->
<g id="node19" class="node">
<title>&#45;19</title>
<polygon fill="lightgray" stroke="black" points="902.04,-266.45 874.04,-266.45 874.04,-247.95 902.04,-247.95 902.04,-266.45"/>
<text text-anchor="middle" x="888.04" y="-253.9" font-family="Times,serif" font-size="9.00">&#45;19</text>
</g>
<!-- &#45;19&#45;&gt;3485 -->
<g id="edge17" class="edge">
<title>&#45;19&#45;&gt;3485</title>
<path fill="none" stroke="red" stroke-width="0.32" d="M877.73,-247.59C872.46,-243.23 865.94,-237.88 860.04,-233.16 843.9,-220.25 825.61,-206.03 811.02,-194.78"/>
<polygon fill="red" stroke="red" stroke-width="0.32" points="813.34,-192.15 803.28,-188.82 809.07,-197.7 813.34,-192.15"/>
</g>
<!-- &#45;20 -->
<g id="node20" class="node">
<title>&#45;20</title>
<polygon fill="lightgray" stroke="black" points="948.04,-266.45 920.04,-266.45 920.04,-247.95 948.04,-247.95 948.04,-266.45"/>
<text text-anchor="middle" x="934.04" y="-253.9" font-family="Times,serif" font-size="9.00">&#45;20</text>
</g>
<!-- &#45;20&#45;&gt;3485 -->
<g id="edge37" class="edge">
<title>&#45;20&#45;&gt;3485</title>
<path fill="none" stroke="red" stroke-width="0.54" d="M926.99,-247.79C922.72,-243.07 916.97,-237.31 911.04,-233.16 881.5,-212.48 843.56,-195.94 816.87,-185.69"/>
<polygon fill="red" stroke="red" stroke-width="0.54" points="818.24,-182.47 807.65,-182.23 815.78,-189.02 818.24,-182.47"/>
</g>
<!-- 0 -->
<g id="node21" class="node">
<title>0</title>
<ellipse fill="lightblue" stroke="black" cx="543.04" cy="-89.03" rx="14.5" ry="14.5"/>
<text text-anchor="middle" x="543.04" y="-85.73" font-family="Times,serif" font-size="9.00">0</text>
</g>
<!-- 2 -->
<g id="node23" class="node">
<title>2</title>
<ellipse fill="lightblue" stroke="black" cx="721.04" cy="-89.03" rx="14.5" ry="14.5"/>
<text text-anchor="middle" x="721.04" y="-85.73" font-family="Times,serif" font-size="9.00">2</text>
</g>
<!-- 3 -->
<g id="node24" class="node">
<title>3</title>
<ellipse fill="lightblue" stroke="black" cx="608.04" cy="-89.03" rx="14.5" ry="14.5"/>
<text text-anchor="middle" x="608.04" y="-85.73" font-family="Times,serif" font-size="9.00">3</text>
</g>
<!-- 4 -->
<g id="node25" class="node">
<title>4</title>
<ellipse fill="lightblue" stroke="black" cx="266.04" cy="-14.5" rx="14.5" ry="14.5"/>
<text text-anchor="middle" x="266.04" y="-11.2" font-family="Times,serif" font-size="9.00">4</text>
</g>
<!-- 4&#45;&gt;4 -->
<g id="edge41" class="edge">
<title>4&#45;&gt;4</title>
<path fill="none" stroke="green" stroke-width="0.3" stroke-dasharray="1,5" d="M276.02,-25.19C286.6,-31.89 298.54,-28.33 298.54,-14.5 298.54,-4.99 292.9,-0.33 285.93,-0.53"/>
<polygon fill="green" stroke="green" stroke-width="0.3" points="284.85,2.8 276.45,-3.66 287.04,-3.84 284.85,2.8"/>
</g>
<!-- 3488&#45;&gt;0 -->
<g id="edge8" class="edge">
<title>3488&#45;&gt;0</title>
<path fill="none" stroke="red" stroke-width="0.35" d="M514.09,-150.98C519.8,-138.95 526.94,-123.92 532.7,-111.8"/>
<polygon fill="red" stroke="red" stroke-width="0.35" points="535.79,-113.44 536.93,-102.91 529.47,-110.44 535.79,-113.44"/>
</g>
<!-- 3488&#45;&gt;1 -->
<g id="edge36" class="edge">
<title>3488&#45;&gt;1</title>
<path fill="none" stroke="red" stroke-width="0.31" d="M486.69,-156.29C471.03,-142.01 448.08,-121.08 432.18,-106.58"/>
<polygon fill="red" stroke="red" stroke-width="0.31" points="434.68,-104.12 424.93,-99.97 429.96,-109.29 434.68,-104.12"/>
</g>
<!-- 4396 -->
<g id="node27" class="node">
<title>4396</title>
<ellipse fill="white" stroke="black" cx="292.04" cy="-89.03" rx="24.04" ry="24.04"/>
<text text-anchor="middle" x="292.04" y="-85.73" font-family="Times,serif" font-size="9.00">4396</text>
</g>
<!-- 4396&#45;&gt;4 -->
<g id="edge50" class="edge">
<title>4396&#45;&gt;4</title>
<path fill="none" stroke="green" stroke-width="0.28" d="M284.1,-65.88C280.97,-57.13 277.37,-47.09 274.21,-38.29"/>
<polygon fill="green" stroke="green" stroke-width="0.28" points="277.58,-37.3 270.91,-29.07 270.99,-39.67 277.58,-37.3"/>
</g>
<!-- 3661&#45;&gt;3486 -->
<g id="edge47" class="edge">
<title>3661&#45;&gt;3486</title>
<path fill="none" stroke="green" stroke-width="0.23" d="M42.57,-241.66C47.13,-238.54 52.12,-235.49 57.04,-233.16 115.63,-205.4 189.79,-188.3 232.18,-180.06"/>
<polygon fill="green" stroke="green" stroke-width="0.23" points="232.72,-183.52 241.9,-178.22 231.42,-176.64 232.72,-183.52"/>
</g>
<!-- 3630&#45;&gt;3486 -->
<g id="edge45" class="edge">
<title>3630&#45;&gt;3486</title>
<path fill="none" stroke="red" stroke-width="0.13" d="M209.66,-238.39C219.67,-226.99 232.8,-212.02 243.87,-199.4"/>
<polygon fill="red" stroke="red" stroke-width="0.13" points="246.36,-201.86 250.32,-192.04 241.1,-197.24 246.36,-201.86"/>
</g>
<!-- 3572&#45;&gt;3486 -->
<g id="edge43" class="edge">
<title>3572&#45;&gt;3486</title>
<path fill="none" stroke="green" stroke-width="0.44" stroke-dasharray="1,5" d="M109.86,-243.46C115.63,-239.95 122,-236.26 128.04,-233.16 163.34,-215.02 205.48,-197.57 233.83,-186.4"/>
<polygon fill="green" stroke="green" stroke-width="0.44" points="234.95,-189.72 242.99,-182.83 232.41,-183.2 234.95,-189.72"/>
</g>
<!-- 3485&#45;&gt;0 -->
<g id="edge32" class="edge">
<title>3485&#45;&gt;0</title>
<path fill="none" stroke="green" stroke-width="0.44" d="M760.5,-166.86C722.68,-158.04 646.41,-138.67 585.04,-113.07 578.03,-110.15 570.67,-106.38 564.11,-102.73"/>
<polygon fill="green" stroke="green" stroke-width="0.44" points="566.18,-99.89 555.77,-97.94 562.69,-105.96 566.18,-99.89"/>
</g>
<!-- 3485&#45;&gt;2 -->
<g id="edge2" class="edge">
<title>3485&#45;&gt;2</title>
<path fill="none" stroke="red" stroke-width="0.31" stroke-dasharray="1,5" d="M769.75,-153.49C759.62,-140.3 746.07,-122.65 735.84,-109.31"/>
<polygon fill="red" stroke="red" stroke-width="0.31" points="738.81,-107.44 729.95,-101.64 733.26,-111.7 738.81,-107.44"/>
</g>
<!-- 3486&#45;&gt;4 -->
<g id="edge28" class="edge">
<title>3486&#45;&gt;4</title>
<path fill="none" stroke="green" stroke-width="0.35" stroke-dasharray="1,5" d="M262.65,-148.9C261.23,-138.04 259.74,-124.92 259.04,-113.07 257.78,-91.74 257.54,-86.31 259.04,-64.99 259.64,-56.54 260.8,-47.34 262,-39.18"/>
<polygon fill="green" stroke="green" stroke-width="0.35" points="265.44,-39.83 263.55,-29.4 258.53,-38.73 265.44,-39.83"/>
</g>
<!-- 3486&#45;&gt;4396 -->
<g id="edge49" class="edge">
<title>3486&#45;&gt;4396</title>
<path fill="none" stroke="green" stroke-width="0.3" d="M273.15,-149.69C275.81,-141.27 278.9,-131.53 281.79,-122.39"/>
<polygon fill="green" stroke="green" stroke-width="0.3" points="285.13,-123.46 284.81,-112.87 278.45,-121.34 285.13,-123.46"/>
</g>
<!-- 3487&#45;&gt;2 -->
<g id="edge12" class="edge">
<title>3487&#45;&gt;2</title>
<path fill="none" stroke="red" stroke-width="0.8" stroke-dasharray="1,5" d="M627.21,-158.19C647.65,-143.35 679.89,-119.93 700.75,-104.78"/>
<polygon fill="red" stroke="red" stroke-width="0.8" points="702.7,-107.68 708.73,-98.97 698.59,-102.02 702.7,-107.68"/>
</g>
<!-- 3487&#45;&gt;3 -->
<g id="edge24" class="edge">
<title>3487&#45;&gt;3</title>
<path fill="none" stroke="green" stroke-width="0.26" d="M608.04,-148.81C608.04,-137.87 608.04,-124.83 608.04,-113.82"/>
<polygon fill="green" stroke="green" stroke-width="0.26" points="611.54,-114.04 608.04,-104.04 604.54,-114.04 611.54,-114.04"/>
</g>
</g>
</svg>
