<?xml version="1.0" encoding="UTF-8" standalone="no"?>
<!DOCTYPE svg PUBLIC "-//W3C//DTD SVG 1.1//EN"
 "http://www.w3.org/Graphics/SVG/1.1/DTD/svg11.dtd">
<!-- Generated by graphviz version 12.1.1 (20240910.0053)
 -->
<!-- Pages: 1 -->
<svg width="802pt" height="344pt"
 viewBox="0.00 0.00 802.00 343.74" xmlns="http://www.w3.org/2000/svg" xmlns:xlink="http://www.w3.org/1999/xlink">
<g id="graph0" class="graph" transform="scale(1 1) rotate(0) translate(4 339.74)">
<polygon fill="white" stroke="none" points="-4,4 -4,-339.74 798,-339.74 798,4 -4,4"/>
<!-- &#45;1 -->
<g id="node1" class="node">
<title>&#45;1</title>
<polygon fill="lightgray" stroke="black" points="617.75,-266.45 594.25,-266.45 594.25,-247.95 617.75,-247.95 617.75,-266.45"/>
<text text-anchor="middle" x="606" y="-253.9" font-family="Times,serif" font-size="9.00">&#45;1</text>
</g>
<!-- 5197 -->
<g id="node27" class="node">
<title>5197</title>
<ellipse fill="white" stroke="black" cx="474" cy="-173.12" rx="24.04" ry="24.04"/>
<text text-anchor="middle" x="474" y="-169.82" font-family="Times,serif" font-size="9.00">5197</text>
</g>
<!-- &#45;1&#45;&gt;5197 -->
<g id="edge30" class="edge">
<title>&#45;1&#45;&gt;5197</title>
<path fill="none" stroke="red" stroke-width="0.13" stroke-dasharray="1,5" d="M599.6,-247.87C595.72,-243.17 590.47,-237.41 585,-233.16 560.3,-213.98 528.49,-197.78 505.25,-187.22"/>
<polygon fill="red" stroke="red" stroke-width="0.13" points="506.92,-184.13 496.36,-183.27 504.07,-190.53 506.92,-184.13"/>
</g>
<!-- 5198 -->
<g id="node28" class="node">
<title>5198</title>
<ellipse fill="white" stroke="black" cx="645" cy="-173.12" rx="24.04" ry="24.04"/>
<text text-anchor="middle" x="645" y="-169.82" font-family="Times,serif" font-size="9.00">5198</text>
</g>
<!-- &#45;1&#45;&gt;5198 -->
<g id="edge33" class="edge">
<title>&#45;1&#45;&gt;5198</title>
<path fill="none" stroke="red" stroke-width="0.36" d="M610.03,-247.72C614.86,-237.55 623.24,-219.92 630.58,-204.46"/>
<polygon fill="red" stroke="red" stroke-width="0.36" points="633.62,-206.23 634.75,-195.7 627.29,-203.23 633.62,-206.23"/>
</g>
<!-- 5199 -->
<g id="node29" class="node">
<title>5199</title>
<ellipse fill="white" stroke="black" cx="472" cy="-24.04" rx="24.04" ry="24.04"/>
<text text-anchor="middle" x="472" y="-20.74" font-family="Times,serif" font-size="9.00">5199</text>
</g>
<!-- &#45;1&#45;&gt;5199 -->
<g id="edge39" class="edge">
<title>&#45;1&#45;&gt;5199</title>
<path fill="none" stroke="green" stroke-width="0.11" stroke-dasharray="1,5" d="M602.14,-247.7C590.45,-222.19 553.86,-144.32 516,-84.08 509.04,-73.01 500.61,-61.35 493,-51.35"/>
<polygon fill="green" stroke="green" stroke-width="0.11" points="495.84,-49.29 486.95,-43.52 490.3,-53.57 495.84,-49.29"/>
</g>
<!-- &#45;2 -->
<g id="node2" class="node">
<title>&#45;2</title>
<polygon fill="lightgray" stroke="black" points="267.75,-107.83 244.25,-107.83 244.25,-89.33 267.75,-89.33 267.75,-107.83"/>
<text text-anchor="middle" x="256" y="-95.28" font-family="Times,serif" font-size="9.00">&#45;2</text>
</g>
<!-- &#45;2&#45;&gt;5199 -->
<g id="edge11" class="edge">
<title>&#45;2&#45;&gt;5199</title>
<path fill="none" stroke="red" stroke-width="0.21" stroke-dasharray="1,5" d="M268.11,-88.99C270.94,-87.21 274.01,-85.46 277,-84.08 331.24,-59.04 398.8,-41.34 438.48,-32.2"/>
<polygon fill="red" stroke="red" stroke-width="0.21" points="439.13,-35.64 448.12,-30.02 437.59,-28.81 439.13,-35.64"/>
</g>
<!-- &#45;3 -->
<g id="node3" class="node">
<title>&#45;3</title>
<polygon fill="lightgray" stroke="black" points="261.75,-266.45 238.25,-266.45 238.25,-247.95 261.75,-247.95 261.75,-266.45"/>
<text text-anchor="middle" x="250" y="-253.9" font-family="Times,serif" font-size="9.00">&#45;3</text>
</g>
<!-- 5196 -->
<g id="node26" class="node">
<title>5196</title>
<ellipse fill="white" stroke="black" cx="279" cy="-173.12" rx="24.04" ry="24.04"/>
<text text-anchor="middle" x="279" y="-169.82" font-family="Times,serif" font-size="9.00">5196</text>
</g>
<!-- &#45;3&#45;&gt;5196 -->
<g id="edge18" class="edge">
<title>&#45;3&#45;&gt;5196</title>
<path fill="none" stroke="red" stroke-width="0.13" d="M252.99,-247.72C256.48,-237.85 262.46,-220.94 267.8,-205.82"/>
<polygon fill="red" stroke="red" stroke-width="0.13" points="271.09,-207.02 271.12,-196.43 264.49,-204.69 271.09,-207.02"/>
</g>
<!-- &#45;3&#45;&gt;5197 -->
<g id="edge40" class="edge">
<title>&#45;3&#45;&gt;5197</title>
<path fill="none" stroke="red" stroke-width="0.34" stroke-dasharray="1,5" d="M255.74,-247.88C259.54,-242.94 264.94,-236.94 271,-233.16 324.3,-199.94 397.03,-184.75 439.42,-178.33"/>
<polygon fill="red" stroke="red" stroke-width="0.34" points="439.85,-181.8 449.25,-176.92 438.86,-174.87 439.85,-181.8"/>
</g>
<!-- &#45;3&#45;&gt;5199 -->
<g id="edge47" class="edge">
<title>&#45;3&#45;&gt;5199</title>
<path fill="none" stroke="red" stroke-width="0.62" stroke-dasharray="1,5" d="M245.54,-247.52C232.17,-220.15 195.66,-134.42 235,-84.08 259.71,-52.46 377.47,-35.32 437.15,-28.54"/>
<polygon fill="red" stroke="red" stroke-width="0.62" points="437.43,-32.03 446.99,-27.46 436.67,-25.07 437.43,-32.03"/>
</g>
<!-- &#45;4 -->
<g id="node4" class="node">
<title>&#45;4</title>
<polygon fill="lightgray" stroke="black" points="441.75,-266.45 418.25,-266.45 418.25,-247.95 441.75,-247.95 441.75,-266.45"/>
<text text-anchor="middle" x="430" y="-253.9" font-family="Times,serif" font-size="9.00">&#45;4</text>
</g>
<!-- &#45;4&#45;&gt;5197 -->
<g id="edge15" class="edge">
<title>&#45;4&#45;&gt;5197</title>
<path fill="none" stroke="red" stroke-width="0.26" stroke-dasharray="1,5" d="M434.54,-247.72C440.09,-237.38 449.76,-219.34 458.13,-203.71"/>
<polygon fill="red" stroke="red" stroke-width="0.26" points="461.06,-205.67 462.7,-195.21 454.89,-202.37 461.06,-205.67"/>
</g>
<!-- &#45;5 -->
<g id="node5" class="node">
<title>&#45;5</title>
<polygon fill="lightgray" stroke="black" points="659.75,-266.45 636.25,-266.45 636.25,-247.95 659.75,-247.95 659.75,-266.45"/>
<text text-anchor="middle" x="648" y="-253.9" font-family="Times,serif" font-size="9.00">&#45;5</text>
</g>
<!-- &#45;5&#45;&gt;5197 -->
<g id="edge27" class="edge">
<title>&#45;5&#45;&gt;5197</title>
<path fill="none" stroke="red" stroke-width="0.4" d="M641.79,-247.61C637.97,-242.83 632.72,-237.07 627,-233.16 589.79,-207.7 540.07,-191.14 507.55,-182.22"/>
<polygon fill="red" stroke="red" stroke-width="0.4" points="508.79,-178.93 498.23,-179.75 507,-185.69 508.79,-178.93"/>
</g>
<!-- &#45;5&#45;&gt;5198 -->
<g id="edge13" class="edge">
<title>&#45;5&#45;&gt;5198</title>
<path fill="none" stroke="green" stroke-width="0.24" d="M647.69,-247.72C647.35,-238.3 646.77,-222.47 646.24,-207.91"/>
<polygon fill="green" stroke="green" stroke-width="0.24" points="649.74,-207.86 645.87,-198 642.74,-208.12 649.74,-207.86"/>
</g>
<!-- &#45;6 -->
<g id="node6" class="node">
<title>&#45;6</title>
<polygon fill="lightgray" stroke="black" points="575.75,-266.45 552.25,-266.45 552.25,-247.95 575.75,-247.95 575.75,-266.45"/>
<text text-anchor="middle" x="564" y="-253.9" font-family="Times,serif" font-size="9.00">&#45;6</text>
</g>
<!-- &#45;6&#45;&gt;5196 -->
<g id="edge26" class="edge">
<title>&#45;6&#45;&gt;5196</title>
<path fill="none" stroke="red" stroke-width="0.19" stroke-dasharray="1,5" d="M558.34,-247.74C554.57,-242.76 549.18,-236.74 543,-233.16 504.03,-210.54 375.14,-188.65 313.04,-179.11"/>
<polygon fill="red" stroke="red" stroke-width="0.19" points="313.66,-175.67 303.25,-177.63 312.61,-182.59 313.66,-175.67"/>
</g>
<!-- &#45;6&#45;&gt;5198 -->
<g id="edge34" class="edge">
<title>&#45;6&#45;&gt;5198</title>
<path fill="none" stroke="green" stroke-width="0.62" d="M571.67,-247.56C575.6,-243.19 580.5,-237.84 585,-233.16 596.42,-221.3 609.4,-208.44 620.37,-197.76"/>
<polygon fill="green" stroke="green" stroke-width="0.62" points="622.53,-200.54 627.28,-191.07 617.66,-195.52 622.53,-200.54"/>
</g>
<!-- &#45;6&#45;&gt;5199 -->
<g id="edge6" class="edge">
<title>&#45;6&#45;&gt;5199</title>
<path fill="none" stroke="red" stroke-width="0.13" d="M560.62,-247.7C548.35,-216.87 505.8,-109.97 484.44,-56.3"/>
<polygon fill="red" stroke="red" stroke-width="0.13" points="487.73,-55.11 480.78,-47.11 481.23,-57.7 487.73,-55.11"/>
</g>
<!-- &#45;7 -->
<g id="node7" class="node">
<title>&#45;7</title>
<polygon fill="lightgray" stroke="black" points="747.75,-266.45 724.25,-266.45 724.25,-247.95 747.75,-247.95 747.75,-266.45"/>
<text text-anchor="middle" x="736" y="-253.9" font-family="Times,serif" font-size="9.00">&#45;7</text>
</g>
<!-- &#45;7&#45;&gt;5198 -->
<g id="edge37" class="edge">
<title>&#45;7&#45;&gt;5198</title>
<path fill="none" stroke="green" stroke-width="0.12" d="M728.87,-247.85C724.91,-243.36 719.84,-237.81 715,-233.16 701.24,-219.92 684.99,-206.11 671.61,-195.18"/>
<polygon fill="green" stroke="green" stroke-width="0.12" points="673.82,-192.46 663.84,-188.89 669.41,-197.9 673.82,-192.46"/>
</g>
<!-- &#45;7&#45;&gt;5199 -->
<g id="edge28" class="edge">
<title>&#45;7&#45;&gt;5199</title>
<path fill="none" stroke="red" stroke-width="0.13" d="M737.15,-247.55C740.33,-219.5 746.25,-130.22 700,-84.08 672.75,-56.9 562.25,-37.76 505.7,-29.54"/>
<polygon fill="red" stroke="red" stroke-width="0.13" points="506.4,-26.11 496,-28.16 505.41,-33.04 506.4,-26.11"/>
</g>
<!-- &#45;8 -->
<g id="node8" class="node">
<title>&#45;8</title>
<polygon fill="lightgray" stroke="black" points="115.75,-266.45 92.25,-266.45 92.25,-247.95 115.75,-247.95 115.75,-266.45"/>
<text text-anchor="middle" x="104" y="-253.9" font-family="Times,serif" font-size="9.00">&#45;8</text>
</g>
<!-- &#45;8&#45;&gt;5196 -->
<g id="edge36" class="edge">
<title>&#45;8&#45;&gt;5196</title>
<path fill="none" stroke="red" stroke-width="0.45" stroke-dasharray="1,5" d="M112.07,-247.71C116.92,-242.96 123.42,-237.2 130,-233.16 167.16,-210.31 214.69,-193.3 245.95,-183.55"/>
<polygon fill="red" stroke="red" stroke-width="0.45" points="246.69,-186.99 255.24,-180.72 244.65,-180.29 246.69,-186.99"/>
</g>
<!-- &#45;9 -->
<g id="node9" class="node">
<title>&#45;9</title>
<polygon fill="lightgray" stroke="black" points="225.75,-335.74 202.25,-335.74 202.25,-317.24 225.75,-317.24 225.75,-335.74"/>
<text text-anchor="middle" x="214" y="-323.19" font-family="Times,serif" font-size="9.00">&#45;9</text>
</g>
<!-- &#45;10 -->
<g id="node10" class="node">
<title>&#45;10</title>
<polygon fill="lightgray" stroke="black" points="488,-266.45 460,-266.45 460,-247.95 488,-247.95 488,-266.45"/>
<text text-anchor="middle" x="474" y="-253.9" font-family="Times,serif" font-size="9.00">&#45;10</text>
</g>
<!-- &#45;10&#45;&gt;5197 -->
<g id="edge43" class="edge">
<title>&#45;10&#45;&gt;5197</title>
<path fill="none" stroke="red" stroke-width="0.37" d="M474,-247.72C474,-238.3 474,-222.47 474,-207.91"/>
<polygon fill="red" stroke="red" stroke-width="0.37" points="477.5,-208.2 474,-198.2 470.5,-208.2 477.5,-208.2"/>
</g>
<!-- &#45;11 -->
<g id="node11" class="node">
<title>&#45;11</title>
<polygon fill="lightgray" stroke="black" points="706,-266.45 678,-266.45 678,-247.95 706,-247.95 706,-266.45"/>
<text text-anchor="middle" x="692" y="-253.9" font-family="Times,serif" font-size="9.00">&#45;11</text>
</g>
<!-- &#45;11&#45;&gt;5197 -->
<g id="edge22" class="edge">
<title>&#45;11&#45;&gt;5197</title>
<path fill="none" stroke="red" stroke-width="0.54" d="M685.15,-247.47C680.95,-242.64 675.2,-236.88 669,-233.16 617.73,-202.41 549.17,-186.53 508.49,-179.29"/>
<polygon fill="red" stroke="red" stroke-width="0.54" points="509.29,-175.87 498.85,-177.64 508.12,-182.77 509.29,-175.87"/>
</g>
<!-- &#45;11&#45;&gt;5198 -->
<g id="edge17" class="edge">
<title>&#45;11&#45;&gt;5198</title>
<path fill="none" stroke="red" stroke-width="0.14" d="M687.15,-247.72C681.13,-237.22 670.57,-218.76 661.52,-202.96"/>
<polygon fill="red" stroke="red" stroke-width="0.14" points="664.8,-201.65 656.79,-194.71 658.72,-205.13 664.8,-201.65"/>
</g>
<!-- &#45;11&#45;&gt;5199 -->
<g id="edge41" class="edge">
<title>&#45;11&#45;&gt;5199</title>
<path fill="none" stroke="red" stroke-width="0.23" d="M694.28,-247.83C701.12,-220.64 718.66,-133.71 678,-84.08 656.23,-57.51 558.65,-38.55 505.98,-30.05"/>
<polygon fill="red" stroke="red" stroke-width="0.23" points="506.85,-26.64 496.43,-28.54 505.76,-33.56 506.85,-26.64"/>
</g>
<!-- &#45;12 -->
<g id="node12" class="node">
<title>&#45;12</title>
<polygon fill="lightgray" stroke="black" points="272,-335.74 244,-335.74 244,-317.24 272,-317.24 272,-335.74"/>
<text text-anchor="middle" x="258" y="-323.19" font-family="Times,serif" font-size="9.00">&#45;12</text>
</g>
<!-- &#45;13 -->
<g id="node13" class="node">
<title>&#45;13</title>
<polygon fill="lightgray" stroke="black" points="184,-335.74 156,-335.74 156,-317.24 184,-317.24 184,-335.74"/>
<text text-anchor="middle" x="170" y="-323.19" font-family="Times,serif" font-size="9.00">&#45;13</text>
</g>
<!-- &#45;13&#45;&gt;5196 -->
<g id="edge42" class="edge">
<title>&#45;13&#45;&gt;5196</title>
<path fill="none" stroke="green" stroke-width="0.2" d="M166.21,-316.81C159.25,-299.47 146.61,-259.88 163,-233.16 180.88,-203.99 218.19,-188.67 245.69,-181.02"/>
<polygon fill="green" stroke="green" stroke-width="0.2" points="246.22,-184.5 255.03,-178.62 244.47,-177.72 246.22,-184.5"/>
</g>
<!-- 5336 -->
<g id="node30" class="node">
<title>5336</title>
<ellipse fill="white" stroke="black" cx="196" cy="-257.2" rx="24.04" ry="24.04"/>
<text text-anchor="middle" x="196" y="-253.9" font-family="Times,serif" font-size="9.00">5336</text>
</g>
<!-- &#45;13&#45;&gt;5336 -->
<g id="edge45" class="edge">
<title>&#45;13&#45;&gt;5336</title>
<path fill="none" stroke="green" stroke-width="0.47" d="M173.29,-316.97C175.96,-310.07 179.89,-299.9 183.73,-289.96"/>
<polygon fill="green" stroke="green" stroke-width="0.47" points="186.9,-291.46 187.24,-280.87 180.37,-288.94 186.9,-291.46"/>
</g>
<!-- &#45;14 -->
<g id="node14" class="node">
<title>&#45;14</title>
<polygon fill="lightgray" stroke="black" points="28,-266.45 0,-266.45 0,-247.95 28,-247.95 28,-266.45"/>
<text text-anchor="middle" x="14" y="-253.9" font-family="Times,serif" font-size="9.00">&#45;14</text>
</g>
<!-- &#45;14&#45;&gt;5196 -->
<g id="edge24" class="edge">
<title>&#45;14&#45;&gt;5196</title>
<path fill="none" stroke="red" stroke-width="0.39" d="M20.39,-247.79C24.59,-242.83 30.5,-236.82 37,-233.16 104.27,-195.28 195.38,-181.52 244.39,-176.66"/>
<polygon fill="red" stroke="red" stroke-width="0.39" points="244.52,-180.16 254.16,-175.76 243.88,-173.19 244.52,-180.16"/>
</g>
<!-- &#45;14&#45;&gt;5199 -->
<g id="edge21" class="edge">
<title>&#45;14&#45;&gt;5199</title>
<path fill="none" stroke="green" stroke-width="0.47" stroke-dasharray="1,5" d="M18.63,-247.69C35.06,-218.51 93.8,-122.14 173,-84.08 261.93,-41.34 379.96,-29.54 437.5,-26.28"/>
<polygon fill="green" stroke="green" stroke-width="0.47" points="437.32,-29.8 447.13,-25.79 436.97,-22.81 437.32,-29.8"/>
</g>
<!-- &#45;15 -->
<g id="node15" class="node">
<title>&#45;15</title>
<polygon fill="lightgray" stroke="black" points="794,-266.45 766,-266.45 766,-247.95 794,-247.95 794,-266.45"/>
<text text-anchor="middle" x="780" y="-253.9" font-family="Times,serif" font-size="9.00">&#45;15</text>
</g>
<!-- &#45;15&#45;&gt;5198 -->
<g id="edge29" class="edge">
<title>&#45;15&#45;&gt;5198</title>
<path fill="none" stroke="green" stroke-width="0.16" stroke-dasharray="1,5" d="M772.46,-247.46C768.21,-242.86 762.64,-237.32 757,-233.16 731.66,-214.46 699.61,-198.2 676.29,-187.5"/>
<polygon fill="green" stroke="green" stroke-width="0.16" points="677.97,-184.42 667.41,-183.51 675.1,-190.81 677.97,-184.42"/>
</g>
<!-- &#45;15&#45;&gt;5199 -->
<g id="edge16" class="edge">
<title>&#45;15&#45;&gt;5199</title>
<path fill="none" stroke="green" stroke-width="0.5" d="M780.09,-247.76C779.91,-219.59 775.23,-128.13 724,-84.08 691.52,-56.16 567.67,-37.08 506.55,-29.16"/>
<polygon fill="green" stroke="green" stroke-width="0.5" points="507.01,-25.69 496.65,-27.91 506.13,-32.64 507.01,-25.69"/>
</g>
<!-- &#45;16 -->
<g id="node16" class="node">
<title>&#45;16</title>
<polygon fill="lightgray" stroke="black" points="308,-266.45 280,-266.45 280,-247.95 308,-247.95 308,-266.45"/>
<text text-anchor="middle" x="294" y="-253.9" font-family="Times,serif" font-size="9.00">&#45;16</text>
</g>
<!-- &#45;16&#45;&gt;5196 -->
<g id="edge23" class="edge">
<title>&#45;16&#45;&gt;5196</title>
<path fill="none" stroke="red" stroke-width="0.2" d="M292.45,-247.72C290.7,-238.14 287.74,-221.94 285.04,-207.18"/>
<polygon fill="red" stroke="red" stroke-width="0.2" points="288.53,-206.78 283.29,-197.58 281.64,-208.04 288.53,-206.78"/>
</g>
<!-- &#45;16&#45;&gt;5197 -->
<g id="edge25" class="edge">
<title>&#45;16&#45;&gt;5197</title>
<path fill="none" stroke="green" stroke-width="0.18" d="M300.94,-247.62C305.17,-242.84 310.92,-237.08 317,-233.16 356.14,-207.9 407.66,-191.16 440.81,-182.15"/>
<polygon fill="green" stroke="green" stroke-width="0.18" points="441.43,-185.61 450.21,-179.67 439.65,-178.84 441.43,-185.61"/>
</g>
<!-- &#45;17 -->
<g id="node17" class="node">
<title>&#45;17</title>
<polygon fill="lightgray" stroke="black" points="534,-266.45 506,-266.45 506,-247.95 534,-247.95 534,-266.45"/>
<text text-anchor="middle" x="520" y="-253.9" font-family="Times,serif" font-size="9.00">&#45;17</text>
</g>
<!-- &#45;17&#45;&gt;5197 -->
<g id="edge2" class="edge">
<title>&#45;17&#45;&gt;5197</title>
<path fill="none" stroke="red" stroke-width="0.32" d="M515.25,-247.72C509.42,-237.32 499.21,-219.11 490.41,-203.4"/>
<polygon fill="red" stroke="red" stroke-width="0.32" points="493.62,-201.96 485.68,-194.95 487.51,-205.38 493.62,-201.96"/>
</g>
<!-- &#45;18 -->
<g id="node18" class="node">
<title>&#45;18</title>
<polygon fill="lightgray" stroke="black" points="74,-266.45 46,-266.45 46,-247.95 74,-247.95 74,-266.45"/>
<text text-anchor="middle" x="60" y="-253.9" font-family="Times,serif" font-size="9.00">&#45;18</text>
</g>
<!-- &#45;18&#45;&gt;5196 -->
<g id="edge1" class="edge">
<title>&#45;18&#45;&gt;5196</title>
<path fill="none" stroke="red" stroke-width="0.13" d="M66.84,-247.47C71.04,-242.63 76.79,-236.87 83,-233.16 134.89,-202.09 204.41,-186.24 245.19,-179.1"/>
<polygon fill="red" stroke="red" stroke-width="0.13" points="245.68,-182.57 254.96,-177.46 244.52,-175.66 245.68,-182.57"/>
</g>
<!-- &#45;18&#45;&gt;5199 -->
<g id="edge14" class="edge">
<title>&#45;18&#45;&gt;5199</title>
<path fill="none" stroke="green" stroke-width="0.6" d="M65.02,-247.75C82.22,-219.55 141.95,-128 217,-84.08 287.74,-42.69 385.37,-30.32 436.9,-26.62"/>
<polygon fill="green" stroke="green" stroke-width="0.6" points="437.09,-30.11 446.85,-25.98 436.65,-23.13 437.09,-30.11"/>
</g>
<!-- &#45;19 -->
<g id="node19" class="node">
<title>&#45;19</title>
<polygon fill="lightgray" stroke="black" points="354,-266.45 326,-266.45 326,-247.95 354,-247.95 354,-266.45"/>
<text text-anchor="middle" x="340" y="-253.9" font-family="Times,serif" font-size="9.00">&#45;19</text>
</g>
<!-- &#45;19&#45;&gt;5196 -->
<g id="edge19" class="edge">
<title>&#45;19&#45;&gt;5196</title>
<path fill="none" stroke="red" stroke-width="0.16" d="M333.7,-247.72C325.56,-236.77 311,-217.18 298.95,-200.97"/>
<polygon fill="red" stroke="red" stroke-width="0.16" points="301.84,-198.98 293.07,-193.05 296.22,-203.16 301.84,-198.98"/>
</g>
<!-- &#45;19&#45;&gt;5197 -->
<g id="edge31" class="edge">
<title>&#45;19&#45;&gt;5197</title>
<path fill="none" stroke="red" stroke-width="0.33" d="M347.55,-247.47C351.8,-242.87 357.37,-237.33 363,-233.16 388.02,-214.63 419.61,-198.42 442.69,-187.7"/>
<polygon fill="red" stroke="red" stroke-width="0.33" points="443.92,-190.98 451.57,-183.65 441.02,-184.61 443.92,-190.98"/>
</g>
<!-- &#45;19&#45;&gt;5199 -->
<g id="edge12" class="edge">
<title>&#45;19&#45;&gt;5199</title>
<path fill="none" stroke="green" stroke-width="0.38" d="M338.51,-247.74C334.27,-220.99 324.71,-136.94 361,-84.08 379.13,-57.67 412.96,-42.14 438.53,-33.69"/>
<polygon fill="green" stroke="green" stroke-width="0.38" points="439.49,-37.06 448.01,-30.76 437.42,-30.37 439.49,-37.06"/>
</g>
<!-- &#45;20 -->
<g id="node20" class="node">
<title>&#45;20</title>
<polygon fill="lightgray" stroke="black" points="400,-266.45 372,-266.45 372,-247.95 400,-247.95 400,-266.45"/>
<text text-anchor="middle" x="386" y="-253.9" font-family="Times,serif" font-size="9.00">&#45;20</text>
</g>
<!-- 3 -->
<g id="node24" class="node">
<title>3</title>
<ellipse fill="lightblue" stroke="black" cx="300" cy="-98.58" rx="14.5" ry="14.5"/>
<text text-anchor="middle" x="300" y="-95.28" font-family="Times,serif" font-size="9.00">3</text>
</g>
<!-- &#45;20&#45;&gt;3 -->
<g id="edge48" class="edge">
<title>&#45;20&#45;&gt;3</title>
<path fill="none" stroke="green" stroke-width="0.32" stroke-dasharray="1,5" d="M381.38,-247.78C368.3,-223.97 330.77,-155.61 311.59,-120.68"/>
<polygon fill="green" stroke="green" stroke-width="0.32" points="314.81,-119.29 306.93,-112.21 308.68,-122.66 314.81,-119.29"/>
</g>
<!-- &#45;20&#45;&gt;5196 -->
<g id="edge3" class="edge">
<title>&#45;20&#45;&gt;5196</title>
<path fill="none" stroke="red" stroke-width="0.28" d="M378.24,-247.74C373.93,-243.22 368.36,-237.67 363,-233.16 345.35,-218.3 324.07,-203.38 307.35,-192.25"/>
<polygon fill="red" stroke="red" stroke-width="0.28" points="309.69,-189.6 299.42,-187.03 305.85,-195.45 309.69,-189.6"/>
</g>
<!-- &#45;20&#45;&gt;5197 -->
<g id="edge5" class="edge">
<title>&#45;20&#45;&gt;5197</title>
<path fill="none" stroke="green" stroke-width="0.14" d="M394.42,-247.56C398.73,-243.2 404.09,-237.84 409,-233.16 421.85,-220.9 436.46,-207.57 448.57,-196.69"/>
<polygon fill="green" stroke="green" stroke-width="0.14" points="450.86,-199.34 455.97,-190.07 446.19,-194.13 450.86,-199.34"/>
</g>
<!-- &#45;20&#45;&gt;5199 -->
<g id="edge9" class="edge">
<title>&#45;20&#45;&gt;5199</title>
<path fill="none" stroke="green" stroke-width="0.12" stroke-dasharray="1,5" d="M389.08,-247.58C398.12,-222.37 425.39,-146.59 449,-84.08 452.43,-75.01 456.22,-65.19 459.72,-56.21"/>
<polygon fill="green" stroke="green" stroke-width="0.12" points="462.92,-57.63 463.31,-47.04 456.4,-55.08 462.92,-57.63"/>
</g>
<!-- 0 -->
<g id="node21" class="node">
<title>0</title>
<ellipse fill="lightblue" stroke="black" cx="655" cy="-98.58" rx="14.5" ry="14.5"/>
<text text-anchor="middle" x="655" y="-95.28" font-family="Times,serif" font-size="9.00">0</text>
</g>
<!-- 1 -->
<g id="node22" class="node">
<title>1</title>
<ellipse fill="lightblue" stroke="black" cx="608" cy="-98.58" rx="14.5" ry="14.5"/>
<text text-anchor="middle" x="608" y="-95.28" font-family="Times,serif" font-size="9.00">1</text>
</g>
<!-- 2 -->
<g id="node23" class="node">
<title>2</title>
<ellipse fill="lightblue" stroke="black" cx="384" cy="-98.58" rx="14.5" ry="14.5"/>
<text text-anchor="middle" x="384" y="-95.28" font-family="Times,serif" font-size="9.00">2</text>
</g>
<!-- 4 -->
<g id="node25" class="node">
<title>4</title>
<ellipse fill="lightblue" stroke="black" cx="472" cy="-98.58" rx="14.5" ry="14.5"/>
<text text-anchor="middle" x="472" y="-95.28" font-family="Times,serif" font-size="9.00">4</text>
</g>
<!-- 4&#45;&gt;5199 -->
<g id="edge44" class="edge">
<title>4&#45;&gt;5199</title>
<path fill="none" stroke="green" stroke-width="0.57" d="M466.68,-84.61C465.61,-77.23 465.14,-67.62 465.27,-58.27"/>
<polygon fill="green" stroke="green" stroke-width="0.57" points="468.76,-58.57 465.67,-48.44 461.77,-58.29 468.76,-58.57"/>
</g>
<!-- 5196&#45;&gt;2 -->
<g id="edge38" class="edge">
<title>5196&#45;&gt;2</title>
<path fill="none" stroke="red" stroke-width="0.12" d="M298.26,-158.81C316.96,-145.89 345.24,-126.36 364.14,-113.3"/>
<polygon fill="red" stroke="red" stroke-width="0.12" points="365.96,-116.3 372.2,-107.73 361.98,-110.54 365.96,-116.3"/>
</g>
<!-- 5196&#45;&gt;3 -->
<g id="edge8" class="edge">
<title>5196&#45;&gt;3</title>
<path fill="none" stroke="red" stroke-width="0.13" d="M285.53,-149.56C287.99,-141.05 290.8,-131.35 293.28,-122.78"/>
<polygon fill="red" stroke="red" stroke-width="0.13" points="296.63,-123.8 296.05,-113.22 289.91,-121.85 296.63,-123.8"/>
</g>
<!-- 5197&#45;&gt;2 -->
<g id="edge7" class="edge">
<title>5197&#45;&gt;2</title>
<path fill="none" stroke="red" stroke-width="0.35" stroke-dasharray="1,5" d="M455.79,-157.44C440.45,-145.07 418.57,-127.44 403.01,-114.9"/>
<polygon fill="red" stroke="red" stroke-width="0.35" points="405.49,-112.41 395.51,-108.86 401.1,-117.86 405.49,-112.41"/>
</g>
<!-- 5197&#45;&gt;4 -->
<g id="edge10" class="edge">
<title>5197&#45;&gt;4</title>
<path fill="none" stroke="red" stroke-width="0.38" d="M473.36,-148.77C473.13,-140.68 472.88,-131.61 472.66,-123.48"/>
<polygon fill="red" stroke="red" stroke-width="0.38" points="476.16,-123.63 472.39,-113.73 469.17,-123.83 476.16,-123.63"/>
</g>
<!-- 5198&#45;&gt;0 -->
<g id="edge20" class="edge">
<title>5198&#45;&gt;0</title>
<path fill="none" stroke="red" stroke-width="0.27" d="M648.16,-149.17C649.29,-140.97 650.57,-131.72 651.71,-123.45"/>
<polygon fill="red" stroke="red" stroke-width="0.27" points="655.15,-124.09 653.05,-113.71 648.22,-123.14 655.15,-124.09"/>
</g>
<!-- 5198&#45;&gt;1 -->
<g id="edge4" class="edge">
<title>5198&#45;&gt;1</title>
<path fill="none" stroke="red" stroke-width="0.27" d="M634.3,-151.14C629.48,-141.69 623.8,-130.56 618.96,-121.06"/>
<polygon fill="red" stroke="red" stroke-width="0.27" points="622.13,-119.58 614.47,-112.26 615.89,-122.76 622.13,-119.58"/>
</g>
<!-- 5199&#45;&gt;4 -->
<g id="edge32" class="edge">
<title>5199&#45;&gt;4</title>
<path fill="none" stroke="red" stroke-width="0.11" stroke-dasharray="1,5" d="M478.3,-47.58C478.89,-56.14 478.9,-65.89 478.34,-74.5"/>
<polygon fill="red" stroke="red" stroke-width="0.11" points="474.85,-74.14 477.33,-84.45 481.82,-74.85 474.85,-74.14"/>
</g>
<!-- 5199&#45;&gt;5199 -->
<g id="edge35" class="edge">
<title>5199&#45;&gt;5199</title>
<path fill="none" stroke="red" stroke-width="0.13" stroke-dasharray="1,5" d="M492.33,-37.35C503.63,-39.83 514.04,-35.4 514.04,-24.04 514.04,-16.23 509.12,-11.7 502.38,-10.43"/>
<polygon fill="red" stroke="red" stroke-width="0.13" points="502.41,-6.93 492.52,-10.73 502.62,-13.93 502.41,-6.93"/>
</g>
<!-- 5336&#45;&gt;5196 -->
<g id="edge46" class="edge">
<title>5336&#45;&gt;5196</title>
<path fill="none" stroke="red" stroke-width="0.29" d="M212.8,-239.59C224.95,-227.57 241.54,-211.16 255.07,-197.78"/>
<polygon fill="red" stroke="red" stroke-width="0.29" points="257.27,-200.53 261.92,-191.01 252.35,-195.55 257.27,-200.53"/>
</g>
</g>
</svg>
