<?xml version="1.0" encoding="UTF-8" standalone="no"?>
<!DOCTYPE svg PUBLIC "-//W3C//DTD SVG 1.1//EN"
 "http://www.w3.org/Graphics/SVG/1.1/DTD/svg11.dtd">
<!-- Generated by graphviz version 12.1.1 (20240910.0053)
 -->
<!-- Pages: 1 -->
<svg width="779pt" height="447pt"
 viewBox="0.00 0.00 779.00 446.92" xmlns="http://www.w3.org/2000/svg" xmlns:xlink="http://www.w3.org/1999/xlink">
<g id="graph0" class="graph" transform="scale(1 1) rotate(0) translate(4 442.92)">
<polygon fill="white" stroke="none" points="-4,4 -4,-442.92 775,-442.92 775,4 -4,4"/>
<!-- &#45;1 -->
<g id="node1" class="node">
<title>&#45;1</title>
<polygon fill="lightgray" stroke="black" points="155.75,-438.92 132.25,-438.92 132.25,-420.42 155.75,-420.42 155.75,-438.92"/>
<text text-anchor="middle" x="144" y="-426.37" font-family="Times,serif" font-size="9.00">&#45;1</text>
</g>
<!-- 6202 -->
<g id="node29" class="node">
<title>6202</title>
<ellipse fill="white" stroke="black" cx="118" cy="-360.37" rx="24.04" ry="24.04"/>
<text text-anchor="middle" x="118" y="-357.07" font-family="Times,serif" font-size="9.00">6202</text>
</g>
<!-- &#45;1&#45;&gt;6202 -->
<g id="edge36" class="edge">
<title>&#45;1&#45;&gt;6202</title>
<path fill="none" stroke="green" stroke-width="0.27" d="M140.71,-420.14C138.01,-413.18 134.03,-402.87 130.15,-392.82"/>
<polygon fill="green" stroke="green" stroke-width="0.27" points="133.52,-391.83 126.65,-383.77 126.99,-394.35 133.52,-391.83"/>
</g>
<!-- 5430 -->
<g id="node32" class="node">
<title>5430</title>
<ellipse fill="white" stroke="black" cx="158" cy="-276.29" rx="24.04" ry="24.04"/>
<text text-anchor="middle" x="158" y="-272.99" font-family="Times,serif" font-size="9.00">5430</text>
</g>
<!-- &#45;1&#45;&gt;5430 -->
<g id="edge19" class="edge">
<title>&#45;1&#45;&gt;5430</title>
<path fill="none" stroke="red" stroke-width="0.21" d="M145.57,-420.21C147.17,-411.33 149.6,-396.94 151,-384.42 153.74,-359.86 155.52,-332 156.6,-310.85"/>
<polygon fill="red" stroke="red" stroke-width="0.21" points="160.08,-311.23 157.07,-301.07 153.09,-310.89 160.08,-311.23"/>
</g>
<!-- &#45;2 -->
<g id="node2" class="node">
<title>&#45;2</title>
<polygon fill="lightgray" stroke="black" points="691.75,-285.54 668.25,-285.54 668.25,-267.04 691.75,-267.04 691.75,-285.54"/>
<text text-anchor="middle" x="680" y="-272.99" font-family="Times,serif" font-size="9.00">&#45;2</text>
</g>
<!-- 5245 -->
<g id="node36" class="node">
<title>5245</title>
<ellipse fill="white" stroke="black" cx="626" cy="-192.21" rx="24.04" ry="24.04"/>
<text text-anchor="middle" x="626" y="-188.91" font-family="Times,serif" font-size="9.00">5245</text>
</g>
<!-- &#45;2&#45;&gt;5245 -->
<g id="edge4" class="edge">
<title>&#45;2&#45;&gt;5245</title>
<path fill="none" stroke="red" stroke-width="0.26" d="M674.42,-266.82C667.42,-256.17 655.05,-237.37 644.57,-221.43"/>
<polygon fill="red" stroke="red" stroke-width="0.26" points="647.62,-219.7 639.2,-213.27 641.77,-223.55 647.62,-219.7"/>
</g>
<!-- &#45;3 -->
<g id="node3" class="node">
<title>&#45;3</title>
<polygon fill="lightgray" stroke="black" points="197.75,-438.92 174.25,-438.92 174.25,-420.42 197.75,-420.42 197.75,-438.92"/>
<text text-anchor="middle" x="186" y="-426.37" font-family="Times,serif" font-size="9.00">&#45;3</text>
</g>
<!-- &#45;4 -->
<g id="node4" class="node">
<title>&#45;4</title>
<polygon fill="lightgray" stroke="black" points="711.75,-201.46 688.25,-201.46 688.25,-182.96 711.75,-182.96 711.75,-201.46"/>
<text text-anchor="middle" x="700" y="-188.91" font-family="Times,serif" font-size="9.00">&#45;4</text>
</g>
<!-- 3 -->
<g id="node24" class="node">
<title>3</title>
<ellipse fill="lightblue" stroke="black" cx="711" cy="-108.12" rx="14.5" ry="14.5"/>
<text text-anchor="middle" x="711" y="-104.82" font-family="Times,serif" font-size="9.00">3</text>
</g>
<!-- &#45;4&#45;&gt;3 -->
<g id="edge25" class="edge">
<title>&#45;4&#45;&gt;3</title>
<path fill="none" stroke="red" stroke-width="0.4" stroke-dasharray="1,5" d="M701.14,-182.73C702.69,-171.11 705.56,-149.75 707.8,-133.02"/>
<polygon fill="red" stroke="red" stroke-width="0.4" points="711.22,-133.83 709.08,-123.45 704.28,-132.9 711.22,-133.83"/>
</g>
<!-- &#45;5 -->
<g id="node5" class="node">
<title>&#45;5</title>
<polygon fill="lightgray" stroke="black" points="583.75,-285.54 560.25,-285.54 560.25,-267.04 583.75,-267.04 583.75,-285.54"/>
<text text-anchor="middle" x="572" y="-272.99" font-family="Times,serif" font-size="9.00">&#45;5</text>
</g>
<!-- 2 -->
<g id="node23" class="node">
<title>2</title>
<ellipse fill="lightblue" stroke="black" cx="744" cy="-192.21" rx="14.5" ry="14.5"/>
<text text-anchor="middle" x="744" y="-188.91" font-family="Times,serif" font-size="9.00">2</text>
</g>
<!-- &#45;5&#45;&gt;2 -->
<g id="edge27" class="edge">
<title>&#45;5&#45;&gt;2</title>
<path fill="none" stroke="green" stroke-width="0.18" d="M577.73,-266.95C581.53,-262.01 586.92,-256 593,-252.25 643.29,-221.21 670.02,-246.14 721,-216.25 723.56,-214.75 726.04,-212.89 728.36,-210.9"/>
<polygon fill="green" stroke="green" stroke-width="0.18" points="730.67,-213.53 735.35,-204.03 725.76,-208.54 730.67,-213.53"/>
</g>
<!-- 5244 -->
<g id="node35" class="node">
<title>5244</title>
<ellipse fill="white" stroke="black" cx="316" cy="-192.21" rx="24.04" ry="24.04"/>
<text text-anchor="middle" x="316" y="-188.91" font-family="Times,serif" font-size="9.00">5244</text>
</g>
<!-- &#45;5&#45;&gt;5244 -->
<g id="edge5" class="edge">
<title>&#45;5&#45;&gt;5244</title>
<path fill="none" stroke="red" stroke-width="0.42" stroke-dasharray="1,5" d="M566.31,-266.89C562.52,-261.93 557.13,-255.92 551,-252.25 486.86,-213.89 398.56,-200.34 350.53,-195.64"/>
<polygon fill="red" stroke="red" stroke-width="0.42" points="350.97,-192.16 340.7,-194.75 350.34,-199.13 350.97,-192.16"/>
</g>
<!-- &#45;6 -->
<g id="node6" class="node">
<title>&#45;6</title>
<polygon fill="lightgray" stroke="black" points="69.75,-285.54 46.25,-285.54 46.25,-267.04 69.75,-267.04 69.75,-285.54"/>
<text text-anchor="middle" x="58" y="-272.99" font-family="Times,serif" font-size="9.00">&#45;6</text>
</g>
<!-- 6106 -->
<g id="node34" class="node">
<title>6106</title>
<ellipse fill="white" stroke="black" cx="66" cy="-192.21" rx="24.04" ry="24.04"/>
<text text-anchor="middle" x="66" y="-188.91" font-family="Times,serif" font-size="9.00">6106</text>
</g>
<!-- &#45;6&#45;&gt;6106 -->
<g id="edge28" class="edge">
<title>&#45;6&#45;&gt;6106</title>
<path fill="none" stroke="red" stroke-width="0.26" stroke-dasharray="1,5" d="M58.83,-266.82C59.75,-257.32 61.31,-241.34 62.74,-226.69"/>
<polygon fill="red" stroke="red" stroke-width="0.26" points="66.22,-227.05 63.7,-216.76 59.25,-226.37 66.22,-227.05"/>
</g>
<!-- &#45;6&#45;&gt;5244 -->
<g id="edge18" class="edge">
<title>&#45;6&#45;&gt;5244</title>
<path fill="none" stroke="red" stroke-width="0.56" d="M63.69,-266.89C67.47,-261.92 72.86,-255.91 79,-252.25 143.69,-213.65 232.74,-200.19 281.18,-195.57"/>
<polygon fill="red" stroke="red" stroke-width="0.56" points="281.23,-199.08 290.88,-194.71 280.61,-192.1 281.23,-199.08"/>
</g>
<!-- &#45;7 -->
<g id="node7" class="node">
<title>&#45;7</title>
<polygon fill="lightgray" stroke="black" points="495.75,-285.54 472.25,-285.54 472.25,-267.04 495.75,-267.04 495.75,-285.54"/>
<text text-anchor="middle" x="484" y="-272.99" font-family="Times,serif" font-size="9.00">&#45;7</text>
</g>
<!-- 1 -->
<g id="node22" class="node">
<title>1</title>
<ellipse fill="lightblue" stroke="black" cx="518" cy="-24.04" rx="14.5" ry="14.5"/>
<text text-anchor="middle" x="518" y="-20.74" font-family="Times,serif" font-size="9.00">1</text>
</g>
<!-- &#45;7&#45;&gt;1 -->
<g id="edge41" class="edge">
<title>&#45;7&#45;&gt;1</title>
<path fill="none" stroke="red" stroke-width="0.26" d="M485.17,-266.68C489.87,-232.1 507.45,-102.69 514.77,-48.81"/>
<polygon fill="red" stroke="red" stroke-width="0.26" points="518.2,-49.57 516.08,-39.19 511.26,-48.63 518.2,-49.57"/>
</g>
<!-- &#45;7&#45;&gt;5244 -->
<g id="edge38" class="edge">
<title>&#45;7&#45;&gt;5244</title>
<path fill="none" stroke="red" stroke-width="0.41" stroke-dasharray="1,5" d="M475.91,-266.84C471.04,-262.11 464.54,-256.35 458,-252.25 423.09,-230.38 378.67,-213.42 348.89,-203.4"/>
<polygon fill="red" stroke="red" stroke-width="0.41" points="350.19,-200.15 339.6,-200.35 348.01,-206.8 350.19,-200.15"/>
</g>
<!-- &#45;8 -->
<g id="node8" class="node">
<title>&#45;8</title>
<polygon fill="lightgray" stroke="black" points="327.75,-285.54 304.25,-285.54 304.25,-267.04 327.75,-267.04 327.75,-285.54"/>
<text text-anchor="middle" x="316" y="-272.99" font-family="Times,serif" font-size="9.00">&#45;8</text>
</g>
<!-- &#45;8&#45;&gt;5244 -->
<g id="edge2" class="edge">
<title>&#45;8&#45;&gt;5244</title>
<path fill="none" stroke="green" stroke-width="0.89" stroke-dasharray="1,5" d="M316,-266.82C316,-257.57 316,-242.18 316,-227.85"/>
<polygon fill="green" stroke="green" stroke-width="0.89" points="319.5,-228.07 316,-218.07 312.5,-228.07 319.5,-228.07"/>
</g>
<!-- &#45;9 -->
<g id="node9" class="node">
<title>&#45;9</title>
<polygon fill="lightgray" stroke="black" points="369.75,-285.54 346.25,-285.54 346.25,-267.04 369.75,-267.04 369.75,-285.54"/>
<text text-anchor="middle" x="358" y="-272.99" font-family="Times,serif" font-size="9.00">&#45;9</text>
</g>
<!-- &#45;9&#45;&gt;5244 -->
<g id="edge16" class="edge">
<title>&#45;9&#45;&gt;5244</title>
<path fill="none" stroke="red" stroke-width="0.42" d="M353.66,-266.82C348.42,-256.57 339.31,-238.77 331.37,-223.24"/>
<polygon fill="red" stroke="red" stroke-width="0.42" points="334.58,-221.83 326.91,-214.52 328.35,-225.02 334.58,-221.83"/>
</g>
<!-- &#45;10 -->
<g id="node10" class="node">
<title>&#45;10</title>
<polygon fill="lightgray" stroke="black" points="416,-285.54 388,-285.54 388,-267.04 416,-267.04 416,-285.54"/>
<text text-anchor="middle" x="402" y="-272.99" font-family="Times,serif" font-size="9.00">&#45;10</text>
</g>
<!-- &#45;10&#45;&gt;5244 -->
<g id="edge15" class="edge">
<title>&#45;10&#45;&gt;5244</title>
<path fill="none" stroke="red" stroke-width="0.52" d="M393.55,-266.69C389.23,-262.33 383.87,-256.97 379,-252.25 366.67,-240.3 352.76,-227.22 341.15,-216.42"/>
<polygon fill="red" stroke="red" stroke-width="0.52" points="343.81,-214.12 334.1,-209.88 339.05,-219.25 343.81,-214.12"/>
</g>
<!-- &#45;11 -->
<g id="node11" class="node">
<title>&#45;11</title>
<polygon fill="lightgray" stroke="black" points="28,-285.54 0,-285.54 0,-267.04 28,-267.04 28,-285.54"/>
<text text-anchor="middle" x="14" y="-272.99" font-family="Times,serif" font-size="9.00">&#45;11</text>
</g>
<!-- 0 -->
<g id="node21" class="node">
<title>0</title>
<ellipse fill="lightblue" stroke="black" cx="366" cy="-24.04" rx="14.5" ry="14.5"/>
<text text-anchor="middle" x="366" y="-20.74" font-family="Times,serif" font-size="9.00">0</text>
</g>
<!-- &#45;11&#45;&gt;0 -->
<g id="edge24" class="edge">
<title>&#45;11&#45;&gt;0</title>
<path fill="none" stroke="green" stroke-width="0.44" d="M12.99,-266.7C11.15,-246.99 9.42,-197.92 33,-168.17 113.03,-67.19 278.07,-36.18 340.93,-27.81"/>
<polygon fill="green" stroke="green" stroke-width="0.44" points="341.28,-31.3 350.77,-26.58 340.42,-24.35 341.28,-31.3"/>
</g>
<!-- &#45;11&#45;&gt;5244 -->
<g id="edge7" class="edge">
<title>&#45;11&#45;&gt;5244</title>
<path fill="none" stroke="green" stroke-width="0.24" d="M20.35,-266.82C24.53,-261.82 30.44,-255.81 37,-252.25 117.15,-208.73 226.42,-197.27 281.4,-194.27"/>
<polygon fill="green" stroke="green" stroke-width="0.24" points="281.46,-197.77 291.28,-193.79 281.13,-190.78 281.46,-197.77"/>
</g>
<!-- &#45;12 -->
<g id="node12" class="node">
<title>&#45;12</title>
<polygon fill="lightgray" stroke="black" points="244,-438.92 216,-438.92 216,-420.42 244,-420.42 244,-438.92"/>
<text text-anchor="middle" x="230" y="-426.37" font-family="Times,serif" font-size="9.00">&#45;12</text>
</g>
<!-- &#45;13 -->
<g id="node13" class="node">
<title>&#45;13</title>
<polygon fill="lightgray" stroke="black" points="290,-438.92 262,-438.92 262,-420.42 290,-420.42 290,-438.92"/>
<text text-anchor="middle" x="276" y="-426.37" font-family="Times,serif" font-size="9.00">&#45;13</text>
</g>
<!-- &#45;14 -->
<g id="node14" class="node">
<title>&#45;14</title>
<polygon fill="lightgray" stroke="black" points="771,-117.37 743,-117.37 743,-98.87 771,-98.87 771,-117.37"/>
<text text-anchor="middle" x="757" y="-104.82" font-family="Times,serif" font-size="9.00">&#45;14</text>
</g>
<!-- 6087 -->
<g id="node28" class="node">
<title>6087</title>
<ellipse fill="white" stroke="black" cx="711" cy="-24.04" rx="24.04" ry="24.04"/>
<text text-anchor="middle" x="711" y="-20.74" font-family="Times,serif" font-size="9.00">6087</text>
</g>
<!-- &#45;14&#45;&gt;6087 -->
<g id="edge26" class="edge">
<title>&#45;14&#45;&gt;6087</title>
<path fill="none" stroke="green" stroke-width="0.34" stroke-dasharray="1,5" d="M752.25,-98.65C746.42,-88.24 736.21,-70.03 727.41,-54.33"/>
<polygon fill="green" stroke="green" stroke-width="0.34" points="730.63,-52.92 722.69,-45.9 724.53,-56.34 730.63,-52.92"/>
</g>
<!-- &#45;15 -->
<g id="node15" class="node">
<title>&#45;15</title>
<polygon fill="lightgray" stroke="black" points="336,-438.92 308,-438.92 308,-420.42 336,-420.42 336,-438.92"/>
<text text-anchor="middle" x="322" y="-426.37" font-family="Times,serif" font-size="9.00">&#45;15</text>
</g>
<!-- &#45;16 -->
<g id="node16" class="node">
<title>&#45;16</title>
<polygon fill="lightgray" stroke="black" points="549,-369.62 521,-369.62 521,-351.12 549,-351.12 549,-369.62"/>
<text text-anchor="middle" x="535" y="-357.07" font-family="Times,serif" font-size="9.00">&#45;16</text>
</g>
<!-- 5468 -->
<g id="node33" class="node">
<title>5468</title>
<ellipse fill="white" stroke="black" cx="626" cy="-276.29" rx="24.04" ry="24.04"/>
<text text-anchor="middle" x="626" y="-272.99" font-family="Times,serif" font-size="9.00">5468</text>
</g>
<!-- &#45;16&#45;&gt;5468 -->
<g id="edge21" class="edge">
<title>&#45;16&#45;&gt;5468</title>
<path fill="none" stroke="red" stroke-width="0.44" d="M544.4,-350.9C557.53,-339.05 581.86,-317.1 600.55,-300.25"/>
<polygon fill="red" stroke="red" stroke-width="0.44" points="602.84,-302.89 607.93,-293.59 598.16,-297.69 602.84,-302.89"/>
</g>
<!-- &#45;16&#45;&gt;5244 -->
<g id="edge10" class="edge">
<title>&#45;16&#45;&gt;5244</title>
<path fill="none" stroke="green" stroke-width="0.17" d="M522.86,-350.69C507.99,-339.77 482.37,-320.05 463,-300.33 443.91,-280.9 445.85,-269.78 425,-252.25 401.51,-232.49 370.36,-216.43 347.38,-206.07"/>
<polygon fill="green" stroke="green" stroke-width="0.17" points="348.88,-202.9 338.31,-202.09 346.06,-209.31 348.88,-202.9"/>
</g>
<!-- &#45;17 -->
<g id="node17" class="node">
<title>&#45;17</title>
<polygon fill="lightgray" stroke="black" points="382,-438.92 354,-438.92 354,-420.42 382,-420.42 382,-438.92"/>
<text text-anchor="middle" x="368" y="-426.37" font-family="Times,serif" font-size="9.00">&#45;17</text>
</g>
<!-- &#45;18 -->
<g id="node18" class="node">
<title>&#45;18</title>
<polygon fill="lightgray" stroke="black" points="264,-369.62 236,-369.62 236,-351.12 264,-351.12 264,-369.62"/>
<text text-anchor="middle" x="250" y="-357.07" font-family="Times,serif" font-size="9.00">&#45;18</text>
</g>
<!-- 6251 -->
<g id="node30" class="node">
<title>6251</title>
<ellipse fill="white" stroke="black" cx="224" cy="-276.29" rx="24.04" ry="24.04"/>
<text text-anchor="middle" x="224" y="-272.99" font-family="Times,serif" font-size="9.00">6251</text>
</g>
<!-- &#45;18&#45;&gt;6251 -->
<g id="edge39" class="edge">
<title>&#45;18&#45;&gt;6251</title>
<path fill="none" stroke="green" stroke-width="0.2" d="M247.32,-350.9C244.21,-341.09 238.9,-324.35 234.14,-309.31"/>
<polygon fill="green" stroke="green" stroke-width="0.2" points="237.57,-308.53 231.21,-300.05 230.89,-310.64 237.57,-308.53"/>
</g>
<!-- &#45;18&#45;&gt;5244 -->
<g id="edge13" class="edge">
<title>&#45;18&#45;&gt;5244</title>
<path fill="none" stroke="green" stroke-width="0.11" stroke-dasharray="1,5" d="M253.36,-350.91C262.49,-327.92 288.09,-263.48 303.59,-224.45"/>
<polygon fill="green" stroke="green" stroke-width="0.11" points="306.8,-225.85 307.24,-215.26 300.29,-223.27 306.8,-225.85"/>
</g>
<!-- &#45;19 -->
<g id="node19" class="node">
<title>&#45;19</title>
<polygon fill="lightgray" stroke="black" points="116,-285.54 88,-285.54 88,-267.04 116,-267.04 116,-285.54"/>
<text text-anchor="middle" x="102" y="-272.99" font-family="Times,serif" font-size="9.00">&#45;19</text>
</g>
<!-- &#45;19&#45;&gt;5244 -->
<g id="edge17" class="edge">
<title>&#45;19&#45;&gt;5244</title>
<path fill="none" stroke="green" stroke-width="0.73" d="M108.85,-266.57C113.06,-261.75 118.81,-255.99 125,-252.25 174.87,-222.15 241.44,-206.14 281.38,-198.68"/>
<polygon fill="green" stroke="green" stroke-width="0.73" points="281.83,-202.16 291.06,-196.96 280.6,-195.27 281.83,-202.16"/>
</g>
<!-- &#45;20 -->
<g id="node20" class="node">
<title>&#45;20</title>
<polygon fill="lightgray" stroke="black" points="542,-285.54 514,-285.54 514,-267.04 542,-267.04 542,-285.54"/>
<text text-anchor="middle" x="528" y="-272.99" font-family="Times,serif" font-size="9.00">&#45;20</text>
</g>
<!-- &#45;20&#45;&gt;0 -->
<g id="edge23" class="edge">
<title>&#45;20&#45;&gt;0</title>
<path fill="none" stroke="red" stroke-width="0.85" stroke-dasharray="1,5" d="M522.42,-266.68C499.63,-231.47 413.16,-97.89 379.51,-45.91"/>
<polygon fill="red" stroke="red" stroke-width="0.85" points="382.59,-44.23 374.22,-37.73 376.71,-48.03 382.59,-44.23"/>
</g>
<!-- &#45;20&#45;&gt;5244 -->
<g id="edge11" class="edge">
<title>&#45;20&#45;&gt;5244</title>
<path fill="none" stroke="green" stroke-width="0.34" stroke-dasharray="1,5" d="M521.14,-266.58C516.94,-261.76 511.19,-256 505,-252.25 455.57,-222.32 389.57,-206.24 350.07,-198.72"/>
<polygon fill="green" stroke="green" stroke-width="0.34" points="350.88,-195.31 340.41,-196.96 349.62,-202.2 350.88,-195.31"/>
</g>
<!-- &#45;20&#45;&gt;5245 -->
<g id="edge3" class="edge">
<title>&#45;20&#45;&gt;5245</title>
<path fill="none" stroke="red" stroke-width="0.12" d="M535.86,-266.94C540.2,-262.46 545.76,-256.91 551,-252.25 566.32,-238.63 584.35,-224.38 598.89,-213.3"/>
<polygon fill="red" stroke="red" stroke-width="0.12" points="600.99,-216.1 606.86,-207.28 596.77,-210.52 600.99,-216.1"/>
</g>
<!-- 3&#45;&gt;6087 -->
<g id="edge30" class="edge">
<title>3&#45;&gt;6087</title>
<path fill="none" stroke="red" stroke-width="0.5" stroke-dasharray="1,5" d="M711,-93.2C711,-83.82 711,-71.01 711,-59.02"/>
<polygon fill="red" stroke="red" stroke-width="0.5" points="714.5,-59.13 711,-49.13 707.5,-59.13 714.5,-59.13"/>
</g>
<!-- 4 -->
<g id="node25" class="node">
<title>4</title>
<ellipse fill="lightblue" stroke="black" cx="627" cy="-108.12" rx="14.5" ry="14.5"/>
<text text-anchor="middle" x="627" y="-104.82" font-family="Times,serif" font-size="9.00">4</text>
</g>
<!-- 5537 -->
<g id="node26" class="node">
<title>5537</title>
<ellipse fill="white" stroke="black" cx="744" cy="-276.29" rx="24.04" ry="24.04"/>
<text text-anchor="middle" x="744" y="-272.99" font-family="Times,serif" font-size="9.00">5537</text>
</g>
<!-- 5537&#45;&gt;2 -->
<g id="edge33" class="edge">
<title>5537&#45;&gt;2</title>
<path fill="none" stroke="green" stroke-width="0.24" stroke-dasharray="1,5" d="M744,-251.99C744,-241.04 744,-228.01 744,-217"/>
<polygon fill="green" stroke="green" stroke-width="0.24" points="747.5,-217.18 744,-207.18 740.5,-217.18 747.5,-217.18"/>
</g>
<!-- 6179 -->
<g id="node27" class="node">
<title>6179</title>
<ellipse fill="white" stroke="black" cx="314" cy="-108.12" rx="24.04" ry="24.04"/>
<text text-anchor="middle" x="314" y="-104.82" font-family="Times,serif" font-size="9.00">6179</text>
</g>
<!-- 6179&#45;&gt;0 -->
<g id="edge35" class="edge">
<title>6179&#45;&gt;0</title>
<path fill="none" stroke="red" stroke-width="0.4" d="M326.59,-87.25C334.54,-74.7 344.8,-58.51 352.85,-45.79"/>
<polygon fill="red" stroke="red" stroke-width="0.4" points="355.8,-47.69 358.19,-37.37 349.88,-43.94 355.8,-47.69"/>
</g>
<!-- 6202&#45;&gt;5430 -->
<g id="edge37" class="edge">
<title>6202&#45;&gt;5430</title>
<path fill="none" stroke="red" stroke-width="0.52" d="M128.3,-338.24C132.78,-329.04 138.12,-318.1 143.02,-308.03"/>
<polygon fill="red" stroke="red" stroke-width="0.52" points="146.16,-309.59 147.39,-299.06 139.86,-306.52 146.16,-309.59"/>
</g>
<!-- 6251&#45;&gt;5244 -->
<g id="edge40" class="edge">
<title>6251&#45;&gt;5244</title>
<path fill="none" stroke="red" stroke-width="0.45" stroke-dasharray="1,5" d="M241.74,-259.46C255.61,-247.09 275.08,-229.71 290.61,-215.86"/>
<polygon fill="red" stroke="red" stroke-width="0.45" points="292.68,-218.7 297.81,-209.44 288.02,-213.48 292.68,-218.7"/>
</g>
<!-- 6135 -->
<g id="node31" class="node">
<title>6135</title>
<ellipse fill="white" stroke="black" cx="570" cy="-108.12" rx="24.04" ry="24.04"/>
<text text-anchor="middle" x="570" y="-104.82" font-family="Times,serif" font-size="9.00">6135</text>
</g>
<!-- 6135&#45;&gt;1 -->
<g id="edge32" class="edge">
<title>6135&#45;&gt;1</title>
<path fill="none" stroke="green" stroke-width="0.25" stroke-dasharray="1,5" d="M557.41,-87.25C549.38,-74.58 539,-58.19 530.91,-45.42"/>
<polygon fill="green" stroke="green" stroke-width="0.25" points="534,-43.75 525.69,-37.18 528.08,-47.5 534,-43.75"/>
</g>
<!-- 5430&#45;&gt;5244 -->
<g id="edge20" class="edge">
<title>5430&#45;&gt;5244</title>
<path fill="none" stroke="green" stroke-width="0.56" stroke-dasharray="1,5" d="M177.19,-261.09C181.63,-258.03 186.41,-254.91 191,-252.25 221.48,-234.58 258.1,-217.76 283.8,-206.63"/>
<polygon fill="green" stroke="green" stroke-width="0.56" points="285.16,-209.85 292.98,-202.7 282.41,-203.42 285.16,-209.85"/>
</g>
<!-- 5468&#45;&gt;5245 -->
<g id="edge22" class="edge">
<title>5468&#45;&gt;5245</title>
<path fill="none" stroke="green" stroke-width="0.37" d="M626,-251.99C626,-244.19 626,-235.33 626,-226.91"/>
<polygon fill="green" stroke="green" stroke-width="0.37" points="629.5,-227.13 626,-217.13 622.5,-227.13 629.5,-227.13"/>
</g>
<!-- 5244&#45;&gt;0 -->
<g id="edge9" class="edge">
<title>5244&#45;&gt;0</title>
<path fill="none" stroke="green" stroke-width="0.12" d="M328.52,-171.14C334.94,-160.03 342.35,-145.75 347,-132.17 356.46,-104.49 361.43,-71.11 363.88,-49.04"/>
<polygon fill="green" stroke="green" stroke-width="0.12" points="367.36,-49.4 364.89,-39.09 360.4,-48.69 367.36,-49.4"/>
</g>
<!-- 5244&#45;&gt;6179 -->
<g id="edge34" class="edge">
<title>5244&#45;&gt;6179</title>
<path fill="none" stroke="green" stroke-width="0.32" stroke-dasharray="1,5" d="M315.43,-167.91C315.24,-160.11 315.03,-151.25 314.82,-142.82"/>
<polygon fill="green" stroke="green" stroke-width="0.32" points="318.32,-142.88 314.58,-132.97 311.33,-143.05 318.32,-142.88"/>
</g>
<!-- 5244&#45;&gt;5244 -->
<g id="edge1" class="edge">
<title>5244&#45;&gt;5244</title>
<path fill="none" stroke="red" stroke-width="0.19" d="M335.46,-206.99C347.09,-210.27 358.04,-205.35 358.04,-192.21 358.04,-182.97 352.63,-177.79 345.37,-176.67"/>
<polygon fill="red" stroke="red" stroke-width="0.19" points="345.46,-173.16 335.75,-177.41 345.99,-180.14 345.46,-173.16"/>
</g>
<!-- 5245&#45;&gt;0 -->
<g id="edge6" class="edge">
<title>5245&#45;&gt;0</title>
<path fill="none" stroke="green" stroke-width="0.15" d="M604.46,-180.67C581.95,-169.43 545.82,-150.71 516,-132.17 466.99,-101.69 412.59,-60.99 384.72,-39.59"/>
<polygon fill="green" stroke="green" stroke-width="0.15" points="387.19,-37.08 377.13,-33.74 382.91,-42.62 387.19,-37.08"/>
</g>
<!-- 5245&#45;&gt;1 -->
<g id="edge12" class="edge">
<title>5245&#45;&gt;1</title>
<path fill="none" stroke="red" stroke-width="0.12" stroke-dasharray="1,5" d="M603.53,-182.47C582.82,-173.2 552.96,-156.51 537,-132.17 520.55,-107.08 517.2,-71.88 517.02,-48.78"/>
<polygon fill="red" stroke="red" stroke-width="0.12" points="520.52,-49.01 517.14,-38.97 513.52,-48.93 520.52,-49.01"/>
</g>
<!-- 5245&#45;&gt;3 -->
<g id="edge14" class="edge">
<title>5245&#45;&gt;3</title>
<path fill="none" stroke="green" stroke-width="0.99" d="M642.79,-174.99C657.35,-160.93 678.36,-140.64 693.21,-126.31"/>
<polygon fill="green" stroke="green" stroke-width="0.99" points="695.3,-129.15 700.06,-119.69 690.44,-124.12 695.3,-129.15"/>
</g>
<!-- 5245&#45;&gt;4 -->
<g id="edge8" class="edge">
<title>5245&#45;&gt;4</title>
<path fill="none" stroke="green" stroke-width="0.54" d="M626.28,-167.91C626.42,-157.07 626.57,-144.19 626.71,-133.26"/>
<polygon fill="green" stroke="green" stroke-width="0.54" points="630.2,-133.6 626.82,-123.55 623.2,-133.51 630.2,-133.6"/>
</g>
<!-- 5245&#45;&gt;6087 -->
<g id="edge29" class="edge">
<title>5245&#45;&gt;6087</title>
<path fill="none" stroke="green" stroke-width="0.3" d="M636.77,-170.16C651.65,-141.07 678.59,-88.4 695.6,-55.15"/>
<polygon fill="green" stroke="green" stroke-width="0.3" points="698.68,-56.81 700.12,-46.31 692.45,-53.62 698.68,-56.81"/>
</g>
<!-- 5245&#45;&gt;6135 -->
<g id="edge31" class="edge">
<title>5245&#45;&gt;6135</title>
<path fill="none" stroke="green" stroke-width="0.23" stroke-dasharray="1,5" d="M612.73,-171.76C605.62,-161.33 596.73,-148.3 588.9,-136.83"/>
<polygon fill="green" stroke="green" stroke-width="0.23" points="591.9,-135.02 583.37,-128.73 586.12,-138.96 591.9,-135.02"/>
</g>
</g>
</svg>
