<?xml version="1.0" encoding="UTF-8" standalone="no"?>
<!DOCTYPE svg PUBLIC "-//W3C//DTD SVG 1.1//EN"
 "http://www.w3.org/Graphics/SVG/1.1/DTD/svg11.dtd">
<!-- Generated by graphviz version 12.1.1 (20240910.0053)
 -->
<!-- Pages: 1 -->
<svg width="920pt" height="173pt"
 viewBox="0.00 0.00 920.25 173.34" xmlns="http://www.w3.org/2000/svg" xmlns:xlink="http://www.w3.org/1999/xlink">
<g id="graph0" class="graph" transform="scale(1 1) rotate(0) translate(4 169.34)">
<polygon fill="white" stroke="none" points="-4,4 -4,-169.34 916.25,-169.34 916.25,4 -4,4"/>
<!-- &#45;1 -->
<g id="node1" class="node">
<title>&#45;1</title>
<polygon fill="lightgray" stroke="black" points="23.5,-160.09 0,-160.09 0,-141.59 23.5,-141.59 23.5,-160.09"/>
<text text-anchor="middle" x="11.75" y="-147.54" font-family="Times,serif" font-size="9.00">&#45;1</text>
</g>
<!-- 46 -->
<g id="node27" class="node">
<title>46</title>
<ellipse fill="white" stroke="black" cx="181.75" cy="-82.67" rx="17.68" ry="17.68"/>
<text text-anchor="middle" x="181.75" y="-79.37" font-family="Times,serif" font-size="9.00">46</text>
</g>
<!-- &#45;1&#45;&gt;46 -->
<g id="edge18" class="edge">
<title>&#45;1&#45;&gt;46</title>
<path fill="none" stroke="red" stroke-width="0.39" d="M23.91,-141.36C26.74,-139.57 29.79,-137.8 32.75,-136.35 73.75,-116.26 124.39,-100.03 154.83,-91.13"/>
<polygon fill="red" stroke="red" stroke-width="0.39" points="155.49,-94.58 164.13,-88.46 153.55,-87.86 155.49,-94.58"/>
</g>
<!-- 47 -->
<g id="node28" class="node">
<title>47</title>
<ellipse fill="white" stroke="black" cx="252.75" cy="-82.67" rx="17.68" ry="17.68"/>
<text text-anchor="middle" x="252.75" y="-79.37" font-family="Times,serif" font-size="9.00">47</text>
</g>
<!-- &#45;1&#45;&gt;47 -->
<g id="edge7" class="edge">
<title>&#45;1&#45;&gt;47</title>
<path fill="none" stroke="green" stroke-width="0.15" d="M23.31,-141.29C26.27,-139.42 29.53,-137.62 32.75,-136.35 114.27,-104.04 145.21,-132.62 226.75,-100.35 227.77,-99.94 228.8,-99.5 229.82,-99.02"/>
<polygon fill="green" stroke="green" stroke-width="0.15" points="231.48,-102.1 238.51,-94.18 228.07,-95.98 231.48,-102.1"/>
</g>
<!-- &#45;2 -->
<g id="node2" class="node">
<title>&#45;2</title>
<polygon fill="lightgray" stroke="black" points="467.5,-160.09 444,-160.09 444,-141.59 467.5,-141.59 467.5,-160.09"/>
<text text-anchor="middle" x="455.75" y="-147.54" font-family="Times,serif" font-size="9.00">&#45;2</text>
</g>
<!-- 45 -->
<g id="node26" class="node">
<title>45</title>
<ellipse fill="white" stroke="black" cx="323.75" cy="-82.67" rx="17.68" ry="17.68"/>
<text text-anchor="middle" x="323.75" y="-79.37" font-family="Times,serif" font-size="9.00">45</text>
</g>
<!-- &#45;2&#45;&gt;45 -->
<g id="edge36" class="edge">
<title>&#45;2&#45;&gt;45</title>
<path fill="none" stroke="green" stroke-width="0.16" d="M443.92,-141.86C440.97,-139.98 437.78,-138.03 434.75,-136.35 406.16,-120.46 372.01,-104.71 349.2,-94.63"/>
<polygon fill="green" stroke="green" stroke-width="0.16" points="350.66,-91.45 340.1,-90.64 347.85,-97.86 350.66,-91.45"/>
</g>
<!-- 48 -->
<g id="node29" class="node">
<title>48</title>
<ellipse fill="white" stroke="black" cx="413.75" cy="-82.67" rx="17.68" ry="17.68"/>
<text text-anchor="middle" x="413.75" y="-79.37" font-family="Times,serif" font-size="9.00">48</text>
</g>
<!-- &#45;2&#45;&gt;48 -->
<g id="edge20" class="edge">
<title>&#45;2&#45;&gt;48</title>
<path fill="none" stroke="green" stroke-width="0.32" d="M450.26,-141.19C444.73,-132.48 435.96,-118.67 428.4,-106.76"/>
<polygon fill="green" stroke="green" stroke-width="0.32" points="431.51,-105.12 423.19,-98.55 425.6,-108.87 431.51,-105.12"/>
</g>
<!-- &#45;3 -->
<g id="node3" class="node">
<title>&#45;3</title>
<polygon fill="lightgray" stroke="black" points="245.5,-160.09 222,-160.09 222,-141.59 245.5,-141.59 245.5,-160.09"/>
<text text-anchor="middle" x="233.75" y="-147.54" font-family="Times,serif" font-size="9.00">&#45;3</text>
</g>
<!-- &#45;3&#45;&gt;46 -->
<g id="edge10" class="edge">
<title>&#45;3&#45;&gt;46</title>
<path fill="none" stroke="red" stroke-width="0.24" d="M226.95,-141.19C219.79,-132.08 208.25,-117.39 198.62,-105.14"/>
<polygon fill="red" stroke="red" stroke-width="0.24" points="201.49,-103.13 192.56,-97.43 195.99,-107.45 201.49,-103.13"/>
</g>
<!-- &#45;3&#45;&gt;47 -->
<g id="edge19" class="edge">
<title>&#45;3&#45;&gt;47</title>
<path fill="none" stroke="red" stroke-width="0.36" d="M236.23,-141.19C238.49,-133.33 241.94,-121.32 245.1,-110.3"/>
<polygon fill="red" stroke="red" stroke-width="0.36" points="248.46,-111.3 247.85,-100.72 241.73,-109.37 248.46,-111.3"/>
</g>
<!-- &#45;3&#45;&gt;48 -->
<g id="edge12" class="edge">
<title>&#45;3&#45;&gt;48</title>
<path fill="none" stroke="green" stroke-width="0.21" d="M245.89,-141.31C248.72,-139.53 251.78,-137.77 254.75,-136.35 299.26,-115.09 354.6,-98.87 386.87,-90.35"/>
<polygon fill="green" stroke="green" stroke-width="0.21" points="387.39,-93.83 396.19,-87.94 385.63,-87.06 387.39,-93.83"/>
</g>
<!-- &#45;4 -->
<g id="node4" class="node">
<title>&#45;4</title>
<polygon fill="lightgray" stroke="black" points="509.5,-160.09 486,-160.09 486,-141.59 509.5,-141.59 509.5,-160.09"/>
<text text-anchor="middle" x="497.75" y="-147.54" font-family="Times,serif" font-size="9.00">&#45;4</text>
</g>
<!-- &#45;4&#45;&gt;45 -->
<g id="edge32" class="edge">
<title>&#45;4&#45;&gt;45</title>
<path fill="none" stroke="green" stroke-width="0.25" d="M485.6,-141.34C482.77,-139.56 479.71,-137.78 476.75,-136.35 434.28,-115.76 381.66,-99.5 350.5,-90.76"/>
<polygon fill="green" stroke="green" stroke-width="0.25" points="351.73,-87.47 341.16,-88.19 349.87,-94.22 351.73,-87.47"/>
</g>
<!-- &#45;4&#45;&gt;48 -->
<g id="edge17" class="edge">
<title>&#45;4&#45;&gt;48</title>
<path fill="none" stroke="red" stroke-width="0.49" d="M486.77,-141.19C473.82,-130.99 451.97,-113.78 435.55,-100.84"/>
<polygon fill="red" stroke="red" stroke-width="0.49" points="438.13,-98.42 428.11,-94.98 433.8,-103.92 438.13,-98.42"/>
</g>
<!-- &#45;5 -->
<g id="node5" class="node">
<title>&#45;5</title>
<polygon fill="lightgray" stroke="black" points="425.5,-160.09 402,-160.09 402,-141.59 425.5,-141.59 425.5,-160.09"/>
<text text-anchor="middle" x="413.75" y="-147.54" font-family="Times,serif" font-size="9.00">&#45;5</text>
</g>
<!-- &#45;5&#45;&gt;45 -->
<g id="edge21" class="edge">
<title>&#45;5&#45;&gt;45</title>
<path fill="none" stroke="red" stroke-width="0.33" d="M401.98,-141.19C387.82,-130.77 363.72,-113.06 346,-100.03"/>
<polygon fill="red" stroke="red" stroke-width="0.33" points="348.43,-97.47 338.3,-94.37 344.28,-103.11 348.43,-97.47"/>
</g>
<!-- &#45;5&#45;&gt;47 -->
<g id="edge13" class="edge">
<title>&#45;5&#45;&gt;47</title>
<path fill="none" stroke="green" stroke-width="0.12" d="M401.57,-141.4C398.74,-139.61 395.69,-137.82 392.75,-136.35 352.02,-115.91 339.39,-116.42 296.75,-100.35 290.73,-98.08 284.25,-95.63 278.16,-93.32"/>
<polygon fill="green" stroke="green" stroke-width="0.12" points="279.8,-90.2 269.21,-89.92 277.32,-96.74 279.8,-90.2"/>
</g>
<!-- &#45;5&#45;&gt;48 -->
<g id="edge28" class="edge">
<title>&#45;5&#45;&gt;48</title>
<path fill="none" stroke="green" stroke-width="0.14" d="M413.75,-141.19C413.75,-133.44 413.75,-121.64 413.75,-110.75"/>
<polygon fill="green" stroke="green" stroke-width="0.14" points="417.25,-110.95 413.75,-100.95 410.25,-110.95 417.25,-110.95"/>
</g>
<!-- &#45;6 -->
<g id="node6" class="node">
<title>&#45;6</title>
<polygon fill="lightgray" stroke="black" points="111.5,-160.09 88,-160.09 88,-141.59 111.5,-141.59 111.5,-160.09"/>
<text text-anchor="middle" x="99.75" y="-147.54" font-family="Times,serif" font-size="9.00">&#45;6</text>
</g>
<!-- &#45;6&#45;&gt;45 -->
<g id="edge22" class="edge">
<title>&#45;6&#45;&gt;45</title>
<path fill="none" stroke="red" stroke-width="0.41" d="M111.32,-141.33C114.28,-139.46 117.54,-137.65 120.75,-136.35 195.12,-106.13 223.36,-130.53 297.75,-100.35 298.64,-99.99 299.54,-99.59 300.43,-99.17"/>
<polygon fill="red" stroke="red" stroke-width="0.41" points="302.12,-102.24 309.15,-94.32 298.71,-96.12 302.12,-102.24"/>
</g>
<!-- &#45;6&#45;&gt;46 -->
<g id="edge42" class="edge">
<title>&#45;6&#45;&gt;46</title>
<path fill="none" stroke="green" stroke-width="0.33" d="M110.47,-141.19C123.11,-130.99 144.44,-113.78 160.47,-100.84"/>
<polygon fill="green" stroke="green" stroke-width="0.33" points="162.33,-103.84 167.92,-94.83 157.94,-98.39 162.33,-103.84"/>
</g>
<!-- &#45;7 -->
<g id="node7" class="node">
<title>&#45;7</title>
<polygon fill="lightgray" stroke="black" points="551.5,-160.09 528,-160.09 528,-141.59 551.5,-141.59 551.5,-160.09"/>
<text text-anchor="middle" x="539.75" y="-147.54" font-family="Times,serif" font-size="9.00">&#45;7</text>
</g>
<!-- &#45;7&#45;&gt;48 -->
<g id="edge3" class="edge">
<title>&#45;7&#45;&gt;48</title>
<path fill="none" stroke="green" stroke-width="0.24" d="M527.89,-141.91C524.94,-140.03 521.76,-138.06 518.75,-136.35 492.02,-121.11 460.32,-105.53 438.8,-95.31"/>
<polygon fill="green" stroke="green" stroke-width="0.24" points="440.54,-92.26 430,-91.17 437.56,-98.6 440.54,-92.26"/>
</g>
<!-- &#45;8 -->
<g id="node8" class="node">
<title>&#45;8</title>
<polygon fill="lightgray" stroke="black" points="593.5,-160.09 570,-160.09 570,-141.59 593.5,-141.59 593.5,-160.09"/>
<text text-anchor="middle" x="581.75" y="-147.54" font-family="Times,serif" font-size="9.00">&#45;8</text>
</g>
<!-- &#45;8&#45;&gt;48 -->
<g id="edge6" class="edge">
<title>&#45;8&#45;&gt;48</title>
<path fill="none" stroke="red" stroke-width="0.18" d="M569.59,-141.37C566.76,-139.58 563.7,-137.8 560.75,-136.35 520.29,-116.42 470.32,-100.14 440.3,-91.19"/>
<polygon fill="red" stroke="red" stroke-width="0.18" points="441.41,-87.87 430.83,-88.41 439.44,-94.58 441.41,-87.87"/>
</g>
<!-- &#45;9 -->
<g id="node9" class="node">
<title>&#45;9</title>
<polygon fill="lightgray" stroke="black" points="727.5,-160.09 704,-160.09 704,-141.59 727.5,-141.59 727.5,-160.09"/>
<text text-anchor="middle" x="715.75" y="-147.54" font-family="Times,serif" font-size="9.00">&#45;9</text>
</g>
<!-- &#45;10 -->
<g id="node10" class="node">
<title>&#45;10</title>
<polygon fill="lightgray" stroke="black" points="639.75,-160.09 611.75,-160.09 611.75,-141.59 639.75,-141.59 639.75,-160.09"/>
<text text-anchor="middle" x="625.75" y="-147.54" font-family="Times,serif" font-size="9.00">&#45;10</text>
</g>
<!-- &#45;10&#45;&gt;48 -->
<g id="edge2" class="edge">
<title>&#45;10&#45;&gt;48</title>
<path fill="none" stroke="red" stroke-width="0.26" d="M612.43,-141.25C609.33,-139.47 605.99,-137.72 602.75,-136.35 547.52,-112.92 478.83,-96.79 441.34,-89.01"/>
<polygon fill="red" stroke="red" stroke-width="0.26" points="442.08,-85.59 431.59,-87.03 440.69,-92.45 442.08,-85.59"/>
</g>
<!-- &#45;11 -->
<g id="node11" class="node">
<title>&#45;11</title>
<polygon fill="lightgray" stroke="black" points="203.75,-160.09 175.75,-160.09 175.75,-141.59 203.75,-141.59 203.75,-160.09"/>
<text text-anchor="middle" x="189.75" y="-147.54" font-family="Times,serif" font-size="9.00">&#45;11</text>
</g>
<!-- &#45;11&#45;&gt;47 -->
<g id="edge24" class="edge">
<title>&#45;11&#45;&gt;47</title>
<path fill="none" stroke="red" stroke-width="0.21" d="M197.99,-141.19C207.05,-131.68 221.91,-116.07 233.86,-103.51"/>
<polygon fill="red" stroke="red" stroke-width="0.21" points="236.27,-106.05 240.64,-96.39 231.21,-101.22 236.27,-106.05"/>
</g>
<!-- &#45;12 -->
<g id="node12" class="node">
<title>&#45;12</title>
<polygon fill="lightgray" stroke="black" points="383.75,-160.09 355.75,-160.09 355.75,-141.59 383.75,-141.59 383.75,-160.09"/>
<text text-anchor="middle" x="369.75" y="-147.54" font-family="Times,serif" font-size="9.00">&#45;12</text>
</g>
<!-- &#45;12&#45;&gt;45 -->
<g id="edge8" class="edge">
<title>&#45;12&#45;&gt;45</title>
<path fill="none" stroke="red" stroke-width="0.16" d="M363.74,-141.19C357.58,-132.34 347.76,-118.22 339.4,-106.18"/>
<polygon fill="red" stroke="red" stroke-width="0.16" points="342.35,-104.3 333.77,-98.08 336.6,-108.29 342.35,-104.3"/>
</g>
<!-- &#45;12&#45;&gt;47 -->
<g id="edge4" class="edge">
<title>&#45;12&#45;&gt;47</title>
<path fill="none" stroke="red" stroke-width="0.12" d="M355.67,-141.52C352.73,-139.8 349.64,-138.01 346.75,-136.35 323.15,-122.81 296.03,-107.65 277,-97.09"/>
<polygon fill="red" stroke="red" stroke-width="0.12" points="278.7,-94.03 268.26,-92.24 275.31,-100.15 278.7,-94.03"/>
</g>
<!-- &#45;12&#45;&gt;48 -->
<g id="edge27" class="edge">
<title>&#45;12&#45;&gt;48</title>
<path fill="none" stroke="green" stroke-width="0.41" d="M375.5,-141.19C381.33,-132.43 390.6,-118.49 398.55,-106.53"/>
<polygon fill="green" stroke="green" stroke-width="0.41" points="401.33,-108.67 403.95,-98.4 395.5,-104.79 401.33,-108.67"/>
</g>
<!-- &#45;13 -->
<g id="node13" class="node">
<title>&#45;13</title>
<polygon fill="lightgray" stroke="black" points="685.75,-160.09 657.75,-160.09 657.75,-141.59 685.75,-141.59 685.75,-160.09"/>
<text text-anchor="middle" x="671.75" y="-147.54" font-family="Times,serif" font-size="9.00">&#45;13</text>
</g>
<!-- &#45;13&#45;&gt;48 -->
<g id="edge34" class="edge">
<title>&#45;13&#45;&gt;48</title>
<path fill="none" stroke="green" stroke-width="0.35" d="M658.48,-141.12C655.38,-139.35 652.02,-137.64 648.75,-136.35 577.03,-108.07 486.72,-93.2 441.8,-87.09"/>
<polygon fill="green" stroke="green" stroke-width="0.35" points="442.29,-83.63 431.92,-85.79 441.38,-90.57 442.29,-83.63"/>
</g>
<!-- &#45;14 -->
<g id="node14" class="node">
<title>&#45;14</title>
<polygon fill="lightgray" stroke="black" points="773.75,-160.09 745.75,-160.09 745.75,-141.59 773.75,-141.59 773.75,-160.09"/>
<text text-anchor="middle" x="759.75" y="-147.54" font-family="Times,serif" font-size="9.00">&#45;14</text>
</g>
<!-- &#45;15 -->
<g id="node15" class="node">
<title>&#45;15</title>
<polygon fill="lightgray" stroke="black" points="337.75,-160.09 309.75,-160.09 309.75,-141.59 337.75,-141.59 337.75,-160.09"/>
<text text-anchor="middle" x="323.75" y="-147.54" font-family="Times,serif" font-size="9.00">&#45;15</text>
</g>
<!-- &#45;15&#45;&gt;45 -->
<g id="edge43" class="edge">
<title>&#45;15&#45;&gt;45</title>
<path fill="none" stroke="red" stroke-width="0.17" d="M323.75,-141.19C323.75,-133.44 323.75,-121.64 323.75,-110.75"/>
<polygon fill="red" stroke="red" stroke-width="0.17" points="327.25,-111 323.75,-101 320.25,-111 327.25,-111"/>
</g>
<!-- &#45;15&#45;&gt;46 -->
<g id="edge40" class="edge">
<title>&#45;15&#45;&gt;46</title>
<path fill="none" stroke="red" stroke-width="0.21" d="M309.78,-141.31C306.83,-139.6 303.72,-137.87 300.75,-136.35 269.3,-120.22 231.84,-104.13 207.47,-94.06"/>
<polygon fill="red" stroke="red" stroke-width="0.21" points="209.06,-90.93 198.48,-90.37 206.41,-97.4 209.06,-90.93"/>
</g>
<!-- &#45;15&#45;&gt;48 -->
<g id="edge38" class="edge">
<title>&#45;15&#45;&gt;48</title>
<path fill="none" stroke="green" stroke-width="0.34" d="M335.52,-141.19C349.68,-130.77 373.78,-113.06 391.5,-100.03"/>
<polygon fill="green" stroke="green" stroke-width="0.34" points="393.21,-103.11 399.2,-94.37 389.07,-97.47 393.21,-103.11"/>
</g>
<!-- &#45;16 -->
<g id="node16" class="node">
<title>&#45;16</title>
<polygon fill="lightgray" stroke="black" points="819.75,-160.09 791.75,-160.09 791.75,-141.59 819.75,-141.59 819.75,-160.09"/>
<text text-anchor="middle" x="805.75" y="-147.54" font-family="Times,serif" font-size="9.00">&#45;16</text>
</g>
<!-- &#45;17 -->
<g id="node17" class="node">
<title>&#45;17</title>
<polygon fill="lightgray" stroke="black" points="865.75,-160.09 837.75,-160.09 837.75,-141.59 865.75,-141.59 865.75,-160.09"/>
<text text-anchor="middle" x="851.75" y="-147.54" font-family="Times,serif" font-size="9.00">&#45;17</text>
</g>
<!-- &#45;18 -->
<g id="node18" class="node">
<title>&#45;18</title>
<polygon fill="lightgray" stroke="black" points="291.75,-160.09 263.75,-160.09 263.75,-141.59 291.75,-141.59 291.75,-160.09"/>
<text text-anchor="middle" x="277.75" y="-147.54" font-family="Times,serif" font-size="9.00">&#45;18</text>
</g>
<!-- &#45;18&#45;&gt;45 -->
<g id="edge29" class="edge">
<title>&#45;18&#45;&gt;45</title>
<path fill="none" stroke="red" stroke-width="0.16" d="M283.76,-141.19C289.92,-132.34 299.74,-118.22 308.1,-106.18"/>
<polygon fill="red" stroke="red" stroke-width="0.16" points="310.9,-108.29 313.73,-98.08 305.15,-104.3 310.9,-108.29"/>
</g>
<!-- &#45;18&#45;&gt;46 -->
<g id="edge15" class="edge">
<title>&#45;18&#45;&gt;46</title>
<path fill="none" stroke="green" stroke-width="0.1" d="M265.2,-141.19C249.77,-130.56 223.31,-112.32 204.32,-99.23"/>
<polygon fill="green" stroke="green" stroke-width="0.1" points="206.53,-96.5 196.31,-93.71 202.56,-102.26 206.53,-96.5"/>
</g>
<!-- &#45;18&#45;&gt;47 -->
<g id="edge41" class="edge">
<title>&#45;18&#45;&gt;47</title>
<path fill="none" stroke="green" stroke-width="0.21" d="M274.48,-141.19C271.41,-133.06 266.66,-120.49 262.38,-109.17"/>
<polygon fill="green" stroke="green" stroke-width="0.21" points="265.72,-108.09 258.91,-99.97 259.17,-110.57 265.72,-108.09"/>
</g>
<!-- &#45;18&#45;&gt;48 -->
<g id="edge5" class="edge">
<title>&#45;18&#45;&gt;48</title>
<path fill="none" stroke="red" stroke-width="0.13" d="M291.74,-141.35C294.69,-139.64 297.8,-137.9 300.75,-136.35 330.43,-120.76 365.56,-104.76 388.68,-94.54"/>
<polygon fill="red" stroke="red" stroke-width="0.13" points="389.87,-97.84 397.62,-90.61 387.06,-91.43 389.87,-97.84"/>
</g>
<!-- &#45;19 -->
<g id="node19" class="node">
<title>&#45;19</title>
<polygon fill="lightgray" stroke="black" points="69.75,-160.09 41.75,-160.09 41.75,-141.59 69.75,-141.59 69.75,-160.09"/>
<text text-anchor="middle" x="55.75" y="-147.54" font-family="Times,serif" font-size="9.00">&#45;19</text>
</g>
<!-- &#45;19&#45;&gt;45 -->
<g id="edge31" class="edge">
<title>&#45;19&#45;&gt;45</title>
<path fill="none" stroke="green" stroke-width="0.4" d="M68.48,-141.26C71.71,-139.4 75.27,-137.61 78.75,-136.35 171.52,-102.82 205.67,-135.71 297.75,-100.35 298.65,-100 299.55,-99.62 300.44,-99.22"/>
<polygon fill="green" stroke="green" stroke-width="0.4" points="302.11,-102.29 309.2,-94.42 298.75,-96.16 302.11,-102.29"/>
</g>
<!-- &#45;19&#45;&gt;46 -->
<g id="edge26" class="edge">
<title>&#45;19&#45;&gt;46</title>
<path fill="none" stroke="red" stroke-width="0.31" d="M69.79,-141.43C72.73,-139.72 75.83,-137.95 78.75,-136.35 105.05,-121.92 135.72,-106.4 156.71,-95.97"/>
<polygon fill="red" stroke="red" stroke-width="0.31" points="158.07,-99.2 165.48,-91.63 154.97,-92.93 158.07,-99.2"/>
</g>
<!-- &#45;19&#45;&gt;47 -->
<g id="edge14" class="edge">
<title>&#45;19&#45;&gt;47</title>
<path fill="none" stroke="green" stroke-width="0.31" d="M69.03,-141.17C72.14,-139.39 75.49,-137.67 78.75,-136.35 141.5,-110.95 164.52,-126.99 226.75,-100.35 227.76,-99.91 228.78,-99.44 229.79,-98.94"/>
<polygon fill="green" stroke="green" stroke-width="0.31" points="231.27,-102.13 238.23,-94.15 227.81,-96.04 231.27,-102.13"/>
</g>
<!-- &#45;20 -->
<g id="node20" class="node">
<title>&#45;20</title>
<polygon fill="lightgray" stroke="black" points="157.75,-160.09 129.75,-160.09 129.75,-141.59 157.75,-141.59 157.75,-160.09"/>
<text text-anchor="middle" x="143.75" y="-147.54" font-family="Times,serif" font-size="9.00">&#45;20</text>
</g>
<!-- &#45;20&#45;&gt;46 -->
<g id="edge1" class="edge">
<title>&#45;20&#45;&gt;46</title>
<path fill="none" stroke="green" stroke-width="0.23" d="M148.72,-141.19C153.61,-132.68 161.3,-119.29 168.03,-107.56"/>
<polygon fill="green" stroke="green" stroke-width="0.23" points="171.03,-109.36 172.98,-98.95 164.96,-105.87 171.03,-109.36"/>
</g>
<!-- &#45;20&#45;&gt;48 -->
<g id="edge33" class="edge">
<title>&#45;20&#45;&gt;48</title>
<path fill="none" stroke="green" stroke-width="0.17" d="M156.5,-141.34C159.74,-139.47 163.29,-137.66 166.75,-136.35 244.68,-106.84 269.54,-119.02 350.75,-100.35 362.74,-97.59 375.91,-94.17 387.09,-91.14"/>
<polygon fill="green" stroke="green" stroke-width="0.17" points="387.75,-94.59 396.46,-88.57 385.9,-87.84 387.75,-94.59"/>
</g>
<!-- 0 -->
<g id="node21" class="node">
<title>0</title>
<ellipse fill="lightblue" stroke="black" cx="264.75" cy="-14.5" rx="14.5" ry="14.5"/>
<text text-anchor="middle" x="264.75" y="-11.2" font-family="Times,serif" font-size="9.00">0</text>
</g>
<!-- 1 -->
<g id="node22" class="node">
<title>1</title>
<ellipse fill="lightblue" stroke="black" cx="323.75" cy="-14.5" rx="14.5" ry="14.5"/>
<text text-anchor="middle" x="323.75" y="-11.2" font-family="Times,serif" font-size="9.00">1</text>
</g>
<!-- 2 -->
<g id="node23" class="node">
<title>2</title>
<ellipse fill="lightblue" stroke="black" cx="205.75" cy="-14.5" rx="14.5" ry="14.5"/>
<text text-anchor="middle" x="205.75" y="-11.2" font-family="Times,serif" font-size="9.00">2</text>
</g>
<!-- 3 -->
<g id="node24" class="node">
<title>3</title>
<ellipse fill="lightblue" stroke="black" cx="413.75" cy="-14.5" rx="14.5" ry="14.5"/>
<text text-anchor="middle" x="413.75" y="-11.2" font-family="Times,serif" font-size="9.00">3</text>
</g>
<!-- 4 -->
<g id="node25" class="node">
<title>4</title>
<ellipse fill="lightblue" stroke="black" cx="897.75" cy="-150.84" rx="14.5" ry="14.5"/>
<text text-anchor="middle" x="897.75" y="-147.54" font-family="Times,serif" font-size="9.00">4</text>
</g>
<!-- 45&#45;&gt;0 -->
<g id="edge25" class="edge">
<title>45&#45;&gt;0</title>
<path fill="none" stroke="green" stroke-width="0.24" d="M312.37,-68.91C303.43,-58.88 290.85,-44.77 280.87,-33.57"/>
<polygon fill="green" stroke="green" stroke-width="0.24" points="283.66,-31.44 274.39,-26.31 278.43,-36.1 283.66,-31.44"/>
</g>
<!-- 45&#45;&gt;1 -->
<g id="edge11" class="edge">
<title>45&#45;&gt;1</title>
<path fill="none" stroke="red" stroke-width="0.27" d="M323.75,-64.63C323.75,-56.96 323.75,-47.77 323.75,-39.43"/>
<polygon fill="red" stroke="red" stroke-width="0.27" points="327.25,-39.55 323.75,-29.55 320.25,-39.55 327.25,-39.55"/>
</g>
<!-- 45&#45;&gt;2 -->
<g id="edge9" class="edge">
<title>45&#45;&gt;2</title>
<path fill="none" stroke="red" stroke-width="0.33" d="M309.3,-72.12C305.57,-69.73 301.54,-67.22 297.75,-64.99 274.17,-51.11 246.42,-36.4 227.62,-26.66"/>
<polygon fill="red" stroke="red" stroke-width="0.33" points="229.36,-23.62 218.86,-22.15 226.15,-29.84 229.36,-23.62"/>
</g>
<!-- 46&#45;&gt;1 -->
<g id="edge30" class="edge">
<title>46&#45;&gt;1</title>
<path fill="none" stroke="red" stroke-width="0.37" d="M197.76,-74.21C223.2,-62.35 272.89,-39.2 301.68,-25.78"/>
<polygon fill="red" stroke="red" stroke-width="0.37" points="302.82,-29.11 310.41,-21.71 299.87,-22.76 302.82,-29.11"/>
</g>
<!-- 46&#45;&gt;2 -->
<g id="edge35" class="edge">
<title>46&#45;&gt;2</title>
<path fill="none" stroke="red" stroke-width="0.32" d="M187.56,-65.65C190.51,-57.51 194.15,-47.48 197.4,-38.53"/>
<polygon fill="red" stroke="red" stroke-width="0.32" points="200.68,-39.75 200.8,-29.15 194.1,-37.36 200.68,-39.75"/>
</g>
<!-- 46&#45;&gt;46 -->
<g id="edge39" class="edge">
<title>46&#45;&gt;46</title>
<path fill="none" stroke="green" stroke-width="0.11" d="M195.67,-93.8C206.44,-97.96 217.43,-94.25 217.43,-82.67 217.43,-74.7 212.23,-70.46 205.49,-69.94"/>
<polygon fill="green" stroke="green" stroke-width="0.11" points="205.14,-66.45 195.83,-71.51 206.26,-73.36 205.14,-66.45"/>
</g>
<!-- 47&#45;&gt;0 -->
<g id="edge23" class="edge">
<title>47&#45;&gt;0</title>
<path fill="none" stroke="green" stroke-width="0.25" d="M255.78,-64.97C257.2,-57.11 258.93,-47.6 260.48,-39.02"/>
<polygon fill="green" stroke="green" stroke-width="0.25" points="263.92,-39.7 262.26,-29.23 257.03,-38.45 263.92,-39.7"/>
</g>
<!-- 47&#45;&gt;47 -->
<g id="edge44" class="edge">
<title>47&#45;&gt;47</title>
<path fill="none" stroke="green" stroke-width="0.53" d="M266.67,-93.8C277.44,-97.96 288.43,-94.25 288.43,-82.67 288.43,-74.89 283.47,-70.66 276.94,-69.98"/>
<polygon fill="green" stroke="green" stroke-width="0.53" points="276.82,-66.46 267.45,-71.42 277.87,-73.38 276.82,-66.46"/>
</g>
<!-- 48&#45;&gt;1 -->
<g id="edge37" class="edge">
<title>48&#45;&gt;1</title>
<path fill="none" stroke="red" stroke-width="0.28" d="M399.69,-71.33C384.53,-60.19 360.3,-42.37 343.3,-29.87"/>
<polygon fill="red" stroke="red" stroke-width="0.28" points="345.62,-27.23 335.49,-24.12 341.47,-32.87 345.62,-27.23"/>
</g>
<!-- 48&#45;&gt;3 -->
<g id="edge16" class="edge">
<title>48&#45;&gt;3</title>
<path fill="none" stroke="red" stroke-width="0.25" d="M413.75,-64.63C413.75,-56.96 413.75,-47.77 413.75,-39.43"/>
<polygon fill="red" stroke="red" stroke-width="0.25" points="417.25,-39.53 413.75,-29.53 410.25,-39.53 417.25,-39.53"/>
</g>
</g>
</svg>
