<?xml version="1.0" encoding="UTF-8" standalone="no"?>
<!DOCTYPE svg PUBLIC "-//W3C//DTD SVG 1.1//EN"
 "http://www.w3.org/Graphics/SVG/1.1/DTD/svg11.dtd">
<!-- Generated by graphviz version 12.1.1 (20240910.0053)
 -->
<!-- Pages: 1 -->
<svg width="874pt" height="163pt"
 viewBox="0.00 0.00 873.75 162.85" xmlns="http://www.w3.org/2000/svg" xmlns:xlink="http://www.w3.org/1999/xlink">
<g id="graph0" class="graph" transform="scale(1 1) rotate(0) translate(4 158.85)">
<polygon fill="white" stroke="none" points="-4,4 -4,-158.85 869.75,-158.85 869.75,4 -4,4"/>
<!-- &#45;1 -->
<g id="node1" class="node">
<title>&#45;1</title>
<polygon fill="lightgray" stroke="black" points="241.5,-154.85 218,-154.85 218,-136.35 241.5,-136.35 241.5,-154.85"/>
<text text-anchor="middle" x="229.75" y="-142.3" font-family="Times,serif" font-size="9.00">&#45;1</text>
</g>
<!-- 89 -->
<g id="node26" class="node">
<title>89</title>
<ellipse fill="white" stroke="black" cx="166.75" cy="-82.67" rx="17.68" ry="17.68"/>
<text text-anchor="middle" x="166.75" y="-79.37" font-family="Times,serif" font-size="9.00">89</text>
</g>
<!-- &#45;1&#45;&gt;89 -->
<g id="edge11" class="edge">
<title>&#45;1&#45;&gt;89</title>
<path fill="none" stroke="green" stroke-width="0.31" d="M220.72,-135.87C211.88,-127.31 198.1,-113.99 186.68,-102.94"/>
<polygon fill="green" stroke="green" stroke-width="0.31" points="189.19,-100.51 179.57,-96.07 184.33,-105.54 189.19,-100.51"/>
</g>
<!-- 90 -->
<g id="node27" class="node">
<title>90</title>
<ellipse fill="white" stroke="black" cx="449.75" cy="-82.67" rx="17.68" ry="17.68"/>
<text text-anchor="middle" x="449.75" y="-79.37" font-family="Times,serif" font-size="9.00">90</text>
</g>
<!-- &#45;1&#45;&gt;90 -->
<g id="edge40" class="edge">
<title>&#45;1&#45;&gt;90</title>
<path fill="none" stroke="green" stroke-width="0.1" d="M241.66,-139.64C244.6,-138.49 247.77,-137.32 250.75,-136.35 311.39,-116.48 384.24,-98.7 422.78,-89.76"/>
<polygon fill="green" stroke="green" stroke-width="0.1" points="423.14,-93.27 432.1,-87.62 421.57,-86.45 423.14,-93.27"/>
</g>
<!-- &#45;2 -->
<g id="node2" class="node">
<title>&#45;2</title>
<polygon fill="lightgray" stroke="black" points="689.5,-154.85 666,-154.85 666,-136.35 689.5,-136.35 689.5,-154.85"/>
<text text-anchor="middle" x="677.75" y="-142.3" font-family="Times,serif" font-size="9.00">&#45;2</text>
</g>
<!-- &#45;2&#45;&gt;90 -->
<g id="edge5" class="edge">
<title>&#45;2&#45;&gt;90</title>
<path fill="none" stroke="green" stroke-width="0.11" d="M665.86,-139.59C662.91,-138.44 659.74,-137.28 656.75,-136.35 590.5,-115.6 571.78,-118.43 504.75,-100.35 495.37,-97.82 485.17,-94.8 476.13,-92.03"/>
<polygon fill="green" stroke="green" stroke-width="0.11" points="477.27,-88.72 466.68,-89.1 475.2,-95.4 477.27,-88.72"/>
</g>
<!-- 92 -->
<g id="node29" class="node">
<title>92</title>
<ellipse fill="white" stroke="black" cx="531.75" cy="-82.67" rx="17.68" ry="17.68"/>
<text text-anchor="middle" x="531.75" y="-79.37" font-family="Times,serif" font-size="9.00">92</text>
</g>
<!-- &#45;2&#45;&gt;92 -->
<g id="edge2" class="edge">
<title>&#45;2&#45;&gt;92</title>
<path fill="none" stroke="red" stroke-width="0.44" d="M665.55,-139.51C641.81,-129.6 588.92,-107.53 557.21,-94.29"/>
<polygon fill="red" stroke="red" stroke-width="0.44" points="558.91,-91.21 548.33,-90.59 556.22,-97.67 558.91,-91.21"/>
</g>
<!-- &#45;3 -->
<g id="node3" class="node">
<title>&#45;3</title>
<polygon fill="lightgray" stroke="black" points="773.5,-154.85 750,-154.85 750,-136.35 773.5,-136.35 773.5,-154.85"/>
<text text-anchor="middle" x="761.75" y="-142.3" font-family="Times,serif" font-size="9.00">&#45;3</text>
</g>
<!-- &#45;4 -->
<g id="node4" class="node">
<title>&#45;4</title>
<polygon fill="lightgray" stroke="black" points="283.5,-154.85 260,-154.85 260,-136.35 283.5,-136.35 283.5,-154.85"/>
<text text-anchor="middle" x="271.75" y="-142.3" font-family="Times,serif" font-size="9.00">&#45;4</text>
</g>
<!-- &#45;4&#45;&gt;89 -->
<g id="edge1" class="edge">
<title>&#45;4&#45;&gt;89</title>
<path fill="none" stroke="red" stroke-width="0.49" stroke-dasharray="1,5" d="M259.71,-137.61C242.98,-127.9 212.36,-110.14 190.85,-97.65"/>
<polygon fill="red" stroke="red" stroke-width="0.49" points="192.74,-94.7 182.33,-92.71 189.22,-100.76 192.74,-94.7"/>
</g>
<!-- &#45;4&#45;&gt;90 -->
<g id="edge26" class="edge">
<title>&#45;4&#45;&gt;90</title>
<path fill="none" stroke="red" stroke-width="0.15" d="M283.7,-139.78C286.65,-138.63 289.81,-137.42 292.75,-136.35 338.38,-119.74 392.15,-102.12 423.44,-92.05"/>
<polygon fill="red" stroke="red" stroke-width="0.15" points="424.48,-95.39 432.94,-89 422.35,-88.72 424.48,-95.39"/>
</g>
<!-- &#45;5 -->
<g id="node5" class="node">
<title>&#45;5</title>
<polygon fill="lightgray" stroke="black" points="199.5,-154.85 176,-154.85 176,-136.35 199.5,-136.35 199.5,-154.85"/>
<text text-anchor="middle" x="187.75" y="-142.3" font-family="Times,serif" font-size="9.00">&#45;5</text>
</g>
<!-- &#45;5&#45;&gt;89 -->
<g id="edge28" class="edge">
<title>&#45;5&#45;&gt;89</title>
<path fill="none" stroke="green" stroke-width="0.1" d="M184.74,-135.87C182.35,-128.93 178.88,-118.86 175.62,-109.41"/>
<polygon fill="green" stroke="green" stroke-width="0.1" points="178.98,-108.4 172.41,-100.09 172.36,-110.68 178.98,-108.4"/>
</g>
<!-- &#45;5&#45;&gt;90 -->
<g id="edge35" class="edge">
<title>&#45;5&#45;&gt;90</title>
<path fill="none" stroke="green" stroke-width="0.11" d="M199.63,-139.55C202.58,-138.4 205.75,-137.26 208.75,-136.35 248.8,-124.19 368.2,-99.88 422.42,-89.07"/>
<polygon fill="green" stroke="green" stroke-width="0.11" points="423.06,-92.51 432.19,-87.13 421.7,-85.65 423.06,-92.51"/>
</g>
<!-- &#45;6 -->
<g id="node6" class="node">
<title>&#45;6</title>
<polygon fill="lightgray" stroke="black" points="23.5,-154.85 0,-154.85 0,-136.35 23.5,-136.35 23.5,-154.85"/>
<text text-anchor="middle" x="11.75" y="-142.3" font-family="Times,serif" font-size="9.00">&#45;6</text>
</g>
<!-- &#45;6&#45;&gt;89 -->
<g id="edge30" class="edge">
<title>&#45;6&#45;&gt;89</title>
<path fill="none" stroke="red" stroke-width="0.13" d="M23.91,-139.82C49.12,-129.91 107.5,-106.96 141.31,-93.67"/>
<polygon fill="red" stroke="red" stroke-width="0.13" points="142.34,-97.03 150.37,-90.11 139.78,-90.51 142.34,-97.03"/>
</g>
<!-- &#45;7 -->
<g id="node7" class="node">
<title>&#45;7</title>
<polygon fill="lightgray" stroke="black" points="157.5,-154.85 134,-154.85 134,-136.35 157.5,-136.35 157.5,-154.85"/>
<text text-anchor="middle" x="145.75" y="-142.3" font-family="Times,serif" font-size="9.00">&#45;7</text>
</g>
<!-- &#45;7&#45;&gt;89 -->
<g id="edge6" class="edge">
<title>&#45;7&#45;&gt;89</title>
<path fill="none" stroke="green" stroke-width="0.16" d="M148.76,-135.87C151.15,-128.93 154.62,-118.86 157.88,-109.41"/>
<polygon fill="green" stroke="green" stroke-width="0.16" points="161.11,-110.76 161.06,-100.17 154.5,-108.48 161.11,-110.76"/>
</g>
<!-- 91 -->
<g id="node28" class="node">
<title>91</title>
<ellipse fill="white" stroke="black" cx="338.75" cy="-82.67" rx="17.68" ry="17.68"/>
<text text-anchor="middle" x="338.75" y="-79.37" font-family="Times,serif" font-size="9.00">91</text>
</g>
<!-- &#45;7&#45;&gt;91 -->
<g id="edge27" class="edge">
<title>&#45;7&#45;&gt;91</title>
<path fill="none" stroke="red" stroke-width="0.33" stroke-dasharray="1,5" d="M157.68,-139.72C160.63,-138.57 163.79,-137.38 166.75,-136.35 217.57,-118.61 277.92,-100.88 311.93,-91.19"/>
<polygon fill="red" stroke="red" stroke-width="0.33" points="312.86,-94.56 321.53,-88.47 310.95,-87.83 312.86,-94.56"/>
</g>
<!-- &#45;8 -->
<g id="node8" class="node">
<title>&#45;8</title>
<polygon fill="lightgray" stroke="black" points="731.5,-154.85 708,-154.85 708,-136.35 731.5,-136.35 731.5,-154.85"/>
<text text-anchor="middle" x="719.75" y="-142.3" font-family="Times,serif" font-size="9.00">&#45;8</text>
</g>
<!-- 2 -->
<g id="node23" class="node">
<title>2</title>
<ellipse fill="lightblue" stroke="black" cx="618.75" cy="-14.5" rx="14.5" ry="14.5"/>
<text text-anchor="middle" x="618.75" y="-11.2" font-family="Times,serif" font-size="9.00">2</text>
</g>
<!-- &#45;8&#45;&gt;2 -->
<g id="edge43" class="edge">
<title>&#45;8&#45;&gt;2</title>
<path fill="none" stroke="red" stroke-width="0.17" d="M713.12,-136.13C697.06,-115.59 655.71,-62.74 633.45,-34.29"/>
<polygon fill="red" stroke="red" stroke-width="0.17" points="636.28,-32.23 627.36,-26.51 630.77,-36.54 636.28,-32.23"/>
</g>
<!-- &#45;8&#45;&gt;92 -->
<g id="edge20" class="edge">
<title>&#45;8&#45;&gt;92</title>
<path fill="none" stroke="green" stroke-width="0.34" d="M707.81,-139.74C704.86,-138.59 701.7,-137.39 698.75,-136.35 649.61,-118.97 591.39,-101.24 558.29,-91.43"/>
<polygon fill="green" stroke="green" stroke-width="0.34" points="559.54,-88.15 548.96,-88.67 557.56,-94.86 559.54,-88.15"/>
</g>
<!-- &#45;9 -->
<g id="node9" class="node">
<title>&#45;9</title>
<polygon fill="lightgray" stroke="black" points="417.5,-154.85 394,-154.85 394,-136.35 417.5,-136.35 417.5,-154.85"/>
<text text-anchor="middle" x="405.75" y="-142.3" font-family="Times,serif" font-size="9.00">&#45;9</text>
</g>
<!-- &#45;9&#45;&gt;90 -->
<g id="edge24" class="edge">
<title>&#45;9&#45;&gt;90</title>
<path fill="none" stroke="green" stroke-width="0.26" d="M412.05,-135.87C417.7,-128.05 426.22,-116.26 433.73,-105.85"/>
<polygon fill="green" stroke="green" stroke-width="0.26" points="436.47,-108.03 439.49,-97.88 430.8,-103.93 436.47,-108.03"/>
</g>
<!-- &#45;10 -->
<g id="node10" class="node">
<title>&#45;10</title>
<polygon fill="lightgray" stroke="black" points="329.75,-154.85 301.75,-154.85 301.75,-136.35 329.75,-136.35 329.75,-154.85"/>
<text text-anchor="middle" x="315.75" y="-142.3" font-family="Times,serif" font-size="9.00">&#45;10</text>
</g>
<!-- &#45;10&#45;&gt;91 -->
<g id="edge36" class="edge">
<title>&#45;10&#45;&gt;91</title>
<path fill="none" stroke="red" stroke-width="0.35" d="M319.05,-135.87C321.67,-128.91 325.49,-118.79 329.07,-109.31"/>
<polygon fill="red" stroke="red" stroke-width="0.35" points="332.34,-110.55 332.6,-99.96 325.79,-108.08 332.34,-110.55"/>
</g>
<!-- &#45;11 -->
<g id="node11" class="node">
<title>&#45;11</title>
<polygon fill="lightgray" stroke="black" points="463.75,-154.85 435.75,-154.85 435.75,-136.35 463.75,-136.35 463.75,-154.85"/>
<text text-anchor="middle" x="449.75" y="-142.3" font-family="Times,serif" font-size="9.00">&#45;11</text>
</g>
<!-- &#45;11&#45;&gt;90 -->
<g id="edge39" class="edge">
<title>&#45;11&#45;&gt;90</title>
<path fill="none" stroke="green" stroke-width="0.39" d="M449.75,-135.87C449.75,-129.32 449.75,-119.97 449.75,-110.99"/>
<polygon fill="green" stroke="green" stroke-width="0.39" points="453.25,-111.03 449.75,-101.03 446.25,-111.03 453.25,-111.03"/>
</g>
<!-- &#45;11&#45;&gt;91 -->
<g id="edge33" class="edge">
<title>&#45;11&#45;&gt;91</title>
<path fill="none" stroke="green" stroke-width="0.25" d="M435.69,-136.88C417.42,-126.85 385.22,-109.17 362.97,-96.96"/>
<polygon fill="green" stroke="green" stroke-width="0.25" points="364.9,-94.03 354.45,-92.28 361.53,-100.16 364.9,-94.03"/>
</g>
<!-- &#45;11&#45;&gt;92 -->
<g id="edge9" class="edge">
<title>&#45;11&#45;&gt;92</title>
<path fill="none" stroke="green" stroke-width="0.61" d="M461.5,-135.87C473.94,-126.63 493.87,-111.81 509.33,-100.33"/>
<polygon fill="green" stroke="green" stroke-width="0.61" points="511.15,-103.33 517.09,-94.56 506.98,-97.71 511.15,-103.33"/>
</g>
<!-- &#45;12 -->
<g id="node12" class="node">
<title>&#45;12</title>
<polygon fill="lightgray" stroke="black" points="555.75,-154.85 527.75,-154.85 527.75,-136.35 555.75,-136.35 555.75,-154.85"/>
<text text-anchor="middle" x="541.75" y="-142.3" font-family="Times,serif" font-size="9.00">&#45;12</text>
</g>
<!-- &#45;12&#45;&gt;90 -->
<g id="edge22" class="edge">
<title>&#45;12&#45;&gt;90</title>
<path fill="none" stroke="red" stroke-width="0.32" d="M528.57,-135.87C514.1,-126.28 490.59,-110.71 473,-99.07"/>
<polygon fill="red" stroke="red" stroke-width="0.32" points="475.1,-96.26 464.83,-93.66 471.24,-102.1 475.1,-96.26"/>
</g>
<!-- &#45;13 -->
<g id="node13" class="node">
<title>&#45;13</title>
<polygon fill="lightgray" stroke="black" points="69.75,-154.85 41.75,-154.85 41.75,-136.35 69.75,-136.35 69.75,-154.85"/>
<text text-anchor="middle" x="55.75" y="-142.3" font-family="Times,serif" font-size="9.00">&#45;13</text>
</g>
<!-- &#45;13&#45;&gt;89 -->
<g id="edge7" class="edge">
<title>&#45;13&#45;&gt;89</title>
<path fill="none" stroke="green" stroke-width="0.21" d="M69.81,-136.88C88.08,-126.85 120.28,-109.17 142.53,-96.96"/>
<polygon fill="green" stroke="green" stroke-width="0.21" points="144.03,-100.13 151.11,-92.25 140.66,-94 144.03,-100.13"/>
</g>
<!-- &#45;13&#45;&gt;91 -->
<g id="edge29" class="edge">
<title>&#45;13&#45;&gt;91</title>
<path fill="none" stroke="green" stroke-width="0.19" stroke-dasharray="1,5" d="M70.25,-139.04C73.05,-138.07 75.97,-137.12 78.75,-136.35 162.26,-113.04 263.56,-95.52 311.31,-87.89"/>
<polygon fill="green" stroke="green" stroke-width="0.19" points="311.58,-91.39 320.91,-86.37 310.49,-84.47 311.58,-91.39"/>
</g>
<!-- &#45;14 -->
<g id="node14" class="node">
<title>&#45;14</title>
<polygon fill="lightgray" stroke="black" points="819.75,-154.85 791.75,-154.85 791.75,-136.35 819.75,-136.35 819.75,-154.85"/>
<text text-anchor="middle" x="805.75" y="-142.3" font-family="Times,serif" font-size="9.00">&#45;14</text>
</g>
<!-- &#45;15 -->
<g id="node15" class="node">
<title>&#45;15</title>
<polygon fill="lightgray" stroke="black" points="601.75,-154.85 573.75,-154.85 573.75,-136.35 601.75,-136.35 601.75,-154.85"/>
<text text-anchor="middle" x="587.75" y="-142.3" font-family="Times,serif" font-size="9.00">&#45;15</text>
</g>
<!-- &#45;15&#45;&gt;90 -->
<g id="edge23" class="edge">
<title>&#45;15&#45;&gt;90</title>
<path fill="none" stroke="green" stroke-width="0.11" d="M573.5,-138.31C550.24,-128.03 503.8,-107.53 474.9,-94.77"/>
<polygon fill="green" stroke="green" stroke-width="0.11" points="476.54,-91.67 465.98,-90.84 473.72,-98.08 476.54,-91.67"/>
</g>
<!-- &#45;16 -->
<g id="node16" class="node">
<title>&#45;16</title>
<polygon fill="lightgray" stroke="black" points="115.75,-154.85 87.75,-154.85 87.75,-136.35 115.75,-136.35 115.75,-154.85"/>
<text text-anchor="middle" x="101.75" y="-142.3" font-family="Times,serif" font-size="9.00">&#45;16</text>
</g>
<!-- &#45;16&#45;&gt;89 -->
<g id="edge34" class="edge">
<title>&#45;16&#45;&gt;89</title>
<path fill="none" stroke="red" stroke-width="0.21" d="M111.06,-135.87C120.39,-127.12 135.04,-113.39 146.97,-102.21"/>
<polygon fill="red" stroke="red" stroke-width="0.21" points="149.21,-104.91 154.11,-95.51 144.42,-99.8 149.21,-104.91"/>
</g>
<!-- &#45;16&#45;&gt;91 -->
<g id="edge12" class="edge">
<title>&#45;16&#45;&gt;91</title>
<path fill="none" stroke="red" stroke-width="0.52" d="M115.78,-139.3C118.73,-138.27 121.83,-137.23 124.75,-136.35 190.71,-116.46 269.76,-98.48 310.85,-89.57"/>
<polygon fill="red" stroke="red" stroke-width="0.52" points="311.57,-93 320.61,-87.47 310.1,-86.15 311.57,-93"/>
</g>
<!-- &#45;17 -->
<g id="node17" class="node">
<title>&#45;17</title>
<polygon fill="lightgray" stroke="black" points="509.75,-154.85 481.75,-154.85 481.75,-136.35 509.75,-136.35 509.75,-154.85"/>
<text text-anchor="middle" x="495.75" y="-142.3" font-family="Times,serif" font-size="9.00">&#45;17</text>
</g>
<!-- &#45;17&#45;&gt;90 -->
<g id="edge17" class="edge">
<title>&#45;17&#45;&gt;90</title>
<path fill="none" stroke="red" stroke-width="0.25" stroke-dasharray="1,5" d="M489.16,-135.87C483.12,-127.87 473.94,-115.7 465.95,-105.13"/>
<polygon fill="red" stroke="red" stroke-width="0.25" points="468.94,-103.28 460.12,-97.41 463.35,-107.5 468.94,-103.28"/>
</g>
<!-- &#45;17&#45;&gt;91 -->
<g id="edge38" class="edge">
<title>&#45;17&#45;&gt;91</title>
<path fill="none" stroke="red" stroke-width="0.14" d="M481.26,-138.97C454.59,-128.62 397.42,-106.44 364.17,-93.53"/>
<polygon fill="red" stroke="red" stroke-width="0.14" points="365.85,-90.43 355.26,-90.08 363.32,-96.96 365.85,-90.43"/>
</g>
<!-- &#45;17&#45;&gt;92 -->
<g id="edge13" class="edge">
<title>&#45;17&#45;&gt;92</title>
<path fill="none" stroke="red" stroke-width="0.16" stroke-dasharray="1,5" d="M500.91,-135.87C505.31,-128.41 511.86,-117.33 517.79,-107.29"/>
<polygon fill="red" stroke="red" stroke-width="0.16" points="520.79,-109.1 522.86,-98.71 514.76,-105.54 520.79,-109.1"/>
</g>
<!-- &#45;18 -->
<g id="node18" class="node">
<title>&#45;18</title>
<polygon fill="lightgray" stroke="black" points="375.75,-154.85 347.75,-154.85 347.75,-136.35 375.75,-136.35 375.75,-154.85"/>
<text text-anchor="middle" x="361.75" y="-142.3" font-family="Times,serif" font-size="9.00">&#45;18</text>
</g>
<!-- &#45;18&#45;&gt;89 -->
<g id="edge25" class="edge">
<title>&#45;18&#45;&gt;89</title>
<path fill="none" stroke="green" stroke-width="0.15" d="M347.68,-139.43C344.74,-138.38 341.65,-137.31 338.75,-136.35 287.45,-119.3 226.89,-101.22 193.04,-91.3"/>
<polygon fill="green" stroke="green" stroke-width="0.15" points="194.23,-88 183.65,-88.56 192.27,-94.72 194.23,-88"/>
</g>
<!-- &#45;18&#45;&gt;90 -->
<g id="edge21" class="edge">
<title>&#45;18&#45;&gt;90</title>
<path fill="none" stroke="red" stroke-width="0.17" d="M374.36,-135.87C388.12,-126.34 410.42,-110.9 427.21,-99.27"/>
<polygon fill="red" stroke="red" stroke-width="0.17" points="428.97,-102.31 435.2,-93.74 424.99,-96.56 428.97,-102.31"/>
</g>
<!-- &#45;18&#45;&gt;91 -->
<g id="edge18" class="edge">
<title>&#45;18&#45;&gt;91</title>
<path fill="none" stroke="green" stroke-width="0.22" stroke-dasharray="1,5" d="M358.45,-135.87C355.8,-128.83 351.93,-118.58 348.32,-109.01"/>
<polygon fill="green" stroke="green" stroke-width="0.22" points="351.63,-107.88 344.83,-99.76 345.08,-110.36 351.63,-107.88"/>
</g>
<!-- &#45;18&#45;&gt;92 -->
<g id="edge31" class="edge">
<title>&#45;18&#45;&gt;92</title>
<path fill="none" stroke="green" stroke-width="0.29" d="M376.24,-139.4C404.94,-129.12 469.35,-106.03 505.63,-93.03"/>
<polygon fill="green" stroke="green" stroke-width="0.29" points="506.42,-96.47 514.65,-89.8 504.05,-89.88 506.42,-96.47"/>
</g>
<!-- &#45;19 -->
<g id="node19" class="node">
<title>&#45;19</title>
<polygon fill="lightgray" stroke="black" points="647.75,-154.85 619.75,-154.85 619.75,-136.35 647.75,-136.35 647.75,-154.85"/>
<text text-anchor="middle" x="633.75" y="-142.3" font-family="Times,serif" font-size="9.00">&#45;19</text>
</g>
<!-- &#45;19&#45;&gt;90 -->
<g id="edge37" class="edge">
<title>&#45;19&#45;&gt;90</title>
<path fill="none" stroke="red" stroke-width="0.1" d="M619.66,-139.47C616.72,-138.42 613.64,-137.34 610.75,-136.35 563.56,-120.17 508.21,-102.3 476.24,-92.08"/>
<polygon fill="red" stroke="red" stroke-width="0.1" points="477.46,-88.8 466.87,-89.1 475.33,-95.47 477.46,-88.8"/>
</g>
<!-- &#45;19&#45;&gt;92 -->
<g id="edge10" class="edge">
<title>&#45;19&#45;&gt;92</title>
<path fill="none" stroke="green" stroke-width="0.14" d="M619.57,-136.12C602.95,-126.2 575.18,-109.61 555.31,-97.74"/>
<polygon fill="green" stroke="green" stroke-width="0.14" points="557.37,-94.89 546.99,-92.77 553.78,-100.9 557.37,-94.89"/>
</g>
<!-- &#45;20 -->
<g id="node20" class="node">
<title>&#45;20</title>
<polygon fill="lightgray" stroke="black" points="865.75,-154.85 837.75,-154.85 837.75,-136.35 865.75,-136.35 865.75,-154.85"/>
<text text-anchor="middle" x="851.75" y="-142.3" font-family="Times,serif" font-size="9.00">&#45;20</text>
</g>
<!-- 0 -->
<g id="node21" class="node">
<title>0</title>
<ellipse fill="lightblue" stroke="black" cx="466.75" cy="-14.5" rx="14.5" ry="14.5"/>
<text text-anchor="middle" x="466.75" y="-11.2" font-family="Times,serif" font-size="9.00">0</text>
</g>
<!-- 0&#45;&gt;0 -->
<g id="edge3" class="edge">
<title>0&#45;&gt;0</title>
<path fill="none" stroke="green" stroke-width="0.13" d="M477.4,-24.65C487.81,-30.26 499.25,-26.88 499.25,-14.5 499.25,-5.98 493.84,-1.72 487.08,-1.71"/>
<polygon fill="green" stroke="green" stroke-width="0.13" points="486.33,1.71 477.6,-4.28 488.17,-5.05 486.33,1.71"/>
</g>
<!-- 1 -->
<g id="node22" class="node">
<title>1</title>
<ellipse fill="lightblue" stroke="black" cx="419.75" cy="-14.5" rx="14.5" ry="14.5"/>
<text text-anchor="middle" x="419.75" y="-11.2" font-family="Times,serif" font-size="9.00">1</text>
</g>
<!-- 3 -->
<g id="node24" class="node">
<title>3</title>
<ellipse fill="lightblue" stroke="black" cx="531.75" cy="-14.5" rx="14.5" ry="14.5"/>
<text text-anchor="middle" x="531.75" y="-11.2" font-family="Times,serif" font-size="9.00">3</text>
</g>
<!-- 4 -->
<g id="node25" class="node">
<title>4</title>
<ellipse fill="lightblue" stroke="black" cx="166.75" cy="-14.5" rx="14.5" ry="14.5"/>
<text text-anchor="middle" x="166.75" y="-11.2" font-family="Times,serif" font-size="9.00">4</text>
</g>
<!-- 4&#45;&gt;4 -->
<g id="edge32" class="edge">
<title>4&#45;&gt;4</title>
<path fill="none" stroke="red" stroke-width="0.3" d="M177.4,-24.65C187.81,-30.26 199.25,-26.88 199.25,-14.5 199.25,-5.98 193.84,-1.72 187.08,-1.71"/>
<polygon fill="red" stroke="red" stroke-width="0.3" points="186.57,1.78 177.84,-4.22 188.4,-4.98 186.57,1.78"/>
</g>
<!-- 89&#45;&gt;4 -->
<g id="edge4" class="edge">
<title>89&#45;&gt;4</title>
<path fill="none" stroke="red" stroke-width="0.42" d="M166.75,-64.63C166.75,-57.05 166.75,-47.98 166.75,-39.71"/>
<polygon fill="red" stroke="red" stroke-width="0.42" points="170.25,-39.78 166.75,-29.78 163.25,-39.78 170.25,-39.78"/>
</g>
<!-- 90&#45;&gt;1 -->
<g id="edge16" class="edge">
<title>90&#45;&gt;1</title>
<path fill="none" stroke="green" stroke-width="0.15" stroke-dasharray="1,5" d="M442.64,-65.99C438.73,-57.36 433.82,-46.54 429.55,-37.12"/>
<polygon fill="green" stroke="green" stroke-width="0.15" points="432.81,-35.83 425.5,-28.17 426.44,-38.72 432.81,-35.83"/>
</g>
<!-- 90&#45;&gt;3 -->
<g id="edge19" class="edge">
<title>90&#45;&gt;3</title>
<path fill="none" stroke="red" stroke-width="0.12" d="M463.29,-70.74C476.95,-59.72 498.15,-42.61 513.33,-30.36"/>
<polygon fill="red" stroke="red" stroke-width="0.12" points="515.34,-33.23 520.93,-24.23 510.95,-27.79 515.34,-33.23"/>
</g>
<!-- 91&#45;&gt;0 -->
<g id="edge41" class="edge">
<title>91&#45;&gt;0</title>
<path fill="none" stroke="red" stroke-width="0.24" stroke-dasharray="1,5" d="M354.36,-74.02C374.8,-63.96 411.69,-45.58 442.75,-28.99 443.72,-28.47 444.71,-27.94 445.71,-27.4"/>
<polygon fill="red" stroke="red" stroke-width="0.24" points="447.24,-30.55 454.28,-22.64 443.84,-24.43 447.24,-30.55"/>
</g>
<!-- 92&#45;&gt;0 -->
<g id="edge14" class="edge">
<title>92&#45;&gt;0</title>
<path fill="none" stroke="red" stroke-width="0.19" stroke-dasharray="1,5" d="M519.52,-69.22C509.36,-58.88 494.81,-44.06 483.55,-32.6"/>
<polygon fill="red" stroke="red" stroke-width="0.19" points="486.09,-30.19 476.59,-25.51 481.1,-35.1 486.09,-30.19"/>
</g>
<!-- 92&#45;&gt;2 -->
<g id="edge42" class="edge">
<title>92&#45;&gt;2</title>
<path fill="none" stroke="green" stroke-width="0.18" d="M545.34,-71.33C559.91,-60.25 583.16,-42.57 599.58,-30.08"/>
<polygon fill="green" stroke="green" stroke-width="0.18" points="601.41,-33.08 607.25,-24.24 597.17,-27.51 601.41,-33.08"/>
</g>
<!-- 92&#45;&gt;3 -->
<g id="edge8" class="edge">
<title>92&#45;&gt;3</title>
<path fill="none" stroke="green" stroke-width="0.65" stroke-dasharray="1,5" d="M531.75,-64.63C531.75,-57.13 531.75,-48.19 531.75,-39.99"/>
<polygon fill="green" stroke="green" stroke-width="0.65" points="535.25,-40.13 531.75,-30.13 528.25,-40.13 535.25,-40.13"/>
</g>
<!-- 92&#45;&gt;92 -->
<g id="edge15" class="edge">
<title>92&#45;&gt;92</title>
<path fill="none" stroke="green" stroke-width="0.11" stroke-dasharray="1,5" d="M546.41,-93.2C556.94,-96.63 567.43,-93.12 567.43,-82.67 567.43,-75.65 562.69,-71.76 556.39,-71.01"/>
<polygon fill="green" stroke="green" stroke-width="0.11" points="556.12,-67.52 546.58,-72.12 556.91,-74.47 556.12,-67.52"/>
</g>
</g>
</svg>
