<?xml version="1.0" encoding="UTF-8" standalone="no"?>
<!DOCTYPE svg PUBLIC "-//W3C//DTD SVG 1.1//EN"
 "http://www.w3.org/Graphics/SVG/1.1/DTD/svg11.dtd">
<!-- Generated by graphviz version 12.1.1 (20240910.0053)
 -->
<!-- Pages: 1 -->
<svg width="751pt" height="394pt"
 viewBox="0.00 0.00 751.25 393.77" xmlns="http://www.w3.org/2000/svg" xmlns:xlink="http://www.w3.org/1999/xlink">
<g id="graph0" class="graph" transform="scale(1 1) rotate(0) translate(4 389.77)">
<polygon fill="white" stroke="none" points="-4,4 -4,-389.77 747.25,-389.77 747.25,4 -4,4"/>
<!-- &#45;1 -->
<g id="node1" class="node">
<title>&#45;1</title>
<polygon fill="lightgray" stroke="black" points="23.5,-380.52 0,-380.52 0,-362.02 23.5,-362.02 23.5,-380.52"/>
<text text-anchor="middle" x="11.75" y="-367.97" font-family="Times,serif" font-size="9.00">&#45;1</text>
</g>
<!-- &#45;2 -->
<g id="node2" class="node">
<title>&#45;2</title>
<polygon fill="lightgray" stroke="black" points="65.5,-380.52 42,-380.52 42,-362.02 65.5,-362.02 65.5,-380.52"/>
<text text-anchor="middle" x="53.75" y="-367.97" font-family="Times,serif" font-size="9.00">&#45;2</text>
</g>
<!-- &#45;3 -->
<g id="node3" class="node">
<title>&#45;3</title>
<polygon fill="lightgray" stroke="black" points="494.5,-380.52 471,-380.52 471,-362.02 494.5,-362.02 494.5,-380.52"/>
<text text-anchor="middle" x="482.75" y="-367.97" font-family="Times,serif" font-size="9.00">&#45;3</text>
</g>
<!-- 9 -->
<g id="node27" class="node">
<title>9</title>
<ellipse fill="white" stroke="black" cx="390.75" cy="-299.92" rx="14.5" ry="14.5"/>
<text text-anchor="middle" x="390.75" y="-296.62" font-family="Times,serif" font-size="9.00">9</text>
</g>
<!-- &#45;3&#45;&gt;9 -->
<g id="edge9" class="edge">
<title>&#45;3&#45;&gt;9</title>
<path fill="none" stroke="green" stroke-width="0.36" d="M471.47,-361.77C456.29,-350.33 429.07,-329.8 410.47,-315.78"/>
<polygon fill="green" stroke="green" stroke-width="0.36" points="412.65,-313.05 402.56,-309.82 408.44,-318.64 412.65,-313.05"/>
</g>
<!-- 12 -->
<g id="node29" class="node">
<title>12</title>
<ellipse fill="white" stroke="black" cx="348.75" cy="-82.67" rx="17.68" ry="17.68"/>
<text text-anchor="middle" x="348.75" y="-79.37" font-family="Times,serif" font-size="9.00">12</text>
</g>
<!-- &#45;3&#45;&gt;12 -->
<g id="edge23" class="edge">
<title>&#45;3&#45;&gt;12</title>
<path fill="none" stroke="red" stroke-width="0.25" stroke-dasharray="1,5" d="M485.2,-361.61C493.97,-328.68 520.62,-209.47 469.75,-136.35 448.4,-105.66 405.12,-92.69 376.53,-87.32"/>
<polygon fill="red" stroke="red" stroke-width="0.25" points="377.19,-83.88 366.75,-85.68 376.03,-90.79 377.19,-83.88"/>
</g>
<!-- &#45;4 -->
<g id="node4" class="node">
<title>&#45;4</title>
<polygon fill="lightgray" stroke="black" points="278.5,-166.46 255,-166.46 255,-147.96 278.5,-147.96 278.5,-166.46"/>
<text text-anchor="middle" x="266.75" y="-153.91" font-family="Times,serif" font-size="9.00">&#45;4</text>
</g>
<!-- 10 -->
<g id="node28" class="node">
<title>10</title>
<ellipse fill="white" stroke="black" cx="180.75" cy="-82.67" rx="17.68" ry="17.68"/>
<text text-anchor="middle" x="180.75" y="-79.37" font-family="Times,serif" font-size="9.00">10</text>
</g>
<!-- &#45;4&#45;&gt;10 -->
<g id="edge15" class="edge">
<title>&#45;4&#45;&gt;10</title>
<path fill="none" stroke="green" stroke-width="0.24" stroke-dasharray="1,5" d="M257.9,-147.55C254.2,-144.01 249.83,-139.92 245.75,-136.35 231.59,-123.94 215.1,-110.6 202.28,-100.44"/>
<polygon fill="green" stroke="green" stroke-width="0.24" points="204.75,-97.93 194.73,-94.5 200.42,-103.43 204.75,-97.93"/>
</g>
<!-- &#45;4&#45;&gt;12 -->
<g id="edge28" class="edge">
<title>&#45;4&#45;&gt;12</title>
<path fill="none" stroke="green" stroke-width="0.16" d="M275.66,-147.61C279.36,-144.08 283.73,-139.98 287.75,-136.35 300.91,-124.45 315.99,-111.43 327.87,-101.3"/>
<polygon fill="green" stroke="green" stroke-width="0.16" points="329.97,-104.1 335.33,-94.96 325.44,-98.77 329.97,-104.1"/>
</g>
<!-- &#45;5 -->
<g id="node5" class="node">
<title>&#45;5</title>
<polygon fill="lightgray" stroke="black" points="192.5,-380.52 169,-380.52 169,-362.02 192.5,-362.02 192.5,-380.52"/>
<text text-anchor="middle" x="180.75" y="-367.97" font-family="Times,serif" font-size="9.00">&#45;5</text>
</g>
<!-- 3 -->
<g id="node24" class="node">
<title>3</title>
<ellipse fill="lightblue" stroke="black" cx="274.75" cy="-228.56" rx="14.5" ry="14.5"/>
<text text-anchor="middle" x="274.75" y="-225.26" font-family="Times,serif" font-size="9.00">3</text>
</g>
<!-- &#45;5&#45;&gt;3 -->
<g id="edge34" class="edge">
<title>&#45;5&#45;&gt;3</title>
<path fill="none" stroke="green" stroke-width="0.52" d="M186.35,-361.89C200.89,-340.12 240.19,-281.3 261.15,-249.93"/>
<polygon fill="green" stroke="green" stroke-width="0.52" points="263.93,-252.05 266.58,-241.79 258.11,-248.16 263.93,-252.05"/>
</g>
<!-- &#45;5&#45;&gt;9 -->
<g id="edge4" class="edge">
<title>&#45;5&#45;&gt;9</title>
<path fill="none" stroke="red" stroke-width="0.4" d="M192.95,-366.24C226.75,-355.08 322.08,-323.6 366.9,-308.79"/>
<polygon fill="red" stroke="red" stroke-width="0.4" points="367.93,-312.14 376.32,-305.68 365.73,-305.49 367.93,-312.14"/>
</g>
<!-- &#45;5&#45;&gt;10 -->
<g id="edge10" class="edge">
<title>&#45;5&#45;&gt;10</title>
<path fill="none" stroke="red" stroke-width="0.21" d="M179.08,-361.73C173.33,-331.1 155.32,-223.89 166.75,-136.35 167.92,-127.41 170.15,-117.83 172.5,-109.32"/>
<polygon fill="red" stroke="red" stroke-width="0.21" points="175.81,-110.47 175.27,-99.89 169.1,-108.5 175.81,-110.47"/>
</g>
<!-- &#45;6 -->
<g id="node6" class="node">
<title>&#45;6</title>
<polygon fill="lightgray" stroke="black" points="320.5,-166.46 297,-166.46 297,-147.96 320.5,-147.96 320.5,-166.46"/>
<text text-anchor="middle" x="308.75" y="-153.91" font-family="Times,serif" font-size="9.00">&#45;6</text>
</g>
<!-- &#45;6&#45;&gt;10 -->
<g id="edge20" class="edge">
<title>&#45;6&#45;&gt;10</title>
<path fill="none" stroke="green" stroke-width="0.44" d="M300.67,-147.47C296.96,-143.76 292.36,-139.55 287.75,-136.35 262.07,-118.49 229.43,-103.36 207,-93.96"/>
<polygon fill="green" stroke="green" stroke-width="0.44" points="208.37,-90.74 197.79,-90.19 205.72,-97.22 208.37,-90.74"/>
</g>
<!-- &#45;6&#45;&gt;12 -->
<g id="edge18" class="edge">
<title>&#45;6&#45;&gt;12</title>
<path fill="none" stroke="red" stroke-width="0.29" stroke-dasharray="1,5" d="M313.5,-147.6C318.91,-137.78 328,-121.31 335.59,-107.54"/>
<polygon fill="red" stroke="red" stroke-width="0.29" points="338.57,-109.38 340.33,-98.94 332.44,-106 338.57,-109.38"/>
</g>
<!-- &#45;7 -->
<g id="node7" class="node">
<title>&#45;7</title>
<polygon fill="lightgray" stroke="black" points="400.5,-166.46 377,-166.46 377,-147.96 400.5,-147.96 400.5,-166.46"/>
<text text-anchor="middle" x="388.75" y="-153.91" font-family="Times,serif" font-size="9.00">&#45;7</text>
</g>
<!-- &#45;7&#45;&gt;12 -->
<g id="edge24" class="edge">
<title>&#45;7&#45;&gt;12</title>
<path fill="none" stroke="red" stroke-width="0.22" stroke-dasharray="1,5" d="M384,-147.6C378.59,-137.78 369.5,-121.31 361.91,-107.54"/>
<polygon fill="red" stroke="red" stroke-width="0.22" points="365.02,-105.92 357.12,-98.85 358.89,-109.3 365.02,-105.92"/>
</g>
<!-- &#45;8 -->
<g id="node8" class="node">
<title>&#45;8</title>
<polygon fill="lightgray" stroke="black" points="364.5,-380.52 341,-380.52 341,-362.02 364.5,-362.02 364.5,-380.52"/>
<text text-anchor="middle" x="352.75" y="-367.97" font-family="Times,serif" font-size="9.00">&#45;8</text>
</g>
<!-- &#45;8&#45;&gt;9 -->
<g id="edge16" class="edge">
<title>&#45;8&#45;&gt;9</title>
<path fill="none" stroke="green" stroke-width="0.55" d="M357.41,-361.77C362.72,-352.08 371.59,-335.89 378.85,-322.64"/>
<polygon fill="green" stroke="green" stroke-width="0.55" points="381.86,-324.42 383.6,-313.97 375.73,-321.06 381.86,-324.42"/>
</g>
<!-- &#45;9 -->
<g id="node9" class="node">
<title>&#45;9</title>
<polygon fill="lightgray" stroke="black" points="406.5,-380.52 383,-380.52 383,-362.02 406.5,-362.02 406.5,-380.52"/>
<text text-anchor="middle" x="394.75" y="-367.97" font-family="Times,serif" font-size="9.00">&#45;9</text>
</g>
<!-- &#45;9&#45;&gt;9 -->
<g id="edge17" class="edge">
<title>&#45;9&#45;&gt;9</title>
<path fill="none" stroke="green" stroke-width="0.17" d="M394.26,-361.77C393.73,-352.61 392.87,-337.64 392.13,-324.83"/>
<polygon fill="green" stroke="green" stroke-width="0.17" points="395.63,-324.81 391.56,-315.03 388.65,-325.21 395.63,-324.81"/>
</g>
<!-- &#45;10 -->
<g id="node10" class="node">
<title>&#45;10</title>
<polygon fill="lightgray" stroke="black" points="586.75,-380.52 558.75,-380.52 558.75,-362.02 586.75,-362.02 586.75,-380.52"/>
<text text-anchor="middle" x="572.75" y="-367.97" font-family="Times,serif" font-size="9.00">&#45;10</text>
</g>
<!-- &#45;11 -->
<g id="node11" class="node">
<title>&#45;11</title>
<polygon fill="lightgray" stroke="black" points="452.75,-380.52 424.75,-380.52 424.75,-362.02 452.75,-362.02 452.75,-380.52"/>
<text text-anchor="middle" x="438.75" y="-367.97" font-family="Times,serif" font-size="9.00">&#45;11</text>
</g>
<!-- &#45;11&#45;&gt;9 -->
<g id="edge31" class="edge">
<title>&#45;11&#45;&gt;9</title>
<path fill="none" stroke="green" stroke-width="0.3" d="M432.86,-361.77C425.8,-351.56 413.73,-334.12 404.32,-320.52"/>
<polygon fill="green" stroke="green" stroke-width="0.3" points="407.43,-318.86 398.86,-312.63 401.67,-322.85 407.43,-318.86"/>
</g>
<!-- &#45;12 -->
<g id="node12" class="node">
<title>&#45;12</title>
<polygon fill="lightgray" stroke="black" points="322.75,-380.52 294.75,-380.52 294.75,-362.02 322.75,-362.02 322.75,-380.52"/>
<text text-anchor="middle" x="308.75" y="-367.97" font-family="Times,serif" font-size="9.00">&#45;12</text>
</g>
<!-- &#45;12&#45;&gt;9 -->
<g id="edge3" class="edge">
<title>&#45;12&#45;&gt;9</title>
<path fill="none" stroke="red" stroke-width="0.22" d="M318.8,-361.77C332.11,-350.52 355.81,-330.47 372.36,-316.47"/>
<polygon fill="red" stroke="red" stroke-width="0.22" points="374.2,-319.5 379.58,-310.37 369.68,-314.15 374.2,-319.5"/>
</g>
<!-- &#45;13 -->
<g id="node13" class="node">
<title>&#45;13</title>
<polygon fill="lightgray" stroke="black" points="111.75,-380.52 83.75,-380.52 83.75,-362.02 111.75,-362.02 111.75,-380.52"/>
<text text-anchor="middle" x="97.75" y="-367.97" font-family="Times,serif" font-size="9.00">&#45;13</text>
</g>
<!-- &#45;13&#45;&gt;9 -->
<g id="edge27" class="edge">
<title>&#45;13&#45;&gt;9</title>
<path fill="none" stroke="green" stroke-width="0.2" d="M111.88,-366.93C158.48,-355.9 307.64,-320.59 366.52,-306.65"/>
<polygon fill="green" stroke="green" stroke-width="0.2" points="367.2,-310.09 376.12,-304.38 365.59,-303.28 367.2,-310.09"/>
</g>
<!-- &#45;13&#45;&gt;10 -->
<g id="edge6" class="edge">
<title>&#45;13&#45;&gt;10</title>
<path fill="none" stroke="red" stroke-width="0.1" d="M93.7,-361.8C78.92,-329.55 31.17,-212.49 77.75,-136.35 94.07,-109.66 128.66,-95.95 153.25,-89.3"/>
<polygon fill="red" stroke="red" stroke-width="0.1" points="154.07,-92.7 162.94,-86.9 152.39,-85.91 154.07,-92.7"/>
</g>
<!-- &#45;14 -->
<g id="node14" class="node">
<title>&#45;14</title>
<polygon fill="lightgray" stroke="black" points="114.75,-166.46 86.75,-166.46 86.75,-147.96 114.75,-147.96 114.75,-166.46"/>
<text text-anchor="middle" x="100.75" y="-153.91" font-family="Times,serif" font-size="9.00">&#45;14</text>
</g>
<!-- &#45;14&#45;&gt;10 -->
<g id="edge25" class="edge">
<title>&#45;14&#45;&gt;10</title>
<path fill="none" stroke="red" stroke-width="0.32" d="M110.24,-147.6C122.55,-136.44 144.34,-116.68 160.45,-102.07"/>
<polygon fill="red" stroke="red" stroke-width="0.32" points="162.42,-105.01 167.48,-95.7 157.72,-99.83 162.42,-105.01"/>
</g>
<!-- &#45;15 -->
<g id="node15" class="node">
<title>&#45;15</title>
<polygon fill="lightgray" stroke="black" points="540.75,-380.52 512.75,-380.52 512.75,-362.02 540.75,-362.02 540.75,-380.52"/>
<text text-anchor="middle" x="526.75" y="-367.97" font-family="Times,serif" font-size="9.00">&#45;15</text>
</g>
<!-- &#45;15&#45;&gt;9 -->
<g id="edge12" class="edge">
<title>&#45;15&#45;&gt;9</title>
<path fill="none" stroke="green" stroke-width="0.52" stroke-dasharray="1,5" d="M512.73,-361.83C509.79,-360.12 506.68,-358.36 503.75,-356.78 472.85,-340.1 436.3,-322.39 413.32,-311.49"/>
<polygon fill="green" stroke="green" stroke-width="0.52" points="415.03,-308.43 404.5,-307.32 412.05,-314.76 415.03,-308.43"/>
</g>
<!-- &#45;15&#45;&gt;12 -->
<g id="edge14" class="edge">
<title>&#45;15&#45;&gt;12</title>
<path fill="none" stroke="red" stroke-width="0.38" d="M528.55,-361.68C535.06,-328 553.99,-203.52 493.75,-136.35 463.39,-102.49 409.51,-90.37 376.67,-86.05"/>
<polygon fill="red" stroke="red" stroke-width="0.38" points="377.31,-82.6 366.98,-84.93 376.51,-89.55 377.31,-82.6"/>
</g>
<!-- &#45;16 -->
<g id="node16" class="node">
<title>&#45;16</title>
<polygon fill="lightgray" stroke="black" points="276.75,-380.52 248.75,-380.52 248.75,-362.02 276.75,-362.02 276.75,-380.52"/>
<text text-anchor="middle" x="262.75" y="-367.97" font-family="Times,serif" font-size="9.00">&#45;16</text>
</g>
<!-- &#45;16&#45;&gt;9 -->
<g id="edge29" class="edge">
<title>&#45;16&#45;&gt;9</title>
<path fill="none" stroke="green" stroke-width="0.34" stroke-dasharray="1,5" d="M276.74,-361.78C279.69,-360.07 282.8,-358.33 285.75,-356.78 319.19,-339.2 330.1,-339.78 362.75,-320.78 365.54,-319.15 368.41,-317.32 371.2,-315.45"/>
<polygon fill="green" stroke="green" stroke-width="0.34" points="373.03,-318.43 379.19,-309.81 369,-312.71 373.03,-318.43"/>
</g>
<!-- &#45;16&#45;&gt;10 -->
<g id="edge22" class="edge">
<title>&#45;16&#45;&gt;10</title>
<path fill="none" stroke="green" stroke-width="0.17" stroke-dasharray="1,5" d="M259.49,-361.57C249.48,-334.63 218.72,-250.05 199.75,-178.07 193.81,-155.53 188.71,-129.54 185.29,-110.55"/>
<polygon fill="green" stroke="green" stroke-width="0.17" points="188.75,-110.01 183.57,-100.77 181.85,-111.23 188.75,-110.01"/>
</g>
<!-- &#45;16&#45;&gt;12 -->
<g id="edge1" class="edge">
<title>&#45;16&#45;&gt;12</title>
<path fill="none" stroke="green" stroke-width="0.12" d="M266.26,-361.59C277.01,-334.72 309.98,-250.33 329.75,-178.07 335.93,-155.48 341.03,-129.35 344.39,-110.32"/>
<polygon fill="green" stroke="green" stroke-width="0.12" points="347.8,-111.17 346.04,-100.72 340.9,-109.98 347.8,-111.17"/>
</g>
<!-- &#45;17 -->
<g id="node17" class="node">
<title>&#45;17</title>
<polygon fill="lightgray" stroke="black" points="236.75,-166.46 208.75,-166.46 208.75,-147.96 236.75,-147.96 236.75,-166.46"/>
<text text-anchor="middle" x="222.75" y="-153.91" font-family="Times,serif" font-size="9.00">&#45;17</text>
</g>
<!-- &#45;17&#45;&gt;10 -->
<g id="edge30" class="edge">
<title>&#45;17&#45;&gt;10</title>
<path fill="none" stroke="red" stroke-width="0.48" d="M217.77,-147.6C212.08,-137.78 202.54,-121.31 194.57,-107.54"/>
<polygon fill="red" stroke="red" stroke-width="0.48" points="197.77,-106.08 189.73,-99.18 191.71,-109.59 197.77,-106.08"/>
</g>
<!-- &#45;17&#45;&gt;12 -->
<g id="edge5" class="edge">
<title>&#45;17&#45;&gt;12</title>
<path fill="none" stroke="red" stroke-width="0.33" d="M231.74,-147.56C235.83,-143.86 240.85,-139.65 245.75,-136.35 270.78,-119.5 301.9,-104.29 323.34,-94.59"/>
<polygon fill="red" stroke="red" stroke-width="0.33" points="324.57,-97.88 332.28,-90.62 321.72,-91.48 324.57,-97.88"/>
</g>
<!-- &#45;18 -->
<g id="node18" class="node">
<title>&#45;18</title>
<polygon fill="lightgray" stroke="black" points="30.75,-166.46 2.75,-166.46 2.75,-147.96 30.75,-147.96 30.75,-166.46"/>
<text text-anchor="middle" x="16.75" y="-153.91" font-family="Times,serif" font-size="9.00">&#45;18</text>
</g>
<!-- &#45;18&#45;&gt;10 -->
<g id="edge21" class="edge">
<title>&#45;18&#45;&gt;10</title>
<path fill="none" stroke="green" stroke-width="0.24" d="M27.51,-147.62C32.56,-143.85 38.77,-139.56 44.75,-136.35 80.94,-116.89 125.89,-100.94 153.96,-91.86"/>
<polygon fill="green" stroke="green" stroke-width="0.24" points="155.01,-95.2 163.48,-88.84 152.89,-88.53 155.01,-95.2"/>
</g>
<!-- &#45;19 -->
<g id="node19" class="node">
<title>&#45;19</title>
<polygon fill="lightgray" stroke="black" points="632.75,-380.52 604.75,-380.52 604.75,-362.02 632.75,-362.02 632.75,-380.52"/>
<text text-anchor="middle" x="618.75" y="-367.97" font-family="Times,serif" font-size="9.00">&#45;19</text>
</g>
<!-- &#45;20 -->
<g id="node20" class="node">
<title>&#45;20</title>
<polygon fill="lightgray" stroke="black" points="678.75,-380.52 650.75,-380.52 650.75,-362.02 678.75,-362.02 678.75,-380.52"/>
<text text-anchor="middle" x="664.75" y="-367.97" font-family="Times,serif" font-size="9.00">&#45;20</text>
</g>
<!-- 0 -->
<g id="node21" class="node">
<title>0</title>
<ellipse fill="lightblue" stroke="black" cx="710.75" cy="-371.27" rx="14.5" ry="14.5"/>
<text text-anchor="middle" x="710.75" y="-367.97" font-family="Times,serif" font-size="9.00">0</text>
</g>
<!-- 0&#45;&gt;0 -->
<g id="edge19" class="edge">
<title>0&#45;&gt;0</title>
<path fill="none" stroke="green" stroke-width="0.36" stroke-dasharray="1,5" d="M721.07,-381.71C731.56,-387.85 743.25,-384.37 743.25,-371.27 743.25,-362.27 737.72,-357.81 730.86,-357.89"/>
<polygon fill="green" stroke="green" stroke-width="0.36" points="730.16,-354.45 721.58,-360.68 732.17,-361.16 730.16,-354.45"/>
</g>
<!-- 280 -->
<g id="node30" class="node">
<title>280</title>
<ellipse fill="white" stroke="black" cx="710.75" cy="-299.92" rx="20.86" ry="20.86"/>
<text text-anchor="middle" x="710.75" y="-296.62" font-family="Times,serif" font-size="9.00">280</text>
</g>
<!-- 0&#45;&gt;280 -->
<g id="edge32" class="edge">
<title>0&#45;&gt;280</title>
<path fill="none" stroke="red" stroke-width="0.47" d="M705.39,-357.55C704.28,-350.07 703.84,-340.29 704.05,-330.95"/>
<polygon fill="red" stroke="red" stroke-width="0.47" points="707.54,-331.26 704.58,-321.08 700.55,-330.89 707.54,-331.26"/>
</g>
<!-- 1 -->
<g id="node22" class="node">
<title>1</title>
<ellipse fill="lightblue" stroke="black" cx="297.75" cy="-14.5" rx="14.5" ry="14.5"/>
<text text-anchor="middle" x="297.75" y="-11.2" font-family="Times,serif" font-size="9.00">1</text>
</g>
<!-- 2 -->
<g id="node23" class="node">
<title>2</title>
<ellipse fill="lightblue" stroke="black" cx="415.75" cy="-228.56" rx="14.5" ry="14.5"/>
<text text-anchor="middle" x="415.75" y="-225.26" font-family="Times,serif" font-size="9.00">2</text>
</g>
<!-- 323 -->
<g id="node26" class="node">
<title>323</title>
<ellipse fill="white" stroke="black" cx="439.75" cy="-157.21" rx="20.86" ry="20.86"/>
<text text-anchor="middle" x="439.75" y="-153.91" font-family="Times,serif" font-size="9.00">323</text>
</g>
<!-- 2&#45;&gt;323 -->
<g id="edge36" class="edge">
<title>2&#45;&gt;323</title>
<path fill="none" stroke="green" stroke-width="0.51" d="M420.26,-214.52C422.92,-206.85 426.38,-196.84 429.65,-187.38"/>
<polygon fill="green" stroke="green" stroke-width="0.51" points="432.86,-188.82 432.82,-178.22 426.25,-186.53 432.86,-188.82"/>
</g>
<!-- 4 -->
<g id="node25" class="node">
<title>4</title>
<ellipse fill="lightblue" stroke="black" cx="180.75" cy="-14.5" rx="14.5" ry="14.5"/>
<text text-anchor="middle" x="180.75" y="-11.2" font-family="Times,serif" font-size="9.00">4</text>
</g>
<!-- 4&#45;&gt;4 -->
<g id="edge26" class="edge">
<title>4&#45;&gt;4</title>
<path fill="none" stroke="red" stroke-width="0.45" d="M191.4,-24.65C201.81,-30.26 213.25,-26.88 213.25,-14.5 213.25,-6.18 208.08,-1.92 201.54,-1.72"/>
<polygon fill="red" stroke="red" stroke-width="0.45" points="200.86,1.72 192.06,-4.17 202.61,-5.06 200.86,1.72"/>
</g>
<!-- 323&#45;&gt;12 -->
<g id="edge35" class="edge">
<title>323&#45;&gt;12</title>
<path fill="none" stroke="red" stroke-width="0.14" d="M423.9,-143.57C408.93,-131.64 386.39,-113.67 369.89,-100.52"/>
<polygon fill="red" stroke="red" stroke-width="0.14" points="372.51,-98.13 362.5,-94.63 368.14,-103.6 372.51,-98.13"/>
</g>
<!-- 9&#45;&gt;2 -->
<g id="edge13" class="edge">
<title>9&#45;&gt;2</title>
<path fill="none" stroke="red" stroke-width="0.1" d="M395.45,-285.87C398.91,-276.28 403.69,-263.02 407.75,-251.77"/>
<polygon fill="red" stroke="red" stroke-width="0.1" points="410.92,-253.29 411.02,-242.69 404.33,-250.91 410.92,-253.29"/>
</g>
<!-- 9&#45;&gt;3 -->
<g id="edge11" class="edge">
<title>9&#45;&gt;3</title>
<path fill="none" stroke="red" stroke-width="0.2" stroke-dasharray="1,5" d="M378.77,-291.76C359.15,-280.02 319.91,-256.56 295.63,-242.05"/>
<polygon fill="red" stroke="red" stroke-width="0.2" points="297.48,-239.07 287.1,-236.95 293.89,-245.08 297.48,-239.07"/>
</g>
<!-- 10&#45;&gt;1 -->
<g id="edge8" class="edge">
<title>10&#45;&gt;1</title>
<path fill="none" stroke="green" stroke-width="0.59" d="M196.05,-73.02C216.44,-61.48 252.67,-40.99 275.93,-27.84"/>
<polygon fill="green" stroke="green" stroke-width="0.59" points="277.55,-30.94 284.53,-22.97 274.11,-24.85 277.55,-30.94"/>
</g>
<!-- 10&#45;&gt;4 -->
<g id="edge2" class="edge">
<title>10&#45;&gt;4</title>
<path fill="none" stroke="red" stroke-width="0.21" d="M180.75,-64.63C180.75,-56.96 180.75,-47.77 180.75,-39.43"/>
<polygon fill="red" stroke="red" stroke-width="0.21" points="184.25,-39.47 180.75,-29.47 177.25,-39.47 184.25,-39.47"/>
</g>
<!-- 12&#45;&gt;1 -->
<g id="edge7" class="edge">
<title>12&#45;&gt;1</title>
<path fill="none" stroke="green" stroke-width="0.11" d="M338.18,-67.96C330.72,-58.28 320.63,-45.19 312.4,-34.5"/>
<polygon fill="green" stroke="green" stroke-width="0.11" points="315.25,-32.47 306.38,-26.69 309.71,-36.74 315.25,-32.47"/>
</g>
<!-- 280&#45;&gt;0 -->
<g id="edge33" class="edge">
<title>280&#45;&gt;0</title>
<path fill="none" stroke="red" stroke-width="0.13" d="M716.89,-320.37C717.61,-328.83 717.69,-338.8 717.13,-347.59"/>
<polygon fill="red" stroke="red" stroke-width="0.13" points="713.66,-347.05 716.13,-357.35 720.63,-347.76 713.66,-347.05"/>
</g>
</g>
</svg>
