<?xml version="1.0" encoding="UTF-8" standalone="no"?>
<!DOCTYPE svg PUBLIC "-//W3C//DTD SVG 1.1//EN"
 "http://www.w3.org/Graphics/SVG/1.1/DTD/svg11.dtd">
<!-- Generated by graphviz version 12.1.1 (20240910.0053)
 -->
<!-- Pages: 1 -->
<svg width="1086pt" height="247pt"
 viewBox="0.00 0.00 1085.96 246.93" xmlns="http://www.w3.org/2000/svg" xmlns:xlink="http://www.w3.org/1999/xlink">
<g id="graph0" class="graph" transform="scale(1 1) rotate(0) translate(4 242.93)">
<polygon fill="white" stroke="none" points="-4,4 -4,-242.93 1081.96,-242.93 1081.96,4 -4,4"/>
<!-- &#45;1 -->
<g id="node1" class="node">
<title>&#45;1</title>
<polygon fill="lightgray" stroke="black" points="1031.71,-172.82 1008.21,-172.82 1008.21,-154.32 1031.71,-154.32 1031.71,-172.82"/>
<text text-anchor="middle" x="1019.96" y="-160.27" font-family="Times,serif" font-size="9.00">&#45;1</text>
</g>
<!-- 198 -->
<g id="node27" class="node">
<title>198</title>
<ellipse fill="white" stroke="black" cx="949.96" cy="-85.85" rx="20.86" ry="20.86"/>
<text text-anchor="middle" x="949.96" y="-82.55" font-family="Times,serif" font-size="9.00">198</text>
</g>
<!-- &#45;1&#45;&gt;198 -->
<g id="edge11" class="edge">
<title>&#45;1&#45;&gt;198</title>
<path fill="none" stroke="red" stroke-width="0.32" d="M1011.93,-153.88C1001.96,-143.1 984.58,-124.3 970.76,-109.35"/>
<polygon fill="red" stroke="red" stroke-width="0.32" points="973.6,-107.27 964.24,-102.3 968.46,-112.02 973.6,-107.27"/>
</g>
<!-- &#45;2 -->
<g id="node2" class="node">
<title>&#45;2</title>
<polygon fill="lightgray" stroke="black" points="621.71,-172.82 598.21,-172.82 598.21,-154.32 621.71,-154.32 621.71,-172.82"/>
<text text-anchor="middle" x="609.96" y="-160.27" font-family="Times,serif" font-size="9.00">&#45;2</text>
</g>
<!-- 197 -->
<g id="node26" class="node">
<title>197</title>
<ellipse fill="white" stroke="black" cx="317.96" cy="-85.85" rx="20.86" ry="20.86"/>
<text text-anchor="middle" x="317.96" y="-82.55" font-family="Times,serif" font-size="9.00">197</text>
</g>
<!-- &#45;2&#45;&gt;197 -->
<g id="edge19" class="edge">
<title>&#45;2&#45;&gt;197</title>
<path fill="none" stroke="green" stroke-width="0.68" d="M603,-154.07C599.25,-150.03 594.3,-145.49 588.96,-142.71 547.35,-121.03 411.45,-99.91 349.39,-91.12"/>
<polygon fill="green" stroke="green" stroke-width="0.68" points="350.11,-87.69 339.72,-89.77 349.14,-94.62 350.11,-87.69"/>
</g>
<!-- &#45;2&#45;&gt;198 -->
<g id="edge5" class="edge">
<title>&#45;2&#45;&gt;198</title>
<path fill="none" stroke="green" stroke-width="0.27" d="M616.83,-153.89C620.56,-149.8 625.51,-145.28 630.96,-142.71 748.03,-87.49 798.56,-151.62 919.96,-106.71 921.61,-106.1 923.26,-105.38 924.89,-104.59"/>
<polygon fill="green" stroke="green" stroke-width="0.27" points="926.59,-107.65 933.52,-99.64 923.11,-101.58 926.59,-107.65"/>
</g>
<!-- 199 -->
<g id="node28" class="node">
<title>199</title>
<ellipse fill="white" stroke="black" cx="729.96" cy="-85.85" rx="20.86" ry="20.86"/>
<text text-anchor="middle" x="729.96" y="-82.55" font-family="Times,serif" font-size="9.00">199</text>
</g>
<!-- &#45;2&#45;&gt;199 -->
<g id="edge23" class="edge">
<title>&#45;2&#45;&gt;199</title>
<path fill="none" stroke="red" stroke-width="0.15" d="M618.12,-153.96C621.85,-150.27 626.44,-146.05 630.96,-142.71 653.58,-126.02 681.68,-110.61 702.15,-100.22"/>
<polygon fill="red" stroke="red" stroke-width="0.15" points="703.67,-103.38 711.05,-95.78 700.54,-97.12 703.67,-103.38"/>
</g>
<!-- 200 -->
<g id="node29" class="node">
<title>200</title>
<ellipse fill="white" stroke="black" cx="477.96" cy="-85.85" rx="20.86" ry="20.86"/>
<text text-anchor="middle" x="477.96" y="-82.55" font-family="Times,serif" font-size="9.00">200</text>
</g>
<!-- &#45;2&#45;&gt;200 -->
<g id="edge35" class="edge">
<title>&#45;2&#45;&gt;200</title>
<path fill="none" stroke="green" stroke-width="0.21" d="M601.87,-153.85C598.15,-150.14 593.56,-145.94 588.96,-142.71 562.85,-124.39 529.86,-108.59 506.66,-98.52"/>
<polygon fill="green" stroke="green" stroke-width="0.21" points="508.22,-95.38 497.65,-94.69 505.48,-101.82 508.22,-95.38"/>
</g>
<!-- &#45;3 -->
<g id="node3" class="node">
<title>&#45;3</title>
<polygon fill="lightgray" stroke="black" points="761.71,-172.82 738.21,-172.82 738.21,-154.32 761.71,-154.32 761.71,-172.82"/>
<text text-anchor="middle" x="749.96" y="-160.27" font-family="Times,serif" font-size="9.00">&#45;3</text>
</g>
<!-- &#45;3&#45;&gt;197 -->
<g id="edge31" class="edge">
<title>&#45;3&#45;&gt;197</title>
<path fill="none" stroke="red" stroke-width="0.17" stroke-dasharray="1,5" d="M737.94,-157.82C726.15,-153.33 707.56,-146.7 690.96,-142.71 584.8,-117.2 555.92,-122.95 447.96,-106.71 414.03,-101.61 375.13,-95.65 348.79,-91.6"/>
<polygon fill="red" stroke="red" stroke-width="0.17" points="349.33,-88.14 338.92,-90.08 348.27,-95.06 349.33,-88.14"/>
</g>
<!-- &#45;3&#45;&gt;198 -->
<g id="edge29" class="edge">
<title>&#45;3&#45;&gt;198</title>
<path fill="none" stroke="green" stroke-width="0.81" d="M762.15,-158.42C774.07,-154.38 792.75,-148.07 808.96,-142.71 858.2,-126.44 873.24,-129.23 919.96,-106.71 921.23,-106.1 922.5,-105.44 923.77,-104.75"/>
<polygon fill="green" stroke="green" stroke-width="0.81" points="925.48,-107.81 932.25,-99.66 921.87,-101.81 925.48,-107.81"/>
</g>
<!-- &#45;3&#45;&gt;199 -->
<g id="edge26" class="edge">
<title>&#45;3&#45;&gt;199</title>
<path fill="none" stroke="green" stroke-width="0.11" stroke-dasharray="1,5" d="M747.67,-153.88C745.22,-144.63 741.22,-129.48 737.64,-115.92"/>
<polygon fill="green" stroke="green" stroke-width="0.11" points="741.11,-115.38 735.18,-106.6 734.35,-117.16 741.11,-115.38"/>
</g>
<!-- &#45;4 -->
<g id="node4" class="node">
<title>&#45;4</title>
<polygon fill="lightgray" stroke="black" points="845.71,-238.93 822.21,-238.93 822.21,-220.43 845.71,-220.43 845.71,-238.93"/>
<text text-anchor="middle" x="833.96" y="-226.38" font-family="Times,serif" font-size="9.00">&#45;4</text>
</g>
<!-- &#45;5 -->
<g id="node5" class="node">
<title>&#45;5</title>
<polygon fill="lightgray" stroke="black" points="533.71,-172.82 510.21,-172.82 510.21,-154.32 533.71,-154.32 533.71,-172.82"/>
<text text-anchor="middle" x="521.96" y="-160.27" font-family="Times,serif" font-size="9.00">&#45;5</text>
</g>
<!-- &#45;5&#45;&gt;197 -->
<g id="edge17" class="edge">
<title>&#45;5&#45;&gt;197</title>
<path fill="none" stroke="green" stroke-width="0.29" stroke-dasharray="1,5" d="M514.5,-153.87C510.77,-149.99 505.99,-145.64 500.96,-142.71 451.75,-114.08 386.41,-98.75 348.59,-91.74"/>
<polygon fill="green" stroke="green" stroke-width="0.29" points="349.58,-88.36 339.12,-90.06 348.35,-95.25 349.58,-88.36"/>
</g>
<!-- &#45;5&#45;&gt;199 -->
<g id="edge15" class="edge">
<title>&#45;5&#45;&gt;199</title>
<path fill="none" stroke="red" stroke-width="0.17" stroke-dasharray="1,5" d="M529.41,-153.86C533.13,-149.97 537.92,-145.62 542.96,-142.71 593.38,-113.58 660.37,-98.39 698.97,-91.55"/>
<polygon fill="red" stroke="red" stroke-width="0.17" points="699.54,-95 708.81,-89.88 698.37,-88.1 699.54,-95"/>
</g>
<!-- &#45;5&#45;&gt;200 -->
<g id="edge21" class="edge">
<title>&#45;5&#45;&gt;200</title>
<path fill="none" stroke="red" stroke-width="0.55" d="M516.91,-153.88C511.23,-144.1 501.71,-127.72 493.5,-113.6"/>
<polygon fill="red" stroke="red" stroke-width="0.55" points="496.57,-111.91 488.52,-105.02 490.51,-115.42 496.57,-111.91"/>
</g>
<!-- &#45;6 -->
<g id="node6" class="node">
<title>&#45;6</title>
<polygon fill="lightgray" stroke="black" points="792.71,-95.1 769.21,-95.1 769.21,-76.6 792.71,-76.6 792.71,-95.1"/>
<text text-anchor="middle" x="780.96" y="-82.55" font-family="Times,serif" font-size="9.00">&#45;6</text>
</g>
<!-- 1 -->
<g id="node22" class="node">
<title>1</title>
<ellipse fill="lightblue" stroke="black" cx="754.96" cy="-14.5" rx="14.5" ry="14.5"/>
<text text-anchor="middle" x="754.96" y="-11.2" font-family="Times,serif" font-size="9.00">1</text>
</g>
<!-- &#45;6&#45;&gt;1 -->
<g id="edge42" class="edge">
<title>&#45;6&#45;&gt;1</title>
<path fill="none" stroke="green" stroke-width="0.25" d="M777.77,-76.35C774.21,-66.83 768.28,-51.04 763.37,-37.93"/>
<polygon fill="green" stroke="green" stroke-width="0.25" points="766.78,-37.06 759.99,-28.92 760.22,-39.51 766.78,-37.06"/>
</g>
<!-- &#45;7 -->
<g id="node7" class="node">
<title>&#45;7</title>
<polygon fill="lightgray" stroke="black" points="289.71,-172.82 266.21,-172.82 266.21,-154.32 289.71,-154.32 289.71,-172.82"/>
<text text-anchor="middle" x="277.96" y="-160.27" font-family="Times,serif" font-size="9.00">&#45;7</text>
</g>
<!-- &#45;7&#45;&gt;197 -->
<g id="edge1" class="edge">
<title>&#45;7&#45;&gt;197</title>
<path fill="none" stroke="red" stroke-width="0.17" stroke-dasharray="1,5" d="M282.55,-153.88C287.7,-144.13 296.31,-127.83 303.75,-113.75"/>
<polygon fill="red" stroke="red" stroke-width="0.17" points="306.73,-115.6 308.31,-105.12 300.54,-112.33 306.73,-115.6"/>
</g>
<!-- &#45;8 -->
<g id="node8" class="node">
<title>&#45;8</title>
<polygon fill="lightgray" stroke="black" points="407.71,-172.82 384.21,-172.82 384.21,-154.32 407.71,-154.32 407.71,-172.82"/>
<text text-anchor="middle" x="395.96" y="-160.27" font-family="Times,serif" font-size="9.00">&#45;8</text>
</g>
<!-- &#45;8&#45;&gt;197 -->
<g id="edge45" class="edge">
<title>&#45;8&#45;&gt;197</title>
<path fill="none" stroke="red" stroke-width="0.11" stroke-dasharray="1,5" d="M387.01,-153.88C375.59,-142.8 355.46,-123.25 339.87,-108.12"/>
<polygon fill="red" stroke="red" stroke-width="0.11" points="342.37,-105.67 332.76,-101.22 337.5,-110.69 342.37,-105.67"/>
</g>
<!-- &#45;8&#45;&gt;200 -->
<g id="edge6" class="edge">
<title>&#45;8&#45;&gt;200</title>
<path fill="none" stroke="green" stroke-width="0.42" d="M405.37,-153.88C417.44,-142.73 438.79,-123.02 455.22,-107.85"/>
<polygon fill="green" stroke="green" stroke-width="0.42" points="457.39,-110.61 462.36,-101.25 452.64,-105.46 457.39,-110.61"/>
</g>
<!-- &#45;9 -->
<g id="node9" class="node">
<title>&#45;9</title>
<polygon fill="lightgray" stroke="black" points="325.71,-238.93 302.21,-238.93 302.21,-220.43 325.71,-220.43 325.71,-238.93"/>
<text text-anchor="middle" x="313.96" y="-226.38" font-family="Times,serif" font-size="9.00">&#45;9</text>
</g>
<!-- &#45;9&#45;&gt;197 -->
<g id="edge32" class="edge">
<title>&#45;9&#45;&gt;197</title>
<path fill="none" stroke="red" stroke-width="0.16" stroke-dasharray="1,5" d="M301.72,-227.62C279.18,-224.92 231.52,-215.64 210.96,-184.43 200.76,-168.95 201.35,-158.57 210.96,-142.71 227.55,-115.34 262.43,-100.75 287.87,-93.43"/>
<polygon fill="red" stroke="red" stroke-width="0.16" points="288.43,-96.9 297.19,-90.95 286.63,-90.13 288.43,-96.9"/>
</g>
<!-- &#45;9&#45;&gt;198 -->
<g id="edge24" class="edge">
<title>&#45;9&#45;&gt;198</title>
<path fill="none" stroke="red" stroke-width="0.26" stroke-dasharray="1,5" d="M326.13,-228.32C413.17,-225.65 938.41,-208.58 960.96,-184.43 978.21,-165.95 971.79,-136.14 963.33,-114.33"/>
<polygon fill="red" stroke="red" stroke-width="0.26" points="966.63,-113.16 959.53,-105.3 960.18,-115.87 966.63,-113.16"/>
</g>
<!-- &#45;9&#45;&gt;200 -->
<g id="edge14" class="edge">
<title>&#45;9&#45;&gt;200</title>
<path fill="none" stroke="red" stroke-width="0.2" d="M326.02,-226.01C346.66,-220.95 389.19,-208.25 416.96,-184.43 439.05,-165.48 455.76,-136.5 466.05,-115.04"/>
<polygon fill="red" stroke="red" stroke-width="0.2" points="469.19,-116.59 470.2,-106.04 462.83,-113.65 469.19,-116.59"/>
</g>
<!-- 719 -->
<g id="node31" class="node">
<title>719</title>
<ellipse fill="white" stroke="black" cx="142.96" cy="-163.57" rx="20.86" ry="20.86"/>
<text text-anchor="middle" x="142.96" y="-160.27" font-family="Times,serif" font-size="9.00">719</text>
</g>
<!-- &#45;9&#45;&gt;719 -->
<g id="edge48" class="edge">
<title>&#45;9&#45;&gt;719</title>
<path fill="none" stroke="green" stroke-width="0.45" d="M302.02,-225.67C277.98,-219.41 222.26,-203.97 177.96,-184.43 175.2,-183.21 172.38,-181.84 169.6,-180.41"/>
<polygon fill="green" stroke="green" stroke-width="0.45" points="171.46,-177.44 161,-175.71 168.1,-183.58 171.46,-177.44"/>
</g>
<!-- &#45;10 -->
<g id="node10" class="node">
<title>&#45;10</title>
<polygon fill="lightgray" stroke="black" points="491.96,-172.82 463.96,-172.82 463.96,-154.32 491.96,-154.32 491.96,-172.82"/>
<text text-anchor="middle" x="477.96" y="-160.27" font-family="Times,serif" font-size="9.00">&#45;10</text>
</g>
<!-- &#45;10&#45;&gt;200 -->
<g id="edge22" class="edge">
<title>&#45;10&#45;&gt;200</title>
<path fill="none" stroke="green" stroke-width="0.21" d="M477.96,-153.88C477.96,-144.93 477.96,-130.46 477.96,-117.26"/>
<polygon fill="green" stroke="green" stroke-width="0.21" points="481.46,-117.37 477.96,-107.37 474.46,-117.37 481.46,-117.37"/>
</g>
<!-- &#45;11 -->
<g id="node11" class="node">
<title>&#45;11</title>
<polygon fill="lightgray" stroke="black" points="803.96,-238.93 775.96,-238.93 775.96,-220.43 803.96,-220.43 803.96,-238.93"/>
<text text-anchor="middle" x="789.96" y="-226.38" font-family="Times,serif" font-size="9.00">&#45;11</text>
</g>
<!-- &#45;11&#45;&gt;197 -->
<g id="edge16" class="edge">
<title>&#45;11&#45;&gt;197</title>
<path fill="none" stroke="red" stroke-width="0.74" stroke-dasharray="1,5" d="M775.85,-227.53C705.17,-221.75 392.22,-195.6 374.96,-184.43 362,-176.05 343.44,-141.12 331.06,-115.43"/>
<polygon fill="red" stroke="red" stroke-width="0.74" points="334.25,-113.99 326.81,-106.45 327.92,-116.98 334.25,-113.99"/>
</g>
<!-- &#45;11&#45;&gt;199 -->
<g id="edge9" class="edge">
<title>&#45;11&#45;&gt;199</title>
<path fill="none" stroke="red" stroke-width="0.22" stroke-dasharray="1,5" d="M789.24,-220.01C787.65,-204.07 783.01,-169.3 770.96,-142.71 765.66,-131.01 757.65,-119.36 750.12,-109.75"/>
<polygon fill="red" stroke="red" stroke-width="0.22" points="752.94,-107.67 743.9,-102.13 747.51,-112.09 752.94,-107.67"/>
</g>
<!-- 700 -->
<g id="node33" class="node">
<title>700</title>
<ellipse fill="white" stroke="black" cx="838.96" cy="-163.57" rx="20.86" ry="20.86"/>
<text text-anchor="middle" x="838.96" y="-160.27" font-family="Times,serif" font-size="9.00">700</text>
</g>
<!-- &#45;11&#45;&gt;700 -->
<g id="edge46" class="edge">
<title>&#45;11&#45;&gt;700</title>
<path fill="none" stroke="green" stroke-width="0.26" d="M796.57,-220.03C802.69,-212.03 812.08,-199.73 820.47,-188.76"/>
<polygon fill="green" stroke="green" stroke-width="0.26" points="823.09,-191.09 826.38,-181.02 817.53,-186.84 823.09,-191.09"/>
</g>
<!-- &#45;12 -->
<g id="node12" class="node">
<title>&#45;12</title>
<polygon fill="lightgray" stroke="black" points="1077.96,-172.82 1049.96,-172.82 1049.96,-154.32 1077.96,-154.32 1077.96,-172.82"/>
<text text-anchor="middle" x="1063.96" y="-160.27" font-family="Times,serif" font-size="9.00">&#45;12</text>
</g>
<!-- &#45;12&#45;&gt;198 -->
<g id="edge7" class="edge">
<title>&#45;12&#45;&gt;198</title>
<path fill="none" stroke="red" stroke-width="0.62" stroke-dasharray="1,5" d="M1054.84,-154.1C1050.73,-150.44 1045.73,-146.2 1040.96,-142.71 1020.41,-127.68 995.72,-112.71 977.25,-102.05"/>
<polygon fill="red" stroke="red" stroke-width="0.62" points="979.18,-99.12 968.76,-97.21 975.72,-105.2 979.18,-99.12"/>
</g>
<!-- &#45;13 -->
<g id="node13" class="node">
<title>&#45;13</title>
<polygon fill="lightgray" stroke="black" points="951.96,-172.82 923.96,-172.82 923.96,-154.32 951.96,-154.32 951.96,-172.82"/>
<text text-anchor="middle" x="937.96" y="-160.27" font-family="Times,serif" font-size="9.00">&#45;13</text>
</g>
<!-- &#45;13&#45;&gt;198 -->
<g id="edge4" class="edge">
<title>&#45;13&#45;&gt;198</title>
<path fill="none" stroke="red" stroke-width="0.41" d="M939.34,-153.88C940.76,-144.87 943.08,-130.27 945.18,-116.98"/>
<polygon fill="red" stroke="red" stroke-width="0.41" points="948.6,-117.78 946.71,-107.35 941.69,-116.68 948.6,-117.78"/>
</g>
<!-- &#45;13&#45;&gt;199 -->
<g id="edge28" class="edge">
<title>&#45;13&#45;&gt;199</title>
<path fill="none" stroke="green" stroke-width="0.11" stroke-dasharray="1,5" d="M930.16,-154.14C926.01,-150.12 920.6,-145.58 914.96,-142.71 851.91,-110.67 824.92,-134.67 759.96,-106.71 758.38,-106.03 756.8,-105.27 755.22,-104.45"/>
<polygon fill="green" stroke="green" stroke-width="0.11" points="757.02,-101.45 746.63,-99.38 753.47,-107.48 757.02,-101.45"/>
</g>
<!-- &#45;14 -->
<g id="node14" class="node">
<title>&#45;14</title>
<polygon fill="lightgray" stroke="black" points="49.96,-238.93 21.96,-238.93 21.96,-220.43 49.96,-220.43 49.96,-238.93"/>
<text text-anchor="middle" x="35.96" y="-226.38" font-family="Times,serif" font-size="9.00">&#45;14</text>
</g>
<!-- &#45;14&#45;&gt;197 -->
<g id="edge8" class="edge">
<title>&#45;14&#45;&gt;197</title>
<path fill="none" stroke="red" stroke-width="0.14" d="M28.23,-220.12C14.12,-203.43 -12.65,-166.15 6.96,-142.71 42.44,-100.28 214.99,-90.04 286.65,-87.6"/>
<polygon fill="red" stroke="red" stroke-width="0.14" points="286.76,-91.1 296.65,-87.29 286.54,-84.1 286.76,-91.1"/>
</g>
<!-- 276 -->
<g id="node32" class="node">
<title>276</title>
<ellipse fill="white" stroke="black" cx="82.96" cy="-163.57" rx="20.86" ry="20.86"/>
<text text-anchor="middle" x="82.96" y="-160.27" font-family="Times,serif" font-size="9.00">276</text>
</g>
<!-- &#45;14&#45;&gt;276 -->
<g id="edge39" class="edge">
<title>&#45;14&#45;&gt;276</title>
<path fill="none" stroke="green" stroke-width="0.44" stroke-dasharray="1,5" d="M42.3,-220.03C48.07,-212.16 56.88,-200.14 64.83,-189.3"/>
<polygon fill="green" stroke="green" stroke-width="0.44" points="67.46,-191.64 70.55,-181.5 61.81,-187.5 67.46,-191.64"/>
</g>
<!-- &#45;15 -->
<g id="node15" class="node">
<title>&#45;15</title>
<polygon fill="lightgray" stroke="black" points="674.96,-238.93 646.96,-238.93 646.96,-220.43 674.96,-220.43 674.96,-238.93"/>
<text text-anchor="middle" x="660.96" y="-226.38" font-family="Times,serif" font-size="9.00">&#45;15</text>
</g>
<!-- &#45;15&#45;&gt;197 -->
<g id="edge37" class="edge">
<title>&#45;15&#45;&gt;197</title>
<path fill="none" stroke="red" stroke-width="0.2" d="M646.52,-228.74C590.4,-228.69 387.64,-225.62 341.96,-184.43 323.36,-167.66 318.08,-139.03 317.02,-117.1"/>
<polygon fill="red" stroke="red" stroke-width="0.2" points="320.52,-117.18 316.81,-107.26 313.52,-117.34 320.52,-117.18"/>
</g>
<!-- &#45;15&#45;&gt;199 -->
<g id="edge36" class="edge">
<title>&#45;15&#45;&gt;199</title>
<path fill="none" stroke="green" stroke-width="0.21" stroke-dasharray="1,5" d="M667.51,-220.21C674.02,-211.55 684,-197.55 690.96,-184.43 702.76,-162.2 713.17,-135.59 720.26,-115.78"/>
<polygon fill="green" stroke="green" stroke-width="0.21" points="723.54,-116.99 723.55,-106.4 716.94,-114.67 723.54,-116.99"/>
</g>
<!-- 581 -->
<g id="node30" class="node">
<title>581</title>
<ellipse fill="white" stroke="black" cx="660.96" cy="-163.57" rx="20.86" ry="20.86"/>
<text text-anchor="middle" x="660.96" y="-160.27" font-family="Times,serif" font-size="9.00">581</text>
</g>
<!-- &#45;15&#45;&gt;581 -->
<g id="edge43" class="edge">
<title>&#45;15&#45;&gt;581</title>
<path fill="none" stroke="green" stroke-width="0.3" d="M660.96,-220.03C660.96,-213.6 660.96,-204.39 660.96,-195.33"/>
<polygon fill="green" stroke="green" stroke-width="0.3" points="664.46,-195.38 660.96,-185.38 657.46,-195.38 664.46,-195.38"/>
</g>
<!-- &#45;16 -->
<g id="node16" class="node">
<title>&#45;16</title>
<polygon fill="lightgray" stroke="black" points="891.96,-238.93 863.96,-238.93 863.96,-220.43 891.96,-220.43 891.96,-238.93"/>
<text text-anchor="middle" x="877.96" y="-226.38" font-family="Times,serif" font-size="9.00">&#45;16</text>
</g>
<!-- &#45;17 -->
<g id="node17" class="node">
<title>&#45;17</title>
<polygon fill="lightgray" stroke="black" points="43.96,-172.82 15.96,-172.82 15.96,-154.32 43.96,-154.32 43.96,-172.82"/>
<text text-anchor="middle" x="29.96" y="-160.27" font-family="Times,serif" font-size="9.00">&#45;17</text>
</g>
<!-- &#45;17&#45;&gt;197 -->
<g id="edge10" class="edge">
<title>&#45;17&#45;&gt;197</title>
<path fill="none" stroke="red" stroke-width="0.36" stroke-dasharray="1,5" d="M37.73,-154.09C41.88,-150.06 47.29,-145.52 52.96,-142.71 131.07,-104.01 235.03,-92.07 286.43,-88.42"/>
<polygon fill="red" stroke="red" stroke-width="0.36" points="286.56,-91.92 296.32,-87.78 286.11,-84.94 286.56,-91.92"/>
</g>
<!-- &#45;18 -->
<g id="node18" class="node">
<title>&#45;18</title>
<polygon fill="lightgray" stroke="black" points="579.96,-172.82 551.96,-172.82 551.96,-154.32 579.96,-154.32 579.96,-172.82"/>
<text text-anchor="middle" x="565.96" y="-160.27" font-family="Times,serif" font-size="9.00">&#45;18</text>
</g>
<!-- &#45;18&#45;&gt;199 -->
<g id="edge2" class="edge">
<title>&#45;18&#45;&gt;199</title>
<path fill="none" stroke="red" stroke-width="0.21" stroke-dasharray="1,5" d="M574.38,-154.09C578.51,-150.26 583.73,-145.88 588.96,-142.71 624.82,-120.99 670.62,-104.68 700.12,-95.45"/>
<polygon fill="red" stroke="red" stroke-width="0.21" points="700.98,-98.85 709.52,-92.58 698.93,-92.15 700.98,-98.85"/>
</g>
<!-- &#45;18&#45;&gt;200 -->
<g id="edge38" class="edge">
<title>&#45;18&#45;&gt;200</title>
<path fill="none" stroke="red" stroke-width="0.28" d="M556.11,-154.06C552.04,-150.54 547.28,-146.43 542.96,-142.71 529.09,-130.76 513.53,-117.39 501.12,-106.73"/>
<polygon fill="red" stroke="red" stroke-width="0.28" points="503.65,-104.3 493.79,-100.44 499.09,-109.61 503.65,-104.3"/>
</g>
<!-- &#45;19 -->
<g id="node19" class="node">
<title>&#45;19</title>
<polygon fill="lightgray" stroke="black" points="247.96,-172.82 219.96,-172.82 219.96,-154.32 247.96,-154.32 247.96,-172.82"/>
<text text-anchor="middle" x="233.96" y="-160.27" font-family="Times,serif" font-size="9.00">&#45;19</text>
</g>
<!-- &#45;19&#45;&gt;197 -->
<g id="edge30" class="edge">
<title>&#45;19&#45;&gt;197</title>
<path fill="none" stroke="red" stroke-width="0.23" stroke-dasharray="1,5" d="M243.6,-153.88C256.15,-142.57 278.5,-122.42 295.43,-107.16"/>
<polygon fill="red" stroke="red" stroke-width="0.23" points="297.43,-110.07 302.51,-100.78 292.74,-104.87 297.43,-110.07"/>
</g>
<!-- &#45;20 -->
<g id="node20" class="node">
<title>&#45;20</title>
<polygon fill="lightgray" stroke="black" points="905.96,-172.82 877.96,-172.82 877.96,-154.32 905.96,-154.32 905.96,-172.82"/>
<text text-anchor="middle" x="891.96" y="-160.27" font-family="Times,serif" font-size="9.00">&#45;20</text>
</g>
<!-- 0 -->
<g id="node21" class="node">
<title>0</title>
<ellipse fill="lightblue" stroke="black" cx="878.96" cy="-85.85" rx="14.5" ry="14.5"/>
<text text-anchor="middle" x="878.96" y="-82.55" font-family="Times,serif" font-size="9.00">0</text>
</g>
<!-- &#45;20&#45;&gt;0 -->
<g id="edge41" class="edge">
<title>&#45;20&#45;&gt;0</title>
<path fill="none" stroke="red" stroke-width="0.21" d="M890.47,-153.88C888.66,-143.38 885.56,-125.28 883.02,-110.53"/>
<polygon fill="red" stroke="red" stroke-width="0.21" points="886.51,-110.12 881.36,-100.86 879.61,-111.31 886.51,-110.12"/>
</g>
<!-- &#45;20&#45;&gt;199 -->
<g id="edge20" class="edge">
<title>&#45;20&#45;&gt;199</title>
<path fill="none" stroke="green" stroke-width="0.28" d="M883.62,-153.96C879.5,-150.09 874.28,-145.73 868.96,-142.71 824.57,-117.55 805.86,-128.99 759.96,-106.71 758.41,-105.96 756.85,-105.14 755.3,-104.28"/>
<polygon fill="green" stroke="green" stroke-width="0.28" points="757.35,-101.43 746.99,-99.23 753.72,-107.41 757.35,-101.43"/>
</g>
<!-- 0&#45;&gt;0 -->
<g id="edge27" class="edge">
<title>0&#45;&gt;0</title>
<path fill="none" stroke="red" stroke-width="0.38" d="M889.27,-96.29C899.77,-102.43 911.45,-98.95 911.45,-85.85 911.45,-76.84 905.93,-72.39 899.07,-72.47"/>
<polygon fill="red" stroke="red" stroke-width="0.38" points="898.39,-69.02 889.82,-75.25 900.4,-75.73 898.39,-69.02"/>
</g>
<!-- 2 -->
<g id="node23" class="node">
<title>2</title>
<ellipse fill="lightblue" stroke="black" cx="949.96" cy="-14.5" rx="14.5" ry="14.5"/>
<text text-anchor="middle" x="949.96" y="-11.2" font-family="Times,serif" font-size="9.00">2</text>
</g>
<!-- 3 -->
<g id="node24" class="node">
<title>3</title>
<ellipse fill="lightblue" stroke="black" cx="421.96" cy="-14.5" rx="14.5" ry="14.5"/>
<text text-anchor="middle" x="421.96" y="-11.2" font-family="Times,serif" font-size="9.00">3</text>
</g>
<!-- 4 -->
<g id="node25" class="node">
<title>4</title>
<ellipse fill="lightblue" stroke="black" cx="317.96" cy="-14.5" rx="14.5" ry="14.5"/>
<text text-anchor="middle" x="317.96" y="-11.2" font-family="Times,serif" font-size="9.00">4</text>
</g>
<!-- 197&#45;&gt;1 -->
<g id="edge18" class="edge">
<title>197&#45;&gt;1</title>
<path fill="none" stroke="green" stroke-width="0.2" stroke-dasharray="1,5" d="M338.74,-81.55C411.32,-70.03 653.27,-31.63 730.82,-19.33"/>
<polygon fill="green" stroke="green" stroke-width="0.2" points="731.01,-22.84 740.34,-17.82 729.92,-15.93 731.01,-22.84"/>
</g>
<!-- 197&#45;&gt;3 -->
<g id="edge34" class="edge">
<title>197&#45;&gt;3</title>
<path fill="none" stroke="green" stroke-width="0.51" d="M335.13,-73.4C353.3,-61.29 381.95,-42.18 401.33,-29.26"/>
<polygon fill="green" stroke="green" stroke-width="0.51" points="403.24,-32.18 409.62,-23.72 399.36,-26.36 403.24,-32.18"/>
</g>
<!-- 197&#45;&gt;4 -->
<g id="edge25" class="edge">
<title>197&#45;&gt;4</title>
<path fill="none" stroke="red" stroke-width="0.27" d="M317.96,-64.79C317.96,-56.89 317.96,-47.75 317.96,-39.5"/>
<polygon fill="red" stroke="red" stroke-width="0.27" points="321.46,-39.76 317.96,-29.76 314.46,-39.76 321.46,-39.76"/>
</g>
<!-- 198&#45;&gt;1 -->
<g id="edge12" class="edge">
<title>198&#45;&gt;1</title>
<path fill="none" stroke="green" stroke-width="0.44" d="M933.33,-72.6C929.11,-69.85 924.48,-67.11 919.96,-64.99 872.27,-42.65 812.12,-27.63 779.21,-20.42"/>
<polygon fill="green" stroke="green" stroke-width="0.44" points="780.32,-17.08 769.81,-18.42 778.86,-23.93 780.32,-17.08"/>
</g>
<!-- 198&#45;&gt;2 -->
<g id="edge33" class="edge">
<title>198&#45;&gt;2</title>
<path fill="none" stroke="red" stroke-width="0.32" d="M949.96,-64.79C949.96,-56.98 949.96,-47.96 949.96,-39.78"/>
<polygon fill="red" stroke="red" stroke-width="0.32" points="953.46,-39.84 949.96,-29.84 946.46,-39.84 953.46,-39.84"/>
</g>
<!-- 199&#45;&gt;1 -->
<g id="edge3" class="edge">
<title>199&#45;&gt;1</title>
<path fill="none" stroke="green" stroke-width="0.36" stroke-dasharray="1,5" d="M736.79,-65.9C739.87,-57.37 743.52,-47.22 746.75,-38.28"/>
<polygon fill="green" stroke="green" stroke-width="0.36" points="749.99,-39.6 750.09,-29.01 743.41,-37.23 749.99,-39.6"/>
</g>
<!-- 200&#45;&gt;3 -->
<g id="edge13" class="edge">
<title>200&#45;&gt;3</title>
<path fill="none" stroke="green" stroke-width="0.27" stroke-dasharray="1,5" d="M465.25,-69.11C456.9,-58.77 445.93,-45.18 437.12,-34.27"/>
<polygon fill="green" stroke="green" stroke-width="0.27" points="439.87,-32.11 430.87,-26.53 434.43,-36.51 439.87,-32.11"/>
</g>
<!-- 581&#45;&gt;199 -->
<g id="edge44" class="edge">
<title>581&#45;&gt;199</title>
<path fill="none" stroke="green" stroke-width="0.4" d="M674.59,-147.61C684.45,-136.79 697.95,-121.98 709.15,-109.68"/>
<polygon fill="green" stroke="green" stroke-width="0.4" points="711.57,-112.23 715.71,-102.48 706.39,-107.52 711.57,-112.23"/>
</g>
<!-- 719&#45;&gt;197 -->
<g id="edge49" class="edge">
<title>719&#45;&gt;197</title>
<path fill="none" stroke="green" stroke-width="0.13" d="M160.51,-151.99C166.02,-148.84 172.17,-145.49 177.96,-142.71 215.52,-124.67 260.51,-107.46 289.17,-97.03"/>
<polygon fill="green" stroke="green" stroke-width="0.13" points="290.18,-100.38 298.4,-93.7 287.8,-93.8 290.18,-100.38"/>
</g>
<!-- 276&#45;&gt;197 -->
<g id="edge40" class="edge">
<title>276&#45;&gt;197</title>
<path fill="none" stroke="red" stroke-width="0.58" stroke-dasharray="1,5" d="M99.55,-150.24C103.77,-147.49 108.41,-144.77 112.96,-142.71 171.59,-116.15 245.54,-99.84 286.69,-92.15"/>
<polygon fill="red" stroke="red" stroke-width="0.58" points="287.06,-95.64 296.28,-90.41 285.81,-88.76 287.06,-95.64"/>
</g>
<!-- 700&#45;&gt;199 -->
<g id="edge47" class="edge">
<title>700&#45;&gt;199</title>
<path fill="none" stroke="red" stroke-width="0.22" d="M821.93,-150.74C804.01,-138.29 775.62,-118.57 755.12,-104.33"/>
<polygon fill="red" stroke="red" stroke-width="0.22" points="757.36,-101.62 747.15,-98.79 753.37,-107.37 757.36,-101.62"/>
</g>
</g>
</svg>
