<?xml version="1.0" encoding="UTF-8" standalone="no"?>
<!DOCTYPE svg PUBLIC "-//W3C//DTD SVG 1.1//EN"
 "http://www.w3.org/Graphics/SVG/1.1/DTD/svg11.dtd">
<!-- Generated by graphviz version 12.1.1 (20240910.0053)
 -->
<!-- Pages: 1 -->
<svg width="844pt" height="247pt"
 viewBox="0.00 0.00 844.06 246.93" xmlns="http://www.w3.org/2000/svg" xmlns:xlink="http://www.w3.org/1999/xlink">
<g id="graph0" class="graph" transform="scale(1 1) rotate(0) translate(4 242.93)">
<polygon fill="white" stroke="none" points="-4,4 -4,-242.93 840.06,-242.93 840.06,4 -4,4"/>
<!-- &#45;1 -->
<g id="node1" class="node">
<title>&#45;1</title>
<polygon fill="lightgray" stroke="black" points="659.81,-238.93 636.31,-238.93 636.31,-220.43 659.81,-220.43 659.81,-238.93"/>
<text text-anchor="middle" x="648.06" y="-226.38" font-family="Times,serif" font-size="9.00">&#45;1</text>
</g>
<!-- 121 -->
<g id="node29" class="node">
<title>121</title>
<ellipse fill="white" stroke="black" cx="535.06" cy="-163.57" rx="20.86" ry="20.86"/>
<text text-anchor="middle" x="535.06" y="-160.27" font-family="Times,serif" font-size="9.00">121</text>
</g>
<!-- &#45;1&#45;&gt;121 -->
<g id="edge25" class="edge">
<title>&#45;1&#45;&gt;121</title>
<path fill="none" stroke="red" stroke-width="0.17" d="M635.96,-221.82C618.37,-211.84 585.26,-193.05 561.77,-179.73"/>
<polygon fill="red" stroke="red" stroke-width="0.17" points="563.64,-176.76 553.21,-174.87 560.18,-182.85 563.64,-176.76"/>
</g>
<!-- &#45;2 -->
<g id="node2" class="node">
<title>&#45;2</title>
<polygon fill="lightgray" stroke="black" points="701.81,-238.93 678.31,-238.93 678.31,-220.43 701.81,-220.43 701.81,-238.93"/>
<text text-anchor="middle" x="690.06" y="-226.38" font-family="Times,serif" font-size="9.00">&#45;2</text>
</g>
<!-- 1 -->
<g id="node22" class="node">
<title>1</title>
<ellipse fill="lightblue" stroke="black" cx="622.06" cy="-85.85" rx="14.5" ry="14.5"/>
<text text-anchor="middle" x="622.06" y="-82.55" font-family="Times,serif" font-size="9.00">1</text>
</g>
<!-- &#45;2&#45;&gt;1 -->
<g id="edge50" class="edge">
<title>&#45;2&#45;&gt;1</title>
<path fill="none" stroke="red" stroke-width="0.4" d="M686.01,-220.23C675.63,-198.6 647.86,-140.67 632.55,-108.73"/>
<polygon fill="red" stroke="red" stroke-width="0.4" points="635.79,-107.41 628.31,-99.9 629.48,-110.43 635.79,-107.41"/>
</g>
<!-- 2 -->
<g id="node23" class="node">
<title>2</title>
<ellipse fill="lightblue" stroke="black" cx="513.06" cy="-14.5" rx="14.5" ry="14.5"/>
<text text-anchor="middle" x="513.06" y="-11.2" font-family="Times,serif" font-size="9.00">2</text>
</g>
<!-- &#45;2&#45;&gt;2 -->
<g id="edge46" class="edge">
<title>&#45;2&#45;&gt;2</title>
<path fill="none" stroke="red" stroke-width="0.43" d="M691.46,-219.95C695.22,-193.2 702.75,-111.39 663.06,-64.99 631.5,-28.11 571.88,-18.57 538.08,-16.19"/>
<polygon fill="red" stroke="red" stroke-width="0.43" points="538.52,-12.71 528.34,-15.67 538.14,-19.7 538.52,-12.71"/>
</g>
<!-- 124 -->
<g id="node32" class="node">
<title>124</title>
<ellipse fill="white" stroke="black" cx="475.06" cy="-163.57" rx="20.86" ry="20.86"/>
<text text-anchor="middle" x="475.06" y="-160.27" font-family="Times,serif" font-size="9.00">124</text>
</g>
<!-- &#45;2&#45;&gt;124 -->
<g id="edge6" class="edge">
<title>&#45;2&#45;&gt;124</title>
<path fill="none" stroke="green" stroke-width="0.15" d="M678.18,-223.64C675.23,-222.49 672.05,-221.34 669.06,-220.43 597.66,-198.72 573.78,-213.52 505.06,-184.43 503.47,-183.76 501.89,-183.01 500.31,-182.19"/>
<polygon fill="green" stroke="green" stroke-width="0.15" points="502.17,-179.22 491.77,-177.18 498.62,-185.26 502.17,-179.22"/>
</g>
<!-- &#45;3 -->
<g id="node3" class="node">
<title>&#45;3</title>
<polygon fill="lightgray" stroke="black" points="575.81,-238.93 552.31,-238.93 552.31,-220.43 575.81,-220.43 575.81,-238.93"/>
<text text-anchor="middle" x="564.06" y="-226.38" font-family="Times,serif" font-size="9.00">&#45;3</text>
</g>
<!-- &#45;3&#45;&gt;121 -->
<g id="edge34" class="edge">
<title>&#45;3&#45;&gt;121</title>
<path fill="none" stroke="red" stroke-width="0.45" d="M560.14,-220.03C556.94,-212.96 552.23,-202.54 547.75,-192.64"/>
<polygon fill="red" stroke="red" stroke-width="0.45" points="551,-191.34 543.69,-183.67 544.63,-194.22 551,-191.34"/>
</g>
<!-- &#45;4 -->
<g id="node4" class="node">
<title>&#45;4</title>
<polygon fill="lightgray" stroke="black" points="441.81,-238.93 418.31,-238.93 418.31,-220.43 441.81,-220.43 441.81,-238.93"/>
<text text-anchor="middle" x="430.06" y="-226.38" font-family="Times,serif" font-size="9.00">&#45;4</text>
</g>
<!-- &#45;4&#45;&gt;121 -->
<g id="edge11" class="edge">
<title>&#45;4&#45;&gt;121</title>
<path fill="none" stroke="red" stroke-width="0.15" d="M442.12,-221.82C457.04,-213.28 483.14,-198.14 505.06,-184.43 506.51,-183.52 508,-182.57 509.5,-181.61"/>
<polygon fill="red" stroke="red" stroke-width="0.15" points="511.37,-184.58 517.84,-176.19 507.55,-178.71 511.37,-184.58"/>
</g>
<!-- 123 -->
<g id="node31" class="node">
<title>123</title>
<ellipse fill="white" stroke="black" cx="261.06" cy="-163.57" rx="20.86" ry="20.86"/>
<text text-anchor="middle" x="261.06" y="-160.27" font-family="Times,serif" font-size="9.00">123</text>
</g>
<!-- &#45;4&#45;&gt;123 -->
<g id="edge33" class="edge">
<title>&#45;4&#45;&gt;123</title>
<path fill="none" stroke="green" stroke-width="0.15" stroke-dasharray="1,5" d="M418.08,-223.91C415.14,-222.75 411.99,-221.53 409.06,-220.43 364.85,-203.79 353.11,-201.46 309.06,-184.43 302.61,-181.94 295.73,-179.16 289.24,-176.49"/>
<polygon fill="green" stroke="green" stroke-width="0.15" points="290.92,-173.4 280.34,-172.79 288.23,-179.86 290.92,-173.4"/>
</g>
<!-- &#45;5 -->
<g id="node5" class="node">
<title>&#45;5</title>
<polygon fill="lightgray" stroke="black" points="261.81,-238.93 238.31,-238.93 238.31,-220.43 261.81,-220.43 261.81,-238.93"/>
<text text-anchor="middle" x="250.06" y="-226.38" font-family="Times,serif" font-size="9.00">&#45;5</text>
</g>
<!-- &#45;5&#45;&gt;123 -->
<g id="edge30" class="edge">
<title>&#45;5&#45;&gt;123</title>
<path fill="none" stroke="red" stroke-width="0.16" stroke-dasharray="1,5" d="M251.54,-220.03C252.68,-213.36 254.34,-203.7 255.95,-194.31"/>
<polygon fill="red" stroke="red" stroke-width="0.16" points="259.37,-195.07 257.62,-184.62 252.47,-193.88 259.37,-195.07"/>
</g>
<!-- &#45;6 -->
<g id="node6" class="node">
<title>&#45;6</title>
<polygon fill="lightgray" stroke="black" points="219.81,-238.93 196.31,-238.93 196.31,-220.43 219.81,-220.43 219.81,-238.93"/>
<text text-anchor="middle" x="208.06" y="-226.38" font-family="Times,serif" font-size="9.00">&#45;6</text>
</g>
<!-- &#45;6&#45;&gt;123 -->
<g id="edge21" class="edge">
<title>&#45;6&#45;&gt;123</title>
<path fill="none" stroke="green" stroke-width="0.38" d="M215.2,-220.03C221.91,-211.92 232.26,-199.4 241.43,-188.31"/>
<polygon fill="green" stroke="green" stroke-width="0.38" points="244.1,-190.58 247.77,-180.64 238.7,-186.12 244.1,-190.58"/>
</g>
<!-- &#45;7 -->
<g id="node7" class="node">
<title>&#45;7</title>
<polygon fill="lightgray" stroke="black" points="39.81,-172.82 16.31,-172.82 16.31,-154.32 39.81,-154.32 39.81,-172.82"/>
<text text-anchor="middle" x="28.06" y="-160.27" font-family="Times,serif" font-size="9.00">&#45;7</text>
</g>
<!-- 122 -->
<g id="node30" class="node">
<title>122</title>
<ellipse fill="white" stroke="black" cx="212.06" cy="-85.85" rx="20.86" ry="20.86"/>
<text text-anchor="middle" x="212.06" y="-82.55" font-family="Times,serif" font-size="9.00">122</text>
</g>
<!-- &#45;7&#45;&gt;122 -->
<g id="edge40" class="edge">
<title>&#45;7&#45;&gt;122</title>
<path fill="none" stroke="red" stroke-width="0.24" d="M37.68,-154.06C42.38,-150.22 48.26,-145.85 54.06,-142.71 96.08,-119.97 149.21,-103.42 181.9,-94.47"/>
<polygon fill="red" stroke="red" stroke-width="0.24" points="182.64,-97.9 191.4,-91.93 180.84,-91.13 182.64,-97.9"/>
</g>
<!-- &#45;8 -->
<g id="node8" class="node">
<title>&#45;8</title>
<polygon fill="lightgray" stroke="black" points="617.81,-238.93 594.31,-238.93 594.31,-220.43 617.81,-220.43 617.81,-238.93"/>
<text text-anchor="middle" x="606.06" y="-226.38" font-family="Times,serif" font-size="9.00">&#45;8</text>
</g>
<!-- &#45;8&#45;&gt;121 -->
<g id="edge3" class="edge">
<title>&#45;8&#45;&gt;121</title>
<path fill="none" stroke="green" stroke-width="0.5" d="M596.48,-220.03C586.64,-211.15 570.95,-196.98 557.89,-185.19"/>
<polygon fill="green" stroke="green" stroke-width="0.5" points="560.51,-182.84 550.74,-178.73 555.82,-188.03 560.51,-182.84"/>
</g>
<!-- &#45;9 -->
<g id="node9" class="node">
<title>&#45;9</title>
<polygon fill="lightgray" stroke="black" points="743.81,-238.93 720.31,-238.93 720.31,-220.43 743.81,-220.43 743.81,-238.93"/>
<text text-anchor="middle" x="732.06" y="-226.38" font-family="Times,serif" font-size="9.00">&#45;9</text>
</g>
<!-- &#45;10 -->
<g id="node10" class="node">
<title>&#45;10</title>
<polygon fill="lightgray" stroke="black" points="308.06,-238.93 280.06,-238.93 280.06,-220.43 308.06,-220.43 308.06,-238.93"/>
<text text-anchor="middle" x="294.06" y="-226.38" font-family="Times,serif" font-size="9.00">&#45;10</text>
</g>
<!-- &#45;10&#45;&gt;123 -->
<g id="edge14" class="edge">
<title>&#45;10&#45;&gt;123</title>
<path fill="none" stroke="red" stroke-width="0.15" d="M289.61,-220.03C285.83,-212.71 280.22,-201.79 274.96,-191.58"/>
<polygon fill="red" stroke="red" stroke-width="0.15" points="278.09,-190.01 270.4,-182.72 271.87,-193.22 278.09,-190.01"/>
</g>
<!-- &#45;10&#45;&gt;124 -->
<g id="edge29" class="edge">
<title>&#45;10&#45;&gt;124</title>
<path fill="none" stroke="red" stroke-width="0.13" stroke-dasharray="1,5" d="M308.16,-223.61C311.1,-222.56 314.18,-221.45 317.06,-220.43 362.07,-204.4 414.35,-185.95 446.05,-174.78"/>
<polygon fill="red" stroke="red" stroke-width="0.13" points="447.13,-178.11 455.4,-171.49 444.8,-171.51 447.13,-178.11"/>
</g>
<!-- &#45;11 -->
<g id="node11" class="node">
<title>&#45;11</title>
<polygon fill="lightgray" stroke="black" points="534.06,-238.93 506.06,-238.93 506.06,-220.43 534.06,-220.43 534.06,-238.93"/>
<text text-anchor="middle" x="520.06" y="-226.38" font-family="Times,serif" font-size="9.00">&#45;11</text>
</g>
<!-- &#45;11&#45;&gt;121 -->
<g id="edge15" class="edge">
<title>&#45;11&#45;&gt;121</title>
<path fill="none" stroke="green" stroke-width="0.24" d="M522.08,-220.03C523.64,-213.36 525.9,-203.7 528.1,-194.31"/>
<polygon fill="green" stroke="green" stroke-width="0.24" points="531.47,-195.27 530.34,-184.73 524.65,-193.67 531.47,-195.27"/>
</g>
<!-- &#45;11&#45;&gt;124 -->
<g id="edge16" class="edge">
<title>&#45;11&#45;&gt;124</title>
<path fill="none" stroke="green" stroke-width="0.26" stroke-dasharray="1,5" d="M513.99,-220.03C508.5,-212.21 500.14,-200.3 492.57,-189.52"/>
<polygon fill="green" stroke="green" stroke-width="0.26" points="495.58,-187.72 486.97,-181.54 489.85,-191.74 495.58,-187.72"/>
</g>
<!-- &#45;12 -->
<g id="node12" class="node">
<title>&#45;12</title>
<polygon fill="lightgray" stroke="black" points="354.06,-238.93 326.06,-238.93 326.06,-220.43 354.06,-220.43 354.06,-238.93"/>
<text text-anchor="middle" x="340.06" y="-226.38" font-family="Times,serif" font-size="9.00">&#45;12</text>
</g>
<!-- 406 -->
<g id="node28" class="node">
<title>406</title>
<ellipse fill="white" stroke="black" cx="339.06" cy="-163.57" rx="20.86" ry="20.86"/>
<text text-anchor="middle" x="339.06" y="-160.27" font-family="Times,serif" font-size="9.00">406</text>
</g>
<!-- &#45;12&#45;&gt;406 -->
<g id="edge48" class="edge">
<title>&#45;12&#45;&gt;406</title>
<path fill="none" stroke="green" stroke-width="0.22" d="M339.92,-220.03C339.82,-213.53 339.67,-204.19 339.53,-195.03"/>
<polygon fill="green" stroke="green" stroke-width="0.22" points="343.03,-195.2 339.38,-185.25 336.03,-195.31 343.03,-195.2"/>
</g>
<!-- &#45;12&#45;&gt;122 -->
<g id="edge38" class="edge">
<title>&#45;12&#45;&gt;122</title>
<path fill="none" stroke="red" stroke-width="0.17" stroke-dasharray="1,5" d="M347.43,-220.39C360.94,-204.17 386.67,-167.68 369.06,-142.71 354.18,-121.63 283.8,-102.8 242.5,-93.33"/>
<polygon fill="red" stroke="red" stroke-width="0.17" points="243.44,-89.95 232.92,-91.18 241.91,-96.78 243.44,-89.95"/>
</g>
<!-- &#45;12&#45;&gt;124 -->
<g id="edge36" class="edge">
<title>&#45;12&#45;&gt;124</title>
<path fill="none" stroke="red" stroke-width="0.29" d="M354.5,-221.82C376.53,-211.36 418.92,-191.23 447.1,-177.85"/>
<polygon fill="red" stroke="red" stroke-width="0.29" points="448.49,-181.06 456.02,-173.61 445.48,-174.74 448.49,-181.06"/>
</g>
<!-- &#45;13 -->
<g id="node13" class="node">
<title>&#45;13</title>
<polygon fill="lightgray" stroke="black" points="178.06,-238.93 150.06,-238.93 150.06,-220.43 178.06,-220.43 178.06,-238.93"/>
<text text-anchor="middle" x="164.06" y="-226.38" font-family="Times,serif" font-size="9.00">&#45;13</text>
</g>
<!-- 361 -->
<g id="node26" class="node">
<title>361</title>
<ellipse fill="white" stroke="black" cx="117.06" cy="-163.57" rx="20.86" ry="20.86"/>
<text text-anchor="middle" x="117.06" y="-160.27" font-family="Times,serif" font-size="9.00">361</text>
</g>
<!-- &#45;13&#45;&gt;361 -->
<g id="edge44" class="edge">
<title>&#45;13&#45;&gt;361</title>
<path fill="none" stroke="green" stroke-width="0.53" d="M157.72,-220.03C152,-212.24 143.31,-200.38 135.42,-189.62"/>
<polygon fill="green" stroke="green" stroke-width="0.53" points="138.28,-187.61 129.55,-181.61 132.64,-191.74 138.28,-187.61"/>
</g>
<!-- &#45;13&#45;&gt;122 -->
<g id="edge1" class="edge">
<title>&#45;13&#45;&gt;122</title>
<path fill="none" stroke="green" stroke-width="0.61" d="M165.56,-219.96C168.4,-204.23 175.19,-170.18 185.06,-142.71 188.5,-133.14 193.07,-123.02 197.48,-114.07"/>
<polygon fill="green" stroke="green" stroke-width="0.61" points="200.49,-115.87 201.9,-105.37 194.25,-112.7 200.49,-115.87"/>
</g>
<!-- &#45;13&#45;&gt;123 -->
<g id="edge27" class="edge">
<title>&#45;13&#45;&gt;123</title>
<path fill="none" stroke="green" stroke-width="0.33" d="M176.9,-220.2C190.39,-211.3 212.22,-196.89 231.06,-184.43 232.49,-183.48 233.96,-182.51 235.44,-181.53"/>
<polygon fill="green" stroke="green" stroke-width="0.33" points="237.1,-184.63 243.51,-176.19 233.24,-178.79 237.1,-184.63"/>
</g>
<!-- &#45;14 -->
<g id="node14" class="node">
<title>&#45;14</title>
<polygon fill="lightgray" stroke="black" points="44.06,-238.93 16.06,-238.93 16.06,-220.43 44.06,-220.43 44.06,-238.93"/>
<text text-anchor="middle" x="30.06" y="-226.38" font-family="Times,serif" font-size="9.00">&#45;14</text>
</g>
<!-- &#45;14&#45;&gt;122 -->
<g id="edge10" class="edge">
<title>&#45;14&#45;&gt;122</title>
<path fill="none" stroke="red" stroke-width="0.21" d="M23.46,-220.19C11.45,-203.62 -11.14,-166.53 7.06,-142.71 28.16,-115.08 129.35,-97.85 181.23,-90.69"/>
<polygon fill="red" stroke="red" stroke-width="0.21" points="181.44,-94.19 190.88,-89.4 180.51,-87.26 181.44,-94.19"/>
</g>
<!-- &#45;14&#45;&gt;123 -->
<g id="edge41" class="edge">
<title>&#45;14&#45;&gt;123</title>
<path fill="none" stroke="red" stroke-width="0.28" d="M44.42,-226.23C84.46,-219.27 196.67,-199 231.06,-184.43 232.64,-183.76 234.23,-183 235.8,-182.19"/>
<polygon fill="red" stroke="red" stroke-width="0.28" points="237.32,-185.35 244.17,-177.27 233.78,-179.32 237.32,-185.35"/>
</g>
<!-- &#45;15 -->
<g id="node15" class="node">
<title>&#45;15</title>
<polygon fill="lightgray" stroke="black" points="222.06,-172.82 194.06,-172.82 194.06,-154.32 222.06,-154.32 222.06,-172.82"/>
<text text-anchor="middle" x="208.06" y="-160.27" font-family="Times,serif" font-size="9.00">&#45;15</text>
</g>
<!-- &#45;15&#45;&gt;122 -->
<g id="edge22" class="edge">
<title>&#45;15&#45;&gt;122</title>
<path fill="none" stroke="red" stroke-width="0.1" d="M208.51,-153.88C208.99,-144.85 209.77,-130.18 210.47,-116.86"/>
<polygon fill="red" stroke="red" stroke-width="0.1" points="213.95,-117.39 210.98,-107.22 206.96,-117.02 213.95,-117.39"/>
</g>
<!-- &#45;16 -->
<g id="node16" class="node">
<title>&#45;16</title>
<polygon fill="lightgray" stroke="black" points="400.06,-238.93 372.06,-238.93 372.06,-220.43 400.06,-220.43 400.06,-238.93"/>
<text text-anchor="middle" x="386.06" y="-226.38" font-family="Times,serif" font-size="9.00">&#45;16</text>
</g>
<!-- &#45;16&#45;&gt;124 -->
<g id="edge7" class="edge">
<title>&#45;16&#45;&gt;124</title>
<path fill="none" stroke="green" stroke-width="0.14" d="M398.06,-220.03C411.43,-210.4 433.42,-194.56 450.48,-182.27"/>
<polygon fill="green" stroke="green" stroke-width="0.14" points="452.16,-185.38 458.22,-176.69 448.06,-179.7 452.16,-185.38"/>
</g>
<!-- &#45;17 -->
<g id="node17" class="node">
<title>&#45;17</title>
<polygon fill="lightgray" stroke="black" points="488.06,-238.93 460.06,-238.93 460.06,-220.43 488.06,-220.43 488.06,-238.93"/>
<text text-anchor="middle" x="474.06" y="-226.38" font-family="Times,serif" font-size="9.00">&#45;17</text>
</g>
<!-- &#45;17&#45;&gt;121 -->
<g id="edge17" class="edge">
<title>&#45;17&#45;&gt;121</title>
<path fill="none" stroke="green" stroke-width="0.26" stroke-dasharray="1,5" d="M482.28,-220.03C490.39,-211.51 503.12,-198.13 514.05,-186.65"/>
<polygon fill="green" stroke="green" stroke-width="0.26" points="516.27,-189.39 520.63,-179.73 511.2,-184.56 516.27,-189.39"/>
</g>
<!-- &#45;17&#45;&gt;122 -->
<g id="edge35" class="edge">
<title>&#45;17&#45;&gt;122</title>
<path fill="none" stroke="green" stroke-width="0.25" d="M467.52,-220.02C454.12,-202.83 421.73,-164.2 386.06,-142.71 340.17,-115.07 279.13,-99.59 242.88,-92.26"/>
<polygon fill="green" stroke="green" stroke-width="0.25" points="243.76,-88.86 233.28,-90.39 242.43,-95.73 243.76,-88.86"/>
</g>
<!-- &#45;17&#45;&gt;124 -->
<g id="edge19" class="edge">
<title>&#45;17&#45;&gt;124</title>
<path fill="none" stroke="green" stroke-width="0.17" d="M474.19,-220.03C474.29,-213.53 474.44,-204.19 474.58,-195.03"/>
<polygon fill="green" stroke="green" stroke-width="0.17" points="478.08,-195.24 474.73,-185.18 471.08,-195.13 478.08,-195.24"/>
</g>
<!-- &#45;18 -->
<g id="node18" class="node">
<title>&#45;18</title>
<polygon fill="lightgray" stroke="black" points="790.06,-238.93 762.06,-238.93 762.06,-220.43 790.06,-220.43 790.06,-238.93"/>
<text text-anchor="middle" x="776.06" y="-226.38" font-family="Times,serif" font-size="9.00">&#45;18</text>
</g>
<!-- &#45;19 -->
<g id="node19" class="node">
<title>&#45;19</title>
<polygon fill="lightgray" stroke="black" points="836.06,-238.93 808.06,-238.93 808.06,-220.43 836.06,-220.43 836.06,-238.93"/>
<text text-anchor="middle" x="822.06" y="-226.38" font-family="Times,serif" font-size="9.00">&#45;19</text>
</g>
<!-- &#45;20 -->
<g id="node20" class="node">
<title>&#45;20</title>
<polygon fill="lightgray" stroke="black" points="131.06,-238.93 103.06,-238.93 103.06,-220.43 131.06,-220.43 131.06,-238.93"/>
<text text-anchor="middle" x="117.06" y="-226.38" font-family="Times,serif" font-size="9.00">&#45;20</text>
</g>
<!-- &#45;20&#45;&gt;361 -->
<g id="edge47" class="edge">
<title>&#45;20&#45;&gt;361</title>
<path fill="none" stroke="red" stroke-width="0.28" d="M117.06,-220.03C117.06,-213.6 117.06,-204.39 117.06,-195.33"/>
<polygon fill="red" stroke="red" stroke-width="0.28" points="120.56,-195.35 117.06,-185.35 113.56,-195.35 120.56,-195.35"/>
</g>
<!-- &#45;20&#45;&gt;122 -->
<g id="edge32" class="edge">
<title>&#45;20&#45;&gt;122</title>
<path fill="none" stroke="green" stroke-width="0.53" d="M109.27,-220.02C95.67,-203.8 70.54,-168.18 87.06,-142.71 107.67,-110.92 151.09,-97.06 180.91,-91.13"/>
<polygon fill="green" stroke="green" stroke-width="0.53" points="181.2,-94.63 190.43,-89.42 179.97,-87.74 181.2,-94.63"/>
</g>
<!-- &#45;20&#45;&gt;123 -->
<g id="edge23" class="edge">
<title>&#45;20&#45;&gt;123</title>
<path fill="none" stroke="red" stroke-width="0.22" stroke-dasharray="1,5" d="M131.47,-223.52C157.88,-214 212.95,-193.8 231.06,-184.43 232.58,-183.64 234.13,-182.79 235.67,-181.9"/>
<polygon fill="red" stroke="red" stroke-width="0.22" points="237.35,-184.98 244.02,-176.74 233.67,-179.02 237.35,-184.98"/>
</g>
<!-- 0 -->
<g id="node21" class="node">
<title>0</title>
<ellipse fill="lightblue" stroke="black" cx="366.06" cy="-85.85" rx="14.5" ry="14.5"/>
<text text-anchor="middle" x="366.06" y="-82.55" font-family="Times,serif" font-size="9.00">0</text>
</g>
<!-- 0&#45;&gt;0 -->
<g id="edge2" class="edge">
<title>0&#45;&gt;0</title>
<path fill="none" stroke="green" stroke-width="0.52" d="M376.37,-96.29C386.87,-102.43 398.55,-98.95 398.55,-85.85 398.55,-77.05 393.28,-72.59 386.63,-72.47"/>
<polygon fill="green" stroke="green" stroke-width="0.52" points="385.77,-69.08 377.12,-75.2 387.7,-75.81 385.77,-69.08"/>
</g>
<!-- 1&#45;&gt;1 -->
<g id="edge37" class="edge">
<title>1&#45;&gt;1</title>
<path fill="none" stroke="green" stroke-width="0.17" stroke-dasharray="1,5" d="M632.37,-96.29C642.87,-102.43 654.55,-98.95 654.55,-85.85 654.55,-76.84 649.03,-72.39 642.17,-72.47"/>
<polygon fill="green" stroke="green" stroke-width="0.17" points="641.2,-69.11 632.62,-75.34 643.21,-75.81 641.2,-69.11"/>
</g>
<!-- 2&#45;&gt;2 -->
<g id="edge28" class="edge">
<title>2&#45;&gt;2</title>
<path fill="none" stroke="green" stroke-width="0.39" d="M523.37,-24.94C533.87,-31.08 545.55,-27.6 545.55,-14.5 545.55,-5.49 540.03,-1.03 533.17,-1.12"/>
<polygon fill="green" stroke="green" stroke-width="0.39" points="532.5,2.34 523.93,-3.89 534.52,-4.37 532.5,2.34"/>
</g>
<!-- 3 -->
<g id="node24" class="node">
<title>3</title>
<ellipse fill="lightblue" stroke="black" cx="378.06" cy="-14.5" rx="14.5" ry="14.5"/>
<text text-anchor="middle" x="378.06" y="-11.2" font-family="Times,serif" font-size="9.00">3</text>
</g>
<!-- 4 -->
<g id="node25" class="node">
<title>4</title>
<ellipse fill="lightblue" stroke="black" cx="276.06" cy="-14.5" rx="14.5" ry="14.5"/>
<text text-anchor="middle" x="276.06" y="-11.2" font-family="Times,serif" font-size="9.00">4</text>
</g>
<!-- 361&#45;&gt;122 -->
<g id="edge45" class="edge">
<title>361&#45;&gt;122</title>
<path fill="none" stroke="green" stroke-width="0.27" stroke-dasharray="1,5" d="M133.17,-149.73C148.18,-137.76 170.77,-119.76 187.93,-106.08"/>
<polygon fill="green" stroke="green" stroke-width="0.27" points="189.9,-108.99 195.54,-100.02 185.54,-103.51 189.9,-108.99"/>
</g>
<!-- 245 -->
<g id="node27" class="node">
<title>245</title>
<ellipse fill="white" stroke="black" cx="562.06" cy="-85.85" rx="20.86" ry="20.86"/>
<text text-anchor="middle" x="562.06" y="-82.55" font-family="Times,serif" font-size="9.00">245</text>
</g>
<!-- 245&#45;&gt;2 -->
<g id="edge43" class="edge">
<title>245&#45;&gt;2</title>
<path fill="none" stroke="red" stroke-width="0.16" d="M550.44,-68.41C543.37,-58.4 534.29,-45.55 526.85,-35.02"/>
<polygon fill="red" stroke="red" stroke-width="0.16" points="529.83,-33.18 521.2,-27.03 524.11,-37.21 529.83,-33.18"/>
</g>
<!-- 406&#45;&gt;122 -->
<g id="edge49" class="edge">
<title>406&#45;&gt;122</title>
<path fill="none" stroke="red" stroke-width="0.14" d="M322.04,-151.04C317.83,-148.26 313.31,-145.34 309.06,-142.71 285.65,-128.25 258.47,-112.69 238.84,-101.68"/>
<polygon fill="red" stroke="red" stroke-width="0.14" points="240.75,-98.74 230.32,-96.92 237.34,-104.85 240.75,-98.74"/>
</g>
<!-- 121&#45;&gt;0 -->
<g id="edge8" class="edge">
<title>121&#45;&gt;0</title>
<path fill="none" stroke="green" stroke-width="0.29" stroke-dasharray="1,5" d="M518.29,-150.61C514.07,-147.84 509.48,-145.03 505.06,-142.71 484.08,-131.7 422.58,-108.08 388.84,-95.36"/>
<polygon fill="green" stroke="green" stroke-width="0.29" points="390.35,-92.19 379.75,-91.95 387.89,-98.74 390.35,-92.19"/>
</g>
<!-- 121&#45;&gt;1 -->
<g id="edge24" class="edge">
<title>121&#45;&gt;1</title>
<path fill="none" stroke="green" stroke-width="0.14" d="M550.61,-149.03C565.51,-136.07 588,-116.49 603.75,-102.78"/>
<polygon fill="green" stroke="green" stroke-width="0.14" points="605.9,-105.55 611.14,-96.35 601.3,-100.27 605.9,-105.55"/>
</g>
<!-- 121&#45;&gt;2 -->
<g id="edge31" class="edge">
<title>121&#45;&gt;2</title>
<path fill="none" stroke="red" stroke-width="0.26" stroke-dasharray="1,5" d="M532.04,-142.43C528.01,-115.5 520.89,-67.85 516.6,-39.22"/>
<polygon fill="red" stroke="red" stroke-width="0.26" points="520.11,-39.03 515.17,-29.65 513.19,-40.06 520.11,-39.03"/>
</g>
<!-- 121&#45;&gt;3 -->
<g id="edge9" class="edge">
<title>121&#45;&gt;3</title>
<path fill="none" stroke="green" stroke-width="0.38" stroke-dasharray="1,5" d="M520,-148.47C490.83,-121.14 426.76,-61.12 395.67,-32"/>
<polygon fill="green" stroke="green" stroke-width="0.38" points="398.28,-29.65 388.59,-25.37 393.5,-34.76 398.28,-29.65"/>
</g>
<!-- 121&#45;&gt;245 -->
<g id="edge42" class="edge">
<title>121&#45;&gt;245</title>
<path fill="none" stroke="green" stroke-width="0.5" d="M541.87,-143.46C544.84,-135.12 548.4,-125.16 551.69,-115.93"/>
<polygon fill="green" stroke="green" stroke-width="0.5" points="554.93,-117.26 554.99,-106.67 548.33,-114.91 554.93,-117.26"/>
</g>
<!-- 122&#45;&gt;2 -->
<g id="edge12" class="edge">
<title>122&#45;&gt;2</title>
<path fill="none" stroke="red" stroke-width="0.21" d="M232.27,-80.19C285.88,-67.84 431.48,-34.29 489.11,-21.01"/>
<polygon fill="red" stroke="red" stroke-width="0.21" points="489.54,-24.51 498.5,-18.85 487.97,-17.68 489.54,-24.51"/>
</g>
<!-- 122&#45;&gt;3 -->
<g id="edge39" class="edge">
<title>122&#45;&gt;3</title>
<path fill="none" stroke="green" stroke-width="0.22" d="M231.1,-76.9C261.97,-64 322.79,-38.58 355.68,-24.84"/>
<polygon fill="green" stroke="green" stroke-width="0.22" points="356.74,-28.2 364.61,-21.11 354.04,-21.74 356.74,-28.2"/>
</g>
<!-- 122&#45;&gt;4 -->
<g id="edge26" class="edge">
<title>122&#45;&gt;4</title>
<path fill="none" stroke="red" stroke-width="0.23" stroke-dasharray="1,5" d="M225.94,-69.8C235.88,-59.03 249.3,-44.49 259.75,-33.17"/>
<polygon fill="red" stroke="red" stroke-width="0.23" points="262.3,-35.56 266.51,-25.84 257.16,-30.82 262.3,-35.56"/>
</g>
<!-- 122&#45;&gt;122 -->
<g id="edge13" class="edge">
<title>122&#45;&gt;122</title>
<path fill="none" stroke="red" stroke-width="0.36" stroke-dasharray="1,5" d="M229.24,-98.17C240.28,-101.39 250.92,-97.28 250.92,-85.85 250.92,-78.17 246.12,-73.8 239.62,-72.73"/>
<polygon fill="red" stroke="red" stroke-width="0.36" points="239.48,-69.23 229.78,-73.49 240.01,-76.21 239.48,-69.23"/>
</g>
<!-- 123&#45;&gt;0 -->
<g id="edge18" class="edge">
<title>123&#45;&gt;0</title>
<path fill="none" stroke="green" stroke-width="0.38" stroke-dasharray="1,5" d="M277.46,-150.74C296.07,-137.32 326.4,-115.45 346.29,-101.1"/>
<polygon fill="green" stroke="green" stroke-width="0.38" points="348.09,-104.12 354.15,-95.43 343.99,-98.44 348.09,-104.12"/>
</g>
<!-- 123&#45;&gt;123 -->
<g id="edge5" class="edge">
<title>123&#45;&gt;123</title>
<path fill="none" stroke="green" stroke-width="0.52" d="M278.64,-175.09C289.54,-177.87 299.92,-174.03 299.92,-163.57 299.92,-156.71 295.45,-152.69 289.29,-151.53"/>
<polygon fill="green" stroke="green" stroke-width="0.52" points="289.24,-148.03 279.42,-152.01 289.58,-155.02 289.24,-148.03"/>
</g>
<!-- 124&#45;&gt;2 -->
<g id="edge20" class="edge">
<title>124&#45;&gt;2</title>
<path fill="none" stroke="red" stroke-width="0.34" stroke-dasharray="1,5" d="M480.1,-143.04C487.05,-116.16 499.54,-67.81 506.99,-38.99"/>
<polygon fill="red" stroke="red" stroke-width="0.34" points="510.33,-40.04 509.44,-29.48 503.55,-38.29 510.33,-40.04"/>
</g>
<!-- 124&#45;&gt;4 -->
<g id="edge4" class="edge">
<title>124&#45;&gt;4</title>
<path fill="none" stroke="red" stroke-width="0.41" d="M457.54,-151.9C452.04,-148.75 445.88,-145.42 440.06,-142.71 398.37,-123.3 379.77,-134.41 343.06,-106.71 318.25,-88 298.53,-57.6 287.07,-37.09"/>
<polygon fill="red" stroke="red" stroke-width="0.41" points="290.25,-35.61 282.42,-28.46 284.08,-38.93 290.25,-35.61"/>
</g>
</g>
</svg>
