<?xml version="1.0" encoding="UTF-8" standalone="no"?>
<!DOCTYPE svg PUBLIC "-//W3C//DTD SVG 1.1//EN"
 "http://www.w3.org/Graphics/SVG/1.1/DTD/svg11.dtd">
<!-- Generated by graphviz version 12.1.1 (20240910.0053)
 -->
<!-- Pages: 1 -->
<svg width="920pt" height="180pt"
 viewBox="0.00 0.00 919.75 179.70" xmlns="http://www.w3.org/2000/svg" xmlns:xlink="http://www.w3.org/1999/xlink">
<g id="graph0" class="graph" transform="scale(1 1) rotate(0) translate(4 175.7)">
<polygon fill="white" stroke="none" points="-4,4 -4,-175.7 915.75,-175.7 915.75,4 -4,4"/>
<!-- &#45;1 -->
<g id="node1" class="node">
<title>&#45;1</title>
<polygon fill="lightgray" stroke="black" points="23.5,-166.46 0,-166.46 0,-147.96 23.5,-147.96 23.5,-166.46"/>
<text text-anchor="middle" x="11.75" y="-153.91" font-family="Times,serif" font-size="9.00">&#45;1</text>
</g>
<!-- &#45;2 -->
<g id="node2" class="node">
<title>&#45;2</title>
<polygon fill="lightgray" stroke="black" points="65.5,-166.46 42,-166.46 42,-147.96 65.5,-147.96 65.5,-166.46"/>
<text text-anchor="middle" x="53.75" y="-153.91" font-family="Times,serif" font-size="9.00">&#45;2</text>
</g>
<!-- &#45;3 -->
<g id="node3" class="node">
<title>&#45;3</title>
<polygon fill="lightgray" stroke="black" points="149.5,-166.46 126,-166.46 126,-147.96 149.5,-147.96 149.5,-166.46"/>
<text text-anchor="middle" x="137.75" y="-153.91" font-family="Times,serif" font-size="9.00">&#45;3</text>
</g>
<!-- 3 -->
<g id="node24" class="node">
<title>3</title>
<ellipse fill="lightblue" stroke="black" cx="241.75" cy="-14.5" rx="14.5" ry="14.5"/>
<text text-anchor="middle" x="241.75" y="-11.2" font-family="Times,serif" font-size="9.00">3</text>
</g>
<!-- &#45;3&#45;&gt;3 -->
<g id="edge32" class="edge">
<title>&#45;3&#45;&gt;3</title>
<path fill="none" stroke="red" stroke-width="0.12" stroke-dasharray="1,5" d="M143.94,-147.83C160.25,-125.76 204.69,-65.63 227.63,-34.6"/>
<polygon fill="red" stroke="red" stroke-width="0.12" points="230.26,-36.93 233.39,-26.81 224.63,-32.77 230.26,-36.93"/>
</g>
<!-- 109 -->
<g id="node26" class="node">
<title>109</title>
<ellipse fill="white" stroke="black" cx="241.75" cy="-85.85" rx="20.86" ry="20.86"/>
<text text-anchor="middle" x="241.75" y="-82.55" font-family="Times,serif" font-size="9.00">109</text>
</g>
<!-- &#45;3&#45;&gt;109 -->
<g id="edge16" class="edge">
<title>&#45;3&#45;&gt;109</title>
<path fill="none" stroke="red" stroke-width="0.43" stroke-dasharray="1,5" d="M149.68,-148.25C165.76,-137.53 194.81,-118.15 215.99,-104.03"/>
<polygon fill="red" stroke="red" stroke-width="0.43" points="217.9,-106.97 224.27,-98.51 214.01,-101.14 217.9,-106.97"/>
</g>
<!-- 110 -->
<g id="node27" class="node">
<title>110</title>
<ellipse fill="white" stroke="black" cx="510.75" cy="-85.85" rx="20.86" ry="20.86"/>
<text text-anchor="middle" x="510.75" y="-82.55" font-family="Times,serif" font-size="9.00">110</text>
</g>
<!-- &#45;3&#45;&gt;110 -->
<g id="edge2" class="edge">
<title>&#45;3&#45;&gt;110</title>
<path fill="none" stroke="green" stroke-width="0.12" d="M149.29,-147.59C152.24,-145.73 155.51,-143.95 158.75,-142.71 160.64,-141.99 394.66,-105.12 480.04,-91.68"/>
<polygon fill="green" stroke="green" stroke-width="0.12" points="480.4,-95.17 489.73,-90.16 479.31,-88.25 480.4,-95.17"/>
</g>
<!-- 112 -->
<g id="node28" class="node">
<title>112</title>
<ellipse fill="white" stroke="black" cx="353.75" cy="-85.85" rx="20.86" ry="20.86"/>
<text text-anchor="middle" x="353.75" y="-82.55" font-family="Times,serif" font-size="9.00">112</text>
</g>
<!-- &#45;3&#45;&gt;112 -->
<g id="edge30" class="edge">
<title>&#45;3&#45;&gt;112</title>
<path fill="none" stroke="green" stroke-width="0.18" d="M149.85,-147.59C152.68,-145.81 155.75,-144.07 158.75,-142.71 188.35,-129.31 276.61,-106.2 323.57,-94.35"/>
<polygon fill="green" stroke="green" stroke-width="0.18" points="324.37,-97.75 333.22,-91.92 322.67,-90.96 324.37,-97.75"/>
</g>
<!-- &#45;4 -->
<g id="node4" class="node">
<title>&#45;4</title>
<polygon fill="lightgray" stroke="black" points="865.5,-166.46 842,-166.46 842,-147.96 865.5,-147.96 865.5,-166.46"/>
<text text-anchor="middle" x="853.75" y="-153.91" font-family="Times,serif" font-size="9.00">&#45;4</text>
</g>
<!-- &#45;5 -->
<g id="node5" class="node">
<title>&#45;5</title>
<polygon fill="lightgray" stroke="black" points="321.5,-166.46 298,-166.46 298,-147.96 321.5,-147.96 321.5,-166.46"/>
<text text-anchor="middle" x="309.75" y="-153.91" font-family="Times,serif" font-size="9.00">&#45;5</text>
</g>
<!-- &#45;5&#45;&gt;109 -->
<g id="edge18" class="edge">
<title>&#45;5&#45;&gt;109</title>
<path fill="none" stroke="red" stroke-width="0.24" stroke-dasharray="1,5" d="M301.41,-147.7C291.98,-138.09 276.26,-122.05 263.33,-108.86"/>
<polygon fill="red" stroke="red" stroke-width="0.24" points="265.85,-106.43 256.35,-101.74 260.85,-111.33 265.85,-106.43"/>
</g>
<!-- &#45;5&#45;&gt;110 -->
<g id="edge27" class="edge">
<title>&#45;5&#45;&gt;110</title>
<path fill="none" stroke="green" stroke-width="0.36" d="M321.87,-147.64C324.7,-145.86 327.76,-144.1 330.75,-142.71 380.96,-119.32 443.48,-102.43 480.07,-93.68"/>
<polygon fill="green" stroke="green" stroke-width="0.36" points="480.64,-97.14 489.58,-91.46 479.04,-90.33 480.64,-97.14"/>
</g>
<!-- &#45;6 -->
<g id="node6" class="node">
<title>&#45;6</title>
<polygon fill="lightgray" stroke="black" points="107.5,-166.46 84,-166.46 84,-147.96 107.5,-147.96 107.5,-166.46"/>
<text text-anchor="middle" x="95.75" y="-153.91" font-family="Times,serif" font-size="9.00">&#45;6</text>
</g>
<!-- &#45;6&#45;&gt;109 -->
<g id="edge21" class="edge">
<title>&#45;6&#45;&gt;109</title>
<path fill="none" stroke="red" stroke-width="0.28" stroke-dasharray="1,5" d="M108,-147.9C110.82,-146.1 113.85,-144.28 116.75,-142.71 148.68,-125.44 187,-108.9 212.73,-98.36"/>
<polygon fill="red" stroke="red" stroke-width="0.28" points="213.92,-101.65 221.87,-94.65 211.28,-95.17 213.92,-101.65"/>
</g>
<!-- &#45;7 -->
<g id="node7" class="node">
<title>&#45;7</title>
<polygon fill="lightgray" stroke="black" points="237.5,-166.46 214,-166.46 214,-147.96 237.5,-147.96 237.5,-166.46"/>
<text text-anchor="middle" x="225.75" y="-153.91" font-family="Times,serif" font-size="9.00">&#45;7</text>
</g>
<!-- &#45;7&#45;&gt;112 -->
<g id="edge29" class="edge">
<title>&#45;7&#45;&gt;112</title>
<path fill="none" stroke="red" stroke-width="0.18" stroke-dasharray="1,5" d="M237.63,-148.31C240.58,-146.42 243.75,-144.45 246.75,-142.71 273.27,-127.31 304.44,-111.26 326.27,-100.34"/>
<polygon fill="red" stroke="red" stroke-width="0.18" points="327.67,-103.55 335.06,-95.97 324.55,-97.29 327.67,-103.55"/>
</g>
<!-- &#45;8 -->
<g id="node8" class="node">
<title>&#45;8</title>
<polygon fill="lightgray" stroke="black" points="279.5,-166.46 256,-166.46 256,-147.96 279.5,-147.96 279.5,-166.46"/>
<text text-anchor="middle" x="267.75" y="-153.91" font-family="Times,serif" font-size="9.00">&#45;8</text>
</g>
<!-- &#45;8&#45;&gt;112 -->
<g id="edge14" class="edge">
<title>&#45;8&#45;&gt;112</title>
<path fill="none" stroke="red" stroke-width="0.17" d="M278.3,-147.7C291.09,-137.38 313.06,-119.67 330,-106"/>
<polygon fill="red" stroke="red" stroke-width="0.17" points="332.06,-108.84 337.65,-99.83 327.67,-103.39 332.06,-108.84"/>
</g>
<!-- &#45;9 -->
<g id="node9" class="node">
<title>&#45;9</title>
<polygon fill="lightgray" stroke="black" points="455.5,-166.46 432,-166.46 432,-147.96 455.5,-147.96 455.5,-166.46"/>
<text text-anchor="middle" x="443.75" y="-153.91" font-family="Times,serif" font-size="9.00">&#45;9</text>
</g>
<!-- &#45;9&#45;&gt;110 -->
<g id="edge24" class="edge">
<title>&#45;9&#45;&gt;110</title>
<path fill="none" stroke="red" stroke-width="0.13" d="M451.97,-147.7C461.34,-138 477.03,-121.75 489.85,-108.49"/>
<polygon fill="red" stroke="red" stroke-width="0.13" points="492.04,-111.25 496.47,-101.63 487.01,-106.39 492.04,-111.25"/>
</g>
<!-- &#45;9&#45;&gt;112 -->
<g id="edge26" class="edge">
<title>&#45;9&#45;&gt;112</title>
<path fill="none" stroke="green" stroke-width="0.47" d="M432.71,-147.7C419.24,-137.32 396.06,-119.45 378.29,-105.76"/>
<polygon fill="green" stroke="green" stroke-width="0.47" points="380.69,-103.19 370.63,-99.86 376.42,-108.74 380.69,-103.19"/>
</g>
<!-- &#45;10 -->
<g id="node10" class="node">
<title>&#45;10</title>
<polygon fill="lightgray" stroke="black" points="639.75,-166.46 611.75,-166.46 611.75,-147.96 639.75,-147.96 639.75,-166.46"/>
<text text-anchor="middle" x="625.75" y="-153.91" font-family="Times,serif" font-size="9.00">&#45;10</text>
</g>
<!-- &#45;10&#45;&gt;110 -->
<g id="edge28" class="edge">
<title>&#45;10&#45;&gt;110</title>
<path fill="none" stroke="green" stroke-width="0.85" stroke-dasharray="1,5" d="M611.65,-147.7C593.36,-136.67 561.08,-117.2 537.95,-103.25"/>
<polygon fill="green" stroke="green" stroke-width="0.85" points="539.82,-100.3 529.45,-98.13 536.21,-106.29 539.82,-100.3"/>
</g>
<!-- &#45;11 -->
<g id="node11" class="node">
<title>&#45;11</title>
<polygon fill="lightgray" stroke="black" points="731.75,-166.46 703.75,-166.46 703.75,-147.96 731.75,-147.96 731.75,-166.46"/>
<text text-anchor="middle" x="717.75" y="-153.91" font-family="Times,serif" font-size="9.00">&#45;11</text>
</g>
<!-- &#45;11&#45;&gt;110 -->
<g id="edge23" class="edge">
<title>&#45;11&#45;&gt;110</title>
<path fill="none" stroke="red" stroke-width="0.15" d="M704.41,-147.67C701.31,-145.88 697.97,-144.12 694.75,-142.71 642.48,-119.82 577.98,-102.6 540.88,-93.67"/>
<polygon fill="red" stroke="red" stroke-width="0.15" points="541.94,-90.33 531.41,-91.43 540.33,-97.14 541.94,-90.33"/>
</g>
<!-- &#45;12 -->
<g id="node12" class="node">
<title>&#45;12</title>
<polygon fill="lightgray" stroke="black" points="911.75,-166.46 883.75,-166.46 883.75,-147.96 911.75,-147.96 911.75,-166.46"/>
<text text-anchor="middle" x="897.75" y="-153.91" font-family="Times,serif" font-size="9.00">&#45;12</text>
</g>
<!-- &#45;13 -->
<g id="node13" class="node">
<title>&#45;13</title>
<polygon fill="lightgray" stroke="black" points="593.75,-166.46 565.75,-166.46 565.75,-147.96 593.75,-147.96 593.75,-166.46"/>
<text text-anchor="middle" x="579.75" y="-153.91" font-family="Times,serif" font-size="9.00">&#45;13</text>
</g>
<!-- &#45;13&#45;&gt;110 -->
<g id="edge3" class="edge">
<title>&#45;13&#45;&gt;110</title>
<path fill="none" stroke="green" stroke-width="0.48" stroke-dasharray="1,5" d="M571.29,-147.7C561.66,-138.03 545.57,-121.85 532.4,-108.61"/>
<polygon fill="green" stroke="green" stroke-width="0.48" points="535.09,-106.35 525.56,-101.73 530.13,-111.29 535.09,-106.35"/>
</g>
<!-- &#45;14 -->
<g id="node14" class="node">
<title>&#45;14</title>
<polygon fill="lightgray" stroke="black" points="367.75,-166.46 339.75,-166.46 339.75,-147.96 367.75,-147.96 367.75,-166.46"/>
<text text-anchor="middle" x="353.75" y="-153.91" font-family="Times,serif" font-size="9.00">&#45;14</text>
</g>
<!-- &#45;14&#45;&gt;109 -->
<g id="edge12" class="edge">
<title>&#45;14&#45;&gt;109</title>
<path fill="none" stroke="red" stroke-width="0.47" d="M340.02,-147.7C322.23,-136.69 290.84,-117.25 268.32,-103.31"/>
<polygon fill="red" stroke="red" stroke-width="0.47" points="270.23,-100.37 259.88,-98.08 266.54,-106.32 270.23,-100.37"/>
</g>
<!-- &#45;14&#45;&gt;110 -->
<g id="edge9" class="edge">
<title>&#45;14&#45;&gt;110</title>
<path fill="none" stroke="green" stroke-width="0.43" d="M367.69,-147.62C370.64,-145.92 373.77,-144.2 376.75,-142.71 411.95,-125.15 454.03,-108.24 481.52,-97.71"/>
<polygon fill="green" stroke="green" stroke-width="0.43" points="482.59,-101.05 490.69,-94.23 480.1,-94.51 482.59,-101.05"/>
</g>
<!-- &#45;14&#45;&gt;112 -->
<g id="edge15" class="edge">
<title>&#45;14&#45;&gt;112</title>
<path fill="none" stroke="green" stroke-width="0.87" d="M353.75,-147.7C353.75,-140.32 353.75,-129.15 353.75,-118.38"/>
<polygon fill="green" stroke="green" stroke-width="0.87" points="357.25,-118.39 353.75,-108.39 350.25,-118.39 357.25,-118.39"/>
</g>
<!-- &#45;15 -->
<g id="node15" class="node">
<title>&#45;15</title>
<polygon fill="lightgray" stroke="black" points="685.75,-166.46 657.75,-166.46 657.75,-147.96 685.75,-147.96 685.75,-166.46"/>
<text text-anchor="middle" x="671.75" y="-153.91" font-family="Times,serif" font-size="9.00">&#45;15</text>
</g>
<!-- &#45;15&#45;&gt;112 -->
<g id="edge4" class="edge">
<title>&#45;15&#45;&gt;112</title>
<path fill="none" stroke="green" stroke-width="0.34" stroke-dasharray="1,5" d="M659,-147.69C655.76,-145.82 652.22,-144.01 648.75,-142.71 624.15,-133.48 455.27,-104.13 384.67,-92.09"/>
<polygon fill="green" stroke="green" stroke-width="0.34" points="385.56,-88.69 375.12,-90.46 384.39,-95.59 385.56,-88.69"/>
</g>
<!-- 560 -->
<g id="node29" class="node">
<title>560</title>
<ellipse fill="white" stroke="black" cx="687.75" cy="-85.85" rx="20.86" ry="20.86"/>
<text text-anchor="middle" x="687.75" y="-82.55" font-family="Times,serif" font-size="9.00">560</text>
</g>
<!-- &#45;15&#45;&gt;560 -->
<g id="edge31" class="edge">
<title>&#45;15&#45;&gt;560</title>
<path fill="none" stroke="green" stroke-width="0.17" d="M673.71,-147.7C675.53,-139.81 678.35,-127.6 680.98,-116.18"/>
<polygon fill="green" stroke="green" stroke-width="0.17" points="684.33,-117.26 683.16,-106.73 677.51,-115.69 684.33,-117.26"/>
</g>
<!-- &#45;16 -->
<g id="node16" class="node">
<title>&#45;16</title>
<polygon fill="lightgray" stroke="black" points="413.75,-166.46 385.75,-166.46 385.75,-147.96 413.75,-147.96 413.75,-166.46"/>
<text text-anchor="middle" x="399.75" y="-153.91" font-family="Times,serif" font-size="9.00">&#45;16</text>
</g>
<!-- &#45;16&#45;&gt;112 -->
<g id="edge25" class="edge">
<title>&#45;16&#45;&gt;112</title>
<path fill="none" stroke="red" stroke-width="0.26" d="M394.11,-147.7C388.32,-138.97 379.02,-124.94 370.8,-112.56"/>
<polygon fill="red" stroke="red" stroke-width="0.26" points="373.74,-110.65 365.29,-104.26 367.9,-114.52 373.74,-110.65"/>
</g>
<!-- &#45;17 -->
<g id="node17" class="node">
<title>&#45;17</title>
<polygon fill="lightgray" stroke="black" points="195.75,-166.46 167.75,-166.46 167.75,-147.96 195.75,-147.96 195.75,-166.46"/>
<text text-anchor="middle" x="181.75" y="-153.91" font-family="Times,serif" font-size="9.00">&#45;17</text>
</g>
<!-- &#45;17&#45;&gt;112 -->
<g id="edge1" class="edge">
<title>&#45;17&#45;&gt;112</title>
<path fill="none" stroke="red" stroke-width="0.26" stroke-dasharray="1,5" d="M195.65,-147.53C198.6,-145.84 201.74,-144.14 204.75,-142.71 245.08,-123.49 293.92,-106.26 324.42,-96.18"/>
<polygon fill="red" stroke="red" stroke-width="0.26" points="325.22,-99.6 333.64,-93.17 323.05,-92.95 325.22,-99.6"/>
</g>
<!-- &#45;18 -->
<g id="node18" class="node">
<title>&#45;18</title>
<polygon fill="lightgray" stroke="black" points="501.75,-166.46 473.75,-166.46 473.75,-147.96 501.75,-147.96 501.75,-166.46"/>
<text text-anchor="middle" x="487.75" y="-153.91" font-family="Times,serif" font-size="9.00">&#45;18</text>
</g>
<!-- &#45;18&#45;&gt;110 -->
<g id="edge19" class="edge">
<title>&#45;18&#45;&gt;110</title>
<path fill="none" stroke="green" stroke-width="0.63" stroke-dasharray="1,5" d="M490.57,-147.7C493.18,-139.84 497.21,-127.68 500.99,-116.29"/>
<polygon fill="green" stroke="green" stroke-width="0.63" points="504.21,-117.69 504.03,-107.1 497.57,-115.49 504.21,-117.69"/>
</g>
<!-- &#45;18&#45;&gt;112 -->
<g id="edge10" class="edge">
<title>&#45;18&#45;&gt;112</title>
<path fill="none" stroke="red" stroke-width="0.19" stroke-dasharray="1,5" d="M473.72,-147.78C470.78,-146.07 467.68,-144.3 464.75,-142.71 436.73,-127.46 404.04,-111.19 381.43,-100.17"/>
<polygon fill="red" stroke="red" stroke-width="0.19" points="383.18,-97.13 372.66,-95.91 380.13,-103.42 383.18,-97.13"/>
</g>
<!-- &#45;19 -->
<g id="node19" class="node">
<title>&#45;19</title>
<polygon fill="lightgray" stroke="black" points="777.75,-166.46 749.75,-166.46 749.75,-147.96 777.75,-147.96 777.75,-166.46"/>
<text text-anchor="middle" x="763.75" y="-153.91" font-family="Times,serif" font-size="9.00">&#45;19</text>
</g>
<!-- &#45;19&#45;&gt;110 -->
<g id="edge8" class="edge">
<title>&#45;19&#45;&gt;110</title>
<path fill="none" stroke="red" stroke-width="0.14" stroke-dasharray="1,5" d="M750.47,-147.53C747.36,-145.76 744.01,-144.03 740.75,-142.71 672.34,-115.03 586.71,-98.7 541.7,-91.41"/>
<polygon fill="red" stroke="red" stroke-width="0.14" points="542.32,-87.97 531.89,-89.87 541.23,-94.88 542.32,-87.97"/>
</g>
<!-- 657 -->
<g id="node30" class="node">
<title>657</title>
<ellipse fill="white" stroke="black" cx="763.75" cy="-85.85" rx="20.86" ry="20.86"/>
<text text-anchor="middle" x="763.75" y="-82.55" font-family="Times,serif" font-size="9.00">657</text>
</g>
<!-- &#45;19&#45;&gt;657 -->
<g id="edge33" class="edge">
<title>&#45;19&#45;&gt;657</title>
<path fill="none" stroke="green" stroke-width="0.4" d="M763.75,-147.7C763.75,-140.08 763.75,-128.43 763.75,-117.35"/>
<polygon fill="green" stroke="green" stroke-width="0.4" points="767.25,-117.67 763.75,-107.67 760.25,-117.67 767.25,-117.67"/>
</g>
<!-- &#45;20 -->
<g id="node20" class="node">
<title>&#45;20</title>
<polygon fill="lightgray" stroke="black" points="547.75,-166.46 519.75,-166.46 519.75,-147.96 547.75,-147.96 547.75,-166.46"/>
<text text-anchor="middle" x="533.75" y="-153.91" font-family="Times,serif" font-size="9.00">&#45;20</text>
</g>
<!-- &#45;20&#45;&gt;110 -->
<g id="edge13" class="edge">
<title>&#45;20&#45;&gt;110</title>
<path fill="none" stroke="red" stroke-width="0.16" stroke-dasharray="1,5" d="M530.93,-147.7C528.27,-139.68 524.12,-127.18 520.28,-115.59"/>
<polygon fill="red" stroke="red" stroke-width="0.16" points="523.71,-114.81 517.24,-106.42 517.07,-117.02 523.71,-114.81"/>
</g>
<!-- &#45;20&#45;&gt;112 -->
<g id="edge7" class="edge">
<title>&#45;20&#45;&gt;112</title>
<path fill="none" stroke="red" stroke-width="0.27" d="M519.87,-147.5C516.91,-145.8 513.77,-144.12 510.75,-142.71 467.81,-122.69 415.55,-105.42 383.48,-95.58"/>
<polygon fill="red" stroke="red" stroke-width="0.27" points="384.79,-92.32 374.2,-92.77 382.76,-99.02 384.79,-92.32"/>
</g>
<!-- 0 -->
<g id="node21" class="node">
<title>0</title>
<ellipse fill="lightblue" stroke="black" cx="306.75" cy="-14.5" rx="14.5" ry="14.5"/>
<text text-anchor="middle" x="306.75" y="-11.2" font-family="Times,serif" font-size="9.00">0</text>
</g>
<!-- 1 -->
<g id="node22" class="node">
<title>1</title>
<ellipse fill="lightblue" stroke="black" cx="809.75" cy="-157.21" rx="14.5" ry="14.5"/>
<text text-anchor="middle" x="809.75" y="-153.91" font-family="Times,serif" font-size="9.00">1</text>
</g>
<!-- 1&#45;&gt;560 -->
<g id="edge34" class="edge">
<title>1&#45;&gt;560</title>
<path fill="none" stroke="green" stroke-width="0.24" d="M797.6,-149.02C794.1,-146.97 790.28,-144.74 786.75,-142.71 762.39,-128.69 734.48,-112.98 714.53,-101.8"/>
<polygon fill="green" stroke="green" stroke-width="0.24" points="716.44,-98.86 706.01,-97.03 713.02,-104.97 716.44,-98.86"/>
</g>
<!-- 2 -->
<g id="node23" class="node">
<title>2</title>
<ellipse fill="lightblue" stroke="black" cx="353.75" cy="-14.5" rx="14.5" ry="14.5"/>
<text text-anchor="middle" x="353.75" y="-11.2" font-family="Times,serif" font-size="9.00">2</text>
</g>
<!-- 4 -->
<g id="node25" class="node">
<title>4</title>
<ellipse fill="lightblue" stroke="black" cx="400.75" cy="-14.5" rx="14.5" ry="14.5"/>
<text text-anchor="middle" x="400.75" y="-11.2" font-family="Times,serif" font-size="9.00">4</text>
</g>
<!-- 4&#45;&gt;4 -->
<g id="edge11" class="edge">
<title>4&#45;&gt;4</title>
<path fill="none" stroke="red" stroke-width="0.32" stroke-dasharray="1,5" d="M411.07,-24.94C421.56,-31.08 433.25,-27.6 433.25,-14.5 433.25,-5.49 427.72,-1.03 420.86,-1.12"/>
<polygon fill="red" stroke="red" stroke-width="0.32" points="420.1,2.31 411.53,-3.92 422.11,-4.4 420.1,2.31"/>
</g>
<!-- 109&#45;&gt;3 -->
<g id="edge20" class="edge">
<title>109&#45;&gt;3</title>
<path fill="none" stroke="green" stroke-width="0.57" stroke-dasharray="1,5" d="M241.75,-64.79C241.75,-57.07 241.75,-48.16 241.75,-40.06"/>
<polygon fill="green" stroke="green" stroke-width="0.57" points="245.25,-40.21 241.75,-30.21 238.25,-40.21 245.25,-40.21"/>
</g>
<!-- 112&#45;&gt;0 -->
<g id="edge6" class="edge">
<title>112&#45;&gt;0</title>
<path fill="none" stroke="red" stroke-width="0.3" stroke-dasharray="1,5" d="M342.37,-68.06C335.73,-58.26 327.31,-45.84 320.33,-35.53"/>
<polygon fill="red" stroke="red" stroke-width="0.3" points="323.4,-33.83 314.89,-27.51 317.61,-37.76 323.4,-33.83"/>
</g>
<!-- 112&#45;&gt;2 -->
<g id="edge5" class="edge">
<title>112&#45;&gt;2</title>
<path fill="none" stroke="green" stroke-width="0.42" d="M353.75,-64.79C353.75,-56.98 353.75,-47.96 353.75,-39.78"/>
<polygon fill="green" stroke="green" stroke-width="0.42" points="357.25,-39.99 353.75,-29.99 350.25,-39.99 357.25,-39.99"/>
</g>
<!-- 112&#45;&gt;3 -->
<g id="edge22" class="edge">
<title>112&#45;&gt;3</title>
<path fill="none" stroke="green" stroke-width="0.37" d="M336.25,-74.01C316.4,-61.72 284.05,-41.69 262.83,-28.55"/>
<polygon fill="green" stroke="green" stroke-width="0.37" points="264.77,-25.64 254.43,-23.35 261.09,-31.59 264.77,-25.64"/>
</g>
<!-- 112&#45;&gt;4 -->
<g id="edge17" class="edge">
<title>112&#45;&gt;4</title>
<path fill="none" stroke="green" stroke-width="0.45" stroke-dasharray="1,5" d="M365.13,-68.06C371.7,-58.36 380.02,-46.09 386.96,-35.85"/>
<polygon fill="green" stroke="green" stroke-width="0.45" points="389.77,-37.94 392.48,-27.7 383.97,-34.01 389.77,-37.94"/>
</g>
</g>
</svg>
