<?xml version="1.0" encoding="UTF-8" standalone="no"?>
<!DOCTYPE svg PUBLIC "-//W3C//DTD SVG 1.1//EN"
 "http://www.w3.org/Graphics/SVG/1.1/DTD/svg11.dtd">
<!-- Generated by graphviz version 12.1.1 (20240910.0053)
 -->
<!-- Pages: 1 -->
<svg width="796pt" height="247pt"
 viewBox="0.00 0.00 795.86 246.93" xmlns="http://www.w3.org/2000/svg" xmlns:xlink="http://www.w3.org/1999/xlink">
<g id="graph0" class="graph" transform="scale(1 1) rotate(0) translate(4 242.93)">
<polygon fill="white" stroke="none" points="-4,4 -4,-242.93 791.86,-242.93 791.86,4 -4,4"/>
<!-- &#45;1 -->
<g id="node1" class="node">
<title>&#45;1</title>
<polygon fill="lightgray" stroke="black" points="519.61,-172.82 496.11,-172.82 496.11,-154.32 519.61,-154.32 519.61,-172.82"/>
<text text-anchor="middle" x="507.86" y="-160.27" font-family="Times,serif" font-size="9.00">&#45;1</text>
</g>
<!-- 198 -->
<g id="node27" class="node">
<title>198</title>
<ellipse fill="white" stroke="black" cx="469.86" cy="-85.85" rx="20.86" ry="20.86"/>
<text text-anchor="middle" x="469.86" y="-82.55" font-family="Times,serif" font-size="9.00">198</text>
</g>
<!-- &#45;1&#45;&gt;198 -->
<g id="edge12" class="edge">
<title>&#45;1&#45;&gt;198</title>
<path fill="none" stroke="green" stroke-width="0.42" d="M503.5,-153.88C498.65,-144.23 490.58,-128.14 483.56,-114.15"/>
<polygon fill="green" stroke="green" stroke-width="0.42" points="486.82,-112.84 479.2,-105.47 480.56,-115.98 486.82,-112.84"/>
</g>
<!-- &#45;2 -->
<g id="node2" class="node">
<title>&#45;2</title>
<polygon fill="lightgray" stroke="black" points="435.61,-172.82 412.11,-172.82 412.11,-154.32 435.61,-154.32 435.61,-172.82"/>
<text text-anchor="middle" x="423.86" y="-160.27" font-family="Times,serif" font-size="9.00">&#45;2</text>
</g>
<!-- 197 -->
<g id="node26" class="node">
<title>197</title>
<ellipse fill="white" stroke="black" cx="289.86" cy="-85.85" rx="20.86" ry="20.86"/>
<text text-anchor="middle" x="289.86" y="-82.55" font-family="Times,serif" font-size="9.00">197</text>
</g>
<!-- &#45;2&#45;&gt;197 -->
<g id="edge20" class="edge">
<title>&#45;2&#45;&gt;197</title>
<path fill="none" stroke="green" stroke-width="0.44" d="M415.78,-153.84C412.07,-150.13 407.47,-145.92 402.86,-142.71 376.27,-124.19 342.63,-108.41 318.99,-98.39"/>
<polygon fill="green" stroke="green" stroke-width="0.44" points="320.41,-95.19 309.83,-94.58 317.72,-101.65 320.41,-95.19"/>
</g>
<!-- &#45;2&#45;&gt;198 -->
<g id="edge5" class="edge">
<title>&#45;2&#45;&gt;198</title>
<path fill="none" stroke="green" stroke-width="0.18" d="M429.14,-153.88C435.19,-143.91 445.42,-127.09 454.1,-112.79"/>
<polygon fill="green" stroke="green" stroke-width="0.18" points="456.92,-114.89 459.12,-104.53 450.94,-111.25 456.92,-114.89"/>
</g>
<!-- 199 -->
<g id="node28" class="node">
<title>199</title>
<ellipse fill="white" stroke="black" cx="367.86" cy="-85.85" rx="20.86" ry="20.86"/>
<text text-anchor="middle" x="367.86" y="-82.55" font-family="Times,serif" font-size="9.00">199</text>
</g>
<!-- &#45;2&#45;&gt;199 -->
<g id="edge24" class="edge">
<title>&#45;2&#45;&gt;199</title>
<path fill="none" stroke="green" stroke-width="0.13" d="M417.44,-153.88C409.8,-143.56 396.73,-125.88 385.92,-111.28"/>
<polygon fill="green" stroke="green" stroke-width="0.13" points="388.76,-109.23 380,-103.27 383.13,-113.39 388.76,-109.23"/>
</g>
<!-- 200 -->
<g id="node29" class="node">
<title>200</title>
<ellipse fill="white" stroke="black" cx="595.86" cy="-85.85" rx="20.86" ry="20.86"/>
<text text-anchor="middle" x="595.86" y="-82.55" font-family="Times,serif" font-size="9.00">200</text>
</g>
<!-- &#45;2&#45;&gt;200 -->
<g id="edge38" class="edge">
<title>&#45;2&#45;&gt;200</title>
<path fill="none" stroke="green" stroke-width="0.57" d="M431.4,-154C435.14,-150.15 439.92,-145.78 444.86,-142.71 483.3,-118.83 533.52,-102.81 565.24,-94.26"/>
<polygon fill="green" stroke="green" stroke-width="0.57" points="566.01,-97.68 574.81,-91.77 564.25,-90.91 566.01,-97.68"/>
</g>
<!-- &#45;3 -->
<g id="node3" class="node">
<title>&#45;3</title>
<polygon fill="lightgray" stroke="black" points="347.61,-172.82 324.11,-172.82 324.11,-154.32 347.61,-154.32 347.61,-172.82"/>
<text text-anchor="middle" x="335.86" y="-160.27" font-family="Times,serif" font-size="9.00">&#45;3</text>
</g>
<!-- &#45;3&#45;&gt;197 -->
<g id="edge33" class="edge">
<title>&#45;3&#45;&gt;197</title>
<path fill="none" stroke="red" stroke-width="0.15" d="M330.58,-153.88C324.52,-143.91 314.3,-127.09 305.62,-112.79"/>
<polygon fill="red" stroke="red" stroke-width="0.15" points="308.76,-111.22 300.58,-104.49 302.78,-114.86 308.76,-111.22"/>
</g>
<!-- &#45;3&#45;&gt;198 -->
<g id="edge31" class="edge">
<title>&#45;3&#45;&gt;198</title>
<path fill="none" stroke="green" stroke-width="0.54" d="M343.47,-154.12C347.23,-150.3 352,-145.92 356.86,-142.71 390.42,-120.56 404.51,-125.88 439.86,-106.71 441.23,-105.97 442.62,-105.18 444.01,-104.36"/>
<polygon fill="green" stroke="green" stroke-width="0.54" points="445.72,-107.42 452.35,-99.16 442.01,-101.49 445.72,-107.42"/>
</g>
<!-- &#45;3&#45;&gt;199 -->
<g id="edge28" class="edge">
<title>&#45;3&#45;&gt;199</title>
<path fill="none" stroke="red" stroke-width="0.36" d="M339.53,-153.88C343.52,-144.44 350.1,-128.86 355.92,-115.1"/>
<polygon fill="red" stroke="red" stroke-width="0.36" points="359.09,-116.59 359.76,-106.02 352.64,-113.87 359.09,-116.59"/>
</g>
<!-- &#45;4 -->
<g id="node4" class="node">
<title>&#45;4</title>
<polygon fill="lightgray" stroke="black" points="100.61,-238.93 77.11,-238.93 77.11,-220.43 100.61,-220.43 100.61,-238.93"/>
<text text-anchor="middle" x="88.86" y="-226.38" font-family="Times,serif" font-size="9.00">&#45;4</text>
</g>
<!-- &#45;5 -->
<g id="node5" class="node">
<title>&#45;5</title>
<polygon fill="lightgray" stroke="black" points="477.61,-172.82 454.11,-172.82 454.11,-154.32 477.61,-154.32 477.61,-172.82"/>
<text text-anchor="middle" x="465.86" y="-160.27" font-family="Times,serif" font-size="9.00">&#45;5</text>
</g>
<!-- &#45;5&#45;&gt;197 -->
<g id="edge18" class="edge">
<title>&#45;5&#45;&gt;197</title>
<path fill="none" stroke="red" stroke-width="0.42" stroke-dasharray="1,5" d="M458.36,-153.94C454.63,-150.07 449.85,-145.71 444.86,-142.71 401.85,-116.87 384.85,-124.31 337.86,-106.71 331.54,-104.34 324.82,-101.66 318.46,-99.06"/>
<polygon fill="red" stroke="red" stroke-width="0.42" points="320.07,-95.93 309.49,-95.32 317.38,-102.4 320.07,-95.93"/>
</g>
<!-- &#45;5&#45;&gt;198 -->
<g id="edge25" class="edge">
<title>&#45;5&#45;&gt;198</title>
<path fill="none" stroke="red" stroke-width="0.38" d="M466.32,-153.88C466.79,-144.93 467.56,-130.46 468.25,-117.26"/>
<polygon fill="red" stroke="red" stroke-width="0.38" points="471.73,-117.81 468.76,-107.64 464.74,-117.44 471.73,-117.81"/>
</g>
<!-- &#45;5&#45;&gt;199 -->
<g id="edge16" class="edge">
<title>&#45;5&#45;&gt;199</title>
<path fill="none" stroke="green" stroke-width="0.15" d="M457.51,-154.19C453.75,-150.55 449.18,-146.3 444.86,-142.71 428.13,-128.83 408.25,-114.46 392.88,-103.77"/>
<polygon fill="green" stroke="green" stroke-width="0.15" points="395.26,-101.16 385.04,-98.36 391.29,-106.92 395.26,-101.16"/>
</g>
<!-- &#45;5&#45;&gt;200 -->
<g id="edge22" class="edge">
<title>&#45;5&#45;&gt;200</title>
<path fill="none" stroke="green" stroke-width="0.17" stroke-dasharray="1,5" d="M473.96,-153.87C477.68,-150.16 482.27,-145.96 486.86,-142.71 512.53,-124.56 544.92,-108.74 567.69,-98.61"/>
<polygon fill="green" stroke="green" stroke-width="0.17" points="568.81,-101.94 576.57,-94.74 566.01,-95.53 568.81,-101.94"/>
</g>
<!-- &#45;6 -->
<g id="node6" class="node">
<title>&#45;6</title>
<polygon fill="lightgray" stroke="black" points="430.61,-95.1 407.11,-95.1 407.11,-76.6 430.61,-76.6 430.61,-95.1"/>
<text text-anchor="middle" x="418.86" y="-82.55" font-family="Times,serif" font-size="9.00">&#45;6</text>
</g>
<!-- 1 -->
<g id="node22" class="node">
<title>1</title>
<ellipse fill="lightblue" stroke="black" cx="392.86" cy="-14.5" rx="14.5" ry="14.5"/>
<text text-anchor="middle" x="392.86" y="-11.2" font-family="Times,serif" font-size="9.00">1</text>
</g>
<!-- &#45;6&#45;&gt;1 -->
<g id="edge45" class="edge">
<title>&#45;6&#45;&gt;1</title>
<path fill="none" stroke="green" stroke-width="0.14" d="M415.67,-76.35C412.11,-66.83 406.19,-51.04 401.27,-37.93"/>
<polygon fill="green" stroke="green" stroke-width="0.14" points="404.62,-36.9 397.84,-28.77 398.07,-39.36 404.62,-36.9"/>
</g>
<!-- &#45;7 -->
<g id="node7" class="node">
<title>&#45;7</title>
<polygon fill="lightgray" stroke="black" points="305.61,-172.82 282.11,-172.82 282.11,-154.32 305.61,-154.32 305.61,-172.82"/>
<text text-anchor="middle" x="293.86" y="-160.27" font-family="Times,serif" font-size="9.00">&#45;7</text>
</g>
<!-- &#45;7&#45;&gt;197 -->
<g id="edge1" class="edge">
<title>&#45;7&#45;&gt;197</title>
<path fill="none" stroke="red" stroke-width="0.23" d="M293.4,-153.88C292.93,-144.93 292.16,-130.46 291.47,-117.26"/>
<polygon fill="red" stroke="red" stroke-width="0.23" points="294.97,-117.21 290.95,-107.41 287.98,-117.58 294.97,-117.21"/>
</g>
<!-- &#45;7&#45;&gt;199 -->
<g id="edge11" class="edge">
<title>&#45;7&#45;&gt;199</title>
<path fill="none" stroke="green" stroke-width="0.18" stroke-dasharray="1,5" d="M302.35,-153.88C313.11,-142.87 332.05,-123.49 346.81,-108.39"/>
<polygon fill="green" stroke="green" stroke-width="0.18" points="348.99,-111.17 353.47,-101.57 343.98,-106.28 348.99,-111.17"/>
</g>
<!-- &#45;8 -->
<g id="node8" class="node">
<title>&#45;8</title>
<polygon fill="lightgray" stroke="black" points="695.61,-172.82 672.11,-172.82 672.11,-154.32 695.61,-154.32 695.61,-172.82"/>
<text text-anchor="middle" x="683.86" y="-160.27" font-family="Times,serif" font-size="9.00">&#45;8</text>
</g>
<!-- &#45;8&#45;&gt;200 -->
<g id="edge6" class="edge">
<title>&#45;8&#45;&gt;200</title>
<path fill="none" stroke="green" stroke-width="0.7" stroke-dasharray="1,5" d="M674.98,-153.94C671.28,-150.41 666.91,-146.31 662.86,-142.71 648.97,-130.37 633,-117.03 620.14,-106.48"/>
<polygon fill="green" stroke="green" stroke-width="0.7" points="622.58,-103.95 612.62,-100.34 618.15,-109.37 622.58,-103.95"/>
</g>
<!-- &#45;9 -->
<g id="node9" class="node">
<title>&#45;9</title>
<polygon fill="lightgray" stroke="black" points="607.61,-172.82 584.11,-172.82 584.11,-154.32 607.61,-154.32 607.61,-172.82"/>
<text text-anchor="middle" x="595.86" y="-160.27" font-family="Times,serif" font-size="9.00">&#45;9</text>
</g>
<!-- &#45;9&#45;&gt;197 -->
<g id="edge34" class="edge">
<title>&#45;9&#45;&gt;197</title>
<path fill="none" stroke="red" stroke-width="0.36" stroke-dasharray="1,5" d="M588.96,-153.95C585.22,-149.88 580.27,-145.35 574.86,-142.71 479.12,-95.97 440.5,-135.28 337.86,-106.71 331.36,-104.9 324.56,-102.45 318.19,-99.89"/>
<polygon fill="red" stroke="red" stroke-width="0.36" points="319.71,-96.74 309.14,-96.07 316.99,-103.19 319.71,-96.74"/>
</g>
<!-- &#45;9&#45;&gt;198 -->
<g id="edge26" class="edge">
<title>&#45;9&#45;&gt;198</title>
<path fill="none" stroke="green" stroke-width="0.26" stroke-dasharray="1,5" d="M587.73,-153.9C584.01,-150.2 579.42,-145.99 574.86,-142.71 550.58,-125.26 520.17,-109.68 498.33,-99.43"/>
<polygon fill="green" stroke="green" stroke-width="0.26" points="499.87,-96.29 489.32,-95.28 496.94,-102.64 499.87,-96.29"/>
</g>
<!-- &#45;9&#45;&gt;200 -->
<g id="edge15" class="edge">
<title>&#45;9&#45;&gt;200</title>
<path fill="none" stroke="red" stroke-width="0.44" d="M595.86,-153.88C595.86,-145.02 595.86,-130.75 595.86,-117.65"/>
<polygon fill="red" stroke="red" stroke-width="0.44" points="599.36,-117.73 595.86,-107.73 592.36,-117.73 599.36,-117.73"/>
</g>
<!-- &#45;10 -->
<g id="node10" class="node">
<title>&#45;10</title>
<polygon fill="lightgray" stroke="black" points="787.86,-172.82 759.86,-172.82 759.86,-154.32 787.86,-154.32 787.86,-172.82"/>
<text text-anchor="middle" x="773.86" y="-160.27" font-family="Times,serif" font-size="9.00">&#45;10</text>
</g>
<!-- &#45;10&#45;&gt;200 -->
<g id="edge23" class="edge">
<title>&#45;10&#45;&gt;200</title>
<path fill="none" stroke="green" stroke-width="0.35" stroke-dasharray="1,5" d="M765.49,-154.02C761.36,-150.17 756.14,-145.8 750.86,-142.71 710.59,-119.17 658.73,-102.95 626.39,-94.28"/>
<polygon fill="green" stroke="green" stroke-width="0.35" points="627.28,-90.9 616.72,-91.76 625.52,-97.67 627.28,-90.9"/>
</g>
<!-- &#45;11 -->
<g id="node11" class="node">
<title>&#45;11</title>
<polygon fill="lightgray" stroke="black" points="217.86,-172.82 189.86,-172.82 189.86,-154.32 217.86,-154.32 217.86,-172.82"/>
<text text-anchor="middle" x="203.86" y="-160.27" font-family="Times,serif" font-size="9.00">&#45;11</text>
</g>
<!-- &#45;11&#45;&gt;197 -->
<g id="edge17" class="edge">
<title>&#45;11&#45;&gt;197</title>
<path fill="none" stroke="green" stroke-width="0.33" d="M213.72,-153.88C226.66,-142.5 249.73,-122.18 267.1,-106.89"/>
<polygon fill="green" stroke="green" stroke-width="0.33" points="269.06,-109.83 274.25,-100.59 264.43,-104.58 269.06,-109.83"/>
</g>
<!-- &#45;11&#45;&gt;199 -->
<g id="edge9" class="edge">
<title>&#45;11&#45;&gt;199</title>
<path fill="none" stroke="green" stroke-width="0.43" stroke-dasharray="1,5" d="M212.19,-153.94C216.31,-150.07 221.53,-145.71 226.86,-142.71 272.05,-117.26 291.14,-129.23 337.86,-106.71 339.27,-106.03 340.68,-105.3 342.1,-104.52"/>
<polygon fill="green" stroke="green" stroke-width="0.43" points="343.89,-107.53 350.64,-99.37 340.27,-101.54 343.89,-107.53"/>
</g>
<!-- &#45;12 -->
<g id="node12" class="node">
<title>&#45;12</title>
<polygon fill="lightgray" stroke="black" points="565.86,-172.82 537.86,-172.82 537.86,-154.32 565.86,-154.32 565.86,-172.82"/>
<text text-anchor="middle" x="551.86" y="-160.27" font-family="Times,serif" font-size="9.00">&#45;12</text>
</g>
<!-- &#45;12&#45;&gt;198 -->
<g id="edge7" class="edge">
<title>&#45;12&#45;&gt;198</title>
<path fill="none" stroke="green" stroke-width="0.37" stroke-dasharray="1,5" d="M542.45,-153.88C530.38,-142.73 509.03,-123.02 492.6,-107.85"/>
<polygon fill="green" stroke="green" stroke-width="0.37" points="495.12,-105.41 485.4,-101.2 490.37,-110.55 495.12,-105.41"/>
</g>
<!-- &#45;13 -->
<g id="node13" class="node">
<title>&#45;13</title>
<polygon fill="lightgray" stroke="black" points="393.86,-172.82 365.86,-172.82 365.86,-154.32 393.86,-154.32 393.86,-172.82"/>
<text text-anchor="middle" x="379.86" y="-160.27" font-family="Times,serif" font-size="9.00">&#45;13</text>
</g>
<!-- &#45;13&#45;&gt;198 -->
<g id="edge4" class="edge">
<title>&#45;13&#45;&gt;198</title>
<path fill="none" stroke="red" stroke-width="0.28" d="M389.68,-154.03C393.74,-150.51 398.52,-146.4 402.86,-142.71 417.16,-130.57 433.31,-117.1 446.17,-106.43"/>
<polygon fill="red" stroke="red" stroke-width="0.28" points="448.3,-109.21 453.76,-100.14 443.83,-103.83 448.3,-109.21"/>
</g>
<!-- &#45;13&#45;&gt;199 -->
<g id="edge30" class="edge">
<title>&#45;13&#45;&gt;199</title>
<path fill="none" stroke="red" stroke-width="0.14" stroke-dasharray="1,5" d="M378.48,-153.88C377.04,-144.78 374.69,-129.98 372.57,-116.59"/>
<polygon fill="red" stroke="red" stroke-width="0.14" points="376.07,-116.29 371.05,-106.96 369.15,-117.38 376.07,-116.29"/>
</g>
<!-- &#45;14 -->
<g id="node14" class="node">
<title>&#45;14</title>
<polygon fill="lightgray" stroke="black" points="58.86,-238.93 30.86,-238.93 30.86,-220.43 58.86,-220.43 58.86,-238.93"/>
<text text-anchor="middle" x="44.86" y="-226.38" font-family="Times,serif" font-size="9.00">&#45;14</text>
</g>
<!-- &#45;14&#45;&gt;197 -->
<g id="edge8" class="edge">
<title>&#45;14&#45;&gt;197</title>
<path fill="none" stroke="red" stroke-width="0.11" d="M46.78,-220.15C51.13,-202.84 63.4,-163.49 88.86,-142.71 138.53,-102.18 215.6,-90.99 258.44,-87.95"/>
<polygon fill="red" stroke="red" stroke-width="0.11" points="258.62,-91.44 268.39,-87.35 258.2,-84.46 258.62,-91.44"/>
</g>
<!-- 276 -->
<g id="node30" class="node">
<title>276</title>
<ellipse fill="white" stroke="black" cx="20.86" cy="-163.57" rx="20.86" ry="20.86"/>
<text text-anchor="middle" x="20.86" y="-160.27" font-family="Times,serif" font-size="9.00">276</text>
</g>
<!-- &#45;14&#45;&gt;276 -->
<g id="edge42" class="edge">
<title>&#45;14&#45;&gt;276</title>
<path fill="none" stroke="green" stroke-width="0.4" d="M41.62,-220.03C39.04,-213.13 35.27,-203.05 31.64,-193.37"/>
<polygon fill="green" stroke="green" stroke-width="0.4" points="34.97,-192.28 28.19,-184.14 28.42,-194.74 34.97,-192.28"/>
</g>
<!-- &#45;15 -->
<g id="node15" class="node">
<title>&#45;15</title>
<polygon fill="lightgray" stroke="black" points="263.86,-172.82 235.86,-172.82 235.86,-154.32 263.86,-154.32 263.86,-172.82"/>
<text text-anchor="middle" x="249.86" y="-160.27" font-family="Times,serif" font-size="9.00">&#45;15</text>
</g>
<!-- &#45;15&#45;&gt;197 -->
<g id="edge40" class="edge">
<title>&#45;15&#45;&gt;197</title>
<path fill="none" stroke="green" stroke-width="0.26" stroke-dasharray="1,5" d="M254.45,-153.88C259.6,-144.13 268.21,-127.83 275.65,-113.75"/>
<polygon fill="green" stroke="green" stroke-width="0.26" points="278.56,-115.73 280.14,-105.25 272.37,-112.46 278.56,-115.73"/>
</g>
<!-- &#45;15&#45;&gt;199 -->
<g id="edge39" class="edge">
<title>&#45;15&#45;&gt;199</title>
<path fill="none" stroke="green" stroke-width="0.47" d="M258.9,-154C263.01,-150.31 268.01,-146.09 272.86,-142.71 299.95,-123.82 309.62,-123.84 337.86,-106.71 339.19,-105.9 340.56,-105.06 341.92,-104.2"/>
<polygon fill="green" stroke="green" stroke-width="0.47" points="343.78,-107.17 350.28,-98.81 339.98,-101.29 343.78,-107.17"/>
</g>
<!-- &#45;16 -->
<g id="node16" class="node">
<title>&#45;16</title>
<polygon fill="lightgray" stroke="black" points="146.86,-238.93 118.86,-238.93 118.86,-220.43 146.86,-220.43 146.86,-238.93"/>
<text text-anchor="middle" x="132.86" y="-226.38" font-family="Times,serif" font-size="9.00">&#45;16</text>
</g>
<!-- &#45;17 -->
<g id="node17" class="node">
<title>&#45;17</title>
<polygon fill="lightgray" stroke="black" points="125.86,-172.82 97.86,-172.82 97.86,-154.32 125.86,-154.32 125.86,-172.82"/>
<text text-anchor="middle" x="111.86" y="-160.27" font-family="Times,serif" font-size="9.00">&#45;17</text>
</g>
<!-- &#45;17&#45;&gt;197 -->
<g id="edge10" class="edge">
<title>&#45;17&#45;&gt;197</title>
<path fill="none" stroke="red" stroke-width="0.61" stroke-dasharray="1,5" d="M120.23,-154.02C124.36,-150.17 129.58,-145.8 134.86,-142.71 175.13,-119.17 226.98,-102.95 259.33,-94.28"/>
<polygon fill="red" stroke="red" stroke-width="0.61" points="259.81,-97.77 268.61,-91.87 258.05,-91 259.81,-97.77"/>
</g>
<!-- &#45;18 -->
<g id="node18" class="node">
<title>&#45;18</title>
<polygon fill="lightgray" stroke="black" points="653.86,-172.82 625.86,-172.82 625.86,-154.32 653.86,-154.32 653.86,-172.82"/>
<text text-anchor="middle" x="639.86" y="-160.27" font-family="Times,serif" font-size="9.00">&#45;18</text>
</g>
<!-- &#45;18&#45;&gt;199 -->
<g id="edge2" class="edge">
<title>&#45;18&#45;&gt;199</title>
<path fill="none" stroke="red" stroke-width="0.22" d="M632.14,-153.98C628.01,-149.92 622.59,-145.39 616.86,-142.71 527.51,-100.91 489.69,-142.73 397.86,-106.71 396.07,-106.01 394.28,-105.19 392.51,-104.29"/>
<polygon fill="red" stroke="red" stroke-width="0.22" points="394.68,-101.5 384.28,-99.48 391.14,-107.54 394.68,-101.5"/>
</g>
<!-- &#45;18&#45;&gt;200 -->
<g id="edge41" class="edge">
<title>&#45;18&#45;&gt;200</title>
<path fill="none" stroke="red" stroke-width="0.61" stroke-dasharray="1,5" d="M634.81,-153.88C629.13,-144.1 619.61,-127.72 611.4,-113.6"/>
<polygon fill="red" stroke="red" stroke-width="0.61" points="614.51,-111.98 606.46,-105.09 608.46,-115.49 614.51,-111.98"/>
</g>
<!-- &#45;19 -->
<g id="node19" class="node">
<title>&#45;19</title>
<polygon fill="lightgray" stroke="black" points="171.86,-172.82 143.86,-172.82 143.86,-154.32 171.86,-154.32 171.86,-172.82"/>
<text text-anchor="middle" x="157.86" y="-160.27" font-family="Times,serif" font-size="9.00">&#45;19</text>
</g>
<!-- &#45;19&#45;&gt;197 -->
<g id="edge32" class="edge">
<title>&#45;19&#45;&gt;197</title>
<path fill="none" stroke="red" stroke-width="0.11" d="M166.85,-153.92C170.94,-150.23 175.96,-146.01 180.86,-142.71 206.78,-125.24 238.87,-109.42 261.5,-99.11"/>
<polygon fill="red" stroke="red" stroke-width="0.11" points="262.73,-102.39 270.42,-95.11 259.86,-96.01 262.73,-102.39"/>
</g>
<!-- &#45;20 -->
<g id="node20" class="node">
<title>&#45;20</title>
<polygon fill="lightgray" stroke="black" points="741.86,-172.82 713.86,-172.82 713.86,-154.32 741.86,-154.32 741.86,-172.82"/>
<text text-anchor="middle" x="727.86" y="-160.27" font-family="Times,serif" font-size="9.00">&#45;20</text>
</g>
<!-- 0 -->
<g id="node21" class="node">
<title>0</title>
<ellipse fill="lightblue" stroke="black" cx="727.86" cy="-85.85" rx="14.5" ry="14.5"/>
<text text-anchor="middle" x="727.86" y="-82.55" font-family="Times,serif" font-size="9.00">0</text>
</g>
<!-- &#45;20&#45;&gt;0 -->
<g id="edge44" class="edge">
<title>&#45;20&#45;&gt;0</title>
<path fill="none" stroke="red" stroke-width="0.13" stroke-dasharray="1,5" d="M727.86,-153.88C727.86,-143.44 727.86,-125.49 727.86,-110.79"/>
<polygon fill="red" stroke="red" stroke-width="0.13" points="731.36,-111.02 727.86,-101.02 724.36,-111.02 731.36,-111.02"/>
</g>
<!-- &#45;20&#45;&gt;199 -->
<g id="edge21" class="edge">
<title>&#45;20&#45;&gt;199</title>
<path fill="none" stroke="red" stroke-width="0.25" stroke-dasharray="1,5" d="M720.19,-153.87C716.07,-149.78 710.65,-145.26 704.86,-142.71 579.11,-87.38 526.87,-153.91 397.86,-106.71 396.21,-106.11 394.55,-105.39 392.92,-104.6"/>
<polygon fill="red" stroke="red" stroke-width="0.25" points="394.68,-101.58 384.26,-99.65 391.21,-107.66 394.68,-101.58"/>
</g>
<!-- 0&#45;&gt;0 -->
<g id="edge29" class="edge">
<title>0&#45;&gt;0</title>
<path fill="none" stroke="red" stroke-width="0.44" d="M738.18,-96.29C748.67,-102.43 760.36,-98.95 760.36,-85.85 760.36,-76.84 754.83,-72.39 747.97,-72.47"/>
<polygon fill="red" stroke="red" stroke-width="0.44" points="747.39,-68.99 738.82,-75.22 749.4,-75.7 747.39,-68.99"/>
</g>
<!-- 2 -->
<g id="node23" class="node">
<title>2</title>
<ellipse fill="lightblue" stroke="black" cx="469.86" cy="-14.5" rx="14.5" ry="14.5"/>
<text text-anchor="middle" x="469.86" y="-11.2" font-family="Times,serif" font-size="9.00">2</text>
</g>
<!-- 3 -->
<g id="node24" class="node">
<title>3</title>
<ellipse fill="lightblue" stroke="black" cx="557.86" cy="-14.5" rx="14.5" ry="14.5"/>
<text text-anchor="middle" x="557.86" y="-11.2" font-family="Times,serif" font-size="9.00">3</text>
</g>
<!-- 4 -->
<g id="node25" class="node">
<title>4</title>
<ellipse fill="lightblue" stroke="black" cx="289.86" cy="-14.5" rx="14.5" ry="14.5"/>
<text text-anchor="middle" x="289.86" y="-11.2" font-family="Times,serif" font-size="9.00">4</text>
</g>
<!-- 197&#45;&gt;1 -->
<g id="edge19" class="edge">
<title>197&#45;&gt;1</title>
<path fill="none" stroke="red" stroke-width="0.16" stroke-dasharray="1,5" d="M306.87,-73.4C324.92,-61.24 353.44,-42.04 372.63,-29.11"/>
<polygon fill="red" stroke="red" stroke-width="0.16" points="374.43,-32.12 380.77,-23.64 370.52,-26.32 374.43,-32.12"/>
</g>
<!-- 197&#45;&gt;3 -->
<g id="edge37" class="edge">
<title>197&#45;&gt;3</title>
<path fill="none" stroke="red" stroke-width="0.68" stroke-dasharray="1,5" d="M308.73,-76.16C317.47,-72.37 328.06,-68.1 337.86,-64.99 356.46,-59.1 479.52,-32.36 533.06,-20.82"/>
<polygon fill="red" stroke="red" stroke-width="0.68" points="533.6,-24.29 542.64,-18.76 532.13,-17.45 533.6,-24.29"/>
</g>
<!-- 197&#45;&gt;4 -->
<g id="edge27" class="edge">
<title>197&#45;&gt;4</title>
<path fill="none" stroke="red" stroke-width="0.13" d="M289.86,-64.79C289.86,-56.89 289.86,-47.75 289.86,-39.5"/>
<polygon fill="red" stroke="red" stroke-width="0.13" points="293.36,-39.55 289.86,-29.55 286.36,-39.55 293.36,-39.55"/>
</g>
<!-- 197&#45;&gt;197 -->
<g id="edge35" class="edge">
<title>197&#45;&gt;197</title>
<path fill="none" stroke="green" stroke-width="0.38" d="M307.04,-98.17C318.09,-101.39 328.72,-97.28 328.72,-85.85 328.72,-78.17 323.92,-73.8 317.42,-72.73"/>
<polygon fill="green" stroke="green" stroke-width="0.38" points="317.32,-69.23 307.62,-73.49 317.86,-76.21 317.32,-69.23"/>
</g>
<!-- 198&#45;&gt;1 -->
<g id="edge13" class="edge">
<title>198&#45;&gt;1</title>
<path fill="none" stroke="green" stroke-width="0.37" stroke-dasharray="1,5" d="M454.65,-71.15C442.02,-59.77 424.03,-43.57 410.72,-31.58"/>
<polygon fill="green" stroke="green" stroke-width="0.37" points="413.31,-29.21 403.54,-25.11 408.62,-34.41 413.31,-29.21"/>
</g>
<!-- 198&#45;&gt;2 -->
<g id="edge36" class="edge">
<title>198&#45;&gt;2</title>
<path fill="none" stroke="red" stroke-width="0.3" d="M469.86,-64.79C469.86,-56.98 469.86,-47.96 469.86,-39.78"/>
<polygon fill="red" stroke="red" stroke-width="0.3" points="473.36,-39.8 469.86,-29.8 466.36,-39.8 473.36,-39.8"/>
</g>
<!-- 199&#45;&gt;1 -->
<g id="edge3" class="edge">
<title>199&#45;&gt;1</title>
<path fill="none" stroke="green" stroke-width="0.17" d="M374.69,-65.9C377.8,-57.27 381.5,-47 384.75,-37.99"/>
<polygon fill="green" stroke="green" stroke-width="0.17" points="387.99,-39.34 388.08,-28.74 381.4,-36.96 387.99,-39.34"/>
</g>
<!-- 200&#45;&gt;3 -->
<g id="edge14" class="edge">
<title>200&#45;&gt;3</title>
<path fill="none" stroke="red" stroke-width="0.49" d="M586.07,-66.99C581.05,-57.82 574.88,-46.57 569.6,-36.93"/>
<polygon fill="red" stroke="red" stroke-width="0.49" points="572.73,-35.36 564.86,-28.27 566.59,-38.72 572.73,-35.36"/>
</g>
<!-- 276&#45;&gt;197 -->
<g id="edge43" class="edge">
<title>276&#45;&gt;197</title>
<path fill="none" stroke="red" stroke-width="0.18" d="M38.18,-151.46C43.68,-148.29 49.88,-145.07 55.86,-142.71 125.83,-115.15 213.14,-98.72 258.78,-91.4"/>
<polygon fill="red" stroke="red" stroke-width="0.18" points="259.31,-94.86 268.65,-89.86 258.23,-87.95 259.31,-94.86"/>
</g>
</g>
</svg>
