<?xml version="1.0" encoding="UTF-8" standalone="no"?>
<!DOCTYPE svg PUBLIC "-//W3C//DTD SVG 1.1//EN"
 "http://www.w3.org/Graphics/SVG/1.1/DTD/svg11.dtd">
<!-- Generated by graphviz version 12.1.1 (20240910.0053)
 -->
<!-- Pages: 1 -->
<svg width="874pt" height="169pt"
 viewBox="0.00 0.00 873.75 169.21" xmlns="http://www.w3.org/2000/svg" xmlns:xlink="http://www.w3.org/1999/xlink">
<g id="graph0" class="graph" transform="scale(1 1) rotate(0) translate(4 165.21)">
<polygon fill="white" stroke="none" points="-4,4 -4,-165.21 869.75,-165.21 869.75,4 -4,4"/>
<!-- &#45;1 -->
<g id="node1" class="node">
<title>&#45;1</title>
<polygon fill="lightgray" stroke="black" points="153.5,-161.21 130,-161.21 130,-142.71 153.5,-142.71 153.5,-161.21"/>
<text text-anchor="middle" x="141.75" y="-148.66" font-family="Times,serif" font-size="9.00">&#45;1</text>
</g>
<!-- 103 -->
<g id="node28" class="node">
<title>103</title>
<ellipse fill="white" stroke="black" cx="235.75" cy="-85.85" rx="20.86" ry="20.86"/>
<text text-anchor="middle" x="235.75" y="-82.55" font-family="Times,serif" font-size="9.00">103</text>
</g>
<!-- &#45;1&#45;&gt;103 -->
<g id="edge15" class="edge">
<title>&#45;1&#45;&gt;103</title>
<path fill="none" stroke="red" stroke-width="0.47" stroke-dasharray="1,5" d="M153.66,-142.84C167.77,-133.21 191.7,-116.89 210.09,-104.35"/>
<polygon fill="red" stroke="red" stroke-width="0.47" points="211.99,-107.29 218.28,-98.77 208.04,-101.51 211.99,-107.29"/>
</g>
<!-- &#45;2 -->
<g id="node2" class="node">
<title>&#45;2</title>
<polygon fill="lightgray" stroke="black" points="417.5,-161.21 394,-161.21 394,-142.71 417.5,-142.71 417.5,-161.21"/>
<text text-anchor="middle" x="405.75" y="-148.66" font-family="Times,serif" font-size="9.00">&#45;2</text>
</g>
<!-- 101 -->
<g id="node26" class="node">
<title>101</title>
<ellipse fill="white" stroke="black" cx="303.75" cy="-85.85" rx="20.86" ry="20.86"/>
<text text-anchor="middle" x="303.75" y="-82.55" font-family="Times,serif" font-size="9.00">101</text>
</g>
<!-- &#45;2&#45;&gt;101 -->
<g id="edge28" class="edge">
<title>&#45;2&#45;&gt;101</title>
<path fill="none" stroke="red" stroke-width="0.27" d="M393.65,-143.35C378.02,-133.53 350.39,-116.17 329.87,-103.27"/>
<polygon fill="red" stroke="red" stroke-width="0.27" points="331.97,-100.45 321.64,-98.09 328.24,-106.38 331.97,-100.45"/>
</g>
<!-- &#45;2&#45;&gt;103 -->
<g id="edge37" class="edge">
<title>&#45;2&#45;&gt;103</title>
<path fill="none" stroke="green" stroke-width="0.1" d="M393.8,-146.12C390.86,-144.97 387.7,-143.77 384.75,-142.71 335.93,-125.22 321.57,-126.79 273.75,-106.71 270.07,-105.17 266.27,-103.4 262.55,-101.57"/>
<polygon fill="green" stroke="green" stroke-width="0.1" points="264.26,-98.51 253.76,-97.05 261.06,-104.73 264.26,-98.51"/>
</g>
<!-- 104 -->
<g id="node29" class="node">
<title>104</title>
<ellipse fill="white" stroke="black" cx="539.75" cy="-85.85" rx="20.86" ry="20.86"/>
<text text-anchor="middle" x="539.75" y="-82.55" font-family="Times,serif" font-size="9.00">104</text>
</g>
<!-- &#45;2&#45;&gt;104 -->
<g id="edge42" class="edge">
<title>&#45;2&#45;&gt;104</title>
<path fill="none" stroke="green" stroke-width="0.55" d="M417.64,-145.27C438.61,-135.24 482.69,-114.15 511.75,-100.25"/>
<polygon fill="green" stroke="green" stroke-width="0.55" points="513.08,-103.49 520.59,-96.02 510.06,-97.18 513.08,-103.49"/>
</g>
<!-- &#45;3 -->
<g id="node3" class="node">
<title>&#45;3</title>
<polygon fill="lightgray" stroke="black" points="731.5,-161.21 708,-161.21 708,-142.71 731.5,-142.71 731.5,-161.21"/>
<text text-anchor="middle" x="719.75" y="-148.66" font-family="Times,serif" font-size="9.00">&#45;3</text>
</g>
<!-- &#45;4 -->
<g id="node4" class="node">
<title>&#45;4</title>
<polygon fill="lightgray" stroke="black" points="65.5,-161.21 42,-161.21 42,-142.71 65.5,-142.71 65.5,-161.21"/>
<text text-anchor="middle" x="53.75" y="-148.66" font-family="Times,serif" font-size="9.00">&#45;4</text>
</g>
<!-- &#45;4&#45;&gt;103 -->
<g id="edge40" class="edge">
<title>&#45;4&#45;&gt;103</title>
<path fill="none" stroke="red" stroke-width="0.1" d="M65.71,-146.17C68.66,-145.01 71.81,-143.8 74.75,-142.71 120.52,-125.79 174.14,-107.48 206.5,-96.6"/>
<polygon fill="red" stroke="red" stroke-width="0.1" points="207.32,-100.02 215.69,-93.52 205.09,-93.38 207.32,-100.02"/>
</g>
<!-- &#45;5 -->
<g id="node5" class="node">
<title>&#45;5</title>
<polygon fill="lightgray" stroke="black" points="773.5,-161.21 750,-161.21 750,-142.71 773.5,-142.71 773.5,-161.21"/>
<text text-anchor="middle" x="761.75" y="-148.66" font-family="Times,serif" font-size="9.00">&#45;5</text>
</g>
<!-- &#45;6 -->
<g id="node6" class="node">
<title>&#45;6</title>
<polygon fill="lightgray" stroke="black" points="23.5,-161.21 0,-161.21 0,-142.71 23.5,-142.71 23.5,-161.21"/>
<text text-anchor="middle" x="11.75" y="-148.66" font-family="Times,serif" font-size="9.00">&#45;6</text>
</g>
<!-- 0 -->
<g id="node21" class="node">
<title>0</title>
<ellipse fill="lightblue" stroke="black" cx="281.75" cy="-14.5" rx="14.5" ry="14.5"/>
<text text-anchor="middle" x="281.75" y="-11.2" font-family="Times,serif" font-size="9.00">0</text>
</g>
<!-- &#45;6&#45;&gt;0 -->
<g id="edge43" class="edge">
<title>&#45;6&#45;&gt;0</title>
<path fill="none" stroke="green" stroke-width="0.21" stroke-dasharray="1,5" d="M23.89,-145.22C59.89,-128.13 169.04,-75.89 257.75,-28.99 258.72,-28.48 259.71,-27.95 260.71,-27.41"/>
<polygon fill="green" stroke="green" stroke-width="0.21" points="262.28,-30.54 269.33,-22.64 258.89,-24.42 262.28,-30.54"/>
</g>
<!-- &#45;6&#45;&gt;103 -->
<g id="edge13" class="edge">
<title>&#45;6&#45;&gt;103</title>
<path fill="none" stroke="red" stroke-width="0.25" d="M23.66,-146.03C26.61,-144.88 29.78,-143.7 32.75,-142.71 93.24,-122.57 165.53,-103.94 205.47,-94.12"/>
<polygon fill="red" stroke="red" stroke-width="0.25" points="206.11,-97.56 214.99,-91.79 204.45,-90.76 206.11,-97.56"/>
</g>
<!-- &#45;7 -->
<g id="node7" class="node">
<title>&#45;7</title>
<polygon fill="lightgray" stroke="black" points="195.5,-161.21 172,-161.21 172,-142.71 195.5,-142.71 195.5,-161.21"/>
<text text-anchor="middle" x="183.75" y="-148.66" font-family="Times,serif" font-size="9.00">&#45;7</text>
</g>
<!-- &#45;7&#45;&gt;101 -->
<g id="edge31" class="edge">
<title>&#45;7&#45;&gt;101</title>
<path fill="none" stroke="green" stroke-width="0.19" stroke-dasharray="1,5" d="M195.69,-144.58C214.49,-134.54 251.45,-114.79 276.86,-101.22"/>
<polygon fill="green" stroke="green" stroke-width="0.19" points="278.22,-104.46 285.39,-96.66 274.92,-98.28 278.22,-104.46"/>
</g>
<!-- &#45;7&#45;&gt;103 -->
<g id="edge16" class="edge">
<title>&#45;7&#45;&gt;103</title>
<path fill="none" stroke="green" stroke-width="0.21" d="M190.76,-142.31C197.37,-134.17 207.56,-121.6 216.58,-110.49"/>
<polygon fill="green" stroke="green" stroke-width="0.21" points="219.09,-112.95 222.67,-102.98 213.65,-108.54 219.09,-112.95"/>
</g>
<!-- &#45;8 -->
<g id="node8" class="node">
<title>&#45;8</title>
<polygon fill="lightgray" stroke="black" points="375.5,-161.21 352,-161.21 352,-142.71 375.5,-142.71 375.5,-161.21"/>
<text text-anchor="middle" x="363.75" y="-148.66" font-family="Times,serif" font-size="9.00">&#45;8</text>
</g>
<!-- &#45;8&#45;&gt;101 -->
<g id="edge44" class="edge">
<title>&#45;8&#45;&gt;101</title>
<path fill="none" stroke="green" stroke-width="0.21" d="M355.66,-142.31C347.76,-133.87 335.4,-120.67 324.72,-109.26"/>
<polygon fill="green" stroke="green" stroke-width="0.21" points="327.29,-106.88 317.9,-101.97 322.17,-111.66 327.29,-106.88"/>
</g>
<!-- 102 -->
<g id="node27" class="node">
<title>102</title>
<ellipse fill="white" stroke="black" cx="381.75" cy="-85.85" rx="20.86" ry="20.86"/>
<text text-anchor="middle" x="381.75" y="-82.55" font-family="Times,serif" font-size="9.00">102</text>
</g>
<!-- &#45;8&#45;&gt;102 -->
<g id="edge19" class="edge">
<title>&#45;8&#45;&gt;102</title>
<path fill="none" stroke="red" stroke-width="0.52" stroke-dasharray="1,5" d="M366.18,-142.31C368.05,-135.66 370.75,-126.04 373.37,-116.68"/>
<polygon fill="red" stroke="red" stroke-width="0.52" points="376.72,-117.72 376.05,-107.14 369.98,-115.83 376.72,-117.72"/>
</g>
<!-- &#45;8&#45;&gt;103 -->
<g id="edge10" class="edge">
<title>&#45;8&#45;&gt;103</title>
<path fill="none" stroke="red" stroke-width="0.33" d="M351.77,-145.18C334.47,-136.82 301.55,-120.81 273.75,-106.71 270.29,-104.96 266.67,-103.1 263.09,-101.24"/>
<polygon fill="red" stroke="red" stroke-width="0.33" points="264.8,-98.19 254.32,-96.67 261.57,-104.4 264.8,-98.19"/>
</g>
<!-- &#45;9 -->
<g id="node9" class="node">
<title>&#45;9</title>
<polygon fill="lightgray" stroke="black" points="551.5,-161.21 528,-161.21 528,-142.71 551.5,-142.71 551.5,-161.21"/>
<text text-anchor="middle" x="539.75" y="-148.66" font-family="Times,serif" font-size="9.00">&#45;9</text>
</g>
<!-- &#45;9&#45;&gt;102 -->
<g id="edge34" class="edge">
<title>&#45;9&#45;&gt;102</title>
<path fill="none" stroke="green" stroke-width="0.23" d="M527.61,-146.04C502.71,-135.93 445.26,-112.62 410.35,-98.45"/>
<polygon fill="green" stroke="green" stroke-width="0.23" points="412.05,-95.37 401.46,-94.85 409.42,-101.85 412.05,-95.37"/>
</g>
<!-- &#45;9&#45;&gt;104 -->
<g id="edge9" class="edge">
<title>&#45;9&#45;&gt;104</title>
<path fill="none" stroke="green" stroke-width="0.12" stroke-dasharray="1,5" d="M539.75,-142.31C539.75,-135.81 539.75,-126.47 539.75,-117.31"/>
<polygon fill="green" stroke="green" stroke-width="0.12" points="543.25,-117.38 539.75,-107.38 536.25,-117.38 543.25,-117.38"/>
</g>
<!-- &#45;10 -->
<g id="node10" class="node">
<title>&#45;10</title>
<polygon fill="lightgray" stroke="black" points="111.75,-161.21 83.75,-161.21 83.75,-142.71 111.75,-142.71 111.75,-161.21"/>
<text text-anchor="middle" x="97.75" y="-148.66" font-family="Times,serif" font-size="9.00">&#45;10</text>
</g>
<!-- &#45;10&#45;&gt;103 -->
<g id="edge27" class="edge">
<title>&#45;10&#45;&gt;103</title>
<path fill="none" stroke="green" stroke-width="0.65" stroke-dasharray="1,5" d="M112,-144.34C134.42,-133.92 178.37,-113.51 207.4,-100.02"/>
<polygon fill="green" stroke="green" stroke-width="0.65" points="208.5,-103.37 216.1,-95.98 205.56,-97.02 208.5,-103.37"/>
</g>
<!-- &#45;11 -->
<g id="node11" class="node">
<title>&#45;11</title>
<polygon fill="lightgray" stroke="black" points="819.75,-161.21 791.75,-161.21 791.75,-142.71 819.75,-142.71 819.75,-161.21"/>
<text text-anchor="middle" x="805.75" y="-148.66" font-family="Times,serif" font-size="9.00">&#45;11</text>
</g>
<!-- &#45;12 -->
<g id="node12" class="node">
<title>&#45;12</title>
<polygon fill="lightgray" stroke="black" points="643.75,-161.21 615.75,-161.21 615.75,-142.71 643.75,-142.71 643.75,-161.21"/>
<text text-anchor="middle" x="629.75" y="-148.66" font-family="Times,serif" font-size="9.00">&#45;12</text>
</g>
<!-- &#45;12&#45;&gt;104 -->
<g id="edge12" class="edge">
<title>&#45;12&#45;&gt;104</title>
<path fill="none" stroke="red" stroke-width="0.15" stroke-dasharray="1,5" d="M617.61,-142.31C604.09,-132.68 581.86,-116.84 564.6,-104.55"/>
<polygon fill="red" stroke="red" stroke-width="0.15" points="566.96,-101.93 556.78,-98.98 562.9,-107.64 566.96,-101.93"/>
</g>
<!-- &#45;13 -->
<g id="node13" class="node">
<title>&#45;13</title>
<polygon fill="lightgray" stroke="black" points="509.75,-161.21 481.75,-161.21 481.75,-142.71 509.75,-142.71 509.75,-161.21"/>
<text text-anchor="middle" x="495.75" y="-148.66" font-family="Times,serif" font-size="9.00">&#45;13</text>
</g>
<!-- &#45;13&#45;&gt;101 -->
<g id="edge30" class="edge">
<title>&#45;13&#45;&gt;101</title>
<path fill="none" stroke="green" stroke-width="0.46" stroke-dasharray="1,5" d="M481.68,-145.78C478.74,-144.73 475.65,-143.66 472.75,-142.71 419.43,-125.23 404.63,-125.46 351.75,-106.71 345.39,-104.46 338.65,-101.82 332.29,-99.23"/>
<polygon fill="green" stroke="green" stroke-width="0.46" points="333.95,-96.12 323.37,-95.5 331.25,-102.58 333.95,-96.12"/>
</g>
<!-- &#45;13&#45;&gt;104 -->
<g id="edge25" class="edge">
<title>&#45;13&#45;&gt;104</title>
<path fill="none" stroke="red" stroke-width="0.13" d="M501.68,-142.31C507.01,-134.55 515.11,-122.75 522.47,-112.03"/>
<polygon fill="red" stroke="red" stroke-width="0.13" points="525.26,-114.15 528.03,-103.92 519.49,-110.19 525.26,-114.15"/>
</g>
<!-- &#45;14 -->
<g id="node14" class="node">
<title>&#45;14</title>
<polygon fill="lightgray" stroke="black" points="333.75,-161.21 305.75,-161.21 305.75,-142.71 333.75,-142.71 333.75,-161.21"/>
<text text-anchor="middle" x="319.75" y="-148.66" font-family="Times,serif" font-size="9.00">&#45;14</text>
</g>
<!-- &#45;14&#45;&gt;101 -->
<g id="edge38" class="edge">
<title>&#45;14&#45;&gt;101</title>
<path fill="none" stroke="green" stroke-width="0.36" stroke-dasharray="1,5" d="M317.59,-142.31C315.91,-135.59 313.48,-125.84 311.12,-116.38"/>
<polygon fill="green" stroke="green" stroke-width="0.36" points="314.58,-115.78 308.76,-106.92 307.78,-117.47 314.58,-115.78"/>
</g>
<!-- &#45;14&#45;&gt;102 -->
<g id="edge7" class="edge">
<title>&#45;14&#45;&gt;102</title>
<path fill="none" stroke="green" stroke-width="0.15" d="M328.11,-142.31C336.46,-133.68 349.63,-120.06 360.83,-108.48"/>
<polygon fill="green" stroke="green" stroke-width="0.15" points="363.24,-111.02 367.68,-101.4 358.21,-106.15 363.24,-111.02"/>
</g>
<!-- &#45;14&#45;&gt;103 -->
<g id="edge32" class="edge">
<title>&#45;14&#45;&gt;103</title>
<path fill="none" stroke="green" stroke-width="0.48" stroke-dasharray="1,5" d="M308.42,-142.31C296.18,-132.97 276.29,-117.79 260.41,-105.68"/>
<polygon fill="green" stroke="green" stroke-width="0.48" points="262.73,-103.04 252.66,-99.76 258.49,-108.61 262.73,-103.04"/>
</g>
<!-- &#45;15 -->
<g id="node15" class="node">
<title>&#45;15</title>
<polygon fill="lightgray" stroke="black" points="689.75,-161.21 661.75,-161.21 661.75,-142.71 689.75,-142.71 689.75,-161.21"/>
<text text-anchor="middle" x="675.75" y="-148.66" font-family="Times,serif" font-size="9.00">&#45;15</text>
</g>
<!-- &#45;15&#45;&gt;104 -->
<g id="edge20" class="edge">
<title>&#45;15&#45;&gt;104</title>
<path fill="none" stroke="red" stroke-width="0.39" d="M661.45,-144.22C639.37,-133.81 596.54,-113.62 568.04,-100.18"/>
<polygon fill="red" stroke="red" stroke-width="0.39" points="569.68,-97.09 559.15,-95.99 566.7,-103.42 569.68,-97.09"/>
</g>
<!-- &#45;16 -->
<g id="node16" class="node">
<title>&#45;16</title>
<polygon fill="lightgray" stroke="black" points="597.75,-161.21 569.75,-161.21 569.75,-142.71 597.75,-142.71 597.75,-161.21"/>
<text text-anchor="middle" x="583.75" y="-148.66" font-family="Times,serif" font-size="9.00">&#45;16</text>
</g>
<!-- &#45;16&#45;&gt;104 -->
<g id="edge3" class="edge">
<title>&#45;16&#45;&gt;104</title>
<path fill="none" stroke="green" stroke-width="0.16" d="M577.82,-142.31C572.49,-134.55 564.39,-122.75 557.03,-112.03"/>
<polygon fill="green" stroke="green" stroke-width="0.16" points="560.04,-110.23 551.49,-103.96 554.27,-114.19 560.04,-110.23"/>
</g>
<!-- &#45;17 -->
<g id="node17" class="node">
<title>&#45;17</title>
<polygon fill="lightgray" stroke="black" points="865.75,-161.21 837.75,-161.21 837.75,-142.71 865.75,-142.71 865.75,-161.21"/>
<text text-anchor="middle" x="851.75" y="-148.66" font-family="Times,serif" font-size="9.00">&#45;17</text>
</g>
<!-- &#45;18 -->
<g id="node18" class="node">
<title>&#45;18</title>
<polygon fill="lightgray" stroke="black" points="287.75,-161.21 259.75,-161.21 259.75,-142.71 287.75,-142.71 287.75,-161.21"/>
<text text-anchor="middle" x="273.75" y="-148.66" font-family="Times,serif" font-size="9.00">&#45;18</text>
</g>
<!-- &#45;18&#45;&gt;102 -->
<g id="edge26" class="edge">
<title>&#45;18&#45;&gt;102</title>
<path fill="none" stroke="red" stroke-width="0.42" d="M288.01,-143.25C303.78,-134.65 329.85,-120.15 351.75,-106.71 353.21,-105.81 354.71,-104.88 356.21,-103.93"/>
<polygon fill="red" stroke="red" stroke-width="0.42" points="357.73,-107.12 364.22,-98.74 353.92,-101.24 357.73,-107.12"/>
</g>
<!-- &#45;18&#45;&gt;103 -->
<g id="edge33" class="edge">
<title>&#45;18&#45;&gt;103</title>
<path fill="none" stroke="red" stroke-width="0.33" d="M268.63,-142.31C264.18,-134.81 257.49,-123.53 251.31,-113.11"/>
<polygon fill="red" stroke="red" stroke-width="0.33" points="254.44,-111.52 246.33,-104.7 248.42,-115.09 254.44,-111.52"/>
</g>
<!-- &#45;19 -->
<g id="node19" class="node">
<title>&#45;19</title>
<polygon fill="lightgray" stroke="black" points="241.75,-161.21 213.75,-161.21 213.75,-142.71 241.75,-142.71 241.75,-161.21"/>
<text text-anchor="middle" x="227.75" y="-148.66" font-family="Times,serif" font-size="9.00">&#45;19</text>
</g>
<!-- &#45;19&#45;&gt;101 -->
<g id="edge14" class="edge">
<title>&#45;19&#45;&gt;101</title>
<path fill="none" stroke="red" stroke-width="0.33" d="M238,-142.31C248.77,-133.23 266.08,-118.63 280.24,-106.69"/>
<polygon fill="red" stroke="red" stroke-width="0.33" points="282.36,-109.47 287.75,-100.35 277.85,-104.12 282.36,-109.47"/>
</g>
<!-- &#45;19&#45;&gt;103 -->
<g id="edge41" class="edge">
<title>&#45;19&#45;&gt;103</title>
<path fill="none" stroke="green" stroke-width="0.28" d="M228.83,-142.31C229.65,-135.76 230.82,-126.33 231.98,-117.1"/>
<polygon fill="green" stroke="green" stroke-width="0.28" points="235.43,-117.71 233.19,-107.35 228.48,-116.84 235.43,-117.71"/>
</g>
<!-- &#45;20 -->
<g id="node20" class="node">
<title>&#45;20</title>
<polygon fill="lightgray" stroke="black" points="463.75,-161.21 435.75,-161.21 435.75,-142.71 463.75,-142.71 463.75,-161.21"/>
<text text-anchor="middle" x="449.75" y="-148.66" font-family="Times,serif" font-size="9.00">&#45;20</text>
</g>
<!-- &#45;20&#45;&gt;101 -->
<g id="edge29" class="edge">
<title>&#45;20&#45;&gt;101</title>
<path fill="none" stroke="green" stroke-width="0.45" d="M435.49,-144.7C411.66,-134.23 363.33,-113.01 332.3,-99.39"/>
<polygon fill="green" stroke="green" stroke-width="0.45" points="334.07,-96.34 323.51,-95.53 331.26,-102.75 334.07,-96.34"/>
</g>
<!-- &#45;20&#45;&gt;102 -->
<g id="edge6" class="edge">
<title>&#45;20&#45;&gt;102</title>
<path fill="none" stroke="red" stroke-width="0.41" d="M440.58,-142.31C431.36,-133.62 416.79,-119.88 404.45,-108.25"/>
<polygon fill="red" stroke="red" stroke-width="0.41" points="406.88,-105.73 397.2,-101.42 402.07,-110.82 406.88,-105.73"/>
</g>
<!-- &#45;20&#45;&gt;103 -->
<g id="edge17" class="edge">
<title>&#45;20&#45;&gt;103</title>
<path fill="none" stroke="green" stroke-width="0.6" d="M435.72,-145.64C432.78,-144.61 429.68,-143.58 426.75,-142.71 359.77,-122.89 339.22,-131.08 273.75,-106.71 270.22,-105.4 266.61,-103.83 263.08,-102.16"/>
<polygon fill="green" stroke="green" stroke-width="0.6" points="264.8,-99.11 254.3,-97.71 261.63,-105.35 264.8,-99.11"/>
</g>
<!-- &#45;20&#45;&gt;104 -->
<g id="edge8" class="edge">
<title>&#45;20&#45;&gt;104</title>
<path fill="none" stroke="green" stroke-width="0.26" stroke-dasharray="1,5" d="M461.89,-142.31C475.41,-132.68 497.64,-116.84 514.9,-104.55"/>
<polygon fill="green" stroke="green" stroke-width="0.26" points="516.48,-107.73 522.59,-99.07 512.41,-102.03 516.48,-107.73"/>
</g>
<!-- 0&#45;&gt;0 -->
<g id="edge35" class="edge">
<title>0&#45;&gt;0</title>
<path fill="none" stroke="red" stroke-width="0.17" d="M292.07,-24.94C302.56,-31.08 314.25,-27.6 314.25,-14.5 314.25,-5.49 308.72,-1.03 301.86,-1.12"/>
<polygon fill="red" stroke="red" stroke-width="0.17" points="300.88,2.24 292.31,-3.98 302.9,-4.46 300.88,2.24"/>
</g>
<!-- 1 -->
<g id="node22" class="node">
<title>1</title>
<ellipse fill="lightblue" stroke="black" cx="346.75" cy="-14.5" rx="14.5" ry="14.5"/>
<text text-anchor="middle" x="346.75" y="-11.2" font-family="Times,serif" font-size="9.00">1</text>
</g>
<!-- 1&#45;&gt;1 -->
<g id="edge18" class="edge">
<title>1&#45;&gt;1</title>
<path fill="none" stroke="red" stroke-width="0.22" stroke-dasharray="1,5" d="M357.07,-24.94C367.56,-31.08 379.25,-27.6 379.25,-14.5 379.25,-5.49 373.72,-1.03 366.86,-1.12"/>
<polygon fill="red" stroke="red" stroke-width="0.22" points="365.96,2.27 357.39,-3.96 367.97,-4.44 365.96,2.27"/>
</g>
<!-- 2 -->
<g id="node23" class="node">
<title>2</title>
<ellipse fill="lightblue" stroke="black" cx="562.75" cy="-14.5" rx="14.5" ry="14.5"/>
<text text-anchor="middle" x="562.75" y="-11.2" font-family="Times,serif" font-size="9.00">2</text>
</g>
<!-- 3 -->
<g id="node24" class="node">
<title>3</title>
<ellipse fill="lightblue" stroke="black" cx="515.75" cy="-14.5" rx="14.5" ry="14.5"/>
<text text-anchor="middle" x="515.75" y="-11.2" font-family="Times,serif" font-size="9.00">3</text>
</g>
<!-- 4 -->
<g id="node25" class="node">
<title>4</title>
<ellipse fill="lightblue" stroke="black" cx="216.75" cy="-14.5" rx="14.5" ry="14.5"/>
<text text-anchor="middle" x="216.75" y="-11.2" font-family="Times,serif" font-size="9.00">4</text>
</g>
<!-- 4&#45;&gt;4 -->
<g id="edge36" class="edge">
<title>4&#45;&gt;4</title>
<path fill="none" stroke="red" stroke-width="0.12" stroke-dasharray="1,5" d="M227.07,-24.94C237.56,-31.08 249.25,-27.6 249.25,-14.5 249.25,-5.28 243.47,-0.83 236.39,-1.13"/>
<polygon fill="red" stroke="red" stroke-width="0.12" points="235.74,2.33 227.24,-4 237.83,-4.35 235.74,2.33"/>
</g>
<!-- 101&#45;&gt;0 -->
<g id="edge39" class="edge">
<title>101&#45;&gt;0</title>
<path fill="none" stroke="green" stroke-width="0.32" d="M297.62,-65.53C294.98,-57.21 291.87,-47.41 289.11,-38.7"/>
<polygon fill="green" stroke="green" stroke-width="0.32" points="292.47,-37.73 286.11,-29.26 285.8,-39.85 292.47,-37.73"/>
</g>
<!-- 101&#45;&gt;1 -->
<g id="edge2" class="edge">
<title>101&#45;&gt;1</title>
<path fill="none" stroke="red" stroke-width="0.38" d="M314.38,-67.71C320.26,-58.22 327.61,-46.36 333.82,-36.35"/>
<polygon fill="red" stroke="red" stroke-width="0.38" points="336.75,-38.27 339.04,-27.93 330.8,-34.58 336.75,-38.27"/>
</g>
<!-- 101&#45;&gt;101 -->
<g id="edge11" class="edge">
<title>101&#45;&gt;101</title>
<path fill="none" stroke="red" stroke-width="0.14" stroke-dasharray="1,5" d="M321.33,-97.37C332.24,-100.15 342.61,-96.31 342.61,-85.85 342.61,-78.66 337.71,-74.6 331.1,-73.66"/>
<polygon fill="red" stroke="red" stroke-width="0.14" points="331.28,-70.14 321.54,-74.32 331.76,-77.13 331.28,-70.14"/>
</g>
<!-- 102&#45;&gt;0 -->
<g id="edge1" class="edge">
<title>102&#45;&gt;0</title>
<path fill="none" stroke="green" stroke-width="0.36" d="M364.79,-73.09C347.43,-61.05 320.47,-42.35 302.01,-29.55"/>
<polygon fill="green" stroke="green" stroke-width="0.36" points="304.12,-26.75 293.91,-23.93 300.13,-32.5 304.12,-26.75"/>
</g>
<!-- 102&#45;&gt;1 -->
<g id="edge21" class="edge">
<title>102&#45;&gt;1</title>
<path fill="none" stroke="green" stroke-width="0.32" d="M372.55,-66.63C367.98,-57.57 362.43,-46.57 357.65,-37.09"/>
<polygon fill="green" stroke="green" stroke-width="0.32" points="360.86,-35.7 353.23,-28.34 354.61,-38.85 360.86,-35.7"/>
</g>
<!-- 103&#45;&gt;0 -->
<g id="edge22" class="edge">
<title>103&#45;&gt;0</title>
<path fill="none" stroke="green" stroke-width="0.13" stroke-dasharray="1,5" d="M246.89,-68.06C253.38,-58.26 261.62,-45.84 268.46,-35.53"/>
<polygon fill="green" stroke="green" stroke-width="0.13" points="271.31,-37.57 273.92,-27.3 265.48,-33.7 271.31,-37.57"/>
</g>
<!-- 103&#45;&gt;1 -->
<g id="edge24" class="edge">
<title>103&#45;&gt;1</title>
<path fill="none" stroke="green" stroke-width="0.46" d="M253.09,-74.01C272.76,-61.72 304.83,-41.69 325.86,-28.55"/>
<polygon fill="green" stroke="green" stroke-width="0.46" points="327.45,-31.68 334.07,-23.42 323.74,-25.75 327.45,-31.68"/>
</g>
<!-- 103&#45;&gt;4 -->
<g id="edge5" class="edge">
<title>103&#45;&gt;4</title>
<path fill="none" stroke="green" stroke-width="0.16" d="M230.46,-65.53C228.15,-57.12 225.43,-47.2 223.03,-38.41"/>
<polygon fill="green" stroke="green" stroke-width="0.16" points="226.47,-37.74 220.46,-29.02 219.72,-39.59 226.47,-37.74"/>
</g>
<!-- 104&#45;&gt;2 -->
<g id="edge4" class="edge">
<title>104&#45;&gt;2</title>
<path fill="none" stroke="green" stroke-width="0.33" d="M546.16,-65.53C548.92,-57.21 552.17,-47.41 555.05,-38.7"/>
<polygon fill="green" stroke="green" stroke-width="0.33" points="558.36,-39.85 558.19,-29.26 551.72,-37.65 558.36,-39.85"/>
</g>
<!-- 104&#45;&gt;3 -->
<g id="edge23" class="edge">
<title>104&#45;&gt;3</title>
<path fill="none" stroke="green" stroke-width="0.16" d="M533.19,-65.9C530.21,-57.27 526.65,-47 523.53,-37.99"/>
<polygon fill="green" stroke="green" stroke-width="0.16" points="526.91,-37.03 520.33,-28.72 520.29,-39.32 526.91,-37.03"/>
</g>
</g>
</svg>
