<?xml version="1.0" encoding="UTF-8" standalone="no"?>
<!DOCTYPE svg PUBLIC "-//W3C//DTD SVG 1.1//EN"
 "http://www.w3.org/Graphics/SVG/1.1/DTD/svg11.dtd">
<!-- Generated by graphviz version 12.1.1 (20240910.0053)
 -->
<!-- Pages: 1 -->
<svg width="874pt" height="163pt"
 viewBox="0.00 0.00 873.75 162.85" xmlns="http://www.w3.org/2000/svg" xmlns:xlink="http://www.w3.org/1999/xlink">
<g id="graph0" class="graph" transform="scale(1 1) rotate(0) translate(4 158.85)">
<polygon fill="white" stroke="none" points="-4,4 -4,-158.85 869.75,-158.85 869.75,4 -4,4"/>
<!-- &#45;1 -->
<g id="node1" class="node">
<title>&#45;1</title>
<polygon fill="lightgray" stroke="black" points="551.5,-154.85 528,-154.85 528,-136.35 551.5,-136.35 551.5,-154.85"/>
<text text-anchor="middle" x="539.75" y="-142.3" font-family="Times,serif" font-size="9.00">&#45;1</text>
</g>
<!-- 18 -->
<g id="node27" class="node">
<title>18</title>
<ellipse fill="white" stroke="black" cx="436.75" cy="-82.67" rx="17.68" ry="17.68"/>
<text text-anchor="middle" x="436.75" y="-79.37" font-family="Times,serif" font-size="9.00">18</text>
</g>
<!-- &#45;1&#45;&gt;18 -->
<g id="edge32" class="edge">
<title>&#45;1&#45;&gt;18</title>
<path fill="none" stroke="red" stroke-width="0.23" d="M527.53,-137.37C511,-127.59 481.19,-109.96 460.26,-97.57"/>
<polygon fill="red" stroke="red" stroke-width="0.23" points="462.3,-94.72 451.91,-92.64 458.74,-100.74 462.3,-94.72"/>
</g>
<!-- 19 -->
<g id="node28" class="node">
<title>19</title>
<ellipse fill="white" stroke="black" cx="539.75" cy="-82.67" rx="17.68" ry="17.68"/>
<text text-anchor="middle" x="539.75" y="-79.37" font-family="Times,serif" font-size="9.00">19</text>
</g>
<!-- &#45;1&#45;&gt;19 -->
<g id="edge41" class="edge">
<title>&#45;1&#45;&gt;19</title>
<path fill="none" stroke="green" stroke-width="0.23" d="M539.75,-135.87C539.75,-129.25 539.75,-119.76 539.75,-110.7"/>
<polygon fill="green" stroke="green" stroke-width="0.23" points="543.25,-110.78 539.75,-100.78 536.25,-110.78 543.25,-110.78"/>
</g>
<!-- &#45;2 -->
<g id="node2" class="node">
<title>&#45;2</title>
<polygon fill="lightgray" stroke="black" points="731.5,-154.85 708,-154.85 708,-136.35 731.5,-136.35 731.5,-154.85"/>
<text text-anchor="middle" x="719.75" y="-142.3" font-family="Times,serif" font-size="9.00">&#45;2</text>
</g>
<!-- &#45;2&#45;&gt;19 -->
<g id="edge21" class="edge">
<title>&#45;2&#45;&gt;19</title>
<path fill="none" stroke="green" stroke-width="0.25" d="M707.8,-139.77C704.85,-138.62 701.7,-137.41 698.75,-136.35 652.56,-119.64 598.11,-102.05 566.4,-92.01"/>
<polygon fill="green" stroke="green" stroke-width="0.25" points="567.52,-88.69 556.93,-89.02 565.41,-95.37 567.52,-88.69"/>
</g>
<!-- &#45;3 -->
<g id="node3" class="node">
<title>&#45;3</title>
<polygon fill="lightgray" stroke="black" points="417.5,-154.85 394,-154.85 394,-136.35 417.5,-136.35 417.5,-154.85"/>
<text text-anchor="middle" x="405.75" y="-142.3" font-family="Times,serif" font-size="9.00">&#45;3</text>
</g>
<!-- &#45;3&#45;&gt;18 -->
<g id="edge17" class="edge">
<title>&#45;3&#45;&gt;18</title>
<path fill="none" stroke="green" stroke-width="0.15" d="M410.19,-135.87C413.9,-128.59 419.36,-117.85 424.37,-108"/>
<polygon fill="green" stroke="green" stroke-width="0.15" points="427.44,-109.68 428.86,-99.18 421.2,-106.51 427.44,-109.68"/>
</g>
<!-- &#45;4 -->
<g id="node4" class="node">
<title>&#45;4</title>
<polygon fill="lightgray" stroke="black" points="819.5,-154.85 796,-154.85 796,-136.35 819.5,-136.35 819.5,-154.85"/>
<text text-anchor="middle" x="807.75" y="-142.3" font-family="Times,serif" font-size="9.00">&#45;4</text>
</g>
<!-- &#45;5 -->
<g id="node5" class="node">
<title>&#45;5</title>
<polygon fill="lightgray" stroke="black" points="23.5,-154.85 0,-154.85 0,-136.35 23.5,-136.35 23.5,-154.85"/>
<text text-anchor="middle" x="11.75" y="-142.3" font-family="Times,serif" font-size="9.00">&#45;5</text>
</g>
<!-- 17 -->
<g id="node26" class="node">
<title>17</title>
<ellipse fill="white" stroke="black" cx="181.75" cy="-82.67" rx="17.68" ry="17.68"/>
<text text-anchor="middle" x="181.75" y="-79.37" font-family="Times,serif" font-size="9.00">17</text>
</g>
<!-- &#45;5&#45;&gt;17 -->
<g id="edge40" class="edge">
<title>&#45;5&#45;&gt;17</title>
<path fill="none" stroke="green" stroke-width="0.52" d="M23.72,-139.81C26.66,-138.66 29.81,-137.44 32.75,-136.35 75.33,-120.46 125.2,-103.08 155.09,-92.78"/>
<polygon fill="green" stroke="green" stroke-width="0.52" points="156.08,-96.14 164.41,-89.58 153.81,-89.52 156.08,-96.14"/>
</g>
<!-- &#45;6 -->
<g id="node6" class="node">
<title>&#45;6</title>
<polygon fill="lightgray" stroke="black" points="329.5,-154.85 306,-154.85 306,-136.35 329.5,-136.35 329.5,-154.85"/>
<text text-anchor="middle" x="317.75" y="-142.3" font-family="Times,serif" font-size="9.00">&#45;6</text>
</g>
<!-- &#45;6&#45;&gt;17 -->
<g id="edge5" class="edge">
<title>&#45;6&#45;&gt;17</title>
<path fill="none" stroke="green" stroke-width="0.26" d="M305.75,-139.84C278.19,-128.9 212.37,-102.73 207.75,-100.35 206.77,-99.84 205.79,-99.31 204.8,-98.76"/>
<polygon fill="green" stroke="green" stroke-width="0.26" points="206.75,-95.86 196.38,-93.72 203.15,-101.86 206.75,-95.86"/>
</g>
<!-- &#45;6&#45;&gt;19 -->
<g id="edge43" class="edge">
<title>&#45;6&#45;&gt;19</title>
<path fill="none" stroke="green" stroke-width="0.26" d="M329.65,-139.62C332.6,-138.47 335.77,-137.3 338.75,-136.35 401.16,-116.32 418.47,-117.4 481.75,-100.35 491.93,-97.6 503.06,-94.44 512.83,-91.61"/>
<polygon fill="green" stroke="green" stroke-width="0.26" points="513.79,-94.98 522.41,-88.82 511.83,-88.26 513.79,-94.98"/>
</g>
<!-- &#45;7 -->
<g id="node7" class="node">
<title>&#45;7</title>
<polygon fill="lightgray" stroke="black" points="111.5,-154.85 88,-154.85 88,-136.35 111.5,-136.35 111.5,-154.85"/>
<text text-anchor="middle" x="99.75" y="-142.3" font-family="Times,serif" font-size="9.00">&#45;7</text>
</g>
<!-- &#45;7&#45;&gt;17 -->
<g id="edge38" class="edge">
<title>&#45;7&#45;&gt;17</title>
<path fill="none" stroke="red" stroke-width="0.24" d="M111.5,-135.87C124.05,-126.54 144.24,-111.54 159.76,-100"/>
<polygon fill="red" stroke="red" stroke-width="0.24" points="161.6,-103 167.54,-94.23 157.42,-97.38 161.6,-103"/>
</g>
<!-- 20 -->
<g id="node29" class="node">
<title>20</title>
<ellipse fill="white" stroke="black" cx="234.75" cy="-82.67" rx="17.68" ry="17.68"/>
<text text-anchor="middle" x="234.75" y="-79.37" font-family="Times,serif" font-size="9.00">20</text>
</g>
<!-- &#45;7&#45;&gt;20 -->
<g id="edge34" class="edge">
<title>&#45;7&#45;&gt;20</title>
<path fill="none" stroke="green" stroke-width="0.14" d="M111.81,-139.85C138.25,-129.41 199.68,-105.04 208.75,-100.35 209.73,-99.84 210.71,-99.31 211.7,-98.76"/>
<polygon fill="green" stroke="green" stroke-width="0.14" points="213.5,-101.76 220.27,-93.62 209.89,-95.76 213.5,-101.76"/>
</g>
<!-- &#45;8 -->
<g id="node8" class="node">
<title>&#45;8</title>
<polygon fill="lightgray" stroke="black" points="199.5,-154.85 176,-154.85 176,-136.35 199.5,-136.35 199.5,-154.85"/>
<text text-anchor="middle" x="187.75" y="-142.3" font-family="Times,serif" font-size="9.00">&#45;8</text>
</g>
<!-- &#45;8&#45;&gt;17 -->
<g id="edge39" class="edge">
<title>&#45;8&#45;&gt;17</title>
<path fill="none" stroke="green" stroke-width="0.44" d="M186.89,-135.87C186.25,-129.32 185.32,-119.97 184.44,-110.99"/>
<polygon fill="green" stroke="green" stroke-width="0.44" points="187.93,-110.7 183.47,-101.09 180.96,-111.39 187.93,-110.7"/>
</g>
<!-- &#45;8&#45;&gt;18 -->
<g id="edge29" class="edge">
<title>&#45;8&#45;&gt;18</title>
<path fill="none" stroke="green" stroke-width="0.66" d="M199.64,-139.58C202.58,-138.43 205.76,-137.27 208.75,-136.35 279.46,-114.42 365.02,-97.02 408.47,-88.81"/>
<polygon fill="green" stroke="green" stroke-width="0.66" points="408.89,-92.29 418.08,-87.02 407.61,-85.41 408.89,-92.29"/>
</g>
<!-- &#45;8&#45;&gt;20 -->
<g id="edge4" class="edge">
<title>&#45;8&#45;&gt;20</title>
<path fill="none" stroke="red" stroke-width="0.26" d="M194.48,-135.87C200.65,-127.87 210.04,-115.7 218.2,-105.13"/>
<polygon fill="red" stroke="red" stroke-width="0.26" points="220.82,-107.46 224.15,-97.41 215.27,-103.19 220.82,-107.46"/>
</g>
<!-- &#45;9 -->
<g id="node9" class="node">
<title>&#45;9</title>
<polygon fill="lightgray" stroke="black" points="241.5,-154.85 218,-154.85 218,-136.35 241.5,-136.35 241.5,-154.85"/>
<text text-anchor="middle" x="229.75" y="-142.3" font-family="Times,serif" font-size="9.00">&#45;9</text>
</g>
<!-- &#45;9&#45;&gt;17 -->
<g id="edge22" class="edge">
<title>&#45;9&#45;&gt;17</title>
<path fill="none" stroke="red" stroke-width="0.17" d="M222.87,-135.87C216.57,-127.87 206.99,-115.7 198.66,-105.13"/>
<polygon fill="red" stroke="red" stroke-width="0.17" points="201.43,-102.99 192.49,-97.3 195.93,-107.32 201.43,-102.99"/>
</g>
<!-- &#45;9&#45;&gt;18 -->
<g id="edge42" class="edge">
<title>&#45;9&#45;&gt;18</title>
<path fill="none" stroke="green" stroke-width="0.2" d="M241.67,-139.68C244.62,-138.53 247.78,-137.35 250.75,-136.35 306.47,-117.56 373.04,-99.82 409.51,-90.48"/>
<polygon fill="green" stroke="green" stroke-width="0.2" points="410.27,-93.9 419.1,-88.05 408.55,-87.12 410.27,-93.9"/>
</g>
<!-- &#45;9&#45;&gt;20 -->
<g id="edge31" class="edge">
<title>&#45;9&#45;&gt;20</title>
<path fill="none" stroke="green" stroke-width="0.19" d="M230.47,-135.87C231.02,-129.17 231.8,-119.56 232.56,-110.4"/>
<polygon fill="green" stroke="green" stroke-width="0.19" points="236.02,-110.98 233.35,-100.73 229.04,-110.41 236.02,-110.98"/>
</g>
<!-- &#45;10 -->
<g id="node10" class="node">
<title>&#45;10</title>
<polygon fill="lightgray" stroke="black" points="375.75,-154.85 347.75,-154.85 347.75,-136.35 375.75,-136.35 375.75,-154.85"/>
<text text-anchor="middle" x="361.75" y="-142.3" font-family="Times,serif" font-size="9.00">&#45;10</text>
</g>
<!-- &#45;10&#45;&gt;20 -->
<g id="edge24" class="edge">
<title>&#45;10&#45;&gt;20</title>
<path fill="none" stroke="red" stroke-width="0.2" d="M347.67,-137.84C326.39,-127.63 285.73,-108.13 259.45,-95.52"/>
<polygon fill="red" stroke="red" stroke-width="0.2" points="261.28,-92.52 250.75,-91.35 258.25,-98.83 261.28,-92.52"/>
</g>
<!-- &#45;11 -->
<g id="node11" class="node">
<title>&#45;11</title>
<polygon fill="lightgray" stroke="black" points="509.75,-154.85 481.75,-154.85 481.75,-136.35 509.75,-136.35 509.75,-154.85"/>
<text text-anchor="middle" x="495.75" y="-142.3" font-family="Times,serif" font-size="9.00">&#45;11</text>
</g>
<!-- &#45;11&#45;&gt;18 -->
<g id="edge8" class="edge">
<title>&#45;11&#45;&gt;18</title>
<path fill="none" stroke="red" stroke-width="0.34" d="M487.3,-135.87C479.19,-127.5 466.67,-114.57 456.12,-103.67"/>
<polygon fill="red" stroke="red" stroke-width="0.34" points="458.71,-101.31 449.24,-96.56 453.68,-106.18 458.71,-101.31"/>
</g>
<!-- &#45;12 -->
<g id="node12" class="node">
<title>&#45;12</title>
<polygon fill="lightgray" stroke="black" points="287.75,-154.85 259.75,-154.85 259.75,-136.35 287.75,-136.35 287.75,-154.85"/>
<text text-anchor="middle" x="273.75" y="-142.3" font-family="Times,serif" font-size="9.00">&#45;12</text>
</g>
<!-- &#45;12&#45;&gt;17 -->
<g id="edge28" class="edge">
<title>&#45;12&#45;&gt;17</title>
<path fill="none" stroke="green" stroke-width="0.23" d="M260.57,-135.87C246.1,-126.28 222.59,-110.71 205,-99.07"/>
<polygon fill="green" stroke="green" stroke-width="0.23" points="206.99,-96.19 196.72,-93.59 203.13,-102.03 206.99,-96.19"/>
</g>
<!-- &#45;12&#45;&gt;19 -->
<g id="edge33" class="edge">
<title>&#45;12&#45;&gt;19</title>
<path fill="none" stroke="green" stroke-width="0.21" d="M288.24,-139.02C291.04,-138.05 293.97,-137.11 296.75,-136.35 377.52,-114.14 400.31,-119.94 481.75,-100.35 492.18,-97.84 503.55,-94.67 513.44,-91.76"/>
<polygon fill="green" stroke="green" stroke-width="0.21" points="514.22,-95.18 522.8,-88.97 512.21,-88.48 514.22,-95.18"/>
</g>
<!-- &#45;13 -->
<g id="node13" class="node">
<title>&#45;13</title>
<polygon fill="lightgray" stroke="black" points="597.75,-154.85 569.75,-154.85 569.75,-136.35 597.75,-136.35 597.75,-154.85"/>
<text text-anchor="middle" x="583.75" y="-142.3" font-family="Times,serif" font-size="9.00">&#45;13</text>
</g>
<!-- &#45;13&#45;&gt;18 -->
<g id="edge35" class="edge">
<title>&#45;13&#45;&gt;18</title>
<path fill="none" stroke="red" stroke-width="0.18" d="M569.39,-138.64C544.49,-128.32 493,-106.98 462.01,-94.14"/>
<polygon fill="red" stroke="red" stroke-width="0.18" points="463.55,-90.99 452.97,-90.39 460.87,-97.46 463.55,-90.99"/>
</g>
<!-- &#45;13&#45;&gt;19 -->
<g id="edge26" class="edge">
<title>&#45;13&#45;&gt;19</title>
<path fill="none" stroke="green" stroke-width="0.15" d="M577.45,-135.87C571.8,-128.05 563.28,-116.26 555.77,-105.85"/>
<polygon fill="green" stroke="green" stroke-width="0.15" points="558.61,-103.81 549.92,-97.75 552.93,-107.9 558.61,-103.81"/>
</g>
<!-- &#45;14 -->
<g id="node14" class="node">
<title>&#45;14</title>
<polygon fill="lightgray" stroke="black" points="865.75,-154.85 837.75,-154.85 837.75,-136.35 865.75,-136.35 865.75,-154.85"/>
<text text-anchor="middle" x="851.75" y="-142.3" font-family="Times,serif" font-size="9.00">&#45;14</text>
</g>
<!-- &#45;15 -->
<g id="node15" class="node">
<title>&#45;15</title>
<polygon fill="lightgray" stroke="black" points="69.75,-154.85 41.75,-154.85 41.75,-136.35 69.75,-136.35 69.75,-154.85"/>
<text text-anchor="middle" x="55.75" y="-142.3" font-family="Times,serif" font-size="9.00">&#45;15</text>
</g>
<!-- &#45;15&#45;&gt;17 -->
<g id="edge3" class="edge">
<title>&#45;15&#45;&gt;17</title>
<path fill="none" stroke="green" stroke-width="0.22" d="M70.2,-137.61C91.3,-127.41 130.81,-108.3 156.7,-95.78"/>
<polygon fill="green" stroke="green" stroke-width="0.22" points="158.11,-98.99 165.59,-91.48 155.06,-92.69 158.11,-98.99"/>
</g>
<!-- &#45;16 -->
<g id="node16" class="node">
<title>&#45;16</title>
<polygon fill="lightgray" stroke="black" points="777.75,-154.85 749.75,-154.85 749.75,-136.35 777.75,-136.35 777.75,-154.85"/>
<text text-anchor="middle" x="763.75" y="-142.3" font-family="Times,serif" font-size="9.00">&#45;16</text>
</g>
<!-- &#45;16&#45;&gt;19 -->
<g id="edge9" class="edge">
<title>&#45;16&#45;&gt;19</title>
<path fill="none" stroke="green" stroke-width="0.36" d="M749.71,-139.34C746.76,-138.3 743.67,-137.25 740.75,-136.35 679.33,-117.32 606,-99.25 567.12,-90.03"/>
<polygon fill="green" stroke="green" stroke-width="0.36" points="568.16,-86.68 557.63,-87.79 566.56,-93.5 568.16,-86.68"/>
</g>
<!-- &#45;17 -->
<g id="node17" class="node">
<title>&#45;17</title>
<polygon fill="lightgray" stroke="black" points="463.75,-154.85 435.75,-154.85 435.75,-136.35 463.75,-136.35 463.75,-154.85"/>
<text text-anchor="middle" x="449.75" y="-142.3" font-family="Times,serif" font-size="9.00">&#45;17</text>
</g>
<!-- &#45;17&#45;&gt;19 -->
<g id="edge11" class="edge">
<title>&#45;17&#45;&gt;19</title>
<path fill="none" stroke="green" stroke-width="0.11" d="M462.64,-135.87C476.8,-126.28 499.8,-110.71 517,-99.07"/>
<polygon fill="green" stroke="green" stroke-width="0.11" points="518.94,-101.98 525.26,-93.48 515.01,-96.19 518.94,-101.98"/>
</g>
<!-- &#45;17&#45;&gt;20 -->
<g id="edge20" class="edge">
<title>&#45;17&#45;&gt;20</title>
<path fill="none" stroke="red" stroke-width="0.21" d="M435.7,-139.36C432.76,-138.32 429.66,-137.27 426.75,-136.35 368.46,-117.92 299.06,-99.81 261.73,-90.38"/>
<polygon fill="red" stroke="red" stroke-width="0.21" points="262.95,-87.07 252.4,-88.03 261.24,-93.86 262.95,-87.07"/>
</g>
<!-- &#45;18 -->
<g id="node18" class="node">
<title>&#45;18</title>
<polygon fill="lightgray" stroke="black" points="157.75,-154.85 129.75,-154.85 129.75,-136.35 157.75,-136.35 157.75,-154.85"/>
<text text-anchor="middle" x="143.75" y="-142.3" font-family="Times,serif" font-size="9.00">&#45;18</text>
</g>
<!-- &#45;18&#45;&gt;17 -->
<g id="edge12" class="edge">
<title>&#45;18&#45;&gt;17</title>
<path fill="none" stroke="red" stroke-width="0.22" d="M149.19,-135.87C153.96,-128.23 161.09,-116.8 167.46,-106.57"/>
<polygon fill="red" stroke="red" stroke-width="0.22" points="170.29,-108.65 172.62,-98.31 164.35,-104.95 170.29,-108.65"/>
</g>
<!-- &#45;18&#45;&gt;20 -->
<g id="edge2" class="edge">
<title>&#45;18&#45;&gt;20</title>
<path fill="none" stroke="red" stroke-width="0.16" d="M156.79,-135.87C171.1,-126.28 194.36,-110.71 211.75,-99.07"/>
<polygon fill="red" stroke="red" stroke-width="0.16" points="213.67,-101.99 220.03,-93.52 209.78,-96.18 213.67,-101.99"/>
</g>
<!-- &#45;19 -->
<g id="node19" class="node">
<title>&#45;19</title>
<polygon fill="lightgray" stroke="black" points="643.75,-154.85 615.75,-154.85 615.75,-136.35 643.75,-136.35 643.75,-154.85"/>
<text text-anchor="middle" x="629.75" y="-142.3" font-family="Times,serif" font-size="9.00">&#45;19</text>
</g>
<!-- &#45;19&#45;&gt;19 -->
<g id="edge44" class="edge">
<title>&#45;19&#45;&gt;19</title>
<path fill="none" stroke="red" stroke-width="0.13" d="M616.86,-135.87C602.7,-126.28 579.7,-110.71 562.5,-99.07"/>
<polygon fill="red" stroke="red" stroke-width="0.13" points="564.51,-96.21 554.27,-93.5 560.59,-102 564.51,-96.21"/>
</g>
<!-- &#45;20 -->
<g id="node20" class="node">
<title>&#45;20</title>
<polygon fill="lightgray" stroke="black" points="689.75,-154.85 661.75,-154.85 661.75,-136.35 689.75,-136.35 689.75,-154.85"/>
<text text-anchor="middle" x="675.75" y="-142.3" font-family="Times,serif" font-size="9.00">&#45;20</text>
</g>
<!-- &#45;20&#45;&gt;19 -->
<g id="edge14" class="edge">
<title>&#45;20&#45;&gt;19</title>
<path fill="none" stroke="red" stroke-width="0.12" d="M661.45,-138.19C638.51,-127.92 593.19,-107.61 564.8,-94.89"/>
<polygon fill="red" stroke="red" stroke-width="0.12" points="566.25,-91.7 555.69,-90.81 563.38,-98.09 566.25,-91.7"/>
</g>
<!-- 0 -->
<g id="node21" class="node">
<title>0</title>
<ellipse fill="lightblue" stroke="black" cx="436.75" cy="-14.5" rx="14.5" ry="14.5"/>
<text text-anchor="middle" x="436.75" y="-11.2" font-family="Times,serif" font-size="9.00">0</text>
</g>
<!-- 0&#45;&gt;0 -->
<g id="edge23" class="edge">
<title>0&#45;&gt;0</title>
<path fill="none" stroke="green" stroke-width="0.19" d="M447.4,-24.65C457.81,-30.26 469.25,-26.88 469.25,-14.5 469.25,-5.98 463.84,-1.72 457.08,-1.71"/>
<polygon fill="green" stroke="green" stroke-width="0.19" points="456.42,1.73 447.68,-4.26 458.25,-5.02 456.42,1.73"/>
</g>
<!-- 1 -->
<g id="node22" class="node">
<title>1</title>
<ellipse fill="lightblue" stroke="black" cx="169.75" cy="-14.5" rx="14.5" ry="14.5"/>
<text text-anchor="middle" x="169.75" y="-11.2" font-family="Times,serif" font-size="9.00">1</text>
</g>
<!-- 1&#45;&gt;1 -->
<g id="edge15" class="edge">
<title>1&#45;&gt;1</title>
<path fill="none" stroke="red" stroke-width="0.36" d="M180.4,-24.65C190.81,-30.26 202.25,-26.88 202.25,-14.5 202.25,-6.18 197.08,-1.92 190.54,-1.72"/>
<polygon fill="red" stroke="red" stroke-width="0.36" points="189.73,1.69 180.92,-4.2 191.48,-5.09 189.73,1.69"/>
</g>
<!-- 2 -->
<g id="node23" class="node">
<title>2</title>
<ellipse fill="lightblue" stroke="black" cx="520.75" cy="-14.5" rx="14.5" ry="14.5"/>
<text text-anchor="middle" x="520.75" y="-11.2" font-family="Times,serif" font-size="9.00">2</text>
</g>
<!-- 3 -->
<g id="node24" class="node">
<title>3</title>
<ellipse fill="lightblue" stroke="black" cx="234.75" cy="-14.5" rx="14.5" ry="14.5"/>
<text text-anchor="middle" x="234.75" y="-11.2" font-family="Times,serif" font-size="9.00">3</text>
</g>
<!-- 4 -->
<g id="node25" class="node">
<title>4</title>
<ellipse fill="lightblue" stroke="black" cx="339.75" cy="-14.5" rx="14.5" ry="14.5"/>
<text text-anchor="middle" x="339.75" y="-11.2" font-family="Times,serif" font-size="9.00">4</text>
</g>
<!-- 4&#45;&gt;4 -->
<g id="edge1" class="edge">
<title>4&#45;&gt;4</title>
<path fill="none" stroke="green" stroke-width="0.2" d="M350.4,-24.65C360.81,-30.26 372.25,-26.88 372.25,-14.5 372.25,-5.98 366.84,-1.72 360.08,-1.71"/>
<polygon fill="green" stroke="green" stroke-width="0.2" points="359.43,1.74 350.69,-4.26 361.26,-5.02 359.43,1.74"/>
</g>
<!-- 17&#45;&gt;0 -->
<g id="edge16" class="edge">
<title>17&#45;&gt;0</title>
<path fill="none" stroke="green" stroke-width="0.24" d="M195.81,-71.33C199.55,-68.96 203.68,-66.65 207.75,-64.99 280.46,-35.3 304.12,-46.19 380.75,-28.99 391.21,-26.64 402.73,-23.89 412.59,-21.49"/>
<polygon fill="green" stroke="green" stroke-width="0.24" points="413.27,-24.93 422.15,-19.15 411.61,-18.13 413.27,-24.93"/>
</g>
<!-- 17&#45;&gt;1 -->
<g id="edge36" class="edge">
<title>17&#45;&gt;1</title>
<path fill="none" stroke="red" stroke-width="0.11" d="M178.72,-64.97C177.28,-57.02 175.53,-47.39 173.96,-38.74"/>
<polygon fill="red" stroke="red" stroke-width="0.11" points="177.43,-38.24 172.2,-29.03 170.54,-39.49 177.43,-38.24"/>
</g>
<!-- 17&#45;&gt;3 -->
<g id="edge6" class="edge">
<title>17&#45;&gt;3</title>
<path fill="none" stroke="red" stroke-width="0.33" d="M192.48,-68.28C200.3,-58.5 211.02,-45.12 219.7,-34.28"/>
<polygon fill="red" stroke="red" stroke-width="0.33" points="222.31,-36.63 225.82,-26.64 216.84,-32.26 222.31,-36.63"/>
</g>
<!-- 18&#45;&gt;0 -->
<g id="edge25" class="edge">
<title>18&#45;&gt;0</title>
<path fill="none" stroke="red" stroke-width="0.21" d="M436.75,-64.63C436.75,-56.96 436.75,-47.77 436.75,-39.43"/>
<polygon fill="red" stroke="red" stroke-width="0.21" points="440.25,-39.47 436.75,-29.47 433.25,-39.47 440.25,-39.47"/>
</g>
<!-- 18&#45;&gt;2 -->
<g id="edge30" class="edge">
<title>18&#45;&gt;2</title>
<path fill="none" stroke="red" stroke-width="0.1" d="M450.25,-71.04C464.31,-59.96 486.43,-42.53 502.15,-30.15"/>
<polygon fill="red" stroke="red" stroke-width="0.1" points="503.89,-33.23 509.58,-24.3 499.56,-27.73 503.89,-33.23"/>
</g>
<!-- 18&#45;&gt;4 -->
<g id="edge18" class="edge">
<title>18&#45;&gt;4</title>
<path fill="none" stroke="green" stroke-width="0.32" d="M422.44,-71.9C405.94,-60.65 378.7,-42.06 360.02,-29.32"/>
<polygon fill="green" stroke="green" stroke-width="0.32" points="362.01,-26.44 351.78,-23.7 358.06,-32.23 362.01,-26.44"/>
</g>
<!-- 18&#45;&gt;18 -->
<g id="edge27" class="edge">
<title>18&#45;&gt;18</title>
<path fill="none" stroke="red" stroke-width="0.11" d="M451.41,-93.2C461.94,-96.63 472.43,-93.12 472.43,-82.67 472.43,-75.65 467.69,-71.76 461.39,-71.01"/>
<polygon fill="red" stroke="red" stroke-width="0.11" points="461.11,-67.52 451.57,-72.12 461.9,-74.47 461.11,-67.52"/>
</g>
<!-- 19&#45;&gt;0 -->
<g id="edge13" class="edge">
<title>19&#45;&gt;0</title>
<path fill="none" stroke="red" stroke-width="0.16" d="M524.99,-72.19C507.14,-60.72 477.01,-41.36 457,-28.51"/>
<polygon fill="red" stroke="red" stroke-width="0.16" points="459.11,-25.7 448.81,-23.24 455.33,-31.59 459.11,-25.7"/>
</g>
<!-- 19&#45;&gt;2 -->
<g id="edge37" class="edge">
<title>19&#45;&gt;2</title>
<path fill="none" stroke="green" stroke-width="0.4" d="M535.05,-65.31C532.74,-57.26 529.91,-47.41 527.38,-38.6"/>
<polygon fill="green" stroke="green" stroke-width="0.4" points="530.79,-37.79 524.67,-29.15 524.07,-39.72 530.79,-37.79"/>
</g>
<!-- 19&#45;&gt;19 -->
<g id="edge10" class="edge">
<title>19&#45;&gt;19</title>
<path fill="none" stroke="green" stroke-width="0.23" d="M554.41,-93.2C564.94,-96.63 575.43,-93.12 575.43,-82.67 575.43,-75.65 570.69,-71.76 564.39,-71.01"/>
<polygon fill="green" stroke="green" stroke-width="0.23" points="564.29,-67.5 554.75,-72.1 565.08,-74.45 564.29,-67.5"/>
</g>
<!-- 20&#45;&gt;3 -->
<g id="edge19" class="edge">
<title>20&#45;&gt;3</title>
<path fill="none" stroke="red" stroke-width="0.36" d="M234.75,-64.63C234.75,-56.96 234.75,-47.77 234.75,-39.43"/>
<polygon fill="red" stroke="red" stroke-width="0.36" points="238.25,-39.69 234.75,-29.69 231.25,-39.69 238.25,-39.69"/>
</g>
<!-- 20&#45;&gt;4 -->
<g id="edge7" class="edge">
<title>20&#45;&gt;4</title>
<path fill="none" stroke="red" stroke-width="0.32" d="M249.35,-72.47C267.43,-61.07 298.35,-41.59 318.92,-28.62"/>
<polygon fill="red" stroke="red" stroke-width="0.32" points="320.55,-31.73 327.14,-23.44 316.82,-25.81 320.55,-31.73"/>
</g>
</g>
</svg>
