<?xml version="1.0" encoding="UTF-8" standalone="no"?>
<!DOCTYPE svg PUBLIC "-//W3C//DTD SVG 1.1//EN"
 "http://www.w3.org/Graphics/SVG/1.1/DTD/svg11.dtd">
<!-- Generated by graphviz version 12.1.1 (20240910.0053)
 -->
<!-- Pages: 1 -->
<svg width="874pt" height="163pt"
 viewBox="0.00 0.00 874.00 162.85" xmlns="http://www.w3.org/2000/svg" xmlns:xlink="http://www.w3.org/1999/xlink">
<g id="graph0" class="graph" transform="scale(1 1) rotate(0) translate(4 158.85)">
<polygon fill="white" stroke="none" points="-4,4 -4,-158.85 870,-158.85 870,4 -4,4"/>
<!-- &#45;1 -->
<g id="node1" class="node">
<title>&#45;1</title>
<polygon fill="lightgray" stroke="black" points="69.75,-154.85 46.25,-154.85 46.25,-136.35 69.75,-136.35 69.75,-154.85"/>
<text text-anchor="middle" x="58" y="-142.3" font-family="Times,serif" font-size="9.00">&#45;1</text>
</g>
<!-- 53 -->
<g id="node26" class="node">
<title>53</title>
<ellipse fill="white" stroke="black" cx="286" cy="-82.67" rx="17.68" ry="17.68"/>
<text text-anchor="middle" x="286" y="-79.37" font-family="Times,serif" font-size="9.00">53</text>
</g>
<!-- &#45;1&#45;&gt;53 -->
<g id="edge14" class="edge">
<title>&#45;1&#45;&gt;53</title>
<path fill="none" stroke="green" stroke-width="0.31" d="M69.9,-139.62C72.85,-138.47 76.02,-137.31 79,-136.35 142.37,-115.92 218.67,-98.24 258.59,-89.49"/>
<polygon fill="green" stroke="green" stroke-width="0.31" points="259.12,-92.96 268.15,-87.42 257.64,-86.12 259.12,-92.96"/>
</g>
<!-- &#45;2 -->
<g id="node2" class="node">
<title>&#45;2</title>
<polygon fill="lightgray" stroke="black" points="111.75,-154.85 88.25,-154.85 88.25,-136.35 111.75,-136.35 111.75,-154.85"/>
<text text-anchor="middle" x="100" y="-142.3" font-family="Times,serif" font-size="9.00">&#45;2</text>
</g>
<!-- &#45;2&#45;&gt;53 -->
<g id="edge17" class="edge">
<title>&#45;2&#45;&gt;53</title>
<path fill="none" stroke="red" stroke-width="0.21" d="M111.94,-139.75C114.89,-138.6 118.05,-137.4 121,-136.35 169.32,-119.16 226.49,-101.5 259.27,-91.62"/>
<polygon fill="red" stroke="red" stroke-width="0.21" points="260.13,-95.01 268.71,-88.78 258.12,-88.31 260.13,-95.01"/>
</g>
<!-- &#45;3 -->
<g id="node3" class="node">
<title>&#45;3</title>
<polygon fill="lightgray" stroke="black" points="245.75,-154.85 222.25,-154.85 222.25,-136.35 245.75,-136.35 245.75,-154.85"/>
<text text-anchor="middle" x="234" y="-142.3" font-family="Times,serif" font-size="9.00">&#45;3</text>
</g>
<!-- 54 -->
<g id="node27" class="node">
<title>54</title>
<ellipse fill="white" stroke="black" cx="454" cy="-82.67" rx="17.68" ry="17.68"/>
<text text-anchor="middle" x="454" y="-79.37" font-family="Times,serif" font-size="9.00">54</text>
</g>
<!-- &#45;3&#45;&gt;54 -->
<g id="edge38" class="edge">
<title>&#45;3&#45;&gt;54</title>
<path fill="none" stroke="green" stroke-width="0.46" d="M245.91,-139.64C248.85,-138.49 252.02,-137.32 255,-136.35 315.38,-116.57 387.87,-98.85 426.53,-89.88"/>
<polygon fill="green" stroke="green" stroke-width="0.46" points="426.86,-93.39 435.82,-87.74 425.29,-86.57 426.86,-93.39"/>
</g>
<!-- &#45;4 -->
<g id="node4" class="node">
<title>&#45;4</title>
<polygon fill="lightgray" stroke="black" points="605.75,-154.85 582.25,-154.85 582.25,-136.35 605.75,-136.35 605.75,-154.85"/>
<text text-anchor="middle" x="594" y="-142.3" font-family="Times,serif" font-size="9.00">&#45;4</text>
</g>
<!-- &#45;4&#45;&gt;54 -->
<g id="edge35" class="edge">
<title>&#45;4&#45;&gt;54</title>
<path fill="none" stroke="red" stroke-width="0.34" d="M582.01,-139.87C579.07,-138.72 575.92,-137.49 573,-136.35 531.71,-120.24 519.52,-120.41 480,-100.35 479.02,-99.85 478.03,-99.32 477.04,-98.78"/>
<polygon fill="red" stroke="red" stroke-width="0.34" points="479.1,-95.93 468.72,-93.81 475.51,-101.94 479.1,-95.93"/>
</g>
<!-- 55 -->
<g id="node28" class="node">
<title>55</title>
<ellipse fill="white" stroke="black" cx="615" cy="-82.67" rx="17.68" ry="17.68"/>
<text text-anchor="middle" x="615" y="-79.37" font-family="Times,serif" font-size="9.00">55</text>
</g>
<!-- &#45;4&#45;&gt;55 -->
<g id="edge23" class="edge">
<title>&#45;4&#45;&gt;55</title>
<path fill="none" stroke="red" stroke-width="0.12" d="M597.01,-135.87C599.4,-128.93 602.87,-118.86 606.13,-109.41"/>
<polygon fill="red" stroke="red" stroke-width="0.12" points="609.38,-110.71 609.33,-100.12 602.76,-108.43 609.38,-110.71"/>
</g>
<!-- &#45;5 -->
<g id="node5" class="node">
<title>&#45;5</title>
<polygon fill="lightgray" stroke="black" points="819.75,-154.85 796.25,-154.85 796.25,-136.35 819.75,-136.35 819.75,-154.85"/>
<text text-anchor="middle" x="808" y="-142.3" font-family="Times,serif" font-size="9.00">&#45;5</text>
</g>
<!-- &#45;6 -->
<g id="node6" class="node">
<title>&#45;6</title>
<polygon fill="lightgray" stroke="black" points="379.75,-154.85 356.25,-154.85 356.25,-136.35 379.75,-136.35 379.75,-154.85"/>
<text text-anchor="middle" x="368" y="-142.3" font-family="Times,serif" font-size="9.00">&#45;6</text>
</g>
<!-- &#45;6&#45;&gt;53 -->
<g id="edge1" class="edge">
<title>&#45;6&#45;&gt;53</title>
<path fill="none" stroke="green" stroke-width="0.41" d="M356.25,-135.87C343.81,-126.63 323.88,-111.81 308.42,-100.33"/>
<polygon fill="green" stroke="green" stroke-width="0.41" points="310.53,-97.53 300.42,-94.38 306.35,-103.15 310.53,-97.53"/>
</g>
<!-- 56 -->
<g id="node29" class="node">
<title>56</title>
<ellipse fill="white" stroke="black" cx="507" cy="-82.67" rx="17.68" ry="17.68"/>
<text text-anchor="middle" x="507" y="-79.37" font-family="Times,serif" font-size="9.00">56</text>
</g>
<!-- &#45;6&#45;&gt;56 -->
<g id="edge10" class="edge">
<title>&#45;6&#45;&gt;56</title>
<path fill="none" stroke="red" stroke-width="0.36" d="M379.99,-139.88C382.94,-138.73 386.08,-137.49 389,-136.35 429.88,-120.32 441.89,-120.3 481,-100.35 481.98,-99.85 482.97,-99.32 483.96,-98.77"/>
<polygon fill="red" stroke="red" stroke-width="0.36" points="485.46,-101.96 492.25,-93.82 481.87,-95.95 485.46,-101.96"/>
</g>
<!-- &#45;7 -->
<g id="node7" class="node">
<title>&#45;7</title>
<polygon fill="lightgray" stroke="black" points="647.75,-154.85 624.25,-154.85 624.25,-136.35 647.75,-136.35 647.75,-154.85"/>
<text text-anchor="middle" x="636" y="-142.3" font-family="Times,serif" font-size="9.00">&#45;7</text>
</g>
<!-- &#45;7&#45;&gt;55 -->
<g id="edge2" class="edge">
<title>&#45;7&#45;&gt;55</title>
<path fill="none" stroke="green" stroke-width="0.11" stroke-dasharray="1,5" d="M632.99,-135.87C630.6,-128.93 627.13,-118.86 623.87,-109.41"/>
<polygon fill="green" stroke="green" stroke-width="0.11" points="627.23,-108.42 620.67,-100.11 620.61,-110.7 627.23,-108.42"/>
</g>
<!-- &#45;7&#45;&gt;56 -->
<g id="edge21" class="edge">
<title>&#45;7&#45;&gt;56</title>
<path fill="none" stroke="green" stroke-width="0.48" d="M624.1,-138.97C603.32,-129.16 560.02,-108.71 532.29,-95.61"/>
<polygon fill="green" stroke="green" stroke-width="0.48" points="534.04,-92.57 523.51,-91.46 531.05,-98.9 534.04,-92.57"/>
</g>
<!-- &#45;8 -->
<g id="node8" class="node">
<title>&#45;8</title>
<polygon fill="lightgray" stroke="black" points="689.75,-154.85 666.25,-154.85 666.25,-136.35 689.75,-136.35 689.75,-154.85"/>
<text text-anchor="middle" x="678" y="-142.3" font-family="Times,serif" font-size="9.00">&#45;8</text>
</g>
<!-- &#45;8&#45;&gt;55 -->
<g id="edge36" class="edge">
<title>&#45;8&#45;&gt;55</title>
<path fill="none" stroke="red" stroke-width="0.34" d="M668.97,-135.87C660.13,-127.31 646.35,-113.99 634.93,-102.94"/>
<polygon fill="red" stroke="red" stroke-width="0.34" points="637.47,-100.54 627.85,-96.1 632.61,-105.57 637.47,-100.54"/>
</g>
<!-- &#45;8&#45;&gt;56 -->
<g id="edge39" class="edge">
<title>&#45;8&#45;&gt;56</title>
<path fill="none" stroke="green" stroke-width="0.23" d="M666.04,-139.81C663.09,-138.65 659.94,-137.44 657,-136.35 613.96,-120.34 563.5,-102.89 533.45,-92.63"/>
<polygon fill="green" stroke="green" stroke-width="0.23" points="534.64,-89.34 524.05,-89.43 532.38,-95.97 534.64,-89.34"/>
</g>
<!-- &#45;9 -->
<g id="node9" class="node">
<title>&#45;9</title>
<polygon fill="lightgray" stroke="black" points="731.75,-154.85 708.25,-154.85 708.25,-136.35 731.75,-136.35 731.75,-154.85"/>
<text text-anchor="middle" x="720" y="-142.3" font-family="Times,serif" font-size="9.00">&#45;9</text>
</g>
<!-- &#45;9&#45;&gt;55 -->
<g id="edge11" class="edge">
<title>&#45;9&#45;&gt;55</title>
<path fill="none" stroke="red" stroke-width="0.47" d="M707.96,-137.61C691.23,-127.9 660.61,-110.14 639.1,-97.65"/>
<polygon fill="red" stroke="red" stroke-width="0.47" points="640.96,-94.69 630.55,-92.69 637.45,-100.74 640.96,-94.69"/>
</g>
<!-- &#45;9&#45;&gt;56 -->
<g id="edge15" class="edge">
<title>&#45;9&#45;&gt;56</title>
<path fill="none" stroke="red" stroke-width="0.32" stroke-dasharray="1,5" d="M708.09,-139.66C705.14,-138.51 701.97,-137.34 699,-136.35 641.24,-117.14 572.08,-99.43 534.55,-90.24"/>
<polygon fill="red" stroke="red" stroke-width="0.32" points="535.41,-86.85 524.87,-87.9 533.76,-93.66 535.41,-86.85"/>
</g>
<!-- &#45;10 -->
<g id="node10" class="node">
<title>&#45;10</title>
<polygon fill="lightgray" stroke="black" points="426,-154.85 398,-154.85 398,-136.35 426,-136.35 426,-154.85"/>
<text text-anchor="middle" x="412" y="-142.3" font-family="Times,serif" font-size="9.00">&#45;10</text>
</g>
<!-- &#45;10&#45;&gt;53 -->
<g id="edge4" class="edge">
<title>&#45;10&#45;&gt;53</title>
<path fill="none" stroke="green" stroke-width="0.19" stroke-dasharray="1,5" d="M397.55,-137.61C376.45,-127.41 336.94,-108.3 311.05,-95.78"/>
<polygon fill="green" stroke="green" stroke-width="0.19" points="312.65,-92.67 302.12,-91.46 309.6,-98.97 312.65,-92.67"/>
</g>
<!-- &#45;10&#45;&gt;55 -->
<g id="edge28" class="edge">
<title>&#45;10&#45;&gt;55</title>
<path fill="none" stroke="red" stroke-width="0.27" d="M426.06,-139.4C429.01,-138.36 432.1,-137.29 435,-136.35 488.97,-118.79 552.89,-100.72 588.19,-90.98"/>
<polygon fill="red" stroke="red" stroke-width="0.27" points="588.67,-94.47 597.38,-88.45 586.81,-87.73 588.67,-94.47"/>
</g>
<!-- &#45;11 -->
<g id="node11" class="node">
<title>&#45;11</title>
<polygon fill="lightgray" stroke="black" points="158,-154.85 130,-154.85 130,-136.35 158,-136.35 158,-154.85"/>
<text text-anchor="middle" x="144" y="-142.3" font-family="Times,serif" font-size="9.00">&#45;11</text>
</g>
<!-- &#45;11&#45;&gt;53 -->
<g id="edge34" class="edge">
<title>&#45;11&#45;&gt;53</title>
<path fill="none" stroke="red" stroke-width="0.26" d="M158.4,-138.42C182.34,-128.15 230.66,-107.41 260.49,-94.62"/>
<polygon fill="red" stroke="red" stroke-width="0.26" points="261.66,-97.92 269.47,-90.76 258.9,-91.49 261.66,-97.92"/>
</g>
<!-- &#45;12 -->
<g id="node12" class="node">
<title>&#45;12</title>
<polygon fill="lightgray" stroke="black" points="866,-154.85 838,-154.85 838,-136.35 866,-136.35 866,-154.85"/>
<text text-anchor="middle" x="852" y="-142.3" font-family="Times,serif" font-size="9.00">&#45;12</text>
</g>
<!-- &#45;13 -->
<g id="node13" class="node">
<title>&#45;13</title>
<polygon fill="lightgray" stroke="black" points="778,-154.85 750,-154.85 750,-136.35 778,-136.35 778,-154.85"/>
<text text-anchor="middle" x="764" y="-142.3" font-family="Times,serif" font-size="9.00">&#45;13</text>
</g>
<!-- &#45;13&#45;&gt;55 -->
<g id="edge13" class="edge">
<title>&#45;13&#45;&gt;55</title>
<path fill="none" stroke="red" stroke-width="0.26" d="M749.71,-138.75C724.61,-128.49 672.25,-107.08 640.71,-94.18"/>
<polygon fill="red" stroke="red" stroke-width="0.26" points="642.21,-91.01 631.63,-90.47 639.56,-97.49 642.21,-91.01"/>
</g>
<!-- &#45;14 -->
<g id="node14" class="node">
<title>&#45;14</title>
<polygon fill="lightgray" stroke="black" points="204,-154.85 176,-154.85 176,-136.35 204,-136.35 204,-154.85"/>
<text text-anchor="middle" x="190" y="-142.3" font-family="Times,serif" font-size="9.00">&#45;14</text>
</g>
<!-- &#45;14&#45;&gt;53 -->
<g id="edge22" class="edge">
<title>&#45;14&#45;&gt;53</title>
<path fill="none" stroke="red" stroke-width="0.32" d="M203.75,-135.87C219.1,-126.13 244.19,-110.2 262.63,-98.5"/>
<polygon fill="red" stroke="red" stroke-width="0.32" points="264.35,-101.55 270.92,-93.24 260.6,-95.64 264.35,-101.55"/>
</g>
<!-- &#45;15 -->
<g id="node15" class="node">
<title>&#45;15</title>
<polygon fill="lightgray" stroke="black" points="472,-154.85 444,-154.85 444,-136.35 472,-136.35 472,-154.85"/>
<text text-anchor="middle" x="458" y="-142.3" font-family="Times,serif" font-size="9.00">&#45;15</text>
</g>
<!-- &#45;15&#45;&gt;54 -->
<g id="edge20" class="edge">
<title>&#45;15&#45;&gt;54</title>
<path fill="none" stroke="red" stroke-width="0.25" d="M457.43,-135.87C456.99,-129.25 456.37,-119.76 455.77,-110.7"/>
<polygon fill="red" stroke="red" stroke-width="0.25" points="459.27,-110.56 455.13,-100.81 452.29,-111.02 459.27,-110.56"/>
</g>
<!-- &#45;16 -->
<g id="node16" class="node">
<title>&#45;16</title>
<polygon fill="lightgray" stroke="black" points="28,-154.85 0,-154.85 0,-136.35 28,-136.35 28,-154.85"/>
<text text-anchor="middle" x="14" y="-142.3" font-family="Times,serif" font-size="9.00">&#45;16</text>
</g>
<!-- &#45;16&#45;&gt;53 -->
<g id="edge37" class="edge">
<title>&#45;16&#45;&gt;53</title>
<path fill="none" stroke="green" stroke-width="0.51" d="M28.01,-139.23C30.96,-138.2 34.06,-137.18 37,-136.35 115.93,-113.95 211.37,-96.33 257.83,-88.34"/>
<polygon fill="green" stroke="green" stroke-width="0.51" points="258.26,-91.82 267.53,-86.69 257.09,-84.92 258.26,-91.82"/>
</g>
<!-- &#45;17 -->
<g id="node17" class="node">
<title>&#45;17</title>
<polygon fill="lightgray" stroke="black" points="292,-154.85 264,-154.85 264,-136.35 292,-136.35 292,-154.85"/>
<text text-anchor="middle" x="278" y="-142.3" font-family="Times,serif" font-size="9.00">&#45;17</text>
</g>
<!-- &#45;17&#45;&gt;53 -->
<g id="edge12" class="edge">
<title>&#45;17&#45;&gt;53</title>
<path fill="none" stroke="green" stroke-width="0.31" stroke-dasharray="1,5" d="M279.15,-135.87C280.02,-129.25 281.26,-119.76 282.45,-110.7"/>
<polygon fill="green" stroke="green" stroke-width="0.31" points="285.91,-111.27 283.74,-100.9 278.97,-110.36 285.91,-111.27"/>
</g>
<!-- &#45;17&#45;&gt;56 -->
<g id="edge42" class="edge">
<title>&#45;17&#45;&gt;56</title>
<path fill="none" stroke="red" stroke-width="0.12" stroke-dasharray="1,5" d="M292.5,-139.03C295.29,-138.06 298.22,-137.12 301,-136.35 379.61,-114.52 405.35,-130.9 481,-100.35 482.02,-99.93 483.04,-99.48 484.06,-99"/>
<polygon fill="red" stroke="red" stroke-width="0.12" points="485.76,-102.06 492.78,-94.12 482.34,-95.95 485.76,-102.06"/>
</g>
<!-- &#45;18 -->
<g id="node18" class="node">
<title>&#45;18</title>
<polygon fill="lightgray" stroke="black" points="564,-154.85 536,-154.85 536,-136.35 564,-136.35 564,-154.85"/>
<text text-anchor="middle" x="550" y="-142.3" font-family="Times,serif" font-size="9.00">&#45;18</text>
</g>
<!-- &#45;18&#45;&gt;54 -->
<g id="edge26" class="edge">
<title>&#45;18&#45;&gt;54</title>
<path fill="none" stroke="green" stroke-width="0.15" d="M536.3,-135.97C522.18,-127.08 499.52,-112.78 480,-100.35 479.07,-99.76 478.13,-99.15 477.17,-98.54"/>
<polygon fill="green" stroke="green" stroke-width="0.15" points="479.06,-95.6 468.75,-93.15 475.29,-101.49 479.06,-95.6"/>
</g>
<!-- &#45;18&#45;&gt;55 -->
<g id="edge6" class="edge">
<title>&#45;18&#45;&gt;55</title>
<path fill="none" stroke="green" stroke-width="0.22" d="M559.31,-135.87C568.64,-127.12 583.29,-113.39 595.22,-102.21"/>
<polygon fill="green" stroke="green" stroke-width="0.22" points="597.44,-104.92 602.34,-95.53 592.65,-99.82 597.44,-104.92"/>
</g>
<!-- &#45;18&#45;&gt;56 -->
<g id="edge27" class="edge">
<title>&#45;18&#45;&gt;56</title>
<path fill="none" stroke="red" stroke-width="0.14" d="M543.84,-135.87C538.32,-128.05 530,-116.26 522.66,-105.85"/>
<polygon fill="red" stroke="red" stroke-width="0.14" points="525.55,-103.89 516.93,-97.73 519.83,-107.92 525.55,-103.89"/>
</g>
<!-- &#45;19 -->
<g id="node19" class="node">
<title>&#45;19</title>
<polygon fill="lightgray" stroke="black" points="518,-154.85 490,-154.85 490,-136.35 518,-136.35 518,-154.85"/>
<text text-anchor="middle" x="504" y="-142.3" font-family="Times,serif" font-size="9.00">&#45;19</text>
</g>
<!-- &#45;19&#45;&gt;56 -->
<g id="edge5" class="edge">
<title>&#45;19&#45;&gt;56</title>
<path fill="none" stroke="red" stroke-width="0.28" d="M504.43,-135.87C504.76,-129.25 505.22,-119.76 505.67,-110.7"/>
<polygon fill="red" stroke="red" stroke-width="0.28" points="509.16,-111.01 506.15,-100.85 502.17,-110.67 509.16,-111.01"/>
</g>
<!-- &#45;20 -->
<g id="node20" class="node">
<title>&#45;20</title>
<polygon fill="lightgray" stroke="black" points="338,-154.85 310,-154.85 310,-136.35 338,-136.35 338,-154.85"/>
<text text-anchor="middle" x="324" y="-142.3" font-family="Times,serif" font-size="9.00">&#45;20</text>
</g>
<!-- &#45;20&#45;&gt;53 -->
<g id="edge40" class="edge">
<title>&#45;20&#45;&gt;53</title>
<path fill="none" stroke="red" stroke-width="0.23" d="M318.56,-135.87C313.79,-128.23 306.66,-116.8 300.29,-106.57"/>
<polygon fill="red" stroke="red" stroke-width="0.23" points="303.4,-104.96 295.14,-98.33 297.46,-108.66 303.4,-104.96"/>
</g>
<!-- &#45;20&#45;&gt;56 -->
<g id="edge16" class="edge">
<title>&#45;20&#45;&gt;56</title>
<path fill="none" stroke="red" stroke-width="0.46" d="M338.05,-139.35C340.99,-138.31 344.09,-137.26 347,-136.35 405.85,-117.92 424.6,-125.29 481,-100.35 481.88,-99.96 482.76,-99.54 483.65,-99.1"/>
<polygon fill="red" stroke="red" stroke-width="0.46" points="485.31,-102.18 492.26,-94.19 481.84,-96.1 485.31,-102.18"/>
</g>
<!-- 0 -->
<g id="node21" class="node">
<title>0</title>
<ellipse fill="lightblue" stroke="black" cx="450" cy="-14.5" rx="14.5" ry="14.5"/>
<text text-anchor="middle" x="450" y="-11.2" font-family="Times,serif" font-size="9.00">0</text>
</g>
<!-- 0&#45;&gt;0 -->
<g id="edge25" class="edge">
<title>0&#45;&gt;0</title>
<path fill="none" stroke="green" stroke-width="0.26" d="M460.65,-24.65C471.06,-30.26 482.5,-26.88 482.5,-14.5 482.5,-5.98 477.09,-1.72 470.33,-1.71"/>
<polygon fill="green" stroke="green" stroke-width="0.26" points="469.76,1.76 461.03,-4.24 471.59,-5 469.76,1.76"/>
</g>
<!-- 1 -->
<g id="node22" class="node">
<title>1</title>
<ellipse fill="lightblue" stroke="black" cx="515" cy="-14.5" rx="14.5" ry="14.5"/>
<text text-anchor="middle" x="515" y="-11.2" font-family="Times,serif" font-size="9.00">1</text>
</g>
<!-- 2 -->
<g id="node23" class="node">
<title>2</title>
<ellipse fill="lightblue" stroke="black" cx="615" cy="-14.5" rx="14.5" ry="14.5"/>
<text text-anchor="middle" x="615" y="-11.2" font-family="Times,serif" font-size="9.00">2</text>
</g>
<!-- 3 -->
<g id="node24" class="node">
<title>3</title>
<ellipse fill="lightblue" stroke="black" cx="388" cy="-14.5" rx="14.5" ry="14.5"/>
<text text-anchor="middle" x="388" y="-11.2" font-family="Times,serif" font-size="9.00">3</text>
</g>
<!-- 4 -->
<g id="node25" class="node">
<title>4</title>
<ellipse fill="lightblue" stroke="black" cx="293" cy="-14.5" rx="14.5" ry="14.5"/>
<text text-anchor="middle" x="293" y="-11.2" font-family="Times,serif" font-size="9.00">4</text>
</g>
<!-- 4&#45;&gt;4 -->
<g id="edge18" class="edge">
<title>4&#45;&gt;4</title>
<path fill="none" stroke="red" stroke-width="0.56" d="M303.65,-24.65C314.06,-30.26 325.5,-26.88 325.5,-14.5 325.5,-6.18 320.33,-1.92 313.79,-1.72"/>
<polygon fill="red" stroke="red" stroke-width="0.56" points="313.29,1.76 304.48,-4.12 315.04,-5.01 313.29,1.76"/>
</g>
<!-- 53&#45;&gt;1 -->
<g id="edge33" class="edge">
<title>53&#45;&gt;1</title>
<path fill="none" stroke="green" stroke-width="0.18" d="M303.49,-78.77C339.5,-72.45 424.17,-55.83 491,-28.99 492.02,-28.58 493.05,-28.14 494.08,-27.67"/>
<polygon fill="green" stroke="green" stroke-width="0.18" points="495.59,-30.83 502.86,-23.12 492.37,-24.61 495.59,-30.83"/>
</g>
<!-- 53&#45;&gt;3 -->
<g id="edge7" class="edge">
<title>53&#45;&gt;3</title>
<path fill="none" stroke="red" stroke-width="0.38" d="M300.61,-72.19C318.03,-60.89 347.27,-41.92 367.09,-29.06"/>
<polygon fill="red" stroke="red" stroke-width="0.38" points="368.99,-32 375.47,-23.62 365.18,-26.13 368.99,-32"/>
</g>
<!-- 53&#45;&gt;4 -->
<g id="edge32" class="edge">
<title>53&#45;&gt;4</title>
<path fill="none" stroke="red" stroke-width="0.44" d="M287.8,-64.63C288.6,-57.05 289.56,-47.98 290.44,-39.71"/>
<polygon fill="red" stroke="red" stroke-width="0.44" points="293.91,-40.13 291.49,-29.81 286.95,-39.39 293.91,-40.13"/>
</g>
<!-- 54&#45;&gt;0 -->
<g id="edge31" class="edge">
<title>54&#45;&gt;0</title>
<path fill="none" stroke="green" stroke-width="0.12" d="M452.97,-64.63C452.5,-56.87 451.94,-47.57 451.43,-39.15"/>
<polygon fill="green" stroke="green" stroke-width="0.12" points="454.93,-39.1 450.84,-29.33 447.95,-39.53 454.93,-39.1"/>
</g>
<!-- 54&#45;&gt;1 -->
<g id="edge29" class="edge">
<title>54&#45;&gt;1</title>
<path fill="none" stroke="red" stroke-width="0.12" d="M465.76,-68.91C475.21,-58.66 488.58,-44.15 499.01,-32.84"/>
<polygon fill="red" stroke="red" stroke-width="0.12" points="501.34,-35.48 505.54,-25.75 496.19,-30.73 501.34,-35.48"/>
</g>
<!-- 54&#45;&gt;4 -->
<g id="edge24" class="edge">
<title>54&#45;&gt;4</title>
<path fill="none" stroke="green" stroke-width="0.17" d="M437.68,-74.96C408.7,-63.05 348.23,-38.2 315.39,-24.7"/>
<polygon fill="green" stroke="green" stroke-width="0.17" points="316.96,-21.56 306.38,-21 314.3,-28.04 316.96,-21.56"/>
</g>
<!-- 55&#45;&gt;1 -->
<g id="edge3" class="edge">
<title>55&#45;&gt;1</title>
<path fill="none" stroke="green" stroke-width="0.31" stroke-dasharray="1,5" d="M600.67,-72.19C583.59,-60.89 554.93,-41.92 535.5,-29.06"/>
<polygon fill="green" stroke="green" stroke-width="0.31" points="537.46,-26.16 527.19,-23.56 533.6,-32 537.46,-26.16"/>
</g>
<!-- 55&#45;&gt;2 -->
<g id="edge8" class="edge">
<title>55&#45;&gt;2</title>
<path fill="none" stroke="red" stroke-width="0.2" d="M615,-64.63C615,-56.96 615,-47.77 615,-39.43"/>
<polygon fill="red" stroke="red" stroke-width="0.2" points="618.5,-39.45 615,-29.45 611.5,-39.45 618.5,-39.45"/>
</g>
<!-- 55&#45;&gt;55 -->
<g id="edge9" class="edge">
<title>55&#45;&gt;55</title>
<path fill="none" stroke="red" stroke-width="0.2" d="M629.66,-93.2C640.19,-96.63 650.68,-93.12 650.68,-82.67 650.68,-75.65 645.94,-71.76 639.64,-71.01"/>
<polygon fill="red" stroke="red" stroke-width="0.2" points="639.51,-67.5 629.97,-72.11 640.3,-74.45 639.51,-67.5"/>
</g>
<!-- 56&#45;&gt;0 -->
<g id="edge30" class="edge">
<title>56&#45;&gt;0</title>
<path fill="none" stroke="red" stroke-width="0.19" d="M495.74,-68.6C487.07,-58.53 475,-44.51 465.43,-33.41"/>
<polygon fill="red" stroke="red" stroke-width="0.19" points="468.35,-31.44 459.18,-26.15 463.05,-36.01 468.35,-31.44"/>
</g>
<!-- 56&#45;&gt;1 -->
<g id="edge19" class="edge">
<title>56&#45;&gt;1</title>
<path fill="none" stroke="red" stroke-width="0.46" d="M509.06,-64.63C509.98,-57.05 511.07,-47.98 512.07,-39.71"/>
<polygon fill="red" stroke="red" stroke-width="0.46" points="515.54,-40.19 513.27,-29.84 508.59,-39.34 515.54,-40.19"/>
</g>
<!-- 56&#45;&gt;3 -->
<g id="edge41" class="edge">
<title>56&#45;&gt;3</title>
<path fill="none" stroke="red" stroke-width="0.12" d="M492.55,-72.11C488.83,-69.72 484.79,-67.21 481,-64.99 457.08,-50.98 428.88,-36.21 409.86,-26.49"/>
<polygon fill="red" stroke="red" stroke-width="0.12" points="411.48,-23.39 400.98,-21.98 408.31,-29.63 411.48,-23.39"/>
</g>
</g>
</svg>
