<?xml version="1.0" encoding="UTF-8" standalone="no"?>
<!DOCTYPE svg PUBLIC "-//W3C//DTD SVG 1.1//EN"
 "http://www.w3.org/Graphics/SVG/1.1/DTD/svg11.dtd">
<!-- Generated by graphviz version 12.1.1 (20240910.0053)
 -->
<!-- Pages: 1 -->
<svg width="1015pt" height="402pt"
 viewBox="0.00 0.00 1015.07 402.37" xmlns="http://www.w3.org/2000/svg" xmlns:xlink="http://www.w3.org/1999/xlink">
<g id="graph0" class="graph" transform="scale(1 1) rotate(0) translate(4 398.37)">
<polygon fill="white" stroke="none" points="-4,4 -4,-398.37 1011.07,-398.37 1011.07,4 -4,4"/>
<!-- &#45;1 -->
<g id="node1" class="node">
<title>&#45;1</title>
<polygon fill="lightgray" stroke="black" points="163.5,-328.26 140,-328.26 140,-309.76 163.5,-309.76 163.5,-328.26"/>
<text text-anchor="middle" x="151.75" y="-315.71" font-family="Times,serif" font-size="9.00">&#45;1</text>
</g>
<!-- 203 -->
<g id="node28" class="node">
<title>203</title>
<ellipse fill="white" stroke="black" cx="188.75" cy="-241.29" rx="20.86" ry="20.86"/>
<text text-anchor="middle" x="188.75" y="-237.99" font-family="Times,serif" font-size="9.00">203</text>
</g>
<!-- &#45;1&#45;&gt;203 -->
<g id="edge31" class="edge">
<title>&#45;1&#45;&gt;203</title>
<path fill="none" stroke="red" stroke-width="0.22" stroke-dasharray="1,5" d="M155.99,-309.32C160.68,-299.73 168.47,-283.79 175.28,-269.86"/>
<polygon fill="red" stroke="red" stroke-width="0.22" points="178.39,-271.46 179.64,-260.94 172.1,-268.39 178.39,-271.46"/>
</g>
<!-- &#45;2 -->
<g id="node2" class="node">
<title>&#45;2</title>
<polygon fill="lightgray" stroke="black" points="631.5,-328.26 608,-328.26 608,-309.76 631.5,-309.76 631.5,-328.26"/>
<text text-anchor="middle" x="619.75" y="-315.71" font-family="Times,serif" font-size="9.00">&#45;2</text>
</g>
<!-- 201 -->
<g id="node26" class="node">
<title>201</title>
<ellipse fill="white" stroke="black" cx="451.75" cy="-241.29" rx="20.86" ry="20.86"/>
<text text-anchor="middle" x="451.75" y="-237.99" font-family="Times,serif" font-size="9.00">201</text>
</g>
<!-- &#45;2&#45;&gt;201 -->
<g id="edge35" class="edge">
<title>&#45;2&#45;&gt;201</title>
<path fill="none" stroke="green" stroke-width="0.42" d="M612.2,-309.46C608.45,-305.61 603.68,-301.24 598.75,-298.15 578.67,-285.55 518.18,-264.34 481.35,-252"/>
<polygon fill="green" stroke="green" stroke-width="0.42" points="482.85,-248.81 472.25,-248.97 480.64,-255.45 482.85,-248.81"/>
</g>
<!-- 202 -->
<g id="node27" class="node">
<title>202</title>
<ellipse fill="white" stroke="black" cx="647.75" cy="-241.29" rx="20.86" ry="20.86"/>
<text text-anchor="middle" x="647.75" y="-237.99" font-family="Times,serif" font-size="9.00">202</text>
</g>
<!-- &#45;2&#45;&gt;202 -->
<g id="edge5" class="edge">
<title>&#45;2&#45;&gt;202</title>
<path fill="none" stroke="red" stroke-width="0.36" d="M622.96,-309.32C626.43,-299.95 632.14,-284.51 637.2,-270.81"/>
<polygon fill="red" stroke="red" stroke-width="0.36" points="640.36,-272.36 640.55,-261.77 633.8,-269.93 640.36,-272.36"/>
</g>
<!-- &#45;3 -->
<g id="node3" class="node">
<title>&#45;3</title>
<polygon fill="lightgray" stroke="black" points="323.5,-328.26 300,-328.26 300,-309.76 323.5,-309.76 323.5,-328.26"/>
<text text-anchor="middle" x="311.75" y="-315.71" font-family="Times,serif" font-size="9.00">&#45;3</text>
</g>
<!-- &#45;3&#45;&gt;201 -->
<g id="edge16" class="edge">
<title>&#45;3&#45;&gt;201</title>
<path fill="none" stroke="red" stroke-width="0.27" stroke-dasharray="1,5" d="M322.04,-309.4C326.69,-305.72 332.34,-301.5 337.75,-298.15 365.63,-280.9 399.6,-264.84 423.17,-254.41"/>
<polygon fill="red" stroke="red" stroke-width="0.27" points="424.45,-257.67 432.21,-250.46 421.65,-251.25 424.45,-257.67"/>
</g>
<!-- &#45;4 -->
<g id="node4" class="node">
<title>&#45;4</title>
<polygon fill="lightgray" stroke="black" points="733.5,-328.26 710,-328.26 710,-309.76 733.5,-309.76 733.5,-328.26"/>
<text text-anchor="middle" x="721.75" y="-315.71" font-family="Times,serif" font-size="9.00">&#45;4</text>
</g>
<!-- &#45;4&#45;&gt;202 -->
<g id="edge36" class="edge">
<title>&#45;4&#45;&gt;202</title>
<path fill="none" stroke="red" stroke-width="0.53" stroke-dasharray="1,5" d="M713.26,-309.32C702.59,-298.41 683.9,-279.28 669.21,-264.24"/>
<polygon fill="red" stroke="red" stroke-width="0.53" points="672,-262.09 662.51,-257.39 666.99,-266.99 672,-262.09"/>
</g>
<!-- &#45;5 -->
<g id="node5" class="node">
<title>&#45;5</title>
<polygon fill="lightgray" stroke="black" points="543.5,-328.26 520,-328.26 520,-309.76 543.5,-309.76 543.5,-328.26"/>
<text text-anchor="middle" x="531.75" y="-315.71" font-family="Times,serif" font-size="9.00">&#45;5</text>
</g>
<!-- 2 -->
<g id="node23" class="node">
<title>2</title>
<ellipse fill="lightblue" stroke="black" cx="557.75" cy="-163.57" rx="14.5" ry="14.5"/>
<text text-anchor="middle" x="557.75" y="-160.27" font-family="Times,serif" font-size="9.00">2</text>
</g>
<!-- &#45;5&#45;&gt;2 -->
<g id="edge43" class="edge">
<title>&#45;5&#45;&gt;2</title>
<path fill="none" stroke="green" stroke-width="0.16" stroke-dasharray="1,5" d="M528.36,-309.45C522.05,-292.21 509.96,-252.24 519.75,-220.43 524.06,-206.42 533.23,-192.77 541.47,-182.47"/>
<polygon fill="green" stroke="green" stroke-width="0.16" points="544.12,-184.76 547.9,-174.87 538.77,-180.25 544.12,-184.76"/>
</g>
<!-- &#45;5&#45;&gt;201 -->
<g id="edge39" class="edge">
<title>&#45;5&#45;&gt;201</title>
<path fill="none" stroke="red" stroke-width="0.15" d="M522.57,-309.32C510.79,-298.17 489.96,-278.46 473.93,-263.28"/>
<polygon fill="red" stroke="red" stroke-width="0.15" points="476.35,-260.75 466.68,-256.42 471.53,-265.83 476.35,-260.75"/>
</g>
<!-- &#45;5&#45;&gt;203 -->
<g id="edge18" class="edge">
<title>&#45;5&#45;&gt;203</title>
<path fill="none" stroke="red" stroke-width="0.16" d="M519.69,-313.43C507.86,-309.07 489.25,-302.53 472.75,-298.15 381.87,-274.03 272.12,-255.33 219.64,-247.01"/>
<polygon fill="red" stroke="red" stroke-width="0.16" points="220.29,-243.57 209.87,-245.48 219.21,-250.48 220.29,-243.57"/>
</g>
<!-- 299 -->
<g id="node30" class="node">
<title>299</title>
<ellipse fill="white" stroke="black" cx="549.75" cy="-241.29" rx="20.86" ry="20.86"/>
<text text-anchor="middle" x="549.75" y="-237.99" font-family="Times,serif" font-size="9.00">299</text>
</g>
<!-- &#45;5&#45;&gt;299 -->
<g id="edge54" class="edge">
<title>&#45;5&#45;&gt;299</title>
<path fill="none" stroke="red" stroke-width="0.18" d="M533.81,-309.32C535.99,-300.16 539.55,-285.21 542.75,-271.76"/>
<polygon fill="red" stroke="red" stroke-width="0.18" points="546.12,-272.69 545.03,-262.15 539.31,-271.07 546.12,-272.69"/>
</g>
<!-- &#45;6 -->
<g id="node6" class="node">
<title>&#45;6</title>
<polygon fill="lightgray" stroke="black" points="463.5,-328.26 440,-328.26 440,-309.76 463.5,-309.76 463.5,-328.26"/>
<text text-anchor="middle" x="451.75" y="-315.71" font-family="Times,serif" font-size="9.00">&#45;6</text>
</g>
<!-- &#45;6&#45;&gt;201 -->
<g id="edge38" class="edge">
<title>&#45;6&#45;&gt;201</title>
<path fill="none" stroke="red" stroke-width="0.35" stroke-dasharray="1,5" d="M451.75,-309.32C451.75,-300.37 451.75,-285.9 451.75,-272.69"/>
<polygon fill="red" stroke="red" stroke-width="0.35" points="455.25,-273.03 451.75,-263.03 448.25,-273.03 455.25,-273.03"/>
</g>
<!-- &#45;6&#45;&gt;202 -->
<g id="edge24" class="edge">
<title>&#45;6&#45;&gt;202</title>
<path fill="none" stroke="red" stroke-width="0.12" d="M463.72,-313.39C494.17,-301.62 575.31,-270.28 618.97,-253.41"/>
<polygon fill="red" stroke="red" stroke-width="0.12" points="620.22,-256.68 628.29,-249.81 617.7,-250.15 620.22,-256.68"/>
</g>
<!-- &#45;6&#45;&gt;203 -->
<g id="edge2" class="edge">
<title>&#45;6&#45;&gt;203</title>
<path fill="none" stroke="red" stroke-width="0.22" stroke-dasharray="1,5" d="M444.76,-309.56C441,-305.54 436.06,-300.99 430.75,-298.15 361.33,-260.93 267.75,-248.38 219.85,-244.25"/>
<polygon fill="red" stroke="red" stroke-width="0.22" points="220.37,-240.78 210.13,-243.48 219.82,-247.76 220.37,-240.78"/>
</g>
<!-- &#45;7 -->
<g id="node7" class="node">
<title>&#45;7</title>
<polygon fill="lightgray" stroke="black" points="840.5,-394.37 817,-394.37 817,-375.87 840.5,-375.87 840.5,-394.37"/>
<text text-anchor="middle" x="828.75" y="-381.82" font-family="Times,serif" font-size="9.00">&#45;7</text>
</g>
<!-- &#45;8 -->
<g id="node8" class="node">
<title>&#45;8</title>
<polygon fill="lightgray" stroke="black" points="23.5,-328.26 0,-328.26 0,-309.76 23.5,-309.76 23.5,-328.26"/>
<text text-anchor="middle" x="11.75" y="-315.71" font-family="Times,serif" font-size="9.00">&#45;8</text>
</g>
<!-- &#45;8&#45;&gt;203 -->
<g id="edge20" class="edge">
<title>&#45;8&#45;&gt;203</title>
<path fill="none" stroke="red" stroke-width="0.28" d="M21.39,-309.54C26.1,-305.7 31.98,-301.33 37.75,-298.15 77.57,-276.23 127.73,-259.61 159.03,-250.41"/>
<polygon fill="red" stroke="red" stroke-width="0.28" points="159.83,-253.83 168.47,-247.7 157.89,-247.1 159.83,-253.83"/>
</g>
<!-- &#45;9 -->
<g id="node9" class="node">
<title>&#45;9</title>
<polygon fill="lightgray" stroke="black" points="243.5,-328.26 220,-328.26 220,-309.76 243.5,-309.76 243.5,-328.26"/>
<text text-anchor="middle" x="231.75" y="-315.71" font-family="Times,serif" font-size="9.00">&#45;9</text>
</g>
<!-- &#45;9&#45;&gt;203 -->
<g id="edge32" class="edge">
<title>&#45;9&#45;&gt;203</title>
<path fill="none" stroke="red" stroke-width="0.28" d="M226.82,-309.32C221.24,-299.51 211.9,-283.06 203.87,-268.91"/>
<polygon fill="red" stroke="red" stroke-width="0.28" points="207.02,-267.38 199.04,-260.41 200.93,-270.83 207.02,-267.38"/>
</g>
<!-- 204 -->
<g id="node29" class="node">
<title>204</title>
<ellipse fill="white" stroke="black" cx="761.75" cy="-85.85" rx="20.86" ry="20.86"/>
<text text-anchor="middle" x="761.75" y="-82.55" font-family="Times,serif" font-size="9.00">204</text>
</g>
<!-- &#45;9&#45;&gt;204 -->
<g id="edge28" class="edge">
<title>&#45;9&#45;&gt;204</title>
<path fill="none" stroke="green" stroke-width="0.72" stroke-dasharray="1,5" d="M230.1,-309.47C225.12,-280.95 213.46,-188.26 261.75,-142.71 278.9,-126.54 622.7,-97.92 730.03,-89.34"/>
<polygon fill="green" stroke="green" stroke-width="0.72" points="730.01,-92.86 739.7,-88.58 729.45,-85.88 730.01,-92.86"/>
</g>
<!-- &#45;10 -->
<g id="node10" class="node">
<title>&#45;10</title>
<polygon fill="lightgray" stroke="black" points="798.75,-394.37 770.75,-394.37 770.75,-375.87 798.75,-375.87 798.75,-394.37"/>
<text text-anchor="middle" x="784.75" y="-381.82" font-family="Times,serif" font-size="9.00">&#45;10</text>
</g>
<!-- &#45;10&#45;&gt;201 -->
<g id="edge41" class="edge">
<title>&#45;10&#45;&gt;201</title>
<path fill="none" stroke="green" stroke-width="0.12" d="M770.28,-383.37C720.06,-380.52 553.99,-369.04 510.75,-339.87 486.45,-323.47 470.52,-293.39 461.41,-270.95"/>
<polygon fill="green" stroke="green" stroke-width="0.12" points="464.72,-269.8 457.87,-261.72 458.18,-272.31 464.72,-269.8"/>
</g>
<!-- &#45;10&#45;&gt;202 -->
<g id="edge29" class="edge">
<title>&#45;10&#45;&gt;202</title>
<path fill="none" stroke="red" stroke-width="0.25" d="M798.86,-378.6C824.38,-368.47 876,-347.29 880.75,-339.87 890.75,-324.25 892.63,-312.38 880.75,-298.15 823.44,-229.48 766.83,-292.65 682.75,-262.15 679.82,-261.09 676.85,-259.79 673.95,-258.38"/>
<polygon fill="red" stroke="red" stroke-width="0.25" points="675.8,-255.4 665.33,-253.78 672.5,-261.58 675.8,-255.4"/>
</g>
<!-- &#45;10&#45;&gt;204 -->
<g id="edge8" class="edge">
<title>&#45;10&#45;&gt;204</title>
<path fill="none" stroke="green" stroke-width="0.42" d="M798.77,-378.79C801.72,-377.76 804.82,-376.73 807.75,-375.87 876.45,-355.75 919.61,-395.43 964.75,-339.87 1020.01,-271.85 1021,-212.32 967.75,-142.71 946.57,-115.03 845.28,-97.87 793.05,-90.71"/>
<polygon fill="green" stroke="green" stroke-width="0.42" points="793.71,-87.27 783.34,-89.42 792.79,-94.21 793.71,-87.27"/>
</g>
<!-- 371 -->
<g id="node32" class="node">
<title>371</title>
<ellipse fill="white" stroke="black" cx="670.75" cy="-319.01" rx="20.86" ry="20.86"/>
<text text-anchor="middle" x="670.75" y="-315.71" font-family="Times,serif" font-size="9.00">371</text>
</g>
<!-- &#45;10&#45;&gt;371 -->
<g id="edge52" class="edge">
<title>&#45;10&#45;&gt;371</title>
<path fill="none" stroke="green" stroke-width="0.27" d="M770.54,-377.18C753.65,-368.8 724.72,-354.07 700.75,-339.87 699.27,-338.99 697.77,-338.08 696.25,-337.14"/>
<polygon fill="green" stroke="green" stroke-width="0.27" points="698.34,-334.32 688.04,-331.87 694.57,-340.21 698.34,-334.32"/>
</g>
<!-- &#45;11 -->
<g id="node11" class="node">
<title>&#45;11</title>
<polygon fill="lightgray" stroke="black" points="779.75,-328.26 751.75,-328.26 751.75,-309.76 779.75,-309.76 779.75,-328.26"/>
<text text-anchor="middle" x="765.75" y="-315.71" font-family="Times,serif" font-size="9.00">&#45;11</text>
</g>
<!-- &#45;11&#45;&gt;202 -->
<g id="edge23" class="edge">
<title>&#45;11&#45;&gt;202</title>
<path fill="none" stroke="red" stroke-width="0.12" d="M756.66,-309.49C752.56,-305.82 747.55,-301.59 742.75,-298.15 736.46,-293.64 700.12,-272.49 674.26,-257.55"/>
<polygon fill="red" stroke="red" stroke-width="0.12" points="676.2,-254.63 665.79,-252.66 672.7,-260.69 676.2,-254.63"/>
</g>
<!-- &#45;12 -->
<g id="node12" class="node">
<title>&#45;12</title>
<polygon fill="lightgray" stroke="black" points="589.75,-328.26 561.75,-328.26 561.75,-309.76 589.75,-309.76 589.75,-328.26"/>
<text text-anchor="middle" x="575.75" y="-315.71" font-family="Times,serif" font-size="9.00">&#45;12</text>
</g>
<!-- &#45;12&#45;&gt;201 -->
<g id="edge7" class="edge">
<title>&#45;12&#45;&gt;201</title>
<path fill="none" stroke="red" stroke-width="0.39" stroke-dasharray="1,5" d="M566.71,-309.43C562.61,-305.75 557.6,-301.53 552.75,-298.15 529.19,-281.73 500.36,-266.19 479.54,-255.69"/>
<polygon fill="red" stroke="red" stroke-width="0.39" points="481.35,-252.68 470.84,-251.36 478.23,-258.95 481.35,-252.68"/>
</g>
<!-- &#45;12&#45;&gt;202 -->
<g id="edge17" class="edge">
<title>&#45;12&#45;&gt;202</title>
<path fill="none" stroke="red" stroke-width="0.11" stroke-dasharray="1,5" d="M584.01,-309.32C594.42,-298.37 612.69,-279.16 627.01,-264.11"/>
<polygon fill="red" stroke="red" stroke-width="0.11" points="629.2,-266.88 633.55,-257.22 624.13,-262.06 629.2,-266.88"/>
</g>
<!-- &#45;12&#45;&gt;203 -->
<g id="edge12" class="edge">
<title>&#45;12&#45;&gt;203</title>
<path fill="none" stroke="green" stroke-width="0.57" stroke-dasharray="1,5" d="M568.04,-309.39C563.91,-305.33 558.5,-300.8 552.75,-298.15 493.54,-270.83 297.61,-251.59 220.41,-244.89"/>
<polygon fill="green" stroke="green" stroke-width="0.57" points="221.03,-241.43 210.77,-244.07 220.43,-248.4 221.03,-241.43"/>
</g>
<!-- &#45;12&#45;&gt;204 -->
<g id="edge13" class="edge">
<title>&#45;12&#45;&gt;204</title>
<path fill="none" stroke="red" stroke-width="0.53" stroke-dasharray="1,5" d="M578.15,-309.31C583.36,-291.47 596.9,-249.96 617.75,-220.43 635.77,-194.9 701.82,-137.44 737.87,-106.87"/>
<polygon fill="red" stroke="red" stroke-width="0.53" points="739.94,-109.71 745.31,-100.58 735.42,-104.36 739.94,-109.71"/>
</g>
<!-- &#45;12&#45;&gt;299 -->
<g id="edge44" class="edge">
<title>&#45;12&#45;&gt;299</title>
<path fill="none" stroke="green" stroke-width="0.93" d="M572.77,-309.32C569.66,-300.28 564.62,-285.6 560.05,-272.28"/>
<polygon fill="green" stroke="green" stroke-width="0.93" points="563.38,-271.21 556.82,-262.89 556.76,-273.49 563.38,-271.21"/>
</g>
<!-- &#45;13 -->
<g id="node13" class="node">
<title>&#45;13</title>
<polygon fill="lightgray" stroke="black" points="114.75,-394.37 86.75,-394.37 86.75,-375.87 114.75,-375.87 114.75,-394.37"/>
<text text-anchor="middle" x="100.75" y="-381.82" font-family="Times,serif" font-size="9.00">&#45;13</text>
</g>
<!-- &#45;13&#45;&gt;203 -->
<g id="edge19" class="edge">
<title>&#45;13&#45;&gt;203</title>
<path fill="none" stroke="red" stroke-width="0.12" stroke-dasharray="1,5" d="M93.02,-375.49C79.51,-359.33 54.52,-323.79 70.75,-298.15 89.86,-267.96 130.18,-253.77 158.34,-247.32"/>
<polygon fill="red" stroke="red" stroke-width="0.12" points="158.86,-250.79 167.93,-245.32 157.43,-243.94 158.86,-250.79"/>
</g>
<!-- &#45;13&#45;&gt;204 -->
<g id="edge9" class="edge">
<title>&#45;13&#45;&gt;204</title>
<path fill="none" stroke="green" stroke-width="0.56" stroke-dasharray="1,5" d="M115.19,-383.21C144.03,-380.74 209.68,-371.76 252.75,-339.87 294.83,-308.71 337.63,-170.91 381.75,-142.71 439.57,-105.76 650.04,-92.12 730.34,-88.19"/>
<polygon fill="green" stroke="green" stroke-width="0.56" points="730.1,-91.7 739.93,-87.74 729.77,-84.71 730.1,-91.7"/>
</g>
<!-- 497 -->
<g id="node31" class="node">
<title>497</title>
<ellipse fill="white" stroke="black" cx="100.75" cy="-319.01" rx="20.86" ry="20.86"/>
<text text-anchor="middle" x="100.75" y="-315.71" font-family="Times,serif" font-size="9.00">497</text>
</g>
<!-- &#45;13&#45;&gt;497 -->
<g id="edge55" class="edge">
<title>&#45;13&#45;&gt;497</title>
<path fill="none" stroke="green" stroke-width="0.2" d="M100.75,-375.47C100.75,-368.97 100.75,-359.63 100.75,-350.47"/>
<polygon fill="green" stroke="green" stroke-width="0.2" points="104.25,-350.66 100.75,-340.66 97.25,-350.66 104.25,-350.66"/>
</g>
<!-- &#45;14 -->
<g id="node14" class="node">
<title>&#45;14</title>
<polygon fill="lightgray" stroke="black" points="958.75,-172.82 930.75,-172.82 930.75,-154.32 958.75,-154.32 958.75,-172.82"/>
<text text-anchor="middle" x="944.75" y="-160.27" font-family="Times,serif" font-size="9.00">&#45;14</text>
</g>
<!-- &#45;14&#45;&gt;204 -->
<g id="edge6" class="edge">
<title>&#45;14&#45;&gt;204</title>
<path fill="none" stroke="red" stroke-width="0.23" d="M934.02,-153.92C928.98,-150.14 922.77,-145.86 916.75,-142.71 875.34,-121.08 823.68,-104.31 791.7,-95.01"/>
<polygon fill="red" stroke="red" stroke-width="0.23" points="792.97,-91.73 782.39,-92.35 791.05,-98.46 792.97,-91.73"/>
</g>
<!-- &#45;15 -->
<g id="node15" class="node">
<title>&#45;15</title>
<polygon fill="lightgray" stroke="black" points="752.75,-250.54 724.75,-250.54 724.75,-232.04 752.75,-232.04 752.75,-250.54"/>
<text text-anchor="middle" x="738.75" y="-237.99" font-family="Times,serif" font-size="9.00">&#45;15</text>
</g>
<!-- &#45;15&#45;&gt;2 -->
<g id="edge46" class="edge">
<title>&#45;15&#45;&gt;2</title>
<path fill="none" stroke="red" stroke-width="0.73" d="M728.01,-231.65C722.98,-227.87 716.77,-223.59 710.75,-220.43 667.68,-197.82 613.41,-180.37 582.44,-171.36"/>
<polygon fill="red" stroke="red" stroke-width="0.73" points="583.42,-168 572.84,-168.63 581.5,-174.73 583.42,-168"/>
</g>
<!-- &#45;16 -->
<g id="node16" class="node">
<title>&#45;16</title>
<polygon fill="lightgray" stroke="black" points="365.75,-394.37 337.75,-394.37 337.75,-375.87 365.75,-375.87 365.75,-394.37"/>
<text text-anchor="middle" x="351.75" y="-381.82" font-family="Times,serif" font-size="9.00">&#45;16</text>
</g>
<!-- &#45;16&#45;&gt;201 -->
<g id="edge21" class="edge">
<title>&#45;16&#45;&gt;201</title>
<path fill="none" stroke="green" stroke-width="0.24" d="M351.64,-375.76C351.82,-359.44 354.2,-322.75 370.75,-298.15 383.74,-278.84 405.85,-264.26 423.69,-254.85"/>
<polygon fill="green" stroke="green" stroke-width="0.24" points="424.87,-258.17 432.23,-250.56 421.73,-251.92 424.87,-258.17"/>
</g>
<!-- &#45;16&#45;&gt;203 -->
<g id="edge15" class="edge">
<title>&#45;16&#45;&gt;203</title>
<path fill="none" stroke="red" stroke-width="0.18" stroke-dasharray="1,5" d="M337.32,-384.05C308.71,-383.08 244.64,-376.67 210.75,-339.87 194.15,-321.84 189.16,-294.02 188.03,-272.7"/>
<polygon fill="red" stroke="red" stroke-width="0.18" points="191.54,-272.7 187.76,-262.8 184.54,-272.89 191.54,-272.7"/>
</g>
<!-- 346 -->
<g id="node35" class="node">
<title>346</title>
<ellipse fill="white" stroke="black" cx="400.75" cy="-319.01" rx="20.86" ry="20.86"/>
<text text-anchor="middle" x="400.75" y="-315.71" font-family="Times,serif" font-size="9.00">346</text>
</g>
<!-- &#45;16&#45;&gt;346 -->
<g id="edge50" class="edge">
<title>&#45;16&#45;&gt;346</title>
<path fill="none" stroke="red" stroke-width="0.17" d="M358.36,-375.47C364.48,-367.47 373.87,-355.17 382.27,-344.19"/>
<polygon fill="red" stroke="red" stroke-width="0.17" points="384.97,-346.42 388.26,-336.34 379.41,-342.16 384.97,-346.42"/>
</g>
<!-- &#45;17 -->
<g id="node17" class="node">
<title>&#45;17</title>
<polygon fill="lightgray" stroke="black" points="955.75,-328.26 927.75,-328.26 927.75,-309.76 955.75,-309.76 955.75,-328.26"/>
<text text-anchor="middle" x="941.75" y="-315.71" font-family="Times,serif" font-size="9.00">&#45;17</text>
</g>
<!-- &#45;17&#45;&gt;202 -->
<g id="edge11" class="edge">
<title>&#45;17&#45;&gt;202</title>
<path fill="none" stroke="red" stroke-width="0.14" d="M932.05,-309.43C926.94,-305.37 920.38,-300.84 913.75,-298.15 817.48,-259.05 780.87,-296.35 682.75,-262.15 679.81,-261.12 676.83,-259.85 673.92,-258.46"/>
<polygon fill="red" stroke="red" stroke-width="0.14" points="675.63,-255.4 665.16,-253.8 672.34,-261.58 675.63,-255.4"/>
</g>
<!-- &#45;17&#45;&gt;204 -->
<g id="edge22" class="edge">
<title>&#45;17&#45;&gt;204</title>
<path fill="none" stroke="green" stroke-width="0.88" d="M937.61,-309.29C924.63,-282.46 882.48,-199.53 831.75,-142.71 818.88,-128.29 802,-114.71 788.04,-104.54"/>
<polygon fill="green" stroke="green" stroke-width="0.88" points="790.2,-101.78 780.02,-98.86 786.16,-107.49 790.2,-101.78"/>
</g>
<!-- 341 -->
<g id="node33" class="node">
<title>341</title>
<ellipse fill="white" stroke="black" cx="504.75" cy="-163.57" rx="20.86" ry="20.86"/>
<text text-anchor="middle" x="504.75" y="-160.27" font-family="Times,serif" font-size="9.00">341</text>
</g>
<!-- &#45;17&#45;&gt;341 -->
<g id="edge49" class="edge">
<title>&#45;17&#45;&gt;341</title>
<path fill="none" stroke="green" stroke-width="0.39" stroke-dasharray="1,5" d="M927.37,-310.32C919.18,-306.2 908.61,-301.34 898.75,-298.15 819.9,-272.59 787.97,-302.84 715.75,-262.15 693.9,-249.84 699.27,-233.31 677.75,-220.43 621.51,-186.77 594.71,-210.9 534.75,-184.43 533.18,-183.74 531.6,-182.96 530.03,-182.13"/>
<polygon fill="green" stroke="green" stroke-width="0.39" points="532.21,-179.36 521.82,-177.27 528.64,-185.38 532.21,-179.36"/>
</g>
<!-- &#45;18 -->
<g id="node18" class="node">
<title>&#45;18</title>
<polygon fill="lightgray" stroke="black" points="871.75,-328.26 843.75,-328.26 843.75,-309.76 871.75,-309.76 871.75,-328.26"/>
<text text-anchor="middle" x="857.75" y="-315.71" font-family="Times,serif" font-size="9.00">&#45;18</text>
</g>
<!-- &#45;18&#45;&gt;201 -->
<g id="edge10" class="edge">
<title>&#45;18&#45;&gt;201</title>
<path fill="none" stroke="red" stroke-width="0.1" d="M850.08,-309.3C845.96,-305.21 840.55,-300.69 834.75,-298.15 705.69,-241.59 657.88,-290 519.75,-262.15 506.85,-259.55 492.85,-255.65 480.92,-251.99"/>
<polygon fill="red" stroke="red" stroke-width="0.1" points="482.2,-248.73 471.61,-249.06 480.1,-255.4 482.2,-248.73"/>
</g>
<!-- &#45;18&#45;&gt;204 -->
<g id="edge1" class="edge">
<title>&#45;18&#45;&gt;204</title>
<path fill="none" stroke="red" stroke-width="0.26" stroke-dasharray="1,5" d="M856.68,-309.5C853.11,-283.29 840.04,-201.95 808.75,-142.71 802.12,-130.15 792.29,-117.89 783.33,-108.06"/>
<polygon fill="red" stroke="red" stroke-width="0.26" points="786.1,-105.9 776.68,-101.04 781.01,-110.71 786.1,-105.9"/>
</g>
<!-- &#45;19 -->
<g id="node19" class="node">
<title>&#45;19</title>
<polygon fill="lightgray" stroke="black" points="825.75,-328.26 797.75,-328.26 797.75,-309.76 825.75,-309.76 825.75,-328.26"/>
<text text-anchor="middle" x="811.75" y="-315.71" font-family="Times,serif" font-size="9.00">&#45;19</text>
</g>
<!-- &#45;19&#45;&gt;203 -->
<g id="edge14" class="edge">
<title>&#45;19&#45;&gt;203</title>
<path fill="none" stroke="red" stroke-width="0.28" d="M804.51,-309.66C800.35,-305.45 794.77,-300.71 788.75,-298.15 775.51,-292.51 341.49,-255.27 220.05,-244.94"/>
<polygon fill="red" stroke="red" stroke-width="0.28" points="220.6,-241.48 210.34,-244.12 220.01,-248.45 220.6,-241.48"/>
</g>
<!-- &#45;19&#45;&gt;204 -->
<g id="edge33" class="edge">
<title>&#45;19&#45;&gt;204</title>
<path fill="none" stroke="green" stroke-width="0.19" d="M812,-309.34C812.37,-292.23 812.55,-252.97 807.75,-220.43 802.55,-185.14 799.77,-176.29 787.75,-142.71 784.31,-133.1 779.82,-122.88 775.54,-113.86"/>
<polygon fill="green" stroke="green" stroke-width="0.19" points="778.69,-112.33 771.17,-104.87 772.39,-115.39 778.69,-112.33"/>
</g>
<!-- &#45;20 -->
<g id="node20" class="node">
<title>&#45;20</title>
<polygon fill="lightgray" stroke="black" points="798.75,-250.54 770.75,-250.54 770.75,-232.04 798.75,-232.04 798.75,-250.54"/>
<text text-anchor="middle" x="784.75" y="-237.99" font-family="Times,serif" font-size="9.00">&#45;20</text>
</g>
<!-- &#45;20&#45;&gt;204 -->
<g id="edge40" class="edge">
<title>&#45;20&#45;&gt;204</title>
<path fill="none" stroke="green" stroke-width="0.17" stroke-dasharray="1,5" d="M783.45,-231.6C780.19,-209.85 771.55,-152.24 766.21,-116.6"/>
<polygon fill="green" stroke="green" stroke-width="0.17" points="769.71,-116.38 764.77,-107.01 762.79,-117.41 769.71,-116.38"/>
</g>
<!-- 599 -->
<g id="node34" class="node">
<title>599</title>
<ellipse fill="white" stroke="black" cx="737.75" cy="-163.57" rx="20.86" ry="20.86"/>
<text text-anchor="middle" x="737.75" y="-160.27" font-family="Times,serif" font-size="9.00">599</text>
</g>
<!-- &#45;20&#45;&gt;599 -->
<g id="edge57" class="edge">
<title>&#45;20&#45;&gt;599</title>
<path fill="none" stroke="green" stroke-width="0.36" d="M779.36,-231.6C773.19,-221.66 762.79,-204.91 753.93,-190.64"/>
<polygon fill="green" stroke="green" stroke-width="0.36" points="756.93,-188.84 748.68,-182.18 750.98,-192.53 756.93,-188.84"/>
</g>
<!-- 0 -->
<g id="node21" class="node">
<title>0</title>
<ellipse fill="lightblue" stroke="black" cx="761.75" cy="-14.5" rx="14.5" ry="14.5"/>
<text text-anchor="middle" x="761.75" y="-11.2" font-family="Times,serif" font-size="9.00">0</text>
</g>
<!-- 1 -->
<g id="node22" class="node">
<title>1</title>
<ellipse fill="lightblue" stroke="black" cx="451.75" cy="-163.57" rx="14.5" ry="14.5"/>
<text text-anchor="middle" x="451.75" y="-160.27" font-family="Times,serif" font-size="9.00">1</text>
</g>
<!-- 1&#45;&gt;204 -->
<g id="edge42" class="edge">
<title>1&#45;&gt;204</title>
<path fill="none" stroke="green" stroke-width="0.16" stroke-dasharray="1,5" d="M461.23,-152.42C465.09,-148.84 469.81,-145.11 474.75,-142.71 561,-100.81 676.24,-90.33 730.72,-87.72"/>
<polygon fill="green" stroke="green" stroke-width="0.16" points="730.69,-91.22 740.53,-87.3 730.39,-84.23 730.69,-91.22"/>
</g>
<!-- 3 -->
<g id="node24" class="node">
<title>3</title>
<ellipse fill="lightblue" stroke="black" cx="433.75" cy="-85.85" rx="14.5" ry="14.5"/>
<text text-anchor="middle" x="433.75" y="-82.55" font-family="Times,serif" font-size="9.00">3</text>
</g>
<!-- 4 -->
<g id="node25" class="node">
<title>4</title>
<ellipse fill="lightblue" stroke="black" cx="404.75" cy="-163.57" rx="14.5" ry="14.5"/>
<text text-anchor="middle" x="404.75" y="-160.27" font-family="Times,serif" font-size="9.00">4</text>
</g>
<!-- 201&#45;&gt;1 -->
<g id="edge30" class="edge">
<title>201&#45;&gt;1</title>
<path fill="none" stroke="red" stroke-width="0.34" d="M451.75,-220C451.75,-210.35 451.75,-198.74 451.75,-188.64"/>
<polygon fill="red" stroke="red" stroke-width="0.34" points="455.25,-188.96 451.75,-178.96 448.25,-188.96 455.25,-188.96"/>
</g>
<!-- 201&#45;&gt;2 -->
<g id="edge27" class="edge">
<title>201&#45;&gt;2</title>
<path fill="none" stroke="green" stroke-width="0.3" stroke-dasharray="1,5" d="M469.34,-229.32C486.44,-218.46 512.94,-201.09 534.75,-184.43 536.32,-183.23 537.93,-181.95 539.52,-180.65"/>
<polygon fill="green" stroke="green" stroke-width="0.3" points="541.49,-183.57 546.86,-174.43 536.97,-178.23 541.49,-183.57"/>
</g>
<!-- 201&#45;&gt;3 -->
<g id="edge4" class="edge">
<title>201&#45;&gt;3</title>
<path fill="none" stroke="green" stroke-width="0.37" stroke-dasharray="1,5" d="M432.87,-231.38C415.96,-222.25 392.27,-206.28 381.75,-184.43 373.71,-167.72 374.96,-159.97 381.75,-142.71 388.23,-126.24 402.1,-111.75 413.89,-101.66"/>
<polygon fill="green" stroke="green" stroke-width="0.37" points="415.97,-104.48 421.54,-95.47 411.56,-99.04 415.97,-104.48"/>
</g>
<!-- 201&#45;&gt;4 -->
<g id="edge3" class="edge">
<title>201&#45;&gt;4</title>
<path fill="none" stroke="green" stroke-width="0.97" d="M441.08,-223.11C434.21,-212.04 425.23,-197.57 417.92,-185.78"/>
<polygon fill="green" stroke="green" stroke-width="0.97" points="421.04,-184.17 412.79,-177.52 415.09,-187.86 421.04,-184.17"/>
</g>
<!-- 201&#45;&gt;341 -->
<g id="edge47" class="edge">
<title>201&#45;&gt;341</title>
<path fill="none" stroke="red" stroke-width="0.16" d="M463.51,-223.49C470.51,-213.49 479.52,-200.61 487.33,-189.45"/>
<polygon fill="red" stroke="red" stroke-width="0.16" points="490.02,-191.72 492.88,-181.53 484.28,-187.71 490.02,-191.72"/>
</g>
<!-- 202&#45;&gt;2 -->
<g id="edge37" class="edge">
<title>202&#45;&gt;2</title>
<path fill="none" stroke="green" stroke-width="0.37" d="M632.07,-227.1C616.55,-214.04 592.78,-194.04 576.31,-180.19"/>
<polygon fill="green" stroke="green" stroke-width="0.37" points="578.79,-177.7 568.88,-173.94 574.28,-183.05 578.79,-177.7"/>
</g>
<!-- 202&#45;&gt;3 -->
<g id="edge26" class="edge">
<title>202&#45;&gt;3</title>
<path fill="none" stroke="green" stroke-width="0.11" d="M639.45,-221.96C628.75,-200.25 608.22,-164.3 580.75,-142.71 543.34,-113.31 488.73,-98.05 457.68,-91.3"/>
<polygon fill="green" stroke="green" stroke-width="0.11" points="458.77,-87.95 448.27,-89.37 457.36,-94.81 458.77,-87.95"/>
</g>
<!-- 203&#45;&gt;3 -->
<g id="edge34" class="edge">
<title>203&#45;&gt;3</title>
<path fill="none" stroke="red" stroke-width="0.4" stroke-dasharray="1,5" d="M190.53,-220.08C193.57,-197.95 201.75,-162.93 223.75,-142.71 276.02,-94.67 364.92,-87.08 408.35,-86.42"/>
<polygon fill="red" stroke="red" stroke-width="0.4" points="408.25,-89.92 418.24,-86.39 408.23,-82.92 408.25,-89.92"/>
</g>
<!-- 204&#45;&gt;0 -->
<g id="edge25" class="edge">
<title>204&#45;&gt;0</title>
<path fill="none" stroke="green" stroke-width="0.41" stroke-dasharray="1,5" d="M761.75,-64.79C761.75,-56.98 761.75,-47.96 761.75,-39.78"/>
<polygon fill="green" stroke="green" stroke-width="0.41" points="765.25,-39.98 761.75,-29.98 758.25,-39.98 765.25,-39.98"/>
</g>
<!-- 299&#45;&gt;204 -->
<g id="edge45" class="edge">
<title>299&#45;&gt;204</title>
<path fill="none" stroke="red" stroke-width="0.3" d="M564.15,-225.99C584.72,-205.98 624.21,-169.12 661.75,-142.71 684.92,-126.41 713.26,-110.96 733.85,-100.45"/>
<polygon fill="red" stroke="red" stroke-width="0.3" points="735.23,-103.68 742.59,-96.06 732.08,-97.42 735.23,-103.68"/>
</g>
<!-- 497&#45;&gt;203 -->
<g id="edge56" class="edge">
<title>497&#45;&gt;203</title>
<path fill="none" stroke="green" stroke-width="0.39" d="M116.08,-304.82C129.75,-293.06 149.96,-275.67 165.6,-262.21"/>
<polygon fill="green" stroke="green" stroke-width="0.39" points="167.55,-265.15 172.85,-255.97 162.99,-259.84 167.55,-265.15"/>
</g>
<!-- 371&#45;&gt;202 -->
<g id="edge53" class="edge">
<title>371&#45;&gt;202</title>
<path fill="none" stroke="red" stroke-width="0.12" d="M664.83,-298.51C662.31,-290.21 659.31,-280.35 656.54,-271.23"/>
<polygon fill="red" stroke="red" stroke-width="0.12" points="659.96,-270.45 653.71,-261.9 653.26,-272.48 659.96,-270.45"/>
</g>
<!-- 341&#45;&gt;3 -->
<g id="edge48" class="edge">
<title>341&#45;&gt;3</title>
<path fill="none" stroke="red" stroke-width="0.28" d="M490.72,-147.61C479.08,-135.19 462.49,-117.5 450.22,-104.41"/>
<polygon fill="red" stroke="red" stroke-width="0.28" points="452.89,-102.15 443.5,-97.25 447.79,-106.94 452.89,-102.15"/>
</g>
<!-- 599&#45;&gt;204 -->
<g id="edge58" class="edge">
<title>599&#45;&gt;204</title>
<path fill="none" stroke="red" stroke-width="0.17" d="M743.81,-143.46C746.46,-135.1 749.63,-125.1 752.56,-115.85"/>
<polygon fill="red" stroke="red" stroke-width="0.17" points="755.85,-117.06 755.53,-106.47 749.18,-114.94 755.85,-117.06"/>
</g>
<!-- 346&#45;&gt;201 -->
<g id="edge51" class="edge">
<title>346&#45;&gt;201</title>
<path fill="none" stroke="green" stroke-width="0.24" d="M412.07,-301.2C418.69,-291.37 427.18,-278.76 434.61,-267.73"/>
<polygon fill="green" stroke="green" stroke-width="0.24" points="437.4,-269.85 440.09,-259.61 431.6,-265.94 437.4,-269.85"/>
</g>
</g>
</svg>
