<?xml version="1.0" encoding="UTF-8" standalone="no"?>
<!DOCTYPE svg PUBLIC "-//W3C//DTD SVG 1.1//EN"
 "http://www.w3.org/Graphics/SVG/1.1/DTD/svg11.dtd">
<!-- Generated by graphviz version 12.1.1 (20240910.0053)
 -->
<!-- Pages: 1 -->
<svg width="869pt" height="260pt"
 viewBox="0.00 0.00 868.75 259.66" xmlns="http://www.w3.org/2000/svg" xmlns:xlink="http://www.w3.org/1999/xlink">
<g id="graph0" class="graph" transform="scale(1 1) rotate(0) translate(4 255.66)">
<polygon fill="white" stroke="none" points="-4,4 -4,-255.66 864.75,-255.66 864.75,4 -4,4"/>
<!-- &#45;1 -->
<g id="node1" class="node">
<title>&#45;1</title>
<polygon fill="lightgray" stroke="black" points="23.5,-251.66 0,-251.66 0,-233.16 23.5,-233.16 23.5,-251.66"/>
<text text-anchor="middle" x="11.75" y="-239.11" font-family="Times,serif" font-size="9.00">&#45;1</text>
</g>
<!-- &#45;2 -->
<g id="node2" class="node">
<title>&#45;2</title>
<polygon fill="lightgray" stroke="black" points="157.5,-251.66 134,-251.66 134,-233.16 157.5,-233.16 157.5,-251.66"/>
<text text-anchor="middle" x="145.75" y="-239.11" font-family="Times,serif" font-size="9.00">&#45;2</text>
</g>
<!-- 166 -->
<g id="node27" class="node">
<title>166</title>
<ellipse fill="white" stroke="black" cx="268.75" cy="-176.3" rx="20.86" ry="20.86"/>
<text text-anchor="middle" x="268.75" y="-173" font-family="Times,serif" font-size="9.00">166</text>
</g>
<!-- &#45;2&#45;&gt;166 -->
<g id="edge11" class="edge">
<title>&#45;2&#45;&gt;166</title>
<path fill="none" stroke="green" stroke-width="0.23" d="M157.8,-235.58C174.85,-227.3 206.91,-211.51 233.75,-197.16 236.5,-195.69 239.35,-194.13 242.18,-192.56"/>
<polygon fill="green" stroke="green" stroke-width="0.23" points="243.74,-195.7 250.74,-187.75 240.31,-189.6 243.74,-195.7"/>
</g>
<!-- &#45;3 -->
<g id="node3" class="node">
<title>&#45;3</title>
<polygon fill="lightgray" stroke="black" points="722.5,-251.66 699,-251.66 699,-233.16 722.5,-233.16 722.5,-251.66"/>
<text text-anchor="middle" x="710.75" y="-239.11" font-family="Times,serif" font-size="9.00">&#45;3</text>
</g>
<!-- &#45;4 -->
<g id="node4" class="node">
<title>&#45;4</title>
<polygon fill="lightgray" stroke="black" points="551.5,-251.66 528,-251.66 528,-233.16 551.5,-233.16 551.5,-251.66"/>
<text text-anchor="middle" x="539.75" y="-239.11" font-family="Times,serif" font-size="9.00">&#45;4</text>
</g>
<!-- 167 -->
<g id="node28" class="node">
<title>167</title>
<ellipse fill="white" stroke="black" cx="366.75" cy="-176.3" rx="20.86" ry="20.86"/>
<text text-anchor="middle" x="366.75" y="-173" font-family="Times,serif" font-size="9.00">167</text>
</g>
<!-- &#45;4&#45;&gt;167 -->
<g id="edge9" class="edge">
<title>&#45;4&#45;&gt;167</title>
<path fill="none" stroke="red" stroke-width="0.12" stroke-dasharray="1,5" d="M527.77,-236.65C524.83,-235.49 521.68,-234.27 518.75,-233.16 476.07,-216.93 426.36,-198.81 395.72,-187.73"/>
<polygon fill="red" stroke="red" stroke-width="0.12" points="397.24,-184.56 386.65,-184.45 394.86,-191.14 397.24,-184.56"/>
</g>
<!-- 168 -->
<g id="node29" class="node">
<title>168</title>
<ellipse fill="white" stroke="black" cx="513.75" cy="-98.58" rx="20.86" ry="20.86"/>
<text text-anchor="middle" x="513.75" y="-95.28" font-family="Times,serif" font-size="9.00">168</text>
</g>
<!-- &#45;4&#45;&gt;168 -->
<g id="edge42" class="edge">
<title>&#45;4&#45;&gt;168</title>
<path fill="none" stroke="green" stroke-width="0.2" d="M538.2,-232.96C534.55,-213.05 525.26,-162.39 519.24,-129.55"/>
<polygon fill="green" stroke="green" stroke-width="0.2" points="522.72,-129.07 517.47,-119.87 515.83,-130.34 522.72,-129.07"/>
</g>
<!-- &#45;5 -->
<g id="node5" class="node">
<title>&#45;5</title>
<polygon fill="lightgray" stroke="black" points="329.5,-251.66 306,-251.66 306,-233.16 329.5,-233.16 329.5,-251.66"/>
<text text-anchor="middle" x="317.75" y="-239.11" font-family="Times,serif" font-size="9.00">&#45;5</text>
</g>
<!-- &#45;5&#45;&gt;166 -->
<g id="edge10" class="edge">
<title>&#45;5&#45;&gt;166</title>
<path fill="none" stroke="green" stroke-width="0.52" d="M311.14,-232.76C305.08,-224.83 295.81,-212.7 287.48,-201.81"/>
<polygon fill="green" stroke="green" stroke-width="0.52" points="290.42,-199.88 281.56,-194.06 284.85,-204.13 290.42,-199.88"/>
</g>
<!-- &#45;5&#45;&gt;167 -->
<g id="edge14" class="edge">
<title>&#45;5&#45;&gt;167</title>
<path fill="none" stroke="red" stroke-width="0.33" d="M324.36,-232.76C330.48,-224.75 339.87,-212.46 348.27,-201.48"/>
<polygon fill="red" stroke="red" stroke-width="0.33" points="350.83,-203.9 354.12,-193.83 345.26,-199.65 350.83,-203.9"/>
</g>
<!-- &#45;5&#45;&gt;168 -->
<g id="edge23" class="edge">
<title>&#45;5&#45;&gt;168</title>
<path fill="none" stroke="green" stroke-width="0.48" d="M317.04,-232.84C316.13,-215.8 316.62,-177.42 336.75,-155.44 374.36,-114.36 441.87,-103.29 481.76,-100.43"/>
<polygon fill="green" stroke="green" stroke-width="0.48" points="481.96,-103.92 491.74,-99.85 481.56,-96.93 481.96,-103.92"/>
</g>
<!-- &#45;6 -->
<g id="node6" class="node">
<title>&#45;6</title>
<polygon fill="lightgray" stroke="black" points="287.5,-251.66 264,-251.66 264,-233.16 287.5,-233.16 287.5,-251.66"/>
<text text-anchor="middle" x="275.75" y="-239.11" font-family="Times,serif" font-size="9.00">&#45;6</text>
</g>
<!-- &#45;6&#45;&gt;166 -->
<g id="edge27" class="edge">
<title>&#45;6&#45;&gt;166</title>
<path fill="none" stroke="green" stroke-width="0.23" stroke-dasharray="1,5" d="M274.81,-232.76C274.09,-226.21 273.06,-216.78 272.05,-207.55"/>
<polygon fill="green" stroke="green" stroke-width="0.23" points="275.55,-207.29 270.98,-197.73 268.59,-208.05 275.55,-207.29"/>
</g>
<!-- &#45;6&#45;&gt;167 -->
<g id="edge3" class="edge">
<title>&#45;6&#45;&gt;167</title>
<path fill="none" stroke="green" stroke-width="0.48" d="M287.65,-233.03C301.19,-223.49 323.69,-207.63 341.24,-195.27"/>
<polygon fill="green" stroke="green" stroke-width="0.48" points="343.14,-198.21 349.3,-189.59 339.11,-192.49 343.14,-198.21"/>
</g>
<!-- &#45;7 -->
<g id="node7" class="node">
<title>&#45;7</title>
<polygon fill="lightgray" stroke="black" points="199.5,-251.66 176,-251.66 176,-233.16 199.5,-233.16 199.5,-251.66"/>
<text text-anchor="middle" x="187.75" y="-239.11" font-family="Times,serif" font-size="9.00">&#45;7</text>
</g>
<!-- &#45;7&#45;&gt;166 -->
<g id="edge22" class="edge">
<title>&#45;7&#45;&gt;166</title>
<path fill="none" stroke="red" stroke-width="0.19" d="M198.67,-232.76C210.41,-223.48 229.42,-208.43 244.68,-196.35"/>
<polygon fill="red" stroke="red" stroke-width="0.19" points="246.81,-199.13 252.48,-190.18 242.46,-193.64 246.81,-199.13"/>
</g>
<!-- &#45;8 -->
<g id="node8" class="node">
<title>&#45;8</title>
<polygon fill="lightgray" stroke="black" points="509.5,-251.66 486,-251.66 486,-233.16 509.5,-233.16 509.5,-251.66"/>
<text text-anchor="middle" x="497.75" y="-239.11" font-family="Times,serif" font-size="9.00">&#45;8</text>
</g>
<!-- 282 -->
<g id="node31" class="node">
<title>282</title>
<ellipse fill="white" stroke="black" cx="464.75" cy="-176.3" rx="20.86" ry="20.86"/>
<text text-anchor="middle" x="464.75" y="-173" font-family="Times,serif" font-size="9.00">282</text>
</g>
<!-- &#45;8&#45;&gt;282 -->
<g id="edge39" class="edge">
<title>&#45;8&#45;&gt;282</title>
<path fill="none" stroke="red" stroke-width="0.4" d="M493.3,-232.76C489.57,-225.51 484.02,-214.74 478.81,-204.62"/>
<polygon fill="red" stroke="red" stroke-width="0.4" points="481.96,-203.08 474.27,-195.79 475.73,-206.28 481.96,-203.08"/>
</g>
<!-- &#45;9 -->
<g id="node9" class="node">
<title>&#45;9</title>
<polygon fill="lightgray" stroke="black" points="680.5,-251.66 657,-251.66 657,-233.16 680.5,-233.16 680.5,-251.66"/>
<text text-anchor="middle" x="668.75" y="-239.11" font-family="Times,serif" font-size="9.00">&#45;9</text>
</g>
<!-- &#45;9&#45;&gt;167 -->
<g id="edge17" class="edge">
<title>&#45;9&#45;&gt;167</title>
<path fill="none" stroke="green" stroke-width="0.28" d="M656.98,-239.6C622.55,-234.22 519.18,-217.42 434.75,-197.16 422.08,-194.12 408.25,-190.19 396.39,-186.63"/>
<polygon fill="green" stroke="green" stroke-width="0.28" points="397.54,-183.33 386.95,-183.76 395.49,-190.02 397.54,-183.33"/>
</g>
<!-- &#45;9&#45;&gt;168 -->
<g id="edge18" class="edge">
<title>&#45;9&#45;&gt;168</title>
<path fill="none" stroke="green" stroke-width="0.28" d="M672.03,-232.85C677.82,-216.18 687.72,-178.91 670.75,-155.44 640.86,-114.09 609.58,-137.2 561.75,-119.44 555.43,-117.09 548.7,-114.42 542.34,-111.81"/>
<polygon fill="green" stroke="green" stroke-width="0.28" points="543.75,-108.6 533.17,-107.99 541.06,-115.07 543.75,-108.6"/>
</g>
<!-- &#45;10 -->
<g id="node10" class="node">
<title>&#45;10</title>
<polygon fill="lightgray" stroke="black" points="768.75,-251.66 740.75,-251.66 740.75,-233.16 768.75,-233.16 768.75,-251.66"/>
<text text-anchor="middle" x="754.75" y="-239.11" font-family="Times,serif" font-size="9.00">&#45;10</text>
</g>
<!-- &#45;11 -->
<g id="node11" class="node">
<title>&#45;11</title>
<polygon fill="lightgray" stroke="black" points="597.75,-251.66 569.75,-251.66 569.75,-233.16 597.75,-233.16 597.75,-251.66"/>
<text text-anchor="middle" x="583.75" y="-239.11" font-family="Times,serif" font-size="9.00">&#45;11</text>
</g>
<!-- 452 -->
<g id="node26" class="node">
<title>452</title>
<ellipse fill="white" stroke="black" cx="562.75" cy="-176.3" rx="20.86" ry="20.86"/>
<text text-anchor="middle" x="562.75" y="-173" font-family="Times,serif" font-size="9.00">452</text>
</g>
<!-- &#45;11&#45;&gt;452 -->
<g id="edge35" class="edge">
<title>&#45;11&#45;&gt;452</title>
<path fill="none" stroke="green" stroke-width="0.41" d="M580.92,-232.76C578.7,-225.98 575.47,-216.14 572.35,-206.62"/>
<polygon fill="green" stroke="green" stroke-width="0.41" points="575.69,-205.57 569.26,-197.16 569.04,-207.75 575.69,-205.57"/>
</g>
<!-- &#45;11&#45;&gt;166 -->
<g id="edge25" class="edge">
<title>&#45;11&#45;&gt;166</title>
<path fill="none" stroke="green" stroke-width="0.26" d="M569.28,-235.76C566.48,-234.8 563.54,-233.88 560.75,-233.16 463.1,-208.03 435.11,-219.33 336.75,-197.16 324.04,-194.29 310.2,-190.4 298.34,-186.81"/>
<polygon fill="green" stroke="green" stroke-width="0.26" points="299.49,-183.5 288.9,-183.9 297.42,-190.19 299.49,-183.5"/>
</g>
<!-- &#45;11&#45;&gt;167 -->
<g id="edge5" class="edge">
<title>&#45;11&#45;&gt;167</title>
<path fill="none" stroke="green" stroke-width="0.37" d="M569.69,-236.2C566.75,-235.16 563.66,-234.09 560.75,-233.16 505.31,-215.32 490.7,-213.32 434.75,-197.16 422.23,-193.54 408.42,-189.52 396.54,-186.04"/>
<polygon fill="green" stroke="green" stroke-width="0.37" points="397.8,-182.76 387.22,-183.31 395.83,-189.48 397.8,-182.76"/>
</g>
<!-- &#45;11&#45;&gt;168 -->
<g id="edge20" class="edge">
<title>&#45;11&#45;&gt;168</title>
<path fill="none" stroke="green" stroke-width="0.66" stroke-dasharray="1,5" d="M598.24,-236.86C614.84,-230.79 641.21,-218.26 652.75,-197.16 661.64,-180.89 663.17,-170.77 652.75,-155.44 628.3,-119.47 602.07,-135.75 561.75,-119.44 555.64,-116.97 549.12,-114.29 542.9,-111.73"/>
<polygon fill="green" stroke="green" stroke-width="0.66" points="544.37,-108.55 533.8,-107.95 541.69,-115.01 544.37,-108.55"/>
</g>
<!-- 455 -->
<g id="node30" class="node">
<title>455</title>
<ellipse fill="white" stroke="black" cx="622.75" cy="-176.3" rx="20.86" ry="20.86"/>
<text text-anchor="middle" x="622.75" y="-173" font-family="Times,serif" font-size="9.00">455</text>
</g>
<!-- &#45;11&#45;&gt;455 -->
<g id="edge37" class="edge">
<title>&#45;11&#45;&gt;455</title>
<path fill="none" stroke="green" stroke-width="0.24" d="M589.01,-232.76C593.58,-225.25 600.44,-213.98 606.78,-203.55"/>
<polygon fill="green" stroke="green" stroke-width="0.24" points="609.75,-205.39 611.96,-195.03 603.77,-201.76 609.75,-205.39"/>
</g>
<!-- &#45;12 -->
<g id="node12" class="node">
<title>&#45;12</title>
<polygon fill="lightgray" stroke="black" points="69.75,-251.66 41.75,-251.66 41.75,-233.16 69.75,-233.16 69.75,-251.66"/>
<text text-anchor="middle" x="55.75" y="-239.11" font-family="Times,serif" font-size="9.00">&#45;12</text>
</g>
<!-- 1 -->
<g id="node22" class="node">
<title>1</title>
<ellipse fill="lightblue" stroke="black" cx="83.75" cy="-98.58" rx="14.5" ry="14.5"/>
<text text-anchor="middle" x="83.75" y="-95.28" font-family="Times,serif" font-size="9.00">1</text>
</g>
<!-- &#45;12&#45;&gt;1 -->
<g id="edge32" class="edge">
<title>&#45;12&#45;&gt;1</title>
<path fill="none" stroke="green" stroke-width="0.44" d="M57.42,-232.96C61.61,-211.73 72.7,-155.53 79.07,-123.26"/>
<polygon fill="green" stroke="green" stroke-width="0.44" points="82.48,-124.09 80.98,-113.6 75.61,-122.73 82.48,-124.09"/>
</g>
<!-- 2 -->
<g id="node23" class="node">
<title>2</title>
<ellipse fill="lightblue" stroke="black" cx="360.75" cy="-20.86" rx="14.5" ry="14.5"/>
<text text-anchor="middle" x="360.75" y="-17.56" font-family="Times,serif" font-size="9.00">2</text>
</g>
<!-- &#45;12&#45;&gt;2 -->
<g id="edge34" class="edge">
<title>&#45;12&#45;&gt;2</title>
<path fill="none" stroke="green" stroke-width="0.48" d="M67.71,-232.8C114.12,-199.39 282.68,-78.05 340.85,-36.18"/>
<polygon fill="green" stroke="green" stroke-width="0.48" points="342.54,-39.28 348.61,-30.6 338.45,-33.6 342.54,-39.28"/>
</g>
<!-- &#45;12&#45;&gt;166 -->
<g id="edge26" class="edge">
<title>&#45;12&#45;&gt;166</title>
<path fill="none" stroke="red" stroke-width="0.16" d="M69.77,-236.09C72.72,-235.05 75.82,-234.02 78.75,-233.16 146.59,-213.19 167.87,-222.87 233.75,-197.16 236.65,-196.03 239.6,-194.69 242.5,-193.25"/>
<polygon fill="red" stroke="red" stroke-width="0.16" points="244.07,-196.37 251.22,-188.55 240.75,-190.21 244.07,-196.37"/>
</g>
<!-- &#45;13 -->
<g id="node13" class="node">
<title>&#45;13</title>
<polygon fill="lightgray" stroke="black" points="375.75,-251.66 347.75,-251.66 347.75,-233.16 375.75,-233.16 375.75,-251.66"/>
<text text-anchor="middle" x="361.75" y="-239.11" font-family="Times,serif" font-size="9.00">&#45;13</text>
</g>
<!-- &#45;13&#45;&gt;166 -->
<g id="edge13" class="edge">
<title>&#45;13&#45;&gt;166</title>
<path fill="none" stroke="red" stroke-width="0.21" d="M349.21,-232.76C335.15,-223.07 311.98,-207.1 294.11,-194.78"/>
<polygon fill="red" stroke="red" stroke-width="0.21" points="296.31,-192.04 286.09,-189.25 292.33,-197.81 296.31,-192.04"/>
</g>
<!-- &#45;13&#45;&gt;167 -->
<g id="edge21" class="edge">
<title>&#45;13&#45;&gt;167</title>
<path fill="none" stroke="green" stroke-width="0.42" d="M362.42,-232.76C362.93,-226.28 363.66,-216.98 364.37,-207.85"/>
<polygon fill="green" stroke="green" stroke-width="0.42" points="367.85,-208.25 365.13,-198.01 360.87,-207.71 367.85,-208.25"/>
</g>
<!-- &#45;14 -->
<g id="node14" class="node">
<title>&#45;14</title>
<polygon fill="lightgray" stroke="black" points="814.75,-251.66 786.75,-251.66 786.75,-233.16 814.75,-233.16 814.75,-251.66"/>
<text text-anchor="middle" x="800.75" y="-239.11" font-family="Times,serif" font-size="9.00">&#45;14</text>
</g>
<!-- &#45;15 -->
<g id="node15" class="node">
<title>&#45;15</title>
<polygon fill="lightgray" stroke="black" points="467.75,-251.66 439.75,-251.66 439.75,-233.16 467.75,-233.16 467.75,-251.66"/>
<text text-anchor="middle" x="453.75" y="-239.11" font-family="Times,serif" font-size="9.00">&#45;15</text>
</g>
<!-- &#45;15&#45;&gt;166 -->
<g id="edge8" class="edge">
<title>&#45;15&#45;&gt;166</title>
<path fill="none" stroke="red" stroke-width="0.16" d="M439.65,-236.32C436.71,-235.27 433.63,-234.17 430.75,-233.16 384.33,-216.83 330.28,-198.29 297.82,-187.2"/>
<polygon fill="red" stroke="red" stroke-width="0.16" points="299.3,-184.01 288.7,-184.09 297.03,-190.63 299.3,-184.01"/>
</g>
<!-- &#45;15&#45;&gt;167 -->
<g id="edge12" class="edge">
<title>&#45;15&#45;&gt;167</title>
<path fill="none" stroke="green" stroke-width="0.23" d="M442.02,-232.76C429.14,-223.27 408.1,-207.77 391.53,-195.56"/>
<polygon fill="green" stroke="green" stroke-width="0.23" points="393.75,-192.85 383.62,-189.73 389.6,-198.48 393.75,-192.85"/>
</g>
<!-- &#45;15&#45;&gt;168 -->
<g id="edge2" class="edge">
<title>&#45;15&#45;&gt;168</title>
<path fill="none" stroke="red" stroke-width="0.4" stroke-dasharray="1,5" d="M448.25,-232.86C438.69,-216.83 421.26,-181.5 434.75,-155.44 445.24,-135.17 466.84,-120.69 484.81,-111.55"/>
<polygon fill="red" stroke="red" stroke-width="0.4" points="486.26,-114.74 493.78,-107.28 483.25,-108.42 486.26,-114.74"/>
</g>
<!-- &#45;15&#45;&gt;282 -->
<g id="edge29" class="edge">
<title>&#45;15&#45;&gt;282</title>
<path fill="none" stroke="green" stroke-width="0.21" d="M455.23,-232.76C456.38,-226.09 458.04,-216.43 459.65,-207.04"/>
<polygon fill="green" stroke="green" stroke-width="0.21" points="463.05,-207.87 461.3,-197.43 456.16,-206.69 463.05,-207.87"/>
</g>
<!-- &#45;16 -->
<g id="node16" class="node">
<title>&#45;16</title>
<polygon fill="lightgray" stroke="black" points="245.75,-251.66 217.75,-251.66 217.75,-233.16 245.75,-233.16 245.75,-251.66"/>
<text text-anchor="middle" x="231.75" y="-239.11" font-family="Times,serif" font-size="9.00">&#45;16</text>
</g>
<!-- &#45;16&#45;&gt;166 -->
<g id="edge24" class="edge">
<title>&#45;16&#45;&gt;166</title>
<path fill="none" stroke="green" stroke-width="0.11" stroke-dasharray="1,5" d="M236.74,-232.76C241.04,-225.31 247.49,-214.14 253.47,-203.77"/>
<polygon fill="green" stroke="green" stroke-width="0.11" points="256.49,-205.54 258.46,-195.13 250.43,-202.04 256.49,-205.54"/>
</g>
<!-- &#45;17 -->
<g id="node17" class="node">
<title>&#45;17</title>
<polygon fill="lightgray" stroke="black" points="598.75,-107.83 570.75,-107.83 570.75,-89.33 598.75,-89.33 598.75,-107.83"/>
<text text-anchor="middle" x="584.75" y="-95.28" font-family="Times,serif" font-size="9.00">&#45;17</text>
</g>
<!-- 0 -->
<g id="node21" class="node">
<title>0</title>
<ellipse fill="lightblue" stroke="black" cx="548.75" cy="-20.86" rx="14.5" ry="14.5"/>
<text text-anchor="middle" x="548.75" y="-17.56" font-family="Times,serif" font-size="9.00">0</text>
</g>
<!-- &#45;17&#45;&gt;0 -->
<g id="edge31" class="edge">
<title>&#45;17&#45;&gt;0</title>
<path fill="none" stroke="red" stroke-width="0.2" stroke-dasharray="1,5" d="M580.62,-88.89C575.41,-77.93 566.26,-58.69 559.1,-43.63"/>
<polygon fill="red" stroke="red" stroke-width="0.2" points="562.32,-42.26 554.87,-34.73 556,-45.26 562.32,-42.26"/>
</g>
<!-- &#45;18 -->
<g id="node18" class="node">
<title>&#45;18</title>
<polygon fill="lightgray" stroke="black" points="421.75,-251.66 393.75,-251.66 393.75,-233.16 421.75,-233.16 421.75,-251.66"/>
<text text-anchor="middle" x="407.75" y="-239.11" font-family="Times,serif" font-size="9.00">&#45;18</text>
</g>
<!-- &#45;18&#45;&gt;167 -->
<g id="edge16" class="edge">
<title>&#45;18&#45;&gt;167</title>
<path fill="none" stroke="green" stroke-width="0.19" stroke-dasharray="1,5" d="M402.22,-232.76C397.34,-225.13 389.96,-213.59 383.2,-203.02"/>
<polygon fill="green" stroke="green" stroke-width="0.19" points="386.22,-201.24 377.88,-194.7 380.32,-205.01 386.22,-201.24"/>
</g>
<!-- &#45;19 -->
<g id="node19" class="node">
<title>&#45;19</title>
<polygon fill="lightgray" stroke="black" points="115.75,-251.66 87.75,-251.66 87.75,-233.16 115.75,-233.16 115.75,-251.66"/>
<text text-anchor="middle" x="101.75" y="-239.11" font-family="Times,serif" font-size="9.00">&#45;19</text>
</g>
<!-- &#45;19&#45;&gt;166 -->
<g id="edge19" class="edge">
<title>&#45;19&#45;&gt;166</title>
<path fill="none" stroke="green" stroke-width="0.2" d="M115.84,-236.29C118.78,-235.24 121.86,-234.15 124.75,-233.16 172.99,-216.54 187.12,-217.85 233.75,-197.16 236.6,-195.9 239.51,-194.47 242.39,-192.98"/>
<polygon fill="green" stroke="green" stroke-width="0.2" points="243.95,-196.11 251.04,-188.24 240.58,-189.97 243.95,-196.11"/>
</g>
<!-- &#45;20 -->
<g id="node20" class="node">
<title>&#45;20</title>
<polygon fill="lightgray" stroke="black" points="860.75,-251.66 832.75,-251.66 832.75,-233.16 860.75,-233.16 860.75,-251.66"/>
<text text-anchor="middle" x="846.75" y="-239.11" font-family="Times,serif" font-size="9.00">&#45;20</text>
</g>
<!-- 412 -->
<g id="node32" class="node">
<title>412</title>
<ellipse fill="white" stroke="black" cx="107.75" cy="-20.86" rx="20.86" ry="20.86"/>
<text text-anchor="middle" x="107.75" y="-17.56" font-family="Times,serif" font-size="9.00">412</text>
</g>
<!-- 1&#45;&gt;412 -->
<g id="edge40" class="edge">
<title>1&#45;&gt;412</title>
<path fill="none" stroke="red" stroke-width="0.26" stroke-dasharray="1,5" d="M82.79,-83.69C84.58,-73.82 88.51,-60.25 92.89,-48.34"/>
<polygon fill="red" stroke="red" stroke-width="0.26" points="96.07,-49.79 96.48,-39.21 89.56,-47.23 96.07,-49.79"/>
</g>
<!-- 3 -->
<g id="node24" class="node">
<title>3</title>
<ellipse fill="lightblue" stroke="black" cx="177.75" cy="-98.58" rx="14.5" ry="14.5"/>
<text text-anchor="middle" x="177.75" y="-95.28" font-family="Times,serif" font-size="9.00">3</text>
</g>
<!-- 3&#45;&gt;412 -->
<g id="edge43" class="edge">
<title>3&#45;&gt;412</title>
<path fill="none" stroke="green" stroke-width="0.37" d="M168.31,-87.37C158.17,-76.4 141.74,-58.63 128.55,-44.36"/>
<polygon fill="green" stroke="green" stroke-width="0.37" points="131.35,-42.23 121.99,-37.27 126.21,-46.98 131.35,-42.23"/>
</g>
<!-- 4 -->
<g id="node25" class="node">
<title>4</title>
<ellipse fill="lightblue" stroke="black" cx="130.75" cy="-98.58" rx="14.5" ry="14.5"/>
<text text-anchor="middle" x="130.75" y="-95.28" font-family="Times,serif" font-size="9.00">4</text>
</g>
<!-- 4&#45;&gt;412 -->
<g id="edge41" class="edge">
<title>4&#45;&gt;412</title>
<path fill="none" stroke="red" stroke-width="0.26" d="M126.74,-84.39C123.94,-75.15 120.07,-62.43 116.57,-50.88"/>
<polygon fill="red" stroke="red" stroke-width="0.26" points="119.98,-50.07 113.72,-41.52 113.28,-52.1 119.98,-50.07"/>
</g>
<!-- 452&#45;&gt;168 -->
<g id="edge36" class="edge">
<title>452&#45;&gt;168</title>
<path fill="none" stroke="green" stroke-width="0.54" d="M551.63,-158.12C545.43,-148.53 537.58,-136.4 530.63,-125.66"/>
<polygon fill="green" stroke="green" stroke-width="0.54" points="533.64,-123.87 525.27,-117.38 527.76,-127.67 533.64,-123.87"/>
</g>
<!-- 166&#45;&gt;1 -->
<g id="edge6" class="edge">
<title>166&#45;&gt;1</title>
<path fill="none" stroke="green" stroke-width="0.15" d="M248.19,-170.68C216.59,-163.03 154.8,-145.92 107.75,-119.44 105.76,-118.32 103.77,-117.03 101.84,-115.65"/>
<polygon fill="green" stroke="green" stroke-width="0.15" points="104.09,-112.97 94.08,-109.49 99.74,-118.45 104.09,-112.97"/>
</g>
<!-- 167&#45;&gt;3 -->
<g id="edge4" class="edge">
<title>167&#45;&gt;3</title>
<path fill="none" stroke="red" stroke-width="0.13" d="M347.59,-167.62C312.44,-153.54 237.83,-123.65 200.3,-108.61"/>
<polygon fill="red" stroke="red" stroke-width="0.13" points="201.95,-105.5 191.36,-105.03 199.34,-112 201.95,-105.5"/>
</g>
<!-- 167&#45;&gt;4 -->
<g id="edge7" class="edge">
<title>167&#45;&gt;4</title>
<path fill="none" stroke="green" stroke-width="0.5" d="M346.87,-169.27C333.34,-165.22 315.01,-159.84 298.75,-155.44 235.08,-138.19 213.62,-149.21 154.75,-119.44 152.87,-118.49 151,-117.36 149.19,-116.14"/>
<polygon fill="green" stroke="green" stroke-width="0.5" points="151.41,-113.44 141.38,-110.05 147.11,-118.96 151.41,-113.44"/>
</g>
<!-- 168&#45;&gt;0 -->
<g id="edge15" class="edge">
<title>168&#45;&gt;0</title>
<path fill="none" stroke="green" stroke-width="0.2" d="M522.22,-79.25C527.17,-68.55 533.44,-54.99 538.64,-43.74"/>
<polygon fill="green" stroke="green" stroke-width="0.2" points="541.73,-45.4 542.75,-34.85 535.37,-42.46 541.73,-45.4"/>
</g>
<!-- 168&#45;&gt;2 -->
<g id="edge1" class="edge">
<title>168&#45;&gt;2</title>
<path fill="none" stroke="green" stroke-width="0.58" stroke-dasharray="1,5" d="M495.29,-88.45C467.14,-74.51 413.54,-47.99 383.18,-32.96"/>
<polygon fill="green" stroke="green" stroke-width="0.58" points="384.79,-29.85 374.28,-28.55 381.69,-36.13 384.79,-29.85"/>
</g>
<!-- 168&#45;&gt;168 -->
<g id="edge28" class="edge">
<title>168&#45;&gt;168</title>
<path fill="none" stroke="red" stroke-width="0.53" stroke-dasharray="1,5" d="M530.12,-111.73C541.45,-115.71 552.61,-111.33 552.61,-98.58 552.61,-90.01 547.57,-85.22 540.83,-84.21"/>
<polygon fill="red" stroke="red" stroke-width="0.53" points="540.46,-80.73 530.92,-85.34 541.26,-87.68 540.46,-80.73"/>
</g>
<!-- 455&#45;&gt;168 -->
<g id="edge38" class="edge">
<title>455&#45;&gt;168</title>
<path fill="none" stroke="green" stroke-width="0.45" stroke-dasharray="1,5" d="M605.72,-163.47C587.88,-151.08 559.66,-131.47 539.19,-117.25"/>
<polygon fill="green" stroke="green" stroke-width="0.45" points="541.43,-114.55 531.22,-111.72 537.44,-120.3 541.43,-114.55"/>
</g>
<!-- 282&#45;&gt;168 -->
<g id="edge30" class="edge">
<title>282&#45;&gt;168</title>
<path fill="none" stroke="green" stroke-width="0.24" stroke-dasharray="1,5" d="M475.87,-158.12C482.13,-148.44 490.08,-136.15 497.08,-125.34"/>
<polygon fill="green" stroke="green" stroke-width="0.24" points="499.99,-127.29 502.48,-116.99 494.11,-123.49 499.99,-127.29"/>
</g>
<!-- 412&#45;&gt;1 -->
<g id="edge33" class="edge">
<title>412&#45;&gt;1</title>
<path fill="none" stroke="red" stroke-width="0.28" stroke-dasharray="1,5" d="M107.36,-42.21C104.86,-52.97 100.69,-66.14 96.38,-76.94"/>
<polygon fill="red" stroke="red" stroke-width="0.28" points="93.21,-75.45 92.42,-86.01 99.63,-78.25 93.21,-75.45"/>
</g>
</g>
</svg>
