<?xml version="1.0" encoding="UTF-8" standalone="no"?>
<!DOCTYPE svg PUBLIC "-//W3C//DTD SVG 1.1//EN"
 "http://www.w3.org/Graphics/SVG/1.1/DTD/svg11.dtd">
<!-- Generated by graphviz version 12.1.1 (20240910.0053)
 -->
<!-- Pages: 1 -->
<svg width="956pt" height="325pt"
 viewBox="0.00 0.00 955.75 324.65" xmlns="http://www.w3.org/2000/svg" xmlns:xlink="http://www.w3.org/1999/xlink">
<g id="graph0" class="graph" transform="scale(1 1) rotate(0) translate(4 320.65)">
<polygon fill="white" stroke="none" points="-4,4 -4,-320.65 951.75,-320.65 951.75,4 -4,4"/>
<!-- &#45;1 -->
<g id="node1" class="node">
<title>&#45;1</title>
<polygon fill="lightgray" stroke="black" points="251.75,-250.54 228.25,-250.54 228.25,-232.04 251.75,-232.04 251.75,-250.54"/>
<text text-anchor="middle" x="240" y="-237.99" font-family="Times,serif" font-size="9.00">&#45;1</text>
</g>
<!-- 169 -->
<g id="node26" class="node">
<title>169</title>
<ellipse fill="white" stroke="black" cx="377" cy="-163.57" rx="20.86" ry="20.86"/>
<text text-anchor="middle" x="377" y="-160.27" font-family="Times,serif" font-size="9.00">169</text>
</g>
<!-- &#45;1&#45;&gt;169 -->
<g id="edge15" class="edge">
<title>&#45;1&#45;&gt;169</title>
<path fill="none" stroke="green" stroke-width="0.59" stroke-dasharray="1,5" d="M247.67,-231.93C251.45,-228.12 256.21,-223.73 261,-220.43 288.42,-201.54 323.2,-185.72 347.5,-175.8"/>
<polygon fill="green" stroke="green" stroke-width="0.59" points="348.73,-179.07 356.72,-172.11 346.13,-172.57 348.73,-179.07"/>
</g>
<!-- 170 -->
<g id="node27" class="node">
<title>170</title>
<ellipse fill="white" stroke="black" cx="164" cy="-85.85" rx="20.86" ry="20.86"/>
<text text-anchor="middle" x="164" y="-82.55" font-family="Times,serif" font-size="9.00">170</text>
</g>
<!-- &#45;1&#45;&gt;170 -->
<g id="edge4" class="edge">
<title>&#45;1&#45;&gt;170</title>
<path fill="none" stroke="red" stroke-width="0.13" stroke-dasharray="1,5" d="M239.74,-231.65C238.87,-213.92 235.13,-172.6 219,-142.71 211.41,-128.64 199.2,-115.72 188.21,-105.86"/>
<polygon fill="red" stroke="red" stroke-width="0.13" points="190.52,-103.23 180.66,-99.37 185.96,-108.54 190.52,-103.23"/>
</g>
<!-- 172 -->
<g id="node29" class="node">
<title>172</title>
<ellipse fill="white" stroke="black" cx="547" cy="-163.57" rx="20.86" ry="20.86"/>
<text text-anchor="middle" x="547" y="-160.27" font-family="Times,serif" font-size="9.00">172</text>
</g>
<!-- &#45;1&#45;&gt;172 -->
<g id="edge14" class="edge">
<title>&#45;1&#45;&gt;172</title>
<path fill="none" stroke="green" stroke-width="0.72" d="M246.95,-231.76C250.7,-227.72 255.65,-223.18 261,-220.43 305.24,-197.67 450.33,-176.91 515.18,-168.51"/>
<polygon fill="green" stroke="green" stroke-width="0.72" points="515.4,-172.01 524.88,-167.27 514.52,-165.07 515.4,-172.01"/>
</g>
<!-- 341 -->
<g id="node30" class="node">
<title>341</title>
<ellipse fill="white" stroke="black" cx="189" cy="-163.57" rx="20.86" ry="20.86"/>
<text text-anchor="middle" x="189" y="-160.27" font-family="Times,serif" font-size="9.00">341</text>
</g>
<!-- &#45;1&#45;&gt;341 -->
<g id="edge48" class="edge">
<title>&#45;1&#45;&gt;341</title>
<path fill="none" stroke="green" stroke-width="0.58" d="M234.15,-231.6C227.41,-221.6 216.02,-204.69 206.37,-190.36"/>
<polygon fill="green" stroke="green" stroke-width="0.58" points="209.33,-188.49 200.84,-182.15 203.52,-192.4 209.33,-188.49"/>
</g>
<!-- &#45;2 -->
<g id="node2" class="node">
<title>&#45;2</title>
<polygon fill="lightgray" stroke="black" points="381.75,-250.54 358.25,-250.54 358.25,-232.04 381.75,-232.04 381.75,-250.54"/>
<text text-anchor="middle" x="370" y="-237.99" font-family="Times,serif" font-size="9.00">&#45;2</text>
</g>
<!-- &#45;2&#45;&gt;169 -->
<g id="edge10" class="edge">
<title>&#45;2&#45;&gt;169</title>
<path fill="none" stroke="red" stroke-width="0.32" d="M370.8,-231.6C371.63,-222.65 372.97,-208.18 374.19,-194.97"/>
<polygon fill="red" stroke="red" stroke-width="0.32" points="377.65,-195.54 375.09,-185.26 370.68,-194.89 377.65,-195.54"/>
</g>
<!-- &#45;3 -->
<g id="node3" class="node">
<title>&#45;3</title>
<polygon fill="lightgray" stroke="black" points="461.75,-250.54 438.25,-250.54 438.25,-232.04 461.75,-232.04 461.75,-250.54"/>
<text text-anchor="middle" x="450" y="-237.99" font-family="Times,serif" font-size="9.00">&#45;3</text>
</g>
<!-- &#45;3&#45;&gt;169 -->
<g id="edge39" class="edge">
<title>&#45;3&#45;&gt;169</title>
<path fill="none" stroke="red" stroke-width="0.49" stroke-dasharray="1,5" d="M441.63,-231.6C431.17,-220.75 412.89,-201.79 398.43,-186.8"/>
<polygon fill="red" stroke="red" stroke-width="0.49" points="401.26,-184.69 391.8,-179.92 396.22,-189.54 401.26,-184.69"/>
</g>
<!-- &#45;4 -->
<g id="node4" class="node">
<title>&#45;4</title>
<polygon fill="lightgray" stroke="black" points="293.75,-250.54 270.25,-250.54 270.25,-232.04 293.75,-232.04 293.75,-250.54"/>
<text text-anchor="middle" x="282" y="-237.99" font-family="Times,serif" font-size="9.00">&#45;4</text>
</g>
<!-- &#45;4&#45;&gt;169 -->
<g id="edge34" class="edge">
<title>&#45;4&#45;&gt;169</title>
<path fill="none" stroke="red" stroke-width="0.26" d="M290.79,-231.56C294.48,-228.01 298.86,-223.93 303,-220.43 318.82,-207.05 337.44,-193 352.05,-182.34"/>
<polygon fill="red" stroke="red" stroke-width="0.26" points="353.77,-185.41 359.81,-176.71 349.66,-179.75 353.77,-185.41"/>
</g>
<!-- &#45;5 -->
<g id="node5" class="node">
<title>&#45;5</title>
<polygon fill="lightgray" stroke="black" points="107.75,-250.54 84.25,-250.54 84.25,-232.04 107.75,-232.04 107.75,-250.54"/>
<text text-anchor="middle" x="96" y="-237.99" font-family="Times,serif" font-size="9.00">&#45;5</text>
</g>
<!-- &#45;5&#45;&gt;169 -->
<g id="edge51" class="edge">
<title>&#45;5&#45;&gt;169</title>
<path fill="none" stroke="red" stroke-width="0.53" d="M102.97,-231.8C106.72,-227.77 111.67,-223.23 117,-220.43 156.71,-199.53 286.04,-178.16 345.98,-169.09"/>
<polygon fill="red" stroke="red" stroke-width="0.53" points="346.17,-172.6 355.54,-167.66 345.13,-165.67 346.17,-172.6"/>
</g>
<!-- &#45;5&#45;&gt;170 -->
<g id="edge9" class="edge">
<title>&#45;5&#45;&gt;170</title>
<path fill="none" stroke="green" stroke-width="0.32" stroke-dasharray="1,5" d="M99.85,-231.6C109.66,-209.46 135.93,-150.2 151.64,-114.74"/>
<polygon fill="green" stroke="green" stroke-width="0.32" points="154.72,-116.43 155.57,-105.87 148.32,-113.6 154.72,-116.43"/>
</g>
<!-- &#45;6 -->
<g id="node6" class="node">
<title>&#45;6</title>
<polygon fill="lightgray" stroke="black" points="591.75,-250.54 568.25,-250.54 568.25,-232.04 591.75,-232.04 591.75,-250.54"/>
<text text-anchor="middle" x="580" y="-237.99" font-family="Times,serif" font-size="9.00">&#45;6</text>
</g>
<!-- &#45;6&#45;&gt;169 -->
<g id="edge7" class="edge">
<title>&#45;6&#45;&gt;169</title>
<path fill="none" stroke="green" stroke-width="0.19" d="M572.54,-231.6C568.81,-227.71 564.03,-223.36 559,-220.43 510.19,-191.98 445.42,-176.62 407.77,-169.55"/>
<polygon fill="green" stroke="green" stroke-width="0.19" points="408.65,-166.15 398.18,-167.83 407.4,-173.04 408.65,-166.15"/>
</g>
<!-- 171 -->
<g id="node28" class="node">
<title>171</title>
<ellipse fill="white" stroke="black" cx="743" cy="-163.57" rx="20.86" ry="20.86"/>
<text text-anchor="middle" x="743" y="-160.27" font-family="Times,serif" font-size="9.00">171</text>
</g>
<!-- &#45;6&#45;&gt;171 -->
<g id="edge29" class="edge">
<title>&#45;6&#45;&gt;171</title>
<path fill="none" stroke="red" stroke-width="0.11" stroke-dasharray="1,5" d="M587.56,-231.77C591.32,-227.92 596.09,-223.55 601,-220.43 636.96,-197.58 683.78,-181.39 713.62,-172.52"/>
<polygon fill="red" stroke="red" stroke-width="0.11" points="714.25,-175.98 722.88,-169.84 712.31,-169.25 714.25,-175.98"/>
</g>
<!-- &#45;7 -->
<g id="node7" class="node">
<title>&#45;7</title>
<polygon fill="lightgray" stroke="black" points="149.75,-250.54 126.25,-250.54 126.25,-232.04 149.75,-232.04 149.75,-250.54"/>
<text text-anchor="middle" x="138" y="-237.99" font-family="Times,serif" font-size="9.00">&#45;7</text>
</g>
<!-- &#45;7&#45;&gt;169 -->
<g id="edge28" class="edge">
<title>&#45;7&#45;&gt;169</title>
<path fill="none" stroke="green" stroke-width="0.49" stroke-dasharray="1,5" d="M145.02,-231.89C148.78,-227.88 153.73,-223.34 159,-220.43 219.74,-186.92 301.08,-173.02 345.24,-167.65"/>
<polygon fill="green" stroke="green" stroke-width="0.49" points="345.62,-171.13 355.16,-166.52 344.82,-164.18 345.62,-171.13"/>
</g>
<!-- &#45;7&#45;&gt;170 -->
<g id="edge33" class="edge">
<title>&#45;7&#45;&gt;170</title>
<path fill="none" stroke="green" stroke-width="0.22" stroke-dasharray="1,5" d="M139.47,-231.6C143.16,-209.85 152.92,-152.24 158.96,-116.6"/>
<polygon fill="green" stroke="green" stroke-width="0.22" points="162.35,-117.52 160.57,-107.07 155.45,-116.35 162.35,-117.52"/>
</g>
<!-- &#45;8 -->
<g id="node8" class="node">
<title>&#45;8</title>
<polygon fill="lightgray" stroke="black" points="947.75,-250.54 924.25,-250.54 924.25,-232.04 947.75,-232.04 947.75,-250.54"/>
<text text-anchor="middle" x="936" y="-237.99" font-family="Times,serif" font-size="9.00">&#45;8</text>
</g>
<!-- &#45;8&#45;&gt;171 -->
<g id="edge30" class="edge">
<title>&#45;8&#45;&gt;171</title>
<path fill="none" stroke="red" stroke-width="0.44" stroke-dasharray="1,5" d="M928.52,-231.63C924.79,-227.76 920.01,-223.4 915,-220.43 869.74,-193.56 809.99,-177.93 774.14,-170.34"/>
<polygon fill="red" stroke="red" stroke-width="0.44" points="774.98,-166.93 764.48,-168.37 773.58,-173.79 774.98,-166.93"/>
</g>
<!-- &#45;9 -->
<g id="node9" class="node">
<title>&#45;9</title>
<polygon fill="lightgray" stroke="black" points="503.75,-250.54 480.25,-250.54 480.25,-232.04 503.75,-232.04 503.75,-250.54"/>
<text text-anchor="middle" x="492" y="-237.99" font-family="Times,serif" font-size="9.00">&#45;9</text>
</g>
<!-- &#45;9&#45;&gt;169 -->
<g id="edge24" class="edge">
<title>&#45;9&#45;&gt;169</title>
<path fill="none" stroke="green" stroke-width="0.15" d="M483.8,-231.72C480.06,-228.04 475.48,-223.82 471,-220.43 449.78,-204.4 423.64,-189.19 404.31,-178.7"/>
<polygon fill="green" stroke="green" stroke-width="0.15" points="406.09,-175.68 395.63,-174.05 402.79,-181.86 406.09,-175.68"/>
</g>
<!-- &#45;9&#45;&gt;172 -->
<g id="edge1" class="edge">
<title>&#45;9&#45;&gt;172</title>
<path fill="none" stroke="red" stroke-width="0.24" d="M498.31,-231.6C505.76,-221.34 518.49,-203.83 529.06,-189.27"/>
<polygon fill="red" stroke="red" stroke-width="0.24" points="531.71,-191.57 534.76,-181.42 526.05,-187.46 531.71,-191.57"/>
</g>
<!-- &#45;10 -->
<g id="node10" class="node">
<title>&#45;10</title>
<polygon fill="lightgray" stroke="black" points="814,-250.54 786,-250.54 786,-232.04 814,-232.04 814,-250.54"/>
<text text-anchor="middle" x="800" y="-237.99" font-family="Times,serif" font-size="9.00">&#45;10</text>
</g>
<!-- &#45;10&#45;&gt;171 -->
<g id="edge8" class="edge">
<title>&#45;10&#45;&gt;171</title>
<path fill="none" stroke="green" stroke-width="0.33" d="M793.46,-231.6C785.69,-221.28 772.38,-203.6 761.39,-189"/>
<polygon fill="green" stroke="green" stroke-width="0.33" points="764.35,-187.11 755.54,-181.23 758.76,-191.32 764.35,-187.11"/>
</g>
<!-- &#45;11 -->
<g id="node11" class="node">
<title>&#45;11</title>
<polygon fill="lightgray" stroke="black" points="638,-250.54 610,-250.54 610,-232.04 638,-232.04 638,-250.54"/>
<text text-anchor="middle" x="624" y="-237.99" font-family="Times,serif" font-size="9.00">&#45;11</text>
</g>
<!-- &#45;11&#45;&gt;169 -->
<g id="edge36" class="edge">
<title>&#45;11&#45;&gt;169</title>
<path fill="none" stroke="red" stroke-width="0.53" stroke-dasharray="1,5" d="M616.18,-231.9C612.03,-227.89 606.62,-223.34 601,-220.43 537.36,-187.44 453.32,-173.28 408.44,-167.74"/>
<polygon fill="red" stroke="red" stroke-width="0.53" points="409.05,-164.29 398.71,-166.61 408.24,-171.24 409.05,-164.29"/>
</g>
<!-- &#45;11&#45;&gt;171 -->
<g id="edge41" class="edge">
<title>&#45;11&#45;&gt;171</title>
<path fill="none" stroke="red" stroke-width="0.63" d="M637.65,-231.6C656.84,-219.4 692.16,-196.92 716.59,-181.38"/>
<polygon fill="red" stroke="red" stroke-width="0.63" points="718.31,-184.43 724.87,-176.11 714.56,-178.52 718.31,-184.43"/>
</g>
<!-- &#45;12 -->
<g id="node12" class="node">
<title>&#45;12</title>
<polygon fill="lightgray" stroke="black" points="860,-250.54 832,-250.54 832,-232.04 860,-232.04 860,-250.54"/>
<text text-anchor="middle" x="846" y="-237.99" font-family="Times,serif" font-size="9.00">&#45;12</text>
</g>
<!-- &#45;12&#45;&gt;171 -->
<g id="edge6" class="edge">
<title>&#45;12&#45;&gt;171</title>
<path fill="none" stroke="green" stroke-width="0.39" stroke-dasharray="1,5" d="M836.34,-231.56C832.29,-228.01 827.5,-223.93 823,-220.43 805.45,-206.78 784.87,-192.45 768.98,-181.72"/>
<polygon fill="green" stroke="green" stroke-width="0.39" points="770.97,-178.84 760.71,-176.18 767.07,-184.65 770.97,-178.84"/>
</g>
<!-- &#45;13 -->
<g id="node13" class="node">
<title>&#45;13</title>
<polygon fill="lightgray" stroke="black" points="550,-250.54 522,-250.54 522,-232.04 550,-232.04 550,-250.54"/>
<text text-anchor="middle" x="536" y="-237.99" font-family="Times,serif" font-size="9.00">&#45;13</text>
</g>
<!-- &#45;13&#45;&gt;170 -->
<g id="edge12" class="edge">
<title>&#45;13&#45;&gt;170</title>
<path fill="none" stroke="green" stroke-width="0.27" d="M527.51,-231.68C508.08,-212.5 458.07,-166.09 407,-142.71 335.43,-109.95 242.93,-95.54 195.35,-89.95"/>
<polygon fill="green" stroke="green" stroke-width="0.27" points="195.81,-86.48 185.49,-88.84 195.03,-93.44 195.81,-86.48"/>
</g>
<!-- &#45;13&#45;&gt;172 -->
<g id="edge32" class="edge">
<title>&#45;13&#45;&gt;172</title>
<path fill="none" stroke="green" stroke-width="0.51" d="M537.26,-231.6C538.56,-222.68 540.65,-208.27 542.57,-195.1"/>
<polygon fill="green" stroke="green" stroke-width="0.51" points="546.02,-195.64 544,-185.24 539.1,-194.63 546.02,-195.64"/>
</g>
<!-- &#45;14 -->
<g id="node14" class="node">
<title>&#45;14</title>
<polygon fill="lightgray" stroke="black" points="313,-316.65 285,-316.65 285,-298.15 313,-298.15 313,-316.65"/>
<text text-anchor="middle" x="299" y="-304.1" font-family="Times,serif" font-size="9.00">&#45;14</text>
</g>
<!-- &#45;14&#45;&gt;169 -->
<g id="edge18" class="edge">
<title>&#45;14&#45;&gt;169</title>
<path fill="none" stroke="green" stroke-width="0.4" d="M313.3,-300.51C338.01,-290.2 386.52,-269.28 391,-262.15 404.09,-241.33 398.07,-213.13 390.27,-192.4"/>
<polygon fill="green" stroke="green" stroke-width="0.4" points="393.52,-191.09 386.48,-183.17 387.04,-193.75 393.52,-191.09"/>
</g>
<!-- &#45;14&#45;&gt;170 -->
<g id="edge17" class="edge">
<title>&#45;14&#45;&gt;170</title>
<path fill="none" stroke="red" stroke-width="0.37" stroke-dasharray="1,5" d="M284.75,-305.85C239.72,-303.78 101.87,-294.84 75,-262.15 34.13,-212.42 101.77,-140.83 140.23,-106.57"/>
<polygon fill="red" stroke="red" stroke-width="0.37" points="142.28,-109.43 147.52,-100.22 137.69,-104.15 142.28,-109.43"/>
</g>
<!-- &#45;14&#45;&gt;172 -->
<g id="edge20" class="edge">
<title>&#45;14&#45;&gt;172</title>
<path fill="none" stroke="red" stroke-width="0.2" stroke-dasharray="1,5" d="M313.45,-300.64C316.25,-299.69 319.19,-298.8 322,-298.15 392.79,-281.77 598.53,-316.29 647,-262.15 659.37,-248.34 656.38,-236.42 647,-220.43 632.03,-194.92 600.69,-180.19 577.07,-172.33"/>
<polygon fill="red" stroke="red" stroke-width="0.2" points="578.36,-169.07 567.77,-169.47 576.3,-175.76 578.36,-169.07"/>
</g>
<!-- 287 -->
<g id="node32" class="node">
<title>287</title>
<ellipse fill="white" stroke="black" cx="189" cy="-241.29" rx="20.86" ry="20.86"/>
<text text-anchor="middle" x="189" y="-237.99" font-family="Times,serif" font-size="9.00">287</text>
</g>
<!-- &#45;14&#45;&gt;287 -->
<g id="edge46" class="edge">
<title>&#45;14&#45;&gt;287</title>
<path fill="none" stroke="green" stroke-width="0.16" stroke-dasharray="1,5" d="M284.64,-298.9C268.48,-290.36 241.53,-275.81 219,-262.15 217.53,-261.26 216.03,-260.33 214.53,-259.38"/>
<polygon fill="green" stroke="green" stroke-width="0.16" points="216.49,-256.49 206.19,-254 212.7,-262.37 216.49,-256.49"/>
</g>
<!-- &#45;15 -->
<g id="node15" class="node">
<title>&#45;15</title>
<polygon fill="lightgray" stroke="black" points="340,-250.54 312,-250.54 312,-232.04 340,-232.04 340,-250.54"/>
<text text-anchor="middle" x="326" y="-237.99" font-family="Times,serif" font-size="9.00">&#45;15</text>
</g>
<!-- &#45;15&#45;&gt;169 -->
<g id="edge21" class="edge">
<title>&#45;15&#45;&gt;169</title>
<path fill="none" stroke="green" stroke-width="0.17" stroke-dasharray="1,5" d="M331.85,-231.6C338.72,-221.41 350.41,-204.05 360.18,-189.55"/>
<polygon fill="green" stroke="green" stroke-width="0.17" points="362.83,-191.88 365.51,-181.63 357.02,-187.97 362.83,-191.88"/>
</g>
<!-- &#45;16 -->
<g id="node16" class="node">
<title>&#45;16</title>
<polygon fill="lightgray" stroke="black" points="906,-250.54 878,-250.54 878,-232.04 906,-232.04 906,-250.54"/>
<text text-anchor="middle" x="892" y="-237.99" font-family="Times,serif" font-size="9.00">&#45;16</text>
</g>
<!-- &#45;16&#45;&gt;171 -->
<g id="edge23" class="edge">
<title>&#45;16&#45;&gt;171</title>
<path fill="none" stroke="green" stroke-width="0.11" stroke-dasharray="1,5" d="M883.53,-231.91C879.38,-228.09 874.17,-223.71 869,-220.43 837.81,-200.67 798.45,-184.44 772.1,-174.66"/>
<polygon fill="green" stroke="green" stroke-width="0.11" points="773.43,-171.42 762.83,-171.29 771.04,-178 773.43,-171.42"/>
</g>
<!-- &#45;17 -->
<g id="node17" class="node">
<title>&#45;17</title>
<polygon fill="lightgray" stroke="black" points="359,-316.65 331,-316.65 331,-298.15 359,-298.15 359,-316.65"/>
<text text-anchor="middle" x="345" y="-304.1" font-family="Times,serif" font-size="9.00">&#45;17</text>
</g>
<!-- &#45;18 -->
<g id="node18" class="node">
<title>&#45;18</title>
<polygon fill="lightgray" stroke="black" points="28,-172.82 0,-172.82 0,-154.32 28,-154.32 28,-172.82"/>
<text text-anchor="middle" x="14" y="-160.27" font-family="Times,serif" font-size="9.00">&#45;18</text>
</g>
<!-- &#45;18&#45;&gt;170 -->
<g id="edge31" class="edge">
<title>&#45;18&#45;&gt;170</title>
<path fill="none" stroke="green" stroke-width="0.42" d="M25.12,-153.95C30.14,-150.26 36.22,-146.05 42,-142.71 72.68,-125.01 109.96,-108.63 135.17,-98.25"/>
<polygon fill="green" stroke="green" stroke-width="0.42" points="136.31,-101.56 144.26,-94.55 133.67,-95.08 136.31,-101.56"/>
</g>
<!-- &#45;19 -->
<g id="node19" class="node">
<title>&#45;19</title>
<polygon fill="lightgray" stroke="black" points="722,-250.54 694,-250.54 694,-232.04 722,-232.04 722,-250.54"/>
<text text-anchor="middle" x="708" y="-237.99" font-family="Times,serif" font-size="9.00">&#45;19</text>
</g>
<!-- 1 -->
<g id="node22" class="node">
<title>1</title>
<ellipse fill="lightblue" stroke="black" cx="636" cy="-85.85" rx="14.5" ry="14.5"/>
<text text-anchor="middle" x="636" y="-82.55" font-family="Times,serif" font-size="9.00">1</text>
</g>
<!-- &#45;19&#45;&gt;1 -->
<g id="edge45" class="edge">
<title>&#45;19&#45;&gt;1</title>
<path fill="none" stroke="green" stroke-width="0.36" d="M703.92,-231.6C692.93,-208.17 662.42,-143.16 646.3,-108.8"/>
<polygon fill="green" stroke="green" stroke-width="0.36" points="649.63,-107.65 642.21,-100.09 643.29,-110.62 649.63,-107.65"/>
</g>
<!-- &#45;19&#45;&gt;169 -->
<g id="edge42" class="edge">
<title>&#45;19&#45;&gt;169</title>
<path fill="none" stroke="red" stroke-width="0.63" stroke-dasharray="1,5" d="M693.59,-235.1C681.31,-230.8 663.15,-224.71 647,-220.43 561.62,-197.77 459.03,-178.75 408.41,-169.9"/>
<polygon fill="red" stroke="red" stroke-width="0.63" points="409.23,-166.49 398.78,-168.23 408.04,-173.39 409.23,-166.49"/>
</g>
<!-- &#45;19&#45;&gt;171 -->
<g id="edge35" class="edge">
<title>&#45;19&#45;&gt;171</title>
<path fill="none" stroke="red" stroke-width="0.36" d="M712.01,-231.6C716.45,-222.01 723.82,-206.07 730.26,-192.14"/>
<polygon fill="red" stroke="red" stroke-width="0.36" points="733.27,-193.96 734.29,-183.42 726.92,-191.03 733.27,-193.96"/>
</g>
<!-- &#45;20 -->
<g id="node20" class="node">
<title>&#45;20</title>
<polygon fill="lightgray" stroke="black" points="768,-250.54 740,-250.54 740,-232.04 768,-232.04 768,-250.54"/>
<text text-anchor="middle" x="754" y="-237.99" font-family="Times,serif" font-size="9.00">&#45;20</text>
</g>
<!-- &#45;20&#45;&gt;171 -->
<g id="edge3" class="edge">
<title>&#45;20&#45;&gt;171</title>
<path fill="none" stroke="red" stroke-width="0.43" stroke-dasharray="1,5" d="M752.74,-231.6C751.43,-222.59 749.31,-207.99 747.38,-194.7"/>
<polygon fill="red" stroke="red" stroke-width="0.43" points="750.89,-194.51 745.98,-185.11 743.96,-195.51 750.89,-194.51"/>
</g>
<!-- &#45;20&#45;&gt;172 -->
<g id="edge25" class="edge">
<title>&#45;20&#45;&gt;172</title>
<path fill="none" stroke="green" stroke-width="0.61" d="M745.7,-231.62C741.59,-227.74 736.36,-223.38 731,-220.43 681.1,-192.94 615.96,-177.28 578.08,-169.89"/>
<polygon fill="green" stroke="green" stroke-width="0.61" points="579.08,-166.52 568.6,-168.11 577.78,-173.4 579.08,-166.52"/>
</g>
<!-- 0 -->
<g id="node21" class="node">
<title>0</title>
<ellipse fill="lightblue" stroke="black" cx="683" cy="-85.85" rx="14.5" ry="14.5"/>
<text text-anchor="middle" x="683" y="-82.55" font-family="Times,serif" font-size="9.00">0</text>
</g>
<!-- 0&#45;&gt;0 -->
<g id="edge27" class="edge">
<title>0&#45;&gt;0</title>
<path fill="none" stroke="red" stroke-width="0.13" d="M693.32,-96.29C703.81,-102.43 715.5,-98.95 715.5,-85.85 715.5,-76.64 709.72,-72.18 702.64,-72.49"/>
<polygon fill="red" stroke="red" stroke-width="0.13" points="701.99,-69.02 693.5,-75.35 704.09,-75.7 701.99,-69.02"/>
</g>
<!-- 2 -->
<g id="node23" class="node">
<title>2</title>
<ellipse fill="lightblue" stroke="black" cx="377" cy="-14.5" rx="14.5" ry="14.5"/>
<text text-anchor="middle" x="377" y="-11.2" font-family="Times,serif" font-size="9.00">2</text>
</g>
<!-- 3 -->
<g id="node24" class="node">
<title>3</title>
<ellipse fill="lightblue" stroke="black" cx="589" cy="-85.85" rx="14.5" ry="14.5"/>
<text text-anchor="middle" x="589" y="-82.55" font-family="Times,serif" font-size="9.00">3</text>
</g>
<!-- 4 -->
<g id="node25" class="node">
<title>4</title>
<ellipse fill="lightblue" stroke="black" cx="547" cy="-14.5" rx="14.5" ry="14.5"/>
<text text-anchor="middle" x="547" y="-11.2" font-family="Times,serif" font-size="9.00">4</text>
</g>
<!-- 169&#45;&gt;1 -->
<g id="edge38" class="edge">
<title>169&#45;&gt;1</title>
<path fill="none" stroke="green" stroke-width="0.28" stroke-dasharray="1,5" d="M397.88,-160.81C440.27,-156.57 538.62,-143.28 612,-106.71 614.05,-105.69 616.07,-104.47 618.02,-103.13"/>
<polygon fill="green" stroke="green" stroke-width="0.28" points="619.95,-106.07 625.66,-97.15 615.63,-100.56 619.95,-106.07"/>
</g>
<!-- 169&#45;&gt;2 -->
<g id="edge13" class="edge">
<title>169&#45;&gt;2</title>
<path fill="none" stroke="red" stroke-width="0.21" d="M377,-142.43C377,-115.5 377,-67.85 377,-39.22"/>
<polygon fill="red" stroke="red" stroke-width="0.21" points="380.5,-39.58 377,-29.58 373.5,-39.58 380.5,-39.58"/>
</g>
<!-- 170&#45;&gt;2 -->
<g id="edge37" class="edge">
<title>170&#45;&gt;2</title>
<path fill="none" stroke="red" stroke-width="0.24" d="M183.66,-78.45C222.96,-65.65 311.1,-36.95 353.43,-23.17"/>
<polygon fill="red" stroke="red" stroke-width="0.24" points="354.38,-26.54 362.81,-20.12 352.22,-19.88 354.38,-26.54"/>
</g>
<!-- 171&#45;&gt;0 -->
<g id="edge5" class="edge">
<title>171&#45;&gt;0</title>
<path fill="none" stroke="red" stroke-width="0.14" d="M730.28,-146.51C720.77,-134.52 707.76,-118.1 697.79,-105.52"/>
<polygon fill="red" stroke="red" stroke-width="0.14" points="700.54,-103.35 691.59,-97.69 695.06,-107.7 700.54,-103.35"/>
</g>
<!-- 171&#45;&gt;1 -->
<g id="edge19" class="edge">
<title>171&#45;&gt;1</title>
<path fill="none" stroke="red" stroke-width="0.31" d="M725.49,-151.5C708.45,-140.57 681.98,-123.14 660,-106.71 658.17,-105.34 656.29,-103.89 654.43,-102.41"/>
<polygon fill="red" stroke="red" stroke-width="0.31" points="656.89,-99.9 646.94,-96.28 652.46,-105.32 656.89,-99.9"/>
</g>
<!-- 171&#45;&gt;4 -->
<g id="edge11" class="edge">
<title>171&#45;&gt;4</title>
<path fill="none" stroke="green" stroke-width="0.52" d="M744.81,-142.68C745.65,-120.83 743.43,-86.05 724,-64.99 684.42,-22.09 611.02,-15.23 572.35,-14.81"/>
<polygon fill="green" stroke="green" stroke-width="0.52" points="572.75,-11.3 562.76,-14.84 572.77,-18.3 572.75,-11.3"/>
</g>
<!-- 172&#45;&gt;0 -->
<g id="edge22" class="edge">
<title>172&#45;&gt;0</title>
<path fill="none" stroke="red" stroke-width="0.12" stroke-dasharray="1,5" d="M566.35,-154.54C589.27,-144.67 628.22,-126.74 659,-106.71 660.92,-105.46 662.85,-104.09 664.75,-102.66"/>
<polygon fill="red" stroke="red" stroke-width="0.12" points="666.92,-105.41 672.51,-96.41 662.53,-99.96 666.92,-105.41"/>
</g>
<!-- 172&#45;&gt;1 -->
<g id="edge2" class="edge">
<title>172&#45;&gt;1</title>
<path fill="none" stroke="red" stroke-width="0.84" d="M562.5,-149.38C577.63,-136.51 600.68,-116.9 616.92,-103.08"/>
<polygon fill="red" stroke="red" stroke-width="0.84" points="618.84,-106.05 624.18,-96.9 614.3,-100.72 618.84,-106.05"/>
</g>
<!-- 172&#45;&gt;2 -->
<g id="edge40" class="edge">
<title>172&#45;&gt;2</title>
<path fill="none" stroke="green" stroke-width="0.36" d="M529.74,-151.6C513.3,-140.88 488.15,-123.72 468,-106.71 440.15,-83.21 410.9,-52.68 393.31,-33.59"/>
<polygon fill="green" stroke="green" stroke-width="0.36" points="396,-31.35 386.67,-26.33 390.83,-36.07 396,-31.35"/>
</g>
<!-- 172&#45;&gt;3 -->
<g id="edge16" class="edge">
<title>172&#45;&gt;3</title>
<path fill="none" stroke="green" stroke-width="0.27" d="M556.74,-145.01C562.88,-133.95 570.83,-119.61 577.3,-107.94"/>
<polygon fill="green" stroke="green" stroke-width="0.27" points="580.33,-109.69 582.12,-99.25 574.21,-106.3 580.33,-109.69"/>
</g>
<!-- 172&#45;&gt;4 -->
<g id="edge26" class="edge">
<title>172&#45;&gt;4</title>
<path fill="none" stroke="green" stroke-width="0.1" d="M547,-142.43C547,-115.5 547,-67.85 547,-39.22"/>
<polygon fill="green" stroke="green" stroke-width="0.1" points="550.5,-39.41 547,-29.41 543.5,-39.41 550.5,-39.41"/>
</g>
<!-- 278 -->
<g id="node31" class="node">
<title>278</title>
<ellipse fill="white" stroke="black" cx="498" cy="-85.85" rx="20.86" ry="20.86"/>
<text text-anchor="middle" x="498" y="-82.55" font-family="Times,serif" font-size="9.00">278</text>
</g>
<!-- 172&#45;&gt;278 -->
<g id="edge43" class="edge">
<title>172&#45;&gt;278</title>
<path fill="none" stroke="green" stroke-width="0.35" d="M535.88,-145.39C529.62,-135.71 521.67,-123.42 514.67,-112.61"/>
<polygon fill="green" stroke="green" stroke-width="0.35" points="517.73,-110.9 509.36,-104.4 511.85,-114.7 517.73,-110.9"/>
</g>
<!-- 341&#45;&gt;170 -->
<g id="edge49" class="edge">
<title>341&#45;&gt;170</title>
<path fill="none" stroke="red" stroke-width="0.16" d="M182.69,-143.46C179.93,-135.1 176.63,-125.1 173.57,-115.85"/>
<polygon fill="red" stroke="red" stroke-width="0.16" points="176.93,-114.84 170.47,-106.44 170.28,-117.04 176.93,-114.84"/>
</g>
<!-- 278&#45;&gt;4 -->
<g id="edge44" class="edge">
<title>278&#45;&gt;4</title>
<path fill="none" stroke="red" stroke-width="0.25" stroke-dasharray="1,5" d="M509.61,-68.41C516.69,-58.4 525.77,-45.55 533.21,-35.02"/>
<polygon fill="red" stroke="red" stroke-width="0.25" points="535.86,-37.33 538.77,-27.14 530.14,-33.29 535.86,-37.33"/>
</g>
<!-- 287&#45;&gt;169 -->
<g id="edge47" class="edge">
<title>287&#45;&gt;169</title>
<path fill="none" stroke="green" stroke-width="0.15" d="M205.7,-228.2C209.92,-225.43 214.53,-222.66 219,-220.43 261.65,-199.18 314.39,-182.26 346.86,-172.82"/>
<polygon fill="green" stroke="green" stroke-width="0.15" points="347.78,-176.2 356.43,-170.09 345.86,-169.47 347.78,-176.2"/>
</g>
<!-- 287&#45;&gt;341 -->
<g id="edge50" class="edge">
<title>287&#45;&gt;341</title>
<path fill="none" stroke="green" stroke-width="0.35" stroke-dasharray="1,5" d="M189,-220C189,-212.44 189,-203.69 189,-195.4"/>
<polygon fill="green" stroke="green" stroke-width="0.35" points="192.5,-195.44 189,-185.44 185.5,-195.44 192.5,-195.44"/>
</g>
</g>
</svg>
