<?xml version="1.0" encoding="UTF-8" standalone="no"?>
<!DOCTYPE svg PUBLIC "-//W3C//DTD SVG 1.1//EN"
 "http://www.w3.org/Graphics/SVG/1.1/DTD/svg11.dtd">
<!-- Generated by graphviz version 12.1.1 (20240910.0053)
 -->
<!-- Pages: 1 -->
<svg width="874pt" height="163pt"
 viewBox="0.00 0.00 873.75 162.85" xmlns="http://www.w3.org/2000/svg" xmlns:xlink="http://www.w3.org/1999/xlink">
<g id="graph0" class="graph" transform="scale(1 1) rotate(0) translate(4 158.85)">
<polygon fill="white" stroke="none" points="-4,4 -4,-158.85 869.75,-158.85 869.75,4 -4,4"/>
<!-- &#45;1 -->
<g id="node1" class="node">
<title>&#45;1</title>
<polygon fill="lightgray" stroke="black" points="283.5,-154.85 260,-154.85 260,-136.35 283.5,-136.35 283.5,-154.85"/>
<text text-anchor="middle" x="271.75" y="-142.3" font-family="Times,serif" font-size="9.00">&#45;1</text>
</g>
<!-- 79 -->
<g id="node28" class="node">
<title>79</title>
<ellipse fill="white" stroke="black" cx="380.75" cy="-82.67" rx="17.68" ry="17.68"/>
<text text-anchor="middle" x="380.75" y="-79.37" font-family="Times,serif" font-size="9.00">79</text>
</g>
<!-- &#45;1&#45;&gt;79 -->
<g id="edge34" class="edge">
<title>&#45;1&#45;&gt;79</title>
<path fill="none" stroke="red" stroke-width="0.24" d="M283.83,-137.84C301.29,-128.08 333.95,-109.83 356.5,-97.22"/>
<polygon fill="red" stroke="red" stroke-width="0.24" points="358.14,-100.32 365.16,-92.38 354.72,-94.21 358.14,-100.32"/>
</g>
<!-- &#45;2 -->
<g id="node2" class="node">
<title>&#45;2</title>
<polygon fill="lightgray" stroke="black" points="543.5,-154.85 520,-154.85 520,-136.35 543.5,-136.35 543.5,-154.85"/>
<text text-anchor="middle" x="531.75" y="-142.3" font-family="Times,serif" font-size="9.00">&#45;2</text>
</g>
<!-- 3 -->
<g id="node24" class="node">
<title>3</title>
<ellipse fill="lightblue" stroke="black" cx="577.75" cy="-14.5" rx="14.5" ry="14.5"/>
<text text-anchor="middle" x="577.75" y="-11.2" font-family="Times,serif" font-size="9.00">3</text>
</g>
<!-- &#45;2&#45;&gt;3 -->
<g id="edge45" class="edge">
<title>&#45;2&#45;&gt;3</title>
<path fill="none" stroke="red" stroke-width="0.35" d="M533.03,-136.01C535.41,-121.17 541.17,-89.93 550.75,-64.99 554.53,-55.17 559.89,-44.86 564.85,-36.22"/>
<polygon fill="red" stroke="red" stroke-width="0.35" points="567.79,-38.11 569.89,-27.73 561.77,-34.54 567.79,-38.11"/>
</g>
<!-- 78 -->
<g id="node27" class="node">
<title>78</title>
<ellipse fill="white" stroke="black" cx="229.75" cy="-82.67" rx="17.68" ry="17.68"/>
<text text-anchor="middle" x="229.75" y="-79.37" font-family="Times,serif" font-size="9.00">78</text>
</g>
<!-- &#45;2&#45;&gt;78 -->
<g id="edge40" class="edge">
<title>&#45;2&#45;&gt;78</title>
<path fill="none" stroke="green" stroke-width="0.38" stroke-dasharray="1,5" d="M519.89,-139.49C516.94,-138.34 513.76,-137.21 510.75,-136.35 419.86,-110.23 308.62,-93.81 257.66,-87.12"/>
<polygon fill="green" stroke="green" stroke-width="0.38" points="258.39,-83.68 248.02,-85.88 257.49,-90.63 258.39,-83.68"/>
</g>
<!-- &#45;2&#45;&gt;79 -->
<g id="edge36" class="edge">
<title>&#45;2&#45;&gt;79</title>
<path fill="none" stroke="green" stroke-width="0.12" d="M519.65,-139.71C495.17,-129.84 439.3,-107.29 406.36,-94"/>
<polygon fill="green" stroke="green" stroke-width="0.12" points="407.69,-90.77 397.11,-90.27 405.08,-97.26 407.69,-90.77"/>
</g>
<!-- 80 -->
<g id="node29" class="node">
<title>80</title>
<ellipse fill="white" stroke="black" cx="577.75" cy="-82.67" rx="17.68" ry="17.68"/>
<text text-anchor="middle" x="577.75" y="-79.37" font-family="Times,serif" font-size="9.00">80</text>
</g>
<!-- &#45;2&#45;&gt;80 -->
<g id="edge32" class="edge">
<title>&#45;2&#45;&gt;80</title>
<path fill="none" stroke="red" stroke-width="0.27" d="M538.34,-135.87C544.38,-127.87 553.56,-115.7 561.55,-105.13"/>
<polygon fill="red" stroke="red" stroke-width="0.27" points="564.13,-107.52 567.36,-97.43 558.54,-103.3 564.13,-107.52"/>
</g>
<!-- &#45;3 -->
<g id="node3" class="node">
<title>&#45;3</title>
<polygon fill="lightgray" stroke="black" points="65.5,-154.85 42,-154.85 42,-136.35 65.5,-136.35 65.5,-154.85"/>
<text text-anchor="middle" x="53.75" y="-142.3" font-family="Times,serif" font-size="9.00">&#45;3</text>
</g>
<!-- &#45;3&#45;&gt;78 -->
<g id="edge17" class="edge">
<title>&#45;3&#45;&gt;78</title>
<path fill="none" stroke="red" stroke-width="0.42" d="M65.71,-139.79C68.65,-138.63 71.81,-137.42 74.75,-136.35 119.39,-120 171.87,-102.53 202.89,-92.38"/>
<polygon fill="red" stroke="red" stroke-width="0.42" points="203.89,-95.73 212.31,-89.3 201.72,-89.08 203.89,-95.73"/>
</g>
<!-- &#45;4 -->
<g id="node4" class="node">
<title>&#45;4</title>
<polygon fill="lightgray" stroke="black" points="371.5,-154.85 348,-154.85 348,-136.35 371.5,-136.35 371.5,-154.85"/>
<text text-anchor="middle" x="359.75" y="-142.3" font-family="Times,serif" font-size="9.00">&#45;4</text>
</g>
<!-- &#45;4&#45;&gt;79 -->
<g id="edge1" class="edge">
<title>&#45;4&#45;&gt;79</title>
<path fill="none" stroke="green" stroke-width="0.31" stroke-dasharray="1,5" d="M362.76,-135.87C365.12,-129 368.55,-119.07 371.78,-109.71"/>
<polygon fill="green" stroke="green" stroke-width="0.31" points="375.04,-110.98 374.99,-100.39 368.42,-108.7 375.04,-110.98"/>
</g>
<!-- &#45;5 -->
<g id="node5" class="node">
<title>&#45;5</title>
<polygon fill="lightgray" stroke="black" points="501.5,-154.85 478,-154.85 478,-136.35 501.5,-136.35 501.5,-154.85"/>
<text text-anchor="middle" x="489.75" y="-142.3" font-family="Times,serif" font-size="9.00">&#45;5</text>
</g>
<!-- &#45;5&#45;&gt;78 -->
<g id="edge16" class="edge">
<title>&#45;5&#45;&gt;78</title>
<path fill="none" stroke="red" stroke-width="0.14" stroke-dasharray="1,5" d="M477.87,-139.55C474.92,-138.41 471.75,-137.26 468.75,-136.35 393.49,-113.43 302.07,-96.1 257.24,-88.27"/>
<polygon fill="red" stroke="red" stroke-width="0.14" points="258.05,-84.86 247.6,-86.61 256.86,-91.76 258.05,-84.86"/>
</g>
<!-- &#45;5&#45;&gt;79 -->
<g id="edge30" class="edge">
<title>&#45;5&#45;&gt;79</title>
<path fill="none" stroke="green" stroke-width="0.56" d="M477.67,-137.84C460.29,-128.13 427.84,-109.99 405.3,-97.39"/>
<polygon fill="green" stroke="green" stroke-width="0.56" points="407.2,-94.44 396.76,-92.62 403.78,-100.55 407.2,-94.44"/>
</g>
<!-- &#45;5&#45;&gt;80 -->
<g id="edge26" class="edge">
<title>&#45;5&#45;&gt;80</title>
<path fill="none" stroke="red" stroke-width="0.17" stroke-dasharray="1,5" d="M501.99,-136.12C515.74,-126.6 538.36,-110.94 555.31,-99.21"/>
<polygon fill="red" stroke="red" stroke-width="0.17" points="557.14,-102.2 563.37,-93.63 553.15,-96.44 557.14,-102.2"/>
</g>
<!-- &#45;6 -->
<g id="node6" class="node">
<title>&#45;6</title>
<polygon fill="lightgray" stroke="black" points="199.5,-154.85 176,-154.85 176,-136.35 199.5,-136.35 199.5,-154.85"/>
<text text-anchor="middle" x="187.75" y="-142.3" font-family="Times,serif" font-size="9.00">&#45;6</text>
</g>
<!-- &#45;6&#45;&gt;78 -->
<g id="edge28" class="edge">
<title>&#45;6&#45;&gt;78</title>
<path fill="none" stroke="red" stroke-width="0.11" stroke-dasharray="1,5" d="M193.77,-135.87C199.15,-128.05 207.29,-116.26 214.46,-105.85"/>
<polygon fill="red" stroke="red" stroke-width="0.11" points="217.29,-107.91 220.08,-97.69 211.53,-103.94 217.29,-107.91"/>
</g>
<!-- &#45;6&#45;&gt;79 -->
<g id="edge7" class="edge">
<title>&#45;6&#45;&gt;79</title>
<path fill="none" stroke="red" stroke-width="0.26" d="M199.68,-139.72C202.63,-138.57 205.79,-137.38 208.75,-136.35 259.79,-118.54 320.44,-100.73 354.37,-91.06"/>
<polygon fill="red" stroke="red" stroke-width="0.26" points="354.96,-94.53 363.63,-88.44 353.05,-87.8 354.96,-94.53"/>
</g>
<!-- &#45;7 -->
<g id="node7" class="node">
<title>&#45;7</title>
<polygon fill="lightgray" stroke="black" points="23.5,-154.85 0,-154.85 0,-136.35 23.5,-136.35 23.5,-154.85"/>
<text text-anchor="middle" x="11.75" y="-142.3" font-family="Times,serif" font-size="9.00">&#45;7</text>
</g>
<!-- &#45;7&#45;&gt;78 -->
<g id="edge22" class="edge">
<title>&#45;7&#45;&gt;78</title>
<path fill="none" stroke="red" stroke-width="0.14" stroke-dasharray="1,5" d="M23.66,-139.65C26.61,-138.5 29.77,-137.33 32.75,-136.35 92.54,-116.68 164.3,-98.92 202.56,-89.91"/>
<polygon fill="red" stroke="red" stroke-width="0.14" points="203.28,-93.33 212.22,-87.65 201.69,-86.52 203.28,-93.33"/>
</g>
<!-- &#45;8 -->
<g id="node8" class="node">
<title>&#45;8</title>
<polygon fill="lightgray" stroke="black" points="241.5,-154.85 218,-154.85 218,-136.35 241.5,-136.35 241.5,-154.85"/>
<text text-anchor="middle" x="229.75" y="-142.3" font-family="Times,serif" font-size="9.00">&#45;8</text>
</g>
<!-- &#45;8&#45;&gt;78 -->
<g id="edge39" class="edge">
<title>&#45;8&#45;&gt;78</title>
<path fill="none" stroke="green" stroke-width="0.23" d="M229.75,-135.87C229.75,-129.25 229.75,-119.76 229.75,-110.7"/>
<polygon fill="green" stroke="green" stroke-width="0.23" points="233.25,-110.78 229.75,-100.78 226.25,-110.78 233.25,-110.78"/>
</g>
<!-- &#45;8&#45;&gt;79 -->
<g id="edge43" class="edge">
<title>&#45;8&#45;&gt;79</title>
<path fill="none" stroke="green" stroke-width="0.19" d="M241.85,-139.71C266.33,-129.84 322.2,-107.29 355.14,-94"/>
<polygon fill="green" stroke="green" stroke-width="0.19" points="356.32,-97.3 364.29,-90.31 353.71,-90.81 356.32,-97.3"/>
</g>
<!-- &#45;8&#45;&gt;80 -->
<g id="edge25" class="edge">
<title>&#45;8&#45;&gt;80</title>
<path fill="none" stroke="red" stroke-width="0.63" d="M241.59,-139.43C244.54,-138.29 247.73,-137.17 250.75,-136.35 358.94,-106.75 492.11,-91.67 549.38,-86.17"/>
<polygon fill="red" stroke="red" stroke-width="0.63" points="549.52,-89.67 559.15,-85.26 548.86,-82.7 549.52,-89.67"/>
</g>
<!-- &#45;9 -->
<g id="node9" class="node">
<title>&#45;9</title>
<polygon fill="lightgray" stroke="black" points="413.5,-154.85 390,-154.85 390,-136.35 413.5,-136.35 413.5,-154.85"/>
<text text-anchor="middle" x="401.75" y="-142.3" font-family="Times,serif" font-size="9.00">&#45;9</text>
</g>
<!-- &#45;9&#45;&gt;79 -->
<g id="edge23" class="edge">
<title>&#45;9&#45;&gt;79</title>
<path fill="none" stroke="green" stroke-width="0.21" d="M398.74,-135.87C396.35,-128.93 392.88,-118.86 389.62,-109.41"/>
<polygon fill="green" stroke="green" stroke-width="0.21" points="393.03,-108.56 386.46,-100.25 386.41,-110.84 393.03,-108.56"/>
</g>
<!-- &#45;10 -->
<g id="node10" class="node">
<title>&#45;10</title>
<polygon fill="lightgray" stroke="black" points="681.75,-154.85 653.75,-154.85 653.75,-136.35 681.75,-136.35 681.75,-154.85"/>
<text text-anchor="middle" x="667.75" y="-142.3" font-family="Times,serif" font-size="9.00">&#45;10</text>
</g>
<!-- 77 -->
<g id="node26" class="node">
<title>77</title>
<ellipse fill="white" stroke="black" cx="667.75" cy="-82.67" rx="17.68" ry="17.68"/>
<text text-anchor="middle" x="667.75" y="-79.37" font-family="Times,serif" font-size="9.00">77</text>
</g>
<!-- &#45;10&#45;&gt;77 -->
<g id="edge18" class="edge">
<title>&#45;10&#45;&gt;77</title>
<path fill="none" stroke="green" stroke-width="0.14" d="M667.75,-135.87C667.75,-129.17 667.75,-119.56 667.75,-110.4"/>
<polygon fill="green" stroke="green" stroke-width="0.14" points="671.25,-110.65 667.75,-100.65 664.25,-110.65 671.25,-110.65"/>
</g>
<!-- &#45;10&#45;&gt;79 -->
<g id="edge38" class="edge">
<title>&#45;10&#45;&gt;79</title>
<path fill="none" stroke="green" stroke-width="0.27" d="M653.25,-139.03C650.46,-138.06 647.53,-137.12 644.75,-136.35 559.76,-112.76 456.6,-95.32 408.25,-87.78"/>
<polygon fill="green" stroke="green" stroke-width="0.27" points="409.07,-84.37 398.66,-86.31 408.01,-91.29 409.07,-84.37"/>
</g>
<!-- &#45;10&#45;&gt;80 -->
<g id="edge44" class="edge">
<title>&#45;10&#45;&gt;80</title>
<path fill="none" stroke="red" stroke-width="0.44" stroke-dasharray="1,5" d="M654.86,-135.87C640.7,-126.28 617.7,-110.71 600.5,-99.07"/>
<polygon fill="red" stroke="red" stroke-width="0.44" points="602.91,-96.47 592.67,-93.77 598.98,-102.27 602.91,-96.47"/>
</g>
<!-- &#45;11 -->
<g id="node11" class="node">
<title>&#45;11</title>
<polygon fill="lightgray" stroke="black" points="635.75,-154.85 607.75,-154.85 607.75,-136.35 635.75,-136.35 635.75,-154.85"/>
<text text-anchor="middle" x="621.75" y="-142.3" font-family="Times,serif" font-size="9.00">&#45;11</text>
</g>
<!-- &#45;11&#45;&gt;80 -->
<g id="edge27" class="edge">
<title>&#45;11&#45;&gt;80</title>
<path fill="none" stroke="green" stroke-width="0.4" d="M615.45,-135.87C609.8,-128.05 601.28,-116.26 593.77,-105.85"/>
<polygon fill="green" stroke="green" stroke-width="0.4" points="596.83,-104.11 588.14,-98.05 591.15,-108.21 596.83,-104.11"/>
</g>
<!-- &#45;12 -->
<g id="node12" class="node">
<title>&#45;12</title>
<polygon fill="lightgray" stroke="black" points="111.75,-154.85 83.75,-154.85 83.75,-136.35 111.75,-136.35 111.75,-154.85"/>
<text text-anchor="middle" x="97.75" y="-142.3" font-family="Times,serif" font-size="9.00">&#45;12</text>
</g>
<!-- &#45;12&#45;&gt;78 -->
<g id="edge2" class="edge">
<title>&#45;12&#45;&gt;78</title>
<path fill="none" stroke="red" stroke-width="0.35" d="M112.13,-137.96C134.27,-127.74 177.01,-108.01 204.41,-95.36"/>
<polygon fill="red" stroke="red" stroke-width="0.35" points="205.66,-98.64 213.28,-91.27 202.73,-92.29 205.66,-98.64"/>
</g>
<!-- &#45;12&#45;&gt;79 -->
<g id="edge9" class="edge">
<title>&#45;12&#45;&gt;79</title>
<path fill="none" stroke="red" stroke-width="0.49" stroke-dasharray="1,5" d="M112.25,-139.04C115.05,-138.07 117.97,-137.12 120.75,-136.35 203.91,-113.14 304.71,-95.67 352.71,-87.98"/>
<polygon fill="red" stroke="red" stroke-width="0.49" points="353.13,-91.46 362.46,-86.44 352.04,-84.55 353.13,-91.46"/>
</g>
<!-- &#45;13 -->
<g id="node13" class="node">
<title>&#45;13</title>
<polygon fill="lightgray" stroke="black" points="819.75,-154.85 791.75,-154.85 791.75,-136.35 819.75,-136.35 819.75,-154.85"/>
<text text-anchor="middle" x="805.75" y="-142.3" font-family="Times,serif" font-size="9.00">&#45;13</text>
</g>
<!-- &#45;13&#45;&gt;77 -->
<g id="edge11" class="edge">
<title>&#45;13&#45;&gt;77</title>
<path fill="none" stroke="green" stroke-width="0.58" d="M791.5,-138.31C768.44,-128.12 722.61,-107.89 693.65,-95.11"/>
<polygon fill="green" stroke="green" stroke-width="0.58" points="695.19,-91.96 684.62,-91.12 692.36,-98.36 695.19,-91.96"/>
</g>
<!-- &#45;14 -->
<g id="node14" class="node">
<title>&#45;14</title>
<polygon fill="lightgray" stroke="black" points="157.75,-154.85 129.75,-154.85 129.75,-136.35 157.75,-136.35 157.75,-154.85"/>
<text text-anchor="middle" x="143.75" y="-142.3" font-family="Times,serif" font-size="9.00">&#45;14</text>
</g>
<!-- &#45;14&#45;&gt;78 -->
<g id="edge4" class="edge">
<title>&#45;14&#45;&gt;78</title>
<path fill="none" stroke="green" stroke-width="0.22" d="M156.07,-135.87C169.44,-126.4 191.06,-111.08 207.43,-99.48"/>
<polygon fill="green" stroke="green" stroke-width="0.22" points="209.04,-102.63 215.17,-94 204.99,-96.92 209.04,-102.63"/>
</g>
<!-- &#45;14&#45;&gt;79 -->
<g id="edge14" class="edge">
<title>&#45;14&#45;&gt;79</title>
<path fill="none" stroke="red" stroke-width="0.29" d="M157.78,-139.3C160.73,-138.27 163.83,-137.23 166.75,-136.35 233,-116.37 312.44,-98.33 353.37,-89.46"/>
<polygon fill="red" stroke="red" stroke-width="0.29" points="353.92,-92.92 362.96,-87.4 352.45,-86.08 353.92,-92.92"/>
</g>
<!-- &#45;15 -->
<g id="node15" class="node">
<title>&#45;15</title>
<polygon fill="lightgray" stroke="black" points="329.75,-154.85 301.75,-154.85 301.75,-136.35 329.75,-136.35 329.75,-154.85"/>
<text text-anchor="middle" x="315.75" y="-142.3" font-family="Times,serif" font-size="9.00">&#45;15</text>
</g>
<!-- &#45;15&#45;&gt;78 -->
<g id="edge41" class="edge">
<title>&#45;15&#45;&gt;78</title>
<path fill="none" stroke="green" stroke-width="0.32" d="M303.43,-135.87C290.18,-126.48 268.83,-111.36 252.52,-99.8"/>
<polygon fill="green" stroke="green" stroke-width="0.32" points="254.63,-97.01 244.45,-94.08 250.58,-102.72 254.63,-97.01"/>
</g>
<!-- &#45;15&#45;&gt;80 -->
<g id="edge42" class="edge">
<title>&#45;15&#45;&gt;80</title>
<path fill="none" stroke="red" stroke-width="0.8" d="M329.77,-139.25C332.71,-138.22 335.82,-137.19 338.75,-136.35 413.7,-114.74 504.07,-97.03 549.2,-88.74"/>
<polygon fill="red" stroke="red" stroke-width="0.8" points="549.76,-92.2 558.97,-86.97 548.51,-85.31 549.76,-92.2"/>
</g>
<!-- &#45;16 -->
<g id="node16" class="node">
<title>&#45;16</title>
<polygon fill="lightgray" stroke="black" points="589.75,-154.85 561.75,-154.85 561.75,-136.35 589.75,-136.35 589.75,-154.85"/>
<text text-anchor="middle" x="575.75" y="-142.3" font-family="Times,serif" font-size="9.00">&#45;16</text>
</g>
<!-- &#45;16&#45;&gt;77 -->
<g id="edge10" class="edge">
<title>&#45;16&#45;&gt;77</title>
<path fill="none" stroke="red" stroke-width="0.24" d="M588.93,-135.87C603.4,-126.28 626.91,-110.71 644.5,-99.07"/>
<polygon fill="red" stroke="red" stroke-width="0.24" points="646.36,-102.03 652.77,-93.59 642.5,-96.19 646.36,-102.03"/>
</g>
<!-- &#45;16&#45;&gt;78 -->
<g id="edge3" class="edge">
<title>&#45;16&#45;&gt;78</title>
<path fill="none" stroke="green" stroke-width="0.49" d="M561.27,-138.95C558.47,-137.99 555.54,-137.07 552.75,-136.35 496.73,-121.86 325.42,-97.08 257.71,-87.56"/>
<polygon fill="green" stroke="green" stroke-width="0.49" points="258.52,-84.14 248.14,-86.22 257.55,-91.07 258.52,-84.14"/>
</g>
<!-- &#45;17 -->
<g id="node17" class="node">
<title>&#45;17</title>
<polygon fill="lightgray" stroke="black" points="727.75,-154.85 699.75,-154.85 699.75,-136.35 727.75,-136.35 727.75,-154.85"/>
<text text-anchor="middle" x="713.75" y="-142.3" font-family="Times,serif" font-size="9.00">&#45;17</text>
</g>
<!-- &#45;17&#45;&gt;77 -->
<g id="edge15" class="edge">
<title>&#45;17&#45;&gt;77</title>
<path fill="none" stroke="green" stroke-width="0.37" stroke-dasharray="1,5" d="M707.16,-135.87C701.18,-127.95 692.12,-115.94 684.19,-105.44"/>
<polygon fill="green" stroke="green" stroke-width="0.37" points="687.05,-103.42 678.23,-97.55 681.46,-107.64 687.05,-103.42"/>
</g>
<!-- &#45;17&#45;&gt;79 -->
<g id="edge37" class="edge">
<title>&#45;17&#45;&gt;79</title>
<path fill="none" stroke="red" stroke-width="0.26" d="M699.27,-138.97C696.47,-138 693.54,-137.08 690.75,-136.35 588.49,-109.54 463.54,-93.15 408.75,-86.75"/>
<polygon fill="red" stroke="red" stroke-width="0.26" points="409.19,-83.28 398.86,-85.62 408.39,-90.23 409.19,-83.28"/>
</g>
<!-- &#45;17&#45;&gt;80 -->
<g id="edge13" class="edge">
<title>&#45;17&#45;&gt;80</title>
<path fill="none" stroke="green" stroke-width="0.19" d="M699.45,-138.19C676.51,-127.92 631.19,-107.61 602.8,-94.89"/>
<polygon fill="green" stroke="green" stroke-width="0.19" points="604.34,-91.75 593.78,-90.85 601.48,-98.14 604.34,-91.75"/>
</g>
<!-- &#45;18 -->
<g id="node18" class="node">
<title>&#45;18</title>
<polygon fill="lightgray" stroke="black" points="865.75,-154.85 837.75,-154.85 837.75,-136.35 865.75,-136.35 865.75,-154.85"/>
<text text-anchor="middle" x="851.75" y="-142.3" font-family="Times,serif" font-size="9.00">&#45;18</text>
</g>
<!-- &#45;19 -->
<g id="node19" class="node">
<title>&#45;19</title>
<polygon fill="lightgray" stroke="black" points="459.75,-154.85 431.75,-154.85 431.75,-136.35 459.75,-136.35 459.75,-154.85"/>
<text text-anchor="middle" x="445.75" y="-142.3" font-family="Times,serif" font-size="9.00">&#45;19</text>
</g>
<!-- &#45;19&#45;&gt;79 -->
<g id="edge31" class="edge">
<title>&#45;19&#45;&gt;79</title>
<path fill="none" stroke="green" stroke-width="0.39" d="M436.44,-135.87C427.2,-127.21 412.74,-113.65 400.87,-102.53"/>
<polygon fill="green" stroke="green" stroke-width="0.39" points="403.28,-99.99 393.59,-95.7 398.49,-105.09 403.28,-99.99"/>
</g>
<!-- &#45;20 -->
<g id="node20" class="node">
<title>&#45;20</title>
<polygon fill="lightgray" stroke="black" points="773.75,-154.85 745.75,-154.85 745.75,-136.35 773.75,-136.35 773.75,-154.85"/>
<text text-anchor="middle" x="759.75" y="-142.3" font-family="Times,serif" font-size="9.00">&#45;20</text>
</g>
<!-- &#45;20&#45;&gt;77 -->
<g id="edge6" class="edge">
<title>&#45;20&#45;&gt;77</title>
<path fill="none" stroke="green" stroke-width="0.37" stroke-dasharray="1,5" d="M746.57,-135.87C732.1,-126.28 708.59,-110.71 691,-99.07"/>
<polygon fill="green" stroke="green" stroke-width="0.37" points="693.17,-96.31 682.9,-93.7 689.3,-102.14 693.17,-96.31"/>
</g>
<!-- 0 -->
<g id="node21" class="node">
<title>0</title>
<ellipse fill="lightblue" stroke="black" cx="315.75" cy="-14.5" rx="14.5" ry="14.5"/>
<text text-anchor="middle" x="315.75" y="-11.2" font-family="Times,serif" font-size="9.00">0</text>
</g>
<!-- 1 -->
<g id="node22" class="node">
<title>1</title>
<ellipse fill="lightblue" stroke="black" cx="229.75" cy="-14.5" rx="14.5" ry="14.5"/>
<text text-anchor="middle" x="229.75" y="-11.2" font-family="Times,serif" font-size="9.00">1</text>
</g>
<!-- 2 -->
<g id="node23" class="node">
<title>2</title>
<ellipse fill="lightblue" stroke="black" cx="380.75" cy="-14.5" rx="14.5" ry="14.5"/>
<text text-anchor="middle" x="380.75" y="-11.2" font-family="Times,serif" font-size="9.00">2</text>
</g>
<!-- 4 -->
<g id="node25" class="node">
<title>4</title>
<ellipse fill="lightblue" stroke="black" cx="459.75" cy="-14.5" rx="14.5" ry="14.5"/>
<text text-anchor="middle" x="459.75" y="-11.2" font-family="Times,serif" font-size="9.00">4</text>
</g>
<!-- 4&#45;&gt;4 -->
<g id="edge12" class="edge">
<title>4&#45;&gt;4</title>
<path fill="none" stroke="red" stroke-width="0.57" d="M470.4,-24.65C480.81,-30.26 492.25,-26.88 492.25,-14.5 492.25,-6.18 487.08,-1.92 480.54,-1.72"/>
<polygon fill="red" stroke="red" stroke-width="0.57" points="480.04,1.77 471.24,-4.12 481.79,-5.01 480.04,1.77"/>
</g>
<!-- 77&#45;&gt;3 -->
<g id="edge24" class="edge">
<title>77&#45;&gt;3</title>
<path fill="none" stroke="green" stroke-width="0.21" stroke-dasharray="1,5" d="M653.69,-71.33C638.53,-60.19 614.3,-42.37 597.3,-29.87"/>
<polygon fill="green" stroke="green" stroke-width="0.21" points="599.53,-27.17 589.4,-24.06 595.38,-32.81 599.53,-27.17"/>
</g>
<!-- 77&#45;&gt;4 -->
<g id="edge35" class="edge">
<title>77&#45;&gt;4</title>
<path fill="none" stroke="green" stroke-width="0.2" d="M651.08,-76.37C614.29,-64.66 526.03,-36.58 483.48,-23.05"/>
<polygon fill="green" stroke="green" stroke-width="0.2" points="484.59,-19.73 474,-20.03 482.47,-26.4 484.59,-19.73"/>
</g>
<!-- 77&#45;&gt;77 -->
<g id="edge29" class="edge">
<title>77&#45;&gt;77</title>
<path fill="none" stroke="green" stroke-width="0.56" d="M682.41,-93.2C692.94,-96.63 703.43,-93.12 703.43,-82.67 703.43,-75.81 698.91,-71.95 692.83,-71.06"/>
<polygon fill="green" stroke="green" stroke-width="0.56" points="692.83,-67.55 683.25,-72.05 693.55,-74.51 692.83,-67.55"/>
</g>
<!-- 78&#45;&gt;0 -->
<g id="edge8" class="edge">
<title>78&#45;&gt;0</title>
<path fill="none" stroke="green" stroke-width="0.26" d="M243.57,-71.04C257.83,-60.06 280.2,-42.85 296.26,-30.49"/>
<polygon fill="green" stroke="green" stroke-width="0.26" points="298.33,-33.31 304.12,-24.44 294.07,-27.77 298.33,-33.31"/>
</g>
<!-- 78&#45;&gt;1 -->
<g id="edge5" class="edge">
<title>78&#45;&gt;1</title>
<path fill="none" stroke="green" stroke-width="0.21" d="M229.75,-64.63C229.75,-56.96 229.75,-47.77 229.75,-39.43"/>
<polygon fill="green" stroke="green" stroke-width="0.21" points="233.25,-39.46 229.75,-29.46 226.25,-39.46 233.25,-39.46"/>
</g>
<!-- 79&#45;&gt;0 -->
<g id="edge33" class="edge">
<title>79&#45;&gt;0</title>
<path fill="none" stroke="red" stroke-width="0.28" stroke-dasharray="1,5" d="M368.52,-69.22C358.36,-58.88 343.81,-44.06 332.55,-32.6"/>
<polygon fill="red" stroke="red" stroke-width="0.28" points="335.18,-30.28 325.68,-25.6 330.19,-35.19 335.18,-30.28"/>
</g>
<!-- 79&#45;&gt;2 -->
<g id="edge21" class="edge">
<title>79&#45;&gt;2</title>
<path fill="none" stroke="green" stroke-width="0.38" d="M380.75,-64.63C380.75,-57.05 380.75,-47.98 380.75,-39.71"/>
<polygon fill="green" stroke="green" stroke-width="0.38" points="384.25,-39.72 380.75,-29.72 377.25,-39.72 384.25,-39.72"/>
</g>
<!-- 79&#45;&gt;4 -->
<g id="edge20" class="edge">
<title>79&#45;&gt;4</title>
<path fill="none" stroke="green" stroke-width="0.28" stroke-dasharray="1,5" d="M394.15,-70.44C407.1,-59.59 426.84,-43.07 441.28,-30.97"/>
<polygon fill="green" stroke="green" stroke-width="0.28" points="443.33,-33.81 448.75,-24.71 438.84,-28.45 443.33,-33.81"/>
</g>
<!-- 80&#45;&gt;3 -->
<g id="edge19" class="edge">
<title>80&#45;&gt;3</title>
<path fill="none" stroke="red" stroke-width="0.28" d="M577.75,-64.63C577.75,-56.96 577.75,-47.77 577.75,-39.43"/>
<polygon fill="red" stroke="red" stroke-width="0.28" points="581.25,-39.57 577.75,-29.57 574.25,-39.57 581.25,-39.57"/>
</g>
</g>
</svg>
