<?xml version="1.0" encoding="UTF-8" standalone="no"?>
<!DOCTYPE svg PUBLIC "-//W3C//DTD SVG 1.1//EN"
 "http://www.w3.org/Graphics/SVG/1.1/DTD/svg11.dtd">
<!-- Generated by graphviz version 12.1.1 (20240910.0053)
 -->
<!-- Pages: 1 -->
<svg width="817pt" height="335pt"
 viewBox="0.00 0.00 817.19 335.14" xmlns="http://www.w3.org/2000/svg" xmlns:xlink="http://www.w3.org/1999/xlink">
<g id="graph0" class="graph" transform="scale(1 1) rotate(0) translate(4 331.14)">
<polygon fill="white" stroke="none" points="-4,4 -4,-331.14 813.19,-331.14 813.19,4 -4,4"/>
<!-- &#45;1 -->
<g id="node1" class="node">
<title>&#45;1</title>
<polygon fill="lightgray" stroke="black" points="590.94,-250.54 567.44,-250.54 567.44,-232.04 590.94,-232.04 590.94,-250.54"/>
<text text-anchor="middle" x="579.19" y="-237.99" font-family="Times,serif" font-size="9.00">&#45;1</text>
</g>
<!-- 160 -->
<g id="node26" class="node">
<title>160</title>
<ellipse fill="white" stroke="black" cx="323.19" cy="-163.57" rx="20.86" ry="20.86"/>
<text text-anchor="middle" x="323.19" y="-160.27" font-family="Times,serif" font-size="9.00">160</text>
</g>
<!-- &#45;1&#45;&gt;160 -->
<g id="edge10" class="edge">
<title>&#45;1&#45;&gt;160</title>
<path fill="none" stroke="green" stroke-width="0.36" d="M572.2,-231.85C568.44,-227.84 563.49,-223.29 558.19,-220.43 523,-201.41 409.75,-179.72 354.33,-169.9"/>
<polygon fill="green" stroke="green" stroke-width="0.36" points="355.05,-166.47 344.59,-168.19 353.84,-173.36 355.05,-166.47"/>
</g>
<!-- 157 -->
<g id="node30" class="node">
<title>157</title>
<ellipse fill="white" stroke="black" cx="623.19" cy="-163.57" rx="20.86" ry="20.86"/>
<text text-anchor="middle" x="623.19" y="-160.27" font-family="Times,serif" font-size="9.00">157</text>
</g>
<!-- &#45;1&#45;&gt;157 -->
<g id="edge13" class="edge">
<title>&#45;1&#45;&gt;157</title>
<path fill="none" stroke="green" stroke-width="0.33" stroke-dasharray="1,5" d="M584.24,-231.6C589.98,-221.73 599.63,-205.12 607.89,-190.91"/>
<polygon fill="green" stroke="green" stroke-width="0.33" points="610.81,-192.85 612.81,-182.44 604.76,-189.33 610.81,-192.85"/>
</g>
<!-- 158 -->
<g id="node31" class="node">
<title>158</title>
<ellipse fill="white" stroke="black" cx="470.19" cy="-163.57" rx="20.86" ry="20.86"/>
<text text-anchor="middle" x="470.19" y="-160.27" font-family="Times,serif" font-size="9.00">158</text>
</g>
<!-- &#45;1&#45;&gt;158 -->
<g id="edge24" class="edge">
<title>&#45;1&#45;&gt;158</title>
<path fill="none" stroke="red" stroke-width="0.21" d="M570.94,-231.78C567.2,-228.12 562.63,-223.88 558.19,-220.43 538.74,-205.28 515.07,-190.44 497.18,-179.86"/>
<polygon fill="red" stroke="red" stroke-width="0.21" points="499.07,-176.92 488.67,-174.9 495.55,-182.96 499.07,-176.92"/>
</g>
<!-- &#45;2 -->
<g id="node2" class="node">
<title>&#45;2</title>
<polygon fill="lightgray" stroke="black" points="376.94,-250.54 353.44,-250.54 353.44,-232.04 376.94,-232.04 376.94,-250.54"/>
<text text-anchor="middle" x="365.19" y="-237.99" font-family="Times,serif" font-size="9.00">&#45;2</text>
</g>
<!-- &#45;2&#45;&gt;160 -->
<g id="edge21" class="edge">
<title>&#45;2&#45;&gt;160</title>
<path fill="none" stroke="green" stroke-width="0.3" d="M360.38,-231.6C354.93,-221.79 345.81,-205.34 337.96,-191.19"/>
<polygon fill="green" stroke="green" stroke-width="0.3" points="341.17,-189.77 333.26,-182.72 335.05,-193.16 341.17,-189.77"/>
</g>
<!-- &#45;2&#45;&gt;158 -->
<g id="edge20" class="edge">
<title>&#45;2&#45;&gt;158</title>
<path fill="none" stroke="red" stroke-width="0.34" d="M377.24,-231.6C393.71,-219.72 423.68,-198.11 445.14,-182.64"/>
<polygon fill="red" stroke="red" stroke-width="0.34" points="446.98,-185.63 453.04,-176.94 442.88,-179.95 446.98,-185.63"/>
</g>
<!-- 159 -->
<g id="node32" class="node">
<title>159</title>
<ellipse fill="white" stroke="black" cx="167.19" cy="-163.57" rx="20.86" ry="20.86"/>
<text text-anchor="middle" x="167.19" y="-160.27" font-family="Times,serif" font-size="9.00">159</text>
</g>
<!-- &#45;2&#45;&gt;159 -->
<g id="edge8" class="edge">
<title>&#45;2&#45;&gt;159</title>
<path fill="none" stroke="green" stroke-width="0.54" d="M357.72,-231.61C353.99,-227.73 349.21,-223.38 344.19,-220.43 297.37,-192.9 235.47,-177.4 198.65,-170.03"/>
<polygon fill="green" stroke="green" stroke-width="0.54" points="199.36,-166.61 188.88,-168.16 198.04,-173.48 199.36,-166.61"/>
</g>
<!-- &#45;3 -->
<g id="node3" class="node">
<title>&#45;3</title>
<polygon fill="lightgray" stroke="black" points="122.94,-321.89 99.44,-321.89 99.44,-303.39 122.94,-303.39 122.94,-321.89"/>
<text text-anchor="middle" x="111.19" y="-309.34" font-family="Times,serif" font-size="9.00">&#45;3</text>
</g>
<!-- 299 -->
<g id="node28" class="node">
<title>299</title>
<ellipse fill="white" stroke="black" cx="78.19" cy="-241.29" rx="20.86" ry="20.86"/>
<text text-anchor="middle" x="78.19" y="-237.99" font-family="Times,serif" font-size="9.00">299</text>
</g>
<!-- &#45;3&#45;&gt;299 -->
<g id="edge50" class="edge">
<title>&#45;3&#45;&gt;299</title>
<path fill="none" stroke="red" stroke-width="0.14" d="M107.15,-303.14C103.18,-294.81 96.92,-281.65 91.24,-269.7"/>
<polygon fill="red" stroke="red" stroke-width="0.14" points="94.4,-268.21 86.95,-260.68 88.08,-271.22 94.4,-268.21"/>
</g>
<!-- &#45;3&#45;&gt;157 -->
<g id="edge25" class="edge">
<title>&#45;3&#45;&gt;157</title>
<path fill="none" stroke="red" stroke-width="0.9" d="M123.41,-310.9C209.63,-305.64 723.4,-273.83 734.19,-262.15 746.78,-248.53 743.92,-236.22 734.19,-220.43 717.04,-192.59 681.29,-178.14 654.97,-170.98"/>
<polygon fill="red" stroke="red" stroke-width="0.9" points="655.87,-167.59 645.32,-168.58 654.19,-174.39 655.87,-167.59"/>
</g>
<!-- &#45;4 -->
<g id="node4" class="node">
<title>&#45;4</title>
<polygon fill="lightgray" stroke="black" points="38.94,-250.54 15.44,-250.54 15.44,-232.04 38.94,-232.04 38.94,-250.54"/>
<text text-anchor="middle" x="27.19" y="-237.99" font-family="Times,serif" font-size="9.00">&#45;4</text>
</g>
<!-- 0 -->
<g id="node21" class="node">
<title>0</title>
<ellipse fill="lightblue" stroke="black" cx="171.19" cy="-92.21" rx="14.5" ry="14.5"/>
<text text-anchor="middle" x="171.19" y="-88.91" font-family="Times,serif" font-size="9.00">0</text>
</g>
<!-- &#45;4&#45;&gt;0 -->
<g id="edge45" class="edge">
<title>&#45;4&#45;&gt;0</title>
<path fill="none" stroke="green" stroke-width="0.28" d="M35.35,-231.96C58.17,-208.66 123.02,-142.42 154.13,-110.64"/>
<polygon fill="green" stroke="green" stroke-width="0.28" points="156.47,-113.25 160.97,-103.66 151.47,-108.36 156.47,-113.25"/>
</g>
<!-- &#45;4&#45;&gt;157 -->
<g id="edge12" class="edge">
<title>&#45;4&#45;&gt;157</title>
<path fill="none" stroke="red" stroke-width="0.22" stroke-dasharray="1,5" d="M33.65,-231.9C37.4,-227.69 42.5,-222.95 48.19,-220.43 143.97,-178.01 414.35,-198.18 518.19,-184.43 543.52,-181.07 571.99,-175.58 592.89,-171.22"/>
<polygon fill="red" stroke="red" stroke-width="0.22" points="593.39,-174.69 602.45,-169.2 591.94,-167.85 593.39,-174.69"/>
</g>
<!-- &#45;4&#45;&gt;159 -->
<g id="edge26" class="edge">
<title>&#45;4&#45;&gt;159</title>
<path fill="none" stroke="red" stroke-width="0.12" d="M34.85,-231.91C38.62,-228.09 43.38,-223.71 48.19,-220.43 76.83,-200.91 113.36,-184.9 138.35,-175.09"/>
<polygon fill="red" stroke="red" stroke-width="0.12" points="139.39,-178.44 147.47,-171.59 136.88,-171.91 139.39,-178.44"/>
</g>
<!-- &#45;5 -->
<g id="node5" class="node">
<title>&#45;5</title>
<polygon fill="lightgray" stroke="black" points="678.94,-250.54 655.44,-250.54 655.44,-232.04 678.94,-232.04 678.94,-250.54"/>
<text text-anchor="middle" x="667.19" y="-237.99" font-family="Times,serif" font-size="9.00">&#45;5</text>
</g>
<!-- &#45;5&#45;&gt;157 -->
<g id="edge19" class="edge">
<title>&#45;5&#45;&gt;157</title>
<path fill="none" stroke="green" stroke-width="0.13" stroke-dasharray="1,5" d="M662.15,-231.6C656.35,-221.63 646.58,-204.81 638.27,-190.51"/>
<polygon fill="green" stroke="green" stroke-width="0.13" points="641.48,-189.08 633.43,-182.19 635.43,-192.6 641.48,-189.08"/>
</g>
<!-- &#45;6 -->
<g id="node6" class="node">
<title>&#45;6</title>
<polygon fill="lightgray" stroke="black" points="414.94,-321.89 391.44,-321.89 391.44,-303.39 414.94,-303.39 414.94,-321.89"/>
<text text-anchor="middle" x="403.19" y="-309.34" font-family="Times,serif" font-size="9.00">&#45;6</text>
</g>
<!-- &#45;7 -->
<g id="node7" class="node">
<title>&#45;7</title>
<polygon fill="lightgray" stroke="black" points="274.94,-250.54 251.44,-250.54 251.44,-232.04 274.94,-232.04 274.94,-250.54"/>
<text text-anchor="middle" x="263.19" y="-237.99" font-family="Times,serif" font-size="9.00">&#45;7</text>
</g>
<!-- 3 -->
<g id="node24" class="node">
<title>3</title>
<ellipse fill="lightblue" stroke="black" cx="276.19" cy="-92.21" rx="14.5" ry="14.5"/>
<text text-anchor="middle" x="276.19" y="-88.91" font-family="Times,serif" font-size="9.00">3</text>
</g>
<!-- &#45;7&#45;&gt;3 -->
<g id="edge42" class="edge">
<title>&#45;7&#45;&gt;3</title>
<path fill="none" stroke="green" stroke-width="0.33" stroke-dasharray="1,5" d="M263.93,-231.96C265.86,-210.12 271.12,-150.59 274.09,-117.03"/>
<polygon fill="green" stroke="green" stroke-width="0.33" points="277.56,-117.5 274.96,-107.23 270.59,-116.88 277.56,-117.5"/>
</g>
<!-- &#45;7&#45;&gt;160 -->
<g id="edge15" class="edge">
<title>&#45;7&#45;&gt;160</title>
<path fill="none" stroke="red" stroke-width="0.14" stroke-dasharray="1,5" d="M270.08,-231.6C278.39,-221.12 292.7,-203.05 304.38,-188.31"/>
<polygon fill="red" stroke="red" stroke-width="0.14" points="306.94,-190.72 310.41,-180.71 301.45,-186.37 306.94,-190.72"/>
</g>
<!-- 334 -->
<g id="node29" class="node">
<title>334</title>
<ellipse fill="white" stroke="black" cx="201.19" cy="-20.86" rx="20.86" ry="20.86"/>
<text text-anchor="middle" x="201.19" y="-17.56" font-family="Times,serif" font-size="9.00">334</text>
</g>
<!-- &#45;7&#45;&gt;334 -->
<g id="edge46" class="edge">
<title>&#45;7&#45;&gt;334</title>
<path fill="none" stroke="green" stroke-width="0.36" d="M260.76,-231.73C252.3,-201.9 223.85,-101.67 209.55,-51.29"/>
<polygon fill="green" stroke="green" stroke-width="0.36" points="212.97,-50.53 206.87,-41.86 206.24,-52.44 212.97,-50.53"/>
</g>
<!-- &#45;7&#45;&gt;158 -->
<g id="edge1" class="edge">
<title>&#45;7&#45;&gt;158</title>
<path fill="none" stroke="green" stroke-width="0.41" stroke-dasharray="1,5" d="M270.65,-231.58C274.37,-227.7 279.16,-223.35 284.19,-220.43 334.34,-191.41 400.98,-176.18 439.37,-169.3"/>
<polygon fill="green" stroke="green" stroke-width="0.41" points="439.54,-172.82 448.8,-167.68 438.35,-165.93 439.54,-172.82"/>
</g>
<!-- &#45;7&#45;&gt;159 -->
<g id="edge23" class="edge">
<title>&#45;7&#45;&gt;159</title>
<path fill="none" stroke="green" stroke-width="0.19" stroke-dasharray="1,5" d="M254.41,-231.55C250.73,-228 246.34,-223.92 242.19,-220.43 226.09,-206.9 207.07,-192.75 192.22,-182.08"/>
<polygon fill="green" stroke="green" stroke-width="0.19" points="194.42,-179.36 184.25,-176.4 190.36,-185.06 194.42,-179.36"/>
</g>
<!-- &#45;8 -->
<g id="node8" class="node">
<title>&#45;8</title>
<polygon fill="lightgray" stroke="black" points="548.94,-250.54 525.44,-250.54 525.44,-232.04 548.94,-232.04 548.94,-250.54"/>
<text text-anchor="middle" x="537.19" y="-237.99" font-family="Times,serif" font-size="9.00">&#45;8</text>
</g>
<!-- &#45;8&#45;&gt;160 -->
<g id="edge38" class="edge">
<title>&#45;8&#45;&gt;160</title>
<path fill="none" stroke="green" stroke-width="0.49" d="M529.75,-231.56C526.03,-227.67 521.25,-223.32 516.19,-220.43 463.89,-190.51 394.28,-175.53 354.55,-168.96"/>
<polygon fill="green" stroke="green" stroke-width="0.49" points="355.33,-165.54 344.9,-167.43 354.24,-172.45 355.33,-165.54"/>
</g>
<!-- &#45;8&#45;&gt;157 -->
<g id="edge6" class="edge">
<title>&#45;8&#45;&gt;157</title>
<path fill="none" stroke="red" stroke-width="0.12" d="M546.1,-231.69C549.8,-228.16 554.17,-224.06 558.19,-220.43 571.79,-208.17 587.33,-194.79 599.81,-184.2"/>
<polygon fill="red" stroke="red" stroke-width="0.12" points="602,-186.93 607.38,-177.8 597.48,-181.59 602,-186.93"/>
</g>
<!-- &#45;9 -->
<g id="node9" class="node">
<title>&#45;9</title>
<polygon fill="lightgray" stroke="black" points="186.94,-250.54 163.44,-250.54 163.44,-232.04 186.94,-232.04 186.94,-250.54"/>
<text text-anchor="middle" x="175.19" y="-237.99" font-family="Times,serif" font-size="9.00">&#45;9</text>
</g>
<!-- &#45;9&#45;&gt;160 -->
<g id="edge3" class="edge">
<title>&#45;9&#45;&gt;160</title>
<path fill="none" stroke="red" stroke-width="0.51" d="M182.81,-231.86C186.58,-228.03 191.34,-223.65 196.19,-220.43 227.02,-199.97 266.58,-183.95 293.29,-174.41"/>
<polygon fill="red" stroke="red" stroke-width="0.51" points="294.18,-177.81 302.48,-171.21 291.88,-171.2 294.18,-177.81"/>
</g>
<!-- &#45;9&#45;&gt;159 -->
<g id="edge28" class="edge">
<title>&#45;9&#45;&gt;159</title>
<path fill="none" stroke="red" stroke-width="0.4" stroke-dasharray="1,5" d="M174.28,-231.6C173.33,-222.65 171.8,-208.18 170.41,-194.97"/>
<polygon fill="red" stroke="red" stroke-width="0.4" points="173.92,-194.97 169.39,-185.39 166.96,-195.7 173.92,-194.97"/>
</g>
<!-- &#45;10 -->
<g id="node10" class="node">
<title>&#45;10</title>
<polygon fill="lightgray" stroke="black" points="233.19,-250.54 205.19,-250.54 205.19,-232.04 233.19,-232.04 233.19,-250.54"/>
<text text-anchor="middle" x="219.19" y="-237.99" font-family="Times,serif" font-size="9.00">&#45;10</text>
</g>
<!-- &#45;10&#45;&gt;160 -->
<g id="edge40" class="edge">
<title>&#45;10&#45;&gt;160</title>
<path fill="none" stroke="green" stroke-width="0.12" d="M228.85,-231.55C232.89,-227.99 237.69,-223.91 242.19,-220.43 260.1,-206.59 281.16,-192.12 297.32,-181.37"/>
<polygon fill="green" stroke="green" stroke-width="0.12" points="299.17,-184.34 305.59,-175.91 295.32,-178.5 299.17,-184.34"/>
</g>
<!-- &#45;10&#45;&gt;159 -->
<g id="edge29" class="edge">
<title>&#45;10&#45;&gt;159</title>
<path fill="none" stroke="red" stroke-width="0.29" d="M213.23,-231.6C206.29,-221.5 194.53,-204.37 184.63,-189.96"/>
<polygon fill="red" stroke="red" stroke-width="0.29" points="187.56,-188.05 179.02,-181.78 181.79,-192.01 187.56,-188.05"/>
</g>
<!-- &#45;11 -->
<g id="node11" class="node">
<title>&#45;11</title>
<polygon fill="lightgray" stroke="black" points="725.19,-250.54 697.19,-250.54 697.19,-232.04 725.19,-232.04 725.19,-250.54"/>
<text text-anchor="middle" x="711.19" y="-237.99" font-family="Times,serif" font-size="9.00">&#45;11</text>
</g>
<!-- &#45;11&#45;&gt;157 -->
<g id="edge22" class="edge">
<title>&#45;11&#45;&gt;157</title>
<path fill="none" stroke="red" stroke-width="0.12" d="M701.35,-231.78C697.28,-228.26 692.51,-224.15 688.19,-220.43 674.32,-208.48 658.77,-195.11 646.36,-184.45"/>
<polygon fill="red" stroke="red" stroke-width="0.12" points="648.7,-181.85 638.84,-177.99 644.14,-187.16 648.7,-181.85"/>
</g>
<!-- &#45;12 -->
<g id="node12" class="node">
<title>&#45;12</title>
<polygon fill="lightgray" stroke="black" points="373.19,-321.89 345.19,-321.89 345.19,-303.39 373.19,-303.39 373.19,-321.89"/>
<text text-anchor="middle" x="359.19" y="-309.34" font-family="Times,serif" font-size="9.00">&#45;12</text>
</g>
<!-- &#45;12&#45;&gt;160 -->
<g id="edge9" class="edge">
<title>&#45;12&#45;&gt;160</title>
<path fill="none" stroke="green" stroke-width="0.38" stroke-dasharray="1,5" d="M365.49,-303.33C377.05,-286.97 399.34,-249.65 386.19,-220.43 378.67,-203.7 363.38,-189.95 349.75,-180.27"/>
<polygon fill="green" stroke="green" stroke-width="0.38" points="351.86,-177.48 341.6,-174.83 347.97,-183.3 351.86,-177.48"/>
</g>
<!-- 387 -->
<g id="node27" class="node">
<title>387</title>
<ellipse fill="white" stroke="black" cx="314.19" cy="-241.29" rx="20.86" ry="20.86"/>
<text text-anchor="middle" x="314.19" y="-237.99" font-family="Times,serif" font-size="9.00">387</text>
</g>
<!-- &#45;12&#45;&gt;387 -->
<g id="edge48" class="edge">
<title>&#45;12&#45;&gt;387</title>
<path fill="none" stroke="red" stroke-width="0.27" d="M353.68,-303.14C348.01,-294.41 338.91,-280.38 330.87,-268"/>
<polygon fill="red" stroke="red" stroke-width="0.27" points="333.87,-266.19 325.49,-259.7 328,-270 333.87,-266.19"/>
</g>
<!-- &#45;13 -->
<g id="node13" class="node">
<title>&#45;13</title>
<polygon fill="lightgray" stroke="black" points="461.19,-321.89 433.19,-321.89 433.19,-303.39 461.19,-303.39 461.19,-321.89"/>
<text text-anchor="middle" x="447.19" y="-309.34" font-family="Times,serif" font-size="9.00">&#45;13</text>
</g>
<!-- &#45;14 -->
<g id="node14" class="node">
<title>&#45;14</title>
<polygon fill="lightgray" stroke="black" points="507.19,-250.54 479.19,-250.54 479.19,-232.04 507.19,-232.04 507.19,-250.54"/>
<text text-anchor="middle" x="493.19" y="-237.99" font-family="Times,serif" font-size="9.00">&#45;14</text>
</g>
<!-- &#45;14&#45;&gt;160 -->
<g id="edge2" class="edge">
<title>&#45;14&#45;&gt;160</title>
<path fill="none" stroke="green" stroke-width="0.63" stroke-dasharray="1,5" d="M484.8,-231.78C480.67,-227.94 475.45,-223.56 470.19,-220.43 432.6,-198.01 384.45,-181.77 353.7,-172.75"/>
<polygon fill="green" stroke="green" stroke-width="0.63" points="354.7,-169.4 344.12,-170.02 352.78,-176.13 354.7,-169.4"/>
</g>
<!-- &#45;14&#45;&gt;157 -->
<g id="edge7" class="edge">
<title>&#45;14&#45;&gt;157</title>
<path fill="none" stroke="red" stroke-width="0.22" stroke-dasharray="1,5" d="M502.2,-231.66C506.29,-227.97 511.31,-223.75 516.19,-220.43 541.56,-203.2 572.89,-187.41 595.08,-177.05"/>
<polygon fill="red" stroke="red" stroke-width="0.22" points="596.35,-180.32 603.97,-172.96 593.43,-173.96 596.35,-180.32"/>
</g>
<!-- &#45;14&#45;&gt;158 -->
<g id="edge11" class="edge">
<title>&#45;14&#45;&gt;158</title>
<path fill="none" stroke="red" stroke-width="0.68" d="M490.56,-231.6C487.78,-222.47 483.26,-207.59 479.18,-194.16"/>
<polygon fill="red" stroke="red" stroke-width="0.68" points="482.6,-193.38 476.35,-184.82 475.9,-195.41 482.6,-193.38"/>
</g>
<!-- &#45;15 -->
<g id="node15" class="node">
<title>&#45;15</title>
<polygon fill="lightgray" stroke="black" points="637.19,-250.54 609.19,-250.54 609.19,-232.04 637.19,-232.04 637.19,-250.54"/>
<text text-anchor="middle" x="623.19" y="-237.99" font-family="Times,serif" font-size="9.00">&#45;15</text>
</g>
<!-- &#45;15&#45;&gt;157 -->
<g id="edge35" class="edge">
<title>&#45;15&#45;&gt;157</title>
<path fill="none" stroke="red" stroke-width="0.11" stroke-dasharray="1,5" d="M623.19,-231.6C623.19,-222.56 623.19,-207.9 623.19,-194.58"/>
<polygon fill="red" stroke="red" stroke-width="0.11" points="626.69,-194.95 623.19,-184.95 619.69,-194.95 626.69,-194.95"/>
</g>
<!-- &#45;15&#45;&gt;158 -->
<g id="edge41" class="edge">
<title>&#45;15&#45;&gt;158</title>
<path fill="none" stroke="red" stroke-width="0.17" stroke-dasharray="1,5" d="M614.74,-231.88C610.59,-228.06 605.38,-223.68 600.19,-220.43 567.74,-200.12 526.61,-183.84 499.41,-174.2"/>
<polygon fill="red" stroke="red" stroke-width="0.17" points="500.89,-171.01 490.3,-171.04 498.6,-177.63 500.89,-171.01"/>
</g>
<!-- &#45;16 -->
<g id="node16" class="node">
<title>&#45;16</title>
<polygon fill="lightgray" stroke="black" points="809.19,-250.54 781.19,-250.54 781.19,-232.04 809.19,-232.04 809.19,-250.54"/>
<text text-anchor="middle" x="795.19" y="-237.99" font-family="Times,serif" font-size="9.00">&#45;16</text>
</g>
<!-- &#45;16&#45;&gt;157 -->
<g id="edge39" class="edge">
<title>&#45;16&#45;&gt;157</title>
<path fill="none" stroke="red" stroke-width="0.15" stroke-dasharray="1,5" d="M784.43,-231.71C779.38,-227.94 773.18,-223.65 767.19,-220.43 729.22,-200 682.12,-183.2 652.36,-173.52"/>
<polygon fill="red" stroke="red" stroke-width="0.15" points="653.77,-170.3 643.18,-170.59 651.64,-176.97 653.77,-170.3"/>
</g>
<!-- &#45;17 -->
<g id="node17" class="node">
<title>&#45;17</title>
<polygon fill="lightgray" stroke="black" points="58.19,-321.89 30.19,-321.89 30.19,-303.39 58.19,-303.39 58.19,-321.89"/>
<text text-anchor="middle" x="44.19" y="-309.34" font-family="Times,serif" font-size="9.00">&#45;17</text>
</g>
<!-- &#45;17&#45;&gt;299 -->
<g id="edge43" class="edge">
<title>&#45;17&#45;&gt;299</title>
<path fill="none" stroke="red" stroke-width="0.25" d="M48.36,-303.14C52.45,-294.81 58.9,-281.65 64.76,-269.7"/>
<polygon fill="red" stroke="red" stroke-width="0.25" points="67.85,-271.35 69.1,-260.83 61.56,-268.27 67.85,-271.35"/>
</g>
<!-- &#45;17&#45;&gt;159 -->
<g id="edge4" class="edge">
<title>&#45;17&#45;&gt;159</title>
<path fill="none" stroke="red" stroke-width="0.14" d="M35.19,-302.96C18.67,-285.95 -13.1,-247.55 6.19,-220.43 35.67,-179 98.12,-168.02 135.99,-165.28"/>
<polygon fill="red" stroke="red" stroke-width="0.14" points="135.98,-168.79 145.76,-164.72 135.58,-161.8 135.98,-168.79"/>
</g>
<!-- &#45;18 -->
<g id="node18" class="node">
<title>&#45;18</title>
<polygon fill="lightgray" stroke="black" points="145.19,-250.54 117.19,-250.54 117.19,-232.04 145.19,-232.04 145.19,-250.54"/>
<text text-anchor="middle" x="131.19" y="-237.99" font-family="Times,serif" font-size="9.00">&#45;18</text>
</g>
<!-- &#45;18&#45;&gt;160 -->
<g id="edge5" class="edge">
<title>&#45;18&#45;&gt;160</title>
<path fill="none" stroke="green" stroke-width="0.11" stroke-dasharray="1,5" d="M139.53,-231.68C143.65,-227.81 148.87,-223.45 154.19,-220.43 199.34,-194.84 257.97,-178.79 292.98,-170.77"/>
<polygon fill="green" stroke="green" stroke-width="0.11" points="293.45,-174.25 302.45,-168.67 291.93,-167.42 293.45,-174.25"/>
</g>
<!-- &#45;18&#45;&gt;159 -->
<g id="edge33" class="edge">
<title>&#45;18&#45;&gt;159</title>
<path fill="none" stroke="green" stroke-width="0.38" stroke-dasharray="1,5" d="M135.32,-231.6C139.89,-222.01 147.46,-206.07 154.08,-192.14"/>
<polygon fill="green" stroke="green" stroke-width="0.38" points="157.09,-193.97 158.22,-183.44 150.77,-190.97 157.09,-193.97"/>
</g>
<!-- &#45;19 -->
<g id="node19" class="node">
<title>&#45;19</title>
<polygon fill="lightgray" stroke="black" points="461.19,-250.54 433.19,-250.54 433.19,-232.04 461.19,-232.04 461.19,-250.54"/>
<text text-anchor="middle" x="447.19" y="-237.99" font-family="Times,serif" font-size="9.00">&#45;19</text>
</g>
<!-- &#45;19&#45;&gt;160 -->
<g id="edge17" class="edge">
<title>&#45;19&#45;&gt;160</title>
<path fill="none" stroke="red" stroke-width="0.26" stroke-dasharray="1,5" d="M435.37,-231.54C430.44,-227.99 424.61,-223.91 419.19,-220.43 396.34,-205.72 369.56,-190.28 350.09,-179.37"/>
<polygon fill="red" stroke="red" stroke-width="0.26" points="351.96,-176.4 341.52,-174.59 348.55,-182.51 351.96,-176.4"/>
</g>
<!-- &#45;19&#45;&gt;158 -->
<g id="edge27" class="edge">
<title>&#45;19&#45;&gt;158</title>
<path fill="none" stroke="red" stroke-width="0.57" d="M449.83,-231.6C452.61,-222.47 457.13,-207.59 461.21,-194.16"/>
<polygon fill="red" stroke="red" stroke-width="0.57" points="464.53,-195.25 464.09,-184.67 457.83,-193.22 464.53,-195.25"/>
</g>
<!-- &#45;20 -->
<g id="node20" class="node">
<title>&#45;20</title>
<polygon fill="lightgray" stroke="black" points="507.19,-321.89 479.19,-321.89 479.19,-303.39 507.19,-303.39 507.19,-321.89"/>
<text text-anchor="middle" x="493.19" y="-309.34" font-family="Times,serif" font-size="9.00">&#45;20</text>
</g>
<!-- 0&#45;&gt;0 -->
<g id="edge18" class="edge">
<title>0&#45;&gt;0</title>
<path fill="none" stroke="green" stroke-width="0.18" stroke-dasharray="1,5" d="M181.51,-102.65C192.01,-108.8 203.69,-105.32 203.69,-92.21 203.69,-83.21 198.17,-78.75 191.31,-78.84"/>
<polygon fill="green" stroke="green" stroke-width="0.18" points="190.35,-75.47 181.77,-81.7 192.36,-82.18 190.35,-75.47"/>
</g>
<!-- 0&#45;&gt;334 -->
<g id="edge47" class="edge">
<title>0&#45;&gt;334</title>
<path fill="none" stroke="red" stroke-width="0.31" d="M176.7,-78.49C180.15,-70.52 184.74,-59.91 189.01,-50.03"/>
<polygon fill="red" stroke="red" stroke-width="0.31" points="192.18,-51.51 192.94,-40.95 185.76,-48.73 192.18,-51.51"/>
</g>
<!-- 1 -->
<g id="node22" class="node">
<title>1</title>
<ellipse fill="lightblue" stroke="black" cx="539.19" cy="-312.64" rx="14.5" ry="14.5"/>
<text text-anchor="middle" x="539.19" y="-309.34" font-family="Times,serif" font-size="9.00">1</text>
</g>
<!-- 1&#45;&gt;1 -->
<g id="edge36" class="edge">
<title>1&#45;&gt;1</title>
<path fill="none" stroke="green" stroke-width="0.23" d="M549.51,-323.08C560.01,-329.23 571.69,-325.75 571.69,-312.64 571.69,-303.64 566.17,-299.18 559.31,-299.27"/>
<polygon fill="green" stroke="green" stroke-width="0.23" points="558.41,-295.88 549.84,-302.11 560.43,-302.58 558.41,-295.88"/>
</g>
<!-- 2 -->
<g id="node23" class="node">
<title>2</title>
<ellipse fill="lightblue" stroke="black" cx="323.19" cy="-92.21" rx="14.5" ry="14.5"/>
<text text-anchor="middle" x="323.19" y="-88.91" font-family="Times,serif" font-size="9.00">2</text>
</g>
<!-- 4 -->
<g id="node25" class="node">
<title>4</title>
<ellipse fill="lightblue" stroke="black" cx="470.19" cy="-92.21" rx="14.5" ry="14.5"/>
<text text-anchor="middle" x="470.19" y="-88.91" font-family="Times,serif" font-size="9.00">4</text>
</g>
<!-- 160&#45;&gt;0 -->
<g id="edge16" class="edge">
<title>160&#45;&gt;0</title>
<path fill="none" stroke="green" stroke-width="0.83" d="M304.25,-153.93C276.32,-141.18 224.18,-117.39 194.13,-103.68"/>
<polygon fill="green" stroke="green" stroke-width="0.83" points="195.84,-100.61 185.28,-99.64 192.93,-106.98 195.84,-100.61"/>
</g>
<!-- 160&#45;&gt;2 -->
<g id="edge31" class="edge">
<title>160&#45;&gt;2</title>
<path fill="none" stroke="red" stroke-width="0.61" d="M323.19,-142.51C323.19,-134.79 323.19,-125.88 323.19,-117.78"/>
<polygon fill="red" stroke="red" stroke-width="0.61" points="326.69,-117.99 323.19,-107.99 319.69,-117.99 326.69,-117.99"/>
</g>
<!-- 160&#45;&gt;3 -->
<g id="edge30" class="edge">
<title>160&#45;&gt;3</title>
<path fill="none" stroke="red" stroke-width="0.18" d="M311.82,-145.78C305.18,-135.98 296.76,-123.56 289.77,-113.25"/>
<polygon fill="red" stroke="red" stroke-width="0.18" points="292.74,-111.4 284.24,-105.08 286.95,-115.32 292.74,-111.4"/>
</g>
<!-- 387&#45;&gt;160 -->
<g id="edge49" class="edge">
<title>387&#45;&gt;160</title>
<path fill="none" stroke="green" stroke-width="0.43" d="M316.56,-220.4C317.48,-212.63 318.56,-203.56 319.58,-195.01"/>
<polygon fill="green" stroke="green" stroke-width="0.43" points="323.03,-195.58 320.74,-185.23 316.08,-194.75 323.03,-195.58"/>
</g>
<!-- 299&#45;&gt;159 -->
<g id="edge44" class="edge">
<title>299&#45;&gt;159</title>
<path fill="none" stroke="green" stroke-width="0.18" d="M93.7,-227.1C107.52,-215.34 127.96,-197.95 143.78,-184.49"/>
<polygon fill="green" stroke="green" stroke-width="0.18" points="146.02,-187.18 151.37,-178.04 141.48,-181.85 146.02,-187.18"/>
</g>
<!-- 158&#45;&gt;4 -->
<g id="edge32" class="edge">
<title>158&#45;&gt;4</title>
<path fill="none" stroke="green" stroke-width="0.13" stroke-dasharray="1,5" d="M470.19,-142.51C470.19,-134.61 470.19,-125.47 470.19,-117.22"/>
<polygon fill="green" stroke="green" stroke-width="0.13" points="473.69,-117.28 470.19,-107.28 466.69,-117.28 473.69,-117.28"/>
</g>
<!-- 158&#45;&gt;158 -->
<g id="edge37" class="edge">
<title>158&#45;&gt;158</title>
<path fill="none" stroke="green" stroke-width="0.26" d="M487.37,-175.89C498.42,-179.11 509.05,-175 509.05,-163.57 509.05,-155.71 504.03,-151.32 497.3,-150.38"/>
<polygon fill="green" stroke="green" stroke-width="0.26" points="497.42,-146.86 487.76,-151.22 498.03,-153.83 497.42,-146.86"/>
</g>
<!-- 159&#45;&gt;0 -->
<g id="edge14" class="edge">
<title>159&#45;&gt;0</title>
<path fill="none" stroke="green" stroke-width="0.52" d="M168.35,-142.51C168.8,-134.79 169.31,-125.88 169.78,-117.78"/>
<polygon fill="green" stroke="green" stroke-width="0.52" points="173.27,-118.04 170.35,-107.86 166.28,-117.64 173.27,-118.04"/>
</g>
<!-- 159&#45;&gt;159 -->
<g id="edge34" class="edge">
<title>159&#45;&gt;159</title>
<path fill="none" stroke="green" stroke-width="0.21" d="M184.37,-175.89C195.42,-179.11 206.05,-175 206.05,-163.57 206.05,-155.71 201.03,-151.32 194.3,-150.38"/>
<polygon fill="green" stroke="green" stroke-width="0.21" points="194.35,-146.86 184.69,-151.22 194.96,-153.84 194.35,-146.86"/>
</g>
</g>
</svg>
