<?xml version="1.0" encoding="UTF-8" standalone="no"?>
<!DOCTYPE svg PUBLIC "-//W3C//DTD SVG 1.1//EN"
 "http://www.w3.org/Graphics/SVG/1.1/DTD/svg11.dtd">
<!-- Generated by graphviz version 12.1.1 (20240910.0053)
 -->
<!-- Pages: 1 -->
<svg width="874pt" height="169pt"
 viewBox="0.00 0.00 873.75 169.21" xmlns="http://www.w3.org/2000/svg" xmlns:xlink="http://www.w3.org/1999/xlink">
<g id="graph0" class="graph" transform="scale(1 1) rotate(0) translate(4 165.21)">
<polygon fill="white" stroke="none" points="-4,4 -4,-165.21 869.75,-165.21 869.75,4 -4,4"/>
<!-- &#45;1 -->
<g id="node1" class="node">
<title>&#45;1</title>
<polygon fill="lightgray" stroke="black" points="693.75,-161.21 670.25,-161.21 670.25,-142.71 693.75,-142.71 693.75,-161.21"/>
<text text-anchor="middle" x="682" y="-148.66" font-family="Times,serif" font-size="9.00">&#45;1</text>
</g>
<!-- 112 -->
<g id="node29" class="node">
<title>112</title>
<ellipse fill="white" stroke="black" cx="502" cy="-85.85" rx="20.86" ry="20.86"/>
<text text-anchor="middle" x="502" y="-82.55" font-family="Times,serif" font-size="9.00">112</text>
</g>
<!-- &#45;1&#45;&gt;112 -->
<g id="edge43" class="edge">
<title>&#45;1&#45;&gt;112</title>
<path fill="none" stroke="green" stroke-width="0.18" d="M670.04,-146.17C667.09,-145.02 663.94,-143.8 661,-142.71 615.96,-125.96 563.28,-107.71 531.29,-96.78"/>
<polygon fill="green" stroke="green" stroke-width="0.18" points="532.52,-93.5 521.93,-93.59 530.26,-100.13 532.52,-93.5"/>
</g>
<!-- &#45;2 -->
<g id="node2" class="node">
<title>&#45;2</title>
<polygon fill="lightgray" stroke="black" points="115.75,-161.21 92.25,-161.21 92.25,-142.71 115.75,-142.71 115.75,-161.21"/>
<text text-anchor="middle" x="104" y="-148.66" font-family="Times,serif" font-size="9.00">&#45;2</text>
</g>
<!-- 110 -->
<g id="node27" class="node">
<title>110</title>
<ellipse fill="white" stroke="black" cx="324" cy="-85.85" rx="20.86" ry="20.86"/>
<text text-anchor="middle" x="324" y="-82.55" font-family="Times,serif" font-size="9.00">110</text>
</g>
<!-- &#45;2&#45;&gt;110 -->
<g id="edge12" class="edge">
<title>&#45;2&#45;&gt;110</title>
<path fill="none" stroke="red" stroke-width="0.37" d="M115.92,-146.04C118.86,-144.89 122.03,-143.71 125,-142.71 183.92,-122.92 254.21,-104.34 293.51,-94.39"/>
<polygon fill="red" stroke="red" stroke-width="0.37" points="294.36,-97.79 303.2,-91.95 292.65,-91 294.36,-97.79"/>
</g>
<!-- 111 -->
<g id="node28" class="node">
<title>111</title>
<ellipse fill="white" stroke="black" cx="210" cy="-85.85" rx="20.86" ry="20.86"/>
<text text-anchor="middle" x="210" y="-82.55" font-family="Times,serif" font-size="9.00">111</text>
</g>
<!-- &#45;2&#45;&gt;111 -->
<g id="edge24" class="edge">
<title>&#45;2&#45;&gt;111</title>
<path fill="none" stroke="red" stroke-width="0.18" d="M116.16,-143.61C132.53,-133.71 162.08,-115.83 183.66,-102.78"/>
<polygon fill="red" stroke="red" stroke-width="0.18" points="185.38,-105.83 192.13,-97.66 181.76,-99.84 185.38,-105.83"/>
</g>
<!-- &#45;3 -->
<g id="node3" class="node">
<title>&#45;3</title>
<polygon fill="lightgray" stroke="black" points="157.75,-161.21 134.25,-161.21 134.25,-142.71 157.75,-142.71 157.75,-161.21"/>
<text text-anchor="middle" x="146" y="-148.66" font-family="Times,serif" font-size="9.00">&#45;3</text>
</g>
<!-- 109 -->
<g id="node26" class="node">
<title>109</title>
<ellipse fill="white" stroke="black" cx="414" cy="-85.85" rx="20.86" ry="20.86"/>
<text text-anchor="middle" x="414" y="-82.55" font-family="Times,serif" font-size="9.00">109</text>
</g>
<!-- &#45;3&#45;&gt;109 -->
<g id="edge39" class="edge">
<title>&#45;3&#45;&gt;109</title>
<path fill="none" stroke="green" stroke-width="0.15" d="M157.86,-145.86C160.81,-144.72 163.99,-143.58 167,-142.71 248.29,-119.14 272.1,-128.05 354,-106.71 364.17,-104.06 375.12,-100.62 384.85,-97.34"/>
<polygon fill="green" stroke="green" stroke-width="0.15" points="385.93,-100.67 394.25,-94.1 383.65,-94.05 385.93,-100.67"/>
</g>
<!-- &#45;3&#45;&gt;111 -->
<g id="edge20" class="edge">
<title>&#45;3&#45;&gt;111</title>
<path fill="none" stroke="green" stroke-width="0.34" d="M154.63,-142.31C163.25,-133.68 176.85,-120.06 188.41,-108.48"/>
<polygon fill="green" stroke="green" stroke-width="0.34" points="190.68,-111.15 195.27,-101.6 185.73,-106.21 190.68,-111.15"/>
</g>
<!-- &#45;4 -->
<g id="node4" class="node">
<title>&#45;4</title>
<polygon fill="lightgray" stroke="black" points="823.75,-161.21 800.25,-161.21 800.25,-142.71 823.75,-142.71 823.75,-161.21"/>
<text text-anchor="middle" x="812" y="-148.66" font-family="Times,serif" font-size="9.00">&#45;4</text>
</g>
<!-- &#45;5 -->
<g id="node5" class="node">
<title>&#45;5</title>
<polygon fill="lightgray" stroke="black" points="735.75,-161.21 712.25,-161.21 712.25,-142.71 735.75,-142.71 735.75,-161.21"/>
<text text-anchor="middle" x="724" y="-148.66" font-family="Times,serif" font-size="9.00">&#45;5</text>
</g>
<!-- &#45;5&#45;&gt;112 -->
<g id="edge30" class="edge">
<title>&#45;5&#45;&gt;112</title>
<path fill="none" stroke="green" stroke-width="0.22" d="M712.08,-146.03C709.14,-144.88 705.97,-143.7 703,-142.71 643.25,-122.73 571.89,-104.11 532.29,-94.23"/>
<polygon fill="green" stroke="green" stroke-width="0.22" points="533.34,-90.88 522.8,-91.88 531.66,-97.68 533.34,-90.88"/>
</g>
<!-- &#45;6 -->
<g id="node6" class="node">
<title>&#45;6</title>
<polygon fill="lightgray" stroke="black" points="199.75,-161.21 176.25,-161.21 176.25,-142.71 199.75,-142.71 199.75,-161.21"/>
<text text-anchor="middle" x="188" y="-148.66" font-family="Times,serif" font-size="9.00">&#45;6</text>
</g>
<!-- &#45;6&#45;&gt;109 -->
<g id="edge23" class="edge">
<title>&#45;6&#45;&gt;109</title>
<path fill="none" stroke="red" stroke-width="0.17" d="M199.9,-145.97C202.84,-144.83 206.01,-143.66 209,-142.71 272.26,-122.53 290.21,-125.16 354,-106.71 364.09,-103.79 375.03,-100.28 384.76,-97.02"/>
<polygon fill="red" stroke="red" stroke-width="0.17" points="385.8,-100.37 394.15,-93.84 383.56,-93.74 385.8,-100.37"/>
</g>
<!-- &#45;6&#45;&gt;111 -->
<g id="edge34" class="edge">
<title>&#45;6&#45;&gt;111</title>
<path fill="none" stroke="red" stroke-width="0.52" d="M190.97,-142.31C193.29,-135.54 196.67,-125.69 199.94,-116.17"/>
<polygon fill="red" stroke="red" stroke-width="0.52" points="203.19,-117.46 203.13,-106.87 196.57,-115.19 203.19,-117.46"/>
</g>
<!-- &#45;7 -->
<g id="node7" class="node">
<title>&#45;7</title>
<polygon fill="lightgray" stroke="black" points="513.75,-161.21 490.25,-161.21 490.25,-142.71 513.75,-142.71 513.75,-161.21"/>
<text text-anchor="middle" x="502" y="-148.66" font-family="Times,serif" font-size="9.00">&#45;7</text>
</g>
<!-- &#45;7&#45;&gt;109 -->
<g id="edge44" class="edge">
<title>&#45;7&#45;&gt;109</title>
<path fill="none" stroke="red" stroke-width="0.26" d="M490.13,-142.31C477.03,-132.77 455.56,-117.13 438.76,-104.89"/>
<polygon fill="red" stroke="red" stroke-width="0.26" points="440.93,-102.14 430.79,-99.08 436.81,-107.8 440.93,-102.14"/>
</g>
<!-- &#45;7&#45;&gt;111 -->
<g id="edge2" class="edge">
<title>&#45;7&#45;&gt;111</title>
<path fill="none" stroke="red" stroke-width="0.42" d="M490.14,-145.86C487.19,-144.72 484.01,-143.58 481,-142.71 399.71,-119.14 376.76,-124.45 294,-106.71 276.26,-102.91 256.51,-98.26 240.63,-94.42"/>
<polygon fill="red" stroke="red" stroke-width="0.42" points="241.47,-91.02 230.93,-92.06 239.81,-97.82 241.47,-91.02"/>
</g>
<!-- &#45;7&#45;&gt;112 -->
<g id="edge18" class="edge">
<title>&#45;7&#45;&gt;112</title>
<path fill="none" stroke="red" stroke-width="0.11" d="M502,-142.31C502,-135.81 502,-126.47 502,-117.31"/>
<polygon fill="red" stroke="red" stroke-width="0.11" points="505.5,-117.37 502,-107.37 498.5,-117.37 505.5,-117.37"/>
</g>
<!-- &#45;8 -->
<g id="node8" class="node">
<title>&#45;8</title>
<polygon fill="lightgray" stroke="black" points="865.75,-161.21 842.25,-161.21 842.25,-142.71 865.75,-142.71 865.75,-161.21"/>
<text text-anchor="middle" x="854" y="-148.66" font-family="Times,serif" font-size="9.00">&#45;8</text>
</g>
<!-- &#45;9 -->
<g id="node9" class="node">
<title>&#45;9</title>
<polygon fill="lightgray" stroke="black" points="425.75,-161.21 402.25,-161.21 402.25,-142.71 425.75,-142.71 425.75,-161.21"/>
<text text-anchor="middle" x="414" y="-148.66" font-family="Times,serif" font-size="9.00">&#45;9</text>
</g>
<!-- &#45;9&#45;&gt;109 -->
<g id="edge36" class="edge">
<title>&#45;9&#45;&gt;109</title>
<path fill="none" stroke="red" stroke-width="0.26" d="M414,-142.31C414,-135.81 414,-126.47 414,-117.31"/>
<polygon fill="red" stroke="red" stroke-width="0.26" points="417.5,-117.59 414,-107.59 410.5,-117.59 417.5,-117.59"/>
</g>
<!-- &#45;9&#45;&gt;110 -->
<g id="edge5" class="edge">
<title>&#45;9&#45;&gt;110</title>
<path fill="none" stroke="green" stroke-width="0.12" d="M401.86,-142.31C388.34,-132.68 366.11,-116.84 348.85,-104.55"/>
<polygon fill="green" stroke="green" stroke-width="0.12" points="351.17,-101.91 341,-98.96 347.11,-107.61 351.17,-101.91"/>
</g>
<!-- &#45;10 -->
<g id="node10" class="node">
<title>&#45;10</title>
<polygon fill="lightgray" stroke="black" points="652,-161.21 624,-161.21 624,-142.71 652,-142.71 652,-161.21"/>
<text text-anchor="middle" x="638" y="-148.66" font-family="Times,serif" font-size="9.00">&#45;10</text>
</g>
<!-- &#45;10&#45;&gt;109 -->
<g id="edge26" class="edge">
<title>&#45;10&#45;&gt;109</title>
<path fill="none" stroke="red" stroke-width="0.28" d="M623.96,-145.68C621.02,-144.64 617.92,-143.6 615,-142.71 552.3,-123.62 534.83,-125.34 472,-106.71 462.58,-103.92 452.42,-100.56 443.27,-97.4"/>
<polygon fill="red" stroke="red" stroke-width="0.28" points="444.47,-94.11 433.87,-94.11 442.15,-100.72 444.47,-94.11"/>
</g>
<!-- &#45;10&#45;&gt;112 -->
<g id="edge9" class="edge">
<title>&#45;10&#45;&gt;112</title>
<path fill="none" stroke="red" stroke-width="0.36" d="M623.7,-144.22C601.62,-133.81 558.79,-113.62 530.29,-100.18"/>
<polygon fill="red" stroke="red" stroke-width="0.36" points="531.88,-97.07 521.35,-95.97 528.9,-103.4 531.88,-97.07"/>
</g>
<!-- &#45;11 -->
<g id="node11" class="node">
<title>&#45;11</title>
<polygon fill="lightgray" stroke="black" points="782,-161.21 754,-161.21 754,-142.71 782,-142.71 782,-161.21"/>
<text text-anchor="middle" x="768" y="-148.66" font-family="Times,serif" font-size="9.00">&#45;11</text>
</g>
<!-- &#45;11&#45;&gt;112 -->
<g id="edge11" class="edge">
<title>&#45;11&#45;&gt;112</title>
<path fill="none" stroke="red" stroke-width="0.18" d="M753.98,-145.63C751.03,-144.6 747.93,-143.57 745,-142.71 669.66,-120.62 579.1,-101.79 532.7,-92.69"/>
<polygon fill="red" stroke="red" stroke-width="0.18" points="533.45,-89.27 522.97,-90.8 532.11,-96.14 533.45,-89.27"/>
</g>
<!-- &#45;12 -->
<g id="node12" class="node">
<title>&#45;12</title>
<polygon fill="lightgray" stroke="black" points="74,-161.21 46,-161.21 46,-142.71 74,-142.71 74,-161.21"/>
<text text-anchor="middle" x="60" y="-148.66" font-family="Times,serif" font-size="9.00">&#45;12</text>
</g>
<!-- &#45;12&#45;&gt;110 -->
<g id="edge8" class="edge">
<title>&#45;12&#45;&gt;110</title>
<path fill="none" stroke="red" stroke-width="0.21" d="M74.02,-145.63C76.97,-144.6 80.07,-143.57 83,-142.71 151.7,-122.59 170.28,-122.95 240,-106.71 257.84,-102.56 277.79,-97.84 293.77,-94.05"/>
<polygon fill="red" stroke="red" stroke-width="0.21" points="294.42,-97.49 303.34,-91.78 292.8,-90.68 294.42,-97.49"/>
</g>
<!-- &#45;12&#45;&gt;111 -->
<g id="edge28" class="edge">
<title>&#45;12&#45;&gt;111</title>
<path fill="none" stroke="green" stroke-width="0.43" d="M74.38,-144.81C98.86,-134.35 149.08,-112.89 181.07,-99.22"/>
<polygon fill="green" stroke="green" stroke-width="0.43" points="182.34,-102.48 190.16,-95.33 179.59,-96.04 182.34,-102.48"/>
</g>
<!-- &#45;13 -->
<g id="node13" class="node">
<title>&#45;13</title>
<polygon fill="lightgray" stroke="black" points="246,-161.21 218,-161.21 218,-142.71 246,-142.71 246,-161.21"/>
<text text-anchor="middle" x="232" y="-148.66" font-family="Times,serif" font-size="9.00">&#45;13</text>
</g>
<!-- &#45;13&#45;&gt;109 -->
<g id="edge27" class="edge">
<title>&#45;13&#45;&gt;109</title>
<path fill="none" stroke="green" stroke-width="0.13" d="M246.1,-145.88C249.04,-144.83 252.12,-143.73 255,-142.71 300.28,-126.64 352.9,-108.2 384.81,-97.04"/>
<polygon fill="green" stroke="green" stroke-width="0.13" points="385.94,-100.36 394.22,-93.75 383.63,-93.75 385.94,-100.36"/>
</g>
<!-- &#45;13&#45;&gt;111 -->
<g id="edge13" class="edge">
<title>&#45;13&#45;&gt;111</title>
<path fill="none" stroke="red" stroke-width="0.22" d="M229.03,-142.31C226.68,-135.47 223.26,-125.48 219.96,-115.87"/>
<polygon fill="red" stroke="red" stroke-width="0.22" points="223.28,-114.76 216.72,-106.44 216.66,-117.03 223.28,-114.76"/>
</g>
<!-- &#45;14 -->
<g id="node14" class="node">
<title>&#45;14</title>
<polygon fill="lightgray" stroke="black" points="28,-161.21 0,-161.21 0,-142.71 28,-142.71 28,-161.21"/>
<text text-anchor="middle" x="14" y="-148.66" font-family="Times,serif" font-size="9.00">&#45;14</text>
</g>
<!-- &#45;14&#45;&gt;111 -->
<g id="edge25" class="edge">
<title>&#45;14&#45;&gt;111</title>
<path fill="none" stroke="red" stroke-width="0.27" d="M28.08,-145.83C31.02,-144.78 34.11,-143.7 37,-142.71 86.95,-125.69 145.45,-107.08 180.03,-96.21"/>
<polygon fill="red" stroke="red" stroke-width="0.27" points="181.07,-99.55 189.57,-93.22 178.98,-92.87 181.07,-99.55"/>
</g>
<!-- &#45;15 -->
<g id="node15" class="node">
<title>&#45;15</title>
<polygon fill="lightgray" stroke="black" points="606,-161.21 578,-161.21 578,-142.71 606,-142.71 606,-161.21"/>
<text text-anchor="middle" x="592" y="-148.66" font-family="Times,serif" font-size="9.00">&#45;15</text>
</g>
<!-- &#45;15&#45;&gt;109 -->
<g id="edge21" class="edge">
<title>&#45;15&#45;&gt;109</title>
<path fill="none" stroke="green" stroke-width="0.34" d="M577.73,-145.82C548.65,-135.35 482.01,-111.34 443.3,-97.41"/>
<polygon fill="green" stroke="green" stroke-width="0.34" points="444.73,-94.2 434.13,-94.1 442.35,-100.78 444.73,-94.2"/>
</g>
<!-- &#45;16 -->
<g id="node16" class="node">
<title>&#45;16</title>
<polygon fill="lightgray" stroke="black" points="472,-161.21 444,-161.21 444,-142.71 472,-142.71 472,-161.21"/>
<text text-anchor="middle" x="458" y="-148.66" font-family="Times,serif" font-size="9.00">&#45;16</text>
</g>
<!-- &#45;16&#45;&gt;109 -->
<g id="edge33" class="edge">
<title>&#45;16&#45;&gt;109</title>
<path fill="none" stroke="green" stroke-width="0.25" d="M452.07,-142.31C446.74,-134.55 438.64,-122.75 431.28,-112.03"/>
<polygon fill="green" stroke="green" stroke-width="0.25" points="434.37,-110.34 425.82,-104.07 428.59,-114.3 434.37,-110.34"/>
</g>
<!-- &#45;17 -->
<g id="node17" class="node">
<title>&#45;17</title>
<polygon fill="lightgray" stroke="black" points="338,-161.21 310,-161.21 310,-142.71 338,-142.71 338,-161.21"/>
<text text-anchor="middle" x="324" y="-148.66" font-family="Times,serif" font-size="9.00">&#45;17</text>
</g>
<!-- &#45;17&#45;&gt;109 -->
<g id="edge17" class="edge">
<title>&#45;17&#45;&gt;109</title>
<path fill="none" stroke="green" stroke-width="0.21" d="M336.14,-142.31C349.66,-132.68 371.89,-116.84 389.15,-104.55"/>
<polygon fill="green" stroke="green" stroke-width="0.21" points="390.79,-107.68 396.9,-99.03 386.73,-101.98 390.79,-107.68"/>
</g>
<!-- &#45;17&#45;&gt;110 -->
<g id="edge42" class="edge">
<title>&#45;17&#45;&gt;110</title>
<path fill="none" stroke="red" stroke-width="0.12" d="M324,-142.31C324,-135.81 324,-126.47 324,-117.31"/>
<polygon fill="red" stroke="red" stroke-width="0.12" points="327.5,-117.38 324,-107.38 320.5,-117.38 327.5,-117.38"/>
</g>
<!-- &#45;18 -->
<g id="node18" class="node">
<title>&#45;18</title>
<polygon fill="lightgray" stroke="black" points="384,-161.21 356,-161.21 356,-142.71 384,-142.71 384,-161.21"/>
<text text-anchor="middle" x="370" y="-148.66" font-family="Times,serif" font-size="9.00">&#45;18</text>
</g>
<!-- &#45;18&#45;&gt;109 -->
<g id="edge6" class="edge">
<title>&#45;18&#45;&gt;109</title>
<path fill="none" stroke="green" stroke-width="0.19" d="M375.93,-142.31C381.26,-134.55 389.36,-122.75 396.72,-112.03"/>
<polygon fill="green" stroke="green" stroke-width="0.19" points="399.46,-114.23 402.23,-104 393.69,-110.26 399.46,-114.23"/>
</g>
<!-- &#45;18&#45;&gt;110 -->
<g id="edge37" class="edge">
<title>&#45;18&#45;&gt;110</title>
<path fill="none" stroke="red" stroke-width="0.21" d="M363.8,-142.31C358.18,-134.49 349.64,-122.58 341.9,-111.8"/>
<polygon fill="red" stroke="red" stroke-width="0.21" points="344.8,-109.84 336.13,-103.76 339.12,-113.92 344.8,-109.84"/>
</g>
<!-- &#45;18&#45;&gt;111 -->
<g id="edge35" class="edge">
<title>&#45;18&#45;&gt;111</title>
<path fill="none" stroke="red" stroke-width="0.4" d="M355.52,-145.16C329.19,-134.61 273.05,-112.11 238.71,-98.35"/>
<polygon fill="red" stroke="red" stroke-width="0.4" points="240.37,-95.25 229.78,-94.78 237.76,-101.75 240.37,-95.25"/>
</g>
<!-- &#45;18&#45;&gt;112 -->
<g id="edge1" class="edge">
<title>&#45;18&#45;&gt;112</title>
<path fill="none" stroke="green" stroke-width="0.34" d="M384.38,-143.98C405.8,-133.57 446.52,-113.8 473.96,-100.47"/>
<polygon fill="green" stroke="green" stroke-width="0.34" points="475.49,-103.62 482.96,-96.1 472.43,-97.32 475.49,-103.62"/>
</g>
<!-- &#45;19 -->
<g id="node19" class="node">
<title>&#45;19</title>
<polygon fill="lightgray" stroke="black" points="292,-161.21 264,-161.21 264,-142.71 292,-142.71 292,-161.21"/>
<text text-anchor="middle" x="278" y="-148.66" font-family="Times,serif" font-size="9.00">&#45;19</text>
</g>
<!-- &#45;19&#45;&gt;110 -->
<g id="edge41" class="edge">
<title>&#45;19&#45;&gt;110</title>
<path fill="none" stroke="red" stroke-width="0.33" d="M284.2,-142.31C289.82,-134.49 298.36,-122.58 306.1,-111.8"/>
<polygon fill="red" stroke="red" stroke-width="0.33" points="308.78,-114.07 311.76,-103.9 303.09,-109.99 308.78,-114.07"/>
</g>
<!-- &#45;20 -->
<g id="node20" class="node">
<title>&#45;20</title>
<polygon fill="lightgray" stroke="black" points="560,-161.21 532,-161.21 532,-142.71 560,-142.71 560,-161.21"/>
<text text-anchor="middle" x="546" y="-148.66" font-family="Times,serif" font-size="9.00">&#45;20</text>
</g>
<!-- &#45;20&#45;&gt;109 -->
<g id="edge14" class="edge">
<title>&#45;20&#45;&gt;109</title>
<path fill="none" stroke="red" stroke-width="0.2" d="M531.62,-143.98C510.1,-133.53 469.12,-113.62 441.67,-100.29"/>
<polygon fill="red" stroke="red" stroke-width="0.2" points="443.38,-97.23 432.86,-96.01 440.32,-103.53 443.38,-97.23"/>
</g>
<!-- 0 -->
<g id="node21" class="node">
<title>0</title>
<ellipse fill="lightblue" stroke="black" cx="370" cy="-14.5" rx="14.5" ry="14.5"/>
<text text-anchor="middle" x="370" y="-11.2" font-family="Times,serif" font-size="9.00">0</text>
</g>
<!-- 0&#45;&gt;0 -->
<g id="edge32" class="edge">
<title>0&#45;&gt;0</title>
<path fill="none" stroke="green" stroke-width="0.14" d="M380.32,-24.94C390.81,-31.08 402.5,-27.6 402.5,-14.5 402.5,-5.28 396.72,-0.83 389.64,-1.13"/>
<polygon fill="green" stroke="green" stroke-width="0.14" points="389.01,2.34 380.52,-3.99 391.11,-4.34 389.01,2.34"/>
</g>
<!-- 1 -->
<g id="node22" class="node">
<title>1</title>
<ellipse fill="lightblue" stroke="black" cx="435" cy="-14.5" rx="14.5" ry="14.5"/>
<text text-anchor="middle" x="435" y="-11.2" font-family="Times,serif" font-size="9.00">1</text>
</g>
<!-- 2 -->
<g id="node23" class="node">
<title>2</title>
<ellipse fill="lightblue" stroke="black" cx="305" cy="-14.5" rx="14.5" ry="14.5"/>
<text text-anchor="middle" x="305" y="-11.2" font-family="Times,serif" font-size="9.00">2</text>
</g>
<!-- 2&#45;&gt;2 -->
<g id="edge16" class="edge">
<title>2&#45;&gt;2</title>
<path fill="none" stroke="red" stroke-width="0.37" d="M315.32,-24.94C325.81,-31.08 337.5,-27.6 337.5,-14.5 337.5,-5.49 331.97,-1.03 325.11,-1.12"/>
<polygon fill="red" stroke="red" stroke-width="0.37" points="324.42,2.33 315.85,-3.9 326.43,-4.38 324.42,2.33"/>
</g>
<!-- 3 -->
<g id="node24" class="node">
<title>3</title>
<ellipse fill="lightblue" stroke="black" cx="258" cy="-14.5" rx="14.5" ry="14.5"/>
<text text-anchor="middle" x="258" y="-11.2" font-family="Times,serif" font-size="9.00">3</text>
</g>
<!-- 4 -->
<g id="node25" class="node">
<title>4</title>
<ellipse fill="lightblue" stroke="black" cx="502" cy="-14.5" rx="14.5" ry="14.5"/>
<text text-anchor="middle" x="502" y="-11.2" font-family="Times,serif" font-size="9.00">4</text>
</g>
<!-- 109&#45;&gt;1 -->
<g id="edge19" class="edge">
<title>109&#45;&gt;1</title>
<path fill="none" stroke="red" stroke-width="0.17" d="M419.85,-65.53C422.4,-57.12 425.4,-47.2 428.06,-38.41"/>
<polygon fill="red" stroke="red" stroke-width="0.17" points="431.35,-39.62 430.9,-29.03 424.65,-37.59 431.35,-39.62"/>
</g>
<!-- 109&#45;&gt;3 -->
<g id="edge10" class="edge">
<title>109&#45;&gt;3</title>
<path fill="none" stroke="green" stroke-width="0.19" d="M394.46,-77.38C368.42,-67.24 321.09,-48.18 282,-28.99 281.01,-28.51 280.01,-28 279,-27.48"/>
<polygon fill="green" stroke="green" stroke-width="0.19" points="280.78,-24.46 270.32,-22.77 277.44,-30.62 280.78,-24.46"/>
</g>
<!-- 110&#45;&gt;0 -->
<g id="edge38" class="edge">
<title>110&#45;&gt;0</title>
<path fill="none" stroke="red" stroke-width="0.11" d="M335.14,-68.06C341.63,-58.26 349.87,-45.84 356.71,-35.53"/>
<polygon fill="red" stroke="red" stroke-width="0.11" points="359.57,-37.55 362.18,-27.28 353.74,-33.68 359.57,-37.55"/>
</g>
<!-- 110&#45;&gt;1 -->
<g id="edge3" class="edge">
<title>110&#45;&gt;1</title>
<path fill="none" stroke="green" stroke-width="0.19" d="M341.34,-74.01C361.1,-61.67 393.37,-41.51 414.39,-28.37"/>
<polygon fill="green" stroke="green" stroke-width="0.19" points="416.03,-31.47 422.66,-23.21 412.33,-25.54 416.03,-31.47"/>
</g>
<!-- 110&#45;&gt;3 -->
<g id="edge31" class="edge">
<title>110&#45;&gt;3</title>
<path fill="none" stroke="green" stroke-width="0.23" d="M310,-70.14C299.67,-59.29 285.57,-44.47 274.66,-33.01"/>
<polygon fill="green" stroke="green" stroke-width="0.23" points="277.37,-30.78 267.94,-25.94 272.3,-35.6 277.37,-30.78"/>
</g>
<!-- 111&#45;&gt;2 -->
<g id="edge4" class="edge">
<title>111&#45;&gt;2</title>
<path fill="none" stroke="green" stroke-width="0.4" d="M226.55,-72.77C242.84,-60.87 267.75,-42.69 285.12,-30.01"/>
<polygon fill="green" stroke="green" stroke-width="0.4" points="286.92,-33.03 292.93,-24.31 282.79,-27.38 286.92,-33.03"/>
</g>
<!-- 111&#45;&gt;3 -->
<g id="edge29" class="edge">
<title>111&#45;&gt;3</title>
<path fill="none" stroke="green" stroke-width="0.4" d="M221.62,-68.06C228.33,-58.36 236.82,-46.09 243.92,-35.85"/>
<polygon fill="green" stroke="green" stroke-width="0.4" points="246.79,-37.85 249.6,-27.64 241.03,-33.87 246.79,-37.85"/>
</g>
<!-- 112&#45;&gt;0 -->
<g id="edge15" class="edge">
<title>112&#45;&gt;0</title>
<path fill="none" stroke="red" stroke-width="0.26" d="M483.65,-75.21C459.53,-62.53 417.22,-40.31 391.59,-26.84"/>
<polygon fill="red" stroke="red" stroke-width="0.26" points="393.49,-23.88 383.01,-22.33 390.24,-30.08 393.49,-23.88"/>
</g>
<!-- 112&#45;&gt;1 -->
<g id="edge40" class="edge">
<title>112&#45;&gt;1</title>
<path fill="none" stroke="green" stroke-width="0.21" d="M487.79,-70.14C477.3,-59.29 462.99,-44.47 451.92,-33.01"/>
<polygon fill="green" stroke="green" stroke-width="0.21" points="454.54,-30.68 445.07,-25.92 449.5,-35.55 454.54,-30.68"/>
</g>
<!-- 112&#45;&gt;2 -->
<g id="edge22" class="edge">
<title>112&#45;&gt;2</title>
<path fill="none" stroke="red" stroke-width="0.52" d="M482.39,-77.95C445.92,-65.11 367.8,-37.6 328.54,-23.78"/>
<polygon fill="red" stroke="red" stroke-width="0.52" points="329.91,-20.55 319.31,-20.53 327.58,-27.16 329.91,-20.55"/>
</g>
<!-- 112&#45;&gt;4 -->
<g id="edge7" class="edge">
<title>112&#45;&gt;4</title>
<path fill="none" stroke="green" stroke-width="0.54" d="M502,-64.79C502,-57.07 502,-48.16 502,-40.06"/>
<polygon fill="green" stroke="green" stroke-width="0.54" points="505.5,-40.17 502,-30.17 498.5,-40.17 505.5,-40.17"/>
</g>
</g>
</svg>
