<?xml version="1.0" encoding="UTF-8" standalone="no"?>
<!DOCTYPE svg PUBLIC "-//W3C//DTD SVG 1.1//EN"
 "http://www.w3.org/Graphics/SVG/1.1/DTD/svg11.dtd">
<!-- Generated by graphviz version 12.1.1 (20240910.0053)
 -->
<!-- Pages: 1 -->
<svg width="920pt" height="180pt"
 viewBox="0.00 0.00 920.50 179.70" xmlns="http://www.w3.org/2000/svg" xmlns:xlink="http://www.w3.org/1999/xlink">
<g id="graph0" class="graph" transform="scale(1 1) rotate(0) translate(4 175.7)">
<polygon fill="white" stroke="none" points="-4,4 -4,-175.7 916.5,-175.7 916.5,4 -4,4"/>
<!-- &#45;1 -->
<g id="node1" class="node">
<title>&#45;1</title>
<polygon fill="lightgray" stroke="black" points="467.75,-166.46 444.25,-166.46 444.25,-147.96 467.75,-147.96 467.75,-166.46"/>
<text text-anchor="middle" x="456" y="-153.91" font-family="Times,serif" font-size="9.00">&#45;1</text>
</g>
<!-- 181 -->
<g id="node26" class="node">
<title>181</title>
<ellipse fill="white" stroke="black" cx="198" cy="-85.85" rx="20.86" ry="20.86"/>
<text text-anchor="middle" x="198" y="-82.55" font-family="Times,serif" font-size="9.00">181</text>
</g>
<!-- &#45;1&#45;&gt;181 -->
<g id="edge15" class="edge">
<title>&#45;1&#45;&gt;181</title>
<path fill="none" stroke="green" stroke-width="0.22" d="M443.95,-147.48C441.11,-145.71 438.03,-144 435,-142.71 364.6,-112.84 275.35,-97.29 229.04,-90.74"/>
<polygon fill="green" stroke="green" stroke-width="0.22" points="229.74,-87.3 219.36,-89.41 228.79,-94.24 229.74,-87.3"/>
</g>
<!-- 182 -->
<g id="node27" class="node">
<title>182</title>
<ellipse fill="white" stroke="black" cx="368" cy="-85.85" rx="20.86" ry="20.86"/>
<text text-anchor="middle" x="368" y="-82.55" font-family="Times,serif" font-size="9.00">182</text>
</g>
<!-- &#45;1&#45;&gt;182 -->
<g id="edge25" class="edge">
<title>&#45;1&#45;&gt;182</title>
<path fill="none" stroke="red" stroke-width="0.23" d="M445.21,-147.7C432.11,-137.38 409.64,-119.67 392.3,-106"/>
<polygon fill="red" stroke="red" stroke-width="0.23" points="394.56,-103.33 384.54,-99.89 390.23,-108.83 394.56,-103.33"/>
</g>
<!-- 183 -->
<g id="node28" class="node">
<title>183</title>
<ellipse fill="white" stroke="black" cx="654" cy="-85.85" rx="20.86" ry="20.86"/>
<text text-anchor="middle" x="654" y="-82.55" font-family="Times,serif" font-size="9.00">183</text>
</g>
<!-- &#45;1&#45;&gt;183 -->
<g id="edge32" class="edge">
<title>&#45;1&#45;&gt;183</title>
<path fill="none" stroke="red" stroke-width="0.13" d="M468.12,-147.65C470.96,-145.87 474.02,-144.11 477,-142.71 526.26,-119.61 587.53,-102.69 623.54,-93.84"/>
<polygon fill="red" stroke="red" stroke-width="0.13" points="624.34,-97.24 633.24,-91.5 622.7,-90.44 624.34,-97.24"/>
</g>
<!-- 184 -->
<g id="node29" class="node">
<title>184</title>
<ellipse fill="white" stroke="black" cx="477" cy="-85.85" rx="20.86" ry="20.86"/>
<text text-anchor="middle" x="477" y="-82.55" font-family="Times,serif" font-size="9.00">184</text>
</g>
<!-- &#45;1&#45;&gt;184 -->
<g id="edge11" class="edge">
<title>&#45;1&#45;&gt;184</title>
<path fill="none" stroke="red" stroke-width="0.15" d="M458.58,-147.7C460.98,-139.76 464.71,-127.43 468.19,-115.94"/>
<polygon fill="red" stroke="red" stroke-width="0.15" points="471.53,-117 471.08,-106.41 464.83,-114.97 471.53,-117"/>
</g>
<!-- &#45;2 -->
<g id="node2" class="node">
<title>&#45;2</title>
<polygon fill="lightgray" stroke="black" points="865.75,-166.46 842.25,-166.46 842.25,-147.96 865.75,-147.96 865.75,-166.46"/>
<text text-anchor="middle" x="854" y="-153.91" font-family="Times,serif" font-size="9.00">&#45;2</text>
</g>
<!-- &#45;3 -->
<g id="node3" class="node">
<title>&#45;3</title>
<polygon fill="lightgray" stroke="black" points="823.75,-166.46 800.25,-166.46 800.25,-147.96 823.75,-147.96 823.75,-166.46"/>
<text text-anchor="middle" x="812" y="-153.91" font-family="Times,serif" font-size="9.00">&#45;3</text>
</g>
<!-- &#45;3&#45;&gt;183 -->
<g id="edge12" class="edge">
<title>&#45;3&#45;&gt;183</title>
<path fill="none" stroke="red" stroke-width="0.15" d="M799.79,-147.82C796.96,-146.04 793.92,-144.23 791,-142.71 754.91,-123.96 711.06,-107.04 682.85,-96.85"/>
<polygon fill="red" stroke="red" stroke-width="0.15" points="684.36,-93.68 673.77,-93.61 682.01,-100.27 684.36,-93.68"/>
</g>
<!-- &#45;4 -->
<g id="node4" class="node">
<title>&#45;4</title>
<polygon fill="lightgray" stroke="black" points="253.75,-166.46 230.25,-166.46 230.25,-147.96 253.75,-147.96 253.75,-166.46"/>
<text text-anchor="middle" x="242" y="-153.91" font-family="Times,serif" font-size="9.00">&#45;4</text>
</g>
<!-- &#45;4&#45;&gt;182 -->
<g id="edge26" class="edge">
<title>&#45;4&#45;&gt;182</title>
<path fill="none" stroke="green" stroke-width="0.38" d="M253.89,-148.33C256.84,-146.44 260.01,-144.46 263,-142.71 288.8,-127.59 319.01,-111.7 340.39,-100.75"/>
<polygon fill="green" stroke="green" stroke-width="0.38" points="341.71,-104.01 349.03,-96.35 338.53,-97.77 341.71,-104.01"/>
</g>
<!-- &#45;5 -->
<g id="node5" class="node">
<title>&#45;5</title>
<polygon fill="lightgray" stroke="black" points="295.75,-166.46 272.25,-166.46 272.25,-147.96 295.75,-147.96 295.75,-166.46"/>
<text text-anchor="middle" x="284" y="-153.91" font-family="Times,serif" font-size="9.00">&#45;5</text>
</g>
<!-- &#45;5&#45;&gt;181 -->
<g id="edge23" class="edge">
<title>&#45;5&#45;&gt;181</title>
<path fill="none" stroke="red" stroke-width="0.17" d="M273.45,-147.7C260.66,-137.38 238.69,-119.67 221.75,-106"/>
<polygon fill="red" stroke="red" stroke-width="0.17" points="224.08,-103.39 214.1,-99.83 219.68,-108.83 224.08,-103.39"/>
</g>
<!-- &#45;5&#45;&gt;182 -->
<g id="edge28" class="edge">
<title>&#45;5&#45;&gt;182</title>
<path fill="none" stroke="red" stroke-width="0.13" d="M294.3,-147.7C306.72,-137.44 328,-119.88 344.5,-106.25"/>
<polygon fill="red" stroke="red" stroke-width="0.13" points="346.52,-109.12 352.01,-100.06 342.07,-103.72 346.52,-109.12"/>
</g>
<!-- &#45;5&#45;&gt;184 -->
<g id="edge6" class="edge">
<title>&#45;5&#45;&gt;184</title>
<path fill="none" stroke="green" stroke-width="0.32" d="M296.13,-147.66C298.96,-145.88 302.02,-144.12 305,-142.71 351.87,-120.51 366.68,-122.74 416,-106.71 426.22,-103.39 437.4,-99.75 447.37,-96.51"/>
<polygon fill="green" stroke="green" stroke-width="0.32" points="448.34,-99.87 456.76,-93.45 446.17,-93.21 448.34,-99.87"/>
</g>
<!-- &#45;6 -->
<g id="node6" class="node">
<title>&#45;6</title>
<polygon fill="lightgray" stroke="black" points="337.75,-166.46 314.25,-166.46 314.25,-147.96 337.75,-147.96 337.75,-166.46"/>
<text text-anchor="middle" x="326" y="-153.91" font-family="Times,serif" font-size="9.00">&#45;6</text>
</g>
<!-- &#45;6&#45;&gt;181 -->
<g id="edge22" class="edge">
<title>&#45;6&#45;&gt;181</title>
<path fill="none" stroke="green" stroke-width="0.31" d="M314.12,-148.31C311.17,-146.42 308,-144.45 305,-142.71 278.6,-127.38 247.59,-111.41 225.78,-100.49"/>
<polygon fill="green" stroke="green" stroke-width="0.31" points="227.37,-97.37 216.86,-96.05 224.26,-103.64 227.37,-97.37"/>
</g>
<!-- &#45;6&#45;&gt;184 -->
<g id="edge24" class="edge">
<title>&#45;6&#45;&gt;184</title>
<path fill="none" stroke="green" stroke-width="0.32" d="M338.23,-147.87C341.06,-146.07 344.09,-144.26 347,-142.71 380.66,-124.82 421.28,-108.1 448.05,-97.7"/>
<polygon fill="green" stroke="green" stroke-width="0.32" points="449.06,-101.06 457.14,-94.2 446.55,-94.52 449.06,-101.06"/>
</g>
<!-- &#45;7 -->
<g id="node7" class="node">
<title>&#45;7</title>
<polygon fill="lightgray" stroke="black" points="379.75,-166.46 356.25,-166.46 356.25,-147.96 379.75,-147.96 379.75,-166.46"/>
<text text-anchor="middle" x="368" y="-153.91" font-family="Times,serif" font-size="9.00">&#45;7</text>
</g>
<!-- &#45;7&#45;&gt;181 -->
<g id="edge10" class="edge">
<title>&#45;7&#45;&gt;181</title>
<path fill="none" stroke="red" stroke-width="0.37" d="M355.82,-147.76C352.99,-145.98 349.94,-144.19 347,-142.71 307.24,-122.77 258.55,-105.81 227.89,-95.98"/>
<polygon fill="red" stroke="red" stroke-width="0.37" points="228.97,-92.65 218.38,-92.97 226.86,-99.32 228.97,-92.65"/>
</g>
<!-- &#45;7&#45;&gt;182 -->
<g id="edge37" class="edge">
<title>&#45;7&#45;&gt;182</title>
<path fill="none" stroke="green" stroke-width="0.22" d="M368,-147.7C368,-140.08 368,-128.43 368,-117.35"/>
<polygon fill="green" stroke="green" stroke-width="0.22" points="371.5,-117.39 368,-107.39 364.5,-117.39 371.5,-117.39"/>
</g>
<!-- &#45;7&#45;&gt;184 -->
<g id="edge41" class="edge">
<title>&#45;7&#45;&gt;184</title>
<path fill="none" stroke="green" stroke-width="0.19" d="M379.99,-148.49C382.93,-146.59 386.08,-144.58 389,-142.71 409.78,-129.44 433.37,-114.47 450.89,-103.37"/>
<polygon fill="green" stroke="green" stroke-width="0.19" points="452.64,-106.41 459.21,-98.1 448.89,-100.49 452.64,-106.41"/>
</g>
<!-- &#45;8 -->
<g id="node8" class="node">
<title>&#45;8</title>
<polygon fill="lightgray" stroke="black" points="509.75,-166.46 486.25,-166.46 486.25,-147.96 509.75,-147.96 509.75,-166.46"/>
<text text-anchor="middle" x="498" y="-153.91" font-family="Times,serif" font-size="9.00">&#45;8</text>
</g>
<!-- &#45;8&#45;&gt;182 -->
<g id="edge31" class="edge">
<title>&#45;8&#45;&gt;182</title>
<path fill="none" stroke="red" stroke-width="0.5" d="M486.13,-148.29C483.18,-146.41 480,-144.44 477,-142.71 450.15,-127.25 418.56,-111.3 396.32,-100.42"/>
<polygon fill="red" stroke="red" stroke-width="0.5" points="398.02,-97.35 387.5,-96.13 394.96,-103.65 398.02,-97.35"/>
</g>
<!-- &#45;8&#45;&gt;183 -->
<g id="edge33" class="edge">
<title>&#45;8&#45;&gt;183</title>
<path fill="none" stroke="green" stroke-width="0.21" d="M510.22,-147.84C513.04,-146.05 516.08,-144.24 519,-142.71 554.23,-124.29 596.93,-107.48 624.75,-97.22"/>
<polygon fill="green" stroke="green" stroke-width="0.21" points="625.79,-100.57 633.99,-93.85 623.39,-93.99 625.79,-100.57"/>
</g>
<!-- &#45;8&#45;&gt;184 -->
<g id="edge19" class="edge">
<title>&#45;8&#45;&gt;184</title>
<path fill="none" stroke="red" stroke-width="0.46" d="M495.42,-147.7C493.04,-139.84 489.36,-127.68 485.91,-116.29"/>
<polygon fill="red" stroke="red" stroke-width="0.46" points="489.31,-115.42 483.06,-106.86 482.61,-117.45 489.31,-115.42"/>
</g>
<!-- &#45;9 -->
<g id="node9" class="node">
<title>&#45;9</title>
<polygon fill="lightgray" stroke="black" points="643.75,-166.46 620.25,-166.46 620.25,-147.96 643.75,-147.96 643.75,-166.46"/>
<text text-anchor="middle" x="632" y="-153.91" font-family="Times,serif" font-size="9.00">&#45;9</text>
</g>
<!-- &#45;9&#45;&gt;183 -->
<g id="edge29" class="edge">
<title>&#45;9&#45;&gt;183</title>
<path fill="none" stroke="red" stroke-width="0.12" d="M634.7,-147.7C637.24,-139.68 641.21,-127.18 644.88,-115.59"/>
<polygon fill="red" stroke="red" stroke-width="0.12" points="648.12,-116.96 647.81,-106.37 641.45,-114.85 648.12,-116.96"/>
</g>
<!-- &#45;9&#45;&gt;184 -->
<g id="edge7" class="edge">
<title>&#45;9&#45;&gt;184</title>
<path fill="none" stroke="green" stroke-width="0.11" d="M619.78,-147.84C616.95,-146.05 613.92,-144.24 611,-142.71 576.01,-124.36 533.63,-107.54 506.03,-97.25"/>
<polygon fill="green" stroke="green" stroke-width="0.11" points="507.32,-94 496.72,-93.83 504.9,-100.57 507.32,-94"/>
</g>
<!-- &#45;10 -->
<g id="node10" class="node">
<title>&#45;10</title>
<polygon fill="lightgray" stroke="black" points="690,-166.46 662,-166.46 662,-147.96 690,-147.96 690,-166.46"/>
<text text-anchor="middle" x="676" y="-153.91" font-family="Times,serif" font-size="9.00">&#45;10</text>
</g>
<!-- &#45;10&#45;&gt;183 -->
<g id="edge39" class="edge">
<title>&#45;10&#45;&gt;183</title>
<path fill="none" stroke="red" stroke-width="0.21" d="M673.3,-147.7C670.78,-139.76 666.87,-127.43 663.23,-115.94"/>
<polygon fill="red" stroke="red" stroke-width="0.21" points="666.59,-114.98 660.23,-106.5 659.92,-117.09 666.59,-114.98"/>
</g>
<!-- &#45;10&#45;&gt;184 -->
<g id="edge17" class="edge">
<title>&#45;10&#45;&gt;184</title>
<path fill="none" stroke="green" stroke-width="0.15" d="M662.64,-147.7C659.55,-145.91 656.21,-144.14 653,-142.71 603.56,-120.69 542.78,-103.42 507.12,-94.21"/>
<polygon fill="green" stroke="green" stroke-width="0.15" points="508.11,-90.85 497.55,-91.78 506.38,-97.63 508.11,-90.85"/>
</g>
<!-- &#45;11 -->
<g id="node11" class="node">
<title>&#45;11</title>
<polygon fill="lightgray" stroke="black" points="736,-166.46 708,-166.46 708,-147.96 736,-147.96 736,-166.46"/>
<text text-anchor="middle" x="722" y="-153.91" font-family="Times,serif" font-size="9.00">&#45;11</text>
</g>
<!-- &#45;11&#45;&gt;183 -->
<g id="edge3" class="edge">
<title>&#45;11&#45;&gt;183</title>
<path fill="none" stroke="green" stroke-width="0.19" d="M713.66,-147.7C704.15,-138 688.22,-121.75 675.21,-108.49"/>
<polygon fill="green" stroke="green" stroke-width="0.19" points="678.05,-106.38 668.55,-101.69 673.05,-111.28 678.05,-106.38"/>
</g>
<!-- &#45;11&#45;&gt;184 -->
<g id="edge43" class="edge">
<title>&#45;11&#45;&gt;184</title>
<path fill="none" stroke="green" stroke-width="0.44" d="M708.71,-147.55C705.61,-145.77 702.26,-144.04 699,-142.71 633.56,-115.92 551.85,-99.39 508.09,-91.79"/>
<polygon fill="green" stroke="green" stroke-width="0.44" points="508.92,-88.38 498.48,-90.17 507.75,-95.29 508.92,-88.38"/>
</g>
<!-- &#45;12 -->
<g id="node12" class="node">
<title>&#45;12</title>
<polygon fill="lightgray" stroke="black" points="166,-166.46 138,-166.46 138,-147.96 166,-147.96 166,-166.46"/>
<text text-anchor="middle" x="152" y="-153.91" font-family="Times,serif" font-size="9.00">&#45;12</text>
</g>
<!-- &#45;12&#45;&gt;181 -->
<g id="edge1" class="edge">
<title>&#45;12&#45;&gt;181</title>
<path fill="none" stroke="red" stroke-width="0.12" d="M157.64,-147.7C163.49,-138.89 172.92,-124.67 181.19,-112.2"/>
<polygon fill="red" stroke="red" stroke-width="0.12" points="183.96,-114.34 186.58,-104.08 178.13,-110.48 183.96,-114.34"/>
</g>
<!-- &#45;12&#45;&gt;184 -->
<g id="edge13" class="edge">
<title>&#45;12&#45;&gt;184</title>
<path fill="none" stroke="green" stroke-width="0.1" d="M164.71,-147.59C167.95,-145.72 171.51,-143.94 175,-142.71 277.12,-106.65 310.59,-131.56 416,-106.71 426.57,-104.22 437.94,-100.74 447.96,-97.4"/>
<polygon fill="green" stroke="green" stroke-width="0.1" points="448.99,-100.74 457.31,-94.18 446.72,-94.12 448.99,-100.74"/>
</g>
<!-- &#45;13 -->
<g id="node13" class="node">
<title>&#45;13</title>
<polygon fill="lightgray" stroke="black" points="120,-166.46 92,-166.46 92,-147.96 120,-147.96 120,-166.46"/>
<text text-anchor="middle" x="106" y="-153.91" font-family="Times,serif" font-size="9.00">&#45;13</text>
</g>
<!-- &#45;13&#45;&gt;181 -->
<g id="edge21" class="edge">
<title>&#45;13&#45;&gt;181</title>
<path fill="none" stroke="red" stroke-width="0.3" d="M117.28,-147.7C131.26,-137.16 155.47,-118.91 173.74,-105.14"/>
<polygon fill="red" stroke="red" stroke-width="0.3" points="175.42,-108.26 181.3,-99.44 171.2,-102.67 175.42,-108.26"/>
</g>
<!-- &#45;13&#45;&gt;182 -->
<g id="edge27" class="edge">
<title>&#45;13&#45;&gt;182</title>
<path fill="none" stroke="green" stroke-width="0.68" d="M119.28,-147.51C122.38,-145.74 125.73,-144.02 129,-142.71 200.32,-114.22 289.67,-98.16 336.32,-91.15"/>
<polygon fill="green" stroke="green" stroke-width="0.68" points="336.81,-94.61 346.2,-89.71 335.8,-87.69 336.81,-94.61"/>
</g>
<!-- &#45;14 -->
<g id="node14" class="node">
<title>&#45;14</title>
<polygon fill="lightgray" stroke="black" points="74,-166.46 46,-166.46 46,-147.96 74,-147.96 74,-166.46"/>
<text text-anchor="middle" x="60" y="-153.91" font-family="Times,serif" font-size="9.00">&#45;14</text>
</g>
<!-- &#45;14&#45;&gt;181 -->
<g id="edge9" class="edge">
<title>&#45;14&#45;&gt;181</title>
<path fill="none" stroke="red" stroke-width="0.33" d="M74.01,-147.75C76.96,-146.04 80.06,-144.28 83,-142.71 112.11,-127.13 146.22,-110.8 169.69,-99.85"/>
<polygon fill="red" stroke="red" stroke-width="0.33" points="170.99,-103.1 178.59,-95.71 168.05,-96.75 170.99,-103.1"/>
</g>
<!-- &#45;15 -->
<g id="node15" class="node">
<title>&#45;15</title>
<polygon fill="lightgray" stroke="black" points="212,-166.46 184,-166.46 184,-147.96 212,-147.96 212,-166.46"/>
<text text-anchor="middle" x="198" y="-153.91" font-family="Times,serif" font-size="9.00">&#45;15</text>
</g>
<!-- &#45;15&#45;&gt;181 -->
<g id="edge40" class="edge">
<title>&#45;15&#45;&gt;181</title>
<path fill="none" stroke="red" stroke-width="0.19" d="M198,-147.7C198,-140 198,-128.19 198,-117.01"/>
<polygon fill="red" stroke="red" stroke-width="0.19" points="201.5,-117.35 198,-107.35 194.5,-117.35 201.5,-117.35"/>
</g>
<!-- &#45;15&#45;&gt;184 -->
<g id="edge42" class="edge">
<title>&#45;15&#45;&gt;184</title>
<path fill="none" stroke="red" stroke-width="0.35" d="M210.74,-147.67C213.98,-145.81 217.53,-144 221,-142.71 303.59,-111.95 330.58,-128.4 416,-106.71 426.42,-104.07 437.64,-100.59 447.59,-97.29"/>
<polygon fill="red" stroke="red" stroke-width="0.35" points="448.57,-100.66 456.91,-94.13 446.32,-94.03 448.57,-100.66"/>
</g>
<!-- &#45;16 -->
<g id="node16" class="node">
<title>&#45;16</title>
<polygon fill="lightgray" stroke="black" points="556,-166.46 528,-166.46 528,-147.96 556,-147.96 556,-166.46"/>
<text text-anchor="middle" x="542" y="-153.91" font-family="Times,serif" font-size="9.00">&#45;16</text>
</g>
<!-- &#45;16&#45;&gt;184 -->
<g id="edge44" class="edge">
<title>&#45;16&#45;&gt;184</title>
<path fill="none" stroke="green" stroke-width="0.27" d="M534.03,-147.7C525.07,-138.15 510.18,-122.25 497.86,-109.11"/>
<polygon fill="green" stroke="green" stroke-width="0.27" points="500.63,-106.95 491.24,-102.05 495.53,-111.74 500.63,-106.95"/>
</g>
<!-- &#45;17 -->
<g id="node17" class="node">
<title>&#45;17</title>
<polygon fill="lightgray" stroke="black" points="28,-166.46 0,-166.46 0,-147.96 28,-147.96 28,-166.46"/>
<text text-anchor="middle" x="14" y="-153.91" font-family="Times,serif" font-size="9.00">&#45;17</text>
</g>
<!-- &#45;17&#45;&gt;181 -->
<g id="edge20" class="edge">
<title>&#45;17&#45;&gt;181</title>
<path fill="none" stroke="red" stroke-width="0.23" d="M27.87,-147.48C30.83,-145.79 33.97,-144.11 37,-142.71 81.24,-122.3 135.18,-105.03 168.04,-95.31"/>
<polygon fill="red" stroke="red" stroke-width="0.23" points="168.98,-98.69 177.6,-92.52 167.02,-91.97 168.98,-98.69"/>
</g>
<!-- &#45;18 -->
<g id="node18" class="node">
<title>&#45;18</title>
<polygon fill="lightgray" stroke="black" points="782,-166.46 754,-166.46 754,-147.96 782,-147.96 782,-166.46"/>
<text text-anchor="middle" x="768" y="-153.91" font-family="Times,serif" font-size="9.00">&#45;18</text>
</g>
<!-- &#45;18&#45;&gt;183 -->
<g id="edge38" class="edge">
<title>&#45;18&#45;&gt;183</title>
<path fill="none" stroke="red" stroke-width="0.13" d="M754.02,-147.7C735.65,-136.53 703.03,-116.68 680.04,-102.69"/>
<polygon fill="red" stroke="red" stroke-width="0.13" points="681.98,-99.78 671.62,-97.57 678.34,-105.76 681.98,-99.78"/>
</g>
<!-- &#45;19 -->
<g id="node19" class="node">
<title>&#45;19</title>
<polygon fill="lightgray" stroke="black" points="602,-166.46 574,-166.46 574,-147.96 602,-147.96 602,-166.46"/>
<text text-anchor="middle" x="588" y="-153.91" font-family="Times,serif" font-size="9.00">&#45;19</text>
</g>
<!-- &#45;19&#45;&gt;184 -->
<g id="edge35" class="edge">
<title>&#45;19&#45;&gt;184</title>
<path fill="none" stroke="red" stroke-width="0.15" d="M574.39,-147.7C556.68,-136.64 525.38,-117.08 503.04,-103.12"/>
<polygon fill="red" stroke="red" stroke-width="0.15" points="504.91,-100.16 494.57,-97.83 501.2,-106.1 504.91,-100.16"/>
</g>
<!-- &#45;20 -->
<g id="node20" class="node">
<title>&#45;20</title>
<polygon fill="lightgray" stroke="black" points="426,-166.46 398,-166.46 398,-147.96 426,-147.96 426,-166.46"/>
<text text-anchor="middle" x="412" y="-153.91" font-family="Times,serif" font-size="9.00">&#45;20</text>
</g>
<!-- &#45;20&#45;&gt;182 -->
<g id="edge30" class="edge">
<title>&#45;20&#45;&gt;182</title>
<path fill="none" stroke="red" stroke-width="0.33" d="M406.6,-147.7C401.06,-138.97 392.17,-124.94 384.31,-112.56"/>
<polygon fill="red" stroke="red" stroke-width="0.33" points="387.42,-110.92 379.1,-104.35 381.51,-114.67 387.42,-110.92"/>
</g>
<!-- &#45;20&#45;&gt;184 -->
<g id="edge5" class="edge">
<title>&#45;20&#45;&gt;184</title>
<path fill="none" stroke="green" stroke-width="0.12" d="M419.97,-147.7C428.93,-138.15 443.82,-122.25 456.14,-109.11"/>
<polygon fill="green" stroke="green" stroke-width="0.12" points="458.63,-111.57 462.91,-101.88 453.52,-106.78 458.63,-111.57"/>
</g>
<!-- 0 -->
<g id="node21" class="node">
<title>0</title>
<ellipse fill="lightblue" stroke="black" cx="898" cy="-157.21" rx="14.5" ry="14.5"/>
<text text-anchor="middle" x="898" y="-153.91" font-family="Times,serif" font-size="9.00">0</text>
</g>
<!-- 1 -->
<g id="node22" class="node">
<title>1</title>
<ellipse fill="lightblue" stroke="black" cx="654" cy="-14.5" rx="14.5" ry="14.5"/>
<text text-anchor="middle" x="654" y="-11.2" font-family="Times,serif" font-size="9.00">1</text>
</g>
<!-- 2 -->
<g id="node23" class="node">
<title>2</title>
<ellipse fill="lightblue" stroke="black" cx="522" cy="-14.5" rx="14.5" ry="14.5"/>
<text text-anchor="middle" x="522" y="-11.2" font-family="Times,serif" font-size="9.00">2</text>
</g>
<!-- 2&#45;&gt;2 -->
<g id="edge18" class="edge">
<title>2&#45;&gt;2</title>
<path fill="none" stroke="red" stroke-width="0.15" d="M532.32,-24.94C542.81,-31.08 554.5,-27.6 554.5,-14.5 554.5,-5.49 548.97,-1.03 542.11,-1.12"/>
<polygon fill="red" stroke="red" stroke-width="0.15" points="541.11,2.24 532.54,-3.99 543.12,-4.47 541.11,2.24"/>
</g>
<!-- 3 -->
<g id="node24" class="node">
<title>3</title>
<ellipse fill="lightblue" stroke="black" cx="175" cy="-14.5" rx="14.5" ry="14.5"/>
<text text-anchor="middle" x="175" y="-11.2" font-family="Times,serif" font-size="9.00">3</text>
</g>
<!-- 4 -->
<g id="node25" class="node">
<title>4</title>
<ellipse fill="lightblue" stroke="black" cx="222" cy="-14.5" rx="14.5" ry="14.5"/>
<text text-anchor="middle" x="222" y="-11.2" font-family="Times,serif" font-size="9.00">4</text>
</g>
<!-- 181&#45;&gt;3 -->
<g id="edge14" class="edge">
<title>181&#45;&gt;3</title>
<path fill="none" stroke="red" stroke-width="0.48" d="M191.59,-65.53C188.83,-57.21 185.58,-47.41 182.7,-38.7"/>
<polygon fill="red" stroke="red" stroke-width="0.48" points="186.11,-37.86 179.64,-29.47 179.46,-40.07 186.11,-37.86"/>
</g>
<!-- 181&#45;&gt;4 -->
<g id="edge2" class="edge">
<title>181&#45;&gt;4</title>
<path fill="none" stroke="green" stroke-width="0.18" d="M204.56,-65.9C207.54,-57.27 211.1,-47 214.22,-37.99"/>
<polygon fill="green" stroke="green" stroke-width="0.18" points="217.45,-39.35 217.41,-28.75 210.83,-37.06 217.45,-39.35"/>
</g>
<!-- 182&#45;&gt;182 -->
<g id="edge8" class="edge">
<title>182&#45;&gt;182</title>
<path fill="none" stroke="green" stroke-width="0.19" d="M385.18,-98.17C396.23,-101.39 406.86,-97.28 406.86,-85.85 406.86,-77.99 401.83,-73.6 395.1,-72.66"/>
<polygon fill="green" stroke="green" stroke-width="0.19" points="395.12,-69.15 385.46,-73.51 395.73,-76.12 395.12,-69.15"/>
</g>
<!-- 183&#45;&gt;1 -->
<g id="edge4" class="edge">
<title>183&#45;&gt;1</title>
<path fill="none" stroke="red" stroke-width="0.17" d="M654,-64.79C654,-56.89 654,-47.75 654,-39.5"/>
<polygon fill="red" stroke="red" stroke-width="0.17" points="657.5,-39.61 654,-29.61 650.5,-39.61 657.5,-39.61"/>
</g>
<!-- 183&#45;&gt;2 -->
<g id="edge34" class="edge">
<title>183&#45;&gt;2</title>
<path fill="none" stroke="red" stroke-width="0.23" d="M635.65,-75.21C611.53,-62.53 569.22,-40.31 543.59,-26.84"/>
<polygon fill="red" stroke="red" stroke-width="0.23" points="545.44,-23.86 534.96,-22.31 542.18,-30.05 545.44,-23.86"/>
</g>
<!-- 183&#45;&gt;183 -->
<g id="edge16" class="edge">
<title>183&#45;&gt;183</title>
<path fill="none" stroke="red" stroke-width="0.13" d="M671.18,-98.17C682.23,-101.39 692.86,-97.28 692.86,-85.85 692.86,-77.99 687.83,-73.6 681.1,-72.66"/>
<polygon fill="red" stroke="red" stroke-width="0.13" points="681.03,-69.15 671.38,-73.51 681.64,-76.13 681.03,-69.15"/>
</g>
<!-- 184&#45;&gt;2 -->
<g id="edge36" class="edge">
<title>184&#45;&gt;2</title>
<path fill="none" stroke="red" stroke-width="0.37" d="M488.12,-67.71C494.42,-58 502.33,-45.81 508.92,-35.65"/>
<polygon fill="red" stroke="red" stroke-width="0.37" points="511.71,-37.78 514.22,-27.48 505.84,-33.97 511.71,-37.78"/>
</g>
</g>
</svg>
