<?xml version="1.0" encoding="UTF-8" standalone="no"?>
<!DOCTYPE svg PUBLIC "-//W3C//DTD SVG 1.1//EN"
 "http://www.w3.org/Graphics/SVG/1.1/DTD/svg11.dtd">
<!-- Generated by graphviz version 12.1.1 (20240910.0053)
 -->
<!-- Pages: 1 -->
<svg width="876pt" height="247pt"
 viewBox="0.00 0.00 875.75 246.93" xmlns="http://www.w3.org/2000/svg" xmlns:xlink="http://www.w3.org/1999/xlink">
<g id="graph0" class="graph" transform="scale(1 1) rotate(0) translate(4 242.93)">
<polygon fill="white" stroke="none" points="-4,4 -4,-242.93 871.75,-242.93 871.75,4 -4,4"/>
<!-- &#45;1 -->
<g id="node1" class="node">
<title>&#45;1</title>
<polygon fill="lightgray" stroke="black" points="232.5,-238.93 209,-238.93 209,-220.43 232.5,-220.43 232.5,-238.93"/>
<text text-anchor="middle" x="220.75" y="-226.38" font-family="Times,serif" font-size="9.00">&#45;1</text>
</g>
<!-- &#45;2 -->
<g id="node2" class="node">
<title>&#45;2</title>
<polygon fill="lightgray" stroke="black" points="23.5,-172.82 0,-172.82 0,-154.32 23.5,-154.32 23.5,-172.82"/>
<text text-anchor="middle" x="11.75" y="-160.27" font-family="Times,serif" font-size="9.00">&#45;2</text>
</g>
<!-- 180 -->
<g id="node29" class="node">
<title>180</title>
<ellipse fill="white" stroke="black" cx="134.75" cy="-85.85" rx="20.86" ry="20.86"/>
<text text-anchor="middle" x="134.75" y="-82.55" font-family="Times,serif" font-size="9.00">180</text>
</g>
<!-- &#45;2&#45;&gt;180 -->
<g id="edge24" class="edge">
<title>&#45;2&#45;&gt;180</title>
<path fill="none" stroke="green" stroke-width="0.47" d="M19.9,-153.93C23.62,-150.23 28.21,-146.02 32.75,-142.71 56.14,-125.68 85.31,-110.21 106.45,-99.9"/>
<polygon fill="green" stroke="green" stroke-width="0.47" points="107.7,-103.18 115.2,-95.7 104.67,-96.87 107.7,-103.18"/>
</g>
<!-- &#45;3 -->
<g id="node3" class="node">
<title>&#45;3</title>
<polygon fill="lightgray" stroke="black" points="637.5,-172.82 614,-172.82 614,-154.32 637.5,-154.32 637.5,-172.82"/>
<text text-anchor="middle" x="625.75" y="-160.27" font-family="Times,serif" font-size="9.00">&#45;3</text>
</g>
<!-- 178 -->
<g id="node27" class="node">
<title>178</title>
<ellipse fill="white" stroke="black" cx="647.75" cy="-85.85" rx="20.86" ry="20.86"/>
<text text-anchor="middle" x="647.75" y="-82.55" font-family="Times,serif" font-size="9.00">178</text>
</g>
<!-- &#45;3&#45;&gt;178 -->
<g id="edge39" class="edge">
<title>&#45;3&#45;&gt;178</title>
<path fill="none" stroke="green" stroke-width="0.52" stroke-dasharray="1,5" d="M628.27,-153.88C630.91,-144.81 635.19,-130.07 639.07,-116.71"/>
<polygon fill="green" stroke="green" stroke-width="0.52" points="642.41,-117.78 641.84,-107.2 635.69,-115.83 642.41,-117.78"/>
</g>
<!-- 179 -->
<g id="node28" class="node">
<title>179</title>
<ellipse fill="white" stroke="black" cx="338.75" cy="-85.85" rx="20.86" ry="20.86"/>
<text text-anchor="middle" x="338.75" y="-82.55" font-family="Times,serif" font-size="9.00">179</text>
</g>
<!-- &#45;3&#45;&gt;179 -->
<g id="edge37" class="edge">
<title>&#45;3&#45;&gt;179</title>
<path fill="none" stroke="red" stroke-width="0.66" d="M618.78,-154.08C615.03,-150.04 610.08,-145.5 604.75,-142.71 564.02,-121.39 431.16,-100.16 370.04,-91.24"/>
<polygon fill="red" stroke="red" stroke-width="0.66" points="370.89,-87.82 360.49,-89.86 369.89,-94.75 370.89,-87.82"/>
</g>
<!-- &#45;4 -->
<g id="node4" class="node">
<title>&#45;4</title>
<polygon fill="lightgray" stroke="black" points="511.5,-172.82 488,-172.82 488,-154.32 511.5,-154.32 511.5,-172.82"/>
<text text-anchor="middle" x="499.75" y="-160.27" font-family="Times,serif" font-size="9.00">&#45;4</text>
</g>
<!-- 177 -->
<g id="node26" class="node">
<title>177</title>
<ellipse fill="white" stroke="black" cx="499.75" cy="-85.85" rx="20.86" ry="20.86"/>
<text text-anchor="middle" x="499.75" y="-82.55" font-family="Times,serif" font-size="9.00">177</text>
</g>
<!-- &#45;4&#45;&gt;177 -->
<g id="edge18" class="edge">
<title>&#45;4&#45;&gt;177</title>
<path fill="none" stroke="red" stroke-width="0.21" d="M499.75,-153.88C499.75,-144.93 499.75,-130.46 499.75,-117.26"/>
<polygon fill="red" stroke="red" stroke-width="0.21" points="503.25,-117.38 499.75,-107.38 496.25,-117.38 503.25,-117.38"/>
</g>
<!-- &#45;5 -->
<g id="node5" class="node">
<title>&#45;5</title>
<polygon fill="lightgray" stroke="black" points="316.5,-238.93 293,-238.93 293,-220.43 316.5,-220.43 316.5,-238.93"/>
<text text-anchor="middle" x="304.75" y="-226.38" font-family="Times,serif" font-size="9.00">&#45;5</text>
</g>
<!-- &#45;6 -->
<g id="node6" class="node">
<title>&#45;6</title>
<polygon fill="lightgray" stroke="black" points="145.5,-172.82 122,-172.82 122,-154.32 145.5,-154.32 145.5,-172.82"/>
<text text-anchor="middle" x="133.75" y="-160.27" font-family="Times,serif" font-size="9.00">&#45;6</text>
</g>
<!-- &#45;6&#45;&gt;179 -->
<g id="edge4" class="edge">
<title>&#45;6&#45;&gt;179</title>
<path fill="none" stroke="green" stroke-width="0.48" d="M141.21,-153.87C144.93,-149.99 149.72,-145.63 154.75,-142.71 204.02,-114.1 269.37,-98.81 307.46,-91.8"/>
<polygon fill="green" stroke="green" stroke-width="0.48" points="307.96,-95.26 317.2,-90.08 306.74,-88.37 307.96,-95.26"/>
</g>
<!-- &#45;7 -->
<g id="node7" class="node">
<title>&#45;7</title>
<polygon fill="lightgray" stroke="black" points="65.5,-172.82 42,-172.82 42,-154.32 65.5,-154.32 65.5,-172.82"/>
<text text-anchor="middle" x="53.75" y="-160.27" font-family="Times,serif" font-size="9.00">&#45;7</text>
</g>
<!-- &#45;7&#45;&gt;180 -->
<g id="edge9" class="edge">
<title>&#45;7&#45;&gt;180</title>
<path fill="none" stroke="red" stroke-width="0.55" d="M63.04,-153.88C74.97,-142.73 96.06,-123.02 112.29,-107.85"/>
<polygon fill="red" stroke="red" stroke-width="0.55" points="114.28,-110.78 119.2,-101.39 109.5,-105.66 114.28,-110.78"/>
</g>
<!-- &#45;8 -->
<g id="node8" class="node">
<title>&#45;8</title>
<polygon fill="lightgray" stroke="black" points="274.5,-238.93 251,-238.93 251,-220.43 274.5,-220.43 274.5,-238.93"/>
<text text-anchor="middle" x="262.75" y="-226.38" font-family="Times,serif" font-size="9.00">&#45;8</text>
</g>
<!-- &#45;8&#45;&gt;177 -->
<g id="edge5" class="edge">
<title>&#45;8&#45;&gt;177</title>
<path fill="none" stroke="green" stroke-width="0.42" stroke-dasharray="1,5" d="M274.59,-223.5C277.54,-222.35 280.72,-221.24 283.75,-220.43 335.2,-206.6 486.03,-224.83 520.75,-184.43 537.7,-164.72 527.57,-134.6 516.28,-113.04"/>
<polygon fill="green" stroke="green" stroke-width="0.42" points="519.35,-111.37 511.41,-104.35 513.25,-114.79 519.35,-111.37"/>
</g>
<!-- &#45;8&#45;&gt;179 -->
<g id="edge32" class="edge">
<title>&#45;8&#45;&gt;179</title>
<path fill="none" stroke="red" stroke-width="0.15" stroke-dasharray="1,5" d="M255.47,-220.1C242.77,-204 219.28,-168.58 234.75,-142.71 250.65,-116.12 284.04,-101.45 308.72,-93.9"/>
<polygon fill="red" stroke="red" stroke-width="0.15" points="309.47,-97.33 318.13,-91.24 307.56,-90.59 309.47,-97.33"/>
</g>
<!-- &#45;8&#45;&gt;180 -->
<g id="edge30" class="edge">
<title>&#45;8&#45;&gt;180</title>
<path fill="none" stroke="red" stroke-width="0.35" d="M250.83,-223.75C247.89,-222.6 244.72,-221.43 241.75,-220.43 185.31,-201.52 148.74,-231.84 112.75,-184.43 97.09,-163.8 107.15,-134.08 118.27,-112.87"/>
<polygon fill="red" stroke="red" stroke-width="0.35" points="121.27,-114.68 123.11,-104.25 115.16,-111.25 121.27,-114.68"/>
</g>
<!-- 279 -->
<g id="node30" class="node">
<title>279</title>
<ellipse fill="white" stroke="black" cx="310.75" cy="-163.57" rx="20.86" ry="20.86"/>
<text text-anchor="middle" x="310.75" y="-160.27" font-family="Times,serif" font-size="9.00">279</text>
</g>
<!-- &#45;8&#45;&gt;279 -->
<g id="edge43" class="edge">
<title>&#45;8&#45;&gt;279</title>
<path fill="none" stroke="green" stroke-width="0.37" d="M269.22,-220.03C275.12,-212.16 284.12,-200.14 292.23,-189.3"/>
<polygon fill="green" stroke="green" stroke-width="0.37" points="294.95,-191.52 298.14,-181.41 289.34,-187.32 294.95,-191.52"/>
</g>
<!-- &#45;9 -->
<g id="node9" class="node">
<title>&#45;9</title>
<polygon fill="lightgray" stroke="black" points="187.5,-172.82 164,-172.82 164,-154.32 187.5,-154.32 187.5,-172.82"/>
<text text-anchor="middle" x="175.75" y="-160.27" font-family="Times,serif" font-size="9.00">&#45;9</text>
</g>
<!-- &#45;9&#45;&gt;177 -->
<g id="edge42" class="edge">
<title>&#45;9&#45;&gt;177</title>
<path fill="none" stroke="red" stroke-width="0.3" d="M187.83,-158.04C199.66,-153.72 218.28,-147.2 234.75,-142.71 318.43,-119.89 419.11,-100.96 468.84,-92.15"/>
<polygon fill="red" stroke="red" stroke-width="0.3" points="469.24,-95.64 478.49,-90.46 468.03,-88.74 469.24,-95.64"/>
</g>
<!-- &#45;9&#45;&gt;179 -->
<g id="edge36" class="edge">
<title>&#45;9&#45;&gt;179</title>
<path fill="none" stroke="red" stroke-width="0.26" d="M185.44,-154.18C190.16,-150.37 196.03,-145.98 201.75,-142.71 236.89,-122.6 280.71,-106.08 309.18,-96.35"/>
<polygon fill="red" stroke="red" stroke-width="0.26" points="310.2,-99.7 318.57,-93.2 307.97,-93.06 310.2,-99.7"/>
</g>
<!-- &#45;9&#45;&gt;180 -->
<g id="edge26" class="edge">
<title>&#45;9&#45;&gt;180</title>
<path fill="none" stroke="green" stroke-width="0.33" d="M171.05,-153.88C165.73,-144.07 156.82,-127.62 149.16,-113.47"/>
<polygon fill="green" stroke="green" stroke-width="0.33" points="152.43,-112.16 144.6,-105.03 146.28,-115.49 152.43,-112.16"/>
</g>
<!-- &#45;10 -->
<g id="node10" class="node">
<title>&#45;10</title>
<polygon fill="lightgray" stroke="black" points="775.75,-172.82 747.75,-172.82 747.75,-154.32 775.75,-154.32 775.75,-172.82"/>
<text text-anchor="middle" x="761.75" y="-160.27" font-family="Times,serif" font-size="9.00">&#45;10</text>
</g>
<!-- &#45;10&#45;&gt;178 -->
<g id="edge2" class="edge">
<title>&#45;10&#45;&gt;178</title>
<path fill="none" stroke="green" stroke-width="0.21" d="M752.63,-154.1C748.52,-150.44 743.52,-146.2 738.75,-142.71 718.01,-127.55 693.06,-112.43 674.53,-101.75"/>
<polygon fill="green" stroke="green" stroke-width="0.21" points="676.45,-98.82 666.02,-96.9 672.98,-104.9 676.45,-98.82"/>
</g>
<!-- &#45;11 -->
<g id="node11" class="node">
<title>&#45;11</title>
<polygon fill="lightgray" stroke="black" points="362.75,-238.93 334.75,-238.93 334.75,-220.43 362.75,-220.43 362.75,-238.93"/>
<text text-anchor="middle" x="348.75" y="-226.38" font-family="Times,serif" font-size="9.00">&#45;11</text>
</g>
<!-- &#45;12 -->
<g id="node12" class="node">
<title>&#45;12</title>
<polygon fill="lightgray" stroke="black" points="377.75,-172.82 349.75,-172.82 349.75,-154.32 377.75,-154.32 377.75,-172.82"/>
<text text-anchor="middle" x="363.75" y="-160.27" font-family="Times,serif" font-size="9.00">&#45;12</text>
</g>
<!-- 4 -->
<g id="node25" class="node">
<title>4</title>
<ellipse fill="lightblue" stroke="black" cx="387.75" cy="-14.5" rx="14.5" ry="14.5"/>
<text text-anchor="middle" x="387.75" y="-11.2" font-family="Times,serif" font-size="9.00">4</text>
</g>
<!-- &#45;12&#45;&gt;4 -->
<g id="edge45" class="edge">
<title>&#45;12&#45;&gt;4</title>
<path fill="none" stroke="red" stroke-width="0.22" d="M365.11,-154.24C368.69,-132.31 378.47,-72.35 383.93,-38.87"/>
<polygon fill="red" stroke="red" stroke-width="0.22" points="387.33,-39.78 385.49,-29.35 380.42,-38.66 387.33,-39.78"/>
</g>
<!-- &#45;12&#45;&gt;177 -->
<g id="edge20" class="edge">
<title>&#45;12&#45;&gt;177</title>
<path fill="none" stroke="green" stroke-width="0.41" d="M372.72,-153.89C376.81,-150.19 381.83,-145.98 386.75,-142.71 413.76,-124.8 447.33,-108.92 470.84,-98.71"/>
<polygon fill="green" stroke="green" stroke-width="0.41" points="472.16,-101.95 479.98,-94.81 469.41,-95.51 472.16,-101.95"/>
</g>
<!-- &#45;12&#45;&gt;179 -->
<g id="edge3" class="edge">
<title>&#45;12&#45;&gt;179</title>
<path fill="none" stroke="green" stroke-width="0.13" stroke-dasharray="1,5" d="M360.88,-153.88C357.81,-144.57 352.76,-129.28 348.26,-115.65"/>
<polygon fill="green" stroke="green" stroke-width="0.13" points="351.64,-114.71 345.18,-106.32 344.99,-116.91 351.64,-114.71"/>
</g>
<!-- &#45;13 -->
<g id="node13" class="node">
<title>&#45;13</title>
<polygon fill="lightgray" stroke="black" points="469.75,-172.82 441.75,-172.82 441.75,-154.32 469.75,-154.32 469.75,-172.82"/>
<text text-anchor="middle" x="455.75" y="-160.27" font-family="Times,serif" font-size="9.00">&#45;13</text>
</g>
<!-- &#45;13&#45;&gt;177 -->
<g id="edge22" class="edge">
<title>&#45;13&#45;&gt;177</title>
<path fill="none" stroke="green" stroke-width="0.69" d="M460.8,-153.88C466.48,-144.1 476,-127.72 484.21,-113.6"/>
<polygon fill="green" stroke="green" stroke-width="0.69" points="487.09,-115.6 489.09,-105.2 481.04,-112.08 487.09,-115.6"/>
</g>
<!-- &#45;13&#45;&gt;178 -->
<g id="edge38" class="edge">
<title>&#45;13&#45;&gt;178</title>
<path fill="none" stroke="red" stroke-width="0.32" d="M464.09,-153.96C468.2,-150.09 473.43,-145.73 478.75,-142.71 523.7,-117.23 582.02,-101.2 617.08,-93.15"/>
<polygon fill="red" stroke="red" stroke-width="0.32" points="617.69,-96.6 626.69,-91.02 616.17,-89.77 617.69,-96.6"/>
</g>
<!-- &#45;13&#45;&gt;179 -->
<g id="edge14" class="edge">
<title>&#45;13&#45;&gt;179</title>
<path fill="none" stroke="red" stroke-width="0.37" d="M446.66,-154.07C442.55,-150.4 437.54,-146.16 432.75,-142.71 411.27,-127.24 385.3,-112.05 366.11,-101.42"/>
<polygon fill="red" stroke="red" stroke-width="0.37" points="367.96,-98.45 357.51,-96.72 364.6,-104.59 367.96,-98.45"/>
</g>
<!-- &#45;14 -->
<g id="node14" class="node">
<title>&#45;14</title>
<polygon fill="lightgray" stroke="black" points="271.75,-172.82 243.75,-172.82 243.75,-154.32 271.75,-154.32 271.75,-172.82"/>
<text text-anchor="middle" x="257.75" y="-160.27" font-family="Times,serif" font-size="9.00">&#45;14</text>
</g>
<!-- &#45;14&#45;&gt;178 -->
<g id="edge40" class="edge">
<title>&#45;14&#45;&gt;178</title>
<path fill="none" stroke="red" stroke-width="0.18" d="M265.45,-153.94C269.58,-149.87 274.99,-145.34 280.75,-142.71 382.48,-96.31 419.28,-123.99 529.75,-106.71 559.61,-102.04 593.64,-96.26 617.45,-92.15"/>
<polygon fill="red" stroke="red" stroke-width="0.18" points="617.79,-95.64 627.04,-90.49 616.59,-88.75 617.79,-95.64"/>
</g>
<!-- &#45;14&#45;&gt;180 -->
<g id="edge10" class="edge">
<title>&#45;14&#45;&gt;180</title>
<path fill="none" stroke="red" stroke-width="0.6" stroke-dasharray="1,5" d="M243.64,-153.88C223.61,-141.55 186.56,-118.74 161.29,-103.19"/>
<polygon fill="red" stroke="red" stroke-width="0.6" points="163.37,-100.36 153.02,-98.1 159.7,-106.32 163.37,-100.36"/>
</g>
<!-- &#45;15 -->
<g id="node15" class="node">
<title>&#45;15</title>
<polygon fill="lightgray" stroke="black" points="683.75,-172.82 655.75,-172.82 655.75,-154.32 683.75,-154.32 683.75,-172.82"/>
<text text-anchor="middle" x="669.75" y="-160.27" font-family="Times,serif" font-size="9.00">&#45;15</text>
</g>
<!-- &#45;15&#45;&gt;177 -->
<g id="edge15" class="edge">
<title>&#45;15&#45;&gt;177</title>
<path fill="none" stroke="green" stroke-width="0.49" d="M661.35,-154.06C657.22,-150.22 652.01,-145.84 646.75,-142.71 608.99,-120.2 560.58,-103.91 529.85,-94.92"/>
<polygon fill="green" stroke="green" stroke-width="0.49" points="531.05,-91.62 520.48,-92.25 529.14,-98.35 531.05,-91.62"/>
</g>
<!-- &#45;15&#45;&gt;178 -->
<g id="edge27" class="edge">
<title>&#45;15&#45;&gt;178</title>
<path fill="none" stroke="red" stroke-width="0.39" d="M667.23,-153.88C664.56,-144.72 660.22,-129.77 656.31,-116.32"/>
<polygon fill="red" stroke="red" stroke-width="0.39" points="659.76,-115.63 653.6,-107 653.03,-117.58 659.76,-115.63"/>
</g>
<!-- &#45;16 -->
<g id="node16" class="node">
<title>&#45;16</title>
<polygon fill="lightgray" stroke="black" points="821.75,-172.82 793.75,-172.82 793.75,-154.32 821.75,-154.32 821.75,-172.82"/>
<text text-anchor="middle" x="807.75" y="-160.27" font-family="Times,serif" font-size="9.00">&#45;16</text>
</g>
<!-- &#45;16&#45;&gt;178 -->
<g id="edge28" class="edge">
<title>&#45;16&#45;&gt;178</title>
<path fill="none" stroke="green" stroke-width="0.1" d="M799.32,-154.12C795.18,-150.29 789.97,-145.91 784.75,-142.71 750.07,-121.46 705.88,-105.13 677.21,-95.76"/>
<polygon fill="green" stroke="green" stroke-width="0.1" points="678.5,-92.5 667.91,-92.79 676.37,-99.17 678.5,-92.5"/>
</g>
<!-- &#45;17 -->
<g id="node17" class="node">
<title>&#45;17</title>
<polygon fill="lightgray" stroke="black" points="423.75,-172.82 395.75,-172.82 395.75,-154.32 423.75,-154.32 423.75,-172.82"/>
<text text-anchor="middle" x="409.75" y="-160.27" font-family="Times,serif" font-size="9.00">&#45;17</text>
</g>
<!-- &#45;17&#45;&gt;177 -->
<g id="edge34" class="edge">
<title>&#45;17&#45;&gt;177</title>
<path fill="none" stroke="green" stroke-width="0.33" stroke-dasharray="1,5" d="M419.57,-154.03C423.63,-150.51 428.41,-146.4 432.75,-142.71 447.05,-130.57 463.2,-117.1 476.06,-106.43"/>
<polygon fill="green" stroke="green" stroke-width="0.33" points="478.13,-109.26 483.6,-100.18 473.67,-103.87 478.13,-109.26"/>
</g>
<!-- &#45;17&#45;&gt;179 -->
<g id="edge16" class="edge">
<title>&#45;17&#45;&gt;179</title>
<path fill="none" stroke="red" stroke-width="0.41" d="M401.61,-153.88C391.43,-143.03 373.65,-124.07 359.59,-109.08"/>
<polygon fill="red" stroke="red" stroke-width="0.41" points="362.46,-107.02 353.07,-102.12 357.35,-111.81 362.46,-107.02"/>
</g>
<!-- &#45;18 -->
<g id="node18" class="node">
<title>&#45;18</title>
<polygon fill="lightgray" stroke="black" points="867.75,-172.82 839.75,-172.82 839.75,-154.32 867.75,-154.32 867.75,-172.82"/>
<text text-anchor="middle" x="853.75" y="-160.27" font-family="Times,serif" font-size="9.00">&#45;18</text>
</g>
<!-- &#45;18&#45;&gt;178 -->
<g id="edge41" class="edge">
<title>&#45;18&#45;&gt;178</title>
<path fill="none" stroke="red" stroke-width="0.12" d="M845.44,-153.9C841.33,-150.02 836.11,-145.67 830.75,-142.71 781.04,-115.28 716.13,-99.57 678.48,-92.17"/>
<polygon fill="red" stroke="red" stroke-width="0.12" points="679.26,-88.76 668.79,-90.33 677.96,-95.63 679.26,-88.76"/>
</g>
<!-- &#45;19 -->
<g id="node19" class="node">
<title>&#45;19</title>
<polygon fill="lightgray" stroke="black" points="729.75,-172.82 701.75,-172.82 701.75,-154.32 729.75,-154.32 729.75,-172.82"/>
<text text-anchor="middle" x="715.75" y="-160.27" font-family="Times,serif" font-size="9.00">&#45;19</text>
</g>
<!-- &#45;19&#45;&gt;177 -->
<g id="edge19" class="edge">
<title>&#45;19&#45;&gt;177</title>
<path fill="none" stroke="red" stroke-width="0.23" d="M707.46,-153.87C703.36,-149.98 698.13,-145.63 692.75,-142.71 639.67,-113.92 570.11,-98.52 530.64,-91.57"/>
<polygon fill="red" stroke="red" stroke-width="0.23" points="531.37,-88.14 520.92,-89.93 530.2,-95.04 531.37,-88.14"/>
</g>
<!-- &#45;19&#45;&gt;178 -->
<g id="edge7" class="edge">
<title>&#45;19&#45;&gt;178</title>
<path fill="none" stroke="green" stroke-width="0.13" stroke-dasharray="1,5" d="M707.95,-153.88C698.26,-143.1 681.38,-124.3 667.96,-109.35"/>
<polygon fill="green" stroke="green" stroke-width="0.13" points="670.73,-107.2 661.45,-102.1 665.52,-111.88 670.73,-107.2"/>
</g>
<!-- &#45;20 -->
<g id="node20" class="node">
<title>&#45;20</title>
<polygon fill="lightgray" stroke="black" points="595.75,-172.82 567.75,-172.82 567.75,-154.32 595.75,-154.32 595.75,-172.82"/>
<text text-anchor="middle" x="581.75" y="-160.27" font-family="Times,serif" font-size="9.00">&#45;20</text>
</g>
<!-- &#45;20&#45;&gt;177 -->
<g id="edge29" class="edge">
<title>&#45;20&#45;&gt;177</title>
<path fill="none" stroke="green" stroke-width="0.21" stroke-dasharray="1,5" d="M572.34,-153.88C560.16,-142.63 538.53,-122.66 522.04,-107.43"/>
<polygon fill="green" stroke="green" stroke-width="0.21" points="524.83,-105.24 515.11,-101.03 520.08,-110.39 524.83,-105.24"/>
</g>
<!-- 0 -->
<g id="node21" class="node">
<title>0</title>
<ellipse fill="lightblue" stroke="black" cx="499.75" cy="-14.5" rx="14.5" ry="14.5"/>
<text text-anchor="middle" x="499.75" y="-11.2" font-family="Times,serif" font-size="9.00">0</text>
</g>
<!-- 0&#45;&gt;0 -->
<g id="edge25" class="edge">
<title>0&#45;&gt;0</title>
<path fill="none" stroke="green" stroke-width="0.38" d="M510.07,-24.94C520.56,-31.08 532.25,-27.6 532.25,-14.5 532.25,-5.49 526.72,-1.03 519.86,-1.12"/>
<polygon fill="green" stroke="green" stroke-width="0.38" points="519.19,2.34 510.62,-3.89 521.21,-4.37 519.19,2.34"/>
</g>
<!-- 1 -->
<g id="node22" class="node">
<title>1</title>
<ellipse fill="lightblue" stroke="black" cx="594.75" cy="-14.5" rx="14.5" ry="14.5"/>
<text text-anchor="middle" x="594.75" y="-11.2" font-family="Times,serif" font-size="9.00">1</text>
</g>
<!-- 2 -->
<g id="node23" class="node">
<title>2</title>
<ellipse fill="lightblue" stroke="black" cx="245.75" cy="-14.5" rx="14.5" ry="14.5"/>
<text text-anchor="middle" x="245.75" y="-11.2" font-family="Times,serif" font-size="9.00">2</text>
</g>
<!-- 3 -->
<g id="node24" class="node">
<title>3</title>
<ellipse fill="lightblue" stroke="black" cx="338.75" cy="-14.5" rx="14.5" ry="14.5"/>
<text text-anchor="middle" x="338.75" y="-11.2" font-family="Times,serif" font-size="9.00">3</text>
</g>
<!-- 4&#45;&gt;4 -->
<g id="edge11" class="edge">
<title>4&#45;&gt;4</title>
<path fill="none" stroke="red" stroke-width="0.34" d="M398.07,-24.94C408.56,-31.08 420.25,-27.6 420.25,-14.5 420.25,-5.49 414.72,-1.03 407.86,-1.12"/>
<polygon fill="red" stroke="red" stroke-width="0.34" points="407.13,2.32 398.56,-3.91 409.14,-4.39 407.13,2.32"/>
</g>
<!-- 177&#45;&gt;0 -->
<g id="edge31" class="edge">
<title>177&#45;&gt;0</title>
<path fill="none" stroke="green" stroke-width="0.12" d="M499.75,-64.79C499.75,-56.89 499.75,-47.75 499.75,-39.5"/>
<polygon fill="green" stroke="green" stroke-width="0.12" points="503.25,-39.53 499.75,-29.53 496.25,-39.53 503.25,-39.53"/>
</g>
<!-- 177&#45;&gt;1 -->
<g id="edge23" class="edge">
<title>177&#45;&gt;1</title>
<path fill="none" stroke="red" stroke-width="0.49" d="M516.3,-72.77C532.59,-60.87 557.5,-42.69 574.87,-30.01"/>
<polygon fill="red" stroke="red" stroke-width="0.49" points="576.56,-33.11 582.57,-24.38 572.43,-27.45 576.56,-33.11"/>
</g>
<!-- 177&#45;&gt;4 -->
<g id="edge21" class="edge">
<title>177&#45;&gt;4</title>
<path fill="none" stroke="green" stroke-width="0.3" d="M482.25,-74.01C462.4,-61.72 430.05,-41.69 408.83,-28.55"/>
<polygon fill="green" stroke="green" stroke-width="0.3" points="410.68,-25.58 400.33,-23.29 406.99,-31.53 410.68,-25.58"/>
</g>
<!-- 178&#45;&gt;0 -->
<g id="edge33" class="edge">
<title>178&#45;&gt;0</title>
<path fill="none" stroke="green" stroke-width="0.32" d="M629.01,-76.07C601.73,-63.29 551.19,-39.6 522.04,-25.94"/>
<polygon fill="green" stroke="green" stroke-width="0.32" points="523.68,-22.85 513.14,-21.77 520.71,-29.18 523.68,-22.85"/>
</g>
<!-- 178&#45;&gt;1 -->
<g id="edge35" class="edge">
<title>178&#45;&gt;1</title>
<path fill="none" stroke="red" stroke-width="0.12" d="M635.46,-68.77C627.64,-58.53 617.48,-45.24 609.27,-34.49"/>
<polygon fill="red" stroke="red" stroke-width="0.12" points="612.14,-32.49 603.29,-26.67 606.58,-36.74 612.14,-32.49"/>
</g>
<!-- 179&#45;&gt;0 -->
<g id="edge13" class="edge">
<title>179&#45;&gt;0</title>
<path fill="none" stroke="green" stroke-width="0.14" d="M357.85,-76.62C387.77,-63.74 445.53,-38.85 477.36,-25.14"/>
<polygon fill="green" stroke="green" stroke-width="0.14" points="478.71,-28.37 486.51,-21.2 475.94,-21.94 478.71,-28.37"/>
</g>
<!-- 179&#45;&gt;2 -->
<g id="edge17" class="edge">
<title>179&#45;&gt;2</title>
<path fill="none" stroke="green" stroke-width="0.45" d="M322.12,-72.45C306.34,-60.68 282.6,-42.98 265.78,-30.43"/>
<polygon fill="green" stroke="green" stroke-width="0.45" points="267.9,-27.65 257.79,-24.47 263.71,-33.26 267.9,-27.65"/>
</g>
<!-- 179&#45;&gt;3 -->
<g id="edge6" class="edge">
<title>179&#45;&gt;3</title>
<path fill="none" stroke="green" stroke-width="0.47" d="M338.75,-64.79C338.75,-56.98 338.75,-47.96 338.75,-39.78"/>
<polygon fill="green" stroke="green" stroke-width="0.47" points="342.25,-40.06 338.75,-30.06 335.25,-40.06 342.25,-40.06"/>
</g>
<!-- 179&#45;&gt;4 -->
<g id="edge1" class="edge">
<title>179&#45;&gt;4</title>
<path fill="none" stroke="red" stroke-width="0.29" d="M350.36,-68.41C357.37,-58.5 366.34,-45.81 373.73,-35.33"/>
<polygon fill="red" stroke="red" stroke-width="0.29" points="376.58,-37.38 379.49,-27.19 370.86,-33.34 376.58,-37.38"/>
</g>
<!-- 180&#45;&gt;2 -->
<g id="edge12" class="edge">
<title>180&#45;&gt;2</title>
<path fill="none" stroke="red" stroke-width="0.19" d="M152.09,-74.01C171.85,-61.67 204.12,-41.51 225.14,-28.37"/>
<polygon fill="red" stroke="red" stroke-width="0.19" points="226.79,-31.47 233.42,-23.2 223.08,-25.53 226.79,-31.47"/>
</g>
<!-- 180&#45;&gt;180 -->
<g id="edge8" class="edge">
<title>180&#45;&gt;180</title>
<path fill="none" stroke="red" stroke-width="0.53" d="M151.93,-98.17C162.98,-101.39 173.61,-97.28 173.61,-85.85 173.61,-78.17 168.81,-73.8 162.31,-72.73"/>
<polygon fill="red" stroke="red" stroke-width="0.53" points="162.43,-69.21 152.73,-73.47 162.97,-76.19 162.43,-69.21"/>
</g>
<!-- 279&#45;&gt;179 -->
<g id="edge44" class="edge">
<title>279&#45;&gt;179</title>
<path fill="none" stroke="red" stroke-width="0.45" d="M317.82,-143.46C320.9,-135.12 324.58,-125.16 328,-115.93"/>
<polygon fill="red" stroke="red" stroke-width="0.45" points="331.26,-117.19 331.45,-106.6 324.7,-114.76 331.26,-117.19"/>
</g>
</g>
</svg>
