<?xml version="1.0" encoding="UTF-8" standalone="no"?>
<!DOCTYPE svg PUBLIC "-//W3C//DTD SVG 1.1//EN"
 "http://www.w3.org/Graphics/SVG/1.1/DTD/svg11.dtd">
<!-- Generated by graphviz version 12.1.1 (20240910.0053)
 -->
<!-- Pages: 1 -->
<svg width="805pt" height="402pt"
 viewBox="0.00 0.00 805.00 402.37" xmlns="http://www.w3.org/2000/svg" xmlns:xlink="http://www.w3.org/1999/xlink">
<g id="graph0" class="graph" transform="scale(1 1) rotate(0) translate(4 398.37)">
<polygon fill="white" stroke="none" points="-4,4 -4,-398.37 801,-398.37 801,4 -4,4"/>
<!-- &#45;1 -->
<g id="node1" class="node">
<title>&#45;1</title>
<polygon fill="lightgray" stroke="black" points="157.75,-328.26 134.25,-328.26 134.25,-309.76 157.75,-309.76 157.75,-328.26"/>
<text text-anchor="middle" x="146" y="-315.71" font-family="Times,serif" font-size="9.00">&#45;1</text>
</g>
<!-- 203 -->
<g id="node28" class="node">
<title>203</title>
<ellipse fill="white" stroke="black" cx="173" cy="-241.29" rx="20.86" ry="20.86"/>
<text text-anchor="middle" x="173" y="-237.99" font-family="Times,serif" font-size="9.00">203</text>
</g>
<!-- &#45;1&#45;&gt;203 -->
<g id="edge32" class="edge">
<title>&#45;1&#45;&gt;203</title>
<path fill="none" stroke="red" stroke-width="0.21" d="M149.1,-309.32C152.44,-299.95 157.95,-284.51 162.83,-270.81"/>
<polygon fill="red" stroke="red" stroke-width="0.21" points="166.07,-272.15 166.13,-261.55 159.48,-269.8 166.07,-272.15"/>
</g>
<!-- &#45;2 -->
<g id="node2" class="node">
<title>&#45;2</title>
<polygon fill="lightgray" stroke="black" points="503.75,-328.26 480.25,-328.26 480.25,-309.76 503.75,-309.76 503.75,-328.26"/>
<text text-anchor="middle" x="492" y="-315.71" font-family="Times,serif" font-size="9.00">&#45;2</text>
</g>
<!-- 201 -->
<g id="node26" class="node">
<title>201</title>
<ellipse fill="white" stroke="black" cx="416" cy="-241.29" rx="20.86" ry="20.86"/>
<text text-anchor="middle" x="416" y="-237.99" font-family="Times,serif" font-size="9.00">201</text>
</g>
<!-- &#45;2&#45;&gt;201 -->
<g id="edge36" class="edge">
<title>&#45;2&#45;&gt;201</title>
<path fill="none" stroke="red" stroke-width="0.56" stroke-dasharray="1,5" d="M483.28,-309.32C472.33,-298.41 453.13,-279.28 438.04,-264.24"/>
<polygon fill="red" stroke="red" stroke-width="0.56" points="440.74,-262 431.19,-257.42 435.8,-266.96 440.74,-262"/>
</g>
<!-- 202 -->
<g id="node27" class="node">
<title>202</title>
<ellipse fill="white" stroke="black" cx="531" cy="-241.29" rx="20.86" ry="20.86"/>
<text text-anchor="middle" x="531" y="-237.99" font-family="Times,serif" font-size="9.00">202</text>
</g>
<!-- &#45;2&#45;&gt;202 -->
<g id="edge6" class="edge">
<title>&#45;2&#45;&gt;202</title>
<path fill="none" stroke="red" stroke-width="0.35" d="M496.47,-309.32C501.45,-299.66 509.73,-283.58 516.94,-269.59"/>
<polygon fill="red" stroke="red" stroke-width="0.35" points="519.99,-271.31 521.46,-260.81 513.77,-268.1 519.99,-271.31"/>
</g>
<!-- &#45;3 -->
<g id="node3" class="node">
<title>&#45;3</title>
<polygon fill="lightgray" stroke="black" points="363.75,-328.26 340.25,-328.26 340.25,-309.76 363.75,-309.76 363.75,-328.26"/>
<text text-anchor="middle" x="352" y="-315.71" font-family="Times,serif" font-size="9.00">&#45;3</text>
</g>
<!-- &#45;3&#45;&gt;201 -->
<g id="edge17" class="edge">
<title>&#45;3&#45;&gt;201</title>
<path fill="none" stroke="red" stroke-width="0.38" d="M359.34,-309.32C368.26,-298.77 383.67,-280.54 396.17,-265.75"/>
<polygon fill="red" stroke="red" stroke-width="0.38" points="398.6,-268.3 402.38,-258.4 393.25,-263.78 398.6,-268.3"/>
</g>
<!-- &#45;4 -->
<g id="node4" class="node">
<title>&#45;4</title>
<polygon fill="lightgray" stroke="black" points="545.75,-328.26 522.25,-328.26 522.25,-309.76 545.75,-309.76 545.75,-328.26"/>
<text text-anchor="middle" x="534" y="-315.71" font-family="Times,serif" font-size="9.00">&#45;4</text>
</g>
<!-- &#45;4&#45;&gt;202 -->
<g id="edge37" class="edge">
<title>&#45;4&#45;&gt;202</title>
<path fill="none" stroke="red" stroke-width="0.38" stroke-dasharray="1,5" d="M533.66,-309.32C533.3,-300.37 532.73,-285.9 532.2,-272.69"/>
<polygon fill="red" stroke="red" stroke-width="0.38" points="535.72,-272.93 531.82,-263.07 528.72,-273.2 535.72,-272.93"/>
</g>
<!-- &#45;5 -->
<g id="node5" class="node">
<title>&#45;5</title>
<polygon fill="lightgray" stroke="black" points="279.75,-328.26 256.25,-328.26 256.25,-309.76 279.75,-309.76 279.75,-328.26"/>
<text text-anchor="middle" x="268" y="-315.71" font-family="Times,serif" font-size="9.00">&#45;5</text>
</g>
<!-- 2 -->
<g id="node23" class="node">
<title>2</title>
<ellipse fill="lightblue" stroke="black" cx="264" cy="-163.57" rx="14.5" ry="14.5"/>
<text text-anchor="middle" x="264" y="-160.27" font-family="Times,serif" font-size="9.00">2</text>
</g>
<!-- &#45;5&#45;&gt;2 -->
<g id="edge44" class="edge">
<title>&#45;5&#45;&gt;2</title>
<path fill="none" stroke="red" stroke-width="0.2" d="M271.87,-309.53C276.54,-298.77 284.12,-279.53 287,-262.15 290.03,-243.86 290.6,-238.62 287,-220.43 284.62,-208.42 279.64,-195.75 274.91,-185.52"/>
<polygon fill="red" stroke="red" stroke-width="0.2" points="278.2,-184.29 270.68,-176.83 271.91,-187.36 278.2,-184.29"/>
</g>
<!-- &#45;5&#45;&gt;201 -->
<g id="edge40" class="edge">
<title>&#45;5&#45;&gt;201</title>
<path fill="none" stroke="red" stroke-width="0.12" d="M275.62,-309.57C279.38,-305.75 284.15,-301.37 289,-298.15 319.96,-277.6 359.74,-261.53 386.45,-252"/>
<polygon fill="red" stroke="red" stroke-width="0.12" points="387.54,-255.33 395.84,-248.74 385.24,-248.72 387.54,-255.33"/>
</g>
<!-- &#45;5&#45;&gt;203 -->
<g id="edge19" class="edge">
<title>&#45;5&#45;&gt;203</title>
<path fill="none" stroke="green" stroke-width="0.1" stroke-dasharray="1,5" d="M259.21,-309.28C255.52,-305.73 251.14,-301.65 247,-298.15 231.18,-284.77 212.56,-270.72 197.95,-260.06"/>
<polygon fill="green" stroke="green" stroke-width="0.1" points="200.14,-257.32 189.99,-254.29 196.04,-262.99 200.14,-257.32"/>
</g>
<!-- &#45;6 -->
<g id="node6" class="node">
<title>&#45;6</title>
<polygon fill="lightgray" stroke="black" points="321.75,-328.26 298.25,-328.26 298.25,-309.76 321.75,-309.76 321.75,-328.26"/>
<text text-anchor="middle" x="310" y="-315.71" font-family="Times,serif" font-size="9.00">&#45;6</text>
</g>
<!-- &#45;6&#45;&gt;201 -->
<g id="edge39" class="edge">
<title>&#45;6&#45;&gt;201</title>
<path fill="none" stroke="green" stroke-width="0.46" stroke-dasharray="1,5" d="M318.28,-309.54C322.02,-305.87 326.59,-301.64 331,-298.15 349.58,-283.45 372.03,-268.82 389.19,-258.22"/>
<polygon fill="green" stroke="green" stroke-width="0.46" points="390.81,-261.33 397.52,-253.13 387.16,-255.35 390.81,-261.33"/>
</g>
<!-- &#45;6&#45;&gt;202 -->
<g id="edge25" class="edge">
<title>&#45;6&#45;&gt;202</title>
<path fill="none" stroke="red" stroke-width="0.19" d="M317.05,-309.66C320.82,-305.66 325.76,-301.11 331,-298.15 345.93,-289.7 449.19,-262.94 501.2,-249.77"/>
<polygon fill="red" stroke="red" stroke-width="0.19" points="501.76,-253.24 510.6,-247.39 500.04,-246.45 501.76,-253.24"/>
</g>
<!-- &#45;6&#45;&gt;203 -->
<g id="edge2" class="edge">
<title>&#45;6&#45;&gt;203</title>
<path fill="none" stroke="red" stroke-width="0.33" stroke-dasharray="1,5" d="M302.33,-309.65C298.55,-305.84 293.79,-301.45 289,-298.15 261.46,-279.18 226.48,-263.3 202.17,-253.38"/>
<polygon fill="red" stroke="red" stroke-width="0.33" points="203.51,-250.15 192.92,-249.69 200.91,-256.65 203.51,-250.15"/>
</g>
<!-- &#45;7 -->
<g id="node7" class="node">
<title>&#45;7</title>
<polygon fill="lightgray" stroke="black" points="447.75,-394.37 424.25,-394.37 424.25,-375.87 447.75,-375.87 447.75,-394.37"/>
<text text-anchor="middle" x="436" y="-381.82" font-family="Times,serif" font-size="9.00">&#45;7</text>
</g>
<!-- &#45;8 -->
<g id="node8" class="node">
<title>&#45;8</title>
<polygon fill="lightgray" stroke="black" points="115.75,-328.26 92.25,-328.26 92.25,-309.76 115.75,-309.76 115.75,-328.26"/>
<text text-anchor="middle" x="104" y="-315.71" font-family="Times,serif" font-size="9.00">&#45;8</text>
</g>
<!-- &#45;8&#45;&gt;203 -->
<g id="edge21" class="edge">
<title>&#45;8&#45;&gt;203</title>
<path fill="none" stroke="red" stroke-width="0.31" stroke-dasharray="1,5" d="M111.92,-309.32C121.74,-298.54 138.87,-279.74 152.49,-264.79"/>
<polygon fill="red" stroke="red" stroke-width="0.31" points="154.78,-267.48 158.93,-257.73 149.61,-262.77 154.78,-267.48"/>
</g>
<!-- &#45;9 -->
<g id="node9" class="node">
<title>&#45;9</title>
<polygon fill="lightgray" stroke="black" points="237.75,-328.26 214.25,-328.26 214.25,-309.76 237.75,-309.76 237.75,-328.26"/>
<text text-anchor="middle" x="226" y="-315.71" font-family="Times,serif" font-size="9.00">&#45;9</text>
</g>
<!-- &#45;9&#45;&gt;203 -->
<g id="edge33" class="edge">
<title>&#45;9&#45;&gt;203</title>
<path fill="none" stroke="green" stroke-width="0.2" d="M219.92,-309.32C212.74,-299.06 200.48,-281.55 190.29,-266.99"/>
<polygon fill="green" stroke="green" stroke-width="0.2" points="193.36,-265.27 184.76,-259.09 187.62,-269.29 193.36,-265.27"/>
</g>
<!-- 204 -->
<g id="node29" class="node">
<title>204</title>
<ellipse fill="white" stroke="black" cx="580" cy="-85.85" rx="20.86" ry="20.86"/>
<text text-anchor="middle" x="580" y="-82.55" font-family="Times,serif" font-size="9.00">204</text>
</g>
<!-- &#45;9&#45;&gt;204 -->
<g id="edge29" class="edge">
<title>&#45;9&#45;&gt;204</title>
<path fill="none" stroke="green" stroke-width="0.72" stroke-dasharray="1,5" d="M223.49,-309.28C215.95,-280.95 196.62,-190.7 241,-142.71 251.46,-131.4 465.75,-101.98 548.13,-91.03"/>
<polygon fill="green" stroke="green" stroke-width="0.72" points="548.52,-94.51 557.98,-89.73 547.6,-87.57 548.52,-94.51"/>
</g>
<!-- &#45;10 -->
<g id="node10" class="node">
<title>&#45;10</title>
<polygon fill="lightgray" stroke="black" points="592,-328.26 564,-328.26 564,-309.76 592,-309.76 592,-328.26"/>
<text text-anchor="middle" x="578" y="-315.71" font-family="Times,serif" font-size="9.00">&#45;10</text>
</g>
<!-- &#45;10&#45;&gt;201 -->
<g id="edge42" class="edge">
<title>&#45;10&#45;&gt;201</title>
<path fill="none" stroke="green" stroke-width="0.23" d="M569.58,-309.54C565.44,-305.71 560.23,-301.33 555,-298.15 519.64,-276.6 474.49,-260.25 445.41,-250.97"/>
<polygon fill="green" stroke="green" stroke-width="0.23" points="446.75,-247.72 436.17,-248.08 444.67,-254.4 446.75,-247.72"/>
</g>
<!-- &#45;10&#45;&gt;202 -->
<g id="edge30" class="edge">
<title>&#45;10&#45;&gt;202</title>
<path fill="none" stroke="red" stroke-width="0.11" stroke-dasharray="1,5" d="M572.61,-309.32C566.38,-299.29 555.84,-282.31 546.93,-267.95"/>
<polygon fill="red" stroke="red" stroke-width="0.11" points="549.97,-266.22 541.73,-259.57 544.03,-269.91 549.97,-266.22"/>
</g>
<!-- &#45;10&#45;&gt;204 -->
<g id="edge9" class="edge">
<title>&#45;10&#45;&gt;204</title>
<path fill="none" stroke="green" stroke-width="0.3" d="M578.07,-309.51C578.34,-278.49 579.28,-170.46 579.74,-117.12"/>
<polygon fill="green" stroke="green" stroke-width="0.3" points="583.24,-117.41 579.82,-107.38 576.24,-117.35 583.24,-117.41"/>
</g>
<!-- &#45;11 -->
<g id="node11" class="node">
<title>&#45;11</title>
<polygon fill="lightgray" stroke="black" points="684,-328.26 656,-328.26 656,-309.76 684,-309.76 684,-328.26"/>
<text text-anchor="middle" x="670" y="-315.71" font-family="Times,serif" font-size="9.00">&#45;11</text>
</g>
<!-- &#45;11&#45;&gt;202 -->
<g id="edge24" class="edge">
<title>&#45;11&#45;&gt;202</title>
<path fill="none" stroke="green" stroke-width="0.16" d="M661.04,-309.3C656.96,-305.6 651.94,-301.39 647,-298.15 618.91,-279.72 583.82,-263.68 559.63,-253.57"/>
<polygon fill="green" stroke="green" stroke-width="0.16" points="561.1,-250.39 550.52,-249.83 558.45,-256.87 561.1,-250.39"/>
</g>
<!-- &#45;12 -->
<g id="node12" class="node">
<title>&#45;12</title>
<polygon fill="lightgray" stroke="black" points="730,-328.26 702,-328.26 702,-309.76 730,-309.76 730,-328.26"/>
<text text-anchor="middle" x="716" y="-315.71" font-family="Times,serif" font-size="9.00">&#45;12</text>
</g>
<!-- &#45;12&#45;&gt;201 -->
<g id="edge8" class="edge">
<title>&#45;12&#45;&gt;201</title>
<path fill="none" stroke="red" stroke-width="0.25" stroke-dasharray="1,5" d="M708.25,-309.48C704.11,-305.43 698.7,-300.9 693,-298.15 614.78,-260.48 585.96,-280.03 501,-262.15 482.75,-258.31 462.41,-253.57 446.2,-249.69"/>
<polygon fill="red" stroke="red" stroke-width="0.25" points="447.11,-246.31 436.57,-247.36 445.47,-253.11 447.11,-246.31"/>
</g>
<!-- &#45;12&#45;&gt;202 -->
<g id="edge18" class="edge">
<title>&#45;12&#45;&gt;202</title>
<path fill="none" stroke="green" stroke-width="0.12" stroke-dasharray="1,5" d="M707.65,-309.43C703.52,-305.57 698.3,-301.2 693,-298.15 650.24,-273.54 594.89,-257.37 561.21,-249.04"/>
<polygon fill="green" stroke="green" stroke-width="0.12" points="562.21,-245.68 551.66,-246.74 560.57,-252.48 562.21,-245.68"/>
</g>
<!-- &#45;12&#45;&gt;203 -->
<g id="edge13" class="edge">
<title>&#45;12&#45;&gt;203</title>
<path fill="none" stroke="green" stroke-width="0.19" stroke-dasharray="1,5" d="M708.78,-309.63C704.62,-305.41 699.04,-300.67 693,-298.15 507.06,-220.44 439.2,-298.59 241,-262.15 228.05,-259.77 214.05,-255.91 202.13,-252.22"/>
<polygon fill="green" stroke="green" stroke-width="0.19" points="203.55,-249 192.96,-249.29 201.42,-255.67 203.55,-249"/>
</g>
<!-- &#45;12&#45;&gt;204 -->
<g id="edge14" class="edge">
<title>&#45;12&#45;&gt;204</title>
<path fill="none" stroke="red" stroke-width="0.24" stroke-dasharray="1,5" d="M718.37,-309.34C725.47,-281.21 743.56,-191.49 700,-142.71 676.25,-116.11 637.2,-101.24 610.13,-93.64"/>
<polygon fill="red" stroke="red" stroke-width="0.24" points="611.3,-90.33 600.74,-91.17 609.52,-97.1 611.3,-90.33"/>
</g>
<!-- 299 -->
<g id="node30" class="node">
<title>299</title>
<ellipse fill="white" stroke="black" cx="696" cy="-241.29" rx="20.86" ry="20.86"/>
<text text-anchor="middle" x="696" y="-237.99" font-family="Times,serif" font-size="9.00">299</text>
</g>
<!-- &#45;12&#45;&gt;299 -->
<g id="edge45" class="edge">
<title>&#45;12&#45;&gt;299</title>
<path fill="none" stroke="green" stroke-width="0.64" d="M713.71,-309.32C711.31,-300.25 707.41,-285.51 703.89,-272.15"/>
<polygon fill="green" stroke="green" stroke-width="0.64" points="707.36,-271.59 701.42,-262.81 700.59,-273.38 707.36,-271.59"/>
</g>
<!-- &#45;13 -->
<g id="node13" class="node">
<title>&#45;13</title>
<polygon fill="lightgray" stroke="black" points="28,-328.26 0,-328.26 0,-309.76 28,-309.76 28,-328.26"/>
<text text-anchor="middle" x="14" y="-315.71" font-family="Times,serif" font-size="9.00">&#45;13</text>
</g>
<!-- &#45;13&#45;&gt;203 -->
<g id="edge20" class="edge">
<title>&#45;13&#45;&gt;203</title>
<path fill="none" stroke="green" stroke-width="0.14" d="M22.43,-309.56C26.57,-305.73 31.79,-301.35 37,-298.15 71.43,-276.99 115.3,-260.64 143.75,-251.24"/>
<polygon fill="green" stroke="green" stroke-width="0.14" points="144.5,-254.68 152.94,-248.27 142.35,-248.01 144.5,-254.68"/>
</g>
<!-- &#45;13&#45;&gt;204 -->
<g id="edge10" class="edge">
<title>&#45;13&#45;&gt;204</title>
<path fill="none" stroke="green" stroke-width="0.41" stroke-dasharray="1,5" d="M17.88,-309.47C31.69,-280.16 81.71,-183.19 156,-142.71 164.68,-137.98 452.55,-102.44 548.92,-90.64"/>
<polygon fill="green" stroke="green" stroke-width="0.41" points="549.06,-94.15 558.56,-89.46 548.21,-87.2 549.06,-94.15"/>
</g>
<!-- &#45;14 -->
<g id="node14" class="node">
<title>&#45;14</title>
<polygon fill="lightgray" stroke="black" points="408,-172.82 380,-172.82 380,-154.32 408,-154.32 408,-172.82"/>
<text text-anchor="middle" x="394" y="-160.27" font-family="Times,serif" font-size="9.00">&#45;14</text>
</g>
<!-- &#45;14&#45;&gt;204 -->
<g id="edge7" class="edge">
<title>&#45;14&#45;&gt;204</title>
<path fill="none" stroke="red" stroke-width="0.26" d="M402.35,-153.98C406.47,-150.12 411.69,-145.76 417,-142.71 460.02,-118.01 515.71,-101.87 549.6,-93.56"/>
<polygon fill="red" stroke="red" stroke-width="0.26" points="550.08,-97.05 558.99,-91.33 548.46,-90.24 550.08,-97.05"/>
</g>
<!-- &#45;15 -->
<g id="node15" class="node">
<title>&#45;15</title>
<polygon fill="lightgray" stroke="black" points="278,-250.54 250,-250.54 250,-232.04 278,-232.04 278,-250.54"/>
<text text-anchor="middle" x="264" y="-237.99" font-family="Times,serif" font-size="9.00">&#45;15</text>
</g>
<!-- &#45;15&#45;&gt;2 -->
<g id="edge47" class="edge">
<title>&#45;15&#45;&gt;2</title>
<path fill="none" stroke="red" stroke-width="0.37" d="M264,-231.6C264,-221.26 264,-203.56 264,-188.94"/>
<polygon fill="red" stroke="red" stroke-width="0.37" points="267.5,-189.1 264,-179.1 260.5,-189.1 267.5,-189.1"/>
</g>
<!-- &#45;16 -->
<g id="node16" class="node">
<title>&#45;16</title>
<polygon fill="lightgray" stroke="black" points="406,-394.37 378,-394.37 378,-375.87 406,-375.87 406,-394.37"/>
<text text-anchor="middle" x="392" y="-381.82" font-family="Times,serif" font-size="9.00">&#45;16</text>
</g>
<!-- &#45;16&#45;&gt;201 -->
<g id="edge22" class="edge">
<title>&#45;16&#45;&gt;201</title>
<path fill="none" stroke="green" stroke-width="0.19" stroke-dasharray="1,5" d="M393.43,-375.67C396.8,-355.76 405.37,-305.1 410.93,-272.26"/>
<polygon fill="green" stroke="green" stroke-width="0.19" points="414.35,-273.01 412.57,-262.57 407.45,-271.84 414.35,-273.01"/>
</g>
<!-- &#45;16&#45;&gt;203 -->
<g id="edge16" class="edge">
<title>&#45;16&#45;&gt;203</title>
<path fill="none" stroke="red" stroke-width="0.21" stroke-dasharray="1,5" d="M377.72,-382.54C338.55,-377.95 230.61,-363.4 205,-339.87 186.27,-322.66 178.48,-294.33 175.25,-272.62"/>
<polygon fill="red" stroke="red" stroke-width="0.21" points="178.75,-272.37 174.04,-262.88 171.8,-273.23 178.75,-272.37"/>
</g>
<!-- 346 -->
<g id="node32" class="node">
<title>346</title>
<ellipse fill="white" stroke="black" cx="441" cy="-319.01" rx="20.86" ry="20.86"/>
<text text-anchor="middle" x="441" y="-315.71" font-family="Times,serif" font-size="9.00">346</text>
</g>
<!-- &#45;16&#45;&gt;346 -->
<g id="edge51" class="edge">
<title>&#45;16&#45;&gt;346</title>
<path fill="none" stroke="green" stroke-width="0.25" d="M398.61,-375.47C404.73,-367.47 414.12,-355.17 422.52,-344.19"/>
<polygon fill="green" stroke="green" stroke-width="0.25" points="425.15,-346.51 428.44,-336.44 419.58,-342.26 425.15,-346.51"/>
</g>
<!-- &#45;17 -->
<g id="node17" class="node">
<title>&#45;17</title>
<polygon fill="lightgray" stroke="black" points="797,-328.26 769,-328.26 769,-309.76 797,-309.76 797,-328.26"/>
<text text-anchor="middle" x="783" y="-315.71" font-family="Times,serif" font-size="9.00">&#45;17</text>
</g>
<!-- &#45;17&#45;&gt;202 -->
<g id="edge12" class="edge">
<title>&#45;17&#45;&gt;202</title>
<path fill="none" stroke="red" stroke-width="0.17" stroke-dasharray="1,5" d="M768.58,-310.79C760.1,-306.72 749.1,-301.76 739,-298.15 677.13,-276.04 602.21,-257.97 561.29,-248.8"/>
<polygon fill="red" stroke="red" stroke-width="0.17" points="562.18,-245.42 551.66,-246.67 560.67,-252.25 562.18,-245.42"/>
</g>
<!-- &#45;17&#45;&gt;204 -->
<g id="edge23" class="edge">
<title>&#45;17&#45;&gt;204</title>
<path fill="none" stroke="green" stroke-width="0.7" d="M782.77,-309.3C781.54,-281.03 773.79,-190.93 725,-142.71 693.85,-111.92 643.89,-97.72 611.51,-91.45"/>
<polygon fill="green" stroke="green" stroke-width="0.7" points="612.35,-88.04 601.89,-89.73 611.12,-94.93 612.35,-88.04"/>
</g>
<!-- 341 -->
<g id="node31" class="node">
<title>341</title>
<ellipse fill="white" stroke="black" cx="531" cy="-163.57" rx="20.86" ry="20.86"/>
<text text-anchor="middle" x="531" y="-160.27" font-family="Times,serif" font-size="9.00">341</text>
</g>
<!-- &#45;17&#45;&gt;341 -->
<g id="edge50" class="edge">
<title>&#45;17&#45;&gt;341</title>
<path fill="none" stroke="green" stroke-width="0.41" d="M780.46,-309.49C774.36,-290.5 757.02,-244.46 726,-220.43 679.62,-184.5 655.38,-200.65 599,-184.43 586.48,-180.83 572.67,-176.8 560.79,-173.33"/>
<polygon fill="green" stroke="green" stroke-width="0.41" points="562.1,-170.06 551.51,-170.61 560.13,-176.78 562.1,-170.06"/>
</g>
<!-- &#45;18 -->
<g id="node18" class="node">
<title>&#45;18</title>
<polygon fill="lightgray" stroke="black" points="638,-328.26 610,-328.26 610,-309.76 638,-309.76 638,-328.26"/>
<text text-anchor="middle" x="624" y="-315.71" font-family="Times,serif" font-size="9.00">&#45;18</text>
</g>
<!-- &#45;18&#45;&gt;201 -->
<g id="edge11" class="edge">
<title>&#45;18&#45;&gt;201</title>
<path fill="none" stroke="red" stroke-width="0.31" d="M615.7,-309.33C611.59,-305.45 606.36,-301.1 601,-298.15 574.19,-283.41 491.69,-261.32 446.45,-249.83"/>
<polygon fill="red" stroke="red" stroke-width="0.31" points="447.34,-246.45 436.79,-247.4 445.63,-253.24 447.34,-246.45"/>
</g>
<!-- &#45;18&#45;&gt;204 -->
<g id="edge1" class="edge">
<title>&#45;18&#45;&gt;204</title>
<path fill="none" stroke="red" stroke-width="0.11" stroke-dasharray="1,5" d="M628.05,-309.49C639.92,-283.23 672.11,-201.76 645,-142.71 637.08,-125.47 620.92,-111.54 606.7,-101.91"/>
<polygon fill="red" stroke="red" stroke-width="0.11" points="608.64,-98.99 598.32,-96.56 604.87,-104.89 608.64,-98.99"/>
</g>
<!-- &#45;19 -->
<g id="node19" class="node">
<title>&#45;19</title>
<polygon fill="lightgray" stroke="black" points="74,-328.26 46,-328.26 46,-309.76 74,-309.76 74,-328.26"/>
<text text-anchor="middle" x="60" y="-315.71" font-family="Times,serif" font-size="9.00">&#45;19</text>
</g>
<!-- &#45;19&#45;&gt;203 -->
<g id="edge15" class="edge">
<title>&#45;19&#45;&gt;203</title>
<path fill="none" stroke="green" stroke-width="0.12" d="M69.13,-309.55C73.24,-305.89 78.24,-301.65 83,-298.15 103.41,-283.15 127.91,-268.12 146.19,-257.44"/>
<polygon fill="green" stroke="green" stroke-width="0.12" points="147.81,-260.54 154.72,-252.5 144.31,-254.48 147.81,-260.54"/>
</g>
<!-- &#45;19&#45;&gt;204 -->
<g id="edge34" class="edge">
<title>&#45;19&#45;&gt;204</title>
<path fill="none" stroke="green" stroke-width="0.17" d="M64.49,-309.52C80.43,-280.36 137.48,-183.83 215,-142.71 244.4,-127.12 466.25,-100.07 549,-90.41"/>
<polygon fill="green" stroke="green" stroke-width="0.17" points="549.27,-93.9 558.79,-89.27 548.46,-86.95 549.27,-93.9"/>
</g>
<!-- &#45;20 -->
<g id="node20" class="node">
<title>&#45;20</title>
<polygon fill="lightgray" stroke="black" points="636,-172.82 608,-172.82 608,-154.32 636,-154.32 636,-172.82"/>
<text text-anchor="middle" x="622" y="-160.27" font-family="Times,serif" font-size="9.00">&#45;20</text>
</g>
<!-- &#45;20&#45;&gt;204 -->
<g id="edge41" class="edge">
<title>&#45;20&#45;&gt;204</title>
<path fill="none" stroke="green" stroke-width="0.1" d="M617.18,-153.88C611.74,-144.07 602.61,-127.62 594.76,-113.47"/>
<polygon fill="green" stroke="green" stroke-width="0.1" points="597.83,-111.78 589.92,-104.73 591.71,-115.18 597.83,-111.78"/>
</g>
<!-- 0 -->
<g id="node21" class="node">
<title>0</title>
<ellipse fill="lightblue" stroke="black" cx="580" cy="-14.5" rx="14.5" ry="14.5"/>
<text text-anchor="middle" x="580" y="-11.2" font-family="Times,serif" font-size="9.00">0</text>
</g>
<!-- 1 -->
<g id="node22" class="node">
<title>1</title>
<ellipse fill="lightblue" stroke="black" cx="348" cy="-163.57" rx="14.5" ry="14.5"/>
<text text-anchor="middle" x="348" y="-160.27" font-family="Times,serif" font-size="9.00">1</text>
</g>
<!-- 1&#45;&gt;204 -->
<g id="edge43" class="edge">
<title>1&#45;&gt;204</title>
<path fill="none" stroke="green" stroke-width="0.28" stroke-dasharray="1,5" d="M357.57,-152.59C361.45,-149.04 366.15,-145.28 371,-142.71 429.48,-111.76 506.45,-96.96 548.76,-90.73"/>
<polygon fill="green" stroke="green" stroke-width="0.28" points="549.16,-94.21 558.58,-89.35 548.19,-87.28 549.16,-94.21"/>
</g>
<!-- 3 -->
<g id="node24" class="node">
<title>3</title>
<ellipse fill="lightblue" stroke="black" cx="394" cy="-85.85" rx="14.5" ry="14.5"/>
<text text-anchor="middle" x="394" y="-82.55" font-family="Times,serif" font-size="9.00">3</text>
</g>
<!-- 4 -->
<g id="node25" class="node">
<title>4</title>
<ellipse fill="lightblue" stroke="black" cx="440" cy="-163.57" rx="14.5" ry="14.5"/>
<text text-anchor="middle" x="440" y="-160.27" font-family="Times,serif" font-size="9.00">4</text>
</g>
<!-- 201&#45;&gt;1 -->
<g id="edge31" class="edge">
<title>201&#45;&gt;1</title>
<path fill="none" stroke="red" stroke-width="0.34" d="M402.24,-224.97C391.29,-212.77 375.93,-195.67 364.35,-182.78"/>
<polygon fill="red" stroke="red" stroke-width="0.34" points="367,-180.49 357.72,-175.39 361.8,-185.17 367,-180.49"/>
</g>
<!-- 201&#45;&gt;2 -->
<g id="edge28" class="edge">
<title>201&#45;&gt;2</title>
<path fill="none" stroke="red" stroke-width="0.33" stroke-dasharray="1,5" d="M396.53,-232.88C371.61,-223.1 327.45,-204.73 292,-184.43 289.19,-182.82 286.32,-181.01 283.53,-179.14"/>
<polygon fill="red" stroke="red" stroke-width="0.33" points="285.71,-176.39 275.52,-173.49 281.68,-182.11 285.71,-176.39"/>
</g>
<!-- 201&#45;&gt;3 -->
<g id="edge5" class="edge">
<title>201&#45;&gt;3</title>
<path fill="none" stroke="red" stroke-width="0.24" d="M396.13,-234.53C374.24,-226.99 340.12,-211.45 325,-184.43 315.95,-168.25 317.02,-159.45 325,-142.71 334.65,-122.48 355.61,-107.2 371.91,-97.78"/>
<polygon fill="red" stroke="red" stroke-width="0.24" points="373.42,-100.95 380.54,-93.09 370.08,-94.8 373.42,-100.95"/>
</g>
<!-- 201&#45;&gt;4 -->
<g id="edge4" class="edge">
<title>201&#45;&gt;4</title>
<path fill="none" stroke="green" stroke-width="0.8" d="M422.06,-221.18C425.2,-211.27 429.06,-199.07 432.4,-188.53"/>
<polygon fill="green" stroke="green" stroke-width="0.8" points="435.71,-189.69 435.4,-179.1 429.04,-187.57 435.71,-189.69"/>
</g>
<!-- 201&#45;&gt;341 -->
<g id="edge48" class="edge">
<title>201&#45;&gt;341</title>
<path fill="none" stroke="red" stroke-width="0.2" d="M432.97,-229.12C452.08,-216.53 483.34,-195.95 505.42,-181.42"/>
<polygon fill="red" stroke="red" stroke-width="0.2" points="507.29,-184.37 513.71,-175.95 503.44,-178.53 507.29,-184.37"/>
</g>
<!-- 202&#45;&gt;2 -->
<g id="edge38" class="edge">
<title>202&#45;&gt;2</title>
<path fill="none" stroke="green" stroke-width="0.53" stroke-dasharray="1,5" d="M510.73,-235.15C473.69,-225.68 392.65,-204.6 325,-184.43 312.54,-180.72 298.77,-176.26 287.46,-172.51"/>
<polygon fill="green" stroke="green" stroke-width="0.53" points="288.86,-169.29 278.27,-169.44 286.64,-175.93 288.86,-169.29"/>
</g>
<!-- 202&#45;&gt;3 -->
<g id="edge27" class="edge">
<title>202&#45;&gt;3</title>
<path fill="none" stroke="green" stroke-width="0.44" d="M520.8,-222.63C508.53,-202.19 486.63,-168.11 463,-142.71 448.13,-126.73 428.6,-111.34 414.11,-100.77"/>
<polygon fill="green" stroke="green" stroke-width="0.44" points="416.55,-98.21 406.38,-95.24 412.48,-103.91 416.55,-98.21"/>
</g>
<!-- 203&#45;&gt;2 -->
<g id="edge3" class="edge">
<title>203&#45;&gt;2</title>
<path fill="none" stroke="green" stroke-width="0.88" d="M188.85,-227.1C204.4,-214.16 228.14,-194.4 244.77,-180.57"/>
<polygon fill="green" stroke="green" stroke-width="0.88" points="246.7,-183.52 252.15,-174.43 242.22,-178.14 246.7,-183.52"/>
</g>
<!-- 203&#45;&gt;3 -->
<g id="edge35" class="edge">
<title>203&#45;&gt;3</title>
<path fill="none" stroke="red" stroke-width="0.56" stroke-dasharray="1,5" d="M174.9,-220.21C178.04,-198.2 186.33,-163.27 208,-142.71 252.87,-100.14 328.95,-89.9 368.47,-87.51"/>
<polygon fill="red" stroke="red" stroke-width="0.56" points="368.59,-91.01 378.41,-87.04 368.26,-84.02 368.59,-91.01"/>
</g>
<!-- 204&#45;&gt;0 -->
<g id="edge26" class="edge">
<title>204&#45;&gt;0</title>
<path fill="none" stroke="green" stroke-width="0.28" stroke-dasharray="1,5" d="M580,-64.79C580,-56.98 580,-47.96 580,-39.78"/>
<polygon fill="green" stroke="green" stroke-width="0.28" points="583.5,-39.78 580,-29.78 576.5,-39.78 583.5,-39.78"/>
</g>
<!-- 299&#45;&gt;204 -->
<g id="edge46" class="edge">
<title>299&#45;&gt;204</title>
<path fill="none" stroke="red" stroke-width="0.28" d="M697.04,-220.08C697.11,-198.9 694.26,-165.6 678,-142.71 661.48,-119.45 632.02,-104.57 609.71,-96.07"/>
<polygon fill="red" stroke="red" stroke-width="0.28" points="611.02,-92.82 600.43,-92.75 608.66,-99.42 611.02,-92.82"/>
</g>
<!-- 341&#45;&gt;3 -->
<g id="edge49" class="edge">
<title>341&#45;&gt;3</title>
<path fill="none" stroke="red" stroke-width="0.22" d="M513.22,-152.42C507.71,-149.29 501.61,-145.84 496,-142.71 468.29,-127.26 436.17,-109.74 415.5,-98.5"/>
<polygon fill="red" stroke="red" stroke-width="0.22" points="417.34,-95.52 406.89,-93.83 414,-101.67 417.34,-95.52"/>
</g>
<!-- 346&#45;&gt;201 -->
<g id="edge52" class="edge">
<title>346&#45;&gt;201</title>
<path fill="none" stroke="green" stroke-width="0.22" d="M434.69,-298.9C431.93,-290.54 428.63,-280.54 425.57,-271.29"/>
<polygon fill="green" stroke="green" stroke-width="0.22" points="428.96,-270.37 422.5,-261.97 422.31,-272.56 428.96,-270.37"/>
</g>
</g>
</svg>
