<?xml version="1.0" encoding="UTF-8" standalone="no"?>
<!DOCTYPE svg PUBLIC "-//W3C//DTD SVG 1.1//EN"
 "http://www.w3.org/Graphics/SVG/1.1/DTD/svg11.dtd">
<!-- Generated by graphviz version 12.1.1 (20240910.0053)
 -->
<!-- Pages: 1 -->
<svg width="874pt" height="241pt"
 viewBox="0.00 0.00 874.00 240.57" xmlns="http://www.w3.org/2000/svg" xmlns:xlink="http://www.w3.org/1999/xlink">
<g id="graph0" class="graph" transform="scale(1 1) rotate(0) translate(4 236.57)">
<polygon fill="white" stroke="none" points="-4,4 -4,-236.57 870,-236.57 870,4 -4,4"/>
<!-- &#45;1 -->
<g id="node1" class="node">
<title>&#45;1</title>
<polygon fill="lightgray" stroke="black" points="115.75,-232.57 92.25,-232.57 92.25,-214.07 115.75,-214.07 115.75,-232.57"/>
<text text-anchor="middle" x="104" y="-220.02" font-family="Times,serif" font-size="9.00">&#45;1</text>
</g>
<!-- 53 -->
<g id="node27" class="node">
<title>53</title>
<ellipse fill="white" stroke="black" cx="255" cy="-160.39" rx="17.68" ry="17.68"/>
<text text-anchor="middle" x="255" y="-157.09" font-family="Times,serif" font-size="9.00">53</text>
</g>
<!-- &#45;1&#45;&gt;53 -->
<g id="edge14" class="edge">
<title>&#45;1&#45;&gt;53</title>
<path fill="none" stroke="green" stroke-width="0.31" d="M116.1,-217.43C140.58,-207.56 196.45,-185.01 229.39,-171.72"/>
<polygon fill="green" stroke="green" stroke-width="0.31" points="230.41,-175.09 238.37,-168.1 227.79,-168.59 230.41,-175.09"/>
</g>
<!-- &#45;2 -->
<g id="node2" class="node">
<title>&#45;2</title>
<polygon fill="lightgray" stroke="black" points="157.75,-232.57 134.25,-232.57 134.25,-214.07 157.75,-214.07 157.75,-232.57"/>
<text text-anchor="middle" x="146" y="-220.02" font-family="Times,serif" font-size="9.00">&#45;2</text>
</g>
<!-- &#45;2&#45;&gt;53 -->
<g id="edge17" class="edge">
<title>&#45;2&#45;&gt;53</title>
<path fill="none" stroke="red" stroke-width="0.31" d="M158.08,-215.56C175.54,-205.8 208.2,-187.55 230.75,-174.94"/>
<polygon fill="red" stroke="red" stroke-width="0.31" points="232.29,-178.09 239.31,-170.16 228.88,-171.98 232.29,-178.09"/>
</g>
<!-- &#45;3 -->
<g id="node3" class="node">
<title>&#45;3</title>
<polygon fill="lightgray" stroke="black" points="777.75,-232.57 754.25,-232.57 754.25,-214.07 777.75,-214.07 777.75,-232.57"/>
<text text-anchor="middle" x="766" y="-220.02" font-family="Times,serif" font-size="9.00">&#45;3</text>
</g>
<!-- 54 -->
<g id="node28" class="node">
<title>54</title>
<ellipse fill="white" stroke="black" cx="634" cy="-160.39" rx="17.68" ry="17.68"/>
<text text-anchor="middle" x="634" y="-157.09" font-family="Times,serif" font-size="9.00">54</text>
</g>
<!-- &#45;3&#45;&gt;54 -->
<g id="edge37" class="edge">
<title>&#45;3&#45;&gt;54</title>
<path fill="none" stroke="green" stroke-width="0.39" d="M753.82,-216.69C732.35,-206.78 687.38,-186.03 659.05,-172.95"/>
<polygon fill="green" stroke="green" stroke-width="0.39" points="660.87,-169.94 650.33,-168.93 657.94,-176.29 660.87,-169.94"/>
</g>
<!-- &#45;4 -->
<g id="node4" class="node">
<title>&#45;4</title>
<polygon fill="lightgray" stroke="black" points="689.75,-232.57 666.25,-232.57 666.25,-214.07 689.75,-214.07 689.75,-232.57"/>
<text text-anchor="middle" x="678" y="-220.02" font-family="Times,serif" font-size="9.00">&#45;4</text>
</g>
<!-- &#45;4&#45;&gt;54 -->
<g id="edge34" class="edge">
<title>&#45;4&#45;&gt;54</title>
<path fill="none" stroke="red" stroke-width="0.57" d="M671.7,-213.59C666.11,-205.85 657.7,-194.21 650.25,-183.89"/>
<polygon fill="red" stroke="red" stroke-width="0.57" points="653.23,-182.04 644.54,-175.98 647.55,-186.13 653.23,-182.04"/>
</g>
<!-- 55 -->
<g id="node29" class="node">
<title>55</title>
<ellipse fill="white" stroke="black" cx="544" cy="-160.39" rx="17.68" ry="17.68"/>
<text text-anchor="middle" x="544" y="-157.09" font-family="Times,serif" font-size="9.00">55</text>
</g>
<!-- &#45;4&#45;&gt;55 -->
<g id="edge23" class="edge">
<title>&#45;4&#45;&gt;55</title>
<path fill="none" stroke="green" stroke-width="0.28" d="M666.11,-216.91C644.45,-207.06 598.14,-186.01 569.19,-172.84"/>
<polygon fill="green" stroke="green" stroke-width="0.28" points="570.67,-169.67 560.12,-168.72 567.77,-176.04 570.67,-169.67"/>
</g>
<!-- &#45;5 -->
<g id="node5" class="node">
<title>&#45;5</title>
<polygon fill="lightgray" stroke="black" points="819.75,-232.57 796.25,-232.57 796.25,-214.07 819.75,-214.07 819.75,-232.57"/>
<text text-anchor="middle" x="808" y="-220.02" font-family="Times,serif" font-size="9.00">&#45;5</text>
</g>
<!-- &#45;6 -->
<g id="node6" class="node">
<title>&#45;6</title>
<polygon fill="lightgray" stroke="black" points="291.75,-232.57 268.25,-232.57 268.25,-214.07 291.75,-214.07 291.75,-232.57"/>
<text text-anchor="middle" x="280" y="-220.02" font-family="Times,serif" font-size="9.00">&#45;6</text>
</g>
<!-- &#45;6&#45;&gt;53 -->
<g id="edge1" class="edge">
<title>&#45;6&#45;&gt;53</title>
<path fill="none" stroke="green" stroke-width="0.12" d="M276.42,-213.59C273.5,-206.48 269.23,-196.08 265.27,-186.43"/>
<polygon fill="green" stroke="green" stroke-width="0.12" points="268.58,-185.27 261.55,-177.35 262.11,-187.93 268.58,-185.27"/>
</g>
<!-- 56 -->
<g id="node30" class="node">
<title>56</title>
<ellipse fill="white" stroke="black" cx="416" cy="-160.39" rx="17.68" ry="17.68"/>
<text text-anchor="middle" x="416" y="-157.09" font-family="Times,serif" font-size="9.00">56</text>
</g>
<!-- &#45;6&#45;&gt;56 -->
<g id="edge10" class="edge">
<title>&#45;6&#45;&gt;56</title>
<path fill="none" stroke="red" stroke-width="0.44" stroke-dasharray="1,5" d="M292.07,-216.91C314.05,-207.06 361.05,-186.01 390.44,-172.84"/>
<polygon fill="red" stroke="red" stroke-width="0.44" points="391.72,-176.1 399.41,-168.82 388.86,-169.71 391.72,-176.1"/>
</g>
<!-- &#45;7 -->
<g id="node7" class="node">
<title>&#45;7</title>
<polygon fill="lightgray" stroke="black" points="555.75,-232.57 532.25,-232.57 532.25,-214.07 555.75,-214.07 555.75,-232.57"/>
<text text-anchor="middle" x="544" y="-220.02" font-family="Times,serif" font-size="9.00">&#45;7</text>
</g>
<!-- &#45;7&#45;&gt;55 -->
<g id="edge2" class="edge">
<title>&#45;7&#45;&gt;55</title>
<path fill="none" stroke="green" stroke-width="0.12" d="M544,-213.59C544,-206.89 544,-197.28 544,-188.12"/>
<polygon fill="green" stroke="green" stroke-width="0.12" points="547.5,-188.34 544,-178.34 540.5,-188.34 547.5,-188.34"/>
</g>
<!-- &#45;7&#45;&gt;56 -->
<g id="edge21" class="edge">
<title>&#45;7&#45;&gt;56</title>
<path fill="none" stroke="green" stroke-width="0.39" d="M532.19,-216.69C511.57,-206.88 468.6,-186.43 441.09,-173.33"/>
<polygon fill="green" stroke="green" stroke-width="0.39" points="442.8,-170.27 432.27,-169.13 439.79,-176.59 442.8,-170.27"/>
</g>
<!-- &#45;8 -->
<g id="node8" class="node">
<title>&#45;8</title>
<polygon fill="lightgray" stroke="black" points="471.75,-232.57 448.25,-232.57 448.25,-214.07 471.75,-214.07 471.75,-232.57"/>
<text text-anchor="middle" x="460" y="-220.02" font-family="Times,serif" font-size="9.00">&#45;8</text>
</g>
<!-- &#45;8&#45;&gt;55 -->
<g id="edge35" class="edge">
<title>&#45;8&#45;&gt;55</title>
<path fill="none" stroke="red" stroke-width="0.29" d="M472.04,-213.59C484.97,-204.2 505.83,-189.08 521.76,-177.52"/>
<polygon fill="red" stroke="red" stroke-width="0.29" points="523.64,-180.48 529.68,-171.78 519.53,-174.82 523.64,-180.48"/>
</g>
<!-- &#45;8&#45;&gt;56 -->
<g id="edge38" class="edge">
<title>&#45;8&#45;&gt;56</title>
<path fill="none" stroke="green" stroke-width="0.2" d="M453.7,-213.59C448.05,-205.77 439.53,-193.98 432.02,-183.57"/>
<polygon fill="green" stroke="green" stroke-width="0.2" points="434.9,-181.58 426.21,-175.53 429.23,-185.68 434.9,-181.58"/>
</g>
<!-- &#45;9 -->
<g id="node9" class="node">
<title>&#45;9</title>
<polygon fill="lightgray" stroke="black" points="513.75,-232.57 490.25,-232.57 490.25,-214.07 513.75,-214.07 513.75,-232.57"/>
<text text-anchor="middle" x="502" y="-220.02" font-family="Times,serif" font-size="9.00">&#45;9</text>
</g>
<!-- &#45;9&#45;&gt;55 -->
<g id="edge11" class="edge">
<title>&#45;9&#45;&gt;55</title>
<path fill="none" stroke="red" stroke-width="0.58" d="M508.02,-213.59C513.3,-205.93 521.21,-194.45 528.28,-184.2"/>
<polygon fill="red" stroke="red" stroke-width="0.58" points="531.13,-186.23 533.92,-176.01 525.37,-182.25 531.13,-186.23"/>
</g>
<!-- &#45;9&#45;&gt;56 -->
<g id="edge15" class="edge">
<title>&#45;9&#45;&gt;56</title>
<path fill="none" stroke="red" stroke-width="0.23" d="M490.04,-213.84C476.68,-204.38 454.75,-188.84 438.22,-177.13"/>
<polygon fill="red" stroke="red" stroke-width="0.23" points="440.61,-174.54 430.43,-171.61 436.57,-180.25 440.61,-174.54"/>
</g>
<!-- &#45;10 -->
<g id="node10" class="node">
<title>&#45;10</title>
<polygon fill="lightgray" stroke="black" points="384,-232.57 356,-232.57 356,-214.07 384,-214.07 384,-232.57"/>
<text text-anchor="middle" x="370" y="-220.02" font-family="Times,serif" font-size="9.00">&#45;10</text>
</g>
<!-- &#45;10&#45;&gt;53 -->
<g id="edge4" class="edge">
<title>&#45;10&#45;&gt;53</title>
<path fill="none" stroke="red" stroke-width="0.49" stroke-dasharray="1,5" d="M355.9,-214.85C336.9,-204.78 302.79,-186.71 279.54,-174.39"/>
<polygon fill="red" stroke="red" stroke-width="0.49" points="281.45,-171.44 270.97,-169.85 278.17,-177.63 281.45,-171.44"/>
</g>
<!-- &#45;10&#45;&gt;55 -->
<g id="edge27" class="edge">
<title>&#45;10&#45;&gt;55</title>
<path fill="none" stroke="red" stroke-width="0.27" d="M384.1,-217.24C387.04,-216.18 390.12,-215.08 393,-214.07 436.55,-198.66 487.28,-181.03 517.45,-170.57"/>
<polygon fill="red" stroke="red" stroke-width="0.27" points="518.54,-173.9 526.84,-167.32 516.25,-167.28 518.54,-173.9"/>
</g>
<!-- &#45;11 -->
<g id="node11" class="node">
<title>&#45;11</title>
<polygon fill="lightgray" stroke="black" points="204,-232.57 176,-232.57 176,-214.07 204,-214.07 204,-232.57"/>
<text text-anchor="middle" x="190" y="-220.02" font-family="Times,serif" font-size="9.00">&#45;11</text>
</g>
<!-- &#45;11&#45;&gt;53 -->
<g id="edge33" class="edge">
<title>&#45;11&#45;&gt;53</title>
<path fill="none" stroke="red" stroke-width="0.25" d="M199.31,-213.59C208.64,-204.84 223.29,-191.11 235.22,-179.93"/>
<polygon fill="red" stroke="red" stroke-width="0.25" points="237.41,-182.68 242.31,-173.28 232.62,-177.57 237.41,-182.68"/>
</g>
<!-- &#45;12 -->
<g id="node12" class="node">
<title>&#45;12</title>
<polygon fill="lightgray" stroke="black" points="866,-232.57 838,-232.57 838,-214.07 866,-214.07 866,-232.57"/>
<text text-anchor="middle" x="852" y="-220.02" font-family="Times,serif" font-size="9.00">&#45;12</text>
</g>
<!-- &#45;13 -->
<g id="node13" class="node">
<title>&#45;13</title>
<polygon fill="lightgray" stroke="black" points="602,-232.57 574,-232.57 574,-214.07 602,-214.07 602,-232.57"/>
<text text-anchor="middle" x="588" y="-220.02" font-family="Times,serif" font-size="9.00">&#45;13</text>
</g>
<!-- &#45;13&#45;&gt;55 -->
<g id="edge13" class="edge">
<title>&#45;13&#45;&gt;55</title>
<path fill="none" stroke="red" stroke-width="0.41" stroke-dasharray="1,5" d="M581.7,-213.59C576.11,-205.85 567.7,-194.21 560.25,-183.89"/>
<polygon fill="red" stroke="red" stroke-width="0.41" points="563.09,-181.85 554.4,-175.79 557.42,-185.95 563.09,-181.85"/>
</g>
<!-- &#45;14 -->
<g id="node14" class="node">
<title>&#45;14</title>
<polygon fill="lightgray" stroke="black" points="28,-232.57 0,-232.57 0,-214.07 28,-214.07 28,-232.57"/>
<text text-anchor="middle" x="14" y="-220.02" font-family="Times,serif" font-size="9.00">&#45;14</text>
</g>
<!-- &#45;14&#45;&gt;53 -->
<g id="edge22" class="edge">
<title>&#45;14&#45;&gt;53</title>
<path fill="none" stroke="red" stroke-width="0.27" d="M28.03,-217.01C30.97,-215.98 34.07,-214.94 37,-214.07 104.63,-193.83 185.81,-175.84 227.42,-167.06"/>
<polygon fill="red" stroke="red" stroke-width="0.27" points="228.12,-170.49 237.19,-165.01 226.69,-163.64 228.12,-170.49"/>
</g>
<!-- &#45;15 -->
<g id="node15" class="node">
<title>&#45;15</title>
<polygon fill="lightgray" stroke="black" points="736,-232.57 708,-232.57 708,-214.07 736,-214.07 736,-232.57"/>
<text text-anchor="middle" x="722" y="-220.02" font-family="Times,serif" font-size="9.00">&#45;15</text>
</g>
<!-- &#45;15&#45;&gt;54 -->
<g id="edge20" class="edge">
<title>&#45;15&#45;&gt;54</title>
<path fill="none" stroke="red" stroke-width="0.16" d="M709.39,-213.59C695.63,-204.06 673.33,-188.62 656.54,-176.99"/>
<polygon fill="red" stroke="red" stroke-width="0.16" points="658.75,-174.27 648.54,-171.45 654.77,-180.02 658.75,-174.27"/>
</g>
<!-- &#45;16 -->
<g id="node16" class="node">
<title>&#45;16</title>
<polygon fill="lightgray" stroke="black" points="74,-232.57 46,-232.57 46,-214.07 74,-214.07 74,-232.57"/>
<text text-anchor="middle" x="60" y="-220.02" font-family="Times,serif" font-size="9.00">&#45;16</text>
</g>
<!-- &#45;16&#45;&gt;53 -->
<g id="edge36" class="edge">
<title>&#45;16&#45;&gt;53</title>
<path fill="none" stroke="green" stroke-width="0.51" d="M74.07,-217.15C77.01,-216.1 80.1,-215.03 83,-214.07 134.08,-197.09 194.34,-179.1 228.27,-169.15"/>
<polygon fill="green" stroke="green" stroke-width="0.51" points="228.96,-172.59 237.58,-166.43 227,-165.88 228.96,-172.59"/>
</g>
<!-- &#45;17 -->
<g id="node17" class="node">
<title>&#45;17</title>
<polygon fill="lightgray" stroke="black" points="338,-232.57 310,-232.57 310,-214.07 338,-214.07 338,-232.57"/>
<text text-anchor="middle" x="324" y="-220.02" font-family="Times,serif" font-size="9.00">&#45;17</text>
</g>
<!-- &#45;17&#45;&gt;53 -->
<g id="edge12" class="edge">
<title>&#45;17&#45;&gt;53</title>
<path fill="none" stroke="green" stroke-width="0.2" stroke-dasharray="1,5" d="M314.11,-213.59C303.99,-204.65 287.97,-190.5 275.16,-179.19"/>
<polygon fill="green" stroke="green" stroke-width="0.2" points="277.72,-176.79 267.91,-172.79 273.09,-182.03 277.72,-176.79"/>
</g>
<!-- &#45;17&#45;&gt;56 -->
<g id="edge41" class="edge">
<title>&#45;17&#45;&gt;56</title>
<path fill="none" stroke="green" stroke-width="0.3" d="M337.18,-213.59C351.65,-204 375.16,-188.43 392.75,-176.79"/>
<polygon fill="green" stroke="green" stroke-width="0.3" points="394.54,-179.8 400.95,-171.36 390.68,-173.96 394.54,-179.8"/>
</g>
<!-- &#45;18 -->
<g id="node18" class="node">
<title>&#45;18</title>
<polygon fill="lightgray" stroke="black" points="648,-232.57 620,-232.57 620,-214.07 648,-214.07 648,-232.57"/>
<text text-anchor="middle" x="634" y="-220.02" font-family="Times,serif" font-size="9.00">&#45;18</text>
</g>
<!-- &#45;18&#45;&gt;54 -->
<g id="edge26" class="edge">
<title>&#45;18&#45;&gt;54</title>
<path fill="none" stroke="green" stroke-width="0.11" d="M634,-213.59C634,-206.89 634,-197.28 634,-188.12"/>
<polygon fill="green" stroke="green" stroke-width="0.11" points="637.5,-188.32 634,-178.32 630.5,-188.32 637.5,-188.32"/>
</g>
<!-- &#45;18&#45;&gt;55 -->
<g id="edge6" class="edge">
<title>&#45;18&#45;&gt;55</title>
<path fill="none" stroke="green" stroke-width="0.31" d="M621.11,-213.59C606.95,-204 583.95,-188.43 566.75,-176.79"/>
<polygon fill="green" stroke="green" stroke-width="0.31" points="568.99,-174.08 558.74,-171.37 565.06,-179.87 568.99,-174.08"/>
</g>
<!-- &#45;19 -->
<g id="node19" class="node">
<title>&#45;19</title>
<polygon fill="lightgray" stroke="black" points="430,-232.57 402,-232.57 402,-214.07 430,-214.07 430,-232.57"/>
<text text-anchor="middle" x="416" y="-220.02" font-family="Times,serif" font-size="9.00">&#45;19</text>
</g>
<!-- &#45;19&#45;&gt;56 -->
<g id="edge5" class="edge">
<title>&#45;19&#45;&gt;56</title>
<path fill="none" stroke="red" stroke-width="0.21" d="M416,-213.59C416,-206.96 416,-197.48 416,-188.41"/>
<polygon fill="red" stroke="red" stroke-width="0.21" points="419.5,-188.47 416,-178.47 412.5,-188.47 419.5,-188.47"/>
</g>
<!-- &#45;20 -->
<g id="node20" class="node">
<title>&#45;20</title>
<polygon fill="lightgray" stroke="black" points="250,-232.57 222,-232.57 222,-214.07 250,-214.07 250,-232.57"/>
<text text-anchor="middle" x="236" y="-220.02" font-family="Times,serif" font-size="9.00">&#45;20</text>
</g>
<!-- &#45;20&#45;&gt;53 -->
<g id="edge39" class="edge">
<title>&#45;20&#45;&gt;53</title>
<path fill="none" stroke="green" stroke-width="0.28" d="M238.72,-213.59C240.86,-206.72 243.96,-196.79 246.88,-187.43"/>
<polygon fill="green" stroke="green" stroke-width="0.28" points="250.16,-188.66 249.8,-178.07 243.48,-186.58 250.16,-188.66"/>
</g>
<!-- &#45;20&#45;&gt;56 -->
<g id="edge16" class="edge">
<title>&#45;20&#45;&gt;56</title>
<path fill="none" stroke="red" stroke-width="0.45" d="M250.09,-217.21C253.03,-216.16 256.11,-215.07 259,-214.07 304.68,-198.21 358.09,-180.46 389.37,-170.14"/>
<polygon fill="red" stroke="red" stroke-width="0.45" points="390.41,-173.48 398.81,-167.03 388.22,-166.83 390.41,-173.48"/>
</g>
<!-- 0 -->
<g id="node21" class="node">
<title>0</title>
<ellipse fill="lightblue" stroke="black" cx="421" cy="-14.5" rx="14.5" ry="14.5"/>
<text text-anchor="middle" x="421" y="-11.2" font-family="Times,serif" font-size="9.00">0</text>
</g>
<!-- 0&#45;&gt;0 -->
<g id="edge25" class="edge">
<title>0&#45;&gt;0</title>
<path fill="none" stroke="green" stroke-width="0.38" d="M431.32,-24.94C441.81,-31.08 453.5,-27.6 453.5,-14.5 453.5,-5.49 447.97,-1.03 441.11,-1.12"/>
<polygon fill="green" stroke="green" stroke-width="0.38" points="440.44,2.33 431.87,-3.89 442.45,-4.37 440.44,2.33"/>
</g>
<!-- 1 -->
<g id="node22" class="node">
<title>1</title>
<ellipse fill="lightblue" stroke="black" cx="463" cy="-85.85" rx="14.5" ry="14.5"/>
<text text-anchor="middle" x="463" y="-82.55" font-family="Times,serif" font-size="9.00">1</text>
</g>
<!-- 2 -->
<g id="node23" class="node">
<title>2</title>
<ellipse fill="lightblue" stroke="black" cx="575" cy="-85.85" rx="14.5" ry="14.5"/>
<text text-anchor="middle" x="575" y="-82.55" font-family="Times,serif" font-size="9.00">2</text>
</g>
<!-- 3 -->
<g id="node24" class="node">
<title>3</title>
<ellipse fill="lightblue" stroke="black" cx="280" cy="-85.85" rx="14.5" ry="14.5"/>
<text text-anchor="middle" x="280" y="-82.55" font-family="Times,serif" font-size="9.00">3</text>
</g>
<!-- 4 -->
<g id="node25" class="node">
<title>4</title>
<ellipse fill="lightblue" stroke="black" cx="510" cy="-85.85" rx="14.5" ry="14.5"/>
<text text-anchor="middle" x="510" y="-82.55" font-family="Times,serif" font-size="9.00">4</text>
</g>
<!-- 4&#45;&gt;4 -->
<g id="edge18" class="edge">
<title>4&#45;&gt;4</title>
<path fill="none" stroke="red" stroke-width="0.76" d="M520.32,-96.29C530.81,-102.43 542.5,-98.95 542.5,-85.85 542.5,-77.25 537.46,-72.8 531.04,-72.49"/>
<polygon fill="red" stroke="red" stroke-width="0.76" points="530.16,-69.1 521.43,-75.11 532,-75.86 530.16,-69.1"/>
</g>
<!-- 270 -->
<g id="node26" class="node">
<title>270</title>
<ellipse fill="white" stroke="black" cx="372" cy="-85.85" rx="20.86" ry="20.86"/>
<text text-anchor="middle" x="372" y="-82.55" font-family="Times,serif" font-size="9.00">270</text>
</g>
<!-- 270&#45;&gt;0 -->
<g id="edge43" class="edge">
<title>270&#45;&gt;0</title>
<path fill="none" stroke="red" stroke-width="0.41" d="M383.61,-68.41C390.62,-58.5 399.59,-45.81 406.98,-35.33"/>
<polygon fill="red" stroke="red" stroke-width="0.41" points="409.72,-37.53 412.63,-27.34 404,-33.49 409.72,-37.53"/>
</g>
<!-- 53&#45;&gt;1 -->
<g id="edge32" class="edge">
<title>53&#45;&gt;1</title>
<path fill="none" stroke="green" stroke-width="0.24" d="M271.67,-153.57C308.55,-140.71 397.14,-109.82 439.57,-95.02"/>
<polygon fill="green" stroke="green" stroke-width="0.24" points="440.67,-98.34 448.96,-91.75 438.37,-91.74 440.67,-98.34"/>
</g>
<!-- 53&#45;&gt;3 -->
<g id="edge7" class="edge">
<title>53&#45;&gt;3</title>
<path fill="none" stroke="red" stroke-width="0.35" d="M260.55,-143.29C263.95,-133.42 268.36,-120.63 272.12,-109.72"/>
<polygon fill="red" stroke="red" stroke-width="0.35" points="275.35,-111.09 275.3,-100.5 268.73,-108.81 275.35,-111.09"/>
</g>
<!-- 53&#45;&gt;4 -->
<g id="edge31" class="edge">
<title>53&#45;&gt;4</title>
<path fill="none" stroke="red" stroke-width="0.35" d="M273.03,-158.12C313.22,-154.71 412.39,-142.98 486,-106.71 488.05,-105.7 490.08,-104.48 492.03,-103.15"/>
<polygon fill="red" stroke="red" stroke-width="0.35" points="493.87,-106.16 499.59,-97.24 489.56,-100.65 493.87,-106.16"/>
</g>
<!-- 54&#45;&gt;0 -->
<g id="edge30" class="edge">
<title>54&#45;&gt;0</title>
<path fill="none" stroke="green" stroke-width="0.14" d="M632.17,-142.5C628.98,-121.36 620.42,-85.44 598,-64.99 555.09,-25.85 483.71,-17.34 446.04,-15.7"/>
<polygon fill="green" stroke="green" stroke-width="0.14" points="446.25,-12.2 436.15,-15.4 446.04,-19.2 446.25,-12.2"/>
</g>
<!-- 54&#45;&gt;1 -->
<g id="edge28" class="edge">
<title>54&#45;&gt;1</title>
<path fill="none" stroke="red" stroke-width="0.12" d="M617.35,-153.15C608.88,-149.99 598.4,-146.11 589,-142.71 543.79,-126.36 528.83,-130.4 487,-106.71 485.01,-105.58 483.03,-104.29 481.1,-102.91"/>
<polygon fill="red" stroke="red" stroke-width="0.12" points="483.31,-100.2 473.3,-96.72 478.96,-105.68 483.31,-100.2"/>
</g>
<!-- 54&#45;&gt;4 -->
<g id="edge24" class="edge">
<title>54&#45;&gt;4</title>
<path fill="none" stroke="green" stroke-width="0.18" d="M618.8,-150.49C596.77,-137.61 555.93,-113.72 531.03,-99.15"/>
<polygon fill="green" stroke="green" stroke-width="0.18" points="532.98,-96.24 522.58,-94.21 529.44,-102.28 532.98,-96.24"/>
</g>
<!-- 55&#45;&gt;1 -->
<g id="edge3" class="edge">
<title>55&#45;&gt;1</title>
<path fill="none" stroke="red" stroke-width="0.19" stroke-dasharray="1,5" d="M530.99,-147.73C517.43,-135.59 496.09,-116.48 480.94,-102.92"/>
<polygon fill="red" stroke="red" stroke-width="0.19" points="483.65,-100.65 473.87,-96.58 478.98,-105.86 483.65,-100.65"/>
</g>
<!-- 55&#45;&gt;2 -->
<g id="edge8" class="edge">
<title>55&#45;&gt;2</title>
<path fill="none" stroke="red" stroke-width="0.18" d="M550.73,-143.65C555.08,-133.47 560.81,-120.06 565.61,-108.83"/>
<polygon fill="red" stroke="red" stroke-width="0.18" points="568.71,-110.48 569.42,-99.91 562.27,-107.73 568.71,-110.48"/>
</g>
<!-- 55&#45;&gt;55 -->
<g id="edge9" class="edge">
<title>55&#45;&gt;55</title>
<path fill="none" stroke="red" stroke-width="0.2" d="M558.66,-170.92C569.19,-174.34 579.68,-170.84 579.68,-160.39 579.68,-153.37 574.94,-149.48 568.64,-148.73"/>
<polygon fill="red" stroke="red" stroke-width="0.2" points="568.51,-145.22 558.97,-149.83 569.3,-152.17 568.51,-145.22"/>
</g>
<!-- 56&#45;&gt;0 -->
<g id="edge29" class="edge">
<title>56&#45;&gt;0</title>
<path fill="none" stroke="red" stroke-width="0.17" stroke-dasharray="1,5" d="M416.59,-142.32C417.48,-116.7 419.17,-68.25 420.18,-39.21"/>
<polygon fill="red" stroke="red" stroke-width="0.17" points="423.67,-39.5 420.52,-29.38 416.67,-39.26 423.67,-39.5"/>
</g>
<!-- 56&#45;&gt;1 -->
<g id="edge19" class="edge">
<title>56&#45;&gt;1</title>
<path fill="none" stroke="red" stroke-width="0.62" d="M425.29,-145.06C432.29,-134.24 442,-119.26 449.82,-107.2"/>
<polygon fill="red" stroke="red" stroke-width="0.62" points="452.58,-109.38 455.08,-99.08 446.7,-105.57 452.58,-109.38"/>
</g>
<!-- 56&#45;&gt;3 -->
<g id="edge40" class="edge">
<title>56&#45;&gt;3</title>
<path fill="none" stroke="green" stroke-width="0.41" d="M400.4,-151.07C376.16,-138.14 329.4,-113.2 301.83,-98.49"/>
<polygon fill="green" stroke="green" stroke-width="0.41" points="303.63,-95.49 293.16,-93.87 300.34,-101.67 303.63,-95.49"/>
</g>
<!-- 56&#45;&gt;270 -->
<g id="edge42" class="edge">
<title>56&#45;&gt;270</title>
<path fill="none" stroke="green" stroke-width="0.1" d="M407.1,-144.71C401.56,-135.59 394.29,-123.6 387.81,-112.91"/>
<polygon fill="green" stroke="green" stroke-width="0.1" points="390.86,-111.19 382.68,-104.46 384.87,-114.82 390.86,-111.19"/>
</g>
</g>
</svg>
