<?xml version="1.0" encoding="UTF-8" standalone="no"?>
<!DOCTYPE svg PUBLIC "-//W3C//DTD SVG 1.1//EN"
 "http://www.w3.org/Graphics/SVG/1.1/DTD/svg11.dtd">
<!-- Generated by graphviz version 12.1.1 (20240910.0053)
 -->
<!-- Pages: 1 -->
<svg width="980pt" height="270pt"
 viewBox="0.00 0.00 979.61 270.15" xmlns="http://www.w3.org/2000/svg" xmlns:xlink="http://www.w3.org/1999/xlink">
<g id="graph0" class="graph" transform="scale(1 1) rotate(0) translate(4 266.15)">
<polygon fill="white" stroke="none" points="-4,4 -4,-266.15 975.61,-266.15 975.61,4 -4,4"/>
<!-- &#45;1 -->
<g id="node1" class="node">
<title>&#45;1</title>
<polygon fill="lightgray" stroke="black" points="157.5,-250.54 134,-250.54 134,-232.04 157.5,-232.04 157.5,-250.54"/>
<text text-anchor="middle" x="145.75" y="-237.99" font-family="Times,serif" font-size="9.00">&#45;1</text>
</g>
<!-- 125 -->
<g id="node28" class="node">
<title>125</title>
<ellipse fill="white" stroke="black" cx="131.75" cy="-163.57" rx="20.86" ry="20.86"/>
<text text-anchor="middle" x="131.75" y="-160.27" font-family="Times,serif" font-size="9.00">125</text>
</g>
<!-- &#45;1&#45;&gt;125 -->
<g id="edge13" class="edge">
<title>&#45;1&#45;&gt;125</title>
<path fill="none" stroke="red" stroke-width="0.22" d="M144.14,-231.6C142.46,-222.5 139.72,-207.7 137.25,-194.31"/>
<polygon fill="red" stroke="red" stroke-width="0.22" points="140.75,-194 135.49,-184.8 133.87,-195.27 140.75,-194"/>
</g>
<!-- 127 -->
<g id="node29" class="node">
<title>127</title>
<ellipse fill="white" stroke="black" cx="246.75" cy="-163.57" rx="20.86" ry="20.86"/>
<text text-anchor="middle" x="246.75" y="-160.27" font-family="Times,serif" font-size="9.00">127</text>
</g>
<!-- &#45;1&#45;&gt;127 -->
<g id="edge17" class="edge">
<title>&#45;1&#45;&gt;127</title>
<path fill="none" stroke="red" stroke-width="0.16" stroke-dasharray="1,5" d="M154.07,-231.88C157.83,-228.22 162.39,-223.98 166.75,-220.43 184.15,-206.26 204.96,-191.8 221,-181.14"/>
<polygon fill="red" stroke="red" stroke-width="0.16" points="222.73,-184.19 229.16,-175.77 218.89,-178.34 222.73,-184.19"/>
</g>
<!-- &#45;2 -->
<g id="node2" class="node">
<title>&#45;2</title>
<polygon fill="lightgray" stroke="black" points="471.5,-250.54 448,-250.54 448,-232.04 471.5,-232.04 471.5,-250.54"/>
<text text-anchor="middle" x="459.75" y="-237.99" font-family="Times,serif" font-size="9.00">&#45;2</text>
</g>
<!-- &#45;3 -->
<g id="node3" class="node">
<title>&#45;3</title>
<polygon fill="lightgray" stroke="black" points="513.5,-250.54 490,-250.54 490,-232.04 513.5,-232.04 513.5,-250.54"/>
<text text-anchor="middle" x="501.75" y="-237.99" font-family="Times,serif" font-size="9.00">&#45;3</text>
</g>
<!-- &#45;4 -->
<g id="node4" class="node">
<title>&#45;4</title>
<polygon fill="lightgray" stroke="black" points="23.5,-250.54 0,-250.54 0,-232.04 23.5,-232.04 23.5,-250.54"/>
<text text-anchor="middle" x="11.75" y="-237.99" font-family="Times,serif" font-size="9.00">&#45;4</text>
</g>
<!-- &#45;4&#45;&gt;125 -->
<g id="edge1" class="edge">
<title>&#45;4&#45;&gt;125</title>
<path fill="none" stroke="red" stroke-width="0.35" d="M19.92,-231.67C23.64,-227.98 28.23,-223.77 32.75,-220.43 55.27,-203.82 83.21,-188.47 103.67,-178.08"/>
<polygon fill="red" stroke="red" stroke-width="0.35" points="105.19,-181.24 112.57,-173.64 102.06,-174.97 105.19,-181.24"/>
</g>
<!-- &#45;5 -->
<g id="node5" class="node">
<title>&#45;5</title>
<polygon fill="lightgray" stroke="black" points="555.5,-250.54 532,-250.54 532,-232.04 555.5,-232.04 555.5,-250.54"/>
<text text-anchor="middle" x="543.75" y="-237.99" font-family="Times,serif" font-size="9.00">&#45;5</text>
</g>
<!-- &#45;6 -->
<g id="node6" class="node">
<title>&#45;6</title>
<polygon fill="lightgray" stroke="black" points="597.5,-250.54 574,-250.54 574,-232.04 597.5,-232.04 597.5,-250.54"/>
<text text-anchor="middle" x="585.75" y="-237.99" font-family="Times,serif" font-size="9.00">&#45;6</text>
</g>
<!-- &#45;7 -->
<g id="node7" class="node">
<title>&#45;7</title>
<polygon fill="lightgray" stroke="black" points="639.5,-250.54 616,-250.54 616,-232.04 639.5,-232.04 639.5,-250.54"/>
<text text-anchor="middle" x="627.75" y="-237.99" font-family="Times,serif" font-size="9.00">&#45;7</text>
</g>
<!-- &#45;8 -->
<g id="node8" class="node">
<title>&#45;8</title>
<polygon fill="lightgray" stroke="black" points="245.5,-250.54 222,-250.54 222,-232.04 245.5,-232.04 245.5,-250.54"/>
<text text-anchor="middle" x="233.75" y="-237.99" font-family="Times,serif" font-size="9.00">&#45;8</text>
</g>
<!-- &#45;8&#45;&gt;127 -->
<g id="edge20" class="edge">
<title>&#45;8&#45;&gt;127</title>
<path fill="none" stroke="red" stroke-width="0.32" stroke-dasharray="1,5" d="M235.24,-231.6C236.79,-222.59 239.3,-207.99 241.58,-194.7"/>
<polygon fill="red" stroke="red" stroke-width="0.32" points="245.01,-195.4 243.25,-184.95 238.11,-194.21 245.01,-195.4"/>
</g>
<!-- &#45;9 -->
<g id="node9" class="node">
<title>&#45;9</title>
<polygon fill="lightgray" stroke="black" points="681.5,-250.54 658,-250.54 658,-232.04 681.5,-232.04 681.5,-250.54"/>
<text text-anchor="middle" x="669.75" y="-237.99" font-family="Times,serif" font-size="9.00">&#45;9</text>
</g>
<!-- &#45;10 -->
<g id="node10" class="node">
<title>&#45;10</title>
<polygon fill="lightgray" stroke="black" points="291.75,-250.54 263.75,-250.54 263.75,-232.04 291.75,-232.04 291.75,-250.54"/>
<text text-anchor="middle" x="277.75" y="-237.99" font-family="Times,serif" font-size="9.00">&#45;10</text>
</g>
<!-- &#45;10&#45;&gt;127 -->
<g id="edge16" class="edge">
<title>&#45;10&#45;&gt;127</title>
<path fill="none" stroke="red" stroke-width="0.24" stroke-dasharray="1,5" d="M274.19,-231.6C270.33,-222.16 263.95,-206.58 258.31,-192.82"/>
<polygon fill="red" stroke="red" stroke-width="0.24" points="261.56,-191.5 254.53,-183.57 255.08,-194.15 261.56,-191.5"/>
</g>
<!-- &#45;11 -->
<g id="node11" class="node">
<title>&#45;11</title>
<polygon fill="lightgray" stroke="black" points="727.75,-250.54 699.75,-250.54 699.75,-232.04 727.75,-232.04 727.75,-250.54"/>
<text text-anchor="middle" x="713.75" y="-237.99" font-family="Times,serif" font-size="9.00">&#45;11</text>
</g>
<!-- &#45;12 -->
<g id="node12" class="node">
<title>&#45;12</title>
<polygon fill="lightgray" stroke="black" points="203.75,-250.54 175.75,-250.54 175.75,-232.04 203.75,-232.04 203.75,-250.54"/>
<text text-anchor="middle" x="189.75" y="-237.99" font-family="Times,serif" font-size="9.00">&#45;12</text>
</g>
<!-- &#45;12&#45;&gt;125 -->
<g id="edge10" class="edge">
<title>&#45;12&#45;&gt;125</title>
<path fill="none" stroke="green" stroke-width="0.15" stroke-dasharray="1,5" d="M183.1,-231.6C175.11,-221.18 161.4,-203.27 150.15,-188.59"/>
<polygon fill="green" stroke="green" stroke-width="0.15" points="153.21,-186.83 144.35,-181.01 147.65,-191.08 153.21,-186.83"/>
</g>
<!-- &#45;12&#45;&gt;127 -->
<g id="edge8" class="edge">
<title>&#45;12&#45;&gt;127</title>
<path fill="none" stroke="red" stroke-width="0.3" d="M196.29,-231.6C204.06,-221.28 217.37,-203.6 228.36,-189"/>
<polygon fill="red" stroke="red" stroke-width="0.3" points="231.02,-191.29 234.24,-181.19 225.43,-187.08 231.02,-191.29"/>
</g>
<!-- &#45;13 -->
<g id="node13" class="node">
<title>&#45;13</title>
<polygon fill="lightgray" stroke="black" points="773.75,-250.54 745.75,-250.54 745.75,-232.04 773.75,-232.04 773.75,-250.54"/>
<text text-anchor="middle" x="759.75" y="-237.99" font-family="Times,serif" font-size="9.00">&#45;13</text>
</g>
<!-- &#45;14 -->
<g id="node14" class="node">
<title>&#45;14</title>
<polygon fill="lightgray" stroke="black" points="337.75,-250.54 309.75,-250.54 309.75,-232.04 337.75,-232.04 337.75,-250.54"/>
<text text-anchor="middle" x="323.75" y="-237.99" font-family="Times,serif" font-size="9.00">&#45;14</text>
</g>
<!-- &#45;14&#45;&gt;127 -->
<g id="edge3" class="edge">
<title>&#45;14&#45;&gt;127</title>
<path fill="none" stroke="red" stroke-width="0.18" d="M314.92,-231.6C303.65,-220.52 283.77,-200.97 268.38,-185.84"/>
<polygon fill="red" stroke="red" stroke-width="0.18" points="271.01,-183.52 261.43,-179.01 266.11,-188.51 271.01,-183.52"/>
</g>
<!-- &#45;15 -->
<g id="node15" class="node">
<title>&#45;15</title>
<polygon fill="lightgray" stroke="black" points="69.75,-250.54 41.75,-250.54 41.75,-232.04 69.75,-232.04 69.75,-250.54"/>
<text text-anchor="middle" x="55.75" y="-237.99" font-family="Times,serif" font-size="9.00">&#45;15</text>
</g>
<!-- &#45;15&#45;&gt;125 -->
<g id="edge15" class="edge">
<title>&#45;15&#45;&gt;125</title>
<path fill="none" stroke="red" stroke-width="0.74" d="M64.47,-231.6C75.32,-220.79 94.27,-201.91 109.3,-186.94"/>
<polygon fill="red" stroke="red" stroke-width="0.74" points="111.76,-189.43 116.37,-179.89 106.82,-184.47 111.76,-189.43"/>
</g>
<!-- &#45;16 -->
<g id="node16" class="node">
<title>&#45;16</title>
<polygon fill="lightgray" stroke="black" points="115.75,-250.54 87.75,-250.54 87.75,-232.04 115.75,-232.04 115.75,-250.54"/>
<text text-anchor="middle" x="101.75" y="-237.99" font-family="Times,serif" font-size="9.00">&#45;16</text>
</g>
<!-- &#45;16&#45;&gt;125 -->
<g id="edge7" class="edge">
<title>&#45;16&#45;&gt;125</title>
<path fill="none" stroke="red" stroke-width="0.25" d="M105.19,-231.6C108.91,-222.23 115.02,-206.79 120.45,-193.09"/>
<polygon fill="red" stroke="red" stroke-width="0.25" points="123.67,-194.47 124.1,-183.89 117.16,-191.9 123.67,-194.47"/>
</g>
<!-- &#45;17 -->
<g id="node17" class="node">
<title>&#45;17</title>
<polygon fill="lightgray" stroke="black" points="383.75,-250.54 355.75,-250.54 355.75,-232.04 383.75,-232.04 383.75,-250.54"/>
<text text-anchor="middle" x="369.75" y="-237.99" font-family="Times,serif" font-size="9.00">&#45;17</text>
</g>
<!-- &#45;17&#45;&gt;127 -->
<g id="edge11" class="edge">
<title>&#45;17&#45;&gt;127</title>
<path fill="none" stroke="green" stroke-width="0.36" d="M360.7,-231.72C356.6,-228.04 351.59,-223.82 346.75,-220.43 323.55,-204.18 295.2,-188.72 274.63,-178.2"/>
<polygon fill="green" stroke="green" stroke-width="0.36" points="276.47,-175.21 265.97,-173.84 273.32,-181.46 276.47,-175.21"/>
</g>
<!-- &#45;18 -->
<g id="node18" class="node">
<title>&#45;18</title>
<polygon fill="lightgray" stroke="black" points="819.75,-250.54 791.75,-250.54 791.75,-232.04 819.75,-232.04 819.75,-250.54"/>
<text text-anchor="middle" x="805.75" y="-237.99" font-family="Times,serif" font-size="9.00">&#45;18</text>
</g>
<!-- &#45;19 -->
<g id="node19" class="node">
<title>&#45;19</title>
<polygon fill="lightgray" stroke="black" points="429.75,-250.54 401.75,-250.54 401.75,-232.04 429.75,-232.04 429.75,-250.54"/>
<text text-anchor="middle" x="415.75" y="-237.99" font-family="Times,serif" font-size="9.00">&#45;19</text>
</g>
<!-- &#45;19&#45;&gt;127 -->
<g id="edge19" class="edge">
<title>&#45;19&#45;&gt;127</title>
<path fill="none" stroke="green" stroke-width="0.4" stroke-dasharray="1,5" d="M407.35,-231.79C403.22,-227.94 398,-223.57 392.75,-220.43 355.45,-198.13 307.69,-181.87 277.15,-172.82"/>
<polygon fill="green" stroke="green" stroke-width="0.4" points="278.27,-169.5 267.69,-170.09 276.33,-176.23 278.27,-169.5"/>
</g>
<!-- &#45;20 -->
<g id="node20" class="node">
<title>&#45;20</title>
<polygon fill="lightgray" stroke="black" points="865.75,-250.54 837.75,-250.54 837.75,-232.04 865.75,-232.04 865.75,-250.54"/>
<text text-anchor="middle" x="851.75" y="-237.99" font-family="Times,serif" font-size="9.00">&#45;20</text>
</g>
<!-- 0 -->
<g id="node21" class="node">
<title>0</title>
<ellipse fill="lightblue" stroke="black" cx="164.75" cy="-85.85" rx="14.5" ry="14.5"/>
<text text-anchor="middle" x="164.75" y="-82.55" font-family="Times,serif" font-size="9.00">0</text>
</g>
<!-- 0&#45;&gt;0 -->
<g id="edge18" class="edge">
<title>0&#45;&gt;0</title>
<path fill="none" stroke="red" stroke-width="0.18" d="M175.07,-96.29C185.56,-102.43 197.25,-98.95 197.25,-85.85 197.25,-76.84 191.72,-72.39 184.86,-72.47"/>
<polygon fill="red" stroke="red" stroke-width="0.18" points="183.9,-69.11 175.33,-75.33 185.91,-75.81 183.9,-69.11"/>
</g>
<!-- 1 -->
<g id="node22" class="node">
<title>1</title>
<ellipse fill="lightblue" stroke="black" cx="229.75" cy="-85.85" rx="14.5" ry="14.5"/>
<text text-anchor="middle" x="229.75" y="-82.55" font-family="Times,serif" font-size="9.00">1</text>
</g>
<!-- 2 -->
<g id="node23" class="node">
<title>2</title>
<ellipse fill="lightblue" stroke="black" cx="97.75" cy="-14.5" rx="14.5" ry="14.5"/>
<text text-anchor="middle" x="97.75" y="-11.2" font-family="Times,serif" font-size="9.00">2</text>
</g>
<!-- 2&#45;&gt;2 -->
<g id="edge2" class="edge">
<title>2&#45;&gt;2</title>
<path fill="none" stroke="green" stroke-width="0.43" d="M108.07,-24.94C118.56,-31.08 130.25,-27.6 130.25,-14.5 130.25,-5.49 124.72,-1.03 117.86,-1.12"/>
<polygon fill="green" stroke="green" stroke-width="0.43" points="117.26,2.36 108.68,-3.87 119.27,-4.35 117.26,2.36"/>
</g>
<!-- 3 -->
<g id="node24" class="node">
<title>3</title>
<ellipse fill="lightblue" stroke="black" cx="276.75" cy="-85.85" rx="14.5" ry="14.5"/>
<text text-anchor="middle" x="276.75" y="-82.55" font-family="Times,serif" font-size="9.00">3</text>
</g>
<!-- 4 -->
<g id="node25" class="node">
<title>4</title>
<ellipse fill="lightblue" stroke="black" cx="897.75" cy="-241.29" rx="14.5" ry="14.5"/>
<text text-anchor="middle" x="897.75" y="-237.99" font-family="Times,serif" font-size="9.00">4</text>
</g>
<!-- 256 -->
<g id="node26" class="node">
<title>256</title>
<ellipse fill="white" stroke="black" cx="950.75" cy="-241.29" rx="20.86" ry="20.86"/>
<text text-anchor="middle" x="950.75" y="-237.99" font-family="Times,serif" font-size="9.00">256</text>
</g>
<!-- 311 -->
<g id="node27" class="node">
<title>311</title>
<ellipse fill="white" stroke="black" cx="73.75" cy="-85.85" rx="20.86" ry="20.86"/>
<text text-anchor="middle" x="73.75" y="-82.55" font-family="Times,serif" font-size="9.00">311</text>
</g>
<!-- 311&#45;&gt;2 -->
<g id="edge23" class="edge">
<title>311&#45;&gt;2</title>
<path fill="none" stroke="green" stroke-width="0.24" stroke-dasharray="1,5" d="M80.31,-65.9C83.26,-57.37 86.77,-47.22 89.87,-38.28"/>
<polygon fill="green" stroke="green" stroke-width="0.24" points="93.17,-39.44 93.13,-28.85 86.55,-37.15 93.17,-39.44"/>
</g>
<!-- 125&#45;&gt;0 -->
<g id="edge21" class="edge">
<title>125&#45;&gt;0</title>
<path fill="none" stroke="red" stroke-width="0.75" d="M139.91,-143.85C144.43,-133.47 150.09,-120.49 154.86,-109.54"/>
<polygon fill="red" stroke="red" stroke-width="0.75" points="158.03,-111.04 158.81,-100.47 151.61,-108.24 158.03,-111.04"/>
</g>
<!-- 125&#45;&gt;1 -->
<g id="edge12" class="edge">
<title>125&#45;&gt;1</title>
<path fill="none" stroke="green" stroke-width="0.53" d="M148.37,-150.35C163.47,-139.18 186.3,-122.08 205.75,-106.71 207.4,-105.4 209.11,-104.03 210.82,-102.65"/>
<polygon fill="green" stroke="green" stroke-width="0.53" points="212.97,-105.41 218.46,-96.36 208.52,-100.01 212.97,-105.41"/>
</g>
<!-- 125&#45;&gt;2 -->
<g id="edge5" class="edge">
<title>125&#45;&gt;2</title>
<path fill="none" stroke="green" stroke-width="0.45" stroke-dasharray="1,5" d="M127.16,-142.74C120.96,-115.88 109.89,-68.01 103.24,-39.26"/>
<polygon fill="green" stroke="green" stroke-width="0.45" points="106.67,-38.54 101.01,-29.59 99.85,-40.12 106.67,-38.54"/>
</g>
<!-- 125&#45;&gt;3 -->
<g id="edge4" class="edge">
<title>125&#45;&gt;3</title>
<path fill="none" stroke="red" stroke-width="0.32" stroke-dasharray="1,5" d="M151.41,-155.32C176.03,-145.84 219.07,-127.91 252.75,-106.71 254.68,-105.49 256.63,-104.14 258.54,-102.72"/>
<polygon fill="red" stroke="red" stroke-width="0.32" points="260.46,-105.67 266.07,-96.68 256.08,-100.21 260.46,-105.67"/>
</g>
<!-- 125&#45;&gt;311 -->
<g id="edge22" class="edge">
<title>125&#45;&gt;311</title>
<path fill="none" stroke="red" stroke-width="0.31" d="M119.45,-146.51C111.58,-136.24 101.23,-122.72 92.37,-111.15"/>
<polygon fill="red" stroke="red" stroke-width="0.31" points="95.38,-109.33 86.52,-103.52 89.82,-113.59 95.38,-109.33"/>
</g>
<!-- 127&#45;&gt;0 -->
<g id="edge6" class="edge">
<title>127&#45;&gt;0</title>
<path fill="none" stroke="green" stroke-width="0.4" stroke-dasharray="1,5" d="M231.71,-148.68C217.82,-135.86 197.18,-116.8 182.49,-103.24"/>
<polygon fill="green" stroke="green" stroke-width="0.4" points="185.19,-100.96 175.47,-96.75 180.44,-106.1 185.19,-100.96"/>
</g>
<!-- 127&#45;&gt;1 -->
<g id="edge9" class="edge">
<title>127&#45;&gt;1</title>
<path fill="none" stroke="red" stroke-width="0.37" d="M242.37,-143.07C240.12,-133.05 237.37,-120.78 235,-110.25"/>
<polygon fill="red" stroke="red" stroke-width="0.37" points="238.45,-109.63 232.85,-100.64 231.62,-111.16 238.45,-109.63"/>
</g>
<!-- 127&#45;&gt;3 -->
<g id="edge14" class="edge">
<title>127&#45;&gt;3</title>
<path fill="none" stroke="green" stroke-width="0.16" d="M254.17,-143.85C258.31,-133.39 263.5,-120.28 267.86,-109.28"/>
<polygon fill="green" stroke="green" stroke-width="0.16" points="271.06,-110.71 271.49,-100.12 264.56,-108.13 271.06,-110.71"/>
</g>
</g>
</svg>
