<?xml version="1.0" encoding="UTF-8" standalone="no"?>
<!DOCTYPE svg PUBLIC "-//W3C//DTD SVG 1.1//EN"
 "http://www.w3.org/Graphics/SVG/1.1/DTD/svg11.dtd">
<!-- Generated by graphviz version 12.1.1 (20240910.0053)
 -->
<!-- Pages: 1 -->
<svg width="950pt" height="402pt"
 viewBox="0.00 0.00 950.00 402.37" xmlns="http://www.w3.org/2000/svg" xmlns:xlink="http://www.w3.org/1999/xlink">
<g id="graph0" class="graph" transform="scale(1 1) rotate(0) translate(4 398.37)">
<polygon fill="white" stroke="none" points="-4,4 -4,-398.37 946,-398.37 946,4 -4,4"/>
<!-- &#45;1 -->
<g id="node1" class="node">
<title>&#45;1</title>
<polygon fill="lightgray" stroke="black" points="331.75,-394.37 308.25,-394.37 308.25,-375.87 331.75,-375.87 331.75,-394.37"/>
<text text-anchor="middle" x="320" y="-381.82" font-family="Times,serif" font-size="9.00">&#45;1</text>
</g>
<!-- &#45;2 -->
<g id="node2" class="node">
<title>&#45;2</title>
<polygon fill="lightgray" stroke="black" points="819.75,-172.82 796.25,-172.82 796.25,-154.32 819.75,-154.32 819.75,-172.82"/>
<text text-anchor="middle" x="808" y="-160.27" font-family="Times,serif" font-size="9.00">&#45;2</text>
</g>
<!-- 166 -->
<g id="node27" class="node">
<title>166</title>
<ellipse fill="white" stroke="black" cx="718" cy="-85.85" rx="20.86" ry="20.86"/>
<text text-anchor="middle" x="718" y="-82.55" font-family="Times,serif" font-size="9.00">166</text>
</g>
<!-- &#45;2&#45;&gt;166 -->
<g id="edge10" class="edge">
<title>&#45;2&#45;&gt;166</title>
<path fill="none" stroke="green" stroke-width="0.12" d="M799.15,-153.91C795.45,-150.37 791.08,-146.28 787,-142.71 772.4,-129.93 755.48,-116.22 742.04,-105.57"/>
<polygon fill="green" stroke="green" stroke-width="0.12" points="744.34,-102.93 734.32,-99.49 740.01,-108.42 744.34,-102.93"/>
</g>
<!-- &#45;3 -->
<g id="node3" class="node">
<title>&#45;3</title>
<polygon fill="lightgray" stroke="black" points="419.75,-394.37 396.25,-394.37 396.25,-375.87 419.75,-375.87 419.75,-394.37"/>
<text text-anchor="middle" x="408" y="-381.82" font-family="Times,serif" font-size="9.00">&#45;3</text>
</g>
<!-- &#45;4 -->
<g id="node4" class="node">
<title>&#45;4</title>
<polygon fill="lightgray" stroke="black" points="167.75,-172.82 144.25,-172.82 144.25,-154.32 167.75,-154.32 167.75,-172.82"/>
<text text-anchor="middle" x="156" y="-160.27" font-family="Times,serif" font-size="9.00">&#45;4</text>
</g>
<!-- 167 -->
<g id="node28" class="node">
<title>167</title>
<ellipse fill="white" stroke="black" cx="196" cy="-85.85" rx="20.86" ry="20.86"/>
<text text-anchor="middle" x="196" y="-82.55" font-family="Times,serif" font-size="9.00">167</text>
</g>
<!-- &#45;4&#45;&gt;167 -->
<g id="edge8" class="edge">
<title>&#45;4&#45;&gt;167</title>
<path fill="none" stroke="red" stroke-width="0.11" d="M160.59,-153.88C165.74,-144.13 174.35,-127.83 181.79,-113.75"/>
<polygon fill="red" stroke="red" stroke-width="0.11" points="184.81,-115.53 186.39,-105.05 178.62,-112.26 184.81,-115.53"/>
</g>
<!-- &#45;5 -->
<g id="node5" class="node">
<title>&#45;5</title>
<polygon fill="lightgray" stroke="black" points="491.75,-172.82 468.25,-172.82 468.25,-154.32 491.75,-154.32 491.75,-172.82"/>
<text text-anchor="middle" x="480" y="-160.27" font-family="Times,serif" font-size="9.00">&#45;5</text>
</g>
<!-- &#45;5&#45;&gt;166 -->
<g id="edge9" class="edge">
<title>&#45;5&#45;&gt;166</title>
<path fill="none" stroke="green" stroke-width="0.41" d="M487.02,-154.18C490.79,-150.17 495.73,-145.62 501,-142.71 561.58,-109.24 642.77,-95.31 686.66,-89.93"/>
<polygon fill="green" stroke="green" stroke-width="0.41" points="686.84,-93.43 696.37,-88.81 686.04,-86.48 686.84,-93.43"/>
</g>
<!-- &#45;5&#45;&gt;167 -->
<g id="edge14" class="edge">
<title>&#45;5&#45;&gt;167</title>
<path fill="none" stroke="red" stroke-width="0.14" stroke-dasharray="1,5" d="M467.8,-159.32C425.86,-148.14 286.85,-111.07 225.52,-94.72"/>
<polygon fill="red" stroke="red" stroke-width="0.14" points="226.8,-91.44 216.23,-92.25 224.99,-98.2 226.8,-91.44"/>
</g>
<!-- 168 -->
<g id="node29" class="node">
<title>168</title>
<ellipse fill="white" stroke="black" cx="440" cy="-85.85" rx="20.86" ry="20.86"/>
<text text-anchor="middle" x="440" y="-82.55" font-family="Times,serif" font-size="9.00">168</text>
</g>
<!-- &#45;5&#45;&gt;168 -->
<g id="edge23" class="edge">
<title>&#45;5&#45;&gt;168</title>
<path fill="none" stroke="red" stroke-width="0.22" stroke-dasharray="1,5" d="M475.41,-153.88C470.26,-144.13 461.65,-127.83 454.21,-113.75"/>
<polygon fill="red" stroke="red" stroke-width="0.22" points="457.45,-112.4 449.69,-105.19 451.26,-115.67 457.45,-112.4"/>
</g>
<!-- &#45;6 -->
<g id="node6" class="node">
<title>&#45;6</title>
<polygon fill="lightgray" stroke="black" points="289.75,-172.82 266.25,-172.82 266.25,-154.32 289.75,-154.32 289.75,-172.82"/>
<text text-anchor="middle" x="278" y="-160.27" font-family="Times,serif" font-size="9.00">&#45;6</text>
</g>
<!-- &#45;6&#45;&gt;166 -->
<g id="edge27" class="edge">
<title>&#45;6&#45;&gt;166</title>
<path fill="none" stroke="green" stroke-width="0.19" d="M284.88,-153.91C288.61,-149.83 293.56,-145.3 299,-142.71 333.93,-126.05 595.74,-98.92 686.85,-89.89"/>
<polygon fill="green" stroke="green" stroke-width="0.19" points="687.2,-93.37 696.8,-88.91 686.51,-86.4 687.2,-93.37"/>
</g>
<!-- &#45;6&#45;&gt;167 -->
<g id="edge3" class="edge">
<title>&#45;6&#45;&gt;167</title>
<path fill="none" stroke="green" stroke-width="1.01" d="M269.04,-154.03C265.32,-150.51 260.97,-146.4 257,-142.71 244.72,-131.29 230.95,-118.66 219.61,-108.31"/>
<polygon fill="green" stroke="green" stroke-width="1.01" points="221.98,-105.73 212.23,-101.58 217.26,-110.91 221.98,-105.73"/>
</g>
<!-- &#45;7 -->
<g id="node7" class="node">
<title>&#45;7</title>
<polygon fill="lightgray" stroke="black" points="639.75,-172.82 616.25,-172.82 616.25,-154.32 639.75,-154.32 639.75,-172.82"/>
<text text-anchor="middle" x="628" y="-160.27" font-family="Times,serif" font-size="9.00">&#45;7</text>
</g>
<!-- &#45;7&#45;&gt;166 -->
<g id="edge22" class="edge">
<title>&#45;7&#45;&gt;166</title>
<path fill="none" stroke="green" stroke-width="0.19" stroke-dasharray="1,5" d="M636.85,-153.91C640.55,-150.37 644.92,-146.28 649,-142.71 663.6,-129.93 680.52,-116.22 693.96,-105.57"/>
<polygon fill="green" stroke="green" stroke-width="0.19" points="695.91,-108.49 701.6,-99.55 691.58,-102.99 695.91,-108.49"/>
</g>
<!-- &#45;8 -->
<g id="node8" class="node">
<title>&#45;8</title>
<polygon fill="lightgray" stroke="black" points="461.75,-394.37 438.25,-394.37 438.25,-375.87 461.75,-375.87 461.75,-394.37"/>
<text text-anchor="middle" x="450" y="-381.82" font-family="Times,serif" font-size="9.00">&#45;8</text>
</g>
<!-- &#45;9 -->
<g id="node9" class="node">
<title>&#45;9</title>
<polygon fill="lightgray" stroke="black" points="247.75,-172.82 224.25,-172.82 224.25,-154.32 247.75,-154.32 247.75,-172.82"/>
<text text-anchor="middle" x="236" y="-160.27" font-family="Times,serif" font-size="9.00">&#45;9</text>
</g>
<!-- &#45;9&#45;&gt;167 -->
<g id="edge16" class="edge">
<title>&#45;9&#45;&gt;167</title>
<path fill="none" stroke="green" stroke-width="0.4" d="M231.41,-153.88C226.31,-144.23 217.81,-128.14 210.42,-114.15"/>
<polygon fill="green" stroke="green" stroke-width="0.4" points="213.59,-112.65 205.82,-105.44 207.4,-115.92 213.59,-112.65"/>
</g>
<!-- &#45;9&#45;&gt;168 -->
<g id="edge17" class="edge">
<title>&#45;9&#45;&gt;168</title>
<path fill="none" stroke="green" stroke-width="0.19" d="M243.46,-153.87C247.19,-149.99 251.97,-145.64 257,-142.71 306.21,-114.08 371.55,-98.75 409.37,-91.74"/>
<polygon fill="green" stroke="green" stroke-width="0.19" points="409.76,-95.23 418.99,-90.03 408.53,-88.34 409.76,-95.23"/>
</g>
<!-- &#45;10 -->
<g id="node10" class="node">
<title>&#45;10</title>
<polygon fill="lightgray" stroke="black" points="686,-172.82 658,-172.82 658,-154.32 686,-154.32 686,-172.82"/>
<text text-anchor="middle" x="672" y="-160.27" font-family="Times,serif" font-size="9.00">&#45;10</text>
</g>
<!-- &#45;10&#45;&gt;166 -->
<g id="edge11" class="edge">
<title>&#45;10&#45;&gt;166</title>
<path fill="none" stroke="red" stroke-width="0.16" d="M677.28,-153.88C683.34,-143.91 693.56,-127.09 702.24,-112.79"/>
<polygon fill="red" stroke="red" stroke-width="0.16" points="705.08,-114.86 707.28,-104.5 699.1,-111.23 705.08,-114.86"/>
</g>
<!-- &#45;11 -->
<g id="node11" class="node">
<title>&#45;11</title>
<polygon fill="lightgray" stroke="black" points="378,-394.37 350,-394.37 350,-375.87 378,-375.87 378,-394.37"/>
<text text-anchor="middle" x="364" y="-381.82" font-family="Times,serif" font-size="9.00">&#45;11</text>
</g>
<!-- 452 -->
<g id="node26" class="node">
<title>452</title>
<ellipse fill="white" stroke="black" cx="334" cy="-241.29" rx="20.86" ry="20.86"/>
<text text-anchor="middle" x="334" y="-237.99" font-family="Times,serif" font-size="9.00">452</text>
</g>
<!-- &#45;11&#45;&gt;452 -->
<g id="edge37" class="edge">
<title>&#45;11&#45;&gt;452</title>
<path fill="none" stroke="green" stroke-width="0.57" stroke-dasharray="1,5" d="M362.21,-375.67C358.01,-355.79 347.32,-305.27 340.37,-272.42"/>
<polygon fill="green" stroke="green" stroke-width="0.57" points="343.85,-271.93 338.35,-262.87 337,-273.38 343.85,-271.93"/>
</g>
<!-- &#45;11&#45;&gt;166 -->
<g id="edge25" class="edge">
<title>&#45;11&#45;&gt;166</title>
<path fill="none" stroke="green" stroke-width="0.34" stroke-dasharray="1,5" d="M378.25,-378.74C456.65,-349.08 832.55,-206.05 847,-184.43 857.31,-169.02 857.18,-158.21 847,-142.71 825.43,-109.86 779.96,-96.24 749.19,-90.65"/>
<polygon fill="green" stroke="green" stroke-width="0.34" points="749.92,-87.22 739.49,-89.07 748.8,-94.13 749.92,-87.22"/>
</g>
<!-- &#45;11&#45;&gt;167 -->
<g id="edge5" class="edge">
<title>&#45;11&#45;&gt;167</title>
<path fill="none" stroke="green" stroke-width="0.33" d="M349.86,-378.97C295.1,-358.91 99.19,-285.92 82,-262.15 50.84,-219.06 46.34,-187.5 75,-142.71 94.77,-111.81 136.45,-97.76 165.33,-91.54"/>
<polygon fill="green" stroke="green" stroke-width="0.33" points="165.7,-95.03 174.84,-89.68 164.36,-88.16 165.7,-95.03"/>
</g>
<!-- &#45;11&#45;&gt;168 -->
<g id="edge19" class="edge">
<title>&#45;11&#45;&gt;168</title>
<path fill="none" stroke="green" stroke-width="0.29" stroke-dasharray="1,5" d="M366.19,-375.54C375.94,-337.4 415.64,-182.14 432.43,-116.44"/>
<polygon fill="green" stroke="green" stroke-width="0.29" points="435.82,-117.31 434.91,-106.76 429.04,-115.58 435.82,-117.31"/>
</g>
<!-- 547 -->
<g id="node31" class="node">
<title>547</title>
<ellipse fill="white" stroke="black" cx="315" cy="-319.01" rx="20.86" ry="20.86"/>
<text text-anchor="middle" x="315" y="-315.71" font-family="Times,serif" font-size="9.00">547</text>
</g>
<!-- &#45;11&#45;&gt;547 -->
<g id="edge40" class="edge">
<title>&#45;11&#45;&gt;547</title>
<path fill="none" stroke="green" stroke-width="0.32" d="M357.39,-375.47C351.27,-367.47 341.88,-355.17 333.48,-344.19"/>
<polygon fill="green" stroke="green" stroke-width="0.32" points="336.48,-342.35 327.63,-336.53 330.92,-346.6 336.48,-342.35"/>
</g>
<!-- &#45;12 -->
<g id="node12" class="node">
<title>&#45;12</title>
<polygon fill="lightgray" stroke="black" points="942,-172.82 914,-172.82 914,-154.32 942,-154.32 942,-172.82"/>
<text text-anchor="middle" x="928" y="-160.27" font-family="Times,serif" font-size="9.00">&#45;12</text>
</g>
<!-- 1 -->
<g id="node22" class="node">
<title>1</title>
<ellipse fill="lightblue" stroke="black" cx="886" cy="-85.85" rx="14.5" ry="14.5"/>
<text text-anchor="middle" x="886" y="-82.55" font-family="Times,serif" font-size="9.00">1</text>
</g>
<!-- &#45;12&#45;&gt;1 -->
<g id="edge33" class="edge">
<title>&#45;12&#45;&gt;1</title>
<path fill="none" stroke="green" stroke-width="0.54" d="M923.18,-153.88C917.07,-142.86 906.3,-123.46 897.93,-108.36"/>
<polygon fill="green" stroke="green" stroke-width="0.54" points="901.14,-106.94 893.23,-99.89 895.02,-110.33 901.14,-106.94"/>
</g>
<!-- 2 -->
<g id="node23" class="node">
<title>2</title>
<ellipse fill="lightblue" stroke="black" cx="684" cy="-14.5" rx="14.5" ry="14.5"/>
<text text-anchor="middle" x="684" y="-11.2" font-family="Times,serif" font-size="9.00">2</text>
</g>
<!-- &#45;12&#45;&gt;2 -->
<g id="edge36" class="edge">
<title>&#45;12&#45;&gt;2</title>
<path fill="none" stroke="green" stroke-width="0.33" d="M929.16,-153.87C931.16,-134.9 932.99,-89.57 909,-64.99 881.29,-36.6 761.4,-22.49 708.85,-17.57"/>
<polygon fill="green" stroke="green" stroke-width="0.33" points="709.47,-14.12 699.2,-16.71 708.85,-21.09 709.47,-14.12"/>
</g>
<!-- &#45;12&#45;&gt;166 -->
<g id="edge26" class="edge">
<title>&#45;12&#45;&gt;166</title>
<path fill="none" stroke="green" stroke-width="0.38" stroke-dasharray="1,5" d="M917.6,-153.99C912.53,-150.13 906.2,-145.76 900,-142.71 849.66,-117.94 786.06,-101.46 748.92,-93.16"/>
<polygon fill="green" stroke="green" stroke-width="0.38" points="749.8,-89.77 739.29,-91.07 748.31,-96.61 749.8,-89.77"/>
</g>
<!-- &#45;13 -->
<g id="node13" class="node">
<title>&#45;13</title>
<polygon fill="lightgray" stroke="black" points="336,-172.82 308,-172.82 308,-154.32 336,-154.32 336,-172.82"/>
<text text-anchor="middle" x="322" y="-160.27" font-family="Times,serif" font-size="9.00">&#45;13</text>
</g>
<!-- &#45;13&#45;&gt;166 -->
<g id="edge13" class="edge">
<title>&#45;13&#45;&gt;166</title>
<path fill="none" stroke="green" stroke-width="0.55" d="M336.09,-159.88C392.94,-149.01 606.17,-108.23 686.83,-92.81"/>
<polygon fill="green" stroke="green" stroke-width="0.55" points="687.32,-96.28 696.49,-90.96 686.01,-89.4 687.32,-96.28"/>
</g>
<!-- &#45;13&#45;&gt;167 -->
<g id="edge21" class="edge">
<title>&#45;13&#45;&gt;167</title>
<path fill="none" stroke="green" stroke-width="0.18" stroke-dasharray="1,5" d="M312.97,-153.98C308.87,-150.29 303.86,-146.07 299,-142.71 274.91,-126.07 245.34,-110.48 224.08,-100.02"/>
<polygon fill="green" stroke="green" stroke-width="0.18" points="225.71,-96.92 215.19,-95.71 222.66,-103.22 225.71,-96.92"/>
</g>
<!-- &#45;14 -->
<g id="node14" class="node">
<title>&#45;14</title>
<polygon fill="lightgray" stroke="black" points="119,-250.54 91,-250.54 91,-232.04 119,-232.04 119,-250.54"/>
<text text-anchor="middle" x="105" y="-237.99" font-family="Times,serif" font-size="9.00">&#45;14</text>
</g>
<!-- 422 -->
<g id="node30" class="node">
<title>422</title>
<ellipse fill="white" stroke="black" cx="105" cy="-163.57" rx="20.86" ry="20.86"/>
<text text-anchor="middle" x="105" y="-160.27" font-family="Times,serif" font-size="9.00">422</text>
</g>
<!-- &#45;14&#45;&gt;422 -->
<g id="edge34" class="edge">
<title>&#45;14&#45;&gt;422</title>
<path fill="none" stroke="green" stroke-width="0.22" stroke-dasharray="1,5" d="M105,-231.6C105,-222.65 105,-208.18 105,-194.97"/>
<polygon fill="green" stroke="green" stroke-width="0.22" points="108.5,-195.12 105,-185.12 101.5,-195.12 108.5,-195.12"/>
</g>
<!-- &#45;15 -->
<g id="node15" class="node">
<title>&#45;15</title>
<polygon fill="lightgray" stroke="black" points="525,-250.54 497,-250.54 497,-232.04 525,-232.04 525,-250.54"/>
<text text-anchor="middle" x="511" y="-237.99" font-family="Times,serif" font-size="9.00">&#45;15</text>
</g>
<!-- &#45;15&#45;&gt;166 -->
<g id="edge7" class="edge">
<title>&#45;15&#45;&gt;166</title>
<path fill="none" stroke="red" stroke-width="0.19" d="M525.36,-240.1C582.06,-239 789.26,-231.76 829,-184.43 840.92,-170.23 838.73,-158.5 829,-142.71 811.61,-114.5 775.13,-100.03 748.72,-92.97"/>
<polygon fill="red" stroke="red" stroke-width="0.19" points="749.63,-89.59 739.08,-90.6 747.96,-96.39 749.63,-89.59"/>
</g>
<!-- &#45;15&#45;&gt;167 -->
<g id="edge12" class="edge">
<title>&#45;15&#45;&gt;167</title>
<path fill="none" stroke="green" stroke-width="0.4" d="M496.68,-238.54C440.27,-231.51 235.44,-204.76 215,-184.43 197.62,-167.15 193.67,-139.01 193.61,-117.38"/>
<polygon fill="green" stroke="green" stroke-width="0.4" points="197.1,-117.75 193.85,-107.67 190.1,-117.58 197.1,-117.75"/>
</g>
<!-- &#45;15&#45;&gt;168 -->
<g id="edge2" class="edge">
<title>&#45;15&#45;&gt;168</title>
<path fill="none" stroke="red" stroke-width="0.31" stroke-dasharray="1,5" d="M499.94,-231.7C487.88,-221.7 468.98,-204.03 459,-184.43 448.36,-163.54 443.66,-137.34 441.6,-117.35"/>
<polygon fill="red" stroke="red" stroke-width="0.31" points="445.09,-117.09 440.74,-107.43 438.11,-117.7 445.09,-117.09"/>
</g>
<!-- 282 -->
<g id="node32" class="node">
<title>282</title>
<ellipse fill="white" stroke="black" cx="577" cy="-163.57" rx="20.86" ry="20.86"/>
<text text-anchor="middle" x="577" y="-160.27" font-family="Times,serif" font-size="9.00">282</text>
</g>
<!-- &#45;15&#45;&gt;282 -->
<g id="edge30" class="edge">
<title>&#45;15&#45;&gt;282</title>
<path fill="none" stroke="green" stroke-width="0.22" d="M518.57,-231.6C527.91,-220.89 544.15,-202.25 557.15,-187.35"/>
<polygon fill="green" stroke="green" stroke-width="0.22" points="559.44,-190.04 563.37,-180.21 554.16,-185.44 559.44,-190.04"/>
</g>
<!-- &#45;16 -->
<g id="node16" class="node">
<title>&#45;16</title>
<polygon fill="lightgray" stroke="black" points="732,-172.82 704,-172.82 704,-154.32 732,-154.32 732,-172.82"/>
<text text-anchor="middle" x="718" y="-160.27" font-family="Times,serif" font-size="9.00">&#45;16</text>
</g>
<!-- &#45;16&#45;&gt;166 -->
<g id="edge24" class="edge">
<title>&#45;16&#45;&gt;166</title>
<path fill="none" stroke="green" stroke-width="0.2" d="M718,-153.88C718,-144.93 718,-130.46 718,-117.26"/>
<polygon fill="green" stroke="green" stroke-width="0.2" points="721.5,-117.37 718,-107.37 714.5,-117.37 721.5,-117.37"/>
</g>
<!-- &#45;17 -->
<g id="node17" class="node">
<title>&#45;17</title>
<polygon fill="lightgray" stroke="black" points="28,-172.82 0,-172.82 0,-154.32 28,-154.32 28,-172.82"/>
<text text-anchor="middle" x="14" y="-160.27" font-family="Times,serif" font-size="9.00">&#45;17</text>
</g>
<!-- 0 -->
<g id="node21" class="node">
<title>0</title>
<ellipse fill="lightblue" stroke="black" cx="148" cy="-14.5" rx="14.5" ry="14.5"/>
<text text-anchor="middle" x="148" y="-11.2" font-family="Times,serif" font-size="9.00">0</text>
</g>
<!-- &#45;17&#45;&gt;0 -->
<g id="edge32" class="edge">
<title>&#45;17&#45;&gt;0</title>
<path fill="none" stroke="green" stroke-width="0.19" stroke-dasharray="1,5" d="M21.59,-154.24C42.82,-130.94 103.17,-64.7 132.12,-32.92"/>
<polygon fill="green" stroke="green" stroke-width="0.19" points="134.42,-35.59 138.57,-25.84 129.25,-30.88 134.42,-35.59"/>
</g>
<!-- &#45;17&#45;&gt;167 -->
<g id="edge20" class="edge">
<title>&#45;17&#45;&gt;167</title>
<path fill="none" stroke="red" stroke-width="0.2" stroke-dasharray="1,5" d="M24.73,-153.93C29.77,-150.15 35.98,-145.86 42,-142.71 83.15,-121.16 134.47,-104.37 166.24,-95.04"/>
<polygon fill="red" stroke="red" stroke-width="0.2" points="166.9,-98.49 175.54,-92.36 164.96,-91.77 166.9,-98.49"/>
</g>
<!-- &#45;18 -->
<g id="node18" class="node">
<title>&#45;18</title>
<polygon fill="lightgray" stroke="black" points="508,-394.37 480,-394.37 480,-375.87 508,-375.87 508,-394.37"/>
<text text-anchor="middle" x="494" y="-381.82" font-family="Times,serif" font-size="9.00">&#45;18</text>
</g>
<!-- &#45;19 -->
<g id="node19" class="node">
<title>&#45;19</title>
<polygon fill="lightgray" stroke="black" points="778,-172.82 750,-172.82 750,-154.32 778,-154.32 778,-172.82"/>
<text text-anchor="middle" x="764" y="-160.27" font-family="Times,serif" font-size="9.00">&#45;19</text>
</g>
<!-- &#45;19&#45;&gt;166 -->
<g id="edge18" class="edge">
<title>&#45;19&#45;&gt;166</title>
<path fill="none" stroke="red" stroke-width="0.13" d="M758.72,-153.88C752.66,-143.91 742.44,-127.09 733.76,-112.79"/>
<polygon fill="red" stroke="red" stroke-width="0.13" points="736.89,-111.2 728.7,-104.47 730.9,-114.83 736.89,-111.2"/>
</g>
<!-- &#45;20 -->
<g id="node20" class="node">
<title>&#45;20</title>
<polygon fill="lightgray" stroke="black" points="538,-172.82 510,-172.82 510,-154.32 538,-154.32 538,-172.82"/>
<text text-anchor="middle" x="524" y="-160.27" font-family="Times,serif" font-size="9.00">&#45;20</text>
</g>
<!-- &#45;20&#45;&gt;168 -->
<g id="edge29" class="edge">
<title>&#45;20&#45;&gt;168</title>
<path fill="none" stroke="red" stroke-width="0.45" d="M514.36,-153.88C501.92,-142.67 479.86,-122.78 462.99,-107.57"/>
<polygon fill="red" stroke="red" stroke-width="0.45" points="465.46,-105.09 455.69,-101 460.78,-110.29 465.46,-105.09"/>
</g>
<!-- 3 -->
<g id="node24" class="node">
<title>3</title>
<ellipse fill="lightblue" stroke="black" cx="195" cy="-14.5" rx="14.5" ry="14.5"/>
<text text-anchor="middle" x="195" y="-11.2" font-family="Times,serif" font-size="9.00">3</text>
</g>
<!-- 4 -->
<g id="node25" class="node">
<title>4</title>
<ellipse fill="lightblue" stroke="black" cx="242" cy="-14.5" rx="14.5" ry="14.5"/>
<text text-anchor="middle" x="242" y="-11.2" font-family="Times,serif" font-size="9.00">4</text>
</g>
<!-- 452&#45;&gt;168 -->
<g id="edge38" class="edge">
<title>452&#45;&gt;168</title>
<path fill="none" stroke="green" stroke-width="0.63" d="M342.51,-221.87C352.23,-201.63 369.24,-168.57 388,-142.71 396.75,-130.64 407.85,-118.4 417.55,-108.46"/>
<polygon fill="green" stroke="green" stroke-width="0.63" points="420.03,-110.93 424.61,-101.38 415.07,-105.99 420.03,-110.93"/>
</g>
<!-- 452&#45;&gt;422 -->
<g id="edge39" class="edge">
<title>452&#45;&gt;422</title>
<path fill="none" stroke="green" stroke-width="0.37" d="M313.21,-236.67C276.17,-229.74 196.83,-212.73 135,-184.43 133.44,-183.72 131.87,-182.92 130.3,-182.08"/>
<polygon fill="green" stroke="green" stroke-width="0.37" points="132.46,-179.3 122.08,-177.16 128.87,-185.3 132.46,-179.3"/>
</g>
<!-- 167&#45;&gt;3 -->
<g id="edge4" class="edge">
<title>167&#45;&gt;3</title>
<path fill="none" stroke="green" stroke-width="0.28" d="M195.71,-64.79C195.6,-56.89 195.47,-47.75 195.35,-39.5"/>
<polygon fill="green" stroke="green" stroke-width="0.28" points="198.85,-39.73 195.21,-29.78 191.85,-39.83 198.85,-39.73"/>
</g>
<!-- 167&#45;&gt;4 -->
<g id="edge6" class="edge">
<title>167&#45;&gt;4</title>
<path fill="none" stroke="red" stroke-width="0.23" d="M207.14,-68.06C213.63,-58.26 221.87,-45.84 228.71,-35.53"/>
<polygon fill="red" stroke="red" stroke-width="0.23" points="231.48,-37.69 234.09,-27.43 225.64,-33.83 231.48,-37.69"/>
</g>
<!-- 168&#45;&gt;0 -->
<g id="edge15" class="edge">
<title>168&#45;&gt;0</title>
<path fill="none" stroke="red" stroke-width="0.31" d="M418.88,-82.68C372.81,-77.46 260.33,-62.13 172,-28.99 170.97,-28.61 169.93,-28.18 168.9,-27.72"/>
<polygon fill="red" stroke="red" stroke-width="0.31" points="170.78,-24.75 160.28,-23.33 167.59,-30.99 170.78,-24.75"/>
</g>
<!-- 168&#45;&gt;2 -->
<g id="edge1" class="edge">
<title>168&#45;&gt;2</title>
<path fill="none" stroke="red" stroke-width="0.32" stroke-dasharray="1,5" d="M459.97,-79.18C504.62,-66.48 612.39,-35.85 660.32,-22.23"/>
<polygon fill="red" stroke="red" stroke-width="0.32" points="660.99,-25.67 669.65,-19.57 659.08,-18.94 660.99,-25.67"/>
</g>
<!-- 168&#45;&gt;168 -->
<g id="edge28" class="edge">
<title>168&#45;&gt;168</title>
<path fill="none" stroke="red" stroke-width="0.33" stroke-dasharray="1,5" d="M457.18,-98.17C468.23,-101.39 478.86,-97.28 478.86,-85.85 478.86,-78.17 474.06,-73.8 467.56,-72.73"/>
<polygon fill="red" stroke="red" stroke-width="0.33" points="467.38,-69.23 457.68,-73.49 467.91,-76.21 467.38,-69.23"/>
</g>
<!-- 422&#45;&gt;167 -->
<g id="edge35" class="edge">
<title>422&#45;&gt;167</title>
<path fill="none" stroke="green" stroke-width="0.23" stroke-dasharray="1,5" d="M120.85,-149.38C135.2,-137.44 156.53,-119.69 172.8,-106.15"/>
<polygon fill="green" stroke="green" stroke-width="0.23" points="174.61,-109.2 180.06,-100.11 170.14,-103.82 174.61,-109.2"/>
</g>
<!-- 547&#45;&gt;452 -->
<g id="edge41" class="edge">
<title>547&#45;&gt;452</title>
<path fill="none" stroke="red" stroke-width="0.72" d="M319.89,-298.51C321.87,-290.62 324.2,-281.33 326.39,-272.6"/>
<polygon fill="red" stroke="red" stroke-width="0.72" points="329.75,-273.59 328.79,-263.04 322.97,-271.88 329.75,-273.59"/>
</g>
<!-- 282&#45;&gt;168 -->
<g id="edge31" class="edge">
<title>282&#45;&gt;168</title>
<path fill="none" stroke="green" stroke-width="0.13" stroke-dasharray="1,5" d="M560.06,-150.92C555.85,-148.14 551.3,-145.25 547,-142.71 520.59,-127.13 489.4,-111.11 467.54,-100.24"/>
<polygon fill="green" stroke="green" stroke-width="0.13" points="469.18,-97.15 458.67,-95.86 466.09,-103.43 469.18,-97.15"/>
</g>
</g>
</svg>
