<?xml version="1.0" encoding="UTF-8" standalone="no"?>
<!DOCTYPE svg PUBLIC "-//W3C//DTD SVG 1.1//EN"
 "http://www.w3.org/Graphics/SVG/1.1/DTD/svg11.dtd">
<!-- Generated by graphviz version 12.1.1 (20240910.0053)
 -->
<!-- Pages: 1 -->
<svg width="920pt" height="173pt"
 viewBox="0.00 0.00 920.25 173.34" xmlns="http://www.w3.org/2000/svg" xmlns:xlink="http://www.w3.org/1999/xlink">
<g id="graph0" class="graph" transform="scale(1 1) rotate(0) translate(4 169.34)">
<polygon fill="white" stroke="none" points="-4,4 -4,-169.34 916.25,-169.34 916.25,4 -4,4"/>
<!-- &#45;1 -->
<g id="node1" class="node">
<title>&#45;1</title>
<polygon fill="lightgray" stroke="black" points="421.5,-160.09 398,-160.09 398,-141.59 421.5,-141.59 421.5,-160.09"/>
<text text-anchor="middle" x="409.75" y="-147.54" font-family="Times,serif" font-size="9.00">&#45;1</text>
</g>
<!-- 93 -->
<g id="node27" class="node">
<title>93</title>
<ellipse fill="white" stroke="black" cx="213.75" cy="-82.67" rx="17.68" ry="17.68"/>
<text text-anchor="middle" x="213.75" y="-79.37" font-family="Times,serif" font-size="9.00">93</text>
</g>
<!-- &#45;1&#45;&gt;93 -->
<g id="edge39" class="edge">
<title>&#45;1&#45;&gt;93</title>
<path fill="none" stroke="green" stroke-width="0.47" d="M397.64,-141.25C394.81,-139.47 391.74,-137.73 388.75,-136.35 338.87,-113.36 276.44,-97.38 241.23,-89.43"/>
<polygon fill="green" stroke="green" stroke-width="0.47" points="242.43,-86.11 231.91,-87.38 240.93,-92.95 242.43,-86.11"/>
</g>
<!-- 95 -->
<g id="node29" class="node">
<title>95</title>
<ellipse fill="white" stroke="black" cx="612.75" cy="-82.67" rx="17.68" ry="17.68"/>
<text text-anchor="middle" x="612.75" y="-79.37" font-family="Times,serif" font-size="9.00">95</text>
</g>
<!-- &#45;1&#45;&gt;95 -->
<g id="edge11" class="edge">
<title>&#45;1&#45;&gt;95</title>
<path fill="none" stroke="green" stroke-width="0.41" d="M421.8,-141.11C424.63,-139.34 427.72,-137.63 430.75,-136.35 496.32,-108.7 521.17,-127.96 586.75,-100.35 587.64,-99.97 588.53,-99.57 589.42,-99.14"/>
<polygon fill="green" stroke="green" stroke-width="0.41" points="591.11,-102.2 598.11,-94.25 587.68,-96.1 591.11,-102.2"/>
</g>
<!-- &#45;2 -->
<g id="node2" class="node">
<title>&#45;2</title>
<polygon fill="lightgray" stroke="black" points="689.5,-160.09 666,-160.09 666,-141.59 689.5,-141.59 689.5,-160.09"/>
<text text-anchor="middle" x="677.75" y="-147.54" font-family="Times,serif" font-size="9.00">&#45;2</text>
</g>
<!-- 96 -->
<g id="node26" class="node">
<title>96</title>
<ellipse fill="white" stroke="black" cx="541.75" cy="-82.67" rx="17.68" ry="17.68"/>
<text text-anchor="middle" x="541.75" y="-79.37" font-family="Times,serif" font-size="9.00">96</text>
</g>
<!-- &#45;2&#45;&gt;96 -->
<g id="edge40" class="edge">
<title>&#45;2&#45;&gt;96</title>
<path fill="none" stroke="red" stroke-width="0.39" d="M665.93,-141.84C662.98,-139.95 659.79,-138.01 656.75,-136.35 627.04,-120.1 591.4,-104.32 567.76,-94.33"/>
<polygon fill="red" stroke="red" stroke-width="0.39" points="569.22,-91.15 558.64,-90.52 566.52,-97.61 569.22,-91.15"/>
</g>
<!-- &#45;3 -->
<g id="node3" class="node">
<title>&#45;3</title>
<polygon fill="lightgray" stroke="black" points="379.5,-160.09 356,-160.09 356,-141.59 379.5,-141.59 379.5,-160.09"/>
<text text-anchor="middle" x="367.75" y="-147.54" font-family="Times,serif" font-size="9.00">&#45;3</text>
</g>
<!-- &#45;3&#45;&gt;96 -->
<g id="edge23" class="edge">
<title>&#45;3&#45;&gt;96</title>
<path fill="none" stroke="green" stroke-width="0.38" d="M379.9,-141.34C382.73,-139.56 385.79,-137.78 388.75,-136.35 431.04,-115.85 483.39,-99.65 514.59,-90.88"/>
<polygon fill="green" stroke="green" stroke-width="0.38" points="515.43,-94.28 524.14,-88.25 513.57,-87.53 515.43,-94.28"/>
</g>
<!-- &#45;3&#45;&gt;93 -->
<g id="edge5" class="edge">
<title>&#45;3&#45;&gt;93</title>
<path fill="none" stroke="red" stroke-width="0.22" d="M355.55,-141.44C352.72,-139.65 349.68,-137.85 346.75,-136.35 311.09,-118.05 267.54,-101.88 240.21,-92.44"/>
<polygon fill="red" stroke="red" stroke-width="0.22" points="241.5,-89.18 230.9,-89.26 239.24,-95.8 241.5,-89.18"/>
</g>
<!-- &#45;4 -->
<g id="node4" class="node">
<title>&#45;4</title>
<polygon fill="lightgray" stroke="black" points="731.5,-160.09 708,-160.09 708,-141.59 731.5,-141.59 731.5,-160.09"/>
<text text-anchor="middle" x="719.75" y="-147.54" font-family="Times,serif" font-size="9.00">&#45;4</text>
</g>
<!-- &#45;4&#45;&gt;96 -->
<g id="edge6" class="edge">
<title>&#45;4&#45;&gt;96</title>
<path fill="none" stroke="green" stroke-width="0.13" d="M707.62,-141.29C704.79,-139.51 701.73,-137.75 698.75,-136.35 651.06,-113.91 635.52,-117.69 585.75,-100.35 579.68,-98.23 573.17,-95.84 567.08,-93.54"/>
<polygon fill="green" stroke="green" stroke-width="0.13" points="568.74,-90.43 558.15,-90.13 566.25,-96.96 568.74,-90.43"/>
</g>
<!-- &#45;5 -->
<g id="node5" class="node">
<title>&#45;5</title>
<polygon fill="lightgray" stroke="black" points="23.5,-160.09 0,-160.09 0,-141.59 23.5,-141.59 23.5,-160.09"/>
<text text-anchor="middle" x="11.75" y="-147.54" font-family="Times,serif" font-size="9.00">&#45;5</text>
</g>
<!-- &#45;5&#45;&gt;93 -->
<g id="edge4" class="edge">
<title>&#45;5&#45;&gt;93</title>
<path fill="none" stroke="red" stroke-width="0.32" stroke-dasharray="1,5" d="M23.85,-141.23C26.68,-139.46 29.75,-137.71 32.75,-136.35 84.8,-112.65 150.13,-96.76 186.36,-89.06"/>
<polygon fill="red" stroke="red" stroke-width="0.32" points="186.64,-92.57 195.72,-87.12 185.22,-85.72 186.64,-92.57"/>
</g>
<!-- &#45;6 -->
<g id="node6" class="node">
<title>&#45;6</title>
<polygon fill="lightgray" stroke="black" points="865.5,-160.09 842,-160.09 842,-141.59 865.5,-141.59 865.5,-160.09"/>
<text text-anchor="middle" x="853.75" y="-147.54" font-family="Times,serif" font-size="9.00">&#45;6</text>
</g>
<!-- &#45;7 -->
<g id="node7" class="node">
<title>&#45;7</title>
<polygon fill="lightgray" stroke="black" points="509.5,-160.09 486,-160.09 486,-141.59 509.5,-141.59 509.5,-160.09"/>
<text text-anchor="middle" x="497.75" y="-147.54" font-family="Times,serif" font-size="9.00">&#45;7</text>
</g>
<!-- &#45;7&#45;&gt;96 -->
<g id="edge24" class="edge">
<title>&#45;7&#45;&gt;96</title>
<path fill="none" stroke="green" stroke-width="0.21" d="M503.5,-141.19C509.39,-132.34 518.78,-118.22 526.78,-106.18"/>
<polygon fill="green" stroke="green" stroke-width="0.21" points="529.5,-108.42 532.12,-98.15 523.67,-104.54 529.5,-108.42"/>
</g>
<!-- 94 -->
<g id="node28" class="node">
<title>94</title>
<ellipse fill="white" stroke="black" cx="455.75" cy="-82.67" rx="17.68" ry="17.68"/>
<text text-anchor="middle" x="455.75" y="-79.37" font-family="Times,serif" font-size="9.00">94</text>
</g>
<!-- &#45;7&#45;&gt;94 -->
<g id="edge18" class="edge">
<title>&#45;7&#45;&gt;94</title>
<path fill="none" stroke="green" stroke-width="0.11" d="M492.26,-141.19C486.68,-132.4 477.79,-118.39 470.18,-106.41"/>
<polygon fill="green" stroke="green" stroke-width="0.11" points="473.34,-104.85 465.02,-98.28 467.43,-108.6 473.34,-104.85"/>
</g>
<!-- &#45;8 -->
<g id="node8" class="node">
<title>&#45;8</title>
<polygon fill="lightgray" stroke="black" points="291.5,-160.09 268,-160.09 268,-141.59 291.5,-141.59 291.5,-160.09"/>
<text text-anchor="middle" x="279.75" y="-147.54" font-family="Times,serif" font-size="9.00">&#45;8</text>
</g>
<!-- &#45;8&#45;&gt;94 -->
<g id="edge19" class="edge">
<title>&#45;8&#45;&gt;94</title>
<path fill="none" stroke="red" stroke-width="0.21" d="M291.9,-141.33C294.73,-139.55 297.78,-137.78 300.75,-136.35 343.76,-115.6 397.08,-99.4 428.65,-90.71"/>
<polygon fill="red" stroke="red" stroke-width="0.21" points="429.43,-94.12 438.17,-88.14 427.6,-87.36 429.43,-94.12"/>
</g>
<!-- &#45;9 -->
<g id="node9" class="node">
<title>&#45;9</title>
<polygon fill="lightgray" stroke="black" points="203.5,-160.09 180,-160.09 180,-141.59 203.5,-141.59 203.5,-160.09"/>
<text text-anchor="middle" x="191.75" y="-147.54" font-family="Times,serif" font-size="9.00">&#45;9</text>
</g>
<!-- &#45;9&#45;&gt;96 -->
<g id="edge8" class="edge">
<title>&#45;9&#45;&gt;96</title>
<path fill="none" stroke="green" stroke-width="0.54" d="M203.26,-141.17C206.22,-139.31 209.5,-137.54 212.75,-136.35 326.39,-94.62 364.2,-124.87 482.75,-100.35 493.31,-98.16 504.76,-95.09 514.73,-92.18"/>
<polygon fill="green" stroke="green" stroke-width="0.54" points="515.51,-95.6 524.08,-89.37 513.5,-88.9 515.51,-95.6"/>
</g>
<!-- &#45;9&#45;&gt;93 -->
<g id="edge33" class="edge">
<title>&#45;9&#45;&gt;93</title>
<path fill="none" stroke="red" stroke-width="0.34" d="M194.63,-141.19C197.28,-133.2 201.37,-120.91 205.08,-109.73"/>
<polygon fill="red" stroke="red" stroke-width="0.34" points="208.34,-111.03 208.18,-100.43 201.7,-108.82 208.34,-111.03"/>
</g>
<!-- &#45;9&#45;&gt;94 -->
<g id="edge36" class="edge">
<title>&#45;9&#45;&gt;94</title>
<path fill="none" stroke="red" stroke-width="0.15" d="M203.34,-141.36C206.29,-139.49 209.55,-137.67 212.75,-136.35 286.97,-105.63 381.68,-91.74 427.88,-86.44"/>
<polygon fill="red" stroke="red" stroke-width="0.15" points="428.25,-89.92 437.8,-85.35 427.48,-82.96 428.25,-89.92"/>
</g>
<!-- &#45;10 -->
<g id="node10" class="node">
<title>&#45;10</title>
<polygon fill="lightgray" stroke="black" points="249.75,-160.09 221.75,-160.09 221.75,-141.59 249.75,-141.59 249.75,-160.09"/>
<text text-anchor="middle" x="235.75" y="-147.54" font-family="Times,serif" font-size="9.00">&#45;10</text>
</g>
<!-- &#45;10&#45;&gt;96 -->
<g id="edge20" class="edge">
<title>&#45;10&#45;&gt;96</title>
<path fill="none" stroke="red" stroke-width="0.3" d="M248.47,-141.25C251.71,-139.39 255.26,-137.6 258.75,-136.35 353.64,-102.25 384.29,-122.1 482.75,-100.35 493.4,-98 504.97,-94.86 515.02,-91.94"/>
<polygon fill="red" stroke="red" stroke-width="0.3" points="515.82,-95.35 524.41,-89.14 513.82,-88.64 515.82,-95.35"/>
</g>
<!-- &#45;10&#45;&gt;93 -->
<g id="edge3" class="edge">
<title>&#45;10&#45;&gt;93</title>
<path fill="none" stroke="red" stroke-width="0.15" d="M232.87,-141.19C230.19,-133.12 226.05,-120.66 222.3,-109.39"/>
<polygon fill="red" stroke="red" stroke-width="0.15" points="225.71,-108.55 219.23,-100.16 219.07,-110.75 225.71,-108.55"/>
</g>
<!-- &#45;11 -->
<g id="node11" class="node">
<title>&#45;11</title>
<polygon fill="lightgray" stroke="black" points="555.75,-160.09 527.75,-160.09 527.75,-141.59 555.75,-141.59 555.75,-160.09"/>
<text text-anchor="middle" x="541.75" y="-147.54" font-family="Times,serif" font-size="9.00">&#45;11</text>
</g>
<!-- &#45;11&#45;&gt;96 -->
<g id="edge2" class="edge">
<title>&#45;11&#45;&gt;96</title>
<path fill="none" stroke="red" stroke-width="0.31" d="M541.75,-141.19C541.75,-133.52 541.75,-121.89 541.75,-111.08"/>
<polygon fill="red" stroke="red" stroke-width="0.31" points="545.25,-111.2 541.75,-101.2 538.25,-111.2 545.25,-111.2"/>
</g>
<!-- &#45;11&#45;&gt;94 -->
<g id="edge1" class="edge">
<title>&#45;11&#45;&gt;94</title>
<path fill="none" stroke="green" stroke-width="0.37" stroke-dasharray="1,5" d="M530.51,-141.19C517.17,-130.93 494.62,-113.58 477.77,-100.61"/>
<polygon fill="green" stroke="green" stroke-width="0.37" points="480.05,-97.95 470,-94.63 475.79,-103.5 480.05,-97.95"/>
</g>
<!-- &#45;12 -->
<g id="node12" class="node">
<title>&#45;12</title>
<polygon fill="lightgray" stroke="black" points="647.75,-160.09 619.75,-160.09 619.75,-141.59 647.75,-141.59 647.75,-160.09"/>
<text text-anchor="middle" x="633.75" y="-147.54" font-family="Times,serif" font-size="9.00">&#45;12</text>
</g>
<!-- &#45;12&#45;&gt;96 -->
<g id="edge38" class="edge">
<title>&#45;12&#45;&gt;96</title>
<path fill="none" stroke="red" stroke-width="0.31" d="M621.72,-141.19C607.16,-130.71 582.32,-112.85 564.18,-99.81"/>
<polygon fill="red" stroke="red" stroke-width="0.31" points="566.44,-97.11 556.27,-94.12 562.35,-102.8 566.44,-97.11"/>
</g>
<!-- &#45;12&#45;&gt;94 -->
<g id="edge37" class="edge">
<title>&#45;12&#45;&gt;94</title>
<path fill="none" stroke="green" stroke-width="0.13" d="M619.88,-141.1C616.93,-139.41 613.78,-137.73 610.75,-136.35 567.33,-116.48 514.14,-100 482.71,-91.02"/>
<polygon fill="green" stroke="green" stroke-width="0.13" points="483.7,-87.66 473.12,-88.32 481.8,-94.4 483.7,-87.66"/>
</g>
<!-- &#45;12&#45;&gt;95 -->
<g id="edge16" class="edge">
<title>&#45;12&#45;&gt;95</title>
<path fill="none" stroke="red" stroke-width="0.2" d="M631,-141.19C628.47,-133.2 624.57,-120.91 621.02,-109.73"/>
<polygon fill="red" stroke="red" stroke-width="0.2" points="624.37,-108.7 618.01,-100.23 617.69,-110.82 624.37,-108.7"/>
</g>
<!-- &#45;13 -->
<g id="node13" class="node">
<title>&#45;13</title>
<polygon fill="lightgray" stroke="black" points="601.75,-160.09 573.75,-160.09 573.75,-141.59 601.75,-141.59 601.75,-160.09"/>
<text text-anchor="middle" x="587.75" y="-147.54" font-family="Times,serif" font-size="9.00">&#45;13</text>
</g>
<!-- &#45;13&#45;&gt;96 -->
<g id="edge21" class="edge">
<title>&#45;13&#45;&gt;96</title>
<path fill="none" stroke="red" stroke-width="0.29" d="M581.74,-141.19C575.58,-132.34 565.76,-118.22 557.4,-106.18"/>
<polygon fill="red" stroke="red" stroke-width="0.29" points="560.47,-104.47 551.89,-98.25 554.72,-108.46 560.47,-104.47"/>
</g>
<!-- &#45;13&#45;&gt;94 -->
<g id="edge35" class="edge">
<title>&#45;13&#45;&gt;94</title>
<path fill="none" stroke="red" stroke-width="0.2" d="M573.74,-141.38C570.8,-139.67 567.69,-137.92 564.75,-136.35 536.49,-121.26 503.23,-105.46 480.95,-95.15"/>
<polygon fill="red" stroke="red" stroke-width="0.2" points="482.66,-92.08 472.11,-91.08 479.73,-98.44 482.66,-92.08"/>
</g>
<!-- &#45;14 -->
<g id="node14" class="node">
<title>&#45;14</title>
<polygon fill="lightgray" stroke="black" points="337.75,-160.09 309.75,-160.09 309.75,-141.59 337.75,-141.59 337.75,-160.09"/>
<text text-anchor="middle" x="323.75" y="-147.54" font-family="Times,serif" font-size="9.00">&#45;14</text>
</g>
<!-- &#45;14&#45;&gt;94 -->
<g id="edge7" class="edge">
<title>&#45;14&#45;&gt;94</title>
<path fill="none" stroke="green" stroke-width="0.13" d="M337.76,-141.38C340.7,-139.67 343.81,-137.92 346.75,-136.35 375.01,-121.26 408.27,-105.46 430.55,-95.15"/>
<polygon fill="green" stroke="green" stroke-width="0.13" points="431.86,-98.39 439.48,-91.03 428.93,-92.04 431.86,-98.39"/>
</g>
<!-- &#45;15 -->
<g id="node15" class="node">
<title>&#45;15</title>
<polygon fill="lightgray" stroke="black" points="823.75,-160.09 795.75,-160.09 795.75,-141.59 823.75,-141.59 823.75,-160.09"/>
<text text-anchor="middle" x="809.75" y="-147.54" font-family="Times,serif" font-size="9.00">&#45;15</text>
</g>
<!-- &#45;15&#45;&gt;95 -->
<g id="edge41" class="edge">
<title>&#45;15&#45;&gt;95</title>
<path fill="none" stroke="red" stroke-width="0.27" d="M796.41,-141.3C793.31,-139.52 789.97,-137.76 786.75,-136.35 736.7,-114.45 674.78,-98.08 639.93,-89.78"/>
<polygon fill="red" stroke="red" stroke-width="0.27" points="640.96,-86.42 630.43,-87.56 639.37,-93.24 640.96,-86.42"/>
</g>
<!-- &#45;16 -->
<g id="node16" class="node">
<title>&#45;16</title>
<polygon fill="lightgray" stroke="black" points="69.75,-160.09 41.75,-160.09 41.75,-141.59 69.75,-141.59 69.75,-160.09"/>
<text text-anchor="middle" x="55.75" y="-147.54" font-family="Times,serif" font-size="9.00">&#45;16</text>
</g>
<!-- &#45;16&#45;&gt;93 -->
<g id="edge29" class="edge">
<title>&#45;16&#45;&gt;93</title>
<path fill="none" stroke="green" stroke-width="0.14" d="M69.67,-141.2C72.62,-139.5 75.75,-137.8 78.75,-136.35 115.65,-118.46 160.28,-102 187.85,-92.4"/>
<polygon fill="green" stroke="green" stroke-width="0.14" points="188.66,-95.82 196.98,-89.25 186.38,-89.2 188.66,-95.82"/>
</g>
<!-- &#45;17 -->
<g id="node17" class="node">
<title>&#45;17</title>
<polygon fill="lightgray" stroke="black" points="161.75,-160.09 133.75,-160.09 133.75,-141.59 161.75,-141.59 161.75,-160.09"/>
<text text-anchor="middle" x="147.75" y="-147.54" font-family="Times,serif" font-size="9.00">&#45;17</text>
</g>
<!-- &#45;17&#45;&gt;93 -->
<g id="edge31" class="edge">
<title>&#45;17&#45;&gt;93</title>
<path fill="none" stroke="red" stroke-width="0.33" d="M156.38,-141.19C165.99,-131.56 181.82,-115.69 194.42,-103.05"/>
<polygon fill="red" stroke="red" stroke-width="0.33" points="196.83,-105.59 201.41,-96.04 191.87,-100.65 196.83,-105.59"/>
</g>
<!-- &#45;17&#45;&gt;94 -->
<g id="edge32" class="edge">
<title>&#45;17&#45;&gt;94</title>
<path fill="none" stroke="red" stroke-width="0.23" d="M160.49,-141.31C163.73,-139.44 167.28,-137.64 170.75,-136.35 260.99,-102.72 375.59,-89.93 427.69,-85.62"/>
<polygon fill="red" stroke="red" stroke-width="0.23" points="427.78,-89.12 437.48,-84.85 427.24,-82.14 427.78,-89.12"/>
</g>
<!-- &#45;18 -->
<g id="node18" class="node">
<title>&#45;18</title>
<polygon fill="lightgray" stroke="black" points="777.75,-160.09 749.75,-160.09 749.75,-141.59 777.75,-141.59 777.75,-160.09"/>
<text text-anchor="middle" x="763.75" y="-147.54" font-family="Times,serif" font-size="9.00">&#45;18</text>
</g>
<!-- &#45;18&#45;&gt;96 -->
<g id="edge42" class="edge">
<title>&#45;18&#45;&gt;96</title>
<path fill="none" stroke="red" stroke-width="0.1" d="M750.48,-141.14C747.37,-139.37 744.02,-137.65 740.75,-136.35 675.06,-110.15 653.41,-120.93 585.75,-100.35 579.6,-98.47 573.06,-96.18 566.97,-93.89"/>
<polygon fill="red" stroke="red" stroke-width="0.1" points="568.61,-90.77 558.02,-90.43 566.08,-97.3 568.61,-90.77"/>
</g>
<!-- &#45;18&#45;&gt;95 -->
<g id="edge43" class="edge">
<title>&#45;18&#45;&gt;95</title>
<path fill="none" stroke="red" stroke-width="0.48" d="M749.81,-141.24C746.86,-139.54 743.74,-137.83 740.75,-136.35 706.5,-119.36 665.39,-103.14 639.17,-93.3"/>
<polygon fill="red" stroke="red" stroke-width="0.48" points="640.51,-90.06 629.92,-89.86 638.07,-96.62 640.51,-90.06"/>
</g>
<!-- &#45;19 -->
<g id="node19" class="node">
<title>&#45;19</title>
<polygon fill="lightgray" stroke="black" points="115.75,-160.09 87.75,-160.09 87.75,-141.59 115.75,-141.59 115.75,-160.09"/>
<text text-anchor="middle" x="101.75" y="-147.54" font-family="Times,serif" font-size="9.00">&#45;19</text>
</g>
<!-- &#45;19&#45;&gt;93 -->
<g id="edge14" class="edge">
<title>&#45;19&#45;&gt;93</title>
<path fill="none" stroke="red" stroke-width="0.25" d="M115.93,-141.46C134.48,-130.51 167.23,-111.16 189.69,-97.89"/>
<polygon fill="red" stroke="red" stroke-width="0.25" points="191.46,-100.91 198.29,-92.81 187.9,-94.88 191.46,-100.91"/>
</g>
<!-- &#45;20 -->
<g id="node20" class="node">
<title>&#45;20</title>
<polygon fill="lightgray" stroke="black" points="467.75,-160.09 439.75,-160.09 439.75,-141.59 467.75,-141.59 467.75,-160.09"/>
<text text-anchor="middle" x="453.75" y="-147.54" font-family="Times,serif" font-size="9.00">&#45;20</text>
</g>
<!-- &#45;20&#45;&gt;93 -->
<g id="edge10" class="edge">
<title>&#45;20&#45;&gt;93</title>
<path fill="none" stroke="green" stroke-width="0.23" d="M440.47,-141.17C437.36,-139.39 434.01,-137.67 430.75,-136.35 365.45,-109.93 283.54,-94.48 241.49,-87.73"/>
<polygon fill="green" stroke="green" stroke-width="0.23" points="242.21,-84.3 231.79,-86.22 241.14,-91.22 242.21,-84.3"/>
</g>
<!-- &#45;20&#45;&gt;94 -->
<g id="edge26" class="edge">
<title>&#45;20&#45;&gt;94</title>
<path fill="none" stroke="green" stroke-width="0.19" d="M454.01,-141.19C454.25,-133.44 454.6,-121.64 454.93,-110.75"/>
<polygon fill="green" stroke="green" stroke-width="0.19" points="458.42,-111.12 455.23,-101.02 451.42,-110.91 458.42,-111.12"/>
</g>
<!-- &#45;20&#45;&gt;95 -->
<g id="edge9" class="edge">
<title>&#45;20&#45;&gt;95</title>
<path fill="none" stroke="red" stroke-width="0.27" d="M467.11,-141.35C470.21,-139.57 473.54,-137.79 476.75,-136.35 523.65,-115.21 540.28,-122.41 586.75,-100.35 587.74,-99.88 588.74,-99.37 589.74,-98.85"/>
<polygon fill="red" stroke="red" stroke-width="0.27" points="591.34,-101.97 598.2,-93.9 587.8,-95.93 591.34,-101.97"/>
</g>
<!-- 0 -->
<g id="node21" class="node">
<title>0</title>
<ellipse fill="lightblue" stroke="black" cx="612.75" cy="-14.5" rx="14.5" ry="14.5"/>
<text text-anchor="middle" x="612.75" y="-11.2" font-family="Times,serif" font-size="9.00">0</text>
</g>
<!-- 1 -->
<g id="node22" class="node">
<title>1</title>
<ellipse fill="lightblue" stroke="black" cx="561.75" cy="-14.5" rx="14.5" ry="14.5"/>
<text text-anchor="middle" x="561.75" y="-11.2" font-family="Times,serif" font-size="9.00">1</text>
</g>
<!-- 2 -->
<g id="node23" class="node">
<title>2</title>
<ellipse fill="lightblue" stroke="black" cx="897.75" cy="-150.84" rx="14.5" ry="14.5"/>
<text text-anchor="middle" x="897.75" y="-147.54" font-family="Times,serif" font-size="9.00">2</text>
</g>
<!-- 3 -->
<g id="node24" class="node">
<title>3</title>
<ellipse fill="lightblue" stroke="black" cx="505.75" cy="-14.5" rx="14.5" ry="14.5"/>
<text text-anchor="middle" x="505.75" y="-11.2" font-family="Times,serif" font-size="9.00">3</text>
</g>
<!-- 4 -->
<g id="node25" class="node">
<title>4</title>
<ellipse fill="lightblue" stroke="black" cx="455.75" cy="-14.5" rx="14.5" ry="14.5"/>
<text text-anchor="middle" x="455.75" y="-11.2" font-family="Times,serif" font-size="9.00">4</text>
</g>
<!-- 96&#45;&gt;1 -->
<g id="edge25" class="edge">
<title>96&#45;&gt;1</title>
<path fill="none" stroke="green" stroke-width="0.19" d="M546.69,-65.31C549.15,-57.17 552.17,-47.19 554.85,-38.31"/>
<polygon fill="green" stroke="green" stroke-width="0.19" points="558.17,-39.43 557.72,-28.84 551.47,-37.4 558.17,-39.43"/>
</g>
<!-- 96&#45;&gt;3 -->
<g id="edge13" class="edge">
<title>96&#45;&gt;3</title>
<path fill="none" stroke="green" stroke-width="0.17" stroke-dasharray="1,5" d="M533.58,-66.65C528.74,-57.75 522.53,-46.34 517.2,-36.55"/>
<polygon fill="green" stroke="green" stroke-width="0.17" points="520.42,-35.14 512.57,-28.02 514.27,-38.48 520.42,-35.14"/>
</g>
<!-- 96&#45;&gt;96 -->
<g id="edge28" class="edge">
<title>96&#45;&gt;96</title>
<path fill="none" stroke="green" stroke-width="0.12" d="M555.67,-93.8C566.44,-97.96 577.43,-94.25 577.43,-82.67 577.43,-74.7 572.23,-70.46 565.49,-69.94"/>
<polygon fill="green" stroke="green" stroke-width="0.12" points="565.15,-66.45 555.84,-71.51 566.27,-73.36 565.15,-66.45"/>
</g>
<!-- 93&#45;&gt;4 -->
<g id="edge12" class="edge">
<title>93&#45;&gt;4</title>
<path fill="none" stroke="red" stroke-width="0.11" d="M230.77,-77.02C273.17,-65.42 383.58,-35.23 432.19,-21.94"/>
<polygon fill="red" stroke="red" stroke-width="0.11" points="432.95,-25.36 441.68,-19.34 431.11,-18.61 432.95,-25.36"/>
</g>
<!-- 94&#45;&gt;3 -->
<g id="edge15" class="edge">
<title>94&#45;&gt;3</title>
<path fill="none" stroke="green" stroke-width="0.18" d="M466.11,-67.96C473.42,-58.28 483.32,-45.19 491.39,-34.5"/>
<polygon fill="green" stroke="green" stroke-width="0.18" points="493.99,-36.86 497.23,-26.77 488.41,-32.64 493.99,-36.86"/>
</g>
<!-- 94&#45;&gt;4 -->
<g id="edge17" class="edge">
<title>94&#45;&gt;4</title>
<path fill="none" stroke="green" stroke-width="0.37" d="M455.75,-64.63C455.75,-57.05 455.75,-47.98 455.75,-39.71"/>
<polygon fill="green" stroke="green" stroke-width="0.37" points="459.25,-39.71 455.75,-29.71 452.25,-39.71 459.25,-39.71"/>
</g>
<!-- 95&#45;&gt;0 -->
<g id="edge22" class="edge">
<title>95&#45;&gt;0</title>
<path fill="none" stroke="green" stroke-width="0.13" d="M612.75,-64.63C612.75,-56.87 612.75,-47.57 612.75,-39.15"/>
<polygon fill="green" stroke="green" stroke-width="0.13" points="616.25,-39.35 612.75,-29.35 609.25,-39.35 616.25,-39.35"/>
</g>
<!-- 95&#45;&gt;1 -->
<g id="edge27" class="edge">
<title>95&#45;&gt;1</title>
<path fill="none" stroke="red" stroke-width="0.16" d="M602.18,-67.96C594.72,-58.28 584.63,-45.19 576.4,-34.5"/>
<polygon fill="red" stroke="red" stroke-width="0.16" points="579.3,-32.53 570.42,-26.75 573.76,-36.81 579.3,-32.53"/>
</g>
<!-- 95&#45;&gt;4 -->
<g id="edge30" class="edge">
<title>95&#45;&gt;4</title>
<path fill="none" stroke="green" stroke-width="0.3" d="M598.53,-71.69C594.8,-69.31 590.71,-66.91 586.75,-64.99 542.74,-43.64 527.83,-47.97 482.75,-28.99 481.12,-28.31 479.46,-27.57 477.79,-26.8"/>
<polygon fill="green" stroke="green" stroke-width="0.3" points="479.43,-23.71 468.9,-22.49 476.37,-30 479.43,-23.71"/>
</g>
<!-- 95&#45;&gt;95 -->
<g id="edge34" class="edge">
<title>95&#45;&gt;95</title>
<path fill="none" stroke="green" stroke-width="0.24" d="M626.67,-93.8C637.44,-97.96 648.43,-94.25 648.43,-82.67 648.43,-74.7 643.23,-70.46 636.49,-69.94"/>
<polygon fill="green" stroke="green" stroke-width="0.24" points="636.34,-66.42 627.03,-71.48 637.46,-73.33 636.34,-66.42"/>
</g>
</g>
</svg>
