<?xml version="1.0" encoding="UTF-8" standalone="no"?>
<!DOCTYPE svg PUBLIC "-//W3C//DTD SVG 1.1//EN"
 "http://www.w3.org/Graphics/SVG/1.1/DTD/svg11.dtd">
<!-- Generated by graphviz version 12.1.1 (20240910.0053)
 -->
<!-- Pages: 1 -->
<svg width="920pt" height="173pt"
 viewBox="0.00 0.00 920.25 173.34" xmlns="http://www.w3.org/2000/svg" xmlns:xlink="http://www.w3.org/1999/xlink">
<g id="graph0" class="graph" transform="scale(1 1) rotate(0) translate(4 169.34)">
<polygon fill="white" stroke="none" points="-4,4 -4,-169.34 916.25,-169.34 916.25,4 -4,4"/>
<!-- &#45;1 -->
<g id="node1" class="node">
<title>&#45;1</title>
<polygon fill="lightgray" stroke="black" points="551.5,-160.09 528,-160.09 528,-141.59 551.5,-141.59 551.5,-160.09"/>
<text text-anchor="middle" x="539.75" y="-147.54" font-family="Times,serif" font-size="9.00">&#45;1</text>
</g>
<!-- 52 -->
<g id="node28" class="node">
<title>52</title>
<ellipse fill="white" stroke="black" cx="430.75" cy="-82.67" rx="17.68" ry="17.68"/>
<text text-anchor="middle" x="430.75" y="-79.37" font-family="Times,serif" font-size="9.00">52</text>
</g>
<!-- &#45;1&#45;&gt;52 -->
<g id="edge1" class="edge">
<title>&#45;1&#45;&gt;52</title>
<path fill="none" stroke="red" stroke-width="0.25" stroke-dasharray="1,5" d="M527.8,-142.07C524.85,-140.18 521.7,-138.17 518.75,-136.35 497.1,-122.92 472.17,-108.05 454.38,-97.54"/>
<polygon fill="red" stroke="red" stroke-width="0.25" points="456.51,-94.73 446.12,-92.67 452.95,-100.76 456.51,-94.73"/>
</g>
<!-- &#45;2 -->
<g id="node2" class="node">
<title>&#45;2</title>
<polygon fill="lightgray" stroke="black" points="333.5,-160.09 310,-160.09 310,-141.59 333.5,-141.59 333.5,-160.09"/>
<text text-anchor="middle" x="321.75" y="-147.54" font-family="Times,serif" font-size="9.00">&#45;2</text>
</g>
<!-- 51 -->
<g id="node27" class="node">
<title>51</title>
<ellipse fill="white" stroke="black" cx="231.75" cy="-82.67" rx="17.68" ry="17.68"/>
<text text-anchor="middle" x="231.75" y="-79.37" font-family="Times,serif" font-size="9.00">51</text>
</g>
<!-- &#45;2&#45;&gt;51 -->
<g id="edge28" class="edge">
<title>&#45;2&#45;&gt;51</title>
<path fill="none" stroke="red" stroke-width="0.2" d="M309.98,-141.19C295.82,-130.77 271.72,-113.06 254,-100.03"/>
<polygon fill="red" stroke="red" stroke-width="0.2" points="256.26,-97.34 246.13,-94.24 252.11,-102.98 256.26,-97.34"/>
</g>
<!-- &#45;3 -->
<g id="node3" class="node">
<title>&#45;3</title>
<polygon fill="lightgray" stroke="black" points="421.5,-160.09 398,-160.09 398,-141.59 421.5,-141.59 421.5,-160.09"/>
<text text-anchor="middle" x="409.75" y="-147.54" font-family="Times,serif" font-size="9.00">&#45;3</text>
</g>
<!-- &#45;3&#45;&gt;51 -->
<g id="edge3" class="edge">
<title>&#45;3&#45;&gt;51</title>
<path fill="none" stroke="green" stroke-width="0.15" d="M397.61,-141.32C394.78,-139.54 391.72,-137.77 388.75,-136.35 344.78,-115.24 290.14,-98.98 258.28,-90.4"/>
<polygon fill="green" stroke="green" stroke-width="0.15" points="259.57,-87.12 249.01,-87.95 257.78,-93.89 259.57,-87.12"/>
</g>
<!-- &#45;3&#45;&gt;52 -->
<g id="edge21" class="edge">
<title>&#45;3&#45;&gt;52</title>
<path fill="none" stroke="green" stroke-width="0.32" d="M412.5,-141.19C415.03,-133.2 418.93,-120.91 422.48,-109.73"/>
<polygon fill="green" stroke="green" stroke-width="0.32" points="425.75,-111 425.44,-100.41 419.08,-108.88 425.75,-111"/>
</g>
<!-- &#45;4 -->
<g id="node4" class="node">
<title>&#45;4</title>
<polygon fill="lightgray" stroke="black" points="685.5,-160.09 662,-160.09 662,-141.59 685.5,-141.59 685.5,-160.09"/>
<text text-anchor="middle" x="673.75" y="-147.54" font-family="Times,serif" font-size="9.00">&#45;4</text>
</g>
<!-- &#45;5 -->
<g id="node5" class="node">
<title>&#45;5</title>
<polygon fill="lightgray" stroke="black" points="463.5,-160.09 440,-160.09 440,-141.59 463.5,-141.59 463.5,-160.09"/>
<text text-anchor="middle" x="451.75" y="-147.54" font-family="Times,serif" font-size="9.00">&#45;5</text>
</g>
<!-- &#45;5&#45;&gt;51 -->
<g id="edge24" class="edge">
<title>&#45;5&#45;&gt;51</title>
<path fill="none" stroke="red" stroke-width="0.77" d="M439.67,-141.18C436.84,-139.4 433.76,-137.67 430.75,-136.35 372.83,-110.83 299.81,-95.41 260.3,-88.32"/>
<polygon fill="red" stroke="red" stroke-width="0.77" points="260.99,-84.89 250.54,-86.63 259.79,-91.79 260.99,-84.89"/>
</g>
<!-- &#45;5&#45;&gt;52 -->
<g id="edge31" class="edge">
<title>&#45;5&#45;&gt;52</title>
<path fill="none" stroke="green" stroke-width="0.11" d="M449,-141.19C446.44,-133.12 442.49,-120.66 438.91,-109.39"/>
<polygon fill="green" stroke="green" stroke-width="0.11" points="442.33,-108.57 435.96,-100.1 435.65,-110.69 442.33,-108.57"/>
</g>
<!-- &#45;6 -->
<g id="node6" class="node">
<title>&#45;6</title>
<polygon fill="lightgray" stroke="black" points="65.5,-160.09 42,-160.09 42,-141.59 65.5,-141.59 65.5,-160.09"/>
<text text-anchor="middle" x="53.75" y="-147.54" font-family="Times,serif" font-size="9.00">&#45;6</text>
</g>
<!-- 49 -->
<g id="node26" class="node">
<title>49</title>
<ellipse fill="white" stroke="black" cx="152.75" cy="-82.67" rx="17.68" ry="17.68"/>
<text text-anchor="middle" x="152.75" y="-79.37" font-family="Times,serif" font-size="9.00">49</text>
</g>
<!-- &#45;6&#45;&gt;49 -->
<g id="edge2" class="edge">
<title>&#45;6&#45;&gt;49</title>
<path fill="none" stroke="green" stroke-width="0.19" d="M65.89,-141.73C81.74,-131.13 109.81,-112.37 129.75,-99.04"/>
<polygon fill="green" stroke="green" stroke-width="0.19" points="131.65,-101.98 138.02,-93.52 127.76,-96.16 131.65,-101.98"/>
</g>
<!-- &#45;6&#45;&gt;51 -->
<g id="edge36" class="edge">
<title>&#45;6&#45;&gt;51</title>
<path fill="none" stroke="green" stroke-width="0.13" stroke-dasharray="1,5" d="M65.89,-141.32C68.72,-139.54 71.78,-137.77 74.75,-136.35 86.78,-130.57 163.96,-105.46 205.45,-92.1"/>
<polygon fill="green" stroke="green" stroke-width="0.13" points="206.29,-95.51 214.74,-89.11 204.14,-88.84 206.29,-95.51"/>
</g>
<!-- &#45;7 -->
<g id="node7" class="node">
<title>&#45;7</title>
<polygon fill="lightgray" stroke="black" points="23.5,-160.09 0,-160.09 0,-141.59 23.5,-141.59 23.5,-160.09"/>
<text text-anchor="middle" x="11.75" y="-147.54" font-family="Times,serif" font-size="9.00">&#45;7</text>
</g>
<!-- 1 -->
<g id="node22" class="node">
<title>1</title>
<ellipse fill="lightblue" stroke="black" cx="105.75" cy="-14.5" rx="14.5" ry="14.5"/>
<text text-anchor="middle" x="105.75" y="-11.2" font-family="Times,serif" font-size="9.00">1</text>
</g>
<!-- &#45;7&#45;&gt;1 -->
<g id="edge37" class="edge">
<title>&#45;7&#45;&gt;1</title>
<path fill="none" stroke="red" stroke-width="0.2" d="M17.63,-141.44C32.35,-120.41 71.08,-65.05 91.95,-35.22"/>
<polygon fill="red" stroke="red" stroke-width="0.2" points="94.77,-37.3 97.63,-27.1 89.03,-33.29 94.77,-37.3"/>
</g>
<!-- &#45;7&#45;&gt;49 -->
<g id="edge4" class="edge">
<title>&#45;7&#45;&gt;49</title>
<path fill="none" stroke="red" stroke-width="0.43" d="M23.99,-141.52C26.82,-139.73 29.85,-137.9 32.75,-136.35 64.15,-119.5 102.05,-103.55 126.74,-93.7"/>
<polygon fill="red" stroke="red" stroke-width="0.43" points="127.83,-97.04 135.85,-90.11 125.26,-90.52 127.83,-97.04"/>
</g>
<!-- &#45;8 -->
<g id="node8" class="node">
<title>&#45;8</title>
<polygon fill="lightgray" stroke="black" points="107.5,-160.09 84,-160.09 84,-141.59 107.5,-141.59 107.5,-160.09"/>
<text text-anchor="middle" x="95.75" y="-147.54" font-family="Times,serif" font-size="9.00">&#45;8</text>
</g>
<!-- &#45;8&#45;&gt;49 -->
<g id="edge26" class="edge">
<title>&#45;8&#45;&gt;49</title>
<path fill="none" stroke="green" stroke-width="0.58" d="M103.2,-141.19C111.15,-131.97 124.02,-117.02 134.65,-104.68"/>
<polygon fill="green" stroke="green" stroke-width="0.58" points="137.13,-107.17 141,-97.31 131.82,-102.6 137.13,-107.17"/>
</g>
<!-- &#45;8&#45;&gt;51 -->
<g id="edge19" class="edge">
<title>&#45;8&#45;&gt;51</title>
<path fill="none" stroke="green" stroke-width="0.16" d="M107.57,-141.84C110.52,-139.95 113.71,-138.01 116.75,-136.35 146.59,-120.03 182.42,-104.18 206.06,-94.2"/>
<polygon fill="green" stroke="green" stroke-width="0.16" points="207.29,-97.48 215.17,-90.39 204.59,-91.02 207.29,-97.48"/>
</g>
<!-- &#45;9 -->
<g id="node9" class="node">
<title>&#45;9</title>
<polygon fill="lightgray" stroke="black" points="727.5,-160.09 704,-160.09 704,-141.59 727.5,-141.59 727.5,-160.09"/>
<text text-anchor="middle" x="715.75" y="-147.54" font-family="Times,serif" font-size="9.00">&#45;9</text>
</g>
<!-- &#45;10 -->
<g id="node10" class="node">
<title>&#45;10</title>
<polygon fill="lightgray" stroke="black" points="597.75,-160.09 569.75,-160.09 569.75,-141.59 597.75,-141.59 597.75,-160.09"/>
<text text-anchor="middle" x="583.75" y="-147.54" font-family="Times,serif" font-size="9.00">&#45;10</text>
</g>
<!-- &#45;10&#45;&gt;52 -->
<g id="edge27" class="edge">
<title>&#45;10&#45;&gt;52</title>
<path fill="none" stroke="red" stroke-width="0.22" d="M569.82,-141.23C566.87,-139.53 563.74,-137.82 560.75,-136.35 525.69,-119.07 483.49,-102.75 456.89,-92.98"/>
<polygon fill="red" stroke="red" stroke-width="0.22" points="458.41,-89.81 447.81,-89.68 456.01,-96.39 458.41,-89.81"/>
</g>
<!-- &#45;11 -->
<g id="node11" class="node">
<title>&#45;11</title>
<polygon fill="lightgray" stroke="black" points="509.75,-160.09 481.75,-160.09 481.75,-141.59 509.75,-141.59 509.75,-160.09"/>
<text text-anchor="middle" x="495.75" y="-147.54" font-family="Times,serif" font-size="9.00">&#45;11</text>
</g>
<!-- &#45;11&#45;&gt;51 -->
<g id="edge10" class="edge">
<title>&#45;11&#45;&gt;51</title>
<path fill="none" stroke="green" stroke-width="0.14" d="M482.49,-141.11C479.39,-139.34 476.03,-137.63 472.75,-136.35 398.72,-107.38 305.34,-92.73 259.59,-86.86"/>
<polygon fill="green" stroke="green" stroke-width="0.14" points="260.11,-83.39 249.76,-85.64 259.25,-90.34 260.11,-83.39"/>
</g>
<!-- &#45;11&#45;&gt;52 -->
<g id="edge17" class="edge">
<title>&#45;11&#45;&gt;52</title>
<path fill="none" stroke="red" stroke-width="0.18" d="M487.25,-141.19C477.7,-131.47 461.9,-115.38 449.44,-102.69"/>
<polygon fill="red" stroke="red" stroke-width="0.18" points="452.25,-100.56 442.74,-95.88 447.25,-105.47 452.25,-100.56"/>
</g>
<!-- &#45;12 -->
<g id="node12" class="node">
<title>&#45;12</title>
<polygon fill="lightgray" stroke="black" points="379.75,-160.09 351.75,-160.09 351.75,-141.59 379.75,-141.59 379.75,-160.09"/>
<text text-anchor="middle" x="365.75" y="-147.54" font-family="Times,serif" font-size="9.00">&#45;12</text>
</g>
<!-- &#45;12&#45;&gt;51 -->
<g id="edge8" class="edge">
<title>&#45;12&#45;&gt;51</title>
<path fill="none" stroke="red" stroke-width="0.44" stroke-dasharray="1,5" d="M351.75,-141.37C348.8,-139.66 345.7,-137.91 342.75,-136.35 313.98,-121.12 280.06,-105.32 257.36,-95.05"/>
<polygon fill="red" stroke="red" stroke-width="0.44" points="258.94,-91.92 248.38,-91.01 256.07,-98.31 258.94,-91.92"/>
</g>
<!-- &#45;13 -->
<g id="node13" class="node">
<title>&#45;13</title>
<polygon fill="lightgray" stroke="black" points="199.75,-160.09 171.75,-160.09 171.75,-141.59 199.75,-141.59 199.75,-160.09"/>
<text text-anchor="middle" x="185.75" y="-147.54" font-family="Times,serif" font-size="9.00">&#45;13</text>
</g>
<!-- &#45;13&#45;&gt;49 -->
<g id="edge5" class="edge">
<title>&#45;13&#45;&gt;49</title>
<path fill="none" stroke="green" stroke-width="0.12" d="M181.44,-141.19C177.22,-132.73 170.6,-119.46 164.78,-107.79"/>
<polygon fill="green" stroke="green" stroke-width="0.12" points="168.03,-106.46 160.43,-99.07 161.76,-109.58 168.03,-106.46"/>
</g>
<!-- &#45;13&#45;&gt;51 -->
<g id="edge11" class="edge">
<title>&#45;13&#45;&gt;51</title>
<path fill="none" stroke="green" stroke-width="0.23" d="M191.76,-141.19C197.92,-132.34 207.74,-118.22 216.1,-106.18"/>
<polygon fill="green" stroke="green" stroke-width="0.23" points="218.84,-108.38 221.67,-98.17 213.09,-104.38 218.84,-108.38"/>
</g>
<!-- &#45;13&#45;&gt;52 -->
<g id="edge29" class="edge">
<title>&#45;13&#45;&gt;52</title>
<path fill="none" stroke="green" stroke-width="0.2" d="M199.03,-141.15C202.13,-139.38 205.48,-137.66 208.75,-136.35 275.85,-109.41 360.12,-94.1 402.97,-87.54"/>
<polygon fill="green" stroke="green" stroke-width="0.2" points="403.26,-91.03 412.64,-86.1 402.23,-84.11 403.26,-91.03"/>
</g>
<!-- &#45;14 -->
<g id="node14" class="node">
<title>&#45;14</title>
<polygon fill="lightgray" stroke="black" points="773.75,-160.09 745.75,-160.09 745.75,-141.59 773.75,-141.59 773.75,-160.09"/>
<text text-anchor="middle" x="759.75" y="-147.54" font-family="Times,serif" font-size="9.00">&#45;14</text>
</g>
<!-- &#45;15 -->
<g id="node15" class="node">
<title>&#45;15</title>
<polygon fill="lightgray" stroke="black" points="245.75,-160.09 217.75,-160.09 217.75,-141.59 245.75,-141.59 245.75,-160.09"/>
<text text-anchor="middle" x="231.75" y="-147.54" font-family="Times,serif" font-size="9.00">&#45;15</text>
</g>
<!-- &#45;15&#45;&gt;49 -->
<g id="edge32" class="edge">
<title>&#45;15&#45;&gt;49</title>
<path fill="none" stroke="red" stroke-width="0.3" d="M221.42,-141.19C209.42,-131.14 189.31,-114.29 173.95,-101.42"/>
<polygon fill="red" stroke="red" stroke-width="0.3" points="176.24,-98.78 166.32,-95.04 171.74,-104.14 176.24,-98.78"/>
</g>
<!-- &#45;15&#45;&gt;51 -->
<g id="edge33" class="edge">
<title>&#45;15&#45;&gt;51</title>
<path fill="none" stroke="red" stroke-width="0.77" stroke-dasharray="1,5" d="M231.75,-141.19C231.75,-133.68 231.75,-122.37 231.75,-111.76"/>
<polygon fill="red" stroke="red" stroke-width="0.77" points="235.25,-111.9 231.75,-101.9 228.25,-111.9 235.25,-111.9"/>
</g>
<!-- &#45;15&#45;&gt;52 -->
<g id="edge30" class="edge">
<title>&#45;15&#45;&gt;52</title>
<path fill="none" stroke="green" stroke-width="0.5" d="M245.09,-141.29C248.19,-139.51 251.52,-137.75 254.75,-136.35 305.15,-114.4 367.46,-98.13 402.8,-89.84"/>
<polygon fill="green" stroke="green" stroke-width="0.5" points="403.58,-93.25 412.54,-87.6 402.01,-86.43 403.58,-93.25"/>
</g>
<!-- &#45;16 -->
<g id="node16" class="node">
<title>&#45;16</title>
<polygon fill="lightgray" stroke="black" points="819.75,-160.09 791.75,-160.09 791.75,-141.59 819.75,-141.59 819.75,-160.09"/>
<text text-anchor="middle" x="805.75" y="-147.54" font-family="Times,serif" font-size="9.00">&#45;16</text>
</g>
<!-- &#45;17 -->
<g id="node17" class="node">
<title>&#45;17</title>
<polygon fill="lightgray" stroke="black" points="153.75,-160.09 125.75,-160.09 125.75,-141.59 153.75,-141.59 153.75,-160.09"/>
<text text-anchor="middle" x="139.75" y="-147.54" font-family="Times,serif" font-size="9.00">&#45;17</text>
</g>
<!-- &#45;17&#45;&gt;49 -->
<g id="edge15" class="edge">
<title>&#45;17&#45;&gt;49</title>
<path fill="none" stroke="red" stroke-width="0.1" d="M141.45,-141.19C143,-133.31 145.37,-121.24 147.54,-110.18"/>
<polygon fill="red" stroke="red" stroke-width="0.1" points="150.93,-111.11 149.42,-100.62 144.06,-109.76 150.93,-111.11"/>
</g>
<!-- &#45;17&#45;&gt;51 -->
<g id="edge25" class="edge">
<title>&#45;17&#45;&gt;51</title>
<path fill="none" stroke="red" stroke-width="0.33" d="M151.78,-141.19C166.34,-130.71 191.18,-112.85 209.32,-99.81"/>
<polygon fill="red" stroke="red" stroke-width="0.33" points="211.13,-102.82 217.2,-94.13 207.04,-97.13 211.13,-102.82"/>
</g>
<!-- &#45;18 -->
<g id="node18" class="node">
<title>&#45;18</title>
<polygon fill="lightgray" stroke="black" points="643.75,-160.09 615.75,-160.09 615.75,-141.59 643.75,-141.59 643.75,-160.09"/>
<text text-anchor="middle" x="629.75" y="-147.54" font-family="Times,serif" font-size="9.00">&#45;18</text>
</g>
<!-- &#45;18&#45;&gt;52 -->
<g id="edge18" class="edge">
<title>&#45;18&#45;&gt;52</title>
<path fill="none" stroke="red" stroke-width="0.19" d="M616.41,-141.29C613.31,-139.51 609.98,-137.75 606.75,-136.35 556.13,-114.3 493.5,-97.99 458.24,-89.73"/>
<polygon fill="red" stroke="red" stroke-width="0.19" points="459.03,-86.32 448.5,-87.49 457.47,-93.14 459.03,-86.32"/>
</g>
<!-- &#45;19 -->
<g id="node19" class="node">
<title>&#45;19</title>
<polygon fill="lightgray" stroke="black" points="291.75,-160.09 263.75,-160.09 263.75,-141.59 291.75,-141.59 291.75,-160.09"/>
<text text-anchor="middle" x="277.75" y="-147.54" font-family="Times,serif" font-size="9.00">&#45;19</text>
</g>
<!-- &#45;19&#45;&gt;49 -->
<g id="edge9" class="edge">
<title>&#45;19&#45;&gt;49</title>
<path fill="none" stroke="green" stroke-width="0.28" d="M263.71,-141.44C260.77,-139.73 257.67,-137.96 254.75,-136.35 228.68,-121.98 198.31,-106.45 177.54,-96"/>
<polygon fill="green" stroke="green" stroke-width="0.28" points="179.33,-92.98 168.82,-91.63 176.19,-99.24 179.33,-92.98"/>
</g>
<!-- &#45;19&#45;&gt;52 -->
<g id="edge13" class="edge">
<title>&#45;19&#45;&gt;52</title>
<path fill="none" stroke="green" stroke-width="0.46" d="M291.68,-141.23C294.63,-139.53 297.76,-137.82 300.75,-136.35 335.65,-119.15 377.63,-102.9 404.26,-93.11"/>
<polygon fill="green" stroke="green" stroke-width="0.46" points="405.14,-96.51 413.34,-89.81 402.75,-89.93 405.14,-96.51"/>
</g>
<!-- &#45;20 -->
<g id="node20" class="node">
<title>&#45;20</title>
<polygon fill="lightgray" stroke="black" points="865.75,-160.09 837.75,-160.09 837.75,-141.59 865.75,-141.59 865.75,-160.09"/>
<text text-anchor="middle" x="851.75" y="-147.54" font-family="Times,serif" font-size="9.00">&#45;20</text>
</g>
<!-- 0 -->
<g id="node21" class="node">
<title>0</title>
<ellipse fill="lightblue" stroke="black" cx="897.75" cy="-150.84" rx="14.5" ry="14.5"/>
<text text-anchor="middle" x="897.75" y="-147.54" font-family="Times,serif" font-size="9.00">0</text>
</g>
<!-- 2 -->
<g id="node23" class="node">
<title>2</title>
<ellipse fill="lightblue" stroke="black" cx="217.75" cy="-14.5" rx="14.5" ry="14.5"/>
<text text-anchor="middle" x="217.75" y="-11.2" font-family="Times,serif" font-size="9.00">2</text>
</g>
<!-- 2&#45;&gt;2 -->
<g id="edge34" class="edge">
<title>2&#45;&gt;2</title>
<path fill="none" stroke="green" stroke-width="0.27" stroke-dasharray="1,5" d="M228.4,-24.65C238.81,-30.26 250.25,-26.88 250.25,-14.5 250.25,-5.98 244.84,-1.72 238.08,-1.71"/>
<polygon fill="green" stroke="green" stroke-width="0.27" points="237.53,1.76 228.8,-4.23 239.36,-4.99 237.53,1.76"/>
</g>
<!-- 3 -->
<g id="node24" class="node">
<title>3</title>
<ellipse fill="lightblue" stroke="black" cx="282.75" cy="-14.5" rx="14.5" ry="14.5"/>
<text text-anchor="middle" x="282.75" y="-11.2" font-family="Times,serif" font-size="9.00">3</text>
</g>
<!-- 4 -->
<g id="node25" class="node">
<title>4</title>
<ellipse fill="lightblue" stroke="black" cx="152.75" cy="-14.5" rx="14.5" ry="14.5"/>
<text text-anchor="middle" x="152.75" y="-11.2" font-family="Times,serif" font-size="9.00">4</text>
</g>
<!-- 4&#45;&gt;4 -->
<g id="edge35" class="edge">
<title>4&#45;&gt;4</title>
<path fill="none" stroke="red" stroke-width="0.45" d="M163.4,-24.65C173.81,-30.26 185.25,-26.88 185.25,-14.5 185.25,-6.18 180.08,-1.92 173.54,-1.72"/>
<polygon fill="red" stroke="red" stroke-width="0.45" points="172.87,1.72 164.06,-4.17 174.62,-5.06 172.87,1.72"/>
</g>
<!-- 49&#45;&gt;1 -->
<g id="edge6" class="edge">
<title>49&#45;&gt;1</title>
<path fill="none" stroke="green" stroke-width="0.43" d="M142.78,-67.64C136.11,-58.25 127.24,-45.75 119.85,-35.35"/>
<polygon fill="green" stroke="green" stroke-width="0.43" points="122.85,-33.53 114.21,-27.4 117.14,-37.58 122.85,-33.53"/>
</g>
<!-- 49&#45;&gt;2 -->
<g id="edge22" class="edge">
<title>49&#45;&gt;2</title>
<path fill="none" stroke="red" stroke-width="0.16" d="M164.98,-69.22C175.14,-58.88 189.69,-44.06 200.95,-32.6"/>
<polygon fill="red" stroke="red" stroke-width="0.16" points="203.44,-35.06 207.95,-25.47 198.45,-30.15 203.44,-35.06"/>
</g>
<!-- 49&#45;&gt;3 -->
<g id="edge14" class="edge">
<title>49&#45;&gt;3</title>
<path fill="none" stroke="red" stroke-width="0.19" d="M168.68,-74.07C189.53,-64.04 227.15,-45.72 258.75,-28.99 259.72,-28.48 260.71,-27.95 261.71,-27.41"/>
<polygon fill="red" stroke="red" stroke-width="0.19" points="263.3,-30.53 270.35,-22.62 259.91,-24.4 263.3,-30.53"/>
</g>
<!-- 49&#45;&gt;4 -->
<g id="edge20" class="edge">
<title>49&#45;&gt;4</title>
<path fill="none" stroke="red" stroke-width="0.34" d="M152.75,-64.63C152.75,-56.96 152.75,-47.77 152.75,-39.43"/>
<polygon fill="red" stroke="red" stroke-width="0.34" points="156.25,-39.66 152.75,-29.66 149.25,-39.66 156.25,-39.66"/>
</g>
<!-- 51&#45;&gt;2 -->
<g id="edge7" class="edge">
<title>51&#45;&gt;2</title>
<path fill="none" stroke="red" stroke-width="0.13" stroke-dasharray="1,5" d="M228.22,-64.97C226.54,-57.02 224.5,-47.39 222.67,-38.74"/>
<polygon fill="red" stroke="red" stroke-width="0.13" points="226.11,-38.11 220.62,-29.05 219.26,-39.56 226.11,-38.11"/>
</g>
<!-- 51&#45;&gt;3 -->
<g id="edge23" class="edge">
<title>51&#45;&gt;3</title>
<path fill="none" stroke="red" stroke-width="0.56" d="M242.32,-67.96C249.63,-58.47 259.47,-45.7 267.61,-35.14"/>
<polygon fill="red" stroke="red" stroke-width="0.56" points="270.38,-37.28 273.71,-27.23 264.83,-33.01 270.38,-37.28"/>
</g>
<!-- 51&#45;&gt;4 -->
<g id="edge16" class="edge">
<title>51&#45;&gt;4</title>
<path fill="none" stroke="red" stroke-width="0.26" d="M218.35,-70.44C205.4,-59.59 185.66,-43.07 171.22,-30.97"/>
<polygon fill="red" stroke="red" stroke-width="0.26" points="173.63,-28.42 163.72,-24.69 169.14,-33.79 173.63,-28.42"/>
</g>
<!-- 52&#45;&gt;1 -->
<g id="edge12" class="edge">
<title>52&#45;&gt;1</title>
<path fill="none" stroke="green" stroke-width="0.17" d="M412.91,-80.65C365.5,-77.51 232.93,-65.81 129.75,-28.99 128.71,-28.62 127.67,-28.21 126.63,-27.77"/>
<polygon fill="green" stroke="green" stroke-width="0.17" points="128.31,-24.69 117.81,-23.31 125.16,-30.94 128.31,-24.69"/>
</g>
</g>
</svg>
