<?xml version="1.0" encoding="UTF-8" standalone="no"?>
<!DOCTYPE svg PUBLIC "-//W3C//DTD SVG 1.1//EN"
 "http://www.w3.org/Graphics/SVG/1.1/DTD/svg11.dtd">
<!-- Generated by graphviz version 12.1.1 (20240910.0053)
 -->
<!-- Pages: 1 -->
<svg width="828pt" height="169pt"
 viewBox="0.00 0.00 827.75 169.21" xmlns="http://www.w3.org/2000/svg" xmlns:xlink="http://www.w3.org/1999/xlink">
<g id="graph0" class="graph" transform="scale(1 1) rotate(0) translate(4 165.21)">
<polygon fill="white" stroke="none" points="-4,4 -4,-165.21 823.75,-165.21 823.75,4 -4,4"/>
<!-- &#45;1 -->
<g id="node1" class="node">
<title>&#45;1</title>
<polygon fill="lightgray" stroke="black" points="329.5,-161.21 306,-161.21 306,-142.71 329.5,-142.71 329.5,-161.21"/>
<text text-anchor="middle" x="317.75" y="-148.66" font-family="Times,serif" font-size="9.00">&#45;1</text>
</g>
<!-- 103 -->
<g id="node28" class="node">
<title>103</title>
<ellipse fill="white" stroke="black" cx="272.75" cy="-85.85" rx="20.86" ry="20.86"/>
<text text-anchor="middle" x="272.75" y="-82.55" font-family="Times,serif" font-size="9.00">103</text>
</g>
<!-- &#45;1&#45;&gt;103 -->
<g id="edge16" class="edge">
<title>&#45;1&#45;&gt;103</title>
<path fill="none" stroke="green" stroke-width="0.15" d="M311.68,-142.31C306.19,-134.49 297.83,-122.58 290.27,-111.8"/>
<polygon fill="green" stroke="green" stroke-width="0.15" points="293.18,-109.86 284.57,-103.69 287.45,-113.89 293.18,-109.86"/>
</g>
<!-- &#45;2 -->
<g id="node2" class="node">
<title>&#45;2</title>
<polygon fill="lightgray" stroke="black" points="547.5,-161.21 524,-161.21 524,-142.71 547.5,-142.71 547.5,-161.21"/>
<text text-anchor="middle" x="535.75" y="-148.66" font-family="Times,serif" font-size="9.00">&#45;2</text>
</g>
<!-- 101 -->
<g id="node26" class="node">
<title>101</title>
<ellipse fill="white" stroke="black" cx="384.75" cy="-85.85" rx="20.86" ry="20.86"/>
<text text-anchor="middle" x="384.75" y="-82.55" font-family="Times,serif" font-size="9.00">101</text>
</g>
<!-- &#45;2&#45;&gt;101 -->
<g id="edge29" class="edge">
<title>&#45;2&#45;&gt;101</title>
<path fill="none" stroke="red" stroke-width="0.23" stroke-dasharray="1,5" d="M523.65,-145.82C499.83,-135.71 446.28,-112.98 413.07,-98.88"/>
<polygon fill="red" stroke="red" stroke-width="0.23" points="414.77,-95.8 404.2,-95.11 412.04,-102.24 414.77,-95.8"/>
</g>
<!-- &#45;2&#45;&gt;103 -->
<g id="edge38" class="edge">
<title>&#45;2&#45;&gt;103</title>
<path fill="none" stroke="red" stroke-width="0.79" d="M523.87,-145.93C520.92,-144.78 517.75,-143.63 514.75,-142.71 445.07,-121.32 425.73,-123.29 354.75,-106.71 337.76,-102.74 318.83,-98.17 303.45,-94.41"/>
<polygon fill="red" stroke="red" stroke-width="0.79" points="304.66,-91.1 294.11,-92.13 302.99,-97.9 304.66,-91.1"/>
</g>
<!-- 104 -->
<g id="node29" class="node">
<title>104</title>
<ellipse fill="white" stroke="black" cx="557.75" cy="-85.85" rx="20.86" ry="20.86"/>
<text text-anchor="middle" x="557.75" y="-82.55" font-family="Times,serif" font-size="9.00">104</text>
</g>
<!-- &#45;2&#45;&gt;104 -->
<g id="edge43" class="edge">
<title>&#45;2&#45;&gt;104</title>
<path fill="none" stroke="green" stroke-width="0.49" d="M538.72,-142.31C541.04,-135.54 544.42,-125.69 547.69,-116.17"/>
<polygon fill="green" stroke="green" stroke-width="0.49" points="550.96,-117.42 550.9,-106.82 544.34,-115.14 550.96,-117.42"/>
</g>
<!-- &#45;3 -->
<g id="node3" class="node">
<title>&#45;3</title>
<polygon fill="lightgray" stroke="black" points="727.5,-161.21 704,-161.21 704,-142.71 727.5,-142.71 727.5,-161.21"/>
<text text-anchor="middle" x="715.75" y="-148.66" font-family="Times,serif" font-size="9.00">&#45;3</text>
</g>
<!-- &#45;4 -->
<g id="node4" class="node">
<title>&#45;4</title>
<polygon fill="lightgray" stroke="black" points="241.5,-161.21 218,-161.21 218,-142.71 241.5,-142.71 241.5,-161.21"/>
<text text-anchor="middle" x="229.75" y="-148.66" font-family="Times,serif" font-size="9.00">&#45;4</text>
</g>
<!-- &#45;4&#45;&gt;103 -->
<g id="edge41" class="edge">
<title>&#45;4&#45;&gt;103</title>
<path fill="none" stroke="red" stroke-width="0.15" stroke-dasharray="1,5" d="M235.55,-142.31C240.76,-134.55 248.67,-122.75 255.86,-112.03"/>
<polygon fill="red" stroke="red" stroke-width="0.15" points="258.62,-114.2 261.28,-103.95 252.81,-110.3 258.62,-114.2"/>
</g>
<!-- &#45;5 -->
<g id="node5" class="node">
<title>&#45;5</title>
<polygon fill="lightgray" stroke="black" points="23.5,-161.21 0,-161.21 0,-142.71 23.5,-142.71 23.5,-161.21"/>
<text text-anchor="middle" x="11.75" y="-148.66" font-family="Times,serif" font-size="9.00">&#45;5</text>
</g>
<!-- 102 -->
<g id="node27" class="node">
<title>102</title>
<ellipse fill="white" stroke="black" cx="187.75" cy="-85.85" rx="20.86" ry="20.86"/>
<text text-anchor="middle" x="187.75" y="-82.55" font-family="Times,serif" font-size="9.00">102</text>
</g>
<!-- &#45;5&#45;&gt;102 -->
<g id="edge13" class="edge">
<title>&#45;5&#45;&gt;102</title>
<path fill="none" stroke="red" stroke-width="0.39" stroke-dasharray="1,5" d="M23.67,-146.05C26.62,-144.9 29.78,-143.72 32.75,-142.71 87.49,-124.12 105.26,-130.95 157.75,-106.71 159.31,-105.99 160.88,-105.2 162.44,-104.35"/>
<polygon fill="red" stroke="red" stroke-width="0.39" points="163.86,-107.58 170.64,-99.43 160.26,-101.58 163.86,-107.58"/>
</g>
<!-- &#45;6 -->
<g id="node6" class="node">
<title>&#45;6</title>
<polygon fill="lightgray" stroke="black" points="107.5,-161.21 84,-161.21 84,-142.71 107.5,-142.71 107.5,-161.21"/>
<text text-anchor="middle" x="95.75" y="-148.66" font-family="Times,serif" font-size="9.00">&#45;6</text>
</g>
<!-- &#45;6&#45;&gt;102 -->
<g id="edge1" class="edge">
<title>&#45;6&#45;&gt;102</title>
<path fill="none" stroke="green" stroke-width="0.28" d="M107.78,-142.58C121.59,-132.95 144.64,-116.89 162.45,-104.48"/>
<polygon fill="green" stroke="green" stroke-width="0.28" points="164.16,-107.55 170.37,-98.96 160.16,-101.81 164.16,-107.55"/>
</g>
<!-- &#45;6&#45;&gt;103 -->
<g id="edge14" class="edge">
<title>&#45;6&#45;&gt;103</title>
<path fill="none" stroke="green" stroke-width="0.55" d="M107.72,-146.18C110.66,-145.03 113.82,-143.81 116.75,-142.71 161.38,-126 172.89,-122.8 217.75,-106.71 226.01,-103.75 234.97,-100.52 243.21,-97.54"/>
<polygon fill="green" stroke="green" stroke-width="0.55" points="244.16,-100.92 252.38,-94.23 241.78,-94.34 244.16,-100.92"/>
</g>
<!-- &#45;7 -->
<g id="node7" class="node">
<title>&#45;7</title>
<polygon fill="lightgray" stroke="black" points="463.5,-161.21 440,-161.21 440,-142.71 463.5,-142.71 463.5,-161.21"/>
<text text-anchor="middle" x="451.75" y="-148.66" font-family="Times,serif" font-size="9.00">&#45;7</text>
</g>
<!-- &#45;7&#45;&gt;101 -->
<g id="edge32" class="edge">
<title>&#45;7&#45;&gt;101</title>
<path fill="none" stroke="green" stroke-width="0.14" d="M442.71,-142.31C433.54,-133.54 419,-119.62 406.77,-107.92"/>
<polygon fill="green" stroke="green" stroke-width="0.14" points="409.33,-105.53 399.68,-101.14 404.49,-110.58 409.33,-105.53"/>
</g>
<!-- &#45;7&#45;&gt;103 -->
<g id="edge17" class="edge">
<title>&#45;7&#45;&gt;103</title>
<path fill="none" stroke="green" stroke-width="0.11" d="M439.78,-146.18C436.84,-145.02 433.69,-143.81 430.75,-142.71 385.98,-126.01 333.63,-107.75 301.85,-96.8"/>
<polygon fill="green" stroke="green" stroke-width="0.11" points="303.04,-93.51 292.44,-93.57 300.76,-100.13 303.04,-93.51"/>
</g>
<!-- &#45;8 -->
<g id="node8" class="node">
<title>&#45;8</title>
<polygon fill="lightgray" stroke="black" points="65.5,-161.21 42,-161.21 42,-142.71 65.5,-142.71 65.5,-161.21"/>
<text text-anchor="middle" x="53.75" y="-148.66" font-family="Times,serif" font-size="9.00">&#45;8</text>
</g>
<!-- &#45;8&#45;&gt;102 -->
<g id="edge20" class="edge">
<title>&#45;8&#45;&gt;102</title>
<path fill="none" stroke="red" stroke-width="0.12" stroke-dasharray="1,5" d="M65.78,-146.16C89.38,-136.7 140.9,-115.77 157.75,-106.71 159.26,-105.9 160.8,-105.03 162.33,-104.13"/>
<polygon fill="red" stroke="red" stroke-width="0.12" points="164.16,-107.11 170.79,-98.84 160.46,-101.17 164.16,-107.11"/>
</g>
<!-- &#45;8&#45;&gt;103 -->
<g id="edge11" class="edge">
<title>&#45;8&#45;&gt;103</title>
<path fill="none" stroke="green" stroke-width="0.44" d="M65.65,-145.98C68.6,-144.83 71.77,-143.67 74.75,-142.71 137.16,-122.69 155.07,-125.86 217.75,-106.71 226.15,-104.14 235.15,-101.05 243.39,-98.07"/>
<polygon fill="green" stroke="green" stroke-width="0.44" points="244.51,-101.38 252.68,-94.64 242.09,-94.81 244.51,-101.38"/>
</g>
<!-- &#45;9 -->
<g id="node9" class="node">
<title>&#45;9</title>
<polygon fill="lightgray" stroke="black" points="505.5,-161.21 482,-161.21 482,-142.71 505.5,-142.71 505.5,-161.21"/>
<text text-anchor="middle" x="493.75" y="-148.66" font-family="Times,serif" font-size="9.00">&#45;9</text>
</g>
<!-- &#45;9&#45;&gt;102 -->
<g id="edge35" class="edge">
<title>&#45;9&#45;&gt;102</title>
<path fill="none" stroke="green" stroke-width="0.37" d="M481.91,-145.79C478.96,-144.64 475.77,-143.53 472.75,-142.71 372.89,-115.63 342.98,-132.4 242.75,-106.71 234.15,-104.51 225.01,-101.49 216.7,-98.48"/>
<polygon fill="green" stroke="green" stroke-width="0.37" points="218.18,-95.29 207.59,-95.05 215.72,-101.85 218.18,-95.29"/>
</g>
<!-- &#45;9&#45;&gt;104 -->
<g id="edge10" class="edge">
<title>&#45;9&#45;&gt;104</title>
<path fill="none" stroke="green" stroke-width="0.1" stroke-dasharray="1,5" d="M502.38,-142.31C511.08,-133.6 524.86,-119.8 536.49,-108.15"/>
<polygon fill="green" stroke="green" stroke-width="0.1" points="538.69,-110.89 543.28,-101.34 533.74,-105.95 538.69,-110.89"/>
</g>
<!-- &#45;10 -->
<g id="node10" class="node">
<title>&#45;10</title>
<polygon fill="lightgray" stroke="black" points="287.75,-161.21 259.75,-161.21 259.75,-142.71 287.75,-142.71 287.75,-161.21"/>
<text text-anchor="middle" x="273.75" y="-148.66" font-family="Times,serif" font-size="9.00">&#45;10</text>
</g>
<!-- &#45;10&#45;&gt;103 -->
<g id="edge28" class="edge">
<title>&#45;10&#45;&gt;103</title>
<path fill="none" stroke="green" stroke-width="0.33" d="M273.62,-142.31C273.51,-135.88 273.37,-126.67 273.23,-117.61"/>
<polygon fill="green" stroke="green" stroke-width="0.33" points="276.73,-117.65 273.08,-107.7 269.73,-117.76 276.73,-117.65"/>
</g>
<!-- &#45;11 -->
<g id="node11" class="node">
<title>&#45;11</title>
<polygon fill="lightgray" stroke="black" points="773.75,-161.21 745.75,-161.21 745.75,-142.71 773.75,-142.71 773.75,-161.21"/>
<text text-anchor="middle" x="759.75" y="-148.66" font-family="Times,serif" font-size="9.00">&#45;11</text>
</g>
<!-- &#45;12 -->
<g id="node12" class="node">
<title>&#45;12</title>
<polygon fill="lightgray" stroke="black" points="148.75,-95.1 120.75,-95.1 120.75,-76.6 148.75,-76.6 148.75,-95.1"/>
<text text-anchor="middle" x="134.75" y="-82.55" font-family="Times,serif" font-size="9.00">&#45;12</text>
</g>
<!-- 0 -->
<g id="node21" class="node">
<title>0</title>
<ellipse fill="lightblue" stroke="black" cx="198.75" cy="-14.5" rx="14.5" ry="14.5"/>
<text text-anchor="middle" x="198.75" y="-11.2" font-family="Times,serif" font-size="9.00">0</text>
</g>
<!-- &#45;12&#45;&gt;0 -->
<g id="edge44" class="edge">
<title>&#45;12&#45;&gt;0</title>
<path fill="none" stroke="red" stroke-width="0.39" d="M142.6,-76.35C152.42,-65.7 169.5,-47.2 182.25,-33.38"/>
<polygon fill="red" stroke="red" stroke-width="0.39" points="184.56,-36.04 188.77,-26.31 179.41,-31.29 184.56,-36.04"/>
</g>
<!-- &#45;13 -->
<g id="node13" class="node">
<title>&#45;13</title>
<polygon fill="lightgray" stroke="black" points="593.75,-161.21 565.75,-161.21 565.75,-142.71 593.75,-142.71 593.75,-161.21"/>
<text text-anchor="middle" x="579.75" y="-148.66" font-family="Times,serif" font-size="9.00">&#45;13</text>
</g>
<!-- &#45;13&#45;&gt;101 -->
<g id="edge31" class="edge">
<title>&#45;13&#45;&gt;101</title>
<path fill="none" stroke="green" stroke-width="0.35" d="M565.66,-145.83C562.72,-144.78 559.64,-143.7 556.75,-142.71 507.07,-125.74 448.91,-107.11 414.55,-96.23"/>
<polygon fill="green" stroke="green" stroke-width="0.35" points="415.78,-92.94 405.19,-93.27 413.67,-99.62 415.78,-92.94"/>
</g>
<!-- &#45;13&#45;&gt;104 -->
<g id="edge26" class="edge">
<title>&#45;13&#45;&gt;104</title>
<path fill="none" stroke="green" stroke-width="0.2" d="M576.78,-142.31C574.43,-135.47 571.01,-125.48 567.71,-115.87"/>
<polygon fill="green" stroke="green" stroke-width="0.2" points="571.02,-114.74 564.46,-106.41 564.4,-117.01 571.02,-114.74"/>
</g>
<!-- &#45;14 -->
<g id="node14" class="node">
<title>&#45;14</title>
<polygon fill="lightgray" stroke="black" points="199.75,-161.21 171.75,-161.21 171.75,-142.71 199.75,-142.71 199.75,-161.21"/>
<text text-anchor="middle" x="185.75" y="-148.66" font-family="Times,serif" font-size="9.00">&#45;14</text>
</g>
<!-- &#45;14&#45;&gt;101 -->
<g id="edge39" class="edge">
<title>&#45;14&#45;&gt;101</title>
<path fill="none" stroke="red" stroke-width="0.25" d="M199.83,-145.82C202.77,-144.77 205.86,-143.69 208.75,-142.71 260.03,-125.38 320.22,-106.62 355.27,-95.84"/>
<polygon fill="red" stroke="red" stroke-width="0.25" points="355.99,-99.28 364.52,-93 353.93,-92.59 355.99,-99.28"/>
</g>
<!-- &#45;14&#45;&gt;102 -->
<g id="edge8" class="edge">
<title>&#45;14&#45;&gt;102</title>
<path fill="none" stroke="green" stroke-width="0.15" d="M186.02,-142.31C186.22,-135.76 186.52,-126.33 186.81,-117.1"/>
<polygon fill="green" stroke="green" stroke-width="0.15" points="190.3,-117.27 187.12,-107.16 183.31,-117.05 190.3,-117.27"/>
</g>
<!-- &#45;14&#45;&gt;103 -->
<g id="edge33" class="edge">
<title>&#45;14&#45;&gt;103</title>
<path fill="none" stroke="green" stroke-width="0.24" d="M197.48,-142.31C210.36,-132.83 231.4,-117.32 247.97,-105.11"/>
<polygon fill="green" stroke="green" stroke-width="0.24" points="249.88,-108.05 255.86,-99.3 245.73,-102.41 249.88,-108.05"/>
</g>
<!-- &#45;15 -->
<g id="node15" class="node">
<title>&#45;15</title>
<polygon fill="lightgray" stroke="black" points="639.75,-161.21 611.75,-161.21 611.75,-142.71 639.75,-142.71 639.75,-161.21"/>
<text text-anchor="middle" x="625.75" y="-148.66" font-family="Times,serif" font-size="9.00">&#45;15</text>
</g>
<!-- &#45;15&#45;&gt;104 -->
<g id="edge21" class="edge">
<title>&#45;15&#45;&gt;104</title>
<path fill="none" stroke="red" stroke-width="0.3" d="M616.58,-142.31C607.27,-133.54 592.51,-119.62 580.1,-107.92"/>
<polygon fill="red" stroke="red" stroke-width="0.3" points="582.76,-105.62 573.08,-101.31 577.96,-110.71 582.76,-105.62"/>
</g>
<!-- &#45;16 -->
<g id="node16" class="node">
<title>&#45;16</title>
<polygon fill="lightgray" stroke="black" points="685.75,-161.21 657.75,-161.21 657.75,-142.71 685.75,-142.71 685.75,-161.21"/>
<text text-anchor="middle" x="671.75" y="-148.66" font-family="Times,serif" font-size="9.00">&#45;16</text>
</g>
<!-- &#45;16&#45;&gt;104 -->
<g id="edge4" class="edge">
<title>&#45;16&#45;&gt;104</title>
<path fill="none" stroke="green" stroke-width="0.3" stroke-dasharray="1,5" d="M657.31,-142.84C639.09,-132.59 607.39,-114.77 584.65,-101.98"/>
<polygon fill="green" stroke="green" stroke-width="0.3" points="586.65,-99.09 576.22,-97.24 583.22,-105.19 586.65,-99.09"/>
</g>
<!-- &#45;17 -->
<g id="node17" class="node">
<title>&#45;17</title>
<polygon fill="lightgray" stroke="black" points="819.75,-161.21 791.75,-161.21 791.75,-142.71 819.75,-142.71 819.75,-161.21"/>
<text text-anchor="middle" x="805.75" y="-148.66" font-family="Times,serif" font-size="9.00">&#45;17</text>
</g>
<!-- &#45;18 -->
<g id="node18" class="node">
<title>&#45;18</title>
<polygon fill="lightgray" stroke="black" points="153.75,-161.21 125.75,-161.21 125.75,-142.71 153.75,-142.71 153.75,-161.21"/>
<text text-anchor="middle" x="139.75" y="-148.66" font-family="Times,serif" font-size="9.00">&#45;18</text>
</g>
<!-- &#45;18&#45;&gt;102 -->
<g id="edge27" class="edge">
<title>&#45;18&#45;&gt;102</title>
<path fill="none" stroke="green" stroke-width="0.21" d="M146.22,-142.31C152.18,-134.36 161.3,-122.18 169.47,-111.26"/>
<polygon fill="green" stroke="green" stroke-width="0.21" points="172.09,-113.6 175.29,-103.5 166.49,-109.41 172.09,-113.6"/>
</g>
<!-- &#45;18&#45;&gt;103 -->
<g id="edge34" class="edge">
<title>&#45;18&#45;&gt;103</title>
<path fill="none" stroke="red" stroke-width="0.32" d="M154.24,-143.98C175.92,-133.53 217.21,-113.62 244.87,-100.29"/>
<polygon fill="red" stroke="red" stroke-width="0.32" points="246.1,-103.58 253.59,-96.09 243.06,-97.28 246.1,-103.58"/>
</g>
<!-- &#45;19 -->
<g id="node19" class="node">
<title>&#45;19</title>
<polygon fill="lightgray" stroke="black" points="375.75,-161.21 347.75,-161.21 347.75,-142.71 375.75,-142.71 375.75,-161.21"/>
<text text-anchor="middle" x="361.75" y="-148.66" font-family="Times,serif" font-size="9.00">&#45;19</text>
</g>
<!-- &#45;19&#45;&gt;101 -->
<g id="edge15" class="edge">
<title>&#45;19&#45;&gt;101</title>
<path fill="none" stroke="red" stroke-width="0.32" d="M364.85,-142.31C367.33,-135.41 370.94,-125.33 374.42,-115.65"/>
<polygon fill="red" stroke="red" stroke-width="0.32" points="377.69,-116.9 377.77,-106.31 371.1,-114.54 377.69,-116.9"/>
</g>
<!-- &#45;19&#45;&gt;103 -->
<g id="edge42" class="edge">
<title>&#45;19&#45;&gt;103</title>
<path fill="none" stroke="red" stroke-width="0.15" d="M349.75,-142.31C336.37,-132.68 314.39,-116.84 297.33,-104.55"/>
<polygon fill="red" stroke="red" stroke-width="0.15" points="299.75,-101.98 289.59,-98.98 295.65,-107.66 299.75,-101.98"/>
</g>
<!-- &#45;20 -->
<g id="node20" class="node">
<title>&#45;20</title>
<polygon fill="lightgray" stroke="black" points="421.75,-161.21 393.75,-161.21 393.75,-142.71 421.75,-142.71 421.75,-161.21"/>
<text text-anchor="middle" x="407.75" y="-148.66" font-family="Times,serif" font-size="9.00">&#45;20</text>
</g>
<!-- &#45;20&#45;&gt;101 -->
<g id="edge30" class="edge">
<title>&#45;20&#45;&gt;101</title>
<path fill="none" stroke="red" stroke-width="0.28" stroke-dasharray="1,5" d="M404.65,-142.31C402.17,-135.41 398.56,-125.33 395.08,-115.65"/>
<polygon fill="red" stroke="red" stroke-width="0.28" points="398.38,-114.49 391.71,-106.26 391.79,-116.85 398.38,-114.49"/>
</g>
<!-- &#45;20&#45;&gt;102 -->
<g id="edge7" class="edge">
<title>&#45;20&#45;&gt;102</title>
<path fill="none" stroke="green" stroke-width="0.14" d="M393.71,-145.68C390.77,-144.65 387.67,-143.6 384.75,-142.71 322.48,-123.7 305,-125.79 242.75,-106.71 234.17,-104.08 224.96,-100.9 216.57,-97.86"/>
<polygon fill="green" stroke="green" stroke-width="0.14" points="217.98,-94.65 207.39,-94.47 215.56,-101.22 217.98,-94.65"/>
</g>
<!-- &#45;20&#45;&gt;103 -->
<g id="edge18" class="edge">
<title>&#45;20&#45;&gt;103</title>
<path fill="none" stroke="green" stroke-width="0.28" d="M393.3,-144.1C371.28,-133.64 328.89,-113.51 300.71,-100.13"/>
<polygon fill="green" stroke="green" stroke-width="0.28" points="302.31,-97.02 291.78,-95.89 299.31,-103.34 302.31,-97.02"/>
</g>
<!-- &#45;20&#45;&gt;104 -->
<g id="edge9" class="edge">
<title>&#45;20&#45;&gt;104</title>
<path fill="none" stroke="green" stroke-width="0.2" d="M422.13,-144.81C446.72,-134.3 497.27,-112.7 529.23,-99.04"/>
<polygon fill="green" stroke="green" stroke-width="0.2" points="530.41,-102.34 538.23,-95.19 527.66,-95.91 530.41,-102.34"/>
</g>
<!-- 0&#45;&gt;0 -->
<g id="edge36" class="edge">
<title>0&#45;&gt;0</title>
<path fill="none" stroke="green" stroke-width="0.11" stroke-dasharray="1,5" d="M209.07,-24.94C219.56,-31.08 231.25,-27.6 231.25,-14.5 231.25,-5.28 225.47,-0.83 218.39,-1.13"/>
<polygon fill="green" stroke="green" stroke-width="0.11" points="217.72,2.33 209.23,-4 219.82,-4.35 217.72,2.33"/>
</g>
<!-- 1 -->
<g id="node22" class="node">
<title>1</title>
<ellipse fill="lightblue" stroke="black" cx="266.75" cy="-14.5" rx="14.5" ry="14.5"/>
<text text-anchor="middle" x="266.75" y="-11.2" font-family="Times,serif" font-size="9.00">1</text>
</g>
<!-- 1&#45;&gt;1 -->
<g id="edge19" class="edge">
<title>1&#45;&gt;1</title>
<path fill="none" stroke="red" stroke-width="0.15" d="M277.07,-24.94C287.56,-31.08 299.25,-27.6 299.25,-14.5 299.25,-5.49 293.72,-1.03 286.86,-1.12"/>
<polygon fill="red" stroke="red" stroke-width="0.15" points="285.86,2.24 277.28,-3.99 287.87,-4.47 285.86,2.24"/>
</g>
<!-- 2 -->
<g id="node23" class="node">
<title>2</title>
<ellipse fill="lightblue" stroke="black" cx="580.75" cy="-14.5" rx="14.5" ry="14.5"/>
<text text-anchor="middle" x="580.75" y="-11.2" font-family="Times,serif" font-size="9.00">2</text>
</g>
<!-- 3 -->
<g id="node24" class="node">
<title>3</title>
<ellipse fill="lightblue" stroke="black" cx="533.75" cy="-14.5" rx="14.5" ry="14.5"/>
<text text-anchor="middle" x="533.75" y="-11.2" font-family="Times,serif" font-size="9.00">3</text>
</g>
<!-- 4 -->
<g id="node25" class="node">
<title>4</title>
<ellipse fill="lightblue" stroke="black" cx="331.75" cy="-14.5" rx="14.5" ry="14.5"/>
<text text-anchor="middle" x="331.75" y="-11.2" font-family="Times,serif" font-size="9.00">4</text>
</g>
<!-- 4&#45;&gt;4 -->
<g id="edge37" class="edge">
<title>4&#45;&gt;4</title>
<path fill="none" stroke="green" stroke-width="0.13" stroke-dasharray="1,5" d="M342.07,-24.94C352.56,-31.08 364.25,-27.6 364.25,-14.5 364.25,-5.28 358.47,-0.83 351.39,-1.13"/>
<polygon fill="green" stroke="green" stroke-width="0.13" points="350.75,2.34 342.25,-4 352.84,-4.34 350.75,2.34"/>
</g>
<!-- 101&#45;&gt;0 -->
<g id="edge40" class="edge">
<title>101&#45;&gt;0</title>
<path fill="none" stroke="green" stroke-width="0.95" d="M365.2,-77.56C330.88,-64.76 259.93,-38.31 222.72,-24.43"/>
<polygon fill="green" stroke="green" stroke-width="0.95" points="224.27,-21.28 213.68,-21.06 221.83,-27.84 224.27,-21.28"/>
</g>
<!-- 101&#45;&gt;1 -->
<g id="edge3" class="edge">
<title>101&#45;&gt;1</title>
<path fill="none" stroke="red" stroke-width="0.49" stroke-dasharray="1,5" d="M366.83,-74.32C345.71,-61.91 310.66,-41.3 288.14,-28.07"/>
<polygon fill="red" stroke="red" stroke-width="0.49" points="290.08,-25.15 279.68,-23.1 286.53,-31.18 290.08,-25.15"/>
</g>
<!-- 101&#45;&gt;101 -->
<g id="edge12" class="edge">
<title>101&#45;&gt;101</title>
<path fill="none" stroke="red" stroke-width="0.21" d="M402.33,-97.37C413.24,-100.15 423.61,-96.31 423.61,-85.85 423.61,-78.82 418.93,-74.78 412.55,-73.73"/>
<polygon fill="red" stroke="red" stroke-width="0.21" points="412.43,-70.23 402.65,-74.31 412.84,-77.22 412.43,-70.23"/>
</g>
<!-- 102&#45;&gt;0 -->
<g id="edge2" class="edge">
<title>102&#45;&gt;0</title>
<path fill="none" stroke="green" stroke-width="0.47" d="M190.93,-64.79C192.19,-56.87 193.64,-47.7 194.95,-39.44"/>
<polygon fill="green" stroke="green" stroke-width="0.47" points="198.4,-40.05 196.51,-29.63 191.49,-38.95 198.4,-40.05"/>
</g>
<!-- 102&#45;&gt;1 -->
<g id="edge22" class="edge">
<title>102&#45;&gt;1</title>
<path fill="none" stroke="green" stroke-width="0.28" stroke-dasharray="1,5" d="M202.98,-71.48C216.03,-60.03 234.83,-43.52 248.64,-31.39"/>
<polygon fill="green" stroke="green" stroke-width="0.28" points="250.59,-34.34 255.79,-25.11 245.97,-29.08 250.59,-34.34"/>
</g>
<!-- 103&#45;&gt;0 -->
<g id="edge23" class="edge">
<title>103&#45;&gt;0</title>
<path fill="none" stroke="red" stroke-width="0.15" d="M257.77,-70.82C245.74,-59.54 228.83,-43.69 216.19,-31.84"/>
<polygon fill="red" stroke="red" stroke-width="0.15" points="218.81,-29.5 209.12,-25.21 214.02,-34.6 218.81,-29.5"/>
</g>
<!-- 103&#45;&gt;1 -->
<g id="edge25" class="edge">
<title>103&#45;&gt;1</title>
<path fill="none" stroke="green" stroke-width="0.13" d="M271.01,-64.79C270.33,-56.89 269.54,-47.75 268.83,-39.5"/>
<polygon fill="green" stroke="green" stroke-width="0.13" points="272.31,-39.21 267.97,-29.55 265.34,-39.81 272.31,-39.21"/>
</g>
<!-- 103&#45;&gt;4 -->
<g id="edge6" class="edge">
<title>103&#45;&gt;4</title>
<path fill="none" stroke="green" stroke-width="0.51" d="M285.84,-69.46C294.63,-59.13 306.26,-45.45 315.62,-34.46"/>
<polygon fill="green" stroke="green" stroke-width="0.51" points="318.22,-36.8 322.04,-26.92 312.89,-32.26 318.22,-36.8"/>
</g>
<!-- 104&#45;&gt;2 -->
<g id="edge5" class="edge">
<title>104&#45;&gt;2</title>
<path fill="none" stroke="green" stroke-width="0.58" d="M564.16,-65.53C566.89,-57.3 570.09,-47.63 572.96,-38.99"/>
<polygon fill="green" stroke="green" stroke-width="0.58" points="576.24,-40.22 576.06,-29.62 569.59,-38.01 576.24,-40.22"/>
</g>
<!-- 104&#45;&gt;3 -->
<g id="edge24" class="edge">
<title>104&#45;&gt;3</title>
<path fill="none" stroke="green" stroke-width="0.22" d="M551.19,-65.9C548.21,-57.27 544.65,-47 541.53,-37.99"/>
<polygon fill="green" stroke="green" stroke-width="0.22" points="544.94,-37.12 538.36,-28.81 538.32,-39.41 544.94,-37.12"/>
</g>
</g>
</svg>
