<?xml version="1.0" encoding="UTF-8" standalone="no"?>
<!DOCTYPE svg PUBLIC "-//W3C//DTD SVG 1.1//EN"
 "http://www.w3.org/Graphics/SVG/1.1/DTD/svg11.dtd">
<!-- Generated by graphviz version 12.1.1 (20240910.0053)
 -->
<!-- Pages: 1 -->
<svg width="920pt" height="247pt"
 viewBox="0.00 0.00 919.75 246.93" xmlns="http://www.w3.org/2000/svg" xmlns:xlink="http://www.w3.org/1999/xlink">
<g id="graph0" class="graph" transform="scale(1 1) rotate(0) translate(4 242.93)">
<polygon fill="white" stroke="none" points="-4,4 -4,-242.93 915.75,-242.93 915.75,4 -4,4"/>
<!-- &#45;1 -->
<g id="node1" class="node">
<title>&#45;1</title>
<polygon fill="lightgray" stroke="black" points="23.5,-172.82 0,-172.82 0,-154.32 23.5,-154.32 23.5,-172.82"/>
<text text-anchor="middle" x="11.75" y="-160.27" font-family="Times,serif" font-size="9.00">&#45;1</text>
</g>
<!-- 131 -->
<g id="node28" class="node">
<title>131</title>
<ellipse fill="white" stroke="black" cx="98.75" cy="-85.85" rx="20.86" ry="20.86"/>
<text text-anchor="middle" x="98.75" y="-82.55" font-family="Times,serif" font-size="9.00">131</text>
</g>
<!-- &#45;1&#45;&gt;131 -->
<g id="edge34" class="edge">
<title>&#45;1&#45;&gt;131</title>
<path fill="none" stroke="green" stroke-width="0.28" d="M20.64,-153.96C24.34,-150.42 28.71,-146.32 32.75,-142.71 46.51,-130.39 62.3,-117.01 74.97,-106.43"/>
<polygon fill="green" stroke="green" stroke-width="0.28" points="77.03,-109.28 82.48,-100.2 72.55,-103.89 77.03,-109.28"/>
</g>
<!-- 132 -->
<g id="node29" class="node">
<title>132</title>
<ellipse fill="white" stroke="black" cx="230.75" cy="-85.85" rx="20.86" ry="20.86"/>
<text text-anchor="middle" x="230.75" y="-82.55" font-family="Times,serif" font-size="9.00">132</text>
</g>
<!-- &#45;1&#45;&gt;132 -->
<g id="edge38" class="edge">
<title>&#45;1&#45;&gt;132</title>
<path fill="none" stroke="green" stroke-width="0.21" stroke-dasharray="1,5" d="M19.18,-153.83C22.9,-149.93 27.69,-145.58 32.75,-142.71 61.54,-126.37 152.48,-104.4 200.45,-93.52"/>
<polygon fill="green" stroke="green" stroke-width="0.21" points="200.97,-97 209.96,-91.39 199.43,-90.17 200.97,-97"/>
</g>
<!-- &#45;2 -->
<g id="node2" class="node">
<title>&#45;2</title>
<polygon fill="lightgray" stroke="black" points="739.5,-172.82 716,-172.82 716,-154.32 739.5,-154.32 739.5,-172.82"/>
<text text-anchor="middle" x="727.75" y="-160.27" font-family="Times,serif" font-size="9.00">&#45;2</text>
</g>
<!-- 129 -->
<g id="node26" class="node">
<title>129</title>
<ellipse fill="white" stroke="black" cx="727.75" cy="-85.85" rx="20.86" ry="20.86"/>
<text text-anchor="middle" x="727.75" y="-82.55" font-family="Times,serif" font-size="9.00">129</text>
</g>
<!-- &#45;2&#45;&gt;129 -->
<g id="edge23" class="edge">
<title>&#45;2&#45;&gt;129</title>
<path fill="none" stroke="red" stroke-width="0.51" d="M727.75,-153.88C727.75,-145.02 727.75,-130.75 727.75,-117.65"/>
<polygon fill="red" stroke="red" stroke-width="0.51" points="731.25,-117.84 727.75,-107.84 724.25,-117.84 731.25,-117.84"/>
</g>
<!-- 130 -->
<g id="node27" class="node">
<title>130</title>
<ellipse fill="white" stroke="black" cx="561.75" cy="-85.85" rx="20.86" ry="20.86"/>
<text text-anchor="middle" x="561.75" y="-82.55" font-family="Times,serif" font-size="9.00">130</text>
</g>
<!-- &#45;2&#45;&gt;130 -->
<g id="edge9" class="edge">
<title>&#45;2&#45;&gt;130</title>
<path fill="none" stroke="green" stroke-width="0.65" stroke-dasharray="1,5" d="M720.2,-154.03C716.45,-150.18 711.67,-145.82 706.75,-142.71 670.37,-119.77 623.07,-103.74 592.56,-94.91"/>
<polygon fill="green" stroke="green" stroke-width="0.65" points="593.65,-91.58 583.08,-92.25 591.76,-98.32 593.65,-91.58"/>
</g>
<!-- &#45;3 -->
<g id="node3" class="node">
<title>&#45;3</title>
<polygon fill="lightgray" stroke="black" points="65.5,-172.82 42,-172.82 42,-154.32 65.5,-154.32 65.5,-172.82"/>
<text text-anchor="middle" x="53.75" y="-160.27" font-family="Times,serif" font-size="9.00">&#45;3</text>
</g>
<!-- &#45;3&#45;&gt;131 -->
<g id="edge13" class="edge">
<title>&#45;3&#45;&gt;131</title>
<path fill="none" stroke="red" stroke-width="0.22" d="M58.91,-153.88C64.84,-143.91 74.84,-127.09 83.33,-112.79"/>
<polygon fill="red" stroke="red" stroke-width="0.22" points="86.11,-114.97 88.21,-104.59 80.09,-111.39 86.11,-114.97"/>
</g>
<!-- &#45;3&#45;&gt;132 -->
<g id="edge12" class="edge">
<title>&#45;3&#45;&gt;132</title>
<path fill="none" stroke="red" stroke-width="0.65" d="M61.27,-153.98C65.01,-150.12 69.79,-145.76 74.75,-142.71 114.84,-118.1 167.36,-102.14 200.08,-93.82"/>
<polygon fill="red" stroke="red" stroke-width="0.65" points="200.53,-97.31 209.41,-91.52 198.86,-90.51 200.53,-97.31"/>
</g>
<!-- &#45;4 -->
<g id="node4" class="node">
<title>&#45;4</title>
<polygon fill="lightgray" stroke="black" points="245.5,-172.82 222,-172.82 222,-154.32 245.5,-154.32 245.5,-172.82"/>
<text text-anchor="middle" x="233.75" y="-160.27" font-family="Times,serif" font-size="9.00">&#45;4</text>
</g>
<!-- &#45;4&#45;&gt;129 -->
<g id="edge8" class="edge">
<title>&#45;4&#45;&gt;129</title>
<path fill="none" stroke="red" stroke-width="0.13" d="M245.75,-157.72C257.52,-153.16 276.09,-146.47 292.75,-142.71 423.31,-113.21 459.07,-124.38 591.75,-106.71 628.03,-101.88 669.67,-95.71 697.21,-91.54"/>
<polygon fill="red" stroke="red" stroke-width="0.13" points="697.49,-95.03 706.85,-90.07 696.44,-88.11 697.49,-95.03"/>
</g>
<!-- &#45;4&#45;&gt;131 -->
<g id="edge41" class="edge">
<title>&#45;4&#45;&gt;131</title>
<path fill="none" stroke="red" stroke-width="0.11" d="M225.67,-153.83C221.96,-150.12 217.37,-145.91 212.75,-142.71 185.69,-123.94 151.39,-108.05 127.51,-98.08"/>
<polygon fill="red" stroke="red" stroke-width="0.11" points="129.01,-94.91 118.43,-94.36 126.36,-101.39 129.01,-94.91"/>
</g>
<!-- &#45;4&#45;&gt;132 -->
<g id="edge17" class="edge">
<title>&#45;4&#45;&gt;132</title>
<path fill="none" stroke="red" stroke-width="0.26" stroke-dasharray="1,5" d="M233.41,-153.88C233.05,-144.93 232.48,-130.46 231.95,-117.26"/>
<polygon fill="red" stroke="red" stroke-width="0.26" points="235.46,-117.3 231.57,-107.45 228.46,-117.58 235.46,-117.3"/>
</g>
<!-- &#45;5 -->
<g id="node5" class="node">
<title>&#45;5</title>
<polygon fill="lightgray" stroke="black" points="553.5,-172.82 530,-172.82 530,-154.32 553.5,-154.32 553.5,-172.82"/>
<text text-anchor="middle" x="541.75" y="-160.27" font-family="Times,serif" font-size="9.00">&#45;5</text>
</g>
<!-- &#45;5&#45;&gt;130 -->
<g id="edge4" class="edge">
<title>&#45;5&#45;&gt;130</title>
<path fill="none" stroke="red" stroke-width="0.34" d="M544.04,-153.88C546.46,-144.72 550.41,-129.77 553.97,-116.32"/>
<polygon fill="red" stroke="red" stroke-width="0.34" points="557.27,-117.5 556.44,-106.94 550.51,-115.71 557.27,-117.5"/>
</g>
<!-- &#45;6 -->
<g id="node6" class="node">
<title>&#45;6</title>
<polygon fill="lightgray" stroke="black" points="473.5,-172.82 450,-172.82 450,-154.32 473.5,-154.32 473.5,-172.82"/>
<text text-anchor="middle" x="461.75" y="-160.27" font-family="Times,serif" font-size="9.00">&#45;6</text>
</g>
<!-- &#45;6&#45;&gt;130 -->
<g id="edge27" class="edge">
<title>&#45;6&#45;&gt;130</title>
<path fill="none" stroke="red" stroke-width="0.25" d="M473.13,-153.86C477.67,-150.38 482.95,-146.35 487.75,-142.71 504.25,-130.18 522.87,-116.13 537.3,-105.25"/>
<polygon fill="red" stroke="red" stroke-width="0.25" points="539.09,-108.28 544.97,-99.47 534.88,-102.69 539.09,-108.28"/>
</g>
<!-- &#45;6&#45;&gt;132 -->
<g id="edge18" class="edge">
<title>&#45;6&#45;&gt;132</title>
<path fill="none" stroke="green" stroke-width="0.64" d="M454.72,-154.19C450.95,-150.19 446.01,-145.64 440.75,-142.71 382.8,-110.39 305.36,-96.12 262.56,-90.34"/>
<polygon fill="green" stroke="green" stroke-width="0.64" points="263.02,-86.87 252.66,-89.09 262.14,-93.82 263.02,-86.87"/>
</g>
<!-- &#45;7 -->
<g id="node7" class="node">
<title>&#45;7</title>
<polygon fill="lightgray" stroke="black" points="686.5,-238.93 663,-238.93 663,-220.43 686.5,-220.43 686.5,-238.93"/>
<text text-anchor="middle" x="674.75" y="-226.38" font-family="Times,serif" font-size="9.00">&#45;7</text>
</g>
<!-- &#45;8 -->
<g id="node8" class="node">
<title>&#45;8</title>
<polygon fill="lightgray" stroke="black" points="865.5,-172.82 842,-172.82 842,-154.32 865.5,-154.32 865.5,-172.82"/>
<text text-anchor="middle" x="853.75" y="-160.27" font-family="Times,serif" font-size="9.00">&#45;8</text>
</g>
<!-- &#45;8&#45;&gt;129 -->
<g id="edge16" class="edge">
<title>&#45;8&#45;&gt;129</title>
<path fill="none" stroke="green" stroke-width="0.37" stroke-dasharray="1,5" d="M843.12,-153.91C838.51,-150.29 832.97,-146.14 827.75,-142.71 804.18,-127.24 776.04,-111.77 755.62,-101.04"/>
<polygon fill="green" stroke="green" stroke-width="0.37" points="757.25,-97.95 746.77,-96.44 754.02,-104.16 757.25,-97.95"/>
</g>
<!-- &#45;9 -->
<g id="node9" class="node">
<title>&#45;9</title>
<polygon fill="lightgray" stroke="black" points="325.5,-172.82 302,-172.82 302,-154.32 325.5,-154.32 325.5,-172.82"/>
<text text-anchor="middle" x="313.75" y="-160.27" font-family="Times,serif" font-size="9.00">&#45;9</text>
</g>
<!-- &#45;9&#45;&gt;129 -->
<g id="edge7" class="edge">
<title>&#45;9&#45;&gt;129</title>
<path fill="none" stroke="green" stroke-width="0.47" d="M320.64,-153.92C324.37,-149.85 329.32,-145.32 334.75,-142.71 438.69,-92.72 477.57,-123.04 591.75,-106.71 627.67,-101.57 668.89,-95.53 696.46,-91.47"/>
<polygon fill="green" stroke="green" stroke-width="0.47" points="696.93,-94.94 706.31,-90.02 695.91,-88.02 696.93,-94.94"/>
</g>
<!-- &#45;9&#45;&gt;131 -->
<g id="edge40" class="edge">
<title>&#45;9&#45;&gt;131</title>
<path fill="none" stroke="green" stroke-width="0.34" stroke-dasharray="1,5" d="M301.57,-158.28C268.47,-146.62 176.11,-114.1 128.29,-97.25"/>
<polygon fill="green" stroke="green" stroke-width="0.34" points="129.6,-94 119,-93.98 127.27,-100.61 129.6,-94"/>
</g>
<!-- &#45;10 -->
<g id="node10" class="node">
<title>&#45;10</title>
<polygon fill="lightgray" stroke="black" points="697.75,-172.82 669.75,-172.82 669.75,-154.32 697.75,-154.32 697.75,-172.82"/>
<text text-anchor="middle" x="683.75" y="-160.27" font-family="Times,serif" font-size="9.00">&#45;10</text>
</g>
<!-- &#45;10&#45;&gt;129 -->
<g id="edge3" class="edge">
<title>&#45;10&#45;&gt;129</title>
<path fill="none" stroke="green" stroke-width="0.17" d="M688.8,-153.88C694.59,-143.91 704.37,-127.09 712.68,-112.79"/>
<polygon fill="green" stroke="green" stroke-width="0.17" points="715.49,-114.92 717.48,-104.52 709.43,-111.41 715.49,-114.92"/>
</g>
<!-- &#45;10&#45;&gt;130 -->
<g id="edge6" class="edge">
<title>&#45;10&#45;&gt;130</title>
<path fill="none" stroke="green" stroke-width="0.12" d="M674.69,-154.02C670.59,-150.34 665.58,-146.11 660.75,-142.71 637.76,-126.54 609.7,-111.07 589.34,-100.53"/>
<polygon fill="green" stroke="green" stroke-width="0.12" points="590.94,-97.42 580.44,-95.99 587.76,-103.65 590.94,-97.42"/>
</g>
<!-- &#45;11 -->
<g id="node11" class="node">
<title>&#45;11</title>
<polygon fill="lightgray" stroke="black" points="378.75,-238.93 350.75,-238.93 350.75,-220.43 378.75,-220.43 378.75,-238.93"/>
<text text-anchor="middle" x="364.75" y="-226.38" font-family="Times,serif" font-size="9.00">&#45;11</text>
</g>
<!-- &#45;11&#45;&gt;130 -->
<g id="edge33" class="edge">
<title>&#45;11&#45;&gt;130</title>
<path fill="none" stroke="green" stroke-width="0.19" stroke-dasharray="1,5" d="M378.99,-225.9C402.4,-220.8 449.74,-208.22 482.75,-184.43 497.29,-173.95 525.74,-136.68 544.23,-111.36"/>
<polygon fill="green" stroke="green" stroke-width="0.19" points="546.89,-113.66 549.92,-103.51 541.22,-109.55 546.89,-113.66"/>
</g>
<!-- &#45;11&#45;&gt;132 -->
<g id="edge21" class="edge">
<title>&#45;11&#45;&gt;132</title>
<path fill="none" stroke="red" stroke-width="0.6" stroke-dasharray="1,5" d="M350.46,-222.32C334.92,-214.89 310,-201.42 292.75,-184.43 272.11,-164.09 255.03,-135.66 244.06,-114.73"/>
<polygon fill="red" stroke="red" stroke-width="0.6" points="247.24,-113.26 239.58,-105.93 241,-116.43 247.24,-113.26"/>
</g>
<!-- 404 -->
<g id="node31" class="node">
<title>404</title>
<ellipse fill="white" stroke="black" cx="364.75" cy="-163.57" rx="20.86" ry="20.86"/>
<text text-anchor="middle" x="364.75" y="-160.27" font-family="Times,serif" font-size="9.00">404</text>
</g>
<!-- &#45;11&#45;&gt;404 -->
<g id="edge44" class="edge">
<title>&#45;11&#45;&gt;404</title>
<path fill="none" stroke="red" stroke-width="0.12" d="M364.75,-220.03C364.75,-213.53 364.75,-204.19 364.75,-195.03"/>
<polygon fill="red" stroke="red" stroke-width="0.12" points="368.25,-195.11 364.75,-185.11 361.25,-195.11 368.25,-195.11"/>
</g>
<!-- &#45;12 -->
<g id="node12" class="node">
<title>&#45;12</title>
<polygon fill="lightgray" stroke="black" points="157.75,-172.82 129.75,-172.82 129.75,-154.32 157.75,-154.32 157.75,-172.82"/>
<text text-anchor="middle" x="143.75" y="-160.27" font-family="Times,serif" font-size="9.00">&#45;12</text>
</g>
<!-- &#45;12&#45;&gt;132 -->
<g id="edge11" class="edge">
<title>&#45;12&#45;&gt;132</title>
<path fill="none" stroke="green" stroke-width="0.17" d="M153.73,-153.88C166.81,-142.5 190.16,-122.18 207.73,-106.89"/>
<polygon fill="green" stroke="green" stroke-width="0.17" points="209.9,-109.64 215.14,-100.44 205.3,-104.36 209.9,-109.64"/>
</g>
<!-- &#45;13 -->
<g id="node13" class="node">
<title>&#45;13</title>
<polygon fill="lightgray" stroke="black" points="111.75,-172.82 83.75,-172.82 83.75,-154.32 111.75,-154.32 111.75,-172.82"/>
<text text-anchor="middle" x="97.75" y="-160.27" font-family="Times,serif" font-size="9.00">&#45;13</text>
</g>
<!-- &#45;13&#45;&gt;131 -->
<g id="edge20" class="edge">
<title>&#45;13&#45;&gt;131</title>
<path fill="none" stroke="green" stroke-width="0.28" stroke-dasharray="1,5" d="M97.86,-153.88C97.98,-144.93 98.17,-130.46 98.35,-117.26"/>
<polygon fill="green" stroke="green" stroke-width="0.28" points="101.85,-117.53 98.48,-107.49 94.85,-117.44 101.85,-117.53"/>
</g>
<!-- &#45;13&#45;&gt;132 -->
<g id="edge5" class="edge">
<title>&#45;13&#45;&gt;132</title>
<path fill="none" stroke="red" stroke-width="0.14" d="M106.74,-153.91C110.83,-150.22 115.84,-146 120.75,-142.71 147.05,-125.06 179.67,-109.16 202.53,-98.88"/>
<polygon fill="red" stroke="red" stroke-width="0.14" points="203.76,-102.17 211.49,-94.92 200.93,-95.76 203.76,-102.17"/>
</g>
<!-- &#45;14 -->
<g id="node14" class="node">
<title>&#45;14</title>
<polygon fill="lightgray" stroke="black" points="732.75,-238.93 704.75,-238.93 704.75,-220.43 732.75,-220.43 732.75,-238.93"/>
<text text-anchor="middle" x="718.75" y="-226.38" font-family="Times,serif" font-size="9.00">&#45;14</text>
</g>
<!-- &#45;15 -->
<g id="node15" class="node">
<title>&#45;15</title>
<polygon fill="lightgray" stroke="black" points="778.75,-238.93 750.75,-238.93 750.75,-220.43 778.75,-220.43 778.75,-238.93"/>
<text text-anchor="middle" x="764.75" y="-226.38" font-family="Times,serif" font-size="9.00">&#45;15</text>
</g>
<!-- &#45;16 -->
<g id="node16" class="node">
<title>&#45;16</title>
<polygon fill="lightgray" stroke="black" points="431.75,-172.82 403.75,-172.82 403.75,-154.32 431.75,-154.32 431.75,-172.82"/>
<text text-anchor="middle" x="417.75" y="-160.27" font-family="Times,serif" font-size="9.00">&#45;16</text>
</g>
<!-- &#45;16&#45;&gt;130 -->
<g id="edge28" class="edge">
<title>&#45;16&#45;&gt;130</title>
<path fill="none" stroke="green" stroke-width="0.24" d="M426.68,-153.83C430.76,-150.11 435.78,-145.91 440.75,-142.71 470.28,-123.68 507.35,-107.57 532.63,-97.62"/>
<polygon fill="green" stroke="green" stroke-width="0.24" points="533.62,-100.98 541.69,-94.11 531.1,-94.45 533.62,-100.98"/>
</g>
<!-- &#45;16&#45;&gt;132 -->
<g id="edge30" class="edge">
<title>&#45;16&#45;&gt;132</title>
<path fill="none" stroke="red" stroke-width="0.65" d="M409.4,-153.98C405.28,-150.12 400.06,-145.75 394.75,-142.71 351.54,-117.95 295.61,-101.85 261.5,-93.57"/>
<polygon fill="red" stroke="red" stroke-width="0.65" points="262.73,-90.26 252.2,-91.38 261.13,-97.08 262.73,-90.26"/>
</g>
<!-- &#45;17 -->
<g id="node17" class="node">
<title>&#45;17</title>
<polygon fill="lightgray" stroke="black" points="203.75,-172.82 175.75,-172.82 175.75,-154.32 203.75,-154.32 203.75,-172.82"/>
<text text-anchor="middle" x="189.75" y="-160.27" font-family="Times,serif" font-size="9.00">&#45;17</text>
</g>
<!-- &#45;17&#45;&gt;132 -->
<g id="edge35" class="edge">
<title>&#45;17&#45;&gt;132</title>
<path fill="none" stroke="red" stroke-width="0.26" stroke-dasharray="1,5" d="M194.45,-153.88C199.77,-144.07 208.68,-127.62 216.34,-113.47"/>
<polygon fill="red" stroke="red" stroke-width="0.26" points="219.27,-115.41 220.95,-104.95 213.11,-112.07 219.27,-115.41"/>
</g>
<!-- &#45;18 -->
<g id="node18" class="node">
<title>&#45;18</title>
<polygon fill="lightgray" stroke="black" points="911.75,-172.82 883.75,-172.82 883.75,-154.32 911.75,-154.32 911.75,-172.82"/>
<text text-anchor="middle" x="897.75" y="-160.27" font-family="Times,serif" font-size="9.00">&#45;18</text>
</g>
<!-- &#45;18&#45;&gt;129 -->
<g id="edge39" class="edge">
<title>&#45;18&#45;&gt;129</title>
<path fill="none" stroke="green" stroke-width="0.55" d="M889.35,-154.06C885.22,-150.22 880.01,-145.84 874.75,-142.71 836.99,-120.2 788.58,-103.91 757.85,-94.92"/>
<polygon fill="green" stroke="green" stroke-width="0.55" points="759.14,-91.65 748.57,-92.27 757.23,-98.38 759.14,-91.65"/>
</g>
<!-- &#45;19 -->
<g id="node19" class="node">
<title>&#45;19</title>
<polygon fill="lightgray" stroke="black" points="785.75,-172.82 757.75,-172.82 757.75,-154.32 785.75,-154.32 785.75,-172.82"/>
<text text-anchor="middle" x="771.75" y="-160.27" font-family="Times,serif" font-size="9.00">&#45;19</text>
</g>
<!-- &#45;19&#45;&gt;129 -->
<g id="edge14" class="edge">
<title>&#45;19&#45;&gt;129</title>
<path fill="none" stroke="red" stroke-width="0.14" d="M766.7,-153.88C760.91,-143.91 751.13,-127.09 742.82,-112.79"/>
<polygon fill="red" stroke="red" stroke-width="0.14" points="746.04,-111.36 737.99,-104.47 739.99,-114.88 746.04,-111.36"/>
</g>
<!-- &#45;20 -->
<g id="node20" class="node">
<title>&#45;20</title>
<polygon fill="lightgray" stroke="black" points="644.75,-238.93 616.75,-238.93 616.75,-220.43 644.75,-220.43 644.75,-238.93"/>
<text text-anchor="middle" x="630.75" y="-226.38" font-family="Times,serif" font-size="9.00">&#45;20</text>
</g>
<!-- &#45;20&#45;&gt;129 -->
<g id="edge19" class="edge">
<title>&#45;20&#45;&gt;129</title>
<path fill="none" stroke="green" stroke-width="0.62" stroke-dasharray="1,5" d="M644.79,-223.41C647.73,-222.37 650.83,-221.32 653.75,-220.43 715.59,-201.49 755.07,-235.51 794.75,-184.43 806.12,-169.79 802.61,-159.5 794.75,-142.71 786.58,-125.27 770,-111.38 755.38,-101.81"/>
<polygon fill="green" stroke="green" stroke-width="0.62" points="757.31,-98.88 746.95,-96.64 753.65,-104.85 757.31,-98.88"/>
</g>
<!-- &#45;20&#45;&gt;130 -->
<g id="edge15" class="edge">
<title>&#45;20&#45;&gt;130</title>
<path fill="none" stroke="red" stroke-width="0.34" d="M624.2,-220.21C617.69,-211.55 607.71,-197.55 600.75,-184.43 588.95,-162.2 578.54,-135.59 571.45,-115.78"/>
<polygon fill="red" stroke="red" stroke-width="0.34" points="574.84,-114.86 568.23,-106.58 568.23,-117.17 574.84,-114.86"/>
</g>
<!-- 265 -->
<g id="node30" class="node">
<title>265</title>
<ellipse fill="white" stroke="black" cx="630.75" cy="-163.57" rx="20.86" ry="20.86"/>
<text text-anchor="middle" x="630.75" y="-160.27" font-family="Times,serif" font-size="9.00">265</text>
</g>
<!-- &#45;20&#45;&gt;265 -->
<g id="edge42" class="edge">
<title>&#45;20&#45;&gt;265</title>
<path fill="none" stroke="green" stroke-width="0.21" stroke-dasharray="1,5" d="M630.75,-220.03C630.75,-213.53 630.75,-204.19 630.75,-195.03"/>
<polygon fill="green" stroke="green" stroke-width="0.21" points="634.25,-195.23 630.75,-185.23 627.25,-195.23 634.25,-195.23"/>
</g>
<!-- 0 -->
<g id="node21" class="node">
<title>0</title>
<ellipse fill="lightblue" stroke="black" cx="727.75" cy="-14.5" rx="14.5" ry="14.5"/>
<text text-anchor="middle" x="727.75" y="-11.2" font-family="Times,serif" font-size="9.00">0</text>
</g>
<!-- 0&#45;&gt;0 -->
<g id="edge10" class="edge">
<title>0&#45;&gt;0</title>
<path fill="none" stroke="red" stroke-width="0.29" stroke-dasharray="1,5" d="M738.07,-24.94C748.56,-31.08 760.25,-27.6 760.25,-14.5 760.25,-5.49 754.72,-1.03 747.86,-1.12"/>
<polygon fill="red" stroke="red" stroke-width="0.29" points="747.06,2.3 738.48,-3.93 749.07,-4.41 747.06,2.3"/>
</g>
<!-- 1 -->
<g id="node22" class="node">
<title>1</title>
<ellipse fill="lightblue" stroke="black" cx="230.75" cy="-14.5" rx="14.5" ry="14.5"/>
<text text-anchor="middle" x="230.75" y="-11.2" font-family="Times,serif" font-size="9.00">1</text>
</g>
<!-- 1&#45;&gt;1 -->
<g id="edge37" class="edge">
<title>1&#45;&gt;1</title>
<path fill="none" stroke="red" stroke-width="0.38" d="M241.07,-24.94C251.56,-31.08 263.25,-27.6 263.25,-14.5 263.25,-5.49 257.72,-1.03 250.86,-1.12"/>
<polygon fill="red" stroke="red" stroke-width="0.38" points="250.19,2.34 241.62,-3.89 252.21,-4.37 250.19,2.34"/>
</g>
<!-- 2 -->
<g id="node23" class="node">
<title>2</title>
<ellipse fill="lightblue" stroke="black" cx="98.75" cy="-14.5" rx="14.5" ry="14.5"/>
<text text-anchor="middle" x="98.75" y="-11.2" font-family="Times,serif" font-size="9.00">2</text>
</g>
<!-- 2&#45;&gt;2 -->
<g id="edge31" class="edge">
<title>2&#45;&gt;2</title>
<path fill="none" stroke="green" stroke-width="0.51" stroke-dasharray="1,5" d="M109.07,-24.94C119.56,-31.08 131.25,-27.6 131.25,-14.5 131.25,-5.69 125.97,-1.23 119.33,-1.12"/>
<polygon fill="green" stroke="green" stroke-width="0.51" points="118.46,2.27 109.81,-3.84 120.39,-4.46 118.46,2.27"/>
</g>
<!-- 3 -->
<g id="node24" class="node">
<title>3</title>
<ellipse fill="lightblue" stroke="black" cx="165.75" cy="-14.5" rx="14.5" ry="14.5"/>
<text text-anchor="middle" x="165.75" y="-11.2" font-family="Times,serif" font-size="9.00">3</text>
</g>
<!-- 3&#45;&gt;3 -->
<g id="edge32" class="edge">
<title>3&#45;&gt;3</title>
<path fill="none" stroke="green" stroke-width="0.21" stroke-dasharray="1,5" d="M176.07,-24.94C186.56,-31.08 198.25,-27.6 198.25,-14.5 198.25,-5.49 192.72,-1.03 185.86,-1.12"/>
<polygon fill="green" stroke="green" stroke-width="0.21" points="184.94,2.26 176.37,-3.97 186.95,-4.45 184.94,2.26"/>
</g>
<!-- 4 -->
<g id="node25" class="node">
<title>4</title>
<ellipse fill="lightblue" stroke="black" cx="295.75" cy="-14.5" rx="14.5" ry="14.5"/>
<text text-anchor="middle" x="295.75" y="-11.2" font-family="Times,serif" font-size="9.00">4</text>
</g>
<!-- 4&#45;&gt;4 -->
<g id="edge29" class="edge">
<title>4&#45;&gt;4</title>
<path fill="none" stroke="red" stroke-width="0.35" d="M306.07,-24.94C316.56,-31.08 328.25,-27.6 328.25,-14.5 328.25,-5.49 322.72,-1.03 315.86,-1.12"/>
<polygon fill="red" stroke="red" stroke-width="0.35" points="315.15,2.32 306.58,-3.9 317.16,-4.38 315.15,2.32"/>
</g>
<!-- 129&#45;&gt;0 -->
<g id="edge2" class="edge">
<title>129&#45;&gt;0</title>
<path fill="none" stroke="red" stroke-width="0.25" d="M727.75,-64.79C727.75,-56.89 727.75,-47.75 727.75,-39.5"/>
<polygon fill="red" stroke="red" stroke-width="0.25" points="731.25,-39.73 727.75,-29.73 724.25,-39.73 731.25,-39.73"/>
</g>
<!-- 129&#45;&gt;3 -->
<g id="edge25" class="edge">
<title>129&#45;&gt;3</title>
<path fill="none" stroke="green" stroke-width="0.95" d="M707.06,-81.49C680.44,-77.25 632.74,-69.9 591.75,-64.99 421.55,-44.6 375.67,-63.41 207.75,-28.99 201.81,-27.77 195.52,-26.02 189.67,-24.17"/>
<polygon fill="green" stroke="green" stroke-width="0.95" points="191.13,-20.97 180.54,-21.09 188.9,-27.6 191.13,-20.97"/>
</g>
<!-- 131&#45;&gt;2 -->
<g id="edge22" class="edge">
<title>131&#45;&gt;2</title>
<path fill="none" stroke="green" stroke-width="0.13" d="M98.75,-64.79C98.75,-56.89 98.75,-47.75 98.75,-39.5"/>
<polygon fill="green" stroke="green" stroke-width="0.13" points="102.25,-39.55 98.75,-29.55 95.25,-39.55 102.25,-39.55"/>
</g>
<!-- 131&#45;&gt;3 -->
<g id="edge24" class="edge">
<title>131&#45;&gt;3</title>
<path fill="none" stroke="green" stroke-width="0.24" stroke-dasharray="1,5" d="M112.96,-70.14C123.45,-59.29 137.76,-44.47 148.83,-33.01"/>
<polygon fill="green" stroke="green" stroke-width="0.24" points="151.21,-35.58 155.64,-25.96 146.18,-30.72 151.21,-35.58"/>
</g>
<!-- 132&#45;&gt;1 -->
<g id="edge26" class="edge">
<title>132&#45;&gt;1</title>
<path fill="none" stroke="red" stroke-width="0.23" stroke-dasharray="1,5" d="M230.75,-64.79C230.75,-56.89 230.75,-47.75 230.75,-39.5"/>
<polygon fill="red" stroke="red" stroke-width="0.23" points="234.25,-39.71 230.75,-29.71 227.25,-39.71 234.25,-39.71"/>
</g>
<!-- 132&#45;&gt;3 -->
<g id="edge36" class="edge">
<title>132&#45;&gt;3</title>
<path fill="none" stroke="red" stroke-width="0.3" stroke-dasharray="1,5" d="M216.97,-70.14C206.79,-59.29 192.91,-44.47 182.16,-33.01"/>
<polygon fill="red" stroke="red" stroke-width="0.3" points="185,-30.92 175.61,-26.02 179.9,-35.71 185,-30.92"/>
</g>
<!-- 132&#45;&gt;4 -->
<g id="edge1" class="edge">
<title>132&#45;&gt;4</title>
<path fill="none" stroke="green" stroke-width="0.76" stroke-dasharray="1,5" d="M244.53,-70.14C254.51,-59.5 268.06,-45.04 278.72,-33.67"/>
<polygon fill="green" stroke="green" stroke-width="0.76" points="281.12,-36.22 285.41,-26.53 276.01,-31.44 281.12,-36.22"/>
</g>
<!-- 265&#45;&gt;130 -->
<g id="edge43" class="edge">
<title>265&#45;&gt;130</title>
<path fill="none" stroke="red" stroke-width="0.41" d="M617.12,-147.61C607.26,-136.79 593.76,-121.98 582.56,-109.68"/>
<polygon fill="red" stroke="red" stroke-width="0.41" points="585.33,-107.53 576.01,-102.5 580.16,-112.25 585.33,-107.53"/>
</g>
<!-- 404&#45;&gt;132 -->
<g id="edge45" class="edge">
<title>404&#45;&gt;132</title>
<path fill="none" stroke="red" stroke-width="0.49" d="M347.79,-150.95C343.58,-148.18 339.04,-145.27 334.75,-142.71 309.39,-127.55 279.61,-111.75 258.43,-100.84"/>
<polygon fill="red" stroke="red" stroke-width="0.49" points="260.23,-97.82 249.73,-96.38 257.04,-104.05 260.23,-97.82"/>
</g>
</g>
</svg>
