<?xml version="1.0" encoding="UTF-8" standalone="no"?>
<!DOCTYPE svg PUBLIC "-//W3C//DTD SVG 1.1//EN"
 "http://www.w3.org/Graphics/SVG/1.1/DTD/svg11.dtd">
<!-- Generated by graphviz version 12.1.1 (20240910.0053)
 -->
<!-- Pages: 1 -->
<svg width="945pt" height="247pt"
 viewBox="0.00 0.00 945.34 246.93" xmlns="http://www.w3.org/2000/svg" xmlns:xlink="http://www.w3.org/1999/xlink">
<g id="graph0" class="graph" transform="scale(1 1) rotate(0) translate(4 242.93)">
<polygon fill="white" stroke="none" points="-4,4 -4,-242.93 941.34,-242.93 941.34,4 -4,4"/>
<!-- &#45;1 -->
<g id="node1" class="node">
<title>&#45;1</title>
<polygon fill="lightgray" stroke="black" points="167.34,-172.82 143.84,-172.82 143.84,-154.32 167.34,-154.32 167.34,-172.82"/>
<text text-anchor="middle" x="155.59" y="-160.27" font-family="Times,serif" font-size="9.00">&#45;1</text>
</g>
<!-- 96 -->
<g id="node26" class="node">
<title>96</title>
<ellipse fill="white" stroke="black" cx="155.59" cy="-85.85" rx="17.68" ry="17.68"/>
<text text-anchor="middle" x="155.59" y="-82.55" font-family="Times,serif" font-size="9.00">96</text>
</g>
<!-- &#45;1&#45;&gt;96 -->
<g id="edge33" class="edge">
<title>&#45;1&#45;&gt;96</title>
<path fill="none" stroke="green" stroke-width="0.25" d="M155.59,-153.88C155.59,-144.23 155.59,-128.14 155.59,-114.15"/>
<polygon fill="green" stroke="green" stroke-width="0.25" points="159.09,-114.37 155.59,-104.37 152.09,-114.37 159.09,-114.37"/>
</g>
<!-- 94 -->
<g id="node31" class="node">
<title>94</title>
<ellipse fill="white" stroke="black" cx="427.59" cy="-85.85" rx="17.68" ry="17.68"/>
<text text-anchor="middle" x="427.59" y="-82.55" font-family="Times,serif" font-size="9.00">94</text>
</g>
<!-- &#45;1&#45;&gt;94 -->
<g id="edge16" class="edge">
<title>&#45;1&#45;&gt;94</title>
<path fill="none" stroke="red" stroke-width="0.22" stroke-dasharray="1,5" d="M162.5,-153.97C166.24,-149.91 171.19,-145.38 176.59,-142.71 267.01,-98.09 307.59,-145.68 400.59,-106.71 402.44,-105.93 404.29,-105.01 406.09,-103.98"/>
<polygon fill="red" stroke="red" stroke-width="0.22" points="407.95,-106.95 414.35,-98.5 404.08,-101.12 407.95,-106.95"/>
</g>
<!-- &#45;2 -->
<g id="node2" class="node">
<title>&#45;2</title>
<polygon fill="lightgray" stroke="black" points="320.34,-238.93 296.84,-238.93 296.84,-220.43 320.34,-220.43 320.34,-238.93"/>
<text text-anchor="middle" x="308.59" y="-226.38" font-family="Times,serif" font-size="9.00">&#45;2</text>
</g>
<!-- &#45;2&#45;&gt;96 -->
<g id="edge9" class="edge">
<title>&#45;2&#45;&gt;96</title>
<path fill="none" stroke="red" stroke-width="0.31" stroke-dasharray="1,5" d="M296.49,-228.88C245.23,-229.46 46.87,-228.76 8.59,-184.43 -3.53,-170.39 -1.94,-157.97 8.59,-142.71 35.31,-103.98 92.68,-92.08 127.32,-88.44"/>
<polygon fill="red" stroke="red" stroke-width="0.31" points="127.58,-91.93 137.23,-87.57 126.96,-84.96 127.58,-91.93"/>
</g>
<!-- 636 -->
<g id="node29" class="node">
<title>636</title>
<ellipse fill="white" stroke="black" cx="332.59" cy="-163.57" rx="20.86" ry="20.86"/>
<text text-anchor="middle" x="332.59" y="-160.27" font-family="Times,serif" font-size="9.00">636</text>
</g>
<!-- &#45;2&#45;&gt;636 -->
<g id="edge44" class="edge">
<title>&#45;2&#45;&gt;636</title>
<path fill="none" stroke="green" stroke-width="0.27" d="M311.83,-220.03C314.44,-213.06 318.26,-202.84 321.92,-193.07"/>
<polygon fill="green" stroke="green" stroke-width="0.27" points="325.1,-194.56 325.33,-183.96 318.55,-192.1 325.1,-194.56"/>
</g>
<!-- &#45;2&#45;&gt;94 -->
<g id="edge2" class="edge">
<title>&#45;2&#45;&gt;94</title>
<path fill="none" stroke="red" stroke-width="0.17" stroke-dasharray="1,5" d="M304.78,-220.18C297.99,-203.61 285.98,-166.51 302.59,-142.71 329.15,-104.66 359.72,-128.68 400.59,-106.71 402.32,-105.78 404.06,-104.75 405.79,-103.66"/>
<polygon fill="red" stroke="red" stroke-width="0.17" points="407.63,-106.65 413.87,-98.09 403.65,-100.89 407.63,-106.65"/>
</g>
<!-- 95 -->
<g id="node32" class="node">
<title>95</title>
<ellipse fill="white" stroke="black" cx="611.59" cy="-85.85" rx="17.68" ry="17.68"/>
<text text-anchor="middle" x="611.59" y="-82.55" font-family="Times,serif" font-size="9.00">95</text>
</g>
<!-- &#45;2&#45;&gt;95 -->
<g id="edge30" class="edge">
<title>&#45;2&#45;&gt;95</title>
<path fill="none" stroke="red" stroke-width="0.72" d="M320.48,-228.19C381.34,-225.53 656.03,-212.09 680.59,-184.43 692.9,-170.57 688.57,-159.45 680.59,-142.71 671.52,-123.7 652.48,-109.07 636.69,-99.56"/>
<polygon fill="red" stroke="red" stroke-width="0.72" points="638.77,-96.72 628.34,-94.84 635.32,-102.81 638.77,-96.72"/>
</g>
<!-- &#45;3 -->
<g id="node3" class="node">
<title>&#45;3</title>
<polygon fill="lightgray" stroke="black" points="844.34,-238.93 820.84,-238.93 820.84,-220.43 844.34,-220.43 844.34,-238.93"/>
<text text-anchor="middle" x="832.59" y="-226.38" font-family="Times,serif" font-size="9.00">&#45;3</text>
</g>
<!-- &#45;4 -->
<g id="node4" class="node">
<title>&#45;4</title>
<polygon fill="lightgray" stroke="black" points="937.34,-172.82 913.84,-172.82 913.84,-154.32 937.34,-154.32 937.34,-172.82"/>
<text text-anchor="middle" x="925.59" y="-160.27" font-family="Times,serif" font-size="9.00">&#45;4</text>
</g>
<!-- 3 -->
<g id="node24" class="node">
<title>3</title>
<ellipse fill="lightblue" stroke="black" cx="807.59" cy="-14.5" rx="14.5" ry="14.5"/>
<text text-anchor="middle" x="807.59" y="-11.2" font-family="Times,serif" font-size="9.00">3</text>
</g>
<!-- &#45;4&#45;&gt;3 -->
<g id="edge43" class="edge">
<title>&#45;4&#45;&gt;3</title>
<path fill="none" stroke="red" stroke-width="0.47" d="M918.91,-154.24C900.55,-131.36 848.97,-67.07 822.98,-34.67"/>
<polygon fill="red" stroke="red" stroke-width="0.47" points="825.81,-32.61 816.82,-27 820.35,-36.99 825.81,-32.61"/>
</g>
<!-- 93 -->
<g id="node30" class="node">
<title>93</title>
<ellipse fill="white" stroke="black" cx="790.59" cy="-85.85" rx="17.68" ry="17.68"/>
<text text-anchor="middle" x="790.59" y="-82.55" font-family="Times,serif" font-size="9.00">93</text>
</g>
<!-- &#45;4&#45;&gt;93 -->
<g id="edge6" class="edge">
<title>&#45;4&#45;&gt;93</title>
<path fill="none" stroke="green" stroke-width="0.33" d="M915.27,-154.01C910.62,-150.33 904.97,-146.11 899.59,-142.71 872.15,-125.39 838.68,-108.87 816.13,-98.35"/>
<polygon fill="green" stroke="green" stroke-width="0.33" points="817.6,-95.17 807.06,-94.17 814.67,-101.53 817.6,-95.17"/>
</g>
<!-- &#45;5 -->
<g id="node5" class="node">
<title>&#45;5</title>
<polygon fill="lightgray" stroke="black" points="41.34,-172.82 17.84,-172.82 17.84,-154.32 41.34,-154.32 41.34,-172.82"/>
<text text-anchor="middle" x="29.59" y="-160.27" font-family="Times,serif" font-size="9.00">&#45;5</text>
</g>
<!-- &#45;5&#45;&gt;96 -->
<g id="edge21" class="edge">
<title>&#45;5&#45;&gt;96</title>
<path fill="none" stroke="red" stroke-width="0.71" stroke-dasharray="1,5" d="M40.22,-153.91C44.83,-150.29 50.37,-146.14 55.59,-142.71 80.19,-126.56 109.77,-110.41 130.35,-99.67"/>
<polygon fill="red" stroke="red" stroke-width="0.71" points="131.72,-102.9 138.99,-95.2 128.5,-96.68 131.72,-102.9"/>
</g>
<!-- &#45;6 -->
<g id="node6" class="node">
<title>&#45;6</title>
<polygon fill="lightgray" stroke="black" points="255.34,-172.82 231.84,-172.82 231.84,-154.32 255.34,-154.32 255.34,-172.82"/>
<text text-anchor="middle" x="243.59" y="-160.27" font-family="Times,serif" font-size="9.00">&#45;6</text>
</g>
<!-- &#45;6&#45;&gt;96 -->
<g id="edge38" class="edge">
<title>&#45;6&#45;&gt;96</title>
<path fill="none" stroke="green" stroke-width="0.14" stroke-dasharray="1,5" d="M234.71,-153.94C231.01,-150.41 226.64,-146.31 222.59,-142.71 207.59,-129.39 190.17,-114.89 176.85,-104.01"/>
<polygon fill="green" stroke="green" stroke-width="0.14" points="179.27,-101.46 169.31,-97.87 174.85,-106.89 179.27,-101.46"/>
</g>
<!-- &#45;6&#45;&gt;94 -->
<g id="edge12" class="edge">
<title>&#45;6&#45;&gt;94</title>
<path fill="none" stroke="red" stroke-width="0.64" stroke-dasharray="1,5" d="M253.12,-153.87C257.8,-149.99 263.69,-145.64 269.59,-142.71 323.69,-115.89 346.25,-133.04 400.59,-106.71 402.25,-105.91 403.91,-105 405.54,-104.03"/>
<polygon fill="red" stroke="red" stroke-width="0.64" points="407.35,-107.03 413.67,-98.53 403.43,-101.23 407.35,-107.03"/>
</g>
<!-- &#45;6&#45;&gt;95 -->
<g id="edge20" class="edge">
<title>&#45;6&#45;&gt;95</title>
<path fill="none" stroke="green" stroke-width="0.15" d="M255.64,-157.94C267.45,-153.53 286.05,-146.96 302.59,-142.71 405.05,-116.36 529.74,-97.86 584.07,-90.45"/>
<polygon fill="green" stroke="green" stroke-width="0.15" points="584.3,-93.95 593.75,-89.15 583.37,-87.01 584.3,-93.95"/>
</g>
<!-- &#45;7 -->
<g id="node7" class="node">
<title>&#45;7</title>
<polygon fill="lightgray" stroke="black" points="751.34,-172.82 727.84,-172.82 727.84,-154.32 751.34,-154.32 751.34,-172.82"/>
<text text-anchor="middle" x="739.59" y="-160.27" font-family="Times,serif" font-size="9.00">&#45;7</text>
</g>
<!-- &#45;7&#45;&gt;93 -->
<g id="edge46" class="edge">
<title>&#45;7&#45;&gt;93</title>
<path fill="none" stroke="red" stroke-width="0.33" stroke-dasharray="1,5" d="M745.44,-153.88C752.63,-143.2 765.12,-124.66 775.14,-109.79"/>
<polygon fill="red" stroke="red" stroke-width="0.33" points="778.03,-111.76 780.72,-101.51 772.23,-107.85 778.03,-111.76"/>
</g>
<!-- &#45;7&#45;&gt;94 -->
<g id="edge15" class="edge">
<title>&#45;7&#45;&gt;94</title>
<path fill="none" stroke="red" stroke-width="0.25" stroke-dasharray="1,5" d="M727.51,-158.08C715.66,-153.78 697.04,-147.28 680.59,-142.71 599.57,-120.2 501.97,-100.78 455.21,-91.94"/>
<polygon fill="red" stroke="red" stroke-width="0.25" points="456.09,-88.54 445.61,-90.14 454.8,-95.42 456.09,-88.54"/>
</g>
<!-- &#45;8 -->
<g id="node8" class="node">
<title>&#45;8</title>
<polygon fill="lightgray" stroke="black" points="802.34,-238.93 778.84,-238.93 778.84,-220.43 802.34,-220.43 802.34,-238.93"/>
<text text-anchor="middle" x="790.59" y="-226.38" font-family="Times,serif" font-size="9.00">&#45;8</text>
</g>
<!-- &#45;8&#45;&gt;96 -->
<g id="edge17" class="edge">
<title>&#45;8&#45;&gt;96</title>
<path fill="none" stroke="green" stroke-width="0.14" d="M778.57,-228.39C687.82,-226.11 113.22,-210.66 88.59,-184.43 75.9,-170.91 80.73,-159.5 88.59,-142.71 97.4,-123.91 115.98,-109.22 131.35,-99.64"/>
<polygon fill="green" stroke="green" stroke-width="0.14" points="132.9,-102.79 139.75,-94.7 129.36,-96.75 132.9,-102.79"/>
</g>
<!-- 359 -->
<g id="node27" class="node">
<title>359</title>
<ellipse fill="white" stroke="black" cx="790.59" cy="-163.57" rx="20.86" ry="20.86"/>
<text text-anchor="middle" x="790.59" y="-160.27" font-family="Times,serif" font-size="9.00">359</text>
</g>
<!-- &#45;8&#45;&gt;359 -->
<g id="edge40" class="edge">
<title>&#45;8&#45;&gt;359</title>
<path fill="none" stroke="red" stroke-width="0.22" d="M790.59,-220.03C790.59,-213.53 790.59,-204.19 790.59,-195.03"/>
<polygon fill="red" stroke="red" stroke-width="0.22" points="794.09,-195.26 790.59,-185.26 787.09,-195.26 794.09,-195.26"/>
</g>
<!-- &#45;8&#45;&gt;93 -->
<g id="edge28" class="edge">
<title>&#45;8&#45;&gt;93</title>
<path fill="none" stroke="red" stroke-width="0.2" stroke-dasharray="1,5" d="M802.63,-223.47C822.2,-214.71 859.48,-196.81 866.59,-184.43 875.83,-168.36 874.96,-159.25 866.59,-142.71 856.01,-121.81 833.52,-106.82 815.74,-97.67"/>
<polygon fill="red" stroke="red" stroke-width="0.2" points="817.76,-94.76 807.23,-93.55 814.71,-101.06 817.76,-94.76"/>
</g>
<!-- &#45;9 -->
<g id="node9" class="node">
<title>&#45;9</title>
<polygon fill="lightgray" stroke="black" points="395.34,-172.82 371.84,-172.82 371.84,-154.32 395.34,-154.32 395.34,-172.82"/>
<text text-anchor="middle" x="383.59" y="-160.27" font-family="Times,serif" font-size="9.00">&#45;9</text>
</g>
<!-- &#45;9&#45;&gt;96 -->
<g id="edge22" class="edge">
<title>&#45;9&#45;&gt;96</title>
<path fill="none" stroke="green" stroke-width="0.22" d="M376.56,-154.2C372.79,-150.2 367.84,-145.65 362.59,-142.71 303.86,-109.82 224.81,-95.52 183.46,-89.96"/>
<polygon fill="green" stroke="green" stroke-width="0.22" points="184.01,-86.51 173.65,-88.72 183.13,-93.45 184.01,-86.51"/>
</g>
<!-- &#45;9&#45;&gt;93 -->
<g id="edge27" class="edge">
<title>&#45;9&#45;&gt;93</title>
<path fill="none" stroke="green" stroke-width="0.46" d="M390.48,-153.93C394.22,-149.86 399.17,-145.33 404.59,-142.71 412.71,-138.78 674.92,-102.67 762.46,-90.69"/>
<polygon fill="green" stroke="green" stroke-width="0.46" points="762.8,-94.18 772.23,-89.35 761.85,-87.24 762.8,-94.18"/>
</g>
<!-- &#45;9&#45;&gt;94 -->
<g id="edge13" class="edge">
<title>&#45;9&#45;&gt;94</title>
<path fill="none" stroke="red" stroke-width="0.25" d="M388.64,-153.88C394.77,-143.33 405.36,-125.11 413.95,-110.33"/>
<polygon fill="red" stroke="red" stroke-width="0.25" points="416.8,-112.39 418.8,-101.99 410.75,-108.87 416.8,-112.39"/>
</g>
<!-- &#45;10 -->
<g id="node10" class="node">
<title>&#45;10</title>
<polygon fill="lightgray" stroke="black" points="533.59,-172.82 505.59,-172.82 505.59,-154.32 533.59,-154.32 533.59,-172.82"/>
<text text-anchor="middle" x="519.59" y="-160.27" font-family="Times,serif" font-size="9.00">&#45;10</text>
</g>
<!-- &#45;10&#45;&gt;94 -->
<g id="edge37" class="edge">
<title>&#45;10&#45;&gt;94</title>
<path fill="none" stroke="green" stroke-width="0.17" d="M509.8,-154C505.74,-150.47 500.96,-146.37 496.59,-142.71 480.83,-129.53 462.77,-114.93 449.08,-103.96"/>
<polygon fill="green" stroke="green" stroke-width="0.17" points="451.38,-101.31 441.38,-97.8 447,-106.78 451.38,-101.31"/>
</g>
<!-- &#45;11 -->
<g id="node11" class="node">
<title>&#45;11</title>
<polygon fill="lightgray" stroke="black" points="213.59,-172.82 185.59,-172.82 185.59,-154.32 213.59,-154.32 213.59,-172.82"/>
<text text-anchor="middle" x="199.59" y="-160.27" font-family="Times,serif" font-size="9.00">&#45;11</text>
</g>
<!-- &#45;11&#45;&gt;96 -->
<g id="edge8" class="edge">
<title>&#45;11&#45;&gt;96</title>
<path fill="none" stroke="red" stroke-width="0.21" stroke-dasharray="1,5" d="M194.54,-153.88C188.41,-143.33 177.82,-125.11 169.23,-110.33"/>
<polygon fill="red" stroke="red" stroke-width="0.21" points="172.41,-108.82 164.36,-101.93 166.35,-112.34 172.41,-108.82"/>
</g>
<!-- &#45;11&#45;&gt;94 -->
<g id="edge14" class="edge">
<title>&#45;11&#45;&gt;94</title>
<path fill="none" stroke="red" stroke-width="0.74" d="M207.36,-154.07C211.5,-150.04 216.91,-145.5 222.59,-142.71 295.06,-107.17 326.79,-139.39 400.59,-106.71 402.27,-105.97 403.95,-105.1 405.6,-104.16"/>
<polygon fill="red" stroke="red" stroke-width="0.74" points="407.25,-107.27 413.64,-98.81 403.37,-101.44 407.25,-107.27"/>
</g>
<!-- &#45;12 -->
<g id="node12" class="node">
<title>&#45;12</title>
<polygon fill="lightgray" stroke="black" points="671.59,-172.82 643.59,-172.82 643.59,-154.32 671.59,-154.32 671.59,-172.82"/>
<text text-anchor="middle" x="657.59" y="-160.27" font-family="Times,serif" font-size="9.00">&#45;12</text>
</g>
<!-- &#45;12&#45;&gt;94 -->
<g id="edge23" class="edge">
<title>&#45;12&#45;&gt;94</title>
<path fill="none" stroke="green" stroke-width="0.75" d="M649.33,-153.82C645.23,-149.93 640,-145.58 634.59,-142.71 575.66,-111.44 497.78,-96.57 456.37,-90.47"/>
<polygon fill="green" stroke="green" stroke-width="0.75" points="456.98,-87.02 446.59,-89.1 456.01,-93.95 456.98,-87.02"/>
</g>
<!-- &#45;12&#45;&gt;95 -->
<g id="edge18" class="edge">
<title>&#45;12&#45;&gt;95</title>
<path fill="none" stroke="green" stroke-width="0.13" stroke-dasharray="1,5" d="M652.31,-153.88C645.87,-143.27 634.7,-124.89 625.69,-110.06"/>
<polygon fill="green" stroke="green" stroke-width="0.13" points="628.7,-108.27 620.52,-101.54 622.72,-111.91 628.7,-108.27"/>
</g>
<!-- &#45;13 -->
<g id="node13" class="node">
<title>&#45;13</title>
<polygon fill="lightgray" stroke="black" points="890.59,-238.93 862.59,-238.93 862.59,-220.43 890.59,-220.43 890.59,-238.93"/>
<text text-anchor="middle" x="876.59" y="-226.38" font-family="Times,serif" font-size="9.00">&#45;13</text>
</g>
<!-- &#45;14 -->
<g id="node14" class="node">
<title>&#45;14</title>
<polygon fill="lightgray" stroke="black" points="125.59,-172.82 97.59,-172.82 97.59,-154.32 125.59,-154.32 125.59,-172.82"/>
<text text-anchor="middle" x="111.59" y="-160.27" font-family="Times,serif" font-size="9.00">&#45;14</text>
</g>
<!-- &#45;14&#45;&gt;96 -->
<g id="edge26" class="edge">
<title>&#45;14&#45;&gt;96</title>
<path fill="none" stroke="green" stroke-width="0.12" stroke-dasharray="1,5" d="M116.64,-153.88C122.77,-143.33 133.36,-125.11 141.95,-110.33"/>
<polygon fill="green" stroke="green" stroke-width="0.12" points="144.9,-112.22 146.89,-101.82 138.84,-108.71 144.9,-112.22"/>
</g>
<!-- &#45;14&#45;&gt;94 -->
<g id="edge5" class="edge">
<title>&#45;14&#45;&gt;94</title>
<path fill="none" stroke="green" stroke-width="0.15" stroke-dasharray="1,5" d="M119.28,-153.91C123.4,-149.84 128.82,-145.31 134.59,-142.71 243.36,-93.7 290,-151.44 400.59,-106.71 402.61,-105.9 404.61,-104.89 406.56,-103.78"/>
<polygon fill="green" stroke="green" stroke-width="0.15" points="408.08,-106.97 414.46,-98.52 404.2,-101.15 408.08,-106.97"/>
</g>
<!-- &#45;15 -->
<g id="node15" class="node">
<title>&#45;15</title>
<polygon fill="lightgray" stroke="black" points="936.59,-238.93 908.59,-238.93 908.59,-220.43 936.59,-220.43 936.59,-238.93"/>
<text text-anchor="middle" x="922.59" y="-226.38" font-family="Times,serif" font-size="9.00">&#45;15</text>
</g>
<!-- &#45;16 -->
<g id="node16" class="node">
<title>&#45;16</title>
<polygon fill="lightgray" stroke="black" points="441.59,-172.82 413.59,-172.82 413.59,-154.32 441.59,-154.32 441.59,-172.82"/>
<text text-anchor="middle" x="427.59" y="-160.27" font-family="Times,serif" font-size="9.00">&#45;16</text>
</g>
<!-- &#45;16&#45;&gt;94 -->
<g id="edge39" class="edge">
<title>&#45;16&#45;&gt;94</title>
<path fill="none" stroke="green" stroke-width="0.23" d="M427.59,-153.88C427.59,-144.23 427.59,-128.14 427.59,-114.15"/>
<polygon fill="green" stroke="green" stroke-width="0.23" points="431.09,-114.35 427.59,-104.35 424.09,-114.35 431.09,-114.35"/>
</g>
<!-- &#45;17 -->
<g id="node17" class="node">
<title>&#45;17</title>
<polygon fill="lightgray" stroke="black" points="579.59,-172.82 551.59,-172.82 551.59,-154.32 579.59,-154.32 579.59,-172.82"/>
<text text-anchor="middle" x="565.59" y="-160.27" font-family="Times,serif" font-size="9.00">&#45;17</text>
</g>
<!-- &#45;17&#45;&gt;94 -->
<g id="edge34" class="edge">
<title>&#45;17&#45;&gt;94</title>
<path fill="none" stroke="green" stroke-width="0.11" d="M556.63,-153.87C552.55,-150.17 547.53,-145.96 542.59,-142.71 513.59,-123.62 477.08,-107 453.08,-96.96"/>
<polygon fill="green" stroke="green" stroke-width="0.11" points="454.66,-93.83 444.08,-93.26 452,-100.3 454.66,-93.83"/>
</g>
<!-- &#45;17&#45;&gt;95 -->
<g id="edge4" class="edge">
<title>&#45;17&#45;&gt;95</title>
<path fill="none" stroke="red" stroke-width="0.25" stroke-dasharray="1,5" d="M570.87,-153.88C577.32,-143.27 588.48,-124.89 597.49,-110.06"/>
<polygon fill="red" stroke="red" stroke-width="0.25" points="600.37,-112.06 602.57,-101.7 594.39,-108.43 600.37,-112.06"/>
</g>
<!-- &#45;18 -->
<g id="node18" class="node">
<title>&#45;18</title>
<polygon fill="lightgray" stroke="black" points="625.59,-172.82 597.59,-172.82 597.59,-154.32 625.59,-154.32 625.59,-172.82"/>
<text text-anchor="middle" x="611.59" y="-160.27" font-family="Times,serif" font-size="9.00">&#45;18</text>
</g>
<!-- &#45;18&#45;&gt;94 -->
<g id="edge1" class="edge">
<title>&#45;18&#45;&gt;94</title>
<path fill="none" stroke="green" stroke-width="0.28" d="M603.24,-153.99C599.11,-150.13 593.89,-145.77 588.59,-142.71 544.88,-117.5 487.96,-101.09 454.82,-92.94"/>
<polygon fill="green" stroke="green" stroke-width="0.28" points="455.91,-89.6 445.37,-90.69 454.28,-96.41 455.91,-89.6"/>
</g>
<!-- &#45;18&#45;&gt;95 -->
<g id="edge24" class="edge">
<title>&#45;18&#45;&gt;95</title>
<path fill="none" stroke="red" stroke-width="0.14" stroke-dasharray="1,5" d="M611.59,-153.88C611.59,-144.23 611.59,-128.14 611.59,-114.15"/>
<polygon fill="red" stroke="red" stroke-width="0.14" points="615.09,-114.2 611.59,-104.2 608.09,-114.2 615.09,-114.2"/>
</g>
<!-- &#45;19 -->
<g id="node19" class="node">
<title>&#45;19</title>
<polygon fill="lightgray" stroke="black" points="487.59,-172.82 459.59,-172.82 459.59,-154.32 487.59,-154.32 487.59,-172.82"/>
<text text-anchor="middle" x="473.59" y="-160.27" font-family="Times,serif" font-size="9.00">&#45;19</text>
</g>
<!-- &#45;19&#45;&gt;94 -->
<g id="edge31" class="edge">
<title>&#45;19&#45;&gt;94</title>
<path fill="none" stroke="green" stroke-width="0.44" stroke-dasharray="1,5" d="M468.31,-153.88C461.93,-143.37 450.91,-125.23 441.94,-110.48"/>
<polygon fill="green" stroke="green" stroke-width="0.44" points="444.94,-108.67 436.76,-101.94 438.96,-112.31 444.94,-108.67"/>
</g>
<!-- &#45;20 -->
<g id="node20" class="node">
<title>&#45;20</title>
<polygon fill="lightgray" stroke="black" points="857.59,-172.82 829.59,-172.82 829.59,-154.32 857.59,-154.32 857.59,-172.82"/>
<text text-anchor="middle" x="843.59" y="-160.27" font-family="Times,serif" font-size="9.00">&#45;20</text>
</g>
<!-- &#45;20&#45;&gt;93 -->
<g id="edge32" class="edge">
<title>&#45;20&#45;&gt;93</title>
<path fill="none" stroke="green" stroke-width="0.2" d="M837.51,-153.88C829.92,-143.04 816.66,-124.09 806.16,-109.1"/>
<polygon fill="green" stroke="green" stroke-width="0.2" points="809.15,-107.26 800.54,-101.07 803.41,-111.27 809.15,-107.26"/>
</g>
<!-- 0 -->
<g id="node21" class="node">
<title>0</title>
<ellipse fill="lightblue" stroke="black" cx="611.59" cy="-14.5" rx="14.5" ry="14.5"/>
<text text-anchor="middle" x="611.59" y="-11.2" font-family="Times,serif" font-size="9.00">0</text>
</g>
<!-- 1 -->
<g id="node22" class="node">
<title>1</title>
<ellipse fill="lightblue" stroke="black" cx="427.59" cy="-14.5" rx="14.5" ry="14.5"/>
<text text-anchor="middle" x="427.59" y="-11.2" font-family="Times,serif" font-size="9.00">1</text>
</g>
<!-- 2 -->
<g id="node23" class="node">
<title>2</title>
<ellipse fill="lightblue" stroke="black" cx="268.59" cy="-14.5" rx="14.5" ry="14.5"/>
<text text-anchor="middle" x="268.59" y="-11.2" font-family="Times,serif" font-size="9.00">2</text>
</g>
<!-- 4 -->
<g id="node25" class="node">
<title>4</title>
<ellipse fill="lightblue" stroke="black" cx="714.59" cy="-14.5" rx="14.5" ry="14.5"/>
<text text-anchor="middle" x="714.59" y="-11.2" font-family="Times,serif" font-size="9.00">4</text>
</g>
<!-- 4&#45;&gt;4 -->
<g id="edge10" class="edge">
<title>4&#45;&gt;4</title>
<path fill="none" stroke="green" stroke-width="0.52" stroke-dasharray="1,5" d="M724.91,-24.94C735.4,-31.08 747.09,-27.6 747.09,-14.5 747.09,-5.69 741.81,-1.23 735.17,-1.12"/>
<polygon fill="green" stroke="green" stroke-width="0.52" points="734.31,2.28 725.66,-3.84 736.24,-4.45 734.31,2.28"/>
</g>
<!-- 96&#45;&gt;2 -->
<g id="edge36" class="edge">
<title>96&#45;&gt;2</title>
<path fill="none" stroke="green" stroke-width="0.43" d="M170.36,-75.78C190.06,-63.69 225.05,-42.22 247.51,-28.43"/>
<polygon fill="green" stroke="green" stroke-width="0.43" points="249.32,-31.43 256.01,-23.22 245.66,-25.46 249.32,-31.43"/>
</g>
<!-- 359&#45;&gt;93 -->
<g id="edge41" class="edge">
<title>359&#45;&gt;93</title>
<path fill="none" stroke="green" stroke-width="0.27" stroke-dasharray="1,5" d="M790.59,-142.28C790.59,-133.59 790.59,-123.31 790.59,-113.98"/>
<polygon fill="green" stroke="green" stroke-width="0.27" points="794.09,-114.03 790.59,-104.03 787.09,-114.03 794.09,-114.03"/>
</g>
<!-- 410 -->
<g id="node28" class="node">
<title>410</title>
<ellipse fill="white" stroke="black" cx="370.59" cy="-85.85" rx="20.86" ry="20.86"/>
<text text-anchor="middle" x="370.59" y="-82.55" font-family="Times,serif" font-size="9.00">410</text>
</g>
<!-- 410&#45;&gt;1 -->
<g id="edge42" class="edge">
<title>410&#45;&gt;1</title>
<path fill="none" stroke="red" stroke-width="0.26" stroke-dasharray="1,5" d="M383.53,-69.11C392.11,-58.67 403.41,-44.91 412.42,-33.95"/>
<polygon fill="red" stroke="red" stroke-width="0.26" points="414.89,-36.47 418.53,-26.52 409.48,-32.02 414.89,-36.47"/>
</g>
<!-- 636&#45;&gt;94 -->
<g id="edge45" class="edge">
<title>636&#45;&gt;94</title>
<path fill="none" stroke="red" stroke-width="0.2" d="M348.71,-149.73C364.54,-137.11 388.79,-117.78 406.22,-103.88"/>
<polygon fill="red" stroke="red" stroke-width="0.2" points="408.29,-106.71 413.92,-97.74 403.92,-101.24 408.29,-106.71"/>
</g>
<!-- 93&#45;&gt;4 -->
<g id="edge29" class="edge">
<title>93&#45;&gt;4</title>
<path fill="none" stroke="green" stroke-width="0.4" stroke-dasharray="1,5" d="M777.7,-73.09C765.24,-61.71 746.26,-44.39 732.36,-31.71"/>
<polygon fill="green" stroke="green" stroke-width="0.4" points="735.05,-29.43 725.3,-25.27 730.33,-34.6 735.05,-29.43"/>
</g>
<!-- 94&#45;&gt;1 -->
<g id="edge25" class="edge">
<title>94&#45;&gt;1</title>
<path fill="none" stroke="red" stroke-width="0.17" stroke-dasharray="1,5" d="M427.59,-67.71C427.59,-59.17 427.59,-48.72 427.59,-39.41"/>
<polygon fill="red" stroke="red" stroke-width="0.17" points="431.09,-39.45 427.59,-29.45 424.09,-39.45 431.09,-39.45"/>
</g>
<!-- 95&#45;&gt;0 -->
<g id="edge19" class="edge">
<title>95&#45;&gt;0</title>
<path fill="none" stroke="red" stroke-width="0.67" d="M611.59,-67.71C611.59,-59.36 611.59,-49.17 611.59,-40.02"/>
<polygon fill="red" stroke="red" stroke-width="0.67" points="615.09,-40.21 611.59,-30.21 608.09,-40.21 615.09,-40.21"/>
</g>
<!-- 95&#45;&gt;1 -->
<g id="edge35" class="edge">
<title>95&#45;&gt;1</title>
<path fill="none" stroke="red" stroke-width="0.7" stroke-dasharray="1,5" d="M594.94,-78.57C562.09,-66.19 488.86,-38.59 451.1,-24.36"/>
<polygon fill="red" stroke="red" stroke-width="0.7" points="452.62,-21.19 442.03,-20.94 450.15,-27.74 452.62,-21.19"/>
</g>
<!-- 95&#45;&gt;2 -->
<g id="edge7" class="edge">
<title>95&#45;&gt;2</title>
<path fill="none" stroke="red" stroke-width="0.51" d="M594.11,-81.32C537.46,-69.86 358.79,-33.73 293.12,-20.46"/>
<polygon fill="red" stroke="red" stroke-width="0.51" points="294.16,-17.09 283.66,-18.54 292.77,-23.96 294.16,-17.09"/>
</g>
<!-- 95&#45;&gt;3 -->
<g id="edge3" class="edge">
<title>95&#45;&gt;3</title>
<path fill="none" stroke="green" stroke-width="0.21" d="M628.3,-78.94C663.23,-66.58 744.04,-37.99 784.14,-23.79"/>
<polygon fill="green" stroke="green" stroke-width="0.21" points="785.3,-27.1 793.56,-20.46 782.96,-20.5 785.3,-27.1"/>
</g>
<!-- 95&#45;&gt;4 -->
<g id="edge11" class="edge">
<title>95&#45;&gt;4</title>
<path fill="none" stroke="green" stroke-width="0.47" d="M625.91,-75.21C643.66,-63.25 674.03,-42.8 694.21,-29.22"/>
<polygon fill="green" stroke="green" stroke-width="0.47" points="696.01,-32.23 702.35,-23.74 692.1,-26.42 696.01,-32.23"/>
</g>
</g>
</svg>
