<?xml version="1.0" encoding="UTF-8" standalone="no"?>
<!DOCTYPE svg PUBLIC "-//W3C//DTD SVG 1.1//EN"
 "http://www.w3.org/Graphics/SVG/1.1/DTD/svg11.dtd">
<!-- Generated by graphviz version 12.1.1 (20240910.0053)
 -->
<!-- Pages: 1 -->
<svg width="820pt" height="257pt"
 viewBox="0.00 0.00 819.93 257.42" xmlns="http://www.w3.org/2000/svg" xmlns:xlink="http://www.w3.org/1999/xlink">
<g id="graph0" class="graph" transform="scale(1 1) rotate(0) translate(4 253.42)">
<polygon fill="white" stroke="none" points="-4,4 -4,-253.42 815.93,-253.42 815.93,4 -4,4"/>
<!-- &#45;1 -->
<g id="node1" class="node">
<title>&#45;1</title>
<polygon fill="lightgray" stroke="black" points="115.19,-244.18 91.69,-244.18 91.69,-225.68 115.19,-225.68 115.19,-244.18"/>
<text text-anchor="middle" x="103.44" y="-231.63" font-family="Times,serif" font-size="9.00">&#45;1</text>
</g>
<!-- &#45;2 -->
<g id="node2" class="node">
<title>&#45;2</title>
<polygon fill="lightgray" stroke="black" points="326.19,-172.82 302.69,-172.82 302.69,-154.32 326.19,-154.32 326.19,-172.82"/>
<text text-anchor="middle" x="314.44" y="-160.27" font-family="Times,serif" font-size="9.00">&#45;2</text>
</g>
<!-- 170 -->
<g id="node27" class="node">
<title>170</title>
<ellipse fill="white" stroke="black" cx="374.44" cy="-85.85" rx="20.86" ry="20.86"/>
<text text-anchor="middle" x="374.44" y="-82.55" font-family="Times,serif" font-size="9.00">170</text>
</g>
<!-- &#45;2&#45;&gt;170 -->
<g id="edge31" class="edge">
<title>&#45;2&#45;&gt;170</title>
<path fill="none" stroke="red" stroke-width="0.36" d="M321.32,-153.88C329.55,-143.49 343.68,-125.66 355.3,-111"/>
<polygon fill="red" stroke="red" stroke-width="0.36" points="357.98,-113.26 361.45,-103.24 352.49,-108.91 357.98,-113.26"/>
</g>
<!-- 171 -->
<g id="node28" class="node">
<title>171</title>
<ellipse fill="white" stroke="black" cx="234.44" cy="-85.85" rx="20.86" ry="20.86"/>
<text text-anchor="middle" x="234.44" y="-82.55" font-family="Times,serif" font-size="9.00">171</text>
</g>
<!-- &#45;2&#45;&gt;171 -->
<g id="edge12" class="edge">
<title>&#45;2&#45;&gt;171</title>
<path fill="none" stroke="red" stroke-width="0.18" stroke-dasharray="1,5" d="M305.26,-153.88C293.48,-142.73 272.65,-123.02 256.62,-107.85"/>
<polygon fill="red" stroke="red" stroke-width="0.18" points="259.07,-105.34 249.4,-101.01 254.25,-110.43 259.07,-105.34"/>
</g>
<!-- &#45;3 -->
<g id="node3" class="node">
<title>&#45;3</title>
<polygon fill="lightgray" stroke="black" points="489.19,-244.18 465.69,-244.18 465.69,-225.68 489.19,-225.68 489.19,-244.18"/>
<text text-anchor="middle" x="477.44" y="-231.63" font-family="Times,serif" font-size="9.00">&#45;3</text>
</g>
<!-- 169 -->
<g id="node26" class="node">
<title>169</title>
<ellipse fill="white" stroke="black" cx="563.44" cy="-163.57" rx="20.86" ry="20.86"/>
<text text-anchor="middle" x="563.44" y="-160.27" font-family="Times,serif" font-size="9.00">169</text>
</g>
<!-- &#45;3&#45;&gt;169 -->
<g id="edge13" class="edge">
<title>&#45;3&#45;&gt;169</title>
<path fill="none" stroke="green" stroke-width="0.16" d="M487.98,-225.42C500.78,-215.1 522.75,-197.39 539.69,-183.72"/>
<polygon fill="green" stroke="green" stroke-width="0.16" points="541.76,-186.55 547.34,-177.55 537.36,-181.1 541.76,-186.55"/>
</g>
<!-- &#45;3&#45;&gt;170 -->
<g id="edge3" class="edge">
<title>&#45;3&#45;&gt;170</title>
<path fill="none" stroke="red" stroke-width="0.12" stroke-dasharray="1,5" d="M474.75,-225.27C469.21,-208.33 455.38,-170.03 435.44,-142.71 425.16,-128.63 410.91,-115.34 398.77,-105.26"/>
<polygon fill="red" stroke="red" stroke-width="0.12" points="401.28,-102.78 391.29,-99.23 396.88,-108.23 401.28,-102.78"/>
</g>
<!-- &#45;3&#45;&gt;171 -->
<g id="edge5" class="edge">
<title>&#45;3&#45;&gt;171</title>
<path fill="none" stroke="green" stroke-width="0.57" stroke-dasharray="1,5" d="M465.93,-225.24C462.97,-223.38 459.69,-221.62 456.44,-220.43 397.5,-198.95 217.87,-231.53 176.44,-184.43 154.9,-159.94 185.44,-126.34 209.74,-105.64"/>
<polygon fill="green" stroke="green" stroke-width="0.57" points="211.79,-108.48 217.31,-99.43 207.35,-103.06 211.79,-108.48"/>
</g>
<!-- 172 -->
<g id="node29" class="node">
<title>172</title>
<ellipse fill="white" stroke="black" cx="675.44" cy="-85.85" rx="20.86" ry="20.86"/>
<text text-anchor="middle" x="675.44" y="-82.55" font-family="Times,serif" font-size="9.00">172</text>
</g>
<!-- &#45;3&#45;&gt;172 -->
<g id="edge32" class="edge">
<title>&#45;3&#45;&gt;172</title>
<path fill="none" stroke="red" stroke-width="0.22" d="M489.01,-225.41C491.97,-223.54 495.22,-221.73 498.44,-220.43 573.65,-189.97 626.02,-247.21 677.44,-184.43 692.94,-165.5 690.32,-136.89 685.09,-115.53"/>
<polygon fill="red" stroke="red" stroke-width="0.22" points="688.5,-114.73 682.46,-106.02 681.75,-116.59 688.5,-114.73"/>
</g>
<!-- &#45;4 -->
<g id="node4" class="node">
<title>&#45;4</title>
<polygon fill="lightgray" stroke="black" points="406.19,-172.82 382.69,-172.82 382.69,-154.32 406.19,-154.32 406.19,-172.82"/>
<text text-anchor="middle" x="394.44" y="-160.27" font-family="Times,serif" font-size="9.00">&#45;4</text>
</g>
<!-- &#45;4&#45;&gt;170 -->
<g id="edge19" class="edge">
<title>&#45;4&#45;&gt;170</title>
<path fill="none" stroke="red" stroke-width="0.14" d="M392.14,-153.88C389.7,-144.63 385.7,-129.48 382.12,-115.92"/>
<polygon fill="red" stroke="red" stroke-width="0.14" points="385.6,-115.41 379.66,-106.64 378.83,-117.2 385.6,-115.41"/>
</g>
<!-- &#45;4&#45;&gt;171 -->
<g id="edge22" class="edge">
<title>&#45;4&#45;&gt;171</title>
<path fill="none" stroke="green" stroke-width="0.35" d="M382.41,-156.88C357.1,-144.9 297.76,-116.82 262.39,-100.08"/>
<polygon fill="green" stroke="green" stroke-width="0.35" points="264.11,-97.02 253.58,-95.91 261.12,-103.35 264.11,-97.02"/>
</g>
<!-- &#45;4&#45;&gt;172 -->
<g id="edge28" class="edge">
<title>&#45;4&#45;&gt;172</title>
<path fill="none" stroke="red" stroke-width="0.33" stroke-dasharray="1,5" d="M406.51,-159.32C447.82,-148.19 584.32,-111.4 645.42,-94.94"/>
<polygon fill="red" stroke="red" stroke-width="0.33" points="646,-98.41 654.74,-92.43 644.18,-91.65 646,-98.41"/>
</g>
<!-- &#45;5 -->
<g id="node5" class="node">
<title>&#45;5</title>
<polygon fill="lightgray" stroke="black" points="748.19,-172.82 724.69,-172.82 724.69,-154.32 748.19,-154.32 748.19,-172.82"/>
<text text-anchor="middle" x="736.44" y="-160.27" font-family="Times,serif" font-size="9.00">&#45;5</text>
</g>
<!-- &#45;5&#45;&gt;172 -->
<g id="edge4" class="edge">
<title>&#45;5&#45;&gt;172</title>
<path fill="none" stroke="green" stroke-width="0.3" d="M729.44,-153.88C720.99,-143.4 706.44,-125.33 694.56,-110.59"/>
<polygon fill="green" stroke="green" stroke-width="0.3" points="697.59,-108.77 688.59,-103.18 692.14,-113.16 697.59,-108.77"/>
</g>
<!-- &#45;6 -->
<g id="node6" class="node">
<title>&#45;6</title>
<polygon fill="lightgray" stroke="black" points="242.19,-172.82 218.69,-172.82 218.69,-154.32 242.19,-154.32 242.19,-172.82"/>
<text text-anchor="middle" x="230.44" y="-160.27" font-family="Times,serif" font-size="9.00">&#45;6</text>
</g>
<!-- &#45;6&#45;&gt;170 -->
<g id="edge24" class="edge">
<title>&#45;6&#45;&gt;170</title>
<path fill="none" stroke="green" stroke-width="0.14" d="M238.08,-154.16C241.84,-150.34 246.61,-145.96 251.44,-142.71 281.29,-122.64 319.54,-106.56 345.39,-96.9"/>
<polygon fill="green" stroke="green" stroke-width="0.14" points="346.26,-100.31 354.45,-93.59 343.85,-93.74 346.26,-100.31"/>
</g>
<!-- &#45;6&#45;&gt;171 -->
<g id="edge36" class="edge">
<title>&#45;6&#45;&gt;171</title>
<path fill="none" stroke="red" stroke-width="0.6" d="M230.9,-153.88C231.36,-145.02 232.12,-130.75 232.81,-117.65"/>
<polygon fill="red" stroke="red" stroke-width="0.6" points="236.29,-118.14 233.32,-107.97 229.3,-117.77 236.29,-118.14"/>
</g>
<!-- &#45;7 -->
<g id="node7" class="node">
<title>&#45;7</title>
<polygon fill="lightgray" stroke="black" points="366.19,-244.18 342.69,-244.18 342.69,-225.68 366.19,-225.68 366.19,-244.18"/>
<text text-anchor="middle" x="354.44" y="-231.63" font-family="Times,serif" font-size="9.00">&#45;7</text>
</g>
<!-- &#45;7&#45;&gt;169 -->
<g id="edge30" class="edge">
<title>&#45;7&#45;&gt;169</title>
<path fill="none" stroke="red" stroke-width="0.24" stroke-dasharray="1,5" d="M366.57,-230.81C404.27,-221.08 517.81,-191.54 533.44,-184.43 535,-183.72 536.57,-182.93 538.14,-182.09"/>
<polygon fill="red" stroke="red" stroke-width="0.24" points="539.74,-185.21 546.53,-177.08 536.15,-179.2 539.74,-185.21"/>
</g>
<!-- &#45;7&#45;&gt;170 -->
<g id="edge8" class="edge">
<title>&#45;7&#45;&gt;170</title>
<path fill="none" stroke="green" stroke-width="0.22" d="M355.57,-225.6C358.36,-205.06 365.69,-151.16 370.35,-116.91"/>
<polygon fill="green" stroke="green" stroke-width="0.22" points="373.78,-117.67 371.66,-107.29 366.84,-116.73 373.78,-117.67"/>
</g>
<!-- &#45;7&#45;&gt;171 -->
<g id="edge38" class="edge">
<title>&#45;7&#45;&gt;171</title>
<path fill="none" stroke="green" stroke-width="0.44" d="M342.3,-232.93C287.08,-228.27 61.49,-207.91 41.44,-184.43 -7.19,-127.51 137.03,-100.06 203.17,-90.7"/>
<polygon fill="green" stroke="green" stroke-width="0.44" points="203.35,-94.21 212.78,-89.4 202.4,-87.28 203.35,-94.21"/>
</g>
<!-- &#45;8 -->
<g id="node8" class="node">
<title>&#45;8</title>
<polygon fill="lightgray" stroke="black" points="524.19,-172.82 500.69,-172.82 500.69,-154.32 524.19,-154.32 524.19,-172.82"/>
<text text-anchor="middle" x="512.44" y="-160.27" font-family="Times,serif" font-size="9.00">&#45;8</text>
</g>
<!-- &#45;8&#45;&gt;170 -->
<g id="edge37" class="edge">
<title>&#45;8&#45;&gt;170</title>
<path fill="none" stroke="red" stroke-width="0.77" d="M502.14,-153.98C497.49,-150.3 491.84,-146.08 486.44,-142.71 459.54,-125.94 426.92,-110.14 403.84,-99.65"/>
<polygon fill="red" stroke="red" stroke-width="0.77" points="405.28,-96.46 394.72,-95.57 402.41,-102.85 405.28,-96.46"/>
</g>
<!-- &#45;9 -->
<g id="node9" class="node">
<title>&#45;9</title>
<polygon fill="lightgray" stroke="black" points="284.19,-172.82 260.69,-172.82 260.69,-154.32 284.19,-154.32 284.19,-172.82"/>
<text text-anchor="middle" x="272.44" y="-160.27" font-family="Times,serif" font-size="9.00">&#45;9</text>
</g>
<!-- &#45;9&#45;&gt;170 -->
<g id="edge15" class="edge">
<title>&#45;9&#45;&gt;170</title>
<path fill="none" stroke="red" stroke-width="0.44" stroke-dasharray="1,5" d="M280.75,-154.15C284.5,-150.49 289.07,-146.25 293.44,-142.71 310.86,-128.6 331.71,-114.28 347.89,-103.67"/>
<polygon fill="red" stroke="red" stroke-width="0.44" points="349.77,-106.62 356.25,-98.24 345.96,-100.75 349.77,-106.62"/>
</g>
<!-- &#45;9&#45;&gt;171 -->
<g id="edge34" class="edge">
<title>&#45;9&#45;&gt;171</title>
<path fill="none" stroke="red" stroke-width="0.2" d="M268.08,-153.88C263.18,-144.13 255,-127.83 247.93,-113.75"/>
<polygon fill="red" stroke="red" stroke-width="0.2" points="251.24,-112.54 243.63,-105.17 244.99,-115.68 251.24,-112.54"/>
</g>
<!-- &#45;10 -->
<g id="node10" class="node">
<title>&#45;10</title>
<polygon fill="lightgray" stroke="black" points="447.44,-244.18 419.44,-244.18 419.44,-225.68 447.44,-225.68 447.44,-244.18"/>
<text text-anchor="middle" x="433.44" y="-231.63" font-family="Times,serif" font-size="9.00">&#45;10</text>
</g>
<!-- &#45;10&#45;&gt;169 -->
<g id="edge33" class="edge">
<title>&#45;10&#45;&gt;169</title>
<path fill="none" stroke="green" stroke-width="0.54" stroke-dasharray="1,5" d="M447.43,-225.44C450.38,-223.73 453.49,-221.98 456.44,-220.43 489.88,-202.85 500.49,-202.91 533.44,-184.43 534.8,-183.67 536.18,-182.86 537.57,-182.03"/>
<polygon fill="green" stroke="green" stroke-width="0.54" points="539.29,-185.09 545.88,-176.8 535.55,-179.16 539.29,-185.09"/>
</g>
<!-- &#45;10&#45;&gt;170 -->
<g id="edge2" class="edge">
<title>&#45;10&#45;&gt;170</title>
<path fill="none" stroke="green" stroke-width="0.52" stroke-dasharray="1,5" d="M432.98,-225.25C431.84,-208.59 427.97,-171.23 415.44,-142.71 410.32,-131.07 402.45,-119.53 394.96,-109.98"/>
<polygon fill="green" stroke="green" stroke-width="0.52" points="397.83,-107.96 388.78,-102.44 392.41,-112.39 397.83,-107.96"/>
</g>
<!-- &#45;11 -->
<g id="node11" class="node">
<title>&#45;11</title>
<polygon fill="lightgray" stroke="black" points="161.44,-244.18 133.44,-244.18 133.44,-225.68 161.44,-225.68 161.44,-244.18"/>
<text text-anchor="middle" x="147.44" y="-231.63" font-family="Times,serif" font-size="9.00">&#45;11</text>
</g>
<!-- &#45;11&#45;&gt;169 -->
<g id="edge35" class="edge">
<title>&#45;11&#45;&gt;169</title>
<path fill="none" stroke="red" stroke-width="0.14" stroke-dasharray="1,5" d="M161.92,-232.95C223.41,-228.68 462.99,-210.64 533.44,-184.43 535.24,-183.76 537.04,-182.96 538.81,-182.08"/>
<polygon fill="red" stroke="red" stroke-width="0.14" points="540.27,-185.29 547.17,-177.25 536.76,-179.23 540.27,-185.29"/>
</g>
<!-- &#45;11&#45;&gt;171 -->
<g id="edge18" class="edge">
<title>&#45;11&#45;&gt;171</title>
<path fill="none" stroke="red" stroke-width="0.22" stroke-dasharray="1,5" d="M134.09,-225.4C130.99,-223.62 127.66,-221.85 124.44,-220.43 75.06,-198.63 40.46,-227.89 8.44,-184.43 -2.56,-169.5 -2.99,-157.31 8.44,-142.71 32.31,-112.22 147.1,-96.07 203.3,-89.88"/>
<polygon fill="red" stroke="red" stroke-width="0.22" points="203.5,-93.38 213.07,-88.85 202.76,-86.42 203.5,-93.38"/>
</g>
<!-- &#45;12 -->
<g id="node12" class="node">
<title>&#45;12</title>
<polygon fill="lightgray" stroke="black" points="78.44,-172.82 50.44,-172.82 50.44,-154.32 78.44,-154.32 78.44,-172.82"/>
<text text-anchor="middle" x="64.44" y="-160.27" font-family="Times,serif" font-size="9.00">&#45;12</text>
</g>
<!-- &#45;12&#45;&gt;171 -->
<g id="edge10" class="edge">
<title>&#45;12&#45;&gt;171</title>
<path fill="none" stroke="green" stroke-width="0.21" stroke-dasharray="1,5" d="M72.83,-154.06C76.97,-150.22 82.18,-145.84 87.44,-142.71 125.36,-120.1 174.03,-103.76 204.74,-94.8"/>
<polygon fill="green" stroke="green" stroke-width="0.21" points="205.46,-98.23 214.12,-92.13 203.54,-91.5 205.46,-98.23"/>
</g>
<!-- &#45;13 -->
<g id="node13" class="node">
<title>&#45;13</title>
<polygon fill="lightgray" stroke="black" points="124.44,-172.82 96.44,-172.82 96.44,-154.32 124.44,-154.32 124.44,-172.82"/>
<text text-anchor="middle" x="110.44" y="-160.27" font-family="Times,serif" font-size="9.00">&#45;13</text>
</g>
<!-- &#45;13&#45;&gt;171 -->
<g id="edge17" class="edge">
<title>&#45;13&#45;&gt;171</title>
<path fill="none" stroke="green" stroke-width="0.34" d="M122.27,-153.83C127.2,-150.27 133.03,-146.19 138.44,-142.71 161.19,-128.07 187.83,-112.7 207.27,-101.79"/>
<polygon fill="green" stroke="green" stroke-width="0.34" points="208.98,-104.85 216.01,-96.93 205.57,-98.74 208.98,-104.85"/>
</g>
<!-- &#45;14 -->
<g id="node14" class="node">
<title>&#45;14</title>
<polygon fill="lightgray" stroke="black" points="673.44,-244.18 645.44,-244.18 645.44,-225.68 673.44,-225.68 673.44,-244.18"/>
<text text-anchor="middle" x="659.44" y="-231.63" font-family="Times,serif" font-size="9.00">&#45;14</text>
</g>
<!-- &#45;15 -->
<g id="node15" class="node">
<title>&#45;15</title>
<polygon fill="lightgray" stroke="black" points="535.44,-244.18 507.44,-244.18 507.44,-225.68 535.44,-225.68 535.44,-244.18"/>
<text text-anchor="middle" x="521.44" y="-231.63" font-family="Times,serif" font-size="9.00">&#45;15</text>
</g>
<!-- &#45;15&#45;&gt;169 -->
<g id="edge14" class="edge">
<title>&#45;15&#45;&gt;169</title>
<path fill="none" stroke="green" stroke-width="0.21" d="M526.59,-225.42C531.84,-216.75 540.26,-202.85 547.72,-190.53"/>
<polygon fill="green" stroke="green" stroke-width="0.21" points="550.57,-192.57 552.76,-182.2 544.59,-188.94 550.57,-192.57"/>
</g>
<!-- &#45;16 -->
<g id="node16" class="node">
<title>&#45;16</title>
<polygon fill="lightgray" stroke="black" points="719.44,-244.18 691.44,-244.18 691.44,-225.68 719.44,-225.68 719.44,-244.18"/>
<text text-anchor="middle" x="705.44" y="-231.63" font-family="Times,serif" font-size="9.00">&#45;16</text>
</g>
<!-- &#45;17 -->
<g id="node17" class="node">
<title>&#45;17</title>
<polygon fill="lightgray" stroke="black" points="765.44,-244.18 737.44,-244.18 737.44,-225.68 765.44,-225.68 765.44,-244.18"/>
<text text-anchor="middle" x="751.44" y="-231.63" font-family="Times,serif" font-size="9.00">&#45;17</text>
</g>
<!-- &#45;18 -->
<g id="node18" class="node">
<title>&#45;18</title>
<polygon fill="lightgray" stroke="black" points="581.44,-244.18 553.44,-244.18 553.44,-225.68 581.44,-225.68 581.44,-244.18"/>
<text text-anchor="middle" x="567.44" y="-231.63" font-family="Times,serif" font-size="9.00">&#45;18</text>
</g>
<!-- &#45;18&#45;&gt;169 -->
<g id="edge16" class="edge">
<title>&#45;18&#45;&gt;169</title>
<path fill="none" stroke="green" stroke-width="0.26" stroke-dasharray="1,5" d="M566.95,-225.42C566.51,-217.8 565.84,-206.15 565.2,-195.07"/>
<polygon fill="green" stroke="green" stroke-width="0.26" points="568.7,-194.95 564.63,-185.17 561.71,-195.36 568.7,-194.95"/>
</g>
<!-- &#45;19 -->
<g id="node19" class="node">
<title>&#45;19</title>
<polygon fill="lightgray" stroke="black" points="668.44,-172.82 640.44,-172.82 640.44,-154.32 668.44,-154.32 668.44,-172.82"/>
<text text-anchor="middle" x="654.44" y="-160.27" font-family="Times,serif" font-size="9.00">&#45;19</text>
</g>
<!-- 1 -->
<g id="node22" class="node">
<title>1</title>
<ellipse fill="lightblue" stroke="black" cx="563.44" cy="-14.5" rx="14.5" ry="14.5"/>
<text text-anchor="middle" x="563.44" y="-11.2" font-family="Times,serif" font-size="9.00">1</text>
</g>
<!-- &#45;19&#45;&gt;1 -->
<g id="edge43" class="edge">
<title>&#45;19&#45;&gt;1</title>
<path fill="none" stroke="green" stroke-width="0.3" d="M649.28,-154.24C635.32,-131.68 596.45,-68.86 576.15,-36.05"/>
<polygon fill="green" stroke="green" stroke-width="0.3" points="579.2,-34.33 570.97,-27.66 573.25,-38.01 579.2,-34.33"/>
</g>
<!-- &#45;19&#45;&gt;172 -->
<g id="edge21" class="edge">
<title>&#45;19&#45;&gt;172</title>
<path fill="none" stroke="red" stroke-width="0.29" d="M656.85,-153.88C659.39,-144.72 663.53,-129.77 667.27,-116.32"/>
<polygon fill="red" stroke="red" stroke-width="0.29" points="670.59,-117.43 669.89,-106.86 663.84,-115.56 670.59,-117.43"/>
</g>
<!-- &#45;20 -->
<g id="node20" class="node">
<title>&#45;20</title>
<polygon fill="lightgray" stroke="black" points="627.44,-244.18 599.44,-244.18 599.44,-225.68 627.44,-225.68 627.44,-244.18"/>
<text text-anchor="middle" x="613.44" y="-231.63" font-family="Times,serif" font-size="9.00">&#45;20</text>
</g>
<!-- &#45;20&#45;&gt;169 -->
<g id="edge20" class="edge">
<title>&#45;20&#45;&gt;169</title>
<path fill="none" stroke="green" stroke-width="1.02" d="M607.31,-225.42C600.99,-216.66 590.83,-202.57 581.88,-190.15"/>
<polygon fill="green" stroke="green" stroke-width="1.02" points="584.94,-188.42 576.26,-182.35 579.26,-192.51 584.94,-188.42"/>
</g>
<!-- &#45;20&#45;&gt;170 -->
<g id="edge11" class="edge">
<title>&#45;20&#45;&gt;170</title>
<path fill="none" stroke="red" stroke-width="0.13" d="M614.28,-225.28C615.51,-207.31 615.64,-165.67 593.44,-142.71 567.49,-115.87 459.09,-98.06 405.17,-90.69"/>
<polygon fill="red" stroke="red" stroke-width="0.13" points="405.72,-87.24 395.34,-89.39 404.79,-94.18 405.72,-87.24"/>
</g>
<!-- &#45;20&#45;&gt;171 -->
<g id="edge1" class="edge">
<title>&#45;20&#45;&gt;171</title>
<path fill="none" stroke="red" stroke-width="0.42" stroke-dasharray="1,5" d="M601.25,-225.45C597.89,-223.49 594.14,-221.63 590.44,-220.43 509.51,-194.29 266.67,-247.33 209.44,-184.43 191.5,-164.71 203.79,-133.88 216.67,-112.16"/>
<polygon fill="red" stroke="red" stroke-width="0.42" points="219.61,-114.05 221.99,-103.72 213.69,-110.31 219.61,-114.05"/>
</g>
<!-- &#45;20&#45;&gt;172 -->
<g id="edge29" class="edge">
<title>&#45;20&#45;&gt;172</title>
<path fill="none" stroke="green" stroke-width="0.32" d="M626.77,-225.37C629.87,-223.59 633.21,-221.83 636.44,-220.43 687.9,-198.07 723.89,-229.41 757.44,-184.43 768.52,-169.57 766.1,-159.1 757.44,-142.71 746.26,-121.57 723.1,-106.94 704.23,-97.96"/>
<polygon fill="green" stroke="green" stroke-width="0.32" points="705.85,-94.85 695.29,-93.98 703,-101.25 705.85,-94.85"/>
</g>
<!-- 0 -->
<g id="node21" class="node">
<title>0</title>
<ellipse fill="lightblue" stroke="black" cx="318.44" cy="-14.5" rx="14.5" ry="14.5"/>
<text text-anchor="middle" x="318.44" y="-11.2" font-family="Times,serif" font-size="9.00">0</text>
</g>
<!-- 2 -->
<g id="node23" class="node">
<title>2</title>
<ellipse fill="lightblue" stroke="black" cx="797.44" cy="-234.93" rx="14.5" ry="14.5"/>
<text text-anchor="middle" x="797.44" y="-231.63" font-family="Times,serif" font-size="9.00">2</text>
</g>
<!-- 3 -->
<g id="node24" class="node">
<title>3</title>
<ellipse fill="lightblue" stroke="black" cx="372.44" cy="-14.5" rx="14.5" ry="14.5"/>
<text text-anchor="middle" x="372.44" y="-11.2" font-family="Times,serif" font-size="9.00">3</text>
</g>
<!-- 4 -->
<g id="node25" class="node">
<title>4</title>
<ellipse fill="lightblue" stroke="black" cx="256.44" cy="-14.5" rx="14.5" ry="14.5"/>
<text text-anchor="middle" x="256.44" y="-11.2" font-family="Times,serif" font-size="9.00">4</text>
</g>
<!-- 169&#45;&gt;1 -->
<g id="edge6" class="edge">
<title>169&#45;&gt;1</title>
<path fill="none" stroke="red" stroke-width="0.25" d="M563.44,-142.43C563.44,-115.62 563.44,-68.27 563.44,-39.6"/>
<polygon fill="red" stroke="red" stroke-width="0.25" points="566.94,-39.64 563.44,-29.64 559.94,-39.64 566.94,-39.64"/>
</g>
<!-- 169&#45;&gt;170 -->
<g id="edge42" class="edge">
<title>169&#45;&gt;170</title>
<path fill="none" stroke="red" stroke-width="0.27" stroke-dasharray="1,5" d="M546.74,-150.47C542.52,-147.71 537.91,-144.93 533.44,-142.71 490.41,-121.32 437.15,-104.39 404.5,-94.99"/>
<polygon fill="red" stroke="red" stroke-width="0.27" points="405.63,-91.68 395.05,-92.32 403.72,-98.41 405.63,-91.68"/>
</g>
<!-- 170&#45;&gt;0 -->
<g id="edge41" class="edge">
<title>170&#45;&gt;0</title>
<path fill="none" stroke="green" stroke-width="0.25" stroke-dasharray="1,5" d="M361.73,-69.11C353.38,-58.77 342.41,-45.18 333.6,-34.27"/>
<polygon fill="green" stroke="green" stroke-width="0.25" points="336.34,-32.09 327.33,-26.51 330.89,-36.49 336.34,-32.09"/>
</g>
<!-- 170&#45;&gt;1 -->
<g id="edge7" class="edge">
<title>170&#45;&gt;1</title>
<path fill="none" stroke="green" stroke-width="0.24" d="M393.95,-77.69C429.13,-64.78 502.98,-37.68 540.5,-23.91"/>
<polygon fill="green" stroke="green" stroke-width="0.24" points="541.55,-27.26 549.73,-20.53 539.14,-20.69 541.55,-27.26"/>
</g>
<!-- 170&#45;&gt;3 -->
<g id="edge25" class="edge">
<title>170&#45;&gt;3</title>
<path fill="none" stroke="green" stroke-width="0.21" d="M373.86,-64.79C373.63,-56.89 373.37,-47.75 373.13,-39.5"/>
<polygon fill="green" stroke="green" stroke-width="0.21" points="376.63,-39.56 372.85,-29.67 369.64,-39.76 376.63,-39.56"/>
</g>
<!-- 170&#45;&gt;4 -->
<g id="edge40" class="edge">
<title>170&#45;&gt;4</title>
<path fill="none" stroke="green" stroke-width="0.52" stroke-dasharray="1,5" d="M356.52,-74.32C335.4,-61.91 300.34,-41.3 277.83,-28.07"/>
<polygon fill="green" stroke="green" stroke-width="0.52" points="279.81,-25.17 269.41,-23.12 276.26,-31.21 279.81,-25.17"/>
</g>
<!-- 171&#45;&gt;0 -->
<g id="edge26" class="edge">
<title>171&#45;&gt;0</title>
<path fill="none" stroke="red" stroke-width="0.2" d="M250.24,-71.81C264.35,-60.15 285.04,-43.07 299.93,-30.78"/>
<polygon fill="red" stroke="red" stroke-width="0.2" points="301.81,-33.76 307.29,-24.7 297.35,-28.37 301.81,-33.76"/>
</g>
<!-- 171&#45;&gt;1 -->
<g id="edge9" class="edge">
<title>171&#45;&gt;1</title>
<path fill="none" stroke="red" stroke-width="0.27" stroke-dasharray="1,5" d="M255.02,-80.51C312.88,-68.32 476.81,-33.76 539.06,-20.64"/>
<polygon fill="red" stroke="red" stroke-width="0.27" points="539.66,-24.09 548.72,-18.6 538.22,-17.24 539.66,-24.09"/>
</g>
<!-- 171&#45;&gt;3 -->
<g id="edge23" class="edge">
<title>171&#45;&gt;3</title>
<path fill="none" stroke="green" stroke-width="0.39" d="M253.05,-75.5C278.23,-62.84 323.1,-40.29 350.08,-26.73"/>
<polygon fill="green" stroke="green" stroke-width="0.39" points="351.57,-29.9 358.94,-22.28 348.43,-23.64 351.57,-29.9"/>
</g>
<!-- 171&#45;&gt;4 -->
<g id="edge39" class="edge">
<title>171&#45;&gt;4</title>
<path fill="none" stroke="red" stroke-width="0.4" stroke-dasharray="1,5" d="M240.57,-65.53C243.21,-57.21 246.31,-47.41 249.08,-38.7"/>
<polygon fill="red" stroke="red" stroke-width="0.4" points="252.35,-39.95 252.04,-29.36 245.68,-37.83 252.35,-39.95"/>
</g>
<!-- 172&#45;&gt;1 -->
<g id="edge27" class="edge">
<title>172&#45;&gt;1</title>
<path fill="none" stroke="green" stroke-width="0.12" d="M657.94,-74.01C638,-61.67 605.45,-41.51 584.23,-28.37"/>
<polygon fill="green" stroke="green" stroke-width="0.12" points="586.14,-25.44 575.8,-23.15 582.45,-31.39 586.14,-25.44"/>
</g>
</g>
</svg>
