<?xml version="1.0" encoding="UTF-8" standalone="no"?>
<!DOCTYPE svg PUBLIC "-//W3C//DTD SVG 1.1//EN"
 "http://www.w3.org/Graphics/SVG/1.1/DTD/svg11.dtd">
<!-- Generated by graphviz version 12.1.1 (20240910.0053)
 -->
<!-- Pages: 1 -->
<svg width="906pt" height="325pt"
 viewBox="0.00 0.00 905.62 324.65" xmlns="http://www.w3.org/2000/svg" xmlns:xlink="http://www.w3.org/1999/xlink">
<g id="graph0" class="graph" transform="scale(1 1) rotate(0) translate(4 320.65)">
<polygon fill="white" stroke="none" points="-4,4 -4,-320.65 901.62,-320.65 901.62,4 -4,4"/>
<!-- &#45;1 -->
<g id="node1" class="node">
<title>&#45;1</title>
<polygon fill="lightgray" stroke="black" points="107.75,-316.65 84.25,-316.65 84.25,-298.15 107.75,-298.15 107.75,-316.65"/>
<text text-anchor="middle" x="96" y="-304.1" font-family="Times,serif" font-size="9.00">&#45;1</text>
</g>
<!-- &#45;2 -->
<g id="node2" class="node">
<title>&#45;2</title>
<polygon fill="lightgray" stroke="black" points="129.75,-172.82 106.25,-172.82 106.25,-154.32 129.75,-154.32 129.75,-172.82"/>
<text text-anchor="middle" x="118" y="-160.27" font-family="Times,serif" font-size="9.00">&#45;2</text>
</g>
<!-- 186 -->
<g id="node28" class="node">
<title>186</title>
<ellipse fill="white" stroke="black" cx="223" cy="-85.85" rx="20.86" ry="20.86"/>
<text text-anchor="middle" x="223" y="-82.55" font-family="Times,serif" font-size="9.00">186</text>
</g>
<!-- &#45;2&#45;&gt;186 -->
<g id="edge40" class="edge">
<title>&#45;2&#45;&gt;186</title>
<path fill="none" stroke="green" stroke-width="0.92" d="M129.07,-153.98C133.66,-150.45 139.06,-146.34 144,-142.71 161.48,-129.86 181.44,-115.75 196.92,-104.93"/>
<polygon fill="green" stroke="green" stroke-width="0.92" points="198.57,-108.05 204.77,-99.46 194.57,-102.3 198.57,-108.05"/>
</g>
<!-- &#45;3 -->
<g id="node3" class="node">
<title>&#45;3</title>
<polygon fill="lightgray" stroke="black" points="431.75,-172.82 408.25,-172.82 408.25,-154.32 431.75,-154.32 431.75,-172.82"/>
<text text-anchor="middle" x="420" y="-160.27" font-family="Times,serif" font-size="9.00">&#45;3</text>
</g>
<!-- 187 -->
<g id="node29" class="node">
<title>187</title>
<ellipse fill="white" stroke="black" cx="420" cy="-85.85" rx="20.86" ry="20.86"/>
<text text-anchor="middle" x="420" y="-82.55" font-family="Times,serif" font-size="9.00">187</text>
</g>
<!-- &#45;3&#45;&gt;187 -->
<g id="edge23" class="edge">
<title>&#45;3&#45;&gt;187</title>
<path fill="none" stroke="red" stroke-width="0.64" d="M420,-153.88C420,-145.02 420,-130.75 420,-117.65"/>
<polygon fill="red" stroke="red" stroke-width="0.64" points="423.5,-118.03 420,-108.03 416.5,-118.03 423.5,-118.03"/>
</g>
<!-- &#45;4 -->
<g id="node4" class="node">
<title>&#45;4</title>
<polygon fill="lightgray" stroke="black" points="607.75,-172.82 584.25,-172.82 584.25,-154.32 607.75,-154.32 607.75,-172.82"/>
<text text-anchor="middle" x="596" y="-160.27" font-family="Times,serif" font-size="9.00">&#45;4</text>
</g>
<!-- 185 -->
<g id="node27" class="node">
<title>185</title>
<ellipse fill="white" stroke="black" cx="596" cy="-85.85" rx="20.86" ry="20.86"/>
<text text-anchor="middle" x="596" y="-82.55" font-family="Times,serif" font-size="9.00">185</text>
</g>
<!-- &#45;4&#45;&gt;185 -->
<g id="edge30" class="edge">
<title>&#45;4&#45;&gt;185</title>
<path fill="none" stroke="green" stroke-width="0.82" d="M596,-153.88C596,-145.11 596,-131.04 596,-118.04"/>
<polygon fill="green" stroke="green" stroke-width="0.82" points="599.5,-118.31 596,-108.31 592.5,-118.31 599.5,-118.31"/>
</g>
<!-- &#45;4&#45;&gt;187 -->
<g id="edge28" class="edge">
<title>&#45;4&#45;&gt;187</title>
<path fill="none" stroke="red" stroke-width="0.18" stroke-dasharray="1,5" d="M588.48,-153.99C584.73,-150.13 579.96,-145.76 575,-142.71 535.1,-118.16 482.82,-102.16 450.32,-93.82"/>
<polygon fill="red" stroke="red" stroke-width="0.18" points="451.31,-90.46 440.76,-91.44 449.62,-97.25 451.31,-90.46"/>
</g>
<!-- &#45;5 -->
<g id="node5" class="node">
<title>&#45;5</title>
<polygon fill="lightgray" stroke="black" points="149.75,-316.65 126.25,-316.65 126.25,-298.15 149.75,-298.15 149.75,-316.65"/>
<text text-anchor="middle" x="138" y="-304.1" font-family="Times,serif" font-size="9.00">&#45;5</text>
</g>
<!-- 345 -->
<g id="node26" class="node">
<title>345</title>
<ellipse fill="white" stroke="black" cx="67" cy="-163.57" rx="20.86" ry="20.86"/>
<text text-anchor="middle" x="67" y="-160.27" font-family="Times,serif" font-size="9.00">345</text>
</g>
<!-- &#45;5&#45;&gt;345 -->
<g id="edge42" class="edge">
<title>&#45;5&#45;&gt;345</title>
<path fill="none" stroke="green" stroke-width="0.15" stroke-dasharray="1,5" d="M134.23,-297.76C127.35,-282.16 112.19,-248.3 98,-220.43 93.02,-210.65 87.25,-200.08 82.05,-190.79"/>
<polygon fill="green" stroke="green" stroke-width="0.15" points="85.17,-189.19 77.21,-182.2 79.07,-192.63 85.17,-189.19"/>
</g>
<!-- &#45;5&#45;&gt;186 -->
<g id="edge6" class="edge">
<title>&#45;5&#45;&gt;186</title>
<path fill="none" stroke="green" stroke-width="0.3" d="M138.68,-297.76C140.94,-272.6 149.69,-197.64 177,-142.71 183.2,-130.23 192.67,-118.08 201.41,-108.31"/>
<polygon fill="green" stroke="green" stroke-width="0.3" points="203.92,-110.75 208.17,-101.05 198.8,-105.98 203.92,-110.75"/>
</g>
<!-- 188 -->
<g id="node30" class="node">
<title>188</title>
<ellipse fill="white" stroke="black" cx="728" cy="-85.85" rx="20.86" ry="20.86"/>
<text text-anchor="middle" x="728" y="-82.55" font-family="Times,serif" font-size="9.00">188</text>
</g>
<!-- &#45;5&#45;&gt;188 -->
<g id="edge24" class="edge">
<title>&#45;5&#45;&gt;188</title>
<path fill="none" stroke="red" stroke-width="0.14" stroke-dasharray="1,5" d="M150.02,-306.46C238.49,-306.61 788.33,-302.77 889,-184.43 901.01,-170.31 899.75,-157.82 889,-142.71 859.52,-101.29 797.07,-90.3 759.2,-87.56"/>
<polygon fill="red" stroke="red" stroke-width="0.14" points="759.61,-84.08 749.42,-87 759.21,-91.07 759.61,-84.08"/>
</g>
<!-- 607 -->
<g id="node31" class="node">
<title>607</title>
<ellipse fill="white" stroke="black" cx="68" cy="-241.29" rx="20.86" ry="20.86"/>
<text text-anchor="middle" x="68" y="-237.99" font-family="Times,serif" font-size="9.00">607</text>
</g>
<!-- &#45;5&#45;&gt;607 -->
<g id="edge45" class="edge">
<title>&#45;5&#45;&gt;607</title>
<path fill="none" stroke="green" stroke-width="0.35" d="M128.56,-297.75C118.92,-288.92 103.58,-274.88 90.76,-263.13"/>
<polygon fill="green" stroke="green" stroke-width="0.35" points="93.3,-260.71 83.56,-256.54 88.57,-265.88 93.3,-260.71"/>
</g>
<!-- &#45;6 -->
<g id="node6" class="node">
<title>&#45;6</title>
<polygon fill="lightgray" stroke="black" points="343.75,-172.82 320.25,-172.82 320.25,-154.32 343.75,-154.32 343.75,-172.82"/>
<text text-anchor="middle" x="332" y="-160.27" font-family="Times,serif" font-size="9.00">&#45;6</text>
</g>
<!-- &#45;6&#45;&gt;185 -->
<g id="edge22" class="edge">
<title>&#45;6&#45;&gt;185</title>
<path fill="none" stroke="green" stroke-width="0.31" stroke-dasharray="1,5" d="M338.99,-154.12C342.75,-150.1 347.69,-145.55 353,-142.71 422.56,-105.45 516.28,-92.93 564.47,-88.81"/>
<polygon fill="green" stroke="green" stroke-width="0.31" points="564.72,-92.3 574.41,-88.03 564.17,-85.32 564.72,-92.3"/>
</g>
<!-- &#45;6&#45;&gt;186 -->
<g id="edge20" class="edge">
<title>&#45;6&#45;&gt;186</title>
<path fill="none" stroke="red" stroke-width="0.22" stroke-dasharray="1,5" d="M323.75,-154.07C320.01,-150.4 315.43,-146.16 311,-142.71 291.55,-127.56 267.87,-112.72 249.98,-102.14"/>
<polygon fill="red" stroke="red" stroke-width="0.22" points="251.9,-99.21 241.5,-97.19 248.37,-105.25 251.9,-99.21"/>
</g>
<!-- &#45;7 -->
<g id="node7" class="node">
<title>&#45;7</title>
<polygon fill="lightgray" stroke="black" points="301.75,-172.82 278.25,-172.82 278.25,-154.32 301.75,-154.32 301.75,-172.82"/>
<text text-anchor="middle" x="290" y="-160.27" font-family="Times,serif" font-size="9.00">&#45;7</text>
</g>
<!-- 2 -->
<g id="node23" class="node">
<title>2</title>
<ellipse fill="lightblue" stroke="black" cx="601" cy="-14.5" rx="14.5" ry="14.5"/>
<text text-anchor="middle" x="601" y="-11.2" font-family="Times,serif" font-size="9.00">2</text>
</g>
<!-- &#45;7&#45;&gt;2 -->
<g id="edge47" class="edge">
<title>&#45;7&#45;&gt;2</title>
<path fill="none" stroke="red" stroke-width="0.5" stroke-dasharray="1,5" d="M296.09,-153.83C310.15,-134.38 347.01,-87.47 390,-64.99 465.01,-25.78 497.53,-58.11 577,-28.99 577.9,-28.66 578.81,-28.3 579.72,-27.91"/>
<polygon fill="red" stroke="red" stroke-width="0.5" points="581.13,-31.12 588.48,-23.49 577.98,-24.87 581.13,-31.12"/>
</g>
<!-- &#45;7&#45;&gt;187 -->
<g id="edge7" class="edge">
<title>&#45;7&#45;&gt;187</title>
<path fill="none" stroke="green" stroke-width="0.85" stroke-dasharray="1,5" d="M298.1,-153.87C301.82,-150.16 306.41,-145.96 311,-142.71 336.33,-124.8 368.19,-109.16 390.91,-99.02"/>
<polygon fill="green" stroke="green" stroke-width="0.85" points="392.02,-102.36 399.78,-95.14 389.22,-95.94 392.02,-102.36"/>
</g>
<!-- &#45;8 -->
<g id="node8" class="node">
<title>&#45;8</title>
<polygon fill="lightgray" stroke="black" points="519.75,-172.82 496.25,-172.82 496.25,-154.32 519.75,-154.32 519.75,-172.82"/>
<text text-anchor="middle" x="508" y="-160.27" font-family="Times,serif" font-size="9.00">&#45;8</text>
</g>
<!-- &#45;8&#45;&gt;185 -->
<g id="edge10" class="edge">
<title>&#45;8&#45;&gt;185</title>
<path fill="none" stroke="green" stroke-width="0.23" d="M516.88,-153.94C520.58,-150.41 524.95,-146.31 529,-142.71 543.03,-130.25 559.16,-116.77 572.09,-106.18"/>
<polygon fill="green" stroke="green" stroke-width="0.23" points="574.26,-108.92 579.79,-99.89 569.83,-103.5 574.26,-108.92"/>
</g>
<!-- &#45;8&#45;&gt;187 -->
<g id="edge17" class="edge">
<title>&#45;8&#45;&gt;187</title>
<path fill="none" stroke="green" stroke-width="0.21" d="M499.12,-153.94C495.42,-150.41 491.05,-146.31 487,-142.71 472.97,-130.25 456.84,-116.77 443.91,-106.18"/>
<polygon fill="green" stroke="green" stroke-width="0.21" points="446.15,-103.48 436.19,-99.87 441.72,-108.91 446.15,-103.48"/>
</g>
<!-- &#45;9 -->
<g id="node9" class="node">
<title>&#45;9</title>
<polygon fill="lightgray" stroke="black" points="649.75,-172.82 626.25,-172.82 626.25,-154.32 649.75,-154.32 649.75,-172.82"/>
<text text-anchor="middle" x="638" y="-160.27" font-family="Times,serif" font-size="9.00">&#45;9</text>
</g>
<!-- &#45;9&#45;&gt;185 -->
<g id="edge1" class="edge">
<title>&#45;9&#45;&gt;185</title>
<path fill="none" stroke="red" stroke-width="0.12" d="M633.18,-153.88C627.74,-144.07 618.61,-127.62 610.76,-113.47"/>
<polygon fill="red" stroke="red" stroke-width="0.12" points="613.85,-111.81 605.94,-104.76 607.73,-115.21 613.85,-111.81"/>
</g>
<!-- &#45;10 -->
<g id="node10" class="node">
<title>&#45;10</title>
<polygon fill="lightgray" stroke="black" points="390,-172.82 362,-172.82 362,-154.32 390,-154.32 390,-172.82"/>
<text text-anchor="middle" x="376" y="-160.27" font-family="Times,serif" font-size="9.00">&#45;10</text>
</g>
<!-- &#45;10&#45;&gt;185 -->
<g id="edge14" class="edge">
<title>&#45;10&#45;&gt;185</title>
<path fill="none" stroke="red" stroke-width="0.37" d="M384.28,-153.85C388.39,-149.96 393.61,-145.61 399,-142.71 453.32,-113.44 524.55,-98.18 564.78,-91.39"/>
<polygon fill="red" stroke="red" stroke-width="0.37" points="565.16,-94.87 574.47,-89.82 564.04,-87.96 565.16,-94.87"/>
</g>
<!-- &#45;10&#45;&gt;186 -->
<g id="edge12" class="edge">
<title>&#45;10&#45;&gt;186</title>
<path fill="none" stroke="green" stroke-width="0.2" d="M367.54,-154.16C363.4,-150.34 358.19,-145.96 353,-142.71 320.68,-122.49 279.78,-106.26 252.57,-96.61"/>
<polygon fill="green" stroke="green" stroke-width="0.2" points="253.75,-93.32 243.16,-93.34 251.45,-99.93 253.75,-93.32"/>
</g>
<!-- &#45;10&#45;&gt;187 -->
<g id="edge5" class="edge">
<title>&#45;10&#45;&gt;187</title>
<path fill="none" stroke="green" stroke-width="0.37" stroke-dasharray="1,5" d="M381.05,-153.88C386.79,-144.01 396.43,-127.4 404.69,-113.19"/>
<polygon fill="green" stroke="green" stroke-width="0.37" points="407.58,-115.19 409.58,-104.78 401.53,-111.67 407.58,-115.19"/>
</g>
<!-- &#45;11 -->
<g id="node11" class="node">
<title>&#45;11</title>
<polygon fill="lightgray" stroke="black" points="478,-172.82 450,-172.82 450,-154.32 478,-154.32 478,-172.82"/>
<text text-anchor="middle" x="464" y="-160.27" font-family="Times,serif" font-size="9.00">&#45;11</text>
</g>
<!-- &#45;11&#45;&gt;185 -->
<g id="edge21" class="edge">
<title>&#45;11&#45;&gt;185</title>
<path fill="none" stroke="red" stroke-width="0.12" stroke-dasharray="1,5" d="M472.99,-153.92C477.08,-150.23 482.1,-146.01 487,-142.71 512.92,-125.24 545.01,-109.42 567.64,-99.11"/>
<polygon fill="red" stroke="red" stroke-width="0.12" points="568.87,-102.4 576.56,-95.11 566,-96.01 568.87,-102.4"/>
</g>
<!-- &#45;11&#45;&gt;186 -->
<g id="edge39" class="edge">
<title>&#45;11&#45;&gt;186</title>
<path fill="none" stroke="green" stroke-width="0.11" d="M456.17,-154.19C452.02,-150.19 446.61,-145.64 441,-142.71 379.26,-110.45 297.77,-96.03 254,-90.25"/>
<polygon fill="green" stroke="green" stroke-width="0.11" points="254.5,-86.78 244.14,-89.01 253.63,-93.73 254.5,-86.78"/>
</g>
<!-- &#45;11&#45;&gt;187 -->
<g id="edge2" class="edge">
<title>&#45;11&#45;&gt;187</title>
<path fill="none" stroke="green" stroke-width="0.23" d="M458.95,-153.88C453.21,-144.01 443.57,-127.4 435.31,-113.19"/>
<polygon fill="green" stroke="green" stroke-width="0.23" points="438.36,-111.49 430.31,-104.6 432.31,-115 438.36,-111.49"/>
</g>
<!-- &#45;12 -->
<g id="node12" class="node">
<title>&#45;12</title>
<polygon fill="lightgray" stroke="black" points="742,-172.82 714,-172.82 714,-154.32 742,-154.32 742,-172.82"/>
<text text-anchor="middle" x="728" y="-160.27" font-family="Times,serif" font-size="9.00">&#45;12</text>
</g>
<!-- &#45;12&#45;&gt;185 -->
<g id="edge44" class="edge">
<title>&#45;12&#45;&gt;185</title>
<path fill="none" stroke="green" stroke-width="0.21" d="M719.01,-153.92C714.92,-150.23 709.9,-146.01 705,-142.71 679.19,-125.32 647.27,-109.56 624.66,-99.25"/>
<polygon fill="green" stroke="green" stroke-width="0.21" points="626.13,-96.07 615.57,-95.17 623.27,-102.46 626.13,-96.07"/>
</g>
<!-- &#45;12&#45;&gt;188 -->
<g id="edge19" class="edge">
<title>&#45;12&#45;&gt;188</title>
<path fill="none" stroke="red" stroke-width="0.59" stroke-dasharray="1,5" d="M728,-153.88C728,-145.02 728,-130.75 728,-117.65"/>
<polygon fill="red" stroke="red" stroke-width="0.59" points="731.5,-117.96 728,-107.96 724.5,-117.96 731.5,-117.96"/>
</g>
<!-- &#45;13 -->
<g id="node13" class="node">
<title>&#45;13</title>
<polygon fill="lightgray" stroke="black" points="788,-172.82 760,-172.82 760,-154.32 788,-154.32 788,-172.82"/>
<text text-anchor="middle" x="774" y="-160.27" font-family="Times,serif" font-size="9.00">&#45;13</text>
</g>
<!-- &#45;13&#45;&gt;188 -->
<g id="edge13" class="edge">
<title>&#45;13&#45;&gt;188</title>
<path fill="none" stroke="green" stroke-width="0.4" d="M768.72,-153.88C762.72,-144.01 752.64,-127.4 744,-113.19"/>
<polygon fill="green" stroke="green" stroke-width="0.4" points="747.09,-111.54 738.91,-104.81 741.11,-115.18 747.09,-111.54"/>
</g>
<!-- &#45;14 -->
<g id="node14" class="node">
<title>&#45;14</title>
<polygon fill="lightgray" stroke="black" points="566,-172.82 538,-172.82 538,-154.32 566,-154.32 566,-172.82"/>
<text text-anchor="middle" x="552" y="-160.27" font-family="Times,serif" font-size="9.00">&#45;14</text>
</g>
<!-- &#45;14&#45;&gt;185 -->
<g id="edge27" class="edge">
<title>&#45;14&#45;&gt;185</title>
<path fill="none" stroke="green" stroke-width="0.13" stroke-dasharray="1,5" d="M557.05,-153.88C562.84,-143.91 572.62,-127.09 580.93,-112.79"/>
<polygon fill="green" stroke="green" stroke-width="0.13" points="583.77,-114.87 585.77,-104.46 577.71,-111.35 583.77,-114.87"/>
</g>
<!-- &#45;14&#45;&gt;187 -->
<g id="edge29" class="edge">
<title>&#45;14&#45;&gt;187</title>
<path fill="none" stroke="red" stroke-width="0.28" stroke-dasharray="1,5" d="M543.01,-153.92C538.92,-150.23 533.9,-146.01 529,-142.71 503.19,-125.32 471.27,-109.56 448.66,-99.25"/>
<polygon fill="red" stroke="red" stroke-width="0.28" points="450.23,-96.12 439.68,-95.21 447.37,-102.5 450.23,-96.12"/>
</g>
<!-- &#45;15 -->
<g id="node15" class="node">
<title>&#45;15</title>
<polygon fill="lightgray" stroke="black" points="260,-172.82 232,-172.82 232,-154.32 260,-154.32 260,-172.82"/>
<text text-anchor="middle" x="246" y="-160.27" font-family="Times,serif" font-size="9.00">&#45;15</text>
</g>
<!-- &#45;15&#45;&gt;186 -->
<g id="edge18" class="edge">
<title>&#45;15&#45;&gt;186</title>
<path fill="none" stroke="green" stroke-width="0.45" d="M243.36,-153.88C240.56,-144.66 235.98,-129.57 231.87,-116.04"/>
<polygon fill="green" stroke="green" stroke-width="0.45" points="235.31,-115.33 229.05,-106.78 228.61,-117.36 235.31,-115.33"/>
</g>
<!-- &#45;15&#45;&gt;187 -->
<g id="edge36" class="edge">
<title>&#45;15&#45;&gt;187</title>
<path fill="none" stroke="green" stroke-width="0.36" d="M254.38,-154.04C258.51,-150.19 263.73,-145.82 269,-142.71 308.14,-119.6 358.49,-103.31 390.01,-94.5"/>
<polygon fill="green" stroke="green" stroke-width="0.36" points="390.68,-97.95 399.41,-91.94 388.84,-91.19 390.68,-97.95"/>
</g>
<!-- &#45;16 -->
<g id="node16" class="node">
<title>&#45;16</title>
<polygon fill="lightgray" stroke="black" points="834,-172.82 806,-172.82 806,-154.32 834,-154.32 834,-172.82"/>
<text text-anchor="middle" x="820" y="-160.27" font-family="Times,serif" font-size="9.00">&#45;16</text>
</g>
<!-- &#45;16&#45;&gt;188 -->
<g id="edge25" class="edge">
<title>&#45;16&#45;&gt;188</title>
<path fill="none" stroke="green" stroke-width="0.54" stroke-dasharray="1,5" d="M810.21,-154C806.15,-150.47 801.37,-146.37 797,-142.71 782.26,-130.38 765.51,-116.81 752.2,-106.13"/>
<polygon fill="green" stroke="green" stroke-width="0.54" points="754.65,-103.61 744.65,-100.09 750.27,-109.07 754.65,-103.61"/>
</g>
<!-- &#45;17 -->
<g id="node17" class="node">
<title>&#45;17</title>
<polygon fill="lightgray" stroke="black" points="880,-172.82 852,-172.82 852,-154.32 880,-154.32 880,-172.82"/>
<text text-anchor="middle" x="866" y="-160.27" font-family="Times,serif" font-size="9.00">&#45;17</text>
</g>
<!-- &#45;17&#45;&gt;188 -->
<g id="edge41" class="edge">
<title>&#45;17&#45;&gt;188</title>
<path fill="none" stroke="red" stroke-width="0.29" stroke-dasharray="1,5" d="M857.04,-153.87C852.95,-150.17 847.94,-145.96 843,-142.71 815.26,-124.45 780.66,-108.45 756.7,-98.31"/>
<polygon fill="red" stroke="red" stroke-width="0.29" points="758.11,-95.11 747.53,-94.5 755.42,-101.57 758.11,-95.11"/>
</g>
<!-- &#45;18 -->
<g id="node18" class="node">
<title>&#45;18</title>
<polygon fill="lightgray" stroke="black" points="696,-172.82 668,-172.82 668,-154.32 696,-154.32 696,-172.82"/>
<text text-anchor="middle" x="682" y="-160.27" font-family="Times,serif" font-size="9.00">&#45;18</text>
</g>
<!-- &#45;18&#45;&gt;185 -->
<g id="edge31" class="edge">
<title>&#45;18&#45;&gt;185</title>
<path fill="none" stroke="green" stroke-width="0.34" d="M672.13,-153.88C659.2,-142.5 636.13,-122.18 618.76,-106.89"/>
<polygon fill="green" stroke="green" stroke-width="0.34" points="621.44,-104.58 611.62,-100.6 616.81,-109.84 621.44,-104.58"/>
</g>
<!-- &#45;18&#45;&gt;188 -->
<g id="edge4" class="edge">
<title>&#45;18&#45;&gt;188</title>
<path fill="none" stroke="green" stroke-width="0.46" stroke-dasharray="1,5" d="M687.28,-153.88C693.28,-144.01 703.36,-127.4 712,-113.19"/>
<polygon fill="green" stroke="green" stroke-width="0.46" points="714.84,-115.26 717.04,-104.89 708.86,-111.62 714.84,-115.26"/>
</g>
<!-- &#45;19 -->
<g id="node19" class="node">
<title>&#45;19</title>
<polygon fill="lightgray" stroke="black" points="214,-172.82 186,-172.82 186,-154.32 214,-154.32 214,-172.82"/>
<text text-anchor="middle" x="200" y="-160.27" font-family="Times,serif" font-size="9.00">&#45;19</text>
</g>
<!-- &#45;19&#45;&gt;186 -->
<g id="edge9" class="edge">
<title>&#45;19&#45;&gt;186</title>
<path fill="none" stroke="green" stroke-width="0.32" stroke-dasharray="1,5" d="M202.64,-153.88C205.44,-144.66 210.02,-129.57 214.13,-116.04"/>
<polygon fill="green" stroke="green" stroke-width="0.32" points="217.45,-117.18 217,-106.59 210.75,-115.14 217.45,-117.18"/>
</g>
<!-- &#45;20 -->
<g id="node20" class="node">
<title>&#45;20</title>
<polygon fill="lightgray" stroke="black" points="28,-172.82 0,-172.82 0,-154.32 28,-154.32 28,-172.82"/>
<text text-anchor="middle" x="14" y="-160.27" font-family="Times,serif" font-size="9.00">&#45;20</text>
</g>
<!-- &#45;20&#45;&gt;186 -->
<g id="edge11" class="edge">
<title>&#45;20&#45;&gt;186</title>
<path fill="none" stroke="red" stroke-width="0.18" stroke-dasharray="1,5" d="M22.3,-153.89C26.41,-150.01 31.64,-145.66 37,-142.71 87.79,-114.83 154.2,-99.21 192.38,-91.95"/>
<polygon fill="red" stroke="red" stroke-width="0.18" points="192.89,-95.42 202.09,-90.17 191.63,-88.53 192.89,-95.42"/>
</g>
<!-- 0 -->
<g id="node21" class="node">
<title>0</title>
<ellipse fill="lightblue" stroke="black" cx="719" cy="-14.5" rx="14.5" ry="14.5"/>
<text text-anchor="middle" x="719" y="-11.2" font-family="Times,serif" font-size="9.00">0</text>
</g>
<!-- 0&#45;&gt;0 -->
<g id="edge34" class="edge">
<title>0&#45;&gt;0</title>
<path fill="none" stroke="green" stroke-width="0.17" d="M729.32,-24.94C739.81,-31.08 751.5,-27.6 751.5,-14.5 751.5,-5.49 745.97,-1.03 739.11,-1.12"/>
<polygon fill="green" stroke="green" stroke-width="0.17" points="738.13,2.24 729.56,-3.98 740.15,-4.46 738.13,2.24"/>
</g>
<!-- 1 -->
<g id="node22" class="node">
<title>1</title>
<ellipse fill="lightblue" stroke="black" cx="333" cy="-14.5" rx="14.5" ry="14.5"/>
<text text-anchor="middle" x="333" y="-11.2" font-family="Times,serif" font-size="9.00">1</text>
</g>
<!-- 3 -->
<g id="node24" class="node">
<title>3</title>
<ellipse fill="lightblue" stroke="black" cx="653" cy="-14.5" rx="14.5" ry="14.5"/>
<text text-anchor="middle" x="653" y="-11.2" font-family="Times,serif" font-size="9.00">3</text>
</g>
<!-- 4 -->
<g id="node25" class="node">
<title>4</title>
<ellipse fill="lightblue" stroke="black" cx="536" cy="-14.5" rx="14.5" ry="14.5"/>
<text text-anchor="middle" x="536" y="-11.2" font-family="Times,serif" font-size="9.00">4</text>
</g>
<!-- 4&#45;&gt;4 -->
<g id="edge32" class="edge">
<title>4&#45;&gt;4</title>
<path fill="none" stroke="red" stroke-width="0.12" stroke-dasharray="1,5" d="M546.32,-24.94C556.81,-31.08 568.5,-27.6 568.5,-14.5 568.5,-5.28 562.72,-0.83 555.64,-1.13"/>
<polygon fill="red" stroke="red" stroke-width="0.12" points="554.98,2.33 546.49,-4 557.08,-4.35 554.98,2.33"/>
</g>
<!-- 345&#45;&gt;186 -->
<g id="edge43" class="edge">
<title>345&#45;&gt;186</title>
<path fill="none" stroke="green" stroke-width="0.49" stroke-dasharray="1,5" d="M83.83,-150.72C88.04,-147.95 92.62,-145.11 97,-142.71 129.1,-125.13 167.81,-108.62 193.78,-98.18"/>
<polygon fill="green" stroke="green" stroke-width="0.49" points="195.06,-101.44 203.06,-94.49 192.47,-94.93 195.06,-101.44"/>
</g>
<!-- 185&#45;&gt;0 -->
<g id="edge3" class="edge">
<title>185&#45;&gt;0</title>
<path fill="none" stroke="red" stroke-width="0.21" stroke-dasharray="1,5" d="M614.15,-74.62C636.35,-62.1 673.89,-40.93 697.51,-27.61"/>
<polygon fill="red" stroke="red" stroke-width="0.21" points="699.14,-30.71 706.13,-22.75 695.7,-24.61 699.14,-30.71"/>
</g>
<!-- 185&#45;&gt;2 -->
<g id="edge33" class="edge">
<title>185&#45;&gt;2</title>
<path fill="none" stroke="green" stroke-width="0.18" stroke-dasharray="1,5" d="M597.45,-64.79C598.02,-56.89 598.67,-47.75 599.27,-39.5"/>
<polygon fill="green" stroke="green" stroke-width="0.18" points="602.75,-39.85 599.98,-29.62 595.77,-39.35 602.75,-39.85"/>
</g>
<!-- 185&#45;&gt;3 -->
<g id="edge16" class="edge">
<title>185&#45;&gt;3</title>
<path fill="none" stroke="red" stroke-width="0.1" d="M608.93,-69.11C617.52,-58.67 628.82,-44.91 637.83,-33.95"/>
<polygon fill="red" stroke="red" stroke-width="0.1" points="640.45,-36.28 644.09,-26.33 635.04,-31.84 640.45,-36.28"/>
</g>
<!-- 185&#45;&gt;4 -->
<g id="edge37" class="edge">
<title>185&#45;&gt;4</title>
<path fill="none" stroke="green" stroke-width="0.19" d="M582.68,-69.46C573.46,-58.8 561.15,-44.57 551.49,-33.4"/>
<polygon fill="green" stroke="green" stroke-width="0.19" points="554.38,-31.39 545.19,-26.12 549.09,-35.97 554.38,-31.39"/>
</g>
<!-- 186&#45;&gt;1 -->
<g id="edge38" class="edge">
<title>186&#45;&gt;1</title>
<path fill="none" stroke="red" stroke-width="0.31" d="M240.19,-74.01C259.68,-61.72 291.45,-41.69 312.3,-28.55"/>
<polygon fill="red" stroke="red" stroke-width="0.31" points="314.03,-31.59 320.62,-23.3 310.3,-25.67 314.03,-31.59"/>
</g>
<!-- 187&#45;&gt;1 -->
<g id="edge8" class="edge">
<title>187&#45;&gt;1</title>
<path fill="none" stroke="green" stroke-width="0.18" d="M404.04,-72.13C389.39,-60.45 367.66,-43.12 352.09,-30.71"/>
<polygon fill="green" stroke="green" stroke-width="0.18" points="354.37,-28.06 344.37,-24.56 350.01,-33.53 354.37,-28.06"/>
</g>
<!-- 188&#45;&gt;0 -->
<g id="edge15" class="edge">
<title>188&#45;&gt;0</title>
<path fill="none" stroke="red" stroke-width="0.72" stroke-dasharray="1,5" d="M725.4,-64.79C724.41,-57.16 723.27,-48.37 722.22,-40.34"/>
<polygon fill="red" stroke="red" stroke-width="0.72" points="725.7,-39.9 720.94,-30.44 718.75,-40.8 725.7,-39.9"/>
</g>
<!-- 188&#45;&gt;2 -->
<g id="edge26" class="edge">
<title>188&#45;&gt;2</title>
<path fill="none" stroke="green" stroke-width="0.19" stroke-dasharray="1,5" d="M709.8,-74.91C686.67,-62.28 646.81,-40.51 622.29,-27.12"/>
<polygon fill="green" stroke="green" stroke-width="0.19" points="624.12,-24.13 613.67,-22.41 620.77,-30.28 624.12,-24.13"/>
</g>
<!-- 188&#45;&gt;3 -->
<g id="edge35" class="edge">
<title>188&#45;&gt;3</title>
<path fill="none" stroke="red" stroke-width="0.17" stroke-dasharray="1,5" d="M713.18,-71.15C701.02,-59.9 683.76,-43.94 670.84,-32"/>
<polygon fill="red" stroke="red" stroke-width="0.17" points="673.35,-29.55 663.63,-25.33 668.6,-34.68 673.35,-29.55"/>
</g>
<!-- 607&#45;&gt;345 -->
<g id="edge46" class="edge">
<title>607&#45;&gt;345</title>
<path fill="none" stroke="green" stroke-width="0.24" d="M67.73,-220C67.63,-212.36 67.51,-203.49 67.4,-195.12"/>
<polygon fill="green" stroke="green" stroke-width="0.24" points="70.91,-195.24 67.27,-185.28 63.91,-195.33 70.91,-195.24"/>
</g>
</g>
</svg>
