<?xml version="1.0" encoding="UTF-8" standalone="no"?>
<!DOCTYPE svg PUBLIC "-//W3C//DTD SVG 1.1//EN"
 "http://www.w3.org/Graphics/SVG/1.1/DTD/svg11.dtd">
<!-- Generated by graphviz version 12.1.1 (20240910.0053)
 -->
<!-- Pages: 1 -->
<svg width="1007pt" height="253pt"
 viewBox="0.00 0.00 1007.00 253.29" xmlns="http://www.w3.org/2000/svg" xmlns:xlink="http://www.w3.org/1999/xlink">
<g id="graph0" class="graph" transform="scale(1 1) rotate(0) translate(4 249.29)">
<polygon fill="white" stroke="none" points="-4,4 -4,-249.29 1003,-249.29 1003,4 -4,4"/>
<!-- &#45;1 -->
<g id="node1" class="node">
<title>&#45;1</title>
<polygon fill="lightgray" stroke="black" points="325.75,-179.18 302.25,-179.18 302.25,-160.68 325.75,-160.68 325.75,-179.18"/>
<text text-anchor="middle" x="314" y="-166.63" font-family="Times,serif" font-size="9.00">&#45;1</text>
</g>
<!-- 79 -->
<g id="node30" class="node">
<title>79</title>
<ellipse fill="white" stroke="black" cx="314" cy="-95.4" rx="17.68" ry="17.68"/>
<text text-anchor="middle" x="314" y="-92.1" font-family="Times,serif" font-size="9.00">79</text>
</g>
<!-- &#45;1&#45;&gt;79 -->
<g id="edge30" class="edge">
<title>&#45;1&#45;&gt;79</title>
<path fill="none" stroke="green" stroke-width="0.33" stroke-dasharray="1,5" d="M314,-160.33C314,-151.36 314,-136.83 314,-123.88"/>
<polygon fill="green" stroke="green" stroke-width="0.33" points="317.5,-124.04 314,-114.04 310.5,-124.04 317.5,-124.04"/>
</g>
<!-- 80 -->
<g id="node31" class="node">
<title>80</title>
<ellipse fill="white" stroke="black" cx="508" cy="-95.4" rx="17.68" ry="17.68"/>
<text text-anchor="middle" x="508" y="-92.1" font-family="Times,serif" font-size="9.00">80</text>
</g>
<!-- &#45;1&#45;&gt;80 -->
<g id="edge7" class="edge">
<title>&#45;1&#45;&gt;80</title>
<path fill="none" stroke="green" stroke-width="0.33" d="M321.46,-160.24C325.18,-156.35 329.97,-152 335,-149.07 381.98,-121.76 444.52,-107.3 480.1,-100.8"/>
<polygon fill="green" stroke="green" stroke-width="0.33" points="480.49,-104.28 489.74,-99.12 479.29,-97.39 480.49,-104.28"/>
</g>
<!-- &#45;2 -->
<g id="node2" class="node">
<title>&#45;2</title>
<polygon fill="lightgray" stroke="black" points="453.75,-245.29 430.25,-245.29 430.25,-226.79 453.75,-226.79 453.75,-245.29"/>
<text text-anchor="middle" x="442" y="-232.74" font-family="Times,serif" font-size="9.00">&#45;2</text>
</g>
<!-- 77 -->
<g id="node28" class="node">
<title>77</title>
<ellipse fill="white" stroke="black" cx="261" cy="-95.4" rx="17.68" ry="17.68"/>
<text text-anchor="middle" x="261" y="-92.1" font-family="Times,serif" font-size="9.00">77</text>
</g>
<!-- &#45;2&#45;&gt;77 -->
<g id="edge2" class="edge">
<title>&#45;2&#45;&gt;77</title>
<path fill="none" stroke="green" stroke-width="0.19" stroke-dasharray="1,5" d="M429.87,-234.52C369.04,-231.76 99.16,-218.04 75,-190.79 62.7,-176.92 63.82,-163.86 75,-149.07 94.11,-123.8 186.19,-107.16 233.22,-100.16"/>
<polygon fill="green" stroke="green" stroke-width="0.19" points="233.65,-103.63 243.05,-98.74 232.65,-96.7 233.65,-103.63"/>
</g>
<!-- 78 -->
<g id="node29" class="node">
<title>78</title>
<ellipse fill="white" stroke="black" cx="660" cy="-95.4" rx="17.68" ry="17.68"/>
<text text-anchor="middle" x="660" y="-92.1" font-family="Times,serif" font-size="9.00">78</text>
</g>
<!-- &#45;2&#45;&gt;78 -->
<g id="edge43" class="edge">
<title>&#45;2&#45;&gt;78</title>
<path fill="none" stroke="green" stroke-width="0.54" stroke-dasharray="1,5" d="M454.08,-234.77C498.72,-233.49 653.25,-226.5 683,-190.79 699.78,-170.66 687.71,-140.19 675.64,-119.35"/>
<polygon fill="green" stroke="green" stroke-width="0.54" points="678.68,-117.61 670.45,-110.95 672.73,-121.29 678.68,-117.61"/>
</g>
<!-- &#45;2&#45;&gt;79 -->
<g id="edge16" class="edge">
<title>&#45;2&#45;&gt;79</title>
<path fill="none" stroke="green" stroke-width="0.34" d="M429.92,-234.77C385.28,-233.49 230.75,-226.5 201,-190.79 189.13,-176.55 190.7,-164.49 201,-149.07 224.25,-114.28 250.91,-132.45 288,-113.07 288.97,-112.57 289.96,-112.03 290.95,-111.48"/>
<polygon fill="green" stroke="green" stroke-width="0.34" points="292.49,-114.63 299.26,-106.48 288.89,-108.63 292.49,-114.63"/>
</g>
<!-- 333 -->
<g id="node32" class="node">
<title>333</title>
<ellipse fill="white" stroke="black" cx="751" cy="-169.93" rx="20.86" ry="20.86"/>
<text text-anchor="middle" x="751" y="-166.63" font-family="Times,serif" font-size="9.00">333</text>
</g>
<!-- &#45;2&#45;&gt;333 -->
<g id="edge48" class="edge">
<title>&#45;2&#45;&gt;333</title>
<path fill="none" stroke="green" stroke-width="0.21" stroke-dasharray="1,5" d="M454.12,-234.61C493.2,-232.9 618.95,-224.92 716,-190.79 718.94,-189.76 721.91,-188.49 724.82,-187.08"/>
<polygon fill="green" stroke="green" stroke-width="0.21" points="726.31,-190.26 733.49,-182.47 723.02,-184.08 726.31,-190.26"/>
</g>
<!-- &#45;3 -->
<g id="node3" class="node">
<title>&#45;3</title>
<polygon fill="lightgray" stroke="black" points="911.75,-179.18 888.25,-179.18 888.25,-160.68 911.75,-160.68 911.75,-179.18"/>
<text text-anchor="middle" x="900" y="-166.63" font-family="Times,serif" font-size="9.00">&#45;3</text>
</g>
<!-- &#45;3&#45;&gt;78 -->
<g id="edge14" class="edge">
<title>&#45;3&#45;&gt;78</title>
<path fill="none" stroke="green" stroke-width="0.14" stroke-dasharray="1,5" d="M893,-160.5C889.24,-156.49 884.29,-151.94 879,-149.07 816.09,-114.97 731.22,-102.71 687.93,-98.48"/>
<polygon fill="green" stroke="green" stroke-width="0.14" points="688.34,-95.01 678.06,-97.6 687.71,-101.98 688.34,-95.01"/>
</g>
<!-- &#45;4 -->
<g id="node4" class="node">
<title>&#45;4</title>
<polygon fill="lightgray" stroke="black" points="455.75,-179.18 432.25,-179.18 432.25,-160.68 455.75,-160.68 455.75,-179.18"/>
<text text-anchor="middle" x="444" y="-166.63" font-family="Times,serif" font-size="9.00">&#45;4</text>
</g>
<!-- &#45;4&#45;&gt;78 -->
<g id="edge52" class="edge">
<title>&#45;4&#45;&gt;78</title>
<path fill="none" stroke="green" stroke-width="0.42" d="M451.04,-160.57C454.8,-156.57 459.75,-152.02 465,-149.07 519.41,-118.59 592.35,-105.04 631.8,-99.6"/>
<polygon fill="green" stroke="green" stroke-width="0.42" points="632.12,-103.09 641.59,-98.33 631.22,-96.15 632.12,-103.09"/>
</g>
<!-- &#45;4&#45;&gt;79 -->
<g id="edge23" class="edge">
<title>&#45;4&#45;&gt;79</title>
<path fill="none" stroke="green" stroke-width="0.15" d="M436.33,-160.58C432.55,-156.77 427.79,-152.38 423,-149.07 396.48,-130.78 362.63,-115.5 339.74,-106.19"/>
<polygon fill="green" stroke="green" stroke-width="0.15" points="341.16,-102.99 330.58,-102.55 338.57,-109.5 341.16,-102.99"/>
</g>
<!-- &#45;5 -->
<g id="node5" class="node">
<title>&#45;5</title>
<polygon fill="lightgray" stroke="black" points="762.75,-245.29 739.25,-245.29 739.25,-226.79 762.75,-226.79 762.75,-245.29"/>
<text text-anchor="middle" x="751" y="-232.74" font-family="Times,serif" font-size="9.00">&#45;5</text>
</g>
<!-- 260 -->
<g id="node26" class="node">
<title>260</title>
<ellipse fill="white" stroke="black" cx="618" cy="-20.86" rx="20.86" ry="20.86"/>
<text text-anchor="middle" x="618" y="-17.56" font-family="Times,serif" font-size="9.00">260</text>
</g>
<!-- &#45;5&#45;&gt;260 -->
<g id="edge50" class="edge">
<title>&#45;5&#45;&gt;260</title>
<path fill="none" stroke="green" stroke-width="0.19" d="M763.09,-233.78C798.59,-229.8 901.32,-216.25 921,-190.79 932.34,-176.12 931.26,-164.52 921,-149.07 858.77,-55.46 712.85,-30.59 648.92,-24.1"/>
<polygon fill="green" stroke="green" stroke-width="0.19" points="649.61,-20.65 639.32,-23.2 648.96,-27.62 649.61,-20.65"/>
</g>
<!-- &#45;5&#45;&gt;80 -->
<g id="edge4" class="edge">
<title>&#45;5&#45;&gt;80</title>
<path fill="none" stroke="green" stroke-width="0.28" d="M738.81,-232.29C716.95,-226.93 670.27,-213.61 637,-190.79 616.32,-176.61 618.53,-164.81 599,-149.07 578.55,-132.59 552.33,-117.99 533.29,-108.37"/>
<polygon fill="green" stroke="green" stroke-width="0.28" points="534.96,-105.29 524.44,-103.99 531.86,-111.56 534.96,-105.29"/>
</g>
<!-- &#45;5&#45;&gt;333 -->
<g id="edge51" class="edge">
<title>&#45;5&#45;&gt;333</title>
<path fill="none" stroke="green" stroke-width="0.56" d="M751,-226.4C751,-220.03 751,-210.96 751,-201.99"/>
<polygon fill="green" stroke="green" stroke-width="0.56" points="754.5,-202.13 751,-192.13 747.5,-202.13 754.5,-202.13"/>
</g>
<!-- &#45;6 -->
<g id="node6" class="node">
<title>&#45;6</title>
<polygon fill="lightgray" stroke="black" points="153.75,-179.18 130.25,-179.18 130.25,-160.68 153.75,-160.68 153.75,-179.18"/>
<text text-anchor="middle" x="142" y="-166.63" font-family="Times,serif" font-size="9.00">&#45;6</text>
</g>
<!-- &#45;6&#45;&gt;79 -->
<g id="edge31" class="edge">
<title>&#45;6&#45;&gt;79</title>
<path fill="none" stroke="green" stroke-width="0.11" d="M151.56,-160.3C156.24,-156.43 162.13,-152.07 168,-149.07 217.6,-123.76 237.41,-136.33 288,-113.07 289.12,-112.56 290.26,-112 291.39,-111.41"/>
<polygon fill="green" stroke="green" stroke-width="0.11" points="292.81,-114.63 299.69,-106.58 289.28,-108.58 292.81,-114.63"/>
</g>
<!-- &#45;7 -->
<g id="node7" class="node">
<title>&#45;7</title>
<polygon fill="lightgray" stroke="black" points="367.75,-179.18 344.25,-179.18 344.25,-160.68 367.75,-160.68 367.75,-179.18"/>
<text text-anchor="middle" x="356" y="-166.63" font-family="Times,serif" font-size="9.00">&#45;7</text>
</g>
<!-- &#45;7&#45;&gt;78 -->
<g id="edge11" class="edge">
<title>&#45;7&#45;&gt;78</title>
<path fill="none" stroke="green" stroke-width="0.12" d="M362.94,-160.39C366.68,-156.34 371.63,-151.81 377,-149.07 399.72,-137.51 566.07,-110.91 632.61,-100.59"/>
<polygon fill="green" stroke="green" stroke-width="0.12" points="632.86,-104.09 642.21,-99.11 631.79,-97.18 632.86,-104.09"/>
</g>
<!-- &#45;7&#45;&gt;79 -->
<g id="edge37" class="edge">
<title>&#45;7&#45;&gt;79</title>
<path fill="none" stroke="red" stroke-width="0.78" d="M351.02,-160.33C345.39,-150.6 335.97,-134.35 328.05,-120.66"/>
<polygon fill="red" stroke="red" stroke-width="0.78" points="331.25,-119.2 323.21,-112.3 325.19,-122.71 331.25,-119.2"/>
</g>
<!-- &#45;8 -->
<g id="node8" class="node">
<title>&#45;8</title>
<polygon fill="lightgray" stroke="black" points="860.75,-245.29 837.25,-245.29 837.25,-226.79 860.75,-226.79 860.75,-245.29"/>
<text text-anchor="middle" x="849" y="-232.74" font-family="Times,serif" font-size="9.00">&#45;8</text>
</g>
<!-- 3 -->
<g id="node24" class="node">
<title>3</title>
<ellipse fill="lightblue" stroke="black" cx="890" cy="-20.86" rx="14.5" ry="14.5"/>
<text text-anchor="middle" x="890" y="-17.56" font-family="Times,serif" font-size="9.00">3</text>
</g>
<!-- &#45;8&#45;&gt;3 -->
<g id="edge45" class="edge">
<title>&#45;8&#45;&gt;3</title>
<path fill="none" stroke="green" stroke-width="0.51" d="M860.86,-230.25C888.04,-219.22 952.62,-192.87 954,-190.79 981.79,-148.92 974.79,-123.47 954,-77.72 945.39,-58.78 926.83,-43.75 911.9,-34.07"/>
<polygon fill="green" stroke="green" stroke-width="0.51" points="913.78,-31.11 903.42,-28.9 910.13,-37.09 913.78,-31.11"/>
</g>
<!-- 299 -->
<g id="node27" class="node">
<title>299</title>
<ellipse fill="white" stroke="black" cx="849" cy="-169.93" rx="20.86" ry="20.86"/>
<text text-anchor="middle" x="849" y="-166.63" font-family="Times,serif" font-size="9.00">299</text>
</g>
<!-- &#45;8&#45;&gt;299 -->
<g id="edge46" class="edge">
<title>&#45;8&#45;&gt;299</title>
<path fill="none" stroke="green" stroke-width="0.3" stroke-dasharray="1,5" d="M849,-226.4C849,-219.96 849,-210.76 849,-201.69"/>
<polygon fill="green" stroke="green" stroke-width="0.3" points="852.5,-201.74 849,-191.74 845.5,-201.74 852.5,-201.74"/>
</g>
<!-- &#45;8&#45;&gt;78 -->
<g id="edge13" class="edge">
<title>&#45;8&#45;&gt;78</title>
<path fill="none" stroke="red" stroke-width="0.2" d="M843.03,-226.46C829.43,-207.09 796.15,-160.74 781,-149.07 752.15,-126.87 712.5,-111.93 686.56,-103.8"/>
<polygon fill="red" stroke="red" stroke-width="0.2" points="687.89,-100.54 677.3,-101 685.87,-107.24 687.89,-100.54"/>
</g>
<!-- &#45;9 -->
<g id="node9" class="node">
<title>&#45;9</title>
<polygon fill="lightgray" stroke="black" points="497.75,-179.18 474.25,-179.18 474.25,-160.68 497.75,-160.68 497.75,-179.18"/>
<text text-anchor="middle" x="486" y="-166.63" font-family="Times,serif" font-size="9.00">&#45;9</text>
</g>
<!-- &#45;9&#45;&gt;80 -->
<g id="edge39" class="edge">
<title>&#45;9&#45;&gt;80</title>
<path fill="none" stroke="red" stroke-width="0.31" stroke-dasharray="1,5" d="M488.61,-160.33C491.44,-151 496.09,-135.65 500.13,-122.34"/>
<polygon fill="red" stroke="red" stroke-width="0.31" points="503.37,-123.72 502.92,-113.13 496.67,-121.68 503.37,-123.72"/>
</g>
<!-- &#45;10 -->
<g id="node10" class="node">
<title>&#45;10</title>
<polygon fill="lightgray" stroke="black" points="544,-179.18 516,-179.18 516,-160.68 544,-160.68 544,-179.18"/>
<text text-anchor="middle" x="530" y="-166.63" font-family="Times,serif" font-size="9.00">&#45;10</text>
</g>
<!-- &#45;10&#45;&gt;80 -->
<g id="edge33" class="edge">
<title>&#45;10&#45;&gt;80</title>
<path fill="none" stroke="green" stroke-width="0.22" stroke-dasharray="1,5" d="M527.39,-160.33C524.56,-151 519.91,-135.65 515.87,-122.34"/>
<polygon fill="green" stroke="green" stroke-width="0.22" points="519.29,-121.55 513.04,-113 512.59,-123.59 519.29,-121.55"/>
</g>
<!-- &#45;11 -->
<g id="node11" class="node">
<title>&#45;11</title>
<polygon fill="lightgray" stroke="black" points="907,-245.29 879,-245.29 879,-226.79 907,-226.79 907,-245.29"/>
<text text-anchor="middle" x="893" y="-232.74" font-family="Times,serif" font-size="9.00">&#45;11</text>
</g>
<!-- &#45;12 -->
<g id="node12" class="node">
<title>&#45;12</title>
<polygon fill="lightgray" stroke="black" points="28,-179.18 0,-179.18 0,-160.68 28,-160.68 28,-179.18"/>
<text text-anchor="middle" x="14" y="-166.63" font-family="Times,serif" font-size="9.00">&#45;12</text>
</g>
<!-- &#45;12&#45;&gt;77 -->
<g id="edge40" class="edge">
<title>&#45;12&#45;&gt;77</title>
<path fill="none" stroke="red" stroke-width="0.68" stroke-dasharray="1,5" d="M24.06,-160.38C29.15,-156.43 35.6,-151.98 42,-149.07 106.57,-119.73 189.57,-105.53 232.48,-99.74"/>
<polygon fill="red" stroke="red" stroke-width="0.68" points="232.73,-103.23 242.2,-98.48 231.83,-96.29 232.73,-103.23"/>
</g>
<!-- &#45;13 -->
<g id="node13" class="node">
<title>&#45;13</title>
<polygon fill="lightgray" stroke="black" points="674,-179.18 646,-179.18 646,-160.68 674,-160.68 674,-179.18"/>
<text text-anchor="middle" x="660" y="-166.63" font-family="Times,serif" font-size="9.00">&#45;13</text>
</g>
<!-- &#45;13&#45;&gt;78 -->
<g id="edge19" class="edge">
<title>&#45;13&#45;&gt;78</title>
<path fill="none" stroke="red" stroke-width="0.34" d="M660,-160.33C660,-151.36 660,-136.83 660,-123.88"/>
<polygon fill="red" stroke="red" stroke-width="0.34" points="663.5,-124.06 660,-114.06 656.5,-124.06 663.5,-124.06"/>
</g>
<!-- &#45;13&#45;&gt;80 -->
<g id="edge21" class="edge">
<title>&#45;13&#45;&gt;80</title>
<path fill="none" stroke="green" stroke-width="0.26" stroke-dasharray="1,5" d="M648.92,-160.24C643.92,-156.54 637.83,-152.33 632,-149.07 599.69,-131.03 559.96,-115.17 534.32,-105.69"/>
<polygon fill="green" stroke="green" stroke-width="0.26" points="535.55,-102.41 524.95,-102.28 533.15,-108.99 535.55,-102.41"/>
</g>
<!-- &#45;14 -->
<g id="node14" class="node">
<title>&#45;14</title>
<polygon fill="lightgray" stroke="black" points="112,-179.18 84,-179.18 84,-160.68 112,-160.68 112,-179.18"/>
<text text-anchor="middle" x="98" y="-166.63" font-family="Times,serif" font-size="9.00">&#45;14</text>
</g>
<!-- &#45;14&#45;&gt;77 -->
<g id="edge15" class="edge">
<title>&#45;14&#45;&gt;77</title>
<path fill="none" stroke="green" stroke-width="0.59" d="M106.39,-160.42C110.52,-156.57 115.74,-152.2 121,-149.07 157.43,-127.43 204.29,-111.98 233.49,-103.62"/>
<polygon fill="green" stroke="green" stroke-width="0.59" points="234.2,-107.05 242.89,-101 232.32,-100.31 234.2,-107.05"/>
</g>
<!-- &#45;14&#45;&gt;79 -->
<g id="edge26" class="edge">
<title>&#45;14&#45;&gt;79</title>
<path fill="none" stroke="green" stroke-width="0.15" stroke-dasharray="1,5" d="M105.78,-160.47C109.93,-156.44 115.33,-151.9 121,-149.07 188.96,-115.21 217.81,-142.03 288,-113.07 289.02,-112.66 290.04,-112.2 291.05,-111.71"/>
<polygon fill="green" stroke="green" stroke-width="0.15" points="292.73,-114.78 299.73,-106.82 289.3,-108.68 292.73,-114.78"/>
</g>
<!-- &#45;15 -->
<g id="node15" class="node">
<title>&#45;15</title>
<polygon fill="lightgray" stroke="black" points="284,-179.18 256,-179.18 256,-160.68 284,-160.68 284,-179.18"/>
<text text-anchor="middle" x="270" y="-166.63" font-family="Times,serif" font-size="9.00">&#45;15</text>
</g>
<!-- &#45;15&#45;&gt;77 -->
<g id="edge22" class="edge">
<title>&#45;15&#45;&gt;77</title>
<path fill="none" stroke="red" stroke-width="0.51" stroke-dasharray="1,5" d="M268.93,-160.33C267.81,-151.3 265.99,-136.64 264.38,-123.63"/>
<polygon fill="red" stroke="red" stroke-width="0.51" points="267.89,-123.51 263.19,-114.01 260.94,-124.37 267.89,-123.51"/>
</g>
<!-- &#45;15&#45;&gt;80 -->
<g id="edge12" class="edge">
<title>&#45;15&#45;&gt;80</title>
<path fill="none" stroke="red" stroke-width="0.16" stroke-dasharray="1,5" d="M277.81,-160.53C281.97,-156.52 287.37,-151.98 293,-149.07 355.05,-117.06 437.32,-103.96 479.85,-99.04"/>
<polygon fill="red" stroke="red" stroke-width="0.16" points="480.22,-102.53 489.78,-97.97 479.46,-95.57 480.22,-102.53"/>
</g>
<!-- &#45;16 -->
<g id="node16" class="node">
<title>&#45;16</title>
<polygon fill="lightgray" stroke="black" points="953,-245.29 925,-245.29 925,-226.79 953,-226.79 953,-245.29"/>
<text text-anchor="middle" x="939" y="-232.74" font-family="Times,serif" font-size="9.00">&#45;16</text>
</g>
<!-- &#45;17 -->
<g id="node17" class="node">
<title>&#45;17</title>
<polygon fill="lightgray" stroke="black" points="590,-179.18 562,-179.18 562,-160.68 590,-160.68 590,-179.18"/>
<text text-anchor="middle" x="576" y="-166.63" font-family="Times,serif" font-size="9.00">&#45;17</text>
</g>
<!-- &#45;17&#45;&gt;80 -->
<g id="edge27" class="edge">
<title>&#45;17&#45;&gt;80</title>
<path fill="none" stroke="green" stroke-width="0.47" d="M567.93,-160.33C557.84,-149.56 540.24,-130.79 526.72,-116.36"/>
<polygon fill="green" stroke="green" stroke-width="0.47" points="529.57,-114.29 520.18,-109.39 524.47,-119.08 529.57,-114.29"/>
</g>
<!-- &#45;18 -->
<g id="node18" class="node">
<title>&#45;18</title>
<polygon fill="lightgray" stroke="black" points="999,-245.29 971,-245.29 971,-226.79 999,-226.79 999,-245.29"/>
<text text-anchor="middle" x="985" y="-232.74" font-family="Times,serif" font-size="9.00">&#45;18</text>
</g>
<!-- &#45;19 -->
<g id="node19" class="node">
<title>&#45;19</title>
<polygon fill="lightgray" stroke="black" points="238,-179.18 210,-179.18 210,-160.68 238,-160.68 238,-179.18"/>
<text text-anchor="middle" x="224" y="-166.63" font-family="Times,serif" font-size="9.00">&#45;19</text>
</g>
<!-- &#45;19&#45;&gt;77 -->
<g id="edge24" class="edge">
<title>&#45;19&#45;&gt;77</title>
<path fill="none" stroke="red" stroke-width="0.33" stroke-dasharray="1,5" d="M228.39,-160.33C233.37,-150.57 241.7,-134.24 248.69,-120.52"/>
<polygon fill="red" stroke="red" stroke-width="0.33" points="251.61,-122.51 253.04,-112.01 245.37,-119.33 251.61,-122.51"/>
</g>
<!-- &#45;19&#45;&gt;79 -->
<g id="edge17" class="edge">
<title>&#45;19&#45;&gt;79</title>
<path fill="none" stroke="green" stroke-width="0.41" d="M233.76,-160.33C237.82,-156.8 242.6,-152.7 247,-149.07 261.89,-136.8 279,-123.36 292.2,-113.13"/>
<polygon fill="green" stroke="green" stroke-width="0.41" points="293.99,-116.17 299.76,-107.29 289.71,-110.63 293.99,-116.17"/>
</g>
<!-- &#45;19&#45;&gt;80 -->
<g id="edge3" class="edge">
<title>&#45;19&#45;&gt;80</title>
<path fill="none" stroke="green" stroke-width="0.66" d="M231.76,-160.43C235.91,-156.4 241.32,-151.86 247,-149.07 287.96,-129 420.87,-108.57 479.62,-100.26"/>
<polygon fill="green" stroke="green" stroke-width="0.66" points="479.92,-103.76 489.34,-98.91 478.96,-96.82 479.92,-103.76"/>
</g>
<!-- &#45;20 -->
<g id="node20" class="node">
<title>&#45;20</title>
<polygon fill="lightgray" stroke="black" points="414,-179.18 386,-179.18 386,-160.68 414,-160.68 414,-179.18"/>
<text text-anchor="middle" x="400" y="-166.63" font-family="Times,serif" font-size="9.00">&#45;20</text>
</g>
<!-- &#45;20&#45;&gt;78 -->
<g id="edge32" class="edge">
<title>&#45;20&#45;&gt;78</title>
<path fill="none" stroke="red" stroke-width="0.64" d="M407.79,-160.48C411.94,-156.46 417.34,-151.92 423,-149.07 459.57,-130.71 577.03,-109.89 631.62,-100.91"/>
<polygon fill="red" stroke="red" stroke-width="0.64" points="632,-104.4 641.31,-99.34 630.88,-97.49 632,-104.4"/>
</g>
<!-- &#45;20&#45;&gt;79 -->
<g id="edge8" class="edge">
<title>&#45;20&#45;&gt;79</title>
<path fill="none" stroke="red" stroke-width="0.49" stroke-dasharray="1,5" d="M390.18,-160.4C386.11,-156.88 381.34,-152.76 377,-149.07 363.19,-137.34 347.55,-124.27 335.32,-114.08"/>
<polygon fill="red" stroke="red" stroke-width="0.49" points="337.58,-111.41 327.66,-107.71 333.11,-116.8 337.58,-111.41"/>
</g>
<!-- 0 -->
<g id="node21" class="node">
<title>0</title>
<ellipse fill="lightblue" stroke="black" cx="263" cy="-20.86" rx="14.5" ry="14.5"/>
<text text-anchor="middle" x="263" y="-17.56" font-family="Times,serif" font-size="9.00">0</text>
</g>
<!-- 1 -->
<g id="node22" class="node">
<title>1</title>
<ellipse fill="lightblue" stroke="black" cx="311" cy="-20.86" rx="14.5" ry="14.5"/>
<text text-anchor="middle" x="311" y="-17.56" font-family="Times,serif" font-size="9.00">1</text>
</g>
<!-- 2 -->
<g id="node23" class="node">
<title>2</title>
<ellipse fill="lightblue" stroke="black" cx="358" cy="-20.86" rx="14.5" ry="14.5"/>
<text text-anchor="middle" x="358" y="-17.56" font-family="Times,serif" font-size="9.00">2</text>
</g>
<!-- 3&#45;&gt;3 -->
<g id="edge34" class="edge">
<title>3&#45;&gt;3</title>
<path fill="none" stroke="red" stroke-width="0.28" stroke-dasharray="1,5" d="M899.98,-31.56C910.56,-38.26 922.5,-34.69 922.5,-20.86 922.5,-11.14 916.6,-6.49 909.41,-6.91"/>
<polygon fill="red" stroke="red" stroke-width="0.28" points="908.7,-3.46 900.38,-10.02 910.98,-10.07 908.7,-3.46"/>
</g>
<!-- 4 -->
<g id="node25" class="node">
<title>4</title>
<ellipse fill="lightblue" stroke="black" cx="542" cy="-20.86" rx="14.5" ry="14.5"/>
<text text-anchor="middle" x="542" y="-17.56" font-family="Times,serif" font-size="9.00">4</text>
</g>
<!-- 4&#45;&gt;4 -->
<g id="edge1" class="edge">
<title>4&#45;&gt;4</title>
<path fill="none" stroke="red" stroke-width="0.17" d="M551.98,-31.56C562.56,-38.26 574.5,-34.69 574.5,-20.86 574.5,-11.14 568.6,-6.49 561.41,-6.91"/>
<polygon fill="red" stroke="red" stroke-width="0.17" points="560.54,-3.51 552.22,-10.08 562.82,-10.13 560.54,-3.51"/>
</g>
<!-- 299&#45;&gt;78 -->
<g id="edge47" class="edge">
<title>299&#45;&gt;78</title>
<path fill="none" stroke="green" stroke-width="0.33" d="M831.53,-158.17C826.03,-155.02 819.86,-151.71 814,-149.07 770.71,-129.59 717.91,-112.99 686.73,-103.88"/>
<polygon fill="green" stroke="green" stroke-width="0.33" points="688.09,-100.63 677.51,-101.23 686.15,-107.36 688.09,-100.63"/>
</g>
<!-- 77&#45;&gt;0 -->
<g id="edge41" class="edge">
<title>77&#45;&gt;0</title>
<path fill="none" stroke="red" stroke-width="0.47" d="M261.46,-77.57C261.72,-68.23 262.05,-56.44 262.33,-46.12"/>
<polygon fill="red" stroke="red" stroke-width="0.47" points="265.82,-46.48 262.6,-36.38 258.83,-46.28 265.82,-46.48"/>
</g>
<!-- 77&#45;&gt;1 -->
<g id="edge36" class="edge">
<title>77&#45;&gt;1</title>
<path fill="none" stroke="green" stroke-width="0.11" d="M270.64,-80.41C278.22,-69.41 288.88,-53.95 297.34,-41.68"/>
<polygon fill="green" stroke="green" stroke-width="0.11" points="300.15,-43.77 302.94,-33.55 294.38,-39.8 300.15,-43.77"/>
</g>
<!-- 77&#45;&gt;2 -->
<g id="edge25" class="edge">
<title>77&#45;&gt;2</title>
<path fill="none" stroke="red" stroke-width="0.33" d="M275.2,-84.57C290.06,-74.19 313.97,-57.21 334,-41.72 335.81,-40.32 337.67,-38.84 339.53,-37.35"/>
<polygon fill="red" stroke="red" stroke-width="0.33" points="341.48,-40.28 346.99,-31.22 337.04,-34.87 341.48,-40.28"/>
</g>
<!-- 77&#45;&gt;4 -->
<g id="edge20" class="edge">
<title>77&#45;&gt;4</title>
<path fill="none" stroke="green" stroke-width="0.31" d="M275.08,-84.09C278.81,-81.72 282.94,-79.4 287,-77.72 367.25,-44.45 470.3,-29.68 517,-24.36"/>
<polygon fill="green" stroke="green" stroke-width="0.31" points="517.34,-27.85 526.9,-23.29 516.58,-20.89 517.34,-27.85"/>
</g>
<!-- 78&#45;&gt;2 -->
<g id="edge35" class="edge">
<title>78&#45;&gt;2</title>
<path fill="none" stroke="green" stroke-width="0.12" d="M642.9,-90.29C591.92,-78.04 440.88,-41.77 381.94,-27.61"/>
<polygon fill="green" stroke="green" stroke-width="0.12" points="382.76,-24.21 372.22,-25.28 381.13,-31.01 382.76,-24.21"/>
</g>
<!-- 78&#45;&gt;4 -->
<g id="edge10" class="edge">
<title>78&#45;&gt;4</title>
<path fill="none" stroke="red" stroke-width="0.37" d="M645.06,-85.21C624.23,-72.41 586.41,-49.16 562.83,-34.66"/>
<polygon fill="red" stroke="red" stroke-width="0.37" points="564.81,-31.77 554.46,-29.52 561.14,-37.73 564.81,-31.77"/>
</g>
<!-- 78&#45;&gt;78 -->
<g id="edge5" class="edge">
<title>78&#45;&gt;78</title>
<path fill="none" stroke="red" stroke-width="0.43" d="M673.54,-107.41C684.44,-112.21 695.68,-108.21 695.68,-95.4 695.68,-86.79 690.6,-82.16 683.97,-81.5"/>
<polygon fill="red" stroke="red" stroke-width="0.43" points="683.41,-78.05 674.19,-83.27 684.66,-84.93 683.41,-78.05"/>
</g>
<!-- 79&#45;&gt;0 -->
<g id="edge18" class="edge">
<title>79&#45;&gt;0</title>
<path fill="none" stroke="red" stroke-width="0.17" stroke-dasharray="1,5" d="M304.17,-80.41C296.43,-69.41 285.56,-53.95 276.93,-41.68"/>
<polygon fill="red" stroke="red" stroke-width="0.17" points="279.89,-39.79 271.27,-33.62 274.16,-43.82 279.89,-39.79"/>
</g>
<!-- 79&#45;&gt;1 -->
<g id="edge38" class="edge">
<title>79&#45;&gt;1</title>
<path fill="none" stroke="red" stroke-width="0.25" stroke-dasharray="1,5" d="M313.3,-77.57C312.91,-68.13 312.42,-56.19 311.99,-45.79"/>
<polygon fill="red" stroke="red" stroke-width="0.25" points="315.5,-45.9 311.59,-36.06 308.5,-46.19 315.5,-45.9"/>
</g>
<!-- 79&#45;&gt;2 -->
<g id="edge28" class="edge">
<title>79&#45;&gt;2</title>
<path fill="none" stroke="green" stroke-width="0.5" d="M322.9,-79.72C329.34,-69.11 338.12,-54.63 345.29,-42.81"/>
<polygon fill="green" stroke="green" stroke-width="0.5" points="348.26,-44.66 350.46,-34.3 342.28,-41.03 348.26,-44.66"/>
</g>
<!-- 79&#45;&gt;3 -->
<g id="edge29" class="edge">
<title>79&#45;&gt;3</title>
<path fill="none" stroke="green" stroke-width="0.15" stroke-dasharray="1,5" d="M331.87,-92.15C415.52,-81.61 768.4,-37.17 865.3,-24.97"/>
<polygon fill="green" stroke="green" stroke-width="0.15" points="865.61,-28.46 875.1,-23.74 864.74,-21.51 865.61,-28.46"/>
</g>
<!-- 79&#45;&gt;79 -->
<g id="edge6" class="edge">
<title>79&#45;&gt;79</title>
<path fill="none" stroke="green" stroke-width="0.34" d="M327.54,-107.41C338.44,-112.21 349.68,-108.21 349.68,-95.4 349.68,-86.59 344.36,-81.94 337.5,-81.46"/>
<polygon fill="green" stroke="green" stroke-width="0.34" points="337.21,-77.95 328.06,-83.29 338.54,-84.83 337.21,-77.95"/>
</g>
<!-- 80&#45;&gt;1 -->
<g id="edge42" class="edge">
<title>80&#45;&gt;1</title>
<path fill="none" stroke="red" stroke-width="0.33" d="M490.42,-91.43C458.12,-85.47 387.81,-70.12 335,-41.72 332.99,-40.64 330.99,-39.37 329.05,-38.01"/>
<polygon fill="red" stroke="red" stroke-width="0.33" points="331.51,-35.49 321.49,-32.04 327.17,-40.99 331.51,-35.49"/>
</g>
<!-- 80&#45;&gt;260 -->
<g id="edge44" class="edge">
<title>80&#45;&gt;260</title>
<path fill="none" stroke="red" stroke-width="0.44" stroke-dasharray="1,5" d="M522.38,-84.91C540.01,-73.29 570.22,-53.36 591.98,-39.02"/>
<polygon fill="red" stroke="red" stroke-width="0.44" points="593.74,-42.05 600.16,-33.62 589.88,-36.21 593.74,-42.05"/>
</g>
<!-- 80&#45;&gt;80 -->
<g id="edge9" class="edge">
<title>80&#45;&gt;80</title>
<path fill="none" stroke="green" stroke-width="0.42" stroke-dasharray="1,5" d="M521.54,-107.41C532.44,-112.21 543.68,-108.21 543.68,-95.4 543.68,-86.79 538.6,-82.16 531.97,-81.5"/>
<polygon fill="green" stroke="green" stroke-width="0.42" points="531.39,-78.05 522.18,-83.27 532.64,-84.94 531.39,-78.05"/>
</g>
<!-- 333&#45;&gt;78 -->
<g id="edge49" class="edge">
<title>333&#45;&gt;78</title>
<path fill="none" stroke="green" stroke-width="0.41" d="M735.15,-156.3C720.32,-144.48 698.05,-126.72 681.59,-113.61"/>
<polygon fill="green" stroke="green" stroke-width="0.41" points="684.08,-111.11 674.08,-107.62 679.71,-116.59 684.08,-111.11"/>
</g>
</g>
</svg>
