<?xml version="1.0" encoding="UTF-8" standalone="no"?>
<!DOCTYPE svg PUBLIC "-//W3C//DTD SVG 1.1//EN"
 "http://www.w3.org/Graphics/SVG/1.1/DTD/svg11.dtd">
<!-- Generated by graphviz version 12.1.1 (20240910.0053)
 -->
<!-- Pages: 1 -->
<svg width="834pt" height="257pt"
 viewBox="0.00 0.00 833.50 257.42" xmlns="http://www.w3.org/2000/svg" xmlns:xlink="http://www.w3.org/1999/xlink">
<g id="graph0" class="graph" transform="scale(1 1) rotate(0) translate(4 253.42)">
<polygon fill="white" stroke="none" points="-4,4 -4,-253.42 829.5,-253.42 829.5,4 -4,4"/>
<!-- &#45;1 -->
<g id="node1" class="node">
<title>&#45;1</title>
<polygon fill="lightgray" stroke="black" points="23.5,-172.82 0,-172.82 0,-154.32 23.5,-154.32 23.5,-172.82"/>
<text text-anchor="middle" x="11.75" y="-160.27" font-family="Times,serif" font-size="9.00">&#45;1</text>
</g>
<!-- 111 -->
<g id="node29" class="node">
<title>111</title>
<ellipse fill="white" stroke="black" cx="205.75" cy="-85.85" rx="20.86" ry="20.86"/>
<text text-anchor="middle" x="205.75" y="-82.55" font-family="Times,serif" font-size="9.00">111</text>
</g>
<!-- &#45;1&#45;&gt;111 -->
<g id="edge2" class="edge">
<title>&#45;1&#45;&gt;111</title>
<path fill="none" stroke="green" stroke-width="0.49" d="M19.23,-153.91C22.96,-150.03 27.74,-145.68 32.75,-142.71 78.4,-115.66 138.69,-100.05 174.72,-92.52"/>
<polygon fill="green" stroke="green" stroke-width="0.49" points="175.24,-95.98 184.35,-90.58 173.86,-89.12 175.24,-95.98"/>
</g>
<!-- &#45;2 -->
<g id="node2" class="node">
<title>&#45;2</title>
<polygon fill="lightgray" stroke="black" points="65.5,-172.82 42,-172.82 42,-154.32 65.5,-154.32 65.5,-172.82"/>
<text text-anchor="middle" x="53.75" y="-160.27" font-family="Times,serif" font-size="9.00">&#45;2</text>
</g>
<!-- &#45;2&#45;&gt;111 -->
<g id="edge33" class="edge">
<title>&#45;2&#45;&gt;111</title>
<path fill="none" stroke="green" stroke-width="0.22" d="M61.35,-154.11C65.11,-150.28 69.88,-145.9 74.75,-142.71 107.16,-121.46 149,-105.29 176.56,-95.95"/>
<polygon fill="green" stroke="green" stroke-width="0.22" points="177.31,-99.39 185.71,-92.92 175.12,-92.74 177.31,-99.39"/>
</g>
<!-- &#45;3 -->
<g id="node3" class="node">
<title>&#45;3</title>
<polygon fill="lightgray" stroke="black" points="825.5,-172.82 802,-172.82 802,-154.32 825.5,-154.32 825.5,-172.82"/>
<text text-anchor="middle" x="813.75" y="-160.27" font-family="Times,serif" font-size="9.00">&#45;3</text>
</g>
<!-- 109 -->
<g id="node27" class="node">
<title>109</title>
<ellipse fill="white" stroke="black" cx="705.75" cy="-85.85" rx="20.86" ry="20.86"/>
<text text-anchor="middle" x="705.75" y="-82.55" font-family="Times,serif" font-size="9.00">109</text>
</g>
<!-- &#45;3&#45;&gt;109 -->
<g id="edge22" class="edge">
<title>&#45;3&#45;&gt;109</title>
<path fill="none" stroke="red" stroke-width="0.45" stroke-dasharray="1,5" d="M805.49,-154.08C801.75,-150.41 797.18,-146.17 792.75,-142.71 773.67,-127.77 750.52,-113.06 732.9,-102.48"/>
<polygon fill="red" stroke="red" stroke-width="0.45" points="734.71,-99.49 724.32,-97.4 731.14,-105.51 734.71,-99.49"/>
</g>
<!-- 110 -->
<g id="node28" class="node">
<title>110</title>
<ellipse fill="white" stroke="black" cx="541.75" cy="-85.85" rx="20.86" ry="20.86"/>
<text text-anchor="middle" x="541.75" y="-82.55" font-family="Times,serif" font-size="9.00">110</text>
</g>
<!-- &#45;3&#45;&gt;110 -->
<g id="edge3" class="edge">
<title>&#45;3&#45;&gt;110</title>
<path fill="none" stroke="green" stroke-width="0.2" stroke-dasharray="1,5" d="M806.77,-154.1C803.01,-150.08 798.07,-145.54 792.75,-142.71 754.61,-122.46 630.77,-100.91 572.54,-91.6"/>
<polygon fill="green" stroke="green" stroke-width="0.2" points="573.19,-88.16 562.77,-90.05 572.1,-95.07 573.19,-88.16"/>
</g>
<!-- &#45;4 -->
<g id="node4" class="node">
<title>&#45;4</title>
<polygon fill="lightgray" stroke="black" points="107.5,-172.82 84,-172.82 84,-154.32 107.5,-154.32 107.5,-172.82"/>
<text text-anchor="middle" x="95.75" y="-160.27" font-family="Times,serif" font-size="9.00">&#45;4</text>
</g>
<!-- &#45;4&#45;&gt;111 -->
<g id="edge9" class="edge">
<title>&#45;4&#45;&gt;111</title>
<path fill="none" stroke="green" stroke-width="0.22" d="M103.99,-154.05C107.73,-150.38 112.31,-146.15 116.75,-142.71 136.52,-127.4 160.64,-112.46 178.78,-101.9"/>
<polygon fill="green" stroke="green" stroke-width="0.22" points="180.46,-104.97 187.39,-96.95 176.97,-98.9 180.46,-104.97"/>
</g>
<!-- &#45;5 -->
<g id="node5" class="node">
<title>&#45;5</title>
<polygon fill="lightgray" stroke="black" points="783.5,-172.82 760,-172.82 760,-154.32 783.5,-154.32 783.5,-172.82"/>
<text text-anchor="middle" x="771.75" y="-160.27" font-family="Times,serif" font-size="9.00">&#45;5</text>
</g>
<!-- &#45;5&#45;&gt;109 -->
<g id="edge24" class="edge">
<title>&#45;5&#45;&gt;109</title>
<path fill="none" stroke="red" stroke-width="0.28" stroke-dasharray="1,5" d="M764.18,-153.88C754.92,-143.26 738.89,-124.88 725.96,-110.04"/>
<polygon fill="red" stroke="red" stroke-width="0.28" points="728.65,-107.8 719.44,-102.56 723.38,-112.4 728.65,-107.8"/>
</g>
<!-- &#45;5&#45;&gt;110 -->
<g id="edge37" class="edge">
<title>&#45;5&#45;&gt;110</title>
<path fill="none" stroke="green" stroke-width="0.48" d="M764.72,-154.2C760.95,-150.19 756.01,-145.65 750.75,-142.71 692.96,-110.43 615.68,-96.12 573.13,-90.34"/>
<polygon fill="green" stroke="green" stroke-width="0.48" points="573.69,-86.88 563.33,-89.08 572.8,-93.82 573.69,-86.88"/>
</g>
<!-- &#45;6 -->
<g id="node6" class="node">
<title>&#45;6</title>
<polygon fill="lightgray" stroke="black" points="695.5,-172.82 672,-172.82 672,-154.32 695.5,-154.32 695.5,-172.82"/>
<text text-anchor="middle" x="683.75" y="-160.27" font-family="Times,serif" font-size="9.00">&#45;6</text>
</g>
<!-- &#45;6&#45;&gt;109 -->
<g id="edge28" class="edge">
<title>&#45;6&#45;&gt;109</title>
<path fill="none" stroke="red" stroke-width="0.15" stroke-dasharray="1,5" d="M686.27,-153.88C688.96,-144.63 693.36,-129.48 697.3,-115.92"/>
<polygon fill="red" stroke="red" stroke-width="0.15" points="700.57,-117.23 700,-106.65 693.85,-115.28 700.57,-117.23"/>
</g>
<!-- &#45;6&#45;&gt;111 -->
<g id="edge29" class="edge">
<title>&#45;6&#45;&gt;111</title>
<path fill="none" stroke="red" stroke-width="0.34" stroke-dasharray="1,5" d="M676.88,-153.88C673.15,-149.8 668.2,-145.27 662.75,-142.71 643.4,-133.61 337.11,-100.7 237.08,-90.14"/>
<polygon fill="red" stroke="red" stroke-width="0.34" points="237.55,-86.67 227.24,-89.1 236.81,-93.63 237.55,-86.67"/>
</g>
<!-- &#45;7 -->
<g id="node7" class="node">
<title>&#45;7</title>
<polygon fill="lightgray" stroke="black" points="421.5,-172.82 398,-172.82 398,-154.32 421.5,-154.32 421.5,-172.82"/>
<text text-anchor="middle" x="409.75" y="-160.27" font-family="Times,serif" font-size="9.00">&#45;7</text>
</g>
<!-- 112 -->
<g id="node30" class="node">
<title>112</title>
<ellipse fill="white" stroke="black" cx="429.75" cy="-85.85" rx="20.86" ry="20.86"/>
<text text-anchor="middle" x="429.75" y="-82.55" font-family="Times,serif" font-size="9.00">112</text>
</g>
<!-- &#45;7&#45;&gt;112 -->
<g id="edge40" class="edge">
<title>&#45;7&#45;&gt;112</title>
<path fill="none" stroke="red" stroke-width="0.22" d="M412.04,-153.88C414.46,-144.72 418.41,-129.77 421.97,-116.32"/>
<polygon fill="red" stroke="red" stroke-width="0.22" points="425.32,-117.32 424.49,-106.76 418.55,-115.53 425.32,-117.32"/>
</g>
<!-- &#45;8 -->
<g id="node8" class="node">
<title>&#45;8</title>
<polygon fill="lightgray" stroke="black" points="195.5,-172.82 172,-172.82 172,-154.32 195.5,-154.32 195.5,-172.82"/>
<text text-anchor="middle" x="183.75" y="-160.27" font-family="Times,serif" font-size="9.00">&#45;8</text>
</g>
<!-- &#45;8&#45;&gt;111 -->
<g id="edge39" class="edge">
<title>&#45;8&#45;&gt;111</title>
<path fill="none" stroke="red" stroke-width="0.26" stroke-dasharray="1,5" d="M186.27,-153.88C188.94,-144.72 193.28,-129.77 197.19,-116.32"/>
<polygon fill="red" stroke="red" stroke-width="0.26" points="200.52,-117.39 199.95,-106.81 193.8,-115.44 200.52,-117.39"/>
</g>
<!-- &#45;8&#45;&gt;112 -->
<g id="edge19" class="edge">
<title>&#45;8&#45;&gt;112</title>
<path fill="none" stroke="green" stroke-width="0.22" d="M190.76,-154.16C194.52,-150.14 199.47,-145.6 204.75,-142.71 268.17,-108.03 353.35,-94.52 398.54,-89.54"/>
<polygon fill="green" stroke="green" stroke-width="0.22" points="398.68,-93.04 408.27,-88.54 397.96,-86.08 398.68,-93.04"/>
</g>
<!-- &#45;9 -->
<g id="node9" class="node">
<title>&#45;9</title>
<polygon fill="lightgray" stroke="black" points="463.5,-172.82 440,-172.82 440,-154.32 463.5,-154.32 463.5,-172.82"/>
<text text-anchor="middle" x="451.75" y="-160.27" font-family="Times,serif" font-size="9.00">&#45;9</text>
</g>
<!-- &#45;9&#45;&gt;110 -->
<g id="edge32" class="edge">
<title>&#45;9&#45;&gt;110</title>
<path fill="none" stroke="green" stroke-width="0.16" stroke-dasharray="1,5" d="M460.6,-153.91C464.3,-150.37 468.67,-146.28 472.75,-142.71 487.35,-129.93 504.27,-116.22 517.71,-105.57"/>
<polygon fill="green" stroke="green" stroke-width="0.16" points="519.69,-108.46 525.38,-99.53 515.36,-102.97 519.69,-108.46"/>
</g>
<!-- &#45;9&#45;&gt;111 -->
<g id="edge34" class="edge">
<title>&#45;9&#45;&gt;111</title>
<path fill="none" stroke="green" stroke-width="0.15" stroke-dasharray="1,5" d="M444.74,-154.16C440.98,-150.14 436.03,-145.6 430.75,-142.71 367.33,-108.03 282.15,-94.52 236.96,-89.54"/>
<polygon fill="green" stroke="green" stroke-width="0.15" points="237.43,-86.07 227.12,-88.52 236.71,-93.03 237.43,-86.07"/>
</g>
<!-- &#45;9&#45;&gt;112 -->
<g id="edge36" class="edge">
<title>&#45;9&#45;&gt;112</title>
<path fill="none" stroke="green" stroke-width="0.41" d="M449.23,-153.88C446.56,-144.72 442.22,-129.77 438.31,-116.32"/>
<polygon fill="green" stroke="green" stroke-width="0.41" points="441.76,-115.66 435.61,-107.03 435.04,-117.61 441.76,-115.66"/>
</g>
<!-- &#45;10 -->
<g id="node10" class="node">
<title>&#45;10</title>
<polygon fill="lightgray" stroke="black" points="333.75,-172.82 305.75,-172.82 305.75,-154.32 333.75,-154.32 333.75,-172.82"/>
<text text-anchor="middle" x="319.75" y="-160.27" font-family="Times,serif" font-size="9.00">&#45;10</text>
</g>
<!-- &#45;10&#45;&gt;110 -->
<g id="edge38" class="edge">
<title>&#45;10&#45;&gt;110</title>
<path fill="none" stroke="green" stroke-width="0.41" d="M328.03,-153.85C332.13,-149.96 337.36,-145.61 342.75,-142.71 357.72,-134.67 459.52,-107.94 511.43,-94.58"/>
<polygon fill="green" stroke="green" stroke-width="0.41" points="511.98,-98.05 520.8,-92.18 510.24,-91.27 511.98,-98.05"/>
</g>
<!-- &#45;10&#45;&gt;111 -->
<g id="edge25" class="edge">
<title>&#45;10&#45;&gt;111</title>
<path fill="none" stroke="green" stroke-width="0.27" stroke-dasharray="1,5" d="M310.63,-154.1C306.52,-150.44 301.52,-146.2 296.75,-142.71 276.01,-127.55 251.06,-112.43 232.53,-101.75"/>
<polygon fill="green" stroke="green" stroke-width="0.27" points="234.51,-98.85 224.09,-96.94 231.05,-104.94 234.51,-98.85"/>
</g>
<!-- &#45;11 -->
<g id="node11" class="node">
<title>&#45;11</title>
<polygon fill="lightgray" stroke="black" points="621.75,-244.18 593.75,-244.18 593.75,-225.68 621.75,-225.68 621.75,-244.18"/>
<text text-anchor="middle" x="607.75" y="-231.63" font-family="Times,serif" font-size="9.00">&#45;11</text>
</g>
<!-- 488 -->
<g id="node26" class="node">
<title>488</title>
<ellipse fill="white" stroke="black" cx="632.75" cy="-163.57" rx="20.86" ry="20.86"/>
<text text-anchor="middle" x="632.75" y="-160.27" font-family="Times,serif" font-size="9.00">488</text>
</g>
<!-- &#45;11&#45;&gt;488 -->
<g id="edge41" class="edge">
<title>&#45;11&#45;&gt;488</title>
<path fill="none" stroke="green" stroke-width="0.34" stroke-dasharray="1,5" d="M610.82,-225.42C613.7,-217.42 618.19,-204.97 622.35,-193.42"/>
<polygon fill="green" stroke="green" stroke-width="0.34" points="625.61,-194.7 625.71,-184.1 619.03,-192.32 625.61,-194.7"/>
</g>
<!-- &#45;11&#45;&gt;110 -->
<g id="edge31" class="edge">
<title>&#45;11&#45;&gt;110</title>
<path fill="none" stroke="green" stroke-width="0.13" stroke-dasharray="1,5" d="M604.01,-225.6C594.57,-204.55 569.4,-148.46 554.11,-114.39"/>
<polygon fill="green" stroke="green" stroke-width="0.13" points="557.45,-113.28 550.16,-105.59 551.06,-116.15 557.45,-113.28"/>
</g>
<!-- &#45;12 -->
<g id="node12" class="node">
<title>&#45;12</title>
<polygon fill="lightgray" stroke="black" points="667.75,-244.18 639.75,-244.18 639.75,-225.68 667.75,-225.68 667.75,-244.18"/>
<text text-anchor="middle" x="653.75" y="-231.63" font-family="Times,serif" font-size="9.00">&#45;12</text>
</g>
<!-- &#45;13 -->
<g id="node13" class="node">
<title>&#45;13</title>
<polygon fill="lightgray" stroke="black" points="555.75,-172.82 527.75,-172.82 527.75,-154.32 555.75,-154.32 555.75,-172.82"/>
<text text-anchor="middle" x="541.75" y="-160.27" font-family="Times,serif" font-size="9.00">&#45;13</text>
</g>
<!-- &#45;13&#45;&gt;110 -->
<g id="edge4" class="edge">
<title>&#45;13&#45;&gt;110</title>
<path fill="none" stroke="green" stroke-width="0.15" d="M541.75,-153.88C541.75,-144.93 541.75,-130.46 541.75,-117.26"/>
<polygon fill="green" stroke="green" stroke-width="0.15" points="545.25,-117.29 541.75,-107.29 538.25,-117.29 545.25,-117.29"/>
</g>
<!-- &#45;14 -->
<g id="node14" class="node">
<title>&#45;14</title>
<polygon fill="lightgray" stroke="black" points="741.75,-172.82 713.75,-172.82 713.75,-154.32 741.75,-154.32 741.75,-172.82"/>
<text text-anchor="middle" x="727.75" y="-160.27" font-family="Times,serif" font-size="9.00">&#45;14</text>
</g>
<!-- &#45;14&#45;&gt;109 -->
<g id="edge15" class="edge">
<title>&#45;14&#45;&gt;109</title>
<path fill="none" stroke="red" stroke-width="0.57" d="M725.23,-153.88C722.59,-144.81 718.31,-130.07 714.43,-116.71"/>
<polygon fill="red" stroke="red" stroke-width="0.57" points="717.83,-115.89 711.68,-107.27 711.11,-117.85 717.83,-115.89"/>
</g>
<!-- &#45;14&#45;&gt;110 -->
<g id="edge12" class="edge">
<title>&#45;14&#45;&gt;110</title>
<path fill="none" stroke="green" stroke-width="0.28" d="M719.4,-153.98C715.28,-150.12 710.06,-145.76 704.75,-142.71 661.73,-118.01 606.04,-101.87 572.15,-93.56"/>
<polygon fill="green" stroke="green" stroke-width="0.28" points="573.33,-90.25 562.79,-91.34 571.71,-97.06 573.33,-90.25"/>
</g>
<!-- &#45;14&#45;&gt;112 -->
<g id="edge21" class="edge">
<title>&#45;14&#45;&gt;112</title>
<path fill="none" stroke="green" stroke-width="0.77" d="M720,-154.03C715.87,-149.99 710.46,-145.45 704.75,-142.71 626.12,-104.89 597.07,-124.99 511.75,-106.71 494.69,-103.06 475.76,-98.5 460.39,-94.68"/>
<polygon fill="green" stroke="green" stroke-width="0.77" points="461.58,-91.37 451.03,-92.33 459.88,-98.16 461.58,-91.37"/>
</g>
<!-- &#45;15 -->
<g id="node15" class="node">
<title>&#45;15</title>
<polygon fill="lightgray" stroke="black" points="153.75,-172.82 125.75,-172.82 125.75,-154.32 153.75,-154.32 153.75,-172.82"/>
<text text-anchor="middle" x="139.75" y="-160.27" font-family="Times,serif" font-size="9.00">&#45;15</text>
</g>
<!-- &#45;15&#45;&gt;111 -->
<g id="edge16" class="edge">
<title>&#45;15&#45;&gt;111</title>
<path fill="none" stroke="red" stroke-width="0.18" d="M147.32,-153.88C156.66,-143.17 172.9,-124.53 185.9,-109.63"/>
<polygon fill="red" stroke="red" stroke-width="0.18" points="188.23,-112.28 192.16,-102.44 182.95,-107.68 188.23,-112.28"/>
</g>
<!-- &#45;15&#45;&gt;112 -->
<g id="edge6" class="edge">
<title>&#45;15&#45;&gt;112</title>
<path fill="none" stroke="green" stroke-width="0.32" d="M147.52,-154.09C151.67,-150.06 157.08,-145.52 162.75,-142.71 241.62,-103.71 346.63,-91.9 398.31,-88.35"/>
<polygon fill="green" stroke="green" stroke-width="0.32" points="398.25,-91.86 408.01,-87.74 397.81,-84.87 398.25,-91.86"/>
</g>
<!-- &#45;16 -->
<g id="node16" class="node">
<title>&#45;16</title>
<polygon fill="lightgray" stroke="black" points="713.75,-244.18 685.75,-244.18 685.75,-225.68 713.75,-225.68 713.75,-244.18"/>
<text text-anchor="middle" x="699.75" y="-231.63" font-family="Times,serif" font-size="9.00">&#45;16</text>
</g>
<!-- &#45;17 -->
<g id="node17" class="node">
<title>&#45;17</title>
<polygon fill="lightgray" stroke="black" points="379.75,-172.82 351.75,-172.82 351.75,-154.32 379.75,-154.32 379.75,-172.82"/>
<text text-anchor="middle" x="365.75" y="-160.27" font-family="Times,serif" font-size="9.00">&#45;17</text>
</g>
<!-- &#45;17&#45;&gt;112 -->
<g id="edge1" class="edge">
<title>&#45;17&#45;&gt;112</title>
<path fill="none" stroke="red" stroke-width="0.44" stroke-dasharray="1,5" d="M373.09,-153.88C382.01,-143.33 397.42,-125.1 409.92,-110.32"/>
<polygon fill="red" stroke="red" stroke-width="0.44" points="412.29,-112.93 416.07,-103.04 406.94,-108.41 412.29,-112.93"/>
</g>
<!-- &#45;18 -->
<g id="node18" class="node">
<title>&#45;18</title>
<polygon fill="lightgray" stroke="black" points="241.75,-172.82 213.75,-172.82 213.75,-154.32 241.75,-154.32 241.75,-172.82"/>
<text text-anchor="middle" x="227.75" y="-160.27" font-family="Times,serif" font-size="9.00">&#45;18</text>
</g>
<!-- &#45;18&#45;&gt;110 -->
<g id="edge26" class="edge">
<title>&#45;18&#45;&gt;110</title>
<path fill="none" stroke="green" stroke-width="0.51" d="M235.48,-154C239.61,-149.95 245.03,-145.42 250.75,-142.71 335.97,-102.44 367.45,-125.81 459.75,-106.71 477,-103.14 496.14,-98.54 511.58,-94.67"/>
<polygon fill="green" stroke="green" stroke-width="0.51" points="512.03,-98.17 520.87,-92.32 510.31,-91.38 512.03,-98.17"/>
</g>
<!-- &#45;18&#45;&gt;111 -->
<g id="edge5" class="edge">
<title>&#45;18&#45;&gt;111</title>
<path fill="none" stroke="red" stroke-width="0.29" d="M225.23,-153.88C222.56,-144.72 218.22,-129.77 214.31,-116.32"/>
<polygon fill="red" stroke="red" stroke-width="0.29" points="217.72,-115.49 211.56,-106.86 210.99,-117.44 217.72,-115.49"/>
</g>
<!-- &#45;18&#45;&gt;112 -->
<g id="edge13" class="edge">
<title>&#45;18&#45;&gt;112</title>
<path fill="none" stroke="red" stroke-width="0.11" d="M236.06,-153.92C240.18,-150.04 245.4,-145.68 250.75,-142.71 299.26,-115.75 362.54,-99.92 399.4,-92.36"/>
<polygon fill="red" stroke="red" stroke-width="0.11" points="399.78,-95.85 408.91,-90.48 398.42,-88.99 399.78,-95.85"/>
</g>
<!-- &#45;19 -->
<g id="node19" class="node">
<title>&#45;19</title>
<polygon fill="lightgray" stroke="black" points="287.75,-172.82 259.75,-172.82 259.75,-154.32 287.75,-154.32 287.75,-172.82"/>
<text text-anchor="middle" x="273.75" y="-160.27" font-family="Times,serif" font-size="9.00">&#45;19</text>
</g>
<!-- &#45;19&#45;&gt;110 -->
<g id="edge11" class="edge">
<title>&#45;19&#45;&gt;110</title>
<path fill="none" stroke="red" stroke-width="0.37" d="M281.54,-154.11C285.68,-150.09 291.09,-145.55 296.75,-142.71 363.07,-109.45 387.47,-123.44 459.75,-106.71 476.91,-102.74 496.04,-98.12 511.51,-94.33"/>
<polygon fill="red" stroke="red" stroke-width="0.37" points="512.13,-97.78 521.01,-92 510.46,-90.98 512.13,-97.78"/>
</g>
<!-- &#45;19&#45;&gt;111 -->
<g id="edge20" class="edge">
<title>&#45;19&#45;&gt;111</title>
<path fill="none" stroke="green" stroke-width="0.25" d="M265.95,-153.88C256.26,-143.1 239.38,-124.3 225.96,-109.35"/>
<polygon fill="green" stroke="green" stroke-width="0.25" points="228.84,-107.33 219.56,-102.23 223.64,-112.01 228.84,-107.33"/>
</g>
<!-- &#45;20 -->
<g id="node20" class="node">
<title>&#45;20</title>
<polygon fill="lightgray" stroke="black" points="509.75,-172.82 481.75,-172.82 481.75,-154.32 509.75,-154.32 509.75,-172.82"/>
<text text-anchor="middle" x="495.75" y="-160.27" font-family="Times,serif" font-size="9.00">&#45;20</text>
</g>
<!-- &#45;20&#45;&gt;110 -->
<g id="edge17" class="edge">
<title>&#45;20&#45;&gt;110</title>
<path fill="none" stroke="green" stroke-width="0.38" stroke-dasharray="1,5" d="M501.03,-153.88C507.03,-144.01 517.11,-127.4 525.75,-113.19"/>
<polygon fill="green" stroke="green" stroke-width="0.38" points="528.65,-115.15 530.85,-104.79 522.67,-111.51 528.65,-115.15"/>
</g>
<!-- &#45;20&#45;&gt;112 -->
<g id="edge10" class="edge">
<title>&#45;20&#45;&gt;112</title>
<path fill="none" stroke="red" stroke-width="0.25" d="M488.18,-153.88C478.92,-143.26 462.89,-124.88 449.96,-110.04"/>
<polygon fill="red" stroke="red" stroke-width="0.25" points="452.62,-107.76 443.41,-102.52 447.34,-112.36 452.62,-107.76"/>
</g>
<!-- 0 -->
<g id="node21" class="node">
<title>0</title>
<ellipse fill="lightblue" stroke="black" cx="405.75" cy="-14.5" rx="14.5" ry="14.5"/>
<text text-anchor="middle" x="405.75" y="-11.2" font-family="Times,serif" font-size="9.00">0</text>
</g>
<!-- 1 -->
<g id="node22" class="node">
<title>1</title>
<ellipse fill="lightblue" stroke="black" cx="745.75" cy="-234.93" rx="14.5" ry="14.5"/>
<text text-anchor="middle" x="745.75" y="-231.63" font-family="Times,serif" font-size="9.00">1</text>
</g>
<!-- 2 -->
<g id="node23" class="node">
<title>2</title>
<ellipse fill="lightblue" stroke="black" cx="598.75" cy="-14.5" rx="14.5" ry="14.5"/>
<text text-anchor="middle" x="598.75" y="-11.2" font-family="Times,serif" font-size="9.00">2</text>
</g>
<!-- 3 -->
<g id="node24" class="node">
<title>3</title>
<ellipse fill="lightblue" stroke="black" cx="685.75" cy="-14.5" rx="14.5" ry="14.5"/>
<text text-anchor="middle" x="685.75" y="-11.2" font-family="Times,serif" font-size="9.00">3</text>
</g>
<!-- 4 -->
<g id="node25" class="node">
<title>4</title>
<ellipse fill="lightblue" stroke="black" cx="452.75" cy="-14.5" rx="14.5" ry="14.5"/>
<text text-anchor="middle" x="452.75" y="-11.2" font-family="Times,serif" font-size="9.00">4</text>
</g>
<!-- 4&#45;&gt;4 -->
<g id="edge14" class="edge">
<title>4&#45;&gt;4</title>
<path fill="none" stroke="green" stroke-width="0.37" d="M463.07,-24.94C473.56,-31.08 485.25,-27.6 485.25,-14.5 485.25,-5.49 479.72,-1.03 472.86,-1.12"/>
<polygon fill="green" stroke="green" stroke-width="0.37" points="472.18,2.33 463.61,-3.89 474.19,-4.37 472.18,2.33"/>
</g>
<!-- 488&#45;&gt;110 -->
<g id="edge42" class="edge">
<title>488&#45;&gt;110</title>
<path fill="none" stroke="red" stroke-width="0.23" d="M616.9,-149.38C602.55,-137.44 581.22,-119.69 564.95,-106.15"/>
<polygon fill="red" stroke="red" stroke-width="0.23" points="567.61,-103.82 557.69,-100.11 563.14,-109.2 567.61,-103.82"/>
</g>
<!-- 109&#45;&gt;2 -->
<g id="edge35" class="edge">
<title>109&#45;&gt;2</title>
<path fill="none" stroke="green" stroke-width="0.52" d="M688.56,-73.71C669.77,-61.53 639.68,-42.03 619.58,-28.99"/>
<polygon fill="green" stroke="green" stroke-width="0.52" points="621.56,-26.11 611.26,-23.61 617.75,-31.98 621.56,-26.11"/>
</g>
<!-- 109&#45;&gt;3 -->
<g id="edge27" class="edge">
<title>109&#45;&gt;3</title>
<path fill="none" stroke="green" stroke-width="0.18" d="M700.18,-65.53C697.75,-57.12 694.89,-47.2 692.36,-38.41"/>
<polygon fill="green" stroke="green" stroke-width="0.18" points="695.79,-37.68 689.66,-29.04 689.07,-39.62 695.79,-37.68"/>
</g>
<!-- 111&#45;&gt;111 -->
<g id="edge18" class="edge">
<title>111&#45;&gt;111</title>
<path fill="none" stroke="red" stroke-width="0.19" stroke-dasharray="1,5" d="M222.93,-98.17C233.98,-101.39 244.61,-97.28 244.61,-85.85 244.61,-77.99 239.58,-73.6 232.85,-72.66"/>
<polygon fill="red" stroke="red" stroke-width="0.19" points="232.87,-69.15 223.21,-73.51 233.48,-76.12 232.87,-69.15"/>
</g>
<!-- 112&#45;&gt;0 -->
<g id="edge8" class="edge">
<title>112&#45;&gt;0</title>
<path fill="none" stroke="red" stroke-width="0.39" stroke-dasharray="1,5" d="M423.19,-65.9C420.24,-57.37 416.73,-47.22 413.63,-38.28"/>
<polygon fill="red" stroke="red" stroke-width="0.39" points="417.02,-37.37 410.45,-29.06 410.41,-39.66 417.02,-37.37"/>
</g>
<!-- 112&#45;&gt;2 -->
<g id="edge7" class="edge">
<title>112&#45;&gt;2</title>
<path fill="none" stroke="green" stroke-width="0.36" d="M449.14,-76.9C480.57,-64 542.49,-38.58 575.97,-24.84"/>
<polygon fill="green" stroke="green" stroke-width="0.36" points="576.96,-28.22 584.88,-21.19 574.3,-21.74 576.96,-28.22"/>
</g>
<!-- 112&#45;&gt;3 -->
<g id="edge30" class="edge">
<title>112&#45;&gt;3</title>
<path fill="none" stroke="green" stroke-width="0.17" stroke-dasharray="1,5" d="M449.84,-79.41C496.5,-66.77 612.02,-35.47 662.04,-21.92"/>
<polygon fill="green" stroke="green" stroke-width="0.17" points="662.68,-25.37 671.42,-19.38 660.85,-18.62 662.68,-25.37"/>
</g>
<!-- 112&#45;&gt;4 -->
<g id="edge23" class="edge">
<title>112&#45;&gt;4</title>
<path fill="none" stroke="green" stroke-width="0.33" stroke-dasharray="1,5" d="M436.16,-65.53C438.92,-57.21 442.17,-47.41 445.05,-38.7"/>
<polygon fill="green" stroke="green" stroke-width="0.33" points="448.36,-39.86 448.18,-29.26 441.71,-37.65 448.36,-39.86"/>
</g>
</g>
</svg>
