<?xml version="1.0" encoding="UTF-8" standalone="no"?>
<!DOCTYPE svg PUBLIC "-//W3C//DTD SVG 1.1//EN"
 "http://www.w3.org/Graphics/SVG/1.1/DTD/svg11.dtd">
<!-- Generated by graphviz version 12.1.1 (20240910.0053)
 -->
<!-- Pages: 1 -->
<svg width="874pt" height="325pt"
 viewBox="0.00 0.00 873.86 324.65" xmlns="http://www.w3.org/2000/svg" xmlns:xlink="http://www.w3.org/1999/xlink">
<g id="graph0" class="graph" transform="scale(1 1) rotate(0) translate(4 320.65)">
<polygon fill="white" stroke="none" points="-4,4 -4,-320.65 869.86,-320.65 869.86,4 -4,4"/>
<!-- &#45;1 -->
<g id="node1" class="node">
<title>&#45;1</title>
<polygon fill="lightgray" stroke="black" points="555.75,-250.54 532.25,-250.54 532.25,-232.04 555.75,-232.04 555.75,-250.54"/>
<text text-anchor="middle" x="544" y="-237.99" font-family="Times,serif" font-size="9.00">&#45;1</text>
</g>
<!-- 133 -->
<g id="node26" class="node">
<title>133</title>
<ellipse fill="white" stroke="black" cx="589" cy="-163.57" rx="20.86" ry="20.86"/>
<text text-anchor="middle" x="589" y="-160.27" font-family="Times,serif" font-size="9.00">133</text>
</g>
<!-- &#45;1&#45;&gt;133 -->
<g id="edge39" class="edge">
<title>&#45;1&#45;&gt;133</title>
<path fill="none" stroke="red" stroke-width="0.15" stroke-dasharray="1,5" d="M549.16,-231.6C555.09,-221.63 565.09,-204.81 573.58,-190.51"/>
<polygon fill="red" stroke="red" stroke-width="0.15" points="576.42,-192.59 578.52,-182.21 570.4,-189.02 576.42,-192.59"/>
</g>
<!-- &#45;2 -->
<g id="node2" class="node">
<title>&#45;2</title>
<polygon fill="lightgray" stroke="black" points="513.75,-250.54 490.25,-250.54 490.25,-232.04 513.75,-232.04 513.75,-250.54"/>
<text text-anchor="middle" x="502" y="-237.99" font-family="Times,serif" font-size="9.00">&#45;2</text>
</g>
<!-- &#45;2&#45;&gt;133 -->
<g id="edge12" class="edge">
<title>&#45;2&#45;&gt;133</title>
<path fill="none" stroke="green" stroke-width="0.72" stroke-dasharray="1,5" d="M510.89,-231.67C514.59,-228.14 518.96,-224.04 523,-220.43 536.63,-208.23 552.24,-194.99 564.86,-184.46"/>
<polygon fill="green" stroke="green" stroke-width="0.72" points="566.76,-187.43 572.22,-178.34 562.29,-182.04 566.76,-187.43"/>
</g>
<!-- 134 -->
<g id="node27" class="node">
<title>134</title>
<ellipse fill="white" stroke="black" cx="500" cy="-163.57" rx="20.86" ry="20.86"/>
<text text-anchor="middle" x="500" y="-160.27" font-family="Times,serif" font-size="9.00">134</text>
</g>
<!-- &#45;2&#45;&gt;134 -->
<g id="edge32" class="edge">
<title>&#45;2&#45;&gt;134</title>
<path fill="none" stroke="red" stroke-width="0.44" d="M501.77,-231.6C501.54,-222.74 501.16,-208.47 500.81,-195.37"/>
<polygon fill="red" stroke="red" stroke-width="0.44" points="504.31,-195.35 500.55,-185.44 497.32,-195.53 504.31,-195.35"/>
</g>
<!-- 135 -->
<g id="node28" class="node">
<title>135</title>
<ellipse fill="white" stroke="black" cx="306" cy="-85.85" rx="20.86" ry="20.86"/>
<text text-anchor="middle" x="306" y="-82.55" font-family="Times,serif" font-size="9.00">135</text>
</g>
<!-- &#45;2&#45;&gt;135 -->
<g id="edge7" class="edge">
<title>&#45;2&#45;&gt;135</title>
<path fill="none" stroke="green" stroke-width="0.51" d="M493.06,-231.73C489.35,-228.21 484.99,-224.1 481,-220.43 442.83,-185.34 435.52,-173.77 394,-142.71 369.71,-124.54 361.54,-123.09 336,-106.71 334.69,-105.87 333.34,-105 331.99,-104.12"/>
<polygon fill="green" stroke="green" stroke-width="0.51" points="334,-101.26 323.72,-98.7 330.17,-107.11 334,-101.26"/>
</g>
<!-- &#45;3 -->
<g id="node3" class="node">
<title>&#45;3</title>
<polygon fill="lightgray" stroke="black" points="701.75,-316.65 678.25,-316.65 678.25,-298.15 701.75,-298.15 701.75,-316.65"/>
<text text-anchor="middle" x="690" y="-304.1" font-family="Times,serif" font-size="9.00">&#45;3</text>
</g>
<!-- &#45;3&#45;&gt;133 -->
<g id="edge2" class="edge">
<title>&#45;3&#45;&gt;133</title>
<path fill="none" stroke="red" stroke-width="0.29" d="M690.12,-298.04C689.96,-281.69 687.62,-244.99 671,-220.43 657.76,-200.87 635.18,-186.24 617.07,-176.87"/>
<polygon fill="red" stroke="red" stroke-width="0.29" points="618.99,-173.92 608.47,-172.65 615.9,-180.2 618.99,-173.92"/>
</g>
<!-- 491 -->
<g id="node32" class="node">
<title>491</title>
<ellipse fill="white" stroke="black" cx="739" cy="-241.29" rx="20.86" ry="20.86"/>
<text text-anchor="middle" x="739" y="-237.99" font-family="Times,serif" font-size="9.00">491</text>
</g>
<!-- &#45;3&#45;&gt;491 -->
<g id="edge48" class="edge">
<title>&#45;3&#45;&gt;491</title>
<path fill="none" stroke="green" stroke-width="0.24" stroke-dasharray="1,5" d="M696.61,-297.75C702.73,-289.75 712.12,-277.45 720.52,-266.47"/>
<polygon fill="green" stroke="green" stroke-width="0.24" points="723.16,-268.78 726.45,-258.71 717.59,-264.53 723.16,-268.78"/>
</g>
<!-- 343 -->
<g id="node34" class="node">
<title>343</title>
<ellipse fill="white" stroke="black" cx="595" cy="-241.29" rx="20.86" ry="20.86"/>
<text text-anchor="middle" x="595" y="-237.99" font-family="Times,serif" font-size="9.00">343</text>
</g>
<!-- &#45;3&#45;&gt;343 -->
<g id="edge46" class="edge">
<title>&#45;3&#45;&gt;343</title>
<path fill="none" stroke="red" stroke-width="0.13" d="M677.97,-298.28C663.57,-288.56 639.08,-272.03 620.42,-259.45"/>
<polygon fill="red" stroke="red" stroke-width="0.13" points="622.47,-256.6 612.22,-253.91 618.55,-262.41 622.47,-256.6"/>
</g>
<!-- &#45;4 -->
<g id="node4" class="node">
<title>&#45;4</title>
<polygon fill="lightgray" stroke="black" points="69.75,-250.54 46.25,-250.54 46.25,-232.04 69.75,-232.04 69.75,-250.54"/>
<text text-anchor="middle" x="58" y="-237.99" font-family="Times,serif" font-size="9.00">&#45;4</text>
</g>
<!-- &#45;4&#45;&gt;133 -->
<g id="edge29" class="edge">
<title>&#45;4&#45;&gt;133</title>
<path fill="none" stroke="green" stroke-width="0.57" d="M64.46,-231.91C68.21,-227.7 73.31,-222.96 79,-220.43 170.86,-179.56 431.51,-204.62 530,-184.43 539.85,-182.41 550.33,-179.24 559.68,-176.02"/>
<polygon fill="green" stroke="green" stroke-width="0.57" points="560.63,-179.39 568.85,-172.71 558.26,-172.81 560.63,-179.39"/>
</g>
<!-- &#45;4&#45;&gt;135 -->
<g id="edge21" class="edge">
<title>&#45;4&#45;&gt;135</title>
<path fill="none" stroke="red" stroke-width="0.3" d="M64.43,-231.77C78.87,-213.15 115.77,-168.49 156,-142.71 194.05,-118.33 244.28,-102.38 275.87,-93.99"/>
<polygon fill="red" stroke="red" stroke-width="0.3" points="276.57,-97.43 285.39,-91.55 274.83,-90.65 276.57,-97.43"/>
</g>
<!-- 136 -->
<g id="node29" class="node">
<title>136</title>
<ellipse fill="white" stroke="black" cx="186" cy="-163.57" rx="20.86" ry="20.86"/>
<text text-anchor="middle" x="186" y="-160.27" font-family="Times,serif" font-size="9.00">136</text>
</g>
<!-- &#45;4&#45;&gt;136 -->
<g id="edge13" class="edge">
<title>&#45;4&#45;&gt;136</title>
<path fill="none" stroke="green" stroke-width="0.91" d="M66.11,-231.6C69.83,-227.9 74.42,-223.69 79,-220.43 103.64,-202.87 134.52,-187.35 156.76,-177.15"/>
<polygon fill="green" stroke="green" stroke-width="0.91" points="157.98,-180.44 165.67,-173.16 155.11,-174.06 157.98,-180.44"/>
</g>
<!-- &#45;5 -->
<g id="node5" class="node">
<title>&#45;5</title>
<polygon fill="lightgray" stroke="black" points="324.75,-172.82 301.25,-172.82 301.25,-154.32 324.75,-154.32 324.75,-172.82"/>
<text text-anchor="middle" x="313" y="-160.27" font-family="Times,serif" font-size="9.00">&#45;5</text>
</g>
<!-- &#45;5&#45;&gt;135 -->
<g id="edge28" class="edge">
<title>&#45;5&#45;&gt;135</title>
<path fill="none" stroke="red" stroke-width="0.4" stroke-dasharray="1,5" d="M312.2,-153.88C311.37,-144.93 310.03,-130.46 308.81,-117.26"/>
<polygon fill="red" stroke="red" stroke-width="0.4" points="312.33,-117.3 307.92,-107.66 305.36,-117.94 312.33,-117.3"/>
</g>
<!-- &#45;6 -->
<g id="node6" class="node">
<title>&#45;6</title>
<polygon fill="lightgray" stroke="black" points="111.75,-250.54 88.25,-250.54 88.25,-232.04 111.75,-232.04 111.75,-250.54"/>
<text text-anchor="middle" x="100" y="-237.99" font-family="Times,serif" font-size="9.00">&#45;6</text>
</g>
<!-- &#45;6&#45;&gt;136 -->
<g id="edge22" class="edge">
<title>&#45;6&#45;&gt;136</title>
<path fill="none" stroke="red" stroke-width="0.21" stroke-dasharray="1,5" d="M108.91,-231.69C112.61,-228.16 116.98,-224.06 121,-220.43 134.6,-208.17 150.14,-194.79 162.62,-184.2"/>
<polygon fill="red" stroke="red" stroke-width="0.21" points="164.71,-187.02 170.08,-177.89 160.19,-181.67 164.71,-187.02"/>
</g>
<!-- &#45;7 -->
<g id="node7" class="node">
<title>&#45;7</title>
<polygon fill="lightgray" stroke="black" points="743.75,-316.65 720.25,-316.65 720.25,-298.15 743.75,-298.15 743.75,-316.65"/>
<text text-anchor="middle" x="732" y="-304.1" font-family="Times,serif" font-size="9.00">&#45;7</text>
</g>
<!-- &#45;8 -->
<g id="node8" class="node">
<title>&#45;8</title>
<polygon fill="lightgray" stroke="black" points="291.75,-250.54 268.25,-250.54 268.25,-232.04 291.75,-232.04 291.75,-250.54"/>
<text text-anchor="middle" x="280" y="-237.99" font-family="Times,serif" font-size="9.00">&#45;8</text>
</g>
<!-- &#45;8&#45;&gt;134 -->
<g id="edge33" class="edge">
<title>&#45;8&#45;&gt;134</title>
<path fill="none" stroke="green" stroke-width="0.2" stroke-dasharray="1,5" d="M287.43,-231.54C291.15,-227.65 295.94,-223.3 301,-220.43 329.94,-204.03 421.33,-182.09 469.54,-171.23"/>
<polygon fill="green" stroke="green" stroke-width="0.2" points="470.12,-174.69 479.12,-169.09 468.6,-167.86 470.12,-174.69"/>
</g>
<!-- &#45;8&#45;&gt;136 -->
<g id="edge11" class="edge">
<title>&#45;8&#45;&gt;136</title>
<path fill="none" stroke="green" stroke-width="0.37" d="M271.2,-231.57C267.51,-228.03 263.13,-223.94 259,-220.43 243.5,-207.24 225.33,-193.33 210.99,-182.69"/>
<polygon fill="green" stroke="green" stroke-width="0.37" points="213.2,-179.97 203.07,-176.85 209.05,-185.6 213.2,-179.97"/>
</g>
<!-- &#45;9 -->
<g id="node9" class="node">
<title>&#45;9</title>
<polygon fill="lightgray" stroke="black" points="379.75,-250.54 356.25,-250.54 356.25,-232.04 379.75,-232.04 379.75,-250.54"/>
<text text-anchor="middle" x="368" y="-237.99" font-family="Times,serif" font-size="9.00">&#45;9</text>
</g>
<!-- &#45;9&#45;&gt;133 -->
<g id="edge14" class="edge">
<title>&#45;9&#45;&gt;133</title>
<path fill="none" stroke="red" stroke-width="0.19" d="M375.02,-231.89C378.78,-227.88 383.73,-223.34 389,-220.43 445.64,-189.21 467.97,-202.76 530,-184.43 539.74,-181.55 550.29,-178.11 559.73,-174.9"/>
<polygon fill="red" stroke="red" stroke-width="0.19" points="560.85,-178.22 569.17,-171.66 558.58,-171.6 560.85,-178.22"/>
</g>
<!-- &#45;9&#45;&gt;134 -->
<g id="edge16" class="edge">
<title>&#45;9&#45;&gt;134</title>
<path fill="none" stroke="green" stroke-width="0.48" d="M376.09,-231.57C379.8,-227.86 384.4,-223.66 389,-220.43 415,-202.19 447.8,-186.45 470.99,-176.38"/>
<polygon fill="green" stroke="green" stroke-width="0.48" points="472.1,-179.71 479.93,-172.57 469.35,-173.27 472.1,-179.71"/>
</g>
<!-- &#45;9&#45;&gt;136 -->
<g id="edge17" class="edge">
<title>&#45;9&#45;&gt;136</title>
<path fill="none" stroke="red" stroke-width="0.33" d="M360.49,-231.68C356.75,-227.81 351.98,-223.45 347,-220.43 305.24,-195.07 250.37,-179.19 216.67,-171.1"/>
<polygon fill="red" stroke="red" stroke-width="0.33" points="217.54,-167.71 207.01,-168.87 215.96,-174.53 217.54,-167.71"/>
</g>
<!-- &#45;10 -->
<g id="node10" class="node">
<title>&#45;10</title>
<polygon fill="lightgray" stroke="black" points="662,-250.54 634,-250.54 634,-232.04 662,-232.04 662,-250.54"/>
<text text-anchor="middle" x="648" y="-237.99" font-family="Times,serif" font-size="9.00">&#45;10</text>
</g>
<!-- &#45;10&#45;&gt;133 -->
<g id="edge9" class="edge">
<title>&#45;10&#45;&gt;133</title>
<path fill="none" stroke="red" stroke-width="0.27" d="M641.23,-231.6C633.14,-221.21 619.24,-203.38 607.82,-188.72"/>
<polygon fill="red" stroke="red" stroke-width="0.27" points="610.6,-186.6 601.7,-180.86 605.08,-190.9 610.6,-186.6"/>
</g>
<!-- &#45;10&#45;&gt;134 -->
<g id="edge24" class="edge">
<title>&#45;10&#45;&gt;134</title>
<path fill="none" stroke="green" stroke-width="0.48" stroke-dasharray="1,5" d="M639.52,-231.91C635.37,-228.1 630.16,-223.71 625,-220.43 594.32,-200.93 555.69,-184.79 529.55,-174.96"/>
<polygon fill="green" stroke="green" stroke-width="0.48" points="530.79,-171.69 520.2,-171.51 528.37,-178.26 530.79,-171.69"/>
</g>
<!-- &#45;10&#45;&gt;135 -->
<g id="edge30" class="edge">
<title>&#45;10&#45;&gt;135</title>
<path fill="none" stroke="green" stroke-width="0.78" d="M648.31,-231.61C648.49,-212.28 645.94,-165.6 619,-142.71 570.69,-101.67 395.43,-128.78 336,-106.71 334.5,-106.15 333,-105.51 331.51,-104.8"/>
<polygon fill="green" stroke="green" stroke-width="0.78" points="333.53,-101.92 323.1,-100.01 330.06,-108 333.53,-101.92"/>
</g>
<!-- &#45;11 -->
<g id="node11" class="node">
<title>&#45;11</title>
<polygon fill="lightgray" stroke="black" points="158,-250.54 130,-250.54 130,-232.04 158,-232.04 158,-250.54"/>
<text text-anchor="middle" x="144" y="-237.99" font-family="Times,serif" font-size="9.00">&#45;11</text>
</g>
<!-- &#45;11&#45;&gt;136 -->
<g id="edge6" class="edge">
<title>&#45;11&#45;&gt;136</title>
<path fill="none" stroke="green" stroke-width="0.4" d="M148.82,-231.6C154.26,-221.79 163.39,-205.34 171.24,-191.19"/>
<polygon fill="green" stroke="green" stroke-width="0.4" points="174.07,-193.29 175.86,-182.85 167.95,-189.9 174.07,-193.29"/>
</g>
<!-- &#45;12 -->
<g id="node12" class="node">
<title>&#45;12</title>
<polygon fill="lightgray" stroke="black" points="790,-316.65 762,-316.65 762,-298.15 790,-298.15 790,-316.65"/>
<text text-anchor="middle" x="776" y="-304.1" font-family="Times,serif" font-size="9.00">&#45;12</text>
</g>
<!-- &#45;13 -->
<g id="node13" class="node">
<title>&#45;13</title>
<polygon fill="lightgray" stroke="black" points="426,-250.54 398,-250.54 398,-232.04 426,-232.04 426,-250.54"/>
<text text-anchor="middle" x="412" y="-237.99" font-family="Times,serif" font-size="9.00">&#45;13</text>
</g>
<!-- 2 -->
<g id="node23" class="node">
<title>2</title>
<ellipse fill="lightblue" stroke="black" cx="359" cy="-85.85" rx="14.5" ry="14.5"/>
<text text-anchor="middle" x="359" y="-82.55" font-family="Times,serif" font-size="9.00">2</text>
</g>
<!-- &#45;13&#45;&gt;2 -->
<g id="edge49" class="edge">
<title>&#45;13&#45;&gt;2</title>
<path fill="none" stroke="red" stroke-width="0.18" stroke-dasharray="1,5" d="M411.5,-231.64C410.25,-214.25 406.18,-174.02 394,-142.71 388.93,-129.68 380.72,-116.36 373.53,-106"/>
<polygon fill="red" stroke="red" stroke-width="0.18" points="376.42,-104.02 367.74,-97.95 370.74,-108.11 376.42,-104.02"/>
</g>
<!-- &#45;13&#45;&gt;133 -->
<g id="edge10" class="edge">
<title>&#45;13&#45;&gt;133</title>
<path fill="none" stroke="red" stroke-width="0.4" d="M420.38,-231.74C424.5,-227.89 429.72,-223.52 435,-220.43 446.06,-213.95 517.87,-188.91 559.42,-174.65"/>
<polygon fill="red" stroke="red" stroke-width="0.4" points="560.38,-178.02 568.7,-171.47 558.11,-171.4 560.38,-178.02"/>
</g>
<!-- &#45;14 -->
<g id="node14" class="node">
<title>&#45;14</title>
<polygon fill="lightgray" stroke="black" points="28,-250.54 0,-250.54 0,-232.04 28,-232.04 28,-250.54"/>
<text text-anchor="middle" x="14" y="-237.99" font-family="Times,serif" font-size="9.00">&#45;14</text>
</g>
<!-- &#45;14&#45;&gt;135 -->
<g id="edge15" class="edge">
<title>&#45;14&#45;&gt;135</title>
<path fill="none" stroke="red" stroke-width="0.72" d="M19.3,-231.77C31.57,-212.75 63.9,-166.68 103,-142.71 157.41,-109.36 232.02,-95.52 273.97,-90.09"/>
<polygon fill="red" stroke="red" stroke-width="0.72" points="274.31,-93.57 283.82,-88.9 273.47,-86.62 274.31,-93.57"/>
</g>
<!-- &#45;14&#45;&gt;136 -->
<g id="edge38" class="edge">
<title>&#45;14&#45;&gt;136</title>
<path fill="none" stroke="green" stroke-width="0.39" stroke-dasharray="1,5" d="M22.39,-231.77C26.52,-227.92 31.74,-223.55 37,-220.43 75.42,-197.63 124.76,-181.35 155.89,-172.44"/>
<polygon fill="green" stroke="green" stroke-width="0.39" points="156.45,-175.92 165.14,-169.87 154.57,-169.18 156.45,-175.92"/>
</g>
<!-- &#45;15 -->
<g id="node15" class="node">
<title>&#45;15</title>
<polygon fill="lightgray" stroke="black" points="472,-250.54 444,-250.54 444,-232.04 472,-232.04 472,-250.54"/>
<text text-anchor="middle" x="458" y="-237.99" font-family="Times,serif" font-size="9.00">&#45;15</text>
</g>
<!-- &#45;15&#45;&gt;134 -->
<g id="edge26" class="edge">
<title>&#45;15&#45;&gt;134</title>
<path fill="none" stroke="red" stroke-width="0.22" stroke-dasharray="1,5" d="M462.82,-231.6C468.26,-221.79 477.39,-205.34 485.24,-191.19"/>
<polygon fill="red" stroke="red" stroke-width="0.22" points="488.21,-193.05 490,-182.6 482.09,-189.65 488.21,-193.05"/>
</g>
<!-- &#45;16 -->
<g id="node16" class="node">
<title>&#45;16</title>
<polygon fill="lightgray" stroke="black" points="836,-316.65 808,-316.65 808,-298.15 836,-298.15 836,-316.65"/>
<text text-anchor="middle" x="822" y="-304.1" font-family="Times,serif" font-size="9.00">&#45;16</text>
</g>
<!-- &#45;17 -->
<g id="node17" class="node">
<title>&#45;17</title>
<polygon fill="lightgray" stroke="black" points="806,-250.54 778,-250.54 778,-232.04 806,-232.04 806,-250.54"/>
<text text-anchor="middle" x="792" y="-237.99" font-family="Times,serif" font-size="9.00">&#45;17</text>
</g>
<!-- &#45;17&#45;&gt;133 -->
<g id="edge37" class="edge">
<title>&#45;17&#45;&gt;133</title>
<path fill="none" stroke="red" stroke-width="0.28" stroke-dasharray="1,5" d="M783.69,-231.63C779.58,-227.76 774.35,-223.4 769,-220.43 720.43,-193.48 657.14,-177.71 619.99,-170.14"/>
<polygon fill="red" stroke="red" stroke-width="0.28" points="620.7,-166.71 610.21,-168.22 619.35,-173.58 620.7,-166.71"/>
</g>
<!-- &#45;18 -->
<g id="node18" class="node">
<title>&#45;18</title>
<polygon fill="lightgray" stroke="black" points="250,-250.54 222,-250.54 222,-232.04 250,-232.04 250,-250.54"/>
<text text-anchor="middle" x="236" y="-237.99" font-family="Times,serif" font-size="9.00">&#45;18</text>
</g>
<!-- &#45;18&#45;&gt;135 -->
<g id="edge23" class="edge">
<title>&#45;18&#45;&gt;135</title>
<path fill="none" stroke="green" stroke-width="0.21" stroke-dasharray="1,5" d="M239.96,-231.6C250.06,-209.46 277.1,-150.2 293.28,-114.74"/>
<polygon fill="green" stroke="green" stroke-width="0.21" points="296.43,-116.26 297.4,-105.71 290.06,-113.35 296.43,-116.26"/>
</g>
<!-- &#45;18&#45;&gt;136 -->
<g id="edge18" class="edge">
<title>&#45;18&#45;&gt;136</title>
<path fill="none" stroke="red" stroke-width="0.5" d="M230.26,-231.6C223.66,-221.6 212.49,-204.69 203.03,-190.36"/>
<polygon fill="red" stroke="red" stroke-width="0.5" points="205.97,-188.47 197.54,-182.05 200.13,-192.32 205.97,-188.47"/>
</g>
<!-- &#45;19 -->
<g id="node19" class="node">
<title>&#45;19</title>
<polygon fill="lightgray" stroke="black" points="338,-250.54 310,-250.54 310,-232.04 338,-232.04 338,-250.54"/>
<text text-anchor="middle" x="324" y="-237.99" font-family="Times,serif" font-size="9.00">&#45;19</text>
</g>
<!-- &#45;19&#45;&gt;134 -->
<g id="edge34" class="edge">
<title>&#45;19&#45;&gt;134</title>
<path fill="none" stroke="red" stroke-width="0.4" stroke-dasharray="1,5" d="M332.38,-231.75C336.51,-227.9 341.72,-223.53 347,-220.43 386.65,-197.14 437.66,-180.9 469.6,-172.15"/>
<polygon fill="red" stroke="red" stroke-width="0.4" points="470.32,-175.58 479.08,-169.62 468.51,-168.82 470.32,-175.58"/>
</g>
<!-- &#45;19&#45;&gt;135 -->
<g id="edge3" class="edge">
<title>&#45;19&#45;&gt;135</title>
<path fill="none" stroke="green" stroke-width="0.39" stroke-dasharray="1,5" d="M317.25,-231.83C309.39,-221.4 296.89,-202.79 292,-184.43 285.98,-161.82 290.38,-135.54 295.79,-115.95"/>
<polygon fill="green" stroke="green" stroke-width="0.39" points="299.14,-116.97 298.67,-106.38 292.44,-114.95 299.14,-116.97"/>
</g>
<!-- &#45;19&#45;&gt;136 -->
<g id="edge25" class="edge">
<title>&#45;19&#45;&gt;136</title>
<path fill="none" stroke="green" stroke-width="0.48" d="M315.04,-231.59C310.95,-227.89 305.94,-223.68 301,-220.43 273.38,-202.25 238.97,-186.31 215.02,-176.17"/>
<polygon fill="green" stroke="green" stroke-width="0.48" points="216.37,-172.94 205.8,-172.33 213.68,-179.4 216.37,-172.94"/>
</g>
<!-- &#45;20 -->
<g id="node20" class="node">
<title>&#45;20</title>
<polygon fill="lightgray" stroke="black" points="204,-250.54 176,-250.54 176,-232.04 204,-232.04 204,-250.54"/>
<text text-anchor="middle" x="190" y="-237.99" font-family="Times,serif" font-size="9.00">&#45;20</text>
</g>
<!-- &#45;20&#45;&gt;136 -->
<g id="edge36" class="edge">
<title>&#45;20&#45;&gt;136</title>
<path fill="none" stroke="red" stroke-width="0.92" d="M189.54,-231.6C189.08,-222.83 188.33,-208.75 187.65,-195.76"/>
<polygon fill="red" stroke="red" stroke-width="0.92" points="191.16,-195.97 187.14,-186.17 184.17,-196.34 191.16,-195.97"/>
</g>
<!-- 0 -->
<g id="node21" class="node">
<title>0</title>
<ellipse fill="lightblue" stroke="black" cx="412" cy="-14.5" rx="14.5" ry="14.5"/>
<text text-anchor="middle" x="412" y="-11.2" font-family="Times,serif" font-size="9.00">0</text>
</g>
<!-- 1 -->
<g id="node22" class="node">
<title>1</title>
<ellipse fill="lightblue" stroke="black" cx="585" cy="-14.5" rx="14.5" ry="14.5"/>
<text text-anchor="middle" x="585" y="-11.2" font-family="Times,serif" font-size="9.00">1</text>
</g>
<!-- 3 -->
<g id="node24" class="node">
<title>3</title>
<ellipse fill="lightblue" stroke="black" cx="465" cy="-85.85" rx="14.5" ry="14.5"/>
<text text-anchor="middle" x="465" y="-82.55" font-family="Times,serif" font-size="9.00">3</text>
</g>
<!-- 4 -->
<g id="node25" class="node">
<title>4</title>
<ellipse fill="lightblue" stroke="black" cx="502" cy="-14.5" rx="14.5" ry="14.5"/>
<text text-anchor="middle" x="502" y="-11.2" font-family="Times,serif" font-size="9.00">4</text>
</g>
<!-- 133&#45;&gt;1 -->
<g id="edge35" class="edge">
<title>133&#45;&gt;1</title>
<path fill="none" stroke="green" stroke-width="0.23" stroke-dasharray="1,5" d="M592.96,-142.72C596.34,-122.97 600.21,-91.83 597,-64.99 595.95,-56.23 593.9,-46.77 591.78,-38.49"/>
<polygon fill="green" stroke="green" stroke-width="0.23" points="595.23,-37.84 589.22,-29.11 588.47,-39.68 595.23,-37.84"/>
</g>
<!-- 133&#45;&gt;4 -->
<g id="edge5" class="edge">
<title>133&#45;&gt;4</title>
<path fill="none" stroke="red" stroke-width="0.49" stroke-dasharray="1,5" d="M579.97,-144.63C569.83,-124.81 552.62,-92.11 536,-64.99 529.86,-54.96 522.52,-44.16 516.24,-35.22"/>
<polygon fill="red" stroke="red" stroke-width="0.49" points="519.25,-33.41 510.61,-27.28 513.55,-37.46 519.25,-33.41"/>
</g>
<!-- 134&#45;&gt;0 -->
<g id="edge31" class="edge">
<title>134&#45;&gt;0</title>
<path fill="none" stroke="green" stroke-width="0.24" d="M502.23,-142.64C503.57,-121.7 502.73,-88.59 488,-64.99 475.69,-45.27 452.3,-31.83 434.7,-23.99"/>
<polygon fill="green" stroke="green" stroke-width="0.24" points="436.54,-20.96 425.96,-20.34 433.84,-27.42 436.54,-20.96"/>
</g>
<!-- 134&#45;&gt;2 -->
<g id="edge27" class="edge">
<title>134&#45;&gt;2</title>
<path fill="none" stroke="red" stroke-width="0.16" d="M482.39,-152.09C476.89,-148.95 470.75,-145.58 465,-142.71 429.02,-124.76 416.05,-128.09 382,-106.71 380.11,-105.53 378.22,-104.19 376.38,-102.79"/>
<polygon fill="red" stroke="red" stroke-width="0.16" points="378.89,-100.32 368.96,-96.61 374.4,-105.7 378.89,-100.32"/>
</g>
<!-- 134&#45;&gt;3 -->
<g id="edge20" class="edge">
<title>134&#45;&gt;3</title>
<path fill="none" stroke="green" stroke-width="0.11" d="M491.53,-144.24C486.58,-133.54 480.31,-119.98 475.11,-108.73"/>
<polygon fill="green" stroke="green" stroke-width="0.11" points="478.32,-107.32 470.94,-99.71 471.96,-110.26 478.32,-107.32"/>
</g>
<!-- 134&#45;&gt;4 -->
<g id="edge4" class="edge">
<title>134&#45;&gt;4</title>
<path fill="none" stroke="green" stroke-width="0.34" d="M508.83,-144.17C513.46,-133.51 518.65,-119.66 521,-106.71 524.32,-88.47 524.38,-83.22 521,-64.99 519.26,-55.6 515.81,-45.68 512.32,-37.22"/>
<polygon fill="green" stroke="green" stroke-width="0.34" points="515.59,-35.96 508.36,-28.21 509.18,-38.77 515.59,-35.96"/>
</g>
<!-- 309 -->
<g id="node33" class="node">
<title>309</title>
<ellipse fill="white" stroke="black" cx="412" cy="-85.85" rx="20.86" ry="20.86"/>
<text text-anchor="middle" x="412" y="-82.55" font-family="Times,serif" font-size="9.00">309</text>
</g>
<!-- 134&#45;&gt;309 -->
<g id="edge42" class="edge">
<title>134&#45;&gt;309</title>
<path fill="none" stroke="green" stroke-width="0.34" d="M484.67,-149.38C471,-137.62 450.79,-120.23 435.15,-106.77"/>
<polygon fill="green" stroke="green" stroke-width="0.34" points="437.7,-104.35 427.84,-100.48 433.13,-109.65 437.7,-104.35"/>
</g>
<!-- 135&#45;&gt;1 -->
<g id="edge8" class="edge">
<title>135&#45;&gt;1</title>
<path fill="none" stroke="red" stroke-width="0.42" stroke-dasharray="1,5" d="M322.48,-72.27C326.71,-69.52 331.37,-66.87 336,-64.99 415.2,-32.76 441.28,-46.38 525,-28.99 536.76,-26.55 549.77,-23.65 560.66,-21.16"/>
<polygon fill="red" stroke="red" stroke-width="0.42" points="561.14,-24.64 570.1,-18.99 559.57,-17.82 561.14,-24.64"/>
</g>
<!-- 135&#45;&gt;4 -->
<g id="edge1" class="edge">
<title>135&#45;&gt;4</title>
<path fill="none" stroke="green" stroke-width="0.4" stroke-dasharray="1,5" d="M322.62,-72.6C326.85,-69.84 331.47,-67.11 336,-64.99 383.97,-42.57 444.49,-27.57 477.6,-20.4"/>
<polygon fill="green" stroke="green" stroke-width="0.4" points="478.07,-23.88 487.13,-18.39 476.62,-17.03 478.07,-23.88"/>
</g>
<!-- 136&#45;&gt;0 -->
<g id="edge19" class="edge">
<title>136&#45;&gt;0</title>
<path fill="none" stroke="red" stroke-width="0.14" d="M197.51,-145.79C213.04,-124.31 242.62,-87.22 276,-64.99 311.42,-41.41 359.5,-27.37 387.98,-20.56"/>
<polygon fill="red" stroke="red" stroke-width="0.14" points="388.7,-23.99 397.67,-18.35 387.14,-17.17 388.7,-23.99"/>
</g>
<!-- 136&#45;&gt;135 -->
<g id="edge41" class="edge">
<title>136&#45;&gt;135</title>
<path fill="none" stroke="red" stroke-width="0.22" d="M203.45,-151.56C223.53,-138.89 256.73,-117.94 279.89,-103.33"/>
<polygon fill="red" stroke="red" stroke-width="0.22" points="281.66,-106.34 288.25,-98.05 277.93,-100.42 281.66,-106.34"/>
</g>
<!-- 294 -->
<g id="node30" class="node">
<title>294</title>
<ellipse fill="white" stroke="black" cx="364" cy="-163.57" rx="20.86" ry="20.86"/>
<text text-anchor="middle" x="364" y="-160.27" font-family="Times,serif" font-size="9.00">294</text>
</g>
<!-- 294&#45;&gt;135 -->
<g id="edge40" class="edge">
<title>294&#45;&gt;135</title>
<path fill="none" stroke="green" stroke-width="0.4" d="M351.7,-146.51C343.91,-136.34 333.68,-122.99 324.87,-111.49"/>
<polygon fill="green" stroke="green" stroke-width="0.4" points="327.71,-109.44 318.85,-103.62 322.15,-113.69 327.71,-109.44"/>
</g>
<!-- 320 -->
<g id="node31" class="node">
<title>320</title>
<ellipse fill="white" stroke="black" cx="845" cy="-241.29" rx="20.86" ry="20.86"/>
<text text-anchor="middle" x="845" y="-237.99" font-family="Times,serif" font-size="9.00">320</text>
</g>
<!-- 320&#45;&gt;133 -->
<g id="edge44" class="edge">
<title>320&#45;&gt;133</title>
<path fill="none" stroke="red" stroke-width="0.3" d="M828.45,-227.88C824.22,-225.13 819.58,-222.44 815,-220.43 748.84,-191.4 664.88,-175.67 620.24,-168.83"/>
<polygon fill="red" stroke="red" stroke-width="0.3" points="620.89,-165.39 610.48,-167.38 619.86,-172.31 620.89,-165.39"/>
</g>
<!-- 309&#45;&gt;0 -->
<g id="edge45" class="edge">
<title>309&#45;&gt;0</title>
<path fill="none" stroke="red" stroke-width="0.19" d="M412,-64.79C412,-56.89 412,-47.75 412,-39.5"/>
<polygon fill="red" stroke="red" stroke-width="0.19" points="415.5,-39.64 412,-29.64 408.5,-39.64 415.5,-39.64"/>
</g>
<!-- 309&#45;&gt;4 -->
<g id="edge43" class="edge">
<title>309&#45;&gt;4</title>
<path fill="none" stroke="red" stroke-width="0.26" d="M428.09,-72.45C443.5,-60.57 466.77,-42.65 483.07,-30.09"/>
<polygon fill="red" stroke="red" stroke-width="0.26" points="484.78,-33.19 490.56,-24.31 480.5,-27.64 484.78,-33.19"/>
</g>
<!-- 343&#45;&gt;133 -->
<g id="edge47" class="edge">
<title>343&#45;&gt;133</title>
<path fill="none" stroke="red" stroke-width="0.15" d="M593.39,-220C592.78,-212.21 592.06,-203.15 591.38,-194.64"/>
<polygon fill="red" stroke="red" stroke-width="0.15" points="594.89,-194.58 590.61,-184.88 587.91,-195.13 594.89,-194.58"/>
</g>
</g>
</svg>
