<?xml version="1.0" encoding="UTF-8" standalone="no"?>
<!DOCTYPE svg PUBLIC "-//W3C//DTD SVG 1.1//EN"
 "http://www.w3.org/Graphics/SVG/1.1/DTD/svg11.dtd">
<!-- Generated by graphviz version 12.1.1 (20240910.0053)
 -->
<!-- Pages: 1 -->
<svg width="904pt" height="253pt"
 viewBox="0.00 0.00 903.62 253.29" xmlns="http://www.w3.org/2000/svg" xmlns:xlink="http://www.w3.org/1999/xlink">
<g id="graph0" class="graph" transform="scale(1 1) rotate(0) translate(4 249.29)">
<polygon fill="white" stroke="none" points="-4,4 -4,-249.29 899.62,-249.29 899.62,4 -4,4"/>
<!-- &#45;1 -->
<g id="node1" class="node">
<title>&#45;1</title>
<polygon fill="lightgray" stroke="black" points="305.62,-179.18 282.12,-179.18 282.12,-160.68 305.62,-160.68 305.62,-179.18"/>
<text text-anchor="middle" x="293.87" y="-166.63" font-family="Times,serif" font-size="9.00">&#45;1</text>
</g>
<!-- 79 -->
<g id="node30" class="node">
<title>79</title>
<ellipse fill="white" stroke="black" cx="272.87" cy="-95.4" rx="17.68" ry="17.68"/>
<text text-anchor="middle" x="272.87" y="-92.1" font-family="Times,serif" font-size="9.00">79</text>
</g>
<!-- &#45;1&#45;&gt;79 -->
<g id="edge30" class="edge">
<title>&#45;1&#45;&gt;79</title>
<path fill="none" stroke="green" stroke-width="0.58" stroke-dasharray="1,5" d="M291.38,-160.33C288.73,-151.18 284.41,-136.25 280.61,-123.12"/>
<polygon fill="green" stroke="green" stroke-width="0.58" points="283.97,-122.16 277.83,-113.52 277.25,-124.1 283.97,-122.16"/>
</g>
<!-- 80 -->
<g id="node31" class="node">
<title>80</title>
<ellipse fill="white" stroke="black" cx="463.87" cy="-95.4" rx="17.68" ry="17.68"/>
<text text-anchor="middle" x="463.87" y="-92.1" font-family="Times,serif" font-size="9.00">80</text>
</g>
<!-- &#45;1&#45;&gt;80 -->
<g id="edge7" class="edge">
<title>&#45;1&#45;&gt;80</title>
<path fill="none" stroke="green" stroke-width="0.33" d="M301.39,-160.34C305.13,-156.47 309.91,-152.11 314.87,-149.07 354.03,-125.14 405.63,-109.99 436.7,-102.37"/>
<polygon fill="green" stroke="green" stroke-width="0.33" points="437.36,-105.81 446.29,-100.1 435.75,-99 437.36,-105.81"/>
</g>
<!-- &#45;2 -->
<g id="node2" class="node">
<title>&#45;2</title>
<polygon fill="lightgray" stroke="black" points="510.62,-245.29 487.12,-245.29 487.12,-226.79 510.62,-226.79 510.62,-245.29"/>
<text text-anchor="middle" x="498.87" y="-232.74" font-family="Times,serif" font-size="9.00">&#45;2</text>
</g>
<!-- 77 -->
<g id="node28" class="node">
<title>77</title>
<ellipse fill="white" stroke="black" cx="169.87" cy="-95.4" rx="17.68" ry="17.68"/>
<text text-anchor="middle" x="169.87" y="-92.1" font-family="Times,serif" font-size="9.00">77</text>
</g>
<!-- &#45;2&#45;&gt;77 -->
<g id="edge2" class="edge">
<title>&#45;2&#45;&gt;77</title>
<path fill="none" stroke="red" stroke-width="0.3" stroke-dasharray="1,5" d="M486.72,-234.9C414.34,-233.94 42.15,-227.21 8.87,-190.79 -3.63,-177.11 -2.01,-164.09 8.87,-149.07 39.27,-107.14 104.04,-97.97 141.51,-96.33"/>
<polygon fill="red" stroke="red" stroke-width="0.3" points="141.4,-99.84 151.29,-96.06 141.2,-92.84 141.4,-99.84"/>
</g>
<!-- 78 -->
<g id="node29" class="node">
<title>78</title>
<ellipse fill="white" stroke="black" cx="639.87" cy="-95.4" rx="17.68" ry="17.68"/>
<text text-anchor="middle" x="639.87" y="-92.1" font-family="Times,serif" font-size="9.00">78</text>
</g>
<!-- &#45;2&#45;&gt;78 -->
<g id="edge43" class="edge">
<title>&#45;2&#45;&gt;78</title>
<path fill="none" stroke="red" stroke-width="0.25" stroke-dasharray="1,5" d="M511.03,-233.65C545.75,-229.4 644.04,-215.38 662.87,-190.79 678.79,-170.01 666.95,-139.72 655.16,-119.1"/>
<polygon fill="red" stroke="red" stroke-width="0.25" points="658.23,-117.41 650.04,-110.69 652.25,-121.05 658.23,-117.41"/>
</g>
<!-- &#45;2&#45;&gt;79 -->
<g id="edge16" class="edge">
<title>&#45;2&#45;&gt;79</title>
<path fill="none" stroke="red" stroke-width="0.38" stroke-dasharray="1,5" d="M486.78,-235.01C439.03,-234.62 264.51,-230.44 230.87,-190.79 211.82,-168.33 234.49,-135.85 253.19,-115.44"/>
<polygon fill="red" stroke="red" stroke-width="0.38" points="255.53,-118.06 259.93,-108.42 250.48,-113.21 255.53,-118.06"/>
</g>
<!-- 333 -->
<g id="node32" class="node">
<title>333</title>
<ellipse fill="white" stroke="black" cx="832.87" cy="-169.93" rx="20.86" ry="20.86"/>
<text text-anchor="middle" x="832.87" y="-166.63" font-family="Times,serif" font-size="9.00">333</text>
</g>
<!-- &#45;2&#45;&gt;333 -->
<g id="edge47" class="edge">
<title>&#45;2&#45;&gt;333</title>
<path fill="none" stroke="green" stroke-width="0.28" d="M510.94,-234C560.42,-229.6 747.69,-211.86 802.87,-190.79 804.52,-190.17 806.16,-189.44 807.79,-188.63"/>
<polygon fill="green" stroke="green" stroke-width="0.28" points="809.49,-191.7 816.4,-183.67 805.99,-185.63 809.49,-191.7"/>
</g>
<!-- &#45;3 -->
<g id="node3" class="node">
<title>&#45;3</title>
<polygon fill="lightgray" stroke="black" points="733.62,-179.18 710.12,-179.18 710.12,-160.68 733.62,-160.68 733.62,-179.18"/>
<text text-anchor="middle" x="721.87" y="-166.63" font-family="Times,serif" font-size="9.00">&#45;3</text>
</g>
<!-- &#45;3&#45;&gt;78 -->
<g id="edge14" class="edge">
<title>&#45;3&#45;&gt;78</title>
<path fill="none" stroke="green" stroke-width="0.23" d="M712.14,-160.33C699.46,-149.11 676.93,-129.18 660.39,-114.55"/>
<polygon fill="green" stroke="green" stroke-width="0.23" points="662.89,-112.09 653.09,-108.09 658.26,-117.33 662.89,-112.09"/>
</g>
<!-- &#45;4 -->
<g id="node4" class="node">
<title>&#45;4</title>
<polygon fill="lightgray" stroke="black" points="347.62,-179.18 324.12,-179.18 324.12,-160.68 347.62,-160.68 347.62,-179.18"/>
<text text-anchor="middle" x="335.87" y="-166.63" font-family="Times,serif" font-size="9.00">&#45;4</text>
</g>
<!-- &#45;4&#45;&gt;78 -->
<g id="edge50" class="edge">
<title>&#45;4&#45;&gt;78</title>
<path fill="none" stroke="green" stroke-width="0.23" d="M342.81,-160.39C346.56,-156.34 351.51,-151.81 356.87,-149.07 401.52,-126.35 549.77,-106.92 612,-99.55"/>
<polygon fill="green" stroke="green" stroke-width="0.23" points="612.36,-103.03 621.89,-98.4 611.55,-96.08 612.36,-103.03"/>
</g>
<!-- &#45;4&#45;&gt;79 -->
<g id="edge23" class="edge">
<title>&#45;4&#45;&gt;79</title>
<path fill="none" stroke="green" stroke-width="0.19" stroke-dasharray="1,5" d="M328.4,-160.33C319.16,-149.69 303.13,-131.23 290.66,-116.87"/>
<polygon fill="green" stroke="green" stroke-width="0.19" points="293.55,-114.87 284.35,-109.62 288.27,-119.46 293.55,-114.87"/>
</g>
<!-- &#45;5 -->
<g id="node5" class="node">
<title>&#45;5</title>
<polygon fill="lightgray" stroke="black" points="657.62,-245.29 634.12,-245.29 634.12,-226.79 657.62,-226.79 657.62,-245.29"/>
<text text-anchor="middle" x="645.87" y="-232.74" font-family="Times,serif" font-size="9.00">&#45;5</text>
</g>
<!-- &#45;5&#45;&gt;80 -->
<g id="edge4" class="edge">
<title>&#45;5&#45;&gt;80</title>
<path fill="none" stroke="green" stroke-width="0.45" d="M633.93,-235.7C603.76,-236.66 523.94,-234.69 482.87,-190.79 466.22,-173 462.37,-144.85 462.15,-123.92"/>
<polygon fill="green" stroke="green" stroke-width="0.45" points="465.64,-124.18 462.31,-114.12 458.64,-124.06 465.64,-124.18"/>
</g>
<!-- &#45;5&#45;&gt;333 -->
<g id="edge49" class="edge">
<title>&#45;5&#45;&gt;333</title>
<path fill="none" stroke="green" stroke-width="0.35" stroke-dasharray="1,5" d="M657.78,-230.09C660.73,-228.94 663.9,-227.77 666.87,-226.79 726.29,-207.33 745.83,-216.39 802.87,-190.79 804.44,-190.09 806.02,-189.31 807.58,-188.48"/>
<polygon fill="green" stroke="green" stroke-width="0.35" points="809.04,-191.68 815.84,-183.56 805.45,-185.67 809.04,-191.68"/>
</g>
<!-- &#45;6 -->
<g id="node6" class="node">
<title>&#45;6</title>
<polygon fill="lightgray" stroke="black" points="263.62,-179.18 240.12,-179.18 240.12,-160.68 263.62,-160.68 263.62,-179.18"/>
<text text-anchor="middle" x="251.87" y="-166.63" font-family="Times,serif" font-size="9.00">&#45;6</text>
</g>
<!-- &#45;6&#45;&gt;79 -->
<g id="edge31" class="edge">
<title>&#45;6&#45;&gt;79</title>
<path fill="none" stroke="green" stroke-width="0.23" d="M254.36,-160.33C257.07,-151 261.51,-135.65 265.36,-122.34"/>
<polygon fill="green" stroke="green" stroke-width="0.23" points="268.64,-123.59 268.06,-113.01 261.92,-121.65 268.64,-123.59"/>
</g>
<!-- &#45;7 -->
<g id="node7" class="node">
<title>&#45;7</title>
<polygon fill="lightgray" stroke="black" points="389.62,-179.18 366.12,-179.18 366.12,-160.68 389.62,-160.68 389.62,-179.18"/>
<text text-anchor="middle" x="377.87" y="-166.63" font-family="Times,serif" font-size="9.00">&#45;7</text>
</g>
<!-- &#45;7&#45;&gt;78 -->
<g id="edge11" class="edge">
<title>&#45;7&#45;&gt;78</title>
<path fill="none" stroke="green" stroke-width="0.5" d="M384.85,-160.46C388.6,-156.43 393.55,-151.89 398.87,-149.07 435.8,-129.55 556.37,-109.2 611.68,-100.61"/>
<polygon fill="green" stroke="green" stroke-width="0.5" points="612.03,-104.1 621.39,-99.12 610.97,-97.18 612.03,-104.1"/>
</g>
<!-- &#45;7&#45;&gt;79 -->
<g id="edge37" class="edge">
<title>&#45;7&#45;&gt;79</title>
<path fill="none" stroke="green" stroke-width="0.15" stroke-dasharray="1,5" d="M369.63,-160.42C365.89,-156.75 361.32,-152.52 356.87,-149.07 337.81,-134.32 314.46,-119.94 297.22,-109.94"/>
<polygon fill="green" stroke="green" stroke-width="0.15" points="298.96,-106.9 288.54,-104.98 295.49,-112.98 298.96,-106.9"/>
</g>
<!-- &#45;8 -->
<g id="node8" class="node">
<title>&#45;8</title>
<polygon fill="lightgray" stroke="black" points="895.62,-179.18 872.12,-179.18 872.12,-160.68 895.62,-160.68 895.62,-179.18"/>
<text text-anchor="middle" x="883.87" y="-166.63" font-family="Times,serif" font-size="9.00">&#45;8</text>
</g>
<!-- 3 -->
<g id="node24" class="node">
<title>3</title>
<ellipse fill="lightblue" stroke="black" cx="688.87" cy="-20.86" rx="14.5" ry="14.5"/>
<text text-anchor="middle" x="688.87" y="-17.56" font-family="Times,serif" font-size="9.00">3</text>
</g>
<!-- &#45;8&#45;&gt;3 -->
<g id="edge45" class="edge">
<title>&#45;8&#45;&gt;3</title>
<path fill="none" stroke="green" stroke-width="0.3" d="M875.51,-160.57C871.75,-156.92 867.19,-152.67 862.87,-149.07 809.52,-104.64 742.09,-57.79 709.03,-35.36"/>
<polygon fill="green" stroke="green" stroke-width="0.3" points="711.27,-32.66 701.03,-29.96 707.36,-38.46 711.27,-32.66"/>
</g>
<!-- &#45;8&#45;&gt;78 -->
<g id="edge13" class="edge">
<title>&#45;8&#45;&gt;78</title>
<path fill="none" stroke="red" stroke-width="0.23" stroke-dasharray="1,5" d="M876.88,-160.5C873.12,-156.48 868.17,-151.93 862.87,-149.07 845.65,-139.78 723.1,-113.64 667.36,-102.05"/>
<polygon fill="red" stroke="red" stroke-width="0.23" points="668.3,-98.67 657.8,-100.07 666.88,-105.53 668.3,-98.67"/>
</g>
<!-- &#45;9 -->
<g id="node9" class="node">
<title>&#45;9</title>
<polygon fill="lightgray" stroke="black" points="515.62,-179.18 492.12,-179.18 492.12,-160.68 515.62,-160.68 515.62,-179.18"/>
<text text-anchor="middle" x="503.87" y="-166.63" font-family="Times,serif" font-size="9.00">&#45;9</text>
</g>
<!-- &#45;9&#45;&gt;80 -->
<g id="edge39" class="edge">
<title>&#45;9&#45;&gt;80</title>
<path fill="none" stroke="red" stroke-width="0.36" d="M499.13,-160.33C493.71,-150.51 484.63,-134.03 477.04,-120.27"/>
<polygon fill="red" stroke="red" stroke-width="0.36" points="480.24,-118.82 472.34,-111.76 474.11,-122.2 480.24,-118.82"/>
</g>
<!-- &#45;10 -->
<g id="node10" class="node">
<title>&#45;10</title>
<polygon fill="lightgray" stroke="black" points="561.87,-179.18 533.87,-179.18 533.87,-160.68 561.87,-160.68 561.87,-179.18"/>
<text text-anchor="middle" x="547.87" y="-166.63" font-family="Times,serif" font-size="9.00">&#45;10</text>
</g>
<!-- &#45;10&#45;&gt;80 -->
<g id="edge33" class="edge">
<title>&#45;10&#45;&gt;80</title>
<path fill="none" stroke="red" stroke-width="0.18" stroke-dasharray="1,5" d="M537.91,-160.33C524.84,-149.04 501.57,-128.95 484.6,-114.3"/>
<polygon fill="red" stroke="red" stroke-width="0.18" points="486.92,-111.67 477.06,-107.79 482.34,-116.97 486.92,-111.67"/>
</g>
<!-- &#45;11 -->
<g id="node11" class="node">
<title>&#45;11</title>
<polygon fill="lightgray" stroke="black" points="703.87,-245.29 675.87,-245.29 675.87,-226.79 703.87,-226.79 703.87,-245.29"/>
<text text-anchor="middle" x="689.87" y="-232.74" font-family="Times,serif" font-size="9.00">&#45;11</text>
</g>
<!-- &#45;12 -->
<g id="node12" class="node">
<title>&#45;12</title>
<polygon fill="lightgray" stroke="black" points="45.87,-179.18 17.87,-179.18 17.87,-160.68 45.87,-160.68 45.87,-179.18"/>
<text text-anchor="middle" x="31.87" y="-166.63" font-family="Times,serif" font-size="9.00">&#45;12</text>
</g>
<!-- &#45;12&#45;&gt;77 -->
<g id="edge40" class="edge">
<title>&#45;12&#45;&gt;77</title>
<path fill="none" stroke="red" stroke-width="0.59" stroke-dasharray="1,5" d="M40.37,-160.58C44.52,-156.77 49.72,-152.38 54.87,-149.07 83.23,-130.86 118.93,-115.55 142.97,-106.21"/>
<polygon fill="red" stroke="red" stroke-width="0.59" points="144.18,-109.49 152.28,-102.67 141.69,-102.95 144.18,-109.49"/>
</g>
<!-- &#45;13 -->
<g id="node13" class="node">
<title>&#45;13</title>
<polygon fill="lightgray" stroke="black" points="653.87,-179.18 625.87,-179.18 625.87,-160.68 653.87,-160.68 653.87,-179.18"/>
<text text-anchor="middle" x="639.87" y="-166.63" font-family="Times,serif" font-size="9.00">&#45;13</text>
</g>
<!-- &#45;13&#45;&gt;78 -->
<g id="edge19" class="edge">
<title>&#45;13&#45;&gt;78</title>
<path fill="none" stroke="red" stroke-width="0.28" stroke-dasharray="1,5" d="M639.87,-160.33C639.87,-151.36 639.87,-136.83 639.87,-123.88"/>
<polygon fill="red" stroke="red" stroke-width="0.28" points="643.37,-123.96 639.87,-113.96 636.37,-123.96 643.37,-123.96"/>
</g>
<!-- &#45;13&#45;&gt;80 -->
<g id="edge21" class="edge">
<title>&#45;13&#45;&gt;80</title>
<path fill="none" stroke="red" stroke-width="0.22" stroke-dasharray="1,5" d="M631.52,-160.35C627.4,-156.49 622.18,-152.13 616.87,-149.07 575.96,-125.54 522.85,-110.21 491.17,-102.45"/>
<polygon fill="red" stroke="red" stroke-width="0.22" points="492.16,-99.09 481.62,-100.18 490.54,-105.9 492.16,-99.09"/>
</g>
<!-- &#45;14 -->
<g id="node14" class="node">
<title>&#45;14</title>
<polygon fill="lightgray" stroke="black" points="91.87,-179.18 63.87,-179.18 63.87,-160.68 91.87,-160.68 91.87,-179.18"/>
<text text-anchor="middle" x="77.87" y="-166.63" font-family="Times,serif" font-size="9.00">&#45;14</text>
</g>
<!-- &#45;14&#45;&gt;77 -->
<g id="edge15" class="edge">
<title>&#45;14&#45;&gt;77</title>
<path fill="none" stroke="green" stroke-width="0.65" d="M87.61,-160.3C91.67,-156.76 96.45,-152.67 100.87,-149.07 116.08,-136.72 133.64,-123.33 147.23,-113.14"/>
<polygon fill="green" stroke="green" stroke-width="0.65" points="149.23,-116.02 155.15,-107.24 145.04,-110.41 149.23,-116.02"/>
</g>
<!-- &#45;14&#45;&gt;79 -->
<g id="edge26" class="edge">
<title>&#45;14&#45;&gt;79</title>
<path fill="none" stroke="red" stroke-width="0.51" stroke-dasharray="1,5" d="M86.18,-160.27C90.29,-156.39 95.52,-152.03 100.87,-149.07 125.97,-135.21 203.53,-114.14 245.4,-103.33"/>
<polygon fill="red" stroke="red" stroke-width="0.51" points="246.14,-106.75 254.96,-100.88 244.41,-99.97 246.14,-106.75"/>
</g>
<!-- &#45;15 -->
<g id="node15" class="node">
<title>&#45;15</title>
<polygon fill="lightgray" stroke="black" points="137.87,-179.18 109.87,-179.18 109.87,-160.68 137.87,-160.68 137.87,-179.18"/>
<text text-anchor="middle" x="123.87" y="-166.63" font-family="Times,serif" font-size="9.00">&#45;15</text>
</g>
<!-- &#45;15&#45;&gt;77 -->
<g id="edge22" class="edge">
<title>&#45;15&#45;&gt;77</title>
<path fill="none" stroke="red" stroke-width="0.8" stroke-dasharray="1,5" d="M129.33,-160.33C135.54,-150.54 145.93,-134.15 154.65,-120.41"/>
<polygon fill="red" stroke="red" stroke-width="0.8" points="157.56,-122.35 159.96,-112.03 151.65,-118.6 157.56,-122.35"/>
</g>
<!-- &#45;15&#45;&gt;80 -->
<g id="edge12" class="edge">
<title>&#45;15&#45;&gt;80</title>
<path fill="none" stroke="green" stroke-width="0.43" d="M131.6,-160.35C135.73,-156.29 141.14,-151.76 146.87,-149.07 173,-136.82 363.92,-109.97 436.23,-100.12"/>
<polygon fill="green" stroke="green" stroke-width="0.43" points="436.3,-103.64 445.74,-98.83 435.36,-96.7 436.3,-103.64"/>
</g>
<!-- &#45;16 -->
<g id="node16" class="node">
<title>&#45;16</title>
<polygon fill="lightgray" stroke="black" points="749.87,-245.29 721.87,-245.29 721.87,-226.79 749.87,-226.79 749.87,-245.29"/>
<text text-anchor="middle" x="735.87" y="-232.74" font-family="Times,serif" font-size="9.00">&#45;16</text>
</g>
<!-- &#45;17 -->
<g id="node17" class="node">
<title>&#45;17</title>
<polygon fill="lightgray" stroke="black" points="607.87,-179.18 579.87,-179.18 579.87,-160.68 607.87,-160.68 607.87,-179.18"/>
<text text-anchor="middle" x="593.87" y="-166.63" font-family="Times,serif" font-size="9.00">&#45;17</text>
</g>
<!-- &#45;17&#45;&gt;80 -->
<g id="edge27" class="edge">
<title>&#45;17&#45;&gt;80</title>
<path fill="none" stroke="green" stroke-width="0.53" stroke-dasharray="1,5" d="M584.9,-160.25C580.82,-156.55 575.8,-152.34 570.87,-149.07 544.79,-131.8 512.23,-116.57 489.92,-106.99"/>
<polygon fill="green" stroke="green" stroke-width="0.53" points="491.46,-103.84 480.89,-103.18 488.74,-110.29 491.46,-103.84"/>
</g>
<!-- &#45;18 -->
<g id="node18" class="node">
<title>&#45;18</title>
<polygon fill="lightgray" stroke="black" points="795.87,-245.29 767.87,-245.29 767.87,-226.79 795.87,-226.79 795.87,-245.29"/>
<text text-anchor="middle" x="781.87" y="-232.74" font-family="Times,serif" font-size="9.00">&#45;18</text>
</g>
<!-- &#45;19 -->
<g id="node19" class="node">
<title>&#45;19</title>
<polygon fill="lightgray" stroke="black" points="183.87,-179.18 155.87,-179.18 155.87,-160.68 183.87,-160.68 183.87,-179.18"/>
<text text-anchor="middle" x="169.87" y="-166.63" font-family="Times,serif" font-size="9.00">&#45;19</text>
</g>
<!-- &#45;19&#45;&gt;77 -->
<g id="edge24" class="edge">
<title>&#45;19&#45;&gt;77</title>
<path fill="none" stroke="red" stroke-width="0.34" d="M169.87,-160.33C169.87,-151.36 169.87,-136.83 169.87,-123.88"/>
<polygon fill="red" stroke="red" stroke-width="0.34" points="173.37,-124.05 169.87,-114.05 166.37,-124.05 173.37,-124.05"/>
</g>
<!-- &#45;19&#45;&gt;79 -->
<g id="edge17" class="edge">
<title>&#45;19&#45;&gt;79</title>
<path fill="none" stroke="red" stroke-width="0.74" d="M182.13,-160.22C187.02,-156.75 192.71,-152.72 197.87,-149.07 215.15,-136.88 234.7,-123.15 249.51,-112.77"/>
<polygon fill="red" stroke="red" stroke-width="0.74" points="251.39,-115.72 257.57,-107.12 247.37,-109.99 251.39,-115.72"/>
</g>
<!-- &#45;19&#45;&gt;80 -->
<g id="edge3" class="edge">
<title>&#45;19&#45;&gt;80</title>
<path fill="none" stroke="green" stroke-width="0.65" stroke-dasharray="1,5" d="M184.3,-163.82C196.59,-159.56 214.77,-153.51 230.87,-149.07 304.1,-128.92 391.8,-110.64 435.79,-101.87"/>
<polygon fill="green" stroke="green" stroke-width="0.65" points="436.4,-105.32 445.53,-99.95 435.04,-98.45 436.4,-105.32"/>
</g>
<!-- &#45;20 -->
<g id="node20" class="node">
<title>&#45;20</title>
<polygon fill="lightgray" stroke="black" points="435.87,-179.18 407.87,-179.18 407.87,-160.68 435.87,-160.68 435.87,-179.18"/>
<text text-anchor="middle" x="421.87" y="-166.63" font-family="Times,serif" font-size="9.00">&#45;20</text>
</g>
<!-- &#45;20&#45;&gt;78 -->
<g id="edge32" class="edge">
<title>&#45;20&#45;&gt;78</title>
<path fill="none" stroke="red" stroke-width="0.68" d="M436.18,-164.17C472.04,-152.24 566.27,-120.89 612.92,-105.37"/>
<polygon fill="red" stroke="red" stroke-width="0.68" points="613.8,-108.76 622.18,-102.28 611.59,-102.12 613.8,-108.76"/>
</g>
<!-- &#45;20&#45;&gt;79 -->
<g id="edge8" class="edge">
<title>&#45;20&#45;&gt;79</title>
<path fill="none" stroke="green" stroke-width="0.27" stroke-dasharray="1,5" d="M413.43,-160.5C409.29,-156.67 404.08,-152.29 398.87,-149.07 366.66,-129.14 325.57,-113.57 299.24,-104.68"/>
<polygon fill="green" stroke="green" stroke-width="0.27" points="300.57,-101.43 289.98,-101.63 298.38,-108.08 300.57,-101.43"/>
</g>
<!-- 0 -->
<g id="node21" class="node">
<title>0</title>
<ellipse fill="lightblue" stroke="black" cx="189.87" cy="-20.86" rx="14.5" ry="14.5"/>
<text text-anchor="middle" x="189.87" y="-17.56" font-family="Times,serif" font-size="9.00">0</text>
</g>
<!-- 1 -->
<g id="node22" class="node">
<title>1</title>
<ellipse fill="lightblue" stroke="black" cx="253.87" cy="-20.86" rx="14.5" ry="14.5"/>
<text text-anchor="middle" x="253.87" y="-17.56" font-family="Times,serif" font-size="9.00">1</text>
</g>
<!-- 2 -->
<g id="node23" class="node">
<title>2</title>
<ellipse fill="lightblue" stroke="black" cx="300.87" cy="-20.86" rx="14.5" ry="14.5"/>
<text text-anchor="middle" x="300.87" y="-17.56" font-family="Times,serif" font-size="9.00">2</text>
</g>
<!-- 3&#45;&gt;3 -->
<g id="edge34" class="edge">
<title>3&#45;&gt;3</title>
<path fill="none" stroke="red" stroke-width="0.14" stroke-dasharray="1,5" d="M698.85,-31.56C709.44,-38.26 721.37,-34.69 721.37,-20.86 721.37,-11.14 715.47,-6.49 708.29,-6.91"/>
<polygon fill="red" stroke="red" stroke-width="0.14" points="707.36,-3.53 699.05,-10.1 709.64,-10.14 707.36,-3.53"/>
</g>
<!-- 4 -->
<g id="node25" class="node">
<title>4</title>
<ellipse fill="lightblue" stroke="black" cx="562.87" cy="-20.86" rx="14.5" ry="14.5"/>
<text text-anchor="middle" x="562.87" y="-17.56" font-family="Times,serif" font-size="9.00">4</text>
</g>
<!-- 4&#45;&gt;4 -->
<g id="edge1" class="edge">
<title>4&#45;&gt;4</title>
<path fill="none" stroke="red" stroke-width="0.28" stroke-dasharray="1,5" d="M572.85,-31.56C583.44,-38.26 595.37,-34.69 595.37,-20.86 595.37,-11.14 589.47,-6.49 582.29,-6.91"/>
<polygon fill="red" stroke="red" stroke-width="0.28" points="581.57,-3.46 573.25,-10.03 583.85,-10.08 581.57,-3.46"/>
</g>
<!-- 260 -->
<g id="node26" class="node">
<title>260</title>
<ellipse fill="white" stroke="black" cx="463.87" cy="-20.86" rx="20.86" ry="20.86"/>
<text text-anchor="middle" x="463.87" y="-17.56" font-family="Times,serif" font-size="9.00">260</text>
</g>
<!-- 299 -->
<g id="node27" class="node">
<title>299</title>
<ellipse fill="white" stroke="black" cx="772.87" cy="-169.93" rx="20.86" ry="20.86"/>
<text text-anchor="middle" x="772.87" y="-166.63" font-family="Times,serif" font-size="9.00">299</text>
</g>
<!-- 299&#45;&gt;78 -->
<g id="edge46" class="edge">
<title>299&#45;&gt;78</title>
<path fill="none" stroke="green" stroke-width="0.36" stroke-dasharray="1,5" d="M755.95,-157.26C751.74,-154.48 747.19,-151.6 742.87,-149.07 716.97,-133.94 686.24,-118.54 665.12,-108.33"/>
<polygon fill="green" stroke="green" stroke-width="0.36" points="666.89,-105.3 656.36,-104.13 663.87,-111.61 666.89,-105.3"/>
</g>
<!-- 77&#45;&gt;0 -->
<g id="edge41" class="edge">
<title>77&#45;&gt;0</title>
<path fill="none" stroke="red" stroke-width="0.22" d="M174.41,-77.94C177.07,-68.28 180.48,-55.92 183.42,-45.27"/>
<polygon fill="red" stroke="red" stroke-width="0.22" points="186.78,-46.23 186.07,-35.66 180.04,-44.37 186.78,-46.23"/>
</g>
<!-- 77&#45;&gt;1 -->
<g id="edge36" class="edge">
<title>77&#45;&gt;1</title>
<path fill="none" stroke="red" stroke-width="0.22" stroke-dasharray="1,5" d="M183,-83.06C197.14,-70.85 219.76,-51.32 235.63,-37.61"/>
<polygon fill="red" stroke="red" stroke-width="0.22" points="237.7,-40.45 242.98,-31.26 233.13,-35.15 237.7,-40.45"/>
</g>
<!-- 77&#45;&gt;2 -->
<g id="edge25" class="edge">
<title>77&#45;&gt;2</title>
<path fill="none" stroke="red" stroke-width="0.26" d="M186.09,-87.83C207.62,-78.79 246.45,-61.41 276.87,-41.72 278.79,-40.48 280.73,-39.11 282.63,-37.68"/>
<polygon fill="red" stroke="red" stroke-width="0.26" points="284.63,-40.56 290.22,-31.57 280.24,-35.11 284.63,-40.56"/>
</g>
<!-- 77&#45;&gt;4 -->
<g id="edge20" class="edge">
<title>77&#45;&gt;4</title>
<path fill="none" stroke="green" stroke-width="0.23" stroke-dasharray="1,5" d="M187.01,-90.27C202.36,-86.66 225.54,-81.42 245.87,-77.72 355.45,-57.77 384.99,-65.18 493.87,-41.72 509.16,-38.43 526.04,-33.59 539.27,-29.52"/>
<polygon fill="green" stroke="green" stroke-width="0.23" points="540.18,-32.9 548.67,-26.56 538.08,-26.22 540.18,-32.9"/>
</g>
<!-- 78&#45;&gt;2 -->
<g id="edge35" class="edge">
<title>78&#45;&gt;2</title>
<path fill="none" stroke="red" stroke-width="0.27" d="M622.6,-90.7C566.6,-78.72 390.02,-40.93 325.11,-27.05"/>
<polygon fill="red" stroke="red" stroke-width="0.27" points="325.93,-23.64 315.42,-24.97 324.47,-30.49 325.93,-23.64"/>
</g>
<!-- 78&#45;&gt;4 -->
<g id="edge10" class="edge">
<title>78&#45;&gt;4</title>
<path fill="none" stroke="red" stroke-width="0.7" d="M627.16,-82.42C614.45,-70.44 594.79,-51.93 580.56,-38.52"/>
<polygon fill="red" stroke="red" stroke-width="0.7" points="583.36,-36.35 573.68,-32.04 578.56,-41.44 583.36,-36.35"/>
</g>
<!-- 78&#45;&gt;78 -->
<g id="edge5" class="edge">
<title>78&#45;&gt;78</title>
<path fill="none" stroke="red" stroke-width="0.61" d="M653.42,-107.41C664.31,-112.21 675.55,-108.21 675.55,-95.4 675.55,-86.79 670.48,-82.16 663.84,-81.5"/>
<polygon fill="red" stroke="red" stroke-width="0.61" points="663.55,-78 654.33,-83.22 664.79,-84.89 663.55,-78"/>
</g>
<!-- 79&#45;&gt;0 -->
<g id="edge18" class="edge">
<title>79&#45;&gt;0</title>
<path fill="none" stroke="red" stroke-width="0.17" stroke-dasharray="1,5" d="M259.9,-83.06C246,-70.92 223.83,-51.54 208.16,-37.84"/>
<polygon fill="red" stroke="red" stroke-width="0.17" points="210.67,-35.38 200.83,-31.44 206.06,-40.65 210.67,-35.38"/>
</g>
<!-- 79&#45;&gt;1 -->
<g id="edge38" class="edge">
<title>79&#45;&gt;1</title>
<path fill="none" stroke="green" stroke-width="0.14" stroke-dasharray="1,5" d="M268.56,-77.94C266.01,-68.18 262.73,-55.67 259.92,-44.93"/>
<polygon fill="green" stroke="green" stroke-width="0.14" points="263.38,-44.33 257.46,-35.55 256.61,-46.11 263.38,-44.33"/>
</g>
<!-- 79&#45;&gt;2 -->
<g id="edge28" class="edge">
<title>79&#45;&gt;2</title>
<path fill="none" stroke="green" stroke-width="0.5" d="M278.95,-78.66C282.8,-68.68 287.85,-55.61 292.12,-44.52"/>
<polygon fill="green" stroke="green" stroke-width="0.5" points="295.32,-45.97 295.65,-35.38 288.79,-43.45 295.32,-45.97"/>
</g>
<!-- 79&#45;&gt;3 -->
<g id="edge29" class="edge">
<title>79&#45;&gt;3</title>
<path fill="none" stroke="red" stroke-width="0.24" stroke-dasharray="1,5" d="M290.53,-92.04C340.13,-85.33 484.82,-65.07 603.87,-41.72 624.69,-37.64 648.15,-32.08 665.14,-27.89"/>
<polygon fill="red" stroke="red" stroke-width="0.24" points="665.59,-31.38 674.45,-25.56 663.9,-24.59 665.59,-31.38"/>
</g>
<!-- 79&#45;&gt;79 -->
<g id="edge6" class="edge">
<title>79&#45;&gt;79</title>
<path fill="none" stroke="green" stroke-width="0.63" d="M286.42,-107.41C297.31,-112.21 308.55,-108.21 308.55,-95.4 308.55,-86.79 303.48,-82.16 296.84,-81.5"/>
<polygon fill="green" stroke="green" stroke-width="0.63" points="296.58,-77.99 287.36,-83.22 297.82,-84.88 296.58,-77.99"/>
</g>
<!-- 80&#45;&gt;1 -->
<g id="edge42" class="edge">
<title>80&#45;&gt;1</title>
<path fill="none" stroke="red" stroke-width="0.54" d="M446.04,-91.87C411.82,-86.48 335.22,-71.84 277.87,-41.72 276.01,-40.74 274.15,-39.6 272.35,-38.36"/>
<polygon fill="red" stroke="red" stroke-width="0.54" points="274.61,-35.69 264.58,-32.28 270.3,-41.2 274.61,-35.69"/>
</g>
<!-- 80&#45;&gt;260 -->
<g id="edge44" class="edge">
<title>80&#45;&gt;260</title>
<path fill="none" stroke="red" stroke-width="0.1" d="M463.87,-77.57C463.87,-69.99 463.87,-60.8 463.87,-52.09"/>
<polygon fill="red" stroke="red" stroke-width="0.1" points="467.37,-52.37 463.87,-42.37 460.37,-52.37 467.37,-52.37"/>
</g>
<!-- 80&#45;&gt;80 -->
<g id="edge9" class="edge">
<title>80&#45;&gt;80</title>
<path fill="none" stroke="red" stroke-width="0.22" stroke-dasharray="1,5" d="M477.42,-107.41C488.31,-112.21 499.55,-108.21 499.55,-95.4 499.55,-86.59 494.24,-81.94 487.38,-81.46"/>
<polygon fill="red" stroke="red" stroke-width="0.22" points="486.9,-77.99 477.75,-83.32 488.23,-84.86 486.9,-77.99"/>
</g>
<!-- 333&#45;&gt;78 -->
<g id="edge48" class="edge">
<title>333&#45;&gt;78</title>
<path fill="none" stroke="green" stroke-width="0.61" d="M816.22,-156.75C811.99,-153.99 807.38,-151.24 802.87,-149.07 757.37,-127.17 700.52,-111.15 667.39,-102.84"/>
<polygon fill="green" stroke="green" stroke-width="0.61" points="668.56,-99.52 658.01,-100.54 666.89,-106.32 668.56,-99.52"/>
</g>
</g>
</svg>
