<?xml version="1.0" encoding="UTF-8" standalone="no"?>
<!DOCTYPE svg PUBLIC "-//W3C//DTD SVG 1.1//EN"
 "http://www.w3.org/Graphics/SVG/1.1/DTD/svg11.dtd">
<!-- Generated by graphviz version 12.1.1 (20240910.0053)
 -->
<!-- Pages: 1 -->
<svg width="874pt" height="182pt"
 viewBox="0.00 0.00 874.00 181.94" xmlns="http://www.w3.org/2000/svg" xmlns:xlink="http://www.w3.org/1999/xlink">
<g id="graph0" class="graph" transform="scale(1 1) rotate(0) translate(4 177.94)">
<polygon fill="white" stroke="none" points="-4,4 -4,-177.94 870,-177.94 870,4 -4,4"/>
<!-- &#45;1 -->
<g id="node1" class="node">
<title>&#45;1</title>
<polygon fill="lightgray" stroke="black" points="245.75,-173.94 222.25,-173.94 222.25,-155.44 245.75,-155.44 245.75,-173.94"/>
<text text-anchor="middle" x="234" y="-161.39" font-family="Times,serif" font-size="9.00">&#45;1</text>
</g>
<!-- 154 -->
<g id="node28" class="node">
<title>154</title>
<ellipse fill="white" stroke="black" cx="234" cy="-98.58" rx="20.86" ry="20.86"/>
<text text-anchor="middle" x="234" y="-95.28" font-family="Times,serif" font-size="9.00">154</text>
</g>
<!-- &#45;1&#45;&gt;154 -->
<g id="edge31" class="edge">
<title>&#45;1&#45;&gt;154</title>
<path fill="none" stroke="red" stroke-width="0.4" d="M234,-155.04C234,-148.61 234,-139.4 234,-130.34"/>
<polygon fill="red" stroke="red" stroke-width="0.4" points="237.5,-130.53 234,-120.53 230.5,-130.53 237.5,-130.53"/>
</g>
<!-- 155 -->
<g id="node29" class="node">
<title>155</title>
<ellipse fill="white" stroke="black" cx="410" cy="-98.58" rx="20.86" ry="20.86"/>
<text text-anchor="middle" x="410" y="-95.28" font-family="Times,serif" font-size="9.00">155</text>
</g>
<!-- &#45;1&#45;&gt;155 -->
<g id="edge4" class="edge">
<title>&#45;1&#45;&gt;155</title>
<path fill="none" stroke="red" stroke-width="0.16" d="M245.97,-158.92C248.92,-157.76 252.07,-156.54 255,-155.44 298.72,-138.98 349.74,-120.78 380.96,-109.77"/>
<polygon fill="red" stroke="red" stroke-width="0.16" points="381.86,-113.16 390.13,-106.54 379.54,-106.56 381.86,-113.16"/>
</g>
<!-- &#45;2 -->
<g id="node2" class="node">
<title>&#45;2</title>
<polygon fill="lightgray" stroke="black" points="819.75,-173.94 796.25,-173.94 796.25,-155.44 819.75,-155.44 819.75,-173.94"/>
<text text-anchor="middle" x="808" y="-161.39" font-family="Times,serif" font-size="9.00">&#45;2</text>
</g>
<!-- &#45;3 -->
<g id="node3" class="node">
<title>&#45;3</title>
<polygon fill="lightgray" stroke="black" points="161.75,-173.94 138.25,-173.94 138.25,-155.44 161.75,-155.44 161.75,-173.94"/>
<text text-anchor="middle" x="150" y="-161.39" font-family="Times,serif" font-size="9.00">&#45;3</text>
</g>
<!-- 153 -->
<g id="node27" class="node">
<title>153</title>
<ellipse fill="white" stroke="black" cx="150" cy="-98.58" rx="20.86" ry="20.86"/>
<text text-anchor="middle" x="150" y="-95.28" font-family="Times,serif" font-size="9.00">153</text>
</g>
<!-- &#45;3&#45;&gt;153 -->
<g id="edge20" class="edge">
<title>&#45;3&#45;&gt;153</title>
<path fill="none" stroke="red" stroke-width="0.16" d="M150,-155.04C150,-148.54 150,-139.2 150,-130.04"/>
<polygon fill="red" stroke="red" stroke-width="0.16" points="153.5,-130.18 150,-120.18 146.5,-130.18 153.5,-130.18"/>
</g>
<!-- &#45;3&#45;&gt;154 -->
<g id="edge35" class="edge">
<title>&#45;3&#45;&gt;154</title>
<path fill="none" stroke="red" stroke-width="0.16" d="M161.33,-155.04C173.68,-145.61 193.83,-130.24 209.78,-118.07"/>
<polygon fill="red" stroke="red" stroke-width="0.16" points="211.65,-121.04 217.48,-112.19 207.4,-115.47 211.65,-121.04"/>
</g>
<!-- &#45;3&#45;&gt;155 -->
<g id="edge28" class="edge">
<title>&#45;3&#45;&gt;155</title>
<path fill="none" stroke="red" stroke-width="0.12" d="M161.89,-158.67C164.84,-157.53 168.01,-156.37 171,-155.44 244.6,-132.51 333.53,-114.09 379.37,-105.26"/>
<polygon fill="red" stroke="red" stroke-width="0.12" points="379.93,-108.72 389.09,-103.41 378.61,-101.84 379.93,-108.72"/>
</g>
<!-- &#45;4 -->
<g id="node4" class="node">
<title>&#45;4</title>
<polygon fill="lightgray" stroke="black" points="203.75,-173.94 180.25,-173.94 180.25,-155.44 203.75,-155.44 203.75,-173.94"/>
<text text-anchor="middle" x="192" y="-161.39" font-family="Times,serif" font-size="9.00">&#45;4</text>
</g>
<!-- &#45;4&#45;&gt;153 -->
<g id="edge30" class="edge">
<title>&#45;4&#45;&gt;153</title>
<path fill="none" stroke="red" stroke-width="0.19" d="M186.34,-155.04C181.3,-147.35 173.67,-135.71 166.7,-125.07"/>
<polygon fill="red" stroke="red" stroke-width="0.19" points="169.64,-123.18 161.24,-116.73 163.79,-127.01 169.64,-123.18"/>
</g>
<!-- &#45;4&#45;&gt;154 -->
<g id="edge5" class="edge">
<title>&#45;4&#45;&gt;154</title>
<path fill="none" stroke="red" stroke-width="0.1" d="M197.66,-155.04C202.75,-147.28 210.48,-135.48 217.51,-124.76"/>
<polygon fill="red" stroke="red" stroke-width="0.1" points="220.29,-126.9 222.84,-116.62 214.43,-123.06 220.29,-126.9"/>
</g>
<!-- &#45;4&#45;&gt;155 -->
<g id="edge23" class="edge">
<title>&#45;4&#45;&gt;155</title>
<path fill="none" stroke="red" stroke-width="0.31" d="M203.92,-158.77C206.87,-157.62 210.03,-156.44 213,-155.44 271.19,-135.81 340.56,-117.23 379.52,-107.23"/>
<polygon fill="red" stroke="red" stroke-width="0.31" points="380.38,-110.62 389.21,-104.76 378.65,-103.84 380.38,-110.62"/>
</g>
<!-- &#45;5 -->
<g id="node5" class="node">
<title>&#45;5</title>
<polygon fill="lightgray" stroke="black" points="551.75,-173.94 528.25,-173.94 528.25,-155.44 551.75,-155.44 551.75,-173.94"/>
<text text-anchor="middle" x="540" y="-161.39" font-family="Times,serif" font-size="9.00">&#45;5</text>
</g>
<!-- &#45;5&#45;&gt;155 -->
<g id="edge38" class="edge">
<title>&#45;5&#45;&gt;155</title>
<path fill="none" stroke="green" stroke-width="0.61" d="M528,-157.77C507.74,-147.78 466.2,-127.3 438.22,-113.5"/>
<polygon fill="green" stroke="green" stroke-width="0.61" points="439.94,-110.44 429.42,-109.16 436.84,-116.72 439.94,-110.44"/>
</g>
<!-- 156 -->
<g id="node30" class="node">
<title>156</title>
<ellipse fill="white" stroke="black" cx="561" cy="-98.58" rx="20.86" ry="20.86"/>
<text text-anchor="middle" x="561" y="-95.28" font-family="Times,serif" font-size="9.00">156</text>
</g>
<!-- &#45;5&#45;&gt;156 -->
<g id="edge36" class="edge">
<title>&#45;5&#45;&gt;156</title>
<path fill="none" stroke="red" stroke-width="0.14" stroke-dasharray="1,5" d="M542.83,-155.04C545.1,-148.12 548.41,-138 551.6,-128.29"/>
<polygon fill="red" stroke="red" stroke-width="0.14" points="554.83,-129.65 554.62,-119.06 548.18,-127.47 554.83,-129.65"/>
</g>
<!-- &#45;6 -->
<g id="node6" class="node">
<title>&#45;6</title>
<polygon fill="lightgray" stroke="black" points="287.75,-173.94 264.25,-173.94 264.25,-155.44 287.75,-155.44 287.75,-173.94"/>
<text text-anchor="middle" x="276" y="-161.39" font-family="Times,serif" font-size="9.00">&#45;6</text>
</g>
<!-- &#45;6&#45;&gt;154 -->
<g id="edge15" class="edge">
<title>&#45;6&#45;&gt;154</title>
<path fill="none" stroke="red" stroke-width="0.33" stroke-dasharray="1,5" d="M270.34,-155.04C265.3,-147.35 257.67,-135.71 250.7,-125.07"/>
<polygon fill="red" stroke="red" stroke-width="0.33" points="253.76,-123.35 245.35,-116.9 247.9,-127.18 253.76,-123.35"/>
</g>
<!-- &#45;6&#45;&gt;155 -->
<g id="edge24" class="edge">
<title>&#45;6&#45;&gt;155</title>
<path fill="none" stroke="red" stroke-width="0.29" d="M287.89,-158C308.95,-147.92 353.33,-126.69 382.38,-112.79"/>
<polygon fill="red" stroke="red" stroke-width="0.29" points="383.69,-116.05 391.2,-108.57 380.67,-109.73 383.69,-116.05"/>
</g>
<!-- &#45;7 -->
<g id="node7" class="node">
<title>&#45;7</title>
<polygon fill="lightgray" stroke="black" points="421.75,-173.94 398.25,-173.94 398.25,-155.44 421.75,-155.44 421.75,-173.94"/>
<text text-anchor="middle" x="410" y="-161.39" font-family="Times,serif" font-size="9.00">&#45;7</text>
</g>
<!-- &#45;7&#45;&gt;155 -->
<g id="edge6" class="edge">
<title>&#45;7&#45;&gt;155</title>
<path fill="none" stroke="red" stroke-width="0.48" stroke-dasharray="1,5" d="M410,-155.04C410,-148.68 410,-139.6 410,-130.63"/>
<polygon fill="red" stroke="red" stroke-width="0.48" points="413.5,-130.66 410,-120.66 406.5,-130.66 413.5,-130.66"/>
</g>
<!-- &#45;8 -->
<g id="node8" class="node">
<title>&#45;8</title>
<polygon fill="lightgray" stroke="black" points="463.75,-173.94 440.25,-173.94 440.25,-155.44 463.75,-155.44 463.75,-173.94"/>
<text text-anchor="middle" x="452" y="-161.39" font-family="Times,serif" font-size="9.00">&#45;8</text>
</g>
<!-- &#45;8&#45;&gt;155 -->
<g id="edge9" class="edge">
<title>&#45;8&#45;&gt;155</title>
<path fill="none" stroke="red" stroke-width="0.54" d="M446.34,-155.04C441.35,-147.43 433.82,-135.94 426.91,-125.39"/>
<polygon fill="red" stroke="red" stroke-width="0.54" points="429.93,-123.61 421.52,-117.17 424.07,-127.45 429.93,-123.61"/>
</g>
<!-- &#45;9 -->
<g id="node9" class="node">
<title>&#45;9</title>
<polygon fill="lightgray" stroke="black" points="593.75,-173.94 570.25,-173.94 570.25,-155.44 593.75,-155.44 593.75,-173.94"/>
<text text-anchor="middle" x="582" y="-161.39" font-family="Times,serif" font-size="9.00">&#45;9</text>
</g>
<!-- &#45;9&#45;&gt;155 -->
<g id="edge17" class="edge">
<title>&#45;9&#45;&gt;155</title>
<path fill="none" stroke="green" stroke-width="0.13" stroke-dasharray="1,5" d="M570.02,-158.94C567.08,-157.78 563.93,-156.56 561,-155.44 518.76,-139.33 469.63,-121.28 439.17,-110.17"/>
<polygon fill="green" stroke="green" stroke-width="0.13" points="440.38,-106.89 429.78,-106.75 437.98,-113.47 440.38,-106.89"/>
</g>
<!-- &#45;9&#45;&gt;156 -->
<g id="edge34" class="edge">
<title>&#45;9&#45;&gt;156</title>
<path fill="none" stroke="green" stroke-width="0.2" stroke-dasharray="1,5" d="M579.17,-155.04C576.92,-148.19 573.65,-138.21 570.5,-128.59"/>
<polygon fill="green" stroke="green" stroke-width="0.2" points="573.85,-127.56 567.41,-119.14 567.2,-129.74 573.85,-127.56"/>
</g>
<!-- &#45;10 -->
<g id="node10" class="node">
<title>&#45;10</title>
<polygon fill="lightgray" stroke="black" points="640,-173.94 612,-173.94 612,-155.44 640,-155.44 640,-173.94"/>
<text text-anchor="middle" x="626" y="-161.39" font-family="Times,serif" font-size="9.00">&#45;10</text>
</g>
<!-- &#45;10&#45;&gt;155 -->
<g id="edge2" class="edge">
<title>&#45;10&#45;&gt;155</title>
<path fill="none" stroke="red" stroke-width="0.48" d="M611.94,-158.49C609,-157.44 605.91,-156.38 603,-155.44 545.82,-136.93 478.18,-118.03 440.07,-107.65"/>
<polygon fill="red" stroke="red" stroke-width="0.48" points="441.4,-104.39 430.83,-105.15 439.57,-111.14 441.4,-104.39"/>
</g>
<!-- &#45;10&#45;&gt;156 -->
<g id="edge25" class="edge">
<title>&#45;10&#45;&gt;156</title>
<path fill="none" stroke="green" stroke-width="0.62" stroke-dasharray="1,5" d="M617.23,-155.04C608.56,-146.49 594.93,-133.05 583.26,-121.54"/>
<polygon fill="green" stroke="green" stroke-width="0.62" points="585.83,-119.15 576.25,-114.62 580.91,-124.13 585.83,-119.15"/>
</g>
<!-- &#45;11 -->
<g id="node11" class="node">
<title>&#45;11</title>
<polygon fill="lightgray" stroke="black" points="686,-173.94 658,-173.94 658,-155.44 686,-155.44 686,-173.94"/>
<text text-anchor="middle" x="672" y="-161.39" font-family="Times,serif" font-size="9.00">&#45;11</text>
</g>
<!-- &#45;11&#45;&gt;156 -->
<g id="edge41" class="edge">
<title>&#45;11&#45;&gt;156</title>
<path fill="none" stroke="green" stroke-width="0.38" d="M657.94,-155.57C640.38,-145.43 609.96,-127.86 587.88,-115.1"/>
<polygon fill="green" stroke="green" stroke-width="0.38" points="589.89,-112.22 579.48,-110.25 586.39,-118.29 589.89,-112.22"/>
</g>
<!-- &#45;12 -->
<g id="node12" class="node">
<title>&#45;12</title>
<polygon fill="lightgray" stroke="black" points="732,-173.94 704,-173.94 704,-155.44 732,-155.44 732,-173.94"/>
<text text-anchor="middle" x="718" y="-161.39" font-family="Times,serif" font-size="9.00">&#45;12</text>
</g>
<!-- &#45;12&#45;&gt;156 -->
<g id="edge1" class="edge">
<title>&#45;12&#45;&gt;156</title>
<path fill="none" stroke="green" stroke-width="0.23" d="M703.51,-157.77C677.67,-147.22 623.2,-124.98 589.59,-111.25"/>
<polygon fill="green" stroke="green" stroke-width="0.23" points="591.2,-108.13 580.61,-107.59 588.55,-114.61 591.2,-108.13"/>
</g>
<!-- &#45;13 -->
<g id="node13" class="node">
<title>&#45;13</title>
<polygon fill="lightgray" stroke="black" points="510,-173.94 482,-173.94 482,-155.44 510,-155.44 510,-173.94"/>
<text text-anchor="middle" x="496" y="-161.39" font-family="Times,serif" font-size="9.00">&#45;13</text>
</g>
<!-- &#45;13&#45;&gt;155 -->
<g id="edge14" class="edge">
<title>&#45;13&#45;&gt;155</title>
<path fill="none" stroke="green" stroke-width="0.37" d="M484.4,-155.04C471.67,-145.55 450.87,-130.05 434.5,-117.84"/>
<polygon fill="green" stroke="green" stroke-width="0.37" points="436.97,-115.32 426.86,-112.15 432.78,-120.93 436.97,-115.32"/>
</g>
<!-- &#45;14 -->
<g id="node14" class="node">
<title>&#45;14</title>
<polygon fill="lightgray" stroke="black" points="866,-173.94 838,-173.94 838,-155.44 866,-155.44 866,-173.94"/>
<text text-anchor="middle" x="852" y="-161.39" font-family="Times,serif" font-size="9.00">&#45;14</text>
</g>
<!-- &#45;15 -->
<g id="node15" class="node">
<title>&#45;15</title>
<polygon fill="lightgray" stroke="black" points="28,-173.94 0,-173.94 0,-155.44 28,-155.44 28,-173.94"/>
<text text-anchor="middle" x="14" y="-161.39" font-family="Times,serif" font-size="9.00">&#45;15</text>
</g>
<!-- &#45;15&#45;&gt;153 -->
<g id="edge40" class="edge">
<title>&#45;15&#45;&gt;153</title>
<path fill="none" stroke="red" stroke-width="0.24" d="M28.3,-156.95C50.48,-146.49 93.59,-126.17 122.09,-112.74"/>
<polygon fill="red" stroke="red" stroke-width="0.24" points="123.26,-116.05 130.81,-108.62 120.28,-109.72 123.26,-116.05"/>
</g>
<!-- &#45;16 -->
<g id="node16" class="node">
<title>&#45;16</title>
<polygon fill="lightgray" stroke="black" points="120,-173.94 92,-173.94 92,-155.44 120,-155.44 120,-173.94"/>
<text text-anchor="middle" x="106" y="-161.39" font-family="Times,serif" font-size="9.00">&#45;16</text>
</g>
<!-- &#45;16&#45;&gt;154 -->
<g id="edge26" class="edge">
<title>&#45;16&#45;&gt;154</title>
<path fill="none" stroke="red" stroke-width="0.62" d="M120.46,-157.04C138.69,-148.58 170.91,-133.41 198,-119.44 200.8,-118 203.69,-116.46 206.58,-114.91"/>
<polygon fill="red" stroke="red" stroke-width="0.62" points="208.24,-117.99 215.34,-110.13 204.88,-111.85 208.24,-117.99"/>
</g>
<!-- &#45;17 -->
<g id="node17" class="node">
<title>&#45;17</title>
<polygon fill="lightgray" stroke="black" points="74,-173.94 46,-173.94 46,-155.44 74,-155.44 74,-173.94"/>
<text text-anchor="middle" x="60" y="-161.39" font-family="Times,serif" font-size="9.00">&#45;17</text>
</g>
<!-- &#45;17&#45;&gt;153 -->
<g id="edge22" class="edge">
<title>&#45;17&#45;&gt;153</title>
<path fill="none" stroke="red" stroke-width="0.21" d="M72.14,-155.04C85.66,-145.41 107.89,-129.57 125.15,-117.28"/>
<polygon fill="red" stroke="red" stroke-width="0.21" points="126.79,-120.41 132.9,-111.76 122.73,-114.71 126.79,-120.41"/>
</g>
<!-- &#45;17&#45;&gt;154 -->
<g id="edge7" class="edge">
<title>&#45;17&#45;&gt;154</title>
<path fill="none" stroke="green" stroke-width="0.32" d="M74.08,-158.54C77.02,-157.49 80.1,-156.41 83,-155.44 133.77,-138.39 148.75,-140.48 198,-119.44 201.09,-118.12 204.25,-116.62 207.36,-115.04"/>
<polygon fill="green" stroke="green" stroke-width="0.32" points="208.81,-118.24 215.98,-110.43 205.51,-112.06 208.81,-118.24"/>
</g>
<!-- &#45;18 -->
<g id="node18" class="node">
<title>&#45;18</title>
<polygon fill="lightgray" stroke="black" points="334,-173.94 306,-173.94 306,-155.44 334,-155.44 334,-173.94"/>
<text text-anchor="middle" x="320" y="-161.39" font-family="Times,serif" font-size="9.00">&#45;18</text>
</g>
<!-- &#45;18&#45;&gt;154 -->
<g id="edge11" class="edge">
<title>&#45;18&#45;&gt;154</title>
<path fill="none" stroke="green" stroke-width="0.24" d="M308.4,-155.04C295.67,-145.55 274.87,-130.05 258.5,-117.84"/>
<polygon fill="green" stroke="green" stroke-width="0.24" points="260.81,-115.2 250.7,-112.03 256.62,-120.81 260.81,-115.2"/>
</g>
<!-- &#45;18&#45;&gt;156 -->
<g id="edge42" class="edge">
<title>&#45;18&#45;&gt;156</title>
<path fill="none" stroke="red" stroke-width="0.18" d="M334.04,-158.42C336.98,-157.38 340.08,-156.33 343,-155.44 409.29,-135.11 488.43,-116.12 530.75,-106.38"/>
<polygon fill="red" stroke="red" stroke-width="0.18" points="531.45,-109.82 540.41,-104.18 529.89,-102.99 531.45,-109.82"/>
</g>
<!-- &#45;19 -->
<g id="node19" class="node">
<title>&#45;19</title>
<polygon fill="lightgray" stroke="black" points="380,-173.94 352,-173.94 352,-155.44 380,-155.44 380,-173.94"/>
<text text-anchor="middle" x="366" y="-161.39" font-family="Times,serif" font-size="9.00">&#45;19</text>
</g>
<!-- &#45;19&#45;&gt;154 -->
<g id="edge19" class="edge">
<title>&#45;19&#45;&gt;154</title>
<path fill="none" stroke="red" stroke-width="0.32" d="M351.62,-156.71C330.1,-146.25 289.12,-126.35 261.67,-113.02"/>
<polygon fill="red" stroke="red" stroke-width="0.32" points="263.55,-110.04 253.02,-108.82 260.49,-116.33 263.55,-110.04"/>
</g>
<!-- &#45;19&#45;&gt;155 -->
<g id="edge37" class="edge">
<title>&#45;19&#45;&gt;155</title>
<path fill="none" stroke="green" stroke-width="0.2" stroke-dasharray="1,5" d="M371.93,-155.04C377.26,-147.28 385.36,-135.48 392.72,-124.76"/>
<polygon fill="green" stroke="green" stroke-width="0.2" points="395.45,-126.97 398.22,-116.74 389.68,-123 395.45,-126.97"/>
</g>
<!-- &#45;19&#45;&gt;156 -->
<g id="edge18" class="edge">
<title>&#45;19&#45;&gt;156</title>
<path fill="none" stroke="red" stroke-width="0.53" stroke-dasharray="1,5" d="M380.09,-158.56C383.03,-157.51 386.11,-156.43 389,-155.44 438.68,-138.47 496.84,-119.84 531.2,-108.95"/>
<polygon fill="red" stroke="red" stroke-width="0.53" points="531.83,-112.43 540.31,-106.08 529.72,-105.75 531.83,-112.43"/>
</g>
<!-- &#45;20 -->
<g id="node20" class="node">
<title>&#45;20</title>
<polygon fill="lightgray" stroke="black" points="778,-173.94 750,-173.94 750,-155.44 778,-155.44 778,-173.94"/>
<text text-anchor="middle" x="764" y="-161.39" font-family="Times,serif" font-size="9.00">&#45;20</text>
</g>
<!-- &#45;20&#45;&gt;156 -->
<g id="edge39" class="edge">
<title>&#45;20&#45;&gt;156</title>
<path fill="none" stroke="red" stroke-width="0.14" d="M749.92,-158.53C746.98,-157.48 743.9,-156.41 741,-155.44 688.24,-137.8 626.17,-118.95 590.42,-108.28"/>
<polygon fill="red" stroke="red" stroke-width="0.14" points="591.85,-105.06 581.27,-105.56 589.86,-111.76 591.85,-105.06"/>
</g>
<!-- 0 -->
<g id="node21" class="node">
<title>0</title>
<ellipse fill="lightblue" stroke="black" cx="289" cy="-20.86" rx="14.5" ry="14.5"/>
<text text-anchor="middle" x="289" y="-17.56" font-family="Times,serif" font-size="9.00">0</text>
</g>
<!-- 0&#45;&gt;0 -->
<g id="edge29" class="edge">
<title>0&#45;&gt;0</title>
<path fill="none" stroke="red" stroke-width="0.2" stroke-dasharray="1,5" d="M298.98,-32.01C309.56,-39 321.5,-35.28 321.5,-20.86 321.5,-10.72 315.6,-5.87 308.41,-6.32"/>
<polygon fill="red" stroke="red" stroke-width="0.2" points="307.49,-2.93 299.26,-9.61 309.86,-9.52 307.49,-2.93"/>
</g>
<!-- 1 -->
<g id="node22" class="node">
<title>1</title>
<ellipse fill="lightblue" stroke="black" cx="359" cy="-20.86" rx="14.5" ry="14.5"/>
<text text-anchor="middle" x="359" y="-17.56" font-family="Times,serif" font-size="9.00">1</text>
</g>
<!-- 2 -->
<g id="node23" class="node">
<title>2</title>
<ellipse fill="lightblue" stroke="black" cx="409" cy="-20.86" rx="14.5" ry="14.5"/>
<text text-anchor="middle" x="409" y="-17.56" font-family="Times,serif" font-size="9.00">2</text>
</g>
<!-- 3 -->
<g id="node24" class="node">
<title>3</title>
<ellipse fill="lightblue" stroke="black" cx="182" cy="-20.86" rx="14.5" ry="14.5"/>
<text text-anchor="middle" x="182" y="-17.56" font-family="Times,serif" font-size="9.00">3</text>
</g>
<!-- 4 -->
<g id="node25" class="node">
<title>4</title>
<ellipse fill="lightblue" stroke="black" cx="456" cy="-20.86" rx="14.5" ry="14.5"/>
<text text-anchor="middle" x="456" y="-17.56" font-family="Times,serif" font-size="9.00">4</text>
</g>
<!-- 258 -->
<g id="node26" class="node">
<title>258</title>
<ellipse fill="white" stroke="black" cx="235" cy="-20.86" rx="20.86" ry="20.86"/>
<text text-anchor="middle" x="235" y="-17.56" font-family="Times,serif" font-size="9.00">258</text>
</g>
<!-- 153&#45;&gt;0 -->
<g id="edge16" class="edge">
<title>153&#45;&gt;0</title>
<path fill="none" stroke="green" stroke-width="0.29" stroke-dasharray="1,5" d="M169.47,-89.81C192.97,-80.07 233.27,-62.14 265,-41.72 266.92,-40.48 268.86,-39.11 270.76,-37.69"/>
<polygon fill="green" stroke="green" stroke-width="0.29" points="272.73,-40.6 278.33,-31.6 268.34,-35.14 272.73,-40.6"/>
</g>
<!-- 153&#45;&gt;153 -->
<g id="edge12" class="edge">
<title>153&#45;&gt;153</title>
<path fill="none" stroke="green" stroke-width="0.26" d="M167.58,-110.1C178.49,-112.88 188.86,-109.04 188.86,-98.58 188.86,-91.55 184.18,-87.51 177.8,-86.46"/>
<polygon fill="green" stroke="green" stroke-width="0.26" points="177.76,-82.96 167.98,-87.03 178.17,-89.95 177.76,-82.96"/>
</g>
<!-- 154&#45;&gt;1 -->
<g id="edge8" class="edge">
<title>154&#45;&gt;1</title>
<path fill="none" stroke="green" stroke-width="0.52" d="M251.93,-87.67C271.39,-76.79 303.27,-58.62 330,-41.72 332.8,-39.95 335.71,-38.04 338.57,-36.13"/>
<polygon fill="green" stroke="green" stroke-width="0.52" points="340.35,-39.15 346.63,-30.62 336.4,-33.37 340.35,-39.15"/>
</g>
<!-- 154&#45;&gt;3 -->
<g id="edge32" class="edge">
<title>154&#45;&gt;3</title>
<path fill="none" stroke="green" stroke-width="1.07" d="M222.46,-80.77C214.7,-69.47 204.42,-54.5 196.16,-42.48"/>
<polygon fill="green" stroke="green" stroke-width="1.07" points="199.27,-40.82 190.72,-34.56 193.5,-44.78 199.27,-40.82"/>
</g>
<!-- 154&#45;&gt;258 -->
<g id="edge43" class="edge">
<title>154&#45;&gt;258</title>
<path fill="none" stroke="green" stroke-width="0.18" d="M234.27,-77.29C234.37,-69.65 234.49,-60.78 234.6,-52.41"/>
<polygon fill="green" stroke="green" stroke-width="0.18" points="238.1,-52.53 234.73,-42.49 231.1,-52.44 238.1,-52.53"/>
</g>
<!-- 154&#45;&gt;154 -->
<g id="edge13" class="edge">
<title>154&#45;&gt;154</title>
<path fill="none" stroke="green" stroke-width="0.37" stroke-dasharray="1,5" d="M251.58,-110.1C262.49,-112.88 272.86,-109.04 272.86,-98.58 272.86,-91.55 268.18,-87.51 261.8,-86.46"/>
<polygon fill="green" stroke="green" stroke-width="0.37" points="261.91,-82.95 252.14,-87.03 262.32,-89.94 261.91,-82.95"/>
</g>
<!-- 155&#45;&gt;2 -->
<g id="edge33" class="edge">
<title>155&#45;&gt;2</title>
<path fill="none" stroke="red" stroke-width="0.44" d="M409.73,-77.29C409.61,-67.74 409.45,-56.27 409.32,-46.26"/>
<polygon fill="red" stroke="red" stroke-width="0.44" points="412.82,-46.35 409.19,-36.4 405.82,-46.44 412.82,-46.35"/>
</g>
<!-- 155&#45;&gt;4 -->
<g id="edge21" class="edge">
<title>155&#45;&gt;4</title>
<path fill="none" stroke="red" stroke-width="0.16" d="M420.44,-80.4C427.37,-68.99 436.49,-53.98 443.76,-42.01"/>
<polygon fill="red" stroke="red" stroke-width="0.16" points="446.57,-44.13 448.77,-33.76 440.58,-40.49 446.57,-44.13"/>
</g>
<!-- 155&#45;&gt;155 -->
<g id="edge3" class="edge">
<title>155&#45;&gt;155</title>
<path fill="none" stroke="red" stroke-width="0.16" stroke-dasharray="1,5" d="M427.58,-110.1C438.49,-112.88 448.86,-109.04 448.86,-98.58 448.86,-91.55 444.18,-87.51 437.8,-86.46"/>
<polygon fill="red" stroke="red" stroke-width="0.16" points="437.6,-82.97 427.82,-87.04 438.01,-89.95 437.6,-82.97"/>
</g>
<!-- 156&#45;&gt;0 -->
<g id="edge27" class="edge">
<title>156&#45;&gt;0</title>
<path fill="none" stroke="red" stroke-width="0.36" stroke-dasharray="1,5" d="M540.53,-93.62C500.63,-85.65 409.89,-66.33 336,-41.72 327.82,-38.99 319.06,-35.47 311.35,-32.15"/>
<polygon fill="red" stroke="red" stroke-width="0.36" points="313.02,-29.06 302.46,-28.21 310.19,-35.46 313.02,-29.06"/>
</g>
<!-- 156&#45;&gt;1 -->
<g id="edge10" class="edge">
<title>156&#45;&gt;1</title>
<path fill="none" stroke="green" stroke-width="0.11" stroke-dasharray="1,5" d="M540.48,-93.32C506.91,-85.85 438.7,-68.6 386,-41.72 383.24,-40.31 380.46,-38.63 377.78,-36.85"/>
<polygon fill="green" stroke="green" stroke-width="0.11" points="380.05,-34.17 369.9,-31.13 375.94,-39.83 380.05,-34.17"/>
</g>
</g>
</svg>
