<?xml version="1.0" encoding="UTF-8" standalone="no"?>
<!DOCTYPE svg PUBLIC "-//W3C//DTD SVG 1.1//EN"
 "http://www.w3.org/Graphics/SVG/1.1/DTD/svg11.dtd">
<!-- Generated by graphviz version 12.1.1 (20240910.0053)
 -->
<!-- Pages: 1 -->
<svg width="886pt" height="478pt"
 viewBox="0.00 0.00 886.26 477.85" xmlns="http://www.w3.org/2000/svg" xmlns:xlink="http://www.w3.org/1999/xlink">
<g id="graph0" class="graph" transform="scale(1 1) rotate(0) translate(4 473.85)">
<polygon fill="white" stroke="none" points="-4,4 -4,-473.85 882.26,-473.85 882.26,4 -4,4"/>
<!-- &#45;1 -->
<g id="node1" class="node">
<title>&#45;1</title>
<polygon fill="lightgray" stroke="black" points="150.01,-393.25 126.51,-393.25 126.51,-374.75 150.01,-374.75 150.01,-393.25"/>
<text text-anchor="middle" x="138.26" y="-380.7" font-family="Times,serif" font-size="9.00">&#45;1</text>
</g>
<!-- 188 -->
<g id="node33" class="node">
<title>188</title>
<ellipse fill="white" stroke="black" cx="227.26" cy="-306.28" rx="20.86" ry="20.86"/>
<text text-anchor="middle" x="227.26" y="-302.98" font-family="Times,serif" font-size="9.00">188</text>
</g>
<!-- &#45;1&#45;&gt;188 -->
<g id="edge15" class="edge">
<title>&#45;1&#45;&gt;188</title>
<path fill="none" stroke="red" stroke-width="0.13" d="M148.47,-374.31C162.05,-362.76 186.45,-342 204.51,-326.63"/>
<polygon fill="red" stroke="red" stroke-width="0.13" points="206.31,-329.69 211.66,-320.55 201.78,-324.36 206.31,-329.69"/>
</g>
<!-- &#45;2 -->
<g id="node2" class="node">
<title>&#45;2</title>
<polygon fill="lightgray" stroke="black" points="28.01,-393.25 4.51,-393.25 4.51,-374.75 28.01,-374.75 28.01,-393.25"/>
<text text-anchor="middle" x="16.26" y="-380.7" font-family="Times,serif" font-size="9.00">&#45;2</text>
</g>
<!-- 185 -->
<g id="node30" class="node">
<title>185</title>
<ellipse fill="white" stroke="black" cx="601.26" cy="-85.85" rx="20.86" ry="20.86"/>
<text text-anchor="middle" x="601.26" y="-82.55" font-family="Times,serif" font-size="9.00">185</text>
</g>
<!-- &#45;2&#45;&gt;185 -->
<g id="edge34" class="edge">
<title>&#45;2&#45;&gt;185</title>
<path fill="none" stroke="green" stroke-width="0.33" d="M13.89,-374.42C4.88,-339.64 -23.58,-208.01 42.26,-142.71 79.91,-105.36 457.11,-91.16 569.7,-87.73"/>
<polygon fill="green" stroke="green" stroke-width="0.33" points="569.64,-91.23 579.53,-87.43 569.43,-84.23 569.64,-91.23"/>
</g>
<!-- &#45;2&#45;&gt;188 -->
<g id="edge22" class="edge">
<title>&#45;2&#45;&gt;188</title>
<path fill="none" stroke="green" stroke-width="0.35" stroke-dasharray="1,5" d="M28.2,-378.71C60.61,-367.08 150.88,-334.69 197.92,-317.81"/>
<polygon fill="green" stroke="green" stroke-width="0.35" points="198.81,-321.21 207.04,-314.54 196.45,-314.62 198.81,-321.21"/>
</g>
<!-- &#45;3 -->
<g id="node3" class="node">
<title>&#45;3</title>
<polygon fill="lightgray" stroke="black" points="602.01,-393.25 578.51,-393.25 578.51,-374.75 602.01,-374.75 602.01,-393.25"/>
<text text-anchor="middle" x="590.26" y="-380.7" font-family="Times,serif" font-size="9.00">&#45;3</text>
</g>
<!-- &#45;3&#45;&gt;185 -->
<g id="edge35" class="edge">
<title>&#45;3&#45;&gt;185</title>
<path fill="none" stroke="red" stroke-width="0.7" d="M590.57,-374.46C591.97,-336.79 597.63,-184.51 600.1,-118.09"/>
<polygon fill="red" stroke="red" stroke-width="0.7" points="603.59,-118.27 600.46,-108.15 596.6,-118.01 603.59,-118.27"/>
</g>
<!-- 186 -->
<g id="node31" class="node">
<title>186</title>
<ellipse fill="white" stroke="black" cx="484.26" cy="-306.28" rx="20.86" ry="20.86"/>
<text text-anchor="middle" x="484.26" y="-302.98" font-family="Times,serif" font-size="9.00">186</text>
</g>
<!-- &#45;3&#45;&gt;186 -->
<g id="edge16" class="edge">
<title>&#45;3&#45;&gt;186</title>
<path fill="none" stroke="red" stroke-width="0.5" stroke-dasharray="1,5" d="M581.98,-374.53C578.23,-370.87 573.66,-366.63 569.26,-363.14 550.68,-348.44 528.23,-333.81 511.07,-323.21"/>
<polygon fill="red" stroke="red" stroke-width="0.5" points="513.14,-320.37 502.78,-318.15 509.49,-326.34 513.14,-320.37"/>
</g>
<!-- 187 -->
<g id="node32" class="node">
<title>187</title>
<ellipse fill="white" stroke="black" cx="677.26" cy="-306.28" rx="20.86" ry="20.86"/>
<text text-anchor="middle" x="677.26" y="-302.98" font-family="Times,serif" font-size="9.00">187</text>
</g>
<!-- &#45;3&#45;&gt;187 -->
<g id="edge2" class="edge">
<title>&#45;3&#45;&gt;187</title>
<path fill="none" stroke="red" stroke-width="0.27" d="M599.15,-374.39C602.85,-370.85 607.22,-366.75 611.26,-363.14 625.02,-350.82 640.8,-337.44 653.48,-326.86"/>
<polygon fill="red" stroke="red" stroke-width="0.27" points="655.54,-329.7 660.99,-320.62 651.07,-324.32 655.54,-329.7"/>
</g>
<!-- &#45;4 -->
<g id="node4" class="node">
<title>&#45;4</title>
<polygon fill="lightgray" stroke="black" points="420.01,-244.18 396.51,-244.18 396.51,-225.68 420.01,-225.68 420.01,-244.18"/>
<text text-anchor="middle" x="408.26" y="-231.63" font-family="Times,serif" font-size="9.00">&#45;4</text>
</g>
<!-- 0 -->
<g id="node21" class="node">
<title>0</title>
<ellipse fill="lightblue" stroke="black" cx="552.26" cy="-14.5" rx="14.5" ry="14.5"/>
<text text-anchor="middle" x="552.26" y="-11.2" font-family="Times,serif" font-size="9.00">0</text>
</g>
<!-- &#45;4&#45;&gt;0 -->
<g id="edge53" class="edge">
<title>&#45;4&#45;&gt;0</title>
<path fill="none" stroke="green" stroke-width="0.42" d="M405.56,-225.39C400.79,-208.64 392.48,-170.67 405.26,-142.71 431.05,-86.28 495.61,-45.29 529.96,-26.67"/>
<polygon fill="green" stroke="green" stroke-width="0.42" points="531.4,-29.86 538.62,-22.11 528.14,-23.67 531.4,-29.86"/>
</g>
<!-- 436 -->
<g id="node28" class="node">
<title>436</title>
<ellipse fill="white" stroke="black" cx="503.26" cy="-163.57" rx="20.86" ry="20.86"/>
<text text-anchor="middle" x="503.26" y="-160.27" font-family="Times,serif" font-size="9.00">436</text>
</g>
<!-- &#45;4&#45;&gt;436 -->
<g id="edge48" class="edge">
<title>&#45;4&#45;&gt;436</title>
<path fill="none" stroke="green" stroke-width="0.28" stroke-dasharray="1,5" d="M419.9,-225.42C434.43,-214.82 459.64,-196.41 478.54,-182.61"/>
<polygon fill="green" stroke="green" stroke-width="0.28" points="480.36,-185.62 486.37,-176.9 476.23,-179.96 480.36,-185.62"/>
</g>
<!-- &#45;4&#45;&gt;185 -->
<g id="edge7" class="edge">
<title>&#45;4&#45;&gt;185</title>
<path fill="none" stroke="green" stroke-width="0.29" d="M407.42,-225.4C406.18,-207.64 405.94,-166.4 427.26,-142.71 463.92,-101.97 530.34,-90.78 569.66,-87.81"/>
<polygon fill="green" stroke="green" stroke-width="0.29" points="569.77,-91.3 579.54,-87.19 569.34,-84.32 569.77,-91.3"/>
</g>
<!-- &#45;5 -->
<g id="node5" class="node">
<title>&#45;5</title>
<polygon fill="lightgray" stroke="black" points="190.01,-464.61 166.51,-464.61 166.51,-446.11 190.01,-446.11 190.01,-464.61"/>
<text text-anchor="middle" x="178.26" y="-452.06" font-family="Times,serif" font-size="9.00">&#45;5</text>
</g>
<!-- 251 -->
<g id="node27" class="node">
<title>251</title>
<ellipse fill="white" stroke="black" cx="227.26" cy="-384" rx="20.86" ry="20.86"/>
<text text-anchor="middle" x="227.26" y="-380.7" font-family="Times,serif" font-size="9.00">251</text>
</g>
<!-- &#45;5&#45;&gt;251 -->
<g id="edge43" class="edge">
<title>&#45;5&#45;&gt;251</title>
<path fill="none" stroke="red" stroke-width="0.15" d="M184.26,-445.85C190.58,-436.92 200.8,-422.44 209.7,-409.85"/>
<polygon fill="red" stroke="red" stroke-width="0.15" points="212.54,-411.9 215.45,-401.71 206.82,-407.86 212.54,-411.9"/>
</g>
<!-- &#45;5&#45;&gt;185 -->
<g id="edge33" class="edge">
<title>&#45;5&#45;&gt;185</title>
<path fill="none" stroke="green" stroke-width="0.81" d="M166.19,-452.2C144.35,-447.64 98.42,-434.85 75.26,-404.86 48.25,-369.89 56.26,-351.46 56.26,-307.28 56.26,-307.28 56.26,-307.28 56.26,-233.93 56.26,-126.98 452.39,-95.49 569.21,-88.53"/>
<polygon fill="green" stroke="green" stroke-width="0.81" points="569.22,-92.03 579,-87.96 568.81,-85.04 569.22,-92.03"/>
</g>
<!-- &#45;5&#45;&gt;188 -->
<g id="edge32" class="edge">
<title>&#45;5&#45;&gt;188</title>
<path fill="none" stroke="green" stroke-width="0.17" stroke-dasharray="1,5" d="M179.17,-446.09C181.15,-429.81 186.52,-392.63 197.26,-363.14 200.98,-352.9 206.31,-342.23 211.45,-332.99"/>
<polygon fill="green" stroke="green" stroke-width="0.17" points="214.37,-334.93 216.33,-324.52 208.3,-331.44 214.37,-334.93"/>
</g>
<!-- &#45;6 -->
<g id="node6" class="node">
<title>&#45;6</title>
<polygon fill="lightgray" stroke="black" points="434.01,-393.25 410.51,-393.25 410.51,-374.75 434.01,-374.75 434.01,-393.25"/>
<text text-anchor="middle" x="422.26" y="-380.7" font-family="Times,serif" font-size="9.00">&#45;6</text>
</g>
<!-- &#45;6&#45;&gt;186 -->
<g id="edge41" class="edge">
<title>&#45;6&#45;&gt;186</title>
<path fill="none" stroke="red" stroke-width="0.25" d="M429.37,-374.31C438.01,-363.76 452.94,-345.53 465.04,-330.75"/>
<polygon fill="red" stroke="red" stroke-width="0.25" points="467.56,-333.2 471.18,-323.25 462.14,-328.76 467.56,-333.2"/>
</g>
<!-- &#45;6&#45;&gt;187 -->
<g id="edge12" class="edge">
<title>&#45;6&#45;&gt;187</title>
<path fill="none" stroke="green" stroke-width="0.25" d="M429.25,-374.57C433.01,-370.55 437.96,-366.01 443.26,-363.14 509.88,-327.09 599.56,-314.09 646.18,-309.56"/>
<polygon fill="green" stroke="green" stroke-width="0.25" points="646.24,-313.07 655.88,-308.69 645.61,-306.1 646.24,-313.07"/>
</g>
<!-- &#45;6&#45;&gt;188 -->
<g id="edge37" class="edge">
<title>&#45;6&#45;&gt;188</title>
<path fill="none" stroke="red" stroke-width="0.53" stroke-dasharray="1,5" d="M414.78,-374.34C411.05,-370.46 406.27,-366.1 401.26,-363.14 355.35,-335.99 294.7,-320.41 258.47,-312.91"/>
<polygon fill="red" stroke="red" stroke-width="0.53" points="259.33,-309.51 248.84,-311 257.96,-316.38 259.33,-309.51"/>
</g>
<!-- &#45;7 -->
<g id="node7" class="node">
<title>&#45;7</title>
<polygon fill="lightgray" stroke="black" points="381.01,-464.61 357.51,-464.61 357.51,-446.11 381.01,-446.11 381.01,-464.61"/>
<text text-anchor="middle" x="369.26" y="-452.06" font-family="Times,serif" font-size="9.00">&#45;7</text>
</g>
<!-- &#45;8 -->
<g id="node8" class="node">
<title>&#45;8</title>
<polygon fill="lightgray" stroke="black" points="560.01,-393.25 536.51,-393.25 536.51,-374.75 560.01,-374.75 560.01,-393.25"/>
<text text-anchor="middle" x="548.26" y="-380.7" font-family="Times,serif" font-size="9.00">&#45;8</text>
</g>
<!-- &#45;8&#45;&gt;186 -->
<g id="edge23" class="edge">
<title>&#45;8&#45;&gt;186</title>
<path fill="none" stroke="green" stroke-width="0.31" d="M540.91,-374.31C531.99,-363.76 516.59,-345.53 504.09,-330.75"/>
<polygon fill="green" stroke="green" stroke-width="0.31" points="506.93,-328.69 497.81,-323.31 501.59,-333.21 506.93,-328.69"/>
</g>
<!-- &#45;8&#45;&gt;187 -->
<g id="edge10" class="edge">
<title>&#45;8&#45;&gt;187</title>
<path fill="none" stroke="red" stroke-width="0.32" d="M556.36,-374.31C560.08,-370.6 564.67,-366.39 569.26,-363.14 594.45,-345.26 626.13,-329.56 648.65,-319.4"/>
<polygon fill="red" stroke="red" stroke-width="0.32" points="649.83,-322.71 657.56,-315.46 647,-316.31 649.83,-322.71"/>
</g>
<!-- &#45;9 -->
<g id="node9" class="node">
<title>&#45;9</title>
<polygon fill="lightgray" stroke="black" points="108.01,-393.25 84.51,-393.25 84.51,-374.75 108.01,-374.75 108.01,-393.25"/>
<text text-anchor="middle" x="96.26" y="-380.7" font-family="Times,serif" font-size="9.00">&#45;9</text>
</g>
<!-- &#45;9&#45;&gt;188 -->
<g id="edge18" class="edge">
<title>&#45;9&#45;&gt;188</title>
<path fill="none" stroke="green" stroke-width="0.48" stroke-dasharray="1,5" d="M104.35,-374.29C108.07,-370.58 112.66,-366.38 117.26,-363.14 142.92,-345.06 175.25,-329.38 198.2,-319.27"/>
<polygon fill="green" stroke="green" stroke-width="0.48" points="199.57,-322.49 207.36,-315.32 196.8,-316.06 199.57,-322.49"/>
</g>
<!-- &#45;10 -->
<g id="node10" class="node">
<title>&#45;10</title>
<polygon fill="lightgray" stroke="black" points="694.26,-393.25 666.26,-393.25 666.26,-374.75 694.26,-374.75 694.26,-393.25"/>
<text text-anchor="middle" x="680.26" y="-380.7" font-family="Times,serif" font-size="9.00">&#45;10</text>
</g>
<!-- &#45;10&#45;&gt;187 -->
<g id="edge20" class="edge">
<title>&#45;10&#45;&gt;187</title>
<path fill="none" stroke="green" stroke-width="0.23" stroke-dasharray="1,5" d="M679.91,-374.31C679.56,-365.36 678.98,-350.89 678.46,-337.69"/>
<polygon fill="green" stroke="green" stroke-width="0.23" points="681.96,-337.69 678.07,-327.83 674.97,-337.96 681.96,-337.69"/>
</g>
<!-- &#45;11 -->
<g id="node11" class="node">
<title>&#45;11</title>
<polygon fill="lightgray" stroke="black" points="339.26,-464.61 311.26,-464.61 311.26,-446.11 339.26,-446.11 339.26,-464.61"/>
<text text-anchor="middle" x="325.26" y="-452.06" font-family="Times,serif" font-size="9.00">&#45;11</text>
</g>
<!-- 301 -->
<g id="node26" class="node">
<title>301</title>
<ellipse fill="white" stroke="black" cx="325.26" cy="-384" rx="20.86" ry="20.86"/>
<text text-anchor="middle" x="325.26" y="-380.7" font-family="Times,serif" font-size="9.00">301</text>
</g>
<!-- &#45;11&#45;&gt;301 -->
<g id="edge45" class="edge">
<title>&#45;11&#45;&gt;301</title>
<path fill="none" stroke="red" stroke-width="0.15" d="M325.26,-445.85C325.26,-438.15 325.26,-426.34 325.26,-415.16"/>
<polygon fill="red" stroke="red" stroke-width="0.15" points="328.76,-415.45 325.26,-405.45 321.76,-415.45 328.76,-415.45"/>
</g>
<!-- &#45;11&#45;&gt;186 -->
<g id="edge24" class="edge">
<title>&#45;11&#45;&gt;186</title>
<path fill="none" stroke="green" stroke-width="0.31" d="M338.55,-445.71C341.65,-443.93 345,-442.2 348.26,-440.86 408.07,-416.25 449.58,-455.94 489.26,-404.86 504.28,-385.52 500.77,-356.96 494.85,-335.73"/>
<polygon fill="green" stroke="green" stroke-width="0.31" points="498.26,-334.92 491.96,-326.41 491.58,-337 498.26,-334.92"/>
</g>
<!-- &#45;11&#45;&gt;188 -->
<g id="edge42" class="edge">
<title>&#45;11&#45;&gt;188</title>
<path fill="none" stroke="red" stroke-width="0.15" d="M319.71,-446.03C305.36,-424.49 266.59,-366.31 244.08,-332.52"/>
<polygon fill="red" stroke="red" stroke-width="0.15" points="247.04,-330.67 238.59,-324.28 241.22,-334.55 247.04,-330.67"/>
</g>
<!-- &#45;12 -->
<g id="node12" class="node">
<title>&#45;12</title>
<polygon fill="lightgray" stroke="black" points="480.26,-393.25 452.26,-393.25 452.26,-374.75 480.26,-374.75 480.26,-393.25"/>
<text text-anchor="middle" x="466.26" y="-380.7" font-family="Times,serif" font-size="9.00">&#45;12</text>
</g>
<!-- &#45;12&#45;&gt;186 -->
<g id="edge13" class="edge">
<title>&#45;12&#45;&gt;186</title>
<path fill="none" stroke="green" stroke-width="0.42" stroke-dasharray="1,5" d="M468.32,-374.31C470.48,-365.24 473.98,-350.5 477.16,-337.14"/>
<polygon fill="green" stroke="green" stroke-width="0.42" points="480.55,-338.02 479.45,-327.48 473.74,-336.4 480.55,-338.02"/>
</g>
<!-- &#45;12&#45;&gt;187 -->
<g id="edge38" class="edge">
<title>&#45;12&#45;&gt;187</title>
<path fill="none" stroke="red" stroke-width="0.1" stroke-dasharray="1,5" d="M480.43,-377.91C514.69,-365.62 602.56,-334.09 648.42,-317.63"/>
<polygon fill="red" stroke="red" stroke-width="0.1" points="649.42,-320.99 657.65,-314.32 647.06,-314.4 649.42,-320.99"/>
</g>
<!-- &#45;12&#45;&gt;188 -->
<g id="edge21" class="edge">
<title>&#45;12&#45;&gt;188</title>
<path fill="none" stroke="green" stroke-width="0.2" d="M458.43,-374.63C454.27,-370.63 448.86,-366.08 443.26,-363.14 382.24,-331.17 301.76,-316.66 258.3,-310.78"/>
<polygon fill="green" stroke="green" stroke-width="0.2" points="259,-307.34 248.64,-309.54 258.11,-314.29 259,-307.34"/>
</g>
<!-- &#45;13 -->
<g id="node13" class="node">
<title>&#45;13</title>
<polygon fill="lightgray" stroke="black" points="740.26,-393.25 712.26,-393.25 712.26,-374.75 740.26,-374.75 740.26,-393.25"/>
<text text-anchor="middle" x="726.26" y="-380.7" font-family="Times,serif" font-size="9.00">&#45;13</text>
</g>
<!-- &#45;13&#45;&gt;187 -->
<g id="edge31" class="edge">
<title>&#45;13&#45;&gt;187</title>
<path fill="none" stroke="red" stroke-width="0.57" d="M720.64,-374.31C714.2,-364.37 703.36,-347.62 694.13,-333.35"/>
<polygon fill="red" stroke="red" stroke-width="0.57" points="697.19,-331.65 688.82,-325.16 691.32,-335.45 697.19,-331.65"/>
</g>
<!-- &#45;14 -->
<g id="node14" class="node">
<title>&#45;14</title>
<polygon fill="lightgray" stroke="black" points="427.26,-464.61 399.26,-464.61 399.26,-446.11 427.26,-446.11 427.26,-464.61"/>
<text text-anchor="middle" x="413.26" y="-452.06" font-family="Times,serif" font-size="9.00">&#45;14</text>
</g>
<!-- &#45;15 -->
<g id="node15" class="node">
<title>&#45;15</title>
<polygon fill="lightgray" stroke="black" points="464.26,-172.82 436.26,-172.82 436.26,-154.32 464.26,-154.32 464.26,-172.82"/>
<text text-anchor="middle" x="450.26" y="-160.27" font-family="Times,serif" font-size="9.00">&#45;15</text>
</g>
<!-- &#45;15&#45;&gt;185 -->
<g id="edge6" class="edge">
<title>&#45;15&#45;&gt;185</title>
<path fill="none" stroke="green" stroke-width="0.72" d="M458.72,-154.17C462.87,-150.35 468.08,-145.97 473.26,-142.71 504.82,-122.84 544.66,-106.68 571.44,-96.95"/>
<polygon fill="green" stroke="green" stroke-width="0.72" points="572.43,-100.31 580.68,-93.67 570.08,-93.72 572.43,-100.31"/>
</g>
<!-- &#45;16 -->
<g id="node16" class="node">
<title>&#45;16</title>
<polygon fill="lightgray" stroke="black" points="832.26,-393.25 804.26,-393.25 804.26,-374.75 832.26,-374.75 832.26,-393.25"/>
<text text-anchor="middle" x="818.26" y="-380.7" font-family="Times,serif" font-size="9.00">&#45;16</text>
</g>
<!-- 502 -->
<g id="node29" class="node">
<title>502</title>
<ellipse fill="white" stroke="black" cx="800.26" cy="-163.57" rx="20.86" ry="20.86"/>
<text text-anchor="middle" x="800.26" y="-160.27" font-family="Times,serif" font-size="9.00">502</text>
</g>
<!-- &#45;16&#45;&gt;502 -->
<g id="edge51" class="edge">
<title>&#45;16&#45;&gt;502</title>
<path fill="none" stroke="green" stroke-width="0.32" d="M817.55,-374.44C815.11,-344.82 806.95,-245.79 802.77,-195.07"/>
<polygon fill="green" stroke="green" stroke-width="0.32" points="806.27,-194.9 801.96,-185.22 799.29,-195.47 806.27,-194.9"/>
</g>
<!-- &#45;16&#45;&gt;185 -->
<g id="edge19" class="edge">
<title>&#45;16&#45;&gt;185</title>
<path fill="none" stroke="green" stroke-width="0.3" stroke-dasharray="1,5" d="M812,-374.46C783.39,-335.42 664.56,-173.25 619.08,-111.17"/>
<polygon fill="green" stroke="green" stroke-width="0.3" points="622.16,-109.46 613.43,-103.47 616.52,-113.6 622.16,-109.46"/>
</g>
<!-- &#45;16&#45;&gt;187 -->
<g id="edge29" class="edge">
<title>&#45;16&#45;&gt;187</title>
<path fill="none" stroke="red" stroke-width="0.43" stroke-dasharray="1,5" d="M809.33,-374.26C805.25,-370.54 800.22,-366.34 795.26,-363.14 763.16,-342.46 751.69,-343.63 717.26,-327.14 713.24,-325.22 709.02,-323.16 704.88,-321.13"/>
<polygon fill="red" stroke="red" stroke-width="0.43" points="706.62,-318.08 696.1,-316.77 703.51,-324.35 706.62,-318.08"/>
</g>
<!-- &#45;17 -->
<g id="node17" class="node">
<title>&#45;17</title>
<polygon fill="lightgray" stroke="black" points="878.26,-393.25 850.26,-393.25 850.26,-374.75 878.26,-374.75 878.26,-393.25"/>
<text text-anchor="middle" x="864.26" y="-380.7" font-family="Times,serif" font-size="9.00">&#45;17</text>
</g>
<!-- &#45;17&#45;&gt;185 -->
<g id="edge40" class="edge">
<title>&#45;17&#45;&gt;185</title>
<path fill="none" stroke="red" stroke-width="0.47" d="M866.03,-374.62C872.69,-340.66 892.77,-211.72 830.26,-142.71 803.98,-113.71 689.16,-96.86 632.75,-90.2"/>
<polygon fill="red" stroke="red" stroke-width="0.47" points="633.34,-86.74 623,-89.08 632.54,-93.7 633.34,-86.74"/>
</g>
<!-- &#45;17&#45;&gt;187 -->
<g id="edge4" class="edge">
<title>&#45;17&#45;&gt;187</title>
<path fill="none" stroke="green" stroke-width="0.24" stroke-dasharray="1,5" d="M855.91,-374.41C851.79,-370.55 846.57,-366.18 841.26,-363.14 797.85,-338.28 741.64,-322.14 707.57,-313.89"/>
<polygon fill="green" stroke="green" stroke-width="0.24" points="708.63,-310.55 698.1,-311.66 707.03,-317.36 708.63,-310.55"/>
</g>
<!-- &#45;18 -->
<g id="node18" class="node">
<title>&#45;18</title>
<polygon fill="lightgray" stroke="black" points="786.26,-393.25 758.26,-393.25 758.26,-374.75 786.26,-374.75 786.26,-393.25"/>
<text text-anchor="middle" x="772.26" y="-380.7" font-family="Times,serif" font-size="9.00">&#45;18</text>
</g>
<!-- &#45;18&#45;&gt;187 -->
<g id="edge28" class="edge">
<title>&#45;18&#45;&gt;187</title>
<path fill="none" stroke="red" stroke-width="0.12" stroke-dasharray="1,5" d="M762.5,-374.38C758.45,-370.85 753.66,-366.75 749.26,-363.14 733.6,-350.32 715.62,-336.37 701.54,-325.62"/>
<polygon fill="red" stroke="red" stroke-width="0.12" points="703.97,-323.07 693.9,-319.8 699.73,-328.64 703.97,-323.07"/>
</g>
<!-- &#45;19 -->
<g id="node19" class="node">
<title>&#45;19</title>
<polygon fill="lightgray" stroke="black" points="648.26,-393.25 620.26,-393.25 620.26,-374.75 648.26,-374.75 648.26,-393.25"/>
<text text-anchor="middle" x="634.26" y="-380.7" font-family="Times,serif" font-size="9.00">&#45;19</text>
</g>
<!-- &#45;19&#45;&gt;185 -->
<g id="edge30" class="edge">
<title>&#45;19&#45;&gt;185</title>
<path fill="none" stroke="green" stroke-width="0.18" stroke-dasharray="1,5" d="M633.81,-374.66C632.07,-343.79 625.26,-233.1 612.26,-142.71 611.03,-134.16 609.35,-124.93 607.68,-116.48"/>
<polygon fill="green" stroke="green" stroke-width="0.18" points="611.16,-116.03 605.73,-106.93 604.3,-117.43 611.16,-116.03"/>
</g>
<!-- &#45;19&#45;&gt;186 -->
<g id="edge39" class="edge">
<title>&#45;19&#45;&gt;186</title>
<path fill="none" stroke="red" stroke-width="0.27" d="M625.79,-374.61C621.64,-370.79 616.43,-366.41 611.26,-363.14 579.83,-343.3 540.16,-327.08 513.59,-317.33"/>
<polygon fill="red" stroke="red" stroke-width="0.27" points="515.07,-314.14 504.47,-314.05 512.7,-320.73 515.07,-314.14"/>
</g>
<!-- &#45;19&#45;&gt;187 -->
<g id="edge9" class="edge">
<title>&#45;19&#45;&gt;187</title>
<path fill="none" stroke="green" stroke-width="0.5" d="M639.19,-374.31C644.71,-364.59 653.93,-348.36 661.91,-334.3"/>
<polygon fill="green" stroke="green" stroke-width="0.5" points="664.91,-336.11 666.8,-325.69 658.82,-332.66 664.91,-336.11"/>
</g>
<!-- &#45;20 -->
<g id="node20" class="node">
<title>&#45;20</title>
<polygon fill="lightgray" stroke="black" points="392.26,-393.25 364.26,-393.25 364.26,-374.75 392.26,-374.75 392.26,-393.25"/>
<text text-anchor="middle" x="378.26" y="-380.7" font-family="Times,serif" font-size="9.00">&#45;20</text>
</g>
<!-- &#45;20&#45;&gt;186 -->
<g id="edge3" class="edge">
<title>&#45;20&#45;&gt;186</title>
<path fill="none" stroke="green" stroke-width="0.35" d="M387.44,-374.62C391.57,-370.98 396.56,-366.73 401.26,-363.14 419.66,-349.08 441.4,-334.52 458.02,-323.79"/>
<polygon fill="green" stroke="green" stroke-width="0.35" points="459.69,-326.88 466.22,-318.53 455.91,-320.98 459.69,-326.88"/>
</g>
<!-- 1 -->
<g id="node22" class="node">
<title>1</title>
<ellipse fill="lightblue" stroke="black" cx="636.26" cy="-14.5" rx="14.5" ry="14.5"/>
<text text-anchor="middle" x="636.26" y="-11.2" font-family="Times,serif" font-size="9.00">1</text>
</g>
<!-- 1&#45;&gt;1 -->
<g id="edge36" class="edge">
<title>1&#45;&gt;1</title>
<path fill="none" stroke="green" stroke-width="0.68" stroke-dasharray="1,5" d="M646.57,-24.94C657.07,-31.08 668.75,-27.6 668.75,-14.5 668.75,-5.69 663.48,-1.23 656.83,-1.12"/>
<polygon fill="green" stroke="green" stroke-width="0.68" points="656.21,2.34 647.56,-3.77 658.13,-4.39 656.21,2.34"/>
</g>
<!-- 2 -->
<g id="node23" class="node">
<title>2</title>
<ellipse fill="lightblue" stroke="black" cx="454.26" cy="-234.93" rx="14.5" ry="14.5"/>
<text text-anchor="middle" x="454.26" y="-231.63" font-family="Times,serif" font-size="9.00">2</text>
</g>
<!-- 3 -->
<g id="node24" class="node">
<title>3</title>
<ellipse fill="lightblue" stroke="black" cx="503.26" cy="-234.93" rx="14.5" ry="14.5"/>
<text text-anchor="middle" x="503.26" y="-231.63" font-family="Times,serif" font-size="9.00">3</text>
</g>
<!-- 3&#45;&gt;436 -->
<g id="edge50" class="edge">
<title>3&#45;&gt;436</title>
<path fill="none" stroke="green" stroke-width="0.42" stroke-dasharray="1,5" d="M503.26,-220.22C503.26,-213.04 503.26,-203.93 503.26,-195.17"/>
<polygon fill="green" stroke="green" stroke-width="0.42" points="506.76,-195.46 503.26,-185.46 499.76,-195.46 506.76,-195.46"/>
</g>
<!-- 4 -->
<g id="node25" class="node">
<title>4</title>
<ellipse fill="lightblue" stroke="black" cx="459.26" cy="-455.36" rx="14.5" ry="14.5"/>
<text text-anchor="middle" x="459.26" y="-452.06" font-family="Times,serif" font-size="9.00">4</text>
</g>
<!-- 4&#45;&gt;4 -->
<g id="edge1" class="edge">
<title>4&#45;&gt;4</title>
<path fill="none" stroke="green" stroke-width="0.17" stroke-dasharray="1,5" d="M469.57,-465.8C480.07,-471.94 491.75,-468.46 491.75,-455.36 491.75,-446.35 486.23,-441.89 479.37,-441.98"/>
<polygon fill="green" stroke="green" stroke-width="0.17" points="478.39,-438.62 469.81,-444.84 480.4,-445.32 478.39,-438.62"/>
</g>
<!-- 301&#45;&gt;186 -->
<g id="edge46" class="edge">
<title>301&#45;&gt;186</title>
<path fill="none" stroke="green" stroke-width="0.17" d="M342.07,-371.12C346.29,-368.35 350.86,-365.52 355.26,-363.14 388.55,-345.09 428.88,-328.4 455.48,-318.05"/>
<polygon fill="green" stroke="green" stroke-width="0.17" points="456.65,-321.35 464.73,-314.5 454.14,-314.82 456.65,-321.35"/>
</g>
<!-- 251&#45;&gt;2 -->
<g id="edge47" class="edge">
<title>251&#45;&gt;2</title>
<path fill="none" stroke="red" stroke-width="0.4" d="M244.69,-371.7C285.89,-345.01 389.14,-278.11 433.49,-249.38"/>
<polygon fill="red" stroke="red" stroke-width="0.4" points="435.25,-252.41 441.74,-244.03 431.45,-246.53 435.25,-252.41"/>
</g>
<!-- 251&#45;&gt;188 -->
<g id="edge44" class="edge">
<title>251&#45;&gt;188</title>
<path fill="none" stroke="green" stroke-width="0.42" d="M227.26,-362.71C227.26,-355.16 227.26,-346.4 227.26,-338.11"/>
<polygon fill="green" stroke="green" stroke-width="0.42" points="230.76,-338.27 227.26,-328.27 223.76,-338.27 230.76,-338.27"/>
</g>
<!-- 436&#45;&gt;185 -->
<g id="edge49" class="edge">
<title>436&#45;&gt;185</title>
<path fill="none" stroke="green" stroke-width="0.13" d="M519.44,-150.07C535.18,-137.9 559.3,-119.27 577.27,-105.38"/>
<polygon fill="green" stroke="green" stroke-width="0.13" points="579.13,-108.37 584.9,-99.49 574.85,-102.83 579.13,-108.37"/>
</g>
<!-- 502&#45;&gt;185 -->
<g id="edge52" class="edge">
<title>502&#45;&gt;185</title>
<path fill="none" stroke="red" stroke-width="0.21" stroke-dasharray="1,5" d="M780.81,-155.17C745.67,-141.8 671.4,-113.54 630.24,-97.88"/>
<polygon fill="red" stroke="red" stroke-width="0.21" points="631.67,-94.68 621.08,-94.39 629.18,-101.22 631.67,-94.68"/>
</g>
<!-- 185&#45;&gt;0 -->
<g id="edge25" class="edge">
<title>185&#45;&gt;0</title>
<path fill="none" stroke="red" stroke-width="0.28" stroke-dasharray="1,5" d="M589.64,-68.41C582.64,-58.5 573.67,-45.81 566.27,-35.33"/>
<polygon fill="red" stroke="red" stroke-width="0.28" points="569.14,-33.33 560.51,-27.18 563.42,-37.37 569.14,-33.33"/>
</g>
<!-- 185&#45;&gt;1 -->
<g id="edge11" class="edge">
<title>185&#45;&gt;1</title>
<path fill="none" stroke="red" stroke-width="0.54" stroke-dasharray="1,5" d="M610.45,-66.63C614.97,-57.67 620.46,-46.8 625.21,-37.39"/>
<polygon fill="red" stroke="red" stroke-width="0.54" points="628.24,-39.15 629.62,-28.64 621.99,-36 628.24,-39.15"/>
</g>
<!-- 186&#45;&gt;0 -->
<g id="edge17" class="edge">
<title>186&#45;&gt;0</title>
<path fill="none" stroke="green" stroke-width="0.27" d="M498.45,-290.99C508.02,-280.44 519.99,-265.21 526.26,-249.42 554.95,-177.09 555.34,-82.94 553.66,-39.44"/>
<polygon fill="green" stroke="green" stroke-width="0.27" points="557.17,-39.51 553.21,-29.69 550.18,-39.84 557.17,-39.51"/>
</g>
<!-- 186&#45;&gt;2 -->
<g id="edge5" class="edge">
<title>186&#45;&gt;2</title>
<path fill="none" stroke="red" stroke-width="0.38" stroke-dasharray="1,5" d="M476.22,-286.7C472.43,-277.95 467.89,-267.45 463.92,-258.27"/>
<polygon fill="red" stroke="red" stroke-width="0.38" points="467.16,-256.95 459.98,-249.16 460.74,-259.73 467.16,-256.95"/>
</g>
<!-- 186&#45;&gt;186 -->
<g id="edge14" class="edge">
<title>186&#45;&gt;186</title>
<path fill="none" stroke="green" stroke-width="0.29" stroke-dasharray="1,5" d="M501.44,-318.6C512.48,-321.82 523.12,-317.71 523.12,-306.28 523.12,-298.6 518.32,-294.23 511.82,-293.16"/>
<polygon fill="green" stroke="green" stroke-width="0.29" points="511.57,-289.67 501.87,-293.93 512.11,-296.65 511.57,-289.67"/>
</g>
<!-- 187&#45;&gt;1 -->
<g id="edge26" class="edge">
<title>187&#45;&gt;1</title>
<path fill="none" stroke="red" stroke-width="0.59" d="M674.44,-285.36C667.14,-233.79 647.65,-96.01 639.7,-39.84"/>
<polygon fill="red" stroke="red" stroke-width="0.59" points="643.18,-39.45 638.31,-30.04 636.25,-40.43 643.18,-39.45"/>
</g>
<!-- 187&#45;&gt;3 -->
<g id="edge27" class="edge">
<title>187&#45;&gt;3</title>
<path fill="none" stroke="red" stroke-width="0.15" d="M657.97,-297.59C625.6,-284.69 560.48,-258.74 525.96,-244.97"/>
<polygon fill="red" stroke="red" stroke-width="0.15" points="527.48,-241.81 516.9,-241.36 524.89,-248.32 527.48,-241.81"/>
</g>
<!-- 188&#45;&gt;3 -->
<g id="edge8" class="edge">
<title>188&#45;&gt;3</title>
<path fill="none" stroke="red" stroke-width="0.22" stroke-dasharray="1,5" d="M248.19,-302.48C291.79,-296.24 395.14,-279.33 477.26,-249.42 478.69,-248.9 480.14,-248.31 481.6,-247.69"/>
<polygon fill="red" stroke="red" stroke-width="0.22" points="483.09,-250.85 490.56,-243.34 480.03,-244.55 483.09,-250.85"/>
</g>
</g>
</svg>
