<?xml version="1.0" encoding="UTF-8" standalone="no"?>
<!DOCTYPE svg PUBLIC "-//W3C//DTD SVG 1.1//EN"
 "http://www.w3.org/Graphics/SVG/1.1/DTD/svg11.dtd">
<!-- Generated by graphviz version 12.1.1 (20240910.0053)
 -->
<!-- Pages: 1 -->
<svg width="920pt" height="173pt"
 viewBox="0.00 0.00 920.50 173.34" xmlns="http://www.w3.org/2000/svg" xmlns:xlink="http://www.w3.org/1999/xlink">
<g id="graph0" class="graph" transform="scale(1 1) rotate(0) translate(4 169.34)">
<polygon fill="white" stroke="none" points="-4,4 -4,-169.34 916.5,-169.34 916.5,4 -4,4"/>
<!-- &#45;1 -->
<g id="node1" class="node">
<title>&#45;1</title>
<polygon fill="lightgray" stroke="black" points="597.75,-160.09 574.25,-160.09 574.25,-141.59 597.75,-141.59 597.75,-160.09"/>
<text text-anchor="middle" x="586" y="-147.54" font-family="Times,serif" font-size="9.00">&#45;1</text>
</g>
<!-- 69 -->
<g id="node26" class="node">
<title>69</title>
<ellipse fill="white" stroke="black" cx="412" cy="-82.67" rx="17.68" ry="17.68"/>
<text text-anchor="middle" x="412" y="-79.37" font-family="Times,serif" font-size="9.00">69</text>
</g>
<!-- &#45;1&#45;&gt;69 -->
<g id="edge19" class="edge">
<title>&#45;1&#45;&gt;69</title>
<path fill="none" stroke="red" stroke-width="0.32" stroke-dasharray="1,5" d="M573.85,-141.34C571.02,-139.56 567.96,-137.78 565,-136.35 522.71,-115.85 470.36,-99.65 439.16,-90.88"/>
<polygon fill="red" stroke="red" stroke-width="0.32" points="440.09,-87.51 429.52,-88.22 438.23,-94.25 440.09,-87.51"/>
</g>
<!-- 71 -->
<g id="node28" class="node">
<title>71</title>
<ellipse fill="white" stroke="black" cx="564" cy="-82.67" rx="17.68" ry="17.68"/>
<text text-anchor="middle" x="564" y="-79.37" font-family="Times,serif" font-size="9.00">71</text>
</g>
<!-- &#45;1&#45;&gt;71 -->
<g id="edge38" class="edge">
<title>&#45;1&#45;&gt;71</title>
<path fill="none" stroke="green" stroke-width="0.84" stroke-dasharray="1,5" d="M583.12,-141.19C580.52,-133.36 576.55,-121.41 572.89,-110.42"/>
<polygon fill="green" stroke="green" stroke-width="0.84" points="576.29,-109.54 569.81,-101.16 569.65,-111.75 576.29,-109.54"/>
</g>
<!-- &#45;2 -->
<g id="node2" class="node">
<title>&#45;2</title>
<polygon fill="lightgray" stroke="black" points="509.75,-160.09 486.25,-160.09 486.25,-141.59 509.75,-141.59 509.75,-160.09"/>
<text text-anchor="middle" x="498" y="-147.54" font-family="Times,serif" font-size="9.00">&#45;2</text>
</g>
<!-- &#45;2&#45;&gt;71 -->
<g id="edge17" class="edge">
<title>&#45;2&#45;&gt;71</title>
<path fill="none" stroke="green" stroke-width="0.22" stroke-dasharray="1,5" d="M506.63,-141.19C516.33,-131.47 532.37,-115.38 545.03,-102.69"/>
<polygon fill="green" stroke="green" stroke-width="0.22" points="547.19,-105.48 551.77,-95.93 542.23,-100.54 547.19,-105.48"/>
</g>
<!-- 72 -->
<g id="node29" class="node">
<title>72</title>
<ellipse fill="white" stroke="black" cx="322" cy="-82.67" rx="17.68" ry="17.68"/>
<text text-anchor="middle" x="322" y="-79.37" font-family="Times,serif" font-size="9.00">72</text>
</g>
<!-- &#45;2&#45;&gt;72 -->
<g id="edge13" class="edge">
<title>&#45;2&#45;&gt;72</title>
<path fill="none" stroke="green" stroke-width="0.25" stroke-dasharray="1,5" d="M485.85,-141.33C483.02,-139.55 479.97,-137.78 477,-136.35 433.99,-115.6 380.67,-99.4 349.1,-90.71"/>
<polygon fill="green" stroke="green" stroke-width="0.25" points="350.21,-87.38 339.65,-88.15 348.39,-94.14 350.21,-87.38"/>
</g>
<!-- &#45;3 -->
<g id="node3" class="node">
<title>&#45;3</title>
<polygon fill="lightgray" stroke="black" points="467.75,-160.09 444.25,-160.09 444.25,-141.59 467.75,-141.59 467.75,-160.09"/>
<text text-anchor="middle" x="456" y="-147.54" font-family="Times,serif" font-size="9.00">&#45;3</text>
</g>
<!-- &#45;3&#45;&gt;71 -->
<g id="edge6" class="edge">
<title>&#45;3&#45;&gt;71</title>
<path fill="none" stroke="green" stroke-width="0.51" d="M467.96,-142.08C470.9,-140.19 474.06,-138.18 477,-136.35 498.11,-123.18 522.34,-108.55 539.86,-98.05"/>
<polygon fill="green" stroke="green" stroke-width="0.51" points="541.39,-101.21 548.18,-93.08 537.8,-95.21 541.39,-101.21"/>
</g>
<!-- &#45;3&#45;&gt;72 -->
<g id="edge42" class="edge">
<title>&#45;3&#45;&gt;72</title>
<path fill="none" stroke="red" stroke-width="0.31" stroke-dasharray="1,5" d="M444.18,-141.85C441.23,-139.97 438.04,-138.02 435,-136.35 405.77,-120.24 370.76,-104.43 347.54,-94.39"/>
<polygon fill="red" stroke="red" stroke-width="0.31" points="349.06,-91.24 338.49,-90.53 346.31,-97.68 349.06,-91.24"/>
</g>
<!-- &#45;4 -->
<g id="node4" class="node">
<title>&#45;4</title>
<polygon fill="lightgray" stroke="black" points="111.75,-160.09 88.25,-160.09 88.25,-141.59 111.75,-141.59 111.75,-160.09"/>
<text text-anchor="middle" x="100" y="-147.54" font-family="Times,serif" font-size="9.00">&#45;4</text>
</g>
<!-- 70 -->
<g id="node27" class="node">
<title>70</title>
<ellipse fill="white" stroke="black" cx="172" cy="-82.67" rx="17.68" ry="17.68"/>
<text text-anchor="middle" x="172" y="-79.37" font-family="Times,serif" font-size="9.00">70</text>
</g>
<!-- &#45;4&#45;&gt;70 -->
<g id="edge33" class="edge">
<title>&#45;4&#45;&gt;70</title>
<path fill="none" stroke="green" stroke-width="0.19" d="M109.41,-141.19C120.15,-131.32 138.03,-114.89 151.94,-102.11"/>
<polygon fill="green" stroke="green" stroke-width="0.19" points="153.98,-104.98 158.98,-95.64 149.24,-99.83 153.98,-104.98"/>
</g>
<!-- &#45;4&#45;&gt;72 -->
<g id="edge5" class="edge">
<title>&#45;4&#45;&gt;72</title>
<path fill="none" stroke="green" stroke-width="0.53" d="M112.07,-141.17C114.91,-139.4 117.98,-137.67 121,-136.35 179.9,-110.48 254.27,-95.09 293.98,-88.13"/>
<polygon fill="green" stroke="green" stroke-width="0.53" points="294.38,-91.61 303.66,-86.49 293.21,-84.71 294.38,-91.61"/>
</g>
<!-- &#45;5 -->
<g id="node5" class="node">
<title>&#45;5</title>
<polygon fill="lightgray" stroke="black" points="69.75,-160.09 46.25,-160.09 46.25,-141.59 69.75,-141.59 69.75,-160.09"/>
<text text-anchor="middle" x="58" y="-147.54" font-family="Times,serif" font-size="9.00">&#45;5</text>
</g>
<!-- 3 -->
<g id="node24" class="node">
<title>3</title>
<ellipse fill="lightblue" stroke="black" cx="115" cy="-14.5" rx="14.5" ry="14.5"/>
<text text-anchor="middle" x="115" y="-11.2" font-family="Times,serif" font-size="9.00">3</text>
</g>
<!-- &#45;5&#45;&gt;3 -->
<g id="edge43" class="edge">
<title>&#45;5&#45;&gt;3</title>
<path fill="none" stroke="green" stroke-width="0.35" stroke-dasharray="1,5" d="M61.57,-141.44C70.28,-120.9 92.89,-67.62 105.73,-37.35"/>
<polygon fill="green" stroke="green" stroke-width="0.35" points="108.79,-39.1 109.47,-28.53 102.34,-36.37 108.79,-39.1"/>
</g>
<!-- &#45;5&#45;&gt;69 -->
<g id="edge25" class="edge">
<title>&#45;5&#45;&gt;69</title>
<path fill="none" stroke="green" stroke-width="0.22" d="M69.51,-141.17C72.47,-139.31 75.75,-137.54 79,-136.35 192.64,-94.62 230.25,-123.88 349,-100.35 360.94,-97.98 373.98,-94.66 385.07,-91.6"/>
<polygon fill="green" stroke="green" stroke-width="0.22" points="386.03,-94.97 394.7,-88.88 384.12,-88.23 386.03,-94.97"/>
</g>
<!-- &#45;5&#45;&gt;70 -->
<g id="edge20" class="edge">
<title>&#45;5&#45;&gt;70</title>
<path fill="none" stroke="red" stroke-width="0.25" d="M69.92,-142.02C72.87,-140.13 76.03,-138.14 79,-136.35 102.1,-122.4 128.97,-107.3 147.87,-96.85"/>
<polygon fill="red" stroke="red" stroke-width="0.25" points="149.3,-100.06 156.37,-92.17 145.92,-93.93 149.3,-100.06"/>
</g>
<!-- &#45;6 -->
<g id="node6" class="node">
<title>&#45;6</title>
<polygon fill="lightgray" stroke="black" points="245.75,-160.09 222.25,-160.09 222.25,-141.59 245.75,-141.59 245.75,-160.09"/>
<text text-anchor="middle" x="234" y="-147.54" font-family="Times,serif" font-size="9.00">&#45;6</text>
</g>
<!-- &#45;6&#45;&gt;69 -->
<g id="edge12" class="edge">
<title>&#45;6&#45;&gt;69</title>
<path fill="none" stroke="red" stroke-width="0.24" d="M246.14,-141.32C248.97,-139.54 252.03,-137.77 255,-136.35 298.78,-115.34 353.13,-99.12 385.05,-90.52"/>
<polygon fill="red" stroke="red" stroke-width="0.24" points="385.84,-93.93 394.61,-87.99 384.05,-87.16 385.84,-93.93"/>
</g>
<!-- &#45;6&#45;&gt;70 -->
<g id="edge41" class="edge">
<title>&#45;6&#45;&gt;70</title>
<path fill="none" stroke="red" stroke-width="0.36" d="M225.89,-141.19C217.06,-131.77 202.63,-116.36 190.92,-103.86"/>
<polygon fill="red" stroke="red" stroke-width="0.36" points="193.48,-101.47 184.08,-96.57 188.37,-106.26 193.48,-101.47"/>
</g>
<!-- &#45;7 -->
<g id="node7" class="node">
<title>&#45;7</title>
<polygon fill="lightgray" stroke="black" points="823.75,-160.09 800.25,-160.09 800.25,-141.59 823.75,-141.59 823.75,-160.09"/>
<text text-anchor="middle" x="812" y="-147.54" font-family="Times,serif" font-size="9.00">&#45;7</text>
</g>
<!-- &#45;8 -->
<g id="node8" class="node">
<title>&#45;8</title>
<polygon fill="lightgray" stroke="black" points="865.75,-160.09 842.25,-160.09 842.25,-141.59 865.75,-141.59 865.75,-160.09"/>
<text text-anchor="middle" x="854" y="-147.54" font-family="Times,serif" font-size="9.00">&#45;8</text>
</g>
<!-- &#45;9 -->
<g id="node9" class="node">
<title>&#45;9</title>
<polygon fill="lightgray" stroke="black" points="333.75,-160.09 310.25,-160.09 310.25,-141.59 333.75,-141.59 333.75,-160.09"/>
<text text-anchor="middle" x="322" y="-147.54" font-family="Times,serif" font-size="9.00">&#45;9</text>
</g>
<!-- &#45;9&#45;&gt;72 -->
<g id="edge16" class="edge">
<title>&#45;9&#45;&gt;72</title>
<path fill="none" stroke="green" stroke-width="0.22" d="M322,-141.19C322,-133.44 322,-121.64 322,-110.75"/>
<polygon fill="green" stroke="green" stroke-width="0.22" points="325.5,-111.06 322,-101.06 318.5,-111.06 325.5,-111.06"/>
</g>
<!-- &#45;10 -->
<g id="node10" class="node">
<title>&#45;10</title>
<polygon fill="lightgray" stroke="black" points="28,-160.09 0,-160.09 0,-141.59 28,-141.59 28,-160.09"/>
<text text-anchor="middle" x="14" y="-147.54" font-family="Times,serif" font-size="9.00">&#45;10</text>
</g>
<!-- &#45;10&#45;&gt;70 -->
<g id="edge4" class="edge">
<title>&#45;10&#45;&gt;70</title>
<path fill="none" stroke="red" stroke-width="0.4" d="M27.92,-141.2C30.87,-139.5 34,-137.8 37,-136.35 73.74,-118.54 118.14,-102.14 145.73,-92.52"/>
<polygon fill="red" stroke="red" stroke-width="0.4" points="146.55,-95.94 154.87,-89.37 144.27,-89.32 146.55,-95.94"/>
</g>
<!-- &#45;11 -->
<g id="node11" class="node">
<title>&#45;11</title>
<polygon fill="lightgray" stroke="black" points="644,-160.09 616,-160.09 616,-141.59 644,-141.59 644,-160.09"/>
<text text-anchor="middle" x="630" y="-147.54" font-family="Times,serif" font-size="9.00">&#45;11</text>
</g>
<!-- &#45;11&#45;&gt;69 -->
<g id="edge2" class="edge">
<title>&#45;11&#45;&gt;69</title>
<path fill="none" stroke="green" stroke-width="0.54" stroke-dasharray="1,5" d="M616.69,-141.23C613.59,-139.45 610.24,-137.71 607,-136.35 549.76,-112.33 478.44,-96.34 439.88,-88.76"/>
<polygon fill="green" stroke="green" stroke-width="0.54" points="440.75,-85.36 430.27,-86.91 439.43,-92.24 440.75,-85.36"/>
</g>
<!-- &#45;11&#45;&gt;71 -->
<g id="edge21" class="edge">
<title>&#45;11&#45;&gt;71</title>
<path fill="none" stroke="red" stroke-width="0.32" d="M621.37,-141.19C611.76,-131.56 595.93,-115.69 583.33,-103.05"/>
<polygon fill="red" stroke="red" stroke-width="0.32" points="585.87,-100.64 576.33,-96.03 580.92,-105.59 585.87,-100.64"/>
</g>
<!-- &#45;12 -->
<g id="node12" class="node">
<title>&#45;12</title>
<polygon fill="lightgray" stroke="black" points="782,-160.09 754,-160.09 754,-141.59 782,-141.59 782,-160.09"/>
<text text-anchor="middle" x="768" y="-147.54" font-family="Times,serif" font-size="9.00">&#45;12</text>
</g>
<!-- &#45;12&#45;&gt;71 -->
<g id="edge3" class="edge">
<title>&#45;12&#45;&gt;71</title>
<path fill="none" stroke="red" stroke-width="0.22" d="M754.67,-141.27C751.57,-139.49 748.23,-137.74 745,-136.35 692.48,-113.71 627.32,-97.43 591.25,-89.38"/>
<polygon fill="red" stroke="red" stroke-width="0.22" points="592.31,-86.03 581.79,-87.31 590.81,-92.87 592.31,-86.03"/>
</g>
<!-- &#45;13 -->
<g id="node13" class="node">
<title>&#45;13</title>
<polygon fill="lightgray" stroke="black" points="158,-160.09 130,-160.09 130,-141.59 158,-141.59 158,-160.09"/>
<text text-anchor="middle" x="144" y="-147.54" font-family="Times,serif" font-size="9.00">&#45;13</text>
</g>
<!-- &#45;13&#45;&gt;69 -->
<g id="edge34" class="edge">
<title>&#45;13&#45;&gt;69</title>
<path fill="none" stroke="green" stroke-width="0.34" d="M156.76,-141.34C159.99,-139.47 163.54,-137.66 167,-136.35 244.08,-107.07 268.66,-118.91 349,-100.35 360.86,-97.61 373.88,-94.22 384.99,-91.22"/>
<polygon fill="green" stroke="green" stroke-width="0.34" points="385.75,-94.64 394.47,-88.63 383.9,-87.89 385.75,-94.64"/>
</g>
<!-- &#45;13&#45;&gt;70 -->
<g id="edge8" class="edge">
<title>&#45;13&#45;&gt;70</title>
<path fill="none" stroke="green" stroke-width="0.22" d="M147.66,-141.19C151.16,-132.93 156.6,-120.06 161.45,-108.6"/>
<polygon fill="green" stroke="green" stroke-width="0.22" points="164.53,-110.3 165.21,-99.72 158.09,-107.57 164.53,-110.3"/>
</g>
<!-- &#45;13&#45;&gt;72 -->
<g id="edge24" class="edge">
<title>&#45;13&#45;&gt;72</title>
<path fill="none" stroke="green" stroke-width="0.35" d="M157.87,-141.1C160.82,-139.41 163.97,-137.73 167,-136.35 210.42,-116.48 263.61,-100 295.04,-91.02"/>
<polygon fill="green" stroke="green" stroke-width="0.35" points="295.64,-94.49 304.32,-88.41 293.74,-87.75 295.64,-94.49"/>
</g>
<!-- &#45;14 -->
<g id="node14" class="node">
<title>&#45;14</title>
<polygon fill="lightgray" stroke="black" points="690,-160.09 662,-160.09 662,-141.59 690,-141.59 690,-160.09"/>
<text text-anchor="middle" x="676" y="-147.54" font-family="Times,serif" font-size="9.00">&#45;14</text>
</g>
<!-- &#45;14&#45;&gt;69 -->
<g id="edge37" class="edge">
<title>&#45;14&#45;&gt;69</title>
<path fill="none" stroke="red" stroke-width="0.32" d="M662.74,-141.11C659.64,-139.34 656.28,-137.63 653,-136.35 579.12,-107.44 485.98,-92.79 440.13,-86.89"/>
<polygon fill="red" stroke="red" stroke-width="0.32" points="440.63,-83.43 430.27,-85.67 439.76,-90.38 440.63,-83.43"/>
</g>
<!-- &#45;14&#45;&gt;71 -->
<g id="edge39" class="edge">
<title>&#45;14&#45;&gt;71</title>
<path fill="none" stroke="red" stroke-width="0.28" d="M661.82,-141.46C643.27,-130.51 610.52,-111.16 588.06,-97.89"/>
<polygon fill="red" stroke="red" stroke-width="0.28" points="589.9,-94.91 579.51,-92.83 586.34,-100.93 589.9,-94.91"/>
</g>
<!-- &#45;15 -->
<g id="node15" class="node">
<title>&#45;15</title>
<polygon fill="lightgray" stroke="black" points="380,-160.09 352,-160.09 352,-141.59 380,-141.59 380,-160.09"/>
<text text-anchor="middle" x="366" y="-147.54" font-family="Times,serif" font-size="9.00">&#45;15</text>
</g>
<!-- &#45;15&#45;&gt;69 -->
<g id="edge1" class="edge">
<title>&#45;15&#45;&gt;69</title>
<path fill="none" stroke="green" stroke-width="0.2" stroke-dasharray="1,5" d="M372.01,-141.19C378.17,-132.34 387.99,-118.22 396.35,-106.18"/>
<polygon fill="green" stroke="green" stroke-width="0.2" points="399.11,-108.34 401.95,-98.13 393.36,-104.35 399.11,-108.34"/>
</g>
<!-- &#45;15&#45;&gt;72 -->
<g id="edge32" class="edge">
<title>&#45;15&#45;&gt;72</title>
<path fill="none" stroke="green" stroke-width="0.29" d="M360.25,-141.19C354.42,-132.43 345.15,-118.49 337.2,-106.53"/>
<polygon fill="green" stroke="green" stroke-width="0.29" points="340.15,-104.65 331.7,-98.26 334.32,-108.52 340.15,-104.65"/>
</g>
<!-- &#45;16 -->
<g id="node16" class="node">
<title>&#45;16</title>
<polygon fill="lightgray" stroke="black" points="556,-160.09 528,-160.09 528,-141.59 556,-141.59 556,-160.09"/>
<text text-anchor="middle" x="542" y="-147.54" font-family="Times,serif" font-size="9.00">&#45;16</text>
</g>
<!-- &#45;16&#45;&gt;69 -->
<g id="edge29" class="edge">
<title>&#45;16&#45;&gt;69</title>
<path fill="none" stroke="green" stroke-width="0.14" d="M527.98,-141.4C525.04,-139.69 521.93,-137.93 519,-136.35 491.21,-121.38 458.58,-105.56 436.72,-95.21"/>
<polygon fill="green" stroke="green" stroke-width="0.14" points="438.5,-92.18 427.96,-91.08 435.52,-98.51 438.5,-92.18"/>
</g>
<!-- &#45;16&#45;&gt;71 -->
<g id="edge35" class="edge">
<title>&#45;16&#45;&gt;71</title>
<path fill="none" stroke="red" stroke-width="0.21" d="M544.88,-141.19C547.53,-133.2 551.62,-120.91 555.33,-109.73"/>
<polygon fill="red" stroke="red" stroke-width="0.21" points="558.65,-110.84 558.49,-100.25 552.01,-108.63 558.65,-110.84"/>
</g>
<!-- &#45;16&#45;&gt;72 -->
<g id="edge11" class="edge">
<title>&#45;16&#45;&gt;72</title>
<path fill="none" stroke="red" stroke-width="0.36" d="M528.69,-141.22C525.59,-139.44 522.25,-137.7 519,-136.35 517,-135.51 403.13,-105.22 349.45,-90.96"/>
<polygon fill="red" stroke="red" stroke-width="0.36" points="350.36,-87.58 339.79,-88.39 348.56,-94.34 350.36,-87.58"/>
</g>
<!-- &#45;17 -->
<g id="node17" class="node">
<title>&#45;17</title>
<polygon fill="lightgray" stroke="black" points="204,-160.09 176,-160.09 176,-141.59 204,-141.59 204,-160.09"/>
<text text-anchor="middle" x="190" y="-147.54" font-family="Times,serif" font-size="9.00">&#45;17</text>
</g>
<!-- &#45;17&#45;&gt;72 -->
<g id="edge18" class="edge">
<title>&#45;17&#45;&gt;72</title>
<path fill="none" stroke="red" stroke-width="0.2" stroke-dasharray="1,5" d="M204.01,-141.38C206.95,-139.67 210.06,-137.92 213,-136.35 241.26,-121.26 274.52,-105.46 296.8,-95.15"/>
<polygon fill="red" stroke="red" stroke-width="0.2" points="298.02,-98.44 305.64,-91.08 295.09,-92.08 298.02,-98.44"/>
</g>
<!-- &#45;18 -->
<g id="node18" class="node">
<title>&#45;18</title>
<polygon fill="lightgray" stroke="black" points="736,-160.09 708,-160.09 708,-141.59 736,-141.59 736,-160.09"/>
<text text-anchor="middle" x="722" y="-147.54" font-family="Times,serif" font-size="9.00">&#45;18</text>
</g>
<!-- &#45;18&#45;&gt;71 -->
<g id="edge27" class="edge">
<title>&#45;18&#45;&gt;71</title>
<path fill="none" stroke="red" stroke-width="0.32" d="M708.08,-141.2C705.13,-139.5 702,-137.8 699,-136.35 662.26,-118.54 617.86,-102.14 590.27,-92.52"/>
<polygon fill="red" stroke="red" stroke-width="0.32" points="591.62,-89.29 581.03,-89.34 589.34,-95.91 591.62,-89.29"/>
</g>
<!-- &#45;19 -->
<g id="node19" class="node">
<title>&#45;19</title>
<polygon fill="lightgray" stroke="black" points="426,-160.09 398,-160.09 398,-141.59 426,-141.59 426,-160.09"/>
<text text-anchor="middle" x="412" y="-147.54" font-family="Times,serif" font-size="9.00">&#45;19</text>
</g>
<!-- &#45;19&#45;&gt;69 -->
<g id="edge30" class="edge">
<title>&#45;19&#45;&gt;69</title>
<path fill="none" stroke="red" stroke-width="0.34" d="M412,-141.19C412,-133.52 412,-121.89 412,-111.08"/>
<polygon fill="red" stroke="red" stroke-width="0.34" points="415.5,-111.26 412,-101.26 408.5,-111.26 415.5,-111.26"/>
</g>
<!-- &#45;19&#45;&gt;70 -->
<g id="edge36" class="edge">
<title>&#45;19&#45;&gt;70</title>
<path fill="none" stroke="red" stroke-width="0.11" stroke-dasharray="1,5" d="M398.72,-141.17C395.61,-139.39 392.26,-137.67 389,-136.35 323.57,-109.88 241.44,-94.41 199.47,-87.69"/>
<polygon fill="red" stroke="red" stroke-width="0.11" points="200.27,-84.27 189.85,-86.19 199.2,-91.19 200.27,-84.27"/>
</g>
<!-- &#45;19&#45;&gt;71 -->
<g id="edge9" class="edge">
<title>&#45;19&#45;&gt;71</title>
<path fill="none" stroke="red" stroke-width="0.32" d="M425.93,-141.24C428.89,-139.54 432.01,-137.82 435,-136.35 469.65,-119.22 511.3,-102.95 537.72,-93.14"/>
<polygon fill="red" stroke="red" stroke-width="0.32" points="538.74,-96.49 546.92,-89.76 536.33,-89.92 538.74,-96.49"/>
</g>
<!-- &#45;19&#45;&gt;72 -->
<g id="edge14" class="edge">
<title>&#45;19&#45;&gt;72</title>
<path fill="none" stroke="red" stroke-width="0.53" d="M400.23,-141.19C386.2,-130.87 362.41,-113.38 344.74,-100.39"/>
<polygon fill="red" stroke="red" stroke-width="0.53" points="346.92,-97.65 336.79,-94.54 342.77,-103.29 346.92,-97.65"/>
</g>
<!-- &#45;20 -->
<g id="node20" class="node">
<title>&#45;20</title>
<polygon fill="lightgray" stroke="black" points="292,-160.09 264,-160.09 264,-141.59 292,-141.59 292,-160.09"/>
<text text-anchor="middle" x="278" y="-147.54" font-family="Times,serif" font-size="9.00">&#45;20</text>
</g>
<!-- &#45;20&#45;&gt;70 -->
<g id="edge28" class="edge">
<title>&#45;20&#45;&gt;70</title>
<path fill="none" stroke="green" stroke-width="0.13" d="M264.14,-141.19C246.66,-130.28 216.34,-111.35 195.28,-98.2"/>
<polygon fill="green" stroke="green" stroke-width="0.13" points="197.38,-95.39 187.05,-93.06 193.68,-101.33 197.38,-95.39"/>
</g>
<!-- &#45;20&#45;&gt;71 -->
<g id="edge31" class="edge">
<title>&#45;20&#45;&gt;71</title>
<path fill="none" stroke="green" stroke-width="0.2" d="M290.76,-141.35C294,-139.48 297.54,-137.67 301,-136.35 344.11,-119.91 478.07,-97.36 536.4,-88"/>
<polygon fill="green" stroke="green" stroke-width="0.2" points="536.74,-91.49 546.06,-86.46 535.64,-84.58 536.74,-91.49"/>
</g>
<!-- 0 -->
<g id="node21" class="node">
<title>0</title>
<ellipse fill="lightblue" stroke="black" cx="412" cy="-14.5" rx="14.5" ry="14.5"/>
<text text-anchor="middle" x="412" y="-11.2" font-family="Times,serif" font-size="9.00">0</text>
</g>
<!-- 1 -->
<g id="node22" class="node">
<title>1</title>
<ellipse fill="lightblue" stroke="black" cx="266" cy="-14.5" rx="14.5" ry="14.5"/>
<text text-anchor="middle" x="266" y="-11.2" font-family="Times,serif" font-size="9.00">1</text>
</g>
<!-- 2 -->
<g id="node23" class="node">
<title>2</title>
<ellipse fill="lightblue" stroke="black" cx="172" cy="-14.5" rx="14.5" ry="14.5"/>
<text text-anchor="middle" x="172" y="-11.2" font-family="Times,serif" font-size="9.00">2</text>
</g>
<!-- 2&#45;&gt;2 -->
<g id="edge40" class="edge">
<title>2&#45;&gt;2</title>
<path fill="none" stroke="green" stroke-width="0.19" d="M182.65,-24.65C193.06,-30.26 204.5,-26.88 204.5,-14.5 204.5,-5.98 199.09,-1.72 192.33,-1.71"/>
<polygon fill="green" stroke="green" stroke-width="0.19" points="191.66,1.73 182.93,-4.26 193.49,-5.02 191.66,1.73"/>
</g>
<!-- 4 -->
<g id="node25" class="node">
<title>4</title>
<ellipse fill="lightblue" stroke="black" cx="898" cy="-150.84" rx="14.5" ry="14.5"/>
<text text-anchor="middle" x="898" y="-147.54" font-family="Times,serif" font-size="9.00">4</text>
</g>
<!-- 69&#45;&gt;0 -->
<g id="edge10" class="edge">
<title>69&#45;&gt;0</title>
<path fill="none" stroke="green" stroke-width="0.36" d="M412,-64.63C412,-56.96 412,-47.77 412,-39.43"/>
<polygon fill="green" stroke="green" stroke-width="0.36" points="415.5,-39.69 412,-29.69 408.5,-39.69 415.5,-39.69"/>
</g>
<!-- 69&#45;&gt;69 -->
<g id="edge7" class="edge">
<title>69&#45;&gt;69</title>
<path fill="none" stroke="red" stroke-width="0.19" d="M425.92,-93.8C436.69,-97.96 447.68,-94.25 447.68,-82.67 447.68,-74.7 442.48,-70.46 435.74,-69.94"/>
<polygon fill="red" stroke="red" stroke-width="0.19" points="435.51,-66.43 426.2,-71.49 436.63,-73.34 435.51,-66.43"/>
</g>
<!-- 70&#45;&gt;1 -->
<g id="edge15" class="edge">
<title>70&#45;&gt;1</title>
<path fill="none" stroke="red" stroke-width="0.31" d="M186.28,-71.62C202.25,-60.37 228.25,-42.07 246.19,-29.44"/>
<polygon fill="red" stroke="red" stroke-width="0.31" points="247.72,-32.65 253.88,-24.03 243.69,-26.92 247.72,-32.65"/>
</g>
<!-- 70&#45;&gt;2 -->
<g id="edge23" class="edge">
<title>70&#45;&gt;2</title>
<path fill="none" stroke="green" stroke-width="0.19" d="M172,-64.63C172,-56.96 172,-47.77 172,-39.43"/>
<polygon fill="green" stroke="green" stroke-width="0.19" points="175.5,-39.44 172,-29.44 168.5,-39.44 175.5,-39.44"/>
</g>
<!-- 72&#45;&gt;1 -->
<g id="edge22" class="edge">
<title>72&#45;&gt;1</title>
<path fill="none" stroke="red" stroke-width="0.24" stroke-dasharray="1,5" d="M310.94,-68.6C302.5,-58.63 290.79,-44.79 281.43,-33.73"/>
<polygon fill="red" stroke="red" stroke-width="0.24" points="284.2,-31.58 275.07,-26.21 278.86,-36.1 284.2,-31.58"/>
</g>
<!-- 72&#45;&gt;3 -->
<g id="edge26" class="edge">
<title>72&#45;&gt;3</title>
<path fill="none" stroke="green" stroke-width="0.1" d="M305.15,-77.04C274.04,-68.38 205.6,-48.8 149,-28.99 145.2,-27.66 141.19,-26.16 137.32,-24.66"/>
<polygon fill="green" stroke="green" stroke-width="0.1" points="138.88,-21.51 128.29,-21.06 136.29,-28.01 138.88,-21.51"/>
</g>
</g>
</svg>
