<?xml version="1.0" encoding="UTF-8" standalone="no"?>
<!DOCTYPE svg PUBLIC "-//W3C//DTD SVG 1.1//EN"
 "http://www.w3.org/Graphics/SVG/1.1/DTD/svg11.dtd">
<!-- Generated by graphviz version 12.1.1 (20240910.0053)
 -->
<!-- Pages: 1 -->
<svg width="923pt" height="344pt"
 viewBox="0.00 0.00 922.61 343.74" xmlns="http://www.w3.org/2000/svg" xmlns:xlink="http://www.w3.org/1999/xlink">
<g id="graph0" class="graph" transform="scale(1 1) rotate(0) translate(4 339.74)">
<polygon fill="white" stroke="none" points="-4,4 -4,-339.74 918.61,-339.74 918.61,4 -4,4"/>
<!-- &#45;1 -->
<g id="node1" class="node">
<title>&#45;1</title>
<polygon fill="lightgray" stroke="black" points="452.26,-335.74 428.76,-335.74 428.76,-317.24 452.26,-317.24 452.26,-335.74"/>
<text text-anchor="middle" x="440.51" y="-323.19" font-family="Times,serif" font-size="9.00">&#45;1</text>
</g>
<!-- 3522 -->
<g id="node26" class="node">
<title>3522</title>
<ellipse fill="white" stroke="black" cx="887.51" cy="-257.2" rx="24.04" ry="24.04"/>
<text text-anchor="middle" x="887.51" y="-253.9" font-family="Times,serif" font-size="9.00">3522</text>
</g>
<!-- &#45;1&#45;&gt;3522 -->
<g id="edge48" class="edge">
<title>&#45;1&#45;&gt;3522</title>
<path fill="none" stroke="green" stroke-width="0.36" d="M452.32,-320.2C455.27,-319.06 458.46,-317.98 461.51,-317.24 613.89,-280.23 658.82,-312.42 812.51,-281.24 826.62,-278.38 841.87,-273.95 854.91,-269.74"/>
<polygon fill="green" stroke="green" stroke-width="0.36" points="855.93,-273.09 864.31,-266.61 853.72,-266.44 855.93,-273.09"/>
</g>
<!-- 2712 -->
<g id="node27" class="node">
<title>2712</title>
<ellipse fill="white" stroke="black" cx="189.51" cy="-89.03" rx="24.04" ry="24.04"/>
<text text-anchor="middle" x="189.51" y="-85.73" font-family="Times,serif" font-size="9.00">2712</text>
</g>
<!-- &#45;1&#45;&gt;2712 -->
<g id="edge22" class="edge">
<title>&#45;1&#45;&gt;2712</title>
<path fill="none" stroke="green" stroke-width="0.32" stroke-dasharray="1,5" d="M428.5,-323.84C364.34,-314.76 62.83,-268.67 9.51,-197.16 -3.27,-180.03 -3.03,-166.38 9.51,-149.07 42.7,-103.26 112.56,-92.36 154.82,-90.13"/>
<polygon fill="green" stroke="green" stroke-width="0.32" points="154.85,-93.64 164.71,-89.75 154.58,-86.64 154.85,-93.64"/>
</g>
<!-- 2713 -->
<g id="node28" class="node">
<title>2713</title>
<ellipse fill="white" stroke="black" cx="440.51" cy="-89.03" rx="24.04" ry="24.04"/>
<text text-anchor="middle" x="440.51" y="-85.73" font-family="Times,serif" font-size="9.00">2713</text>
</g>
<!-- &#45;1&#45;&gt;2713 -->
<g id="edge32" class="edge">
<title>&#45;1&#45;&gt;2713</title>
<path fill="none" stroke="red" stroke-width="0.58" stroke-dasharray="1,5" d="M433.25,-316.91C417.18,-297.28 379,-246.98 365.51,-197.16 359.92,-176.53 356.17,-168.3 365.51,-149.07 374.7,-130.13 393.25,-115.45 409.59,-105.46"/>
<polygon fill="red" stroke="red" stroke-width="0.58" points="411.18,-108.58 418.11,-100.57 407.7,-102.52 411.18,-108.58"/>
</g>
<!-- 2715 -->
<g id="node30" class="node">
<title>2715</title>
<ellipse fill="white" stroke="black" cx="756.51" cy="-89.03" rx="24.04" ry="24.04"/>
<text text-anchor="middle" x="756.51" y="-85.73" font-family="Times,serif" font-size="9.00">2715</text>
</g>
<!-- &#45;1&#45;&gt;2715 -->
<g id="edge33" class="edge">
<title>&#45;1&#45;&gt;2715</title>
<path fill="none" stroke="red" stroke-width="0.3" d="M452.49,-320.75C455.43,-319.6 458.58,-318.37 461.51,-317.24 602.48,-262.93 693.6,-321.43 779.51,-197.16 795.48,-174.05 785.37,-141.96 773.96,-118.94"/>
<polygon fill="red" stroke="red" stroke-width="0.3" points="777.21,-117.6 769.45,-110.39 771.02,-120.87 777.21,-117.6"/>
</g>
<!-- 3103 -->
<g id="node31" class="node">
<title>3103</title>
<ellipse fill="white" stroke="black" cx="466.51" cy="-257.2" rx="24.04" ry="24.04"/>
<text text-anchor="middle" x="466.51" y="-253.9" font-family="Times,serif" font-size="9.00">3103</text>
</g>
<!-- &#45;1&#45;&gt;3103 -->
<g id="edge45" class="edge">
<title>&#45;1&#45;&gt;3103</title>
<path fill="none" stroke="green" stroke-width="0.19" d="M443.8,-316.97C446.49,-310 450.47,-299.69 454.36,-289.65"/>
<polygon fill="green" stroke="green" stroke-width="0.19" points="457.56,-291.07 457.9,-280.48 451.03,-288.54 457.56,-291.07"/>
</g>
<!-- 2970 -->
<g id="node32" class="node">
<title>2970</title>
<ellipse fill="white" stroke="black" cx="440.51" cy="-173.12" rx="24.04" ry="24.04"/>
<text text-anchor="middle" x="440.51" y="-169.82" font-family="Times,serif" font-size="9.00">2970</text>
</g>
<!-- &#45;1&#45;&gt;2970 -->
<g id="edge43" class="edge">
<title>&#45;1&#45;&gt;2970</title>
<path fill="none" stroke="green" stroke-width="0.13" d="M438.77,-317.06C437.03,-308.19 434.49,-293.8 433.51,-281.24 431.83,-259.94 432.25,-254.49 433.51,-233.16 434,-224.73 434.9,-215.67 435.88,-207.23"/>
<polygon fill="green" stroke="green" stroke-width="0.13" points="439.33,-207.88 437.09,-197.53 432.38,-207.02 439.33,-207.88"/>
</g>
<!-- &#45;2 -->
<g id="node2" class="node">
<title>&#45;2</title>
<polygon fill="lightgray" stroke="black" points="850.26,-182.37 826.76,-182.37 826.76,-163.87 850.26,-163.87 850.26,-182.37"/>
<text text-anchor="middle" x="838.51" y="-169.82" font-family="Times,serif" font-size="9.00">&#45;2</text>
</g>
<!-- &#45;2&#45;&gt;2715 -->
<g id="edge11" class="edge">
<title>&#45;2&#45;&gt;2715</title>
<path fill="none" stroke="green" stroke-width="0.43" d="M830.04,-163.64C818.47,-152.06 797.26,-130.83 780.58,-114.13"/>
<polygon fill="green" stroke="green" stroke-width="0.43" points="783.29,-111.89 773.74,-107.29 778.33,-116.83 783.29,-111.89"/>
</g>
<!-- &#45;3 -->
<g id="node3" class="node">
<title>&#45;3</title>
<polygon fill="lightgray" stroke="black" points="398.26,-182.37 374.76,-182.37 374.76,-163.87 398.26,-163.87 398.26,-182.37"/>
<text text-anchor="middle" x="386.51" y="-169.82" font-family="Times,serif" font-size="9.00">&#45;3</text>
</g>
<!-- &#45;3&#45;&gt;2713 -->
<g id="edge19" class="edge">
<title>&#45;3&#45;&gt;2713</title>
<path fill="none" stroke="green" stroke-width="0.19" stroke-dasharray="1,5" d="M392.08,-163.64C399.08,-153 411.45,-134.19 421.94,-118.26"/>
<polygon fill="green" stroke="green" stroke-width="0.19" points="424.79,-120.28 427.37,-110.01 418.95,-116.44 424.79,-120.28"/>
</g>
<!-- &#45;4 -->
<g id="node4" class="node">
<title>&#45;4</title>
<polygon fill="lightgray" stroke="black" points="494.26,-335.74 470.76,-335.74 470.76,-317.24 494.26,-317.24 494.26,-335.74"/>
<text text-anchor="middle" x="482.51" y="-323.19" font-family="Times,serif" font-size="9.00">&#45;4</text>
</g>
<!-- &#45;5 -->
<g id="node5" class="node">
<title>&#45;5</title>
<polygon fill="lightgray" stroke="black" points="506.26,-182.37 482.76,-182.37 482.76,-163.87 506.26,-163.87 506.26,-182.37"/>
<text text-anchor="middle" x="494.51" y="-169.82" font-family="Times,serif" font-size="9.00">&#45;5</text>
</g>
<!-- &#45;5&#45;&gt;2713 -->
<g id="edge42" class="edge">
<title>&#45;5&#45;&gt;2713</title>
<path fill="none" stroke="green" stroke-width="0.1" stroke-dasharray="1,5" d="M488.93,-163.64C481.86,-152.9 469.33,-133.85 458.78,-117.82"/>
<polygon fill="green" stroke="green" stroke-width="0.1" points="462,-116.33 453.58,-109.9 456.15,-120.18 462,-116.33"/>
</g>
<!-- 2714 -->
<g id="node29" class="node">
<title>2714</title>
<ellipse fill="white" stroke="black" cx="575.51" cy="-89.03" rx="24.04" ry="24.04"/>
<text text-anchor="middle" x="575.51" y="-85.73" font-family="Times,serif" font-size="9.00">2714</text>
</g>
<!-- &#45;5&#45;&gt;2714 -->
<g id="edge23" class="edge">
<title>&#45;5&#45;&gt;2714</title>
<path fill="none" stroke="green" stroke-width="0.15" stroke-dasharray="1,5" d="M502.18,-163.48C506.11,-159.11 511,-153.75 515.51,-149.07 527.03,-137.1 540.16,-124.11 551.2,-113.37"/>
<polygon fill="green" stroke="green" stroke-width="0.15" points="553.55,-115.96 558.29,-106.49 548.67,-110.94 553.55,-115.96"/>
</g>
<!-- &#45;6 -->
<g id="node6" class="node">
<title>&#45;6</title>
<polygon fill="lightgray" stroke="black" points="548.26,-182.37 524.76,-182.37 524.76,-163.87 548.26,-163.87 548.26,-182.37"/>
<text text-anchor="middle" x="536.51" y="-169.82" font-family="Times,serif" font-size="9.00">&#45;6</text>
</g>
<!-- &#45;6&#45;&gt;2713 -->
<g id="edge18" class="edge">
<title>&#45;6&#45;&gt;2713</title>
<path fill="none" stroke="green" stroke-width="0.16" d="M529.43,-163.7C525.5,-159.19 520.42,-153.65 515.51,-149.07 500.5,-135.11 482.48,-120.85 467.86,-109.85"/>
<polygon fill="green" stroke="green" stroke-width="0.16" points="470,-107.08 459.89,-103.91 465.82,-112.69 470,-107.08"/>
</g>
<!-- &#45;6&#45;&gt;2714 -->
<g id="edge35" class="edge">
<title>&#45;6&#45;&gt;2714</title>
<path fill="none" stroke="red" stroke-width="0.45" d="M540.53,-163.64C545.37,-153.46 553.75,-135.83 561.09,-120.38"/>
<polygon fill="red" stroke="red" stroke-width="0.45" points="564.06,-122.27 565.19,-111.74 557.74,-119.27 564.06,-122.27"/>
</g>
<!-- &#45;7 -->
<g id="node7" class="node">
<title>&#45;7</title>
<polygon fill="lightgray" stroke="black" points="590.26,-182.37 566.76,-182.37 566.76,-163.87 590.26,-163.87 590.26,-182.37"/>
<text text-anchor="middle" x="578.51" y="-169.82" font-family="Times,serif" font-size="9.00">&#45;7</text>
</g>
<!-- &#45;7&#45;&gt;2713 -->
<g id="edge26" class="edge">
<title>&#45;7&#45;&gt;2713</title>
<path fill="none" stroke="red" stroke-width="0.34" stroke-dasharray="1,5" d="M572.14,-163.74C568.27,-159.03 563.02,-153.26 557.51,-149.07 531.23,-129.12 497.18,-112.83 472.59,-102.45"/>
<polygon fill="red" stroke="red" stroke-width="0.34" points="474.07,-99.27 463.49,-98.7 471.4,-105.74 474.07,-99.27"/>
</g>
<!-- &#45;7&#45;&gt;2714 -->
<g id="edge29" class="edge">
<title>&#45;7&#45;&gt;2714</title>
<path fill="none" stroke="green" stroke-width="0.34" stroke-dasharray="1,5" d="M578.2,-163.64C577.85,-154.21 577.27,-138.39 576.74,-123.82"/>
<polygon fill="green" stroke="green" stroke-width="0.34" points="580.25,-123.93 576.39,-114.07 573.25,-124.19 580.25,-123.93"/>
</g>
<!-- &#45;8 -->
<g id="node8" class="node">
<title>&#45;8</title>
<polygon fill="lightgray" stroke="black" points="42.26,-182.37 18.76,-182.37 18.76,-163.87 42.26,-163.87 42.26,-182.37"/>
<text text-anchor="middle" x="30.51" y="-169.82" font-family="Times,serif" font-size="9.00">&#45;8</text>
</g>
<!-- &#45;8&#45;&gt;2712 -->
<g id="edge7" class="edge">
<title>&#45;8&#45;&gt;2712</title>
<path fill="none" stroke="red" stroke-width="0.42" d="M36.77,-163.61C40.61,-158.85 45.86,-153.09 51.51,-149.07 84.09,-125.91 127.18,-109.31 156.48,-99.72"/>
<polygon fill="red" stroke="red" stroke-width="0.42" points="157.16,-103.18 165.63,-96.81 155.04,-96.5 157.16,-103.18"/>
</g>
<!-- &#45;9 -->
<g id="node9" class="node">
<title>&#45;9</title>
<polygon fill="lightgray" stroke="black" points="724.26,-182.37 700.76,-182.37 700.76,-163.87 724.26,-163.87 724.26,-182.37"/>
<text text-anchor="middle" x="712.51" y="-169.82" font-family="Times,serif" font-size="9.00">&#45;9</text>
</g>
<!-- &#45;9&#45;&gt;2714 -->
<g id="edge4" class="edge">
<title>&#45;9&#45;&gt;2714</title>
<path fill="none" stroke="red" stroke-width="0.24" stroke-dasharray="1,5" d="M706.14,-163.75C702.27,-159.03 697.02,-153.27 691.51,-149.07 665.44,-129.21 631.68,-112.9 607.31,-102.5"/>
<polygon fill="red" stroke="red" stroke-width="0.24" points="608.73,-99.3 598.15,-98.68 606.04,-105.76 608.73,-99.3"/>
</g>
<!-- &#45;9&#45;&gt;2715 -->
<g id="edge1" class="edge">
<title>&#45;9&#45;&gt;2715</title>
<path fill="none" stroke="green" stroke-width="0.25" stroke-dasharray="1,5" d="M717.05,-163.64C722.59,-153.3 732.26,-135.26 740.64,-119.63"/>
<polygon fill="green" stroke="green" stroke-width="0.25" points="743.56,-121.59 745.2,-111.12 737.39,-118.28 743.56,-121.59"/>
</g>
<!-- &#45;10 -->
<g id="node10" class="node">
<title>&#45;10</title>
<polygon fill="lightgray" stroke="black" points="770.51,-182.37 742.51,-182.37 742.51,-163.87 770.51,-163.87 770.51,-182.37"/>
<text text-anchor="middle" x="756.51" y="-169.82" font-family="Times,serif" font-size="9.00">&#45;10</text>
</g>
<!-- &#45;10&#45;&gt;2714 -->
<g id="edge13" class="edge">
<title>&#45;10&#45;&gt;2714</title>
<path fill="none" stroke="red" stroke-width="0.44" stroke-dasharray="1,5" d="M749.57,-163.53C745.34,-158.75 739.59,-152.99 733.51,-149.07 694.29,-123.83 642.72,-107.15 609.34,-98.14"/>
<polygon fill="red" stroke="red" stroke-width="0.44" points="610.39,-94.8 599.83,-95.65 608.62,-101.57 610.39,-94.8"/>
</g>
<!-- &#45;10&#45;&gt;2715 -->
<g id="edge16" class="edge">
<title>&#45;10&#45;&gt;2715</title>
<path fill="none" stroke="red" stroke-width="0.21" stroke-dasharray="1,5" d="M756.51,-163.64C756.51,-154.21 756.51,-138.39 756.51,-123.82"/>
<polygon fill="red" stroke="red" stroke-width="0.21" points="760.01,-123.87 756.51,-113.87 753.01,-123.87 760.01,-123.87"/>
</g>
<!-- &#45;11 -->
<g id="node11" class="node">
<title>&#45;11</title>
<polygon fill="lightgray" stroke="black" points="180.51,-182.37 152.51,-182.37 152.51,-163.87 180.51,-163.87 180.51,-182.37"/>
<text text-anchor="middle" x="166.51" y="-169.82" font-family="Times,serif" font-size="9.00">&#45;11</text>
</g>
<!-- &#45;11&#45;&gt;2712 -->
<g id="edge41" class="edge">
<title>&#45;11&#45;&gt;2712</title>
<path fill="none" stroke="green" stroke-width="0.34" d="M168.88,-163.64C171.6,-153.92 176.23,-137.41 180.42,-122.48"/>
<polygon fill="green" stroke="green" stroke-width="0.34" points="183.75,-123.57 183.07,-112.99 177,-121.68 183.75,-123.57"/>
</g>
<!-- &#45;11&#45;&gt;2713 -->
<g id="edge20" class="edge">
<title>&#45;11&#45;&gt;2713</title>
<path fill="none" stroke="green" stroke-width="0.16" d="M172.88,-163.69C177.08,-158.72 182.99,-152.71 189.51,-149.07 259.96,-109.79 355.58,-96.56 406.04,-92.16"/>
<polygon fill="green" stroke="green" stroke-width="0.16" points="406.17,-95.67 415.86,-91.37 405.61,-88.69 406.17,-95.67"/>
</g>
<!-- &#45;12 -->
<g id="node12" class="node">
<title>&#45;12</title>
<polygon fill="lightgray" stroke="black" points="540.51,-335.74 512.51,-335.74 512.51,-317.24 540.51,-317.24 540.51,-335.74"/>
<text text-anchor="middle" x="526.51" y="-323.19" font-family="Times,serif" font-size="9.00">&#45;12</text>
</g>
<!-- &#45;13 -->
<g id="node13" class="node">
<title>&#45;13</title>
<polygon fill="lightgray" stroke="black" points="636.51,-182.37 608.51,-182.37 608.51,-163.87 636.51,-163.87 636.51,-182.37"/>
<text text-anchor="middle" x="622.51" y="-169.82" font-family="Times,serif" font-size="9.00">&#45;13</text>
</g>
<!-- &#45;13&#45;&gt;2714 -->
<g id="edge34" class="edge">
<title>&#45;13&#45;&gt;2714</title>
<path fill="none" stroke="green" stroke-width="0.39" stroke-dasharray="1,5" d="M617.65,-163.64C611.69,-153.23 601.27,-135.02 592.28,-119.32"/>
<polygon fill="green" stroke="green" stroke-width="0.39" points="595.49,-117.9 587.49,-110.96 589.42,-121.38 595.49,-117.9"/>
</g>
<!-- &#45;14 -->
<g id="node14" class="node">
<title>&#45;14</title>
<polygon fill="lightgray" stroke="black" points="318.51,-182.37 290.51,-182.37 290.51,-163.87 318.51,-163.87 318.51,-182.37"/>
<text text-anchor="middle" x="304.51" y="-169.82" font-family="Times,serif" font-size="9.00">&#45;14</text>
</g>
<!-- 4 -->
<g id="node25" class="node">
<title>4</title>
<ellipse fill="lightblue" stroke="black" cx="304.51" cy="-14.5" rx="14.5" ry="14.5"/>
<text text-anchor="middle" x="304.51" y="-11.2" font-family="Times,serif" font-size="9.00">4</text>
</g>
<!-- &#45;14&#45;&gt;4 -->
<g id="edge47" class="edge">
<title>&#45;14&#45;&gt;4</title>
<path fill="none" stroke="green" stroke-width="0.13" d="M304.51,-163.7C304.51,-140.43 304.51,-74.66 304.51,-39.07"/>
<polygon fill="green" stroke="green" stroke-width="0.13" points="308.01,-39.27 304.51,-29.27 301.01,-39.27 308.01,-39.27"/>
</g>
<!-- &#45;14&#45;&gt;2712 -->
<g id="edge21" class="edge">
<title>&#45;14&#45;&gt;2712</title>
<path fill="none" stroke="red" stroke-width="0.86" stroke-dasharray="1,5" d="M296.82,-163.56C292.53,-159.02 286.96,-153.47 281.51,-149.07 262.18,-133.5 238.59,-118.43 220.14,-107.41"/>
<polygon fill="red" stroke="red" stroke-width="0.86" points="221.99,-104.44 211.59,-102.39 218.44,-110.47 221.99,-104.44"/>
</g>
<!-- &#45;14&#45;&gt;2713 -->
<g id="edge24" class="edge">
<title>&#45;14&#45;&gt;2713</title>
<path fill="none" stroke="red" stroke-width="0.21" stroke-dasharray="1,5" d="M314,-163.54C319.27,-158.99 326.04,-153.45 332.51,-149.07 357.6,-132.11 388.02,-115.83 410.17,-104.68"/>
<polygon fill="red" stroke="red" stroke-width="0.21" points="411.44,-107.95 418.84,-100.37 408.32,-101.69 411.44,-107.95"/>
</g>
<!-- &#45;14&#45;&gt;2715 -->
<g id="edge6" class="edge">
<title>&#45;14&#45;&gt;2715</title>
<path fill="none" stroke="green" stroke-width="0.49" d="M318.76,-165.69C330.94,-160.45 349.05,-153.26 365.51,-149.07 478.99,-120.2 510.83,-131.3 626.51,-113.07 659.2,-107.93 696.36,-101.26 722.56,-96.42"/>
<polygon fill="green" stroke="green" stroke-width="0.49" points="723.14,-99.87 732.34,-94.6 721.87,-92.99 723.14,-99.87"/>
</g>
<!-- &#45;15 -->
<g id="node15" class="node">
<title>&#45;15</title>
<polygon fill="lightgray" stroke="black" points="226.51,-182.37 198.51,-182.37 198.51,-163.87 226.51,-163.87 226.51,-182.37"/>
<text text-anchor="middle" x="212.51" y="-169.82" font-family="Times,serif" font-size="9.00">&#45;15</text>
</g>
<!-- &#45;15&#45;&gt;2712 -->
<g id="edge28" class="edge">
<title>&#45;15&#45;&gt;2712</title>
<path fill="none" stroke="red" stroke-width="0.21" stroke-dasharray="1,5" d="M210.13,-163.64C207.38,-153.83 202.69,-137.09 198.48,-122.05"/>
<polygon fill="red" stroke="red" stroke-width="0.21" points="201.96,-121.49 195.89,-112.81 195.22,-123.38 201.96,-121.49"/>
</g>
<!-- &#45;15&#45;&gt;2714 -->
<g id="edge17" class="edge">
<title>&#45;15&#45;&gt;2714</title>
<path fill="none" stroke="green" stroke-width="0.31" stroke-dasharray="1,5" d="M218.78,-163.51C222.94,-158.46 228.85,-152.44 235.51,-149.07 330.97,-100.79 368.37,-132.87 473.51,-113.07 496.49,-108.75 522.18,-102.94 542.02,-98.24"/>
<polygon fill="green" stroke="green" stroke-width="0.31" points="542.75,-101.66 551.66,-95.93 541.12,-94.85 542.75,-101.66"/>
</g>
<!-- &#45;16 -->
<g id="node16" class="node">
<title>&#45;16</title>
<polygon fill="lightgray" stroke="black" points="272.51,-182.37 244.51,-182.37 244.51,-163.87 272.51,-163.87 272.51,-182.37"/>
<text text-anchor="middle" x="258.51" y="-169.82" font-family="Times,serif" font-size="9.00">&#45;16</text>
</g>
<!-- &#45;16&#45;&gt;2712 -->
<g id="edge15" class="edge">
<title>&#45;16&#45;&gt;2712</title>
<path fill="none" stroke="green" stroke-width="0.65" stroke-dasharray="1,5" d="M251.38,-163.64C242.06,-152.55 225.29,-132.6 211.56,-116.26"/>
<polygon fill="green" stroke="green" stroke-width="0.65" points="214.46,-114.28 205.34,-108.87 209.1,-118.78 214.46,-114.28"/>
</g>
<!-- &#45;16&#45;&gt;2714 -->
<g id="edge12" class="edge">
<title>&#45;16&#45;&gt;2714</title>
<path fill="none" stroke="red" stroke-width="0.32" stroke-dasharray="1,5" d="M264.82,-163.59C269,-158.58 274.91,-152.56 281.51,-149.07 358.28,-108.53 388.48,-130.64 473.51,-113.07 496.41,-108.34 522.1,-102.54 541.97,-97.94"/>
<polygon fill="red" stroke="red" stroke-width="0.32" points="542.64,-101.37 551.58,-95.7 541.05,-94.56 542.64,-101.37"/>
</g>
<!-- &#45;17 -->
<g id="node17" class="node">
<title>&#45;17</title>
<polygon fill="lightgray" stroke="black" points="682.51,-182.37 654.51,-182.37 654.51,-163.87 682.51,-163.87 682.51,-182.37"/>
<text text-anchor="middle" x="668.51" y="-169.82" font-family="Times,serif" font-size="9.00">&#45;17</text>
</g>
<!-- &#45;17&#45;&gt;2714 -->
<g id="edge8" class="edge">
<title>&#45;17&#45;&gt;2714</title>
<path fill="none" stroke="red" stroke-width="0.12" stroke-dasharray="1,5" d="M660.16,-163.4C655.87,-159.02 650.5,-153.67 645.51,-149.07 631.45,-136.15 615.18,-122.36 601.87,-111.36"/>
<polygon fill="red" stroke="red" stroke-width="0.12" points="604.1,-108.67 594.15,-105.03 599.66,-114.08 604.1,-108.67"/>
</g>
<!-- &#45;18 -->
<g id="node18" class="node">
<title>&#45;18</title>
<polygon fill="lightgray" stroke="black" points="896.51,-182.37 868.51,-182.37 868.51,-163.87 896.51,-163.87 896.51,-182.37"/>
<text text-anchor="middle" x="882.51" y="-169.82" font-family="Times,serif" font-size="9.00">&#45;18</text>
</g>
<!-- &#45;18&#45;&gt;2715 -->
<g id="edge40" class="edge">
<title>&#45;18&#45;&gt;2715</title>
<path fill="none" stroke="green" stroke-width="0.12" stroke-dasharray="1,5" d="M874.91,-163.45C870.64,-158.87 865.07,-153.34 859.51,-149.07 836.7,-131.61 808.19,-115.66 786.96,-104.76"/>
<polygon fill="green" stroke="green" stroke-width="0.12" points="788.71,-101.72 778.21,-100.34 785.56,-107.97 788.71,-101.72"/>
</g>
<!-- &#45;19 -->
<g id="node19" class="node">
<title>&#45;19</title>
<polygon fill="lightgray" stroke="black" points="88.51,-182.37 60.51,-182.37 60.51,-163.87 88.51,-163.87 88.51,-182.37"/>
<text text-anchor="middle" x="74.51" y="-169.82" font-family="Times,serif" font-size="9.00">&#45;19</text>
</g>
<!-- &#45;19&#45;&gt;2712 -->
<g id="edge3" class="edge">
<title>&#45;19&#45;&gt;2712</title>
<path fill="none" stroke="green" stroke-width="0.74" d="M82.19,-163.56C86.48,-159.02 92.05,-153.47 97.51,-149.07 116.92,-133.43 140.64,-118.29 159.13,-107.26"/>
<polygon fill="green" stroke="green" stroke-width="0.74" points="160.72,-110.39 167.57,-102.3 157.17,-104.35 160.72,-110.39"/>
</g>
<!-- &#45;20 -->
<g id="node20" class="node">
<title>&#45;20</title>
<polygon fill="lightgray" stroke="black" points="134.51,-182.37 106.51,-182.37 106.51,-163.87 134.51,-163.87 134.51,-182.37"/>
<text text-anchor="middle" x="120.51" y="-169.82" font-family="Times,serif" font-size="9.00">&#45;20</text>
</g>
<!-- &#45;20&#45;&gt;2712 -->
<g id="edge9" class="edge">
<title>&#45;20&#45;&gt;2712</title>
<path fill="none" stroke="green" stroke-width="0.17" stroke-dasharray="1,5" d="M127.63,-163.64C137.04,-152.45 154.03,-132.23 167.83,-115.82"/>
<polygon fill="green" stroke="green" stroke-width="0.17" points="170.38,-118.23 174.13,-108.32 165.02,-113.72 170.38,-118.23"/>
</g>
<!-- 0 -->
<g id="node21" class="node">
<title>0</title>
<ellipse fill="lightblue" stroke="black" cx="440.51" cy="-14.5" rx="14.5" ry="14.5"/>
<text text-anchor="middle" x="440.51" y="-11.2" font-family="Times,serif" font-size="9.00">0</text>
</g>
<!-- 1 -->
<g id="node22" class="node">
<title>1</title>
<ellipse fill="lightblue" stroke="black" cx="500.51" cy="-14.5" rx="14.5" ry="14.5"/>
<text text-anchor="middle" x="500.51" y="-11.2" font-family="Times,serif" font-size="9.00">1</text>
</g>
<!-- 1&#45;&gt;1 -->
<g id="edge27" class="edge">
<title>1&#45;&gt;1</title>
<path fill="none" stroke="green" stroke-width="1.07" stroke-dasharray="1,5" d="M510.49,-25.19C521.07,-31.89 533,-28.33 533,-14.5 533,-5.42 527.86,-0.76 521.34,-0.53"/>
<polygon fill="green" stroke="green" stroke-width="1.07" points="520.61,2.91 512.05,-3.33 522.63,-3.8 520.61,2.91"/>
</g>
<!-- 2 -->
<g id="node23" class="node">
<title>2</title>
<ellipse fill="lightblue" stroke="black" cx="571.51" cy="-14.5" rx="14.5" ry="14.5"/>
<text text-anchor="middle" x="571.51" y="-11.2" font-family="Times,serif" font-size="9.00">2</text>
</g>
<!-- 2&#45;&gt;2 -->
<g id="edge2" class="edge">
<title>2&#45;&gt;2</title>
<path fill="none" stroke="red" stroke-width="0.22" stroke-dasharray="1,5" d="M581.49,-25.19C592.07,-31.89 604,-28.33 604,-14.5 604,-4.77 598.1,-0.12 590.92,-0.55"/>
<polygon fill="red" stroke="red" stroke-width="0.22" points="590.12,2.88 581.81,-3.69 592.4,-3.74 590.12,2.88"/>
</g>
<!-- 3 -->
<g id="node24" class="node">
<title>3</title>
<ellipse fill="lightblue" stroke="black" cx="636.51" cy="-14.5" rx="14.5" ry="14.5"/>
<text text-anchor="middle" x="636.51" y="-11.2" font-family="Times,serif" font-size="9.00">3</text>
</g>
<!-- 3522&#45;&gt;2715 -->
<g id="edge49" class="edge">
<title>3522&#45;&gt;2715</title>
<path fill="none" stroke="red" stroke-width="0.41" d="M898.94,-235.81C910.15,-212.78 923.21,-175.13 905.51,-149.07 880,-111.53 826.5,-97.86 791.04,-92.88"/>
<polygon fill="red" stroke="red" stroke-width="0.41" points="791.63,-89.43 781.27,-91.68 790.77,-96.38 791.63,-89.43"/>
</g>
<!-- 2712&#45;&gt;0 -->
<g id="edge37" class="edge">
<title>2712&#45;&gt;0</title>
<path fill="none" stroke="red" stroke-width="0.31" stroke-dasharray="1,5" d="M212.67,-81.34C260.28,-67.58 368.71,-36.25 416.79,-22.35"/>
<polygon fill="red" stroke="red" stroke-width="0.31" points="417.52,-25.78 426.16,-19.64 415.58,-19.06 417.52,-25.78"/>
</g>
<!-- 2712&#45;&gt;4 -->
<g id="edge30" class="edge">
<title>2712&#45;&gt;4</title>
<path fill="none" stroke="green" stroke-width="0.24" stroke-dasharray="1,5" d="M209.54,-75.4C230.39,-62.24 262.89,-41.75 283.94,-28.47"/>
<polygon fill="green" stroke="green" stroke-width="0.24" points="285.56,-31.58 292.15,-23.29 281.83,-25.66 285.56,-31.58"/>
</g>
<!-- 2713&#45;&gt;0 -->
<g id="edge38" class="edge">
<title>2713&#45;&gt;0</title>
<path fill="none" stroke="green" stroke-width="0.16" stroke-dasharray="1,5" d="M440.51,-64.68C440.51,-56.5 440.51,-47.32 440.51,-39.12"/>
<polygon fill="green" stroke="green" stroke-width="0.16" points="444.01,-39.32 440.51,-29.32 437.01,-39.32 444.01,-39.32"/>
</g>
<!-- 2713&#45;&gt;1 -->
<g id="edge5" class="edge">
<title>2713&#45;&gt;1</title>
<path fill="none" stroke="green" stroke-width="0.73" stroke-dasharray="1,5" d="M455.65,-69.73C464.54,-58.97 475.77,-45.4 484.77,-34.52"/>
<polygon fill="green" stroke="green" stroke-width="0.73" points="487.32,-36.93 491,-26.99 481.93,-32.47 487.32,-36.93"/>
</g>
<!-- 2714&#45;&gt;1 -->
<g id="edge10" class="edge">
<title>2714&#45;&gt;1</title>
<path fill="none" stroke="red" stroke-width="0.16" d="M558.49,-71.57C546.43,-59.91 530.31,-44.32 518.12,-32.53"/>
<polygon fill="red" stroke="red" stroke-width="0.16" points="520.57,-30.03 510.94,-25.59 515.7,-35.06 520.57,-30.03"/>
</g>
<!-- 2714&#45;&gt;2 -->
<g id="edge31" class="edge">
<title>2714&#45;&gt;2</title>
<path fill="none" stroke="red" stroke-width="0.19" stroke-dasharray="1,5" d="M574.22,-64.68C573.77,-56.5 573.26,-47.32 572.81,-39.12"/>
<polygon fill="red" stroke="red" stroke-width="0.19" points="576.32,-39.15 572.27,-29.36 569.33,-39.54 576.32,-39.15"/>
</g>
<!-- 2714&#45;&gt;3 -->
<g id="edge39" class="edge">
<title>2714&#45;&gt;3</title>
<path fill="none" stroke="red" stroke-width="0.12" d="M590.59,-70.1C599.9,-59.03 611.81,-44.86 621.17,-33.73"/>
<polygon fill="red" stroke="red" stroke-width="0.12" points="623.58,-36.3 627.34,-26.4 618.22,-31.8 623.58,-36.3"/>
</g>
<!-- 2714&#45;&gt;2714 -->
<g id="edge25" class="edge">
<title>2714&#45;&gt;2714</title>
<path fill="none" stroke="green" stroke-width="0.13" stroke-dasharray="1,5" d="M595.84,-102.34C607.14,-104.82 617.55,-100.39 617.55,-89.03 617.55,-81.23 612.63,-76.69 605.88,-75.42"/>
<polygon fill="green" stroke="green" stroke-width="0.13" points="605.93,-71.92 596.04,-75.72 606.14,-78.92 605.93,-71.92"/>
</g>
<!-- 2715&#45;&gt;0 -->
<g id="edge14" class="edge">
<title>2715&#45;&gt;0</title>
<path fill="none" stroke="red" stroke-width="0.22" d="M732.71,-84.17C684.2,-76.03 570.55,-55.66 477.51,-28.99 472.87,-27.66 467.98,-26.04 463.33,-24.39"/>
<polygon fill="red" stroke="red" stroke-width="0.22" points="464.63,-21.14 454.03,-20.95 462.19,-27.7 464.63,-21.14"/>
</g>
<!-- 2715&#45;&gt;4 -->
<g id="edge36" class="edge">
<title>2715&#45;&gt;4</title>
<path fill="none" stroke="green" stroke-width="0.69" d="M732.57,-83.62C706.51,-78.86 663.59,-71.13 626.51,-64.99 516.04,-46.71 383.86,-27.1 329.61,-19.15"/>
<polygon fill="green" stroke="green" stroke-width="0.69" points="330.41,-15.73 320,-17.75 329.39,-22.66 330.41,-15.73"/>
</g>
<!-- 3103&#45;&gt;2970 -->
<g id="edge46" class="edge">
<title>3103&#45;&gt;2970</title>
<path fill="none" stroke="green" stroke-width="0.22" d="M459.4,-233.77C456.71,-225.26 453.59,-215.41 450.66,-206.18"/>
<polygon fill="green" stroke="green" stroke-width="0.22" points="454.06,-205.32 447.7,-196.84 447.39,-207.43 454.06,-205.32"/>
</g>
<!-- 2970&#45;&gt;2713 -->
<g id="edge44" class="edge">
<title>2970&#45;&gt;2713</title>
<path fill="none" stroke="red" stroke-width="0.14" d="M440.51,-148.81C440.51,-140.93 440.51,-131.96 440.51,-123.45"/>
<polygon fill="red" stroke="red" stroke-width="0.14" points="444.01,-123.61 440.51,-113.61 437.01,-123.61 444.01,-123.61"/>
</g>
</g>
</svg>
