<?xml version="1.0" encoding="UTF-8" standalone="no"?>
<!DOCTYPE svg PUBLIC "-//W3C//DTD SVG 1.1//EN"
 "http://www.w3.org/Graphics/SVG/1.1/DTD/svg11.dtd">
<!-- Generated by graphviz version 12.1.1 (20240910.0053)
 -->
<!-- Pages: 1 -->
<svg width="874pt" height="241pt"
 viewBox="0.00 0.00 874.00 240.57" xmlns="http://www.w3.org/2000/svg" xmlns:xlink="http://www.w3.org/1999/xlink">
<g id="graph0" class="graph" transform="scale(1 1) rotate(0) translate(4 236.57)">
<polygon fill="white" stroke="none" points="-4,4 -4,-236.57 870,-236.57 870,4 -4,4"/>
<!-- &#45;1 -->
<g id="node1" class="node">
<title>&#45;1</title>
<polygon fill="lightgray" stroke="black" points="249.75,-232.57 226.25,-232.57 226.25,-214.07 249.75,-214.07 249.75,-232.57"/>
<text text-anchor="middle" x="238" y="-220.02" font-family="Times,serif" font-size="9.00">&#45;1</text>
</g>
<!-- 10 -->
<g id="node27" class="node">
<title>10</title>
<ellipse fill="white" stroke="black" cx="239" cy="-160.39" rx="17.68" ry="17.68"/>
<text text-anchor="middle" x="239" y="-157.09" font-family="Times,serif" font-size="9.00">10</text>
</g>
<!-- &#45;1&#45;&gt;10 -->
<g id="edge27" class="edge">
<title>&#45;1&#45;&gt;10</title>
<path fill="none" stroke="green" stroke-width="0.23" d="M238.14,-213.59C238.25,-206.96 238.41,-197.48 238.56,-188.41"/>
<polygon fill="green" stroke="green" stroke-width="0.23" points="242.05,-188.56 238.72,-178.5 235.06,-188.44 242.05,-188.56"/>
</g>
<!-- &#45;2 -->
<g id="node2" class="node">
<title>&#45;2</title>
<polygon fill="lightgray" stroke="black" points="773.75,-232.57 750.25,-232.57 750.25,-214.07 773.75,-214.07 773.75,-232.57"/>
<text text-anchor="middle" x="762" y="-220.02" font-family="Times,serif" font-size="9.00">&#45;2</text>
</g>
<!-- &#45;3 -->
<g id="node3" class="node">
<title>&#45;3</title>
<polygon fill="lightgray" stroke="black" points="333.75,-232.57 310.25,-232.57 310.25,-214.07 333.75,-214.07 333.75,-232.57"/>
<text text-anchor="middle" x="322" y="-220.02" font-family="Times,serif" font-size="9.00">&#45;3</text>
</g>
<!-- 0 -->
<g id="node21" class="node">
<title>0</title>
<ellipse fill="lightblue" stroke="black" cx="268" cy="-14.5" rx="14.5" ry="14.5"/>
<text text-anchor="middle" x="268" y="-11.2" font-family="Times,serif" font-size="9.00">0</text>
</g>
<!-- &#45;3&#45;&gt;0 -->
<g id="edge34" class="edge">
<title>&#45;3&#45;&gt;0</title>
<path fill="none" stroke="green" stroke-width="0.33" stroke-dasharray="1,5" d="M324.44,-213.63C330.86,-189 346.23,-117.14 323,-64.99 316.02,-49.32 301.35,-36.52 288.91,-27.87"/>
<polygon fill="green" stroke="green" stroke-width="0.33" points="291.11,-25.13 280.82,-22.6 287.29,-30.99 291.11,-25.13"/>
</g>
<!-- &#45;3&#45;&gt;10 -->
<g id="edge14" class="edge">
<title>&#45;3&#45;&gt;10</title>
<path fill="none" stroke="green" stroke-width="0.13" stroke-dasharray="1,5" d="M310.11,-213.59C297.4,-204.26 276.96,-189.26 261.25,-177.72"/>
<polygon fill="green" stroke="green" stroke-width="0.13" points="263.38,-174.94 253.24,-171.84 259.23,-180.58 263.38,-174.94"/>
</g>
<!-- 11 -->
<g id="node28" class="node">
<title>11</title>
<ellipse fill="white" stroke="black" cx="473" cy="-160.39" rx="17.68" ry="17.68"/>
<text text-anchor="middle" x="473" y="-157.09" font-family="Times,serif" font-size="9.00">11</text>
</g>
<!-- &#45;3&#45;&gt;11 -->
<g id="edge29" class="edge">
<title>&#45;3&#45;&gt;11</title>
<path fill="none" stroke="red" stroke-width="0.42" stroke-dasharray="1,5" d="M334.1,-217.43C358.48,-207.6 413.97,-185.21 446.96,-171.9"/>
<polygon fill="red" stroke="red" stroke-width="0.42" points="448.25,-175.15 456.22,-168.16 445.63,-168.66 448.25,-175.15"/>
</g>
<!-- 12 -->
<g id="node29" class="node">
<title>12</title>
<ellipse fill="white" stroke="black" cx="100" cy="-160.39" rx="17.68" ry="17.68"/>
<text text-anchor="middle" x="100" y="-157.09" font-family="Times,serif" font-size="9.00">12</text>
</g>
<!-- &#45;3&#45;&gt;12 -->
<g id="edge3" class="edge">
<title>&#45;3&#45;&gt;12</title>
<path fill="none" stroke="green" stroke-width="0.41" d="M310.09,-217.36C307.15,-216.21 303.98,-215.04 301,-214.07 240,-194.17 166.74,-176.49 127.7,-167.55"/>
<polygon fill="green" stroke="green" stroke-width="0.41" points="128.54,-164.16 118.02,-165.36 126.99,-170.98 128.54,-164.16"/>
</g>
<!-- &#45;4 -->
<g id="node4" class="node">
<title>&#45;4</title>
<polygon fill="lightgray" stroke="black" points="643.75,-232.57 620.25,-232.57 620.25,-214.07 643.75,-214.07 643.75,-232.57"/>
<text text-anchor="middle" x="632" y="-220.02" font-family="Times,serif" font-size="9.00">&#45;4</text>
</g>
<!-- &#45;4&#45;&gt;11 -->
<g id="edge11" class="edge">
<title>&#45;4&#45;&gt;11</title>
<path fill="none" stroke="red" stroke-width="0.42" stroke-dasharray="1,5" d="M620.01,-217.58C617.07,-216.43 613.92,-215.2 611,-214.07 572.2,-199.04 527.14,-181.9 499.35,-171.36"/>
<polygon fill="red" stroke="red" stroke-width="0.42" points="500.78,-168.16 490.19,-167.89 498.3,-174.71 500.78,-168.16"/>
</g>
<!-- &#45;5 -->
<g id="node5" class="node">
<title>&#45;5</title>
<polygon fill="lightgray" stroke="black" points="69.75,-232.57 46.25,-232.57 46.25,-214.07 69.75,-214.07 69.75,-232.57"/>
<text text-anchor="middle" x="58" y="-220.02" font-family="Times,serif" font-size="9.00">&#45;5</text>
</g>
<!-- &#45;5&#45;&gt;12 -->
<g id="edge15" class="edge">
<title>&#45;5&#45;&gt;12</title>
<path fill="none" stroke="red" stroke-width="0.56" d="M64.02,-213.59C69.3,-205.93 77.21,-194.45 84.28,-184.2"/>
<polygon fill="red" stroke="red" stroke-width="0.56" points="87.15,-186.2 89.94,-175.98 81.39,-182.22 87.15,-186.2"/>
</g>
<!-- &#45;6 -->
<g id="node6" class="node">
<title>&#45;6</title>
<polygon fill="lightgray" stroke="black" points="375.75,-232.57 352.25,-232.57 352.25,-214.07 375.75,-214.07 375.75,-232.57"/>
<text text-anchor="middle" x="364" y="-220.02" font-family="Times,serif" font-size="9.00">&#45;6</text>
</g>
<!-- 4 -->
<g id="node25" class="node">
<title>4</title>
<ellipse fill="lightblue" stroke="black" cx="444" cy="-85.85" rx="14.5" ry="14.5"/>
<text text-anchor="middle" x="444" y="-82.55" font-family="Times,serif" font-size="9.00">4</text>
</g>
<!-- &#45;6&#45;&gt;4 -->
<g id="edge41" class="edge">
<title>&#45;6&#45;&gt;4</title>
<path fill="none" stroke="green" stroke-width="0.31" d="M369,-213.84C381.41,-192.83 413.88,-137.85 431.76,-107.58"/>
<polygon fill="green" stroke="green" stroke-width="0.31" points="434.7,-109.48 436.77,-99.09 428.67,-105.92 434.7,-109.48"/>
</g>
<!-- &#45;6&#45;&gt;10 -->
<g id="edge22" class="edge">
<title>&#45;6&#45;&gt;10</title>
<path fill="none" stroke="green" stroke-width="0.34" d="M352.01,-216.47C331.77,-206.61 290.4,-186.44 263.73,-173.44"/>
<polygon fill="green" stroke="green" stroke-width="0.34" points="265.61,-170.46 255.09,-169.23 262.54,-176.76 265.61,-170.46"/>
</g>
<!-- &#45;6&#45;&gt;11 -->
<g id="edge31" class="edge">
<title>&#45;6&#45;&gt;11</title>
<path fill="none" stroke="green" stroke-width="0.81" d="M376.08,-215.56C393.39,-205.89 425.62,-187.87 448.14,-175.28"/>
<polygon fill="green" stroke="green" stroke-width="0.81" points="449.63,-178.46 456.65,-170.53 446.21,-172.35 449.63,-178.46"/>
</g>
<!-- &#45;7 -->
<g id="node7" class="node">
<title>&#45;7</title>
<polygon fill="lightgray" stroke="black" points="417.75,-232.57 394.25,-232.57 394.25,-214.07 417.75,-214.07 417.75,-232.57"/>
<text text-anchor="middle" x="406" y="-220.02" font-family="Times,serif" font-size="9.00">&#45;7</text>
</g>
<!-- &#45;7&#45;&gt;10 -->
<g id="edge24" class="edge">
<title>&#45;7&#45;&gt;10</title>
<path fill="none" stroke="green" stroke-width="0.24" d="M394.03,-217.55C391.08,-216.39 387.93,-215.17 385,-214.07 343.27,-198.34 294.48,-180.94 265.2,-170.59"/>
<polygon fill="green" stroke="green" stroke-width="0.24" points="266.63,-167.38 256.03,-167.36 264.3,-173.99 266.63,-167.38"/>
</g>
<!-- &#45;7&#45;&gt;11 -->
<g id="edge5" class="edge">
<title>&#45;7&#45;&gt;11</title>
<path fill="none" stroke="red" stroke-width="0.16" d="M415.6,-213.59C425.31,-204.76 440.6,-190.85 452.97,-179.61"/>
<polygon fill="red" stroke="red" stroke-width="0.16" points="454.98,-182.5 460.03,-173.18 450.27,-177.32 454.98,-182.5"/>
</g>
<!-- &#45;8 -->
<g id="node8" class="node">
<title>&#45;8</title>
<polygon fill="lightgray" stroke="black" points="291.75,-232.57 268.25,-232.57 268.25,-214.07 291.75,-214.07 291.75,-232.57"/>
<text text-anchor="middle" x="280" y="-220.02" font-family="Times,serif" font-size="9.00">&#45;8</text>
</g>
<!-- &#45;8&#45;&gt;11 -->
<g id="edge17" class="edge">
<title>&#45;8&#45;&gt;11</title>
<path fill="none" stroke="red" stroke-width="0.17" stroke-dasharray="1,5" d="M291.93,-217.44C294.88,-216.29 298.04,-215.1 301,-214.07 352.04,-196.25 412.69,-178.45 446.62,-168.78"/>
<polygon fill="red" stroke="red" stroke-width="0.17" points="447.35,-172.21 456.01,-166.12 445.44,-165.48 447.35,-172.21"/>
</g>
<!-- &#45;8&#45;&gt;12 -->
<g id="edge26" class="edge">
<title>&#45;8&#45;&gt;12</title>
<path fill="none" stroke="red" stroke-width="0.32" d="M268.05,-217.49C265.1,-216.34 261.95,-215.13 259,-214.07 212.81,-197.36 158.36,-179.76 126.65,-169.73"/>
<polygon fill="red" stroke="red" stroke-width="0.32" points="127.87,-166.44 117.28,-166.77 125.76,-173.12 127.87,-166.44"/>
</g>
<!-- 247 -->
<g id="node30" class="node">
<title>247</title>
<ellipse fill="white" stroke="black" cx="293" cy="-85.85" rx="20.86" ry="20.86"/>
<text text-anchor="middle" x="293" y="-82.55" font-family="Times,serif" font-size="9.00">247</text>
</g>
<!-- &#45;8&#45;&gt;247 -->
<g id="edge42" class="edge">
<title>&#45;8&#45;&gt;247</title>
<path fill="none" stroke="green" stroke-width="0.44" stroke-dasharray="1,5" d="M280.81,-213.84C282.63,-194.88 287.11,-148.24 290.1,-117.08"/>
<polygon fill="green" stroke="green" stroke-width="0.44" points="293.55,-117.71 291.03,-107.43 286.59,-117.05 293.55,-117.71"/>
</g>
<!-- &#45;9 -->
<g id="node9" class="node">
<title>&#45;9</title>
<polygon fill="lightgray" stroke="black" points="685.75,-232.57 662.25,-232.57 662.25,-214.07 685.75,-214.07 685.75,-232.57"/>
<text text-anchor="middle" x="674" y="-220.02" font-family="Times,serif" font-size="9.00">&#45;9</text>
</g>
<!-- &#45;9&#45;&gt;11 -->
<g id="edge28" class="edge">
<title>&#45;9&#45;&gt;11</title>
<path fill="none" stroke="red" stroke-width="0.31" stroke-dasharray="1,5" d="M662.07,-217.42C659.13,-216.27 655.97,-215.08 653,-214.07 599.53,-195.78 535.83,-178.08 500.35,-168.57"/>
<polygon fill="red" stroke="red" stroke-width="0.31" points="501.3,-165.2 490.74,-166.01 499.5,-171.97 501.3,-165.2"/>
</g>
<!-- &#45;10 -->
<g id="node10" class="node">
<title>&#45;10</title>
<polygon fill="lightgray" stroke="black" points="732,-232.57 704,-232.57 704,-214.07 732,-214.07 732,-232.57"/>
<text text-anchor="middle" x="718" y="-220.02" font-family="Times,serif" font-size="9.00">&#45;10</text>
</g>
<!-- &#45;10&#45;&gt;11 -->
<g id="edge6" class="edge">
<title>&#45;10&#45;&gt;11</title>
<path fill="none" stroke="red" stroke-width="0.13" d="M703.97,-217C701.03,-215.97 697.93,-214.94 695,-214.07 625.69,-193.48 542.35,-175.47 500.23,-166.83"/>
<polygon fill="red" stroke="red" stroke-width="0.13" points="501.14,-163.44 490.64,-164.88 499.74,-170.3 501.14,-163.44"/>
</g>
<!-- &#45;11 -->
<g id="node11" class="node">
<title>&#45;11</title>
<polygon fill="lightgray" stroke="black" points="162,-232.57 134,-232.57 134,-214.07 162,-214.07 162,-232.57"/>
<text text-anchor="middle" x="148" y="-220.02" font-family="Times,serif" font-size="9.00">&#45;11</text>
</g>
<!-- &#45;11&#45;&gt;10 -->
<g id="edge8" class="edge">
<title>&#45;11&#45;&gt;10</title>
<path fill="none" stroke="green" stroke-width="0.24" stroke-dasharray="1,5" d="M161.04,-213.59C175.35,-204 198.61,-188.43 216,-176.79"/>
<polygon fill="green" stroke="green" stroke-width="0.24" points="217.82,-179.78 224.18,-171.31 213.92,-173.97 217.82,-179.78"/>
</g>
<!-- &#45;11&#45;&gt;12 -->
<g id="edge25" class="edge">
<title>&#45;11&#45;&gt;12</title>
<path fill="none" stroke="green" stroke-width="0.66" stroke-dasharray="1,5" d="M141.12,-213.59C134.89,-205.67 125.43,-193.66 117.15,-183.16"/>
<polygon fill="green" stroke="green" stroke-width="0.66" points="120.14,-181.29 111.2,-175.6 114.64,-185.62 120.14,-181.29"/>
</g>
<!-- &#45;12 -->
<g id="node12" class="node">
<title>&#45;12</title>
<polygon fill="lightgray" stroke="black" points="820,-232.57 792,-232.57 792,-214.07 820,-214.07 820,-232.57"/>
<text text-anchor="middle" x="806" y="-220.02" font-family="Times,serif" font-size="9.00">&#45;12</text>
</g>
<!-- &#45;13 -->
<g id="node13" class="node">
<title>&#45;13</title>
<polygon fill="lightgray" stroke="black" points="464,-232.57 436,-232.57 436,-214.07 464,-214.07 464,-232.57"/>
<text text-anchor="middle" x="450" y="-220.02" font-family="Times,serif" font-size="9.00">&#45;13</text>
</g>
<!-- &#45;13&#45;&gt;11 -->
<g id="edge16" class="edge">
<title>&#45;13&#45;&gt;11</title>
<path fill="none" stroke="green" stroke-width="0.19" d="M453.3,-213.59C455.95,-206.55 459.82,-196.29 463.43,-186.73"/>
<polygon fill="green" stroke="green" stroke-width="0.19" points="466.68,-188.04 466.94,-177.45 460.13,-185.57 466.68,-188.04"/>
</g>
<!-- &#45;14 -->
<g id="node14" class="node">
<title>&#45;14</title>
<polygon fill="lightgray" stroke="black" points="866,-232.57 838,-232.57 838,-214.07 866,-214.07 866,-232.57"/>
<text text-anchor="middle" x="852" y="-220.02" font-family="Times,serif" font-size="9.00">&#45;14</text>
</g>
<!-- &#45;15 -->
<g id="node15" class="node">
<title>&#45;15</title>
<polygon fill="lightgray" stroke="black" points="208,-232.57 180,-232.57 180,-214.07 208,-214.07 208,-232.57"/>
<text text-anchor="middle" x="194" y="-220.02" font-family="Times,serif" font-size="9.00">&#45;15</text>
</g>
<!-- 231 -->
<g id="node26" class="node">
<title>231</title>
<ellipse fill="white" stroke="black" cx="195" cy="-85.85" rx="20.86" ry="20.86"/>
<text text-anchor="middle" x="195" y="-82.55" font-family="Times,serif" font-size="9.00">231</text>
</g>
<!-- &#45;15&#45;&gt;231 -->
<g id="edge35" class="edge">
<title>&#45;15&#45;&gt;231</title>
<path fill="none" stroke="red" stroke-width="0.13" stroke-dasharray="1,5" d="M194.06,-213.84C194.2,-194.8 194.55,-147.83 194.78,-116.67"/>
<polygon fill="red" stroke="red" stroke-width="0.13" points="198.28,-116.99 194.85,-106.96 191.28,-116.94 198.28,-116.99"/>
</g>
<!-- &#45;15&#45;&gt;10 -->
<g id="edge9" class="edge">
<title>&#45;15&#45;&gt;10</title>
<path fill="none" stroke="green" stroke-width="0.52" stroke-dasharray="1,5" d="M200.45,-213.59C206.16,-205.85 214.76,-194.21 222.38,-183.89"/>
<polygon fill="green" stroke="green" stroke-width="0.52" points="225.15,-186.04 228.27,-175.91 219.52,-181.88 225.15,-186.04"/>
</g>
<!-- &#45;16 -->
<g id="node16" class="node">
<title>&#45;16</title>
<polygon fill="lightgray" stroke="black" points="28,-232.57 0,-232.57 0,-214.07 28,-214.07 28,-232.57"/>
<text text-anchor="middle" x="14" y="-220.02" font-family="Times,serif" font-size="9.00">&#45;16</text>
</g>
<!-- &#45;16&#45;&gt;12 -->
<g id="edge13" class="edge">
<title>&#45;16&#45;&gt;12</title>
<path fill="none" stroke="green" stroke-width="0.18" stroke-dasharray="1,5" d="M26.32,-213.59C39.69,-204.12 61.31,-188.8 77.68,-177.2"/>
<polygon fill="green" stroke="green" stroke-width="0.18" points="79.34,-180.31 85.48,-171.68 75.29,-174.6 79.34,-180.31"/>
</g>
<!-- &#45;17 -->
<g id="node17" class="node">
<title>&#45;17</title>
<polygon fill="lightgray" stroke="black" points="510,-232.57 482,-232.57 482,-214.07 510,-214.07 510,-232.57"/>
<text text-anchor="middle" x="496" y="-220.02" font-family="Times,serif" font-size="9.00">&#45;17</text>
</g>
<!-- &#45;17&#45;&gt;11 -->
<g id="edge30" class="edge">
<title>&#45;17&#45;&gt;11</title>
<path fill="none" stroke="red" stroke-width="0.63" stroke-dasharray="1,5" d="M492.7,-213.59C490.11,-206.7 486.34,-196.73 482.79,-187.34"/>
<polygon fill="red" stroke="red" stroke-width="0.63" points="486.1,-186.18 479.29,-178.06 479.55,-188.65 486.1,-186.18"/>
</g>
<!-- &#45;18 -->
<g id="node18" class="node">
<title>&#45;18</title>
<polygon fill="lightgray" stroke="black" points="556,-232.57 528,-232.57 528,-214.07 556,-214.07 556,-232.57"/>
<text text-anchor="middle" x="542" y="-220.02" font-family="Times,serif" font-size="9.00">&#45;18</text>
</g>
<!-- &#45;18&#45;&gt;11 -->
<g id="edge19" class="edge">
<title>&#45;18&#45;&gt;11</title>
<path fill="none" stroke="green" stroke-width="0.15" d="M532.11,-213.59C521.99,-204.65 505.97,-190.5 493.16,-179.19"/>
<polygon fill="green" stroke="green" stroke-width="0.15" points="495.66,-176.73 485.85,-172.73 491.03,-181.98 495.66,-176.73"/>
</g>
<!-- &#45;19 -->
<g id="node19" class="node">
<title>&#45;19</title>
<polygon fill="lightgray" stroke="black" points="116,-232.57 88,-232.57 88,-214.07 116,-214.07 116,-232.57"/>
<text text-anchor="middle" x="102" y="-220.02" font-family="Times,serif" font-size="9.00">&#45;19</text>
</g>
<!-- &#45;19&#45;&gt;10 -->
<g id="edge2" class="edge">
<title>&#45;19&#45;&gt;10</title>
<path fill="none" stroke="green" stroke-width="0.26" d="M116.4,-215.91C139.51,-205.63 185.16,-185.33 213.77,-172.61"/>
<polygon fill="green" stroke="green" stroke-width="0.26" points="215.04,-175.88 222.75,-168.61 212.19,-169.48 215.04,-175.88"/>
</g>
<!-- &#45;19&#45;&gt;12 -->
<g id="edge32" class="edge">
<title>&#45;19&#45;&gt;12</title>
<path fill="none" stroke="red" stroke-width="0.42" d="M101.71,-213.59C101.5,-207.04 101.19,-197.69 100.9,-188.71"/>
<polygon fill="red" stroke="red" stroke-width="0.42" points="104.4,-188.67 100.57,-178.79 97.4,-188.9 104.4,-188.67"/>
</g>
<!-- &#45;20 -->
<g id="node20" class="node">
<title>&#45;20</title>
<polygon fill="lightgray" stroke="black" points="602,-232.57 574,-232.57 574,-214.07 602,-214.07 602,-232.57"/>
<text text-anchor="middle" x="588" y="-220.02" font-family="Times,serif" font-size="9.00">&#45;20</text>
</g>
<!-- &#45;20&#45;&gt;11 -->
<g id="edge1" class="edge">
<title>&#45;20&#45;&gt;11</title>
<path fill="none" stroke="green" stroke-width="0.34" d="M573.9,-214.85C554.9,-204.78 520.79,-186.71 497.54,-174.39"/>
<polygon fill="green" stroke="green" stroke-width="0.34" points="499.25,-171.33 488.77,-169.74 495.97,-177.52 499.25,-171.33"/>
</g>
<!-- 1 -->
<g id="node22" class="node">
<title>1</title>
<ellipse fill="lightblue" stroke="black" cx="95" cy="-85.85" rx="14.5" ry="14.5"/>
<text text-anchor="middle" x="95" y="-82.55" font-family="Times,serif" font-size="9.00">1</text>
</g>
<!-- 2 -->
<g id="node23" class="node">
<title>2</title>
<ellipse fill="lightblue" stroke="black" cx="142" cy="-85.85" rx="14.5" ry="14.5"/>
<text text-anchor="middle" x="142" y="-82.55" font-family="Times,serif" font-size="9.00">2</text>
</g>
<!-- 3 -->
<g id="node24" class="node">
<title>3</title>
<ellipse fill="lightblue" stroke="black" cx="48" cy="-85.85" rx="14.5" ry="14.5"/>
<text text-anchor="middle" x="48" y="-82.55" font-family="Times,serif" font-size="9.00">3</text>
</g>
<!-- 4&#45;&gt;4 -->
<g id="edge18" class="edge">
<title>4&#45;&gt;4</title>
<path fill="none" stroke="green" stroke-width="0.23" d="M454.32,-96.29C464.81,-102.43 476.5,-98.95 476.5,-85.85 476.5,-76.84 470.97,-72.39 464.11,-72.47"/>
<polygon fill="green" stroke="green" stroke-width="0.23" points="463.23,-69.08 454.65,-75.31 465.24,-75.79 463.23,-69.08"/>
</g>
<!-- 231&#45;&gt;10 -->
<g id="edge36" class="edge">
<title>231&#45;&gt;10</title>
<path fill="none" stroke="red" stroke-width="0.73" d="M209.27,-101.28C215.97,-110.38 223.6,-122.41 229.6,-133.15"/>
<polygon fill="red" stroke="red" stroke-width="0.73" points="226.49,-134.75 234.26,-141.95 232.67,-131.48 226.49,-134.75"/>
</g>
<!-- 10&#45;&gt;0 -->
<g id="edge20" class="edge">
<title>10&#45;&gt;0</title>
<path fill="none" stroke="red" stroke-width="0.45" stroke-dasharray="1,5" d="M242.38,-142.6C247.52,-117.09 257.32,-68.47 263.2,-39.32"/>
<polygon fill="red" stroke="red" stroke-width="0.45" points="266.56,-40.34 265.11,-29.85 259.7,-38.96 266.56,-40.34"/>
</g>
<!-- 10&#45;&gt;2 -->
<g id="edge4" class="edge">
<title>10&#45;&gt;2</title>
<path fill="none" stroke="green" stroke-width="0.35" d="M224.52,-149.68C209.39,-139.39 185.1,-122.48 165,-106.71 163.44,-105.49 161.85,-104.2 160.26,-102.89"/>
<polygon fill="green" stroke="green" stroke-width="0.35" points="162.87,-100.51 152.99,-96.7 158.34,-105.85 162.87,-100.51"/>
</g>
<!-- 10&#45;&gt;231 -->
<g id="edge37" class="edge">
<title>10&#45;&gt;231</title>
<path fill="none" stroke="red" stroke-width="0.41" d="M226.57,-147.41C219.89,-138.67 212,-126.45 205.63,-115.27"/>
<polygon fill="red" stroke="red" stroke-width="0.41" points="208.86,-113.88 201,-106.77 202.71,-117.23 208.86,-113.88"/>
</g>
<!-- 10&#45;&gt;247 -->
<g id="edge38" class="edge">
<title>10&#45;&gt;247</title>
<path fill="none" stroke="red" stroke-width="0.24" d="M249.16,-145.74C256.38,-136.04 266.29,-122.72 274.86,-111.21"/>
<polygon fill="red" stroke="red" stroke-width="0.24" points="277.43,-113.63 280.59,-103.52 271.81,-109.45 277.43,-113.63"/>
</g>
<!-- 11&#45;&gt;4 -->
<g id="edge33" class="edge">
<title>11&#45;&gt;4</title>
<path fill="none" stroke="red" stroke-width="0.21" stroke-dasharray="1,5" d="M466.71,-143.65C462.68,-133.57 457.39,-120.33 452.92,-109.17"/>
<polygon fill="red" stroke="red" stroke-width="0.21" points="456.2,-107.94 449.24,-99.95 449.7,-110.54 456.2,-107.94"/>
</g>
<!-- 11&#45;&gt;11 -->
<g id="edge21" class="edge">
<title>11&#45;&gt;11</title>
<path fill="none" stroke="green" stroke-width="0.23" d="M487.66,-170.92C498.19,-174.34 508.68,-170.84 508.68,-160.39 508.68,-153.37 503.94,-149.48 497.64,-148.73"/>
<polygon fill="green" stroke="green" stroke-width="0.23" points="497.54,-145.21 488,-149.82 498.33,-152.17 497.54,-145.21"/>
</g>
<!-- 12&#45;&gt;0 -->
<g id="edge40" class="edge">
<title>12&#45;&gt;0</title>
<path fill="none" stroke="red" stroke-width="0.62" d="M83.55,-153.26C65.44,-145.52 37.25,-130.29 25,-106.71 16.45,-90.26 13.27,-79.35 25,-64.99 52.27,-31.61 185.57,-20.16 242.33,-16.77"/>
<polygon fill="red" stroke="red" stroke-width="0.62" points="242.48,-20.26 252.27,-16.21 242.09,-13.27 242.48,-20.26"/>
</g>
<!-- 12&#45;&gt;1 -->
<g id="edge7" class="edge">
<title>12&#45;&gt;1</title>
<path fill="none" stroke="green" stroke-width="0.78" d="M98.84,-142.56C98.21,-133.42 97.42,-121.93 96.72,-111.77"/>
<polygon fill="green" stroke="green" stroke-width="0.78" points="100.21,-111.58 96.03,-101.84 93.23,-112.06 100.21,-111.58"/>
</g>
<!-- 12&#45;&gt;2 -->
<g id="edge12" class="edge">
<title>12&#45;&gt;2</title>
<path fill="none" stroke="red" stroke-width="0.59" d="M108.5,-144.71C114.64,-134.1 123.03,-119.62 129.87,-107.8"/>
<polygon fill="red" stroke="red" stroke-width="0.59" points="132.75,-109.82 134.73,-99.41 126.69,-106.31 132.75,-109.82"/>
</g>
<!-- 12&#45;&gt;3 -->
<g id="edge23" class="edge">
<title>12&#45;&gt;3</title>
<path fill="none" stroke="green" stroke-width="0.21" d="M89.97,-145.4C81.99,-134.27 70.74,-118.57 61.89,-106.23"/>
<polygon fill="green" stroke="green" stroke-width="0.21" points="64.81,-104.29 56.14,-98.21 59.12,-108.37 64.81,-104.29"/>
</g>
<!-- 12&#45;&gt;12 -->
<g id="edge10" class="edge">
<title>12&#45;&gt;12</title>
<path fill="none" stroke="green" stroke-width="0.26" stroke-dasharray="1,5" d="M114.66,-170.92C125.19,-174.34 135.68,-170.84 135.68,-160.39 135.68,-153.37 130.94,-149.48 124.64,-148.73"/>
<polygon fill="green" stroke="green" stroke-width="0.26" points="124.59,-145.21 115.05,-149.81 125.38,-152.16 124.59,-145.21"/>
</g>
<!-- 247&#45;&gt;0 -->
<g id="edge39" class="edge">
<title>247&#45;&gt;0</title>
<path fill="none" stroke="red" stroke-width="0.2" stroke-dasharray="1,5" d="M286.17,-65.9C283.06,-57.27 279.36,-47 276.11,-37.99"/>
<polygon fill="red" stroke="red" stroke-width="0.2" points="279.47,-37.01 272.79,-28.79 272.89,-39.38 279.47,-37.01"/>
</g>
</g>
</svg>
