<?xml version="1.0" encoding="UTF-8" standalone="no"?>
<!DOCTYPE svg PUBLIC "-//W3C//DTD SVG 1.1//EN"
 "http://www.w3.org/Graphics/SVG/1.1/DTD/svg11.dtd">
<!-- Generated by graphviz version 12.1.1 (20240910.0053)
 -->
<!-- Pages: 1 -->
<svg width="874pt" height="260pt"
 viewBox="0.00 0.00 873.75 259.66" xmlns="http://www.w3.org/2000/svg" xmlns:xlink="http://www.w3.org/1999/xlink">
<g id="graph0" class="graph" transform="scale(1 1) rotate(0) translate(4 255.66)">
<polygon fill="white" stroke="none" points="-4,4 -4,-255.66 869.75,-255.66 869.75,4 -4,4"/>
<!-- &#45;1 -->
<g id="node1" class="node">
<title>&#45;1</title>
<polygon fill="lightgray" stroke="black" points="203.5,-251.66 180,-251.66 180,-233.16 203.5,-233.16 203.5,-251.66"/>
<text text-anchor="middle" x="191.75" y="-239.11" font-family="Times,serif" font-size="9.00">&#45;1</text>
</g>
<!-- 7696 -->
<g id="node27" class="node">
<title>7696</title>
<ellipse fill="white" stroke="black" cx="275.75" cy="-173.12" rx="24.04" ry="24.04"/>
<text text-anchor="middle" x="275.75" y="-169.82" font-family="Times,serif" font-size="9.00">7696</text>
</g>
<!-- &#45;1&#45;&gt;7696 -->
<g id="edge21" class="edge">
<title>&#45;1&#45;&gt;7696</title>
<path fill="none" stroke="red" stroke-width="0.37" d="M202.39,-232.89C214.12,-223.49 233.43,-208.02 249.29,-195.31"/>
<polygon fill="red" stroke="red" stroke-width="0.37" points="251.16,-198.3 256.78,-189.31 246.79,-192.83 251.16,-198.3"/>
</g>
<!-- 7697 -->
<g id="node28" class="node">
<title>7697</title>
<ellipse fill="white" stroke="black" cx="147.75" cy="-173.12" rx="24.04" ry="24.04"/>
<text text-anchor="middle" x="147.75" y="-169.82" font-family="Times,serif" font-size="9.00">7697</text>
</g>
<!-- &#45;1&#45;&gt;7697 -->
<g id="edge39" class="edge">
<title>&#45;1&#45;&gt;7697</title>
<path fill="none" stroke="red" stroke-width="0.46" stroke-dasharray="1,5" d="M186.18,-232.89C181.19,-225.26 173.59,-213.63 166.46,-202.73"/>
<polygon fill="red" stroke="red" stroke-width="0.46" points="169.43,-200.88 161.03,-194.43 163.57,-204.71 169.43,-200.88"/>
</g>
<!-- 7699 -->
<g id="node30" class="node">
<title>7699</title>
<ellipse fill="white" stroke="black" cx="504.75" cy="-173.12" rx="24.04" ry="24.04"/>
<text text-anchor="middle" x="504.75" y="-169.82" font-family="Times,serif" font-size="9.00">7699</text>
</g>
<!-- &#45;1&#45;&gt;7699 -->
<g id="edge44" class="edge">
<title>&#45;1&#45;&gt;7699</title>
<path fill="none" stroke="green" stroke-width="0.36" d="M203.6,-236.26C206.55,-235.11 209.73,-233.99 212.75,-233.16 306.55,-207.22 333.98,-219.32 428.75,-197.16 443.19,-193.78 458.92,-189.17 472.3,-184.96"/>
<polygon fill="green" stroke="green" stroke-width="0.36" points="473.03,-188.4 481.49,-182.02 470.89,-181.74 473.03,-188.4"/>
</g>
<!-- &#45;2 -->
<g id="node2" class="node">
<title>&#45;2</title>
<polygon fill="lightgray" stroke="black" points="245.5,-251.66 222,-251.66 222,-233.16 245.5,-233.16 245.5,-251.66"/>
<text text-anchor="middle" x="233.75" y="-239.11" font-family="Times,serif" font-size="9.00">&#45;2</text>
</g>
<!-- &#45;2&#45;&gt;7696 -->
<g id="edge16" class="edge">
<title>&#45;2&#45;&gt;7696</title>
<path fill="none" stroke="green" stroke-width="0.1" stroke-dasharray="1,5" d="M239.07,-232.89C243.84,-225.24 251.12,-213.57 257.95,-202.64"/>
<polygon fill="green" stroke="green" stroke-width="0.1" points="260.85,-204.59 263.18,-194.26 254.91,-200.89 260.85,-204.59"/>
</g>
<!-- &#45;3 -->
<g id="node3" class="node">
<title>&#45;3</title>
<polygon fill="lightgray" stroke="black" points="773.5,-251.66 750,-251.66 750,-233.16 773.5,-233.16 773.5,-251.66"/>
<text text-anchor="middle" x="761.75" y="-239.11" font-family="Times,serif" font-size="9.00">&#45;3</text>
</g>
<!-- &#45;4 -->
<g id="node4" class="node">
<title>&#45;4</title>
<polygon fill="lightgray" stroke="black" points="639.5,-251.66 616,-251.66 616,-233.16 639.5,-233.16 639.5,-251.66"/>
<text text-anchor="middle" x="627.75" y="-239.11" font-family="Times,serif" font-size="9.00">&#45;4</text>
</g>
<!-- &#45;4&#45;&gt;7699 -->
<g id="edge11" class="edge">
<title>&#45;4&#45;&gt;7699</title>
<path fill="none" stroke="red" stroke-width="0.12" stroke-dasharray="1,5" d="M615.51,-234.71C596.7,-224.42 560.16,-204.43 534.19,-190.22"/>
<polygon fill="red" stroke="red" stroke-width="0.12" points="536.1,-187.28 525.65,-185.55 532.74,-193.42 536.1,-187.28"/>
</g>
<!-- &#45;5 -->
<g id="node5" class="node">
<title>&#45;5</title>
<polygon fill="lightgray" stroke="black" points="417.5,-251.66 394,-251.66 394,-233.16 417.5,-233.16 417.5,-251.66"/>
<text text-anchor="middle" x="405.75" y="-239.11" font-family="Times,serif" font-size="9.00">&#45;5</text>
</g>
<!-- &#45;5&#45;&gt;7696 -->
<g id="edge7" class="edge">
<title>&#45;5&#45;&gt;7696</title>
<path fill="none" stroke="green" stroke-width="0.35" d="M393.75,-235.2C374.07,-225.01 334.34,-204.44 306.43,-190"/>
<polygon fill="green" stroke="green" stroke-width="0.35" points="308.07,-186.9 297.58,-185.41 304.85,-193.12 308.07,-186.9"/>
</g>
<!-- 7698 -->
<g id="node29" class="node">
<title>7698</title>
<ellipse fill="white" stroke="black" cx="395.75" cy="-173.12" rx="24.04" ry="24.04"/>
<text text-anchor="middle" x="395.75" y="-169.82" font-family="Times,serif" font-size="9.00">7698</text>
</g>
<!-- &#45;5&#45;&gt;7698 -->
<g id="edge22" class="edge">
<title>&#45;5&#45;&gt;7698</title>
<path fill="none" stroke="green" stroke-width="0.13" stroke-dasharray="1,5" d="M404.48,-232.89C403.5,-226.27 402.07,-216.65 400.65,-207.09"/>
<polygon fill="green" stroke="green" stroke-width="0.13" points="404.16,-206.87 399.22,-197.49 397.23,-207.9 404.16,-206.87"/>
</g>
<!-- &#45;5&#45;&gt;7699 -->
<g id="edge26" class="edge">
<title>&#45;5&#45;&gt;7699</title>
<path fill="none" stroke="red" stroke-width="0.12" stroke-dasharray="1,5" d="M417.89,-233.16C432.46,-223.25 457.36,-206.33 476.78,-193.13"/>
<polygon fill="red" stroke="red" stroke-width="0.12" points="478.53,-196.17 484.83,-187.65 474.6,-190.38 478.53,-196.17"/>
</g>
<!-- &#45;6 -->
<g id="node6" class="node">
<title>&#45;6</title>
<polygon fill="lightgray" stroke="black" points="287.5,-251.66 264,-251.66 264,-233.16 287.5,-233.16 287.5,-251.66"/>
<text text-anchor="middle" x="275.75" y="-239.11" font-family="Times,serif" font-size="9.00">&#45;6</text>
</g>
<!-- &#45;6&#45;&gt;7696 -->
<g id="edge38" class="edge">
<title>&#45;6&#45;&gt;7696</title>
<path fill="none" stroke="green" stroke-width="0.12" d="M275.75,-232.89C275.75,-226.39 275.75,-217 275.75,-207.62"/>
<polygon fill="green" stroke="green" stroke-width="0.12" points="279.25,-207.77 275.75,-197.77 272.25,-207.77 279.25,-207.77"/>
</g>
<!-- &#45;7 -->
<g id="node7" class="node">
<title>&#45;7</title>
<polygon fill="lightgray" stroke="black" points="23.5,-251.66 0,-251.66 0,-233.16 23.5,-233.16 23.5,-251.66"/>
<text text-anchor="middle" x="11.75" y="-239.11" font-family="Times,serif" font-size="9.00">&#45;7</text>
</g>
<!-- &#45;7&#45;&gt;7697 -->
<g id="edge15" class="edge">
<title>&#45;7&#45;&gt;7697</title>
<path fill="none" stroke="red" stroke-width="0.25" stroke-dasharray="1,5" d="M23.82,-235.44C44.58,-225.16 87.68,-203.84 117.16,-189.25"/>
<polygon fill="red" stroke="red" stroke-width="0.25" points="118.46,-192.51 125.87,-184.94 115.35,-186.24 118.46,-192.51"/>
</g>
<!-- &#45;8 -->
<g id="node8" class="node">
<title>&#45;8</title>
<polygon fill="lightgray" stroke="black" points="597.5,-251.66 574,-251.66 574,-233.16 597.5,-233.16 597.5,-251.66"/>
<text text-anchor="middle" x="585.75" y="-239.11" font-family="Times,serif" font-size="9.00">&#45;8</text>
</g>
<!-- &#45;8&#45;&gt;7698 -->
<g id="edge24" class="edge">
<title>&#45;8&#45;&gt;7698</title>
<path fill="none" stroke="green" stroke-width="0.19" d="M573.79,-236.62C570.84,-235.46 567.69,-234.25 564.75,-233.16 517.41,-215.6 462.09,-196.55 427.99,-184.97"/>
<polygon fill="green" stroke="green" stroke-width="0.19" points="429.4,-181.75 418.8,-181.86 427.15,-188.38 429.4,-181.75"/>
</g>
<!-- &#45;8&#45;&gt;7699 -->
<g id="edge42" class="edge">
<title>&#45;8&#45;&gt;7699</title>
<path fill="none" stroke="red" stroke-width="0.14" d="M575.49,-232.89C564.25,-223.55 545.8,-208.22 530.56,-195.55"/>
<polygon fill="red" stroke="red" stroke-width="0.14" points="533.03,-193.06 523.1,-189.36 528.55,-198.44 533.03,-193.06"/>
</g>
<!-- &#45;9 -->
<g id="node9" class="node">
<title>&#45;9</title>
<polygon fill="lightgray" stroke="black" points="375.5,-251.66 352,-251.66 352,-233.16 375.5,-233.16 375.5,-251.66"/>
<text text-anchor="middle" x="363.75" y="-239.11" font-family="Times,serif" font-size="9.00">&#45;9</text>
</g>
<!-- &#45;9&#45;&gt;7696 -->
<g id="edge27" class="edge">
<title>&#45;9&#45;&gt;7696</title>
<path fill="none" stroke="red" stroke-width="0.22" d="M352.6,-232.89C340.05,-223.28 319.19,-207.33 302.37,-194.47"/>
<polygon fill="red" stroke="red" stroke-width="0.22" points="304.82,-191.94 294.75,-188.65 300.57,-197.5 304.82,-191.94"/>
</g>
<!-- &#45;9&#45;&gt;7697 -->
<g id="edge36" class="edge">
<title>&#45;9&#45;&gt;7697</title>
<path fill="none" stroke="green" stroke-width="0.51" d="M351.82,-236.53C348.87,-235.38 345.71,-234.19 342.75,-233.16 286.7,-213.7 220.39,-194.39 181.32,-183.39"/>
<polygon fill="green" stroke="green" stroke-width="0.51" points="182.37,-180.05 171.8,-180.73 180.48,-186.79 182.37,-180.05"/>
</g>
<!-- &#45;9&#45;&gt;7698 -->
<g id="edge35" class="edge">
<title>&#45;9&#45;&gt;7698</title>
<path fill="none" stroke="green" stroke-width="0.24" stroke-dasharray="1,5" d="M367.8,-232.89C371.23,-225.68 376.35,-214.91 381.28,-204.55"/>
<polygon fill="green" stroke="green" stroke-width="0.24" points="384.41,-206.12 385.54,-195.59 378.08,-203.12 384.41,-206.12"/>
</g>
<!-- &#45;9&#45;&gt;7699 -->
<g id="edge2" class="edge">
<title>&#45;9&#45;&gt;7699</title>
<path fill="none" stroke="green" stroke-width="0.27" stroke-dasharray="1,5" d="M375.77,-235.67C397.38,-225.36 443.39,-203.4 474.2,-188.69"/>
<polygon fill="green" stroke="green" stroke-width="0.27" points="475.35,-192.02 482.87,-184.56 472.34,-185.71 475.35,-192.02"/>
</g>
<!-- &#45;10 -->
<g id="node10" class="node">
<title>&#45;10</title>
<polygon fill="lightgray" stroke="black" points="333.75,-251.66 305.75,-251.66 305.75,-233.16 333.75,-233.16 333.75,-251.66"/>
<text text-anchor="middle" x="319.75" y="-239.11" font-family="Times,serif" font-size="9.00">&#45;10</text>
</g>
<!-- &#45;10&#45;&gt;7696 -->
<g id="edge19" class="edge">
<title>&#45;10&#45;&gt;7696</title>
<path fill="none" stroke="red" stroke-width="0.3" d="M314.18,-232.89C309.14,-225.18 301.44,-213.4 294.25,-202.4"/>
<polygon fill="red" stroke="red" stroke-width="0.3" points="297.3,-200.67 288.89,-194.22 291.44,-204.5 297.3,-200.67"/>
</g>
<!-- &#45;10&#45;&gt;7698 -->
<g id="edge37" class="edge">
<title>&#45;10&#45;&gt;7698</title>
<path fill="none" stroke="red" stroke-width="0.12" d="M329.38,-232.89C339.69,-223.75 356.48,-208.89 370.59,-196.39"/>
<polygon fill="red" stroke="red" stroke-width="0.12" points="372.8,-199.11 377.96,-189.86 368.16,-193.87 372.8,-199.11"/>
</g>
<!-- &#45;11 -->
<g id="node11" class="node">
<title>&#45;11</title>
<polygon fill="lightgray" stroke="black" points="463.75,-251.66 435.75,-251.66 435.75,-233.16 463.75,-233.16 463.75,-251.66"/>
<text text-anchor="middle" x="449.75" y="-239.11" font-family="Times,serif" font-size="9.00">&#45;11</text>
</g>
<!-- &#45;11&#45;&gt;7696 -->
<g id="edge17" class="edge">
<title>&#45;11&#45;&gt;7696</title>
<path fill="none" stroke="green" stroke-width="0.41" d="M435.51,-235.9C407.79,-225.18 345.98,-201.28 307.88,-186.54"/>
<polygon fill="green" stroke="green" stroke-width="0.41" points="309.44,-183.39 298.86,-183.05 306.92,-189.92 309.44,-183.39"/>
</g>
<!-- &#45;11&#45;&gt;7698 -->
<g id="edge43" class="edge">
<title>&#45;11&#45;&gt;7698</title>
<path fill="none" stroke="green" stroke-width="0.47" stroke-dasharray="1,5" d="M442.91,-232.89C436.38,-224.75 426.19,-212.05 416.95,-200.54"/>
<polygon fill="green" stroke="green" stroke-width="0.47" points="419.9,-198.62 410.91,-193.01 414.44,-203 419.9,-198.62"/>
</g>
<!-- &#45;11&#45;&gt;7699 -->
<g id="edge12" class="edge">
<title>&#45;11&#45;&gt;7699</title>
<path fill="none" stroke="red" stroke-width="0.39" stroke-dasharray="1,5" d="M456.72,-232.89C463.37,-224.75 473.75,-212.05 483.15,-200.54"/>
<polygon fill="red" stroke="red" stroke-width="0.39" points="485.78,-202.86 489.4,-192.9 480.36,-198.43 485.78,-202.86"/>
</g>
<!-- &#45;12 -->
<g id="node12" class="node">
<title>&#45;12</title>
<polygon fill="lightgray" stroke="black" points="819.75,-251.66 791.75,-251.66 791.75,-233.16 819.75,-233.16 819.75,-251.66"/>
<text text-anchor="middle" x="805.75" y="-239.11" font-family="Times,serif" font-size="9.00">&#45;12</text>
</g>
<!-- &#45;13 -->
<g id="node13" class="node">
<title>&#45;13</title>
<polygon fill="lightgray" stroke="black" points="685.75,-251.66 657.75,-251.66 657.75,-233.16 685.75,-233.16 685.75,-251.66"/>
<text text-anchor="middle" x="671.75" y="-239.11" font-family="Times,serif" font-size="9.00">&#45;13</text>
</g>
<!-- &#45;13&#45;&gt;7699 -->
<g id="edge8" class="edge">
<title>&#45;13&#45;&gt;7699</title>
<path fill="none" stroke="green" stroke-width="0.17" stroke-dasharray="1,5" d="M657.51,-235.67C630.79,-224.9 572.57,-201.44 536.21,-186.79"/>
<polygon fill="green" stroke="green" stroke-width="0.17" points="537.86,-183.68 527.27,-183.19 535.24,-190.18 537.86,-183.68"/>
</g>
<!-- &#45;14 -->
<g id="node14" class="node">
<title>&#45;14</title>
<polygon fill="lightgray" stroke="black" points="865.75,-251.66 837.75,-251.66 837.75,-233.16 865.75,-233.16 865.75,-251.66"/>
<text text-anchor="middle" x="851.75" y="-239.11" font-family="Times,serif" font-size="9.00">&#45;14</text>
</g>
<!-- &#45;15 -->
<g id="node15" class="node">
<title>&#45;15</title>
<polygon fill="lightgray" stroke="black" points="161.75,-251.66 133.75,-251.66 133.75,-233.16 161.75,-233.16 161.75,-251.66"/>
<text text-anchor="middle" x="147.75" y="-239.11" font-family="Times,serif" font-size="9.00">&#45;15</text>
</g>
<!-- &#45;15&#45;&gt;7696 -->
<g id="edge34" class="edge">
<title>&#45;15&#45;&gt;7696</title>
<path fill="none" stroke="red" stroke-width="0.27" d="M161.94,-233.95C182,-223.4 219.14,-203.88 245.53,-190"/>
<polygon fill="red" stroke="red" stroke-width="0.27" points="247.14,-193.11 254.36,-185.36 243.88,-186.92 247.14,-193.11"/>
</g>
<!-- &#45;15&#45;&gt;7697 -->
<g id="edge31" class="edge">
<title>&#45;15&#45;&gt;7697</title>
<path fill="none" stroke="red" stroke-width="0.3" d="M147.75,-232.89C147.75,-226.46 147.75,-217.2 147.75,-207.92"/>
<polygon fill="red" stroke="red" stroke-width="0.3" points="151.25,-208.03 147.75,-198.03 144.25,-208.03 151.25,-208.03"/>
</g>
<!-- &#45;15&#45;&gt;7698 -->
<g id="edge23" class="edge">
<title>&#45;15&#45;&gt;7698</title>
<path fill="none" stroke="green" stroke-width="0.36" stroke-dasharray="1,5" d="M161.77,-236.08C164.72,-235.05 167.82,-234.02 170.75,-233.16 239.02,-213.11 258.26,-216.45 326.75,-197.16 338.88,-193.74 352.03,-189.49 363.57,-185.57"/>
<polygon fill="green" stroke="green" stroke-width="0.36" points="364.4,-188.99 372.72,-182.42 362.12,-182.37 364.4,-188.99"/>
</g>
<!-- &#45;16 -->
<g id="node16" class="node">
<title>&#45;16</title>
<polygon fill="lightgray" stroke="black" points="509.75,-251.66 481.75,-251.66 481.75,-233.16 509.75,-233.16 509.75,-251.66"/>
<text text-anchor="middle" x="495.75" y="-239.11" font-family="Times,serif" font-size="9.00">&#45;16</text>
</g>
<!-- &#45;16&#45;&gt;7696 -->
<g id="edge3" class="edge">
<title>&#45;16&#45;&gt;7696</title>
<path fill="none" stroke="red" stroke-width="0.12" d="M481.68,-236.23C478.74,-235.18 475.65,-234.11 472.75,-233.16 415.34,-214.27 347.72,-194.55 308.5,-183.35"/>
<polygon fill="red" stroke="red" stroke-width="0.12" points="309.68,-180.05 299.1,-180.68 307.76,-186.78 309.68,-180.05"/>
</g>
<!-- &#45;16&#45;&gt;7699 -->
<g id="edge14" class="edge">
<title>&#45;16&#45;&gt;7699</title>
<path fill="none" stroke="green" stroke-width="0.17" d="M496.89,-232.89C497.77,-226.34 499.03,-216.85 500.3,-207.4"/>
<polygon fill="green" stroke="green" stroke-width="0.17" points="503.76,-207.92 501.62,-197.54 496.82,-206.99 503.76,-207.92"/>
</g>
<!-- &#45;17 -->
<g id="node17" class="node">
<title>&#45;17</title>
<polygon fill="lightgray" stroke="black" points="555.75,-251.66 527.75,-251.66 527.75,-233.16 555.75,-233.16 555.75,-251.66"/>
<text text-anchor="middle" x="541.75" y="-239.11" font-family="Times,serif" font-size="9.00">&#45;17</text>
</g>
<!-- &#45;17&#45;&gt;7696 -->
<g id="edge41" class="edge">
<title>&#45;17&#45;&gt;7696</title>
<path fill="none" stroke="red" stroke-width="0.43" stroke-dasharray="1,5" d="M527.73,-236.08C524.78,-235.05 521.68,-234.02 518.75,-233.16 450.48,-213.11 431.82,-214.27 362.75,-197.16 344.96,-192.75 325.21,-187.54 309.02,-183.2"/>
<polygon fill="red" stroke="red" stroke-width="0.43" points="310.16,-179.88 299.6,-180.65 308.34,-186.64 310.16,-179.88"/>
</g>
<!-- &#45;17&#45;&gt;7698 -->
<g id="edge29" class="edge">
<title>&#45;17&#45;&gt;7698</title>
<path fill="none" stroke="red" stroke-width="0.16" d="M527.49,-234.83C504.27,-224.13 457.79,-202.71 426.72,-188.39"/>
<polygon fill="red" stroke="red" stroke-width="0.16" points="428.38,-185.3 417.83,-184.29 425.45,-191.66 428.38,-185.3"/>
</g>
<!-- &#45;17&#45;&gt;7699 -->
<g id="edge33" class="edge">
<title>&#45;17&#45;&gt;7699</title>
<path fill="none" stroke="red" stroke-width="0.39" d="M537.06,-232.89C533,-225.5 526.88,-214.36 521.05,-203.76"/>
<polygon fill="red" stroke="red" stroke-width="0.39" points="524.23,-202.29 516.35,-195.21 518.1,-205.66 524.23,-202.29"/>
</g>
<!-- &#45;18 -->
<g id="node18" class="node">
<title>&#45;18</title>
<polygon fill="lightgray" stroke="black" points="115.75,-251.66 87.75,-251.66 87.75,-233.16 115.75,-233.16 115.75,-251.66"/>
<text text-anchor="middle" x="101.75" y="-239.11" font-family="Times,serif" font-size="9.00">&#45;18</text>
</g>
<!-- &#45;18&#45;&gt;7696 -->
<g id="edge6" class="edge">
<title>&#45;18&#45;&gt;7696</title>
<path fill="none" stroke="green" stroke-width="0.12" d="M115.99,-235.9C143.82,-225.14 206.04,-201.07 244.1,-186.36"/>
<polygon fill="green" stroke="green" stroke-width="0.12" points="244.98,-189.77 253.05,-182.9 242.46,-183.24 244.98,-189.77"/>
</g>
<!-- &#45;18&#45;&gt;7697 -->
<g id="edge9" class="edge">
<title>&#45;18&#45;&gt;7697</title>
<path fill="none" stroke="green" stroke-width="0.23" d="M107.58,-232.89C112.93,-225.05 121.17,-212.99 128.8,-201.83"/>
<polygon fill="green" stroke="green" stroke-width="0.23" points="131.51,-204.07 134.26,-193.84 125.73,-200.12 131.51,-204.07"/>
</g>
<!-- &#45;18&#45;&gt;7698 -->
<g id="edge30" class="edge">
<title>&#45;18&#45;&gt;7698</title>
<path fill="none" stroke="red" stroke-width="0.32" d="M116.23,-235.8C119.03,-234.83 121.96,-233.9 124.75,-233.16 212.87,-209.68 238.38,-219.66 326.75,-197.16 338.96,-194.05 352.13,-189.86 363.67,-185.91"/>
<polygon fill="red" stroke="red" stroke-width="0.32" points="364.57,-189.3 372.85,-182.69 362.26,-182.7 364.57,-189.3"/>
</g>
<!-- &#45;19 -->
<g id="node19" class="node">
<title>&#45;19</title>
<polygon fill="lightgray" stroke="black" points="69.75,-251.66 41.75,-251.66 41.75,-233.16 69.75,-233.16 69.75,-251.66"/>
<text text-anchor="middle" x="55.75" y="-239.11" font-family="Times,serif" font-size="9.00">&#45;19</text>
</g>
<!-- &#45;19&#45;&gt;7696 -->
<g id="edge28" class="edge">
<title>&#45;19&#45;&gt;7696</title>
<path fill="none" stroke="red" stroke-width="0.26" d="M69.82,-236.23C72.76,-235.18 75.85,-234.11 78.75,-233.16 136.04,-214.31 203.49,-194.63 242.75,-183.42"/>
<polygon fill="red" stroke="red" stroke-width="0.26" points="243.54,-186.84 252.2,-180.74 241.62,-180.11 243.54,-186.84"/>
</g>
<!-- &#45;19&#45;&gt;7697 -->
<g id="edge1" class="edge">
<title>&#45;19&#45;&gt;7697</title>
<path fill="none" stroke="green" stroke-width="0.38" stroke-dasharray="1,5" d="M67.4,-232.89C80.62,-223.22 102.61,-207.13 120.26,-194.23"/>
<polygon fill="green" stroke="green" stroke-width="0.38" points="122.04,-197.26 128.04,-188.53 117.91,-191.61 122.04,-197.26"/>
</g>
<!-- &#45;20 -->
<g id="node20" class="node">
<title>&#45;20</title>
<polygon fill="lightgray" stroke="black" points="731.75,-251.66 703.75,-251.66 703.75,-233.16 731.75,-233.16 731.75,-251.66"/>
<text text-anchor="middle" x="717.75" y="-239.11" font-family="Times,serif" font-size="9.00">&#45;20</text>
</g>
<!-- &#45;20&#45;&gt;7699 -->
<g id="edge40" class="edge">
<title>&#45;20&#45;&gt;7699</title>
<path fill="none" stroke="green" stroke-width="0.79" d="M703.67,-236.25C700.73,-235.2 697.65,-234.13 694.75,-233.16 640.34,-214.95 576.55,-195.52 538.45,-184.11"/>
<polygon fill="green" stroke="green" stroke-width="0.79" points="539.68,-180.82 529.1,-181.32 537.68,-187.53 539.68,-180.82"/>
</g>
<!-- 0 -->
<g id="node21" class="node">
<title>0</title>
<ellipse fill="lightblue" stroke="black" cx="504.75" cy="-89.03" rx="14.5" ry="14.5"/>
<text text-anchor="middle" x="504.75" y="-85.73" font-family="Times,serif" font-size="9.00">0</text>
</g>
<!-- 1 -->
<g id="node22" class="node">
<title>1</title>
<ellipse fill="lightblue" stroke="black" cx="353.75" cy="-89.03" rx="14.5" ry="14.5"/>
<text text-anchor="middle" x="353.75" y="-85.73" font-family="Times,serif" font-size="9.00">1</text>
</g>
<!-- 2 -->
<g id="node23" class="node">
<title>2</title>
<ellipse fill="lightblue" stroke="black" cx="421.75" cy="-14.5" rx="14.5" ry="14.5"/>
<text text-anchor="middle" x="421.75" y="-11.2" font-family="Times,serif" font-size="9.00">2</text>
</g>
<!-- 2&#45;&gt;2 -->
<g id="edge25" class="edge">
<title>2&#45;&gt;2</title>
<path fill="none" stroke="red" stroke-width="0.18" d="M431.73,-25.19C442.31,-31.89 454.25,-28.33 454.25,-14.5 454.25,-4.77 448.35,-0.12 441.16,-0.55"/>
<polygon fill="red" stroke="red" stroke-width="0.18" points="440.31,2.86 431.99,-3.71 442.59,-3.76 440.31,2.86"/>
</g>
<!-- 3 -->
<g id="node24" class="node">
<title>3</title>
<ellipse fill="lightblue" stroke="black" cx="306.75" cy="-89.03" rx="14.5" ry="14.5"/>
<text text-anchor="middle" x="306.75" y="-85.73" font-family="Times,serif" font-size="9.00">3</text>
</g>
<!-- 4 -->
<g id="node25" class="node">
<title>4</title>
<ellipse fill="lightblue" stroke="black" cx="259.75" cy="-89.03" rx="14.5" ry="14.5"/>
<text text-anchor="middle" x="259.75" y="-85.73" font-family="Times,serif" font-size="9.00">4</text>
</g>
<!-- 7907 -->
<g id="node26" class="node">
<title>7907</title>
<ellipse fill="white" stroke="black" cx="447.75" cy="-89.03" rx="24.04" ry="24.04"/>
<text text-anchor="middle" x="447.75" y="-85.73" font-family="Times,serif" font-size="9.00">7907</text>
</g>
<!-- 7907&#45;&gt;2 -->
<g id="edge47" class="edge">
<title>7907&#45;&gt;2</title>
<path fill="none" stroke="green" stroke-width="0.29" d="M439.81,-65.88C436.67,-57.13 433.07,-47.09 429.92,-38.29"/>
<polygon fill="green" stroke="green" stroke-width="0.29" points="433.29,-37.32 426.62,-29.09 426.7,-39.68 433.29,-37.32"/>
</g>
<!-- 7696&#45;&gt;4 -->
<g id="edge45" class="edge">
<title>7696&#45;&gt;4</title>
<path fill="none" stroke="red" stroke-width="0.12" d="M271.29,-149.25C269.13,-138.18 266.55,-124.9 264.37,-113.72"/>
<polygon fill="red" stroke="red" stroke-width="0.12" points="267.81,-113.11 262.47,-103.97 260.94,-114.45 267.81,-113.11"/>
</g>
<!-- 7696&#45;&gt;7696 -->
<g id="edge10" class="edge">
<title>7696&#45;&gt;7696</title>
<path fill="none" stroke="green" stroke-width="0.24" stroke-dasharray="1,5" d="M296.52,-185.57C307.65,-187.69 317.79,-183.54 317.79,-173.12 317.79,-166.11 313.21,-161.94 306.83,-160.6"/>
<polygon fill="green" stroke="green" stroke-width="0.24" points="306.86,-157.1 296.88,-160.66 306.9,-164.1 306.86,-157.1"/>
</g>
<!-- 7697&#45;&gt;3 -->
<g id="edge4" class="edge">
<title>7697&#45;&gt;3</title>
<path fill="none" stroke="green" stroke-width="0.49" d="M170.48,-164.94C198.36,-155.55 246.37,-137.36 282.75,-113.07 285.27,-111.39 287.77,-109.43 290.15,-107.37"/>
<polygon fill="green" stroke="green" stroke-width="0.49" points="292.23,-110.22 297.09,-100.8 287.42,-105.14 292.23,-110.22"/>
</g>
<!-- 7698&#45;&gt;0 -->
<g id="edge20" class="edge">
<title>7698&#45;&gt;0</title>
<path fill="none" stroke="red" stroke-width="0.29" d="M415.97,-159.37C433.61,-147.95 459.62,-130.38 480.75,-113.07 483.1,-111.15 485.49,-109.05 487.81,-106.92"/>
<polygon fill="red" stroke="red" stroke-width="0.29" points="490.13,-109.55 494.94,-100.12 485.29,-104.49 490.13,-109.55"/>
</g>
<!-- 7698&#45;&gt;1 -->
<g id="edge5" class="edge">
<title>7698&#45;&gt;1</title>
<path fill="none" stroke="red" stroke-width="0.11" d="M385.15,-151.4C378.88,-139.14 370.95,-123.64 364.62,-111.28"/>
<polygon fill="red" stroke="red" stroke-width="0.11" points="367.9,-110.01 360.23,-102.7 361.67,-113.19 367.9,-110.01"/>
</g>
<!-- 7698&#45;&gt;2 -->
<g id="edge13" class="edge">
<title>7698&#45;&gt;2</title>
<path fill="none" stroke="red" stroke-width="0.26" stroke-dasharray="1,5" d="M399.59,-149.01C404.49,-119.45 412.94,-68.55 417.87,-38.87"/>
<polygon fill="red" stroke="red" stroke-width="0.26" points="421.26,-39.79 419.45,-29.35 414.36,-38.65 421.26,-39.79"/>
</g>
<!-- 7698&#45;&gt;3 -->
<g id="edge18" class="edge">
<title>7698&#45;&gt;3</title>
<path fill="none" stroke="green" stroke-width="0.26" d="M377.97,-156.21C364.84,-144.4 346.57,-127.85 330.75,-113.07 328.61,-111.08 326.38,-108.97 324.18,-106.87"/>
<polygon fill="green" stroke="green" stroke-width="0.26" points="326.9,-104.63 317.26,-100.24 322.06,-109.69 326.9,-104.63"/>
</g>
<!-- 7698&#45;&gt;7907 -->
<g id="edge46" class="edge">
<title>7698&#45;&gt;7907</title>
<path fill="none" stroke="green" stroke-width="0.13" d="M408.34,-152.25C414.74,-142.14 422.64,-129.67 429.68,-118.56"/>
<polygon fill="green" stroke="green" stroke-width="0.13" points="432.6,-120.49 434.99,-110.17 426.68,-116.74 432.6,-120.49"/>
</g>
<!-- 7699&#45;&gt;0 -->
<g id="edge32" class="edge">
<title>7699&#45;&gt;0</title>
<path fill="none" stroke="green" stroke-width="0.25" d="M504.75,-148.81C504.75,-137.87 504.75,-124.83 504.75,-113.82"/>
<polygon fill="green" stroke="green" stroke-width="0.25" points="508.25,-114.02 504.75,-104.02 501.25,-114.02 508.25,-114.02"/>
</g>
</g>
</svg>
