<?xml version="1.0" encoding="UTF-8" standalone="no"?>
<!DOCTYPE svg PUBLIC "-//W3C//DTD SVG 1.1//EN"
 "http://www.w3.org/Graphics/SVG/1.1/DTD/svg11.dtd">
<!-- Generated by graphviz version 12.1.1 (20240910.0053)
 -->
<!-- Pages: 1 -->
<svg width="754pt" height="344pt"
 viewBox="0.00 0.00 753.75 343.74" xmlns="http://www.w3.org/2000/svg" xmlns:xlink="http://www.w3.org/1999/xlink">
<g id="graph0" class="graph" transform="scale(1 1) rotate(0) translate(4 339.74)">
<polygon fill="white" stroke="none" points="-4,4 -4,-339.74 749.75,-339.74 749.75,4 -4,4"/>
<!-- &#45;1 -->
<g id="node1" class="node">
<title>&#45;1</title>
<polygon fill="lightgray" stroke="black" points="199.5,-266.45 176,-266.45 176,-247.95 199.5,-247.95 199.5,-266.45"/>
<text text-anchor="middle" x="187.75" y="-253.9" font-family="Times,serif" font-size="9.00">&#45;1</text>
</g>
<!-- 7554 -->
<g id="node26" class="node">
<title>7554</title>
<ellipse fill="white" stroke="black" cx="361.75" cy="-173.12" rx="24.04" ry="24.04"/>
<text text-anchor="middle" x="361.75" y="-169.82" font-family="Times,serif" font-size="9.00">7554</text>
</g>
<!-- &#45;1&#45;&gt;7554 -->
<g id="edge3" class="edge">
<title>&#45;1&#45;&gt;7554</title>
<path fill="none" stroke="green" stroke-width="0.25" d="M193.96,-247.61C197.78,-242.83 203.03,-237.07 208.75,-233.16 228.86,-219.4 290.5,-197.64 329.13,-184.73"/>
<polygon fill="green" stroke="green" stroke-width="0.25" points="330.14,-188.08 338.53,-181.61 327.94,-181.44 330.14,-188.08"/>
</g>
<!-- 7557 -->
<g id="node29" class="node">
<title>7557</title>
<ellipse fill="white" stroke="black" cx="191.75" cy="-173.12" rx="24.04" ry="24.04"/>
<text text-anchor="middle" x="191.75" y="-169.82" font-family="Times,serif" font-size="9.00">7557</text>
</g>
<!-- &#45;1&#45;&gt;7557 -->
<g id="edge1" class="edge">
<title>&#45;1&#45;&gt;7557</title>
<path fill="none" stroke="green" stroke-width="0.24" stroke-dasharray="1,5" d="M188.16,-247.72C188.63,-238.23 189.4,-222.25 190.12,-207.6"/>
<polygon fill="green" stroke="green" stroke-width="0.24" points="193.61,-207.8 190.6,-197.64 186.62,-207.46 193.61,-207.8"/>
</g>
<!-- &#45;2 -->
<g id="node2" class="node">
<title>&#45;2</title>
<polygon fill="lightgray" stroke="black" points="23.5,-266.45 0,-266.45 0,-247.95 23.5,-247.95 23.5,-266.45"/>
<text text-anchor="middle" x="11.75" y="-253.9" font-family="Times,serif" font-size="9.00">&#45;2</text>
</g>
<!-- 1 -->
<g id="node22" class="node">
<title>1</title>
<ellipse fill="lightblue" stroke="black" cx="321.75" cy="-14.5" rx="14.5" ry="14.5"/>
<text text-anchor="middle" x="321.75" y="-11.2" font-family="Times,serif" font-size="9.00">1</text>
</g>
<!-- &#45;2&#45;&gt;1 -->
<g id="edge50" class="edge">
<title>&#45;2&#45;&gt;1</title>
<path fill="none" stroke="green" stroke-width="0.31" d="M10.3,-247.5C7.54,-227.98 3.55,-179.97 24.75,-149.07 89.5,-54.69 237.58,-26.05 296.7,-18.19"/>
<polygon fill="green" stroke="green" stroke-width="0.31" points="297.02,-21.68 306.52,-16.98 296.16,-14.73 297.02,-21.68"/>
</g>
<!-- 2 -->
<g id="node23" class="node">
<title>2</title>
<ellipse fill="lightblue" stroke="black" cx="205.75" cy="-89.03" rx="14.5" ry="14.5"/>
<text text-anchor="middle" x="205.75" y="-85.73" font-family="Times,serif" font-size="9.00">2</text>
</g>
<!-- &#45;2&#45;&gt;2 -->
<g id="edge52" class="edge">
<title>&#45;2&#45;&gt;2</title>
<path fill="none" stroke="red" stroke-width="0.21" d="M13.3,-247.72C17.36,-227.82 30.11,-177.64 59.75,-149.07 94.24,-115.84 149.9,-100.44 181.6,-94.03"/>
<polygon fill="red" stroke="red" stroke-width="0.21" points="181.88,-97.54 191.06,-92.25 180.58,-90.66 181.88,-97.54"/>
</g>
<!-- 7555 -->
<g id="node27" class="node">
<title>7555</title>
<ellipse fill="white" stroke="black" cx="446.75" cy="-89.03" rx="24.04" ry="24.04"/>
<text text-anchor="middle" x="446.75" y="-85.73" font-family="Times,serif" font-size="9.00">7555</text>
</g>
<!-- &#45;2&#45;&gt;7555 -->
<g id="edge32" class="edge">
<title>&#45;2&#45;&gt;7555</title>
<path fill="none" stroke="green" stroke-width="0.19" stroke-dasharray="1,5" d="M18.92,-247.52C28.27,-236.11 45.06,-215.39 58.75,-197.16 74.46,-176.23 70.22,-162.39 92.75,-149.07 215.97,-76.27 278.5,-162.66 412.75,-113.07 415.09,-112.21 417.43,-111.15 419.72,-109.97"/>
<polygon fill="green" stroke="green" stroke-width="0.19" points="421.16,-113.18 427.98,-105.07 417.59,-107.16 421.16,-113.18"/>
</g>
<!-- &#45;2&#45;&gt;7557 -->
<g id="edge41" class="edge">
<title>&#45;2&#45;&gt;7557</title>
<path fill="none" stroke="red" stroke-width="0.51" d="M17.48,-247.87C21.28,-242.93 26.68,-236.92 32.75,-233.16 82.25,-202.47 106.15,-222.17 158.75,-197.16 160.6,-196.28 162.45,-195.3 164.29,-194.26"/>
<polygon fill="red" stroke="red" stroke-width="0.51" points="165.95,-197.35 172.56,-189.06 162.23,-191.42 165.95,-197.35"/>
</g>
<!-- 7709 -->
<g id="node33" class="node">
<title>7709</title>
<ellipse fill="white" stroke="black" cx="125.75" cy="-173.12" rx="24.04" ry="24.04"/>
<text text-anchor="middle" x="125.75" y="-169.82" font-family="Times,serif" font-size="9.00">7709</text>
</g>
<!-- &#45;2&#45;&gt;7709 -->
<g id="edge44" class="edge">
<title>&#45;2&#45;&gt;7709</title>
<path fill="none" stroke="green" stroke-width="0.49" d="M18.64,-247.58C22.52,-243.02 27.61,-237.47 32.75,-233.16 38.46,-228.36 71.69,-207.52 96.81,-191.95"/>
<polygon fill="green" stroke="green" stroke-width="0.49" points="98.34,-195.12 105,-186.88 94.66,-189.17 98.34,-195.12"/>
</g>
<!-- &#45;3 -->
<g id="node3" class="node">
<title>&#45;3</title>
<polygon fill="lightgray" stroke="black" points="555.5,-266.45 532,-266.45 532,-247.95 555.5,-247.95 555.5,-266.45"/>
<text text-anchor="middle" x="543.75" y="-253.9" font-family="Times,serif" font-size="9.00">&#45;3</text>
</g>
<!-- &#45;3&#45;&gt;7554 -->
<g id="edge15" class="edge">
<title>&#45;3&#45;&gt;7554</title>
<path fill="none" stroke="green" stroke-width="0.24" stroke-dasharray="1,5" d="M537.61,-247.5C533.82,-242.68 528.57,-236.92 522.75,-233.16 479.55,-205.23 460.7,-215.77 412.75,-197.16 406.18,-194.61 399.23,-191.65 392.66,-188.72"/>
<polygon fill="green" stroke="green" stroke-width="0.24" points="394.25,-185.6 383.7,-184.66 391.36,-191.98 394.25,-185.6"/>
</g>
<!-- &#45;3&#45;&gt;7555 -->
<g id="edge8" class="edge">
<title>&#45;3&#45;&gt;7555</title>
<path fill="none" stroke="green" stroke-width="0.2" d="M539.74,-247.67C531,-229.26 509.27,-184.62 487.75,-149.07 481.3,-138.42 473.65,-127.11 466.72,-117.26"/>
<polygon fill="green" stroke="green" stroke-width="0.2" points="469.69,-115.39 461.03,-109.28 463.99,-119.46 469.69,-115.39"/>
</g>
<!-- 7556 -->
<g id="node28" class="node">
<title>7556</title>
<ellipse fill="white" stroke="black" cx="563.75" cy="-173.12" rx="24.04" ry="24.04"/>
<text text-anchor="middle" x="563.75" y="-169.82" font-family="Times,serif" font-size="9.00">7556</text>
</g>
<!-- &#45;3&#45;&gt;7556 -->
<g id="edge10" class="edge">
<title>&#45;3&#45;&gt;7556</title>
<path fill="none" stroke="green" stroke-width="0.85" d="M545.82,-247.72C548.12,-238.26 552,-222.34 555.56,-207.73"/>
<polygon fill="green" stroke="green" stroke-width="0.85" points="558.92,-208.73 557.89,-198.18 552.12,-207.07 558.92,-208.73"/>
</g>
<!-- &#45;4 -->
<g id="node4" class="node">
<title>&#45;4</title>
<polygon fill="lightgray" stroke="black" points="65.5,-266.45 42,-266.45 42,-247.95 65.5,-247.95 65.5,-266.45"/>
<text text-anchor="middle" x="53.75" y="-253.9" font-family="Times,serif" font-size="9.00">&#45;4</text>
</g>
<!-- &#45;4&#45;&gt;7557 -->
<g id="edge12" class="edge">
<title>&#45;4&#45;&gt;7557</title>
<path fill="none" stroke="green" stroke-width="0.29" stroke-dasharray="1,5" d="M60.02,-247.69C63.85,-242.93 69.1,-237.17 74.75,-233.16 107.85,-209.61 123.25,-216.89 158.75,-197.16 160.49,-196.19 162.25,-195.15 164.01,-194.07"/>
<polygon fill="green" stroke="green" stroke-width="0.29" points="165.81,-197.08 172.27,-188.68 161.98,-191.22 165.81,-197.08"/>
</g>
<!-- &#45;5 -->
<g id="node5" class="node">
<title>&#45;5</title>
<polygon fill="lightgray" stroke="black" points="241.5,-266.45 218,-266.45 218,-247.95 241.5,-247.95 241.5,-266.45"/>
<text text-anchor="middle" x="229.75" y="-253.9" font-family="Times,serif" font-size="9.00">&#45;5</text>
</g>
<!-- &#45;5&#45;&gt;7554 -->
<g id="edge9" class="edge">
<title>&#45;5&#45;&gt;7554</title>
<path fill="none" stroke="red" stroke-width="0.44" stroke-dasharray="1,5" d="M236.15,-247.87C240.03,-243.17 245.28,-237.41 250.75,-233.16 275.23,-214.15 306.7,-198.06 329.88,-187.51"/>
<polygon fill="red" stroke="red" stroke-width="0.44" points="331.26,-190.72 338.97,-183.46 328.41,-184.33 331.26,-190.72"/>
</g>
<!-- &#45;5&#45;&gt;7557 -->
<g id="edge34" class="edge">
<title>&#45;5&#45;&gt;7557</title>
<path fill="none" stroke="red" stroke-width="0.39" stroke-dasharray="1,5" d="M225.83,-247.72C221.15,-237.62 213.06,-220.15 205.94,-204.77"/>
<polygon fill="red" stroke="red" stroke-width="0.39" points="209.3,-203.69 201.92,-196.09 202.95,-206.63 209.3,-203.69"/>
</g>
<!-- &#45;6 -->
<g id="node6" class="node">
<title>&#45;6</title>
<polygon fill="lightgray" stroke="black" points="445.5,-182.37 422,-182.37 422,-163.87 445.5,-163.87 445.5,-182.37"/>
<text text-anchor="middle" x="433.75" y="-169.82" font-family="Times,serif" font-size="9.00">&#45;6</text>
</g>
<!-- &#45;6&#45;&gt;7555 -->
<g id="edge16" class="edge">
<title>&#45;6&#45;&gt;7555</title>
<path fill="none" stroke="red" stroke-width="0.15" stroke-dasharray="1,5" d="M435.09,-163.64C436.61,-154.06 439.18,-137.86 441.51,-123.09"/>
<polygon fill="red" stroke="red" stroke-width="0.15" points="444.94,-123.85 443.05,-113.42 438.02,-122.75 444.94,-123.85"/>
</g>
<!-- &#45;7 -->
<g id="node7" class="node">
<title>&#45;7</title>
<polygon fill="lightgray" stroke="black" points="283.5,-266.45 260,-266.45 260,-247.95 283.5,-247.95 283.5,-266.45"/>
<text text-anchor="middle" x="271.75" y="-253.9" font-family="Times,serif" font-size="9.00">&#45;7</text>
</g>
<!-- &#45;7&#45;&gt;7554 -->
<g id="edge13" class="edge">
<title>&#45;7&#45;&gt;7554</title>
<path fill="none" stroke="green" stroke-width="0.21" d="M278.9,-247.86C282.85,-243.38 287.93,-237.83 292.75,-233.16 306.34,-219.98 322.37,-206.18 335.55,-195.23"/>
<polygon fill="green" stroke="green" stroke-width="0.21" points="337.6,-198.08 343.09,-189.02 333.15,-192.67 337.6,-198.08"/>
</g>
<!-- &#45;7&#45;&gt;7555 -->
<g id="edge38" class="edge">
<title>&#45;7&#45;&gt;7555</title>
<path fill="none" stroke="red" stroke-width="0.4" stroke-dasharray="1,5" d="M274.2,-247.46C280.22,-227.43 297.58,-177.73 328.75,-149.07 358.65,-121.59 377.11,-132.56 412.75,-113.07 414.73,-111.99 416.75,-110.82 418.75,-109.61"/>
<polygon fill="red" stroke="red" stroke-width="0.4" points="420.33,-112.75 426.87,-104.41 416.56,-106.85 420.33,-112.75"/>
</g>
<!-- &#45;7&#45;&gt;7557 -->
<g id="edge42" class="edge">
<title>&#45;7&#45;&gt;7557</title>
<path fill="none" stroke="red" stroke-width="0.39" d="M264.06,-247.58C260.13,-243.21 255.23,-237.86 250.75,-233.16 239.56,-221.43 226.88,-208.68 216.16,-198.04"/>
<polygon fill="red" stroke="red" stroke-width="0.39" points="218.74,-195.67 209.16,-191.13 213.81,-200.64 218.74,-195.67"/>
</g>
<!-- 7740 -->
<g id="node32" class="node">
<title>7740</title>
<ellipse fill="white" stroke="black" cx="257.75" cy="-173.12" rx="24.04" ry="24.04"/>
<text text-anchor="middle" x="257.75" y="-169.82" font-family="Times,serif" font-size="9.00">7740</text>
</g>
<!-- &#45;7&#45;&gt;7740 -->
<g id="edge46" class="edge">
<title>&#45;7&#45;&gt;7740</title>
<path fill="none" stroke="green" stroke-width="0.46" stroke-dasharray="1,5" d="M270.3,-247.72C268.69,-238.23 265.96,-222.25 263.46,-207.6"/>
<polygon fill="green" stroke="green" stroke-width="0.46" points="266.95,-207.24 261.82,-197.97 260.05,-208.41 266.95,-207.24"/>
</g>
<!-- &#45;8 -->
<g id="node8" class="node">
<title>&#45;8</title>
<polygon fill="lightgray" stroke="black" points="705.5,-266.45 682,-266.45 682,-247.95 705.5,-247.95 705.5,-266.45"/>
<text text-anchor="middle" x="693.75" y="-253.9" font-family="Times,serif" font-size="9.00">&#45;8</text>
</g>
<!-- &#45;8&#45;&gt;7555 -->
<g id="edge39" class="edge">
<title>&#45;8&#45;&gt;7555</title>
<path fill="none" stroke="red" stroke-width="0.81" stroke-dasharray="1,5" d="M686.12,-247.53C682.2,-243.15 677.3,-237.79 672.75,-233.16 656.46,-216.55 650.45,-214.33 634.75,-197.16 616.37,-177.05 618.62,-165.31 596.75,-149.07 561.57,-122.96 513.33,-106.71 481.15,-98.02"/>
<polygon fill="red" stroke="red" stroke-width="0.81" points="482.24,-94.69 471.68,-95.57 480.48,-101.46 482.24,-94.69"/>
</g>
<!-- &#45;8&#45;&gt;7556 -->
<g id="edge33" class="edge">
<title>&#45;8&#45;&gt;7556</title>
<path fill="none" stroke="green" stroke-width="0.18" stroke-dasharray="1,5" d="M687.38,-247.83C683.51,-243.11 678.26,-237.35 672.75,-233.16 644.6,-211.73 632.68,-214.34 601.75,-197.16 598.85,-195.55 595.85,-193.83 592.87,-192.08"/>
<polygon fill="green" stroke="green" stroke-width="0.18" points="594.71,-189.1 584.33,-186.98 591.12,-195.11 594.71,-189.1"/>
</g>
<!-- &#45;9 -->
<g id="node9" class="node">
<title>&#45;9</title>
<polygon fill="lightgray" stroke="black" points="597.5,-266.45 574,-266.45 574,-247.95 597.5,-247.95 597.5,-266.45"/>
<text text-anchor="middle" x="585.75" y="-253.9" font-family="Times,serif" font-size="9.00">&#45;9</text>
</g>
<!-- &#45;9&#45;&gt;7554 -->
<g id="edge20" class="edge">
<title>&#45;9&#45;&gt;7554</title>
<path fill="none" stroke="green" stroke-width="0.24" stroke-dasharray="1,5" d="M580.08,-247.77C576.3,-242.8 570.91,-236.78 564.75,-233.16 504.93,-197.93 478.46,-219.55 412.75,-197.16 406.08,-194.88 399.09,-192.05 392.5,-189.15"/>
<polygon fill="green" stroke="green" stroke-width="0.24" points="394.11,-186.04 383.56,-185.07 391.2,-192.41 394.11,-186.04"/>
</g>
<!-- &#45;9&#45;&gt;7556 -->
<g id="edge27" class="edge">
<title>&#45;9&#45;&gt;7556</title>
<path fill="none" stroke="green" stroke-width="0.23" stroke-dasharray="1,5" d="M583.48,-247.72C580.87,-238.01 576.45,-221.49 572.45,-206.56"/>
<polygon fill="green" stroke="green" stroke-width="0.23" points="575.83,-205.67 569.86,-196.92 569.07,-207.48 575.83,-205.67"/>
</g>
<!-- &#45;10 -->
<g id="node10" class="node">
<title>&#45;10</title>
<polygon fill="lightgray" stroke="black" points="375.75,-266.45 347.75,-266.45 347.75,-247.95 375.75,-247.95 375.75,-266.45"/>
<text text-anchor="middle" x="361.75" y="-253.9" font-family="Times,serif" font-size="9.00">&#45;10</text>
</g>
<!-- &#45;10&#45;&gt;7554 -->
<g id="edge31" class="edge">
<title>&#45;10&#45;&gt;7554</title>
<path fill="none" stroke="red" stroke-width="0.25" stroke-dasharray="1,5" d="M361.75,-247.72C361.75,-238.3 361.75,-222.47 361.75,-207.91"/>
<polygon fill="red" stroke="red" stroke-width="0.25" points="365.25,-208.01 361.75,-198.01 358.25,-208.01 365.25,-208.01"/>
</g>
<!-- &#45;10&#45;&gt;7556 -->
<g id="edge28" class="edge">
<title>&#45;10&#45;&gt;7556</title>
<path fill="none" stroke="green" stroke-width="0.36" d="M368.63,-247.53C372.84,-242.71 378.59,-236.95 384.75,-233.16 397.43,-225.34 482.68,-198.76 530.81,-184.07"/>
<polygon fill="green" stroke="green" stroke-width="0.36" points="531.69,-187.46 540.24,-181.2 529.65,-180.77 531.69,-187.46"/>
</g>
<!-- &#45;10&#45;&gt;7557 -->
<g id="edge30" class="edge">
<title>&#45;10&#45;&gt;7557</title>
<path fill="none" stroke="green" stroke-width="0.17" d="M354.89,-247.5C350.68,-242.68 344.93,-236.92 338.75,-233.16 293.34,-205.56 272.41,-220.64 224.75,-197.16 222.76,-196.18 220.76,-195.09 218.78,-193.93"/>
<polygon fill="green" stroke="green" stroke-width="0.17" points="220.86,-191.11 210.55,-188.69 217.1,-197.01 220.86,-191.11"/>
</g>
<!-- &#45;11 -->
<g id="node11" class="node">
<title>&#45;11</title>
<polygon fill="lightgray" stroke="black" points="699.75,-335.74 671.75,-335.74 671.75,-317.24 699.75,-317.24 699.75,-335.74"/>
<text text-anchor="middle" x="685.75" y="-323.19" font-family="Times,serif" font-size="9.00">&#45;11</text>
</g>
<!-- &#45;12 -->
<g id="node12" class="node">
<title>&#45;12</title>
<polygon fill="lightgray" stroke="black" points="467.75,-266.45 439.75,-266.45 439.75,-247.95 467.75,-247.95 467.75,-266.45"/>
<text text-anchor="middle" x="453.75" y="-253.9" font-family="Times,serif" font-size="9.00">&#45;12</text>
</g>
<!-- &#45;12&#45;&gt;7554 -->
<g id="edge23" class="edge">
<title>&#45;12&#45;&gt;7554</title>
<path fill="none" stroke="red" stroke-width="0.25" stroke-dasharray="1,5" d="M445.39,-247.5C441.09,-243.12 435.73,-237.77 430.75,-233.16 416.86,-220.29 400.82,-206.51 387.7,-195.5"/>
<polygon fill="red" stroke="red" stroke-width="0.25" points="390.17,-192.99 380.25,-189.27 385.68,-198.37 390.17,-192.99"/>
</g>
<!-- &#45;13 -->
<g id="node13" class="node">
<title>&#45;13</title>
<polygon fill="lightgray" stroke="black" points="329.75,-266.45 301.75,-266.45 301.75,-247.95 329.75,-247.95 329.75,-266.45"/>
<text text-anchor="middle" x="315.75" y="-253.9" font-family="Times,serif" font-size="9.00">&#45;13</text>
</g>
<!-- &#45;13&#45;&gt;7554 -->
<g id="edge35" class="edge">
<title>&#45;13&#45;&gt;7554</title>
<path fill="none" stroke="green" stroke-width="0.2" stroke-dasharray="1,5" d="M320.5,-247.72C326.33,-237.32 336.54,-219.11 345.34,-203.4"/>
<polygon fill="green" stroke="green" stroke-width="0.2" points="348.33,-205.22 350.17,-194.79 342.22,-201.8 348.33,-205.22"/>
</g>
<!-- &#45;13&#45;&gt;7555 -->
<g id="edge24" class="edge">
<title>&#45;13&#45;&gt;7555</title>
<path fill="none" stroke="green" stroke-width="0.3" stroke-dasharray="1,5" d="M322.61,-247.49C326.81,-242.66 332.56,-236.9 338.75,-233.16 384.95,-205.24 422.73,-240.62 454.75,-197.16 470.65,-175.58 466.17,-144.46 459.19,-121.32"/>
<polygon fill="green" stroke="green" stroke-width="0.3" points="462.59,-120.45 456.13,-112.06 455.94,-122.65 462.59,-120.45"/>
</g>
<!-- &#45;13&#45;&gt;7557 -->
<g id="edge29" class="edge">
<title>&#45;13&#45;&gt;7557</title>
<path fill="none" stroke="red" stroke-width="0.11" d="M308.21,-247.46C303.96,-242.86 298.39,-237.32 292.75,-233.16 265.25,-212.83 253.93,-214.98 224.75,-197.16 222.91,-196.03 221.03,-194.85 219.15,-193.62"/>
<polygon fill="red" stroke="red" stroke-width="0.11" points="221.42,-190.93 211.17,-188.26 217.52,-196.74 221.42,-190.93"/>
</g>
<!-- &#45;14 -->
<g id="node14" class="node">
<title>&#45;14</title>
<polygon fill="lightgray" stroke="black" points="653.75,-335.74 625.75,-335.74 625.75,-317.24 653.75,-317.24 653.75,-335.74"/>
<text text-anchor="middle" x="639.75" y="-323.19" font-family="Times,serif" font-size="9.00">&#45;14</text>
</g>
<!-- 7832 -->
<g id="node31" class="node">
<title>7832</title>
<ellipse fill="white" stroke="black" cx="639.75" cy="-257.2" rx="24.04" ry="24.04"/>
<text text-anchor="middle" x="639.75" y="-253.9" font-family="Times,serif" font-size="9.00">7832</text>
</g>
<!-- &#45;14&#45;&gt;7832 -->
<g id="edge53" class="edge">
<title>&#45;14&#45;&gt;7832</title>
<path fill="none" stroke="green" stroke-width="0.3" stroke-dasharray="1,5" d="M639.75,-316.97C639.75,-310.54 639.75,-301.28 639.75,-292"/>
<polygon fill="green" stroke="green" stroke-width="0.3" points="643.25,-292.13 639.75,-282.13 636.25,-292.13 643.25,-292.13"/>
</g>
<!-- &#45;15 -->
<g id="node15" class="node">
<title>&#45;15</title>
<polygon fill="lightgray" stroke="black" points="111.75,-266.45 83.75,-266.45 83.75,-247.95 111.75,-247.95 111.75,-266.45"/>
<text text-anchor="middle" x="97.75" y="-253.9" font-family="Times,serif" font-size="9.00">&#45;15</text>
</g>
<!-- &#45;15&#45;&gt;7557 -->
<g id="edge36" class="edge">
<title>&#45;15&#45;&gt;7557</title>
<path fill="none" stroke="green" stroke-width="0.26" d="M106.09,-247.47C110.37,-243.08 115.74,-237.73 120.75,-233.16 135.06,-220.09 151.69,-206.19 165.26,-195.17"/>
<polygon fill="green" stroke="green" stroke-width="0.26" points="167.37,-197.96 172.95,-188.96 162.97,-192.52 167.37,-197.96"/>
</g>
<!-- &#45;16 -->
<g id="node16" class="node">
<title>&#45;16</title>
<polygon fill="lightgray" stroke="black" points="671.75,-182.37 643.75,-182.37 643.75,-163.87 671.75,-163.87 671.75,-182.37"/>
<text text-anchor="middle" x="657.75" y="-169.82" font-family="Times,serif" font-size="9.00">&#45;16</text>
</g>
<!-- &#45;16&#45;&gt;7555 -->
<g id="edge26" class="edge">
<title>&#45;16&#45;&gt;7555</title>
<path fill="none" stroke="green" stroke-width="0.28" d="M649.05,-163.49C643.82,-158.7 636.82,-152.94 629.75,-149.07 581.02,-122.43 518.34,-105.48 480.43,-96.88"/>
<polygon fill="green" stroke="green" stroke-width="0.28" points="481.36,-93.5 470.84,-94.77 479.85,-100.34 481.36,-93.5"/>
</g>
<!-- &#45;17 -->
<g id="node17" class="node">
<title>&#45;17</title>
<polygon fill="lightgray" stroke="black" points="421.75,-266.45 393.75,-266.45 393.75,-247.95 421.75,-247.95 421.75,-266.45"/>
<text text-anchor="middle" x="407.75" y="-253.9" font-family="Times,serif" font-size="9.00">&#45;17</text>
</g>
<!-- &#45;17&#45;&gt;7554 -->
<g id="edge22" class="edge">
<title>&#45;17&#45;&gt;7554</title>
<path fill="none" stroke="red" stroke-width="0.69" d="M403,-247.72C397.22,-237.41 387.15,-219.45 378.41,-203.84"/>
<polygon fill="red" stroke="red" stroke-width="0.69" points="381.64,-202.45 373.7,-195.44 375.53,-205.87 381.64,-202.45"/>
</g>
<!-- &#45;17&#45;&gt;7556 -->
<g id="edge14" class="edge">
<title>&#45;17&#45;&gt;7556</title>
<path fill="none" stroke="green" stroke-width="0.4" stroke-dasharray="1,5" d="M414.78,-247.75C419.04,-243.02 424.79,-237.26 430.75,-233.16 462.27,-211.5 503.03,-194.8 531.07,-184.78"/>
<polygon fill="green" stroke="green" stroke-width="0.4" points="531.93,-188.19 540.22,-181.59 529.62,-181.58 531.93,-188.19"/>
</g>
<!-- &#45;17&#45;&gt;7557 -->
<g id="edge4" class="edge">
<title>&#45;17&#45;&gt;7557</title>
<path fill="none" stroke="green" stroke-width="0.39" d="M401.39,-247.75C397.19,-242.77 391.28,-236.76 384.75,-233.16 320.92,-197.97 291.44,-226.57 224.75,-197.16 222.88,-196.33 221.01,-195.4 219.15,-194.38"/>
<polygon fill="green" stroke="green" stroke-width="0.39" points="221.04,-191.43 210.69,-189.16 217.37,-197.39 221.04,-191.43"/>
</g>
<!-- &#45;18 -->
<g id="node18" class="node">
<title>&#45;18</title>
<polygon fill="lightgray" stroke="black" points="157.75,-266.45 129.75,-266.45 129.75,-247.95 157.75,-247.95 157.75,-266.45"/>
<text text-anchor="middle" x="143.75" y="-253.9" font-family="Times,serif" font-size="9.00">&#45;18</text>
</g>
<!-- &#45;18&#45;&gt;7557 -->
<g id="edge17" class="edge">
<title>&#45;18&#45;&gt;7557</title>
<path fill="none" stroke="red" stroke-width="0.27" d="M148.71,-247.72C154.79,-237.32 165.44,-219.11 174.62,-203.4"/>
<polygon fill="red" stroke="red" stroke-width="0.27" points="177.59,-205.27 179.61,-194.87 171.54,-201.74 177.59,-205.27"/>
</g>
<!-- &#45;19 -->
<g id="node19" class="node">
<title>&#45;19</title>
<polygon fill="lightgray" stroke="black" points="513.75,-266.45 485.75,-266.45 485.75,-247.95 513.75,-247.95 513.75,-266.45"/>
<text text-anchor="middle" x="499.75" y="-253.9" font-family="Times,serif" font-size="9.00">&#45;19</text>
</g>
<!-- &#45;19&#45;&gt;7554 -->
<g id="edge18" class="edge">
<title>&#45;19&#45;&gt;7554</title>
<path fill="none" stroke="green" stroke-width="0.18" stroke-dasharray="1,5" d="M492.63,-247.88C488.34,-243.18 482.59,-237.42 476.75,-233.16 462.27,-222.59 421.1,-202.23 392.17,-188.41"/>
<polygon fill="green" stroke="green" stroke-width="0.18" points="394.05,-185.42 383.51,-184.29 391.04,-191.74 394.05,-185.42"/>
</g>
<!-- &#45;20 -->
<g id="node20" class="node">
<title>&#45;20</title>
<polygon fill="lightgray" stroke="black" points="745.75,-335.74 717.75,-335.74 717.75,-317.24 745.75,-317.24 745.75,-335.74"/>
<text text-anchor="middle" x="731.75" y="-323.19" font-family="Times,serif" font-size="9.00">&#45;20</text>
</g>
<!-- 0 -->
<g id="node21" class="node">
<title>0</title>
<ellipse fill="lightblue" stroke="black" cx="446.75" cy="-14.5" rx="14.5" ry="14.5"/>
<text text-anchor="middle" x="446.75" y="-11.2" font-family="Times,serif" font-size="9.00">0</text>
</g>
<!-- 2&#45;&gt;2 -->
<g id="edge5" class="edge">
<title>2&#45;&gt;2</title>
<path fill="none" stroke="green" stroke-width="0.17" stroke-dasharray="1,5" d="M215.73,-99.73C226.31,-106.43 238.25,-102.86 238.25,-89.03 238.25,-79.31 232.35,-74.66 225.16,-75.08"/>
<polygon fill="green" stroke="green" stroke-width="0.17" points="224.28,-71.69 215.97,-78.25 226.56,-78.3 224.28,-71.69"/>
</g>
<!-- 3 -->
<g id="node24" class="node">
<title>3</title>
<ellipse fill="lightblue" stroke="black" cx="515.75" cy="-14.5" rx="14.5" ry="14.5"/>
<text text-anchor="middle" x="515.75" y="-11.2" font-family="Times,serif" font-size="9.00">3</text>
</g>
<!-- 4 -->
<g id="node25" class="node">
<title>4</title>
<ellipse fill="lightblue" stroke="black" cx="389.75" cy="-89.03" rx="14.5" ry="14.5"/>
<text text-anchor="middle" x="389.75" y="-85.73" font-family="Times,serif" font-size="9.00">4</text>
</g>
<!-- 7554&#45;&gt;1 -->
<g id="edge40" class="edge">
<title>7554&#45;&gt;1</title>
<path fill="none" stroke="red" stroke-width="0.27" d="M355.93,-149.34C348.41,-119.87 335.36,-68.79 327.75,-38.98"/>
<polygon fill="red" stroke="red" stroke-width="0.27" points="331.18,-38.26 325.31,-29.44 324.39,-39.99 331.18,-38.26"/>
</g>
<!-- 7554&#45;&gt;2 -->
<g id="edge43" class="edge">
<title>7554&#45;&gt;2</title>
<path fill="none" stroke="green" stroke-width="0.17" d="M340.71,-161.05C310.99,-145.41 257.02,-117.01 227.12,-101.28"/>
<polygon fill="green" stroke="green" stroke-width="0.17" points="229.03,-98.33 218.55,-96.77 225.77,-104.52 229.03,-98.33"/>
</g>
<!-- 7554&#45;&gt;4 -->
<g id="edge7" class="edge">
<title>7554&#45;&gt;4</title>
<path fill="none" stroke="red" stroke-width="0.34" d="M369.25,-150.12C373.17,-138.63 377.96,-124.58 381.93,-112.96"/>
<polygon fill="red" stroke="red" stroke-width="0.34" points="385.21,-114.19 385.12,-103.6 378.58,-111.93 385.21,-114.19"/>
</g>
<!-- 7554&#45;&gt;7554 -->
<g id="edge19" class="edge">
<title>7554&#45;&gt;7554</title>
<path fill="none" stroke="red" stroke-width="0.11" stroke-dasharray="1,5" d="M381.21,-187.9C392.84,-191.18 403.79,-186.25 403.79,-173.12 403.79,-163.88 398.38,-158.7 391.12,-157.58"/>
<polygon fill="red" stroke="red" stroke-width="0.11" points="391.09,-154.07 381.38,-158.32 391.62,-161.05 391.09,-154.07"/>
</g>
<!-- 7756 -->
<g id="node30" class="node">
<title>7756</title>
<ellipse fill="white" stroke="black" cx="295.75" cy="-89.03" rx="24.04" ry="24.04"/>
<text text-anchor="middle" x="295.75" y="-85.73" font-family="Times,serif" font-size="9.00">7756</text>
</g>
<!-- 7554&#45;&gt;7756 -->
<g id="edge48" class="edge">
<title>7554&#45;&gt;7756</title>
<path fill="none" stroke="green" stroke-width="0.49" d="M347.1,-153.9C338.28,-142.92 326.89,-128.76 317.07,-116.55"/>
<polygon fill="green" stroke="green" stroke-width="0.49" points="320.05,-114.66 311.05,-109.06 314.59,-119.05 320.05,-114.66"/>
</g>
<!-- 7555&#45;&gt;0 -->
<g id="edge6" class="edge">
<title>7555&#45;&gt;0</title>
<path fill="none" stroke="green" stroke-width="0.8" stroke-dasharray="1,5" d="M446.75,-64.68C446.75,-56.87 446.75,-48.14 446.75,-40.23"/>
<polygon fill="green" stroke="green" stroke-width="0.8" points="450.25,-40.28 446.75,-30.28 443.25,-40.28 450.25,-40.28"/>
</g>
<!-- 7555&#45;&gt;1 -->
<g id="edge2" class="edge">
<title>7555&#45;&gt;1</title>
<path fill="none" stroke="red" stroke-width="0.57" d="M427.19,-74.3C422.51,-71.15 417.5,-67.88 412.75,-64.99 389.81,-51.02 362.66,-36.51 344.03,-26.84"/>
<polygon fill="red" stroke="red" stroke-width="0.57" points="345.89,-23.86 335.4,-22.39 342.68,-30.08 345.89,-23.86"/>
</g>
<!-- 7555&#45;&gt;3 -->
<g id="edge37" class="edge">
<title>7555&#45;&gt;3</title>
<path fill="none" stroke="green" stroke-width="0.33" d="M463.1,-70.84C473.98,-59.41 488.23,-44.43 499.16,-32.94"/>
<polygon fill="green" stroke="green" stroke-width="0.33" points="501.4,-35.65 505.76,-26 496.33,-30.83 501.4,-35.65"/>
</g>
<!-- 7556&#45;&gt;2 -->
<g id="edge21" class="edge">
<title>7556&#45;&gt;2</title>
<path fill="none" stroke="red" stroke-width="0.64" d="M540.39,-167.02C518.34,-162.24 484.34,-154.98 454.75,-149.07 369.61,-132.1 346.07,-137.46 262.75,-113.07 251.19,-109.69 238.75,-104.82 228.45,-100.42"/>
<polygon fill="red" stroke="red" stroke-width="0.64" points="230.06,-97.3 219.5,-96.48 227.24,-103.71 230.06,-97.3"/>
</g>
<!-- 7556&#45;&gt;3 -->
<g id="edge11" class="edge">
<title>7556&#45;&gt;3</title>
<path fill="none" stroke="red" stroke-width="0.85" stroke-dasharray="1,5" d="M556.87,-149.68C547.9,-120.41 532.27,-69.4 523.08,-39.42"/>
<polygon fill="red" stroke="red" stroke-width="0.85" points="526.45,-38.46 520.17,-29.92 519.76,-40.51 526.45,-38.46"/>
</g>
<!-- 7557&#45;&gt;2 -->
<g id="edge25" class="edge">
<title>7557&#45;&gt;2</title>
<path fill="none" stroke="red" stroke-width="0.39" d="M195.65,-149.25C197.52,-138.29 199.76,-125.17 201.65,-114.06"/>
<polygon fill="red" stroke="red" stroke-width="0.39" points="205.07,-114.81 203.31,-104.36 198.17,-113.63 205.07,-114.81"/>
</g>
<!-- 7756&#45;&gt;1 -->
<g id="edge49" class="edge">
<title>7756&#45;&gt;1</title>
<path fill="none" stroke="red" stroke-width="0.13" stroke-dasharray="1,5" d="M303.69,-65.88C306.86,-57.04 310.5,-46.87 313.68,-38"/>
<polygon fill="red" stroke="red" stroke-width="0.13" points="316.88,-39.44 316.96,-28.85 310.3,-37.08 316.88,-39.44"/>
</g>
<!-- 7832&#45;&gt;7556 -->
<g id="edge51" class="edge">
<title>7832&#45;&gt;7556</title>
<path fill="none" stroke="red" stroke-width="0.16" stroke-dasharray="1,5" d="M623.63,-238.79C612.85,-227.15 598.5,-211.65 586.56,-198.75"/>
<polygon fill="red" stroke="red" stroke-width="0.16" points="589.37,-196.64 580.01,-191.68 584.24,-201.39 589.37,-196.64"/>
</g>
<!-- 7740&#45;&gt;7555 -->
<g id="edge47" class="edge">
<title>7740&#45;&gt;7555</title>
<path fill="none" stroke="green" stroke-width="0.35" stroke-dasharray="1,5" d="M277.36,-158.96C283.13,-155.45 289.56,-151.85 295.75,-149.07 345.39,-126.8 363.69,-136.59 412.75,-113.07 414.84,-112.07 416.95,-110.95 419.03,-109.76"/>
<polygon fill="green" stroke="green" stroke-width="0.35" points="420.83,-112.77 427.48,-104.52 417.14,-106.82 420.83,-112.77"/>
</g>
<!-- 7709&#45;&gt;7555 -->
<g id="edge45" class="edge">
<title>7709&#45;&gt;7555</title>
<path fill="none" stroke="green" stroke-width="0.32" stroke-dasharray="1,5" d="M144.07,-157.08C148.63,-153.99 153.68,-151.07 158.75,-149.07 264.84,-107.3 306.37,-154.11 412.75,-113.07 414.91,-112.24 417.07,-111.25 419.2,-110.15"/>
<polygon fill="green" stroke="green" stroke-width="0.32" points="420.95,-113.18 427.77,-105.06 417.38,-107.15 420.95,-113.18"/>
</g>
</g>
</svg>
