<?xml version="1.0" encoding="UTF-8" standalone="no"?>
<!DOCTYPE svg PUBLIC "-//W3C//DTD SVG 1.1//EN"
 "http://www.w3.org/Graphics/SVG/1.1/DTD/svg11.dtd">
<!-- Generated by graphviz version 12.1.1 (20240910.0053)
 -->
<!-- Pages: 1 -->
<svg width="1032pt" height="186pt"
 viewBox="0.00 0.00 1032.25 186.07" xmlns="http://www.w3.org/2000/svg" xmlns:xlink="http://www.w3.org/1999/xlink">
<g id="graph0" class="graph" transform="scale(1 1) rotate(0) translate(4 182.07)">
<polygon fill="white" stroke="none" points="-4,4 -4,-182.07 1028.25,-182.07 1028.25,4 -4,4"/>
<!-- &#45;1 -->
<g id="node1" class="node">
<title>&#45;1</title>
<polygon fill="lightgray" stroke="black" points="337.5,-172.82 314,-172.82 314,-154.32 337.5,-154.32 337.5,-172.82"/>
<text text-anchor="middle" x="325.75" y="-160.27" font-family="Times,serif" font-size="9.00">&#45;1</text>
</g>
<!-- 6953 -->
<g id="node27" class="node">
<title>6953</title>
<ellipse fill="white" stroke="black" cx="369.75" cy="-89.03" rx="24.04" ry="24.04"/>
<text text-anchor="middle" x="369.75" y="-85.73" font-family="Times,serif" font-size="9.00">6953</text>
</g>
<!-- &#45;1&#45;&gt;6953 -->
<g id="edge11" class="edge">
<title>&#45;1&#45;&gt;6953</title>
<path fill="none" stroke="red" stroke-width="0.25" d="M330.97,-153.96C336.21,-145.33 344.57,-131.54 352.2,-118.97"/>
<polygon fill="red" stroke="red" stroke-width="0.25" points="355.17,-120.82 357.36,-110.46 349.18,-117.19 355.17,-120.82"/>
</g>
<!-- &#45;2 -->
<g id="node2" class="node">
<title>&#45;2</title>
<polygon fill="lightgray" stroke="black" points="735.5,-172.82 712,-172.82 712,-154.32 735.5,-154.32 735.5,-172.82"/>
<text text-anchor="middle" x="723.75" y="-160.27" font-family="Times,serif" font-size="9.00">&#45;2</text>
</g>
<!-- &#45;3 -->
<g id="node3" class="node">
<title>&#45;3</title>
<polygon fill="lightgray" stroke="black" points="517.5,-172.82 494,-172.82 494,-154.32 517.5,-154.32 517.5,-172.82"/>
<text text-anchor="middle" x="505.75" y="-160.27" font-family="Times,serif" font-size="9.00">&#45;3</text>
</g>
<!-- 6952 -->
<g id="node26" class="node">
<title>6952</title>
<ellipse fill="white" stroke="black" cx="568.75" cy="-89.03" rx="24.04" ry="24.04"/>
<text text-anchor="middle" x="568.75" y="-85.73" font-family="Times,serif" font-size="9.00">6952</text>
</g>
<!-- &#45;3&#45;&gt;6952 -->
<g id="edge7" class="edge">
<title>&#45;3&#45;&gt;6952</title>
<path fill="none" stroke="green" stroke-width="0.13" stroke-dasharray="1,5" d="M513.22,-153.96C521.45,-144.49 535.07,-128.82 546.75,-115.36"/>
<polygon fill="green" stroke="green" stroke-width="0.13" points="549.32,-117.75 553.23,-107.9 544.03,-113.16 549.32,-117.75"/>
</g>
<!-- &#45;3&#45;&gt;6953 -->
<g id="edge27" class="edge">
<title>&#45;3&#45;&gt;6953</title>
<path fill="none" stroke="green" stroke-width="0.22" stroke-dasharray="1,5" d="M493.88,-154.66C490.93,-152.77 487.75,-150.81 484.75,-149.07 456.72,-132.92 423.8,-116.24 400.38,-104.75"/>
<polygon fill="green" stroke="green" stroke-width="0.22" points="402.1,-101.69 391.57,-100.45 399.03,-107.98 402.1,-101.69"/>
</g>
<!-- &#45;4 -->
<g id="node4" class="node">
<title>&#45;4</title>
<polygon fill="lightgray" stroke="black" points="23.5,-172.82 0,-172.82 0,-154.32 23.5,-154.32 23.5,-172.82"/>
<text text-anchor="middle" x="11.75" y="-160.27" font-family="Times,serif" font-size="9.00">&#45;4</text>
</g>
<!-- 6954 -->
<g id="node28" class="node">
<title>6954</title>
<ellipse fill="white" stroke="black" cx="170.75" cy="-89.03" rx="24.04" ry="24.04"/>
<text text-anchor="middle" x="170.75" y="-85.73" font-family="Times,serif" font-size="9.00">6954</text>
</g>
<!-- &#45;4&#45;&gt;6954 -->
<g id="edge22" class="edge">
<title>&#45;4&#45;&gt;6954</title>
<path fill="none" stroke="red" stroke-width="0.16" d="M23.98,-154.23C26.81,-152.43 29.84,-150.62 32.75,-149.07 67.96,-130.39 110.37,-112.96 138.79,-101.95"/>
<polygon fill="red" stroke="red" stroke-width="0.16" points="139.92,-105.27 148,-98.42 137.41,-98.73 139.92,-105.27"/>
</g>
<!-- &#45;5 -->
<g id="node5" class="node">
<title>&#45;5</title>
<polygon fill="lightgray" stroke="black" points="559.5,-172.82 536,-172.82 536,-154.32 559.5,-154.32 559.5,-172.82"/>
<text text-anchor="middle" x="547.75" y="-160.27" font-family="Times,serif" font-size="9.00">&#45;5</text>
</g>
<!-- &#45;5&#45;&gt;6952 -->
<g id="edge19" class="edge">
<title>&#45;5&#45;&gt;6952</title>
<path fill="none" stroke="red" stroke-width="0.41" d="M550.24,-153.96C552.51,-146.13 556.01,-134.05 559.35,-122.49"/>
<polygon fill="red" stroke="red" stroke-width="0.41" points="562.63,-123.77 562.05,-113.19 555.9,-121.82 562.63,-123.77"/>
</g>
<!-- &#45;5&#45;&gt;6953 -->
<g id="edge12" class="edge">
<title>&#45;5&#45;&gt;6953</title>
<path fill="none" stroke="green" stroke-width="0.39" d="M535.57,-154.13C532.74,-152.34 529.69,-150.55 526.75,-149.07 485.42,-128.32 434.95,-110.59 402.58,-100.13"/>
<polygon fill="green" stroke="green" stroke-width="0.39" points="403.9,-96.87 393.31,-97.17 401.77,-103.54 403.9,-96.87"/>
</g>
<!-- &#45;6 -->
<g id="node6" class="node">
<title>&#45;6</title>
<polygon fill="lightgray" stroke="black" points="777.5,-172.82 754,-172.82 754,-154.32 777.5,-154.32 777.5,-172.82"/>
<text text-anchor="middle" x="765.75" y="-160.27" font-family="Times,serif" font-size="9.00">&#45;6</text>
</g>
<!-- &#45;7 -->
<g id="node7" class="node">
<title>&#45;7</title>
<polygon fill="lightgray" stroke="black" points="819.5,-172.82 796,-172.82 796,-154.32 819.5,-154.32 819.5,-172.82"/>
<text text-anchor="middle" x="807.75" y="-160.27" font-family="Times,serif" font-size="9.00">&#45;7</text>
</g>
<!-- &#45;8 -->
<g id="node8" class="node">
<title>&#45;8</title>
<polygon fill="lightgray" stroke="black" points="601.5,-172.82 578,-172.82 578,-154.32 601.5,-154.32 601.5,-172.82"/>
<text text-anchor="middle" x="589.75" y="-160.27" font-family="Times,serif" font-size="9.00">&#45;8</text>
</g>
<!-- &#45;8&#45;&gt;6952 -->
<g id="edge13" class="edge">
<title>&#45;8&#45;&gt;6952</title>
<path fill="none" stroke="green" stroke-width="0.29" stroke-dasharray="1,5" d="M587.26,-153.96C584.99,-146.13 581.49,-134.05 578.15,-122.49"/>
<polygon fill="green" stroke="green" stroke-width="0.29" points="581.54,-121.64 575.4,-113.01 574.82,-123.58 581.54,-121.64"/>
</g>
<!-- &#45;8&#45;&gt;6953 -->
<g id="edge16" class="edge">
<title>&#45;8&#45;&gt;6953</title>
<path fill="none" stroke="red" stroke-width="0.24" d="M577.64,-153.97C574.81,-152.19 571.74,-150.45 568.75,-149.07 513.27,-123.64 444.1,-106.02 403.63,-97"/>
<polygon fill="red" stroke="red" stroke-width="0.24" points="404.38,-93.58 393.87,-94.87 402.89,-100.42 404.38,-93.58"/>
</g>
<!-- &#45;9 -->
<g id="node9" class="node">
<title>&#45;9</title>
<polygon fill="lightgray" stroke="black" points="249.5,-172.82 226,-172.82 226,-154.32 249.5,-154.32 249.5,-172.82"/>
<text text-anchor="middle" x="237.75" y="-160.27" font-family="Times,serif" font-size="9.00">&#45;9</text>
</g>
<!-- &#45;9&#45;&gt;6953 -->
<g id="edge9" class="edge">
<title>&#45;9&#45;&gt;6953</title>
<path fill="none" stroke="red" stroke-width="0.1" stroke-dasharray="1,5" d="M249.64,-154.69C252.59,-152.8 255.76,-150.83 258.75,-149.07 285.73,-133.27 317.27,-116.66 339.83,-105.1"/>
<polygon fill="red" stroke="red" stroke-width="0.1" points="341.14,-108.36 348.46,-100.7 337.96,-102.12 341.14,-108.36"/>
</g>
<!-- &#45;9&#45;&gt;6954 -->
<g id="edge8" class="edge">
<title>&#45;9&#45;&gt;6954</title>
<path fill="none" stroke="red" stroke-width="0.64" stroke-dasharray="1,5" d="M229.8,-153.96C221.07,-144.52 206.65,-128.9 194.25,-115.47"/>
<polygon fill="red" stroke="red" stroke-width="0.64" points="196.86,-113.14 187.5,-108.17 191.72,-117.89 196.86,-113.14"/>
</g>
<!-- &#45;10 -->
<g id="node10" class="node">
<title>&#45;10</title>
<polygon fill="lightgray" stroke="black" points="647.75,-172.82 619.75,-172.82 619.75,-154.32 647.75,-154.32 647.75,-172.82"/>
<text text-anchor="middle" x="633.75" y="-160.27" font-family="Times,serif" font-size="9.00">&#45;10</text>
</g>
<!-- &#45;10&#45;&gt;6952 -->
<g id="edge1" class="edge">
<title>&#45;10&#45;&gt;6952</title>
<path fill="none" stroke="red" stroke-width="0.11" d="M626.04,-153.96C617.41,-144.34 603.05,-128.31 590.87,-114.71"/>
<polygon fill="red" stroke="red" stroke-width="0.11" points="593.76,-112.7 584.48,-107.59 588.55,-117.37 593.76,-112.7"/>
</g>
<!-- &#45;11 -->
<g id="node11" class="node">
<title>&#45;11</title>
<polygon fill="lightgray" stroke="black" points="295.75,-172.82 267.75,-172.82 267.75,-154.32 295.75,-154.32 295.75,-172.82"/>
<text text-anchor="middle" x="281.75" y="-160.27" font-family="Times,serif" font-size="9.00">&#45;11</text>
</g>
<!-- &#45;11&#45;&gt;6953 -->
<g id="edge14" class="edge">
<title>&#45;11&#45;&gt;6953</title>
<path fill="none" stroke="green" stroke-width="0.35" stroke-dasharray="1,5" d="M292.19,-153.96C304.71,-143.64 326.16,-125.97 343.33,-111.81"/>
<polygon fill="green" stroke="green" stroke-width="0.35" points="345.45,-114.6 350.94,-105.54 341,-109.19 345.45,-114.6"/>
</g>
<!-- &#45;11&#45;&gt;6954 -->
<g id="edge6" class="edge">
<title>&#45;11&#45;&gt;6954</title>
<path fill="none" stroke="green" stroke-width="0.59" stroke-dasharray="1,5" d="M268.58,-153.96C251.7,-142.93 221.95,-123.49 199.67,-108.93"/>
<polygon fill="green" stroke="green" stroke-width="0.59" points="201.67,-106.06 191.38,-103.52 197.84,-111.92 201.67,-106.06"/>
</g>
<!-- &#45;12 -->
<g id="node12" class="node">
<title>&#45;12</title>
<polygon fill="lightgray" stroke="black" points="161.75,-172.82 133.75,-172.82 133.75,-154.32 161.75,-154.32 161.75,-172.82"/>
<text text-anchor="middle" x="147.75" y="-160.27" font-family="Times,serif" font-size="9.00">&#45;12</text>
</g>
<!-- &#45;12&#45;&gt;6953 -->
<g id="edge2" class="edge">
<title>&#45;12&#45;&gt;6953</title>
<path fill="none" stroke="green" stroke-width="0.16" d="M161.09,-154.01C164.18,-152.23 167.52,-150.48 170.75,-149.07 226.86,-124.72 296.04,-106.71 336.3,-97.33"/>
<polygon fill="green" stroke="green" stroke-width="0.16" points="336.92,-100.78 345.89,-95.14 335.36,-93.96 336.92,-100.78"/>
</g>
<!-- &#45;12&#45;&gt;6954 -->
<g id="edge24" class="edge">
<title>&#45;12&#45;&gt;6954</title>
<path fill="none" stroke="red" stroke-width="0.16" d="M150.48,-153.96C153.01,-145.99 156.93,-133.62 160.65,-121.88"/>
<polygon fill="red" stroke="red" stroke-width="0.16" points="163.94,-123.1 163.62,-112.51 157.26,-120.99 163.94,-123.1"/>
</g>
<!-- &#45;13 -->
<g id="node13" class="node">
<title>&#45;13</title>
<polygon fill="lightgray" stroke="black" points="383.75,-172.82 355.75,-172.82 355.75,-154.32 383.75,-154.32 383.75,-172.82"/>
<text text-anchor="middle" x="369.75" y="-160.27" font-family="Times,serif" font-size="9.00">&#45;13</text>
</g>
<!-- &#45;13&#45;&gt;6953 -->
<g id="edge3" class="edge">
<title>&#45;13&#45;&gt;6953</title>
<path fill="none" stroke="green" stroke-width="0.52" d="M369.75,-153.96C369.75,-146.53 369.75,-135.29 369.75,-124.29"/>
<polygon fill="green" stroke="green" stroke-width="0.52" points="373.25,-124.32 369.75,-114.32 366.25,-124.32 373.25,-124.32"/>
</g>
<!-- &#45;14 -->
<g id="node14" class="node">
<title>&#45;14</title>
<polygon fill="lightgray" stroke="black" points="865.75,-172.82 837.75,-172.82 837.75,-154.32 865.75,-154.32 865.75,-172.82"/>
<text text-anchor="middle" x="851.75" y="-160.27" font-family="Times,serif" font-size="9.00">&#45;14</text>
</g>
<!-- &#45;15 -->
<g id="node15" class="node">
<title>&#45;15</title>
<polygon fill="lightgray" stroke="black" points="207.75,-172.82 179.75,-172.82 179.75,-154.32 207.75,-154.32 207.75,-172.82"/>
<text text-anchor="middle" x="193.75" y="-160.27" font-family="Times,serif" font-size="9.00">&#45;15</text>
</g>
<!-- &#45;15&#45;&gt;6953 -->
<g id="edge5" class="edge">
<title>&#45;15&#45;&gt;6953</title>
<path fill="none" stroke="red" stroke-width="0.5" stroke-dasharray="1,5" d="M207.66,-153.92C210.61,-152.22 213.75,-150.52 216.75,-149.07 257.07,-129.63 305.57,-111.8 337,-100.93"/>
<polygon fill="red" stroke="red" stroke-width="0.5" points="337.92,-104.32 346.25,-97.77 335.66,-97.69 337.92,-104.32"/>
</g>
<!-- &#45;15&#45;&gt;6954 -->
<g id="edge18" class="edge">
<title>&#45;15&#45;&gt;6954</title>
<path fill="none" stroke="red" stroke-width="0.17" stroke-dasharray="1,5" d="M191.02,-153.96C188.49,-145.99 184.57,-133.62 180.85,-121.88"/>
<polygon fill="red" stroke="red" stroke-width="0.17" points="184.24,-121 177.88,-112.52 177.57,-123.11 184.24,-121"/>
</g>
<!-- &#45;16 -->
<g id="node16" class="node">
<title>&#45;16</title>
<polygon fill="lightgray" stroke="black" points="69.75,-172.82 41.75,-172.82 41.75,-154.32 69.75,-154.32 69.75,-172.82"/>
<text text-anchor="middle" x="55.75" y="-160.27" font-family="Times,serif" font-size="9.00">&#45;16</text>
</g>
<!-- &#45;16&#45;&gt;6954 -->
<g id="edge4" class="edge">
<title>&#45;16&#45;&gt;6954</title>
<path fill="none" stroke="red" stroke-width="0.25" stroke-dasharray="1,5" d="M69.39,-153.96C87.15,-142.77 118.63,-122.91 141.81,-108.28"/>
<polygon fill="red" stroke="red" stroke-width="0.25" points="143.65,-111.27 150.24,-102.97 139.91,-105.34 143.65,-111.27"/>
</g>
<!-- &#45;17 -->
<g id="node17" class="node">
<title>&#45;17</title>
<polygon fill="lightgray" stroke="black" points="429.75,-172.82 401.75,-172.82 401.75,-154.32 429.75,-154.32 429.75,-172.82"/>
<text text-anchor="middle" x="415.75" y="-160.27" font-family="Times,serif" font-size="9.00">&#45;17</text>
</g>
<!-- &#45;17&#45;&gt;6953 -->
<g id="edge21" class="edge">
<title>&#45;17&#45;&gt;6953</title>
<path fill="none" stroke="red" stroke-width="0.21" d="M410.29,-153.96C404.72,-145.18 395.78,-131.07 387.7,-118.34"/>
<polygon fill="red" stroke="red" stroke-width="0.21" points="390.79,-116.67 382.47,-110.1 384.87,-120.42 390.79,-116.67"/>
</g>
<!-- &#45;18 -->
<g id="node18" class="node">
<title>&#45;18</title>
<polygon fill="lightgray" stroke="black" points="115.75,-172.82 87.75,-172.82 87.75,-154.32 115.75,-154.32 115.75,-172.82"/>
<text text-anchor="middle" x="101.75" y="-160.27" font-family="Times,serif" font-size="9.00">&#45;18</text>
</g>
<!-- &#45;18&#45;&gt;6954 -->
<g id="edge15" class="edge">
<title>&#45;18&#45;&gt;6954</title>
<path fill="none" stroke="red" stroke-width="0.17" d="M109.94,-153.96C119.15,-144.28 134.54,-128.1 147.53,-114.45"/>
<polygon fill="red" stroke="red" stroke-width="0.17" points="149.91,-117.02 154.27,-107.36 144.84,-112.19 149.91,-117.02"/>
</g>
<!-- &#45;19 -->
<g id="node19" class="node">
<title>&#45;19</title>
<polygon fill="lightgray" stroke="black" points="475.75,-172.82 447.75,-172.82 447.75,-154.32 475.75,-154.32 475.75,-172.82"/>
<text text-anchor="middle" x="461.75" y="-160.27" font-family="Times,serif" font-size="9.00">&#45;19</text>
</g>
<!-- &#45;19&#45;&gt;6953 -->
<g id="edge26" class="edge">
<title>&#45;19&#45;&gt;6953</title>
<path fill="none" stroke="red" stroke-width="0.37" d="M450.84,-153.96C437.46,-143.42 414.35,-125.2 396.21,-110.9"/>
<polygon fill="red" stroke="red" stroke-width="0.37" points="398.74,-108.43 388.72,-104.99 394.4,-113.93 398.74,-108.43"/>
</g>
<!-- &#45;20 -->
<g id="node20" class="node">
<title>&#45;20</title>
<polygon fill="lightgray" stroke="black" points="693.75,-172.82 665.75,-172.82 665.75,-154.32 693.75,-154.32 693.75,-172.82"/>
<text text-anchor="middle" x="679.75" y="-160.27" font-family="Times,serif" font-size="9.00">&#45;20</text>
</g>
<!-- &#45;20&#45;&gt;6952 -->
<g id="edge20" class="edge">
<title>&#45;20&#45;&gt;6952</title>
<path fill="none" stroke="green" stroke-width="0.18" d="M666.58,-153.96C649.55,-142.83 619.41,-123.14 597.08,-108.54"/>
<polygon fill="green" stroke="green" stroke-width="0.18" points="599.16,-105.72 588.87,-103.18 595.33,-111.58 599.16,-105.72"/>
</g>
<!-- 0 -->
<g id="node21" class="node">
<title>0</title>
<ellipse fill="lightblue" stroke="black" cx="897.75" cy="-163.57" rx="14.5" ry="14.5"/>
<text text-anchor="middle" x="897.75" y="-160.27" font-family="Times,serif" font-size="9.00">0</text>
</g>
<!-- 0&#45;&gt;0 -->
<g id="edge28" class="edge">
<title>0&#45;&gt;0</title>
<path fill="none" stroke="red" stroke-width="0.7" d="M907.73,-174.27C918.31,-180.97 930.25,-177.4 930.25,-163.57 930.25,-154.28 924.86,-149.62 918.11,-149.59"/>
<polygon fill="red" stroke="red" stroke-width="0.7" points="917.22,-146.21 908.73,-152.56 919.32,-152.88 917.22,-146.21"/>
</g>
<!-- 1 -->
<g id="node22" class="node">
<title>1</title>
<ellipse fill="lightblue" stroke="black" cx="370.75" cy="-14.5" rx="14.5" ry="14.5"/>
<text text-anchor="middle" x="370.75" y="-11.2" font-family="Times,serif" font-size="9.00">1</text>
</g>
<!-- 2 -->
<g id="node23" class="node">
<title>2</title>
<ellipse fill="lightblue" stroke="black" cx="962.75" cy="-163.57" rx="14.5" ry="14.5"/>
<text text-anchor="middle" x="962.75" y="-160.27" font-family="Times,serif" font-size="9.00">2</text>
</g>
<!-- 3 -->
<g id="node24" class="node">
<title>3</title>
<ellipse fill="lightblue" stroke="black" cx="170.75" cy="-14.5" rx="14.5" ry="14.5"/>
<text text-anchor="middle" x="170.75" y="-11.2" font-family="Times,serif" font-size="9.00">3</text>
</g>
<!-- 4 -->
<g id="node25" class="node">
<title>4</title>
<ellipse fill="lightblue" stroke="black" cx="1009.75" cy="-163.57" rx="14.5" ry="14.5"/>
<text text-anchor="middle" x="1009.75" y="-160.27" font-family="Times,serif" font-size="9.00">4</text>
</g>
<!-- 6952&#45;&gt;1 -->
<g id="edge23" class="edge">
<title>6952&#45;&gt;1</title>
<path fill="none" stroke="green" stroke-width="0.2" d="M546.42,-79.85C508.54,-65.98 432.08,-37.96 393.75,-23.92"/>
<polygon fill="green" stroke="green" stroke-width="0.2" points="395.32,-20.77 384.72,-20.61 392.91,-27.34 395.32,-20.77"/>
</g>
<!-- 6953&#45;&gt;6953 -->
<g id="edge10" class="edge">
<title>6953&#45;&gt;6953</title>
<path fill="none" stroke="green" stroke-width="0.37" stroke-dasharray="1,5" d="M390.08,-102.34C401.38,-104.82 411.79,-100.39 411.79,-89.03 411.79,-81.4 407.09,-76.9 400.58,-75.52"/>
<polygon fill="green" stroke="green" stroke-width="0.37" points="400.57,-72.02 390.64,-75.71 400.71,-79.01 400.57,-72.02"/>
</g>
<!-- 6954&#45;&gt;1 -->
<g id="edge25" class="edge">
<title>6954&#45;&gt;1</title>
<path fill="none" stroke="green" stroke-width="0.13" d="M193.3,-79.85C231.75,-65.91 309.56,-37.69 348.08,-23.72"/>
<polygon fill="green" stroke="green" stroke-width="0.13" points="349.02,-27.1 357.23,-20.4 346.64,-20.52 349.02,-27.1"/>
</g>
<!-- 6954&#45;&gt;3 -->
<g id="edge17" class="edge">
<title>6954&#45;&gt;3</title>
<path fill="none" stroke="green" stroke-width="0.56" d="M170.75,-64.68C170.75,-56.69 170.75,-47.73 170.75,-39.67"/>
<polygon fill="green" stroke="green" stroke-width="0.56" points="174.25,-39.93 170.75,-29.93 167.25,-39.93 174.25,-39.93"/>
</g>
</g>
</svg>
