<?xml version="1.0" encoding="UTF-8" standalone="no"?>
<!DOCTYPE svg PUBLIC "-//W3C//DTD SVG 1.1//EN"
 "http://www.w3.org/Graphics/SVG/1.1/DTD/svg11.dtd">
<!-- Generated by graphviz version 12.1.1 (20240910.0053)
 -->
<!-- Pages: 1 -->
<svg width="764pt" height="289pt"
 viewBox="0.00 0.00 764.00 289.24" xmlns="http://www.w3.org/2000/svg" xmlns:xlink="http://www.w3.org/1999/xlink">
<g id="graph0" class="graph" transform="scale(1 1) rotate(0) translate(4 285.24)">
<polygon fill="white" stroke="none" points="-4,4 -4,-285.24 760,-285.24 760,4 -4,4"/>
<!-- &#45;1 -->
<g id="node1" class="node">
<title>&#45;1</title>
<polygon fill="lightgray" stroke="black" points="348.75,-276 325.25,-276 325.25,-257.5 348.75,-257.5 348.75,-276"/>
<text text-anchor="middle" x="337" y="-263.45" font-family="Times,serif" font-size="9.00">&#45;1</text>
</g>
<!-- 6953 -->
<g id="node27" class="node">
<title>6953</title>
<ellipse fill="white" stroke="black" cx="367" cy="-108.12" rx="24.04" ry="24.04"/>
<text text-anchor="middle" x="367" y="-104.82" font-family="Times,serif" font-size="9.00">6953</text>
</g>
<!-- &#45;1&#45;&gt;6953 -->
<g id="edge11" class="edge">
<title>&#45;1&#45;&gt;6953</title>
<path fill="none" stroke="red" stroke-width="0.21" d="M349.12,-257.95C370.47,-244.22 412.55,-217.08 413,-216.25 423.18,-197.46 419.94,-188.38 413,-168.17 408.47,-154.98 399.65,-142.47 390.94,-132.39"/>
<polygon fill="red" stroke="red" stroke-width="0.21" points="393.6,-130.12 384.28,-125.1 388.44,-134.84 393.6,-130.12"/>
</g>
<!-- 7246 -->
<g id="node30" class="node">
<title>7246</title>
<ellipse fill="white" stroke="black" cx="242" cy="-192.21" rx="24.04" ry="24.04"/>
<text text-anchor="middle" x="242" y="-188.91" font-family="Times,serif" font-size="9.00">7246</text>
</g>
<!-- &#45;1&#45;&gt;7246 -->
<g id="edge27" class="edge">
<title>&#45;1&#45;&gt;7246</title>
<path fill="none" stroke="green" stroke-width="0.27" stroke-dasharray="1,5" d="M325.73,-257.14C311.83,-246.53 287.76,-228.15 268.98,-213.81"/>
<polygon fill="green" stroke="green" stroke-width="0.27" points="271.17,-211.08 261.1,-207.79 266.93,-216.64 271.17,-211.08"/>
</g>
<!-- &#45;2 -->
<g id="node2" class="node">
<title>&#45;2</title>
<polygon fill="lightgray" stroke="black" points="390.75,-276 367.25,-276 367.25,-257.5 390.75,-257.5 390.75,-276"/>
<text text-anchor="middle" x="379" y="-263.45" font-family="Times,serif" font-size="9.00">&#45;2</text>
</g>
<!-- &#45;3 -->
<g id="node3" class="node">
<title>&#45;3</title>
<polygon fill="lightgray" stroke="black" points="115.75,-201.46 92.25,-201.46 92.25,-182.96 115.75,-182.96 115.75,-201.46"/>
<text text-anchor="middle" x="104" y="-188.91" font-family="Times,serif" font-size="9.00">&#45;3</text>
</g>
<!-- 6952 -->
<g id="node26" class="node">
<title>6952</title>
<ellipse fill="white" stroke="black" cx="104" cy="-108.12" rx="24.04" ry="24.04"/>
<text text-anchor="middle" x="104" y="-104.82" font-family="Times,serif" font-size="9.00">6952</text>
</g>
<!-- &#45;3&#45;&gt;6952 -->
<g id="edge7" class="edge">
<title>&#45;3&#45;&gt;6952</title>
<path fill="none" stroke="green" stroke-width="0.13" d="M104,-182.73C104,-173.21 104,-157.17 104,-142.49"/>
<polygon fill="green" stroke="green" stroke-width="0.13" points="107.5,-142.83 104,-132.83 100.5,-142.83 107.5,-142.83"/>
</g>
<!-- &#45;3&#45;&gt;6953 -->
<g id="edge25" class="edge">
<title>&#45;3&#45;&gt;6953</title>
<path fill="none" stroke="green" stroke-width="0.12" stroke-dasharray="1,5" d="M109.68,-182.79C113.46,-177.82 118.86,-171.81 125,-168.17 191.53,-128.69 283.24,-115.56 332.46,-111.22"/>
<polygon fill="green" stroke="green" stroke-width="0.12" points="332.72,-114.71 342.4,-110.42 332.15,-107.74 332.72,-114.71"/>
</g>
<!-- &#45;4 -->
<g id="node4" class="node">
<title>&#45;4</title>
<polygon fill="lightgray" stroke="black" points="709.75,-201.46 686.25,-201.46 686.25,-182.96 709.75,-182.96 709.75,-201.46"/>
<text text-anchor="middle" x="698" y="-188.91" font-family="Times,serif" font-size="9.00">&#45;4</text>
</g>
<!-- 6954 -->
<g id="node28" class="node">
<title>6954</title>
<ellipse fill="white" stroke="black" cx="631" cy="-108.12" rx="24.04" ry="24.04"/>
<text text-anchor="middle" x="631" y="-104.82" font-family="Times,serif" font-size="9.00">6954</text>
</g>
<!-- &#45;4&#45;&gt;6954 -->
<g id="edge21" class="edge">
<title>&#45;4&#45;&gt;6954</title>
<path fill="none" stroke="green" stroke-width="0.21" stroke-dasharray="1,5" d="M691.08,-182.73C681.95,-171.54 665.45,-151.32 652.05,-134.91"/>
<polygon fill="green" stroke="green" stroke-width="0.21" points="655,-132.99 645.97,-127.46 649.58,-137.42 655,-132.99"/>
</g>
<!-- &#45;5 -->
<g id="node5" class="node">
<title>&#45;5</title>
<polygon fill="lightgray" stroke="black" points="157.75,-201.46 134.25,-201.46 134.25,-182.96 157.75,-182.96 157.75,-201.46"/>
<text text-anchor="middle" x="146" y="-188.91" font-family="Times,serif" font-size="9.00">&#45;5</text>
</g>
<!-- &#45;5&#45;&gt;6952 -->
<g id="edge18" class="edge">
<title>&#45;5&#45;&gt;6952</title>
<path fill="none" stroke="red" stroke-width="0.68" stroke-dasharray="1,5" d="M141.66,-182.73C136.47,-172.59 127.49,-155.02 119.59,-139.6"/>
<polygon fill="red" stroke="red" stroke-width="0.68" points="122.76,-138.1 115.09,-130.79 116.53,-141.29 122.76,-138.1"/>
</g>
<!-- &#45;5&#45;&gt;6953 -->
<g id="edge12" class="edge">
<title>&#45;5&#45;&gt;6953</title>
<path fill="none" stroke="green" stroke-width="0.32" d="M151.75,-182.9C155.55,-177.97 160.94,-171.96 167,-168.17 219.36,-135.38 290.78,-120.07 332.59,-113.5"/>
<polygon fill="green" stroke="green" stroke-width="0.32" points="332.95,-116.99 342.32,-112.05 331.91,-110.07 332.95,-116.99"/>
</g>
<!-- &#45;6 -->
<g id="node6" class="node">
<title>&#45;6</title>
<polygon fill="lightgray" stroke="black" points="432.75,-276 409.25,-276 409.25,-257.5 432.75,-257.5 432.75,-276"/>
<text text-anchor="middle" x="421" y="-263.45" font-family="Times,serif" font-size="9.00">&#45;6</text>
</g>
<!-- &#45;7 -->
<g id="node7" class="node">
<title>&#45;7</title>
<polygon fill="lightgray" stroke="black" points="474.75,-276 451.25,-276 451.25,-257.5 474.75,-257.5 474.75,-276"/>
<text text-anchor="middle" x="463" y="-263.45" font-family="Times,serif" font-size="9.00">&#45;7</text>
</g>
<!-- &#45;8 -->
<g id="node8" class="node">
<title>&#45;8</title>
<polygon fill="lightgray" stroke="black" points="199.75,-201.46 176.25,-201.46 176.25,-182.96 199.75,-182.96 199.75,-201.46"/>
<text text-anchor="middle" x="188" y="-188.91" font-family="Times,serif" font-size="9.00">&#45;8</text>
</g>
<!-- &#45;8&#45;&gt;6952 -->
<g id="edge13" class="edge">
<title>&#45;8&#45;&gt;6952</title>
<path fill="none" stroke="green" stroke-width="0.4" stroke-dasharray="1,5" d="M180.38,-182.52C176.46,-178.14 171.56,-172.79 167,-168.17 154.94,-155.94 141.06,-142.83 129.4,-132.08"/>
<polygon fill="green" stroke="green" stroke-width="0.4" points="131.92,-129.64 122.18,-125.46 127.19,-134.8 131.92,-129.64"/>
</g>
<!-- &#45;8&#45;&gt;6953 -->
<g id="edge16" class="edge">
<title>&#45;8&#45;&gt;6953</title>
<path fill="none" stroke="red" stroke-width="0.45" d="M194.2,-182.6C198.01,-177.81 203.26,-172.05 209,-168.17 247.74,-141.96 299.64,-125.48 333.2,-116.78"/>
<polygon fill="red" stroke="red" stroke-width="0.45" points="333.9,-120.21 342.75,-114.39 332.2,-113.42 333.9,-120.21"/>
</g>
<!-- &#45;9 -->
<g id="node9" class="node">
<title>&#45;9</title>
<polygon fill="lightgray" stroke="black" points="529.75,-201.46 506.25,-201.46 506.25,-182.96 529.75,-182.96 529.75,-201.46"/>
<text text-anchor="middle" x="518" y="-188.91" font-family="Times,serif" font-size="9.00">&#45;9</text>
</g>
<!-- &#45;9&#45;&gt;6953 -->
<g id="edge9" class="edge">
<title>&#45;9&#45;&gt;6953</title>
<path fill="none" stroke="red" stroke-width="0.46" d="M511.7,-182.74C507.85,-178 502.6,-172.24 497,-168.17 466.96,-146.31 427.55,-129.81 400.02,-119.89"/>
<polygon fill="red" stroke="red" stroke-width="0.46" points="401.36,-116.65 390.76,-116.64 399.04,-123.25 401.36,-116.65"/>
</g>
<!-- &#45;9&#45;&gt;6954 -->
<g id="edge8" class="edge">
<title>&#45;9&#45;&gt;6954</title>
<path fill="none" stroke="red" stroke-width="0.51" stroke-dasharray="1,5" d="M524.9,-182.6C528.78,-178.04 533.87,-172.5 539,-168.17 558.26,-151.9 582.31,-136.62 600.99,-125.68"/>
<polygon fill="red" stroke="red" stroke-width="0.51" points="602.62,-128.78 609.54,-120.75 599.13,-122.71 602.62,-128.78"/>
</g>
<!-- &#45;10 -->
<g id="node10" class="node">
<title>&#45;10</title>
<polygon fill="lightgray" stroke="black" points="74,-201.46 46,-201.46 46,-182.96 74,-182.96 74,-201.46"/>
<text text-anchor="middle" x="60" y="-188.91" font-family="Times,serif" font-size="9.00">&#45;10</text>
</g>
<!-- &#45;10&#45;&gt;6952 -->
<g id="edge1" class="edge">
<title>&#45;10&#45;&gt;6952</title>
<path fill="none" stroke="red" stroke-width="0.16" stroke-dasharray="1,5" d="M64.54,-182.73C70.09,-172.39 79.76,-154.35 88.13,-138.72"/>
<polygon fill="red" stroke="red" stroke-width="0.16" points="91.12,-140.56 92.76,-130.09 84.95,-137.25 91.12,-140.56"/>
</g>
<!-- &#45;11 -->
<g id="node11" class="node">
<title>&#45;11</title>
<polygon fill="lightgray" stroke="black" points="576,-201.46 548,-201.46 548,-182.96 576,-182.96 576,-201.46"/>
<text text-anchor="middle" x="562" y="-188.91" font-family="Times,serif" font-size="9.00">&#45;11</text>
</g>
<!-- &#45;11&#45;&gt;6953 -->
<g id="edge14" class="edge">
<title>&#45;11&#45;&gt;6953</title>
<path fill="none" stroke="green" stroke-width="0.45" stroke-dasharray="1,5" d="M555.1,-182.56C550.89,-177.76 545.14,-172 539,-168.17 515.5,-153.48 443.37,-131.18 400.34,-118.61"/>
<polygon fill="green" stroke="green" stroke-width="0.45" points="401.56,-115.32 390.98,-115.89 399.61,-122.04 401.56,-115.32"/>
</g>
<!-- &#45;11&#45;&gt;6954 -->
<g id="edge6" class="edge">
<title>&#45;11&#45;&gt;6954</title>
<path fill="none" stroke="green" stroke-width="0.49" stroke-dasharray="1,5" d="M569.12,-182.73C578.45,-171.64 595.22,-151.69 608.95,-135.36"/>
<polygon fill="green" stroke="green" stroke-width="0.49" points="611.56,-137.69 615.32,-127.78 606.21,-133.18 611.56,-137.69"/>
</g>
<!-- &#45;12 -->
<g id="node12" class="node">
<title>&#45;12</title>
<polygon fill="lightgray" stroke="black" points="622,-201.46 594,-201.46 594,-182.96 622,-182.96 622,-201.46"/>
<text text-anchor="middle" x="608" y="-188.91" font-family="Times,serif" font-size="9.00">&#45;12</text>
</g>
<!-- &#45;12&#45;&gt;6953 -->
<g id="edge2" class="edge">
<title>&#45;12&#45;&gt;6953</title>
<path fill="none" stroke="red" stroke-width="0.21" stroke-dasharray="1,5" d="M601.58,-182.86C597.37,-177.91 591.46,-171.9 585,-168.17 531.62,-137.29 510.51,-148.32 451,-132.17 434.12,-127.58 415.35,-122.44 399.84,-118.17"/>
<polygon fill="red" stroke="red" stroke-width="0.21" points="401.04,-114.88 390.47,-115.6 399.18,-121.62 401.04,-114.88"/>
</g>
<!-- &#45;12&#45;&gt;6954 -->
<g id="edge23" class="edge">
<title>&#45;12&#45;&gt;6954</title>
<path fill="none" stroke="red" stroke-width="0.4" stroke-dasharray="1,5" d="M610.37,-182.73C613.1,-173.01 617.73,-156.5 621.91,-141.57"/>
<polygon fill="red" stroke="red" stroke-width="0.4" points="625.21,-142.74 624.54,-132.17 618.47,-140.86 625.21,-142.74"/>
</g>
<!-- &#45;13 -->
<g id="node13" class="node">
<title>&#45;13</title>
<polygon fill="lightgray" stroke="black" points="488,-201.46 460,-201.46 460,-182.96 488,-182.96 488,-201.46"/>
<text text-anchor="middle" x="474" y="-188.91" font-family="Times,serif" font-size="9.00">&#45;13</text>
</g>
<!-- 4 -->
<g id="node25" class="node">
<title>4</title>
<ellipse fill="lightblue" stroke="black" cx="474" cy="-108.12" rx="14.5" ry="14.5"/>
<text text-anchor="middle" x="474" y="-104.82" font-family="Times,serif" font-size="9.00">4</text>
</g>
<!-- &#45;13&#45;&gt;4 -->
<g id="edge29" class="edge">
<title>&#45;13&#45;&gt;4</title>
<path fill="none" stroke="red" stroke-width="0.33" d="M474,-182.73C474,-171.11 474,-149.75 474,-133.02"/>
<polygon fill="red" stroke="red" stroke-width="0.33" points="477.5,-133.35 474,-123.35 470.5,-133.35 477.5,-133.35"/>
</g>
<!-- &#45;13&#45;&gt;6953 -->
<g id="edge3" class="edge">
<title>&#45;13&#45;&gt;6953</title>
<path fill="none" stroke="green" stroke-width="0.35" d="M463.72,-182.56C458.47,-178.18 451.94,-172.83 446,-168.17 429.22,-155 410.07,-140.67 394.82,-129.43"/>
<polygon fill="green" stroke="green" stroke-width="0.35" points="396.9,-126.61 386.77,-123.51 392.75,-132.25 396.9,-126.61"/>
</g>
<!-- &#45;14 -->
<g id="node14" class="node">
<title>&#45;14</title>
<polygon fill="lightgray" stroke="black" points="521,-276 493,-276 493,-257.5 521,-257.5 521,-276"/>
<text text-anchor="middle" x="507" y="-263.45" font-family="Times,serif" font-size="9.00">&#45;14</text>
</g>
<!-- &#45;15 -->
<g id="node15" class="node">
<title>&#45;15</title>
<polygon fill="lightgray" stroke="black" points="312,-201.46 284,-201.46 284,-182.96 312,-182.96 312,-201.46"/>
<text text-anchor="middle" x="298" y="-188.91" font-family="Times,serif" font-size="9.00">&#45;15</text>
</g>
<!-- &#45;15&#45;&gt;6953 -->
<g id="edge5" class="edge">
<title>&#45;15&#45;&gt;6953</title>
<path fill="none" stroke="red" stroke-width="0.32" stroke-dasharray="1,5" d="M305.12,-182.73C314.53,-171.54 331.53,-151.32 345.33,-134.91"/>
<polygon fill="red" stroke="red" stroke-width="0.32" points="347.73,-137.49 351.48,-127.59 342.37,-132.99 347.73,-137.49"/>
</g>
<!-- &#45;16 -->
<g id="node16" class="node">
<title>&#45;16</title>
<polygon fill="lightgray" stroke="black" points="756,-201.46 728,-201.46 728,-182.96 756,-182.96 756,-201.46"/>
<text text-anchor="middle" x="742" y="-188.91" font-family="Times,serif" font-size="9.00">&#45;16</text>
</g>
<!-- &#45;16&#45;&gt;6954 -->
<g id="edge4" class="edge">
<title>&#45;16&#45;&gt;6954</title>
<path fill="none" stroke="green" stroke-width="0.36" d="M734.28,-182.7C729.98,-178.17 724.41,-172.62 719,-168.17 700.37,-152.83 677.74,-137.72 660.09,-126.62"/>
<polygon fill="green" stroke="green" stroke-width="0.36" points="662.17,-123.79 651.82,-121.49 658.47,-129.74 662.17,-123.79"/>
</g>
<!-- &#45;17 -->
<g id="node17" class="node">
<title>&#45;17</title>
<polygon fill="lightgray" stroke="black" points="358,-201.46 330,-201.46 330,-182.96 358,-182.96 358,-201.46"/>
<text text-anchor="middle" x="344" y="-188.91" font-family="Times,serif" font-size="9.00">&#45;17</text>
</g>
<!-- &#45;17&#45;&gt;6953 -->
<g id="edge20" class="edge">
<title>&#45;17&#45;&gt;6953</title>
<path fill="none" stroke="red" stroke-width="0.27" stroke-dasharray="1,5" d="M346.37,-182.73C349.1,-173.01 353.73,-156.5 357.91,-141.57"/>
<polygon fill="red" stroke="red" stroke-width="0.27" points="361.27,-142.56 360.59,-131.98 354.53,-140.67 361.27,-142.56"/>
</g>
<!-- &#45;18 -->
<g id="node18" class="node">
<title>&#45;18</title>
<polygon fill="lightgray" stroke="black" points="668,-201.46 640,-201.46 640,-182.96 668,-182.96 668,-201.46"/>
<text text-anchor="middle" x="654" y="-188.91" font-family="Times,serif" font-size="9.00">&#45;18</text>
</g>
<!-- &#45;18&#45;&gt;6954 -->
<g id="edge15" class="edge">
<title>&#45;18&#45;&gt;6954</title>
<path fill="none" stroke="red" stroke-width="0.34" stroke-dasharray="1,5" d="M651.63,-182.73C648.9,-173.01 644.27,-156.5 640.09,-141.57"/>
<polygon fill="red" stroke="red" stroke-width="0.34" points="643.5,-140.78 637.44,-132.09 636.76,-142.67 643.5,-140.78"/>
</g>
<!-- &#45;19 -->
<g id="node19" class="node">
<title>&#45;19</title>
<polygon fill="lightgray" stroke="black" points="404,-201.46 376,-201.46 376,-182.96 404,-182.96 404,-201.46"/>
<text text-anchor="middle" x="390" y="-188.91" font-family="Times,serif" font-size="9.00">&#45;19</text>
</g>
<!-- &#45;19&#45;&gt;6953 -->
<g id="edge24" class="edge">
<title>&#45;19&#45;&gt;6953</title>
<path fill="none" stroke="red" stroke-width="0.18" d="M387.63,-182.73C384.88,-172.92 380.18,-156.18 375.97,-141.14"/>
<polygon fill="red" stroke="red" stroke-width="0.18" points="379.44,-140.54 373.37,-131.85 372.7,-142.42 379.44,-140.54"/>
</g>
<!-- &#45;20 -->
<g id="node20" class="node">
<title>&#45;20</title>
<polygon fill="lightgray" stroke="black" points="28,-201.46 0,-201.46 0,-182.96 28,-182.96 28,-201.46"/>
<text text-anchor="middle" x="14" y="-188.91" font-family="Times,serif" font-size="9.00">&#45;20</text>
</g>
<!-- &#45;20&#45;&gt;6952 -->
<g id="edge19" class="edge">
<title>&#45;20&#45;&gt;6952</title>
<path fill="none" stroke="green" stroke-width="0.25" d="M22.39,-182.54C26.69,-178.16 32.06,-172.81 37,-168.17 50.35,-155.63 65.64,-142.09 78.24,-131.14"/>
<polygon fill="green" stroke="green" stroke-width="0.25" points="80.53,-133.8 85.8,-124.61 75.95,-128.5 80.53,-133.8"/>
</g>
<!-- 0 -->
<g id="node21" class="node">
<title>0</title>
<ellipse fill="lightblue" stroke="black" cx="553" cy="-266.75" rx="14.5" ry="14.5"/>
<text text-anchor="middle" x="553" y="-263.45" font-family="Times,serif" font-size="9.00">0</text>
</g>
<!-- 0&#45;&gt;0 -->
<g id="edge26" class="edge">
<title>0&#45;&gt;0</title>
<path fill="none" stroke="red" stroke-width="0.29" d="M562.98,-277.44C573.56,-284.14 585.5,-280.58 585.5,-266.75 585.5,-257.02 579.6,-252.37 572.41,-252.8"/>
<polygon fill="red" stroke="red" stroke-width="0.29" points="571.71,-249.34 563.39,-255.91 573.99,-255.96 571.71,-249.34"/>
</g>
<!-- 1 -->
<g id="node22" class="node">
<title>1</title>
<ellipse fill="lightblue" stroke="black" cx="104" cy="-24.04" rx="14.5" ry="14.5"/>
<text text-anchor="middle" x="104" y="-20.74" font-family="Times,serif" font-size="9.00">1</text>
</g>
<!-- 2 -->
<g id="node23" class="node">
<title>2</title>
<ellipse fill="lightblue" stroke="black" cx="618" cy="-266.75" rx="14.5" ry="14.5"/>
<text text-anchor="middle" x="618" y="-263.45" font-family="Times,serif" font-size="9.00">2</text>
</g>
<!-- 3 -->
<g id="node24" class="node">
<title>3</title>
<ellipse fill="lightblue" stroke="black" cx="631" cy="-24.04" rx="14.5" ry="14.5"/>
<text text-anchor="middle" x="631" y="-20.74" font-family="Times,serif" font-size="9.00">3</text>
</g>
<!-- 6952&#45;&gt;1 -->
<g id="edge22" class="edge">
<title>6952&#45;&gt;1</title>
<path fill="none" stroke="green" stroke-width="0.28" d="M104,-83.82C104,-72.87 104,-59.84 104,-48.83"/>
<polygon fill="green" stroke="green" stroke-width="0.28" points="107.5,-49.08 104,-39.08 100.5,-49.08 107.5,-49.08"/>
</g>
<!-- 6953&#45;&gt;6953 -->
<g id="edge10" class="edge">
<title>6953&#45;&gt;6953</title>
<path fill="none" stroke="green" stroke-width="0.5" stroke-dasharray="1,5" d="M386.46,-122.91C398.09,-126.19 409.04,-121.26 409.04,-108.12 409.04,-99.09 403.87,-93.94 396.85,-92.67"/>
<polygon fill="green" stroke="green" stroke-width="0.5" points="396.97,-89.16 387.21,-93.3 397.42,-96.14 396.97,-89.16"/>
</g>
<!-- 7277 -->
<g id="node29" class="node">
<title>7277</title>
<ellipse fill="white" stroke="black" cx="367" cy="-24.04" rx="24.04" ry="24.04"/>
<text text-anchor="middle" x="367" y="-20.74" font-family="Times,serif" font-size="9.00">7277</text>
</g>
<!-- 6953&#45;&gt;7277 -->
<g id="edge30" class="edge">
<title>6953&#45;&gt;7277</title>
<path fill="none" stroke="red" stroke-width="0.24" d="M360.91,-84.7C360.28,-76.44 360.1,-66.91 360.37,-57.92"/>
<polygon fill="red" stroke="red" stroke-width="0.24" points="363.86,-58.26 360.87,-48.09 356.87,-57.9 363.86,-58.26"/>
</g>
<!-- 6954&#45;&gt;3 -->
<g id="edge17" class="edge">
<title>6954&#45;&gt;3</title>
<path fill="none" stroke="green" stroke-width="0.67" d="M631,-83.82C631,-73.1 631,-60.38 631,-49.52"/>
<polygon fill="green" stroke="green" stroke-width="0.67" points="634.5,-49.67 631,-39.67 627.5,-49.67 634.5,-49.67"/>
</g>
<!-- 7277&#45;&gt;6953 -->
<g id="edge31" class="edge">
<title>7277&#45;&gt;6953</title>
<path fill="none" stroke="green" stroke-width="0.2" stroke-dasharray="1,5" d="M373.11,-47.73C373.73,-56.01 373.9,-65.55 373.62,-74.53"/>
<polygon fill="green" stroke="green" stroke-width="0.2" points="370.13,-74.23 373.11,-84.4 377.12,-74.6 370.13,-74.23"/>
</g>
<!-- 7246&#45;&gt;6953 -->
<g id="edge28" class="edge">
<title>7246&#45;&gt;6953</title>
<path fill="none" stroke="green" stroke-width="0.46" stroke-dasharray="1,5" d="M261.46,-177.44C265.89,-174.35 270.59,-171.12 275,-168.17 295.81,-154.23 319.62,-138.97 337.8,-127.45"/>
<polygon fill="green" stroke="green" stroke-width="0.46" points="339.58,-130.47 346.16,-122.17 335.84,-124.55 339.58,-130.47"/>
</g>
</g>
</svg>
