<?xml version="1.0" encoding="UTF-8" standalone="no"?>
<!DOCTYPE svg PUBLIC "-//W3C//DTD SVG 1.1//EN"
 "http://www.w3.org/Graphics/SVG/1.1/DTD/svg11.dtd">
<!-- Generated by graphviz version 12.1.1 (20240910.0053)
 -->
<!-- Pages: 1 -->
<svg width="746pt" height="426pt"
 viewBox="0.00 0.00 745.75 425.59" xmlns="http://www.w3.org/2000/svg" xmlns:xlink="http://www.w3.org/1999/xlink">
<g id="graph0" class="graph" transform="scale(1 1) rotate(0) translate(4 421.59)">
<polygon fill="white" stroke="none" points="-4,4 -4,-421.59 741.75,-421.59 741.75,4 -4,4"/>
<!-- &#45;1 -->
<g id="node1" class="node">
<title>&#45;1</title>
<polygon fill="lightgray" stroke="black" points="23.5,-412.34 0,-412.34 0,-393.84 23.5,-393.84 23.5,-412.34"/>
<text text-anchor="middle" x="11.75" y="-399.79" font-family="Times,serif" font-size="9.00">&#45;1</text>
</g>
<!-- &#45;2 -->
<g id="node2" class="node">
<title>&#45;2</title>
<polygon fill="lightgray" stroke="black" points="65.5,-412.34 42,-412.34 42,-393.84 65.5,-393.84 65.5,-412.34"/>
<text text-anchor="middle" x="53.75" y="-399.79" font-family="Times,serif" font-size="9.00">&#45;2</text>
</g>
<!-- 1325 -->
<g id="node26" class="node">
<title>1325</title>
<ellipse fill="white" stroke="black" cx="53.75" cy="-328.55" rx="24.04" ry="24.04"/>
<text text-anchor="middle" x="53.75" y="-325.25" font-family="Times,serif" font-size="9.00">1325</text>
</g>
<!-- &#45;2&#45;&gt;1325 -->
<g id="edge33" class="edge">
<title>&#45;2&#45;&gt;1325</title>
<path fill="none" stroke="green" stroke-width="0.39" d="M53.75,-393.49C53.75,-385.98 53.75,-374.58 53.75,-363.47"/>
<polygon fill="green" stroke="green" stroke-width="0.39" points="57.25,-363.65 53.75,-353.65 50.25,-363.65 57.25,-363.65"/>
</g>
<!-- 17 -->
<g id="node27" class="node">
<title>17</title>
<ellipse fill="white" stroke="black" cx="183.75" cy="-244.47" rx="17.68" ry="17.68"/>
<text text-anchor="middle" x="183.75" y="-241.17" font-family="Times,serif" font-size="9.00">17</text>
</g>
<!-- &#45;2&#45;&gt;17 -->
<g id="edge17" class="edge">
<title>&#45;2&#45;&gt;17</title>
<path fill="none" stroke="red" stroke-width="0.32" stroke-dasharray="1,5" d="M59.4,-393.4C70.91,-375.93 98.21,-335.57 124.75,-304.51 136.83,-290.37 151.64,-275.56 163.39,-264.32"/>
<polygon fill="red" stroke="red" stroke-width="0.32" points="165.75,-266.9 170.61,-257.49 160.94,-261.81 165.75,-266.9"/>
</g>
<!-- 18 -->
<g id="node28" class="node">
<title>18</title>
<ellipse fill="white" stroke="black" cx="490.75" cy="-82.67" rx="17.68" ry="17.68"/>
<text text-anchor="middle" x="490.75" y="-79.37" font-family="Times,serif" font-size="9.00">18</text>
</g>
<!-- &#45;2&#45;&gt;18 -->
<g id="edge18" class="edge">
<title>&#45;2&#45;&gt;18</title>
<path fill="none" stroke="red" stroke-width="0.13" stroke-dasharray="1,5" d="M45.63,-393.45C37.53,-384.18 25.6,-368.61 20.75,-352.6 14.56,-332.14 15.65,-325.27 20.75,-304.51 40.89,-222.6 38.88,-183.61 108.75,-136.35 174.61,-91.8 389.67,-126.53 464.75,-100.35 465.79,-99.98 466.83,-99.57 467.86,-99.12"/>
<polygon fill="red" stroke="red" stroke-width="0.13" points="469.49,-102.22 476.63,-94.39 466.16,-96.06 469.49,-102.22"/>
</g>
<!-- &#45;3 -->
<g id="node3" class="node">
<title>&#45;3</title>
<polygon fill="lightgray" stroke="black" points="245.5,-337.8 222,-337.8 222,-319.3 245.5,-319.3 245.5,-337.8"/>
<text text-anchor="middle" x="233.75" y="-325.25" font-family="Times,serif" font-size="9.00">&#45;3</text>
</g>
<!-- &#45;3&#45;&gt;17 -->
<g id="edge26" class="edge">
<title>&#45;3&#45;&gt;17</title>
<path fill="none" stroke="green" stroke-width="0.37" d="M228.59,-319.08C221.43,-307.33 208.22,-285.64 197.98,-268.83"/>
<polygon fill="green" stroke="green" stroke-width="0.37" points="201.14,-267.29 192.95,-260.57 195.16,-270.93 201.14,-267.29"/>
</g>
<!-- 20 -->
<g id="node29" class="node">
<title>20</title>
<ellipse fill="white" stroke="black" cx="275.75" cy="-244.47" rx="17.68" ry="17.68"/>
<text text-anchor="middle" x="275.75" y="-241.17" font-family="Times,serif" font-size="9.00">20</text>
</g>
<!-- &#45;3&#45;&gt;20 -->
<g id="edge23" class="edge">
<title>&#45;3&#45;&gt;20</title>
<path fill="none" stroke="red" stroke-width="0.46" d="M238.09,-319.08C243.97,-307.57 254.74,-286.54 263.25,-269.89"/>
<polygon fill="red" stroke="red" stroke-width="0.46" points="266.2,-271.82 267.64,-261.32 259.97,-268.63 266.2,-271.82"/>
</g>
<!-- &#45;4 -->
<g id="node4" class="node">
<title>&#45;4</title>
<polygon fill="lightgray" stroke="black" points="455.5,-91.92 432,-91.92 432,-73.42 455.5,-73.42 455.5,-91.92"/>
<text text-anchor="middle" x="443.75" y="-79.37" font-family="Times,serif" font-size="9.00">&#45;4</text>
</g>
<!-- 0 -->
<g id="node21" class="node">
<title>0</title>
<ellipse fill="lightblue" stroke="black" cx="443.75" cy="-14.5" rx="14.5" ry="14.5"/>
<text text-anchor="middle" x="443.75" y="-11.2" font-family="Times,serif" font-size="9.00">0</text>
</g>
<!-- &#45;4&#45;&gt;0 -->
<g id="edge29" class="edge">
<title>&#45;4&#45;&gt;0</title>
<path fill="none" stroke="green" stroke-width="0.52" d="M443.75,-73.02C443.75,-64.63 443.75,-51.5 443.75,-39.91"/>
<polygon fill="green" stroke="green" stroke-width="0.52" points="447.25,-40.25 443.75,-30.25 440.25,-40.25 447.25,-40.25"/>
</g>
<!-- &#45;5 -->
<g id="node5" class="node">
<title>&#45;5</title>
<polygon fill="lightgray" stroke="black" points="203.5,-337.8 180,-337.8 180,-319.3 203.5,-319.3 203.5,-337.8"/>
<text text-anchor="middle" x="191.75" y="-325.25" font-family="Times,serif" font-size="9.00">&#45;5</text>
</g>
<!-- &#45;5&#45;&gt;17 -->
<g id="edge15" class="edge">
<title>&#45;5&#45;&gt;17</title>
<path fill="none" stroke="green" stroke-width="0.3" stroke-dasharray="1,5" d="M190.92,-319.08C189.86,-308.13 187.95,-288.53 186.37,-272.32"/>
<polygon fill="green" stroke="green" stroke-width="0.3" points="189.88,-272.33 185.43,-262.72 182.92,-273.01 189.88,-272.33"/>
</g>
<!-- &#45;5&#45;&gt;18 -->
<g id="edge12" class="edge">
<title>&#45;5&#45;&gt;18</title>
<path fill="none" stroke="red" stroke-width="0.62" stroke-dasharray="1,5" d="M195.29,-319.19C209.68,-285.56 264.64,-160.9 298.75,-136.35 360.02,-92.24 394.98,-129.18 464.75,-100.35 465.64,-99.98 466.53,-99.58 467.42,-99.16"/>
<polygon fill="red" stroke="red" stroke-width="0.62" points="468.84,-102.38 475.86,-94.44 465.42,-96.27 468.84,-102.38"/>
</g>
<!-- &#45;5&#45;&gt;20 -->
<g id="edge8" class="edge">
<title>&#45;5&#45;&gt;20</title>
<path fill="none" stroke="red" stroke-width="0.23" d="M199.37,-318.87C203.29,-314.49 208.19,-309.14 212.75,-304.51 226.56,-290.51 242.77,-275.34 255.29,-263.89"/>
<polygon fill="red" stroke="red" stroke-width="0.23" points="257.62,-266.5 262.67,-257.18 252.91,-261.32 257.62,-266.5"/>
</g>
<!-- &#45;6 -->
<g id="node6" class="node">
<title>&#45;6</title>
<polygon fill="lightgray" stroke="black" points="561.5,-169.64 538,-169.64 538,-151.14 561.5,-151.14 561.5,-169.64"/>
<text text-anchor="middle" x="549.75" y="-157.09" font-family="Times,serif" font-size="9.00">&#45;6</text>
</g>
<!-- &#45;6&#45;&gt;18 -->
<g id="edge20" class="edge">
<title>&#45;6&#45;&gt;18</title>
<path fill="none" stroke="green" stroke-width="0.1" stroke-dasharray="1,5" d="M542.98,-150.7C534.4,-139.69 519.31,-120.32 507.55,-105.23"/>
<polygon fill="green" stroke="green" stroke-width="0.1" points="510.42,-103.22 501.51,-97.48 504.9,-107.52 510.42,-103.22"/>
</g>
<!-- &#45;7 -->
<g id="node7" class="node">
<title>&#45;7</title>
<polygon fill="lightgray" stroke="black" points="287.5,-337.8 264,-337.8 264,-319.3 287.5,-319.3 287.5,-337.8"/>
<text text-anchor="middle" x="275.75" y="-325.25" font-family="Times,serif" font-size="9.00">&#45;7</text>
</g>
<!-- &#45;7&#45;&gt;20 -->
<g id="edge2" class="edge">
<title>&#45;7&#45;&gt;20</title>
<path fill="none" stroke="red" stroke-width="0.13" d="M275.75,-319.08C275.75,-308.19 275.75,-288.77 275.75,-272.61"/>
<polygon fill="red" stroke="red" stroke-width="0.13" points="279.25,-272.79 275.75,-262.79 272.25,-272.79 279.25,-272.79"/>
</g>
<!-- &#45;8 -->
<g id="node8" class="node">
<title>&#45;8</title>
<polygon fill="lightgray" stroke="black" points="603.5,-169.64 580,-169.64 580,-151.14 603.5,-151.14 603.5,-169.64"/>
<text text-anchor="middle" x="591.75" y="-157.09" font-family="Times,serif" font-size="9.00">&#45;8</text>
</g>
<!-- &#45;8&#45;&gt;18 -->
<g id="edge21" class="edge">
<title>&#45;8&#45;&gt;18</title>
<path fill="none" stroke="red" stroke-width="0.11" d="M584.83,-150.8C580.94,-146.25 575.85,-140.71 570.75,-136.35 553.15,-121.31 531.03,-107.05 514.52,-97.17"/>
<polygon fill="red" stroke="red" stroke-width="0.11" points="516.52,-94.28 506.13,-92.23 512.97,-100.32 516.52,-94.28"/>
</g>
<!-- &#45;9 -->
<g id="node9" class="node">
<title>&#45;9</title>
<polygon fill="lightgray" stroke="black" points="645.5,-169.64 622,-169.64 622,-151.14 645.5,-151.14 645.5,-169.64"/>
<text text-anchor="middle" x="633.75" y="-157.09" font-family="Times,serif" font-size="9.00">&#45;9</text>
</g>
<!-- &#45;9&#45;&gt;18 -->
<g id="edge13" class="edge">
<title>&#45;9&#45;&gt;18</title>
<path fill="none" stroke="green" stroke-width="0.18" stroke-dasharray="1,5" d="M627.48,-150.89C623.64,-146.13 618.39,-140.37 612.75,-136.35 582.91,-115.06 543.1,-99.9 517.21,-91.47"/>
<polygon fill="green" stroke="green" stroke-width="0.18" points="518.53,-88.21 507.94,-88.54 516.43,-94.89 518.53,-88.21"/>
</g>
<!-- &#45;10 -->
<g id="node10" class="node">
<title>&#45;10</title>
<polygon fill="lightgray" stroke="black" points="481.75,-253.72 453.75,-253.72 453.75,-235.22 481.75,-235.22 481.75,-253.72"/>
<text text-anchor="middle" x="467.75" y="-241.17" font-family="Times,serif" font-size="9.00">&#45;10</text>
</g>
<!-- &#45;10&#45;&gt;18 -->
<g id="edge7" class="edge">
<title>&#45;10&#45;&gt;18</title>
<path fill="none" stroke="red" stroke-width="0.41" stroke-dasharray="1,5" d="M468.99,-234.88C472.32,-211.75 481.57,-147.43 486.88,-110.56"/>
<polygon fill="red" stroke="red" stroke-width="0.41" points="490.28,-111.52 488.24,-101.12 483.35,-110.52 490.28,-111.52"/>
</g>
<!-- 1241 -->
<g id="node30" class="node">
<title>1241</title>
<ellipse fill="white" stroke="black" cx="419.75" cy="-160.39" rx="24.04" ry="24.04"/>
<text text-anchor="middle" x="419.75" y="-157.09" font-family="Times,serif" font-size="9.00">1241</text>
</g>
<!-- &#45;10&#45;&gt;1241 -->
<g id="edge31" class="edge">
<title>&#45;10&#45;&gt;1241</title>
<path fill="none" stroke="green" stroke-width="0.19" stroke-dasharray="1,5" d="M462.79,-235C456.71,-224.59 446.06,-206.38 436.88,-190.67"/>
<polygon fill="green" stroke="green" stroke-width="0.19" points="439.9,-188.91 431.83,-182.05 433.86,-192.45 439.9,-188.91"/>
</g>
<!-- &#45;11 -->
<g id="node11" class="node">
<title>&#45;11</title>
<polygon fill="lightgray" stroke="black" points="691.75,-169.64 663.75,-169.64 663.75,-151.14 691.75,-151.14 691.75,-169.64"/>
<text text-anchor="middle" x="677.75" y="-157.09" font-family="Times,serif" font-size="9.00">&#45;11</text>
</g>
<!-- &#45;11&#45;&gt;18 -->
<g id="edge16" class="edge">
<title>&#45;11&#45;&gt;18</title>
<path fill="none" stroke="green" stroke-width="0.27" stroke-dasharray="1,5" d="M670.88,-150.7C666.67,-145.88 660.92,-140.12 654.75,-136.35 611,-109.61 552.3,-95.06 518.29,-88.36"/>
<polygon fill="green" stroke="green" stroke-width="0.27" points="519.04,-84.94 508.56,-86.53 517.74,-91.82 519.04,-84.94"/>
</g>
<!-- &#45;12 -->
<g id="node12" class="node">
<title>&#45;12</title>
<polygon fill="lightgray" stroke="black" points="333.75,-337.8 305.75,-337.8 305.75,-319.3 333.75,-319.3 333.75,-337.8"/>
<text text-anchor="middle" x="319.75" y="-325.25" font-family="Times,serif" font-size="9.00">&#45;12</text>
</g>
<!-- &#45;12&#45;&gt;20 -->
<g id="edge14" class="edge">
<title>&#45;12&#45;&gt;20</title>
<path fill="none" stroke="green" stroke-width="0.46" d="M315.21,-319.08C309.04,-307.57 297.76,-286.54 288.84,-269.89"/>
<polygon fill="green" stroke="green" stroke-width="0.46" points="292.05,-268.48 284.24,-261.32 285.88,-271.79 292.05,-268.48"/>
</g>
<!-- &#45;13 -->
<g id="node13" class="node">
<title>&#45;13</title>
<polygon fill="lightgray" stroke="black" points="737.75,-169.64 709.75,-169.64 709.75,-151.14 737.75,-151.14 737.75,-169.64"/>
<text text-anchor="middle" x="723.75" y="-157.09" font-family="Times,serif" font-size="9.00">&#45;13</text>
</g>
<!-- &#45;13&#45;&gt;18 -->
<g id="edge9" class="edge">
<title>&#45;13&#45;&gt;18</title>
<path fill="none" stroke="red" stroke-width="0.37" d="M717.36,-151C713.15,-146.04 707.24,-140.03 700.75,-136.35 641.48,-102.72 560.83,-90.3 518.82,-85.92"/>
<polygon fill="red" stroke="red" stroke-width="0.37" points="519.37,-82.46 509.08,-84.98 518.7,-89.42 519.37,-82.46"/>
</g>
<!-- &#45;14 -->
<g id="node14" class="node">
<title>&#45;14</title>
<polygon fill="lightgray" stroke="black" points="425.75,-337.8 397.75,-337.8 397.75,-319.3 425.75,-319.3 425.75,-337.8"/>
<text text-anchor="middle" x="411.75" y="-325.25" font-family="Times,serif" font-size="9.00">&#45;14</text>
</g>
<!-- 4 -->
<g id="node25" class="node">
<title>4</title>
<ellipse fill="lightblue" stroke="black" cx="321.75" cy="-160.39" rx="14.5" ry="14.5"/>
<text text-anchor="middle" x="321.75" y="-157.09" font-family="Times,serif" font-size="9.00">4</text>
</g>
<!-- &#45;14&#45;&gt;4 -->
<g id="edge30" class="edge">
<title>&#45;14&#45;&gt;4</title>
<path fill="none" stroke="green" stroke-width="0.37" stroke-dasharray="1,5" d="M403.93,-319.16C399.6,-314.66 394.04,-309.11 388.75,-304.51 368.61,-287.03 354.72,-291.23 340.75,-268.51 325.17,-243.19 321.57,-208.51 321.1,-185.55"/>
<polygon fill="green" stroke="green" stroke-width="0.37" points="324.6,-185.57 321.09,-175.58 317.6,-185.58 324.6,-185.57"/>
</g>
<!-- &#45;14&#45;&gt;17 -->
<g id="edge27" class="edge">
<title>&#45;14&#45;&gt;17</title>
<path fill="none" stroke="green" stroke-width="0.21" stroke-dasharray="1,5" d="M405.35,-319.18C401.14,-314.22 395.23,-308.21 388.75,-304.51 332.96,-272.65 310.2,-287.26 248.75,-268.51 235.82,-264.57 221.65,-259.62 209.85,-255.32"/>
<polygon fill="green" stroke="green" stroke-width="0.21" points="211.06,-252.04 200.47,-251.86 208.64,-258.61 211.06,-252.04"/>
</g>
<!-- &#45;14&#45;&gt;20 -->
<g id="edge19" class="edge">
<title>&#45;14&#45;&gt;20</title>
<path fill="none" stroke="red" stroke-width="0.26" stroke-dasharray="1,5" d="M404.72,-319.11C400.46,-314.37 394.71,-308.61 388.75,-304.51 356.29,-282.2 341.92,-288.13 307.75,-268.51 304.41,-266.59 300.99,-264.4 297.68,-262.16"/>
<polygon fill="red" stroke="red" stroke-width="0.26" points="299.84,-259.4 289.67,-256.44 295.78,-265.1 299.84,-259.4"/>
</g>
<!-- &#45;14&#45;&gt;1241 -->
<g id="edge38" class="edge">
<title>&#45;14&#45;&gt;1241</title>
<path fill="none" stroke="green" stroke-width="0.4" d="M412.16,-319.09C413.24,-296.6 416.23,-234.43 418.12,-195.2"/>
<polygon fill="green" stroke="green" stroke-width="0.4" points="421.61,-195.56 418.59,-185.4 414.62,-195.22 421.61,-195.56"/>
</g>
<!-- 1341 -->
<g id="node31" class="node">
<title>1341</title>
<ellipse fill="white" stroke="black" cx="373.75" cy="-244.47" rx="24.04" ry="24.04"/>
<text text-anchor="middle" x="373.75" y="-241.17" font-family="Times,serif" font-size="9.00">1341</text>
</g>
<!-- &#45;14&#45;&gt;1341 -->
<g id="edge35" class="edge">
<title>&#45;14&#45;&gt;1341</title>
<path fill="none" stroke="green" stroke-width="0.33" d="M407.83,-319.08C403.15,-308.97 395.06,-291.51 387.94,-276.13"/>
<polygon fill="green" stroke="green" stroke-width="0.33" points="391.26,-274.97 383.88,-267.36 384.91,-277.91 391.26,-274.97"/>
</g>
<!-- &#45;15 -->
<g id="node15" class="node">
<title>&#45;15</title>
<polygon fill="lightgray" stroke="black" points="497.75,-337.8 469.75,-337.8 469.75,-319.3 497.75,-319.3 497.75,-337.8"/>
<text text-anchor="middle" x="483.75" y="-325.25" font-family="Times,serif" font-size="9.00">&#45;15</text>
</g>
<!-- &#45;15&#45;&gt;18 -->
<g id="edge5" class="edge">
<title>&#45;15&#45;&gt;18</title>
<path fill="none" stroke="green" stroke-width="0.77" d="M484.96,-319.17C486.57,-307.74 489.36,-286.63 490.75,-268.51 495.26,-209.93 495.42,-195.08 493.75,-136.35 493.52,-128.35 493.1,-119.68 492.64,-111.72"/>
<polygon fill="green" stroke="green" stroke-width="0.77" points="496.15,-111.67 492.04,-101.91 489.16,-112.1 496.15,-111.67"/>
</g>
<!-- &#45;15&#45;&gt;20 -->
<g id="edge25" class="edge">
<title>&#45;15&#45;&gt;20</title>
<path fill="none" stroke="red" stroke-width="0.46" stroke-dasharray="1,5" d="M469.31,-320.38C459.63,-315.66 446.54,-309.46 434.75,-304.51 410.18,-294.2 340.88,-268.96 302.38,-255.05"/>
<polygon fill="red" stroke="red" stroke-width="0.46" points="303.65,-251.79 293.05,-251.69 301.27,-258.37 303.65,-251.79"/>
</g>
<!-- &#45;16 -->
<g id="node16" class="node">
<title>&#45;16</title>
<polygon fill="lightgray" stroke="black" points="111.75,-412.34 83.75,-412.34 83.75,-393.84 111.75,-393.84 111.75,-412.34"/>
<text text-anchor="middle" x="97.75" y="-399.79" font-family="Times,serif" font-size="9.00">&#45;16</text>
</g>
<!-- &#45;17 -->
<g id="node17" class="node">
<title>&#45;17</title>
<polygon fill="lightgray" stroke="black" points="379.75,-337.8 351.75,-337.8 351.75,-319.3 379.75,-319.3 379.75,-337.8"/>
<text text-anchor="middle" x="365.75" y="-325.25" font-family="Times,serif" font-size="9.00">&#45;17</text>
</g>
<!-- &#45;17&#45;&gt;20 -->
<g id="edge3" class="edge">
<title>&#45;17&#45;&gt;20</title>
<path fill="none" stroke="green" stroke-width="0.55" d="M357.36,-318.89C353.06,-314.51 347.69,-309.16 342.75,-304.51 327.83,-290.49 310.47,-275.22 297.16,-263.73"/>
<polygon fill="green" stroke="green" stroke-width="0.55" points="299.56,-261.17 289.7,-257.31 295,-266.48 299.56,-261.17"/>
</g>
<!-- &#45;18 -->
<g id="node18" class="node">
<title>&#45;18</title>
<polygon fill="lightgray" stroke="black" points="157.75,-412.34 129.75,-412.34 129.75,-393.84 157.75,-393.84 157.75,-412.34"/>
<text text-anchor="middle" x="143.75" y="-399.79" font-family="Times,serif" font-size="9.00">&#45;18</text>
</g>
<!-- &#45;19 -->
<g id="node19" class="node">
<title>&#45;19</title>
<polygon fill="lightgray" stroke="black" points="161.75,-337.8 133.75,-337.8 133.75,-319.3 161.75,-319.3 161.75,-337.8"/>
<text text-anchor="middle" x="147.75" y="-325.25" font-family="Times,serif" font-size="9.00">&#45;19</text>
</g>
<!-- &#45;19&#45;&gt;17 -->
<g id="edge10" class="edge">
<title>&#45;19&#45;&gt;17</title>
<path fill="none" stroke="green" stroke-width="0.3" d="M151.47,-319.08C156.48,-307.64 165.63,-286.79 172.91,-270.19"/>
<polygon fill="green" stroke="green" stroke-width="0.3" points="175.94,-272 176.75,-261.43 169.53,-269.18 175.94,-272"/>
</g>
<!-- &#45;20 -->
<g id="node20" class="node">
<title>&#45;20</title>
<polygon fill="lightgray" stroke="black" points="203.75,-412.34 175.75,-412.34 175.75,-393.84 203.75,-393.84 203.75,-412.34"/>
<text text-anchor="middle" x="189.75" y="-399.79" font-family="Times,serif" font-size="9.00">&#45;20</text>
</g>
<!-- 1 -->
<g id="node22" class="node">
<title>1</title>
<ellipse fill="lightblue" stroke="black" cx="490.75" cy="-14.5" rx="14.5" ry="14.5"/>
<text text-anchor="middle" x="490.75" y="-11.2" font-family="Times,serif" font-size="9.00">1</text>
</g>
<!-- 2 -->
<g id="node23" class="node">
<title>2</title>
<ellipse fill="lightblue" stroke="black" cx="235.75" cy="-403.09" rx="14.5" ry="14.5"/>
<text text-anchor="middle" x="235.75" y="-399.79" font-family="Times,serif" font-size="9.00">2</text>
</g>
<!-- 3 -->
<g id="node24" class="node">
<title>3</title>
<ellipse fill="lightblue" stroke="black" cx="131.75" cy="-160.39" rx="14.5" ry="14.5"/>
<text text-anchor="middle" x="131.75" y="-157.09" font-family="Times,serif" font-size="9.00">3</text>
</g>
<!-- 3&#45;&gt;3 -->
<g id="edge6" class="edge">
<title>3&#45;&gt;3</title>
<path fill="none" stroke="green" stroke-width="0.11" stroke-dasharray="1,5" d="M141.73,-171.54C152.31,-178.53 164.25,-174.81 164.25,-160.39 164.25,-150.25 158.35,-145.4 151.16,-145.84"/>
<polygon fill="green" stroke="green" stroke-width="0.11" points="150.12,-142.5 141.89,-149.18 152.49,-149.09 150.12,-142.5"/>
</g>
<!-- 3&#45;&gt;18 -->
<g id="edge37" class="edge">
<title>3&#45;&gt;18</title>
<path fill="none" stroke="green" stroke-width="0.43" d="M143.77,-151.94C152.79,-146.72 165.61,-140.03 177.75,-136.35 300.77,-99.02 343.88,-144.13 464.75,-100.35 465.65,-100.02 466.56,-99.66 467.46,-99.26"/>
<polygon fill="green" stroke="green" stroke-width="0.43" points="469.07,-102.37 476.2,-94.54 465.74,-96.21 469.07,-102.37"/>
</g>
<!-- 1325&#45;&gt;17 -->
<g id="edge34" class="edge">
<title>1325&#45;&gt;17</title>
<path fill="none" stroke="red" stroke-width="0.41" d="M73.78,-314.91C97.14,-300.15 135.72,-275.8 160.42,-260.2"/>
<polygon fill="red" stroke="red" stroke-width="0.41" points="162.03,-263.32 168.62,-255.02 158.3,-257.4 162.03,-263.32"/>
</g>
<!-- 17&#45;&gt;3 -->
<g id="edge1" class="edge">
<title>17&#45;&gt;3</title>
<path fill="none" stroke="red" stroke-width="0.2" d="M174.69,-229.17C166.35,-216.01 153.9,-196.35 144.55,-181.59"/>
<polygon fill="red" stroke="red" stroke-width="0.2" points="147.66,-179.96 139.35,-173.38 141.74,-183.71 147.66,-179.96"/>
</g>
<!-- 17&#45;&gt;4 -->
<g id="edge22" class="edge">
<title>17&#45;&gt;4</title>
<path fill="none" stroke="green" stroke-width="0.6" d="M198.78,-234.53C223.4,-219.89 272.4,-190.74 300.54,-174"/>
<polygon fill="green" stroke="green" stroke-width="0.6" points="301.97,-177.23 308.77,-169.11 298.39,-171.21 301.97,-177.23"/>
</g>
<!-- 17&#45;&gt;18 -->
<g id="edge28" class="edge">
<title>17&#45;&gt;18</title>
<path fill="none" stroke="red" stroke-width="0.17" stroke-dasharray="1,5" d="M183.55,-226.39C184.28,-202.38 189.45,-159.05 215.75,-136.35 300.4,-63.29 359.98,-139.42 464.75,-100.35 465.78,-99.96 466.81,-99.53 467.84,-99.07"/>
<polygon fill="red" stroke="red" stroke-width="0.17" points="469.45,-102.18 476.53,-94.3 466.08,-96.04 469.45,-102.18"/>
</g>
<!-- 18&#45;&gt;0 -->
<g id="edge4" class="edge">
<title>18&#45;&gt;0</title>
<path fill="none" stroke="green" stroke-width="0.79" stroke-dasharray="1,5" d="M480.78,-67.64C474.25,-58.44 465.6,-46.25 458.3,-35.98"/>
<polygon fill="green" stroke="green" stroke-width="0.79" points="461.17,-33.97 452.52,-27.85 455.46,-38.03 461.17,-33.97"/>
</g>
<!-- 18&#45;&gt;1 -->
<g id="edge11" class="edge">
<title>18&#45;&gt;1</title>
<path fill="none" stroke="red" stroke-width="0.48" d="M490.75,-64.63C490.75,-57.05 490.75,-47.98 490.75,-39.71"/>
<polygon fill="red" stroke="red" stroke-width="0.48" points="494.25,-39.87 490.75,-29.87 487.25,-39.87 494.25,-39.87"/>
</g>
<!-- 18&#45;&gt;18 -->
<g id="edge24" class="edge">
<title>18&#45;&gt;18</title>
<path fill="none" stroke="red" stroke-width="0.12" stroke-dasharray="1,5" d="M504.67,-93.8C515.44,-97.96 526.43,-94.25 526.43,-82.67 526.43,-74.7 521.23,-70.46 514.49,-69.94"/>
<polygon fill="red" stroke="red" stroke-width="0.12" points="514.15,-66.45 504.84,-71.51 515.27,-73.36 514.15,-66.45"/>
</g>
<!-- 1241&#45;&gt;18 -->
<g id="edge32" class="edge">
<title>1241&#45;&gt;18</title>
<path fill="none" stroke="red" stroke-width="0.75" stroke-dasharray="1,5" d="M435.86,-142.21C446.4,-130.97 460.22,-116.23 471.36,-104.35"/>
<polygon fill="red" stroke="red" stroke-width="0.75" points="473.84,-106.82 478.13,-97.13 468.74,-102.03 473.84,-106.82"/>
</g>
<!-- 1341&#45;&gt;4 -->
<g id="edge36" class="edge">
<title>1341&#45;&gt;4</title>
<path fill="none" stroke="red" stroke-width="0.12" d="M361.16,-223.6C353.13,-210.93 342.75,-194.54 334.66,-181.77"/>
<polygon fill="red" stroke="red" stroke-width="0.12" points="337.64,-179.94 329.34,-173.36 331.73,-183.68 337.64,-179.94"/>
</g>
</g>
</svg>
