<?xml version="1.0" encoding="UTF-8" standalone="no"?>
<!DOCTYPE svg PUBLIC "-//W3C//DTD SVG 1.1//EN"
 "http://www.w3.org/Graphics/SVG/1.1/DTD/svg11.dtd">
<!-- Generated by graphviz version 12.1.1 (20240910.0053)
 -->
<!-- Pages: 1 -->
<svg width="1080pt" height="428pt"
 viewBox="0.00 0.00 1079.97 427.82" xmlns="http://www.w3.org/2000/svg" xmlns:xlink="http://www.w3.org/1999/xlink">
<g id="graph0" class="graph" transform="scale(1 1) rotate(0) translate(4 423.82)">
<polygon fill="white" stroke="none" points="-4,4 -4,-423.82 1075.97,-423.82 1075.97,4 -4,4"/>
<!-- &#45;1 -->
<g id="node1" class="node">
<title>&#45;1</title>
<polygon fill="lightgray" stroke="black" points="23.5,-350.53 0,-350.53 0,-332.03 23.5,-332.03 23.5,-350.53"/>
<text text-anchor="middle" x="11.75" y="-337.98" font-family="Times,serif" font-size="9.00">&#45;1</text>
</g>
<!-- 4 -->
<g id="node25" class="node">
<title>4</title>
<ellipse fill="lightblue" stroke="black" cx="671.75" cy="-14.5" rx="14.5" ry="14.5"/>
<text text-anchor="middle" x="671.75" y="-11.2" font-family="Times,serif" font-size="9.00">4</text>
</g>
<!-- &#45;1&#45;&gt;4 -->
<g id="edge53" class="edge">
<title>&#45;1&#45;&gt;4</title>
<path fill="none" stroke="green" stroke-width="0.54" d="M18.07,-331.85C21.93,-327.12 27.18,-321.36 32.75,-317.24 247.79,-158.32 559.83,-51.29 647.84,-22.98"/>
<polygon fill="green" stroke="green" stroke-width="0.54" points="648.85,-26.33 657.32,-19.96 646.73,-19.66 648.85,-26.33"/>
</g>
<!-- 7016 -->
<g id="node27" class="node">
<title>7016</title>
<ellipse fill="white" stroke="black" cx="371.75" cy="-257.2" rx="24.04" ry="24.04"/>
<text text-anchor="middle" x="371.75" y="-253.9" font-family="Times,serif" font-size="9.00">7016</text>
</g>
<!-- &#45;1&#45;&gt;7016 -->
<g id="edge11" class="edge">
<title>&#45;1&#45;&gt;7016</title>
<path fill="none" stroke="red" stroke-width="0.39" d="M17.35,-331.72C21.1,-326.7 26.49,-320.68 32.75,-317.24 85.03,-288.54 262,-268.69 337.34,-261.35"/>
<polygon fill="red" stroke="red" stroke-width="0.39" points="337.48,-264.85 347.1,-260.41 336.82,-257.88 337.48,-264.85"/>
</g>
<!-- &#45;2 -->
<g id="node2" class="node">
<title>&#45;2</title>
<polygon fill="lightgray" stroke="black" points="427.5,-419.82 404,-419.82 404,-401.32 427.5,-401.32 427.5,-419.82"/>
<text text-anchor="middle" x="415.75" y="-407.27" font-family="Times,serif" font-size="9.00">&#45;2</text>
</g>
<!-- 3 -->
<g id="node24" class="node">
<title>3</title>
<ellipse fill="lightblue" stroke="black" cx="855.75" cy="-14.5" rx="14.5" ry="14.5"/>
<text text-anchor="middle" x="855.75" y="-11.2" font-family="Times,serif" font-size="9.00">3</text>
</g>
<!-- &#45;2&#45;&gt;3 -->
<g id="edge44" class="edge">
<title>&#45;2&#45;&gt;3</title>
<path fill="none" stroke="red" stroke-width="0.19" d="M425.46,-401.11C434.76,-392.67 448.8,-379.02 458.75,-365.32 522.59,-277.41 484.44,-212.36 572.75,-149.07 655.42,-89.83 714.81,-170.51 798.75,-113.07 824.87,-95.21 840.7,-61.12 848.84,-38.34"/>
<polygon fill="red" stroke="red" stroke-width="0.19" points="852.1,-39.64 851.96,-29.05 845.46,-37.42 852.1,-39.64"/>
</g>
<!-- &#45;2&#45;&gt;7016 -->
<g id="edge4" class="edge">
<title>&#45;2&#45;&gt;7016</title>
<path fill="none" stroke="green" stroke-width="0.21" d="M413.26,-401C407.2,-380.17 391.46,-325.99 381.19,-290.68"/>
<polygon fill="green" stroke="green" stroke-width="0.21" points="384.57,-289.77 378.42,-281.14 377.85,-291.72 384.57,-289.77"/>
</g>
<!-- 7019 -->
<g id="node30" class="node">
<title>7019</title>
<ellipse fill="white" stroke="black" cx="685.75" cy="-341.28" rx="24.04" ry="24.04"/>
<text text-anchor="middle" x="685.75" y="-337.98" font-family="Times,serif" font-size="9.00">7019</text>
</g>
<!-- &#45;2&#45;&gt;7019 -->
<g id="edge30" class="edge">
<title>&#45;2&#45;&gt;7019</title>
<path fill="none" stroke="green" stroke-width="0.33" stroke-dasharray="1,5" d="M427.95,-407.99C470.35,-402.38 610.96,-382.85 652.75,-365.32 654.79,-364.47 656.83,-363.47 658.84,-362.38"/>
<polygon fill="green" stroke="green" stroke-width="0.33" points="660.24,-365.63 666.93,-357.42 656.58,-359.67 660.24,-365.63"/>
</g>
<!-- 7391 -->
<g id="node33" class="node">
<title>7391</title>
<ellipse fill="white" stroke="black" cx="345.75" cy="-341.28" rx="24.04" ry="24.04"/>
<text text-anchor="middle" x="345.75" y="-337.98" font-family="Times,serif" font-size="9.00">7391</text>
</g>
<!-- &#45;2&#45;&gt;7391 -->
<g id="edge54" class="edge">
<title>&#45;2&#45;&gt;7391</title>
<path fill="none" stroke="green" stroke-width="0.21" d="M406.88,-401.05C397.66,-392.18 382.8,-377.9 370.05,-365.64"/>
<polygon fill="green" stroke="green" stroke-width="0.21" points="372.7,-363.34 363.07,-358.93 367.85,-368.38 372.7,-363.34"/>
</g>
<!-- &#45;3 -->
<g id="node3" class="node">
<title>&#45;3</title>
<polygon fill="lightgray" stroke="black" points="449.5,-350.53 426,-350.53 426,-332.03 449.5,-332.03 449.5,-350.53"/>
<text text-anchor="middle" x="437.75" y="-337.98" font-family="Times,serif" font-size="9.00">&#45;3</text>
</g>
<!-- &#45;3&#45;&gt;7016 -->
<g id="edge31" class="edge">
<title>&#45;3&#45;&gt;7016</title>
<path fill="none" stroke="red" stroke-width="0.46" stroke-dasharray="1,5" d="M430.94,-331.81C422.07,-320.79 406.18,-301.02 393.09,-284.74"/>
<polygon fill="red" stroke="red" stroke-width="0.46" points="395.98,-282.75 386.99,-277.15 390.53,-287.14 395.98,-282.75"/>
</g>
<!-- &#45;4 -->
<g id="node4" class="node">
<title>&#45;4</title>
<polygon fill="lightgray" stroke="black" points="697.5,-419.82 674,-419.82 674,-401.32 697.5,-401.32 697.5,-419.82"/>
<text text-anchor="middle" x="685.75" y="-407.27" font-family="Times,serif" font-size="9.00">&#45;4</text>
</g>
<!-- &#45;4&#45;&gt;7019 -->
<g id="edge12" class="edge">
<title>&#45;4&#45;&gt;7019</title>
<path fill="none" stroke="red" stroke-width="0.16" d="M685.75,-401.05C685.75,-394.56 685.75,-385.17 685.75,-375.79"/>
<polygon fill="red" stroke="red" stroke-width="0.16" points="689.25,-375.99 685.75,-365.99 682.25,-375.99 689.25,-375.99"/>
</g>
<!-- &#45;5 -->
<g id="node5" class="node">
<title>&#45;5</title>
<polygon fill="lightgray" stroke="black" points="845.5,-350.53 822,-350.53 822,-332.03 845.5,-332.03 845.5,-350.53"/>
<text text-anchor="middle" x="833.75" y="-337.98" font-family="Times,serif" font-size="9.00">&#45;5</text>
</g>
<!-- 7017 -->
<g id="node28" class="node">
<title>7017</title>
<ellipse fill="white" stroke="black" cx="840.75" cy="-257.2" rx="24.04" ry="24.04"/>
<text text-anchor="middle" x="840.75" y="-253.9" font-family="Times,serif" font-size="9.00">7017</text>
</g>
<!-- &#45;5&#45;&gt;7017 -->
<g id="edge39" class="edge">
<title>&#45;5&#45;&gt;7017</title>
<path fill="none" stroke="red" stroke-width="0.34" stroke-dasharray="1,5" d="M834.47,-331.81C835.28,-322.31 836.65,-306.33 837.89,-291.69"/>
<polygon fill="red" stroke="red" stroke-width="0.34" points="841.37,-292.14 838.73,-281.88 834.39,-291.54 841.37,-292.14"/>
</g>
<!-- &#45;6 -->
<g id="node6" class="node">
<title>&#45;6</title>
<polygon fill="lightgray" stroke="black" points="643.5,-350.53 620,-350.53 620,-332.03 643.5,-332.03 643.5,-350.53"/>
<text text-anchor="middle" x="631.75" y="-337.98" font-family="Times,serif" font-size="9.00">&#45;6</text>
</g>
<!-- &#45;6&#45;&gt;7016 -->
<g id="edge5" class="edge">
<title>&#45;6&#45;&gt;7016</title>
<path fill="none" stroke="red" stroke-width="0.21" stroke-dasharray="1,5" d="M619.56,-336.43C581.3,-324.35 462.69,-286.91 404.55,-268.55"/>
<polygon fill="red" stroke="red" stroke-width="0.21" points="405.66,-265.23 395.07,-265.56 403.55,-271.91 405.66,-265.23"/>
</g>
<!-- &#45;6&#45;&gt;7017 -->
<g id="edge10" class="edge">
<title>&#45;6&#45;&gt;7017</title>
<path fill="none" stroke="red" stroke-width="0.19" d="M637.87,-331.56C641.66,-326.73 646.91,-320.97 652.75,-317.24 701.33,-286.24 767.37,-270.47 806.87,-263.32"/>
<polygon fill="red" stroke="red" stroke-width="0.19" points="807.24,-266.8 816.5,-261.65 806.05,-259.91 807.24,-266.8"/>
</g>
<!-- &#45;7 -->
<g id="node7" class="node">
<title>&#45;7</title>
<polygon fill="lightgray" stroke="black" points="1011.5,-419.82 988,-419.82 988,-401.32 1011.5,-401.32 1011.5,-419.82"/>
<text text-anchor="middle" x="999.75" y="-407.27" font-family="Times,serif" font-size="9.00">&#45;7</text>
</g>
<!-- &#45;7&#45;&gt;7017 -->
<g id="edge17" class="edge">
<title>&#45;7&#45;&gt;7017</title>
<path fill="none" stroke="red" stroke-width="0.97" d="M998.37,-400.97C995.06,-383.05 985.08,-341.39 960.75,-317.24 931.05,-287.76 910.45,-301.34 873.75,-281.24 872.29,-280.44 870.82,-279.6 869.36,-278.72"/>
<polygon fill="red" stroke="red" stroke-width="0.97" points="871.38,-275.85 861.08,-273.37 867.58,-281.73 871.38,-275.85"/>
</g>
<!-- 7018 -->
<g id="node29" class="node">
<title>7018</title>
<ellipse fill="white" stroke="black" cx="855.75" cy="-173.12" rx="24.04" ry="24.04"/>
<text text-anchor="middle" x="855.75" y="-169.82" font-family="Times,serif" font-size="9.00">7018</text>
</g>
<!-- &#45;7&#45;&gt;7018 -->
<g id="edge23" class="edge">
<title>&#45;7&#45;&gt;7018</title>
<path fill="none" stroke="red" stroke-width="0.11" d="M1011.73,-403.22C1028.87,-393.84 1058.97,-376.25 1064.75,-365.32 1074.74,-346.43 1073.87,-336.57 1064.75,-317.24 1030.28,-244.15 937.62,-202.25 888.06,-184.42"/>
<polygon fill="red" stroke="red" stroke-width="0.11" points="889.5,-181.21 878.91,-181.22 887.19,-187.82 889.5,-181.21"/>
</g>
<!-- &#45;7&#45;&gt;7019 -->
<g id="edge8" class="edge">
<title>&#45;7&#45;&gt;7019</title>
<path fill="none" stroke="green" stroke-width="0.21" stroke-dasharray="1,5" d="M987.82,-407.02C943.6,-397.54 788.02,-364.2 719.07,-349.42"/>
<polygon fill="green" stroke="green" stroke-width="0.21" points="719.98,-346.04 709.47,-347.37 718.51,-352.88 719.98,-346.04"/>
</g>
<!-- &#45;8 -->
<g id="node8" class="node">
<title>&#45;8</title>
<polygon fill="lightgray" stroke="black" points="1053.5,-419.82 1030,-419.82 1030,-401.32 1053.5,-401.32 1053.5,-419.82"/>
<text text-anchor="middle" x="1041.75" y="-407.27" font-family="Times,serif" font-size="9.00">&#45;8</text>
</g>
<!-- &#45;9 -->
<g id="node9" class="node">
<title>&#45;9</title>
<polygon fill="lightgray" stroke="black" points="887.5,-350.53 864,-350.53 864,-332.03 887.5,-332.03 887.5,-350.53"/>
<text text-anchor="middle" x="875.75" y="-337.98" font-family="Times,serif" font-size="9.00">&#45;9</text>
</g>
<!-- &#45;9&#45;&gt;7017 -->
<g id="edge9" class="edge">
<title>&#45;9&#45;&gt;7017</title>
<path fill="none" stroke="red" stroke-width="0.45" d="M872.14,-331.81C867.87,-321.79 860.52,-304.56 854.01,-289.29"/>
<polygon fill="red" stroke="red" stroke-width="0.45" points="857.3,-288.08 850.16,-280.26 850.86,-290.83 857.3,-288.08"/>
</g>
<!-- &#45;10 -->
<g id="node10" class="node">
<title>&#45;10</title>
<polygon fill="lightgray" stroke="black" points="933.75,-350.53 905.75,-350.53 905.75,-332.03 933.75,-332.03 933.75,-350.53"/>
<text text-anchor="middle" x="919.75" y="-337.98" font-family="Times,serif" font-size="9.00">&#45;10</text>
</g>
<!-- &#45;10&#45;&gt;7017 -->
<g id="edge40" class="edge">
<title>&#45;10&#45;&gt;7017</title>
<path fill="none" stroke="green" stroke-width="0.45" d="M911.59,-331.81C900.52,-320.3 880.26,-299.25 864.24,-282.61"/>
<polygon fill="green" stroke="green" stroke-width="0.45" points="867.15,-280.58 857.69,-275.8 862.1,-285.43 867.15,-280.58"/>
</g>
<!-- &#45;11 -->
<g id="node11" class="node">
<title>&#45;11</title>
<polygon fill="lightgray" stroke="black" points="69.75,-350.53 41.75,-350.53 41.75,-332.03 69.75,-332.03 69.75,-350.53"/>
<text text-anchor="middle" x="55.75" y="-337.98" font-family="Times,serif" font-size="9.00">&#45;11</text>
</g>
<!-- &#45;11&#45;&gt;7016 -->
<g id="edge36" class="edge">
<title>&#45;11&#45;&gt;7016</title>
<path fill="none" stroke="red" stroke-width="0.29" stroke-dasharray="1,5" d="M63.82,-331.82C69.04,-326.84 76.25,-320.82 83.75,-317.24 168.82,-276.63 281.04,-263.89 336.96,-259.94"/>
<polygon fill="red" stroke="red" stroke-width="0.29" points="337.19,-263.43 346.94,-259.29 336.73,-256.45 337.19,-263.43"/>
</g>
<!-- &#45;12 -->
<g id="node12" class="node">
<title>&#45;12</title>
<polygon fill="lightgray" stroke="black" points="160.75,-419.82 132.75,-419.82 132.75,-401.32 160.75,-401.32 160.75,-419.82"/>
<text text-anchor="middle" x="146.75" y="-407.27" font-family="Times,serif" font-size="9.00">&#45;12</text>
</g>
<!-- 7448 -->
<g id="node26" class="node">
<title>7448</title>
<ellipse fill="white" stroke="black" cx="195.75" cy="-341.28" rx="24.04" ry="24.04"/>
<text text-anchor="middle" x="195.75" y="-337.98" font-family="Times,serif" font-size="9.00">7448</text>
</g>
<!-- &#45;12&#45;&gt;7448 -->
<g id="edge51" class="edge">
<title>&#45;12&#45;&gt;7448</title>
<path fill="none" stroke="red" stroke-width="0.28" d="M152.96,-401.05C158.7,-393.16 167.57,-380.99 175.74,-369.76"/>
<polygon fill="red" stroke="red" stroke-width="0.28" points="178.48,-371.94 181.54,-361.8 172.82,-367.82 178.48,-371.94"/>
</g>
<!-- &#45;12&#45;&gt;7016 -->
<g id="edge21" class="edge">
<title>&#45;12&#45;&gt;7016</title>
<path fill="none" stroke="green" stroke-width="0.33" d="M139.19,-401C124.7,-383.49 96.19,-343.1 116.75,-317.24 143.95,-283.03 274.26,-266.89 337.36,-260.99"/>
<polygon fill="green" stroke="green" stroke-width="0.33" points="337.47,-264.49 347.11,-260.11 336.84,-257.52 337.47,-264.49"/>
</g>
<!-- &#45;13 -->
<g id="node13" class="node">
<title>&#45;13</title>
<polygon fill="lightgray" stroke="black" points="359.75,-419.82 331.75,-419.82 331.75,-401.32 359.75,-401.32 359.75,-419.82"/>
<text text-anchor="middle" x="345.75" y="-407.27" font-family="Times,serif" font-size="9.00">&#45;13</text>
</g>
<!-- &#45;13&#45;&gt;7016 -->
<g id="edge19" class="edge">
<title>&#45;13&#45;&gt;7016</title>
<path fill="none" stroke="red" stroke-width="0.15" d="M336.73,-401.09C328.68,-392.84 317.46,-379.51 312.75,-365.32 306.02,-345.04 304.58,-336.99 312.75,-317.24 319.25,-301.54 332.18,-287.83 344.29,-277.58"/>
<polygon fill="red" stroke="red" stroke-width="0.15" points="346.26,-280.49 351.87,-271.5 341.88,-275.02 346.26,-280.49"/>
</g>
<!-- &#45;13&#45;&gt;7019 -->
<g id="edge22" class="edge">
<title>&#45;13&#45;&gt;7019</title>
<path fill="none" stroke="red" stroke-width="0.96" stroke-dasharray="1,5" d="M359.89,-407.09C369.66,-405.39 382.98,-403.14 394.75,-401.32 509.18,-383.71 544.98,-407.63 652.75,-365.32 654.49,-364.64 656.23,-363.85 657.95,-362.97"/>
<polygon fill="red" stroke="red" stroke-width="0.96" points="659.38,-366.2 666.18,-358.07 655.8,-360.18 659.38,-366.2"/>
</g>
<!-- &#45;13&#45;&gt;7391 -->
<g id="edge48" class="edge">
<title>&#45;13&#45;&gt;7391</title>
<path fill="none" stroke="red" stroke-width="0.59" d="M345.75,-401.05C345.75,-394.7 345.75,-385.56 345.75,-376.39"/>
<polygon fill="red" stroke="red" stroke-width="0.59" points="349.25,-376.65 345.75,-366.65 342.25,-376.65 349.25,-376.65"/>
</g>
<!-- &#45;14 -->
<g id="node14" class="node">
<title>&#45;14</title>
<polygon fill="lightgray" stroke="black" points="1055.75,-350.53 1027.75,-350.53 1027.75,-332.03 1055.75,-332.03 1055.75,-350.53"/>
<text text-anchor="middle" x="1041.75" y="-337.98" font-family="Times,serif" font-size="9.00">&#45;14</text>
</g>
<!-- &#45;14&#45;&gt;7017 -->
<g id="edge37" class="edge">
<title>&#45;14&#45;&gt;7017</title>
<path fill="none" stroke="red" stroke-width="0.54" stroke-dasharray="1,5" d="M1033.62,-331.95C1028.37,-327.01 1021.16,-321.01 1013.75,-317.24 956.47,-288.14 932.13,-308.06 873.75,-281.24 871.89,-280.39 870.03,-279.43 868.18,-278.4"/>
<polygon fill="red" stroke="red" stroke-width="0.54" points="870.27,-275.58 859.94,-273.26 866.57,-281.52 870.27,-275.58"/>
</g>
<!-- &#45;14&#45;&gt;7018 -->
<g id="edge3" class="edge">
<title>&#45;14&#45;&gt;7018</title>
<path fill="none" stroke="green" stroke-width="0.28" stroke-dasharray="1,5" d="M1032.01,-331.58C1003.99,-306.55 922.53,-233.77 880.89,-196.57"/>
<polygon fill="green" stroke="green" stroke-width="0.28" points="883.47,-194.19 873.68,-190.13 878.8,-199.41 883.47,-194.19"/>
</g>
<!-- &#45;15 -->
<g id="node15" class="node">
<title>&#45;15</title>
<polygon fill="lightgray" stroke="black" points="910.75,-266.45 882.75,-266.45 882.75,-247.95 910.75,-247.95 910.75,-266.45"/>
<text text-anchor="middle" x="896.75" y="-253.9" font-family="Times,serif" font-size="9.00">&#45;15</text>
</g>
<!-- &#45;15&#45;&gt;7018 -->
<g id="edge20" class="edge">
<title>&#45;15&#45;&gt;7018</title>
<path fill="none" stroke="green" stroke-width="0.27" stroke-dasharray="1,5" d="M892.52,-247.72C887.43,-237.55 878.63,-219.92 870.91,-204.46"/>
<polygon fill="green" stroke="green" stroke-width="0.27" points="874.07,-202.95 866.47,-195.57 867.8,-206.08 874.07,-202.95"/>
</g>
<!-- &#45;16 -->
<g id="node16" class="node">
<title>&#45;16</title>
<polygon fill="lightgray" stroke="black" points="153.75,-350.53 125.75,-350.53 125.75,-332.03 153.75,-332.03 153.75,-350.53"/>
<text text-anchor="middle" x="139.75" y="-337.98" font-family="Times,serif" font-size="9.00">&#45;16</text>
</g>
<!-- &#45;16&#45;&gt;7016 -->
<g id="edge15" class="edge">
<title>&#45;16&#45;&gt;7016</title>
<path fill="none" stroke="green" stroke-width="0.16" d="M146.18,-331.96C150.4,-327.03 156.32,-321.02 162.75,-317.24 218.92,-284.27 294.46,-268.91 337.64,-262.41"/>
<polygon fill="green" stroke="green" stroke-width="0.16" points="337.99,-265.89 347.4,-261.01 337,-258.96 337.99,-265.89"/>
</g>
<!-- &#45;17 -->
<g id="node17" class="node">
<title>&#45;17</title>
<polygon fill="lightgray" stroke="black" points="537.75,-419.82 509.75,-419.82 509.75,-401.32 537.75,-401.32 537.75,-419.82"/>
<text text-anchor="middle" x="523.75" y="-407.27" font-family="Times,serif" font-size="9.00">&#45;17</text>
</g>
<!-- &#45;17&#45;&gt;7016 -->
<g id="edge35" class="edge">
<title>&#45;17&#45;&gt;7016</title>
<path fill="none" stroke="red" stroke-width="0.12" d="M519.08,-400.91C509.46,-383.59 486.01,-344.04 458.75,-317.24 441.52,-300.31 418.86,-285.1 400.98,-274.36"/>
<polygon fill="red" stroke="red" stroke-width="0.12" points="403.19,-271.6 392.79,-269.56 399.65,-277.64 403.19,-271.6"/>
</g>
<!-- &#45;17&#45;&gt;7019 -->
<g id="edge27" class="edge">
<title>&#45;17&#45;&gt;7019</title>
<path fill="none" stroke="green" stroke-width="0.35" stroke-dasharray="1,5" d="M538.21,-406.03C562.64,-399.74 613.28,-385.38 652.75,-365.32 654.72,-364.32 656.72,-363.21 658.69,-362.04"/>
<polygon fill="green" stroke="green" stroke-width="0.35" points="660.15,-365.27 666.67,-356.92 656.37,-359.37 660.15,-365.27"/>
</g>
<!-- &#45;18 -->
<g id="node18" class="node">
<title>&#45;18</title>
<polygon fill="lightgray" stroke="black" points="630.75,-419.82 602.75,-419.82 602.75,-401.32 630.75,-401.32 630.75,-419.82"/>
<text text-anchor="middle" x="616.75" y="-407.27" font-family="Times,serif" font-size="9.00">&#45;18</text>
</g>
<!-- 2 -->
<g id="node23" class="node">
<title>2</title>
<ellipse fill="lightblue" stroke="black" cx="595.75" cy="-173.12" rx="14.5" ry="14.5"/>
<text text-anchor="middle" x="595.75" y="-169.82" font-family="Times,serif" font-size="9.00">2</text>
</g>
<!-- &#45;18&#45;&gt;2 -->
<g id="edge50" class="edge">
<title>&#45;18&#45;&gt;2</title>
<path fill="none" stroke="green" stroke-width="0.25" d="M615.46,-401.11C614.13,-392.22 612.09,-377.81 610.75,-365.32 604.33,-305.31 599.48,-234.43 597.2,-198.15"/>
<polygon fill="green" stroke="green" stroke-width="0.25" points="600.71,-198.2 596.6,-188.44 593.72,-198.63 600.71,-198.2"/>
</g>
<!-- &#45;18&#45;&gt;7016 -->
<g id="edge18" class="edge">
<title>&#45;18&#45;&gt;7016</title>
<path fill="none" stroke="red" stroke-width="0.63" d="M606.5,-401C585.69,-383.85 536.69,-344.59 491.75,-317.24 462.94,-299.71 428.19,-283.06 403.52,-271.94"/>
<polygon fill="red" stroke="red" stroke-width="0.63" points="405.04,-268.79 394.48,-267.92 402.19,-275.19 405.04,-268.79"/>
</g>
<!-- &#45;18&#45;&gt;7017 -->
<g id="edge2" class="edge">
<title>&#45;18&#45;&gt;7017</title>
<path fill="none" stroke="green" stroke-width="0.32" d="M630.99,-406.51C654.47,-401 702.13,-387.85 736.75,-365.32 770.37,-343.45 801.35,-308.88 820.59,-284.95"/>
<polygon fill="green" stroke="green" stroke-width="0.32" points="823.15,-287.36 826.6,-277.34 817.66,-283.02 823.15,-287.36"/>
</g>
<!-- &#45;18&#45;&gt;7019 -->
<g id="edge25" class="edge">
<title>&#45;18&#45;&gt;7019</title>
<path fill="none" stroke="red" stroke-width="0.47" stroke-dasharray="1,5" d="M625.49,-401.05C634.5,-392.27 648.95,-378.17 661.45,-365.98"/>
<polygon fill="red" stroke="red" stroke-width="0.47" points="663.68,-368.7 668.39,-359.21 658.79,-363.69 663.68,-368.7"/>
</g>
<!-- &#45;19 -->
<g id="node19" class="node">
<title>&#45;19</title>
<polygon fill="lightgray" stroke="black" points="807.75,-419.82 779.75,-419.82 779.75,-401.32 807.75,-401.32 807.75,-419.82"/>
<text text-anchor="middle" x="793.75" y="-407.27" font-family="Times,serif" font-size="9.00">&#45;19</text>
</g>
<!-- &#45;19&#45;&gt;7016 -->
<g id="edge6" class="edge">
<title>&#45;19&#45;&gt;7016</title>
<path fill="none" stroke="red" stroke-width="0.38" stroke-dasharray="1,5" d="M791.17,-400.98C785.07,-382.31 767.92,-338.07 736.75,-317.24 682.8,-281.19 486.42,-265.26 406.22,-260.15"/>
<polygon fill="red" stroke="red" stroke-width="0.38" points="406.91,-256.69 396.71,-259.56 406.47,-263.67 406.91,-256.69"/>
</g>
<!-- &#45;19&#45;&gt;7017 -->
<g id="edge29" class="edge">
<title>&#45;19&#45;&gt;7017</title>
<path fill="none" stroke="red" stroke-width="0.13" d="M807.84,-410.37C838.41,-411.23 910.64,-408.36 942.75,-365.32 955.53,-348.2 953.83,-335.52 942.75,-317.24 924.82,-287.66 903.32,-299.18 873.75,-281.24 871.91,-280.12 870.03,-278.94 868.15,-277.72"/>
<polygon fill="red" stroke="red" stroke-width="0.13" points="870.43,-275.04 860.18,-272.38 866.53,-280.85 870.43,-275.04"/>
</g>
<!-- &#45;19&#45;&gt;7019 -->
<g id="edge13" class="edge">
<title>&#45;19&#45;&gt;7019</title>
<path fill="none" stroke="red" stroke-width="0.32" stroke-dasharray="1,5" d="M780.07,-401.05C763.68,-390.84 735.78,-373.45 714.56,-360.23"/>
<polygon fill="red" stroke="red" stroke-width="0.32" points="716.68,-357.43 706.34,-355.11 712.98,-363.37 716.68,-357.43"/>
</g>
<!-- &#45;20 -->
<g id="node20" class="node">
<title>&#45;20</title>
<polygon fill="lightgray" stroke="black" points="265.75,-350.53 237.75,-350.53 237.75,-332.03 265.75,-332.03 265.75,-350.53"/>
<text text-anchor="middle" x="251.75" y="-337.98" font-family="Times,serif" font-size="9.00">&#45;20</text>
</g>
<!-- &#45;20&#45;&gt;7016 -->
<g id="edge33" class="edge">
<title>&#45;20&#45;&gt;7016</title>
<path fill="none" stroke="green" stroke-width="0.31" stroke-dasharray="1,5" d="M261.63,-331.67C266.89,-327.21 273.54,-321.76 279.75,-317.24 300.09,-302.42 324.04,-287.12 342.41,-275.8"/>
<polygon fill="green" stroke="green" stroke-width="0.31" points="344.09,-278.87 350.8,-270.67 340.44,-272.9 344.09,-278.87"/>
</g>
<!-- 0 -->
<g id="node21" class="node">
<title>0</title>
<ellipse fill="lightblue" stroke="black" cx="685.75" cy="-257.2" rx="14.5" ry="14.5"/>
<text text-anchor="middle" x="685.75" y="-253.9" font-family="Times,serif" font-size="9.00">0</text>
</g>
<!-- 1 -->
<g id="node22" class="node">
<title>1</title>
<ellipse fill="lightblue" stroke="black" cx="671.75" cy="-89.03" rx="14.5" ry="14.5"/>
<text text-anchor="middle" x="671.75" y="-85.73" font-family="Times,serif" font-size="9.00">1</text>
</g>
<!-- 7448&#45;&gt;7016 -->
<g id="edge52" class="edge">
<title>7448&#45;&gt;7016</title>
<path fill="none" stroke="red" stroke-width="1.07" stroke-dasharray="1,5" d="M214.84,-325.91C219.29,-322.86 224.09,-319.79 228.75,-317.24 264.9,-297.47 309.07,-280.19 338.67,-269.52"/>
<polygon fill="red" stroke="red" stroke-width="1.07" points="339.49,-272.95 347.74,-266.3 337.14,-266.35 339.49,-272.95"/>
</g>
<!-- 7016&#45;&gt;1 -->
<g id="edge26" class="edge">
<title>7016&#45;&gt;1</title>
<path fill="none" stroke="green" stroke-width="0.32" stroke-dasharray="1,5" d="M391.09,-242.53C421.78,-221.17 483.87,-179.18 539.75,-149.07 576.82,-129.1 621.98,-109.96 648.72,-99.13"/>
<polygon fill="green" stroke="green" stroke-width="0.32" points="649.9,-102.42 657.88,-95.45 647.29,-95.93 649.9,-102.42"/>
</g>
<!-- 7016&#45;&gt;2 -->
<g id="edge24" class="edge">
<title>7016&#45;&gt;2</title>
<path fill="none" stroke="red" stroke-width="0.26" d="M394.05,-248.03C436.68,-232.41 529.35,-198.45 572.62,-182.59"/>
<polygon fill="red" stroke="red" stroke-width="0.26" points="573.71,-185.92 581.89,-179.2 571.3,-179.35 573.71,-185.92"/>
</g>
<!-- 7016&#45;&gt;7016 -->
<g id="edge7" class="edge">
<title>7016&#45;&gt;7016</title>
<path fill="none" stroke="red" stroke-width="0.21" d="M391.21,-271.98C402.84,-275.26 413.79,-270.34 413.79,-257.2 413.79,-247.96 408.38,-242.78 401.12,-241.67"/>
<polygon fill="red" stroke="red" stroke-width="0.21" points="401.23,-238.15 391.52,-242.4 401.76,-245.13 401.23,-238.15"/>
</g>
<!-- 7017&#45;&gt;2 -->
<g id="edge34" class="edge">
<title>7017&#45;&gt;2</title>
<path fill="none" stroke="red" stroke-width="0.19" stroke-dasharray="1,5" d="M818.14,-248.62C771.77,-233.09 666.34,-197.77 619.24,-181.99"/>
<polygon fill="red" stroke="red" stroke-width="0.19" points="620.47,-178.71 609.88,-178.85 618.25,-185.35 620.47,-178.71"/>
</g>
<!-- 7017&#45;&gt;7018 -->
<g id="edge41" class="edge">
<title>7017&#45;&gt;7018</title>
<path fill="none" stroke="red" stroke-width="0.91" d="M844.93,-233.33C846.35,-225.57 847.96,-216.72 849.51,-208.28"/>
<polygon fill="red" stroke="red" stroke-width="0.91" points="852.94,-208.96 851.29,-198.5 846.05,-207.7 852.94,-208.96"/>
</g>
<!-- 7018&#45;&gt;1 -->
<g id="edge14" class="edge">
<title>7018&#45;&gt;1</title>
<path fill="none" stroke="green" stroke-width="0.44" d="M832.49,-165.91C801.05,-156.95 743.85,-138.63 699.75,-113.07 696.49,-111.19 693.23,-108.92 690.14,-106.56"/>
<polygon fill="green" stroke="green" stroke-width="0.44" points="692.5,-103.97 682.56,-100.31 688.04,-109.37 692.5,-103.97"/>
</g>
<!-- 7018&#45;&gt;3 -->
<g id="edge32" class="edge">
<title>7018&#45;&gt;3</title>
<path fill="none" stroke="red" stroke-width="0.26" stroke-dasharray="1,5" d="M855.75,-148.67C855.75,-119.31 855.75,-69.27 855.75,-39.61"/>
<polygon fill="red" stroke="red" stroke-width="0.26" points="859.25,-39.71 855.75,-29.71 852.25,-39.71 859.25,-39.71"/>
</g>
<!-- 7018&#45;&gt;4 -->
<g id="edge28" class="edge">
<title>7018&#45;&gt;4</title>
<path fill="none" stroke="red" stroke-width="0.13" stroke-dasharray="1,5" d="M832.65,-165.39C806.11,-156.74 762.41,-139.61 732.75,-113.07 708.99,-91.82 691.15,-59.15 681.08,-37.56"/>
<polygon fill="red" stroke="red" stroke-width="0.13" points="684.38,-36.36 677.09,-28.67 678,-39.23 684.38,-36.36"/>
</g>
<!-- 7188 -->
<g id="node31" class="node">
<title>7188</title>
<ellipse fill="white" stroke="black" cx="765.75" cy="-89.03" rx="24.04" ry="24.04"/>
<text text-anchor="middle" x="765.75" y="-85.73" font-family="Times,serif" font-size="9.00">7188</text>
</g>
<!-- 7018&#45;&gt;7188 -->
<g id="edge42" class="edge">
<title>7018&#45;&gt;7188</title>
<path fill="none" stroke="red" stroke-width="0.39" d="M838.4,-156.29C824.91,-143.99 806.02,-126.76 790.88,-112.95"/>
<polygon fill="red" stroke="red" stroke-width="0.39" points="793.54,-110.64 783.79,-106.49 788.82,-115.81 793.54,-110.64"/>
</g>
<!-- 7288 -->
<g id="node32" class="node">
<title>7288</title>
<ellipse fill="white" stroke="black" cx="907.75" cy="-89.03" rx="24.04" ry="24.04"/>
<text text-anchor="middle" x="907.75" y="-85.73" font-family="Times,serif" font-size="9.00">7288</text>
</g>
<!-- 7018&#45;&gt;7288 -->
<g id="edge45" class="edge">
<title>7018&#45;&gt;7288</title>
<path fill="none" stroke="red" stroke-width="0.19" d="M868.34,-152.25C874.74,-142.14 882.64,-129.67 889.68,-118.56"/>
<polygon fill="red" stroke="red" stroke-width="0.19" points="892.55,-120.56 894.95,-110.24 886.64,-116.82 892.55,-120.56"/>
</g>
<!-- 7019&#45;&gt;0 -->
<g id="edge1" class="edge">
<title>7019&#45;&gt;0</title>
<path fill="none" stroke="green" stroke-width="0.21" stroke-dasharray="1,5" d="M685.75,-316.98C685.75,-306.03 685.75,-293 685.75,-281.99"/>
<polygon fill="green" stroke="green" stroke-width="0.21" points="689.25,-282.12 685.75,-272.12 682.25,-282.12 689.25,-282.12"/>
</g>
<!-- 7019&#45;&gt;4 -->
<g id="edge38" class="edge">
<title>7019&#45;&gt;4</title>
<path fill="none" stroke="green" stroke-width="0.29" stroke-dasharray="1,5" d="M675.81,-319.16C671.05,-308.11 665.75,-294.21 662.75,-281.24 645.85,-208.17 651.86,-188.01 648.75,-113.07 647.86,-91.72 644.14,-85.86 648.75,-64.99 650.93,-55.15 655.26,-44.94 659.59,-36.37"/>
<polygon fill="green" stroke="green" stroke-width="0.29" points="662.67,-38.03 664.33,-27.57 656.51,-34.71 662.67,-38.03"/>
</g>
<!-- 7019&#45;&gt;7017 -->
<g id="edge47" class="edge">
<title>7019&#45;&gt;7017</title>
<path fill="none" stroke="red" stroke-width="0.3" stroke-dasharray="1,5" d="M706.98,-329.04C733.88,-314.8 780.4,-290.16 810.88,-274.02"/>
<polygon fill="red" stroke="red" stroke-width="0.3" points="812.18,-277.29 819.38,-269.52 808.91,-271.1 812.18,-277.29"/>
</g>
<!-- 7019&#45;&gt;7019 -->
<g id="edge16" class="edge">
<title>7019&#45;&gt;7019</title>
<path fill="none" stroke="red" stroke-width="0.29" stroke-dasharray="1,5" d="M706.52,-353.74C717.65,-355.86 727.79,-351.7 727.79,-341.28 727.79,-334.28 723.21,-330.11 716.83,-328.77"/>
<polygon fill="red" stroke="red" stroke-width="0.29" points="716.94,-325.27 706.96,-328.82 716.98,-332.27 716.94,-325.27"/>
</g>
<!-- 7188&#45;&gt;4 -->
<g id="edge43" class="edge">
<title>7188&#45;&gt;4</title>
<path fill="none" stroke="red" stroke-width="0.15" d="M747.18,-73.7C730.87,-61.11 707.24,-42.88 690.79,-30.19"/>
<polygon fill="red" stroke="red" stroke-width="0.15" points="693.15,-27.59 683.09,-24.25 688.87,-33.13 693.15,-27.59"/>
</g>
<!-- 7288&#45;&gt;3 -->
<g id="edge46" class="edge">
<title>7288&#45;&gt;3</title>
<path fill="none" stroke="red" stroke-width="0.24" d="M894.09,-68.97C886.56,-58.48 877.25,-45.48 869.68,-34.93"/>
<polygon fill="red" stroke="red" stroke-width="0.24" points="872.7,-33.14 864.03,-27.05 867.01,-37.21 872.7,-33.14"/>
</g>
<!-- 7391&#45;&gt;7016 -->
<g id="edge49" class="edge">
<title>7391&#45;&gt;7016</title>
<path fill="none" stroke="red" stroke-width="0.53" d="M352.85,-317.85C355.49,-309.53 358.54,-299.91 361.41,-290.86"/>
<polygon fill="red" stroke="red" stroke-width="0.53" points="364.73,-291.95 364.41,-281.36 358.06,-289.84 364.73,-291.95"/>
</g>
</g>
</svg>
