<?xml version="1.0" encoding="UTF-8" standalone="no"?>
<!DOCTYPE svg PUBLIC "-//W3C//DTD SVG 1.1//EN"
 "http://www.w3.org/Graphics/SVG/1.1/DTD/svg11.dtd">
<!-- Generated by graphviz version 12.1.1 (20240910.0053)
 -->
<!-- Pages: 1 -->
<svg width="892pt" height="186pt"
 viewBox="0.00 0.00 892.25 186.07" xmlns="http://www.w3.org/2000/svg" xmlns:xlink="http://www.w3.org/1999/xlink">
<g id="graph0" class="graph" transform="scale(1 1) rotate(0) translate(4 182.07)">
<polygon fill="white" stroke="none" points="-4,4 -4,-182.07 888.25,-182.07 888.25,4 -4,4"/>
<!-- &#45;1 -->
<g id="node1" class="node">
<title>&#45;1</title>
<polygon fill="lightgray" stroke="black" points="157.5,-172.82 134,-172.82 134,-154.32 157.5,-154.32 157.5,-172.82"/>
<text text-anchor="middle" x="145.75" y="-160.27" font-family="Times,serif" font-size="9.00">&#45;1</text>
</g>
<!-- 6156 -->
<g id="node27" class="node">
<title>6156</title>
<ellipse fill="white" stroke="black" cx="166.75" cy="-89.03" rx="24.04" ry="24.04"/>
<text text-anchor="middle" x="166.75" y="-85.73" font-family="Times,serif" font-size="9.00">6156</text>
</g>
<!-- &#45;1&#45;&gt;6156 -->
<g id="edge11" class="edge">
<title>&#45;1&#45;&gt;6156</title>
<path fill="none" stroke="red" stroke-width="0.57" stroke-dasharray="1,5" d="M148.24,-153.96C150.49,-146.21 153.94,-134.29 157.25,-122.84"/>
<polygon fill="red" stroke="red" stroke-width="0.57" points="160.56,-124 159.98,-113.42 153.84,-122.05 160.56,-124"/>
</g>
<!-- &#45;2 -->
<g id="node2" class="node">
<title>&#45;2</title>
<polygon fill="lightgray" stroke="black" points="329.5,-172.82 306,-172.82 306,-154.32 329.5,-154.32 329.5,-172.82"/>
<text text-anchor="middle" x="317.75" y="-160.27" font-family="Times,serif" font-size="9.00">&#45;2</text>
</g>
<!-- 6155 -->
<g id="node26" class="node">
<title>6155</title>
<ellipse fill="white" stroke="black" cx="453.75" cy="-89.03" rx="24.04" ry="24.04"/>
<text text-anchor="middle" x="453.75" y="-85.73" font-family="Times,serif" font-size="9.00">6155</text>
</g>
<!-- &#45;2&#45;&gt;6155 -->
<g id="edge3" class="edge">
<title>&#45;2&#45;&gt;6155</title>
<path fill="none" stroke="green" stroke-width="0.56" d="M329.62,-154.66C332.57,-152.77 335.75,-150.81 338.75,-149.07 366.53,-133.07 399.12,-116.54 422.5,-105.06"/>
<polygon fill="green" stroke="green" stroke-width="0.56" points="424.01,-108.21 431.46,-100.68 420.94,-101.92 424.01,-108.21"/>
</g>
<!-- &#45;2&#45;&gt;6156 -->
<g id="edge14" class="edge">
<title>&#45;2&#45;&gt;6156</title>
<path fill="none" stroke="red" stroke-width="0.24" stroke-dasharray="1,5" d="M305.94,-154.56C302.99,-152.67 299.79,-150.73 296.75,-149.07 263.99,-131.23 224.81,-113.96 198.09,-102.75"/>
<polygon fill="red" stroke="red" stroke-width="0.24" points="199.75,-99.66 189.18,-99.05 197.07,-106.12 199.75,-99.66"/>
</g>
<!-- &#45;3 -->
<g id="node3" class="node">
<title>&#45;3</title>
<polygon fill="lightgray" stroke="black" points="555.5,-172.82 532,-172.82 532,-154.32 555.5,-154.32 555.5,-172.82"/>
<text text-anchor="middle" x="543.75" y="-160.27" font-family="Times,serif" font-size="9.00">&#45;3</text>
</g>
<!-- &#45;3&#45;&gt;6155 -->
<g id="edge15" class="edge">
<title>&#45;3&#45;&gt;6155</title>
<path fill="none" stroke="green" stroke-width="0.41" d="M533.07,-153.96C520.19,-143.58 498.06,-125.75 480.44,-111.55"/>
<polygon fill="green" stroke="green" stroke-width="0.41" points="482.68,-108.86 472.7,-105.31 478.29,-114.31 482.68,-108.86"/>
</g>
<!-- &#45;4 -->
<g id="node4" class="node">
<title>&#45;4</title>
<polygon fill="lightgray" stroke="black" points="199.5,-172.82 176,-172.82 176,-154.32 199.5,-154.32 199.5,-172.82"/>
<text text-anchor="middle" x="187.75" y="-160.27" font-family="Times,serif" font-size="9.00">&#45;4</text>
</g>
<!-- &#45;4&#45;&gt;6156 -->
<g id="edge6" class="edge">
<title>&#45;4&#45;&gt;6156</title>
<path fill="none" stroke="red" stroke-width="0.21" stroke-dasharray="1,5" d="M185.26,-153.96C182.99,-146.13 179.49,-134.05 176.15,-122.49"/>
<polygon fill="red" stroke="red" stroke-width="0.21" points="179.51,-121.53 173.37,-112.9 172.79,-123.48 179.51,-121.53"/>
</g>
<!-- &#45;5 -->
<g id="node5" class="node">
<title>&#45;5</title>
<polygon fill="lightgray" stroke="black" points="681.5,-172.82 658,-172.82 658,-154.32 681.5,-154.32 681.5,-172.82"/>
<text text-anchor="middle" x="669.75" y="-160.27" font-family="Times,serif" font-size="9.00">&#45;5</text>
</g>
<!-- &#45;6 -->
<g id="node6" class="node">
<title>&#45;6</title>
<polygon fill="lightgray" stroke="black" points="241.5,-172.82 218,-172.82 218,-154.32 241.5,-154.32 241.5,-172.82"/>
<text text-anchor="middle" x="229.75" y="-160.27" font-family="Times,serif" font-size="9.00">&#45;6</text>
</g>
<!-- &#45;6&#45;&gt;6156 -->
<g id="edge23" class="edge">
<title>&#45;6&#45;&gt;6156</title>
<path fill="none" stroke="red" stroke-width="0.15" d="M222.28,-153.96C214.05,-144.49 200.43,-128.82 188.75,-115.36"/>
<polygon fill="red" stroke="red" stroke-width="0.15" points="191.49,-113.18 182.29,-107.92 186.2,-117.77 191.49,-113.18"/>
</g>
<!-- &#45;7 -->
<g id="node7" class="node">
<title>&#45;7</title>
<polygon fill="lightgray" stroke="black" points="23.5,-172.82 0,-172.82 0,-154.32 23.5,-154.32 23.5,-172.82"/>
<text text-anchor="middle" x="11.75" y="-160.27" font-family="Times,serif" font-size="9.00">&#45;7</text>
</g>
<!-- &#45;7&#45;&gt;6156 -->
<g id="edge18" class="edge">
<title>&#45;7&#45;&gt;6156</title>
<path fill="none" stroke="red" stroke-width="0.26" d="M23.95,-154.16C26.77,-152.37 29.82,-150.57 32.75,-149.07 71.86,-129.11 84.98,-131.67 124.75,-113.07 128.84,-111.16 133.09,-109.02 137.25,-106.84"/>
<polygon fill="red" stroke="red" stroke-width="0.26" points="138.61,-110.08 145.74,-102.25 135.28,-103.92 138.61,-110.08"/>
</g>
<!-- &#45;8 -->
<g id="node8" class="node">
<title>&#45;8</title>
<polygon fill="lightgray" stroke="black" points="597.5,-172.82 574,-172.82 574,-154.32 597.5,-154.32 597.5,-172.82"/>
<text text-anchor="middle" x="585.75" y="-160.27" font-family="Times,serif" font-size="9.00">&#45;8</text>
</g>
<!-- &#45;8&#45;&gt;6155 -->
<g id="edge12" class="edge">
<title>&#45;8&#45;&gt;6155</title>
<path fill="none" stroke="green" stroke-width="0.29" d="M573.86,-154.69C570.91,-152.8 567.74,-150.83 564.75,-149.07 537.89,-133.34 506.51,-116.81 483.97,-105.26"/>
<polygon fill="green" stroke="green" stroke-width="0.29" points="485.78,-102.25 475.29,-100.82 482.6,-108.49 485.78,-102.25"/>
</g>
<!-- &#45;9 -->
<g id="node9" class="node">
<title>&#45;9</title>
<polygon fill="lightgray" stroke="black" points="639.5,-172.82 616,-172.82 616,-154.32 639.5,-154.32 639.5,-172.82"/>
<text text-anchor="middle" x="627.75" y="-160.27" font-family="Times,serif" font-size="9.00">&#45;9</text>
</g>
<!-- &#45;9&#45;&gt;6155 -->
<g id="edge7" class="edge">
<title>&#45;9&#45;&gt;6155</title>
<path fill="none" stroke="red" stroke-width="0.35" d="M615.56,-154.15C612.73,-152.36 609.69,-150.57 606.75,-149.07 566.66,-128.72 517.81,-111.01 486.27,-100.43"/>
<polygon fill="red" stroke="red" stroke-width="0.35" points="487.76,-97.24 477.17,-97.42 485.56,-103.88 487.76,-97.24"/>
</g>
<!-- &#45;10 -->
<g id="node10" class="node">
<title>&#45;10</title>
<polygon fill="lightgray" stroke="black" points="287.75,-172.82 259.75,-172.82 259.75,-154.32 287.75,-154.32 287.75,-172.82"/>
<text text-anchor="middle" x="273.75" y="-160.27" font-family="Times,serif" font-size="9.00">&#45;10</text>
</g>
<!-- &#45;10&#45;&gt;6155 -->
<g id="edge5" class="edge">
<title>&#45;10&#45;&gt;6155</title>
<path fill="none" stroke="green" stroke-width="0.55" d="M287.65,-153.9C290.61,-152.21 293.74,-150.51 296.75,-149.07 338.31,-129.25 388.43,-111.39 420.68,-100.63"/>
<polygon fill="green" stroke="green" stroke-width="0.55" points="421.69,-103.98 430.09,-97.52 419.5,-97.33 421.69,-103.98"/>
</g>
<!-- &#45;10&#45;&gt;6156 -->
<g id="edge2" class="edge">
<title>&#45;10&#45;&gt;6156</title>
<path fill="none" stroke="red" stroke-width="0.49" d="M261.06,-153.96C244.88,-143 216.44,-123.72 195.01,-109.19"/>
<polygon fill="red" stroke="red" stroke-width="0.49" points="197.17,-106.42 186.93,-103.71 193.24,-112.22 197.17,-106.42"/>
</g>
<!-- &#45;11 -->
<g id="node11" class="node">
<title>&#45;11</title>
<polygon fill="lightgray" stroke="black" points="375.75,-172.82 347.75,-172.82 347.75,-154.32 375.75,-154.32 375.75,-172.82"/>
<text text-anchor="middle" x="361.75" y="-160.27" font-family="Times,serif" font-size="9.00">&#45;11</text>
</g>
<!-- &#45;11&#45;&gt;6155 -->
<g id="edge20" class="edge">
<title>&#45;11&#45;&gt;6155</title>
<path fill="none" stroke="red" stroke-width="0.15" stroke-dasharray="1,5" d="M372.66,-153.96C386.04,-143.42 409.15,-125.2 427.29,-110.9"/>
<polygon fill="red" stroke="red" stroke-width="0.15" points="429.35,-113.72 435.04,-104.79 425.02,-108.23 429.35,-113.72"/>
</g>
<!-- &#45;12 -->
<g id="node12" class="node">
<title>&#45;12</title>
<polygon fill="lightgray" stroke="black" points="727.75,-172.82 699.75,-172.82 699.75,-154.32 727.75,-154.32 727.75,-172.82"/>
<text text-anchor="middle" x="713.75" y="-160.27" font-family="Times,serif" font-size="9.00">&#45;12</text>
</g>
<!-- &#45;13 -->
<g id="node13" class="node">
<title>&#45;13</title>
<polygon fill="lightgray" stroke="black" points="421.75,-172.82 393.75,-172.82 393.75,-154.32 421.75,-154.32 421.75,-172.82"/>
<text text-anchor="middle" x="407.75" y="-160.27" font-family="Times,serif" font-size="9.00">&#45;13</text>
</g>
<!-- &#45;13&#45;&gt;6155 -->
<g id="edge22" class="edge">
<title>&#45;13&#45;&gt;6155</title>
<path fill="none" stroke="green" stroke-width="0.23" stroke-dasharray="1,5" d="M413.21,-153.96C418.78,-145.18 427.72,-131.07 435.8,-118.34"/>
<polygon fill="green" stroke="green" stroke-width="0.23" points="438.61,-120.44 441.01,-110.12 432.7,-116.69 438.61,-120.44"/>
</g>
<!-- &#45;14 -->
<g id="node14" class="node">
<title>&#45;14</title>
<polygon fill="lightgray" stroke="black" points="69.75,-172.82 41.75,-172.82 41.75,-154.32 69.75,-154.32 69.75,-172.82"/>
<text text-anchor="middle" x="55.75" y="-160.27" font-family="Times,serif" font-size="9.00">&#45;14</text>
</g>
<!-- &#45;14&#45;&gt;6156 -->
<g id="edge21" class="edge">
<title>&#45;14&#45;&gt;6156</title>
<path fill="none" stroke="green" stroke-width="0.12" stroke-dasharray="1,5" d="M68.92,-153.96C85.95,-142.83 116.09,-123.14 138.42,-108.54"/>
<polygon fill="green" stroke="green" stroke-width="0.12" points="140.25,-111.53 146.7,-103.13 136.42,-105.67 140.25,-111.53"/>
</g>
<!-- &#45;15 -->
<g id="node15" class="node">
<title>&#45;15</title>
<polygon fill="lightgray" stroke="black" points="467.75,-172.82 439.75,-172.82 439.75,-154.32 467.75,-154.32 467.75,-172.82"/>
<text text-anchor="middle" x="453.75" y="-160.27" font-family="Times,serif" font-size="9.00">&#45;15</text>
</g>
<!-- &#45;15&#45;&gt;6155 -->
<g id="edge17" class="edge">
<title>&#45;15&#45;&gt;6155</title>
<path fill="none" stroke="green" stroke-width="0.42" d="M453.75,-153.96C453.75,-146.46 453.75,-135.05 453.75,-123.95"/>
<polygon fill="green" stroke="green" stroke-width="0.42" points="457.25,-124.16 453.75,-114.16 450.25,-124.16 457.25,-124.16"/>
</g>
<!-- &#45;16 -->
<g id="node16" class="node">
<title>&#45;16</title>
<polygon fill="lightgray" stroke="black" points="115.75,-172.82 87.75,-172.82 87.75,-154.32 115.75,-154.32 115.75,-172.82"/>
<text text-anchor="middle" x="101.75" y="-160.27" font-family="Times,serif" font-size="9.00">&#45;16</text>
</g>
<!-- &#45;16&#45;&gt;6156 -->
<g id="edge9" class="edge">
<title>&#45;16&#45;&gt;6156</title>
<path fill="none" stroke="red" stroke-width="0.24" stroke-dasharray="1,5" d="M109.46,-153.96C118.01,-144.43 132.18,-128.61 144.29,-115.09"/>
<polygon fill="red" stroke="red" stroke-width="0.24" points="146.82,-117.52 150.89,-107.74 141.61,-112.85 146.82,-117.52"/>
</g>
<!-- &#45;17 -->
<g id="node17" class="node">
<title>&#45;17</title>
<polygon fill="lightgray" stroke="black" points="773.75,-172.82 745.75,-172.82 745.75,-154.32 773.75,-154.32 773.75,-172.82"/>
<text text-anchor="middle" x="759.75" y="-160.27" font-family="Times,serif" font-size="9.00">&#45;17</text>
</g>
<!-- &#45;18 -->
<g id="node18" class="node">
<title>&#45;18</title>
<polygon fill="lightgray" stroke="black" points="513.75,-172.82 485.75,-172.82 485.75,-154.32 513.75,-154.32 513.75,-172.82"/>
<text text-anchor="middle" x="499.75" y="-160.27" font-family="Times,serif" font-size="9.00">&#45;18</text>
</g>
<!-- &#45;18&#45;&gt;6155 -->
<g id="edge8" class="edge">
<title>&#45;18&#45;&gt;6155</title>
<path fill="none" stroke="green" stroke-width="0.24" d="M494.29,-153.96C488.72,-145.18 479.78,-131.07 471.7,-118.34"/>
<polygon fill="green" stroke="green" stroke-width="0.24" points="474.81,-116.71 466.5,-110.14 468.9,-120.46 474.81,-116.71"/>
</g>
<!-- &#45;19 -->
<g id="node19" class="node">
<title>&#45;19</title>
<polygon fill="lightgray" stroke="black" points="819.75,-172.82 791.75,-172.82 791.75,-154.32 819.75,-154.32 819.75,-172.82"/>
<text text-anchor="middle" x="805.75" y="-160.27" font-family="Times,serif" font-size="9.00">&#45;19</text>
</g>
<!-- &#45;20 -->
<g id="node20" class="node">
<title>&#45;20</title>
<polygon fill="lightgray" stroke="black" points="115.75,-98.28 87.75,-98.28 87.75,-79.78 115.75,-79.78 115.75,-98.28"/>
<text text-anchor="middle" x="101.75" y="-85.73" font-family="Times,serif" font-size="9.00">&#45;20</text>
</g>
<!-- 0 -->
<g id="node21" class="node">
<title>0</title>
<ellipse fill="lightblue" stroke="black" cx="101.75" cy="-14.5" rx="14.5" ry="14.5"/>
<text text-anchor="middle" x="101.75" y="-11.2" font-family="Times,serif" font-size="9.00">0</text>
</g>
<!-- &#45;20&#45;&gt;0 -->
<g id="edge24" class="edge">
<title>&#45;20&#45;&gt;0</title>
<path fill="none" stroke="red" stroke-width="0.23" d="M101.75,-79.43C101.75,-69.66 101.75,-53.29 101.75,-39.56"/>
<polygon fill="red" stroke="red" stroke-width="0.23" points="105.25,-39.64 101.75,-29.64 98.25,-39.64 105.25,-39.64"/>
</g>
<!-- 0&#45;&gt;0 -->
<g id="edge10" class="edge">
<title>0&#45;&gt;0</title>
<path fill="none" stroke="green" stroke-width="0.83" stroke-dasharray="1,5" d="M111.73,-25.19C122.31,-31.89 134.25,-28.33 134.25,-14.5 134.25,-5.2 128.86,-0.54 122.11,-0.52"/>
<polygon fill="green" stroke="green" stroke-width="0.83" points="121.41,2.93 112.93,-3.42 123.52,-3.75 121.41,2.93"/>
</g>
<!-- 1 -->
<g id="node22" class="node">
<title>1</title>
<ellipse fill="lightblue" stroke="black" cx="166.75" cy="-14.5" rx="14.5" ry="14.5"/>
<text text-anchor="middle" x="166.75" y="-11.2" font-family="Times,serif" font-size="9.00">1</text>
</g>
<!-- 2 -->
<g id="node23" class="node">
<title>2</title>
<ellipse fill="lightblue" stroke="black" cx="851.75" cy="-163.57" rx="14.5" ry="14.5"/>
<text text-anchor="middle" x="851.75" y="-160.27" font-family="Times,serif" font-size="9.00">2</text>
</g>
<!-- 2&#45;&gt;2 -->
<g id="edge1" class="edge">
<title>2&#45;&gt;2</title>
<path fill="none" stroke="green" stroke-width="0.2" d="M861.73,-174.27C872.31,-180.97 884.25,-177.4 884.25,-163.57 884.25,-153.85 878.35,-149.2 871.16,-149.62"/>
<polygon fill="green" stroke="green" stroke-width="0.2" points="870.34,-146.2 862.02,-152.77 872.62,-152.82 870.34,-146.2"/>
</g>
<!-- 3 -->
<g id="node24" class="node">
<title>3</title>
<ellipse fill="lightblue" stroke="black" cx="453.75" cy="-14.5" rx="14.5" ry="14.5"/>
<text text-anchor="middle" x="453.75" y="-11.2" font-family="Times,serif" font-size="9.00">3</text>
</g>
<!-- 4 -->
<g id="node25" class="node">
<title>4</title>
<ellipse fill="lightblue" stroke="black" cx="213.75" cy="-14.5" rx="14.5" ry="14.5"/>
<text text-anchor="middle" x="213.75" y="-11.2" font-family="Times,serif" font-size="9.00">4</text>
</g>
<!-- 6155&#45;&gt;3 -->
<g id="edge16" class="edge">
<title>6155&#45;&gt;3</title>
<path fill="none" stroke="red" stroke-width="0.16" d="M453.75,-64.68C453.75,-56.5 453.75,-47.32 453.75,-39.12"/>
<polygon fill="red" stroke="red" stroke-width="0.16" points="457.25,-39.32 453.75,-29.32 450.25,-39.32 457.25,-39.32"/>
</g>
<!-- 6156&#45;&gt;0 -->
<g id="edge13" class="edge">
<title>6156&#45;&gt;0</title>
<path fill="none" stroke="green" stroke-width="0.35" stroke-dasharray="1,5" d="M151.02,-70.47C140.98,-59.27 128,-44.79 117.89,-33.5"/>
<polygon fill="green" stroke="green" stroke-width="0.35" points="120.74,-31.44 111.46,-26.33 115.53,-36.12 120.74,-31.44"/>
</g>
<!-- 6156&#45;&gt;1 -->
<g id="edge19" class="edge">
<title>6156&#45;&gt;1</title>
<path fill="none" stroke="green" stroke-width="0.62" d="M166.75,-64.68C166.75,-56.78 166.75,-47.94 166.75,-39.95"/>
<polygon fill="green" stroke="green" stroke-width="0.62" points="170.25,-40.02 166.75,-30.02 163.25,-40.02 170.25,-40.02"/>
</g>
<!-- 6156&#45;&gt;4 -->
<g id="edge4" class="edge">
<title>6156&#45;&gt;4</title>
<path fill="none" stroke="red" stroke-width="0.34" stroke-dasharray="1,5" d="M179.59,-68.21C186.09,-58.19 193.95,-46.05 200.5,-35.94"/>
<polygon fill="red" stroke="red" stroke-width="0.34" points="203.29,-38.08 205.79,-27.78 197.42,-34.27 203.29,-38.08"/>
</g>
</g>
</svg>
