<?xml version="1.0" encoding="UTF-8" standalone="no"?>
<!DOCTYPE svg PUBLIC "-//W3C//DTD SVG 1.1//EN"
 "http://www.w3.org/Graphics/SVG/1.1/DTD/svg11.dtd">
<!-- Generated by graphviz version 12.1.1 (20240910.0053)
 -->
<!-- Pages: 1 -->
<svg width="1040pt" height="260pt"
 viewBox="0.00 0.00 1040.08 259.66" xmlns="http://www.w3.org/2000/svg" xmlns:xlink="http://www.w3.org/1999/xlink">
<g id="graph0" class="graph" transform="scale(1 1) rotate(0) translate(4 255.66)">
<polygon fill="white" stroke="none" points="-4,4 -4,-255.66 1036.08,-255.66 1036.08,4 -4,4"/>
<!-- &#45;1 -->
<g id="node1" class="node">
<title>&#45;1</title>
<polygon fill="lightgray" stroke="black" points="437.79,-182.37 414.29,-182.37 414.29,-163.87 437.79,-163.87 437.79,-182.37"/>
<text text-anchor="middle" x="426.04" y="-169.82" font-family="Times,serif" font-size="9.00">&#45;1</text>
</g>
<!-- 6082 -->
<g id="node27" class="node">
<title>6082</title>
<ellipse fill="white" stroke="black" cx="187.04" cy="-89.03" rx="24.04" ry="24.04"/>
<text text-anchor="middle" x="187.04" y="-85.73" font-family="Times,serif" font-size="9.00">6082</text>
</g>
<!-- &#45;1&#45;&gt;6082 -->
<g id="edge20" class="edge">
<title>&#45;1&#45;&gt;6082</title>
<path fill="none" stroke="red" stroke-width="0.68" d="M420.33,-163.76C416.53,-158.81 411.14,-152.8 405.04,-149.07 346.89,-113.57 267.23,-99.06 222.07,-93.4"/>
<polygon fill="red" stroke="red" stroke-width="0.68" points="222.72,-89.96 212.38,-92.27 221.9,-96.91 222.72,-89.96"/>
</g>
<!-- 6083 -->
<g id="node28" class="node">
<title>6083</title>
<ellipse fill="white" stroke="black" cx="811.04" cy="-89.03" rx="24.04" ry="24.04"/>
<text text-anchor="middle" x="811.04" y="-85.73" font-family="Times,serif" font-size="9.00">6083</text>
</g>
<!-- &#45;1&#45;&gt;6083 -->
<g id="edge26" class="edge">
<title>&#45;1&#45;&gt;6083</title>
<path fill="none" stroke="red" stroke-width="0.13" stroke-dasharray="1,5" d="M431.63,-163.53C435.37,-158.5 440.76,-152.48 447.04,-149.07 475.92,-133.44 692.36,-104.94 777.13,-94.24"/>
<polygon fill="red" stroke="red" stroke-width="0.13" points="777.35,-97.74 786.84,-93.02 776.48,-90.79 777.35,-97.74"/>
</g>
<!-- 6084 -->
<g id="node29" class="node">
<title>6084</title>
<ellipse fill="white" stroke="black" cx="448.04" cy="-89.03" rx="24.04" ry="24.04"/>
<text text-anchor="middle" x="448.04" y="-85.73" font-family="Times,serif" font-size="9.00">6084</text>
</g>
<!-- &#45;1&#45;&gt;6084 -->
<g id="edge41" class="edge">
<title>&#45;1&#45;&gt;6084</title>
<path fill="none" stroke="green" stroke-width="0.16" stroke-dasharray="1,5" d="M428.31,-163.64C430.94,-153.83 435.43,-137.09 439.46,-122.05"/>
<polygon fill="green" stroke="green" stroke-width="0.16" points="442.75,-123.3 441.96,-112.73 435.99,-121.49 442.75,-123.3"/>
</g>
<!-- &#45;2 -->
<g id="node2" class="node">
<title>&#45;2</title>
<polygon fill="lightgray" stroke="black" points="567.79,-182.37 544.29,-182.37 544.29,-163.87 567.79,-163.87 567.79,-182.37"/>
<text text-anchor="middle" x="556.04" y="-169.82" font-family="Times,serif" font-size="9.00">&#45;2</text>
</g>
<!-- 6081 -->
<g id="node26" class="node">
<title>6081</title>
<ellipse fill="white" stroke="black" cx="596.04" cy="-89.03" rx="24.04" ry="24.04"/>
<text text-anchor="middle" x="596.04" y="-85.73" font-family="Times,serif" font-size="9.00">6081</text>
</g>
<!-- &#45;2&#45;&gt;6081 -->
<g id="edge22" class="edge">
<title>&#45;2&#45;&gt;6081</title>
<path fill="none" stroke="red" stroke-width="0.36" d="M560.17,-163.64C565.13,-153.46 573.72,-135.83 581.25,-120.38"/>
<polygon fill="red" stroke="red" stroke-width="0.36" points="584.29,-122.13 585.53,-111.61 578,-119.07 584.29,-122.13"/>
</g>
<!-- &#45;2&#45;&gt;6084 -->
<g id="edge36" class="edge">
<title>&#45;2&#45;&gt;6084</title>
<path fill="none" stroke="red" stroke-width="0.37" stroke-dasharray="1,5" d="M549.1,-163.56C545.2,-159.01 540.11,-153.47 535.04,-149.07 517.07,-133.5 494.85,-118.49 477.37,-107.5"/>
<polygon fill="red" stroke="red" stroke-width="0.37" points="479.53,-104.72 469.19,-102.43 475.85,-110.67 479.53,-104.72"/>
</g>
<!-- &#45;3 -->
<g id="node3" class="node">
<title>&#45;3</title>
<polygon fill="lightgray" stroke="black" points="927.79,-182.37 904.29,-182.37 904.29,-163.87 927.79,-163.87 927.79,-182.37"/>
<text text-anchor="middle" x="916.04" y="-169.82" font-family="Times,serif" font-size="9.00">&#45;3</text>
</g>
<!-- &#45;3&#45;&gt;6083 -->
<g id="edge30" class="edge">
<title>&#45;3&#45;&gt;6083</title>
<path fill="none" stroke="green" stroke-width="0.22" stroke-dasharray="1,5" d="M909.07,-163.59C905.16,-159.06 900.08,-153.51 895.04,-149.07 877.73,-133.82 856.45,-118.9 839.64,-107.87"/>
<polygon fill="green" stroke="green" stroke-width="0.22" points="841.88,-105.16 831.59,-102.66 838.08,-111.03 841.88,-105.16"/>
</g>
<!-- &#45;4 -->
<g id="node4" class="node">
<title>&#45;4</title>
<polygon fill="lightgray" stroke="black" points="349.79,-182.37 326.29,-182.37 326.29,-163.87 349.79,-163.87 349.79,-182.37"/>
<text text-anchor="middle" x="338.04" y="-169.82" font-family="Times,serif" font-size="9.00">&#45;4</text>
</g>
<!-- &#45;4&#45;&gt;6084 -->
<g id="edge40" class="edge">
<title>&#45;4&#45;&gt;6084</title>
<path fill="none" stroke="green" stroke-width="0.32" stroke-dasharray="1,5" d="M344.97,-163.54C348.86,-158.99 353.95,-153.44 359.04,-149.07 377.5,-133.25 400.4,-118.14 418.35,-107.17"/>
<polygon fill="green" stroke="green" stroke-width="0.32" points="420.05,-110.23 426.82,-102.08 416.45,-104.24 420.05,-110.23"/>
</g>
<!-- &#45;5 -->
<g id="node5" class="node">
<title>&#45;5</title>
<polygon fill="lightgray" stroke="black" points="759.79,-182.37 736.29,-182.37 736.29,-163.87 759.79,-163.87 759.79,-182.37"/>
<text text-anchor="middle" x="748.04" y="-169.82" font-family="Times,serif" font-size="9.00">&#45;5</text>
</g>
<!-- &#45;5&#45;&gt;6081 -->
<g id="edge24" class="edge">
<title>&#45;5&#45;&gt;6081</title>
<path fill="none" stroke="green" stroke-width="0.13" stroke-dasharray="1,5" d="M741.75,-163.65C737.9,-158.9 732.65,-153.14 727.04,-149.07 696.47,-126.9 656.24,-110.3 628.47,-100.44"/>
<polygon fill="green" stroke="green" stroke-width="0.13" points="629.62,-97.14 619.02,-97.18 627.33,-103.75 629.62,-97.14"/>
</g>
<!-- &#45;6 -->
<g id="node6" class="node">
<title>&#45;6</title>
<polygon fill="lightgray" stroke="black" points="885.79,-182.37 862.29,-182.37 862.29,-163.87 885.79,-163.87 885.79,-182.37"/>
<text text-anchor="middle" x="874.04" y="-169.82" font-family="Times,serif" font-size="9.00">&#45;6</text>
</g>
<!-- &#45;6&#45;&gt;6081 -->
<g id="edge37" class="edge">
<title>&#45;6&#45;&gt;6081</title>
<path fill="none" stroke="red" stroke-width="0.45" stroke-dasharray="1,5" d="M868.38,-163.67C864.6,-158.69 859.21,-152.68 853.04,-149.07 781.6,-107.33 682.93,-95.1 631.09,-91.52"/>
<polygon fill="red" stroke="red" stroke-width="0.45" points="631.34,-88.03 621.15,-90.9 630.91,-95.01 631.34,-88.03"/>
</g>
<!-- &#45;6&#45;&gt;6083 -->
<g id="edge23" class="edge">
<title>&#45;6&#45;&gt;6083</title>
<path fill="none" stroke="green" stroke-width="0.54" d="M867.54,-163.64C859.21,-152.79 844.37,-133.46 831.99,-117.33"/>
<polygon fill="green" stroke="green" stroke-width="0.54" points="834.78,-115.22 825.92,-109.42 829.23,-119.48 834.78,-115.22"/>
</g>
<!-- &#45;7 -->
<g id="node7" class="node">
<title>&#45;7</title>
<polygon fill="lightgray" stroke="black" points="843.79,-182.37 820.29,-182.37 820.29,-163.87 843.79,-163.87 843.79,-182.37"/>
<text text-anchor="middle" x="832.04" y="-169.82" font-family="Times,serif" font-size="9.00">&#45;7</text>
</g>
<!-- &#45;7&#45;&gt;6081 -->
<g id="edge9" class="edge">
<title>&#45;7&#45;&gt;6081</title>
<path fill="none" stroke="red" stroke-width="0.85" d="M826.32,-163.76C822.53,-158.82 817.13,-152.81 811.04,-149.07 754.09,-114.17 676.21,-99.49 631.51,-93.63"/>
<polygon fill="red" stroke="red" stroke-width="0.85" points="631.98,-90.17 621.63,-92.42 631.13,-97.11 631.98,-90.17"/>
</g>
<!-- &#45;7&#45;&gt;6083 -->
<g id="edge46" class="edge">
<title>&#45;7&#45;&gt;6083</title>
<path fill="none" stroke="red" stroke-width="0.12" stroke-dasharray="1,5" d="M829.87,-163.64C827.38,-153.9 823.14,-137.32 819.31,-122.36"/>
<polygon fill="red" stroke="red" stroke-width="0.12" points="822.79,-121.84 816.92,-113.02 816.01,-123.57 822.79,-121.84"/>
</g>
<!-- &#45;8 -->
<g id="node8" class="node">
<title>&#45;8</title>
<polygon fill="lightgray" stroke="black" points="525.79,-182.37 502.29,-182.37 502.29,-163.87 525.79,-163.87 525.79,-182.37"/>
<text text-anchor="middle" x="514.04" y="-169.82" font-family="Times,serif" font-size="9.00">&#45;8</text>
</g>
<!-- &#45;8&#45;&gt;6081 -->
<g id="edge25" class="edge">
<title>&#45;8&#45;&gt;6081</title>
<path fill="none" stroke="green" stroke-width="0.3" stroke-dasharray="1,5" d="M521.7,-163.46C525.62,-159.09 530.52,-153.74 535.04,-149.07 546.72,-137.04 560.06,-124.05 571.28,-113.32"/>
<polygon fill="green" stroke="green" stroke-width="0.3" points="573.51,-116.03 578.34,-106.6 568.69,-110.96 573.51,-116.03"/>
</g>
<!-- &#45;8&#45;&gt;6082 -->
<g id="edge31" class="edge">
<title>&#45;8&#45;&gt;6082</title>
<path fill="none" stroke="red" stroke-width="0.3" d="M508.42,-163.6C504.66,-158.59 499.27,-152.57 493.04,-149.07 404.42,-99.37 281.13,-90.82 221.74,-89.79"/>
<polygon fill="red" stroke="red" stroke-width="0.3" points="221.91,-86.29 211.87,-89.68 221.83,-93.29 221.91,-86.29"/>
</g>
<!-- &#45;8&#45;&gt;6083 -->
<g id="edge43" class="edge">
<title>&#45;8&#45;&gt;6083</title>
<path fill="none" stroke="green" stroke-width="0.23" d="M519.69,-163.64C523.46,-158.65 528.85,-152.63 535.04,-149.07 576.1,-125.5 712.44,-103.87 776.82,-94.69"/>
<polygon fill="green" stroke="green" stroke-width="0.23" points="777.1,-98.18 786.52,-93.32 776.13,-91.25 777.1,-98.18"/>
</g>
<!-- &#45;8&#45;&gt;6084 -->
<g id="edge1" class="edge">
<title>&#45;8&#45;&gt;6084</title>
<path fill="none" stroke="red" stroke-width="0.12" stroke-dasharray="1,5" d="M507.23,-163.64C498.28,-152.52 482.18,-132.49 469.02,-116.13"/>
<polygon fill="red" stroke="red" stroke-width="0.12" points="471.95,-114.18 462.96,-108.58 466.5,-118.57 471.95,-114.18"/>
</g>
<!-- &#45;9 -->
<g id="node9" class="node">
<title>&#45;9</title>
<polygon fill="lightgray" stroke="black" points="801.79,-182.37 778.29,-182.37 778.29,-163.87 801.79,-163.87 801.79,-182.37"/>
<text text-anchor="middle" x="790.04" y="-169.82" font-family="Times,serif" font-size="9.00">&#45;9</text>
</g>
<!-- &#45;9&#45;&gt;6083 -->
<g id="edge6" class="edge">
<title>&#45;9&#45;&gt;6083</title>
<path fill="none" stroke="red" stroke-width="0.11" d="M792.21,-163.64C794.7,-153.9 798.94,-137.32 802.77,-122.36"/>
<polygon fill="red" stroke="red" stroke-width="0.11" points="806.07,-123.57 805.16,-113.01 799.29,-121.83 806.07,-123.57"/>
</g>
<!-- &#45;9&#45;&gt;6084 -->
<g id="edge12" class="edge">
<title>&#45;9&#45;&gt;6084</title>
<path fill="none" stroke="green" stroke-width="0.31" stroke-dasharray="1,5" d="M784.44,-163.56C780.69,-158.53 775.3,-152.51 769.04,-149.07 687.58,-104.32 654.39,-130.21 563.04,-113.07 535.74,-107.96 504.89,-101.75 482.02,-97.07"/>
<polygon fill="green" stroke="green" stroke-width="0.31" points="482.76,-93.65 472.26,-95.07 481.35,-100.51 482.76,-93.65"/>
</g>
<!-- &#45;10 -->
<g id="node10" class="node">
<title>&#45;10</title>
<polygon fill="lightgray" stroke="black" points="94.04,-182.37 66.04,-182.37 66.04,-163.87 94.04,-163.87 94.04,-182.37"/>
<text text-anchor="middle" x="80.04" y="-169.82" font-family="Times,serif" font-size="9.00">&#45;10</text>
</g>
<!-- &#45;10&#45;&gt;6082 -->
<g id="edge17" class="edge">
<title>&#45;10&#45;&gt;6082</title>
<path fill="none" stroke="green" stroke-width="0.35" d="M90.32,-163.46C95.57,-159.09 102.1,-153.74 108.04,-149.07 124.82,-135.91 143.97,-121.58 159.22,-110.33"/>
<polygon fill="green" stroke="green" stroke-width="0.35" points="161.28,-113.16 167.27,-104.42 157.14,-107.52 161.28,-113.16"/>
</g>
<!-- &#45;11 -->
<g id="node11" class="node">
<title>&#45;11</title>
<polygon fill="lightgray" stroke="black" points="224.04,-182.37 196.04,-182.37 196.04,-163.87 224.04,-163.87 224.04,-182.37"/>
<text text-anchor="middle" x="210.04" y="-169.82" font-family="Times,serif" font-size="9.00">&#45;11</text>
</g>
<!-- &#45;11&#45;&gt;6081 -->
<g id="edge4" class="edge">
<title>&#45;11&#45;&gt;6081</title>
<path fill="none" stroke="red" stroke-width="0.3" stroke-dasharray="1,5" d="M224.33,-165.83C236.53,-160.67 254.66,-153.53 271.04,-149.07 362.42,-124.23 387.94,-130.38 481.04,-113.07 508.35,-108 539.2,-101.79 562.07,-97.1"/>
<polygon fill="red" stroke="red" stroke-width="0.3" points="562.76,-100.53 571.85,-95.08 561.35,-93.67 562.76,-100.53"/>
</g>
<!-- &#45;11&#45;&gt;6082 -->
<g id="edge34" class="edge">
<title>&#45;11&#45;&gt;6082</title>
<path fill="none" stroke="red" stroke-width="0.57" d="M207.67,-163.64C204.97,-154.02 200.4,-137.72 196.25,-122.91"/>
<polygon fill="red" stroke="red" stroke-width="0.57" points="199.64,-122.02 193.57,-113.34 192.9,-123.91 199.64,-122.02"/>
</g>
<!-- &#45;12 -->
<g id="node12" class="node">
<title>&#45;12</title>
<polygon fill="lightgray" stroke="black" points="178.04,-182.37 150.04,-182.37 150.04,-163.87 178.04,-163.87 178.04,-182.37"/>
<text text-anchor="middle" x="164.04" y="-169.82" font-family="Times,serif" font-size="9.00">&#45;12</text>
</g>
<!-- &#45;12&#45;&gt;6082 -->
<g id="edge3" class="edge">
<title>&#45;12&#45;&gt;6082</title>
<path fill="none" stroke="red" stroke-width="0.2" d="M166.42,-163.64C169.17,-153.83 173.86,-137.09 178.07,-122.05"/>
<polygon fill="red" stroke="red" stroke-width="0.2" points="181.34,-123.36 180.67,-112.79 174.6,-121.47 181.34,-123.36"/>
</g>
<!-- &#45;12&#45;&gt;6084 -->
<g id="edge29" class="edge">
<title>&#45;12&#45;&gt;6084</title>
<path fill="none" stroke="red" stroke-width="0.3" stroke-dasharray="1,5" d="M170.41,-163.67C174.6,-158.69 180.51,-152.68 187.04,-149.07 260.9,-108.31 361.29,-95.67 413.42,-91.76"/>
<polygon fill="red" stroke="red" stroke-width="0.3" points="413.59,-95.26 423.33,-91.09 413.11,-88.28 413.59,-95.26"/>
</g>
<!-- &#45;13 -->
<g id="node13" class="node">
<title>&#45;13</title>
<polygon fill="lightgray" stroke="black" points="87.04,-251.66 59.04,-251.66 59.04,-233.16 87.04,-233.16 87.04,-251.66"/>
<text text-anchor="middle" x="73.04" y="-239.11" font-family="Times,serif" font-size="9.00">&#45;13</text>
</g>
<!-- &#45;13&#45;&gt;6082 -->
<g id="edge39" class="edge">
<title>&#45;13&#45;&gt;6082</title>
<path fill="none" stroke="red" stroke-width="0.11" stroke-dasharray="1,5" d="M79.34,-232.69C91.25,-216.25 117.96,-179.54 141.04,-149.07 149.21,-138.29 158.35,-126.5 166.32,-116.32"/>
<polygon fill="red" stroke="red" stroke-width="0.11" points="168.89,-118.71 172.3,-108.68 163.38,-114.39 168.89,-118.71"/>
</g>
<!-- 6582 -->
<g id="node31" class="node">
<title>6582</title>
<ellipse fill="white" stroke="black" cx="24.04" cy="-173.12" rx="24.04" ry="24.04"/>
<text text-anchor="middle" x="24.04" y="-169.82" font-family="Times,serif" font-size="9.00">6582</text>
</g>
<!-- &#45;13&#45;&gt;6582 -->
<g id="edge50" class="edge">
<title>&#45;13&#45;&gt;6582</title>
<path fill="none" stroke="green" stroke-width="0.15" d="M66.84,-232.89C61.03,-224.92 52.05,-212.58 43.81,-201.26"/>
<polygon fill="green" stroke="green" stroke-width="0.15" points="46.84,-199.48 38.13,-193.46 41.18,-203.6 46.84,-199.48"/>
</g>
<!-- &#45;14 -->
<g id="node14" class="node">
<title>&#45;14</title>
<polygon fill="lightgray" stroke="black" points="754.04,-251.66 726.04,-251.66 726.04,-233.16 754.04,-233.16 754.04,-251.66"/>
<text text-anchor="middle" x="740.04" y="-239.11" font-family="Times,serif" font-size="9.00">&#45;14</text>
</g>
<!-- &#45;15 -->
<g id="node15" class="node">
<title>&#45;15</title>
<polygon fill="lightgray" stroke="black" points="396.04,-182.37 368.04,-182.37 368.04,-163.87 396.04,-163.87 396.04,-182.37"/>
<text text-anchor="middle" x="382.04" y="-169.82" font-family="Times,serif" font-size="9.00">&#45;15</text>
</g>
<!-- &#45;15&#45;&gt;6081 -->
<g id="edge2" class="edge">
<title>&#45;15&#45;&gt;6081</title>
<path fill="none" stroke="green" stroke-width="0.17" stroke-dasharray="1,5" d="M388.9,-163.4C393.1,-158.57 398.85,-152.81 405.04,-149.07 455.23,-118.78 522.34,-102.76 562.19,-95.37"/>
<polygon fill="green" stroke="green" stroke-width="0.17" points="562.71,-98.83 571.94,-93.63 561.48,-91.94 562.71,-98.83"/>
</g>
<!-- &#45;15&#45;&gt;6082 -->
<g id="edge35" class="edge">
<title>&#45;15&#45;&gt;6082</title>
<path fill="none" stroke="green" stroke-width="0.3" stroke-dasharray="1,5" d="M375.14,-163.47C370.93,-158.67 365.18,-152.91 359.04,-149.07 315.18,-121.67 257.01,-105.16 220.82,-96.82"/>
<polygon fill="green" stroke="green" stroke-width="0.3" points="221.75,-93.45 211.23,-94.69 220.23,-100.28 221.75,-93.45"/>
</g>
<!-- &#45;15&#45;&gt;6084 -->
<g id="edge5" class="edge">
<title>&#45;15&#45;&gt;6084</title>
<path fill="none" stroke="red" stroke-width="0.1" stroke-dasharray="1,5" d="M388.86,-163.64C397.8,-152.52 413.91,-132.49 427.06,-116.13"/>
<polygon fill="red" stroke="red" stroke-width="0.1" points="429.6,-118.55 433.14,-108.56 424.15,-114.16 429.6,-118.55"/>
</g>
<!-- &#45;16 -->
<g id="node16" class="node">
<title>&#45;16</title>
<polygon fill="lightgray" stroke="black" points="652.04,-182.37 624.04,-182.37 624.04,-163.87 652.04,-163.87 652.04,-182.37"/>
<text text-anchor="middle" x="638.04" y="-169.82" font-family="Times,serif" font-size="9.00">&#45;16</text>
</g>
<!-- 4 -->
<g id="node25" class="node">
<title>4</title>
<ellipse fill="lightblue" stroke="black" cx="766.04" cy="-14.5" rx="14.5" ry="14.5"/>
<text text-anchor="middle" x="766.04" y="-11.2" font-family="Times,serif" font-size="9.00">4</text>
</g>
<!-- &#45;16&#45;&gt;4 -->
<g id="edge47" class="edge">
<title>&#45;16&#45;&gt;4</title>
<path fill="none" stroke="red" stroke-width="0.37" d="M644.92,-163.7C664.84,-139.33 722.87,-68.32 750.75,-34.21"/>
<polygon fill="red" stroke="red" stroke-width="0.37" points="753.17,-36.77 756.79,-26.81 747.75,-32.34 753.17,-36.77"/>
</g>
<!-- &#45;16&#45;&gt;6081 -->
<g id="edge13" class="edge">
<title>&#45;16&#45;&gt;6081</title>
<path fill="none" stroke="red" stroke-width="0.6" d="M633.71,-163.64C628.46,-153.4 619.36,-135.6 611.41,-120.07"/>
<polygon fill="red" stroke="red" stroke-width="0.6" points="614.74,-118.9 607.07,-111.59 608.51,-122.09 614.74,-118.9"/>
</g>
<!-- &#45;16&#45;&gt;6084 -->
<g id="edge19" class="edge">
<title>&#45;16&#45;&gt;6084</title>
<path fill="none" stroke="red" stroke-width="0.2" d="M623.76,-165.95C593.24,-152.76 521.05,-121.57 479.31,-103.54"/>
<polygon fill="red" stroke="red" stroke-width="0.2" points="480.74,-100.35 470.17,-99.59 477.97,-106.77 480.74,-100.35"/>
</g>
<!-- &#45;17 -->
<g id="node17" class="node">
<title>&#45;17</title>
<polygon fill="lightgray" stroke="black" points="308.04,-182.37 280.04,-182.37 280.04,-163.87 308.04,-163.87 308.04,-182.37"/>
<text text-anchor="middle" x="294.04" y="-169.82" font-family="Times,serif" font-size="9.00">&#45;17</text>
</g>
<!-- &#45;17&#45;&gt;6084 -->
<g id="edge10" class="edge">
<title>&#45;17&#45;&gt;6084</title>
<path fill="none" stroke="green" stroke-width="0.11" stroke-dasharray="1,5" d="M301.08,-163.68C305.34,-158.95 311.09,-153.19 317.04,-149.07 348.11,-127.6 388.25,-110.87 415.87,-100.79"/>
<polygon fill="green" stroke="green" stroke-width="0.11" points="417.04,-104.09 425.28,-97.43 414.69,-97.5 417.04,-104.09"/>
</g>
<!-- &#45;18 -->
<g id="node18" class="node">
<title>&#45;18</title>
<polygon fill="lightgray" stroke="black" points="800.04,-251.66 772.04,-251.66 772.04,-233.16 800.04,-233.16 800.04,-251.66"/>
<text text-anchor="middle" x="786.04" y="-239.11" font-family="Times,serif" font-size="9.00">&#45;18</text>
</g>
<!-- &#45;19 -->
<g id="node19" class="node">
<title>&#45;19</title>
<polygon fill="lightgray" stroke="black" points="484.04,-182.37 456.04,-182.37 456.04,-163.87 484.04,-163.87 484.04,-182.37"/>
<text text-anchor="middle" x="470.04" y="-169.82" font-family="Times,serif" font-size="9.00">&#45;19</text>
</g>
<!-- &#45;19&#45;&gt;6081 -->
<g id="edge7" class="edge">
<title>&#45;19&#45;&gt;6081</title>
<path fill="none" stroke="green" stroke-width="0.31" stroke-dasharray="1,5" d="M477.64,-163.45C481.91,-158.87 487.48,-153.34 493.04,-149.07 515.75,-131.69 544.1,-115.81 565.3,-104.9"/>
<polygon fill="green" stroke="green" stroke-width="0.31" points="566.73,-108.1 574.08,-100.47 563.58,-101.85 566.73,-108.1"/>
</g>
<!-- &#45;19&#45;&gt;6084 -->
<g id="edge27" class="edge">
<title>&#45;19&#45;&gt;6084</title>
<path fill="none" stroke="green" stroke-width="0.34" d="M467.77,-163.64C465.17,-153.92 460.74,-137.41 456.74,-122.48"/>
<polygon fill="green" stroke="green" stroke-width="0.34" points="460.16,-121.74 454.19,-112.99 453.4,-123.56 460.16,-121.74"/>
</g>
<!-- &#45;20 -->
<g id="node20" class="node">
<title>&#45;20</title>
<polygon fill="lightgray" stroke="black" points="708.04,-251.66 680.04,-251.66 680.04,-233.16 708.04,-233.16 708.04,-251.66"/>
<text text-anchor="middle" x="694.04" y="-239.11" font-family="Times,serif" font-size="9.00">&#45;20</text>
</g>
<!-- &#45;20&#45;&gt;6081 -->
<g id="edge18" class="edge">
<title>&#45;20&#45;&gt;6081</title>
<path fill="none" stroke="red" stroke-width="0.12" stroke-dasharray="1,5" d="M679.8,-237.56C661.69,-231.88 630.89,-219.45 615.04,-197.16 599.86,-175.8 595.55,-146.12 594.79,-123.42"/>
<polygon fill="red" stroke="red" stroke-width="0.12" points="598.3,-123.68 594.67,-113.72 591.3,-123.77 598.3,-123.68"/>
</g>
<!-- &#45;20&#45;&gt;6083 -->
<g id="edge32" class="edge">
<title>&#45;20&#45;&gt;6083</title>
<path fill="none" stroke="green" stroke-width="0.13" d="M708.52,-235.76C711.32,-234.8 714.25,-233.88 717.04,-233.16 765,-220.74 904.97,-234.91 937.04,-197.16 950.88,-180.87 948.51,-167.11 937.04,-149.07 916.9,-117.39 874.77,-102.41 844.77,-95.54"/>
<polygon fill="green" stroke="green" stroke-width="0.13" points="845.81,-92.18 835.3,-93.55 844.37,-99.03 845.81,-92.18"/>
</g>
<!-- &#45;20&#45;&gt;6084 -->
<g id="edge21" class="edge">
<title>&#45;20&#45;&gt;6084</title>
<path fill="none" stroke="red" stroke-width="0.19" d="M679.6,-241.02C608.62,-238.96 299.03,-228.22 271.04,-197.16 256.74,-181.28 258.55,-166.41 271.04,-149.07 303.53,-103.99 371.97,-92.81 413.58,-90.35"/>
<polygon fill="red" stroke="red" stroke-width="0.19" points="413.67,-93.85 423.51,-89.9 413.36,-86.86 413.67,-93.85"/>
</g>
<!-- 6217 -->
<g id="node30" class="node">
<title>6217</title>
<ellipse fill="white" stroke="black" cx="694.04" cy="-173.12" rx="24.04" ry="24.04"/>
<text text-anchor="middle" x="694.04" y="-169.82" font-family="Times,serif" font-size="9.00">6217</text>
</g>
<!-- &#45;20&#45;&gt;6217 -->
<g id="edge44" class="edge">
<title>&#45;20&#45;&gt;6217</title>
<path fill="none" stroke="green" stroke-width="0.29" stroke-dasharray="1,5" d="M694.04,-232.89C694.04,-226.46 694.04,-217.2 694.04,-207.92"/>
<polygon fill="green" stroke="green" stroke-width="0.29" points="697.54,-208.02 694.04,-198.02 690.54,-208.02 697.54,-208.02"/>
</g>
<!-- 6329 -->
<g id="node32" class="node">
<title>6329</title>
<ellipse fill="white" stroke="black" cx="1008.04" cy="-173.12" rx="24.04" ry="24.04"/>
<text text-anchor="middle" x="1008.04" y="-169.82" font-family="Times,serif" font-size="9.00">6329</text>
</g>
<!-- &#45;20&#45;&gt;6329 -->
<g id="edge48" class="edge">
<title>&#45;20&#45;&gt;6329</title>
<path fill="none" stroke="red" stroke-width="0.1" d="M708.51,-235.72C711.31,-234.76 714.24,-233.85 717.04,-233.16 827.29,-205.84 863.09,-235.38 970.04,-197.16 973.34,-195.98 976.66,-194.5 979.89,-192.85"/>
<polygon fill="red" stroke="red" stroke-width="0.1" points="981.55,-195.94 988.55,-187.98 978.12,-189.83 981.55,-195.94"/>
</g>
<!-- 0 -->
<g id="node21" class="node">
<title>0</title>
<ellipse fill="lightblue" stroke="black" cx="596.04" cy="-14.5" rx="14.5" ry="14.5"/>
<text text-anchor="middle" x="596.04" y="-11.2" font-family="Times,serif" font-size="9.00">0</text>
</g>
<!-- 0&#45;&gt;0 -->
<g id="edge28" class="edge">
<title>0&#45;&gt;0</title>
<path fill="none" stroke="green" stroke-width="0.42" stroke-dasharray="1,5" d="M606.02,-25.19C616.6,-31.89 628.54,-28.33 628.54,-14.5 628.54,-4.99 622.9,-0.33 615.93,-0.53"/>
<polygon fill="green" stroke="green" stroke-width="0.42" points="615.02,2.86 606.62,-3.6 617.22,-3.79 615.02,2.86"/>
</g>
<!-- 1 -->
<g id="node22" class="node">
<title>1</title>
<ellipse fill="lightblue" stroke="black" cx="164.04" cy="-14.5" rx="14.5" ry="14.5"/>
<text text-anchor="middle" x="164.04" y="-11.2" font-family="Times,serif" font-size="9.00">1</text>
</g>
<!-- 2 -->
<g id="node23" class="node">
<title>2</title>
<ellipse fill="lightblue" stroke="black" cx="211.04" cy="-14.5" rx="14.5" ry="14.5"/>
<text text-anchor="middle" x="211.04" y="-11.2" font-family="Times,serif" font-size="9.00">2</text>
</g>
<!-- 3 -->
<g id="node24" class="node">
<title>3</title>
<ellipse fill="lightblue" stroke="black" cx="448.04" cy="-14.5" rx="14.5" ry="14.5"/>
<text text-anchor="middle" x="448.04" y="-11.2" font-family="Times,serif" font-size="9.00">3</text>
</g>
<!-- 6081&#45;&gt;0 -->
<g id="edge8" class="edge">
<title>6081&#45;&gt;0</title>
<path fill="none" stroke="red" stroke-width="0.39" stroke-dasharray="1,5" d="M596.04,-64.68C596.04,-56.6 596.04,-47.52 596.04,-39.39"/>
<polygon fill="red" stroke="red" stroke-width="0.39" points="599.54,-39.66 596.04,-29.66 592.54,-39.66 599.54,-39.66"/>
</g>
<!-- 6082&#45;&gt;1 -->
<g id="edge11" class="edge">
<title>6082&#45;&gt;1</title>
<path fill="none" stroke="green" stroke-width="0.33" d="M180.02,-65.88C177.27,-57.23 174.13,-47.31 171.36,-38.57"/>
<polygon fill="green" stroke="green" stroke-width="0.33" points="174.73,-37.62 168.37,-29.15 168.06,-39.74 174.73,-37.62"/>
</g>
<!-- 6082&#45;&gt;2 -->
<g id="edge33" class="edge">
<title>6082&#45;&gt;2</title>
<path fill="none" stroke="red" stroke-width="0.2" d="M194.37,-65.88C197.27,-57.13 200.59,-47.09 203.5,-38.29"/>
<polygon fill="red" stroke="red" stroke-width="0.2" points="206.77,-39.55 206.59,-28.96 200.12,-37.35 206.77,-39.55"/>
</g>
<!-- 6082&#45;&gt;6082 -->
<g id="edge42" class="edge">
<title>6082&#45;&gt;6082</title>
<path fill="none" stroke="green" stroke-width="0.13" stroke-dasharray="1,5" d="M207.37,-102.34C218.68,-104.82 229.08,-100.39 229.08,-89.03 229.08,-81.23 224.16,-76.69 217.42,-75.42"/>
<polygon fill="green" stroke="green" stroke-width="0.13" points="217.47,-71.92 207.58,-75.72 217.68,-78.92 217.47,-71.92"/>
</g>
<!-- 6083&#45;&gt;0 -->
<g id="edge38" class="edge">
<title>6083&#45;&gt;0</title>
<path fill="none" stroke="red" stroke-width="0.79" d="M788.44,-80.41C747.65,-66.65 662.1,-37.78 620.2,-23.65"/>
<polygon fill="red" stroke="red" stroke-width="0.79" points="621.57,-20.42 610.98,-20.54 619.33,-27.05 621.57,-20.42"/>
</g>
<!-- 6083&#45;&gt;4 -->
<g id="edge16" class="edge">
<title>6083&#45;&gt;4</title>
<path fill="none" stroke="green" stroke-width="0.33" stroke-dasharray="1,5" d="M798.75,-68.21C792.59,-58.29 785.15,-46.29 778.92,-36.25"/>
<polygon fill="green" stroke="green" stroke-width="0.33" points="781.9,-34.42 773.66,-27.77 775.95,-38.11 781.9,-34.42"/>
</g>
<!-- 6084&#45;&gt;0 -->
<g id="edge14" class="edge">
<title>6084&#45;&gt;0</title>
<path fill="none" stroke="green" stroke-width="0.22" d="M469.56,-77.49C497.53,-63.78 546.11,-39.97 574.22,-26.19"/>
<polygon fill="green" stroke="green" stroke-width="0.22" points="575.51,-29.46 582.95,-21.91 572.43,-23.17 575.51,-29.46"/>
</g>
<!-- 6084&#45;&gt;3 -->
<g id="edge15" class="edge">
<title>6084&#45;&gt;3</title>
<path fill="none" stroke="green" stroke-width="0.32" d="M448.04,-64.68C448.04,-56.6 448.04,-47.52 448.04,-39.39"/>
<polygon fill="green" stroke="green" stroke-width="0.32" points="451.54,-39.56 448.04,-29.56 444.54,-39.56 451.54,-39.56"/>
</g>
<!-- 6217&#45;&gt;6081 -->
<g id="edge45" class="edge">
<title>6217&#45;&gt;6081</title>
<path fill="none" stroke="green" stroke-width="0.14" stroke-dasharray="1,5" d="M676.07,-157.06C660.83,-144.3 638.79,-125.84 621.7,-111.52"/>
<polygon fill="green" stroke="green" stroke-width="0.14" points="624.31,-109.15 614.4,-105.41 619.82,-114.51 624.31,-109.15"/>
</g>
<!-- 6582&#45;&gt;6082 -->
<g id="edge51" class="edge">
<title>6582&#45;&gt;6082</title>
<path fill="none" stroke="red" stroke-width="0.21" d="M43.2,-157.86C47.64,-154.8 52.43,-151.7 57.04,-149.07 89.46,-130.6 128.7,-113.44 155.53,-102.44"/>
<polygon fill="red" stroke="red" stroke-width="0.21" points="156.58,-105.79 164.53,-98.79 153.94,-99.3 156.58,-105.79"/>
</g>
<!-- 6329&#45;&gt;6083 -->
<g id="edge49" class="edge">
<title>6329&#45;&gt;6083</title>
<path fill="none" stroke="red" stroke-width="0.49" d="M988.32,-159.19C982.55,-155.68 976.15,-152.03 970.04,-149.07 927.82,-128.66 876.59,-110.8 843.91,-100.21"/>
<polygon fill="red" stroke="red" stroke-width="0.49" points="845.27,-96.97 834.68,-97.26 843.14,-103.64 845.27,-96.97"/>
</g>
</g>
</svg>
