<?xml version="1.0" encoding="UTF-8" standalone="no"?>
<!DOCTYPE svg PUBLIC "-//W3C//DTD SVG 1.1//EN"
 "http://www.w3.org/Graphics/SVG/1.1/DTD/svg11.dtd">
<!-- Generated by graphviz version 12.1.1 (20240910.0053)
 -->
<!-- Pages: 1 -->
<svg width="1010pt" height="279pt"
 viewBox="0.00 0.00 1009.79 278.75" xmlns="http://www.w3.org/2000/svg" xmlns:xlink="http://www.w3.org/1999/xlink">
<g id="graph0" class="graph" transform="scale(1 1) rotate(0) translate(4 274.75)">
<polygon fill="white" stroke="none" points="-4,4 -4,-274.75 1005.79,-274.75 1005.79,4 -4,4"/>
<!-- &#45;1 -->
<g id="node1" class="node">
<title>&#45;1</title>
<polygon fill="lightgray" stroke="black" points="369.79,-201.46 346.29,-201.46 346.29,-182.96 369.79,-182.96 369.79,-201.46"/>
<text text-anchor="middle" x="358.04" y="-188.91" font-family="Times,serif" font-size="9.00">&#45;1</text>
</g>
<!-- 2581 -->
<g id="node28" class="node">
<title>2581</title>
<ellipse fill="white" stroke="black" cx="226.04" cy="-108.12" rx="24.04" ry="24.04"/>
<text text-anchor="middle" x="226.04" y="-104.82" font-family="Times,serif" font-size="9.00">2581</text>
</g>
<!-- &#45;1&#45;&gt;2581 -->
<g id="edge40" class="edge">
<title>&#45;1&#45;&gt;2581</title>
<path fill="none" stroke="green" stroke-width="0.26" d="M351.65,-182.87C347.76,-178.18 342.51,-172.42 337.04,-168.17 312.45,-149.07 280.81,-132.93 257.6,-122.37"/>
<polygon fill="green" stroke="green" stroke-width="0.26" points="259.14,-119.23 248.58,-118.36 256.3,-125.62 259.14,-119.23"/>
</g>
<!-- 2583 -->
<g id="node30" class="node">
<title>2583</title>
<ellipse fill="white" stroke="black" cx="511.04" cy="-108.12" rx="24.04" ry="24.04"/>
<text text-anchor="middle" x="511.04" y="-104.82" font-family="Times,serif" font-size="9.00">2583</text>
</g>
<!-- &#45;1&#45;&gt;2583 -->
<g id="edge30" class="edge">
<title>&#45;1&#45;&gt;2583</title>
<path fill="none" stroke="red" stroke-width="0.18" d="M364.33,-182.73C368.18,-177.99 373.43,-172.23 379.04,-168.17 409.84,-145.89 450.38,-129.31 478.37,-119.48"/>
<polygon fill="red" stroke="red" stroke-width="0.18" points="479.47,-122.8 487.81,-116.26 477.21,-116.18 479.47,-122.8"/>
</g>
<!-- &#45;2 -->
<g id="node2" class="node">
<title>&#45;2</title>
<polygon fill="lightgray" stroke="black" points="1001.79,-201.46 978.29,-201.46 978.29,-182.96 1001.79,-182.96 1001.79,-201.46"/>
<text text-anchor="middle" x="990.04" y="-188.91" font-family="Times,serif" font-size="9.00">&#45;2</text>
</g>
<!-- 2582 -->
<g id="node29" class="node">
<title>2582</title>
<ellipse fill="white" stroke="black" cx="864.04" cy="-108.12" rx="24.04" ry="24.04"/>
<text text-anchor="middle" x="864.04" y="-104.82" font-family="Times,serif" font-size="9.00">2582</text>
</g>
<!-- &#45;2&#45;&gt;2582 -->
<g id="edge7" class="edge">
<title>&#45;2&#45;&gt;2582</title>
<path fill="none" stroke="red" stroke-width="0.27" stroke-dasharray="1,5" d="M983.24,-182.48C979.39,-177.88 974.29,-172.34 969.04,-168.17 946.09,-149.91 916.77,-133.93 894.95,-123.22"/>
<polygon fill="red" stroke="red" stroke-width="0.27" points="896.71,-120.18 886.18,-119 893.67,-126.49 896.71,-120.18"/>
</g>
<!-- &#45;3 -->
<g id="node3" class="node">
<title>&#45;3</title>
<polygon fill="lightgray" stroke="black" points="653.79,-201.46 630.29,-201.46 630.29,-182.96 653.79,-182.96 653.79,-201.46"/>
<text text-anchor="middle" x="642.04" y="-188.91" font-family="Times,serif" font-size="9.00">&#45;3</text>
</g>
<!-- &#45;3&#45;&gt;2581 -->
<g id="edge20" class="edge">
<title>&#45;3&#45;&gt;2581</title>
<path fill="none" stroke="red" stroke-width="0.81" stroke-dasharray="1,5" d="M636.48,-182.58C632.74,-177.54 627.35,-171.51 621.04,-168.17 522.26,-115.77 482.6,-148.88 372.04,-132.17 334.07,-126.43 290.61,-119.52 261.05,-114.78"/>
<polygon fill="red" stroke="red" stroke-width="0.81" points="261.69,-111.34 251.27,-113.21 260.58,-118.25 261.69,-111.34"/>
</g>
<!-- &#45;3&#45;&gt;2582 -->
<g id="edge41" class="edge">
<title>&#45;3&#45;&gt;2582</title>
<path fill="none" stroke="red" stroke-width="0.47" d="M647.79,-182.89C651.59,-177.96 656.98,-171.95 663.04,-168.17 715.7,-135.25 787.53,-119.98 829.53,-113.46"/>
<polygon fill="red" stroke="red" stroke-width="0.47" points="829.95,-116.93 839.34,-112.01 828.93,-110.01 829.95,-116.93"/>
</g>
<!-- &#45;3&#45;&gt;2583 -->
<g id="edge17" class="edge">
<title>&#45;3&#45;&gt;2583</title>
<path fill="none" stroke="green" stroke-width="0.13" d="M635.64,-182.88C631.76,-178.19 626.51,-172.43 621.04,-168.17 596.66,-149.16 565.3,-133.01 542.31,-122.43"/>
<polygon fill="green" stroke="green" stroke-width="0.13" points="543.75,-119.24 533.2,-118.32 540.88,-125.62 543.75,-119.24"/>
</g>
<!-- &#45;4 -->
<g id="node4" class="node">
<title>&#45;4</title>
<polygon fill="lightgray" stroke="black" points="643.79,-270.75 620.29,-270.75 620.29,-252.25 643.79,-252.25 643.79,-270.75"/>
<text text-anchor="middle" x="632.04" y="-258.2" font-family="Times,serif" font-size="9.00">&#45;4</text>
</g>
<!-- &#45;5 -->
<g id="node5" class="node">
<title>&#45;5</title>
<polygon fill="lightgray" stroke="black" points="155.79,-201.46 132.29,-201.46 132.29,-182.96 155.79,-182.96 155.79,-201.46"/>
<text text-anchor="middle" x="144.04" y="-188.91" font-family="Times,serif" font-size="9.00">&#45;5</text>
</g>
<!-- &#45;5&#45;&gt;2581 -->
<g id="edge2" class="edge">
<title>&#45;5&#45;&gt;2581</title>
<path fill="none" stroke="red" stroke-width="0.2" d="M151.7,-182.56C155.62,-178.18 160.52,-172.83 165.04,-168.17 176.72,-156.14 190.06,-143.14 201.28,-132.41"/>
<polygon fill="red" stroke="red" stroke-width="0.2" points="203.62,-135.02 208.45,-125.6 198.79,-129.95 203.62,-135.02"/>
</g>
<!-- 2742 -->
<g id="node32" class="node">
<title>2742</title>
<ellipse fill="white" stroke="black" cx="482.04" cy="-24.04" rx="24.04" ry="24.04"/>
<text text-anchor="middle" x="482.04" y="-20.74" font-family="Times,serif" font-size="9.00">2742</text>
</g>
<!-- &#45;5&#45;&gt;2742 -->
<g id="edge47" class="edge">
<title>&#45;5&#45;&gt;2742</title>
<path fill="none" stroke="red" stroke-width="0.68" d="M145.29,-182.66C148.77,-162.14 160.54,-109.92 193.04,-84.08 232.15,-52.99 379.56,-34.99 447.44,-28.19"/>
<polygon fill="red" stroke="red" stroke-width="0.68" points="447.36,-31.72 456.97,-27.26 446.68,-24.75 447.36,-31.72"/>
</g>
<!-- &#45;6 -->
<g id="node6" class="node">
<title>&#45;6</title>
<polygon fill="lightgray" stroke="black" points="197.79,-201.46 174.29,-201.46 174.29,-182.96 197.79,-182.96 197.79,-201.46"/>
<text text-anchor="middle" x="186.04" y="-188.91" font-family="Times,serif" font-size="9.00">&#45;6</text>
</g>
<!-- &#45;6&#45;&gt;2581 -->
<g id="edge13" class="edge">
<title>&#45;6&#45;&gt;2581</title>
<path fill="none" stroke="green" stroke-width="0.13" stroke-dasharray="1,5" d="M190.17,-182.73C195.18,-172.46 203.89,-154.59 211.47,-139.03"/>
<polygon fill="green" stroke="green" stroke-width="0.13" points="214.45,-140.91 215.68,-130.38 208.15,-137.84 214.45,-140.91"/>
</g>
<!-- &#45;6&#45;&gt;2583 -->
<g id="edge18" class="edge">
<title>&#45;6&#45;&gt;2583</title>
<path fill="none" stroke="green" stroke-width="0.78" d="M198.04,-185.84C209.82,-180.73 228.39,-173.11 245.04,-168.17 320.33,-145.8 341.47,-149.61 418.04,-132.17 437.69,-127.69 459.57,-122.29 477.17,-117.84"/>
<polygon fill="green" stroke="green" stroke-width="0.78" points="477.81,-121.29 486.64,-115.44 476.08,-114.51 477.81,-121.29"/>
</g>
<!-- 2584 -->
<g id="node31" class="node">
<title>2584</title>
<ellipse fill="white" stroke="black" cx="108.04" cy="-108.12" rx="24.04" ry="24.04"/>
<text text-anchor="middle" x="108.04" y="-104.82" font-family="Times,serif" font-size="9.00">2584</text>
</g>
<!-- &#45;6&#45;&gt;2584 -->
<g id="edge1" class="edge">
<title>&#45;6&#45;&gt;2584</title>
<path fill="none" stroke="green" stroke-width="0.31" d="M178.32,-182.62C174.38,-178.26 169.49,-172.9 165.04,-168.17 154.22,-156.63 142.06,-143.99 131.76,-133.38"/>
<polygon fill="green" stroke="green" stroke-width="0.31" points="134.45,-131.12 124.96,-126.39 129.43,-136 134.45,-131.12"/>
</g>
<!-- &#45;7 -->
<g id="node7" class="node">
<title>&#45;7</title>
<polygon fill="lightgray" stroke="black" points="875.79,-201.46 852.29,-201.46 852.29,-182.96 875.79,-182.96 875.79,-201.46"/>
<text text-anchor="middle" x="864.04" y="-188.91" font-family="Times,serif" font-size="9.00">&#45;7</text>
</g>
<!-- &#45;7&#45;&gt;2582 -->
<g id="edge29" class="edge">
<title>&#45;7&#45;&gt;2582</title>
<path fill="none" stroke="green" stroke-width="0.53" stroke-dasharray="1,5" d="M864.04,-182.73C864.04,-173.4 864.04,-157.79 864.04,-143.34"/>
<polygon fill="green" stroke="green" stroke-width="0.53" points="867.54,-143.44 864.04,-133.44 860.54,-143.44 867.54,-143.44"/>
</g>
<!-- &#45;8 -->
<g id="node8" class="node">
<title>&#45;8</title>
<polygon fill="lightgray" stroke="black" points="369.79,-270.75 346.29,-270.75 346.29,-252.25 369.79,-252.25 369.79,-270.75"/>
<text text-anchor="middle" x="358.04" y="-258.2" font-family="Times,serif" font-size="9.00">&#45;8</text>
</g>
<!-- 2738 -->
<g id="node27" class="node">
<title>2738</title>
<ellipse fill="white" stroke="black" cx="588.04" cy="-192.21" rx="24.04" ry="24.04"/>
<text text-anchor="middle" x="588.04" y="-188.91" font-family="Times,serif" font-size="9.00">2738</text>
</g>
<!-- &#45;8&#45;&gt;2738 -->
<g id="edge42" class="edge">
<title>&#45;8&#45;&gt;2738</title>
<path fill="none" stroke="red" stroke-width="0.18" d="M370.09,-259.43C401.67,-256.28 488.97,-245.38 555.04,-216.25 557.07,-215.36 559.1,-214.33 561.1,-213.22"/>
<polygon fill="red" stroke="red" stroke-width="0.18" points="562.71,-216.34 569.36,-208.09 559.02,-210.39 562.71,-216.34"/>
</g>
<!-- &#45;8&#45;&gt;2581 -->
<g id="edge8" class="edge">
<title>&#45;8&#45;&gt;2581</title>
<path fill="none" stroke="red" stroke-width="0.23" stroke-dasharray="1,5" d="M345.93,-259.53C322.48,-256.97 270.95,-247.86 245.04,-216.25 228.22,-195.73 224.14,-165.47 223.88,-142.34"/>
<polygon fill="red" stroke="red" stroke-width="0.23" points="227.38,-142.67 224,-132.63 220.38,-142.58 227.38,-142.67"/>
</g>
<!-- &#45;8&#45;&gt;2583 -->
<g id="edge21" class="edge">
<title>&#45;8&#45;&gt;2583</title>
<path fill="none" stroke="red" stroke-width="0.3" d="M370.02,-259.04C392.78,-255.66 442.52,-245.23 471.04,-216.25 490.73,-196.25 500.87,-165.68 506,-142.3"/>
<polygon fill="red" stroke="red" stroke-width="0.3" points="509.42,-143.07 507.94,-132.58 502.55,-141.71 509.42,-143.07"/>
</g>
<!-- &#45;8&#45;&gt;2584 -->
<g id="edge4" class="edge">
<title>&#45;8&#45;&gt;2584</title>
<path fill="none" stroke="green" stroke-width="0.47" d="M345.95,-260.47C298.2,-260.07 123.68,-255.89 90.04,-216.25 72,-194.98 80.81,-162.54 91.47,-138.93"/>
<polygon fill="green" stroke="green" stroke-width="0.47" points="94.56,-140.57 95.77,-130.05 88.26,-137.52 94.56,-140.57"/>
</g>
<!-- &#45;9 -->
<g id="node9" class="node">
<title>&#45;9</title>
<polygon fill="lightgray" stroke="black" points="833.79,-201.46 810.29,-201.46 810.29,-182.96 833.79,-182.96 833.79,-201.46"/>
<text text-anchor="middle" x="822.04" y="-188.91" font-family="Times,serif" font-size="9.00">&#45;9</text>
</g>
<!-- &#45;9&#45;&gt;2582 -->
<g id="edge36" class="edge">
<title>&#45;9&#45;&gt;2582</title>
<path fill="none" stroke="green" stroke-width="0.11" stroke-dasharray="1,5" d="M826.38,-182.73C831.67,-172.39 840.9,-154.35 848.9,-138.72"/>
<polygon fill="green" stroke="green" stroke-width="0.11" points="851.91,-140.51 853.35,-130.02 845.68,-137.33 851.91,-140.51"/>
</g>
<!-- &#45;9&#45;&gt;2583 -->
<g id="edge24" class="edge">
<title>&#45;9&#45;&gt;2583</title>
<path fill="none" stroke="green" stroke-width="0.15" stroke-dasharray="1,5" d="M816.41,-182.71C812.64,-177.71 807.25,-171.69 801.04,-168.17 717.75,-120.89 602.01,-111.16 545.23,-109.36"/>
<polygon fill="green" stroke="green" stroke-width="0.15" points="545.65,-105.87 535.56,-109.12 545.47,-112.87 545.65,-105.87"/>
</g>
<!-- &#45;10 -->
<g id="node10" class="node">
<title>&#45;10</title>
<polygon fill="lightgray" stroke="black" points="746.04,-201.46 718.04,-201.46 718.04,-182.96 746.04,-182.96 746.04,-201.46"/>
<text text-anchor="middle" x="732.04" y="-188.91" font-family="Times,serif" font-size="9.00">&#45;10</text>
</g>
<!-- &#45;10&#45;&gt;2583 -->
<g id="edge10" class="edge">
<title>&#45;10&#45;&gt;2583</title>
<path fill="none" stroke="green" stroke-width="0.44" stroke-dasharray="1,5" d="M725.2,-182.47C721,-177.63 715.25,-171.87 709.04,-168.17 656.73,-136.95 586.69,-121.17 545.46,-114.08"/>
<polygon fill="green" stroke="green" stroke-width="0.44" points="546.23,-110.66 535.79,-112.49 545.09,-117.57 546.23,-110.66"/>
</g>
<!-- &#45;11 -->
<g id="node11" class="node">
<title>&#45;11</title>
<polygon fill="lightgray" stroke="black" points="602.04,-270.75 574.04,-270.75 574.04,-252.25 602.04,-252.25 602.04,-270.75"/>
<text text-anchor="middle" x="588.04" y="-258.2" font-family="Times,serif" font-size="9.00">&#45;11</text>
</g>
<!-- &#45;11&#45;&gt;2738 -->
<g id="edge50" class="edge">
<title>&#45;11&#45;&gt;2738</title>
<path fill="none" stroke="green" stroke-width="0.23" d="M588.04,-251.98C588.04,-245.55 588.04,-236.29 588.04,-227.01"/>
<polygon fill="green" stroke="green" stroke-width="0.23" points="591.54,-227.03 588.04,-217.03 584.54,-227.03 591.54,-227.03"/>
</g>
<!-- &#45;11&#45;&gt;2582 -->
<g id="edge25" class="edge">
<title>&#45;11&#45;&gt;2582</title>
<path fill="none" stroke="red" stroke-width="0.3" stroke-dasharray="1,5" d="M602.5,-254.78C605.3,-253.83 608.24,-252.93 611.04,-252.25 670.73,-237.8 844.54,-262.42 885.04,-216.25 903.72,-194.96 893.44,-162.03 881.64,-138.3"/>
<polygon fill="red" stroke="red" stroke-width="0.3" points="884.74,-136.67 876.96,-129.47 878.55,-139.94 884.74,-136.67"/>
</g>
<!-- &#45;11&#45;&gt;2584 -->
<g id="edge33" class="edge">
<title>&#45;11&#45;&gt;2584</title>
<path fill="none" stroke="red" stroke-width="0.33" d="M573.68,-259.63C497.1,-254.94 139.78,-232.26 123.04,-216.25 103.63,-197.67 101.23,-166.4 102.89,-142.42"/>
<polygon fill="red" stroke="red" stroke-width="0.33" points="106.37,-142.77 103.85,-132.49 99.4,-142.1 106.37,-142.77"/>
</g>
<!-- &#45;12 -->
<g id="node12" class="node">
<title>&#45;12</title>
<polygon fill="lightgray" stroke="black" points="328.04,-201.46 300.04,-201.46 300.04,-182.96 328.04,-182.96 328.04,-201.46"/>
<text text-anchor="middle" x="314.04" y="-188.91" font-family="Times,serif" font-size="9.00">&#45;12</text>
</g>
<!-- 1 -->
<g id="node22" class="node">
<title>1</title>
<ellipse fill="lightblue" stroke="black" cx="395.04" cy="-108.12" rx="14.5" ry="14.5"/>
<text text-anchor="middle" x="395.04" y="-104.82" font-family="Times,serif" font-size="9.00">1</text>
</g>
<!-- &#45;12&#45;&gt;1 -->
<g id="edge44" class="edge">
<title>&#45;12&#45;&gt;1</title>
<path fill="none" stroke="green" stroke-width="0.43" d="M322.4,-182.73C335.44,-169.52 360.89,-143.74 377.93,-126.47"/>
<polygon fill="green" stroke="green" stroke-width="0.43" points="380.1,-129.25 384.63,-119.68 375.11,-124.34 380.1,-129.25"/>
</g>
<!-- &#45;12&#45;&gt;2581 -->
<g id="edge32" class="edge">
<title>&#45;12&#45;&gt;2581</title>
<path fill="none" stroke="green" stroke-width="0.35" stroke-dasharray="1,5" d="M305.62,-182.57C301.31,-178.2 295.95,-172.85 291.04,-168.17 278.19,-155.91 263.58,-142.58 251.47,-131.7"/>
<polygon fill="green" stroke="green" stroke-width="0.35" points="254.09,-129.35 244.31,-125.29 249.42,-134.57 254.09,-129.35"/>
</g>
<!-- &#45;13 -->
<g id="node13" class="node">
<title>&#45;13</title>
<polygon fill="lightgray" stroke="black" points="416.04,-201.46 388.04,-201.46 388.04,-182.96 416.04,-182.96 416.04,-201.46"/>
<text text-anchor="middle" x="402.04" y="-188.91" font-family="Times,serif" font-size="9.00">&#45;13</text>
</g>
<!-- &#45;13&#45;&gt;2581 -->
<g id="edge9" class="edge">
<title>&#45;13&#45;&gt;2581</title>
<path fill="none" stroke="red" stroke-width="0.13" d="M395.09,-182.65C390.85,-177.88 385.1,-172.11 379.04,-168.17 341.1,-143.45 291.24,-126.66 258.93,-117.48"/>
<polygon fill="red" stroke="red" stroke-width="0.13" points="260.25,-114.22 249.68,-114.93 258.39,-120.96 260.25,-114.22"/>
</g>
<!-- &#45;13&#45;&gt;2583 -->
<g id="edge34" class="edge">
<title>&#45;13&#45;&gt;2583</title>
<path fill="none" stroke="red" stroke-width="0.45" d="M409.78,-182.72C414.09,-178.2 419.65,-172.65 425.04,-168.17 443.01,-153.21 464.73,-138.33 481.84,-127.24"/>
<polygon fill="red" stroke="red" stroke-width="0.45" points="483.71,-130.2 490.25,-121.87 479.94,-124.31 483.71,-130.2"/>
</g>
<!-- &#45;14 -->
<g id="node14" class="node">
<title>&#45;14</title>
<polygon fill="lightgray" stroke="black" points="546.04,-201.46 518.04,-201.46 518.04,-182.96 546.04,-182.96 546.04,-201.46"/>
<text text-anchor="middle" x="532.04" y="-188.91" font-family="Times,serif" font-size="9.00">&#45;14</text>
</g>
<!-- &#45;14&#45;&gt;2583 -->
<g id="edge31" class="edge">
<title>&#45;14&#45;&gt;2583</title>
<path fill="none" stroke="red" stroke-width="0.3" stroke-dasharray="1,5" d="M529.87,-182.73C527.4,-173.08 523.22,-156.72 519.42,-141.88"/>
<polygon fill="red" stroke="red" stroke-width="0.3" points="522.86,-141.2 516.99,-132.38 516.08,-142.94 522.86,-141.2"/>
</g>
<!-- &#45;15 -->
<g id="node15" class="node">
<title>&#45;15</title>
<polygon fill="lightgray" stroke="black" points="700.04,-201.46 672.04,-201.46 672.04,-182.96 700.04,-182.96 700.04,-201.46"/>
<text text-anchor="middle" x="686.04" y="-188.91" font-family="Times,serif" font-size="9.00">&#45;15</text>
</g>
<!-- &#45;15&#45;&gt;2583 -->
<g id="edge11" class="edge">
<title>&#45;15&#45;&gt;2583</title>
<path fill="none" stroke="red" stroke-width="0.29" d="M679.09,-182.65C674.85,-177.88 669.1,-172.12 663.04,-168.17 625.61,-143.73 576.52,-126.97 544.4,-117.72"/>
<polygon fill="red" stroke="red" stroke-width="0.29" points="545.61,-114.43 535.03,-115.1 543.72,-121.17 545.61,-114.43"/>
</g>
<!-- &#45;16 -->
<g id="node16" class="node">
<title>&#45;16</title>
<polygon fill="lightgray" stroke="black" points="462.04,-201.46 434.04,-201.46 434.04,-182.96 462.04,-182.96 462.04,-201.46"/>
<text text-anchor="middle" x="448.04" y="-188.91" font-family="Times,serif" font-size="9.00">&#45;16</text>
</g>
<!-- &#45;16&#45;&gt;1 -->
<g id="edge49" class="edge">
<title>&#45;16&#45;&gt;1</title>
<path fill="none" stroke="green" stroke-width="0.35" d="M442.57,-182.73C434.54,-170.29 419.31,-146.7 408.25,-129.58"/>
<polygon fill="green" stroke="green" stroke-width="0.35" points="411.26,-127.79 402.89,-121.28 405.38,-131.58 411.26,-127.79"/>
</g>
<!-- &#45;16&#45;&gt;2583 -->
<g id="edge23" class="edge">
<title>&#45;16&#45;&gt;2583</title>
<path fill="none" stroke="green" stroke-width="0.22" d="M454.55,-182.73C462.95,-171.78 477.99,-152.19 490.43,-135.97"/>
<polygon fill="green" stroke="green" stroke-width="0.22" points="493.14,-138.19 496.46,-128.13 487.59,-133.93 493.14,-138.19"/>
</g>
<!-- &#45;17 -->
<g id="node17" class="node">
<title>&#45;17</title>
<polygon fill="lightgray" stroke="black" points="38.04,-201.46 10.04,-201.46 10.04,-182.96 38.04,-182.96 38.04,-201.46"/>
<text text-anchor="middle" x="24.04" y="-188.91" font-family="Times,serif" font-size="9.00">&#45;17</text>
</g>
<!-- 3248 -->
<g id="node26" class="node">
<title>3248</title>
<ellipse fill="white" stroke="black" cx="24.04" cy="-108.12" rx="24.04" ry="24.04"/>
<text text-anchor="middle" x="24.04" y="-104.82" font-family="Times,serif" font-size="9.00">3248</text>
</g>
<!-- &#45;17&#45;&gt;3248 -->
<g id="edge48" class="edge">
<title>&#45;17&#45;&gt;3248</title>
<path fill="none" stroke="green" stroke-width="0.47" d="M24.04,-182.73C24.04,-173.4 24.04,-157.79 24.04,-143.34"/>
<polygon fill="green" stroke="green" stroke-width="0.47" points="27.54,-143.35 24.04,-133.35 20.54,-143.35 27.54,-143.35"/>
</g>
<!-- &#45;17&#45;&gt;2581 -->
<g id="edge15" class="edge">
<title>&#45;17&#45;&gt;2581</title>
<path fill="none" stroke="red" stroke-width="0.2" d="M38.25,-185.44C70.47,-172.34 149.78,-140.11 194.34,-122.01"/>
<polygon fill="red" stroke="red" stroke-width="0.2" points="195.59,-125.28 203.53,-118.27 192.95,-118.79 195.59,-125.28"/>
</g>
<!-- &#45;17&#45;&gt;2584 -->
<g id="edge19" class="edge">
<title>&#45;17&#45;&gt;2584</title>
<path fill="none" stroke="green" stroke-width="0.3" stroke-dasharray="1,5" d="M32.71,-182.73C44.75,-170.98 66.96,-149.27 84.16,-132.47"/>
<polygon fill="green" stroke="green" stroke-width="0.3" points="86.15,-135.41 90.85,-125.92 81.25,-130.41 86.15,-135.41"/>
</g>
<!-- &#45;18 -->
<g id="node18" class="node">
<title>&#45;18</title>
<polygon fill="lightgray" stroke="black" points="960.04,-201.46 932.04,-201.46 932.04,-182.96 960.04,-182.96 960.04,-201.46"/>
<text text-anchor="middle" x="946.04" y="-188.91" font-family="Times,serif" font-size="9.00">&#45;18</text>
</g>
<!-- &#45;18&#45;&gt;2582 -->
<g id="edge27" class="edge">
<title>&#45;18&#45;&gt;2582</title>
<path fill="none" stroke="green" stroke-width="0.15" d="M937.58,-182.73C925.9,-171.05 904.41,-149.54 887.67,-132.77"/>
<polygon fill="green" stroke="green" stroke-width="0.15" points="890.53,-130.69 880.99,-126.09 885.58,-135.64 890.53,-130.69"/>
</g>
<!-- &#45;19 -->
<g id="node19" class="node">
<title>&#45;19</title>
<polygon fill="lightgray" stroke="black" points="282.04,-201.46 254.04,-201.46 254.04,-182.96 282.04,-182.96 282.04,-201.46"/>
<text text-anchor="middle" x="268.04" y="-188.91" font-family="Times,serif" font-size="9.00">&#45;19</text>
</g>
<!-- &#45;19&#45;&gt;2583 -->
<g id="edge16" class="edge">
<title>&#45;19&#45;&gt;2583</title>
<path fill="none" stroke="red" stroke-width="0.54" stroke-dasharray="1,5" d="M274.46,-182.86C278.67,-177.91 284.58,-171.9 291.04,-168.17 299.22,-163.44 417.79,-132.87 477.37,-117.67"/>
<polygon fill="red" stroke="red" stroke-width="0.54" points="478.15,-121.09 486.98,-115.23 476.42,-114.3 478.15,-121.09"/>
</g>
<!-- &#45;19&#45;&gt;2584 -->
<g id="edge14" class="edge">
<title>&#45;19&#45;&gt;2584</title>
<path fill="none" stroke="red" stroke-width="0.23" d="M253.56,-183.78C227.68,-170.5 173,-142.45 138.53,-124.76"/>
<polygon fill="red" stroke="red" stroke-width="0.23" points="140.19,-121.68 129.69,-120.23 136.99,-127.91 140.19,-121.68"/>
</g>
<!-- &#45;20 -->
<g id="node20" class="node">
<title>&#45;20</title>
<polygon fill="lightgray" stroke="black" points="792.04,-201.46 764.04,-201.46 764.04,-182.96 792.04,-182.96 792.04,-201.46"/>
<text text-anchor="middle" x="778.04" y="-188.91" font-family="Times,serif" font-size="9.00">&#45;20</text>
</g>
<!-- &#45;20&#45;&gt;2582 -->
<g id="edge22" class="edge">
<title>&#45;20&#45;&gt;2582</title>
<path fill="none" stroke="red" stroke-width="0.46" stroke-dasharray="1,5" d="M786.49,-182.6C790.81,-178.24 796.17,-172.89 801.04,-168.17 813.37,-156.22 827.29,-143.14 838.89,-132.33"/>
<polygon fill="red" stroke="red" stroke-width="0.46" points="841.06,-135.1 846.01,-125.73 836.3,-129.97 841.06,-135.1"/>
</g>
<!-- &#45;20&#45;&gt;2583 -->
<g id="edge6" class="edge">
<title>&#45;20&#45;&gt;2583</title>
<path fill="none" stroke="red" stroke-width="0.42" d="M771.66,-182.8C767.46,-177.83 761.55,-171.82 755.04,-168.17 687.04,-129.96 594.87,-116.32 545.55,-111.57"/>
<polygon fill="red" stroke="red" stroke-width="0.42" points="546.03,-108.1 535.76,-110.69 545.41,-115.07 546.03,-108.1"/>
</g>
<!-- 0 -->
<g id="node21" class="node">
<title>0</title>
<ellipse fill="lightblue" stroke="black" cx="165.04" cy="-24.04" rx="14.5" ry="14.5"/>
<text text-anchor="middle" x="165.04" y="-20.74" font-family="Times,serif" font-size="9.00">0</text>
</g>
<!-- 2 -->
<g id="node23" class="node">
<title>2</title>
<ellipse fill="lightblue" stroke="black" cx="539.04" cy="-24.04" rx="14.5" ry="14.5"/>
<text text-anchor="middle" x="539.04" y="-20.74" font-family="Times,serif" font-size="9.00">2</text>
</g>
<!-- 2&#45;&gt;2 -->
<g id="edge28" class="edge">
<title>2&#45;&gt;2</title>
<path fill="none" stroke="green" stroke-width="0.53" d="M548.36,-35.62C559.1,-43.83 571.54,-39.97 571.54,-24.04 571.54,-12.84 565.39,-7.61 558,-8.34"/>
<polygon fill="green" stroke="green" stroke-width="0.53" points="556.91,-5 549.09,-12.15 559.66,-11.44 556.91,-5"/>
</g>
<!-- 3 -->
<g id="node24" class="node">
<title>3</title>
<ellipse fill="lightblue" stroke="black" cx="840.04" cy="-24.04" rx="14.5" ry="14.5"/>
<text text-anchor="middle" x="840.04" y="-20.74" font-family="Times,serif" font-size="9.00">3</text>
</g>
<!-- 4 -->
<g id="node25" class="node">
<title>4</title>
<ellipse fill="lightblue" stroke="black" cx="887.04" cy="-24.04" rx="14.5" ry="14.5"/>
<text text-anchor="middle" x="887.04" y="-20.74" font-family="Times,serif" font-size="9.00">4</text>
</g>
<!-- 4&#45;&gt;4 -->
<g id="edge26" class="edge">
<title>4&#45;&gt;4</title>
<path fill="none" stroke="green" stroke-width="0.63" stroke-dasharray="1,5" d="M896.36,-35.62C907.1,-43.83 919.54,-39.97 919.54,-24.04 919.54,-12.84 913.39,-7.61 906,-8.34"/>
<polygon fill="green" stroke="green" stroke-width="0.63" points="905.05,-4.94 897.23,-12.09 907.8,-11.38 905.05,-4.94"/>
</g>
<!-- 2738&#45;&gt;2583 -->
<g id="edge43" class="edge">
<title>2738&#45;&gt;2583</title>
<path fill="none" stroke="red" stroke-width="0.42" d="M572.09,-174.2C561.22,-162.61 546.64,-147.08 534.46,-134.09"/>
<polygon fill="red" stroke="red" stroke-width="0.42" points="537.07,-131.75 527.67,-126.85 531.96,-136.54 537.07,-131.75"/>
</g>
<!-- 2581&#45;&gt;0 -->
<g id="edge5" class="edge">
<title>2581&#45;&gt;0</title>
<path fill="none" stroke="green" stroke-width="1.1" d="M211.89,-88.09C202.36,-75.26 189.79,-58.35 180.08,-45.28"/>
<polygon fill="green" stroke="green" stroke-width="1.1" points="183.07,-43.43 174.29,-37.49 177.45,-47.6 183.07,-43.43"/>
</g>
<!-- 2581&#45;&gt;2581 -->
<g id="edge12" class="edge">
<title>2581&#45;&gt;2581</title>
<path fill="none" stroke="green" stroke-width="0.28" stroke-dasharray="1,5" d="M245.5,-122.91C257.13,-126.19 268.08,-121.26 268.08,-108.12 268.08,-99.09 262.91,-93.94 255.89,-92.67"/>
<polygon fill="green" stroke="green" stroke-width="0.28" points="255.67,-89.18 245.92,-93.32 256.13,-96.16 255.67,-89.18"/>
</g>
<!-- 2582&#45;&gt;3 -->
<g id="edge38" class="edge">
<title>2582&#45;&gt;3</title>
<path fill="none" stroke="green" stroke-width="0.35" d="M857.48,-84.7C854.2,-73.47 850.23,-59.89 846.91,-48.53"/>
<polygon fill="green" stroke="green" stroke-width="0.35" points="850.28,-47.58 844.11,-38.96 843.56,-49.54 850.28,-47.58"/>
</g>
<!-- 2582&#45;&gt;4 -->
<g id="edge3" class="edge">
<title>2582&#45;&gt;4</title>
<path fill="none" stroke="green" stroke-width="0.25" d="M870.33,-84.7C873.5,-73.36 877.35,-59.61 880.56,-48.18"/>
<polygon fill="green" stroke="green" stroke-width="0.25" points="883.85,-49.39 883.18,-38.82 877.11,-47.5 883.85,-49.39"/>
</g>
<!-- 2583&#45;&gt;2 -->
<g id="edge39" class="edge">
<title>2583&#45;&gt;2</title>
<path fill="none" stroke="green" stroke-width="0.45" d="M518.55,-85.13C522.46,-73.64 527.26,-59.59 531.22,-47.97"/>
<polygon fill="green" stroke="green" stroke-width="0.45" points="534.44,-49.36 534.36,-38.77 527.82,-47.1 534.44,-49.36"/>
</g>
<!-- 2583&#45;&gt;2583 -->
<g id="edge37" class="edge">
<title>2583&#45;&gt;2583</title>
<path fill="none" stroke="red" stroke-width="0.57" d="M530.5,-122.91C542.13,-126.19 553.08,-121.26 553.08,-108.12 553.08,-99.09 547.91,-93.94 540.89,-92.67"/>
<polygon fill="red" stroke="red" stroke-width="0.57" points="541.12,-89.15 531.37,-93.29 541.57,-96.13 541.12,-89.15"/>
</g>
<!-- 2583&#45;&gt;2742 -->
<g id="edge45" class="edge">
<title>2583&#45;&gt;2742</title>
<path fill="none" stroke="green" stroke-width="0.16" d="M498.14,-87.25C494.23,-78.43 490.22,-67.81 487.01,-57.86"/>
<polygon fill="green" stroke="green" stroke-width="0.16" points="490.41,-57 484.15,-48.45 483.71,-59.03 490.41,-57"/>
</g>
<!-- 2584&#45;&gt;0 -->
<g id="edge35" class="edge">
<title>2584&#45;&gt;0</title>
<path fill="none" stroke="red" stroke-width="0.69" d="M121.55,-87.67C130.36,-74.98 141.85,-58.43 150.81,-45.54"/>
<polygon fill="red" stroke="red" stroke-width="0.69" points="153.66,-47.57 156.49,-37.36 147.91,-43.58 153.66,-47.57"/>
</g>
<!-- 2742&#45;&gt;2583 -->
<g id="edge46" class="edge">
<title>2742&#45;&gt;2583</title>
<path fill="none" stroke="red" stroke-width="0.74" stroke-dasharray="1,5" d="M494.88,-44.79C498.68,-53.32 502.56,-63.56 505.73,-73.24"/>
<polygon fill="red" stroke="red" stroke-width="0.74" points="502.36,-74.21 508.64,-82.75 509.06,-72.16 502.36,-74.21"/>
</g>
</g>
</svg>
