<?xml version="1.0" encoding="UTF-8" standalone="no"?>
<!DOCTYPE svg PUBLIC "-//W3C//DTD SVG 1.1//EN"
 "http://www.w3.org/Graphics/SVG/1.1/DTD/svg11.dtd">
<!-- Generated by graphviz version 12.1.1 (20240910.0053)
 -->
<!-- Pages: 1 -->
<svg width="603pt" height="426pt"
 viewBox="0.00 0.00 602.69 425.59" xmlns="http://www.w3.org/2000/svg" xmlns:xlink="http://www.w3.org/1999/xlink">
<g id="graph0" class="graph" transform="scale(1 1) rotate(0) translate(4 421.59)">
<polygon fill="white" stroke="none" points="-4,4 -4,-421.59 598.69,-421.59 598.69,4 -4,4"/>
<!-- &#45;1 -->
<g id="node1" class="node">
<title>&#45;1</title>
<polygon fill="lightgray" stroke="black" points="87.5,-412.34 64,-412.34 64,-393.84 87.5,-393.84 87.5,-412.34"/>
<text text-anchor="middle" x="75.75" y="-399.79" font-family="Times,serif" font-size="9.00">&#45;1</text>
</g>
<!-- &#45;2 -->
<g id="node2" class="node">
<title>&#45;2</title>
<polygon fill="lightgray" stroke="black" points="129.5,-412.34 106,-412.34 106,-393.84 129.5,-393.84 129.5,-412.34"/>
<text text-anchor="middle" x="117.75" y="-399.79" font-family="Times,serif" font-size="9.00">&#45;2</text>
</g>
<!-- 1325 -->
<g id="node26" class="node">
<title>1325</title>
<ellipse fill="white" stroke="black" cx="65.75" cy="-328.55" rx="24.04" ry="24.04"/>
<text text-anchor="middle" x="65.75" y="-325.25" font-family="Times,serif" font-size="9.00">1325</text>
</g>
<!-- &#45;2&#45;&gt;1325 -->
<g id="edge36" class="edge">
<title>&#45;2&#45;&gt;1325</title>
<path fill="none" stroke="green" stroke-width="0.25" d="M111.58,-393.49C105.14,-384.5 94.69,-369.93 85.4,-356.96"/>
<polygon fill="green" stroke="green" stroke-width="0.25" points="88.4,-355.14 79.73,-349.06 82.71,-359.22 88.4,-355.14"/>
</g>
<!-- 17 -->
<g id="node27" class="node">
<title>17</title>
<ellipse fill="white" stroke="black" cx="145.75" cy="-244.47" rx="17.68" ry="17.68"/>
<text text-anchor="middle" x="145.75" y="-241.17" font-family="Times,serif" font-size="9.00">17</text>
</g>
<!-- &#45;2&#45;&gt;17 -->
<g id="edge18" class="edge">
<title>&#45;2&#45;&gt;17</title>
<path fill="none" stroke="red" stroke-width="0.23" stroke-dasharray="1,5" d="M119.26,-393.67C123.3,-371.06 134.52,-308.28 140.99,-272.1"/>
<polygon fill="red" stroke="red" stroke-width="0.23" points="144.38,-273.03 142.69,-262.57 137.49,-271.8 144.38,-273.03"/>
</g>
<!-- 18 -->
<g id="node28" class="node">
<title>18</title>
<ellipse fill="white" stroke="black" cx="308.75" cy="-82.67" rx="17.68" ry="17.68"/>
<text text-anchor="middle" x="308.75" y="-79.37" font-family="Times,serif" font-size="9.00">18</text>
</g>
<!-- &#45;2&#45;&gt;18 -->
<g id="edge19" class="edge">
<title>&#45;2&#45;&gt;18</title>
<path fill="none" stroke="red" stroke-width="0.11" d="M129.24,-393.35C132.2,-391.48 135.48,-389.74 138.75,-388.6 289.74,-335.92 355.53,-427.63 496.75,-352.6 539.69,-329.78 548.06,-313.4 566.75,-268.51 589.37,-214.19 612.1,-181.82 574.75,-136.35 544.81,-99.89 398.73,-88.23 336.7,-84.89"/>
<polygon fill="red" stroke="red" stroke-width="0.11" points="337.14,-81.4 326.98,-84.39 336.79,-88.39 337.14,-81.4"/>
</g>
<!-- &#45;3 -->
<g id="node3" class="node">
<title>&#45;3</title>
<polygon fill="lightgray" stroke="black" points="215.5,-337.8 192,-337.8 192,-319.3 215.5,-319.3 215.5,-337.8"/>
<text text-anchor="middle" x="203.75" y="-325.25" font-family="Times,serif" font-size="9.00">&#45;3</text>
</g>
<!-- &#45;3&#45;&gt;17 -->
<g id="edge27" class="edge">
<title>&#45;3&#45;&gt;17</title>
<path fill="none" stroke="red" stroke-width="0.14" stroke-dasharray="1,5" d="M197.76,-319.08C189.28,-307.08 173.48,-284.72 161.51,-267.78"/>
<polygon fill="red" stroke="red" stroke-width="0.14" points="164.41,-265.82 155.78,-259.67 158.7,-269.86 164.41,-265.82"/>
</g>
<!-- 20 -->
<g id="node29" class="node">
<title>20</title>
<ellipse fill="white" stroke="black" cx="293.75" cy="-244.47" rx="17.68" ry="17.68"/>
<text text-anchor="middle" x="293.75" y="-241.17" font-family="Times,serif" font-size="9.00">20</text>
</g>
<!-- &#45;3&#45;&gt;20 -->
<g id="edge24" class="edge">
<title>&#45;3&#45;&gt;20</title>
<path fill="none" stroke="red" stroke-width="0.53" d="M210.9,-319.22C214.85,-314.74 219.93,-309.18 224.75,-304.51 239.94,-289.79 258.16,-274.29 272.06,-262.86"/>
<polygon fill="red" stroke="red" stroke-width="0.53" points="273.93,-265.85 279.47,-256.82 269.51,-260.42 273.93,-265.85"/>
</g>
<!-- &#45;4 -->
<g id="node4" class="node">
<title>&#45;4</title>
<polygon fill="lightgray" stroke="black" points="273.5,-91.92 250,-91.92 250,-73.42 273.5,-73.42 273.5,-91.92"/>
<text text-anchor="middle" x="261.75" y="-79.37" font-family="Times,serif" font-size="9.00">&#45;4</text>
</g>
<!-- 0 -->
<g id="node21" class="node">
<title>0</title>
<ellipse fill="lightblue" stroke="black" cx="261.75" cy="-14.5" rx="14.5" ry="14.5"/>
<text text-anchor="middle" x="261.75" y="-11.2" font-family="Times,serif" font-size="9.00">0</text>
</g>
<!-- &#45;4&#45;&gt;0 -->
<g id="edge31" class="edge">
<title>&#45;4&#45;&gt;0</title>
<path fill="none" stroke="green" stroke-width="0.47" d="M261.75,-73.02C261.75,-64.63 261.75,-51.5 261.75,-39.91"/>
<polygon fill="green" stroke="green" stroke-width="0.47" points="265.25,-40.18 261.75,-30.18 258.25,-40.18 265.25,-40.18"/>
</g>
<!-- &#45;5 -->
<g id="node5" class="node">
<title>&#45;5</title>
<polygon fill="lightgray" stroke="black" points="23.5,-337.8 0,-337.8 0,-319.3 23.5,-319.3 23.5,-337.8"/>
<text text-anchor="middle" x="11.75" y="-325.25" font-family="Times,serif" font-size="9.00">&#45;5</text>
</g>
<!-- &#45;5&#45;&gt;17 -->
<g id="edge16" class="edge">
<title>&#45;5&#45;&gt;17</title>
<path fill="none" stroke="green" stroke-width="0.12" d="M18.13,-319.21C22.01,-314.5 27.26,-308.74 32.75,-304.51 47.64,-293.04 92.49,-270.81 121.01,-257.14"/>
<polygon fill="green" stroke="green" stroke-width="0.12" points="122.29,-260.41 129.82,-252.94 119.28,-254.09 122.29,-260.41"/>
</g>
<!-- &#45;5&#45;&gt;18 -->
<g id="edge13" class="edge">
<title>&#45;5&#45;&gt;18</title>
<path fill="none" stroke="red" stroke-width="0.58" stroke-dasharray="1,5" d="M11.65,-318.98C11.76,-300.12 13.9,-254.03 30.75,-220.43 53.74,-174.59 65.02,-161.42 109.75,-136.35 178.26,-97.95 210.04,-130.04 282.75,-100.35 283.64,-99.98 284.53,-99.59 285.43,-99.17"/>
<polygon fill="red" stroke="red" stroke-width="0.58" points="286.89,-102.36 293.92,-94.43 283.48,-96.25 286.89,-102.36"/>
</g>
<!-- &#45;5&#45;&gt;20 -->
<g id="edge8" class="edge">
<title>&#45;5&#45;&gt;20</title>
<path fill="none" stroke="green" stroke-width="0.14" stroke-dasharray="1,5" d="M17.41,-319.1C21.19,-314.12 26.58,-308.11 32.75,-304.51 53.01,-292.72 203.55,-262.83 266.35,-250.7"/>
<polygon fill="green" stroke="green" stroke-width="0.14" points="266.97,-254.15 276.12,-248.82 265.64,-247.27 266.97,-254.15"/>
</g>
<!-- 1048 -->
<g id="node30" class="node">
<title>1048</title>
<ellipse fill="white" stroke="black" cx="63.75" cy="-244.47" rx="24.04" ry="24.04"/>
<text text-anchor="middle" x="63.75" y="-241.17" font-family="Times,serif" font-size="9.00">1048</text>
</g>
<!-- &#45;5&#45;&gt;1048 -->
<g id="edge32" class="edge">
<title>&#45;5&#45;&gt;1048</title>
<path fill="none" stroke="red" stroke-width="0.12" stroke-dasharray="1,5" d="M17.12,-319.08C23.86,-308.43 35.77,-289.63 45.87,-273.7"/>
<polygon fill="red" stroke="red" stroke-width="0.12" points="48.76,-275.68 51.15,-265.36 42.84,-271.93 48.76,-275.68"/>
</g>
<!-- &#45;6 -->
<g id="node6" class="node">
<title>&#45;6</title>
<polygon fill="lightgray" stroke="black" points="219.5,-169.64 196,-169.64 196,-151.14 219.5,-151.14 219.5,-169.64"/>
<text text-anchor="middle" x="207.75" y="-157.09" font-family="Times,serif" font-size="9.00">&#45;6</text>
</g>
<!-- &#45;6&#45;&gt;18 -->
<g id="edge21" class="edge">
<title>&#45;6&#45;&gt;18</title>
<path fill="none" stroke="green" stroke-width="0.16" stroke-dasharray="1,5" d="M216.68,-151.03C221.6,-146.53 227.88,-140.98 233.75,-136.35 250.66,-122.99 270.66,-109.02 285.76,-98.83"/>
<polygon fill="green" stroke="green" stroke-width="0.16" points="287.46,-101.9 293.82,-93.43 283.57,-96.09 287.46,-101.9"/>
</g>
<!-- &#45;7 -->
<g id="node7" class="node">
<title>&#45;7</title>
<polygon fill="lightgray" stroke="black" points="349.5,-337.8 326,-337.8 326,-319.3 349.5,-319.3 349.5,-337.8"/>
<text text-anchor="middle" x="337.75" y="-325.25" font-family="Times,serif" font-size="9.00">&#45;7</text>
</g>
<!-- &#45;7&#45;&gt;20 -->
<g id="edge2" class="edge">
<title>&#45;7&#45;&gt;20</title>
<path fill="none" stroke="green" stroke-width="0.17" d="M333.21,-319.08C326.98,-307.47 315.55,-286.15 306.59,-269.43"/>
<polygon fill="green" stroke="green" stroke-width="0.17" points="309.85,-268.1 302.04,-260.94 303.68,-271.41 309.85,-268.1"/>
</g>
<!-- &#45;8 -->
<g id="node8" class="node">
<title>&#45;8</title>
<polygon fill="lightgray" stroke="black" points="299.5,-169.64 276,-169.64 276,-151.14 299.5,-151.14 299.5,-169.64"/>
<text text-anchor="middle" x="287.75" y="-157.09" font-family="Times,serif" font-size="9.00">&#45;8</text>
</g>
<!-- &#45;8&#45;&gt;18 -->
<g id="edge22" class="edge">
<title>&#45;8&#45;&gt;18</title>
<path fill="none" stroke="red" stroke-width="0.33" d="M290.16,-150.7C292.9,-140.82 297.5,-124.22 301.44,-110.02"/>
<polygon fill="red" stroke="red" stroke-width="0.33" points="304.72,-111.28 304.02,-100.71 297.98,-109.41 304.72,-111.28"/>
</g>
<!-- &#45;9 -->
<g id="node9" class="node">
<title>&#45;9</title>
<polygon fill="lightgray" stroke="black" points="341.5,-169.64 318,-169.64 318,-151.14 341.5,-151.14 341.5,-169.64"/>
<text text-anchor="middle" x="329.75" y="-157.09" font-family="Times,serif" font-size="9.00">&#45;9</text>
</g>
<!-- &#45;9&#45;&gt;18 -->
<g id="edge14" class="edge">
<title>&#45;9&#45;&gt;18</title>
<path fill="none" stroke="red" stroke-width="0.14" stroke-dasharray="1,5" d="M327.34,-150.7C324.6,-140.82 320,-124.22 316.06,-110.02"/>
<polygon fill="red" stroke="red" stroke-width="0.14" points="319.44,-109.13 313.4,-100.43 312.7,-111 319.44,-109.13"/>
</g>
<!-- &#45;10 -->
<g id="node10" class="node">
<title>&#45;10</title>
<polygon fill="lightgray" stroke="black" points="557.75,-253.72 529.75,-253.72 529.75,-235.22 557.75,-235.22 557.75,-253.72"/>
<text text-anchor="middle" x="543.75" y="-241.17" font-family="Times,serif" font-size="9.00">&#45;10</text>
</g>
<!-- &#45;10&#45;&gt;18 -->
<g id="edge7" class="edge">
<title>&#45;10&#45;&gt;18</title>
<path fill="none" stroke="red" stroke-width="0.41" stroke-dasharray="1,5" d="M548.45,-234.81C558.52,-214.95 579.41,-165.59 555.75,-136.35 528.48,-102.64 395.95,-89.58 337.05,-85.38"/>
<polygon fill="red" stroke="red" stroke-width="0.41" points="337.46,-81.89 327.25,-84.71 336.99,-88.88 337.46,-81.89"/>
</g>
<!-- 1241 -->
<g id="node31" class="node">
<title>1241</title>
<ellipse fill="white" stroke="black" cx="430.75" cy="-160.39" rx="24.04" ry="24.04"/>
<text text-anchor="middle" x="430.75" y="-157.09" font-family="Times,serif" font-size="9.00">1241</text>
</g>
<!-- &#45;10&#45;&gt;1241 -->
<g id="edge34" class="edge">
<title>&#45;10&#45;&gt;1241</title>
<path fill="none" stroke="green" stroke-width="0.19" d="M532.08,-235C514.81,-222.45 481.92,-198.56 458.29,-181.4"/>
<polygon fill="green" stroke="green" stroke-width="0.19" points="460.44,-178.63 450.29,-175.58 456.32,-184.29 460.44,-178.63"/>
</g>
<!-- &#45;11 -->
<g id="node11" class="node">
<title>&#45;11</title>
<polygon fill="lightgray" stroke="black" points="500.75,-169.64 472.75,-169.64 472.75,-151.14 500.75,-151.14 500.75,-169.64"/>
<text text-anchor="middle" x="486.75" y="-157.09" font-family="Times,serif" font-size="9.00">&#45;11</text>
</g>
<!-- &#45;11&#45;&gt;18 -->
<g id="edge17" class="edge">
<title>&#45;11&#45;&gt;18</title>
<path fill="none" stroke="green" stroke-width="0.25" d="M479.86,-150.74C475.64,-145.93 469.89,-140.17 463.75,-136.35 423,-110.97 368.55,-96.15 336.21,-89"/>
<polygon fill="green" stroke="green" stroke-width="0.25" points="337.03,-85.6 326.52,-86.95 335.58,-92.44 337.03,-85.6"/>
</g>
<!-- &#45;12 -->
<g id="node12" class="node">
<title>&#45;12</title>
<polygon fill="lightgray" stroke="black" points="395.75,-337.8 367.75,-337.8 367.75,-319.3 395.75,-319.3 395.75,-337.8"/>
<text text-anchor="middle" x="381.75" y="-325.25" font-family="Times,serif" font-size="9.00">&#45;12</text>
</g>
<!-- &#45;12&#45;&gt;20 -->
<g id="edge15" class="edge">
<title>&#45;12&#45;&gt;20</title>
<path fill="none" stroke="green" stroke-width="0.46" d="M373.33,-318.92C369.02,-314.55 363.66,-309.19 358.75,-304.51 344.27,-290.7 327.55,-275.53 314.7,-264.03"/>
<polygon fill="green" stroke="green" stroke-width="0.46" points="317.18,-261.55 307.39,-257.51 312.52,-266.78 317.18,-261.55"/>
</g>
<!-- &#45;13 -->
<g id="node13" class="node">
<title>&#45;13</title>
<polygon fill="lightgray" stroke="black" points="546.75,-169.64 518.75,-169.64 518.75,-151.14 546.75,-151.14 546.75,-169.64"/>
<text text-anchor="middle" x="532.75" y="-157.09" font-family="Times,serif" font-size="9.00">&#45;13</text>
</g>
<!-- &#45;13&#45;&gt;18 -->
<g id="edge9" class="edge">
<title>&#45;13&#45;&gt;18</title>
<path fill="none" stroke="red" stroke-width="0.34" stroke-dasharray="1,5" d="M526.34,-151.02C522.13,-146.07 516.22,-140.06 509.75,-136.35 453.59,-104.09 377.34,-91.17 336.8,-86.33"/>
<polygon fill="red" stroke="red" stroke-width="0.34" points="337.43,-82.88 327.11,-85.25 336.66,-89.83 337.43,-82.88"/>
</g>
<!-- &#45;14 -->
<g id="node14" class="node">
<title>&#45;14</title>
<polygon fill="lightgray" stroke="black" points="487.75,-337.8 459.75,-337.8 459.75,-319.3 487.75,-319.3 487.75,-337.8"/>
<text text-anchor="middle" x="473.75" y="-325.25" font-family="Times,serif" font-size="9.00">&#45;14</text>
</g>
<!-- 4 -->
<g id="node25" class="node">
<title>4</title>
<ellipse fill="lightblue" stroke="black" cx="373.75" cy="-160.39" rx="14.5" ry="14.5"/>
<text text-anchor="middle" x="373.75" y="-157.09" font-family="Times,serif" font-size="9.00">4</text>
</g>
<!-- &#45;14&#45;&gt;4 -->
<g id="edge33" class="edge">
<title>&#45;14&#45;&gt;4</title>
<path fill="none" stroke="green" stroke-width="0.78" stroke-dasharray="1,5" d="M469.96,-318.94C461.66,-300.38 440.84,-255.44 418.75,-220.43 409.94,-206.46 398.68,-191.69 389.62,-180.41"/>
<polygon fill="green" stroke="green" stroke-width="0.78" points="392.42,-178.31 383.39,-172.77 387,-182.73 392.42,-178.31"/>
</g>
<!-- &#45;14&#45;&gt;17 -->
<g id="edge29" class="edge">
<title>&#45;14&#45;&gt;17</title>
<path fill="none" stroke="red" stroke-width="0.32" d="M467.43,-319.04C463.25,-314.03 457.34,-308.02 450.75,-304.51 449.2,-303.69 248.32,-265.13 173.46,-250.78"/>
<polygon fill="red" stroke="red" stroke-width="0.32" points="174.31,-247.38 163.83,-248.94 173,-254.26 174.31,-247.38"/>
</g>
<!-- &#45;14&#45;&gt;20 -->
<g id="edge20" class="edge">
<title>&#45;14&#45;&gt;20</title>
<path fill="none" stroke="red" stroke-width="0.26" d="M466.82,-318.96C462.59,-314.17 456.84,-308.41 450.75,-304.51 411.66,-279.51 396.14,-284.95 352.75,-268.51 341.95,-264.42 330.09,-259.81 319.85,-255.79"/>
<polygon fill="red" stroke="red" stroke-width="0.26" points="321.2,-252.57 310.61,-252.16 318.64,-259.08 321.2,-252.57"/>
</g>
<!-- 1341 -->
<g id="node32" class="node">
<title>1341</title>
<ellipse fill="white" stroke="black" cx="385.75" cy="-244.47" rx="24.04" ry="24.04"/>
<text text-anchor="middle" x="385.75" y="-241.17" font-family="Times,serif" font-size="9.00">1341</text>
</g>
<!-- &#45;14&#45;&gt;1341 -->
<g id="edge38" class="edge">
<title>&#45;14&#45;&gt;1341</title>
<path fill="none" stroke="green" stroke-width="0.33" d="M465.33,-318.92C461.02,-314.55 455.66,-309.19 450.75,-304.51 437.9,-292.26 423.29,-278.93 411.18,-268.04"/>
<polygon fill="green" stroke="green" stroke-width="0.33" points="413.78,-265.68 404,-261.62 409.11,-270.9 413.78,-265.68"/>
</g>
<!-- &#45;15 -->
<g id="node15" class="node">
<title>&#45;15</title>
<polygon fill="lightgray" stroke="black" points="261.75,-337.8 233.75,-337.8 233.75,-319.3 261.75,-319.3 261.75,-337.8"/>
<text text-anchor="middle" x="247.75" y="-325.25" font-family="Times,serif" font-size="9.00">&#45;15</text>
</g>
<!-- &#45;15&#45;&gt;18 -->
<g id="edge5" class="edge">
<title>&#45;15&#45;&gt;18</title>
<path fill="none" stroke="green" stroke-width="0.77" d="M246.95,-319.14C244.65,-291.66 239.87,-202.48 266.75,-136.35 271.69,-124.19 280.36,-112.58 288.55,-103.36"/>
<polygon fill="green" stroke="green" stroke-width="0.77" points="291.01,-105.86 295.31,-96.17 285.91,-101.06 291.01,-105.86"/>
</g>
<!-- &#45;15&#45;&gt;20 -->
<g id="edge26" class="edge">
<title>&#45;15&#45;&gt;20</title>
<path fill="none" stroke="red" stroke-width="0.26" stroke-dasharray="1,5" d="M252.5,-319.08C259.05,-307.4 271.1,-285.89 280.49,-269.13"/>
<polygon fill="red" stroke="red" stroke-width="0.26" points="283.36,-271.18 285.19,-260.74 277.25,-267.76 283.36,-271.18"/>
</g>
<!-- &#45;16 -->
<g id="node16" class="node">
<title>&#45;16</title>
<polygon fill="lightgray" stroke="black" points="441.75,-337.8 413.75,-337.8 413.75,-319.3 441.75,-319.3 441.75,-337.8"/>
<text text-anchor="middle" x="427.75" y="-325.25" font-family="Times,serif" font-size="9.00">&#45;16</text>
</g>
<!-- &#45;16&#45;&gt;20 -->
<g id="edge12" class="edge">
<title>&#45;16&#45;&gt;20</title>
<path fill="none" stroke="red" stroke-width="0.26" stroke-dasharray="1,5" d="M420.2,-318.82C415.95,-314.22 410.38,-308.69 404.75,-304.51 377.59,-284.39 342.66,-267.01 319.31,-256.41"/>
<polygon fill="red" stroke="red" stroke-width="0.26" points="320.98,-253.32 310.42,-252.46 318.14,-259.72 320.98,-253.32"/>
</g>
<!-- &#45;17 -->
<g id="node17" class="node">
<title>&#45;17</title>
<polygon fill="lightgray" stroke="black" points="307.75,-337.8 279.75,-337.8 279.75,-319.3 307.75,-319.3 307.75,-337.8"/>
<text text-anchor="middle" x="293.75" y="-325.25" font-family="Times,serif" font-size="9.00">&#45;17</text>
</g>
<!-- &#45;17&#45;&gt;20 -->
<g id="edge3" class="edge">
<title>&#45;17&#45;&gt;20</title>
<path fill="none" stroke="green" stroke-width="0.55" d="M293.75,-319.08C293.75,-308.3 293.75,-289.14 293.75,-273.08"/>
<polygon fill="green" stroke="green" stroke-width="0.55" points="297.25,-273.42 293.75,-263.42 290.25,-273.42 297.25,-273.42"/>
</g>
<!-- &#45;18 -->
<g id="node18" class="node">
<title>&#45;18</title>
<polygon fill="lightgray" stroke="black" points="175.75,-412.34 147.75,-412.34 147.75,-393.84 175.75,-393.84 175.75,-412.34"/>
<text text-anchor="middle" x="161.75" y="-399.79" font-family="Times,serif" font-size="9.00">&#45;18</text>
</g>
<!-- &#45;19 -->
<g id="node19" class="node">
<title>&#45;19</title>
<polygon fill="lightgray" stroke="black" points="173.75,-337.8 145.75,-337.8 145.75,-319.3 173.75,-319.3 173.75,-337.8"/>
<text text-anchor="middle" x="159.75" y="-325.25" font-family="Times,serif" font-size="9.00">&#45;19</text>
</g>
<!-- &#45;19&#45;&gt;17 -->
<g id="edge10" class="edge">
<title>&#45;19&#45;&gt;17</title>
<path fill="none" stroke="red" stroke-width="0.14" d="M158.3,-319.08C156.44,-308.13 153.09,-288.53 150.33,-272.32"/>
<polygon fill="red" stroke="red" stroke-width="0.14" points="153.78,-271.75 148.65,-262.49 146.88,-272.93 153.78,-271.75"/>
</g>
<!-- &#45;19&#45;&gt;20 -->
<g id="edge28" class="edge">
<title>&#45;19&#45;&gt;20</title>
<path fill="none" stroke="green" stroke-width="0.24" d="M167.3,-318.82C171.55,-314.22 177.12,-308.69 182.75,-304.51 209.91,-284.39 244.84,-267.01 268.19,-256.41"/>
<polygon fill="green" stroke="green" stroke-width="0.24" points="269.39,-259.71 277.1,-252.45 266.54,-253.31 269.39,-259.71"/>
</g>
<!-- &#45;20 -->
<g id="node20" class="node">
<title>&#45;20</title>
<polygon fill="lightgray" stroke="black" points="221.75,-412.34 193.75,-412.34 193.75,-393.84 221.75,-393.84 221.75,-412.34"/>
<text text-anchor="middle" x="207.75" y="-399.79" font-family="Times,serif" font-size="9.00">&#45;20</text>
</g>
<!-- 1 -->
<g id="node22" class="node">
<title>1</title>
<ellipse fill="lightblue" stroke="black" cx="308.75" cy="-14.5" rx="14.5" ry="14.5"/>
<text text-anchor="middle" x="308.75" y="-11.2" font-family="Times,serif" font-size="9.00">1</text>
</g>
<!-- 2 -->
<g id="node23" class="node">
<title>2</title>
<ellipse fill="lightblue" stroke="black" cx="253.75" cy="-403.09" rx="14.5" ry="14.5"/>
<text text-anchor="middle" x="253.75" y="-399.79" font-family="Times,serif" font-size="9.00">2</text>
</g>
<!-- 3 -->
<g id="node24" class="node">
<title>3</title>
<ellipse fill="lightblue" stroke="black" cx="145.75" cy="-160.39" rx="14.5" ry="14.5"/>
<text text-anchor="middle" x="145.75" y="-157.09" font-family="Times,serif" font-size="9.00">3</text>
</g>
<!-- 3&#45;&gt;3 -->
<g id="edge6" class="edge">
<title>3&#45;&gt;3</title>
<path fill="none" stroke="red" stroke-width="0.17" stroke-dasharray="1,5" d="M155.73,-171.54C166.31,-178.53 178.25,-174.81 178.25,-160.39 178.25,-150.25 172.35,-145.4 165.16,-145.84"/>
<polygon fill="red" stroke="red" stroke-width="0.17" points="164.2,-142.47 155.97,-149.15 166.57,-149.06 164.2,-142.47"/>
</g>
<!-- 3&#45;&gt;18 -->
<g id="edge40" class="edge">
<title>3&#45;&gt;18</title>
<path fill="none" stroke="green" stroke-width="0.39" d="M158.05,-151.82C166.06,-147.06 176.83,-140.96 186.75,-136.35 228.07,-117.13 242.01,-120.76 282.75,-100.35 283.73,-99.85 284.73,-99.33 285.72,-98.79"/>
<polygon fill="green" stroke="green" stroke-width="0.39" points="287.18,-102 293.98,-93.88 283.6,-95.98 287.18,-102"/>
</g>
<!-- 1325&#45;&gt;17 -->
<g id="edge37" class="edge">
<title>1325&#45;&gt;17</title>
<path fill="none" stroke="red" stroke-width="0.4" d="M82.33,-310.55C95.1,-297.44 112.81,-279.27 126.26,-265.47"/>
<polygon fill="red" stroke="red" stroke-width="0.4" points="128.73,-267.95 133.2,-258.34 123.72,-263.06 128.73,-267.95"/>
</g>
<!-- 17&#45;&gt;3 -->
<g id="edge1" class="edge">
<title>17&#45;&gt;3</title>
<path fill="none" stroke="green" stroke-width="0.19" d="M145.75,-226.46C145.75,-214.65 145.75,-198.74 145.75,-185.6"/>
<polygon fill="green" stroke="green" stroke-width="0.19" points="149.25,-185.66 145.75,-175.66 142.25,-185.66 149.25,-185.66"/>
</g>
<!-- 17&#45;&gt;4 -->
<g id="edge23" class="edge">
<title>17&#45;&gt;4</title>
<path fill="none" stroke="green" stroke-width="0.59" d="M163.39,-241.42C200.39,-236.49 287.92,-221.53 350.75,-184.43 353.13,-183.02 355.45,-181.31 357.63,-179.46"/>
<polygon fill="green" stroke="green" stroke-width="0.59" points="359.92,-182.12 364.64,-172.63 355.03,-177.11 359.92,-182.12"/>
</g>
<!-- 17&#45;&gt;18 -->
<g id="edge30" class="edge">
<title>17&#45;&gt;18</title>
<path fill="none" stroke="green" stroke-width="0.26" stroke-dasharray="1,5" d="M136.13,-229.3C122.33,-207.06 100.89,-163.68 122.75,-136.35 168.28,-79.43 215.5,-128.45 282.75,-100.35 283.76,-99.92 284.78,-99.46 285.8,-98.97"/>
<polygon fill="green" stroke="green" stroke-width="0.26" points="287.34,-102.12 294.33,-94.15 283.9,-96.02 287.34,-102.12"/>
</g>
<!-- 18&#45;&gt;0 -->
<g id="edge4" class="edge">
<title>18&#45;&gt;0</title>
<path fill="none" stroke="green" stroke-width="0.5" stroke-dasharray="1,5" d="M298.78,-67.64C292.11,-58.25 283.24,-45.75 275.85,-35.35"/>
<polygon fill="green" stroke="green" stroke-width="0.5" points="278.91,-33.61 270.26,-27.48 273.2,-37.66 278.91,-33.61"/>
</g>
<!-- 18&#45;&gt;1 -->
<g id="edge11" class="edge">
<title>18&#45;&gt;1</title>
<path fill="none" stroke="red" stroke-width="0.4" d="M308.75,-64.63C308.75,-57.05 308.75,-47.98 308.75,-39.71"/>
<polygon fill="red" stroke="red" stroke-width="0.4" points="312.25,-39.76 308.75,-29.76 305.25,-39.76 312.25,-39.76"/>
</g>
<!-- 18&#45;&gt;18 -->
<g id="edge25" class="edge">
<title>18&#45;&gt;18</title>
<path fill="none" stroke="green" stroke-width="0.18" stroke-dasharray="1,5" d="M322.67,-93.8C333.44,-97.96 344.43,-94.25 344.43,-82.67 344.43,-74.7 339.23,-70.46 332.49,-69.94"/>
<polygon fill="green" stroke="green" stroke-width="0.18" points="332.24,-66.44 322.93,-71.49 333.36,-73.34 332.24,-66.44"/>
</g>
<!-- 1241&#45;&gt;18 -->
<g id="edge35" class="edge">
<title>1241&#45;&gt;18</title>
<path fill="none" stroke="red" stroke-width="0.73" stroke-dasharray="1,5" d="M411.1,-145.8C406.43,-142.64 401.44,-139.34 396.75,-136.35 375.47,-122.78 350.77,-108.09 332.97,-97.67"/>
<polygon fill="red" stroke="red" stroke-width="0.73" points="335.21,-94.93 324.81,-92.92 331.69,-100.98 335.21,-94.93"/>
</g>
<!-- 1341&#45;&gt;4 -->
<g id="edge39" class="edge">
<title>1341&#45;&gt;4</title>
<path fill="none" stroke="green" stroke-width="0.68" d="M382.34,-220.17C380.78,-209.45 378.92,-196.73 377.33,-185.87"/>
<polygon fill="green" stroke="green" stroke-width="0.68" points="380.8,-185.41 375.89,-176.02 373.87,-186.42 380.8,-185.41"/>
</g>
</g>
</svg>
