<?xml version="1.0" encoding="UTF-8" standalone="no"?>
<!DOCTYPE svg PUBLIC "-//W3C//DTD SVG 1.1//EN"
 "http://www.w3.org/Graphics/SVG/1.1/DTD/svg11.dtd">
<!-- Generated by graphviz version 12.1.1 (20240910.0053)
 -->
<!-- Pages: 1 -->
<svg width="1294pt" height="354pt"
 viewBox="0.00 0.00 1293.58 354.23" xmlns="http://www.w3.org/2000/svg" xmlns:xlink="http://www.w3.org/1999/xlink">
<g id="graph0" class="graph" transform="scale(1 1) rotate(0) translate(4 350.23)">
<polygon fill="white" stroke="none" points="-4,4 -4,-350.23 1289.58,-350.23 1289.58,4 -4,4"/>
<!-- &#45;1 -->
<g id="node1" class="node">
<title>&#45;1</title>
<polygon fill="lightgray" stroke="black" points="88.83,-266.45 65.33,-266.45 65.33,-247.95 88.83,-247.95 88.83,-266.45"/>
<text text-anchor="middle" x="77.08" y="-253.9" font-family="Times,serif" font-size="9.00">&#45;1</text>
</g>
<!-- 4 -->
<g id="node25" class="node">
<title>4</title>
<ellipse fill="lightblue" stroke="black" cx="165.08" cy="-14.5" rx="14.5" ry="14.5"/>
<text text-anchor="middle" x="165.08" y="-11.2" font-family="Times,serif" font-size="9.00">4</text>
</g>
<!-- &#45;1&#45;&gt;4 -->
<g id="edge52" class="edge">
<title>&#45;1&#45;&gt;4</title>
<path fill="none" stroke="red" stroke-width="0.46" d="M80.21,-247.63C92.5,-214.01 137.69,-90.4 156.64,-38.59"/>
<polygon fill="red" stroke="red" stroke-width="0.46" points="159.87,-39.93 160.02,-29.34 153.3,-37.53 159.87,-39.93"/>
</g>
<!-- 1161 -->
<g id="node29" class="node">
<title>1161</title>
<ellipse fill="white" stroke="black" cx="161.08" cy="-173.12" rx="24.04" ry="24.04"/>
<text text-anchor="middle" x="161.08" y="-169.82" font-family="Times,serif" font-size="9.00">1161</text>
</g>
<!-- &#45;1&#45;&gt;1161 -->
<g id="edge31" class="edge">
<title>&#45;1&#45;&gt;1161</title>
<path fill="none" stroke="green" stroke-width="0.37" stroke-dasharray="1,5" d="M84.7,-247.52C88.62,-243.13 93.52,-237.78 98.08,-233.16 110.14,-220.93 124.02,-207.82 135.68,-197.07"/>
<polygon fill="green" stroke="green" stroke-width="0.37" points="137.93,-199.76 142.94,-190.42 133.2,-194.6 137.93,-199.76"/>
</g>
<!-- 1162 -->
<g id="node30" class="node">
<title>1162</title>
<ellipse fill="white" stroke="black" cx="294.08" cy="-173.12" rx="24.04" ry="24.04"/>
<text text-anchor="middle" x="294.08" y="-169.82" font-family="Times,serif" font-size="9.00">1162</text>
</g>
<!-- &#45;1&#45;&gt;1162 -->
<g id="edge22" class="edge">
<title>&#45;1&#45;&gt;1162</title>
<path fill="none" stroke="green" stroke-width="0.54" d="M82.83,-247.9C86.64,-242.97 92.03,-236.97 98.08,-233.16 125.27,-216.03 211.83,-193.64 260.33,-181.97"/>
<polygon fill="green" stroke="green" stroke-width="0.54" points="260.94,-185.42 269.85,-179.7 259.31,-178.62 260.94,-185.42"/>
</g>
<!-- &#45;2 -->
<g id="node2" class="node">
<title>&#45;2</title>
<polygon fill="lightgray" stroke="black" points="1132.83,-340.99 1109.33,-340.99 1109.33,-322.49 1132.83,-322.49 1132.83,-340.99"/>
<text text-anchor="middle" x="1121.08" y="-328.44" font-family="Times,serif" font-size="9.00">&#45;2</text>
</g>
<!-- &#45;3 -->
<g id="node3" class="node">
<title>&#45;3</title>
<polygon fill="lightgray" stroke="black" points="348.83,-266.45 325.33,-266.45 325.33,-247.95 348.83,-247.95 348.83,-266.45"/>
<text text-anchor="middle" x="337.08" y="-253.9" font-family="Times,serif" font-size="9.00">&#45;3</text>
</g>
<!-- &#45;3&#45;&gt;1162 -->
<g id="edge55" class="edge">
<title>&#45;3&#45;&gt;1162</title>
<path fill="none" stroke="red" stroke-width="0.18" d="M332.64,-247.72C327.22,-237.38 317.77,-219.34 309.58,-203.71"/>
<polygon fill="red" stroke="red" stroke-width="0.18" points="312.82,-202.34 305.07,-195.11 306.62,-205.59 312.82,-202.34"/>
</g>
<!-- &#45;4 -->
<g id="node4" class="node">
<title>&#45;4</title>
<polygon fill="lightgray" stroke="black" points="172.83,-266.45 149.33,-266.45 149.33,-247.95 172.83,-247.95 172.83,-266.45"/>
<text text-anchor="middle" x="161.08" y="-253.9" font-family="Times,serif" font-size="9.00">&#45;4</text>
</g>
<!-- &#45;4&#45;&gt;1161 -->
<g id="edge16" class="edge">
<title>&#45;4&#45;&gt;1161</title>
<path fill="none" stroke="green" stroke-width="0.24" d="M161.08,-247.72C161.08,-238.3 161.08,-222.47 161.08,-207.91"/>
<polygon fill="green" stroke="green" stroke-width="0.24" points="164.58,-208 161.08,-198 157.58,-208 164.58,-208"/>
</g>
<!-- &#45;4&#45;&gt;1162 -->
<g id="edge33" class="edge">
<title>&#45;4&#45;&gt;1162</title>
<path fill="none" stroke="red" stroke-width="0.22" d="M167.47,-247.86C171.35,-243.16 176.6,-237.4 182.08,-233.16 206.99,-213.89 239.09,-197.7 262.54,-187.17"/>
<polygon fill="red" stroke="red" stroke-width="0.22" points="263.65,-190.51 271.4,-183.28 260.83,-184.1 263.65,-190.51"/>
</g>
<!-- &#45;5 -->
<g id="node5" class="node">
<title>&#45;5</title>
<polygon fill="lightgray" stroke="black" points="1174.83,-340.99 1151.33,-340.99 1151.33,-322.49 1174.83,-322.49 1174.83,-340.99"/>
<text text-anchor="middle" x="1163.08" y="-328.44" font-family="Times,serif" font-size="9.00">&#45;5</text>
</g>
<!-- &#45;6 -->
<g id="node6" class="node">
<title>&#45;6</title>
<polygon fill="lightgray" stroke="black" points="516.83,-266.45 493.33,-266.45 493.33,-247.95 516.83,-247.95 516.83,-266.45"/>
<text text-anchor="middle" x="505.08" y="-253.9" font-family="Times,serif" font-size="9.00">&#45;6</text>
</g>
<!-- 1160 -->
<g id="node28" class="node">
<title>1160</title>
<ellipse fill="white" stroke="black" cx="571.08" cy="-173.12" rx="24.04" ry="24.04"/>
<text text-anchor="middle" x="571.08" y="-169.82" font-family="Times,serif" font-size="9.00">1160</text>
</g>
<!-- &#45;6&#45;&gt;1160 -->
<g id="edge34" class="edge">
<title>&#45;6&#45;&gt;1160</title>
<path fill="none" stroke="red" stroke-width="0.48" d="M511.89,-247.72C520.76,-236.7 536.65,-216.93 549.74,-200.66"/>
<polygon fill="red" stroke="red" stroke-width="0.48" points="552.28,-203.08 555.82,-193.09 546.83,-198.69 552.28,-203.08"/>
</g>
<!-- &#45;6&#45;&gt;1162 -->
<g id="edge40" class="edge">
<title>&#45;6&#45;&gt;1162</title>
<path fill="none" stroke="red" stroke-width="0.27" stroke-dasharray="1,5" d="M498.96,-247.47C495.18,-242.64 489.93,-236.88 484.08,-233.16 434.95,-201.91 368.16,-186.22 328.25,-179.14"/>
<polygon fill="red" stroke="red" stroke-width="0.27" points="328.84,-175.69 318.39,-177.47 327.67,-182.59 328.84,-175.69"/>
</g>
<!-- 1163 -->
<g id="node31" class="node">
<title>1163</title>
<ellipse fill="white" stroke="black" cx="818.08" cy="-173.12" rx="24.04" ry="24.04"/>
<text text-anchor="middle" x="818.08" y="-169.82" font-family="Times,serif" font-size="9.00">1163</text>
</g>
<!-- &#45;6&#45;&gt;1163 -->
<g id="edge15" class="edge">
<title>&#45;6&#45;&gt;1163</title>
<path fill="none" stroke="green" stroke-width="0.23" stroke-dasharray="1,5" d="M517.1,-250.91C528.9,-245.87 547.48,-238.3 564.08,-233.16 641.64,-209.14 735.18,-189.8 784.26,-180.37"/>
<polygon fill="green" stroke="green" stroke-width="0.23" points="784.81,-183.82 793.98,-178.52 783.5,-176.95 784.81,-183.82"/>
</g>
<!-- &#45;7 -->
<g id="node7" class="node">
<title>&#45;7</title>
<polygon fill="lightgray" stroke="black" points="130.83,-266.45 107.33,-266.45 107.33,-247.95 130.83,-247.95 130.83,-266.45"/>
<text text-anchor="middle" x="119.08" y="-253.9" font-family="Times,serif" font-size="9.00">&#45;7</text>
</g>
<!-- &#45;7&#45;&gt;1161 -->
<g id="edge21" class="edge">
<title>&#45;7&#45;&gt;1161</title>
<path fill="none" stroke="green" stroke-width="0.31" d="M123.42,-247.72C128.66,-237.48 137.76,-219.68 145.71,-204.15"/>
<polygon fill="green" stroke="green" stroke-width="0.31" points="148.81,-205.78 150.25,-195.29 142.58,-202.6 148.81,-205.78"/>
</g>
<!-- &#45;7&#45;&gt;1162 -->
<g id="edge44" class="edge">
<title>&#45;7&#45;&gt;1162</title>
<path fill="none" stroke="red" stroke-width="0.32" d="M125.29,-247.61C129.11,-242.82 134.36,-237.06 140.08,-233.16 177.64,-207.52 227.86,-190.97 260.59,-182.1"/>
<polygon fill="red" stroke="red" stroke-width="0.32" points="261.3,-185.53 270.08,-179.61 259.52,-178.76 261.3,-185.53"/>
</g>
<!-- &#45;8 -->
<g id="node8" class="node">
<title>&#45;8</title>
<polygon fill="lightgray" stroke="black" points="428.83,-266.45 405.33,-266.45 405.33,-247.95 428.83,-247.95 428.83,-266.45"/>
<text text-anchor="middle" x="417.08" y="-253.9" font-family="Times,serif" font-size="9.00">&#45;8</text>
</g>
<!-- &#45;8&#45;&gt;1160 -->
<g id="edge14" class="edge">
<title>&#45;8&#45;&gt;1160</title>
<path fill="none" stroke="red" stroke-width="0.34" stroke-dasharray="1,5" d="M423.36,-247.72C427.21,-242.97 432.46,-237.21 438.08,-233.16 469.1,-210.79 509.95,-194.22 538.15,-184.43"/>
<polygon fill="red" stroke="red" stroke-width="0.34" points="539.09,-187.8 547.45,-181.29 536.85,-181.17 539.09,-187.8"/>
</g>
<!-- &#45;8&#45;&gt;1162 -->
<g id="edge10" class="edge">
<title>&#45;8&#45;&gt;1162</title>
<path fill="none" stroke="green" stroke-width="0.15" stroke-dasharray="1,5" d="M408.27,-247.68C403.38,-243.14 397.1,-237.6 391.08,-233.16 369.58,-217.29 343.66,-201.67 324.02,-190.49"/>
<polygon fill="green" stroke="green" stroke-width="0.15" points="325.83,-187.49 315.4,-185.64 322.4,-193.59 325.83,-187.49"/>
</g>
<!-- &#45;9 -->
<g id="node9" class="node">
<title>&#45;9</title>
<polygon fill="lightgray" stroke="black" points="306.83,-266.45 283.33,-266.45 283.33,-247.95 306.83,-247.95 306.83,-266.45"/>
<text text-anchor="middle" x="295.08" y="-253.9" font-family="Times,serif" font-size="9.00">&#45;9</text>
</g>
<!-- &#45;9&#45;&gt;1160 -->
<g id="edge26" class="edge">
<title>&#45;9&#45;&gt;1160</title>
<path fill="none" stroke="green" stroke-width="0.45" stroke-dasharray="1,5" d="M300.75,-247.76C304.52,-242.78 309.91,-236.77 316.08,-233.16 386.96,-191.66 484.86,-179.33 536.3,-175.67"/>
<polygon fill="green" stroke="green" stroke-width="0.45" points="536.41,-179.17 546.17,-175.03 535.96,-172.18 536.41,-179.17"/>
</g>
<!-- &#45;9&#45;&gt;1161 -->
<g id="edge19" class="edge">
<title>&#45;9&#45;&gt;1161</title>
<path fill="none" stroke="red" stroke-width="0.11" d="M288.69,-247.85C284.82,-243.15 279.57,-237.39 274.08,-233.16 248.81,-213.68 216.17,-197.42 192.47,-186.93"/>
<polygon fill="red" stroke="red" stroke-width="0.11" points="193.96,-183.76 183.39,-182.99 191.18,-190.18 193.96,-183.76"/>
</g>
<!-- &#45;10 -->
<g id="node10" class="node">
<title>&#45;10</title>
<polygon fill="lightgray" stroke="black" points="475.08,-266.45 447.08,-266.45 447.08,-247.95 475.08,-247.95 475.08,-266.45"/>
<text text-anchor="middle" x="461.08" y="-253.9" font-family="Times,serif" font-size="9.00">&#45;10</text>
</g>
<!-- &#45;10&#45;&gt;1162 -->
<g id="edge17" class="edge">
<title>&#45;10&#45;&gt;1162</title>
<path fill="none" stroke="red" stroke-width="0.12" stroke-dasharray="1,5" d="M454.1,-247.69C449.85,-242.93 444.1,-237.17 438.08,-233.16 403.13,-209.87 357.54,-193.1 327.11,-183.51"/>
<polygon fill="red" stroke="red" stroke-width="0.12" points="328.16,-180.17 317.58,-180.59 326.11,-186.87 328.16,-180.17"/>
</g>
<!-- &#45;10&#45;&gt;1163 -->
<g id="edge47" class="edge">
<title>&#45;10&#45;&gt;1163</title>
<path fill="none" stroke="green" stroke-width="0.25" stroke-dasharray="1,5" d="M467.38,-247.65C471.56,-242.63 477.46,-236.61 484.08,-233.16 536.08,-206.04 709.39,-185.38 783.73,-177.54"/>
<polygon fill="green" stroke="green" stroke-width="0.25" points="783.99,-181.03 793.58,-176.52 783.27,-174.07 783.99,-181.03"/>
</g>
<!-- &#45;11 -->
<g id="node11" class="node">
<title>&#45;11</title>
<polygon fill="lightgray" stroke="black" points="855.08,-266.45 827.08,-266.45 827.08,-247.95 855.08,-247.95 855.08,-266.45"/>
<text text-anchor="middle" x="841.08" y="-253.9" font-family="Times,serif" font-size="9.00">&#45;11</text>
</g>
<!-- &#45;11&#45;&gt;1160 -->
<g id="edge7" class="edge">
<title>&#45;11&#45;&gt;1160</title>
<path fill="none" stroke="red" stroke-width="0.38" d="M834.7,-247.78C830.5,-242.82 824.59,-236.8 818.08,-233.16 749.09,-194.52 655.54,-181.04 605.7,-176.44"/>
<polygon fill="red" stroke="red" stroke-width="0.38" points="606.3,-172.97 596.04,-175.61 605.7,-179.95 606.3,-172.97"/>
</g>
<!-- &#45;11&#45;&gt;1163 -->
<g id="edge18" class="edge">
<title>&#45;11&#45;&gt;1163</title>
<path fill="none" stroke="red" stroke-width="0.47" stroke-dasharray="1,5" d="M838.7,-247.72C835.98,-238.01 831.35,-221.49 827.17,-206.56"/>
<polygon fill="red" stroke="red" stroke-width="0.47" points="830.63,-205.95 824.57,-197.27 823.89,-207.84 830.63,-205.95"/>
</g>
<!-- &#45;12 -->
<g id="node12" class="node">
<title>&#45;12</title>
<polygon fill="lightgray" stroke="black" points="47.08,-266.45 19.08,-266.45 19.08,-247.95 47.08,-247.95 47.08,-266.45"/>
<text text-anchor="middle" x="33.08" y="-253.9" font-family="Times,serif" font-size="9.00">&#45;12</text>
</g>
<!-- &#45;12&#45;&gt;1161 -->
<g id="edge27" class="edge">
<title>&#45;12&#45;&gt;1161</title>
<path fill="none" stroke="red" stroke-width="0.52" d="M40.67,-247.52C44.93,-242.93 50.5,-237.4 56.08,-233.16 79.23,-215.58 108.19,-199.69 129.83,-188.83"/>
<polygon fill="red" stroke="red" stroke-width="0.52" points="131.38,-191.97 138.8,-184.41 128.28,-185.69 131.38,-191.97"/>
</g>
<!-- &#45;13 -->
<g id="node13" class="node">
<title>&#45;13</title>
<polygon fill="lightgray" stroke="black" points="1091.08,-340.99 1063.08,-340.99 1063.08,-322.49 1091.08,-322.49 1091.08,-340.99"/>
<text text-anchor="middle" x="1077.08" y="-328.44" font-family="Times,serif" font-size="9.00">&#45;13</text>
</g>
<!-- 1298 -->
<g id="node32" class="node">
<title>1298</title>
<ellipse fill="white" stroke="black" cx="1077.08" cy="-257.2" rx="24.04" ry="24.04"/>
<text text-anchor="middle" x="1077.08" y="-253.9" font-family="Times,serif" font-size="9.00">1298</text>
</g>
<!-- &#45;13&#45;&gt;1298 -->
<g id="edge54" class="edge">
<title>&#45;13&#45;&gt;1298</title>
<path fill="none" stroke="green" stroke-width="0.26" d="M1077.08,-322.13C1077.08,-314.55 1077.08,-302.99 1077.08,-291.77"/>
<polygon fill="green" stroke="green" stroke-width="0.26" points="1080.58,-292.09 1077.08,-282.09 1073.58,-292.09 1080.58,-292.09"/>
</g>
<!-- &#45;14 -->
<g id="node14" class="node">
<title>&#45;14</title>
<polygon fill="lightgray" stroke="black" points="585.08,-340.99 557.08,-340.99 557.08,-322.49 585.08,-322.49 585.08,-340.99"/>
<text text-anchor="middle" x="571.08" y="-328.44" font-family="Times,serif" font-size="9.00">&#45;14</text>
</g>
<!-- 1316 -->
<g id="node26" class="node">
<title>1316</title>
<ellipse fill="white" stroke="black" cx="597.08" cy="-257.2" rx="24.04" ry="24.04"/>
<text text-anchor="middle" x="597.08" y="-253.9" font-family="Times,serif" font-size="9.00">1316</text>
</g>
<!-- &#45;14&#45;&gt;1316 -->
<g id="edge50" class="edge">
<title>&#45;14&#45;&gt;1316</title>
<path fill="none" stroke="green" stroke-width="0.36" d="M574.16,-322.13C577.04,-314.1 581.52,-301.61 585.76,-289.79"/>
<polygon fill="green" stroke="green" stroke-width="0.36" points="588.96,-291.24 589.04,-280.64 582.37,-288.87 588.96,-291.24"/>
</g>
<!-- &#45;14&#45;&gt;1160 -->
<g id="edge43" class="edge">
<title>&#45;14&#45;&gt;1160</title>
<path fill="none" stroke="red" stroke-width="0.37" d="M569.47,-322.01C567.73,-312.16 565.09,-295.61 564.08,-281.24 562.58,-259.92 562.82,-254.49 564.08,-233.16 564.57,-224.92 565.43,-216.07 566.39,-207.79"/>
<polygon fill="red" stroke="red" stroke-width="0.37" points="569.86,-208.24 567.62,-197.89 562.92,-207.38 569.86,-208.24"/>
</g>
<!-- &#45;14&#45;&gt;1161 -->
<g id="edge42" class="edge">
<title>&#45;14&#45;&gt;1161</title>
<path fill="none" stroke="green" stroke-width="0.29" stroke-dasharray="1,5" d="M556.62,-330.6C472.46,-329.65 48.13,-322.8 10.08,-281.24 -4.35,-265.48 -1.97,-250.81 10.08,-233.16 36.15,-194.97 90.95,-181.48 126.86,-176.72"/>
<polygon fill="green" stroke="green" stroke-width="0.29" points="126.94,-180.23 136.47,-175.59 126.13,-173.28 126.94,-180.23"/>
</g>
<!-- &#45;14&#45;&gt;1163 -->
<g id="edge24" class="edge">
<title>&#45;14&#45;&gt;1163</title>
<path fill="none" stroke="red" stroke-width="0.38" stroke-dasharray="1,5" d="M585.5,-328.82C643.2,-321.1 854.88,-292.13 864.08,-281.24 884.77,-256.77 862.27,-221.59 842.09,-198.31"/>
<polygon fill="red" stroke="red" stroke-width="0.38" points="844.82,-196.11 835.51,-191.04 839.63,-200.8 844.82,-196.11"/>
</g>
<!-- &#45;15 -->
<g id="node15" class="node">
<title>&#45;15</title>
<polygon fill="lightgray" stroke="black" points="729.08,-340.99 701.08,-340.99 701.08,-322.49 729.08,-322.49 729.08,-340.99"/>
<text text-anchor="middle" x="715.08" y="-328.44" font-family="Times,serif" font-size="9.00">&#45;15</text>
</g>
<!-- &#45;15&#45;&gt;1160 -->
<g id="edge37" class="edge">
<title>&#45;15&#45;&gt;1160</title>
<path fill="none" stroke="red" stroke-width="0.12" stroke-dasharray="1,5" d="M715.83,-322.13C716.95,-303.75 717.06,-260.13 696.08,-233.16 673.54,-204.18 633.31,-188.75 604.57,-181.03"/>
<polygon fill="red" stroke="red" stroke-width="0.12" points="605.67,-177.69 595.12,-178.65 603.96,-184.48 605.67,-177.69"/>
</g>
<!-- &#45;15&#45;&gt;1163 -->
<g id="edge30" class="edge">
<title>&#45;15&#45;&gt;1163</title>
<path fill="none" stroke="red" stroke-width="0.14" d="M729.41,-329.06C768.66,-324.14 876.35,-308.36 897.08,-281.24 910.06,-264.26 906.65,-252.26 897.08,-233.16 887.02,-213.08 866.54,-198.08 848.95,-188.22"/>
<polygon fill="red" stroke="red" stroke-width="0.14" points="850.75,-185.22 840.27,-183.64 847.48,-191.41 850.75,-185.22"/>
</g>
<!-- 1754 -->
<g id="node34" class="node">
<title>1754</title>
<ellipse fill="white" stroke="black" cx="663.08" cy="-257.2" rx="24.04" ry="24.04"/>
<text text-anchor="middle" x="663.08" y="-253.9" font-family="Times,serif" font-size="9.00">1754</text>
</g>
<!-- &#45;15&#45;&gt;1754 -->
<g id="edge56" class="edge">
<title>&#45;15&#45;&gt;1754</title>
<path fill="none" stroke="red" stroke-width="0.18" d="M708.91,-322.13C702.47,-313.14 692.02,-298.57 682.73,-285.61"/>
<polygon fill="red" stroke="red" stroke-width="0.18" points="685.67,-283.71 677,-277.62 679.98,-287.79 685.67,-283.71"/>
</g>
<!-- &#45;16 -->
<g id="node16" class="node">
<title>&#45;16</title>
<polygon fill="lightgray" stroke="black" points="219.08,-266.45 191.08,-266.45 191.08,-247.95 219.08,-247.95 219.08,-266.45"/>
<text text-anchor="middle" x="205.08" y="-253.9" font-family="Times,serif" font-size="9.00">&#45;16</text>
</g>
<!-- &#45;16&#45;&gt;1160 -->
<g id="edge8" class="edge">
<title>&#45;16&#45;&gt;1160</title>
<path fill="none" stroke="green" stroke-width="0.26" d="M211.38,-247.64C215.55,-242.61 221.46,-236.59 228.08,-233.16 281.74,-205.33 461.06,-184.93 536.82,-177.35"/>
<polygon fill="green" stroke="green" stroke-width="0.26" points="536.8,-180.87 546.41,-176.41 536.12,-173.91 536.8,-180.87"/>
</g>
<!-- &#45;16&#45;&gt;1161 -->
<g id="edge32" class="edge">
<title>&#45;16&#45;&gt;1161</title>
<path fill="none" stroke="green" stroke-width="0.25" stroke-dasharray="1,5" d="M200.54,-247.72C194.99,-237.38 185.32,-219.34 176.94,-203.71"/>
<polygon fill="green" stroke="green" stroke-width="0.25" points="180.19,-202.36 172.38,-195.2 174.02,-205.66 180.19,-202.36"/>
</g>
<!-- &#45;16&#45;&gt;1162 -->
<g id="edge11" class="edge">
<title>&#45;16&#45;&gt;1162</title>
<path fill="none" stroke="red" stroke-width="0.39" stroke-dasharray="1,5" d="M213.49,-247.55C217.79,-243.18 223.15,-237.82 228.08,-233.16 241.18,-220.76 256.13,-207.33 268.49,-196.41"/>
<polygon fill="red" stroke="red" stroke-width="0.39" points="270.54,-199.26 275.74,-190.03 265.92,-194.01 270.54,-199.26"/>
</g>
<!-- &#45;17 -->
<g id="node17" class="node">
<title>&#45;17</title>
<polygon fill="lightgray" stroke="black" points="1221.08,-340.99 1193.08,-340.99 1193.08,-322.49 1221.08,-322.49 1221.08,-340.99"/>
<text text-anchor="middle" x="1207.08" y="-328.44" font-family="Times,serif" font-size="9.00">&#45;17</text>
</g>
<!-- &#45;18 -->
<g id="node18" class="node">
<title>&#45;18</title>
<polygon fill="lightgray" stroke="black" points="265.08,-266.45 237.08,-266.45 237.08,-247.95 265.08,-247.95 265.08,-266.45"/>
<text text-anchor="middle" x="251.08" y="-253.9" font-family="Times,serif" font-size="9.00">&#45;18</text>
</g>
<!-- &#45;18&#45;&gt;1160 -->
<g id="edge20" class="edge">
<title>&#45;18&#45;&gt;1160</title>
<path fill="none" stroke="red" stroke-width="0.23" d="M257.41,-247.7C261.59,-242.69 267.5,-236.68 274.08,-233.16 360.7,-186.81 479.12,-176.67 536.75,-174.57"/>
<polygon fill="red" stroke="red" stroke-width="0.23" points="536.55,-178.08 546.43,-174.27 536.33,-171.08 536.55,-178.08"/>
</g>
<!-- &#45;18&#45;&gt;1161 -->
<g id="edge29" class="edge">
<title>&#45;18&#45;&gt;1161</title>
<path fill="none" stroke="red" stroke-width="0.51" d="M242.69,-247.53C238.38,-243.16 233.02,-237.8 228.08,-233.16 214.73,-220.62 199.44,-207.08 186.83,-196.13"/>
<polygon fill="red" stroke="red" stroke-width="0.51" points="189.43,-193.75 179.58,-189.86 184.85,-199.05 189.43,-193.75"/>
</g>
<!-- &#45;18&#45;&gt;1162 -->
<g id="edge13" class="edge">
<title>&#45;18&#45;&gt;1162</title>
<path fill="none" stroke="red" stroke-width="0.12" d="M255.52,-247.72C260.94,-237.38 270.39,-219.34 278.57,-203.71"/>
<polygon fill="red" stroke="red" stroke-width="0.12" points="281.59,-205.51 283.13,-195.02 275.39,-202.26 281.59,-205.51"/>
</g>
<!-- &#45;19 -->
<g id="node19" class="node">
<title>&#45;19</title>
<polygon fill="lightgray" stroke="black" points="809.08,-266.45 781.08,-266.45 781.08,-247.95 809.08,-247.95 809.08,-266.45"/>
<text text-anchor="middle" x="795.08" y="-253.9" font-family="Times,serif" font-size="9.00">&#45;19</text>
</g>
<!-- &#45;19&#45;&gt;1160 -->
<g id="edge5" class="edge">
<title>&#45;19&#45;&gt;1160</title>
<path fill="none" stroke="red" stroke-width="0.38" d="M786.41,-247.53C781.19,-242.71 774.19,-236.95 767.08,-233.16 714.1,-204.86 645.65,-188.19 605.25,-180.13"/>
<polygon fill="red" stroke="red" stroke-width="0.38" points="605.92,-176.7 595.44,-178.24 604.6,-183.57 605.92,-176.7"/>
</g>
<!-- &#45;19&#45;&gt;1163 -->
<g id="edge2" class="edge">
<title>&#45;19&#45;&gt;1163</title>
<path fill="none" stroke="green" stroke-width="0.3" stroke-dasharray="1,5" d="M797.45,-247.72C800.18,-238.01 804.81,-221.49 808.99,-206.56"/>
<polygon fill="green" stroke="green" stroke-width="0.3" points="812.33,-207.6 811.66,-197.02 805.59,-205.71 812.33,-207.6"/>
</g>
<!-- &#45;20 -->
<g id="node20" class="node">
<title>&#45;20</title>
<polygon fill="lightgray" stroke="black" points="973.08,-340.99 945.08,-340.99 945.08,-322.49 973.08,-322.49 973.08,-340.99"/>
<text text-anchor="middle" x="959.08" y="-328.44" font-family="Times,serif" font-size="9.00">&#45;20</text>
</g>
<!-- &#45;20&#45;&gt;1160 -->
<g id="edge1" class="edge">
<title>&#45;20&#45;&gt;1160</title>
<path fill="none" stroke="green" stroke-width="0.63" stroke-dasharray="1,5" d="M944.62,-329.27C912.03,-325.48 831.1,-313.31 772.08,-281.24 744.13,-266.06 746.06,-250 719.08,-233.16 682.56,-210.35 635.74,-193.45 604.64,-183.71"/>
<polygon fill="green" stroke="green" stroke-width="0.63" points="605.84,-180.42 595.26,-180.84 603.8,-187.11 605.84,-180.42"/>
</g>
<!-- &#45;20&#45;&gt;1162 -->
<g id="edge6" class="edge">
<title>&#45;20&#45;&gt;1162</title>
<path fill="none" stroke="red" stroke-width="0.27" d="M944.73,-329.8C859.36,-324.17 421.01,-294.7 396.08,-281.24 372.11,-268.31 376.59,-253.14 358.08,-233.16 346.11,-220.24 331.78,-206.85 319.72,-196.1"/>
<polygon fill="red" stroke="red" stroke-width="0.27" points="322.29,-193.7 312.47,-189.71 317.66,-198.95 322.29,-193.7"/>
</g>
<!-- &#45;20&#45;&gt;1163 -->
<g id="edge3" class="edge">
<title>&#45;20&#45;&gt;1163</title>
<path fill="none" stroke="red" stroke-width="0.13" stroke-dasharray="1,5" d="M957.08,-322.23C952.44,-304.02 939.45,-260.73 915.08,-233.16 897.08,-212.79 870.33,-197.24 849.48,-187.22"/>
<polygon fill="red" stroke="red" stroke-width="0.13" points="851.09,-184.1 840.54,-183.09 848.15,-190.46 851.09,-184.1"/>
</g>
<!-- &#45;20&#45;&gt;1298 -->
<g id="edge48" class="edge">
<title>&#45;20&#45;&gt;1298</title>
<path fill="none" stroke="red" stroke-width="0.26" d="M973.43,-322.86C990.51,-313.37 1019.76,-296.78 1044.08,-281.24 1045.76,-280.17 1047.47,-279.05 1049.19,-277.91"/>
<polygon fill="red" stroke="red" stroke-width="0.26" points="1051.09,-280.85 1057.4,-272.33 1047.16,-275.06 1051.09,-280.85"/>
</g>
<!-- 1337 -->
<g id="node33" class="node">
<title>1337</title>
<ellipse fill="white" stroke="black" cx="1011.08" cy="-257.2" rx="24.04" ry="24.04"/>
<text text-anchor="middle" x="1011.08" y="-253.9" font-family="Times,serif" font-size="9.00">1337</text>
</g>
<!-- &#45;20&#45;&gt;1337 -->
<g id="edge53" class="edge">
<title>&#45;20&#45;&gt;1337</title>
<path fill="none" stroke="green" stroke-width="0.47" stroke-dasharray="1,5" d="M965.25,-322.13C971.63,-313.23 981.94,-298.85 991.16,-285.98"/>
<polygon fill="green" stroke="green" stroke-width="0.47" points="993.92,-288.15 996.9,-277.98 988.23,-284.07 993.92,-288.15"/>
</g>
<!-- 0 -->
<g id="node21" class="node">
<title>0</title>
<ellipse fill="lightblue" stroke="black" cx="562.08" cy="-89.03" rx="14.5" ry="14.5"/>
<text text-anchor="middle" x="562.08" y="-85.73" font-family="Times,serif" font-size="9.00">0</text>
</g>
<!-- 0&#45;&gt;0 -->
<g id="edge38" class="edge">
<title>0&#45;&gt;0</title>
<path fill="none" stroke="red" stroke-width="0.21" stroke-dasharray="1,5" d="M572.06,-99.73C582.64,-106.43 594.58,-102.86 594.58,-89.03 594.58,-79.31 588.68,-74.66 581.49,-75.08"/>
<polygon fill="red" stroke="red" stroke-width="0.21" points="580.68,-71.66 572.37,-78.23 582.96,-78.28 580.68,-71.66"/>
</g>
<!-- 1 -->
<g id="node22" class="node">
<title>1</title>
<ellipse fill="lightblue" stroke="black" cx="515.08" cy="-89.03" rx="14.5" ry="14.5"/>
<text text-anchor="middle" x="515.08" y="-85.73" font-family="Times,serif" font-size="9.00">1</text>
</g>
<!-- 2 -->
<g id="node23" class="node">
<title>2</title>
<ellipse fill="lightblue" stroke="black" cx="1253.08" cy="-331.74" rx="14.5" ry="14.5"/>
<text text-anchor="middle" x="1253.08" y="-328.44" font-family="Times,serif" font-size="9.00">2</text>
</g>
<!-- 2&#45;&gt;2 -->
<g id="edge28" class="edge">
<title>2&#45;&gt;2</title>
<path fill="none" stroke="green" stroke-width="0.33" stroke-dasharray="1,5" d="M1263.06,-342.43C1273.64,-349.13 1285.58,-345.57 1285.58,-331.74 1285.58,-322.23 1279.93,-317.57 1272.97,-317.77"/>
<polygon fill="green" stroke="green" stroke-width="0.33" points="1271.94,-314.42 1263.54,-320.88 1274.13,-321.07 1271.94,-314.42"/>
</g>
<!-- 3 -->
<g id="node24" class="node">
<title>3</title>
<ellipse fill="lightblue" stroke="black" cx="627.08" cy="-89.03" rx="14.5" ry="14.5"/>
<text text-anchor="middle" x="627.08" y="-85.73" font-family="Times,serif" font-size="9.00">3</text>
</g>
<!-- 1316&#45;&gt;1160 -->
<g id="edge51" class="edge">
<title>1316&#45;&gt;1160</title>
<path fill="none" stroke="green" stroke-width="0.74" stroke-dasharray="1,5" d="M589.97,-233.77C587.37,-225.54 584.36,-216.03 581.52,-207.07"/>
<polygon fill="green" stroke="green" stroke-width="0.74" points="584.87,-206.07 578.52,-197.59 578.2,-208.18 584.87,-206.07"/>
</g>
<!-- 1254 -->
<g id="node27" class="node">
<title>1254</title>
<ellipse fill="white" stroke="black" cx="191.08" cy="-89.03" rx="24.04" ry="24.04"/>
<text text-anchor="middle" x="191.08" y="-85.73" font-family="Times,serif" font-size="9.00">1254</text>
</g>
<!-- 1254&#45;&gt;4 -->
<g id="edge46" class="edge">
<title>1254&#45;&gt;4</title>
<path fill="none" stroke="red" stroke-width="0.11" d="M183.14,-65.88C179.97,-57.04 176.33,-46.87 173.15,-38"/>
<polygon fill="red" stroke="red" stroke-width="0.11" points="176.53,-37.06 169.86,-28.82 169.94,-39.42 176.53,-37.06"/>
</g>
<!-- 1160&#45;&gt;1 -->
<g id="edge41" class="edge">
<title>1160&#45;&gt;1</title>
<path fill="none" stroke="red" stroke-width="0.3" stroke-dasharray="1,5" d="M557.81,-152.66C548.98,-139.72 537.42,-122.77 528.55,-109.77"/>
<polygon fill="red" stroke="red" stroke-width="0.3" points="531.69,-108.17 523.16,-101.88 525.91,-112.11 531.69,-108.17"/>
</g>
<!-- 1160&#45;&gt;3 -->
<g id="edge39" class="edge">
<title>1160&#45;&gt;3</title>
<path fill="none" stroke="green" stroke-width="0.19" d="M584.35,-152.66C593.18,-139.72 604.74,-122.77 613.61,-109.77"/>
<polygon fill="green" stroke="green" stroke-width="0.19" points="616.35,-111.98 619.09,-101.74 610.56,-108.03 616.35,-111.98"/>
</g>
<!-- 1161&#45;&gt;1 -->
<g id="edge9" class="edge">
<title>1161&#45;&gt;1</title>
<path fill="none" stroke="green" stroke-width="0.22" d="M184.58,-166.67C248.8,-151.78 426.72,-110.52 491.28,-95.55"/>
<polygon fill="green" stroke="green" stroke-width="0.22" points="491.69,-99.05 500.65,-93.38 490.11,-92.23 491.69,-99.05"/>
</g>
<!-- 1161&#45;&gt;4 -->
<g id="edge35" class="edge">
<title>1161&#45;&gt;4</title>
<path fill="none" stroke="green" stroke-width="0.13" stroke-dasharray="1,5" d="M159.1,-148.68C157.58,-126.96 156.06,-93.76 158.08,-64.99 158.68,-56.44 159.86,-47.13 161.08,-38.91"/>
<polygon fill="green" stroke="green" stroke-width="0.13" points="164.53,-39.5 162.64,-29.08 157.62,-38.41 164.53,-39.5"/>
</g>
<!-- 1161&#45;&gt;1254 -->
<g id="edge45" class="edge">
<title>1161&#45;&gt;1254</title>
<path fill="none" stroke="green" stroke-width="0.42" stroke-dasharray="1,5" d="M169.12,-150.12C172.28,-141.47 175.97,-131.37 179.41,-121.95"/>
<polygon fill="green" stroke="green" stroke-width="0.42" points="182.66,-123.28 182.8,-112.68 176.08,-120.88 182.66,-123.28"/>
</g>
<!-- 1162&#45;&gt;0 -->
<g id="edge25" class="edge">
<title>1162&#45;&gt;0</title>
<path fill="none" stroke="green" stroke-width="0.32" d="M318.44,-170.43C364.14,-166.39 464.69,-153.28 538.08,-113.07 540.74,-111.62 543.32,-109.79 545.74,-107.8"/>
<polygon fill="green" stroke="green" stroke-width="0.32" points="547.99,-110.48 552.88,-101.08 543.2,-105.39 547.99,-110.48"/>
</g>
<!-- 1162&#45;&gt;4 -->
<g id="edge4" class="edge">
<title>1162&#45;&gt;4</title>
<path fill="none" stroke="red" stroke-width="0.48" d="M283.06,-151.53C270.46,-128.99 248.41,-92.41 224.08,-64.99 212.48,-51.92 197.35,-39.3 185.31,-30.07"/>
<polygon fill="red" stroke="red" stroke-width="0.48" points="187.51,-27.34 177.41,-24.16 183.32,-32.95 187.51,-27.34"/>
</g>
<!-- 1163&#45;&gt;0 -->
<g id="edge36" class="edge">
<title>1163&#45;&gt;0</title>
<path fill="none" stroke="red" stroke-width="0.32" stroke-dasharray="1,5" d="M794.38,-167.47C754.27,-159.19 670.86,-140.17 604.08,-113.07 597.04,-110.22 589.67,-106.46 583.11,-102.82"/>
<polygon fill="red" stroke="red" stroke-width="0.32" points="585.04,-99.89 574.63,-97.92 581.54,-105.95 585.04,-99.89"/>
</g>
<!-- 1163&#45;&gt;1 -->
<g id="edge12" class="edge">
<title>1163&#45;&gt;1</title>
<path fill="none" stroke="red" stroke-width="0.35" stroke-dasharray="1,5" d="M793.81,-171.41C743.43,-169.02 625.07,-158.58 539.08,-113.07 536.4,-111.66 533.81,-109.85 531.38,-107.88"/>
<polygon fill="red" stroke="red" stroke-width="0.35" points="533.96,-105.49 524.28,-101.19 529.17,-110.59 533.96,-105.49"/>
</g>
<!-- 1163&#45;&gt;1163 -->
<g id="edge23" class="edge">
<title>1163&#45;&gt;1163</title>
<path fill="none" stroke="green" stroke-width="0.22" d="M837.54,-187.9C849.17,-191.18 860.12,-186.25 860.12,-173.12 860.12,-163.88 854.71,-158.7 847.45,-157.58"/>
<polygon fill="green" stroke="green" stroke-width="0.22" points="847.58,-154.06 837.88,-158.31 848.11,-161.04 847.58,-154.06"/>
</g>
<!-- 1298&#45;&gt;1163 -->
<g id="edge49" class="edge">
<title>1298&#45;&gt;1163</title>
<path fill="none" stroke="red" stroke-width="0.11" d="M1058.58,-241.59C1054.02,-238.47 1049.03,-235.44 1044.08,-233.16 979.52,-203.35 897.38,-186.68 852.02,-179.13"/>
<polygon fill="red" stroke="red" stroke-width="0.11" points="852.71,-175.7 842.28,-177.56 851.59,-182.61 852.71,-175.7"/>
</g>
<!-- 1754&#45;&gt;1160 -->
<g id="edge57" class="edge">
<title>1754&#45;&gt;1160</title>
<path fill="none" stroke="red" stroke-width="0.19" d="M645.34,-240.37C631.34,-227.88 611.64,-210.3 596.05,-196.39"/>
<polygon fill="red" stroke="red" stroke-width="0.19" points="598.77,-194.13 588.98,-190.09 594.11,-199.36 598.77,-194.13"/>
</g>
</g>
</svg>
