<?xml version="1.0" encoding="UTF-8" standalone="no"?>
<!DOCTYPE svg PUBLIC "-//W3C//DTD SVG 1.1//EN"
 "http://www.w3.org/Graphics/SVG/1.1/DTD/svg11.dtd">
<!-- Generated by graphviz version 12.1.1 (20240910.0053)
 -->
<!-- Pages: 1 -->
<svg width="833pt" height="596pt"
 viewBox="0.00 0.00 832.52 595.99" xmlns="http://www.w3.org/2000/svg" xmlns:xlink="http://www.w3.org/1999/xlink">
<g id="graph0" class="graph" transform="scale(1 1) rotate(0) translate(4 591.99)">
<polygon fill="white" stroke="none" points="-4,4 -4,-591.99 828.52,-591.99 828.52,4 -4,4"/>
<!-- &#45;1 -->
<g id="node1" class="node">
<title>&#45;1</title>
<polygon fill="lightgray" stroke="black" points="120.76,-434.62 97.26,-434.62 97.26,-416.12 120.76,-416.12 120.76,-434.62"/>
<text text-anchor="middle" x="109.01" y="-422.07" font-family="Times,serif" font-size="9.00">&#45;1</text>
</g>
<!-- 1121 -->
<g id="node27" class="node">
<title>1121</title>
<ellipse fill="white" stroke="black" cx="283.01" cy="-341.28" rx="24.04" ry="24.04"/>
<text text-anchor="middle" x="283.01" y="-337.98" font-family="Times,serif" font-size="9.00">1121</text>
</g>
<!-- &#45;1&#45;&gt;1121 -->
<g id="edge14" class="edge">
<title>&#45;1&#45;&gt;1121</title>
<path fill="none" stroke="red" stroke-width="0.57" d="M117.08,-415.88C121.94,-411.14 128.44,-405.38 135.01,-401.32 171.67,-378.73 218.46,-361.79 249.51,-351.97"/>
<polygon fill="red" stroke="red" stroke-width="0.57" points="250.45,-355.34 258.98,-349.05 248.39,-348.66 250.45,-355.34"/>
</g>
<!-- 1122 -->
<g id="node28" class="node">
<title>1122</title>
<ellipse fill="white" stroke="black" cx="159.01" cy="-173.12" rx="24.04" ry="24.04"/>
<text text-anchor="middle" x="159.01" y="-169.82" font-family="Times,serif" font-size="9.00">1122</text>
</g>
<!-- &#45;1&#45;&gt;1122 -->
<g id="edge24" class="edge">
<title>&#45;1&#45;&gt;1122</title>
<path fill="none" stroke="red" stroke-width="0.34" d="M105.42,-415.86C94.26,-388.1 62.65,-298.16 92.01,-233.16 99.78,-215.96 115.31,-201.76 129.46,-191.61"/>
<polygon fill="red" stroke="red" stroke-width="0.34" points="131.28,-194.61 137.59,-186.1 127.35,-188.81 131.28,-194.61"/>
</g>
<!-- 1123 -->
<g id="node29" class="node">
<title>1123</title>
<ellipse fill="white" stroke="black" cx="425.01" cy="-257.2" rx="24.04" ry="24.04"/>
<text text-anchor="middle" x="425.01" y="-253.9" font-family="Times,serif" font-size="9.00">1123</text>
</g>
<!-- &#45;1&#45;&gt;1123 -->
<g id="edge12" class="edge">
<title>&#45;1&#45;&gt;1123</title>
<path fill="none" stroke="red" stroke-width="0.19" stroke-dasharray="1,5" d="M117.83,-415.89C138.96,-396 194.88,-345.83 250.01,-317.24 296.84,-292.96 355.76,-275.5 391.89,-266.12"/>
<polygon fill="red" stroke="red" stroke-width="0.19" points="392.33,-269.62 401.16,-263.77 390.61,-262.84 392.33,-269.62"/>
</g>
<!-- &#45;2 -->
<g id="node2" class="node">
<title>&#45;2</title>
<polygon fill="lightgray" stroke="black" points="685.76,-350.53 662.26,-350.53 662.26,-332.03 685.76,-332.03 685.76,-350.53"/>
<text text-anchor="middle" x="674.01" y="-337.98" font-family="Times,serif" font-size="9.00">&#45;2</text>
</g>
<!-- 1120 -->
<g id="node26" class="node">
<title>1120</title>
<ellipse fill="white" stroke="black" cx="563.01" cy="-89.03" rx="24.04" ry="24.04"/>
<text text-anchor="middle" x="563.01" y="-85.73" font-family="Times,serif" font-size="9.00">1120</text>
</g>
<!-- &#45;2&#45;&gt;1120 -->
<g id="edge21" class="edge">
<title>&#45;2&#45;&gt;1120</title>
<path fill="none" stroke="red" stroke-width="0.59" stroke-dasharray="1,5" d="M674.5,-331.91C675.76,-303.81 676.67,-211.09 639.01,-149.07 628.06,-131.05 609.44,-116.44 593.36,-106.27"/>
<polygon fill="red" stroke="red" stroke-width="0.59" points="595.41,-103.42 585.04,-101.26 591.8,-109.42 595.41,-103.42"/>
</g>
<!-- &#45;2&#45;&gt;1123 -->
<g id="edge10" class="edge">
<title>&#45;2&#45;&gt;1123</title>
<path fill="none" stroke="red" stroke-width="0.18" stroke-dasharray="1,5" d="M663.95,-331.68C657.71,-326.77 649.33,-320.88 641.01,-317.24 572.24,-287.17 547.27,-304.82 476.01,-281.24 469.32,-279.03 462.32,-276.22 455.73,-273.33"/>
<polygon fill="red" stroke="red" stroke-width="0.18" points="457.25,-270.17 446.7,-269.21 454.34,-276.54 457.25,-270.17"/>
</g>
<!-- &#45;3 -->
<g id="node3" class="node">
<title>&#45;3</title>
<polygon fill="lightgray" stroke="black" points="396.76,-434.62 373.26,-434.62 373.26,-416.12 396.76,-416.12 396.76,-434.62"/>
<text text-anchor="middle" x="385.01" y="-422.07" font-family="Times,serif" font-size="9.00">&#45;3</text>
</g>
<!-- &#45;3&#45;&gt;1121 -->
<g id="edge15" class="edge">
<title>&#45;3&#45;&gt;1121</title>
<path fill="none" stroke="green" stroke-width="0.82" stroke-dasharray="1,5" d="M378,-415.88C374.09,-411.35 369.01,-405.8 364.01,-401.32 347.65,-386.66 327.73,-372.11 311.74,-361.11"/>
<polygon fill="green" stroke="green" stroke-width="0.82" points="314.11,-358.49 303.86,-355.78 310.18,-364.28 314.11,-358.49"/>
</g>
<!-- &#45;3&#45;&gt;1123 -->
<g id="edge33" class="edge">
<title>&#45;3&#45;&gt;1123</title>
<path fill="none" stroke="green" stroke-width="0.5" d="M387.05,-415.9C392.49,-393.29 407.59,-330.57 417.02,-291.38"/>
<polygon fill="green" stroke="green" stroke-width="0.5" points="420.41,-292.27 419.35,-281.73 413.6,-290.64 420.41,-292.27"/>
</g>
<!-- &#45;4 -->
<g id="node4" class="node">
<title>&#45;4</title>
<polygon fill="lightgray" stroke="black" points="170.76,-266.45 147.26,-266.45 147.26,-247.95 170.76,-247.95 170.76,-266.45"/>
<text text-anchor="middle" x="159.01" y="-253.9" font-family="Times,serif" font-size="9.00">&#45;4</text>
</g>
<!-- &#45;4&#45;&gt;1120 -->
<g id="edge35" class="edge">
<title>&#45;4&#45;&gt;1120</title>
<path fill="none" stroke="red" stroke-width="0.54" stroke-dasharray="1,5" d="M165.8,-247.45C169.65,-242.85 174.74,-237.31 180.01,-233.16 240.97,-185.15 260.86,-177.63 333.01,-149.07 400.12,-122.51 483,-104.67 528.7,-96.04"/>
<polygon fill="red" stroke="red" stroke-width="0.54" points="529.22,-99.5 538.42,-94.24 527.95,-92.62 529.22,-99.5"/>
</g>
<!-- &#45;4&#45;&gt;1122 -->
<g id="edge38" class="edge">
<title>&#45;4&#45;&gt;1122</title>
<path fill="none" stroke="red" stroke-width="0.25" d="M159.01,-247.72C159.01,-238.3 159.01,-222.47 159.01,-207.91"/>
<polygon fill="red" stroke="red" stroke-width="0.25" points="162.51,-208.02 159.01,-198.02 155.51,-208.02 162.51,-208.02"/>
</g>
<!-- &#45;5 -->
<g id="node5" class="node">
<title>&#45;5</title>
<polygon fill="lightgray" stroke="black" points="468.76,-350.53 445.26,-350.53 445.26,-332.03 468.76,-332.03 468.76,-350.53"/>
<text text-anchor="middle" x="457.01" y="-337.98" font-family="Times,serif" font-size="9.00">&#45;5</text>
</g>
<!-- &#45;5&#45;&gt;1123 -->
<g id="edge23" class="edge">
<title>&#45;5&#45;&gt;1123</title>
<path fill="none" stroke="green" stroke-width="0.42" stroke-dasharray="1,5" d="M453.71,-331.81C449.83,-321.86 443.18,-304.79 437.25,-289.6"/>
<polygon fill="green" stroke="green" stroke-width="0.42" points="440.63,-288.62 433.73,-280.57 434.1,-291.16 440.63,-288.62"/>
</g>
<!-- &#45;6 -->
<g id="node6" class="node">
<title>&#45;6</title>
<polygon fill="lightgray" stroke="black" points="510.76,-350.53 487.26,-350.53 487.26,-332.03 510.76,-332.03 510.76,-350.53"/>
<text text-anchor="middle" x="499.01" y="-337.98" font-family="Times,serif" font-size="9.00">&#45;6</text>
</g>
<!-- &#45;6&#45;&gt;1123 -->
<g id="edge36" class="edge">
<title>&#45;6&#45;&gt;1123</title>
<path fill="none" stroke="green" stroke-width="0.35" d="M491.37,-331.81C481.15,-320.47 462.59,-299.89 447.7,-283.36"/>
<polygon fill="green" stroke="green" stroke-width="0.35" points="450.39,-281.12 441.09,-276.03 445.19,-285.81 450.39,-281.12"/>
</g>
<!-- &#45;7 -->
<g id="node7" class="node">
<title>&#45;7</title>
<polygon fill="lightgray" stroke="black" points="552.76,-350.53 529.26,-350.53 529.26,-332.03 552.76,-332.03 552.76,-350.53"/>
<text text-anchor="middle" x="541.01" y="-337.98" font-family="Times,serif" font-size="9.00">&#45;7</text>
</g>
<!-- &#45;7&#45;&gt;1123 -->
<g id="edge34" class="edge">
<title>&#45;7&#45;&gt;1123</title>
<path fill="none" stroke="green" stroke-width="0.14" d="M534.13,-331.65C530.26,-327.07 525.17,-321.53 520.01,-317.24 499.78,-300.41 474.34,-284.85 454.88,-273.94"/>
<polygon fill="green" stroke="green" stroke-width="0.14" points="456.76,-270.97 446.31,-269.21 453.38,-277.11 456.76,-270.97"/>
</g>
<!-- &#45;8 -->
<g id="node8" class="node">
<title>&#45;8</title>
<polygon fill="lightgray" stroke="black" points="625.76,-266.45 602.26,-266.45 602.26,-247.95 625.76,-247.95 625.76,-266.45"/>
<text text-anchor="middle" x="614.01" y="-253.9" font-family="Times,serif" font-size="9.00">&#45;8</text>
</g>
<!-- &#45;8&#45;&gt;1120 -->
<g id="edge16" class="edge">
<title>&#45;8&#45;&gt;1120</title>
<path fill="none" stroke="green" stroke-width="0.3" stroke-dasharray="1,5" d="M617.14,-247.73C623.5,-229.08 636.21,-183.37 622.01,-149.07 615.57,-133.52 602.82,-119.92 590.82,-109.71"/>
<polygon fill="green" stroke="green" stroke-width="0.3" points="593.06,-107.02 583.07,-103.48 588.67,-112.47 593.06,-107.02"/>
</g>
<!-- 1244 -->
<g id="node33" class="node">
<title>1244</title>
<ellipse fill="white" stroke="black" cx="589.01" cy="-173.12" rx="24.04" ry="24.04"/>
<text text-anchor="middle" x="589.01" y="-169.82" font-family="Times,serif" font-size="9.00">1244</text>
</g>
<!-- &#45;8&#45;&gt;1244 -->
<g id="edge40" class="edge">
<title>&#45;8&#45;&gt;1244</title>
<path fill="none" stroke="red" stroke-width="0.6" stroke-dasharray="1,5" d="M611.43,-247.72C608.5,-238.1 603.54,-221.81 599.02,-206.99"/>
<polygon fill="red" stroke="red" stroke-width="0.6" points="602.38,-205.99 596.12,-197.45 595.68,-208.03 602.38,-205.99"/>
</g>
<!-- &#45;9 -->
<g id="node9" class="node">
<title>&#45;9</title>
<polygon fill="lightgray" stroke="black" points="638.76,-434.62 615.26,-434.62 615.26,-416.12 638.76,-416.12 638.76,-434.62"/>
<text text-anchor="middle" x="627.01" y="-422.07" font-family="Times,serif" font-size="9.00">&#45;9</text>
</g>
<!-- &#45;9&#45;&gt;1120 -->
<g id="edge6" class="edge">
<title>&#45;9&#45;&gt;1120</title>
<path fill="none" stroke="red" stroke-width="0.48" stroke-dasharray="1,5" d="M639.16,-418.16C655.42,-409.09 683.53,-390.5 695.01,-365.32 704.86,-343.74 686.49,-240.98 685.01,-233.16 677.82,-195.2 686.29,-179.9 663.01,-149.07 645.94,-126.47 617.49,-110.89 595.29,-101.44"/>
<polygon fill="red" stroke="red" stroke-width="0.48" points="596.85,-98.3 586.27,-97.8 594.23,-104.79 596.85,-98.3"/>
</g>
<!-- &#45;9&#45;&gt;1121 -->
<g id="edge20" class="edge">
<title>&#45;9&#45;&gt;1121</title>
<path fill="none" stroke="red" stroke-width="0.16" d="M614.77,-421.44C566.76,-409.99 390.34,-367.89 316.19,-350.2"/>
<polygon fill="red" stroke="red" stroke-width="0.16" points="317.19,-346.84 306.66,-347.92 315.57,-353.65 317.19,-346.84"/>
</g>
<!-- &#45;9&#45;&gt;1123 -->
<g id="edge28" class="edge">
<title>&#45;9&#45;&gt;1123</title>
<path fill="none" stroke="green" stroke-width="0.76" d="M628.27,-415.84C630.69,-395.83 633.74,-345.42 608.01,-317.24 567.01,-272.34 533.23,-301.82 476.01,-281.24 469.53,-278.91 462.73,-276.1 456.28,-273.26"/>
<polygon fill="green" stroke="green" stroke-width="0.76" points="458.14,-270.26 447.58,-269.31 455.24,-276.63 458.14,-270.26"/>
</g>
<!-- &#45;10 -->
<g id="node10" class="node">
<title>&#45;10</title>
<polygon fill="lightgray" stroke="black" points="205.01,-434.62 177.01,-434.62 177.01,-416.12 205.01,-416.12 205.01,-434.62"/>
<text text-anchor="middle" x="191.01" y="-422.07" font-family="Times,serif" font-size="9.00">&#45;10</text>
</g>
<!-- &#45;10&#45;&gt;1121 -->
<g id="edge11" class="edge">
<title>&#45;10&#45;&gt;1121</title>
<path fill="none" stroke="green" stroke-width="0.14" d="M200.51,-415.89C213.91,-403.94 238.83,-381.7 257.79,-364.79"/>
<polygon fill="green" stroke="green" stroke-width="0.14" points="259.95,-367.55 265.08,-358.28 255.29,-362.33 259.95,-367.55"/>
</g>
<!-- &#45;11 -->
<g id="node11" class="node">
<title>&#45;11</title>
<polygon fill="lightgray" stroke="black" points="513.01,-266.45 485.01,-266.45 485.01,-247.95 513.01,-247.95 513.01,-266.45"/>
<text text-anchor="middle" x="499.01" y="-253.9" font-family="Times,serif" font-size="9.00">&#45;11</text>
</g>
<!-- &#45;11&#45;&gt;1120 -->
<g id="edge17" class="edge">
<title>&#45;11&#45;&gt;1120</title>
<path fill="none" stroke="green" stroke-width="0.54" stroke-dasharray="1,5" d="M502.27,-247.73C511.07,-224.89 535.63,-161.12 550.69,-122.02"/>
<polygon fill="green" stroke="green" stroke-width="0.54" points="553.95,-123.29 554.28,-112.7 547.42,-120.77 553.95,-123.29"/>
</g>
<!-- &#45;11&#45;&gt;1122 -->
<g id="edge30" class="edge">
<title>&#45;11&#45;&gt;1122</title>
<path fill="none" stroke="green" stroke-width="0.15" d="M492.69,-247.67C488.52,-242.65 482.61,-236.64 476.01,-233.16 382.35,-183.77 254.04,-175.13 193.42,-173.99"/>
<polygon fill="green" stroke="green" stroke-width="0.15" points="193.52,-170.49 183.47,-173.86 193.42,-177.49 193.52,-170.49"/>
</g>
<!-- 1443 -->
<g id="node31" class="node">
<title>1443</title>
<ellipse fill="white" stroke="black" cx="485.01" cy="-173.12" rx="24.04" ry="24.04"/>
<text text-anchor="middle" x="485.01" y="-169.82" font-family="Times,serif" font-size="9.00">1443</text>
</g>
<!-- &#45;11&#45;&gt;1443 -->
<g id="edge46" class="edge">
<title>&#45;11&#45;&gt;1443</title>
<path fill="none" stroke="red" stroke-width="0.1" d="M497.57,-247.72C495.93,-238.14 493.17,-221.94 490.65,-207.18"/>
<polygon fill="red" stroke="red" stroke-width="0.1" points="494.12,-206.71 488.99,-197.44 487.22,-207.88 494.12,-206.71"/>
</g>
<!-- &#45;12 -->
<g id="node12" class="node">
<title>&#45;12</title>
<polygon fill="lightgray" stroke="black" points="129.01,-266.45 101.01,-266.45 101.01,-247.95 129.01,-247.95 129.01,-266.45"/>
<text text-anchor="middle" x="115.01" y="-253.9" font-family="Times,serif" font-size="9.00">&#45;12</text>
</g>
<!-- &#45;12&#45;&gt;1122 -->
<g id="edge19" class="edge">
<title>&#45;12&#45;&gt;1122</title>
<path fill="none" stroke="green" stroke-width="0.34" d="M119.55,-247.72C125.1,-237.38 134.77,-219.34 143.15,-203.71"/>
<polygon fill="green" stroke="green" stroke-width="0.34" points="146.01,-205.78 147.65,-195.32 139.84,-202.48 146.01,-205.78"/>
</g>
<!-- &#45;13 -->
<g id="node13" class="node">
<title>&#45;13</title>
<polygon fill="lightgray" stroke="black" points="443.01,-434.62 415.01,-434.62 415.01,-416.12 443.01,-416.12 443.01,-434.62"/>
<text text-anchor="middle" x="429.01" y="-422.07" font-family="Times,serif" font-size="9.00">&#45;13</text>
</g>
<!-- 1 -->
<g id="node22" class="node">
<title>1</title>
<ellipse fill="lightblue" stroke="black" cx="585.01" cy="-341.28" rx="14.5" ry="14.5"/>
<text text-anchor="middle" x="585.01" y="-337.98" font-family="Times,serif" font-size="9.00">1</text>
</g>
<!-- &#45;13&#45;&gt;1 -->
<g id="edge45" class="edge">
<title>&#45;13&#45;&gt;1</title>
<path fill="none" stroke="green" stroke-width="0.65" d="M443.49,-419.91C468.92,-411.66 522.66,-392.37 562.01,-365.32 564.05,-363.92 566.07,-362.32 568.02,-360.63"/>
<polygon fill="green" stroke="green" stroke-width="0.65" points="570.43,-363.17 575.18,-353.7 565.56,-358.14 570.43,-363.17"/>
</g>
<!-- &#45;13&#45;&gt;1121 -->
<g id="edge13" class="edge">
<title>&#45;13&#45;&gt;1121</title>
<path fill="none" stroke="red" stroke-width="0.21" stroke-dasharray="1,5" d="M421.94,-415.98C417.66,-411.27 411.91,-405.51 406.01,-401.32 377.4,-381.03 340.73,-364.46 314.9,-354.09"/>
<polygon fill="red" stroke="red" stroke-width="0.21" points="316.45,-350.94 305.87,-350.55 313.89,-357.46 316.45,-350.94"/>
</g>
<!-- &#45;13&#45;&gt;1123 -->
<g id="edge18" class="edge">
<title>&#45;13&#45;&gt;1123</title>
<path fill="none" stroke="green" stroke-width="0.29" stroke-dasharray="1,5" d="M428.81,-415.9C428.27,-393.41 426.77,-331.24 425.82,-292.01"/>
<polygon fill="green" stroke="green" stroke-width="0.29" points="429.32,-291.95 425.58,-282.04 422.33,-292.12 429.32,-291.95"/>
</g>
<!-- &#45;14 -->
<g id="node14" class="node">
<title>&#45;14</title>
<polygon fill="lightgray" stroke="black" points="251.01,-587.99 223.01,-587.99 223.01,-569.49 251.01,-569.49 251.01,-587.99"/>
<text text-anchor="middle" x="237.01" y="-575.44" font-family="Times,serif" font-size="9.00">&#45;14</text>
</g>
<!-- &#45;15 -->
<g id="node15" class="node">
<title>&#45;15</title>
<polygon fill="lightgray" stroke="black" points="45.01,-266.45 17.01,-266.45 17.01,-247.95 45.01,-247.95 45.01,-266.45"/>
<text text-anchor="middle" x="31.01" y="-253.9" font-family="Times,serif" font-size="9.00">&#45;15</text>
</g>
<!-- &#45;15&#45;&gt;1122 -->
<g id="edge39" class="edge">
<title>&#45;15&#45;&gt;1122</title>
<path fill="none" stroke="green" stroke-width="0.41" stroke-dasharray="1,5" d="M40.82,-247.49C46.07,-243 52.72,-237.56 59.01,-233.16 81.68,-217.28 108.79,-201.46 129.06,-190.19"/>
<polygon fill="green" stroke="green" stroke-width="0.41" points="130.51,-193.39 137.58,-185.5 127.13,-187.26 130.51,-193.39"/>
</g>
<!-- &#45;16 -->
<g id="node16" class="node">
<title>&#45;16</title>
<polygon fill="lightgray" stroke="black" points="217.01,-266.45 189.01,-266.45 189.01,-247.95 217.01,-247.95 217.01,-266.45"/>
<text text-anchor="middle" x="203.01" y="-253.9" font-family="Times,serif" font-size="9.00">&#45;16</text>
</g>
<!-- &#45;16&#45;&gt;1120 -->
<g id="edge26" class="edge">
<title>&#45;16&#45;&gt;1120</title>
<path fill="none" stroke="green" stroke-width="0.2" d="M217.46,-249.69C241.48,-238.86 291.12,-216.42 333.01,-197.16 404.44,-164.3 488.08,-125.18 532.18,-104.51"/>
<polygon fill="green" stroke="green" stroke-width="0.2" points="533.64,-107.69 541.21,-100.27 530.67,-101.35 533.64,-107.69"/>
</g>
<!-- &#45;16&#45;&gt;1122 -->
<g id="edge32" class="edge">
<title>&#45;16&#45;&gt;1122</title>
<path fill="none" stroke="red" stroke-width="0.35" d="M198.47,-247.72C192.92,-237.38 183.25,-219.34 174.88,-203.71"/>
<polygon fill="red" stroke="red" stroke-width="0.35" points="178.19,-202.49 170.38,-195.33 172.02,-205.8 178.19,-202.49"/>
</g>
<!-- &#45;17 -->
<g id="node17" class="node">
<title>&#45;17</title>
<polygon fill="lightgray" stroke="black" points="783.01,-518.7 755.01,-518.7 755.01,-500.2 783.01,-500.2 783.01,-518.7"/>
<text text-anchor="middle" x="769.01" y="-506.15" font-family="Times,serif" font-size="9.00">&#45;17</text>
</g>
<!-- &#45;17&#45;&gt;1120 -->
<g id="edge48" class="edge">
<title>&#45;17&#45;&gt;1120</title>
<path fill="none" stroke="red" stroke-width="0.1" stroke-dasharray="1,5" d="M773.81,-499.75C786.68,-475.56 821.01,-405.16 821.01,-342.28 821.01,-342.28 821.01,-342.28 821.01,-256.2 821.01,-207.85 835.04,-184.39 802.01,-149.07 774.26,-119.41 655.95,-101.25 596.86,-93.86"/>
<polygon fill="red" stroke="red" stroke-width="0.1" points="597.4,-90.4 587.05,-92.66 596.55,-97.35 597.4,-90.4"/>
</g>
<!-- 1849 -->
<g id="node32" class="node">
<title>1849</title>
<ellipse fill="white" stroke="black" cx="769.01" cy="-173.12" rx="24.04" ry="24.04"/>
<text text-anchor="middle" x="769.01" y="-169.82" font-family="Times,serif" font-size="9.00">1849</text>
</g>
<!-- &#45;17&#45;&gt;1849 -->
<g id="edge53" class="edge">
<title>&#45;17&#45;&gt;1849</title>
<path fill="none" stroke="green" stroke-width="0.19" d="M769.01,-499.85C769.01,-458.84 769.01,-282.04 769.01,-207.48"/>
<polygon fill="green" stroke="green" stroke-width="0.19" points="772.51,-207.54 769.01,-197.54 765.51,-207.54 772.51,-207.54"/>
</g>
<!-- 1471 -->
<g id="node34" class="node">
<title>1471</title>
<ellipse fill="white" stroke="black" cx="285.01" cy="-425.37" rx="24.04" ry="24.04"/>
<text text-anchor="middle" x="285.01" y="-422.07" font-family="Times,serif" font-size="9.00">1471</text>
</g>
<!-- &#45;17&#45;&gt;1471 -->
<g id="edge55" class="edge">
<title>&#45;17&#45;&gt;1471</title>
<path fill="none" stroke="green" stroke-width="0.14" d="M754.87,-507.51C687.73,-502.89 401.03,-481.59 318.01,-449.41 315.95,-448.61 313.89,-447.65 311.86,-446.59"/>
<polygon fill="green" stroke="green" stroke-width="0.14" points="313.87,-443.71 303.5,-441.54 310.25,-449.71 313.87,-443.71"/>
</g>
<!-- &#45;18 -->
<g id="node18" class="node">
<title>&#45;18</title>
<polygon fill="lightgray" stroke="black" points="355.01,-434.62 327.01,-434.62 327.01,-416.12 355.01,-416.12 355.01,-434.62"/>
<text text-anchor="middle" x="341.01" y="-422.07" font-family="Times,serif" font-size="9.00">&#45;18</text>
</g>
<!-- &#45;18&#45;&gt;1121 -->
<g id="edge37" class="edge">
<title>&#45;18&#45;&gt;1121</title>
<path fill="none" stroke="red" stroke-width="0.18" stroke-dasharray="1,5" d="M335.02,-415.89C327.33,-405.01 313.62,-385.6 302.2,-369.44"/>
<polygon fill="red" stroke="red" stroke-width="0.18" points="305.27,-367.73 296.65,-361.58 299.56,-371.77 305.27,-367.73"/>
</g>
<!-- &#45;18&#45;&gt;1123 -->
<g id="edge1" class="edge">
<title>&#45;18&#45;&gt;1123</title>
<path fill="none" stroke="green" stroke-width="0.37" stroke-dasharray="1,5" d="M345.29,-415.9C357,-392.73 390.01,-327.44 409.69,-288.52"/>
<polygon fill="green" stroke="green" stroke-width="0.37" points="412.74,-290.23 414.13,-279.72 406.5,-287.07 412.74,-290.23"/>
</g>
<!-- &#45;19 -->
<g id="node19" class="node">
<title>&#45;19</title>
<polygon fill="lightgray" stroke="black" points="205.01,-587.99 177.01,-587.99 177.01,-569.49 205.01,-569.49 205.01,-587.99"/>
<text text-anchor="middle" x="191.01" y="-575.44" font-family="Times,serif" font-size="9.00">&#45;19</text>
</g>
<!-- &#45;19&#45;&gt;1121 -->
<g id="edge27" class="edge">
<title>&#45;19&#45;&gt;1121</title>
<path fill="none" stroke="red" stroke-width="0.15" d="M186.38,-569.23C172.41,-542.32 133.72,-457.47 168.01,-401.32 172.85,-393.39 219.58,-371.01 251.96,-356.19"/>
<polygon fill="red" stroke="red" stroke-width="0.15" points="253.22,-359.46 260.87,-352.14 250.32,-353.09 253.22,-359.46"/>
</g>
<!-- 1416 -->
<g id="node30" class="node">
<title>1416</title>
<ellipse fill="white" stroke="black" cx="233.01" cy="-509.45" rx="24.04" ry="24.04"/>
<text text-anchor="middle" x="233.01" y="-506.15" font-family="Times,serif" font-size="9.00">1416</text>
</g>
<!-- &#45;19&#45;&gt;1416 -->
<g id="edge43" class="edge">
<title>&#45;19&#45;&gt;1416</title>
<path fill="none" stroke="red" stroke-width="0.31" stroke-dasharray="1,5" d="M196.33,-569.22C201.06,-561.65 208.24,-550.13 215,-539.3"/>
<polygon fill="red" stroke="red" stroke-width="0.31" points="217.95,-541.19 220.27,-530.86 212.01,-537.49 217.95,-541.19"/>
</g>
<!-- &#45;20 -->
<g id="node20" class="node">
<title>&#45;20</title>
<polygon fill="lightgray" stroke="black" points="297.01,-587.99 269.01,-587.99 269.01,-569.49 297.01,-569.49 297.01,-587.99"/>
<text text-anchor="middle" x="283.01" y="-575.44" font-family="Times,serif" font-size="9.00">&#45;20</text>
</g>
<!-- 0 -->
<g id="node21" class="node">
<title>0</title>
<ellipse fill="lightblue" stroke="black" cx="221.01" cy="-89.03" rx="14.5" ry="14.5"/>
<text text-anchor="middle" x="221.01" y="-85.73" font-family="Times,serif" font-size="9.00">0</text>
</g>
<!-- 0&#45;&gt;0 -->
<g id="edge5" class="edge">
<title>0&#45;&gt;0</title>
<path fill="none" stroke="red" stroke-width="0.34" stroke-dasharray="1,5" d="M230.99,-99.73C241.57,-106.43 253.51,-102.86 253.51,-89.03 253.51,-79.52 247.87,-74.87 240.9,-75.06"/>
<polygon fill="red" stroke="red" stroke-width="0.34" points="239.88,-71.72 231.48,-78.18 242.07,-78.36 239.88,-71.72"/>
</g>
<!-- 2 -->
<g id="node23" class="node">
<title>2</title>
<ellipse fill="lightblue" stroke="black" cx="433.01" cy="-14.5" rx="14.5" ry="14.5"/>
<text text-anchor="middle" x="433.01" y="-11.2" font-family="Times,serif" font-size="9.00">2</text>
</g>
<!-- 3 -->
<g id="node24" class="node">
<title>3</title>
<ellipse fill="lightblue" stroke="black" cx="159.01" cy="-89.03" rx="14.5" ry="14.5"/>
<text text-anchor="middle" x="159.01" y="-85.73" font-family="Times,serif" font-size="9.00">3</text>
</g>
<!-- 4 -->
<g id="node25" class="node">
<title>4</title>
<ellipse fill="lightblue" stroke="black" cx="508.01" cy="-14.5" rx="14.5" ry="14.5"/>
<text text-anchor="middle" x="508.01" y="-11.2" font-family="Times,serif" font-size="9.00">4</text>
</g>
<!-- 4&#45;&gt;4 -->
<g id="edge22" class="edge">
<title>4&#45;&gt;4</title>
<path fill="none" stroke="red" stroke-width="0.78" d="M517.99,-25.19C528.57,-31.89 540.51,-28.33 540.51,-14.5 540.51,-5.2 535.12,-0.54 528.38,-0.52"/>
<polygon fill="red" stroke="red" stroke-width="0.78" points="527.6,2.91 519.12,-3.44 529.71,-3.77 527.6,2.91"/>
</g>
<!-- 1120&#45;&gt;2 -->
<g id="edge31" class="edge">
<title>1120&#45;&gt;2</title>
<path fill="none" stroke="red" stroke-width="0.61" stroke-dasharray="1,5" d="M542.12,-76.38C518.26,-63.06 479.37,-41.37 455.04,-27.79"/>
<polygon fill="red" stroke="red" stroke-width="0.61" points="456.83,-24.78 446.39,-22.96 453.42,-30.89 456.83,-24.78"/>
</g>
<!-- 1120&#45;&gt;4 -->
<g id="edge29" class="edge">
<title>1120&#45;&gt;4</title>
<path fill="none" stroke="red" stroke-width="0.2" d="M548.85,-69.35C540.71,-58.62 530.52,-45.18 522.35,-34.41"/>
<polygon fill="red" stroke="red" stroke-width="0.2" points="525.33,-32.54 516.5,-26.69 519.75,-36.77 525.33,-32.54"/>
</g>
<!-- 1121&#45;&gt;0 -->
<g id="edge3" class="edge">
<title>1121&#45;&gt;0</title>
<path fill="none" stroke="red" stroke-width="0.28" stroke-dasharray="1,5" d="M277.4,-317.63C265.67,-270.31 238.68,-161.36 226.8,-113.41"/>
<polygon fill="red" stroke="red" stroke-width="0.28" points="230.22,-112.65 224.42,-103.78 223.42,-114.33 230.22,-112.65"/>
</g>
<!-- 1121&#45;&gt;2 -->
<g id="edge4" class="edge">
<title>1121&#45;&gt;2</title>
<path fill="none" stroke="green" stroke-width="0.33" d="M258.81,-338.85C197.66,-334.68 39.55,-320.27 8.01,-281.24 -5.42,-264.62 1.18,-253.41 8.01,-233.16 38.03,-144.16 55.58,-113.5 136.01,-64.99 181.93,-37.3 345.03,-22.2 407.97,-17.3"/>
<polygon fill="green" stroke="green" stroke-width="0.33" points="407.97,-20.81 417.68,-16.56 407.44,-13.83 407.97,-20.81"/>
</g>
<!-- 1121&#45;&gt;4 -->
<g id="edge9" class="edge">
<title>1121&#45;&gt;4</title>
<path fill="none" stroke="green" stroke-width="0.21" d="M296.41,-320.94C336.28,-263.38 453.89,-93.62 494.24,-35.38"/>
<polygon fill="green" stroke="green" stroke-width="0.21" points="497.03,-37.49 499.85,-27.28 491.28,-33.51 497.03,-37.49"/>
</g>
<!-- 1121&#45;&gt;1123 -->
<g id="edge42" class="edge">
<title>1121&#45;&gt;1123</title>
<path fill="none" stroke="red" stroke-width="0.13" d="M303.66,-328.35C327.85,-314.37 368.1,-291.1 395.56,-275.23"/>
<polygon fill="red" stroke="red" stroke-width="0.13" points="397.26,-278.28 404.17,-270.25 393.76,-272.22 397.26,-278.28"/>
</g>
<!-- 1122&#45;&gt;0 -->
<g id="edge2" class="edge">
<title>1122&#45;&gt;0</title>
<path fill="none" stroke="red" stroke-width="0.48" stroke-dasharray="1,5" d="M173.08,-153.49C182.95,-140.42 196.12,-122.98 206.16,-109.69"/>
<polygon fill="red" stroke="red" stroke-width="0.48" points="208.86,-111.92 212.1,-101.84 203.28,-107.71 208.86,-111.92"/>
</g>
<!-- 1122&#45;&gt;3 -->
<g id="edge8" class="edge">
<title>1122&#45;&gt;3</title>
<path fill="none" stroke="green" stroke-width="0.33" d="M159.01,-148.81C159.01,-137.87 159.01,-124.83 159.01,-113.82"/>
<polygon fill="green" stroke="green" stroke-width="0.33" points="162.51,-114.14 159.01,-104.14 155.51,-114.14 162.51,-114.14"/>
</g>
<!-- 1123&#45;&gt;0 -->
<g id="edge25" class="edge">
<title>1123&#45;&gt;0</title>
<path fill="none" stroke="red" stroke-width="0.58" stroke-dasharray="1,5" d="M406.55,-241.16C368.05,-209.8 279.53,-137.7 240.31,-105.76"/>
<polygon fill="red" stroke="red" stroke-width="0.58" points="242.53,-103.05 232.57,-99.45 238.11,-108.48 242.53,-103.05"/>
</g>
<!-- 1123&#45;&gt;2 -->
<g id="edge52" class="edge">
<title>1123&#45;&gt;2</title>
<path fill="none" stroke="red" stroke-width="0.38" d="M425.79,-232.68C427.31,-186.89 430.66,-86.2 432.2,-39.79"/>
<polygon fill="red" stroke="red" stroke-width="0.38" points="435.69,-40.18 432.53,-30.07 428.7,-39.94 435.69,-40.18"/>
</g>
<!-- 1123&#45;&gt;1123 -->
<g id="edge7" class="edge">
<title>1123&#45;&gt;1123</title>
<path fill="none" stroke="red" stroke-width="0.24" d="M444.47,-271.98C456.1,-275.26 467.05,-270.34 467.05,-257.2 467.05,-247.96 461.64,-242.78 454.38,-241.67"/>
<polygon fill="red" stroke="red" stroke-width="0.24" points="454.54,-238.14 444.83,-242.39 455.07,-245.12 454.54,-238.14"/>
</g>
<!-- 1123&#45;&gt;1443 -->
<g id="edge51" class="edge">
<title>1123&#45;&gt;1443</title>
<path fill="none" stroke="red" stroke-width="0.13" d="M438.93,-237.16C446.73,-226.49 456.59,-213 465.18,-201.24"/>
<polygon fill="red" stroke="red" stroke-width="0.13" points="467.98,-203.35 471.06,-193.21 462.33,-199.21 467.98,-203.35"/>
</g>
<!-- 1416&#45;&gt;1121 -->
<g id="edge44" class="edge">
<title>1416&#45;&gt;1121</title>
<path fill="none" stroke="red" stroke-width="0.19" stroke-dasharray="1,5" d="M235.03,-485.37C237.44,-463.32 242.41,-429.38 252.01,-401.32 255.49,-391.14 260.54,-380.56 265.55,-371.22"/>
<polygon fill="red" stroke="red" stroke-width="0.19" points="268.54,-373.04 270.35,-362.6 262.42,-369.64 268.54,-373.04"/>
</g>
<!-- 1416&#45;&gt;1471 -->
<g id="edge49" class="edge">
<title>1416&#45;&gt;1471</title>
<path fill="none" stroke="red" stroke-width="0.41" stroke-dasharray="1,5" d="M245.6,-488.58C251.94,-478.57 259.74,-466.25 266.73,-455.22"/>
<polygon fill="red" stroke="red" stroke-width="0.41" points="269.63,-457.18 272.03,-446.86 263.72,-453.44 269.63,-457.18"/>
</g>
<!-- 1443&#45;&gt;1120 -->
<g id="edge47" class="edge">
<title>1443&#45;&gt;1120</title>
<path fill="none" stroke="green" stroke-width="0.18" stroke-dasharray="1,5" d="M501.17,-155.11C512.36,-143.33 527.43,-127.48 539.88,-114.37"/>
<polygon fill="green" stroke="green" stroke-width="0.18" points="542.33,-116.87 546.69,-107.21 537.26,-112.05 542.33,-116.87"/>
</g>
<!-- 1849&#45;&gt;1120 -->
<g id="edge54" class="edge">
<title>1849&#45;&gt;1120</title>
<path fill="none" stroke="green" stroke-width="0.48" stroke-dasharray="1,5" d="M749.33,-159.12C743.56,-155.61 737.15,-151.98 731.01,-149.07 685.8,-127.7 630.64,-109.77 596.16,-99.46"/>
<polygon fill="green" stroke="green" stroke-width="0.48" points="597.44,-96.18 586.86,-96.71 595.46,-102.9 597.44,-96.18"/>
</g>
<!-- 1244&#45;&gt;1120 -->
<g id="edge41" class="edge">
<title>1244&#45;&gt;1120</title>
<path fill="none" stroke="red" stroke-width="0.24" stroke-dasharray="1,5" d="M581.91,-149.69C579.21,-141.18 576.09,-131.32 573.17,-122.1"/>
<polygon fill="red" stroke="red" stroke-width="0.24" points="576.57,-121.26 570.22,-112.79 569.9,-123.38 576.57,-121.26"/>
</g>
<!-- 1471&#45;&gt;1121 -->
<g id="edge50" class="edge">
<title>1471&#45;&gt;1121</title>
<path fill="none" stroke="red" stroke-width="0.25" d="M284.44,-401.06C284.25,-393.27 284.04,-384.41 283.83,-375.98"/>
<polygon fill="red" stroke="red" stroke-width="0.25" points="287.33,-375.93 283.59,-366.02 280.33,-376.1 287.33,-375.93"/>
</g>
</g>
</svg>
