<?xml version="1.0" encoding="UTF-8" standalone="no"?>
<!DOCTYPE svg PUBLIC "-//W3C//DTD SVG 1.1//EN"
 "http://www.w3.org/Graphics/SVG/1.1/DTD/svg11.dtd">
<!-- Generated by graphviz version 12.1.1 (20240910.0053)
 -->
<!-- Pages: 1 -->
<svg width="827pt" height="363pt"
 viewBox="0.00 0.00 827.44 362.83" xmlns="http://www.w3.org/2000/svg" xmlns:xlink="http://www.w3.org/1999/xlink">
<g id="graph0" class="graph" transform="scale(1 1) rotate(0) translate(4 358.83)">
<polygon fill="white" stroke="none" points="-4,4 -4,-358.83 823.44,-358.83 823.44,4 -4,4"/>
<!-- &#45;1 -->
<g id="node1" class="node">
<title>&#45;1</title>
<polygon fill="lightgray" stroke="black" points="657.75,-354.83 634.25,-354.83 634.25,-336.33 657.75,-336.33 657.75,-354.83"/>
<text text-anchor="middle" x="646" y="-342.28" font-family="Times,serif" font-size="9.00">&#45;1</text>
</g>
<!-- 2524 -->
<g id="node28" class="node">
<title>2524</title>
<ellipse fill="white" stroke="black" cx="328" cy="-276.29" rx="24.04" ry="24.04"/>
<text text-anchor="middle" x="328" y="-272.99" font-family="Times,serif" font-size="9.00">2524</text>
</g>
<!-- &#45;1&#45;&gt;2524 -->
<g id="edge18" class="edge">
<title>&#45;1&#45;&gt;2524</title>
<path fill="none" stroke="green" stroke-width="0.41" d="M633.96,-343.04C583.06,-336.48 386.85,-310.71 361,-300.33 359.1,-299.57 357.21,-298.68 355.34,-297.71"/>
<polygon fill="green" stroke="green" stroke-width="0.41" points="357.24,-294.76 346.87,-292.59 353.62,-300.76 357.24,-294.76"/>
</g>
<!-- 2525 -->
<g id="node29" class="node">
<title>2525</title>
<ellipse fill="white" stroke="black" cx="144" cy="-276.29" rx="24.04" ry="24.04"/>
<text text-anchor="middle" x="144" y="-272.99" font-family="Times,serif" font-size="9.00">2525</text>
</g>
<!-- &#45;1&#45;&gt;2525 -->
<g id="edge31" class="edge">
<title>&#45;1&#45;&gt;2525</title>
<path fill="none" stroke="green" stroke-width="0.53" d="M634.04,-342.93C621.01,-341.16 599.55,-338.34 581,-336.33 401.77,-316.98 346.39,-362.01 177,-300.33 175.08,-299.63 173.17,-298.79 171.29,-297.85"/>
<polygon fill="green" stroke="green" stroke-width="0.53" points="173.33,-295 162.94,-292.92 169.77,-301.02 173.33,-295"/>
</g>
<!-- 2526 -->
<g id="node30" class="node">
<title>2526</title>
<ellipse fill="white" stroke="black" cx="506" cy="-192.21" rx="24.04" ry="24.04"/>
<text text-anchor="middle" x="506" y="-188.91" font-family="Times,serif" font-size="9.00">2526</text>
</g>
<!-- &#45;1&#45;&gt;2526 -->
<g id="edge22" class="edge">
<title>&#45;1&#45;&gt;2526</title>
<path fill="none" stroke="green" stroke-width="0.75" d="M652.76,-335.86C665.38,-318.44 689.65,-278.73 671,-252.25 655.65,-230.45 583.99,-210.83 540.32,-200.62"/>
<polygon fill="green" stroke="green" stroke-width="0.75" points="541.23,-197.24 530.7,-198.42 539.67,-204.06 541.23,-197.24"/>
</g>
<!-- 2527 -->
<g id="node31" class="node">
<title>2527</title>
<ellipse fill="white" stroke="black" cx="730" cy="-24.04" rx="24.04" ry="24.04"/>
<text text-anchor="middle" x="730" y="-20.74" font-family="Times,serif" font-size="9.00">2527</text>
</g>
<!-- &#45;1&#45;&gt;2527 -->
<g id="edge2" class="edge">
<title>&#45;1&#45;&gt;2527</title>
<path fill="none" stroke="red" stroke-width="0.24" d="M658.14,-342.9C690.93,-338.07 779.97,-323.07 797,-300.33 854.26,-223.88 786.1,-105.01 749.85,-52.07"/>
<polygon fill="red" stroke="red" stroke-width="0.24" points="752.92,-50.35 744.32,-44.15 747.18,-54.36 752.92,-50.35"/>
</g>
<!-- &#45;2 -->
<g id="node2" class="node">
<title>&#45;2</title>
<polygon fill="lightgray" stroke="black" points="661.75,-285.54 638.25,-285.54 638.25,-267.04 661.75,-267.04 661.75,-285.54"/>
<text text-anchor="middle" x="650" y="-272.99" font-family="Times,serif" font-size="9.00">&#45;2</text>
</g>
<!-- &#45;2&#45;&gt;2526 -->
<g id="edge41" class="edge">
<title>&#45;2&#45;&gt;2526</title>
<path fill="none" stroke="red" stroke-width="0.37" stroke-dasharray="1,5" d="M641.33,-266.57C636.49,-261.98 630.2,-256.44 624,-252.25 596.48,-233.64 562.27,-217.17 537.79,-206.38"/>
<polygon fill="red" stroke="red" stroke-width="0.37" points="539.35,-203.25 528.78,-202.48 536.57,-209.67 539.35,-203.25"/>
</g>
<!-- &#45;3 -->
<g id="node3" class="node">
<title>&#45;3</title>
<polygon fill="lightgray" stroke="black" points="209.75,-285.54 186.25,-285.54 186.25,-267.04 209.75,-267.04 209.75,-285.54"/>
<text text-anchor="middle" x="198" y="-272.99" font-family="Times,serif" font-size="9.00">&#45;3</text>
</g>
<!-- &#45;3&#45;&gt;2526 -->
<g id="edge20" class="edge">
<title>&#45;3&#45;&gt;2526</title>
<path fill="none" stroke="green" stroke-width="0.19" stroke-dasharray="1,5" d="M205.34,-266.74C210.13,-261.71 216.82,-255.69 224,-252.25 309.37,-211.28 342.01,-238.74 434,-216.25 447.28,-213 461.67,-208.58 474.07,-204.48"/>
<polygon fill="green" stroke="green" stroke-width="0.19" points="474.91,-207.9 483.26,-201.38 472.67,-201.26 474.91,-207.9"/>
</g>
<!-- &#45;3&#45;&gt;2527 -->
<g id="edge3" class="edge">
<title>&#45;3&#45;&gt;2527</title>
<path fill="none" stroke="red" stroke-width="0.14" d="M209.99,-268.97C219.2,-264.19 232.29,-257.57 244,-252.25 282.47,-234.77 296.96,-239.86 332,-216.25 400.07,-170.38 389.23,-123.92 461,-84.08 537.62,-41.55 642.41,-29.66 695.76,-26.33"/>
<polygon fill="red" stroke="red" stroke-width="0.14" points="695.72,-29.84 705.51,-25.79 695.33,-22.85 695.72,-29.84"/>
</g>
<!-- &#45;4 -->
<g id="node4" class="node">
<title>&#45;4</title>
<polygon fill="lightgray" stroke="black" points="295.75,-354.83 272.25,-354.83 272.25,-336.33 295.75,-336.33 295.75,-354.83"/>
<text text-anchor="middle" x="284" y="-342.28" font-family="Times,serif" font-size="9.00">&#45;4</text>
</g>
<!-- &#45;4&#45;&gt;2524 -->
<g id="edge36" class="edge">
<title>&#45;4&#45;&gt;2524</title>
<path fill="none" stroke="red" stroke-width="0.34" stroke-dasharray="1,5" d="M289.57,-336.06C294.61,-328.36 302.31,-316.58 309.5,-305.58"/>
<polygon fill="red" stroke="red" stroke-width="0.34" points="312.27,-307.74 314.82,-297.45 306.41,-303.91 312.27,-307.74"/>
</g>
<!-- &#45;4&#45;&gt;2525 -->
<g id="edge38" class="edge">
<title>&#45;4&#45;&gt;2525</title>
<path fill="none" stroke="green" stroke-width="0.32" stroke-dasharray="1,5" d="M271.75,-339.69C245.56,-329.21 185.77,-305.14 177,-300.33 175.25,-299.38 173.49,-298.35 171.73,-297.27"/>
<polygon fill="green" stroke="green" stroke-width="0.32" points="173.79,-294.44 163.49,-291.93 169.97,-300.31 173.79,-294.44"/>
</g>
<!-- &#45;4&#45;&gt;2526 -->
<g id="edge35" class="edge">
<title>&#45;4&#45;&gt;2526</title>
<path fill="none" stroke="red" stroke-width="0.31" d="M282.15,-335.95C278.84,-317.97 274.08,-276.2 295,-252.25 336.98,-204.19 372.7,-233.98 434,-216.25 446.9,-212.52 461,-208.09 473.27,-204.11"/>
<polygon fill="red" stroke="red" stroke-width="0.31" points="474.22,-207.48 482.64,-201.05 472.05,-200.83 474.22,-207.48"/>
</g>
<!-- &#45;5 -->
<g id="node5" class="node">
<title>&#45;5</title>
<polygon fill="lightgray" stroke="black" points="741.75,-285.54 718.25,-285.54 718.25,-267.04 741.75,-267.04 741.75,-285.54"/>
<text text-anchor="middle" x="730" y="-272.99" font-family="Times,serif" font-size="9.00">&#45;5</text>
</g>
<!-- 2601 -->
<g id="node26" class="node">
<title>2601</title>
<ellipse fill="white" stroke="black" cx="330" cy="-108.12" rx="24.04" ry="24.04"/>
<text text-anchor="middle" x="330" y="-104.82" font-family="Times,serif" font-size="9.00">2601</text>
</g>
<!-- &#45;5&#45;&gt;2601 -->
<g id="edge43" class="edge">
<title>&#45;5&#45;&gt;2601</title>
<path fill="none" stroke="red" stroke-width="0.2" d="M718,-267.22C688.62,-247.77 610.29,-197.74 539,-168.17 479.28,-143.39 405.8,-125.32 363.78,-116.08"/>
<polygon fill="red" stroke="red" stroke-width="0.2" points="364.62,-112.68 354.1,-113.99 363.14,-119.52 364.62,-112.68"/>
</g>
<!-- &#45;5&#45;&gt;2526 -->
<g id="edge23" class="edge">
<title>&#45;5&#45;&gt;2526</title>
<path fill="none" stroke="red" stroke-width="0.5" d="M722.06,-266.58C717.25,-261.76 710.75,-256 704,-252.25 675.66,-236.49 588.57,-213.54 539.86,-201.41"/>
<polygon fill="red" stroke="red" stroke-width="0.5" points="540.8,-198.04 530.25,-199.04 539.12,-204.84 540.8,-198.04"/>
</g>
<!-- &#45;5&#45;&gt;2527 -->
<g id="edge26" class="edge">
<title>&#45;5&#45;&gt;2527</title>
<path fill="none" stroke="green" stroke-width="0.67" d="M730,-266.68C730,-234.21 730,-118.08 730,-59.44"/>
<polygon fill="green" stroke="green" stroke-width="0.67" points="733.5,-59.54 730,-49.54 726.5,-59.54 733.5,-59.54"/>
</g>
<!-- &#45;6 -->
<g id="node6" class="node">
<title>&#45;6</title>
<polygon fill="lightgray" stroke="black" points="115.75,-354.83 92.25,-354.83 92.25,-336.33 115.75,-336.33 115.75,-354.83"/>
<text text-anchor="middle" x="104" y="-342.28" font-family="Times,serif" font-size="9.00">&#45;6</text>
</g>
<!-- &#45;6&#45;&gt;2525 -->
<g id="edge42" class="edge">
<title>&#45;6&#45;&gt;2525</title>
<path fill="none" stroke="green" stroke-width="0.1" stroke-dasharray="1,5" d="M109.07,-336.06C113.58,-328.47 120.45,-316.92 126.9,-306.06"/>
<polygon fill="green" stroke="green" stroke-width="0.1" points="129.76,-308.1 131.86,-297.72 123.74,-304.52 129.76,-308.1"/>
</g>
<!-- &#45;7 -->
<g id="node7" class="node">
<title>&#45;7</title>
<polygon fill="lightgray" stroke="black" points="383.75,-354.83 360.25,-354.83 360.25,-336.33 383.75,-336.33 383.75,-354.83"/>
<text text-anchor="middle" x="372" y="-342.28" font-family="Times,serif" font-size="9.00">&#45;7</text>
</g>
<!-- &#45;7&#45;&gt;2524 -->
<g id="edge16" class="edge">
<title>&#45;7&#45;&gt;2524</title>
<path fill="none" stroke="red" stroke-width="0.37" stroke-dasharray="1,5" d="M366.43,-336.06C361.39,-328.36 353.69,-316.58 346.5,-305.58"/>
<polygon fill="red" stroke="red" stroke-width="0.37" points="349.6,-303.94 341.2,-297.48 343.74,-307.77 349.6,-303.94"/>
</g>
<!-- &#45;8 -->
<g id="node8" class="node">
<title>&#45;8</title>
<polygon fill="lightgray" stroke="black" points="429.75,-354.83 406.25,-354.83 406.25,-336.33 429.75,-336.33 429.75,-354.83"/>
<text text-anchor="middle" x="418" y="-342.28" font-family="Times,serif" font-size="9.00">&#45;8</text>
</g>
<!-- &#45;8&#45;&gt;2524 -->
<g id="edge9" class="edge">
<title>&#45;8&#45;&gt;2524</title>
<path fill="none" stroke="red" stroke-width="0.25" d="M406.6,-336.06C393.68,-326.4 372.15,-310.31 354.9,-297.4"/>
<polygon fill="red" stroke="red" stroke-width="0.25" points="357.24,-294.78 347.13,-291.6 353.05,-300.39 357.24,-294.78"/>
</g>
<!-- &#45;8&#45;&gt;2526 -->
<g id="edge12" class="edge">
<title>&#45;8&#45;&gt;2526</title>
<path fill="none" stroke="red" stroke-width="0.22" stroke-dasharray="1,5" d="M418.48,-336.06C419.78,-319 424.47,-279.9 441,-252.25 450.33,-236.65 465.07,-222.77 478.16,-212.39"/>
<polygon fill="red" stroke="red" stroke-width="0.22" points="479.93,-215.45 485.76,-206.6 475.69,-209.88 479.93,-215.45"/>
</g>
<!-- &#45;9 -->
<g id="node9" class="node">
<title>&#45;9</title>
<polygon fill="lightgray" stroke="black" points="393.75,-285.54 370.25,-285.54 370.25,-267.04 393.75,-267.04 393.75,-285.54"/>
<text text-anchor="middle" x="382" y="-272.99" font-family="Times,serif" font-size="9.00">&#45;9</text>
</g>
<!-- &#45;9&#45;&gt;2526 -->
<g id="edge6" class="edge">
<title>&#45;9&#45;&gt;2526</title>
<path fill="none" stroke="red" stroke-width="0.32" d="M390.8,-266.76C395.68,-262.22 401.97,-256.68 408,-252.25 429.83,-236.21 456.22,-220.5 476.11,-209.32"/>
<polygon fill="red" stroke="red" stroke-width="0.32" points="477.56,-212.52 484.6,-204.61 474.16,-206.4 477.56,-212.52"/>
</g>
<!-- &#45;10 -->
<g id="node10" class="node">
<title>&#45;10</title>
<polygon fill="lightgray" stroke="black" points="208,-354.83 180,-354.83 180,-336.33 208,-336.33 208,-354.83"/>
<text text-anchor="middle" x="194" y="-342.28" font-family="Times,serif" font-size="9.00">&#45;10</text>
</g>
<!-- &#45;10&#45;&gt;2524 -->
<g id="edge40" class="edge">
<title>&#45;10&#45;&gt;2524</title>
<path fill="none" stroke="red" stroke-width="0.27" d="M208.34,-337.38C229.57,-326.72 269.86,-306.49 297.79,-292.46"/>
<polygon fill="red" stroke="red" stroke-width="0.27" points="299.01,-295.77 306.37,-288.15 295.87,-289.51 299.01,-295.77"/>
</g>
<!-- &#45;10&#45;&gt;2525 -->
<g id="edge33" class="edge">
<title>&#45;10&#45;&gt;2525</title>
<path fill="none" stroke="green" stroke-width="0.73" stroke-dasharray="1,5" d="M187.67,-336.06C181.82,-328.19 172.81,-316.06 164.49,-304.86"/>
<polygon fill="green" stroke="green" stroke-width="0.73" points="167.46,-303 158.69,-297.06 161.84,-307.17 167.46,-303"/>
</g>
<!-- &#45;11 -->
<g id="node11" class="node">
<title>&#45;11</title>
<polygon fill="lightgray" stroke="black" points="342,-354.83 314,-354.83 314,-336.33 342,-336.33 342,-354.83"/>
<text text-anchor="middle" x="328" y="-342.28" font-family="Times,serif" font-size="9.00">&#45;11</text>
</g>
<!-- &#45;11&#45;&gt;2524 -->
<g id="edge14" class="edge">
<title>&#45;11&#45;&gt;2524</title>
<path fill="none" stroke="green" stroke-width="0.4" stroke-dasharray="1,5" d="M328,-336.06C328,-329.64 328,-320.37 328,-311.1"/>
<polygon fill="green" stroke="green" stroke-width="0.4" points="331.5,-311.37 328,-301.37 324.5,-311.37 331.5,-311.37"/>
</g>
<!-- &#45;12 -->
<g id="node12" class="node">
<title>&#45;12</title>
<polygon fill="lightgray" stroke="black" points="572,-354.83 544,-354.83 544,-336.33 572,-336.33 572,-354.83"/>
<text text-anchor="middle" x="558" y="-342.28" font-family="Times,serif" font-size="9.00">&#45;12</text>
</g>
<!-- 2710 -->
<g id="node27" class="node">
<title>2710</title>
<ellipse fill="white" stroke="black" cx="558" cy="-276.29" rx="24.04" ry="24.04"/>
<text text-anchor="middle" x="558" y="-272.99" font-family="Times,serif" font-size="9.00">2710</text>
</g>
<!-- &#45;12&#45;&gt;2710 -->
<g id="edge46" class="edge">
<title>&#45;12&#45;&gt;2710</title>
<path fill="none" stroke="green" stroke-width="0.22" d="M558,-336.06C558,-329.64 558,-320.37 558,-311.1"/>
<polygon fill="green" stroke="green" stroke-width="0.22" points="561.5,-311.1 558,-301.1 554.5,-311.1 561.5,-311.1"/>
</g>
<!-- &#45;12&#45;&gt;2524 -->
<g id="edge37" class="edge">
<title>&#45;12&#45;&gt;2524</title>
<path fill="none" stroke="green" stroke-width="0.27" stroke-dasharray="1,5" d="M543.62,-342.1C504.09,-335.16 394.44,-315.08 361,-300.33 358.97,-299.44 356.94,-298.41 354.94,-297.3"/>
<polygon fill="green" stroke="green" stroke-width="0.27" points="357.13,-294.54 346.79,-292.25 353.44,-300.49 357.13,-294.54"/>
</g>
<!-- &#45;12&#45;&gt;2526 -->
<g id="edge32" class="edge">
<title>&#45;12&#45;&gt;2526</title>
<path fill="none" stroke="red" stroke-width="0.14" d="M567.02,-336.1C575.07,-327.85 586.29,-314.52 591,-300.33 597.73,-280.05 600.9,-271.19 591,-252.25 579.77,-230.77 556.76,-215.53 537.52,-205.92"/>
<polygon fill="red" stroke="red" stroke-width="0.14" points="539.16,-202.83 528.63,-201.74 536.19,-209.16 539.16,-202.83"/>
</g>
<!-- &#45;13 -->
<g id="node13" class="node">
<title>&#45;13</title>
<polygon fill="lightgray" stroke="black" points="162,-354.83 134,-354.83 134,-336.33 162,-336.33 162,-354.83"/>
<text text-anchor="middle" x="148" y="-342.28" font-family="Times,serif" font-size="9.00">&#45;13</text>
</g>
<!-- &#45;13&#45;&gt;2525 -->
<g id="edge50" class="edge">
<title>&#45;13&#45;&gt;2525</title>
<path fill="none" stroke="green" stroke-width="0.36" stroke-dasharray="1,5" d="M147.49,-336.06C147.11,-329.64 146.56,-320.37 146.01,-311.1"/>
<polygon fill="green" stroke="green" stroke-width="0.36" points="149.51,-311.08 145.43,-301.3 142.53,-311.49 149.51,-311.08"/>
</g>
<!-- &#45;14 -->
<g id="node14" class="node">
<title>&#45;14</title>
<polygon fill="lightgray" stroke="black" points="788,-285.54 760,-285.54 760,-267.04 788,-267.04 788,-285.54"/>
<text text-anchor="middle" x="774" y="-272.99" font-family="Times,serif" font-size="9.00">&#45;14</text>
</g>
<!-- &#45;14&#45;&gt;2526 -->
<g id="edge19" class="edge">
<title>&#45;14&#45;&gt;2526</title>
<path fill="none" stroke="green" stroke-width="0.19" stroke-dasharray="1,5" d="M767.62,-266.88C763.42,-261.91 757.51,-255.9 751,-252.25 682.57,-213.85 589.78,-200.28 540.34,-195.59"/>
<polygon fill="green" stroke="green" stroke-width="0.19" points="540.74,-192.11 530.48,-194.72 540.13,-199.09 540.74,-192.11"/>
</g>
<!-- &#45;14&#45;&gt;2527 -->
<g id="edge28" class="edge">
<title>&#45;14&#45;&gt;2527</title>
<path fill="none" stroke="green" stroke-width="0.24" d="M772.91,-266.86C769.41,-240.04 757.81,-154.31 744,-84.08 742.31,-75.49 740.24,-66.24 738.21,-57.68"/>
<polygon fill="green" stroke="green" stroke-width="0.24" points="741.63,-56.92 735.88,-48.02 734.83,-58.56 741.63,-56.92"/>
</g>
<!-- &#45;15 -->
<g id="node15" class="node">
<title>&#45;15</title>
<polygon fill="lightgray" stroke="black" points="254,-354.83 226,-354.83 226,-336.33 254,-336.33 254,-354.83"/>
<text text-anchor="middle" x="240" y="-342.28" font-family="Times,serif" font-size="9.00">&#45;15</text>
</g>
<!-- &#45;15&#45;&gt;2524 -->
<g id="edge27" class="edge">
<title>&#45;15&#45;&gt;2524</title>
<path fill="none" stroke="green" stroke-width="0.16" stroke-dasharray="1,5" d="M251.15,-336.06C263.7,-326.46 284.56,-310.51 301.38,-297.65"/>
<polygon fill="green" stroke="green" stroke-width="0.16" points="303.24,-300.63 309.06,-291.77 298.99,-295.07 303.24,-300.63"/>
</g>
<!-- &#45;15&#45;&gt;2525 -->
<g id="edge5" class="edge">
<title>&#45;15&#45;&gt;2525</title>
<path fill="none" stroke="red" stroke-width="0.11" stroke-dasharray="1,5" d="M227.84,-336.06C213.75,-326.19 190.09,-309.6 171.49,-296.56"/>
<polygon fill="red" stroke="red" stroke-width="0.11" points="173.69,-293.83 163.49,-290.95 169.67,-299.56 173.69,-293.83"/>
</g>
<!-- &#45;15&#45;&gt;2526 -->
<g id="edge17" class="edge">
<title>&#45;15&#45;&gt;2526</title>
<path fill="none" stroke="red" stroke-width="0.2" d="M240.63,-335.94C242.45,-317.57 249.38,-274.52 275,-252.25 329.68,-204.72 364.1,-235.31 434,-216.25 447.09,-212.68 461.35,-208.24 473.69,-204.21"/>
<polygon fill="red" stroke="red" stroke-width="0.2" points="474.44,-207.65 482.84,-201.18 472.25,-201 474.44,-207.65"/>
</g>
<!-- &#45;16 -->
<g id="node16" class="node">
<title>&#45;16</title>
<polygon fill="lightgray" stroke="black" points="498,-354.83 470,-354.83 470,-336.33 498,-336.33 498,-354.83"/>
<text text-anchor="middle" x="484" y="-342.28" font-family="Times,serif" font-size="9.00">&#45;16</text>
</g>
<!-- &#45;16&#45;&gt;2525 -->
<g id="edge7" class="edge">
<title>&#45;16&#45;&gt;2525</title>
<path fill="none" stroke="green" stroke-width="0.32" d="M469.84,-341.82C460.99,-340.13 449.35,-337.99 439,-336.33 322.94,-317.73 286.45,-343.17 177,-300.33 174.94,-299.53 172.88,-298.57 170.86,-297.5"/>
<polygon fill="green" stroke="green" stroke-width="0.32" points="173.09,-294.76 162.72,-292.59 169.47,-300.75 173.09,-294.76"/>
</g>
<!-- &#45;16&#45;&gt;2526 -->
<g id="edge25" class="edge">
<title>&#45;16&#45;&gt;2526</title>
<path fill="none" stroke="red" stroke-width="0.21" d="M485.25,-336.01C488.26,-315.29 496.06,-261.59 501.19,-226.27"/>
<polygon fill="red" stroke="red" stroke-width="0.21" points="504.61,-227.12 502.58,-216.72 497.68,-226.11 504.61,-227.12"/>
</g>
<!-- &#45;17 -->
<g id="node17" class="node">
<title>&#45;17</title>
<polygon fill="lightgray" stroke="black" points="74,-354.83 46,-354.83 46,-336.33 74,-336.33 74,-354.83"/>
<text text-anchor="middle" x="60" y="-342.28" font-family="Times,serif" font-size="9.00">&#45;17</text>
</g>
<!-- &#45;17&#45;&gt;2525 -->
<g id="edge10" class="edge">
<title>&#45;17&#45;&gt;2525</title>
<path fill="none" stroke="green" stroke-width="0.18" stroke-dasharray="1,5" d="M70.64,-336.06C82.37,-326.66 101.68,-311.19 117.54,-298.48"/>
<polygon fill="green" stroke="green" stroke-width="0.18" points="119.64,-301.29 125.26,-292.3 115.27,-295.82 119.64,-301.29"/>
</g>
<!-- &#45;18 -->
<g id="node18" class="node">
<title>&#45;18</title>
<polygon fill="lightgray" stroke="black" points="28,-354.83 0,-354.83 0,-336.33 28,-336.33 28,-354.83"/>
<text text-anchor="middle" x="14" y="-342.28" font-family="Times,serif" font-size="9.00">&#45;18</text>
</g>
<!-- 3 -->
<g id="node24" class="node">
<title>3</title>
<ellipse fill="lightblue" stroke="black" cx="209" cy="-192.21" rx="14.5" ry="14.5"/>
<text text-anchor="middle" x="209" y="-188.91" font-family="Times,serif" font-size="9.00">3</text>
</g>
<!-- &#45;18&#45;&gt;3 -->
<g id="edge48" class="edge">
<title>&#45;18&#45;&gt;3</title>
<path fill="none" stroke="green" stroke-width="0.62" d="M21.32,-336.03C36.59,-318.55 73.56,-278.23 111,-252.25 141.05,-231.39 155,-237.17 185,-216.25 187.32,-214.63 189.63,-212.79 191.86,-210.87"/>
<polygon fill="green" stroke="green" stroke-width="0.62" points="194.24,-213.42 199.11,-204.01 189.44,-208.33 194.24,-213.42"/>
</g>
<!-- &#45;18&#45;&gt;2525 -->
<g id="edge4" class="edge">
<title>&#45;18&#45;&gt;2525</title>
<path fill="none" stroke="red" stroke-width="0.76" stroke-dasharray="1,5" d="M28.41,-337.12C48.69,-326.63 86.17,-307.22 112.96,-293.36"/>
<polygon fill="red" stroke="red" stroke-width="0.76" points="114.35,-296.58 121.62,-288.88 111.13,-290.36 114.35,-296.58"/>
</g>
<!-- &#45;19 -->
<g id="node19" class="node">
<title>&#45;19</title>
<polygon fill="lightgray" stroke="black" points="112,-201.46 84,-201.46 84,-182.96 112,-182.96 112,-201.46"/>
<text text-anchor="middle" x="98" y="-188.91" font-family="Times,serif" font-size="9.00">&#45;19</text>
</g>
<!-- &#45;19&#45;&gt;2601 -->
<g id="edge45" class="edge">
<title>&#45;19&#45;&gt;2601</title>
<path fill="none" stroke="green" stroke-width="0.16" d="M104.43,-182.89C108.65,-177.95 114.57,-171.94 121,-168.17 177.17,-135.19 252.71,-119.83 295.89,-113.33"/>
<polygon fill="green" stroke="green" stroke-width="0.16" points="296.24,-116.82 305.64,-111.94 295.25,-109.89 296.24,-116.82"/>
</g>
<!-- &#45;20 -->
<g id="node20" class="node">
<title>&#45;20</title>
<polygon fill="lightgray" stroke="black" points="478,-285.54 450,-285.54 450,-267.04 478,-267.04 478,-285.54"/>
<text text-anchor="middle" x="464" y="-272.99" font-family="Times,serif" font-size="9.00">&#45;20</text>
</g>
<!-- &#45;20&#45;&gt;2526 -->
<g id="edge8" class="edge">
<title>&#45;20&#45;&gt;2526</title>
<path fill="none" stroke="green" stroke-width="0.48" d="M468.34,-266.82C473.58,-256.57 482.69,-238.77 490.63,-223.24"/>
<polygon fill="green" stroke="green" stroke-width="0.48" points="493.62,-225.09 495.06,-214.6 487.38,-221.91 493.62,-225.09"/>
</g>
<!-- 0 -->
<g id="node21" class="node">
<title>0</title>
<ellipse fill="lightblue" stroke="black" cx="549" cy="-108.12" rx="14.5" ry="14.5"/>
<text text-anchor="middle" x="549" y="-104.82" font-family="Times,serif" font-size="9.00">0</text>
</g>
<!-- 1 -->
<g id="node22" class="node">
<title>1</title>
<ellipse fill="lightblue" stroke="black" cx="144" cy="-192.21" rx="14.5" ry="14.5"/>
<text text-anchor="middle" x="144" y="-188.91" font-family="Times,serif" font-size="9.00">1</text>
</g>
<!-- 1&#45;&gt;1 -->
<g id="edge1" class="edge">
<title>1&#45;&gt;1</title>
<path fill="none" stroke="green" stroke-width="0.26" stroke-dasharray="1,5" d="M153.31,-203.78C164.05,-212 176.5,-208.14 176.5,-192.21 176.5,-180.76 170.07,-175.55 162.47,-176.57"/>
<polygon fill="green" stroke="green" stroke-width="0.26" points="161.4,-173.21 153.68,-180.47 164.24,-179.61 161.4,-173.21"/>
</g>
<!-- 2 -->
<g id="node23" class="node">
<title>2</title>
<ellipse fill="lightblue" stroke="black" cx="291" cy="-192.21" rx="14.5" ry="14.5"/>
<text text-anchor="middle" x="291" y="-188.91" font-family="Times,serif" font-size="9.00">2</text>
</g>
<!-- 2&#45;&gt;2 -->
<g id="edge13" class="edge">
<title>2&#45;&gt;2</title>
<path fill="none" stroke="red" stroke-width="0.41" stroke-dasharray="1,5" d="M300.31,-203.78C311.05,-212 323.5,-208.14 323.5,-192.21 323.5,-181.01 317.35,-175.77 309.96,-176.51"/>
<polygon fill="red" stroke="red" stroke-width="0.41" points="308.7,-173.24 300.88,-180.39 311.45,-179.68 308.7,-173.24"/>
</g>
<!-- 2&#45;&gt;2601 -->
<g id="edge49" class="edge">
<title>2&#45;&gt;2601</title>
<path fill="none" stroke="red" stroke-width="0.26" d="M296.92,-178.74C301.87,-168.32 309.15,-153.02 315.61,-139.41"/>
<polygon fill="red" stroke="red" stroke-width="0.26" points="318.62,-141.24 319.75,-130.7 312.29,-138.24 318.62,-141.24"/>
</g>
<!-- 4 -->
<g id="node25" class="node">
<title>4</title>
<ellipse fill="lightblue" stroke="black" cx="484" cy="-108.12" rx="14.5" ry="14.5"/>
<text text-anchor="middle" x="484" y="-104.82" font-family="Times,serif" font-size="9.00">4</text>
</g>
<!-- 4&#45;&gt;4 -->
<g id="edge29" class="edge">
<title>4&#45;&gt;4</title>
<path fill="none" stroke="green" stroke-width="0.37" stroke-dasharray="1,5" d="M493.31,-119.7C504.05,-127.91 516.5,-124.05 516.5,-108.12 516.5,-96.92 510.35,-91.69 502.96,-92.43"/>
<polygon fill="green" stroke="green" stroke-width="0.37" points="501.65,-89.18 493.83,-96.33 504.4,-95.62 501.65,-89.18"/>
</g>
<!-- 2601&#45;&gt;2527 -->
<g id="edge44" class="edge">
<title>2601&#45;&gt;2527</title>
<path fill="none" stroke="red" stroke-width="0.65" stroke-dasharray="1,5" d="M352.76,-99.48C367.76,-94.63 387.91,-88.46 406,-84.08 510.42,-58.83 636.09,-38.84 695.57,-29.99"/>
<polygon fill="red" stroke="red" stroke-width="0.65" points="695.87,-33.49 705.25,-28.57 694.85,-26.56 695.87,-33.49"/>
</g>
<!-- 2710&#45;&gt;2526 -->
<g id="edge47" class="edge">
<title>2710&#45;&gt;2526</title>
<path fill="none" stroke="green" stroke-width="0.61" stroke-dasharray="1,5" d="M545.41,-255.42C539.14,-245.51 531.42,-233.34 524.49,-222.39"/>
<polygon fill="green" stroke="green" stroke-width="0.61" points="527.46,-220.54 519.15,-213.96 521.54,-224.28 527.46,-220.54"/>
</g>
<!-- 2524&#45;&gt;3 -->
<g id="edge15" class="edge">
<title>2524&#45;&gt;3</title>
<path fill="none" stroke="red" stroke-width="0.12" d="M308.35,-261.74C286.42,-246.61 251.12,-222.26 229.03,-207.03"/>
<polygon fill="red" stroke="red" stroke-width="0.12" points="231.09,-204.19 220.87,-201.4 227.11,-209.95 231.09,-204.19"/>
</g>
<!-- 2525&#45;&gt;1 -->
<g id="edge34" class="edge">
<title>2525&#45;&gt;1</title>
<path fill="none" stroke="green" stroke-width="0.35" d="M144,-251.99C144,-241.04 144,-228.01 144,-217"/>
<polygon fill="green" stroke="green" stroke-width="0.35" points="147.5,-217.34 144,-207.34 140.5,-217.34 147.5,-217.34"/>
</g>
<!-- 2525&#45;&gt;2 -->
<g id="edge21" class="edge">
<title>2525&#45;&gt;2</title>
<path fill="none" stroke="red" stroke-width="0.26" d="M163.26,-261.21C167.7,-258.14 172.46,-255 177,-252.25 207.91,-233.57 245.35,-214.88 268.69,-203.68"/>
<polygon fill="red" stroke="red" stroke-width="0.26" points="270.17,-206.85 277.7,-199.39 267.16,-200.53 270.17,-206.85"/>
</g>
<!-- 2525&#45;&gt;3 -->
<g id="edge11" class="edge">
<title>2525&#45;&gt;3</title>
<path fill="none" stroke="green" stroke-width="0.88" stroke-dasharray="1,5" d="M158.43,-257.07C168.88,-243.87 182.99,-226.05 193.65,-212.59"/>
<polygon fill="green" stroke="green" stroke-width="0.88" points="196.1,-215.14 199.56,-205.13 190.61,-210.79 196.1,-215.14"/>
</g>
<!-- 2526&#45;&gt;0 -->
<g id="edge24" class="edge">
<title>2526&#45;&gt;0</title>
<path fill="none" stroke="green" stroke-width="0.82" d="M516.85,-170.5C523.16,-158.45 531.11,-143.27 537.53,-131.03"/>
<polygon fill="green" stroke="green" stroke-width="0.82" points="540.57,-132.75 542.11,-122.27 534.37,-129.51 540.57,-132.75"/>
</g>
<!-- 2526&#45;&gt;4 -->
<g id="edge30" class="edge">
<title>2526&#45;&gt;4</title>
<path fill="none" stroke="red" stroke-width="0.52" stroke-dasharray="1,5" d="M499.99,-168.78C497.01,-157.67 493.42,-144.26 490.39,-132.96"/>
<polygon fill="red" stroke="red" stroke-width="0.52" points="493.77,-132.06 487.8,-123.31 487.01,-133.87 493.77,-132.06"/>
</g>
<!-- 2527&#45;&gt;2527 -->
<g id="edge39" class="edge">
<title>2527&#45;&gt;2527</title>
<path fill="none" stroke="green" stroke-width="0.31" d="M749.46,-38.82C761.09,-42.11 772.04,-37.18 772.04,-24.04 772.04,-15.01 766.87,-9.86 759.85,-8.59"/>
<polygon fill="green" stroke="green" stroke-width="0.31" points="759.68,-5.09 749.93,-9.23 760.13,-12.08 759.68,-5.09"/>
</g>
</g>
</svg>
