<?xml version="1.0" encoding="UTF-8" standalone="no"?>
<!DOCTYPE svg PUBLIC "-//W3C//DTD SVG 1.1//EN"
 "http://www.w3.org/Graphics/SVG/1.1/DTD/svg11.dtd">
<!-- Generated by graphviz version 12.1.1 (20240910.0053)
 -->
<!-- Pages: 1 -->
<svg width="988pt" height="493pt"
 viewBox="0.00 0.00 987.71 492.82" xmlns="http://www.w3.org/2000/svg" xmlns:xlink="http://www.w3.org/1999/xlink">
<g id="graph0" class="graph" transform="scale(1 1) rotate(0) translate(4 488.82)">
<polygon fill="white" stroke="none" points="-4,4 -4,-488.82 983.71,-488.82 983.71,4 -4,4"/>
<!-- &#45;1 -->
<g id="node1" class="node">
<title>&#45;1</title>
<polygon fill="lightgray" stroke="black" points="373.79,-415.52 350.29,-415.52 350.29,-397.02 373.79,-397.02 373.79,-415.52"/>
<text text-anchor="middle" x="362.04" y="-402.97" font-family="Times,serif" font-size="9.00">&#45;1</text>
</g>
<!-- 2272 -->
<g id="node26" class="node">
<title>2272</title>
<ellipse fill="white" stroke="black" cx="270.04" cy="-322.19" rx="24.04" ry="24.04"/>
<text text-anchor="middle" x="270.04" y="-318.89" font-family="Times,serif" font-size="9.00">2272</text>
</g>
<!-- &#45;1&#45;&gt;2272 -->
<g id="edge15" class="edge">
<title>&#45;1&#45;&gt;2272</title>
<path fill="none" stroke="green" stroke-width="0.24" d="M352.54,-396.8C339.21,-384.9 314.44,-362.81 295.52,-345.92"/>
<polygon fill="green" stroke="green" stroke-width="0.24" points="297.87,-343.33 288.08,-339.28 293.21,-348.55 297.87,-343.33"/>
</g>
<!-- 2273 -->
<g id="node27" class="node">
<title>2273</title>
<ellipse fill="white" stroke="black" cx="450.04" cy="-322.19" rx="24.04" ry="24.04"/>
<text text-anchor="middle" x="450.04" y="-318.89" font-family="Times,serif" font-size="9.00">2273</text>
</g>
<!-- &#45;1&#45;&gt;2273 -->
<g id="edge21" class="edge">
<title>&#45;1&#45;&gt;2273</title>
<path fill="none" stroke="red" stroke-width="0.51" stroke-dasharray="1,5" d="M369.6,-396.53C373.51,-392.13 378.41,-386.79 383.04,-382.23 396.1,-369.39 411.37,-355.83 424.04,-344.95"/>
<polygon fill="red" stroke="red" stroke-width="0.51" points="426.01,-347.87 431.35,-338.72 421.46,-342.54 426.01,-347.87"/>
</g>
<!-- 2275 -->
<g id="node29" class="node">
<title>2275</title>
<ellipse fill="white" stroke="black" cx="402.04" cy="-173.12" rx="24.04" ry="24.04"/>
<text text-anchor="middle" x="402.04" y="-169.82" font-family="Times,serif" font-size="9.00">2275</text>
</g>
<!-- &#45;1&#45;&gt;2275 -->
<g id="edge4" class="edge">
<title>&#45;1&#45;&gt;2275</title>
<path fill="none" stroke="red" stroke-width="0.24" d="M362.07,-396.54C362.33,-371.02 364.36,-294.48 379.04,-233.16 381.27,-223.83 384.65,-214.01 388.14,-205.11"/>
<polygon fill="red" stroke="red" stroke-width="0.24" points="391.37,-206.45 391.93,-195.87 384.9,-203.8 391.37,-206.45"/>
</g>
<!-- &#45;2 -->
<g id="node2" class="node">
<title>&#45;2</title>
<polygon fill="lightgray" stroke="black" points="541.79,-415.52 518.29,-415.52 518.29,-397.02 541.79,-397.02 541.79,-415.52"/>
<text text-anchor="middle" x="530.04" y="-402.97" font-family="Times,serif" font-size="9.00">&#45;2</text>
</g>
<!-- 3 -->
<g id="node24" class="node">
<title>3</title>
<ellipse fill="lightblue" stroke="black" cx="449.04" cy="-247.65" rx="14.5" ry="14.5"/>
<text text-anchor="middle" x="449.04" y="-244.35" font-family="Times,serif" font-size="9.00">3</text>
</g>
<!-- &#45;2&#45;&gt;3 -->
<g id="edge55" class="edge">
<title>&#45;2&#45;&gt;3</title>
<path fill="none" stroke="green" stroke-width="0.23" d="M526.91,-396.68C520.02,-378.16 502.59,-333.29 483.04,-298.15 477.26,-287.76 469.89,-276.81 463.49,-267.86"/>
<polygon fill="green" stroke="green" stroke-width="0.23" points="466.43,-265.96 457.71,-259.95 460.78,-270.09 466.43,-265.96"/>
</g>
<!-- &#45;2&#45;&gt;2272 -->
<g id="edge6" class="edge">
<title>&#45;2&#45;&gt;2272</title>
<path fill="none" stroke="red" stroke-width="0.18" d="M517.95,-400.2C506.1,-395.31 487.48,-387.85 471.04,-382.23 412.62,-362.29 343.32,-342.84 303.24,-331.99"/>
<polygon fill="red" stroke="red" stroke-width="0.18" points="304.29,-328.65 293.72,-329.43 302.47,-335.41 304.29,-328.65"/>
</g>
<!-- &#45;2&#45;&gt;2273 -->
<g id="edge24" class="edge">
<title>&#45;2&#45;&gt;2273</title>
<path fill="none" stroke="green" stroke-width="0.19" stroke-dasharray="1,5" d="M521.78,-396.8C510.5,-385.22 489.8,-363.99 473.53,-347.29"/>
<polygon fill="green" stroke="green" stroke-width="0.19" points="476.1,-344.91 466.61,-340.19 471.09,-349.8 476.1,-344.91"/>
</g>
<!-- 2274 -->
<g id="node28" class="node">
<title>2274</title>
<ellipse fill="white" stroke="black" cx="715.04" cy="-322.19" rx="24.04" ry="24.04"/>
<text text-anchor="middle" x="715.04" y="-318.89" font-family="Times,serif" font-size="9.00">2274</text>
</g>
<!-- &#45;2&#45;&gt;2274 -->
<g id="edge29" class="edge">
<title>&#45;2&#45;&gt;2274</title>
<path fill="none" stroke="green" stroke-width="0.73" d="M535.78,-396.94C539.58,-392.01 544.97,-386 551.04,-382.23 600.54,-351.54 623.67,-369.54 677.04,-346.23 679.96,-344.96 682.92,-343.5 685.84,-341.94"/>
<polygon fill="green" stroke="green" stroke-width="0.73" points="687.57,-344.98 694.51,-336.97 684.09,-338.91 687.57,-344.98"/>
</g>
<!-- &#45;2&#45;&gt;2275 -->
<g id="edge25" class="edge">
<title>&#45;2&#45;&gt;2275</title>
<path fill="none" stroke="green" stroke-width="0.13" stroke-dasharray="1,5" d="M537.44,-396.68C561.83,-368.26 638.41,-278.27 644.04,-262.15 648.29,-249.99 652,-243.29 644.04,-233.16 618.54,-200.69 496.44,-183.81 436.03,-177.33"/>
<polygon fill="green" stroke="green" stroke-width="0.13" points="436.7,-173.88 426.39,-176.32 435.98,-180.84 436.7,-173.88"/>
</g>
<!-- &#45;3 -->
<g id="node3" class="node">
<title>&#45;3</title>
<polygon fill="lightgray" stroke="black" points="675.79,-415.52 652.29,-415.52 652.29,-397.02 675.79,-397.02 675.79,-415.52"/>
<text text-anchor="middle" x="664.04" y="-402.97" font-family="Times,serif" font-size="9.00">&#45;3</text>
</g>
<!-- &#45;3&#45;&gt;2273 -->
<g id="edge39" class="edge">
<title>&#45;3&#45;&gt;2273</title>
<path fill="none" stroke="red" stroke-width="0.4" d="M657.93,-396.53C654.15,-391.7 648.9,-385.94 643.04,-382.23 593,-350.56 524.92,-334.97 484.42,-328.04"/>
<polygon fill="red" stroke="red" stroke-width="0.4" points="485.05,-324.6 474.62,-326.44 483.92,-331.5 485.05,-324.6"/>
</g>
<!-- &#45;3&#45;&gt;2274 -->
<g id="edge32" class="edge">
<title>&#45;3&#45;&gt;2274</title>
<path fill="none" stroke="red" stroke-width="0.42" stroke-dasharray="1,5" d="M669.31,-396.8C675.82,-386.32 687.24,-367.94 697.04,-352.17"/>
<polygon fill="red" stroke="red" stroke-width="0.42" points="699.93,-354.15 702.23,-343.8 693.98,-350.45 699.93,-354.15"/>
</g>
<!-- &#45;3&#45;&gt;2275 -->
<g id="edge33" class="edge">
<title>&#45;3&#45;&gt;2275</title>
<path fill="none" stroke="green" stroke-width="0.17" d="M658.37,-396.77C640.12,-369.91 580.24,-285.56 514.04,-233.16 489.2,-213.49 456.82,-197.26 433.28,-186.82"/>
<polygon fill="green" stroke="green" stroke-width="0.17" points="434.89,-183.71 424.33,-182.95 432.11,-190.13 434.89,-183.71"/>
</g>
<!-- &#45;4 -->
<g id="node4" class="node">
<title>&#45;4</title>
<polygon fill="lightgray" stroke="black" points="863.79,-415.52 840.29,-415.52 840.29,-397.02 863.79,-397.02 863.79,-415.52"/>
<text text-anchor="middle" x="852.04" y="-402.97" font-family="Times,serif" font-size="9.00">&#45;4</text>
</g>
<!-- &#45;4&#45;&gt;2274 -->
<g id="edge27" class="edge">
<title>&#45;4&#45;&gt;2274</title>
<path fill="none" stroke="green" stroke-width="0.78" stroke-dasharray="1,5" d="M845.67,-396.9C841.8,-392.19 836.55,-386.43 831.04,-382.23 805.21,-362.54 771.82,-346.35 747.5,-335.94"/>
<polygon fill="green" stroke="green" stroke-width="0.78" points="749.02,-332.78 738.44,-332.15 746.32,-339.24 749.02,-332.78"/>
</g>
<!-- &#45;5 -->
<g id="node5" class="node">
<title>&#45;5</title>
<polygon fill="lightgray" stroke="black" points="504.79,-256.9 481.29,-256.9 481.29,-238.4 504.79,-238.4 504.79,-256.9"/>
<text text-anchor="middle" x="493.04" y="-244.35" font-family="Times,serif" font-size="9.00">&#45;5</text>
</g>
<!-- &#45;5&#45;&gt;2275 -->
<g id="edge9" class="edge">
<title>&#45;5&#45;&gt;2275</title>
<path fill="none" stroke="green" stroke-width="0.24" d="M482.25,-238.05C469.1,-227.57 446.44,-209.5 428.55,-195.24"/>
<polygon fill="green" stroke="green" stroke-width="0.24" points="431,-192.73 421,-189.23 426.64,-198.2 431,-192.73"/>
</g>
<!-- &#45;6 -->
<g id="node6" class="node">
<title>&#45;6</title>
<polygon fill="lightgray" stroke="black" points="209.79,-415.52 186.29,-415.52 186.29,-397.02 209.79,-397.02 209.79,-415.52"/>
<text text-anchor="middle" x="198.04" y="-402.97" font-family="Times,serif" font-size="9.00">&#45;6</text>
</g>
<!-- &#45;6&#45;&gt;2272 -->
<g id="edge13" class="edge">
<title>&#45;6&#45;&gt;2272</title>
<path fill="none" stroke="green" stroke-width="0.15" stroke-dasharray="1,5" d="M205.48,-396.8C215.45,-385.43 233.58,-364.76 248.09,-348.22"/>
<polygon fill="green" stroke="green" stroke-width="0.15" points="250.35,-350.95 254.31,-341.12 245.09,-346.33 250.35,-350.95"/>
</g>
<!-- &#45;7 -->
<g id="node7" class="node">
<title>&#45;7</title>
<polygon fill="lightgray" stroke="black" points="900.79,-484.82 877.29,-484.82 877.29,-466.32 900.79,-466.32 900.79,-484.82"/>
<text text-anchor="middle" x="889.04" y="-472.27" font-family="Times,serif" font-size="9.00">&#45;7</text>
</g>
<!-- &#45;8 -->
<g id="node8" class="node">
<title>&#45;8</title>
<polygon fill="lightgray" stroke="black" points="415.79,-415.52 392.29,-415.52 392.29,-397.02 415.79,-397.02 415.79,-415.52"/>
<text text-anchor="middle" x="404.04" y="-402.97" font-family="Times,serif" font-size="9.00">&#45;8</text>
</g>
<!-- 1 -->
<g id="node22" class="node">
<title>1</title>
<ellipse fill="lightblue" stroke="black" cx="402.04" cy="-247.65" rx="14.5" ry="14.5"/>
<text text-anchor="middle" x="402.04" y="-244.35" font-family="Times,serif" font-size="9.00">1</text>
</g>
<!-- &#45;8&#45;&gt;1 -->
<g id="edge42" class="edge">
<title>&#45;8&#45;&gt;1</title>
<path fill="none" stroke="green" stroke-width="0.15" d="M403.93,-396.85C403.64,-373.59 402.8,-307.82 402.34,-272.22"/>
<polygon fill="green" stroke="green" stroke-width="0.15" points="405.85,-272.41 402.22,-262.46 398.85,-272.5 405.85,-272.41"/>
</g>
<!-- &#45;8&#45;&gt;2273 -->
<g id="edge26" class="edge">
<title>&#45;8&#45;&gt;2273</title>
<path fill="none" stroke="green" stroke-width="0.61" stroke-dasharray="1,5" d="M408.79,-396.8C414.57,-386.49 424.64,-368.52 433.38,-352.92"/>
<polygon fill="green" stroke="green" stroke-width="0.61" points="436.32,-354.84 438.15,-344.4 430.21,-351.42 436.32,-354.84"/>
</g>
<!-- &#45;9 -->
<g id="node9" class="node">
<title>&#45;9</title>
<polygon fill="lightgray" stroke="black" points="717.79,-415.52 694.29,-415.52 694.29,-397.02 717.79,-397.02 717.79,-415.52"/>
<text text-anchor="middle" x="706.04" y="-402.97" font-family="Times,serif" font-size="9.00">&#45;9</text>
</g>
<!-- &#45;9&#45;&gt;2274 -->
<g id="edge30" class="edge">
<title>&#45;9&#45;&gt;2274</title>
<path fill="none" stroke="green" stroke-width="0.21" stroke-dasharray="1,5" d="M706.97,-396.8C708.02,-387.21 709.8,-371.02 711.42,-356.25"/>
<polygon fill="green" stroke="green" stroke-width="0.21" points="714.86,-357 712.47,-346.68 707.9,-356.24 714.86,-357"/>
</g>
<!-- &#45;10 -->
<g id="node10" class="node">
<title>&#45;10</title>
<polygon fill="lightgray" stroke="black" points="634.04,-415.52 606.04,-415.52 606.04,-397.02 634.04,-397.02 634.04,-415.52"/>
<text text-anchor="middle" x="620.04" y="-402.97" font-family="Times,serif" font-size="9.00">&#45;10</text>
</g>
<!-- &#45;10&#45;&gt;1 -->
<g id="edge48" class="edge">
<title>&#45;10&#45;&gt;1</title>
<path fill="none" stroke="green" stroke-width="0.4" stroke-dasharray="1,5" d="M612.24,-396.86C607.91,-392.35 602.35,-386.81 597.04,-382.23 549.33,-341.15 535.29,-333.28 483.04,-298.15 463.15,-284.77 439.71,-270.62 423.18,-260.89"/>
<polygon fill="green" stroke="green" stroke-width="0.4" points="425.24,-258.04 414.84,-256.01 421.71,-264.08 425.24,-258.04"/>
</g>
<!-- &#45;10&#45;&gt;2273 -->
<g id="edge8" class="edge">
<title>&#45;10&#45;&gt;2273</title>
<path fill="none" stroke="red" stroke-width="0.36" stroke-dasharray="1,5" d="M613.16,-396.6C608.95,-391.79 603.2,-386.03 597.04,-382.23 553.62,-355.45 534.37,-367.6 488.04,-346.23 484.96,-344.81 481.81,-343.2 478.72,-341.5"/>
<polygon fill="red" stroke="red" stroke-width="0.36" points="480.57,-338.53 470.16,-336.54 477.05,-344.58 480.57,-338.53"/>
</g>
<!-- &#45;10&#45;&gt;2274 -->
<g id="edge31" class="edge">
<title>&#45;10&#45;&gt;2274</title>
<path fill="none" stroke="red" stroke-width="0.87" d="M628.36,-396.53C632.65,-392.14 638.02,-386.79 643.04,-382.23 657.38,-369.23 674.06,-355.47 687.76,-344.51"/>
<polygon fill="red" stroke="red" stroke-width="0.87" points="689.59,-347.52 695.24,-338.56 685.23,-342.04 689.59,-347.52"/>
</g>
<!-- &#45;11 -->
<g id="node11" class="node">
<title>&#45;11</title>
<polygon fill="lightgray" stroke="black" points="760.04,-484.82 732.04,-484.82 732.04,-466.32 760.04,-466.32 760.04,-484.82"/>
<text text-anchor="middle" x="746.04" y="-472.27" font-family="Times,serif" font-size="9.00">&#45;11</text>
</g>
<!-- 2 -->
<g id="node23" class="node">
<title>2</title>
<ellipse fill="lightblue" stroke="black" cx="350.04" cy="-14.5" rx="14.5" ry="14.5"/>
<text text-anchor="middle" x="350.04" y="-11.2" font-family="Times,serif" font-size="9.00">2</text>
</g>
<!-- &#45;11&#45;&gt;2 -->
<g id="edge51" class="edge">
<title>&#45;11&#45;&gt;2</title>
<path fill="none" stroke="green" stroke-width="0.2" stroke-dasharray="1,5" d="M760.41,-472.5C805.67,-465.86 943.14,-444.66 957.04,-430.32 990.7,-395.6 976.04,-371.55 976.04,-323.19 976.04,-323.19 976.04,-323.19 976.04,-172.12 976.04,-45.95 491.46,-20.55 374.99,-16.27"/>
<polygon fill="green" stroke="green" stroke-width="0.2" points="375.31,-12.78 365.2,-15.93 375.07,-19.78 375.31,-12.78"/>
</g>
<!-- &#45;11&#45;&gt;2273 -->
<g id="edge40" class="edge">
<title>&#45;11&#45;&gt;2273</title>
<path fill="none" stroke="red" stroke-width="0.13" d="M731.61,-473.48C685.91,-469.79 545.25,-456.49 509.04,-430.32 495.44,-420.48 476.13,-381.92 463.35,-353.88"/>
<polygon fill="red" stroke="red" stroke-width="0.13" points="466.66,-352.69 459.37,-345.01 460.27,-355.56 466.66,-352.69"/>
</g>
<!-- &#45;11&#45;&gt;2274 -->
<g id="edge16" class="edge">
<title>&#45;11&#45;&gt;2274</title>
<path fill="none" stroke="red" stroke-width="0.54" d="M744.29,-465.99C740.05,-445.31 729.08,-391.74 721.85,-356.42"/>
<polygon fill="red" stroke="red" stroke-width="0.54" points="725.33,-356 719.9,-346.9 718.47,-357.4 725.33,-356"/>
</g>
<!-- &#45;11&#45;&gt;2275 -->
<g id="edge11" class="edge">
<title>&#45;11&#45;&gt;2275</title>
<path fill="none" stroke="green" stroke-width="0.36" d="M731.76,-474.11C662.93,-471.78 367.72,-460.07 341.04,-430.32 282.3,-364.81 346.35,-253.01 381.77,-201.53"/>
<polygon fill="green" stroke="green" stroke-width="0.36" points="384.61,-203.58 387.49,-193.39 378.88,-199.56 384.61,-203.58"/>
</g>
<!-- 2627 -->
<g id="node30" class="node">
<title>2627</title>
<ellipse fill="white" stroke="black" cx="798.04" cy="-406.27" rx="24.04" ry="24.04"/>
<text text-anchor="middle" x="798.04" y="-402.97" font-family="Times,serif" font-size="9.00">2627</text>
</g>
<!-- &#45;11&#45;&gt;2627 -->
<g id="edge49" class="edge">
<title>&#45;11&#45;&gt;2627</title>
<path fill="none" stroke="green" stroke-width="0.27" stroke-dasharray="1,5" d="M752.63,-466.04C758.87,-457.96 768.59,-445.39 777.44,-433.94"/>
<polygon fill="green" stroke="green" stroke-width="0.27" points="780.07,-436.25 783.42,-426.2 774.53,-431.97 780.07,-436.25"/>
</g>
<!-- &#45;12 -->
<g id="node12" class="node">
<title>&#45;12</title>
<polygon fill="lightgray" stroke="black" points="462.04,-415.52 434.04,-415.52 434.04,-397.02 462.04,-397.02 462.04,-415.52"/>
<text text-anchor="middle" x="448.04" y="-402.97" font-family="Times,serif" font-size="9.00">&#45;12</text>
</g>
<!-- &#45;12&#45;&gt;2273 -->
<g id="edge17" class="edge">
<title>&#45;12&#45;&gt;2273</title>
<path fill="none" stroke="green" stroke-width="0.13" stroke-dasharray="1,5" d="M448.25,-396.8C448.48,-387.28 448.87,-371.24 449.23,-356.56"/>
<polygon fill="green" stroke="green" stroke-width="0.13" points="452.72,-356.99 449.46,-346.91 445.72,-356.82 452.72,-356.99"/>
</g>
<!-- &#45;13 -->
<g id="node13" class="node">
<title>&#45;13</title>
<polygon fill="lightgray" stroke="black" points="294.04,-415.52 266.04,-415.52 266.04,-397.02 294.04,-397.02 294.04,-415.52"/>
<text text-anchor="middle" x="280.04" y="-402.97" font-family="Times,serif" font-size="9.00">&#45;13</text>
</g>
<!-- 4 -->
<g id="node25" class="node">
<title>4</title>
<ellipse fill="lightblue" stroke="black" cx="190.04" cy="-89.03" rx="14.5" ry="14.5"/>
<text text-anchor="middle" x="190.04" y="-85.73" font-family="Times,serif" font-size="9.00">4</text>
</g>
<!-- &#45;13&#45;&gt;4 -->
<g id="edge60" class="edge">
<title>&#45;13&#45;&gt;4</title>
<path fill="none" stroke="red" stroke-width="0.38" stroke-dasharray="1,5" d="M265.84,-399.72C238.81,-388.83 181.72,-364.17 171.04,-346.23 125.95,-270.53 161.77,-159.09 180.47,-112.16"/>
<polygon fill="red" stroke="red" stroke-width="0.38" points="183.59,-113.77 184.16,-103.19 177.12,-111.11 183.59,-113.77"/>
</g>
<!-- &#45;13&#45;&gt;2272 -->
<g id="edge5" class="edge">
<title>&#45;13&#45;&gt;2272</title>
<path fill="none" stroke="red" stroke-width="0.14" stroke-dasharray="1,5" d="M279.01,-396.8C277.84,-387.21 275.87,-371.02 274.07,-356.25"/>
<polygon fill="red" stroke="red" stroke-width="0.14" points="277.57,-356.06 272.89,-346.56 270.62,-356.91 277.57,-356.06"/>
</g>
<!-- &#45;13&#45;&gt;2274 -->
<g id="edge36" class="edge">
<title>&#45;13&#45;&gt;2274</title>
<path fill="none" stroke="red" stroke-width="0.43" stroke-dasharray="1,5" d="M294.31,-398.93C306.51,-393.74 324.63,-386.58 341.04,-382.23 463.84,-349.72 614.35,-332.65 680.77,-326.23"/>
<polygon fill="red" stroke="red" stroke-width="0.43" points="680.79,-329.75 690.42,-325.32 680.13,-322.78 680.79,-329.75"/>
</g>
<!-- &#45;14 -->
<g id="node14" class="node">
<title>&#45;14</title>
<polygon fill="lightgray" stroke="black" points="589.04,-256.9 561.04,-256.9 561.04,-238.4 589.04,-238.4 589.04,-256.9"/>
<text text-anchor="middle" x="575.04" y="-244.35" font-family="Times,serif" font-size="9.00">&#45;14</text>
</g>
<!-- &#45;14&#45;&gt;2275 -->
<g id="edge28" class="edge">
<title>&#45;14&#45;&gt;2275</title>
<path fill="none" stroke="green" stroke-width="0.2" stroke-dasharray="1,5" d="M560.59,-239.48C556.26,-237.38 551.48,-235.13 547.04,-233.16 508.43,-216.01 463.25,-197.92 433.72,-186.35"/>
<polygon fill="green" stroke="green" stroke-width="0.2" points="435.2,-183.18 424.62,-182.8 432.66,-189.7 435.2,-183.18"/>
</g>
<!-- &#45;15 -->
<g id="node15" class="node">
<title>&#45;15</title>
<polygon fill="lightgray" stroke="black" points="588.04,-415.52 560.04,-415.52 560.04,-397.02 588.04,-397.02 588.04,-415.52"/>
<text text-anchor="middle" x="574.04" y="-402.97" font-family="Times,serif" font-size="9.00">&#45;15</text>
</g>
<!-- &#45;15&#45;&gt;2272 -->
<g id="edge37" class="edge">
<title>&#45;15&#45;&gt;2272</title>
<path fill="none" stroke="red" stroke-width="0.22" stroke-dasharray="1,5" d="M567.7,-396.8C563.51,-391.8 557.6,-385.79 551.04,-382.23 508.59,-359.22 369.49,-337.23 304.31,-327.89"/>
<polygon fill="red" stroke="red" stroke-width="0.22" points="304.87,-324.43 294.48,-326.5 303.89,-331.36 304.87,-324.43"/>
</g>
<!-- &#45;15&#45;&gt;2274 -->
<g id="edge7" class="edge">
<title>&#45;15&#45;&gt;2274</title>
<path fill="none" stroke="red" stroke-width="0.3" stroke-dasharray="1,5" d="M581.08,-396.84C585.34,-392.11 591.09,-386.34 597.04,-382.23 629.12,-360.07 642.53,-364.37 677.04,-346.23 680.05,-344.65 683.14,-342.94 686.21,-341.17"/>
<polygon fill="red" stroke="red" stroke-width="0.3" points="687.98,-344.19 694.8,-336.09 684.41,-338.17 687.98,-344.19"/>
</g>
<!-- &#45;16 -->
<g id="node16" class="node">
<title>&#45;16</title>
<polygon fill="lightgray" stroke="black" points="948.04,-415.52 920.04,-415.52 920.04,-397.02 948.04,-397.02 948.04,-415.52"/>
<text text-anchor="middle" x="934.04" y="-402.97" font-family="Times,serif" font-size="9.00">&#45;16</text>
</g>
<!-- &#45;16&#45;&gt;1 -->
<g id="edge57" class="edge">
<title>&#45;16&#45;&gt;1</title>
<path fill="none" stroke="green" stroke-width="0.31" d="M923.08,-396.74C895.5,-375.8 820.27,-321.84 748.04,-298.15 611.21,-253.27 563.1,-306.32 426.04,-262.15 425,-261.81 423.94,-261.43 422.89,-261"/>
<polygon fill="green" stroke="green" stroke-width="0.31" points="424.75,-258.02 414.23,-256.72 421.64,-264.29 424.75,-258.02"/>
</g>
<!-- &#45;16&#45;&gt;2274 -->
<g id="edge12" class="edge">
<title>&#45;16&#45;&gt;2274</title>
<path fill="none" stroke="red" stroke-width="0.42" stroke-dasharray="1,5" d="M925.36,-396.62C920.14,-391.82 913.14,-386.05 906.04,-382.23 854.79,-354.62 788.71,-337.85 749.23,-329.56"/>
<polygon fill="red" stroke="red" stroke-width="0.42" points="749.96,-326.14 739.46,-327.57 748.56,-333 749.96,-326.14"/>
</g>
<!-- &#45;17 -->
<g id="node17" class="node">
<title>&#45;17</title>
<polygon fill="lightgray" stroke="black" points="158.04,-484.82 130.04,-484.82 130.04,-466.32 158.04,-466.32 158.04,-484.82"/>
<text text-anchor="middle" x="144.04" y="-472.27" font-family="Times,serif" font-size="9.00">&#45;17</text>
</g>
<!-- &#45;17&#45;&gt;2272 -->
<g id="edge14" class="edge">
<title>&#45;17&#45;&gt;2272</title>
<path fill="none" stroke="red" stroke-width="0.12" d="M158.46,-469.12C174.95,-462.26 201.9,-449.05 219.04,-430.32 238.87,-408.64 252.44,-377.87 260.56,-354.86"/>
<polygon fill="red" stroke="red" stroke-width="0.12" points="263.77,-356.29 263.66,-345.69 257.14,-354.05 263.77,-356.29"/>
</g>
<!-- &#45;17&#45;&gt;2275 -->
<g id="edge19" class="edge">
<title>&#45;17&#45;&gt;2275</title>
<path fill="none" stroke="green" stroke-width="0.49" d="M135.02,-466.08C126.97,-457.83 115.75,-444.51 111.04,-430.32 104.31,-410.03 104.52,-402.58 111.04,-382.23 125.04,-338.51 140.03,-332 171.04,-298.15 201.06,-265.38 208.82,-255.84 247.04,-233.16 286.08,-209.98 335.83,-192.96 368.29,-183.3"/>
<polygon fill="green" stroke="green" stroke-width="0.49" points="369.25,-186.66 377.87,-180.52 367.29,-179.94 369.25,-186.66"/>
</g>
<!-- 3016 -->
<g id="node31" class="node">
<title>3016</title>
<ellipse fill="white" stroke="black" cx="144.04" cy="-406.27" rx="24.04" ry="24.04"/>
<text text-anchor="middle" x="144.04" y="-402.97" font-family="Times,serif" font-size="9.00">3016</text>
</g>
<!-- &#45;17&#45;&gt;3016 -->
<g id="edge58" class="edge">
<title>&#45;17&#45;&gt;3016</title>
<path fill="none" stroke="green" stroke-width="0.38" d="M144.04,-466.04C144.04,-459.62 144.04,-450.36 144.04,-441.08"/>
<polygon fill="green" stroke="green" stroke-width="0.38" points="147.54,-441.32 144.04,-431.32 140.54,-441.32 147.54,-441.32"/>
</g>
<!-- &#45;18 -->
<g id="node18" class="node">
<title>&#45;18</title>
<polygon fill="lightgray" stroke="black" points="64.04,-415.52 36.04,-415.52 36.04,-397.02 64.04,-397.02 64.04,-415.52"/>
<text text-anchor="middle" x="50.04" y="-402.97" font-family="Times,serif" font-size="9.00">&#45;18</text>
</g>
<!-- &#45;18&#45;&gt;2 -->
<g id="edge45" class="edge">
<title>&#45;18&#45;&gt;2</title>
<path fill="none" stroke="green" stroke-width="0.95" d="M52.53,-396.53C59.04,-372.9 76.04,-305.71 76.04,-248.65 76.04,-248.65 76.04,-248.65 76.04,-172.12 76.04,-58.4 256.12,-26.13 324.3,-17.98"/>
<polygon fill="green" stroke="green" stroke-width="0.95" points="324.33,-21.5 333.89,-16.92 323.56,-14.54 324.33,-21.5"/>
</g>
<!-- &#45;18&#45;&gt;2272 -->
<g id="edge38" class="edge">
<title>&#45;18&#45;&gt;2272</title>
<path fill="none" stroke="green" stroke-width="0.11" d="M64.46,-399.44C76.75,-394.56 94.92,-387.57 111.04,-382.23 166.33,-363.93 184.45,-371.25 237.04,-346.23 239.04,-345.28 241.05,-344.21 243.04,-343.07"/>
<polygon fill="green" stroke="green" stroke-width="0.11" points="244.78,-346.11 251.36,-337.81 241.04,-340.2 244.78,-346.11"/>
</g>
<!-- 2545 -->
<g id="node32" class="node">
<title>2545</title>
<ellipse fill="white" stroke="black" cx="24.04" cy="-173.12" rx="24.04" ry="24.04"/>
<text text-anchor="middle" x="24.04" y="-169.82" font-family="Times,serif" font-size="9.00">2545</text>
</g>
<!-- &#45;18&#45;&gt;2545 -->
<g id="edge46" class="edge">
<title>&#45;18&#45;&gt;2545</title>
<path fill="none" stroke="green" stroke-width="0.24" stroke-dasharray="1,5" d="M49.09,-396.77C45.67,-366.38 33.93,-262.03 27.82,-207.67"/>
<polygon fill="green" stroke="green" stroke-width="0.24" points="31.31,-207.4 26.71,-197.86 24.35,-208.19 31.31,-207.4"/>
</g>
<!-- &#45;19 -->
<g id="node19" class="node">
<title>&#45;19</title>
<polygon fill="lightgray" stroke="black" points="859.04,-484.82 831.04,-484.82 831.04,-466.32 859.04,-466.32 859.04,-484.82"/>
<text text-anchor="middle" x="845.04" y="-472.27" font-family="Times,serif" font-size="9.00">&#45;19</text>
</g>
<!-- &#45;19&#45;&gt;2274 -->
<g id="edge3" class="edge">
<title>&#45;19&#45;&gt;2274</title>
<path fill="none" stroke="green" stroke-width="0.14" stroke-dasharray="1,5" d="M852.23,-465.91C865.67,-448.6 891.66,-409.07 873.04,-382.23 845.27,-342.21 786.87,-329.27 749.38,-325.12"/>
<polygon fill="green" stroke="green" stroke-width="0.14" points="749.9,-321.65 739.61,-324.18 749.24,-328.62 749.9,-321.65"/>
</g>
<!-- &#45;19&#45;&gt;2627 -->
<g id="edge52" class="edge">
<title>&#45;19&#45;&gt;2627</title>
<path fill="none" stroke="green" stroke-width="0.22" stroke-dasharray="1,5" d="M839.09,-466.04C833.58,-458.15 825.07,-445.98 817.23,-434.75"/>
<polygon fill="green" stroke="green" stroke-width="0.22" points="820.21,-432.91 811.62,-426.71 814.47,-436.91 820.21,-432.91"/>
</g>
<!-- &#45;20 -->
<g id="node20" class="node">
<title>&#45;20</title>
<polygon fill="lightgray" stroke="black" points="635.04,-256.9 607.04,-256.9 607.04,-238.4 635.04,-238.4 635.04,-256.9"/>
<text text-anchor="middle" x="621.04" y="-244.35" font-family="Times,serif" font-size="9.00">&#45;20</text>
</g>
<!-- &#45;20&#45;&gt;2275 -->
<g id="edge10" class="edge">
<title>&#45;20&#45;&gt;2275</title>
<path fill="none" stroke="green" stroke-width="0.27" d="M607.7,-238.11C604.6,-236.33 601.27,-234.57 598.04,-233.16 543.03,-209.14 475.29,-191.12 435.56,-181.63"/>
<polygon fill="green" stroke="green" stroke-width="0.27" points="436.55,-178.27 426.02,-179.39 434.95,-185.08 436.55,-178.27"/>
</g>
<!-- 0 -->
<g id="node21" class="node">
<title>0</title>
<ellipse fill="lightblue" stroke="black" cx="270.04" cy="-247.65" rx="14.5" ry="14.5"/>
<text text-anchor="middle" x="270.04" y="-244.35" font-family="Times,serif" font-size="9.00">0</text>
</g>
<!-- 1&#45;&gt;2275 -->
<g id="edge44" class="edge">
<title>1&#45;&gt;2275</title>
<path fill="none" stroke="red" stroke-width="0.33" d="M402.04,-232.67C402.04,-225.58 402.04,-216.65 402.04,-207.91"/>
<polygon fill="red" stroke="red" stroke-width="0.33" points="405.54,-207.98 402.04,-197.98 398.54,-207.98 405.54,-207.98"/>
</g>
<!-- 2&#45;&gt;2 -->
<g id="edge22" class="edge">
<title>2&#45;&gt;2</title>
<path fill="none" stroke="green" stroke-width="0.12" d="M360.02,-25.19C370.6,-31.89 382.54,-28.33 382.54,-14.5 382.54,-4.77 376.64,-0.12 369.46,-0.55"/>
<polygon fill="green" stroke="green" stroke-width="0.12" points="368.51,2.83 360.2,-3.74 370.8,-3.79 368.51,2.83"/>
</g>
<!-- 2272&#45;&gt;0 -->
<g id="edge2" class="edge">
<title>2272&#45;&gt;0</title>
<path fill="none" stroke="green" stroke-width="0.34" d="M270.04,-297.84C270.04,-289.75 270.04,-280.68 270.04,-272.55"/>
<polygon fill="green" stroke="green" stroke-width="0.34" points="273.54,-272.75 270.04,-262.75 266.54,-272.75 273.54,-272.75"/>
</g>
<!-- 2272&#45;&gt;1 -->
<g id="edge1" class="edge">
<title>2272&#45;&gt;1</title>
<path fill="none" stroke="red" stroke-width="0.14" d="M290.96,-309.7C315.47,-296.23 355.89,-274.02 380.62,-260.43"/>
<polygon fill="red" stroke="red" stroke-width="0.14" points="382.3,-263.5 389.38,-255.61 378.93,-257.36 382.3,-263.5"/>
</g>
<!-- 2272&#45;&gt;4 -->
<g id="edge56" class="edge">
<title>2272&#45;&gt;4</title>
<path fill="none" stroke="green" stroke-width="0.44" stroke-dasharray="1,5" d="M261.25,-299.42C256.85,-288.32 251.51,-274.57 247.04,-262.15 227.97,-209.2 207.74,-146.26 197.27,-113.11"/>
<polygon fill="green" stroke="green" stroke-width="0.44" points="200.65,-112.19 194.31,-103.71 193.97,-114.29 200.65,-112.19"/>
</g>
<!-- 2273&#45;&gt;0 -->
<g id="edge18" class="edge">
<title>2273&#45;&gt;0</title>
<path fill="none" stroke="red" stroke-width="0.46" d="M427.97,-312.3C393.77,-298.51 328.28,-272.12 293.35,-258.04"/>
<polygon fill="red" stroke="red" stroke-width="0.46" points="294.78,-254.85 284.2,-254.36 292.17,-261.34 294.78,-254.85"/>
</g>
<!-- 2273&#45;&gt;1 -->
<g id="edge34" class="edge">
<title>2273&#45;&gt;1</title>
<path fill="none" stroke="green" stroke-width="0.23" stroke-dasharray="1,5" d="M437.18,-301.75C430.39,-291.5 422.08,-278.93 415.24,-268.6"/>
<polygon fill="green" stroke="green" stroke-width="0.23" points="418.32,-266.91 409.88,-260.5 412.48,-270.78 418.32,-266.91"/>
</g>
<!-- 2273&#45;&gt;3 -->
<g id="edge20" class="edge">
<title>2273&#45;&gt;3</title>
<path fill="none" stroke="red" stroke-width="0.1" stroke-dasharray="1,5" d="M449.72,-297.84C449.61,-289.66 449.48,-280.48 449.37,-272.28"/>
<polygon fill="red" stroke="red" stroke-width="0.1" points="452.87,-272.34 449.23,-262.39 445.87,-272.44 452.87,-272.34"/>
</g>
<!-- 2275&#45;&gt;2 -->
<g id="edge23" class="edge">
<title>2275&#45;&gt;2</title>
<path fill="none" stroke="red" stroke-width="0.27" d="M388.93,-152.39C382.07,-141.26 374.09,-126.86 369.04,-113.07 360.13,-88.73 355.13,-59.37 352.53,-39.25"/>
<polygon fill="red" stroke="red" stroke-width="0.27" points="356.03,-39.03 351.36,-29.52 349.08,-39.86 356.03,-39.03"/>
</g>
<!-- 2275&#45;&gt;4 -->
<g id="edge41" class="edge">
<title>2275&#45;&gt;4</title>
<path fill="none" stroke="green" stroke-width="0.24" stroke-dasharray="1,5" d="M379.75,-163.49C339.28,-147.82 254.09,-114.83 213.08,-98.95"/>
<polygon fill="green" stroke="green" stroke-width="0.24" points="214.58,-95.78 203.99,-95.43 212.05,-102.31 214.58,-95.78"/>
</g>
<!-- 2275&#45;&gt;2275 -->
<g id="edge35" class="edge">
<title>2275&#45;&gt;2275</title>
<path fill="none" stroke="green" stroke-width="0.21" d="M422.37,-186.42C433.68,-188.91 444.08,-184.47 444.08,-173.12 444.08,-165.31 439.16,-160.77 432.42,-159.51"/>
<polygon fill="green" stroke="green" stroke-width="0.21" points="432.57,-156 422.68,-159.8 432.78,-163 432.57,-156"/>
</g>
<!-- 2718 -->
<g id="node33" class="node">
<title>2718</title>
<ellipse fill="white" stroke="black" cx="402.04" cy="-89.03" rx="24.04" ry="24.04"/>
<text text-anchor="middle" x="402.04" y="-85.73" font-family="Times,serif" font-size="9.00">2718</text>
</g>
<!-- 2275&#45;&gt;2718 -->
<g id="edge53" class="edge">
<title>2275&#45;&gt;2718</title>
<path fill="none" stroke="green" stroke-width="0.28" d="M402.04,-148.81C402.04,-141.02 402.04,-132.16 402.04,-123.73"/>
<polygon fill="green" stroke="green" stroke-width="0.28" points="405.54,-123.81 402.04,-113.81 398.54,-123.81 405.54,-123.81"/>
</g>
<!-- 2627&#45;&gt;2274 -->
<g id="edge50" class="edge">
<title>2627&#45;&gt;2274</title>
<path fill="none" stroke="green" stroke-width="0.16" stroke-dasharray="1,5" d="M781.25,-388.66C769.1,-376.65 752.5,-360.24 738.97,-346.85"/>
<polygon fill="green" stroke="green" stroke-width="0.16" points="741.56,-344.49 731.99,-339.95 736.64,-349.47 741.56,-344.49"/>
</g>
<!-- 3016&#45;&gt;2272 -->
<g id="edge59" class="edge">
<title>3016&#45;&gt;2272</title>
<path fill="none" stroke="red" stroke-width="0.16" d="M163.43,-391.4C167.87,-388.32 172.59,-385.12 177.04,-382.23 203.14,-365.32 210.94,-363.14 237.04,-346.23 238.85,-345.06 240.71,-343.83 242.57,-342.59"/>
<polygon fill="red" stroke="red" stroke-width="0.16" points="244.17,-345.73 250.45,-337.2 240.22,-339.95 244.17,-345.73"/>
</g>
<!-- 2545&#45;&gt;2 -->
<g id="edge47" class="edge">
<title>2545&#45;&gt;2</title>
<path fill="none" stroke="red" stroke-width="0.16" d="M25.65,-148.63C28.66,-123.94 37.29,-85.84 62.04,-64.99 101.85,-31.46 262.85,-19.88 325.21,-16.61"/>
<polygon fill="red" stroke="red" stroke-width="0.16" points="325.26,-20.11 335.08,-16.12 324.91,-13.12 325.26,-20.11"/>
</g>
<!-- 2718&#45;&gt;2 -->
<g id="edge54" class="edge">
<title>2718&#45;&gt;2</title>
<path fill="none" stroke="green" stroke-width="0.57" d="M388.38,-68.97C381.01,-58.69 371.91,-46 364.43,-35.57"/>
<polygon fill="green" stroke="green" stroke-width="0.57" points="367.29,-33.54 358.61,-27.45 361.6,-37.62 367.29,-33.54"/>
</g>
<!-- 2495 -->
<g id="node34" class="node">
<title>2495</title>
<ellipse fill="white" stroke="black" cx="204.04" cy="-322.19" rx="24.04" ry="24.04"/>
<text text-anchor="middle" x="204.04" y="-318.89" font-family="Times,serif" font-size="9.00">2495</text>
</g>
<!-- 2495&#45;&gt;0 -->
<g id="edge43" class="edge">
<title>2495&#45;&gt;0</title>
<path fill="none" stroke="green" stroke-width="0.25" stroke-dasharray="1,5" d="M220.02,-303.63C230.21,-292.43 243.39,-277.95 253.66,-266.66"/>
<polygon fill="green" stroke="green" stroke-width="0.25" points="256.15,-269.13 260.29,-259.37 250.97,-264.42 256.15,-269.13"/>
</g>
</g>
</svg>
