<?xml version="1.0" encoding="UTF-8" standalone="no"?>
<!DOCTYPE svg PUBLIC "-//W3C//DTD SVG 1.1//EN"
 "http://www.w3.org/Graphics/SVG/1.1/DTD/svg11.dtd">
<!-- Generated by graphviz version 12.1.1 (20240910.0053)
 -->
<!-- Pages: 1 -->
<svg width="967pt" height="325pt"
 viewBox="0.00 0.00 967.25 324.65" xmlns="http://www.w3.org/2000/svg" xmlns:xlink="http://www.w3.org/1999/xlink">
<g id="graph0" class="graph" transform="scale(1 1) rotate(0) translate(4 320.65)">
<polygon fill="white" stroke="none" points="-4,4 -4,-320.65 963.25,-320.65 963.25,4 -4,4"/>
<!-- &#45;1 -->
<g id="node1" class="node">
<title>&#45;1</title>
<polygon fill="lightgray" stroke="black" points="559,-250.54 535.5,-250.54 535.5,-232.04 559,-232.04 559,-250.54"/>
<text text-anchor="middle" x="547.25" y="-237.99" font-family="Times,serif" font-size="9.00">&#45;1</text>
</g>
<!-- 165 -->
<g id="node26" class="node">
<title>165</title>
<ellipse fill="white" stroke="black" cx="199.25" cy="-163.57" rx="20.86" ry="20.86"/>
<text text-anchor="middle" x="199.25" y="-160.27" font-family="Times,serif" font-size="9.00">165</text>
</g>
<!-- &#45;1&#45;&gt;165 -->
<g id="edge32" class="edge">
<title>&#45;1&#45;&gt;165</title>
<path fill="none" stroke="green" stroke-width="0.22" stroke-dasharray="1,5" d="M540.37,-231.62C536.64,-227.54 531.69,-223.02 526.25,-220.43 415.75,-167.83 372.07,-213.73 253.25,-184.43 244.84,-182.36 235.93,-179.41 227.82,-176.42"/>
<polygon fill="green" stroke="green" stroke-width="0.22" points="229.32,-173.24 218.73,-172.92 226.8,-179.77 229.32,-173.24"/>
</g>
<!-- 166 -->
<g id="node27" class="node">
<title>166</title>
<ellipse fill="white" stroke="black" cx="753.25" cy="-163.57" rx="20.86" ry="20.86"/>
<text text-anchor="middle" x="753.25" y="-160.27" font-family="Times,serif" font-size="9.00">166</text>
</g>
<!-- &#45;1&#45;&gt;166 -->
<g id="edge9" class="edge">
<title>&#45;1&#45;&gt;166</title>
<path fill="none" stroke="red" stroke-width="0.11" stroke-dasharray="1,5" d="M554.7,-231.59C558.43,-227.7 563.21,-223.35 568.25,-220.43 617.99,-191.59 684.05,-176.33 722.28,-169.39"/>
<polygon fill="red" stroke="red" stroke-width="0.11" points="722.87,-172.84 732.12,-167.68 721.67,-165.95 722.87,-172.84"/>
</g>
<!-- &#45;2 -->
<g id="node2" class="node">
<title>&#45;2</title>
<polygon fill="lightgray" stroke="black" points="471,-250.54 447.5,-250.54 447.5,-232.04 471,-232.04 471,-250.54"/>
<text text-anchor="middle" x="459.25" y="-237.99" font-family="Times,serif" font-size="9.00">&#45;2</text>
</g>
<!-- 167 -->
<g id="node28" class="node">
<title>167</title>
<ellipse fill="white" stroke="black" cx="415.25" cy="-163.57" rx="20.86" ry="20.86"/>
<text text-anchor="middle" x="415.25" y="-160.27" font-family="Times,serif" font-size="9.00">167</text>
</g>
<!-- &#45;2&#45;&gt;167 -->
<g id="edge30" class="edge">
<title>&#45;2&#45;&gt;167</title>
<path fill="none" stroke="green" stroke-width="0.1" stroke-dasharray="1,5" d="M454.2,-231.6C448.41,-221.63 438.63,-204.81 430.32,-190.51"/>
<polygon fill="green" stroke="green" stroke-width="0.1" points="433.51,-189.04 425.46,-182.15 427.46,-192.55 433.51,-189.04"/>
</g>
<!-- &#45;3 -->
<g id="node3" class="node">
<title>&#45;3</title>
<polygon fill="lightgray" stroke="black" points="512,-172.82 488.5,-172.82 488.5,-154.32 512,-154.32 512,-172.82"/>
<text text-anchor="middle" x="500.25" y="-160.27" font-family="Times,serif" font-size="9.00">&#45;3</text>
</g>
<!-- 226 -->
<g id="node30" class="node">
<title>226</title>
<ellipse fill="white" stroke="black" cx="500.25" cy="-85.85" rx="20.86" ry="20.86"/>
<text text-anchor="middle" x="500.25" y="-82.55" font-family="Times,serif" font-size="9.00">226</text>
</g>
<!-- &#45;3&#45;&gt;226 -->
<g id="edge51" class="edge">
<title>&#45;3&#45;&gt;226</title>
<path fill="none" stroke="red" stroke-width="0.44" stroke-dasharray="1,5" d="M500.25,-153.88C500.25,-145.02 500.25,-130.75 500.25,-117.65"/>
<polygon fill="red" stroke="red" stroke-width="0.44" points="503.75,-117.73 500.25,-107.73 496.75,-117.73 503.75,-117.73"/>
</g>
<!-- &#45;4 -->
<g id="node4" class="node">
<title>&#45;4</title>
<polygon fill="lightgray" stroke="black" points="745,-250.54 721.5,-250.54 721.5,-232.04 745,-232.04 745,-250.54"/>
<text text-anchor="middle" x="733.25" y="-237.99" font-family="Times,serif" font-size="9.00">&#45;4</text>
</g>
<!-- &#45;4&#45;&gt;166 -->
<g id="edge27" class="edge">
<title>&#45;4&#45;&gt;166</title>
<path fill="none" stroke="green" stroke-width="0.2" d="M735.54,-231.6C737.96,-222.44 741.91,-207.49 745.47,-194.04"/>
<polygon fill="green" stroke="green" stroke-width="0.2" points="748.83,-195.01 748,-184.45 742.06,-193.22 748.83,-195.01"/>
</g>
<!-- &#45;4&#45;&gt;167 -->
<g id="edge2" class="edge">
<title>&#45;4&#45;&gt;167</title>
<path fill="none" stroke="red" stroke-width="0.21" d="M724.34,-231.7C719.62,-227.64 713.51,-223.11 707.25,-220.43 612.94,-180.06 579.17,-207.69 479.25,-184.43 467.83,-181.77 455.48,-178.13 444.71,-174.69"/>
<polygon fill="red" stroke="red" stroke-width="0.21" points="445.83,-171.37 435.23,-171.59 443.65,-178.02 445.83,-171.37"/>
</g>
<!-- &#45;4&#45;&gt;226 -->
<g id="edge48" class="edge">
<title>&#45;4&#45;&gt;226</title>
<path fill="none" stroke="green" stroke-width="0.28" stroke-dasharray="1,5" d="M722.26,-231.59C717.68,-228.04 712.27,-223.96 707.25,-220.43 643.92,-175.91 566.67,-127.57 526.84,-103.07"/>
<polygon fill="green" stroke="green" stroke-width="0.28" points="528.72,-100.12 518.36,-97.87 525.06,-106.08 528.72,-100.12"/>
</g>
<!-- &#45;5 -->
<g id="node5" class="node">
<title>&#45;5</title>
<polygon fill="lightgray" stroke="black" points="169,-250.54 145.5,-250.54 145.5,-232.04 169,-232.04 169,-250.54"/>
<text text-anchor="middle" x="157.25" y="-237.99" font-family="Times,serif" font-size="9.00">&#45;5</text>
</g>
<!-- 168 -->
<g id="node29" class="node">
<title>168</title>
<ellipse fill="white" stroke="black" cx="283.25" cy="-163.57" rx="20.86" ry="20.86"/>
<text text-anchor="middle" x="283.25" y="-160.27" font-family="Times,serif" font-size="9.00">168</text>
</g>
<!-- &#45;5&#45;&gt;168 -->
<g id="edge23" class="edge">
<title>&#45;5&#45;&gt;168</title>
<path fill="none" stroke="green" stroke-width="0.3" d="M165.38,-231.62C169.1,-227.92 173.69,-223.71 178.25,-220.43 202.53,-202.98 232.94,-187.39 254.78,-177.15"/>
<polygon fill="green" stroke="green" stroke-width="0.3" points="256.12,-180.39 263.74,-173.02 253.19,-174.03 256.12,-180.39"/>
</g>
<!-- &#45;6 -->
<g id="node6" class="node">
<title>&#45;6</title>
<polygon fill="lightgray" stroke="black" points="43,-250.54 19.5,-250.54 19.5,-232.04 43,-232.04 43,-250.54"/>
<text text-anchor="middle" x="31.25" y="-237.99" font-family="Times,serif" font-size="9.00">&#45;6</text>
</g>
<!-- &#45;6&#45;&gt;165 -->
<g id="edge10" class="edge">
<title>&#45;6&#45;&gt;165</title>
<path fill="none" stroke="green" stroke-width="0.17" d="M38.8,-231.74C42.54,-227.89 47.32,-223.52 52.25,-220.43 89.65,-196.97 138.46,-180.86 169.34,-172.17"/>
<polygon fill="green" stroke="green" stroke-width="0.17" points="170.11,-175.59 178.84,-169.58 168.27,-168.84 170.11,-175.59"/>
</g>
<!-- &#45;7 -->
<g id="node7" class="node">
<title>&#45;7</title>
<polygon fill="lightgray" stroke="black" points="211,-250.54 187.5,-250.54 187.5,-232.04 211,-232.04 211,-250.54"/>
<text text-anchor="middle" x="199.25" y="-237.99" font-family="Times,serif" font-size="9.00">&#45;7</text>
</g>
<!-- &#45;7&#45;&gt;165 -->
<g id="edge22" class="edge">
<title>&#45;7&#45;&gt;165</title>
<path fill="none" stroke="green" stroke-width="0.27" d="M199.25,-231.6C199.25,-222.65 199.25,-208.18 199.25,-194.97"/>
<polygon fill="green" stroke="green" stroke-width="0.27" points="202.75,-195.19 199.25,-185.19 195.75,-195.19 202.75,-195.19"/>
</g>
<!-- &#45;7&#45;&gt;167 -->
<g id="edge25" class="edge">
<title>&#45;7&#45;&gt;167</title>
<path fill="none" stroke="red" stroke-width="0.5" d="M206.68,-231.55C210.41,-227.66 215.19,-223.31 220.25,-220.43 248.42,-204.37 336.97,-182.51 384.45,-171.5"/>
<polygon fill="red" stroke="red" stroke-width="0.5" points="385.05,-174.96 394.01,-169.31 383.48,-168.14 385.05,-174.96"/>
</g>
<!-- &#45;7&#45;&gt;168 -->
<g id="edge42" class="edge">
<title>&#45;7&#45;&gt;168</title>
<path fill="none" stroke="red" stroke-width="0.41" d="M208.18,-231.72C211.89,-228.2 216.25,-224.09 220.25,-220.43 233.3,-208.48 248.1,-195.34 260.07,-184.81"/>
<polygon fill="red" stroke="red" stroke-width="0.41" points="262.17,-187.62 267.38,-178.39 257.55,-182.36 262.17,-187.62"/>
</g>
<!-- &#45;8 -->
<g id="node8" class="node">
<title>&#45;8</title>
<polygon fill="lightgray" stroke="black" points="724,-316.65 700.5,-316.65 700.5,-298.15 724,-298.15 724,-316.65"/>
<text text-anchor="middle" x="712.25" y="-304.1" font-family="Times,serif" font-size="9.00">&#45;8</text>
</g>
<!-- &#45;9 -->
<g id="node9" class="node">
<title>&#45;9</title>
<polygon fill="lightgray" stroke="black" points="253,-250.54 229.5,-250.54 229.5,-232.04 253,-232.04 253,-250.54"/>
<text text-anchor="middle" x="241.25" y="-237.99" font-family="Times,serif" font-size="9.00">&#45;9</text>
</g>
<!-- &#45;9&#45;&gt;168 -->
<g id="edge7" class="edge">
<title>&#45;9&#45;&gt;168</title>
<path fill="none" stroke="green" stroke-width="0.5" stroke-dasharray="1,5" d="M246.07,-231.6C251.46,-221.88 260.46,-205.65 268.26,-191.59"/>
<polygon fill="green" stroke="green" stroke-width="0.5" points="271.25,-193.42 273.04,-182.97 265.13,-190.02 271.25,-193.42"/>
</g>
<!-- &#45;10 -->
<g id="node10" class="node">
<title>&#45;10</title>
<polygon fill="lightgray" stroke="black" points="682.25,-316.65 654.25,-316.65 654.25,-298.15 682.25,-298.15 682.25,-316.65"/>
<text text-anchor="middle" x="668.25" y="-304.1" font-family="Times,serif" font-size="9.00">&#45;10</text>
</g>
<!-- &#45;10&#45;&gt;166 -->
<g id="edge39" class="edge">
<title>&#45;10&#45;&gt;166</title>
<path fill="none" stroke="green" stroke-width="0.26" d="M682.28,-301.1C685.22,-300.07 688.32,-299.03 691.25,-298.15 755.66,-278.77 796.73,-315.07 838.25,-262.15 849.69,-247.56 847.05,-236.75 838.25,-220.43 826.49,-198.63 802.09,-183.94 782.44,-175.13"/>
<polygon fill="green" stroke="green" stroke-width="0.26" points="783.9,-171.95 773.33,-171.3 781.19,-178.4 783.9,-171.95"/>
</g>
<!-- &#45;10&#45;&gt;167 -->
<g id="edge21" class="edge">
<title>&#45;10&#45;&gt;167</title>
<path fill="none" stroke="red" stroke-width="0.14" d="M672.29,-297.9C679.66,-281 692.91,-242.85 674.25,-220.43 617.87,-152.69 564.82,-205.53 479.25,-184.43 467.75,-181.59 455.27,-177.87 444.41,-174.42"/>
<polygon fill="red" stroke="red" stroke-width="0.14" points="445.76,-171.17 435.17,-171.42 443.6,-177.83 445.76,-171.17"/>
</g>
<!-- &#45;10&#45;&gt;168 -->
<g id="edge1" class="edge">
<title>&#45;10&#45;&gt;168</title>
<path fill="none" stroke="green" stroke-width="0.38" d="M654.09,-305.68C589.71,-302.3 326.45,-287 300.25,-262.15 282.42,-245.24 279.2,-216.82 279.83,-194.99"/>
<polygon fill="green" stroke="green" stroke-width="0.38" points="283.32,-195.34 280.4,-185.16 276.33,-194.94 283.32,-195.34"/>
</g>
<!-- 216 -->
<g id="node32" class="node">
<title>216</title>
<ellipse fill="white" stroke="black" cx="644.25" cy="-241.29" rx="20.86" ry="20.86"/>
<text text-anchor="middle" x="644.25" y="-237.99" font-family="Times,serif" font-size="9.00">216</text>
</g>
<!-- &#45;10&#45;&gt;216 -->
<g id="edge43" class="edge">
<title>&#45;10&#45;&gt;216</title>
<path fill="none" stroke="red" stroke-width="0.49" stroke-dasharray="1,5" d="M665.01,-297.75C662.43,-290.85 658.66,-280.77 655.03,-271.09"/>
<polygon fill="red" stroke="red" stroke-width="0.49" points="658.41,-270.13 651.63,-262 651.85,-272.59 658.41,-270.13"/>
</g>
<!-- &#45;11 -->
<g id="node11" class="node">
<title>&#45;11</title>
<polygon fill="lightgray" stroke="black" points="396.25,-316.65 368.25,-316.65 368.25,-298.15 396.25,-298.15 396.25,-316.65"/>
<text text-anchor="middle" x="382.25" y="-304.1" font-family="Times,serif" font-size="9.00">&#45;11</text>
</g>
<!-- &#45;11&#45;&gt;165 -->
<g id="edge12" class="edge">
<title>&#45;11&#45;&gt;165</title>
<path fill="none" stroke="green" stroke-width="0.49" stroke-dasharray="1,5" d="M367.84,-305.79C302.3,-302.9 34.49,-289.44 10.25,-262.15 -38.55,-207.21 102.71,-178.72 168.04,-168.76"/>
<polygon fill="green" stroke="green" stroke-width="0.49" points="168.44,-172.24 177.83,-167.32 167.42,-165.31 168.44,-172.24"/>
</g>
<!-- &#45;11&#45;&gt;166 -->
<g id="edge33" class="edge">
<title>&#45;11&#45;&gt;166</title>
<path fill="none" stroke="red" stroke-width="0.15" stroke-dasharray="1,5" d="M396.66,-305.79C462.2,-302.9 730.01,-289.44 754.25,-262.15 770.56,-243.78 768.07,-214.9 762.85,-193.32"/>
<polygon fill="red" stroke="red" stroke-width="0.15" points="766.29,-192.63 760.28,-183.91 759.53,-194.47 766.29,-192.63"/>
</g>
<!-- &#45;11&#45;&gt;168 -->
<g id="edge41" class="edge">
<title>&#45;11&#45;&gt;168</title>
<path fill="none" stroke="green" stroke-width="0.4" stroke-dasharray="1,5" d="M367.98,-306.12C320.06,-304.86 166.24,-298.02 136.25,-262.15 124.35,-247.92 125.72,-235.69 136.25,-220.43 137.13,-219.15 211.05,-191.46 253.72,-175.56"/>
<polygon fill="green" stroke="green" stroke-width="0.4" points="254.85,-178.87 263,-172.1 252.41,-172.31 254.85,-178.87"/>
</g>
<!-- &#45;11&#45;&gt;216 -->
<g id="edge47" class="edge">
<title>&#45;11&#45;&gt;216</title>
<path fill="none" stroke="red" stroke-width="0.57" d="M396.66,-305.62C433.96,-303.2 536.21,-293.92 614.25,-262.15 615.7,-261.56 617.14,-260.9 618.58,-260.18"/>
<polygon fill="red" stroke="red" stroke-width="0.57" points="620.12,-263.34 627.02,-255.3 616.61,-257.28 620.12,-263.34"/>
</g>
<!-- &#45;12 -->
<g id="node12" class="node">
<title>&#45;12</title>
<polygon fill="lightgray" stroke="black" points="337.25,-250.54 309.25,-250.54 309.25,-232.04 337.25,-232.04 337.25,-250.54"/>
<text text-anchor="middle" x="323.25" y="-237.99" font-family="Times,serif" font-size="9.00">&#45;12</text>
</g>
<!-- &#45;12&#45;&gt;165 -->
<g id="edge11" class="edge">
<title>&#45;12&#45;&gt;165</title>
<path fill="none" stroke="red" stroke-width="0.27" stroke-dasharray="1,5" d="M309.02,-231.6C288.74,-219.22 251.15,-196.26 225.67,-180.7"/>
<polygon fill="red" stroke="red" stroke-width="0.27" points="227.59,-177.78 217.23,-175.55 223.94,-183.75 227.59,-177.78"/>
</g>
<!-- &#45;12&#45;&gt;167 -->
<g id="edge31" class="edge">
<title>&#45;12&#45;&gt;167</title>
<path fill="none" stroke="green" stroke-width="0.3" stroke-dasharray="1,5" d="M333.04,-231.72C337.1,-228.19 341.88,-224.08 346.25,-220.43 361.13,-207.99 378.06,-194.27 391.43,-183.55"/>
<polygon fill="green" stroke="green" stroke-width="0.3" points="393.26,-186.56 398.88,-177.58 388.89,-181.1 393.26,-186.56"/>
</g>
<!-- &#45;12&#45;&gt;168 -->
<g id="edge4" class="edge">
<title>&#45;12&#45;&gt;168</title>
<path fill="none" stroke="red" stroke-width="0.2" d="M318.66,-231.6C313.51,-221.85 304.9,-205.55 297.46,-191.47"/>
<polygon fill="red" stroke="red" stroke-width="0.2" points="300.69,-190.09 292.92,-182.88 294.5,-193.36 300.69,-190.09"/>
</g>
<!-- &#45;13 -->
<g id="node13" class="node">
<title>&#45;13</title>
<polygon fill="lightgray" stroke="black" points="913.25,-250.54 885.25,-250.54 885.25,-232.04 913.25,-232.04 913.25,-250.54"/>
<text text-anchor="middle" x="899.25" y="-237.99" font-family="Times,serif" font-size="9.00">&#45;13</text>
</g>
<!-- &#45;13&#45;&gt;166 -->
<g id="edge16" class="edge">
<title>&#45;13&#45;&gt;166</title>
<path fill="none" stroke="red" stroke-width="0.59" d="M888.11,-231.71C883.09,-228.02 877.01,-223.8 871.25,-220.43 841.98,-203.3 806.61,-187.11 782.28,-176.62"/>
<polygon fill="red" stroke="red" stroke-width="0.59" points="783.97,-173.53 773.4,-172.83 781.22,-179.97 783.97,-173.53"/>
</g>
<!-- &#45;14 -->
<g id="node14" class="node">
<title>&#45;14</title>
<polygon fill="lightgray" stroke="black" points="383.25,-250.54 355.25,-250.54 355.25,-232.04 383.25,-232.04 383.25,-250.54"/>
<text text-anchor="middle" x="369.25" y="-237.99" font-family="Times,serif" font-size="9.00">&#45;14</text>
</g>
<!-- &#45;14&#45;&gt;167 -->
<g id="edge24" class="edge">
<title>&#45;14&#45;&gt;167</title>
<path fill="none" stroke="red" stroke-width="0.12" d="M374.53,-231.6C380.58,-221.63 390.8,-204.81 399.49,-190.51"/>
<polygon fill="red" stroke="red" stroke-width="0.12" points="402.35,-192.54 404.55,-182.18 396.37,-188.91 402.35,-192.54"/>
</g>
<!-- &#45;14&#45;&gt;168 -->
<g id="edge14" class="edge">
<title>&#45;14&#45;&gt;168</title>
<path fill="none" stroke="red" stroke-width="0.18" stroke-dasharray="1,5" d="M359.38,-231.6C346.45,-220.22 323.37,-199.9 306.01,-184.61"/>
<polygon fill="red" stroke="red" stroke-width="0.18" points="308.51,-182.15 298.69,-178.17 303.88,-187.4 308.51,-182.15"/>
</g>
<!-- &#45;15 -->
<g id="node15" class="node">
<title>&#45;15</title>
<polygon fill="lightgray" stroke="black" points="605.25,-250.54 577.25,-250.54 577.25,-232.04 605.25,-232.04 605.25,-250.54"/>
<text text-anchor="middle" x="591.25" y="-237.99" font-family="Times,serif" font-size="9.00">&#45;15</text>
</g>
<!-- &#45;15&#45;&gt;166 -->
<g id="edge15" class="edge">
<title>&#45;15&#45;&gt;166</title>
<path fill="none" stroke="green" stroke-width="0.14" d="M599.67,-231.82C603.81,-227.99 609.02,-223.61 614.25,-220.43 649.61,-198.88 694.76,-182.53 723.84,-173.25"/>
<polygon fill="green" stroke="green" stroke-width="0.14" points="724.7,-176.64 733.2,-170.32 722.62,-169.96 724.7,-176.64"/>
</g>
<!-- &#45;15&#45;&gt;168 -->
<g id="edge28" class="edge">
<title>&#45;15&#45;&gt;168</title>
<path fill="none" stroke="green" stroke-width="0.49" d="M583.49,-231.78C579.35,-227.74 573.94,-223.2 568.25,-220.43 567.53,-220.08 387.77,-184.97 314.15,-170.6"/>
<polygon fill="green" stroke="green" stroke-width="0.49" points="314.9,-167.18 304.42,-168.7 313.56,-174.05 314.9,-167.18"/>
</g>
<!-- &#45;16 -->
<g id="node16" class="node">
<title>&#45;16</title>
<polygon fill="lightgray" stroke="black" points="959.25,-250.54 931.25,-250.54 931.25,-232.04 959.25,-232.04 959.25,-250.54"/>
<text text-anchor="middle" x="945.25" y="-237.99" font-family="Times,serif" font-size="9.00">&#45;16</text>
</g>
<!-- &#45;16&#45;&gt;166 -->
<g id="edge38" class="edge">
<title>&#45;16&#45;&gt;166</title>
<path fill="none" stroke="green" stroke-width="0.11" d="M936.91,-231.68C932.79,-227.81 927.57,-223.45 922.25,-220.43 877.11,-194.84 818.47,-178.79 783.47,-170.77"/>
<polygon fill="green" stroke="green" stroke-width="0.11" points="784.51,-167.42 773.99,-168.67 783,-174.25 784.51,-167.42"/>
</g>
<!-- &#45;17 -->
<g id="node17" class="node">
<title>&#45;17</title>
<polygon fill="lightgray" stroke="black" points="429.25,-250.54 401.25,-250.54 401.25,-232.04 429.25,-232.04 429.25,-250.54"/>
<text text-anchor="middle" x="415.25" y="-237.99" font-family="Times,serif" font-size="9.00">&#45;17</text>
</g>
<!-- &#45;17&#45;&gt;167 -->
<g id="edge3" class="edge">
<title>&#45;17&#45;&gt;167</title>
<path fill="none" stroke="green" stroke-width="0.72" d="M415.25,-231.6C415.25,-222.83 415.25,-208.75 415.25,-195.76"/>
<polygon fill="green" stroke="green" stroke-width="0.72" points="418.75,-195.88 415.25,-185.88 411.75,-195.88 418.75,-195.88"/>
</g>
<!-- &#45;17&#45;&gt;168 -->
<g id="edge37" class="edge">
<title>&#45;17&#45;&gt;168</title>
<path fill="none" stroke="green" stroke-width="0.17" d="M406.26,-231.64C402.16,-227.95 397.15,-223.73 392.25,-220.43 366.33,-202.96 334.23,-187.14 311.6,-176.83"/>
<polygon fill="green" stroke="green" stroke-width="0.17" points="313.32,-173.76 302.76,-172.86 310.46,-180.15 313.32,-173.76"/>
</g>
<!-- &#45;18 -->
<g id="node18" class="node">
<title>&#45;18</title>
<polygon fill="lightgray" stroke="black" points="829.25,-250.54 801.25,-250.54 801.25,-232.04 829.25,-232.04 829.25,-250.54"/>
<text text-anchor="middle" x="815.25" y="-237.99" font-family="Times,serif" font-size="9.00">&#45;18</text>
</g>
<!-- &#45;18&#45;&gt;166 -->
<g id="edge29" class="edge">
<title>&#45;18&#45;&gt;166</title>
<path fill="none" stroke="red" stroke-width="0.46" d="M808.14,-231.6C799.57,-221.15 784.85,-203.16 772.8,-188.45"/>
<polygon fill="red" stroke="red" stroke-width="0.46" points="775.57,-186.3 766.52,-180.78 770.15,-190.74 775.57,-186.3"/>
</g>
<!-- &#45;19 -->
<g id="node19" class="node">
<title>&#45;19</title>
<polygon fill="lightgray" stroke="black" points="517.25,-250.54 489.25,-250.54 489.25,-232.04 517.25,-232.04 517.25,-250.54"/>
<text text-anchor="middle" x="503.25" y="-237.99" font-family="Times,serif" font-size="9.00">&#45;19</text>
</g>
<!-- &#45;19&#45;&gt;165 -->
<g id="edge8" class="edge">
<title>&#45;19&#45;&gt;165</title>
<path fill="none" stroke="green" stroke-width="0.27" d="M495.53,-231.69C491.4,-227.63 485.99,-223.1 480.25,-220.43 387.6,-177.4 352.1,-210.18 253.25,-184.43 244.96,-182.27 236.16,-179.33 228.12,-176.37"/>
<polygon fill="green" stroke="green" stroke-width="0.27" points="229.42,-173.12 218.83,-172.82 226.92,-179.66 229.42,-173.12"/>
</g>
<!-- &#45;19&#45;&gt;166 -->
<g id="edge6" class="edge">
<title>&#45;19&#45;&gt;166</title>
<path fill="none" stroke="green" stroke-width="0.24" d="M511.06,-231.89C515.22,-227.88 520.62,-223.34 526.25,-220.43 591.18,-186.89 677.07,-172.9 722.32,-167.55"/>
<polygon fill="green" stroke="green" stroke-width="0.24" points="722.47,-171.05 732.02,-166.46 721.69,-164.1 722.47,-171.05"/>
</g>
<!-- &#45;20 -->
<g id="node20" class="node">
<title>&#45;20</title>
<polygon fill="lightgray" stroke="black" points="89.25,-250.54 61.25,-250.54 61.25,-232.04 89.25,-232.04 89.25,-250.54"/>
<text text-anchor="middle" x="75.25" y="-237.99" font-family="Times,serif" font-size="9.00">&#45;20</text>
</g>
<!-- &#45;20&#45;&gt;165 -->
<g id="edge13" class="edge">
<title>&#45;20&#45;&gt;165</title>
<path fill="none" stroke="green" stroke-width="0.26" stroke-dasharray="1,5" d="M87.08,-231.54C92.01,-227.99 97.84,-223.91 103.25,-220.43 126.1,-205.72 152.89,-190.28 172.35,-179.37"/>
<polygon fill="green" stroke="green" stroke-width="0.26" points="173.89,-182.52 180.92,-174.59 170.48,-176.4 173.89,-182.52"/>
</g>
<!-- &#45;20&#45;&gt;168 -->
<g id="edge17" class="edge">
<title>&#45;20&#45;&gt;168</title>
<path fill="none" stroke="green" stroke-width="0.23" d="M85.62,-231.65C90.68,-227.78 97.02,-223.42 103.25,-220.43 155.75,-195.22 173.88,-202.49 229.25,-184.43 237.39,-181.77 246.14,-178.67 254.18,-175.71"/>
<polygon fill="green" stroke="green" stroke-width="0.23" points="255.4,-178.99 263.54,-172.22 252.95,-172.43 255.4,-178.99"/>
</g>
<!-- 0 -->
<g id="node21" class="node">
<title>0</title>
<ellipse fill="lightblue" stroke="black" cx="285.25" cy="-85.85" rx="14.5" ry="14.5"/>
<text text-anchor="middle" x="285.25" y="-82.55" font-family="Times,serif" font-size="9.00">0</text>
</g>
<!-- 0&#45;&gt;0 -->
<g id="edge34" class="edge">
<title>0&#45;&gt;0</title>
<path fill="none" stroke="green" stroke-width="0.26" d="M295.56,-96.29C306.06,-102.43 317.74,-98.95 317.74,-85.85 317.74,-76.84 312.22,-72.39 305.36,-72.47"/>
<polygon fill="green" stroke="green" stroke-width="0.26" points="304.51,-69.07 295.93,-75.3 306.52,-75.78 304.51,-69.07"/>
</g>
<!-- 1 -->
<g id="node22" class="node">
<title>1</title>
<ellipse fill="lightblue" stroke="black" cx="238.25" cy="-85.85" rx="14.5" ry="14.5"/>
<text text-anchor="middle" x="238.25" y="-82.55" font-family="Times,serif" font-size="9.00">1</text>
</g>
<!-- 2 -->
<g id="node23" class="node">
<title>2</title>
<ellipse fill="lightblue" stroke="black" cx="392.25" cy="-14.5" rx="14.5" ry="14.5"/>
<text text-anchor="middle" x="392.25" y="-11.2" font-family="Times,serif" font-size="9.00">2</text>
</g>
<!-- 2&#45;&gt;2 -->
<g id="edge20" class="edge">
<title>2&#45;&gt;2</title>
<path fill="none" stroke="green" stroke-width="0.35" d="M402.56,-24.94C413.06,-31.08 424.74,-27.6 424.74,-14.5 424.74,-5.49 419.22,-1.03 412.36,-1.12"/>
<polygon fill="green" stroke="green" stroke-width="0.35" points="411.65,2.32 403.07,-3.9 413.66,-4.38 411.65,2.32"/>
</g>
<!-- 3 -->
<g id="node24" class="node">
<title>3</title>
<ellipse fill="lightblue" stroke="black" cx="753.25" cy="-85.85" rx="14.5" ry="14.5"/>
<text text-anchor="middle" x="753.25" y="-82.55" font-family="Times,serif" font-size="9.00">3</text>
</g>
<!-- 4 -->
<g id="node25" class="node">
<title>4</title>
<ellipse fill="lightblue" stroke="black" cx="387.25" cy="-85.85" rx="14.5" ry="14.5"/>
<text text-anchor="middle" x="387.25" y="-82.55" font-family="Times,serif" font-size="9.00">4</text>
</g>
<!-- 165&#45;&gt;1 -->
<g id="edge26" class="edge">
<title>165&#45;&gt;1</title>
<path fill="none" stroke="red" stroke-width="0.6" stroke-dasharray="1,5" d="M208.49,-144.63C214.01,-133.91 221.06,-120.22 226.91,-108.86"/>
<polygon fill="red" stroke="red" stroke-width="0.6" points="229.99,-110.53 231.46,-100.04 223.77,-107.33 229.99,-110.53"/>
</g>
<!-- 165&#45;&gt;2 -->
<g id="edge40" class="edge">
<title>165&#45;&gt;2</title>
<path fill="none" stroke="green" stroke-width="0.13" d="M196.74,-142.74C195.15,-120.95 196.24,-86.22 215.25,-64.99 254.45,-21.21 328.87,-14.81 367.53,-14.66"/>
<polygon fill="green" stroke="green" stroke-width="0.13" points="367.21,-18.16 377.24,-14.76 367.28,-11.16 367.21,-18.16"/>
</g>
<!-- 166&#45;&gt;3 -->
<g id="edge19" class="edge">
<title>166&#45;&gt;3</title>
<path fill="none" stroke="green" stroke-width="0.11" d="M753.25,-142.28C753.25,-132.53 753.25,-120.77 753.25,-110.6"/>
<polygon fill="green" stroke="green" stroke-width="0.11" points="756.75,-110.9 753.25,-100.9 749.75,-110.9 756.75,-110.9"/>
</g>
<!-- 167&#45;&gt;4 -->
<g id="edge18" class="edge">
<title>167&#45;&gt;4</title>
<path fill="none" stroke="green" stroke-width="0.34" d="M408.18,-143.46C404.35,-133.1 399.6,-120.24 395.58,-109.39"/>
<polygon fill="green" stroke="green" stroke-width="0.34" points="398.95,-108.41 392.2,-100.24 392.39,-110.84 398.95,-108.41"/>
</g>
<!-- 168&#45;&gt;0 -->
<g id="edge36" class="edge">
<title>168&#45;&gt;0</title>
<path fill="none" stroke="red" stroke-width="0.31" stroke-dasharray="1,5" d="M283.78,-142.28C284.04,-132.63 284.35,-121.02 284.61,-110.93"/>
<polygon fill="red" stroke="red" stroke-width="0.31" points="288.1,-111.28 284.87,-101.2 281.11,-111.1 288.1,-111.28"/>
</g>
<!-- 168&#45;&gt;1 -->
<g id="edge35" class="edge">
<title>168&#45;&gt;1</title>
<path fill="none" stroke="green" stroke-width="0.23" d="M272.81,-145.01C266.17,-133.84 257.55,-119.32 250.57,-107.59"/>
<polygon fill="green" stroke="green" stroke-width="0.23" points="253.7,-106 245.58,-99.19 247.68,-109.58 253.7,-106"/>
</g>
<!-- 168&#45;&gt;2 -->
<g id="edge5" class="edge">
<title>168&#45;&gt;2</title>
<path fill="none" stroke="red" stroke-width="0.22" d="M295.8,-146.53C304.44,-135.42 316.15,-120.25 326.25,-106.71 344.54,-82.21 365.11,-53.6 378.36,-35.05"/>
<polygon fill="red" stroke="red" stroke-width="0.22" points="381.09,-37.25 384.04,-27.07 375.38,-33.19 381.09,-37.25"/>
</g>
<!-- 168&#45;&gt;226 -->
<g id="edge45" class="edge">
<title>168&#45;&gt;226</title>
<path fill="none" stroke="red" stroke-width="0.52" stroke-dasharray="1,5" d="M303.89,-158.49C339.14,-151.08 412.7,-133.63 470.25,-106.71 471.66,-106.05 473.09,-105.33 474.51,-104.56"/>
<polygon fill="red" stroke="red" stroke-width="0.52" points="476.16,-107.65 482.95,-99.51 472.57,-101.64 476.16,-107.65"/>
</g>
<!-- 226&#45;&gt;2 -->
<g id="edge46" class="edge">
<title>226&#45;&gt;2</title>
<path fill="none" stroke="green" stroke-width="0.65" d="M483.15,-73.45C478.94,-70.67 474.44,-67.71 470.25,-64.99 451.08,-52.57 429.09,-38.64 413.36,-28.74"/>
<polygon fill="green" stroke="green" stroke-width="0.65" points="415.62,-26.02 405.29,-23.66 411.89,-31.95 415.62,-26.02"/>
</g>
<!-- 268 -->
<g id="node31" class="node">
<title>268</title>
<ellipse fill="white" stroke="black" cx="440.25" cy="-85.85" rx="20.86" ry="20.86"/>
<text text-anchor="middle" x="440.25" y="-82.55" font-family="Times,serif" font-size="9.00">268</text>
</g>
<!-- 268&#45;&gt;2 -->
<g id="edge49" class="edge">
<title>268&#45;&gt;2</title>
<path fill="none" stroke="green" stroke-width="0.75" d="M428.63,-68.06C421.99,-58.46 413.6,-46.34 406.55,-36.16"/>
<polygon fill="green" stroke="green" stroke-width="0.75" points="409.52,-34.3 400.95,-28.07 403.76,-38.28 409.52,-34.3"/>
</g>
<!-- 216&#45;&gt;166 -->
<g id="edge44" class="edge">
<title>216&#45;&gt;166</title>
<path fill="none" stroke="red" stroke-width="0.31" d="M661.28,-228.46C679.12,-216.07 707.33,-196.47 727.81,-182.24"/>
<polygon fill="red" stroke="red" stroke-width="0.31" points="729.74,-185.16 735.95,-176.58 725.74,-179.42 729.74,-185.16"/>
</g>
<!-- 216&#45;&gt;167 -->
<g id="edge50" class="edge">
<title>216&#45;&gt;167</title>
<path fill="none" stroke="green" stroke-width="0.14" d="M627.67,-227.94C623.44,-225.19 618.81,-222.48 614.25,-220.43 557.62,-194.96 538.91,-201.64 479.25,-184.43 467.87,-181.15 455.41,-177.33 444.54,-173.93"/>
<polygon fill="green" stroke="green" stroke-width="0.14" points="445.87,-170.68 435.28,-171.01 443.76,-177.36 445.87,-170.68"/>
</g>
</g>
</svg>
