<?xml version="1.0" encoding="UTF-8" standalone="no"?>
<!DOCTYPE svg PUBLIC "-//W3C//DTD SVG 1.1//EN"
 "http://www.w3.org/Graphics/SVG/1.1/DTD/svg11.dtd">
<!-- Generated by graphviz version 12.1.1 (20240910.0053)
 -->
<!-- Pages: 1 -->
<svg width="1048pt" height="409pt"
 viewBox="0.00 0.00 1048.00 408.73" xmlns="http://www.w3.org/2000/svg" xmlns:xlink="http://www.w3.org/1999/xlink">
<g id="graph0" class="graph" transform="scale(1 1) rotate(0) translate(4 404.73)">
<polygon fill="white" stroke="none" points="-4,4 -4,-404.73 1044,-404.73 1044,4 -4,4"/>
<!-- &#45;1 -->
<g id="node1" class="node">
<title>&#45;1</title>
<polygon fill="lightgray" stroke="black" points="739.75,-400.73 716.25,-400.73 716.25,-382.23 739.75,-382.23 739.75,-400.73"/>
<text text-anchor="middle" x="728" y="-388.18" font-family="Times,serif" font-size="9.00">&#45;1</text>
</g>
<!-- 165 -->
<g id="node26" class="node">
<title>165</title>
<ellipse fill="white" stroke="black" cx="579" cy="-241.29" rx="20.86" ry="20.86"/>
<text text-anchor="middle" x="579" y="-237.99" font-family="Times,serif" font-size="9.00">165</text>
</g>
<!-- &#45;1&#45;&gt;165 -->
<g id="edge31" class="edge">
<title>&#45;1&#45;&gt;165</title>
<path fill="none" stroke="red" stroke-width="0.25" d="M726.4,-381.99C722.65,-364.29 711.79,-323.01 688,-298.15 662.71,-271.73 646.37,-279.18 614,-262.15 611.24,-260.7 608.39,-259.15 605.55,-257.59"/>
<polygon fill="red" stroke="red" stroke-width="0.25" points="607.45,-254.64 597.01,-252.8 604.02,-260.74 607.45,-254.64"/>
</g>
<!-- 166 -->
<g id="node27" class="node">
<title>166</title>
<ellipse fill="white" stroke="black" cx="835" cy="-241.29" rx="20.86" ry="20.86"/>
<text text-anchor="middle" x="835" y="-237.99" font-family="Times,serif" font-size="9.00">166</text>
</g>
<!-- &#45;1&#45;&gt;166 -->
<g id="edge9" class="edge">
<title>&#45;1&#45;&gt;166</title>
<path fill="none" stroke="green" stroke-width="0.42" d="M739.88,-385.44C742.83,-384.29 746,-383.14 749,-382.23 820.83,-360.44 866.92,-404.69 914,-346.23 927.4,-329.59 923.82,-317.13 914,-298.15 903.51,-277.88 881.91,-263.4 863.94,-254.26"/>
<polygon fill="green" stroke="green" stroke-width="0.42" points="865.53,-251.14 855,-250.01 862.53,-257.47 865.53,-251.14"/>
</g>
<!-- 2516 -->
<g id="node33" class="node">
<title>2516</title>
<ellipse fill="white" stroke="black" cx="146" cy="-322.19" rx="24.04" ry="24.04"/>
<text text-anchor="middle" x="146" y="-318.89" font-family="Times,serif" font-size="9.00">2516</text>
</g>
<!-- &#45;1&#45;&gt;2516 -->
<g id="edge59" class="edge">
<title>&#45;1&#45;&gt;2516</title>
<path fill="none" stroke="green" stroke-width="0.17" d="M715.75,-388.7C702.89,-386.88 682.06,-384.07 664,-382.23 556.48,-371.32 280.82,-382.46 179,-346.23 176.91,-345.49 174.84,-344.58 172.8,-343.55"/>
<polygon fill="green" stroke="green" stroke-width="0.17" points="174.84,-340.69 164.45,-338.6 171.27,-346.71 174.84,-340.69"/>
</g>
<!-- &#45;2 -->
<g id="node2" class="node">
<title>&#45;2</title>
<polygon fill="lightgray" stroke="black" points="559.75,-331.44 536.25,-331.44 536.25,-312.94 559.75,-312.94 559.75,-331.44"/>
<text text-anchor="middle" x="548" y="-318.89" font-family="Times,serif" font-size="9.00">&#45;2</text>
</g>
<!-- 167 -->
<g id="node28" class="node">
<title>167</title>
<ellipse fill="white" stroke="black" cx="508" cy="-241.29" rx="20.86" ry="20.86"/>
<text text-anchor="middle" x="508" y="-237.99" font-family="Times,serif" font-size="9.00">167</text>
</g>
<!-- &#45;2&#45;&gt;167 -->
<g id="edge29" class="edge">
<title>&#45;2&#45;&gt;167</title>
<path fill="none" stroke="red" stroke-width="0.78" d="M543.57,-312.45C538.41,-302.27 529.64,-284.98 522.1,-270.1"/>
<polygon fill="red" stroke="red" stroke-width="0.78" points="525.31,-268.7 517.67,-261.37 519.07,-271.87 525.31,-268.7"/>
</g>
<!-- &#45;3 -->
<g id="node3" class="node">
<title>&#45;3</title>
<polygon fill="lightgray" stroke="black" points="679.75,-250.54 656.25,-250.54 656.25,-232.04 679.75,-232.04 679.75,-250.54"/>
<text text-anchor="middle" x="668" y="-237.99" font-family="Times,serif" font-size="9.00">&#45;3</text>
</g>
<!-- 226 -->
<g id="node30" class="node">
<title>226</title>
<ellipse fill="white" stroke="black" cx="487" cy="-163.57" rx="20.86" ry="20.86"/>
<text text-anchor="middle" x="487" y="-160.27" font-family="Times,serif" font-size="9.00">226</text>
</g>
<!-- &#45;3&#45;&gt;226 -->
<g id="edge49" class="edge">
<title>&#45;3&#45;&gt;226</title>
<path fill="none" stroke="red" stroke-width="0.11" d="M658.46,-231.63C653.78,-227.75 647.89,-223.39 642,-220.43 590.36,-194.44 569.49,-208.67 517,-184.43 515.44,-183.71 513.87,-182.92 512.31,-182.07"/>
<polygon fill="red" stroke="red" stroke-width="0.11" points="514.13,-179.08 503.76,-176.94 510.53,-185.09 514.13,-179.08"/>
</g>
<!-- 268 -->
<g id="node31" class="node">
<title>268</title>
<ellipse fill="white" stroke="black" cx="757" cy="-85.85" rx="20.86" ry="20.86"/>
<text text-anchor="middle" x="757" y="-82.55" font-family="Times,serif" font-size="9.00">268</text>
</g>
<!-- &#45;3&#45;&gt;268 -->
<g id="edge55" class="edge">
<title>&#45;3&#45;&gt;268</title>
<path fill="none" stroke="red" stroke-width="0.24" d="M673.04,-231.6C686.07,-209.14 721.28,-148.44 741.73,-113.19"/>
<polygon fill="red" stroke="red" stroke-width="0.24" points="744.66,-115.11 746.65,-104.7 738.6,-111.6 744.66,-115.11"/>
</g>
<!-- &#45;4 -->
<g id="node4" class="node">
<title>&#45;4</title>
<polygon fill="lightgray" stroke="black" points="779.75,-331.44 756.25,-331.44 756.25,-312.94 779.75,-312.94 779.75,-331.44"/>
<text text-anchor="middle" x="768" y="-318.89" font-family="Times,serif" font-size="9.00">&#45;4</text>
</g>
<!-- 2 -->
<g id="node23" class="node">
<title>2</title>
<ellipse fill="lightblue" stroke="black" cx="708" cy="-14.5" rx="14.5" ry="14.5"/>
<text text-anchor="middle" x="708" y="-11.2" font-family="Times,serif" font-size="9.00">2</text>
</g>
<!-- &#45;4&#45;&gt;2 -->
<g id="edge51" class="edge">
<title>&#45;4&#45;&gt;2</title>
<path fill="none" stroke="red" stroke-width="0.17" d="M766.33,-312.7C758.46,-272.59 724.88,-101.51 712.56,-38.72"/>
<polygon fill="red" stroke="red" stroke-width="0.17" points="716.05,-38.35 710.69,-29.21 709.18,-39.7 716.05,-38.35"/>
</g>
<!-- &#45;4&#45;&gt;166 -->
<g id="edge26" class="edge">
<title>&#45;4&#45;&gt;166</title>
<path fill="none" stroke="green" stroke-width="0.14" d="M775.43,-312.45C785.03,-301.14 802.12,-281.02 815.53,-265.21"/>
<polygon fill="green" stroke="green" stroke-width="0.14" points="817.84,-267.91 821.64,-258.02 812.5,-263.38 817.84,-267.91"/>
</g>
<!-- &#45;4&#45;&gt;167 -->
<g id="edge2" class="edge">
<title>&#45;4&#45;&gt;167</title>
<path fill="none" stroke="green" stroke-width="0.66" d="M756,-318.27C716.17,-308.53 588.66,-276.95 549,-262.15 544.67,-260.53 540.17,-258.62 535.82,-256.62"/>
<polygon fill="green" stroke="green" stroke-width="0.66" points="537.48,-253.54 526.95,-252.37 534.45,-259.85 537.48,-253.54"/>
</g>
<!-- &#45;4&#45;&gt;226 -->
<g id="edge46" class="edge">
<title>&#45;4&#45;&gt;226</title>
<path fill="none" stroke="red" stroke-width="0.21" d="M755.81,-315.56C727.02,-302.22 656.49,-269.26 647,-262.15 626.93,-247.11 629.66,-234.64 609,-220.43 572.82,-195.55 555.97,-204.66 517,-184.43 515.48,-183.64 513.93,-182.79 512.39,-181.9"/>
<polygon fill="red" stroke="red" stroke-width="0.21" points="514.37,-179.01 504.02,-176.72 510.69,-184.96 514.37,-179.01"/>
</g>
<!-- &#45;5 -->
<g id="node5" class="node">
<title>&#45;5</title>
<polygon fill="lightgray" stroke="black" points="253.75,-331.44 230.25,-331.44 230.25,-312.94 253.75,-312.94 253.75,-331.44"/>
<text text-anchor="middle" x="242" y="-318.89" font-family="Times,serif" font-size="9.00">&#45;5</text>
</g>
<!-- 168 -->
<g id="node29" class="node">
<title>168</title>
<ellipse fill="white" stroke="black" cx="286" cy="-241.29" rx="20.86" ry="20.86"/>
<text text-anchor="middle" x="286" y="-237.99" font-family="Times,serif" font-size="9.00">168</text>
</g>
<!-- &#45;5&#45;&gt;168 -->
<g id="edge22" class="edge">
<title>&#45;5&#45;&gt;168</title>
<path fill="none" stroke="red" stroke-width="0.41" stroke-dasharray="1,5" d="M246.88,-312.45C252.7,-302.01 262.69,-284.08 271.13,-268.96"/>
<polygon fill="red" stroke="red" stroke-width="0.41" points="274.01,-270.97 275.83,-260.53 267.9,-267.56 274.01,-270.97"/>
</g>
<!-- &#45;5&#45;&gt;226 -->
<g id="edge56" class="edge">
<title>&#45;5&#45;&gt;226</title>
<path fill="none" stroke="red" stroke-width="0.57" d="M248.84,-312.51C252.71,-307.92 257.8,-302.39 263,-298.15 301.46,-266.84 412.6,-210.14 455,-184.43 456.76,-183.36 458.57,-182.26 460.4,-181.14"/>
<polygon fill="red" stroke="red" stroke-width="0.57" points="462.03,-184.24 468.7,-176.01 458.35,-178.29 462.03,-184.24"/>
</g>
<!-- &#45;6 -->
<g id="node6" class="node">
<title>&#45;6</title>
<polygon fill="lightgray" stroke="black" points="601.75,-331.44 578.25,-331.44 578.25,-312.94 601.75,-312.94 601.75,-331.44"/>
<text text-anchor="middle" x="590" y="-318.89" font-family="Times,serif" font-size="9.00">&#45;6</text>
</g>
<!-- &#45;6&#45;&gt;165 -->
<g id="edge10" class="edge">
<title>&#45;6&#45;&gt;165</title>
<path fill="none" stroke="green" stroke-width="0.67" d="M588.78,-312.45C587.46,-302.95 585.27,-287.24 583.29,-273.09"/>
<polygon fill="green" stroke="green" stroke-width="0.67" points="586.77,-272.64 581.92,-263.22 579.83,-273.61 586.77,-272.64"/>
</g>
<!-- &#45;7 -->
<g id="node7" class="node">
<title>&#45;7</title>
<polygon fill="lightgray" stroke="black" points="433.75,-331.44 410.25,-331.44 410.25,-312.94 433.75,-312.94 433.75,-331.44"/>
<text text-anchor="middle" x="422" y="-318.89" font-family="Times,serif" font-size="9.00">&#45;7</text>
</g>
<!-- &#45;7&#45;&gt;165 -->
<g id="edge21" class="edge">
<title>&#45;7&#45;&gt;165</title>
<path fill="none" stroke="red" stroke-width="0.43" d="M428.2,-312.59C432.02,-307.8 437.27,-302.04 443,-298.15 480.34,-272.77 496.53,-280.01 538,-262.15 542.28,-260.3 546.77,-258.26 551.14,-256.2"/>
<polygon fill="red" stroke="red" stroke-width="0.43" points="552.3,-259.52 559.79,-252.02 549.26,-253.21 552.3,-259.52"/>
</g>
<!-- &#45;7&#45;&gt;167 -->
<g id="edge24" class="edge">
<title>&#45;7&#45;&gt;167</title>
<path fill="none" stroke="red" stroke-width="0.25" d="M429.15,-312.86C433.11,-308.38 438.19,-302.83 443,-298.15 456.13,-285.39 471.66,-271.99 484.24,-261.52"/>
<polygon fill="red" stroke="red" stroke-width="0.25" points="486.25,-264.4 491.74,-255.33 481.8,-259 486.25,-264.4"/>
</g>
<!-- &#45;7&#45;&gt;168 -->
<g id="edge40" class="edge">
<title>&#45;7&#45;&gt;168</title>
<path fill="none" stroke="red" stroke-width="1.1" stroke-dasharray="1,5" d="M415.66,-312.78C411.8,-308.06 406.55,-302.3 401,-298.15 374.76,-278.53 340.54,-262.96 316.27,-253.3"/>
<polygon fill="red" stroke="red" stroke-width="1.1" points="317.7,-250.1 307.11,-249.76 315.18,-256.63 317.7,-250.1"/>
</g>
<!-- &#45;8 -->
<g id="node8" class="node">
<title>&#45;8</title>
<polygon fill="lightgray" stroke="black" points="781.75,-400.73 758.25,-400.73 758.25,-382.23 781.75,-382.23 781.75,-400.73"/>
<text text-anchor="middle" x="770" y="-388.18" font-family="Times,serif" font-size="9.00">&#45;8</text>
</g>
<!-- &#45;9 -->
<g id="node9" class="node">
<title>&#45;9</title>
<polygon fill="lightgray" stroke="black" points="211.75,-331.44 188.25,-331.44 188.25,-312.94 211.75,-312.94 211.75,-331.44"/>
<text text-anchor="middle" x="200" y="-318.89" font-family="Times,serif" font-size="9.00">&#45;9</text>
</g>
<!-- &#45;9&#45;&gt;168 -->
<g id="edge7" class="edge">
<title>&#45;9&#45;&gt;168</title>
<path fill="none" stroke="red" stroke-width="0.61" stroke-dasharray="1,5" d="M207.15,-312.86C211.11,-308.38 216.19,-302.83 221,-298.15 234.01,-285.51 249.36,-272.25 261.88,-261.82"/>
<polygon fill="red" stroke="red" stroke-width="0.61" points="263.84,-264.74 269.32,-255.68 259.38,-259.34 263.84,-264.74"/>
</g>
<!-- &#45;10 -->
<g id="node10" class="node">
<title>&#45;10</title>
<polygon fill="lightgray" stroke="black" points="522,-400.73 494,-400.73 494,-382.23 522,-382.23 522,-400.73"/>
<text text-anchor="middle" x="508" y="-388.18" font-family="Times,serif" font-size="9.00">&#45;10</text>
</g>
<!-- &#45;10&#45;&gt;167 -->
<g id="edge20" class="edge">
<title>&#45;10&#45;&gt;167</title>
<path fill="none" stroke="green" stroke-width="0.15" d="M508,-382.09C508,-361.39 508,-307.09 508,-272.57"/>
<polygon fill="green" stroke="green" stroke-width="0.15" points="511.5,-272.79 508,-262.79 504.5,-272.79 511.5,-272.79"/>
</g>
<!-- &#45;10&#45;&gt;168 -->
<g id="edge1" class="edge">
<title>&#45;10&#45;&gt;168</title>
<path fill="none" stroke="red" stroke-width="0.56" d="M493.86,-390.12C422.96,-388.16 108.39,-377.71 80,-346.23 65.69,-330.36 67.02,-315.12 80,-298.15 101.13,-270.52 202.04,-253.38 254.37,-246.2"/>
<polygon fill="red" stroke="red" stroke-width="0.56" points="254.76,-249.67 264.22,-244.89 253.84,-242.73 254.76,-249.67"/>
</g>
<!-- 216 -->
<g id="node34" class="node">
<title>216</title>
<ellipse fill="white" stroke="black" cx="641" cy="-322.19" rx="20.86" ry="20.86"/>
<text text-anchor="middle" x="641" y="-318.89" font-family="Times,serif" font-size="9.00">216</text>
</g>
<!-- &#45;10&#45;&gt;216 -->
<g id="edge41" class="edge">
<title>&#45;10&#45;&gt;216</title>
<path fill="none" stroke="red" stroke-width="0.26" d="M522.19,-385.66C542.56,-378.47 580.95,-363.85 611,-346.23 612.98,-345.07 614.98,-343.8 616.95,-342.47"/>
<polygon fill="red" stroke="red" stroke-width="0.26" points="618.96,-345.33 625.01,-336.63 614.86,-339.66 618.96,-345.33"/>
</g>
<!-- &#45;11 -->
<g id="node11" class="node">
<title>&#45;11</title>
<polygon fill="lightgray" stroke="black" points="655,-400.73 627,-400.73 627,-382.23 655,-382.23 655,-400.73"/>
<text text-anchor="middle" x="641" y="-388.18" font-family="Times,serif" font-size="9.00">&#45;11</text>
</g>
<!-- &#45;11&#45;&gt;165 -->
<g id="edge12" class="edge">
<title>&#45;11&#45;&gt;165</title>
<path fill="none" stroke="green" stroke-width="0.5" stroke-dasharray="1,5" d="M649.21,-381.84C656.54,-373.48 666.75,-360.07 671,-346.23 677.27,-325.8 681.48,-316.77 671,-298.15 669.13,-294.83 632.35,-273.1 605.87,-257.74"/>
<polygon fill="green" stroke="green" stroke-width="0.5" points="607.73,-254.77 597.32,-252.8 604.23,-260.83 607.73,-254.77"/>
</g>
<!-- &#45;11&#45;&gt;166 -->
<g id="edge32" class="edge">
<title>&#45;11&#45;&gt;166</title>
<path fill="none" stroke="red" stroke-width="0.81" d="M655.15,-388.38C705.54,-380.84 873.63,-355.09 881,-346.23 901.38,-321.76 877.78,-286.83 857.56,-264.36"/>
<polygon fill="red" stroke="red" stroke-width="0.81" points="860.31,-262.18 850.91,-257.29 855.21,-266.98 860.31,-262.18"/>
</g>
<!-- &#45;11&#45;&gt;168 -->
<g id="edge39" class="edge">
<title>&#45;11&#45;&gt;168</title>
<path fill="none" stroke="green" stroke-width="0.14" d="M626.73,-389.42C542.87,-383.15 117.49,-351.11 113,-346.23 98.53,-330.5 100.42,-315.43 113,-298.15 129.93,-274.89 210.48,-256.43 255.45,-247.73"/>
<polygon fill="green" stroke="green" stroke-width="0.14" points="255.88,-251.21 265.05,-245.92 254.58,-244.33 255.88,-251.21"/>
</g>
<!-- &#45;11&#45;&gt;2516 -->
<g id="edge57" class="edge">
<title>&#45;11&#45;&gt;2516</title>
<path fill="none" stroke="red" stroke-width="0.4" stroke-dasharray="1,5" d="M626.9,-389.34C551.71,-383.19 200.6,-354.18 179,-346.23 177.08,-345.53 175.17,-344.68 173.29,-343.74"/>
<polygon fill="red" stroke="red" stroke-width="0.4" points="175.16,-340.78 164.77,-338.69 171.59,-346.8 175.16,-340.78"/>
</g>
<!-- &#45;11&#45;&gt;216 -->
<g id="edge45" class="edge">
<title>&#45;11&#45;&gt;216</title>
<path fill="none" stroke="green" stroke-width="0.54" stroke-dasharray="1,5" d="M641,-381.96C641,-374.9 641,-364.4 641,-354.22"/>
<polygon fill="green" stroke="green" stroke-width="0.54" points="644.5,-354.3 641,-344.3 637.5,-354.3 644.5,-354.3"/>
</g>
<!-- &#45;12 -->
<g id="node12" class="node">
<title>&#45;12</title>
<polygon fill="lightgray" stroke="black" points="392,-331.44 364,-331.44 364,-312.94 392,-312.94 392,-331.44"/>
<text text-anchor="middle" x="378" y="-318.89" font-family="Times,serif" font-size="9.00">&#45;12</text>
</g>
<!-- &#45;12&#45;&gt;165 -->
<g id="edge11" class="edge">
<title>&#45;12&#45;&gt;165</title>
<path fill="none" stroke="green" stroke-width="0.1" stroke-dasharray="1,5" d="M384.41,-312.83C388.62,-307.88 394.53,-301.87 401,-298.15 455.58,-266.78 478.95,-283.97 538,-262.15 542.58,-260.46 547.34,-258.42 551.92,-256.32"/>
<polygon fill="green" stroke="green" stroke-width="0.1" points="553.33,-259.52 560.82,-252.03 550.29,-253.21 553.33,-259.52"/>
</g>
<!-- &#45;12&#45;&gt;167 -->
<g id="edge30" class="edge">
<title>&#45;12&#45;&gt;167</title>
<path fill="none" stroke="green" stroke-width="0.29" stroke-dasharray="1,5" d="M385.13,-312.88C389.42,-308.19 395.17,-302.43 401,-298.15 425.71,-279.99 457.14,-264.34 479.52,-254.26"/>
<polygon fill="green" stroke="green" stroke-width="0.29" points="480.68,-257.58 488.41,-250.34 477.85,-251.17 480.68,-257.58"/>
</g>
<!-- &#45;12&#45;&gt;168 -->
<g id="edge4" class="edge">
<title>&#45;12&#45;&gt;168</title>
<path fill="none" stroke="green" stroke-width="0.98" stroke-dasharray="1,5" d="M370.11,-312.87C365.77,-308.39 360.21,-302.84 355,-298.15 340.86,-285.41 324.3,-271.96 310.95,-261.45"/>
<polygon fill="green" stroke="green" stroke-width="0.98" points="313.49,-258.99 303.46,-255.6 309.19,-264.51 313.49,-258.99"/>
</g>
<!-- &#45;13 -->
<g id="node13" class="node">
<title>&#45;13</title>
<polygon fill="lightgray" stroke="black" points="994,-331.44 966,-331.44 966,-312.94 994,-312.94 994,-331.44"/>
<text text-anchor="middle" x="980" y="-318.89" font-family="Times,serif" font-size="9.00">&#45;13</text>
</g>
<!-- &#45;13&#45;&gt;166 -->
<g id="edge15" class="edge">
<title>&#45;13&#45;&gt;166</title>
<path fill="none" stroke="red" stroke-width="0.24" stroke-dasharray="1,5" d="M970.6,-312.47C965.36,-307.88 958.58,-302.34 952,-298.15 923.46,-279.98 888.11,-263.89 863.78,-253.7"/>
<polygon fill="red" stroke="red" stroke-width="0.24" points="865.31,-250.55 854.73,-249.97 862.64,-257.02 865.31,-250.55"/>
</g>
<!-- &#45;14 -->
<g id="node14" class="node">
<title>&#45;14</title>
<polygon fill="lightgray" stroke="black" points="346,-331.44 318,-331.44 318,-312.94 346,-312.94 346,-331.44"/>
<text text-anchor="middle" x="332" y="-318.89" font-family="Times,serif" font-size="9.00">&#45;14</text>
</g>
<!-- &#45;14&#45;&gt;167 -->
<g id="edge23" class="edge">
<title>&#45;14&#45;&gt;167</title>
<path fill="none" stroke="red" stroke-width="0.78" d="M338.93,-312.59C343.15,-307.8 348.9,-302.04 355,-298.15 375.77,-284.89 439.18,-263.79 477.54,-251.68"/>
<polygon fill="red" stroke="red" stroke-width="0.78" points="478.47,-255.05 486.97,-248.72 476.38,-248.37 478.47,-255.05"/>
</g>
<!-- &#45;14&#45;&gt;168 -->
<g id="edge13" class="edge">
<title>&#45;14&#45;&gt;168</title>
<path fill="none" stroke="red" stroke-width="0.39" stroke-dasharray="1,5" d="M326.9,-312.45C320.78,-301.95 310.23,-283.85 301.38,-268.67"/>
<polygon fill="red" stroke="red" stroke-width="0.39" points="304.5,-267.07 296.44,-260.2 298.45,-270.6 304.5,-267.07"/>
</g>
<!-- &#45;15 -->
<g id="node15" class="node">
<title>&#45;15</title>
<polygon fill="lightgray" stroke="black" points="480,-331.44 452,-331.44 452,-312.94 480,-312.94 480,-331.44"/>
<text text-anchor="middle" x="466" y="-318.89" font-family="Times,serif" font-size="9.00">&#45;15</text>
</g>
<!-- &#45;15&#45;&gt;166 -->
<g id="edge14" class="edge">
<title>&#45;15&#45;&gt;166</title>
<path fill="none" stroke="red" stroke-width="0.39" stroke-dasharray="1,5" d="M480.3,-314.94C492.51,-309.81 510.64,-302.68 527,-298.15 626.42,-270.6 747.77,-253.19 803.84,-246.03"/>
<polygon fill="red" stroke="red" stroke-width="0.39" points="804.09,-249.53 813.58,-244.81 803.22,-242.58 804.09,-249.53"/>
</g>
<!-- &#45;15&#45;&gt;168 -->
<g id="edge27" class="edge">
<title>&#45;15&#45;&gt;168</title>
<path fill="none" stroke="green" stroke-width="0.97" stroke-dasharray="1,5" d="M459.09,-312.57C454.86,-307.78 449.11,-302.02 443,-298.15 403.2,-272.97 350.52,-257.22 317.45,-249.1"/>
<polygon fill="green" stroke="green" stroke-width="0.97" points="318.58,-245.77 308.05,-246.88 316.97,-252.58 318.58,-245.77"/>
</g>
<!-- &#45;16 -->
<g id="node16" class="node">
<title>&#45;16</title>
<polygon fill="lightgray" stroke="black" points="1040,-331.44 1012,-331.44 1012,-312.94 1040,-312.94 1040,-331.44"/>
<text text-anchor="middle" x="1026" y="-318.89" font-family="Times,serif" font-size="9.00">&#45;16</text>
</g>
<!-- &#45;16&#45;&gt;166 -->
<g id="edge37" class="edge">
<title>&#45;16&#45;&gt;166</title>
<path fill="none" stroke="red" stroke-width="0.33" d="M1019.12,-312.52C1014.9,-307.71 1009.15,-301.95 1003,-298.15 959.28,-271.13 901.01,-255.57 865.84,-248.04"/>
<polygon fill="red" stroke="red" stroke-width="0.33" points="866.69,-244.64 856.19,-246.05 865.28,-251.49 866.69,-244.64"/>
</g>
<!-- &#45;17 -->
<g id="node17" class="node">
<title>&#45;17</title>
<polygon fill="lightgray" stroke="black" points="300,-331.44 272,-331.44 272,-312.94 300,-312.94 300,-331.44"/>
<text text-anchor="middle" x="286" y="-318.89" font-family="Times,serif" font-size="9.00">&#45;17</text>
</g>
<!-- &#45;17&#45;&gt;167 -->
<g id="edge3" class="edge">
<title>&#45;17&#45;&gt;167</title>
<path fill="none" stroke="green" stroke-width="0.11" stroke-dasharray="1,5" d="M292.42,-312.85C296.64,-307.91 302.55,-301.9 309,-298.15 361.58,-267.6 382.51,-278.79 441,-262.15 453.27,-258.66 466.77,-254.68 478.42,-251.21"/>
<polygon fill="green" stroke="green" stroke-width="0.11" points="479.36,-254.58 487.94,-248.36 477.36,-247.87 479.36,-254.58"/>
</g>
<!-- &#45;17&#45;&gt;168 -->
<g id="edge36" class="edge">
<title>&#45;17&#45;&gt;168</title>
<path fill="none" stroke="green" stroke-width="0.14" stroke-dasharray="1,5" d="M286,-312.45C286,-302.82 286,-286.83 286,-272.54"/>
<polygon fill="green" stroke="green" stroke-width="0.14" points="289.5,-272.76 286,-262.76 282.5,-272.76 289.5,-272.76"/>
</g>
<!-- &#45;18 -->
<g id="node18" class="node">
<title>&#45;18</title>
<polygon fill="lightgray" stroke="black" points="872,-331.44 844,-331.44 844,-312.94 872,-312.94 872,-331.44"/>
<text text-anchor="middle" x="858" y="-318.89" font-family="Times,serif" font-size="9.00">&#45;18</text>
</g>
<!-- &#45;18&#45;&gt;166 -->
<g id="edge28" class="edge">
<title>&#45;18&#45;&gt;166</title>
<path fill="none" stroke="red" stroke-width="0.62" d="M855.45,-312.45C852.59,-302.63 847.79,-286.18 843.57,-271.67"/>
<polygon fill="red" stroke="red" stroke-width="0.62" points="847.05,-271.1 840.89,-262.48 840.33,-273.06 847.05,-271.1"/>
</g>
<!-- &#45;19 -->
<g id="node19" class="node">
<title>&#45;19</title>
<polygon fill="lightgray" stroke="black" points="826,-331.44 798,-331.44 798,-312.94 826,-312.94 826,-331.44"/>
<text text-anchor="middle" x="812" y="-318.89" font-family="Times,serif" font-size="9.00">&#45;19</text>
</g>
<!-- &#45;19&#45;&gt;165 -->
<g id="edge8" class="edge">
<title>&#45;19&#45;&gt;165</title>
<path fill="none" stroke="green" stroke-width="0.21" d="M805.6,-312.81C801.4,-307.85 795.48,-301.84 789,-298.15 732.41,-265.95 709.81,-279.28 647,-262.15 634.43,-258.72 620.61,-254.73 608.74,-251.23"/>
<polygon fill="green" stroke="green" stroke-width="0.21" points="609.77,-247.88 599.18,-248.39 607.77,-254.59 609.77,-247.88"/>
</g>
<!-- &#45;19&#45;&gt;166 -->
<g id="edge6" class="edge">
<title>&#45;19&#45;&gt;166</title>
<path fill="none" stroke="green" stroke-width="1.1" d="M814.55,-312.45C817.35,-302.82 822.02,-286.82 826.19,-272.52"/>
<polygon fill="green" stroke="green" stroke-width="1.1" points="829.47,-273.76 828.91,-263.18 822.75,-271.8 829.47,-273.76"/>
</g>
<!-- &#45;20 -->
<g id="node20" class="node">
<title>&#45;20</title>
<polygon fill="lightgray" stroke="black" points="28,-331.44 0,-331.44 0,-312.94 28,-312.94 28,-331.44"/>
<text text-anchor="middle" x="14" y="-318.89" font-family="Times,serif" font-size="9.00">&#45;20</text>
</g>
<!-- 0 -->
<g id="node21" class="node">
<title>0</title>
<ellipse fill="lightblue" stroke="black" cx="309" cy="-163.57" rx="14.5" ry="14.5"/>
<text text-anchor="middle" x="309" y="-160.27" font-family="Times,serif" font-size="9.00">0</text>
</g>
<!-- &#45;20&#45;&gt;0 -->
<g id="edge50" class="edge">
<title>&#45;20&#45;&gt;0</title>
<path fill="none" stroke="red" stroke-width="0.35" stroke-dasharray="1,5" d="M28.23,-313.64C75.78,-288.39 229.44,-206.81 286.98,-176.26"/>
<polygon fill="red" stroke="red" stroke-width="0.35" points="288.6,-179.37 295.79,-171.59 285.31,-173.18 288.6,-179.37"/>
</g>
<!-- &#45;20&#45;&gt;168 -->
<g id="edge16" class="edge">
<title>&#45;20&#45;&gt;168</title>
<path fill="none" stroke="green" stroke-width="0.42" stroke-dasharray="1,5" d="M22.09,-312.79C27.33,-307.83 34.54,-301.81 42,-298.15 113.1,-263.21 206.67,-249.7 254.65,-244.82"/>
<polygon fill="green" stroke="green" stroke-width="0.42" points="254.76,-248.33 264.38,-243.9 254.09,-241.36 254.76,-248.33"/>
</g>
<!-- 0&#45;&gt;0 -->
<g id="edge33" class="edge">
<title>0&#45;&gt;0</title>
<path fill="none" stroke="green" stroke-width="0.59" d="M318.98,-174.72C329.56,-181.71 341.5,-177.99 341.5,-163.57 341.5,-153.66 335.86,-148.8 328.89,-149"/>
<polygon fill="green" stroke="green" stroke-width="0.59" points="328.14,-145.56 319.82,-152.13 330.42,-152.18 328.14,-145.56"/>
</g>
<!-- 720 -->
<g id="node32" class="node">
<title>720</title>
<ellipse fill="white" stroke="black" cx="312" cy="-85.85" rx="20.86" ry="20.86"/>
<text text-anchor="middle" x="312" y="-82.55" font-family="Times,serif" font-size="9.00">720</text>
</g>
<!-- 0&#45;&gt;720 -->
<g id="edge52" class="edge">
<title>0&#45;&gt;720</title>
<path fill="none" stroke="green" stroke-width="0.27" d="M304.26,-149.38C303.31,-140.17 303.37,-127.5 304.26,-115.98"/>
<polygon fill="green" stroke="green" stroke-width="0.27" points="307.72,-116.55 305.26,-106.25 300.75,-115.83 307.72,-116.55"/>
</g>
<!-- 1 -->
<g id="node22" class="node">
<title>1</title>
<ellipse fill="lightblue" stroke="black" cx="432" cy="-163.57" rx="14.5" ry="14.5"/>
<text text-anchor="middle" x="432" y="-160.27" font-family="Times,serif" font-size="9.00">1</text>
</g>
<!-- 2&#45;&gt;2 -->
<g id="edge19" class="edge">
<title>2&#45;&gt;2</title>
<path fill="none" stroke="green" stroke-width="0.24" stroke-dasharray="1,5" d="M718.32,-24.94C728.81,-31.08 740.5,-27.6 740.5,-14.5 740.5,-5.49 734.97,-1.03 728.11,-1.12"/>
<polygon fill="green" stroke="green" stroke-width="0.24" points="727.24,2.27 718.67,-3.95 729.25,-4.43 727.24,2.27"/>
</g>
<!-- 3 -->
<g id="node24" class="node">
<title>3</title>
<ellipse fill="lightblue" stroke="black" cx="788" cy="-163.57" rx="14.5" ry="14.5"/>
<text text-anchor="middle" x="788" y="-160.27" font-family="Times,serif" font-size="9.00">3</text>
</g>
<!-- 3&#45;&gt;268 -->
<g id="edge54" class="edge">
<title>3&#45;&gt;268</title>
<path fill="none" stroke="green" stroke-width="0.21" d="M782.74,-149.73C778.88,-140.3 773.49,-127.12 768.64,-115.27"/>
<polygon fill="green" stroke="green" stroke-width="0.21" points="771.88,-113.95 764.85,-106.02 765.4,-116.6 771.88,-113.95"/>
</g>
<!-- 4 -->
<g id="node25" class="node">
<title>4</title>
<ellipse fill="lightblue" stroke="black" cx="540" cy="-163.57" rx="14.5" ry="14.5"/>
<text text-anchor="middle" x="540" y="-160.27" font-family="Times,serif" font-size="9.00">4</text>
</g>
<!-- 165&#45;&gt;1 -->
<g id="edge25" class="edge">
<title>165&#45;&gt;1</title>
<path fill="none" stroke="red" stroke-width="0.11" d="M560.28,-231.06C553.31,-227.67 545.32,-223.83 538,-220.43 502.27,-203.84 490.69,-204.85 457,-184.43 454.76,-183.07 452.5,-181.54 450.29,-179.94"/>
<polygon fill="red" stroke="red" stroke-width="0.11" points="452.45,-177.19 442.41,-173.8 448.15,-182.71 452.45,-177.19"/>
</g>
<!-- 165&#45;&gt;2 -->
<g id="edge38" class="edge">
<title>165&#45;&gt;2</title>
<path fill="none" stroke="green" stroke-width="0.76" d="M598.84,-234.11C612.35,-229.99 630.68,-224.6 647,-220.43 719.3,-201.96 764.23,-242.58 811,-184.43 832.44,-157.78 791.33,-70.62 787,-64.99 772.71,-46.39 749.28,-32.99 731.64,-24.86"/>
<polygon fill="green" stroke="green" stroke-width="0.76" points="733.16,-21.71 722.59,-20.94 730.37,-28.13 733.16,-21.71"/>
</g>
<!-- 166&#45;&gt;3 -->
<g id="edge18" class="edge">
<title>166&#45;&gt;3</title>
<path fill="none" stroke="red" stroke-width="0.24" d="M824.33,-223.11C817.33,-211.81 808.12,-196.98 800.73,-185.07"/>
<polygon fill="red" stroke="red" stroke-width="0.24" points="803.7,-183.23 795.46,-176.58 797.76,-186.93 803.7,-183.23"/>
</g>
<!-- 167&#45;&gt;4 -->
<g id="edge17" class="edge">
<title>167&#45;&gt;4</title>
<path fill="none" stroke="green" stroke-width="0.67" d="M515.91,-221.57C520.3,-211.19 525.78,-198.21 530.41,-187.26"/>
<polygon fill="green" stroke="green" stroke-width="0.67" points="533.62,-188.65 534.29,-178.08 527.17,-185.93 533.62,-188.65"/>
</g>
<!-- 168&#45;&gt;0 -->
<g id="edge35" class="edge">
<title>168&#45;&gt;0</title>
<path fill="none" stroke="green" stroke-width="0.13" d="M291.92,-220.79C295.03,-210.56 298.85,-197.98 302.09,-187.31"/>
<polygon fill="green" stroke="green" stroke-width="0.13" points="305.36,-188.58 304.92,-177.99 298.67,-186.54 305.36,-188.58"/>
</g>
<!-- 168&#45;&gt;1 -->
<g id="edge34" class="edge">
<title>168&#45;&gt;1</title>
<path fill="none" stroke="red" stroke-width="0.95" stroke-dasharray="1,5" d="M304.49,-230.7C331.16,-216.87 380.39,-191.34 409.25,-176.37"/>
<polygon fill="red" stroke="red" stroke-width="0.95" points="410.68,-179.57 417.94,-171.86 407.46,-173.36 410.68,-179.57"/>
</g>
<!-- 168&#45;&gt;2 -->
<g id="edge5" class="edge">
<title>168&#45;&gt;2</title>
<path fill="none" stroke="green" stroke-width="0.34" d="M278.29,-221.64C265.04,-186.22 242.93,-108.87 282,-64.99 308.86,-34.83 596.25,-20.24 683.21,-16.49"/>
<polygon fill="green" stroke="green" stroke-width="0.34" points="683.1,-20 692.94,-16.08 682.8,-13.01 683.1,-20"/>
</g>
<!-- 168&#45;&gt;226 -->
<g id="edge43" class="edge">
<title>168&#45;&gt;226</title>
<path fill="none" stroke="green" stroke-width="0.2" stroke-dasharray="1,5" d="M306.36,-235.23C338.72,-226.83 403.49,-208.51 455,-184.43 457.07,-183.46 459.17,-182.39 461.25,-181.26"/>
<polygon fill="green" stroke="green" stroke-width="0.2" points="463.02,-184.28 469.89,-176.21 459.49,-178.24 463.02,-184.28"/>
</g>
<!-- 226&#45;&gt;2 -->
<g id="edge44" class="edge">
<title>226&#45;&gt;2</title>
<path fill="none" stroke="red" stroke-width="0.45" stroke-dasharray="1,5" d="M503.97,-151.27C543.91,-124.7 643.71,-58.28 687.2,-29.34"/>
<polygon fill="red" stroke="red" stroke-width="0.45" points="689.1,-32.28 695.48,-23.83 685.22,-26.45 689.1,-32.28"/>
</g>
<!-- 268&#45;&gt;2 -->
<g id="edge47" class="edge">
<title>268&#45;&gt;2</title>
<path fill="none" stroke="green" stroke-width="0.32" stroke-dasharray="1,5" d="M745.39,-68.41C738.38,-58.5 729.41,-45.81 722.02,-35.33"/>
<polygon fill="green" stroke="green" stroke-width="0.32" points="724.91,-33.37 716.29,-27.22 719.2,-37.41 724.91,-33.37"/>
</g>
<!-- 720&#45;&gt;0 -->
<g id="edge53" class="edge">
<title>720&#45;&gt;0</title>
<path fill="none" stroke="green" stroke-width="0.21" stroke-dasharray="1,5" d="M317.21,-106.31C317.73,-116.55 317.32,-129.16 316.15,-139.84"/>
<polygon fill="green" stroke="green" stroke-width="0.21" points="312.73,-139.01 314.77,-149.41 319.66,-140.01 312.73,-139.01"/>
</g>
<!-- 2516&#45;&gt;168 -->
<g id="edge58" class="edge">
<title>2516&#45;&gt;168</title>
<path fill="none" stroke="red" stroke-width="0.31" stroke-dasharray="1,5" d="M165.27,-307.12C169.71,-304.05 174.46,-300.9 179,-298.15 205.1,-282.31 236.15,-266.41 258.06,-255.65"/>
<polygon fill="red" stroke="red" stroke-width="0.31" points="259.55,-258.81 267.01,-251.29 256.49,-252.52 259.55,-258.81"/>
</g>
<!-- 216&#45;&gt;166 -->
<g id="edge42" class="edge">
<title>216&#45;&gt;166</title>
<path fill="none" stroke="red" stroke-width="0.41" d="M660.31,-313.34C694.52,-299.42 765.93,-270.38 806.05,-254.06"/>
<polygon fill="red" stroke="red" stroke-width="0.41" points="807.24,-257.36 815.19,-250.35 804.61,-250.87 807.24,-257.36"/>
</g>
<!-- 216&#45;&gt;167 -->
<g id="edge48" class="edge">
<title>216&#45;&gt;167</title>
<path fill="none" stroke="green" stroke-width="0.48" d="M625.15,-308.27C620.68,-304.83 615.74,-301.23 611,-298.15 586.55,-282.27 557.2,-266.67 536.09,-256"/>
<polygon fill="green" stroke="green" stroke-width="0.48" points="537.9,-252.99 527.39,-251.65 534.77,-259.26 537.9,-252.99"/>
</g>
</g>
</svg>
