<?xml version="1.0" encoding="UTF-8" standalone="no"?>
<!DOCTYPE svg PUBLIC "-//W3C//DTD SVG 1.1//EN"
 "http://www.w3.org/Graphics/SVG/1.1/DTD/svg11.dtd">
<!-- Generated by graphviz version 12.1.1 (20240910.0053)
 -->
<!-- Pages: 1 -->
<svg width="866pt" height="260pt"
 viewBox="0.00 0.00 865.75 259.66" xmlns="http://www.w3.org/2000/svg" xmlns:xlink="http://www.w3.org/1999/xlink">
<g id="graph0" class="graph" transform="scale(1 1) rotate(0) translate(4 255.66)">
<polygon fill="white" stroke="none" points="-4,4 -4,-255.66 861.75,-255.66 861.75,4 -4,4"/>
<!-- &#45;1 -->
<g id="node1" class="node">
<title>&#45;1</title>
<polygon fill="lightgray" stroke="black" points="195.5,-182.37 172,-182.37 172,-163.87 195.5,-163.87 195.5,-182.37"/>
<text text-anchor="middle" x="183.75" y="-169.82" font-family="Times,serif" font-size="9.00">&#45;1</text>
</g>
<!-- 4284 -->
<g id="node27" class="node">
<title>4284</title>
<ellipse fill="white" stroke="black" cx="203.75" cy="-89.03" rx="24.04" ry="24.04"/>
<text text-anchor="middle" x="203.75" y="-85.73" font-family="Times,serif" font-size="9.00">4284</text>
</g>
<!-- &#45;1&#45;&gt;4284 -->
<g id="edge2" class="edge">
<title>&#45;1&#45;&gt;4284</title>
<path fill="none" stroke="green" stroke-width="0.33" d="M185.82,-163.64C188.17,-153.99 192.15,-137.63 195.77,-122.78"/>
<polygon fill="green" stroke="green" stroke-width="0.33" points="199.1,-123.88 198.07,-113.34 192.3,-122.23 199.1,-123.88"/>
</g>
<!-- &#45;2 -->
<g id="node2" class="node">
<title>&#45;2</title>
<polygon fill="lightgray" stroke="black" points="397.5,-182.37 374,-182.37 374,-163.87 397.5,-163.87 397.5,-182.37"/>
<text text-anchor="middle" x="385.75" y="-169.82" font-family="Times,serif" font-size="9.00">&#45;2</text>
</g>
<!-- 4285 -->
<g id="node28" class="node">
<title>4285</title>
<ellipse fill="white" stroke="black" cx="481.75" cy="-89.03" rx="24.04" ry="24.04"/>
<text text-anchor="middle" x="481.75" y="-85.73" font-family="Times,serif" font-size="9.00">4285</text>
</g>
<!-- &#45;2&#45;&gt;4285 -->
<g id="edge33" class="edge">
<title>&#45;2&#45;&gt;4285</title>
<path fill="none" stroke="green" stroke-width="0.21" d="M392.82,-163.7C396.76,-159.19 401.84,-153.65 406.75,-149.07 421.76,-135.11 439.78,-120.85 454.39,-109.85"/>
<polygon fill="green" stroke="green" stroke-width="0.21" points="456.37,-112.74 462.3,-103.96 452.19,-107.13 456.37,-112.74"/>
</g>
<!-- &#45;3 -->
<g id="node3" class="node">
<title>&#45;3</title>
<polygon fill="lightgray" stroke="black" points="811.5,-182.37 788,-182.37 788,-163.87 811.5,-163.87 811.5,-182.37"/>
<text text-anchor="middle" x="799.75" y="-169.82" font-family="Times,serif" font-size="9.00">&#45;3</text>
</g>
<!-- 4287 -->
<g id="node29" class="node">
<title>4287</title>
<ellipse fill="white" stroke="black" cx="735.75" cy="-89.03" rx="24.04" ry="24.04"/>
<text text-anchor="middle" x="735.75" y="-85.73" font-family="Times,serif" font-size="9.00">4287</text>
</g>
<!-- &#45;3&#45;&gt;4287 -->
<g id="edge22" class="edge">
<title>&#45;3&#45;&gt;4287</title>
<path fill="none" stroke="red" stroke-width="0.62" stroke-dasharray="1,5" d="M793.14,-163.64C784.63,-152.72 769.42,-133.21 756.79,-117.02"/>
<polygon fill="red" stroke="red" stroke-width="0.62" points="759.59,-114.92 750.69,-109.19 754.07,-119.23 759.59,-114.92"/>
</g>
<!-- &#45;4 -->
<g id="node4" class="node">
<title>&#45;4</title>
<polygon fill="lightgray" stroke="black" points="275.5,-182.37 252,-182.37 252,-163.87 275.5,-163.87 275.5,-182.37"/>
<text text-anchor="middle" x="263.75" y="-169.82" font-family="Times,serif" font-size="9.00">&#45;4</text>
</g>
<!-- &#45;4&#45;&gt;4284 -->
<g id="edge12" class="edge">
<title>&#45;4&#45;&gt;4284</title>
<path fill="none" stroke="green" stroke-width="0.18" stroke-dasharray="1,5" d="M257.55,-163.64C249.6,-152.76 235.41,-133.35 223.6,-117.19"/>
<polygon fill="green" stroke="green" stroke-width="0.18" points="226.57,-115.33 217.85,-109.32 220.92,-119.46 226.57,-115.33"/>
</g>
<!-- &#45;4&#45;&gt;4285 -->
<g id="edge9" class="edge">
<title>&#45;4&#45;&gt;4285</title>
<path fill="none" stroke="green" stroke-width="0.1" d="M269.5,-163.81C273.31,-158.89 278.7,-152.88 284.75,-149.07 336.29,-116.65 406.59,-101.23 447.78,-94.54"/>
<polygon fill="green" stroke="green" stroke-width="0.1" points="448.1,-98.03 457.44,-93.05 447.03,-91.12 448.1,-98.03"/>
</g>
<!-- &#45;5 -->
<g id="node5" class="node">
<title>&#45;5</title>
<polygon fill="lightgray" stroke="black" points="769.5,-182.37 746,-182.37 746,-163.87 769.5,-163.87 769.5,-182.37"/>
<text text-anchor="middle" x="757.75" y="-169.82" font-family="Times,serif" font-size="9.00">&#45;5</text>
</g>
<!-- &#45;5&#45;&gt;4285 -->
<g id="edge26" class="edge">
<title>&#45;5&#45;&gt;4285</title>
<path fill="none" stroke="red" stroke-width="0.2" stroke-dasharray="1,5" d="M752.08,-163.68C748.31,-158.7 742.92,-152.68 736.75,-149.07 665.72,-107.49 567.56,-95.2 516.21,-91.56"/>
<polygon fill="red" stroke="red" stroke-width="0.2" points="516.49,-88.07 506.29,-90.93 516.05,-95.06 516.49,-88.07"/>
</g>
<!-- &#45;5&#45;&gt;4287 -->
<g id="edge23" class="edge">
<title>&#45;5&#45;&gt;4287</title>
<path fill="none" stroke="red" stroke-width="0.46" stroke-dasharray="1,5" d="M755.48,-163.64C752.87,-153.92 748.45,-137.41 744.45,-122.48"/>
<polygon fill="red" stroke="red" stroke-width="0.46" points="747.92,-121.93 741.95,-113.17 741.16,-123.74 747.92,-121.93"/>
</g>
<!-- &#45;6 -->
<g id="node6" class="node">
<title>&#45;6</title>
<polygon fill="lightgray" stroke="black" points="23.5,-182.37 0,-182.37 0,-163.87 23.5,-163.87 23.5,-182.37"/>
<text text-anchor="middle" x="11.75" y="-169.82" font-family="Times,serif" font-size="9.00">&#45;6</text>
</g>
<!-- &#45;6&#45;&gt;4284 -->
<g id="edge29" class="edge">
<title>&#45;6&#45;&gt;4284</title>
<path fill="none" stroke="green" stroke-width="0.12" stroke-dasharray="1,5" d="M19.76,-163.54C24.6,-158.76 31.1,-153 37.75,-149.07 80.54,-123.81 135.87,-106.83 170.6,-97.8"/>
<polygon fill="green" stroke="green" stroke-width="0.12" points="171.24,-101.25 180.07,-95.4 169.52,-94.46 171.24,-101.25"/>
</g>
<!-- &#45;7 -->
<g id="node7" class="node">
<title>&#45;7</title>
<polygon fill="lightgray" stroke="black" points="317.5,-182.37 294,-182.37 294,-163.87 317.5,-163.87 317.5,-182.37"/>
<text text-anchor="middle" x="305.75" y="-169.82" font-family="Times,serif" font-size="9.00">&#45;7</text>
</g>
<!-- &#45;7&#45;&gt;4284 -->
<g id="edge6" class="edge">
<title>&#45;7&#45;&gt;4284</title>
<path fill="none" stroke="red" stroke-width="0.16" stroke-dasharray="1,5" d="M298.74,-163.63C294.83,-159.1 289.75,-153.55 284.75,-149.07 268.24,-134.28 248.1,-119.58 232.03,-108.56"/>
<polygon fill="red" stroke="red" stroke-width="0.16" points="234.02,-105.68 223.78,-102.97 230.1,-111.47 234.02,-105.68"/>
</g>
<!-- &#45;7&#45;&gt;4285 -->
<g id="edge18" class="edge">
<title>&#45;7&#45;&gt;4285</title>
<path fill="none" stroke="red" stroke-width="0.21" stroke-dasharray="1,5" d="M313.81,-163.62C318.67,-158.87 325.17,-153.11 331.75,-149.07 369.32,-126.04 417.42,-109 448.88,-99.3"/>
<polygon fill="red" stroke="red" stroke-width="0.21" points="449.61,-102.74 458.18,-96.5 447.59,-96.04 449.61,-102.74"/>
</g>
<!-- &#45;8 -->
<g id="node8" class="node">
<title>&#45;8</title>
<polygon fill="lightgray" stroke="black" points="439.5,-182.37 416,-182.37 416,-163.87 439.5,-163.87 439.5,-182.37"/>
<text text-anchor="middle" x="427.75" y="-169.82" font-family="Times,serif" font-size="9.00">&#45;8</text>
</g>
<!-- &#45;8&#45;&gt;4285 -->
<g id="edge7" class="edge">
<title>&#45;8&#45;&gt;4285</title>
<path fill="none" stroke="green" stroke-width="0.14" d="M433.33,-163.64C440.33,-153 452.7,-134.19 463.18,-118.26"/>
<polygon fill="green" stroke="green" stroke-width="0.14" points="466.08,-120.22 468.65,-109.94 460.23,-116.37 466.08,-120.22"/>
</g>
<!-- &#45;9 -->
<g id="node9" class="node">
<title>&#45;9</title>
<polygon fill="lightgray" stroke="black" points="357.5,-251.66 334,-251.66 334,-233.16 357.5,-233.16 357.5,-251.66"/>
<text text-anchor="middle" x="345.75" y="-239.11" font-family="Times,serif" font-size="9.00">&#45;9</text>
</g>
<!-- 4531 -->
<g id="node26" class="node">
<title>4531</title>
<ellipse fill="white" stroke="black" cx="481.75" cy="-173.12" rx="24.04" ry="24.04"/>
<text text-anchor="middle" x="481.75" y="-169.82" font-family="Times,serif" font-size="9.00">4531</text>
</g>
<!-- &#45;9&#45;&gt;4531 -->
<g id="edge37" class="edge">
<title>&#45;9&#45;&gt;4531</title>
<path fill="none" stroke="green" stroke-width="0.32" stroke-dasharray="1,5" d="M357.86,-237.12C377.51,-229.98 417.29,-214.66 448.75,-197.16 450.49,-196.19 452.25,-195.15 454.01,-194.07"/>
<polygon fill="green" stroke="green" stroke-width="0.32" points="455.77,-197.1 462.23,-188.71 451.94,-191.24 455.77,-197.1"/>
</g>
<!-- &#45;9&#45;&gt;4284 -->
<g id="edge20" class="edge">
<title>&#45;9&#45;&gt;4284</title>
<path fill="none" stroke="red" stroke-width="0.45" d="M333.68,-241.43C285.17,-241.26 105.4,-237.83 70.75,-197.16 56.89,-180.89 59.1,-166.99 70.75,-149.07 92.46,-115.68 137.88,-101.02 169.57,-94.69"/>
<polygon fill="red" stroke="red" stroke-width="0.45" points="169.85,-98.2 179.07,-92.97 168.6,-91.31 169.85,-98.2"/>
</g>
<!-- &#45;9&#45;&gt;4285 -->
<g id="edge16" class="edge">
<title>&#45;9&#45;&gt;4285</title>
<path fill="none" stroke="red" stroke-width="0.32" d="M345.18,-232.77C344.47,-215.14 345.26,-174.55 364.75,-149.07 385.47,-122 422.02,-106.39 448.77,-98.1"/>
<polygon fill="red" stroke="red" stroke-width="0.32" points="449.41,-101.56 458.03,-95.41 447.45,-94.84 449.41,-101.56"/>
</g>
<!-- &#45;10 -->
<g id="node10" class="node">
<title>&#45;10</title>
<polygon fill="lightgray" stroke="black" points="551.75,-182.37 523.75,-182.37 523.75,-163.87 551.75,-163.87 551.75,-182.37"/>
<text text-anchor="middle" x="537.75" y="-169.82" font-family="Times,serif" font-size="9.00">&#45;10</text>
</g>
<!-- &#45;10&#45;&gt;4284 -->
<g id="edge8" class="edge">
<title>&#45;10&#45;&gt;4284</title>
<path fill="none" stroke="red" stroke-width="0.5" d="M531.43,-163.59C527.25,-158.58 521.34,-152.57 514.75,-149.07 423.3,-100.65 298.14,-91.52 238.33,-90.08"/>
<polygon fill="red" stroke="red" stroke-width="0.5" points="238.76,-86.58 228.69,-89.9 238.63,-93.58 238.76,-86.58"/>
</g>
<!-- &#45;10&#45;&gt;4287 -->
<g id="edge14" class="edge">
<title>&#45;10&#45;&gt;4287</title>
<path fill="none" stroke="green" stroke-width="0.13" stroke-dasharray="1,5" d="M544.64,-163.46C548.85,-158.65 554.6,-152.89 560.75,-149.07 605.69,-121.16 665.39,-104.7 702.16,-96.53"/>
<polygon fill="green" stroke="green" stroke-width="0.13" points="702.65,-100 711.69,-94.48 701.18,-93.16 702.65,-100"/>
</g>
<!-- &#45;11 -->
<g id="node11" class="node">
<title>&#45;11</title>
<polygon fill="lightgray" stroke="black" points="597.75,-182.37 569.75,-182.37 569.75,-163.87 597.75,-163.87 597.75,-182.37"/>
<text text-anchor="middle" x="583.75" y="-169.82" font-family="Times,serif" font-size="9.00">&#45;11</text>
</g>
<!-- &#45;11&#45;&gt;4285 -->
<g id="edge3" class="edge">
<title>&#45;11&#45;&gt;4285</title>
<path fill="none" stroke="green" stroke-width="0.34" stroke-dasharray="1,5" d="M575.94,-163.72C571.61,-159.21 566.05,-153.66 560.75,-149.07 544.37,-134.88 524.88,-120.29 509.36,-109.17"/>
<polygon fill="green" stroke="green" stroke-width="0.34" points="511.78,-106.6 501.6,-103.66 507.73,-112.3 511.78,-106.6"/>
</g>
<!-- &#45;12 -->
<g id="node12" class="node">
<title>&#45;12</title>
<polygon fill="lightgray" stroke="black" points="681.75,-182.37 653.75,-182.37 653.75,-163.87 681.75,-163.87 681.75,-182.37"/>
<text text-anchor="middle" x="667.75" y="-169.82" font-family="Times,serif" font-size="9.00">&#45;12</text>
</g>
<!-- &#45;12&#45;&gt;4285 -->
<g id="edge5" class="edge">
<title>&#45;12&#45;&gt;4285</title>
<path fill="none" stroke="green" stroke-width="0.27" stroke-dasharray="1,5" d="M658.74,-163.39C653.51,-158.68 646.62,-153.04 639.75,-149.07 599.17,-125.68 547.62,-108.47 514.65,-98.85"/>
<polygon fill="green" stroke="green" stroke-width="0.27" points="516.02,-95.6 505.44,-96.22 514.09,-102.33 516.02,-95.6"/>
</g>
<!-- &#45;13 -->
<g id="node13" class="node">
<title>&#45;13</title>
<polygon fill="lightgray" stroke="black" points="727.75,-182.37 699.75,-182.37 699.75,-163.87 727.75,-163.87 727.75,-182.37"/>
<text text-anchor="middle" x="713.75" y="-169.82" font-family="Times,serif" font-size="9.00">&#45;13</text>
</g>
<!-- &#45;13&#45;&gt;4285 -->
<g id="edge19" class="edge">
<title>&#45;13&#45;&gt;4285</title>
<path fill="none" stroke="red" stroke-width="0.33" stroke-dasharray="1,5" d="M707.32,-163.79C703.1,-158.86 697.18,-152.85 690.75,-149.07 634.69,-116.17 559.36,-100.81 516.13,-94.28"/>
<polygon fill="red" stroke="red" stroke-width="0.33" points="516.76,-90.84 506.36,-92.88 515.76,-97.77 516.76,-90.84"/>
</g>
<!-- &#45;13&#45;&gt;4287 -->
<g id="edge4" class="edge">
<title>&#45;13&#45;&gt;4287</title>
<path fill="none" stroke="green" stroke-width="0.29" d="M716.02,-163.64C718.63,-153.92 723.05,-137.41 727.05,-122.48"/>
<polygon fill="green" stroke="green" stroke-width="0.29" points="730.41,-123.49 729.61,-112.93 723.64,-121.68 730.41,-123.49"/>
</g>
<!-- &#45;14 -->
<g id="node14" class="node">
<title>&#45;14</title>
<polygon fill="lightgray" stroke="black" points="107.75,-182.37 79.75,-182.37 79.75,-163.87 107.75,-163.87 107.75,-182.37"/>
<text text-anchor="middle" x="93.75" y="-169.82" font-family="Times,serif" font-size="9.00">&#45;14</text>
</g>
<!-- &#45;14&#45;&gt;4284 -->
<g id="edge34" class="edge">
<title>&#45;14&#45;&gt;4284</title>
<path fill="none" stroke="green" stroke-width="0.44" d="M101.48,-163.62C105.79,-159.09 111.35,-153.54 116.75,-149.07 135.07,-133.91 157.28,-118.89 174.67,-107.79"/>
<polygon fill="green" stroke="green" stroke-width="0.44" points="176.13,-111.01 182.72,-102.72 172.4,-105.09 176.13,-111.01"/>
</g>
<!-- &#45;15 -->
<g id="node15" class="node">
<title>&#45;15</title>
<polygon fill="lightgray" stroke="black" points="541.75,-251.66 513.75,-251.66 513.75,-233.16 541.75,-233.16 541.75,-251.66"/>
<text text-anchor="middle" x="527.75" y="-239.11" font-family="Times,serif" font-size="9.00">&#45;15</text>
</g>
<!-- &#45;16 -->
<g id="node16" class="node">
<title>&#45;16</title>
<polygon fill="lightgray" stroke="black" points="857.75,-182.37 829.75,-182.37 829.75,-163.87 857.75,-163.87 857.75,-182.37"/>
<text text-anchor="middle" x="843.75" y="-169.82" font-family="Times,serif" font-size="9.00">&#45;16</text>
</g>
<!-- &#45;16&#45;&gt;4287 -->
<g id="edge17" class="edge">
<title>&#45;16&#45;&gt;4287</title>
<path fill="none" stroke="red" stroke-width="0.23" stroke-dasharray="1,5" d="M836,-163.64C831.69,-159.12 826.13,-153.57 820.75,-149.07 802.91,-134.15 781.38,-119.22 764.46,-108.11"/>
<polygon fill="red" stroke="red" stroke-width="0.23" points="766.65,-105.37 756.36,-102.86 762.84,-111.24 766.65,-105.37"/>
</g>
<!-- &#45;17 -->
<g id="node17" class="node">
<title>&#45;17</title>
<polygon fill="lightgray" stroke="black" points="587.75,-251.66 559.75,-251.66 559.75,-233.16 587.75,-233.16 587.75,-251.66"/>
<text text-anchor="middle" x="573.75" y="-239.11" font-family="Times,serif" font-size="9.00">&#45;17</text>
</g>
<!-- &#45;18 -->
<g id="node18" class="node">
<title>&#45;18</title>
<polygon fill="lightgray" stroke="black" points="153.75,-182.37 125.75,-182.37 125.75,-163.87 153.75,-163.87 153.75,-182.37"/>
<text text-anchor="middle" x="139.75" y="-169.82" font-family="Times,serif" font-size="9.00">&#45;18</text>
</g>
<!-- &#45;18&#45;&gt;4284 -->
<g id="edge13" class="edge">
<title>&#45;18&#45;&gt;4284</title>
<path fill="none" stroke="red" stroke-width="0.38" d="M146.36,-163.64C154.95,-152.62 170.37,-132.85 183.06,-116.57"/>
<polygon fill="red" stroke="red" stroke-width="0.38" points="185.66,-118.93 189.04,-108.89 180.13,-114.63 185.66,-118.93"/>
</g>
<!-- &#45;19 -->
<g id="node19" class="node">
<title>&#45;19</title>
<polygon fill="lightgray" stroke="black" points="633.75,-251.66 605.75,-251.66 605.75,-233.16 633.75,-233.16 633.75,-251.66"/>
<text text-anchor="middle" x="619.75" y="-239.11" font-family="Times,serif" font-size="9.00">&#45;19</text>
</g>
<!-- &#45;20 -->
<g id="node20" class="node">
<title>&#45;20</title>
<polygon fill="lightgray" stroke="black" points="495.75,-251.66 467.75,-251.66 467.75,-233.16 495.75,-233.16 495.75,-251.66"/>
<text text-anchor="middle" x="481.75" y="-239.11" font-family="Times,serif" font-size="9.00">&#45;20</text>
</g>
<!-- &#45;20&#45;&gt;4531 -->
<g id="edge35" class="edge">
<title>&#45;20&#45;&gt;4531</title>
<path fill="none" stroke="green" stroke-width="1.1" d="M481.75,-232.89C481.75,-226.74 481.75,-217.99 481.75,-209.12"/>
<polygon fill="green" stroke="green" stroke-width="1.1" points="485.25,-209.25 481.75,-199.25 478.25,-209.25 485.25,-209.25"/>
</g>
<!-- &#45;20&#45;&gt;4284 -->
<g id="edge10" class="edge">
<title>&#45;20&#45;&gt;4284</title>
<path fill="none" stroke="green" stroke-width="0.2" d="M467.34,-240.58C421.07,-237.65 277.22,-226.33 242.75,-197.16 221.17,-178.89 211.53,-147.65 207.22,-123.61"/>
<polygon fill="green" stroke="green" stroke-width="0.2" points="210.69,-123.11 205.69,-113.77 203.77,-124.19 210.69,-123.11"/>
</g>
<!-- &#45;20&#45;&gt;4285 -->
<g id="edge15" class="edge">
<title>&#45;20&#45;&gt;4285</title>
<path fill="none" stroke="green" stroke-width="0.23" stroke-dasharray="1,5" d="M495.86,-236.34C498.79,-235.28 501.87,-234.18 504.75,-233.16 550.04,-217.04 578.98,-236.4 606.75,-197.16 619.09,-179.71 618.19,-167.13 606.75,-149.07 586.87,-117.7 545.35,-102.68 515.61,-95.71"/>
<polygon fill="green" stroke="green" stroke-width="0.23" points="516.5,-92.32 505.99,-93.64 515.03,-99.17 516.5,-92.32"/>
</g>
<!-- 0 -->
<g id="node21" class="node">
<title>0</title>
<ellipse fill="lightblue" stroke="black" cx="619.75" cy="-14.5" rx="14.5" ry="14.5"/>
<text text-anchor="middle" x="619.75" y="-11.2" font-family="Times,serif" font-size="9.00">0</text>
</g>
<!-- 0&#45;&gt;0 -->
<g id="edge21" class="edge">
<title>0&#45;&gt;0</title>
<path fill="none" stroke="green" stroke-width="0.24" d="M629.73,-25.19C640.31,-31.89 652.25,-28.33 652.25,-14.5 652.25,-4.77 646.35,-0.12 639.16,-0.55"/>
<polygon fill="green" stroke="green" stroke-width="0.24" points="638.39,2.89 630.07,-3.68 640.67,-3.73 638.39,2.89"/>
</g>
<!-- 1 -->
<g id="node22" class="node">
<title>1</title>
<ellipse fill="lightblue" stroke="black" cx="138.75" cy="-14.5" rx="14.5" ry="14.5"/>
<text text-anchor="middle" x="138.75" y="-11.2" font-family="Times,serif" font-size="9.00">1</text>
</g>
<!-- 1&#45;&gt;1 -->
<g id="edge32" class="edge">
<title>1&#45;&gt;1</title>
<path fill="none" stroke="red" stroke-width="0.23" stroke-dasharray="1,5" d="M148.73,-25.19C159.31,-31.89 171.25,-28.33 171.25,-14.5 171.25,-4.77 165.35,-0.12 158.16,-0.55"/>
<polygon fill="red" stroke="red" stroke-width="0.23" points="157.37,2.88 149.05,-3.69 159.65,-3.74 157.37,2.88"/>
</g>
<!-- 2 -->
<g id="node23" class="node">
<title>2</title>
<ellipse fill="lightblue" stroke="black" cx="203.75" cy="-14.5" rx="14.5" ry="14.5"/>
<text text-anchor="middle" x="203.75" y="-11.2" font-family="Times,serif" font-size="9.00">2</text>
</g>
<!-- 3 -->
<g id="node24" class="node">
<title>3</title>
<ellipse fill="lightblue" stroke="black" cx="250.75" cy="-14.5" rx="14.5" ry="14.5"/>
<text text-anchor="middle" x="250.75" y="-11.2" font-family="Times,serif" font-size="9.00">3</text>
</g>
<!-- 4 -->
<g id="node25" class="node">
<title>4</title>
<ellipse fill="lightblue" stroke="black" cx="399.75" cy="-14.5" rx="14.5" ry="14.5"/>
<text text-anchor="middle" x="399.75" y="-11.2" font-family="Times,serif" font-size="9.00">4</text>
</g>
<!-- 4531&#45;&gt;4285 -->
<g id="edge36" class="edge">
<title>4531&#45;&gt;4285</title>
<path fill="none" stroke="green" stroke-width="0.16" d="M481.75,-148.81C481.75,-140.93 481.75,-131.96 481.75,-123.45"/>
<polygon fill="green" stroke="green" stroke-width="0.16" points="485.25,-123.63 481.75,-113.63 478.25,-123.63 485.25,-123.63"/>
</g>
<!-- 4284&#45;&gt;1 -->
<g id="edge11" class="edge">
<title>4284&#45;&gt;1</title>
<path fill="none" stroke="green" stroke-width="0.51" d="M188.02,-70.47C178.08,-59.38 165.25,-45.07 155.18,-33.83"/>
<polygon fill="green" stroke="green" stroke-width="0.51" points="157.91,-31.63 148.63,-26.52 152.7,-36.3 157.91,-31.63"/>
</g>
<!-- 4284&#45;&gt;2 -->
<g id="edge27" class="edge">
<title>4284&#45;&gt;2</title>
<path fill="none" stroke="red" stroke-width="0.54" d="M203.75,-64.68C203.75,-56.69 203.75,-47.73 203.75,-39.67"/>
<polygon fill="red" stroke="red" stroke-width="0.54" points="207.25,-39.9 203.75,-29.9 200.25,-39.9 207.25,-39.9"/>
</g>
<!-- 4284&#45;&gt;3 -->
<g id="edge1" class="edge">
<title>4284&#45;&gt;3</title>
<path fill="none" stroke="green" stroke-width="0.59" d="M216.59,-68.21C223.02,-58.29 230.79,-46.29 237.3,-36.25"/>
<polygon fill="green" stroke="green" stroke-width="0.59" points="240.09,-38.39 242.59,-28.1 234.21,-34.59 240.09,-38.39"/>
</g>
<!-- 4284&#45;&gt;4 -->
<g id="edge31" class="edge">
<title>4284&#45;&gt;4</title>
<path fill="none" stroke="red" stroke-width="0.5" d="M226.23,-79.71C263.73,-65.83 338.66,-38.1 376.6,-24.06"/>
<polygon fill="red" stroke="red" stroke-width="0.5" points="377.38,-27.51 385.54,-20.75 374.95,-20.94 377.38,-27.51"/>
</g>
<!-- 4285&#45;&gt;0 -->
<g id="edge25" class="edge">
<title>4285&#45;&gt;0</title>
<path fill="none" stroke="red" stroke-width="0.2" stroke-dasharray="1,5" d="M503.01,-76.86C528.75,-63.33 571.89,-40.65 597.9,-26.98"/>
<polygon fill="red" stroke="red" stroke-width="0.2" points="599.46,-30.11 606.69,-22.36 596.21,-23.92 599.46,-30.11"/>
</g>
<!-- 4285&#45;&gt;4 -->
<g id="edge28" class="edge">
<title>4285&#45;&gt;4</title>
<path fill="none" stroke="red" stroke-width="0.17" d="M463.96,-72.29C450.25,-60.17 431.4,-43.49 417.66,-31.34"/>
<polygon fill="red" stroke="red" stroke-width="0.17" points="420.25,-28.95 410.44,-24.95 415.61,-34.2 420.25,-28.95"/>
</g>
<!-- 4285&#45;&gt;4285 -->
<g id="edge24" class="edge">
<title>4285&#45;&gt;4285</title>
<path fill="none" stroke="red" stroke-width="0.61" stroke-dasharray="1,5" d="M502.08,-102.34C513.38,-104.82 523.79,-100.39 523.79,-89.03 523.79,-81.4 519.09,-76.9 512.58,-75.52"/>
<polygon fill="red" stroke="red" stroke-width="0.61" points="512.93,-72.01 503,-75.71 513.07,-79.01 512.93,-72.01"/>
</g>
<!-- 4287&#45;&gt;0 -->
<g id="edge30" class="edge">
<title>4287&#45;&gt;0</title>
<path fill="none" stroke="green" stroke-width="0.45" d="M715.54,-75.4C694.6,-62.3 662.02,-41.93 640.78,-28.65"/>
<polygon fill="green" stroke="green" stroke-width="0.45" points="642.81,-25.79 632.48,-23.46 639.1,-31.72 642.81,-25.79"/>
</g>
</g>
</svg>
