<?xml version="1.0" encoding="UTF-8" standalone="no"?>
<!DOCTYPE svg PUBLIC "-//W3C//DTD SVG 1.1//EN"
 "http://www.w3.org/Graphics/SVG/1.1/DTD/svg11.dtd">
<!-- Generated by graphviz version 12.1.1 (20240910.0053)
 -->
<!-- Pages: 1 -->
<svg width="830pt" height="390pt"
 viewBox="0.00 0.00 829.75 389.64" xmlns="http://www.w3.org/2000/svg" xmlns:xlink="http://www.w3.org/1999/xlink">
<g id="graph0" class="graph" transform="scale(1 1) rotate(0) translate(4 385.64)">
<polygon fill="white" stroke="none" points="-4,4 -4,-385.64 825.75,-385.64 825.75,4 -4,4"/>
<!-- &#45;1 -->
<g id="node1" class="node">
<title>&#45;1</title>
<polygon fill="lightgray" stroke="black" points="333.75,-315.53 310.25,-315.53 310.25,-297.03 333.75,-297.03 333.75,-315.53"/>
<text text-anchor="middle" x="322" y="-302.98" font-family="Times,serif" font-size="9.00">&#45;1</text>
</g>
<!-- 149 -->
<g id="node27" class="node">
<title>149</title>
<ellipse fill="white" stroke="black" cx="232" cy="-228.56" rx="20.86" ry="20.86"/>
<text text-anchor="middle" x="232" y="-225.26" font-family="Times,serif" font-size="9.00">149</text>
</g>
<!-- &#45;1&#45;&gt;149 -->
<g id="edge19" class="edge">
<title>&#45;1&#45;&gt;149</title>
<path fill="none" stroke="red" stroke-width="0.2" stroke-dasharray="1,5" d="M313.15,-296.62C309.45,-293.08 305.08,-288.99 301,-285.42 286.4,-272.64 269.48,-258.93 256.04,-248.28"/>
<polygon fill="red" stroke="red" stroke-width="0.2" points="258.44,-245.71 248.42,-242.27 254.11,-251.21 258.44,-245.71"/>
</g>
<!-- 151 -->
<g id="node29" class="node">
<title>151</title>
<ellipse fill="white" stroke="black" cx="589" cy="-228.56" rx="20.86" ry="20.86"/>
<text text-anchor="middle" x="589" y="-225.26" font-family="Times,serif" font-size="9.00">151</text>
</g>
<!-- &#45;1&#45;&gt;151 -->
<g id="edge36" class="edge">
<title>&#45;1&#45;&gt;151</title>
<path fill="none" stroke="green" stroke-width="0.31" stroke-dasharray="1,5" d="M328.99,-296.82C332.74,-292.8 337.69,-288.26 343,-285.42 413.76,-247.64 509.18,-235.33 557.76,-231.38"/>
<polygon fill="green" stroke="green" stroke-width="0.31" points="557.78,-234.89 567.49,-230.65 557.26,-227.91 557.78,-234.89"/>
</g>
<!-- 152 -->
<g id="node30" class="node">
<title>152</title>
<ellipse fill="white" stroke="black" cx="389" cy="-228.56" rx="20.86" ry="20.86"/>
<text text-anchor="middle" x="389" y="-225.26" font-family="Times,serif" font-size="9.00">152</text>
</g>
<!-- &#45;1&#45;&gt;152 -->
<g id="edge42" class="edge">
<title>&#45;1&#45;&gt;152</title>
<path fill="none" stroke="green" stroke-width="0.42" d="M329.69,-296.6C339.08,-285.98 355.35,-267.59 368.48,-252.75"/>
<polygon fill="green" stroke="green" stroke-width="0.42" points="370.96,-255.23 374.96,-245.43 365.71,-250.6 370.96,-255.23"/>
</g>
<!-- &#45;2 -->
<g id="node2" class="node">
<title>&#45;2</title>
<polygon fill="lightgray" stroke="black" points="673.75,-381.64 650.25,-381.64 650.25,-363.14 673.75,-363.14 673.75,-381.64"/>
<text text-anchor="middle" x="662" y="-369.09" font-family="Times,serif" font-size="9.00">&#45;2</text>
</g>
<!-- &#45;3 -->
<g id="node3" class="node">
<title>&#45;3</title>
<polygon fill="lightgray" stroke="black" points="69.75,-315.53 46.25,-315.53 46.25,-297.03 69.75,-297.03 69.75,-315.53"/>
<text text-anchor="middle" x="58" y="-302.98" font-family="Times,serif" font-size="9.00">&#45;3</text>
</g>
<!-- &#45;3&#45;&gt;149 -->
<g id="edge17" class="edge">
<title>&#45;3&#45;&gt;149</title>
<path fill="none" stroke="red" stroke-width="0.14" d="M65.53,-296.71C69.27,-292.85 74.05,-288.48 79,-285.42 118.28,-261.13 169.72,-245.1 201.81,-236.67"/>
<polygon fill="red" stroke="red" stroke-width="0.14" points="202.48,-240.12 211.3,-234.26 200.75,-233.33 202.48,-240.12"/>
</g>
<!-- &#45;4 -->
<g id="node4" class="node">
<title>&#45;4</title>
<polygon fill="lightgray" stroke="black" points="821.75,-315.53 798.25,-315.53 798.25,-297.03 821.75,-297.03 821.75,-315.53"/>
<text text-anchor="middle" x="810" y="-302.98" font-family="Times,serif" font-size="9.00">&#45;4</text>
</g>
<!-- 150 -->
<g id="node28" class="node">
<title>150</title>
<ellipse fill="white" stroke="black" cx="438" cy="-85.85" rx="20.86" ry="20.86"/>
<text text-anchor="middle" x="438" y="-82.55" font-family="Times,serif" font-size="9.00">150</text>
</g>
<!-- &#45;4&#45;&gt;150 -->
<g id="edge46" class="edge">
<title>&#45;4&#45;&gt;150</title>
<path fill="none" stroke="green" stroke-width="0.18" stroke-dasharray="1,5" d="M806.47,-296.7C794.56,-268.95 752.95,-181.23 688,-142.71 617.44,-100.86 518.76,-90.32 469.12,-87.7"/>
<polygon fill="green" stroke="green" stroke-width="0.18" points="469.44,-84.21 459.29,-87.25 469.12,-91.2 469.44,-84.21"/>
</g>
<!-- &#45;4&#45;&gt;151 -->
<g id="edge7" class="edge">
<title>&#45;4&#45;&gt;151</title>
<path fill="none" stroke="green" stroke-width="0.56" d="M802.95,-296.93C799.18,-292.94 794.24,-288.39 789,-285.42 734.36,-254.51 661.52,-239.8 620.52,-233.56"/>
<polygon fill="green" stroke="green" stroke-width="0.56" points="621.08,-230.11 610.68,-232.14 620.08,-237.03 621.08,-230.11"/>
</g>
<!-- &#45;5 -->
<g id="node5" class="node">
<title>&#45;5</title>
<polygon fill="lightgray" stroke="black" points="157.75,-315.53 134.25,-315.53 134.25,-297.03 157.75,-297.03 157.75,-315.53"/>
<text text-anchor="middle" x="146" y="-302.98" font-family="Times,serif" font-size="9.00">&#45;5</text>
</g>
<!-- &#45;5&#45;&gt;149 -->
<g id="edge26" class="edge">
<title>&#45;5&#45;&gt;149</title>
<path fill="none" stroke="green" stroke-width="0.16" d="M154.91,-296.68C158.61,-293.15 162.98,-289.05 167,-285.42 180.6,-273.16 196.14,-259.78 208.62,-249.19"/>
<polygon fill="green" stroke="green" stroke-width="0.16" points="210.76,-251.96 216.14,-242.83 206.24,-246.62 210.76,-251.96"/>
</g>
<!-- &#45;5&#45;&gt;150 -->
<g id="edge34" class="edge">
<title>&#45;5&#45;&gt;150</title>
<path fill="none" stroke="green" stroke-width="0.31" d="M149.03,-296.65C155.87,-278.23 174.14,-234.52 202,-207.7 263.49,-148.52 359.69,-111.68 408.08,-95.85"/>
<polygon fill="green" stroke="green" stroke-width="0.31" points="409.02,-99.23 417.48,-92.85 406.89,-92.56 409.02,-99.23"/>
</g>
<!-- &#45;5&#45;&gt;152 -->
<g id="edge38" class="edge">
<title>&#45;5&#45;&gt;152</title>
<path fill="none" stroke="red" stroke-width="0.72" d="M153.01,-296.87C156.78,-292.86 161.72,-288.32 167,-285.42 229.02,-251.38 312.12,-237.67 357.01,-232.48"/>
<polygon fill="red" stroke="red" stroke-width="0.72" points="357.17,-235.98 366.73,-231.43 356.41,-229.02 357.17,-235.98"/>
</g>
<!-- &#45;6 -->
<g id="node6" class="node">
<title>&#45;6</title>
<polygon fill="lightgray" stroke="black" points="199.75,-315.53 176.25,-315.53 176.25,-297.03 199.75,-297.03 199.75,-315.53"/>
<text text-anchor="middle" x="188" y="-302.98" font-family="Times,serif" font-size="9.00">&#45;6</text>
</g>
<!-- &#45;6&#45;&gt;149 -->
<g id="edge1" class="edge">
<title>&#45;6&#45;&gt;149</title>
<path fill="none" stroke="green" stroke-width="0.44" stroke-dasharray="1,5" d="M193.05,-296.6C198.79,-286.72 208.43,-270.11 216.69,-255.91"/>
<polygon fill="green" stroke="green" stroke-width="0.44" points="219.53,-257.99 221.53,-247.58 213.48,-254.47 219.53,-257.99"/>
</g>
<!-- &#45;7 -->
<g id="node7" class="node">
<title>&#45;7</title>
<polygon fill="lightgray" stroke="black" points="375.75,-315.53 352.25,-315.53 352.25,-297.03 375.75,-297.03 375.75,-315.53"/>
<text text-anchor="middle" x="364" y="-302.98" font-family="Times,serif" font-size="9.00">&#45;7</text>
</g>
<!-- &#45;7&#45;&gt;152 -->
<g id="edge23" class="edge">
<title>&#45;7&#45;&gt;152</title>
<path fill="none" stroke="red" stroke-width="0.92" d="M366.87,-296.6C369.85,-287.55 374.7,-272.87 379.1,-259.55"/>
<polygon fill="red" stroke="red" stroke-width="0.92" points="382.39,-260.75 382.2,-250.16 375.74,-258.56 382.39,-260.75"/>
</g>
<!-- &#45;8 -->
<g id="node8" class="node">
<title>&#45;8</title>
<polygon fill="lightgray" stroke="black" points="589.75,-315.53 566.25,-315.53 566.25,-297.03 589.75,-297.03 589.75,-315.53"/>
<text text-anchor="middle" x="578" y="-302.98" font-family="Times,serif" font-size="9.00">&#45;8</text>
</g>
<!-- &#45;8&#45;&gt;151 -->
<g id="edge37" class="edge">
<title>&#45;8&#45;&gt;151</title>
<path fill="none" stroke="red" stroke-width="0.18" stroke-dasharray="1,5" d="M579.26,-296.6C580.58,-287.49 582.74,-272.69 584.68,-259.3"/>
<polygon fill="red" stroke="red" stroke-width="0.18" points="588.1,-260.13 586.07,-249.73 581.17,-259.12 588.1,-260.13"/>
</g>
<!-- &#45;8&#45;&gt;152 -->
<g id="edge16" class="edge">
<title>&#45;8&#45;&gt;152</title>
<path fill="none" stroke="green" stroke-width="0.31" stroke-dasharray="1,5" d="M570.51,-296.64C566.77,-292.77 561.99,-288.41 557,-285.42 512.9,-259.03 454.74,-243.29 419.7,-235.54"/>
<polygon fill="green" stroke="green" stroke-width="0.31" points="420.58,-232.15 410.07,-233.48 419.12,-238.99 420.58,-232.15"/>
</g>
<!-- &#45;9 -->
<g id="node9" class="node">
<title>&#45;9</title>
<polygon fill="lightgray" stroke="black" points="501.75,-315.53 478.25,-315.53 478.25,-297.03 501.75,-297.03 501.75,-315.53"/>
<text text-anchor="middle" x="490" y="-302.98" font-family="Times,serif" font-size="9.00">&#45;9</text>
</g>
<!-- &#45;9&#45;&gt;149 -->
<g id="edge5" class="edge">
<title>&#45;9&#45;&gt;149</title>
<path fill="none" stroke="green" stroke-width="0.4" d="M477.86,-300.99C465.97,-296.84 447.32,-290.45 431,-285.42 371.6,-267.1 301.48,-248 262.34,-237.56"/>
<polygon fill="green" stroke="green" stroke-width="0.4" points="263.3,-234.2 252.74,-235.01 261.5,-240.96 263.3,-234.2"/>
</g>
<!-- &#45;9&#45;&gt;150 -->
<g id="edge11" class="edge">
<title>&#45;9&#45;&gt;150</title>
<path fill="none" stroke="red" stroke-width="0.31" stroke-dasharray="1,5" d="M487.77,-296.54C482.35,-275.24 468.11,-218.9 457,-171.7 452.71,-153.5 448.13,-133.05 444.53,-116.78"/>
<polygon fill="red" stroke="red" stroke-width="0.31" points="448,-116.23 442.43,-107.22 441.16,-117.74 448,-116.23"/>
</g>
<!-- &#45;9&#45;&gt;151 -->
<g id="edge18" class="edge">
<title>&#45;9&#45;&gt;151</title>
<path fill="none" stroke="red" stroke-width="0.21" d="M498.34,-296.89C502.1,-293.24 506.66,-289 511,-285.42 527.92,-271.47 548.06,-257.1 563.63,-246.43"/>
<polygon fill="red" stroke="red" stroke-width="0.21" points="565.21,-249.59 571.51,-241.08 561.27,-243.8 565.21,-249.59"/>
</g>
<!-- &#45;9&#45;&gt;152 -->
<g id="edge35" class="edge">
<title>&#45;9&#45;&gt;152</title>
<path fill="none" stroke="green" stroke-width="0.2" stroke-dasharray="1,5" d="M478.63,-296.55C474.09,-293.08 468.81,-289.05 464,-285.42 447.21,-272.75 428.2,-258.6 413.52,-247.71"/>
<polygon fill="green" stroke="green" stroke-width="0.2" points="415.79,-245.04 405.67,-241.89 411.62,-250.66 415.79,-245.04"/>
</g>
<!-- &#45;10 -->
<g id="node10" class="node">
<title>&#45;10</title>
<polygon fill="lightgray" stroke="black" points="28,-315.53 0,-315.53 0,-297.03 28,-297.03 28,-315.53"/>
<text text-anchor="middle" x="14" y="-302.98" font-family="Times,serif" font-size="9.00">&#45;10</text>
</g>
<!-- &#45;10&#45;&gt;149 -->
<g id="edge10" class="edge">
<title>&#45;10&#45;&gt;149</title>
<path fill="none" stroke="red" stroke-width="0.58" stroke-dasharray="1,5" d="M22.28,-296.57C26.39,-292.68 31.62,-288.33 37,-285.42 90.54,-256.47 160.68,-241.15 200.59,-234.25"/>
<polygon fill="red" stroke="red" stroke-width="0.58" points="201.09,-237.72 210.39,-232.63 199.95,-230.81 201.09,-237.72"/>
</g>
<!-- &#45;11 -->
<g id="node11" class="node">
<title>&#45;11</title>
<polygon fill="lightgray" stroke="black" points="246,-315.53 218,-315.53 218,-297.03 246,-297.03 246,-315.53"/>
<text text-anchor="middle" x="232" y="-302.98" font-family="Times,serif" font-size="9.00">&#45;11</text>
</g>
<!-- &#45;11&#45;&gt;149 -->
<g id="edge13" class="edge">
<title>&#45;11&#45;&gt;149</title>
<path fill="none" stroke="red" stroke-width="0.48" d="M232,-296.6C232,-287.73 232,-273.46 232,-260.36"/>
<polygon fill="red" stroke="red" stroke-width="0.48" points="235.5,-260.5 232,-250.5 228.5,-260.5 235.5,-260.5"/>
</g>
<!-- &#45;11&#45;&gt;152 -->
<g id="edge14" class="edge">
<title>&#45;11&#45;&gt;152</title>
<path fill="none" stroke="red" stroke-width="0.16" d="M240.44,-296.85C244.58,-293.02 249.79,-288.64 255,-285.42 288.61,-264.65 331.3,-248.37 359.35,-238.87"/>
<polygon fill="red" stroke="red" stroke-width="0.16" points="360.35,-242.23 368.74,-235.76 358.15,-235.58 360.35,-242.23"/>
</g>
<!-- &#45;12 -->
<g id="node12" class="node">
<title>&#45;12</title>
<polygon fill="lightgray" stroke="black" points="720,-381.64 692,-381.64 692,-363.14 720,-363.14 720,-381.64"/>
<text text-anchor="middle" x="706" y="-369.09" font-family="Times,serif" font-size="9.00">&#45;12</text>
</g>
<!-- &#45;13 -->
<g id="node13" class="node">
<title>&#45;13</title>
<polygon fill="lightgray" stroke="black" points="632,-381.64 604,-381.64 604,-363.14 632,-363.14 632,-381.64"/>
<text text-anchor="middle" x="618" y="-369.09" font-family="Times,serif" font-size="9.00">&#45;13</text>
</g>
<!-- 403 -->
<g id="node26" class="node">
<title>403</title>
<ellipse fill="white" stroke="black" cx="667" cy="-306.28" rx="20.86" ry="20.86"/>
<text text-anchor="middle" x="667" y="-302.98" font-family="Times,serif" font-size="9.00">403</text>
</g>
<!-- &#45;13&#45;&gt;403 -->
<g id="edge44" class="edge">
<title>&#45;13&#45;&gt;403</title>
<path fill="none" stroke="green" stroke-width="0.28" d="M624.61,-362.74C630.73,-354.74 640.12,-342.44 648.52,-331.47"/>
<polygon fill="green" stroke="green" stroke-width="0.28" points="651.11,-333.83 654.4,-323.76 645.55,-329.58 651.11,-333.83"/>
</g>
<!-- &#45;13&#45;&gt;151 -->
<g id="edge29" class="edge">
<title>&#45;13&#45;&gt;151</title>
<path fill="none" stroke="red" stroke-width="0.19" stroke-dasharray="1,5" d="M616.27,-362.94C612.19,-342.98 601.79,-292.1 595.07,-259.27"/>
<polygon fill="red" stroke="red" stroke-width="0.19" points="598.53,-258.67 593.09,-249.58 591.67,-260.08 598.53,-258.67"/>
</g>
<!-- &#45;13&#45;&gt;152 -->
<g id="edge20" class="edge">
<title>&#45;13&#45;&gt;152</title>
<path fill="none" stroke="green" stroke-width="0.13" d="M603.69,-369.96C575.69,-366.58 512.61,-356.11 469,-327.14 461.27,-322 428.72,-280.91 407.59,-253.71"/>
<polygon fill="green" stroke="green" stroke-width="0.13" points="410.45,-251.69 401.56,-245.93 404.92,-255.98 410.45,-251.69"/>
</g>
<!-- &#45;14 -->
<g id="node14" class="node">
<title>&#45;14</title>
<polygon fill="lightgray" stroke="black" points="734,-315.53 706,-315.53 706,-297.03 734,-297.03 734,-315.53"/>
<text text-anchor="middle" x="720" y="-302.98" font-family="Times,serif" font-size="9.00">&#45;14</text>
</g>
<!-- &#45;14&#45;&gt;150 -->
<g id="edge6" class="edge">
<title>&#45;14&#45;&gt;150</title>
<path fill="none" stroke="green" stroke-width="0.67" d="M717.78,-296.69C710.34,-269.66 683.68,-185.6 630,-142.71 582.77,-104.98 510.96,-92.73 469.86,-88.76"/>
<polygon fill="green" stroke="green" stroke-width="0.67" points="470.4,-85.29 460.14,-87.93 469.8,-92.27 470.4,-85.29"/>
</g>
<!-- &#45;14&#45;&gt;151 -->
<g id="edge43" class="edge">
<title>&#45;14&#45;&gt;151</title>
<path fill="none" stroke="red" stroke-width="0.25" stroke-dasharray="1,5" d="M711,-296.64C706.91,-292.95 701.89,-288.73 697,-285.42 671.41,-268.11 639.79,-252.34 617.39,-242"/>
<polygon fill="red" stroke="red" stroke-width="0.25" points="619,-238.89 608.45,-237.94 616.11,-245.26 619,-238.89"/>
</g>
<!-- &#45;15 -->
<g id="node15" class="node">
<title>&#45;15</title>
<polygon fill="lightgray" stroke="black" points="548,-315.53 520,-315.53 520,-297.03 548,-297.03 548,-315.53"/>
<text text-anchor="middle" x="534" y="-302.98" font-family="Times,serif" font-size="9.00">&#45;15</text>
</g>
<!-- &#45;15&#45;&gt;150 -->
<g id="edge28" class="edge">
<title>&#45;15&#45;&gt;150</title>
<path fill="none" stroke="green" stroke-width="0.3" d="M535.73,-296.76C540.43,-271.28 551.16,-194.28 521,-142.71 508.91,-122.03 485.74,-107.41 466.95,-98.33"/>
<polygon fill="green" stroke="green" stroke-width="0.3" points="468.58,-95.23 458.03,-94.28 465.68,-101.6 468.58,-95.23"/>
</g>
<!-- &#45;15&#45;&gt;151 -->
<g id="edge41" class="edge">
<title>&#45;15&#45;&gt;151</title>
<path fill="none" stroke="red" stroke-width="0.36" d="M540.31,-296.6C547.76,-286.33 560.49,-268.82 571.06,-254.26"/>
<polygon fill="red" stroke="red" stroke-width="0.36" points="573.61,-256.71 576.65,-246.56 567.94,-252.59 573.61,-256.71"/>
</g>
<!-- &#45;15&#45;&gt;152 -->
<g id="edge32" class="edge">
<title>&#45;15&#45;&gt;152</title>
<path fill="none" stroke="red" stroke-width="0.31" stroke-dasharray="1,5" d="M525.51,-296.93C521.35,-293.12 516.15,-288.73 511,-285.42 481.06,-266.2 443.42,-250.03 417.93,-240.11"/>
<polygon fill="red" stroke="red" stroke-width="0.31" points="419.5,-236.97 408.9,-236.67 417,-243.51 419.5,-236.97"/>
</g>
<!-- &#45;16 -->
<g id="node16" class="node">
<title>&#45;16</title>
<polygon fill="lightgray" stroke="black" points="117,-166.46 89,-166.46 89,-147.96 117,-147.96 117,-166.46"/>
<text text-anchor="middle" x="103" y="-153.91" font-family="Times,serif" font-size="9.00">&#45;16</text>
</g>
<!-- &#45;16&#45;&gt;150 -->
<g id="edge9" class="edge">
<title>&#45;16&#45;&gt;150</title>
<path fill="none" stroke="red" stroke-width="0.36" d="M117.23,-148.44C121.55,-146.33 126.38,-144.21 131,-142.71 228.8,-110.89 350.38,-95.55 406.68,-89.74"/>
<polygon fill="red" stroke="red" stroke-width="0.36" points="406.9,-93.24 416.5,-88.76 406.2,-86.27 406.9,-93.24"/>
</g>
<!-- &#45;17 -->
<g id="node17" class="node">
<title>&#45;17</title>
<polygon fill="lightgray" stroke="black" points="422,-315.53 394,-315.53 394,-297.03 422,-297.03 422,-315.53"/>
<text text-anchor="middle" x="408" y="-302.98" font-family="Times,serif" font-size="9.00">&#45;17</text>
</g>
<!-- &#45;17&#45;&gt;152 -->
<g id="edge33" class="edge">
<title>&#45;17&#45;&gt;152</title>
<path fill="none" stroke="green" stroke-width="0.23" d="M405.82,-296.6C403.52,-287.43 399.77,-272.48 396.39,-259.03"/>
<polygon fill="green" stroke="green" stroke-width="0.23" points="399.83,-258.33 394,-249.48 393.04,-260.03 399.83,-258.33"/>
</g>
<!-- &#45;18 -->
<g id="node18" class="node">
<title>&#45;18</title>
<polygon fill="lightgray" stroke="black" points="780,-315.53 752,-315.53 752,-297.03 780,-297.03 780,-315.53"/>
<text text-anchor="middle" x="766" y="-302.98" font-family="Times,serif" font-size="9.00">&#45;18</text>
</g>
<!-- &#45;18&#45;&gt;150 -->
<g id="edge2" class="edge">
<title>&#45;18&#45;&gt;150</title>
<path fill="none" stroke="red" stroke-width="0.59" stroke-dasharray="1,5" d="M763.09,-296.86C753.22,-269.58 718.19,-183.15 658,-142.71 599.35,-103.3 514.93,-91.69 469.62,-88.28"/>
<polygon fill="red" stroke="red" stroke-width="0.59" points="470.08,-84.8 459.87,-87.63 469.62,-91.78 470.08,-84.8"/>
</g>
<!-- &#45;18&#45;&gt;151 -->
<g id="edge4" class="edge">
<title>&#45;18&#45;&gt;151</title>
<path fill="none" stroke="green" stroke-width="0.34" d="M757.62,-296.74C753.5,-292.88 748.28,-288.52 743,-285.42 703.1,-262.04 651.75,-245.82 619.6,-237.1"/>
<polygon fill="green" stroke="green" stroke-width="0.34" points="620.54,-233.73 609.98,-234.57 618.75,-240.5 620.54,-233.73"/>
</g>
<!-- &#45;19 -->
<g id="node19" class="node">
<title>&#45;19</title>
<polygon fill="lightgray" stroke="black" points="292,-315.53 264,-315.53 264,-297.03 292,-297.03 292,-315.53"/>
<text text-anchor="middle" x="278" y="-302.98" font-family="Times,serif" font-size="9.00">&#45;19</text>
</g>
<!-- &#45;19&#45;&gt;149 -->
<g id="edge24" class="edge">
<title>&#45;19&#45;&gt;149</title>
<path fill="none" stroke="green" stroke-width="0.44" stroke-dasharray="1,5" d="M272.72,-296.6C266.72,-286.72 256.64,-270.11 248,-255.91"/>
<polygon fill="green" stroke="green" stroke-width="0.44" points="251.12,-254.3 242.94,-247.57 245.14,-257.93 251.12,-254.3"/>
</g>
<!-- &#45;19&#45;&gt;151 -->
<g id="edge25" class="edge">
<title>&#45;19&#45;&gt;151</title>
<path fill="none" stroke="red" stroke-width="0.2" d="M285.75,-296.76C289.9,-292.72 295.3,-288.19 301,-285.42 346.36,-263.4 493.81,-242.03 558.31,-233.48"/>
<polygon fill="red" stroke="red" stroke-width="0.2" points="558.53,-236.98 567.99,-232.21 557.62,-230.04 558.53,-236.98"/>
</g>
<!-- &#45;20 -->
<g id="node20" class="node">
<title>&#45;20</title>
<polygon fill="lightgray" stroke="black" points="116,-315.53 88,-315.53 88,-297.03 116,-297.03 116,-315.53"/>
<text text-anchor="middle" x="102" y="-302.98" font-family="Times,serif" font-size="9.00">&#45;20</text>
</g>
<!-- &#45;20&#45;&gt;150 -->
<g id="edge12" class="edge">
<title>&#45;20&#45;&gt;150</title>
<path fill="none" stroke="red" stroke-width="0.67" stroke-dasharray="1,5" d="M106.75,-296.61C116.71,-278.84 141.11,-237.43 168,-207.7 198.27,-174.24 206.16,-163.9 246,-142.71 298.72,-114.66 367.28,-99.09 406.59,-91.89"/>
<polygon fill="red" stroke="red" stroke-width="0.67" points="407.09,-95.35 416.34,-90.17 405.88,-88.46 407.09,-95.35"/>
</g>
<!-- &#45;20&#45;&gt;152 -->
<g id="edge31" class="edge">
<title>&#45;20&#45;&gt;152</title>
<path fill="none" stroke="red" stroke-width="0.4" d="M109.77,-296.8C113.92,-292.77 119.33,-288.23 125,-285.42 165.8,-265.19 296.87,-243.47 357.59,-234.19"/>
<polygon fill="red" stroke="red" stroke-width="0.4" points="358.11,-237.65 367.47,-232.7 357.06,-230.73 358.11,-237.65"/>
</g>
<!-- 0 -->
<g id="node21" class="node">
<title>0</title>
<ellipse fill="lightblue" stroke="black" cx="480" cy="-157.21" rx="14.5" ry="14.5"/>
<text text-anchor="middle" x="480" y="-153.91" font-family="Times,serif" font-size="9.00">0</text>
</g>
<!-- 0&#45;&gt;0 -->
<g id="edge27" class="edge">
<title>0&#45;&gt;0</title>
<path fill="none" stroke="red" stroke-width="0.38" d="M490.32,-167.65C500.81,-173.79 512.5,-170.31 512.5,-157.21 512.5,-148.2 506.97,-143.74 500.11,-143.83"/>
<polygon fill="red" stroke="red" stroke-width="0.38" points="499.44,-140.38 490.87,-146.6 501.45,-147.08 499.44,-140.38"/>
</g>
<!-- 1 -->
<g id="node22" class="node">
<title>1</title>
<ellipse fill="lightblue" stroke="black" cx="349" cy="-157.21" rx="14.5" ry="14.5"/>
<text text-anchor="middle" x="349" y="-153.91" font-family="Times,serif" font-size="9.00">1</text>
</g>
<!-- 1&#45;&gt;150 -->
<g id="edge47" class="edge">
<title>1&#45;&gt;150</title>
<path fill="none" stroke="red" stroke-width="0.2" d="M360.27,-147.42C373.62,-137.02 396.23,-119.4 413.63,-105.84"/>
<polygon fill="red" stroke="red" stroke-width="0.2" points="415.72,-108.65 421.46,-99.74 411.42,-103.13 415.72,-108.65"/>
</g>
<!-- 2 -->
<g id="node23" class="node">
<title>2</title>
<ellipse fill="lightblue" stroke="black" cx="396" cy="-157.21" rx="14.5" ry="14.5"/>
<text text-anchor="middle" x="396" y="-153.91" font-family="Times,serif" font-size="9.00">2</text>
</g>
<!-- 3 -->
<g id="node24" class="node">
<title>3</title>
<ellipse fill="lightblue" stroke="black" cx="438" cy="-14.5" rx="14.5" ry="14.5"/>
<text text-anchor="middle" x="438" y="-11.2" font-family="Times,serif" font-size="9.00">3</text>
</g>
<!-- 4 -->
<g id="node25" class="node">
<title>4</title>
<ellipse fill="lightblue" stroke="black" cx="589" cy="-157.21" rx="14.5" ry="14.5"/>
<text text-anchor="middle" x="589" y="-153.91" font-family="Times,serif" font-size="9.00">4</text>
</g>
<!-- 4&#45;&gt;4 -->
<g id="edge30" class="edge">
<title>4&#45;&gt;4</title>
<path fill="none" stroke="red" stroke-width="0.23" stroke-dasharray="1,5" d="M599.32,-167.65C609.81,-173.79 621.5,-170.31 621.5,-157.21 621.5,-148.2 615.97,-143.74 609.11,-143.83"/>
<polygon fill="red" stroke="red" stroke-width="0.23" points="608.22,-140.44 599.64,-146.67 610.23,-147.15 608.22,-140.44"/>
</g>
<!-- 403&#45;&gt;151 -->
<g id="edge45" class="edge">
<title>403&#45;&gt;151</title>
<path fill="none" stroke="red" stroke-width="0.24" d="M652.33,-291.04C640.67,-279.72 624.19,-263.72 610.96,-250.88"/>
<polygon fill="red" stroke="red" stroke-width="0.24" points="613.48,-248.45 603.87,-243.99 608.6,-253.47 613.48,-248.45"/>
</g>
<!-- 150&#45;&gt;3 -->
<g id="edge39" class="edge">
<title>150&#45;&gt;3</title>
<path fill="none" stroke="green" stroke-width="0.44" d="M438,-64.79C438,-56.98 438,-47.96 438,-39.78"/>
<polygon fill="green" stroke="green" stroke-width="0.44" points="441.5,-40.02 438,-30.02 434.5,-40.02 441.5,-40.02"/>
</g>
<!-- 151&#45;&gt;0 -->
<g id="edge22" class="edge">
<title>151&#45;&gt;0</title>
<path fill="none" stroke="red" stroke-width="0.53" d="M571.49,-216.42C552.27,-204.19 521.42,-184.56 500.94,-171.53"/>
<polygon fill="red" stroke="red" stroke-width="0.53" points="503.06,-168.73 492.74,-166.31 499.3,-174.63 503.06,-168.73"/>
</g>
<!-- 151&#45;&gt;4 -->
<g id="edge21" class="edge">
<title>151&#45;&gt;4</title>
<path fill="none" stroke="red" stroke-width="0.52" d="M589,-207.5C589,-199.78 589,-190.87 589,-182.77"/>
<polygon fill="red" stroke="red" stroke-width="0.52" points="592.5,-182.86 589,-172.86 585.5,-182.86 592.5,-182.86"/>
</g>
<!-- 151&#45;&gt;151 -->
<g id="edge3" class="edge">
<title>151&#45;&gt;151</title>
<path fill="none" stroke="green" stroke-width="0.19" stroke-dasharray="1,5" d="M606.18,-240.88C617.23,-244.1 627.86,-239.99 627.86,-228.56 627.86,-220.7 622.83,-216.31 616.1,-215.37"/>
<polygon fill="green" stroke="green" stroke-width="0.19" points="616.12,-211.86 606.47,-216.22 616.73,-218.83 616.12,-211.86"/>
</g>
<!-- 152&#45;&gt;0 -->
<g id="edge8" class="edge">
<title>152&#45;&gt;0</title>
<path fill="none" stroke="red" stroke-width="0.22" d="M405.27,-215.16C420.85,-203.28 444.37,-185.36 460.85,-172.8"/>
<polygon fill="red" stroke="red" stroke-width="0.22" points="462.66,-175.82 468.49,-166.98 458.42,-170.26 462.66,-175.82"/>
</g>
<!-- 152&#45;&gt;1 -->
<g id="edge40" class="edge">
<title>152&#45;&gt;1</title>
<path fill="none" stroke="red" stroke-width="0.2" d="M378.91,-210.06C373.43,-200.57 366.64,-188.79 360.91,-178.85"/>
<polygon fill="red" stroke="red" stroke-width="0.2" points="364,-177.2 355.97,-170.29 357.93,-180.7 364,-177.2"/>
</g>
<!-- 152&#45;&gt;2 -->
<g id="edge15" class="edge">
<title>152&#45;&gt;2</title>
<path fill="none" stroke="red" stroke-width="0.48" d="M391.02,-207.5C391.81,-199.69 392.72,-190.67 393.55,-182.49"/>
<polygon fill="red" stroke="red" stroke-width="0.48" points="397.01,-183.1 394.53,-172.8 390.04,-182.39 397.01,-183.1"/>
</g>
</g>
</svg>
