<?xml version="1.0" encoding="UTF-8" standalone="no"?>
<!DOCTYPE svg PUBLIC "-//W3C//DTD SVG 1.1//EN"
 "http://www.w3.org/Graphics/SVG/1.1/DTD/svg11.dtd">
<!-- Generated by graphviz version 12.1.1 (20240910.0053)
 -->
<!-- Pages: 1 -->
<svg width="801pt" height="299pt"
 viewBox="0.00 0.00 800.75 299.19" xmlns="http://www.w3.org/2000/svg" xmlns:xlink="http://www.w3.org/1999/xlink">
<g id="graph0" class="graph" transform="scale(1 1) rotate(0) translate(4 295.19)">
<polygon fill="white" stroke="none" points="-4,4 -4,-295.19 796.75,-295.19 796.75,4 -4,4"/>
<!-- &#45;1 -->
<g id="node1" class="node">
<title>&#45;1</title>
<polygon fill="lightgray" stroke="black" points="199.5,-291.19 176,-291.19 176,-272.69 199.5,-272.69 199.5,-291.19"/>
<text text-anchor="middle" x="187.75" y="-278.64" font-family="Times,serif" font-size="9.00">&#45;1</text>
</g>
<!-- 82 -->
<g id="node27" class="node">
<title>82</title>
<ellipse fill="white" stroke="black" cx="159.75" cy="-219.02" rx="17.68" ry="17.68"/>
<text text-anchor="middle" x="159.75" y="-215.72" font-family="Times,serif" font-size="9.00">82</text>
</g>
<!-- &#45;1&#45;&gt;82 -->
<g id="edge22" class="edge">
<title>&#45;1&#45;&gt;82</title>
<path fill="none" stroke="red" stroke-width="0.42" d="M183.74,-272.21C180.46,-265.08 175.66,-254.64 171.21,-244.96"/>
<polygon fill="red" stroke="red" stroke-width="0.42" points="174.41,-243.53 167.05,-235.9 168.05,-246.45 174.41,-243.53"/>
</g>
<!-- 83 -->
<g id="node28" class="node">
<title>83</title>
<ellipse fill="white" stroke="black" cx="262.75" cy="-219.02" rx="17.68" ry="17.68"/>
<text text-anchor="middle" x="262.75" y="-215.72" font-family="Times,serif" font-size="9.00">83</text>
</g>
<!-- &#45;1&#45;&gt;83 -->
<g id="edge32" class="edge">
<title>&#45;1&#45;&gt;83</title>
<path fill="none" stroke="red" stroke-width="0.42" d="M198.5,-272.21C209.56,-263.22 227.12,-248.96 241.09,-237.61"/>
<polygon fill="red" stroke="red" stroke-width="0.42" points="243.18,-240.42 248.74,-231.4 238.77,-234.99 243.18,-240.42"/>
</g>
<!-- &#45;2 -->
<g id="node2" class="node">
<title>&#45;2</title>
<polygon fill="lightgray" stroke="black" points="241.5,-291.19 218,-291.19 218,-272.69 241.5,-272.69 241.5,-291.19"/>
<text text-anchor="middle" x="229.75" y="-278.64" font-family="Times,serif" font-size="9.00">&#45;2</text>
</g>
<!-- &#45;2&#45;&gt;83 -->
<g id="edge14" class="edge">
<title>&#45;2&#45;&gt;83</title>
<path fill="none" stroke="green" stroke-width="0.14" stroke-dasharray="1,5" d="M234.48,-272.21C238.52,-264.76 244.52,-253.67 249.96,-243.64"/>
<polygon fill="green" stroke="green" stroke-width="0.14" points="252.93,-245.49 254.62,-235.03 246.78,-242.16 252.93,-245.49"/>
</g>
<!-- &#45;3 -->
<g id="node3" class="node">
<title>&#45;3</title>
<polygon fill="lightgray" stroke="black" points="528.5,-291.19 505,-291.19 505,-272.69 528.5,-272.69 528.5,-291.19"/>
<text text-anchor="middle" x="516.75" y="-278.64" font-family="Times,serif" font-size="9.00">&#45;3</text>
</g>
<!-- 81 -->
<g id="node26" class="node">
<title>81</title>
<ellipse fill="white" stroke="black" cx="365.75" cy="-219.02" rx="17.68" ry="17.68"/>
<text text-anchor="middle" x="365.75" y="-215.72" font-family="Times,serif" font-size="9.00">81</text>
</g>
<!-- &#45;3&#45;&gt;81 -->
<g id="edge11" class="edge">
<title>&#45;3&#45;&gt;81</title>
<path fill="none" stroke="green" stroke-width="0.57" d="M504.65,-276.06C480.27,-266.22 424.78,-243.83 391.79,-230.52"/>
<polygon fill="green" stroke="green" stroke-width="0.57" points="393.32,-227.36 382.73,-226.87 390.7,-233.86 393.32,-227.36"/>
</g>
<!-- 84 -->
<g id="node29" class="node">
<title>84</title>
<ellipse fill="white" stroke="black" cx="411.75" cy="-82.67" rx="17.68" ry="17.68"/>
<text text-anchor="middle" x="411.75" y="-79.37" font-family="Times,serif" font-size="9.00">84</text>
</g>
<!-- &#45;3&#45;&gt;84 -->
<g id="edge40" class="edge">
<title>&#45;3&#45;&gt;84</title>
<path fill="none" stroke="green" stroke-width="0.37" d="M524.13,-272.3C543.52,-248.51 592.26,-180.91 560.75,-136.35 533.45,-97.74 475.37,-87.24 440.34,-84.5"/>
<polygon fill="green" stroke="green" stroke-width="0.37" points="440.59,-81.01 430.39,-83.89 440.16,-88 440.59,-81.01"/>
</g>
<!-- &#45;4 -->
<g id="node4" class="node">
<title>&#45;4</title>
<polygon fill="lightgray" stroke="black" points="654.5,-291.19 631,-291.19 631,-272.69 654.5,-272.69 654.5,-291.19"/>
<text text-anchor="middle" x="642.75" y="-278.64" font-family="Times,serif" font-size="9.00">&#45;4</text>
</g>
<!-- &#45;5 -->
<g id="node5" class="node">
<title>&#45;5</title>
<polygon fill="lightgray" stroke="black" points="463.5,-160.09 440,-160.09 440,-141.59 463.5,-141.59 463.5,-160.09"/>
<text text-anchor="middle" x="451.75" y="-147.54" font-family="Times,serif" font-size="9.00">&#45;5</text>
</g>
<!-- &#45;5&#45;&gt;84 -->
<g id="edge35" class="edge">
<title>&#45;5&#45;&gt;84</title>
<path fill="none" stroke="red" stroke-width="0.24" d="M446.52,-141.19C441.29,-132.54 433.01,-118.84 425.85,-106.99"/>
<polygon fill="red" stroke="red" stroke-width="0.24" points="429,-105.45 420.84,-98.7 423.01,-109.07 429,-105.45"/>
</g>
<!-- &#45;6 -->
<g id="node6" class="node">
<title>&#45;6</title>
<polygon fill="lightgray" stroke="black" points="421.5,-291.19 398,-291.19 398,-272.69 421.5,-272.69 421.5,-291.19"/>
<text text-anchor="middle" x="409.75" y="-278.64" font-family="Times,serif" font-size="9.00">&#45;6</text>
</g>
<!-- &#45;6&#45;&gt;81 -->
<g id="edge33" class="edge">
<title>&#45;6&#45;&gt;81</title>
<path fill="none" stroke="red" stroke-width="0.43" stroke-dasharray="1,5" d="M403.45,-272.21C397.86,-264.48 389.45,-252.84 382,-242.51"/>
<polygon fill="red" stroke="red" stroke-width="0.43" points="384.86,-240.49 376.16,-234.44 379.18,-244.59 384.86,-240.49"/>
</g>
<!-- &#45;6&#45;&gt;83 -->
<g id="edge42" class="edge">
<title>&#45;6&#45;&gt;83</title>
<path fill="none" stroke="red" stroke-width="0.18" stroke-dasharray="1,5" d="M397.72,-275.96C373.86,-266.07 320.08,-243.78 288.08,-230.51"/>
<polygon fill="red" stroke="red" stroke-width="0.18" points="289.73,-227.41 279.15,-226.81 287.05,-233.88 289.73,-227.41"/>
</g>
<!-- &#45;7 -->
<g id="node7" class="node">
<title>&#45;7</title>
<polygon fill="lightgray" stroke="black" points="505.5,-160.09 482,-160.09 482,-141.59 505.5,-141.59 505.5,-160.09"/>
<text text-anchor="middle" x="493.75" y="-147.54" font-family="Times,serif" font-size="9.00">&#45;7</text>
</g>
<!-- &#45;7&#45;&gt;84 -->
<g id="edge3" class="edge">
<title>&#45;7&#45;&gt;84</title>
<path fill="none" stroke="green" stroke-width="0.68" stroke-dasharray="1,5" d="M483.03,-141.19C470.5,-131.08 449.45,-114.1 433.47,-101.2"/>
<polygon fill="green" stroke="green" stroke-width="0.68" points="435.97,-98.72 425.99,-95.16 431.58,-104.17 435.97,-98.72"/>
</g>
<!-- &#45;8 -->
<g id="node8" class="node">
<title>&#45;8</title>
<polygon fill="lightgray" stroke="black" points="111.5,-291.19 88,-291.19 88,-272.69 111.5,-272.69 111.5,-291.19"/>
<text text-anchor="middle" x="99.75" y="-278.64" font-family="Times,serif" font-size="9.00">&#45;8</text>
</g>
<!-- &#45;8&#45;&gt;82 -->
<g id="edge25" class="edge">
<title>&#45;8&#45;&gt;82</title>
<path fill="none" stroke="red" stroke-width="0.66" stroke-dasharray="1,5" d="M108.35,-272.21C116.61,-263.82 129.39,-250.84 140.14,-239.93"/>
<polygon fill="red" stroke="red" stroke-width="0.66" points="142.63,-242.39 147.16,-232.8 137.65,-237.47 142.63,-242.39"/>
</g>
<!-- &#45;8&#45;&gt;83 -->
<g id="edge17" class="edge">
<title>&#45;8&#45;&gt;83</title>
<path fill="none" stroke="green" stroke-width="0.33" d="M111.73,-276.19C114.67,-275.04 117.82,-273.81 120.75,-272.69 161,-257.32 207.91,-240.04 236.46,-229.6"/>
<polygon fill="green" stroke="green" stroke-width="0.33" points="237.44,-232.97 245.63,-226.25 235.03,-226.39 237.44,-232.97"/>
</g>
<!-- &#45;9 -->
<g id="node9" class="node">
<title>&#45;9</title>
<polygon fill="lightgray" stroke="black" points="23.5,-291.19 0,-291.19 0,-272.69 23.5,-272.69 23.5,-291.19"/>
<text text-anchor="middle" x="11.75" y="-278.64" font-family="Times,serif" font-size="9.00">&#45;9</text>
</g>
<!-- &#45;9&#45;&gt;82 -->
<g id="edge27" class="edge">
<title>&#45;9&#45;&gt;82</title>
<path fill="none" stroke="red" stroke-width="0.31" d="M23.86,-275.96C47.78,-266.11 101.56,-243.97 133.83,-230.69"/>
<polygon fill="red" stroke="red" stroke-width="0.31" points="135.13,-233.93 143.05,-226.89 132.47,-227.46 135.13,-233.93"/>
</g>
<!-- &#45;10 -->
<g id="node10" class="node">
<title>&#45;10</title>
<polygon fill="lightgray" stroke="black" points="379.75,-291.19 351.75,-291.19 351.75,-272.69 379.75,-272.69 379.75,-291.19"/>
<text text-anchor="middle" x="365.75" y="-278.64" font-family="Times,serif" font-size="9.00">&#45;10</text>
</g>
<!-- &#45;10&#45;&gt;81 -->
<g id="edge16" class="edge">
<title>&#45;10&#45;&gt;81</title>
<path fill="none" stroke="red" stroke-width="0.55" d="M365.75,-272.21C365.75,-265.66 365.75,-256.32 365.75,-247.34"/>
<polygon fill="red" stroke="red" stroke-width="0.55" points="369.25,-247.61 365.75,-237.61 362.25,-247.61 369.25,-247.61"/>
</g>
<!-- &#45;10&#45;&gt;82 -->
<g id="edge36" class="edge">
<title>&#45;10&#45;&gt;82</title>
<path fill="none" stroke="green" stroke-width="0.24" stroke-dasharray="1,5" d="M351.69,-275.74C348.75,-274.7 345.66,-273.63 342.75,-272.69 287.77,-254.94 222.58,-236.88 186.74,-227.2"/>
<polygon fill="green" stroke="green" stroke-width="0.24" points="187.93,-223.9 177.36,-224.68 186.11,-230.66 187.93,-223.9"/>
</g>
<!-- &#45;11 -->
<g id="node11" class="node">
<title>&#45;11</title>
<polygon fill="lightgray" stroke="black" points="551.75,-160.09 523.75,-160.09 523.75,-141.59 551.75,-141.59 551.75,-160.09"/>
<text text-anchor="middle" x="537.75" y="-147.54" font-family="Times,serif" font-size="9.00">&#45;11</text>
</g>
<!-- &#45;11&#45;&gt;84 -->
<g id="edge19" class="edge">
<title>&#45;11&#45;&gt;84</title>
<path fill="none" stroke="green" stroke-width="0.32" d="M523.71,-141.43C520.77,-139.72 517.67,-137.95 514.75,-136.35 488.45,-121.92 457.78,-106.4 436.79,-95.97"/>
<polygon fill="green" stroke="green" stroke-width="0.32" points="438.56,-92.94 428.04,-91.64 435.45,-99.21 438.56,-92.94"/>
</g>
<!-- &#45;12 -->
<g id="node12" class="node">
<title>&#45;12</title>
<polygon fill="lightgray" stroke="black" points="287.75,-291.19 259.75,-291.19 259.75,-272.69 287.75,-272.69 287.75,-291.19"/>
<text text-anchor="middle" x="273.75" y="-278.64" font-family="Times,serif" font-size="9.00">&#45;12</text>
</g>
<!-- &#45;12&#45;&gt;81 -->
<g id="edge41" class="edge">
<title>&#45;12&#45;&gt;81</title>
<path fill="none" stroke="red" stroke-width="0.32" d="M286.93,-272.21C301.4,-262.63 324.91,-247.06 342.5,-235.42"/>
<polygon fill="red" stroke="red" stroke-width="0.32" points="344.26,-238.45 350.66,-230.01 340.39,-232.61 344.26,-238.45"/>
</g>
<!-- &#45;12&#45;&gt;82 -->
<g id="edge12" class="edge">
<title>&#45;12&#45;&gt;82</title>
<path fill="none" stroke="green" stroke-width="0.17" d="M259.31,-273.23C240.35,-263.1 206.81,-245.16 183.94,-232.94"/>
<polygon fill="green" stroke="green" stroke-width="0.17" points="185.86,-230 175.39,-228.37 182.56,-236.17 185.86,-230"/>
</g>
<!-- &#45;12&#45;&gt;83 -->
<g id="edge38" class="edge">
<title>&#45;12&#45;&gt;83</title>
<path fill="none" stroke="green" stroke-width="0.32" d="M272.17,-272.21C270.98,-265.59 269.27,-256.11 267.63,-247.04"/>
<polygon fill="green" stroke="green" stroke-width="0.32" points="271.08,-246.48 265.86,-237.26 264.2,-247.72 271.08,-246.48"/>
</g>
<!-- &#45;13 -->
<g id="node13" class="node">
<title>&#45;13</title>
<polygon fill="lightgray" stroke="black" points="700.75,-291.19 672.75,-291.19 672.75,-272.69 700.75,-272.69 700.75,-291.19"/>
<text text-anchor="middle" x="686.75" y="-278.64" font-family="Times,serif" font-size="9.00">&#45;13</text>
</g>
<!-- &#45;14 -->
<g id="node14" class="node">
<title>&#45;14</title>
<polygon fill="lightgray" stroke="black" points="746.75,-291.19 718.75,-291.19 718.75,-272.69 746.75,-272.69 746.75,-291.19"/>
<text text-anchor="middle" x="732.75" y="-278.64" font-family="Times,serif" font-size="9.00">&#45;14</text>
</g>
<!-- &#45;15 -->
<g id="node15" class="node">
<title>&#45;15</title>
<polygon fill="lightgray" stroke="black" points="333.75,-291.19 305.75,-291.19 305.75,-272.69 333.75,-272.69 333.75,-291.19"/>
<text text-anchor="middle" x="319.75" y="-278.64" font-family="Times,serif" font-size="9.00">&#45;15</text>
</g>
<!-- &#45;15&#45;&gt;81 -->
<g id="edge7" class="edge">
<title>&#45;15&#45;&gt;81</title>
<path fill="none" stroke="red" stroke-width="0.15" d="M326.34,-272.21C332.38,-264.22 341.56,-252.05 349.55,-241.48"/>
<polygon fill="red" stroke="red" stroke-width="0.15" points="352.25,-243.71 355.48,-233.62 346.66,-239.49 352.25,-243.71"/>
</g>
<!-- &#45;15&#45;&gt;82 -->
<g id="edge4" class="edge">
<title>&#45;15&#45;&gt;82</title>
<path fill="none" stroke="green" stroke-width="0.19" d="M305.27,-275.43C278.1,-265.08 219.18,-242.65 185.24,-229.72"/>
<polygon fill="green" stroke="green" stroke-width="0.19" points="186.84,-226.58 176.24,-226.3 184.34,-233.13 186.84,-226.58"/>
</g>
<!-- &#45;15&#45;&gt;83 -->
<g id="edge9" class="edge">
<title>&#45;15&#45;&gt;83</title>
<path fill="none" stroke="green" stroke-width="0.29" stroke-dasharray="1,5" d="M311.58,-272.21C303.76,-263.85 291.66,-250.92 281.46,-240.02"/>
<polygon fill="green" stroke="green" stroke-width="0.29" points="284.15,-237.77 274.76,-232.86 279.04,-242.55 284.15,-237.77"/>
</g>
<!-- &#45;16 -->
<g id="node16" class="node">
<title>&#45;16</title>
<polygon fill="lightgray" stroke="black" points="467.75,-291.19 439.75,-291.19 439.75,-272.69 467.75,-272.69 467.75,-291.19"/>
<text text-anchor="middle" x="453.75" y="-278.64" font-family="Times,serif" font-size="9.00">&#45;16</text>
</g>
<!-- &#45;16&#45;&gt;83 -->
<g id="edge20" class="edge">
<title>&#45;16&#45;&gt;83</title>
<path fill="none" stroke="green" stroke-width="0.1" stroke-dasharray="1,5" d="M439.67,-275.79C436.73,-274.74 433.65,-273.67 430.75,-272.69 380.86,-255.93 322.08,-237.89 288.94,-227.87"/>
<polygon fill="green" stroke="green" stroke-width="0.1" points="290.24,-224.61 279.66,-225.07 288.22,-231.31 290.24,-224.61"/>
</g>
<!-- &#45;16&#45;&gt;84 -->
<g id="edge29" class="edge">
<title>&#45;16&#45;&gt;84</title>
<path fill="none" stroke="red" stroke-width="0.12" stroke-dasharray="1,5" d="M451.89,-272.21C445.91,-244.12 426.99,-155.26 417.42,-110.29"/>
<polygon fill="red" stroke="red" stroke-width="0.12" points="420.85,-109.61 415.35,-100.56 414.01,-111.07 420.85,-109.61"/>
</g>
<!-- &#45;17 -->
<g id="node17" class="node">
<title>&#45;17</title>
<polygon fill="lightgray" stroke="black" points="612.75,-291.19 584.75,-291.19 584.75,-272.69 612.75,-272.69 612.75,-291.19"/>
<text text-anchor="middle" x="598.75" y="-278.64" font-family="Times,serif" font-size="9.00">&#45;17</text>
</g>
<!-- &#45;17&#45;&gt;81 -->
<g id="edge10" class="edge">
<title>&#45;17&#45;&gt;81</title>
<path fill="none" stroke="red" stroke-width="0.2" stroke-dasharray="1,5" d="M584.53,-277.22C546.52,-267.29 442.15,-239.99 392.57,-227.03"/>
<polygon fill="red" stroke="red" stroke-width="0.2" points="393.72,-223.71 383.16,-224.57 391.94,-230.48 393.72,-223.71"/>
</g>
<!-- &#45;17&#45;&gt;84 -->
<g id="edge13" class="edge">
<title>&#45;17&#45;&gt;84</title>
<path fill="none" stroke="green" stroke-width="0.46" d="M600.51,-272.21C604.91,-247.6 613.79,-176.86 579.75,-136.35 545.03,-95.02 478.28,-85.64 440.21,-83.8"/>
<polygon fill="green" stroke="green" stroke-width="0.46" points="440.63,-80.31 430.52,-83.48 440.4,-87.31 440.63,-80.31"/>
</g>
<!-- &#45;18 -->
<g id="node18" class="node">
<title>&#45;18</title>
<polygon fill="lightgray" stroke="black" points="69.75,-291.19 41.75,-291.19 41.75,-272.69 69.75,-272.69 69.75,-291.19"/>
<text text-anchor="middle" x="55.75" y="-278.64" font-family="Times,serif" font-size="9.00">&#45;18</text>
</g>
<!-- &#45;18&#45;&gt;82 -->
<g id="edge31" class="edge">
<title>&#45;18&#45;&gt;82</title>
<path fill="none" stroke="green" stroke-width="0.48" stroke-dasharray="1,5" d="M70.21,-272.47C87.09,-262.58 115.28,-246.07 135.52,-234.21"/>
<polygon fill="green" stroke="green" stroke-width="0.48" points="137.25,-237.26 144.11,-229.18 133.71,-231.22 137.25,-237.26"/>
</g>
<!-- &#45;19 -->
<g id="node19" class="node">
<title>&#45;19</title>
<polygon fill="lightgray" stroke="black" points="792.75,-291.19 764.75,-291.19 764.75,-272.69 792.75,-272.69 792.75,-291.19"/>
<text text-anchor="middle" x="778.75" y="-278.64" font-family="Times,serif" font-size="9.00">&#45;19</text>
</g>
<!-- &#45;20 -->
<g id="node20" class="node">
<title>&#45;20</title>
<polygon fill="lightgray" stroke="black" points="157.75,-291.19 129.75,-291.19 129.75,-272.69 157.75,-272.69 157.75,-291.19"/>
<text text-anchor="middle" x="143.75" y="-278.64" font-family="Times,serif" font-size="9.00">&#45;20</text>
</g>
<!-- &#45;20&#45;&gt;82 -->
<g id="edge23" class="edge">
<title>&#45;20&#45;&gt;82</title>
<path fill="none" stroke="green" stroke-width="0.31" d="M146.04,-272.21C147.83,-265.42 150.4,-255.63 152.83,-246.35"/>
<polygon fill="green" stroke="green" stroke-width="0.31" points="156.2,-247.31 155.36,-236.75 149.43,-245.53 156.2,-247.31"/>
</g>
<!-- &#45;20&#45;&gt;83 -->
<g id="edge26" class="edge">
<title>&#45;20&#45;&gt;83</title>
<path fill="none" stroke="green" stroke-width="0.31" d="M157.87,-273.71C177.56,-263.63 213.6,-245.18 237.86,-232.76"/>
<polygon fill="green" stroke="green" stroke-width="0.31" points="239.42,-235.89 246.73,-228.22 236.23,-229.66 239.42,-235.89"/>
</g>
<!-- 0 -->
<g id="node21" class="node">
<title>0</title>
<ellipse fill="lightblue" stroke="black" cx="411.75" cy="-14.5" rx="14.5" ry="14.5"/>
<text text-anchor="middle" x="411.75" y="-11.2" font-family="Times,serif" font-size="9.00">0</text>
</g>
<!-- 1 -->
<g id="node22" class="node">
<title>1</title>
<ellipse fill="lightblue" stroke="black" cx="369.75" cy="-150.84" rx="14.5" ry="14.5"/>
<text text-anchor="middle" x="369.75" y="-147.54" font-family="Times,serif" font-size="9.00">1</text>
</g>
<!-- 1&#45;&gt;84 -->
<g id="edge43" class="edge">
<title>1&#45;&gt;84</title>
<path fill="none" stroke="green" stroke-width="0.11" d="M372.7,-136.45C377.42,-126.92 385.43,-113.95 393.1,-103.25"/>
<polygon fill="green" stroke="green" stroke-width="0.11" points="395.79,-105.5 399.01,-95.4 390.2,-101.28 395.79,-105.5"/>
</g>
<!-- 2 -->
<g id="node23" class="node">
<title>2</title>
<ellipse fill="lightblue" stroke="black" cx="213.75" cy="-14.5" rx="14.5" ry="14.5"/>
<text text-anchor="middle" x="213.75" y="-11.2" font-family="Times,serif" font-size="9.00">2</text>
</g>
<!-- 3 -->
<g id="node24" class="node">
<title>3</title>
<ellipse fill="lightblue" stroke="black" cx="260.75" cy="-14.5" rx="14.5" ry="14.5"/>
<text text-anchor="middle" x="260.75" y="-11.2" font-family="Times,serif" font-size="9.00">3</text>
</g>
<!-- 4 -->
<g id="node25" class="node">
<title>4</title>
<ellipse fill="lightblue" stroke="black" cx="327.75" cy="-14.5" rx="14.5" ry="14.5"/>
<text text-anchor="middle" x="327.75" y="-11.2" font-family="Times,serif" font-size="9.00">4</text>
</g>
<!-- 4&#45;&gt;4 -->
<g id="edge21" class="edge">
<title>4&#45;&gt;4</title>
<path fill="none" stroke="red" stroke-width="0.38" d="M338.4,-24.65C348.81,-30.26 360.25,-26.88 360.25,-14.5 360.25,-6.18 355.08,-1.92 348.54,-1.72"/>
<polygon fill="red" stroke="red" stroke-width="0.38" points="347.77,1.7 338.96,-4.19 349.52,-5.08 347.77,1.7"/>
</g>
<!-- 81&#45;&gt;1 -->
<g id="edge2" class="edge">
<title>81&#45;&gt;1</title>
<path fill="none" stroke="red" stroke-width="0.4" d="M366.78,-200.97C367.24,-193.39 367.79,-184.33 368.29,-176.06"/>
<polygon fill="red" stroke="red" stroke-width="0.4" points="371.78,-176.29 368.89,-166.1 364.79,-175.87 371.78,-176.29"/>
</g>
<!-- 81&#45;&gt;2 -->
<g id="edge15" class="edge">
<title>81&#45;&gt;2</title>
<path fill="none" stroke="green" stroke-width="0.29" d="M355.54,-204.41C329.18,-169.29 258.76,-75.47 228.22,-34.77"/>
<polygon fill="green" stroke="green" stroke-width="0.29" points="231.07,-32.74 222.27,-26.85 225.47,-36.95 231.07,-32.74"/>
</g>
<!-- 82&#45;&gt;2 -->
<g id="edge28" class="edge">
<title>82&#45;&gt;2</title>
<path fill="none" stroke="green" stroke-width="0.66" d="M155.96,-201.51C150.14,-172.49 141.66,-111.01 161.75,-64.99 168.2,-50.21 181.42,-37.72 192.91,-28.99"/>
<polygon fill="green" stroke="green" stroke-width="0.66" points="194.66,-32.04 200.78,-23.4 190.61,-26.34 194.66,-32.04"/>
</g>
<!-- 82&#45;&gt;3 -->
<g id="edge18" class="edge">
<title>82&#45;&gt;3</title>
<path fill="none" stroke="green" stroke-width="0.73" d="M167.34,-202.79C185.02,-167.34 229.02,-79.11 249.69,-37.67"/>
<polygon fill="green" stroke="green" stroke-width="0.73" points="252.7,-39.47 254.03,-28.96 246.44,-36.35 252.7,-39.47"/>
</g>
<!-- 83&#45;&gt;1 -->
<g id="edge24" class="edge">
<title>83&#45;&gt;1</title>
<path fill="none" stroke="green" stroke-width="0.33" d="M277.63,-208.81C296.15,-197.36 327.9,-177.72 348.86,-164.76"/>
<polygon fill="green" stroke="green" stroke-width="0.33" points="350.55,-167.83 357.22,-159.59 346.87,-161.88 350.55,-167.83"/>
</g>
<!-- 83&#45;&gt;2 -->
<g id="edge8" class="edge">
<title>83&#45;&gt;2</title>
<path fill="none" stroke="green" stroke-width="0.28" d="M258.74,-201.44C250.05,-165.54 229.47,-80.49 219.44,-39.03"/>
<polygon fill="green" stroke="green" stroke-width="0.28" points="222.88,-38.33 217.12,-29.43 216.07,-39.97 222.88,-38.33"/>
</g>
<!-- 83&#45;&gt;3 -->
<g id="edge37" class="edge">
<title>83&#45;&gt;3</title>
<path fill="none" stroke="green" stroke-width="0.14" stroke-dasharray="1,5" d="M262.58,-201.1C262.23,-165.14 261.4,-81.03 260.99,-39.53"/>
<polygon fill="green" stroke="green" stroke-width="0.14" points="264.49,-39.67 260.89,-29.7 257.49,-39.74 264.49,-39.67"/>
</g>
<!-- 83&#45;&gt;4 -->
<g id="edge34" class="edge">
<title>83&#45;&gt;4</title>
<path fill="none" stroke="red" stroke-width="0.36" d="M267.96,-201.79C279.44,-166.03 306.94,-80.35 320.26,-38.83"/>
<polygon fill="red" stroke="red" stroke-width="0.36" points="323.58,-39.93 323.31,-29.34 316.92,-37.79 323.58,-39.93"/>
</g>
<!-- 84&#45;&gt;0 -->
<g id="edge1" class="edge">
<title>84&#45;&gt;0</title>
<path fill="none" stroke="red" stroke-width="0.64" stroke-dasharray="1,5" d="M411.75,-64.63C411.75,-57.13 411.75,-48.19 411.75,-39.99"/>
<polygon fill="red" stroke="red" stroke-width="0.64" points="415.25,-40.12 411.75,-30.12 408.25,-40.12 415.25,-40.12"/>
</g>
<!-- 84&#45;&gt;1 -->
<g id="edge39" class="edge">
<title>84&#45;&gt;1</title>
<path fill="none" stroke="green" stroke-width="0.45" stroke-dasharray="1,5" d="M407.2,-100.18C402.04,-109.97 394.21,-122.37 386.9,-132.33"/>
<polygon fill="green" stroke="green" stroke-width="0.45" points="384.23,-130.06 380.86,-140.1 389.76,-134.36 384.23,-130.06"/>
</g>
<!-- 84&#45;&gt;2 -->
<g id="edge30" class="edge">
<title>84&#45;&gt;2</title>
<path fill="none" stroke="red" stroke-width="0.33" stroke-dasharray="1,5" d="M394.27,-77.72C362.4,-70.23 293.06,-52.58 237.75,-28.99 236.74,-28.56 235.72,-28.1 234.69,-27.61"/>
<polygon fill="red" stroke="red" stroke-width="0.33" points="236.62,-24.67 226.14,-23.12 233.36,-30.87 236.62,-24.67"/>
</g>
<!-- 84&#45;&gt;3 -->
<g id="edge5" class="edge">
<title>84&#45;&gt;3</title>
<path fill="none" stroke="green" stroke-width="0.12" d="M395.59,-74.59C368.4,-62.67 313.49,-38.61 282.79,-25.15"/>
<polygon fill="green" stroke="green" stroke-width="0.12" points="284.47,-22.07 273.91,-21.26 281.66,-28.48 284.47,-22.07"/>
</g>
<!-- 84&#45;&gt;4 -->
<g id="edge6" class="edge">
<title>84&#45;&gt;4</title>
<path fill="none" stroke="red" stroke-width="0.13" d="M398.25,-71.04C384.32,-60.06 362.47,-42.85 346.79,-30.49"/>
<polygon fill="red" stroke="red" stroke-width="0.13" points="348.98,-27.76 338.96,-24.33 344.65,-33.26 348.98,-27.76"/>
</g>
</g>
</svg>
