<?xml version="1.0" encoding="UTF-8" standalone="no"?>
<!DOCTYPE svg PUBLIC "-//W3C//DTD SVG 1.1//EN"
 "http://www.w3.org/Graphics/SVG/1.1/DTD/svg11.dtd">
<!-- Generated by graphviz version 12.1.1 (20240910.0053)
 -->
<!-- Pages: 1 -->
<svg width="960pt" height="257pt"
 viewBox="0.00 0.00 959.75 257.42" xmlns="http://www.w3.org/2000/svg" xmlns:xlink="http://www.w3.org/1999/xlink">
<g id="graph0" class="graph" transform="scale(1 1) rotate(0) translate(4 253.42)">
<polygon fill="white" stroke="none" points="-4,4 -4,-253.42 955.75,-253.42 955.75,4 -4,4"/>
<!-- &#45;1 -->
<g id="node1" class="node">
<title>&#45;1</title>
<polygon fill="lightgray" stroke="black" points="23.5,-172.82 0,-172.82 0,-154.32 23.5,-154.32 23.5,-172.82"/>
<text text-anchor="middle" x="11.75" y="-160.27" font-family="Times,serif" font-size="9.00">&#45;1</text>
</g>
<!-- 89 -->
<g id="node28" class="node">
<title>89</title>
<ellipse fill="white" stroke="black" cx="235.75" cy="-85.85" rx="17.68" ry="17.68"/>
<text text-anchor="middle" x="235.75" y="-82.55" font-family="Times,serif" font-size="9.00">89</text>
</g>
<!-- &#45;1&#45;&gt;89 -->
<g id="edge36" class="edge">
<title>&#45;1&#45;&gt;89</title>
<path fill="none" stroke="green" stroke-width="0.4" d="M18.79,-154.21C22.56,-150.21 27.5,-145.67 32.75,-142.71 89.95,-110.49 166.82,-95.98 207.59,-90.2"/>
<polygon fill="green" stroke="green" stroke-width="0.4" points="208.05,-93.67 217.49,-88.87 207.12,-86.73 208.05,-93.67"/>
</g>
<!-- &#45;2 -->
<g id="node2" class="node">
<title>&#45;2</title>
<polygon fill="lightgray" stroke="black" points="65.5,-172.82 42,-172.82 42,-154.32 65.5,-154.32 65.5,-172.82"/>
<text text-anchor="middle" x="53.75" y="-160.27" font-family="Times,serif" font-size="9.00">&#45;2</text>
</g>
<!-- &#45;2&#45;&gt;89 -->
<g id="edge23" class="edge">
<title>&#45;2&#45;&gt;89</title>
<path fill="none" stroke="red" stroke-width="0.5" d="M61.26,-153.96C65,-150.09 69.77,-145.73 74.75,-142.71 117.69,-116.63 174.5,-100.57 207.89,-92.72"/>
<polygon fill="red" stroke="red" stroke-width="0.5" points="208.54,-96.16 217.52,-90.53 206.99,-89.33 208.54,-96.16"/>
</g>
<!-- &#45;3 -->
<g id="node3" class="node">
<title>&#45;3</title>
<polygon fill="lightgray" stroke="black" points="262.5,-244.18 239,-244.18 239,-225.68 262.5,-225.68 262.5,-244.18"/>
<text text-anchor="middle" x="250.75" y="-231.63" font-family="Times,serif" font-size="9.00">&#45;3</text>
</g>
<!-- 613 -->
<g id="node26" class="node">
<title>613</title>
<ellipse fill="white" stroke="black" cx="184.75" cy="-163.57" rx="20.86" ry="20.86"/>
<text text-anchor="middle" x="184.75" y="-160.27" font-family="Times,serif" font-size="9.00">613</text>
</g>
<!-- &#45;3&#45;&gt;613 -->
<g id="edge46" class="edge">
<title>&#45;3&#45;&gt;613</title>
<path fill="none" stroke="green" stroke-width="0.26" d="M242.66,-225.42C233.56,-215.87 218.44,-199.97 205.93,-186.83"/>
<polygon fill="green" stroke="green" stroke-width="0.26" points="208.63,-184.59 199.2,-179.76 203.56,-189.41 208.63,-184.59"/>
</g>
<!-- &#45;3&#45;&gt;89 -->
<g id="edge12" class="edge">
<title>&#45;3&#45;&gt;89</title>
<path fill="none" stroke="red" stroke-width="0.26" d="M238.59,-231.82C217.19,-227.38 173.29,-214.85 154.75,-184.43 145.1,-168.6 146.13,-159.13 154.75,-142.71 166.25,-120.82 190.64,-105.82 209.67,-96.92"/>
<polygon fill="red" stroke="red" stroke-width="0.26" points="210.92,-100.2 218.68,-92.98 208.12,-93.78 210.92,-100.2"/>
</g>
<!-- 90 -->
<g id="node29" class="node">
<title>90</title>
<ellipse fill="white" stroke="black" cx="507.75" cy="-85.85" rx="17.68" ry="17.68"/>
<text text-anchor="middle" x="507.75" y="-82.55" font-family="Times,serif" font-size="9.00">90</text>
</g>
<!-- &#45;3&#45;&gt;90 -->
<g id="edge33" class="edge">
<title>&#45;3&#45;&gt;90</title>
<path fill="none" stroke="green" stroke-width="0.26" d="M259.33,-225.24C269,-215.42 285.14,-198.91 298.75,-184.43 315.93,-166.15 315.69,-156.33 336.75,-142.71 382.15,-113.36 444.33,-98.16 479.85,-91.4"/>
<polygon fill="green" stroke="green" stroke-width="0.26" points="480.37,-94.86 489.58,-89.63 479.12,-87.97 480.37,-94.86"/>
</g>
<!-- 91 -->
<g id="node30" class="node">
<title>91</title>
<ellipse fill="white" stroke="black" cx="765.75" cy="-85.85" rx="17.68" ry="17.68"/>
<text text-anchor="middle" x="765.75" y="-82.55" font-family="Times,serif" font-size="9.00">91</text>
</g>
<!-- &#45;3&#45;&gt;91 -->
<g id="edge8" class="edge">
<title>&#45;3&#45;&gt;91</title>
<path fill="none" stroke="green" stroke-width="0.14" d="M261.77,-225.38C264.84,-223.41 268.29,-221.57 271.75,-220.43 330.87,-200.98 788.18,-229.83 830.75,-184.43 843.43,-170.9 838.49,-159.56 830.75,-142.71 822.29,-124.29 804.42,-109.65 789.56,-99.99"/>
<polygon fill="green" stroke="green" stroke-width="0.14" points="791.78,-97.25 781.43,-95 788.12,-103.21 791.78,-97.25"/>
</g>
<!-- &#45;4 -->
<g id="node4" class="node">
<title>&#45;4</title>
<polygon fill="lightgray" stroke="black" points="553.5,-172.82 530,-172.82 530,-154.32 553.5,-154.32 553.5,-172.82"/>
<text text-anchor="middle" x="541.75" y="-160.27" font-family="Times,serif" font-size="9.00">&#45;4</text>
</g>
<!-- &#45;4&#45;&gt;90 -->
<g id="edge4" class="edge">
<title>&#45;4&#45;&gt;90</title>
<path fill="none" stroke="green" stroke-width="0.52" d="M537.85,-153.88C533.29,-143.72 525.53,-126.44 519.03,-111.97"/>
<polygon fill="green" stroke="green" stroke-width="0.52" points="522.4,-110.93 515.11,-103.24 516.01,-113.79 522.4,-110.93"/>
</g>
<!-- 92 -->
<g id="node31" class="node">
<title>92</title>
<ellipse fill="white" stroke="black" cx="639.75" cy="-85.85" rx="17.68" ry="17.68"/>
<text text-anchor="middle" x="639.75" y="-82.55" font-family="Times,serif" font-size="9.00">92</text>
</g>
<!-- &#45;4&#45;&gt;92 -->
<g id="edge14" class="edge">
<title>&#45;4&#45;&gt;92</title>
<path fill="none" stroke="green" stroke-width="0.58" stroke-dasharray="1,5" d="M550.1,-154.19C553.86,-150.55 558.42,-146.3 562.75,-142.71 580.01,-128.39 600.63,-113.54 616.19,-102.76"/>
<polygon fill="green" stroke="green" stroke-width="0.58" points="618.16,-105.65 624.42,-97.1 614.19,-99.88 618.16,-105.65"/>
</g>
<!-- &#45;5 -->
<g id="node5" class="node">
<title>&#45;5</title>
<polygon fill="lightgray" stroke="black" points="595.5,-172.82 572,-172.82 572,-154.32 595.5,-154.32 595.5,-172.82"/>
<text text-anchor="middle" x="583.75" y="-160.27" font-family="Times,serif" font-size="9.00">&#45;5</text>
</g>
<!-- 4 -->
<g id="node25" class="node">
<title>4</title>
<ellipse fill="lightblue" stroke="black" cx="583.75" cy="-14.5" rx="14.5" ry="14.5"/>
<text text-anchor="middle" x="583.75" y="-11.2" font-family="Times,serif" font-size="9.00">4</text>
</g>
<!-- &#45;5&#45;&gt;4 -->
<g id="edge44" class="edge">
<title>&#45;5&#45;&gt;4</title>
<path fill="none" stroke="red" stroke-width="0.43" d="M583.75,-154.24C583.75,-132.51 583.75,-73.46 583.75,-39.82"/>
<polygon fill="red" stroke="red" stroke-width="0.43" points="587.25,-40.12 583.75,-30.12 580.25,-40.12 587.25,-40.12"/>
</g>
<!-- &#45;5&#45;&gt;90 -->
<g id="edge7" class="edge">
<title>&#45;5&#45;&gt;90</title>
<path fill="none" stroke="green" stroke-width="0.19" d="M575.03,-153.88C563.37,-142.27 542.38,-121.35 526.93,-105.96"/>
<polygon fill="green" stroke="green" stroke-width="0.19" points="529.62,-103.7 520.06,-99.12 524.68,-108.66 529.62,-103.7"/>
</g>
<!-- &#45;5&#45;&gt;92 -->
<g id="edge37" class="edge">
<title>&#45;5&#45;&gt;92</title>
<path fill="none" stroke="red" stroke-width="0.32" stroke-dasharray="1,5" d="M590.17,-153.88C598.24,-142.97 612.38,-123.86 623.5,-108.83"/>
<polygon fill="red" stroke="red" stroke-width="0.32" points="626.2,-111.06 629.33,-100.94 620.57,-106.89 626.2,-111.06"/>
</g>
<!-- &#45;6 -->
<g id="node6" class="node">
<title>&#45;6</title>
<polygon fill="lightgray" stroke="black" points="247.5,-172.82 224,-172.82 224,-154.32 247.5,-154.32 247.5,-172.82"/>
<text text-anchor="middle" x="235.75" y="-160.27" font-family="Times,serif" font-size="9.00">&#45;6</text>
</g>
<!-- &#45;6&#45;&gt;89 -->
<g id="edge42" class="edge">
<title>&#45;6&#45;&gt;89</title>
<path fill="none" stroke="green" stroke-width="0.33" d="M235.75,-153.88C235.75,-144.23 235.75,-128.14 235.75,-114.15"/>
<polygon fill="green" stroke="green" stroke-width="0.33" points="239.25,-114.49 235.75,-104.49 232.25,-114.49 239.25,-114.49"/>
</g>
<!-- &#45;6&#45;&gt;90 -->
<g id="edge9" class="edge">
<title>&#45;6&#45;&gt;90</title>
<path fill="none" stroke="red" stroke-width="0.29" d="M242.73,-154.1C246.49,-150.08 251.43,-145.54 256.75,-142.71 330.82,-103.37 431.35,-91.69 479.62,-88.26"/>
<polygon fill="red" stroke="red" stroke-width="0.29" points="479.72,-91.76 489.47,-87.62 479.27,-84.77 479.72,-91.76"/>
</g>
<!-- &#45;7 -->
<g id="node7" class="node">
<title>&#45;7</title>
<polygon fill="lightgray" stroke="black" points="289.5,-172.82 266,-172.82 266,-154.32 289.5,-154.32 289.5,-172.82"/>
<text text-anchor="middle" x="277.75" y="-160.27" font-family="Times,serif" font-size="9.00">&#45;7</text>
</g>
<!-- &#45;7&#45;&gt;89 -->
<g id="edge35" class="edge">
<title>&#45;7&#45;&gt;89</title>
<path fill="none" stroke="red" stroke-width="0.19" d="M272.93,-153.88C267.12,-143.4 257.09,-125.33 248.92,-110.6"/>
<polygon fill="red" stroke="red" stroke-width="0.19" points="252.18,-109.25 244.27,-102.2 246.06,-112.65 252.18,-109.25"/>
</g>
<!-- &#45;7&#45;&gt;90 -->
<g id="edge6" class="edge">
<title>&#45;7&#45;&gt;90</title>
<path fill="none" stroke="green" stroke-width="0.17" stroke-dasharray="1,5" d="M287.28,-153.87C291.95,-149.99 297.85,-145.63 303.75,-142.71 362.96,-113.39 439.71,-97.69 480.1,-90.95"/>
<polygon fill="green" stroke="green" stroke-width="0.17" points="480.44,-94.44 489.76,-89.4 479.33,-87.53 480.44,-94.44"/>
</g>
<!-- &#45;8 -->
<g id="node8" class="node">
<title>&#45;8</title>
<polygon fill="lightgray" stroke="black" points="107.5,-172.82 84,-172.82 84,-154.32 107.5,-154.32 107.5,-172.82"/>
<text text-anchor="middle" x="95.75" y="-160.27" font-family="Times,serif" font-size="9.00">&#45;8</text>
</g>
<!-- &#45;8&#45;&gt;89 -->
<g id="edge19" class="edge">
<title>&#45;8&#45;&gt;89</title>
<path fill="none" stroke="red" stroke-width="0.13" stroke-dasharray="1,5" d="M106.04,-153.96C110.69,-150.28 116.34,-146.06 121.75,-142.71 150.78,-124.75 186.41,-108.08 210.03,-97.71"/>
<polygon fill="red" stroke="red" stroke-width="0.13" points="211.39,-100.93 219.17,-93.74 208.61,-94.51 211.39,-100.93"/>
</g>
<!-- &#45;9 -->
<g id="node9" class="node">
<title>&#45;9</title>
<polygon fill="lightgray" stroke="black" points="821.5,-172.82 798,-172.82 798,-154.32 821.5,-154.32 821.5,-172.82"/>
<text text-anchor="middle" x="809.75" y="-160.27" font-family="Times,serif" font-size="9.00">&#45;9</text>
</g>
<!-- &#45;9&#45;&gt;91 -->
<g id="edge38" class="edge">
<title>&#45;9&#45;&gt;91</title>
<path fill="none" stroke="green" stroke-width="0.48" d="M804.7,-153.88C798.63,-143.43 788.18,-125.45 779.63,-110.75"/>
<polygon fill="green" stroke="green" stroke-width="0.48" points="782.77,-109.18 774.72,-102.29 776.72,-112.69 782.77,-109.18"/>
</g>
<!-- &#45;9&#45;&gt;92 -->
<g id="edge29" class="edge">
<title>&#45;9&#45;&gt;92</title>
<path fill="none" stroke="green" stroke-width="0.49" stroke-dasharray="1,5" d="M802.27,-153.92C798.53,-150.04 793.75,-145.69 788.75,-142.71 744.55,-116.4 726.26,-126.44 678.75,-106.71 674,-104.74 669.04,-102.42 664.3,-100.08"/>
<polygon fill="green" stroke="green" stroke-width="0.49" points="666.2,-97.12 655.71,-95.67 663.01,-103.35 666.2,-97.12"/>
</g>
<!-- &#45;10 -->
<g id="node10" class="node">
<title>&#45;10</title>
<polygon fill="lightgray" stroke="black" points="905.75,-172.82 877.75,-172.82 877.75,-154.32 905.75,-154.32 905.75,-172.82"/>
<text text-anchor="middle" x="891.75" y="-160.27" font-family="Times,serif" font-size="9.00">&#45;10</text>
</g>
<!-- &#45;10&#45;&gt;91 -->
<g id="edge25" class="edge">
<title>&#45;10&#45;&gt;91</title>
<path fill="none" stroke="green" stroke-width="0.49" stroke-dasharray="1,5" d="M880.21,-154C875.23,-150.4 869.28,-146.23 863.75,-142.71 839.45,-127.22 810.71,-111.08 790.66,-100.16"/>
<polygon fill="green" stroke="green" stroke-width="0.49" points="792.42,-97.14 781.96,-95.46 789.09,-103.29 792.42,-97.14"/>
</g>
<!-- &#45;11 -->
<g id="node11" class="node">
<title>&#45;11</title>
<polygon fill="lightgray" stroke="black" points="373.75,-172.82 345.75,-172.82 345.75,-154.32 373.75,-154.32 373.75,-172.82"/>
<text text-anchor="middle" x="359.75" y="-160.27" font-family="Times,serif" font-size="9.00">&#45;11</text>
</g>
<!-- &#45;11&#45;&gt;89 -->
<g id="edge28" class="edge">
<title>&#45;11&#45;&gt;89</title>
<path fill="none" stroke="red" stroke-width="0.2" stroke-dasharray="1,5" d="M345.53,-153.88C324.45,-141.01 284.68,-116.73 259.24,-101.2"/>
<polygon fill="red" stroke="red" stroke-width="0.2" points="261.19,-98.29 250.83,-96.06 257.54,-104.26 261.19,-98.29"/>
</g>
<!-- &#45;11&#45;&gt;92 -->
<g id="edge41" class="edge">
<title>&#45;11&#45;&gt;92</title>
<path fill="none" stroke="red" stroke-width="0.55" d="M367.53,-154.11C371.68,-150.08 377.09,-145.54 382.75,-142.71 403.23,-132.48 549.3,-104.01 611.66,-92.14"/>
<polygon fill="red" stroke="red" stroke-width="0.55" points="612.28,-95.59 621.45,-90.29 610.97,-88.71 612.28,-95.59"/>
</g>
<!-- &#45;12 -->
<g id="node12" class="node">
<title>&#45;12</title>
<polygon fill="lightgray" stroke="black" points="419.75,-172.82 391.75,-172.82 391.75,-154.32 419.75,-154.32 419.75,-172.82"/>
<text text-anchor="middle" x="405.75" y="-160.27" font-family="Times,serif" font-size="9.00">&#45;12</text>
</g>
<!-- &#45;12&#45;&gt;89 -->
<g id="edge26" class="edge">
<title>&#45;12&#45;&gt;89</title>
<path fill="none" stroke="green" stroke-width="0.19" stroke-dasharray="1,5" d="M397.35,-154.06C393.22,-150.22 388.01,-145.84 382.75,-142.71 343.56,-119.34 292.9,-102.68 262.44,-93.93"/>
<polygon fill="green" stroke="green" stroke-width="0.19" points="263.78,-90.67 253.2,-91.34 261.89,-97.41 263.78,-90.67"/>
</g>
<!-- &#45;12&#45;&gt;90 -->
<g id="edge13" class="edge">
<title>&#45;12&#45;&gt;90</title>
<path fill="none" stroke="red" stroke-width="0.13" d="M415.42,-153.85C419.47,-150.3 424.26,-146.22 428.75,-142.71 447.17,-128.3 468.92,-113.04 484.93,-102.12"/>
<polygon fill="red" stroke="red" stroke-width="0.13" points="486.7,-105.15 493.02,-96.64 482.78,-99.35 486.7,-105.15"/>
</g>
<!-- &#45;12&#45;&gt;92 -->
<g id="edge21" class="edge">
<title>&#45;12&#45;&gt;92</title>
<path fill="none" stroke="green" stroke-width="0.36" stroke-dasharray="1,5" d="M413.59,-154.21C417.75,-150.21 423.15,-145.67 428.75,-142.71 460.76,-125.82 562.51,-103.03 612.08,-92.55"/>
<polygon fill="green" stroke="green" stroke-width="0.36" points="612.77,-95.98 621.84,-90.51 611.34,-89.13 612.77,-95.98"/>
</g>
<!-- &#45;13 -->
<g id="node13" class="node">
<title>&#45;13</title>
<polygon fill="lightgray" stroke="black" points="733.75,-172.82 705.75,-172.82 705.75,-154.32 733.75,-154.32 733.75,-172.82"/>
<text text-anchor="middle" x="719.75" y="-160.27" font-family="Times,serif" font-size="9.00">&#45;13</text>
</g>
<!-- &#45;13&#45;&gt;92 -->
<g id="edge22" class="edge">
<title>&#45;13&#45;&gt;92</title>
<path fill="none" stroke="green" stroke-width="0.33" stroke-dasharray="1,5" d="M710.57,-153.88C698.23,-142.2 675.95,-121.11 659.66,-105.7"/>
<polygon fill="green" stroke="green" stroke-width="0.33" points="662.25,-103.33 652.58,-98.99 657.44,-108.41 662.25,-103.33"/>
</g>
<!-- &#45;14 -->
<g id="node14" class="node">
<title>&#45;14</title>
<polygon fill="lightgray" stroke="black" points="951.75,-172.82 923.75,-172.82 923.75,-154.32 951.75,-154.32 951.75,-172.82"/>
<text text-anchor="middle" x="937.75" y="-160.27" font-family="Times,serif" font-size="9.00">&#45;14</text>
</g>
<!-- &#45;14&#45;&gt;91 -->
<g id="edge24" class="edge">
<title>&#45;14&#45;&gt;91</title>
<path fill="none" stroke="red" stroke-width="0.39" d="M929.36,-154.05C925.23,-150.2 920.01,-145.83 914.75,-142.71 875.01,-119.13 823.58,-102.52 792.71,-93.83"/>
<polygon fill="red" stroke="red" stroke-width="0.39" points="793.85,-90.51 783.28,-91.25 792,-97.27 793.85,-90.51"/>
</g>
<!-- &#45;15 -->
<g id="node15" class="node">
<title>&#45;15</title>
<polygon fill="lightgray" stroke="black" points="641.75,-172.82 613.75,-172.82 613.75,-154.32 641.75,-154.32 641.75,-172.82"/>
<text text-anchor="middle" x="627.75" y="-160.27" font-family="Times,serif" font-size="9.00">&#45;15</text>
</g>
<!-- &#45;15&#45;&gt;89 -->
<g id="edge1" class="edge">
<title>&#45;15&#45;&gt;89</title>
<path fill="none" stroke="red" stroke-width="0.23" stroke-dasharray="1,5" d="M620.04,-153.95C615.91,-149.89 610.5,-145.36 604.75,-142.71 543.6,-114.57 338.63,-95.31 263.58,-89.06"/>
<polygon fill="red" stroke="red" stroke-width="0.23" points="264.09,-85.58 253.84,-88.26 263.52,-92.56 264.09,-85.58"/>
</g>
<!-- &#45;15&#45;&gt;91 -->
<g id="edge39" class="edge">
<title>&#45;15&#45;&gt;91</title>
<path fill="none" stroke="green" stroke-width="0.18" stroke-dasharray="1,5" d="M636.18,-154.12C640.32,-150.29 645.53,-145.91 650.75,-142.71 686.77,-120.61 701.9,-127.39 738.75,-106.71 740.46,-105.75 742.19,-104.7 743.91,-103.59"/>
<polygon fill="green" stroke="green" stroke-width="0.18" points="745.75,-106.58 751.96,-97.99 741.75,-100.83 745.75,-106.58"/>
</g>
<!-- &#45;15&#45;&gt;92 -->
<g id="edge34" class="edge">
<title>&#45;15&#45;&gt;92</title>
<path fill="none" stroke="red" stroke-width="0.43" d="M629.13,-153.88C630.67,-144.16 633.24,-127.93 635.47,-113.88"/>
<polygon fill="red" stroke="red" stroke-width="0.43" points="638.87,-114.76 636.98,-104.34 631.96,-113.67 638.87,-114.76"/>
</g>
<!-- &#45;16 -->
<g id="node16" class="node">
<title>&#45;16</title>
<polygon fill="lightgray" stroke="black" points="779.75,-172.82 751.75,-172.82 751.75,-154.32 779.75,-154.32 779.75,-172.82"/>
<text text-anchor="middle" x="765.75" y="-160.27" font-family="Times,serif" font-size="9.00">&#45;16</text>
</g>
<!-- 334 -->
<g id="node27" class="node">
<title>334</title>
<ellipse fill="white" stroke="black" cx="708.75" cy="-85.85" rx="20.86" ry="20.86"/>
<text text-anchor="middle" x="708.75" y="-82.55" font-family="Times,serif" font-size="9.00">334</text>
</g>
<!-- &#45;16&#45;&gt;334 -->
<g id="edge45" class="edge">
<title>&#45;16&#45;&gt;334</title>
<path fill="none" stroke="green" stroke-width="0.4" d="M759.21,-153.88C751.44,-143.56 738.13,-125.88 727.14,-111.28"/>
<polygon fill="green" stroke="green" stroke-width="0.4" points="730.16,-109.47 721.35,-103.59 724.57,-113.68 730.16,-109.47"/>
</g>
<!-- &#45;16&#45;&gt;90 -->
<g id="edge18" class="edge">
<title>&#45;16&#45;&gt;90</title>
<path fill="none" stroke="red" stroke-width="0.12" d="M757.95,-154.15C753.79,-150.14 748.39,-145.59 742.75,-142.71 706.35,-124.09 589.05,-101.43 535.22,-91.68"/>
<polygon fill="red" stroke="red" stroke-width="0.12" points="535.98,-88.26 525.52,-89.94 534.74,-95.15 535.98,-88.26"/>
</g>
<!-- &#45;16&#45;&gt;91 -->
<g id="edge17" class="edge">
<title>&#45;16&#45;&gt;91</title>
<path fill="none" stroke="red" stroke-width="0.38" d="M765.75,-153.88C765.75,-144.32 765.75,-128.46 765.75,-114.56"/>
<polygon fill="red" stroke="red" stroke-width="0.38" points="769.25,-114.57 765.75,-104.57 762.25,-114.57 769.25,-114.57"/>
</g>
<!-- &#45;16&#45;&gt;92 -->
<g id="edge31" class="edge">
<title>&#45;16&#45;&gt;92</title>
<path fill="none" stroke="green" stroke-width="0.12" stroke-dasharray="1,5" d="M756.72,-153.98C752.62,-150.29 747.61,-146.07 742.75,-142.71 728.89,-133.13 689.84,-112.56 664,-99.23"/>
<polygon fill="green" stroke="green" stroke-width="0.12" points="665.81,-96.23 655.31,-94.77 662.61,-102.45 665.81,-96.23"/>
</g>
<!-- &#45;17 -->
<g id="node17" class="node">
<title>&#45;17</title>
<polygon fill="lightgray" stroke="black" points="511.75,-172.82 483.75,-172.82 483.75,-154.32 511.75,-154.32 511.75,-172.82"/>
<text text-anchor="middle" x="497.75" y="-160.27" font-family="Times,serif" font-size="9.00">&#45;17</text>
</g>
<!-- &#45;17&#45;&gt;90 -->
<g id="edge10" class="edge">
<title>&#45;17&#45;&gt;90</title>
<path fill="none" stroke="green" stroke-width="0.13" d="M498.9,-153.88C500.19,-144.07 502.37,-127.62 504.23,-113.47"/>
<polygon fill="green" stroke="green" stroke-width="0.13" points="507.66,-114.27 505.5,-103.89 500.72,-113.35 507.66,-114.27"/>
</g>
<!-- &#45;18 -->
<g id="node18" class="node">
<title>&#45;18</title>
<polygon fill="lightgray" stroke="black" points="308.75,-244.18 280.75,-244.18 280.75,-225.68 308.75,-225.68 308.75,-244.18"/>
<text text-anchor="middle" x="294.75" y="-231.63" font-family="Times,serif" font-size="9.00">&#45;18</text>
</g>
<!-- &#45;19 -->
<g id="node19" class="node">
<title>&#45;19</title>
<polygon fill="lightgray" stroke="black" points="687.75,-172.82 659.75,-172.82 659.75,-154.32 687.75,-154.32 687.75,-172.82"/>
<text text-anchor="middle" x="673.75" y="-160.27" font-family="Times,serif" font-size="9.00">&#45;19</text>
</g>
<!-- &#45;19&#45;&gt;90 -->
<g id="edge15" class="edge">
<title>&#45;19&#45;&gt;90</title>
<path fill="none" stroke="green" stroke-width="0.14" d="M665.34,-154.08C661.21,-150.24 655.99,-145.87 650.75,-142.71 612.97,-119.95 564.28,-103.27 534.57,-94.32"/>
<polygon fill="green" stroke="green" stroke-width="0.14" points="535.69,-91.01 525.11,-91.55 533.72,-97.72 535.69,-91.01"/>
</g>
<!-- &#45;19&#45;&gt;91 -->
<g id="edge2" class="edge">
<title>&#45;19&#45;&gt;91</title>
<path fill="none" stroke="green" stroke-width="0.31" stroke-dasharray="1,5" d="M683.54,-154C687.6,-150.47 692.38,-146.37 696.75,-142.71 712.51,-129.53 730.57,-114.93 744.26,-103.96"/>
<polygon fill="green" stroke="green" stroke-width="0.31" points="746.17,-106.92 751.79,-97.94 741.8,-101.45 746.17,-106.92"/>
</g>
<!-- &#45;19&#45;&gt;92 -->
<g id="edge30" class="edge">
<title>&#45;19&#45;&gt;92</title>
<path fill="none" stroke="red" stroke-width="0.27" d="M669.85,-153.88C665.29,-143.72 657.53,-126.44 651.03,-111.97"/>
<polygon fill="red" stroke="red" stroke-width="0.27" points="654.25,-110.59 646.96,-102.9 647.86,-113.46 654.25,-110.59"/>
</g>
<!-- &#45;20 -->
<g id="node20" class="node">
<title>&#45;20</title>
<polygon fill="lightgray" stroke="black" points="465.75,-172.82 437.75,-172.82 437.75,-154.32 465.75,-154.32 465.75,-172.82"/>
<text text-anchor="middle" x="451.75" y="-160.27" font-family="Times,serif" font-size="9.00">&#45;20</text>
</g>
<!-- &#45;20&#45;&gt;89 -->
<g id="edge27" class="edge">
<title>&#45;20&#45;&gt;89</title>
<path fill="none" stroke="red" stroke-width="0.2" d="M443.46,-153.87C439.36,-149.98 434.13,-145.63 428.75,-142.71 374.24,-113.14 302.36,-97.7 263.52,-91.03"/>
<polygon fill="red" stroke="red" stroke-width="0.2" points="264.22,-87.6 253.79,-89.42 263.08,-94.5 264.22,-87.6"/>
</g>
<!-- &#45;20&#45;&gt;91 -->
<g id="edge11" class="edge">
<title>&#45;20&#45;&gt;91</title>
<path fill="none" stroke="red" stroke-width="0.42" stroke-dasharray="1,5" d="M459.44,-153.92C463.57,-149.84 468.98,-145.31 474.75,-142.71 582.69,-94 628.99,-151.17 738.75,-106.71 740.61,-105.96 742.46,-105.05 744.27,-104.03"/>
<polygon fill="red" stroke="red" stroke-width="0.42" points="745.87,-107.17 752.28,-98.74 742.01,-101.33 745.87,-107.17"/>
</g>
<!-- 0 -->
<g id="node21" class="node">
<title>0</title>
<ellipse fill="lightblue" stroke="black" cx="235.75" cy="-14.5" rx="14.5" ry="14.5"/>
<text text-anchor="middle" x="235.75" y="-11.2" font-family="Times,serif" font-size="9.00">0</text>
</g>
<!-- 0&#45;&gt;0 -->
<g id="edge40" class="edge">
<title>0&#45;&gt;0</title>
<path fill="none" stroke="red" stroke-width="0.16" d="M246.07,-24.94C256.56,-31.08 268.25,-27.6 268.25,-14.5 268.25,-5.49 262.72,-1.03 255.86,-1.12"/>
<polygon fill="red" stroke="red" stroke-width="0.16" points="254.87,2.24 246.3,-3.99 256.88,-4.47 254.87,2.24"/>
</g>
<!-- 1 -->
<g id="node22" class="node">
<title>1</title>
<ellipse fill="lightblue" stroke="black" cx="340.75" cy="-234.93" rx="14.5" ry="14.5"/>
<text text-anchor="middle" x="340.75" y="-231.63" font-family="Times,serif" font-size="9.00">1</text>
</g>
<!-- 2 -->
<g id="node23" class="node">
<title>2</title>
<ellipse fill="lightblue" stroke="black" cx="526.75" cy="-14.5" rx="14.5" ry="14.5"/>
<text text-anchor="middle" x="526.75" y="-11.2" font-family="Times,serif" font-size="9.00">2</text>
</g>
<!-- 3 -->
<g id="node24" class="node">
<title>3</title>
<ellipse fill="lightblue" stroke="black" cx="648.75" cy="-14.5" rx="14.5" ry="14.5"/>
<text text-anchor="middle" x="648.75" y="-11.2" font-family="Times,serif" font-size="9.00">3</text>
</g>
<!-- 4&#45;&gt;4 -->
<g id="edge20" class="edge">
<title>4&#45;&gt;4</title>
<path fill="none" stroke="green" stroke-width="0.44" d="M594.07,-24.94C604.56,-31.08 616.25,-27.6 616.25,-14.5 616.25,-5.49 610.72,-1.03 603.86,-1.12"/>
<polygon fill="green" stroke="green" stroke-width="0.44" points="603.28,2.36 594.71,-3.86 605.29,-4.34 603.28,2.36"/>
</g>
<!-- 613&#45;&gt;89 -->
<g id="edge47" class="edge">
<title>613&#45;&gt;89</title>
<path fill="none" stroke="red" stroke-width="0.45" stroke-dasharray="1,5" d="M196.07,-145.77C203.2,-135.18 212.5,-121.37 220.31,-109.78"/>
<polygon fill="red" stroke="red" stroke-width="0.45" points="223.11,-111.88 225.8,-101.63 217.31,-107.97 223.11,-111.88"/>
</g>
<!-- 89&#45;&gt;0 -->
<g id="edge5" class="edge">
<title>89&#45;&gt;0</title>
<path fill="none" stroke="green" stroke-width="0.18" d="M235.75,-67.71C235.75,-59.17 235.75,-48.72 235.75,-39.41"/>
<polygon fill="green" stroke="green" stroke-width="0.18" points="239.25,-39.47 235.75,-29.47 232.25,-39.47 239.25,-39.47"/>
</g>
<!-- 90&#45;&gt;2 -->
<g id="edge16" class="edge">
<title>90&#45;&gt;2</title>
<path fill="none" stroke="green" stroke-width="0.3" d="M512.25,-68.41C514.67,-59.59 517.69,-48.56 520.35,-38.86"/>
<polygon fill="green" stroke="green" stroke-width="0.3" points="523.66,-40.03 522.92,-29.46 516.91,-38.18 523.66,-40.03"/>
</g>
<!-- 91&#45;&gt;2 -->
<g id="edge3" class="edge">
<title>91&#45;&gt;2</title>
<path fill="none" stroke="red" stroke-width="0.23" d="M752.73,-73.51C748.51,-70.33 743.64,-67.16 738.75,-64.99 664.95,-32.31 638.12,-51.97 560.75,-28.99 557,-27.88 553.08,-26.52 549.3,-25.09"/>
<polygon fill="red" stroke="red" stroke-width="0.23" points="550.71,-21.89 540.12,-21.44 548.11,-28.39 550.71,-21.89"/>
</g>
<!-- 91&#45;&gt;4 -->
<g id="edge43" class="edge">
<title>91&#45;&gt;4</title>
<path fill="none" stroke="red" stroke-width="0.62" stroke-dasharray="1,5" d="M752.3,-73.63C748.14,-70.53 743.42,-67.37 738.75,-64.99 691.79,-41.06 675.95,-45.05 625.75,-28.99 619.82,-27.1 613.43,-25.04 607.46,-23.13"/>
<polygon fill="red" stroke="red" stroke-width="0.62" points="608.85,-19.9 598.26,-20.17 606.71,-26.56 608.85,-19.9"/>
</g>
<!-- 92&#45;&gt;3 -->
<g id="edge32" class="edge">
<title>92&#45;&gt;3</title>
<path fill="none" stroke="green" stroke-width="0.76" d="M641.93,-68.06C643.01,-59.72 644.34,-49.47 645.54,-40.25"/>
<polygon fill="green" stroke="green" stroke-width="0.76" points="648.99,-40.84 646.81,-30.47 642.05,-39.94 648.99,-40.84"/>
</g>
</g>
</svg>
