<?xml version="1.0" encoding="UTF-8" standalone="no"?>
<!DOCTYPE svg PUBLIC "-//W3C//DTD SVG 1.1//EN"
 "http://www.w3.org/Graphics/SVG/1.1/DTD/svg11.dtd">
<!-- Generated by graphviz version 12.1.1 (20240910.0053)
 -->
<!-- Pages: 1 -->
<svg width="874pt" height="163pt"
 viewBox="0.00 0.00 874.00 162.85" xmlns="http://www.w3.org/2000/svg" xmlns:xlink="http://www.w3.org/1999/xlink">
<g id="graph0" class="graph" transform="scale(1 1) rotate(0) translate(4 158.85)">
<polygon fill="white" stroke="none" points="-4,4 -4,-158.85 870,-158.85 870,4 -4,4"/>
<!-- &#45;1 -->
<g id="node1" class="node">
<title>&#45;1</title>
<polygon fill="lightgray" stroke="black" points="69.75,-154.85 46.25,-154.85 46.25,-136.35 69.75,-136.35 69.75,-154.85"/>
<text text-anchor="middle" x="58" y="-142.3" font-family="Times,serif" font-size="9.00">&#45;1</text>
</g>
<!-- 65 -->
<g id="node26" class="node">
<title>65</title>
<ellipse fill="white" stroke="black" cx="213" cy="-82.67" rx="17.68" ry="17.68"/>
<text text-anchor="middle" x="213" y="-79.37" font-family="Times,serif" font-size="9.00">65</text>
</g>
<!-- &#45;1&#45;&gt;65 -->
<g id="edge24" class="edge">
<title>&#45;1&#45;&gt;65</title>
<path fill="none" stroke="green" stroke-width="0.27" d="M70.16,-139.82C95.26,-129.95 153.25,-107.15 187.12,-93.84"/>
<polygon fill="green" stroke="green" stroke-width="0.27" points="188.38,-97.11 196.41,-90.19 185.82,-90.59 188.38,-97.11"/>
</g>
<!-- &#45;2 -->
<g id="node2" class="node">
<title>&#45;2</title>
<polygon fill="lightgray" stroke="black" points="467.75,-154.85 444.25,-154.85 444.25,-136.35 467.75,-136.35 467.75,-154.85"/>
<text text-anchor="middle" x="456" y="-142.3" font-family="Times,serif" font-size="9.00">&#45;2</text>
</g>
<!-- &#45;2&#45;&gt;65 -->
<g id="edge40" class="edge">
<title>&#45;2&#45;&gt;65</title>
<path fill="none" stroke="red" stroke-width="0.15" d="M444.11,-139.59C441.16,-138.44 437.99,-137.28 435,-136.35 366,-114.73 282.54,-97.16 240.31,-88.85"/>
<polygon fill="red" stroke="red" stroke-width="0.15" points="241.21,-85.46 230.72,-86.99 239.87,-92.33 241.21,-85.46"/>
</g>
<!-- 66 -->
<g id="node27" class="node">
<title>66</title>
<ellipse fill="white" stroke="black" cx="623" cy="-82.67" rx="17.68" ry="17.68"/>
<text text-anchor="middle" x="623" y="-79.37" font-family="Times,serif" font-size="9.00">66</text>
</g>
<!-- &#45;2&#45;&gt;66 -->
<g id="edge23" class="edge">
<title>&#45;2&#45;&gt;66</title>
<path fill="none" stroke="red" stroke-width="0.13" d="M467.97,-139.83C470.92,-138.67 474.07,-137.45 477,-136.35 518.73,-120.63 567.52,-103.22 596.8,-92.87"/>
<polygon fill="red" stroke="red" stroke-width="0.13" points="597.85,-96.21 606.12,-89.59 595.53,-89.61 597.85,-96.21"/>
</g>
<!-- 68 -->
<g id="node29" class="node">
<title>68</title>
<ellipse fill="white" stroke="black" cx="346" cy="-82.67" rx="17.68" ry="17.68"/>
<text text-anchor="middle" x="346" y="-79.37" font-family="Times,serif" font-size="9.00">68</text>
</g>
<!-- &#45;2&#45;&gt;68 -->
<g id="edge37" class="edge">
<title>&#45;2&#45;&gt;68</title>
<path fill="none" stroke="green" stroke-width="0.12" d="M443.81,-137.84C426.11,-128.04 392.93,-109.66 370.17,-97.05"/>
<polygon fill="green" stroke="green" stroke-width="0.12" points="372.03,-94.08 361.58,-92.3 368.63,-100.21 372.03,-94.08"/>
</g>
<!-- &#45;3 -->
<g id="node3" class="node">
<title>&#45;3</title>
<polygon fill="lightgray" stroke="black" points="593.75,-154.85 570.25,-154.85 570.25,-136.35 593.75,-136.35 593.75,-154.85"/>
<text text-anchor="middle" x="582" y="-142.3" font-family="Times,serif" font-size="9.00">&#45;3</text>
</g>
<!-- 67 -->
<g id="node28" class="node">
<title>67</title>
<ellipse fill="white" stroke="black" cx="719" cy="-82.67" rx="17.68" ry="17.68"/>
<text text-anchor="middle" x="719" y="-79.37" font-family="Times,serif" font-size="9.00">67</text>
</g>
<!-- &#45;3&#45;&gt;67 -->
<g id="edge36" class="edge">
<title>&#45;3&#45;&gt;67</title>
<path fill="none" stroke="green" stroke-width="0.13" d="M594.16,-139.19C616.4,-129.3 664.06,-108.1 693.64,-94.95"/>
<polygon fill="green" stroke="green" stroke-width="0.13" points="695.01,-98.17 702.72,-90.91 692.16,-91.77 695.01,-98.17"/>
</g>
<!-- &#45;3&#45;&gt;68 -->
<g id="edge1" class="edge">
<title>&#45;3&#45;&gt;68</title>
<path fill="none" stroke="green" stroke-width="0.19" d="M570.11,-139.6C567.16,-138.46 563.99,-137.29 561,-136.35 494.62,-115.28 414.48,-97.64 373.32,-89.13"/>
<polygon fill="green" stroke="green" stroke-width="0.19" points="374.28,-85.76 363.78,-87.18 372.88,-92.62 374.28,-85.76"/>
</g>
<!-- &#45;4 -->
<g id="node4" class="node">
<title>&#45;4</title>
<polygon fill="lightgray" stroke="black" points="551.75,-154.85 528.25,-154.85 528.25,-136.35 551.75,-136.35 551.75,-154.85"/>
<text text-anchor="middle" x="540" y="-142.3" font-family="Times,serif" font-size="9.00">&#45;4</text>
</g>
<!-- &#45;4&#45;&gt;66 -->
<g id="edge16" class="edge">
<title>&#45;4&#45;&gt;66</title>
<path fill="none" stroke="red" stroke-width="0.11" d="M551.89,-135.87C564.6,-126.54 585.04,-111.54 600.75,-100"/>
<polygon fill="red" stroke="red" stroke-width="0.11" points="602.79,-102.85 608.78,-94.11 598.64,-97.21 602.79,-102.85"/>
</g>
<!-- &#45;4&#45;&gt;68 -->
<g id="edge32" class="edge">
<title>&#45;4&#45;&gt;68</title>
<path fill="none" stroke="green" stroke-width="0.23" d="M528.07,-139.72C525.12,-138.57 521.96,-137.38 519,-136.35 467.68,-118.48 406.67,-100.69 372.53,-91.04"/>
<polygon fill="green" stroke="green" stroke-width="0.23" points="373.76,-87.75 363.18,-88.42 371.86,-94.49 373.76,-87.75"/>
</g>
<!-- &#45;5 -->
<g id="node5" class="node">
<title>&#45;5</title>
<polygon fill="lightgray" stroke="black" points="203.75,-154.85 180.25,-154.85 180.25,-136.35 203.75,-136.35 203.75,-154.85"/>
<text text-anchor="middle" x="192" y="-142.3" font-family="Times,serif" font-size="9.00">&#45;5</text>
</g>
<!-- &#45;5&#45;&gt;65 -->
<g id="edge7" class="edge">
<title>&#45;5&#45;&gt;65</title>
<path fill="none" stroke="green" stroke-width="0.31" d="M195.01,-135.87C197.37,-129 200.8,-119.07 204.03,-109.71"/>
<polygon fill="green" stroke="green" stroke-width="0.31" points="207.29,-110.99 207.24,-100.39 200.67,-108.71 207.29,-110.99"/>
</g>
<!-- &#45;5&#45;&gt;68 -->
<g id="edge6" class="edge">
<title>&#45;5&#45;&gt;68</title>
<path fill="none" stroke="red" stroke-width="0.25" d="M204.08,-139.82C229.02,-129.95 286.64,-107.15 320.29,-93.84"/>
<polygon fill="red" stroke="red" stroke-width="0.25" points="321.54,-97.11 329.55,-90.18 318.96,-90.6 321.54,-97.11"/>
</g>
<!-- &#45;6 -->
<g id="node6" class="node">
<title>&#45;6</title>
<polygon fill="lightgray" stroke="black" points="509.75,-154.85 486.25,-154.85 486.25,-136.35 509.75,-136.35 509.75,-154.85"/>
<text text-anchor="middle" x="498" y="-142.3" font-family="Times,serif" font-size="9.00">&#45;6</text>
</g>
<!-- &#45;6&#45;&gt;65 -->
<g id="edge15" class="edge">
<title>&#45;6&#45;&gt;65</title>
<path fill="none" stroke="green" stroke-width="0.18" d="M486.13,-139.51C483.18,-138.37 480.01,-137.23 477,-136.35 392.37,-111.49 289.04,-94.65 240.58,-87.52"/>
<polygon fill="green" stroke="green" stroke-width="0.18" points="241.22,-84.08 230.82,-86.11 240.22,-91.01 241.22,-84.08"/>
</g>
<!-- &#45;6&#45;&gt;66 -->
<g id="edge28" class="edge">
<title>&#45;6&#45;&gt;66</title>
<path fill="none" stroke="red" stroke-width="0.4" d="M509.99,-138.75C530.14,-128.93 571.24,-108.9 597.92,-95.89"/>
<polygon fill="red" stroke="red" stroke-width="0.4" points="599.37,-99.08 606.82,-91.55 596.3,-92.79 599.37,-99.08"/>
</g>
<!-- &#45;6&#45;&gt;68 -->
<g id="edge44" class="edge">
<title>&#45;6&#45;&gt;68</title>
<path fill="none" stroke="green" stroke-width="0.1" d="M485.82,-139.71C461.07,-129.79 404.45,-107.1 371.36,-93.83"/>
<polygon fill="green" stroke="green" stroke-width="0.1" points="373.03,-90.73 362.44,-90.26 370.42,-97.23 373.03,-90.73"/>
</g>
<!-- &#45;7 -->
<g id="node7" class="node">
<title>&#45;7</title>
<polygon fill="lightgray" stroke="black" points="379.75,-154.85 356.25,-154.85 356.25,-136.35 379.75,-136.35 379.75,-154.85"/>
<text text-anchor="middle" x="368" y="-142.3" font-family="Times,serif" font-size="9.00">&#45;7</text>
</g>
<!-- &#45;7&#45;&gt;68 -->
<g id="edge14" class="edge">
<title>&#45;7&#45;&gt;68</title>
<path fill="none" stroke="green" stroke-width="0.18" d="M364.85,-135.87C362.31,-128.83 358.6,-118.58 355.15,-109.01"/>
<polygon fill="green" stroke="green" stroke-width="0.18" points="358.48,-107.93 351.79,-99.71 351.9,-110.3 358.48,-107.93"/>
</g>
<!-- &#45;8 -->
<g id="node8" class="node">
<title>&#45;8</title>
<polygon fill="lightgray" stroke="black" points="245.75,-154.85 222.25,-154.85 222.25,-136.35 245.75,-136.35 245.75,-154.85"/>
<text text-anchor="middle" x="234" y="-142.3" font-family="Times,serif" font-size="9.00">&#45;8</text>
</g>
<!-- &#45;8&#45;&gt;65 -->
<g id="edge26" class="edge">
<title>&#45;8&#45;&gt;65</title>
<path fill="none" stroke="green" stroke-width="0.18" d="M230.99,-135.87C228.6,-128.93 225.13,-118.86 221.87,-109.41"/>
<polygon fill="green" stroke="green" stroke-width="0.18" points="225.27,-108.52 218.7,-100.21 218.65,-110.8 225.27,-108.52"/>
</g>
<!-- &#45;8&#45;&gt;68 -->
<g id="edge43" class="edge">
<title>&#45;8&#45;&gt;68</title>
<path fill="none" stroke="green" stroke-width="0.18" d="M245.99,-138.08C263.94,-128.31 298.2,-109.67 321.57,-96.96"/>
<polygon fill="green" stroke="green" stroke-width="0.18" points="323.19,-100.06 330.3,-92.21 319.84,-93.91 323.19,-100.06"/>
</g>
<!-- &#45;9 -->
<g id="node9" class="node">
<title>&#45;9</title>
<polygon fill="lightgray" stroke="black" points="727.75,-154.85 704.25,-154.85 704.25,-136.35 727.75,-136.35 727.75,-154.85"/>
<text text-anchor="middle" x="716" y="-142.3" font-family="Times,serif" font-size="9.00">&#45;9</text>
</g>
<!-- &#45;9&#45;&gt;66 -->
<g id="edge35" class="edge">
<title>&#45;9&#45;&gt;66</title>
<path fill="none" stroke="green" stroke-width="0.19" d="M703.84,-136.63C689.2,-127.04 664.3,-110.73 645.99,-98.73"/>
<polygon fill="green" stroke="green" stroke-width="0.19" points="648.14,-95.95 637.86,-93.4 644.3,-101.81 648.14,-95.95"/>
</g>
<!-- &#45;9&#45;&gt;67 -->
<g id="edge9" class="edge">
<title>&#45;9&#45;&gt;67</title>
<path fill="none" stroke="green" stroke-width="0.19" d="M716.43,-135.87C716.76,-129.25 717.22,-119.76 717.67,-110.7"/>
<polygon fill="green" stroke="green" stroke-width="0.19" points="721.16,-110.88 718.16,-100.72 714.17,-110.54 721.16,-110.88"/>
</g>
<!-- &#45;9&#45;&gt;68 -->
<g id="edge38" class="edge">
<title>&#45;9&#45;&gt;68</title>
<path fill="none" stroke="red" stroke-width="0.49" d="M704.16,-139.41C701.21,-138.27 698.03,-137.16 695,-136.35 578.24,-105.03 434.17,-90.69 374.23,-85.77"/>
<polygon fill="red" stroke="red" stroke-width="0.49" points="374.7,-82.3 364.46,-84.99 374.15,-89.27 374.7,-82.3"/>
</g>
<!-- &#45;10 -->
<g id="node10" class="node">
<title>&#45;10</title>
<polygon fill="lightgray" stroke="black" points="338,-154.85 310,-154.85 310,-136.35 338,-136.35 338,-154.85"/>
<text text-anchor="middle" x="324" y="-142.3" font-family="Times,serif" font-size="9.00">&#45;10</text>
</g>
<!-- &#45;10&#45;&gt;68 -->
<g id="edge20" class="edge">
<title>&#45;10&#45;&gt;68</title>
<path fill="none" stroke="green" stroke-width="0.34" d="M327.15,-135.87C329.66,-128.91 333.32,-118.79 336.74,-109.31"/>
<polygon fill="green" stroke="green" stroke-width="0.34" points="340.02,-110.54 340.12,-99.94 333.44,-108.16 340.02,-110.54"/>
</g>
<!-- &#45;11 -->
<g id="node11" class="node">
<title>&#45;11</title>
<polygon fill="lightgray" stroke="black" points="426,-154.85 398,-154.85 398,-136.35 426,-136.35 426,-154.85"/>
<text text-anchor="middle" x="412" y="-142.3" font-family="Times,serif" font-size="9.00">&#45;11</text>
</g>
<!-- &#45;11&#45;&gt;65 -->
<g id="edge12" class="edge">
<title>&#45;11&#45;&gt;65</title>
<path fill="none" stroke="red" stroke-width="0.22" d="M397.93,-139.42C394.99,-138.37 391.9,-137.3 389,-136.35 336.55,-119.11 274.57,-101.1 239.92,-91.24"/>
<polygon fill="red" stroke="red" stroke-width="0.22" points="240.98,-87.9 230.4,-88.54 239.07,-94.64 240.98,-87.9"/>
</g>
<!-- &#45;11&#45;&gt;66 -->
<g id="edge11" class="edge">
<title>&#45;11&#45;&gt;66</title>
<path fill="none" stroke="green" stroke-width="0.33" d="M426.06,-139.38C429,-138.33 432.09,-137.27 435,-136.35 491.73,-118.25 559.12,-100.19 595.83,-90.63"/>
<polygon fill="green" stroke="green" stroke-width="0.33" points="596.49,-94.08 605.29,-88.18 594.73,-87.3 596.49,-94.08"/>
</g>
<!-- &#45;12 -->
<g id="node12" class="node">
<title>&#45;12</title>
<polygon fill="lightgray" stroke="black" points="640,-154.85 612,-154.85 612,-136.35 640,-136.35 640,-154.85"/>
<text text-anchor="middle" x="626" y="-142.3" font-family="Times,serif" font-size="9.00">&#45;12</text>
</g>
<!-- &#45;12&#45;&gt;66 -->
<g id="edge3" class="edge">
<title>&#45;12&#45;&gt;66</title>
<path fill="none" stroke="green" stroke-width="0.55" d="M625.57,-135.87C625.25,-129.32 624.79,-119.97 624.35,-110.99"/>
<polygon fill="green" stroke="green" stroke-width="0.55" points="627.85,-111.09 623.87,-101.27 620.86,-111.43 627.85,-111.09"/>
</g>
<!-- &#45;13 -->
<g id="node13" class="node">
<title>&#45;13</title>
<polygon fill="lightgray" stroke="black" points="866,-154.85 838,-154.85 838,-136.35 866,-136.35 866,-154.85"/>
<text text-anchor="middle" x="852" y="-142.3" font-family="Times,serif" font-size="9.00">&#45;13</text>
</g>
<!-- &#45;14 -->
<g id="node14" class="node">
<title>&#45;14</title>
<polygon fill="lightgray" stroke="black" points="774,-154.85 746,-154.85 746,-136.35 774,-136.35 774,-154.85"/>
<text text-anchor="middle" x="760" y="-142.3" font-family="Times,serif" font-size="9.00">&#45;14</text>
</g>
<!-- &#45;14&#45;&gt;66 -->
<g id="edge34" class="edge">
<title>&#45;14&#45;&gt;66</title>
<path fill="none" stroke="red" stroke-width="0.52" d="M745.6,-138.19C722.59,-127.96 677.23,-107.79 648.61,-95.06"/>
<polygon fill="red" stroke="red" stroke-width="0.52" points="650.16,-91.92 639.6,-91.05 647.32,-98.31 650.16,-91.92"/>
</g>
<!-- &#45;14&#45;&gt;67 -->
<g id="edge39" class="edge">
<title>&#45;14&#45;&gt;67</title>
<path fill="none" stroke="red" stroke-width="0.14" d="M754.13,-135.87C748.94,-128.16 741.14,-116.57 734.21,-106.26"/>
<polygon fill="red" stroke="red" stroke-width="0.14" points="737.27,-104.55 728.78,-98.2 731.46,-108.45 737.27,-104.55"/>
</g>
<!-- &#45;15 -->
<g id="node15" class="node">
<title>&#45;15</title>
<polygon fill="lightgray" stroke="black" points="292,-154.85 264,-154.85 264,-136.35 292,-136.35 292,-154.85"/>
<text text-anchor="middle" x="278" y="-142.3" font-family="Times,serif" font-size="9.00">&#45;15</text>
</g>
<!-- &#45;15&#45;&gt;65 -->
<g id="edge4" class="edge">
<title>&#45;15&#45;&gt;65</title>
<path fill="none" stroke="green" stroke-width="0.51" d="M268.69,-135.87C259.45,-127.21 244.99,-113.65 233.12,-102.53"/>
<polygon fill="green" stroke="green" stroke-width="0.51" points="235.66,-100.11 225.97,-95.83 230.87,-105.22 235.66,-100.11"/>
</g>
<!-- &#45;15&#45;&gt;68 -->
<g id="edge25" class="edge">
<title>&#45;15&#45;&gt;68</title>
<path fill="none" stroke="green" stroke-width="0.14" d="M287.74,-135.87C297.6,-127.04 313.12,-113.13 325.67,-101.89"/>
<polygon fill="green" stroke="green" stroke-width="0.14" points="327.75,-104.72 332.86,-95.44 323.08,-99.51 327.75,-104.72"/>
</g>
<!-- &#45;16 -->
<g id="node16" class="node">
<title>&#45;16</title>
<polygon fill="lightgray" stroke="black" points="116,-154.85 88,-154.85 88,-136.35 116,-136.35 116,-154.85"/>
<text text-anchor="middle" x="102" y="-142.3" font-family="Times,serif" font-size="9.00">&#45;16</text>
</g>
<!-- &#45;16&#45;&gt;65 -->
<g id="edge18" class="edge">
<title>&#45;16&#45;&gt;65</title>
<path fill="none" stroke="green" stroke-width="0.25" d="M116.06,-136.88C134.33,-126.85 166.53,-109.17 188.78,-96.96"/>
<polygon fill="green" stroke="green" stroke-width="0.25" points="190.21,-100.17 197.3,-92.29 186.85,-94.03 190.21,-100.17"/>
</g>
<!-- &#45;16&#45;&gt;68 -->
<g id="edge19" class="edge">
<title>&#45;16&#45;&gt;68</title>
<path fill="none" stroke="green" stroke-width="0.11" d="M116.03,-139.29C118.97,-138.25 122.07,-137.22 125,-136.35 194.01,-115.81 276.96,-97.78 318.89,-89.12"/>
<polygon fill="green" stroke="green" stroke-width="0.11" points="319.38,-92.59 328.47,-87.16 317.97,-85.74 319.38,-92.59"/>
</g>
<!-- &#45;17 -->
<g id="node17" class="node">
<title>&#45;17</title>
<polygon fill="lightgray" stroke="black" points="686,-154.85 658,-154.85 658,-136.35 686,-136.35 686,-154.85"/>
<text text-anchor="middle" x="672" y="-142.3" font-family="Times,serif" font-size="9.00">&#45;17</text>
</g>
<!-- &#45;17&#45;&gt;66 -->
<g id="edge22" class="edge">
<title>&#45;17&#45;&gt;66</title>
<path fill="none" stroke="green" stroke-width="0.35" d="M664.98,-135.87C658.55,-127.87 648.76,-115.7 640.26,-105.13"/>
<polygon fill="green" stroke="green" stroke-width="0.35" points="643.13,-103.11 634.13,-97.51 637.67,-107.5 643.13,-103.11"/>
</g>
<!-- &#45;18 -->
<g id="node18" class="node">
<title>&#45;18</title>
<polygon fill="lightgray" stroke="black" points="820,-154.85 792,-154.85 792,-136.35 820,-136.35 820,-154.85"/>
<text text-anchor="middle" x="806" y="-142.3" font-family="Times,serif" font-size="9.00">&#45;18</text>
</g>
<!-- &#45;18&#45;&gt;67 -->
<g id="edge2" class="edge">
<title>&#45;18&#45;&gt;67</title>
<path fill="none" stroke="red" stroke-width="0.23" d="M793.54,-135.87C779.93,-126.34 757.88,-110.9 741.28,-99.27"/>
<polygon fill="red" stroke="red" stroke-width="0.23" points="743.66,-96.66 733.46,-93.79 739.64,-102.4 743.66,-96.66"/>
</g>
<!-- &#45;19 -->
<g id="node19" class="node">
<title>&#45;19</title>
<polygon fill="lightgray" stroke="black" points="28,-154.85 0,-154.85 0,-136.35 28,-136.35 28,-154.85"/>
<text text-anchor="middle" x="14" y="-142.3" font-family="Times,serif" font-size="9.00">&#45;19</text>
</g>
<!-- &#45;19&#45;&gt;65 -->
<g id="edge21" class="edge">
<title>&#45;19&#45;&gt;65</title>
<path fill="none" stroke="red" stroke-width="0.22" d="M28.07,-139.42C31.01,-138.37 34.1,-137.3 37,-136.35 89.45,-119.11 151.43,-101.1 186.08,-91.24"/>
<polygon fill="red" stroke="red" stroke-width="0.22" points="186.93,-94.64 195.59,-88.54 185.02,-87.9 186.93,-94.64"/>
</g>
<!-- &#45;20 -->
<g id="node20" class="node">
<title>&#45;20</title>
<polygon fill="lightgray" stroke="black" points="162,-154.85 134,-154.85 134,-136.35 162,-136.35 162,-154.85"/>
<text text-anchor="middle" x="148" y="-142.3" font-family="Times,serif" font-size="9.00">&#45;20</text>
</g>
<!-- &#45;20&#45;&gt;65 -->
<g id="edge33" class="edge">
<title>&#45;20&#45;&gt;65</title>
<path fill="none" stroke="green" stroke-width="0.17" d="M157.31,-135.87C166.64,-127.12 181.29,-113.39 193.22,-102.21"/>
<polygon fill="green" stroke="green" stroke-width="0.17" points="195.5,-104.87 200.41,-95.47 190.72,-99.76 195.5,-104.87"/>
</g>
<!-- &#45;20&#45;&gt;68 -->
<g id="edge17" class="edge">
<title>&#45;20&#45;&gt;68</title>
<path fill="none" stroke="red" stroke-width="0.34" d="M162.07,-139.42C165.01,-138.37 168.1,-137.3 171,-136.35 223.16,-119.15 284.79,-101.13 319.24,-91.26"/>
<polygon fill="red" stroke="red" stroke-width="0.34" points="319.86,-94.72 328.52,-88.61 317.94,-87.99 319.86,-94.72"/>
</g>
<!-- 0 -->
<g id="node21" class="node">
<title>0</title>
<ellipse fill="lightblue" stroke="black" cx="346" cy="-14.5" rx="14.5" ry="14.5"/>
<text text-anchor="middle" x="346" y="-11.2" font-family="Times,serif" font-size="9.00">0</text>
</g>
<!-- 0&#45;&gt;0 -->
<g id="edge42" class="edge">
<title>0&#45;&gt;0</title>
<path fill="none" stroke="green" stroke-width="0.2" d="M356.65,-24.65C367.06,-30.26 378.5,-26.88 378.5,-14.5 378.5,-5.98 373.09,-1.72 366.33,-1.71"/>
<polygon fill="green" stroke="green" stroke-width="0.2" points="365.68,1.74 356.95,-4.26 367.52,-5.02 365.68,1.74"/>
</g>
<!-- 1 -->
<g id="node22" class="node">
<title>1</title>
<ellipse fill="lightblue" stroke="black" cx="730" cy="-14.5" rx="14.5" ry="14.5"/>
<text text-anchor="middle" x="730" y="-11.2" font-family="Times,serif" font-size="9.00">1</text>
</g>
<!-- 2 -->
<g id="node23" class="node">
<title>2</title>
<ellipse fill="lightblue" stroke="black" cx="618" cy="-14.5" rx="14.5" ry="14.5"/>
<text text-anchor="middle" x="618" y="-11.2" font-family="Times,serif" font-size="9.00">2</text>
</g>
<!-- 3 -->
<g id="node24" class="node">
<title>3</title>
<ellipse fill="lightblue" stroke="black" cx="213" cy="-14.5" rx="14.5" ry="14.5"/>
<text text-anchor="middle" x="213" y="-11.2" font-family="Times,serif" font-size="9.00">3</text>
</g>
<!-- 4 -->
<g id="node25" class="node">
<title>4</title>
<ellipse fill="lightblue" stroke="black" cx="665" cy="-14.5" rx="14.5" ry="14.5"/>
<text text-anchor="middle" x="665" y="-11.2" font-family="Times,serif" font-size="9.00">4</text>
</g>
<!-- 4&#45;&gt;4 -->
<g id="edge5" class="edge">
<title>4&#45;&gt;4</title>
<path fill="none" stroke="green" stroke-width="0.16" d="M675.65,-24.65C686.06,-30.26 697.5,-26.88 697.5,-14.5 697.5,-5.98 692.09,-1.72 685.33,-1.71"/>
<polygon fill="green" stroke="green" stroke-width="0.16" points="684.62,1.72 675.88,-4.28 686.45,-5.04 684.62,1.72"/>
</g>
<!-- 65&#45;&gt;3 -->
<g id="edge10" class="edge">
<title>65&#45;&gt;3</title>
<path fill="none" stroke="green" stroke-width="0.66" d="M213,-64.63C213,-57.13 213,-48.19 213,-39.99"/>
<polygon fill="green" stroke="green" stroke-width="0.66" points="216.5,-40.14 213,-30.14 209.5,-40.14 216.5,-40.14"/>
</g>
<!-- 66&#45;&gt;2 -->
<g id="edge29" class="edge">
<title>66&#45;&gt;2</title>
<path fill="none" stroke="red" stroke-width="0.21" d="M621.71,-64.63C621.13,-56.87 620.42,-47.57 619.79,-39.15"/>
<polygon fill="red" stroke="red" stroke-width="0.21" points="623.3,-39.16 619.05,-29.46 616.32,-39.69 623.3,-39.16"/>
</g>
<!-- 66&#45;&gt;4 -->
<g id="edge8" class="edge">
<title>66&#45;&gt;4</title>
<path fill="none" stroke="red" stroke-width="0.24" d="M632.11,-67.31C637.95,-58.11 645.61,-46.04 652.08,-35.86"/>
<polygon fill="red" stroke="red" stroke-width="0.24" points="654.99,-37.81 657.39,-27.49 649.08,-34.05 654.99,-37.81"/>
</g>
<!-- 66&#45;&gt;66 -->
<g id="edge41" class="edge">
<title>66&#45;&gt;66</title>
<path fill="none" stroke="green" stroke-width="0.35" d="M637.66,-93.2C648.19,-96.63 658.68,-93.12 658.68,-82.67 658.68,-75.81 654.16,-71.95 648.08,-71.06"/>
<polygon fill="green" stroke="green" stroke-width="0.35" points="647.77,-67.58 638.18,-72.09 648.49,-74.54 647.77,-67.58"/>
</g>
<!-- 67&#45;&gt;1 -->
<g id="edge27" class="edge">
<title>67&#45;&gt;1</title>
<path fill="none" stroke="red" stroke-width="0.56" d="M721.78,-64.97C723.04,-57.39 724.55,-48.27 725.94,-39.94"/>
<polygon fill="red" stroke="red" stroke-width="0.56" points="729.38,-40.56 727.57,-30.12 722.48,-39.41 729.38,-40.56"/>
</g>
<!-- 67&#45;&gt;4 -->
<g id="edge31" class="edge">
<title>67&#45;&gt;4</title>
<path fill="none" stroke="green" stroke-width="0.1" d="M708.07,-68.28C700.02,-58.41 688.96,-44.86 680.07,-33.96"/>
<polygon fill="green" stroke="green" stroke-width="0.1" points="682.91,-31.9 673.87,-26.37 677.48,-36.33 682.91,-31.9"/>
</g>
<!-- 67&#45;&gt;67 -->
<g id="edge13" class="edge">
<title>67&#45;&gt;67</title>
<path fill="none" stroke="green" stroke-width="0.57" d="M733.66,-93.2C744.19,-96.63 754.68,-93.12 754.68,-82.67 754.68,-75.81 750.16,-71.95 744.08,-71.06"/>
<polygon fill="green" stroke="green" stroke-width="0.57" points="744.1,-67.54 734.51,-72.05 744.82,-74.51 744.1,-67.54"/>
</g>
<!-- 68&#45;&gt;0 -->
<g id="edge30" class="edge">
<title>68&#45;&gt;0</title>
<path fill="none" stroke="red" stroke-width="0.13" d="M346,-64.63C346,-56.87 346,-47.57 346,-39.15"/>
<polygon fill="red" stroke="red" stroke-width="0.13" points="349.5,-39.34 346,-29.34 342.5,-39.34 349.5,-39.34"/>
</g>
</g>
</svg>
