<?xml version="1.0" encoding="UTF-8" standalone="no"?>
<!DOCTYPE svg PUBLIC "-//W3C//DTD SVG 1.1//EN"
 "http://www.w3.org/Graphics/SVG/1.1/DTD/svg11.dtd">
<!-- Generated by graphviz version 12.1.1 (20240910.0053)
 -->
<!-- Pages: 1 -->
<svg width="874pt" height="163pt"
 viewBox="0.00 0.00 874.00 162.85" xmlns="http://www.w3.org/2000/svg" xmlns:xlink="http://www.w3.org/1999/xlink">
<g id="graph0" class="graph" transform="scale(1 1) rotate(0) translate(4 158.85)">
<polygon fill="white" stroke="none" points="-4,4 -4,-158.85 870,-158.85 870,4 -4,4"/>
<!-- &#45;1 -->
<g id="node1" class="node">
<title>&#45;1</title>
<polygon fill="lightgray" stroke="black" points="819.75,-154.85 796.25,-154.85 796.25,-136.35 819.75,-136.35 819.75,-154.85"/>
<text text-anchor="middle" x="808" y="-142.3" font-family="Times,serif" font-size="9.00">&#45;1</text>
</g>
<!-- 40 -->
<g id="node29" class="node">
<title>40</title>
<ellipse fill="white" stroke="black" cx="587" cy="-82.67" rx="17.68" ry="17.68"/>
<text text-anchor="middle" x="587" y="-79.37" font-family="Times,serif" font-size="9.00">40</text>
</g>
<!-- &#45;1&#45;&gt;40 -->
<g id="edge4" class="edge">
<title>&#45;1&#45;&gt;40</title>
<path fill="none" stroke="green" stroke-width="0.16" d="M796.09,-139.64C793.15,-138.49 789.98,-137.32 787,-136.35 725.91,-116.38 652.47,-98.58 613.81,-89.68"/>
<polygon fill="green" stroke="green" stroke-width="0.16" points="615.08,-86.38 604.55,-87.56 613.52,-93.2 615.08,-86.38"/>
</g>
<!-- &#45;2 -->
<g id="node2" class="node">
<title>&#45;2</title>
<polygon fill="lightgray" stroke="black" points="69.75,-154.85 46.25,-154.85 46.25,-136.35 69.75,-136.35 69.75,-154.85"/>
<text text-anchor="middle" x="58" y="-142.3" font-family="Times,serif" font-size="9.00">&#45;2</text>
</g>
<!-- 39 -->
<g id="node28" class="node">
<title>39</title>
<ellipse fill="white" stroke="black" cx="232" cy="-82.67" rx="17.68" ry="17.68"/>
<text text-anchor="middle" x="232" y="-79.37" font-family="Times,serif" font-size="9.00">39</text>
</g>
<!-- &#45;2&#45;&gt;39 -->
<g id="edge3" class="edge">
<title>&#45;2&#45;&gt;39</title>
<path fill="none" stroke="red" stroke-width="0.17" d="M69.96,-139.8C72.91,-138.64 76.06,-137.43 79,-136.35 123.29,-120.03 175.34,-102.44 205.9,-92.28"/>
<polygon fill="red" stroke="red" stroke-width="0.17" points="206.75,-95.68 215.14,-89.21 204.55,-89.04 206.75,-95.68"/>
</g>
<!-- &#45;3 -->
<g id="node3" class="node">
<title>&#45;3</title>
<polygon fill="lightgray" stroke="black" points="287.75,-154.85 264.25,-154.85 264.25,-136.35 287.75,-136.35 287.75,-154.85"/>
<text text-anchor="middle" x="276" y="-142.3" font-family="Times,serif" font-size="9.00">&#45;3</text>
</g>
<!-- 37 -->
<g id="node26" class="node">
<title>37</title>
<ellipse fill="white" stroke="black" cx="465" cy="-82.67" rx="17.68" ry="17.68"/>
<text text-anchor="middle" x="465" y="-79.37" font-family="Times,serif" font-size="9.00">37</text>
</g>
<!-- &#45;3&#45;&gt;37 -->
<g id="edge19" class="edge">
<title>&#45;3&#45;&gt;37</title>
<path fill="none" stroke="green" stroke-width="0.19" d="M287.9,-139.62C290.85,-138.47 294.02,-137.31 297,-136.35 358.98,-116.4 379.27,-126.26 439,-100.35 440.01,-99.91 441.02,-99.43 442.03,-98.93"/>
<polygon fill="green" stroke="green" stroke-width="0.19" points="443.69,-102.02 450.64,-94.02 440.22,-95.94 443.69,-102.02"/>
</g>
<!-- 38 -->
<g id="node27" class="node">
<title>38</title>
<ellipse fill="white" stroke="black" cx="412" cy="-82.67" rx="17.68" ry="17.68"/>
<text text-anchor="middle" x="412" y="-79.37" font-family="Times,serif" font-size="9.00">38</text>
</g>
<!-- &#45;3&#45;&gt;38 -->
<g id="edge7" class="edge">
<title>&#45;3&#45;&gt;38</title>
<path fill="none" stroke="red" stroke-width="0.42" d="M288.07,-139.19C310.05,-129.34 357.05,-108.29 386.44,-95.12"/>
<polygon fill="red" stroke="red" stroke-width="0.42" points="387.76,-98.37 395.45,-91.08 384.89,-91.98 387.76,-98.37"/>
</g>
<!-- &#45;3&#45;&gt;39 -->
<g id="edge2" class="edge">
<title>&#45;3&#45;&gt;39</title>
<path fill="none" stroke="red" stroke-width="0.2" d="M269.7,-135.87C264.05,-128.05 255.53,-116.26 248.02,-105.85"/>
<polygon fill="red" stroke="red" stroke-width="0.2" points="250.9,-103.86 242.21,-97.81 245.23,-107.96 250.9,-103.86"/>
</g>
<!-- &#45;4 -->
<g id="node4" class="node">
<title>&#45;4</title>
<polygon fill="lightgray" stroke="black" points="597.75,-154.85 574.25,-154.85 574.25,-136.35 597.75,-136.35 597.75,-154.85"/>
<text text-anchor="middle" x="586" y="-142.3" font-family="Times,serif" font-size="9.00">&#45;4</text>
</g>
<!-- &#45;4&#45;&gt;38 -->
<g id="edge10" class="edge">
<title>&#45;4&#45;&gt;38</title>
<path fill="none" stroke="green" stroke-width="0.2" d="M574.08,-139.68C571.13,-138.53 567.97,-137.35 565,-136.35 509.41,-117.6 491.49,-124.44 438,-100.35 437,-99.9 435.99,-99.41 434.98,-98.9"/>
<polygon fill="green" stroke="green" stroke-width="0.2" points="436.82,-95.92 426.41,-93.96 433.33,-101.98 436.82,-95.92"/>
</g>
<!-- &#45;4&#45;&gt;40 -->
<g id="edge18" class="edge">
<title>&#45;4&#45;&gt;40</title>
<path fill="none" stroke="red" stroke-width="0.2" d="M586.14,-135.87C586.25,-129.25 586.41,-119.76 586.56,-110.7"/>
<polygon fill="red" stroke="red" stroke-width="0.2" points="590.06,-110.8 586.72,-100.74 583.06,-110.68 590.06,-110.8"/>
</g>
<!-- &#45;5 -->
<g id="node5" class="node">
<title>&#45;5</title>
<polygon fill="lightgray" stroke="black" points="111.75,-154.85 88.25,-154.85 88.25,-136.35 111.75,-136.35 111.75,-154.85"/>
<text text-anchor="middle" x="100" y="-142.3" font-family="Times,serif" font-size="9.00">&#45;5</text>
</g>
<!-- &#45;5&#45;&gt;39 -->
<g id="edge15" class="edge">
<title>&#45;5&#45;&gt;39</title>
<path fill="none" stroke="green" stroke-width="0.59" d="M112.18,-138.97C133.55,-129.11 178.23,-108.49 206.58,-95.4"/>
<polygon fill="green" stroke="green" stroke-width="0.59" points="207.79,-98.7 215.4,-91.33 204.86,-92.34 207.79,-98.7"/>
</g>
<!-- &#45;6 -->
<g id="node6" class="node">
<title>&#45;6</title>
<polygon fill="lightgray" stroke="black" points="513.75,-154.85 490.25,-154.85 490.25,-136.35 513.75,-136.35 513.75,-154.85"/>
<text text-anchor="middle" x="502" y="-142.3" font-family="Times,serif" font-size="9.00">&#45;6</text>
</g>
<!-- &#45;6&#45;&gt;38 -->
<g id="edge26" class="edge">
<title>&#45;6&#45;&gt;38</title>
<path fill="none" stroke="red" stroke-width="0.18" d="M489.86,-136.38C475.68,-126.78 451.92,-110.69 434.36,-98.81"/>
<polygon fill="red" stroke="red" stroke-width="0.18" points="436.78,-96.22 426.54,-93.51 432.86,-102.02 436.78,-96.22"/>
</g>
<!-- &#45;7 -->
<g id="node7" class="node">
<title>&#45;7</title>
<polygon fill="lightgray" stroke="black" points="555.75,-154.85 532.25,-154.85 532.25,-136.35 555.75,-136.35 555.75,-154.85"/>
<text text-anchor="middle" x="544" y="-142.3" font-family="Times,serif" font-size="9.00">&#45;7</text>
</g>
<!-- &#45;7&#45;&gt;38 -->
<g id="edge5" class="edge">
<title>&#45;7&#45;&gt;38</title>
<path fill="none" stroke="green" stroke-width="0.16" d="M532.11,-139.94C508.25,-130.54 455.31,-109.42 438,-100.35 437.03,-99.84 436.04,-99.3 435.05,-98.75"/>
<polygon fill="green" stroke="green" stroke-width="0.16" points="436.88,-95.76 426.51,-93.6 433.27,-101.76 436.88,-95.76"/>
</g>
<!-- &#45;8 -->
<g id="node8" class="node">
<title>&#45;8</title>
<polygon fill="lightgray" stroke="black" points="639.75,-154.85 616.25,-154.85 616.25,-136.35 639.75,-136.35 639.75,-154.85"/>
<text text-anchor="middle" x="628" y="-142.3" font-family="Times,serif" font-size="9.00">&#45;8</text>
</g>
<!-- &#45;8&#45;&gt;37 -->
<g id="edge40" class="edge">
<title>&#45;8&#45;&gt;37</title>
<path fill="none" stroke="red" stroke-width="0.23" d="M616.02,-139.85C613.08,-138.69 609.93,-137.46 607,-136.35 566.75,-120.97 519.84,-103.7 491.29,-93.25"/>
<polygon fill="red" stroke="red" stroke-width="0.23" points="492.58,-90 481.99,-89.85 490.18,-96.57 492.58,-90"/>
</g>
<!-- &#45;9 -->
<g id="node9" class="node">
<title>&#45;9</title>
<polygon fill="lightgray" stroke="black" points="153.75,-154.85 130.25,-154.85 130.25,-136.35 153.75,-136.35 153.75,-154.85"/>
<text text-anchor="middle" x="142" y="-142.3" font-family="Times,serif" font-size="9.00">&#45;9</text>
</g>
<!-- &#45;9&#45;&gt;39 -->
<g id="edge25" class="edge">
<title>&#45;9&#45;&gt;39</title>
<path fill="none" stroke="green" stroke-width="0.35" d="M154.14,-136.38C168.19,-126.86 191.65,-110.98 209.16,-99.13"/>
<polygon fill="green" stroke="green" stroke-width="0.35" points="210.93,-102.16 217.25,-93.65 207.01,-96.36 210.93,-102.16"/>
</g>
<!-- &#45;10 -->
<g id="node10" class="node">
<title>&#45;10</title>
<polygon fill="lightgray" stroke="black" points="778,-154.85 750,-154.85 750,-136.35 778,-136.35 778,-154.85"/>
<text text-anchor="middle" x="764" y="-142.3" font-family="Times,serif" font-size="9.00">&#45;10</text>
</g>
<!-- &#45;10&#45;&gt;40 -->
<g id="edge32" class="edge">
<title>&#45;10&#45;&gt;40</title>
<path fill="none" stroke="red" stroke-width="0.12" d="M749.9,-139.5C746.96,-138.45 743.88,-137.36 741,-136.35 696.2,-120.65 643.87,-102.87 613.2,-92.5"/>
<polygon fill="red" stroke="red" stroke-width="0.12" points="614.44,-89.22 603.84,-89.34 612.2,-95.85 614.44,-89.22"/>
</g>
<!-- &#45;11 -->
<g id="node11" class="node">
<title>&#45;11</title>
<polygon fill="lightgray" stroke="black" points="866,-154.85 838,-154.85 838,-136.35 866,-136.35 866,-154.85"/>
<text text-anchor="middle" x="852" y="-142.3" font-family="Times,serif" font-size="9.00">&#45;11</text>
</g>
<!-- &#45;12 -->
<g id="node12" class="node">
<title>&#45;12</title>
<polygon fill="lightgray" stroke="black" points="426,-154.85 398,-154.85 398,-136.35 426,-136.35 426,-154.85"/>
<text text-anchor="middle" x="412" y="-142.3" font-family="Times,serif" font-size="9.00">&#45;12</text>
</g>
<!-- &#45;12&#45;&gt;38 -->
<g id="edge31" class="edge">
<title>&#45;12&#45;&gt;38</title>
<path fill="none" stroke="green" stroke-width="0.14" d="M412,-135.87C412,-129.17 412,-119.56 412,-110.4"/>
<polygon fill="green" stroke="green" stroke-width="0.14" points="415.5,-110.65 412,-100.65 408.5,-110.65 415.5,-110.65"/>
</g>
<!-- &#45;13 -->
<g id="node13" class="node">
<title>&#45;13</title>
<polygon fill="lightgray" stroke="black" points="380,-154.85 352,-154.85 352,-136.35 380,-136.35 380,-154.85"/>
<text text-anchor="middle" x="366" y="-142.3" font-family="Times,serif" font-size="9.00">&#45;13</text>
</g>
<!-- &#45;13&#45;&gt;37 -->
<g id="edge1" class="edge">
<title>&#45;13&#45;&gt;37</title>
<path fill="none" stroke="green" stroke-width="0.11" d="M380.33,-136.05C395.1,-127.22 418.75,-112.97 439,-100.35 440.05,-99.69 441.12,-99.02 442.2,-98.34"/>
<polygon fill="green" stroke="green" stroke-width="0.11" points="443.76,-101.5 450.32,-93.18 440.01,-95.59 443.76,-101.5"/>
</g>
<!-- &#45;13&#45;&gt;39 -->
<g id="edge39" class="edge">
<title>&#45;13&#45;&gt;39</title>
<path fill="none" stroke="green" stroke-width="0.25" d="M351.66,-138.08C329.07,-127.81 284.91,-107.73 257.02,-95.04"/>
<polygon fill="green" stroke="green" stroke-width="0.25" points="258.78,-92 248.23,-91.05 255.88,-98.37 258.78,-92"/>
</g>
<!-- &#45;14 -->
<g id="node14" class="node">
<title>&#45;14</title>
<polygon fill="lightgray" stroke="black" points="686,-154.85 658,-154.85 658,-136.35 686,-136.35 686,-154.85"/>
<text text-anchor="middle" x="672" y="-142.3" font-family="Times,serif" font-size="9.00">&#45;14</text>
</g>
<!-- &#45;14&#45;&gt;37 -->
<g id="edge29" class="edge">
<title>&#45;14&#45;&gt;37</title>
<path fill="none" stroke="green" stroke-width="0.17" d="M657.94,-139.39C655,-138.35 651.91,-137.28 649,-136.35 593.59,-118.5 527.84,-100.41 491.86,-90.76"/>
<polygon fill="green" stroke="green" stroke-width="0.17" points="492.92,-87.43 482.36,-88.23 491.12,-94.19 492.92,-87.43"/>
</g>
<!-- &#45;15 -->
<g id="node15" class="node">
<title>&#45;15</title>
<polygon fill="lightgray" stroke="black" points="472,-154.85 444,-154.85 444,-136.35 472,-136.35 472,-154.85"/>
<text text-anchor="middle" x="458" y="-142.3" font-family="Times,serif" font-size="9.00">&#45;15</text>
</g>
<!-- &#45;15&#45;&gt;38 -->
<g id="edge21" class="edge">
<title>&#45;15&#45;&gt;38</title>
<path fill="none" stroke="green" stroke-width="0.22" d="M451.41,-135.87C445.37,-127.87 436.19,-115.7 428.2,-105.13"/>
<polygon fill="green" stroke="green" stroke-width="0.22" points="431.16,-103.24 422.34,-97.37 425.58,-107.46 431.16,-103.24"/>
</g>
<!-- &#45;16 -->
<g id="node16" class="node">
<title>&#45;16</title>
<polygon fill="lightgray" stroke="black" points="246,-154.85 218,-154.85 218,-136.35 246,-136.35 246,-154.85"/>
<text text-anchor="middle" x="232" y="-142.3" font-family="Times,serif" font-size="9.00">&#45;16</text>
</g>
<!-- &#45;16&#45;&gt;38 -->
<g id="edge44" class="edge">
<title>&#45;16&#45;&gt;38</title>
<path fill="none" stroke="red" stroke-width="0.29" d="M246.09,-139.49C249.03,-138.44 252.11,-137.35 255,-136.35 300.88,-120.42 354.56,-102.58 385.78,-92.28"/>
<polygon fill="red" stroke="red" stroke-width="0.29" points="386.64,-95.69 395.04,-89.23 384.45,-89.04 386.64,-95.69"/>
</g>
<!-- &#45;16&#45;&gt;39 -->
<g id="edge35" class="edge">
<title>&#45;16&#45;&gt;39</title>
<path fill="none" stroke="red" stroke-width="0.12" d="M232,-135.87C232,-129.17 232,-119.56 232,-110.4"/>
<polygon fill="red" stroke="red" stroke-width="0.12" points="235.5,-110.61 232,-100.61 228.5,-110.61 235.5,-110.61"/>
</g>
<!-- &#45;17 -->
<g id="node17" class="node">
<title>&#45;17</title>
<polygon fill="lightgray" stroke="black" points="732,-154.85 704,-154.85 704,-136.35 732,-136.35 732,-154.85"/>
<text text-anchor="middle" x="718" y="-142.3" font-family="Times,serif" font-size="9.00">&#45;17</text>
</g>
<!-- &#45;17&#45;&gt;37 -->
<g id="edge36" class="edge">
<title>&#45;17&#45;&gt;37</title>
<path fill="none" stroke="red" stroke-width="0.14" d="M703.98,-139.27C701.03,-138.23 697.93,-137.2 695,-136.35 622.72,-115.19 535.64,-97.25 492.29,-88.82"/>
<polygon fill="red" stroke="red" stroke-width="0.14" points="493.19,-85.43 482.71,-86.98 491.86,-92.3 493.19,-85.43"/>
</g>
<!-- &#45;17&#45;&gt;40 -->
<g id="edge28" class="edge">
<title>&#45;17&#45;&gt;40</title>
<path fill="none" stroke="red" stroke-width="0.16" d="M703.73,-137.96C681.76,-127.74 639.35,-108.01 612.14,-95.36"/>
<polygon fill="red" stroke="red" stroke-width="0.16" points="613.64,-92.2 603.1,-91.16 610.69,-98.55 613.64,-92.2"/>
</g>
<!-- &#45;18 -->
<g id="node18" class="node">
<title>&#45;18</title>
<polygon fill="lightgray" stroke="black" points="28,-154.85 0,-154.85 0,-136.35 28,-136.35 28,-154.85"/>
<text text-anchor="middle" x="14" y="-142.3" font-family="Times,serif" font-size="9.00">&#45;18</text>
</g>
<!-- &#45;18&#45;&gt;39 -->
<g id="edge13" class="edge">
<title>&#45;18&#45;&gt;39</title>
<path fill="none" stroke="green" stroke-width="0.61" d="M28.05,-139.35C30.99,-138.31 34.09,-137.26 37,-136.35 96.08,-117.8 166.43,-99.78 204.39,-90.38"/>
<polygon fill="green" stroke="green" stroke-width="0.61" points="204.88,-93.87 213.75,-88.08 203.21,-87.07 204.88,-93.87"/>
</g>
<!-- &#45;19 -->
<g id="node19" class="node">
<title>&#45;19</title>
<polygon fill="lightgray" stroke="black" points="334,-154.85 306,-154.85 306,-136.35 334,-136.35 334,-154.85"/>
<text text-anchor="middle" x="320" y="-142.3" font-family="Times,serif" font-size="9.00">&#45;19</text>
</g>
<!-- &#45;19&#45;&gt;37 -->
<g id="edge33" class="edge">
<title>&#45;19&#45;&gt;37</title>
<path fill="none" stroke="red" stroke-width="0.54" d="M334.05,-139.56C363.39,-129.03 429.24,-105.22 439,-100.35 439.86,-99.92 440.73,-99.47 441.6,-99"/>
<polygon fill="red" stroke="red" stroke-width="0.54" points="443.22,-102.1 450.05,-94 439.66,-96.08 443.22,-102.1"/>
</g>
<!-- &#45;19&#45;&gt;38 -->
<g id="edge34" class="edge">
<title>&#45;19&#45;&gt;38</title>
<path fill="none" stroke="green" stroke-width="0.39" d="M333.18,-135.87C347.65,-126.28 371.16,-110.71 388.75,-99.07"/>
<polygon fill="green" stroke="green" stroke-width="0.39" points="390.43,-102.15 396.83,-93.71 386.56,-96.32 390.43,-102.15"/>
</g>
<!-- &#45;19&#45;&gt;39 -->
<g id="edge16" class="edge">
<title>&#45;19&#45;&gt;39</title>
<path fill="none" stroke="green" stroke-width="0.17" d="M307.39,-135.87C293.63,-126.34 271.33,-110.9 254.54,-99.27"/>
<polygon fill="green" stroke="green" stroke-width="0.17" points="256.76,-96.56 246.55,-93.74 252.78,-102.31 256.76,-96.56"/>
</g>
<!-- &#45;20 -->
<g id="node20" class="node">
<title>&#45;20</title>
<polygon fill="lightgray" stroke="black" points="200,-154.85 172,-154.85 172,-136.35 200,-136.35 200,-154.85"/>
<text text-anchor="middle" x="186" y="-142.3" font-family="Times,serif" font-size="9.00">&#45;20</text>
</g>
<!-- &#45;20&#45;&gt;38 -->
<g id="edge8" class="edge">
<title>&#45;20&#45;&gt;38</title>
<path fill="none" stroke="red" stroke-width="0.13" d="M200.04,-139.33C202.99,-138.29 206.08,-137.25 209,-136.35 271.31,-117.13 345.78,-99.02 384.91,-89.87"/>
<polygon fill="red" stroke="red" stroke-width="0.13" points="385.6,-93.31 394.55,-87.63 384.02,-86.49 385.6,-93.31"/>
</g>
<!-- &#45;20&#45;&gt;39 -->
<g id="edge38" class="edge">
<title>&#45;20&#45;&gt;39</title>
<path fill="none" stroke="red" stroke-width="0.29" d="M192.59,-135.87C198.63,-127.87 207.81,-115.7 215.8,-105.13"/>
<polygon fill="red" stroke="red" stroke-width="0.29" points="218.36,-107.54 221.59,-97.45 212.78,-103.32 218.36,-107.54"/>
</g>
<!-- 0 -->
<g id="node21" class="node">
<title>0</title>
<ellipse fill="lightblue" stroke="black" cx="411" cy="-14.5" rx="14.5" ry="14.5"/>
<text text-anchor="middle" x="411" y="-11.2" font-family="Times,serif" font-size="9.00">0</text>
</g>
<!-- 1 -->
<g id="node22" class="node">
<title>1</title>
<ellipse fill="lightblue" stroke="black" cx="523" cy="-14.5" rx="14.5" ry="14.5"/>
<text text-anchor="middle" x="523" y="-11.2" font-family="Times,serif" font-size="9.00">1</text>
</g>
<!-- 1&#45;&gt;1 -->
<g id="edge23" class="edge">
<title>1&#45;&gt;1</title>
<path fill="none" stroke="green" stroke-width="0.25" d="M533.65,-24.65C544.06,-30.26 555.5,-26.88 555.5,-14.5 555.5,-5.98 550.09,-1.72 543.33,-1.71"/>
<polygon fill="green" stroke="green" stroke-width="0.25" points="542.76,1.76 534.02,-4.24 544.59,-5 542.76,1.76"/>
</g>
<!-- 2 -->
<g id="node23" class="node">
<title>2</title>
<ellipse fill="lightblue" stroke="black" cx="588" cy="-14.5" rx="14.5" ry="14.5"/>
<text text-anchor="middle" x="588" y="-11.2" font-family="Times,serif" font-size="9.00">2</text>
</g>
<!-- 2&#45;&gt;2 -->
<g id="edge37" class="edge">
<title>2&#45;&gt;2</title>
<path fill="none" stroke="green" stroke-width="0.15" d="M598.65,-24.65C609.06,-30.26 620.5,-26.88 620.5,-14.5 620.5,-5.98 615.09,-1.72 608.33,-1.71"/>
<polygon fill="green" stroke="green" stroke-width="0.15" points="607.6,1.72 598.87,-4.28 609.44,-5.04 607.6,1.72"/>
</g>
<!-- 3 -->
<g id="node24" class="node">
<title>3</title>
<ellipse fill="lightblue" stroke="black" cx="299" cy="-14.5" rx="14.5" ry="14.5"/>
<text text-anchor="middle" x="299" y="-11.2" font-family="Times,serif" font-size="9.00">3</text>
</g>
<!-- 4 -->
<g id="node25" class="node">
<title>4</title>
<ellipse fill="lightblue" stroke="black" cx="458" cy="-14.5" rx="14.5" ry="14.5"/>
<text text-anchor="middle" x="458" y="-11.2" font-family="Times,serif" font-size="9.00">4</text>
</g>
<!-- 4&#45;&gt;4 -->
<g id="edge11" class="edge">
<title>4&#45;&gt;4</title>
<path fill="none" stroke="green" stroke-width="0.12" d="M468.65,-24.65C479.06,-30.26 490.5,-26.88 490.5,-14.5 490.5,-5.98 485.09,-1.72 478.33,-1.71"/>
<polygon fill="green" stroke="green" stroke-width="0.12" points="477.56,1.7 468.82,-4.29 479.39,-5.05 477.56,1.7"/>
</g>
<!-- 37&#45;&gt;0 -->
<g id="edge12" class="edge">
<title>37&#45;&gt;0</title>
<path fill="none" stroke="red" stroke-width="0.42" d="M454.07,-68.28C446.1,-58.5 435.18,-45.12 426.33,-34.28"/>
<polygon fill="red" stroke="red" stroke-width="0.42" points="429.21,-32.28 420.18,-26.74 423.79,-36.71 429.21,-32.28"/>
</g>
<!-- 37&#45;&gt;2 -->
<g id="edge27" class="edge">
<title>37&#45;&gt;2</title>
<path fill="none" stroke="red" stroke-width="0.11" d="M480.49,-73.57C500.03,-63.32 534.62,-45.06 564,-28.99 564.96,-28.46 565.95,-27.92 566.94,-27.37"/>
<polygon fill="red" stroke="red" stroke-width="0.11" points="568.65,-30.43 575.67,-22.5 565.23,-24.32 568.65,-30.43"/>
</g>
<!-- 37&#45;&gt;4 -->
<g id="edge17" class="edge">
<title>37&#45;&gt;4</title>
<path fill="none" stroke="green" stroke-width="0.21" d="M463.2,-64.63C462.38,-56.87 461.39,-47.57 460.5,-39.15"/>
<polygon fill="green" stroke="green" stroke-width="0.21" points="464.01,-39.04 459.48,-29.46 457.05,-39.77 464.01,-39.04"/>
</g>
<!-- 37&#45;&gt;37 -->
<g id="edge30" class="edge">
<title>37&#45;&gt;37</title>
<path fill="none" stroke="red" stroke-width="0.17" d="M479.66,-93.2C490.19,-96.63 500.68,-93.12 500.68,-82.67 500.68,-75.65 495.94,-71.76 489.64,-71.01"/>
<polygon fill="red" stroke="red" stroke-width="0.17" points="489.45,-67.51 479.91,-72.11 490.24,-74.46 489.45,-67.51"/>
</g>
<!-- 38&#45;&gt;0 -->
<g id="edge24" class="edge">
<title>38&#45;&gt;0</title>
<path fill="none" stroke="red" stroke-width="0.15" d="M411.74,-64.63C411.63,-56.87 411.48,-47.57 411.36,-39.15"/>
<polygon fill="red" stroke="red" stroke-width="0.15" points="414.86,-39.32 411.21,-29.38 407.86,-39.43 414.86,-39.32"/>
</g>
<!-- 38&#45;&gt;1 -->
<g id="edge14" class="edge">
<title>38&#45;&gt;1</title>
<path fill="none" stroke="red" stroke-width="0.27" d="M426.51,-72.21C430.23,-69.82 434.25,-67.29 438,-64.99 459.51,-51.84 484.49,-37.39 501.77,-27.52"/>
<polygon fill="red" stroke="red" stroke-width="0.27" points="503.2,-30.74 510.15,-22.75 499.73,-24.65 503.2,-30.74"/>
</g>
<!-- 38&#45;&gt;4 -->
<g id="edge41" class="edge">
<title>38&#45;&gt;4</title>
<path fill="none" stroke="red" stroke-width="0.41" d="M421.76,-67.64C428.28,-58.25 436.97,-45.75 444.2,-35.35"/>
<polygon fill="red" stroke="red" stroke-width="0.41" points="446.9,-37.59 449.73,-27.39 441.15,-33.6 446.9,-37.59"/>
</g>
<!-- 39&#45;&gt;0 -->
<g id="edge22" class="edge">
<title>39&#45;&gt;0</title>
<path fill="none" stroke="red" stroke-width="0.38" d="M248.52,-75.56C280.5,-63.74 350.95,-37.69 387.69,-24.11"/>
<polygon fill="red" stroke="red" stroke-width="0.38" points="388.8,-27.44 396.96,-20.68 386.37,-20.87 388.8,-27.44"/>
</g>
<!-- 39&#45;&gt;3 -->
<g id="edge20" class="edge">
<title>39&#45;&gt;3</title>
<path fill="none" stroke="green" stroke-width="0.47" d="M244.29,-69.53C254.73,-59.22 269.83,-44.31 281.52,-32.76"/>
<polygon fill="green" stroke="green" stroke-width="0.47" points="283.82,-35.41 288.47,-25.89 278.9,-30.43 283.82,-35.41"/>
</g>
<!-- 40&#45;&gt;0 -->
<g id="edge42" class="edge">
<title>40&#45;&gt;0</title>
<path fill="none" stroke="red" stroke-width="0.13" d="M570.2,-76.92C541.78,-68.65 482.62,-50.43 435,-28.99 434,-28.54 432.98,-28.06 431.96,-27.56"/>
<polygon fill="red" stroke="red" stroke-width="0.13" points="433.64,-24.49 423.16,-22.88 430.35,-30.67 433.64,-24.49"/>
</g>
<!-- 40&#45;&gt;1 -->
<g id="edge43" class="edge">
<title>40&#45;&gt;1</title>
<path fill="none" stroke="green" stroke-width="0.2" d="M574.96,-69.22C565.08,-59 550.96,-44.41 539.93,-33.01"/>
<polygon fill="green" stroke="green" stroke-width="0.2" points="542.57,-30.69 533.1,-25.94 537.53,-35.56 542.57,-30.69"/>
</g>
<!-- 40&#45;&gt;2 -->
<g id="edge9" class="edge">
<title>40&#45;&gt;2</title>
<path fill="none" stroke="red" stroke-width="0.15" d="M587.26,-64.63C587.37,-56.87 587.52,-47.57 587.64,-39.15"/>
<polygon fill="red" stroke="red" stroke-width="0.15" points="591.14,-39.43 587.79,-29.38 584.14,-39.32 591.14,-39.43"/>
</g>
<!-- 40&#45;&gt;3 -->
<g id="edge6" class="edge">
<title>40&#45;&gt;3</title>
<path fill="none" stroke="green" stroke-width="0.17" d="M569.85,-77.73C520.81,-66.46 379.94,-34.09 323.16,-21.05"/>
<polygon fill="green" stroke="green" stroke-width="0.17" points="324.05,-17.66 313.52,-18.83 322.49,-24.48 324.05,-17.66"/>
</g>
</g>
</svg>
