<?xml version="1.0" encoding="UTF-8" standalone="no"?>
<!DOCTYPE svg PUBLIC "-//W3C//DTD SVG 1.1//EN"
 "http://www.w3.org/Graphics/SVG/1.1/DTD/svg11.dtd">
<!-- Generated by graphviz version 12.1.1 (20240910.0053)
 -->
<!-- Pages: 1 -->
<svg width="755pt" height="325pt"
 viewBox="0.00 0.00 754.82 324.65" xmlns="http://www.w3.org/2000/svg" xmlns:xlink="http://www.w3.org/1999/xlink">
<g id="graph0" class="graph" transform="scale(1 1) rotate(0) translate(4 320.65)">
<polygon fill="white" stroke="none" points="-4,4 -4,-320.65 750.82,-320.65 750.82,4 -4,4"/>
<!-- &#45;1 -->
<g id="node1" class="node">
<title>&#45;1</title>
<polygon fill="lightgray" stroke="black" points="176.82,-316.65 153.32,-316.65 153.32,-298.15 176.82,-298.15 176.82,-316.65"/>
<text text-anchor="middle" x="165.07" y="-304.1" font-family="Times,serif" font-size="9.00">&#45;1</text>
</g>
<!-- 203 -->
<g id="node28" class="node">
<title>203</title>
<ellipse fill="white" stroke="black" cx="191.07" cy="-241.29" rx="20.86" ry="20.86"/>
<text text-anchor="middle" x="191.07" y="-237.99" font-family="Times,serif" font-size="9.00">203</text>
</g>
<!-- &#45;1&#45;&gt;203 -->
<g id="edge32" class="edge">
<title>&#45;1&#45;&gt;203</title>
<path fill="none" stroke="green" stroke-width="0.14" d="M168.57,-297.75C171.45,-290.66 175.69,-280.19 179.72,-270.26"/>
<polygon fill="green" stroke="green" stroke-width="0.14" points="182.87,-271.8 183.39,-261.22 176.39,-269.17 182.87,-271.8"/>
</g>
<!-- &#45;2 -->
<g id="node2" class="node">
<title>&#45;2</title>
<polygon fill="lightgray" stroke="black" points="524.82,-316.65 501.32,-316.65 501.32,-298.15 524.82,-298.15 524.82,-316.65"/>
<text text-anchor="middle" x="513.07" y="-304.1" font-family="Times,serif" font-size="9.00">&#45;2</text>
</g>
<!-- 201 -->
<g id="node26" class="node">
<title>201</title>
<ellipse fill="white" stroke="black" cx="471.07" cy="-241.29" rx="20.86" ry="20.86"/>
<text text-anchor="middle" x="471.07" y="-237.99" font-family="Times,serif" font-size="9.00">201</text>
</g>
<!-- &#45;2&#45;&gt;201 -->
<g id="edge36" class="edge">
<title>&#45;2&#45;&gt;201</title>
<path fill="none" stroke="red" stroke-width="0.52" stroke-dasharray="1,5" d="M507.4,-297.75C502.41,-290.14 494.89,-278.65 487.98,-268.1"/>
<polygon fill="red" stroke="red" stroke-width="0.52" points="490.99,-266.31 482.58,-259.86 485.13,-270.14 490.99,-266.31"/>
</g>
<!-- 202 -->
<g id="node27" class="node">
<title>202</title>
<ellipse fill="white" stroke="black" cx="603.07" cy="-241.29" rx="20.86" ry="20.86"/>
<text text-anchor="middle" x="603.07" y="-237.99" font-family="Times,serif" font-size="9.00">202</text>
</g>
<!-- &#45;2&#45;&gt;202 -->
<g id="edge6" class="edge">
<title>&#45;2&#45;&gt;202</title>
<path fill="none" stroke="red" stroke-width="0.21" d="M525.2,-297.75C538.73,-288.12 560.96,-272.28 578.21,-259.99"/>
<polygon fill="red" stroke="red" stroke-width="0.21" points="579.85,-263.13 585.96,-254.48 575.78,-257.43 579.85,-263.13"/>
</g>
<!-- &#45;3 -->
<g id="node3" class="node">
<title>&#45;3</title>
<polygon fill="lightgray" stroke="black" points="440.82,-316.65 417.32,-316.65 417.32,-298.15 440.82,-298.15 440.82,-316.65"/>
<text text-anchor="middle" x="429.07" y="-304.1" font-family="Times,serif" font-size="9.00">&#45;3</text>
</g>
<!-- &#45;3&#45;&gt;201 -->
<g id="edge17" class="edge">
<title>&#45;3&#45;&gt;201</title>
<path fill="none" stroke="red" stroke-width="0.39" d="M434.73,-297.75C439.77,-290.06 447.4,-278.42 454.36,-267.79"/>
<polygon fill="red" stroke="red" stroke-width="0.39" points="457.12,-269.97 459.67,-259.69 451.26,-266.13 457.12,-269.97"/>
</g>
<!-- &#45;4 -->
<g id="node4" class="node">
<title>&#45;4</title>
<polygon fill="lightgray" stroke="black" points="658.82,-316.65 635.32,-316.65 635.32,-298.15 658.82,-298.15 658.82,-316.65"/>
<text text-anchor="middle" x="647.07" y="-304.1" font-family="Times,serif" font-size="9.00">&#45;4</text>
</g>
<!-- &#45;4&#45;&gt;202 -->
<g id="edge37" class="edge">
<title>&#45;4&#45;&gt;202</title>
<path fill="none" stroke="green" stroke-width="0.48" stroke-dasharray="1,5" d="M641.13,-297.75C635.85,-290.06 627.86,-278.42 620.56,-267.79"/>
<polygon fill="green" stroke="green" stroke-width="0.48" points="623.62,-266.05 615.08,-259.79 617.85,-270.02 623.62,-266.05"/>
</g>
<!-- &#45;5 -->
<g id="node5" class="node">
<title>&#45;5</title>
<polygon fill="lightgray" stroke="black" points="306.82,-316.65 283.32,-316.65 283.32,-298.15 306.82,-298.15 306.82,-316.65"/>
<text text-anchor="middle" x="295.07" y="-304.1" font-family="Times,serif" font-size="9.00">&#45;5</text>
</g>
<!-- 2 -->
<g id="node23" class="node">
<title>2</title>
<ellipse fill="lightblue" stroke="black" cx="344.07" cy="-163.57" rx="14.5" ry="14.5"/>
<text text-anchor="middle" x="344.07" y="-160.27" font-family="Times,serif" font-size="9.00">2</text>
</g>
<!-- &#45;5&#45;&gt;2 -->
<g id="edge44" class="edge">
<title>&#45;5&#45;&gt;2</title>
<path fill="none" stroke="red" stroke-width="0.2" d="M307.05,-300.62C325.31,-291.53 358.68,-273.73 365.07,-262.15 378.42,-237.91 366.94,-205.94 356.41,-185.31"/>
<polygon fill="red" stroke="red" stroke-width="0.2" points="359.58,-183.82 351.73,-176.71 353.44,-187.17 359.58,-183.82"/>
</g>
<!-- &#45;5&#45;&gt;201 -->
<g id="edge40" class="edge">
<title>&#45;5&#45;&gt;201</title>
<path fill="none" stroke="red" stroke-width="0.25" d="M307,-301.51C309.94,-300.36 313.1,-299.17 316.07,-298.15 368.69,-279.95 384.86,-284.03 436.07,-262.15 438.93,-260.93 441.86,-259.53 444.74,-258.05"/>
<polygon fill="red" stroke="red" stroke-width="0.25" points="446.21,-261.23 453.32,-253.37 442.86,-255.09 446.21,-261.23"/>
</g>
<!-- &#45;5&#45;&gt;203 -->
<g id="edge19" class="edge">
<title>&#45;5&#45;&gt;203</title>
<path fill="none" stroke="green" stroke-width="0.36" stroke-dasharray="1,5" d="M283.14,-299.05C267.24,-289.25 238.67,-271.64 217.56,-258.62"/>
<polygon fill="green" stroke="green" stroke-width="0.36" points="219.56,-255.74 209.21,-253.47 215.88,-261.7 219.56,-255.74"/>
</g>
<!-- &#45;6 -->
<g id="node6" class="node">
<title>&#45;6</title>
<polygon fill="lightgray" stroke="black" points="482.82,-316.65 459.32,-316.65 459.32,-298.15 482.82,-298.15 482.82,-316.65"/>
<text text-anchor="middle" x="471.07" y="-304.1" font-family="Times,serif" font-size="9.00">&#45;6</text>
</g>
<!-- &#45;6&#45;&gt;201 -->
<g id="edge39" class="edge">
<title>&#45;6&#45;&gt;201</title>
<path fill="none" stroke="red" stroke-width="0.28" stroke-dasharray="1,5" d="M471.07,-297.75C471.07,-291.32 471.07,-282.11 471.07,-273.05"/>
<polygon fill="red" stroke="red" stroke-width="0.28" points="474.57,-273.07 471.07,-263.07 467.57,-273.07 474.57,-273.07"/>
</g>
<!-- &#45;6&#45;&gt;202 -->
<g id="edge25" class="edge">
<title>&#45;6&#45;&gt;202</title>
<path fill="none" stroke="green" stroke-width="0.27" d="M483.25,-300.48C504.12,-290.35 547.21,-269.42 575.62,-255.62"/>
<polygon fill="green" stroke="green" stroke-width="0.27" points="576.81,-258.93 584.28,-251.41 573.75,-252.64 576.81,-258.93"/>
</g>
<!-- &#45;6&#45;&gt;203 -->
<g id="edge2" class="edge">
<title>&#45;6&#45;&gt;203</title>
<path fill="none" stroke="red" stroke-width="0.28" stroke-dasharray="1,5" d="M459.21,-301.29C456.26,-300.15 453.08,-299.02 450.07,-298.15 367.05,-274.25 343.07,-282.28 259.07,-262.15 246.39,-259.11 232.56,-255.19 220.7,-251.63"/>
<polygon fill="red" stroke="red" stroke-width="0.28" points="221.85,-248.32 211.27,-248.75 219.81,-255.02 221.85,-248.32"/>
</g>
<!-- &#45;7 -->
<g id="node7" class="node">
<title>&#45;7</title>
<polygon fill="lightgray" stroke="black" points="746.82,-316.65 723.32,-316.65 723.32,-298.15 746.82,-298.15 746.82,-316.65"/>
<text text-anchor="middle" x="735.07" y="-304.1" font-family="Times,serif" font-size="9.00">&#45;7</text>
</g>
<!-- &#45;8 -->
<g id="node8" class="node">
<title>&#45;8</title>
<polygon fill="lightgray" stroke="black" points="218.82,-316.65 195.32,-316.65 195.32,-298.15 218.82,-298.15 218.82,-316.65"/>
<text text-anchor="middle" x="207.07" y="-304.1" font-family="Times,serif" font-size="9.00">&#45;8</text>
</g>
<!-- &#45;8&#45;&gt;203 -->
<g id="edge21" class="edge">
<title>&#45;8&#45;&gt;203</title>
<path fill="none" stroke="red" stroke-width="0.19" d="M204.91,-297.75C203.21,-290.95 200.74,-281.07 198.36,-271.52"/>
<polygon fill="red" stroke="red" stroke-width="0.19" points="201.83,-270.97 196.01,-262.11 195.04,-272.66 201.83,-270.97"/>
</g>
<!-- &#45;9 -->
<g id="node9" class="node">
<title>&#45;9</title>
<polygon fill="lightgray" stroke="black" points="88.82,-316.65 65.32,-316.65 65.32,-298.15 88.82,-298.15 88.82,-316.65"/>
<text text-anchor="middle" x="77.07" y="-304.1" font-family="Times,serif" font-size="9.00">&#45;9</text>
</g>
<!-- &#45;9&#45;&gt;203 -->
<g id="edge33" class="edge">
<title>&#45;9&#45;&gt;203</title>
<path fill="none" stroke="green" stroke-width="0.22" d="M89.27,-299.54C107.01,-289.56 140.42,-270.77 164.11,-257.45"/>
<polygon fill="green" stroke="green" stroke-width="0.22" points="165.68,-260.58 172.68,-252.63 162.25,-254.48 165.68,-260.58"/>
</g>
<!-- 204 -->
<g id="node29" class="node">
<title>204</title>
<ellipse fill="white" stroke="black" cx="245.07" cy="-85.85" rx="20.86" ry="20.86"/>
<text text-anchor="middle" x="245.07" y="-82.55" font-family="Times,serif" font-size="9.00">204</text>
</g>
<!-- &#45;9&#45;&gt;204 -->
<g id="edge29" class="edge">
<title>&#45;9&#45;&gt;204</title>
<path fill="none" stroke="green" stroke-width="0.68" stroke-dasharray="1,5" d="M76.87,-297.76C76.72,-271.29 79.76,-190.2 120.07,-142.71 144.1,-114.39 185.36,-99.83 213.87,-92.79"/>
<polygon fill="green" stroke="green" stroke-width="0.68" points="214.5,-96.23 223.47,-90.59 212.94,-89.41 214.5,-96.23"/>
</g>
<!-- &#45;10 -->
<g id="node10" class="node">
<title>&#45;10</title>
<polygon fill="lightgray" stroke="black" points="571.07,-316.65 543.07,-316.65 543.07,-298.15 571.07,-298.15 571.07,-316.65"/>
<text text-anchor="middle" x="557.07" y="-304.1" font-family="Times,serif" font-size="9.00">&#45;10</text>
</g>
<!-- &#45;10&#45;&gt;201 -->
<g id="edge42" class="edge">
<title>&#45;10&#45;&gt;201</title>
<path fill="none" stroke="green" stroke-width="0.18" d="M545.47,-297.75C532.74,-288.27 511.94,-272.76 495.57,-260.55"/>
<polygon fill="green" stroke="green" stroke-width="0.18" points="497.8,-257.85 487.69,-254.68 493.61,-263.46 497.8,-257.85"/>
</g>
<!-- &#45;10&#45;&gt;202 -->
<g id="edge30" class="edge">
<title>&#45;10&#45;&gt;202</title>
<path fill="none" stroke="red" stroke-width="0.15" stroke-dasharray="1,5" d="M563.27,-297.75C568.94,-289.85 577.6,-277.79 585.39,-266.92"/>
<polygon fill="red" stroke="red" stroke-width="0.15" points="588.01,-269.28 590.99,-259.12 582.32,-265.2 588.01,-269.28"/>
</g>
<!-- &#45;10&#45;&gt;204 -->
<g id="edge9" class="edge">
<title>&#45;10&#45;&gt;204</title>
<path fill="none" stroke="green" stroke-width="0.35" d="M558.96,-297.85C564.39,-270.94 577.01,-187.1 535.07,-142.71 500.04,-105.64 344.34,-92.45 276.66,-88.42"/>
<polygon fill="green" stroke="green" stroke-width="0.35" points="276.92,-84.92 266.74,-87.85 276.53,-91.91 276.92,-84.92"/>
</g>
<!-- &#45;11 -->
<g id="node11" class="node">
<title>&#45;11</title>
<polygon fill="lightgray" stroke="black" points="617.07,-316.65 589.07,-316.65 589.07,-298.15 617.07,-298.15 617.07,-316.65"/>
<text text-anchor="middle" x="603.07" y="-304.1" font-family="Times,serif" font-size="9.00">&#45;11</text>
</g>
<!-- &#45;11&#45;&gt;202 -->
<g id="edge24" class="edge">
<title>&#45;11&#45;&gt;202</title>
<path fill="none" stroke="red" stroke-width="0.34" stroke-dasharray="1,5" d="M603.07,-297.75C603.07,-291.32 603.07,-282.11 603.07,-273.05"/>
<polygon fill="red" stroke="red" stroke-width="0.34" points="606.57,-273.16 603.07,-263.16 599.57,-273.16 606.57,-273.16"/>
</g>
<!-- &#45;12 -->
<g id="node12" class="node">
<title>&#45;12</title>
<polygon fill="lightgray" stroke="black" points="399.07,-316.65 371.07,-316.65 371.07,-298.15 399.07,-298.15 399.07,-316.65"/>
<text text-anchor="middle" x="385.07" y="-304.1" font-family="Times,serif" font-size="9.00">&#45;12</text>
</g>
<!-- &#45;12&#45;&gt;201 -->
<g id="edge8" class="edge">
<title>&#45;12&#45;&gt;201</title>
<path fill="none" stroke="green" stroke-width="0.18" stroke-dasharray="1,5" d="M396.66,-297.75C409.39,-288.27 430.19,-272.76 446.57,-260.55"/>
<polygon fill="green" stroke="green" stroke-width="0.18" points="448.51,-263.47 454.44,-254.68 444.33,-257.85 448.51,-263.47"/>
</g>
<!-- &#45;12&#45;&gt;202 -->
<g id="edge18" class="edge">
<title>&#45;12&#45;&gt;202</title>
<path fill="none" stroke="green" stroke-width="0.24" stroke-dasharray="1,5" d="M399.13,-301.19C402.07,-300.15 405.16,-299.09 408.07,-298.15 466.07,-279.46 534.75,-260.52 573.18,-250.2"/>
<polygon fill="green" stroke="green" stroke-width="0.24" points="573.62,-253.7 582.38,-247.74 571.81,-246.94 573.62,-253.7"/>
</g>
<!-- &#45;12&#45;&gt;203 -->
<g id="edge13" class="edge">
<title>&#45;12&#45;&gt;203</title>
<path fill="none" stroke="red" stroke-width="0.38" stroke-dasharray="1,5" d="M371.02,-301.15C368.08,-300.11 364.98,-299.06 362.07,-298.15 302.36,-279.58 283.96,-285.77 226.07,-262.15 223.28,-261.01 220.43,-259.69 217.63,-258.29"/>
<polygon fill="red" stroke="red" stroke-width="0.38" points="219.39,-255.26 208.93,-253.58 216.06,-261.41 219.39,-255.26"/>
</g>
<!-- &#45;12&#45;&gt;204 -->
<g id="edge14" class="edge">
<title>&#45;12&#45;&gt;204</title>
<path fill="none" stroke="red" stroke-width="0.26" stroke-dasharray="1,5" d="M370.96,-301.32C368.02,-300.27 364.95,-299.17 362.07,-298.15 316.35,-281.96 288.69,-300.54 259.07,-262.15 226.68,-220.17 231.79,-154.47 238.43,-116.55"/>
<polygon fill="red" stroke="red" stroke-width="0.26" points="241.81,-117.5 240.24,-107.03 234.93,-116.2 241.81,-117.5"/>
</g>
<!-- 299 -->
<g id="node30" class="node">
<title>299</title>
<ellipse fill="white" stroke="black" cx="289.07" cy="-241.29" rx="20.86" ry="20.86"/>
<text text-anchor="middle" x="289.07" y="-237.99" font-family="Times,serif" font-size="9.00">299</text>
</g>
<!-- &#45;12&#45;&gt;299 -->
<g id="edge45" class="edge">
<title>&#45;12&#45;&gt;299</title>
<path fill="none" stroke="green" stroke-width="0.55" stroke-dasharray="1,5" d="M372.12,-297.75C357.58,-288.05 333.62,-272.04 315.16,-259.71"/>
<polygon fill="green" stroke="green" stroke-width="0.55" points="317.3,-256.94 307.04,-254.29 313.41,-262.76 317.3,-256.94"/>
</g>
<!-- &#45;13 -->
<g id="node13" class="node">
<title>&#45;13</title>
<polygon fill="lightgray" stroke="black" points="265.07,-316.65 237.07,-316.65 237.07,-298.15 265.07,-298.15 265.07,-316.65"/>
<text text-anchor="middle" x="251.07" y="-304.1" font-family="Times,serif" font-size="9.00">&#45;13</text>
</g>
<!-- &#45;13&#45;&gt;203 -->
<g id="edge20" class="edge">
<title>&#45;13&#45;&gt;203</title>
<path fill="none" stroke="green" stroke-width="0.26" d="M242.97,-297.75C235.07,-289.31 222.72,-276.11 212.04,-264.7"/>
<polygon fill="green" stroke="green" stroke-width="0.26" points="214.65,-262.36 205.26,-257.45 209.54,-267.15 214.65,-262.36"/>
</g>
<!-- &#45;13&#45;&gt;204 -->
<g id="edge10" class="edge">
<title>&#45;13&#45;&gt;204</title>
<path fill="none" stroke="green" stroke-width="0.11" stroke-dasharray="1,5" d="M265.28,-301.12C295.5,-289.85 363.55,-264.31 365.07,-262.15 395.62,-218.73 395.75,-187.39 367.07,-142.71 347.03,-111.5 304.72,-97.5 275.6,-91.38"/>
<polygon fill="green" stroke="green" stroke-width="0.11" points="276.54,-88 266.06,-89.56 275.23,-94.88 276.54,-88"/>
</g>
<!-- &#45;14 -->
<g id="node14" class="node">
<title>&#45;14</title>
<polygon fill="lightgray" stroke="black" points="57.07,-172.82 29.07,-172.82 29.07,-154.32 57.07,-154.32 57.07,-172.82"/>
<text text-anchor="middle" x="43.07" y="-160.27" font-family="Times,serif" font-size="9.00">&#45;14</text>
</g>
<!-- &#45;14&#45;&gt;204 -->
<g id="edge7" class="edge">
<title>&#45;14&#45;&gt;204</title>
<path fill="none" stroke="green" stroke-width="0.21" d="M53.75,-153.82C58.77,-150.02 64.99,-145.75 71.07,-142.71 118.84,-118.81 179.05,-102.19 214.66,-93.6"/>
<polygon fill="green" stroke="green" stroke-width="0.21" points="215.21,-97.07 224.15,-91.37 213.61,-90.26 215.21,-97.07"/>
</g>
<!-- &#45;15 -->
<g id="node15" class="node">
<title>&#45;15</title>
<polygon fill="lightgray" stroke="black" points="356.07,-250.54 328.07,-250.54 328.07,-232.04 356.07,-232.04 356.07,-250.54"/>
<text text-anchor="middle" x="342.07" y="-237.99" font-family="Times,serif" font-size="9.00">&#45;15</text>
</g>
<!-- &#45;15&#45;&gt;2 -->
<g id="edge47" class="edge">
<title>&#45;15&#45;&gt;2</title>
<path fill="none" stroke="red" stroke-width="0.37" d="M342.3,-231.6C342.57,-221.26 343.04,-203.56 343.42,-188.94"/>
<polygon fill="red" stroke="red" stroke-width="0.37" points="346.92,-189.18 343.68,-179.1 339.92,-189 346.92,-189.18"/>
</g>
<!-- &#45;16 -->
<g id="node16" class="node">
<title>&#45;16</title>
<polygon fill="lightgray" stroke="black" points="353.07,-316.65 325.07,-316.65 325.07,-298.15 353.07,-298.15 353.07,-316.65"/>
<text text-anchor="middle" x="339.07" y="-304.1" font-family="Times,serif" font-size="9.00">&#45;16</text>
</g>
<!-- &#45;16&#45;&gt;201 -->
<g id="edge22" class="edge">
<title>&#45;16&#45;&gt;201</title>
<path fill="none" stroke="green" stroke-width="0.12" d="M353.39,-300.34C372.48,-292.15 407.22,-276.88 436.07,-262.15 438.84,-260.73 441.71,-259.21 444.55,-257.66"/>
<polygon fill="green" stroke="green" stroke-width="0.12" points="446.24,-260.72 453.26,-252.79 442.82,-254.61 446.24,-260.72"/>
</g>
<!-- &#45;16&#45;&gt;203 -->
<g id="edge16" class="edge">
<title>&#45;16&#45;&gt;203</title>
<path fill="none" stroke="red" stroke-width="0.25" stroke-dasharray="1,5" d="M324.83,-301.12C298.76,-291.39 244.33,-270.85 226.07,-262.15 223.26,-260.81 220.36,-259.34 217.5,-257.81"/>
<polygon fill="red" stroke="red" stroke-width="0.25" points="219.39,-254.85 208.94,-253.08 216,-260.98 219.39,-254.85"/>
</g>
<!-- &#45;17 -->
<g id="node17" class="node">
<title>&#45;17</title>
<polygon fill="lightgray" stroke="black" points="705.07,-316.65 677.07,-316.65 677.07,-298.15 705.07,-298.15 705.07,-316.65"/>
<text text-anchor="middle" x="691.07" y="-304.1" font-family="Times,serif" font-size="9.00">&#45;17</text>
</g>
<!-- &#45;17&#45;&gt;202 -->
<g id="edge12" class="edge">
<title>&#45;17&#45;&gt;202</title>
<path fill="none" stroke="red" stroke-width="0.22" stroke-dasharray="1,5" d="M679.2,-297.75C666.09,-288.21 644.63,-272.57 627.83,-260.33"/>
<polygon fill="red" stroke="red" stroke-width="0.22" points="629.95,-257.54 619.81,-254.48 625.83,-263.2 629.95,-257.54"/>
</g>
<!-- &#45;17&#45;&gt;204 -->
<g id="edge23" class="edge">
<title>&#45;17&#45;&gt;204</title>
<path fill="none" stroke="green" stroke-width="0.23" stroke-dasharray="1,5" d="M693.2,-297.76C699.33,-270.58 714,-186.02 671.07,-142.71 643.29,-114.68 370.33,-94.82 276.53,-88.78"/>
<polygon fill="green" stroke="green" stroke-width="0.23" points="276.81,-85.29 266.6,-88.15 276.36,-92.27 276.81,-85.29"/>
</g>
<!-- 341 -->
<g id="node31" class="node">
<title>341</title>
<ellipse fill="white" stroke="black" cx="641.07" cy="-163.57" rx="20.86" ry="20.86"/>
<text text-anchor="middle" x="641.07" y="-160.27" font-family="Times,serif" font-size="9.00">341</text>
</g>
<!-- &#45;17&#45;&gt;341 -->
<g id="edge50" class="edge">
<title>&#45;17&#45;&gt;341</title>
<path fill="none" stroke="green" stroke-width="0.31" d="M688.09,-297.95C680.98,-277.79 662.76,-226.11 651.2,-193.32"/>
<polygon fill="green" stroke="green" stroke-width="0.31" points="654.63,-192.51 648,-184.25 648.03,-194.84 654.63,-192.51"/>
</g>
<!-- &#45;18 -->
<g id="node18" class="node">
<title>&#45;18</title>
<polygon fill="lightgray" stroke="black" points="135.07,-316.65 107.07,-316.65 107.07,-298.15 135.07,-298.15 135.07,-316.65"/>
<text text-anchor="middle" x="121.07" y="-304.1" font-family="Times,serif" font-size="9.00">&#45;18</text>
</g>
<!-- &#45;18&#45;&gt;201 -->
<g id="edge11" class="edge">
<title>&#45;18&#45;&gt;201</title>
<path fill="none" stroke="red" stroke-width="0.21" d="M135.54,-300.75C138.34,-299.79 141.27,-298.87 144.07,-298.15 240.42,-273.25 267.04,-279.31 365.07,-262.15 390.47,-257.7 419.22,-252.29 440.36,-248.24"/>
<polygon fill="red" stroke="red" stroke-width="0.21" points="440.91,-251.7 450.07,-246.38 439.58,-244.83 440.91,-251.7"/>
</g>
<!-- &#45;18&#45;&gt;204 -->
<g id="edge1" class="edge">
<title>&#45;18&#45;&gt;204</title>
<path fill="none" stroke="red" stroke-width="0.32" d="M119.67,-298C115.86,-272.19 107.73,-192.82 142.07,-142.71 159.09,-117.86 190.89,-103.07 214.67,-95.01"/>
<polygon fill="red" stroke="red" stroke-width="0.32" points="215.68,-98.36 224.16,-92.02 213.57,-91.69 215.68,-98.36"/>
</g>
<!-- &#45;19 -->
<g id="node19" class="node">
<title>&#45;19</title>
<polygon fill="lightgray" stroke="black" points="34.07,-316.65 6.07,-316.65 6.07,-298.15 34.07,-298.15 34.07,-316.65"/>
<text text-anchor="middle" x="20.07" y="-304.1" font-family="Times,serif" font-size="9.00">&#45;19</text>
</g>
<!-- &#45;19&#45;&gt;203 -->
<g id="edge15" class="edge">
<title>&#45;19&#45;&gt;203</title>
<path fill="none" stroke="green" stroke-width="0.15" d="M34.35,-301.04C62.43,-290.52 125.27,-266.96 162.28,-253.08"/>
<polygon fill="green" stroke="green" stroke-width="0.15" points="163.2,-256.48 171.33,-249.69 160.74,-249.92 163.2,-256.48"/>
</g>
<!-- &#45;19&#45;&gt;204 -->
<g id="edge34" class="edge">
<title>&#45;19&#45;&gt;204</title>
<path fill="none" stroke="green" stroke-width="0.23" stroke-dasharray="1,5" d="M16.78,-297.76C7.31,-271.28 -17.05,-190.17 20.07,-142.71 43.83,-112.33 158.11,-96.13 214.07,-89.91"/>
<polygon fill="green" stroke="green" stroke-width="0.23" points="214.2,-93.41 223.77,-88.86 213.46,-86.45 214.2,-93.41"/>
</g>
<!-- &#45;20 -->
<g id="node20" class="node">
<title>&#45;20</title>
<polygon fill="lightgray" stroke="black" points="179.07,-172.82 151.07,-172.82 151.07,-154.32 179.07,-154.32 179.07,-172.82"/>
<text text-anchor="middle" x="165.07" y="-160.27" font-family="Times,serif" font-size="9.00">&#45;20</text>
</g>
<!-- &#45;20&#45;&gt;204 -->
<g id="edge41" class="edge">
<title>&#45;20&#45;&gt;204</title>
<path fill="none" stroke="red" stroke-width="0.38" d="M174.24,-153.88C186.02,-142.73 206.85,-123.02 222.89,-107.85"/>
<polygon fill="red" stroke="red" stroke-width="0.38" points="225.03,-110.63 229.89,-101.21 220.22,-105.55 225.03,-110.63"/>
</g>
<!-- 0 -->
<g id="node21" class="node">
<title>0</title>
<ellipse fill="lightblue" stroke="black" cx="245.07" cy="-14.5" rx="14.5" ry="14.5"/>
<text text-anchor="middle" x="245.07" y="-11.2" font-family="Times,serif" font-size="9.00">0</text>
</g>
<!-- 1 -->
<g id="node22" class="node">
<title>1</title>
<ellipse fill="lightblue" stroke="black" cx="428.07" cy="-163.57" rx="14.5" ry="14.5"/>
<text text-anchor="middle" x="428.07" y="-160.27" font-family="Times,serif" font-size="9.00">1</text>
</g>
<!-- 1&#45;&gt;204 -->
<g id="edge43" class="edge">
<title>1&#45;&gt;204</title>
<path fill="none" stroke="red" stroke-width="0.57" d="M417.07,-153.72C412.08,-149.99 405.98,-145.8 400.07,-142.71 358.84,-121.17 307.44,-104.46 275.44,-95.13"/>
<polygon fill="red" stroke="red" stroke-width="0.57" points="276.77,-91.87 266.19,-92.49 274.84,-98.6 276.77,-91.87"/>
</g>
<!-- 3 -->
<g id="node24" class="node">
<title>3</title>
<ellipse fill="lightblue" stroke="black" cx="531.07" cy="-85.85" rx="14.5" ry="14.5"/>
<text text-anchor="middle" x="531.07" y="-82.55" font-family="Times,serif" font-size="9.00">3</text>
</g>
<!-- 4 -->
<g id="node25" class="node">
<title>4</title>
<ellipse fill="lightblue" stroke="black" cx="512.07" cy="-163.57" rx="14.5" ry="14.5"/>
<text text-anchor="middle" x="512.07" y="-160.27" font-family="Times,serif" font-size="9.00">4</text>
</g>
<!-- 201&#45;&gt;1 -->
<g id="edge31" class="edge">
<title>201&#45;&gt;1</title>
<path fill="none" stroke="green" stroke-width="0.28" stroke-dasharray="1,5" d="M461.09,-222.73C454.81,-211.67 446.67,-197.33 440.04,-185.66"/>
<polygon fill="green" stroke="green" stroke-width="0.28" points="443.09,-183.95 435.11,-176.98 437.01,-187.4 443.09,-183.95"/>
</g>
<!-- 201&#45;&gt;2 -->
<g id="edge28" class="edge">
<title>201&#45;&gt;2</title>
<path fill="none" stroke="green" stroke-width="0.44" stroke-dasharray="1,5" d="M453.41,-229.76C430.3,-215.99 389.86,-191.87 365.17,-177.15"/>
<polygon fill="green" stroke="green" stroke-width="0.44" points="367.19,-174.28 356.81,-172.17 363.61,-180.3 367.19,-174.28"/>
</g>
<!-- 201&#45;&gt;3 -->
<g id="edge5" class="edge">
<title>201&#45;&gt;3</title>
<path fill="none" stroke="red" stroke-width="0.22" stroke-dasharray="1,5" d="M472.09,-220.06C473.73,-199.76 477.99,-167.95 489.07,-142.71 495.22,-128.68 505.52,-114.91 514.38,-104.54"/>
<polygon fill="red" stroke="red" stroke-width="0.22" points="516.82,-107.07 520.85,-97.27 511.59,-102.41 516.82,-107.07"/>
</g>
<!-- 201&#45;&gt;4 -->
<g id="edge4" class="edge">
<title>201&#45;&gt;4</title>
<path fill="none" stroke="green" stroke-width="0.28" d="M480.78,-222.35C486.7,-211.41 494.3,-197.38 500.53,-185.88"/>
<polygon fill="green" stroke="green" stroke-width="0.28" points="503.48,-187.78 505.16,-177.32 497.32,-184.45 503.48,-187.78"/>
</g>
<!-- 201&#45;&gt;341 -->
<g id="edge48" class="edge">
<title>201&#45;&gt;341</title>
<path fill="none" stroke="green" stroke-width="0.3" d="M489.91,-231.9C519.78,-218.59 578.17,-192.58 612.99,-177.08"/>
<polygon fill="green" stroke="green" stroke-width="0.3" points="614.01,-180.45 621.72,-173.19 611.16,-174.06 614.01,-180.45"/>
</g>
<!-- 202&#45;&gt;2 -->
<g id="edge38" class="edge">
<title>202&#45;&gt;2</title>
<path fill="none" stroke="green" stroke-width="0.25" stroke-dasharray="1,5" d="M582.75,-234.84C546.8,-225.15 469.66,-204.05 405.07,-184.43 392.5,-180.61 378.57,-176.1 367.2,-172.34"/>
<polygon fill="green" stroke="green" stroke-width="0.25" points="368.54,-169.1 357.95,-169.26 366.33,-175.74 368.54,-169.1"/>
</g>
<!-- 202&#45;&gt;3 -->
<g id="edge27" class="edge">
<title>202&#45;&gt;3</title>
<path fill="none" stroke="green" stroke-width="0.43" d="M597.66,-221.02C591.68,-200.93 581.13,-168.77 568.07,-142.71 561.7,-130 552.98,-116.7 545.6,-106.26"/>
<polygon fill="green" stroke="green" stroke-width="0.43" points="548.64,-104.5 539.94,-98.45 542.97,-108.6 548.64,-104.5"/>
</g>
<!-- 203&#45;&gt;2 -->
<g id="edge3" class="edge">
<title>203&#45;&gt;2</title>
<path fill="none" stroke="green" stroke-width="0.76" stroke-dasharray="1,5" d="M209.52,-231.16C237.68,-217.22 291.28,-190.7 321.63,-175.67"/>
<polygon fill="green" stroke="green" stroke-width="0.76" points="322.88,-178.96 330.29,-171.39 319.77,-172.69 322.88,-178.96"/>
</g>
<!-- 203&#45;&gt;3 -->
<g id="edge35" class="edge">
<title>203&#45;&gt;3</title>
<path fill="none" stroke="red" stroke-width="0.4" stroke-dasharray="1,5" d="M205.79,-226.17C228.65,-205 274.86,-165.14 321.07,-142.71 383.89,-112.22 465.65,-96.62 506.12,-90.31"/>
<polygon fill="red" stroke="red" stroke-width="0.4" points="506.41,-93.81 515.79,-88.87 505.38,-86.89 506.41,-93.81"/>
</g>
<!-- 204&#45;&gt;0 -->
<g id="edge26" class="edge">
<title>204&#45;&gt;0</title>
<path fill="none" stroke="green" stroke-width="0.28" stroke-dasharray="1,5" d="M245.07,-64.79C245.07,-56.98 245.07,-47.96 245.07,-39.78"/>
<polygon fill="green" stroke="green" stroke-width="0.28" points="248.57,-39.78 245.07,-29.78 241.57,-39.78 248.57,-39.78"/>
</g>
<!-- 299&#45;&gt;204 -->
<g id="edge46" class="edge">
<title>299&#45;&gt;204</title>
<path fill="none" stroke="red" stroke-width="0.51" d="M283.49,-220.86C275.92,-194.45 262.32,-147.02 253.5,-116.25"/>
<polygon fill="red" stroke="red" stroke-width="0.51" points="256.93,-115.52 250.81,-106.87 250.2,-117.45 256.93,-115.52"/>
</g>
<!-- 341&#45;&gt;3 -->
<g id="edge49" class="edge">
<title>341&#45;&gt;3</title>
<path fill="none" stroke="red" stroke-width="0.23" d="M624.36,-151.07C604.78,-137.59 572.34,-115.26 551.34,-100.81"/>
<polygon fill="red" stroke="red" stroke-width="0.23" points="553.36,-97.95 543.13,-95.16 549.39,-103.71 553.36,-97.95"/>
</g>
</g>
</svg>
