<?xml version="1.0" encoding="UTF-8" standalone="no"?>
<!DOCTYPE svg PUBLIC "-//W3C//DTD SVG 1.1//EN"
 "http://www.w3.org/Graphics/SVG/1.1/DTD/svg11.dtd">
<!-- Generated by graphviz version 12.1.1 (20240910.0053)
 -->
<!-- Pages: 1 -->
<svg width="955pt" height="478pt"
 viewBox="0.00 0.00 955.07 477.85" xmlns="http://www.w3.org/2000/svg" xmlns:xlink="http://www.w3.org/1999/xlink">
<g id="graph0" class="graph" transform="scale(1 1) rotate(0) translate(4 473.85)">
<polygon fill="white" stroke="none" points="-4,4 -4,-473.85 951.07,-473.85 951.07,4 -4,4"/>
<!-- &#45;1 -->
<g id="node1" class="node">
<title>&#45;1</title>
<polygon fill="lightgray" stroke="black" points="670.33,-464.61 646.83,-464.61 646.83,-446.11 670.33,-446.11 670.33,-464.61"/>
<text text-anchor="middle" x="658.58" y="-452.06" font-family="Times,serif" font-size="9.00">&#45;1</text>
</g>
<!-- &#45;2 -->
<g id="node2" class="node">
<title>&#45;2</title>
<polygon fill="lightgray" stroke="black" points="508.33,-315.53 484.83,-315.53 484.83,-297.03 508.33,-297.03 508.33,-315.53"/>
<text text-anchor="middle" x="496.58" y="-302.98" font-family="Times,serif" font-size="9.00">&#45;2</text>
</g>
<!-- 170 -->
<g id="node27" class="node">
<title>170</title>
<ellipse fill="white" stroke="black" cx="497.58" cy="-228.56" rx="20.86" ry="20.86"/>
<text text-anchor="middle" x="497.58" y="-225.26" font-family="Times,serif" font-size="9.00">170</text>
</g>
<!-- &#45;2&#45;&gt;170 -->
<g id="edge30" class="edge">
<title>&#45;2&#45;&gt;170</title>
<path fill="none" stroke="green" stroke-width="0.37" d="M496.69,-296.6C496.81,-287.64 497,-273.17 497.17,-259.97"/>
<polygon fill="green" stroke="green" stroke-width="0.37" points="500.67,-260.38 497.3,-250.33 493.67,-260.28 500.67,-260.38"/>
</g>
<!-- 171 -->
<g id="node28" class="node">
<title>171</title>
<ellipse fill="white" stroke="black" cx="329.58" cy="-228.56" rx="20.86" ry="20.86"/>
<text text-anchor="middle" x="329.58" y="-225.26" font-family="Times,serif" font-size="9.00">171</text>
</g>
<!-- &#45;2&#45;&gt;171 -->
<g id="edge13" class="edge">
<title>&#45;2&#45;&gt;171</title>
<path fill="none" stroke="green" stroke-width="0.25" stroke-dasharray="1,5" d="M489.02,-296.74C485.28,-292.89 480.5,-288.52 475.58,-285.42 438.43,-262.05 389.95,-245.92 359.28,-237.2"/>
<polygon fill="green" stroke="green" stroke-width="0.25" points="360.54,-233.92 349.97,-234.63 358.68,-240.67 360.54,-233.92"/>
</g>
<!-- &#45;3 -->
<g id="node3" class="node">
<title>&#45;3</title>
<polygon fill="lightgray" stroke="black" points="268.33,-393.25 244.83,-393.25 244.83,-374.75 268.33,-374.75 268.33,-393.25"/>
<text text-anchor="middle" x="256.58" y="-380.7" font-family="Times,serif" font-size="9.00">&#45;3</text>
</g>
<!-- 169 -->
<g id="node26" class="node">
<title>169</title>
<ellipse fill="white" stroke="black" cx="703.58" cy="-306.28" rx="20.86" ry="20.86"/>
<text text-anchor="middle" x="703.58" y="-302.98" font-family="Times,serif" font-size="9.00">169</text>
</g>
<!-- &#45;3&#45;&gt;169 -->
<g id="edge14" class="edge">
<title>&#45;3&#45;&gt;169</title>
<path fill="none" stroke="green" stroke-width="0.46" d="M263.42,-374.26C267.14,-370.16 272.1,-365.64 277.58,-363.14 423.01,-296.64 478.61,-357.69 635.58,-327.14 648.24,-324.68 661.94,-320.9 673.7,-317.3"/>
<polygon fill="green" stroke="green" stroke-width="0.46" points="674.74,-320.64 683.22,-314.29 672.63,-313.97 674.74,-320.64"/>
</g>
<!-- &#45;3&#45;&gt;170 -->
<g id="edge3" class="edge">
<title>&#45;3&#45;&gt;170</title>
<path fill="none" stroke="red" stroke-width="0.35" stroke-dasharray="1,5" d="M263.46,-374.33C267.19,-370.25 272.14,-365.73 277.58,-363.14 332.83,-336.84 510.23,-373.15 550.58,-327.14 571.38,-303.41 543.91,-270.13 521.39,-249.22"/>
<polygon fill="red" stroke="red" stroke-width="0.35" points="523.91,-246.77 514.12,-242.72 519.25,-251.99 523.91,-246.77"/>
</g>
<!-- &#45;3&#45;&gt;171 -->
<g id="edge5" class="edge">
<title>&#45;3&#45;&gt;171</title>
<path fill="none" stroke="green" stroke-width="0.36" d="M259.75,-374.49C266.22,-357.35 281.7,-317.54 297.58,-285.42 302.43,-275.61 308.25,-265.12 313.59,-255.92"/>
<polygon fill="green" stroke="green" stroke-width="0.36" points="316.58,-257.74 318.65,-247.35 310.55,-254.18 316.58,-257.74"/>
</g>
<!-- 172 -->
<g id="node29" class="node">
<title>172</title>
<ellipse fill="white" stroke="black" cx="147.58" cy="-85.85" rx="20.86" ry="20.86"/>
<text text-anchor="middle" x="147.58" y="-82.55" font-family="Times,serif" font-size="9.00">172</text>
</g>
<!-- &#45;3&#45;&gt;172 -->
<g id="edge31" class="edge">
<title>&#45;3&#45;&gt;172</title>
<path fill="none" stroke="red" stroke-width="0.46" stroke-dasharray="1,5" d="M249.6,-374.53C245.84,-370.5 240.9,-365.96 235.58,-363.14 170.03,-328.39 119.04,-384.98 72.58,-327.14 21.24,-263.23 35.8,-215.96 72.58,-142.71 82.26,-123.43 102.1,-109.11 118.95,-99.8"/>
<polygon fill="red" stroke="red" stroke-width="0.46" points="120.53,-102.92 127.8,-95.22 117.31,-96.71 120.53,-102.92"/>
</g>
<!-- &#45;4 -->
<g id="node4" class="node">
<title>&#45;4</title>
<polygon fill="lightgray" stroke="black" points="138.33,-315.53 114.83,-315.53 114.83,-297.03 138.33,-297.03 138.33,-315.53"/>
<text text-anchor="middle" x="126.58" y="-302.98" font-family="Times,serif" font-size="9.00">&#45;4</text>
</g>
<!-- &#45;4&#45;&gt;171 -->
<g id="edge21" class="edge">
<title>&#45;4&#45;&gt;171</title>
<path fill="none" stroke="red" stroke-width="0.38" d="M134.04,-296.59C137.76,-292.7 142.55,-288.35 147.58,-285.42 196.18,-257.1 260.6,-241.74 298.33,-234.63"/>
<polygon fill="red" stroke="red" stroke-width="0.38" points="298.89,-238.09 308.11,-232.87 297.65,-231.2 298.89,-238.09"/>
</g>
<!-- &#45;4&#45;&gt;172 -->
<g id="edge27" class="edge">
<title>&#45;4&#45;&gt;172</title>
<path fill="none" stroke="red" stroke-width="0.3" d="M127.4,-296.72C130.25,-267.1 139.77,-168.07 144.64,-117.35"/>
<polygon fill="red" stroke="red" stroke-width="0.3" points="148.12,-117.75 145.6,-107.46 141.15,-117.08 148.12,-117.75"/>
</g>
<!-- &#45;5 -->
<g id="node5" class="node">
<title>&#45;5</title>
<polygon fill="lightgray" stroke="black" points="385.33,-166.46 361.83,-166.46 361.83,-147.96 385.33,-147.96 385.33,-166.46"/>
<text text-anchor="middle" x="373.58" y="-153.91" font-family="Times,serif" font-size="9.00">&#45;5</text>
</g>
<!-- &#45;5&#45;&gt;172 -->
<g id="edge4" class="edge">
<title>&#45;5&#45;&gt;172</title>
<path fill="none" stroke="green" stroke-width="0.39" d="M361.49,-147.56C358.66,-145.78 355.59,-144.05 352.58,-142.71 293.64,-116.49 219.56,-100.03 178.53,-92.22"/>
<polygon fill="green" stroke="green" stroke-width="0.39" points="179.4,-88.83 168.93,-90.45 178.13,-95.71 179.4,-88.83"/>
</g>
<!-- &#45;6 -->
<g id="node6" class="node">
<title>&#45;6</title>
<polygon fill="lightgray" stroke="black" points="424.33,-315.53 400.83,-315.53 400.83,-297.03 424.33,-297.03 424.33,-315.53"/>
<text text-anchor="middle" x="412.58" y="-302.98" font-family="Times,serif" font-size="9.00">&#45;6</text>
</g>
<!-- &#45;6&#45;&gt;170 -->
<g id="edge23" class="edge">
<title>&#45;6&#45;&gt;170</title>
<path fill="none" stroke="green" stroke-width="0.51" d="M421.5,-296.7C425.2,-293.17 429.57,-289.07 433.58,-285.42 446.79,-273.41 461.82,-260.27 473.99,-249.75"/>
<polygon fill="green" stroke="green" stroke-width="0.51" points="476.03,-252.62 481.32,-243.44 471.46,-247.31 476.03,-252.62"/>
</g>
<!-- &#45;6&#45;&gt;171 -->
<g id="edge36" class="edge">
<title>&#45;6&#45;&gt;171</title>
<path fill="none" stroke="green" stroke-width="0.18" d="M403.06,-296.6C390.65,-285.28 368.57,-265.13 351.84,-249.87"/>
<polygon fill="green" stroke="green" stroke-width="0.18" points="354.54,-247.59 344.79,-243.44 349.82,-252.77 354.54,-247.59"/>
</g>
<!-- &#45;7 -->
<g id="node7" class="node">
<title>&#45;7</title>
<polygon fill="lightgray" stroke="black" points="604.33,-393.25 580.83,-393.25 580.83,-374.75 604.33,-374.75 604.33,-393.25"/>
<text text-anchor="middle" x="592.58" y="-380.7" font-family="Times,serif" font-size="9.00">&#45;7</text>
</g>
<!-- &#45;7&#45;&gt;169 -->
<g id="edge29" class="edge">
<title>&#45;7&#45;&gt;169</title>
<path fill="none" stroke="green" stroke-width="0.13" stroke-dasharray="1,5" d="M600.81,-374.47C604.55,-370.8 609.12,-366.57 613.58,-363.14 624.72,-354.56 654.66,-336.3 676.97,-322.98"/>
<polygon fill="green" stroke="green" stroke-width="0.13" points="678.72,-326.02 685.52,-317.9 675.14,-320 678.72,-326.02"/>
</g>
<!-- &#45;7&#45;&gt;170 -->
<g id="edge8" class="edge">
<title>&#45;7&#45;&gt;170</title>
<path fill="none" stroke="green" stroke-width="0.54" stroke-dasharray="1,5" d="M601.9,-374.39C619.88,-356.72 655.86,-315.51 635.58,-285.42 611.89,-250.28 561.93,-237.24 529.08,-232.4"/>
<polygon fill="green" stroke="green" stroke-width="0.54" points="529.83,-228.97 519.46,-231.16 528.93,-235.91 529.83,-228.97"/>
</g>
<!-- &#45;7&#45;&gt;171 -->
<g id="edge38" class="edge">
<title>&#45;7&#45;&gt;171</title>
<path fill="none" stroke="green" stroke-width="0.19" stroke-dasharray="1,5" d="M580.41,-382.58C546.96,-380.84 452.1,-372 391.58,-327.14 367.7,-309.44 350.7,-279.57 340.61,-257.53"/>
<polygon fill="green" stroke="green" stroke-width="0.19" points="343.91,-256.35 336.7,-248.58 337.5,-259.15 343.91,-256.35"/>
</g>
<!-- &#45;8 -->
<g id="node8" class="node">
<title>&#45;8</title>
<polygon fill="lightgray" stroke="black" points="626.33,-315.53 602.83,-315.53 602.83,-297.03 626.33,-297.03 626.33,-315.53"/>
<text text-anchor="middle" x="614.58" y="-302.98" font-family="Times,serif" font-size="9.00">&#45;8</text>
</g>
<!-- &#45;8&#45;&gt;170 -->
<g id="edge37" class="edge">
<title>&#45;8&#45;&gt;170</title>
<path fill="none" stroke="red" stroke-width="0.36" stroke-dasharray="1,5" d="M603.88,-296.72C599.25,-293.12 593.73,-288.96 588.58,-285.42 567.49,-270.95 542.7,-255.86 524.33,-245.01"/>
<polygon fill="red" stroke="red" stroke-width="0.36" points="526.22,-242.06 515.83,-240.03 522.68,-248.1 526.22,-242.06"/>
</g>
<!-- &#45;9 -->
<g id="node9" class="node">
<title>&#45;9</title>
<polygon fill="lightgray" stroke="black" points="466.33,-315.53 442.83,-315.53 442.83,-297.03 466.33,-297.03 466.33,-315.53"/>
<text text-anchor="middle" x="454.58" y="-302.98" font-family="Times,serif" font-size="9.00">&#45;9</text>
</g>
<!-- &#45;9&#45;&gt;170 -->
<g id="edge16" class="edge">
<title>&#45;9&#45;&gt;170</title>
<path fill="none" stroke="green" stroke-width="0.34" stroke-dasharray="1,5" d="M459.51,-296.6C465.08,-286.78 474.43,-270.33 482.46,-256.18"/>
<polygon fill="green" stroke="green" stroke-width="0.34" points="485.35,-258.18 487.25,-247.75 479.27,-254.72 485.35,-258.18"/>
</g>
<!-- &#45;9&#45;&gt;171 -->
<g id="edge33" class="edge">
<title>&#45;9&#45;&gt;171</title>
<path fill="none" stroke="red" stroke-width="0.24" d="M446.44,-296.62C442.72,-292.92 438.13,-288.71 433.58,-285.42 409.51,-268.05 379.39,-252.46 357.77,-242.19"/>
<polygon fill="red" stroke="red" stroke-width="0.24" points="359.35,-239.06 348.81,-238.01 356.39,-245.41 359.35,-239.06"/>
</g>
<!-- &#45;10 -->
<g id="node10" class="node">
<title>&#45;10</title>
<polygon fill="lightgray" stroke="black" points="794.58,-393.25 766.58,-393.25 766.58,-374.75 794.58,-374.75 794.58,-393.25"/>
<text text-anchor="middle" x="780.58" y="-380.7" font-family="Times,serif" font-size="9.00">&#45;10</text>
</g>
<!-- &#45;10&#45;&gt;169 -->
<g id="edge32" class="edge">
<title>&#45;10&#45;&gt;169</title>
<path fill="none" stroke="red" stroke-width="0.3" d="M771.74,-374.31C760.47,-363.23 740.6,-343.68 725.2,-328.55"/>
<polygon fill="red" stroke="red" stroke-width="0.3" points="727.98,-326.37 718.39,-321.85 723.07,-331.36 727.98,-326.37"/>
</g>
<!-- &#45;10&#45;&gt;170 -->
<g id="edge2" class="edge">
<title>&#45;10&#45;&gt;170</title>
<path fill="none" stroke="green" stroke-width="0.4" d="M779.02,-374.42C775.09,-355.29 762.89,-308.99 733.58,-285.42 673.33,-236.98 578.1,-229.29 529.06,-228.82"/>
<polygon fill="green" stroke="green" stroke-width="0.4" points="529.37,-225.32 519.37,-228.82 529.37,-232.32 529.37,-225.32"/>
</g>
<!-- &#45;11 -->
<g id="node11" class="node">
<title>&#45;11</title>
<polygon fill="lightgray" stroke="black" points="314.58,-393.25 286.58,-393.25 286.58,-374.75 314.58,-374.75 314.58,-393.25"/>
<text text-anchor="middle" x="300.58" y="-380.7" font-family="Times,serif" font-size="9.00">&#45;11</text>
</g>
<!-- &#45;11&#45;&gt;169 -->
<g id="edge35" class="edge">
<title>&#45;11&#45;&gt;169</title>
<path fill="none" stroke="green" stroke-width="0.5" stroke-dasharray="1,5" d="M315.06,-381.21C361.83,-375.31 512.86,-355.19 635.58,-327.14 648.15,-324.27 661.84,-320.41 673.61,-316.87"/>
<polygon fill="green" stroke="green" stroke-width="0.5" points="674.55,-320.24 683.08,-313.95 672.49,-313.55 674.55,-320.24"/>
</g>
<!-- &#45;11&#45;&gt;171 -->
<g id="edge18" class="edge">
<title>&#45;11&#45;&gt;171</title>
<path fill="none" stroke="red" stroke-width="0.34" stroke-dasharray="1,5" d="M300.32,-374.26C300.02,-357.02 300.28,-317.55 307.58,-285.42 309.72,-275.97 313.21,-266.01 316.79,-257.17"/>
<polygon fill="red" stroke="red" stroke-width="0.34" points="319.91,-258.78 320.59,-248.21 313.46,-256.04 319.91,-258.78"/>
</g>
<!-- &#45;11&#45;&gt;172 -->
<g id="edge34" class="edge">
<title>&#45;11&#45;&gt;172</title>
<path fill="none" stroke="red" stroke-width="0.17" d="M292.8,-374.52C288.66,-370.49 283.25,-365.95 277.58,-363.14 207.57,-328.52 154.82,-387.76 105.58,-327.14 54.28,-263.99 103.63,-160.29 131.45,-112.47"/>
<polygon fill="red" stroke="red" stroke-width="0.17" points="134.28,-114.56 136.4,-104.18 128.27,-110.98 134.28,-114.56"/>
</g>
<!-- &#45;12 -->
<g id="node12" class="node">
<title>&#45;12</title>
<polygon fill="lightgray" stroke="black" points="344.58,-315.53 316.58,-315.53 316.58,-297.03 344.58,-297.03 344.58,-315.53"/>
<text text-anchor="middle" x="330.58" y="-302.98" font-family="Times,serif" font-size="9.00">&#45;12</text>
</g>
<!-- &#45;12&#45;&gt;171 -->
<g id="edge10" class="edge">
<title>&#45;12&#45;&gt;171</title>
<path fill="none" stroke="red" stroke-width="0.54" d="M330.46,-296.6C330.34,-287.73 330.16,-273.46 329.98,-260.36"/>
<polygon fill="red" stroke="red" stroke-width="0.54" points="333.49,-260.54 329.85,-250.58 326.49,-260.63 333.49,-260.54"/>
</g>
<!-- &#45;13 -->
<g id="node13" class="node">
<title>&#45;13</title>
<polygon fill="lightgray" stroke="black" points="762.58,-464.61 734.58,-464.61 734.58,-446.11 762.58,-446.11 762.58,-464.61"/>
<text text-anchor="middle" x="748.58" y="-452.06" font-family="Times,serif" font-size="9.00">&#45;13</text>
</g>
<!-- &#45;14 -->
<g id="node14" class="node">
<title>&#45;14</title>
<polygon fill="lightgray" stroke="black" points="808.58,-464.61 780.58,-464.61 780.58,-446.11 808.58,-446.11 808.58,-464.61"/>
<text text-anchor="middle" x="794.58" y="-452.06" font-family="Times,serif" font-size="9.00">&#45;14</text>
</g>
<!-- &#45;15 -->
<g id="node15" class="node">
<title>&#45;15</title>
<polygon fill="lightgray" stroke="black" points="650.58,-393.25 622.58,-393.25 622.58,-374.75 650.58,-374.75 650.58,-393.25"/>
<text text-anchor="middle" x="636.58" y="-380.7" font-family="Times,serif" font-size="9.00">&#45;15</text>
</g>
<!-- &#45;15&#45;&gt;169 -->
<g id="edge15" class="edge">
<title>&#45;15&#45;&gt;169</title>
<path fill="none" stroke="green" stroke-width="0.13" d="M644.26,-374.31C653.75,-363.6 670.23,-344.96 683.42,-330.06"/>
<polygon fill="green" stroke="green" stroke-width="0.13" points="685.83,-332.62 689.84,-322.81 680.59,-327.98 685.83,-332.62"/>
</g>
<!-- &#45;16 -->
<g id="node16" class="node">
<title>&#45;16</title>
<polygon fill="lightgray" stroke="black" points="854.58,-464.61 826.58,-464.61 826.58,-446.11 854.58,-446.11 854.58,-464.61"/>
<text text-anchor="middle" x="840.58" y="-452.06" font-family="Times,serif" font-size="9.00">&#45;16</text>
</g>
<!-- &#45;17 -->
<g id="node17" class="node">
<title>&#45;17</title>
<polygon fill="lightgray" stroke="black" points="900.58,-464.61 872.58,-464.61 872.58,-446.11 900.58,-446.11 900.58,-464.61"/>
<text text-anchor="middle" x="886.58" y="-452.06" font-family="Times,serif" font-size="9.00">&#45;17</text>
</g>
<!-- &#45;18 -->
<g id="node18" class="node">
<title>&#45;18</title>
<polygon fill="lightgray" stroke="black" points="716.58,-464.61 688.58,-464.61 688.58,-446.11 716.58,-446.11 716.58,-464.61"/>
<text text-anchor="middle" x="702.58" y="-452.06" font-family="Times,serif" font-size="9.00">&#45;18</text>
</g>
<!-- &#45;18&#45;&gt;169 -->
<g id="edge17" class="edge">
<title>&#45;18&#45;&gt;169</title>
<path fill="none" stroke="green" stroke-width="0.27" d="M701.42,-445.61C700.19,-435.74 698.3,-419.18 697.58,-404.86 696.64,-386.34 696.58,-381.66 697.58,-363.14 698.02,-354.88 698.83,-345.96 699.71,-337.72"/>
<polygon fill="green" stroke="green" stroke-width="0.27" points="703.19,-338.14 700.84,-327.8 696.23,-337.34 703.19,-338.14"/>
</g>
<!-- 350 -->
<g id="node30" class="node">
<title>350</title>
<ellipse fill="white" stroke="black" cx="727.58" cy="-384" rx="20.86" ry="20.86"/>
<text text-anchor="middle" x="727.58" y="-380.7" font-family="Times,serif" font-size="9.00">350</text>
</g>
<!-- &#45;18&#45;&gt;350 -->
<g id="edge43" class="edge">
<title>&#45;18&#45;&gt;350</title>
<path fill="none" stroke="green" stroke-width="0.2" d="M705.64,-445.85C708.56,-437.77 713.1,-425.15 717.3,-413.5"/>
<polygon fill="green" stroke="green" stroke-width="0.2" points="720.51,-414.94 720.6,-404.34 713.92,-412.57 720.51,-414.94"/>
</g>
<!-- &#45;19 -->
<g id="node19" class="node">
<title>&#45;19</title>
<polygon fill="lightgray" stroke="black" points="184.58,-315.53 156.58,-315.53 156.58,-297.03 184.58,-297.03 184.58,-315.53"/>
<text text-anchor="middle" x="170.58" y="-302.98" font-family="Times,serif" font-size="9.00">&#45;19</text>
</g>
<!-- 0 -->
<g id="node21" class="node">
<title>0</title>
<ellipse fill="lightblue" stroke="black" cx="282.58" cy="-157.21" rx="14.5" ry="14.5"/>
<text text-anchor="middle" x="282.58" y="-153.91" font-family="Times,serif" font-size="9.00">0</text>
</g>
<!-- &#45;19&#45;&gt;0 -->
<g id="edge46" class="edge">
<title>&#45;19&#45;&gt;0</title>
<path fill="none" stroke="red" stroke-width="0.16" d="M176.92,-296.95C194.42,-273.97 243.72,-209.23 268.29,-176.97"/>
<polygon fill="red" stroke="red" stroke-width="0.16" points="270.82,-179.42 274.09,-169.34 265.25,-175.18 270.82,-179.42"/>
</g>
<!-- &#45;19&#45;&gt;171 -->
<g id="edge11" class="edge">
<title>&#45;19&#45;&gt;171</title>
<path fill="none" stroke="green" stroke-width="0.35" d="M181.66,-296.59C186.66,-292.89 192.75,-288.68 198.58,-285.42 232.06,-266.69 273.08,-250.14 300.2,-240.01"/>
<polygon fill="green" stroke="green" stroke-width="0.35" points="301.2,-243.38 309.38,-236.64 298.79,-236.81 301.2,-243.38"/>
</g>
<!-- &#45;19&#45;&gt;172 -->
<g id="edge20" class="edge">
<title>&#45;19&#45;&gt;172</title>
<path fill="none" stroke="red" stroke-width="0.18" stroke-dasharray="1,5" d="M169.82,-296.81C167.66,-272.7 161.16,-201.62 154.58,-142.71 153.64,-134.38 152.55,-125.36 151.51,-117.05"/>
<polygon fill="red" stroke="red" stroke-width="0.18" points="155,-116.75 150.27,-107.27 148.06,-117.63 155,-116.75"/>
</g>
<!-- &#45;20 -->
<g id="node20" class="node">
<title>&#45;20</title>
<polygon fill="lightgray" stroke="black" points="226.58,-393.25 198.58,-393.25 198.58,-374.75 226.58,-374.75 226.58,-393.25"/>
<text text-anchor="middle" x="212.58" y="-380.7" font-family="Times,serif" font-size="9.00">&#45;20</text>
</g>
<!-- &#45;20&#45;&gt;169 -->
<g id="edge19" class="edge">
<title>&#45;20&#45;&gt;169</title>
<path fill="none" stroke="green" stroke-width="0.15" d="M219.81,-374.64C223.97,-370.43 229.55,-365.69 235.58,-363.14 399.91,-293.47 460.19,-360.32 635.58,-327.14 648.51,-324.69 662.52,-320.82 674.44,-317.14"/>
<polygon fill="green" stroke="green" stroke-width="0.15" points="675.21,-320.57 683.68,-314.2 673.09,-313.9 675.21,-320.57"/>
</g>
<!-- &#45;20&#45;&gt;170 -->
<g id="edge12" class="edge">
<title>&#45;20&#45;&gt;170</title>
<path fill="none" stroke="green" stroke-width="0.25" stroke-dasharray="1,5" d="M220.26,-374.32C224.38,-370.24 229.79,-365.72 235.58,-363.14 293.27,-337.4 475.83,-374.56 517.58,-327.14 534.8,-307.58 524.81,-277.24 513.69,-255.58"/>
<polygon fill="green" stroke="green" stroke-width="0.25" points="516.82,-254.02 508.94,-246.94 510.68,-257.39 516.82,-254.02"/>
</g>
<!-- &#45;20&#45;&gt;171 -->
<g id="edge1" class="edge">
<title>&#45;20&#45;&gt;171</title>
<path fill="none" stroke="red" stroke-width="0.46" stroke-dasharray="1,5" d="M217.44,-374.27C227.37,-356.72 251.13,-316.22 275.58,-285.42 285.2,-273.3 297.04,-260.82 307.19,-250.74"/>
<polygon fill="red" stroke="red" stroke-width="0.46" points="309.34,-253.53 314.05,-244.03 304.45,-248.52 309.34,-253.53"/>
</g>
<!-- &#45;20&#45;&gt;172 -->
<g id="edge28" class="edge">
<title>&#45;20&#45;&gt;172</title>
<path fill="none" stroke="red" stroke-width="0.32" d="M198.11,-383.62C163.05,-384.23 73.59,-380.27 34.58,-327.14 -13.94,-261.07 -8.68,-212.34 34.58,-142.71 52.42,-113.99 89.88,-99.59 116.78,-92.69"/>
<polygon fill="red" stroke="red" stroke-width="0.32" points="117.46,-96.12 126.39,-90.43 115.86,-89.31 117.46,-96.12"/>
</g>
<!-- 1 -->
<g id="node22" class="node">
<title>1</title>
<ellipse fill="lightblue" stroke="black" cx="455.58" cy="-14.5" rx="14.5" ry="14.5"/>
<text text-anchor="middle" x="455.58" y="-11.2" font-family="Times,serif" font-size="9.00">1</text>
</g>
<!-- 2 -->
<g id="node23" class="node">
<title>2</title>
<ellipse fill="lightblue" stroke="black" cx="932.58" cy="-455.36" rx="14.5" ry="14.5"/>
<text text-anchor="middle" x="932.58" y="-452.06" font-family="Times,serif" font-size="9.00">2</text>
</g>
<!-- 3 -->
<g id="node24" class="node">
<title>3</title>
<ellipse fill="lightblue" stroke="black" cx="455.58" cy="-157.21" rx="14.5" ry="14.5"/>
<text text-anchor="middle" x="455.58" y="-153.91" font-family="Times,serif" font-size="9.00">3</text>
</g>
<!-- 4 -->
<g id="node25" class="node">
<title>4</title>
<ellipse fill="lightblue" stroke="black" cx="329.58" cy="-157.21" rx="14.5" ry="14.5"/>
<text text-anchor="middle" x="329.58" y="-153.91" font-family="Times,serif" font-size="9.00">4</text>
</g>
<!-- 4&#45;&gt;172 -->
<g id="edge45" class="edge">
<title>4&#45;&gt;172</title>
<path fill="none" stroke="red" stroke-width="0.21" d="M317.58,-148.92C313.81,-146.78 309.58,-144.53 305.58,-142.71 262.19,-123.02 209.65,-105.66 177.42,-95.71"/>
<polygon fill="red" stroke="red" stroke-width="0.21" points="178.6,-92.41 168.02,-92.84 176.56,-99.1 178.6,-92.41"/>
</g>
<!-- 169&#45;&gt;1 -->
<g id="edge6" class="edge">
<title>169&#45;&gt;1</title>
<path fill="none" stroke="green" stroke-width="0.18" d="M690.24,-289.7C647.94,-240.27 516.83,-87.07 471.33,-33.9"/>
<polygon fill="green" stroke="green" stroke-width="0.18" points="474.12,-31.78 464.96,-26.46 468.8,-36.34 474.12,-31.78"/>
</g>
<!-- 169&#45;&gt;170 -->
<g id="edge42" class="edge">
<title>169&#45;&gt;170</title>
<path fill="none" stroke="red" stroke-width="0.43" d="M686.13,-294.47C680.63,-291.31 674.46,-288.02 668.58,-285.42 620.81,-264.32 562.49,-246.96 527.78,-237.45"/>
<polygon fill="red" stroke="red" stroke-width="0.43" points="529,-234.15 518.43,-234.92 527.17,-240.91 529,-234.15"/>
</g>
<!-- 170&#45;&gt;0 -->
<g id="edge41" class="edge">
<title>170&#45;&gt;0</title>
<path fill="none" stroke="green" stroke-width="0.13" stroke-dasharray="1,5" d="M476.98,-223.17C441.39,-215.21 366.44,-196.9 306.58,-171.7 305.56,-171.28 304.54,-170.82 303.51,-170.33"/>
<polygon fill="green" stroke="green" stroke-width="0.13" points="305.17,-167.25 294.69,-165.72 301.93,-173.46 305.17,-167.25"/>
</g>
<!-- 170&#45;&gt;1 -->
<g id="edge7" class="edge">
<title>170&#45;&gt;1</title>
<path fill="none" stroke="green" stroke-width="0.26" stroke-dasharray="1,5" d="M493.63,-207.61C485.86,-168.43 468.66,-81.57 460.31,-39.39"/>
<polygon fill="green" stroke="green" stroke-width="0.26" points="463.75,-38.74 458.37,-29.61 456.88,-40.1 463.75,-38.74"/>
</g>
<!-- 170&#45;&gt;3 -->
<g id="edge24" class="edge">
<title>170&#45;&gt;3</title>
<path fill="none" stroke="green" stroke-width="0.12" d="M486.98,-210.06C481.17,-200.47 473.95,-188.55 467.89,-178.55"/>
<polygon fill="green" stroke="green" stroke-width="0.12" points="471.01,-176.93 462.83,-170.19 465.02,-180.56 471.01,-176.93"/>
</g>
<!-- 170&#45;&gt;4 -->
<g id="edge40" class="edge">
<title>170&#45;&gt;4</title>
<path fill="none" stroke="red" stroke-width="0.25" d="M477.92,-221.13C449.64,-211.63 396.08,-192.67 352.58,-171.7 351.89,-171.37 351.19,-171.03 350.5,-170.67"/>
<polygon fill="red" stroke="red" stroke-width="0.25" points="352.32,-167.68 341.88,-165.91 348.94,-173.81 352.32,-167.68"/>
</g>
<!-- 171&#45;&gt;0 -->
<g id="edge25" class="edge">
<title>171&#45;&gt;0</title>
<path fill="none" stroke="green" stroke-width="0.14" d="M318.2,-210.77C311.56,-200.97 303.14,-188.55 296.16,-178.24"/>
<polygon fill="green" stroke="green" stroke-width="0.14" points="299.09,-176.34 290.58,-170.02 293.3,-180.27 299.09,-176.34"/>
</g>
<!-- 171&#45;&gt;1 -->
<g id="edge9" class="edge">
<title>171&#45;&gt;1</title>
<path fill="none" stroke="green" stroke-width="0.39" stroke-dasharray="1,5" d="M346.85,-216.33C361.3,-206.17 381.58,-190.03 394.58,-171.7 424.24,-129.84 441.97,-71.6 450.14,-39.36"/>
<polygon fill="green" stroke="green" stroke-width="0.39" points="453.53,-40.22 452.5,-29.68 446.73,-38.56 453.53,-40.22"/>
</g>
<!-- 171&#45;&gt;3 -->
<g id="edge22" class="edge">
<title>171&#45;&gt;3</title>
<path fill="none" stroke="green" stroke-width="0.54" stroke-dasharray="1,5" d="M347.63,-217.62C370.36,-205.12 409.37,-183.64 433.74,-170.22"/>
<polygon fill="green" stroke="green" stroke-width="0.54" points="435.12,-173.46 442.19,-165.57 431.74,-167.33 435.12,-173.46"/>
</g>
<!-- 171&#45;&gt;4 -->
<g id="edge39" class="edge">
<title>171&#45;&gt;4</title>
<path fill="none" stroke="green" stroke-width="0.37" stroke-dasharray="1,5" d="M329.58,-207.5C329.58,-199.69 329.58,-190.67 329.58,-182.49"/>
<polygon fill="green" stroke="green" stroke-width="0.37" points="333.08,-182.63 329.58,-172.63 326.08,-182.63 333.08,-182.63"/>
</g>
<!-- 172&#45;&gt;1 -->
<g id="edge26" class="edge">
<title>172&#45;&gt;1</title>
<path fill="none" stroke="green" stroke-width="0.3" stroke-dasharray="1,5" d="M167.79,-80.3C222.34,-68.02 372.44,-34.22 431.38,-20.95"/>
<polygon fill="green" stroke="green" stroke-width="0.3" points="431.85,-24.43 440.84,-18.81 430.31,-17.6 431.85,-24.43"/>
</g>
<!-- 350&#45;&gt;169 -->
<g id="edge44" class="edge">
<title>350&#45;&gt;169</title>
<path fill="none" stroke="green" stroke-width="0.47" d="M721.52,-363.89C718.9,-355.62 715.77,-345.74 712.86,-336.57"/>
<polygon fill="green" stroke="green" stroke-width="0.47" points="716.29,-335.8 709.93,-327.32 709.61,-337.91 716.29,-335.8"/>
</g>
</g>
</svg>
