<?xml version="1.0" encoding="UTF-8" standalone="no"?>
<!DOCTYPE svg PUBLIC "-//W3C//DTD SVG 1.1//EN"
 "http://www.w3.org/Graphics/SVG/1.1/DTD/svg11.dtd">
<!-- Generated by graphviz version 12.1.1 (20240910.0053)
 -->
<!-- Pages: 1 -->
<svg width="920pt" height="180pt"
 viewBox="0.00 0.00 920.50 179.70" xmlns="http://www.w3.org/2000/svg" xmlns:xlink="http://www.w3.org/1999/xlink">
<g id="graph0" class="graph" transform="scale(1 1) rotate(0) translate(4 175.7)">
<polygon fill="white" stroke="none" points="-4,4 -4,-175.7 916.5,-175.7 916.5,4 -4,4"/>
<!-- &#45;1 -->
<g id="node1" class="node">
<title>&#45;1</title>
<polygon fill="lightgray" stroke="black" points="199.75,-166.46 176.25,-166.46 176.25,-147.96 199.75,-147.96 199.75,-166.46"/>
<text text-anchor="middle" x="188" y="-153.91" font-family="Times,serif" font-size="9.00">&#45;1</text>
</g>
<!-- 181 -->
<g id="node26" class="node">
<title>181</title>
<ellipse fill="white" stroke="black" cx="349" cy="-85.85" rx="20.86" ry="20.86"/>
<text text-anchor="middle" x="349" y="-82.55" font-family="Times,serif" font-size="9.00">181</text>
</g>
<!-- &#45;1&#45;&gt;181 -->
<g id="edge18" class="edge">
<title>&#45;1&#45;&gt;181</title>
<path fill="none" stroke="green" stroke-width="0.19" d="M200.2,-147.81C203.03,-146.02 206.07,-144.22 209,-142.71 246.05,-123.64 291.17,-106.68 319.99,-96.59"/>
<polygon fill="green" stroke="green" stroke-width="0.19" points="320.89,-99.98 329.2,-93.4 318.6,-93.36 320.89,-99.98"/>
</g>
<!-- 183 -->
<g id="node27" class="node">
<title>183</title>
<ellipse fill="white" stroke="black" cx="230" cy="-85.85" rx="20.86" ry="20.86"/>
<text text-anchor="middle" x="230" y="-82.55" font-family="Times,serif" font-size="9.00">183</text>
</g>
<!-- &#45;1&#45;&gt;183 -->
<g id="edge30" class="edge">
<title>&#45;1&#45;&gt;183</title>
<path fill="none" stroke="green" stroke-width="0.36" d="M193.15,-147.7C198.35,-139.11 206.66,-125.4 214.06,-113.17"/>
<polygon fill="green" stroke="green" stroke-width="0.36" points="217.02,-115.03 219.21,-104.67 211.04,-111.41 217.02,-115.03"/>
</g>
<!-- &#45;2 -->
<g id="node2" class="node">
<title>&#45;2</title>
<polygon fill="lightgray" stroke="black" points="463.75,-166.46 440.25,-166.46 440.25,-147.96 463.75,-147.96 463.75,-166.46"/>
<text text-anchor="middle" x="452" y="-153.91" font-family="Times,serif" font-size="9.00">&#45;2</text>
</g>
<!-- &#45;2&#45;&gt;181 -->
<g id="edge25" class="edge">
<title>&#45;2&#45;&gt;181</title>
<path fill="none" stroke="red" stroke-width="0.1" d="M439.78,-147.98C423.74,-137.18 395.18,-117.95 374.37,-103.94"/>
<polygon fill="red" stroke="red" stroke-width="0.1" points="376.36,-101.06 366.11,-98.37 372.45,-106.86 376.36,-101.06"/>
</g>
<!-- 184 -->
<g id="node28" class="node">
<title>184</title>
<ellipse fill="white" stroke="black" cx="496" cy="-85.85" rx="20.86" ry="20.86"/>
<text text-anchor="middle" x="496" y="-82.55" font-family="Times,serif" font-size="9.00">184</text>
</g>
<!-- &#45;2&#45;&gt;184 -->
<g id="edge36" class="edge">
<title>&#45;2&#45;&gt;184</title>
<path fill="none" stroke="red" stroke-width="0.22" stroke-dasharray="1,5" d="M457.4,-147.7C462.94,-138.97 471.83,-124.94 479.69,-112.56"/>
<polygon fill="red" stroke="red" stroke-width="0.22" points="482.58,-114.53 484.99,-104.21 476.67,-110.78 482.58,-114.53"/>
</g>
<!-- &#45;3 -->
<g id="node3" class="node">
<title>&#45;3</title>
<polygon fill="lightgray" stroke="black" points="115.75,-166.46 92.25,-166.46 92.25,-147.96 115.75,-147.96 115.75,-166.46"/>
<text text-anchor="middle" x="104" y="-153.91" font-family="Times,serif" font-size="9.00">&#45;3</text>
</g>
<!-- &#45;3&#45;&gt;183 -->
<g id="edge35" class="edge">
<title>&#45;3&#45;&gt;183</title>
<path fill="none" stroke="green" stroke-width="0.6" d="M115.89,-148.33C118.84,-146.44 122.01,-144.46 125,-142.71 150.68,-127.66 180.74,-111.85 202.1,-100.9"/>
<polygon fill="green" stroke="green" stroke-width="0.6" points="203.41,-104.16 210.73,-96.5 200.23,-97.92 203.41,-104.16"/>
</g>
<!-- &#45;4 -->
<g id="node4" class="node">
<title>&#45;4</title>
<polygon fill="lightgray" stroke="black" points="735.75,-166.46 712.25,-166.46 712.25,-147.96 735.75,-147.96 735.75,-166.46"/>
<text text-anchor="middle" x="724" y="-153.91" font-family="Times,serif" font-size="9.00">&#45;4</text>
</g>
<!-- &#45;4&#45;&gt;184 -->
<g id="edge29" class="edge">
<title>&#45;4&#45;&gt;184</title>
<path fill="none" stroke="green" stroke-width="0.68" stroke-dasharray="1,5" d="M711.92,-147.55C709.08,-145.78 706.01,-144.05 703,-142.71 643.59,-116.37 568.94,-99.98 527.47,-92.21"/>
<polygon fill="green" stroke="green" stroke-width="0.68" points="528.16,-88.78 517.69,-90.43 526.91,-95.67 528.16,-88.78"/>
</g>
<!-- &#45;5 -->
<g id="node5" class="node">
<title>&#45;5</title>
<polygon fill="lightgray" stroke="black" points="283.75,-166.46 260.25,-166.46 260.25,-147.96 283.75,-147.96 283.75,-166.46"/>
<text text-anchor="middle" x="272" y="-153.91" font-family="Times,serif" font-size="9.00">&#45;5</text>
</g>
<!-- &#45;5&#45;&gt;181 -->
<g id="edge22" class="edge">
<title>&#45;5&#45;&gt;181</title>
<path fill="none" stroke="green" stroke-width="0.21" d="M281.44,-147.7C292.59,-137.66 311.51,-120.62 326.5,-107.12"/>
<polygon fill="green" stroke="green" stroke-width="0.21" points="328.59,-109.95 333.67,-100.66 323.9,-104.75 328.59,-109.95"/>
</g>
<!-- &#45;6 -->
<g id="node6" class="node">
<title>&#45;6</title>
<polygon fill="lightgray" stroke="black" points="777.75,-166.46 754.25,-166.46 754.25,-147.96 777.75,-147.96 777.75,-166.46"/>
<text text-anchor="middle" x="766" y="-153.91" font-family="Times,serif" font-size="9.00">&#45;6</text>
</g>
<!-- &#45;6&#45;&gt;184 -->
<g id="edge23" class="edge">
<title>&#45;6&#45;&gt;184</title>
<path fill="none" stroke="green" stroke-width="0.3" d="M753.96,-147.46C751.12,-145.69 748.04,-143.98 745,-142.71 670.33,-111.5 575.43,-96.39 527.2,-90.29"/>
<polygon fill="green" stroke="green" stroke-width="0.3" points="527.88,-86.85 517.53,-89.11 527.03,-93.8 527.88,-86.85"/>
</g>
<!-- &#45;7 -->
<g id="node7" class="node">
<title>&#45;7</title>
<polygon fill="lightgray" stroke="black" points="241.75,-166.46 218.25,-166.46 218.25,-147.96 241.75,-147.96 241.75,-166.46"/>
<text text-anchor="middle" x="230" y="-153.91" font-family="Times,serif" font-size="9.00">&#45;7</text>
</g>
<!-- &#45;7&#45;&gt;181 -->
<g id="edge13" class="edge">
<title>&#45;7&#45;&gt;181</title>
<path fill="none" stroke="red" stroke-width="0.46" d="M241.92,-148.39C244.87,-146.5 248.03,-144.51 251,-142.71 274.5,-128.48 301.68,-113.07 321.44,-102.04"/>
<polygon fill="red" stroke="red" stroke-width="0.46" points="323.12,-105.11 330.16,-97.2 319.72,-99 323.12,-105.11"/>
</g>
<!-- &#45;7&#45;&gt;183 -->
<g id="edge1" class="edge">
<title>&#45;7&#45;&gt;183</title>
<path fill="none" stroke="red" stroke-width="0.18" d="M230,-147.7C230,-140 230,-128.19 230,-117.01"/>
<polygon fill="red" stroke="red" stroke-width="0.18" points="233.5,-117.34 230,-107.34 226.5,-117.34 233.5,-117.34"/>
</g>
<!-- &#45;8 -->
<g id="node8" class="node">
<title>&#45;8</title>
<polygon fill="lightgray" stroke="black" points="819.75,-166.46 796.25,-166.46 796.25,-147.96 819.75,-147.96 819.75,-166.46"/>
<text text-anchor="middle" x="808" y="-153.91" font-family="Times,serif" font-size="9.00">&#45;8</text>
</g>
<!-- &#45;9 -->
<g id="node9" class="node">
<title>&#45;9</title>
<polygon fill="lightgray" stroke="black" points="157.75,-166.46 134.25,-166.46 134.25,-147.96 157.75,-147.96 157.75,-166.46"/>
<text text-anchor="middle" x="146" y="-153.91" font-family="Times,serif" font-size="9.00">&#45;9</text>
</g>
<!-- &#45;9&#45;&gt;181 -->
<g id="edge6" class="edge">
<title>&#45;9&#45;&gt;181</title>
<path fill="none" stroke="green" stroke-width="0.19" stroke-dasharray="1,5" d="M158.12,-147.63C160.95,-145.85 164.01,-144.1 167,-142.71 218.11,-118.99 281.86,-102.09 318.74,-93.45"/>
<polygon fill="green" stroke="green" stroke-width="0.19" points="319.15,-96.94 328.12,-91.3 317.59,-90.12 319.15,-96.94"/>
</g>
<!-- &#45;9&#45;&gt;183 -->
<g id="edge4" class="edge">
<title>&#45;9&#45;&gt;183</title>
<path fill="none" stroke="green" stroke-width="0.39" d="M156.3,-147.7C168.61,-137.54 189.61,-120.2 206.05,-106.62"/>
<polygon fill="green" stroke="green" stroke-width="0.39" points="208.23,-109.37 213.71,-100.3 203.77,-103.97 208.23,-109.37"/>
</g>
<!-- &#45;10 -->
<g id="node10" class="node">
<title>&#45;10</title>
<polygon fill="lightgray" stroke="black" points="866,-166.46 838,-166.46 838,-147.96 866,-147.96 866,-166.46"/>
<text text-anchor="middle" x="852" y="-153.91" font-family="Times,serif" font-size="9.00">&#45;10</text>
</g>
<!-- &#45;11 -->
<g id="node11" class="node">
<title>&#45;11</title>
<polygon fill="lightgray" stroke="black" points="510,-166.46 482,-166.46 482,-147.96 510,-147.96 510,-166.46"/>
<text text-anchor="middle" x="496" y="-153.91" font-family="Times,serif" font-size="9.00">&#45;11</text>
</g>
<!-- &#45;11&#45;&gt;181 -->
<g id="edge34" class="edge">
<title>&#45;11&#45;&gt;181</title>
<path fill="none" stroke="green" stroke-width="0.17" d="M482.02,-147.68C479.08,-145.98 475.96,-144.24 473,-142.71 440.96,-126.16 403.02,-109.47 377.62,-98.71"/>
<polygon fill="green" stroke="green" stroke-width="0.17" points="379.02,-95.5 368.45,-94.85 376.31,-101.95 379.02,-95.5"/>
</g>
<!-- &#45;11&#45;&gt;184 -->
<g id="edge8" class="edge">
<title>&#45;11&#45;&gt;184</title>
<path fill="none" stroke="red" stroke-width="0.51" d="M496,-147.7C496,-140.16 496,-128.67 496,-117.7"/>
<polygon fill="red" stroke="red" stroke-width="0.51" points="499.5,-117.84 496,-107.84 492.5,-117.84 499.5,-117.84"/>
</g>
<!-- &#45;12 -->
<g id="node12" class="node">
<title>&#45;12</title>
<polygon fill="lightgray" stroke="black" points="28,-166.46 0,-166.46 0,-147.96 28,-147.96 28,-166.46"/>
<text text-anchor="middle" x="14" y="-153.91" font-family="Times,serif" font-size="9.00">&#45;12</text>
</g>
<!-- &#45;12&#45;&gt;183 -->
<g id="edge24" class="edge">
<title>&#45;12&#45;&gt;183</title>
<path fill="none" stroke="green" stroke-width="0.27" d="M27.33,-147.63C30.43,-145.86 33.77,-144.1 37,-142.71 92.21,-118.96 160.53,-101.88 199.3,-93.24"/>
<polygon fill="green" stroke="green" stroke-width="0.27" points="199.99,-96.68 209.02,-91.12 198.5,-89.84 199.99,-96.68"/>
</g>
<!-- &#45;13 -->
<g id="node13" class="node">
<title>&#45;13</title>
<polygon fill="lightgray" stroke="black" points="648,-166.46 620,-166.46 620,-147.96 648,-147.96 648,-166.46"/>
<text text-anchor="middle" x="634" y="-153.91" font-family="Times,serif" font-size="9.00">&#45;13</text>
</g>
<!-- &#45;13&#45;&gt;184 -->
<g id="edge15" class="edge">
<title>&#45;13&#45;&gt;184</title>
<path fill="none" stroke="green" stroke-width="0.14" d="M619.99,-147.75C617.04,-146.04 613.94,-144.28 611,-142.71 581.76,-127.06 547.48,-110.65 524,-99.7"/>
<polygon fill="green" stroke="green" stroke-width="0.14" points="525.69,-96.63 515.15,-95.59 522.74,-102.98 525.69,-96.63"/>
</g>
<!-- &#45;14 -->
<g id="node14" class="node">
<title>&#45;14</title>
<polygon fill="lightgray" stroke="black" points="694,-166.46 666,-166.46 666,-147.96 694,-147.96 694,-166.46"/>
<text text-anchor="middle" x="680" y="-153.91" font-family="Times,serif" font-size="9.00">&#45;14</text>
</g>
<!-- &#45;14&#45;&gt;184 -->
<g id="edge7" class="edge">
<title>&#45;14&#45;&gt;184</title>
<path fill="none" stroke="green" stroke-width="0.27" d="M666.13,-147.48C663.17,-145.79 660.03,-144.11 657,-142.71 612.76,-122.3 558.82,-105.03 525.96,-95.31"/>
<polygon fill="green" stroke="green" stroke-width="0.27" points="527.04,-91.98 516.46,-92.54 525.08,-98.7 527.04,-91.98"/>
</g>
<!-- &#45;15 -->
<g id="node15" class="node">
<title>&#45;15</title>
<polygon fill="lightgray" stroke="black" points="330,-166.46 302,-166.46 302,-147.96 330,-147.96 330,-166.46"/>
<text text-anchor="middle" x="316" y="-153.91" font-family="Times,serif" font-size="9.00">&#45;15</text>
</g>
<!-- &#45;15&#45;&gt;183 -->
<g id="edge32" class="edge">
<title>&#45;15&#45;&gt;183</title>
<path fill="none" stroke="green" stroke-width="0.3" d="M305.45,-147.7C292.66,-137.38 270.69,-119.67 253.75,-106"/>
<polygon fill="green" stroke="green" stroke-width="0.3" points="256.24,-103.51 246.26,-99.96 251.84,-108.96 256.24,-103.51"/>
</g>
<!-- &#45;15&#45;&gt;184 -->
<g id="edge19" class="edge">
<title>&#45;15&#45;&gt;184</title>
<path fill="none" stroke="red" stroke-width="0.3" d="M329.88,-147.5C332.84,-145.8 335.98,-144.12 339,-142.71 381.94,-122.69 434.2,-105.42 466.27,-95.58"/>
<polygon fill="red" stroke="red" stroke-width="0.3" points="466.95,-99.03 475.51,-92.78 464.92,-92.33 466.95,-99.03"/>
</g>
<!-- &#45;16 -->
<g id="node16" class="node">
<title>&#45;16</title>
<polygon fill="lightgray" stroke="black" points="556,-166.46 528,-166.46 528,-147.96 556,-147.96 556,-166.46"/>
<text text-anchor="middle" x="542" y="-153.91" font-family="Times,serif" font-size="9.00">&#45;16</text>
</g>
<!-- &#45;16&#45;&gt;181 -->
<g id="edge28" class="edge">
<title>&#45;16&#45;&gt;181</title>
<path fill="none" stroke="red" stroke-width="0.29" d="M528.63,-147.72C525.54,-145.94 522.21,-144.16 519,-142.71 471.79,-121.4 413.95,-104.15 379.36,-94.71"/>
<polygon fill="red" stroke="red" stroke-width="0.29" points="380.41,-91.37 369.84,-92.15 378.59,-98.13 380.41,-91.37"/>
</g>
<!-- &#45;16&#45;&gt;184 -->
<g id="edge11" class="edge">
<title>&#45;16&#45;&gt;184</title>
<path fill="none" stroke="red" stroke-width="0.34" d="M536.36,-147.7C530.57,-138.97 521.27,-124.94 513.05,-112.56"/>
<polygon fill="red" stroke="red" stroke-width="0.34" points="516.05,-110.75 507.61,-104.35 510.22,-114.62 516.05,-110.75"/>
</g>
<!-- &#45;17 -->
<g id="node17" class="node">
<title>&#45;17</title>
<polygon fill="lightgray" stroke="black" points="376,-166.46 348,-166.46 348,-147.96 376,-147.96 376,-166.46"/>
<text text-anchor="middle" x="362" y="-153.91" font-family="Times,serif" font-size="9.00">&#45;17</text>
</g>
<!-- &#45;17&#45;&gt;183 -->
<g id="edge21" class="edge">
<title>&#45;17&#45;&gt;183</title>
<path fill="none" stroke="green" stroke-width="0.31" d="M347.96,-147.8C345.02,-146.08 341.92,-144.31 339,-142.71 311.72,-127.73 280.01,-111.63 257.85,-100.57"/>
<polygon fill="green" stroke="green" stroke-width="0.31" points="259.62,-97.54 249.1,-96.23 256.5,-103.81 259.62,-97.54"/>
</g>
<!-- &#45;17&#45;&gt;184 -->
<g id="edge2" class="edge">
<title>&#45;17&#45;&gt;184</title>
<path fill="none" stroke="green" stroke-width="0.25" stroke-dasharray="1,5" d="M376.03,-147.78C378.97,-146.07 382.07,-144.3 385,-142.71 412.9,-127.53 445.41,-111.33 468.01,-100.31"/>
<polygon fill="green" stroke="green" stroke-width="0.25" points="469.54,-103.47 477,-95.95 466.48,-97.17 469.54,-103.47"/>
</g>
<!-- &#45;18 -->
<g id="node18" class="node">
<title>&#45;18</title>
<polygon fill="lightgray" stroke="black" points="602,-166.46 574,-166.46 574,-147.96 602,-147.96 602,-166.46"/>
<text text-anchor="middle" x="588" y="-153.91" font-family="Times,serif" font-size="9.00">&#45;18</text>
</g>
<!-- &#45;18&#45;&gt;181 -->
<g id="edge10" class="edge">
<title>&#45;18&#45;&gt;181</title>
<path fill="none" stroke="green" stroke-width="0.14" d="M574.7,-147.57C571.6,-145.79 568.25,-144.05 565,-142.71 501.64,-116.53 422.64,-99.85 379.91,-92.05"/>
<polygon fill="green" stroke="green" stroke-width="0.14" points="380.53,-88.6 370.07,-90.29 379.3,-95.49 380.53,-88.6"/>
</g>
<!-- &#45;18&#45;&gt;184 -->
<g id="edge14" class="edge">
<title>&#45;18&#45;&gt;184</title>
<path fill="none" stroke="red" stroke-width="0.62" d="M576.72,-147.7C562.86,-137.26 538.96,-119.24 520.75,-105.51"/>
<polygon fill="red" stroke="red" stroke-width="0.62" points="523.18,-102.96 513.09,-99.73 518.97,-108.55 523.18,-102.96"/>
</g>
<!-- &#45;19 -->
<g id="node19" class="node">
<title>&#45;19</title>
<polygon fill="lightgray" stroke="black" points="422,-166.46 394,-166.46 394,-147.96 422,-147.96 422,-166.46"/>
<text text-anchor="middle" x="408" y="-153.91" font-family="Times,serif" font-size="9.00">&#45;19</text>
</g>
<!-- &#45;19&#45;&gt;183 -->
<g id="edge26" class="edge">
<title>&#45;19&#45;&gt;183</title>
<path fill="none" stroke="red" stroke-width="0.19" d="M394.11,-147.51C391.16,-145.81 388.02,-144.13 385,-142.71 342.7,-122.89 291.28,-105.62 259.6,-95.72"/>
<polygon fill="red" stroke="red" stroke-width="0.19" points="260.9,-92.46 250.31,-92.85 258.84,-99.14 260.9,-92.46"/>
</g>
<!-- &#45;19&#45;&gt;184 -->
<g id="edge20" class="edge">
<title>&#45;19&#45;&gt;184</title>
<path fill="none" stroke="green" stroke-width="0.12" d="M418.79,-147.7C432,-137.29 454.77,-119.34 472.17,-105.63"/>
<polygon fill="green" stroke="green" stroke-width="0.12" points="473.9,-108.73 479.59,-99.79 469.56,-103.23 473.9,-108.73"/>
</g>
<!-- &#45;20 -->
<g id="node20" class="node">
<title>&#45;20</title>
<polygon fill="lightgray" stroke="black" points="74,-166.46 46,-166.46 46,-147.96 74,-147.96 74,-166.46"/>
<text text-anchor="middle" x="60" y="-153.91" font-family="Times,serif" font-size="9.00">&#45;20</text>
</g>
<!-- &#45;20&#45;&gt;183 -->
<g id="edge3" class="edge">
<title>&#45;20&#45;&gt;183</title>
<path fill="none" stroke="green" stroke-width="0.22" d="M73.91,-147.55C76.86,-145.85 79.99,-144.15 83,-142.71 122.59,-123.74 170.45,-106.56 200.57,-96.41"/>
<polygon fill="green" stroke="green" stroke-width="0.22" points="201.38,-99.83 209.75,-93.34 199.16,-93.19 201.38,-99.83"/>
</g>
<!-- 0 -->
<g id="node21" class="node">
<title>0</title>
<ellipse fill="lightblue" stroke="black" cx="390" cy="-14.5" rx="14.5" ry="14.5"/>
<text text-anchor="middle" x="390" y="-11.2" font-family="Times,serif" font-size="9.00">0</text>
</g>
<!-- 1 -->
<g id="node22" class="node">
<title>1</title>
<ellipse fill="lightblue" stroke="black" cx="496" cy="-14.5" rx="14.5" ry="14.5"/>
<text text-anchor="middle" x="496" y="-11.2" font-family="Times,serif" font-size="9.00">1</text>
</g>
<!-- 2 -->
<g id="node23" class="node">
<title>2</title>
<ellipse fill="lightblue" stroke="black" cx="343" cy="-14.5" rx="14.5" ry="14.5"/>
<text text-anchor="middle" x="343" y="-11.2" font-family="Times,serif" font-size="9.00">2</text>
</g>
<!-- 3 -->
<g id="node24" class="node">
<title>3</title>
<ellipse fill="lightblue" stroke="black" cx="230" cy="-14.5" rx="14.5" ry="14.5"/>
<text text-anchor="middle" x="230" y="-11.2" font-family="Times,serif" font-size="9.00">3</text>
</g>
<!-- 4 -->
<g id="node25" class="node">
<title>4</title>
<ellipse fill="lightblue" stroke="black" cx="898" cy="-157.21" rx="14.5" ry="14.5"/>
<text text-anchor="middle" x="898" y="-153.91" font-family="Times,serif" font-size="9.00">4</text>
</g>
<!-- 181&#45;&gt;0 -->
<g id="edge31" class="edge">
<title>181&#45;&gt;0</title>
<path fill="none" stroke="red" stroke-width="0.55" d="M359.35,-67.35C364.9,-57.96 371.78,-46.32 377.61,-36.45"/>
<polygon fill="red" stroke="red" stroke-width="0.55" points="380.51,-38.43 382.59,-28.04 374.48,-34.86 380.51,-38.43"/>
</g>
<!-- 181&#45;&gt;2 -->
<g id="edge33" class="edge">
<title>181&#45;&gt;2</title>
<path fill="none" stroke="green" stroke-width="0.29" d="M347.26,-64.79C346.58,-56.89 345.79,-47.75 345.08,-39.5"/>
<polygon fill="green" stroke="green" stroke-width="0.29" points="348.59,-39.45 344.24,-29.79 341.61,-40.05 348.59,-39.45"/>
</g>
<!-- 183&#45;&gt;0 -->
<g id="edge12" class="edge">
<title>183&#45;&gt;0</title>
<path fill="none" stroke="red" stroke-width="0.24" d="M249.7,-77.63C276.45,-67.63 325.57,-48.57 366,-28.99 366.99,-28.51 367.99,-28.01 369.01,-27.49"/>
<polygon fill="red" stroke="red" stroke-width="0.24" points="370.5,-30.67 377.63,-22.83 367.16,-24.51 370.5,-30.67"/>
</g>
<!-- 183&#45;&gt;2 -->
<g id="edge9" class="edge">
<title>183&#45;&gt;2</title>
<path fill="none" stroke="green" stroke-width="0.12" stroke-dasharray="1,5" d="M247.66,-74.01C267.77,-61.67 300.62,-41.51 322.02,-28.37"/>
<polygon fill="green" stroke="green" stroke-width="0.12" points="323.84,-31.36 330.53,-23.15 320.18,-25.4 323.84,-31.36"/>
</g>
<!-- 183&#45;&gt;3 -->
<g id="edge5" class="edge">
<title>183&#45;&gt;3</title>
<path fill="none" stroke="red" stroke-width="0.11" d="M230,-64.79C230,-56.89 230,-47.75 230,-39.5"/>
<polygon fill="red" stroke="red" stroke-width="0.11" points="233.5,-39.52 230,-29.52 226.5,-39.52 233.5,-39.52"/>
</g>
<!-- 184&#45;&gt;0 -->
<g id="edge27" class="edge">
<title>184&#45;&gt;0</title>
<path fill="none" stroke="red" stroke-width="0.38" stroke-dasharray="1,5" d="M478.97,-73.71C460.38,-61.54 430.6,-42.06 410.68,-29.03"/>
<polygon fill="red" stroke="red" stroke-width="0.38" points="412.81,-26.24 402.53,-23.69 408.98,-32.1 412.81,-26.24"/>
</g>
<!-- 184&#45;&gt;1 -->
<g id="edge17" class="edge">
<title>184&#45;&gt;1</title>
<path fill="none" stroke="red" stroke-width="0.24" d="M496,-64.79C496,-56.89 496,-47.75 496,-39.5"/>
<polygon fill="red" stroke="red" stroke-width="0.24" points="499.5,-39.72 496,-29.72 492.5,-39.72 499.5,-39.72"/>
</g>
<!-- 184&#45;&gt;2 -->
<g id="edge16" class="edge">
<title>184&#45;&gt;2</title>
<path fill="none" stroke="red" stroke-width="0.15" d="M476.92,-77.31C451.49,-67.1 405.26,-47.97 367,-28.99 366.02,-28.5 365.01,-27.99 364.01,-27.47"/>
<polygon fill="red" stroke="red" stroke-width="0.15" points="365.73,-24.42 355.27,-22.71 362.38,-30.57 365.73,-24.42"/>
</g>
</g>
</svg>
