<?xml version="1.0" encoding="UTF-8" standalone="no"?>
<!DOCTYPE svg PUBLIC "-//W3C//DTD SVG 1.1//EN"
 "http://www.w3.org/Graphics/SVG/1.1/DTD/svg11.dtd">
<!-- Generated by graphviz version 12.1.1 (20240910.0053)
 -->
<!-- Pages: 1 -->
<svg width="815pt" height="247pt"
 viewBox="0.00 0.00 815.32 246.93" xmlns="http://www.w3.org/2000/svg" xmlns:xlink="http://www.w3.org/1999/xlink">
<g id="graph0" class="graph" transform="scale(1 1) rotate(0) translate(4 242.93)">
<polygon fill="white" stroke="none" points="-4,4 -4,-242.93 811.32,-242.93 811.32,4 -4,4"/>
<!-- &#45;1 -->
<g id="node1" class="node">
<title>&#45;1</title>
<polygon fill="lightgray" stroke="black" points="359.07,-172.82 335.57,-172.82 335.57,-154.32 359.07,-154.32 359.07,-172.82"/>
<text text-anchor="middle" x="347.32" y="-160.27" font-family="Times,serif" font-size="9.00">&#45;1</text>
</g>
<!-- 122 -->
<g id="node28" class="node">
<title>122</title>
<ellipse fill="white" stroke="black" cx="318.32" cy="-85.85" rx="20.86" ry="20.86"/>
<text text-anchor="middle" x="318.32" y="-82.55" font-family="Times,serif" font-size="9.00">122</text>
</g>
<!-- &#45;1&#45;&gt;122 -->
<g id="edge17" class="edge">
<title>&#45;1&#45;&gt;122</title>
<path fill="none" stroke="green" stroke-width="0.37" d="M343.99,-153.88C340.4,-144.51 334.49,-129.07 329.24,-115.37"/>
<polygon fill="green" stroke="green" stroke-width="0.37" points="332.62,-114.43 325.78,-106.34 326.09,-116.93 332.62,-114.43"/>
</g>
<!-- 124 -->
<g id="node30" class="node">
<title>124</title>
<ellipse fill="white" stroke="black" cx="405.32" cy="-85.85" rx="20.86" ry="20.86"/>
<text text-anchor="middle" x="405.32" y="-82.55" font-family="Times,serif" font-size="9.00">124</text>
</g>
<!-- &#45;1&#45;&gt;124 -->
<g id="edge30" class="edge">
<title>&#45;1&#45;&gt;124</title>
<path fill="none" stroke="green" stroke-width="0.45" stroke-dasharray="1,5" d="M353.97,-153.88C361.88,-143.56 375.42,-125.88 386.61,-111.28"/>
<polygon fill="green" stroke="green" stroke-width="0.45" points="389.15,-113.71 392.45,-103.65 383.59,-109.46 389.15,-113.71"/>
</g>
<!-- &#45;2 -->
<g id="node2" class="node">
<title>&#45;2</title>
<polygon fill="lightgray" stroke="black" points="191.07,-172.82 167.57,-172.82 167.57,-154.32 191.07,-154.32 191.07,-172.82"/>
<text text-anchor="middle" x="179.32" y="-160.27" font-family="Times,serif" font-size="9.00">&#45;2</text>
</g>
<!-- 121 -->
<g id="node27" class="node">
<title>121</title>
<ellipse fill="white" stroke="black" cx="189.32" cy="-85.85" rx="20.86" ry="20.86"/>
<text text-anchor="middle" x="189.32" y="-82.55" font-family="Times,serif" font-size="9.00">121</text>
</g>
<!-- &#45;2&#45;&gt;121 -->
<g id="edge27" class="edge">
<title>&#45;2&#45;&gt;121</title>
<path fill="none" stroke="red" stroke-width="0.16" stroke-dasharray="1,5" d="M180.46,-153.88C181.67,-144.78 183.62,-129.98 185.39,-116.59"/>
<polygon fill="red" stroke="red" stroke-width="0.16" points="188.82,-117.36 186.66,-106.99 181.88,-116.45 188.82,-117.36"/>
</g>
<!-- &#45;2&#45;&gt;122 -->
<g id="edge41" class="edge">
<title>&#45;2&#45;&gt;122</title>
<path fill="none" stroke="green" stroke-width="0.33" d="M186.98,-154.2C190.75,-150.38 195.51,-146 200.32,-142.71 228.6,-123.37 264.63,-107.39 289.39,-97.55"/>
<polygon fill="green" stroke="green" stroke-width="0.33" points="290.41,-100.91 298.46,-94.02 287.88,-94.38 290.41,-100.91"/>
</g>
<!-- &#45;2&#45;&gt;124 -->
<g id="edge38" class="edge">
<title>&#45;2&#45;&gt;124</title>
<path fill="none" stroke="red" stroke-width="0.41" stroke-dasharray="1,5" d="M186.32,-154.15C190.08,-150.13 195.03,-145.59 200.32,-142.71 259.79,-110.37 283.39,-125.87 348.32,-106.71 357.35,-104.05 367.06,-100.81 375.86,-97.72"/>
<polygon fill="red" stroke="red" stroke-width="0.41" points="376.85,-101.08 385.09,-94.43 374.5,-94.49 376.85,-101.08"/>
</g>
<!-- &#45;3 -->
<g id="node3" class="node">
<title>&#45;3</title>
<polygon fill="lightgray" stroke="black" points="233.07,-172.82 209.57,-172.82 209.57,-154.32 233.07,-154.32 233.07,-172.82"/>
<text text-anchor="middle" x="221.32" y="-160.27" font-family="Times,serif" font-size="9.00">&#45;3</text>
</g>
<!-- &#45;3&#45;&gt;121 -->
<g id="edge42" class="edge">
<title>&#45;3&#45;&gt;121</title>
<path fill="none" stroke="green" stroke-width="0.43" stroke-dasharray="1,5" d="M217.65,-153.88C213.66,-144.44 207.07,-128.86 201.25,-115.1"/>
<polygon fill="green" stroke="green" stroke-width="0.43" points="204.57,-113.96 197.45,-106.11 198.12,-116.68 204.57,-113.96"/>
</g>
<!-- &#45;3&#45;&gt;122 -->
<g id="edge25" class="edge">
<title>&#45;3&#45;&gt;122</title>
<path fill="none" stroke="red" stroke-width="0.17" d="M229.68,-154.21C233.44,-150.56 238,-146.31 242.32,-142.71 258.6,-129.11 277.87,-114.97 292.93,-104.32"/>
<polygon fill="red" stroke="red" stroke-width="0.17" points="294.87,-107.23 301.05,-98.62 290.85,-101.5 294.87,-107.23"/>
</g>
<!-- 123 -->
<g id="node29" class="node">
<title>123</title>
<ellipse fill="white" stroke="black" cx="574.32" cy="-85.85" rx="20.86" ry="20.86"/>
<text text-anchor="middle" x="574.32" y="-82.55" font-family="Times,serif" font-size="9.00">123</text>
</g>
<!-- &#45;3&#45;&gt;123 -->
<g id="edge13" class="edge">
<title>&#45;3&#45;&gt;123</title>
<path fill="none" stroke="green" stroke-width="0.19" d="M228.2,-153.91C231.93,-149.83 236.88,-145.31 242.32,-142.71 350.36,-91.09 392.34,-132.29 509.32,-106.71 521.14,-104.12 533.93,-100.42 545.01,-96.91"/>
<polygon fill="green" stroke="green" stroke-width="0.19" points="545.93,-100.29 554.36,-93.87 543.76,-93.64 545.93,-100.29"/>
</g>
<!-- &#45;4 -->
<g id="node4" class="node">
<title>&#45;4</title>
<polygon fill="lightgray" stroke="black" points="46.07,-238.93 22.57,-238.93 22.57,-220.43 46.07,-220.43 46.07,-238.93"/>
<text text-anchor="middle" x="34.32" y="-226.38" font-family="Times,serif" font-size="9.00">&#45;4</text>
</g>
<!-- 453 -->
<g id="node26" class="node">
<title>453</title>
<ellipse fill="white" stroke="black" cx="82.32" cy="-163.57" rx="20.86" ry="20.86"/>
<text text-anchor="middle" x="82.32" y="-160.27" font-family="Times,serif" font-size="9.00">453</text>
</g>
<!-- &#45;4&#45;&gt;453 -->
<g id="edge47" class="edge">
<title>&#45;4&#45;&gt;453</title>
<path fill="none" stroke="green" stroke-width="0.45" stroke-dasharray="1,5" d="M40.79,-220.03C46.69,-212.16 55.68,-200.14 63.8,-189.3"/>
<polygon fill="green" stroke="green" stroke-width="0.45" points="66.44,-191.61 69.63,-181.51 60.84,-187.42 66.44,-191.61"/>
</g>
<!-- &#45;4&#45;&gt;121 -->
<g id="edge39" class="edge">
<title>&#45;4&#45;&gt;121</title>
<path fill="none" stroke="green" stroke-width="0.51" d="M27,-220.3C13.62,-203.94 -11.8,-167.19 6.32,-142.71 41.24,-95.53 115.15,-86.87 157.58,-86.03"/>
<polygon fill="green" stroke="green" stroke-width="0.51" points="157.39,-89.53 167.37,-85.97 157.35,-82.53 157.39,-89.53"/>
</g>
<!-- &#45;5 -->
<g id="node5" class="node">
<title>&#45;5</title>
<polygon fill="lightgray" stroke="black" points="715.07,-172.82 691.57,-172.82 691.57,-154.32 715.07,-154.32 715.07,-172.82"/>
<text text-anchor="middle" x="703.32" y="-160.27" font-family="Times,serif" font-size="9.00">&#45;5</text>
</g>
<!-- &#45;5&#45;&gt;123 -->
<g id="edge45" class="edge">
<title>&#45;5&#45;&gt;123</title>
<path fill="none" stroke="red" stroke-width="0.4" d="M695.21,-153.88C691.49,-150.17 686.9,-145.96 682.32,-142.71 657.24,-124.91 625.73,-109.28 603.23,-99.11"/>
<polygon fill="red" stroke="red" stroke-width="0.4" points="604.69,-95.93 594.13,-95.08 601.86,-102.33 604.69,-95.93"/>
</g>
<!-- &#45;6 -->
<g id="node6" class="node">
<title>&#45;6</title>
<polygon fill="lightgray" stroke="black" points="317.07,-172.82 293.57,-172.82 293.57,-154.32 317.07,-154.32 317.07,-172.82"/>
<text text-anchor="middle" x="305.32" y="-160.27" font-family="Times,serif" font-size="9.00">&#45;6</text>
</g>
<!-- &#45;6&#45;&gt;122 -->
<g id="edge37" class="edge">
<title>&#45;6&#45;&gt;122</title>
<path fill="none" stroke="green" stroke-width="0.23" d="M306.81,-153.88C308.37,-144.78 310.91,-129.98 313.21,-116.59"/>
<polygon fill="green" stroke="green" stroke-width="0.23" points="316.6,-117.53 314.84,-107.09 309.7,-116.35 316.6,-117.53"/>
</g>
<!-- &#45;7 -->
<g id="node7" class="node">
<title>&#45;7</title>
<polygon fill="lightgray" stroke="black" points="275.07,-172.82 251.57,-172.82 251.57,-154.32 275.07,-154.32 275.07,-172.82"/>
<text text-anchor="middle" x="263.32" y="-160.27" font-family="Times,serif" font-size="9.00">&#45;7</text>
</g>
<!-- &#45;7&#45;&gt;121 -->
<g id="edge20" class="edge">
<title>&#45;7&#45;&gt;121</title>
<path fill="none" stroke="green" stroke-width="0.16" d="M254.83,-153.88C244.06,-142.87 225.12,-123.49 210.37,-108.39"/>
<polygon fill="green" stroke="green" stroke-width="0.16" points="213.18,-106.26 203.69,-101.56 208.17,-111.15 213.18,-106.26"/>
</g>
<!-- &#45;7&#45;&gt;122 -->
<g id="edge49" class="edge">
<title>&#45;7&#45;&gt;122</title>
<path fill="none" stroke="red" stroke-width="0.25" d="M269.63,-153.88C277.08,-143.62 289.8,-126.11 300.37,-111.55"/>
<polygon fill="red" stroke="red" stroke-width="0.25" points="303.02,-113.86 306.07,-103.71 297.36,-109.75 303.02,-113.86"/>
</g>
<!-- &#45;7&#45;&gt;123 -->
<g id="edge2" class="edge">
<title>&#45;7&#45;&gt;123</title>
<path fill="none" stroke="green" stroke-width="0.19" d="M270.23,-153.97C273.96,-149.9 278.92,-145.37 284.32,-142.71 375.15,-97.93 410.66,-129.56 509.32,-106.71 521.11,-103.98 533.89,-100.25 544.97,-96.76"/>
<polygon fill="green" stroke="green" stroke-width="0.19" points="545.88,-100.14 554.32,-93.74 543.73,-93.48 545.88,-100.14"/>
</g>
<!-- &#45;8 -->
<g id="node8" class="node">
<title>&#45;8</title>
<polygon fill="lightgray" stroke="black" points="447.07,-172.82 423.57,-172.82 423.57,-154.32 447.07,-154.32 447.07,-172.82"/>
<text text-anchor="middle" x="435.32" y="-160.27" font-family="Times,serif" font-size="9.00">&#45;8</text>
</g>
<!-- &#45;8&#45;&gt;121 -->
<g id="edge7" class="edge">
<title>&#45;8&#45;&gt;121</title>
<path fill="none" stroke="red" stroke-width="0.14" stroke-dasharray="1,5" d="M428.31,-154.16C424.54,-150.14 419.6,-145.6 414.32,-142.71 397.2,-133.35 276.89,-106.11 219.56,-93.46"/>
<polygon fill="red" stroke="red" stroke-width="0.14" points="220.35,-90.05 209.83,-91.32 218.85,-96.89 220.35,-90.05"/>
</g>
<!-- &#45;8&#45;&gt;123 -->
<g id="edge15" class="edge">
<title>&#45;8&#45;&gt;123</title>
<path fill="none" stroke="green" stroke-width="0.23" stroke-dasharray="1,5" d="M442.98,-154.2C446.75,-150.38 451.51,-146 456.32,-142.71 484.6,-123.37 520.63,-107.39 545.39,-97.55"/>
<polygon fill="green" stroke="green" stroke-width="0.23" points="546.56,-100.85 554.61,-93.97 544.02,-94.33 546.56,-100.85"/>
</g>
<!-- &#45;8&#45;&gt;124 -->
<g id="edge29" class="edge">
<title>&#45;8&#45;&gt;124</title>
<path fill="none" stroke="green" stroke-width="0.29" stroke-dasharray="1,5" d="M431.87,-153.88C428.16,-144.51 422.04,-129.07 416.62,-115.37"/>
<polygon fill="green" stroke="green" stroke-width="0.29" points="419.93,-114.24 412.99,-106.23 413.42,-116.82 419.93,-114.24"/>
</g>
<!-- &#45;9 -->
<g id="node9" class="node">
<title>&#45;9</title>
<polygon fill="lightgray" stroke="black" points="535.07,-172.82 511.57,-172.82 511.57,-154.32 535.07,-154.32 535.07,-172.82"/>
<text text-anchor="middle" x="523.32" y="-160.27" font-family="Times,serif" font-size="9.00">&#45;9</text>
</g>
<!-- &#45;9&#45;&gt;124 -->
<g id="edge40" class="edge">
<title>&#45;9&#45;&gt;124</title>
<path fill="none" stroke="green" stroke-width="0.24" stroke-dasharray="1,5" d="M515.14,-153.97C511.41,-150.29 506.82,-146.07 502.32,-142.71 480.35,-126.35 453.17,-111.08 433.17,-100.65"/>
<polygon fill="green" stroke="green" stroke-width="0.24" points="434.81,-97.55 424.31,-96.1 431.61,-103.78 434.81,-97.55"/>
</g>
<!-- &#45;10 -->
<g id="node10" class="node">
<title>&#45;10</title>
<polygon fill="lightgray" stroke="black" points="493.32,-172.82 465.32,-172.82 465.32,-154.32 493.32,-154.32 493.32,-172.82"/>
<text text-anchor="middle" x="479.32" y="-160.27" font-family="Times,serif" font-size="9.00">&#45;10</text>
</g>
<!-- &#45;10&#45;&gt;121 -->
<g id="edge18" class="edge">
<title>&#45;10&#45;&gt;121</title>
<path fill="none" stroke="green" stroke-width="0.26" stroke-dasharray="1,5" d="M471.54,-154.09C467.4,-150.06 461.99,-145.52 456.32,-142.71 450.97,-140.06 288.38,-106.93 219.59,-92.98"/>
<polygon fill="green" stroke="green" stroke-width="0.26" points="220.64,-89.62 210.15,-91.06 219.25,-96.48 220.64,-89.62"/>
</g>
<!-- &#45;10&#45;&gt;122 -->
<g id="edge5" class="edge">
<title>&#45;10&#45;&gt;122</title>
<path fill="none" stroke="green" stroke-width="0.44" stroke-dasharray="1,5" d="M470.89,-154.11C466.75,-150.28 461.54,-145.9 456.32,-142.71 437.45,-131.18 382.15,-110.11 347.55,-97.4"/>
<polygon fill="green" stroke="green" stroke-width="0.44" points="349.18,-94.27 338.59,-94.13 346.78,-100.85 349.18,-94.27"/>
</g>
<!-- &#45;10&#45;&gt;123 -->
<g id="edge26" class="edge">
<title>&#45;10&#45;&gt;123</title>
<path fill="none" stroke="red" stroke-width="0.16" d="M489.07,-153.95C493.12,-150.42 497.91,-146.32 502.32,-142.71 517.97,-129.89 535.96,-115.94 550.03,-105.19"/>
<polygon fill="red" stroke="red" stroke-width="0.16" points="551.79,-108.24 557.63,-99.4 547.55,-102.67 551.79,-108.24"/>
</g>
<!-- &#45;10&#45;&gt;124 -->
<g id="edge4" class="edge">
<title>&#45;10&#45;&gt;124</title>
<path fill="none" stroke="green" stroke-width="0.83" d="M470.83,-153.88C460.26,-143.07 441.81,-124.19 427.18,-109.22"/>
<polygon fill="green" stroke="green" stroke-width="0.83" points="429.89,-106.98 420.39,-102.28 424.88,-111.88 429.89,-106.98"/>
</g>
<!-- 319 -->
<g id="node31" class="node">
<title>319</title>
<ellipse fill="white" stroke="black" cx="479.32" cy="-85.85" rx="20.86" ry="20.86"/>
<text text-anchor="middle" x="479.32" y="-82.55" font-family="Times,serif" font-size="9.00">319</text>
</g>
<!-- &#45;10&#45;&gt;319 -->
<g id="edge44" class="edge">
<title>&#45;10&#45;&gt;319</title>
<path fill="none" stroke="green" stroke-width="0.29" stroke-dasharray="1,5" d="M479.32,-153.88C479.32,-144.93 479.32,-130.46 479.32,-117.26"/>
<polygon fill="green" stroke="green" stroke-width="0.29" points="482.82,-117.5 479.32,-107.5 475.82,-117.5 482.82,-117.5"/>
</g>
<!-- &#45;11 -->
<g id="node11" class="node">
<title>&#45;11</title>
<polygon fill="lightgray" stroke="black" points="43.32,-172.82 15.32,-172.82 15.32,-154.32 43.32,-154.32 43.32,-172.82"/>
<text text-anchor="middle" x="29.32" y="-160.27" font-family="Times,serif" font-size="9.00">&#45;11</text>
</g>
<!-- 4 -->
<g id="node25" class="node">
<title>4</title>
<ellipse fill="lightblue" stroke="black" cx="246.32" cy="-14.5" rx="14.5" ry="14.5"/>
<text text-anchor="middle" x="246.32" y="-11.2" font-family="Times,serif" font-size="9.00">4</text>
</g>
<!-- &#45;11&#45;&gt;4 -->
<g id="edge43" class="edge">
<title>&#45;11&#45;&gt;4</title>
<path fill="none" stroke="red" stroke-width="0.19" d="M39.01,-153.88C43.06,-150.34 47.85,-146.25 52.32,-142.71 98.38,-106.2 109.92,-96.84 159.32,-64.99 181,-51.01 206.8,-36.59 224.65,-26.95"/>
<polygon fill="red" stroke="red" stroke-width="0.19" points="226.26,-30.06 233.42,-22.25 222.95,-23.89 226.26,-30.06"/>
</g>
<!-- &#45;11&#45;&gt;121 -->
<g id="edge9" class="edge">
<title>&#45;11&#45;&gt;121</title>
<path fill="none" stroke="green" stroke-width="0.23" stroke-dasharray="1,5" d="M37.75,-154.12C41.89,-150.29 47.1,-145.91 52.32,-142.71 86.84,-121.56 130.8,-105.27 159.47,-95.88"/>
<polygon fill="green" stroke="green" stroke-width="0.23" points="160.51,-99.23 168.97,-92.85 158.37,-92.56 160.51,-99.23"/>
</g>
<!-- &#45;11&#45;&gt;122 -->
<g id="edge8" class="edge">
<title>&#45;11&#45;&gt;122</title>
<path fill="none" stroke="red" stroke-width="0.13" stroke-dasharray="1,5" d="M37.09,-154.09C41.23,-150.06 46.64,-145.52 52.32,-142.71 57.65,-140.07 219.62,-106.93 288.16,-92.98"/>
<polygon fill="red" stroke="red" stroke-width="0.13" points="288.65,-96.45 297.75,-91.03 287.25,-89.59 288.65,-96.45"/>
</g>
<!-- &#45;12 -->
<g id="node12" class="node">
<title>&#45;12</title>
<polygon fill="lightgray" stroke="black" points="673.32,-172.82 645.32,-172.82 645.32,-154.32 673.32,-154.32 673.32,-172.82"/>
<text text-anchor="middle" x="659.32" y="-160.27" font-family="Times,serif" font-size="9.00">&#45;12</text>
</g>
<!-- 3 -->
<g id="node24" class="node">
<title>3</title>
<ellipse fill="lightblue" stroke="black" cx="588.32" cy="-14.5" rx="14.5" ry="14.5"/>
<text text-anchor="middle" x="588.32" y="-11.2" font-family="Times,serif" font-size="9.00">3</text>
</g>
<!-- &#45;12&#45;&gt;3 -->
<g id="edge46" class="edge">
<title>&#45;12&#45;&gt;3</title>
<path fill="none" stroke="green" stroke-width="0.61" d="M655.3,-154.24C644.6,-132.09 615.18,-71.14 599.12,-37.88"/>
<polygon fill="green" stroke="green" stroke-width="0.61" points="602.32,-36.45 594.82,-28.96 596.01,-39.49 602.32,-36.45"/>
</g>
<!-- &#45;12&#45;&gt;122 -->
<g id="edge12" class="edge">
<title>&#45;12&#45;&gt;122</title>
<path fill="none" stroke="red" stroke-width="0.24" stroke-dasharray="1,5" d="M651.62,-153.92C647.5,-149.85 642.08,-145.32 636.32,-142.71 529.62,-94.46 489.16,-134.11 375.32,-106.71 365.99,-104.47 356.04,-101.29 347.11,-98.13"/>
<polygon fill="red" stroke="red" stroke-width="0.24" points="348.48,-94.9 337.89,-94.75 346.07,-101.47 348.48,-94.9"/>
</g>
<!-- &#45;12&#45;&gt;123 -->
<g id="edge10" class="edge">
<title>&#45;12&#45;&gt;123</title>
<path fill="none" stroke="red" stroke-width="0.21" stroke-dasharray="1,5" d="M649.57,-153.88C636.86,-142.57 614.24,-122.42 597.11,-107.16"/>
<polygon fill="red" stroke="red" stroke-width="0.21" points="599.72,-104.79 589.92,-100.75 595.06,-110.02 599.72,-104.79"/>
</g>
<!-- &#45;13 -->
<g id="node13" class="node">
<title>&#45;13</title>
<polygon fill="lightgray" stroke="black" points="92.32,-238.93 64.32,-238.93 64.32,-220.43 92.32,-220.43 92.32,-238.93"/>
<text text-anchor="middle" x="78.32" y="-226.38" font-family="Times,serif" font-size="9.00">&#45;13</text>
</g>
<!-- &#45;14 -->
<g id="node14" class="node">
<title>&#45;14</title>
<polygon fill="lightgray" stroke="black" points="761.32,-172.82 733.32,-172.82 733.32,-154.32 761.32,-154.32 761.32,-172.82"/>
<text text-anchor="middle" x="747.32" y="-160.27" font-family="Times,serif" font-size="9.00">&#45;14</text>
</g>
<!-- &#45;14&#45;&gt;123 -->
<g id="edge16" class="edge">
<title>&#45;14&#45;&gt;123</title>
<path fill="none" stroke="red" stroke-width="0.47" stroke-dasharray="1,5" d="M738.93,-154.04C734.8,-150.2 729.58,-145.83 724.32,-142.71 685.81,-119.92 636.4,-103.7 605.04,-94.8"/>
<polygon fill="red" stroke="red" stroke-width="0.47" points="606,-91.44 595.43,-92.15 604.14,-98.19 606,-91.44"/>
</g>
<!-- &#45;15 -->
<g id="node15" class="node">
<title>&#45;15</title>
<polygon fill="lightgray" stroke="black" points="405.32,-172.82 377.32,-172.82 377.32,-154.32 405.32,-154.32 405.32,-172.82"/>
<text text-anchor="middle" x="391.32" y="-160.27" font-family="Times,serif" font-size="9.00">&#45;15</text>
</g>
<!-- &#45;15&#45;&gt;122 -->
<g id="edge14" class="edge">
<title>&#45;15&#45;&gt;122</title>
<path fill="none" stroke="green" stroke-width="0.44" d="M382.94,-153.88C372.48,-143.03 354.2,-124.07 339.75,-109.08"/>
<polygon fill="green" stroke="green" stroke-width="0.44" points="342.52,-106.91 333.05,-102.14 337.48,-111.77 342.52,-106.91"/>
</g>
<!-- &#45;15&#45;&gt;124 -->
<g id="edge11" class="edge">
<title>&#45;15&#45;&gt;124</title>
<path fill="none" stroke="green" stroke-width="0.46" stroke-dasharray="1,5" d="M392.92,-153.88C394.59,-144.87 397.29,-130.27 399.74,-116.98"/>
<polygon fill="green" stroke="green" stroke-width="0.46" points="403.13,-117.91 401.51,-107.44 396.25,-116.64 403.13,-117.91"/>
</g>
<!-- &#45;16 -->
<g id="node16" class="node">
<title>&#45;16</title>
<polygon fill="lightgray" stroke="black" points="627.32,-172.82 599.32,-172.82 599.32,-154.32 627.32,-154.32 627.32,-172.82"/>
<text text-anchor="middle" x="613.32" y="-160.27" font-family="Times,serif" font-size="9.00">&#45;16</text>
</g>
<!-- &#45;16&#45;&gt;123 -->
<g id="edge22" class="edge">
<title>&#45;16&#45;&gt;123</title>
<path fill="none" stroke="red" stroke-width="0.37" d="M608.84,-153.88C603.87,-144.23 595.58,-128.14 588.38,-114.15"/>
<polygon fill="red" stroke="red" stroke-width="0.37" points="591.56,-112.69 583.87,-105.4 585.34,-115.89 591.56,-112.69"/>
</g>
<!-- &#45;16&#45;&gt;124 -->
<g id="edge21" class="edge">
<title>&#45;16&#45;&gt;124</title>
<path fill="none" stroke="green" stroke-width="0.29" d="M605.49,-154.19C601.33,-150.19 595.93,-145.64 590.32,-142.71 532.98,-112.78 510.36,-128.1 449.32,-106.71 443.98,-104.84 438.39,-102.58 433.07,-100.25"/>
<polygon fill="green" stroke="green" stroke-width="0.29" points="434.81,-97.2 424.26,-96.27 431.93,-103.58 434.81,-97.2"/>
</g>
<!-- &#45;17 -->
<g id="node17" class="node">
<title>&#45;17</title>
<polygon fill="lightgray" stroke="black" points="149.32,-172.82 121.32,-172.82 121.32,-154.32 149.32,-154.32 149.32,-172.82"/>
<text text-anchor="middle" x="135.32" y="-160.27" font-family="Times,serif" font-size="9.00">&#45;17</text>
</g>
<!-- &#45;17&#45;&gt;121 -->
<g id="edge24" class="edge">
<title>&#45;17&#45;&gt;121</title>
<path fill="none" stroke="green" stroke-width="0.14" stroke-dasharray="1,5" d="M141.51,-153.88C148.83,-143.62 161.32,-126.11 171.7,-111.55"/>
<polygon fill="green" stroke="green" stroke-width="0.14" points="174.43,-113.75 177.39,-103.58 168.73,-109.69 174.43,-113.75"/>
</g>
<!-- &#45;17&#45;&gt;122 -->
<g id="edge32" class="edge">
<title>&#45;17&#45;&gt;122</title>
<path fill="none" stroke="green" stroke-width="0.24" d="M143.67,-154C147.8,-150.14 153.02,-145.77 158.32,-142.71 200.26,-118.46 254.45,-102.3 287.77,-93.85"/>
<polygon fill="green" stroke="green" stroke-width="0.24" points="288.59,-97.25 297.46,-91.46 286.92,-90.46 288.59,-97.25"/>
</g>
<!-- &#45;18 -->
<g id="node18" class="node">
<title>&#45;18</title>
<polygon fill="lightgray" stroke="black" points="138.32,-238.93 110.32,-238.93 110.32,-220.43 138.32,-220.43 138.32,-238.93"/>
<text text-anchor="middle" x="124.32" y="-226.38" font-family="Times,serif" font-size="9.00">&#45;18</text>
</g>
<!-- &#45;19 -->
<g id="node19" class="node">
<title>&#45;19</title>
<polygon fill="lightgray" stroke="black" points="581.32,-172.82 553.32,-172.82 553.32,-154.32 581.32,-154.32 581.32,-172.82"/>
<text text-anchor="middle" x="567.32" y="-160.27" font-family="Times,serif" font-size="9.00">&#45;19</text>
</g>
<!-- &#45;19&#45;&gt;124 -->
<g id="edge36" class="edge">
<title>&#45;19&#45;&gt;124</title>
<path fill="none" stroke="green" stroke-width="0.32" stroke-dasharray="1,5" d="M558.92,-154.06C554.79,-150.21 549.57,-145.84 544.32,-142.71 505.52,-119.6 491.02,-124.01 449.32,-106.71 444.09,-104.54 438.56,-102.14 433.25,-99.77"/>
<polygon fill="green" stroke="green" stroke-width="0.32" points="435.04,-96.74 424.49,-95.81 432.16,-103.12 435.04,-96.74"/>
</g>
<!-- &#45;20 -->
<g id="node20" class="node">
<title>&#45;20</title>
<polygon fill="lightgray" stroke="black" points="807.32,-172.82 779.32,-172.82 779.32,-154.32 807.32,-154.32 807.32,-172.82"/>
<text text-anchor="middle" x="793.32" y="-160.27" font-family="Times,serif" font-size="9.00">&#45;20</text>
</g>
<!-- &#45;20&#45;&gt;123 -->
<g id="edge6" class="edge">
<title>&#45;20&#45;&gt;123</title>
<path fill="none" stroke="green" stroke-width="0.12" stroke-dasharray="1,5" d="M785.04,-153.86C780.93,-149.97 775.7,-145.62 770.32,-142.71 716.15,-113.48 645.1,-98.18 605.12,-91.38"/>
<polygon fill="green" stroke="green" stroke-width="0.12" points="605.8,-87.94 595.36,-89.78 604.67,-94.85 605.8,-87.94"/>
</g>
<!-- 0 -->
<g id="node21" class="node">
<title>0</title>
<ellipse fill="lightblue" stroke="black" cx="318.32" cy="-14.5" rx="14.5" ry="14.5"/>
<text text-anchor="middle" x="318.32" y="-11.2" font-family="Times,serif" font-size="9.00">0</text>
</g>
<!-- 1 -->
<g id="node22" class="node">
<title>1</title>
<ellipse fill="lightblue" stroke="black" cx="476.32" cy="-14.5" rx="14.5" ry="14.5"/>
<text text-anchor="middle" x="476.32" y="-11.2" font-family="Times,serif" font-size="9.00">1</text>
</g>
<!-- 2 -->
<g id="node23" class="node">
<title>2</title>
<ellipse fill="lightblue" stroke="black" cx="189.32" cy="-14.5" rx="14.5" ry="14.5"/>
<text text-anchor="middle" x="189.32" y="-11.2" font-family="Times,serif" font-size="9.00">2</text>
</g>
<!-- 4&#45;&gt;4 -->
<g id="edge34" class="edge">
<title>4&#45;&gt;4</title>
<path fill="none" stroke="green" stroke-width="0.22" stroke-dasharray="1,5" d="M256.63,-24.94C267.13,-31.08 278.81,-27.6 278.81,-14.5 278.81,-5.49 273.29,-1.03 266.43,-1.12"/>
<polygon fill="green" stroke="green" stroke-width="0.22" points="265.52,2.26 256.95,-3.96 267.53,-4.44 265.52,2.26"/>
</g>
<!-- 453&#45;&gt;121 -->
<g id="edge48" class="edge">
<title>453&#45;&gt;121</title>
<path fill="none" stroke="red" stroke-width="0.3" d="M99.03,-150.74C116.55,-138.35 144.24,-118.75 164.35,-104.52"/>
<polygon fill="red" stroke="red" stroke-width="0.3" points="166.2,-107.5 172.34,-98.87 162.15,-101.78 166.2,-107.5"/>
</g>
<!-- 121&#45;&gt;0 -->
<g id="edge31" class="edge">
<title>121&#45;&gt;0</title>
<path fill="none" stroke="green" stroke-width="0.24" d="M207.52,-75.06C230.95,-62.47 271.58,-40.62 296.59,-27.18"/>
<polygon fill="green" stroke="green" stroke-width="0.24" points="298.18,-30.3 305.33,-22.48 294.86,-24.13 298.18,-30.3"/>
</g>
<!-- 121&#45;&gt;2 -->
<g id="edge33" class="edge">
<title>121&#45;&gt;2</title>
<path fill="none" stroke="green" stroke-width="0.27" stroke-dasharray="1,5" d="M189.32,-64.79C189.32,-56.89 189.32,-47.75 189.32,-39.5"/>
<polygon fill="green" stroke="green" stroke-width="0.27" points="192.82,-39.77 189.32,-29.77 185.82,-39.77 192.82,-39.77"/>
</g>
<!-- 122&#45;&gt;0 -->
<g id="edge23" class="edge">
<title>122&#45;&gt;0</title>
<path fill="none" stroke="green" stroke-width="0.42" d="M318.32,-64.79C318.32,-56.98 318.32,-47.96 318.32,-39.78"/>
<polygon fill="green" stroke="green" stroke-width="0.42" points="321.82,-39.99 318.32,-29.99 314.82,-39.99 321.82,-39.99"/>
</g>
<!-- 122&#45;&gt;1 -->
<g id="edge1" class="edge">
<title>122&#45;&gt;1</title>
<path fill="none" stroke="red" stroke-width="0.36" d="M337.37,-76.49C366.58,-63.67 422.28,-39.21 453.56,-25.48"/>
<polygon fill="red" stroke="red" stroke-width="0.36" points="454.9,-28.72 462.65,-21.49 452.09,-22.31 454.9,-28.72"/>
</g>
<!-- 122&#45;&gt;3 -->
<g id="edge3" class="edge">
<title>122&#45;&gt;3</title>
<path fill="none" stroke="red" stroke-width="0.21" stroke-dasharray="1,5" d="M337.93,-77.43C348.85,-73.45 362.73,-68.63 375.32,-64.99 442.82,-45.45 524.06,-28.29 563.88,-20.29"/>
<polygon fill="red" stroke="red" stroke-width="0.21" points="564.53,-23.73 573.65,-18.34 563.16,-16.86 564.53,-23.73"/>
</g>
<!-- 123&#45;&gt;1 -->
<g id="edge35" class="edge">
<title>123&#45;&gt;1</title>
<path fill="none" stroke="green" stroke-width="0.89" d="M557.69,-73.09C540.92,-61.22 514.99,-42.86 496.92,-30.08"/>
<polygon fill="green" stroke="green" stroke-width="0.89" points="499.08,-27.32 488.9,-24.4 495.04,-33.03 499.08,-27.32"/>
</g>
<!-- 124&#45;&gt;0 -->
<g id="edge28" class="edge">
<title>124&#45;&gt;0</title>
<path fill="none" stroke="green" stroke-width="0.34" d="M389.36,-72.13C374.71,-60.45 352.97,-43.12 337.41,-30.71"/>
<polygon fill="green" stroke="green" stroke-width="0.34" points="339.88,-28.21 329.88,-24.71 335.52,-33.68 339.88,-28.21"/>
</g>
<!-- 124&#45;&gt;4 -->
<g id="edge19" class="edge">
<title>124&#45;&gt;4</title>
<path fill="none" stroke="green" stroke-width="0.25" stroke-dasharray="1,5" d="M386.14,-76.49C356.62,-63.61 300.2,-39 268.81,-25.31"/>
<polygon fill="green" stroke="green" stroke-width="0.25" points="270.47,-22.21 259.9,-21.42 267.67,-28.63 270.47,-22.21"/>
</g>
</g>
</svg>
