<?xml version="1.0" encoding="UTF-8" standalone="no"?>
<!DOCTYPE svg PUBLIC "-//W3C//DTD SVG 1.1//EN"
 "http://www.w3.org/Graphics/SVG/1.1/DTD/svg11.dtd">
<!-- Generated by graphviz version 12.1.1 (20240910.0053)
 -->
<!-- Pages: 1 -->
<svg width="1089pt" height="257pt"
 viewBox="0.00 0.00 1089.36 257.42" xmlns="http://www.w3.org/2000/svg" xmlns:xlink="http://www.w3.org/1999/xlink">
<g id="graph0" class="graph" transform="scale(1 1) rotate(0) translate(4 253.42)">
<polygon fill="white" stroke="none" points="-4,4 -4,-253.42 1085.36,-253.42 1085.36,4 -4,4"/>
<!-- &#45;1 -->
<g id="node1" class="node">
<title>&#45;1</title>
<polygon fill="lightgray" stroke="black" points="146.61,-244.18 123.11,-244.18 123.11,-225.68 146.61,-225.68 146.61,-244.18"/>
<text text-anchor="middle" x="134.86" y="-231.63" font-family="Times,serif" font-size="9.00">&#45;1</text>
</g>
<!-- 279 -->
<g id="node28" class="node">
<title>279</title>
<ellipse fill="white" stroke="black" cx="156.86" cy="-163.57" rx="20.86" ry="20.86"/>
<text text-anchor="middle" x="156.86" y="-160.27" font-family="Times,serif" font-size="9.00">279</text>
</g>
<!-- &#45;1&#45;&gt;279 -->
<g id="edge46" class="edge">
<title>&#45;1&#45;&gt;279</title>
<path fill="none" stroke="green" stroke-width="0.22" d="M137.56,-225.42C140.08,-217.48 143.99,-205.15 147.63,-193.66"/>
<polygon fill="green" stroke="green" stroke-width="0.22" points="150.94,-194.82 150.62,-184.23 144.26,-192.7 150.94,-194.82"/>
</g>
<!-- 188 -->
<g id="node32" class="node">
<title>188</title>
<ellipse fill="white" stroke="black" cx="251.86" cy="-85.85" rx="20.86" ry="20.86"/>
<text text-anchor="middle" x="251.86" y="-82.55" font-family="Times,serif" font-size="9.00">188</text>
</g>
<!-- &#45;1&#45;&gt;188 -->
<g id="edge15" class="edge">
<title>&#45;1&#45;&gt;188</title>
<path fill="none" stroke="green" stroke-width="0.11" d="M130.84,-225.29C123.46,-208.03 109.99,-168.72 126.86,-142.71 147.57,-110.78 191.27,-96.94 221.11,-91.05"/>
<polygon fill="green" stroke="green" stroke-width="0.11" points="221.62,-94.51 230.85,-89.31 220.39,-87.62 221.62,-94.51"/>
</g>
<!-- &#45;2 -->
<g id="node2" class="node">
<title>&#45;2</title>
<polygon fill="lightgray" stroke="black" points="395.61,-172.82 372.11,-172.82 372.11,-154.32 395.61,-154.32 395.61,-172.82"/>
<text text-anchor="middle" x="383.86" y="-160.27" font-family="Times,serif" font-size="9.00">&#45;2</text>
</g>
<!-- 185 -->
<g id="node29" class="node">
<title>185</title>
<ellipse fill="white" stroke="black" cx="694.86" cy="-85.85" rx="20.86" ry="20.86"/>
<text text-anchor="middle" x="694.86" y="-82.55" font-family="Times,serif" font-size="9.00">185</text>
</g>
<!-- &#45;2&#45;&gt;185 -->
<g id="edge33" class="edge">
<title>&#45;2&#45;&gt;185</title>
<path fill="none" stroke="green" stroke-width="0.2" d="M395.89,-157.87C407.69,-153.42 426.28,-146.81 442.86,-142.71 539.89,-118.69 571.77,-143.11 664.86,-106.71 666.65,-106.01 668.44,-105.19 670.21,-104.3"/>
<polygon fill="green" stroke="green" stroke-width="0.2" points="671.6,-107.54 678.47,-99.47 668.07,-101.49 671.6,-107.54"/>
</g>
<!-- &#45;2&#45;&gt;188 -->
<g id="edge22" class="edge">
<title>&#45;2&#45;&gt;188</title>
<path fill="none" stroke="red" stroke-width="0.19" stroke-dasharray="1,5" d="M375.77,-153.85C372.05,-150.14 367.46,-145.94 362.86,-142.71 336.75,-124.39 303.76,-108.59 280.56,-98.52"/>
<polygon fill="red" stroke="red" stroke-width="0.19" points="282.1,-95.37 271.53,-94.68 279.36,-101.81 282.1,-95.37"/>
</g>
<!-- &#45;3 -->
<g id="node3" class="node">
<title>&#45;3</title>
<polygon fill="lightgray" stroke="black" points="609.61,-172.82 586.11,-172.82 586.11,-154.32 609.61,-154.32 609.61,-172.82"/>
<text text-anchor="middle" x="597.86" y="-160.27" font-family="Times,serif" font-size="9.00">&#45;3</text>
</g>
<!-- &#45;3&#45;&gt;185 -->
<g id="edge34" class="edge">
<title>&#45;3&#45;&gt;185</title>
<path fill="none" stroke="red" stroke-width="0.79" d="M606.22,-154.21C609.99,-150.56 614.55,-146.31 618.86,-142.71 634.99,-129.24 654.06,-115.23 669.05,-104.62"/>
<polygon fill="red" stroke="red" stroke-width="0.79" points="670.65,-107.77 676.83,-99.16 666.63,-102.04 670.65,-107.77"/>
</g>
<!-- 186 -->
<g id="node30" class="node">
<title>186</title>
<ellipse fill="white" stroke="black" cx="465.86" cy="-85.85" rx="20.86" ry="20.86"/>
<text text-anchor="middle" x="465.86" y="-82.55" font-family="Times,serif" font-size="9.00">186</text>
</g>
<!-- &#45;3&#45;&gt;186 -->
<g id="edge16" class="edge">
<title>&#45;3&#45;&gt;186</title>
<path fill="none" stroke="red" stroke-width="0.33" d="M589.77,-153.85C586.05,-150.14 581.46,-145.94 576.86,-142.71 550.86,-124.47 518.06,-108.73 494.87,-98.66"/>
<polygon fill="red" stroke="red" stroke-width="0.33" points="496.3,-95.46 485.73,-94.76 493.56,-101.9 496.3,-95.46"/>
</g>
<!-- 187 -->
<g id="node31" class="node">
<title>187</title>
<ellipse fill="white" stroke="black" cx="634.86" cy="-85.85" rx="20.86" ry="20.86"/>
<text text-anchor="middle" x="634.86" y="-82.55" font-family="Times,serif" font-size="9.00">187</text>
</g>
<!-- &#45;3&#45;&gt;187 -->
<g id="edge2" class="edge">
<title>&#45;3&#45;&gt;187</title>
<path fill="none" stroke="red" stroke-width="0.11" stroke-dasharray="1,5" d="M602.1,-153.88C606.84,-144.2 614.73,-128.04 621.58,-114.02"/>
<polygon fill="red" stroke="red" stroke-width="0.11" points="624.57,-115.88 625.82,-105.36 618.28,-112.81 624.57,-115.88"/>
</g>
<!-- &#45;4 -->
<g id="node4" class="node">
<title>&#45;4</title>
<polygon fill="lightgray" stroke="black" points="974.61,-244.18 951.11,-244.18 951.11,-225.68 974.61,-225.68 974.61,-244.18"/>
<text text-anchor="middle" x="962.86" y="-231.63" font-family="Times,serif" font-size="9.00">&#45;4</text>
</g>
<!-- 384 -->
<g id="node26" class="node">
<title>384</title>
<ellipse fill="white" stroke="black" cx="962.86" cy="-163.57" rx="20.86" ry="20.86"/>
<text text-anchor="middle" x="962.86" y="-160.27" font-family="Times,serif" font-size="9.00">384</text>
</g>
<!-- &#45;4&#45;&gt;384 -->
<g id="edge50" class="edge">
<title>&#45;4&#45;&gt;384</title>
<path fill="none" stroke="green" stroke-width="0.24" d="M962.86,-225.42C962.86,-217.8 962.86,-206.15 962.86,-195.07"/>
<polygon fill="green" stroke="green" stroke-width="0.24" points="966.36,-195.15 962.86,-185.15 959.36,-195.15 966.36,-195.15"/>
</g>
<!-- &#45;4&#45;&gt;185 -->
<g id="edge7" class="edge">
<title>&#45;4&#45;&gt;185</title>
<path fill="none" stroke="green" stroke-width="0.2" stroke-dasharray="1,5" d="M970.58,-225.3C985.36,-207.71 1014.37,-167.3 992.86,-142.71 953.3,-97.48 781.12,-127.83 724.86,-106.71 723.06,-106.04 721.26,-105.24 719.49,-104.35"/>
<polygon fill="green" stroke="green" stroke-width="0.2" points="721.62,-101.54 711.21,-99.56 718.11,-107.6 721.62,-101.54"/>
</g>
<!-- &#45;4&#45;&gt;186 -->
<g id="edge40" class="edge">
<title>&#45;4&#45;&gt;186</title>
<path fill="none" stroke="red" stroke-width="0.22" d="M950.94,-233.73C876.56,-232.38 478.25,-223.34 442.86,-184.43 425.03,-164.82 436.54,-134.03 448.8,-112.28"/>
<polygon fill="red" stroke="red" stroke-width="0.22" points="451.71,-114.24 453.85,-103.87 445.7,-110.65 451.71,-114.24"/>
</g>
<!-- &#45;5 -->
<g id="node5" class="node">
<title>&#45;5</title>
<polygon fill="lightgray" stroke="black" points="81.61,-244.18 58.11,-244.18 58.11,-225.68 81.61,-225.68 81.61,-244.18"/>
<text text-anchor="middle" x="69.86" y="-231.63" font-family="Times,serif" font-size="9.00">&#45;5</text>
</g>
<!-- 251 -->
<g id="node27" class="node">
<title>251</title>
<ellipse fill="white" stroke="black" cx="20.86" cy="-163.57" rx="20.86" ry="20.86"/>
<text text-anchor="middle" x="20.86" y="-160.27" font-family="Times,serif" font-size="9.00">251</text>
</g>
<!-- &#45;5&#45;&gt;251 -->
<g id="edge44" class="edge">
<title>&#45;5&#45;&gt;251</title>
<path fill="none" stroke="green" stroke-width="0.55" d="M63.85,-225.42C57.6,-216.57 47.51,-202.29 38.67,-189.78"/>
<polygon fill="green" stroke="green" stroke-width="0.55" points="41.64,-187.92 33.01,-181.77 35.92,-191.96 41.64,-187.92"/>
</g>
<!-- &#45;5&#45;&gt;185 -->
<g id="edge32" class="edge">
<title>&#45;5&#45;&gt;185</title>
<path fill="none" stroke="green" stroke-width="0.56" d="M81.99,-229.3C90.71,-226.2 102.84,-222.34 113.86,-220.43 156.65,-213 864.86,-215.84 894.86,-184.43 907.67,-171.02 906.53,-157.12 894.86,-142.71 846.23,-82.71 796.09,-136.55 724.86,-106.71 723.42,-106.11 721.97,-105.43 720.54,-104.71"/>
<polygon fill="green" stroke="green" stroke-width="0.56" points="722.5,-101.8 712.1,-99.79 718.98,-107.85 722.5,-101.8"/>
</g>
<!-- &#45;5&#45;&gt;188 -->
<g id="edge31" class="edge">
<title>&#45;5&#45;&gt;188</title>
<path fill="none" stroke="red" stroke-width="0.35" stroke-dasharray="1,5" d="M71.87,-225.4C76.48,-207.65 89.4,-166.42 114.86,-142.71 144.96,-114.68 191,-99.86 221.27,-92.69"/>
<polygon fill="red" stroke="red" stroke-width="0.35" points="221.75,-96.17 230.75,-90.58 220.23,-89.34 221.75,-96.17"/>
</g>
<!-- &#45;6 -->
<g id="node6" class="node">
<title>&#45;6</title>
<polygon fill="lightgray" stroke="black" points="307.61,-172.82 284.11,-172.82 284.11,-154.32 307.61,-154.32 307.61,-172.82"/>
<text text-anchor="middle" x="295.86" y="-160.27" font-family="Times,serif" font-size="9.00">&#45;6</text>
</g>
<!-- &#45;6&#45;&gt;186 -->
<g id="edge41" class="edge">
<title>&#45;6&#45;&gt;186</title>
<path fill="none" stroke="red" stroke-width="0.22" d="M303.4,-154.01C307.15,-150.16 311.92,-145.79 316.86,-142.71 354.76,-119.05 404.23,-102.99 435.54,-94.37"/>
<polygon fill="red" stroke="red" stroke-width="0.22" points="436.33,-97.78 445.09,-91.82 434.52,-91.02 436.33,-97.78"/>
</g>
<!-- &#45;6&#45;&gt;187 -->
<g id="edge12" class="edge">
<title>&#45;6&#45;&gt;187</title>
<path fill="none" stroke="red" stroke-width="0.25" stroke-dasharray="1,5" d="M302.79,-154C306.53,-149.95 311.48,-145.41 316.86,-142.71 323.32,-139.47 525.76,-105.19 604.22,-91.99"/>
<polygon fill="red" stroke="red" stroke-width="0.25" points="604.35,-95.52 613.63,-90.41 603.19,-88.62 604.35,-95.52"/>
</g>
<!-- &#45;6&#45;&gt;188 -->
<g id="edge36" class="edge">
<title>&#45;6&#45;&gt;188</title>
<path fill="none" stroke="green" stroke-width="0.45" stroke-dasharray="1,5" d="M290.81,-153.88C285.07,-144.01 275.42,-127.4 267.17,-113.19"/>
<polygon fill="green" stroke="green" stroke-width="0.45" points="270.39,-111.78 262.34,-104.89 264.34,-115.3 270.39,-111.78"/>
</g>
<!-- &#45;7 -->
<g id="node7" class="node">
<title>&#45;7</title>
<polygon fill="lightgray" stroke="black" points="1016.61,-244.18 993.11,-244.18 993.11,-225.68 1016.61,-225.68 1016.61,-244.18"/>
<text text-anchor="middle" x="1004.86" y="-231.63" font-family="Times,serif" font-size="9.00">&#45;7</text>
</g>
<!-- &#45;8 -->
<g id="node8" class="node">
<title>&#45;8</title>
<polygon fill="lightgray" stroke="black" points="567.61,-172.82 544.11,-172.82 544.11,-154.32 567.61,-154.32 567.61,-172.82"/>
<text text-anchor="middle" x="555.86" y="-160.27" font-family="Times,serif" font-size="9.00">&#45;8</text>
</g>
<!-- &#45;8&#45;&gt;186 -->
<g id="edge23" class="edge">
<title>&#45;8&#45;&gt;186</title>
<path fill="none" stroke="green" stroke-width="0.29" stroke-dasharray="1,5" d="M547.01,-153.91C543.31,-150.37 538.94,-146.28 534.86,-142.71 520.26,-129.93 503.34,-116.22 489.9,-105.57"/>
<polygon fill="green" stroke="green" stroke-width="0.29" points="492.41,-103.09 482.39,-99.65 488.08,-108.59 492.41,-103.09"/>
</g>
<!-- &#45;8&#45;&gt;187 -->
<g id="edge10" class="edge">
<title>&#45;8&#45;&gt;187</title>
<path fill="none" stroke="green" stroke-width="0.21" stroke-dasharray="1,5" d="M564.92,-153.88C576.49,-142.8 596.88,-123.25 612.67,-108.12"/>
<polygon fill="green" stroke="green" stroke-width="0.21" points="614.97,-110.77 619.77,-101.32 610.12,-105.71 614.97,-110.77"/>
</g>
<!-- &#45;9 -->
<g id="node9" class="node">
<title>&#45;9</title>
<polygon fill="lightgray" stroke="black" points="219.61,-172.82 196.11,-172.82 196.11,-154.32 219.61,-154.32 219.61,-172.82"/>
<text text-anchor="middle" x="207.86" y="-160.27" font-family="Times,serif" font-size="9.00">&#45;9</text>
</g>
<!-- &#45;9&#45;&gt;188 -->
<g id="edge18" class="edge">
<title>&#45;9&#45;&gt;188</title>
<path fill="none" stroke="green" stroke-width="0.15" stroke-dasharray="1,5" d="M212.91,-153.88C218.7,-143.91 228.48,-127.09 236.79,-112.79"/>
<polygon fill="green" stroke="green" stroke-width="0.15" points="239.61,-114.9 241.61,-104.49 233.56,-111.38 239.61,-114.9"/>
</g>
<!-- &#45;10 -->
<g id="node10" class="node">
<title>&#45;10</title>
<polygon fill="lightgray" stroke="black" points="747.86,-172.82 719.86,-172.82 719.86,-154.32 747.86,-154.32 747.86,-172.82"/>
<text text-anchor="middle" x="733.86" y="-160.27" font-family="Times,serif" font-size="9.00">&#45;10</text>
</g>
<!-- &#45;10&#45;&gt;187 -->
<g id="edge20" class="edge">
<title>&#45;10&#45;&gt;187</title>
<path fill="none" stroke="red" stroke-width="0.35" d="M724.15,-153.89C720.1,-150.35 715.31,-146.26 710.86,-142.71 694.27,-129.48 675,-115.34 660.02,-104.59"/>
<polygon fill="red" stroke="red" stroke-width="0.35" points="662.35,-101.95 652.18,-98.99 658.29,-107.65 662.35,-101.95"/>
</g>
<!-- &#45;11 -->
<g id="node11" class="node">
<title>&#45;11</title>
<polygon fill="lightgray" stroke="black" points="265.86,-172.82 237.86,-172.82 237.86,-154.32 265.86,-154.32 265.86,-172.82"/>
<text text-anchor="middle" x="251.86" y="-160.27" font-family="Times,serif" font-size="9.00">&#45;11</text>
</g>
<!-- &#45;11&#45;&gt;186 -->
<g id="edge24" class="edge">
<title>&#45;11&#45;&gt;186</title>
<path fill="none" stroke="green" stroke-width="0.27" d="M260.15,-153.87C264.26,-149.99 269.48,-145.64 274.86,-142.71 327.15,-114.26 395.57,-98.8 434.73,-91.73"/>
<polygon fill="green" stroke="green" stroke-width="0.27" points="435.3,-95.19 444.56,-90.03 434.11,-88.29 435.3,-95.19"/>
</g>
<!-- &#45;11&#45;&gt;188 -->
<g id="edge43" class="edge">
<title>&#45;11&#45;&gt;188</title>
<path fill="none" stroke="green" stroke-width="0.12" stroke-dasharray="1,5" d="M251.86,-153.88C251.86,-144.85 251.86,-130.18 251.86,-116.86"/>
<polygon fill="green" stroke="green" stroke-width="0.12" points="255.36,-117.25 251.86,-107.25 248.36,-117.25 255.36,-117.25"/>
</g>
<!-- &#45;12 -->
<g id="node12" class="node">
<title>&#45;12</title>
<polygon fill="lightgray" stroke="black" points="479.86,-172.82 451.86,-172.82 451.86,-154.32 479.86,-154.32 479.86,-172.82"/>
<text text-anchor="middle" x="465.86" y="-160.27" font-family="Times,serif" font-size="9.00">&#45;12</text>
</g>
<!-- 1 -->
<g id="node22" class="node">
<title>1</title>
<ellipse fill="lightblue" stroke="black" cx="694.86" cy="-14.5" rx="14.5" ry="14.5"/>
<text text-anchor="middle" x="694.86" y="-11.2" font-family="Times,serif" font-size="9.00">1</text>
</g>
<!-- &#45;12&#45;&gt;1 -->
<g id="edge52" class="edge">
<title>&#45;12&#45;&gt;1</title>
<path fill="none" stroke="green" stroke-width="0.11" d="M475.04,-154.19C479.17,-150.54 484.16,-146.29 488.86,-142.71 538.21,-105.09 551.84,-97.25 604.86,-64.99 627.82,-51.02 654.94,-36.34 673.37,-26.63"/>
<polygon fill="green" stroke="green" stroke-width="0.11" points="674.76,-29.86 681.99,-22.12 671.51,-23.66 674.76,-29.86"/>
</g>
<!-- &#45;12&#45;&gt;186 -->
<g id="edge13" class="edge">
<title>&#45;12&#45;&gt;186</title>
<path fill="none" stroke="green" stroke-width="0.18" d="M465.86,-153.88C465.86,-144.93 465.86,-130.46 465.86,-117.26"/>
<polygon fill="green" stroke="green" stroke-width="0.18" points="469.36,-117.34 465.86,-107.34 462.36,-117.34 469.36,-117.34"/>
</g>
<!-- &#45;12&#45;&gt;187 -->
<g id="edge37" class="edge">
<title>&#45;12&#45;&gt;187</title>
<path fill="none" stroke="green" stroke-width="0.27" d="M474.26,-154.07C478.39,-150.22 483.61,-145.85 488.86,-142.71 509.09,-130.62 569.06,-109.22 605.55,-96.71"/>
<polygon fill="green" stroke="green" stroke-width="0.27" points="606.44,-100.11 614.78,-93.57 604.18,-93.48 606.44,-100.11"/>
</g>
<!-- &#45;12&#45;&gt;188 -->
<g id="edge21" class="edge">
<title>&#45;12&#45;&gt;188</title>
<path fill="none" stroke="red" stroke-width="0.43" d="M451.49,-157.48C416.81,-145.22 327.99,-113.79 281.4,-97.3"/>
<polygon fill="red" stroke="red" stroke-width="0.43" points="282.8,-94.09 272.21,-94.05 280.47,-100.69 282.8,-94.09"/>
</g>
<!-- &#45;13 -->
<g id="node13" class="node">
<title>&#45;13</title>
<polygon fill="lightgray" stroke="black" points="793.86,-172.82 765.86,-172.82 765.86,-154.32 793.86,-154.32 793.86,-172.82"/>
<text text-anchor="middle" x="779.86" y="-160.27" font-family="Times,serif" font-size="9.00">&#45;13</text>
</g>
<!-- &#45;13&#45;&gt;187 -->
<g id="edge30" class="edge">
<title>&#45;13&#45;&gt;187</title>
<path fill="none" stroke="green" stroke-width="0.31" d="M771.45,-154.08C767.31,-150.24 762.1,-145.87 756.86,-142.71 719.26,-120.04 703.83,-126.94 664.86,-106.71 663.34,-105.92 661.79,-105.07 660.25,-104.18"/>
<polygon fill="green" stroke="green" stroke-width="0.31" points="662.36,-101.37 652.01,-99.08 658.67,-107.32 662.36,-101.37"/>
</g>
<!-- &#45;14 -->
<g id="node14" class="node">
<title>&#45;14</title>
<polygon fill="lightgray" stroke="black" points="761.86,-95.1 733.86,-95.1 733.86,-76.6 761.86,-76.6 761.86,-95.1"/>
<text text-anchor="middle" x="747.86" y="-82.55" font-family="Times,serif" font-size="9.00">&#45;14</text>
</g>
<!-- &#45;14&#45;&gt;1 -->
<g id="edge48" class="edge">
<title>&#45;14&#45;&gt;1</title>
<path fill="none" stroke="green" stroke-width="0.2" stroke-dasharray="1,5" d="M741.36,-76.35C733.39,-65.92 719.66,-47.95 709.18,-34.24"/>
<polygon fill="green" stroke="green" stroke-width="0.2" points="712.19,-32.41 703.34,-26.59 706.63,-36.66 712.19,-32.41"/>
</g>
<!-- &#45;15 -->
<g id="node15" class="node">
<title>&#45;15</title>
<polygon fill="lightgray" stroke="black" points="525.86,-172.82 497.86,-172.82 497.86,-154.32 525.86,-154.32 525.86,-172.82"/>
<text text-anchor="middle" x="511.86" y="-160.27" font-family="Times,serif" font-size="9.00">&#45;15</text>
</g>
<!-- &#45;15&#45;&gt;185 -->
<g id="edge6" class="edge">
<title>&#45;15&#45;&gt;185</title>
<path fill="none" stroke="green" stroke-width="0.64" d="M520.13,-153.84C524.24,-149.95 529.46,-145.6 534.86,-142.71 587.72,-114.43 610.3,-131.56 664.86,-106.71 666.28,-106.06 667.71,-105.35 669.13,-104.6"/>
<polygon fill="green" stroke="green" stroke-width="0.64" points="670.63,-107.78 677.43,-99.66 667.05,-101.77 670.63,-107.78"/>
</g>
<!-- &#45;15&#45;&gt;188 -->
<g id="edge49" class="edge">
<title>&#45;15&#45;&gt;188</title>
<path fill="none" stroke="green" stroke-width="0.2" d="M504.06,-154.15C499.9,-150.13 494.5,-145.59 488.86,-142.71 420.57,-107.86 330.08,-94.35 283.13,-89.44"/>
<polygon fill="green" stroke="green" stroke-width="0.2" points="283.57,-85.97 273.28,-88.47 282.88,-92.93 283.57,-85.97"/>
</g>
<!-- &#45;16 -->
<g id="node16" class="node">
<title>&#45;16</title>
<polygon fill="lightgray" stroke="black" points="839.86,-172.82 811.86,-172.82 811.86,-154.32 839.86,-154.32 839.86,-172.82"/>
<text text-anchor="middle" x="825.86" y="-160.27" font-family="Times,serif" font-size="9.00">&#45;16</text>
</g>
<!-- &#45;16&#45;&gt;185 -->
<g id="edge19" class="edge">
<title>&#45;16&#45;&gt;185</title>
<path fill="none" stroke="green" stroke-width="0.39" d="M816.93,-153.83C812.85,-150.11 807.83,-145.91 802.86,-142.71 770.76,-122.03 758.21,-125.3 724.86,-106.71 723.36,-105.87 721.84,-104.99 720.31,-104.07"/>
<polygon fill="green" stroke="green" stroke-width="0.39" points="722.54,-101.34 712.21,-98.97 718.81,-107.26 722.54,-101.34"/>
</g>
<!-- &#45;16&#45;&gt;187 -->
<g id="edge28" class="edge">
<title>&#45;16&#45;&gt;187</title>
<path fill="none" stroke="red" stroke-width="0.23" stroke-dasharray="1,5" d="M818.03,-154.2C813.87,-150.2 808.46,-145.65 802.86,-142.71 746.75,-113.23 722.74,-132.56 664.86,-106.71 663.29,-106.01 661.71,-105.23 660.15,-104.4"/>
<polygon fill="red" stroke="red" stroke-width="0.23" points="662.11,-101.49 651.73,-99.39 658.53,-107.51 662.11,-101.49"/>
</g>
<!-- &#45;17 -->
<g id="node17" class="node">
<title>&#45;17</title>
<polygon fill="lightgray" stroke="black" points="885.86,-172.82 857.86,-172.82 857.86,-154.32 885.86,-154.32 885.86,-172.82"/>
<text text-anchor="middle" x="871.86" y="-160.27" font-family="Times,serif" font-size="9.00">&#45;17</text>
</g>
<!-- &#45;17&#45;&gt;185 -->
<g id="edge39" class="edge">
<title>&#45;17&#45;&gt;185</title>
<path fill="none" stroke="red" stroke-width="0.45" d="M863.57,-153.87C859.46,-149.98 854.24,-145.63 848.86,-142.71 798.43,-115.33 776.93,-130.82 724.86,-106.71 723.44,-106.05 722.02,-105.34 720.6,-104.58"/>
<polygon fill="red" stroke="red" stroke-width="0.45" points="722.43,-101.6 712.05,-99.47 718.84,-107.61 722.43,-101.6"/>
</g>
<!-- &#45;17&#45;&gt;187 -->
<g id="edge4" class="edge">
<title>&#45;17&#45;&gt;187</title>
<path fill="none" stroke="green" stroke-width="0.11" stroke-dasharray="1,5" d="M864.1,-154.06C859.96,-150.02 854.55,-145.48 848.86,-142.71 773.93,-106.26 741.96,-138.31 664.86,-106.71 663.27,-106.06 661.68,-105.32 660.1,-104.52"/>
<polygon fill="green" stroke="green" stroke-width="0.11" points="661.89,-101.51 651.49,-99.5 658.37,-107.56 661.89,-101.51"/>
</g>
<!-- &#45;18 -->
<g id="node18" class="node">
<title>&#45;18</title>
<polygon fill="lightgray" stroke="black" points="655.86,-172.82 627.86,-172.82 627.86,-154.32 655.86,-154.32 655.86,-172.82"/>
<text text-anchor="middle" x="641.86" y="-160.27" font-family="Times,serif" font-size="9.00">&#45;18</text>
</g>
<!-- &#45;18&#45;&gt;187 -->
<g id="edge27" class="edge">
<title>&#45;18&#45;&gt;187</title>
<path fill="none" stroke="red" stroke-width="0.22" stroke-dasharray="1,5" d="M641.06,-153.88C640.23,-144.93 638.89,-130.46 637.67,-117.26"/>
<polygon fill="red" stroke="red" stroke-width="0.22" points="641.17,-117.03 636.76,-107.4 634.19,-117.68 641.17,-117.03"/>
</g>
<!-- &#45;19 -->
<g id="node19" class="node">
<title>&#45;19</title>
<polygon fill="lightgray" stroke="black" points="701.86,-172.82 673.86,-172.82 673.86,-154.32 701.86,-154.32 701.86,-172.82"/>
<text text-anchor="middle" x="687.86" y="-160.27" font-family="Times,serif" font-size="9.00">&#45;19</text>
</g>
<!-- &#45;19&#45;&gt;185 -->
<g id="edge29" class="edge">
<title>&#45;19&#45;&gt;185</title>
<path fill="none" stroke="green" stroke-width="0.35" d="M688.66,-153.88C689.49,-144.93 690.83,-130.46 692.05,-117.26"/>
<polygon fill="green" stroke="green" stroke-width="0.35" points="695.51,-117.87 692.94,-107.59 688.54,-117.23 695.51,-117.87"/>
</g>
<!-- &#45;19&#45;&gt;186 -->
<g id="edge38" class="edge">
<title>&#45;19&#45;&gt;186</title>
<path fill="none" stroke="green" stroke-width="0.42" d="M679.58,-153.85C675.48,-149.96 670.25,-145.61 664.86,-142.71 609.84,-113.16 537.65,-97.97 497.07,-91.27"/>
<polygon fill="green" stroke="green" stroke-width="0.42" points="497.8,-87.84 487.37,-89.74 496.71,-94.76 497.8,-87.84"/>
</g>
<!-- &#45;19&#45;&gt;187 -->
<g id="edge9" class="edge">
<title>&#45;19&#45;&gt;187</title>
<path fill="none" stroke="green" stroke-width="0.15" d="M681.78,-153.88C674.6,-143.62 662.34,-126.11 652.15,-111.55"/>
<polygon fill="green" stroke="green" stroke-width="0.15" points="655.18,-109.78 646.58,-103.59 649.45,-113.79 655.18,-109.78"/>
</g>
<!-- &#45;20 -->
<g id="node20" class="node">
<title>&#45;20</title>
<polygon fill="lightgray" stroke="black" points="353.86,-172.82 325.86,-172.82 325.86,-154.32 353.86,-154.32 353.86,-172.82"/>
<text text-anchor="middle" x="339.86" y="-160.27" font-family="Times,serif" font-size="9.00">&#45;20</text>
</g>
<!-- &#45;20&#45;&gt;186 -->
<g id="edge3" class="edge">
<title>&#45;20&#45;&gt;186</title>
<path fill="none" stroke="red" stroke-width="0.12" d="M348.89,-153.98C352.99,-150.29 358,-146.07 362.86,-142.71 386.95,-126.07 416.52,-110.48 437.78,-100.02"/>
<polygon fill="red" stroke="red" stroke-width="0.12" points="439.29,-103.18 446.76,-95.67 436.23,-96.88 439.29,-103.18"/>
</g>
<!-- 0 -->
<g id="node21" class="node">
<title>0</title>
<ellipse fill="lightblue" stroke="black" cx="631.86" cy="-14.5" rx="14.5" ry="14.5"/>
<text text-anchor="middle" x="631.86" y="-11.2" font-family="Times,serif" font-size="9.00">0</text>
</g>
<!-- 1&#45;&gt;1 -->
<g id="edge35" class="edge">
<title>1&#45;&gt;1</title>
<path fill="none" stroke="green" stroke-width="0.32" stroke-dasharray="1,5" d="M705.18,-24.94C715.67,-31.08 727.36,-27.6 727.36,-14.5 727.36,-5.49 721.83,-1.03 714.97,-1.12"/>
<polygon fill="green" stroke="green" stroke-width="0.32" points="714.21,2.31 705.63,-3.92 716.22,-4.4 714.21,2.31"/>
</g>
<!-- 2 -->
<g id="node23" class="node">
<title>2</title>
<ellipse fill="lightblue" stroke="black" cx="465.86" cy="-14.5" rx="14.5" ry="14.5"/>
<text text-anchor="middle" x="465.86" y="-11.2" font-family="Times,serif" font-size="9.00">2</text>
</g>
<!-- 2&#45;&gt;2 -->
<g id="edge42" class="edge">
<title>2&#45;&gt;2</title>
<path fill="none" stroke="green" stroke-width="0.5" d="M476.18,-24.94C486.67,-31.08 498.36,-27.6 498.36,-14.5 498.36,-5.69 493.08,-1.23 486.44,-1.12"/>
<polygon fill="green" stroke="green" stroke-width="0.5" points="485.55,2.27 476.9,-3.85 487.48,-4.46 485.55,2.27"/>
</g>
<!-- 3 -->
<g id="node24" class="node">
<title>3</title>
<ellipse fill="lightblue" stroke="black" cx="553.86" cy="-14.5" rx="14.5" ry="14.5"/>
<text text-anchor="middle" x="553.86" y="-11.2" font-family="Times,serif" font-size="9.00">3</text>
</g>
<!-- 4 -->
<g id="node25" class="node">
<title>4</title>
<ellipse fill="lightblue" stroke="black" cx="1048.86" cy="-234.93" rx="14.5" ry="14.5"/>
<text text-anchor="middle" x="1048.86" y="-231.63" font-family="Times,serif" font-size="9.00">4</text>
</g>
<!-- 4&#45;&gt;4 -->
<g id="edge1" class="edge">
<title>4&#45;&gt;4</title>
<path fill="none" stroke="red" stroke-width="0.35" d="M1059.18,-245.37C1069.67,-251.51 1081.36,-248.03 1081.36,-234.93 1081.36,-225.92 1075.83,-221.46 1068.97,-221.55"/>
<polygon fill="red" stroke="red" stroke-width="0.35" points="1068.25,-218.11 1059.68,-224.34 1070.26,-224.81 1068.25,-218.11"/>
</g>
<!-- 384&#45;&gt;185 -->
<g id="edge51" class="edge">
<title>384&#45;&gt;185</title>
<path fill="none" stroke="red" stroke-width="0.23" stroke-dasharray="1,5" d="M945.62,-151.24C940.13,-148.07 933.91,-144.89 927.86,-142.71 841.65,-111.65 809.95,-140.71 724.86,-106.71 723.08,-106 721.29,-105.17 719.52,-104.26"/>
<polygon fill="red" stroke="red" stroke-width="0.23" points="721.7,-101.48 711.3,-99.44 718.16,-107.52 721.7,-101.48"/>
</g>
<!-- 251&#45;&gt;188 -->
<g id="edge45" class="edge">
<title>251&#45;&gt;188</title>
<path fill="none" stroke="green" stroke-width="0.2" stroke-dasharray="1,5" d="M38.25,-151.62C43.74,-148.46 49.93,-145.2 55.86,-142.71 112.36,-119.03 182.08,-101.83 221.3,-93.18"/>
<polygon fill="green" stroke="green" stroke-width="0.2" points="221.96,-96.62 231,-91.08 220.48,-89.77 221.96,-96.62"/>
</g>
<!-- 279&#45;&gt;188 -->
<g id="edge47" class="edge">
<title>279&#45;&gt;188</title>
<path fill="none" stroke="green" stroke-width="0.57" d="M172.98,-149.73C187.85,-137.87 210.16,-120.09 227.26,-106.46"/>
<polygon fill="green" stroke="green" stroke-width="0.57" points="229.35,-109.27 234.99,-100.3 224.99,-103.79 229.35,-109.27"/>
</g>
<!-- 185&#45;&gt;0 -->
<g id="edge25" class="edge">
<title>185&#45;&gt;0</title>
<path fill="none" stroke="red" stroke-width="0.17" stroke-dasharray="1,5" d="M681.19,-69.8C671.52,-59.16 658.51,-44.84 648.28,-33.57"/>
<polygon fill="red" stroke="red" stroke-width="0.17" points="650.89,-31.24 641.58,-26.2 645.71,-35.95 650.89,-31.24"/>
</g>
<!-- 185&#45;&gt;1 -->
<g id="edge11" class="edge">
<title>185&#45;&gt;1</title>
<path fill="none" stroke="red" stroke-width="0.44" d="M694.86,-64.79C694.86,-56.98 694.86,-47.96 694.86,-39.78"/>
<polygon fill="red" stroke="red" stroke-width="0.44" points="698.36,-40.02 694.86,-30.02 691.36,-40.02 698.36,-40.02"/>
</g>
<!-- 186&#45;&gt;0 -->
<g id="edge17" class="edge">
<title>186&#45;&gt;0</title>
<path fill="none" stroke="red" stroke-width="0.26" d="M484.9,-76.9C515.77,-64 576.6,-38.58 609.48,-24.84"/>
<polygon fill="red" stroke="red" stroke-width="0.26" points="610.49,-28.22 618.37,-21.13 607.79,-21.76 610.49,-28.22"/>
</g>
<!-- 186&#45;&gt;2 -->
<g id="edge5" class="edge">
<title>186&#45;&gt;2</title>
<path fill="none" stroke="green" stroke-width="0.13" d="M465.86,-64.79C465.86,-56.89 465.86,-47.75 465.86,-39.5"/>
<polygon fill="green" stroke="green" stroke-width="0.13" points="469.36,-39.56 465.86,-29.56 462.36,-39.56 469.36,-39.56"/>
</g>
<!-- 186&#45;&gt;186 -->
<g id="edge14" class="edge">
<title>186&#45;&gt;186</title>
<path fill="none" stroke="green" stroke-width="0.56" stroke-dasharray="1,5" d="M483.04,-98.17C494.09,-101.39 504.72,-97.28 504.72,-85.85 504.72,-78.17 499.92,-73.8 493.42,-72.73"/>
<polygon fill="green" stroke="green" stroke-width="0.56" points="493.59,-69.21 483.89,-73.46 494.13,-76.19 493.59,-69.21"/>
</g>
<!-- 187&#45;&gt;3 -->
<g id="edge26" class="edge">
<title>187&#45;&gt;3</title>
<path fill="none" stroke="red" stroke-width="0.14" d="M619.24,-71.48C605.71,-59.9 586.14,-43.14 571.94,-30.98"/>
<polygon fill="red" stroke="red" stroke-width="0.14" points="574.32,-28.41 564.45,-24.56 569.77,-33.72 574.32,-28.41"/>
</g>
<!-- 188&#45;&gt;3 -->
<g id="edge8" class="edge">
<title>188&#45;&gt;3</title>
<path fill="none" stroke="green" stroke-width="0.17" d="M272.46,-80.8C315.96,-72.16 420.3,-50.88 506.86,-28.99 514.47,-27.07 522.71,-24.77 530.14,-22.63"/>
<polygon fill="green" stroke="green" stroke-width="0.17" points="531.08,-26 539.69,-19.82 529.1,-19.28 531.08,-26"/>
</g>
</g>
</svg>
