<?xml version="1.0" encoding="UTF-8" standalone="no"?>
<!DOCTYPE svg PUBLIC "-//W3C//DTD SVG 1.1//EN"
 "http://www.w3.org/Graphics/SVG/1.1/DTD/svg11.dtd">
<!-- Generated by graphviz version 12.1.1 (20240910.0053)
 -->
<!-- Pages: 1 -->
<svg width="968pt" height="241pt"
 viewBox="0.00 0.00 968.00 240.57" xmlns="http://www.w3.org/2000/svg" xmlns:xlink="http://www.w3.org/1999/xlink">
<g id="graph0" class="graph" transform="scale(1 1) rotate(0) translate(4 236.57)">
<polygon fill="white" stroke="none" points="-4,4 -4,-236.57 964,-236.57 964,4 -4,4"/>
<!-- &#45;1 -->
<g id="node1" class="node">
<title>&#45;1</title>
<polygon fill="lightgray" stroke="black" points="107.75,-166.46 84.25,-166.46 84.25,-147.96 107.75,-147.96 107.75,-166.46"/>
<text text-anchor="middle" x="96" y="-153.91" font-family="Times,serif" font-size="9.00">&#45;1</text>
</g>
<!-- 85 -->
<g id="node27" class="node">
<title>85</title>
<ellipse fill="white" stroke="black" cx="147" cy="-82.67" rx="17.68" ry="17.68"/>
<text text-anchor="middle" x="147" y="-79.37" font-family="Times,serif" font-size="9.00">85</text>
</g>
<!-- &#45;1&#45;&gt;85 -->
<g id="edge38" class="edge">
<title>&#45;1&#45;&gt;85</title>
<path fill="none" stroke="green" stroke-width="0.35" d="M102.05,-147.6C109.22,-137.41 121.43,-120.04 131.32,-105.97"/>
<polygon fill="green" stroke="green" stroke-width="0.35" points="133.92,-108.36 136.8,-98.17 128.19,-104.34 133.92,-108.36"/>
</g>
<!-- &#45;2 -->
<g id="node2" class="node">
<title>&#45;2</title>
<polygon fill="lightgray" stroke="black" points="913.75,-166.46 890.25,-166.46 890.25,-147.96 913.75,-147.96 913.75,-166.46"/>
<text text-anchor="middle" x="902" y="-153.91" font-family="Times,serif" font-size="9.00">&#45;2</text>
</g>
<!-- 86 -->
<g id="node28" class="node">
<title>86</title>
<ellipse fill="white" stroke="black" cx="704" cy="-82.67" rx="17.68" ry="17.68"/>
<text text-anchor="middle" x="704" y="-79.37" font-family="Times,serif" font-size="9.00">86</text>
</g>
<!-- &#45;2&#45;&gt;86 -->
<g id="edge4" class="edge">
<title>&#45;2&#45;&gt;86</title>
<path fill="none" stroke="red" stroke-width="0.25" stroke-dasharray="1,5" d="M894.55,-147.49C890.83,-143.61 886.04,-139.26 881,-136.35 855.34,-121.54 774.46,-100.65 731.48,-90.18"/>
<polygon fill="red" stroke="red" stroke-width="0.25" points="732.33,-86.79 721.79,-87.85 730.69,-93.59 732.33,-86.79"/>
</g>
<!-- 87 -->
<g id="node29" class="node">
<title>87</title>
<ellipse fill="white" stroke="black" cx="814" cy="-82.67" rx="17.68" ry="17.68"/>
<text text-anchor="middle" x="814" y="-79.37" font-family="Times,serif" font-size="9.00">87</text>
</g>
<!-- &#45;2&#45;&gt;87 -->
<g id="edge6" class="edge">
<title>&#45;2&#45;&gt;87</title>
<path fill="none" stroke="red" stroke-width="0.41" stroke-dasharray="1,5" d="M893.17,-147.52C889.48,-143.97 885.1,-139.89 881,-136.35 866.39,-123.74 849.27,-110.3 836,-100.16"/>
<polygon fill="red" stroke="red" stroke-width="0.41" points="838.47,-97.64 828.39,-94.38 834.24,-103.21 838.47,-97.64"/>
</g>
<!-- &#45;3 -->
<g id="node3" class="node">
<title>&#45;3</title>
<polygon fill="lightgray" stroke="black" points="603.75,-166.46 580.25,-166.46 580.25,-147.96 603.75,-147.96 603.75,-166.46"/>
<text text-anchor="middle" x="592" y="-153.91" font-family="Times,serif" font-size="9.00">&#45;3</text>
</g>
<!-- &#45;3&#45;&gt;86 -->
<g id="edge30" class="edge">
<title>&#45;3&#45;&gt;86</title>
<path fill="none" stroke="green" stroke-width="0.11" stroke-dasharray="1,5" d="M600.18,-147.62C603.91,-143.93 608.5,-139.71 613,-136.35 634.15,-120.56 660.44,-105.81 679.31,-95.95"/>
<polygon fill="green" stroke="green" stroke-width="0.11" points="680.73,-99.15 688.03,-91.47 677.54,-92.93 680.73,-99.15"/>
</g>
<!-- 88 -->
<g id="node30" class="node">
<title>88</title>
<ellipse fill="white" stroke="black" cx="418" cy="-82.67" rx="17.68" ry="17.68"/>
<text text-anchor="middle" x="418" y="-79.37" font-family="Times,serif" font-size="9.00">88</text>
</g>
<!-- &#45;3&#45;&gt;88 -->
<g id="edge18" class="edge">
<title>&#45;3&#45;&gt;88</title>
<path fill="none" stroke="red" stroke-width="0.63" d="M584.49,-147.59C580.76,-143.72 575.98,-139.36 571,-136.35 530.8,-112 477.81,-96.98 445.91,-89.49"/>
<polygon fill="red" stroke="red" stroke-width="0.63" points="447.02,-86.16 436.49,-87.37 445.48,-92.98 447.02,-86.16"/>
</g>
<!-- &#45;4 -->
<g id="node4" class="node">
<title>&#45;4</title>
<polygon fill="lightgray" stroke="black" points="158.75,-232.57 135.25,-232.57 135.25,-214.07 158.75,-214.07 158.75,-232.57"/>
<text text-anchor="middle" x="147" y="-220.02" font-family="Times,serif" font-size="9.00">&#45;4</text>
</g>
<!-- 503 -->
<g id="node26" class="node">
<title>503</title>
<ellipse fill="white" stroke="black" cx="147" cy="-157.21" rx="20.86" ry="20.86"/>
<text text-anchor="middle" x="147" y="-153.91" font-family="Times,serif" font-size="9.00">503</text>
</g>
<!-- &#45;4&#45;&gt;503 -->
<g id="edge42" class="edge">
<title>&#45;4&#45;&gt;503</title>
<path fill="none" stroke="green" stroke-width="0.37" d="M147,-213.67C147,-207.23 147,-198.03 147,-188.96"/>
<polygon fill="green" stroke="green" stroke-width="0.37" points="150.5,-189.12 147,-179.12 143.5,-189.12 150.5,-189.12"/>
</g>
<!-- &#45;4&#45;&gt;85 -->
<g id="edge27" class="edge">
<title>&#45;4&#45;&gt;85</title>
<path fill="none" stroke="green" stroke-width="0.43" stroke-dasharray="1,5" d="M134.86,-218.94C117.91,-213.49 87.82,-200.99 75,-178.07 65.95,-161.88 66.61,-152.88 75,-136.35 84.67,-117.3 104.82,-103.48 121.35,-94.79"/>
<polygon fill="green" stroke="green" stroke-width="0.43" points="122.54,-98.11 129.97,-90.56 119.45,-91.83 122.54,-98.11"/>
</g>
<!-- &#45;4&#45;&gt;88 -->
<g id="edge34" class="edge">
<title>&#45;4&#45;&gt;88</title>
<path fill="none" stroke="green" stroke-width="0.15" d="M158.92,-219.82C181.24,-214.74 230.22,-201.63 265,-178.07 285.76,-164 282.75,-151.14 303,-136.35 330.62,-116.17 367.2,-101.05 391.61,-92.3"/>
<polygon fill="green" stroke="green" stroke-width="0.15" points="392.76,-95.6 401.05,-89.01 390.46,-88.99 392.76,-95.6"/>
</g>
<!-- &#45;5 -->
<g id="node5" class="node">
<title>&#45;5</title>
<polygon fill="lightgray" stroke="black" points="515.75,-166.46 492.25,-166.46 492.25,-147.96 515.75,-147.96 515.75,-166.46"/>
<text text-anchor="middle" x="504" y="-153.91" font-family="Times,serif" font-size="9.00">&#45;5</text>
</g>
<!-- &#45;5&#45;&gt;86 -->
<g id="edge20" class="edge">
<title>&#45;5&#45;&gt;86</title>
<path fill="none" stroke="red" stroke-width="0.48" d="M511.44,-147.49C515.17,-143.6 519.95,-139.25 525,-136.35 573.99,-108.18 639.34,-93.94 676,-87.72"/>
<polygon fill="red" stroke="red" stroke-width="0.48" points="676.37,-91.21 685.69,-86.16 675.26,-84.3 676.37,-91.21"/>
</g>
<!-- &#45;5&#45;&gt;88 -->
<g id="edge5" class="edge">
<title>&#45;5&#45;&gt;88</title>
<path fill="none" stroke="red" stroke-width="0.28" d="M495.15,-147.55C491.45,-144.01 487.08,-139.92 483,-136.35 468.84,-123.94 452.35,-110.6 439.53,-100.44"/>
<polygon fill="red" stroke="red" stroke-width="0.28" points="442.04,-97.96 432.02,-94.53 437.71,-103.46 442.04,-97.96"/>
</g>
<!-- &#45;6 -->
<g id="node6" class="node">
<title>&#45;6</title>
<polygon fill="lightgray" stroke="black" points="825.75,-166.46 802.25,-166.46 802.25,-147.96 825.75,-147.96 825.75,-166.46"/>
<text text-anchor="middle" x="814" y="-153.91" font-family="Times,serif" font-size="9.00">&#45;6</text>
</g>
<!-- &#45;6&#45;&gt;86 -->
<g id="edge39" class="edge">
<title>&#45;6&#45;&gt;86</title>
<path fill="none" stroke="red" stroke-width="0.12" stroke-dasharray="1,5" d="M805.8,-147.64C802.07,-143.95 797.49,-139.73 793,-136.35 772.49,-120.88 747.11,-106.25 728.71,-96.35"/>
<polygon fill="red" stroke="red" stroke-width="0.12" points="730.41,-93.3 719.94,-91.71 727.14,-99.48 730.41,-93.3"/>
</g>
<!-- &#45;6&#45;&gt;87 -->
<g id="edge11" class="edge">
<title>&#45;6&#45;&gt;87</title>
<path fill="none" stroke="red" stroke-width="0.18" d="M814,-147.6C814,-138.54 814,-123.81 814,-110.77"/>
<polygon fill="red" stroke="red" stroke-width="0.18" points="817.5,-111.09 814,-101.09 810.5,-111.09 817.5,-111.09"/>
</g>
<!-- &#45;7 -->
<g id="node7" class="node">
<title>&#45;7</title>
<polygon fill="lightgray" stroke="black" points="255.75,-166.46 232.25,-166.46 232.25,-147.96 255.75,-147.96 255.75,-166.46"/>
<text text-anchor="middle" x="244" y="-153.91" font-family="Times,serif" font-size="9.00">&#45;7</text>
</g>
<!-- &#45;7&#45;&gt;85 -->
<g id="edge8" class="edge">
<title>&#45;7&#45;&gt;85</title>
<path fill="none" stroke="green" stroke-width="0.34" stroke-dasharray="1,5" d="M235.68,-147.79C231.93,-144.13 227.36,-139.89 223,-136.35 206.02,-122.56 185.58,-108.53 170.18,-98.41"/>
<polygon fill="green" stroke="green" stroke-width="0.34" points="172.49,-95.74 162.2,-93.23 168.68,-101.61 172.49,-95.74"/>
</g>
<!-- &#45;7&#45;&gt;88 -->
<g id="edge17" class="edge">
<title>&#45;7&#45;&gt;88</title>
<path fill="none" stroke="green" stroke-width="0.44" d="M253.63,-147.7C258.33,-143.86 264.21,-139.49 270,-136.35 309.89,-114.71 360.44,-98.94 390.95,-90.56"/>
<polygon fill="green" stroke="green" stroke-width="0.44" points="391.46,-94.05 400.21,-88.08 389.65,-87.29 391.46,-94.05"/>
</g>
<!-- &#45;8 -->
<g id="node8" class="node">
<title>&#45;8</title>
<polygon fill="lightgray" stroke="black" points="737.75,-166.46 714.25,-166.46 714.25,-147.96 737.75,-147.96 737.75,-166.46"/>
<text text-anchor="middle" x="726" y="-153.91" font-family="Times,serif" font-size="9.00">&#45;8</text>
</g>
<!-- &#45;8&#45;&gt;86 -->
<g id="edge36" class="edge">
<title>&#45;8&#45;&gt;86</title>
<path fill="none" stroke="red" stroke-width="0.21" stroke-dasharray="1,5" d="M723.39,-147.6C720.56,-138.27 715.91,-122.93 711.87,-109.61"/>
<polygon fill="red" stroke="red" stroke-width="0.21" points="715.28,-108.81 709.03,-100.26 708.58,-110.84 715.28,-108.81"/>
</g>
<!-- &#45;9 -->
<g id="node9" class="node">
<title>&#45;9</title>
<polygon fill="lightgray" stroke="black" points="473.75,-166.46 450.25,-166.46 450.25,-147.96 473.75,-147.96 473.75,-166.46"/>
<text text-anchor="middle" x="462" y="-153.91" font-family="Times,serif" font-size="9.00">&#45;9</text>
</g>
<!-- &#45;9&#45;&gt;88 -->
<g id="edge35" class="edge">
<title>&#45;9&#45;&gt;88</title>
<path fill="none" stroke="red" stroke-width="0.18" d="M456.78,-147.6C450.73,-137.63 440.51,-120.78 432.08,-106.88"/>
<polygon fill="red" stroke="red" stroke-width="0.18" points="435.18,-105.25 427,-98.51 429.2,-108.88 435.18,-105.25"/>
</g>
<!-- &#45;10 -->
<g id="node10" class="node">
<title>&#45;10</title>
<polygon fill="lightgray" stroke="black" points="340,-166.46 312,-166.46 312,-147.96 340,-147.96 340,-166.46"/>
<text text-anchor="middle" x="326" y="-153.91" font-family="Times,serif" font-size="9.00">&#45;10</text>
</g>
<!-- &#45;10&#45;&gt;88 -->
<g id="edge10" class="edge">
<title>&#45;10&#45;&gt;88</title>
<path fill="none" stroke="green" stroke-width="0.48" stroke-dasharray="1,5" d="M335.74,-147.57C339.79,-144.03 344.58,-139.94 349,-136.35 364.35,-123.88 382.1,-110.35 395.75,-100.12"/>
<polygon fill="green" stroke="green" stroke-width="0.48" points="397.56,-103.14 403.48,-94.36 393.37,-97.53 397.56,-103.14"/>
</g>
<!-- &#45;11 -->
<g id="node11" class="node">
<title>&#45;11</title>
<polygon fill="lightgray" stroke="black" points="562,-166.46 534,-166.46 534,-147.96 562,-147.96 562,-166.46"/>
<text text-anchor="middle" x="548" y="-153.91" font-family="Times,serif" font-size="9.00">&#45;11</text>
</g>
<!-- &#45;11&#45;&gt;86 -->
<g id="edge9" class="edge">
<title>&#45;11&#45;&gt;86</title>
<path fill="none" stroke="red" stroke-width="0.44" d="M556.42,-147.73C560.55,-143.89 565.77,-139.52 571,-136.35 605.13,-115.67 648.81,-100.2 676.61,-91.54"/>
<polygon fill="red" stroke="red" stroke-width="0.44" points="677.59,-94.9 686.14,-88.65 675.56,-88.2 677.59,-94.9"/>
</g>
<!-- &#45;11&#45;&gt;88 -->
<g id="edge7" class="edge">
<title>&#45;11&#45;&gt;88</title>
<path fill="none" stroke="green" stroke-width="0.16" stroke-dasharray="1,5" d="M539.03,-147.52C534.94,-143.82 529.93,-139.61 525,-136.35 498.68,-118.92 465.77,-103.57 443.44,-94"/>
<polygon fill="green" stroke="green" stroke-width="0.16" points="445.08,-90.89 434.51,-90.24 442.36,-97.34 445.08,-90.89"/>
</g>
<!-- &#45;12 -->
<g id="node12" class="node">
<title>&#45;12</title>
<polygon fill="lightgray" stroke="black" points="872,-166.46 844,-166.46 844,-147.96 872,-147.96 872,-166.46"/>
<text text-anchor="middle" x="858" y="-153.91" font-family="Times,serif" font-size="9.00">&#45;12</text>
</g>
<!-- &#45;12&#45;&gt;86 -->
<g id="edge24" class="edge">
<title>&#45;12&#45;&gt;86</title>
<path fill="none" stroke="red" stroke-width="0.26" d="M849.58,-147.74C845.44,-143.91 840.23,-139.53 835,-136.35 801.22,-115.76 757.97,-100.2 730.61,-91.5"/>
<polygon fill="red" stroke="red" stroke-width="0.26" points="731.92,-88.24 721.34,-88.63 729.85,-94.93 731.92,-88.24"/>
</g>
<!-- &#45;12&#45;&gt;87 -->
<g id="edge31" class="edge">
<title>&#45;12&#45;&gt;87</title>
<path fill="none" stroke="green" stroke-width="0.7" stroke-dasharray="1,5" d="M852.78,-147.6C846.84,-137.82 836.9,-121.42 828.57,-107.68"/>
<polygon fill="green" stroke="green" stroke-width="0.7" points="831.59,-105.92 823.41,-99.18 825.6,-109.55 831.59,-105.92"/>
</g>
<!-- &#45;13 -->
<g id="node13" class="node">
<title>&#45;13</title>
<polygon fill="lightgray" stroke="black" points="960,-166.46 932,-166.46 932,-147.96 960,-147.96 960,-166.46"/>
<text text-anchor="middle" x="946" y="-153.91" font-family="Times,serif" font-size="9.00">&#45;13</text>
</g>
<!-- &#45;13&#45;&gt;87 -->
<g id="edge26" class="edge">
<title>&#45;13&#45;&gt;87</title>
<path fill="none" stroke="red" stroke-width="0.55" d="M937.04,-147.5C932.96,-143.8 927.94,-139.59 923,-136.35 896.31,-118.81 862.91,-103.54 840.16,-94.01"/>
<polygon fill="red" stroke="red" stroke-width="0.55" points="841.57,-90.81 830.99,-90.25 838.91,-97.29 841.57,-90.81"/>
</g>
<!-- &#45;14 -->
<g id="node14" class="node">
<title>&#45;14</title>
<polygon fill="lightgray" stroke="black" points="214,-166.46 186,-166.46 186,-147.96 214,-147.96 214,-166.46"/>
<text text-anchor="middle" x="200" y="-153.91" font-family="Times,serif" font-size="9.00">&#45;14</text>
</g>
<!-- &#45;14&#45;&gt;85 -->
<g id="edge21" class="edge">
<title>&#45;14&#45;&gt;85</title>
<path fill="none" stroke="red" stroke-width="0.22" stroke-dasharray="1,5" d="M193.71,-147.6C186.22,-137.34 173.42,-119.82 163.11,-105.71"/>
<polygon fill="red" stroke="red" stroke-width="0.22" points="166,-103.74 157.27,-97.73 160.35,-107.87 166,-103.74"/>
</g>
<!-- &#45;14&#45;&gt;88 -->
<g id="edge14" class="edge">
<title>&#45;14&#45;&gt;88</title>
<path fill="none" stroke="green" stroke-width="0.19" stroke-dasharray="1,5" d="M208.26,-147.46C212.37,-143.56 217.59,-139.22 223,-136.35 278.21,-107.04 351.07,-93.01 390.24,-87.18"/>
<polygon fill="green" stroke="green" stroke-width="0.19" points="390.65,-90.66 400.06,-85.8 389.67,-83.73 390.65,-90.66"/>
</g>
<!-- &#45;15 -->
<g id="node15" class="node">
<title>&#45;15</title>
<polygon fill="lightgray" stroke="black" points="386,-166.46 358,-166.46 358,-147.96 386,-147.96 386,-166.46"/>
<text text-anchor="middle" x="372" y="-153.91" font-family="Times,serif" font-size="9.00">&#45;15</text>
</g>
<!-- &#45;15&#45;&gt;88 -->
<g id="edge19" class="edge">
<title>&#45;15&#45;&gt;88</title>
<path fill="none" stroke="red" stroke-width="0.22" d="M377.46,-147.6C383.78,-137.63 394.47,-120.78 403.28,-106.88"/>
<polygon fill="red" stroke="red" stroke-width="0.22" points="406.15,-108.89 408.55,-98.57 400.24,-105.14 406.15,-108.89"/>
</g>
<!-- &#45;16 -->
<g id="node16" class="node">
<title>&#45;16</title>
<polygon fill="lightgray" stroke="black" points="432,-166.46 404,-166.46 404,-147.96 432,-147.96 432,-166.46"/>
<text text-anchor="middle" x="418" y="-153.91" font-family="Times,serif" font-size="9.00">&#45;16</text>
</g>
<!-- &#45;16&#45;&gt;88 -->
<g id="edge1" class="edge">
<title>&#45;16&#45;&gt;88</title>
<path fill="none" stroke="green" stroke-width="0.4" stroke-dasharray="1,5" d="M418,-147.6C418,-138.63 418,-124.1 418,-111.15"/>
<polygon fill="green" stroke="green" stroke-width="0.4" points="421.5,-111.42 418,-101.42 414.5,-111.42 421.5,-111.42"/>
</g>
<!-- &#45;17 -->
<g id="node17" class="node">
<title>&#45;17</title>
<polygon fill="lightgray" stroke="black" points="784,-166.46 756,-166.46 756,-147.96 784,-147.96 784,-166.46"/>
<text text-anchor="middle" x="770" y="-153.91" font-family="Times,serif" font-size="9.00">&#45;17</text>
</g>
<!-- &#45;17&#45;&gt;86 -->
<g id="edge15" class="edge">
<title>&#45;17&#45;&gt;86</title>
<path fill="none" stroke="green" stroke-width="0.14" stroke-dasharray="1,5" d="M762.17,-147.6C752.43,-136.9 735.49,-118.28 722.4,-103.89"/>
<polygon fill="green" stroke="green" stroke-width="0.14" points="725.05,-101.61 715.73,-96.57 719.88,-106.32 725.05,-101.61"/>
</g>
<!-- &#45;18 -->
<g id="node18" class="node">
<title>&#45;18</title>
<polygon fill="lightgray" stroke="black" points="650,-166.46 622,-166.46 622,-147.96 650,-147.96 650,-166.46"/>
<text text-anchor="middle" x="636" y="-153.91" font-family="Times,serif" font-size="9.00">&#45;18</text>
</g>
<!-- 2 -->
<g id="node23" class="node">
<title>2</title>
<ellipse fill="lightblue" stroke="black" cx="704" cy="-14.5" rx="14.5" ry="14.5"/>
<text text-anchor="middle" x="704" y="-11.2" font-family="Times,serif" font-size="9.00">2</text>
</g>
<!-- &#45;18&#45;&gt;2 -->
<g id="edge41" class="edge">
<title>&#45;18&#45;&gt;2</title>
<path fill="none" stroke="green" stroke-width="0.15" d="M639.63,-147.55C646.52,-131.23 662.17,-94.85 677,-64.99 681.73,-55.46 687.31,-45.1 692.17,-36.34"/>
<polygon fill="green" stroke="green" stroke-width="0.15" points="695.14,-38.2 696.96,-27.77 689.03,-34.78 695.14,-38.2"/>
</g>
<!-- &#45;18&#45;&gt;85 -->
<g id="edge33" class="edge">
<title>&#45;18&#45;&gt;85</title>
<path fill="none" stroke="red" stroke-width="0.13" d="M628.33,-147.5C624.22,-143.41 618.8,-138.88 613,-136.35 572.73,-118.73 268.86,-93.35 174.72,-85.84"/>
<polygon fill="red" stroke="red" stroke-width="0.13" points="175.24,-82.37 164.99,-85.07 174.69,-89.35 175.24,-82.37"/>
</g>
<!-- &#45;18&#45;&gt;86 -->
<g id="edge2" class="edge">
<title>&#45;18&#45;&gt;86</title>
<path fill="none" stroke="green" stroke-width="0.52" stroke-dasharray="1,5" d="M644.07,-147.6C654.16,-136.83 671.76,-118.06 685.28,-103.64"/>
<polygon fill="green" stroke="green" stroke-width="0.52" points="687.48,-106.41 691.76,-96.72 682.37,-101.63 687.48,-106.41"/>
</g>
<!-- &#45;18&#45;&gt;87 -->
<g id="edge23" class="edge">
<title>&#45;18&#45;&gt;87</title>
<path fill="none" stroke="green" stroke-width="0.45" stroke-dasharray="1,5" d="M644.35,-147.61C648.47,-143.75 653.69,-139.39 659,-136.35 700.48,-112.6 754.35,-97.32 786.43,-89.63"/>
<polygon fill="green" stroke="green" stroke-width="0.45" points="787.2,-93.05 796.15,-87.38 785.62,-86.23 787.2,-93.05"/>
</g>
<!-- &#45;19 -->
<g id="node19" class="node">
<title>&#45;19</title>
<polygon fill="lightgray" stroke="black" points="696,-166.46 668,-166.46 668,-147.96 696,-147.96 696,-166.46"/>
<text text-anchor="middle" x="682" y="-153.91" font-family="Times,serif" font-size="9.00">&#45;19</text>
</g>
<!-- &#45;19&#45;&gt;86 -->
<g id="edge16" class="edge">
<title>&#45;19&#45;&gt;86</title>
<path fill="none" stroke="red" stroke-width="0.12" d="M684.61,-147.6C687.44,-138.27 692.09,-122.93 696.13,-109.61"/>
<polygon fill="red" stroke="red" stroke-width="0.12" points="699.46,-110.71 699.01,-100.12 692.76,-108.68 699.46,-110.71"/>
</g>
<!-- &#45;19&#45;&gt;87 -->
<g id="edge28" class="edge">
<title>&#45;19&#45;&gt;87</title>
<path fill="none" stroke="green" stroke-width="0.11" stroke-dasharray="1,5" d="M690.96,-147.5C695.04,-143.8 700.06,-139.59 705,-136.35 731.93,-118.66 765.7,-103.26 788.46,-93.76"/>
<polygon fill="green" stroke="green" stroke-width="0.11" points="789.7,-97.03 797.63,-90 787.05,-90.55 789.7,-97.03"/>
</g>
<!-- &#45;19&#45;&gt;88 -->
<g id="edge37" class="edge">
<title>&#45;19&#45;&gt;88</title>
<path fill="none" stroke="red" stroke-width="0.26" stroke-dasharray="1,5" d="M674.22,-147.74C670.07,-143.72 664.66,-139.18 659,-136.35 587.72,-100.7 492.73,-89.04 446.16,-85.33"/>
<polygon fill="red" stroke="red" stroke-width="0.26" points="446.56,-81.85 436.33,-84.62 446.05,-88.83 446.56,-81.85"/>
</g>
<!-- &#45;20 -->
<g id="node20" class="node">
<title>&#45;20</title>
<polygon fill="lightgray" stroke="black" points="28,-166.46 0,-166.46 0,-147.96 28,-147.96 28,-166.46"/>
<text text-anchor="middle" x="14" y="-153.91" font-family="Times,serif" font-size="9.00">&#45;20</text>
</g>
<!-- &#45;20&#45;&gt;85 -->
<g id="edge25" class="edge">
<title>&#45;20&#45;&gt;85</title>
<path fill="none" stroke="green" stroke-width="0.63" stroke-dasharray="1,5" d="M25.45,-147.49C30.42,-143.86 36.38,-139.72 42,-136.35 68.14,-120.64 99.57,-105.31 121.19,-95.28"/>
<polygon fill="green" stroke="green" stroke-width="0.63" points="122.46,-98.54 130.09,-91.19 119.54,-92.18 122.46,-98.54"/>
</g>
<!-- 0 -->
<g id="node21" class="node">
<title>0</title>
<ellipse fill="lightblue" stroke="black" cx="171" cy="-14.5" rx="14.5" ry="14.5"/>
<text text-anchor="middle" x="171" y="-11.2" font-family="Times,serif" font-size="9.00">0</text>
</g>
<!-- 0&#45;&gt;0 -->
<g id="edge32" class="edge">
<title>0&#45;&gt;0</title>
<path fill="none" stroke="green" stroke-width="0.12" stroke-dasharray="1,5" d="M181.65,-24.65C192.06,-30.26 203.5,-26.88 203.5,-14.5 203.5,-5.98 198.09,-1.72 191.33,-1.71"/>
<polygon fill="green" stroke="green" stroke-width="0.12" points="190.56,1.7 181.82,-4.29 192.39,-5.05 190.56,1.7"/>
</g>
<!-- 1 -->
<g id="node22" class="node">
<title>1</title>
<ellipse fill="lightblue" stroke="black" cx="442" cy="-14.5" rx="14.5" ry="14.5"/>
<text text-anchor="middle" x="442" y="-11.2" font-family="Times,serif" font-size="9.00">1</text>
</g>
<!-- 2&#45;&gt;2 -->
<g id="edge29" class="edge">
<title>2&#45;&gt;2</title>
<path fill="none" stroke="red" stroke-width="0.1" stroke-dasharray="1,5" d="M714.65,-24.65C725.06,-30.26 736.5,-26.88 736.5,-14.5 736.5,-5.98 731.09,-1.72 724.33,-1.71"/>
<polygon fill="red" stroke="red" stroke-width="0.1" points="723.54,1.7 714.8,-4.3 725.37,-5.06 723.54,1.7"/>
</g>
<!-- 3 -->
<g id="node24" class="node">
<title>3</title>
<ellipse fill="lightblue" stroke="black" cx="395" cy="-14.5" rx="14.5" ry="14.5"/>
<text text-anchor="middle" x="395" y="-11.2" font-family="Times,serif" font-size="9.00">3</text>
</g>
<!-- 4 -->
<g id="node25" class="node">
<title>4</title>
<ellipse fill="lightblue" stroke="black" cx="124" cy="-14.5" rx="14.5" ry="14.5"/>
<text text-anchor="middle" x="124" y="-11.2" font-family="Times,serif" font-size="9.00">4</text>
</g>
<!-- 503&#45;&gt;85 -->
<g id="edge43" class="edge">
<title>503&#45;&gt;85</title>
<path fill="none" stroke="red" stroke-width="0.45" stroke-dasharray="1,5" d="M147,-136C147,-128.39 147,-119.6 147,-111.42"/>
<polygon fill="red" stroke="red" stroke-width="0.45" points="150.5,-111.5 147,-101.5 143.5,-111.5 150.5,-111.5"/>
</g>
<!-- 85&#45;&gt;0 -->
<g id="edge40" class="edge">
<title>85&#45;&gt;0</title>
<path fill="none" stroke="green" stroke-width="0.12" d="M152.81,-65.65C155.79,-57.42 159.48,-47.26 162.75,-38.24"/>
<polygon fill="green" stroke="green" stroke-width="0.12" points="166.03,-39.47 166.15,-28.87 159.45,-37.08 166.03,-39.47"/>
</g>
<!-- 85&#45;&gt;4 -->
<g id="edge3" class="edge">
<title>85&#45;&gt;4</title>
<path fill="none" stroke="red" stroke-width="0.69" d="M141.43,-65.65C138.67,-57.69 135.27,-47.91 132.21,-39.11"/>
<polygon fill="red" stroke="red" stroke-width="0.69" points="135.52,-37.98 128.93,-29.68 128.91,-40.27 135.52,-37.98"/>
</g>
<!-- 86&#45;&gt;2 -->
<g id="edge22" class="edge">
<title>86&#45;&gt;2</title>
<path fill="none" stroke="red" stroke-width="0.12" d="M704,-64.63C704,-56.87 704,-47.57 704,-39.15"/>
<polygon fill="red" stroke="red" stroke-width="0.12" points="707.5,-39.33 704,-29.33 700.5,-39.33 707.5,-39.33"/>
</g>
<!-- 87&#45;&gt;2 -->
<g id="edge44" class="edge">
<title>87&#45;&gt;2</title>
<path fill="none" stroke="red" stroke-width="0.3" d="M799.16,-72.74C780.06,-61.25 746.74,-41.21 725.03,-28.14"/>
<polygon fill="red" stroke="red" stroke-width="0.3" points="727,-25.25 716.63,-23.09 723.39,-31.25 727,-25.25"/>
</g>
<!-- 88&#45;&gt;1 -->
<g id="edge13" class="edge">
<title>88&#45;&gt;1</title>
<path fill="none" stroke="red" stroke-width="0.51" d="M423.81,-65.65C426.73,-57.6 430.32,-47.7 433.54,-38.82"/>
<polygon fill="red" stroke="red" stroke-width="0.51" points="436.83,-40.02 436.95,-29.43 430.25,-37.63 436.83,-40.02"/>
</g>
<!-- 88&#45;&gt;3 -->
<g id="edge12" class="edge">
<title>88&#45;&gt;3</title>
<path fill="none" stroke="green" stroke-width="0.14" d="M412.43,-65.65C409.57,-57.42 406.04,-47.26 402.9,-38.24"/>
<polygon fill="green" stroke="green" stroke-width="0.14" points="406.25,-37.19 399.66,-28.9 399.64,-39.49 406.25,-37.19"/>
</g>
</g>
</svg>
