<?xml version="1.0" encoding="UTF-8" standalone="no"?>
<!DOCTYPE svg PUBLIC "-//W3C//DTD SVG 1.1//EN"
 "http://www.w3.org/Graphics/SVG/1.1/DTD/svg11.dtd">
<!-- Generated by graphviz version 12.1.1 (20240910.0053)
 -->
<!-- Pages: 1 -->
<svg width="880pt" height="257pt"
 viewBox="0.00 0.00 880.25 257.42" xmlns="http://www.w3.org/2000/svg" xmlns:xlink="http://www.w3.org/1999/xlink">
<g id="graph0" class="graph" transform="scale(1 1) rotate(0) translate(4 253.42)">
<polygon fill="white" stroke="none" points="-4,4 -4,-253.42 876.25,-253.42 876.25,4 -4,4"/>
<!-- &#45;1 -->
<g id="node1" class="node">
<title>&#45;1</title>
<polygon fill="lightgray" stroke="black" points="383.5,-172.82 360,-172.82 360,-154.32 383.5,-154.32 383.5,-172.82"/>
<text text-anchor="middle" x="371.75" y="-160.27" font-family="Times,serif" font-size="9.00">&#45;1</text>
</g>
<!-- 49 -->
<g id="node28" class="node">
<title>49</title>
<ellipse fill="white" stroke="black" cx="283.75" cy="-85.85" rx="17.68" ry="17.68"/>
<text text-anchor="middle" x="283.75" y="-82.55" font-family="Times,serif" font-size="9.00">49</text>
</g>
<!-- &#45;1&#45;&gt;49 -->
<g id="edge20" class="edge">
<title>&#45;1&#45;&gt;49</title>
<path fill="none" stroke="red" stroke-width="0.12" d="M362.87,-153.94C359.17,-150.41 354.8,-146.31 350.75,-142.71 335.75,-129.39 318.33,-114.89 305.01,-104.01"/>
<polygon fill="red" stroke="red" stroke-width="0.12" points="307.41,-101.45 297.45,-97.85 303,-106.88 307.41,-101.45"/>
</g>
<!-- 51 -->
<g id="node30" class="node">
<title>51</title>
<ellipse fill="white" stroke="black" cx="499.75" cy="-85.85" rx="17.68" ry="17.68"/>
<text text-anchor="middle" x="499.75" y="-82.55" font-family="Times,serif" font-size="9.00">51</text>
</g>
<!-- &#45;1&#45;&gt;51 -->
<g id="edge22" class="edge">
<title>&#45;1&#45;&gt;51</title>
<path fill="none" stroke="green" stroke-width="0.12" stroke-dasharray="1,5" d="M379.86,-153.89C383.58,-150.18 388.17,-145.97 392.75,-142.71 418.76,-124.17 451.74,-107.9 474.16,-97.78"/>
<polygon fill="green" stroke="green" stroke-width="0.12" points="475.48,-101.02 483.2,-93.77 472.64,-94.62 475.48,-101.02"/>
</g>
<!-- &#45;2 -->
<g id="node2" class="node">
<title>&#45;2</title>
<polygon fill="lightgray" stroke="black" points="425.5,-172.82 402,-172.82 402,-154.32 425.5,-154.32 425.5,-172.82"/>
<text text-anchor="middle" x="413.75" y="-160.27" font-family="Times,serif" font-size="9.00">&#45;2</text>
</g>
<!-- &#45;2&#45;&gt;49 -->
<g id="edge9" class="edge">
<title>&#45;2&#45;&gt;49</title>
<path fill="none" stroke="green" stroke-width="0.74" d="M405.65,-153.87C401.93,-150.16 397.34,-145.96 392.75,-142.71 366.37,-124.06 332.91,-107.87 310.06,-97.79"/>
<polygon fill="green" stroke="green" stroke-width="0.74" points="311.68,-94.68 301.11,-93.92 308.9,-101.1 311.68,-94.68"/>
</g>
<!-- &#45;2&#45;&gt;51 -->
<g id="edge4" class="edge">
<title>&#45;2&#45;&gt;51</title>
<path fill="none" stroke="green" stroke-width="0.3" d="M422.66,-153.97C426.36,-150.44 430.73,-146.34 434.75,-142.71 449.16,-129.72 465.76,-115.46 478.58,-104.61"/>
<polygon fill="green" stroke="green" stroke-width="0.3" points="480.66,-107.43 486.04,-98.31 476.14,-102.08 480.66,-107.43"/>
</g>
<!-- &#45;3 -->
<g id="node3" class="node">
<title>&#45;3</title>
<polygon fill="lightgray" stroke="black" points="23.5,-172.82 0,-172.82 0,-154.32 23.5,-154.32 23.5,-172.82"/>
<text text-anchor="middle" x="11.75" y="-160.27" font-family="Times,serif" font-size="9.00">&#45;3</text>
</g>
<!-- 1 -->
<g id="node22" class="node">
<title>1</title>
<ellipse fill="lightblue" stroke="black" cx="115.75" cy="-14.5" rx="14.5" ry="14.5"/>
<text text-anchor="middle" x="115.75" y="-11.2" font-family="Times,serif" font-size="9.00">1</text>
</g>
<!-- &#45;3&#45;&gt;1 -->
<g id="edge32" class="edge">
<title>&#45;3&#45;&gt;1</title>
<path fill="none" stroke="red" stroke-width="0.24" stroke-dasharray="1,5" d="M13.9,-154.01C18.72,-136.09 31.71,-93.88 53.75,-64.99 65.02,-50.22 81.62,-37.28 94.81,-28.33"/>
<polygon fill="red" stroke="red" stroke-width="0.24" points="96.52,-31.4 102.98,-23.01 92.69,-25.54 96.52,-31.4"/>
</g>
<!-- 296 -->
<g id="node27" class="node">
<title>296</title>
<ellipse fill="white" stroke="black" cx="83.75" cy="-85.85" rx="20.86" ry="20.86"/>
<text text-anchor="middle" x="83.75" y="-82.55" font-family="Times,serif" font-size="9.00">296</text>
</g>
<!-- &#45;3&#45;&gt;296 -->
<g id="edge33" class="edge">
<title>&#45;3&#45;&gt;296</title>
<path fill="none" stroke="green" stroke-width="0.18" stroke-dasharray="1,5" d="M20.01,-153.88C30.33,-143.03 48.36,-124.07 62.61,-109.08"/>
<polygon fill="green" stroke="green" stroke-width="0.18" points="65.12,-111.52 69.48,-101.86 60.05,-106.7 65.12,-111.52"/>
</g>
<!-- &#45;3&#45;&gt;51 -->
<g id="edge24" class="edge">
<title>&#45;3&#45;&gt;51</title>
<path fill="none" stroke="red" stroke-width="0.21" stroke-dasharray="1,5" d="M18.62,-153.87C22.34,-149.79 27.3,-145.27 32.75,-142.71 52.82,-133.31 374.74,-99.68 472.08,-89.68"/>
<polygon fill="red" stroke="red" stroke-width="0.21" points="472.16,-93.19 481.75,-88.68 471.44,-86.22 472.16,-93.19"/>
</g>
<!-- &#45;4 -->
<g id="node4" class="node">
<title>&#45;4</title>
<polygon fill="lightgray" stroke="black" points="690.5,-244.18 667,-244.18 667,-225.68 690.5,-225.68 690.5,-244.18"/>
<text text-anchor="middle" x="678.75" y="-231.63" font-family="Times,serif" font-size="9.00">&#45;4</text>
</g>
<!-- &#45;5 -->
<g id="node5" class="node">
<title>&#45;5</title>
<polygon fill="lightgray" stroke="black" points="467.5,-172.82 444,-172.82 444,-154.32 467.5,-154.32 467.5,-172.82"/>
<text text-anchor="middle" x="455.75" y="-160.27" font-family="Times,serif" font-size="9.00">&#45;5</text>
</g>
<!-- &#45;5&#45;&gt;49 -->
<g id="edge13" class="edge">
<title>&#45;5&#45;&gt;49</title>
<path fill="none" stroke="green" stroke-width="0.11" stroke-dasharray="1,5" d="M448.21,-154C444.47,-150.15 439.69,-145.78 434.75,-142.71 394.86,-117.93 342.29,-101.62 310.87,-93.33"/>
<polygon fill="green" stroke="green" stroke-width="0.11" points="311.79,-89.95 301.24,-90.87 310.06,-96.74 311.79,-89.95"/>
</g>
<!-- &#45;5&#45;&gt;51 -->
<g id="edge21" class="edge">
<title>&#45;5&#45;&gt;51</title>
<path fill="none" stroke="green" stroke-width="0.21" d="M460.8,-153.88C466.93,-143.33 477.52,-125.11 486.11,-110.33"/>
<polygon fill="green" stroke="green" stroke-width="0.21" points="488.98,-112.35 490.98,-101.94 482.93,-108.83 488.98,-112.35"/>
</g>
<!-- &#45;6 -->
<g id="node6" class="node">
<title>&#45;6</title>
<polygon fill="lightgray" stroke="black" points="745.5,-172.82 722,-172.82 722,-154.32 745.5,-154.32 745.5,-172.82"/>
<text text-anchor="middle" x="733.75" y="-160.27" font-family="Times,serif" font-size="9.00">&#45;6</text>
</g>
<!-- &#45;6&#45;&gt;51 -->
<g id="edge10" class="edge">
<title>&#45;6&#45;&gt;51</title>
<path fill="none" stroke="red" stroke-width="0.43" d="M726.72,-154.19C722.96,-150.18 718.01,-145.63 712.75,-142.71 652.16,-109.06 570.56,-95.05 528.1,-89.75"/>
<polygon fill="red" stroke="red" stroke-width="0.43" points="528.68,-86.29 518.34,-88.6 527.86,-93.24 528.68,-86.29"/>
</g>
<!-- &#45;7 -->
<g id="node7" class="node">
<title>&#45;7</title>
<polygon fill="lightgray" stroke="black" points="295.5,-172.82 272,-172.82 272,-154.32 295.5,-154.32 295.5,-172.82"/>
<text text-anchor="middle" x="283.75" y="-160.27" font-family="Times,serif" font-size="9.00">&#45;7</text>
</g>
<!-- &#45;7&#45;&gt;49 -->
<g id="edge12" class="edge">
<title>&#45;7&#45;&gt;49</title>
<path fill="none" stroke="green" stroke-width="0.14" d="M283.75,-153.88C283.75,-144.23 283.75,-128.14 283.75,-114.15"/>
<polygon fill="green" stroke="green" stroke-width="0.14" points="287.25,-114.21 283.75,-104.21 280.25,-114.21 287.25,-114.21"/>
</g>
<!-- &#45;8 -->
<g id="node8" class="node">
<title>&#45;8</title>
<polygon fill="lightgray" stroke="black" points="787.5,-172.82 764,-172.82 764,-154.32 787.5,-154.32 787.5,-172.82"/>
<text text-anchor="middle" x="775.75" y="-160.27" font-family="Times,serif" font-size="9.00">&#45;8</text>
</g>
<!-- &#45;8&#45;&gt;51 -->
<g id="edge5" class="edge">
<title>&#45;8&#45;&gt;51</title>
<path fill="none" stroke="green" stroke-width="0.11" stroke-dasharray="1,5" d="M768.77,-154.09C765.02,-150.07 760.07,-145.53 754.75,-142.71 679.14,-102.72 576.43,-91.33 527.66,-88.11"/>
<polygon fill="green" stroke="green" stroke-width="0.11" points="527.91,-84.62 517.72,-87.52 527.49,-91.61 527.91,-84.62"/>
</g>
<!-- &#45;9 -->
<g id="node9" class="node">
<title>&#45;9</title>
<polygon fill="lightgray" stroke="black" points="732.5,-244.18 709,-244.18 709,-225.68 732.5,-225.68 732.5,-244.18"/>
<text text-anchor="middle" x="720.75" y="-231.63" font-family="Times,serif" font-size="9.00">&#45;9</text>
</g>
<!-- &#45;10 -->
<g id="node10" class="node">
<title>&#45;10</title>
<polygon fill="lightgray" stroke="black" points="559.75,-172.82 531.75,-172.82 531.75,-154.32 559.75,-154.32 559.75,-172.82"/>
<text text-anchor="middle" x="545.75" y="-160.27" font-family="Times,serif" font-size="9.00">&#45;10</text>
</g>
<!-- &#45;10&#45;&gt;51 -->
<g id="edge16" class="edge">
<title>&#45;10&#45;&gt;51</title>
<path fill="none" stroke="green" stroke-width="0.34" stroke-dasharray="1,5" d="M540.47,-153.88C534.02,-143.27 522.86,-124.89 513.85,-110.06"/>
<polygon fill="green" stroke="green" stroke-width="0.34" points="517.02,-108.55 508.84,-101.82 511.04,-112.18 517.02,-108.55"/>
</g>
<!-- &#45;11 -->
<g id="node11" class="node">
<title>&#45;11</title>
<polygon fill="lightgray" stroke="black" points="69.75,-172.82 41.75,-172.82 41.75,-154.32 69.75,-154.32 69.75,-172.82"/>
<text text-anchor="middle" x="55.75" y="-160.27" font-family="Times,serif" font-size="9.00">&#45;11</text>
</g>
<!-- 50 -->
<g id="node29" class="node">
<title>50</title>
<ellipse fill="white" stroke="black" cx="147.75" cy="-85.85" rx="17.68" ry="17.68"/>
<text text-anchor="middle" x="147.75" y="-82.55" font-family="Times,serif" font-size="9.00">50</text>
</g>
<!-- &#45;11&#45;&gt;50 -->
<g id="edge2" class="edge">
<title>&#45;11&#45;&gt;50</title>
<path fill="none" stroke="red" stroke-width="0.25" d="M65.54,-154C69.6,-150.47 74.38,-146.37 78.75,-142.71 94.51,-129.53 112.57,-114.93 126.26,-103.96"/>
<polygon fill="red" stroke="red" stroke-width="0.25" points="128.25,-106.85 133.87,-97.87 123.87,-101.39 128.25,-106.85"/>
</g>
<!-- &#45;12 -->
<g id="node12" class="node">
<title>&#45;12</title>
<polygon fill="lightgray" stroke="black" points="513.75,-172.82 485.75,-172.82 485.75,-154.32 513.75,-154.32 513.75,-172.82"/>
<text text-anchor="middle" x="499.75" y="-160.27" font-family="Times,serif" font-size="9.00">&#45;12</text>
</g>
<!-- &#45;12&#45;&gt;49 -->
<g id="edge14" class="edge">
<title>&#45;12&#45;&gt;49</title>
<path fill="none" stroke="red" stroke-width="0.36" d="M491.46,-153.87C487.36,-149.98 482.13,-145.63 476.75,-142.71 422.24,-113.14 350.36,-97.7 311.52,-91.03"/>
<polygon fill="red" stroke="red" stroke-width="0.36" points="312.46,-87.63 302.02,-89.46 311.32,-94.54 312.46,-87.63"/>
</g>
<!-- &#45;12&#45;&gt;51 -->
<g id="edge11" class="edge">
<title>&#45;12&#45;&gt;51</title>
<path fill="none" stroke="green" stroke-width="0.58" stroke-dasharray="1,5" d="M499.75,-153.88C499.75,-144.32 499.75,-128.46 499.75,-114.56"/>
<polygon fill="green" stroke="green" stroke-width="0.58" points="503.25,-114.87 499.75,-104.87 496.25,-114.87 503.25,-114.87"/>
</g>
<!-- &#45;13 -->
<g id="node13" class="node">
<title>&#45;13</title>
<polygon fill="lightgray" stroke="black" points="341.75,-172.82 313.75,-172.82 313.75,-154.32 341.75,-154.32 341.75,-172.82"/>
<text text-anchor="middle" x="327.75" y="-160.27" font-family="Times,serif" font-size="9.00">&#45;13</text>
</g>
<!-- &#45;13&#45;&gt;50 -->
<g id="edge3" class="edge">
<title>&#45;13&#45;&gt;50</title>
<path fill="none" stroke="red" stroke-width="0.57" d="M319.38,-154.01C315.26,-150.15 310.04,-145.79 304.75,-142.71 262.7,-118.24 208.14,-101.81 175.66,-93.42"/>
<polygon fill="red" stroke="red" stroke-width="0.57" points="176.53,-90.03 165.98,-91 174.83,-96.82 176.53,-90.03"/>
</g>
<!-- &#45;13&#45;&gt;51 -->
<g id="edge25" class="edge">
<title>&#45;13&#45;&gt;51</title>
<path fill="none" stroke="green" stroke-width="0.31" stroke-dasharray="1,5" d="M336.14,-154.05C340.27,-150.2 345.49,-145.83 350.75,-142.71 390.49,-119.13 441.92,-102.52 472.79,-93.83"/>
<polygon fill="green" stroke="green" stroke-width="0.31" points="473.61,-97.23 482.34,-91.22 471.77,-90.48 473.61,-97.23"/>
</g>
<!-- &#45;14 -->
<g id="node14" class="node">
<title>&#45;14</title>
<polygon fill="lightgray" stroke="black" points="648.75,-244.18 620.75,-244.18 620.75,-225.68 648.75,-225.68 648.75,-244.18"/>
<text text-anchor="middle" x="634.75" y="-231.63" font-family="Times,serif" font-size="9.00">&#45;14</text>
</g>
<!-- 327 -->
<g id="node26" class="node">
<title>327</title>
<ellipse fill="white" stroke="black" cx="682.75" cy="-163.57" rx="20.86" ry="20.86"/>
<text text-anchor="middle" x="682.75" y="-160.27" font-family="Times,serif" font-size="9.00">327</text>
</g>
<!-- &#45;14&#45;&gt;327 -->
<g id="edge35" class="edge">
<title>&#45;14&#45;&gt;327</title>
<path fill="none" stroke="green" stroke-width="0.29" d="M640.64,-225.42C646.78,-216.55 656.71,-202.2 665.38,-189.67"/>
<polygon fill="green" stroke="green" stroke-width="0.29" points="668.06,-191.94 670.87,-181.73 662.31,-187.96 668.06,-191.94"/>
</g>
<!-- &#45;14&#45;&gt;51 -->
<g id="edge30" class="edge">
<title>&#45;14&#45;&gt;51</title>
<path fill="none" stroke="green" stroke-width="0.27" stroke-dasharray="1,5" d="M629.6,-225.31C619.28,-208.43 594.83,-170.24 568.75,-142.71 554.62,-127.79 536.49,-113.26 522.36,-102.76"/>
<polygon fill="green" stroke="green" stroke-width="0.27" points="524.63,-100.08 514.49,-97.02 520.51,-105.74 524.63,-100.08"/>
</g>
<!-- &#45;15 -->
<g id="node15" class="node">
<title>&#45;15</title>
<polygon fill="lightgray" stroke="black" points="643.75,-172.82 615.75,-172.82 615.75,-154.32 643.75,-154.32 643.75,-172.82"/>
<text text-anchor="middle" x="629.75" y="-160.27" font-family="Times,serif" font-size="9.00">&#45;15</text>
</g>
<!-- &#45;15&#45;&gt;51 -->
<g id="edge27" class="edge">
<title>&#45;15&#45;&gt;51</title>
<path fill="none" stroke="green" stroke-width="0.35" d="M618.24,-153.95C613.26,-150.34 607.31,-146.19 601.75,-142.71 576.04,-126.63 545.38,-110.19 524.44,-99.34"/>
<polygon fill="green" stroke="green" stroke-width="0.35" points="526.24,-96.34 515.74,-94.88 523.04,-102.56 526.24,-96.34"/>
</g>
<!-- &#45;16 -->
<g id="node16" class="node">
<title>&#45;16</title>
<polygon fill="lightgray" stroke="black" points="778.75,-244.18 750.75,-244.18 750.75,-225.68 778.75,-225.68 778.75,-244.18"/>
<text text-anchor="middle" x="764.75" y="-231.63" font-family="Times,serif" font-size="9.00">&#45;16</text>
</g>
<!-- &#45;17 -->
<g id="node17" class="node">
<title>&#45;17</title>
<polygon fill="lightgray" stroke="black" points="207.75,-172.82 179.75,-172.82 179.75,-154.32 207.75,-154.32 207.75,-172.82"/>
<text text-anchor="middle" x="193.75" y="-160.27" font-family="Times,serif" font-size="9.00">&#45;17</text>
</g>
<!-- &#45;17&#45;&gt;49 -->
<g id="edge7" class="edge">
<title>&#45;17&#45;&gt;49</title>
<path fill="none" stroke="red" stroke-width="0.3" d="M203.57,-154.03C207.63,-150.51 212.41,-146.4 216.75,-142.71 231.91,-129.85 249.13,-115.49 262.32,-104.56"/>
<polygon fill="red" stroke="red" stroke-width="0.3" points="264.53,-107.27 270,-98.2 260.06,-101.88 264.53,-107.27"/>
</g>
<!-- &#45;17&#45;&gt;50 -->
<g id="edge15" class="edge">
<title>&#45;17&#45;&gt;50</title>
<path fill="none" stroke="green" stroke-width="0.14" stroke-dasharray="1,5" d="M188.47,-153.88C182.02,-143.27 170.86,-124.89 161.85,-110.06"/>
<polygon fill="green" stroke="green" stroke-width="0.14" points="164.87,-108.29 156.68,-101.56 158.88,-111.92 164.87,-108.29"/>
</g>
<!-- &#45;18 -->
<g id="node18" class="node">
<title>&#45;18</title>
<polygon fill="lightgray" stroke="black" points="253.75,-172.82 225.75,-172.82 225.75,-154.32 253.75,-154.32 253.75,-172.82"/>
<text text-anchor="middle" x="239.75" y="-160.27" font-family="Times,serif" font-size="9.00">&#45;18</text>
</g>
<!-- &#45;18&#45;&gt;49 -->
<g id="edge23" class="edge">
<title>&#45;18&#45;&gt;49</title>
<path fill="none" stroke="green" stroke-width="0.95" d="M244.8,-153.88C250.81,-143.53 261.12,-125.8 269.62,-111.17"/>
<polygon fill="green" stroke="green" stroke-width="0.95" points="272.42,-113.31 274.42,-102.91 266.37,-109.8 272.42,-113.31"/>
</g>
<!-- &#45;19 -->
<g id="node19" class="node">
<title>&#45;19</title>
<polygon fill="lightgray" stroke="black" points="115.75,-172.82 87.75,-172.82 87.75,-154.32 115.75,-154.32 115.75,-172.82"/>
<text text-anchor="middle" x="101.75" y="-160.27" font-family="Times,serif" font-size="9.00">&#45;19</text>
</g>
<!-- &#45;19&#45;&gt;50 -->
<g id="edge31" class="edge">
<title>&#45;19&#45;&gt;50</title>
<path fill="none" stroke="green" stroke-width="0.21" d="M107.03,-153.88C113.48,-143.27 124.64,-124.89 133.65,-110.06"/>
<polygon fill="green" stroke="green" stroke-width="0.21" points="136.56,-112.02 138.76,-101.65 130.57,-108.38 136.56,-112.02"/>
</g>
<!-- &#45;20 -->
<g id="node20" class="node">
<title>&#45;20</title>
<polygon fill="lightgray" stroke="black" points="161.75,-172.82 133.75,-172.82 133.75,-154.32 161.75,-154.32 161.75,-172.82"/>
<text text-anchor="middle" x="147.75" y="-160.27" font-family="Times,serif" font-size="9.00">&#45;20</text>
</g>
<!-- &#45;20&#45;&gt;49 -->
<g id="edge29" class="edge">
<title>&#45;20&#45;&gt;49</title>
<path fill="none" stroke="green" stroke-width="0.31" stroke-dasharray="1,5" d="M156.72,-153.89C160.81,-150.19 165.83,-145.98 170.75,-142.71 198.99,-123.98 234.42,-107.46 258,-97.34"/>
<polygon fill="green" stroke="green" stroke-width="0.31" points="259.05,-100.7 266.9,-93.59 256.33,-94.25 259.05,-100.7"/>
</g>
<!-- &#45;20&#45;&gt;50 -->
<g id="edge17" class="edge">
<title>&#45;20&#45;&gt;50</title>
<path fill="none" stroke="red" stroke-width="0.25" d="M147.75,-153.88C147.75,-144.23 147.75,-128.14 147.75,-114.15"/>
<polygon fill="red" stroke="red" stroke-width="0.25" points="151.25,-114.37 147.75,-104.37 144.25,-114.37 151.25,-114.37"/>
</g>
<!-- 0 -->
<g id="node21" class="node">
<title>0</title>
<ellipse fill="lightblue" stroke="black" cx="810.75" cy="-234.93" rx="14.5" ry="14.5"/>
<text text-anchor="middle" x="810.75" y="-231.63" font-family="Times,serif" font-size="9.00">0</text>
</g>
<!-- 2 -->
<g id="node23" class="node">
<title>2</title>
<ellipse fill="lightblue" stroke="black" cx="259.75" cy="-14.5" rx="14.5" ry="14.5"/>
<text text-anchor="middle" x="259.75" y="-11.2" font-family="Times,serif" font-size="9.00">2</text>
</g>
<!-- 3 -->
<g id="node24" class="node">
<title>3</title>
<ellipse fill="lightblue" stroke="black" cx="306.75" cy="-14.5" rx="14.5" ry="14.5"/>
<text text-anchor="middle" x="306.75" y="-11.2" font-family="Times,serif" font-size="9.00">3</text>
</g>
<!-- 4 -->
<g id="node25" class="node">
<title>4</title>
<ellipse fill="lightblue" stroke="black" cx="857.75" cy="-234.93" rx="14.5" ry="14.5"/>
<text text-anchor="middle" x="857.75" y="-231.63" font-family="Times,serif" font-size="9.00">4</text>
</g>
<!-- 327&#45;&gt;51 -->
<g id="edge36" class="edge">
<title>327&#45;&gt;51</title>
<path fill="none" stroke="green" stroke-width="0.47" d="M666.03,-150.51C661.81,-147.75 657.21,-144.96 652.75,-142.71 610.52,-121.4 558.15,-104.09 526.93,-94.65"/>
<polygon fill="green" stroke="green" stroke-width="0.47" points="528.08,-91.34 517.5,-91.85 526.09,-98.05 528.08,-91.34"/>
</g>
<!-- 296&#45;&gt;1 -->
<g id="edge34" class="edge">
<title>296&#45;&gt;1</title>
<path fill="none" stroke="green" stroke-width="0.25" d="M92.16,-66.63C96.34,-57.57 101.41,-46.57 105.79,-37.09"/>
<polygon fill="green" stroke="green" stroke-width="0.25" points="108.85,-38.8 109.86,-28.25 102.5,-35.87 108.85,-38.8"/>
</g>
<!-- 49&#45;&gt;1 -->
<g id="edge26" class="edge">
<title>49&#45;&gt;1</title>
<path fill="none" stroke="red" stroke-width="0.52" d="M267.34,-78.07C237.26,-65.66 173.23,-39.23 138.8,-25.01"/>
<polygon fill="red" stroke="red" stroke-width="0.52" points="140.45,-21.91 129.87,-21.33 137.78,-28.38 140.45,-21.91"/>
</g>
<!-- 49&#45;&gt;2 -->
<g id="edge6" class="edge">
<title>49&#45;&gt;2</title>
<path fill="none" stroke="green" stroke-width="1.03" d="M278.18,-68.77C275.16,-60.02 271.36,-49.04 267.99,-39.32"/>
<polygon fill="green" stroke="green" stroke-width="1.03" points="271.41,-38.48 264.83,-30.17 264.79,-40.77 271.41,-38.48"/>
</g>
<!-- 49&#45;&gt;3 -->
<g id="edge28" class="edge">
<title>49&#45;&gt;3</title>
<path fill="none" stroke="red" stroke-width="0.38" d="M289.08,-68.77C292.05,-59.83 295.78,-48.56 299.06,-38.69"/>
<polygon fill="red" stroke="red" stroke-width="0.38" points="302.36,-39.84 302.19,-29.24 295.72,-37.63 302.36,-39.84"/>
</g>
<!-- 50&#45;&gt;1 -->
<g id="edge18" class="edge">
<title>50&#45;&gt;1</title>
<path fill="none" stroke="green" stroke-width="0.7" d="M140.65,-69.46C136.38,-60.22 130.88,-48.3 126.14,-38.01"/>
<polygon fill="green" stroke="green" stroke-width="0.7" points="129.36,-36.64 122,-29.03 123.01,-39.58 129.36,-36.64"/>
</g>
<!-- 50&#45;&gt;2 -->
<g id="edge1" class="edge">
<title>50&#45;&gt;2</title>
<path fill="none" stroke="green" stroke-width="0.59" d="M162.39,-75.78C181.81,-63.76 216.23,-42.45 238.51,-28.65"/>
<polygon fill="green" stroke="green" stroke-width="0.59" points="240.09,-31.79 246.75,-23.55 236.4,-25.84 240.09,-31.79"/>
</g>
<!-- 50&#45;&gt;50 -->
<g id="edge19" class="edge">
<title>50&#45;&gt;50</title>
<path fill="none" stroke="green" stroke-width="0.11" stroke-dasharray="1,5" d="M161.67,-97.5C172.44,-101.86 183.43,-97.98 183.43,-85.85 183.43,-77.52 178.23,-73.07 171.49,-72.53"/>
<polygon fill="green" stroke="green" stroke-width="0.11" points="171.1,-69.04 161.83,-74.17 172.27,-75.95 171.1,-69.04"/>
</g>
<!-- 51&#45;&gt;2 -->
<g id="edge8" class="edge">
<title>51&#45;&gt;2</title>
<path fill="none" stroke="green" stroke-width="0.28" d="M482.18,-81.91C444.74,-75.29 354.72,-57.56 283.75,-28.99 282.73,-28.58 281.7,-28.14 280.67,-27.66"/>
<polygon fill="green" stroke="green" stroke-width="0.28" points="282.52,-24.68 272.03,-23.19 279.3,-30.9 282.52,-24.68"/>
</g>
</g>
</svg>
