<?xml version="1.0" encoding="UTF-8" standalone="no"?>
<!DOCTYPE svg PUBLIC "-//W3C//DTD SVG 1.1//EN"
 "http://www.w3.org/Graphics/SVG/1.1/DTD/svg11.dtd">
<!-- Generated by graphviz version 12.1.1 (20240910.0053)
 -->
<!-- Pages: 1 -->
<svg width="704pt" height="251pt"
 viewBox="0.00 0.00 703.75 251.06" xmlns="http://www.w3.org/2000/svg" xmlns:xlink="http://www.w3.org/1999/xlink">
<g id="graph0" class="graph" transform="scale(1 1) rotate(0) translate(4 247.06)">
<polygon fill="white" stroke="none" points="-4,4 -4,-247.06 699.75,-247.06 699.75,4 -4,4"/>
<!-- &#45;1 -->
<g id="node1" class="node">
<title>&#45;1</title>
<polygon fill="lightgray" stroke="black" points="398.5,-237.81 375,-237.81 375,-219.31 398.5,-219.31 398.5,-237.81"/>
<text text-anchor="middle" x="386.75" y="-225.26" font-family="Times,serif" font-size="9.00">&#45;1</text>
</g>
<!-- &#45;2 -->
<g id="node2" class="node">
<title>&#45;2</title>
<polygon fill="lightgray" stroke="black" points="23.5,-166.46 0,-166.46 0,-147.96 23.5,-147.96 23.5,-166.46"/>
<text text-anchor="middle" x="11.75" y="-153.91" font-family="Times,serif" font-size="9.00">&#45;2</text>
</g>
<!-- 26 -->
<g id="node28" class="node">
<title>26</title>
<ellipse fill="white" stroke="black" cx="204.75" cy="-82.67" rx="17.68" ry="17.68"/>
<text text-anchor="middle" x="204.75" y="-79.37" font-family="Times,serif" font-size="9.00">26</text>
</g>
<!-- &#45;2&#45;&gt;26 -->
<g id="edge18" class="edge">
<title>&#45;2&#45;&gt;26</title>
<path fill="none" stroke="green" stroke-width="0.6" d="M19.21,-147.51C22.94,-143.63 27.72,-139.28 32.75,-136.35 79.26,-109.26 141.11,-94.77 176.56,-88.19"/>
<polygon fill="green" stroke="green" stroke-width="0.6" points="176.95,-91.68 186.18,-86.49 175.73,-84.78 176.95,-91.68"/>
</g>
<!-- &#45;3 -->
<g id="node3" class="node">
<title>&#45;3</title>
<polygon fill="lightgray" stroke="black" points="65.5,-166.46 42,-166.46 42,-147.96 65.5,-147.96 65.5,-166.46"/>
<text text-anchor="middle" x="53.75" y="-153.91" font-family="Times,serif" font-size="9.00">&#45;3</text>
</g>
<!-- &#45;3&#45;&gt;26 -->
<g id="edge30" class="edge">
<title>&#45;3&#45;&gt;26</title>
<path fill="none" stroke="green" stroke-width="0.12" d="M61.33,-147.71C65.08,-143.87 69.85,-139.49 74.75,-136.35 107.81,-115.1 150.85,-99.71 178.15,-91.23"/>
<polygon fill="green" stroke="green" stroke-width="0.12" points="179.06,-94.61 187.62,-88.37 177.04,-87.91 179.06,-94.61"/>
</g>
<!-- &#45;4 -->
<g id="node4" class="node">
<title>&#45;4</title>
<polygon fill="lightgray" stroke="black" points="149.5,-166.46 126,-166.46 126,-147.96 149.5,-147.96 149.5,-166.46"/>
<text text-anchor="middle" x="137.75" y="-153.91" font-family="Times,serif" font-size="9.00">&#45;4</text>
</g>
<!-- &#45;4&#45;&gt;26 -->
<g id="edge8" class="edge">
<title>&#45;4&#45;&gt;26</title>
<path fill="none" stroke="red" stroke-width="0.48" stroke-dasharray="1,5" d="M145.7,-147.6C155.58,-136.9 172.78,-118.28 186.07,-103.89"/>
<polygon fill="red" stroke="red" stroke-width="0.48" points="188.28,-106.66 192.49,-96.94 183.14,-101.91 188.28,-106.66"/>
</g>
<!-- 27 -->
<g id="node29" class="node">
<title>27</title>
<ellipse fill="white" stroke="black" cx="370.75" cy="-82.67" rx="17.68" ry="17.68"/>
<text text-anchor="middle" x="370.75" y="-79.37" font-family="Times,serif" font-size="9.00">27</text>
</g>
<!-- &#45;4&#45;&gt;27 -->
<g id="edge12" class="edge">
<title>&#45;4&#45;&gt;27</title>
<path fill="none" stroke="green" stroke-width="0.44" d="M144.76,-147.79C148.52,-143.78 153.47,-139.24 158.75,-136.35 219.07,-103.35 300.28,-90.67 342.54,-86.08"/>
<polygon fill="green" stroke="green" stroke-width="0.44" points="342.63,-89.59 352.22,-85.1 341.92,-82.62 342.63,-89.59"/>
</g>
<!-- &#45;5 -->
<g id="node5" class="node">
<title>&#45;5</title>
<polygon fill="lightgray" stroke="black" points="486.5,-237.81 463,-237.81 463,-219.31 486.5,-219.31 486.5,-237.81"/>
<text text-anchor="middle" x="474.75" y="-225.26" font-family="Times,serif" font-size="9.00">&#45;5</text>
</g>
<!-- &#45;6 -->
<g id="node6" class="node">
<title>&#45;6</title>
<polygon fill="lightgray" stroke="black" points="325.5,-166.46 302,-166.46 302,-147.96 325.5,-147.96 325.5,-166.46"/>
<text text-anchor="middle" x="313.75" y="-153.91" font-family="Times,serif" font-size="9.00">&#45;6</text>
</g>
<!-- &#45;6&#45;&gt;27 -->
<g id="edge21" class="edge">
<title>&#45;6&#45;&gt;27</title>
<path fill="none" stroke="green" stroke-width="0.32" d="M320.51,-147.6C328.7,-137.19 342.77,-119.28 353.94,-105.06"/>
<polygon fill="green" stroke="green" stroke-width="0.32" points="356.39,-107.61 359.82,-97.58 350.89,-103.28 356.39,-107.61"/>
</g>
<!-- &#45;7 -->
<g id="node7" class="node">
<title>&#45;7</title>
<polygon fill="lightgray" stroke="black" points="367.5,-166.46 344,-166.46 344,-147.96 367.5,-147.96 367.5,-166.46"/>
<text text-anchor="middle" x="355.75" y="-153.91" font-family="Times,serif" font-size="9.00">&#45;7</text>
</g>
<!-- &#45;7&#45;&gt;27 -->
<g id="edge11" class="edge">
<title>&#45;7&#45;&gt;27</title>
<path fill="none" stroke="green" stroke-width="0.18" d="M357.53,-147.6C359.43,-138.42 362.53,-123.42 365.25,-110.26"/>
<polygon fill="green" stroke="green" stroke-width="0.18" points="368.67,-111 367.27,-100.5 361.82,-109.59 368.67,-111"/>
</g>
<!-- &#45;8 -->
<g id="node8" class="node">
<title>&#45;8</title>
<polygon fill="lightgray" stroke="black" points="283.5,-166.46 260,-166.46 260,-147.96 283.5,-147.96 283.5,-166.46"/>
<text text-anchor="middle" x="271.75" y="-153.91" font-family="Times,serif" font-size="9.00">&#45;8</text>
</g>
<!-- 25 -->
<g id="node27" class="node">
<title>25</title>
<ellipse fill="white" stroke="black" cx="497.75" cy="-82.67" rx="17.68" ry="17.68"/>
<text text-anchor="middle" x="497.75" y="-79.37" font-family="Times,serif" font-size="9.00">25</text>
</g>
<!-- &#45;8&#45;&gt;25 -->
<g id="edge1" class="edge">
<title>&#45;8&#45;&gt;25</title>
<path fill="none" stroke="red" stroke-width="0.16" stroke-dasharray="1,5" d="M278.77,-147.81C282.53,-143.8 287.48,-139.26 292.75,-136.35 323.39,-119.43 421.97,-98.51 470.39,-88.92"/>
<polygon fill="red" stroke="red" stroke-width="0.16" points="470.81,-92.41 479.95,-87.05 469.47,-85.54 470.81,-92.41"/>
</g>
<!-- &#45;8&#45;&gt;26 -->
<g id="edge20" class="edge">
<title>&#45;8&#45;&gt;26</title>
<path fill="none" stroke="green" stroke-width="0.1" d="M263.8,-147.6C253.82,-136.8 236.4,-117.94 223.06,-103.49"/>
<polygon fill="green" stroke="green" stroke-width="0.1" points="225.98,-101.49 216.62,-96.52 220.84,-106.24 225.98,-101.49"/>
</g>
<!-- &#45;8&#45;&gt;27 -->
<g id="edge22" class="edge">
<title>&#45;8&#45;&gt;27</title>
<path fill="none" stroke="red" stroke-width="0.5" d="M280.05,-147.76C283.8,-144.1 288.36,-139.86 292.75,-136.35 310.23,-122.33 331.36,-108.22 347.21,-98.14"/>
<polygon fill="red" stroke="red" stroke-width="0.5" points="348.63,-101.38 355.23,-93.09 344.91,-95.45 348.63,-101.38"/>
</g>
<!-- &#45;9 -->
<g id="node9" class="node">
<title>&#45;9</title>
<polygon fill="lightgray" stroke="black" points="107.5,-166.46 84,-166.46 84,-147.96 107.5,-147.96 107.5,-166.46"/>
<text text-anchor="middle" x="95.75" y="-153.91" font-family="Times,serif" font-size="9.00">&#45;9</text>
</g>
<!-- &#45;9&#45;&gt;26 -->
<g id="edge4" class="edge">
<title>&#45;9&#45;&gt;26</title>
<path fill="none" stroke="green" stroke-width="0.15" stroke-dasharray="1,5" d="M103.96,-147.65C107.69,-143.97 112.27,-139.74 116.75,-136.35 137.05,-120.96 162.15,-106.32 180.34,-96.4"/>
<polygon fill="green" stroke="green" stroke-width="0.15" points="181.81,-99.58 188.96,-91.76 178.49,-93.41 181.81,-99.58"/>
</g>
<!-- &#45;10 -->
<g id="node10" class="node">
<title>&#45;10</title>
<polygon fill="lightgray" stroke="black" points="195.75,-166.46 167.75,-166.46 167.75,-147.96 195.75,-147.96 195.75,-166.46"/>
<text text-anchor="middle" x="181.75" y="-153.91" font-family="Times,serif" font-size="9.00">&#45;10</text>
</g>
<!-- &#45;10&#45;&gt;26 -->
<g id="edge24" class="edge">
<title>&#45;10&#45;&gt;26</title>
<path fill="none" stroke="red" stroke-width="0.34" d="M184.48,-147.6C187.44,-138.27 192.3,-122.93 196.53,-109.61"/>
<polygon fill="red" stroke="red" stroke-width="0.34" points="199.74,-111.04 199.43,-100.45 193.07,-108.92 199.74,-111.04"/>
</g>
<!-- &#45;10&#45;&gt;27 -->
<g id="edge13" class="edge">
<title>&#45;10&#45;&gt;27</title>
<path fill="none" stroke="red" stroke-width="0.29" d="M190.07,-147.56C194.19,-143.69 199.41,-139.33 204.75,-136.35 250,-111.05 309.09,-96.01 343.19,-88.83"/>
<polygon fill="red" stroke="red" stroke-width="0.29" points="343.8,-92.28 352.91,-86.86 342.41,-85.42 343.8,-92.28"/>
</g>
<!-- &#45;11 -->
<g id="node11" class="node">
<title>&#45;11</title>
<polygon fill="lightgray" stroke="black" points="532.75,-237.81 504.75,-237.81 504.75,-219.31 532.75,-219.31 532.75,-237.81"/>
<text text-anchor="middle" x="518.75" y="-225.26" font-family="Times,serif" font-size="9.00">&#45;11</text>
</g>
<!-- &#45;12 -->
<g id="node12" class="node">
<title>&#45;12</title>
<polygon fill="lightgray" stroke="black" points="603.75,-166.46 575.75,-166.46 575.75,-147.96 603.75,-147.96 603.75,-166.46"/>
<text text-anchor="middle" x="589.75" y="-153.91" font-family="Times,serif" font-size="9.00">&#45;12</text>
</g>
<!-- &#45;12&#45;&gt;25 -->
<g id="edge17" class="edge">
<title>&#45;12&#45;&gt;25</title>
<path fill="none" stroke="red" stroke-width="0.44" d="M580.01,-147.57C575.96,-144.03 571.17,-139.94 566.75,-136.35 551.4,-123.88 533.65,-110.35 520,-100.12"/>
<polygon fill="red" stroke="red" stroke-width="0.44" points="522.33,-97.5 512.22,-94.32 518.15,-103.11 522.33,-97.5"/>
</g>
<!-- &#45;12&#45;&gt;27 -->
<g id="edge3" class="edge">
<title>&#45;12&#45;&gt;27</title>
<path fill="none" stroke="green" stroke-width="0.14" d="M581.91,-147.86C577.75,-143.86 572.34,-139.31 566.75,-136.35 511.14,-106.87 437.71,-92.88 398.4,-87.12"/>
<polygon fill="green" stroke="green" stroke-width="0.14" points="399.09,-83.68 388.7,-85.76 398.12,-90.61 399.09,-83.68"/>
</g>
<!-- &#45;13 -->
<g id="node13" class="node">
<title>&#45;13</title>
<polygon fill="lightgray" stroke="black" points="241.75,-166.46 213.75,-166.46 213.75,-147.96 241.75,-147.96 241.75,-166.46"/>
<text text-anchor="middle" x="227.75" y="-153.91" font-family="Times,serif" font-size="9.00">&#45;13</text>
</g>
<!-- &#45;13&#45;&gt;26 -->
<g id="edge15" class="edge">
<title>&#45;13&#45;&gt;26</title>
<path fill="none" stroke="red" stroke-width="0.11" d="M225.02,-147.6C222.06,-138.27 217.2,-122.93 212.97,-109.61"/>
<polygon fill="red" stroke="red" stroke-width="0.11" points="216.32,-108.59 209.96,-100.11 209.65,-110.7 216.32,-108.59"/>
</g>
<!-- &#45;13&#45;&gt;27 -->
<g id="edge7" class="edge">
<title>&#45;13&#45;&gt;27</title>
<path fill="none" stroke="red" stroke-width="0.1" d="M236.22,-147.81C240.37,-144 245.57,-139.61 250.75,-136.35 281.02,-117.24 319.41,-101.73 344.5,-92.6"/>
<polygon fill="red" stroke="red" stroke-width="0.1" points="345.66,-95.9 353.91,-89.25 343.32,-89.31 345.66,-95.9"/>
</g>
<!-- &#45;14 -->
<g id="node14" class="node">
<title>&#45;14</title>
<polygon fill="lightgray" stroke="black" points="578.75,-237.81 550.75,-237.81 550.75,-219.31 578.75,-219.31 578.75,-237.81"/>
<text text-anchor="middle" x="564.75" y="-225.26" font-family="Times,serif" font-size="9.00">&#45;14</text>
</g>
<!-- &#45;15 -->
<g id="node15" class="node">
<title>&#45;15</title>
<polygon fill="lightgray" stroke="black" points="649.75,-166.46 621.75,-166.46 621.75,-147.96 649.75,-147.96 649.75,-166.46"/>
<text text-anchor="middle" x="635.75" y="-153.91" font-family="Times,serif" font-size="9.00">&#45;15</text>
</g>
<!-- &#45;15&#45;&gt;25 -->
<g id="edge9" class="edge">
<title>&#45;15&#45;&gt;25</title>
<path fill="none" stroke="green" stroke-width="0.25" d="M627.26,-147.85C623.1,-144.04 617.9,-139.65 612.75,-136.35 584.13,-117.97 548.05,-102.55 524.01,-93.23"/>
<polygon fill="green" stroke="green" stroke-width="0.25" points="525.44,-90.03 514.85,-89.75 522.96,-96.57 525.44,-90.03"/>
</g>
<!-- &#45;15&#45;&gt;27 -->
<g id="edge31" class="edge">
<title>&#45;15&#45;&gt;27</title>
<path fill="none" stroke="red" stroke-width="0.4" d="M627.97,-147.74C623.82,-143.72 618.41,-139.18 612.75,-136.35 593.6,-126.78 457.85,-100.23 398.46,-88.9"/>
<polygon fill="red" stroke="red" stroke-width="0.4" points="399.38,-85.51 388.9,-87.08 398.07,-92.39 399.38,-85.51"/>
</g>
<!-- &#45;16 -->
<g id="node16" class="node">
<title>&#45;16</title>
<polygon fill="lightgray" stroke="black" points="695.75,-166.46 667.75,-166.46 667.75,-147.96 695.75,-147.96 695.75,-166.46"/>
<text text-anchor="middle" x="681.75" y="-153.91" font-family="Times,serif" font-size="9.00">&#45;16</text>
</g>
<!-- &#45;16&#45;&gt;25 -->
<g id="edge19" class="edge">
<title>&#45;16&#45;&gt;25</title>
<path fill="none" stroke="green" stroke-width="0.22" d="M673.42,-147.58C669.3,-143.72 664.08,-139.36 658.75,-136.35 615.08,-111.68 558.14,-96.5 525,-89.11"/>
<polygon fill="green" stroke="green" stroke-width="0.22" points="525.95,-85.74 515.44,-87.06 524.48,-92.58 525.95,-85.74"/>
</g>
<!-- &#45;17 -->
<g id="node17" class="node">
<title>&#45;17</title>
<polygon fill="lightgray" stroke="black" points="624.75,-237.81 596.75,-237.81 596.75,-219.31 624.75,-219.31 624.75,-237.81"/>
<text text-anchor="middle" x="610.75" y="-225.26" font-family="Times,serif" font-size="9.00">&#45;17</text>
</g>
<!-- &#45;18 -->
<g id="node18" class="node">
<title>&#45;18</title>
<polygon fill="lightgray" stroke="black" points="444.75,-237.81 416.75,-237.81 416.75,-219.31 444.75,-219.31 444.75,-237.81"/>
<text text-anchor="middle" x="430.75" y="-225.26" font-family="Times,serif" font-size="9.00">&#45;18</text>
</g>
<!-- 290 -->
<g id="node26" class="node">
<title>290</title>
<ellipse fill="white" stroke="black" cx="406.75" cy="-157.21" rx="20.86" ry="20.86"/>
<text text-anchor="middle" x="406.75" y="-153.91" font-family="Times,serif" font-size="9.00">290</text>
</g>
<!-- &#45;18&#45;&gt;290 -->
<g id="edge33" class="edge">
<title>&#45;18&#45;&gt;290</title>
<path fill="none" stroke="green" stroke-width="0.22" d="M427.81,-219.06C425.01,-210.98 420.64,-198.36 416.61,-186.7"/>
<polygon fill="green" stroke="green" stroke-width="0.22" points="420.03,-185.88 413.45,-177.58 413.42,-188.17 420.03,-185.88"/>
</g>
<!-- &#45;18&#45;&gt;27 -->
<g id="edge6" class="edge">
<title>&#45;18&#45;&gt;27</title>
<path fill="none" stroke="red" stroke-width="0.17" stroke-dasharray="1,5" d="M433.98,-218.98C439.77,-202.17 450.1,-164.09 436.75,-136.35 428.22,-118.62 410.5,-105.01 395.57,-96.07"/>
<polygon fill="red" stroke="red" stroke-width="0.17" points="397.4,-93.08 386.97,-91.23 393.97,-99.18 397.4,-93.08"/>
</g>
<!-- &#45;19 -->
<g id="node19" class="node">
<title>&#45;19</title>
<polygon fill="lightgray" stroke="black" points="557.75,-166.46 529.75,-166.46 529.75,-147.96 557.75,-147.96 557.75,-166.46"/>
<text text-anchor="middle" x="543.75" y="-153.91" font-family="Times,serif" font-size="9.00">&#45;19</text>
</g>
<!-- &#45;19&#45;&gt;27 -->
<g id="edge2" class="edge">
<title>&#45;19&#45;&gt;27</title>
<path fill="none" stroke="green" stroke-width="0.17" d="M535.39,-147.64C531.26,-143.78 526.05,-139.41 520.75,-136.35 480.62,-113.1 428.56,-97.68 397.51,-89.82"/>
<polygon fill="green" stroke="green" stroke-width="0.17" points="398.62,-86.49 388.08,-87.51 396.95,-93.29 398.62,-86.49"/>
</g>
<!-- &#45;20 -->
<g id="node20" class="node">
<title>&#45;20</title>
<polygon fill="lightgray" stroke="black" points="511.75,-166.46 483.75,-166.46 483.75,-147.96 511.75,-147.96 511.75,-166.46"/>
<text text-anchor="middle" x="497.75" y="-153.91" font-family="Times,serif" font-size="9.00">&#45;20</text>
</g>
<!-- &#45;20&#45;&gt;25 -->
<g id="edge10" class="edge">
<title>&#45;20&#45;&gt;25</title>
<path fill="none" stroke="green" stroke-width="0.11" d="M497.75,-147.6C497.75,-138.54 497.75,-123.81 497.75,-110.77"/>
<polygon fill="green" stroke="green" stroke-width="0.11" points="501.25,-110.99 497.75,-100.99 494.25,-110.99 501.25,-110.99"/>
</g>
<!-- &#45;20&#45;&gt;26 -->
<g id="edge14" class="edge">
<title>&#45;20&#45;&gt;26</title>
<path fill="none" stroke="green" stroke-width="0.45" d="M483.32,-151.1C471.03,-146.84 452.86,-140.79 436.75,-136.35 363.86,-116.25 276.58,-97.96 232.76,-89.17"/>
<polygon fill="green" stroke="green" stroke-width="0.45" points="233.5,-85.75 223.01,-87.22 232.13,-92.61 233.5,-85.75"/>
</g>
<!-- &#45;20&#45;&gt;27 -->
<g id="edge28" class="edge">
<title>&#45;20&#45;&gt;27</title>
<path fill="none" stroke="red" stroke-width="0.19" d="M486.26,-147.56C481.28,-143.94 475.33,-139.79 469.75,-136.35 445.26,-121.23 416.05,-106.01 395.73,-95.84"/>
<polygon fill="red" stroke="red" stroke-width="0.19" points="397.3,-92.72 386.79,-91.41 394.19,-98.99 397.3,-92.72"/>
</g>
<!-- 0 -->
<g id="node21" class="node">
<title>0</title>
<ellipse fill="lightblue" stroke="black" cx="338.75" cy="-14.5" rx="14.5" ry="14.5"/>
<text text-anchor="middle" x="338.75" y="-11.2" font-family="Times,serif" font-size="9.00">0</text>
</g>
<!-- 0&#45;&gt;0 -->
<g id="edge16" class="edge">
<title>0&#45;&gt;0</title>
<path fill="none" stroke="red" stroke-width="0.19" d="M349.4,-24.65C359.81,-30.26 371.25,-26.88 371.25,-14.5 371.25,-5.98 365.84,-1.72 359.08,-1.71"/>
<polygon fill="red" stroke="red" stroke-width="0.19" points="358.42,1.73 349.68,-4.26 360.25,-5.02 358.42,1.73"/>
</g>
<!-- 1 -->
<g id="node22" class="node">
<title>1</title>
<ellipse fill="lightblue" stroke="black" cx="656.75" cy="-228.56" rx="14.5" ry="14.5"/>
<text text-anchor="middle" x="656.75" y="-225.26" font-family="Times,serif" font-size="9.00">1</text>
</g>
<!-- 1&#45;&gt;1 -->
<g id="edge5" class="edge">
<title>1&#45;&gt;1</title>
<path fill="none" stroke="red" stroke-width="0.38" stroke-dasharray="1,5" d="M667.07,-239C677.56,-245.14 689.25,-241.66 689.25,-228.56 689.25,-219.56 683.72,-215.1 676.86,-215.18"/>
<polygon fill="red" stroke="red" stroke-width="0.38" points="676.19,-211.73 667.62,-217.96 678.21,-218.43 676.19,-211.73"/>
</g>
<!-- 2 -->
<g id="node23" class="node">
<title>2</title>
<ellipse fill="lightblue" stroke="black" cx="403.75" cy="-14.5" rx="14.5" ry="14.5"/>
<text text-anchor="middle" x="403.75" y="-11.2" font-family="Times,serif" font-size="9.00">2</text>
</g>
<!-- 3 -->
<g id="node24" class="node">
<title>3</title>
<ellipse fill="lightblue" stroke="black" cx="204.75" cy="-14.5" rx="14.5" ry="14.5"/>
<text text-anchor="middle" x="204.75" y="-11.2" font-family="Times,serif" font-size="9.00">3</text>
</g>
<!-- 4 -->
<g id="node25" class="node">
<title>4</title>
<ellipse fill="lightblue" stroke="black" cx="466.75" cy="-14.5" rx="14.5" ry="14.5"/>
<text text-anchor="middle" x="466.75" y="-11.2" font-family="Times,serif" font-size="9.00">4</text>
</g>
<!-- 290&#45;&gt;27 -->
<g id="edge34" class="edge">
<title>290&#45;&gt;27</title>
<path fill="none" stroke="red" stroke-width="0.24" d="M397.67,-137.9C393.17,-128.84 387.67,-117.77 382.83,-108"/>
<polygon fill="red" stroke="red" stroke-width="0.24" points="386,-106.51 378.41,-99.11 379.72,-109.63 386,-106.51"/>
</g>
<!-- 25&#45;&gt;2 -->
<g id="edge23" class="edge">
<title>25&#45;&gt;2</title>
<path fill="none" stroke="green" stroke-width="0.34" d="M483.47,-71.62C467.64,-60.47 441.97,-42.4 424.05,-29.79"/>
<polygon fill="green" stroke="green" stroke-width="0.34" points="426.1,-26.95 415.91,-24.05 422.07,-32.67 426.1,-26.95"/>
</g>
<!-- 25&#45;&gt;4 -->
<g id="edge27" class="edge">
<title>25&#45;&gt;4</title>
<path fill="none" stroke="green" stroke-width="0.29" stroke-dasharray="1,5" d="M490.56,-66.32C486.52,-57.71 481.42,-46.81 476.98,-37.33"/>
<polygon fill="green" stroke="green" stroke-width="0.29" points="480.25,-36.06 472.84,-28.49 473.91,-39.03 480.25,-36.06"/>
</g>
<!-- 26&#45;&gt;2 -->
<g id="edge29" class="edge">
<title>26&#45;&gt;2</title>
<path fill="none" stroke="green" stroke-width="0.28" d="M222.08,-77.79C254.02,-70.36 323.99,-52.72 379.75,-28.99 380.76,-28.56 381.79,-28.1 382.81,-27.61"/>
<polygon fill="green" stroke="green" stroke-width="0.28" points="384.2,-30.84 391.43,-23.09 380.95,-24.64 384.2,-30.84"/>
</g>
<!-- 26&#45;&gt;3 -->
<g id="edge32" class="edge">
<title>26&#45;&gt;3</title>
<path fill="none" stroke="red" stroke-width="0.2" d="M204.75,-64.63C204.75,-56.96 204.75,-47.77 204.75,-39.43"/>
<polygon fill="red" stroke="red" stroke-width="0.2" points="208.25,-39.44 204.75,-29.44 201.25,-39.44 208.25,-39.44"/>
</g>
<!-- 26&#45;&gt;4 -->
<g id="edge35" class="edge">
<title>26&#45;&gt;4</title>
<path fill="none" stroke="red" stroke-width="0.49" d="M222.16,-78.11C259.79,-70.3 351.36,-50.61 426.75,-28.99 432.16,-27.44 437.92,-25.61 443.34,-23.8"/>
<polygon fill="red" stroke="red" stroke-width="0.49" points="444.12,-27.23 452.44,-20.67 441.85,-20.61 444.12,-27.23"/>
</g>
<!-- 27&#45;&gt;0 -->
<g id="edge25" class="edge">
<title>27&#45;&gt;0</title>
<path fill="none" stroke="green" stroke-width="0.2" d="M363.33,-66.32C359.16,-57.71 353.9,-46.81 349.31,-37.33"/>
<polygon fill="green" stroke="green" stroke-width="0.2" points="352.48,-35.85 344.98,-28.37 346.18,-38.9 352.48,-35.85"/>
</g>
<!-- 27&#45;&gt;2 -->
<g id="edge26" class="edge">
<title>27&#45;&gt;2</title>
<path fill="none" stroke="green" stroke-width="0.36" d="M378.4,-66.32C382.7,-57.71 388.13,-46.81 392.86,-37.33"/>
<polygon fill="green" stroke="green" stroke-width="0.36" points="395.89,-39.09 397.22,-28.58 389.63,-35.97 395.89,-39.09"/>
</g>
</g>
</svg>
