<?xml version="1.0" encoding="UTF-8" standalone="no"?>
<!DOCTYPE svg PUBLIC "-//W3C//DTD SVG 1.1//EN"
 "http://www.w3.org/Graphics/SVG/1.1/DTD/svg11.dtd">
<!-- Generated by graphviz version 12.1.1 (20240910.0053)
 -->
<!-- Pages: 1 -->
<svg width="874pt" height="163pt"
 viewBox="0.00 0.00 873.75 162.85" xmlns="http://www.w3.org/2000/svg" xmlns:xlink="http://www.w3.org/1999/xlink">
<g id="graph0" class="graph" transform="scale(1 1) rotate(0) translate(4 158.85)">
<polygon fill="white" stroke="none" points="-4,4 -4,-158.85 869.75,-158.85 869.75,4 -4,4"/>
<!-- &#45;1 -->
<g id="node1" class="node">
<title>&#45;1</title>
<polygon fill="lightgray" stroke="black" points="505.5,-154.85 482,-154.85 482,-136.35 505.5,-136.35 505.5,-154.85"/>
<text text-anchor="middle" x="493.75" y="-142.3" font-family="Times,serif" font-size="9.00">&#45;1</text>
</g>
<!-- 69 -->
<g id="node26" class="node">
<title>69</title>
<ellipse fill="white" stroke="black" cx="235.75" cy="-82.67" rx="17.68" ry="17.68"/>
<text text-anchor="middle" x="235.75" y="-79.37" font-family="Times,serif" font-size="9.00">69</text>
</g>
<!-- &#45;1&#45;&gt;69 -->
<g id="edge2" class="edge">
<title>&#45;1&#45;&gt;69</title>
<path fill="none" stroke="green" stroke-width="0.13" stroke-dasharray="1,5" d="M481.87,-139.56C478.92,-138.41 475.75,-137.26 472.75,-136.35 398.11,-113.54 307.46,-96.17 263.01,-88.3"/>
<polygon fill="green" stroke="green" stroke-width="0.13" points="263.89,-84.9 253.44,-86.63 262.69,-91.8 263.89,-84.9"/>
</g>
<!-- 70 -->
<g id="node27" class="node">
<title>70</title>
<ellipse fill="white" stroke="black" cx="514.75" cy="-82.67" rx="17.68" ry="17.68"/>
<text text-anchor="middle" x="514.75" y="-79.37" font-family="Times,serif" font-size="9.00">70</text>
</g>
<!-- &#45;1&#45;&gt;70 -->
<g id="edge13" class="edge">
<title>&#45;1&#45;&gt;70</title>
<path fill="none" stroke="red" stroke-width="0.56" stroke-dasharray="1,5" d="M496.76,-135.87C499.1,-129.08 502.48,-119.28 505.67,-110.01"/>
<polygon fill="red" stroke="red" stroke-width="0.56" points="508.91,-111.34 508.86,-100.75 502.3,-109.06 508.91,-111.34"/>
</g>
<!-- &#45;2 -->
<g id="node2" class="node">
<title>&#45;2</title>
<polygon fill="lightgray" stroke="black" points="291.5,-154.85 268,-154.85 268,-136.35 291.5,-136.35 291.5,-154.85"/>
<text text-anchor="middle" x="279.75" y="-142.3" font-family="Times,serif" font-size="9.00">&#45;2</text>
</g>
<!-- &#45;2&#45;&gt;69 -->
<g id="edge15" class="edge">
<title>&#45;2&#45;&gt;69</title>
<path fill="none" stroke="red" stroke-width="0.29" d="M273.45,-135.87C267.8,-128.05 259.28,-116.26 251.77,-105.85"/>
<polygon fill="red" stroke="red" stroke-width="0.29" points="254.74,-103.98 246.04,-97.92 249.06,-108.08 254.74,-103.98"/>
</g>
<!-- 71 -->
<g id="node28" class="node">
<title>71</title>
<ellipse fill="white" stroke="black" cx="380.75" cy="-82.67" rx="17.68" ry="17.68"/>
<text text-anchor="middle" x="380.75" y="-79.37" font-family="Times,serif" font-size="9.00">71</text>
</g>
<!-- &#45;2&#45;&gt;71 -->
<g id="edge6" class="edge">
<title>&#45;2&#45;&gt;71</title>
<path fill="none" stroke="red" stroke-width="0.58" d="M291.73,-137.37C307.63,-127.78 336.06,-110.63 356.52,-98.28"/>
<polygon fill="red" stroke="red" stroke-width="0.58" points="358.32,-101.28 365.08,-93.12 354.71,-95.29 358.32,-101.28"/>
</g>
<!-- &#45;3 -->
<g id="node3" class="node">
<title>&#45;3</title>
<polygon fill="lightgray" stroke="black" points="547.5,-154.85 524,-154.85 524,-136.35 547.5,-136.35 547.5,-154.85"/>
<text text-anchor="middle" x="535.75" y="-142.3" font-family="Times,serif" font-size="9.00">&#45;3</text>
</g>
<!-- &#45;3&#45;&gt;70 -->
<g id="edge31" class="edge">
<title>&#45;3&#45;&gt;70</title>
<path fill="none" stroke="green" stroke-width="0.24" d="M532.74,-135.87C530.38,-129 526.95,-119.07 523.72,-109.71"/>
<polygon fill="green" stroke="green" stroke-width="0.24" points="527.05,-108.61 520.48,-100.29 520.43,-110.89 527.05,-108.61"/>
</g>
<!-- &#45;3&#45;&gt;71 -->
<g id="edge21" class="edge">
<title>&#45;3&#45;&gt;71</title>
<path fill="none" stroke="green" stroke-width="0.2" stroke-dasharray="1,5" d="M523.59,-139.82C498.38,-129.91 440,-106.96 406.19,-93.67"/>
<polygon fill="green" stroke="green" stroke-width="0.2" points="407.82,-90.55 397.24,-90.15 405.26,-97.07 407.82,-90.55"/>
</g>
<!-- &#45;4 -->
<g id="node4" class="node">
<title>&#45;4</title>
<polygon fill="lightgray" stroke="black" points="23.5,-154.85 0,-154.85 0,-136.35 23.5,-136.35 23.5,-154.85"/>
<text text-anchor="middle" x="11.75" y="-142.3" font-family="Times,serif" font-size="9.00">&#45;4</text>
</g>
<!-- &#45;4&#45;&gt;69 -->
<g id="edge18" class="edge">
<title>&#45;4&#45;&gt;69</title>
<path fill="none" stroke="green" stroke-width="0.25" d="M23.65,-139.63C26.6,-138.48 29.77,-137.31 32.75,-136.35 94.63,-116.24 169.04,-98.54 208.33,-89.68"/>
<polygon fill="green" stroke="green" stroke-width="0.25" points="209.07,-93.1 218.06,-87.5 207.54,-86.27 209.07,-93.1"/>
</g>
<!-- &#45;5 -->
<g id="node5" class="node">
<title>&#45;5</title>
<polygon fill="lightgray" stroke="black" points="421.5,-154.85 398,-154.85 398,-136.35 421.5,-136.35 421.5,-154.85"/>
<text text-anchor="middle" x="409.75" y="-142.3" font-family="Times,serif" font-size="9.00">&#45;5</text>
</g>
<!-- &#45;5&#45;&gt;71 -->
<g id="edge23" class="edge">
<title>&#45;5&#45;&gt;71</title>
<path fill="none" stroke="red" stroke-width="0.29" stroke-dasharray="1,5" d="M405.6,-135.87C402.17,-128.66 397.12,-118.07 392.48,-108.31"/>
<polygon fill="red" stroke="red" stroke-width="0.29" points="395.68,-106.9 388.23,-99.38 389.36,-109.91 395.68,-106.9"/>
</g>
<!-- &#45;6 -->
<g id="node6" class="node">
<title>&#45;6</title>
<polygon fill="lightgray" stroke="black" points="65.5,-154.85 42,-154.85 42,-136.35 65.5,-136.35 65.5,-154.85"/>
<text text-anchor="middle" x="53.75" y="-142.3" font-family="Times,serif" font-size="9.00">&#45;6</text>
</g>
<!-- &#45;6&#45;&gt;69 -->
<g id="edge30" class="edge">
<title>&#45;6&#45;&gt;69</title>
<path fill="none" stroke="red" stroke-width="0.15" stroke-dasharray="1,5" d="M65.7,-139.76C68.64,-138.61 71.8,-137.41 74.75,-136.35 121.7,-119.46 177.12,-101.82 209.17,-91.84"/>
<polygon fill="red" stroke="red" stroke-width="0.15" points="209.99,-95.25 218.51,-88.95 207.92,-88.57 209.99,-95.25"/>
</g>
<!-- &#45;7 -->
<g id="node7" class="node">
<title>&#45;7</title>
<polygon fill="lightgray" stroke="black" points="333.5,-154.85 310,-154.85 310,-136.35 333.5,-136.35 333.5,-154.85"/>
<text text-anchor="middle" x="321.75" y="-142.3" font-family="Times,serif" font-size="9.00">&#45;7</text>
</g>
<!-- &#45;7&#45;&gt;69 -->
<g id="edge7" class="edge">
<title>&#45;7&#45;&gt;69</title>
<path fill="none" stroke="red" stroke-width="0.32" stroke-dasharray="1,5" d="M309.79,-136.12C296.55,-126.74 274.9,-111.41 258.43,-99.73"/>
<polygon fill="red" stroke="red" stroke-width="0.32" points="260.47,-96.9 250.29,-93.97 256.43,-102.61 260.47,-96.9"/>
</g>
<!-- &#45;7&#45;&gt;70 -->
<g id="edge20" class="edge">
<title>&#45;7&#45;&gt;70</title>
<path fill="none" stroke="green" stroke-width="0.19" d="M333.68,-139.72C336.63,-138.57 339.79,-137.38 342.75,-136.35 393.79,-118.54 454.44,-100.73 488.37,-91.06"/>
<polygon fill="green" stroke="green" stroke-width="0.19" points="489.06,-94.51 497.72,-88.41 487.15,-87.77 489.06,-94.51"/>
</g>
<!-- &#45;7&#45;&gt;71 -->
<g id="edge32" class="edge">
<title>&#45;7&#45;&gt;71</title>
<path fill="none" stroke="green" stroke-width="0.22" d="M330.2,-135.87C338.38,-127.42 351.07,-114.32 361.69,-103.35"/>
<polygon fill="green" stroke="green" stroke-width="0.22" points="363.95,-106.04 368.4,-96.43 358.93,-101.17 363.95,-106.04"/>
</g>
<!-- &#45;8 -->
<g id="node8" class="node">
<title>&#45;8</title>
<polygon fill="lightgray" stroke="black" points="463.5,-154.85 440,-154.85 440,-136.35 463.5,-136.35 463.5,-154.85"/>
<text text-anchor="middle" x="451.75" y="-142.3" font-family="Times,serif" font-size="9.00">&#45;8</text>
</g>
<!-- &#45;8&#45;&gt;71 -->
<g id="edge26" class="edge">
<title>&#45;8&#45;&gt;71</title>
<path fill="none" stroke="green" stroke-width="0.47" stroke-dasharray="1,5" d="M441.58,-135.87C431.26,-127.01 414.99,-113.05 401.87,-101.79"/>
<polygon fill="green" stroke="green" stroke-width="0.47" points="404.2,-99.18 394.34,-95.33 399.65,-104.5 404.2,-99.18"/>
</g>
<!-- &#45;9 -->
<g id="node9" class="node">
<title>&#45;9</title>
<polygon fill="lightgray" stroke="black" points="681.5,-154.85 658,-154.85 658,-136.35 681.5,-136.35 681.5,-154.85"/>
<text text-anchor="middle" x="669.75" y="-142.3" font-family="Times,serif" font-size="9.00">&#45;9</text>
</g>
<!-- &#45;10 -->
<g id="node10" class="node">
<title>&#45;10</title>
<polygon fill="lightgray" stroke="black" points="111.75,-154.85 83.75,-154.85 83.75,-136.35 111.75,-136.35 111.75,-154.85"/>
<text text-anchor="middle" x="97.75" y="-142.3" font-family="Times,serif" font-size="9.00">&#45;10</text>
</g>
<!-- &#45;10&#45;&gt;69 -->
<g id="edge9" class="edge">
<title>&#45;10&#45;&gt;69</title>
<path fill="none" stroke="red" stroke-width="0.16" stroke-dasharray="1,5" d="M112,-138.31C135.26,-128.03 181.7,-107.53 210.6,-94.77"/>
<polygon fill="red" stroke="red" stroke-width="0.16" points="211.72,-98.11 219.45,-90.87 208.89,-91.7 211.72,-98.11"/>
</g>
<!-- &#45;11 -->
<g id="node11" class="node">
<title>&#45;11</title>
<polygon fill="lightgray" stroke="black" points="157.75,-154.85 129.75,-154.85 129.75,-136.35 157.75,-136.35 157.75,-154.85"/>
<text text-anchor="middle" x="143.75" y="-142.3" font-family="Times,serif" font-size="9.00">&#45;11</text>
</g>
<!-- &#45;11&#45;&gt;69 -->
<g id="edge29" class="edge">
<title>&#45;11&#45;&gt;69</title>
<path fill="none" stroke="red" stroke-width="0.39" d="M156.93,-135.87C171.4,-126.28 194.91,-110.71 212.5,-99.07"/>
<polygon fill="red" stroke="red" stroke-width="0.39" points="214.18,-102.15 220.58,-93.71 210.31,-96.32 214.18,-102.15"/>
</g>
<!-- &#45;12 -->
<g id="node12" class="node">
<title>&#45;12</title>
<polygon fill="lightgray" stroke="black" points="249.75,-154.85 221.75,-154.85 221.75,-136.35 249.75,-136.35 249.75,-154.85"/>
<text text-anchor="middle" x="235.75" y="-142.3" font-family="Times,serif" font-size="9.00">&#45;12</text>
</g>
<!-- &#45;12&#45;&gt;69 -->
<g id="edge3" class="edge">
<title>&#45;12&#45;&gt;69</title>
<path fill="none" stroke="green" stroke-width="0.16" d="M235.75,-135.87C235.75,-129.17 235.75,-119.56 235.75,-110.4"/>
<polygon fill="green" stroke="green" stroke-width="0.16" points="239.25,-110.67 235.75,-100.67 232.25,-110.67 239.25,-110.67"/>
</g>
<!-- &#45;12&#45;&gt;71 -->
<g id="edge4" class="edge">
<title>&#45;12&#45;&gt;71</title>
<path fill="none" stroke="red" stroke-width="0.16" stroke-dasharray="1,5" d="M250.18,-138.53C274.75,-128.21 324.97,-107.11 355.47,-94.29"/>
<polygon fill="red" stroke="red" stroke-width="0.16" points="356.53,-97.64 364.39,-90.54 353.82,-91.19 356.53,-97.64"/>
</g>
<!-- &#45;13 -->
<g id="node13" class="node">
<title>&#45;13</title>
<polygon fill="lightgray" stroke="black" points="727.75,-154.85 699.75,-154.85 699.75,-136.35 727.75,-136.35 727.75,-154.85"/>
<text text-anchor="middle" x="713.75" y="-142.3" font-family="Times,serif" font-size="9.00">&#45;13</text>
</g>
<!-- &#45;14 -->
<g id="node14" class="node">
<title>&#45;14</title>
<polygon fill="lightgray" stroke="black" points="773.75,-154.85 745.75,-154.85 745.75,-136.35 773.75,-136.35 773.75,-154.85"/>
<text text-anchor="middle" x="759.75" y="-142.3" font-family="Times,serif" font-size="9.00">&#45;14</text>
</g>
<!-- &#45;15 -->
<g id="node15" class="node">
<title>&#45;15</title>
<polygon fill="lightgray" stroke="black" points="819.75,-154.85 791.75,-154.85 791.75,-136.35 819.75,-136.35 819.75,-154.85"/>
<text text-anchor="middle" x="805.75" y="-142.3" font-family="Times,serif" font-size="9.00">&#45;15</text>
</g>
<!-- &#45;16 -->
<g id="node16" class="node">
<title>&#45;16</title>
<polygon fill="lightgray" stroke="black" points="203.75,-154.85 175.75,-154.85 175.75,-136.35 203.75,-136.35 203.75,-154.85"/>
<text text-anchor="middle" x="189.75" y="-142.3" font-family="Times,serif" font-size="9.00">&#45;16</text>
</g>
<!-- &#45;16&#45;&gt;69 -->
<g id="edge24" class="edge">
<title>&#45;16&#45;&gt;69</title>
<path fill="none" stroke="green" stroke-width="0.22" stroke-dasharray="1,5" d="M196.34,-135.87C202.38,-127.87 211.56,-115.7 219.55,-105.13"/>
<polygon fill="green" stroke="green" stroke-width="0.22" points="222.18,-107.46 225.41,-97.37 216.59,-103.24 222.18,-107.46"/>
</g>
<!-- &#45;17 -->
<g id="node17" class="node">
<title>&#45;17</title>
<polygon fill="lightgray" stroke="black" points="593.75,-154.85 565.75,-154.85 565.75,-136.35 593.75,-136.35 593.75,-154.85"/>
<text text-anchor="middle" x="579.75" y="-142.3" font-family="Times,serif" font-size="9.00">&#45;17</text>
</g>
<!-- &#45;17&#45;&gt;70 -->
<g id="edge10" class="edge">
<title>&#45;17&#45;&gt;70</title>
<path fill="none" stroke="green" stroke-width="0.18" stroke-dasharray="1,5" d="M570.44,-135.87C561.11,-127.12 546.46,-113.39 534.53,-102.21"/>
<polygon fill="green" stroke="green" stroke-width="0.18" points="537.05,-99.77 527.36,-95.49 532.26,-104.88 537.05,-99.77"/>
</g>
<!-- &#45;17&#45;&gt;71 -->
<g id="edge34" class="edge">
<title>&#45;17&#45;&gt;71</title>
<path fill="none" stroke="green" stroke-width="0.65" stroke-dasharray="1,5" d="M565.68,-139.42C562.74,-138.37 559.65,-137.3 556.75,-136.35 504.53,-119.18 442.85,-101.25 408.12,-91.37"/>
<polygon fill="green" stroke="green" stroke-width="0.65" points="409.36,-88.08 398.79,-88.72 407.45,-94.82 409.36,-88.08"/>
</g>
<!-- &#45;18 -->
<g id="node18" class="node">
<title>&#45;18</title>
<polygon fill="lightgray" stroke="black" points="379.75,-154.85 351.75,-154.85 351.75,-136.35 379.75,-136.35 379.75,-154.85"/>
<text text-anchor="middle" x="365.75" y="-142.3" font-family="Times,serif" font-size="9.00">&#45;18</text>
</g>
<!-- &#45;18&#45;&gt;69 -->
<g id="edge33" class="edge">
<title>&#45;18&#45;&gt;69</title>
<path fill="none" stroke="red" stroke-width="0.41" d="M351.34,-137.84C329.53,-127.62 287.85,-108.09 260.95,-95.48"/>
<polygon fill="red" stroke="red" stroke-width="0.41" points="262.54,-92.36 252,-91.28 259.57,-98.7 262.54,-92.36"/>
</g>
<!-- &#45;18&#45;&gt;70 -->
<g id="edge16" class="edge">
<title>&#45;18&#45;&gt;70</title>
<path fill="none" stroke="green" stroke-width="0.62" d="M380.04,-138.75C405.04,-128.53 457.05,-107.26 488.63,-94.35"/>
<polygon fill="green" stroke="green" stroke-width="0.62" points="489.69,-97.7 497.62,-90.67 487.04,-91.22 489.69,-97.7"/>
</g>
<!-- &#45;18&#45;&gt;71 -->
<g id="edge28" class="edge">
<title>&#45;18&#45;&gt;71</title>
<path fill="none" stroke="green" stroke-width="0.46" stroke-dasharray="1,5" d="M367.9,-135.87C369.55,-129.15 371.93,-119.49 374.19,-110.31"/>
<polygon fill="green" stroke="green" stroke-width="0.46" points="377.59,-111.16 376.58,-100.61 370.79,-109.49 377.59,-111.16"/>
</g>
<!-- &#45;19 -->
<g id="node19" class="node">
<title>&#45;19</title>
<polygon fill="lightgray" stroke="black" points="639.75,-154.85 611.75,-154.85 611.75,-136.35 639.75,-136.35 639.75,-154.85"/>
<text text-anchor="middle" x="625.75" y="-142.3" font-family="Times,serif" font-size="9.00">&#45;19</text>
</g>
<!-- &#45;19&#45;&gt;70 -->
<g id="edge27" class="edge">
<title>&#45;19&#45;&gt;70</title>
<path fill="none" stroke="red" stroke-width="0.69" d="M611.69,-136.88C593.58,-126.94 561.79,-109.49 539.57,-97.29"/>
<polygon fill="red" stroke="red" stroke-width="0.69" points="541.48,-94.35 531.03,-92.61 538.12,-100.49 541.48,-94.35"/>
</g>
<!-- &#45;19&#45;&gt;71 -->
<g id="edge19" class="edge">
<title>&#45;19&#45;&gt;71</title>
<path fill="none" stroke="red" stroke-width="0.11" d="M611.72,-139.29C608.78,-138.25 605.68,-137.22 602.75,-136.35 533.44,-115.76 450.1,-97.75 407.98,-89.11"/>
<polygon fill="red" stroke="red" stroke-width="0.11" points="408.86,-85.72 398.36,-87.15 407.47,-92.58 408.86,-85.72"/>
</g>
<!-- &#45;20 -->
<g id="node20" class="node">
<title>&#45;20</title>
<polygon fill="lightgray" stroke="black" points="865.75,-154.85 837.75,-154.85 837.75,-136.35 865.75,-136.35 865.75,-154.85"/>
<text text-anchor="middle" x="851.75" y="-142.3" font-family="Times,serif" font-size="9.00">&#45;20</text>
</g>
<!-- 0 -->
<g id="node21" class="node">
<title>0</title>
<ellipse fill="lightblue" stroke="black" cx="380.75" cy="-14.5" rx="14.5" ry="14.5"/>
<text text-anchor="middle" x="380.75" y="-11.2" font-family="Times,serif" font-size="9.00">0</text>
</g>
<!-- 0&#45;&gt;0 -->
<g id="edge25" class="edge">
<title>0&#45;&gt;0</title>
<path fill="none" stroke="red" stroke-width="0.53" stroke-dasharray="1,5" d="M391.4,-24.65C401.81,-30.26 413.25,-26.88 413.25,-14.5 413.25,-6.18 408.08,-1.92 401.54,-1.72"/>
<polygon fill="red" stroke="red" stroke-width="0.53" points="400.99,1.75 392.18,-4.14 402.74,-5.03 400.99,1.75"/>
</g>
<!-- 1 -->
<g id="node22" class="node">
<title>1</title>
<ellipse fill="lightblue" stroke="black" cx="156.75" cy="-14.5" rx="14.5" ry="14.5"/>
<text text-anchor="middle" x="156.75" y="-11.2" font-family="Times,serif" font-size="9.00">1</text>
</g>
<!-- 1&#45;&gt;1 -->
<g id="edge5" class="edge">
<title>1&#45;&gt;1</title>
<path fill="none" stroke="red" stroke-width="0.22" d="M167.4,-24.65C177.81,-30.26 189.25,-26.88 189.25,-14.5 189.25,-5.98 183.84,-1.72 177.08,-1.71"/>
<polygon fill="red" stroke="red" stroke-width="0.22" points="176.45,1.74 167.72,-4.25 178.29,-5.01 176.45,1.74"/>
</g>
<!-- 2 -->
<g id="node23" class="node">
<title>2</title>
<ellipse fill="lightblue" stroke="black" cx="221.75" cy="-14.5" rx="14.5" ry="14.5"/>
<text text-anchor="middle" x="221.75" y="-11.2" font-family="Times,serif" font-size="9.00">2</text>
</g>
<!-- 2&#45;&gt;2 -->
<g id="edge35" class="edge">
<title>2&#45;&gt;2</title>
<path fill="none" stroke="red" stroke-width="0.19" stroke-dasharray="1,5" d="M232.4,-24.65C242.81,-30.26 254.25,-26.88 254.25,-14.5 254.25,-5.98 248.84,-1.72 242.08,-1.71"/>
<polygon fill="red" stroke="red" stroke-width="0.19" points="241.41,1.73 232.67,-4.26 243.24,-5.02 241.41,1.73"/>
</g>
<!-- 3 -->
<g id="node24" class="node">
<title>3</title>
<ellipse fill="lightblue" stroke="black" cx="333.75" cy="-14.5" rx="14.5" ry="14.5"/>
<text text-anchor="middle" x="333.75" y="-11.2" font-family="Times,serif" font-size="9.00">3</text>
</g>
<!-- 4 -->
<g id="node25" class="node">
<title>4</title>
<ellipse fill="lightblue" stroke="black" cx="286.75" cy="-14.5" rx="14.5" ry="14.5"/>
<text text-anchor="middle" x="286.75" y="-11.2" font-family="Times,serif" font-size="9.00">4</text>
</g>
<!-- 69&#45;&gt;0 -->
<g id="edge8" class="edge">
<title>69&#45;&gt;0</title>
<path fill="none" stroke="red" stroke-width="0.16" stroke-dasharray="1,5" d="M252.04,-75.19C275.5,-65.73 320.03,-47.25 356.75,-28.99 357.73,-28.5 358.74,-27.99 359.74,-27.47"/>
<polygon fill="red" stroke="red" stroke-width="0.16" points="361.35,-30.58 368.46,-22.72 358,-24.43 361.35,-30.58"/>
</g>
<!-- 69&#45;&gt;1 -->
<g id="edge22" class="edge">
<title>69&#45;&gt;1</title>
<path fill="none" stroke="red" stroke-width="0.17" stroke-dasharray="1,5" d="M222.35,-70.44C209.4,-59.59 189.66,-43.07 175.22,-30.97"/>
<polygon fill="red" stroke="red" stroke-width="0.17" points="177.53,-28.34 167.62,-24.6 173.04,-33.7 177.53,-28.34"/>
</g>
<!-- 69&#45;&gt;2 -->
<g id="edge1" class="edge">
<title>69&#45;&gt;2</title>
<path fill="none" stroke="red" stroke-width="0.13" d="M232.22,-64.97C230.54,-57.02 228.5,-47.39 226.67,-38.74"/>
<polygon fill="red" stroke="red" stroke-width="0.13" points="230.11,-38.1 224.62,-29.05 223.26,-39.55 230.11,-38.1"/>
</g>
<!-- 69&#45;&gt;3 -->
<g id="edge11" class="edge">
<title>69&#45;&gt;3</title>
<path fill="none" stroke="green" stroke-width="0.51" d="M250.21,-71.9C266.88,-60.65 294.4,-42.06 313.27,-29.32"/>
<polygon fill="green" stroke="green" stroke-width="0.51" points="315.03,-32.36 321.36,-23.86 311.11,-26.56 315.03,-32.36"/>
</g>
<!-- 69&#45;&gt;4 -->
<g id="edge17" class="edge">
<title>69&#45;&gt;4</title>
<path fill="none" stroke="green" stroke-width="0.19" d="M246.32,-67.96C253.78,-58.28 263.87,-45.19 272.1,-34.5"/>
<polygon fill="green" stroke="green" stroke-width="0.19" points="274.72,-36.84 278.05,-26.78 269.17,-32.57 274.72,-36.84"/>
</g>
<!-- 71&#45;&gt;0 -->
<g id="edge12" class="edge">
<title>71&#45;&gt;0</title>
<path fill="none" stroke="red" stroke-width="0.22" stroke-dasharray="1,5" d="M380.75,-64.63C380.75,-56.96 380.75,-47.77 380.75,-39.43"/>
<polygon fill="red" stroke="red" stroke-width="0.22" points="384.25,-39.49 380.75,-29.49 377.25,-39.49 384.25,-39.49"/>
</g>
<!-- 71&#45;&gt;3 -->
<g id="edge14" class="edge">
<title>71&#45;&gt;3</title>
<path fill="none" stroke="green" stroke-width="0.11" d="M370.78,-67.64C364.05,-58.15 355.06,-45.5 347.63,-35.03"/>
<polygon fill="green" stroke="green" stroke-width="0.11" points="350.57,-33.14 341.93,-27.01 344.87,-37.19 350.57,-33.14"/>
</g>
</g>
</svg>
