<?xml version="1.0" encoding="UTF-8" standalone="no"?>
<!DOCTYPE svg PUBLIC "-//W3C//DTD SVG 1.1//EN"
 "http://www.w3.org/Graphics/SVG/1.1/DTD/svg11.dtd">
<!-- Generated by graphviz version 12.1.1 (20240910.0053)
 -->
<!-- Pages: 1 -->
<svg width="701pt" height="253pt"
 viewBox="0.00 0.00 701.00 253.29" xmlns="http://www.w3.org/2000/svg" xmlns:xlink="http://www.w3.org/1999/xlink">
<g id="graph0" class="graph" transform="scale(1 1) rotate(0) translate(4 249.29)">
<polygon fill="white" stroke="none" points="-4,4 -4,-249.29 697,-249.29 697,4 -4,4"/>
<!-- &#45;1 -->
<g id="node1" class="node">
<title>&#45;1</title>
<polygon fill="lightgray" stroke="black" points="424.75,-245.29 401.25,-245.29 401.25,-226.79 424.75,-226.79 424.75,-245.29"/>
<text text-anchor="middle" x="413" y="-232.74" font-family="Times,serif" font-size="9.00">&#45;1</text>
</g>
<!-- &#45;2 -->
<g id="node2" class="node">
<title>&#45;2</title>
<polygon fill="lightgray" stroke="black" points="69.75,-179.18 46.25,-179.18 46.25,-160.68 69.75,-160.68 69.75,-179.18"/>
<text text-anchor="middle" x="58" y="-166.63" font-family="Times,serif" font-size="9.00">&#45;2</text>
</g>
<!-- 39 -->
<g id="node28" class="node">
<title>39</title>
<ellipse fill="white" stroke="black" cx="274" cy="-95.4" rx="17.68" ry="17.68"/>
<text text-anchor="middle" x="274" y="-92.1" font-family="Times,serif" font-size="9.00">39</text>
</g>
<!-- &#45;2&#45;&gt;39 -->
<g id="edge15" class="edge">
<title>&#45;2&#45;&gt;39</title>
<path fill="none" stroke="red" stroke-width="0.19" d="M65.02,-160.54C68.79,-156.53 73.73,-151.99 79,-149.07 135.24,-118.01 157.13,-130.4 219,-113.07 228.35,-110.45 238.55,-107.42 247.59,-104.65"/>
<polygon fill="red" stroke="red" stroke-width="0.19" points="248.4,-108.07 256.93,-101.78 246.34,-101.38 248.4,-108.07"/>
</g>
<!-- 40 -->
<g id="node29" class="node">
<title>40</title>
<ellipse fill="white" stroke="black" cx="91" cy="-95.4" rx="17.68" ry="17.68"/>
<text text-anchor="middle" x="91" y="-92.1" font-family="Times,serif" font-size="9.00">40</text>
</g>
<!-- &#45;2&#45;&gt;40 -->
<g id="edge17" class="edge">
<title>&#45;2&#45;&gt;40</title>
<path fill="none" stroke="red" stroke-width="0.32" d="M61.92,-160.33C66.28,-150.73 73.55,-134.75 79.73,-121.17"/>
<polygon fill="red" stroke="red" stroke-width="0.32" points="82.82,-122.82 83.78,-112.27 76.45,-119.93 82.82,-122.82"/>
</g>
<!-- &#45;3 -->
<g id="node3" class="node">
<title>&#45;3</title>
<polygon fill="lightgray" stroke="black" points="203.75,-179.18 180.25,-179.18 180.25,-160.68 203.75,-160.68 203.75,-179.18"/>
<text text-anchor="middle" x="192" y="-166.63" font-family="Times,serif" font-size="9.00">&#45;3</text>
</g>
<!-- 38 -->
<g id="node27" class="node">
<title>38</title>
<ellipse fill="white" stroke="black" cx="192" cy="-95.4" rx="17.68" ry="17.68"/>
<text text-anchor="middle" x="192" y="-92.1" font-family="Times,serif" font-size="9.00">38</text>
</g>
<!-- &#45;3&#45;&gt;38 -->
<g id="edge7" class="edge">
<title>&#45;3&#45;&gt;38</title>
<path fill="none" stroke="green" stroke-width="0.58" stroke-dasharray="1,5" d="M192,-160.33C192,-151.45 192,-137.12 192,-124.27"/>
<polygon fill="green" stroke="green" stroke-width="0.58" points="195.5,-124.41 192,-114.41 188.5,-124.41 195.5,-124.41"/>
</g>
<!-- &#45;3&#45;&gt;39 -->
<g id="edge6" class="edge">
<title>&#45;3&#45;&gt;39</title>
<path fill="none" stroke="red" stroke-width="0.43" d="M201.73,-160.33C214.42,-149.11 236.94,-129.18 253.48,-114.55"/>
<polygon fill="red" stroke="red" stroke-width="0.43" points="255.39,-117.53 260.56,-108.28 250.76,-112.29 255.39,-117.53"/>
</g>
<!-- &#45;4 -->
<g id="node4" class="node">
<title>&#45;4</title>
<polygon fill="lightgray" stroke="black" points="329.75,-179.18 306.25,-179.18 306.25,-160.68 329.75,-160.68 329.75,-179.18"/>
<text text-anchor="middle" x="318" y="-166.63" font-family="Times,serif" font-size="9.00">&#45;4</text>
</g>
<!-- 37 -->
<g id="node26" class="node">
<title>37</title>
<ellipse fill="white" stroke="black" cx="510" cy="-95.4" rx="17.68" ry="17.68"/>
<text text-anchor="middle" x="510" y="-92.1" font-family="Times,serif" font-size="9.00">37</text>
</g>
<!-- &#45;4&#45;&gt;37 -->
<g id="edge24" class="edge">
<title>&#45;4&#45;&gt;37</title>
<path fill="none" stroke="red" stroke-width="0.12" d="M325.46,-160.24C329.19,-156.36 333.97,-152.01 339,-149.07 385.44,-121.98 447.26,-107.44 482.43,-100.87"/>
<polygon fill="red" stroke="red" stroke-width="0.12" points="483.03,-104.31 492.26,-99.11 481.8,-97.42 483.03,-104.31"/>
</g>
<!-- &#45;4&#45;&gt;38 -->
<g id="edge4" class="edge">
<title>&#45;4&#45;&gt;38</title>
<path fill="none" stroke="green" stroke-width="0.23" stroke-dasharray="1,5" d="M309.91,-160.21C306.2,-156.5 301.6,-152.3 297,-149.07 271.8,-131.41 239.83,-116.27 217.82,-106.81"/>
<polygon fill="green" stroke="green" stroke-width="0.23" points="219.36,-103.67 208.79,-103.01 216.65,-110.12 219.36,-103.67"/>
</g>
<!-- &#45;4&#45;&gt;39 -->
<g id="edge32" class="edge">
<title>&#45;4&#45;&gt;39</title>
<path fill="none" stroke="green" stroke-width="0.23" stroke-dasharray="1,5" d="M312.78,-160.33C306.73,-150.35 296.51,-133.51 288.08,-119.61"/>
<polygon fill="green" stroke="green" stroke-width="0.23" points="291.22,-118.04 283.05,-111.31 285.24,-121.67 291.22,-118.04"/>
</g>
<!-- &#45;5 -->
<g id="node5" class="node">
<title>&#45;5</title>
<polygon fill="lightgray" stroke="black" points="512.75,-245.29 489.25,-245.29 489.25,-226.79 512.75,-226.79 512.75,-245.29"/>
<text text-anchor="middle" x="501" y="-232.74" font-family="Times,serif" font-size="9.00">&#45;5</text>
</g>
<!-- &#45;6 -->
<g id="node6" class="node">
<title>&#45;6</title>
<polygon fill="lightgray" stroke="black" points="649.75,-179.18 626.25,-179.18 626.25,-160.68 649.75,-160.68 649.75,-179.18"/>
<text text-anchor="middle" x="638" y="-166.63" font-family="Times,serif" font-size="9.00">&#45;6</text>
</g>
<!-- &#45;6&#45;&gt;37 -->
<g id="edge28" class="edge">
<title>&#45;6&#45;&gt;37</title>
<path fill="none" stroke="green" stroke-width="0.41" d="M627.43,-160.19C622.82,-156.55 617.28,-152.42 612,-149.07 586.97,-133.22 556.61,-118.02 535.55,-108.05"/>
<polygon fill="green" stroke="green" stroke-width="0.41" points="537.14,-104.93 526.6,-103.87 534.17,-111.27 537.14,-104.93"/>
</g>
<!-- &#45;7 -->
<g id="node7" class="node">
<title>&#45;7</title>
<polygon fill="lightgray" stroke="black" points="554.75,-245.29 531.25,-245.29 531.25,-226.79 554.75,-226.79 554.75,-245.29"/>
<text text-anchor="middle" x="543" y="-232.74" font-family="Times,serif" font-size="9.00">&#45;7</text>
</g>
<!-- &#45;8 -->
<g id="node8" class="node">
<title>&#45;8</title>
<polygon fill="lightgray" stroke="black" points="371.75,-179.18 348.25,-179.18 348.25,-160.68 371.75,-160.68 371.75,-179.18"/>
<text text-anchor="middle" x="360" y="-166.63" font-family="Times,serif" font-size="9.00">&#45;8</text>
</g>
<!-- &#45;8&#45;&gt;37 -->
<g id="edge13" class="edge">
<title>&#45;8&#45;&gt;37</title>
<path fill="none" stroke="green" stroke-width="0.13" stroke-dasharray="1,5" d="M367.58,-160.44C371.34,-156.6 376.11,-152.23 381,-149.07 413.81,-127.92 456.52,-112.5 483.61,-104"/>
<polygon fill="green" stroke="green" stroke-width="0.13" points="484.44,-107.4 492.98,-101.13 482.4,-100.71 484.44,-107.4"/>
</g>
<!-- &#45;8&#45;&gt;38 -->
<g id="edge21" class="edge">
<title>&#45;8&#45;&gt;38</title>
<path fill="none" stroke="red" stroke-width="0.64" stroke-dasharray="1,5" d="M352.48,-160.35C348.74,-156.48 343.96,-152.12 339,-149.07 318.54,-136.51 255.99,-116.1 219.41,-104.73"/>
<polygon fill="red" stroke="red" stroke-width="0.64" points="220.48,-101.4 209.9,-101.8 218.42,-108.09 220.48,-101.4"/>
</g>
<!-- &#45;8&#45;&gt;39 -->
<g id="edge5" class="edge">
<title>&#45;8&#45;&gt;39</title>
<path fill="none" stroke="red" stroke-width="0.3" stroke-dasharray="1,5" d="M351.15,-160.28C347.45,-156.74 343.08,-152.65 339,-149.07 324.97,-136.79 308.67,-123.58 295.9,-113.46"/>
<polygon fill="red" stroke="red" stroke-width="0.3" points="298.07,-110.71 288.04,-107.27 293.73,-116.21 298.07,-110.71"/>
</g>
<!-- &#45;9 -->
<g id="node9" class="node">
<title>&#45;9</title>
<polygon fill="lightgray" stroke="black" points="691.75,-179.18 668.25,-179.18 668.25,-160.68 691.75,-160.68 691.75,-179.18"/>
<text text-anchor="middle" x="680" y="-166.63" font-family="Times,serif" font-size="9.00">&#45;9</text>
</g>
<!-- &#45;9&#45;&gt;37 -->
<g id="edge16" class="edge">
<title>&#45;9&#45;&gt;37</title>
<path fill="none" stroke="green" stroke-width="0.16" d="M672.48,-160.34C668.74,-156.47 663.97,-152.11 659,-149.07 619.67,-125.03 567.79,-109.86 536.77,-102.27"/>
<polygon fill="green" stroke="green" stroke-width="0.16" points="537.86,-98.93 527.33,-100.04 536.25,-105.74 537.86,-98.93"/>
</g>
<!-- &#45;10 -->
<g id="node10" class="node">
<title>&#45;10</title>
<polygon fill="lightgray" stroke="black" points="524,-179.18 496,-179.18 496,-160.68 524,-160.68 524,-179.18"/>
<text text-anchor="middle" x="510" y="-166.63" font-family="Times,serif" font-size="9.00">&#45;10</text>
</g>
<!-- &#45;10&#45;&gt;37 -->
<g id="edge36" class="edge">
<title>&#45;10&#45;&gt;37</title>
<path fill="none" stroke="red" stroke-width="0.26" d="M510,-160.33C510,-151.36 510,-136.83 510,-123.88"/>
<polygon fill="red" stroke="red" stroke-width="0.26" points="513.5,-123.94 510,-113.94 506.5,-123.94 513.5,-123.94"/>
</g>
<!-- &#45;10&#45;&gt;39 -->
<g id="edge22" class="edge">
<title>&#45;10&#45;&gt;39</title>
<path fill="none" stroke="green" stroke-width="0.15" stroke-dasharray="1,5" d="M502.18,-160.54C498.03,-156.53 492.62,-151.98 487,-149.07 425.53,-117.28 344.03,-104.08 301.89,-99.1"/>
<polygon fill="green" stroke="green" stroke-width="0.15" points="302.37,-95.63 292.04,-98 301.59,-102.59 302.37,-95.63"/>
</g>
<!-- &#45;11 -->
<g id="node11" class="node">
<title>&#45;11</title>
<polygon fill="lightgray" stroke="black" points="162,-179.18 134,-179.18 134,-160.68 162,-160.68 162,-179.18"/>
<text text-anchor="middle" x="148" y="-166.63" font-family="Times,serif" font-size="9.00">&#45;11</text>
</g>
<!-- &#45;11&#45;&gt;37 -->
<g id="edge23" class="edge">
<title>&#45;11&#45;&gt;37</title>
<path fill="none" stroke="green" stroke-width="0.33" d="M155.71,-160.32C159.84,-156.26 165.25,-151.73 171,-149.07 226.42,-123.44 410.52,-105.08 481.63,-98.78"/>
<polygon fill="green" stroke="green" stroke-width="0.33" points="481.88,-102.27 491.54,-97.92 481.27,-95.3 481.88,-102.27"/>
</g>
<!-- &#45;11&#45;&gt;38 -->
<g id="edge27" class="edge">
<title>&#45;11&#45;&gt;38</title>
<path fill="none" stroke="red" stroke-width="0.39" stroke-dasharray="1,5" d="M153.22,-160.33C159.21,-150.45 169.29,-133.83 177.68,-120.01"/>
<polygon fill="red" stroke="red" stroke-width="0.39" points="180.64,-121.87 182.83,-111.51 174.65,-118.24 180.64,-121.87"/>
</g>
<!-- &#45;11&#45;&gt;40 -->
<g id="edge33" class="edge">
<title>&#45;11&#45;&gt;40</title>
<path fill="none" stroke="red" stroke-width="0.11" d="M141.24,-160.33C133.05,-149.91 118.98,-132 107.81,-117.79"/>
<polygon fill="red" stroke="red" stroke-width="0.11" points="110.67,-115.76 101.74,-110.06 105.16,-120.09 110.67,-115.76"/>
</g>
<!-- &#45;12 -->
<g id="node12" class="node">
<title>&#45;12</title>
<polygon fill="lightgray" stroke="black" points="28,-179.18 0,-179.18 0,-160.68 28,-160.68 28,-179.18"/>
<text text-anchor="middle" x="14" y="-166.63" font-family="Times,serif" font-size="9.00">&#45;12</text>
</g>
<!-- 3 -->
<g id="node24" class="node">
<title>3</title>
<ellipse fill="lightblue" stroke="black" cx="46" cy="-20.86" rx="14.5" ry="14.5"/>
<text text-anchor="middle" x="46" y="-17.56" font-family="Times,serif" font-size="9.00">3</text>
</g>
<!-- &#45;12&#45;&gt;3 -->
<g id="edge38" class="edge">
<title>&#45;12&#45;&gt;3</title>
<path fill="none" stroke="green" stroke-width="0.13" d="M15.81,-160.61C20.58,-138.67 33.63,-78.71 40.91,-45.24"/>
<polygon fill="green" stroke="green" stroke-width="0.13" points="44.31,-46.09 43.02,-35.57 37.47,-44.6 44.31,-46.09"/>
</g>
<!-- &#45;12&#45;&gt;38 -->
<g id="edge10" class="edge">
<title>&#45;12&#45;&gt;38</title>
<path fill="none" stroke="red" stroke-width="0.25" d="M22.35,-160.34C26.47,-156.48 31.69,-152.12 37,-149.07 78.66,-125.22 132.82,-109.91 164.85,-102.26"/>
<polygon fill="red" stroke="red" stroke-width="0.25" points="165.49,-105.7 174.44,-100.04 163.91,-98.88 165.49,-105.7"/>
</g>
<!-- &#45;12&#45;&gt;39 -->
<g id="edge2" class="edge">
<title>&#45;12&#45;&gt;39</title>
<path fill="none" stroke="red" stroke-width="0.13" d="M21.76,-160.42C25.9,-156.39 31.31,-151.85 37,-149.07 111.11,-112.93 139,-133.06 219,-113.07 228.42,-110.72 238.64,-107.74 247.67,-104.96"/>
<polygon fill="red" stroke="red" stroke-width="0.13" points="248.59,-108.34 257.08,-102 246.49,-101.66 248.59,-108.34"/>
</g>
<!-- &#45;12&#45;&gt;40 -->
<g id="edge9" class="edge">
<title>&#45;12&#45;&gt;40</title>
<path fill="none" stroke="green" stroke-width="0.18" stroke-dasharray="1,5" d="M23.14,-160.33C34.91,-149.23 55.71,-129.64 71.19,-115.06"/>
<polygon fill="green" stroke="green" stroke-width="0.18" points="73.22,-117.96 78.1,-108.55 68.42,-112.86 73.22,-117.96"/>
</g>
<!-- &#45;13 -->
<g id="node13" class="node">
<title>&#45;13</title>
<polygon fill="lightgray" stroke="black" points="471,-245.29 443,-245.29 443,-226.79 471,-226.79 471,-245.29"/>
<text text-anchor="middle" x="457" y="-232.74" font-family="Times,serif" font-size="9.00">&#45;13</text>
</g>
<!-- &#45;13&#45;&gt;37 -->
<g id="edge25" class="edge">
<title>&#45;13&#45;&gt;37</title>
<path fill="none" stroke="red" stroke-width="0.32" stroke-dasharray="1,5" d="M471.42,-229.87C503.62,-218.32 578.59,-191.37 579,-190.79 589.64,-175.61 587.22,-165.69 579,-149.07 569.92,-130.73 551.06,-117.02 535.34,-108.2"/>
<polygon fill="red" stroke="red" stroke-width="0.32" points="536.99,-105.11 526.51,-103.56 533.73,-111.3 536.99,-105.11"/>
</g>
<!-- &#45;13&#45;&gt;39 -->
<g id="edge35" class="edge">
<title>&#45;13&#45;&gt;39</title>
<path fill="none" stroke="green" stroke-width="0.26" stroke-dasharray="1,5" d="M442.51,-229.47C439.71,-228.5 436.78,-227.56 434,-226.79 354.1,-204.74 303.65,-254.81 251,-190.79 234.28,-170.46 246.5,-139.83 258.58,-119.01"/>
<polygon fill="green" stroke="green" stroke-width="0.26" points="261.53,-120.9 263.81,-110.55 255.58,-117.22 261.53,-120.9"/>
</g>
<!-- 316 -->
<g id="node31" class="node">
<title>316</title>
<ellipse fill="white" stroke="black" cx="457" cy="-169.93" rx="20.86" ry="20.86"/>
<text text-anchor="middle" x="457" y="-166.63" font-family="Times,serif" font-size="9.00">316</text>
</g>
<!-- &#45;13&#45;&gt;316 -->
<g id="edge39" class="edge">
<title>&#45;13&#45;&gt;316</title>
<path fill="none" stroke="green" stroke-width="0.24" d="M457,-226.4C457,-219.89 457,-210.56 457,-201.4"/>
<polygon fill="green" stroke="green" stroke-width="0.24" points="460.5,-201.65 457,-191.65 453.5,-201.65 460.5,-201.65"/>
</g>
<!-- &#45;14 -->
<g id="node14" class="node">
<title>&#45;14</title>
<polygon fill="lightgray" stroke="black" points="601,-245.29 573,-245.29 573,-226.79 601,-226.79 601,-245.29"/>
<text text-anchor="middle" x="587" y="-232.74" font-family="Times,serif" font-size="9.00">&#45;14</text>
</g>
<!-- &#45;15 -->
<g id="node15" class="node">
<title>&#45;15</title>
<polygon fill="lightgray" stroke="black" points="570,-179.18 542,-179.18 542,-160.68 570,-160.68 570,-179.18"/>
<text text-anchor="middle" x="556" y="-166.63" font-family="Times,serif" font-size="9.00">&#45;15</text>
</g>
<!-- &#45;15&#45;&gt;37 -->
<g id="edge12" class="edge">
<title>&#45;15&#45;&gt;37</title>
<path fill="none" stroke="red" stroke-width="0.49" d="M550.54,-160.33C544.28,-150.45 533.74,-133.83 524.97,-120.01"/>
<polygon fill="red" stroke="red" stroke-width="0.49" points="527.98,-118.21 519.67,-111.64 522.07,-121.96 527.98,-118.21"/>
</g>
<!-- &#45;15&#45;&gt;39 -->
<g id="edge29" class="edge">
<title>&#45;15&#45;&gt;39</title>
<path fill="none" stroke="green" stroke-width="0.35" d="M548.23,-160.44C544.09,-156.4 538.68,-151.87 533,-149.07 455.43,-110.98 351.82,-100.43 302.46,-97.51"/>
<polygon fill="green" stroke="green" stroke-width="0.35" points="302.65,-94.01 292.48,-96.98 302.28,-101 302.65,-94.01"/>
</g>
<!-- &#45;16 -->
<g id="node16" class="node">
<title>&#45;16</title>
<polygon fill="lightgray" stroke="black" points="647,-245.29 619,-245.29 619,-226.79 647,-226.79 647,-245.29"/>
<text text-anchor="middle" x="633" y="-232.74" font-family="Times,serif" font-size="9.00">&#45;16</text>
</g>
<!-- &#45;17 -->
<g id="node17" class="node">
<title>&#45;17</title>
<polygon fill="lightgray" stroke="black" points="418,-179.18 390,-179.18 390,-160.68 418,-160.68 418,-179.18"/>
<text text-anchor="middle" x="404" y="-166.63" font-family="Times,serif" font-size="9.00">&#45;17</text>
</g>
<!-- &#45;17&#45;&gt;37 -->
<g id="edge18" class="edge">
<title>&#45;17&#45;&gt;37</title>
<path fill="none" stroke="red" stroke-width="0.17" d="M413.14,-160.5C417.26,-156.84 422.26,-152.6 427,-149.07 446.19,-134.82 469.23,-120.4 486.16,-110.25"/>
<polygon fill="red" stroke="red" stroke-width="0.17" points="487.83,-113.33 494.64,-105.22 484.26,-107.31 487.83,-113.33"/>
</g>
<!-- &#45;17&#45;&gt;38 -->
<g id="edge1" class="edge">
<title>&#45;17&#45;&gt;38</title>
<path fill="none" stroke="red" stroke-width="0.82" d="M396.16,-160.58C392,-156.59 386.59,-152.04 381,-149.07 326.51,-120.2 306.29,-130.02 247,-113.07 237.96,-110.49 228.13,-107.55 219.3,-104.86"/>
<polygon fill="red" stroke="red" stroke-width="0.82" points="220.58,-101.59 209.99,-102.01 218.53,-108.29 220.58,-101.59"/>
</g>
<!-- &#45;17&#45;&gt;39 -->
<g id="edge8" class="edge">
<title>&#45;17&#45;&gt;39</title>
<path fill="none" stroke="green" stroke-width="0.15" d="M395.03,-160.25C390.94,-156.55 385.93,-152.34 381,-149.07 354.68,-131.65 321.77,-116.3 299.44,-106.73"/>
<polygon fill="green" stroke="green" stroke-width="0.15" points="301.07,-103.62 290.49,-102.96 298.35,-110.07 301.07,-103.62"/>
</g>
<!-- &#45;18 -->
<g id="node18" class="node">
<title>&#45;18</title>
<polygon fill="lightgray" stroke="black" points="116,-179.18 88,-179.18 88,-160.68 116,-160.68 116,-179.18"/>
<text text-anchor="middle" x="102" y="-166.63" font-family="Times,serif" font-size="9.00">&#45;18</text>
</g>
<!-- &#45;18&#45;&gt;38 -->
<g id="edge43" class="edge">
<title>&#45;18&#45;&gt;38</title>
<path fill="none" stroke="green" stroke-width="0.42" stroke-dasharray="1,5" d="M111.76,-160.33C115.82,-156.8 120.6,-152.7 125,-149.07 139.89,-136.8 157,-123.36 170.2,-113.13"/>
<polygon fill="green" stroke="green" stroke-width="0.42" points="171.98,-116.18 177.75,-107.29 167.7,-110.64 171.98,-116.18"/>
</g>
<!-- &#45;18&#45;&gt;39 -->
<g id="edge11" class="edge">
<title>&#45;18&#45;&gt;39</title>
<path fill="none" stroke="red" stroke-width="0.14" d="M110.36,-160.37C114.49,-156.51 119.71,-152.15 125,-149.07 146.25,-136.73 210.73,-115.87 247.53,-104.45"/>
<polygon fill="red" stroke="red" stroke-width="0.14" points="248.39,-107.85 256.92,-101.56 246.33,-101.16 248.39,-107.85"/>
</g>
<!-- &#45;18&#45;&gt;40 -->
<g id="edge30" class="edge">
<title>&#45;18&#45;&gt;40</title>
<path fill="none" stroke="red" stroke-width="0.4" d="M100.69,-160.33C99.33,-151.3 97.1,-136.64 95.13,-123.63"/>
<polygon fill="red" stroke="red" stroke-width="0.4" points="98.61,-123.22 93.65,-113.86 91.69,-124.27 98.61,-123.22"/>
</g>
<!-- &#45;19 -->
<g id="node19" class="node">
<title>&#45;19</title>
<polygon fill="lightgray" stroke="black" points="693,-245.29 665,-245.29 665,-226.79 693,-226.79 693,-245.29"/>
<text text-anchor="middle" x="679" y="-232.74" font-family="Times,serif" font-size="9.00">&#45;19</text>
</g>
<!-- &#45;20 -->
<g id="node20" class="node">
<title>&#45;20</title>
<polygon fill="lightgray" stroke="black" points="288,-179.18 260,-179.18 260,-160.68 288,-160.68 288,-179.18"/>
<text text-anchor="middle" x="274" y="-166.63" font-family="Times,serif" font-size="9.00">&#45;20</text>
</g>
<!-- &#45;20&#45;&gt;39 -->
<g id="edge14" class="edge">
<title>&#45;20&#45;&gt;39</title>
<path fill="none" stroke="red" stroke-width="0.44" d="M274,-160.33C274,-151.36 274,-136.83 274,-123.88"/>
<polygon fill="red" stroke="red" stroke-width="0.44" points="277.5,-124.2 274,-114.2 270.5,-124.2 277.5,-124.2"/>
</g>
<!-- 0 -->
<g id="node21" class="node">
<title>0</title>
<ellipse fill="lightblue" stroke="black" cx="180" cy="-20.86" rx="14.5" ry="14.5"/>
<text text-anchor="middle" x="180" y="-17.56" font-family="Times,serif" font-size="9.00">0</text>
</g>
<!-- 1 -->
<g id="node22" class="node">
<title>1</title>
<ellipse fill="lightblue" stroke="black" cx="457" cy="-20.86" rx="14.5" ry="14.5"/>
<text text-anchor="middle" x="457" y="-17.56" font-family="Times,serif" font-size="9.00">1</text>
</g>
<!-- 2 -->
<g id="node23" class="node">
<title>2</title>
<ellipse fill="lightblue" stroke="black" cx="227" cy="-20.86" rx="14.5" ry="14.5"/>
<text text-anchor="middle" x="227" y="-17.56" font-family="Times,serif" font-size="9.00">2</text>
</g>
<!-- 4 -->
<g id="node25" class="node">
<title>4</title>
<ellipse fill="lightblue" stroke="black" cx="103" cy="-20.86" rx="14.5" ry="14.5"/>
<text text-anchor="middle" x="103" y="-17.56" font-family="Times,serif" font-size="9.00">4</text>
</g>
<!-- 4&#45;&gt;4 -->
<g id="edge20" class="edge">
<title>4&#45;&gt;4</title>
<path fill="none" stroke="red" stroke-width="0.21" d="M112.98,-31.56C123.56,-38.26 135.5,-34.69 135.5,-20.86 135.5,-11.14 129.6,-6.49 122.41,-6.91"/>
<polygon fill="red" stroke="red" stroke-width="0.21" points="121.59,-3.49 113.27,-10.06 123.87,-10.11 121.59,-3.49"/>
</g>
<!-- 37&#45;&gt;1 -->
<g id="edge37" class="edge">
<title>37&#45;&gt;1</title>
<path fill="none" stroke="red" stroke-width="0.29" d="M499.78,-80.41C491.65,-69.28 480.17,-53.58 471.16,-41.24"/>
<polygon fill="red" stroke="red" stroke-width="0.29" points="474.09,-39.32 465.36,-33.31 468.44,-43.45 474.09,-39.32"/>
</g>
<!-- 329 -->
<g id="node30" class="node">
<title>329</title>
<ellipse fill="white" stroke="black" cx="510" cy="-20.86" rx="20.86" ry="20.86"/>
<text text-anchor="middle" x="510" y="-17.56" font-family="Times,serif" font-size="9.00">329</text>
</g>
<!-- 37&#45;&gt;329 -->
<g id="edge41" class="edge">
<title>37&#45;&gt;329</title>
<path fill="none" stroke="green" stroke-width="0.51" d="M504.28,-78.3C503.39,-70.52 503.08,-60.94 503.34,-51.88"/>
<polygon fill="green" stroke="green" stroke-width="0.51" points="506.83,-52.21 503.9,-42.03 499.84,-51.81 506.83,-52.21"/>
</g>
<!-- 38&#45;&gt;0 -->
<g id="edge19" class="edge">
<title>38&#45;&gt;0</title>
<path fill="none" stroke="red" stroke-width="0.25" stroke-dasharray="1,5" d="M189.22,-77.57C187.65,-68.13 185.68,-56.19 183.96,-45.79"/>
<polygon fill="red" stroke="red" stroke-width="0.25" points="187.43,-45.35 182.35,-36.05 180.53,-46.49 187.43,-45.35"/>
</g>
<!-- 38&#45;&gt;2 -->
<g id="edge34" class="edge">
<title>38&#45;&gt;2</title>
<path fill="none" stroke="green" stroke-width="0.26" d="M199.42,-79.01C204.39,-68.72 211,-55.02 216.5,-43.62"/>
<polygon fill="green" stroke="green" stroke-width="0.26" points="219.62,-45.21 220.81,-34.68 213.32,-42.17 219.62,-45.21"/>
</g>
<!-- 39&#45;&gt;4 -->
<g id="edge3" class="edge">
<title>39&#45;&gt;4</title>
<path fill="none" stroke="red" stroke-width="0.16" d="M257.91,-87.57C227.34,-74.6 160.78,-46.37 125.69,-31.49"/>
<polygon fill="red" stroke="red" stroke-width="0.16" points="127.08,-28.27 116.51,-27.59 124.35,-34.72 127.08,-28.27"/>
</g>
<!-- 40&#45;&gt;3 -->
<g id="edge26" class="edge">
<title>40&#45;&gt;3</title>
<path fill="none" stroke="green" stroke-width="0.59" d="M81.89,-79.72C75.31,-69.11 66.33,-54.63 58.99,-42.81"/>
<polygon fill="green" stroke="green" stroke-width="0.59" points="62.03,-41.06 53.78,-34.41 56.08,-44.75 62.03,-41.06"/>
</g>
<!-- 40&#45;&gt;4 -->
<g id="edge31" class="edge">
<title>40&#45;&gt;4</title>
<path fill="none" stroke="red" stroke-width="0.11" stroke-dasharray="1,5" d="M93.78,-77.57C95.36,-68.03 97.36,-55.94 99.1,-45.46"/>
<polygon fill="red" stroke="red" stroke-width="0.11" points="102.51,-46.27 100.69,-35.84 95.6,-45.13 102.51,-46.27"/>
</g>
<!-- 329&#45;&gt;37 -->
<g id="edge42" class="edge">
<title>329&#45;&gt;37</title>
<path fill="none" stroke="green" stroke-width="0.32" d="M516.05,-41.27C516.79,-49.49 516.94,-59.21 516.52,-68.07"/>
<polygon fill="green" stroke="green" stroke-width="0.32" points="513.05,-67.58 515.76,-77.82 520.03,-68.12 513.05,-67.58"/>
</g>
<!-- 316&#45;&gt;39 -->
<g id="edge40" class="edge">
<title>316&#45;&gt;39</title>
<path fill="none" stroke="green" stroke-width="0.11" d="M440.31,-156.81C436.09,-154.05 431.48,-151.28 427,-149.07 384.67,-128.2 332,-112.04 300.8,-103.39"/>
<polygon fill="green" stroke="green" stroke-width="0.11" points="301.82,-100.04 291.25,-100.8 299.98,-106.8 301.82,-100.04"/>
</g>
</g>
</svg>
