<?xml version="1.0" encoding="UTF-8" standalone="no"?>
<!DOCTYPE svg PUBLIC "-//W3C//DTD SVG 1.1//EN"
 "http://www.w3.org/Graphics/SVG/1.1/DTD/svg11.dtd">
<!-- Generated by graphviz version 12.1.1 (20240910.0053)
 -->
<!-- Pages: 1 -->
<svg width="922pt" height="257pt"
 viewBox="0.00 0.00 922.00 257.42" xmlns="http://www.w3.org/2000/svg" xmlns:xlink="http://www.w3.org/1999/xlink">
<g id="graph0" class="graph" transform="scale(1 1) rotate(0) translate(4 253.42)">
<polygon fill="white" stroke="none" points="-4,4 -4,-253.42 918,-253.42 918,4 -4,4"/>
<!-- &#45;1 -->
<g id="node1" class="node">
<title>&#45;1</title>
<polygon fill="lightgray" stroke="black" points="649.75,-172.82 626.25,-172.82 626.25,-154.32 649.75,-154.32 649.75,-172.82"/>
<text text-anchor="middle" x="638" y="-160.27" font-family="Times,serif" font-size="9.00">&#45;1</text>
</g>
<!-- 112 -->
<g id="node29" class="node">
<title>112</title>
<ellipse fill="white" stroke="black" cx="512" cy="-85.85" rx="20.86" ry="20.86"/>
<text text-anchor="middle" x="512" y="-82.55" font-family="Times,serif" font-size="9.00">112</text>
</g>
<!-- &#45;1&#45;&gt;112 -->
<g id="edge33" class="edge">
<title>&#45;1&#45;&gt;112</title>
<path fill="none" stroke="green" stroke-width="0.13" d="M629.87,-153.9C626.15,-150.2 621.56,-145.99 617,-142.71 592.61,-125.18 562.03,-109.53 540.18,-99.29"/>
<polygon fill="green" stroke="green" stroke-width="0.13" points="541.83,-96.2 531.28,-95.2 538.9,-102.56 541.83,-96.2"/>
</g>
<!-- &#45;2 -->
<g id="node2" class="node">
<title>&#45;2</title>
<polygon fill="lightgray" stroke="black" points="459.75,-172.82 436.25,-172.82 436.25,-154.32 459.75,-154.32 459.75,-172.82"/>
<text text-anchor="middle" x="448" y="-160.27" font-family="Times,serif" font-size="9.00">&#45;2</text>
</g>
<!-- 110 -->
<g id="node27" class="node">
<title>110</title>
<ellipse fill="white" stroke="black" cx="409" cy="-85.85" rx="20.86" ry="20.86"/>
<text text-anchor="middle" x="409" y="-82.55" font-family="Times,serif" font-size="9.00">110</text>
</g>
<!-- &#45;2&#45;&gt;110 -->
<g id="edge2" class="edge">
<title>&#45;2&#45;&gt;110</title>
<path fill="none" stroke="red" stroke-width="0.41" d="M443.53,-153.88C438.55,-144.23 430.27,-128.14 423.06,-114.15"/>
<polygon fill="red" stroke="red" stroke-width="0.41" points="426.27,-112.73 418.58,-105.45 420.05,-115.94 426.27,-112.73"/>
</g>
<!-- 111 -->
<g id="node28" class="node">
<title>111</title>
<ellipse fill="white" stroke="black" cx="316" cy="-85.85" rx="20.86" ry="20.86"/>
<text text-anchor="middle" x="316" y="-82.55" font-family="Times,serif" font-size="9.00">111</text>
</g>
<!-- &#45;2&#45;&gt;111 -->
<g id="edge16" class="edge">
<title>&#45;2&#45;&gt;111</title>
<path fill="none" stroke="red" stroke-width="0.12" stroke-dasharray="1,5" d="M439.91,-153.85C436.2,-150.14 431.6,-145.94 427,-142.71 400.89,-124.39 367.9,-108.59 344.7,-98.52"/>
<polygon fill="red" stroke="red" stroke-width="0.12" points="346.15,-95.33 335.58,-94.64 343.41,-101.77 346.15,-95.33"/>
</g>
<!-- &#45;2&#45;&gt;112 -->
<g id="edge35" class="edge">
<title>&#45;2&#45;&gt;112</title>
<path fill="none" stroke="red" stroke-width="0.17" stroke-dasharray="1,5" d="M455.34,-153.88C464.26,-143.33 479.67,-125.1 492.17,-110.32"/>
<polygon fill="red" stroke="red" stroke-width="0.17" points="494.81,-112.61 498.59,-102.72 489.46,-108.1 494.81,-112.61"/>
</g>
<!-- &#45;3 -->
<g id="node3" class="node">
<title>&#45;3</title>
<polygon fill="lightgray" stroke="black" points="417.75,-172.82 394.25,-172.82 394.25,-154.32 417.75,-154.32 417.75,-172.82"/>
<text text-anchor="middle" x="406" y="-160.27" font-family="Times,serif" font-size="9.00">&#45;3</text>
</g>
<!-- 109 -->
<g id="node26" class="node">
<title>109</title>
<ellipse fill="white" stroke="black" cx="256" cy="-85.85" rx="20.86" ry="20.86"/>
<text text-anchor="middle" x="256" y="-82.55" font-family="Times,serif" font-size="9.00">109</text>
</g>
<!-- &#45;3&#45;&gt;109 -->
<g id="edge6" class="edge">
<title>&#45;3&#45;&gt;109</title>
<path fill="none" stroke="green" stroke-width="0.29" stroke-dasharray="1,5" d="M398.47,-153.99C394.73,-150.13 389.95,-145.77 385,-142.71 345.16,-118.11 327.81,-127.78 286,-106.71 284.47,-105.94 282.92,-105.1 281.37,-104.22"/>
<polygon fill="green" stroke="green" stroke-width="0.29" points="283.45,-101.39 273.09,-99.15 279.79,-107.36 283.45,-101.39"/>
</g>
<!-- &#45;3&#45;&gt;110 -->
<g id="edge11" class="edge">
<title>&#45;3&#45;&gt;110</title>
<path fill="none" stroke="green" stroke-width="0.19" stroke-dasharray="1,5" d="M406.34,-153.88C406.7,-144.93 407.27,-130.46 407.8,-117.26"/>
<polygon fill="green" stroke="green" stroke-width="0.19" points="411.29,-117.48 408.19,-107.35 404.29,-117.21 411.29,-117.48"/>
</g>
<!-- &#45;3&#45;&gt;112 -->
<g id="edge34" class="edge">
<title>&#45;3&#45;&gt;112</title>
<path fill="none" stroke="green" stroke-width="0.75" d="M414.28,-154.1C418.02,-150.44 422.59,-146.2 427,-142.71 445.4,-128.15 467.61,-113.65 484.71,-103.07"/>
<polygon fill="green" stroke="green" stroke-width="0.75" points="486.43,-106.12 493.15,-97.92 482.79,-100.15 486.43,-106.12"/>
</g>
<!-- &#45;4 -->
<g id="node4" class="node">
<title>&#45;4</title>
<polygon fill="lightgray" stroke="black" points="195.75,-172.82 172.25,-172.82 172.25,-154.32 195.75,-154.32 195.75,-172.82"/>
<text text-anchor="middle" x="184" y="-160.27" font-family="Times,serif" font-size="9.00">&#45;4</text>
</g>
<!-- 1 -->
<g id="node22" class="node">
<title>1</title>
<ellipse fill="lightblue" stroke="black" cx="261" cy="-14.5" rx="14.5" ry="14.5"/>
<text text-anchor="middle" x="261" y="-11.2" font-family="Times,serif" font-size="9.00">1</text>
</g>
<!-- &#45;4&#45;&gt;1 -->
<g id="edge46" class="edge">
<title>&#45;4&#45;&gt;1</title>
<path fill="none" stroke="green" stroke-width="0.19" d="M187.02,-153.93C193.25,-136.56 208.41,-96.36 226,-64.99 231.87,-54.53 239.45,-43.57 246.06,-34.63"/>
<polygon fill="green" stroke="green" stroke-width="0.19" points="248.82,-36.77 252.06,-26.69 243.24,-32.55 248.82,-36.77"/>
</g>
<!-- &#45;4&#45;&gt;111 -->
<g id="edge42" class="edge">
<title>&#45;4&#45;&gt;111</title>
<path fill="none" stroke="red" stroke-width="0.45" stroke-dasharray="1,5" d="M191.63,-154.14C195.39,-150.32 200.16,-145.94 205,-142.71 237.78,-120.86 251.46,-125.65 286,-106.71 287.37,-105.96 288.76,-105.17 290.15,-104.35"/>
<polygon fill="red" stroke="red" stroke-width="0.45" points="291.98,-107.33 298.6,-99.06 288.26,-101.4 291.98,-107.33"/>
</g>
<!-- &#45;4&#45;&gt;112 -->
<g id="edge5" class="edge">
<title>&#45;4&#45;&gt;112</title>
<path fill="none" stroke="green" stroke-width="0.42" d="M190.9,-153.95C194.64,-149.89 199.59,-145.36 205,-142.71 299.51,-96.46 336.07,-128.56 439,-106.71 453.29,-103.68 468.95,-99.53 482.09,-95.81"/>
<polygon fill="green" stroke="green" stroke-width="0.42" points="482.76,-99.26 491.39,-93.12 480.82,-92.53 482.76,-99.26"/>
</g>
<!-- &#45;5 -->
<g id="node5" class="node">
<title>&#45;5</title>
<polygon fill="lightgray" stroke="black" points="283.75,-172.82 260.25,-172.82 260.25,-154.32 283.75,-154.32 283.75,-172.82"/>
<text text-anchor="middle" x="272" y="-160.27" font-family="Times,serif" font-size="9.00">&#45;5</text>
</g>
<!-- &#45;5&#45;&gt;109 -->
<g id="edge22" class="edge">
<title>&#45;5&#45;&gt;109</title>
<path fill="none" stroke="red" stroke-width="0.4" d="M270.16,-153.88C268.26,-144.87 265.17,-130.27 262.37,-116.98"/>
<polygon fill="red" stroke="red" stroke-width="0.4" points="265.82,-116.4 260.33,-107.34 258.97,-117.84 265.82,-116.4"/>
</g>
<!-- &#45;5&#45;&gt;112 -->
<g id="edge20" class="edge">
<title>&#45;5&#45;&gt;112</title>
<path fill="none" stroke="red" stroke-width="0.1" stroke-dasharray="1,5" d="M279.01,-154.15C282.77,-150.14 287.71,-145.6 293,-142.71 351.66,-110.69 374.31,-123.48 439,-106.71 453.29,-103.01 469.09,-98.73 482.34,-95.09"/>
<polygon fill="red" stroke="red" stroke-width="0.1" points="483.03,-98.53 491.74,-92.5 481.17,-91.78 483.03,-98.53"/>
</g>
<!-- &#45;6 -->
<g id="node6" class="node">
<title>&#45;6</title>
<polygon fill="lightgray" stroke="black" points="642.75,-244.18 619.25,-244.18 619.25,-225.68 642.75,-225.68 642.75,-244.18"/>
<text text-anchor="middle" x="631" y="-231.63" font-family="Times,serif" font-size="9.00">&#45;6</text>
</g>
<!-- &#45;7 -->
<g id="node7" class="node">
<title>&#45;7</title>
<polygon fill="lightgray" stroke="black" points="501.75,-172.82 478.25,-172.82 478.25,-154.32 501.75,-154.32 501.75,-172.82"/>
<text text-anchor="middle" x="490" y="-160.27" font-family="Times,serif" font-size="9.00">&#45;7</text>
</g>
<!-- &#45;7&#45;&gt;110 -->
<g id="edge1" class="edge">
<title>&#45;7&#45;&gt;110</title>
<path fill="none" stroke="red" stroke-width="0.24" d="M481.02,-154.05C477.31,-150.53 472.95,-146.42 469,-142.71 456.52,-131 442.53,-117.97 431.19,-107.44"/>
<polygon fill="red" stroke="red" stroke-width="0.24" points="433.8,-105.08 424.09,-100.84 429.04,-110.21 433.8,-105.08"/>
</g>
<!-- &#45;7&#45;&gt;112 -->
<g id="edge36" class="edge">
<title>&#45;7&#45;&gt;112</title>
<path fill="none" stroke="red" stroke-width="0.46" d="M492.52,-153.88C495.19,-144.72 499.53,-129.77 503.44,-116.32"/>
<polygon fill="red" stroke="red" stroke-width="0.46" points="506.69,-117.68 506.12,-107.1 499.96,-115.73 506.69,-117.68"/>
</g>
<!-- &#45;8 -->
<g id="node8" class="node">
<title>&#45;8</title>
<polygon fill="lightgray" stroke="black" points="691.75,-172.82 668.25,-172.82 668.25,-154.32 691.75,-154.32 691.75,-172.82"/>
<text text-anchor="middle" x="680" y="-160.27" font-family="Times,serif" font-size="9.00">&#45;8</text>
</g>
<!-- &#45;8&#45;&gt;112 -->
<g id="edge14" class="edge">
<title>&#45;8&#45;&gt;112</title>
<path fill="none" stroke="red" stroke-width="0.13" stroke-dasharray="1,5" d="M672.45,-154.02C668.7,-150.17 663.93,-145.8 659,-142.71 621.6,-119.25 572.79,-103.14 541.91,-94.45"/>
<polygon fill="red" stroke="red" stroke-width="0.13" points="542.92,-91.1 532.35,-91.84 541.08,-97.85 542.92,-91.1"/>
</g>
<!-- &#45;9 -->
<g id="node9" class="node">
<title>&#45;9</title>
<polygon fill="lightgray" stroke="black" points="69.75,-172.82 46.25,-172.82 46.25,-154.32 69.75,-154.32 69.75,-172.82"/>
<text text-anchor="middle" x="58" y="-160.27" font-family="Times,serif" font-size="9.00">&#45;9</text>
</g>
<!-- &#45;9&#45;&gt;109 -->
<g id="edge37" class="edge">
<title>&#45;9&#45;&gt;109</title>
<path fill="none" stroke="green" stroke-width="0.42" d="M67.59,-153.99C72.28,-150.14 78.17,-145.77 84,-142.71 130.61,-118.26 189.94,-101.87 225.34,-93.48"/>
<polygon fill="green" stroke="green" stroke-width="0.42" points="225.94,-96.93 234.9,-91.27 224.37,-90.11 225.94,-96.93"/>
</g>
<!-- &#45;10 -->
<g id="node10" class="node">
<title>&#45;10</title>
<polygon fill="lightgray" stroke="black" points="601,-244.18 573,-244.18 573,-225.68 601,-225.68 601,-244.18"/>
<text text-anchor="middle" x="587" y="-231.63" font-family="Times,serif" font-size="9.00">&#45;10</text>
</g>
<!-- &#45;10&#45;&gt;109 -->
<g id="edge23" class="edge">
<title>&#45;10&#45;&gt;109</title>
<path fill="none" stroke="red" stroke-width="0.2" stroke-dasharray="1,5" d="M572.98,-233.54C498.18,-231.35 148.36,-219.26 117,-184.43 104.59,-170.65 106.62,-158.07 117,-142.71 141.05,-107.13 191.91,-94.21 224.98,-89.52"/>
<polygon fill="red" stroke="red" stroke-width="0.2" points="225.25,-93.01 234.74,-88.3 224.39,-86.07 225.25,-93.01"/>
</g>
<!-- &#45;10&#45;&gt;112 -->
<g id="edge30" class="edge">
<title>&#45;10&#45;&gt;112</title>
<path fill="none" stroke="red" stroke-width="0.42" stroke-dasharray="1,5" d="M600.92,-225.3C603.87,-223.6 607,-221.89 610,-220.43 649.09,-201.37 676.55,-220.4 701,-184.43 711.42,-169.1 712.1,-157.56 701,-142.71 682.05,-117.36 591.78,-99.47 543.17,-91.51"/>
<polygon fill="red" stroke="red" stroke-width="0.42" points="543.96,-88.09 533.53,-89.97 542.85,-95 543.96,-88.09"/>
</g>
<!-- 281 -->
<g id="node30" class="node">
<title>281</title>
<ellipse fill="white" stroke="black" cx="587" cy="-163.57" rx="20.86" ry="20.86"/>
<text text-anchor="middle" x="587" y="-160.27" font-family="Times,serif" font-size="9.00">281</text>
</g>
<!-- &#45;10&#45;&gt;281 -->
<g id="edge44" class="edge">
<title>&#45;10&#45;&gt;281</title>
<path fill="none" stroke="green" stroke-width="0.31" d="M587,-225.42C587,-217.8 587,-206.15 587,-195.07"/>
<polygon fill="green" stroke="green" stroke-width="0.31" points="590.5,-195.24 587,-185.24 583.5,-195.25 590.5,-195.24"/>
</g>
<!-- &#45;11 -->
<g id="node11" class="node">
<title>&#45;11</title>
<polygon fill="lightgray" stroke="black" points="776,-172.82 748,-172.82 748,-154.32 776,-154.32 776,-172.82"/>
<text text-anchor="middle" x="762" y="-160.27" font-family="Times,serif" font-size="9.00">&#45;11</text>
</g>
<!-- &#45;11&#45;&gt;112 -->
<g id="edge38" class="edge">
<title>&#45;11&#45;&gt;112</title>
<path fill="none" stroke="red" stroke-width="0.11" stroke-dasharray="1,5" d="M751.67,-153.84C746.62,-149.95 740.28,-145.6 734,-142.71 669.47,-112.98 586.82,-97.54 542.81,-90.92"/>
<polygon fill="red" stroke="red" stroke-width="0.11" points="543.32,-87.46 532.92,-89.48 542.31,-94.38 543.32,-87.46"/>
</g>
<!-- &#45;12 -->
<g id="node12" class="node">
<title>&#45;12</title>
<polygon fill="lightgray" stroke="black" points="330,-172.82 302,-172.82 302,-154.32 330,-154.32 330,-172.82"/>
<text text-anchor="middle" x="316" y="-160.27" font-family="Times,serif" font-size="9.00">&#45;12</text>
</g>
<!-- &#45;12&#45;&gt;109 -->
<g id="edge27" class="edge">
<title>&#45;12&#45;&gt;109</title>
<path fill="none" stroke="red" stroke-width="0.49" d="M309.12,-153.88C300.88,-143.49 286.75,-125.66 275.14,-111"/>
<polygon fill="red" stroke="red" stroke-width="0.49" points="278.06,-109.06 269.11,-103.39 272.58,-113.41 278.06,-109.06"/>
</g>
<!-- &#45;12&#45;&gt;111 -->
<g id="edge17" class="edge">
<title>&#45;12&#45;&gt;111</title>
<path fill="none" stroke="green" stroke-width="0.13" d="M316,-153.88C316,-144.93 316,-130.46 316,-117.26"/>
<polygon fill="green" stroke="green" stroke-width="0.13" points="319.5,-117.26 316,-107.26 312.5,-117.26 319.5,-117.26"/>
</g>
<!-- &#45;12&#45;&gt;112 -->
<g id="edge12" class="edge">
<title>&#45;12&#45;&gt;112</title>
<path fill="none" stroke="red" stroke-width="0.23" d="M324.33,-153.94C328.44,-150.07 333.67,-145.71 339,-142.71 363.78,-128.78 439.35,-106.79 481.96,-94.99"/>
<polygon fill="red" stroke="red" stroke-width="0.23" points="482.74,-98.4 491.45,-92.38 480.88,-91.65 482.74,-98.4"/>
</g>
<!-- &#45;13 -->
<g id="node13" class="node">
<title>&#45;13</title>
<polygon fill="lightgray" stroke="black" points="28,-172.82 0,-172.82 0,-154.32 28,-154.32 28,-172.82"/>
<text text-anchor="middle" x="14" y="-160.27" font-family="Times,serif" font-size="9.00">&#45;13</text>
</g>
<!-- &#45;13&#45;&gt;109 -->
<g id="edge7" class="edge">
<title>&#45;13&#45;&gt;109</title>
<path fill="none" stroke="red" stroke-width="0.45" stroke-dasharray="1,5" d="M21.82,-154.19C25.98,-150.19 31.39,-145.64 37,-142.71 98.89,-110.41 180.54,-96.03 224.58,-90.26"/>
<polygon fill="red" stroke="red" stroke-width="0.45" points="224.77,-93.76 234.26,-89.05 223.91,-86.81 224.77,-93.76"/>
</g>
<!-- &#45;14 -->
<g id="node14" class="node">
<title>&#45;14</title>
<polygon fill="lightgray" stroke="black" points="822,-172.82 794,-172.82 794,-154.32 822,-154.32 822,-172.82"/>
<text text-anchor="middle" x="808" y="-160.27" font-family="Times,serif" font-size="9.00">&#45;14</text>
</g>
<!-- &#45;14&#45;&gt;112 -->
<g id="edge43" class="edge">
<title>&#45;14&#45;&gt;112</title>
<path fill="none" stroke="green" stroke-width="0.3" d="M800.23,-154.08C796.09,-150.04 790.68,-145.5 785,-142.71 703.94,-102.85 595.9,-91.42 543.35,-88.15"/>
<polygon fill="green" stroke="green" stroke-width="0.3" points="543.64,-84.66 533.46,-87.6 543.25,-91.65 543.64,-84.66"/>
</g>
<!-- &#45;15 -->
<g id="node15" class="node">
<title>&#45;15</title>
<polygon fill="lightgray" stroke="black" points="868,-172.82 840,-172.82 840,-154.32 868,-154.32 868,-172.82"/>
<text text-anchor="middle" x="854" y="-160.27" font-family="Times,serif" font-size="9.00">&#45;15</text>
</g>
<!-- &#45;15&#45;&gt;112 -->
<g id="edge19" class="edge">
<title>&#45;15&#45;&gt;112</title>
<path fill="none" stroke="red" stroke-width="0.26" stroke-dasharray="1,5" d="M846.27,-154.01C842.13,-149.96 836.72,-145.42 831,-142.71 733.44,-96.44 602.73,-88.16 543.51,-86.91"/>
<polygon fill="red" stroke="red" stroke-width="0.26" points="543.76,-83.41 533.71,-86.75 543.65,-90.41 543.76,-83.41"/>
</g>
<!-- &#45;16 -->
<g id="node16" class="node">
<title>&#45;16</title>
<polygon fill="lightgray" stroke="black" points="548,-172.82 520,-172.82 520,-154.32 548,-154.32 548,-172.82"/>
<text text-anchor="middle" x="534" y="-160.27" font-family="Times,serif" font-size="9.00">&#45;16</text>
</g>
<!-- &#45;16&#45;&gt;110 -->
<g id="edge39" class="edge">
<title>&#45;16&#45;&gt;110</title>
<path fill="none" stroke="red" stroke-width="0.12" stroke-dasharray="1,5" d="M524.96,-153.99C520.86,-150.3 515.85,-146.08 511,-142.71 487.12,-126.14 457.85,-110.54 436.79,-100.06"/>
<polygon fill="red" stroke="red" stroke-width="0.12" points="438.43,-96.97 427.92,-95.71 435.35,-103.25 438.43,-96.97"/>
</g>
<!-- &#45;16&#45;&gt;112 -->
<g id="edge31" class="edge">
<title>&#45;16&#45;&gt;112</title>
<path fill="none" stroke="red" stroke-width="0.33" stroke-dasharray="1,5" d="M531.48,-153.88C528.81,-144.72 524.47,-129.77 520.56,-116.32"/>
<polygon fill="red" stroke="red" stroke-width="0.33" points="523.98,-115.54 517.83,-106.91 517.26,-117.49 523.98,-115.54"/>
</g>
<!-- &#45;17 -->
<g id="node17" class="node">
<title>&#45;17</title>
<polygon fill="lightgray" stroke="black" points="376,-172.82 348,-172.82 348,-154.32 376,-154.32 376,-172.82"/>
<text text-anchor="middle" x="362" y="-160.27" font-family="Times,serif" font-size="9.00">&#45;17</text>
</g>
<!-- &#45;17&#45;&gt;110 -->
<g id="edge13" class="edge">
<title>&#45;17&#45;&gt;110</title>
<path fill="none" stroke="green" stroke-width="0.37" d="M367.39,-153.88C373.56,-143.94 383.96,-127.19 392.82,-112.92"/>
<polygon fill="green" stroke="green" stroke-width="0.37" points="395.76,-114.82 398.06,-104.48 389.81,-111.13 395.76,-114.82"/>
</g>
<!-- &#45;17&#45;&gt;111 -->
<g id="edge8" class="edge">
<title>&#45;17&#45;&gt;111</title>
<path fill="none" stroke="green" stroke-width="0.17" d="M356.72,-153.88C350.66,-143.91 340.44,-127.09 331.76,-112.79"/>
<polygon fill="green" stroke="green" stroke-width="0.17" points="334.91,-111.24 326.73,-104.51 328.93,-114.87 334.91,-111.24"/>
</g>
<!-- &#45;18 -->
<g id="node18" class="node">
<title>&#45;18</title>
<polygon fill="lightgray" stroke="black" points="242,-172.82 214,-172.82 214,-154.32 242,-154.32 242,-172.82"/>
<text text-anchor="middle" x="228" y="-160.27" font-family="Times,serif" font-size="9.00">&#45;18</text>
</g>
<!-- &#45;18&#45;&gt;109 -->
<g id="edge26" class="edge">
<title>&#45;18&#45;&gt;109</title>
<path fill="none" stroke="green" stroke-width="0.28" d="M231.21,-153.88C234.68,-144.51 240.39,-129.07 245.45,-115.37"/>
<polygon fill="green" stroke="green" stroke-width="0.28" points="248.65,-116.81 248.84,-106.21 242.09,-114.38 248.65,-116.81"/>
</g>
<!-- &#45;18&#45;&gt;111 -->
<g id="edge25" class="edge">
<title>&#45;18&#45;&gt;111</title>
<path fill="none" stroke="green" stroke-width="0.13" d="M237.84,-154.06C241.92,-150.54 246.68,-146.43 251,-142.71 264.87,-130.76 280.42,-117.39 292.84,-106.73"/>
<polygon fill="green" stroke="green" stroke-width="0.13" points="295.04,-109.46 300.35,-100.29 290.48,-104.14 295.04,-109.46"/>
</g>
<!-- &#45;18&#45;&gt;112 -->
<g id="edge4" class="edge">
<title>&#45;18&#45;&gt;112</title>
<path fill="none" stroke="green" stroke-width="0.29" stroke-dasharray="1,5" d="M235.75,-154.05C239.89,-150 245.3,-145.47 251,-142.71 327.58,-105.65 356.12,-125.89 439,-106.71 453.24,-103.42 468.89,-99.23 482.03,-95.56"/>
<polygon fill="green" stroke="green" stroke-width="0.29" points="482.88,-98.96 491.55,-92.86 480.97,-92.22 482.88,-98.96"/>
</g>
<!-- &#45;19 -->
<g id="node19" class="node">
<title>&#45;19</title>
<polygon fill="lightgray" stroke="black" points="154,-172.82 126,-172.82 126,-154.32 154,-154.32 154,-172.82"/>
<text text-anchor="middle" x="140" y="-160.27" font-family="Times,serif" font-size="9.00">&#45;19</text>
</g>
<!-- &#45;19&#45;&gt;111 -->
<g id="edge9" class="edge">
<title>&#45;19&#45;&gt;111</title>
<path fill="none" stroke="green" stroke-width="0.22" stroke-dasharray="1,5" d="M148.29,-153.87C152.4,-149.99 157.63,-145.64 163,-142.71 213.03,-115.48 234.34,-130.7 286,-106.71 287.56,-105.99 289.13,-105.19 290.69,-104.34"/>
<polygon fill="green" stroke="green" stroke-width="0.22" points="292.33,-107.44 299.1,-99.29 288.72,-101.44 292.33,-107.44"/>
</g>
<!-- &#45;20 -->
<g id="node20" class="node">
<title>&#45;20</title>
<polygon fill="lightgray" stroke="black" points="914,-172.82 886,-172.82 886,-154.32 914,-154.32 914,-172.82"/>
<text text-anchor="middle" x="900" y="-160.27" font-family="Times,serif" font-size="9.00">&#45;20</text>
</g>
<!-- &#45;20&#45;&gt;112 -->
<g id="edge24" class="edge">
<title>&#45;20&#45;&gt;112</title>
<path fill="none" stroke="green" stroke-width="0.34" stroke-dasharray="1,5" d="M892.29,-153.96C888.16,-149.89 882.75,-145.36 877,-142.71 762.81,-90.06 609.32,-85.3 543.8,-85.95"/>
<polygon fill="green" stroke="green" stroke-width="0.34" points="543.79,-82.45 533.85,-86.1 543.9,-89.45 543.79,-82.45"/>
</g>
<!-- 0 -->
<g id="node21" class="node">
<title>0</title>
<ellipse fill="lightblue" stroke="black" cx="675" cy="-234.93" rx="14.5" ry="14.5"/>
<text text-anchor="middle" x="675" y="-231.63" font-family="Times,serif" font-size="9.00">0</text>
</g>
<!-- 2 -->
<g id="node23" class="node">
<title>2</title>
<ellipse fill="lightblue" stroke="black" cx="312" cy="-14.5" rx="14.5" ry="14.5"/>
<text text-anchor="middle" x="312" y="-11.2" font-family="Times,serif" font-size="9.00">2</text>
</g>
<!-- 3 -->
<g id="node24" class="node">
<title>3</title>
<ellipse fill="lightblue" stroke="black" cx="409" cy="-14.5" rx="14.5" ry="14.5"/>
<text text-anchor="middle" x="409" y="-11.2" font-family="Times,serif" font-size="9.00">3</text>
</g>
<!-- 4 -->
<g id="node25" class="node">
<title>4</title>
<ellipse fill="lightblue" stroke="black" cx="361" cy="-14.5" rx="14.5" ry="14.5"/>
<text text-anchor="middle" x="361" y="-11.2" font-family="Times,serif" font-size="9.00">4</text>
</g>
<!-- 109&#45;&gt;1 -->
<g id="edge40" class="edge">
<title>109&#45;&gt;1</title>
<path fill="none" stroke="green" stroke-width="0.24" d="M257.45,-64.79C258.02,-56.89 258.67,-47.75 259.27,-39.5"/>
<polygon fill="green" stroke="green" stroke-width="0.24" points="262.75,-39.95 259.97,-29.72 255.76,-39.45 262.75,-39.95"/>
</g>
<!-- 109&#45;&gt;2 -->
<g id="edge15" class="edge">
<title>109&#45;&gt;2</title>
<path fill="none" stroke="red" stroke-width="0.27" d="M268.71,-69.11C277.06,-58.77 288.03,-45.18 296.84,-34.27"/>
<polygon fill="red" stroke="red" stroke-width="0.27" points="299.53,-36.51 303.09,-26.53 294.08,-32.11 299.53,-36.51"/>
</g>
<!-- 109&#45;&gt;4 -->
<g id="edge18" class="edge">
<title>109&#45;&gt;4</title>
<path fill="none" stroke="green" stroke-width="0.3" d="M273.13,-73.5C277.34,-70.72 281.83,-67.75 286,-64.99 304.43,-52.81 325.42,-38.96 340.5,-29.01"/>
<polygon fill="green" stroke="green" stroke-width="0.3" points="342.25,-32.05 348.67,-23.63 338.39,-26.21 342.25,-32.05"/>
</g>
<!-- 110&#45;&gt;1 -->
<g id="edge3" class="edge">
<title>110&#45;&gt;1</title>
<path fill="none" stroke="green" stroke-width="0.39" stroke-dasharray="1,5" d="M390.26,-76.22C366.61,-65.31 324.72,-45.91 289,-28.99 287.13,-28.11 285.2,-27.19 283.26,-26.26"/>
<polygon fill="green" stroke="green" stroke-width="0.39" points="284.87,-23.15 274.34,-21.97 281.83,-29.46 284.87,-23.15"/>
</g>
<!-- 110&#45;&gt;3 -->
<g id="edge41" class="edge">
<title>110&#45;&gt;3</title>
<path fill="none" stroke="green" stroke-width="0.14" stroke-dasharray="1,5" d="M409,-64.79C409,-56.89 409,-47.75 409,-39.5"/>
<polygon fill="green" stroke="green" stroke-width="0.14" points="412.5,-39.57 409,-29.57 405.5,-39.57 412.5,-39.57"/>
</g>
<!-- 111&#45;&gt;1 -->
<g id="edge28" class="edge">
<title>111&#45;&gt;1</title>
<path fill="none" stroke="green" stroke-width="0.35" d="M303.24,-68.77C295.13,-58.53 284.59,-45.24 276.06,-34.49"/>
<polygon fill="green" stroke="green" stroke-width="0.35" points="279.03,-32.59 270.07,-26.93 273.54,-36.94 279.03,-32.59"/>
</g>
<!-- 111&#45;&gt;2 -->
<g id="edge10" class="edge">
<title>111&#45;&gt;2</title>
<path fill="none" stroke="green" stroke-width="0.4" stroke-dasharray="1,5" d="M314.84,-64.79C314.39,-56.98 313.87,-47.96 313.4,-39.78"/>
<polygon fill="green" stroke="green" stroke-width="0.4" points="316.9,-39.75 312.83,-29.97 309.92,-40.15 316.9,-39.75"/>
</g>
<!-- 111&#45;&gt;3 -->
<g id="edge32" class="edge">
<title>111&#45;&gt;3</title>
<path fill="none" stroke="green" stroke-width="0.29" stroke-dasharray="1,5" d="M332.63,-72.45C348.55,-60.57 372.59,-42.65 389.43,-30.09"/>
<polygon fill="green" stroke="green" stroke-width="0.29" points="391.23,-33.11 397.16,-24.33 387.05,-27.5 391.23,-33.11"/>
</g>
<!-- 112&#45;&gt;3 -->
<g id="edge21" class="edge">
<title>112&#45;&gt;3</title>
<path fill="none" stroke="green" stroke-width="0.16" d="M494.99,-73.4C476.94,-61.24 448.42,-42.04 429.23,-29.11"/>
<polygon fill="green" stroke="green" stroke-width="0.16" points="431.33,-26.31 421.08,-23.63 427.42,-32.12 431.33,-26.31"/>
</g>
<!-- 112&#45;&gt;4 -->
<g id="edge29" class="edge">
<title>112&#45;&gt;4</title>
<path fill="none" stroke="red" stroke-width="0.3" stroke-dasharray="1,5" d="M493,-76.97C468.15,-66.55 423.38,-47.33 386,-28.99 384.85,-28.43 383.68,-27.84 382.51,-27.24"/>
<polygon fill="red" stroke="red" stroke-width="0.3" points="384.49,-24.33 374.02,-22.76 381.23,-30.53 384.49,-24.33"/>
</g>
<!-- 281&#45;&gt;112 -->
<g id="edge45" class="edge">
<title>281&#45;&gt;112</title>
<path fill="none" stroke="red" stroke-width="0.43" d="M572.54,-147.97C561.54,-136.87 546.23,-121.41 533.75,-108.81"/>
<polygon fill="red" stroke="red" stroke-width="0.43" points="536.39,-106.51 526.87,-101.86 531.42,-111.43 536.39,-106.51"/>
</g>
</g>
</svg>
