<?xml version="1.0" encoding="UTF-8" standalone="no"?>
<!DOCTYPE svg PUBLIC "-//W3C//DTD SVG 1.1//EN"
 "http://www.w3.org/Graphics/SVG/1.1/DTD/svg11.dtd">
<!-- Generated by graphviz version 12.1.1 (20240910.0053)
 -->
<!-- Pages: 1 -->
<svg width="874pt" height="169pt"
 viewBox="0.00 0.00 873.75 169.21" xmlns="http://www.w3.org/2000/svg" xmlns:xlink="http://www.w3.org/1999/xlink">
<g id="graph0" class="graph" transform="scale(1 1) rotate(0) translate(4 165.21)">
<polygon fill="white" stroke="none" points="-4,4 -4,-165.21 869.75,-165.21 869.75,4 -4,4"/>
<!-- &#45;1 -->
<g id="node1" class="node">
<title>&#45;1</title>
<polygon fill="lightgray" stroke="black" points="333.75,-161.21 310.25,-161.21 310.25,-142.71 333.75,-142.71 333.75,-161.21"/>
<text text-anchor="middle" x="322" y="-148.66" font-family="Times,serif" font-size="9.00">&#45;1</text>
</g>
<!-- 122 -->
<g id="node27" class="node">
<title>122</title>
<ellipse fill="white" stroke="black" cx="253" cy="-85.85" rx="20.86" ry="20.86"/>
<text text-anchor="middle" x="253" y="-82.55" font-family="Times,serif" font-size="9.00">122</text>
</g>
<!-- &#45;1&#45;&gt;122 -->
<g id="edge31" class="edge">
<title>&#45;1&#45;&gt;122</title>
<path fill="none" stroke="red" stroke-width="0.16" d="M312.69,-142.31C303.19,-133.48 288.08,-119.44 275.44,-107.7"/>
<polygon fill="red" stroke="red" stroke-width="0.16" points="277.84,-105.15 268.13,-100.91 273.07,-110.28 277.84,-105.15"/>
</g>
<!-- 123 -->
<g id="node28" class="node">
<title>123</title>
<ellipse fill="white" stroke="black" cx="366" cy="-85.85" rx="20.86" ry="20.86"/>
<text text-anchor="middle" x="366" y="-82.55" font-family="Times,serif" font-size="9.00">123</text>
</g>
<!-- &#45;1&#45;&gt;123 -->
<g id="edge30" class="edge">
<title>&#45;1&#45;&gt;123</title>
<path fill="none" stroke="green" stroke-width="0.31" d="M327.93,-142.31C333.21,-134.62 341.2,-122.98 348.5,-112.35"/>
<polygon fill="green" stroke="green" stroke-width="0.31" points="351.36,-114.37 354.13,-104.15 345.59,-110.41 351.36,-114.37"/>
</g>
<!-- &#45;2 -->
<g id="node2" class="node">
<title>&#45;2</title>
<polygon fill="lightgray" stroke="black" points="693.75,-161.21 670.25,-161.21 670.25,-142.71 693.75,-142.71 693.75,-161.21"/>
<text text-anchor="middle" x="682" y="-148.66" font-family="Times,serif" font-size="9.00">&#45;2</text>
</g>
<!-- 124 -->
<g id="node29" class="node">
<title>124</title>
<ellipse fill="white" stroke="black" cx="546" cy="-85.85" rx="20.86" ry="20.86"/>
<text text-anchor="middle" x="546" y="-82.55" font-family="Times,serif" font-size="9.00">124</text>
</g>
<!-- &#45;2&#45;&gt;124 -->
<g id="edge20" class="edge">
<title>&#45;2&#45;&gt;124</title>
<path fill="none" stroke="green" stroke-width="0.13" d="M669.93,-145.27C648.46,-135.15 603.13,-113.78 573.64,-99.88"/>
<polygon fill="green" stroke="green" stroke-width="0.13" points="575.4,-96.84 564.86,-95.74 572.41,-103.17 575.4,-96.84"/>
</g>
<!-- &#45;3 -->
<g id="node3" class="node">
<title>&#45;3</title>
<polygon fill="lightgray" stroke="black" points="245.75,-161.21 222.25,-161.21 222.25,-142.71 245.75,-142.71 245.75,-161.21"/>
<text text-anchor="middle" x="234" y="-148.66" font-family="Times,serif" font-size="9.00">&#45;3</text>
</g>
<!-- &#45;3&#45;&gt;122 -->
<g id="edge18" class="edge">
<title>&#45;3&#45;&gt;122</title>
<path fill="none" stroke="green" stroke-width="0.39" d="M236.56,-142.31C238.56,-135.59 241.45,-125.84 244.25,-116.38"/>
<polygon fill="green" stroke="green" stroke-width="0.39" points="247.55,-117.54 247.04,-106.96 240.84,-115.55 247.55,-117.54"/>
</g>
<!-- &#45;3&#45;&gt;123 -->
<g id="edge9" class="edge">
<title>&#45;3&#45;&gt;123</title>
<path fill="none" stroke="red" stroke-width="0.36" d="M246.18,-145.04C266.96,-134.95 309.77,-114.16 338.19,-100.36"/>
<polygon fill="red" stroke="red" stroke-width="0.36" points="339.62,-103.55 347.09,-96.04 336.56,-97.26 339.62,-103.55"/>
</g>
<!-- &#45;4 -->
<g id="node4" class="node">
<title>&#45;4</title>
<polygon fill="lightgray" stroke="black" points="467.75,-161.21 444.25,-161.21 444.25,-142.71 467.75,-142.71 467.75,-161.21"/>
<text text-anchor="middle" x="456" y="-148.66" font-family="Times,serif" font-size="9.00">&#45;4</text>
</g>
<!-- &#45;4&#45;&gt;122 -->
<g id="edge36" class="edge">
<title>&#45;4&#45;&gt;122</title>
<path fill="none" stroke="green" stroke-width="0.29" d="M444.07,-146.09C441.12,-144.94 437.96,-143.74 435,-142.71 382.03,-124.21 319.29,-105.68 283.02,-95.3"/>
<polygon fill="green" stroke="green" stroke-width="0.29" points="284.09,-91.97 273.51,-92.59 282.17,-98.7 284.09,-91.97"/>
</g>
<!-- &#45;4&#45;&gt;124 -->
<g id="edge3" class="edge">
<title>&#45;4&#45;&gt;124</title>
<path fill="none" stroke="red" stroke-width="0.14" d="M468.14,-142.31C481.66,-132.68 503.89,-116.84 521.15,-104.55"/>
<polygon fill="red" stroke="red" stroke-width="0.14" points="522.87,-107.63 528.98,-98.97 518.81,-101.92 522.87,-107.63"/>
</g>
<!-- &#45;5 -->
<g id="node5" class="node">
<title>&#45;5</title>
<polygon fill="lightgray" stroke="black" points="823.75,-161.21 800.25,-161.21 800.25,-142.71 823.75,-142.71 823.75,-161.21"/>
<text text-anchor="middle" x="812" y="-148.66" font-family="Times,serif" font-size="9.00">&#45;5</text>
</g>
<!-- &#45;6 -->
<g id="node6" class="node">
<title>&#45;6</title>
<polygon fill="lightgray" stroke="black" points="203.75,-161.21 180.25,-161.21 180.25,-142.71 203.75,-142.71 203.75,-161.21"/>
<text text-anchor="middle" x="192" y="-148.66" font-family="Times,serif" font-size="9.00">&#45;6</text>
</g>
<!-- &#45;6&#45;&gt;122 -->
<g id="edge28" class="edge">
<title>&#45;6&#45;&gt;122</title>
<path fill="none" stroke="green" stroke-width="0.63" d="M200.23,-142.31C208.18,-133.95 220.58,-120.92 231.36,-109.59"/>
<polygon fill="green" stroke="green" stroke-width="0.63" points="233.82,-112.08 238.18,-102.43 228.75,-107.26 233.82,-112.08"/>
</g>
<!-- &#45;7 -->
<g id="node7" class="node">
<title>&#45;7</title>
<polygon fill="lightgray" stroke="black" points="865.75,-161.21 842.25,-161.21 842.25,-142.71 865.75,-142.71 865.75,-161.21"/>
<text text-anchor="middle" x="854" y="-148.66" font-family="Times,serif" font-size="9.00">&#45;7</text>
</g>
<!-- &#45;8 -->
<g id="node8" class="node">
<title>&#45;8</title>
<polygon fill="lightgray" stroke="black" points="735.75,-161.21 712.25,-161.21 712.25,-142.71 735.75,-142.71 735.75,-161.21"/>
<text text-anchor="middle" x="724" y="-148.66" font-family="Times,serif" font-size="9.00">&#45;8</text>
</g>
<!-- &#45;8&#45;&gt;124 -->
<g id="edge26" class="edge">
<title>&#45;8&#45;&gt;124</title>
<path fill="none" stroke="red" stroke-width="0.16" d="M712.03,-146.18C709.09,-145.03 705.93,-143.81 703,-142.71 658.5,-126.06 606.48,-107.78 574.91,-96.82"/>
<polygon fill="red" stroke="red" stroke-width="0.16" points="576.24,-93.58 565.64,-93.61 573.95,-100.19 576.24,-93.58"/>
</g>
<!-- &#45;9 -->
<g id="node9" class="node">
<title>&#45;9</title>
<polygon fill="lightgray" stroke="black" points="161.75,-161.21 138.25,-161.21 138.25,-142.71 161.75,-142.71 161.75,-161.21"/>
<text text-anchor="middle" x="150" y="-148.66" font-family="Times,serif" font-size="9.00">&#45;9</text>
</g>
<!-- 121 -->
<g id="node26" class="node">
<title>121</title>
<ellipse fill="white" stroke="black" cx="172" cy="-85.85" rx="20.86" ry="20.86"/>
<text text-anchor="middle" x="172" y="-82.55" font-family="Times,serif" font-size="9.00">121</text>
</g>
<!-- &#45;9&#45;&gt;121 -->
<g id="edge16" class="edge">
<title>&#45;9&#45;&gt;121</title>
<path fill="none" stroke="red" stroke-width="0.21" d="M152.97,-142.31C155.32,-135.47 158.74,-125.48 162.04,-115.87"/>
<polygon fill="red" stroke="red" stroke-width="0.21" points="165.35,-117.02 165.28,-106.43 158.73,-114.75 165.35,-117.02"/>
</g>
<!-- &#45;9&#45;&gt;122 -->
<g id="edge37" class="edge">
<title>&#45;9&#45;&gt;122</title>
<path fill="none" stroke="red" stroke-width="0.18" d="M162.22,-143.35C178.1,-133.47 206.23,-115.96 226.98,-103.04"/>
<polygon fill="red" stroke="red" stroke-width="0.18" points="228.78,-106.05 235.42,-97.79 225.08,-100.1 228.78,-106.05"/>
</g>
<!-- &#45;9&#45;&gt;124 -->
<g id="edge8" class="edge">
<title>&#45;9&#45;&gt;124</title>
<path fill="none" stroke="red" stroke-width="0.36" d="M161.84,-145.77C164.79,-144.63 167.97,-143.52 171,-142.71 276.49,-114.57 306.02,-122.83 414,-106.71 448.65,-101.54 488.41,-95.55 515.16,-91.51"/>
<polygon fill="red" stroke="red" stroke-width="0.36" points="515.51,-95 524.88,-90.04 514.47,-88.08 515.51,-95"/>
</g>
<!-- &#45;10 -->
<g id="node10" class="node">
<title>&#45;10</title>
<polygon fill="lightgray" stroke="black" points="426,-161.21 398,-161.21 398,-142.71 426,-142.71 426,-161.21"/>
<text text-anchor="middle" x="412" y="-148.66" font-family="Times,serif" font-size="9.00">&#45;10</text>
</g>
<!-- &#45;10&#45;&gt;121 -->
<g id="edge32" class="edge">
<title>&#45;10&#45;&gt;121</title>
<path fill="none" stroke="red" stroke-width="0.12" d="M397.99,-145.6C395.04,-144.57 391.94,-143.55 389,-142.71 316.43,-121.92 295.29,-128.48 223,-106.71 215.62,-104.49 207.79,-101.68 200.55,-98.88"/>
<polygon fill="red" stroke="red" stroke-width="0.12" points="201.87,-95.64 191.29,-95.19 199.28,-102.14 201.87,-95.64"/>
</g>
<!-- &#45;10&#45;&gt;123 -->
<g id="edge23" class="edge">
<title>&#45;10&#45;&gt;123</title>
<path fill="none" stroke="red" stroke-width="0.29" d="M405.8,-142.31C400.18,-134.49 391.64,-122.58 383.9,-111.8"/>
<polygon fill="red" stroke="red" stroke-width="0.29" points="386.88,-109.95 378.21,-103.86 381.19,-114.03 386.88,-109.95"/>
</g>
<!-- &#45;10&#45;&gt;124 -->
<g id="edge5" class="edge">
<title>&#45;10&#45;&gt;124</title>
<path fill="none" stroke="red" stroke-width="0.41" d="M426.34,-144.1C448.2,-133.64 490.28,-113.51 518.25,-100.13"/>
<polygon fill="red" stroke="red" stroke-width="0.41" points="519.43,-103.44 526.95,-95.97 516.41,-97.13 519.43,-103.44"/>
</g>
<!-- &#45;11 -->
<g id="node11" class="node">
<title>&#45;11</title>
<polygon fill="lightgray" stroke="black" points="120,-161.21 92,-161.21 92,-142.71 120,-142.71 120,-161.21"/>
<text text-anchor="middle" x="106" y="-148.66" font-family="Times,serif" font-size="9.00">&#45;11</text>
</g>
<!-- &#45;11&#45;&gt;121 -->
<g id="edge6" class="edge">
<title>&#45;11&#45;&gt;121</title>
<path fill="none" stroke="red" stroke-width="0.52" d="M114.9,-142.31C123.79,-133.68 137.81,-120.06 149.73,-108.48"/>
<polygon fill="red" stroke="red" stroke-width="0.52" points="151.89,-111.26 156.63,-101.78 147.02,-106.24 151.89,-111.26"/>
</g>
<!-- &#45;11&#45;&gt;122 -->
<g id="edge40" class="edge">
<title>&#45;11&#45;&gt;122</title>
<path fill="none" stroke="red" stroke-width="0.4" d="M120.38,-145.73C146.73,-136.09 201.7,-115.69 220,-106.71 222.23,-105.62 224.51,-104.42 226.77,-103.18"/>
<polygon fill="red" stroke="red" stroke-width="0.4" points="228.41,-106.28 235.31,-98.24 224.9,-100.22 228.41,-106.28"/>
</g>
<!-- &#45;12 -->
<g id="node12" class="node">
<title>&#45;12</title>
<polygon fill="lightgray" stroke="black" points="782,-161.21 754,-161.21 754,-142.71 782,-142.71 782,-161.21"/>
<text text-anchor="middle" x="768" y="-148.66" font-family="Times,serif" font-size="9.00">&#45;12</text>
</g>
<!-- &#45;12&#45;&gt;124 -->
<g id="edge15" class="edge">
<title>&#45;12&#45;&gt;124</title>
<path fill="none" stroke="red" stroke-width="0.12" d="M753.94,-145.74C751,-144.7 747.91,-143.64 745,-142.71 685.54,-123.73 615,-104.75 575.89,-94.54"/>
<polygon fill="red" stroke="red" stroke-width="0.12" points="576.93,-91.19 566.38,-92.06 575.17,-97.96 576.93,-91.19"/>
</g>
<!-- &#45;13 -->
<g id="node13" class="node">
<title>&#45;13</title>
<polygon fill="lightgray" stroke="black" points="606,-161.21 578,-161.21 578,-142.71 606,-142.71 606,-161.21"/>
<text text-anchor="middle" x="592" y="-148.66" font-family="Times,serif" font-size="9.00">&#45;13</text>
</g>
<!-- &#45;13&#45;&gt;123 -->
<g id="edge39" class="edge">
<title>&#45;13&#45;&gt;123</title>
<path fill="none" stroke="green" stroke-width="0.55" d="M577.95,-145.73C575.01,-144.69 571.91,-143.63 569,-142.71 508.48,-123.56 436.64,-104.68 396.7,-94.52"/>
<polygon fill="green" stroke="green" stroke-width="0.55" points="397.68,-91.16 387.12,-92.1 395.96,-97.95 397.68,-91.16"/>
</g>
<!-- &#45;13&#45;&gt;124 -->
<g id="edge11" class="edge">
<title>&#45;13&#45;&gt;124</title>
<path fill="none" stroke="red" stroke-width="0.62" d="M585.8,-142.31C580.24,-134.57 571.81,-122.82 564.13,-112.13"/>
<polygon fill="red" stroke="red" stroke-width="0.62" points="567.17,-110.35 558.49,-104.26 561.48,-114.43 567.17,-110.35"/>
</g>
<!-- &#45;14 -->
<g id="node14" class="node">
<title>&#45;14</title>
<polygon fill="lightgray" stroke="black" points="28,-161.21 0,-161.21 0,-142.71 28,-142.71 28,-161.21"/>
<text text-anchor="middle" x="14" y="-148.66" font-family="Times,serif" font-size="9.00">&#45;14</text>
</g>
<!-- &#45;14&#45;&gt;121 -->
<g id="edge38" class="edge">
<title>&#45;14&#45;&gt;121</title>
<path fill="none" stroke="red" stroke-width="0.12" d="M28.3,-145.16C54.23,-134.64 109.44,-112.23 143.38,-98.46"/>
<polygon fill="red" stroke="red" stroke-width="0.12" points="144.64,-101.73 152.6,-94.72 142.01,-95.24 144.64,-101.73"/>
</g>
<!-- &#45;15 -->
<g id="node15" class="node">
<title>&#45;15</title>
<polygon fill="lightgray" stroke="black" points="292,-161.21 264,-161.21 264,-142.71 292,-142.71 292,-161.21"/>
<text text-anchor="middle" x="278" y="-148.66" font-family="Times,serif" font-size="9.00">&#45;15</text>
</g>
<!-- &#45;15&#45;&gt;122 -->
<g id="edge22" class="edge">
<title>&#45;15&#45;&gt;122</title>
<path fill="none" stroke="green" stroke-width="0.52" d="M274.63,-142.31C271.94,-135.41 268.01,-125.33 264.23,-115.65"/>
<polygon fill="green" stroke="green" stroke-width="0.52" points="267.59,-114.63 260.7,-106.59 261.07,-117.17 267.59,-114.63"/>
</g>
<!-- &#45;15&#45;&gt;123 -->
<g id="edge7" class="edge">
<title>&#45;15&#45;&gt;123</title>
<path fill="none" stroke="red" stroke-width="0.16" d="M289.87,-142.31C303.09,-132.68 324.83,-116.84 341.7,-104.55"/>
<polygon fill="red" stroke="red" stroke-width="0.16" points="343.31,-107.71 349.33,-98.99 339.19,-102.05 343.31,-107.71"/>
</g>
<!-- &#45;16 -->
<g id="node16" class="node">
<title>&#45;16</title>
<polygon fill="lightgray" stroke="black" points="560,-161.21 532,-161.21 532,-142.71 560,-142.71 560,-161.21"/>
<text text-anchor="middle" x="546" y="-148.66" font-family="Times,serif" font-size="9.00">&#45;16</text>
</g>
<!-- &#45;16&#45;&gt;122 -->
<g id="edge43" class="edge">
<title>&#45;16&#45;&gt;122</title>
<path fill="none" stroke="red" stroke-width="0.25" d="M531.51,-145.38C528.71,-144.41 525.78,-143.47 523,-142.71 441.37,-120.36 418.73,-124.56 336,-106.71 318.42,-102.92 298.84,-98.25 283.12,-94.4"/>
<polygon fill="red" stroke="red" stroke-width="0.25" points="284.32,-91.09 273.78,-92.09 282.65,-97.89 284.32,-91.09"/>
</g>
<!-- &#45;16&#45;&gt;124 -->
<g id="edge27" class="edge">
<title>&#45;16&#45;&gt;124</title>
<path fill="none" stroke="green" stroke-width="0.33" d="M546,-142.31C546,-135.88 546,-126.67 546,-117.61"/>
<polygon fill="green" stroke="green" stroke-width="0.33" points="549.5,-117.7 546,-107.7 542.5,-117.7 549.5,-117.7"/>
</g>
<!-- &#45;17 -->
<g id="node17" class="node">
<title>&#45;17</title>
<polygon fill="lightgray" stroke="black" points="380,-161.21 352,-161.21 352,-142.71 380,-142.71 380,-161.21"/>
<text text-anchor="middle" x="366" y="-148.66" font-family="Times,serif" font-size="9.00">&#45;17</text>
</g>
<!-- &#45;17&#45;&gt;121 -->
<g id="edge44" class="edge">
<title>&#45;17&#45;&gt;121</title>
<path fill="none" stroke="red" stroke-width="0.41" d="M351.93,-145.78C348.99,-144.74 345.9,-143.67 343,-142.71 290.11,-125.3 275.65,-124.83 223,-106.71 215.71,-104.2 207.92,-101.29 200.68,-98.48"/>
<polygon fill="red" stroke="red" stroke-width="0.41" points="202.41,-95.4 191.82,-94.99 199.84,-101.91 202.41,-95.4"/>
</g>
<!-- &#45;17&#45;&gt;123 -->
<g id="edge19" class="edge">
<title>&#45;17&#45;&gt;123</title>
<path fill="none" stroke="red" stroke-width="0.26" d="M366,-142.31C366,-135.81 366,-126.47 366,-117.31"/>
<polygon fill="red" stroke="red" stroke-width="0.26" points="369.5,-117.6 366,-107.6 362.5,-117.6 369.5,-117.6"/>
</g>
<!-- &#45;17&#45;&gt;124 -->
<g id="edge34" class="edge">
<title>&#45;17&#45;&gt;124</title>
<path fill="none" stroke="green" stroke-width="0.35" d="M380.11,-145.89C383.05,-144.84 386.12,-143.74 389,-142.71 433.55,-126.8 485.24,-108.42 516.78,-97.22"/>
<polygon fill="green" stroke="green" stroke-width="0.35" points="517.91,-100.54 526.16,-93.89 515.57,-93.94 517.91,-100.54"/>
</g>
<!-- &#45;18 -->
<g id="node18" class="node">
<title>&#45;18</title>
<polygon fill="lightgray" stroke="black" points="514,-161.21 486,-161.21 486,-142.71 514,-142.71 514,-161.21"/>
<text text-anchor="middle" x="500" y="-148.66" font-family="Times,serif" font-size="9.00">&#45;18</text>
</g>
<!-- &#45;18&#45;&gt;123 -->
<g id="edge35" class="edge">
<title>&#45;18&#45;&gt;123</title>
<path fill="none" stroke="red" stroke-width="0.3" d="M485.66,-144.1C463.8,-133.64 421.72,-113.51 393.75,-100.13"/>
<polygon fill="red" stroke="red" stroke-width="0.3" points="395.44,-97.06 384.91,-95.9 392.42,-103.37 395.44,-97.06"/>
</g>
<!-- &#45;19 -->
<g id="node19" class="node">
<title>&#45;19</title>
<polygon fill="lightgray" stroke="black" points="652,-161.21 624,-161.21 624,-142.71 652,-142.71 652,-161.21"/>
<text text-anchor="middle" x="638" y="-148.66" font-family="Times,serif" font-size="9.00">&#45;19</text>
</g>
<!-- &#45;19&#45;&gt;123 -->
<g id="edge25" class="edge">
<title>&#45;19&#45;&gt;123</title>
<path fill="none" stroke="red" stroke-width="0.29" d="M623.98,-145.62C621.04,-144.59 617.93,-143.56 615,-142.71 537.44,-120.19 444.07,-101.42 396.74,-92.48"/>
<polygon fill="red" stroke="red" stroke-width="0.29" points="397.46,-89.05 386.99,-90.65 396.17,-95.93 397.46,-89.05"/>
</g>
<!-- &#45;19&#45;&gt;124 -->
<g id="edge21" class="edge">
<title>&#45;19&#45;&gt;124</title>
<path fill="none" stroke="green" stroke-width="0.32" d="M625.59,-142.31C611.68,-132.62 588.76,-116.65 571.08,-104.33"/>
<polygon fill="green" stroke="green" stroke-width="0.32" points="573.49,-101.74 563.28,-98.89 569.48,-107.48 573.49,-101.74"/>
</g>
<!-- &#45;20 -->
<g id="node20" class="node">
<title>&#45;20</title>
<polygon fill="lightgray" stroke="black" points="74,-161.21 46,-161.21 46,-142.71 74,-142.71 74,-161.21"/>
<text text-anchor="middle" x="60" y="-148.66" font-family="Times,serif" font-size="9.00">&#45;20</text>
</g>
<!-- &#45;20&#45;&gt;121 -->
<g id="edge41" class="edge">
<title>&#45;20&#45;&gt;121</title>
<path fill="none" stroke="red" stroke-width="0.39" d="M74.18,-142.84C92.01,-132.64 122.95,-114.93 145.27,-102.15"/>
<polygon fill="red" stroke="red" stroke-width="0.39" points="146.79,-105.32 153.73,-97.31 143.31,-99.24 146.79,-105.32"/>
</g>
<!-- 0 -->
<g id="node21" class="node">
<title>0</title>
<ellipse fill="lightblue" stroke="black" cx="206" cy="-14.5" rx="14.5" ry="14.5"/>
<text text-anchor="middle" x="206" y="-11.2" font-family="Times,serif" font-size="9.00">0</text>
</g>
<!-- 1 -->
<g id="node22" class="node">
<title>1</title>
<ellipse fill="lightblue" stroke="black" cx="357" cy="-14.5" rx="14.5" ry="14.5"/>
<text text-anchor="middle" x="357" y="-11.2" font-family="Times,serif" font-size="9.00">1</text>
</g>
<!-- 2 -->
<g id="node23" class="node">
<title>2</title>
<ellipse fill="lightblue" stroke="black" cx="300" cy="-14.5" rx="14.5" ry="14.5"/>
<text text-anchor="middle" x="300" y="-11.2" font-family="Times,serif" font-size="9.00">2</text>
</g>
<!-- 3 -->
<g id="node24" class="node">
<title>3</title>
<ellipse fill="lightblue" stroke="black" cx="253" cy="-14.5" rx="14.5" ry="14.5"/>
<text text-anchor="middle" x="253" y="-11.2" font-family="Times,serif" font-size="9.00">3</text>
</g>
<!-- 4 -->
<g id="node25" class="node">
<title>4</title>
<ellipse fill="lightblue" stroke="black" cx="470" cy="-14.5" rx="14.5" ry="14.5"/>
<text text-anchor="middle" x="470" y="-11.2" font-family="Times,serif" font-size="9.00">4</text>
</g>
<!-- 121&#45;&gt;1 -->
<g id="edge33" class="edge">
<title>121&#45;&gt;1</title>
<path fill="none" stroke="red" stroke-width="0.19" d="M191.33,-77.19C200.84,-73.45 212.5,-68.92 223,-64.99 267.23,-48.42 278.82,-45.71 323,-28.99 326.66,-27.61 330.53,-26.11 334.29,-24.63"/>
<polygon fill="red" stroke="red" stroke-width="0.19" points="335.53,-27.9 343.53,-20.96 332.95,-21.39 335.53,-27.9"/>
</g>
<!-- 121&#45;&gt;2 -->
<g id="edge13" class="edge">
<title>121&#45;&gt;2</title>
<path fill="none" stroke="green" stroke-width="0.18" d="M190.09,-75.27C210.89,-64.23 246.01,-45.48 276,-28.99 276.96,-28.46 277.95,-27.92 278.94,-27.37"/>
<polygon fill="green" stroke="green" stroke-width="0.18" points="280.55,-30.48 287.57,-22.54 277.14,-24.37 280.55,-30.48"/>
</g>
<!-- 121&#45;&gt;121 -->
<g id="edge12" class="edge">
<title>121&#45;&gt;121</title>
<path fill="none" stroke="red" stroke-width="0.38" d="M189.58,-97.37C200.49,-100.15 210.86,-96.31 210.86,-85.85 210.86,-78.82 206.18,-74.78 199.8,-73.73"/>
<polygon fill="red" stroke="red" stroke-width="0.38" points="199.94,-70.22 190.16,-74.3 200.35,-77.21 199.94,-70.22"/>
</g>
<!-- 122&#45;&gt;0 -->
<g id="edge17" class="edge">
<title>122&#45;&gt;0</title>
<path fill="none" stroke="green" stroke-width="0.23" d="M241.62,-68.06C234.98,-58.26 226.56,-45.84 219.58,-35.53"/>
<polygon fill="green" stroke="green" stroke-width="0.23" points="222.6,-33.75 214.09,-27.43 216.8,-37.67 222.6,-33.75"/>
</g>
<!-- 122&#45;&gt;2 -->
<g id="edge24" class="edge">
<title>122&#45;&gt;2</title>
<path fill="none" stroke="green" stroke-width="0.13" d="M264.38,-68.06C271.02,-58.26 279.44,-45.84 286.42,-35.53"/>
<polygon fill="green" stroke="green" stroke-width="0.13" points="289.28,-37.55 292,-27.31 283.49,-33.62 289.28,-37.55"/>
</g>
<!-- 122&#45;&gt;3 -->
<g id="edge29" class="edge">
<title>122&#45;&gt;3</title>
<path fill="none" stroke="red" stroke-width="0.23" d="M253,-64.79C253,-56.89 253,-47.75 253,-39.5"/>
<polygon fill="red" stroke="red" stroke-width="0.23" points="256.5,-39.7 253,-29.7 249.5,-39.7 256.5,-39.7"/>
</g>
<!-- 123&#45;&gt;1 -->
<g id="edge4" class="edge">
<title>123&#45;&gt;1</title>
<path fill="none" stroke="red" stroke-width="0.23" d="M363.4,-64.79C362.37,-56.89 361.19,-47.75 360.12,-39.5"/>
<polygon fill="red" stroke="red" stroke-width="0.23" points="363.6,-39.18 358.84,-29.71 356.66,-40.08 363.6,-39.18"/>
</g>
<!-- 123&#45;&gt;2 -->
<g id="edge10" class="edge">
<title>123&#45;&gt;2</title>
<path fill="none" stroke="green" stroke-width="0.22" d="M352,-70.14C341.67,-59.29 327.57,-44.47 316.66,-33.01"/>
<polygon fill="green" stroke="green" stroke-width="0.22" points="319.36,-30.76 309.93,-25.93 314.29,-35.59 319.36,-30.76"/>
</g>
<!-- 123&#45;&gt;4 -->
<g id="edge14" class="edge">
<title>123&#45;&gt;4</title>
<path fill="none" stroke="red" stroke-width="0.29" d="M383.17,-73.4C401.42,-61.23 430.25,-42 449.63,-29.08"/>
<polygon fill="red" stroke="red" stroke-width="0.29" points="451.55,-32.01 457.93,-23.55 447.67,-26.18 451.55,-32.01"/>
</g>
<!-- 123&#45;&gt;123 -->
<g id="edge2" class="edge">
<title>123&#45;&gt;123</title>
<path fill="none" stroke="green" stroke-width="0.24" d="M383.58,-97.37C394.49,-100.15 404.86,-96.31 404.86,-85.85 404.86,-78.82 400.18,-74.78 393.8,-73.73"/>
<polygon fill="green" stroke="green" stroke-width="0.24" points="393.73,-70.23 383.95,-74.31 394.14,-77.22 393.73,-70.23"/>
</g>
<!-- 124&#45;&gt;4 -->
<g id="edge42" class="edge">
<title>124&#45;&gt;4</title>
<path fill="none" stroke="green" stroke-width="0.38" d="M530.98,-71.15C518.52,-59.77 500.76,-43.57 487.63,-31.58"/>
<polygon fill="green" stroke="green" stroke-width="0.38" points="490.3,-29.28 480.56,-25.13 485.58,-34.46 490.3,-29.28"/>
</g>
<!-- 124&#45;&gt;124 -->
<g id="edge1" class="edge">
<title>124&#45;&gt;124</title>
<path fill="none" stroke="green" stroke-width="0.25" d="M563.58,-97.37C574.49,-100.15 584.86,-96.31 584.86,-85.85 584.86,-78.82 580.18,-74.78 573.8,-73.73"/>
<polygon fill="green" stroke="green" stroke-width="0.25" points="573.73,-70.23 563.96,-74.31 574.14,-77.22 573.73,-70.23"/>
</g>
</g>
</svg>
