<?xml version="1.0" encoding="UTF-8" standalone="no"?>
<!DOCTYPE svg PUBLIC "-//W3C//DTD SVG 1.1//EN"
 "http://www.w3.org/Graphics/SVG/1.1/DTD/svg11.dtd">
<!-- Generated by graphviz version 12.1.1 (20240910.0053)
 -->
<!-- Pages: 1 -->
<svg width="874pt" height="163pt"
 viewBox="0.00 0.00 873.75 162.85" xmlns="http://www.w3.org/2000/svg" xmlns:xlink="http://www.w3.org/1999/xlink">
<g id="graph0" class="graph" transform="scale(1 1) rotate(0) translate(4 158.85)">
<polygon fill="white" stroke="none" points="-4,4 -4,-158.85 869.75,-158.85 869.75,4 -4,4"/>
<!-- &#45;1 -->
<g id="node1" class="node">
<title>&#45;1</title>
<polygon fill="lightgray" stroke="black" points="555.5,-154.85 532,-154.85 532,-136.35 555.5,-136.35 555.5,-154.85"/>
<text text-anchor="middle" x="543.75" y="-142.3" font-family="Times,serif" font-size="9.00">&#45;1</text>
</g>
<!-- 82 -->
<g id="node27" class="node">
<title>82</title>
<ellipse fill="white" stroke="black" cx="458.75" cy="-82.67" rx="17.68" ry="17.68"/>
<text text-anchor="middle" x="458.75" y="-79.37" font-family="Times,serif" font-size="9.00">82</text>
</g>
<!-- &#45;1&#45;&gt;82 -->
<g id="edge23" class="edge">
<title>&#45;1&#45;&gt;82</title>
<path fill="none" stroke="green" stroke-width="0.25" stroke-dasharray="1,5" d="M531.57,-135.87C518.48,-126.48 497.38,-111.36 481.25,-99.8"/>
<polygon fill="green" stroke="green" stroke-width="0.25" points="483.37,-97.01 473.2,-94.03 479.29,-102.7 483.37,-97.01"/>
</g>
<!-- 83 -->
<g id="node28" class="node">
<title>83</title>
<ellipse fill="white" stroke="black" cx="365.75" cy="-82.67" rx="17.68" ry="17.68"/>
<text text-anchor="middle" x="365.75" y="-79.37" font-family="Times,serif" font-size="9.00">83</text>
</g>
<!-- &#45;1&#45;&gt;83 -->
<g id="edge33" class="edge">
<title>&#45;1&#45;&gt;83</title>
<path fill="none" stroke="red" stroke-width="0.27" d="M531.8,-139.78C528.85,-138.63 525.69,-137.42 522.75,-136.35 477.12,-119.74 423.35,-102.12 392.06,-92.05"/>
<polygon fill="red" stroke="red" stroke-width="0.27" points="393.33,-88.78 382.74,-89.06 391.19,-95.44 393.33,-88.78"/>
</g>
<!-- &#45;2 -->
<g id="node2" class="node">
<title>&#45;2</title>
<polygon fill="lightgray" stroke="black" points="467.5,-154.85 444,-154.85 444,-136.35 467.5,-136.35 467.5,-154.85"/>
<text text-anchor="middle" x="455.75" y="-142.3" font-family="Times,serif" font-size="9.00">&#45;2</text>
</g>
<!-- &#45;2&#45;&gt;83 -->
<g id="edge15" class="edge">
<title>&#45;2&#45;&gt;83</title>
<path fill="none" stroke="red" stroke-width="0.15" stroke-dasharray="1,5" d="M443.61,-136.38C429.43,-126.78 405.67,-110.69 388.11,-98.81"/>
<polygon fill="red" stroke="red" stroke-width="0.15" points="390.5,-96.19 380.25,-93.49 386.57,-101.99 390.5,-96.19"/>
</g>
<!-- &#45;3 -->
<g id="node3" class="node">
<title>&#45;3</title>
<polygon fill="lightgray" stroke="black" points="199.5,-154.85 176,-154.85 176,-136.35 199.5,-136.35 199.5,-154.85"/>
<text text-anchor="middle" x="187.75" y="-142.3" font-family="Times,serif" font-size="9.00">&#45;3</text>
</g>
<!-- 81 -->
<g id="node26" class="node">
<title>81</title>
<ellipse fill="white" stroke="black" cx="293.75" cy="-82.67" rx="17.68" ry="17.68"/>
<text text-anchor="middle" x="293.75" y="-79.37" font-family="Times,serif" font-size="9.00">81</text>
</g>
<!-- &#45;3&#45;&gt;81 -->
<g id="edge11" class="edge">
<title>&#45;3&#45;&gt;81</title>
<path fill="none" stroke="green" stroke-width="0.32" d="M199.91,-137.61C216.87,-127.86 247.98,-109.98 269.72,-97.48"/>
<polygon fill="green" stroke="green" stroke-width="0.32" points="271.33,-100.59 278.25,-92.58 267.84,-94.52 271.33,-100.59"/>
</g>
<!-- 84 -->
<g id="node29" class="node">
<title>84</title>
<ellipse fill="white" stroke="black" cx="214.75" cy="-82.67" rx="17.68" ry="17.68"/>
<text text-anchor="middle" x="214.75" y="-79.37" font-family="Times,serif" font-size="9.00">84</text>
</g>
<!-- &#45;3&#45;&gt;84 -->
<g id="edge41" class="edge">
<title>&#45;3&#45;&gt;84</title>
<path fill="none" stroke="green" stroke-width="0.13" d="M191.62,-135.87C194.85,-128.59 199.6,-117.85 203.97,-108"/>
<polygon fill="green" stroke="green" stroke-width="0.13" points="207.03,-109.72 207.88,-99.16 200.63,-106.89 207.03,-109.72"/>
</g>
<!-- &#45;4 -->
<g id="node4" class="node">
<title>&#45;4</title>
<polygon fill="lightgray" stroke="black" points="727.5,-154.85 704,-154.85 704,-136.35 727.5,-136.35 727.5,-154.85"/>
<text text-anchor="middle" x="715.75" y="-142.3" font-family="Times,serif" font-size="9.00">&#45;4</text>
</g>
<!-- &#45;5 -->
<g id="node5" class="node">
<title>&#45;5</title>
<polygon fill="lightgray" stroke="black" points="23.5,-154.85 0,-154.85 0,-136.35 23.5,-136.35 23.5,-154.85"/>
<text text-anchor="middle" x="11.75" y="-142.3" font-family="Times,serif" font-size="9.00">&#45;5</text>
</g>
<!-- &#45;5&#45;&gt;84 -->
<g id="edge36" class="edge">
<title>&#45;5&#45;&gt;84</title>
<path fill="none" stroke="red" stroke-width="0.46" d="M23.67,-139.69C26.62,-138.54 29.78,-137.36 32.75,-136.35 86.93,-117.91 151.54,-100.2 187.37,-90.74"/>
<polygon fill="red" stroke="red" stroke-width="0.46" points="188.06,-94.18 196.85,-88.26 186.29,-87.41 188.06,-94.18"/>
</g>
<!-- &#45;6 -->
<g id="node6" class="node">
<title>&#45;6</title>
<polygon fill="lightgray" stroke="black" points="287.5,-154.85 264,-154.85 264,-136.35 287.5,-136.35 287.5,-154.85"/>
<text text-anchor="middle" x="275.75" y="-142.3" font-family="Times,serif" font-size="9.00">&#45;6</text>
</g>
<!-- &#45;6&#45;&gt;81 -->
<g id="edge34" class="edge">
<title>&#45;6&#45;&gt;81</title>
<path fill="none" stroke="green" stroke-width="0.16" d="M278.33,-135.87C280.36,-129 283.29,-119.07 286.06,-109.71"/>
<polygon fill="green" stroke="green" stroke-width="0.16" points="289.4,-110.75 288.88,-100.17 282.69,-108.77 289.4,-110.75"/>
</g>
<!-- &#45;6&#45;&gt;83 -->
<g id="edge43" class="edge">
<title>&#45;6&#45;&gt;83</title>
<path fill="none" stroke="green" stroke-width="0.23" stroke-dasharray="1,5" d="M287.89,-136.38C301.94,-126.86 325.4,-110.98 342.91,-99.13"/>
<polygon fill="green" stroke="green" stroke-width="0.23" points="344.82,-102.06 351.14,-93.56 340.9,-96.26 344.82,-102.06"/>
</g>
<!-- &#45;7 -->
<g id="node7" class="node">
<title>&#45;7</title>
<polygon fill="lightgray" stroke="black" points="65.5,-154.85 42,-154.85 42,-136.35 65.5,-136.35 65.5,-154.85"/>
<text text-anchor="middle" x="53.75" y="-142.3" font-family="Times,serif" font-size="9.00">&#45;7</text>
</g>
<!-- &#45;7&#45;&gt;84 -->
<g id="edge3" class="edge">
<title>&#45;7&#45;&gt;84</title>
<path fill="none" stroke="green" stroke-width="0.3" stroke-dasharray="1,5" d="M65.73,-139.86C68.68,-138.7 71.83,-137.47 74.75,-136.35 114.47,-121.07 160.71,-103.77 188.84,-93.29"/>
<polygon fill="green" stroke="green" stroke-width="0.3" points="189.76,-96.68 197.91,-89.92 187.32,-90.12 189.76,-96.68"/>
</g>
<!-- &#45;8 -->
<g id="node8" class="node">
<title>&#45;8</title>
<polygon fill="lightgray" stroke="black" points="597.5,-154.85 574,-154.85 574,-136.35 597.5,-136.35 597.5,-154.85"/>
<text text-anchor="middle" x="585.75" y="-142.3" font-family="Times,serif" font-size="9.00">&#45;8</text>
</g>
<!-- &#45;8&#45;&gt;82 -->
<g id="edge26" class="edge">
<title>&#45;8&#45;&gt;82</title>
<path fill="none" stroke="green" stroke-width="0.13" d="M573.57,-138.75C552.91,-128.84 510.61,-108.55 483.52,-95.55"/>
<polygon fill="green" stroke="green" stroke-width="0.13" points="485.34,-92.54 474.81,-91.37 482.31,-98.85 485.34,-92.54"/>
</g>
<!-- &#45;8&#45;&gt;83 -->
<g id="edge18" class="edge">
<title>&#45;8&#45;&gt;83</title>
<path fill="none" stroke="red" stroke-width="0.29" d="M573.84,-139.64C570.9,-138.49 567.73,-137.32 564.75,-136.35 548.34,-130.97 443.3,-103.69 392.8,-90.64"/>
<polygon fill="red" stroke="red" stroke-width="0.29" points="393.88,-87.31 383.33,-88.2 392.13,-94.09 393.88,-87.31"/>
</g>
<!-- &#45;9 -->
<g id="node9" class="node">
<title>&#45;9</title>
<polygon fill="lightgray" stroke="black" points="639.5,-154.85 616,-154.85 616,-136.35 639.5,-136.35 639.5,-154.85"/>
<text text-anchor="middle" x="627.75" y="-142.3" font-family="Times,serif" font-size="9.00">&#45;9</text>
</g>
<!-- &#45;9&#45;&gt;82 -->
<g id="edge28" class="edge">
<title>&#45;9&#45;&gt;82</title>
<path fill="none" stroke="red" stroke-width="0.14" d="M615.78,-139.82C612.84,-138.66 609.68,-137.45 606.75,-136.35 564.25,-120.44 514.48,-102.96 484.84,-92.67"/>
<polygon fill="red" stroke="red" stroke-width="0.14" points="486.04,-89.38 475.44,-89.41 483.75,-95.99 486.04,-89.38"/>
</g>
<!-- &#45;10 -->
<g id="node10" class="node">
<title>&#45;10</title>
<polygon fill="lightgray" stroke="black" points="425.75,-154.85 397.75,-154.85 397.75,-136.35 425.75,-136.35 425.75,-154.85"/>
<text text-anchor="middle" x="411.75" y="-142.3" font-family="Times,serif" font-size="9.00">&#45;10</text>
</g>
<!-- &#45;10&#45;&gt;81 -->
<g id="edge17" class="edge">
<title>&#45;10&#45;&gt;81</title>
<path fill="none" stroke="red" stroke-width="0.5" d="M397.28,-137.13C377.79,-127.06 342.79,-108.99 318.93,-96.67"/>
<polygon fill="red" stroke="red" stroke-width="0.5" points="320.63,-93.61 310.14,-92.13 317.41,-99.83 320.63,-93.61"/>
</g>
<!-- &#45;10&#45;&gt;82 -->
<g id="edge37" class="edge">
<title>&#45;10&#45;&gt;82</title>
<path fill="none" stroke="green" stroke-width="0.16" stroke-dasharray="1,5" d="M418.48,-135.87C424.65,-127.87 434.04,-115.7 442.2,-105.13"/>
<polygon fill="green" stroke="green" stroke-width="0.16" points="444.91,-107.34 448.24,-97.29 439.36,-103.07 444.91,-107.34"/>
</g>
<!-- &#45;11 -->
<g id="node11" class="node">
<title>&#45;11</title>
<polygon fill="lightgray" stroke="black" points="111.75,-154.85 83.75,-154.85 83.75,-136.35 111.75,-136.35 111.75,-154.85"/>
<text text-anchor="middle" x="97.75" y="-142.3" font-family="Times,serif" font-size="9.00">&#45;11</text>
</g>
<!-- &#45;11&#45;&gt;84 -->
<g id="edge20" class="edge">
<title>&#45;11&#45;&gt;84</title>
<path fill="none" stroke="red" stroke-width="0.18" d="M112.1,-137.13C131.51,-127.02 166.44,-108.83 190.1,-96.51"/>
<polygon fill="red" stroke="red" stroke-width="0.18" points="191.67,-99.64 198.92,-91.91 188.43,-93.43 191.67,-99.64"/>
</g>
<!-- &#45;12 -->
<g id="node12" class="node">
<title>&#45;12</title>
<polygon fill="lightgray" stroke="black" points="513.75,-154.85 485.75,-154.85 485.75,-136.35 513.75,-136.35 513.75,-154.85"/>
<text text-anchor="middle" x="499.75" y="-142.3" font-family="Times,serif" font-size="9.00">&#45;12</text>
</g>
<!-- &#45;12&#45;&gt;81 -->
<g id="edge42" class="edge">
<title>&#45;12&#45;&gt;81</title>
<path fill="none" stroke="red" stroke-width="0.27" d="M485.71,-139.34C482.76,-138.3 479.67,-137.25 476.75,-136.35 416.19,-117.63 399.21,-119.38 338.75,-100.35 332.39,-98.34 325.6,-95.96 319.28,-93.63"/>
<polygon fill="red" stroke="red" stroke-width="0.27" points="320.84,-90.48 310.24,-90.23 318.37,-97.03 320.84,-90.48"/>
</g>
<!-- &#45;12&#45;&gt;82 -->
<g id="edge12" class="edge">
<title>&#45;12&#45;&gt;82</title>
<path fill="none" stroke="red" stroke-width="0.22" d="M493.88,-135.87C488.74,-128.23 481.04,-116.8 474.16,-106.57"/>
<polygon fill="red" stroke="red" stroke-width="0.22" points="477.09,-104.65 468.6,-98.31 471.28,-108.56 477.09,-104.65"/>
</g>
<!-- &#45;12&#45;&gt;83 -->
<g id="edge39" class="edge">
<title>&#45;12&#45;&gt;83</title>
<path fill="none" stroke="green" stroke-width="0.18" d="M485.41,-138.08C462.82,-127.81 418.66,-107.73 390.77,-95.04"/>
<polygon fill="green" stroke="green" stroke-width="0.18" points="392.44,-91.96 381.89,-91.01 389.55,-98.33 392.44,-91.96"/>
</g>
<!-- &#45;13 -->
<g id="node13" class="node">
<title>&#45;13</title>
<polygon fill="lightgray" stroke="black" points="773.75,-154.85 745.75,-154.85 745.75,-136.35 773.75,-136.35 773.75,-154.85"/>
<text text-anchor="middle" x="759.75" y="-142.3" font-family="Times,serif" font-size="9.00">&#45;13</text>
</g>
<!-- &#45;14 -->
<g id="node14" class="node">
<title>&#45;14</title>
<polygon fill="lightgray" stroke="black" points="819.75,-154.85 791.75,-154.85 791.75,-136.35 819.75,-136.35 819.75,-154.85"/>
<text text-anchor="middle" x="805.75" y="-142.3" font-family="Times,serif" font-size="9.00">&#45;14</text>
</g>
<!-- &#45;15 -->
<g id="node15" class="node">
<title>&#45;15</title>
<polygon fill="lightgray" stroke="black" points="379.75,-154.85 351.75,-154.85 351.75,-136.35 379.75,-136.35 379.75,-154.85"/>
<text text-anchor="middle" x="365.75" y="-142.3" font-family="Times,serif" font-size="9.00">&#45;15</text>
</g>
<!-- &#45;15&#45;&gt;81 -->
<g id="edge7" class="edge">
<title>&#45;15&#45;&gt;81</title>
<path fill="none" stroke="red" stroke-width="0.25" stroke-dasharray="1,5" d="M355.43,-135.87C344.87,-126.93 328.16,-112.78 314.79,-101.47"/>
<polygon fill="red" stroke="red" stroke-width="0.25" points="317.17,-98.9 307.27,-95.11 312.64,-104.24 317.17,-98.9"/>
</g>
<!-- &#45;15&#45;&gt;82 -->
<g id="edge4" class="edge">
<title>&#45;15&#45;&gt;82</title>
<path fill="none" stroke="red" stroke-width="0.23" d="M379.07,-135.87C393.92,-126.14 418.19,-110.24 436.04,-98.55"/>
<polygon fill="red" stroke="red" stroke-width="0.23" points="437.49,-101.78 443.94,-93.37 433.66,-95.92 437.49,-101.78"/>
</g>
<!-- &#45;15&#45;&gt;83 -->
<g id="edge9" class="edge">
<title>&#45;15&#45;&gt;83</title>
<path fill="none" stroke="green" stroke-width="0.19" d="M365.75,-135.87C365.75,-129.25 365.75,-119.76 365.75,-110.7"/>
<polygon fill="green" stroke="green" stroke-width="0.19" points="369.25,-110.71 365.75,-100.71 362.25,-110.71 369.25,-110.71"/>
</g>
<!-- &#45;16 -->
<g id="node16" class="node">
<title>&#45;16</title>
<polygon fill="lightgray" stroke="black" points="245.75,-154.85 217.75,-154.85 217.75,-136.35 245.75,-136.35 245.75,-154.85"/>
<text text-anchor="middle" x="231.75" y="-142.3" font-family="Times,serif" font-size="9.00">&#45;16</text>
</g>
<!-- &#45;16&#45;&gt;83 -->
<g id="edge21" class="edge">
<title>&#45;16&#45;&gt;83</title>
<path fill="none" stroke="green" stroke-width="0.14" d="M246.09,-138.08C268.68,-127.81 312.84,-107.73 340.73,-95.04"/>
<polygon fill="green" stroke="green" stroke-width="0.14" points="342.01,-98.31 349.67,-90.98 339.12,-91.93 342.01,-98.31"/>
</g>
<!-- &#45;16&#45;&gt;84 -->
<g id="edge30" class="edge">
<title>&#45;16&#45;&gt;84</title>
<path fill="none" stroke="green" stroke-width="0.31" d="M229.31,-135.87C227.42,-129.08 224.69,-119.28 222.1,-110.01"/>
<polygon fill="green" stroke="green" stroke-width="0.31" points="225.48,-109.09 219.42,-100.4 218.74,-110.97 225.48,-109.09"/>
</g>
<!-- &#45;17 -->
<g id="node17" class="node">
<title>&#45;17</title>
<polygon fill="lightgray" stroke="black" points="157.75,-154.85 129.75,-154.85 129.75,-136.35 157.75,-136.35 157.75,-154.85"/>
<text text-anchor="middle" x="143.75" y="-142.3" font-family="Times,serif" font-size="9.00">&#45;17</text>
</g>
<!-- &#45;17&#45;&gt;81 -->
<g id="edge10" class="edge">
<title>&#45;17&#45;&gt;81</title>
<path fill="none" stroke="red" stroke-width="0.4" stroke-dasharray="1,5" d="M158.13,-138.75C183.41,-128.49 236.12,-107.08 267.87,-94.18"/>
<polygon fill="red" stroke="red" stroke-width="0.4" points="268.88,-97.55 276.82,-90.54 266.24,-91.07 268.88,-97.55"/>
</g>
<!-- &#45;17&#45;&gt;84 -->
<g id="edge13" class="edge">
<title>&#45;17&#45;&gt;84</title>
<path fill="none" stroke="green" stroke-width="0.4" stroke-dasharray="1,5" d="M153.92,-135.87C164.34,-126.93 180.82,-112.78 194,-101.47"/>
<polygon fill="green" stroke="green" stroke-width="0.4" points="195.93,-104.43 201.24,-95.26 191.37,-99.12 195.93,-104.43"/>
</g>
<!-- &#45;18 -->
<g id="node18" class="node">
<title>&#45;18</title>
<polygon fill="lightgray" stroke="black" points="685.75,-154.85 657.75,-154.85 657.75,-136.35 685.75,-136.35 685.75,-154.85"/>
<text text-anchor="middle" x="671.75" y="-142.3" font-family="Times,serif" font-size="9.00">&#45;18</text>
</g>
<!-- &#45;18&#45;&gt;82 -->
<g id="edge32" class="edge">
<title>&#45;18&#45;&gt;82</title>
<path fill="none" stroke="red" stroke-width="0.22" d="M657.7,-139.37C654.75,-138.33 651.66,-137.27 648.75,-136.35 591.29,-118.1 522.97,-100.03 485.92,-90.53"/>
<polygon fill="red" stroke="red" stroke-width="0.22" points="486.79,-87.14 476.23,-88.06 485.06,-93.92 486.79,-87.14"/>
</g>
<!-- &#45;19 -->
<g id="node19" class="node">
<title>&#45;19</title>
<polygon fill="lightgray" stroke="black" points="865.75,-154.85 837.75,-154.85 837.75,-136.35 865.75,-136.35 865.75,-154.85"/>
<text text-anchor="middle" x="851.75" y="-142.3" font-family="Times,serif" font-size="9.00">&#45;19</text>
</g>
<!-- &#45;20 -->
<g id="node20" class="node">
<title>&#45;20</title>
<polygon fill="lightgray" stroke="black" points="333.75,-154.85 305.75,-154.85 305.75,-136.35 333.75,-136.35 333.75,-154.85"/>
<text text-anchor="middle" x="319.75" y="-142.3" font-family="Times,serif" font-size="9.00">&#45;20</text>
</g>
<!-- &#45;20&#45;&gt;82 -->
<g id="edge24" class="edge">
<title>&#45;20&#45;&gt;82</title>
<path fill="none" stroke="red" stroke-width="0.67" d="M334.1,-138.31C357.33,-128.12 403.5,-107.89 432.66,-95.11"/>
<polygon fill="red" stroke="red" stroke-width="0.67" points="433.87,-98.39 441.63,-91.17 431.06,-91.98 433.87,-98.39"/>
</g>
<!-- &#45;20&#45;&gt;83 -->
<g id="edge27" class="edge">
<title>&#45;20&#45;&gt;83</title>
<path fill="none" stroke="green" stroke-width="0.18" d="M326.34,-135.87C332.38,-127.87 341.56,-115.7 349.55,-105.13"/>
<polygon fill="green" stroke="green" stroke-width="0.18" points="352.21,-107.41 355.44,-97.32 346.62,-103.19 352.21,-107.41"/>
</g>
<!-- &#45;20&#45;&gt;84 -->
<g id="edge14" class="edge">
<title>&#45;20&#45;&gt;84</title>
<path fill="none" stroke="red" stroke-width="0.24" stroke-dasharray="1,5" d="M305.59,-136.38C288.4,-126.41 259.17,-109.45 238.51,-97.46"/>
<polygon fill="red" stroke="red" stroke-width="0.24" points="240.43,-94.52 230.02,-92.53 236.91,-100.58 240.43,-94.52"/>
</g>
<!-- 0 -->
<g id="node21" class="node">
<title>0</title>
<ellipse fill="lightblue" stroke="black" cx="206.75" cy="-14.5" rx="14.5" ry="14.5"/>
<text text-anchor="middle" x="206.75" y="-11.2" font-family="Times,serif" font-size="9.00">0</text>
</g>
<!-- 1 -->
<g id="node22" class="node">
<title>1</title>
<ellipse fill="lightblue" stroke="black" cx="253.75" cy="-14.5" rx="14.5" ry="14.5"/>
<text text-anchor="middle" x="253.75" y="-11.2" font-family="Times,serif" font-size="9.00">1</text>
</g>
<!-- 2 -->
<g id="node23" class="node">
<title>2</title>
<ellipse fill="lightblue" stroke="black" cx="365.75" cy="-14.5" rx="14.5" ry="14.5"/>
<text text-anchor="middle" x="365.75" y="-11.2" font-family="Times,serif" font-size="9.00">2</text>
</g>
<!-- 3 -->
<g id="node24" class="node">
<title>3</title>
<ellipse fill="lightblue" stroke="black" cx="412.75" cy="-14.5" rx="14.5" ry="14.5"/>
<text text-anchor="middle" x="412.75" y="-11.2" font-family="Times,serif" font-size="9.00">3</text>
</g>
<!-- 4 -->
<g id="node25" class="node">
<title>4</title>
<ellipse fill="lightblue" stroke="black" cx="300.75" cy="-14.5" rx="14.5" ry="14.5"/>
<text text-anchor="middle" x="300.75" y="-11.2" font-family="Times,serif" font-size="9.00">4</text>
</g>
<!-- 4&#45;&gt;4 -->
<g id="edge22" class="edge">
<title>4&#45;&gt;4</title>
<path fill="none" stroke="green" stroke-width="0.41" d="M311.4,-24.65C321.81,-30.26 333.25,-26.88 333.25,-14.5 333.25,-6.18 328.08,-1.92 321.54,-1.72"/>
<polygon fill="green" stroke="green" stroke-width="0.41" points="320.81,1.71 312.01,-4.18 322.56,-5.07 320.81,1.71"/>
</g>
<!-- 81&#45;&gt;1 -->
<g id="edge2" class="edge">
<title>81&#45;&gt;1</title>
<path fill="none" stroke="red" stroke-width="0.29" d="M284.87,-66.98C279.43,-57.98 272.38,-46.31 266.36,-36.36"/>
<polygon fill="red" stroke="red" stroke-width="0.29" points="269.4,-34.62 261.23,-27.87 263.41,-38.24 269.4,-34.62"/>
</g>
<!-- 81&#45;&gt;2 -->
<g id="edge16" class="edge">
<title>81&#45;&gt;2</title>
<path fill="none" stroke="green" stroke-width="0.38" d="M306.62,-69.84C318.04,-59.35 334.83,-43.91 347.61,-32.17"/>
<polygon fill="green" stroke="green" stroke-width="0.38" points="349.91,-34.81 354.9,-25.46 345.17,-29.65 349.91,-34.81"/>
</g>
<!-- 82&#45;&gt;2 -->
<g id="edge29" class="edge">
<title>82&#45;&gt;2</title>
<path fill="none" stroke="green" stroke-width="0.18" stroke-dasharray="1,5" d="M444.63,-71.62C428.82,-60.37 403.1,-42.07 385.35,-29.44"/>
<polygon fill="green" stroke="green" stroke-width="0.18" points="387.76,-26.86 377.58,-23.91 383.7,-32.56 387.76,-26.86"/>
</g>
<!-- 82&#45;&gt;3 -->
<g id="edge19" class="edge">
<title>82&#45;&gt;3</title>
<path fill="none" stroke="green" stroke-width="0.34" d="M448.99,-67.64C442.47,-58.25 433.78,-45.75 426.55,-35.35"/>
<polygon fill="green" stroke="green" stroke-width="0.34" points="429.53,-33.51 420.95,-27.3 423.79,-37.5 429.53,-33.51"/>
</g>
<!-- 83&#45;&gt;1 -->
<g id="edge25" class="edge">
<title>83&#45;&gt;1</title>
<path fill="none" stroke="green" stroke-width="0.44" stroke-dasharray="1,5" d="M350.65,-72.74C331.09,-61.19 296.9,-40.99 274.8,-27.94"/>
<polygon fill="green" stroke="green" stroke-width="0.44" points="276.84,-25.07 266.45,-23 273.28,-31.1 276.84,-25.07"/>
</g>
<!-- 83&#45;&gt;2 -->
<g id="edge8" class="edge">
<title>83&#45;&gt;2</title>
<path fill="none" stroke="red" stroke-width="0.35" stroke-dasharray="1,5" d="M365.75,-64.63C365.75,-56.96 365.75,-47.77 365.75,-39.43"/>
<polygon fill="red" stroke="red" stroke-width="0.35" points="369.25,-39.67 365.75,-29.67 362.25,-39.67 369.25,-39.67"/>
</g>
<!-- 83&#45;&gt;3 -->
<g id="edge38" class="edge">
<title>83&#45;&gt;3</title>
<path fill="none" stroke="red" stroke-width="0.18" stroke-dasharray="1,5" d="M375.72,-67.64C382.45,-58.15 391.44,-45.5 398.87,-35.03"/>
<polygon fill="red" stroke="red" stroke-width="0.18" points="401.57,-37.27 404.51,-27.1 395.87,-33.22 401.57,-37.27"/>
</g>
<!-- 83&#45;&gt;4 -->
<g id="edge35" class="edge">
<title>83&#45;&gt;4</title>
<path fill="none" stroke="red" stroke-width="0.16" d="M353.52,-69.22C343.36,-58.88 328.81,-44.06 317.55,-32.6"/>
<polygon fill="red" stroke="red" stroke-width="0.16" points="320.05,-30.15 310.55,-25.47 315.06,-35.06 320.05,-30.15"/>
</g>
<!-- 84&#45;&gt;0 -->
<g id="edge1" class="edge">
<title>84&#45;&gt;0</title>
<path fill="none" stroke="green" stroke-width="0.2" d="M212.69,-64.63C211.75,-56.87 210.63,-47.57 209.61,-39.15"/>
<polygon fill="green" stroke="green" stroke-width="0.2" points="213.11,-38.95 208.44,-29.45 206.16,-39.79 213.11,-38.95"/>
</g>
<!-- 84&#45;&gt;1 -->
<g id="edge40" class="edge">
<title>84&#45;&gt;1</title>
<path fill="none" stroke="green" stroke-width="0.37" d="M223.41,-66.98C228.71,-57.98 235.59,-46.31 241.45,-36.36"/>
<polygon fill="green" stroke="green" stroke-width="0.37" points="244.33,-38.37 246.39,-27.98 238.3,-34.82 244.33,-38.37"/>
</g>
<!-- 84&#45;&gt;2 -->
<g id="edge31" class="edge">
<title>84&#45;&gt;2</title>
<path fill="none" stroke="red" stroke-width="0.15" stroke-dasharray="1,5" d="M231.06,-75.62C255.5,-66.4 302.9,-47.89 341.75,-28.99 342.74,-28.51 343.74,-28.01 344.75,-27.49"/>
<polygon fill="red" stroke="red" stroke-width="0.15" points="346.36,-30.6 353.49,-22.76 343.03,-24.44 346.36,-30.6"/>
</g>
<!-- 84&#45;&gt;3 -->
<g id="edge5" class="edge">
<title>84&#45;&gt;3</title>
<path fill="none" stroke="green" stroke-width="0.19" d="M231.58,-76.16C241.75,-72.86 254.97,-68.62 266.75,-64.99 320.78,-48.36 336.67,-50.99 388.75,-28.99 389.76,-28.56 390.79,-28.1 391.81,-27.62"/>
<polygon fill="green" stroke="green" stroke-width="0.19" points="393.33,-30.78 400.56,-23.04 390.08,-24.58 393.33,-30.78"/>
</g>
<!-- 84&#45;&gt;4 -->
<g id="edge6" class="edge">
<title>84&#45;&gt;4</title>
<path fill="none" stroke="red" stroke-width="0.39" d="M228.57,-71.04C242.83,-60.06 265.2,-42.85 281.26,-30.49"/>
<polygon fill="red" stroke="red" stroke-width="0.39" points="283.18,-33.43 288.98,-24.56 278.92,-27.88 283.18,-33.43"/>
</g>
</g>
</svg>
