<?xml version="1.0" encoding="UTF-8" standalone="no"?>
<!DOCTYPE svg PUBLIC "-//W3C//DTD SVG 1.1//EN"
 "http://www.w3.org/Graphics/SVG/1.1/DTD/svg11.dtd">
<!-- Generated by graphviz version 12.1.1 (20240910.0053)
 -->
<!-- Pages: 1 -->
<svg width="873pt" height="247pt"
 viewBox="0.00 0.00 872.71 246.93" xmlns="http://www.w3.org/2000/svg" xmlns:xlink="http://www.w3.org/1999/xlink">
<g id="graph0" class="graph" transform="scale(1 1) rotate(0) translate(4 242.93)">
<polygon fill="white" stroke="none" points="-4,4 -4,-242.93 868.71,-242.93 868.71,4 -4,4"/>
<!-- &#45;1 -->
<g id="node1" class="node">
<title>&#45;1</title>
<polygon fill="lightgray" stroke="black" points="621.5,-172.82 598,-172.82 598,-154.32 621.5,-154.32 621.5,-172.82"/>
<text text-anchor="middle" x="609.75" y="-160.27" font-family="Times,serif" font-size="9.00">&#45;1</text>
</g>
<!-- 147 -->
<g id="node30" class="node">
<title>147</title>
<ellipse fill="white" stroke="black" cx="363.75" cy="-85.85" rx="20.86" ry="20.86"/>
<text text-anchor="middle" x="363.75" y="-82.55" font-family="Times,serif" font-size="9.00">147</text>
</g>
<!-- &#45;1&#45;&gt;147 -->
<g id="edge23" class="edge">
<title>&#45;1&#45;&gt;147</title>
<path fill="none" stroke="red" stroke-width="0.19" d="M597.59,-158.34C585.68,-154.23 567.02,-147.88 550.75,-142.71 495.4,-125.13 430.35,-106.06 393.39,-95.36"/>
<polygon fill="red" stroke="red" stroke-width="0.19" points="394.6,-92.07 384.02,-92.66 392.66,-98.8 394.6,-92.07"/>
</g>
<!-- 148 -->
<g id="node31" class="node">
<title>148</title>
<ellipse fill="white" stroke="black" cx="631.75" cy="-85.85" rx="20.86" ry="20.86"/>
<text text-anchor="middle" x="631.75" y="-82.55" font-family="Times,serif" font-size="9.00">148</text>
</g>
<!-- &#45;1&#45;&gt;148 -->
<g id="edge6" class="edge">
<title>&#45;1&#45;&gt;148</title>
<path fill="none" stroke="red" stroke-width="0.46" stroke-dasharray="1,5" d="M612.27,-153.88C614.93,-144.72 619.28,-129.77 623.19,-116.32"/>
<polygon fill="red" stroke="red" stroke-width="0.46" points="626.44,-117.68 625.86,-107.1 619.71,-115.73 626.44,-117.68"/>
</g>
<!-- &#45;2 -->
<g id="node2" class="node">
<title>&#45;2</title>
<polygon fill="lightgray" stroke="black" points="457.5,-172.82 434,-172.82 434,-154.32 457.5,-154.32 457.5,-172.82"/>
<text text-anchor="middle" x="445.75" y="-160.27" font-family="Times,serif" font-size="9.00">&#45;2</text>
</g>
<!-- 3 -->
<g id="node24" class="node">
<title>3</title>
<ellipse fill="lightblue" stroke="black" cx="441.75" cy="-14.5" rx="14.5" ry="14.5"/>
<text text-anchor="middle" x="441.75" y="-11.2" font-family="Times,serif" font-size="9.00">3</text>
</g>
<!-- &#45;2&#45;&gt;3 -->
<g id="edge45" class="edge">
<title>&#45;2&#45;&gt;3</title>
<path fill="none" stroke="green" stroke-width="0.12" d="M445.52,-154.24C444.93,-132.42 443.31,-72.95 442.4,-39.38"/>
<polygon fill="green" stroke="green" stroke-width="0.12" points="445.9,-39.55 442.13,-29.65 438.91,-39.74 445.9,-39.55"/>
</g>
<!-- 146 -->
<g id="node29" class="node">
<title>146</title>
<ellipse fill="white" stroke="black" cx="490.75" cy="-85.85" rx="20.86" ry="20.86"/>
<text text-anchor="middle" x="490.75" y="-82.55" font-family="Times,serif" font-size="9.00">146</text>
</g>
<!-- &#45;2&#45;&gt;146 -->
<g id="edge21" class="edge">
<title>&#45;2&#45;&gt;146</title>
<path fill="none" stroke="red" stroke-width="0.14" d="M450.91,-153.88C456.84,-143.91 466.84,-127.09 475.33,-112.79"/>
<polygon fill="red" stroke="red" stroke-width="0.14" points="478.17,-114.87 480.27,-104.48 472.15,-111.29 478.17,-114.87"/>
</g>
<!-- &#45;2&#45;&gt;147 -->
<g id="edge27" class="edge">
<title>&#45;2&#45;&gt;147</title>
<path fill="none" stroke="red" stroke-width="0.2" stroke-dasharray="1,5" d="M436.34,-153.88C424.16,-142.63 402.53,-122.66 386.04,-107.43"/>
<polygon fill="red" stroke="red" stroke-width="0.2" points="388.82,-105.24 379.1,-101.03 384.07,-110.38 388.82,-105.24"/>
</g>
<!-- &#45;3 -->
<g id="node3" class="node">
<title>&#45;3</title>
<polygon fill="lightgray" stroke="black" points="499.5,-172.82 476,-172.82 476,-154.32 499.5,-154.32 499.5,-172.82"/>
<text text-anchor="middle" x="487.75" y="-160.27" font-family="Times,serif" font-size="9.00">&#45;3</text>
</g>
<!-- 145 -->
<g id="node28" class="node">
<title>145</title>
<ellipse fill="white" stroke="black" cx="277.75" cy="-85.85" rx="20.86" ry="20.86"/>
<text text-anchor="middle" x="277.75" y="-82.55" font-family="Times,serif" font-size="9.00">145</text>
</g>
<!-- &#45;3&#45;&gt;145 -->
<g id="edge20" class="edge">
<title>&#45;3&#45;&gt;145</title>
<path fill="none" stroke="green" stroke-width="0.35" d="M480.71,-154.2C476.94,-150.2 472,-145.66 466.75,-142.71 413.33,-112.77 392.21,-124.96 333.75,-106.71 325.07,-104 315.73,-100.8 307.21,-97.77"/>
<polygon fill="green" stroke="green" stroke-width="0.35" points="308.41,-94.49 297.81,-94.38 306.03,-101.07 308.41,-94.49"/>
</g>
<!-- &#45;3&#45;&gt;146 -->
<g id="edge34" class="edge">
<title>&#45;3&#45;&gt;146</title>
<path fill="none" stroke="red" stroke-width="0.48" d="M488.09,-153.88C488.44,-145.02 489.01,-130.75 489.53,-117.65"/>
<polygon fill="red" stroke="red" stroke-width="0.48" points="493.02,-117.91 489.92,-107.78 486.03,-117.64 493.02,-117.91"/>
</g>
<!-- &#45;3&#45;&gt;148 -->
<g id="edge31" class="edge">
<title>&#45;3&#45;&gt;148</title>
<path fill="none" stroke="red" stroke-width="0.34" stroke-dasharray="1,5" d="M495.39,-154.16C499.15,-150.34 503.92,-145.96 508.75,-142.71 538.47,-122.73 576.51,-106.71 602.36,-97.03"/>
<polygon fill="red" stroke="red" stroke-width="0.34" points="603.28,-100.42 611.47,-93.7 600.88,-93.85 603.28,-100.42"/>
</g>
<!-- &#45;4 -->
<g id="node4" class="node">
<title>&#45;4</title>
<polygon fill="lightgray" stroke="black" points="541.5,-172.82 518,-172.82 518,-154.32 541.5,-154.32 541.5,-172.82"/>
<text text-anchor="middle" x="529.75" y="-160.27" font-family="Times,serif" font-size="9.00">&#45;4</text>
</g>
<!-- &#45;4&#45;&gt;145 -->
<g id="edge32" class="edge">
<title>&#45;4&#45;&gt;145</title>
<path fill="none" stroke="green" stroke-width="0.42" d="M522.79,-154.07C519.04,-150.03 514.09,-145.49 508.75,-142.71 438.32,-106.03 410.24,-128.03 333.75,-106.71 324.99,-104.27 315.62,-101.15 307.1,-98.12"/>
<polygon fill="green" stroke="green" stroke-width="0.42" points="308.42,-94.88 297.83,-94.73 306.02,-101.45 308.42,-94.88"/>
</g>
<!-- &#45;4&#45;&gt;148 -->
<g id="edge5" class="edge">
<title>&#45;4&#45;&gt;148</title>
<path fill="none" stroke="green" stroke-width="0.19" d="M541.45,-153.88C557.36,-142.07 586.23,-120.64 607.05,-105.19"/>
<polygon fill="green" stroke="green" stroke-width="0.19" points="608.96,-108.13 614.9,-99.36 604.79,-102.51 608.96,-108.13"/>
</g>
<!-- &#45;5 -->
<g id="node5" class="node">
<title>&#45;5</title>
<polygon fill="lightgray" stroke="black" points="755.5,-172.82 732,-172.82 732,-154.32 755.5,-154.32 755.5,-172.82"/>
<text text-anchor="middle" x="743.75" y="-160.27" font-family="Times,serif" font-size="9.00">&#45;5</text>
</g>
<!-- &#45;5&#45;&gt;148 -->
<g id="edge26" class="edge">
<title>&#45;5&#45;&gt;148</title>
<path fill="none" stroke="green" stroke-width="0.49" d="M735.52,-154.03C731.79,-150.36 727.21,-146.13 722.75,-142.71 702.55,-127.22 677.83,-112.28 659.26,-101.75"/>
<polygon fill="green" stroke="green" stroke-width="0.49" points="660.99,-98.71 650.55,-96.89 657.58,-104.82 660.99,-98.71"/>
</g>
<!-- &#45;6 -->
<g id="node6" class="node">
<title>&#45;6</title>
<polygon fill="lightgray" stroke="black" points="797.5,-172.82 774,-172.82 774,-154.32 797.5,-154.32 797.5,-172.82"/>
<text text-anchor="middle" x="785.75" y="-160.27" font-family="Times,serif" font-size="9.00">&#45;6</text>
</g>
<!-- &#45;6&#45;&gt;148 -->
<g id="edge3" class="edge">
<title>&#45;6&#45;&gt;148</title>
<path fill="none" stroke="green" stroke-width="0.41" stroke-dasharray="1,5" d="M778.15,-154.1C774.39,-150.26 769.63,-145.89 764.75,-142.71 732,-121.37 689.76,-105.29 661.76,-95.99"/>
<polygon fill="green" stroke="green" stroke-width="0.41" points="662.96,-92.7 652.37,-92.95 660.8,-99.36 662.96,-92.7"/>
</g>
<!-- &#45;7 -->
<g id="node7" class="node">
<title>&#45;7</title>
<polygon fill="lightgray" stroke="black" points="99.5,-172.82 76,-172.82 76,-154.32 99.5,-154.32 99.5,-172.82"/>
<text text-anchor="middle" x="87.75" y="-160.27" font-family="Times,serif" font-size="9.00">&#45;7</text>
</g>
<!-- &#45;7&#45;&gt;145 -->
<g id="edge7" class="edge">
<title>&#45;7&#45;&gt;145</title>
<path fill="none" stroke="red" stroke-width="0.26" d="M97.36,-154.03C102.05,-150.18 107.94,-145.81 113.75,-142.71 157.76,-119.22 213.57,-102.72 247.43,-94.02"/>
<polygon fill="red" stroke="red" stroke-width="0.26" points="247.96,-97.49 256.81,-91.66 246.26,-90.7 247.96,-97.49"/>
</g>
<!-- &#45;8 -->
<g id="node8" class="node">
<title>&#45;8</title>
<polygon fill="lightgray" stroke="black" points="346.5,-238.93 323,-238.93 323,-220.43 346.5,-220.43 346.5,-238.93"/>
<text text-anchor="middle" x="334.75" y="-226.38" font-family="Times,serif" font-size="9.00">&#45;8</text>
</g>
<!-- &#45;9 -->
<g id="node9" class="node">
<title>&#45;9</title>
<polygon fill="lightgray" stroke="black" points="331.5,-172.82 308,-172.82 308,-154.32 331.5,-154.32 331.5,-172.82"/>
<text text-anchor="middle" x="319.75" y="-160.27" font-family="Times,serif" font-size="9.00">&#45;9</text>
</g>
<!-- &#45;9&#45;&gt;147 -->
<g id="edge36" class="edge">
<title>&#45;9&#45;&gt;147</title>
<path fill="none" stroke="red" stroke-width="0.12" stroke-dasharray="1,5" d="M324.8,-153.88C330.59,-143.91 340.37,-127.09 348.68,-112.79"/>
<polygon fill="red" stroke="red" stroke-width="0.12" points="351.52,-114.86 353.52,-104.45 345.47,-111.34 351.52,-114.86"/>
</g>
<!-- &#45;10 -->
<g id="node10" class="node">
<title>&#45;10</title>
<polygon fill="lightgray" stroke="black" points="304.75,-238.93 276.75,-238.93 276.75,-220.43 304.75,-220.43 304.75,-238.93"/>
<text text-anchor="middle" x="290.75" y="-226.38" font-family="Times,serif" font-size="9.00">&#45;10</text>
</g>
<!-- 367 -->
<g id="node27" class="node">
<title>367</title>
<ellipse fill="white" stroke="black" cx="176.75" cy="-163.57" rx="20.86" ry="20.86"/>
<text text-anchor="middle" x="176.75" y="-160.27" font-family="Times,serif" font-size="9.00">367</text>
</g>
<!-- &#45;10&#45;&gt;367 -->
<g id="edge46" class="edge">
<title>&#45;10&#45;&gt;367</title>
<path fill="none" stroke="red" stroke-width="0.15" d="M276.54,-221.74C259.65,-213.36 230.72,-198.63 206.75,-184.43 205.27,-183.55 203.76,-182.64 202.25,-181.7"/>
<polygon fill="red" stroke="red" stroke-width="0.15" points="204.2,-178.79 193.89,-176.34 200.42,-184.68 204.2,-178.79"/>
</g>
<!-- &#45;10&#45;&gt;145 -->
<g id="edge10" class="edge">
<title>&#45;10&#45;&gt;145</title>
<path fill="none" stroke="red" stroke-width="0.39" d="M276.66,-229.31C246.83,-229.77 177.52,-226.08 146.75,-184.43 135.73,-169.52 136.53,-158.18 146.75,-142.71 168.82,-109.31 215.37,-95.82 246.61,-90.41"/>
<polygon fill="red" stroke="red" stroke-width="0.39" points="247.02,-93.89 256.37,-88.9 245.95,-86.97 247.02,-93.89"/>
</g>
<!-- &#45;10&#45;&gt;147 -->
<g id="edge38" class="edge">
<title>&#45;10&#45;&gt;147</title>
<path fill="none" stroke="green" stroke-width="0.71" stroke-dasharray="1,5" d="M304.86,-223.16C330.37,-213.03 382,-191.85 386.75,-184.43 400.54,-162.89 390.92,-133.92 380.22,-113.16"/>
<polygon fill="green" stroke="green" stroke-width="0.71" points="383.41,-111.69 375.5,-104.63 377.28,-115.08 383.41,-111.69"/>
</g>
<!-- &#45;10&#45;&gt;148 -->
<g id="edge24" class="edge">
<title>&#45;10&#45;&gt;148</title>
<path fill="none" stroke="green" stroke-width="0.29" d="M305.17,-222.82C307.98,-221.88 310.93,-221.02 313.75,-220.43 372.51,-208.18 811.75,-228.26 852.75,-184.43 911.19,-121.96 736.21,-97.09 662.67,-89.56"/>
<polygon fill="green" stroke="green" stroke-width="0.29" points="663.33,-86.11 653.03,-88.62 662.65,-93.08 663.33,-86.11"/>
</g>
<!-- &#45;11 -->
<g id="node11" class="node">
<title>&#45;11</title>
<polygon fill="lightgray" stroke="black" points="667.75,-172.82 639.75,-172.82 639.75,-154.32 667.75,-154.32 667.75,-172.82"/>
<text text-anchor="middle" x="653.75" y="-160.27" font-family="Times,serif" font-size="9.00">&#45;11</text>
</g>
<!-- &#45;11&#45;&gt;146 -->
<g id="edge35" class="edge">
<title>&#45;11&#45;&gt;146</title>
<path fill="none" stroke="red" stroke-width="0.28" stroke-dasharray="1,5" d="M645.33,-154.1C641.19,-150.26 635.98,-145.89 630.75,-142.71 595.14,-121.08 549.67,-104.74 520.38,-95.49"/>
<polygon fill="red" stroke="red" stroke-width="0.28" points="521.72,-92.24 511.14,-92.64 519.66,-98.93 521.72,-92.24"/>
</g>
<!-- &#45;11&#45;&gt;148 -->
<g id="edge12" class="edge">
<title>&#45;11&#45;&gt;148</title>
<path fill="none" stroke="red" stroke-width="0.44" stroke-dasharray="1,5" d="M651.23,-153.88C648.56,-144.72 644.22,-129.77 640.31,-116.32"/>
<polygon fill="red" stroke="red" stroke-width="0.44" points="643.78,-115.7 637.63,-107.08 637.05,-117.66 643.78,-115.7"/>
</g>
<!-- &#45;12 -->
<g id="node12" class="node">
<title>&#45;12</title>
<polygon fill="lightgray" stroke="black" points="843.75,-172.82 815.75,-172.82 815.75,-154.32 843.75,-154.32 843.75,-172.82"/>
<text text-anchor="middle" x="829.75" y="-160.27" font-family="Times,serif" font-size="9.00">&#45;12</text>
</g>
<!-- &#45;12&#45;&gt;148 -->
<g id="edge41" class="edge">
<title>&#45;12&#45;&gt;148</title>
<path fill="none" stroke="red" stroke-width="0.12" d="M821.43,-153.93C817.31,-150.06 812.09,-145.7 806.75,-142.71 759.77,-116.4 698.64,-100.49 662.46,-92.72"/>
<polygon fill="red" stroke="red" stroke-width="0.12" points="663.19,-89.29 652.69,-90.69 661.77,-96.15 663.19,-89.29"/>
</g>
<!-- &#45;13 -->
<g id="node13" class="node">
<title>&#45;13</title>
<polygon fill="lightgray" stroke="black" points="713.75,-172.82 685.75,-172.82 685.75,-154.32 713.75,-154.32 713.75,-172.82"/>
<text text-anchor="middle" x="699.75" y="-160.27" font-family="Times,serif" font-size="9.00">&#45;13</text>
</g>
<!-- &#45;13&#45;&gt;146 -->
<g id="edge30" class="edge">
<title>&#45;13&#45;&gt;146</title>
<path fill="none" stroke="red" stroke-width="0.3" stroke-dasharray="1,5" d="M691.45,-153.89C687.34,-150.01 682.11,-145.66 676.75,-142.71 625.96,-114.83 559.54,-99.21 521.37,-91.95"/>
<polygon fill="red" stroke="red" stroke-width="0.3" points="522.3,-88.57 511.83,-90.21 521.04,-95.45 522.3,-88.57"/>
</g>
<!-- &#45;13&#45;&gt;148 -->
<g id="edge25" class="edge">
<title>&#45;13&#45;&gt;148</title>
<path fill="none" stroke="red" stroke-width="0.56" d="M691.95,-153.88C682.35,-143.2 665.69,-124.65 652.33,-109.77"/>
<polygon fill="red" stroke="red" stroke-width="0.56" points="655.16,-107.68 645.87,-102.58 649.95,-112.35 655.16,-107.68"/>
</g>
<!-- &#45;14 -->
<g id="node14" class="node">
<title>&#45;14</title>
<polygon fill="lightgray" stroke="black" points="50.75,-238.93 22.75,-238.93 22.75,-220.43 50.75,-220.43 50.75,-238.93"/>
<text text-anchor="middle" x="36.75" y="-226.38" font-family="Times,serif" font-size="9.00">&#45;14</text>
</g>
<!-- 303 -->
<g id="node26" class="node">
<title>303</title>
<ellipse fill="white" stroke="black" cx="36.75" cy="-163.57" rx="20.86" ry="20.86"/>
<text text-anchor="middle" x="36.75" y="-160.27" font-family="Times,serif" font-size="9.00">303</text>
</g>
<!-- &#45;14&#45;&gt;303 -->
<g id="edge43" class="edge">
<title>&#45;14&#45;&gt;303</title>
<path fill="none" stroke="red" stroke-width="0.19" d="M36.75,-220.03C36.75,-213.53 36.75,-204.19 36.75,-195.03"/>
<polygon fill="red" stroke="red" stroke-width="0.19" points="40.25,-195.22 36.75,-185.22 33.25,-195.22 40.25,-195.22"/>
</g>
<!-- &#45;14&#45;&gt;145 -->
<g id="edge37" class="edge">
<title>&#45;14&#45;&gt;145</title>
<path fill="none" stroke="red" stroke-width="0.3" stroke-dasharray="1,5" d="M28.91,-220.18C14.59,-203.6 -12.62,-166.48 6.75,-142.71 36.65,-106.01 181.15,-92.71 246.06,-88.53"/>
<polygon fill="red" stroke="red" stroke-width="0.3" points="246.26,-92.03 256.03,-87.93 245.83,-85.04 246.26,-92.03"/>
</g>
<!-- &#45;14&#45;&gt;146 -->
<g id="edge16" class="edge">
<title>&#45;14&#45;&gt;146</title>
<path fill="none" stroke="green" stroke-width="0.24" d="M51.04,-227.99C132.32,-224 533.34,-203.4 550.75,-184.43 563.29,-170.77 558.15,-159.71 550.75,-142.71 543.71,-126.55 529.44,-112.95 516.58,-103.21"/>
<polygon fill="green" stroke="green" stroke-width="0.24" points="518.89,-100.57 508.72,-97.6 514.83,-106.26 518.89,-100.57"/>
</g>
<!-- &#45;15 -->
<g id="node15" class="node">
<title>&#45;15</title>
<polygon fill="lightgray" stroke="black" points="392.75,-238.93 364.75,-238.93 364.75,-220.43 392.75,-220.43 392.75,-238.93"/>
<text text-anchor="middle" x="378.75" y="-226.38" font-family="Times,serif" font-size="9.00">&#45;15</text>
</g>
<!-- &#45;16 -->
<g id="node16" class="node">
<title>&#45;16</title>
<polygon fill="lightgray" stroke="black" points="438.75,-238.93 410.75,-238.93 410.75,-220.43 438.75,-220.43 438.75,-238.93"/>
<text text-anchor="middle" x="424.75" y="-226.38" font-family="Times,serif" font-size="9.00">&#45;16</text>
</g>
<!-- &#45;17 -->
<g id="node17" class="node">
<title>&#45;17</title>
<polygon fill="lightgray" stroke="black" points="289.75,-172.82 261.75,-172.82 261.75,-154.32 289.75,-154.32 289.75,-172.82"/>
<text text-anchor="middle" x="275.75" y="-160.27" font-family="Times,serif" font-size="9.00">&#45;17</text>
</g>
<!-- &#45;17&#45;&gt;145 -->
<g id="edge14" class="edge">
<title>&#45;17&#45;&gt;145</title>
<path fill="none" stroke="red" stroke-width="0.83" stroke-dasharray="1,5" d="M275.98,-153.88C276.21,-145.11 276.58,-131.04 276.93,-118.04"/>
<polygon fill="red" stroke="red" stroke-width="0.83" points="280.42,-118.4 277.18,-108.31 273.42,-118.22 280.42,-118.4"/>
</g>
<!-- &#45;17&#45;&gt;148 -->
<g id="edge19" class="edge">
<title>&#45;17&#45;&gt;148</title>
<path fill="none" stroke="red" stroke-width="0.34" stroke-dasharray="1,5" d="M283.47,-153.98C287.6,-149.92 293.01,-145.39 298.75,-142.71 389.33,-100.45 422.22,-123.51 520.75,-106.71 547.95,-102.07 578.84,-96.52 601.12,-92.47"/>
<polygon fill="red" stroke="red" stroke-width="0.34" points="601.59,-95.94 610.8,-90.7 600.33,-89.06 601.59,-95.94"/>
</g>
<!-- &#45;18 -->
<g id="node18" class="node">
<title>&#45;18</title>
<polygon fill="lightgray" stroke="black" points="377.75,-172.82 349.75,-172.82 349.75,-154.32 377.75,-154.32 377.75,-172.82"/>
<text text-anchor="middle" x="363.75" y="-160.27" font-family="Times,serif" font-size="9.00">&#45;18</text>
</g>
<!-- &#45;18&#45;&gt;145 -->
<g id="edge29" class="edge">
<title>&#45;18&#45;&gt;145</title>
<path fill="none" stroke="red" stroke-width="0.34" d="M353.88,-153.88C340.95,-142.5 317.87,-122.18 300.51,-106.89"/>
<polygon fill="red" stroke="red" stroke-width="0.34" points="303.18,-104.58 293.37,-100.6 298.56,-109.84 303.18,-104.58"/>
</g>
<!-- &#45;18&#45;&gt;147 -->
<g id="edge8" class="edge">
<title>&#45;18&#45;&gt;147</title>
<path fill="none" stroke="green" stroke-width="0.23" d="M363.75,-153.88C363.75,-144.93 363.75,-130.46 363.75,-117.26"/>
<polygon fill="green" stroke="green" stroke-width="0.23" points="367.25,-117.41 363.75,-107.41 360.25,-117.41 367.25,-117.41"/>
</g>
<!-- &#45;18&#45;&gt;148 -->
<g id="edge28" class="edge">
<title>&#45;18&#45;&gt;148</title>
<path fill="none" stroke="red" stroke-width="0.11" d="M378.23,-157.63C390.55,-153.47 408.74,-147.47 424.75,-142.71 487.27,-124.11 561.2,-104.8 601.61,-94.47"/>
<polygon fill="red" stroke="red" stroke-width="0.11" points="602.39,-97.88 611.21,-92.02 600.66,-91.1 602.39,-97.88"/>
</g>
<!-- &#45;19 -->
<g id="node19" class="node">
<title>&#45;19</title>
<polygon fill="lightgray" stroke="black" points="484.75,-238.93 456.75,-238.93 456.75,-220.43 484.75,-220.43 484.75,-238.93"/>
<text text-anchor="middle" x="470.75" y="-226.38" font-family="Times,serif" font-size="9.00">&#45;19</text>
</g>
<!-- &#45;20 -->
<g id="node20" class="node">
<title>&#45;20</title>
<polygon fill="lightgray" stroke="black" points="243.75,-172.82 215.75,-172.82 215.75,-154.32 243.75,-154.32 243.75,-172.82"/>
<text text-anchor="middle" x="229.75" y="-160.27" font-family="Times,serif" font-size="9.00">&#45;20</text>
</g>
<!-- 1 -->
<g id="node22" class="node">
<title>1</title>
<ellipse fill="lightblue" stroke="black" cx="248.75" cy="-14.5" rx="14.5" ry="14.5"/>
<text text-anchor="middle" x="248.75" y="-11.2" font-family="Times,serif" font-size="9.00">1</text>
</g>
<!-- &#45;20&#45;&gt;1 -->
<g id="edge42" class="edge">
<title>&#45;20&#45;&gt;1</title>
<path fill="none" stroke="green" stroke-width="0.19" d="M230.82,-154.24C233.66,-132.31 241.4,-72.35 245.73,-38.87"/>
<polygon fill="green" stroke="green" stroke-width="0.19" points="249.15,-39.67 246.97,-29.3 242.21,-38.77 249.15,-39.67"/>
</g>
<!-- &#45;20&#45;&gt;145 -->
<g id="edge22" class="edge">
<title>&#45;20&#45;&gt;145</title>
<path fill="none" stroke="green" stroke-width="0.4" d="M235.26,-153.88C241.56,-143.94 252.18,-127.19 261.22,-112.92"/>
<polygon fill="green" stroke="green" stroke-width="0.4" points="264.15,-114.83 266.55,-104.51 258.24,-111.08 264.15,-114.83"/>
</g>
<!-- &#45;20&#45;&gt;147 -->
<g id="edge9" class="edge">
<title>&#45;20&#45;&gt;147</title>
<path fill="none" stroke="red" stroke-width="0.26" stroke-dasharray="1,5" d="M238.72,-153.89C242.81,-150.18 247.82,-145.97 252.75,-142.71 282.9,-122.73 293.49,-123.09 325.75,-106.71 329.31,-104.9 333.04,-102.98 336.72,-101.08"/>
<polygon fill="red" stroke="red" stroke-width="0.26" points="338.03,-104.34 345.27,-96.62 334.79,-98.14 338.03,-104.34"/>
</g>
<!-- &#45;20&#45;&gt;148 -->
<g id="edge15" class="edge">
<title>&#45;20&#45;&gt;148</title>
<path fill="none" stroke="green" stroke-width="0.18" stroke-dasharray="1,5" d="M237.44,-153.91C241.56,-149.83 246.98,-145.31 252.75,-142.71 362.34,-93.39 402.01,-125.3 520.75,-106.71 548.13,-102.42 579.18,-96.8 601.46,-92.64"/>
<polygon fill="green" stroke="green" stroke-width="0.18" points="601.88,-96.12 611.06,-90.83 600.59,-89.24 601.88,-96.12"/>
</g>
<!-- 0 -->
<g id="node21" class="node">
<title>0</title>
<ellipse fill="lightblue" stroke="black" cx="363.75" cy="-14.5" rx="14.5" ry="14.5"/>
<text text-anchor="middle" x="363.75" y="-11.2" font-family="Times,serif" font-size="9.00">0</text>
</g>
<!-- 2 -->
<g id="node23" class="node">
<title>2</title>
<ellipse fill="lightblue" stroke="black" cx="490.75" cy="-14.5" rx="14.5" ry="14.5"/>
<text text-anchor="middle" x="490.75" y="-11.2" font-family="Times,serif" font-size="9.00">2</text>
</g>
<!-- 4 -->
<g id="node25" class="node">
<title>4</title>
<ellipse fill="lightblue" stroke="black" cx="296.75" cy="-14.5" rx="14.5" ry="14.5"/>
<text text-anchor="middle" x="296.75" y="-11.2" font-family="Times,serif" font-size="9.00">4</text>
</g>
<!-- 303&#45;&gt;145 -->
<g id="edge44" class="edge">
<title>303&#45;&gt;145</title>
<path fill="none" stroke="green" stroke-width="0.31" d="M53.33,-150.22C57.55,-147.46 62.19,-144.76 66.75,-142.71 127.65,-115.38 204.65,-99.21 246.76,-91.79"/>
<polygon fill="green" stroke="green" stroke-width="0.31" points="247.2,-95.26 256.46,-90.12 246.01,-88.36 247.2,-95.26"/>
</g>
<!-- 367&#45;&gt;145 -->
<g id="edge47" class="edge">
<title>367&#45;&gt;145</title>
<path fill="none" stroke="red" stroke-width="0.13" d="M192.98,-150.4C209.22,-138.22 234.43,-119.32 253.14,-105.3"/>
<polygon fill="red" stroke="red" stroke-width="0.13" points="255.17,-108.16 261.07,-99.36 250.97,-102.55 255.17,-108.16"/>
</g>
<!-- 145&#45;&gt;0 -->
<g id="edge40" class="edge">
<title>145&#45;&gt;0</title>
<path fill="none" stroke="green" stroke-width="0.41" d="M293.52,-72.13C307.87,-60.56 329.09,-43.44 344.45,-31.06"/>
<polygon fill="green" stroke="green" stroke-width="0.41" points="346.65,-33.78 352.23,-24.78 342.25,-28.34 346.65,-33.78"/>
</g>
<!-- 145&#45;&gt;4 -->
<g id="edge18" class="edge">
<title>145&#45;&gt;4</title>
<path fill="none" stroke="red" stroke-width="0.19" d="M283.04,-65.53C285.32,-57.21 288.01,-47.41 290.39,-38.7"/>
<polygon fill="red" stroke="red" stroke-width="0.19" points="293.76,-39.64 293.03,-29.07 287.01,-37.79 293.76,-39.64"/>
</g>
<!-- 145&#45;&gt;145 -->
<g id="edge39" class="edge">
<title>145&#45;&gt;145</title>
<path fill="none" stroke="green" stroke-width="0.84" d="M294.93,-98.17C305.98,-101.39 316.61,-97.28 316.61,-85.85 316.61,-78.35 312.03,-74 305.76,-72.81"/>
<polygon fill="green" stroke="green" stroke-width="0.84" points="305.94,-69.29 296.19,-73.45 306.4,-76.28 305.94,-69.29"/>
</g>
<!-- 146&#45;&gt;0 -->
<g id="edge33" class="edge">
<title>146&#45;&gt;0</title>
<path fill="none" stroke="red" stroke-width="0.17" stroke-dasharray="1,5" d="M472.55,-74.91C449.42,-62.28 409.56,-40.51 385.04,-27.12"/>
<polygon fill="red" stroke="red" stroke-width="0.17" points="386.85,-24.12 376.39,-22.4 383.49,-30.27 386.85,-24.12"/>
</g>
<!-- 146&#45;&gt;2 -->
<g id="edge4" class="edge">
<title>146&#45;&gt;2</title>
<path fill="none" stroke="red" stroke-width="0.13" d="M490.75,-64.79C490.75,-56.89 490.75,-47.75 490.75,-39.5"/>
<polygon fill="red" stroke="red" stroke-width="0.13" points="494.25,-39.55 490.75,-29.55 487.25,-39.55 494.25,-39.55"/>
</g>
<!-- 146&#45;&gt;3 -->
<g id="edge13" class="edge">
<title>146&#45;&gt;3</title>
<path fill="none" stroke="green" stroke-width="0.16" d="M479.14,-68.41C472.06,-58.4 462.98,-45.55 455.54,-35.02"/>
<polygon fill="green" stroke="green" stroke-width="0.16" points="458.52,-33.17 449.9,-27.03 452.81,-37.21 458.52,-33.17"/>
</g>
<!-- 147&#45;&gt;0 -->
<g id="edge2" class="edge">
<title>147&#45;&gt;0</title>
<path fill="none" stroke="green" stroke-width="0.34" d="M363.75,-64.79C363.75,-56.98 363.75,-47.96 363.75,-39.78"/>
<polygon fill="green" stroke="green" stroke-width="0.34" points="367.25,-39.88 363.75,-29.88 360.25,-39.88 367.25,-39.88"/>
</g>
<!-- 147&#45;&gt;1 -->
<g id="edge11" class="edge">
<title>147&#45;&gt;1</title>
<path fill="none" stroke="green" stroke-width="0.11" stroke-dasharray="1,5" d="M346.28,-74.32C325.72,-61.92 291.6,-41.34 269.65,-28.1"/>
<polygon fill="green" stroke="green" stroke-width="0.11" points="271.57,-25.17 261.2,-23.01 267.96,-31.17 271.57,-25.17"/>
</g>
<!-- 147&#45;&gt;3 -->
<g id="edge17" class="edge">
<title>147&#45;&gt;3</title>
<path fill="none" stroke="green" stroke-width="0.24" d="M379.16,-71.15C391.95,-59.77 410.17,-43.57 423.66,-31.58"/>
<polygon fill="green" stroke="green" stroke-width="0.24" points="425.93,-34.25 431.08,-24.99 421.28,-29.01 425.93,-34.25"/>
</g>
<!-- 147&#45;&gt;4 -->
<g id="edge1" class="edge">
<title>147&#45;&gt;4</title>
<path fill="none" stroke="green" stroke-width="0.38" stroke-dasharray="1,5" d="M349.54,-70.14C339.05,-59.29 324.74,-44.47 313.66,-33.01"/>
<polygon fill="green" stroke="green" stroke-width="0.38" points="316.46,-30.87 307,-26.11 311.43,-35.73 316.46,-30.87"/>
</g>
</g>
</svg>
