<?xml version="1.0" encoding="UTF-8" standalone="no"?>
<!DOCTYPE svg PUBLIC "-//W3C//DTD SVG 1.1//EN"
 "http://www.w3.org/Graphics/SVG/1.1/DTD/svg11.dtd">
<!-- Generated by graphviz version 12.1.1 (20240910.0053)
 -->
<!-- Pages: 1 -->
<svg width="874pt" height="247pt"
 viewBox="0.00 0.00 874.00 246.93" xmlns="http://www.w3.org/2000/svg" xmlns:xlink="http://www.w3.org/1999/xlink">
<g id="graph0" class="graph" transform="scale(1 1) rotate(0) translate(4 242.93)">
<polygon fill="white" stroke="none" points="-4,4 -4,-242.93 870,-242.93 870,4 -4,4"/>
<!-- &#45;1 -->
<g id="node1" class="node">
<title>&#45;1</title>
<polygon fill="lightgray" stroke="black" points="245.75,-238.93 222.25,-238.93 222.25,-220.43 245.75,-220.43 245.75,-238.93"/>
<text text-anchor="middle" x="234" y="-226.38" font-family="Times,serif" font-size="9.00">&#45;1</text>
</g>
<!-- 154 -->
<g id="node29" class="node">
<title>154</title>
<ellipse fill="white" stroke="black" cx="220" cy="-163.57" rx="20.86" ry="20.86"/>
<text text-anchor="middle" x="220" y="-160.27" font-family="Times,serif" font-size="9.00">154</text>
</g>
<!-- &#45;1&#45;&gt;154 -->
<g id="edge32" class="edge">
<title>&#45;1&#45;&gt;154</title>
<path fill="none" stroke="red" stroke-width="0.38" d="M232.11,-220.03C230.67,-213.43 228.59,-203.91 226.56,-194.61"/>
<polygon fill="red" stroke="red" stroke-width="0.38" points="230,-193.97 224.45,-184.94 223.16,-195.46 230,-193.97"/>
</g>
<!-- 155 -->
<g id="node30" class="node">
<title>155</title>
<ellipse fill="white" stroke="black" cx="422" cy="-163.57" rx="20.86" ry="20.86"/>
<text text-anchor="middle" x="422" y="-160.27" font-family="Times,serif" font-size="9.00">155</text>
</g>
<!-- &#45;1&#45;&gt;155 -->
<g id="edge4" class="edge">
<title>&#45;1&#45;&gt;155</title>
<path fill="none" stroke="green" stroke-width="0.21" d="M245.95,-223.86C248.9,-222.71 252.05,-221.5 255,-220.43 302.78,-203.07 358.96,-184.69 392.46,-173.94"/>
<polygon fill="green" stroke="green" stroke-width="0.21" points="393.33,-177.34 401.79,-170.96 391.2,-170.67 393.33,-177.34"/>
</g>
<!-- &#45;2 -->
<g id="node2" class="node">
<title>&#45;2</title>
<polygon fill="lightgray" stroke="black" points="819.75,-238.93 796.25,-238.93 796.25,-220.43 819.75,-220.43 819.75,-238.93"/>
<text text-anchor="middle" x="808" y="-226.38" font-family="Times,serif" font-size="9.00">&#45;2</text>
</g>
<!-- &#45;3 -->
<g id="node3" class="node">
<title>&#45;3</title>
<polygon fill="lightgray" stroke="black" points="115.75,-238.93 92.25,-238.93 92.25,-220.43 115.75,-220.43 115.75,-238.93"/>
<text text-anchor="middle" x="104" y="-226.38" font-family="Times,serif" font-size="9.00">&#45;3</text>
</g>
<!-- 153 -->
<g id="node28" class="node">
<title>153</title>
<ellipse fill="white" stroke="black" cx="107" cy="-163.57" rx="20.86" ry="20.86"/>
<text text-anchor="middle" x="107" y="-160.27" font-family="Times,serif" font-size="9.00">153</text>
</g>
<!-- &#45;3&#45;&gt;153 -->
<g id="edge20" class="edge">
<title>&#45;3&#45;&gt;153</title>
<path fill="none" stroke="red" stroke-width="0.14" stroke-dasharray="1,5" d="M104.4,-220.03C104.71,-213.48 105.15,-204.05 105.58,-194.82"/>
<polygon fill="red" stroke="red" stroke-width="0.14" points="109.08,-195.02 106.05,-184.87 102.09,-194.69 109.08,-195.02"/>
</g>
<!-- &#45;3&#45;&gt;154 -->
<g id="edge36" class="edge">
<title>&#45;3&#45;&gt;154</title>
<path fill="none" stroke="red" stroke-width="0.4" d="M115.98,-222.06C133.97,-212.12 168.44,-193.07 192.76,-179.63"/>
<polygon fill="red" stroke="red" stroke-width="0.4" points="194.25,-182.8 201.31,-174.9 190.86,-176.67 194.25,-182.8"/>
</g>
<!-- &#45;3&#45;&gt;155 -->
<g id="edge29" class="edge">
<title>&#45;3&#45;&gt;155</title>
<path fill="none" stroke="red" stroke-width="0.11" d="M115.86,-223.57C118.81,-222.43 121.99,-221.3 125,-220.43 220.25,-193.03 336.65,-175.65 391.12,-168.42"/>
<polygon fill="red" stroke="red" stroke-width="0.11" points="391.53,-171.9 400.99,-167.14 390.62,-164.96 391.53,-171.9"/>
</g>
<!-- &#45;4 -->
<g id="node4" class="node">
<title>&#45;4</title>
<polygon fill="lightgray" stroke="black" points="157.75,-238.93 134.25,-238.93 134.25,-220.43 157.75,-220.43 157.75,-238.93"/>
<text text-anchor="middle" x="146" y="-226.38" font-family="Times,serif" font-size="9.00">&#45;4</text>
</g>
<!-- &#45;4&#45;&gt;153 -->
<g id="edge31" class="edge">
<title>&#45;4&#45;&gt;153</title>
<path fill="none" stroke="red" stroke-width="0.19" stroke-dasharray="1,5" d="M140.74,-220.03C136.13,-212.45 129.18,-201.02 122.78,-190.51"/>
<polygon fill="red" stroke="red" stroke-width="0.19" points="125.94,-188.97 117.75,-182.25 119.96,-192.61 125.94,-188.97"/>
</g>
<!-- &#45;4&#45;&gt;154 -->
<g id="edge5" class="edge">
<title>&#45;4&#45;&gt;154</title>
<path fill="none" stroke="red" stroke-width="0.16" d="M155.98,-220.03C166.4,-211.01 183.11,-196.53 196.85,-184.63"/>
<polygon fill="red" stroke="red" stroke-width="0.16" points="199.07,-187.33 204.34,-178.14 194.49,-182.04 199.07,-187.33"/>
</g>
<!-- &#45;4&#45;&gt;155 -->
<g id="edge23" class="edge">
<title>&#45;4&#45;&gt;155</title>
<path fill="none" stroke="red" stroke-width="0.18" stroke-dasharray="1,5" d="M157.88,-223.64C160.83,-222.49 164,-221.34 167,-220.43 246.42,-196.3 342.72,-178.1 391.1,-169.7"/>
<polygon fill="red" stroke="red" stroke-width="0.18" points="391.68,-173.15 400.95,-168.01 390.5,-166.25 391.68,-173.15"/>
</g>
<!-- &#45;5 -->
<g id="node5" class="node">
<title>&#45;5</title>
<polygon fill="lightgray" stroke="black" points="597.75,-238.93 574.25,-238.93 574.25,-220.43 597.75,-220.43 597.75,-238.93"/>
<text text-anchor="middle" x="586" y="-226.38" font-family="Times,serif" font-size="9.00">&#45;5</text>
</g>
<!-- &#45;5&#45;&gt;155 -->
<g id="edge39" class="edge">
<title>&#45;5&#45;&gt;155</title>
<path fill="none" stroke="red" stroke-width="0.13" stroke-dasharray="1,5" d="M574.01,-223.96C571.06,-222.81 567.92,-221.57 565,-220.43 525.48,-204.95 479.8,-187.12 450.91,-175.85"/>
<polygon fill="red" stroke="red" stroke-width="0.13" points="452.2,-172.59 441.61,-172.22 449.66,-179.11 452.2,-172.59"/>
</g>
<!-- 156 -->
<g id="node31" class="node">
<title>156</title>
<ellipse fill="white" stroke="black" cx="548" cy="-163.57" rx="20.86" ry="20.86"/>
<text text-anchor="middle" x="548" y="-160.27" font-family="Times,serif" font-size="9.00">156</text>
</g>
<!-- &#45;5&#45;&gt;156 -->
<g id="edge37" class="edge">
<title>&#45;5&#45;&gt;156</title>
<path fill="none" stroke="red" stroke-width="0.22" stroke-dasharray="1,5" d="M580.88,-220.03C576.43,-212.53 569.74,-201.25 563.56,-190.83"/>
<polygon fill="red" stroke="red" stroke-width="0.22" points="566.61,-189.1 558.5,-182.28 560.58,-192.67 566.61,-189.1"/>
</g>
<!-- &#45;6 -->
<g id="node6" class="node">
<title>&#45;6</title>
<polygon fill="lightgray" stroke="black" points="287.75,-238.93 264.25,-238.93 264.25,-220.43 287.75,-220.43 287.75,-238.93"/>
<text text-anchor="middle" x="276" y="-226.38" font-family="Times,serif" font-size="9.00">&#45;6</text>
</g>
<!-- &#45;6&#45;&gt;154 -->
<g id="edge15" class="edge">
<title>&#45;6&#45;&gt;154</title>
<path fill="none" stroke="red" stroke-width="0.13" stroke-dasharray="1,5" d="M268.45,-220.03C261.17,-211.7 249.84,-198.73 239.97,-187.43"/>
<polygon fill="red" stroke="red" stroke-width="0.13" points="242.78,-185.33 233.56,-180.1 237.51,-189.93 242.78,-185.33"/>
</g>
<!-- &#45;6&#45;&gt;155 -->
<g id="edge24" class="edge">
<title>&#45;6&#45;&gt;155</title>
<path fill="none" stroke="green" stroke-width="0.32" stroke-dasharray="1,5" d="M288.2,-223.32C311.3,-213.18 361.99,-190.92 393.92,-176.9"/>
<polygon fill="green" stroke="green" stroke-width="0.32" points="394.98,-180.26 402.73,-173.03 392.17,-173.85 394.98,-180.26"/>
</g>
<!-- &#45;7 -->
<g id="node7" class="node">
<title>&#45;7</title>
<polygon fill="lightgray" stroke="black" points="467.75,-238.93 444.25,-238.93 444.25,-220.43 467.75,-220.43 467.75,-238.93"/>
<text text-anchor="middle" x="456" y="-226.38" font-family="Times,serif" font-size="9.00">&#45;7</text>
</g>
<!-- &#45;7&#45;&gt;155 -->
<g id="edge6" class="edge">
<title>&#45;7&#45;&gt;155</title>
<path fill="none" stroke="red" stroke-width="0.26" stroke-dasharray="1,5" d="M451.41,-220.03C447.53,-212.71 441.74,-201.79 436.32,-191.58"/>
<polygon fill="red" stroke="red" stroke-width="0.26" points="439.48,-190.06 431.7,-182.87 433.3,-193.34 439.48,-190.06"/>
</g>
<!-- &#45;8 -->
<g id="node8" class="node">
<title>&#45;8</title>
<polygon fill="lightgray" stroke="black" points="509.75,-238.93 486.25,-238.93 486.25,-220.43 509.75,-220.43 509.75,-238.93"/>
<text text-anchor="middle" x="498" y="-226.38" font-family="Times,serif" font-size="9.00">&#45;8</text>
</g>
<!-- &#45;8&#45;&gt;155 -->
<g id="edge9" class="edge">
<title>&#45;8&#45;&gt;155</title>
<path fill="none" stroke="red" stroke-width="0.36" stroke-dasharray="1,5" d="M487.75,-220.03C476.98,-210.95 459.67,-196.35 445.51,-184.4"/>
<polygon fill="red" stroke="red" stroke-width="0.36" points="447.93,-181.87 438.03,-178.09 443.42,-187.22 447.93,-181.87"/>
</g>
<!-- &#45;9 -->
<g id="node9" class="node">
<title>&#45;9</title>
<polygon fill="lightgray" stroke="black" points="639.75,-238.93 616.25,-238.93 616.25,-220.43 639.75,-220.43 639.75,-238.93"/>
<text text-anchor="middle" x="628" y="-226.38" font-family="Times,serif" font-size="9.00">&#45;9</text>
</g>
<!-- &#45;9&#45;&gt;155 -->
<g id="edge17" class="edge">
<title>&#45;9&#45;&gt;155</title>
<path fill="none" stroke="green" stroke-width="0.71" stroke-dasharray="1,5" d="M616.07,-223.8C613.12,-222.65 609.96,-221.46 607,-220.43 553.28,-201.8 489.61,-183.36 452.71,-173.02"/>
<polygon fill="green" stroke="green" stroke-width="0.71" points="453.76,-169.68 443.19,-170.36 451.88,-176.42 453.76,-169.68"/>
</g>
<!-- &#45;9&#45;&gt;156 -->
<g id="edge35" class="edge">
<title>&#45;9&#45;&gt;156</title>
<path fill="none" stroke="green" stroke-width="0.43" stroke-dasharray="1,5" d="M617.21,-220.03C605.7,-210.81 587.08,-195.89 572.05,-183.84"/>
<polygon fill="green" stroke="green" stroke-width="0.43" points="574.64,-181.43 564.65,-177.91 570.26,-186.89 574.64,-181.43"/>
</g>
<!-- &#45;10 -->
<g id="node10" class="node">
<title>&#45;10</title>
<polygon fill="lightgray" stroke="black" points="380,-238.93 352,-238.93 352,-220.43 380,-220.43 380,-238.93"/>
<text text-anchor="middle" x="366" y="-226.38" font-family="Times,serif" font-size="9.00">&#45;10</text>
</g>
<!-- &#45;10&#45;&gt;154 -->
<g id="edge47" class="edge">
<title>&#45;10&#45;&gt;154</title>
<path fill="none" stroke="red" stroke-width="0.23" d="M351.74,-222.42C327.91,-211.95 279.58,-190.73 248.55,-177.11"/>
<polygon fill="red" stroke="red" stroke-width="0.23" points="250.01,-173.93 239.45,-173.11 247.2,-180.34 250.01,-173.93"/>
</g>
<!-- &#45;10&#45;&gt;155 -->
<g id="edge2" class="edge">
<title>&#45;10&#45;&gt;155</title>
<path fill="none" stroke="red" stroke-width="0.12" d="M373.55,-220.03C380.83,-211.7 392.16,-198.73 402.03,-187.43"/>
<polygon fill="red" stroke="red" stroke-width="0.12" points="404.51,-189.91 408.45,-180.08 399.24,-185.31 404.51,-189.91"/>
</g>
<!-- &#45;10&#45;&gt;156 -->
<g id="edge25" class="edge">
<title>&#45;10&#45;&gt;156</title>
<path fill="none" stroke="green" stroke-width="0.92" d="M380.1,-223.6C383.04,-222.55 386.12,-221.45 389,-220.43 433.89,-204.49 485.99,-186.24 517.97,-175.05"/>
<polygon fill="green" stroke="green" stroke-width="0.92" points="518.8,-178.47 527.08,-171.87 516.49,-171.86 518.8,-178.47"/>
</g>
<!-- &#45;11 -->
<g id="node11" class="node">
<title>&#45;11</title>
<polygon fill="lightgray" stroke="black" points="686,-238.93 658,-238.93 658,-220.43 686,-220.43 686,-238.93"/>
<text text-anchor="middle" x="672" y="-226.38" font-family="Times,serif" font-size="9.00">&#45;11</text>
</g>
<!-- &#45;11&#45;&gt;156 -->
<g id="edge42" class="edge">
<title>&#45;11&#45;&gt;156</title>
<path fill="none" stroke="green" stroke-width="0.23" stroke-dasharray="1,5" d="M657.78,-221.33C637.81,-211 601.06,-192 575.62,-178.85"/>
<polygon fill="green" stroke="green" stroke-width="0.23" points="577.27,-175.76 566.78,-174.28 574.06,-181.98 577.27,-175.76"/>
</g>
<!-- &#45;12 -->
<g id="node12" class="node">
<title>&#45;12</title>
<polygon fill="lightgray" stroke="black" points="732,-238.93 704,-238.93 704,-220.43 732,-220.43 732,-238.93"/>
<text text-anchor="middle" x="718" y="-226.38" font-family="Times,serif" font-size="9.00">&#45;12</text>
</g>
<!-- &#45;12&#45;&gt;156 -->
<g id="edge1" class="edge">
<title>&#45;12&#45;&gt;156</title>
<path fill="none" stroke="green" stroke-width="0.38" d="M703.51,-223.21C675.62,-212.7 614,-189.46 577.25,-175.6"/>
<polygon fill="green" stroke="green" stroke-width="0.38" points="578.73,-172.42 568.14,-172.17 576.26,-178.97 578.73,-172.42"/>
</g>
<!-- &#45;13 -->
<g id="node13" class="node">
<title>&#45;13</title>
<polygon fill="lightgray" stroke="black" points="556,-238.93 528,-238.93 528,-220.43 556,-220.43 556,-238.93"/>
<text text-anchor="middle" x="542" y="-226.38" font-family="Times,serif" font-size="9.00">&#45;13</text>
</g>
<!-- &#45;13&#45;&gt;155 -->
<g id="edge14" class="edge">
<title>&#45;13&#45;&gt;155</title>
<path fill="none" stroke="green" stroke-width="0.5" d="M527.76,-221.07C508.56,-210.81 473.94,-192.32 449.56,-179.29"/>
<polygon fill="green" stroke="green" stroke-width="0.5" points="451.27,-176.24 440.8,-174.61 447.97,-182.41 451.27,-176.24"/>
</g>
<!-- &#45;14 -->
<g id="node14" class="node">
<title>&#45;14</title>
<polygon fill="lightgray" stroke="black" points="866,-238.93 838,-238.93 838,-220.43 866,-220.43 866,-238.93"/>
<text text-anchor="middle" x="852" y="-226.38" font-family="Times,serif" font-size="9.00">&#45;14</text>
</g>
<!-- &#45;15 -->
<g id="node15" class="node">
<title>&#45;15</title>
<polygon fill="lightgray" stroke="black" points="28,-238.93 0,-238.93 0,-220.43 28,-220.43 28,-238.93"/>
<text text-anchor="middle" x="14" y="-226.38" font-family="Times,serif" font-size="9.00">&#45;15</text>
</g>
<!-- &#45;15&#45;&gt;153 -->
<g id="edge41" class="edge">
<title>&#45;15&#45;&gt;153</title>
<path fill="none" stroke="green" stroke-width="0.16" d="M26.54,-220.03C40.6,-210.34 63.77,-194.37 81.64,-182.05"/>
<polygon fill="green" stroke="green" stroke-width="0.16" points="83.49,-185.03 89.74,-176.47 79.52,-179.26 83.49,-185.03"/>
</g>
<!-- &#45;16 -->
<g id="node16" class="node">
<title>&#45;16</title>
<polygon fill="lightgray" stroke="black" points="204,-238.93 176,-238.93 176,-220.43 204,-220.43 204,-238.93"/>
<text text-anchor="middle" x="190" y="-226.38" font-family="Times,serif" font-size="9.00">&#45;16</text>
</g>
<!-- &#45;16&#45;&gt;154 -->
<g id="edge26" class="edge">
<title>&#45;16&#45;&gt;154</title>
<path fill="none" stroke="green" stroke-width="0.1" d="M194.05,-220.03C197.43,-212.81 202.44,-202.1 207.16,-192.02"/>
<polygon fill="green" stroke="green" stroke-width="0.1" points="210.22,-193.73 211.29,-183.19 203.88,-190.76 210.22,-193.73"/>
</g>
<!-- &#45;17 -->
<g id="node17" class="node">
<title>&#45;17</title>
<polygon fill="lightgray" stroke="black" points="74,-238.93 46,-238.93 46,-220.43 74,-220.43 74,-238.93"/>
<text text-anchor="middle" x="60" y="-226.38" font-family="Times,serif" font-size="9.00">&#45;17</text>
</g>
<!-- &#45;17&#45;&gt;153 -->
<g id="edge22" class="edge">
<title>&#45;17&#45;&gt;153</title>
<path fill="none" stroke="red" stroke-width="0.48" d="M66.34,-220.03C72.11,-212.16 80.92,-200.14 88.87,-189.3"/>
<polygon fill="red" stroke="red" stroke-width="0.48" points="91.46,-191.69 94.55,-181.55 85.82,-187.55 91.46,-191.69"/>
</g>
<!-- &#45;17&#45;&gt;154 -->
<g id="edge7" class="edge">
<title>&#45;17&#45;&gt;154</title>
<path fill="none" stroke="red" stroke-width="0.47" d="M74.48,-222.88C100.69,-212.37 156.47,-190.03 190.85,-176.25"/>
<polygon fill="red" stroke="red" stroke-width="0.47" points="192.13,-179.51 200.11,-172.54 189.52,-173.01 192.13,-179.51"/>
</g>
<!-- &#45;18 -->
<g id="node18" class="node">
<title>&#45;18</title>
<polygon fill="lightgray" stroke="black" points="334,-238.93 306,-238.93 306,-220.43 334,-220.43 334,-238.93"/>
<text text-anchor="middle" x="320" y="-226.38" font-family="Times,serif" font-size="9.00">&#45;18</text>
</g>
<!-- &#45;18&#45;&gt;154 -->
<g id="edge11" class="edge">
<title>&#45;18&#45;&gt;154</title>
<path fill="none" stroke="red" stroke-width="0.2" d="M306.51,-220.03C291.05,-210.12 265.34,-193.64 245.96,-181.21"/>
<polygon fill="red" stroke="red" stroke-width="0.2" points="247.86,-178.27 237.55,-175.82 244.08,-184.16 247.86,-178.27"/>
</g>
<!-- &#45;18&#45;&gt;156 -->
<g id="edge43" class="edge">
<title>&#45;18&#45;&gt;156</title>
<path fill="none" stroke="red" stroke-width="0.22" d="M334.05,-223.44C336.99,-222.4 340.09,-221.35 343,-220.43 375.78,-210.1 469.44,-185.22 518,-172.44"/>
<polygon fill="red" stroke="red" stroke-width="0.22" points="518.82,-175.84 527.6,-169.91 517.04,-169.07 518.82,-175.84"/>
</g>
<!-- &#45;19 -->
<g id="node19" class="node">
<title>&#45;19</title>
<polygon fill="lightgray" stroke="black" points="426,-238.93 398,-238.93 398,-220.43 426,-220.43 426,-238.93"/>
<text text-anchor="middle" x="412" y="-226.38" font-family="Times,serif" font-size="9.00">&#45;19</text>
</g>
<!-- &#45;19&#45;&gt;154 -->
<g id="edge19" class="edge">
<title>&#45;19&#45;&gt;154</title>
<path fill="none" stroke="red" stroke-width="0.38" d="M397.91,-223.56C394.97,-222.51 391.89,-221.42 389,-220.43 340.28,-203.64 283.33,-185.03 249.54,-174.08"/>
<polygon fill="red" stroke="red" stroke-width="0.38" points="250.97,-170.87 240.38,-171.12 248.82,-177.53 250.97,-170.87"/>
</g>
<!-- &#45;19&#45;&gt;155 -->
<g id="edge38" class="edge">
<title>&#45;19&#45;&gt;155</title>
<path fill="none" stroke="red" stroke-width="0.22" stroke-dasharray="1,5" d="M413.35,-220.03C414.37,-213.48 415.84,-204.05 417.28,-194.82"/>
<polygon fill="red" stroke="red" stroke-width="0.22" points="420.73,-195.41 418.82,-184.99 413.82,-194.33 420.73,-195.41"/>
</g>
<!-- &#45;19&#45;&gt;156 -->
<g id="edge18" class="edge">
<title>&#45;19&#45;&gt;156</title>
<path fill="none" stroke="red" stroke-width="0.55" d="M426.3,-221.94C448.38,-211.53 491.21,-191.34 519.71,-177.9"/>
<polygon fill="red" stroke="red" stroke-width="0.55" points="520.84,-181.24 528.39,-173.81 517.85,-174.91 520.84,-181.24"/>
</g>
<!-- &#45;20 -->
<g id="node20" class="node">
<title>&#45;20</title>
<polygon fill="lightgray" stroke="black" points="778,-238.93 750,-238.93 750,-220.43 778,-220.43 778,-238.93"/>
<text text-anchor="middle" x="764" y="-226.38" font-family="Times,serif" font-size="9.00">&#45;20</text>
</g>
<!-- &#45;20&#45;&gt;156 -->
<g id="edge40" class="edge">
<title>&#45;20&#45;&gt;156</title>
<path fill="none" stroke="red" stroke-width="0.38" d="M749.94,-223.48C747,-222.43 743.91,-221.37 741,-220.43 683.82,-201.92 616.18,-183.02 578.07,-172.64"/>
<polygon fill="red" stroke="red" stroke-width="0.38" points="579.25,-169.34 568.68,-170.1 577.42,-176.09 579.25,-169.34"/>
</g>
<!-- 0 -->
<g id="node21" class="node">
<title>0</title>
<ellipse fill="lightblue" stroke="black" cx="265" cy="-85.85" rx="14.5" ry="14.5"/>
<text text-anchor="middle" x="265" y="-82.55" font-family="Times,serif" font-size="9.00">0</text>
</g>
<!-- 0&#45;&gt;0 -->
<g id="edge30" class="edge">
<title>0&#45;&gt;0</title>
<path fill="none" stroke="red" stroke-width="0.13" stroke-dasharray="1,5" d="M275.32,-96.29C285.81,-102.43 297.5,-98.95 297.5,-85.85 297.5,-76.64 291.72,-72.18 284.64,-72.49"/>
<polygon fill="red" stroke="red" stroke-width="0.13" points="284,-69.02 275.51,-75.35 286.1,-75.7 284,-69.02"/>
</g>
<!-- 1 -->
<g id="node22" class="node">
<title>1</title>
<ellipse fill="lightblue" stroke="black" cx="330" cy="-85.85" rx="14.5" ry="14.5"/>
<text text-anchor="middle" x="330" y="-82.55" font-family="Times,serif" font-size="9.00">1</text>
</g>
<!-- 2 -->
<g id="node23" class="node">
<title>2</title>
<ellipse fill="lightblue" stroke="black" cx="383" cy="-14.5" rx="14.5" ry="14.5"/>
<text text-anchor="middle" x="383" y="-11.2" font-family="Times,serif" font-size="9.00">2</text>
</g>
<!-- 3 -->
<g id="node24" class="node">
<title>3</title>
<ellipse fill="lightblue" stroke="black" cx="218" cy="-85.85" rx="14.5" ry="14.5"/>
<text text-anchor="middle" x="218" y="-82.55" font-family="Times,serif" font-size="9.00">3</text>
</g>
<!-- 4 -->
<g id="node25" class="node">
<title>4</title>
<ellipse fill="lightblue" stroke="black" cx="474" cy="-85.85" rx="14.5" ry="14.5"/>
<text text-anchor="middle" x="474" y="-82.55" font-family="Times,serif" font-size="9.00">4</text>
</g>
<!-- 258 -->
<g id="node26" class="node">
<title>258</title>
<ellipse fill="white" stroke="black" cx="165" cy="-85.85" rx="20.86" ry="20.86"/>
<text text-anchor="middle" x="165" y="-82.55" font-family="Times,serif" font-size="9.00">258</text>
</g>
<!-- 392 -->
<g id="node27" class="node">
<title>392</title>
<ellipse fill="white" stroke="black" cx="383" cy="-85.85" rx="20.86" ry="20.86"/>
<text text-anchor="middle" x="383" y="-82.55" font-family="Times,serif" font-size="9.00">392</text>
</g>
<!-- 392&#45;&gt;2 -->
<g id="edge46" class="edge">
<title>392&#45;&gt;2</title>
<path fill="none" stroke="red" stroke-width="0.2" d="M383,-64.79C383,-56.89 383,-47.75 383,-39.5"/>
<polygon fill="red" stroke="red" stroke-width="0.2" points="386.5,-39.65 383,-29.65 379.5,-39.65 386.5,-39.65"/>
</g>
<!-- 153&#45;&gt;0 -->
<g id="edge16" class="edge">
<title>153&#45;&gt;0</title>
<path fill="none" stroke="red" stroke-width="0.21" d="M126.95,-156.33C153.93,-147.44 203.02,-129.64 241,-106.71 242.96,-105.53 244.92,-104.2 246.84,-102.8"/>
<polygon fill="red" stroke="red" stroke-width="0.21" points="248.89,-105.64 254.51,-96.66 244.52,-100.17 248.89,-105.64"/>
</g>
<!-- 153&#45;&gt;2 -->
<g id="edge28" class="edge">
<title>153&#45;&gt;2</title>
<path fill="none" stroke="green" stroke-width="0.32" stroke-dasharray="1,5" d="M106.97,-142.22C108.09,-119.95 113.48,-84.81 135,-64.99 167.47,-35.09 301.96,-21.62 358.15,-17.22"/>
<polygon fill="green" stroke="green" stroke-width="0.32" points="358.09,-20.74 367.8,-16.5 357.57,-13.76 358.09,-20.74"/>
</g>
<!-- 153&#45;&gt;153 -->
<g id="edge12" class="edge">
<title>153&#45;&gt;153</title>
<path fill="none" stroke="green" stroke-width="0.32" d="M124.58,-175.09C135.49,-177.87 145.86,-174.03 145.86,-163.57 145.86,-156.54 141.18,-152.5 134.8,-151.45"/>
<polygon fill="green" stroke="green" stroke-width="0.32" points="134.85,-147.94 125.07,-152.02 135.25,-154.93 134.85,-147.94"/>
</g>
<!-- 154&#45;&gt;1 -->
<g id="edge8" class="edge">
<title>154&#45;&gt;1</title>
<path fill="none" stroke="green" stroke-width="0.45" d="M237.53,-152.01C255.19,-141.18 283.04,-123.58 306,-106.71 307.84,-105.36 309.73,-103.91 311.6,-102.44"/>
<polygon fill="green" stroke="green" stroke-width="0.45" points="313.4,-105.48 318.93,-96.45 308.97,-100.06 313.4,-105.48"/>
</g>
<!-- 154&#45;&gt;3 -->
<g id="edge33" class="edge">
<title>154&#45;&gt;3</title>
<path fill="none" stroke="green" stroke-width="0.58" d="M219.46,-142.28C219.21,-132.83 218.92,-121.51 218.65,-111.57"/>
<polygon fill="green" stroke="green" stroke-width="0.58" points="222.15,-111.52 218.39,-101.62 215.16,-111.7 222.15,-111.52"/>
</g>
<!-- 154&#45;&gt;258 -->
<g id="edge44" class="edge">
<title>154&#45;&gt;258</title>
<path fill="none" stroke="red" stroke-width="0.23" d="M208.07,-146.14C200.71,-136.02 191.15,-122.85 182.9,-111.5"/>
<polygon fill="red" stroke="red" stroke-width="0.23" points="185.82,-109.56 177.12,-103.53 180.16,-113.68 185.82,-109.56"/>
</g>
<!-- 154&#45;&gt;154 -->
<g id="edge13" class="edge">
<title>154&#45;&gt;154</title>
<path fill="none" stroke="green" stroke-width="0.36" stroke-dasharray="1,5" d="M237.58,-175.09C248.49,-177.87 258.86,-174.03 258.86,-163.57 258.86,-156.54 254.18,-152.5 247.8,-151.45"/>
<polygon fill="green" stroke="green" stroke-width="0.36" points="247.91,-147.94 238.13,-152.02 248.32,-154.93 247.91,-147.94"/>
</g>
<!-- 155&#45;&gt;2 -->
<g id="edge34" class="edge">
<title>155&#45;&gt;2</title>
<path fill="none" stroke="red" stroke-width="0.55" stroke-dasharray="1,5" d="M422.75,-142.6C422.91,-122.5 421.52,-90.84 413,-64.99 409.57,-54.59 403.62,-44.08 397.93,-35.43"/>
<polygon fill="red" stroke="red" stroke-width="0.55" points="400.81,-33.45 392.22,-27.24 395.07,-37.45 400.81,-33.45"/>
</g>
<!-- 155&#45;&gt;4 -->
<g id="edge21" class="edge">
<title>155&#45;&gt;4</title>
<path fill="none" stroke="red" stroke-width="0.2" stroke-dasharray="1,5" d="M433.54,-145.77C441.53,-134.13 452.2,-118.59 460.58,-106.4"/>
<polygon fill="red" stroke="red" stroke-width="0.2" points="463.25,-108.69 466.03,-98.46 457.48,-104.73 463.25,-108.69"/>
</g>
<!-- 155&#45;&gt;392 -->
<g id="edge45" class="edge">
<title>155&#45;&gt;392</title>
<path fill="none" stroke="green" stroke-width="0.3" d="M412.76,-144.63C408.08,-135.55 402.3,-124.33 397.09,-114.2"/>
<polygon fill="green" stroke="green" stroke-width="0.3" points="400.21,-112.62 392.52,-105.33 393.99,-115.83 400.21,-112.62"/>
</g>
<!-- 155&#45;&gt;155 -->
<g id="edge3" class="edge">
<title>155&#45;&gt;155</title>
<path fill="none" stroke="red" stroke-width="0.17" d="M439.58,-175.09C450.49,-177.87 460.86,-174.03 460.86,-163.57 460.86,-156.54 456.18,-152.5 449.8,-151.45"/>
<polygon fill="red" stroke="red" stroke-width="0.17" points="449.62,-147.96 439.84,-152.03 450.03,-154.94 449.62,-147.96"/>
</g>
<!-- 156&#45;&gt;0 -->
<g id="edge27" class="edge">
<title>156&#45;&gt;0</title>
<path fill="none" stroke="red" stroke-width="0.39" stroke-dasharray="1,5" d="M527.84,-157.25C512.12,-153.14 489.71,-147.4 470,-142.71 397.82,-125.56 377.2,-130.72 307,-106.71 300.29,-104.42 293.23,-101.35 286.86,-98.32"/>
<polygon fill="red" stroke="red" stroke-width="0.39" points="288.6,-95.28 278.09,-93.96 285.48,-101.55 288.6,-95.28"/>
</g>
<!-- 156&#45;&gt;1 -->
<g id="edge10" class="edge">
<title>156&#45;&gt;1</title>
<path fill="none" stroke="green" stroke-width="0.32" stroke-dasharray="1,5" d="M527.72,-157.29C481.01,-145.06 368.64,-115.17 353,-106.71 351.19,-105.73 349.4,-104.59 347.66,-103.36"/>
<polygon fill="green" stroke="green" stroke-width="0.32" points="349.93,-100.69 339.96,-97.09 345.5,-106.12 349.93,-100.69"/>
</g>
</g>
</svg>
