<?xml version="1.0" encoding="UTF-8" standalone="no"?>
<!DOCTYPE svg PUBLIC "-//W3C//DTD SVG 1.1//EN"
 "http://www.w3.org/Graphics/SVG/1.1/DTD/svg11.dtd">
<!-- Generated by graphviz version 12.1.1 (20240910.0053)
 -->
<!-- Pages: 1 -->
<svg width="838pt" height="257pt"
 viewBox="0.00 0.00 837.61 257.42" xmlns="http://www.w3.org/2000/svg" xmlns:xlink="http://www.w3.org/1999/xlink">
<g id="graph0" class="graph" transform="scale(1 1) rotate(0) translate(4 253.42)">
<polygon fill="white" stroke="none" points="-4,4 -4,-253.42 833.61,-253.42 833.61,4 -4,4"/>
<!-- &#45;1 -->
<g id="node1" class="node">
<title>&#45;1</title>
<polygon fill="lightgray" stroke="black" points="829.61,-172.82 806.11,-172.82 806.11,-154.32 829.61,-154.32 829.61,-172.82"/>
<text text-anchor="middle" x="817.86" y="-160.27" font-family="Times,serif" font-size="9.00">&#45;1</text>
</g>
<!-- 183 -->
<g id="node28" class="node">
<title>183</title>
<ellipse fill="white" stroke="black" cx="557.86" cy="-85.85" rx="20.86" ry="20.86"/>
<text text-anchor="middle" x="557.86" y="-82.55" font-family="Times,serif" font-size="9.00">183</text>
</g>
<!-- &#45;1&#45;&gt;183 -->
<g id="edge31" class="edge">
<title>&#45;1&#45;&gt;183</title>
<path fill="none" stroke="red" stroke-width="0.27" d="M810.87,-154.13C807.11,-150.11 802.16,-145.56 796.86,-142.71 728.62,-106 636.74,-93.26 589.23,-88.96"/>
<polygon fill="red" stroke="red" stroke-width="0.27" points="589.64,-85.48 579.38,-88.13 589.05,-92.45 589.64,-85.48"/>
</g>
<!-- &#45;2 -->
<g id="node2" class="node">
<title>&#45;2</title>
<polygon fill="lightgray" stroke="black" points="377.61,-172.82 354.11,-172.82 354.11,-154.32 377.61,-154.32 377.61,-172.82"/>
<text text-anchor="middle" x="365.86" y="-160.27" font-family="Times,serif" font-size="9.00">&#45;2</text>
</g>
<!-- 181 -->
<g id="node26" class="node">
<title>181</title>
<ellipse fill="white" stroke="black" cx="241.86" cy="-85.85" rx="20.86" ry="20.86"/>
<text text-anchor="middle" x="241.86" y="-82.55" font-family="Times,serif" font-size="9.00">181</text>
</g>
<!-- &#45;2&#45;&gt;181 -->
<g id="edge22" class="edge">
<title>&#45;2&#45;&gt;181</title>
<path fill="none" stroke="red" stroke-width="0.11" stroke-dasharray="1,5" d="M357.78,-153.83C354.07,-150.12 349.47,-145.92 344.86,-142.71 315.16,-122.05 303.23,-124.73 271.86,-106.71 270.37,-105.86 268.85,-104.95 267.34,-104.03"/>
<polygon fill="red" stroke="red" stroke-width="0.11" points="269.21,-101.07 258.9,-98.66 265.46,-106.98 269.21,-101.07"/>
</g>
<!-- &#45;2&#45;&gt;183 -->
<g id="edge14" class="edge">
<title>&#45;2&#45;&gt;183</title>
<path fill="none" stroke="red" stroke-width="0.47" d="M372.88,-154.17C376.64,-150.16 381.59,-145.62 386.86,-142.71 443.5,-111.49 468.73,-132.93 527.86,-106.71 529.29,-106.08 530.72,-105.38 532.15,-104.63"/>
<polygon fill="red" stroke="red" stroke-width="0.47" points="533.86,-107.69 540.69,-99.59 530.3,-101.66 533.86,-107.69"/>
</g>
<!-- &#45;3 -->
<g id="node3" class="node">
<title>&#45;3</title>
<polygon fill="lightgray" stroke="black" points="335.61,-172.82 312.11,-172.82 312.11,-154.32 335.61,-154.32 335.61,-172.82"/>
<text text-anchor="middle" x="323.86" y="-160.27" font-family="Times,serif" font-size="9.00">&#45;3</text>
</g>
<!-- &#45;3&#45;&gt;181 -->
<g id="edge8" class="edge">
<title>&#45;3&#45;&gt;181</title>
<path fill="none" stroke="green" stroke-width="0.13" d="M314.9,-154.03C311.18,-150.51 306.83,-146.4 302.86,-142.71 290.22,-130.95 275.99,-117.91 264.46,-107.39"/>
<polygon fill="green" stroke="green" stroke-width="0.13" points="266.86,-104.84 257.11,-100.69 262.15,-110.01 266.86,-104.84"/>
</g>
<!-- 182 -->
<g id="node27" class="node">
<title>182</title>
<ellipse fill="white" stroke="black" cx="301.86" cy="-85.85" rx="20.86" ry="20.86"/>
<text text-anchor="middle" x="301.86" y="-82.55" font-family="Times,serif" font-size="9.00">182</text>
</g>
<!-- &#45;3&#45;&gt;182 -->
<g id="edge20" class="edge">
<title>&#45;3&#45;&gt;182</title>
<path fill="none" stroke="red" stroke-width="0.2" d="M321.34,-153.88C318.67,-144.72 314.33,-129.77 310.42,-116.32"/>
<polygon fill="red" stroke="red" stroke-width="0.2" points="313.79,-115.36 307.64,-106.73 307.06,-117.31 313.79,-115.36"/>
</g>
<!-- &#45;3&#45;&gt;183 -->
<g id="edge7" class="edge">
<title>&#45;3&#45;&gt;183</title>
<path fill="none" stroke="red" stroke-width="0.11" d="M330.81,-154.05C334.56,-150.01 339.51,-145.47 344.86,-142.71 418.54,-104.74 451.18,-138.19 527.86,-106.71 529.45,-106.06 531.04,-105.32 532.62,-104.51"/>
<polygon fill="red" stroke="red" stroke-width="0.11" points="534.35,-107.56 541.23,-99.5 530.83,-101.51 534.35,-107.56"/>
</g>
<!-- &#45;4 -->
<g id="node4" class="node">
<title>&#45;4</title>
<polygon fill="lightgray" stroke="black" points="100.61,-244.18 77.11,-244.18 77.11,-225.68 100.61,-225.68 100.61,-244.18"/>
<text text-anchor="middle" x="88.86" y="-231.63" font-family="Times,serif" font-size="9.00">&#45;4</text>
</g>
<!-- &#45;5 -->
<g id="node5" class="node">
<title>&#45;5</title>
<polygon fill="lightgray" stroke="black" points="121.61,-172.82 98.11,-172.82 98.11,-154.32 121.61,-154.32 121.61,-172.82"/>
<text text-anchor="middle" x="109.86" y="-160.27" font-family="Times,serif" font-size="9.00">&#45;5</text>
</g>
<!-- 1 -->
<g id="node22" class="node">
<title>1</title>
<ellipse fill="lightblue" stroke="black" cx="241.86" cy="-14.5" rx="14.5" ry="14.5"/>
<text text-anchor="middle" x="241.86" y="-11.2" font-family="Times,serif" font-size="9.00">1</text>
</g>
<!-- &#45;5&#45;&gt;1 -->
<g id="edge46" class="edge">
<title>&#45;5&#45;&gt;1</title>
<path fill="none" stroke="green" stroke-width="0.3" d="M117.33,-154.24C138.06,-131.15 196.63,-65.89 225.44,-33.79"/>
<polygon fill="green" stroke="green" stroke-width="0.3" points="228.03,-36.15 232.1,-26.37 222.82,-31.47 228.03,-36.15"/>
</g>
<!-- &#45;5&#45;&gt;181 -->
<g id="edge15" class="edge">
<title>&#45;5&#45;&gt;181</title>
<path fill="none" stroke="red" stroke-width="0.42" stroke-dasharray="1,5" d="M117.95,-153.85C121.66,-150.14 126.26,-145.94 130.86,-142.71 156.86,-124.47 189.66,-108.73 212.85,-98.66"/>
<polygon fill="red" stroke="red" stroke-width="0.42" points="214.04,-101.95 221.86,-94.82 211.29,-95.51 214.04,-101.95"/>
</g>
<!-- &#45;5&#45;&gt;182 -->
<g id="edge35" class="edge">
<title>&#45;5&#45;&gt;182</title>
<path fill="none" stroke="green" stroke-width="0.26" d="M116.88,-154.17C120.64,-150.16 125.59,-145.62 130.86,-142.71 187.5,-111.49 212.73,-132.93 271.86,-106.71 273.43,-106.01 275.01,-105.24 276.58,-104.41"/>
<polygon fill="green" stroke="green" stroke-width="0.26" points="278.14,-107.55 284.96,-99.43 274.57,-101.53 278.14,-107.55"/>
</g>
<!-- &#45;5&#45;&gt;183 -->
<g id="edge13" class="edge">
<title>&#45;5&#45;&gt;183</title>
<path fill="none" stroke="red" stroke-width="0.62" d="M116.33,-154.22C120.08,-150.01 125.19,-145.27 130.86,-142.71 292.34,-69.83 360.69,-165.39 527.86,-106.71 529.37,-106.18 530.88,-105.56 532.37,-104.87"/>
<polygon fill="red" stroke="red" stroke-width="0.62" points="534.01,-107.96 541.01,-100.01 530.58,-101.86 534.01,-107.96"/>
</g>
<!-- &#45;6 -->
<g id="node6" class="node">
<title>&#45;6</title>
<polygon fill="lightgray" stroke="black" points="205.61,-172.82 182.11,-172.82 182.11,-154.32 205.61,-154.32 205.61,-172.82"/>
<text text-anchor="middle" x="193.86" y="-160.27" font-family="Times,serif" font-size="9.00">&#45;6</text>
</g>
<!-- &#45;6&#45;&gt;181 -->
<g id="edge29" class="edge">
<title>&#45;6&#45;&gt;181</title>
<path fill="none" stroke="green" stroke-width="0.16" d="M199.37,-153.88C205.73,-143.85 216.49,-126.87 225.59,-112.51"/>
<polygon fill="green" stroke="green" stroke-width="0.16" points="228.47,-114.52 230.86,-104.2 222.55,-110.77 228.47,-114.52"/>
</g>
<!-- 184 -->
<g id="node29" class="node">
<title>184</title>
<ellipse fill="white" stroke="black" cx="497.86" cy="-85.85" rx="20.86" ry="20.86"/>
<text text-anchor="middle" x="497.86" y="-82.55" font-family="Times,serif" font-size="9.00">184</text>
</g>
<!-- &#45;6&#45;&gt;184 -->
<g id="edge2" class="edge">
<title>&#45;6&#45;&gt;184</title>
<path fill="none" stroke="green" stroke-width="0.48" stroke-dasharray="1,5" d="M200.81,-154.05C204.56,-150.01 209.51,-145.47 214.86,-142.71 258.72,-120.09 402.8,-99.19 466.77,-90.77"/>
<polygon fill="green" stroke="green" stroke-width="0.48" points="466.85,-94.29 476.32,-89.53 465.95,-87.35 466.85,-94.29"/>
</g>
<!-- &#45;7 -->
<g id="node7" class="node">
<title>&#45;7</title>
<polygon fill="lightgray" stroke="black" points="247.61,-172.82 224.11,-172.82 224.11,-154.32 247.61,-154.32 247.61,-172.82"/>
<text text-anchor="middle" x="235.86" y="-160.27" font-family="Times,serif" font-size="9.00">&#45;7</text>
</g>
<!-- &#45;7&#45;&gt;182 -->
<g id="edge24" class="edge">
<title>&#45;7&#45;&gt;182</title>
<path fill="none" stroke="red" stroke-width="0.39" d="M243.43,-153.88C252.69,-143.26 268.72,-124.88 281.65,-110.04"/>
<polygon fill="red" stroke="red" stroke-width="0.39" points="284.13,-112.51 288.07,-102.68 278.86,-107.92 284.13,-112.51"/>
</g>
<!-- &#45;8 -->
<g id="node8" class="node">
<title>&#45;8</title>
<polygon fill="lightgray" stroke="black" points="465.61,-172.82 442.11,-172.82 442.11,-154.32 465.61,-154.32 465.61,-172.82"/>
<text text-anchor="middle" x="453.86" y="-160.27" font-family="Times,serif" font-size="9.00">&#45;8</text>
</g>
<!-- &#45;8&#45;&gt;182 -->
<g id="edge36" class="edge">
<title>&#45;8&#45;&gt;182</title>
<path fill="none" stroke="green" stroke-width="0.29" stroke-dasharray="1,5" d="M446.26,-154.11C442.5,-150.28 437.73,-145.9 432.86,-142.71 400.59,-121.56 358.98,-105.43 331.41,-96.07"/>
<polygon fill="green" stroke="green" stroke-width="0.29" points="332.59,-92.78 322,-92.96 330.39,-99.42 332.59,-92.78"/>
</g>
<!-- &#45;8&#45;&gt;184 -->
<g id="edge12" class="edge">
<title>&#45;8&#45;&gt;184</title>
<path fill="none" stroke="green" stroke-width="0.11" stroke-dasharray="1,5" d="M458.91,-153.88C464.7,-143.91 474.48,-127.09 482.79,-112.79"/>
<polygon fill="green" stroke="green" stroke-width="0.11" points="485.64,-114.85 487.64,-104.44 479.59,-111.33 485.64,-114.85"/>
</g>
<!-- &#45;9 -->
<g id="node9" class="node">
<title>&#45;9</title>
<polygon fill="lightgray" stroke="black" points="163.61,-172.82 140.11,-172.82 140.11,-154.32 163.61,-154.32 163.61,-172.82"/>
<text text-anchor="middle" x="151.86" y="-160.27" font-family="Times,serif" font-size="9.00">&#45;9</text>
</g>
<!-- &#45;9&#45;&gt;182 -->
<g id="edge30" class="edge">
<title>&#45;9&#45;&gt;182</title>
<path fill="none" stroke="red" stroke-width="0.33" d="M159.39,-153.99C163.13,-150.13 167.91,-145.77 172.86,-142.71 212.7,-118.11 230.05,-127.78 271.86,-106.71 273.39,-105.94 274.94,-105.1 276.49,-104.22"/>
<polygon fill="red" stroke="red" stroke-width="0.33" points="278.02,-107.39 284.72,-99.18 274.36,-101.42 278.02,-107.39"/>
</g>
<!-- &#45;10 -->
<g id="node10" class="node">
<title>&#45;10</title>
<polygon fill="lightgray" stroke="black" points="787.86,-172.82 759.86,-172.82 759.86,-154.32 787.86,-154.32 787.86,-172.82"/>
<text text-anchor="middle" x="773.86" y="-160.27" font-family="Times,serif" font-size="9.00">&#45;10</text>
</g>
<!-- &#45;10&#45;&gt;183 -->
<g id="edge37" class="edge">
<title>&#45;10&#45;&gt;183</title>
<path fill="none" stroke="red" stroke-width="0.16" stroke-dasharray="1,5" d="M765.57,-153.87C761.47,-149.98 756.24,-145.63 750.86,-142.71 697.78,-113.92 628.22,-98.52 588.75,-91.57"/>
<polygon fill="red" stroke="red" stroke-width="0.16" points="589.38,-88.13 578.94,-89.91 588.21,-95.03 589.38,-88.13"/>
</g>
<!-- &#45;11 -->
<g id="node11" class="node">
<title>&#45;11</title>
<polygon fill="lightgray" stroke="black" points="293.86,-172.82 265.86,-172.82 265.86,-154.32 293.86,-154.32 293.86,-172.82"/>
<text text-anchor="middle" x="279.86" y="-160.27" font-family="Times,serif" font-size="9.00">&#45;11</text>
</g>
<!-- &#45;11&#45;&gt;181 -->
<g id="edge32" class="edge">
<title>&#45;11&#45;&gt;181</title>
<path fill="none" stroke="red" stroke-width="0.16" stroke-dasharray="1,5" d="M275.5,-153.88C270.61,-144.13 262.43,-127.83 255.36,-113.75"/>
<polygon fill="red" stroke="red" stroke-width="0.16" points="258.64,-112.49 251.03,-105.12 252.38,-115.63 258.64,-112.49"/>
</g>
<!-- &#45;11&#45;&gt;182 -->
<g id="edge34" class="edge">
<title>&#45;11&#45;&gt;182</title>
<path fill="none" stroke="red" stroke-width="0.39" d="M282.38,-153.88C285.05,-144.72 289.39,-129.77 293.3,-116.32"/>
<polygon fill="red" stroke="red" stroke-width="0.39" points="296.58,-117.58 296.01,-107 289.85,-115.62 296.58,-117.58"/>
</g>
<!-- &#45;11&#45;&gt;184 -->
<g id="edge5" class="edge">
<title>&#45;11&#45;&gt;184</title>
<path fill="none" stroke="green" stroke-width="0.28" d="M288.14,-153.86C292.25,-149.97 297.48,-145.62 302.86,-142.71 356.63,-113.64 427.14,-98.31 466.96,-91.45"/>
<polygon fill="green" stroke="green" stroke-width="0.28" points="467.38,-94.93 476.68,-89.85 466.24,-88.02 467.38,-94.93"/>
</g>
<!-- &#45;12 -->
<g id="node12" class="node">
<title>&#45;12</title>
<polygon fill="lightgray" stroke="black" points="423.86,-172.82 395.86,-172.82 395.86,-154.32 423.86,-154.32 423.86,-172.82"/>
<text text-anchor="middle" x="409.86" y="-160.27" font-family="Times,serif" font-size="9.00">&#45;12</text>
</g>
<!-- &#45;12&#45;&gt;182 -->
<g id="edge11" class="edge">
<title>&#45;12&#45;&gt;182</title>
<path fill="none" stroke="red" stroke-width="0.64" stroke-dasharray="1,5" d="M400.69,-154.17C396.57,-150.52 391.57,-146.27 386.86,-142.71 367.96,-128.43 345.52,-113.78 328.45,-103.07"/>
<polygon fill="red" stroke="red" stroke-width="0.64" points="330.73,-100.36 320.39,-98.06 327.04,-106.31 330.73,-100.36"/>
</g>
<!-- &#45;12&#45;&gt;184 -->
<g id="edge10" class="edge">
<title>&#45;12&#45;&gt;184</title>
<path fill="none" stroke="red" stroke-width="0.23" stroke-dasharray="1,5" d="M419.7,-154.06C423.77,-150.54 428.54,-146.43 432.86,-142.71 446.73,-130.76 462.28,-117.39 474.7,-106.73"/>
<polygon fill="red" stroke="red" stroke-width="0.23" points="476.78,-109.56 482.09,-100.39 472.22,-104.25 476.78,-109.56"/>
</g>
<!-- &#45;13 -->
<g id="node13" class="node">
<title>&#45;13</title>
<polygon fill="lightgray" stroke="black" points="649.86,-172.82 621.86,-172.82 621.86,-154.32 649.86,-154.32 649.86,-172.82"/>
<text text-anchor="middle" x="635.86" y="-160.27" font-family="Times,serif" font-size="9.00">&#45;13</text>
</g>
<!-- &#45;13&#45;&gt;183 -->
<g id="edge16" class="edge">
<title>&#45;13&#45;&gt;183</title>
<path fill="none" stroke="red" stroke-width="0.21" d="M626.91,-153.88C615.5,-142.8 595.36,-123.25 579.77,-108.12"/>
<polygon fill="red" stroke="red" stroke-width="0.21" points="582.37,-105.77 572.76,-101.32 577.5,-110.79 582.37,-105.77"/>
</g>
<!-- &#45;13&#45;&gt;184 -->
<g id="edge1" class="edge">
<title>&#45;13&#45;&gt;184</title>
<path fill="none" stroke="red" stroke-width="0.43" d="M627.41,-154.15C623.27,-150.32 618.06,-145.94 612.86,-142.71 578.02,-121.04 564.01,-126.12 527.86,-106.71 526.48,-105.97 525.09,-105.19 523.7,-104.38"/>
<polygon fill="red" stroke="red" stroke-width="0.43" points="525.55,-101.41 515.21,-99.1 521.85,-107.35 525.55,-101.41"/>
</g>
<!-- &#45;14 -->
<g id="node14" class="node">
<title>&#45;14</title>
<polygon fill="lightgray" stroke="black" points="695.86,-172.82 667.86,-172.82 667.86,-154.32 695.86,-154.32 695.86,-172.82"/>
<text text-anchor="middle" x="681.86" y="-160.27" font-family="Times,serif" font-size="9.00">&#45;14</text>
</g>
<!-- &#45;14&#45;&gt;183 -->
<g id="edge4" class="edge">
<title>&#45;14&#45;&gt;183</title>
<path fill="none" stroke="red" stroke-width="0.14" stroke-dasharray="1,5" d="M672.82,-154C668.72,-150.31 663.71,-146.09 658.86,-142.71 635.2,-126.22 606.21,-110.61 585.37,-100.11"/>
<polygon fill="red" stroke="red" stroke-width="0.14" points="587.11,-97.07 576.6,-95.75 584,-103.33 587.11,-97.07"/>
</g>
<!-- &#45;14&#45;&gt;184 -->
<g id="edge40" class="edge">
<title>&#45;14&#45;&gt;184</title>
<path fill="none" stroke="green" stroke-width="0.43" d="M673.59,-153.83C669.49,-149.94 664.26,-145.59 658.86,-142.71 605.59,-114.28 582.83,-131.69 527.86,-106.71 526.44,-106.06 525.01,-105.36 523.58,-104.6"/>
<polygon fill="green" stroke="green" stroke-width="0.43" points="525.4,-101.61 515.02,-99.51 521.82,-107.63 525.4,-101.61"/>
</g>
<!-- &#45;15 -->
<g id="node15" class="node">
<title>&#45;15</title>
<polygon fill="lightgray" stroke="black" points="58.86,-244.18 30.86,-244.18 30.86,-225.68 58.86,-225.68 58.86,-244.18"/>
<text text-anchor="middle" x="44.86" y="-231.63" font-family="Times,serif" font-size="9.00">&#45;15</text>
</g>
<!-- &#45;15&#45;&gt;181 -->
<g id="edge3" class="edge">
<title>&#45;15&#45;&gt;181</title>
<path fill="none" stroke="red" stroke-width="0.3" stroke-dasharray="1,5" d="M46.7,-225.33C50.97,-207.44 63.18,-165.96 88.86,-142.71 123.48,-111.37 177.09,-97.22 210.8,-91.12"/>
<polygon fill="red" stroke="red" stroke-width="0.3" points="211.26,-94.59 220.55,-89.49 210.1,-87.69 211.26,-94.59"/>
</g>
<!-- 219 -->
<g id="node30" class="node">
<title>219</title>
<ellipse fill="white" stroke="black" cx="20.86" cy="-163.57" rx="20.86" ry="20.86"/>
<text text-anchor="middle" x="20.86" y="-160.27" font-family="Times,serif" font-size="9.00">219</text>
</g>
<!-- &#45;15&#45;&gt;219 -->
<g id="edge44" class="edge">
<title>&#45;15&#45;&gt;219</title>
<path fill="none" stroke="red" stroke-width="0.16" stroke-dasharray="1,5" d="M41.92,-225.42C39.12,-217.34 34.75,-204.72 30.72,-193.07"/>
<polygon fill="red" stroke="red" stroke-width="0.16" points="34.11,-192.16 27.53,-183.86 27.5,-194.45 34.11,-192.16"/>
</g>
<!-- &#45;16 -->
<g id="node16" class="node">
<title>&#45;16</title>
<polygon fill="lightgray" stroke="black" points="741.86,-172.82 713.86,-172.82 713.86,-154.32 741.86,-154.32 741.86,-172.82"/>
<text text-anchor="middle" x="727.86" y="-160.27" font-family="Times,serif" font-size="9.00">&#45;16</text>
</g>
<!-- &#45;16&#45;&gt;183 -->
<g id="edge17" class="edge">
<title>&#45;16&#45;&gt;183</title>
<path fill="none" stroke="red" stroke-width="0.16" d="M719.46,-154.06C715.33,-150.22 710.12,-145.84 704.86,-142.71 666.94,-120.1 618.27,-103.76 587.56,-94.8"/>
<polygon fill="red" stroke="red" stroke-width="0.16" points="588.68,-91.48 578.1,-92.11 586.76,-98.21 588.68,-91.48"/>
</g>
<!-- &#45;16&#45;&gt;184 -->
<g id="edge28" class="edge">
<title>&#45;16&#45;&gt;184</title>
<path fill="none" stroke="green" stroke-width="0.17" d="M720.09,-154.07C715.95,-150.04 710.54,-145.5 704.86,-142.71 632.8,-107.33 602.03,-137.43 527.86,-106.71 526.27,-106.05 524.68,-105.31 523.1,-104.5"/>
<polygon fill="green" stroke="green" stroke-width="0.17" points="524.98,-101.55 514.58,-99.52 521.45,-107.59 524.98,-101.55"/>
</g>
<!-- &#45;17 -->
<g id="node17" class="node">
<title>&#45;17</title>
<polygon fill="lightgray" stroke="black" points="603.86,-172.82 575.86,-172.82 575.86,-154.32 603.86,-154.32 603.86,-172.82"/>
<text text-anchor="middle" x="589.86" y="-160.27" font-family="Times,serif" font-size="9.00">&#45;17</text>
</g>
<!-- &#45;17&#45;&gt;184 -->
<g id="edge39" class="edge">
<title>&#45;17&#45;&gt;184</title>
<path fill="none" stroke="green" stroke-width="0.33" d="M580.07,-154C576.01,-150.47 571.23,-146.37 566.86,-142.71 552.12,-130.38 535.37,-116.81 522.06,-106.13"/>
<polygon fill="green" stroke="green" stroke-width="0.33" points="524.26,-103.41 514.26,-99.89 519.88,-108.87 524.26,-103.41"/>
</g>
<!-- &#45;18 -->
<g id="node18" class="node">
<title>&#45;18</title>
<polygon fill="lightgray" stroke="black" points="511.86,-172.82 483.86,-172.82 483.86,-154.32 511.86,-154.32 511.86,-172.82"/>
<text text-anchor="middle" x="497.86" y="-160.27" font-family="Times,serif" font-size="9.00">&#45;18</text>
</g>
<!-- &#45;18&#45;&gt;184 -->
<g id="edge19" class="edge">
<title>&#45;18&#45;&gt;184</title>
<path fill="none" stroke="green" stroke-width="0.51" d="M497.86,-153.88C497.86,-145.02 497.86,-130.75 497.86,-117.65"/>
<polygon fill="green" stroke="green" stroke-width="0.51" points="501.36,-117.83 497.86,-107.83 494.36,-117.83 501.36,-117.83"/>
</g>
<!-- &#45;19 -->
<g id="node19" class="node">
<title>&#45;19</title>
<polygon fill="lightgray" stroke="black" points="557.86,-172.82 529.86,-172.82 529.86,-154.32 557.86,-154.32 557.86,-172.82"/>
<text text-anchor="middle" x="543.86" y="-160.27" font-family="Times,serif" font-size="9.00">&#45;19</text>
</g>
<!-- &#45;19&#45;&gt;184 -->
<g id="edge38" class="edge">
<title>&#45;19&#45;&gt;184</title>
<path fill="none" stroke="red" stroke-width="0.26" stroke-dasharray="1,5" d="M538.58,-153.88C532.52,-143.91 522.3,-127.09 513.62,-112.79"/>
<polygon fill="red" stroke="red" stroke-width="0.26" points="516.84,-111.36 508.66,-104.63 510.86,-114.99 516.84,-111.36"/>
</g>
<!-- &#45;20 -->
<g id="node20" class="node">
<title>&#45;20</title>
<polygon fill="lightgray" stroke="black" points="146.86,-244.18 118.86,-244.18 118.86,-225.68 146.86,-225.68 146.86,-244.18"/>
<text text-anchor="middle" x="132.86" y="-231.63" font-family="Times,serif" font-size="9.00">&#45;20</text>
</g>
<!-- 0 -->
<g id="node21" class="node">
<title>0</title>
<ellipse fill="lightblue" stroke="black" cx="527.86" cy="-14.5" rx="14.5" ry="14.5"/>
<text text-anchor="middle" x="527.86" y="-11.2" font-family="Times,serif" font-size="9.00">0</text>
</g>
<!-- 2 -->
<g id="node23" class="node">
<title>2</title>
<ellipse fill="lightblue" stroke="black" cx="178.86" cy="-234.93" rx="14.5" ry="14.5"/>
<text text-anchor="middle" x="178.86" y="-231.63" font-family="Times,serif" font-size="9.00">2</text>
</g>
<!-- 3 -->
<g id="node24" class="node">
<title>3</title>
<ellipse fill="lightblue" stroke="black" cx="360.86" cy="-14.5" rx="14.5" ry="14.5"/>
<text text-anchor="middle" x="360.86" y="-11.2" font-family="Times,serif" font-size="9.00">3</text>
</g>
<!-- 3&#45;&gt;3 -->
<g id="edge9" class="edge">
<title>3&#45;&gt;3</title>
<path fill="none" stroke="red" stroke-width="0.33" stroke-dasharray="1,5" d="M371.18,-24.94C381.67,-31.08 393.36,-27.6 393.36,-14.5 393.36,-5.49 387.83,-1.03 380.97,-1.12"/>
<polygon fill="red" stroke="red" stroke-width="0.33" points="380.23,2.31 371.66,-3.91 382.24,-4.39 380.23,2.31"/>
</g>
<!-- 4 -->
<g id="node25" class="node">
<title>4</title>
<ellipse fill="lightblue" stroke="black" cx="295.86" cy="-14.5" rx="14.5" ry="14.5"/>
<text text-anchor="middle" x="295.86" y="-11.2" font-family="Times,serif" font-size="9.00">4</text>
</g>
<!-- 4&#45;&gt;4 -->
<g id="edge23" class="edge">
<title>4&#45;&gt;4</title>
<path fill="none" stroke="green" stroke-width="0.26" d="M306.18,-24.94C316.67,-31.08 328.36,-27.6 328.36,-14.5 328.36,-5.49 322.83,-1.03 315.97,-1.12"/>
<polygon fill="green" stroke="green" stroke-width="0.26" points="315.13,2.28 306.55,-3.94 317.14,-4.42 315.13,2.28"/>
</g>
<!-- 181&#45;&gt;1 -->
<g id="edge33" class="edge">
<title>181&#45;&gt;1</title>
<path fill="none" stroke="green" stroke-width="0.15" d="M241.86,-64.79C241.86,-56.89 241.86,-47.75 241.86,-39.5"/>
<polygon fill="green" stroke="green" stroke-width="0.15" points="245.36,-39.58 241.86,-29.58 238.36,-39.58 245.36,-39.58"/>
</g>
<!-- 181&#45;&gt;3 -->
<g id="edge6" class="edge">
<title>181&#45;&gt;3</title>
<path fill="none" stroke="red" stroke-width="0.38" stroke-dasharray="1,5" d="M258.84,-73.27C263.06,-70.49 267.59,-67.58 271.86,-64.99 300.09,-47.86 308.02,-45.08 336.86,-28.99 337.82,-28.46 338.8,-27.91 339.79,-27.35"/>
<polygon fill="red" stroke="red" stroke-width="0.38" points="341.15,-30.6 348.16,-22.66 337.72,-24.5 341.15,-30.6"/>
</g>
<!-- 181&#45;&gt;4 -->
<g id="edge41" class="edge">
<title>181&#45;&gt;4</title>
<path fill="none" stroke="red" stroke-width="0.21" d="M254.38,-68.77C262.35,-58.53 272.7,-45.24 281.07,-34.49"/>
<polygon fill="red" stroke="red" stroke-width="0.21" points="283.7,-36.81 287.08,-26.77 278.18,-32.51 283.7,-36.81"/>
</g>
<!-- 182&#45;&gt;3 -->
<g id="edge42" class="edge">
<title>182&#45;&gt;3</title>
<path fill="none" stroke="red" stroke-width="0.35" stroke-dasharray="1,5" d="M314.95,-69.46C323.83,-59.03 335.6,-45.18 345.01,-34.13"/>
<polygon fill="red" stroke="red" stroke-width="0.35" points="347.49,-36.61 351.31,-26.73 342.16,-32.07 347.49,-36.61"/>
</g>
<!-- 182&#45;&gt;4 -->
<g id="edge27" class="edge">
<title>182&#45;&gt;4</title>
<path fill="none" stroke="red" stroke-width="0.29" d="M300.12,-64.79C299.44,-56.89 298.65,-47.75 297.94,-39.5"/>
<polygon fill="red" stroke="red" stroke-width="0.29" points="301.45,-39.46 297.1,-29.8 294.47,-40.07 301.45,-39.46"/>
</g>
<!-- 183&#45;&gt;0 -->
<g id="edge43" class="edge">
<title>183&#45;&gt;0</title>
<path fill="none" stroke="red" stroke-width="0.23" d="M549.82,-66.27C546,-57.43 541.4,-46.79 537.4,-37.55"/>
<polygon fill="red" stroke="red" stroke-width="0.23" points="540.68,-36.31 533.5,-28.52 534.25,-39.09 540.68,-36.31"/>
</g>
<!-- 183&#45;&gt;3 -->
<g id="edge25" class="edge">
<title>183&#45;&gt;3</title>
<path fill="none" stroke="red" stroke-width="0.19" d="M541.24,-72.59C537.02,-69.84 532.39,-67.1 527.86,-64.99 479.39,-42.38 418.19,-27.39 384.98,-20.28"/>
<polygon fill="red" stroke="red" stroke-width="0.19" points="386.01,-16.92 375.5,-18.31 384.58,-23.77 386.01,-16.92"/>
</g>
<!-- 183&#45;&gt;4 -->
<g id="edge18" class="edge">
<title>183&#45;&gt;4</title>
<path fill="none" stroke="red" stroke-width="0.11" stroke-dasharray="1,5" d="M541.38,-72.27C537.15,-69.52 532.49,-66.87 527.86,-64.99 448.24,-32.63 421.15,-50.18 337.86,-28.99 331.68,-27.42 325.07,-25.44 318.98,-23.49"/>
<polygon fill="red" stroke="red" stroke-width="0.11" points="320.11,-20.18 309.51,-20.35 317.91,-26.82 320.11,-20.18"/>
</g>
<!-- 184&#45;&gt;0 -->
<g id="edge26" class="edge">
<title>184&#45;&gt;0</title>
<path fill="none" stroke="green" stroke-width="0.1" d="M505.9,-66.27C509.76,-57.33 514.42,-46.57 518.45,-37.25"/>
<polygon fill="green" stroke="green" stroke-width="0.1" points="521.54,-38.92 522.3,-28.35 515.12,-36.14 521.54,-38.92"/>
</g>
<!-- 184&#45;&gt;1 -->
<g id="edge21" class="edge">
<title>184&#45;&gt;1</title>
<path fill="none" stroke="red" stroke-width="0.58" stroke-dasharray="1,5" d="M477.36,-80.96C437.42,-73.12 346.61,-54 272.86,-28.99 270.23,-28.1 267.52,-27.08 264.84,-26"/>
<polygon fill="red" stroke="red" stroke-width="0.58" points="266.33,-22.83 255.76,-22.12 263.57,-29.27 266.33,-22.83"/>
</g>
<!-- 219&#45;&gt;181 -->
<g id="edge45" class="edge">
<title>219&#45;&gt;181</title>
<path fill="none" stroke="red" stroke-width="0.48" stroke-dasharray="1,5" d="M38.27,-151.67C43.77,-148.51 49.95,-145.24 55.86,-142.71 108.77,-120.1 173.79,-102.81 211.27,-93.8"/>
<polygon fill="red" stroke="red" stroke-width="0.48" points="211.88,-97.25 220.81,-91.54 210.27,-90.43 211.88,-97.25"/>
</g>
</g>
</svg>
