<?xml version="1.0" encoding="UTF-8" standalone="no"?>
<!DOCTYPE svg PUBLIC "-//W3C//DTD SVG 1.1//EN"
 "http://www.w3.org/Graphics/SVG/1.1/DTD/svg11.dtd">
<!-- Generated by graphviz version 12.1.1 (20240910.0053)
 -->
<!-- Pages: 1 -->
<svg width="920pt" height="180pt"
 viewBox="0.00 0.00 920.50 179.70" xmlns="http://www.w3.org/2000/svg" xmlns:xlink="http://www.w3.org/1999/xlink">
<g id="graph0" class="graph" transform="scale(1 1) rotate(0) translate(4 175.7)">
<polygon fill="white" stroke="none" points="-4,4 -4,-175.7 916.5,-175.7 916.5,4 -4,4"/>
<!-- &#45;1 -->
<g id="node1" class="node">
<title>&#45;1</title>
<polygon fill="lightgray" stroke="black" points="425.75,-166.46 402.25,-166.46 402.25,-147.96 425.75,-147.96 425.75,-166.46"/>
<text text-anchor="middle" x="414" y="-153.91" font-family="Times,serif" font-size="9.00">&#45;1</text>
</g>
<!-- 112 -->
<g id="node29" class="node">
<title>112</title>
<ellipse fill="white" stroke="black" cx="414" cy="-85.85" rx="20.86" ry="20.86"/>
<text text-anchor="middle" x="414" y="-82.55" font-family="Times,serif" font-size="9.00">112</text>
</g>
<!-- &#45;1&#45;&gt;112 -->
<g id="edge33" class="edge">
<title>&#45;1&#45;&gt;112</title>
<path fill="none" stroke="green" stroke-width="0.56" d="M414,-147.7C414,-140.16 414,-128.67 414,-117.7"/>
<polygon fill="green" stroke="green" stroke-width="0.56" points="417.5,-117.91 414,-107.91 410.5,-117.91 417.5,-117.91"/>
</g>
<!-- &#45;2 -->
<g id="node2" class="node">
<title>&#45;2</title>
<polygon fill="lightgray" stroke="black" points="157.75,-166.46 134.25,-166.46 134.25,-147.96 157.75,-147.96 157.75,-166.46"/>
<text text-anchor="middle" x="146" y="-153.91" font-family="Times,serif" font-size="9.00">&#45;2</text>
</g>
<!-- 110 -->
<g id="node27" class="node">
<title>110</title>
<ellipse fill="white" stroke="black" cx="249" cy="-85.85" rx="20.86" ry="20.86"/>
<text text-anchor="middle" x="249" y="-82.55" font-family="Times,serif" font-size="9.00">110</text>
</g>
<!-- &#45;2&#45;&gt;110 -->
<g id="edge2" class="edge">
<title>&#45;2&#45;&gt;110</title>
<path fill="none" stroke="red" stroke-width="0.27" d="M158.22,-147.98C174.26,-137.18 202.82,-117.95 223.63,-103.94"/>
<polygon fill="red" stroke="red" stroke-width="0.27" points="225.34,-107 231.68,-98.52 221.43,-101.2 225.34,-107"/>
</g>
<!-- 111 -->
<g id="node28" class="node">
<title>111</title>
<ellipse fill="white" stroke="black" cx="175" cy="-85.85" rx="20.86" ry="20.86"/>
<text text-anchor="middle" x="175" y="-82.55" font-family="Times,serif" font-size="9.00">111</text>
</g>
<!-- &#45;2&#45;&gt;111 -->
<g id="edge17" class="edge">
<title>&#45;2&#45;&gt;111</title>
<path fill="none" stroke="red" stroke-width="0.18" d="M149.56,-147.7C152.99,-139.48 158.39,-126.57 163.33,-114.75"/>
<polygon fill="red" stroke="red" stroke-width="0.18" points="166.42,-116.44 167.05,-105.87 159.96,-113.74 166.42,-116.44"/>
</g>
<!-- &#45;2&#45;&gt;112 -->
<g id="edge35" class="edge">
<title>&#45;2&#45;&gt;112</title>
<path fill="none" stroke="red" stroke-width="0.42" stroke-dasharray="1,5" d="M158.04,-147.46C160.88,-145.69 163.96,-143.98 167,-142.71 206.05,-126.35 326.13,-102.99 383.23,-92.42"/>
<polygon fill="red" stroke="red" stroke-width="0.42" points="383.62,-95.91 392.82,-90.66 382.36,-89.03 383.62,-95.91"/>
</g>
<!-- &#45;3 -->
<g id="node3" class="node">
<title>&#45;3</title>
<polygon fill="lightgray" stroke="black" points="601.75,-166.46 578.25,-166.46 578.25,-147.96 601.75,-147.96 601.75,-166.46"/>
<text text-anchor="middle" x="590" y="-153.91" font-family="Times,serif" font-size="9.00">&#45;3</text>
</g>
<!-- 109 -->
<g id="node26" class="node">
<title>109</title>
<ellipse fill="white" stroke="black" cx="590" cy="-85.85" rx="20.86" ry="20.86"/>
<text text-anchor="middle" x="590" y="-82.55" font-family="Times,serif" font-size="9.00">109</text>
</g>
<!-- &#45;3&#45;&gt;109 -->
<g id="edge6" class="edge">
<title>&#45;3&#45;&gt;109</title>
<path fill="none" stroke="green" stroke-width="0.27" d="M590,-147.7C590,-140.08 590,-128.43 590,-117.35"/>
<polygon fill="green" stroke="green" stroke-width="0.27" points="593.5,-117.48 590,-107.48 586.5,-117.48 593.5,-117.48"/>
</g>
<!-- &#45;3&#45;&gt;110 -->
<g id="edge11" class="edge">
<title>&#45;3&#45;&gt;110</title>
<path fill="none" stroke="green" stroke-width="0.16" d="M578.45,-147.63C575.49,-145.76 572.23,-143.97 569,-142.71 542.15,-132.24 354.2,-102.88 279.5,-91.47"/>
<polygon fill="green" stroke="green" stroke-width="0.16" points="280.4,-88.07 269.99,-90.02 279.34,-94.99 280.4,-88.07"/>
</g>
<!-- &#45;3&#45;&gt;112 -->
<g id="edge34" class="edge">
<title>&#45;3&#45;&gt;112</title>
<path fill="none" stroke="green" stroke-width="0.88" d="M577.83,-147.74C575,-145.95 571.95,-144.17 569,-142.71 527.65,-122.3 476.92,-105.45 445.01,-95.76"/>
<polygon fill="green" stroke="green" stroke-width="0.88" points="446.02,-92.41 435.43,-92.9 444.02,-99.12 446.02,-92.41"/>
</g>
<!-- &#45;4 -->
<g id="node4" class="node">
<title>&#45;4</title>
<polygon fill="lightgray" stroke="black" points="115.75,-166.46 92.25,-166.46 92.25,-147.96 115.75,-147.96 115.75,-166.46"/>
<text text-anchor="middle" x="104" y="-153.91" font-family="Times,serif" font-size="9.00">&#45;4</text>
</g>
<!-- &#45;4&#45;&gt;111 -->
<g id="edge41" class="edge">
<title>&#45;4&#45;&gt;111</title>
<path fill="none" stroke="green" stroke-width="0.29" stroke-dasharray="1,5" d="M112.71,-147.7C122.7,-137.94 139.48,-121.55 153.11,-108.24"/>
<polygon fill="green" stroke="green" stroke-width="0.29" points="155.26,-111.02 159.97,-101.53 150.37,-106.02 155.26,-111.02"/>
</g>
<!-- &#45;4&#45;&gt;112 -->
<g id="edge5" class="edge">
<title>&#45;4&#45;&gt;112</title>
<path fill="none" stroke="green" stroke-width="0.15" d="M115.57,-147.67C118.52,-145.8 121.78,-144 125,-142.71 148.91,-133.13 314.47,-103.98 383.68,-92.04"/>
<polygon fill="green" stroke="green" stroke-width="0.15" points="384.06,-95.53 393.32,-90.38 382.87,-88.63 384.06,-95.53"/>
</g>
<!-- &#45;5 -->
<g id="node5" class="node">
<title>&#45;5</title>
<polygon fill="lightgray" stroke="black" points="735.75,-166.46 712.25,-166.46 712.25,-147.96 735.75,-147.96 735.75,-166.46"/>
<text text-anchor="middle" x="724" y="-153.91" font-family="Times,serif" font-size="9.00">&#45;5</text>
</g>
<!-- &#45;5&#45;&gt;109 -->
<g id="edge23" class="edge">
<title>&#45;5&#45;&gt;109</title>
<path fill="none" stroke="red" stroke-width="0.31" d="M712.15,-148.26C709.2,-146.38 706.02,-144.42 703,-142.71 674.67,-126.67 641.11,-110.41 617.97,-99.6"/>
<polygon fill="red" stroke="red" stroke-width="0.31" points="619.7,-96.55 609.15,-95.52 616.75,-102.9 619.7,-96.55"/>
</g>
<!-- &#45;5&#45;&gt;112 -->
<g id="edge21" class="edge">
<title>&#45;5&#45;&gt;112</title>
<path fill="none" stroke="red" stroke-width="0.14" d="M712.43,-147.67C709.48,-145.8 706.22,-144 703,-142.71 656.04,-123.9 508.87,-100.77 444.57,-91.26"/>
<polygon fill="red" stroke="red" stroke-width="0.14" points="445.24,-87.82 434.84,-89.83 444.22,-94.75 445.24,-87.82"/>
</g>
<!-- &#45;6 -->
<g id="node6" class="node">
<title>&#45;6</title>
<polygon fill="lightgray" stroke="black" points="865.75,-166.46 842.25,-166.46 842.25,-147.96 865.75,-147.96 865.75,-166.46"/>
<text text-anchor="middle" x="854" y="-153.91" font-family="Times,serif" font-size="9.00">&#45;6</text>
</g>
<!-- &#45;7 -->
<g id="node7" class="node">
<title>&#45;7</title>
<polygon fill="lightgray" stroke="black" points="245.75,-166.46 222.25,-166.46 222.25,-147.96 245.75,-147.96 245.75,-166.46"/>
<text text-anchor="middle" x="234" y="-153.91" font-family="Times,serif" font-size="9.00">&#45;7</text>
</g>
<!-- &#45;7&#45;&gt;110 -->
<g id="edge1" class="edge">
<title>&#45;7&#45;&gt;110</title>
<path fill="none" stroke="red" stroke-width="0.12" d="M235.84,-147.7C237.55,-139.81 240.19,-127.6 242.66,-116.18"/>
<polygon fill="red" stroke="red" stroke-width="0.12" points="246.02,-117.18 244.72,-106.66 239.18,-115.7 246.02,-117.18"/>
</g>
<!-- &#45;7&#45;&gt;112 -->
<g id="edge36" class="edge">
<title>&#45;7&#45;&gt;112</title>
<path fill="none" stroke="red" stroke-width="0.32" stroke-dasharray="1,5" d="M246.16,-147.72C248.99,-145.93 252.04,-144.16 255,-142.71 298.17,-121.62 351.39,-104.6 383.99,-95.11"/>
<polygon fill="red" stroke="red" stroke-width="0.32" points="384.69,-98.55 393.34,-92.43 382.77,-91.82 384.69,-98.55"/>
</g>
<!-- &#45;8 -->
<g id="node8" class="node">
<title>&#45;8</title>
<polygon fill="lightgray" stroke="black" points="467.75,-166.46 444.25,-166.46 444.25,-147.96 467.75,-147.96 467.75,-166.46"/>
<text text-anchor="middle" x="456" y="-153.91" font-family="Times,serif" font-size="9.00">&#45;8</text>
</g>
<!-- &#45;8&#45;&gt;112 -->
<g id="edge14" class="edge">
<title>&#45;8&#45;&gt;112</title>
<path fill="none" stroke="green" stroke-width="0.59" d="M450.85,-147.7C445.65,-139.11 437.34,-125.4 429.94,-113.17"/>
<polygon fill="green" stroke="green" stroke-width="0.59" points="433.15,-111.71 424.97,-104.97 427.16,-115.34 433.15,-111.71"/>
</g>
<!-- &#45;9 -->
<g id="node9" class="node">
<title>&#45;9</title>
<polygon fill="lightgray" stroke="black" points="823.75,-166.46 800.25,-166.46 800.25,-147.96 823.75,-147.96 823.75,-166.46"/>
<text text-anchor="middle" x="812" y="-153.91" font-family="Times,serif" font-size="9.00">&#45;9</text>
</g>
<!-- &#45;9&#45;&gt;109 -->
<g id="edge37" class="edge">
<title>&#45;9&#45;&gt;109</title>
<path fill="none" stroke="green" stroke-width="0.39" d="M799.91,-147.57C797.08,-145.79 794.01,-144.06 791,-142.71 733.47,-116.94 661.26,-100.39 620.92,-92.44"/>
<polygon fill="green" stroke="green" stroke-width="0.39" points="621.72,-89.03 611.24,-90.58 620.4,-95.9 621.72,-89.03"/>
</g>
<!-- &#45;10 -->
<g id="node10" class="node">
<title>&#45;10</title>
<polygon fill="lightgray" stroke="black" points="694,-166.46 666,-166.46 666,-147.96 694,-147.96 694,-166.46"/>
<text text-anchor="middle" x="680" y="-153.91" font-family="Times,serif" font-size="9.00">&#45;10</text>
</g>
<!-- &#45;10&#45;&gt;109 -->
<g id="edge24" class="edge">
<title>&#45;10&#45;&gt;109</title>
<path fill="none" stroke="green" stroke-width="0.19" stroke-dasharray="1,5" d="M668.96,-147.7C655.37,-137.23 631.89,-119.13 614.05,-105.39"/>
<polygon fill="green" stroke="green" stroke-width="0.19" points="616.6,-102.93 606.54,-99.6 612.33,-108.48 616.6,-102.93"/>
</g>
<!-- &#45;10&#45;&gt;112 -->
<g id="edge30" class="edge">
<title>&#45;10&#45;&gt;112</title>
<path fill="none" stroke="red" stroke-width="0.49" stroke-dasharray="1,5" d="M666.73,-147.5C663.63,-145.73 660.27,-144.01 657,-142.71 584.01,-113.7 492.41,-97.75 445.25,-90.92"/>
<polygon fill="red" stroke="red" stroke-width="0.49" points="445.92,-87.48 435.53,-89.56 444.95,-94.42 445.92,-87.48"/>
</g>
<!-- &#45;11 -->
<g id="node11" class="node">
<title>&#45;11</title>
<polygon fill="lightgray" stroke="black" points="560,-166.46 532,-166.46 532,-147.96 560,-147.96 560,-166.46"/>
<text text-anchor="middle" x="546" y="-153.91" font-family="Times,serif" font-size="9.00">&#45;11</text>
</g>
<!-- &#45;11&#45;&gt;112 -->
<g id="edge38" class="edge">
<title>&#45;11&#45;&gt;112</title>
<path fill="none" stroke="green" stroke-width="0.39" d="M531.96,-147.8C529.02,-146.08 525.92,-144.31 523,-142.71 495.84,-127.8 464.3,-111.77 442.15,-100.72"/>
<polygon fill="green" stroke="green" stroke-width="0.39" points="443.72,-97.6 433.21,-96.28 440.61,-103.87 443.72,-97.6"/>
</g>
<!-- &#45;12 -->
<g id="node12" class="node">
<title>&#45;12</title>
<polygon fill="lightgray" stroke="black" points="514,-166.46 486,-166.46 486,-147.96 514,-147.96 514,-166.46"/>
<text text-anchor="middle" x="500" y="-153.91" font-family="Times,serif" font-size="9.00">&#45;12</text>
</g>
<!-- &#45;12&#45;&gt;109 -->
<g id="edge27" class="edge">
<title>&#45;12&#45;&gt;109</title>
<path fill="none" stroke="red" stroke-width="0.3" d="M511.04,-147.7C524.51,-137.32 547.69,-119.45 565.46,-105.76"/>
<polygon fill="red" stroke="red" stroke-width="0.3" points="567.55,-108.57 573.33,-99.69 563.28,-103.03 567.55,-108.57"/>
</g>
<!-- &#45;12&#45;&gt;111 -->
<g id="edge18" class="edge">
<title>&#45;12&#45;&gt;111</title>
<path fill="none" stroke="green" stroke-width="0.37" d="M487.29,-147.57C484.06,-145.7 480.5,-143.93 477,-142.71 367.64,-104.69 330.23,-138.85 219,-106.71 213.7,-105.18 208.22,-103.12 203,-100.91"/>
<polygon fill="green" stroke="green" stroke-width="0.37" points="204.46,-97.73 193.9,-96.8 201.57,-104.11 204.46,-97.73"/>
</g>
<!-- &#45;12&#45;&gt;112 -->
<g id="edge12" class="edge">
<title>&#45;12&#45;&gt;112</title>
<path fill="none" stroke="red" stroke-width="0.17" d="M489.45,-147.7C476.66,-137.38 454.69,-119.67 437.75,-106"/>
<polygon fill="red" stroke="red" stroke-width="0.17" points="440.09,-103.39 430.11,-99.84 435.69,-108.84 440.09,-103.39"/>
</g>
<!-- &#45;13 -->
<g id="node13" class="node">
<title>&#45;13</title>
<polygon fill="lightgray" stroke="black" points="782,-166.46 754,-166.46 754,-147.96 782,-147.96 782,-166.46"/>
<text text-anchor="middle" x="768" y="-153.91" font-family="Times,serif" font-size="9.00">&#45;13</text>
</g>
<!-- &#45;13&#45;&gt;109 -->
<g id="edge7" class="edge">
<title>&#45;13&#45;&gt;109</title>
<path fill="none" stroke="green" stroke-width="0.38" stroke-dasharray="1,5" d="M754.11,-147.51C751.16,-145.81 748.02,-144.13 745,-142.71 702.88,-122.97 651.73,-105.77 620.01,-95.85"/>
<polygon fill="green" stroke="green" stroke-width="0.38" points="621.18,-92.54 610.59,-92.94 619.11,-99.23 621.18,-92.54"/>
</g>
<!-- &#45;14 -->
<g id="node14" class="node">
<title>&#45;14</title>
<polygon fill="lightgray" stroke="black" points="648,-166.46 620,-166.46 620,-147.96 648,-147.96 648,-166.46"/>
<text text-anchor="middle" x="634" y="-153.91" font-family="Times,serif" font-size="9.00">&#45;14</text>
</g>
<!-- &#45;14&#45;&gt;112 -->
<g id="edge42" class="edge">
<title>&#45;14&#45;&gt;112</title>
<path fill="none" stroke="green" stroke-width="0.17" stroke-dasharray="1,5" d="M620.68,-147.62C617.58,-145.84 614.24,-144.09 611,-142.71 554.27,-118.5 483.95,-101.45 444.52,-92.97"/>
<polygon fill="green" stroke="green" stroke-width="0.17" points="445.48,-89.6 434.97,-90.96 444.04,-96.45 445.48,-89.6"/>
</g>
<!-- &#45;15 -->
<g id="node15" class="node">
<title>&#45;15</title>
<polygon fill="lightgray" stroke="black" points="338,-166.46 310,-166.46 310,-147.96 338,-147.96 338,-166.46"/>
<text text-anchor="middle" x="324" y="-153.91" font-family="Times,serif" font-size="9.00">&#45;15</text>
</g>
<!-- &#45;15&#45;&gt;112 -->
<g id="edge20" class="edge">
<title>&#45;15&#45;&gt;112</title>
<path fill="none" stroke="green" stroke-width="0.14" stroke-dasharray="1,5" d="M335.04,-147.7C348.63,-137.23 372.11,-119.13 389.95,-105.39"/>
<polygon fill="green" stroke="green" stroke-width="0.14" points="391.73,-108.43 397.52,-99.55 387.46,-102.89 391.73,-108.43"/>
</g>
<!-- &#45;16 -->
<g id="node16" class="node">
<title>&#45;16</title>
<polygon fill="lightgray" stroke="black" points="292,-166.46 264,-166.46 264,-147.96 292,-147.96 292,-166.46"/>
<text text-anchor="middle" x="278" y="-153.91" font-family="Times,serif" font-size="9.00">&#45;16</text>
</g>
<!-- &#45;16&#45;&gt;110 -->
<g id="edge39" class="edge">
<title>&#45;16&#45;&gt;110</title>
<path fill="none" stroke="green" stroke-width="0.35" d="M274.44,-147.7C271.04,-139.56 265.72,-126.83 260.81,-115.1"/>
<polygon fill="green" stroke="green" stroke-width="0.35" points="264.14,-113.98 257.05,-106.1 257.68,-116.68 264.14,-113.98"/>
</g>
<!-- &#45;16&#45;&gt;112 -->
<g id="edge31" class="edge">
<title>&#45;16&#45;&gt;112</title>
<path fill="none" stroke="green" stroke-width="0.21" stroke-dasharray="1,5" d="M292.02,-147.77C294.96,-146.05 298.07,-144.29 301,-142.71 329.65,-127.25 363.15,-110.9 386.2,-99.91"/>
<polygon fill="green" stroke="green" stroke-width="0.21" points="387.57,-103.13 395.11,-95.68 384.57,-96.81 387.57,-103.13"/>
</g>
<!-- &#45;17 -->
<g id="node17" class="node">
<title>&#45;17</title>
<polygon fill="lightgray" stroke="black" points="74,-166.46 46,-166.46 46,-147.96 74,-147.96 74,-166.46"/>
<text text-anchor="middle" x="60" y="-153.91" font-family="Times,serif" font-size="9.00">&#45;17</text>
</g>
<!-- &#45;17&#45;&gt;110 -->
<g id="edge13" class="edge">
<title>&#45;17&#45;&gt;110</title>
<path fill="none" stroke="green" stroke-width="0.35" d="M73.33,-147.65C76.43,-145.87 79.77,-144.11 83,-142.71 134.88,-120.24 152,-126.39 205,-106.71 210.3,-104.74 215.87,-102.43 221.19,-100.09"/>
<polygon fill="green" stroke="green" stroke-width="0.35" points="222.24,-103.46 229.91,-96.15 219.35,-97.08 222.24,-103.46"/>
</g>
<!-- &#45;17&#45;&gt;111 -->
<g id="edge8" class="edge">
<title>&#45;17&#45;&gt;111</title>
<path fill="none" stroke="red" stroke-width="0.32" d="M74.1,-147.7C92.55,-136.58 125.25,-116.85 148.42,-102.88"/>
<polygon fill="red" stroke="red" stroke-width="0.32" points="150.22,-105.88 156.97,-97.72 146.6,-99.89 150.22,-105.88"/>
</g>
<!-- &#45;18 -->
<g id="node18" class="node">
<title>&#45;18</title>
<polygon fill="lightgray" stroke="black" points="204,-166.46 176,-166.46 176,-147.96 204,-147.96 204,-166.46"/>
<text text-anchor="middle" x="190" y="-153.91" font-family="Times,serif" font-size="9.00">&#45;18</text>
</g>
<!-- &#45;18&#45;&gt;111 -->
<g id="edge26" class="edge">
<title>&#45;18&#45;&gt;111</title>
<path fill="none" stroke="green" stroke-width="0.42" stroke-dasharray="1,5" d="M188.16,-147.7C186.47,-139.89 183.87,-127.85 181.42,-116.53"/>
<polygon fill="green" stroke="green" stroke-width="0.42" points="184.91,-116.13 179.38,-107.1 178.07,-117.61 184.91,-116.13"/>
</g>
<!-- &#45;18&#45;&gt;112 -->
<g id="edge4" class="edge">
<title>&#45;18&#45;&gt;112</title>
<path fill="none" stroke="green" stroke-width="0.39" d="M203.32,-147.61C206.42,-145.83 209.76,-144.08 213,-142.71 271.04,-118.11 343.06,-101.14 383.23,-92.8"/>
<polygon fill="green" stroke="green" stroke-width="0.39" points="383.76,-96.26 392.86,-90.84 382.36,-89.4 383.76,-96.26"/>
</g>
<!-- &#45;19 -->
<g id="node19" class="node">
<title>&#45;19</title>
<polygon fill="lightgray" stroke="black" points="28,-166.46 0,-166.46 0,-147.96 28,-147.96 28,-166.46"/>
<text text-anchor="middle" x="14" y="-153.91" font-family="Times,serif" font-size="9.00">&#45;19</text>
</g>
<!-- &#45;19&#45;&gt;111 -->
<g id="edge9" class="edge">
<title>&#45;19&#45;&gt;111</title>
<path fill="none" stroke="green" stroke-width="0.19" d="M27.93,-147.6C30.88,-145.9 34.01,-144.18 37,-142.71 73.71,-124.63 117.8,-107.55 146.1,-97.14"/>
<polygon fill="green" stroke="green" stroke-width="0.19" points="146.94,-100.56 155.14,-93.85 144.54,-93.98 146.94,-100.56"/>
</g>
<!-- &#45;20 -->
<g id="node20" class="node">
<title>&#45;20</title>
<polygon fill="lightgray" stroke="black" points="384,-166.46 356,-166.46 356,-147.96 384,-147.96 384,-166.46"/>
<text text-anchor="middle" x="370" y="-153.91" font-family="Times,serif" font-size="9.00">&#45;20</text>
</g>
<!-- &#45;20&#45;&gt;112 -->
<g id="edge25" class="edge">
<title>&#45;20&#45;&gt;112</title>
<path fill="none" stroke="green" stroke-width="0.16" d="M375.4,-147.7C380.94,-138.97 389.83,-124.94 397.69,-112.56"/>
<polygon fill="green" stroke="green" stroke-width="0.16" points="400.64,-114.45 403.04,-104.13 394.73,-110.7 400.64,-114.45"/>
</g>
<!-- 0 -->
<g id="node21" class="node">
<title>0</title>
<ellipse fill="lightblue" stroke="black" cx="898" cy="-157.21" rx="14.5" ry="14.5"/>
<text text-anchor="middle" x="898" y="-153.91" font-family="Times,serif" font-size="9.00">0</text>
</g>
<!-- 1 -->
<g id="node22" class="node">
<title>1</title>
<ellipse fill="lightblue" stroke="black" cx="269" cy="-14.5" rx="14.5" ry="14.5"/>
<text text-anchor="middle" x="269" y="-11.2" font-family="Times,serif" font-size="9.00">1</text>
</g>
<!-- 2 -->
<g id="node23" class="node">
<title>2</title>
<ellipse fill="lightblue" stroke="black" cx="222" cy="-14.5" rx="14.5" ry="14.5"/>
<text text-anchor="middle" x="222" y="-11.2" font-family="Times,serif" font-size="9.00">2</text>
</g>
<!-- 3 -->
<g id="node24" class="node">
<title>3</title>
<ellipse fill="lightblue" stroke="black" cx="175" cy="-14.5" rx="14.5" ry="14.5"/>
<text text-anchor="middle" x="175" y="-11.2" font-family="Times,serif" font-size="9.00">3</text>
</g>
<!-- 4 -->
<g id="node25" class="node">
<title>4</title>
<ellipse fill="lightblue" stroke="black" cx="502" cy="-14.5" rx="14.5" ry="14.5"/>
<text text-anchor="middle" x="502" y="-11.2" font-family="Times,serif" font-size="9.00">4</text>
</g>
<!-- 109&#45;&gt;1 -->
<g id="edge40" class="edge">
<title>109&#45;&gt;1</title>
<path fill="none" stroke="red" stroke-width="0.23" d="M569.43,-80.41C512.65,-68.14 353.9,-33.84 293.1,-20.7"/>
<polygon fill="red" stroke="red" stroke-width="0.23" points="294.1,-17.34 283.59,-18.65 292.63,-24.18 294.1,-17.34"/>
</g>
<!-- 109&#45;&gt;2 -->
<g id="edge16" class="edge">
<title>109&#45;&gt;2</title>
<path fill="none" stroke="green" stroke-width="0.15" d="M569.21,-81.91C499.5,-71.98 276.77,-39.76 246,-28.99 244.96,-28.63 243.92,-28.22 242.87,-27.78"/>
<polygon fill="green" stroke="green" stroke-width="0.15" points="244.53,-24.69 234.02,-23.33 241.38,-30.95 244.53,-24.69"/>
</g>
<!-- 109&#45;&gt;4 -->
<g id="edge19" class="edge">
<title>109&#45;&gt;4</title>
<path fill="none" stroke="green" stroke-width="0.26" d="M573.86,-72.13C558.96,-60.38 536.81,-42.93 521.04,-30.5"/>
<polygon fill="green" stroke="green" stroke-width="0.26" points="523.36,-27.87 513.34,-24.43 519.03,-33.37 523.36,-27.87"/>
</g>
<!-- 110&#45;&gt;1 -->
<g id="edge3" class="edge">
<title>110&#45;&gt;1</title>
<path fill="none" stroke="green" stroke-width="0.24" d="M254.57,-65.53C256.97,-57.21 259.8,-47.41 262.31,-38.7"/>
<polygon fill="green" stroke="green" stroke-width="0.24" points="265.66,-39.71 265.07,-29.13 258.93,-37.77 265.66,-39.71"/>
</g>
<!-- 110&#45;&gt;110 -->
<g id="edge15" class="edge">
<title>110&#45;&gt;110</title>
<path fill="none" stroke="green" stroke-width="0.17" stroke-dasharray="1,5" d="M266.18,-98.17C277.23,-101.39 287.86,-97.28 287.86,-85.85 287.86,-77.99 282.83,-73.6 276.1,-72.66"/>
<polygon fill="green" stroke="green" stroke-width="0.17" points="276.09,-69.15 266.43,-73.51 276.7,-76.12 276.09,-69.15"/>
</g>
<!-- 111&#45;&gt;1 -->
<g id="edge28" class="edge">
<title>111&#45;&gt;1</title>
<path fill="none" stroke="green" stroke-width="0.52" d="M191.37,-72.77C207.5,-60.87 232.14,-42.69 249.32,-30.01"/>
<polygon fill="green" stroke="green" stroke-width="0.52" points="250.94,-33.17 256.91,-24.42 246.78,-27.54 250.94,-33.17"/>
</g>
<!-- 111&#45;&gt;2 -->
<g id="edge10" class="edge">
<title>111&#45;&gt;2</title>
<path fill="none" stroke="green" stroke-width="0.28" stroke-dasharray="1,5" d="M186.38,-68.06C193.02,-58.26 201.44,-45.84 208.42,-35.53"/>
<polygon fill="green" stroke="green" stroke-width="0.28" points="211.16,-37.73 213.87,-27.49 205.36,-33.81 211.16,-37.73"/>
</g>
<!-- 111&#45;&gt;3 -->
<g id="edge32" class="edge">
<title>111&#45;&gt;3</title>
<path fill="none" stroke="red" stroke-width="0.22" stroke-dasharray="1,5" d="M175,-64.79C175,-56.89 175,-47.75 175,-39.5"/>
<polygon fill="red" stroke="red" stroke-width="0.22" points="178.5,-39.69 175,-29.69 171.5,-39.69 178.5,-39.69"/>
</g>
<!-- 112&#45;&gt;3 -->
<g id="edge22" class="edge">
<title>112&#45;&gt;3</title>
<path fill="none" stroke="green" stroke-width="0.38" d="M393.28,-81.31C354.28,-74.26 267.68,-56.68 199,-28.99 198.11,-28.63 197.21,-28.25 196.31,-27.84"/>
<polygon fill="green" stroke="green" stroke-width="0.38" points="197.92,-24.73 187.42,-23.26 194.71,-30.95 197.92,-24.73"/>
</g>
<!-- 112&#45;&gt;4 -->
<g id="edge29" class="edge">
<title>112&#45;&gt;4</title>
<path fill="none" stroke="red" stroke-width="0.16" d="M430.14,-72.13C445.04,-60.38 467.19,-42.93 482.96,-30.5"/>
<polygon fill="red" stroke="red" stroke-width="0.16" points="485.09,-33.28 490.78,-24.34 480.76,-27.78 485.09,-33.28"/>
</g>
</g>
</svg>
