<?xml version="1.0" encoding="UTF-8" standalone="no"?>
<!DOCTYPE svg PUBLIC "-//W3C//DTD SVG 1.1//EN"
 "http://www.w3.org/Graphics/SVG/1.1/DTD/svg11.dtd">
<!-- Generated by graphviz version 12.1.1 (20240910.0053)
 -->
<!-- Pages: 1 -->
<svg width="768pt" height="299pt"
 viewBox="0.00 0.00 768.00 299.19" xmlns="http://www.w3.org/2000/svg" xmlns:xlink="http://www.w3.org/1999/xlink">
<g id="graph0" class="graph" transform="scale(1 1) rotate(0) translate(4 295.19)">
<polygon fill="white" stroke="none" points="-4,4 -4,-295.19 764,-295.19 764,4 -4,4"/>
<!-- &#45;1 -->
<g id="node1" class="node">
<title>&#45;1</title>
<polygon fill="lightgray" stroke="black" points="157.75,-291.19 134.25,-291.19 134.25,-272.69 157.75,-272.69 157.75,-291.19"/>
<text text-anchor="middle" x="146" y="-278.64" font-family="Times,serif" font-size="9.00">&#45;1</text>
</g>
<!-- 82 -->
<g id="node27" class="node">
<title>82</title>
<ellipse fill="white" stroke="black" cx="146" cy="-219.02" rx="17.68" ry="17.68"/>
<text text-anchor="middle" x="146" y="-215.72" font-family="Times,serif" font-size="9.00">82</text>
</g>
<!-- &#45;1&#45;&gt;82 -->
<g id="edge21" class="edge">
<title>&#45;1&#45;&gt;82</title>
<path fill="none" stroke="red" stroke-width="0.36" d="M146,-272.21C146,-265.59 146,-256.11 146,-247.04"/>
<polygon fill="red" stroke="red" stroke-width="0.36" points="149.5,-247.32 146,-237.32 142.5,-247.32 149.5,-247.32"/>
</g>
<!-- 83 -->
<g id="node28" class="node">
<title>83</title>
<ellipse fill="white" stroke="black" cx="280" cy="-219.02" rx="17.68" ry="17.68"/>
<text text-anchor="middle" x="280" y="-215.72" font-family="Times,serif" font-size="9.00">83</text>
</g>
<!-- &#45;1&#45;&gt;83 -->
<g id="edge31" class="edge">
<title>&#45;1&#45;&gt;83</title>
<path fill="none" stroke="red" stroke-width="0.21" d="M157.89,-275.54C179.64,-265.65 226.26,-244.45 255.19,-231.3"/>
<polygon fill="red" stroke="red" stroke-width="0.21" points="256.32,-234.63 263.97,-227.3 253.42,-228.26 256.32,-234.63"/>
</g>
<!-- &#45;2 -->
<g id="node2" class="node">
<title>&#45;2</title>
<polygon fill="lightgray" stroke="black" points="333.75,-291.19 310.25,-291.19 310.25,-272.69 333.75,-272.69 333.75,-291.19"/>
<text text-anchor="middle" x="322" y="-278.64" font-family="Times,serif" font-size="9.00">&#45;2</text>
</g>
<!-- &#45;2&#45;&gt;83 -->
<g id="edge14" class="edge">
<title>&#45;2&#45;&gt;83</title>
<path fill="none" stroke="green" stroke-width="0.18" stroke-dasharray="1,5" d="M315.98,-272.21C310.6,-264.4 302.46,-252.6 295.29,-242.2"/>
<polygon fill="green" stroke="green" stroke-width="0.18" points="298.29,-240.38 289.73,-234.14 292.53,-244.36 298.29,-240.38"/>
</g>
<!-- &#45;3 -->
<g id="node3" class="node">
<title>&#45;3</title>
<polygon fill="lightgray" stroke="black" points="513.75,-291.19 490.25,-291.19 490.25,-272.69 513.75,-272.69 513.75,-291.19"/>
<text text-anchor="middle" x="502" y="-278.64" font-family="Times,serif" font-size="9.00">&#45;3</text>
</g>
<!-- 81 -->
<g id="node26" class="node">
<title>81</title>
<ellipse fill="white" stroke="black" cx="337" cy="-219.02" rx="17.68" ry="17.68"/>
<text text-anchor="middle" x="337" y="-215.72" font-family="Times,serif" font-size="9.00">81</text>
</g>
<!-- &#45;3&#45;&gt;81 -->
<g id="edge11" class="edge">
<title>&#45;3&#45;&gt;81</title>
<path fill="none" stroke="green" stroke-width="0.62" d="M490.03,-276.18C487.08,-275.03 483.93,-273.8 481,-272.69 440.17,-257.21 392.54,-239.94 363.59,-229.53"/>
<polygon fill="green" stroke="green" stroke-width="0.62" points="364.94,-226.3 354.35,-226.21 362.58,-232.89 364.94,-226.3"/>
</g>
<!-- 84 -->
<g id="node29" class="node">
<title>84</title>
<ellipse fill="white" stroke="black" cx="381" cy="-82.67" rx="17.68" ry="17.68"/>
<text text-anchor="middle" x="381" y="-79.37" font-family="Times,serif" font-size="9.00">84</text>
</g>
<!-- &#45;3&#45;&gt;84 -->
<g id="edge39" class="edge">
<title>&#45;3&#45;&gt;84</title>
<path fill="none" stroke="green" stroke-width="0.3" stroke-dasharray="1,5" d="M502.11,-272.52C502,-248.75 498.77,-179.99 467,-136.35 452.08,-115.86 426.53,-101.69 407.15,-93.26"/>
<polygon fill="green" stroke="green" stroke-width="0.3" points="408.66,-90.09 398.08,-89.53 406,-96.57 408.66,-90.09"/>
</g>
<!-- &#45;4 -->
<g id="node4" class="node">
<title>&#45;4</title>
<polygon fill="lightgray" stroke="black" points="621.75,-291.19 598.25,-291.19 598.25,-272.69 621.75,-272.69 621.75,-291.19"/>
<text text-anchor="middle" x="610" y="-278.64" font-family="Times,serif" font-size="9.00">&#45;4</text>
</g>
<!-- &#45;5 -->
<g id="node5" class="node">
<title>&#45;5</title>
<polygon fill="lightgray" stroke="black" points="556.75,-160.09 533.25,-160.09 533.25,-141.59 556.75,-141.59 556.75,-160.09"/>
<text text-anchor="middle" x="545" y="-147.54" font-family="Times,serif" font-size="9.00">&#45;5</text>
</g>
<!-- &#45;5&#45;&gt;84 -->
<g id="edge34" class="edge">
<title>&#45;5&#45;&gt;84</title>
<path fill="none" stroke="red" stroke-width="0.27" d="M532.97,-143.23C528.62,-140.94 523.64,-138.43 519,-136.35 480.87,-119.24 435.35,-102.56 407.31,-92.7"/>
<polygon fill="red" stroke="red" stroke-width="0.27" points="408.8,-89.51 398.2,-89.52 406.49,-96.12 408.8,-89.51"/>
</g>
<!-- &#45;6 -->
<g id="node6" class="node">
<title>&#45;6</title>
<polygon fill="lightgray" stroke="black" points="421.75,-291.19 398.25,-291.19 398.25,-272.69 421.75,-272.69 421.75,-291.19"/>
<text text-anchor="middle" x="410" y="-278.64" font-family="Times,serif" font-size="9.00">&#45;6</text>
</g>
<!-- &#45;6&#45;&gt;81 -->
<g id="edge32" class="edge">
<title>&#45;6&#45;&gt;81</title>
<path fill="none" stroke="red" stroke-width="0.33" stroke-dasharray="1,5" d="M399.54,-272.21C388.83,-263.28 371.88,-249.13 358.33,-237.82"/>
<polygon fill="red" stroke="red" stroke-width="0.33" points="360.72,-235.25 350.8,-231.53 356.23,-240.63 360.72,-235.25"/>
</g>
<!-- &#45;6&#45;&gt;83 -->
<g id="edge41" class="edge">
<title>&#45;6&#45;&gt;83</title>
<path fill="none" stroke="red" stroke-width="0.34" stroke-dasharray="1,5" d="M397.83,-275.98C378.84,-268.14 341.1,-252.18 310,-236.69 308.01,-235.7 305.96,-234.64 303.91,-233.56"/>
<polygon fill="red" stroke="red" stroke-width="0.34" points="306.02,-230.73 295.57,-229.02 302.67,-236.87 306.02,-230.73"/>
</g>
<!-- &#45;7 -->
<g id="node7" class="node">
<title>&#45;7</title>
<polygon fill="lightgray" stroke="black" points="392.75,-160.09 369.25,-160.09 369.25,-141.59 392.75,-141.59 392.75,-160.09"/>
<text text-anchor="middle" x="381" y="-147.54" font-family="Times,serif" font-size="9.00">&#45;7</text>
</g>
<!-- &#45;7&#45;&gt;84 -->
<g id="edge3" class="edge">
<title>&#45;7&#45;&gt;84</title>
<path fill="none" stroke="green" stroke-width="0.79" d="M381,-141.19C381,-133.68 381,-122.37 381,-111.76"/>
<polygon fill="green" stroke="green" stroke-width="0.79" points="384.5,-111.94 381,-101.94 377.5,-111.94 384.5,-111.94"/>
</g>
<!-- &#45;8 -->
<g id="node8" class="node">
<title>&#45;8</title>
<polygon fill="lightgray" stroke="black" points="199.75,-291.19 176.25,-291.19 176.25,-272.69 199.75,-272.69 199.75,-291.19"/>
<text text-anchor="middle" x="188" y="-278.64" font-family="Times,serif" font-size="9.00">&#45;8</text>
</g>
<!-- &#45;8&#45;&gt;82 -->
<g id="edge24" class="edge">
<title>&#45;8&#45;&gt;82</title>
<path fill="none" stroke="red" stroke-width="0.59" stroke-dasharray="1,5" d="M181.98,-272.21C176.7,-264.56 168.79,-253.07 161.72,-242.83"/>
<polygon fill="red" stroke="red" stroke-width="0.59" points="164.64,-240.88 156.08,-234.64 158.87,-244.86 164.64,-240.88"/>
</g>
<!-- &#45;8&#45;&gt;83 -->
<g id="edge17" class="edge">
<title>&#45;8&#45;&gt;83</title>
<path fill="none" stroke="green" stroke-width="0.39" d="M200.03,-272.98C214.38,-263.47 238.7,-247.37 256.76,-235.41"/>
<polygon fill="green" stroke="green" stroke-width="0.39" points="258.65,-238.35 265.06,-229.91 254.79,-232.51 258.65,-238.35"/>
</g>
<!-- &#45;9 -->
<g id="node9" class="node">
<title>&#45;9</title>
<polygon fill="lightgray" stroke="black" points="69.75,-291.19 46.25,-291.19 46.25,-272.69 69.75,-272.69 69.75,-291.19"/>
<text text-anchor="middle" x="58" y="-278.64" font-family="Times,serif" font-size="9.00">&#45;9</text>
</g>
<!-- &#45;9&#45;&gt;82 -->
<g id="edge26" class="edge">
<title>&#45;9&#45;&gt;82</title>
<path fill="none" stroke="red" stroke-width="0.19" stroke-dasharray="1,5" d="M70.24,-272.47C83.99,-262.95 106.61,-247.29 123.56,-235.55"/>
<polygon fill="red" stroke="red" stroke-width="0.19" points="125.37,-238.56 131.6,-229.99 121.38,-232.8 125.37,-238.56"/>
</g>
<!-- &#45;10 -->
<g id="node10" class="node">
<title>&#45;10</title>
<polygon fill="lightgray" stroke="black" points="246,-291.19 218,-291.19 218,-272.69 246,-272.69 246,-291.19"/>
<text text-anchor="middle" x="232" y="-278.64" font-family="Times,serif" font-size="9.00">&#45;10</text>
</g>
<!-- &#45;10&#45;&gt;81 -->
<g id="edge16" class="edge">
<title>&#45;10&#45;&gt;81</title>
<path fill="none" stroke="red" stroke-width="0.52" d="M246.16,-272.73C263.27,-262.8 292.32,-245.94 312.96,-233.97"/>
<polygon fill="red" stroke="red" stroke-width="0.52" points="314.48,-237.13 321.37,-229.08 310.97,-231.08 314.48,-237.13"/>
</g>
<!-- &#45;10&#45;&gt;82 -->
<g id="edge35" class="edge">
<title>&#45;10&#45;&gt;82</title>
<path fill="none" stroke="green" stroke-width="0.33" stroke-dasharray="1,5" d="M219.68,-272.21C206.43,-262.83 185.08,-247.71 168.77,-236.15"/>
<polygon fill="green" stroke="green" stroke-width="0.33" points="170.89,-233.36 160.71,-230.44 166.84,-239.07 170.89,-233.36"/>
</g>
<!-- &#45;11 -->
<g id="node11" class="node">
<title>&#45;11</title>
<polygon fill="lightgray" stroke="black" points="439,-160.09 411,-160.09 411,-141.59 439,-141.59 439,-160.09"/>
<text text-anchor="middle" x="425" y="-147.54" font-family="Times,serif" font-size="9.00">&#45;11</text>
</g>
<!-- &#45;11&#45;&gt;84 -->
<g id="edge18" class="edge">
<title>&#45;11&#45;&gt;84</title>
<path fill="none" stroke="green" stroke-width="0.34" stroke-dasharray="1,5" d="M419.25,-141.19C413.42,-132.43 404.15,-118.49 396.2,-106.53"/>
<polygon fill="green" stroke="green" stroke-width="0.34" points="399.19,-104.71 390.74,-98.32 393.36,-108.59 399.19,-104.71"/>
</g>
<!-- &#45;12 -->
<g id="node12" class="node">
<title>&#45;12</title>
<polygon fill="lightgray" stroke="black" points="292,-291.19 264,-291.19 264,-272.69 292,-272.69 292,-291.19"/>
<text text-anchor="middle" x="278" y="-278.64" font-family="Times,serif" font-size="9.00">&#45;12</text>
</g>
<!-- &#45;12&#45;&gt;81 -->
<g id="edge40" class="edge">
<title>&#45;12&#45;&gt;81</title>
<path fill="none" stroke="red" stroke-width="0.29" d="M286.45,-272.21C294.56,-263.85 307.08,-250.92 317.63,-240.02"/>
<polygon fill="red" stroke="red" stroke-width="0.29" points="320.13,-242.47 324.57,-232.85 315.1,-237.6 320.13,-242.47"/>
</g>
<!-- &#45;12&#45;&gt;82 -->
<g id="edge12" class="edge">
<title>&#45;12&#45;&gt;82</title>
<path fill="none" stroke="green" stroke-width="0.1" d="M263.62,-274.31C241.39,-264.04 198.37,-244.19 170.98,-231.54"/>
<polygon fill="green" stroke="green" stroke-width="0.1" points="172.69,-228.48 162.14,-227.47 169.75,-234.83 172.69,-228.48"/>
</g>
<!-- &#45;12&#45;&gt;83 -->
<g id="edge37" class="edge">
<title>&#45;12&#45;&gt;83</title>
<path fill="none" stroke="green" stroke-width="0.36" d="M278.29,-272.21C278.5,-265.59 278.82,-256.11 279.11,-247.04"/>
<polygon fill="green" stroke="green" stroke-width="0.36" points="282.6,-247.43 279.43,-237.33 275.61,-247.21 282.6,-247.43"/>
</g>
<!-- &#45;13 -->
<g id="node13" class="node">
<title>&#45;13</title>
<polygon fill="lightgray" stroke="black" points="668,-291.19 640,-291.19 640,-272.69 668,-272.69 668,-291.19"/>
<text text-anchor="middle" x="654" y="-278.64" font-family="Times,serif" font-size="9.00">&#45;13</text>
</g>
<!-- &#45;14 -->
<g id="node14" class="node">
<title>&#45;14</title>
<polygon fill="lightgray" stroke="black" points="714,-291.19 686,-291.19 686,-272.69 714,-272.69 714,-291.19"/>
<text text-anchor="middle" x="700" y="-278.64" font-family="Times,serif" font-size="9.00">&#45;14</text>
</g>
<!-- &#45;15 -->
<g id="node15" class="node">
<title>&#45;15</title>
<polygon fill="lightgray" stroke="black" points="380,-291.19 352,-291.19 352,-272.69 380,-272.69 380,-291.19"/>
<text text-anchor="middle" x="366" y="-278.64" font-family="Times,serif" font-size="9.00">&#45;15</text>
</g>
<!-- &#45;15&#45;&gt;81 -->
<g id="edge7" class="edge">
<title>&#45;15&#45;&gt;81</title>
<path fill="none" stroke="red" stroke-width="0.13" d="M361.85,-272.21C358.38,-264.93 353.27,-254.2 348.58,-244.35"/>
<polygon fill="red" stroke="red" stroke-width="0.13" points="351.83,-243.02 344.37,-235.49 345.51,-246.03 351.83,-243.02"/>
</g>
<!-- &#45;15&#45;&gt;82 -->
<g id="edge4" class="edge">
<title>&#45;15&#45;&gt;82</title>
<path fill="none" stroke="green" stroke-width="0.19" d="M351.95,-275.7C349.01,-274.66 345.92,-273.6 343,-272.69 282.92,-253.92 211.28,-235.82 173.11,-226.51"/>
<polygon fill="green" stroke="green" stroke-width="0.19" points="174.08,-223.14 163.54,-224.19 172.43,-229.94 174.08,-223.14"/>
</g>
<!-- &#45;15&#45;&gt;83 -->
<g id="edge9" class="edge">
<title>&#45;15&#45;&gt;83</title>
<path fill="none" stroke="green" stroke-width="0.4" stroke-dasharray="1,5" d="M353.68,-272.21C340.43,-262.83 319.08,-247.71 302.77,-236.15"/>
<polygon fill="green" stroke="green" stroke-width="0.4" points="304.98,-233.42 294.8,-230.5 300.93,-239.14 304.98,-233.42"/>
</g>
<!-- &#45;16 -->
<g id="node16" class="node">
<title>&#45;16</title>
<polygon fill="lightgray" stroke="black" points="472,-291.19 444,-291.19 444,-272.69 472,-272.69 472,-291.19"/>
<text text-anchor="middle" x="458" y="-278.64" font-family="Times,serif" font-size="9.00">&#45;16</text>
</g>
<!-- &#45;16&#45;&gt;83 -->
<g id="edge19" class="edge">
<title>&#45;16&#45;&gt;83</title>
<path fill="none" stroke="green" stroke-width="0.33" d="M443.71,-276.56C439.61,-275.3 435.13,-273.94 431,-272.69 377.28,-256.5 361.72,-258.45 310,-236.69 307.95,-235.83 305.85,-234.86 303.78,-233.84"/>
<polygon fill="green" stroke="green" stroke-width="0.33" points="305.86,-230.98 295.39,-229.4 302.59,-237.17 305.86,-230.98"/>
</g>
<!-- &#45;16&#45;&gt;84 -->
<g id="edge28" class="edge">
<title>&#45;16&#45;&gt;84</title>
<path fill="none" stroke="green" stroke-width="0.24" stroke-dasharray="1,5" d="M459.66,-272.48C463.78,-249.15 472.48,-182.61 448,-136.35 438.71,-118.8 420.76,-105.18 405.77,-96.19"/>
<polygon fill="green" stroke="green" stroke-width="0.24" points="407.68,-93.24 397.25,-91.37 404.24,-99.34 407.68,-93.24"/>
</g>
<!-- &#45;17 -->
<g id="node17" class="node">
<title>&#45;17</title>
<polygon fill="lightgray" stroke="black" points="580,-291.19 552,-291.19 552,-272.69 580,-272.69 580,-291.19"/>
<text text-anchor="middle" x="566" y="-278.64" font-family="Times,serif" font-size="9.00">&#45;17</text>
</g>
<!-- &#45;17&#45;&gt;81 -->
<g id="edge10" class="edge">
<title>&#45;17&#45;&gt;81</title>
<path fill="none" stroke="red" stroke-width="0.5" stroke-dasharray="1,5" d="M551.68,-277.13C514.26,-267.18 413.13,-240.27 364.22,-227.26"/>
<polygon fill="red" stroke="red" stroke-width="0.5" points="365.37,-223.94 354.8,-224.75 363.57,-230.71 365.37,-223.94"/>
</g>
<!-- &#45;17&#45;&gt;84 -->
<g id="edge13" class="edge">
<title>&#45;17&#45;&gt;84</title>
<path fill="none" stroke="green" stroke-width="0.38" d="M569.2,-272.35C577.61,-248.1 597.61,-178.22 566,-136.35 547.05,-111.24 455.8,-94.56 408.92,-87.5"/>
<polygon fill="green" stroke="green" stroke-width="0.38" points="409.54,-84.05 399.14,-86.07 408.52,-90.98 409.54,-84.05"/>
</g>
<!-- &#45;18 -->
<g id="node18" class="node">
<title>&#45;18</title>
<polygon fill="lightgray" stroke="black" points="28,-291.19 0,-291.19 0,-272.69 28,-272.69 28,-291.19"/>
<text text-anchor="middle" x="14" y="-278.64" font-family="Times,serif" font-size="9.00">&#45;18</text>
</g>
<!-- &#45;18&#45;&gt;82 -->
<g id="edge30" class="edge">
<title>&#45;18&#45;&gt;82</title>
<path fill="none" stroke="green" stroke-width="0.55" d="M28.38,-274.31C50.42,-264.13 92.88,-244.53 120.3,-231.88"/>
<polygon fill="green" stroke="green" stroke-width="0.55" points="121.63,-235.12 129.25,-227.75 118.7,-228.76 121.63,-235.12"/>
</g>
<!-- &#45;19 -->
<g id="node19" class="node">
<title>&#45;19</title>
<polygon fill="lightgray" stroke="black" points="760,-291.19 732,-291.19 732,-272.69 760,-272.69 760,-291.19"/>
<text text-anchor="middle" x="746" y="-278.64" font-family="Times,serif" font-size="9.00">&#45;19</text>
</g>
<!-- &#45;20 -->
<g id="node20" class="node">
<title>&#45;20</title>
<polygon fill="lightgray" stroke="black" points="116,-291.19 88,-291.19 88,-272.69 116,-272.69 116,-291.19"/>
<text text-anchor="middle" x="102" y="-278.64" font-family="Times,serif" font-size="9.00">&#45;20</text>
</g>
<!-- &#45;20&#45;&gt;82 -->
<g id="edge22" class="edge">
<title>&#45;20&#45;&gt;82</title>
<path fill="none" stroke="green" stroke-width="0.19" stroke-dasharray="1,5" d="M108.3,-272.21C113.95,-264.4 122.47,-252.6 129.98,-242.2"/>
<polygon fill="green" stroke="green" stroke-width="0.19" points="132.78,-244.3 135.8,-234.14 127.1,-240.2 132.78,-244.3"/>
</g>
<!-- &#45;20&#45;&gt;83 -->
<g id="edge25" class="edge">
<title>&#45;20&#45;&gt;83</title>
<path fill="none" stroke="green" stroke-width="0.43" d="M116.1,-275.84C119.04,-274.79 122.12,-273.7 125,-272.69 169.88,-257.02 222.29,-239.34 253.23,-228.96"/>
<polygon fill="green" stroke="green" stroke-width="0.43" points="254.24,-232.31 262.61,-225.82 252.02,-225.68 254.24,-232.31"/>
</g>
<!-- 0 -->
<g id="node21" class="node">
<title>0</title>
<ellipse fill="lightblue" stroke="black" cx="381" cy="-14.5" rx="14.5" ry="14.5"/>
<text text-anchor="middle" x="381" y="-11.2" font-family="Times,serif" font-size="9.00">0</text>
</g>
<!-- 1 -->
<g id="node22" class="node">
<title>1</title>
<ellipse fill="lightblue" stroke="black" cx="337" cy="-150.84" rx="14.5" ry="14.5"/>
<text text-anchor="middle" x="337" y="-147.54" font-family="Times,serif" font-size="9.00">1</text>
</g>
<!-- 1&#45;&gt;84 -->
<g id="edge42" class="edge">
<title>1&#45;&gt;84</title>
<path fill="none" stroke="red" stroke-width="0.15" d="M340.36,-136.45C345.36,-126.92 353.76,-113.95 361.76,-103.25"/>
<polygon fill="red" stroke="red" stroke-width="0.15" points="364.46,-105.48 367.87,-95.45 358.95,-101.16 364.46,-105.48"/>
</g>
<!-- 2 -->
<g id="node23" class="node">
<title>2</title>
<ellipse fill="lightblue" stroke="black" cx="199" cy="-14.5" rx="14.5" ry="14.5"/>
<text text-anchor="middle" x="199" y="-11.2" font-family="Times,serif" font-size="9.00">2</text>
</g>
<!-- 3 -->
<g id="node24" class="node">
<title>3</title>
<ellipse fill="lightblue" stroke="black" cx="260" cy="-14.5" rx="14.5" ry="14.5"/>
<text text-anchor="middle" x="260" y="-11.2" font-family="Times,serif" font-size="9.00">3</text>
</g>
<!-- 4 -->
<g id="node25" class="node">
<title>4</title>
<ellipse fill="lightblue" stroke="black" cx="310" cy="-14.5" rx="14.5" ry="14.5"/>
<text text-anchor="middle" x="310" y="-11.2" font-family="Times,serif" font-size="9.00">4</text>
</g>
<!-- 4&#45;&gt;4 -->
<g id="edge20" class="edge">
<title>4&#45;&gt;4</title>
<path fill="none" stroke="green" stroke-width="0.27" d="M320.65,-24.65C331.06,-30.26 342.5,-26.88 342.5,-14.5 342.5,-5.98 337.09,-1.72 330.33,-1.71"/>
<polygon fill="green" stroke="green" stroke-width="0.27" points="329.78,1.76 321.04,-4.23 331.61,-4.99 329.78,1.76"/>
</g>
<!-- 81&#45;&gt;1 -->
<g id="edge2" class="edge">
<title>81&#45;&gt;1</title>
<path fill="none" stroke="red" stroke-width="0.38" d="M337,-200.97C337,-193.39 337,-184.33 337,-176.06"/>
<polygon fill="red" stroke="red" stroke-width="0.38" points="340.5,-176.07 337,-166.07 333.5,-176.07 340.5,-176.07"/>
</g>
<!-- 81&#45;&gt;2 -->
<g id="edge15" class="edge">
<title>81&#45;&gt;2</title>
<path fill="none" stroke="green" stroke-width="0.47" d="M327.3,-203.77C303.27,-168.52 240.94,-77.05 212.96,-35.98"/>
<polygon fill="green" stroke="green" stroke-width="0.47" points="215.85,-34.01 207.33,-27.72 210.07,-37.96 215.85,-34.01"/>
</g>
<!-- 82&#45;&gt;2 -->
<g id="edge27" class="edge">
<title>82&#45;&gt;2</title>
<path fill="none" stroke="green" stroke-width="0.66" d="M145.95,-200.9C146.39,-171.99 149.56,-112.01 167,-64.99 170.97,-54.28 177.56,-43.5 183.74,-34.75"/>
<polygon fill="green" stroke="green" stroke-width="0.66" points="186.38,-37.06 189.53,-26.94 180.76,-32.88 186.38,-37.06"/>
</g>
<!-- 83&#45;&gt;1 -->
<g id="edge23" class="edge">
<title>83&#45;&gt;1</title>
<path fill="none" stroke="green" stroke-width="0.33" d="M291.26,-204.94C299.84,-194.98 311.77,-181.13 321.29,-170.08"/>
<polygon fill="green" stroke="green" stroke-width="0.33" points="323.81,-172.52 327.68,-162.66 318.5,-167.95 323.81,-172.52"/>
</g>
<!-- 83&#45;&gt;2 -->
<g id="edge8" class="edge">
<title>83&#45;&gt;2</title>
<path fill="none" stroke="red" stroke-width="0.18" stroke-dasharray="1,5" d="M268.57,-205.04C251.26,-184.48 218.9,-142.44 205,-100.35 198.44,-80.49 197.3,-56.64 197.59,-39.29"/>
<polygon fill="red" stroke="red" stroke-width="0.18" points="201.08,-39.81 197.92,-29.7 194.08,-39.57 201.08,-39.81"/>
</g>
<!-- 83&#45;&gt;3 -->
<g id="edge36" class="edge">
<title>83&#45;&gt;3</title>
<path fill="none" stroke="green" stroke-width="0.13" d="M278.33,-201.1C274.77,-165.06 266.43,-80.62 262.34,-39.23"/>
<polygon fill="green" stroke="green" stroke-width="0.13" points="265.84,-39.03 261.37,-29.42 258.87,-39.71 265.84,-39.03"/>
</g>
<!-- 83&#45;&gt;4 -->
<g id="edge33" class="edge">
<title>83&#45;&gt;4</title>
<path fill="none" stroke="red" stroke-width="0.42" d="M282.51,-201.1C287.83,-165.13 300.3,-80.98 306.45,-39.49"/>
<polygon fill="red" stroke="red" stroke-width="0.42" points="309.87,-40.26 307.87,-29.85 302.95,-39.23 309.87,-40.26"/>
</g>
<!-- 84&#45;&gt;0 -->
<g id="edge1" class="edge">
<title>84&#45;&gt;0</title>
<path fill="none" stroke="red" stroke-width="0.4" stroke-dasharray="1,5" d="M381,-64.63C381,-57.05 381,-47.98 381,-39.71"/>
<polygon fill="red" stroke="red" stroke-width="0.4" points="384.5,-39.76 381,-29.76 377.5,-39.76 384.5,-39.76"/>
</g>
<!-- 84&#45;&gt;1 -->
<g id="edge38" class="edge">
<title>84&#45;&gt;1</title>
<path fill="none" stroke="green" stroke-width="0.45" stroke-dasharray="1,5" d="M376.1,-99.92C370.6,-109.83 362.22,-122.48 354.5,-132.57"/>
<polygon fill="green" stroke="green" stroke-width="0.45" points="351.97,-130.13 348.39,-140.11 357.41,-134.54 351.97,-130.13"/>
</g>
<!-- 84&#45;&gt;2 -->
<g id="edge29" class="edge">
<title>84&#45;&gt;2</title>
<path fill="none" stroke="red" stroke-width="0.61" stroke-dasharray="1,5" d="M364.53,-75.68C332.03,-63.87 259.6,-37.53 222.26,-23.95"/>
<polygon fill="red" stroke="red" stroke-width="0.61" points="223.76,-20.77 213.16,-20.64 221.36,-27.35 223.76,-20.77"/>
</g>
<!-- 84&#45;&gt;3 -->
<g id="edge5" class="edge">
<title>84&#45;&gt;3</title>
<path fill="none" stroke="red" stroke-width="0.13" stroke-dasharray="1,5" d="M365.68,-73.29C344.34,-61.62 305.6,-40.43 281.42,-27.21"/>
<polygon fill="red" stroke="red" stroke-width="0.13" points="283.26,-24.23 272.81,-22.5 279.9,-30.37 283.26,-24.23"/>
</g>
<!-- 84&#45;&gt;4 -->
<g id="edge6" class="edge">
<title>84&#45;&gt;4</title>
<path fill="none" stroke="red" stroke-width="0.12" stroke-dasharray="1,5" d="M368.31,-69.84C356.94,-59.25 340.18,-43.62 327.53,-31.84"/>
<polygon fill="red" stroke="red" stroke-width="0.12" points="330.12,-29.46 320.42,-25.21 325.35,-34.59 330.12,-29.46"/>
</g>
</g>
</svg>
