<?xml version="1.0" encoding="UTF-8" standalone="no"?>
<!DOCTYPE svg PUBLIC "-//W3C//DTD SVG 1.1//EN"
 "http://www.w3.org/Graphics/SVG/1.1/DTD/svg11.dtd">
<!-- Generated by graphviz version 12.1.1 (20240910.0053)
 -->
<!-- Pages: 1 -->
<svg width="874pt" height="169pt"
 viewBox="0.00 0.00 873.75 169.21" xmlns="http://www.w3.org/2000/svg" xmlns:xlink="http://www.w3.org/1999/xlink">
<g id="graph0" class="graph" transform="scale(1 1) rotate(0) translate(4 165.21)">
<polygon fill="white" stroke="none" points="-4,4 -4,-165.21 869.75,-165.21 869.75,4 -4,4"/>
<!-- &#45;1 -->
<g id="node1" class="node">
<title>&#45;1</title>
<polygon fill="lightgray" stroke="black" points="23.5,-161.21 0,-161.21 0,-142.71 23.5,-142.71 23.5,-161.21"/>
<text text-anchor="middle" x="11.75" y="-148.66" font-family="Times,serif" font-size="9.00">&#45;1</text>
</g>
<!-- &#45;2 -->
<g id="node2" class="node">
<title>&#45;2</title>
<polygon fill="lightgray" stroke="black" points="199.5,-161.21 176,-161.21 176,-142.71 199.5,-142.71 199.5,-161.21"/>
<text text-anchor="middle" x="187.75" y="-148.66" font-family="Times,serif" font-size="9.00">&#45;2</text>
</g>
<!-- 133 -->
<g id="node26" class="node">
<title>133</title>
<ellipse fill="white" stroke="black" cx="405.75" cy="-85.85" rx="20.86" ry="20.86"/>
<text text-anchor="middle" x="405.75" y="-82.55" font-family="Times,serif" font-size="9.00">133</text>
</g>
<!-- &#45;2&#45;&gt;133 -->
<g id="edge40" class="edge">
<title>&#45;2&#45;&gt;133</title>
<path fill="none" stroke="red" stroke-width="0.15" d="M199.67,-146.04C202.62,-144.89 205.78,-143.71 208.75,-142.71 267.19,-123 336.9,-104.35 375.76,-94.37"/>
<polygon fill="red" stroke="red" stroke-width="0.15" points="376.36,-97.83 385.19,-91.97 374.64,-91.05 376.36,-97.83"/>
</g>
<!-- 135 -->
<g id="node28" class="node">
<title>135</title>
<ellipse fill="white" stroke="black" cx="293.75" cy="-85.85" rx="20.86" ry="20.86"/>
<text text-anchor="middle" x="293.75" y="-82.55" font-family="Times,serif" font-size="9.00">135</text>
</g>
<!-- &#45;2&#45;&gt;135 -->
<g id="edge2" class="edge">
<title>&#45;2&#45;&gt;135</title>
<path fill="none" stroke="red" stroke-width="0.1" d="M199.91,-143.61C216.35,-133.66 246.1,-115.67 267.7,-102.6"/>
<polygon fill="red" stroke="red" stroke-width="0.1" points="269.23,-105.77 275.98,-97.6 265.61,-99.78 269.23,-105.77"/>
</g>
<!-- &#45;3 -->
<g id="node3" class="node">
<title>&#45;3</title>
<polygon fill="lightgray" stroke="black" points="417.5,-161.21 394,-161.21 394,-142.71 417.5,-142.71 417.5,-161.21"/>
<text text-anchor="middle" x="405.75" y="-148.66" font-family="Times,serif" font-size="9.00">&#45;3</text>
</g>
<!-- &#45;3&#45;&gt;133 -->
<g id="edge30" class="edge">
<title>&#45;3&#45;&gt;133</title>
<path fill="none" stroke="green" stroke-width="0.42" d="M405.75,-142.31C405.75,-135.88 405.75,-126.67 405.75,-117.61"/>
<polygon fill="green" stroke="green" stroke-width="0.42" points="409.25,-117.84 405.75,-107.84 402.25,-117.84 409.25,-117.84"/>
</g>
<!-- 134 -->
<g id="node27" class="node">
<title>134</title>
<ellipse fill="white" stroke="black" cx="540.75" cy="-85.85" rx="20.86" ry="20.86"/>
<text text-anchor="middle" x="540.75" y="-82.55" font-family="Times,serif" font-size="9.00">134</text>
</g>
<!-- &#45;3&#45;&gt;134 -->
<g id="edge4" class="edge">
<title>&#45;3&#45;&gt;134</title>
<path fill="none" stroke="green" stroke-width="0.17" d="M417.73,-145.27C439.04,-135.15 484.04,-113.78 513.31,-99.88"/>
<polygon fill="green" stroke="green" stroke-width="0.17" points="514.44,-103.22 521.97,-95.77 511.44,-96.9 514.44,-103.22"/>
</g>
<!-- &#45;3&#45;&gt;135 -->
<g id="edge22" class="edge">
<title>&#45;3&#45;&gt;135</title>
<path fill="none" stroke="red" stroke-width="0.47" d="M393.76,-144.1C376.4,-134.16 343.8,-115.5 320.54,-102.19"/>
<polygon fill="red" stroke="red" stroke-width="0.47" points="322.56,-99.31 312.14,-97.38 319.08,-105.38 322.56,-99.31"/>
</g>
<!-- &#45;4 -->
<g id="node4" class="node">
<title>&#45;4</title>
<polygon fill="lightgray" stroke="black" points="111.5,-161.21 88,-161.21 88,-142.71 111.5,-142.71 111.5,-161.21"/>
<text text-anchor="middle" x="99.75" y="-148.66" font-family="Times,serif" font-size="9.00">&#45;4</text>
</g>
<!-- &#45;4&#45;&gt;133 -->
<g id="edge26" class="edge">
<title>&#45;4&#45;&gt;133</title>
<path fill="none" stroke="green" stroke-width="0.46" d="M111.6,-145.83C114.55,-144.69 117.73,-143.56 120.75,-142.71 208.94,-117.84 234.07,-125.5 323.75,-106.71 340.99,-103.1 360.13,-98.5 375.57,-94.63"/>
<polygon fill="green" stroke="green" stroke-width="0.46" points="376.1,-98.11 384.94,-92.27 374.39,-91.32 376.1,-98.11"/>
</g>
<!-- &#45;4&#45;&gt;135 -->
<g id="edge27" class="edge">
<title>&#45;4&#45;&gt;135</title>
<path fill="none" stroke="green" stroke-width="0.43" d="M111.7,-146.12C114.64,-144.97 117.8,-143.77 120.75,-142.71 170.44,-124.95 229.02,-106.56 263.68,-95.94"/>
<polygon fill="green" stroke="green" stroke-width="0.43" points="264.48,-99.36 273.02,-93.09 262.43,-92.66 264.48,-99.36"/>
</g>
<!-- &#45;5 -->
<g id="node5" class="node">
<title>&#45;5</title>
<polygon fill="lightgray" stroke="black" points="459.5,-161.21 436,-161.21 436,-142.71 459.5,-142.71 459.5,-161.21"/>
<text text-anchor="middle" x="447.75" y="-148.66" font-family="Times,serif" font-size="9.00">&#45;5</text>
</g>
<!-- &#45;5&#45;&gt;133 -->
<g id="edge32" class="edge">
<title>&#45;5&#45;&gt;133</title>
<path fill="none" stroke="green" stroke-width="0.21" d="M442.09,-142.31C437.05,-134.62 429.42,-122.98 422.45,-112.35"/>
<polygon fill="green" stroke="green" stroke-width="0.21" points="425.41,-110.47 417,-104.02 419.55,-114.3 425.41,-110.47"/>
</g>
<!-- &#45;5&#45;&gt;135 -->
<g id="edge34" class="edge">
<title>&#45;5&#45;&gt;135</title>
<path fill="none" stroke="red" stroke-width="0.3" d="M435.67,-145.93C411.46,-135.86 356.46,-112.96 322.48,-98.81"/>
<polygon fill="red" stroke="red" stroke-width="0.3" points="324.08,-95.68 313.5,-95.07 321.39,-102.15 324.08,-95.68"/>
</g>
<!-- 136 -->
<g id="node29" class="node">
<title>136</title>
<ellipse fill="white" stroke="black" cx="625.75" cy="-85.85" rx="20.86" ry="20.86"/>
<text text-anchor="middle" x="625.75" y="-82.55" font-family="Times,serif" font-size="9.00">136</text>
</g>
<!-- &#45;5&#45;&gt;136 -->
<g id="edge19" class="edge">
<title>&#45;5&#45;&gt;136</title>
<path fill="none" stroke="green" stroke-width="0.14" d="M459.68,-146.08C462.63,-144.92 465.79,-143.73 468.75,-142.71 521.37,-124.51 537.29,-127.98 588.75,-106.71 592.19,-105.29 595.72,-103.65 599.18,-101.93"/>
<polygon fill="green" stroke="green" stroke-width="0.14" points="600.62,-105.13 607.85,-97.39 597.37,-98.92 600.62,-105.13"/>
</g>
<!-- &#45;6 -->
<g id="node6" class="node">
<title>&#45;6</title>
<polygon fill="lightgray" stroke="black" points="731.5,-161.21 708,-161.21 708,-142.71 731.5,-142.71 731.5,-161.21"/>
<text text-anchor="middle" x="719.75" y="-148.66" font-family="Times,serif" font-size="9.00">&#45;6</text>
</g>
<!-- &#45;6&#45;&gt;134 -->
<g id="edge18" class="edge">
<title>&#45;6&#45;&gt;134</title>
<path fill="none" stroke="green" stroke-width="0.1" d="M707.79,-146.17C704.84,-145.02 701.69,-143.8 698.75,-142.71 653.29,-125.84 641.44,-122.95 595.75,-106.71 587.29,-103.71 578.12,-100.41 569.73,-97.38"/>
<polygon fill="green" stroke="green" stroke-width="0.1" points="571.07,-94.14 560.48,-94.03 568.69,-100.72 571.07,-94.14"/>
</g>
<!-- &#45;6&#45;&gt;136 -->
<g id="edge29" class="edge">
<title>&#45;6&#45;&gt;136</title>
<path fill="none" stroke="green" stroke-width="0.41" d="M707.84,-142.84C693.73,-133.21 669.8,-116.89 651.41,-104.35"/>
<polygon fill="green" stroke="green" stroke-width="0.41" points="653.38,-101.46 643.15,-98.72 649.44,-107.24 653.38,-101.46"/>
</g>
<!-- &#45;7 -->
<g id="node7" class="node">
<title>&#45;7</title>
<polygon fill="lightgray" stroke="black" points="241.5,-161.21 218,-161.21 218,-142.71 241.5,-142.71 241.5,-161.21"/>
<text text-anchor="middle" x="229.75" y="-148.66" font-family="Times,serif" font-size="9.00">&#45;7</text>
</g>
<!-- &#45;7&#45;&gt;133 -->
<g id="edge15" class="edge">
<title>&#45;7&#45;&gt;133</title>
<path fill="none" stroke="red" stroke-width="0.32" d="M241.72,-146.19C244.67,-145.03 247.82,-143.81 250.75,-142.71 294.28,-126.32 345.05,-108.21 376.3,-97.18"/>
<polygon fill="red" stroke="red" stroke-width="0.32" points="377.38,-100.51 385.65,-93.89 375.05,-93.91 377.38,-100.51"/>
</g>
<!-- &#45;8 -->
<g id="node8" class="node">
<title>&#45;8</title>
<polygon fill="lightgray" stroke="black" points="773.5,-161.21 750,-161.21 750,-142.71 773.5,-142.71 773.5,-161.21"/>
<text text-anchor="middle" x="761.75" y="-148.66" font-family="Times,serif" font-size="9.00">&#45;8</text>
</g>
<!-- &#45;9 -->
<g id="node9" class="node">
<title>&#45;9</title>
<polygon fill="lightgray" stroke="black" points="283.5,-161.21 260,-161.21 260,-142.71 283.5,-142.71 283.5,-161.21"/>
<text text-anchor="middle" x="271.75" y="-148.66" font-family="Times,serif" font-size="9.00">&#45;9</text>
</g>
<!-- &#45;9&#45;&gt;134 -->
<g id="edge8" class="edge">
<title>&#45;9&#45;&gt;134</title>
<path fill="none" stroke="red" stroke-width="0.3" d="M283.63,-145.93C286.58,-144.78 289.75,-143.63 292.75,-142.71 362.86,-121.24 382.23,-122.87 453.75,-106.71 472.65,-102.44 493.84,-97.6 510.58,-93.77"/>
<polygon fill="red" stroke="red" stroke-width="0.3" points="510.96,-97.28 519.93,-91.63 509.4,-90.45 510.96,-97.28"/>
</g>
<!-- &#45;9&#45;&gt;135 -->
<g id="edge7" class="edge">
<title>&#45;9&#45;&gt;135</title>
<path fill="none" stroke="red" stroke-width="0.2" d="M274.72,-142.31C277.07,-135.47 280.49,-125.48 283.79,-115.87"/>
<polygon fill="red" stroke="red" stroke-width="0.2" points="287.1,-117.01 287.04,-106.42 280.48,-114.74 287.1,-117.01"/>
</g>
<!-- &#45;10 -->
<g id="node10" class="node">
<title>&#45;10</title>
<polygon fill="lightgray" stroke="black" points="689.75,-161.21 661.75,-161.21 661.75,-142.71 689.75,-142.71 689.75,-161.21"/>
<text text-anchor="middle" x="675.75" y="-148.66" font-family="Times,serif" font-size="9.00">&#45;10</text>
</g>
<!-- &#45;10&#45;&gt;134 -->
<g id="edge3" class="edge">
<title>&#45;10&#45;&gt;134</title>
<path fill="none" stroke="red" stroke-width="0.22" d="M661.3,-144.1C639.28,-133.64 596.89,-113.51 568.71,-100.13"/>
<polygon fill="red" stroke="red" stroke-width="0.22" points="570.22,-96.97 559.69,-95.84 567.22,-103.29 570.22,-96.97"/>
</g>
<!-- &#45;10&#45;&gt;136 -->
<g id="edge28" class="edge">
<title>&#45;10&#45;&gt;136</title>
<path fill="none" stroke="green" stroke-width="0.14" d="M669.01,-142.31C662.76,-134.31 653.17,-122.01 644.61,-111.04"/>
<polygon fill="green" stroke="green" stroke-width="0.14" points="647.37,-108.89 638.47,-103.15 641.86,-113.19 647.37,-108.89"/>
</g>
<!-- &#45;11 -->
<g id="node11" class="node">
<title>&#45;11</title>
<polygon fill="lightgray" stroke="black" points="819.75,-161.21 791.75,-161.21 791.75,-142.71 819.75,-142.71 819.75,-161.21"/>
<text text-anchor="middle" x="805.75" y="-148.66" font-family="Times,serif" font-size="9.00">&#45;11</text>
</g>
<!-- &#45;12 -->
<g id="node12" class="node">
<title>&#45;12</title>
<polygon fill="lightgray" stroke="black" points="69.75,-161.21 41.75,-161.21 41.75,-142.71 69.75,-142.71 69.75,-161.21"/>
<text text-anchor="middle" x="55.75" y="-148.66" font-family="Times,serif" font-size="9.00">&#45;12</text>
</g>
<!-- &#45;12&#45;&gt;135 -->
<g id="edge16" class="edge">
<title>&#45;12&#45;&gt;135</title>
<path fill="none" stroke="green" stroke-width="0.48" d="M69.79,-145.7C72.74,-144.66 75.83,-143.61 78.75,-142.71 143.7,-122.67 221.13,-103.75 263.06,-93.9"/>
<polygon fill="green" stroke="green" stroke-width="0.48" points="263.77,-97.33 272.71,-91.65 262.18,-90.51 263.77,-97.33"/>
</g>
<!-- &#45;13 -->
<g id="node13" class="node">
<title>&#45;13</title>
<polygon fill="lightgray" stroke="black" points="865.75,-161.21 837.75,-161.21 837.75,-142.71 865.75,-142.71 865.75,-161.21"/>
<text text-anchor="middle" x="851.75" y="-148.66" font-family="Times,serif" font-size="9.00">&#45;13</text>
</g>
<!-- &#45;14 -->
<g id="node14" class="node">
<title>&#45;14</title>
<polygon fill="lightgray" stroke="black" points="329.75,-161.21 301.75,-161.21 301.75,-142.71 329.75,-142.71 329.75,-161.21"/>
<text text-anchor="middle" x="315.75" y="-148.66" font-family="Times,serif" font-size="9.00">&#45;14</text>
</g>
<!-- &#45;14&#45;&gt;134 -->
<g id="edge6" class="edge">
<title>&#45;14&#45;&gt;134</title>
<path fill="none" stroke="red" stroke-width="0.16" d="M329.8,-145.73C332.75,-144.69 335.84,-143.63 338.75,-142.71 399.24,-123.53 471.07,-104.55 510.71,-94.41"/>
<polygon fill="red" stroke="red" stroke-width="0.16" points="511.47,-97.83 520.29,-91.97 509.74,-91.05 511.47,-97.83"/>
</g>
<!-- &#45;14&#45;&gt;135 -->
<g id="edge17" class="edge">
<title>&#45;14&#45;&gt;135</title>
<path fill="none" stroke="green" stroke-width="0.4" d="M312.78,-142.31C310.43,-135.47 307.01,-125.48 303.71,-115.87"/>
<polygon fill="green" stroke="green" stroke-width="0.4" points="307.12,-115.02 300.56,-106.69 300.5,-117.29 307.12,-115.02"/>
</g>
<!-- &#45;15 -->
<g id="node15" class="node">
<title>&#45;15</title>
<polygon fill="lightgray" stroke="black" points="597.75,-161.21 569.75,-161.21 569.75,-142.71 597.75,-142.71 597.75,-161.21"/>
<text text-anchor="middle" x="583.75" y="-148.66" font-family="Times,serif" font-size="9.00">&#45;15</text>
</g>
<!-- &#45;15&#45;&gt;133 -->
<g id="edge11" class="edge">
<title>&#45;15&#45;&gt;133</title>
<path fill="none" stroke="red" stroke-width="0.23" d="M569.48,-145.82C540.4,-135.35 473.76,-111.34 435.05,-97.41"/>
<polygon fill="red" stroke="red" stroke-width="0.23" points="436.31,-94.14 425.71,-94.04 433.94,-100.72 436.31,-94.14"/>
</g>
<!-- &#45;15&#45;&gt;134 -->
<g id="edge35" class="edge">
<title>&#45;15&#45;&gt;134</title>
<path fill="none" stroke="red" stroke-width="0.46" d="M577.95,-142.31C572.79,-134.62 564.98,-122.98 557.85,-112.35"/>
<polygon fill="red" stroke="red" stroke-width="0.46" points="560.96,-110.69 552.48,-104.34 555.14,-114.59 560.96,-110.69"/>
</g>
<!-- &#45;16 -->
<g id="node16" class="node">
<title>&#45;16</title>
<polygon fill="lightgray" stroke="black" points="375.75,-161.21 347.75,-161.21 347.75,-142.71 375.75,-142.71 375.75,-161.21"/>
<text text-anchor="middle" x="361.75" y="-148.66" font-family="Times,serif" font-size="9.00">&#45;16</text>
</g>
<!-- &#45;16&#45;&gt;133 -->
<g id="edge24" class="edge">
<title>&#45;16&#45;&gt;133</title>
<path fill="none" stroke="green" stroke-width="0.1" d="M367.68,-142.31C373.01,-134.55 381.11,-122.75 388.47,-112.03"/>
<polygon fill="green" stroke="green" stroke-width="0.1" points="391.28,-114.11 394.06,-103.89 385.51,-110.15 391.28,-114.11"/>
</g>
<!-- &#45;16&#45;&gt;134 -->
<g id="edge41" class="edge">
<title>&#45;16&#45;&gt;134</title>
<path fill="none" stroke="green" stroke-width="0.13" d="M375.86,-145.9C378.8,-144.84 381.87,-143.74 384.75,-142.71 428.98,-126.86 480.27,-108.5 511.61,-97.28"/>
<polygon fill="green" stroke="green" stroke-width="0.13" points="512.62,-100.64 520.86,-93.97 510.26,-94.04 512.62,-100.64"/>
</g>
<!-- &#45;16&#45;&gt;135 -->
<g id="edge36" class="edge">
<title>&#45;16&#45;&gt;135</title>
<path fill="none" stroke="red" stroke-width="0.52" d="M352.58,-142.31C343.36,-133.62 328.79,-119.88 316.45,-108.25"/>
<polygon fill="red" stroke="red" stroke-width="0.52" points="319,-105.85 309.32,-101.53 314.2,-110.94 319,-105.85"/>
</g>
<!-- &#45;17 -->
<g id="node17" class="node">
<title>&#45;17</title>
<polygon fill="lightgray" stroke="black" points="505.75,-161.21 477.75,-161.21 477.75,-142.71 505.75,-142.71 505.75,-161.21"/>
<text text-anchor="middle" x="491.75" y="-148.66" font-family="Times,serif" font-size="9.00">&#45;17</text>
</g>
<!-- &#45;17&#45;&gt;133 -->
<g id="edge42" class="edge">
<title>&#45;17&#45;&gt;133</title>
<path fill="none" stroke="red" stroke-width="0.13" d="M480.15,-142.31C467.42,-132.83 446.62,-117.32 430.25,-105.11"/>
<polygon fill="red" stroke="red" stroke-width="0.13" points="432.42,-102.37 422.31,-99.2 428.24,-107.98 432.42,-102.37"/>
</g>
<!-- &#45;18 -->
<g id="node18" class="node">
<title>&#45;18</title>
<polygon fill="lightgray" stroke="black" points="643.75,-161.21 615.75,-161.21 615.75,-142.71 643.75,-142.71 643.75,-161.21"/>
<text text-anchor="middle" x="629.75" y="-148.66" font-family="Times,serif" font-size="9.00">&#45;18</text>
</g>
<!-- &#45;18&#45;&gt;133 -->
<g id="edge14" class="edge">
<title>&#45;18&#45;&gt;133</title>
<path fill="none" stroke="red" stroke-width="0.18" d="M615.7,-145.74C612.75,-144.69 609.66,-143.64 606.75,-142.71 546.71,-123.63 475.45,-104.69 435.95,-94.51"/>
<polygon fill="red" stroke="red" stroke-width="0.18" points="436.98,-91.16 426.42,-92.06 435.24,-97.94 436.98,-91.16"/>
</g>
<!-- &#45;18&#45;&gt;134 -->
<g id="edge9" class="edge">
<title>&#45;18&#45;&gt;134</title>
<path fill="none" stroke="red" stroke-width="0.18" d="M617.75,-142.31C604.37,-132.68 582.39,-116.84 565.33,-104.55"/>
<polygon fill="red" stroke="red" stroke-width="0.18" points="567.78,-102.01 557.62,-99 563.69,-107.69 567.78,-102.01"/>
</g>
<!-- &#45;18&#45;&gt;136 -->
<g id="edge33" class="edge">
<title>&#45;18&#45;&gt;136</title>
<path fill="none" stroke="green" stroke-width="0.2" d="M629.21,-142.31C628.8,-135.76 628.21,-126.33 627.64,-117.1"/>
<polygon fill="green" stroke="green" stroke-width="0.2" points="631.14,-116.99 627.02,-107.23 624.15,-117.43 631.14,-116.99"/>
</g>
<!-- &#45;19 -->
<g id="node19" class="node">
<title>&#45;19</title>
<polygon fill="lightgray" stroke="black" points="157.75,-161.21 129.75,-161.21 129.75,-142.71 157.75,-142.71 157.75,-161.21"/>
<text text-anchor="middle" x="143.75" y="-148.66" font-family="Times,serif" font-size="9.00">&#45;19</text>
</g>
<!-- &#45;19&#45;&gt;133 -->
<g id="edge20" class="edge">
<title>&#45;19&#45;&gt;133</title>
<path fill="none" stroke="red" stroke-width="0.41" d="M157.77,-145.63C160.72,-144.6 163.82,-143.57 166.75,-142.71 235.45,-122.59 254.07,-123.14 323.75,-106.71 340.89,-102.67 360.02,-98.04 375.49,-94.27"/>
<polygon fill="red" stroke="red" stroke-width="0.41" points="376.06,-97.74 384.94,-91.96 374.4,-90.94 376.06,-97.74"/>
</g>
<!-- &#45;19&#45;&gt;135 -->
<g id="edge23" class="edge">
<title>&#45;19&#45;&gt;135</title>
<path fill="none" stroke="red" stroke-width="0.14" d="M158.13,-144.81C182.72,-134.3 233.27,-112.7 265.23,-99.04"/>
<polygon fill="red" stroke="red" stroke-width="0.14" points="266.49,-102.31 274.31,-95.16 263.74,-95.87 266.49,-102.31"/>
</g>
<!-- &#45;20 -->
<g id="node20" class="node">
<title>&#45;20</title>
<polygon fill="lightgray" stroke="black" points="551.75,-161.21 523.75,-161.21 523.75,-142.71 551.75,-142.71 551.75,-161.21"/>
<text text-anchor="middle" x="537.75" y="-148.66" font-family="Times,serif" font-size="9.00">&#45;20</text>
</g>
<!-- &#45;20&#45;&gt;133 -->
<g id="edge5" class="edge">
<title>&#45;20&#45;&gt;133</title>
<path fill="none" stroke="red" stroke-width="0.24" d="M523.37,-143.98C501.85,-133.53 460.87,-113.62 433.42,-100.29"/>
<polygon fill="red" stroke="red" stroke-width="0.24" points="435.18,-97.25 424.66,-96.03 432.12,-103.55 435.18,-97.25"/>
</g>
<!-- &#45;20&#45;&gt;134 -->
<g id="edge10" class="edge">
<title>&#45;20&#45;&gt;134</title>
<path fill="none" stroke="green" stroke-width="0.1" d="M538.15,-142.31C538.46,-135.69 538.91,-126.13 539.35,-116.8"/>
<polygon fill="green" stroke="green" stroke-width="0.1" points="542.83,-117.24 539.8,-107.09 535.84,-116.91 542.83,-117.24"/>
</g>
<!-- 0 -->
<g id="node21" class="node">
<title>0</title>
<ellipse fill="lightblue" stroke="black" cx="554.75" cy="-14.5" rx="14.5" ry="14.5"/>
<text text-anchor="middle" x="554.75" y="-11.2" font-family="Times,serif" font-size="9.00">0</text>
</g>
<!-- 0&#45;&gt;0 -->
<g id="edge37" class="edge">
<title>0&#45;&gt;0</title>
<path fill="none" stroke="green" stroke-width="0.3" d="M565.07,-24.94C575.56,-31.08 587.25,-27.6 587.25,-14.5 587.25,-5.49 581.72,-1.03 574.86,-1.12"/>
<polygon fill="green" stroke="green" stroke-width="0.3" points="574.08,2.3 565.5,-3.92 576.09,-4.4 574.08,2.3"/>
</g>
<!-- 1 -->
<g id="node22" class="node">
<title>1</title>
<ellipse fill="lightblue" stroke="black" cx="418.75" cy="-14.5" rx="14.5" ry="14.5"/>
<text text-anchor="middle" x="418.75" y="-11.2" font-family="Times,serif" font-size="9.00">1</text>
</g>
<!-- 1&#45;&gt;1 -->
<g id="edge38" class="edge">
<title>1&#45;&gt;1</title>
<path fill="none" stroke="green" stroke-width="0.41" d="M429.07,-24.94C439.56,-31.08 451.25,-27.6 451.25,-14.5 451.25,-5.49 445.72,-1.03 438.86,-1.12"/>
<polygon fill="green" stroke="green" stroke-width="0.41" points="438.23,2.35 429.66,-3.88 440.25,-4.36 438.23,2.35"/>
</g>
<!-- 2 -->
<g id="node23" class="node">
<title>2</title>
<ellipse fill="lightblue" stroke="black" cx="317.75" cy="-14.5" rx="14.5" ry="14.5"/>
<text text-anchor="middle" x="317.75" y="-11.2" font-family="Times,serif" font-size="9.00">2</text>
</g>
<!-- 3 -->
<g id="node24" class="node">
<title>3</title>
<ellipse fill="lightblue" stroke="black" cx="625.75" cy="-14.5" rx="14.5" ry="14.5"/>
<text text-anchor="middle" x="625.75" y="-11.2" font-family="Times,serif" font-size="9.00">3</text>
</g>
<!-- 4 -->
<g id="node25" class="node">
<title>4</title>
<ellipse fill="lightblue" stroke="black" cx="270.75" cy="-14.5" rx="14.5" ry="14.5"/>
<text text-anchor="middle" x="270.75" y="-11.2" font-family="Times,serif" font-size="9.00">4</text>
</g>
<!-- 133&#45;&gt;133 -->
<g id="edge39" class="edge">
<title>133&#45;&gt;133</title>
<path fill="none" stroke="green" stroke-width="0.65" d="M423.33,-97.37C434.24,-100.15 444.61,-96.31 444.61,-85.85 444.61,-78.99 440.14,-74.97 433.99,-73.81"/>
<polygon fill="green" stroke="green" stroke-width="0.65" points="434.13,-70.3 424.31,-74.28 434.47,-77.29 434.13,-70.3"/>
</g>
<!-- 134&#45;&gt;0 -->
<g id="edge13" class="edge">
<title>134&#45;&gt;0</title>
<path fill="none" stroke="green" stroke-width="0.28" d="M544.72,-65.16C546.36,-57.05 548.27,-47.59 549.98,-39.11"/>
<polygon fill="green" stroke="green" stroke-width="0.28" points="553.38,-39.98 551.93,-29.48 546.52,-38.59 553.38,-39.98"/>
</g>
<!-- 134&#45;&gt;134 -->
<g id="edge25" class="edge">
<title>134&#45;&gt;134</title>
<path fill="none" stroke="green" stroke-width="0.24" d="M558.33,-97.37C569.24,-100.15 579.61,-96.31 579.61,-85.85 579.61,-78.82 574.93,-74.78 568.55,-73.73"/>
<polygon fill="green" stroke="green" stroke-width="0.24" points="568.48,-70.23 558.7,-74.31 568.89,-77.22 568.48,-70.23"/>
</g>
<!-- 135&#45;&gt;1 -->
<g id="edge31" class="edge">
<title>135&#45;&gt;1</title>
<path fill="none" stroke="green" stroke-width="0.28" d="M311.93,-74.77C334.54,-62.22 373.11,-40.82 397.19,-27.46"/>
<polygon fill="green" stroke="green" stroke-width="0.28" points="398.82,-30.56 405.86,-22.64 395.42,-24.44 398.82,-30.56"/>
</g>
<!-- 135&#45;&gt;2 -->
<g id="edge44" class="edge">
<title>135&#45;&gt;2</title>
<path fill="none" stroke="green" stroke-width="0.31" d="M300.31,-65.9C303.26,-57.37 306.77,-47.22 309.87,-38.28"/>
<polygon fill="green" stroke="green" stroke-width="0.31" points="313.13,-39.54 313.1,-28.94 306.52,-37.25 313.13,-39.54"/>
</g>
<!-- 135&#45;&gt;4 -->
<g id="edge43" class="edge">
<title>135&#45;&gt;4</title>
<path fill="none" stroke="green" stroke-width="0.31" d="M287.34,-65.53C284.58,-57.21 281.33,-47.41 278.45,-38.7"/>
<polygon fill="green" stroke="green" stroke-width="0.31" points="281.78,-37.63 275.31,-29.24 275.13,-39.83 281.78,-37.63"/>
</g>
<!-- 136&#45;&gt;0 -->
<g id="edge1" class="edge">
<title>136&#45;&gt;0</title>
<path fill="none" stroke="green" stroke-width="0.27" d="M611.04,-70.48C599.71,-59.41 584.02,-44.09 572.08,-32.43"/>
<polygon fill="green" stroke="green" stroke-width="0.27" points="574.75,-30.14 565.15,-25.66 569.86,-35.15 574.75,-30.14"/>
</g>
<!-- 136&#45;&gt;1 -->
<g id="edge12" class="edge">
<title>136&#45;&gt;1</title>
<path fill="none" stroke="green" stroke-width="0.2" d="M608.05,-74.38C602.05,-71.09 595.23,-67.64 588.75,-64.99 538.17,-44.32 475.86,-28.49 442.51,-20.75"/>
<polygon fill="green" stroke="green" stroke-width="0.2" points="443.57,-17.4 433.05,-18.59 442.02,-24.23 443.57,-17.4"/>
</g>
<!-- 136&#45;&gt;3 -->
<g id="edge21" class="edge">
<title>136&#45;&gt;3</title>
<path fill="none" stroke="red" stroke-width="0.21" d="M625.75,-64.79C625.75,-56.89 625.75,-47.75 625.75,-39.5"/>
<polygon fill="red" stroke="red" stroke-width="0.21" points="629.25,-39.67 625.75,-29.67 622.25,-39.67 629.25,-39.67"/>
</g>
</g>
</svg>
