<?xml version="1.0" encoding="UTF-8" standalone="no"?>
<!DOCTYPE svg PUBLIC "-//W3C//DTD SVG 1.1//EN"
 "http://www.w3.org/Graphics/SVG/1.1/DTD/svg11.dtd">
<!-- Generated by graphviz version 12.1.1 (20240910.0053)
 -->
<!-- Pages: 1 -->
<svg width="849pt" height="247pt"
 viewBox="0.00 0.00 849.28 246.93" xmlns="http://www.w3.org/2000/svg" xmlns:xlink="http://www.w3.org/1999/xlink">
<g id="graph0" class="graph" transform="scale(1 1) rotate(0) translate(4 242.93)">
<polygon fill="white" stroke="none" points="-4,4 -4,-242.93 845.28,-242.93 845.28,4 -4,4"/>
<!-- &#45;1 -->
<g id="node1" class="node">
<title>&#45;1</title>
<polygon fill="lightgray" stroke="black" points="248.03,-238.93 224.53,-238.93 224.53,-220.43 248.03,-220.43 248.03,-238.93"/>
<text text-anchor="middle" x="236.28" y="-226.38" font-family="Times,serif" font-size="9.00">&#45;1</text>
</g>
<!-- 193 -->
<g id="node26" class="node">
<title>193</title>
<ellipse fill="white" stroke="black" cx="272.28" cy="-85.85" rx="20.86" ry="20.86"/>
<text text-anchor="middle" x="272.28" y="-82.55" font-family="Times,serif" font-size="9.00">193</text>
</g>
<!-- &#45;1&#45;&gt;193 -->
<g id="edge6" class="edge">
<title>&#45;1&#45;&gt;193</title>
<path fill="none" stroke="red" stroke-width="0.18" d="M224.16,-228.42C169.49,-226.85 -49.01,-215.97 10.28,-142.71 39.04,-107.17 178.18,-93.27 241.18,-88.74"/>
<polygon fill="red" stroke="red" stroke-width="0.18" points="241.29,-92.24 251.03,-88.06 240.81,-85.25 241.29,-92.24"/>
</g>
<!-- 194 -->
<g id="node27" class="node">
<title>194</title>
<ellipse fill="white" stroke="black" cx="391.28" cy="-85.85" rx="20.86" ry="20.86"/>
<text text-anchor="middle" x="391.28" y="-82.55" font-family="Times,serif" font-size="9.00">194</text>
</g>
<!-- &#45;1&#45;&gt;194 -->
<g id="edge22" class="edge">
<title>&#45;1&#45;&gt;194</title>
<path fill="none" stroke="red" stroke-width="0.3" d="M238.71,-220.03C243.83,-203.18 257.2,-165.63 280.28,-142.71 303.18,-119.96 337.23,-104.72 361.57,-95.99"/>
<polygon fill="red" stroke="red" stroke-width="0.3" points="362.6,-99.34 370.92,-92.78 360.33,-92.71 362.6,-99.34"/>
</g>
<!-- 196 -->
<g id="node29" class="node">
<title>196</title>
<ellipse fill="white" stroke="black" cx="659.28" cy="-85.85" rx="20.86" ry="20.86"/>
<text text-anchor="middle" x="659.28" y="-82.55" font-family="Times,serif" font-size="9.00">196</text>
</g>
<!-- &#45;1&#45;&gt;196 -->
<g id="edge25" class="edge">
<title>&#45;1&#45;&gt;196</title>
<path fill="none" stroke="red" stroke-width="0.13" d="M248.52,-223.15C251.34,-222.08 254.37,-221.09 257.28,-220.43 312.58,-207.92 727.63,-225.91 766.28,-184.43 778.92,-170.86 775.89,-158.57 766.28,-142.71 749.69,-115.34 714.81,-100.75 689.37,-93.43"/>
<polygon fill="red" stroke="red" stroke-width="0.13" points="690.55,-90.12 679.99,-90.93 688.75,-96.88 690.55,-90.12"/>
</g>
<!-- 238 -->
<g id="node30" class="node">
<title>238</title>
<ellipse fill="white" stroke="black" cx="212.28" cy="-163.57" rx="20.86" ry="20.86"/>
<text text-anchor="middle" x="212.28" y="-160.27" font-family="Times,serif" font-size="9.00">238</text>
</g>
<!-- &#45;1&#45;&gt;238 -->
<g id="edge44" class="edge">
<title>&#45;1&#45;&gt;238</title>
<path fill="none" stroke="red" stroke-width="0.3" d="M233.04,-220.03C230.43,-213.06 226.6,-202.84 222.94,-193.07"/>
<polygon fill="red" stroke="red" stroke-width="0.3" points="226.34,-192.14 219.55,-184.01 219.78,-194.6 226.34,-192.14"/>
</g>
<!-- &#45;2 -->
<g id="node2" class="node">
<title>&#45;2</title>
<polygon fill="lightgray" stroke="black" points="43.03,-172.82 19.53,-172.82 19.53,-154.32 43.03,-154.32 43.03,-172.82"/>
<text text-anchor="middle" x="31.28" y="-160.27" font-family="Times,serif" font-size="9.00">&#45;2</text>
</g>
<!-- &#45;2&#45;&gt;193 -->
<g id="edge19" class="edge">
<title>&#45;2&#45;&gt;193</title>
<path fill="none" stroke="green" stroke-width="0.36" stroke-dasharray="1,5" d="M38.29,-154.17C42.06,-150.16 47,-145.61 52.28,-142.71 113.86,-108.82 196.44,-95.04 240.85,-89.8"/>
<polygon fill="green" stroke="green" stroke-width="0.36" points="241.19,-93.28 250.75,-88.7 240.42,-86.32 241.19,-93.28"/>
</g>
<!-- &#45;3 -->
<g id="node3" class="node">
<title>&#45;3</title>
<polygon fill="lightgray" stroke="black" points="715.03,-172.82 691.53,-172.82 691.53,-154.32 715.03,-154.32 715.03,-172.82"/>
<text text-anchor="middle" x="703.28" y="-160.27" font-family="Times,serif" font-size="9.00">&#45;3</text>
</g>
<!-- 195 -->
<g id="node28" class="node">
<title>195</title>
<ellipse fill="white" stroke="black" cx="545.28" cy="-85.85" rx="20.86" ry="20.86"/>
<text text-anchor="middle" x="545.28" y="-82.55" font-family="Times,serif" font-size="9.00">195</text>
</g>
<!-- &#45;3&#45;&gt;195 -->
<g id="edge16" class="edge">
<title>&#45;3&#45;&gt;195</title>
<path fill="none" stroke="green" stroke-width="0.24" d="M695.7,-154.08C691.94,-150.24 687.17,-145.86 682.28,-142.71 648.24,-120.78 604.17,-104.68 575.33,-95.54"/>
<polygon fill="green" stroke="green" stroke-width="0.24" points="576.39,-92.2 565.8,-92.6 574.32,-98.89 576.39,-92.2"/>
</g>
<!-- &#45;3&#45;&gt;196 -->
<g id="edge26" class="edge">
<title>&#45;3&#45;&gt;196</title>
<path fill="none" stroke="green" stroke-width="0.49" d="M698.23,-153.88C692.49,-144.01 682.84,-127.4 674.59,-113.19"/>
<polygon fill="green" stroke="green" stroke-width="0.49" points="677.84,-111.82 669.79,-104.94 671.78,-115.34 677.84,-111.82"/>
</g>
<!-- &#45;4 -->
<g id="node4" class="node">
<title>&#45;4</title>
<polygon fill="lightgray" stroke="black" points="447.03,-172.82 423.53,-172.82 423.53,-154.32 447.03,-154.32 447.03,-172.82"/>
<text text-anchor="middle" x="435.28" y="-160.27" font-family="Times,serif" font-size="9.00">&#45;4</text>
</g>
<!-- &#45;4&#45;&gt;194 -->
<g id="edge7" class="edge">
<title>&#45;4&#45;&gt;194</title>
<path fill="none" stroke="green" stroke-width="0.18" d="M430.23,-153.88C424.44,-143.91 414.66,-127.09 406.35,-112.79"/>
<polygon fill="green" stroke="green" stroke-width="0.18" points="409.6,-111.42 401.55,-104.54 403.55,-114.94 409.6,-111.42"/>
</g>
<!-- &#45;4&#45;&gt;195 -->
<g id="edge1" class="edge">
<title>&#45;4&#45;&gt;195</title>
<path fill="none" stroke="red" stroke-width="0.21" d="M443.52,-154.05C447.26,-150.38 451.83,-146.15 456.28,-142.71 476.05,-127.4 500.17,-112.46 518.31,-101.9"/>
<polygon fill="red" stroke="red" stroke-width="0.21" points="519.99,-104.97 526.92,-96.95 516.51,-98.9 519.99,-104.97"/>
</g>
<!-- &#45;5 -->
<g id="node5" class="node">
<title>&#45;5</title>
<polygon fill="lightgray" stroke="black" points="757.03,-172.82 733.53,-172.82 733.53,-154.32 757.03,-154.32 757.03,-172.82"/>
<text text-anchor="middle" x="745.28" y="-160.27" font-family="Times,serif" font-size="9.00">&#45;5</text>
</g>
<!-- &#45;5&#45;&gt;195 -->
<g id="edge37" class="edge">
<title>&#45;5&#45;&gt;195</title>
<path fill="none" stroke="green" stroke-width="0.2" d="M737.81,-153.89C734.08,-150.01 729.3,-145.65 724.28,-142.71 698.79,-127.78 619.51,-105.95 575.49,-94.5"/>
<polygon fill="green" stroke="green" stroke-width="0.2" points="576.48,-91.14 565.92,-92.04 574.73,-97.92 576.48,-91.14"/>
</g>
<!-- &#45;5&#45;&gt;196 -->
<g id="edge12" class="edge">
<title>&#45;5&#45;&gt;196</title>
<path fill="none" stroke="red" stroke-width="0.17" d="M736.37,-153.97C732.67,-150.44 728.3,-146.34 724.28,-142.71 710.68,-130.45 695.14,-117.07 682.66,-106.48"/>
<polygon fill="red" stroke="red" stroke-width="0.17" points="685.04,-103.91 675.15,-100.13 680.52,-109.26 685.04,-103.91"/>
</g>
<!-- &#45;6 -->
<g id="node6" class="node">
<title>&#45;6</title>
<polygon fill="lightgray" stroke="black" points="85.03,-172.82 61.53,-172.82 61.53,-154.32 85.03,-154.32 85.03,-172.82"/>
<text text-anchor="middle" x="73.28" y="-160.27" font-family="Times,serif" font-size="9.00">&#45;6</text>
</g>
<!-- &#45;6&#45;&gt;193 -->
<g id="edge18" class="edge">
<title>&#45;6&#45;&gt;193</title>
<path fill="none" stroke="green" stroke-width="0.12" d="M80.75,-153.89C84.48,-150.01 89.26,-145.66 94.28,-142.71 141.89,-114.76 205.03,-99.26 241.89,-92.03"/>
<polygon fill="green" stroke="green" stroke-width="0.12" points="242.21,-95.53 251.39,-90.24 240.91,-88.65 242.21,-95.53"/>
</g>
<!-- &#45;7 -->
<g id="node7" class="node">
<title>&#45;7</title>
<polygon fill="lightgray" stroke="black" points="535.03,-172.82 511.53,-172.82 511.53,-154.32 535.03,-154.32 535.03,-172.82"/>
<text text-anchor="middle" x="523.28" y="-160.27" font-family="Times,serif" font-size="9.00">&#45;7</text>
</g>
<!-- &#45;7&#45;&gt;194 -->
<g id="edge24" class="edge">
<title>&#45;7&#45;&gt;194</title>
<path fill="none" stroke="red" stroke-width="0.16" d="M515.19,-153.85C511.47,-150.14 506.88,-145.94 502.28,-142.71 476.16,-124.39 443.18,-108.59 419.98,-98.52"/>
<polygon fill="red" stroke="red" stroke-width="0.16" points="421.48,-95.35 410.9,-94.66 418.73,-101.8 421.48,-95.35"/>
</g>
<!-- &#45;7&#45;&gt;195 -->
<g id="edge33" class="edge">
<title>&#45;7&#45;&gt;195</title>
<path fill="none" stroke="green" stroke-width="0.28" d="M525.8,-153.88C528.46,-144.72 532.81,-129.77 536.72,-116.32"/>
<polygon fill="green" stroke="green" stroke-width="0.28" points="540.04,-117.43 539.47,-106.85 533.32,-115.48 540.04,-117.43"/>
</g>
<!-- &#45;7&#45;&gt;196 -->
<g id="edge31" class="edge">
<title>&#45;7&#45;&gt;196</title>
<path fill="none" stroke="green" stroke-width="0.47" d="M531.35,-153.82C535.06,-150.11 539.65,-145.91 544.28,-142.71 571.6,-123.83 606.27,-107.93 630.36,-97.99"/>
<polygon fill="green" stroke="green" stroke-width="0.47" points="631.37,-101.36 639.33,-94.37 628.74,-94.87 631.37,-101.36"/>
</g>
<!-- &#45;8 -->
<g id="node8" class="node">
<title>&#45;8</title>
<polygon fill="lightgray" stroke="black" points="127.03,-172.82 103.53,-172.82 103.53,-154.32 127.03,-154.32 127.03,-172.82"/>
<text text-anchor="middle" x="115.28" y="-160.27" font-family="Times,serif" font-size="9.00">&#45;8</text>
</g>
<!-- &#45;8&#45;&gt;193 -->
<g id="edge38" class="edge">
<title>&#45;8&#45;&gt;193</title>
<path fill="none" stroke="red" stroke-width="0.13" d="M122.86,-154.08C126.62,-150.24 131.39,-145.87 136.28,-142.71 170.22,-120.78 214.2,-104.61 242.82,-95.46"/>
<polygon fill="red" stroke="red" stroke-width="0.13" points="243.57,-98.89 252.08,-92.58 241.49,-92.21 243.57,-98.89"/>
</g>
<!-- &#45;9 -->
<g id="node9" class="node">
<title>&#45;9</title>
<polygon fill="lightgray" stroke="black" points="313.03,-172.82 289.53,-172.82 289.53,-154.32 313.03,-154.32 313.03,-172.82"/>
<text text-anchor="middle" x="301.28" y="-160.27" font-family="Times,serif" font-size="9.00">&#45;9</text>
</g>
<!-- &#45;9&#45;&gt;194 -->
<g id="edge39" class="edge">
<title>&#45;9&#45;&gt;194</title>
<path fill="none" stroke="green" stroke-width="0.51" d="M310.13,-153.91C313.82,-150.37 318.2,-146.28 322.28,-142.71 336.74,-130.05 353.48,-116.47 366.85,-105.87"/>
<polygon fill="green" stroke="green" stroke-width="0.51" points="368.8,-108.79 374.49,-99.86 364.47,-103.3 368.8,-108.79"/>
</g>
<!-- &#45;10 -->
<g id="node10" class="node">
<title>&#45;10</title>
<polygon fill="lightgray" stroke="black" points="673.28,-172.82 645.28,-172.82 645.28,-154.32 673.28,-154.32 673.28,-172.82"/>
<text text-anchor="middle" x="659.28" y="-160.27" font-family="Times,serif" font-size="9.00">&#45;10</text>
</g>
<!-- &#45;10&#45;&gt;194 -->
<g id="edge5" class="edge">
<title>&#45;10&#45;&gt;194</title>
<path fill="none" stroke="red" stroke-width="0.21" d="M651.48,-154.13C647.33,-150.11 641.93,-145.57 636.28,-142.71 598.71,-123.71 478.55,-101.61 421.67,-91.88"/>
<polygon fill="red" stroke="red" stroke-width="0.21" points="422.58,-88.49 412.13,-90.27 421.41,-95.39 422.58,-88.49"/>
</g>
<!-- &#45;10&#45;&gt;195 -->
<g id="edge21" class="edge">
<title>&#45;10&#45;&gt;195</title>
<path fill="none" stroke="red" stroke-width="0.18" d="M650.16,-154.1C646.05,-150.44 641.05,-146.2 636.28,-142.71 615.54,-127.55 590.59,-112.43 572.06,-101.75"/>
<polygon fill="red" stroke="red" stroke-width="0.18" points="573.92,-98.79 563.5,-96.88 570.46,-104.87 573.92,-98.79"/>
</g>
<!-- &#45;10&#45;&gt;196 -->
<g id="edge35" class="edge">
<title>&#45;10&#45;&gt;196</title>
<path fill="none" stroke="green" stroke-width="0.19" d="M659.28,-153.88C659.28,-144.93 659.28,-130.46 659.28,-117.26"/>
<polygon fill="green" stroke="green" stroke-width="0.19" points="662.78,-117.36 659.28,-107.36 655.78,-117.36 662.78,-117.36"/>
</g>
<!-- &#45;11 -->
<g id="node11" class="node">
<title>&#45;11</title>
<polygon fill="lightgray" stroke="black" points="294.28,-238.93 266.28,-238.93 266.28,-220.43 294.28,-220.43 294.28,-238.93"/>
<text text-anchor="middle" x="280.28" y="-226.38" font-family="Times,serif" font-size="9.00">&#45;11</text>
</g>
<!-- &#45;12 -->
<g id="node12" class="node">
<title>&#45;12</title>
<polygon fill="lightgray" stroke="black" points="359.28,-172.82 331.28,-172.82 331.28,-154.32 359.28,-154.32 359.28,-172.82"/>
<text text-anchor="middle" x="345.28" y="-160.27" font-family="Times,serif" font-size="9.00">&#45;12</text>
</g>
<!-- &#45;12&#45;&gt;193 -->
<g id="edge32" class="edge">
<title>&#45;12&#45;&gt;193</title>
<path fill="none" stroke="green" stroke-width="0.41" d="M336.9,-153.88C326.44,-143.03 308.16,-124.07 293.71,-109.08"/>
<polygon fill="green" stroke="green" stroke-width="0.41" points="296.45,-106.88 286.99,-102.11 291.41,-111.74 296.45,-106.88"/>
</g>
<!-- &#45;12&#45;&gt;195 -->
<g id="edge36" class="edge">
<title>&#45;12&#45;&gt;195</title>
<path fill="none" stroke="red" stroke-width="0.34" d="M353.6,-153.92C357.71,-150.05 362.93,-145.69 368.28,-142.71 415.91,-116.13 477.95,-100.28 514.51,-92.59"/>
<polygon fill="red" stroke="red" stroke-width="0.34" points="514.95,-96.07 524.05,-90.65 513.56,-89.21 514.95,-96.07"/>
</g>
<!-- &#45;13 -->
<g id="node13" class="node">
<title>&#45;13</title>
<polygon fill="lightgray" stroke="black" points="405.28,-172.82 377.28,-172.82 377.28,-154.32 405.28,-154.32 405.28,-172.82"/>
<text text-anchor="middle" x="391.28" y="-160.27" font-family="Times,serif" font-size="9.00">&#45;13</text>
</g>
<!-- &#45;13&#45;&gt;193 -->
<g id="edge10" class="edge">
<title>&#45;13&#45;&gt;193</title>
<path fill="none" stroke="green" stroke-width="0.43" d="M382.2,-154.05C378.09,-150.37 373.09,-146.14 368.28,-142.71 346.25,-127 319.54,-111.73 299.88,-101.14"/>
<polygon fill="green" stroke="green" stroke-width="0.43" points="301.64,-98.11 291.17,-96.5 298.35,-104.29 301.64,-98.11"/>
</g>
<!-- &#45;13&#45;&gt;194 -->
<g id="edge30" class="edge">
<title>&#45;13&#45;&gt;194</title>
<path fill="none" stroke="red" stroke-width="0.22" stroke-dasharray="1,5" d="M391.28,-153.88C391.28,-144.93 391.28,-130.46 391.28,-117.26"/>
<polygon fill="red" stroke="red" stroke-width="0.22" points="394.78,-117.4 391.28,-107.4 387.78,-117.4 394.78,-117.4"/>
</g>
<!-- &#45;13&#45;&gt;195 -->
<g id="edge40" class="edge">
<title>&#45;13&#45;&gt;195</title>
<path fill="none" stroke="green" stroke-width="0.33" d="M399.73,-154.15C403.88,-150.33 409.08,-145.95 414.28,-142.71 446.83,-122.41 488.05,-106.19 515.47,-96.57"/>
<polygon fill="green" stroke="green" stroke-width="0.33" points="516.47,-99.93 524.79,-93.37 514.2,-93.31 516.47,-99.93"/>
</g>
<!-- &#45;14 -->
<g id="node14" class="node">
<title>&#45;14</title>
<polygon fill="lightgray" stroke="black" points="581.28,-172.82 553.28,-172.82 553.28,-154.32 581.28,-154.32 581.28,-172.82"/>
<text text-anchor="middle" x="567.28" y="-160.27" font-family="Times,serif" font-size="9.00">&#45;14</text>
</g>
<!-- &#45;14&#45;&gt;195 -->
<g id="edge27" class="edge">
<title>&#45;14&#45;&gt;195</title>
<path fill="none" stroke="red" stroke-width="0.36" d="M564.75,-153.88C562.09,-144.72 557.75,-129.77 553.84,-116.32"/>
<polygon fill="red" stroke="red" stroke-width="0.36" points="557.27,-115.59 551.12,-106.96 550.55,-117.54 557.27,-115.59"/>
</g>
<!-- &#45;15 -->
<g id="node15" class="node">
<title>&#45;15</title>
<polygon fill="lightgray" stroke="black" points="841.28,-172.82 813.28,-172.82 813.28,-154.32 841.28,-154.32 841.28,-172.82"/>
<text text-anchor="middle" x="827.28" y="-160.27" font-family="Times,serif" font-size="9.00">&#45;15</text>
</g>
<!-- &#45;15&#45;&gt;196 -->
<g id="edge29" class="edge">
<title>&#45;15&#45;&gt;196</title>
<path fill="none" stroke="red" stroke-width="0.24" d="M816.5,-154.01C811.45,-150.25 805.25,-145.96 799.28,-142.71 762.68,-122.8 717.45,-106.05 688.48,-96.23"/>
<polygon fill="red" stroke="red" stroke-width="0.24" points="689.89,-93.01 679.3,-93.16 687.68,-99.65 689.89,-93.01"/>
</g>
<!-- &#45;16 -->
<g id="node16" class="node">
<title>&#45;16</title>
<polygon fill="lightgray" stroke="black" points="340.28,-238.93 312.28,-238.93 312.28,-220.43 340.28,-220.43 340.28,-238.93"/>
<text text-anchor="middle" x="326.28" y="-226.38" font-family="Times,serif" font-size="9.00">&#45;16</text>
</g>
<!-- &#45;17 -->
<g id="node17" class="node">
<title>&#45;17</title>
<polygon fill="lightgray" stroke="black" points="173.28,-172.82 145.28,-172.82 145.28,-154.32 173.28,-154.32 173.28,-172.82"/>
<text text-anchor="middle" x="159.28" y="-160.27" font-family="Times,serif" font-size="9.00">&#45;17</text>
</g>
<!-- &#45;17&#45;&gt;193 -->
<g id="edge9" class="edge">
<title>&#45;17&#45;&gt;193</title>
<path fill="none" stroke="green" stroke-width="0.21" stroke-dasharray="1,5" d="M168.4,-154.11C172.52,-150.45 177.52,-146.21 182.28,-142.71 202.59,-127.78 226.96,-112.82 245.22,-102.14"/>
<polygon fill="green" stroke="green" stroke-width="0.21" points="246.97,-105.17 253.87,-97.14 243.46,-99.11 246.97,-105.17"/>
</g>
<!-- &#45;18 -->
<g id="node18" class="node">
<title>&#45;18</title>
<polygon fill="lightgray" stroke="black" points="386.28,-238.93 358.28,-238.93 358.28,-220.43 386.28,-220.43 386.28,-238.93"/>
<text text-anchor="middle" x="372.28" y="-226.38" font-family="Times,serif" font-size="9.00">&#45;18</text>
</g>
<!-- &#45;19 -->
<g id="node19" class="node">
<title>&#45;19</title>
<polygon fill="lightgray" stroke="black" points="493.28,-172.82 465.28,-172.82 465.28,-154.32 493.28,-154.32 493.28,-172.82"/>
<text text-anchor="middle" x="479.28" y="-160.27" font-family="Times,serif" font-size="9.00">&#45;19</text>
</g>
<!-- &#45;19&#45;&gt;193 -->
<g id="edge3" class="edge">
<title>&#45;19&#45;&gt;193</title>
<path fill="none" stroke="green" stroke-width="0.36" d="M470.97,-153.9C466.86,-150.02 461.64,-145.66 456.28,-142.71 429.61,-128.02 347.55,-105.91 302.56,-94.41"/>
<polygon fill="green" stroke="green" stroke-width="0.36" points="303.58,-91.06 293.03,-91.99 301.86,-97.84 303.58,-91.06"/>
</g>
<!-- &#45;19&#45;&gt;195 -->
<g id="edge11" class="edge">
<title>&#45;19&#45;&gt;195</title>
<path fill="none" stroke="red" stroke-width="0.19" d="M486.85,-153.88C496.19,-143.17 512.43,-124.53 525.42,-109.63"/>
<polygon fill="red" stroke="red" stroke-width="0.19" points="527.74,-112.29 531.68,-102.45 522.47,-107.69 527.74,-112.29"/>
</g>
<!-- &#45;19&#45;&gt;196 -->
<g id="edge4" class="edge">
<title>&#45;19&#45;&gt;196</title>
<path fill="none" stroke="red" stroke-width="0.27" d="M487.64,-154.01C491.77,-150.15 496.99,-145.79 502.28,-142.71 543.34,-118.81 596.33,-102.59 629.05,-94.03"/>
<polygon fill="red" stroke="red" stroke-width="0.27" points="629.68,-97.48 638.51,-91.62 627.96,-90.69 629.68,-97.48"/>
</g>
<!-- &#45;20 -->
<g id="node20" class="node">
<title>&#45;20</title>
<polygon fill="lightgray" stroke="black" points="627.28,-172.82 599.28,-172.82 599.28,-154.32 627.28,-154.32 627.28,-172.82"/>
<text text-anchor="middle" x="613.28" y="-160.27" font-family="Times,serif" font-size="9.00">&#45;20</text>
</g>
<!-- &#45;20&#45;&gt;195 -->
<g id="edge43" class="edge">
<title>&#45;20&#45;&gt;195</title>
<path fill="none" stroke="red" stroke-width="0.16" d="M605.48,-153.88C595.79,-143.1 578.91,-124.3 565.49,-109.35"/>
<polygon fill="red" stroke="red" stroke-width="0.16" points="568.29,-107.24 559,-102.13 563.08,-111.91 568.29,-107.24"/>
</g>
<!-- 0 -->
<g id="node21" class="node">
<title>0</title>
<ellipse fill="lightblue" stroke="black" cx="659.28" cy="-14.5" rx="14.5" ry="14.5"/>
<text text-anchor="middle" x="659.28" y="-11.2" font-family="Times,serif" font-size="9.00">0</text>
</g>
<!-- 0&#45;&gt;0 -->
<g id="edge15" class="edge">
<title>0&#45;&gt;0</title>
<path fill="none" stroke="red" stroke-width="0.11" d="M669.59,-24.94C680.09,-31.08 691.77,-27.6 691.77,-14.5 691.77,-5.28 686,-0.83 678.92,-1.13"/>
<polygon fill="red" stroke="red" stroke-width="0.11" points="678.24,2.32 669.75,-4.01 680.34,-4.35 678.24,2.32"/>
</g>
<!-- 1 -->
<g id="node22" class="node">
<title>1</title>
<ellipse fill="lightblue" stroke="black" cx="358.28" cy="-14.5" rx="14.5" ry="14.5"/>
<text text-anchor="middle" x="358.28" y="-11.2" font-family="Times,serif" font-size="9.00">1</text>
</g>
<!-- 2 -->
<g id="node23" class="node">
<title>2</title>
<ellipse fill="lightblue" stroke="black" cx="305.28" cy="-14.5" rx="14.5" ry="14.5"/>
<text text-anchor="middle" x="305.28" y="-11.2" font-family="Times,serif" font-size="9.00">2</text>
</g>
<!-- 3 -->
<g id="node24" class="node">
<title>3</title>
<ellipse fill="lightblue" stroke="black" cx="503.28" cy="-14.5" rx="14.5" ry="14.5"/>
<text text-anchor="middle" x="503.28" y="-11.2" font-family="Times,serif" font-size="9.00">3</text>
</g>
<!-- 4 -->
<g id="node25" class="node">
<title>4</title>
<ellipse fill="lightblue" stroke="black" cx="591.28" cy="-14.5" rx="14.5" ry="14.5"/>
<text text-anchor="middle" x="591.28" y="-11.2" font-family="Times,serif" font-size="9.00">4</text>
</g>
<!-- 193&#45;&gt;1 -->
<g id="edge20" class="edge">
<title>193&#45;&gt;1</title>
<path fill="none" stroke="green" stroke-width="0.16" d="M288.05,-72.13C302.53,-60.45 324.02,-43.12 339.41,-30.71"/>
<polygon fill="green" stroke="green" stroke-width="0.16" points="341.47,-33.55 347.05,-24.55 337.07,-28.1 341.47,-33.55"/>
</g>
<!-- 193&#45;&gt;2 -->
<g id="edge13" class="edge">
<title>193&#45;&gt;2</title>
<path fill="none" stroke="red" stroke-width="0.24" d="M280.95,-66.63C285.26,-57.57 290.49,-46.57 295,-37.09"/>
<polygon fill="red" stroke="red" stroke-width="0.24" points="298.07,-38.78 299.21,-28.25 291.75,-35.77 298.07,-38.78"/>
</g>
<!-- 193&#45;&gt;3 -->
<g id="edge41" class="edge">
<title>193&#45;&gt;3</title>
<path fill="none" stroke="green" stroke-width="0.32" d="M292.37,-78.82C334.95,-66.03 434.07,-36.27 479.62,-22.6"/>
<polygon fill="green" stroke="green" stroke-width="0.32" points="480.45,-26 489.02,-19.78 478.44,-19.3 480.45,-26"/>
</g>
<!-- 194&#45;&gt;1 -->
<g id="edge23" class="edge">
<title>194&#45;&gt;1</title>
<path fill="none" stroke="green" stroke-width="0.16" d="M382.61,-66.63C378.3,-57.57 373.06,-46.57 368.55,-37.09"/>
<polygon fill="green" stroke="green" stroke-width="0.16" points="371.75,-35.66 364.29,-28.13 365.43,-38.67 371.75,-35.66"/>
</g>
<!-- 194&#45;&gt;2 -->
<g id="edge2" class="edge">
<title>194&#45;&gt;2</title>
<path fill="none" stroke="red" stroke-width="0.76" d="M375.5,-72.13C361.15,-60.56 339.93,-43.44 324.58,-31.06"/>
<polygon fill="red" stroke="red" stroke-width="0.76" points="327.19,-28.67 317.2,-25.11 322.79,-34.12 327.19,-28.67"/>
</g>
<!-- 194&#45;&gt;3 -->
<g id="edge17" class="edge">
<title>194&#45;&gt;3</title>
<path fill="none" stroke="green" stroke-width="0.3" d="M408.78,-74.01C428.62,-61.72 460.98,-41.69 482.2,-28.55"/>
<polygon fill="green" stroke="green" stroke-width="0.3" points="484.03,-31.53 490.69,-23.29 480.34,-25.58 484.03,-31.53"/>
</g>
<!-- 195&#45;&gt;3 -->
<g id="edge34" class="edge">
<title>195&#45;&gt;3</title>
<path fill="none" stroke="green" stroke-width="0.21" d="M534.68,-67.35C528.87,-57.76 521.65,-45.84 515.6,-35.84"/>
<polygon fill="green" stroke="green" stroke-width="0.21" points="518.77,-34.33 510.6,-27.59 512.79,-37.96 518.77,-34.33"/>
</g>
<!-- 195&#45;&gt;4 -->
<g id="edge42" class="edge">
<title>195&#45;&gt;4</title>
<path fill="none" stroke="green" stroke-width="0.26" d="M556.41,-68.06C562.91,-58.26 571.15,-45.84 577.99,-35.53"/>
<polygon fill="green" stroke="green" stroke-width="0.26" points="580.72,-37.74 583.33,-27.47 574.89,-33.87 580.72,-37.74"/>
</g>
<!-- 196&#45;&gt;0 -->
<g id="edge28" class="edge">
<title>196&#45;&gt;0</title>
<path fill="none" stroke="green" stroke-width="0.16" d="M659.28,-64.79C659.28,-56.89 659.28,-47.75 659.28,-39.5"/>
<polygon fill="green" stroke="green" stroke-width="0.16" points="662.78,-39.6 659.28,-29.6 655.78,-39.6 662.78,-39.6"/>
</g>
<!-- 196&#45;&gt;3 -->
<g id="edge8" class="edge">
<title>196&#45;&gt;3</title>
<path fill="none" stroke="red" stroke-width="0.31" d="M640.46,-76.49C611.63,-63.67 556.63,-39.21 525.74,-25.48"/>
<polygon fill="red" stroke="red" stroke-width="0.31" points="527.25,-22.32 516.69,-21.46 524.41,-28.72 527.25,-22.32"/>
</g>
<!-- 196&#45;&gt;4 -->
<g id="edge14" class="edge">
<title>196&#45;&gt;4</title>
<path fill="none" stroke="green" stroke-width="0.3" d="M644.86,-70.14C634.09,-59.16 619.34,-44.12 608.04,-32.6"/>
<polygon fill="green" stroke="green" stroke-width="0.3" points="610.69,-30.29 601.19,-25.6 605.69,-35.19 610.69,-30.29"/>
</g>
<!-- 238&#45;&gt;193 -->
<g id="edge45" class="edge">
<title>238&#45;&gt;193</title>
<path fill="none" stroke="red" stroke-width="0.16" stroke-dasharray="1,5" d="M225,-146.51C233.27,-136.07 244.21,-122.28 253.47,-110.58"/>
<polygon fill="red" stroke="red" stroke-width="0.16" points="255.96,-113.08 259.42,-103.07 250.47,-108.74 255.96,-113.08"/>
</g>
</g>
</svg>
