<?xml version="1.0" encoding="UTF-8" standalone="no"?>
<!DOCTYPE svg PUBLIC "-//W3C//DTD SVG 1.1//EN"
 "http://www.w3.org/Graphics/SVG/1.1/DTD/svg11.dtd">
<!-- Generated by graphviz version 12.1.1 (20240910.0053)
 -->
<!-- Pages: 1 -->
<svg width="1132pt" height="483pt"
 viewBox="0.00 0.00 1132.22 482.86" xmlns="http://www.w3.org/2000/svg" xmlns:xlink="http://www.w3.org/1999/xlink">
<g id="graph0" class="graph" transform="scale(1 1) rotate(0) translate(4 478.86)">
<polygon fill="white" stroke="none" points="-4,4 -4,-478.86 1128.22,-478.86 1128.22,4 -4,4"/>
<!-- &#45;1 -->
<g id="node1" class="node">
<title>&#45;1</title>
<polygon fill="lightgray" stroke="black" points="424.97,-469.62 401.47,-469.62 401.47,-451.12 424.97,-451.12 424.97,-469.62"/>
<text text-anchor="middle" x="413.22" y="-457.07" font-family="Times,serif" font-size="9.00">&#45;1</text>
</g>
<!-- &#45;2 -->
<g id="node2" class="node">
<title>&#45;2</title>
<polygon fill="lightgray" stroke="black" points="90.97,-301.45 67.47,-301.45 67.47,-282.95 90.97,-282.95 90.97,-301.45"/>
<text text-anchor="middle" x="79.22" y="-288.9" font-family="Times,serif" font-size="9.00">&#45;2</text>
</g>
<!-- 2 -->
<g id="node23" class="node">
<title>2</title>
<ellipse fill="lightblue" stroke="black" cx="87.22" cy="-201.75" rx="14.5" ry="14.5"/>
<text text-anchor="middle" x="87.22" y="-198.45" font-family="Times,serif" font-size="9.00">2</text>
</g>
<!-- &#45;2&#45;&gt;2 -->
<g id="edge12" class="edge">
<title>&#45;2&#45;&gt;2</title>
<path fill="none" stroke="red" stroke-width="0.49" d="M79.99,-282.72C81.14,-270.05 83.34,-245.67 85.02,-227.15"/>
<polygon fill="red" stroke="red" stroke-width="0.49" points="88.5,-227.54 85.91,-217.26 81.52,-226.91 88.5,-227.54"/>
</g>
<!-- 11449 -->
<g id="node32" class="node">
<title>11449</title>
<ellipse fill="white" stroke="black" cx="27.22" cy="-201.75" rx="27.22" ry="27.22"/>
<text text-anchor="middle" x="27.22" y="-198.45" font-family="Times,serif" font-size="9.00">11449</text>
</g>
<!-- &#45;2&#45;&gt;11449 -->
<g id="edge51" class="edge">
<title>&#45;2&#45;&gt;11449</title>
<path fill="none" stroke="red" stroke-width="0.64" d="M74.24,-282.72C67.8,-271.78 56.24,-252.11 46.19,-235.02"/>
<polygon fill="red" stroke="red" stroke-width="0.64" points="49.38,-233.54 41.3,-226.7 43.35,-237.09 49.38,-233.54"/>
</g>
<!-- &#45;3 -->
<g id="node3" class="node">
<title>&#45;3</title>
<polygon fill="lightgray" stroke="black" points="589.97,-391.9 566.47,-391.9 566.47,-373.4 589.97,-373.4 589.97,-391.9"/>
<text text-anchor="middle" x="578.22" y="-379.35" font-family="Times,serif" font-size="9.00">&#45;3</text>
</g>
<!-- 1033 -->
<g id="node26" class="node">
<title>1033</title>
<ellipse fill="white" stroke="black" cx="506.22" cy="-292.2" rx="24.04" ry="24.04"/>
<text text-anchor="middle" x="506.22" y="-288.9" font-family="Times,serif" font-size="9.00">1033</text>
</g>
<!-- &#45;3&#45;&gt;1033 -->
<g id="edge1" class="edge">
<title>&#45;3&#45;&gt;1033</title>
<path fill="none" stroke="green" stroke-width="0.4" stroke-dasharray="1,5" d="M571.63,-373.36C567.5,-368.19 562.07,-361.41 557.22,-355.42 547.62,-343.58 536.94,-330.52 527.84,-319.44"/>
<polygon fill="green" stroke="green" stroke-width="0.4" points="530.67,-317.37 521.61,-311.87 525.26,-321.81 530.67,-317.37"/>
</g>
<!-- 11279 -->
<g id="node28" class="node">
<title>11279</title>
<ellipse fill="white" stroke="black" cx="575.22" cy="-292.2" rx="27.22" ry="27.22"/>
<text text-anchor="middle" x="575.22" y="-288.9" font-family="Times,serif" font-size="9.00">11279</text>
</g>
<!-- &#45;3&#45;&gt;11279 -->
<g id="edge36" class="edge">
<title>&#45;3&#45;&gt;11279</title>
<path fill="none" stroke="red" stroke-width="0.27" stroke-dasharray="1,5" d="M577.94,-373.17C577.6,-363.17 577.01,-345.88 576.47,-329.93"/>
<polygon fill="red" stroke="red" stroke-width="0.27" points="579.97,-330.01 576.14,-320.14 572.98,-330.25 579.97,-330.01"/>
</g>
<!-- 3423 -->
<g id="node38" class="node">
<title>3423</title>
<ellipse fill="white" stroke="black" cx="833.22" cy="-24.04" rx="24.04" ry="24.04"/>
<text text-anchor="middle" x="833.22" y="-20.74" font-family="Times,serif" font-size="9.00">3423</text>
</g>
<!-- &#45;3&#45;&gt;3423 -->
<g id="edge35" class="edge">
<title>&#45;3&#45;&gt;3423</title>
<path fill="none" stroke="red" stroke-width="0.22" stroke-dasharray="1,5" d="M590.45,-374.68C607.42,-364.47 638.18,-343.98 657.22,-319.42 700.37,-263.8 685.67,-235.29 721.22,-174.53 748.32,-128.22 787.17,-79.33 811.27,-50.54"/>
<polygon fill="red" stroke="red" stroke-width="0.22" points="813.67,-53.13 817.44,-43.22 808.32,-48.61 813.67,-53.13"/>
</g>
<!-- &#45;4 -->
<g id="node4" class="node">
<title>&#45;4</title>
<polygon fill="lightgray" stroke="black" points="213.97,-301.45 190.47,-301.45 190.47,-282.95 213.97,-282.95 213.97,-301.45"/>
<text text-anchor="middle" x="202.22" y="-288.9" font-family="Times,serif" font-size="9.00">&#45;4</text>
</g>
<!-- &#45;4&#45;&gt;2 -->
<g id="edge4" class="edge">
<title>&#45;4&#45;&gt;2</title>
<path fill="none" stroke="green" stroke-width="0.14" d="M190.11,-284.15C172.04,-273.39 137.39,-251.68 111.22,-228.98 108.35,-226.49 105.47,-223.67 102.75,-220.84"/>
<polygon fill="green" stroke="green" stroke-width="0.14" points="105.52,-218.68 96.2,-213.65 100.35,-223.4 105.52,-218.68"/>
</g>
<!-- 12172 -->
<g id="node27" class="node">
<title>12172</title>
<ellipse fill="white" stroke="black" cx="147.22" cy="-201.75" rx="27.22" ry="27.22"/>
<text text-anchor="middle" x="147.22" y="-198.45" font-family="Times,serif" font-size="9.00">12172</text>
</g>
<!-- &#45;4&#45;&gt;12172 -->
<g id="edge44" class="edge">
<title>&#45;4&#45;&gt;12172</title>
<path fill="none" stroke="red" stroke-width="0.21" d="M196.95,-282.72C190.04,-271.6 177.52,-251.48 166.78,-234.2"/>
<polygon fill="red" stroke="red" stroke-width="0.21" points="169.78,-232.4 161.53,-225.76 163.84,-236.1 169.78,-232.4"/>
</g>
<!-- 8347 -->
<g id="node29" class="node">
<title>8347</title>
<ellipse fill="white" stroke="black" cx="402.22" cy="-201.75" rx="24.04" ry="24.04"/>
<text text-anchor="middle" x="402.22" y="-198.45" font-family="Times,serif" font-size="9.00">8347</text>
</g>
<!-- &#45;4&#45;&gt;8347 -->
<g id="edge19" class="edge">
<title>&#45;4&#45;&gt;8347</title>
<path fill="none" stroke="green" stroke-width="0.3" stroke-dasharray="1,5" d="M214.43,-285.8C245.03,-272.27 325.72,-236.59 370.74,-216.68"/>
<polygon fill="green" stroke="green" stroke-width="0.3" points="372.16,-219.88 379.89,-212.63 369.32,-213.48 372.16,-219.88"/>
</g>
<!-- 11355 -->
<g id="node37" class="node">
<title>11355</title>
<ellipse fill="white" stroke="black" cx="185.22" cy="-111.31" rx="27.22" ry="27.22"/>
<text text-anchor="middle" x="185.22" y="-108.01" font-family="Times,serif" font-size="9.00">11355</text>
</g>
<!-- &#45;4&#45;&gt;11355 -->
<g id="edge31" class="edge">
<title>&#45;4&#45;&gt;11355</title>
<path fill="none" stroke="red" stroke-width="0.52" stroke-dasharray="1,5" d="M201.4,-282.57C199.15,-258.88 192.77,-191.76 188.73,-149.21"/>
<polygon fill="red" stroke="red" stroke-width="0.52" points="192.24,-149.12 187.81,-139.49 185.27,-149.78 192.24,-149.12"/>
</g>
<!-- 4326 -->
<g id="node41" class="node">
<title>4326</title>
<ellipse fill="white" stroke="black" cx="268.22" cy="-24.04" rx="24.04" ry="24.04"/>
<text text-anchor="middle" x="268.22" y="-20.74" font-family="Times,serif" font-size="9.00">4326</text>
</g>
<!-- &#45;4&#45;&gt;4326 -->
<g id="edge9" class="edge">
<title>&#45;4&#45;&gt;4326</title>
<path fill="none" stroke="red" stroke-width="0.13" stroke-dasharray="1,5" d="M204.34,-282.65C212.89,-248.17 245.08,-118.37 260.24,-57.25"/>
<polygon fill="red" stroke="red" stroke-width="0.13" points="263.55,-58.44 262.56,-47.89 256.75,-56.76 263.55,-58.44"/>
</g>
<!-- &#45;5 -->
<g id="node5" class="node">
<title>&#45;5</title>
<polygon fill="lightgray" stroke="black" points="580.97,-469.62 557.47,-469.62 557.47,-451.12 580.97,-451.12 580.97,-469.62"/>
<text text-anchor="middle" x="569.22" y="-457.07" font-family="Times,serif" font-size="9.00">&#45;5</text>
</g>
<!-- &#45;6 -->
<g id="node6" class="node">
<title>&#45;6</title>
<polygon fill="lightgray" stroke="black" points="413.97,-391.9 390.47,-391.9 390.47,-373.4 413.97,-373.4 413.97,-391.9"/>
<text text-anchor="middle" x="402.22" y="-379.35" font-family="Times,serif" font-size="9.00">&#45;6</text>
</g>
<!-- 12077 -->
<g id="node31" class="node">
<title>12077</title>
<ellipse fill="white" stroke="black" cx="295.22" cy="-201.75" rx="27.22" ry="27.22"/>
<text text-anchor="middle" x="295.22" y="-198.45" font-family="Times,serif" font-size="9.00">12077</text>
</g>
<!-- &#45;6&#45;&gt;12077 -->
<g id="edge42" class="edge">
<title>&#45;6&#45;&gt;12077</title>
<path fill="none" stroke="red" stroke-width="0.19" stroke-dasharray="1,5" d="M390.08,-373.09C375.42,-362.18 350.9,-342 336.22,-319.42 320.15,-294.7 309.52,-262.91 303.12,-238.76"/>
<polygon fill="red" stroke="red" stroke-width="0.19" points="306.55,-238.04 300.7,-229.2 299.76,-239.76 306.55,-238.04"/>
</g>
<!-- 11221 -->
<g id="node36" class="node">
<title>11221</title>
<ellipse fill="white" stroke="black" cx="295.22" cy="-111.31" rx="27.22" ry="27.22"/>
<text text-anchor="middle" x="295.22" y="-108.01" font-family="Times,serif" font-size="9.00">11221</text>
</g>
<!-- &#45;6&#45;&gt;11221 -->
<g id="edge27" class="edge">
<title>&#45;6&#45;&gt;11221</title>
<path fill="none" stroke="green" stroke-width="0.16" stroke-dasharray="1,5" d="M396.86,-373.09C389.71,-361.37 377.05,-339.47 369.22,-319.42 345.02,-257.4 356.57,-236.09 331.22,-174.53 326.86,-163.93 320.99,-152.92 315.26,-143.17"/>
<polygon fill="green" stroke="green" stroke-width="0.16" points="318.38,-141.56 310.21,-134.82 312.39,-145.18 318.38,-141.56"/>
</g>
<!-- &#45;6&#45;&gt;4326 -->
<g id="edge26" class="edge">
<title>&#45;6&#45;&gt;4326</title>
<path fill="none" stroke="red" stroke-width="0.33" d="M408.63,-372.94C416.69,-361.4 430.09,-340.07 435.22,-319.42 450.77,-256.93 461.5,-233.32 435.22,-174.53 407.22,-111.88 338.54,-64.6 298.52,-41.25"/>
<polygon fill="red" stroke="red" stroke-width="0.33" points="300.34,-38.26 289.92,-36.35 296.87,-44.34 300.34,-38.26"/>
</g>
<!-- 4843 -->
<g id="node43" class="node">
<title>4843</title>
<ellipse fill="white" stroke="black" cx="402.22" cy="-292.2" rx="24.04" ry="24.04"/>
<text text-anchor="middle" x="402.22" y="-288.9" font-family="Times,serif" font-size="9.00">4843</text>
</g>
<!-- &#45;6&#45;&gt;4843 -->
<g id="edge8" class="edge">
<title>&#45;6&#45;&gt;4843</title>
<path fill="none" stroke="red" stroke-width="0.24" d="M402.22,-373.17C402.22,-362.5 402.22,-343.54 402.22,-326.75"/>
<polygon fill="red" stroke="red" stroke-width="0.24" points="405.72,-327.04 402.22,-317.04 398.72,-327.04 405.72,-327.04"/>
</g>
<!-- 11902 -->
<g id="node44" class="node">
<title>11902</title>
<ellipse fill="white" stroke="black" cx="731.22" cy="-292.2" rx="27.22" ry="27.22"/>
<text text-anchor="middle" x="731.22" y="-288.9" font-family="Times,serif" font-size="9.00">11902</text>
</g>
<!-- &#45;6&#45;&gt;11902 -->
<g id="edge40" class="edge">
<title>&#45;6&#45;&gt;11902</title>
<path fill="none" stroke="green" stroke-width="0.12" stroke-dasharray="1,5" d="M414.34,-376.49C428.32,-370.71 452.1,-361.35 473.22,-355.42 553.45,-332.92 576.85,-341.4 657.22,-319.42 670.19,-315.88 684.15,-311.17 696.41,-306.73"/>
<polygon fill="green" stroke="green" stroke-width="0.12" points="697.49,-310.06 705.66,-303.31 695.06,-303.49 697.49,-310.06"/>
</g>
<!-- &#45;7 -->
<g id="node7" class="node">
<title>&#45;7</title>
<polygon fill="lightgray" stroke="black" points="766.97,-469.62 743.47,-469.62 743.47,-451.12 766.97,-451.12 766.97,-469.62"/>
<text text-anchor="middle" x="755.22" y="-457.07" font-family="Times,serif" font-size="9.00">&#45;7</text>
</g>
<!-- &#45;8 -->
<g id="node8" class="node">
<title>&#45;8</title>
<polygon fill="lightgray" stroke="black" points="880.97,-469.62 857.47,-469.62 857.47,-451.12 880.97,-451.12 880.97,-469.62"/>
<text text-anchor="middle" x="869.22" y="-457.07" font-family="Times,serif" font-size="9.00">&#45;8</text>
</g>
<!-- &#45;9 -->
<g id="node9" class="node">
<title>&#45;9</title>
<polygon fill="lightgray" stroke="black" points="958.97,-469.62 935.47,-469.62 935.47,-451.12 958.97,-451.12 958.97,-469.62"/>
<text text-anchor="middle" x="947.22" y="-457.07" font-family="Times,serif" font-size="9.00">&#45;9</text>
</g>
<!-- &#45;10 -->
<g id="node10" class="node">
<title>&#45;10</title>
<polygon fill="lightgray" stroke="black" points="1065.22,-211 1037.22,-211 1037.22,-192.5 1065.22,-192.5 1065.22,-211"/>
<text text-anchor="middle" x="1051.22" y="-198.45" font-family="Times,serif" font-size="9.00">&#45;10</text>
</g>
<!-- 1 -->
<g id="node22" class="node">
<title>1</title>
<ellipse fill="lightblue" stroke="black" cx="1064.22" cy="-111.31" rx="14.5" ry="14.5"/>
<text text-anchor="middle" x="1064.22" y="-108.01" font-family="Times,serif" font-size="9.00">1</text>
</g>
<!-- &#45;10&#45;&gt;1 -->
<g id="edge7" class="edge">
<title>&#45;10&#45;&gt;1</title>
<path fill="none" stroke="green" stroke-width="0.13" stroke-dasharray="1,5" d="M1052.47,-192.27C1054.36,-179.42 1058.02,-154.53 1060.75,-135.92"/>
<polygon fill="green" stroke="green" stroke-width="0.13" points="1064.18,-136.68 1062.17,-126.28 1057.25,-135.66 1064.18,-136.68"/>
</g>
<!-- &#45;11 -->
<g id="node11" class="node">
<title>&#45;11</title>
<polygon fill="lightgray" stroke="black" points="1023.22,-469.62 995.22,-469.62 995.22,-451.12 1023.22,-451.12 1023.22,-469.62"/>
<text text-anchor="middle" x="1009.22" y="-457.07" font-family="Times,serif" font-size="9.00">&#45;11</text>
</g>
<!-- &#45;12 -->
<g id="node12" class="node">
<title>&#45;12</title>
<polygon fill="lightgray" stroke="black" points="1078.22,-469.62 1050.22,-469.62 1050.22,-451.12 1078.22,-451.12 1078.22,-469.62"/>
<text text-anchor="middle" x="1064.22" y="-457.07" font-family="Times,serif" font-size="9.00">&#45;12</text>
</g>
<!-- 10431 -->
<g id="node34" class="node">
<title>10431</title>
<ellipse fill="white" stroke="black" cx="1055.22" cy="-292.2" rx="27.22" ry="27.22"/>
<text text-anchor="middle" x="1055.22" y="-288.9" font-family="Times,serif" font-size="9.00">10431</text>
</g>
<!-- &#45;12&#45;&gt;10431 -->
<g id="edge24" class="edge">
<title>&#45;12&#45;&gt;10431</title>
<path fill="none" stroke="green" stroke-width="0.23" stroke-dasharray="1,5" d="M1060.09,-450.86C1055.64,-441.19 1048.86,-424.82 1046.22,-409.87 1041.49,-382.98 1044.2,-352.16 1047.86,-328.96"/>
<polygon fill="green" stroke="green" stroke-width="0.23" points="1051.29,-329.66 1049.52,-319.21 1044.39,-328.48 1051.29,-329.66"/>
</g>
<!-- 12640 -->
<g id="node39" class="node">
<title>12640</title>
<ellipse fill="white" stroke="black" cx="1082.22" cy="-382.65" rx="27.22" ry="27.22"/>
<text text-anchor="middle" x="1082.22" y="-379.35" font-family="Times,serif" font-size="9.00">12640</text>
</g>
<!-- &#45;12&#45;&gt;12640 -->
<g id="edge52" class="edge">
<title>&#45;12&#45;&gt;12640</title>
<path fill="none" stroke="green" stroke-width="0.47" d="M1066.29,-450.68C1068.11,-443.01 1070.9,-431.28 1073.64,-419.76"/>
<polygon fill="green" stroke="green" stroke-width="0.47" points="1077.04,-420.6 1075.95,-410.06 1070.23,-418.98 1077.04,-420.6"/>
</g>
<!-- &#45;13 -->
<g id="node13" class="node">
<title>&#45;13</title>
<polygon fill="lightgray" stroke="black" points="930.22,-391.9 902.22,-391.9 902.22,-373.4 930.22,-373.4 930.22,-391.9"/>
<text text-anchor="middle" x="916.22" y="-379.35" font-family="Times,serif" font-size="9.00">&#45;13</text>
</g>
<!-- 3 -->
<g id="node24" class="node">
<title>3</title>
<ellipse fill="lightblue" stroke="black" cx="833.22" cy="-111.31" rx="14.5" ry="14.5"/>
<text text-anchor="middle" x="833.22" y="-108.01" font-family="Times,serif" font-size="9.00">3</text>
</g>
<!-- &#45;13&#45;&gt;3 -->
<g id="edge13" class="edge">
<title>&#45;13&#45;&gt;3</title>
<path fill="none" stroke="green" stroke-width="0.46" stroke-dasharray="1,5" d="M917.44,-373.21C921.25,-343.98 930.83,-244.91 897.22,-174.53 887.6,-154.38 868.54,-137.2 853.7,-126.03"/>
<polygon fill="green" stroke="green" stroke-width="0.46" points="855.88,-123.28 845.71,-120.29 851.79,-128.97 855.88,-123.28"/>
</g>
<!-- 8747 -->
<g id="node30" class="node">
<title>8747</title>
<ellipse fill="white" stroke="black" cx="754.22" cy="-201.75" rx="24.04" ry="24.04"/>
<text text-anchor="middle" x="754.22" y="-198.45" font-family="Times,serif" font-size="9.00">8747</text>
</g>
<!-- &#45;13&#45;&gt;8747 -->
<g id="edge16" class="edge">
<title>&#45;13&#45;&gt;8747</title>
<path fill="none" stroke="red" stroke-width="0.11" d="M902.05,-377.07C878.91,-368.93 832.81,-349.88 805.22,-319.42 783.34,-295.27 769.75,-260.24 762.16,-234.88"/>
<polygon fill="red" stroke="red" stroke-width="0.11" points="765.59,-234.16 759.49,-225.5 758.86,-236.07 765.59,-234.16"/>
</g>
<!-- &#45;13&#45;&gt;3423 -->
<g id="edge6" class="edge">
<title>&#45;13&#45;&gt;3423</title>
<path fill="none" stroke="green" stroke-width="0.22" stroke-dasharray="1,5" d="M919.77,-372.98C924.41,-361.12 932.29,-339.09 935.22,-319.42 944.78,-255.39 942.16,-235.44 920.22,-174.53 903.72,-128.7 873.2,-80.93 853.05,-52.08"/>
<polygon fill="green" stroke="green" stroke-width="0.22" points="855.98,-50.16 847.35,-44.02 850.27,-54.21 855.98,-50.16"/>
</g>
<!-- 12389 -->
<g id="node40" class="node">
<title>12389</title>
<ellipse fill="white" stroke="black" cx="1004.22" cy="-111.31" rx="27.22" ry="27.22"/>
<text text-anchor="middle" x="1004.22" y="-108.01" font-family="Times,serif" font-size="9.00">12389</text>
</g>
<!-- &#45;13&#45;&gt;12389 -->
<g id="edge47" class="edge">
<title>&#45;13&#45;&gt;12389</title>
<path fill="none" stroke="green" stroke-width="0.4" stroke-dasharray="1,5" d="M926.06,-373.04C938.07,-361.93 958.04,-341.39 968.22,-319.42 994,-263.83 1001.45,-192.08 1003.52,-149.27"/>
<polygon fill="green" stroke="green" stroke-width="0.4" points="1007.02,-149.52 1003.93,-139.38 1000.02,-149.23 1007.02,-149.52"/>
</g>
<!-- &#45;13&#45;&gt;11902 -->
<g id="edge38" class="edge">
<title>&#45;13&#45;&gt;11902</title>
<path fill="none" stroke="red" stroke-width="0.25" d="M901.97,-376.37C875.71,-366.46 818.16,-343.83 772.22,-319.42 768.89,-317.66 765.48,-315.71 762.11,-313.69"/>
<polygon fill="red" stroke="red" stroke-width="0.25" points="764.06,-310.78 753.71,-308.5 760.37,-316.73 764.06,-310.78"/>
</g>
<!-- &#45;14 -->
<g id="node14" class="node">
<title>&#45;14</title>
<polygon fill="lightgray" stroke="black" points="888.22,-301.45 860.22,-301.45 860.22,-282.95 888.22,-282.95 888.22,-301.45"/>
<text text-anchor="middle" x="874.22" y="-288.9" font-family="Times,serif" font-size="9.00">&#45;14</text>
</g>
<!-- &#45;14&#45;&gt;8747 -->
<g id="edge41" class="edge">
<title>&#45;14&#45;&gt;8747</title>
<path fill="none" stroke="red" stroke-width="0.11" d="M867.92,-282.86C863.57,-277.41 857.47,-270.35 851.22,-264.98 830.44,-247.1 804.12,-230.53 784.14,-219"/>
<polygon fill="red" stroke="red" stroke-width="0.11" points="786.02,-216.04 775.6,-214.15 782.57,-222.13 786.02,-216.04"/>
</g>
<!-- &#45;15 -->
<g id="node15" class="node">
<title>&#45;15</title>
<polygon fill="lightgray" stroke="black" points="648.22,-301.45 620.22,-301.45 620.22,-282.95 648.22,-282.95 648.22,-301.45"/>
<text text-anchor="middle" x="634.22" y="-288.9" font-family="Times,serif" font-size="9.00">&#45;15</text>
</g>
<!-- 0 -->
<g id="node21" class="node">
<title>0</title>
<ellipse fill="lightblue" stroke="black" cx="634.22" cy="-201.75" rx="14.5" ry="14.5"/>
<text text-anchor="middle" x="634.22" y="-198.45" font-family="Times,serif" font-size="9.00">0</text>
</g>
<!-- &#45;15&#45;&gt;0 -->
<g id="edge37" class="edge">
<title>&#45;15&#45;&gt;0</title>
<path fill="none" stroke="green" stroke-width="0.29" stroke-dasharray="1,5" d="M634.22,-282.72C634.22,-269.99 634.22,-245.44 634.22,-226.88"/>
<polygon fill="green" stroke="green" stroke-width="0.29" points="637.72,-226.97 634.22,-216.97 630.72,-226.97 637.72,-226.97"/>
</g>
<!-- &#45;16 -->
<g id="node16" class="node">
<title>&#45;16</title>
<polygon fill="lightgray" stroke="black" points="471.22,-469.62 443.22,-469.62 443.22,-451.12 471.22,-451.12 471.22,-469.62"/>
<text text-anchor="middle" x="457.22" y="-457.07" font-family="Times,serif" font-size="9.00">&#45;16</text>
</g>
<!-- &#45;16&#45;&gt;1033 -->
<g id="edge2" class="edge">
<title>&#45;16&#45;&gt;1033</title>
<path fill="none" stroke="green" stroke-width="0.11" d="M457.58,-450.79C458.53,-432.71 461.9,-389.57 473.22,-355.42 477.06,-343.84 482.92,-331.84 488.64,-321.5"/>
<polygon fill="green" stroke="green" stroke-width="0.11" points="491.56,-323.46 493.5,-313.04 485.48,-319.97 491.56,-323.46"/>
</g>
<!-- 5437 -->
<g id="node33" class="node">
<title>5437</title>
<ellipse fill="white" stroke="black" cx="506.22" cy="-382.65" rx="24.04" ry="24.04"/>
<text text-anchor="middle" x="506.22" y="-379.35" font-family="Times,serif" font-size="9.00">5437</text>
</g>
<!-- &#45;16&#45;&gt;5437 -->
<g id="edge29" class="edge">
<title>&#45;16&#45;&gt;5437</title>
<path fill="none" stroke="green" stroke-width="0.23" d="M462.84,-450.68C469.01,-441.16 479.21,-425.39 488.18,-411.54"/>
<polygon fill="green" stroke="green" stroke-width="0.23" points="490.86,-413.83 493.36,-403.53 484.99,-410.03 490.86,-413.83"/>
</g>
<!-- &#45;17 -->
<g id="node17" class="node">
<title>&#45;17</title>
<polygon fill="lightgray" stroke="black" points="842.22,-301.45 814.22,-301.45 814.22,-282.95 842.22,-282.95 842.22,-301.45"/>
<text text-anchor="middle" x="828.22" y="-288.9" font-family="Times,serif" font-size="9.00">&#45;17</text>
</g>
<!-- &#45;17&#45;&gt;0 -->
<g id="edge18" class="edge">
<title>&#45;17&#45;&gt;0</title>
<path fill="none" stroke="red" stroke-width="0.24" d="M813.96,-284.7C780.48,-269.43 696.68,-231.23 656.45,-212.89"/>
<polygon fill="red" stroke="red" stroke-width="0.24" points="658.1,-209.79 647.55,-208.83 655.2,-216.16 658.1,-209.79"/>
</g>
<!-- &#45;17&#45;&gt;3 -->
<g id="edge10" class="edge">
<title>&#45;17&#45;&gt;3</title>
<path fill="none" stroke="red" stroke-width="0.33" stroke-dasharray="1,5" d="M827.48,-282.7C825.92,-263.43 822.63,-214.97 825.22,-174.53 826.04,-161.85 827.77,-147.79 829.42,-136.26"/>
<polygon fill="red" stroke="red" stroke-width="0.33" points="832.85,-137 830.86,-126.59 825.92,-135.96 832.85,-137"/>
</g>
<!-- 12489 -->
<g id="node35" class="node">
<title>12489</title>
<ellipse fill="white" stroke="black" cx="861.22" cy="-201.75" rx="27.22" ry="27.22"/>
<text text-anchor="middle" x="861.22" y="-198.45" font-family="Times,serif" font-size="9.00">12489</text>
</g>
<!-- &#45;17&#45;&gt;12489 -->
<g id="edge49" class="edge">
<title>&#45;17&#45;&gt;12489</title>
<path fill="none" stroke="green" stroke-width="0.19" d="M831.39,-282.72C835.3,-272.24 842.19,-253.76 848.37,-237.2"/>
<polygon fill="green" stroke="green" stroke-width="0.19" points="851.58,-238.61 851.8,-228.01 845.02,-236.16 851.58,-238.61"/>
</g>
<!-- 9449 -->
<g id="node42" class="node">
<title>9449</title>
<ellipse fill="white" stroke="black" cx="577.22" cy="-201.75" rx="24.04" ry="24.04"/>
<text text-anchor="middle" x="577.22" y="-198.45" font-family="Times,serif" font-size="9.00">9449</text>
</g>
<!-- &#45;17&#45;&gt;9449 -->
<g id="edge25" class="edge">
<title>&#45;17&#45;&gt;9449</title>
<path fill="none" stroke="green" stroke-width="0.19" stroke-dasharray="1,5" d="M813.96,-284.2C801.77,-278.44 783.66,-270.36 767.22,-264.98 699.6,-242.84 675.54,-259.41 611.22,-228.98 608.42,-227.65 605.62,-226.06 602.91,-224.33"/>
<polygon fill="green" stroke="green" stroke-width="0.19" points="605.04,-221.54 594.85,-218.62 600.99,-227.26 605.04,-221.54"/>
</g>
<!-- &#45;18 -->
<g id="node18" class="node">
<title>&#45;18</title>
<polygon fill="lightgray" stroke="black" points="1111.22,-211 1083.22,-211 1083.22,-192.5 1111.22,-192.5 1111.22,-211"/>
<text text-anchor="middle" x="1097.22" y="-198.45" font-family="Times,serif" font-size="9.00">&#45;18</text>
</g>
<!-- &#45;18&#45;&gt;1 -->
<g id="edge3" class="edge">
<title>&#45;18&#45;&gt;1</title>
<path fill="none" stroke="green" stroke-width="0.44" d="M1094.06,-192.27C1089.21,-179.27 1079.77,-153.97 1072.8,-135.29"/>
<polygon fill="green" stroke="green" stroke-width="0.44" points="1076.14,-134.23 1069.36,-126.08 1069.58,-136.67 1076.14,-134.23"/>
</g>
<!-- &#45;19 -->
<g id="node19" class="node">
<title>&#45;19</title>
<polygon fill="lightgray" stroke="black" points="1124.22,-469.62 1096.22,-469.62 1096.22,-451.12 1124.22,-451.12 1124.22,-469.62"/>
<text text-anchor="middle" x="1110.22" y="-457.07" font-family="Times,serif" font-size="9.00">&#45;19</text>
</g>
<!-- &#45;20 -->
<g id="node20" class="node">
<title>&#45;20</title>
<polygon fill="lightgray" stroke="black" points="41.22,-301.45 13.22,-301.45 13.22,-282.95 41.22,-282.95 41.22,-301.45"/>
<text text-anchor="middle" x="27.22" y="-288.9" font-family="Times,serif" font-size="9.00">&#45;20</text>
</g>
<!-- &#45;20&#45;&gt;11449 -->
<g id="edge34" class="edge">
<title>&#45;20&#45;&gt;11449</title>
<path fill="none" stroke="red" stroke-width="0.24" stroke-dasharray="1,5" d="M27.22,-282.72C27.22,-272.72 27.22,-255.43 27.22,-239.48"/>
<polygon fill="red" stroke="red" stroke-width="0.24" points="30.72,-239.64 27.22,-229.64 23.72,-239.64 30.72,-239.64"/>
</g>
<!-- 1&#45;&gt;3423 -->
<g id="edge33" class="edge">
<title>1&#45;&gt;3423</title>
<path fill="none" stroke="green" stroke-width="0.13" d="M1056.22,-99C1052,-93.78 1046.42,-87.91 1040.22,-84.08 985.31,-50.13 910.25,-35.12 867.23,-28.94"/>
<polygon fill="green" stroke="green" stroke-width="0.13" points="867.85,-25.49 857.47,-27.61 866.9,-32.43 867.85,-25.49"/>
</g>
<!-- 3&#45;&gt;3423 -->
<g id="edge54" class="edge">
<title>3&#45;&gt;3423</title>
<path fill="none" stroke="green" stroke-width="0.21" d="M833.22,-96.61C833.22,-86.36 833.22,-71.88 833.22,-58.62"/>
<polygon fill="green" stroke="green" stroke-width="0.21" points="836.72,-58.68 833.22,-48.68 829.72,-58.68 836.72,-58.68"/>
</g>
<!-- 4 -->
<g id="node25" class="node">
<title>4</title>
<ellipse fill="lightblue" stroke="black" cx="506.22" cy="-460.37" rx="14.5" ry="14.5"/>
<text text-anchor="middle" x="506.22" y="-457.07" font-family="Times,serif" font-size="9.00">4</text>
</g>
<!-- 4&#45;&gt;5437 -->
<g id="edge15" class="edge">
<title>4&#45;&gt;5437</title>
<path fill="none" stroke="green" stroke-width="0.38" stroke-dasharray="1,5" d="M506.22,-445.48C506.22,-437.58 506.22,-427.31 506.22,-417.42"/>
<polygon fill="green" stroke="green" stroke-width="0.38" points="509.72,-417.55 506.22,-407.55 502.72,-417.55 509.72,-417.55"/>
</g>
<!-- 1033&#45;&gt;8347 -->
<g id="edge23" class="edge">
<title>1033&#45;&gt;8347</title>
<path fill="none" stroke="red" stroke-width="0.37" stroke-dasharray="1,5" d="M488.11,-275.79C471.48,-261.65 446.67,-240.55 427.98,-224.66"/>
<polygon fill="red" stroke="red" stroke-width="0.37" points="430.45,-222.16 420.56,-218.35 425.91,-227.5 430.45,-222.16"/>
</g>
<!-- 1033&#45;&gt;3423 -->
<g id="edge5" class="edge">
<title>1033&#45;&gt;3423</title>
<path fill="none" stroke="red" stroke-width="0.37" stroke-dasharray="1,5" d="M510.3,-268.05C519.42,-223.87 545.95,-128.02 610.22,-84.08 668.38,-44.33 751.9,-31.33 798.47,-27.09"/>
<polygon fill="red" stroke="red" stroke-width="0.37" points="798.69,-30.58 808.37,-26.27 798.12,-23.61 798.69,-30.58"/>
</g>
<!-- 1033&#45;&gt;9449 -->
<g id="edge20" class="edge">
<title>1033&#45;&gt;9449</title>
<path fill="none" stroke="red" stroke-width="0.31" d="M520.93,-272.87C531.12,-260.19 544.83,-243.1 556.17,-228.98"/>
<polygon fill="red" stroke="red" stroke-width="0.31" points="558.71,-231.41 562.24,-221.42 553.25,-227.03 558.71,-231.41"/>
</g>
<!-- 12172&#45;&gt;11355 -->
<g id="edge45" class="edge">
<title>12172&#45;&gt;11355</title>
<path fill="none" stroke="green" stroke-width="0.22" d="M157.61,-176.59C161.64,-167.21 166.32,-156.3 170.68,-146.16"/>
<polygon fill="green" stroke="green" stroke-width="0.22" points="173.86,-147.62 174.59,-137.05 167.43,-144.86 173.86,-147.62"/>
</g>
<!-- 11279&#45;&gt;0 -->
<g id="edge30" class="edge">
<title>11279&#45;&gt;0</title>
<path fill="none" stroke="red" stroke-width="0.59" stroke-dasharray="1,5" d="M590.11,-268.88C599.54,-254.75 611.64,-236.61 620.78,-222.91"/>
<polygon fill="red" stroke="red" stroke-width="0.59" points="623.43,-225.25 626.06,-214.99 617.6,-221.36 623.43,-225.25"/>
</g>
<!-- 8747&#45;&gt;3 -->
<g id="edge17" class="edge">
<title>8747&#45;&gt;3</title>
<path fill="none" stroke="red" stroke-width="0.6" d="M769.83,-183.28C783.41,-168.07 803.03,-146.11 816.84,-130.65"/>
<polygon fill="red" stroke="red" stroke-width="0.6" points="819.18,-133.28 823.23,-123.49 813.96,-128.62 819.18,-133.28"/>
</g>
<!-- 12077&#45;&gt;11221 -->
<g id="edge43" class="edge">
<title>12077&#45;&gt;11221</title>
<path fill="none" stroke="red" stroke-width="0.18" d="M295.22,-174.22C295.22,-166.26 295.22,-157.38 295.22,-148.9"/>
<polygon fill="red" stroke="red" stroke-width="0.18" points="298.72,-149.09 295.22,-139.09 291.72,-149.09 298.72,-149.09"/>
</g>
<!-- 5437&#45;&gt;1033 -->
<g id="edge22" class="edge">
<title>5437&#45;&gt;1033</title>
<path fill="none" stroke="red" stroke-width="0.32" d="M506.22,-358.41C506.22,-348.74 506.22,-337.32 506.22,-326.76"/>
<polygon fill="red" stroke="red" stroke-width="0.32" points="509.72,-327.08 506.22,-317.08 502.72,-327.08 509.72,-327.08"/>
</g>
<!-- 5437&#45;&gt;5437 -->
<g id="edge11" class="edge">
<title>5437&#45;&gt;5437</title>
<path fill="none" stroke="red" stroke-width="0.5" stroke-dasharray="1,5" d="M526.12,-396.42C537.59,-399.23 548.27,-394.64 548.27,-382.65 548.27,-374.59 543.45,-369.88 536.8,-368.5"/>
<polygon fill="red" stroke="red" stroke-width="0.5" points="536.74,-365 526.87,-368.85 536.99,-372 536.74,-365"/>
</g>
<!-- 12489&#45;&gt;3 -->
<g id="edge50" class="edge">
<title>12489&#45;&gt;3</title>
<path fill="none" stroke="green" stroke-width="0.79" d="M853.27,-175.65C849.31,-163.13 844.55,-148.09 840.66,-135.81"/>
<polygon fill="green" stroke="green" stroke-width="0.79" points="844.1,-135.06 837.74,-126.59 837.43,-137.18 844.1,-135.06"/>
</g>
<!-- 11221&#45;&gt;4326 -->
<g id="edge28" class="edge">
<title>11221&#45;&gt;4326</title>
<path fill="none" stroke="green" stroke-width="0.1" stroke-dasharray="1,5" d="M287.27,-85.19C284.45,-76.29 281.24,-66.16 278.28,-56.79"/>
<polygon fill="green" stroke="green" stroke-width="0.1" points="281.7,-56 275.34,-47.52 275.02,-58.11 281.7,-56"/>
</g>
<!-- 11355&#45;&gt;4326 -->
<g id="edge32" class="edge">
<title>11355&#45;&gt;4326</title>
<path fill="none" stroke="red" stroke-width="0.54" d="M203.64,-91.38C215.7,-79 231.57,-62.7 244.56,-49.35"/>
<polygon fill="red" stroke="red" stroke-width="0.54" points="246.79,-52.08 251.26,-42.47 241.77,-47.2 246.79,-52.08"/>
</g>
<!-- 12640&#45;&gt;10431 -->
<g id="edge53" class="edge">
<title>12640&#45;&gt;10431</title>
<path fill="none" stroke="red" stroke-width="0.14" stroke-dasharray="1,5" d="M1074.41,-356.07C1071.78,-347.45 1068.8,-337.68 1065.98,-328.45"/>
<polygon fill="red" stroke="red" stroke-width="0.14" points="1069.34,-327.47 1063.08,-318.92 1062.65,-329.51 1069.34,-327.47"/>
</g>
<!-- 12389&#45;&gt;3423 -->
<g id="edge48" class="edge">
<title>12389&#45;&gt;3423</title>
<path fill="none" stroke="red" stroke-width="0.3" stroke-dasharray="1,5" d="M982.02,-95.29C976.02,-91.46 969.46,-87.47 963.22,-84.08 930.58,-66.35 891.61,-49.15 864.9,-37.93"/>
<polygon fill="red" stroke="red" stroke-width="0.3" points="866.3,-34.72 855.72,-34.11 863.61,-41.18 866.3,-34.72"/>
</g>
<!-- 9449&#45;&gt;3423 -->
<g id="edge21" class="edge">
<title>9449&#45;&gt;3423</title>
<path fill="none" stroke="red" stroke-width="0.26" d="M587.48,-179.59C601.11,-153.57 627.57,-109.71 662.22,-84.08 703.71,-53.4 762.37,-37.78 799.08,-30.53"/>
<polygon fill="red" stroke="red" stroke-width="0.26" points="799.7,-33.98 808.88,-28.7 798.41,-27.1 799.7,-33.98"/>
</g>
<!-- 4843&#45;&gt;8347 -->
<g id="edge14" class="edge">
<title>4843&#45;&gt;8347</title>
<path fill="none" stroke="red" stroke-width="0.44" stroke-dasharray="1,5" d="M402.22,-267.96C402.22,-258.39 402.22,-247.11 402.22,-236.65"/>
<polygon fill="red" stroke="red" stroke-width="0.44" points="405.72,-236.8 402.22,-226.8 398.72,-236.8 405.72,-236.8"/>
</g>
<!-- 4843&#45;&gt;12077 -->
<g id="edge46" class="edge">
<title>4843&#45;&gt;12077</title>
<path fill="none" stroke="green" stroke-width="0.18" stroke-dasharray="1,5" d="M384.07,-276.2C367.59,-262.57 342.99,-242.24 323.86,-226.42"/>
<polygon fill="green" stroke="green" stroke-width="0.18" points="326.17,-223.8 316.24,-220.12 321.71,-229.19 326.17,-223.8"/>
</g>
<!-- 11902&#45;&gt;8747 -->
<g id="edge39" class="edge">
<title>11902&#45;&gt;8747</title>
<path fill="none" stroke="green" stroke-width="0.25" stroke-dasharray="1,5" d="M737.88,-265.62C740.32,-256.23 743.12,-245.46 745.7,-235.53"/>
<polygon fill="green" stroke="green" stroke-width="0.25" points="749.07,-236.49 748.2,-225.93 742.29,-234.73 749.07,-236.49"/>
</g>
</g>
</svg>
