<?xml version="1.0" encoding="UTF-8" standalone="no"?>
<!DOCTYPE svg PUBLIC "-//W3C//DTD SVG 1.1//EN"
 "http://www.w3.org/Graphics/SVG/1.1/DTD/svg11.dtd">
<!-- Generated by graphviz version 12.1.1 (20240910.0053)
 -->
<!-- Pages: 1 -->
<svg width="1180pt" height="653pt"
 viewBox="0.00 0.00 1179.51 653.27" xmlns="http://www.w3.org/2000/svg" xmlns:xlink="http://www.w3.org/1999/xlink">
<g id="graph0" class="graph" transform="scale(1 1) rotate(0) translate(4 649.27)">
<polygon fill="white" stroke="none" points="-4,4 -4,-649.27 1175.51,-649.27 1175.51,4 -4,4"/>
<!-- &#45;1 -->
<g id="node1" class="node">
<title>&#45;1</title>
<polygon fill="lightgray" stroke="black" points="1121.26,-395.08 1097.76,-395.08 1097.76,-376.58 1121.26,-376.58 1121.26,-395.08"/>
<text text-anchor="middle" x="1109.51" y="-382.53" font-family="Times,serif" font-size="9.00">&#45;1</text>
</g>
<!-- 1033 -->
<g id="node27" class="node">
<title>1033</title>
<ellipse fill="white" stroke="black" cx="1063.51" cy="-298.57" rx="24.04" ry="24.04"/>
<text text-anchor="middle" x="1063.51" y="-295.27" font-family="Times,serif" font-size="9.00">1033</text>
</g>
<!-- &#45;1&#45;&gt;1033 -->
<g id="edge1" class="edge">
<title>&#45;1&#45;&gt;1033</title>
<path fill="none" stroke="red" stroke-width="0.16" stroke-dasharray="1,5" d="M1104.93,-376.34C1099.03,-365.4 1088.44,-345.78 1079.45,-329.12"/>
<polygon fill="red" stroke="red" stroke-width="0.16" points="1082.6,-327.59 1074.78,-320.45 1076.44,-330.91 1082.6,-327.59"/>
</g>
<!-- 9449 -->
<g id="node45" class="node">
<title>9449</title>
<ellipse fill="white" stroke="black" cx="1103.51" cy="-208.12" rx="24.04" ry="24.04"/>
<text text-anchor="middle" x="1103.51" y="-204.82" font-family="Times,serif" font-size="9.00">9449</text>
</g>
<!-- &#45;1&#45;&gt;9449 -->
<g id="edge60" class="edge">
<title>&#45;1&#45;&gt;9449</title>
<path fill="none" stroke="red" stroke-width="0.33" stroke-dasharray="1,5" d="M1109.22,-376.36C1108.41,-352.63 1106.09,-284.57 1104.67,-242.95"/>
<polygon fill="red" stroke="red" stroke-width="0.33" points="1108.16,-242.85 1104.33,-232.98 1101.17,-243.09 1108.16,-242.85"/>
</g>
<!-- &#45;2 -->
<g id="node2" class="node">
<title>&#45;2</title>
<polygon fill="lightgray" stroke="black" points="201.26,-307.82 177.76,-307.82 177.76,-289.32 201.26,-289.32 201.26,-307.82"/>
<text text-anchor="middle" x="189.51" y="-295.27" font-family="Times,serif" font-size="9.00">&#45;2</text>
</g>
<!-- 2 -->
<g id="node23" class="node">
<title>2</title>
<ellipse fill="lightblue" stroke="black" cx="16.51" cy="-208.12" rx="14.5" ry="14.5"/>
<text text-anchor="middle" x="16.51" y="-204.82" font-family="Times,serif" font-size="9.00">2</text>
</g>
<!-- &#45;2&#45;&gt;2 -->
<g id="edge16" class="edge">
<title>&#45;2&#45;&gt;2</title>
<path fill="none" stroke="red" stroke-width="0.5" d="M184.5,-288.84C180.78,-283.08 175.2,-275.81 168.51,-271.34 120.8,-239.46 94.38,-263.74 44.51,-235.34 40.54,-233.08 36.68,-230.15 33.17,-227.06"/>
<polygon fill="red" stroke="red" stroke-width="0.5" points="35.86,-224.79 26.23,-220.37 31,-229.83 35.86,-224.79"/>
</g>
<!-- 12247 -->
<g id="node41" class="node">
<title>12247</title>
<ellipse fill="white" stroke="black" cx="311.51" cy="-27.22" rx="27.22" ry="27.22"/>
<text text-anchor="middle" x="311.51" y="-23.92" font-family="Times,serif" font-size="9.00">12247</text>
</g>
<!-- &#45;2&#45;&gt;12247 -->
<g id="edge61" class="edge">
<title>&#45;2&#45;&gt;12247</title>
<path fill="none" stroke="green" stroke-width="0.35" stroke-dasharray="1,5" d="M188.39,-289.02C186.14,-269.26 182.42,-219.17 196.51,-180.89 215.27,-129.94 257.02,-81.76 284.72,-53.61"/>
<polygon fill="green" stroke="green" stroke-width="0.35" points="287.14,-56.14 291.75,-46.6 282.2,-51.19 287.14,-56.14"/>
</g>
<!-- 4326 -->
<g id="node43" class="node">
<title>4326</title>
<ellipse fill="white" stroke="black" cx="229.51" cy="-208.12" rx="24.04" ry="24.04"/>
<text text-anchor="middle" x="229.51" y="-204.82" font-family="Times,serif" font-size="9.00">4326</text>
</g>
<!-- &#45;2&#45;&gt;4326 -->
<g id="edge59" class="edge">
<title>&#45;2&#45;&gt;4326</title>
<path fill="none" stroke="green" stroke-width="0.15" stroke-dasharray="1,5" d="M193.35,-289.08C198.46,-277.78 207.79,-257.15 215.69,-239.68"/>
<polygon fill="green" stroke="green" stroke-width="0.15" points="218.87,-241.13 219.8,-230.58 212.5,-238.25 218.87,-241.13"/>
</g>
<!-- &#45;3 -->
<g id="node3" class="node">
<title>&#45;3</title>
<polygon fill="lightgray" stroke="black" points="951.26,-395.08 927.76,-395.08 927.76,-376.58 951.26,-376.58 951.26,-395.08"/>
<text text-anchor="middle" x="939.51" y="-382.53" font-family="Times,serif" font-size="9.00">&#45;3</text>
</g>
<!-- &#45;3&#45;&gt;1033 -->
<g id="edge2" class="edge">
<title>&#45;3&#45;&gt;1033</title>
<path fill="none" stroke="green" stroke-width="0.42" d="M946.3,-376.09C950.15,-371.49 955.25,-365.95 960.51,-361.79 986.42,-341.31 997.44,-343.19 1025.51,-325.79 1028.84,-323.72 1032.28,-321.49 1035.68,-319.23"/>
<polygon fill="green" stroke="green" stroke-width="0.42" points="1037.6,-322.16 1043.89,-313.64 1033.66,-316.37 1037.6,-322.16"/>
</g>
<!-- 3423 -->
<g id="node42" class="node">
<title>3423</title>
<ellipse fill="white" stroke="black" cx="957.51" cy="-117.67" rx="24.04" ry="24.04"/>
<text text-anchor="middle" x="957.51" y="-114.37" font-family="Times,serif" font-size="9.00">3423</text>
</g>
<!-- &#45;3&#45;&gt;3423 -->
<g id="edge39" class="edge">
<title>&#45;3&#45;&gt;3423</title>
<path fill="none" stroke="green" stroke-width="0.49" d="M947.01,-376.26C959.95,-361.35 985.35,-331.68 987.51,-325.79 1009.74,-265.34 1004.66,-243.49 989.51,-180.89 986.72,-169.35 981.39,-157.55 975.87,-147.37"/>
<polygon fill="green" stroke="green" stroke-width="0.49" points="978.98,-145.76 970.97,-138.82 972.91,-149.24 978.98,-145.76"/>
</g>
<!-- &#45;4 -->
<g id="node4" class="node">
<title>&#45;4</title>
<polygon fill="lightgray" stroke="black" points="192.26,-395.08 168.76,-395.08 168.76,-376.58 192.26,-376.58 192.26,-395.08"/>
<text text-anchor="middle" x="180.51" y="-382.53" font-family="Times,serif" font-size="9.00">&#45;4</text>
</g>
<!-- &#45;4&#45;&gt;2 -->
<g id="edge7" class="edge">
<title>&#45;4&#45;&gt;2</title>
<path fill="none" stroke="red" stroke-width="0.87" d="M168.47,-384.91C136.52,-384.38 49.51,-378.01 12.51,-325.79 -6.79,-298.54 0.41,-258.04 7.99,-232.63"/>
<polygon fill="red" stroke="red" stroke-width="0.87" points="11.24,-233.96 11.01,-223.36 4.58,-231.79 11.24,-233.96"/>
</g>
<!-- 12172 -->
<g id="node28" class="node">
<title>12172</title>
<ellipse fill="white" stroke="black" cx="132.51" cy="-298.57" rx="27.22" ry="27.22"/>
<text text-anchor="middle" x="132.51" y="-295.27" font-family="Times,serif" font-size="9.00">12172</text>
</g>
<!-- &#45;4&#45;&gt;12172 -->
<g id="edge44" class="edge">
<title>&#45;4&#45;&gt;12172</title>
<path fill="none" stroke="green" stroke-width="0.32" stroke-dasharray="1,5" d="M175.73,-376.34C169.91,-365.99 159.71,-347.89 150.69,-331.86"/>
<polygon fill="green" stroke="green" stroke-width="0.32" points="153.75,-330.15 145.79,-323.16 147.65,-333.59 153.75,-330.15"/>
</g>
<!-- 8347 -->
<g id="node30" class="node">
<title>8347</title>
<ellipse fill="white" stroke="black" cx="311.51" cy="-117.67" rx="24.04" ry="24.04"/>
<text text-anchor="middle" x="311.51" y="-114.37" font-family="Times,serif" font-size="9.00">8347</text>
</g>
<!-- &#45;4&#45;&gt;8347 -->
<g id="edge24" class="edge">
<title>&#45;4&#45;&gt;8347</title>
<path fill="none" stroke="green" stroke-width="0.28" d="M168.53,-380.6C149.21,-373.05 111.79,-355.21 96.51,-325.79 85.36,-304.31 86.69,-293.46 96.51,-271.34 130.9,-193.87 228.01,-148.6 279.13,-129.48"/>
<polygon fill="green" stroke="green" stroke-width="0.28" points="280.1,-132.85 288.31,-126.14 277.71,-126.27 280.1,-132.85"/>
</g>
<!-- &#45;4&#45;&gt;4326 -->
<g id="edge13" class="edge">
<title>&#45;4&#45;&gt;4326</title>
<path fill="none" stroke="green" stroke-width="0.25" stroke-dasharray="1,5" d="M185.86,-376.39C192.67,-365.25 204.3,-344.81 210.51,-325.79 219.41,-298.55 224.25,-266.32 226.82,-242.65"/>
<polygon fill="green" stroke="green" stroke-width="0.25" points="230.29,-243.09 227.8,-232.79 223.33,-242.4 230.29,-243.09"/>
</g>
<!-- 12648 -->
<g id="node44" class="node">
<title>12648</title>
<ellipse fill="white" stroke="black" cx="310.51" cy="-208.12" rx="27.22" ry="27.22"/>
<text text-anchor="middle" x="310.51" y="-204.82" font-family="Times,serif" font-size="9.00">12648</text>
</g>
<!-- &#45;4&#45;&gt;12648 -->
<g id="edge52" class="edge">
<title>&#45;4&#45;&gt;12648</title>
<path fill="none" stroke="green" stroke-width="0.68" stroke-dasharray="1,5" d="M192.64,-383.98C220.91,-381.28 291.05,-370.19 320.51,-325.79 336.37,-301.88 331.71,-268.88 324.33,-244.08"/>
<polygon fill="green" stroke="green" stroke-width="0.68" points="327.68,-243.06 321.25,-234.64 321.02,-245.23 327.68,-243.06"/>
</g>
<!-- 13693 -->
<g id="node48" class="node">
<title>13693</title>
<ellipse fill="white" stroke="black" cx="284.51" cy="-298.57" rx="27.22" ry="27.22"/>
<text text-anchor="middle" x="284.51" y="-295.27" font-family="Times,serif" font-size="9.00">13693</text>
</g>
<!-- &#45;4&#45;&gt;13693 -->
<g id="edge67" class="edge">
<title>&#45;4&#45;&gt;13693</title>
<path fill="none" stroke="green" stroke-width="0.25" d="M190.86,-376.34C205.9,-364.02 234.34,-340.7 255.95,-322.98"/>
<polygon fill="green" stroke="green" stroke-width="0.25" points="258.05,-325.79 263.56,-316.74 253.61,-320.37 258.05,-325.79"/>
</g>
<!-- &#45;5 -->
<g id="node5" class="node">
<title>&#45;5</title>
<polygon fill="lightgray" stroke="black" points="542.26,-645.27 518.76,-645.27 518.76,-626.77 542.26,-626.77 542.26,-645.27"/>
<text text-anchor="middle" x="530.51" y="-632.72" font-family="Times,serif" font-size="9.00">&#45;5</text>
</g>
<!-- 12418 -->
<g id="node26" class="node">
<title>12418</title>
<ellipse fill="white" stroke="black" cx="585.51" cy="-473.1" rx="27.22" ry="27.22"/>
<text text-anchor="middle" x="585.51" y="-469.8" font-family="Times,serif" font-size="9.00">12418</text>
</g>
<!-- &#45;5&#45;&gt;12418 -->
<g id="edge51" class="edge">
<title>&#45;5&#45;&gt;12418</title>
<path fill="none" stroke="red" stroke-width="0.19" d="M531.21,-626.31C532.81,-608.78 537.61,-568.2 549.51,-536.32 553.52,-525.58 559.29,-514.53 565.04,-504.78"/>
<polygon fill="red" stroke="red" stroke-width="0.19" points="567.88,-506.84 570.11,-496.49 561.91,-503.19 567.88,-506.84"/>
</g>
<!-- 12972 -->
<g id="node34" class="node">
<title>12972</title>
<ellipse fill="white" stroke="black" cx="585.51" cy="-563.54" rx="27.22" ry="27.22"/>
<text text-anchor="middle" x="585.51" y="-560.24" font-family="Times,serif" font-size="9.00">12972</text>
</g>
<!-- &#45;5&#45;&gt;12972 -->
<g id="edge57" class="edge">
<title>&#45;5&#45;&gt;12972</title>
<path fill="none" stroke="red" stroke-width="0.42" stroke-dasharray="1,5" d="M537.25,-626.38C543.58,-618.27 553.41,-605.68 562.54,-593.97"/>
<polygon fill="red" stroke="red" stroke-width="0.42" points="565.23,-596.21 568.63,-586.18 559.72,-591.91 565.23,-596.21"/>
</g>
<!-- 11221 -->
<g id="node40" class="node">
<title>11221</title>
<ellipse fill="white" stroke="black" cx="463.51" cy="-27.22" rx="27.22" ry="27.22"/>
<text text-anchor="middle" x="463.51" y="-23.92" font-family="Times,serif" font-size="9.00">11221</text>
</g>
<!-- &#45;5&#45;&gt;11221 -->
<g id="edge50" class="edge">
<title>&#45;5&#45;&gt;11221</title>
<path fill="none" stroke="red" stroke-width="0.62" stroke-dasharray="1,5" d="M518.51,-629.63C482.44,-612.55 377.51,-555.82 377.51,-474.1 377.51,-474.1 377.51,-474.1 377.51,-384.83 377.51,-253.63 338.7,-206.71 399.51,-90.45 407.56,-75.05 420.84,-61.2 433.22,-50.5"/>
<polygon fill="red" stroke="red" stroke-width="0.62" points="435.36,-53.28 440.85,-44.21 430.91,-47.87 435.36,-53.28"/>
</g>
<!-- &#45;6 -->
<g id="node6" class="node">
<title>&#45;6</title>
<polygon fill="lightgray" stroke="black" points="519.26,-307.82 495.76,-307.82 495.76,-289.32 519.26,-289.32 519.26,-307.82"/>
<text text-anchor="middle" x="507.51" y="-295.27" font-family="Times,serif" font-size="9.00">&#45;6</text>
</g>
<!-- 12077 -->
<g id="node35" class="node">
<title>12077</title>
<ellipse fill="white" stroke="black" cx="435.51" cy="-117.67" rx="27.22" ry="27.22"/>
<text text-anchor="middle" x="435.51" y="-114.37" font-family="Times,serif" font-size="9.00">12077</text>
</g>
<!-- &#45;6&#45;&gt;12077 -->
<g id="edge42" class="edge">
<title>&#45;6&#45;&gt;12077</title>
<path fill="none" stroke="green" stroke-width="0.44" d="M504.04,-288.94C494.31,-264.77 466.4,-195.42 449.35,-153.05"/>
<polygon fill="green" stroke="green" stroke-width="0.44" points="452.7,-152.01 445.72,-144.04 446.21,-154.62 452.7,-152.01"/>
</g>
<!-- 11449 -->
<g id="node36" class="node">
<title>11449</title>
<ellipse fill="white" stroke="black" cx="676.51" cy="-208.12" rx="27.22" ry="27.22"/>
<text text-anchor="middle" x="676.51" y="-204.82" font-family="Times,serif" font-size="9.00">11449</text>
</g>
<!-- &#45;6&#45;&gt;11449 -->
<g id="edge56" class="edge">
<title>&#45;6&#45;&gt;11449</title>
<path fill="none" stroke="red" stroke-width="0.16" d="M519.75,-292.19C542.82,-281.94 594.12,-258.53 635.51,-235.34 638.9,-233.44 642.39,-231.38 645.84,-229.28"/>
<polygon fill="red" stroke="red" stroke-width="0.16" points="647.42,-232.42 654.04,-224.15 643.71,-226.48 647.42,-232.42"/>
</g>
<!-- 1995 -->
<g id="node39" class="node">
<title>1995</title>
<ellipse fill="white" stroke="black" cx="752.51" cy="-117.67" rx="24.04" ry="24.04"/>
<text text-anchor="middle" x="752.51" y="-114.37" font-family="Times,serif" font-size="9.00">1995</text>
</g>
<!-- &#45;6&#45;&gt;1995 -->
<g id="edge6" class="edge">
<title>&#45;6&#45;&gt;1995</title>
<path fill="none" stroke="red" stroke-width="0.36" stroke-dasharray="1,5" d="M515.52,-288.99C535.2,-268.27 588.15,-214.74 640.51,-180.89 672.92,-159.95 686.61,-165.05 719.51,-144.89 721.75,-143.52 724.01,-142.02 726.24,-140.45"/>
<polygon fill="red" stroke="red" stroke-width="0.36" points="728.25,-143.32 734.15,-134.53 724.05,-137.72 728.25,-143.32"/>
</g>
<!-- &#45;6&#45;&gt;11221 -->
<g id="edge33" class="edge">
<title>&#45;6&#45;&gt;11221</title>
<path fill="none" stroke="green" stroke-width="0.57" stroke-dasharray="1,5" d="M506.1,-288.91C500.52,-254.78 479.86,-128.29 469.5,-64.91"/>
<polygon fill="green" stroke="green" stroke-width="0.57" points="473.02,-64.73 467.95,-55.42 466.11,-65.86 473.02,-64.73"/>
</g>
<!-- &#45;6&#45;&gt;4326 -->
<g id="edge32" class="edge">
<title>&#45;6&#45;&gt;4326</title>
<path fill="none" stroke="red" stroke-width="0.13" d="M495.51,-295.53C460.47,-289.35 355.69,-269.12 274.51,-235.34 268.95,-233.03 263.23,-230.14 257.82,-227.14"/>
<polygon fill="red" stroke="red" stroke-width="0.13" points="259.66,-224.16 249.26,-222.15 256.14,-230.21 259.66,-224.16"/>
</g>
<!-- 4843 -->
<g id="node46" class="node">
<title>4843</title>
<ellipse fill="white" stroke="black" cx="417.51" cy="-208.12" rx="24.04" ry="24.04"/>
<text text-anchor="middle" x="417.51" y="-204.82" font-family="Times,serif" font-size="9.00">4843</text>
</g>
<!-- &#45;6&#45;&gt;4843 -->
<g id="edge12" class="edge">
<title>&#45;6&#45;&gt;4843</title>
<path fill="none" stroke="red" stroke-width="0.11" stroke-dasharray="1,5" d="M498.88,-289.08C485.83,-276.26 460.59,-251.45 441.66,-232.86"/>
<polygon fill="red" stroke="red" stroke-width="0.11" points="444.21,-230.45 434.62,-225.94 439.3,-235.44 444.21,-230.45"/>
</g>
<!-- 13551 -->
<g id="node47" class="node">
<title>13551</title>
<ellipse fill="white" stroke="black" cx="545.51" cy="-117.67" rx="27.22" ry="27.22"/>
<text text-anchor="middle" x="545.51" y="-114.37" font-family="Times,serif" font-size="9.00">13551</text>
</g>
<!-- &#45;6&#45;&gt;13551 -->
<g id="edge64" class="edge">
<title>&#45;6&#45;&gt;13551</title>
<path fill="none" stroke="green" stroke-width="0.72" stroke-dasharray="1,5" d="M509.46,-289.12C512.21,-277.17 517.36,-254.61 521.51,-235.34 527.27,-208.59 533.49,-178.31 538.15,-155.31"/>
<polygon fill="green" stroke="green" stroke-width="0.72" points="541.54,-156.22 540.09,-145.72 534.68,-154.83 541.54,-156.22"/>
</g>
<!-- &#45;7 -->
<g id="node7" class="node">
<title>&#45;7</title>
<polygon fill="lightgray" stroke="black" points="679.26,-645.27 655.76,-645.27 655.76,-626.77 679.26,-626.77 679.26,-645.27"/>
<text text-anchor="middle" x="667.51" y="-632.72" font-family="Times,serif" font-size="9.00">&#45;7</text>
</g>
<!-- &#45;8 -->
<g id="node8" class="node">
<title>&#45;8</title>
<polygon fill="lightgray" stroke="black" points="722.26,-645.27 698.76,-645.27 698.76,-626.77 722.26,-626.77 722.26,-645.27"/>
<text text-anchor="middle" x="710.51" y="-632.72" font-family="Times,serif" font-size="9.00">&#45;8</text>
</g>
<!-- &#45;9 -->
<g id="node9" class="node">
<title>&#45;9</title>
<polygon fill="lightgray" stroke="black" points="765.26,-645.27 741.76,-645.27 741.76,-626.77 765.26,-626.77 765.26,-645.27"/>
<text text-anchor="middle" x="753.51" y="-632.72" font-family="Times,serif" font-size="9.00">&#45;9</text>
</g>
<!-- &#45;10 -->
<g id="node10" class="node">
<title>&#45;10</title>
<polygon fill="lightgray" stroke="black" points="911.51,-307.82 883.51,-307.82 883.51,-289.32 911.51,-289.32 911.51,-307.82"/>
<text text-anchor="middle" x="897.51" y="-295.27" font-family="Times,serif" font-size="9.00">&#45;10</text>
</g>
<!-- 1 -->
<g id="node22" class="node">
<title>1</title>
<ellipse fill="lightblue" stroke="black" cx="895.51" cy="-208.12" rx="14.5" ry="14.5"/>
<text text-anchor="middle" x="895.51" y="-204.82" font-family="Times,serif" font-size="9.00">1</text>
</g>
<!-- &#45;10&#45;&gt;1 -->
<g id="edge10" class="edge">
<title>&#45;10&#45;&gt;1</title>
<path fill="none" stroke="green" stroke-width="0.99" stroke-dasharray="1,5" d="M897.32,-289.08C897.04,-276.59 896.5,-252.72 896.08,-234.3"/>
<polygon fill="green" stroke="green" stroke-width="0.99" points="899.58,-234.3 895.86,-224.38 892.58,-234.46 899.58,-234.3"/>
</g>
<!-- &#45;11 -->
<g id="node11" class="node">
<title>&#45;11</title>
<polygon fill="lightgray" stroke="black" points="49.51,-307.82 21.51,-307.82 21.51,-289.32 49.51,-289.32 49.51,-307.82"/>
<text text-anchor="middle" x="35.51" y="-295.27" font-family="Times,serif" font-size="9.00">&#45;11</text>
</g>
<!-- &#45;11&#45;&gt;2 -->
<g id="edge71" class="edge">
<title>&#45;11&#45;&gt;2</title>
<path fill="none" stroke="green" stroke-width="0.49" d="M33.69,-289.08C30.94,-276.28 25.62,-251.52 21.63,-232.93"/>
<polygon fill="green" stroke="green" stroke-width="0.49" points="25.08,-232.34 19.56,-223.3 18.24,-233.81 25.08,-232.34"/>
</g>
<!-- &#45;12 -->
<g id="node12" class="node">
<title>&#45;12</title>
<polygon fill="lightgray" stroke="black" points="811.51,-645.27 783.51,-645.27 783.51,-626.77 811.51,-626.77 811.51,-645.27"/>
<text text-anchor="middle" x="797.51" y="-632.72" font-family="Times,serif" font-size="9.00">&#45;12</text>
</g>
<!-- 10431 -->
<g id="node38" class="node">
<title>10431</title>
<ellipse fill="white" stroke="black" cx="797.51" cy="-563.54" rx="27.22" ry="27.22"/>
<text text-anchor="middle" x="797.51" y="-560.24" font-family="Times,serif" font-size="9.00">10431</text>
</g>
<!-- &#45;12&#45;&gt;10431 -->
<g id="edge29" class="edge">
<title>&#45;12&#45;&gt;10431</title>
<path fill="none" stroke="red" stroke-width="0.29" stroke-dasharray="1,5" d="M797.51,-626.38C797.51,-620.02 797.51,-610.9 797.51,-601.62"/>
<polygon fill="red" stroke="red" stroke-width="0.29" points="801.01,-601.64 797.51,-591.64 794.01,-601.64 801.01,-601.64"/>
</g>
<!-- &#45;13 -->
<g id="node13" class="node">
<title>&#45;13</title>
<polygon fill="lightgray" stroke="black" points="763.51,-395.08 735.51,-395.08 735.51,-376.58 763.51,-376.58 763.51,-395.08"/>
<text text-anchor="middle" x="749.51" y="-382.53" font-family="Times,serif" font-size="9.00">&#45;13</text>
</g>
<!-- 3 -->
<g id="node24" class="node">
<title>3</title>
<ellipse fill="lightblue" stroke="black" cx="773.51" cy="-208.12" rx="14.5" ry="14.5"/>
<text text-anchor="middle" x="773.51" y="-204.82" font-family="Times,serif" font-size="9.00">3</text>
</g>
<!-- &#45;13&#45;&gt;3 -->
<g id="edge17" class="edge">
<title>&#45;13&#45;&gt;3</title>
<path fill="none" stroke="green" stroke-width="0.21" stroke-dasharray="1,5" d="M753.75,-376.29C759.08,-365.05 767.97,-344.49 771.51,-325.79 777.49,-294.17 776.82,-256.87 775.45,-233.11"/>
<polygon fill="green" stroke="green" stroke-width="0.21" points="778.95,-232.98 774.79,-223.23 771.96,-233.45 778.95,-232.98"/>
</g>
<!-- 12705 -->
<g id="node31" class="node">
<title>12705</title>
<ellipse fill="white" stroke="black" cx="689.51" cy="-298.57" rx="27.22" ry="27.22"/>
<text text-anchor="middle" x="689.51" y="-295.27" font-family="Times,serif" font-size="9.00">12705</text>
</g>
<!-- &#45;13&#45;&gt;12705 -->
<g id="edge55" class="edge">
<title>&#45;13&#45;&gt;12705</title>
<path fill="none" stroke="red" stroke-width="0.18" d="M743.54,-376.34C735.92,-365.51 722.32,-346.19 710.67,-329.64"/>
<polygon fill="red" stroke="red" stroke-width="0.18" points="713.58,-327.69 704.96,-321.53 707.86,-331.72 713.58,-327.69"/>
</g>
<!-- 8747 -->
<g id="node33" class="node">
<title>8747</title>
<ellipse fill="white" stroke="black" cx="620.51" cy="-298.57" rx="24.04" ry="24.04"/>
<text text-anchor="middle" x="620.51" y="-295.27" font-family="Times,serif" font-size="9.00">8747</text>
</g>
<!-- &#45;13&#45;&gt;8747 -->
<g id="edge20" class="edge">
<title>&#45;13&#45;&gt;8747</title>
<path fill="none" stroke="red" stroke-width="0.3" d="M735.18,-376.74C716.11,-365.82 681.55,-345.44 653.51,-325.79 651.36,-324.28 649.17,-322.68 646.98,-321.05"/>
<polygon fill="red" stroke="red" stroke-width="0.3" points="649.13,-318.29 639.08,-314.95 644.86,-323.83 649.13,-318.29"/>
</g>
<!-- &#45;13&#45;&gt;3423 -->
<g id="edge9" class="edge">
<title>&#45;13&#45;&gt;3423</title>
<path fill="none" stroke="green" stroke-width="0.53" stroke-dasharray="1,5" d="M763.62,-384.49C796.65,-382.89 879.27,-374 920.51,-325.79 962.21,-277.04 964.11,-197.7 961.19,-152.69"/>
<polygon fill="green" stroke="green" stroke-width="0.53" points="964.69,-152.53 960.43,-142.83 957.71,-153.07 964.69,-152.53"/>
</g>
<!-- &#45;14 -->
<g id="node14" class="node">
<title>&#45;14</title>
<polygon fill="lightgray" stroke="black" points="696.51,-395.08 668.51,-395.08 668.51,-376.58 696.51,-376.58 696.51,-395.08"/>
<text text-anchor="middle" x="682.51" y="-382.53" font-family="Times,serif" font-size="9.00">&#45;14</text>
</g>
<!-- &#45;14&#45;&gt;8747 -->
<g id="edge41" class="edge">
<title>&#45;14&#45;&gt;8747</title>
<path fill="none" stroke="green" stroke-width="0.16" d="M676.34,-376.34C667.97,-364.83 652.63,-343.74 640.14,-326.57"/>
<polygon fill="green" stroke="green" stroke-width="0.16" points="643.14,-324.73 634.43,-318.7 637.48,-328.85 643.14,-324.73"/>
</g>
<!-- &#45;15 -->
<g id="node15" class="node">
<title>&#45;15</title>
<polygon fill="lightgray" stroke="black" points="710.51,-126.92 682.51,-126.92 682.51,-108.42 710.51,-108.42 710.51,-126.92"/>
<text text-anchor="middle" x="696.51" y="-114.37" font-family="Times,serif" font-size="9.00">&#45;15</text>
</g>
<!-- 0 -->
<g id="node21" class="node">
<title>0</title>
<ellipse fill="lightblue" stroke="black" cx="975.51" cy="-27.22" rx="14.5" ry="14.5"/>
<text text-anchor="middle" x="975.51" y="-23.92" font-family="Times,serif" font-size="9.00">0</text>
</g>
<!-- &#45;15&#45;&gt;0 -->
<g id="edge40" class="edge">
<title>&#45;15&#45;&gt;0</title>
<path fill="none" stroke="red" stroke-width="0.94" d="M701.93,-108.1C706.06,-102.27 712.26,-94.84 719.51,-90.45 794.55,-45 900.85,-32.72 949.45,-29.43"/>
<polygon fill="red" stroke="red" stroke-width="0.94" points="949.57,-32.92 959.34,-28.84 949.15,-25.94 949.57,-32.92"/>
</g>
<!-- &#45;16 -->
<g id="node16" class="node">
<title>&#45;16</title>
<polygon fill="lightgray" stroke="black" points="752.51,-572.79 724.51,-572.79 724.51,-554.29 752.51,-554.29 752.51,-572.79"/>
<text text-anchor="middle" x="738.51" y="-560.24" font-family="Times,serif" font-size="9.00">&#45;16</text>
</g>
<!-- &#45;16&#45;&gt;12418 -->
<g id="edge48" class="edge">
<title>&#45;16&#45;&gt;12418</title>
<path fill="none" stroke="green" stroke-width="0.79" d="M724.21,-554.96C702.76,-543.51 661.08,-520.95 626.51,-500.32 623.46,-498.5 620.31,-496.57 617.17,-494.62"/>
<polygon fill="green" stroke="green" stroke-width="0.79" points="619.25,-491.79 608.92,-489.41 615.51,-497.71 619.25,-491.79"/>
</g>
<!-- &#45;16&#45;&gt;1033 -->
<g id="edge3" class="edge">
<title>&#45;16&#45;&gt;1033</title>
<path fill="none" stroke="green" stroke-width="0.47" d="M743.63,-554.01C747.7,-548.03 753.95,-540.41 761.51,-536.32 862.2,-481.9 929.37,-574.53 1016.51,-500.32 1064.72,-459.26 1068.75,-379.08 1066.63,-333.45"/>
<polygon fill="green" stroke="green" stroke-width="0.47" points="1070.13,-333.4 1066.04,-323.62 1063.15,-333.81 1070.13,-333.4"/>
</g>
<!-- &#45;16&#45;&gt;8747 -->
<g id="edge66" class="edge">
<title>&#45;16&#45;&gt;8747</title>
<path fill="none" stroke="red" stroke-width="0.29" stroke-dasharray="1,5" d="M733.44,-553.8C720.21,-530.77 683.94,-466.29 659.51,-409.87 648.36,-384.13 637.89,-354.05 630.61,-331.81"/>
<polygon fill="red" stroke="red" stroke-width="0.29" points="633.94,-330.75 627.54,-322.31 627.28,-332.9 633.94,-330.75"/>
</g>
<!-- 5437 -->
<g id="node37" class="node">
<title>5437</title>
<ellipse fill="white" stroke="black" cx="993.51" cy="-385.83" rx="24.04" ry="24.04"/>
<text text-anchor="middle" x="993.51" y="-382.53" font-family="Times,serif" font-size="9.00">5437</text>
</g>
<!-- &#45;16&#45;&gt;5437 -->
<g id="edge34" class="edge">
<title>&#45;16&#45;&gt;5437</title>
<path fill="none" stroke="green" stroke-width="0.11" d="M744.81,-554.19C749.16,-548.74 755.26,-541.68 761.51,-536.32 841.09,-468.14 873.31,-467.98 960.51,-409.87 962.31,-408.68 964.15,-407.43 966,-406.17"/>
<polygon fill="green" stroke="green" stroke-width="0.11" points="967.68,-409.27 973.93,-400.71 963.71,-403.5 967.68,-409.27"/>
</g>
<!-- &#45;17 -->
<g id="node17" class="node">
<title>&#45;17</title>
<polygon fill="lightgray" stroke="black" points="1171.51,-307.82 1143.51,-307.82 1143.51,-289.32 1171.51,-289.32 1171.51,-307.82"/>
<text text-anchor="middle" x="1157.51" y="-295.27" font-family="Times,serif" font-size="9.00">&#45;17</text>
</g>
<!-- &#45;17&#45;&gt;0 -->
<g id="edge23" class="edge">
<title>&#45;17&#45;&gt;0</title>
<path fill="none" stroke="red" stroke-width="0.52" d="M1158.68,-288.93C1162.36,-258.18 1170.69,-152.52 1121.51,-90.45 1091.36,-52.39 1033.54,-37.24 1000.42,-31.5"/>
<polygon fill="red" stroke="red" stroke-width="0.52" points="1001.02,-28.05 990.6,-29.96 999.94,-34.96 1001.02,-28.05"/>
</g>
<!-- &#45;17&#45;&gt;3 -->
<g id="edge14" class="edge">
<title>&#45;17&#45;&gt;3</title>
<path fill="none" stroke="green" stroke-width="0.17" stroke-dasharray="1,5" d="M1143.34,-290.28C1131.2,-284.34 1113.12,-276.16 1096.51,-271.34 999.68,-243.22 971.15,-256.28 872.51,-235.34 846.56,-229.83 817.24,-221.84 797.28,-216.13"/>
<polygon fill="green" stroke="green" stroke-width="0.17" points="798.32,-212.79 787.74,-213.37 796.38,-219.51 798.32,-212.79"/>
</g>
<!-- &#45;17&#45;&gt;9449 -->
<g id="edge31" class="edge">
<title>&#45;17&#45;&gt;9449</title>
<path fill="none" stroke="red" stroke-width="0.25" stroke-dasharray="1,5" d="M1152.33,-289.08C1145.16,-277.34 1131.87,-255.56 1120.96,-237.69"/>
<polygon fill="red" stroke="red" stroke-width="0.25" points="1124.22,-236.33 1116.02,-229.61 1118.25,-239.97 1124.22,-236.33"/>
</g>
<!-- &#45;18 -->
<g id="node18" class="node">
<title>&#45;18</title>
<polygon fill="lightgray" stroke="black" points="865.51,-307.82 837.51,-307.82 837.51,-289.32 865.51,-289.32 865.51,-307.82"/>
<text text-anchor="middle" x="851.51" y="-295.27" font-family="Times,serif" font-size="9.00">&#45;18</text>
</g>
<!-- &#45;18&#45;&gt;1 -->
<g id="edge4" class="edge">
<title>&#45;18&#45;&gt;1</title>
<path fill="none" stroke="green" stroke-width="0.4" stroke-dasharray="1,5" d="M855.73,-289.08C862.33,-275.82 875.31,-249.73 884.65,-230.95"/>
<polygon fill="green" stroke="green" stroke-width="0.4" points="887.68,-232.71 889,-222.2 881.42,-229.59 887.68,-232.71"/>
</g>
<!-- 11279 -->
<g id="node29" class="node">
<title>11279</title>
<ellipse fill="white" stroke="black" cx="870.51" cy="-117.67" rx="27.22" ry="27.22"/>
<text text-anchor="middle" x="870.51" y="-114.37" font-family="Times,serif" font-size="9.00">11279</text>
</g>
<!-- &#45;18&#45;&gt;11279 -->
<g id="edge63" class="edge">
<title>&#45;18&#45;&gt;11279</title>
<path fill="none" stroke="red" stroke-width="0.43" d="M852.43,-288.94C854.94,-265.24 862.07,-198.13 866.59,-155.58"/>
<polygon fill="red" stroke="red" stroke-width="0.43" points="870.06,-156.03 867.64,-145.71 863.1,-155.29 870.06,-156.03"/>
</g>
<!-- &#45;18&#45;&gt;1995 -->
<g id="edge11" class="edge">
<title>&#45;18&#45;&gt;1995</title>
<path fill="none" stroke="red" stroke-width="0.25" d="M848.13,-289.11C840.16,-269.53 819.19,-219.77 796.51,-180.89 789.46,-168.81 780.73,-156.09 772.91,-145.33"/>
<polygon fill="red" stroke="red" stroke-width="0.25" points="775.86,-143.44 767.11,-137.47 770.23,-147.59 775.86,-143.44"/>
</g>
<!-- &#45;19 -->
<g id="node19" class="node">
<title>&#45;19</title>
<polygon fill="lightgray" stroke="black" points="857.51,-645.27 829.51,-645.27 829.51,-626.77 857.51,-626.77 857.51,-645.27"/>
<text text-anchor="middle" x="843.51" y="-632.72" font-family="Times,serif" font-size="9.00">&#45;19</text>
</g>
<!-- &#45;20 -->
<g id="node20" class="node">
<title>&#45;20</title>
<polygon fill="lightgray" stroke="black" points="762.51,-307.82 734.51,-307.82 734.51,-289.32 762.51,-289.32 762.51,-307.82"/>
<text text-anchor="middle" x="748.51" y="-295.27" font-family="Times,serif" font-size="9.00">&#45;20</text>
</g>
<!-- &#45;20&#45;&gt;0 -->
<g id="edge30" class="edge">
<title>&#45;20&#45;&gt;0</title>
<path fill="none" stroke="green" stroke-width="0.16" stroke-dasharray="1,5" d="M742.49,-288.86C738.26,-283.26 732.19,-276.17 725.51,-271.34 692.26,-247.31 663.17,-269.54 640.51,-235.34 604.04,-180.28 623.51,-133.6 673.51,-90.45 715.36,-54.32 886.28,-35.98 950.74,-30.25"/>
<polygon fill="green" stroke="green" stroke-width="0.16" points="950.91,-33.75 960.57,-29.4 950.31,-26.77 950.91,-33.75"/>
</g>
<!-- &#45;20&#45;&gt;1 -->
<g id="edge62" class="edge">
<title>&#45;20&#45;&gt;1</title>
<path fill="none" stroke="green" stroke-width="0.35" d="M762.87,-288.92C788.95,-273.23 844.18,-240.01 874.5,-221.76"/>
<polygon fill="green" stroke="green" stroke-width="0.35" points="876.18,-224.83 882.95,-216.68 872.57,-218.83 876.18,-224.83"/>
</g>
<!-- &#45;20&#45;&gt;11449 -->
<g id="edge37" class="edge">
<title>&#45;20&#45;&gt;11449</title>
<path fill="none" stroke="red" stroke-width="0.1" stroke-dasharray="1,5" d="M741.61,-289.08C731.94,-277.21 713.9,-255.05 699.26,-237.06"/>
<polygon fill="red" stroke="red" stroke-width="0.1" points="702.36,-235.32 693.33,-229.78 696.93,-239.74 702.36,-235.32"/>
</g>
<!-- &#45;20&#45;&gt;1995 -->
<g id="edge5" class="edge">
<title>&#45;20&#45;&gt;1995</title>
<path fill="none" stroke="red" stroke-width="0.41" stroke-dasharray="1,5" d="M748.61,-289.07C748.85,-269.83 749.51,-221.4 750.51,-180.89 750.74,-171.65 751.04,-161.64 751.33,-152.4"/>
<polygon fill="red" stroke="red" stroke-width="0.41" points="754.83,-152.74 751.66,-142.63 747.83,-152.51 754.83,-152.74"/>
</g>
<!-- 1&#45;&gt;3423 -->
<g id="edge36" class="edge">
<title>1&#45;&gt;3423</title>
<path fill="none" stroke="green" stroke-width="0.31" stroke-dasharray="1,5" d="M903.62,-195.56C912.34,-183.11 926.52,-162.88 938.15,-146.29"/>
<polygon fill="green" stroke="green" stroke-width="0.31" points="940.81,-148.59 943.68,-138.4 935.08,-144.58 940.81,-148.59"/>
</g>
<!-- 3&#45;&gt;1995 -->
<g id="edge22" class="edge">
<title>3&#45;&gt;1995</title>
<path fill="none" stroke="red" stroke-width="0.32" stroke-dasharray="1,5" d="M770.32,-193.68C767.68,-182.56 763.82,-166.28 760.36,-151.73"/>
<polygon fill="red" stroke="red" stroke-width="0.32" points="763.77,-150.93 758.05,-142.01 756.96,-152.55 763.77,-150.93"/>
</g>
<!-- 4 -->
<g id="node25" class="node">
<title>4</title>
<ellipse fill="lightblue" stroke="black" cx="993.51" cy="-473.1" rx="14.5" ry="14.5"/>
<text text-anchor="middle" x="993.51" y="-469.8" font-family="Times,serif" font-size="9.00">4</text>
</g>
<!-- 4&#45;&gt;5437 -->
<g id="edge19" class="edge">
<title>4&#45;&gt;5437</title>
<path fill="none" stroke="green" stroke-width="0.24" stroke-dasharray="1,5" d="M993.51,-458.4C993.51,-448.14 993.51,-433.67 993.51,-420.41"/>
<polygon fill="green" stroke="green" stroke-width="0.24" points="997.01,-420.5 993.51,-410.5 990.01,-420.5 997.01,-420.5"/>
</g>
<!-- 12418&#45;&gt;5437 -->
<g id="edge49" class="edge">
<title>12418&#45;&gt;5437</title>
<path fill="none" stroke="green" stroke-width="0.17" stroke-dasharray="1,5" d="M612.64,-468.3C693.32,-456.92 928.2,-423.04 960.51,-409.87 962.56,-409.04 964.61,-408.05 966.63,-406.98"/>
<polygon fill="green" stroke="green" stroke-width="0.17" points="968.22,-410.1 974.94,-401.91 964.58,-404.12 968.22,-410.1"/>
</g>
<!-- 1033&#45;&gt;8347 -->
<g id="edge28" class="edge">
<title>1033&#45;&gt;8347</title>
<path fill="none" stroke="green" stroke-width="0.22" stroke-dasharray="1,5" d="M1048.29,-279.78C1024,-252.81 973.57,-202.46 918.51,-180.89 810.87,-138.72 513.27,-165.53 399.51,-144.89 380.68,-141.48 360.15,-135.5 343.66,-130.11"/>
<polygon fill="green" stroke="green" stroke-width="0.22" points="344.88,-126.83 334.29,-126.97 342.66,-133.46 344.88,-126.83"/>
</g>
<!-- 1033&#45;&gt;3423 -->
<g id="edge8" class="edge">
<title>1033&#45;&gt;3423</title>
<path fill="none" stroke="green" stroke-width="0.64" d="M1060.19,-274.52C1055.8,-249.79 1046.32,-210.13 1027.51,-180.89 1016.73,-164.13 1000.22,-149.16 985.95,-138.1"/>
<polygon fill="green" stroke="green" stroke-width="0.64" points="988.31,-135.5 978.2,-132.33 984.13,-141.11 988.31,-135.5"/>
</g>
<!-- 1033&#45;&gt;9449 -->
<g id="edge25" class="edge">
<title>1033&#45;&gt;9449</title>
<path fill="none" stroke="green" stroke-width="0.69" d="M1073.19,-276.15C1078.02,-265.48 1083.96,-252.36 1089.29,-240.57"/>
<polygon fill="green" stroke="green" stroke-width="0.69" points="1092.41,-242.15 1093.35,-231.6 1086.04,-239.26 1092.41,-242.15"/>
</g>
<!-- 11279&#45;&gt;0 -->
<g id="edge35" class="edge">
<title>11279&#45;&gt;0</title>
<path fill="none" stroke="green" stroke-width="0.17" d="M891.01,-99.41C910.15,-83.28 938.49,-59.41 956.98,-43.83"/>
<polygon fill="green" stroke="green" stroke-width="0.17" points="959.12,-46.61 964.51,-37.49 954.61,-41.25 959.12,-46.61"/>
</g>
<!-- 8347&#45;&gt;12247 -->
<g id="edge54" class="edge">
<title>8347&#45;&gt;12247</title>
<path fill="none" stroke="green" stroke-width="0.63" d="M311.51,-93.43C311.51,-84.9 311.51,-75.01 311.51,-65.55"/>
<polygon fill="green" stroke="green" stroke-width="0.63" points="315.01,-65.7 311.51,-55.7 308.01,-65.7 315.01,-65.7"/>
</g>
<!-- 13862 -->
<g id="node32" class="node">
<title>13862</title>
<ellipse fill="white" stroke="black" cx="1064.51" cy="-117.67" rx="27.22" ry="27.22"/>
<text text-anchor="middle" x="1064.51" y="-114.37" font-family="Times,serif" font-size="9.00">13862</text>
</g>
<!-- 13862&#45;&gt;0 -->
<g id="edge70" class="edge">
<title>13862&#45;&gt;0</title>
<path fill="none" stroke="green" stroke-width="0.34" d="M1045.64,-97.91C1029.99,-82.37 1007.94,-60.45 992.77,-45.37"/>
<polygon fill="green" stroke="green" stroke-width="0.34" points="995.45,-43.1 985.89,-38.54 990.52,-48.07 995.45,-43.1"/>
</g>
<!-- 8747&#45;&gt;3 -->
<g id="edge21" class="edge">
<title>8747&#45;&gt;3</title>
<path fill="none" stroke="green" stroke-width="0.5" d="M638.54,-282.21C643.28,-278.47 648.47,-274.6 653.51,-271.34 685.91,-250.35 726.22,-230.64 750.9,-219.24"/>
<polygon fill="green" stroke="green" stroke-width="0.5" points="752.12,-222.53 759.76,-215.19 749.21,-216.16 752.12,-222.53"/>
</g>
<!-- 8747&#45;&gt;12648 -->
<g id="edge72" class="edge">
<title>8747&#45;&gt;12648</title>
<path fill="none" stroke="red" stroke-width="0.18" d="M597.51,-290.78C578.93,-285.36 552.1,-277.65 528.51,-271.34 464.78,-254.3 447.67,-254.38 384.51,-235.34 371.64,-231.46 357.7,-226.68 345.43,-222.26"/>
<polygon fill="red" stroke="red" stroke-width="0.18" points="346.85,-219.06 336.26,-218.92 344.45,-225.63 346.85,-219.06"/>
</g>
<!-- 12972&#45;&gt;12418 -->
<g id="edge58" class="edge">
<title>12972&#45;&gt;12418</title>
<path fill="none" stroke="red" stroke-width="0.31" stroke-dasharray="1,5" d="M585.51,-536.01C585.51,-528.13 585.51,-519.37 585.51,-510.97"/>
<polygon fill="red" stroke="red" stroke-width="0.31" points="589.01,-511.08 585.51,-501.08 582.01,-511.08 589.01,-511.08"/>
</g>
<!-- 12077&#45;&gt;11221 -->
<g id="edge43" class="edge">
<title>12077&#45;&gt;11221</title>
<path fill="none" stroke="red" stroke-width="0.18" stroke-dasharray="1,5" d="M443.46,-91.56C446.24,-82.77 449.42,-72.73 452.42,-63.27"/>
<polygon fill="red" stroke="red" stroke-width="0.18" points="455.68,-64.55 455.36,-53.96 449.01,-62.44 455.68,-64.55"/>
</g>
<!-- 11449&#45;&gt;1995 -->
<g id="edge38" class="edge">
<title>11449&#45;&gt;1995</title>
<path fill="none" stroke="green" stroke-width="0.23" d="M693.76,-187.05C704.67,-174.35 718.87,-157.82 730.58,-144.2"/>
<polygon fill="green" stroke="green" stroke-width="0.23" points="733.05,-146.69 736.91,-136.82 727.74,-142.13 733.05,-146.69"/>
</g>
<!-- 5437&#45;&gt;1033 -->
<g id="edge27" class="edge">
<title>5437&#45;&gt;1033</title>
<path fill="none" stroke="red" stroke-width="0.74" stroke-dasharray="1,5" d="M1008.36,-366.75C1018.03,-354.96 1030.83,-339.37 1041.66,-326.18"/>
<polygon fill="red" stroke="red" stroke-width="0.74" points="1044.09,-328.73 1047.73,-318.78 1038.68,-324.29 1044.09,-328.73"/>
</g>
<!-- 5437&#45;&gt;5437 -->
<g id="edge15" class="edge">
<title>5437&#45;&gt;5437</title>
<path fill="none" stroke="red" stroke-width="0.17" d="M1012.53,-401.04C1024.33,-404.71 1035.55,-399.64 1035.55,-385.83 1035.55,-376.12 1030,-370.74 1022.61,-369.67"/>
<polygon fill="red" stroke="red" stroke-width="0.17" points="1022.42,-366.17 1012.79,-370.6 1023.08,-373.14 1022.42,-366.17"/>
</g>
<!-- 12648&#45;&gt;8347 -->
<g id="edge53" class="edge">
<title>12648&#45;&gt;8347</title>
<path fill="none" stroke="green" stroke-width="0.94" d="M310.81,-180.58C310.91,-172.09 311.01,-162.56 311.12,-153.56"/>
<polygon fill="green" stroke="green" stroke-width="0.94" points="314.62,-153.65 311.23,-143.61 307.62,-153.57 314.62,-153.65"/>
</g>
<!-- 9449&#45;&gt;0 -->
<g id="edge47" class="edge">
<title>9449&#45;&gt;0</title>
<path fill="none" stroke="green" stroke-width="0.36" d="M1109.36,-184.51C1114.48,-159.45 1118.59,-118.81 1100.51,-90.45 1078.12,-55.31 1029.44,-39.3 999.87,-32.58"/>
<polygon fill="green" stroke="green" stroke-width="0.36" points="1000.96,-29.23 990.46,-30.62 999.53,-36.08 1000.96,-29.23"/>
</g>
<!-- 9449&#45;&gt;13862 -->
<g id="edge69" class="edge">
<title>9449&#45;&gt;13862</title>
<path fill="none" stroke="green" stroke-width="0.45" d="M1094.07,-185.71C1089.68,-175.74 1084.34,-163.65 1079.42,-152.49"/>
<polygon fill="green" stroke="green" stroke-width="0.45" points="1082.75,-151.36 1075.51,-143.62 1076.35,-154.19 1082.75,-151.36"/>
</g>
<!-- 9449&#45;&gt;12247 -->
<g id="edge46" class="edge">
<title>9449&#45;&gt;12247</title>
<path fill="none" stroke="red" stroke-width="0.11" stroke-dasharray="1,5" d="M1084.1,-193.32C1068.19,-181.48 1045.58,-163.45 1028.51,-144.89 1008.53,-123.18 1016.23,-104.92 990.51,-90.45 881.26,-28.96 551.6,-72.33 427.51,-54.45 400.27,-50.52 369.96,-43.58 347.15,-37.82"/>
<polygon fill="red" stroke="red" stroke-width="0.11" points="348.27,-34.49 337.71,-35.4 346.53,-41.27 348.27,-34.49"/>
</g>
<!-- 9449&#45;&gt;3423 -->
<g id="edge26" class="edge">
<title>9449&#45;&gt;3423</title>
<path fill="none" stroke="green" stroke-width="0.24" stroke-dasharray="1,5" d="M1084.5,-193.28C1078.52,-189.14 1071.84,-184.68 1065.51,-180.89 1035.5,-162.92 1025.53,-162.87 995.51,-144.89 992.05,-142.82 988.48,-140.55 984.98,-138.24"/>
<polygon fill="green" stroke="green" stroke-width="0.24" points="987.07,-135.43 976.83,-132.71 983.14,-141.22 987.07,-135.43"/>
</g>
<!-- 4843&#45;&gt;8347 -->
<g id="edge18" class="edge">
<title>4843&#45;&gt;8347</title>
<path fill="none" stroke="red" stroke-width="0.15" stroke-dasharray="1,5" d="M399.53,-192.11C382.47,-177.88 356.66,-156.34 337.39,-140.27"/>
<polygon fill="red" stroke="red" stroke-width="0.15" points="339.68,-137.62 329.76,-133.9 335.19,-142.99 339.68,-137.62"/>
</g>
<!-- 4843&#45;&gt;12077 -->
<g id="edge45" class="edge">
<title>4843&#45;&gt;12077</title>
<path fill="none" stroke="red" stroke-width="0.14" stroke-dasharray="1,5" d="M422.15,-184.34C423.99,-175.28 426.16,-164.64 428.2,-154.59"/>
<polygon fill="red" stroke="red" stroke-width="0.14" points="431.58,-155.51 430.15,-145.02 424.73,-154.12 431.58,-155.51"/>
</g>
<!-- 13551&#45;&gt;11221 -->
<g id="edge65" class="edge">
<title>13551&#45;&gt;11221</title>
<path fill="none" stroke="green" stroke-width="0.21" stroke-dasharray="1,5" d="M527.31,-97.04C515.85,-84.67 500.89,-68.54 488.34,-55.01"/>
<polygon fill="green" stroke="green" stroke-width="0.21" points="491.24,-52.99 481.87,-48.03 486.11,-57.74 491.24,-52.99"/>
</g>
<!-- 13693&#45;&gt;12648 -->
<g id="edge68" class="edge">
<title>13693&#45;&gt;12648</title>
<path fill="none" stroke="green" stroke-width="0.64" d="M292.03,-271.98C294.51,-263.55 297.32,-254.01 299.98,-244.95"/>
<polygon fill="green" stroke="green" stroke-width="0.64" points="303.27,-246.15 302.73,-235.57 296.56,-244.18 303.27,-246.15"/>
</g>
</g>
</svg>
