<?xml version="1.0" encoding="UTF-8" standalone="no"?>
<!DOCTYPE svg PUBLIC "-//W3C//DTD SVG 1.1//EN"
 "http://www.w3.org/Graphics/SVG/1.1/DTD/svg11.dtd">
<!-- Generated by graphviz version 12.1.1 (20240910.0053)
 -->
<!-- Pages: 1 -->
<svg width="1526pt" height="605pt"
 viewBox="0.00 0.00 1525.68 605.13" xmlns="http://www.w3.org/2000/svg" xmlns:xlink="http://www.w3.org/1999/xlink">
<g id="graph0" class="graph" transform="scale(1 1) rotate(0) translate(4 601.13)">
<polygon fill="white" stroke="none" points="-4,4 -4,-601.13 1521.68,-601.13 1521.68,4 -4,4"/>
<!-- &#45;1 -->
<g id="node1" class="node">
<title>&#45;1</title>
<polygon fill="lightgray" stroke="black" points="432.21,-579.16 408.71,-579.16 408.71,-560.66 432.21,-560.66 432.21,-579.16"/>
<text text-anchor="middle" x="420.46" y="-566.61" font-family="Times,serif" font-size="9.00">&#45;1</text>
</g>
<!-- &#45;2 -->
<g id="node2" class="node">
<title>&#45;2</title>
<polygon fill="lightgray" stroke="black" points="842.21,-307.82 818.71,-307.82 818.71,-289.32 842.21,-289.32 842.21,-307.82"/>
<text text-anchor="middle" x="830.46" y="-295.27" font-family="Times,serif" font-size="9.00">&#45;2</text>
</g>
<!-- 2 -->
<g id="node23" class="node">
<title>2</title>
<ellipse fill="lightblue" stroke="black" cx="958.46" cy="-27.22" rx="14.5" ry="14.5"/>
<text text-anchor="middle" x="958.46" y="-23.92" font-family="Times,serif" font-size="9.00">2</text>
</g>
<!-- &#45;2&#45;&gt;2 -->
<g id="edge10" class="edge">
<title>&#45;2&#45;&gt;2</title>
<path fill="none" stroke="red" stroke-width="0.35" d="M835.94,-289C839.79,-283.47 845.33,-276.38 851.46,-271.34 878.18,-249.37 896.92,-260.69 920.46,-235.34 967.73,-184.44 965.76,-94.99 961.61,-52.26"/>
<polygon fill="red" stroke="red" stroke-width="0.35" points="965.11,-52.07 960.53,-42.51 958.15,-52.83 965.11,-52.07"/>
</g>
<!-- 4 -->
<g id="node25" class="node">
<title>4</title>
<ellipse fill="lightblue" stroke="black" cx="694.46" cy="-208.12" rx="14.5" ry="14.5"/>
<text text-anchor="middle" x="694.46" y="-204.82" font-family="Times,serif" font-size="9.00">4</text>
</g>
<!-- &#45;2&#45;&gt;4 -->
<g id="edge58" class="edge">
<title>&#45;2&#45;&gt;4</title>
<path fill="none" stroke="green" stroke-width="0.57" d="M818.24,-292.36C796.78,-282.89 751.45,-261.39 718.46,-235.34 715.65,-233.12 712.88,-230.56 710.28,-227.93"/>
<polygon fill="green" stroke="green" stroke-width="0.57" points="713.01,-225.74 703.68,-220.72 707.85,-230.46 713.01,-225.74"/>
</g>
<!-- 14940 -->
<g id="node49" class="node">
<title>14940</title>
<ellipse fill="white" stroke="black" cx="771.46" cy="-117.67" rx="27.22" ry="27.22"/>
<text text-anchor="middle" x="771.46" y="-114.37" font-family="Times,serif" font-size="9.00">14940</text>
</g>
<!-- &#45;2&#45;&gt;14940 -->
<g id="edge78" class="edge">
<title>&#45;2&#45;&gt;14940</title>
<path fill="none" stroke="red" stroke-width="0.16" d="M833.39,-288.92C839.64,-268.93 852.47,-218.39 836.46,-180.89 829.35,-164.24 815.34,-149.91 802.15,-139.21"/>
<polygon fill="red" stroke="red" stroke-width="0.16" points="804.36,-136.49 794.3,-133.18 800.1,-142.04 804.36,-136.49"/>
</g>
<!-- &#45;3 -->
<g id="node3" class="node">
<title>&#45;3</title>
<polygon fill="lightgray" stroke="black" points="1265.21,-579.16 1241.71,-579.16 1241.71,-560.66 1265.21,-560.66 1265.21,-579.16"/>
<text text-anchor="middle" x="1253.46" y="-566.61" font-family="Times,serif" font-size="9.00">&#45;3</text>
</g>
<!-- 11361 -->
<g id="node51" class="node">
<title>11361</title>
<ellipse fill="white" stroke="black" cx="1253.46" cy="-479.46" rx="27.22" ry="27.22"/>
<text text-anchor="middle" x="1253.46" y="-476.16" font-family="Times,serif" font-size="9.00">11361</text>
</g>
<!-- &#45;3&#45;&gt;11361 -->
<g id="edge19" class="edge">
<title>&#45;3&#45;&gt;11361</title>
<path fill="none" stroke="red" stroke-width="0.2" d="M1253.46,-560.43C1253.46,-550.42 1253.46,-533.14 1253.46,-517.19"/>
<polygon fill="red" stroke="red" stroke-width="0.2" points="1256.96,-517.29 1253.46,-507.29 1249.96,-517.29 1256.96,-517.29"/>
</g>
<!-- &#45;4 -->
<g id="node4" class="node">
<title>&#45;4</title>
<polygon fill="lightgray" stroke="black" points="950.21,-126.92 926.71,-126.92 926.71,-108.42 950.21,-108.42 950.21,-126.92"/>
<text text-anchor="middle" x="938.46" y="-114.37" font-family="Times,serif" font-size="9.00">&#45;4</text>
</g>
<!-- &#45;4&#45;&gt;2 -->
<g id="edge2" class="edge">
<title>&#45;4&#45;&gt;2</title>
<path fill="none" stroke="red" stroke-width="0.24" stroke-dasharray="1,5" d="M940.38,-108.19C943.29,-95.32 948.92,-70.4 953.13,-51.78"/>
<polygon fill="red" stroke="red" stroke-width="0.24" points="956.54,-52.56 955.34,-42.03 949.72,-51.02 956.54,-52.56"/>
</g>
<!-- 8347 -->
<g id="node30" class="node">
<title>8347</title>
<ellipse fill="white" stroke="black" cx="824.46" cy="-27.22" rx="24.04" ry="24.04"/>
<text text-anchor="middle" x="824.46" y="-23.92" font-family="Times,serif" font-size="9.00">8347</text>
</g>
<!-- &#45;4&#45;&gt;8347 -->
<g id="edge17" class="edge">
<title>&#45;4&#45;&gt;8347</title>
<path fill="none" stroke="green" stroke-width="0.28" stroke-dasharray="1,5" d="M932.79,-108.32C928.86,-102.88 923.3,-95.81 917.46,-90.45 898.15,-72.72 873.36,-56.4 854.23,-44.92"/>
<polygon fill="green" stroke="green" stroke-width="0.28" points="856.1,-41.96 845.71,-39.9 852.55,-47.99 856.1,-41.96"/>
</g>
<!-- 4326 -->
<g id="node53" class="node">
<title>4326</title>
<ellipse fill="white" stroke="black" cx="1081.46" cy="-27.22" rx="24.04" ry="24.04"/>
<text text-anchor="middle" x="1081.46" y="-23.92" font-family="Times,serif" font-size="9.00">4326</text>
</g>
<!-- &#45;4&#45;&gt;4326 -->
<g id="edge8" class="edge">
<title>&#45;4&#45;&gt;4326</title>
<path fill="none" stroke="green" stroke-width="0.18" stroke-dasharray="1,5" d="M950.65,-109.13C973.03,-95.29 1021.21,-65.49 1052.44,-46.17"/>
<polygon fill="green" stroke="green" stroke-width="0.18" points="1054.26,-49.16 1060.92,-40.93 1050.58,-43.21 1054.26,-49.16"/>
</g>
<!-- &#45;5 -->
<g id="node5" class="node">
<title>&#45;5</title>
<polygon fill="lightgray" stroke="black" points="900.21,-488.71 876.71,-488.71 876.71,-470.21 900.21,-470.21 900.21,-488.71"/>
<text text-anchor="middle" x="888.46" y="-476.16" font-family="Times,serif" font-size="9.00">&#45;5</text>
</g>
<!-- 12491 -->
<g id="node46" class="node">
<title>12491</title>
<ellipse fill="white" stroke="black" cx="887.46" cy="-298.57" rx="27.22" ry="27.22"/>
<text text-anchor="middle" x="887.46" y="-295.27" font-family="Times,serif" font-size="9.00">12491</text>
</g>
<!-- &#45;5&#45;&gt;12491 -->
<g id="edge34" class="edge">
<title>&#45;5&#45;&gt;12491</title>
<path fill="none" stroke="red" stroke-width="0.24" stroke-dasharray="1,5" d="M889.89,-470.04C891.84,-458.11 895.22,-435.58 896.46,-416.24 898.01,-392.09 898.2,-385.93 896.46,-361.79 895.85,-353.35 894.79,-344.32 893.6,-335.83"/>
<polygon fill="red" stroke="red" stroke-width="0.24" points="897.1,-335.56 892.16,-326.18 890.17,-336.59 897.1,-335.56"/>
</g>
<!-- 16625 -->
<g id="node56" class="node">
<title>16625</title>
<ellipse fill="white" stroke="black" cx="860.46" cy="-389.01" rx="27.22" ry="27.22"/>
<text text-anchor="middle" x="860.46" y="-385.71" font-family="Times,serif" font-size="9.00">16625</text>
</g>
<!-- &#45;5&#45;&gt;16625 -->
<g id="edge73" class="edge">
<title>&#45;5&#45;&gt;16625</title>
<path fill="none" stroke="green" stroke-width="0.21" stroke-dasharray="1,5" d="M885.77,-469.98C882.48,-459.57 876.69,-441.27 871.47,-424.8"/>
<polygon fill="green" stroke="green" stroke-width="0.21" points="874.94,-424.16 868.59,-415.68 868.27,-426.27 874.94,-424.16"/>
</g>
<!-- &#45;6 -->
<g id="node6" class="node">
<title>&#45;6</title>
<polygon fill="lightgray" stroke="black" points="562.21,-398.26 538.71,-398.26 538.71,-379.76 562.21,-379.76 562.21,-398.26"/>
<text text-anchor="middle" x="550.46" y="-385.71" font-family="Times,serif" font-size="9.00">&#45;6</text>
</g>
<!-- 13273 -->
<g id="node48" class="node">
<title>13273</title>
<ellipse fill="white" stroke="black" cx="610.46" cy="-298.57" rx="27.22" ry="27.22"/>
<text text-anchor="middle" x="610.46" y="-295.27" font-family="Times,serif" font-size="9.00">13273</text>
</g>
<!-- &#45;6&#45;&gt;13273 -->
<g id="edge31" class="edge">
<title>&#45;6&#45;&gt;13273</title>
<path fill="none" stroke="red" stroke-width="0.17" d="M556.21,-379.53C563.93,-368.16 578.03,-347.38 589.92,-329.85"/>
<polygon fill="red" stroke="red" stroke-width="0.17" points="592.68,-332.01 595.4,-321.77 586.89,-328.08 592.68,-332.01"/>
</g>
<!-- 4843 -->
<g id="node54" class="node">
<title>4843</title>
<ellipse fill="white" stroke="black" cx="490.46" cy="-208.12" rx="24.04" ry="24.04"/>
<text text-anchor="middle" x="490.46" y="-204.82" font-family="Times,serif" font-size="9.00">4843</text>
</g>
<!-- &#45;6&#45;&gt;4843 -->
<g id="edge6" class="edge">
<title>&#45;6&#45;&gt;4843</title>
<path fill="none" stroke="green" stroke-width="0.37" d="M543.59,-379.37C530.62,-363.01 503.69,-328.86 502.46,-325.79 491.85,-299.22 489.28,-266.68 489.11,-242.72"/>
<polygon fill="green" stroke="green" stroke-width="0.37" points="492.6,-242.95 489.17,-232.93 485.6,-242.91 492.6,-242.95"/>
</g>
<!-- &#45;7 -->
<g id="node7" class="node">
<title>&#45;7</title>
<polygon fill="lightgray" stroke="black" points="1307.21,-579.16 1283.71,-579.16 1283.71,-560.66 1307.21,-560.66 1307.21,-579.16"/>
<text text-anchor="middle" x="1295.46" y="-566.61" font-family="Times,serif" font-size="9.00">&#45;7</text>
</g>
<!-- &#45;8 -->
<g id="node8" class="node">
<title>&#45;8</title>
<polygon fill="lightgray" stroke="black" points="257.21,-217.37 233.71,-217.37 233.71,-198.87 257.21,-198.87 257.21,-217.37"/>
<text text-anchor="middle" x="245.46" y="-204.82" font-family="Times,serif" font-size="9.00">&#45;8</text>
</g>
<!-- 14780 -->
<g id="node41" class="node">
<title>14780</title>
<ellipse fill="white" stroke="black" cx="245.46" cy="-117.67" rx="27.22" ry="27.22"/>
<text text-anchor="middle" x="245.46" y="-114.37" font-family="Times,serif" font-size="9.00">14780</text>
</g>
<!-- &#45;8&#45;&gt;14780 -->
<g id="edge65" class="edge">
<title>&#45;8&#45;&gt;14780</title>
<path fill="none" stroke="green" stroke-width="0.39" stroke-dasharray="1,5" d="M245.46,-198.64C245.46,-188.64 245.46,-171.35 245.46,-155.4"/>
<polygon fill="green" stroke="green" stroke-width="0.39" points="248.96,-155.79 245.46,-145.79 241.96,-155.79 248.96,-155.79"/>
</g>
<!-- &#45;9 -->
<g id="node9" class="node">
<title>&#45;9</title>
<polygon fill="lightgray" stroke="black" points="1208.21,-488.71 1184.71,-488.71 1184.71,-470.21 1208.21,-470.21 1208.21,-488.71"/>
<text text-anchor="middle" x="1196.46" y="-476.16" font-family="Times,serif" font-size="9.00">&#45;9</text>
</g>
<!-- 13735 -->
<g id="node33" class="node">
<title>13735</title>
<ellipse fill="white" stroke="black" cx="1101.46" cy="-298.57" rx="27.22" ry="27.22"/>
<text text-anchor="middle" x="1101.46" y="-295.27" font-family="Times,serif" font-size="9.00">13735</text>
</g>
<!-- &#45;9&#45;&gt;13735 -->
<g id="edge35" class="edge">
<title>&#45;9&#45;&gt;13735</title>
<path fill="none" stroke="red" stroke-width="0.15" stroke-dasharray="1,5" d="M1192.33,-469.88C1182.93,-450.46 1159.08,-401.71 1137.46,-361.79 1132,-351.71 1125.82,-340.85 1120.14,-331.07"/>
<polygon fill="red" stroke="red" stroke-width="0.15" points="1123.28,-329.5 1115.22,-322.63 1117.24,-333.03 1123.28,-329.5"/>
</g>
<!-- 15539 -->
<g id="node37" class="node">
<title>15539</title>
<ellipse fill="white" stroke="black" cx="1101.46" cy="-389.01" rx="27.22" ry="27.22"/>
<text text-anchor="middle" x="1101.46" y="-385.71" font-family="Times,serif" font-size="9.00">15539</text>
</g>
<!-- &#45;9&#45;&gt;15539 -->
<g id="edge59" class="edge">
<title>&#45;9&#45;&gt;15539</title>
<path fill="none" stroke="red" stroke-width="0.18" stroke-dasharray="1,5" d="M1187.35,-469.98C1173.93,-457.48 1148.28,-433.6 1128.49,-415.18"/>
<polygon fill="red" stroke="red" stroke-width="0.18" points="1131.14,-412.86 1121.44,-408.61 1126.37,-417.99 1131.14,-412.86"/>
</g>
<!-- 13908 -->
<g id="node47" class="node">
<title>13908</title>
<ellipse fill="white" stroke="black" cx="1275.46" cy="-298.57" rx="27.22" ry="27.22"/>
<text text-anchor="middle" x="1275.46" y="-295.27" font-family="Times,serif" font-size="9.00">13908</text>
</g>
<!-- &#45;9&#45;&gt;13908 -->
<g id="edge37" class="edge">
<title>&#45;9&#45;&gt;13908</title>
<path fill="none" stroke="red" stroke-width="0.13" stroke-dasharray="1,5" d="M1202.47,-469.92C1210.53,-458.23 1224.91,-436.36 1234.46,-416.24 1247.02,-389.76 1257.85,-358.35 1265.21,-334.79"/>
<polygon fill="red" stroke="red" stroke-width="0.13" points="1268.5,-335.99 1268.09,-325.41 1261.81,-333.94 1268.5,-335.99"/>
</g>
<!-- &#45;9&#45;&gt;4326 -->
<g id="edge23" class="edge">
<title>&#45;9&#45;&gt;4326</title>
<path fill="none" stroke="green" stroke-width="0.22" d="M1198.42,-469.95C1204.15,-444.34 1220.46,-365.68 1220.46,-299.57 1220.46,-299.57 1220.46,-299.57 1220.46,-207.12 1220.46,-135.85 1150.82,-75.84 1110.12,-46.86"/>
<polygon fill="green" stroke="green" stroke-width="0.22" points="1112.15,-44.01 1101.94,-41.18 1108.16,-49.76 1112.15,-44.01"/>
</g>
<!-- &#45;10 -->
<g id="node10" class="node">
<title>&#45;10</title>
<polygon fill="lightgray" stroke="black" points="356.46,-126.92 328.46,-126.92 328.46,-108.42 356.46,-108.42 356.46,-126.92"/>
<text text-anchor="middle" x="342.46" y="-114.37" font-family="Times,serif" font-size="9.00">&#45;10</text>
</g>
<!-- 1 -->
<g id="node22" class="node">
<title>1</title>
<ellipse fill="lightblue" stroke="black" cx="342.46" cy="-27.22" rx="14.5" ry="14.5"/>
<text text-anchor="middle" x="342.46" y="-23.92" font-family="Times,serif" font-size="9.00">1</text>
</g>
<!-- &#45;10&#45;&gt;1 -->
<g id="edge4" class="edge">
<title>&#45;10&#45;&gt;1</title>
<path fill="none" stroke="green" stroke-width="0.61" d="M342.46,-108.19C342.46,-95.57 342.46,-71.37 342.46,-52.88"/>
<polygon fill="green" stroke="green" stroke-width="0.61" points="345.96,-52.92 342.46,-42.92 338.96,-52.92 345.96,-52.92"/>
</g>
<!-- 1995 -->
<g id="node45" class="node">
<title>1995</title>
<ellipse fill="white" stroke="black" cx="265.46" cy="-27.22" rx="24.04" ry="24.04"/>
<text text-anchor="middle" x="265.46" y="-23.92" font-family="Times,serif" font-size="9.00">1995</text>
</g>
<!-- &#45;10&#45;&gt;1995 -->
<g id="edge30" class="edge">
<title>&#45;10&#45;&gt;1995</title>
<path fill="none" stroke="green" stroke-width="0.37" stroke-dasharray="1,5" d="M335.08,-108.19C324.21,-95.71 303.46,-71.87 287.42,-53.46"/>
<polygon fill="green" stroke="green" stroke-width="0.37" points="290.46,-51.62 281.26,-46.37 285.18,-56.21 290.46,-51.62"/>
</g>
<!-- &#45;11 -->
<g id="node11" class="node">
<title>&#45;11</title>
<polygon fill="lightgray" stroke="black" points="827.46,-217.37 799.46,-217.37 799.46,-198.87 827.46,-198.87 827.46,-217.37"/>
<text text-anchor="middle" x="813.46" y="-204.82" font-family="Times,serif" font-size="9.00">&#45;11</text>
</g>
<!-- &#45;11&#45;&gt;14940 -->
<g id="edge75" class="edge">
<title>&#45;11&#45;&gt;14940</title>
<path fill="none" stroke="red" stroke-width="0.41" d="M809.43,-198.64C804.35,-187.94 795.31,-168.9 787.33,-152.09"/>
<polygon fill="red" stroke="red" stroke-width="0.41" points="790.51,-150.62 783.06,-143.09 784.18,-153.63 790.51,-150.62"/>
</g>
<!-- &#45;12 -->
<g id="node12" class="node">
<title>&#45;12</title>
<polygon fill="lightgray" stroke="black" points="1353.46,-579.16 1325.46,-579.16 1325.46,-560.66 1353.46,-560.66 1353.46,-579.16"/>
<text text-anchor="middle" x="1339.46" y="-566.61" font-family="Times,serif" font-size="9.00">&#45;12</text>
</g>
<!-- 11515 -->
<g id="node57" class="node">
<title>11515</title>
<ellipse fill="white" stroke="black" cx="1339.46" cy="-479.46" rx="27.22" ry="27.22"/>
<text text-anchor="middle" x="1339.46" y="-476.16" font-family="Times,serif" font-size="9.00">11515</text>
</g>
<!-- &#45;12&#45;&gt;11515 -->
<g id="edge20" class="edge">
<title>&#45;12&#45;&gt;11515</title>
<path fill="none" stroke="red" stroke-width="0.7" d="M1339.46,-560.43C1339.46,-550.52 1339.46,-533.46 1339.46,-517.64"/>
<polygon fill="red" stroke="red" stroke-width="0.7" points="1342.96,-518.05 1339.46,-508.05 1335.96,-518.05 1342.96,-518.05"/>
</g>
<!-- &#45;13 -->
<g id="node13" class="node">
<title>&#45;13</title>
<polygon fill="lightgray" stroke="black" points="478.46,-579.16 450.46,-579.16 450.46,-560.66 478.46,-560.66 478.46,-579.16"/>
<text text-anchor="middle" x="464.46" y="-566.61" font-family="Times,serif" font-size="9.00">&#45;13</text>
</g>
<!-- 3 -->
<g id="node24" class="node">
<title>3</title>
<ellipse fill="lightblue" stroke="black" cx="378.46" cy="-298.57" rx="14.5" ry="14.5"/>
<text text-anchor="middle" x="378.46" y="-295.27" font-family="Times,serif" font-size="9.00">3</text>
</g>
<!-- &#45;13&#45;&gt;3 -->
<g id="edge11" class="edge">
<title>&#45;13&#45;&gt;3</title>
<path fill="none" stroke="red" stroke-width="0.31" stroke-dasharray="1,5" d="M465.73,-560.44C469.74,-531.11 479.87,-431.78 445.46,-361.79 435.21,-340.95 414.8,-323.61 399.18,-312.57"/>
<polygon fill="red" stroke="red" stroke-width="0.31" points="401.29,-309.77 391.04,-307.08 397.38,-315.58 401.29,-309.77"/>
</g>
<!-- 16548 -->
<g id="node32" class="node">
<title>16548</title>
<ellipse fill="white" stroke="black" cx="371.46" cy="-479.46" rx="27.22" ry="27.22"/>
<text text-anchor="middle" x="371.46" y="-476.16" font-family="Times,serif" font-size="9.00">16548</text>
</g>
<!-- &#45;13&#45;&gt;16548 -->
<g id="edge70" class="edge">
<title>&#45;13&#45;&gt;16548</title>
<path fill="none" stroke="green" stroke-width="0.84" d="M457.46,-560.4C453.03,-555.15 447.09,-548.35 441.46,-542.68 428.52,-529.66 413.37,-516.01 400.48,-504.83"/>
<polygon fill="green" stroke="green" stroke-width="0.84" points="402.8,-502.21 392.94,-498.35 398.24,-507.52 402.8,-502.21"/>
</g>
<!-- 8747 -->
<g id="node35" class="node">
<title>8747</title>
<ellipse fill="white" stroke="black" cx="412.46" cy="-389.01" rx="24.04" ry="24.04"/>
<text text-anchor="middle" x="412.46" y="-385.71" font-family="Times,serif" font-size="9.00">8747</text>
</g>
<!-- &#45;13&#45;&gt;8747 -->
<g id="edge13" class="edge">
<title>&#45;13&#45;&gt;8747</title>
<path fill="none" stroke="red" stroke-width="0.3" d="M461.95,-560.28C454.81,-535.71 434.1,-464.46 421.85,-422.31"/>
<polygon fill="red" stroke="red" stroke-width="0.3" points="425.28,-421.58 419.13,-412.95 418.56,-423.53 425.28,-421.58"/>
</g>
<!-- &#45;13&#45;&gt;12491 -->
<g id="edge43" class="edge">
<title>&#45;13&#45;&gt;12491</title>
<path fill="none" stroke="red" stroke-width="0.52" d="M478.75,-567.27C514.73,-562.65 611.03,-547.09 679.46,-506.68 757.91,-460.36 759.83,-426 824.46,-361.79 836.42,-349.9 849.7,-336.78 860.97,-325.66"/>
<polygon fill="red" stroke="red" stroke-width="0.52" points="863.19,-328.39 867.85,-318.87 858.27,-323.4 863.19,-328.39"/>
</g>
<!-- 3423 -->
<g id="node50" class="node">
<title>3423</title>
<ellipse fill="white" stroke="black" cx="630.46" cy="-117.67" rx="24.04" ry="24.04"/>
<text text-anchor="middle" x="630.46" y="-114.37" font-family="Times,serif" font-size="9.00">3423</text>
</g>
<!-- &#45;13&#45;&gt;3423 -->
<g id="edge3" class="edge">
<title>&#45;13&#45;&gt;3423</title>
<path fill="none" stroke="red" stroke-width="0.28" stroke-dasharray="1,5" d="M478.58,-567.43C508.55,-563.5 578.65,-549.92 613.46,-506.68 698.09,-401.56 660.78,-223.62 640.47,-151"/>
<polygon fill="red" stroke="red" stroke-width="0.28" points="643.86,-150.12 637.73,-141.48 637.13,-152.05 643.86,-150.12"/>
</g>
<!-- &#45;14 -->
<g id="node14" class="node">
<title>&#45;14</title>
<polygon fill="lightgray" stroke="black" points="604.46,-488.71 576.46,-488.71 576.46,-470.21 604.46,-470.21 604.46,-488.71"/>
<text text-anchor="middle" x="590.46" y="-476.16" font-family="Times,serif" font-size="9.00">&#45;14</text>
</g>
<!-- &#45;14&#45;&gt;8747 -->
<g id="edge25" class="edge">
<title>&#45;14&#45;&gt;8747</title>
<path fill="none" stroke="red" stroke-width="0.28" d="M576.19,-471.37C547.45,-457.09 481.98,-424.56 443.1,-405.24"/>
<polygon fill="red" stroke="red" stroke-width="0.28" points="444.72,-402.13 434.21,-400.82 441.6,-408.4 444.72,-402.13"/>
</g>
<!-- &#45;14&#45;&gt;15539 -->
<g id="edge69" class="edge">
<title>&#45;14&#45;&gt;15539</title>
<path fill="none" stroke="red" stroke-width="0.43" stroke-dasharray="1,5" d="M604.93,-475.96C672.77,-464.21 960.42,-414.43 1064.05,-396.49"/>
<polygon fill="red" stroke="red" stroke-width="0.43" points="1064.44,-399.97 1073.7,-394.82 1063.25,-393.07 1064.44,-399.97"/>
</g>
<!-- 12980 -->
<g id="node38" class="node">
<title>12980</title>
<ellipse fill="white" stroke="black" cx="538.46" cy="-298.57" rx="27.22" ry="27.22"/>
<text text-anchor="middle" x="538.46" y="-295.27" font-family="Times,serif" font-size="9.00">12980</text>
</g>
<!-- &#45;14&#45;&gt;12980 -->
<g id="edge55" class="edge">
<title>&#45;14&#45;&gt;12980</title>
<path fill="none" stroke="red" stroke-width="0.12" stroke-dasharray="1,5" d="M590.01,-469.74C588.78,-450.02 584.55,-400.69 571.46,-361.79 567.94,-351.34 562.81,-340.53 557.63,-330.91"/>
<polygon fill="red" stroke="red" stroke-width="0.12" points="560.74,-329.29 552.8,-322.27 554.63,-332.71 560.74,-329.29"/>
</g>
<!-- &#45;15 -->
<g id="node15" class="node">
<title>&#45;15</title>
<polygon fill="lightgray" stroke="black" points="1399.46,-579.16 1371.46,-579.16 1371.46,-560.66 1399.46,-560.66 1399.46,-579.16"/>
<text text-anchor="middle" x="1385.46" y="-566.61" font-family="Times,serif" font-size="9.00">&#45;15</text>
</g>
<!-- &#45;16 -->
<g id="node16" class="node">
<title>&#45;16</title>
<polygon fill="lightgray" stroke="black" points="1445.46,-579.16 1417.46,-579.16 1417.46,-560.66 1445.46,-560.66 1445.46,-579.16"/>
<text text-anchor="middle" x="1431.46" y="-566.61" font-family="Times,serif" font-size="9.00">&#45;16</text>
</g>
<!-- &#45;17 -->
<g id="node17" class="node">
<title>&#45;17</title>
<polygon fill="lightgray" stroke="black" points="520.46,-398.26 492.46,-398.26 492.46,-379.76 520.46,-379.76 520.46,-398.26"/>
<text text-anchor="middle" x="506.46" y="-385.71" font-family="Times,serif" font-size="9.00">&#45;17</text>
</g>
<!-- 0 -->
<g id="node21" class="node">
<title>0</title>
<ellipse fill="lightblue" stroke="black" cx="519.46" cy="-27.22" rx="14.5" ry="14.5"/>
<text text-anchor="middle" x="519.46" y="-23.92" font-family="Times,serif" font-size="9.00">0</text>
</g>
<!-- &#45;17&#45;&gt;0 -->
<g id="edge16" class="edge">
<title>&#45;17&#45;&gt;0</title>
<path fill="none" stroke="red" stroke-width="0.68" stroke-dasharray="1,5" d="M501.21,-379.59C484.19,-351.2 433.02,-256.48 457.46,-180.89 463.53,-162.12 474.65,-162.56 483.46,-144.89 498.57,-114.57 508.85,-76.63 514.43,-52.4"/>
<polygon fill="red" stroke="red" stroke-width="0.68" points="517.83,-53.24 516.58,-42.72 511,-51.73 517.83,-53.24"/>
</g>
<!-- &#45;17&#45;&gt;3 -->
<g id="edge9" class="edge">
<title>&#45;17&#45;&gt;3</title>
<path fill="none" stroke="green" stroke-width="0.24" d="M498.02,-379.28C492.66,-373.95 485.43,-367.14 478.46,-361.79 464.58,-351.14 424.57,-326.92 399.56,-312.03"/>
<polygon fill="green" stroke="green" stroke-width="0.24" points="401.51,-309.12 391.12,-307.02 397.93,-315.14 401.51,-309.12"/>
</g>
<!-- &#45;17&#45;&gt;12491 -->
<g id="edge24" class="edge">
<title>&#45;17&#45;&gt;12491</title>
<path fill="none" stroke="green" stroke-width="0.41" d="M511.54,-379.41C515.59,-373.4 521.84,-365.77 529.46,-361.79 657.12,-295.16 717.22,-377.92 851.46,-325.79 853.86,-324.86 856.24,-323.73 858.57,-322.46"/>
<polygon fill="green" stroke="green" stroke-width="0.41" points="860.06,-325.66 866.69,-317.4 856.36,-319.72 860.06,-325.66"/>
</g>
<!-- &#45;18 -->
<g id="node18" class="node">
<title>&#45;18</title>
<polygon fill="lightgray" stroke="black" points="204.46,-217.37 176.46,-217.37 176.46,-198.87 204.46,-198.87 204.46,-217.37"/>
<text text-anchor="middle" x="190.46" y="-204.82" font-family="Times,serif" font-size="9.00">&#45;18</text>
</g>
<!-- 11664 -->
<g id="node29" class="node">
<title>11664</title>
<ellipse fill="white" stroke="black" cx="447.46" cy="-117.67" rx="27.22" ry="27.22"/>
<text text-anchor="middle" x="447.46" y="-114.37" font-family="Times,serif" font-size="9.00">11664</text>
</g>
<!-- &#45;18&#45;&gt;11664 -->
<g id="edge21" class="edge">
<title>&#45;18&#45;&gt;11664</title>
<path fill="none" stroke="red" stroke-width="0.26" stroke-dasharray="1,5" d="M199.22,-198.49C205.67,-192.62 214.95,-185.18 224.46,-180.89 301.62,-146.11 333.83,-178.62 411.46,-144.89 413.82,-143.87 416.17,-142.67 418.48,-141.36"/>
<polygon fill="red" stroke="red" stroke-width="0.26" points="420.21,-144.4 426.75,-136.07 416.44,-138.5 420.21,-144.4"/>
</g>
<!-- &#45;18&#45;&gt;1995 -->
<g id="edge5" class="edge">
<title>&#45;18&#45;&gt;1995</title>
<path fill="none" stroke="red" stroke-width="0.18" stroke-dasharray="1,5" d="M190.24,-198.43C190.08,-178.35 191.62,-127.64 209.46,-90.45 216.66,-75.43 228.63,-61.4 239.66,-50.47"/>
<polygon fill="red" stroke="red" stroke-width="0.18" points="242.04,-53.03 246.88,-43.61 237.22,-47.96 242.04,-53.03"/>
</g>
<!-- 16380 -->
<g id="node58" class="node">
<title>16380</title>
<ellipse fill="white" stroke="black" cx="135.46" cy="-117.67" rx="27.22" ry="27.22"/>
<text text-anchor="middle" x="135.46" y="-114.37" font-family="Times,serif" font-size="9.00">16380</text>
</g>
<!-- &#45;18&#45;&gt;16380 -->
<g id="edge66" class="edge">
<title>&#45;18&#45;&gt;16380</title>
<path fill="none" stroke="green" stroke-width="0.24" d="M185.19,-198.64C178.27,-187.52 165.76,-167.39 155.01,-150.12"/>
<polygon fill="green" stroke="green" stroke-width="0.24" points="158.04,-148.36 149.79,-141.72 152.1,-152.06 158.04,-148.36"/>
</g>
<!-- &#45;19 -->
<g id="node19" class="node">
<title>&#45;19</title>
<polygon fill="lightgray" stroke="black" points="911.46,-217.37 883.46,-217.37 883.46,-198.87 911.46,-198.87 911.46,-217.37"/>
<text text-anchor="middle" x="897.46" y="-204.82" font-family="Times,serif" font-size="9.00">&#45;19</text>
</g>
<!-- 13198 -->
<g id="node28" class="node">
<title>13198</title>
<ellipse fill="white" stroke="black" cx="755.46" cy="-27.22" rx="27.22" ry="27.22"/>
<text text-anchor="middle" x="755.46" y="-23.92" font-family="Times,serif" font-size="9.00">13198</text>
</g>
<!-- &#45;19&#45;&gt;13198 -->
<g id="edge40" class="edge">
<title>&#45;19&#45;&gt;13198</title>
<path fill="none" stroke="red" stroke-width="0.52" stroke-dasharray="1,5" d="M889.81,-198.45C879.44,-186.61 860.51,-164.58 845.46,-144.89 827.54,-121.45 825.38,-113.89 807.46,-90.45 798.76,-79.06 788.75,-66.89 779.86,-56.37"/>
<polygon fill="red" stroke="red" stroke-width="0.52" points="782.67,-54.27 773.52,-48.92 777.34,-58.81 782.67,-54.27"/>
</g>
<!-- 14497 -->
<g id="node31" class="node">
<title>14497</title>
<ellipse fill="white" stroke="black" cx="881.46" cy="-117.67" rx="27.22" ry="27.22"/>
<text text-anchor="middle" x="881.46" y="-114.37" font-family="Times,serif" font-size="9.00">14497</text>
</g>
<!-- &#45;19&#45;&gt;14497 -->
<g id="edge44" class="edge">
<title>&#45;19&#45;&gt;14497</title>
<path fill="none" stroke="green" stroke-width="0.27" d="M895.92,-198.64C894.09,-188.47 890.88,-170.77 887.96,-154.6"/>
<polygon fill="green" stroke="green" stroke-width="0.27" points="891.49,-154.43 886.26,-145.21 884.6,-155.68 891.49,-154.43"/>
</g>
<!-- &#45;19&#45;&gt;14940 -->
<g id="edge68" class="edge">
<title>&#45;19&#45;&gt;14940</title>
<path fill="none" stroke="red" stroke-width="0.31" stroke-dasharray="1,5" d="M889.01,-198.4C883.64,-193.07 876.42,-186.27 869.46,-180.89 845.75,-162.57 837.75,-160.97 812.46,-144.89 809.28,-142.87 805.96,-140.76 802.65,-138.65"/>
<polygon fill="red" stroke="red" stroke-width="0.31" points="804.7,-135.81 794.39,-133.37 800.94,-141.71 804.7,-135.81"/>
</g>
<!-- &#45;20 -->
<g id="node20" class="node">
<title>&#45;20</title>
<polygon fill="lightgray" stroke="black" points="402.46,-126.92 374.46,-126.92 374.46,-108.42 402.46,-108.42 402.46,-126.92"/>
<text text-anchor="middle" x="388.46" y="-114.37" font-family="Times,serif" font-size="9.00">&#45;20</text>
</g>
<!-- &#45;20&#45;&gt;0 -->
<g id="edge18" class="edge">
<title>&#45;20&#45;&gt;0</title>
<path fill="none" stroke="red" stroke-width="0.35" d="M394.68,-108.23C399,-102.74 405.09,-95.67 411.46,-90.45 438.31,-68.44 473.92,-49.58 496.77,-38.56"/>
<polygon fill="red" stroke="red" stroke-width="0.35" points="498.25,-41.73 505.81,-34.3 495.27,-35.4 498.25,-41.73"/>
</g>
<!-- &#45;20&#45;&gt;1995 -->
<g id="edge1" class="edge">
<title>&#45;20&#45;&gt;1995</title>
<path fill="none" stroke="red" stroke-width="0.44" d="M382.18,-108.3C377.84,-102.84 371.74,-95.78 365.46,-90.45 343.92,-72.17 316.52,-55.5 295.84,-44.03"/>
<polygon fill="red" stroke="red" stroke-width="0.44" points="297.62,-41.01 287.16,-39.3 294.27,-47.16 297.62,-41.01"/>
</g>
<!-- 14343 -->
<g id="node27" class="node">
<title>14343</title>
<ellipse fill="white" stroke="black" cx="63.46" cy="-117.67" rx="27.22" ry="27.22"/>
<text text-anchor="middle" x="63.46" y="-114.37" font-family="Times,serif" font-size="9.00">14343</text>
</g>
<!-- 3&#45;&gt;14343 -->
<g id="edge41" class="edge">
<title>3&#45;&gt;14343</title>
<path fill="none" stroke="red" stroke-width="0.51" stroke-dasharray="1,5" d="M363.76,-296.04C327.72,-291.72 233.11,-276.94 167.46,-235.34 132.45,-213.16 102.2,-175.92 83.48,-149.48"/>
<polygon fill="red" stroke="red" stroke-width="0.51" points="86.6,-147.83 78.03,-141.6 80.84,-151.82 86.6,-147.83"/>
</g>
<!-- 15293 -->
<g id="node42" class="node">
<title>15293</title>
<ellipse fill="white" stroke="black" cx="71.46" cy="-208.12" rx="27.22" ry="27.22"/>
<text text-anchor="middle" x="71.46" y="-204.82" font-family="Times,serif" font-size="9.00">15293</text>
</g>
<!-- 3&#45;&gt;15293 -->
<g id="edge56" class="edge">
<title>3&#45;&gt;15293</title>
<path fill="none" stroke="red" stroke-width="0.58" stroke-dasharray="1,5" d="M364.02,-295.01C325.1,-287.91 215.06,-266.38 127.46,-235.34 120.08,-232.73 112.37,-229.48 105.11,-226.17"/>
<polygon fill="red" stroke="red" stroke-width="0.58" points="106.89,-223.14 96.36,-222.04 103.91,-229.47 106.89,-223.14"/>
</g>
<!-- 3&#45;&gt;1995 -->
<g id="edge15" class="edge">
<title>3&#45;&gt;1995</title>
<path fill="none" stroke="red" stroke-width="0.48" stroke-dasharray="1,5" d="M363.91,-297.18C304.42,-295.27 80.64,-284.85 35.46,-235.34 -8.02,-187.7 -11.96,-141.5 27.46,-90.45 52.22,-58.39 170.96,-39.67 230.81,-32.13"/>
<polygon fill="red" stroke="red" stroke-width="0.48" points="231.05,-35.63 240.55,-30.94 230.2,-28.68 231.05,-35.63"/>
</g>
<!-- 14705 -->
<g id="node55" class="node">
<title>14705</title>
<ellipse fill="white" stroke="black" cx="380.46" cy="-208.12" rx="27.22" ry="27.22"/>
<text text-anchor="middle" x="380.46" y="-204.82" font-family="Times,serif" font-size="9.00">14705</text>
</g>
<!-- 3&#45;&gt;14705 -->
<g id="edge49" class="edge">
<title>3&#45;&gt;14705</title>
<path fill="none" stroke="red" stroke-width="0.16" stroke-dasharray="1,5" d="M378.77,-283.75C379,-273.52 379.33,-259.1 379.63,-245.66"/>
<polygon fill="red" stroke="red" stroke-width="0.16" points="383.13,-245.98 379.85,-235.9 376.13,-245.82 383.13,-245.98"/>
</g>
<!-- 4&#45;&gt;3423 -->
<g id="edge26" class="edge">
<title>4&#45;&gt;3423</title>
<path fill="none" stroke="red" stroke-width="0.25" stroke-dasharray="1,5" d="M686.35,-195.92C677.36,-183.49 662.51,-162.97 650.38,-146.21"/>
<polygon fill="red" stroke="red" stroke-width="0.25" points="653.25,-144.2 644.56,-138.15 647.58,-148.31 653.25,-144.2"/>
</g>
<!-- 16768 -->
<g id="node26" class="node">
<title>16768</title>
<ellipse fill="white" stroke="black" cx="699.46" cy="-117.67" rx="27.22" ry="27.22"/>
<text text-anchor="middle" x="699.46" y="-114.37" font-family="Times,serif" font-size="9.00">16768</text>
</g>
<!-- 16768&#45;&gt;8347 -->
<g id="edge77" class="edge">
<title>16768&#45;&gt;8347</title>
<path fill="none" stroke="green" stroke-width="0.31" stroke-dasharray="1,5" d="M721.02,-100.66C725.74,-97.24 730.74,-93.68 735.46,-90.45 759.87,-73.73 767.4,-71.67 791.46,-54.45 793.59,-52.92 795.78,-51.3 797.96,-49.66"/>
<polygon fill="green" stroke="green" stroke-width="0.31" points="800.08,-52.44 805.84,-43.54 795.79,-46.9 800.08,-52.44"/>
</g>
<!-- 14343&#45;&gt;1995 -->
<g id="edge42" class="edge">
<title>14343&#45;&gt;1995</title>
<path fill="none" stroke="green" stroke-width="0.32" stroke-dasharray="1,5" d="M84.54,-99.87C89.29,-96.5 94.42,-93.16 99.46,-90.45 143.29,-66.84 198.01,-48.22 232.36,-37.71"/>
<polygon fill="green" stroke="green" stroke-width="0.32" points="233.3,-41.08 241.87,-34.85 231.29,-34.38 233.3,-41.08"/>
</g>
<!-- 11664&#45;&gt;13198 -->
<g id="edge29" class="edge">
<title>11664&#45;&gt;13198</title>
<path fill="none" stroke="red" stroke-width="0.34" d="M473.72,-109.13C528.84,-93.3 656.68,-56.59 719.42,-38.57"/>
<polygon fill="red" stroke="red" stroke-width="0.34" points="720.12,-42.01 728.77,-35.89 718.19,-35.29 720.12,-42.01"/>
</g>
<!-- 12219 -->
<g id="node40" class="node">
<title>12219</title>
<ellipse fill="white" stroke="black" cx="613.46" cy="-27.22" rx="27.22" ry="27.22"/>
<text text-anchor="middle" x="613.46" y="-23.92" font-family="Times,serif" font-size="9.00">12219</text>
</g>
<!-- 11664&#45;&gt;12219 -->
<g id="edge46" class="edge">
<title>11664&#45;&gt;12219</title>
<path fill="none" stroke="green" stroke-width="0.49" stroke-dasharray="1,5" d="M471.24,-104C499.76,-88.8 547.74,-63.24 579.99,-46.06"/>
<polygon fill="green" stroke="green" stroke-width="0.49" points="581.62,-49.16 588.8,-41.36 578.33,-42.98 581.62,-49.16"/>
</g>
<!-- 11664&#45;&gt;1995 -->
<g id="edge22" class="edge">
<title>11664&#45;&gt;1995</title>
<path fill="none" stroke="green" stroke-width="0.17" stroke-dasharray="1,5" d="M426.35,-99.92C421.6,-96.55 416.48,-93.2 411.46,-90.45 372.95,-69.35 359.68,-72.05 319.46,-54.45 311.72,-51.06 303.47,-47.19 295.81,-43.48"/>
<polygon fill="green" stroke="green" stroke-width="0.17" points="297.57,-40.45 287.05,-39.19 294.5,-46.74 297.57,-40.45"/>
</g>
<!-- 14497&#45;&gt;13198 -->
<g id="edge45" class="edge">
<title>14497&#45;&gt;13198</title>
<path fill="none" stroke="green" stroke-width="0.81" d="M859.16,-101.48C840.88,-88.97 814.39,-70.72 791.46,-54.45 789.71,-53.21 787.92,-51.92 786.11,-50.63"/>
<polygon fill="green" stroke="green" stroke-width="0.81" points="788.25,-47.85 778.09,-44.84 784.15,-53.53 788.25,-47.85"/>
</g>
<!-- 16548&#45;&gt;8747 -->
<g id="edge71" class="edge">
<title>16548&#45;&gt;8747</title>
<path fill="none" stroke="green" stroke-width="0.43" d="M382.66,-454.29C387.42,-444.03 393.02,-431.94 398.08,-421.04"/>
<polygon fill="green" stroke="green" stroke-width="0.43" points="401.22,-422.57 402.26,-412.02 394.87,-419.63 401.22,-422.57"/>
</g>
<!-- 14641 -->
<g id="node36" class="node">
<title>14641</title>
<ellipse fill="white" stroke="black" cx="1109.46" cy="-117.67" rx="27.22" ry="27.22"/>
<text text-anchor="middle" x="1109.46" y="-114.37" font-family="Times,serif" font-size="9.00">14641</text>
</g>
<!-- 13735&#45;&gt;14641 -->
<g id="edge47" class="edge">
<title>13735&#45;&gt;14641</title>
<path fill="none" stroke="red" stroke-width="0.13" stroke-dasharray="1,5" d="M1102.64,-271.17C1104.01,-240.52 1106.28,-189.77 1107.82,-155.31"/>
<polygon fill="red" stroke="red" stroke-width="0.13" points="1111.31,-155.51 1108.27,-145.37 1104.32,-155.2 1111.31,-155.51"/>
</g>
<!-- 15690 -->
<g id="node44" class="node">
<title>15690</title>
<ellipse fill="white" stroke="black" cx="1147.46" cy="-208.12" rx="27.22" ry="27.22"/>
<text text-anchor="middle" x="1147.46" y="-204.82" font-family="Times,serif" font-size="9.00">15690</text>
</g>
<!-- 13735&#45;&gt;15690 -->
<g id="edge61" class="edge">
<title>13735&#45;&gt;15690</title>
<path fill="none" stroke="red" stroke-width="0.13" d="M1113.79,-273.86C1118.89,-264.05 1124.9,-252.5 1130.41,-241.9"/>
<polygon fill="red" stroke="red" stroke-width="0.13" points="1133.5,-243.54 1135.01,-233.05 1127.29,-240.31 1133.5,-243.54"/>
</g>
<!-- 13735&#45;&gt;4326 -->
<g id="edge36" class="edge">
<title>13735&#45;&gt;4326</title>
<path fill="none" stroke="green" stroke-width="0.5" stroke-dasharray="1,5" d="M1095.2,-271.56C1088.27,-241.33 1077.55,-189.85 1073.46,-144.89 1071.27,-120.8 1071.91,-114.6 1073.46,-90.45 1074.06,-81.07 1075.16,-70.95 1076.36,-61.65"/>
<polygon fill="green" stroke="green" stroke-width="0.5" points="1079.8,-62.34 1077.69,-51.96 1072.87,-61.39 1079.8,-62.34"/>
</g>
<!-- 13352 -->
<g id="node34" class="node">
<title>13352</title>
<ellipse fill="white" stroke="black" cx="343.46" cy="-389.01" rx="27.22" ry="27.22"/>
<text text-anchor="middle" x="343.46" y="-385.71" font-family="Times,serif" font-size="9.00">13352</text>
</g>
<!-- 13352&#45;&gt;3 -->
<g id="edge32" class="edge">
<title>13352&#45;&gt;3</title>
<path fill="none" stroke="red" stroke-width="0.52" stroke-dasharray="1,5" d="M353.21,-363.38C358.33,-350.44 364.56,-334.7 369.55,-322.08"/>
<polygon fill="red" stroke="red" stroke-width="0.52" points="372.68,-323.67 373.11,-313.09 366.17,-321.1 372.68,-323.67"/>
</g>
<!-- 8747&#45;&gt;3 -->
<g id="edge14" class="edge">
<title>8747&#45;&gt;3</title>
<path fill="none" stroke="green" stroke-width="0.15" stroke-dasharray="1,5" d="M404.05,-366.15C398.91,-352.78 392.35,-335.71 387.16,-322.2"/>
<polygon fill="green" stroke="green" stroke-width="0.15" points="390.44,-320.97 383.58,-312.89 383.9,-323.48 390.44,-320.97"/>
</g>
<!-- 14641&#45;&gt;4326 -->
<g id="edge48" class="edge">
<title>14641&#45;&gt;4326</title>
<path fill="none" stroke="green" stroke-width="0.61" d="M1101.51,-91.56C1098.49,-82.01 1095,-70.98 1091.78,-60.84"/>
<polygon fill="green" stroke="green" stroke-width="0.61" points="1095.2,-60.04 1088.85,-51.56 1088.53,-62.15 1095.2,-60.04"/>
</g>
<!-- 15539&#45;&gt;13735 -->
<g id="edge60" class="edge">
<title>15539&#45;&gt;13735</title>
<path fill="none" stroke="red" stroke-width="0.66" d="M1101.46,-361.48C1101.46,-353.78 1101.46,-345.23 1101.46,-337"/>
<polygon fill="red" stroke="red" stroke-width="0.66" points="1104.96,-337.08 1101.46,-327.08 1097.96,-337.08 1104.96,-337.08"/>
</g>
<!-- 12980&#45;&gt;3423 -->
<g id="edge28" class="edge">
<title>12980&#45;&gt;3423</title>
<path fill="none" stroke="red" stroke-width="0.2" stroke-dasharray="1,5" d="M558.63,-280.01C570.83,-268.42 585.84,-252.28 595.46,-235.34 610.35,-209.12 619.52,-175.9 624.71,-151.62"/>
<polygon fill="red" stroke="red" stroke-width="0.2" points="628.08,-152.61 626.64,-142.11 621.22,-151.22 628.08,-152.61"/>
</g>
<!-- 16227 -->
<g id="node52" class="node">
<title>16227</title>
<ellipse fill="white" stroke="black" cx="559.46" cy="-208.12" rx="27.22" ry="27.22"/>
<text text-anchor="middle" x="559.46" y="-204.82" font-family="Times,serif" font-size="9.00">16227</text>
</g>
<!-- 12980&#45;&gt;16227 -->
<g id="edge63" class="edge">
<title>12980&#45;&gt;16227</title>
<path fill="none" stroke="red" stroke-width="0.21" stroke-dasharray="1,5" d="M544.53,-271.98C546.54,-263.53 548.81,-253.97 550.96,-244.9"/>
<polygon fill="red" stroke="red" stroke-width="0.21" points="554.35,-245.79 553.25,-235.25 547.54,-244.17 554.35,-245.79"/>
</g>
<!-- 12726 -->
<g id="node39" class="node">
<title>12726</title>
<ellipse fill="white" stroke="black" cx="754.46" cy="-208.12" rx="27.22" ry="27.22"/>
<text text-anchor="middle" x="754.46" y="-204.82" font-family="Times,serif" font-size="9.00">12726</text>
</g>
<!-- 12726&#45;&gt;16768 -->
<g id="edge79" class="edge">
<title>12726&#45;&gt;16768</title>
<path fill="none" stroke="green" stroke-width="0.36" d="M740.3,-184.34C733.82,-173.92 726.03,-161.4 719.01,-150.11"/>
<polygon fill="green" stroke="green" stroke-width="0.36" points="722.11,-148.48 713.86,-141.83 716.17,-152.17 722.11,-148.48"/>
</g>
<!-- 14780&#45;&gt;1995 -->
<g id="edge52" class="edge">
<title>14780&#45;&gt;1995</title>
<path fill="none" stroke="green" stroke-width="0.49" stroke-dasharray="1,5" d="M251.35,-90.61C253.41,-81.5 255.75,-71.15 257.93,-61.54"/>
<polygon fill="green" stroke="green" stroke-width="0.49" points="261.33,-62.35 260.12,-51.82 254.5,-60.8 261.33,-62.35"/>
</g>
<!-- 15293&#45;&gt;14343 -->
<g id="edge57" class="edge">
<title>15293&#45;&gt;14343</title>
<path fill="none" stroke="green" stroke-width="0.2" d="M69.06,-180.58C68.34,-172.62 67.54,-163.75 66.77,-155.26"/>
<polygon fill="green" stroke="green" stroke-width="0.2" points="70.27,-155.14 65.89,-145.5 63.3,-155.77 70.27,-155.14"/>
</g>
<!-- 12103 -->
<g id="node43" class="node">
<title>12103</title>
<ellipse fill="white" stroke="black" cx="1490.46" cy="-569.91" rx="27.22" ry="27.22"/>
<text text-anchor="middle" x="1490.46" y="-566.61" font-family="Times,serif" font-size="9.00">12103</text>
</g>
<!-- 15690&#45;&gt;14641 -->
<g id="edge62" class="edge">
<title>15690&#45;&gt;14641</title>
<path fill="none" stroke="red" d="M1137.08,-182.95C1133.17,-173.86 1128.65,-163.34 1124.41,-153.47"/>
<polygon fill="red" stroke="red" points="1127.72,-152.32 1120.56,-144.51 1121.29,-155.08 1127.72,-152.32"/>
</g>
<!-- 15690&#45;&gt;15690 -->
<g id="edge80" class="edge">
<title>15690&#45;&gt;15690</title>
<path fill="none" stroke="red" stroke-width="0.25" d="M1169.8,-224.38C1181.77,-227.14 1192.68,-221.72 1192.68,-208.12 1192.68,-198.55 1187.29,-193.04 1179.92,-191.56"/>
<polygon fill="red" stroke="red" stroke-width="0.25" points="1180.07,-188.06 1170.18,-191.85 1180.27,-195.05 1180.07,-188.06"/>
</g>
<!-- 12491&#45;&gt;4326 -->
<g id="edge39" class="edge">
<title>12491&#45;&gt;4326</title>
<path fill="none" stroke="green" stroke-width="0.56" d="M907.58,-279.5C920.29,-267.59 936.68,-251.29 949.46,-235.34 996.73,-176.35 1041.83,-99.73 1065.1,-58.19"/>
<polygon fill="green" stroke="green" stroke-width="0.56" points="1068.05,-60.09 1069.86,-49.65 1061.94,-56.68 1068.05,-60.09"/>
</g>
<!-- 13908&#45;&gt;4326 -->
<g id="edge38" class="edge">
<title>13908&#45;&gt;4326</title>
<path fill="none" stroke="red" stroke-width="0.23" stroke-dasharray="1,5" d="M1277.69,-271.03C1279.83,-228.08 1277.74,-142.89 1234.46,-90.45 1204.64,-54.32 1150.57,-38.96 1115.34,-32.58"/>
<polygon fill="red" stroke="red" stroke-width="0.23" points="1116.29,-29.19 1105.85,-31 1115.14,-36.09 1116.29,-29.19"/>
</g>
<!-- 13273&#45;&gt;4 -->
<g id="edge53" class="edge">
<title>13273&#45;&gt;4</title>
<path fill="none" stroke="green" stroke-width="0.18" d="M628.69,-278.37C643.31,-262.97 663.68,-241.53 677.86,-226.6"/>
<polygon fill="green" stroke="green" stroke-width="0.18" points="680.11,-229.31 684.46,-219.65 675.03,-224.49 680.11,-229.31"/>
</g>
<!-- 14940&#45;&gt;1995 -->
<g id="edge54" class="edge">
<title>14940&#45;&gt;1995</title>
<path fill="none" stroke="green" stroke-width="0.27" stroke-dasharray="1,5" d="M751.26,-99.06C746.37,-95.65 740.96,-92.51 735.46,-90.45 561.64,-25.43 498.36,-103.8 319.46,-54.45 311.34,-52.21 302.96,-48.76 295.29,-45.1"/>
<polygon fill="green" stroke="green" stroke-width="0.27" points="296.92,-42 286.41,-40.61 293.76,-48.25 296.92,-42"/>
</g>
<!-- 3423&#45;&gt;0 -->
<g id="edge27" class="edge">
<title>3423&#45;&gt;0</title>
<path fill="none" stroke="green" stroke-width="0.19" stroke-dasharray="1,5" d="M611.88,-101.87C591.58,-85.69 559.2,-59.89 538.66,-43.52"/>
<polygon fill="green" stroke="green" stroke-width="0.19" points="540.87,-40.81 530.87,-37.31 536.51,-46.28 540.87,-40.81"/>
</g>
<!-- 3423&#45;&gt;12219 -->
<g id="edge33" class="edge">
<title>3423&#45;&gt;12219</title>
<path fill="none" stroke="green" stroke-width="0.49" d="M626.08,-93.89C624.38,-85.02 622.38,-74.63 620.48,-64.77"/>
<polygon fill="green" stroke="green" stroke-width="0.49" points="623.95,-64.26 618.62,-55.1 617.07,-65.58 623.95,-64.26"/>
</g>
<!-- 16227&#45;&gt;3423 -->
<g id="edge64" class="edge">
<title>16227&#45;&gt;3423</title>
<path fill="none" stroke="green" stroke-width="0.27" d="M576.29,-186.16C586.2,-173.8 598.83,-158.07 609.41,-144.9"/>
<polygon fill="green" stroke="green" stroke-width="0.27" points="611.9,-147.38 615.43,-137.39 606.44,-143 611.9,-147.38"/>
</g>
<!-- 4843&#45;&gt;0 -->
<g id="edge72" class="edge">
<title>4843&#45;&gt;0</title>
<path fill="none" stroke="red" stroke-width="0.22" stroke-dasharray="1,5" d="M501.38,-186.44C507.03,-174.62 513.37,-159.32 516.46,-144.89 523.19,-113.42 522.72,-76.09 521.4,-52.28"/>
<polygon fill="red" stroke="red" stroke-width="0.22" points="524.9,-52.15 520.75,-42.4 517.91,-52.61 524.9,-52.15"/>
</g>
<!-- 4843&#45;&gt;16768 -->
<g id="edge76" class="edge">
<title>4843&#45;&gt;16768</title>
<path fill="none" stroke="green" stroke-width="0.31" d="M507.68,-191.22C512.51,-187.4 517.96,-183.63 523.46,-180.89 580.98,-152.28 605.35,-172.3 663.46,-144.89 665.72,-143.83 667.99,-142.61 670.22,-141.3"/>
<polygon fill="green" stroke="green" stroke-width="0.31" points="671.7,-144.51 678.2,-136.14 667.9,-138.63 671.7,-144.51"/>
</g>
<!-- 4843&#45;&gt;8347 -->
<g id="edge12" class="edge">
<title>4843&#45;&gt;8347</title>
<path fill="none" stroke="red" stroke-width="0.27" stroke-dasharray="1,5" d="M502.58,-187.38C520.05,-160.77 554.91,-114.03 597.46,-90.45 674.16,-47.94 711.66,-90.8 791.46,-54.45 793.99,-53.29 796.5,-51.9 798.94,-50.37"/>
<polygon fill="red" stroke="red" stroke-width="0.27" points="800.91,-53.26 807.03,-44.61 796.86,-47.56 800.91,-53.26"/>
</g>
<!-- 4843&#45;&gt;14780 -->
<g id="edge51" class="edge">
<title>4843&#45;&gt;14780</title>
<path fill="none" stroke="green" stroke-width="0.15" d="M467.93,-198.67C453.34,-193.31 433.88,-186.39 416.46,-180.89 359.28,-162.87 341.21,-169.32 286.46,-144.89 282.91,-143.31 279.32,-141.46 275.81,-139.47"/>
<polygon fill="green" stroke="green" stroke-width="0.15" points="277.9,-136.64 267.53,-134.48 274.29,-142.64 277.9,-136.64"/>
</g>
<!-- 4843&#45;&gt;1995 -->
<g id="edge7" class="edge">
<title>4843&#45;&gt;1995</title>
<path fill="none" stroke="red" stroke-width="0.5" d="M467.85,-199.15C422.04,-182.96 322.32,-147.53 319.46,-144.89 295.19,-122.6 280.95,-87.21 273.25,-61.25"/>
<polygon fill="red" stroke="red" stroke-width="0.5" points="276.69,-60.54 270.63,-51.85 269.94,-62.42 276.69,-60.54"/>
</g>
<!-- 14705&#45;&gt;11664 -->
<g id="edge50" class="edge">
<title>14705&#45;&gt;11664</title>
<path fill="none" stroke="red" stroke-width="0.55" d="M396.68,-185.71C405.15,-174.52 415.66,-160.64 424.92,-148.43"/>
<polygon fill="red" stroke="red" stroke-width="0.55" points="427.64,-150.63 430.89,-140.54 422.06,-146.4 427.64,-150.63"/>
</g>
<!-- 16625&#45;&gt;12491 -->
<g id="edge74" class="edge">
<title>16625&#45;&gt;12491</title>
<path fill="none" stroke="red" stroke-width="0.85" d="M868.27,-362.43C870.82,-354.09 873.69,-344.66 876.43,-335.7"/>
<polygon fill="red" stroke="red" stroke-width="0.85" points="879.72,-336.91 879.29,-326.32 873.02,-334.86 879.72,-336.91"/>
</g>
<!-- 16380&#45;&gt;1995 -->
<g id="edge67" class="edge">
<title>16380&#45;&gt;1995</title>
<path fill="none" stroke="red" stroke-width="0.27" d="M157.81,-101.47C179.92,-86.42 213.82,-63.36 237.66,-47.14"/>
<polygon fill="red" stroke="red" stroke-width="0.27" points="239.32,-50.24 245.61,-41.73 235.38,-44.46 239.32,-50.24"/>
</g>
</g>
</svg>
