<?xml version="1.0" encoding="UTF-8" standalone="no"?>
<!DOCTYPE svg PUBLIC "-//W3C//DTD SVG 1.1//EN"
 "http://www.w3.org/Graphics/SVG/1.1/DTD/svg11.dtd">
<!-- Generated by graphviz version 12.1.1 (20240910.0053)
 -->
<!-- Pages: 1 -->
<svg width="721pt" height="432pt"
 viewBox="0.00 0.00 721.50 431.95" xmlns="http://www.w3.org/2000/svg" xmlns:xlink="http://www.w3.org/1999/xlink">
<g id="graph0" class="graph" transform="scale(1 1) rotate(0) translate(4 427.95)">
<polygon fill="white" stroke="none" points="-4,4 -4,-427.95 717.5,-427.95 717.5,4 -4,4"/>
<!-- &#45;1 -->
<g id="node1" class="node">
<title>&#45;1</title>
<polygon fill="lightgray" stroke="black" points="129.75,-347.35 106.25,-347.35 106.25,-328.85 129.75,-328.85 129.75,-347.35"/>
<text text-anchor="middle" x="118" y="-334.8" font-family="Times,serif" font-size="9.00">&#45;1</text>
</g>
<!-- 3 -->
<g id="node24" class="node">
<title>3</title>
<ellipse fill="lightblue" stroke="black" cx="117" cy="-257.2" rx="14.5" ry="14.5"/>
<text text-anchor="middle" x="117" y="-253.9" font-family="Times,serif" font-size="9.00">3</text>
</g>
<!-- &#45;1&#45;&gt;3 -->
<g id="edge38" class="edge">
<title>&#45;1&#45;&gt;3</title>
<path fill="none" stroke="red" stroke-width="0.54" stroke-dasharray="1,5" d="M117.89,-328.36C117.75,-317.38 117.51,-298.1 117.31,-282.53"/>
<polygon fill="red" stroke="red" stroke-width="0.54" points="120.81,-282.78 117.19,-272.83 113.81,-282.87 120.81,-282.78"/>
</g>
<!-- 680 -->
<g id="node29" class="node">
<title>680</title>
<ellipse fill="white" stroke="black" cx="235" cy="-173.12" rx="20.86" ry="20.86"/>
<text text-anchor="middle" x="235" y="-169.82" font-family="Times,serif" font-size="9.00">680</text>
</g>
<!-- &#45;1&#45;&gt;680 -->
<g id="edge9" class="edge">
<title>&#45;1&#45;&gt;680</title>
<path fill="none" stroke="red" stroke-width="0.63" stroke-dasharray="1,5" d="M122.02,-328.59C130.86,-310.27 153.18,-266.11 178,-233.16 188.21,-219.61 201.26,-205.88 212.29,-195.09"/>
<polygon fill="red" stroke="red" stroke-width="0.63" points="214.42,-197.89 219.21,-188.44 209.57,-192.84 214.42,-197.89"/>
</g>
<!-- 682 -->
<g id="node31" class="node">
<title>682</title>
<ellipse fill="white" stroke="black" cx="208" cy="-257.2" rx="20.86" ry="20.86"/>
<text text-anchor="middle" x="208" y="-253.9" font-family="Times,serif" font-size="9.00">682</text>
</g>
<!-- &#45;1&#45;&gt;682 -->
<g id="edge12" class="edge">
<title>&#45;1&#45;&gt;682</title>
<path fill="none" stroke="green" stroke-width="0.49" stroke-dasharray="1,5" d="M127.98,-328.36C141.55,-316.46 166.25,-294.8 184.63,-278.69"/>
<polygon fill="green" stroke="green" stroke-width="0.49" points="186.8,-281.44 192.01,-272.22 182.19,-276.18 186.8,-281.44"/>
</g>
<!-- 1985 -->
<g id="node34" class="node">
<title>1985</title>
<ellipse fill="white" stroke="black" cx="60" cy="-257.2" rx="24.04" ry="24.04"/>
<text text-anchor="middle" x="60" y="-253.9" font-family="Times,serif" font-size="9.00">1985</text>
</g>
<!-- &#45;1&#45;&gt;1985 -->
<g id="edge39" class="edge">
<title>&#45;1&#45;&gt;1985</title>
<path fill="none" stroke="red" stroke-width="0.25" stroke-dasharray="1,5" d="M111.57,-328.36C103.96,-318 90.91,-300.24 79.84,-285.19"/>
<polygon fill="red" stroke="red" stroke-width="0.25" points="82.92,-283.46 74.17,-277.48 77.28,-287.61 82.92,-283.46"/>
</g>
<!-- &#45;2 -->
<g id="node2" class="node">
<title>&#45;2</title>
<polygon fill="lightgray" stroke="black" points="326.75,-266.45 303.25,-266.45 303.25,-247.95 326.75,-247.95 326.75,-266.45"/>
<text text-anchor="middle" x="315" y="-253.9" font-family="Times,serif" font-size="9.00">&#45;2</text>
</g>
<!-- &#45;2&#45;&gt;680 -->
<g id="edge16" class="edge">
<title>&#45;2&#45;&gt;680</title>
<path fill="none" stroke="green" stroke-width="0.4" d="M306.74,-247.72C294.97,-235.65 272.96,-213.07 256.42,-196.09"/>
<polygon fill="green" stroke="green" stroke-width="0.4" points="259.16,-193.89 249.68,-189.17 254.15,-198.78 259.16,-193.89"/>
</g>
<!-- &#45;3 -->
<g id="node3" class="node">
<title>&#45;3</title>
<polygon fill="lightgray" stroke="black" points="257.75,-347.35 234.25,-347.35 234.25,-328.85 257.75,-328.85 257.75,-347.35"/>
<text text-anchor="middle" x="246" y="-334.8" font-family="Times,serif" font-size="9.00">&#45;3</text>
</g>
<!-- 678 -->
<g id="node27" class="node">
<title>678</title>
<ellipse fill="white" stroke="black" cx="450" cy="-257.2" rx="20.86" ry="20.86"/>
<text text-anchor="middle" x="450" y="-253.9" font-family="Times,serif" font-size="9.00">678</text>
</g>
<!-- &#45;3&#45;&gt;678 -->
<g id="edge2" class="edge">
<title>&#45;3&#45;&gt;678</title>
<path fill="none" stroke="green" stroke-width="0.19" d="M253.47,-328.42C257.2,-324.54 261.98,-320.19 267,-317.24 313.2,-290.15 331.08,-297.84 382,-281.24 394.78,-277.08 408.85,-272.33 420.87,-268.24"/>
<polygon fill="green" stroke="green" stroke-width="0.19" points="421.8,-271.62 430.13,-265.07 419.53,-264.99 421.8,-271.62"/>
</g>
<!-- &#45;3&#45;&gt;682 -->
<g id="edge23" class="edge">
<title>&#45;3&#45;&gt;682</title>
<path fill="none" stroke="red" stroke-width="0.15" stroke-dasharray="1,5" d="M241.79,-328.36C236.83,-318.06 228.35,-300.45 221.12,-285.45"/>
<polygon fill="red" stroke="red" stroke-width="0.15" points="224.42,-284.23 216.93,-276.74 218.11,-287.27 224.42,-284.23"/>
</g>
<!-- &#45;4 -->
<g id="node4" class="node">
<title>&#45;4</title>
<polygon fill="lightgray" stroke="black" points="295.75,-418.71 272.25,-418.71 272.25,-400.21 295.75,-400.21 295.75,-418.71"/>
<text text-anchor="middle" x="284" y="-406.16" font-family="Times,serif" font-size="9.00">&#45;4</text>
</g>
<!-- &#45;5 -->
<g id="node5" class="node">
<title>&#45;5</title>
<polygon fill="lightgray" stroke="black" points="394.75,-418.71 371.25,-418.71 371.25,-400.21 394.75,-400.21 394.75,-418.71"/>
<text text-anchor="middle" x="383" y="-406.16" font-family="Times,serif" font-size="9.00">&#45;5</text>
</g>
<!-- &#45;6 -->
<g id="node6" class="node">
<title>&#45;6</title>
<polygon fill="lightgray" stroke="black" points="345.75,-347.35 322.25,-347.35 322.25,-328.85 345.75,-328.85 345.75,-347.35"/>
<text text-anchor="middle" x="334" y="-334.8" font-family="Times,serif" font-size="9.00">&#45;6</text>
</g>
<!-- 679 -->
<g id="node28" class="node">
<title>679</title>
<ellipse fill="white" stroke="black" cx="528" cy="-257.2" rx="20.86" ry="20.86"/>
<text text-anchor="middle" x="528" y="-253.9" font-family="Times,serif" font-size="9.00">679</text>
</g>
<!-- &#45;6&#45;&gt;679 -->
<g id="edge18" class="edge">
<title>&#45;6&#45;&gt;679</title>
<path fill="none" stroke="red" stroke-width="0.17" stroke-dasharray="1,5" d="M341.01,-328.69C344.78,-324.68 349.72,-320.14 355,-317.24 412.45,-285.7 439.01,-309.79 498,-281.24 500.22,-280.16 502.44,-278.91 504.61,-277.54"/>
<polygon fill="red" stroke="red" stroke-width="0.17" points="506.22,-280.69 512.4,-272.08 502.2,-274.96 506.22,-280.69"/>
</g>
<!-- &#45;6&#45;&gt;680 -->
<g id="edge17" class="edge">
<title>&#45;6&#45;&gt;680</title>
<path fill="none" stroke="red" stroke-width="0.19" stroke-dasharray="1,5" d="M327.44,-328.61C319.24,-317.85 304.94,-298.6 294,-281.24 277.33,-254.8 260.32,-223.34 248.88,-201.38"/>
<polygon fill="red" stroke="red" stroke-width="0.19" points="252.02,-199.84 244.31,-192.56 245.8,-203.05 252.02,-199.84"/>
</g>
<!-- &#45;6&#45;&gt;682 -->
<g id="edge20" class="edge">
<title>&#45;6&#45;&gt;682</title>
<path fill="none" stroke="green" stroke-width="0.21" stroke-dasharray="1,5" d="M325.84,-328.48C322.11,-324.79 317.53,-320.57 313,-317.24 288.36,-299.09 257.58,-282.4 235.73,-271.43"/>
<polygon fill="green" stroke="green" stroke-width="0.21" points="237.46,-268.38 226.94,-267.09 234.36,-274.65 237.46,-268.38"/>
</g>
<!-- &#45;7 -->
<g id="node7" class="node">
<title>&#45;7</title>
<polygon fill="lightgray" stroke="black" points="465.75,-418.71 442.25,-418.71 442.25,-400.21 465.75,-400.21 465.75,-418.71"/>
<text text-anchor="middle" x="454" y="-406.16" font-family="Times,serif" font-size="9.00">&#45;7</text>
</g>
<!-- &#45;8 -->
<g id="node8" class="node">
<title>&#45;8</title>
<polygon fill="lightgray" stroke="black" points="521.75,-418.71 498.25,-418.71 498.25,-400.21 521.75,-400.21 521.75,-418.71"/>
<text text-anchor="middle" x="510" y="-406.16" font-family="Times,serif" font-size="9.00">&#45;8</text>
</g>
<!-- &#45;9 -->
<g id="node9" class="node">
<title>&#45;9</title>
<polygon fill="lightgray" stroke="black" points="464.75,-182.37 441.25,-182.37 441.25,-163.87 464.75,-163.87 464.75,-182.37"/>
<text text-anchor="middle" x="453" y="-169.82" font-family="Times,serif" font-size="9.00">&#45;9</text>
</g>
<!-- 1333 -->
<g id="node35" class="node">
<title>1333</title>
<ellipse fill="white" stroke="black" cx="440" cy="-89.03" rx="24.04" ry="24.04"/>
<text text-anchor="middle" x="440" y="-85.73" font-family="Times,serif" font-size="9.00">1333</text>
</g>
<!-- &#45;9&#45;&gt;1333 -->
<g id="edge37" class="edge">
<title>&#45;9&#45;&gt;1333</title>
<path fill="none" stroke="red" stroke-width="0.12" stroke-dasharray="1,5" d="M451.66,-163.64C450.14,-154.06 447.57,-137.86 445.24,-123.09"/>
<polygon fill="red" stroke="red" stroke-width="0.12" points="448.72,-122.71 443.7,-113.38 441.81,-123.81 448.72,-122.71"/>
</g>
<!-- &#45;10 -->
<g id="node10" class="node">
<title>&#45;10</title>
<polygon fill="lightgray" stroke="black" points="78,-418.71 50,-418.71 50,-400.21 78,-400.21 78,-418.71"/>
<text text-anchor="middle" x="64" y="-406.16" font-family="Times,serif" font-size="9.00">&#45;10</text>
</g>
<!-- 681 -->
<g id="node30" class="node">
<title>681</title>
<ellipse fill="white" stroke="black" cx="64" cy="-338.1" rx="20.86" ry="20.86"/>
<text text-anchor="middle" x="64" y="-334.8" font-family="Times,serif" font-size="9.00">681</text>
</g>
<!-- &#45;10&#45;&gt;681 -->
<g id="edge22" class="edge">
<title>&#45;10&#45;&gt;681</title>
<path fill="none" stroke="red" stroke-width="0.22" d="M64,-399.95C64,-392.33 64,-380.68 64,-369.6"/>
<polygon fill="red" stroke="red" stroke-width="0.22" points="67.5,-369.65 64,-359.65 60.5,-369.65 67.5,-369.65"/>
</g>
<!-- &#45;11 -->
<g id="node11" class="node">
<title>&#45;11</title>
<polygon fill="lightgray" stroke="black" points="545,-347.35 517,-347.35 517,-328.85 545,-328.85 545,-347.35"/>
<text text-anchor="middle" x="531" y="-334.8" font-family="Times,serif" font-size="9.00">&#45;11</text>
</g>
<!-- &#45;11&#45;&gt;679 -->
<g id="edge5" class="edge">
<title>&#45;11&#45;&gt;679</title>
<path fill="none" stroke="green" stroke-width="0.62" d="M530.67,-328.36C530.31,-318.92 529.72,-303.36 529.18,-289.28"/>
<polygon fill="green" stroke="green" stroke-width="0.62" points="532.68,-289.25 528.81,-279.39 525.69,-289.51 532.68,-289.25"/>
</g>
<!-- &#45;12 -->
<g id="node12" class="node">
<title>&#45;12</title>
<polygon fill="lightgray" stroke="black" points="575,-418.71 547,-418.71 547,-400.21 575,-400.21 575,-418.71"/>
<text text-anchor="middle" x="561" y="-406.16" font-family="Times,serif" font-size="9.00">&#45;12</text>
</g>
<!-- 677 -->
<g id="node26" class="node">
<title>677</title>
<ellipse fill="white" stroke="black" cx="584" cy="-338.1" rx="20.86" ry="20.86"/>
<text text-anchor="middle" x="584" y="-334.8" font-family="Times,serif" font-size="9.00">677</text>
</g>
<!-- &#45;12&#45;&gt;677 -->
<g id="edge7" class="edge">
<title>&#45;12&#45;&gt;677</title>
<path fill="none" stroke="red" stroke-width="0.11" stroke-dasharray="1,5" d="M563.82,-399.95C566.48,-391.93 570.63,-379.43 574.47,-367.84"/>
<polygon fill="red" stroke="red" stroke-width="0.11" points="577.71,-369.2 577.53,-358.6 571.06,-366.99 577.71,-369.2"/>
</g>
<!-- &#45;13 -->
<g id="node13" class="node">
<title>&#45;13</title>
<polygon fill="lightgray" stroke="black" points="461,-347.35 433,-347.35 433,-328.85 461,-328.85 461,-347.35"/>
<text text-anchor="middle" x="447" y="-334.8" font-family="Times,serif" font-size="9.00">&#45;13</text>
</g>
<!-- &#45;13&#45;&gt;678 -->
<g id="edge13" class="edge">
<title>&#45;13&#45;&gt;678</title>
<path fill="none" stroke="green" stroke-width="0.96" stroke-dasharray="1,5" d="M447.33,-328.36C447.69,-319.01 448.27,-303.66 448.8,-289.7"/>
<polygon fill="green" stroke="green" stroke-width="0.96" points="452.29,-290.03 449.17,-279.9 445.3,-289.76 452.29,-290.03"/>
</g>
<!-- &#45;13&#45;&gt;679 -->
<g id="edge8" class="edge">
<title>&#45;13&#45;&gt;679</title>
<path fill="none" stroke="green" stroke-width="0.38" d="M455.98,-328.36C467.98,-316.66 489.65,-295.56 506.09,-279.54"/>
<polygon fill="green" stroke="green" stroke-width="0.38" points="508.09,-282.48 512.81,-273 503.2,-277.47 508.09,-282.48"/>
</g>
<!-- &#45;13&#45;&gt;680 -->
<g id="edge11" class="edge">
<title>&#45;13&#45;&gt;680</title>
<path fill="none" stroke="green" stroke-width="0.4" d="M442.45,-328.36C430.66,-305.96 398.81,-247.23 382,-233.16 347.71,-204.45 297.66,-188.39 265.72,-180.49"/>
<polygon fill="green" stroke="green" stroke-width="0.4" points="266.76,-177.14 256.22,-178.26 265.16,-183.96 266.76,-177.14"/>
</g>
<!-- &#45;14 -->
<g id="node14" class="node">
<title>&#45;14</title>
<polygon fill="lightgray" stroke="black" points="28,-418.71 0,-418.71 0,-400.21 28,-400.21 28,-418.71"/>
<text text-anchor="middle" x="14" y="-406.16" font-family="Times,serif" font-size="9.00">&#45;14</text>
</g>
<!-- &#45;14&#45;&gt;680 -->
<g id="edge26" class="edge">
<title>&#45;14&#45;&gt;680</title>
<path fill="none" stroke="green" stroke-width="0.48" stroke-dasharray="1,5" d="M11.6,-399.94C4.37,-372.26 -14.27,-283.77 27,-233.16 49.37,-205.73 151.66,-186.67 203.98,-178.54"/>
<polygon fill="green" stroke="green" stroke-width="0.48" points="204.26,-182.03 213.62,-177.08 203.21,-175.11 204.26,-182.03"/>
</g>
<!-- &#45;14&#45;&gt;681 -->
<g id="edge27" class="edge">
<title>&#45;14&#45;&gt;681</title>
<path fill="none" stroke="red" stroke-width="0.24" d="M20.13,-399.95C26.57,-391.02 37.01,-376.54 46.09,-363.95"/>
<polygon fill="red" stroke="red" stroke-width="0.24" points="48.87,-366.08 51.87,-355.92 43.19,-361.99 48.87,-366.08"/>
</g>
<!-- &#45;15 -->
<g id="node15" class="node">
<title>&#45;15</title>
<polygon fill="lightgray" stroke="black" points="220,-418.71 192,-418.71 192,-400.21 220,-400.21 220,-418.71"/>
<text text-anchor="middle" x="206" y="-406.16" font-family="Times,serif" font-size="9.00">&#45;15</text>
</g>
<!-- &#45;15&#45;&gt;679 -->
<g id="edge29" class="edge">
<title>&#45;15&#45;&gt;679</title>
<path fill="none" stroke="red" stroke-width="0.15" d="M220.47,-404.77C231.96,-401.91 248.46,-397.94 263,-394.96 354.48,-376.19 393.48,-412.48 470,-358.96 494.75,-341.65 510.38,-310.15 519.1,-286.97"/>
<polygon fill="red" stroke="red" stroke-width="0.15" points="522.3,-288.42 522.34,-277.82 515.7,-286.08 522.3,-288.42"/>
</g>
<!-- &#45;15&#45;&gt;681 -->
<g id="edge19" class="edge">
<title>&#45;15&#45;&gt;681</title>
<path fill="none" stroke="red" stroke-width="0.21" d="M191.64,-402.56C170.55,-393.77 130.11,-376.37 97,-358.96 94.77,-357.79 92.49,-356.53 90.21,-355.24"/>
<polygon fill="red" stroke="red" stroke-width="0.21" points="92.26,-352.39 81.86,-350.36 88.73,-358.43 92.26,-352.39"/>
</g>
<!-- &#45;15&#45;&gt;682 -->
<g id="edge24" class="edge">
<title>&#45;15&#45;&gt;682</title>
<path fill="none" stroke="green" stroke-width="0.83" stroke-dasharray="1,5" d="M206.11,-399.95C206.39,-379.09 207.12,-324.56 207.58,-289.53"/>
<polygon fill="green" stroke="green" stroke-width="0.83" points="211.08,-289.78 207.71,-279.74 204.08,-289.69 211.08,-289.78"/>
</g>
<!-- &#45;16 -->
<g id="node16" class="node">
<title>&#45;16</title>
<polygon fill="lightgray" stroke="black" points="304,-347.35 276,-347.35 276,-328.85 304,-328.85 304,-347.35"/>
<text text-anchor="middle" x="290" y="-334.8" font-family="Times,serif" font-size="9.00">&#45;16</text>
</g>
<!-- &#45;16&#45;&gt;679 -->
<g id="edge6" class="edge">
<title>&#45;16&#45;&gt;679</title>
<path fill="none" stroke="red" stroke-width="0.3" d="M297.76,-328.58C301.9,-324.54 307.31,-320.01 313,-317.24 388.34,-280.64 421.64,-315.67 498,-281.24 500.3,-280.2 502.6,-278.95 504.82,-277.58"/>
<polygon fill="red" stroke="red" stroke-width="0.3" points="506.43,-280.73 512.63,-272.14 502.42,-274.99 506.43,-280.73"/>
</g>
<!-- &#45;16&#45;&gt;682 -->
<g id="edge14" class="edge">
<title>&#45;16&#45;&gt;682</title>
<path fill="none" stroke="green" stroke-width="0.56" d="M280.91,-328.36C268.8,-316.7 246.96,-295.69 230.33,-279.69"/>
<polygon fill="green" stroke="green" stroke-width="0.56" points="232.9,-277.3 223.26,-272.89 228.04,-282.34 232.9,-277.3"/>
</g>
<!-- &#45;17 -->
<g id="node17" class="node">
<title>&#45;17</title>
<polygon fill="lightgray" stroke="black" points="621,-418.71 593,-418.71 593,-400.21 621,-400.21 621,-418.71"/>
<text text-anchor="middle" x="607" y="-406.16" font-family="Times,serif" font-size="9.00">&#45;17</text>
</g>
<!-- &#45;17&#45;&gt;677 -->
<g id="edge21" class="edge">
<title>&#45;17&#45;&gt;677</title>
<path fill="none" stroke="green" stroke-width="0.35" d="M604.18,-399.95C601.54,-392.01 597.46,-379.68 593.65,-368.19"/>
<polygon fill="green" stroke="green" stroke-width="0.35" points="597.05,-367.34 590.58,-358.95 590.41,-369.54 597.05,-367.34"/>
</g>
<!-- &#45;18 -->
<g id="node18" class="node">
<title>&#45;18</title>
<polygon fill="lightgray" stroke="black" points="178,-347.35 150,-347.35 150,-328.85 178,-328.85 178,-347.35"/>
<text text-anchor="middle" x="164" y="-334.8" font-family="Times,serif" font-size="9.00">&#45;18</text>
</g>
<!-- &#45;18&#45;&gt;682 -->
<g id="edge1" class="edge">
<title>&#45;18&#45;&gt;682</title>
<path fill="none" stroke="green" stroke-width="0.4" stroke-dasharray="1,5" d="M168.88,-328.36C174.7,-317.92 184.69,-299.99 193.13,-284.87"/>
<polygon fill="green" stroke="green" stroke-width="0.4" points="196.01,-286.88 197.83,-276.44 189.9,-283.47 196.01,-286.88"/>
</g>
<!-- &#45;19 -->
<g id="node19" class="node">
<title>&#45;19</title>
<polygon fill="lightgray" stroke="black" points="667,-418.71 639,-418.71 639,-400.21 667,-400.21 667,-418.71"/>
<text text-anchor="middle" x="653" y="-406.16" font-family="Times,serif" font-size="9.00">&#45;19</text>
</g>
<!-- &#45;20 -->
<g id="node20" class="node">
<title>&#45;20</title>
<polygon fill="lightgray" stroke="black" points="392,-347.35 364,-347.35 364,-328.85 392,-328.85 392,-347.35"/>
<text text-anchor="middle" x="378" y="-334.8" font-family="Times,serif" font-size="9.00">&#45;20</text>
</g>
<!-- 0 -->
<g id="node21" class="node">
<title>0</title>
<ellipse fill="lightblue" stroke="black" cx="359" cy="-257.2" rx="14.5" ry="14.5"/>
<text text-anchor="middle" x="359" y="-253.9" font-family="Times,serif" font-size="9.00">0</text>
</g>
<!-- &#45;20&#45;&gt;0 -->
<g id="edge43" class="edge">
<title>&#45;20&#45;&gt;0</title>
<path fill="none" stroke="red" stroke-width="0.15" d="M375.89,-328.36C373.18,-317.1 368.37,-297.11 364.57,-281.35"/>
<polygon fill="red" stroke="red" stroke-width="0.15" points="368.06,-280.86 362.31,-271.95 361.25,-282.49 368.06,-280.86"/>
</g>
<!-- &#45;20&#45;&gt;679 -->
<g id="edge10" class="edge">
<title>&#45;20&#45;&gt;679</title>
<path fill="none" stroke="red" stroke-width="0.24" stroke-dasharray="1,5" d="M392.35,-330.89C419.86,-318.92 478.94,-292.8 498,-281.24 499.96,-280.05 501.95,-278.76 503.91,-277.41"/>
<polygon fill="red" stroke="red" stroke-width="0.24" points="505.95,-280.25 511.97,-271.53 501.83,-274.6 505.95,-280.25"/>
</g>
<!-- &#45;20&#45;&gt;682 -->
<g id="edge15" class="edge">
<title>&#45;20&#45;&gt;682</title>
<path fill="none" stroke="red" stroke-width="0.42" stroke-dasharray="1,5" d="M369.58,-328.63C365.44,-324.8 360.23,-320.42 355,-317.24 317.18,-294.2 268.78,-276.79 238.07,-267.04"/>
<polygon fill="red" stroke="red" stroke-width="0.42" points="239.2,-263.72 228.61,-264.1 237.12,-270.41 239.2,-263.72"/>
</g>
<!-- 1 -->
<g id="node22" class="node">
<title>1</title>
<ellipse fill="lightblue" stroke="black" cx="564" cy="-173.12" rx="14.5" ry="14.5"/>
<text text-anchor="middle" x="564" y="-169.82" font-family="Times,serif" font-size="9.00">1</text>
</g>
<!-- 2 -->
<g id="node23" class="node">
<title>2</title>
<ellipse fill="lightblue" stroke="black" cx="699" cy="-409.46" rx="14.5" ry="14.5"/>
<text text-anchor="middle" x="699" y="-406.16" font-family="Times,serif" font-size="9.00">2</text>
</g>
<!-- 4 -->
<g id="node25" class="node">
<title>4</title>
<ellipse fill="lightblue" stroke="black" cx="414" cy="-14.5" rx="14.5" ry="14.5"/>
<text text-anchor="middle" x="414" y="-11.2" font-family="Times,serif" font-size="9.00">4</text>
</g>
<!-- 678&#45;&gt;4 -->
<g id="edge28" class="edge">
<title>678&#45;&gt;4</title>
<path fill="none" stroke="green" stroke-width="0.21" d="M441.53,-237.61C436.52,-226.12 430.34,-210.99 426,-197.16 408.23,-140.54 402.83,-124.19 407,-64.99 407.6,-56.44 408.78,-47.13 410,-38.91"/>
<polygon fill="green" stroke="green" stroke-width="0.21" points="413.43,-39.62 411.54,-29.2 406.52,-38.53 413.43,-39.62"/>
</g>
<!-- 678&#45;&gt;678 -->
<g id="edge4" class="edge">
<title>678&#45;&gt;678</title>
<path fill="none" stroke="green" stroke-width="0.53" stroke-dasharray="1,5" d="M466.37,-270.89C477.7,-275.03 488.86,-270.47 488.86,-257.2 488.86,-248.28 483.82,-243.3 477.08,-242.24"/>
<polygon fill="green" stroke="green" stroke-width="0.53" points="476.69,-238.76 467.17,-243.42 477.51,-245.72 476.69,-238.76"/>
</g>
<!-- 1316 -->
<g id="node32" class="node">
<title>1316</title>
<ellipse fill="white" stroke="black" cx="323" cy="-89.03" rx="24.04" ry="24.04"/>
<text text-anchor="middle" x="323" y="-85.73" font-family="Times,serif" font-size="9.00">1316</text>
</g>
<!-- 678&#45;&gt;1316 -->
<g id="edge31" class="edge">
<title>678&#45;&gt;1316</title>
<path fill="none" stroke="red" stroke-width="0.32" stroke-dasharray="1,5" d="M433,-245.02C407.35,-228.13 361.66,-198 361,-197.16 344.12,-175.54 334.37,-145.82 328.98,-123.17"/>
<polygon fill="red" stroke="red" stroke-width="0.32" points="332.41,-122.49 326.84,-113.48 325.58,-123.99 332.41,-122.49"/>
</g>
<!-- 1707 -->
<g id="node33" class="node">
<title>1707</title>
<ellipse fill="white" stroke="black" cx="507" cy="-173.12" rx="24.04" ry="24.04"/>
<text text-anchor="middle" x="507" y="-169.82" font-family="Times,serif" font-size="9.00">1707</text>
</g>
<!-- 678&#45;&gt;1707 -->
<g id="edge35" class="edge">
<title>678&#45;&gt;1707</title>
<path fill="none" stroke="red" stroke-width="0.24" d="M461.53,-239.59C469.04,-228.78 479.02,-214.41 487.71,-201.89"/>
<polygon fill="red" stroke="red" stroke-width="0.24" points="490.44,-204.1 493.27,-193.89 484.69,-200.1 490.44,-204.1"/>
</g>
<!-- 678&#45;&gt;1333 -->
<g id="edge33" class="edge">
<title>678&#45;&gt;1333</title>
<path fill="none" stroke="red" stroke-width="0.31" stroke-dasharray="1,5" d="M442.7,-237.38C438.66,-225.95 434.05,-210.94 432,-197.16 428.31,-172.38 430.69,-144.12 433.79,-122.84"/>
<polygon fill="red" stroke="red" stroke-width="0.31" points="437.22,-123.6 435.33,-113.17 430.3,-122.5 437.22,-123.6"/>
</g>
<!-- 679&#45;&gt;1 -->
<g id="edge25" class="edge">
<title>679&#45;&gt;1</title>
<path fill="none" stroke="green" stroke-width="0.67" d="M536.17,-237.57C541.48,-225.45 548.45,-209.57 554.08,-196.73"/>
<polygon fill="green" stroke="green" stroke-width="0.67" points="557.22,-198.29 558.03,-187.73 550.81,-195.48 557.22,-198.29"/>
</g>
<!-- 679&#45;&gt;4 -->
<g id="edge30" class="edge">
<title>679&#45;&gt;4</title>
<path fill="none" stroke="green" stroke-width="0.75" stroke-dasharray="1,5" d="M545.13,-244.96C559.35,-234.51 578.57,-217.51 587,-197.16 595.17,-177.41 596.42,-168.26 587,-149.07 555.57,-85.1 477.12,-43.09 437.58,-25.26"/>
<polygon fill="green" stroke="green" stroke-width="0.75" points="439.13,-22.11 428.56,-21.32 436.33,-28.53 439.13,-22.11"/>
</g>
<!-- 681&#45;&gt;3 -->
<g id="edge3" class="edge">
<title>681&#45;&gt;3</title>
<path fill="none" stroke="green" stroke-width="0.46" d="M75.24,-320.37C83.46,-308.14 94.64,-291.49 103.37,-278.5"/>
<polygon fill="green" stroke="green" stroke-width="0.46" points="106.15,-280.63 108.82,-270.38 100.34,-276.73 106.15,-280.63"/>
</g>
<!-- 681&#45;&gt;1985 -->
<g id="edge42" class="edge">
<title>681&#45;&gt;1985</title>
<path fill="none" stroke="red" stroke-width="0.2" stroke-dasharray="1,5" d="M62.97,-316.78C62.58,-309.12 62.13,-300.19 61.7,-291.64"/>
<polygon fill="red" stroke="red" stroke-width="0.2" points="65.2,-291.63 61.2,-281.82 58.21,-291.99 65.2,-291.63"/>
</g>
<!-- 682&#45;&gt;682 -->
<g id="edge41" class="edge">
<title>682&#45;&gt;682</title>
<path fill="none" stroke="green" stroke-width="0.26" stroke-dasharray="1,5" d="M224.37,-270.89C235.7,-275.03 246.86,-270.47 246.86,-257.2 246.86,-248.07 241.59,-243.07 234.61,-242.18"/>
<polygon fill="green" stroke="green" stroke-width="0.26" points="234.22,-238.7 224.76,-243.46 235.13,-245.64 234.22,-238.7"/>
</g>
<!-- 1316&#45;&gt;4 -->
<g id="edge32" class="edge">
<title>1316&#45;&gt;4</title>
<path fill="none" stroke="green" stroke-width="0.29" stroke-dasharray="1,5" d="M341.42,-73.35C356.93,-60.99 379.04,-43.36 394.78,-30.82"/>
<polygon fill="green" stroke="green" stroke-width="0.29" points="396.81,-33.68 402.44,-24.71 392.44,-28.2 396.81,-33.68"/>
</g>
<!-- 1707&#45;&gt;1333 -->
<g id="edge36" class="edge">
<title>1707&#45;&gt;1333</title>
<path fill="none" stroke="green" stroke-width="0.17" stroke-dasharray="1,5" d="M492.13,-153.9C483.02,-142.74 471.22,-128.28 461.15,-115.94"/>
<polygon fill="green" stroke="green" stroke-width="0.17" points="464.02,-113.93 454.99,-108.4 458.6,-118.36 464.02,-113.93"/>
</g>
<!-- 1985&#45;&gt;680 -->
<g id="edge40" class="edge">
<title>1985&#45;&gt;680</title>
<path fill="none" stroke="green" stroke-width="0.1" stroke-dasharray="1,5" d="M79,-242.35C83.78,-239.14 88.98,-235.87 94,-233.16 131.33,-212.96 177.04,-194.95 206.1,-184.29"/>
<polygon fill="green" stroke="green" stroke-width="0.1" points="206.93,-187.71 215.14,-181.01 204.54,-181.13 206.93,-187.71"/>
</g>
<!-- 1333&#45;&gt;4 -->
<g id="edge34" class="edge">
<title>1333&#45;&gt;4</title>
<path fill="none" stroke="green" stroke-width="0.17" stroke-dasharray="1,5" d="M432.06,-65.88C428.92,-57.13 425.32,-47.09 422.17,-38.29"/>
<polygon fill="green" stroke="green" stroke-width="0.17" points="425.48,-37.15 418.81,-28.91 418.89,-39.51 425.48,-37.15"/>
</g>
</g>
</svg>
