<?xml version="1.0" encoding="UTF-8" standalone="no"?>
<!DOCTYPE svg PUBLIC "-//W3C//DTD SVG 1.1//EN"
 "http://www.w3.org/Graphics/SVG/1.1/DTD/svg11.dtd">
<!-- Generated by graphviz version 12.1.1 (20240910.0053)
 -->
<!-- Pages: 1 -->
<svg width="1164pt" height="453pt"
 viewBox="0.00 0.00 1163.75 453.28" xmlns="http://www.w3.org/2000/svg" xmlns:xlink="http://www.w3.org/1999/xlink">
<g id="graph0" class="graph" transform="scale(1 1) rotate(0) translate(4 449.28)">
<polygon fill="white" stroke="none" points="-4,4 -4,-449.28 1159.75,-449.28 1159.75,4 -4,4"/>
<!-- &#45;1 -->
<g id="node1" class="node">
<title>&#45;1</title>
<polygon fill="lightgray" stroke="black" points="23.5,-101.46 0,-101.46 0,-82.96 23.5,-82.96 23.5,-101.46"/>
<text text-anchor="middle" x="11.75" y="-88.91" font-family="Times,serif" font-size="9.00">&#45;1</text>
</g>
<!-- 0 -->
<g id="node21" class="node">
<title>0</title>
<ellipse fill="lightblue" stroke="black" cx="304.75" cy="-14.5" rx="14.5" ry="14.5"/>
<text text-anchor="middle" x="304.75" y="-11.2" font-family="Times,serif" font-size="9.00">0</text>
</g>
<!-- &#45;1&#45;&gt;0 -->
<g id="edge52" class="edge">
<title>&#45;1&#45;&gt;0</title>
<path fill="none" stroke="green" stroke-width="0.41" stroke-dasharray="1,5" d="M18.04,-82.53C22.78,-76.64 29.82,-69.19 37.75,-64.99 118.55,-22.25 230.12,-15.86 279.5,-15.28"/>
<polygon fill="green" stroke="green" stroke-width="0.41" points="279.25,-18.78 289.24,-15.23 279.22,-11.78 279.25,-18.78"/>
</g>
<!-- &#45;2 -->
<g id="node2" class="node">
<title>&#45;2</title>
<polygon fill="lightgray" stroke="black" points="711.5,-282.36 688,-282.36 688,-263.86 711.5,-263.86 711.5,-282.36"/>
<text text-anchor="middle" x="699.75" y="-269.81" font-family="Times,serif" font-size="9.00">&#45;2</text>
</g>
<!-- 2 -->
<g id="node23" class="node">
<title>2</title>
<ellipse fill="lightblue" stroke="black" cx="723.75" cy="-182.66" rx="14.5" ry="14.5"/>
<text text-anchor="middle" x="723.75" y="-179.36" font-family="Times,serif" font-size="9.00">2</text>
</g>
<!-- &#45;2&#45;&gt;2 -->
<g id="edge11" class="edge">
<title>&#45;2&#45;&gt;2</title>
<path fill="none" stroke="red" stroke-width="0.55" d="M702.05,-263.63C705.53,-250.82 712.24,-226.07 717.29,-207.48"/>
<polygon fill="red" stroke="red" stroke-width="0.55" points="720.64,-208.49 719.88,-197.92 713.88,-206.65 720.64,-208.49"/>
</g>
<!-- 3423 -->
<g id="node41" class="node">
<title>3423</title>
<ellipse fill="white" stroke="black" cx="226.75" cy="-92.21" rx="24.04" ry="24.04"/>
<text text-anchor="middle" x="226.75" y="-88.91" font-family="Times,serif" font-size="9.00">3423</text>
</g>
<!-- &#45;2&#45;&gt;3423 -->
<g id="edge20" class="edge">
<title>&#45;2&#45;&gt;3423</title>
<path fill="none" stroke="red" stroke-width="0.37" stroke-dasharray="1,5" d="M695.42,-263.57C683.73,-241.47 649.18,-182.28 601.75,-155.44 586.88,-147.02 350.69,-111.51 260.97,-98.24"/>
<polygon fill="red" stroke="red" stroke-width="0.37" points="261.74,-94.82 251.33,-96.82 260.71,-101.74 261.74,-94.82"/>
</g>
<!-- &#45;3 -->
<g id="node3" class="node">
<title>&#45;3</title>
<polygon fill="lightgray" stroke="black" points="933.5,-445.28 910,-445.28 910,-426.78 933.5,-426.78 933.5,-445.28"/>
<text text-anchor="middle" x="921.75" y="-432.73" font-family="Times,serif" font-size="9.00">&#45;3</text>
</g>
<!-- 11361 -->
<g id="node42" class="node">
<title>11361</title>
<ellipse fill="white" stroke="black" cx="921.75" cy="-363.56" rx="27.22" ry="27.22"/>
<text text-anchor="middle" x="921.75" y="-360.26" font-family="Times,serif" font-size="9.00">11361</text>
</g>
<!-- &#45;3&#45;&gt;11361 -->
<g id="edge29" class="edge">
<title>&#45;3&#45;&gt;11361</title>
<path fill="none" stroke="red" stroke-width="0.18" stroke-dasharray="1,5" d="M921.75,-426.39C921.75,-419.96 921.75,-410.72 921.75,-401.33"/>
<polygon fill="red" stroke="red" stroke-width="0.18" points="925.25,-401.48 921.75,-391.48 918.25,-401.48 925.25,-401.48"/>
</g>
<!-- &#45;4 -->
<g id="node4" class="node">
<title>&#45;4</title>
<polygon fill="lightgray" stroke="black" points="819.5,-282.36 796,-282.36 796,-263.86 819.5,-263.86 819.5,-282.36"/>
<text text-anchor="middle" x="807.75" y="-269.81" font-family="Times,serif" font-size="9.00">&#45;4</text>
</g>
<!-- &#45;4&#45;&gt;2 -->
<g id="edge4" class="edge">
<title>&#45;4&#45;&gt;2</title>
<path fill="none" stroke="red" stroke-width="0.19" stroke-dasharray="1,5" d="M801.37,-263.64C797.33,-258.4 791.9,-251.61 786.75,-245.89 772.09,-229.62 754.24,-212.19 741.29,-199.93"/>
<polygon fill="red" stroke="red" stroke-width="0.19" points="743.83,-197.51 734.14,-193.22 739.03,-202.61 743.83,-197.51"/>
</g>
<!-- 8347 -->
<g id="node28" class="node">
<title>8347</title>
<ellipse fill="white" stroke="black" cx="792.75" cy="-182.66" rx="24.04" ry="24.04"/>
<text text-anchor="middle" x="792.75" y="-179.36" font-family="Times,serif" font-size="9.00">8347</text>
</g>
<!-- &#45;4&#45;&gt;8347 -->
<g id="edge18" class="edge">
<title>&#45;4&#45;&gt;8347</title>
<path fill="none" stroke="green" stroke-width="0.82" d="M806.31,-263.63C804.52,-253.09 801.37,-234.46 798.55,-217.83"/>
<polygon fill="green" stroke="green" stroke-width="0.82" points="802,-217.26 796.88,-207.99 795.1,-218.43 802,-217.26"/>
</g>
<!-- 4326 -->
<g id="node43" class="node">
<title>4326</title>
<ellipse fill="white" stroke="black" cx="899.75" cy="-92.21" rx="24.04" ry="24.04"/>
<text text-anchor="middle" x="899.75" y="-88.91" font-family="Times,serif" font-size="9.00">4326</text>
</g>
<!-- &#45;4&#45;&gt;4326 -->
<g id="edge9" class="edge">
<title>&#45;4&#45;&gt;4326</title>
<path fill="none" stroke="red" stroke-width="0.52" d="M811.6,-263.51C820.39,-244.03 842.76,-195.17 863.75,-155.44 869.51,-144.54 876.18,-132.79 882.21,-122.47"/>
<polygon fill="red" stroke="red" stroke-width="0.52" points="885.05,-124.53 887.11,-114.13 879.02,-120.98 885.05,-124.53"/>
</g>
<!-- &#45;5 -->
<g id="node5" class="node">
<title>&#45;5</title>
<polygon fill="lightgray" stroke="black" points="975.5,-445.28 952,-445.28 952,-426.78 975.5,-426.78 975.5,-445.28"/>
<text text-anchor="middle" x="963.75" y="-432.73" font-family="Times,serif" font-size="9.00">&#45;5</text>
</g>
<!-- &#45;6 -->
<g id="node6" class="node">
<title>&#45;6</title>
<polygon fill="lightgray" stroke="black" points="730.5,-372.81 707,-372.81 707,-354.31 730.5,-354.31 730.5,-372.81"/>
<text text-anchor="middle" x="718.75" y="-360.26" font-family="Times,serif" font-size="9.00">&#45;6</text>
</g>
<!-- 1995 -->
<g id="node36" class="node">
<title>1995</title>
<ellipse fill="white" stroke="black" cx="568.75" cy="-182.66" rx="24.04" ry="24.04"/>
<text text-anchor="middle" x="568.75" y="-179.36" font-family="Times,serif" font-size="9.00">1995</text>
</g>
<!-- &#45;6&#45;&gt;1995 -->
<g id="edge3" class="edge">
<title>&#45;6&#45;&gt;1995</title>
<path fill="none" stroke="green" stroke-width="0.15" stroke-dasharray="1,5" d="M706.61,-356.1C688.67,-346.09 654.82,-325.34 632.75,-300.33 610.08,-274.64 592.19,-239.56 581.16,-214.59"/>
<polygon fill="green" stroke="green" stroke-width="0.15" points="584.39,-213.24 577.23,-205.44 577.96,-216.01 584.39,-213.24"/>
</g>
<!-- 4843 -->
<g id="node45" class="node">
<title>4843</title>
<ellipse fill="white" stroke="black" cx="753.75" cy="-273.11" rx="24.04" ry="24.04"/>
<text text-anchor="middle" x="753.75" y="-269.81" font-family="Times,serif" font-size="9.00">4843</text>
</g>
<!-- &#45;6&#45;&gt;4843 -->
<g id="edge7" class="edge">
<title>&#45;6&#45;&gt;4843</title>
<path fill="none" stroke="green" stroke-width="0.22" stroke-dasharray="1,5" d="M722.11,-354.08C726.55,-342.84 734.64,-322.41 741.52,-305.01"/>
<polygon fill="green" stroke="green" stroke-width="0.22" points="744.65,-306.63 745.07,-296.04 738.14,-304.05 744.65,-306.63"/>
</g>
<!-- &#45;7 -->
<g id="node7" class="node">
<title>&#45;7</title>
<polygon fill="lightgray" stroke="black" points="876.5,-372.81 853,-372.81 853,-354.31 876.5,-354.31 876.5,-372.81"/>
<text text-anchor="middle" x="864.75" y="-360.26" font-family="Times,serif" font-size="9.00">&#45;7</text>
</g>
<!-- 12219 -->
<g id="node33" class="node">
<title>12219</title>
<ellipse fill="white" stroke="black" cx="864.75" cy="-273.11" rx="27.22" ry="27.22"/>
<text text-anchor="middle" x="864.75" y="-269.81" font-family="Times,serif" font-size="9.00">12219</text>
</g>
<!-- &#45;7&#45;&gt;12219 -->
<g id="edge47" class="edge">
<title>&#45;7&#45;&gt;12219</title>
<path fill="none" stroke="green" stroke-width="0.26" d="M864.75,-354.08C864.75,-344.07 864.75,-326.79 864.75,-310.84"/>
<polygon fill="green" stroke="green" stroke-width="0.26" points="868.25,-311.04 864.75,-301.04 861.25,-311.04 868.25,-311.04"/>
</g>
<!-- &#45;8 -->
<g id="node8" class="node">
<title>&#45;8</title>
<polygon fill="lightgray" stroke="black" points="1017.5,-445.28 994,-445.28 994,-426.78 1017.5,-426.78 1017.5,-445.28"/>
<text text-anchor="middle" x="1005.75" y="-432.73" font-family="Times,serif" font-size="9.00">&#45;8</text>
</g>
<!-- &#45;9 -->
<g id="node9" class="node">
<title>&#45;9</title>
<polygon fill="lightgray" stroke="black" points="968.5,-191.91 945,-191.91 945,-173.41 968.5,-173.41 968.5,-191.91"/>
<text text-anchor="middle" x="956.75" y="-179.36" font-family="Times,serif" font-size="9.00">&#45;9</text>
</g>
<!-- 10431 -->
<g id="node34" class="node">
<title>10431</title>
<ellipse fill="white" stroke="black" cx="984.75" cy="-92.21" rx="27.22" ry="27.22"/>
<text text-anchor="middle" x="984.75" y="-88.91" font-family="Times,serif" font-size="9.00">10431</text>
</g>
<!-- &#45;9&#45;&gt;10431 -->
<g id="edge44" class="edge">
<title>&#45;9&#45;&gt;10431</title>
<path fill="none" stroke="green" stroke-width="0.51" stroke-dasharray="1,5" d="M959.43,-173.18C962.7,-162.87 968.42,-144.81 973.59,-128.46"/>
<polygon fill="green" stroke="green" stroke-width="0.51" points="976.8,-129.91 976.49,-119.32 970.13,-127.8 976.8,-129.91"/>
</g>
<!-- &#45;9&#45;&gt;4326 -->
<g id="edge32" class="edge">
<title>&#45;9&#45;&gt;4326</title>
<path fill="none" stroke="red" stroke-width="0.12" d="M951.28,-173.18C943.67,-161.37 929.5,-139.38 917.95,-121.45"/>
<polygon fill="red" stroke="red" stroke-width="0.12" points="920.98,-119.7 912.62,-113.19 915.1,-123.49 920.98,-119.7"/>
</g>
<!-- &#45;10 -->
<g id="node10" class="node">
<title>&#45;10</title>
<polygon fill="lightgray" stroke="black" points="251.75,-372.81 223.75,-372.81 223.75,-354.31 251.75,-354.31 251.75,-372.81"/>
<text text-anchor="middle" x="237.75" y="-360.26" font-family="Times,serif" font-size="9.00">&#45;10</text>
</g>
<!-- 1 -->
<g id="node22" class="node">
<title>1</title>
<ellipse fill="lightblue" stroke="black" cx="314.75" cy="-182.66" rx="14.5" ry="14.5"/>
<text text-anchor="middle" x="314.75" y="-179.36" font-family="Times,serif" font-size="9.00">1</text>
</g>
<!-- &#45;10&#45;&gt;1 -->
<g id="edge5" class="edge">
<title>&#45;10&#45;&gt;1</title>
<path fill="none" stroke="green" stroke-width="0.54" d="M238.07,-353.89C239.12,-333.86 243.51,-283.24 261.75,-245.89 264.2,-240.86 283.71,-218.46 298.35,-201.97"/>
<polygon fill="green" stroke="green" stroke-width="0.54" points="300.86,-204.41 304.9,-194.62 295.63,-199.75 300.86,-204.41"/>
</g>
<!-- 11664 -->
<g id="node27" class="node">
<title>11664</title>
<ellipse fill="white" stroke="black" cx="474.75" cy="-273.11" rx="27.22" ry="27.22"/>
<text text-anchor="middle" x="474.75" y="-269.81" font-family="Times,serif" font-size="9.00">11664</text>
</g>
<!-- &#45;10&#45;&gt;11664 -->
<g id="edge50" class="edge">
<title>&#45;10&#45;&gt;11664</title>
<path fill="none" stroke="green" stroke-width="0.33" stroke-dasharray="1,5" d="M252.25,-357.3C267.48,-351.84 292.19,-343.15 313.75,-336.33 368.87,-318.9 386.82,-325.74 438.75,-300.33 441,-299.23 443.25,-297.99 445.48,-296.66"/>
<polygon fill="green" stroke="green" stroke-width="0.33" points="446.95,-299.88 453.42,-291.48 443.13,-294.02 446.95,-299.88"/>
</g>
<!-- 9449 -->
<g id="node44" class="node">
<title>9449</title>
<ellipse fill="white" stroke="black" cx="147.75" cy="-273.11" rx="24.04" ry="24.04"/>
<text text-anchor="middle" x="147.75" y="-269.81" font-family="Times,serif" font-size="9.00">9449</text>
</g>
<!-- &#45;10&#45;&gt;9449 -->
<g id="edge48" class="edge">
<title>&#45;10&#45;&gt;9449</title>
<path fill="none" stroke="green" stroke-width="0.12" stroke-dasharray="1,5" d="M230.34,-354.14C225.67,-348.93 219.47,-342.14 213.75,-336.33 200.48,-322.86 185.14,-308.34 172.59,-296.71"/>
<polygon fill="green" stroke="green" stroke-width="0.12" points="175.03,-294.21 165.3,-290 170.29,-299.35 175.03,-294.21"/>
</g>
<!-- &#45;11 -->
<g id="node11" class="node">
<title>&#45;11</title>
<polygon fill="lightgray" stroke="black" points="937.75,-282.36 909.75,-282.36 909.75,-263.86 937.75,-263.86 937.75,-282.36"/>
<text text-anchor="middle" x="923.75" y="-269.81" font-family="Times,serif" font-size="9.00">&#45;11</text>
</g>
<!-- 11221 -->
<g id="node39" class="node">
<title>11221</title>
<ellipse fill="white" stroke="black" cx="899.75" cy="-182.66" rx="27.22" ry="27.22"/>
<text text-anchor="middle" x="899.75" y="-179.36" font-family="Times,serif" font-size="9.00">11221</text>
</g>
<!-- &#45;11&#45;&gt;11221 -->
<g id="edge53" class="edge">
<title>&#45;11&#45;&gt;11221</title>
<path fill="none" stroke="green" stroke-width="0.23" d="M921.45,-263.63C918.67,-253.39 913.82,-235.51 909.41,-219.25"/>
<polygon fill="green" stroke="green" stroke-width="0.23" points="912.83,-218.49 906.83,-209.76 906.07,-220.33 912.83,-218.49"/>
</g>
<!-- &#45;12 -->
<g id="node12" class="node">
<title>&#45;12</title>
<polygon fill="lightgray" stroke="black" points="1014.75,-191.91 986.75,-191.91 986.75,-173.41 1014.75,-173.41 1014.75,-191.91"/>
<text text-anchor="middle" x="1000.75" y="-179.36" font-family="Times,serif" font-size="9.00">&#45;12</text>
</g>
<!-- &#45;12&#45;&gt;10431 -->
<g id="edge21" class="edge">
<title>&#45;12&#45;&gt;10431</title>
<path fill="none" stroke="green" stroke-width="0.97" d="M999.22,-173.18C997.43,-163.3 994.35,-146.31 991.5,-130.52"/>
<polygon fill="green" stroke="green" stroke-width="0.97" points="994.96,-130.02 989.74,-120.8 988.08,-131.26 994.96,-130.02"/>
</g>
<!-- &#45;13 -->
<g id="node13" class="node">
<title>&#45;13</title>
<polygon fill="lightgray" stroke="black" points="585.75,-445.28 557.75,-445.28 557.75,-426.78 585.75,-426.78 585.75,-445.28"/>
<text text-anchor="middle" x="571.75" y="-432.73" font-family="Times,serif" font-size="9.00">&#45;13</text>
</g>
<!-- 3 -->
<g id="node24" class="node">
<title>3</title>
<ellipse fill="lightblue" stroke="black" cx="571.75" cy="-273.11" rx="14.5" ry="14.5"/>
<text text-anchor="middle" x="571.75" y="-269.81" font-family="Times,serif" font-size="9.00">3</text>
</g>
<!-- &#45;13&#45;&gt;3 -->
<g id="edge12" class="edge">
<title>&#45;13&#45;&gt;3</title>
<path fill="none" stroke="green" stroke-width="0.58" d="M571.75,-426.38C571.75,-402.58 571.75,-335.48 571.75,-298.8"/>
<polygon fill="green" stroke="green" stroke-width="0.58" points="575.25,-298.94 571.75,-288.94 568.25,-298.94 575.25,-298.94"/>
</g>
<!-- 8747 -->
<g id="node29" class="node">
<title>8747</title>
<ellipse fill="white" stroke="black" cx="519.75" cy="-363.56" rx="24.04" ry="24.04"/>
<text text-anchor="middle" x="519.75" y="-360.26" font-family="Times,serif" font-size="9.00">8747</text>
</g>
<!-- &#45;13&#45;&gt;8747 -->
<g id="edge14" class="edge">
<title>&#45;13&#45;&gt;8747</title>
<path fill="none" stroke="red" stroke-width="0.32" stroke-dasharray="1,5" d="M565.37,-426.39C559.03,-417.79 548.95,-404.13 539.88,-391.84"/>
<polygon fill="red" stroke="red" stroke-width="0.32" points="542.86,-389.98 534.11,-384.01 537.23,-394.14 542.86,-389.98"/>
</g>
<!-- 14539 -->
<g id="node38" class="node">
<title>14539</title>
<ellipse fill="white" stroke="black" cx="626.75" cy="-363.56" rx="27.22" ry="27.22"/>
<text text-anchor="middle" x="626.75" y="-360.26" font-family="Times,serif" font-size="9.00">14539</text>
</g>
<!-- &#45;13&#45;&gt;14539 -->
<g id="edge54" class="edge">
<title>&#45;13&#45;&gt;14539</title>
<path fill="none" stroke="green" stroke-width="0.62" d="M578.49,-426.39C584.82,-418.28 594.64,-405.69 603.78,-393.98"/>
<polygon fill="green" stroke="green" stroke-width="0.62" points="606.29,-396.47 609.68,-386.43 600.77,-392.16 606.29,-396.47"/>
</g>
<!-- &#45;14 -->
<g id="node14" class="node">
<title>&#45;14</title>
<polygon fill="lightgray" stroke="black" points="533.75,-445.28 505.75,-445.28 505.75,-426.78 533.75,-426.78 533.75,-445.28"/>
<text text-anchor="middle" x="519.75" y="-432.73" font-family="Times,serif" font-size="9.00">&#45;14</text>
</g>
<!-- &#45;14&#45;&gt;8747 -->
<g id="edge39" class="edge">
<title>&#45;14&#45;&gt;8747</title>
<path fill="none" stroke="green" stroke-width="0.39" stroke-dasharray="1,5" d="M519.75,-426.39C519.75,-419.22 519.75,-408.54 519.75,-398.07"/>
<polygon fill="green" stroke="green" stroke-width="0.39" points="523.25,-398.39 519.75,-388.39 516.25,-398.39 523.25,-398.39"/>
</g>
<!-- &#45;15 -->
<g id="node15" class="node">
<title>&#45;15</title>
<polygon fill="lightgray" stroke="black" points="1063.75,-445.28 1035.75,-445.28 1035.75,-426.78 1063.75,-426.78 1063.75,-445.28"/>
<text text-anchor="middle" x="1049.75" y="-432.73" font-family="Times,serif" font-size="9.00">&#45;15</text>
</g>
<!-- &#45;16 -->
<g id="node16" class="node">
<title>&#45;16</title>
<polygon fill="lightgray" stroke="black" points="1109.75,-445.28 1081.75,-445.28 1081.75,-426.78 1109.75,-426.78 1109.75,-445.28"/>
<text text-anchor="middle" x="1095.75" y="-432.73" font-family="Times,serif" font-size="9.00">&#45;16</text>
</g>
<!-- &#45;17 -->
<g id="node17" class="node">
<title>&#45;17</title>
<polygon fill="lightgray" stroke="black" points="308.75,-445.28 280.75,-445.28 280.75,-426.78 308.75,-426.78 308.75,-445.28"/>
<text text-anchor="middle" x="294.75" y="-432.73" font-family="Times,serif" font-size="9.00">&#45;17</text>
</g>
<!-- &#45;17&#45;&gt;0 -->
<g id="edge17" class="edge">
<title>&#45;17&#45;&gt;0</title>
<path fill="none" stroke="red" stroke-width="0.67" d="M280.53,-433.81C252.08,-430.79 187.11,-420.86 142.75,-390.78 88.32,-353.87 51.75,-339.87 51.75,-274.11 51.75,-274.11 51.75,-274.11 51.75,-181.66 51.75,-73.32 215.84,-31.71 279.72,-19.62"/>
<polygon fill="red" stroke="red" stroke-width="0.67" points="280.2,-23.09 289.43,-17.87 278.96,-16.2 280.2,-23.09"/>
</g>
<!-- &#45;17&#45;&gt;3 -->
<g id="edge10" class="edge">
<title>&#45;17&#45;&gt;3</title>
<path fill="none" stroke="green" stroke-width="0.41" stroke-dasharray="1,5" d="M308.87,-432.72C334.77,-428.01 390.96,-415.59 431.75,-390.78 461.14,-372.91 459.91,-357.85 486.75,-336.33 509.83,-317.82 519.25,-318.32 542.75,-300.33 546.45,-297.5 550.25,-294.3 553.83,-291.14"/>
<polygon fill="green" stroke="green" stroke-width="0.41" points="556.16,-293.75 561.18,-284.42 551.44,-288.58 556.16,-293.75"/>
</g>
<!-- 12491 -->
<g id="node37" class="node">
<title>12491</title>
<ellipse fill="white" stroke="black" cx="349.75" cy="-363.56" rx="27.22" ry="27.22"/>
<text text-anchor="middle" x="349.75" y="-360.26" font-family="Times,serif" font-size="9.00">12491</text>
</g>
<!-- &#45;17&#45;&gt;12491 -->
<g id="edge37" class="edge">
<title>&#45;17&#45;&gt;12491</title>
<path fill="none" stroke="red" stroke-width="0.27" d="M301.49,-426.39C307.88,-418.21 317.84,-405.45 327.05,-393.64"/>
<polygon fill="red" stroke="red" stroke-width="0.27" points="329.61,-396.05 333,-386.02 324.09,-391.75 329.61,-396.05"/>
</g>
<!-- 10585 -->
<g id="node40" class="node">
<title>10585</title>
<ellipse fill="white" stroke="black" cx="402.75" cy="-273.11" rx="27.22" ry="27.22"/>
<text text-anchor="middle" x="402.75" y="-269.81" font-family="Times,serif" font-size="9.00">10585</text>
</g>
<!-- &#45;17&#45;&gt;10585 -->
<g id="edge22" class="edge">
<title>&#45;17&#45;&gt;10585</title>
<path fill="none" stroke="green" stroke-width="1.06" d="M294.3,-426.29C293.79,-408.01 294.85,-365.05 313.75,-336.33 329.41,-312.55 343.46,-316.72 366.75,-300.33 368.5,-299.1 370.3,-297.82 372.11,-296.53"/>
<polygon fill="green" stroke="green" stroke-width="1.06" points="373.76,-299.66 379.82,-290.98 369.66,-293.98 373.76,-299.66"/>
</g>
<!-- &#45;17&#45;&gt;9449 -->
<g id="edge25" class="edge">
<title>&#45;17&#45;&gt;9449</title>
<path fill="none" stroke="green" stroke-width="0.28" stroke-dasharray="1,5" d="M280.34,-434.53C253.67,-432.78 196.72,-424.99 167.75,-390.78 148.34,-367.86 144.58,-333.1 144.92,-307.47"/>
<polygon fill="green" stroke="green" stroke-width="0.28" points="148.41,-307.65 145.26,-297.54 141.42,-307.41 148.41,-307.65"/>
</g>
<!-- &#45;18 -->
<g id="node18" class="node">
<title>&#45;18</title>
<polygon fill="lightgray" stroke="black" points="422.75,-372.81 394.75,-372.81 394.75,-354.31 422.75,-354.31 422.75,-372.81"/>
<text text-anchor="middle" x="408.75" y="-360.26" font-family="Times,serif" font-size="9.00">&#45;18</text>
</g>
<!-- &#45;18&#45;&gt;1 -->
<g id="edge1" class="edge">
<title>&#45;18&#45;&gt;1</title>
<path fill="none" stroke="red" stroke-width="0.25" stroke-dasharray="1,5" d="M403.13,-354.29C398.91,-348.6 392.68,-341.22 385.75,-336.33 350.19,-311.28 319.2,-336.3 294.75,-300.33 275.06,-271.38 290.44,-229.28 302.93,-204.37"/>
<polygon fill="red" stroke="red" stroke-width="0.25" points="305.9,-206.23 307.49,-195.75 299.72,-202.96 305.9,-206.23"/>
</g>
<!-- &#45;18&#45;&gt;11664 -->
<g id="edge30" class="edge">
<title>&#45;18&#45;&gt;11664</title>
<path fill="none" stroke="green" stroke-width="0.35" d="M415.08,-354.08C423.67,-342.56 439.48,-321.38 452.67,-303.71"/>
<polygon fill="green" stroke="green" stroke-width="0.35" points="455.4,-305.9 458.57,-295.79 449.79,-301.71 455.4,-305.9"/>
</g>
<!-- 15667 -->
<g id="node30" class="node">
<title>15667</title>
<ellipse fill="white" stroke="black" cx="330.75" cy="-273.11" rx="27.22" ry="27.22"/>
<text text-anchor="middle" x="330.75" y="-269.81" font-family="Times,serif" font-size="9.00">15667</text>
</g>
<!-- &#45;18&#45;&gt;15667 -->
<g id="edge56" class="edge">
<title>&#45;18&#45;&gt;15667</title>
<path fill="none" stroke="green" stroke-width="0.3" d="M401.09,-353.81C396.62,-348.71 390.87,-342.15 385.75,-336.33 375.88,-325.12 364.99,-312.8 355.53,-302.09"/>
<polygon fill="green" stroke="green" stroke-width="0.3" points="358.15,-299.78 348.9,-294.61 352.91,-304.42 358.15,-299.78"/>
</g>
<!-- &#45;18&#45;&gt;1995 -->
<g id="edge6" class="edge">
<title>&#45;18&#45;&gt;1995</title>
<path fill="none" stroke="red" stroke-width="0.27" d="M419.13,-353.81C425.7,-348.46 434.48,-341.66 442.75,-336.33 471.5,-317.82 486.88,-324.82 510.75,-300.33 534.17,-276.31 549.92,-240.96 559.03,-215.48"/>
<polygon fill="red" stroke="red" stroke-width="0.27" points="562.25,-216.87 562.17,-206.28 555.62,-214.6 562.25,-216.87"/>
</g>
<!-- &#45;18&#45;&gt;10585 -->
<g id="edge49" class="edge">
<title>&#45;18&#45;&gt;10585</title>
<path fill="none" stroke="red" stroke-width="0.48" d="M408.17,-354.08C407.5,-344.17 406.35,-327.11 405.27,-311.29"/>
<polygon fill="red" stroke="red" stroke-width="0.48" points="408.77,-311.11 404.6,-301.37 401.78,-311.59 408.77,-311.11"/>
</g>
<!-- &#45;19 -->
<g id="node19" class="node">
<title>&#45;19</title>
<polygon fill="lightgray" stroke="black" points="1155.75,-445.28 1127.75,-445.28 1127.75,-426.78 1155.75,-426.78 1155.75,-445.28"/>
<text text-anchor="middle" x="1141.75" y="-432.73" font-family="Times,serif" font-size="9.00">&#45;19</text>
</g>
<!-- &#45;20 -->
<g id="node20" class="node">
<title>&#45;20</title>
<polygon fill="lightgray" stroke="black" points="669.75,-282.36 641.75,-282.36 641.75,-263.86 669.75,-263.86 669.75,-282.36"/>
<text text-anchor="middle" x="655.75" y="-269.81" font-family="Times,serif" font-size="9.00">&#45;20</text>
</g>
<!-- &#45;20&#45;&gt;0 -->
<g id="edge24" class="edge">
<title>&#45;20&#45;&gt;0</title>
<path fill="none" stroke="red" stroke-width="0.16" stroke-dasharray="1,5" d="M653.39,-263.36C647.49,-242.74 630.48,-190.19 601.75,-155.44 557.83,-102.31 537.76,-95.11 475.75,-64.99 426.33,-40.99 363.09,-26.45 329.06,-19.81"/>
<polygon fill="red" stroke="red" stroke-width="0.16" points="329.79,-16.39 319.32,-17.98 328.49,-23.27 329.79,-16.39"/>
</g>
<!-- &#45;20&#45;&gt;1995 -->
<g id="edge2" class="edge">
<title>&#45;20&#45;&gt;1995</title>
<path fill="none" stroke="green" stroke-width="0.29" stroke-dasharray="1,5" d="M647.41,-263.63C634.79,-250.8 610.39,-226 592.1,-207.4"/>
<polygon fill="green" stroke="green" stroke-width="0.29" points="595,-205.35 585.49,-200.68 590.01,-210.26 595,-205.35"/>
</g>
<!-- 3&#45;&gt;1995 -->
<g id="edge16" class="edge">
<title>3&#45;&gt;1995</title>
<path fill="none" stroke="green" stroke-width="0.16" stroke-dasharray="1,5" d="M571.28,-258.29C570.91,-247.26 570.37,-231.35 569.88,-217.05"/>
<polygon fill="green" stroke="green" stroke-width="0.16" points="573.39,-217.14 569.55,-207.26 566.39,-217.37 573.39,-217.14"/>
</g>
<!-- 4 -->
<g id="node25" class="node">
<title>4</title>
<ellipse fill="lightblue" stroke="black" cx="190.75" cy="-363.56" rx="14.5" ry="14.5"/>
<text text-anchor="middle" x="190.75" y="-360.26" font-family="Times,serif" font-size="9.00">4</text>
</g>
<!-- 4&#45;&gt;3423 -->
<g id="edge40" class="edge">
<title>4&#45;&gt;3423</title>
<path fill="none" stroke="red" stroke-width="0.38" d="M192.58,-348.83C198.05,-307.96 214.32,-186.21 222.27,-126.71"/>
<polygon fill="red" stroke="red" stroke-width="0.38" points="225.72,-127.3 223.58,-116.93 218.79,-126.38 225.72,-127.3"/>
</g>
<!-- 4&#45;&gt;9449 -->
<g id="edge35" class="edge">
<title>4&#45;&gt;9449</title>
<path fill="none" stroke="green" stroke-width="0.32" stroke-dasharray="1,5" d="M184.77,-350.26C179.04,-338.47 170.15,-320.19 162.52,-304.5"/>
<polygon fill="green" stroke="green" stroke-width="0.32" points="165.71,-303.04 158.19,-295.58 159.41,-306.1 165.71,-303.04"/>
</g>
<!-- 11279 -->
<g id="node26" class="node">
<title>11279</title>
<ellipse fill="white" stroke="black" cx="439.75" cy="-92.21" rx="27.22" ry="27.22"/>
<text text-anchor="middle" x="439.75" y="-88.91" font-family="Times,serif" font-size="9.00">11279</text>
</g>
<!-- 11279&#45;&gt;0 -->
<g id="edge28" class="edge">
<title>11279&#45;&gt;0</title>
<path fill="none" stroke="green" stroke-width="0.19" stroke-dasharray="1,5" d="M416.23,-78.03C390.76,-63.74 350.48,-41.14 325.95,-27.38"/>
<polygon fill="green" stroke="green" stroke-width="0.19" points="327.77,-24.4 317.34,-22.56 324.35,-30.5 327.77,-24.4"/>
</g>
<!-- 11664&#45;&gt;11279 -->
<g id="edge46" class="edge">
<title>11664&#45;&gt;11279</title>
<path fill="none" stroke="green" stroke-width="0.5" d="M480.94,-246.48C485.62,-222.44 489.84,-185.75 480.75,-155.44 477.19,-143.58 470.57,-131.89 463.66,-121.9"/>
<polygon fill="green" stroke="green" stroke-width="0.5" points="466.5,-119.86 457.77,-113.86 460.86,-124 466.5,-119.86"/>
</g>
<!-- 11664&#45;&gt;1995 -->
<g id="edge31" class="edge">
<title>11664&#45;&gt;1995</title>
<path fill="none" stroke="red" stroke-width="0.55" d="M494.23,-253.78C508.61,-240.25 528.29,-221.73 543.82,-207.12"/>
<polygon fill="red" stroke="red" stroke-width="0.55" points="546.02,-209.85 550.91,-200.45 541.22,-204.76 546.02,-209.85"/>
</g>
<!-- 8747&#45;&gt;3 -->
<g id="edge15" class="edge">
<title>8747&#45;&gt;3</title>
<path fill="none" stroke="red" stroke-width="0.14" stroke-dasharray="1,5" d="M531.55,-342.49C539.91,-328.27 551.09,-309.25 559.54,-294.88"/>
<polygon fill="red" stroke="red" stroke-width="0.14" points="562.48,-296.79 564.53,-286.39 556.44,-293.24 562.48,-296.79"/>
</g>
<!-- 15667&#45;&gt;1 -->
<g id="edge57" class="edge">
<title>15667&#45;&gt;1</title>
<path fill="none" stroke="red" stroke-width="0.28" d="M326.04,-246.05C323.81,-233.72 321.16,-219.11 319,-207.13"/>
<polygon fill="red" stroke="red" stroke-width="0.28" points="322.47,-206.65 317.24,-197.43 315.58,-207.9 322.47,-206.65"/>
</g>
<!-- 12980 -->
<g id="node31" class="node">
<title>12980</title>
<ellipse fill="white" stroke="black" cx="254.75" cy="-182.66" rx="27.22" ry="27.22"/>
<text text-anchor="middle" x="254.75" y="-179.36" font-family="Times,serif" font-size="9.00">12980</text>
</g>
<!-- 12980&#45;&gt;3423 -->
<g id="edge45" class="edge">
<title>12980&#45;&gt;3423</title>
<path fill="none" stroke="green" stroke-width="0.2" d="M246.8,-156.55C243.71,-146.8 240.14,-135.51 236.87,-125.19"/>
<polygon fill="green" stroke="green" stroke-width="0.2" points="240.31,-124.44 233.95,-115.96 233.63,-126.55 240.31,-124.44"/>
</g>
<!-- 12726 -->
<g id="node32" class="node">
<title>12726</title>
<ellipse fill="white" stroke="black" cx="411.75" cy="-182.66" rx="27.22" ry="27.22"/>
<text text-anchor="middle" x="411.75" y="-179.36" font-family="Times,serif" font-size="9.00">12726</text>
</g>
<!-- 12726&#45;&gt;11279 -->
<g id="edge43" class="edge">
<title>12726&#45;&gt;11279</title>
<path fill="none" stroke="green" stroke-width="0.33" stroke-dasharray="1,5" d="M419.7,-156.55C422.45,-147.85 425.6,-137.93 428.56,-128.56"/>
<polygon fill="green" stroke="green" stroke-width="0.33" points="431.85,-129.75 431.54,-119.16 425.18,-127.64 431.85,-129.75"/>
</g>
<!-- 12219&#45;&gt;8347 -->
<g id="edge36" class="edge">
<title>12219&#45;&gt;8347</title>
<path fill="none" stroke="green" stroke-width="0.2" d="M848.05,-251.6C837.94,-239.17 824.94,-223.2 814.08,-209.87"/>
<polygon fill="green" stroke="green" stroke-width="0.2" points="816.87,-207.74 807.84,-202.2 811.44,-212.16 816.87,-207.74"/>
</g>
<!-- 12219&#45;&gt;11221 -->
<g id="edge51" class="edge">
<title>12219&#45;&gt;11221</title>
<path fill="none" stroke="red" stroke-width="0.16" d="M874.5,-247.47C878.11,-238.35 882.27,-227.83 886.16,-218"/>
<polygon fill="red" stroke="red" stroke-width="0.16" points="889.42,-219.29 889.84,-208.7 882.91,-216.71 889.42,-219.29"/>
</g>
<!-- 12103 -->
<g id="node35" class="node">
<title>12103</title>
<ellipse fill="white" stroke="black" cx="106.75" cy="-182.66" rx="27.22" ry="27.22"/>
<text text-anchor="middle" x="106.75" y="-179.36" font-family="Times,serif" font-size="9.00">12103</text>
</g>
<!-- 12103&#45;&gt;3423 -->
<g id="edge34" class="edge">
<title>12103&#45;&gt;3423</title>
<path fill="none" stroke="green" stroke-width="0.15" d="M128.48,-165.65C148.4,-150.97 177.96,-129.17 199.46,-113.33"/>
<polygon fill="green" stroke="green" stroke-width="0.15" points="201.4,-116.25 207.37,-107.5 197.25,-110.61 201.4,-116.25"/>
</g>
<!-- 12491&#45;&gt;10585 -->
<g id="edge38" class="edge">
<title>12491&#45;&gt;10585</title>
<path fill="none" stroke="green" stroke-width="0.24" stroke-dasharray="1,5" d="M363.4,-339.78C369.59,-329.44 377.03,-317.04 383.75,-305.81"/>
<polygon fill="green" stroke="green" stroke-width="0.24" points="386.64,-307.8 388.78,-297.43 380.64,-304.2 386.64,-307.8"/>
</g>
<!-- 14539&#45;&gt;3 -->
<g id="edge55" class="edge">
<title>14539&#45;&gt;3</title>
<path fill="none" stroke="green" stroke-width="0.62" stroke-dasharray="1,5" d="M612.59,-339.78C603.98,-325.94 593.08,-308.4 584.7,-294.94"/>
<polygon fill="green" stroke="green" stroke-width="0.62" points="587.86,-293.4 579.61,-286.75 581.92,-297.09 587.86,-293.4"/>
</g>
<!-- 11221&#45;&gt;4326 -->
<g id="edge26" class="edge">
<title>11221&#45;&gt;4326</title>
<path fill="none" stroke="green" stroke-width="0.47" stroke-dasharray="1,5" d="M899.75,-155.13C899.75,-146.35 899.75,-136.46 899.75,-127.2"/>
<polygon fill="green" stroke="green" stroke-width="0.47" points="903.25,-127.44 899.75,-117.44 896.25,-127.44 903.25,-127.44"/>
</g>
<!-- 10585&#45;&gt;0 -->
<g id="edge23" class="edge">
<title>10585&#45;&gt;0</title>
<path fill="none" stroke="green" stroke-width="0.25" d="M391.77,-247.72C386.73,-236.3 380.77,-222.46 375.75,-209.89 351.14,-148.23 325.07,-74.32 312.47,-37.95"/>
<polygon fill="green" stroke="green" stroke-width="0.25" points="315.84,-36.99 309.26,-28.68 309.22,-39.28 315.84,-36.99"/>
</g>
<!-- 10585&#45;&gt;11279 -->
<g id="edge27" class="edge">
<title>10585&#45;&gt;11279</title>
<path fill="none" stroke="red" stroke-width="0.13" d="M421.54,-252.9C431.42,-241.43 442.54,-225.99 447.75,-209.89 456.25,-183.64 453.47,-152.38 448.99,-128.83"/>
<polygon fill="red" stroke="red" stroke-width="0.13" points="452.43,-128.18 446.96,-119.11 445.58,-129.61 452.43,-128.18"/>
</g>
<!-- 10585&#45;&gt;12726 -->
<g id="edge42" class="edge">
<title>10585&#45;&gt;12726</title>
<path fill="none" stroke="green" stroke-width="0.3" d="M405.45,-245.57C406.25,-237.7 407.14,-228.94 408,-220.53"/>
<polygon fill="green" stroke="green" stroke-width="0.3" points="411.48,-220.93 409.01,-210.63 404.51,-220.22 411.48,-220.93"/>
</g>
<!-- 3423&#45;&gt;0 -->
<g id="edge41" class="edge">
<title>3423&#45;&gt;0</title>
<path fill="none" stroke="green" stroke-width="0.28" stroke-dasharray="1,5" d="M243.67,-74.79C256.59,-62.25 274.31,-45.04 287.34,-32.39"/>
<polygon fill="green" stroke="green" stroke-width="0.28" points="289.72,-34.96 294.46,-25.49 284.84,-29.94 289.72,-34.96"/>
</g>
<!-- 9449&#45;&gt;12103 -->
<g id="edge33" class="edge">
<title>9449&#45;&gt;12103</title>
<path fill="none" stroke="red" stroke-width="0.35" d="M137.83,-250.7C133.17,-240.66 127.51,-228.45 122.31,-217.22"/>
<polygon fill="red" stroke="red" stroke-width="0.35" points="125.49,-215.76 118.11,-208.16 119.14,-218.71 125.49,-215.76"/>
</g>
<!-- 9449&#45;&gt;3423 -->
<g id="edge19" class="edge">
<title>9449&#45;&gt;3423</title>
<path fill="none" stroke="green" stroke-width="0.34" d="M153.19,-249.49C159.4,-225.47 170.69,-186.72 185.75,-155.44 191.54,-143.42 199.32,-130.98 206.54,-120.42"/>
<polygon fill="green" stroke="green" stroke-width="0.34" points="209.25,-122.66 212.13,-112.46 203.52,-118.64 209.25,-122.66"/>
</g>
<!-- 4843&#45;&gt;8347 -->
<g id="edge13" class="edge">
<title>4843&#45;&gt;8347</title>
<path fill="none" stroke="green" stroke-width="0.54" d="M763.19,-250.7C767.95,-239.91 773.8,-226.64 779.04,-214.75"/>
<polygon fill="green" stroke="green" stroke-width="0.54" points="782.1,-216.49 782.93,-205.93 775.69,-213.67 782.1,-216.49"/>
</g>
<!-- 4843&#45;&gt;1995 -->
<g id="edge8" class="edge">
<title>4843&#45;&gt;1995</title>
<path fill="none" stroke="green" stroke-width="0.59" d="M735.91,-256.44C731.17,-252.7 725.93,-248.92 720.75,-245.89 682.07,-223.22 633.57,-204.93 601.9,-194.18"/>
<polygon fill="green" stroke="green" stroke-width="0.59" points="603.28,-190.95 592.69,-191.11 601.07,-197.59 603.28,-190.95"/>
</g>
</g>
</svg>
