<?xml version="1.0" encoding="UTF-8" standalone="no"?>
<!DOCTYPE svg PUBLIC "-//W3C//DTD SVG 1.1//EN"
 "http://www.w3.org/Graphics/SVG/1.1/DTD/svg11.dtd">
<!-- Generated by graphviz version 12.1.1 (20240910.0053)
 -->
<!-- Pages: 1 -->
<svg width="1284pt" height="453pt"
 viewBox="0.00 0.00 1284.00 453.28" xmlns="http://www.w3.org/2000/svg" xmlns:xlink="http://www.w3.org/1999/xlink">
<g id="graph0" class="graph" transform="scale(1 1) rotate(0) translate(4 449.28)">
<polygon fill="white" stroke="none" points="-4,4 -4,-449.28 1280,-449.28 1280,4 -4,4"/>
<!-- &#45;1 -->
<g id="node1" class="node">
<title>&#45;1</title>
<polygon fill="lightgray" stroke="black" points="188.75,-101.46 165.25,-101.46 165.25,-82.96 188.75,-82.96 188.75,-101.46"/>
<text text-anchor="middle" x="177" y="-88.91" font-family="Times,serif" font-size="9.00">&#45;1</text>
</g>
<!-- 0 -->
<g id="node21" class="node">
<title>0</title>
<ellipse fill="lightblue" stroke="black" cx="360" cy="-14.5" rx="14.5" ry="14.5"/>
<text text-anchor="middle" x="360" y="-11.2" font-family="Times,serif" font-size="9.00">0</text>
</g>
<!-- &#45;1&#45;&gt;0 -->
<g id="edge51" class="edge">
<title>&#45;1&#45;&gt;0</title>
<path fill="none" stroke="green" stroke-width="0.3" d="M181.87,-82.77C185.6,-76.99 191.24,-69.58 198,-64.99 240.86,-35.92 301.41,-23.42 335.03,-18.45"/>
<polygon fill="green" stroke="green" stroke-width="0.3" points="335.46,-21.93 344.89,-17.11 334.51,-14.99 335.46,-21.93"/>
</g>
<!-- &#45;2 -->
<g id="node2" class="node">
<title>&#45;2</title>
<polygon fill="lightgray" stroke="black" points="726.75,-282.36 703.25,-282.36 703.25,-263.86 726.75,-263.86 726.75,-282.36"/>
<text text-anchor="middle" x="715" y="-269.81" font-family="Times,serif" font-size="9.00">&#45;2</text>
</g>
<!-- 2 -->
<g id="node23" class="node">
<title>2</title>
<ellipse fill="lightblue" stroke="black" cx="731" cy="-182.66" rx="14.5" ry="14.5"/>
<text text-anchor="middle" x="731" y="-179.36" font-family="Times,serif" font-size="9.00">2</text>
</g>
<!-- &#45;2&#45;&gt;2 -->
<g id="edge10" class="edge">
<title>&#45;2&#45;&gt;2</title>
<path fill="none" stroke="red" stroke-width="0.39" d="M716.53,-263.63C718.84,-250.89 723.28,-226.35 726.63,-207.79"/>
<polygon fill="red" stroke="red" stroke-width="0.39" points="730.07,-208.48 728.4,-198.01 723.18,-207.23 730.07,-208.48"/>
</g>
<!-- 3423 -->
<g id="node39" class="node">
<title>3423</title>
<ellipse fill="white" stroke="black" cx="558" cy="-92.21" rx="24.04" ry="24.04"/>
<text text-anchor="middle" x="558" y="-88.91" font-family="Times,serif" font-size="9.00">3423</text>
</g>
<!-- &#45;2&#45;&gt;3423 -->
<g id="edge19" class="edge">
<title>&#45;2&#45;&gt;3423</title>
<path fill="none" stroke="green" stroke-width="0.63" stroke-dasharray="1,5" d="M713.27,-263.49C708.72,-242.67 694.65,-188.94 665,-155.44 644.65,-132.45 613.7,-115.74 590.3,-105.46"/>
<polygon fill="green" stroke="green" stroke-width="0.63" points="591.93,-102.35 581.35,-101.69 589.21,-108.8 591.93,-102.35"/>
</g>
<!-- &#45;3 -->
<g id="node3" class="node">
<title>&#45;3</title>
<polygon fill="lightgray" stroke="black" points="1007.75,-445.28 984.25,-445.28 984.25,-426.78 1007.75,-426.78 1007.75,-445.28"/>
<text text-anchor="middle" x="996" y="-432.73" font-family="Times,serif" font-size="9.00">&#45;3</text>
</g>
<!-- 11361 -->
<g id="node41" class="node">
<title>11361</title>
<ellipse fill="white" stroke="black" cx="996" cy="-363.56" rx="27.22" ry="27.22"/>
<text text-anchor="middle" x="996" y="-360.26" font-family="Times,serif" font-size="9.00">11361</text>
</g>
<!-- &#45;3&#45;&gt;11361 -->
<g id="edge28" class="edge">
<title>&#45;3&#45;&gt;11361</title>
<path fill="none" stroke="green" stroke-width="0.26" stroke-dasharray="1,5" d="M996,-426.39C996,-419.96 996,-410.72 996,-401.33"/>
<polygon fill="green" stroke="green" stroke-width="0.26" points="999.5,-401.61 996,-391.61 992.5,-401.61 999.5,-401.61"/>
</g>
<!-- &#45;4 -->
<g id="node4" class="node">
<title>&#45;4</title>
<polygon fill="lightgray" stroke="black" points="792.75,-282.36 769.25,-282.36 769.25,-263.86 792.75,-263.86 792.75,-282.36"/>
<text text-anchor="middle" x="781" y="-269.81" font-family="Times,serif" font-size="9.00">&#45;4</text>
</g>
<!-- &#45;4&#45;&gt;2 -->
<g id="edge4" class="edge">
<title>&#45;4&#45;&gt;2</title>
<path fill="none" stroke="green" stroke-width="0.32" d="M776.21,-263.63C768.63,-250.23 753.66,-223.74 743.02,-204.93"/>
<polygon fill="green" stroke="green" stroke-width="0.32" points="746.12,-203.3 738.16,-196.32 740.03,-206.75 746.12,-203.3"/>
</g>
<!-- 8347 -->
<g id="node28" class="node">
<title>8347</title>
<ellipse fill="white" stroke="black" cx="788" cy="-182.66" rx="24.04" ry="24.04"/>
<text text-anchor="middle" x="788" y="-179.36" font-family="Times,serif" font-size="9.00">8347</text>
</g>
<!-- &#45;4&#45;&gt;8347 -->
<g id="edge17" class="edge">
<title>&#45;4&#45;&gt;8347</title>
<path fill="none" stroke="green" stroke-width="0.99" stroke-dasharray="1,5" d="M781.67,-263.63C782.51,-253.09 783.98,-234.46 785.3,-217.83"/>
<polygon fill="green" stroke="green" stroke-width="0.99" points="788.75,-218.5 786.05,-208.26 781.78,-217.95 788.75,-218.5"/>
</g>
<!-- &#45;5 -->
<g id="node5" class="node">
<title>&#45;5</title>
<polygon fill="lightgray" stroke="black" points="1049.75,-445.28 1026.25,-445.28 1026.25,-426.78 1049.75,-426.78 1049.75,-445.28"/>
<text text-anchor="middle" x="1038" y="-432.73" font-family="Times,serif" font-size="9.00">&#45;5</text>
</g>
<!-- &#45;6 -->
<g id="node6" class="node">
<title>&#45;6</title>
<polygon fill="lightgray" stroke="black" points="437.75,-372.81 414.25,-372.81 414.25,-354.31 437.75,-354.31 437.75,-372.81"/>
<text text-anchor="middle" x="426" y="-360.26" font-family="Times,serif" font-size="9.00">&#45;6</text>
</g>
<!-- 1995 -->
<g id="node35" class="node">
<title>1995</title>
<ellipse fill="white" stroke="black" cx="379" cy="-182.66" rx="24.04" ry="24.04"/>
<text text-anchor="middle" x="379" y="-179.36" font-family="Times,serif" font-size="9.00">1995</text>
</g>
<!-- &#45;6&#45;&gt;1995 -->
<g id="edge3" class="edge">
<title>&#45;6&#45;&gt;1995</title>
<path fill="none" stroke="red" stroke-width="0.25" stroke-dasharray="1,5" d="M419.32,-353.86C410.87,-342.33 396.61,-321.02 390,-300.33 381.35,-273.28 378.87,-241.03 378.39,-217.3"/>
<polygon fill="red" stroke="red" stroke-width="0.25" points="381.89,-217.39 378.3,-207.42 374.89,-217.45 381.89,-217.39"/>
</g>
<!-- 14304 -->
<g id="node40" class="node">
<title>14304</title>
<ellipse fill="white" stroke="black" cx="426" cy="-273.11" rx="27.22" ry="27.22"/>
<text text-anchor="middle" x="426" y="-269.81" font-family="Times,serif" font-size="9.00">14304</text>
</g>
<!-- &#45;6&#45;&gt;14304 -->
<g id="edge53" class="edge">
<title>&#45;6&#45;&gt;14304</title>
<path fill="none" stroke="green" stroke-width="0.3" d="M426,-354.08C426,-344.07 426,-326.79 426,-310.84"/>
<polygon fill="green" stroke="green" stroke-width="0.3" points="429.5,-311.09 426,-301.09 422.5,-311.09 429.5,-311.09"/>
</g>
<!-- 4843 -->
<g id="node44" class="node">
<title>4843</title>
<ellipse fill="white" stroke="black" cx="541" cy="-273.11" rx="24.04" ry="24.04"/>
<text text-anchor="middle" x="541" y="-269.81" font-family="Times,serif" font-size="9.00">4843</text>
</g>
<!-- &#45;6&#45;&gt;4843 -->
<g id="edge7" class="edge">
<title>&#45;6&#45;&gt;4843</title>
<path fill="none" stroke="green" stroke-width="0.22" d="M437.47,-353.98C453.38,-342.05 483.02,-319.73 508,-300.33 510.22,-298.61 512.52,-296.81 514.82,-295"/>
<polygon fill="green" stroke="green" stroke-width="0.22" points="516.62,-298.04 522.3,-289.09 512.28,-292.55 516.62,-298.04"/>
</g>
<!-- &#45;7 -->
<g id="node7" class="node">
<title>&#45;7</title>
<polygon fill="lightgray" stroke="black" points="950.75,-372.81 927.25,-372.81 927.25,-354.31 950.75,-354.31 950.75,-372.81"/>
<text text-anchor="middle" x="939" y="-360.26" font-family="Times,serif" font-size="9.00">&#45;7</text>
</g>
<!-- 12219 -->
<g id="node32" class="node">
<title>12219</title>
<ellipse fill="white" stroke="black" cx="939" cy="-273.11" rx="27.22" ry="27.22"/>
<text text-anchor="middle" x="939" y="-269.81" font-family="Times,serif" font-size="9.00">12219</text>
</g>
<!-- &#45;7&#45;&gt;12219 -->
<g id="edge46" class="edge">
<title>&#45;7&#45;&gt;12219</title>
<path fill="none" stroke="green" stroke-width="0.32" d="M939,-354.08C939,-344.07 939,-326.79 939,-310.84"/>
<polygon fill="green" stroke="green" stroke-width="0.32" points="942.5,-311.12 939,-301.12 935.5,-311.12 942.5,-311.12"/>
</g>
<!-- &#45;8 -->
<g id="node8" class="node">
<title>&#45;8</title>
<polygon fill="lightgray" stroke="black" points="1091.75,-445.28 1068.25,-445.28 1068.25,-426.78 1091.75,-426.78 1091.75,-445.28"/>
<text text-anchor="middle" x="1080" y="-432.73" font-family="Times,serif" font-size="9.00">&#45;8</text>
</g>
<!-- &#45;9 -->
<g id="node9" class="node">
<title>&#45;9</title>
<polygon fill="lightgray" stroke="black" points="937.75,-191.91 914.25,-191.91 914.25,-173.41 937.75,-173.41 937.75,-191.91"/>
<text text-anchor="middle" x="926" y="-179.36" font-family="Times,serif" font-size="9.00">&#45;9</text>
</g>
<!-- 10431 -->
<g id="node33" class="node">
<title>10431</title>
<ellipse fill="white" stroke="black" cx="904" cy="-92.21" rx="27.22" ry="27.22"/>
<text text-anchor="middle" x="904" y="-88.91" font-family="Times,serif" font-size="9.00">10431</text>
</g>
<!-- &#45;9&#45;&gt;10431 -->
<g id="edge43" class="edge">
<title>&#45;9&#45;&gt;10431</title>
<path fill="none" stroke="green" stroke-width="0.2" d="M923.89,-173.18C921.34,-162.94 916.9,-145.06 912.85,-128.8"/>
<polygon fill="green" stroke="green" stroke-width="0.2" points="916.29,-128.13 910.48,-119.27 909.5,-129.82 916.29,-128.13"/>
</g>
<!-- 4326 -->
<g id="node42" class="node">
<title>4326</title>
<ellipse fill="white" stroke="black" cx="978" cy="-92.21" rx="24.04" ry="24.04"/>
<text text-anchor="middle" x="978" y="-88.91" font-family="Times,serif" font-size="9.00">4326</text>
</g>
<!-- &#45;9&#45;&gt;4326 -->
<g id="edge31" class="edge">
<title>&#45;9&#45;&gt;4326</title>
<path fill="none" stroke="green" stroke-width="0.65" stroke-dasharray="1,5" d="M930.99,-173.18C937.76,-161.65 950.23,-140.45 960.63,-122.77"/>
<polygon fill="green" stroke="green" stroke-width="0.65" points="963.59,-124.63 965.64,-114.24 957.56,-121.08 963.59,-124.63"/>
</g>
<!-- &#45;10 -->
<g id="node10" class="node">
<title>&#45;10</title>
<polygon fill="lightgray" stroke="black" points="327,-372.81 299,-372.81 299,-354.31 327,-354.31 327,-372.81"/>
<text text-anchor="middle" x="313" y="-360.26" font-family="Times,serif" font-size="9.00">&#45;10</text>
</g>
<!-- 1 -->
<g id="node22" class="node">
<title>1</title>
<ellipse fill="lightblue" stroke="black" cx="218" cy="-273.11" rx="14.5" ry="14.5"/>
<text text-anchor="middle" x="218" y="-269.81" font-family="Times,serif" font-size="9.00">1</text>
</g>
<!-- &#45;10&#45;&gt;1 -->
<g id="edge5" class="edge">
<title>&#45;10&#45;&gt;1</title>
<path fill="none" stroke="green" stroke-width="0.29" d="M306.17,-353.88C301.8,-348.57 295.86,-341.77 290,-336.33 270.44,-318.21 261.75,-318.25 242,-300.33 239.27,-297.85 236.5,-295.1 233.86,-292.34"/>
<polygon fill="green" stroke="green" stroke-width="0.29" points="236.55,-290.09 227.22,-285.07 231.38,-294.81 236.55,-290.09"/>
</g>
<!-- 11664 -->
<g id="node27" class="node">
<title>11664</title>
<ellipse fill="white" stroke="black" cx="278" cy="-273.11" rx="27.22" ry="27.22"/>
<text text-anchor="middle" x="278" y="-269.81" font-family="Times,serif" font-size="9.00">11664</text>
</g>
<!-- &#45;10&#45;&gt;11664 -->
<g id="edge49" class="edge">
<title>&#45;10&#45;&gt;11664</title>
<path fill="none" stroke="green" stroke-width="0.31" d="M309.64,-354.08C305.47,-343.52 298.08,-324.86 291.49,-308.21"/>
<polygon fill="green" stroke="green" stroke-width="0.31" points="294.84,-307.16 287.91,-299.15 288.33,-309.74 294.84,-307.16"/>
</g>
<!-- 9449 -->
<g id="node43" class="node">
<title>9449</title>
<ellipse fill="white" stroke="black" cx="607" cy="-273.11" rx="24.04" ry="24.04"/>
<text text-anchor="middle" x="607" y="-269.81" font-family="Times,serif" font-size="9.00">9449</text>
</g>
<!-- &#45;10&#45;&gt;9449 -->
<g id="edge47" class="edge">
<title>&#45;10&#45;&gt;9449</title>
<path fill="none" stroke="green" stroke-width="0.19" stroke-dasharray="1,5" d="M327.26,-358.17C345.28,-352.7 377.28,-343.23 405,-336.33 479.53,-317.8 504.54,-333.09 574,-300.33 576.61,-299.1 579.19,-297.63 581.7,-296.02"/>
<polygon fill="green" stroke="green" stroke-width="0.19" points="583.54,-299.01 589.62,-290.34 579.45,-293.33 583.54,-299.01"/>
</g>
<!-- &#45;11 -->
<g id="node11" class="node">
<title>&#45;11</title>
<polygon fill="lightgray" stroke="black" points="1138,-445.28 1110,-445.28 1110,-426.78 1138,-426.78 1138,-445.28"/>
<text text-anchor="middle" x="1124" y="-432.73" font-family="Times,serif" font-size="9.00">&#45;11</text>
</g>
<!-- &#45;12 -->
<g id="node12" class="node">
<title>&#45;12</title>
<polygon fill="lightgray" stroke="black" points="896,-191.91 868,-191.91 868,-173.41 896,-173.41 896,-191.91"/>
<text text-anchor="middle" x="882" y="-179.36" font-family="Times,serif" font-size="9.00">&#45;12</text>
</g>
<!-- &#45;12&#45;&gt;10431 -->
<g id="edge20" class="edge">
<title>&#45;12&#45;&gt;10431</title>
<path fill="none" stroke="green" stroke-width="0.65" stroke-dasharray="1,5" d="M884.11,-173.18C886.63,-163.04 891.02,-145.4 895.03,-129.27"/>
<polygon fill="green" stroke="green" stroke-width="0.65" points="898.34,-130.47 897.36,-119.92 891.55,-128.78 898.34,-130.47"/>
</g>
<!-- &#45;13 -->
<g id="node13" class="node">
<title>&#45;13</title>
<polygon fill="lightgray" stroke="black" points="28,-445.28 0,-445.28 0,-426.78 28,-426.78 28,-445.28"/>
<text text-anchor="middle" x="14" y="-432.73" font-family="Times,serif" font-size="9.00">&#45;13</text>
</g>
<!-- 3 -->
<g id="node24" class="node">
<title>3</title>
<ellipse fill="lightblue" stroke="black" cx="86" cy="-273.11" rx="14.5" ry="14.5"/>
<text text-anchor="middle" x="86" y="-269.81" font-family="Times,serif" font-size="9.00">3</text>
</g>
<!-- &#45;13&#45;&gt;3 -->
<g id="edge11" class="edge">
<title>&#45;13&#45;&gt;3</title>
<path fill="none" stroke="green" stroke-width="0.13" d="M13.8,-426.36C13.73,-408.57 15.3,-367.02 30,-336.33 38.84,-317.88 54.89,-300.91 67.55,-289.36"/>
<polygon fill="green" stroke="green" stroke-width="0.13" points="69.54,-292.27 74.75,-283.05 64.93,-287.01 69.54,-292.27"/>
</g>
<!-- 8747 -->
<g id="node29" class="node">
<title>8747</title>
<ellipse fill="white" stroke="black" cx="63" cy="-363.56" rx="24.04" ry="24.04"/>
<text text-anchor="middle" x="63" y="-360.26" font-family="Times,serif" font-size="9.00">8747</text>
</g>
<!-- &#45;13&#45;&gt;8747 -->
<g id="edge13" class="edge">
<title>&#45;13&#45;&gt;8747</title>
<path fill="none" stroke="red" stroke-width="1.05" stroke-dasharray="1,5" d="M20.01,-426.39C25.78,-418.09 34.81,-405.1 43.11,-393.16"/>
<polygon fill="red" stroke="red" stroke-width="1.05" points="45.8,-395.43 48.63,-385.22 40.05,-391.44 45.8,-395.43"/>
</g>
<!-- &#45;14 -->
<g id="node14" class="node">
<title>&#45;14</title>
<polygon fill="lightgray" stroke="black" points="77,-445.28 49,-445.28 49,-426.78 77,-426.78 77,-445.28"/>
<text text-anchor="middle" x="63" y="-432.73" font-family="Times,serif" font-size="9.00">&#45;14</text>
</g>
<!-- &#45;14&#45;&gt;8747 -->
<g id="edge38" class="edge">
<title>&#45;14&#45;&gt;8747</title>
<path fill="none" stroke="red" stroke-width="0.52" stroke-dasharray="1,5" d="M63,-426.39C63,-419.3 63,-408.77 63,-398.4"/>
<polygon fill="red" stroke="red" stroke-width="0.52" points="66.5,-398.59 63,-388.59 59.5,-398.59 66.5,-398.59"/>
</g>
<!-- &#45;15 -->
<g id="node15" class="node">
<title>&#45;15</title>
<polygon fill="lightgray" stroke="black" points="1184,-445.28 1156,-445.28 1156,-426.78 1184,-426.78 1184,-445.28"/>
<text text-anchor="middle" x="1170" y="-432.73" font-family="Times,serif" font-size="9.00">&#45;15</text>
</g>
<!-- &#45;16 -->
<g id="node16" class="node">
<title>&#45;16</title>
<polygon fill="lightgray" stroke="black" points="1230,-445.28 1202,-445.28 1202,-426.78 1230,-426.78 1230,-445.28"/>
<text text-anchor="middle" x="1216" y="-432.73" font-family="Times,serif" font-size="9.00">&#45;16</text>
</g>
<!-- &#45;17 -->
<g id="node17" class="node">
<title>&#45;17</title>
<polygon fill="lightgray" stroke="black" points="239,-445.28 211,-445.28 211,-426.78 239,-426.78 239,-445.28"/>
<text text-anchor="middle" x="225" y="-432.73" font-family="Times,serif" font-size="9.00">&#45;17</text>
</g>
<!-- &#45;17&#45;&gt;0 -->
<g id="edge16" class="edge">
<title>&#45;17&#45;&gt;0</title>
<path fill="none" stroke="red" stroke-width="0.9" d="M239.34,-434.42C304.87,-431.51 576.08,-418.02 656,-390.78 747.65,-359.54 840,-370.94 840,-274.11 840,-274.11 840,-274.11 840,-181.66 840,-84.63 485.28,-31.63 385.71,-18.66"/>
<polygon fill="red" stroke="red" stroke-width="0.9" points="386.34,-15.21 375.98,-17.42 385.46,-22.16 386.34,-15.21"/>
</g>
<!-- &#45;17&#45;&gt;3 -->
<g id="edge9" class="edge">
<title>&#45;17&#45;&gt;3</title>
<path fill="none" stroke="green" stroke-width="0.15" d="M210.77,-431.56C191.04,-426.06 155.41,-413.57 134,-390.78 109.09,-364.26 96.29,-323.04 90.38,-297.35"/>
<polygon fill="green" stroke="green" stroke-width="0.15" points="93.88,-296.96 88.36,-287.92 87.03,-298.43 93.88,-296.96"/>
</g>
<!-- 12491 -->
<g id="node36" class="node">
<title>12491</title>
<ellipse fill="white" stroke="black" cx="170" cy="-363.56" rx="27.22" ry="27.22"/>
<text text-anchor="middle" x="170" y="-360.26" font-family="Times,serif" font-size="9.00">12491</text>
</g>
<!-- &#45;17&#45;&gt;12491 -->
<g id="edge36" class="edge">
<title>&#45;17&#45;&gt;12491</title>
<path fill="none" stroke="green" stroke-width="0.41" d="M218.26,-426.39C211.93,-418.28 202.11,-405.69 192.97,-393.98"/>
<polygon fill="green" stroke="green" stroke-width="0.41" points="195.78,-391.9 186.87,-386.17 190.26,-396.21 195.78,-391.9"/>
</g>
<!-- 10585 -->
<g id="node38" class="node">
<title>10585</title>
<ellipse fill="white" stroke="black" cx="158" cy="-273.11" rx="27.22" ry="27.22"/>
<text text-anchor="middle" x="158" y="-269.81" font-family="Times,serif" font-size="9.00">10585</text>
</g>
<!-- &#45;17&#45;&gt;10585 -->
<g id="edge21" class="edge">
<title>&#45;17&#45;&gt;10585</title>
<path fill="none" stroke="red" stroke-width="0.36" stroke-dasharray="1,5" d="M224.67,-426.44C223.73,-408.8 220.06,-367.51 206,-336.33 200.34,-323.77 191.67,-311.44 183.25,-301.1"/>
<polygon fill="red" stroke="red" stroke-width="0.36" points="186.11,-299.06 176.97,-293.7 180.77,-303.59 186.11,-299.06"/>
</g>
<!-- &#45;17&#45;&gt;9449 -->
<g id="edge24" class="edge">
<title>&#45;17&#45;&gt;9449</title>
<path fill="none" stroke="red" stroke-width="0.67" stroke-dasharray="1,5" d="M239.38,-434.25C275.65,-431.84 373.22,-422.65 447,-390.78 500.08,-367.85 552.47,-324.69 582.17,-297.78"/>
<polygon fill="red" stroke="red" stroke-width="0.67" points="584.18,-300.69 589.18,-291.34 579.45,-295.53 584.18,-300.69"/>
</g>
<!-- &#45;18 -->
<g id="node18" class="node">
<title>&#45;18</title>
<polygon fill="lightgray" stroke="black" points="281,-372.81 253,-372.81 253,-354.31 281,-354.31 281,-372.81"/>
<text text-anchor="middle" x="267" y="-360.26" font-family="Times,serif" font-size="9.00">&#45;18</text>
</g>
<!-- &#45;18&#45;&gt;1 -->
<g id="edge1" class="edge">
<title>&#45;18&#45;&gt;1</title>
<path fill="none" stroke="green" stroke-width="0.16" d="M262.3,-354.08C254.84,-340.61 240.07,-313.95 229.64,-295.12"/>
<polygon fill="green" stroke="green" stroke-width="0.16" points="232.81,-293.61 224.9,-286.56 226.68,-297.01 232.81,-293.61"/>
</g>
<!-- &#45;18&#45;&gt;11664 -->
<g id="edge29" class="edge">
<title>&#45;18&#45;&gt;11664</title>
<path fill="none" stroke="red" stroke-width="0.4" d="M268.05,-354.08C269.31,-344 271.48,-326.54 273.47,-310.5"/>
<polygon fill="red" stroke="red" stroke-width="0.4" points="276.91,-311.21 274.67,-300.85 269.97,-310.34 276.91,-311.21"/>
</g>
<!-- &#45;18&#45;&gt;1995 -->
<g id="edge6" class="edge">
<title>&#45;18&#45;&gt;1995</title>
<path fill="none" stroke="red" stroke-width="0.12" stroke-dasharray="1,5" d="M274.09,-353.97C283.65,-342.22 300.99,-320.29 314,-300.33 332.67,-271.69 351.39,-237.35 363.91,-213.36"/>
<polygon fill="red" stroke="red" stroke-width="0.12" points="366.98,-215.05 368.47,-204.57 360.77,-211.83 366.98,-215.05"/>
</g>
<!-- &#45;18&#45;&gt;10585 -->
<g id="edge48" class="edge">
<title>&#45;18&#45;&gt;10585</title>
<path fill="none" stroke="red" stroke-width="0.34" d="M258.37,-354.06C252.94,-348.82 245.7,-342.02 239,-336.33 222.57,-322.39 203.5,-307.67 187.98,-296.04"/>
<polygon fill="red" stroke="red" stroke-width="0.34" points="190.29,-293.4 180.17,-290.23 186.11,-299.01 190.29,-293.4"/>
</g>
<!-- &#45;19 -->
<g id="node19" class="node">
<title>&#45;19</title>
<polygon fill="lightgray" stroke="black" points="1276,-445.28 1248,-445.28 1248,-426.78 1276,-426.78 1276,-445.28"/>
<text text-anchor="middle" x="1262" y="-432.73" font-family="Times,serif" font-size="9.00">&#45;19</text>
</g>
<!-- &#45;20 -->
<g id="node20" class="node">
<title>&#45;20</title>
<polygon fill="lightgray" stroke="black" points="499,-282.36 471,-282.36 471,-263.86 499,-263.86 499,-282.36"/>
<text text-anchor="middle" x="485" y="-269.81" font-family="Times,serif" font-size="9.00">&#45;20</text>
</g>
<!-- &#45;20&#45;&gt;0 -->
<g id="edge23" class="edge">
<title>&#45;20&#45;&gt;0</title>
<path fill="none" stroke="red" stroke-width="0.25" stroke-dasharray="1,5" d="M479.79,-263.37C472.75,-251.43 459.94,-229.3 450,-209.89 418.56,-148.45 385.42,-73.95 369.55,-37.6"/>
<polygon fill="red" stroke="red" stroke-width="0.25" points="372.9,-36.52 365.7,-28.74 366.48,-39.31 372.9,-36.52"/>
</g>
<!-- &#45;20&#45;&gt;1995 -->
<g id="edge2" class="edge">
<title>&#45;20&#45;&gt;1995</title>
<path fill="none" stroke="red" stroke-width="0.2" d="M478.17,-263.43C473.8,-258.12 467.86,-251.32 462,-245.89 452.4,-237 426.98,-218.17 406.77,-203.53"/>
<polygon fill="red" stroke="red" stroke-width="0.2" points="408.9,-200.75 398.74,-197.74 404.8,-206.42 408.9,-200.75"/>
</g>
<!-- 1&#45;&gt;3423 -->
<g id="edge52" class="edge">
<title>1&#45;&gt;3423</title>
<path fill="none" stroke="green" stroke-width="0.15" d="M226.69,-261.21C230.99,-256.2 236.44,-250.4 242,-245.89 266.45,-226.06 279.29,-230.59 303,-209.89 326.23,-189.61 320.45,-172.69 346,-155.44 401.33,-118.08 479.42,-102.76 523.74,-96.78"/>
<polygon fill="green" stroke="green" stroke-width="0.15" points="524.02,-100.27 533.5,-95.54 523.14,-93.32 524.02,-100.27"/>
</g>
<!-- 3&#45;&gt;1995 -->
<g id="edge15" class="edge">
<title>3&#45;&gt;1995</title>
<path fill="none" stroke="green" stroke-width="0.44" stroke-dasharray="1,5" d="M96.64,-262.63C103.46,-257.01 112.74,-250.17 122,-245.89 197.1,-211.12 293.87,-194.46 344.55,-187.65"/>
<polygon fill="green" stroke="green" stroke-width="0.44" points="344.81,-191.14 354.28,-186.39 343.91,-184.2 344.81,-191.14"/>
</g>
<!-- 4 -->
<g id="node25" class="node">
<title>4</title>
<ellipse fill="lightblue" stroke="black" cx="633" cy="-363.56" rx="14.5" ry="14.5"/>
<text text-anchor="middle" x="633" y="-360.26" font-family="Times,serif" font-size="9.00">4</text>
</g>
<!-- 4&#45;&gt;3423 -->
<g id="edge39" class="edge">
<title>4&#45;&gt;3423</title>
<path fill="none" stroke="red" stroke-width="0.14" d="M635,-348.75C636.72,-336.17 639.06,-317.05 640,-300.33 643.67,-234.93 644.81,-212.71 613,-155.44 605.04,-141.1 593.29,-127.22 582.7,-116.22"/>
<polygon fill="red" stroke="red" stroke-width="0.14" points="585.29,-113.86 575.75,-109.24 580.33,-118.8 585.29,-113.86"/>
</g>
<!-- 4&#45;&gt;9449 -->
<g id="edge34" class="edge">
<title>4&#45;&gt;9449</title>
<path fill="none" stroke="green" stroke-width="0.15" d="M629.05,-349.12C625.73,-337.82 620.84,-321.17 616.5,-306.44"/>
<polygon fill="green" stroke="green" stroke-width="0.15" points="619.86,-305.45 613.68,-296.84 613.15,-307.43 619.86,-305.45"/>
</g>
<!-- 11279 -->
<g id="node26" class="node">
<title>11279</title>
<ellipse fill="white" stroke="black" cx="234" cy="-92.21" rx="27.22" ry="27.22"/>
<text text-anchor="middle" x="234" y="-88.91" font-family="Times,serif" font-size="9.00">11279</text>
</g>
<!-- 11279&#45;&gt;0 -->
<g id="edge27" class="edge">
<title>11279&#45;&gt;0</title>
<path fill="none" stroke="green" stroke-width="0.26" d="M256.45,-76.62C262.45,-72.78 268.94,-68.69 275,-64.99 296.52,-51.85 321.49,-37.4 338.78,-27.53"/>
<polygon fill="green" stroke="green" stroke-width="0.26" points="340.22,-30.73 347.18,-22.74 336.76,-24.65 340.22,-30.73"/>
</g>
<!-- 11664&#45;&gt;11279 -->
<g id="edge45" class="edge">
<title>11664&#45;&gt;11279</title>
<path fill="none" stroke="green" stroke-width="0.43" stroke-dasharray="1,5" d="M271.7,-246.48C264.14,-215.75 251.42,-164.04 242.87,-129.29"/>
<polygon fill="green" stroke="green" stroke-width="0.43" points="246.31,-128.6 240.52,-119.73 239.51,-130.27 246.31,-128.6"/>
</g>
<!-- 11664&#45;&gt;1995 -->
<g id="edge30" class="edge">
<title>11664&#45;&gt;1995</title>
<path fill="none" stroke="green" stroke-width="0.13" stroke-dasharray="1,5" d="M297.95,-254.64C313.91,-240.66 336.38,-220.99 353.61,-205.9"/>
<polygon fill="green" stroke="green" stroke-width="0.13" points="355.75,-208.68 360.96,-199.46 351.14,-203.41 355.75,-208.68"/>
</g>
<!-- 8747&#45;&gt;3 -->
<g id="edge14" class="edge">
<title>8747&#45;&gt;3</title>
<path fill="none" stroke="green" stroke-width="0.12" stroke-dasharray="1,5" d="M68.92,-339.78C72.33,-326.69 76.59,-310.3 80,-297.17"/>
<polygon fill="green" stroke="green" stroke-width="0.12" points="83.35,-298.2 82.48,-287.64 76.58,-296.44 83.35,-298.2"/>
</g>
<!-- 12980 -->
<g id="node30" class="node">
<title>12980</title>
<ellipse fill="white" stroke="black" cx="486" cy="-182.66" rx="27.22" ry="27.22"/>
<text text-anchor="middle" x="486" y="-179.36" font-family="Times,serif" font-size="9.00">12980</text>
</g>
<!-- 12980&#45;&gt;3423 -->
<g id="edge44" class="edge">
<title>12980&#45;&gt;3423</title>
<path fill="none" stroke="red" stroke-width="0.79" d="M502.7,-161.15C512.62,-148.96 525.32,-133.36 536.05,-120.18"/>
<polygon fill="red" stroke="red" stroke-width="0.79" points="538.75,-122.41 542.34,-112.45 533.32,-117.99 538.75,-122.41"/>
</g>
<!-- 12726 -->
<g id="node31" class="node">
<title>12726</title>
<ellipse fill="white" stroke="black" cx="158" cy="-182.66" rx="27.22" ry="27.22"/>
<text text-anchor="middle" x="158" y="-179.36" font-family="Times,serif" font-size="9.00">12726</text>
</g>
<!-- 12726&#45;&gt;11279 -->
<g id="edge42" class="edge">
<title>12726&#45;&gt;11279</title>
<path fill="none" stroke="red" stroke-width="0.6" stroke-dasharray="1,5" d="M175.25,-161.59C185.38,-149.8 198.35,-134.71 209.52,-121.7"/>
<polygon fill="red" stroke="red" stroke-width="0.6" points="212.1,-124.07 215.96,-114.21 206.79,-119.51 212.1,-124.07"/>
</g>
<!-- 12219&#45;&gt;8347 -->
<g id="edge35" class="edge">
<title>12219&#45;&gt;8347</title>
<path fill="none" stroke="red" stroke-width="0.97" d="M915.74,-258.48C889.54,-243.14 846.89,-218.15 818.15,-201.32"/>
<polygon fill="red" stroke="red" stroke-width="0.97" points="820.29,-198.52 809.89,-196.48 816.75,-204.56 820.29,-198.52"/>
</g>
<!-- 11221 -->
<g id="node37" class="node">
<title>11221</title>
<ellipse fill="white" stroke="black" cx="983" cy="-182.66" rx="27.22" ry="27.22"/>
<text text-anchor="middle" x="983" y="-179.36" font-family="Times,serif" font-size="9.00">11221</text>
</g>
<!-- 12219&#45;&gt;11221 -->
<g id="edge50" class="edge">
<title>12219&#45;&gt;11221</title>
<path fill="none" stroke="red" stroke-width="0.15" d="M950.79,-248.41C955.67,-238.59 961.42,-227.04 966.69,-216.44"/>
<polygon fill="red" stroke="red" stroke-width="0.15" points="969.76,-218.14 971.08,-207.63 963.49,-215.02 969.76,-218.14"/>
</g>
<!-- 12103 -->
<g id="node34" class="node">
<title>12103</title>
<ellipse fill="white" stroke="black" cx="558" cy="-182.66" rx="27.22" ry="27.22"/>
<text text-anchor="middle" x="558" y="-179.36" font-family="Times,serif" font-size="9.00">12103</text>
</g>
<!-- 12103&#45;&gt;3423 -->
<g id="edge33" class="edge">
<title>12103&#45;&gt;3423</title>
<path fill="none" stroke="green" stroke-width="0.21" d="M558,-155.13C558,-146.25 558,-136.24 558,-126.9"/>
<polygon fill="green" stroke="green" stroke-width="0.21" points="561.5,-127.04 558,-117.04 554.5,-127.04 561.5,-127.04"/>
</g>
<!-- 12491&#45;&gt;10585 -->
<g id="edge37" class="edge">
<title>12491&#45;&gt;10585</title>
<path fill="none" stroke="green" stroke-width="0.32" d="M166.46,-336.5C165.37,-328.46 164.15,-319.44 162.98,-310.82"/>
<polygon fill="green" stroke="green" stroke-width="0.32" points="166.47,-310.51 161.66,-301.07 159.53,-311.45 166.47,-310.51"/>
</g>
<!-- 11221&#45;&gt;4326 -->
<g id="edge25" class="edge">
<title>11221&#45;&gt;4326</title>
<path fill="none" stroke="red" stroke-width="0.34" stroke-dasharray="1,5" d="M981.5,-155.13C980.99,-146.18 980.42,-136.08 979.89,-126.66"/>
<polygon fill="red" stroke="red" stroke-width="0.34" points="983.4,-126.74 979.34,-116.95 976.41,-127.13 983.4,-126.74"/>
</g>
<!-- 10585&#45;&gt;0 -->
<g id="edge22" class="edge">
<title>10585&#45;&gt;0</title>
<path fill="none" stroke="green" stroke-width="0.1" stroke-dasharray="1,5" d="M177.35,-253.4C189.46,-241.36 205.16,-225.16 218,-209.89 269.07,-149.13 322.51,-71.54 346.7,-35.53"/>
<polygon fill="green" stroke="green" stroke-width="0.1" points="349.47,-37.69 352.12,-27.43 343.65,-33.8 349.47,-37.69"/>
</g>
<!-- 10585&#45;&gt;11279 -->
<g id="edge26" class="edge">
<title>10585&#45;&gt;11279</title>
<path fill="none" stroke="red" stroke-width="0.31" d="M172.43,-249.62C179.49,-238.04 187.79,-223.52 194,-209.89 206.06,-183.41 216.59,-152.16 223.81,-128.68"/>
<polygon fill="red" stroke="red" stroke-width="0.31" points="227.12,-129.83 226.66,-119.25 220.42,-127.81 227.12,-129.83"/>
</g>
<!-- 10585&#45;&gt;12726 -->
<g id="edge41" class="edge">
<title>10585&#45;&gt;12726</title>
<path fill="none" stroke="red" stroke-width="0.41" d="M158,-245.57C158,-237.7 158,-228.94 158,-220.53"/>
<polygon fill="red" stroke="red" stroke-width="0.41" points="161.5,-220.8 158,-210.8 154.5,-220.8 161.5,-220.8"/>
</g>
<!-- 3423&#45;&gt;0 -->
<g id="edge40" class="edge">
<title>3423&#45;&gt;0</title>
<path fill="none" stroke="green" stroke-width="0.51" stroke-dasharray="1,5" d="M535.67,-82.68C497.77,-68.18 421.23,-38.91 382.93,-24.26"/>
<polygon fill="green" stroke="green" stroke-width="0.51" points="384.52,-21.12 373.93,-20.82 382.02,-27.66 384.52,-21.12"/>
</g>
<!-- 14304&#45;&gt;1995 -->
<g id="edge54" class="edge">
<title>14304&#45;&gt;1995</title>
<path fill="none" stroke="red" stroke-width="0.58" d="M413.65,-248.87C407.97,-238.18 401.16,-225.37 395.09,-213.93"/>
<polygon fill="red" stroke="red" stroke-width="0.58" points="398.18,-212.3 390.4,-205.11 392,-215.58 398.18,-212.3"/>
</g>
<!-- 9449&#45;&gt;12103 -->
<g id="edge32" class="edge">
<title>9449&#45;&gt;12103</title>
<path fill="none" stroke="green" stroke-width="0.41" stroke-dasharray="1,5" d="M595.64,-251.6C589.79,-241.05 582.53,-227.94 575.95,-216.06"/>
<polygon fill="green" stroke="green" stroke-width="0.41" points="579.07,-214.47 571.16,-207.42 572.95,-217.86 579.07,-214.47"/>
</g>
<!-- 9449&#45;&gt;3423 -->
<g id="edge18" class="edge">
<title>9449&#45;&gt;3423</title>
<path fill="none" stroke="red" stroke-width="0.6" d="M607.19,-248.71C606.75,-224.72 604.25,-186.61 594,-155.44 590.12,-143.64 583.81,-131.61 577.56,-121.31"/>
<polygon fill="red" stroke="red" stroke-width="0.6" points="580.7,-119.73 572.38,-113.16 574.79,-123.48 580.7,-119.73"/>
</g>
<!-- 4843&#45;&gt;8347 -->
<g id="edge12" class="edge">
<title>4843&#45;&gt;8347</title>
<path fill="none" stroke="green" stroke-width="0.47" d="M558.12,-256.01C562.95,-252.19 568.42,-248.47 574,-245.89 648.01,-211.55 679.75,-243.69 754,-209.89 756.74,-208.64 759.45,-207.14 762.09,-205.49"/>
<polygon fill="green" stroke="green" stroke-width="0.47" points="763.9,-208.5 770.07,-199.89 759.88,-202.76 763.9,-208.5"/>
</g>
<!-- 4843&#45;&gt;1995 -->
<g id="edge8" class="edge">
<title>4843&#45;&gt;1995</title>
<path fill="none" stroke="red" stroke-width="0.18" d="M523.03,-256.65C518.29,-252.91 513.08,-249.08 508,-245.89 476.3,-225.99 437.28,-207.98 410.51,-196.52"/>
<polygon fill="red" stroke="red" stroke-width="0.18" points="412.06,-193.37 401.49,-192.7 409.34,-199.82 412.06,-193.37"/>
</g>
</g>
</svg>
