<?xml version="1.0" encoding="UTF-8" standalone="no"?>
<!DOCTYPE svg PUBLIC "-//W3C//DTD SVG 1.1//EN"
 "http://www.w3.org/Graphics/SVG/1.1/DTD/svg11.dtd">
<!-- Generated by graphviz version 12.1.1 (20240910.0053)
 -->
<!-- Pages: 1 -->
<svg width="805pt" height="406pt"
 viewBox="0.00 0.00 805.50 406.50" xmlns="http://www.w3.org/2000/svg" xmlns:xlink="http://www.w3.org/1999/xlink">
<g id="graph0" class="graph" transform="scale(1 1) rotate(0) translate(4 402.5)">
<polygon fill="white" stroke="none" points="-4,4 -4,-402.5 801.5,-402.5 801.5,4 -4,4"/>
<!-- &#45;1 -->
<g id="node1" class="node">
<title>&#45;1</title>
<polygon fill="lightgray" stroke="black" points="579.75,-393.25 556.25,-393.25 556.25,-374.75 579.75,-374.75 579.75,-393.25"/>
<text text-anchor="middle" x="568" y="-380.7" font-family="Times,serif" font-size="9.00">&#45;1</text>
</g>
<!-- &#45;2 -->
<g id="node2" class="node">
<title>&#45;2</title>
<polygon fill="lightgray" stroke="black" points="513.75,-321.89 490.25,-321.89 490.25,-303.39 513.75,-303.39 513.75,-321.89"/>
<text text-anchor="middle" x="502" y="-309.34" font-family="Times,serif" font-size="9.00">&#45;2</text>
</g>
<!-- 38 -->
<g id="node27" class="node">
<title>38</title>
<ellipse fill="white" stroke="black" cx="561" cy="-234.93" rx="17.68" ry="17.68"/>
<text text-anchor="middle" x="561" y="-231.63" font-family="Times,serif" font-size="9.00">38</text>
</g>
<!-- &#45;2&#45;&gt;38 -->
<g id="edge40" class="edge">
<title>&#45;2&#45;&gt;38</title>
<path fill="none" stroke="red" stroke-width="0.25" d="M508.77,-302.96C517.35,-291.95 532.44,-272.58 544.2,-257.48"/>
<polygon fill="red" stroke="red" stroke-width="0.25" points="546.72,-259.95 550.1,-249.91 541.19,-255.65 546.72,-259.95"/>
</g>
<!-- 39 -->
<g id="node28" class="node">
<title>39</title>
<ellipse fill="white" stroke="black" cx="371" cy="-82.67" rx="17.68" ry="17.68"/>
<text text-anchor="middle" x="371" y="-79.37" font-family="Times,serif" font-size="9.00">39</text>
</g>
<!-- &#45;2&#45;&gt;39 -->
<g id="edge32" class="edge">
<title>&#45;2&#45;&gt;39</title>
<path fill="none" stroke="red" stroke-width="0.63" d="M497.02,-302.99C478.57,-270.88 413.64,-157.88 384.89,-107.84"/>
<polygon fill="red" stroke="red" stroke-width="0.63" points="387.98,-106.19 379.96,-99.26 381.91,-109.68 387.98,-106.19"/>
</g>
<!-- 40 -->
<g id="node29" class="node">
<title>40</title>
<ellipse fill="white" stroke="black" cx="371" cy="-234.93" rx="17.68" ry="17.68"/>
<text text-anchor="middle" x="371" y="-231.63" font-family="Times,serif" font-size="9.00">40</text>
</g>
<!-- &#45;2&#45;&gt;40 -->
<g id="edge35" class="edge">
<title>&#45;2&#45;&gt;40</title>
<path fill="none" stroke="green" stroke-width="0.21" stroke-dasharray="1,5" d="M494.35,-303.25C490.58,-299.43 485.82,-295.05 481,-291.79 449.38,-270.39 436.62,-273.89 403,-255.79 400.06,-254.2 397.03,-252.47 394.05,-250.69"/>
<polygon fill="green" stroke="green" stroke-width="0.21" points="396.06,-247.82 385.71,-245.57 392.4,-253.79 396.06,-247.82"/>
</g>
<!-- &#45;3 -->
<g id="node3" class="node">
<title>&#45;3</title>
<polygon fill="lightgray" stroke="black" points="249.75,-321.89 226.25,-321.89 226.25,-303.39 249.75,-303.39 249.75,-321.89"/>
<text text-anchor="middle" x="238" y="-309.34" font-family="Times,serif" font-size="9.00">&#45;3</text>
</g>
<!-- 37 -->
<g id="node26" class="node">
<title>37</title>
<ellipse fill="white" stroke="black" cx="194" cy="-234.93" rx="17.68" ry="17.68"/>
<text text-anchor="middle" x="194" y="-231.63" font-family="Times,serif" font-size="9.00">37</text>
</g>
<!-- &#45;3&#45;&gt;37 -->
<g id="edge28" class="edge">
<title>&#45;3&#45;&gt;37</title>
<path fill="none" stroke="red" stroke-width="0.19" stroke-dasharray="1,5" d="M232.95,-302.96C226.82,-292.41 216.23,-274.19 207.64,-259.4"/>
<polygon fill="red" stroke="red" stroke-width="0.19" points="210.8,-257.87 202.75,-250.98 204.75,-261.39 210.8,-257.87"/>
</g>
<!-- &#45;3&#45;&gt;40 -->
<g id="edge21" class="edge">
<title>&#45;3&#45;&gt;40</title>
<path fill="none" stroke="red" stroke-width="0.39" stroke-dasharray="1,5" d="M246.09,-302.92C249.8,-299.21 254.39,-295.01 259,-291.79 286.46,-272.59 321.47,-256.25 344.97,-246.3"/>
<polygon fill="red" stroke="red" stroke-width="0.39" points="346.15,-249.6 354.04,-242.53 343.47,-243.13 346.15,-249.6"/>
</g>
<!-- &#45;4 -->
<g id="node4" class="node">
<title>&#45;4</title>
<polygon fill="lightgray" stroke="black" points="787.75,-321.89 764.25,-321.89 764.25,-303.39 787.75,-303.39 787.75,-321.89"/>
<text text-anchor="middle" x="776" y="-309.34" font-family="Times,serif" font-size="9.00">&#45;4</text>
</g>
<!-- 4 -->
<g id="node25" class="node">
<title>4</title>
<ellipse fill="lightblue" stroke="black" cx="519" cy="-14.5" rx="14.5" ry="14.5"/>
<text text-anchor="middle" x="519" y="-11.2" font-family="Times,serif" font-size="9.00">4</text>
</g>
<!-- &#45;4&#45;&gt;4 -->
<g id="edge44" class="edge">
<title>&#45;4&#45;&gt;4</title>
<path fill="none" stroke="red" stroke-width="0.81" d="M770.38,-303.25C752.91,-277.37 697.49,-196.86 644,-136.35 608.93,-96.66 563.21,-54.61 537.92,-32.07"/>
<polygon fill="red" stroke="red" stroke-width="0.81" points="540.3,-29.51 530.5,-25.5 535.66,-34.75 540.3,-29.51"/>
</g>
<!-- &#45;4&#45;&gt;38 -->
<g id="edge31" class="edge">
<title>&#45;4&#45;&gt;38</title>
<path fill="none" stroke="red" stroke-width="0.26" stroke-dasharray="1,5" d="M768.56,-302.91C764.84,-299.02 760.05,-294.67 755,-291.79 700.75,-260.8 628,-245.88 588.81,-239.68"/>
<polygon fill="red" stroke="red" stroke-width="0.26" points="589.48,-236.24 579.07,-238.21 588.44,-243.16 589.48,-236.24"/>
</g>
<!-- &#45;5 -->
<g id="node5" class="node">
<title>&#45;5</title>
<polygon fill="lightgray" stroke="black" points="471.75,-321.89 448.25,-321.89 448.25,-303.39 471.75,-303.39 471.75,-321.89"/>
<text text-anchor="middle" x="460" y="-309.34" font-family="Times,serif" font-size="9.00">&#45;5</text>
</g>
<!-- &#45;5&#45;&gt;38 -->
<g id="edge4" class="edge">
<title>&#45;5&#45;&gt;38</title>
<path fill="none" stroke="red" stroke-width="0.24" d="M468.32,-303.23C472.08,-299.58 476.64,-295.33 481,-291.79 499.4,-276.8 521.61,-261.49 537.96,-250.7"/>
<polygon fill="red" stroke="red" stroke-width="0.24" points="539.62,-253.8 546.07,-245.4 535.79,-247.94 539.62,-253.8"/>
</g>
<!-- &#45;5&#45;&gt;40 -->
<g id="edge26" class="edge">
<title>&#45;5&#45;&gt;40</title>
<path fill="none" stroke="green" stroke-width="0.15" stroke-dasharray="1,5" d="M451.14,-303C447.44,-299.46 443.07,-295.37 439,-291.79 423.82,-278.4 406.13,-263.9 392.61,-253.04"/>
<polygon fill="green" stroke="green" stroke-width="0.15" points="394.95,-250.43 384.96,-246.92 390.58,-255.9 394.95,-250.43"/>
</g>
<!-- &#45;6 -->
<g id="node6" class="node">
<title>&#45;6</title>
<polygon fill="lightgray" stroke="black" points="337.75,-321.89 314.25,-321.89 314.25,-303.39 337.75,-303.39 337.75,-321.89"/>
<text text-anchor="middle" x="326" y="-309.34" font-family="Times,serif" font-size="9.00">&#45;6</text>
</g>
<!-- &#45;6&#45;&gt;39 -->
<g id="edge14" class="edge">
<title>&#45;6&#45;&gt;39</title>
<path fill="none" stroke="green" stroke-width="0.53" d="M326.21,-303.08C327.02,-277.37 330.85,-198.75 348,-136.35 350.56,-127.04 354.46,-117.25 358.34,-108.67"/>
<polygon fill="green" stroke="green" stroke-width="0.53" points="361.49,-110.18 362.6,-99.65 355.16,-107.19 361.49,-110.18"/>
</g>
<!-- &#45;6&#45;&gt;40 -->
<g id="edge30" class="edge">
<title>&#45;6&#45;&gt;40</title>
<path fill="none" stroke="red" stroke-width="0.15" stroke-dasharray="1,5" d="M331.16,-302.96C337.43,-292.41 348.26,-274.19 357.05,-259.4"/>
<polygon fill="red" stroke="red" stroke-width="0.15" points="359.98,-261.31 362.08,-250.93 353.97,-257.74 359.98,-261.31"/>
</g>
<!-- &#45;7 -->
<g id="node7" class="node">
<title>&#45;7</title>
<polygon fill="lightgray" stroke="black" points="115.75,-321.89 92.25,-321.89 92.25,-303.39 115.75,-303.39 115.75,-321.89"/>
<text text-anchor="middle" x="104" y="-309.34" font-family="Times,serif" font-size="9.00">&#45;7</text>
</g>
<!-- &#45;7&#45;&gt;37 -->
<g id="edge18" class="edge">
<title>&#45;7&#45;&gt;37</title>
<path fill="none" stroke="green" stroke-width="0.24" d="M112.85,-302.99C116.55,-299.45 120.92,-295.35 125,-291.79 140.46,-278.25 158.53,-263.66 172.3,-252.79"/>
<polygon fill="green" stroke="green" stroke-width="0.24" points="174.27,-255.7 179.97,-246.77 169.94,-250.19 174.27,-255.7"/>
</g>
<!-- &#45;8 -->
<g id="node8" class="node">
<title>&#45;8</title>
<polygon fill="lightgray" stroke="black" points="699.75,-321.89 676.25,-321.89 676.25,-303.39 699.75,-303.39 699.75,-321.89"/>
<text text-anchor="middle" x="688" y="-309.34" font-family="Times,serif" font-size="9.00">&#45;8</text>
</g>
<!-- &#45;8&#45;&gt;38 -->
<g id="edge29" class="edge">
<title>&#45;8&#45;&gt;38</title>
<path fill="none" stroke="red" stroke-width="0.13" d="M679.88,-302.97C676.16,-299.27 671.57,-295.06 667,-291.79 641.21,-273.33 608.55,-257.05 586.35,-246.89"/>
<polygon fill="red" stroke="red" stroke-width="0.13" points="587.97,-243.78 577.41,-242.88 585.1,-250.17 587.97,-243.78"/>
</g>
<!-- &#45;9 -->
<g id="node9" class="node">
<title>&#45;9</title>
<polygon fill="lightgray" stroke="black" points="667.75,-393.25 644.25,-393.25 644.25,-374.75 667.75,-374.75 667.75,-393.25"/>
<text text-anchor="middle" x="656" y="-380.7" font-family="Times,serif" font-size="9.00">&#45;9</text>
</g>
<!-- &#45;10 -->
<g id="node10" class="node">
<title>&#45;10</title>
<polygon fill="lightgray" stroke="black" points="430,-321.89 402,-321.89 402,-303.39 430,-303.39 430,-321.89"/>
<text text-anchor="middle" x="416" y="-309.34" font-family="Times,serif" font-size="9.00">&#45;10</text>
</g>
<!-- &#45;10&#45;&gt;37 -->
<g id="edge15" class="edge">
<title>&#45;10&#45;&gt;37</title>
<path fill="none" stroke="red" stroke-width="0.26" stroke-dasharray="1,5" d="M408.19,-303.24C404.03,-299.23 398.63,-294.69 393,-291.79 333.22,-260.95 310.21,-275.82 246,-255.79 237.34,-253.08 228.05,-249.69 219.74,-246.48"/>
<polygon fill="red" stroke="red" stroke-width="0.26" points="221.16,-243.28 210.57,-242.86 218.58,-249.79 221.16,-243.28"/>
</g>
<!-- &#45;10&#45;&gt;38 -->
<g id="edge34" class="edge">
<title>&#45;10&#45;&gt;38</title>
<path fill="none" stroke="green" stroke-width="0.37" d="M424.49,-303.29C428.65,-299.48 433.85,-295.09 439,-291.79 470.01,-271.87 509.29,-255.24 534.77,-245.44"/>
<polygon fill="green" stroke="green" stroke-width="0.37" points="535.81,-248.78 543.93,-241.98 533.34,-242.23 535.81,-248.78"/>
</g>
<!-- &#45;10&#45;&gt;40 -->
<g id="edge36" class="edge">
<title>&#45;10&#45;&gt;40</title>
<path fill="none" stroke="green" stroke-width="0.27" stroke-dasharray="1,5" d="M410.84,-302.96C404.57,-292.41 393.74,-274.19 384.95,-259.4"/>
<polygon fill="green" stroke="green" stroke-width="0.27" points="388.13,-257.9 380.01,-251.09 382.11,-261.48 388.13,-257.9"/>
</g>
<!-- &#45;11 -->
<g id="node11" class="node">
<title>&#45;11</title>
<polygon fill="lightgray" stroke="black" points="208,-321.89 180,-321.89 180,-303.39 208,-303.39 208,-321.89"/>
<text text-anchor="middle" x="194" y="-309.34" font-family="Times,serif" font-size="9.00">&#45;11</text>
</g>
<!-- &#45;11&#45;&gt;37 -->
<g id="edge6" class="edge">
<title>&#45;11&#45;&gt;37</title>
<path fill="none" stroke="red" stroke-width="0.23" d="M194,-302.96C194,-293.3 194,-277.22 194,-263.22"/>
<polygon fill="red" stroke="red" stroke-width="0.23" points="197.5,-263.42 194,-253.42 190.5,-263.42 197.5,-263.42"/>
</g>
<!-- &#45;11&#45;&gt;40 -->
<g id="edge12" class="edge">
<title>&#45;11&#45;&gt;40</title>
<path fill="none" stroke="green" stroke-width="0.35" d="M202.38,-303.1C206.5,-299.25 211.72,-294.88 217,-291.79 239.09,-278.84 306.3,-256.47 344.22,-244.34"/>
<polygon fill="green" stroke="green" stroke-width="0.35" points="345.1,-247.73 353.57,-241.36 342.98,-241.06 345.1,-247.73"/>
</g>
<!-- &#45;12 -->
<g id="node12" class="node">
<title>&#45;12</title>
<polygon fill="lightgray" stroke="black" points="74,-321.89 46,-321.89 46,-303.39 74,-303.39 74,-321.89"/>
<text text-anchor="middle" x="60" y="-309.34" font-family="Times,serif" font-size="9.00">&#45;12</text>
</g>
<!-- &#45;12&#45;&gt;37 -->
<g id="edge22" class="edge">
<title>&#45;12&#45;&gt;37</title>
<path fill="none" stroke="red" stroke-width="0.36" d="M68.98,-302.98C73.07,-299.28 78.09,-295.07 83,-291.79 110.65,-273.3 145.26,-256.82 168.41,-246.63"/>
<polygon fill="red" stroke="red" stroke-width="0.36" points="169.59,-249.94 177.38,-242.76 166.81,-243.51 169.59,-249.94"/>
</g>
<!-- &#45;12&#45;&gt;39 -->
<g id="edge13" class="edge">
<title>&#45;12&#45;&gt;39</title>
<path fill="none" stroke="green" stroke-width="0.39" d="M64.14,-303.21C78.43,-275.03 128.49,-183.29 197,-136.35 242.3,-105.31 306.41,-92.13 342.82,-86.87"/>
<polygon fill="green" stroke="green" stroke-width="0.39" points="343.15,-90.35 352.6,-85.56 342.22,-83.42 343.15,-90.35"/>
</g>
<!-- &#45;12&#45;&gt;40 -->
<g id="edge48" class="edge">
<title>&#45;12&#45;&gt;40</title>
<path fill="none" stroke="red" stroke-width="0.14" d="M67.72,-303.05C71.85,-298.99 77.26,-294.46 83,-291.79 174,-249.37 208.21,-278.51 306,-255.79 318.89,-252.79 332.96,-248.61 344.7,-244.85"/>
<polygon fill="red" stroke="red" stroke-width="0.14" points="345.72,-248.2 354.14,-241.77 343.55,-241.55 345.72,-248.2"/>
</g>
<!-- &#45;13 -->
<g id="node13" class="node">
<title>&#45;13</title>
<polygon fill="lightgray" stroke="black" points="626,-393.25 598,-393.25 598,-374.75 626,-374.75 626,-393.25"/>
<text text-anchor="middle" x="612" y="-380.7" font-family="Times,serif" font-size="9.00">&#45;13</text>
</g>
<!-- &#45;13&#45;&gt;38 -->
<g id="edge37" class="edge">
<title>&#45;13&#45;&gt;38</title>
<path fill="none" stroke="red" stroke-width="0.27" d="M609.11,-374.67C601.66,-353.19 581.57,-295.25 569.84,-261.42"/>
<polygon fill="red" stroke="red" stroke-width="0.27" points="573.21,-260.46 566.63,-252.16 566.6,-262.75 573.21,-260.46"/>
</g>
<!-- 347 -->
<g id="node32" class="node">
<title>347</title>
<ellipse fill="white" stroke="black" cx="637" cy="-312.64" rx="20.86" ry="20.86"/>
<text text-anchor="middle" x="637" y="-309.34" font-family="Times,serif" font-size="9.00">347</text>
</g>
<!-- &#45;13&#45;&gt;347 -->
<g id="edge46" class="edge">
<title>&#45;13&#45;&gt;347</title>
<path fill="none" stroke="red" stroke-width="0.19" d="M615.07,-374.5C617.98,-366.41 622.53,-353.8 626.73,-342.14"/>
<polygon fill="red" stroke="red" stroke-width="0.19" points="629.94,-343.57 630.03,-332.97 623.35,-341.19 629.94,-343.57"/>
</g>
<!-- &#45;14 -->
<g id="node14" class="node">
<title>&#45;14</title>
<polygon fill="lightgray" stroke="black" points="385,-166.46 357,-166.46 357,-147.96 385,-147.96 385,-166.46"/>
<text text-anchor="middle" x="371" y="-153.91" font-family="Times,serif" font-size="9.00">&#45;14</text>
</g>
<!-- &#45;14&#45;&gt;39 -->
<g id="edge7" class="edge">
<title>&#45;14&#45;&gt;39</title>
<path fill="none" stroke="green" stroke-width="0.29" stroke-dasharray="1,5" d="M371,-147.6C371,-138.63 371,-124.1 371,-111.15"/>
<polygon fill="green" stroke="green" stroke-width="0.29" points="374.5,-111.25 371,-101.25 367.5,-111.25 374.5,-111.25"/>
</g>
<!-- &#45;15 -->
<g id="node15" class="node">
<title>&#45;15</title>
<polygon fill="lightgray" stroke="black" points="384,-321.89 356,-321.89 356,-303.39 384,-303.39 384,-321.89"/>
<text text-anchor="middle" x="370" y="-309.34" font-family="Times,serif" font-size="9.00">&#45;15</text>
</g>
<!-- &#45;15&#45;&gt;40 -->
<g id="edge27" class="edge">
<title>&#45;15&#45;&gt;40</title>
<path fill="none" stroke="green" stroke-width="0.22" d="M370.11,-302.96C370.24,-293.3 370.45,-277.22 370.64,-263.22"/>
<polygon fill="green" stroke="green" stroke-width="0.22" points="374.14,-263.45 370.77,-253.41 367.14,-263.36 374.14,-263.45"/>
</g>
<!-- &#45;16 -->
<g id="node16" class="node">
<title>&#45;16</title>
<polygon fill="lightgray" stroke="black" points="560,-321.89 532,-321.89 532,-303.39 560,-303.39 560,-321.89"/>
<text text-anchor="middle" x="546" y="-309.34" font-family="Times,serif" font-size="9.00">&#45;16</text>
</g>
<!-- &#45;16&#45;&gt;38 -->
<g id="edge16" class="edge">
<title>&#45;16&#45;&gt;38</title>
<path fill="none" stroke="red" stroke-width="0.45" stroke-dasharray="1,5" d="M547.72,-302.96C549.65,-293.24 552.86,-277.01 555.65,-262.95"/>
<polygon fill="red" stroke="red" stroke-width="0.45" points="559.02,-263.93 557.53,-253.44 552.15,-262.57 559.02,-263.93"/>
</g>
<!-- &#45;16&#45;&gt;40 -->
<g id="edge39" class="edge">
<title>&#45;16&#45;&gt;40</title>
<path fill="none" stroke="red" stroke-width="0.12" stroke-dasharray="1,5" d="M537.62,-303.11C533.49,-299.26 528.27,-294.89 523,-291.79 482.3,-267.82 429.55,-251.25 398.1,-242.69"/>
<polygon fill="red" stroke="red" stroke-width="0.12" points="399.04,-239.32 388.48,-240.14 397.25,-246.09 399.04,-239.32"/>
</g>
<!-- &#45;17 -->
<g id="node17" class="node">
<title>&#45;17</title>
<polygon fill="lightgray" stroke="black" points="746,-321.89 718,-321.89 718,-303.39 746,-303.39 746,-321.89"/>
<text text-anchor="middle" x="732" y="-309.34" font-family="Times,serif" font-size="9.00">&#45;17</text>
</g>
<!-- &#45;17&#45;&gt;38 -->
<g id="edge3" class="edge">
<title>&#45;17&#45;&gt;38</title>
<path fill="none" stroke="red" stroke-width="0.35" d="M723.61,-303.13C719.48,-299.28 714.26,-294.91 709,-291.79 669.73,-268.43 618.99,-251.83 588.27,-243.08"/>
<polygon fill="red" stroke="red" stroke-width="0.35" points="589.38,-239.76 578.81,-240.46 587.51,-246.5 589.38,-239.76"/>
</g>
<!-- 267 -->
<g id="node30" class="node">
<title>267</title>
<ellipse fill="white" stroke="black" cx="614" cy="-157.21" rx="20.86" ry="20.86"/>
<text text-anchor="middle" x="614" y="-153.91" font-family="Times,serif" font-size="9.00">267</text>
</g>
<!-- &#45;17&#45;&gt;267 -->
<g id="edge42" class="edge">
<title>&#45;17&#45;&gt;267</title>
<path fill="none" stroke="green" stroke-width="0.26" d="M725.32,-302.96C707.67,-280.01 659.33,-217.16 632.52,-182.29"/>
<polygon fill="green" stroke="green" stroke-width="0.26" points="635.63,-180.59 626.76,-174.8 630.08,-184.86 635.63,-180.59"/>
</g>
<!-- &#45;18 -->
<g id="node18" class="node">
<title>&#45;18</title>
<polygon fill="lightgray" stroke="black" points="296,-321.89 268,-321.89 268,-303.39 296,-303.39 296,-321.89"/>
<text text-anchor="middle" x="282" y="-309.34" font-family="Times,serif" font-size="9.00">&#45;18</text>
</g>
<!-- &#45;18&#45;&gt;37 -->
<g id="edge23" class="edge">
<title>&#45;18&#45;&gt;37</title>
<path fill="none" stroke="red" stroke-width="0.11" d="M272.16,-303.14C268.08,-299.62 263.32,-295.5 259,-291.79 244.16,-279 227.39,-264.59 214.6,-253.61"/>
<polygon fill="red" stroke="red" stroke-width="0.11" points="217.2,-251.23 207.33,-247.37 212.64,-256.54 217.2,-251.23"/>
</g>
<!-- &#45;18&#45;&gt;38 -->
<g id="edge38" class="edge">
<title>&#45;18&#45;&gt;38</title>
<path fill="none" stroke="green" stroke-width="0.33" d="M289.78,-303.18C293.93,-299.16 299.34,-294.62 305,-291.79 381.44,-253.57 483.56,-241.36 532.5,-237.57"/>
<polygon fill="green" stroke="green" stroke-width="0.33" points="532.71,-241.06 542.43,-236.86 532.21,-234.08 532.71,-241.06"/>
</g>
<!-- &#45;18&#45;&gt;40 -->
<g id="edge33" class="edge">
<title>&#45;18&#45;&gt;40</title>
<path fill="none" stroke="red" stroke-width="0.17" d="M291.83,-303.12C295.9,-299.6 300.67,-295.49 305,-291.79 320.12,-278.86 337.27,-264.35 350.3,-253.36"/>
<polygon fill="red" stroke="red" stroke-width="0.17" points="352.23,-256.31 357.62,-247.19 347.72,-250.96 352.23,-256.31"/>
</g>
<!-- 273 -->
<g id="node31" class="node">
<title>273</title>
<ellipse fill="white" stroke="black" cx="276" cy="-234.93" rx="20.86" ry="20.86"/>
<text text-anchor="middle" x="276" y="-231.63" font-family="Times,serif" font-size="9.00">273</text>
</g>
<!-- &#45;18&#45;&gt;273 -->
<g id="edge45" class="edge">
<title>&#45;18&#45;&gt;273</title>
<path fill="none" stroke="green" stroke-width="0.14" d="M281.31,-302.96C280.6,-293.92 279.43,-279.25 278.38,-265.94"/>
<polygon fill="green" stroke="green" stroke-width="0.14" points="281.9,-266.04 277.62,-256.35 274.92,-266.59 281.9,-266.04"/>
</g>
<!-- &#45;19 -->
<g id="node19" class="node">
<title>&#45;19</title>
<polygon fill="lightgray" stroke="black" points="162,-321.89 134,-321.89 134,-303.39 162,-303.39 162,-321.89"/>
<text text-anchor="middle" x="148" y="-309.34" font-family="Times,serif" font-size="9.00">&#45;19</text>
</g>
<!-- &#45;19&#45;&gt;37 -->
<g id="edge5" class="edge">
<title>&#45;19&#45;&gt;37</title>
<path fill="none" stroke="green" stroke-width="0.46" d="M153.28,-302.96C159.67,-292.44 170.68,-274.31 179.65,-259.55"/>
<polygon fill="green" stroke="green" stroke-width="0.46" points="182.61,-261.41 184.81,-251.05 176.63,-257.78 182.61,-261.41"/>
</g>
<!-- &#45;19&#45;&gt;38 -->
<g id="edge20" class="edge">
<title>&#45;19&#45;&gt;38</title>
<path fill="none" stroke="red" stroke-width="0.48" stroke-dasharray="1,5" d="M155.7,-303.01C159.82,-298.94 165.24,-294.41 171,-291.79 187.57,-284.24 446.41,-250.6 533.02,-239.49"/>
<polygon fill="red" stroke="red" stroke-width="0.48" points="533.41,-242.97 542.88,-238.23 532.52,-236.03 533.41,-242.97"/>
</g>
<!-- &#45;19&#45;&gt;39 -->
<g id="edge10" class="edge">
<title>&#45;19&#45;&gt;39</title>
<path fill="none" stroke="green" stroke-width="0.85" stroke-dasharray="1,5" d="M147.52,-302.97C146.94,-284.81 147.88,-242.18 167,-214.07 211.12,-149.18 299.37,-109.59 343.93,-92.9"/>
<polygon fill="green" stroke="green" stroke-width="0.85" points="344.84,-96.29 353.05,-89.59 342.46,-89.71 344.84,-96.29"/>
</g>
<!-- &#45;20 -->
<g id="node20" class="node">
<title>&#45;20</title>
<polygon fill="lightgray" stroke="black" points="28,-321.89 0,-321.89 0,-303.39 28,-303.39 28,-321.89"/>
<text text-anchor="middle" x="14" y="-309.34" font-family="Times,serif" font-size="9.00">&#45;20</text>
</g>
<!-- &#45;20&#45;&gt;37 -->
<g id="edge17" class="edge">
<title>&#45;20&#45;&gt;37</title>
<path fill="none" stroke="green" stroke-width="0.26" stroke-dasharray="1,5" d="M22.37,-303.08C26.49,-299.23 31.71,-294.86 37,-291.79 79.42,-267.1 134.56,-250.6 166.94,-242.28"/>
<polygon fill="green" stroke="green" stroke-width="0.26" points="167.37,-245.78 176.23,-239.96 165.68,-238.99 167.37,-245.78"/>
</g>
<!-- 0 -->
<g id="node21" class="node">
<title>0</title>
<ellipse fill="lightblue" stroke="black" cx="700" cy="-384" rx="14.5" ry="14.5"/>
<text text-anchor="middle" x="700" y="-380.7" font-family="Times,serif" font-size="9.00">0</text>
</g>
<!-- 0&#45;&gt;0 -->
<g id="edge8" class="edge">
<title>0&#45;&gt;0</title>
<path fill="none" stroke="red" stroke-width="0.13" stroke-dasharray="1,5" d="M710.32,-394.44C720.81,-400.58 732.5,-397.1 732.5,-384 732.5,-374.79 726.72,-370.33 719.64,-370.64"/>
<polygon fill="red" stroke="red" stroke-width="0.13" points="718.99,-367.17 710.5,-373.5 721.09,-373.85 718.99,-367.17"/>
</g>
<!-- 1 -->
<g id="node22" class="node">
<title>1</title>
<ellipse fill="lightblue" stroke="black" cx="765" cy="-384" rx="14.5" ry="14.5"/>
<text text-anchor="middle" x="765" y="-380.7" font-family="Times,serif" font-size="9.00">1</text>
</g>
<!-- 1&#45;&gt;1 -->
<g id="edge2" class="edge">
<title>1&#45;&gt;1</title>
<path fill="none" stroke="green" stroke-width="0.64" stroke-dasharray="1,5" d="M775.32,-394.44C785.81,-400.58 797.5,-397.1 797.5,-384 797.5,-375.2 792.22,-370.74 785.58,-370.62"/>
<polygon fill="green" stroke="green" stroke-width="0.64" points="784.89,-367.18 776.24,-373.3 786.82,-373.91 784.89,-367.18"/>
</g>
<!-- 2 -->
<g id="node23" class="node">
<title>2</title>
<ellipse fill="lightblue" stroke="black" cx="459" cy="-157.21" rx="14.5" ry="14.5"/>
<text text-anchor="middle" x="459" y="-153.91" font-family="Times,serif" font-size="9.00">2</text>
</g>
<!-- 2&#45;&gt;2 -->
<g id="edge19" class="edge">
<title>2&#45;&gt;2</title>
<path fill="none" stroke="green" stroke-width="0.14" stroke-dasharray="1,5" d="M468.98,-167.9C479.56,-174.6 491.5,-171.04 491.5,-157.21 491.5,-147.48 485.6,-142.83 478.41,-143.26"/>
<polygon fill="green" stroke="green" stroke-width="0.14" points="477.5,-139.87 469.18,-146.44 479.78,-146.49 477.5,-139.87"/>
</g>
<!-- 2&#45;&gt;39 -->
<g id="edge41" class="edge">
<title>2&#45;&gt;39</title>
<path fill="none" stroke="green" stroke-width="0.47" stroke-dasharray="1,5" d="M448.21,-147.31C434.4,-135.93 410.17,-115.96 392.53,-101.42"/>
<polygon fill="green" stroke="green" stroke-width="0.47" points="394.97,-98.89 385.02,-95.23 390.51,-104.29 394.97,-98.89"/>
</g>
<!-- 3 -->
<g id="node24" class="node">
<title>3</title>
<ellipse fill="lightblue" stroke="black" cx="561" cy="-157.21" rx="14.5" ry="14.5"/>
<text text-anchor="middle" x="561" y="-153.91" font-family="Times,serif" font-size="9.00">3</text>
</g>
<!-- 4&#45;&gt;4 -->
<g id="edge11" class="edge">
<title>4&#45;&gt;4</title>
<path fill="none" stroke="green" stroke-width="0.15" stroke-dasharray="1,5" d="M529.65,-24.65C540.06,-30.26 551.5,-26.88 551.5,-14.5 551.5,-5.98 546.09,-1.72 539.33,-1.71"/>
<polygon fill="green" stroke="green" stroke-width="0.15" points="538.61,1.72 529.87,-4.28 540.44,-5.04 538.61,1.72"/>
</g>
<!-- 38&#45;&gt;2 -->
<g id="edge9" class="edge">
<title>38&#45;&gt;2</title>
<path fill="none" stroke="red" stroke-width="0.48" d="M547.24,-223.71C529.61,-210.62 498.91,-187.83 478.77,-172.88"/>
<polygon fill="red" stroke="red" stroke-width="0.48" points="481.05,-170.21 470.93,-167.06 476.88,-175.84 481.05,-170.21"/>
</g>
<!-- 38&#45;&gt;3 -->
<g id="edge24" class="edge">
<title>38&#45;&gt;3</title>
<path fill="none" stroke="green" stroke-width="0.67" d="M561,-217.12C561,-207.03 561,-194.02 561,-182.79"/>
<polygon fill="green" stroke="green" stroke-width="0.67" points="564.5,-182.95 561,-172.95 557.5,-182.95 564.5,-182.95"/>
</g>
<!-- 38&#45;&gt;267 -->
<g id="edge49" class="edge">
<title>38&#45;&gt;267</title>
<path fill="none" stroke="green" stroke-width="0.16" d="M566.6,-217.87C573.03,-206.86 583.16,-192.13 592.52,-180.06"/>
<polygon fill="green" stroke="green" stroke-width="0.16" points="595.14,-182.39 598.67,-172.4 589.68,-178.01 595.14,-182.39"/>
</g>
<!-- 39&#45;&gt;4 -->
<g id="edge1" class="edge">
<title>39&#45;&gt;4</title>
<path fill="none" stroke="red" stroke-width="0.31" d="M387.12,-74.46C413.64,-62.6 466.53,-38.96 496.65,-25.49"/>
<polygon fill="red" stroke="red" stroke-width="0.31" points="497.79,-28.81 505.5,-21.53 494.94,-22.42 497.79,-28.81"/>
</g>
<!-- 40&#45;&gt;4 -->
<g id="edge25" class="edge">
<title>40&#45;&gt;4</title>
<path fill="none" stroke="red" stroke-width="0.2" d="M388.59,-231.85C417.09,-227.48 472.92,-214.5 500,-178.07 530.59,-136.91 527.5,-72.99 523,-38.85"/>
<polygon fill="red" stroke="red" stroke-width="0.2" points="526.5,-38.57 521.58,-29.18 519.57,-39.59 526.5,-38.57"/>
</g>
<!-- 267&#45;&gt;38 -->
<g id="edge43" class="edge">
<title>267&#45;&gt;38</title>
<path fill="none" stroke="green" stroke-width="0.71" stroke-dasharray="1,5" d="M606.65,-177.19C599.84,-188.42 589.93,-202.62 580.97,-214.01"/>
<polygon fill="green" stroke="green" stroke-width="0.71" points="578.38,-211.65 574.74,-221.6 583.79,-216.09 578.38,-211.65"/>
</g>
<!-- 347&#45;&gt;38 -->
<g id="edge47" class="edge">
<title>347&#45;&gt;38</title>
<path fill="none" stroke="red" stroke-width="0.37" d="M622.7,-297.4C610.77,-285.51 593.64,-268.45 580.46,-255.32"/>
<polygon fill="red" stroke="red" stroke-width="0.37" points="583.17,-253.08 573.62,-248.5 578.23,-258.03 583.17,-253.08"/>
</g>
</g>
</svg>
