<?xml version="1.0" encoding="UTF-8" standalone="no"?>
<!DOCTYPE svg PUBLIC "-//W3C//DTD SVG 1.1//EN"
 "http://www.w3.org/Graphics/SVG/1.1/DTD/svg11.dtd">
<!-- Generated by graphviz version 12.1.1 (20240910.0053)
 -->
<!-- Pages: 1 -->
<svg width="926pt" height="251pt"
 viewBox="0.00 0.00 925.75 251.06" xmlns="http://www.w3.org/2000/svg" xmlns:xlink="http://www.w3.org/1999/xlink">
<g id="graph0" class="graph" transform="scale(1 1) rotate(0) translate(4 247.06)">
<polygon fill="white" stroke="none" points="-4,4 -4,-247.06 921.75,-247.06 921.75,4 -4,4"/>
<!-- &#45;1 -->
<g id="node1" class="node">
<title>&#45;1</title>
<polygon fill="lightgray" stroke="black" points="127.75,-237.81 104.25,-237.81 104.25,-219.31 127.75,-219.31 127.75,-237.81"/>
<text text-anchor="middle" x="116" y="-225.26" font-family="Times,serif" font-size="9.00">&#45;1</text>
</g>
<!-- 83 -->
<g id="node28" class="node">
<title>83</title>
<ellipse fill="white" stroke="black" cx="372" cy="-82.67" rx="17.68" ry="17.68"/>
<text text-anchor="middle" x="372" y="-79.37" font-family="Times,serif" font-size="9.00">83</text>
</g>
<!-- &#45;1&#45;&gt;83 -->
<g id="edge3" class="edge">
<title>&#45;1&#45;&gt;83</title>
<path fill="none" stroke="red" stroke-width="0.33" d="M127.58,-219.05C130.54,-217.19 133.79,-215.38 137,-214.07 210.11,-184.22 245.85,-222.69 311,-178.07 335.46,-161.31 352.37,-131.19 362.08,-109.48"/>
<polygon fill="red" stroke="red" stroke-width="0.33" points="365.27,-110.91 365.96,-100.34 358.83,-108.18 365.27,-110.91"/>
</g>
<!-- 84 -->
<g id="node29" class="node">
<title>84</title>
<ellipse fill="white" stroke="black" cx="216" cy="-82.67" rx="17.68" ry="17.68"/>
<text text-anchor="middle" x="216" y="-79.37" font-family="Times,serif" font-size="9.00">84</text>
</g>
<!-- &#45;1&#45;&gt;84 -->
<g id="edge23" class="edge">
<title>&#45;1&#45;&gt;84</title>
<path fill="none" stroke="green" stroke-width="0.13" stroke-dasharray="1,5" d="M115.69,-218.93C115.49,-201.68 117.2,-162.38 135,-136.35 148.48,-116.63 172.03,-102.55 190.27,-93.93"/>
<polygon fill="green" stroke="green" stroke-width="0.13" points="191.62,-97.16 199.33,-89.9 188.77,-90.77 191.62,-97.16"/>
</g>
<!-- 252 -->
<g id="node30" class="node">
<title>252</title>
<ellipse fill="white" stroke="black" cx="67" cy="-157.21" rx="20.86" ry="20.86"/>
<text text-anchor="middle" x="67" y="-153.91" font-family="Times,serif" font-size="9.00">252</text>
</g>
<!-- &#45;1&#45;&gt;252 -->
<g id="edge44" class="edge">
<title>&#45;1&#45;&gt;252</title>
<path fill="none" stroke="green" stroke-width="0.3" d="M109.99,-219.06C103.68,-210.12 93.45,-195.65 84.56,-183.06"/>
<polygon fill="green" stroke="green" stroke-width="0.3" points="87.57,-181.25 78.94,-175.11 81.85,-185.29 87.57,-181.25"/>
</g>
<!-- &#45;2 -->
<g id="node2" class="node">
<title>&#45;2</title>
<polygon fill="lightgray" stroke="black" points="255.75,-166.46 232.25,-166.46 232.25,-147.96 255.75,-147.96 255.75,-166.46"/>
<text text-anchor="middle" x="244" y="-153.91" font-family="Times,serif" font-size="9.00">&#45;2</text>
</g>
<!-- 81 -->
<g id="node26" class="node">
<title>81</title>
<ellipse fill="white" stroke="black" cx="487" cy="-82.67" rx="17.68" ry="17.68"/>
<text text-anchor="middle" x="487" y="-79.37" font-family="Times,serif" font-size="9.00">81</text>
</g>
<!-- &#45;2&#45;&gt;81 -->
<g id="edge30" class="edge">
<title>&#45;2&#45;&gt;81</title>
<path fill="none" stroke="green" stroke-width="0.28" d="M251,-147.77C254.76,-143.75 259.7,-139.21 265,-136.35 282.11,-127.1 403.64,-101.04 459.29,-89.4"/>
<polygon fill="green" stroke="green" stroke-width="0.28" points="460,-92.83 469.08,-87.36 458.57,-85.98 460,-92.83"/>
</g>
<!-- &#45;2&#45;&gt;84 -->
<g id="edge1" class="edge">
<title>&#45;2&#45;&gt;84</title>
<path fill="none" stroke="red" stroke-width="0.24" d="M240.68,-147.6C237.02,-138.12 230.96,-122.42 225.76,-108.96"/>
<polygon fill="red" stroke="red" stroke-width="0.24" points="229.17,-108.08 222.31,-100.01 222.64,-110.6 229.17,-108.08"/>
</g>
<!-- &#45;3 -->
<g id="node3" class="node">
<title>&#45;3</title>
<polygon fill="lightgray" stroke="black" points="611.75,-166.46 588.25,-166.46 588.25,-147.96 611.75,-147.96 611.75,-166.46"/>
<text text-anchor="middle" x="600" y="-153.91" font-family="Times,serif" font-size="9.00">&#45;3</text>
</g>
<!-- 82 -->
<g id="node27" class="node">
<title>82</title>
<ellipse fill="white" stroke="black" cx="690" cy="-82.67" rx="17.68" ry="17.68"/>
<text text-anchor="middle" x="690" y="-79.37" font-family="Times,serif" font-size="9.00">82</text>
</g>
<!-- &#45;3&#45;&gt;82 -->
<g id="edge28" class="edge">
<title>&#45;3&#45;&gt;82</title>
<path fill="none" stroke="green" stroke-width="0.18" d="M608.8,-147.49C612.49,-143.94 616.87,-139.86 621,-136.35 636.21,-123.41 654.16,-109.75 667.94,-99.59"/>
<polygon fill="green" stroke="green" stroke-width="0.18" points="669.7,-102.64 675.7,-93.91 665.56,-96.99 669.7,-102.64"/>
</g>
<!-- &#45;3&#45;&gt;83 -->
<g id="edge16" class="edge">
<title>&#45;3&#45;&gt;83</title>
<path fill="none" stroke="green" stroke-width="0.36" d="M592.98,-147.81C589.22,-143.8 584.27,-139.25 579,-136.35 548.05,-119.3 448.45,-98.44 399.58,-88.89"/>
<polygon fill="green" stroke="green" stroke-width="0.36" points="400.42,-85.49 389.94,-87.03 399.09,-92.36 400.42,-85.49"/>
</g>
<!-- &#45;4 -->
<g id="node4" class="node">
<title>&#45;4</title>
<polygon fill="lightgray" stroke="black" points="833.75,-166.46 810.25,-166.46 810.25,-147.96 833.75,-147.96 833.75,-166.46"/>
<text text-anchor="middle" x="822" y="-153.91" font-family="Times,serif" font-size="9.00">&#45;4</text>
</g>
<!-- &#45;4&#45;&gt;82 -->
<g id="edge22" class="edge">
<title>&#45;4&#45;&gt;82</title>
<path fill="none" stroke="red" stroke-width="0.11" d="M814.34,-147.83C810.57,-144.02 805.8,-139.63 801,-136.35 773.89,-117.79 739.23,-102.5 715.91,-93.26"/>
<polygon fill="red" stroke="red" stroke-width="0.11" points="717.42,-90.09 706.83,-89.74 714.89,-96.61 717.42,-90.09"/>
</g>
<!-- &#45;5 -->
<g id="node5" class="node">
<title>&#45;5</title>
<polygon fill="lightgray" stroke="black" points="745.75,-166.46 722.25,-166.46 722.25,-147.96 745.75,-147.96 745.75,-166.46"/>
<text text-anchor="middle" x="734" y="-153.91" font-family="Times,serif" font-size="9.00">&#45;5</text>
</g>
<!-- &#45;5&#45;&gt;81 -->
<g id="edge5" class="edge">
<title>&#45;5&#45;&gt;81</title>
<path fill="none" stroke="green" stroke-width="0.11" d="M727.01,-147.76C723.25,-143.74 718.3,-139.2 713,-136.35 647.6,-101.19 559.23,-89.35 514.86,-85.48"/>
<polygon fill="green" stroke="green" stroke-width="0.11" points="515.23,-82 504.98,-84.69 514.67,-88.97 515.23,-82"/>
</g>
<!-- &#45;5&#45;&gt;82 -->
<g id="edge29" class="edge">
<title>&#45;5&#45;&gt;82</title>
<path fill="none" stroke="green" stroke-width="0.59" d="M728.78,-147.6C722.79,-137.72 712.71,-121.1 704.32,-107.28"/>
<polygon fill="green" stroke="green" stroke-width="0.59" points="707.51,-105.78 699.33,-99.05 701.52,-109.41 707.51,-105.78"/>
</g>
<!-- &#45;6 -->
<g id="node6" class="node">
<title>&#45;6</title>
<polygon fill="lightgray" stroke="black" points="875.75,-166.46 852.25,-166.46 852.25,-147.96 875.75,-147.96 875.75,-166.46"/>
<text text-anchor="middle" x="864" y="-153.91" font-family="Times,serif" font-size="9.00">&#45;6</text>
</g>
<!-- &#45;6&#45;&gt;82 -->
<g id="edge11" class="edge">
<title>&#45;6&#45;&gt;82</title>
<path fill="none" stroke="red" stroke-width="0.36" d="M856.49,-147.59C852.76,-143.72 847.98,-139.36 843,-136.35 802.63,-111.9 749.35,-96.85 717.49,-89.4"/>
<polygon fill="red" stroke="red" stroke-width="0.36" points="718.62,-86.06 708.1,-87.28 717.08,-92.89 718.62,-86.06"/>
</g>
<!-- &#45;7 -->
<g id="node7" class="node">
<title>&#45;7</title>
<polygon fill="lightgray" stroke="black" points="917.75,-166.46 894.25,-166.46 894.25,-147.96 917.75,-147.96 917.75,-166.46"/>
<text text-anchor="middle" x="906" y="-153.91" font-family="Times,serif" font-size="9.00">&#45;7</text>
</g>
<!-- &#45;7&#45;&gt;82 -->
<g id="edge13" class="edge">
<title>&#45;7&#45;&gt;82</title>
<path fill="none" stroke="red" stroke-width="0.22" d="M898.96,-147.84C895.2,-143.84 890.25,-139.29 885,-136.35 830.47,-105.8 757.34,-92.25 717.95,-86.84"/>
<polygon fill="red" stroke="red" stroke-width="0.22" points="718.48,-83.38 708.11,-85.57 717.58,-90.32 718.48,-83.38"/>
</g>
<!-- &#45;8 -->
<g id="node8" class="node">
<title>&#45;8</title>
<polygon fill="lightgray" stroke="black" points="213.75,-166.46 190.25,-166.46 190.25,-147.96 213.75,-147.96 213.75,-166.46"/>
<text text-anchor="middle" x="202" y="-153.91" font-family="Times,serif" font-size="9.00">&#45;8</text>
</g>
<!-- &#45;8&#45;&gt;83 -->
<g id="edge19" class="edge">
<title>&#45;8&#45;&gt;83</title>
<path fill="none" stroke="green" stroke-width="0.26" d="M209.52,-147.61C213.26,-143.74 218.03,-139.38 223,-136.35 262.16,-112.41 313.76,-97.26 344.83,-89.64"/>
<polygon fill="green" stroke="green" stroke-width="0.26" points="345.59,-93.06 354.51,-87.35 343.98,-86.24 345.59,-93.06"/>
</g>
<!-- &#45;8&#45;&gt;84 -->
<g id="edge39" class="edge">
<title>&#45;8&#45;&gt;84</title>
<path fill="none" stroke="green" stroke-width="0.24" d="M203.66,-147.6C205.42,-138.48 208.29,-123.61 210.82,-110.51"/>
<polygon fill="green" stroke="green" stroke-width="0.24" points="214.22,-111.36 212.68,-100.88 207.35,-110.04 214.22,-111.36"/>
</g>
<!-- &#45;9 -->
<g id="node9" class="node">
<title>&#45;9</title>
<polygon fill="lightgray" stroke="black" points="169.75,-237.81 146.25,-237.81 146.25,-219.31 169.75,-219.31 169.75,-237.81"/>
<text text-anchor="middle" x="158" y="-225.26" font-family="Times,serif" font-size="9.00">&#45;9</text>
</g>
<!-- &#45;10 -->
<g id="node10" class="node">
<title>&#45;10</title>
<polygon fill="lightgray" stroke="black" points="658,-166.46 630,-166.46 630,-147.96 658,-147.96 658,-166.46"/>
<text text-anchor="middle" x="644" y="-153.91" font-family="Times,serif" font-size="9.00">&#45;10</text>
</g>
<!-- &#45;10&#45;&gt;82 -->
<g id="edge14" class="edge">
<title>&#45;10&#45;&gt;82</title>
<path fill="none" stroke="green" stroke-width="0.5" stroke-dasharray="1,5" d="M649.46,-147.6C655.72,-137.72 666.26,-121.1 675.03,-107.28"/>
<polygon fill="green" stroke="green" stroke-width="0.5" points="677.93,-109.24 680.33,-98.92 672.02,-105.49 677.93,-109.24"/>
</g>
<!-- &#45;10&#45;&gt;83 -->
<g id="edge35" class="edge">
<title>&#45;10&#45;&gt;83</title>
<path fill="none" stroke="red" stroke-width="0.36" d="M636.23,-147.73C632.08,-143.7 626.67,-139.16 621,-136.35 611.01,-131.39 462.01,-101.51 399.39,-89.08"/>
<polygon fill="red" stroke="red" stroke-width="0.36" points="400.46,-85.73 389.97,-87.22 399.1,-92.59 400.46,-85.73"/>
</g>
<!-- &#45;11 -->
<g id="node11" class="node">
<title>&#45;11</title>
<polygon fill="lightgray" stroke="black" points="792,-166.46 764,-166.46 764,-147.96 792,-147.96 792,-166.46"/>
<text text-anchor="middle" x="778" y="-153.91" font-family="Times,serif" font-size="9.00">&#45;11</text>
</g>
<!-- &#45;11&#45;&gt;82 -->
<g id="edge17" class="edge">
<title>&#45;11&#45;&gt;82</title>
<path fill="none" stroke="red" stroke-width="0.11" stroke-dasharray="1,5" d="M768.21,-147.63C764.15,-144.11 759.37,-140 755,-136.35 740.56,-124.27 724.08,-110.92 711.33,-100.68"/>
<polygon fill="red" stroke="red" stroke-width="0.11" points="713.67,-98.07 703.68,-94.55 709.29,-103.53 713.67,-98.07"/>
</g>
<!-- &#45;12 -->
<g id="node12" class="node">
<title>&#45;12</title>
<polygon fill="lightgray" stroke="black" points="386,-166.46 358,-166.46 358,-147.96 386,-147.96 386,-166.46"/>
<text text-anchor="middle" x="372" y="-153.91" font-family="Times,serif" font-size="9.00">&#45;12</text>
</g>
<!-- &#45;12&#45;&gt;82 -->
<g id="edge43" class="edge">
<title>&#45;12&#45;&gt;82</title>
<path fill="none" stroke="red" stroke-width="0.22" d="M379.74,-147.65C383.87,-143.6 389.28,-139.07 395,-136.35 442.4,-113.77 598.41,-94.05 662.33,-86.72"/>
<polygon fill="red" stroke="red" stroke-width="0.22" points="662.58,-90.21 672.12,-85.61 661.79,-83.25 662.58,-90.21"/>
</g>
<!-- &#45;12&#45;&gt;83 -->
<g id="edge18" class="edge">
<title>&#45;12&#45;&gt;83</title>
<path fill="none" stroke="red" stroke-width="0.4" d="M372,-147.6C372,-138.63 372,-124.1 372,-111.15"/>
<polygon fill="red" stroke="red" stroke-width="0.4" points="375.5,-111.42 372,-101.42 368.5,-111.42 375.5,-111.42"/>
</g>
<!-- &#45;12&#45;&gt;84 -->
<g id="edge40" class="edge">
<title>&#45;12&#45;&gt;84</title>
<path fill="none" stroke="red" stroke-width="0.18" d="M357.6,-149.51C330.97,-137.13 273.71,-110.5 240.74,-95.17"/>
<polygon fill="red" stroke="red" stroke-width="0.18" points="242.53,-92.15 231.99,-91.1 239.58,-98.49 242.53,-92.15"/>
</g>
<!-- &#45;13 -->
<g id="node13" class="node">
<title>&#45;13</title>
<polygon fill="lightgray" stroke="black" points="570,-166.46 542,-166.46 542,-147.96 570,-147.96 570,-166.46"/>
<text text-anchor="middle" x="556" y="-153.91" font-family="Times,serif" font-size="9.00">&#45;13</text>
</g>
<!-- &#45;13&#45;&gt;81 -->
<g id="edge15" class="edge">
<title>&#45;13&#45;&gt;81</title>
<path fill="none" stroke="green" stroke-width="0.24" d="M547.81,-147.6C537.57,-136.83 519.72,-118.06 505.99,-103.64"/>
<polygon fill="green" stroke="green" stroke-width="0.24" points="508.55,-101.25 499.12,-96.41 503.48,-106.07 508.55,-101.25"/>
</g>
<!-- &#45;13&#45;&gt;82 -->
<g id="edge31" class="edge">
<title>&#45;13&#45;&gt;82</title>
<path fill="none" stroke="green" stroke-width="0.14" d="M564.95,-147.49C569.03,-143.78 574.05,-139.57 579,-136.35 606.52,-118.41 641.1,-102.99 664.28,-93.55"/>
<polygon fill="green" stroke="green" stroke-width="0.14" points="665.28,-96.92 673.27,-89.96 662.69,-90.42 665.28,-96.92"/>
</g>
<!-- &#45;13&#45;&gt;83 -->
<g id="edge36" class="edge">
<title>&#45;13&#45;&gt;83</title>
<path fill="none" stroke="red" stroke-width="0.42" d="M547.67,-147.58C543.55,-143.72 538.33,-139.36 533,-136.35 489.52,-111.78 432.89,-96.63 399.68,-89.21"/>
<polygon fill="red" stroke="red" stroke-width="0.42" points="400.5,-85.81 389.99,-87.12 399.02,-92.65 400.5,-85.81"/>
</g>
<!-- &#45;14 -->
<g id="node14" class="node">
<title>&#45;14</title>
<polygon fill="lightgray" stroke="black" points="302,-166.46 274,-166.46 274,-147.96 302,-147.96 302,-166.46"/>
<text text-anchor="middle" x="288" y="-153.91" font-family="Times,serif" font-size="9.00">&#45;14</text>
</g>
<!-- &#45;14&#45;&gt;82 -->
<g id="edge21" class="edge">
<title>&#45;14&#45;&gt;82</title>
<path fill="none" stroke="green" stroke-width="0.24" stroke-dasharray="1,5" d="M302.36,-150.8C314.6,-146.37 332.75,-140.22 349,-136.35 463.65,-109.02 603.5,-92.58 662.08,-86.44"/>
<polygon fill="green" stroke="green" stroke-width="0.24" points="662.11,-89.95 671.7,-85.45 661.39,-82.99 662.11,-89.95"/>
</g>
<!-- &#45;14&#45;&gt;83 -->
<g id="edge38" class="edge">
<title>&#45;14&#45;&gt;83</title>
<path fill="none" stroke="red" stroke-width="0.13" d="M297.97,-147.6C311.16,-136.21 334.72,-115.86 351.73,-101.17"/>
<polygon fill="red" stroke="red" stroke-width="0.13" points="353.59,-104.19 358.87,-95.01 349.01,-98.89 353.59,-104.19"/>
</g>
<!-- &#45;14&#45;&gt;84 -->
<g id="edge4" class="edge">
<title>&#45;14&#45;&gt;84</title>
<path fill="none" stroke="green" stroke-width="0.48" d="M279.46,-147.6C268.71,-136.77 249.92,-117.84 235.57,-103.38"/>
<polygon fill="green" stroke="green" stroke-width="0.48" points="238.17,-101.04 228.65,-96.41 233.21,-105.97 238.17,-101.04"/>
</g>
<!-- &#45;15 -->
<g id="node15" class="node">
<title>&#45;15</title>
<polygon fill="lightgray" stroke="black" points="524,-166.46 496,-166.46 496,-147.96 524,-147.96 524,-166.46"/>
<text text-anchor="middle" x="510" y="-153.91" font-family="Times,serif" font-size="9.00">&#45;15</text>
</g>
<!-- &#45;15&#45;&gt;81 -->
<g id="edge7" class="edge">
<title>&#45;15&#45;&gt;81</title>
<path fill="none" stroke="red" stroke-width="0.15" d="M507.27,-147.6C504.31,-138.27 499.45,-122.93 495.22,-109.61"/>
<polygon fill="red" stroke="red" stroke-width="0.15" points="498.59,-108.65 492.23,-100.18 491.92,-110.77 498.59,-108.65"/>
</g>
<!-- &#45;16 -->
<g id="node16" class="node">
<title>&#45;16</title>
<polygon fill="lightgray" stroke="black" points="28,-166.46 0,-166.46 0,-147.96 28,-147.96 28,-166.46"/>
<text text-anchor="middle" x="14" y="-153.91" font-family="Times,serif" font-size="9.00">&#45;16</text>
</g>
<!-- &#45;16&#45;&gt;84 -->
<g id="edge26" class="edge">
<title>&#45;16&#45;&gt;84</title>
<path fill="none" stroke="red" stroke-width="0.43" stroke-dasharray="1,5" d="M22.29,-147.51C26.4,-143.63 31.63,-139.28 37,-136.35 86.49,-109.36 151.4,-94.72 187.9,-88.11"/>
<polygon fill="red" stroke="red" stroke-width="0.43" points="188.37,-91.59 197.62,-86.43 187.17,-84.69 188.37,-91.59"/>
</g>
<!-- &#45;17 -->
<g id="node17" class="node">
<title>&#45;17</title>
<polygon fill="lightgray" stroke="black" points="432,-166.46 404,-166.46 404,-147.96 432,-147.96 432,-166.46"/>
<text text-anchor="middle" x="418" y="-153.91" font-family="Times,serif" font-size="9.00">&#45;17</text>
</g>
<!-- &#45;17&#45;&gt;81 -->
<g id="edge25" class="edge">
<title>&#45;17&#45;&gt;81</title>
<path fill="none" stroke="red" stroke-width="0.46" d="M426.19,-147.6C436.43,-136.83 454.28,-118.06 468.01,-103.64"/>
<polygon fill="red" stroke="red" stroke-width="0.46" points="470.3,-106.31 474.65,-96.65 465.22,-101.48 470.3,-106.31"/>
</g>
<!-- &#45;17&#45;&gt;83 -->
<g id="edge6" class="edge">
<title>&#45;17&#45;&gt;83</title>
<path fill="none" stroke="green" stroke-width="0.31" d="M412.54,-147.6C406.22,-137.63 395.53,-120.78 386.72,-106.88"/>
<polygon fill="green" stroke="green" stroke-width="0.31" points="389.83,-105.25 381.52,-98.68 383.92,-109 389.83,-105.25"/>
</g>
<!-- &#45;18 -->
<g id="node18" class="node">
<title>&#45;18</title>
<polygon fill="lightgray" stroke="black" points="478,-166.46 450,-166.46 450,-147.96 478,-147.96 478,-166.46"/>
<text text-anchor="middle" x="464" y="-153.91" font-family="Times,serif" font-size="9.00">&#45;18</text>
</g>
<!-- &#45;18&#45;&gt;81 -->
<g id="edge34" class="edge">
<title>&#45;18&#45;&gt;81</title>
<path fill="none" stroke="red" stroke-width="0.28" d="M466.73,-147.6C469.69,-138.27 474.55,-122.93 478.78,-109.61"/>
<polygon fill="red" stroke="red" stroke-width="0.28" points="482.02,-110.94 481.71,-100.35 475.35,-108.83 482.02,-110.94"/>
</g>
<!-- &#45;18&#45;&gt;83 -->
<g id="edge27" class="edge">
<title>&#45;18&#45;&gt;83</title>
<path fill="none" stroke="red" stroke-width="0.22" d="M454.26,-147.57C450.21,-144.03 445.42,-139.94 441,-136.35 425.5,-123.76 407.56,-110.09 393.86,-99.83"/>
<polygon fill="red" stroke="red" stroke-width="0.22" points="396.31,-97.29 386.2,-94.12 392.13,-102.9 396.31,-97.29"/>
</g>
<!-- &#45;19 -->
<g id="node19" class="node">
<title>&#45;19</title>
<polygon fill="lightgray" stroke="black" points="172,-166.46 144,-166.46 144,-147.96 172,-147.96 172,-166.46"/>
<text text-anchor="middle" x="158" y="-153.91" font-family="Times,serif" font-size="9.00">&#45;19</text>
</g>
<!-- &#45;19&#45;&gt;83 -->
<g id="edge20" class="edge">
<title>&#45;19&#45;&gt;83</title>
<path fill="none" stroke="green" stroke-width="0.38" d="M166.27,-147.47C170.37,-143.58 175.6,-139.23 181,-136.35 234.57,-107.73 305.11,-93.53 343.72,-87.47"/>
<polygon fill="green" stroke="green" stroke-width="0.38" points="344.24,-90.93 353.61,-85.99 343.2,-84.01 344.24,-90.93"/>
</g>
<!-- &#45;19&#45;&gt;84 -->
<g id="edge41" class="edge">
<title>&#45;19&#45;&gt;84</title>
<path fill="none" stroke="red" stroke-width="0.26" d="M164.88,-147.6C173.21,-137.19 187.53,-119.28 198.9,-105.06"/>
<polygon fill="red" stroke="red" stroke-width="0.26" points="201.42,-107.5 204.94,-97.51 195.96,-103.13 201.42,-107.5"/>
</g>
<!-- &#45;20 -->
<g id="node20" class="node">
<title>&#45;20</title>
<polygon fill="lightgray" stroke="black" points="704,-166.46 676,-166.46 676,-147.96 704,-147.96 704,-166.46"/>
<text text-anchor="middle" x="690" y="-153.91" font-family="Times,serif" font-size="9.00">&#45;20</text>
</g>
<!-- &#45;20&#45;&gt;81 -->
<g id="edge10" class="edge">
<title>&#45;20&#45;&gt;81</title>
<path fill="none" stroke="green" stroke-width="0.4" d="M681.71,-147.51C677.6,-143.62 672.38,-139.27 667,-136.35 617.11,-109.19 551.63,-94.58 514.97,-88.03"/>
<polygon fill="green" stroke="green" stroke-width="0.4" points="515.61,-84.59 505.17,-86.36 514.43,-91.49 515.61,-84.59"/>
</g>
<!-- &#45;20&#45;&gt;82 -->
<g id="edge33" class="edge">
<title>&#45;20&#45;&gt;82</title>
<path fill="none" stroke="red" stroke-width="0.24" d="M690,-147.6C690,-138.63 690,-124.1 690,-111.15"/>
<polygon fill="red" stroke="red" stroke-width="0.24" points="693.5,-111.18 690,-101.18 686.5,-111.18 693.5,-111.18"/>
</g>
<!-- 0 -->
<g id="node21" class="node">
<title>0</title>
<ellipse fill="lightblue" stroke="black" cx="271" cy="-14.5" rx="14.5" ry="14.5"/>
<text text-anchor="middle" x="271" y="-11.2" font-family="Times,serif" font-size="9.00">0</text>
</g>
<!-- 0&#45;&gt;0 -->
<g id="edge9" class="edge">
<title>0&#45;&gt;0</title>
<path fill="none" stroke="red" stroke-width="0.18" d="M281.65,-24.65C292.06,-30.26 303.5,-26.88 303.5,-14.5 303.5,-5.98 298.09,-1.72 291.33,-1.71"/>
<polygon fill="red" stroke="red" stroke-width="0.18" points="290.64,1.73 281.91,-4.27 292.48,-5.03 290.64,1.73"/>
</g>
<!-- 1 -->
<g id="node22" class="node">
<title>1</title>
<ellipse fill="lightblue" stroke="black" cx="365" cy="-14.5" rx="14.5" ry="14.5"/>
<text text-anchor="middle" x="365" y="-11.2" font-family="Times,serif" font-size="9.00">1</text>
</g>
<!-- 2 -->
<g id="node23" class="node">
<title>2</title>
<ellipse fill="lightblue" stroke="black" cx="216" cy="-14.5" rx="14.5" ry="14.5"/>
<text text-anchor="middle" x="216" y="-11.2" font-family="Times,serif" font-size="9.00">2</text>
</g>
<!-- 3 -->
<g id="node24" class="node">
<title>3</title>
<ellipse fill="lightblue" stroke="black" cx="412" cy="-14.5" rx="14.5" ry="14.5"/>
<text text-anchor="middle" x="412" y="-11.2" font-family="Times,serif" font-size="9.00">3</text>
</g>
<!-- 4 -->
<g id="node25" class="node">
<title>4</title>
<ellipse fill="lightblue" stroke="black" cx="202" cy="-228.56" rx="14.5" ry="14.5"/>
<text text-anchor="middle" x="202" y="-225.26" font-family="Times,serif" font-size="9.00">4</text>
</g>
<!-- 81&#45;&gt;3 -->
<g id="edge12" class="edge">
<title>81&#45;&gt;3</title>
<path fill="none" stroke="red" stroke-width="0.32" d="M473.94,-70.14C461.84,-59.47 443.74,-43.5 430.22,-31.58"/>
<polygon fill="red" stroke="red" stroke-width="0.32" points="432.67,-29.07 422.86,-25.08 428.04,-34.32 432.67,-29.07"/>
</g>
<!-- 83&#45;&gt;0 -->
<g id="edge24" class="edge">
<title>83&#45;&gt;0</title>
<path fill="none" stroke="green" stroke-width="0.29" stroke-dasharray="1,5" d="M357.53,-72.19C340.2,-60.83 311.06,-41.74 291.44,-28.89"/>
<polygon fill="green" stroke="green" stroke-width="0.29" points="293.58,-26.1 283.29,-23.55 289.74,-31.96 293.58,-26.1"/>
</g>
<!-- 83&#45;&gt;1 -->
<g id="edge2" class="edge">
<title>83&#45;&gt;1</title>
<path fill="none" stroke="green" stroke-width="0.19" d="M370.2,-64.63C369.38,-56.87 368.39,-47.57 367.5,-39.15"/>
<polygon fill="green" stroke="green" stroke-width="0.19" points="371.01,-39.01 366.47,-29.43 364.05,-39.74 371.01,-39.01"/>
</g>
<!-- 83&#45;&gt;3 -->
<g id="edge42" class="edge">
<title>83&#45;&gt;3</title>
<path fill="none" stroke="green" stroke-width="0.27" d="M380.88,-66.98C386.32,-57.98 393.37,-46.31 399.39,-36.36"/>
<polygon fill="green" stroke="green" stroke-width="0.27" points="402.36,-38.21 404.54,-27.84 396.37,-34.59 402.36,-38.21"/>
</g>
<!-- 84&#45;&gt;0 -->
<g id="edge37" class="edge">
<title>84&#45;&gt;0</title>
<path fill="none" stroke="green" stroke-width="0.25" d="M226.87,-68.6C235.05,-58.75 246.38,-45.12 255.51,-34.13"/>
<polygon fill="green" stroke="green" stroke-width="0.25" points="258.03,-36.57 261.73,-26.64 252.65,-32.1 258.03,-36.57"/>
</g>
<!-- 84&#45;&gt;2 -->
<g id="edge32" class="edge">
<title>84&#45;&gt;2</title>
<path fill="none" stroke="green" stroke-width="0.21" stroke-dasharray="1,5" d="M216,-64.63C216,-56.96 216,-47.77 216,-39.43"/>
<polygon fill="green" stroke="green" stroke-width="0.21" points="219.5,-39.46 216,-29.46 212.5,-39.46 219.5,-39.46"/>
</g>
<!-- 84&#45;&gt;3 -->
<g id="edge8" class="edge">
<title>84&#45;&gt;3</title>
<path fill="none" stroke="green" stroke-width="0.68" d="M233.03,-77.75C264.41,-70.24 333.17,-52.48 388,-28.99 388.76,-28.67 389.52,-28.32 390.29,-27.97"/>
<polygon fill="green" stroke="green" stroke-width="0.68" points="391.88,-31.09 399.13,-23.36 388.65,-24.88 391.88,-31.09"/>
</g>
<!-- 252&#45;&gt;84 -->
<g id="edge45" class="edge">
<title>252&#45;&gt;84</title>
<path fill="none" stroke="green" stroke-width="0.37" d="M84.65,-145.81C90.15,-142.67 96.28,-139.28 102,-136.35 131.9,-120.99 167.14,-105.02 190.44,-94.75"/>
<polygon fill="green" stroke="green" stroke-width="0.37" points="191.68,-98.03 199.43,-90.81 188.86,-91.62 191.68,-98.03"/>
</g>
</g>
</svg>
