<?xml version="1.0" encoding="UTF-8" standalone="no"?>
<!DOCTYPE svg PUBLIC "-//W3C//DTD SVG 1.1//EN"
 "http://www.w3.org/Graphics/SVG/1.1/DTD/svg11.dtd">
<!-- Generated by graphviz version 12.1.1 (20240910.0053)
 -->
<!-- Pages: 1 -->
<svg width="920pt" height="173pt"
 viewBox="0.00 0.00 920.25 173.34" xmlns="http://www.w3.org/2000/svg" xmlns:xlink="http://www.w3.org/1999/xlink">
<g id="graph0" class="graph" transform="scale(1 1) rotate(0) translate(4 169.34)">
<polygon fill="white" stroke="none" points="-4,4 -4,-169.34 916.25,-169.34 916.25,4 -4,4"/>
<!-- &#45;1 -->
<g id="node1" class="node">
<title>&#45;1</title>
<polygon fill="lightgray" stroke="black" points="23.5,-160.09 0,-160.09 0,-141.59 23.5,-141.59 23.5,-160.09"/>
<text text-anchor="middle" x="11.75" y="-147.54" font-family="Times,serif" font-size="9.00">&#45;1</text>
</g>
<!-- 89 -->
<g id="node26" class="node">
<title>89</title>
<ellipse fill="white" stroke="black" cx="201.75" cy="-82.67" rx="17.68" ry="17.68"/>
<text text-anchor="middle" x="201.75" y="-79.37" font-family="Times,serif" font-size="9.00">89</text>
</g>
<!-- &#45;1&#45;&gt;89 -->
<g id="edge37" class="edge">
<title>&#45;1&#45;&gt;89</title>
<path fill="none" stroke="red" stroke-width="0.12" d="M23.87,-141.27C26.7,-139.5 29.77,-137.74 32.75,-136.35 80.7,-113.97 140.6,-97.86 174.69,-89.71"/>
<polygon fill="red" stroke="red" stroke-width="0.12" points="175.28,-93.17 184.22,-87.48 173.69,-86.35 175.28,-93.17"/>
</g>
<!-- &#45;2 -->
<g id="node2" class="node">
<title>&#45;2</title>
<polygon fill="lightgray" stroke="black" points="65.5,-160.09 42,-160.09 42,-141.59 65.5,-141.59 65.5,-160.09"/>
<text text-anchor="middle" x="53.75" y="-147.54" font-family="Times,serif" font-size="9.00">&#45;2</text>
</g>
<!-- &#45;2&#45;&gt;89 -->
<g id="edge24" class="edge">
<title>&#45;2&#45;&gt;89</title>
<path fill="none" stroke="green" stroke-width="0.11" d="M65.97,-141.47C68.8,-139.68 71.83,-137.87 74.75,-136.35 108.54,-118.66 149.63,-102.53 175.74,-92.9"/>
<polygon fill="green" stroke="green" stroke-width="0.11" points="176.93,-96.19 185.13,-89.48 174.54,-89.62 176.93,-96.19"/>
</g>
<!-- &#45;3 -->
<g id="node3" class="node">
<title>&#45;3</title>
<polygon fill="lightgray" stroke="black" points="371.5,-160.09 348,-160.09 348,-141.59 371.5,-141.59 371.5,-160.09"/>
<text text-anchor="middle" x="359.75" y="-147.54" font-family="Times,serif" font-size="9.00">&#45;3</text>
</g>
<!-- &#45;3&#45;&gt;89 -->
<g id="edge13" class="edge">
<title>&#45;3&#45;&gt;89</title>
<path fill="none" stroke="green" stroke-width="0.36" d="M347.56,-141.42C344.73,-139.63 341.69,-137.84 338.75,-136.35 301.87,-117.65 256.7,-101.49 228.57,-92.16"/>
<polygon fill="green" stroke="green" stroke-width="0.36" points="229.79,-88.88 219.19,-89.1 227.61,-95.54 229.79,-88.88"/>
</g>
<!-- 90 -->
<g id="node27" class="node">
<title>90</title>
<ellipse fill="white" stroke="black" cx="403.75" cy="-82.67" rx="17.68" ry="17.68"/>
<text text-anchor="middle" x="403.75" y="-79.37" font-family="Times,serif" font-size="9.00">90</text>
</g>
<!-- &#45;3&#45;&gt;90 -->
<g id="edge34" class="edge">
<title>&#45;3&#45;&gt;90</title>
<path fill="none" stroke="green" stroke-width="0.16" d="M365.5,-141.19C371.39,-132.34 380.78,-118.22 388.78,-106.18"/>
<polygon fill="green" stroke="green" stroke-width="0.16" points="391.54,-108.35 394.16,-98.08 385.71,-104.47 391.54,-108.35"/>
</g>
<!-- 91 -->
<g id="node28" class="node">
<title>91</title>
<ellipse fill="white" stroke="black" cx="615.75" cy="-82.67" rx="17.68" ry="17.68"/>
<text text-anchor="middle" x="615.75" y="-79.37" font-family="Times,serif" font-size="9.00">91</text>
</g>
<!-- &#45;3&#45;&gt;91 -->
<g id="edge9" class="edge">
<title>&#45;3&#45;&gt;91</title>
<path fill="none" stroke="green" stroke-width="0.2" d="M371.31,-141.3C374.27,-139.43 377.53,-137.63 380.75,-136.35 460.59,-104.53 487.94,-123.36 570.75,-100.35 577.18,-98.56 583.99,-96.26 590.31,-93.94"/>
<polygon fill="green" stroke="green" stroke-width="0.2" points="591.34,-97.29 599.44,-90.46 588.85,-90.75 591.34,-97.29"/>
</g>
<!-- &#45;4 -->
<g id="node4" class="node">
<title>&#45;4</title>
<polygon fill="lightgray" stroke="black" points="459.5,-160.09 436,-160.09 436,-141.59 459.5,-141.59 459.5,-160.09"/>
<text text-anchor="middle" x="447.75" y="-147.54" font-family="Times,serif" font-size="9.00">&#45;4</text>
</g>
<!-- &#45;4&#45;&gt;90 -->
<g id="edge5" class="edge">
<title>&#45;4&#45;&gt;90</title>
<path fill="none" stroke="red" stroke-width="0.2" d="M442,-141.19C436.11,-132.34 426.72,-118.22 418.72,-106.18"/>
<polygon fill="red" stroke="red" stroke-width="0.2" points="421.82,-104.53 413.37,-98.14 415.99,-108.4 421.82,-104.53"/>
</g>
<!-- 92 -->
<g id="node29" class="node">
<title>92</title>
<ellipse fill="white" stroke="black" cx="543.75" cy="-82.67" rx="17.68" ry="17.68"/>
<text text-anchor="middle" x="543.75" y="-79.37" font-family="Times,serif" font-size="9.00">92</text>
</g>
<!-- &#45;4&#45;&gt;92 -->
<g id="edge15" class="edge">
<title>&#45;4&#45;&gt;92</title>
<path fill="none" stroke="green" stroke-width="0.42" d="M459.91,-141.46C475.17,-130.94 501.66,-112.68 520.79,-99.49"/>
<polygon fill="green" stroke="green" stroke-width="0.42" points="522.73,-102.41 528.98,-93.85 518.76,-96.64 522.73,-102.41"/>
</g>
<!-- &#45;5 -->
<g id="node5" class="node">
<title>&#45;5</title>
<polygon fill="lightgray" stroke="black" points="501.5,-160.09 478,-160.09 478,-141.59 501.5,-141.59 501.5,-160.09"/>
<text text-anchor="middle" x="489.75" y="-147.54" font-family="Times,serif" font-size="9.00">&#45;5</text>
</g>
<!-- &#45;5&#45;&gt;90 -->
<g id="edge8" class="edge">
<title>&#45;5&#45;&gt;90</title>
<path fill="none" stroke="red" stroke-width="0.2" d="M478.51,-141.19C465.05,-130.83 442.21,-113.26 425.31,-100.26"/>
<polygon fill="red" stroke="red" stroke-width="0.2" points="427.85,-97.8 417.79,-94.47 423.58,-103.35 427.85,-97.8"/>
</g>
<!-- &#45;5&#45;&gt;92 -->
<g id="edge38" class="edge">
<title>&#45;5&#45;&gt;92</title>
<path fill="none" stroke="red" stroke-width="0.1" d="M496.81,-141.19C504.31,-132 516.46,-117.11 526.52,-104.78"/>
<polygon fill="red" stroke="red" stroke-width="0.1" points="529.05,-107.22 532.66,-97.26 523.62,-102.8 529.05,-107.22"/>
</g>
<!-- &#45;6 -->
<g id="node6" class="node">
<title>&#45;6</title>
<polygon fill="lightgray" stroke="black" points="191.5,-160.09 168,-160.09 168,-141.59 191.5,-141.59 191.5,-160.09"/>
<text text-anchor="middle" x="179.75" y="-147.54" font-family="Times,serif" font-size="9.00">&#45;6</text>
</g>
<!-- &#45;6&#45;&gt;89 -->
<g id="edge43" class="edge">
<title>&#45;6&#45;&gt;89</title>
<path fill="none" stroke="red" stroke-width="0.62" d="M182.63,-141.19C185.26,-133.28 189.29,-121.16 192.97,-110.08"/>
<polygon fill="red" stroke="red" stroke-width="0.62" points="196.21,-111.43 196.04,-100.84 189.57,-109.22 196.21,-111.43"/>
</g>
<!-- &#45;6&#45;&gt;90 -->
<g id="edge10" class="edge">
<title>&#45;6&#45;&gt;90</title>
<path fill="none" stroke="red" stroke-width="0.29" d="M191.82,-141.17C194.66,-139.39 197.73,-137.67 200.75,-136.35 260.48,-110.2 335.98,-94.86 375.96,-88"/>
<polygon fill="red" stroke="red" stroke-width="0.29" points="376.3,-91.49 385.59,-86.4 375.15,-84.59 376.3,-91.49"/>
</g>
<!-- &#45;7 -->
<g id="node7" class="node">
<title>&#45;7</title>
<polygon fill="lightgray" stroke="black" points="149.5,-160.09 126,-160.09 126,-141.59 149.5,-141.59 149.5,-160.09"/>
<text text-anchor="middle" x="137.75" y="-147.54" font-family="Times,serif" font-size="9.00">&#45;7</text>
</g>
<!-- &#45;7&#45;&gt;89 -->
<g id="edge36" class="edge">
<title>&#45;7&#45;&gt;89</title>
<path fill="none" stroke="green" stroke-width="0.2" d="M146.12,-141.19C155.32,-131.68 170.42,-116.07 182.56,-103.51"/>
<polygon fill="green" stroke="green" stroke-width="0.2" points="185.02,-106.01 189.45,-96.38 179.98,-101.14 185.02,-106.01"/>
</g>
<!-- &#45;7&#45;&gt;90 -->
<g id="edge7" class="edge">
<title>&#45;7&#45;&gt;90</title>
<path fill="none" stroke="green" stroke-width="0.13" d="M149.34,-141.35C152.29,-139.48 155.55,-137.67 158.75,-136.35 233.74,-105.39 329.48,-91.58 375.95,-86.37"/>
<polygon fill="green" stroke="green" stroke-width="0.13" points="376.12,-89.87 385.69,-85.32 375.37,-82.91 376.12,-89.87"/>
</g>
<!-- &#45;8 -->
<g id="node8" class="node">
<title>&#45;8</title>
<polygon fill="lightgray" stroke="black" points="107.5,-160.09 84,-160.09 84,-141.59 107.5,-141.59 107.5,-160.09"/>
<text text-anchor="middle" x="95.75" y="-147.54" font-family="Times,serif" font-size="9.00">&#45;8</text>
</g>
<!-- &#45;8&#45;&gt;89 -->
<g id="edge20" class="edge">
<title>&#45;8&#45;&gt;89</title>
<path fill="none" stroke="green" stroke-width="0.11" d="M107.72,-142.1C110.67,-140.21 113.82,-138.2 116.75,-136.35 137.63,-123.17 161.54,-108.38 178.67,-97.83"/>
<polygon fill="green" stroke="green" stroke-width="0.11" points="180.13,-101.04 186.82,-92.82 176.46,-95.08 180.13,-101.04"/>
</g>
<!-- &#45;9 -->
<g id="node9" class="node">
<title>&#45;9</title>
<polygon fill="lightgray" stroke="black" points="727.5,-160.09 704,-160.09 704,-141.59 727.5,-141.59 727.5,-160.09"/>
<text text-anchor="middle" x="715.75" y="-147.54" font-family="Times,serif" font-size="9.00">&#45;9</text>
</g>
<!-- &#45;9&#45;&gt;91 -->
<g id="edge39" class="edge">
<title>&#45;9&#45;&gt;91</title>
<path fill="none" stroke="green" stroke-width="0.18" d="M703.89,-141.99C687.84,-131.37 658.9,-112.22 638.57,-98.77"/>
<polygon fill="green" stroke="green" stroke-width="0.18" points="640.68,-95.97 630.41,-93.37 636.82,-101.81 640.68,-95.97"/>
</g>
<!-- &#45;9&#45;&gt;92 -->
<g id="edge30" class="edge">
<title>&#45;9&#45;&gt;92</title>
<path fill="none" stroke="green" stroke-width="0.2" d="M703.6,-141.33C700.77,-139.55 697.72,-137.78 694.75,-136.35 649.93,-114.74 635.64,-116.99 588.75,-100.35 582.57,-98.15 575.93,-95.73 569.7,-93.43"/>
<polygon fill="green" stroke="green" stroke-width="0.2" points="571.26,-90.27 560.67,-90.06 568.82,-96.83 571.26,-90.27"/>
</g>
<!-- &#45;10 -->
<g id="node10" class="node">
<title>&#45;10</title>
<polygon fill="lightgray" stroke="black" points="819.75,-160.09 791.75,-160.09 791.75,-141.59 819.75,-141.59 819.75,-160.09"/>
<text text-anchor="middle" x="805.75" y="-147.54" font-family="Times,serif" font-size="9.00">&#45;10</text>
</g>
<!-- &#45;10&#45;&gt;91 -->
<g id="edge26" class="edge">
<title>&#45;10&#45;&gt;91</title>
<path fill="none" stroke="green" stroke-width="0.25" d="M792.4,-141.33C789.3,-139.55 785.97,-137.78 782.75,-136.35 735.12,-115.18 676.38,-98.74 642.78,-90.19"/>
<polygon fill="green" stroke="green" stroke-width="0.25" points="643.72,-86.81 633.17,-87.78 642.02,-93.6 643.72,-86.81"/>
</g>
<!-- &#45;11 -->
<g id="node11" class="node">
<title>&#45;11</title>
<polygon fill="lightgray" stroke="black" points="237.75,-160.09 209.75,-160.09 209.75,-141.59 237.75,-141.59 237.75,-160.09"/>
<text text-anchor="middle" x="223.75" y="-147.54" font-family="Times,serif" font-size="9.00">&#45;11</text>
</g>
<!-- &#45;11&#45;&gt;89 -->
<g id="edge29" class="edge">
<title>&#45;11&#45;&gt;89</title>
<path fill="none" stroke="green" stroke-width="0.32" d="M220.87,-141.19C218.22,-133.2 214.13,-120.91 210.42,-109.73"/>
<polygon fill="green" stroke="green" stroke-width="0.32" points="213.79,-108.79 207.31,-100.4 207.15,-111 213.79,-108.79"/>
</g>
<!-- &#45;11&#45;&gt;92 -->
<g id="edge42" class="edge">
<title>&#45;11&#45;&gt;92</title>
<path fill="none" stroke="red" stroke-width="0.21" d="M236.49,-141.29C239.73,-139.43 243.27,-137.63 246.75,-136.35 271.94,-127.06 447.29,-98.86 516.11,-88"/>
<polygon fill="red" stroke="red" stroke-width="0.21" points="516.56,-91.47 525.9,-86.46 515.48,-84.56 516.56,-91.47"/>
</g>
<!-- &#45;12 -->
<g id="node12" class="node">
<title>&#45;12</title>
<polygon fill="lightgray" stroke="black" points="329.75,-160.09 301.75,-160.09 301.75,-141.59 329.75,-141.59 329.75,-160.09"/>
<text text-anchor="middle" x="315.75" y="-147.54" font-family="Times,serif" font-size="9.00">&#45;12</text>
</g>
<!-- &#45;12&#45;&gt;89 -->
<g id="edge27" class="edge">
<title>&#45;12&#45;&gt;89</title>
<path fill="none" stroke="red" stroke-width="0.18" d="M301.65,-141.55C298.71,-139.83 295.63,-138.03 292.75,-136.35 270.05,-123.12 244.12,-108.12 225.75,-97.51"/>
<polygon fill="red" stroke="red" stroke-width="0.18" points="227.54,-94.5 217.13,-92.54 224.04,-100.57 227.54,-94.5"/>
</g>
<!-- &#45;12&#45;&gt;90 -->
<g id="edge14" class="edge">
<title>&#45;12&#45;&gt;90</title>
<path fill="none" stroke="red" stroke-width="0.34" d="M327.25,-141.19C340.98,-130.87 364.24,-113.38 381.52,-100.39"/>
<polygon fill="red" stroke="red" stroke-width="0.34" points="383.62,-103.19 389.51,-94.38 379.41,-97.59 383.62,-103.19"/>
</g>
<!-- &#45;12&#45;&gt;92 -->
<g id="edge22" class="edge">
<title>&#45;12&#45;&gt;92</title>
<path fill="none" stroke="red" stroke-width="0.16" d="M329.05,-141.2C332.15,-139.42 335.5,-137.69 338.75,-136.35 399.74,-111.2 476.01,-95.41 516.13,-88.23"/>
<polygon fill="red" stroke="red" stroke-width="0.16" points="516.73,-91.68 525.98,-86.51 515.53,-84.78 516.73,-91.68"/>
</g>
<!-- &#45;13 -->
<g id="node13" class="node">
<title>&#45;13</title>
<polygon fill="lightgray" stroke="black" points="547.75,-160.09 519.75,-160.09 519.75,-141.59 547.75,-141.59 547.75,-160.09"/>
<text text-anchor="middle" x="533.75" y="-147.54" font-family="Times,serif" font-size="9.00">&#45;13</text>
</g>
<!-- &#45;13&#45;&gt;92 -->
<g id="edge23" class="edge">
<title>&#45;13&#45;&gt;92</title>
<path fill="none" stroke="green" stroke-width="0.14" d="M535.06,-141.19C536.24,-133.39 538.04,-121.48 539.69,-110.52"/>
<polygon fill="green" stroke="green" stroke-width="0.14" points="543.15,-111.09 541.18,-100.68 536.22,-110.04 543.15,-111.09"/>
</g>
<!-- &#45;14 -->
<g id="node14" class="node">
<title>&#45;14</title>
<polygon fill="lightgray" stroke="black" points="773.75,-160.09 745.75,-160.09 745.75,-141.59 773.75,-141.59 773.75,-160.09"/>
<text text-anchor="middle" x="759.75" y="-147.54" font-family="Times,serif" font-size="9.00">&#45;14</text>
</g>
<!-- &#45;14&#45;&gt;91 -->
<g id="edge25" class="edge">
<title>&#45;14&#45;&gt;91</title>
<path fill="none" stroke="green" stroke-width="0.13" d="M745.79,-141.29C742.84,-139.59 739.72,-137.86 736.75,-136.35 704.62,-120 666.29,-103.85 641.5,-93.83"/>
<polygon fill="green" stroke="green" stroke-width="0.13" points="642.85,-90.6 632.27,-90.13 640.25,-97.1 642.85,-90.6"/>
</g>
<!-- &#45;15 -->
<g id="node15" class="node">
<title>&#45;15</title>
<polygon fill="lightgray" stroke="black" points="593.75,-160.09 565.75,-160.09 565.75,-141.59 593.75,-141.59 593.75,-160.09"/>
<text text-anchor="middle" x="579.75" y="-147.54" font-family="Times,serif" font-size="9.00">&#45;15</text>
</g>
<!-- &#45;15&#45;&gt;89 -->
<g id="edge1" class="edge">
<title>&#45;15&#45;&gt;89</title>
<path fill="none" stroke="green" stroke-width="0.24" d="M567.04,-141.22C563.8,-139.36 560.24,-137.58 556.75,-136.35 496.11,-114.97 302.48,-93.82 229.73,-86.43"/>
<polygon fill="green" stroke="green" stroke-width="0.24" points="230.17,-82.95 219.87,-85.44 229.47,-89.92 230.17,-82.95"/>
</g>
<!-- &#45;15&#45;&gt;91 -->
<g id="edge40" class="edge">
<title>&#45;15&#45;&gt;91</title>
<path fill="none" stroke="green" stroke-width="0.12" d="M584.46,-141.19C589.09,-132.68 596.37,-119.29 602.75,-107.56"/>
<polygon fill="green" stroke="green" stroke-width="0.12" points="605.81,-109.27 607.51,-98.81 599.66,-105.92 605.81,-109.27"/>
</g>
<!-- &#45;15&#45;&gt;92 -->
<g id="edge35" class="edge">
<title>&#45;15&#45;&gt;92</title>
<path fill="none" stroke="red" stroke-width="0.46" d="M575.04,-141.19C570.46,-132.76 563.27,-119.55 556.94,-107.91"/>
<polygon fill="red" stroke="red" stroke-width="0.46" points="560.08,-106.37 552.23,-99.26 553.94,-109.72 560.08,-106.37"/>
</g>
<!-- &#45;16 -->
<g id="node16" class="node">
<title>&#45;16</title>
<polygon fill="lightgray" stroke="black" points="685.75,-160.09 657.75,-160.09 657.75,-141.59 685.75,-141.59 685.75,-160.09"/>
<text text-anchor="middle" x="671.75" y="-147.54" font-family="Times,serif" font-size="9.00">&#45;16</text>
</g>
<!-- &#45;16&#45;&gt;90 -->
<g id="edge19" class="edge">
<title>&#45;16&#45;&gt;90</title>
<path fill="none" stroke="red" stroke-width="0.21" d="M658.49,-141.1C655.39,-139.33 652.03,-137.62 648.75,-136.35 609.03,-120.89 486.59,-98.23 431.32,-88.45"/>
<polygon fill="red" stroke="red" stroke-width="0.21" points="431.98,-85.02 421.53,-86.73 430.77,-91.91 431.98,-85.02"/>
</g>
<!-- &#45;16&#45;&gt;91 -->
<g id="edge18" class="edge">
<title>&#45;16&#45;&gt;91</title>
<path fill="none" stroke="green" stroke-width="0.19" d="M664.43,-141.19C656.55,-131.88 643.73,-116.74 633.23,-104.32"/>
<polygon fill="green" stroke="green" stroke-width="0.19" points="636.05,-102.24 626.92,-96.87 630.71,-106.76 636.05,-102.24"/>
</g>
<!-- &#45;16&#45;&gt;92 -->
<g id="edge32" class="edge">
<title>&#45;16&#45;&gt;92</title>
<path fill="none" stroke="red" stroke-width="0.18" d="M657.72,-141.42C654.78,-139.7 651.68,-137.94 648.75,-136.35 621.71,-121.65 590.07,-105.98 568.64,-95.59"/>
<polygon fill="red" stroke="red" stroke-width="0.18" points="570.34,-92.52 559.81,-91.32 567.3,-98.82 570.34,-92.52"/>
</g>
<!-- &#45;17 -->
<g id="node17" class="node">
<title>&#45;17</title>
<polygon fill="lightgray" stroke="black" points="283.75,-160.09 255.75,-160.09 255.75,-141.59 283.75,-141.59 283.75,-160.09"/>
<text text-anchor="middle" x="269.75" y="-147.54" font-family="Times,serif" font-size="9.00">&#45;17</text>
</g>
<!-- &#45;17&#45;&gt;90 -->
<g id="edge11" class="edge">
<title>&#45;17&#45;&gt;90</title>
<path fill="none" stroke="red" stroke-width="0.17" d="M283.75,-141.37C286.7,-139.66 289.8,-137.91 292.75,-136.35 321.65,-121.05 355.75,-105.18 378.45,-94.91"/>
<polygon fill="red" stroke="red" stroke-width="0.17" points="379.8,-98.14 387.49,-90.85 376.93,-91.76 379.8,-98.14"/>
</g>
<!-- &#45;18 -->
<g id="node18" class="node">
<title>&#45;18</title>
<polygon fill="lightgray" stroke="black" points="865.75,-160.09 837.75,-160.09 837.75,-141.59 865.75,-141.59 865.75,-160.09"/>
<text text-anchor="middle" x="851.75" y="-147.54" font-family="Times,serif" font-size="9.00">&#45;18</text>
</g>
<!-- &#45;19 -->
<g id="node19" class="node">
<title>&#45;19</title>
<polygon fill="lightgray" stroke="black" points="639.75,-160.09 611.75,-160.09 611.75,-141.59 639.75,-141.59 639.75,-160.09"/>
<text text-anchor="middle" x="625.75" y="-147.54" font-family="Times,serif" font-size="9.00">&#45;19</text>
</g>
<!-- &#45;19&#45;&gt;90 -->
<g id="edge16" class="edge">
<title>&#45;19&#45;&gt;90</title>
<path fill="none" stroke="green" stroke-width="0.34" d="M612.45,-141.22C609.34,-139.44 606,-137.7 602.75,-136.35 543.95,-111.85 470.56,-95.93 431.4,-88.52"/>
<polygon fill="green" stroke="green" stroke-width="0.34" points="432.27,-85.12 421.8,-86.74 431,-92 432.27,-85.12"/>
</g>
<!-- &#45;19&#45;&gt;91 -->
<g id="edge2" class="edge">
<title>&#45;19&#45;&gt;91</title>
<path fill="none" stroke="green" stroke-width="0.31" d="M624.44,-141.19C623.26,-133.39 621.46,-121.48 619.81,-110.52"/>
<polygon fill="green" stroke="green" stroke-width="0.31" points="623.32,-110.31 618.36,-100.94 616.39,-111.35 623.32,-110.31"/>
</g>
<!-- &#45;19&#45;&gt;92 -->
<g id="edge31" class="edge">
<title>&#45;19&#45;&gt;92</title>
<path fill="none" stroke="red" stroke-width="0.19" d="M615.03,-141.19C602.39,-130.99 581.06,-113.78 565.03,-100.84"/>
<polygon fill="red" stroke="red" stroke-width="0.19" points="567.4,-98.26 557.42,-94.7 563.01,-103.71 567.4,-98.26"/>
</g>
<!-- &#45;20 -->
<g id="node20" class="node">
<title>&#45;20</title>
<polygon fill="lightgray" stroke="black" points="417.75,-160.09 389.75,-160.09 389.75,-141.59 417.75,-141.59 417.75,-160.09"/>
<text text-anchor="middle" x="403.75" y="-147.54" font-family="Times,serif" font-size="9.00">&#45;20</text>
</g>
<!-- &#45;20&#45;&gt;89 -->
<g id="edge28" class="edge">
<title>&#45;20&#45;&gt;89</title>
<path fill="none" stroke="green" stroke-width="0.23" d="M390.42,-141.28C387.32,-139.5 383.98,-137.74 380.75,-136.35 328.93,-113.92 264.7,-97.61 228.98,-89.49"/>
<polygon fill="green" stroke="green" stroke-width="0.23" points="230.14,-86.16 219.62,-87.4 228.62,-92.99 230.14,-86.16"/>
</g>
<!-- &#45;20&#45;&gt;91 -->
<g id="edge12" class="edge">
<title>&#45;20&#45;&gt;91</title>
<path fill="none" stroke="red" stroke-width="0.32" d="M417.04,-141.18C420.14,-139.41 423.49,-137.68 426.75,-136.35 487.82,-111.4 507.73,-119.84 570.75,-100.35 577.12,-98.38 583.91,-96.01 590.23,-93.68"/>
<polygon fill="red" stroke="red" stroke-width="0.32" points="591.08,-97.1 599.2,-90.3 588.6,-90.55 591.08,-97.1"/>
</g>
<!-- 0 -->
<g id="node21" class="node">
<title>0</title>
<ellipse fill="lightblue" stroke="black" cx="201.75" cy="-14.5" rx="14.5" ry="14.5"/>
<text text-anchor="middle" x="201.75" y="-11.2" font-family="Times,serif" font-size="9.00">0</text>
</g>
<!-- 0&#45;&gt;0 -->
<g id="edge41" class="edge">
<title>0&#45;&gt;0</title>
<path fill="none" stroke="red" stroke-width="0.14" d="M212.4,-24.65C222.81,-30.26 234.25,-26.88 234.25,-14.5 234.25,-5.98 228.84,-1.72 222.08,-1.71"/>
<polygon fill="red" stroke="red" stroke-width="0.14" points="221.33,1.71 212.6,-4.28 223.17,-5.04 221.33,1.71"/>
</g>
<!-- 1 -->
<g id="node22" class="node">
<title>1</title>
<ellipse fill="lightblue" stroke="black" cx="897.75" cy="-150.84" rx="14.5" ry="14.5"/>
<text text-anchor="middle" x="897.75" y="-147.54" font-family="Times,serif" font-size="9.00">1</text>
</g>
<!-- 2 -->
<g id="node23" class="node">
<title>2</title>
<ellipse fill="lightblue" stroke="black" cx="452.75" cy="-14.5" rx="14.5" ry="14.5"/>
<text text-anchor="middle" x="452.75" y="-11.2" font-family="Times,serif" font-size="9.00">2</text>
</g>
<!-- 3 -->
<g id="node24" class="node">
<title>3</title>
<ellipse fill="lightblue" stroke="black" cx="565.75" cy="-14.5" rx="14.5" ry="14.5"/>
<text text-anchor="middle" x="565.75" y="-11.2" font-family="Times,serif" font-size="9.00">3</text>
</g>
<!-- 4 -->
<g id="node25" class="node">
<title>4</title>
<ellipse fill="lightblue" stroke="black" cx="615.75" cy="-14.5" rx="14.5" ry="14.5"/>
<text text-anchor="middle" x="615.75" y="-11.2" font-family="Times,serif" font-size="9.00">4</text>
</g>
<!-- 4&#45;&gt;4 -->
<g id="edge21" class="edge">
<title>4&#45;&gt;4</title>
<path fill="none" stroke="green" stroke-width="0.18" d="M626.4,-24.65C636.81,-30.26 648.25,-26.88 648.25,-14.5 648.25,-5.98 642.84,-1.72 636.08,-1.71"/>
<polygon fill="green" stroke="green" stroke-width="0.18" points="635.4,1.73 626.67,-4.26 637.24,-5.03 635.4,1.73"/>
</g>
<!-- 89&#45;&gt;0 -->
<g id="edge6" class="edge">
<title>89&#45;&gt;0</title>
<path fill="none" stroke="red" stroke-width="0.2" d="M201.75,-64.63C201.75,-56.96 201.75,-47.77 201.75,-39.43"/>
<polygon fill="red" stroke="red" stroke-width="0.2" points="205.25,-39.46 201.75,-29.46 198.25,-39.46 205.25,-39.46"/>
</g>
<!-- 90&#45;&gt;2 -->
<g id="edge17" class="edge">
<title>90&#45;&gt;2</title>
<path fill="none" stroke="green" stroke-width="0.15" d="M413.9,-67.96C421.07,-58.28 430.76,-45.19 438.68,-34.5"/>
<polygon fill="green" stroke="green" stroke-width="0.15" points="441.28,-36.87 444.42,-26.75 435.65,-32.7 441.28,-36.87"/>
</g>
<!-- 91&#45;&gt;2 -->
<g id="edge3" class="edge">
<title>91&#45;&gt;2</title>
<path fill="none" stroke="green" stroke-width="0.18" d="M599.53,-75.08C570.33,-63.23 508.9,-38.29 475.52,-24.74"/>
<polygon fill="green" stroke="green" stroke-width="0.18" points="476.96,-21.55 466.38,-21.03 474.33,-28.03 476.96,-21.55"/>
</g>
<!-- 91&#45;&gt;3 -->
<g id="edge4" class="edge">
<title>91&#45;&gt;3</title>
<path fill="none" stroke="green" stroke-width="0.41" d="M605.39,-67.96C598.15,-58.38 588.38,-45.45 580.35,-34.82"/>
<polygon fill="green" stroke="green" stroke-width="0.41" points="583.31,-32.93 574.49,-27.06 577.72,-37.15 583.31,-32.93"/>
</g>
<!-- 91&#45;&gt;4 -->
<g id="edge44" class="edge">
<title>91&#45;&gt;4</title>
<path fill="none" stroke="red" stroke-width="0.44" d="M615.75,-64.63C615.75,-57.05 615.75,-47.98 615.75,-39.71"/>
<polygon fill="red" stroke="red" stroke-width="0.44" points="619.25,-39.82 615.75,-29.82 612.25,-39.82 619.25,-39.82"/>
</g>
<!-- 92&#45;&gt;3 -->
<g id="edge33" class="edge">
<title>92&#45;&gt;3</title>
<path fill="none" stroke="green" stroke-width="0.34" d="M549.08,-65.65C551.78,-57.51 555.12,-47.48 558.09,-38.53"/>
<polygon fill="green" stroke="green" stroke-width="0.34" points="561.37,-39.77 561.2,-29.18 554.72,-37.57 561.37,-39.77"/>
</g>
</g>
</svg>
