<?xml version="1.0" encoding="UTF-8" standalone="no"?>
<!DOCTYPE svg PUBLIC "-//W3C//DTD SVG 1.1//EN"
 "http://www.w3.org/Graphics/SVG/1.1/DTD/svg11.dtd">
<!-- Generated by graphviz version 12.1.1 (20240910.0053)
 -->
<!-- Pages: 1 -->
<svg width="878pt" height="257pt"
 viewBox="0.00 0.00 878.50 257.42" xmlns="http://www.w3.org/2000/svg" xmlns:xlink="http://www.w3.org/1999/xlink">
<g id="graph0" class="graph" transform="scale(1 1) rotate(0) translate(4 253.42)">
<polygon fill="white" stroke="none" points="-4,4 -4,-253.42 874.5,-253.42 874.5,4 -4,4"/>
<!-- &#45;1 -->
<g id="node1" class="node">
<title>&#45;1</title>
<polygon fill="lightgray" stroke="black" points="383.75,-244.18 360.25,-244.18 360.25,-225.68 383.75,-225.68 383.75,-244.18"/>
<text text-anchor="middle" x="372" y="-231.63" font-family="Times,serif" font-size="9.00">&#45;1</text>
</g>
<!-- 112 -->
<g id="node28" class="node">
<title>112</title>
<ellipse fill="white" stroke="black" cx="372" cy="-163.57" rx="20.86" ry="20.86"/>
<text text-anchor="middle" x="372" y="-160.27" font-family="Times,serif" font-size="9.00">112</text>
</g>
<!-- &#45;1&#45;&gt;112 -->
<g id="edge24" class="edge">
<title>&#45;1&#45;&gt;112</title>
<path fill="none" stroke="green" stroke-width="0.11" stroke-dasharray="1,5" d="M372,-225.42C372,-217.72 372,-205.91 372,-194.73"/>
<polygon fill="green" stroke="green" stroke-width="0.11" points="375.5,-194.95 372,-184.95 368.5,-194.95 375.5,-194.95"/>
</g>
<!-- &#45;2 -->
<g id="node2" class="node">
<title>&#45;2</title>
<polygon fill="lightgray" stroke="black" points="161.75,-244.18 138.25,-244.18 138.25,-225.68 161.75,-225.68 161.75,-244.18"/>
<text text-anchor="middle" x="150" y="-231.63" font-family="Times,serif" font-size="9.00">&#45;2</text>
</g>
<!-- 111 -->
<g id="node27" class="node">
<title>111</title>
<ellipse fill="white" stroke="black" cx="200" cy="-163.57" rx="20.86" ry="20.86"/>
<text text-anchor="middle" x="200" y="-160.27" font-family="Times,serif" font-size="9.00">111</text>
</g>
<!-- &#45;2&#45;&gt;111 -->
<g id="edge12" class="edge">
<title>&#45;2&#45;&gt;111</title>
<path fill="none" stroke="red" stroke-width="0.39" d="M156.13,-225.42C162.57,-216.49 173.01,-202.01 182.09,-189.42"/>
<polygon fill="red" stroke="red" stroke-width="0.39" points="184.73,-191.74 187.74,-181.58 179.05,-187.64 184.73,-191.74"/>
</g>
<!-- &#45;2&#45;&gt;112 -->
<g id="edge25" class="edge">
<title>&#45;2&#45;&gt;112</title>
<path fill="none" stroke="green" stroke-width="0.12" d="M162.09,-225.29C164.92,-223.51 167.99,-221.78 171,-220.43 228.65,-194.61 301.05,-178.04 341.33,-170.11"/>
<polygon fill="green" stroke="green" stroke-width="0.12" points="341.99,-173.54 351.15,-168.22 340.67,-166.67 341.99,-173.54"/>
</g>
<!-- &#45;3 -->
<g id="node3" class="node">
<title>&#45;3</title>
<polygon fill="lightgray" stroke="black" points="436.75,-172.82 413.25,-172.82 413.25,-154.32 436.75,-154.32 436.75,-172.82"/>
<text text-anchor="middle" x="425" y="-160.27" font-family="Times,serif" font-size="9.00">&#45;3</text>
</g>
<!-- 110 -->
<g id="node26" class="node">
<title>110</title>
<ellipse fill="white" stroke="black" cx="425" cy="-85.85" rx="20.86" ry="20.86"/>
<text text-anchor="middle" x="425" y="-82.55" font-family="Times,serif" font-size="9.00">110</text>
</g>
<!-- &#45;3&#45;&gt;110 -->
<g id="edge8" class="edge">
<title>&#45;3&#45;&gt;110</title>
<path fill="none" stroke="red" stroke-width="0.12" stroke-dasharray="1,5" d="M425,-153.88C425,-144.85 425,-130.18 425,-116.86"/>
<polygon fill="red" stroke="red" stroke-width="0.12" points="428.5,-117.25 425,-107.25 421.5,-117.25 428.5,-117.25"/>
</g>
<!-- &#45;4 -->
<g id="node4" class="node">
<title>&#45;4</title>
<polygon fill="lightgray" stroke="black" points="203.75,-244.18 180.25,-244.18 180.25,-225.68 203.75,-225.68 203.75,-244.18"/>
<text text-anchor="middle" x="192" y="-231.63" font-family="Times,serif" font-size="9.00">&#45;4</text>
</g>
<!-- &#45;4&#45;&gt;111 -->
<g id="edge30" class="edge">
<title>&#45;4&#45;&gt;111</title>
<path fill="none" stroke="red" stroke-width="0.34" stroke-dasharray="1,5" d="M192.98,-225.42C193.86,-217.8 195.2,-206.15 196.48,-195.07"/>
<polygon fill="red" stroke="red" stroke-width="0.34" points="199.94,-195.63 197.61,-185.3 192.99,-194.83 199.94,-195.63"/>
</g>
<!-- &#45;4&#45;&gt;112 -->
<g id="edge4" class="edge">
<title>&#45;4&#45;&gt;112</title>
<path fill="none" stroke="green" stroke-width="0.14" stroke-dasharray="1,5" d="M204.16,-225.44C206.99,-223.65 210.04,-221.88 213,-220.43 256.36,-199.24 309.85,-182.17 342.42,-172.7"/>
<polygon fill="green" stroke="green" stroke-width="0.14" points="342.96,-176.19 351.61,-170.07 341.03,-169.46 342.96,-176.19"/>
</g>
<!-- &#45;5 -->
<g id="node5" class="node">
<title>&#45;5</title>
<polygon fill="lightgray" stroke="black" points="425.75,-244.18 402.25,-244.18 402.25,-225.68 425.75,-225.68 425.75,-244.18"/>
<text text-anchor="middle" x="414" y="-231.63" font-family="Times,serif" font-size="9.00">&#45;5</text>
</g>
<!-- &#45;5&#45;&gt;112 -->
<g id="edge15" class="edge">
<title>&#45;5&#45;&gt;112</title>
<path fill="none" stroke="green" stroke-width="0.12" d="M408.85,-225.42C403.6,-216.75 395.18,-202.85 387.72,-190.53"/>
<polygon fill="green" stroke="green" stroke-width="0.12" points="390.78,-188.83 382.61,-182.08 384.79,-192.45 390.78,-188.83"/>
</g>
<!-- &#45;6 -->
<g id="node6" class="node">
<title>&#45;6</title>
<polygon fill="lightgray" stroke="black" points="735.75,-244.18 712.25,-244.18 712.25,-225.68 735.75,-225.68 735.75,-244.18"/>
<text text-anchor="middle" x="724" y="-231.63" font-family="Times,serif" font-size="9.00">&#45;6</text>
</g>
<!-- &#45;7 -->
<g id="node7" class="node">
<title>&#45;7</title>
<polygon fill="lightgray" stroke="black" points="647.75,-244.18 624.25,-244.18 624.25,-225.68 647.75,-225.68 647.75,-244.18"/>
<text text-anchor="middle" x="636" y="-231.63" font-family="Times,serif" font-size="9.00">&#45;7</text>
</g>
<!-- &#45;7&#45;&gt;110 -->
<g id="edge1" class="edge">
<title>&#45;7&#45;&gt;110</title>
<path fill="none" stroke="red" stroke-width="0.24" d="M624.05,-225.6C590.71,-202.35 496.09,-136.4 450.36,-104.53"/>
<polygon fill="red" stroke="red" stroke-width="0.24" points="452.4,-101.68 442.2,-98.84 448.4,-107.43 452.4,-101.68"/>
</g>
<!-- &#45;7&#45;&gt;112 -->
<g id="edge26" class="edge">
<title>&#45;7&#45;&gt;112</title>
<path fill="none" stroke="red" stroke-width="0.35" d="M624.45,-225.34C621.5,-223.47 618.23,-221.68 615,-220.43 526.31,-186.02 492.96,-218.14 404,-184.43 401.86,-183.62 399.71,-182.66 397.6,-181.61"/>
<polygon fill="red" stroke="red" stroke-width="0.35" points="399.53,-178.68 389.1,-176.83 396.1,-184.78 399.53,-178.68"/>
</g>
<!-- &#45;8 -->
<g id="node8" class="node">
<title>&#45;8</title>
<polygon fill="lightgray" stroke="black" points="467.75,-244.18 444.25,-244.18 444.25,-225.68 467.75,-225.68 467.75,-244.18"/>
<text text-anchor="middle" x="456" y="-231.63" font-family="Times,serif" font-size="9.00">&#45;8</text>
</g>
<!-- &#45;8&#45;&gt;112 -->
<g id="edge10" class="edge">
<title>&#45;8&#45;&gt;112</title>
<path fill="none" stroke="red" stroke-width="0.23" d="M445.7,-225.42C433.28,-215.16 412,-197.6 395.5,-183.97"/>
<polygon fill="red" stroke="red" stroke-width="0.23" points="398.05,-181.54 388.11,-177.87 393.59,-186.93 398.05,-181.54"/>
</g>
<!-- &#45;9 -->
<g id="node9" class="node">
<title>&#45;9</title>
<polygon fill="lightgray" stroke="black" points="777.75,-244.18 754.25,-244.18 754.25,-225.68 777.75,-225.68 777.75,-244.18"/>
<text text-anchor="middle" x="766" y="-231.63" font-family="Times,serif" font-size="9.00">&#45;9</text>
</g>
<!-- &#45;10 -->
<g id="node10" class="node">
<title>&#45;10</title>
<polygon fill="lightgray" stroke="black" points="514,-244.18 486,-244.18 486,-225.68 514,-225.68 514,-244.18"/>
<text text-anchor="middle" x="500" y="-231.63" font-family="Times,serif" font-size="9.00">&#45;10</text>
</g>
<!-- &#45;10&#45;&gt;112 -->
<g id="edge21" class="edge">
<title>&#45;10&#45;&gt;112</title>
<path fill="none" stroke="red" stroke-width="0.26" d="M485.98,-225.48C483.04,-223.77 479.93,-222.01 477,-220.43 445.16,-203.26 435.63,-201.99 404,-184.43 402.05,-183.35 400.05,-182.2 398.05,-181.02"/>
<polygon fill="red" stroke="red" stroke-width="0.26" points="400.13,-178.19 389.76,-176.01 396.5,-184.18 400.13,-178.19"/>
</g>
<!-- &#45;11 -->
<g id="node11" class="node">
<title>&#45;11</title>
<polygon fill="lightgray" stroke="black" points="560,-244.18 532,-244.18 532,-225.68 560,-225.68 560,-244.18"/>
<text text-anchor="middle" x="546" y="-231.63" font-family="Times,serif" font-size="9.00">&#45;11</text>
</g>
<!-- &#45;11&#45;&gt;112 -->
<g id="edge27" class="edge">
<title>&#45;11&#45;&gt;112</title>
<path fill="none" stroke="green" stroke-width="0.16" d="M532.66,-225.38C529.56,-223.6 526.22,-221.84 523,-220.43 472.37,-198.29 454.35,-207.19 404,-184.43 401.76,-183.42 399.48,-182.27 397.24,-181.06"/>
<polygon fill="green" stroke="green" stroke-width="0.16" points="399.43,-178.29 389.03,-176.27 395.91,-184.33 399.43,-178.29"/>
</g>
<!-- &#45;12 -->
<g id="node12" class="node">
<title>&#45;12</title>
<polygon fill="lightgray" stroke="black" points="250,-244.18 222,-244.18 222,-225.68 250,-225.68 250,-244.18"/>
<text text-anchor="middle" x="236" y="-231.63" font-family="Times,serif" font-size="9.00">&#45;12</text>
</g>
<!-- &#45;12&#45;&gt;111 -->
<g id="edge13" class="edge">
<title>&#45;12&#45;&gt;111</title>
<path fill="none" stroke="green" stroke-width="0.28" stroke-dasharray="1,5" d="M231.59,-225.42C227.23,-217.03 220.34,-203.75 214.1,-191.74"/>
<polygon fill="green" stroke="green" stroke-width="0.28" points="217.21,-190.12 209.49,-182.86 210.99,-193.35 217.21,-190.12"/>
</g>
<!-- &#45;12&#45;&gt;112 -->
<g id="edge9" class="edge">
<title>&#45;12&#45;&gt;112</title>
<path fill="none" stroke="red" stroke-width="0.11" stroke-dasharray="1,5" d="M250.02,-225.49C252.96,-223.77 256.07,-222.01 259,-220.43 287.78,-204.9 321.45,-188.47 344.51,-177.48"/>
<polygon fill="red" stroke="red" stroke-width="0.11" points="345.71,-180.78 353.25,-173.34 342.71,-174.46 345.71,-180.78"/>
</g>
<!-- &#45;13 -->
<g id="node13" class="node">
<title>&#45;13</title>
<polygon fill="lightgray" stroke="black" points="824,-244.18 796,-244.18 796,-225.68 824,-225.68 824,-244.18"/>
<text text-anchor="middle" x="810" y="-231.63" font-family="Times,serif" font-size="9.00">&#45;13</text>
</g>
<!-- &#45;14 -->
<g id="node14" class="node">
<title>&#45;14</title>
<polygon fill="lightgray" stroke="black" points="606,-244.18 578,-244.18 578,-225.68 606,-225.68 606,-244.18"/>
<text text-anchor="middle" x="592" y="-231.63" font-family="Times,serif" font-size="9.00">&#45;14</text>
</g>
<!-- &#45;14&#45;&gt;112 -->
<g id="edge31" class="edge">
<title>&#45;14&#45;&gt;112</title>
<path fill="none" stroke="green" stroke-width="0.18" stroke-dasharray="1,5" d="M578.74,-225.19C575.64,-223.42 572.28,-221.71 569,-220.43 499.1,-193.1 473.56,-212.63 404,-184.43 401.72,-183.51 399.42,-182.42 397.15,-181.25"/>
<polygon fill="green" stroke="green" stroke-width="0.18" points="399.35,-178.48 388.93,-176.55 395.87,-184.55 399.35,-178.48"/>
</g>
<!-- &#45;15 -->
<g id="node15" class="node">
<title>&#45;15</title>
<polygon fill="lightgray" stroke="black" points="28,-244.18 0,-244.18 0,-225.68 28,-225.68 28,-244.18"/>
<text text-anchor="middle" x="14" y="-231.63" font-family="Times,serif" font-size="9.00">&#45;15</text>
</g>
<!-- 2 -->
<g id="node23" class="node">
<title>2</title>
<ellipse fill="lightblue" stroke="black" cx="170" cy="-85.85" rx="14.5" ry="14.5"/>
<text text-anchor="middle" x="170" y="-82.55" font-family="Times,serif" font-size="9.00">2</text>
</g>
<!-- &#45;15&#45;&gt;2 -->
<g id="edge33" class="edge">
<title>&#45;15&#45;&gt;2</title>
<path fill="none" stroke="red" stroke-width="0.28" d="M22.83,-225.6C47.78,-202.08 119.08,-134.85 152.42,-103.42"/>
<polygon fill="red" stroke="red" stroke-width="0.28" points="154.49,-106.29 159.36,-96.88 149.68,-101.19 154.49,-106.29"/>
</g>
<!-- &#45;15&#45;&gt;112 -->
<g id="edge14" class="edge">
<title>&#45;15&#45;&gt;112</title>
<path fill="none" stroke="red" stroke-width="0.19" d="M26.73,-225.35C29.97,-223.48 33.52,-221.69 37,-220.43 65.46,-210.11 263.8,-180.41 341.18,-169.05"/>
<polygon fill="red" stroke="red" stroke-width="0.19" points="341.59,-172.53 350.98,-167.62 340.58,-165.61 341.59,-172.53"/>
</g>
<!-- &#45;16 -->
<g id="node16" class="node">
<title>&#45;16</title>
<polygon fill="lightgray" stroke="black" points="694,-244.18 666,-244.18 666,-225.68 694,-225.68 694,-244.18"/>
<text text-anchor="middle" x="680" y="-231.63" font-family="Times,serif" font-size="9.00">&#45;16</text>
</g>
<!-- &#45;16&#45;&gt;110 -->
<g id="edge28" class="edge">
<title>&#45;16&#45;&gt;110</title>
<path fill="none" stroke="green" stroke-width="0.21" stroke-dasharray="1,5" d="M669.14,-225.42C647.11,-208.4 595.26,-169.49 548,-142.71 516.84,-125.05 479.08,-108.58 453.69,-98.17"/>
<polygon fill="green" stroke="green" stroke-width="0.21" points="455.15,-94.98 444.56,-94.47 452.52,-101.47 455.15,-94.98"/>
</g>
<!-- &#45;16&#45;&gt;112 -->
<g id="edge22" class="edge">
<title>&#45;16&#45;&gt;112</title>
<path fill="none" stroke="green" stroke-width="0.14" d="M667.29,-225.29C664.05,-223.43 660.5,-221.65 657,-220.43 549.77,-182.98 510.75,-223.2 404,-184.43 401.69,-183.59 399.36,-182.57 397.08,-181.44"/>
<polygon fill="green" stroke="green" stroke-width="0.14" points="399.21,-178.62 388.78,-176.77 395.78,-184.72 399.21,-178.62"/>
</g>
<!-- &#45;17 -->
<g id="node17" class="node">
<title>&#45;17</title>
<polygon fill="lightgray" stroke="black" points="74,-244.18 46,-244.18 46,-225.68 74,-225.68 74,-244.18"/>
<text text-anchor="middle" x="60" y="-231.63" font-family="Times,serif" font-size="9.00">&#45;17</text>
</g>
<!-- &#45;17&#45;&gt;111 -->
<g id="edge5" class="edge">
<title>&#45;17&#45;&gt;111</title>
<path fill="none" stroke="green" stroke-width="0.11" d="M74,-225.45C76.95,-223.74 80.06,-221.99 83,-220.43 112.88,-204.57 148,-188.08 171.91,-177.16"/>
<polygon fill="green" stroke="green" stroke-width="0.11" points="173.31,-180.37 180.97,-173.05 170.41,-174 173.31,-180.37"/>
</g>
<!-- &#45;18 -->
<g id="node18" class="node">
<title>&#45;18</title>
<polygon fill="lightgray" stroke="black" points="296,-244.18 268,-244.18 268,-225.68 296,-225.68 296,-244.18"/>
<text text-anchor="middle" x="282" y="-231.63" font-family="Times,serif" font-size="9.00">&#45;18</text>
</g>
<!-- &#45;18&#45;&gt;111 -->
<g id="edge18" class="edge">
<title>&#45;18&#45;&gt;111</title>
<path fill="none" stroke="green" stroke-width="0.27" d="M271.95,-225.42C260,-215.32 239.68,-198.13 223.67,-184.59"/>
<polygon fill="green" stroke="green" stroke-width="0.27" points="225.97,-181.95 216.08,-178.17 221.45,-187.3 225.97,-181.95"/>
</g>
<!-- &#45;18&#45;&gt;112 -->
<g id="edge3" class="edge">
<title>&#45;18&#45;&gt;112</title>
<path fill="none" stroke="red" stroke-width="0.22" d="M293.04,-225.42C306.63,-214.94 330.11,-196.85 347.95,-183.1"/>
<polygon fill="red" stroke="red" stroke-width="0.22" points="349.63,-186.22 355.42,-177.35 345.36,-180.68 349.63,-186.22"/>
</g>
<!-- &#45;19 -->
<g id="node19" class="node">
<title>&#45;19</title>
<polygon fill="lightgray" stroke="black" points="120,-244.18 92,-244.18 92,-225.68 120,-225.68 120,-244.18"/>
<text text-anchor="middle" x="106" y="-231.63" font-family="Times,serif" font-size="9.00">&#45;19</text>
</g>
<!-- &#45;19&#45;&gt;111 -->
<g id="edge6" class="edge">
<title>&#45;19&#45;&gt;111</title>
<path fill="none" stroke="green" stroke-width="0.28" d="M117.53,-225.42C131.75,-214.93 156.32,-196.79 174.96,-183.04"/>
<polygon fill="green" stroke="green" stroke-width="0.28" points="176.99,-185.9 182.96,-177.15 172.83,-180.27 176.99,-185.9"/>
</g>
<!-- &#45;20 -->
<g id="node20" class="node">
<title>&#45;20</title>
<polygon fill="lightgray" stroke="black" points="342,-244.18 314,-244.18 314,-225.68 342,-225.68 342,-244.18"/>
<text text-anchor="middle" x="328" y="-231.63" font-family="Times,serif" font-size="9.00">&#45;20</text>
</g>
<!-- &#45;20&#45;&gt;112 -->
<g id="edge17" class="edge">
<title>&#45;20&#45;&gt;112</title>
<path fill="none" stroke="green" stroke-width="0.19" stroke-dasharray="1,5" d="M333.4,-225.42C338.94,-216.69 347.83,-202.66 355.69,-190.28"/>
<polygon fill="green" stroke="green" stroke-width="0.19" points="358.61,-192.21 361.01,-181.9 352.7,-188.46 358.61,-192.21"/>
</g>
<!-- 0 -->
<g id="node21" class="node">
<title>0</title>
<ellipse fill="lightblue" stroke="black" cx="856" cy="-234.93" rx="14.5" ry="14.5"/>
<text text-anchor="middle" x="856" y="-231.63" font-family="Times,serif" font-size="9.00">0</text>
</g>
<!-- 1 -->
<g id="node22" class="node">
<title>1</title>
<ellipse fill="lightblue" stroke="black" cx="401" cy="-14.5" rx="14.5" ry="14.5"/>
<text text-anchor="middle" x="401" y="-11.2" font-family="Times,serif" font-size="9.00">1</text>
</g>
<!-- 3 -->
<g id="node24" class="node">
<title>3</title>
<ellipse fill="lightblue" stroke="black" cx="330" cy="-14.5" rx="14.5" ry="14.5"/>
<text text-anchor="middle" x="330" y="-11.2" font-family="Times,serif" font-size="9.00">3</text>
</g>
<!-- 4 -->
<g id="node25" class="node">
<title>4</title>
<ellipse fill="lightblue" stroke="black" cx="372" cy="-85.85" rx="14.5" ry="14.5"/>
<text text-anchor="middle" x="372" y="-82.55" font-family="Times,serif" font-size="9.00">4</text>
</g>
<!-- 110&#45;&gt;1 -->
<g id="edge2" class="edge">
<title>110&#45;&gt;1</title>
<path fill="none" stroke="green" stroke-width="0.31" d="M418.44,-65.9C415.49,-57.37 411.98,-47.22 408.88,-38.28"/>
<polygon fill="green" stroke="green" stroke-width="0.31" points="412.23,-37.25 405.65,-28.94 405.62,-39.54 412.23,-37.25"/>
</g>
<!-- 110&#45;&gt;3 -->
<g id="edge29" class="edge">
<title>110&#45;&gt;3</title>
<path fill="none" stroke="green" stroke-width="0.1" d="M408.45,-72.77C392.01,-60.76 366.79,-42.35 349.41,-29.67"/>
<polygon fill="green" stroke="green" stroke-width="0.1" points="351.85,-27.11 341.71,-24.04 347.72,-32.76 351.85,-27.11"/>
</g>
<!-- 110&#45;&gt;110 -->
<g id="edge11" class="edge">
<title>110&#45;&gt;110</title>
<path fill="none" stroke="green" stroke-width="0.33" stroke-dasharray="1,5" d="M442.18,-98.17C453.23,-101.39 463.86,-97.28 463.86,-85.85 463.86,-78.17 459.06,-73.8 452.56,-72.73"/>
<polygon fill="green" stroke="green" stroke-width="0.33" points="452.37,-69.23 442.67,-73.49 452.91,-76.21 452.37,-69.23"/>
</g>
<!-- 111&#45;&gt;1 -->
<g id="edge19" class="edge">
<title>111&#45;&gt;1</title>
<path fill="none" stroke="green" stroke-width="0.64" stroke-dasharray="1,5" d="M216.45,-150.53C253,-123.79 340.89,-59.48 380.74,-30.32"/>
<polygon fill="green" stroke="green" stroke-width="0.64" points="382.78,-33.16 388.78,-24.43 378.65,-27.51 382.78,-33.16"/>
</g>
<!-- 111&#45;&gt;2 -->
<g id="edge7" class="edge">
<title>111&#45;&gt;2</title>
<path fill="none" stroke="red" stroke-width="0.13" d="M192.58,-143.85C188.44,-133.39 183.25,-120.28 178.89,-109.28"/>
<polygon fill="red" stroke="red" stroke-width="0.13" points="182.18,-108.09 175.24,-100.08 175.67,-110.67 182.18,-108.09"/>
</g>
<!-- 111&#45;&gt;3 -->
<g id="edge23" class="edge">
<title>111&#45;&gt;3</title>
<path fill="none" stroke="red" stroke-width="0.11" stroke-dasharray="1,5" d="M205.66,-143.02C212.59,-121.8 226.06,-87.88 247,-64.99 263.82,-46.61 289.05,-32.9 307.28,-24.62"/>
<polygon fill="red" stroke="red" stroke-width="0.11" points="308.65,-27.85 316.44,-20.66 305.87,-21.42 308.65,-27.85"/>
</g>
<!-- 111&#45;&gt;110 -->
<g id="edge32" class="edge">
<title>111&#45;&gt;110</title>
<path fill="none" stroke="green" stroke-width="0.18" d="M220.66,-158.82C257.07,-151.74 334.55,-134.57 395,-106.71 396.56,-105.99 398.13,-105.2 399.69,-104.35"/>
<polygon fill="green" stroke="green" stroke-width="0.18" points="401.38,-107.43 408.15,-99.28 397.78,-101.42 401.38,-107.43"/>
</g>
<!-- 112&#45;&gt;3 -->
<g id="edge16" class="edge">
<title>112&#45;&gt;3</title>
<path fill="none" stroke="green" stroke-width="0.52" d="M363.46,-144.27C358.69,-133.51 352.94,-119.54 349,-106.71 342.16,-84.43 337,-58.33 333.79,-39.77"/>
<polygon fill="green" stroke="green" stroke-width="0.52" points="337.27,-39.36 332.18,-30.07 330.37,-40.51 337.27,-39.36"/>
</g>
<!-- 112&#45;&gt;4 -->
<g id="edge20" class="edge">
<title>112&#45;&gt;4</title>
<path fill="none" stroke="red" stroke-width="0.29" d="M372,-142.28C372,-132.63 372,-121.02 372,-110.93"/>
<polygon fill="red" stroke="red" stroke-width="0.29" points="375.5,-111.18 372,-101.18 368.5,-111.18 375.5,-111.18"/>
</g>
</g>
</svg>
