<?xml version="1.0" encoding="UTF-8" standalone="no"?>
<!DOCTYPE svg PUBLIC "-//W3C//DTD SVG 1.1//EN"
 "http://www.w3.org/Graphics/SVG/1.1/DTD/svg11.dtd">
<!-- Generated by graphviz version 12.1.1 (20240910.0053)
 -->
<!-- Pages: 1 -->
<svg width="879pt" height="111pt"
 viewBox="0.00 0.00 878.75 110.58" xmlns="http://www.w3.org/2000/svg" xmlns:xlink="http://www.w3.org/1999/xlink">
<g id="graph0" class="graph" transform="scale(1 1) rotate(0) translate(4 106.58)">
<polygon fill="white" stroke="none" points="-4,4 -4,-106.58 874.75,-106.58 874.75,4 -4,4"/>
<!-- &#45;1 -->
<g id="node1" class="node">
<title>&#45;1</title>
<polygon fill="lightgray" stroke="black" points="23.5,-102.58 0,-102.58 0,-84.08 23.5,-84.08 23.5,-102.58"/>
<text text-anchor="middle" x="11.75" y="-90.03" font-family="Times,serif" font-size="9.00">&#45;1</text>
</g>
<!-- 3 -->
<g id="node24" class="node">
<title>3</title>
<ellipse fill="lightblue" stroke="black" cx="52.75" cy="-24.04" rx="14.5" ry="14.5"/>
<text text-anchor="middle" x="52.75" y="-20.74" font-family="Times,serif" font-size="9.00">3</text>
</g>
<!-- &#45;1&#45;&gt;3 -->
<g id="edge4" class="edge">
<title>&#45;1&#45;&gt;3</title>
<path fill="none" stroke="red" stroke-width="0.59" d="M16.94,-83.81C22.71,-74.34 32.24,-58.7 40.02,-45.94"/>
<polygon fill="red" stroke="red" stroke-width="0.59" points="42.85,-48.02 45.06,-37.66 36.87,-44.38 42.85,-48.02"/>
</g>
<!-- &#45;2 -->
<g id="node2" class="node">
<title>&#45;2</title>
<polygon fill="lightgray" stroke="black" points="162.5,-102.58 139,-102.58 139,-84.08 162.5,-84.08 162.5,-102.58"/>
<text text-anchor="middle" x="150.75" y="-90.03" font-family="Times,serif" font-size="9.00">&#45;2</text>
</g>
<!-- &#45;3 -->
<g id="node3" class="node">
<title>&#45;3</title>
<polygon fill="lightgray" stroke="black" points="204.5,-102.58 181,-102.58 181,-84.08 204.5,-84.08 204.5,-102.58"/>
<text text-anchor="middle" x="192.75" y="-90.03" font-family="Times,serif" font-size="9.00">&#45;3</text>
</g>
<!-- 4 -->
<g id="node25" class="node">
<title>4</title>
<ellipse fill="lightblue" stroke="black" cx="254.75" cy="-24.04" rx="14.5" ry="14.5"/>
<text text-anchor="middle" x="254.75" y="-20.74" font-family="Times,serif" font-size="9.00">4</text>
</g>
<!-- &#45;3&#45;&gt;4 -->
<g id="edge13" class="edge">
<title>&#45;3&#45;&gt;4</title>
<path fill="none" stroke="red" stroke-width="0.33" d="M200.6,-83.81C209.99,-73.62 225.97,-56.28 238.14,-43.07"/>
<polygon fill="red" stroke="red" stroke-width="0.33" points="240.59,-45.58 244.79,-35.85 235.44,-40.83 240.59,-45.58"/>
</g>
<!-- &#45;4 -->
<g id="node4" class="node">
<title>&#45;4</title>
<polygon fill="lightgray" stroke="black" points="246.5,-102.58 223,-102.58 223,-84.08 246.5,-84.08 246.5,-102.58"/>
<text text-anchor="middle" x="234.75" y="-90.03" font-family="Times,serif" font-size="9.00">&#45;4</text>
</g>
<!-- &#45;4&#45;&gt;4 -->
<g id="edge16" class="edge">
<title>&#45;4&#45;&gt;4</title>
<path fill="none" stroke="red" stroke-width="0.53" d="M237.28,-83.81C239.92,-74.95 244.16,-60.68 247.8,-48.43"/>
<polygon fill="red" stroke="red" stroke-width="0.53" points="251.07,-49.71 250.56,-39.13 244.36,-47.72 251.07,-49.71"/>
</g>
<!-- &#45;5 -->
<g id="node5" class="node">
<title>&#45;5</title>
<polygon fill="lightgray" stroke="black" points="598.5,-102.58 575,-102.58 575,-84.08 598.5,-84.08 598.5,-102.58"/>
<text text-anchor="middle" x="586.75" y="-90.03" font-family="Times,serif" font-size="9.00">&#45;5</text>
</g>
<!-- &#45;6 -->
<g id="node6" class="node">
<title>&#45;6</title>
<polygon fill="lightgray" stroke="black" points="640.5,-102.58 617,-102.58 617,-84.08 640.5,-84.08 640.5,-102.58"/>
<text text-anchor="middle" x="628.75" y="-90.03" font-family="Times,serif" font-size="9.00">&#45;6</text>
</g>
<!-- &#45;7 -->
<g id="node7" class="node">
<title>&#45;7</title>
<polygon fill="lightgray" stroke="black" points="376.5,-102.58 353,-102.58 353,-84.08 376.5,-84.08 376.5,-102.58"/>
<text text-anchor="middle" x="364.75" y="-90.03" font-family="Times,serif" font-size="9.00">&#45;7</text>
</g>
<!-- 1 -->
<g id="node22" class="node">
<title>1</title>
<ellipse fill="lightblue" stroke="black" cx="450.75" cy="-24.04" rx="14.5" ry="14.5"/>
<text text-anchor="middle" x="450.75" y="-20.74" font-family="Times,serif" font-size="9.00">1</text>
</g>
<!-- &#45;7&#45;&gt;1 -->
<g id="edge2" class="edge">
<title>&#45;7&#45;&gt;1</title>
<path fill="none" stroke="green" stroke-width="0.24" d="M375.64,-83.81C389.78,-72.75 414.68,-53.27 431.91,-39.78"/>
<polygon fill="green" stroke="green" stroke-width="0.24" points="433.67,-42.85 439.39,-33.93 429.35,-37.34 433.67,-42.85"/>
</g>
<!-- 2 -->
<g id="node23" class="node">
<title>2</title>
<ellipse fill="lightblue" stroke="black" cx="343.75" cy="-24.04" rx="14.5" ry="14.5"/>
<text text-anchor="middle" x="343.75" y="-20.74" font-family="Times,serif" font-size="9.00">2</text>
</g>
<!-- &#45;7&#45;&gt;2 -->
<g id="edge3" class="edge">
<title>&#45;7&#45;&gt;2</title>
<path fill="none" stroke="green" stroke-width="0.62" stroke-dasharray="1,5" d="M362.09,-83.81C359.35,-75.04 354.96,-60.97 351.16,-48.8"/>
<polygon fill="green" stroke="green" stroke-width="0.62" points="354.51,-47.76 348.19,-39.26 347.82,-49.85 354.51,-47.76"/>
</g>
<!-- &#45;8 -->
<g id="node8" class="node">
<title>&#45;8</title>
<polygon fill="lightgray" stroke="black" points="418.5,-102.58 395,-102.58 395,-84.08 418.5,-84.08 418.5,-102.58"/>
<text text-anchor="middle" x="406.75" y="-90.03" font-family="Times,serif" font-size="9.00">&#45;8</text>
</g>
<!-- &#45;8&#45;&gt;1 -->
<g id="edge6" class="edge">
<title>&#45;8&#45;&gt;1</title>
<path fill="none" stroke="red" stroke-width="0.14" d="M412.32,-83.81C418.71,-74.04 429.39,-57.71 437.87,-44.73"/>
<polygon fill="red" stroke="red" stroke-width="0.14" points="440.66,-46.87 443.2,-36.59 434.8,-43.04 440.66,-46.87"/>
</g>
<!-- &#45;9 -->
<g id="node9" class="node">
<title>&#45;9</title>
<polygon fill="lightgray" stroke="black" points="334.5,-102.58 311,-102.58 311,-84.08 334.5,-84.08 334.5,-102.58"/>
<text text-anchor="middle" x="322.75" y="-90.03" font-family="Times,serif" font-size="9.00">&#45;9</text>
</g>
<!-- &#45;9&#45;&gt;2 -->
<g id="edge8" class="edge">
<title>&#45;9&#45;&gt;2</title>
<path fill="none" stroke="red" stroke-width="0.41" d="M325.41,-83.81C328.18,-74.95 332.63,-60.68 336.45,-48.43"/>
<polygon fill="red" stroke="red" stroke-width="0.41" points="339.77,-49.55 339.41,-38.96 333.09,-47.46 339.77,-49.55"/>
</g>
<!-- &#45;9&#45;&gt;4 -->
<g id="edge12" class="edge">
<title>&#45;9&#45;&gt;4</title>
<path fill="none" stroke="green" stroke-width="0.16" stroke-dasharray="1,5" d="M314.14,-83.81C303.52,-73.31 285.24,-55.21 271.76,-41.87"/>
<polygon fill="green" stroke="green" stroke-width="0.16" points="274.58,-39.74 265.01,-35.19 269.66,-44.72 274.58,-39.74"/>
</g>
<!-- &#45;10 -->
<g id="node10" class="node">
<title>&#45;10</title>
<polygon fill="lightgray" stroke="black" points="464.75,-102.58 436.75,-102.58 436.75,-84.08 464.75,-84.08 464.75,-102.58"/>
<text text-anchor="middle" x="450.75" y="-90.03" font-family="Times,serif" font-size="9.00">&#45;10</text>
</g>
<!-- &#45;10&#45;&gt;1 -->
<g id="edge9" class="edge">
<title>&#45;10&#45;&gt;1</title>
<path fill="none" stroke="green" stroke-width="0.53" d="M450.75,-83.81C450.75,-75.23 450.75,-61.6 450.75,-49.62"/>
<polygon fill="green" stroke="green" stroke-width="0.53" points="454.25,-49.66 450.75,-39.66 447.25,-49.66 454.25,-49.66"/>
</g>
<!-- &#45;11 -->
<g id="node11" class="node">
<title>&#45;11</title>
<polygon fill="lightgray" stroke="black" points="686.75,-102.58 658.75,-102.58 658.75,-84.08 686.75,-84.08 686.75,-102.58"/>
<text text-anchor="middle" x="672.75" y="-90.03" font-family="Times,serif" font-size="9.00">&#45;11</text>
</g>
<!-- 0 -->
<g id="node21" class="node">
<title>0</title>
<ellipse fill="lightblue" stroke="black" cx="672.75" cy="-24.04" rx="14.5" ry="14.5"/>
<text text-anchor="middle" x="672.75" y="-20.74" font-family="Times,serif" font-size="9.00">0</text>
</g>
<!-- &#45;11&#45;&gt;0 -->
<g id="edge14" class="edge">
<title>&#45;11&#45;&gt;0</title>
<path fill="none" stroke="red" stroke-width="0.17" stroke-dasharray="1,5" d="M672.75,-83.81C672.75,-75.06 672.75,-61.03 672.75,-48.88"/>
<polygon fill="red" stroke="red" stroke-width="0.17" points="676.25,-49.12 672.75,-39.12 669.25,-49.12 676.25,-49.12"/>
</g>
<!-- &#45;12 -->
<g id="node12" class="node">
<title>&#45;12</title>
<polygon fill="lightgray" stroke="black" points="69.75,-102.58 41.75,-102.58 41.75,-84.08 69.75,-84.08 69.75,-102.58"/>
<text text-anchor="middle" x="55.75" y="-90.03" font-family="Times,serif" font-size="9.00">&#45;12</text>
</g>
<!-- &#45;12&#45;&gt;3 -->
<g id="edge10" class="edge">
<title>&#45;12&#45;&gt;3</title>
<path fill="none" stroke="red" stroke-width="0.31" stroke-dasharray="1,5" d="M55.37,-83.81C54.98,-75.15 54.37,-61.32 53.83,-49.25"/>
<polygon fill="red" stroke="red" stroke-width="0.31" points="57.33,-49.17 53.39,-39.33 50.34,-49.48 57.33,-49.17"/>
</g>
<!-- &#45;13 -->
<g id="node13" class="node">
<title>&#45;13</title>
<polygon fill="lightgray" stroke="black" points="732.75,-102.58 704.75,-102.58 704.75,-84.08 732.75,-84.08 732.75,-102.58"/>
<text text-anchor="middle" x="718.75" y="-90.03" font-family="Times,serif" font-size="9.00">&#45;13</text>
</g>
<!-- &#45;14 -->
<g id="node14" class="node">
<title>&#45;14</title>
<polygon fill="lightgray" stroke="black" points="510.75,-102.58 482.75,-102.58 482.75,-84.08 510.75,-84.08 510.75,-102.58"/>
<text text-anchor="middle" x="496.75" y="-90.03" font-family="Times,serif" font-size="9.00">&#45;14</text>
</g>
<!-- &#45;14&#45;&gt;1 -->
<g id="edge5" class="edge">
<title>&#45;14&#45;&gt;1</title>
<path fill="none" stroke="green" stroke-width="0.53" stroke-dasharray="1,5" d="M490.92,-83.81C484.31,-74.13 473.29,-58.02 464.47,-45.11"/>
<polygon fill="green" stroke="green" stroke-width="0.53" points="467.51,-43.35 458.97,-37.07 461.73,-47.3 467.51,-43.35"/>
</g>
<!-- &#45;15 -->
<g id="node15" class="node">
<title>&#45;15</title>
<polygon fill="lightgray" stroke="black" points="120.75,-102.58 92.75,-102.58 92.75,-84.08 120.75,-84.08 120.75,-102.58"/>
<text text-anchor="middle" x="106.75" y="-90.03" font-family="Times,serif" font-size="9.00">&#45;15</text>
</g>
<!-- &#45;15&#45;&gt;3 -->
<g id="edge1" class="edge">
<title>&#45;15&#45;&gt;3</title>
<path fill="none" stroke="green" stroke-width="0.19" stroke-dasharray="1,5" d="M99.91,-83.81C91.9,-73.83 78.4,-57 67.88,-43.9"/>
<polygon fill="green" stroke="green" stroke-width="0.19" points="70.66,-41.77 61.67,-36.16 65.2,-46.15 70.66,-41.77"/>
</g>
<!-- 2119 -->
<g id="node26" class="node">
<title>2119</title>
<ellipse fill="white" stroke="black" cx="109.75" cy="-24.04" rx="24.04" ry="24.04"/>
<text text-anchor="middle" x="109.75" y="-20.74" font-family="Times,serif" font-size="9.00">2119</text>
</g>
<!-- &#45;15&#45;&gt;2119 -->
<g id="edge11" class="edge">
<title>&#45;15&#45;&gt;2119</title>
<path fill="none" stroke="green" stroke-width="0.1" d="M107.13,-83.81C107.42,-77.32 107.84,-67.92 108.26,-58.55"/>
<polygon fill="green" stroke="green" stroke-width="0.1" points="111.75,-58.82 108.7,-48.67 104.75,-58.51 111.75,-58.82"/>
</g>
<!-- &#45;16 -->
<g id="node16" class="node">
<title>&#45;16</title>
<polygon fill="lightgray" stroke="black" points="556.75,-102.58 528.75,-102.58 528.75,-84.08 556.75,-84.08 556.75,-102.58"/>
<text text-anchor="middle" x="542.75" y="-90.03" font-family="Times,serif" font-size="9.00">&#45;16</text>
</g>
<!-- &#45;16&#45;&gt;1 -->
<g id="edge15" class="edge">
<title>&#45;16&#45;&gt;1</title>
<path fill="none" stroke="green" stroke-width="0.56" d="M531.1,-83.81C515.96,-72.74 489.29,-53.23 470.85,-39.74"/>
<polygon fill="green" stroke="green" stroke-width="0.56" points="473.12,-37.07 462.99,-33.99 468.99,-42.72 473.12,-37.07"/>
</g>
<!-- &#45;17 -->
<g id="node17" class="node">
<title>&#45;17</title>
<polygon fill="lightgray" stroke="black" points="778.75,-102.58 750.75,-102.58 750.75,-84.08 778.75,-84.08 778.75,-102.58"/>
<text text-anchor="middle" x="764.75" y="-90.03" font-family="Times,serif" font-size="9.00">&#45;17</text>
</g>
<!-- &#45;18 -->
<g id="node18" class="node">
<title>&#45;18</title>
<polygon fill="lightgray" stroke="black" points="824.75,-102.58 796.75,-102.58 796.75,-84.08 824.75,-84.08 824.75,-102.58"/>
<text text-anchor="middle" x="810.75" y="-90.03" font-family="Times,serif" font-size="9.00">&#45;18</text>
</g>
<!-- &#45;19 -->
<g id="node19" class="node">
<title>&#45;19</title>
<polygon fill="lightgray" stroke="black" points="292.75,-102.58 264.75,-102.58 264.75,-84.08 292.75,-84.08 292.75,-102.58"/>
<text text-anchor="middle" x="278.75" y="-90.03" font-family="Times,serif" font-size="9.00">&#45;19</text>
</g>
<!-- &#45;19&#45;&gt;4 -->
<g id="edge7" class="edge">
<title>&#45;19&#45;&gt;4</title>
<path fill="none" stroke="green" stroke-width="0.4" stroke-dasharray="1,5" d="M275.71,-83.81C272.48,-74.75 267.23,-60.04 262.8,-47.6"/>
<polygon fill="green" stroke="green" stroke-width="0.4" points="266.18,-46.68 259.53,-38.44 259.59,-49.03 266.18,-46.68"/>
</g>
<!-- &#45;20 -->
<g id="node20" class="node">
<title>&#45;20</title>
<polygon fill="lightgray" stroke="black" points="870.75,-102.58 842.75,-102.58 842.75,-84.08 870.75,-84.08 870.75,-102.58"/>
<text text-anchor="middle" x="856.75" y="-90.03" font-family="Times,serif" font-size="9.00">&#45;20</text>
</g>
</g>
</svg>
