<?xml version="1.0" encoding="UTF-8" standalone="no"?>
<!DOCTYPE svg PUBLIC "-//W3C//DTD SVG 1.1//EN"
 "http://www.w3.org/Graphics/SVG/1.1/DTD/svg11.dtd">
<!-- Generated by graphviz version 12.1.1 (20240910.0053)
 -->
<!-- Pages: 1 -->
<svg width="874pt" height="176pt"
 viewBox="0.00 0.00 873.75 175.57" xmlns="http://www.w3.org/2000/svg" xmlns:xlink="http://www.w3.org/1999/xlink">
<g id="graph0" class="graph" transform="scale(1 1) rotate(0) translate(4 171.57)">
<polygon fill="white" stroke="none" points="-4,4 -4,-171.57 869.75,-171.57 869.75,4 -4,4"/>
<!-- &#45;1 -->
<g id="node1" class="node">
<title>&#45;1</title>
<polygon fill="lightgray" stroke="black" points="23.5,-167.57 0,-167.57 0,-149.07 23.5,-149.07 23.5,-167.57"/>
<text text-anchor="middle" x="11.75" y="-155.02" font-family="Times,serif" font-size="9.00">&#45;1</text>
</g>
<!-- &#45;2 -->
<g id="node2" class="node">
<title>&#45;2</title>
<polygon fill="lightgray" stroke="black" points="65.5,-167.57 42,-167.57 42,-149.07 65.5,-149.07 65.5,-167.57"/>
<text text-anchor="middle" x="53.75" y="-155.02" font-family="Times,serif" font-size="9.00">&#45;2</text>
</g>
<!-- 4 -->
<g id="node25" class="node">
<title>4</title>
<ellipse fill="lightblue" stroke="black" cx="53.75" cy="-98.58" rx="14.5" ry="14.5"/>
<text text-anchor="middle" x="53.75" y="-95.28" font-family="Times,serif" font-size="9.00">4</text>
</g>
<!-- &#45;2&#45;&gt;4 -->
<g id="edge4" class="edge">
<title>&#45;2&#45;&gt;4</title>
<path fill="none" stroke="green" stroke-width="0.41" d="M53.75,-148.8C53.75,-142.27 53.75,-132.92 53.75,-124.12"/>
<polygon fill="green" stroke="green" stroke-width="0.41" points="57.25,-124.13 53.75,-114.13 50.25,-124.13 57.25,-124.13"/>
</g>
<!-- &#45;3 -->
<g id="node3" class="node">
<title>&#45;3</title>
<polygon fill="lightgray" stroke="black" points="107.5,-167.57 84,-167.57 84,-149.07 107.5,-149.07 107.5,-167.57"/>
<text text-anchor="middle" x="95.75" y="-155.02" font-family="Times,serif" font-size="9.00">&#45;3</text>
</g>
<!-- 1 -->
<g id="node22" class="node">
<title>1</title>
<ellipse fill="lightblue" stroke="black" cx="137.75" cy="-98.58" rx="14.5" ry="14.5"/>
<text text-anchor="middle" x="137.75" y="-95.28" font-family="Times,serif" font-size="9.00">1</text>
</g>
<!-- &#45;3&#45;&gt;1 -->
<g id="edge7" class="edge">
<title>&#45;3&#45;&gt;1</title>
<path fill="none" stroke="red" stroke-width="0.82" d="M101.95,-148.8C107.48,-141.2 115.8,-129.75 123.03,-119.81"/>
<polygon fill="red" stroke="red" stroke-width="0.82" points="125.72,-122.07 128.77,-111.93 120.06,-117.95 125.72,-122.07"/>
</g>
<!-- &#45;4 -->
<g id="node4" class="node">
<title>&#45;4</title>
<polygon fill="lightgray" stroke="black" points="325.5,-167.57 302,-167.57 302,-149.07 325.5,-149.07 325.5,-167.57"/>
<text text-anchor="middle" x="313.75" y="-155.02" font-family="Times,serif" font-size="9.00">&#45;4</text>
</g>
<!-- &#45;5 -->
<g id="node5" class="node">
<title>&#45;5</title>
<polygon fill="lightgray" stroke="black" points="149.5,-167.57 126,-167.57 126,-149.07 149.5,-149.07 149.5,-167.57"/>
<text text-anchor="middle" x="137.75" y="-155.02" font-family="Times,serif" font-size="9.00">&#45;5</text>
</g>
<!-- &#45;5&#45;&gt;1 -->
<g id="edge2" class="edge">
<title>&#45;5&#45;&gt;1</title>
<path fill="none" stroke="red" stroke-width="0.44" stroke-dasharray="1,5" d="M137.75,-148.8C137.75,-142.27 137.75,-132.92 137.75,-124.12"/>
<polygon fill="red" stroke="red" stroke-width="0.44" points="141.25,-124.17 137.75,-114.17 134.25,-124.17 141.25,-124.17"/>
</g>
<!-- &#45;6 -->
<g id="node6" class="node">
<title>&#45;6</title>
<polygon fill="lightgray" stroke="black" points="367.5,-167.57 344,-167.57 344,-149.07 367.5,-149.07 367.5,-167.57"/>
<text text-anchor="middle" x="355.75" y="-155.02" font-family="Times,serif" font-size="9.00">&#45;6</text>
</g>
<!-- &#45;7 -->
<g id="node7" class="node">
<title>&#45;7</title>
<polygon fill="lightgray" stroke="black" points="191.5,-167.57 168,-167.57 168,-149.07 191.5,-149.07 191.5,-167.57"/>
<text text-anchor="middle" x="179.75" y="-155.02" font-family="Times,serif" font-size="9.00">&#45;7</text>
</g>
<!-- &#45;7&#45;&gt;1 -->
<g id="edge8" class="edge">
<title>&#45;7&#45;&gt;1</title>
<path fill="none" stroke="red" stroke-width="1.08" d="M173.55,-148.8C168.08,-141.27 159.87,-129.99 152.69,-120.12"/>
<polygon fill="red" stroke="red" stroke-width="1.08" points="155.67,-118.27 146.96,-112.24 150.01,-122.39 155.67,-118.27"/>
</g>
<!-- 2 -->
<g id="node23" class="node">
<title>2</title>
<ellipse fill="lightblue" stroke="black" cx="223.75" cy="-98.58" rx="14.5" ry="14.5"/>
<text text-anchor="middle" x="223.75" y="-95.28" font-family="Times,serif" font-size="9.00">2</text>
</g>
<!-- &#45;7&#45;&gt;2 -->
<g id="edge13" class="edge">
<title>&#45;7&#45;&gt;2</title>
<path fill="none" stroke="red" stroke-width="0.16" d="M186.24,-148.8C192.29,-140.86 201.53,-128.74 209.32,-118.52"/>
<polygon fill="red" stroke="red" stroke-width="0.16" points="212,-120.77 215.28,-110.7 206.43,-116.53 212,-120.77"/>
</g>
<!-- &#45;8 -->
<g id="node8" class="node">
<title>&#45;8</title>
<polygon fill="lightgray" stroke="black" points="409.5,-167.57 386,-167.57 386,-149.07 409.5,-149.07 409.5,-167.57"/>
<text text-anchor="middle" x="397.75" y="-155.02" font-family="Times,serif" font-size="9.00">&#45;8</text>
</g>
<!-- &#45;9 -->
<g id="node9" class="node">
<title>&#45;9</title>
<polygon fill="lightgray" stroke="black" points="451.5,-167.57 428,-167.57 428,-149.07 451.5,-149.07 451.5,-167.57"/>
<text text-anchor="middle" x="439.75" y="-155.02" font-family="Times,serif" font-size="9.00">&#45;9</text>
</g>
<!-- &#45;10 -->
<g id="node10" class="node">
<title>&#45;10</title>
<polygon fill="lightgray" stroke="black" points="497.75,-167.57 469.75,-167.57 469.75,-149.07 497.75,-149.07 497.75,-167.57"/>
<text text-anchor="middle" x="483.75" y="-155.02" font-family="Times,serif" font-size="9.00">&#45;10</text>
</g>
<!-- &#45;11 -->
<g id="node11" class="node">
<title>&#45;11</title>
<polygon fill="lightgray" stroke="black" points="543.75,-167.57 515.75,-167.57 515.75,-149.07 543.75,-149.07 543.75,-167.57"/>
<text text-anchor="middle" x="529.75" y="-155.02" font-family="Times,serif" font-size="9.00">&#45;11</text>
</g>
<!-- &#45;12 -->
<g id="node12" class="node">
<title>&#45;12</title>
<polygon fill="lightgray" stroke="black" points="635.75,-167.57 607.75,-167.57 607.75,-149.07 635.75,-149.07 635.75,-167.57"/>
<text text-anchor="middle" x="621.75" y="-155.02" font-family="Times,serif" font-size="9.00">&#45;12</text>
</g>
<!-- 0 -->
<g id="node21" class="node">
<title>0</title>
<ellipse fill="lightblue" stroke="black" cx="586.75" cy="-98.58" rx="14.5" ry="14.5"/>
<text text-anchor="middle" x="586.75" y="-95.28" font-family="Times,serif" font-size="9.00">0</text>
</g>
<!-- &#45;12&#45;&gt;0 -->
<g id="edge9" class="edge">
<title>&#45;12&#45;&gt;0</title>
<path fill="none" stroke="red" stroke-width="0.56" d="M616.59,-148.8C612.08,-141.37 605.35,-130.27 599.43,-120.49"/>
<polygon fill="red" stroke="red" stroke-width="0.56" points="602.49,-118.8 594.31,-112.06 596.5,-122.43 602.49,-118.8"/>
</g>
<!-- 3 -->
<g id="node24" class="node">
<title>3</title>
<ellipse fill="lightblue" stroke="black" cx="655.75" cy="-98.58" rx="14.5" ry="14.5"/>
<text text-anchor="middle" x="655.75" y="-95.28" font-family="Times,serif" font-size="9.00">3</text>
</g>
<!-- &#45;12&#45;&gt;3 -->
<g id="edge3" class="edge">
<title>&#45;12&#45;&gt;3</title>
<path fill="none" stroke="green" stroke-width="0.75" d="M626.77,-148.8C631.1,-141.45 637.54,-130.5 643.26,-120.8"/>
<polygon fill="green" stroke="green" stroke-width="0.75" points="646.19,-122.72 648.25,-112.32 640.16,-119.16 646.19,-122.72"/>
</g>
<!-- &#45;13 -->
<g id="node13" class="node">
<title>&#45;13</title>
<polygon fill="lightgray" stroke="black" points="681.75,-167.57 653.75,-167.57 653.75,-149.07 681.75,-149.07 681.75,-167.57"/>
<text text-anchor="middle" x="667.75" y="-155.02" font-family="Times,serif" font-size="9.00">&#45;13</text>
</g>
<!-- &#45;13&#45;&gt;3 -->
<g id="edge6" class="edge">
<title>&#45;13&#45;&gt;3</title>
<path fill="none" stroke="green" stroke-width="0.46" stroke-dasharray="1,5" d="M665.98,-148.8C664.59,-142.11 662.58,-132.45 660.71,-123.46"/>
<polygon fill="green" stroke="green" stroke-width="0.46" points="664.16,-122.82 658.69,-113.74 657.3,-124.25 664.16,-122.82"/>
</g>
<!-- &#45;14 -->
<g id="node14" class="node">
<title>&#45;14</title>
<polygon fill="lightgray" stroke="black" points="727.75,-167.57 699.75,-167.57 699.75,-149.07 727.75,-149.07 727.75,-167.57"/>
<text text-anchor="middle" x="713.75" y="-155.02" font-family="Times,serif" font-size="9.00">&#45;14</text>
</g>
<!-- &#45;15 -->
<g id="node15" class="node">
<title>&#45;15</title>
<polygon fill="lightgray" stroke="black" points="773.75,-167.57 745.75,-167.57 745.75,-149.07 773.75,-149.07 773.75,-167.57"/>
<text text-anchor="middle" x="759.75" y="-155.02" font-family="Times,serif" font-size="9.00">&#45;15</text>
</g>
<!-- &#45;16 -->
<g id="node16" class="node">
<title>&#45;16</title>
<polygon fill="lightgray" stroke="black" points="819.75,-167.57 791.75,-167.57 791.75,-149.07 819.75,-149.07 819.75,-167.57"/>
<text text-anchor="middle" x="805.75" y="-155.02" font-family="Times,serif" font-size="9.00">&#45;16</text>
</g>
<!-- &#45;17 -->
<g id="node17" class="node">
<title>&#45;17</title>
<polygon fill="lightgray" stroke="black" points="589.75,-167.57 561.75,-167.57 561.75,-149.07 589.75,-149.07 589.75,-167.57"/>
<text text-anchor="middle" x="575.75" y="-155.02" font-family="Times,serif" font-size="9.00">&#45;17</text>
</g>
<!-- &#45;17&#45;&gt;0 -->
<g id="edge10" class="edge">
<title>&#45;17&#45;&gt;0</title>
<path fill="none" stroke="red" stroke-width="0.61" stroke-dasharray="1,5" d="M577.37,-148.8C578.63,-142.19 580.45,-132.67 582.14,-123.76"/>
<polygon fill="red" stroke="red" stroke-width="0.61" points="585.58,-124.45 584.01,-113.97 578.7,-123.14 585.58,-124.45"/>
</g>
<!-- &#45;18 -->
<g id="node18" class="node">
<title>&#45;18</title>
<polygon fill="lightgray" stroke="black" points="237.75,-167.57 209.75,-167.57 209.75,-149.07 237.75,-149.07 237.75,-167.57"/>
<text text-anchor="middle" x="223.75" y="-155.02" font-family="Times,serif" font-size="9.00">&#45;18</text>
</g>
<!-- &#45;18&#45;&gt;2 -->
<g id="edge5" class="edge">
<title>&#45;18&#45;&gt;2</title>
<path fill="none" stroke="red" stroke-width="0.19" d="M223.75,-148.8C223.75,-142.13 223.75,-132.5 223.75,-123.53"/>
<polygon fill="red" stroke="red" stroke-width="0.19" points="227.25,-123.8 223.75,-113.8 220.25,-123.8 227.25,-123.8"/>
</g>
<!-- &#45;19 -->
<g id="node19" class="node">
<title>&#45;19</title>
<polygon fill="lightgray" stroke="black" points="865.75,-167.57 837.75,-167.57 837.75,-149.07 865.75,-149.07 865.75,-167.57"/>
<text text-anchor="middle" x="851.75" y="-155.02" font-family="Times,serif" font-size="9.00">&#45;19</text>
</g>
<!-- &#45;20 -->
<g id="node20" class="node">
<title>&#45;20</title>
<polygon fill="lightgray" stroke="black" points="283.75,-167.57 255.75,-167.57 255.75,-149.07 283.75,-149.07 283.75,-167.57"/>
<text text-anchor="middle" x="269.75" y="-155.02" font-family="Times,serif" font-size="9.00">&#45;20</text>
</g>
<!-- &#45;20&#45;&gt;2 -->
<g id="edge1" class="edge">
<title>&#45;20&#45;&gt;2</title>
<path fill="none" stroke="green" stroke-width="0.35" d="M262.96,-148.8C256.64,-140.86 246.98,-128.74 238.83,-118.52"/>
<polygon fill="green" stroke="green" stroke-width="0.35" points="241.75,-116.56 232.78,-110.92 236.28,-120.92 241.75,-116.56"/>
</g>
<!-- 6919 -->
<g id="node26" class="node">
<title>6919</title>
<ellipse fill="white" stroke="black" cx="137.75" cy="-24.04" rx="24.04" ry="24.04"/>
<text text-anchor="middle" x="137.75" y="-20.74" font-family="Times,serif" font-size="9.00">6919</text>
</g>
<!-- 1&#45;&gt;6919 -->
<g id="edge12" class="edge">
<title>1&#45;&gt;6919</title>
<path fill="none" stroke="green" stroke-width="0.4" d="M137.75,-83.59C137.75,-76.51 137.75,-67.58 137.75,-58.83"/>
<polygon fill="green" stroke="green" stroke-width="0.4" points="141.25,-59.01 137.75,-49.01 134.25,-59.01 141.25,-59.01"/>
</g>
<!-- 6919&#45;&gt;6919 -->
<g id="edge11" class="edge">
<title>6919&#45;&gt;6919</title>
<path fill="none" stroke="red" stroke-width="0.25" d="M158.08,-37.35C169.38,-39.83 179.79,-35.4 179.79,-24.04 179.79,-16.23 174.87,-11.7 168.13,-10.43"/>
<polygon fill="red" stroke="red" stroke-width="0.25" points="168.35,-6.92 158.46,-10.72 168.56,-13.92 168.35,-6.92"/>
</g>
</g>
</svg>
