<?xml version="1.0" encoding="UTF-8" standalone="no"?>
<!DOCTYPE svg PUBLIC "-//W3C//DTD SVG 1.1//EN"
 "http://www.w3.org/Graphics/SVG/1.1/DTD/svg11.dtd">
<!-- Generated by graphviz version 12.1.1 (20240910.0053)
 -->
<!-- Pages: 1 -->
<svg width="990pt" height="277pt"
 viewBox="0.00 0.00 990.50 276.51" xmlns="http://www.w3.org/2000/svg" xmlns:xlink="http://www.w3.org/1999/xlink">
<g id="graph0" class="graph" transform="scale(1 1) rotate(0) translate(4 272.51)">
<polygon fill="white" stroke="none" points="-4,4 -4,-272.51 986.5,-272.51 986.5,4 -4,4"/>
<!-- &#45;1 -->
<g id="node1" class="node">
<title>&#45;1</title>
<polygon fill="lightgray" stroke="black" points="151.75,-263.27 128.25,-263.27 128.25,-244.77 151.75,-244.77 151.75,-263.27"/>
<text text-anchor="middle" x="140" y="-250.72" font-family="Times,serif" font-size="9.00">&#45;1</text>
</g>
<!-- 3 -->
<g id="node24" class="node">
<title>3</title>
<ellipse fill="lightblue" stroke="black" cx="114" cy="-92.21" rx="14.5" ry="14.5"/>
<text text-anchor="middle" x="114" y="-88.91" font-family="Times,serif" font-size="9.00">3</text>
</g>
<!-- &#45;1&#45;&gt;3 -->
<g id="edge15" class="edge">
<title>&#45;1&#45;&gt;3</title>
<path fill="none" stroke="red" stroke-width="0.12" d="M138.6,-244.43C134.7,-220.47 123.62,-152.33 117.75,-116.26"/>
<polygon fill="red" stroke="red" stroke-width="0.12" points="121.26,-116.07 116.2,-106.76 114.36,-117.2 121.26,-116.07"/>
</g>
<!-- 9641 -->
<g id="node27" class="node">
<title>9641</title>
<ellipse fill="white" stroke="black" cx="166" cy="-179.48" rx="24.04" ry="24.04"/>
<text text-anchor="middle" x="166" y="-176.18" font-family="Times,serif" font-size="9.00">9641</text>
</g>
<!-- &#45;1&#45;&gt;9641 -->
<g id="edge19" class="edge">
<title>&#45;1&#45;&gt;9641</title>
<path fill="none" stroke="green" stroke-width="0.98" stroke-dasharray="1,5" d="M143.08,-244.41C145.88,-236.62 150.17,-224.63 154.3,-213.14"/>
<polygon fill="green" stroke="green" stroke-width="0.98" points="157.56,-214.41 157.64,-203.81 150.97,-212.05 157.56,-214.41"/>
</g>
<!-- &#45;2 -->
<g id="node2" class="node">
<title>&#45;2</title>
<polygon fill="lightgray" stroke="black" points="229.75,-263.27 206.25,-263.27 206.25,-244.77 229.75,-244.77 229.75,-263.27"/>
<text text-anchor="middle" x="218" y="-250.72" font-family="Times,serif" font-size="9.00">&#45;2</text>
</g>
<!-- 4 -->
<g id="node25" class="node">
<title>4</title>
<ellipse fill="lightblue" stroke="black" cx="256" cy="-14.5" rx="14.5" ry="14.5"/>
<text text-anchor="middle" x="256" y="-11.2" font-family="Times,serif" font-size="9.00">4</text>
</g>
<!-- &#45;2&#45;&gt;4 -->
<g id="edge3" class="edge">
<title>&#45;2&#45;&gt;4</title>
<path fill="none" stroke="green" stroke-width="0.2" d="M219.4,-244.28C224.75,-210.84 244.04,-90.25 252.25,-38.91"/>
<polygon fill="green" stroke="green" stroke-width="0.2" points="255.66,-39.78 253.78,-29.35 248.75,-38.67 255.66,-39.78"/>
</g>
<!-- 9043 -->
<g id="node31" class="node">
<title>9043</title>
<ellipse fill="white" stroke="black" cx="62" cy="-179.48" rx="24.04" ry="24.04"/>
<text text-anchor="middle" x="62" y="-176.18" font-family="Times,serif" font-size="9.00">9043</text>
</g>
<!-- &#45;2&#45;&gt;9043 -->
<g id="edge23" class="edge">
<title>&#45;2&#45;&gt;9043</title>
<path fill="none" stroke="green" stroke-width="0.34" d="M205.76,-247.33C181.66,-236.12 127.43,-210.9 92.89,-194.85"/>
<polygon fill="green" stroke="green" stroke-width="0.34" points="94.73,-191.84 84.19,-190.8 91.78,-198.19 94.73,-191.84"/>
</g>
<!-- 9685 -->
<g id="node32" class="node">
<title>9685</title>
<ellipse fill="white" stroke="black" cx="270" cy="-179.48" rx="24.04" ry="24.04"/>
<text text-anchor="middle" x="270" y="-176.18" font-family="Times,serif" font-size="9.00">9685</text>
</g>
<!-- &#45;2&#45;&gt;9685 -->
<g id="edge21" class="edge">
<title>&#45;2&#45;&gt;9685</title>
<path fill="none" stroke="green" stroke-width="0.65" d="M224.17,-244.41C230.55,-235.51 240.86,-221.13 250.09,-208.26"/>
<polygon fill="green" stroke="green" stroke-width="0.65" points="252.68,-210.64 255.66,-200.48 246.99,-206.57 252.68,-210.64"/>
</g>
<!-- &#45;3 -->
<g id="node3" class="node">
<title>&#45;3</title>
<polygon fill="lightgray" stroke="black" points="513.75,-188.73 490.25,-188.73 490.25,-170.23 513.75,-170.23 513.75,-188.73"/>
<text text-anchor="middle" x="502" y="-176.18" font-family="Times,serif" font-size="9.00">&#45;3</text>
</g>
<!-- 1 -->
<g id="node22" class="node">
<title>1</title>
<ellipse fill="lightblue" stroke="black" cx="483" cy="-14.5" rx="14.5" ry="14.5"/>
<text text-anchor="middle" x="483" y="-11.2" font-family="Times,serif" font-size="9.00">1</text>
</g>
<!-- &#45;3&#45;&gt;1 -->
<g id="edge6" class="edge">
<title>&#45;3&#45;&gt;1</title>
<path fill="none" stroke="red" stroke-width="1.03" d="M501.03,-170.17C498.27,-146.51 490.29,-78.06 485.93,-40.64"/>
<polygon fill="red" stroke="red" stroke-width="1.03" points="489.42,-40.33 484.78,-30.81 482.47,-41.15 489.42,-40.33"/>
</g>
<!-- 10092 -->
<g id="node28" class="node">
<title>10092</title>
<ellipse fill="white" stroke="black" cx="557" cy="-92.21" rx="27.22" ry="27.22"/>
<text text-anchor="middle" x="557" y="-88.91" font-family="Times,serif" font-size="9.00">10092</text>
</g>
<!-- &#45;3&#45;&gt;10092 -->
<g id="edge30" class="edge">
<title>&#45;3&#45;&gt;10092</title>
<path fill="none" stroke="green" stroke-width="0.41" d="M507.47,-169.99C514.31,-159.4 526.37,-140.7 536.88,-124.4"/>
<polygon fill="green" stroke="green" stroke-width="0.41" points="539.71,-126.48 542.19,-116.18 533.83,-122.68 539.71,-126.48"/>
</g>
<!-- &#45;4 -->
<g id="node4" class="node">
<title>&#45;4</title>
<polygon fill="lightgray" stroke="black" points="579.75,-263.27 556.25,-263.27 556.25,-244.77 579.75,-244.77 579.75,-263.27"/>
<text text-anchor="middle" x="568" y="-250.72" font-family="Times,serif" font-size="9.00">&#45;4</text>
</g>
<!-- 2 -->
<g id="node23" class="node">
<title>2</title>
<ellipse fill="lightblue" stroke="black" cx="546" cy="-179.48" rx="14.5" ry="14.5"/>
<text text-anchor="middle" x="546" y="-176.18" font-family="Times,serif" font-size="9.00">2</text>
</g>
<!-- &#45;4&#45;&gt;2 -->
<g id="edge10" class="edge">
<title>&#45;4&#45;&gt;2</title>
<path fill="none" stroke="red" stroke-width="0.22" d="M565.39,-244.41C562.33,-234.33 557.14,-217.21 552.9,-203.23"/>
<polygon fill="red" stroke="red" stroke-width="0.22" points="556.37,-202.62 550.12,-194.06 549.67,-204.65 556.37,-202.62"/>
</g>
<!-- &#45;5 -->
<g id="node5" class="node">
<title>&#45;5</title>
<polygon fill="lightgray" stroke="black" points="455.75,-188.73 432.25,-188.73 432.25,-170.23 455.75,-170.23 455.75,-188.73"/>
<text text-anchor="middle" x="444" y="-176.18" font-family="Times,serif" font-size="9.00">&#45;5</text>
</g>
<!-- &#45;5&#45;&gt;1 -->
<g id="edge1" class="edge">
<title>&#45;5&#45;&gt;1</title>
<path fill="none" stroke="red" stroke-width="0.63" d="M445.99,-170.17C451.73,-146.19 468.48,-76.18 477.35,-39.13"/>
<polygon fill="red" stroke="red" stroke-width="0.63" points="480.68,-40.25 479.6,-29.71 473.87,-38.62 480.68,-40.25"/>
</g>
<!-- 8499 -->
<g id="node30" class="node">
<title>8499</title>
<ellipse fill="white" stroke="black" cx="374" cy="-92.21" rx="24.04" ry="24.04"/>
<text text-anchor="middle" x="374" y="-88.91" font-family="Times,serif" font-size="9.00">8499</text>
</g>
<!-- &#45;5&#45;&gt;8499 -->
<g id="edge8" class="edge">
<title>&#45;5&#45;&gt;8499</title>
<path fill="none" stroke="green" stroke-width="0.68" d="M437.03,-169.99C427.46,-158.34 409.83,-136.85 395.64,-119.57"/>
<polygon fill="green" stroke="green" stroke-width="0.68" points="398.7,-117.78 389.65,-112.28 393.29,-122.23 398.7,-117.78"/>
</g>
<!-- &#45;6 -->
<g id="node6" class="node">
<title>&#45;6</title>
<polygon fill="lightgray" stroke="black" points="73.75,-263.27 50.25,-263.27 50.25,-244.77 73.75,-244.77 73.75,-263.27"/>
<text text-anchor="middle" x="62" y="-250.72" font-family="Times,serif" font-size="9.00">&#45;6</text>
</g>
<!-- &#45;6&#45;&gt;9043 -->
<g id="edge18" class="edge">
<title>&#45;6&#45;&gt;9043</title>
<path fill="none" stroke="green" stroke-width="0.29" stroke-dasharray="1,5" d="M62,-244.41C62,-236.9 62,-225.5 62,-214.4"/>
<polygon fill="green" stroke="green" stroke-width="0.29" points="65.5,-214.42 62,-204.42 58.5,-214.42 65.5,-214.42"/>
</g>
<!-- &#45;7 -->
<g id="node7" class="node">
<title>&#45;7</title>
<polygon fill="lightgray" stroke="black" points="621.75,-263.27 598.25,-263.27 598.25,-244.77 621.75,-244.77 621.75,-263.27"/>
<text text-anchor="middle" x="610" y="-250.72" font-family="Times,serif" font-size="9.00">&#45;7</text>
</g>
<!-- &#45;8 -->
<g id="node8" class="node">
<title>&#45;8</title>
<polygon fill="lightgray" stroke="black" points="663.75,-263.27 640.25,-263.27 640.25,-244.77 663.75,-244.77 663.75,-263.27"/>
<text text-anchor="middle" x="652" y="-250.72" font-family="Times,serif" font-size="9.00">&#45;8</text>
</g>
<!-- &#45;9 -->
<g id="node9" class="node">
<title>&#45;9</title>
<polygon fill="lightgray" stroke="black" points="705.75,-263.27 682.25,-263.27 682.25,-244.77 705.75,-244.77 705.75,-263.27"/>
<text text-anchor="middle" x="694" y="-250.72" font-family="Times,serif" font-size="9.00">&#45;9</text>
</g>
<!-- &#45;10 -->
<g id="node10" class="node">
<title>&#45;10</title>
<polygon fill="lightgray" stroke="black" points="408,-263.27 380,-263.27 380,-244.77 408,-244.77 408,-263.27"/>
<text text-anchor="middle" x="394" y="-250.72" font-family="Times,serif" font-size="9.00">&#45;10</text>
</g>
<!-- 8464 -->
<g id="node29" class="node">
<title>8464</title>
<ellipse fill="white" stroke="black" cx="374" cy="-179.48" rx="24.04" ry="24.04"/>
<text text-anchor="middle" x="374" y="-176.18" font-family="Times,serif" font-size="9.00">8464</text>
</g>
<!-- &#45;10&#45;&gt;8464 -->
<g id="edge11" class="edge">
<title>&#45;10&#45;&gt;8464</title>
<path fill="none" stroke="red" stroke-width="0.27" stroke-dasharray="1,5" d="M391.63,-244.41C389.47,-236.57 386.14,-224.5 382.95,-212.94"/>
<polygon fill="red" stroke="red" stroke-width="0.27" points="386.36,-212.14 380.33,-203.43 379.61,-214 386.36,-212.14"/>
</g>
<!-- &#45;11 -->
<g id="node11" class="node">
<title>&#45;11</title>
<polygon fill="lightgray" stroke="black" points="752,-263.27 724,-263.27 724,-244.77 752,-244.77 752,-263.27"/>
<text text-anchor="middle" x="738" y="-250.72" font-family="Times,serif" font-size="9.00">&#45;11</text>
</g>
<!-- &#45;12 -->
<g id="node12" class="node">
<title>&#45;12</title>
<polygon fill="lightgray" stroke="black" points="798,-263.27 770,-263.27 770,-244.77 798,-244.77 798,-263.27"/>
<text text-anchor="middle" x="784" y="-250.72" font-family="Times,serif" font-size="9.00">&#45;12</text>
</g>
<!-- &#45;13 -->
<g id="node13" class="node">
<title>&#45;13</title>
<polygon fill="lightgray" stroke="black" points="28,-263.27 0,-263.27 0,-244.77 28,-244.77 28,-263.27"/>
<text text-anchor="middle" x="14" y="-250.72" font-family="Times,serif" font-size="9.00">&#45;13</text>
</g>
<!-- &#45;13&#45;&gt;3 -->
<g id="edge5" class="edge">
<title>&#45;13&#45;&gt;3</title>
<path fill="none" stroke="green" stroke-width="0.18" stroke-dasharray="1,5" d="M13.23,-244.46C12.04,-226.53 11.47,-184.3 29,-155.44 43.76,-131.12 71.97,-113.38 91.83,-103.21"/>
<polygon fill="green" stroke="green" stroke-width="0.18" points="93.12,-106.47 100.57,-98.94 90.05,-100.18 93.12,-106.47"/>
</g>
<!-- &#45;13&#45;&gt;9043 -->
<g id="edge13" class="edge">
<title>&#45;13&#45;&gt;9043</title>
<path fill="none" stroke="green" stroke-width="0.38" stroke-dasharray="1,5" d="M19.69,-244.41C25.55,-235.57 34.97,-221.33 43.44,-208.52"/>
<polygon fill="green" stroke="green" stroke-width="0.38" points="46.18,-210.73 48.78,-200.46 40.34,-206.87 46.18,-210.73"/>
</g>
<!-- &#45;14 -->
<g id="node14" class="node">
<title>&#45;14</title>
<polygon fill="lightgray" stroke="black" points="844,-263.27 816,-263.27 816,-244.77 844,-244.77 844,-263.27"/>
<text text-anchor="middle" x="830" y="-250.72" font-family="Times,serif" font-size="9.00">&#45;14</text>
</g>
<!-- &#45;15 -->
<g id="node15" class="node">
<title>&#45;15</title>
<polygon fill="lightgray" stroke="black" points="890,-263.27 862,-263.27 862,-244.77 890,-244.77 890,-263.27"/>
<text text-anchor="middle" x="876" y="-250.72" font-family="Times,serif" font-size="9.00">&#45;15</text>
</g>
<!-- &#45;16 -->
<g id="node16" class="node">
<title>&#45;16</title>
<polygon fill="lightgray" stroke="black" points="936,-263.27 908,-263.27 908,-244.77 936,-244.77 936,-263.27"/>
<text text-anchor="middle" x="922" y="-250.72" font-family="Times,serif" font-size="9.00">&#45;16</text>
</g>
<!-- &#45;17 -->
<g id="node17" class="node">
<title>&#45;17</title>
<polygon fill="lightgray" stroke="black" points="630,-101.46 602,-101.46 602,-82.96 630,-82.96 630,-101.46"/>
<text text-anchor="middle" x="616" y="-88.91" font-family="Times,serif" font-size="9.00">&#45;17</text>
</g>
<!-- &#45;17&#45;&gt;1 -->
<g id="edge2" class="edge">
<title>&#45;17&#45;&gt;1</title>
<path fill="none" stroke="red" stroke-width="0.84" d="M609.94,-82.56C605.7,-76.98 599.62,-69.89 593,-64.99 566.38,-45.3 530.67,-31.05 507.27,-23.03"/>
<polygon fill="red" stroke="red" stroke-width="0.84" points="508.65,-19.81 498.06,-20 506.46,-26.45 508.65,-19.81"/>
</g>
<!-- &#45;18 -->
<g id="node18" class="node">
<title>&#45;18</title>
<polygon fill="lightgray" stroke="black" points="474,-263.27 446,-263.27 446,-244.77 474,-244.77 474,-263.27"/>
<text text-anchor="middle" x="460" y="-250.72" font-family="Times,serif" font-size="9.00">&#45;18</text>
</g>
<!-- &#45;18&#45;&gt;2 -->
<g id="edge4" class="edge">
<title>&#45;18&#45;&gt;2</title>
<path fill="none" stroke="red" stroke-width="0.25" d="M471.95,-244.3C484.88,-234.72 505.94,-218.67 523,-203.52 525,-201.75 527.04,-199.85 529.04,-197.92"/>
<polygon fill="red" stroke="red" stroke-width="0.25" points="531.5,-200.41 536.14,-190.88 526.57,-195.44 531.5,-200.41"/>
</g>
<!-- &#45;18&#45;&gt;9641 -->
<g id="edge24" class="edge">
<title>&#45;18&#45;&gt;9641</title>
<path fill="none" stroke="red" stroke-width="0.26" d="M445.78,-248.13C437.45,-245.38 426.7,-242.01 417,-239.52 337.97,-219.28 315.93,-224.15 237,-203.52 224.17,-200.17 210.25,-195.81 198.16,-191.79"/>
<polygon fill="red" stroke="red" stroke-width="0.26" points="199.47,-188.54 188.88,-188.65 197.23,-195.17 199.47,-188.54"/>
</g>
<!-- &#45;19 -->
<g id="node19" class="node">
<title>&#45;19</title>
<polygon fill="lightgray" stroke="black" points="538,-263.27 510,-263.27 510,-244.77 538,-244.77 538,-263.27"/>
<text text-anchor="middle" x="524" y="-250.72" font-family="Times,serif" font-size="9.00">&#45;19</text>
</g>
<!-- &#45;19&#45;&gt;2 -->
<g id="edge9" class="edge">
<title>&#45;19&#45;&gt;2</title>
<path fill="none" stroke="green" stroke-width="0.5" stroke-dasharray="1,5" d="M526.61,-244.41C529.64,-234.42 534.76,-217.54 538.98,-203.64"/>
<polygon fill="green" stroke="green" stroke-width="0.5" points="542.2,-205.06 541.76,-194.47 535.5,-203.03 542.2,-205.06"/>
</g>
<!-- &#45;20 -->
<g id="node20" class="node">
<title>&#45;20</title>
<polygon fill="lightgray" stroke="black" points="362,-263.27 334,-263.27 334,-244.77 362,-244.77 362,-263.27"/>
<text text-anchor="middle" x="348" y="-250.72" font-family="Times,serif" font-size="9.00">&#45;20</text>
</g>
<!-- &#45;20&#45;&gt;8464 -->
<g id="edge17" class="edge">
<title>&#45;20&#45;&gt;8464</title>
<path fill="none" stroke="red" stroke-width="0.44" d="M351.08,-244.41C353.94,-236.46 358.35,-224.14 362.55,-212.42"/>
<polygon fill="red" stroke="red" stroke-width="0.44" points="365.83,-213.64 365.91,-203.05 359.24,-211.28 365.83,-213.64"/>
</g>
<!-- 0 -->
<g id="node21" class="node">
<title>0</title>
<ellipse fill="lightblue" stroke="black" cx="968" cy="-254.02" rx="14.5" ry="14.5"/>
<text text-anchor="middle" x="968" y="-250.72" font-family="Times,serif" font-size="9.00">0</text>
</g>
<!-- 9830 -->
<g id="node26" class="node">
<title>9830</title>
<ellipse fill="white" stroke="black" cx="308" cy="-92.21" rx="24.04" ry="24.04"/>
<text text-anchor="middle" x="308" y="-88.91" font-family="Times,serif" font-size="9.00">9830</text>
</g>
<!-- 9830&#45;&gt;1 -->
<g id="edge26" class="edge">
<title>9830&#45;&gt;1</title>
<path fill="none" stroke="green" stroke-width="0.56" d="M325.73,-75.35C330.47,-71.62 335.74,-67.89 341,-64.99 379.76,-43.64 429.45,-28.87 458.6,-21.32"/>
<polygon fill="green" stroke="green" stroke-width="0.56" points="459.38,-24.73 468.23,-18.9 457.68,-17.94 459.38,-24.73"/>
</g>
<!-- 9641&#45;&gt;3 -->
<g id="edge20" class="edge">
<title>9641&#45;&gt;3</title>
<path fill="none" stroke="green" stroke-width="0.56" d="M153.68,-158.27C145.56,-144.96 134.95,-127.56 126.74,-114.11"/>
<polygon fill="green" stroke="green" stroke-width="0.56" points="129.9,-112.57 121.71,-105.86 123.93,-116.22 129.9,-112.57"/>
</g>
<!-- 10092&#45;&gt;1 -->
<g id="edge31" class="edge">
<title>10092&#45;&gt;1</title>
<path fill="none" stroke="red" stroke-width="1.1" d="M538.33,-72.11C526.73,-60.24 511.91,-45.08 500.53,-33.43"/>
<polygon fill="red" stroke="red" stroke-width="1.1" points="503.26,-31.22 493.77,-26.52 498.26,-36.12 503.26,-31.22"/>
</g>
<!-- 8464&#45;&gt;1 -->
<g id="edge7" class="edge">
<title>8464&#45;&gt;1</title>
<path fill="none" stroke="red" stroke-width="0.44" d="M387.15,-158.82C407.98,-127.67 448.37,-67.27 469.45,-35.75"/>
<polygon fill="red" stroke="red" stroke-width="0.44" points="472.31,-37.77 474.96,-27.51 466.49,-33.88 472.31,-37.77"/>
</g>
<!-- 8464&#45;&gt;9830 -->
<g id="edge25" class="edge">
<title>8464&#45;&gt;9830</title>
<path fill="none" stroke="green" stroke-width="0.26" d="M359.68,-159.98C350.66,-148.33 338.87,-133.09 328.82,-120.11"/>
<polygon fill="green" stroke="green" stroke-width="0.26" points="331.65,-118.05 322.76,-112.29 326.12,-122.34 331.65,-118.05"/>
</g>
<!-- 8464&#45;&gt;8499 -->
<g id="edge12" class="edge">
<title>8464&#45;&gt;8499</title>
<path fill="none" stroke="green" stroke-width="0.12" d="M374,-155.18C374,-146.35 374,-136.11 374,-126.52"/>
<polygon fill="green" stroke="green" stroke-width="0.12" points="377.5,-126.67 374,-116.67 370.5,-126.67 377.5,-126.67"/>
</g>
<!-- 8499&#45;&gt;4 -->
<g id="edge16" class="edge">
<title>8499&#45;&gt;4</title>
<path fill="none" stroke="red" stroke-width="0.3" stroke-dasharray="1,5" d="M355.86,-76.03C351.12,-72.28 345.95,-68.38 341,-64.99 320.18,-50.77 295.1,-36.49 277.6,-26.94"/>
<polygon fill="red" stroke="red" stroke-width="0.3" points="279.6,-24.05 269.14,-22.38 276.28,-30.21 279.6,-24.05"/>
</g>
<!-- 9043&#45;&gt;3 -->
<g id="edge14" class="edge">
<title>9043&#45;&gt;3</title>
<path fill="none" stroke="red" stroke-width="0.22" d="M74.32,-158.27C82.52,-144.83 93.26,-127.23 101.49,-113.72"/>
<polygon fill="red" stroke="red" stroke-width="0.22" points="104.34,-115.77 106.56,-105.41 98.37,-112.13 104.34,-115.77"/>
</g>
<!-- 9685&#45;&gt;3 -->
<g id="edge27" class="edge">
<title>9685&#45;&gt;3</title>
<path fill="none" stroke="red" stroke-width="0.32" d="M248.96,-166.98C219.37,-150.81 165.74,-121.49 135.76,-105.11"/>
<polygon fill="red" stroke="red" stroke-width="0.32" points="137.45,-102.04 127,-100.32 134.09,-108.19 137.45,-102.04"/>
</g>
<!-- 9685&#45;&gt;4 -->
<g id="edge22" class="edge">
<title>9685&#45;&gt;4</title>
<path fill="none" stroke="red" stroke-width="0.29" stroke-dasharray="1,5" d="M267.99,-155.13C265.35,-124.4 260.74,-70.65 258.07,-39.57"/>
<polygon fill="red" stroke="red" stroke-width="0.29" points="261.56,-39.32 257.22,-29.66 254.59,-39.92 261.56,-39.32"/>
</g>
<!-- 9685&#45;&gt;9830 -->
<g id="edge29" class="edge">
<title>9685&#45;&gt;9830</title>
<path fill="none" stroke="green" stroke-width="0.36" d="M279.59,-156.96C284,-147.07 289.31,-135.14 294.15,-124.29"/>
<polygon fill="green" stroke="green" stroke-width="0.36" points="297.32,-125.79 298.19,-115.23 290.92,-122.94 297.32,-125.79"/>
</g>
<!-- 9685&#45;&gt;8499 -->
<g id="edge28" class="edge">
<title>9685&#45;&gt;8499</title>
<path fill="none" stroke="red" stroke-width="0.39" d="M288.12,-163.63C304.57,-150.14 329.04,-130.08 347.65,-114.82"/>
<polygon fill="red" stroke="red" stroke-width="0.39" points="349.78,-117.6 355.29,-108.55 345.34,-112.19 349.78,-117.6"/>
</g>
</g>
</svg>
