<?xml version="1.0" encoding="UTF-8" standalone="no"?>
<!DOCTYPE svg PUBLIC "-//W3C//DTD SVG 1.1//EN"
 "http://www.w3.org/Graphics/SVG/1.1/DTD/svg11.dtd">
<!-- Generated by graphviz version 12.1.1 (20240910.0053)
 -->
<!-- Pages: 1 -->
<svg width="870pt" height="176pt"
 viewBox="0.00 0.00 869.75 175.57" xmlns="http://www.w3.org/2000/svg" xmlns:xlink="http://www.w3.org/1999/xlink">
<g id="graph0" class="graph" transform="scale(1 1) rotate(0) translate(4 171.57)">
<polygon fill="white" stroke="none" points="-4,4 -4,-171.57 865.75,-171.57 865.75,4 -4,4"/>
<!-- &#45;1 -->
<g id="node1" class="node">
<title>&#45;1</title>
<polygon fill="lightgray" stroke="black" points="23.5,-167.57 0,-167.57 0,-149.07 23.5,-149.07 23.5,-167.57"/>
<text text-anchor="middle" x="11.75" y="-155.02" font-family="Times,serif" font-size="9.00">&#45;1</text>
</g>
<!-- &#45;2 -->
<g id="node2" class="node">
<title>&#45;2</title>
<polygon fill="lightgray" stroke="black" points="111.5,-167.57 88,-167.57 88,-149.07 111.5,-149.07 111.5,-167.57"/>
<text text-anchor="middle" x="99.75" y="-155.02" font-family="Times,serif" font-size="9.00">&#45;2</text>
</g>
<!-- 2 -->
<g id="node23" class="node">
<title>2</title>
<ellipse fill="lightblue" stroke="black" cx="56.75" cy="-89.03" rx="14.5" ry="14.5"/>
<text text-anchor="middle" x="56.75" y="-85.73" font-family="Times,serif" font-size="9.00">2</text>
</g>
<!-- &#45;2&#45;&gt;2 -->
<g id="edge8" class="edge">
<title>&#45;2&#45;&gt;2</title>
<path fill="none" stroke="red" stroke-width="0.41" stroke-dasharray="1,5" d="M94.3,-148.8C88.19,-139.24 78.06,-123.39 69.86,-110.56"/>
<polygon fill="red" stroke="red" stroke-width="0.41" points="72.99,-108.95 64.66,-102.41 67.09,-112.72 72.99,-108.95"/>
</g>
<!-- 4 -->
<g id="node25" class="node">
<title>4</title>
<ellipse fill="lightblue" stroke="black" cx="176.75" cy="-14.5" rx="14.5" ry="14.5"/>
<text text-anchor="middle" x="176.75" y="-11.2" font-family="Times,serif" font-size="9.00">4</text>
</g>
<!-- &#45;2&#45;&gt;4 -->
<g id="edge3" class="edge">
<title>&#45;2&#45;&gt;4</title>
<path fill="none" stroke="green" stroke-width="0.19" d="M99.57,-148.77C99.6,-131.64 101.58,-92.43 117.75,-64.99 126.91,-49.46 142.79,-36.55 155.77,-27.82"/>
<polygon fill="green" stroke="green" stroke-width="0.19" points="157.39,-30.94 163.94,-22.61 153.62,-25.04 157.39,-30.94"/>
</g>
<!-- 9181 -->
<g id="node26" class="node">
<title>9181</title>
<ellipse fill="white" stroke="black" cx="150.75" cy="-89.03" rx="24.04" ry="24.04"/>
<text text-anchor="middle" x="150.75" y="-85.73" font-family="Times,serif" font-size="9.00">9181</text>
</g>
<!-- &#45;2&#45;&gt;9181 -->
<g id="edge9" class="edge">
<title>&#45;2&#45;&gt;9181</title>
<path fill="none" stroke="red" stroke-width="0.16" d="M106.21,-148.8C112.29,-140.78 121.73,-128.32 130.36,-116.94"/>
<polygon fill="red" stroke="red" stroke-width="0.16" points="133.04,-119.2 136.29,-109.11 127.46,-114.97 133.04,-119.2"/>
</g>
<!-- &#45;3 -->
<g id="node3" class="node">
<title>&#45;3</title>
<polygon fill="lightgray" stroke="black" points="225.5,-167.57 202,-167.57 202,-149.07 225.5,-149.07 225.5,-167.57"/>
<text text-anchor="middle" x="213.75" y="-155.02" font-family="Times,serif" font-size="9.00">&#45;3</text>
</g>
<!-- &#45;4 -->
<g id="node4" class="node">
<title>&#45;4</title>
<polygon fill="lightgray" stroke="black" points="275.5,-167.57 252,-167.57 252,-149.07 275.5,-149.07 275.5,-167.57"/>
<text text-anchor="middle" x="263.75" y="-155.02" font-family="Times,serif" font-size="9.00">&#45;4</text>
</g>
<!-- &#45;5 -->
<g id="node5" class="node">
<title>&#45;5</title>
<polygon fill="lightgray" stroke="black" points="321.5,-167.57 298,-167.57 298,-149.07 321.5,-149.07 321.5,-167.57"/>
<text text-anchor="middle" x="309.75" y="-155.02" font-family="Times,serif" font-size="9.00">&#45;5</text>
</g>
<!-- 1 -->
<g id="node22" class="node">
<title>1</title>
<ellipse fill="lightblue" stroke="black" cx="309.75" cy="-89.03" rx="14.5" ry="14.5"/>
<text text-anchor="middle" x="309.75" y="-85.73" font-family="Times,serif" font-size="9.00">1</text>
</g>
<!-- &#45;5&#45;&gt;1 -->
<g id="edge1" class="edge">
<title>&#45;5&#45;&gt;1</title>
<path fill="none" stroke="red" stroke-width="0.39" d="M309.75,-148.8C309.75,-140.14 309.75,-126.31 309.75,-114.24"/>
<polygon fill="red" stroke="red" stroke-width="0.39" points="313.25,-114.44 309.75,-104.44 306.25,-114.44 313.25,-114.44"/>
</g>
<!-- &#45;6 -->
<g id="node6" class="node">
<title>&#45;6</title>
<polygon fill="lightgray" stroke="black" points="363.5,-167.57 340,-167.57 340,-149.07 363.5,-149.07 363.5,-167.57"/>
<text text-anchor="middle" x="351.75" y="-155.02" font-family="Times,serif" font-size="9.00">&#45;6</text>
</g>
<!-- &#45;7 -->
<g id="node7" class="node">
<title>&#45;7</title>
<polygon fill="lightgray" stroke="black" points="405.5,-167.57 382,-167.57 382,-149.07 405.5,-149.07 405.5,-167.57"/>
<text text-anchor="middle" x="393.75" y="-155.02" font-family="Times,serif" font-size="9.00">&#45;7</text>
</g>
<!-- &#45;8 -->
<g id="node8" class="node">
<title>&#45;8</title>
<polygon fill="lightgray" stroke="black" points="447.5,-167.57 424,-167.57 424,-149.07 447.5,-149.07 447.5,-167.57"/>
<text text-anchor="middle" x="435.75" y="-155.02" font-family="Times,serif" font-size="9.00">&#45;8</text>
</g>
<!-- &#45;9 -->
<g id="node9" class="node">
<title>&#45;9</title>
<polygon fill="lightgray" stroke="black" points="167.5,-167.57 144,-167.57 144,-149.07 167.5,-149.07 167.5,-167.57"/>
<text text-anchor="middle" x="155.75" y="-155.02" font-family="Times,serif" font-size="9.00">&#45;9</text>
</g>
<!-- &#45;9&#45;&gt;4 -->
<g id="edge12" class="edge">
<title>&#45;9&#45;&gt;4</title>
<path fill="none" stroke="red" stroke-width="0.46" d="M163.42,-148.58C170.27,-140.15 179.8,-126.7 183.75,-113.07 190.86,-88.55 187.2,-59.18 182.98,-39.11"/>
<polygon fill="red" stroke="red" stroke-width="0.46" points="186.4,-38.38 180.73,-29.43 179.58,-39.96 186.4,-38.38"/>
</g>
<!-- &#45;9&#45;&gt;9181 -->
<g id="edge11" class="edge">
<title>&#45;9&#45;&gt;9181</title>
<path fill="none" stroke="green" stroke-width="0.23" d="M155.12,-148.8C154.63,-142.31 153.94,-132.92 153.24,-123.54"/>
<polygon fill="green" stroke="green" stroke-width="0.23" points="156.75,-123.57 152.52,-113.86 149.77,-124.09 156.75,-123.57"/>
</g>
<!-- &#45;10 -->
<g id="node10" class="node">
<title>&#45;10</title>
<polygon fill="lightgray" stroke="black" points="493.75,-167.57 465.75,-167.57 465.75,-149.07 493.75,-149.07 493.75,-167.57"/>
<text text-anchor="middle" x="479.75" y="-155.02" font-family="Times,serif" font-size="9.00">&#45;10</text>
</g>
<!-- &#45;11 -->
<g id="node11" class="node">
<title>&#45;11</title>
<polygon fill="lightgray" stroke="black" points="539.75,-167.57 511.75,-167.57 511.75,-149.07 539.75,-149.07 539.75,-167.57"/>
<text text-anchor="middle" x="525.75" y="-155.02" font-family="Times,serif" font-size="9.00">&#45;11</text>
</g>
<!-- &#45;12 -->
<g id="node12" class="node">
<title>&#45;12</title>
<polygon fill="lightgray" stroke="black" points="585.75,-167.57 557.75,-167.57 557.75,-149.07 585.75,-149.07 585.75,-167.57"/>
<text text-anchor="middle" x="571.75" y="-155.02" font-family="Times,serif" font-size="9.00">&#45;12</text>
</g>
<!-- 3 -->
<g id="node24" class="node">
<title>3</title>
<ellipse fill="lightblue" stroke="black" cx="594.75" cy="-89.03" rx="14.5" ry="14.5"/>
<text text-anchor="middle" x="594.75" y="-85.73" font-family="Times,serif" font-size="9.00">3</text>
</g>
<!-- &#45;12&#45;&gt;3 -->
<g id="edge2" class="edge">
<title>&#45;12&#45;&gt;3</title>
<path fill="none" stroke="red" stroke-width="0.52" stroke-dasharray="1,5" d="M574.66,-148.8C577.73,-139.83 582.69,-125.32 586.91,-112.96"/>
<polygon fill="red" stroke="red" stroke-width="0.52" points="590.19,-114.19 590.12,-103.59 583.57,-111.92 590.19,-114.19"/>
</g>
<!-- &#45;13 -->
<g id="node13" class="node">
<title>&#45;13</title>
<polygon fill="lightgray" stroke="black" points="677.75,-167.57 649.75,-167.57 649.75,-149.07 677.75,-149.07 677.75,-167.57"/>
<text text-anchor="middle" x="663.75" y="-155.02" font-family="Times,serif" font-size="9.00">&#45;13</text>
</g>
<!-- &#45;14 -->
<g id="node14" class="node">
<title>&#45;14</title>
<polygon fill="lightgray" stroke="black" points="723.75,-167.57 695.75,-167.57 695.75,-149.07 723.75,-149.07 723.75,-167.57"/>
<text text-anchor="middle" x="709.75" y="-155.02" font-family="Times,serif" font-size="9.00">&#45;14</text>
</g>
<!-- &#45;15 -->
<g id="node15" class="node">
<title>&#45;15</title>
<polygon fill="lightgray" stroke="black" points="631.75,-167.57 603.75,-167.57 603.75,-149.07 631.75,-149.07 631.75,-167.57"/>
<text text-anchor="middle" x="617.75" y="-155.02" font-family="Times,serif" font-size="9.00">&#45;15</text>
</g>
<!-- &#45;15&#45;&gt;3 -->
<g id="edge5" class="edge">
<title>&#45;15&#45;&gt;3</title>
<path fill="none" stroke="green" stroke-width="0.11" d="M614.84,-148.8C611.71,-139.65 606.61,-124.73 602.33,-112.22"/>
<polygon fill="green" stroke="green" stroke-width="0.11" points="605.73,-111.34 599.19,-103.01 599.11,-113.6 605.73,-111.34"/>
</g>
<!-- &#45;16 -->
<g id="node16" class="node">
<title>&#45;16</title>
<polygon fill="lightgray" stroke="black" points="769.75,-167.57 741.75,-167.57 741.75,-149.07 769.75,-149.07 769.75,-167.57"/>
<text text-anchor="middle" x="755.75" y="-155.02" font-family="Times,serif" font-size="9.00">&#45;16</text>
</g>
<!-- 0 -->
<g id="node21" class="node">
<title>0</title>
<ellipse fill="lightblue" stroke="black" cx="755.75" cy="-89.03" rx="14.5" ry="14.5"/>
<text text-anchor="middle" x="755.75" y="-85.73" font-family="Times,serif" font-size="9.00">0</text>
</g>
<!-- &#45;16&#45;&gt;0 -->
<g id="edge6" class="edge">
<title>&#45;16&#45;&gt;0</title>
<path fill="none" stroke="red" stroke-width="0.44" stroke-dasharray="1,5" d="M755.75,-148.8C755.75,-140.14 755.75,-126.31 755.75,-114.24"/>
<polygon fill="red" stroke="red" stroke-width="0.44" points="759.25,-114.52 755.75,-104.52 752.25,-114.52 759.25,-114.52"/>
</g>
<!-- &#45;17 -->
<g id="node17" class="node">
<title>&#45;17</title>
<polygon fill="lightgray" stroke="black" points="815.75,-167.57 787.75,-167.57 787.75,-149.07 815.75,-149.07 815.75,-167.57"/>
<text text-anchor="middle" x="801.75" y="-155.02" font-family="Times,serif" font-size="9.00">&#45;17</text>
</g>
<!-- &#45;18 -->
<g id="node18" class="node">
<title>&#45;18</title>
<polygon fill="lightgray" stroke="black" points="69.75,-167.57 41.75,-167.57 41.75,-149.07 69.75,-149.07 69.75,-167.57"/>
<text text-anchor="middle" x="55.75" y="-155.02" font-family="Times,serif" font-size="9.00">&#45;18</text>
</g>
<!-- &#45;18&#45;&gt;2 -->
<g id="edge4" class="edge">
<title>&#45;18&#45;&gt;2</title>
<path fill="none" stroke="red" stroke-width="0.34" d="M55.88,-148.8C56.01,-140.14 56.21,-126.31 56.39,-114.24"/>
<polygon fill="red" stroke="red" stroke-width="0.34" points="59.89,-114.41 56.54,-104.36 52.89,-114.31 59.89,-114.41"/>
</g>
<!-- &#45;19 -->
<g id="node19" class="node">
<title>&#45;19</title>
<polygon fill="lightgray" stroke="black" points="258.75,-98.28 230.75,-98.28 230.75,-79.78 258.75,-79.78 258.75,-98.28"/>
<text text-anchor="middle" x="244.75" y="-85.73" font-family="Times,serif" font-size="9.00">&#45;19</text>
</g>
<!-- &#45;19&#45;&gt;4 -->
<g id="edge7" class="edge">
<title>&#45;19&#45;&gt;4</title>
<path fill="none" stroke="green" stroke-width="0.23" stroke-dasharray="1,5" d="M236.68,-79.43C226,-68.03 206.9,-47.65 193.13,-32.96"/>
<polygon fill="green" stroke="green" stroke-width="0.23" points="195.74,-30.63 186.35,-25.73 190.63,-35.42 195.74,-30.63"/>
</g>
<!-- &#45;20 -->
<g id="node20" class="node">
<title>&#45;20</title>
<polygon fill="lightgray" stroke="black" points="861.75,-167.57 833.75,-167.57 833.75,-149.07 861.75,-149.07 861.75,-167.57"/>
<text text-anchor="middle" x="847.75" y="-155.02" font-family="Times,serif" font-size="9.00">&#45;20</text>
</g>
<!-- 9181&#45;&gt;4 -->
<g id="edge10" class="edge">
<title>9181&#45;&gt;4</title>
<path fill="none" stroke="green" stroke-width="0.47" stroke-dasharray="1,5" d="M158.69,-65.88C161.79,-57.23 165.35,-47.31 168.48,-38.57"/>
<polygon fill="green" stroke="green" stroke-width="0.47" points="171.71,-39.93 171.79,-29.33 165.12,-37.56 171.71,-39.93"/>
</g>
</g>
</svg>
