<?xml version="1.0" encoding="UTF-8" standalone="no"?>
<!DOCTYPE svg PUBLIC "-//W3C//DTD SVG 1.1//EN"
 "http://www.w3.org/Graphics/SVG/1.1/DTD/svg11.dtd">
<!-- Generated by graphviz version 12.1.1 (20240910.0053)
 -->
<!-- Pages: 1 -->
<svg width="960pt" height="176pt"
 viewBox="0.00 0.00 959.75 175.57" xmlns="http://www.w3.org/2000/svg" xmlns:xlink="http://www.w3.org/1999/xlink">
<g id="graph0" class="graph" transform="scale(1 1) rotate(0) translate(4 171.57)">
<polygon fill="white" stroke="none" points="-4,4 -4,-171.57 955.75,-171.57 955.75,4 -4,4"/>
<!-- &#45;1 -->
<g id="node1" class="node">
<title>&#45;1</title>
<polygon fill="lightgray" stroke="black" points="23.5,-167.57 0,-167.57 0,-149.07 23.5,-149.07 23.5,-167.57"/>
<text text-anchor="middle" x="11.75" y="-155.02" font-family="Times,serif" font-size="9.00">&#45;1</text>
</g>
<!-- &#45;2 -->
<g id="node2" class="node">
<title>&#45;2</title>
<polygon fill="lightgray" stroke="black" points="65.5,-167.57 42,-167.57 42,-149.07 65.5,-149.07 65.5,-167.57"/>
<text text-anchor="middle" x="53.75" y="-155.02" font-family="Times,serif" font-size="9.00">&#45;2</text>
</g>
<!-- 4 -->
<g id="node25" class="node">
<title>4</title>
<ellipse fill="lightblue" stroke="black" cx="53.75" cy="-89.03" rx="14.5" ry="14.5"/>
<text text-anchor="middle" x="53.75" y="-85.73" font-family="Times,serif" font-size="9.00">4</text>
</g>
<!-- &#45;2&#45;&gt;4 -->
<g id="edge4" class="edge">
<title>&#45;2&#45;&gt;4</title>
<path fill="none" stroke="red" stroke-width="0.38" d="M53.75,-148.8C53.75,-140.14 53.75,-126.31 53.75,-114.24"/>
<polygon fill="red" stroke="red" stroke-width="0.38" points="57.25,-114.43 53.75,-104.43 50.25,-114.43 57.25,-114.43"/>
</g>
<!-- &#45;3 -->
<g id="node3" class="node">
<title>&#45;3</title>
<polygon fill="lightgray" stroke="black" points="133.5,-167.57 110,-167.57 110,-149.07 133.5,-149.07 133.5,-167.57"/>
<text text-anchor="middle" x="121.75" y="-155.02" font-family="Times,serif" font-size="9.00">&#45;3</text>
</g>
<!-- 1 -->
<g id="node22" class="node">
<title>1</title>
<ellipse fill="lightblue" stroke="black" cx="201.75" cy="-14.5" rx="14.5" ry="14.5"/>
<text text-anchor="middle" x="201.75" y="-11.2" font-family="Times,serif" font-size="9.00">1</text>
</g>
<!-- &#45;3&#45;&gt;1 -->
<g id="edge6" class="edge">
<title>&#45;3&#45;&gt;1</title>
<path fill="none" stroke="red" stroke-width="0.52" stroke-dasharray="1,5" d="M118.06,-148.71C111.3,-131.48 98.99,-92.09 114.75,-64.99 128.08,-42.07 156.43,-28.89 177.15,-21.98"/>
<polygon fill="red" stroke="red" stroke-width="0.52" points="178.15,-25.34 186.7,-19.07 176.11,-18.64 178.15,-25.34"/>
</g>
<!-- 8834 -->
<g id="node26" class="node">
<title>8834</title>
<ellipse fill="white" stroke="black" cx="147.75" cy="-89.03" rx="24.04" ry="24.04"/>
<text text-anchor="middle" x="147.75" y="-85.73" font-family="Times,serif" font-size="9.00">8834</text>
</g>
<!-- &#45;3&#45;&gt;8834 -->
<g id="edge13" class="edge">
<title>&#45;3&#45;&gt;8834</title>
<path fill="none" stroke="green" stroke-width="0.27" d="M125.04,-148.8C127.74,-141.83 131.72,-131.53 135.6,-121.48"/>
<polygon fill="green" stroke="green" stroke-width="0.27" points="138.76,-123.02 139.1,-112.43 132.23,-120.5 138.76,-123.02"/>
</g>
<!-- &#45;4 -->
<g id="node4" class="node">
<title>&#45;4</title>
<polygon fill="lightgray" stroke="black" points="389.5,-98.28 366,-98.28 366,-79.78 389.5,-79.78 389.5,-98.28"/>
<text text-anchor="middle" x="377.75" y="-85.73" font-family="Times,serif" font-size="9.00">&#45;4</text>
</g>
<!-- 3 -->
<g id="node24" class="node">
<title>3</title>
<ellipse fill="lightblue" stroke="black" cx="442.75" cy="-14.5" rx="14.5" ry="14.5"/>
<text text-anchor="middle" x="442.75" y="-11.2" font-family="Times,serif" font-size="9.00">3</text>
</g>
<!-- &#45;4&#45;&gt;3 -->
<g id="edge8" class="edge">
<title>&#45;4&#45;&gt;3</title>
<path fill="none" stroke="red" stroke-width="0.13" d="M385.46,-79.43C395.56,-68.15 413.53,-48.1 426.66,-33.46"/>
<polygon fill="red" stroke="red" stroke-width="0.13" points="429.17,-35.9 433.24,-26.11 423.96,-31.23 429.17,-35.9"/>
</g>
<!-- &#45;5 -->
<g id="node5" class="node">
<title>&#45;5</title>
<polygon fill="lightgray" stroke="black" points="213.5,-98.28 190,-98.28 190,-79.78 213.5,-79.78 213.5,-98.28"/>
<text text-anchor="middle" x="201.75" y="-85.73" font-family="Times,serif" font-size="9.00">&#45;5</text>
</g>
<!-- &#45;5&#45;&gt;1 -->
<g id="edge2" class="edge">
<title>&#45;5&#45;&gt;1</title>
<path fill="none" stroke="red" stroke-width="0.55" d="M201.75,-79.43C201.75,-69.75 201.75,-53.61 201.75,-39.97"/>
<polygon fill="red" stroke="red" stroke-width="0.55" points="205.25,-40.12 201.75,-30.12 198.25,-40.12 205.25,-40.12"/>
</g>
<!-- &#45;6 -->
<g id="node6" class="node">
<title>&#45;6</title>
<polygon fill="lightgray" stroke="black" points="255.5,-98.28 232,-98.28 232,-79.78 255.5,-79.78 255.5,-98.28"/>
<text text-anchor="middle" x="243.75" y="-85.73" font-family="Times,serif" font-size="9.00">&#45;6</text>
</g>
<!-- &#45;6&#45;&gt;1 -->
<g id="edge15" class="edge">
<title>&#45;6&#45;&gt;1</title>
<path fill="none" stroke="green" stroke-width="0.16" d="M238.77,-79.43C232.67,-68.9 222.14,-50.71 213.87,-36.42"/>
<polygon fill="green" stroke="green" stroke-width="0.16" points="216.98,-34.82 208.94,-27.92 210.92,-38.33 216.98,-34.82"/>
</g>
<!-- &#45;7 -->
<g id="node7" class="node">
<title>&#45;7</title>
<polygon fill="lightgray" stroke="black" points="545.5,-167.57 522,-167.57 522,-149.07 545.5,-149.07 545.5,-167.57"/>
<text text-anchor="middle" x="533.75" y="-155.02" font-family="Times,serif" font-size="9.00">&#45;7</text>
</g>
<!-- &#45;8 -->
<g id="node8" class="node">
<title>&#45;8</title>
<polygon fill="lightgray" stroke="black" points="587.5,-167.57 564,-167.57 564,-149.07 587.5,-149.07 587.5,-167.57"/>
<text text-anchor="middle" x="575.75" y="-155.02" font-family="Times,serif" font-size="9.00">&#45;8</text>
</g>
<!-- &#45;9 -->
<g id="node9" class="node">
<title>&#45;9</title>
<polygon fill="lightgray" stroke="black" points="629.5,-167.57 606,-167.57 606,-149.07 629.5,-149.07 629.5,-167.57"/>
<text text-anchor="middle" x="617.75" y="-155.02" font-family="Times,serif" font-size="9.00">&#45;9</text>
</g>
<!-- &#45;10 -->
<g id="node10" class="node">
<title>&#45;10</title>
<polygon fill="lightgray" stroke="black" points="675.75,-167.57 647.75,-167.57 647.75,-149.07 675.75,-149.07 675.75,-167.57"/>
<text text-anchor="middle" x="661.75" y="-155.02" font-family="Times,serif" font-size="9.00">&#45;10</text>
</g>
<!-- &#45;11 -->
<g id="node11" class="node">
<title>&#45;11</title>
<polygon fill="lightgray" stroke="black" points="721.75,-167.57 693.75,-167.57 693.75,-149.07 721.75,-149.07 721.75,-167.57"/>
<text text-anchor="middle" x="707.75" y="-155.02" font-family="Times,serif" font-size="9.00">&#45;11</text>
</g>
<!-- &#45;12 -->
<g id="node12" class="node">
<title>&#45;12</title>
<polygon fill="lightgray" stroke="black" points="435.75,-98.28 407.75,-98.28 407.75,-79.78 435.75,-79.78 435.75,-98.28"/>
<text text-anchor="middle" x="421.75" y="-85.73" font-family="Times,serif" font-size="9.00">&#45;12</text>
</g>
<!-- &#45;12&#45;&gt;3 -->
<g id="edge3" class="edge">
<title>&#45;12&#45;&gt;3</title>
<path fill="none" stroke="green" stroke-width="0.87" d="M424.24,-79.43C427.08,-69.63 431.83,-53.22 435.81,-39.47"/>
<polygon fill="green" stroke="green" stroke-width="0.87" points="439.12,-40.6 438.54,-30.02 432.4,-38.66 439.12,-40.6"/>
</g>
<!-- &#45;13 -->
<g id="node13" class="node">
<title>&#45;13</title>
<polygon fill="lightgray" stroke="black" points="767.75,-167.57 739.75,-167.57 739.75,-149.07 767.75,-149.07 767.75,-167.57"/>
<text text-anchor="middle" x="753.75" y="-155.02" font-family="Times,serif" font-size="9.00">&#45;13</text>
</g>
<!-- &#45;14 -->
<g id="node14" class="node">
<title>&#45;14</title>
<polygon fill="lightgray" stroke="black" points="813.75,-167.57 785.75,-167.57 785.75,-149.07 813.75,-149.07 813.75,-167.57"/>
<text text-anchor="middle" x="799.75" y="-155.02" font-family="Times,serif" font-size="9.00">&#45;14</text>
</g>
<!-- &#45;15 -->
<g id="node15" class="node">
<title>&#45;15</title>
<polygon fill="lightgray" stroke="black" points="503.75,-167.57 475.75,-167.57 475.75,-149.07 503.75,-149.07 503.75,-167.57"/>
<text text-anchor="middle" x="489.75" y="-155.02" font-family="Times,serif" font-size="9.00">&#45;15</text>
</g>
<!-- &#45;15&#45;&gt;3 -->
<g id="edge7" class="edge">
<title>&#45;15&#45;&gt;3</title>
<path fill="none" stroke="green" stroke-width="0.2" stroke-dasharray="1,5" d="M486.95,-148.88C479.82,-127.35 460.78,-69.89 450.16,-37.86"/>
<polygon fill="green" stroke="green" stroke-width="0.2" points="453.6,-37.11 447.13,-28.72 446.95,-39.31 453.6,-37.11"/>
</g>
<!-- 8785 -->
<g id="node27" class="node">
<title>8785</title>
<ellipse fill="white" stroke="black" cx="515.75" cy="-89.03" rx="24.04" ry="24.04"/>
<text text-anchor="middle" x="515.75" y="-85.73" font-family="Times,serif" font-size="9.00">8785</text>
</g>
<!-- &#45;15&#45;&gt;8785 -->
<g id="edge11" class="edge">
<title>&#45;15&#45;&gt;8785</title>
<path fill="none" stroke="green" stroke-width="0.41" stroke-dasharray="1,5" d="M493.04,-148.8C495.71,-141.91 499.64,-131.74 503.48,-121.79"/>
<polygon fill="green" stroke="green" stroke-width="0.41" points="506.68,-123.22 507.02,-112.63 500.15,-120.69 506.68,-123.22"/>
</g>
<!-- &#45;16 -->
<g id="node16" class="node">
<title>&#45;16</title>
<polygon fill="lightgray" stroke="black" points="859.75,-167.57 831.75,-167.57 831.75,-149.07 859.75,-149.07 859.75,-167.57"/>
<text text-anchor="middle" x="845.75" y="-155.02" font-family="Times,serif" font-size="9.00">&#45;16</text>
</g>
<!-- 0 -->
<g id="node21" class="node">
<title>0</title>
<ellipse fill="lightblue" stroke="black" cx="845.75" cy="-89.03" rx="14.5" ry="14.5"/>
<text text-anchor="middle" x="845.75" y="-85.73" font-family="Times,serif" font-size="9.00">0</text>
</g>
<!-- &#45;16&#45;&gt;0 -->
<g id="edge10" class="edge">
<title>&#45;16&#45;&gt;0</title>
<path fill="none" stroke="red" stroke-width="0.37" stroke-dasharray="1,5" d="M845.75,-148.8C845.75,-140.14 845.75,-126.31 845.75,-114.24"/>
<polygon fill="red" stroke="red" stroke-width="0.37" points="849.25,-114.41 845.75,-104.41 842.25,-114.41 849.25,-114.41"/>
</g>
<!-- &#45;17 -->
<g id="node17" class="node">
<title>&#45;17</title>
<polygon fill="lightgray" stroke="black" points="905.75,-167.57 877.75,-167.57 877.75,-149.07 905.75,-149.07 905.75,-167.57"/>
<text text-anchor="middle" x="891.75" y="-155.02" font-family="Times,serif" font-size="9.00">&#45;17</text>
</g>
<!-- &#45;18 -->
<g id="node18" class="node">
<title>&#45;18</title>
<polygon fill="lightgray" stroke="black" points="301.75,-98.28 273.75,-98.28 273.75,-79.78 301.75,-79.78 301.75,-98.28"/>
<text text-anchor="middle" x="287.75" y="-85.73" font-family="Times,serif" font-size="9.00">&#45;18</text>
</g>
<!-- &#45;18&#45;&gt;1 -->
<g id="edge9" class="edge">
<title>&#45;18&#45;&gt;1</title>
<path fill="none" stroke="green" stroke-width="0.59" d="M279.89,-79.68C275.55,-75.2 269.99,-69.64 264.75,-64.99 250.86,-52.65 234.31,-39.72 221.66,-30.16"/>
<polygon fill="green" stroke="green" stroke-width="0.59" points="224.05,-27.58 213.95,-24.4 219.86,-33.19 224.05,-27.58"/>
</g>
<!-- 2 -->
<g id="node23" class="node">
<title>2</title>
<ellipse fill="lightblue" stroke="black" cx="310.75" cy="-14.5" rx="14.5" ry="14.5"/>
<text text-anchor="middle" x="310.75" y="-11.2" font-family="Times,serif" font-size="9.00">2</text>
</g>
<!-- &#45;18&#45;&gt;2 -->
<g id="edge5" class="edge">
<title>&#45;18&#45;&gt;2</title>
<path fill="none" stroke="green" stroke-width="0.31" stroke-dasharray="1,5" d="M290.48,-79.43C293.65,-69.44 299,-52.56 303.41,-38.65"/>
<polygon fill="green" stroke="green" stroke-width="0.31" points="306.71,-39.8 306.4,-29.21 300.04,-37.69 306.71,-39.8"/>
</g>
<!-- &#45;19 -->
<g id="node19" class="node">
<title>&#45;19</title>
<polygon fill="lightgray" stroke="black" points="951.75,-167.57 923.75,-167.57 923.75,-149.07 951.75,-149.07 951.75,-167.57"/>
<text text-anchor="middle" x="937.75" y="-155.02" font-family="Times,serif" font-size="9.00">&#45;19</text>
</g>
<!-- &#45;20 -->
<g id="node20" class="node">
<title>&#45;20</title>
<polygon fill="lightgray" stroke="black" points="347.75,-98.28 319.75,-98.28 319.75,-79.78 347.75,-79.78 347.75,-98.28"/>
<text text-anchor="middle" x="333.75" y="-85.73" font-family="Times,serif" font-size="9.00">&#45;20</text>
</g>
<!-- &#45;20&#45;&gt;2 -->
<g id="edge1" class="edge">
<title>&#45;20&#45;&gt;2</title>
<path fill="none" stroke="green" stroke-width="1.05" stroke-dasharray="1,5" d="M331.02,-79.43C327.92,-69.63 322.71,-53.22 318.35,-39.47"/>
<polygon fill="green" stroke="green" stroke-width="1.05" points="321.8,-38.75 315.44,-30.28 315.12,-40.87 321.8,-38.75"/>
</g>
<!-- 8834&#45;&gt;1 -->
<g id="edge14" class="edge">
<title>8834&#45;&gt;1</title>
<path fill="none" stroke="red" stroke-width="0.46" d="M161.66,-69.35C169.47,-58.86 179.21,-45.77 187.14,-35.13"/>
<polygon fill="red" stroke="red" stroke-width="0.46" points="189.71,-37.54 192.87,-27.43 184.09,-33.36 189.71,-37.54"/>
</g>
<!-- 8785&#45;&gt;3 -->
<g id="edge12" class="edge">
<title>8785&#45;&gt;3</title>
<path fill="none" stroke="red" stroke-width="0.29" stroke-dasharray="1,5" d="M499.19,-71.57C487.45,-59.91 471.76,-44.32 459.9,-32.53"/>
<polygon fill="red" stroke="red" stroke-width="0.29" points="462.61,-30.29 453.05,-25.73 457.67,-35.26 462.61,-30.29"/>
</g>
</g>
</svg>
