<?xml version="1.0" encoding="UTF-8" standalone="no"?>
<!DOCTYPE svg PUBLIC "-//W3C//DTD SVG 1.1//EN"
 "http://www.w3.org/Graphics/SVG/1.1/DTD/svg11.dtd">
<!-- Generated by graphviz version 12.1.1 (20240910.0053)
 -->
<!-- Pages: 1 -->
<svg width="967pt" height="180pt"
 viewBox="0.00 0.00 967.25 179.70" xmlns="http://www.w3.org/2000/svg" xmlns:xlink="http://www.w3.org/1999/xlink">
<g id="graph0" class="graph" transform="scale(1 1) rotate(0) translate(4 175.7)">
<polygon fill="white" stroke="none" points="-4,4 -4,-175.7 963.25,-175.7 963.25,4 -4,4"/>
<!-- &#45;1 -->
<g id="node1" class="node">
<title>&#45;1</title>
<polygon fill="lightgray" stroke="black" points="23.5,-166.46 0,-166.46 0,-147.96 23.5,-147.96 23.5,-166.46"/>
<text text-anchor="middle" x="11.75" y="-153.91" font-family="Times,serif" font-size="9.00">&#45;1</text>
</g>
<!-- &#45;2 -->
<g id="node2" class="node">
<title>&#45;2</title>
<polygon fill="lightgray" stroke="black" points="65.5,-166.46 42,-166.46 42,-147.96 65.5,-147.96 65.5,-166.46"/>
<text text-anchor="middle" x="53.75" y="-153.91" font-family="Times,serif" font-size="9.00">&#45;2</text>
</g>
<!-- &#45;3 -->
<g id="node3" class="node">
<title>&#45;3</title>
<polygon fill="lightgray" stroke="black" points="107.5,-166.46 84,-166.46 84,-147.96 107.5,-147.96 107.5,-166.46"/>
<text text-anchor="middle" x="95.75" y="-153.91" font-family="Times,serif" font-size="9.00">&#45;3</text>
</g>
<!-- &#45;4 -->
<g id="node4" class="node">
<title>&#45;4</title>
<polygon fill="lightgray" stroke="black" points="149.5,-166.46 126,-166.46 126,-147.96 149.5,-147.96 149.5,-166.46"/>
<text text-anchor="middle" x="137.75" y="-153.91" font-family="Times,serif" font-size="9.00">&#45;4</text>
</g>
<!-- 223 -->
<g id="node27" class="node">
<title>223</title>
<ellipse fill="white" stroke="black" cx="221.75" cy="-85.85" rx="20.86" ry="20.86"/>
<text text-anchor="middle" x="221.75" y="-82.55" font-family="Times,serif" font-size="9.00">223</text>
</g>
<!-- &#45;4&#45;&gt;223 -->
<g id="edge3" class="edge">
<title>&#45;4&#45;&gt;223</title>
<path fill="none" stroke="red" stroke-width="0.26" stroke-dasharray="1,5" d="M148.05,-147.7C160.47,-137.44 181.75,-119.88 198.25,-106.25"/>
<polygon fill="red" stroke="red" stroke-width="0.26" points="200.12,-109.25 205.6,-100.18 195.67,-103.85 200.12,-109.25"/>
</g>
<!-- &#45;5 -->
<g id="node5" class="node">
<title>&#45;5</title>
<polygon fill="lightgray" stroke="black" points="463.5,-166.46 440,-166.46 440,-147.96 463.5,-147.96 463.5,-166.46"/>
<text text-anchor="middle" x="451.75" y="-153.91" font-family="Times,serif" font-size="9.00">&#45;5</text>
</g>
<!-- &#45;6 -->
<g id="node6" class="node">
<title>&#45;6</title>
<polygon fill="lightgray" stroke="black" points="505.5,-166.46 482,-166.46 482,-147.96 505.5,-147.96 505.5,-166.46"/>
<text text-anchor="middle" x="493.75" y="-153.91" font-family="Times,serif" font-size="9.00">&#45;6</text>
</g>
<!-- &#45;7 -->
<g id="node7" class="node">
<title>&#45;7</title>
<polygon fill="lightgray" stroke="black" points="547.5,-166.46 524,-166.46 524,-147.96 547.5,-147.96 547.5,-166.46"/>
<text text-anchor="middle" x="535.75" y="-153.91" font-family="Times,serif" font-size="9.00">&#45;7</text>
</g>
<!-- &#45;8 -->
<g id="node8" class="node">
<title>&#45;8</title>
<polygon fill="lightgray" stroke="black" points="283.5,-166.46 260,-166.46 260,-147.96 283.5,-147.96 283.5,-166.46"/>
<text text-anchor="middle" x="271.75" y="-153.91" font-family="Times,serif" font-size="9.00">&#45;8</text>
</g>
<!-- 224 -->
<g id="node26" class="node">
<title>224</title>
<ellipse fill="white" stroke="black" cx="328.75" cy="-85.85" rx="20.86" ry="20.86"/>
<text text-anchor="middle" x="328.75" y="-82.55" font-family="Times,serif" font-size="9.00">224</text>
</g>
<!-- &#45;8&#45;&gt;224 -->
<g id="edge4" class="edge">
<title>&#45;8&#45;&gt;224</title>
<path fill="none" stroke="red" stroke-width="0.39" d="M278.74,-147.7C286.3,-138.5 298.69,-123.43 309.24,-110.59"/>
<polygon fill="red" stroke="red" stroke-width="0.39" points="311.83,-112.96 315.47,-103.01 306.42,-108.51 311.83,-112.96"/>
</g>
<!-- &#45;8&#45;&gt;223 -->
<g id="edge1" class="edge">
<title>&#45;8&#45;&gt;223</title>
<path fill="none" stroke="red" stroke-width="0.17" d="M265.62,-147.7C259.12,-138.68 248.54,-124.01 239.4,-111.34"/>
<polygon fill="red" stroke="red" stroke-width="0.17" points="242.5,-109.65 233.81,-103.58 236.82,-113.74 242.5,-109.65"/>
</g>
<!-- &#45;9 -->
<g id="node9" class="node">
<title>&#45;9</title>
<polygon fill="lightgray" stroke="black" points="589.5,-166.46 566,-166.46 566,-147.96 589.5,-147.96 589.5,-166.46"/>
<text text-anchor="middle" x="577.75" y="-153.91" font-family="Times,serif" font-size="9.00">&#45;9</text>
</g>
<!-- &#45;10 -->
<g id="node10" class="node">
<title>&#45;10</title>
<polygon fill="lightgray" stroke="black" points="635.75,-166.46 607.75,-166.46 607.75,-147.96 635.75,-147.96 635.75,-166.46"/>
<text text-anchor="middle" x="621.75" y="-153.91" font-family="Times,serif" font-size="9.00">&#45;10</text>
</g>
<!-- &#45;11 -->
<g id="node11" class="node">
<title>&#45;11</title>
<polygon fill="lightgray" stroke="black" points="681.75,-166.46 653.75,-166.46 653.75,-147.96 681.75,-147.96 681.75,-166.46"/>
<text text-anchor="middle" x="667.75" y="-153.91" font-family="Times,serif" font-size="9.00">&#45;11</text>
</g>
<!-- &#45;12 -->
<g id="node12" class="node">
<title>&#45;12</title>
<polygon fill="lightgray" stroke="black" points="195.75,-166.46 167.75,-166.46 167.75,-147.96 195.75,-147.96 195.75,-166.46"/>
<text text-anchor="middle" x="181.75" y="-153.91" font-family="Times,serif" font-size="9.00">&#45;12</text>
</g>
<!-- &#45;12&#45;&gt;223 -->
<g id="edge8" class="edge">
<title>&#45;12&#45;&gt;223</title>
<path fill="none" stroke="green" stroke-width="0.2" d="M186.65,-147.7C191.62,-139.09 199.56,-125.32 206.64,-113.05"/>
<polygon fill="green" stroke="green" stroke-width="0.2" points="209.46,-115.16 211.43,-104.75 203.4,-111.66 209.46,-115.16"/>
</g>
<!-- &#45;13 -->
<g id="node13" class="node">
<title>&#45;13</title>
<polygon fill="lightgray" stroke="black" points="727.75,-166.46 699.75,-166.46 699.75,-147.96 727.75,-147.96 727.75,-166.46"/>
<text text-anchor="middle" x="713.75" y="-153.91" font-family="Times,serif" font-size="9.00">&#45;13</text>
</g>
<!-- &#45;14 -->
<g id="node14" class="node">
<title>&#45;14</title>
<polygon fill="lightgray" stroke="black" points="773.75,-166.46 745.75,-166.46 745.75,-147.96 773.75,-147.96 773.75,-166.46"/>
<text text-anchor="middle" x="759.75" y="-153.91" font-family="Times,serif" font-size="9.00">&#45;14</text>
</g>
<!-- &#45;15 -->
<g id="node15" class="node">
<title>&#45;15</title>
<polygon fill="lightgray" stroke="black" points="819.75,-166.46 791.75,-166.46 791.75,-147.96 819.75,-147.96 819.75,-166.46"/>
<text text-anchor="middle" x="805.75" y="-153.91" font-family="Times,serif" font-size="9.00">&#45;15</text>
</g>
<!-- &#45;16 -->
<g id="node16" class="node">
<title>&#45;16</title>
<polygon fill="lightgray" stroke="black" points="329.75,-166.46 301.75,-166.46 301.75,-147.96 329.75,-147.96 329.75,-166.46"/>
<text text-anchor="middle" x="315.75" y="-153.91" font-family="Times,serif" font-size="9.00">&#45;16</text>
</g>
<!-- &#45;16&#45;&gt;224 -->
<g id="edge6" class="edge">
<title>&#45;16&#45;&gt;224</title>
<path fill="none" stroke="red" stroke-width="0.43" d="M317.34,-147.7C318.78,-140.03 320.99,-128.26 323.08,-117.12"/>
<polygon fill="red" stroke="red" stroke-width="0.43" points="326.49,-117.88 324.9,-107.41 319.61,-116.59 326.49,-117.88"/>
</g>
<!-- &#45;17 -->
<g id="node17" class="node">
<title>&#45;17</title>
<polygon fill="lightgray" stroke="black" points="865.75,-166.46 837.75,-166.46 837.75,-147.96 865.75,-147.96 865.75,-166.46"/>
<text text-anchor="middle" x="851.75" y="-153.91" font-family="Times,serif" font-size="9.00">&#45;17</text>
</g>
<!-- &#45;18 -->
<g id="node18" class="node">
<title>&#45;18</title>
<polygon fill="lightgray" stroke="black" points="375.75,-166.46 347.75,-166.46 347.75,-147.96 375.75,-147.96 375.75,-166.46"/>
<text text-anchor="middle" x="361.75" y="-153.91" font-family="Times,serif" font-size="9.00">&#45;18</text>
</g>
<!-- &#45;18&#45;&gt;224 -->
<g id="edge9" class="edge">
<title>&#45;18&#45;&gt;224</title>
<path fill="none" stroke="red" stroke-width="0.2" d="M357.7,-147.7C353.74,-139.37 347.48,-126.21 341.79,-114.26"/>
<polygon fill="red" stroke="red" stroke-width="0.2" points="345,-112.85 337.54,-105.33 338.68,-115.86 345,-112.85"/>
</g>
<!-- &#45;19 -->
<g id="node19" class="node">
<title>&#45;19</title>
<polygon fill="lightgray" stroke="black" points="421.75,-166.46 393.75,-166.46 393.75,-147.96 421.75,-147.96 421.75,-166.46"/>
<text text-anchor="middle" x="407.75" y="-153.91" font-family="Times,serif" font-size="9.00">&#45;19</text>
</g>
<!-- &#45;19&#45;&gt;224 -->
<g id="edge11" class="edge">
<title>&#45;19&#45;&gt;224</title>
<path fill="none" stroke="red" stroke-width="0.21" d="M398.06,-147.7C386.63,-137.66 367.21,-120.62 351.84,-107.12"/>
<polygon fill="red" stroke="red" stroke-width="0.21" points="354.29,-104.62 344.47,-100.65 349.67,-109.88 354.29,-104.62"/>
</g>
<!-- &#45;20 -->
<g id="node20" class="node">
<title>&#45;20</title>
<polygon fill="lightgray" stroke="black" points="241.75,-166.46 213.75,-166.46 213.75,-147.96 241.75,-147.96 241.75,-166.46"/>
<text text-anchor="middle" x="227.75" y="-153.91" font-family="Times,serif" font-size="9.00">&#45;20</text>
</g>
<!-- &#45;20&#45;&gt;223 -->
<g id="edge7" class="edge">
<title>&#45;20&#45;&gt;223</title>
<path fill="none" stroke="red" stroke-width="0.12" d="M227.01,-147.7C226.35,-140 225.33,-128.19 224.36,-117.01"/>
<polygon fill="red" stroke="red" stroke-width="0.12" points="227.86,-116.9 223.51,-107.24 220.89,-117.51 227.86,-116.9"/>
</g>
<!-- 0 -->
<g id="node21" class="node">
<title>0</title>
<ellipse fill="lightblue" stroke="black" cx="221.75" cy="-14.5" rx="14.5" ry="14.5"/>
<text text-anchor="middle" x="221.75" y="-11.2" font-family="Times,serif" font-size="9.00">0</text>
</g>
<!-- 1 -->
<g id="node22" class="node">
<title>1</title>
<ellipse fill="lightblue" stroke="black" cx="897.75" cy="-157.21" rx="14.5" ry="14.5"/>
<text text-anchor="middle" x="897.75" y="-153.91" font-family="Times,serif" font-size="9.00">1</text>
</g>
<!-- 2 -->
<g id="node23" class="node">
<title>2</title>
<ellipse fill="lightblue" stroke="black" cx="944.75" cy="-157.21" rx="14.5" ry="14.5"/>
<text text-anchor="middle" x="944.75" y="-153.91" font-family="Times,serif" font-size="9.00">2</text>
</g>
<!-- 3 -->
<g id="node24" class="node">
<title>3</title>
<ellipse fill="lightblue" stroke="black" cx="288.75" cy="-14.5" rx="14.5" ry="14.5"/>
<text text-anchor="middle" x="288.75" y="-11.2" font-family="Times,serif" font-size="9.00">3</text>
</g>
<!-- 4 -->
<g id="node25" class="node">
<title>4</title>
<ellipse fill="lightblue" stroke="black" cx="335.75" cy="-14.5" rx="14.5" ry="14.5"/>
<text text-anchor="middle" x="335.75" y="-11.2" font-family="Times,serif" font-size="9.00">4</text>
</g>
<!-- 224&#45;&gt;3 -->
<g id="edge2" class="edge">
<title>224&#45;&gt;3</title>
<path fill="none" stroke="red" stroke-width="0.57" d="M318.66,-67.35C313.24,-57.96 306.53,-46.32 300.84,-36.45"/>
<polygon fill="red" stroke="red" stroke-width="0.57" points="304.03,-34.98 296,-28.07 297.96,-38.48 304.03,-34.98"/>
</g>
<!-- 224&#45;&gt;4 -->
<g id="edge5" class="edge">
<title>224&#45;&gt;4</title>
<path fill="none" stroke="green" stroke-width="0.12" d="M330.77,-64.79C331.58,-56.8 332.52,-47.55 333.35,-39.23"/>
<polygon fill="green" stroke="green" stroke-width="0.12" points="336.81,-39.83 334.33,-29.53 329.85,-39.13 336.81,-39.83"/>
</g>
<!-- 223&#45;&gt;0 -->
<g id="edge10" class="edge">
<title>223&#45;&gt;0</title>
<path fill="none" stroke="green" stroke-width="0.29" d="M221.75,-64.79C221.75,-56.98 221.75,-47.96 221.75,-39.78"/>
<polygon fill="green" stroke="green" stroke-width="0.29" points="225.25,-39.79 221.75,-29.79 218.25,-39.79 225.25,-39.79"/>
</g>
</g>
</svg>
