<?xml version="1.0" encoding="UTF-8" standalone="no"?>
<!DOCTYPE svg PUBLIC "-//W3C//DTD SVG 1.1//EN"
 "http://www.w3.org/Graphics/SVG/1.1/DTD/svg11.dtd">
<!-- Generated by graphviz version 12.1.1 (20240910.0053)
 -->
<!-- Pages: 1 -->
<svg width="985pt" height="180pt"
 viewBox="0.00 0.00 985.25 179.70" xmlns="http://www.w3.org/2000/svg" xmlns:xlink="http://www.w3.org/1999/xlink">
<g id="graph0" class="graph" transform="scale(1 1) rotate(0) translate(4 175.7)">
<polygon fill="white" stroke="none" points="-4,4 -4,-175.7 981.25,-175.7 981.25,4 -4,4"/>
<!-- &#45;1 -->
<g id="node1" class="node">
<title>&#45;1</title>
<polygon fill="lightgray" stroke="black" points="23.5,-166.46 0,-166.46 0,-147.96 23.5,-147.96 23.5,-166.46"/>
<text text-anchor="middle" x="11.75" y="-153.91" font-family="Times,serif" font-size="9.00">&#45;1</text>
</g>
<!-- &#45;2 -->
<g id="node2" class="node">
<title>&#45;2</title>
<polygon fill="lightgray" stroke="black" points="65.5,-166.46 42,-166.46 42,-147.96 65.5,-147.96 65.5,-166.46"/>
<text text-anchor="middle" x="53.75" y="-153.91" font-family="Times,serif" font-size="9.00">&#45;2</text>
</g>
<!-- 247 -->
<g id="node26" class="node">
<title>247</title>
<ellipse fill="white" stroke="black" cx="139.75" cy="-85.85" rx="20.86" ry="20.86"/>
<text text-anchor="middle" x="139.75" y="-82.55" font-family="Times,serif" font-size="9.00">247</text>
</g>
<!-- &#45;2&#45;&gt;247 -->
<g id="edge6" class="edge">
<title>&#45;2&#45;&gt;247</title>
<path fill="none" stroke="red" stroke-width="0.25" d="M64.3,-147.7C77.09,-137.38 99.06,-119.67 116,-106"/>
<polygon fill="red" stroke="red" stroke-width="0.25" points="117.97,-108.91 123.56,-99.91 113.58,-103.46 117.97,-108.91"/>
</g>
<!-- &#45;3 -->
<g id="node3" class="node">
<title>&#45;3</title>
<polygon fill="lightgray" stroke="black" points="287.5,-166.46 264,-166.46 264,-147.96 287.5,-147.96 287.5,-166.46"/>
<text text-anchor="middle" x="275.75" y="-153.91" font-family="Times,serif" font-size="9.00">&#45;3</text>
</g>
<!-- &#45;4 -->
<g id="node4" class="node">
<title>&#45;4</title>
<polygon fill="lightgray" stroke="black" points="329.5,-166.46 306,-166.46 306,-147.96 329.5,-147.96 329.5,-166.46"/>
<text text-anchor="middle" x="317.75" y="-153.91" font-family="Times,serif" font-size="9.00">&#45;4</text>
</g>
<!-- &#45;5 -->
<g id="node5" class="node">
<title>&#45;5</title>
<polygon fill="lightgray" stroke="black" points="371.5,-166.46 348,-166.46 348,-147.96 371.5,-147.96 371.5,-166.46"/>
<text text-anchor="middle" x="359.75" y="-153.91" font-family="Times,serif" font-size="9.00">&#45;5</text>
</g>
<!-- &#45;6 -->
<g id="node6" class="node">
<title>&#45;6</title>
<polygon fill="lightgray" stroke="black" points="413.5,-166.46 390,-166.46 390,-147.96 413.5,-147.96 413.5,-166.46"/>
<text text-anchor="middle" x="401.75" y="-153.91" font-family="Times,serif" font-size="9.00">&#45;6</text>
</g>
<!-- &#45;7 -->
<g id="node7" class="node">
<title>&#45;7</title>
<polygon fill="lightgray" stroke="black" points="455.5,-166.46 432,-166.46 432,-147.96 455.5,-147.96 455.5,-166.46"/>
<text text-anchor="middle" x="443.75" y="-153.91" font-family="Times,serif" font-size="9.00">&#45;7</text>
</g>
<!-- &#45;8 -->
<g id="node8" class="node">
<title>&#45;8</title>
<polygon fill="lightgray" stroke="black" points="107.5,-166.46 84,-166.46 84,-147.96 107.5,-147.96 107.5,-166.46"/>
<text text-anchor="middle" x="95.75" y="-153.91" font-family="Times,serif" font-size="9.00">&#45;8</text>
</g>
<!-- &#45;8&#45;&gt;247 -->
<g id="edge10" class="edge">
<title>&#45;8&#45;&gt;247</title>
<path fill="none" stroke="green" stroke-width="0.27" d="M101.15,-147.7C106.69,-138.97 115.58,-124.94 123.44,-112.56"/>
<polygon fill="green" stroke="green" stroke-width="0.27" points="126.3,-114.59 128.7,-104.27 120.38,-110.84 126.3,-114.59"/>
</g>
<!-- &#45;9 -->
<g id="node9" class="node">
<title>&#45;9</title>
<polygon fill="lightgray" stroke="black" points="497.5,-166.46 474,-166.46 474,-147.96 497.5,-147.96 497.5,-166.46"/>
<text text-anchor="middle" x="485.75" y="-153.91" font-family="Times,serif" font-size="9.00">&#45;9</text>
</g>
<!-- &#45;10 -->
<g id="node10" class="node">
<title>&#45;10</title>
<polygon fill="lightgray" stroke="black" points="543.75,-166.46 515.75,-166.46 515.75,-147.96 543.75,-147.96 543.75,-166.46"/>
<text text-anchor="middle" x="529.75" y="-153.91" font-family="Times,serif" font-size="9.00">&#45;10</text>
</g>
<!-- &#45;11 -->
<g id="node11" class="node">
<title>&#45;11</title>
<polygon fill="lightgray" stroke="black" points="589.75,-166.46 561.75,-166.46 561.75,-147.96 589.75,-147.96 589.75,-166.46"/>
<text text-anchor="middle" x="575.75" y="-153.91" font-family="Times,serif" font-size="9.00">&#45;11</text>
</g>
<!-- &#45;12 -->
<g id="node12" class="node">
<title>&#45;12</title>
<polygon fill="lightgray" stroke="black" points="153.75,-166.46 125.75,-166.46 125.75,-147.96 153.75,-147.96 153.75,-166.46"/>
<text text-anchor="middle" x="139.75" y="-153.91" font-family="Times,serif" font-size="9.00">&#45;12</text>
</g>
<!-- &#45;12&#45;&gt;247 -->
<g id="edge9" class="edge">
<title>&#45;12&#45;&gt;247</title>
<path fill="none" stroke="green" stroke-width="0.32" d="M139.75,-147.7C139.75,-140.08 139.75,-128.43 139.75,-117.35"/>
<polygon fill="green" stroke="green" stroke-width="0.32" points="143.25,-117.54 139.75,-107.54 136.25,-117.54 143.25,-117.54"/>
</g>
<!-- &#45;13 -->
<g id="node13" class="node">
<title>&#45;13</title>
<polygon fill="lightgray" stroke="black" points="635.75,-166.46 607.75,-166.46 607.75,-147.96 635.75,-147.96 635.75,-166.46"/>
<text text-anchor="middle" x="621.75" y="-153.91" font-family="Times,serif" font-size="9.00">&#45;13</text>
</g>
<!-- &#45;14 -->
<g id="node14" class="node">
<title>&#45;14</title>
<polygon fill="lightgray" stroke="black" points="681.75,-166.46 653.75,-166.46 653.75,-147.96 681.75,-147.96 681.75,-166.46"/>
<text text-anchor="middle" x="667.75" y="-153.91" font-family="Times,serif" font-size="9.00">&#45;14</text>
</g>
<!-- &#45;15 -->
<g id="node15" class="node">
<title>&#45;15</title>
<polygon fill="lightgray" stroke="black" points="727.75,-166.46 699.75,-166.46 699.75,-147.96 727.75,-147.96 727.75,-166.46"/>
<text text-anchor="middle" x="713.75" y="-153.91" font-family="Times,serif" font-size="9.00">&#45;15</text>
</g>
<!-- 248 -->
<g id="node27" class="node">
<title>248</title>
<ellipse fill="white" stroke="black" cx="713.75" cy="-85.85" rx="20.86" ry="20.86"/>
<text text-anchor="middle" x="713.75" y="-82.55" font-family="Times,serif" font-size="9.00">248</text>
</g>
<!-- &#45;15&#45;&gt;248 -->
<g id="edge7" class="edge">
<title>&#45;15&#45;&gt;248</title>
<path fill="none" stroke="red" stroke-width="0.32" d="M713.75,-147.7C713.75,-140.08 713.75,-128.43 713.75,-117.35"/>
<polygon fill="red" stroke="red" stroke-width="0.32" points="717.25,-117.55 713.75,-107.55 710.25,-117.55 717.25,-117.55"/>
</g>
<!-- &#45;16 -->
<g id="node16" class="node">
<title>&#45;16</title>
<polygon fill="lightgray" stroke="black" points="773.75,-166.46 745.75,-166.46 745.75,-147.96 773.75,-147.96 773.75,-166.46"/>
<text text-anchor="middle" x="759.75" y="-153.91" font-family="Times,serif" font-size="9.00">&#45;16</text>
</g>
<!-- &#45;17 -->
<g id="node17" class="node">
<title>&#45;17</title>
<polygon fill="lightgray" stroke="black" points="819.75,-166.46 791.75,-166.46 791.75,-147.96 819.75,-147.96 819.75,-166.46"/>
<text text-anchor="middle" x="805.75" y="-153.91" font-family="Times,serif" font-size="9.00">&#45;17</text>
</g>
<!-- &#45;18 -->
<g id="node18" class="node">
<title>&#45;18</title>
<polygon fill="lightgray" stroke="black" points="199.75,-166.46 171.75,-166.46 171.75,-147.96 199.75,-147.96 199.75,-166.46"/>
<text text-anchor="middle" x="185.75" y="-153.91" font-family="Times,serif" font-size="9.00">&#45;18</text>
</g>
<!-- &#45;18&#45;&gt;247 -->
<g id="edge3" class="edge">
<title>&#45;18&#45;&gt;247</title>
<path fill="none" stroke="green" stroke-width="0.26" d="M180.11,-147.7C174.32,-138.97 165.02,-124.94 156.8,-112.56"/>
<polygon fill="green" stroke="green" stroke-width="0.26" points="159.74,-110.66 151.3,-104.26 153.91,-114.53 159.74,-110.66"/>
</g>
<!-- &#45;19 -->
<g id="node19" class="node">
<title>&#45;19</title>
<polygon fill="lightgray" stroke="black" points="865.75,-166.46 837.75,-166.46 837.75,-147.96 865.75,-147.96 865.75,-166.46"/>
<text text-anchor="middle" x="851.75" y="-153.91" font-family="Times,serif" font-size="9.00">&#45;19</text>
</g>
<!-- &#45;20 -->
<g id="node20" class="node">
<title>&#45;20</title>
<polygon fill="lightgray" stroke="black" points="245.75,-166.46 217.75,-166.46 217.75,-147.96 245.75,-147.96 245.75,-166.46"/>
<text text-anchor="middle" x="231.75" y="-153.91" font-family="Times,serif" font-size="9.00">&#45;20</text>
</g>
<!-- &#45;20&#45;&gt;247 -->
<g id="edge1" class="edge">
<title>&#45;20&#45;&gt;247</title>
<path fill="none" stroke="red" stroke-width="0.29" d="M220.47,-147.7C206.49,-137.16 182.28,-118.91 164.01,-105.14"/>
<polygon fill="red" stroke="red" stroke-width="0.29" points="166.54,-102.66 156.45,-99.44 162.32,-108.25 166.54,-102.66"/>
</g>
<!-- 0 -->
<g id="node21" class="node">
<title>0</title>
<ellipse fill="lightblue" stroke="black" cx="897.75" cy="-157.21" rx="14.5" ry="14.5"/>
<text text-anchor="middle" x="897.75" y="-153.91" font-family="Times,serif" font-size="9.00">0</text>
</g>
<!-- 1 -->
<g id="node22" class="node">
<title>1</title>
<ellipse fill="lightblue" stroke="black" cx="116.75" cy="-14.5" rx="14.5" ry="14.5"/>
<text text-anchor="middle" x="116.75" y="-11.2" font-family="Times,serif" font-size="9.00">1</text>
</g>
<!-- 2 -->
<g id="node23" class="node">
<title>2</title>
<ellipse fill="lightblue" stroke="black" cx="713.75" cy="-14.5" rx="14.5" ry="14.5"/>
<text text-anchor="middle" x="713.75" y="-11.2" font-family="Times,serif" font-size="9.00">2</text>
</g>
<!-- 3 -->
<g id="node24" class="node">
<title>3</title>
<ellipse fill="lightblue" stroke="black" cx="944.75" cy="-157.21" rx="14.5" ry="14.5"/>
<text text-anchor="middle" x="944.75" y="-153.91" font-family="Times,serif" font-size="9.00">3</text>
</g>
<!-- 3&#45;&gt;3 -->
<g id="edge8" class="edge">
<title>3&#45;&gt;3</title>
<path fill="none" stroke="green" stroke-width="0.21" d="M955.07,-167.65C965.56,-173.79 977.25,-170.31 977.25,-157.21 977.25,-148.2 971.72,-143.74 964.86,-143.83"/>
<polygon fill="green" stroke="green" stroke-width="0.21" points="963.94,-140.45 955.37,-146.68 965.95,-147.16 963.94,-140.45"/>
</g>
<!-- 4 -->
<g id="node25" class="node">
<title>4</title>
<ellipse fill="lightblue" stroke="black" cx="163.75" cy="-14.5" rx="14.5" ry="14.5"/>
<text text-anchor="middle" x="163.75" y="-11.2" font-family="Times,serif" font-size="9.00">4</text>
</g>
<!-- 247&#45;&gt;1 -->
<g id="edge11" class="edge">
<title>247&#45;&gt;1</title>
<path fill="none" stroke="red" stroke-width="0.1" d="M133.34,-65.53C130.55,-57.12 127.26,-47.2 124.35,-38.41"/>
<polygon fill="red" stroke="red" stroke-width="0.1" points="127.68,-37.33 121.21,-28.94 121.03,-39.53 127.68,-37.33"/>
</g>
<!-- 247&#45;&gt;4 -->
<g id="edge4" class="edge">
<title>247&#45;&gt;4</title>
<path fill="none" stroke="green" stroke-width="0.29" d="M146.31,-65.9C149.26,-57.37 152.77,-47.22 155.87,-38.28"/>
<polygon fill="green" stroke="green" stroke-width="0.29" points="159.14,-39.52 159.1,-28.92 152.53,-37.23 159.14,-39.52"/>
</g>
<!-- 247&#45;&gt;247 -->
<g id="edge2" class="edge">
<title>247&#45;&gt;247</title>
<path fill="none" stroke="green" stroke-width="0.1" d="M156.93,-98.17C167.98,-101.39 178.61,-97.28 178.61,-85.85 178.61,-77.99 173.58,-73.6 166.85,-72.66"/>
<polygon fill="green" stroke="green" stroke-width="0.1" points="166.74,-69.16 157.09,-73.52 167.35,-76.13 166.74,-69.16"/>
</g>
<!-- 248&#45;&gt;2 -->
<g id="edge5" class="edge">
<title>248&#45;&gt;2</title>
<path fill="none" stroke="red" stroke-width="0.21" d="M713.75,-64.79C713.75,-56.89 713.75,-47.75 713.75,-39.5"/>
<polygon fill="red" stroke="red" stroke-width="0.21" points="717.25,-39.67 713.75,-29.67 710.25,-39.67 717.25,-39.67"/>
</g>
</g>
</svg>
