<?xml version="1.0" encoding="UTF-8" standalone="no"?>
<!DOCTYPE svg PUBLIC "-//W3C//DTD SVG 1.1//EN"
 "http://www.w3.org/Graphics/SVG/1.1/DTD/svg11.dtd">
<!-- Generated by graphviz version 12.1.1 (20240910.0053)
 -->
<!-- Pages: 1 -->
<svg width="817pt" height="176pt"
 viewBox="0.00 0.00 816.75 175.57" xmlns="http://www.w3.org/2000/svg" xmlns:xlink="http://www.w3.org/1999/xlink">
<g id="graph0" class="graph" transform="scale(1 1) rotate(0) translate(4 171.57)">
<polygon fill="white" stroke="none" points="-4,4 -4,-171.57 812.75,-171.57 812.75,4 -4,4"/>
<!-- &#45;1 -->
<g id="node1" class="node">
<title>&#45;1</title>
<polygon fill="lightgray" stroke="black" points="23.5,-167.57 0,-167.57 0,-149.07 23.5,-149.07 23.5,-167.57"/>
<text text-anchor="middle" x="11.75" y="-155.02" font-family="Times,serif" font-size="9.00">&#45;1</text>
</g>
<!-- 3 -->
<g id="node24" class="node">
<title>3</title>
<ellipse fill="lightblue" stroke="black" cx="75.75" cy="-89.03" rx="14.5" ry="14.5"/>
<text text-anchor="middle" x="75.75" y="-85.73" font-family="Times,serif" font-size="9.00">3</text>
</g>
<!-- &#45;1&#45;&gt;3 -->
<g id="edge4" class="edge">
<title>&#45;1&#45;&gt;3</title>
<path fill="none" stroke="red" stroke-width="0.65" d="M19.86,-148.8C29.66,-138.49 46.42,-120.87 59.03,-107.61"/>
<polygon fill="red" stroke="red" stroke-width="0.65" points="61.23,-110.38 65.58,-100.72 56.15,-105.56 61.23,-110.38"/>
</g>
<!-- &#45;2 -->
<g id="node2" class="node">
<title>&#45;2</title>
<polygon fill="lightgray" stroke="black" points="65.5,-167.57 42,-167.57 42,-149.07 65.5,-149.07 65.5,-167.57"/>
<text text-anchor="middle" x="53.75" y="-155.02" font-family="Times,serif" font-size="9.00">&#45;2</text>
</g>
<!-- &#45;2&#45;&gt;3 -->
<g id="edge17" class="edge">
<title>&#45;2&#45;&gt;3</title>
<path fill="none" stroke="green" stroke-width="0.46" d="M56.54,-148.8C59.43,-139.94 64.1,-125.67 68.1,-113.42"/>
<polygon fill="green" stroke="green" stroke-width="0.46" points="71.4,-114.61 71.18,-104.02 64.74,-112.43 71.4,-114.61"/>
</g>
<!-- &#45;3 -->
<g id="node3" class="node">
<title>&#45;3</title>
<polygon fill="lightgray" stroke="black" points="131.5,-98.28 108,-98.28 108,-79.78 131.5,-79.78 131.5,-98.28"/>
<text text-anchor="middle" x="119.75" y="-85.73" font-family="Times,serif" font-size="9.00">&#45;3</text>
</g>
<!-- 4 -->
<g id="node25" class="node">
<title>4</title>
<ellipse fill="lightblue" stroke="black" cx="185.75" cy="-14.5" rx="14.5" ry="14.5"/>
<text text-anchor="middle" x="185.75" y="-11.2" font-family="Times,serif" font-size="9.00">4</text>
</g>
<!-- &#45;3&#45;&gt;4 -->
<g id="edge12" class="edge">
<title>&#45;3&#45;&gt;4</title>
<path fill="none" stroke="green" stroke-width="0.52" d="M127.58,-79.43C137.74,-68.26 155.74,-48.48 169.04,-33.86"/>
<polygon fill="green" stroke="green" stroke-width="0.52" points="171.56,-36.29 175.7,-26.54 166.38,-31.58 171.56,-36.29"/>
</g>
<!-- &#45;4 -->
<g id="node4" class="node">
<title>&#45;4</title>
<polygon fill="lightgray" stroke="black" points="494.5,-167.57 471,-167.57 471,-149.07 494.5,-149.07 494.5,-167.57"/>
<text text-anchor="middle" x="482.75" y="-155.02" font-family="Times,serif" font-size="9.00">&#45;4</text>
</g>
<!-- &#45;5 -->
<g id="node5" class="node">
<title>&#45;5</title>
<polygon fill="lightgray" stroke="black" points="536.5,-167.57 513,-167.57 513,-149.07 536.5,-149.07 536.5,-167.57"/>
<text text-anchor="middle" x="524.75" y="-155.02" font-family="Times,serif" font-size="9.00">&#45;5</text>
</g>
<!-- &#45;6 -->
<g id="node6" class="node">
<title>&#45;6</title>
<polygon fill="lightgray" stroke="black" points="578.5,-167.57 555,-167.57 555,-149.07 578.5,-149.07 578.5,-167.57"/>
<text text-anchor="middle" x="566.75" y="-155.02" font-family="Times,serif" font-size="9.00">&#45;6</text>
</g>
<!-- &#45;7 -->
<g id="node7" class="node">
<title>&#45;7</title>
<polygon fill="lightgray" stroke="black" points="272.5,-167.57 249,-167.57 249,-149.07 272.5,-149.07 272.5,-167.57"/>
<text text-anchor="middle" x="260.75" y="-155.02" font-family="Times,serif" font-size="9.00">&#45;7</text>
</g>
<!-- 1 -->
<g id="node22" class="node">
<title>1</title>
<ellipse fill="lightblue" stroke="black" cx="331.75" cy="-89.03" rx="14.5" ry="14.5"/>
<text text-anchor="middle" x="331.75" y="-85.73" font-family="Times,serif" font-size="9.00">1</text>
</g>
<!-- &#45;7&#45;&gt;1 -->
<g id="edge2" class="edge">
<title>&#45;7&#45;&gt;1</title>
<path fill="none" stroke="green" stroke-width="0.37" stroke-dasharray="1,5" d="M269.74,-148.8C280.85,-138.28 299.99,-120.13 314.08,-106.78"/>
<polygon fill="green" stroke="green" stroke-width="0.37" points="316.44,-109.37 321.29,-99.95 311.62,-104.29 316.44,-109.37"/>
</g>
<!-- 2 -->
<g id="node23" class="node">
<title>2</title>
<ellipse fill="lightblue" stroke="black" cx="268.75" cy="-89.03" rx="14.5" ry="14.5"/>
<text text-anchor="middle" x="268.75" y="-85.73" font-family="Times,serif" font-size="9.00">2</text>
</g>
<!-- &#45;7&#45;&gt;2 -->
<g id="edge3" class="edge">
<title>&#45;7&#45;&gt;2</title>
<path fill="none" stroke="green" stroke-width="0.28" d="M261.76,-148.8C262.8,-140.05 264.47,-126.03 265.92,-113.87"/>
<polygon fill="green" stroke="green" stroke-width="0.28" points="269.35,-114.62 267.06,-104.28 262.4,-113.8 269.35,-114.62"/>
</g>
<!-- &#45;8 -->
<g id="node8" class="node">
<title>&#45;8</title>
<polygon fill="lightgray" stroke="black" points="314.5,-167.57 291,-167.57 291,-149.07 314.5,-149.07 314.5,-167.57"/>
<text text-anchor="middle" x="302.75" y="-155.02" font-family="Times,serif" font-size="9.00">&#45;8</text>
</g>
<!-- &#45;8&#45;&gt;1 -->
<g id="edge6" class="edge">
<title>&#45;8&#45;&gt;1</title>
<path fill="none" stroke="green" stroke-width="0.36" stroke-dasharray="1,5" d="M306.42,-148.8C310.37,-139.65 316.8,-124.73 322.19,-112.22"/>
<polygon fill="green" stroke="green" stroke-width="0.36" points="325.27,-113.92 326.01,-103.35 318.84,-111.15 325.27,-113.92"/>
</g>
<!-- &#45;9 -->
<g id="node9" class="node">
<title>&#45;9</title>
<polygon fill="lightgray" stroke="black" points="223.5,-167.57 200,-167.57 200,-149.07 223.5,-149.07 223.5,-167.57"/>
<text text-anchor="middle" x="211.75" y="-155.02" font-family="Times,serif" font-size="9.00">&#45;9</text>
</g>
<!-- &#45;9&#45;&gt;2 -->
<g id="edge8" class="edge">
<title>&#45;9&#45;&gt;2</title>
<path fill="none" stroke="red" stroke-width="0.3" d="M218.97,-148.8C227.52,-138.71 242.01,-121.6 253.16,-108.44"/>
<polygon fill="red" stroke="red" stroke-width="0.3" points="255.82,-110.71 259.62,-100.82 250.48,-106.18 255.82,-110.71"/>
</g>
<!-- &#45;9&#45;&gt;4 -->
<g id="edge11" class="edge">
<title>&#45;9&#45;&gt;4</title>
<path fill="none" stroke="green" stroke-width="0.56" d="M202.73,-148.84C194.68,-140.59 183.46,-127.26 178.75,-113.07 170.71,-88.84 174.53,-59.42 179.05,-39.26"/>
<polygon fill="green" stroke="green" stroke-width="0.56" points="182.42,-40.2 181.43,-29.65 175.62,-38.52 182.42,-40.2"/>
</g>
<!-- 3827 -->
<g id="node26" class="node">
<title>3827</title>
<ellipse fill="white" stroke="black" cx="211.75" cy="-89.03" rx="24.04" ry="24.04"/>
<text text-anchor="middle" x="211.75" y="-85.73" font-family="Times,serif" font-size="9.00">3827</text>
</g>
<!-- &#45;9&#45;&gt;3827 -->
<g id="edge14" class="edge">
<title>&#45;9&#45;&gt;3827</title>
<path fill="none" stroke="green" stroke-width="0.24" stroke-dasharray="1,5" d="M211.75,-148.8C211.75,-142.38 211.75,-133.12 211.75,-123.84"/>
<polygon fill="green" stroke="green" stroke-width="0.24" points="215.25,-123.87 211.75,-113.87 208.25,-123.87 215.25,-123.87"/>
</g>
<!-- &#45;10 -->
<g id="node10" class="node">
<title>&#45;10</title>
<polygon fill="lightgray" stroke="black" points="360.75,-167.57 332.75,-167.57 332.75,-149.07 360.75,-149.07 360.75,-167.57"/>
<text text-anchor="middle" x="346.75" y="-155.02" font-family="Times,serif" font-size="9.00">&#45;10</text>
</g>
<!-- &#45;10&#45;&gt;1 -->
<g id="edge9" class="edge">
<title>&#45;10&#45;&gt;1</title>
<path fill="none" stroke="green" stroke-width="0.34" d="M344.85,-148.8C342.87,-139.94 339.69,-125.67 336.96,-113.42"/>
<polygon fill="green" stroke="green" stroke-width="0.34" points="340.42,-112.85 334.83,-103.85 333.59,-114.37 340.42,-112.85"/>
</g>
<!-- &#45;11 -->
<g id="node11" class="node">
<title>&#45;11</title>
<polygon fill="lightgray" stroke="black" points="624.75,-167.57 596.75,-167.57 596.75,-149.07 624.75,-149.07 624.75,-167.57"/>
<text text-anchor="middle" x="610.75" y="-155.02" font-family="Times,serif" font-size="9.00">&#45;11</text>
</g>
<!-- 0 -->
<g id="node21" class="node">
<title>0</title>
<ellipse fill="lightblue" stroke="black" cx="610.75" cy="-89.03" rx="14.5" ry="14.5"/>
<text text-anchor="middle" x="610.75" y="-85.73" font-family="Times,serif" font-size="9.00">0</text>
</g>
<!-- &#45;11&#45;&gt;0 -->
<g id="edge13" class="edge">
<title>&#45;11&#45;&gt;0</title>
<path fill="none" stroke="red" stroke-width="0.59" d="M610.75,-148.8C610.75,-140.23 610.75,-126.59 610.75,-114.61"/>
<polygon fill="red" stroke="red" stroke-width="0.59" points="614.25,-114.74 610.75,-104.74 607.25,-114.74 614.25,-114.74"/>
</g>
<!-- &#45;12 -->
<g id="node12" class="node">
<title>&#45;12</title>
<polygon fill="lightgray" stroke="black" points="111.75,-167.57 83.75,-167.57 83.75,-149.07 111.75,-149.07 111.75,-167.57"/>
<text text-anchor="middle" x="97.75" y="-155.02" font-family="Times,serif" font-size="9.00">&#45;12</text>
</g>
<!-- &#45;12&#45;&gt;3 -->
<g id="edge10" class="edge">
<title>&#45;12&#45;&gt;3</title>
<path fill="none" stroke="red" stroke-width="0.69" stroke-dasharray="1,5" d="M94.96,-148.8C92.1,-140.03 87.5,-125.96 83.52,-113.79"/>
<polygon fill="red" stroke="red" stroke-width="0.69" points="86.86,-112.76 80.43,-104.34 80.21,-114.93 86.86,-112.76"/>
</g>
<!-- &#45;13 -->
<g id="node13" class="node">
<title>&#45;13</title>
<polygon fill="lightgray" stroke="black" points="670.75,-167.57 642.75,-167.57 642.75,-149.07 670.75,-149.07 670.75,-167.57"/>
<text text-anchor="middle" x="656.75" y="-155.02" font-family="Times,serif" font-size="9.00">&#45;13</text>
</g>
<!-- &#45;14 -->
<g id="node14" class="node">
<title>&#45;14</title>
<polygon fill="lightgray" stroke="black" points="406.75,-167.57 378.75,-167.57 378.75,-149.07 406.75,-149.07 406.75,-167.57"/>
<text text-anchor="middle" x="392.75" y="-155.02" font-family="Times,serif" font-size="9.00">&#45;14</text>
</g>
<!-- &#45;14&#45;&gt;1 -->
<g id="edge5" class="edge">
<title>&#45;14&#45;&gt;1</title>
<path fill="none" stroke="green" stroke-width="0.28" stroke-dasharray="1,5" d="M385.02,-148.8C375.79,-138.61 360.07,-121.27 348.09,-108.06"/>
<polygon fill="green" stroke="green" stroke-width="0.28" points="350.8,-105.84 341.49,-100.78 345.62,-110.54 350.8,-105.84"/>
</g>
<!-- &#45;15 -->
<g id="node15" class="node">
<title>&#45;15</title>
<polygon fill="lightgray" stroke="black" points="157.75,-167.57 129.75,-167.57 129.75,-149.07 157.75,-149.07 157.75,-167.57"/>
<text text-anchor="middle" x="143.75" y="-155.02" font-family="Times,serif" font-size="9.00">&#45;15</text>
</g>
<!-- &#45;15&#45;&gt;3 -->
<g id="edge1" class="edge">
<title>&#45;15&#45;&gt;3</title>
<path fill="none" stroke="green" stroke-width="0.46" stroke-dasharray="1,5" d="M135.1,-148.87C126.02,-139.98 111.35,-125.58 98.75,-113.07 96.85,-111.19 94.88,-109.22 92.91,-107.26"/>
<polygon fill="green" stroke="green" stroke-width="0.46" points="95.62,-105.02 86.07,-100.42 90.67,-109.96 95.62,-105.02"/>
</g>
<!-- &#45;16 -->
<g id="node16" class="node">
<title>&#45;16</title>
<polygon fill="lightgray" stroke="black" points="452.75,-167.57 424.75,-167.57 424.75,-149.07 452.75,-149.07 452.75,-167.57"/>
<text text-anchor="middle" x="438.75" y="-155.02" font-family="Times,serif" font-size="9.00">&#45;16</text>
</g>
<!-- &#45;16&#45;&gt;1 -->
<g id="edge16" class="edge">
<title>&#45;16&#45;&gt;1</title>
<path fill="none" stroke="green" stroke-width="0.36" d="M424.31,-151.33C406.94,-143.76 377.3,-129.71 354.75,-113.07 352.6,-111.49 350.46,-109.7 348.4,-107.85"/>
<polygon fill="green" stroke="green" stroke-width="0.36" points="350.98,-105.47 341.39,-100.98 346.08,-110.47 350.98,-105.47"/>
</g>
<!-- &#45;17 -->
<g id="node17" class="node">
<title>&#45;17</title>
<polygon fill="lightgray" stroke="black" points="716.75,-167.57 688.75,-167.57 688.75,-149.07 716.75,-149.07 716.75,-167.57"/>
<text text-anchor="middle" x="702.75" y="-155.02" font-family="Times,serif" font-size="9.00">&#45;17</text>
</g>
<!-- &#45;18 -->
<g id="node18" class="node">
<title>&#45;18</title>
<polygon fill="lightgray" stroke="black" points="762.75,-167.57 734.75,-167.57 734.75,-149.07 762.75,-149.07 762.75,-167.57"/>
<text text-anchor="middle" x="748.75" y="-155.02" font-family="Times,serif" font-size="9.00">&#45;18</text>
</g>
<!-- &#45;19 -->
<g id="node19" class="node">
<title>&#45;19</title>
<polygon fill="lightgray" stroke="black" points="391.75,-98.28 363.75,-98.28 363.75,-79.78 391.75,-79.78 391.75,-98.28"/>
<text text-anchor="middle" x="377.75" y="-85.73" font-family="Times,serif" font-size="9.00">&#45;19</text>
</g>
<!-- &#45;19&#45;&gt;4 -->
<g id="edge7" class="edge">
<title>&#45;19&#45;&gt;4</title>
<path fill="none" stroke="red" stroke-width="0.63" stroke-dasharray="1,5" d="M371.3,-79.73C367.08,-74.81 361.17,-68.8 354.75,-64.99 308.22,-37.38 245.25,-24.29 210.81,-18.84"/>
<polygon fill="red" stroke="red" stroke-width="0.63" points="211.63,-15.42 201.23,-17.41 210.6,-22.35 211.63,-15.42"/>
</g>
<!-- &#45;20 -->
<g id="node20" class="node">
<title>&#45;20</title>
<polygon fill="lightgray" stroke="black" points="808.75,-167.57 780.75,-167.57 780.75,-149.07 808.75,-149.07 808.75,-167.57"/>
<text text-anchor="middle" x="794.75" y="-155.02" font-family="Times,serif" font-size="9.00">&#45;20</text>
</g>
<!-- 3827&#45;&gt;4 -->
<g id="edge15" class="edge">
<title>3827&#45;&gt;4</title>
<path fill="none" stroke="green" stroke-width="0.21" stroke-dasharray="1,5" d="M203.81,-65.88C200.67,-57.13 197.07,-47.09 193.92,-38.29"/>
<polygon fill="green" stroke="green" stroke-width="0.21" points="197.25,-37.2 190.58,-28.97 190.66,-39.57 197.25,-37.2"/>
</g>
</g>
</svg>
