<?xml version="1.0" encoding="UTF-8" standalone="no"?>
<!DOCTYPE svg PUBLIC "-//W3C//DTD SVG 1.1//EN"
 "http://www.w3.org/Graphics/SVG/1.1/DTD/svg11.dtd">
<!-- Generated by graphviz version 12.1.1 (20240910.0053)
 -->
<!-- Pages: 1 -->
<svg width="742pt" height="241pt"
 viewBox="0.00 0.00 741.50 240.57" xmlns="http://www.w3.org/2000/svg" xmlns:xlink="http://www.w3.org/1999/xlink">
<g id="graph0" class="graph" transform="scale(1 1) rotate(0) translate(4 236.57)">
<polygon fill="white" stroke="none" points="-4,4 -4,-236.57 737.5,-236.57 737.5,4 -4,4"/>
<!-- &#45;1 -->
<g id="node1" class="node">
<title>&#45;1</title>
<polygon fill="lightgray" stroke="black" points="232.5,-232.57 209,-232.57 209,-214.07 232.5,-214.07 232.5,-232.57"/>
<text text-anchor="middle" x="220.75" y="-220.02" font-family="Times,serif" font-size="9.00">&#45;1</text>
</g>
<!-- &#45;2 -->
<g id="node2" class="node">
<title>&#45;2</title>
<polygon fill="lightgray" stroke="black" points="210.5,-91.92 187,-91.92 187,-73.42 210.5,-73.42 210.5,-91.92"/>
<text text-anchor="middle" x="198.75" y="-79.37" font-family="Times,serif" font-size="9.00">&#45;2</text>
</g>
<!-- 3 -->
<g id="node24" class="node">
<title>3</title>
<ellipse fill="lightblue" stroke="black" cx="264.75" cy="-14.5" rx="14.5" ry="14.5"/>
<text text-anchor="middle" x="264.75" y="-11.2" font-family="Times,serif" font-size="9.00">3</text>
</g>
<!-- &#45;2&#45;&gt;3 -->
<g id="edge43" class="edge">
<title>&#45;2&#45;&gt;3</title>
<path fill="none" stroke="green" stroke-width="0.36" d="M207.38,-73.02C217.56,-62.81 234.75,-45.58 247.66,-32.63"/>
<polygon fill="green" stroke="green" stroke-width="0.36" points="250.08,-35.16 254.66,-25.61 245.12,-30.22 250.08,-35.16"/>
</g>
<!-- &#45;3 -->
<g id="node3" class="node">
<title>&#45;3</title>
<polygon fill="lightgray" stroke="black" points="653.5,-166.46 630,-166.46 630,-147.96 653.5,-147.96 653.5,-166.46"/>
<text text-anchor="middle" x="641.75" y="-153.91" font-family="Times,serif" font-size="9.00">&#45;3</text>
</g>
<!-- 85 -->
<g id="node27" class="node">
<title>85</title>
<ellipse fill="white" stroke="black" cx="551.75" cy="-82.67" rx="17.68" ry="17.68"/>
<text text-anchor="middle" x="551.75" y="-79.37" font-family="Times,serif" font-size="9.00">85</text>
</g>
<!-- &#45;3&#45;&gt;85 -->
<g id="edge29" class="edge">
<title>&#45;3&#45;&gt;85</title>
<path fill="none" stroke="red" stroke-width="0.35" d="M632.95,-147.49C629.26,-143.94 624.88,-139.86 620.75,-136.35 605.68,-123.53 587.93,-110.01 574.2,-99.88"/>
<polygon fill="red" stroke="red" stroke-width="0.35" points="576.4,-97.14 566.26,-94.06 572.26,-102.79 576.4,-97.14"/>
</g>
<!-- 86 -->
<g id="node28" class="node">
<title>86</title>
<ellipse fill="white" stroke="black" cx="448.75" cy="-82.67" rx="17.68" ry="17.68"/>
<text text-anchor="middle" x="448.75" y="-79.37" font-family="Times,serif" font-size="9.00">86</text>
</g>
<!-- &#45;3&#45;&gt;86 -->
<g id="edge30" class="edge">
<title>&#45;3&#45;&gt;86</title>
<path fill="none" stroke="red" stroke-width="0.36" d="M634.29,-147.51C630.56,-143.63 625.78,-139.28 620.75,-136.35 595.92,-121.89 517.94,-101 476.03,-90.4"/>
<polygon fill="red" stroke="red" stroke-width="0.36" points="477.05,-87.04 466.49,-88 475.34,-93.83 477.05,-87.04"/>
</g>
<!-- &#45;4 -->
<g id="node4" class="node">
<title>&#45;4</title>
<polygon fill="lightgray" stroke="black" points="733.5,-166.46 710,-166.46 710,-147.96 733.5,-147.96 733.5,-166.46"/>
<text text-anchor="middle" x="721.75" y="-153.91" font-family="Times,serif" font-size="9.00">&#45;4</text>
</g>
<!-- &#45;4&#45;&gt;85 -->
<g id="edge11" class="edge">
<title>&#45;4&#45;&gt;85</title>
<path fill="none" stroke="red" stroke-width="0.12" d="M712.11,-147.73C707.41,-143.89 701.53,-139.51 695.75,-136.35 657.12,-115.17 608.26,-99.36 578.54,-90.83"/>
<polygon fill="red" stroke="red" stroke-width="0.12" points="579.62,-87.49 569.05,-88.16 577.73,-94.23 579.62,-87.49"/>
</g>
<!-- &#45;5 -->
<g id="node5" class="node">
<title>&#45;5</title>
<polygon fill="lightgray" stroke="black" points="431.5,-166.46 408,-166.46 408,-147.96 431.5,-147.96 431.5,-166.46"/>
<text text-anchor="middle" x="419.75" y="-153.91" font-family="Times,serif" font-size="9.00">&#45;5</text>
</g>
<!-- 87 -->
<g id="node29" class="node">
<title>87</title>
<ellipse fill="white" stroke="black" cx="379.75" cy="-82.67" rx="17.68" ry="17.68"/>
<text text-anchor="middle" x="379.75" y="-79.37" font-family="Times,serif" font-size="9.00">87</text>
</g>
<!-- &#45;5&#45;&gt;87 -->
<g id="edge12" class="edge">
<title>&#45;5&#45;&gt;87</title>
<path fill="none" stroke="green" stroke-width="0.46" d="M415,-147.6C409.59,-137.78 400.5,-121.31 392.91,-107.54"/>
<polygon fill="green" stroke="green" stroke-width="0.46" points="396.19,-106.23 388.29,-99.16 390.06,-109.61 396.19,-106.23"/>
</g>
<!-- &#45;6 -->
<g id="node6" class="node">
<title>&#45;6</title>
<polygon fill="lightgray" stroke="black" points="274.5,-232.57 251,-232.57 251,-214.07 274.5,-214.07 274.5,-232.57"/>
<text text-anchor="middle" x="262.75" y="-220.02" font-family="Times,serif" font-size="9.00">&#45;6</text>
</g>
<!-- 307 -->
<g id="node26" class="node">
<title>307</title>
<ellipse fill="white" stroke="black" cx="146.75" cy="-157.21" rx="20.86" ry="20.86"/>
<text text-anchor="middle" x="146.75" y="-153.91" font-family="Times,serif" font-size="9.00">307</text>
</g>
<!-- &#45;6&#45;&gt;307 -->
<g id="edge44" class="edge">
<title>&#45;6&#45;&gt;307</title>
<path fill="none" stroke="green" stroke-width="0.22" stroke-dasharray="1,5" d="M250.56,-216.57C233.69,-208.49 202.39,-193.09 176.75,-178.07 175.27,-177.2 173.76,-176.29 172.24,-175.35"/>
<polygon fill="green" stroke="green" stroke-width="0.22" points="174.26,-172.49 163.95,-170.05 170.5,-178.39 174.26,-172.49"/>
</g>
<!-- &#45;6&#45;&gt;85 -->
<g id="edge34" class="edge">
<title>&#45;6&#45;&gt;85</title>
<path fill="none" stroke="red" stroke-width="0.38" stroke-dasharray="1,5" d="M274.56,-217.01C277.51,-215.87 280.7,-214.79 283.75,-214.07 366.04,-194.41 605.83,-240.65 662.75,-178.07 675.23,-164.35 672.66,-152.02 662.75,-136.35 644.61,-107.67 606.16,-94.29 579.63,-88.27"/>
<polygon fill="red" stroke="red" stroke-width="0.38" points="580.5,-84.88 570,-86.3 579.09,-91.73 580.5,-84.88"/>
</g>
<!-- &#45;6&#45;&gt;87 -->
<g id="edge24" class="edge">
<title>&#45;6&#45;&gt;87</title>
<path fill="none" stroke="green" stroke-width="0.43" stroke-dasharray="1,5" d="M274.68,-217.64C299.52,-207.81 354.99,-185.29 360.75,-178.07 375.78,-159.2 379.9,-131.62 380.64,-111.13"/>
<polygon fill="green" stroke="green" stroke-width="0.43" points="384.14,-111.28 380.74,-101.24 377.14,-111.2 384.14,-111.28"/>
</g>
<!-- 88 -->
<g id="node30" class="node">
<title>88</title>
<ellipse fill="white" stroke="black" cx="245.75" cy="-82.67" rx="17.68" ry="17.68"/>
<text text-anchor="middle" x="245.75" y="-79.37" font-family="Times,serif" font-size="9.00">88</text>
</g>
<!-- &#45;6&#45;&gt;88 -->
<g id="edge31" class="edge">
<title>&#45;6&#45;&gt;88</title>
<path fill="none" stroke="red" stroke-width="0.13" stroke-dasharray="1,5" d="M250.88,-217.25C247.93,-216.11 244.75,-214.96 241.75,-214.07 167.35,-191.79 119.69,-238.38 70.75,-178.07 59.07,-163.67 59.28,-150.92 70.75,-136.35 112.89,-82.81 157.1,-127.11 219.75,-100.35 220.76,-99.91 221.78,-99.45 222.79,-98.95"/>
<polygon fill="red" stroke="red" stroke-width="0.13" points="224.51,-102 231.47,-94.02 221.05,-95.91 224.51,-102"/>
</g>
<!-- &#45;7 -->
<g id="node7" class="node">
<title>&#45;7</title>
<polygon fill="lightgray" stroke="black" points="23.5,-166.46 0,-166.46 0,-147.96 23.5,-147.96 23.5,-166.46"/>
<text text-anchor="middle" x="11.75" y="-153.91" font-family="Times,serif" font-size="9.00">&#45;7</text>
</g>
<!-- &#45;7&#45;&gt;88 -->
<g id="edge9" class="edge">
<title>&#45;7&#45;&gt;88</title>
<path fill="none" stroke="red" stroke-width="0.18" stroke-dasharray="1,5" d="M20.71,-147.72C25.44,-143.69 31.54,-139.15 37.75,-136.35 112.91,-102.44 143.26,-131.15 219.75,-100.35 220.77,-99.94 221.79,-99.48 222.81,-99"/>
<polygon fill="red" stroke="red" stroke-width="0.18" points="224.44,-102.1 231.46,-94.16 221.03,-95.99 224.44,-102.1"/>
</g>
<!-- &#45;8 -->
<g id="node8" class="node">
<title>&#45;8</title>
<polygon fill="lightgray" stroke="black" points="316.5,-232.57 293,-232.57 293,-214.07 316.5,-214.07 316.5,-232.57"/>
<text text-anchor="middle" x="304.75" y="-220.02" font-family="Times,serif" font-size="9.00">&#45;8</text>
</g>
<!-- &#45;9 -->
<g id="node9" class="node">
<title>&#45;9</title>
<polygon fill="lightgray" stroke="black" points="519.5,-166.46 496,-166.46 496,-147.96 519.5,-147.96 519.5,-166.46"/>
<text text-anchor="middle" x="507.75" y="-153.91" font-family="Times,serif" font-size="9.00">&#45;9</text>
</g>
<!-- &#45;9&#45;&gt;85 -->
<g id="edge2" class="edge">
<title>&#45;9&#45;&gt;85</title>
<path fill="none" stroke="red" stroke-width="0.34" stroke-dasharray="1,5" d="M512.97,-147.6C519.02,-137.63 529.24,-120.78 537.67,-106.88"/>
<polygon fill="red" stroke="red" stroke-width="0.34" points="540.43,-109.08 542.62,-98.71 534.44,-105.45 540.43,-109.08"/>
</g>
<!-- &#45;9&#45;&gt;86 -->
<g id="edge25" class="edge">
<title>&#45;9&#45;&gt;86</title>
<path fill="none" stroke="green" stroke-width="0.18" d="M500.75,-147.6C492.23,-137.12 477.54,-119.06 465.94,-104.8"/>
<polygon fill="green" stroke="green" stroke-width="0.18" points="468.74,-102.7 459.71,-97.15 463.31,-107.12 468.74,-102.7"/>
</g>
<!-- &#45;9&#45;&gt;87 -->
<g id="edge1" class="edge">
<title>&#45;9&#45;&gt;87</title>
<path fill="none" stroke="red" stroke-width="0.18" d="M499.67,-147.47C495.96,-143.76 491.36,-139.55 486.75,-136.35 460.83,-118.33 427.84,-103.09 405.39,-93.71"/>
<polygon fill="red" stroke="red" stroke-width="0.18" points="407,-90.59 396.42,-90.04 404.35,-97.07 407,-90.59"/>
</g>
<!-- &#45;10 -->
<g id="node10" class="node">
<title>&#45;10</title>
<polygon fill="lightgray" stroke="black" points="362.75,-232.57 334.75,-232.57 334.75,-214.07 362.75,-214.07 362.75,-232.57"/>
<text text-anchor="middle" x="348.75" y="-220.02" font-family="Times,serif" font-size="9.00">&#45;10</text>
</g>
<!-- &#45;11 -->
<g id="node11" class="node">
<title>&#45;11</title>
<polygon fill="lightgray" stroke="black" points="213.75,-166.46 185.75,-166.46 185.75,-147.96 213.75,-147.96 213.75,-166.46"/>
<text text-anchor="middle" x="199.75" y="-153.91" font-family="Times,serif" font-size="9.00">&#45;11</text>
</g>
<!-- &#45;11&#45;&gt;86 -->
<g id="edge15" class="edge">
<title>&#45;11&#45;&gt;86</title>
<path fill="none" stroke="green" stroke-width="0.27" stroke-dasharray="1,5" d="M207.51,-147.69C211.65,-143.65 217.06,-139.12 222.75,-136.35 297.68,-99.9 326.8,-123.82 406.75,-100.35 412.21,-98.74 417.94,-96.71 423.36,-94.62"/>
<polygon fill="green" stroke="green" stroke-width="0.27" points="424.3,-98.02 432.27,-91.03 421.68,-91.52 424.3,-98.02"/>
</g>
<!-- &#45;11&#45;&gt;88 -->
<g id="edge37" class="edge">
<title>&#45;11&#45;&gt;88</title>
<path fill="none" stroke="green" stroke-width="0.63" d="M205.21,-147.6C211.47,-137.72 222.01,-121.1 230.78,-107.28"/>
<polygon fill="green" stroke="green" stroke-width="0.63" points="233.57,-109.4 235.97,-99.08 227.66,-105.65 233.57,-109.4"/>
</g>
<!-- &#45;12 -->
<g id="node12" class="node">
<title>&#45;12</title>
<polygon fill="lightgray" stroke="black" points="305.75,-166.46 277.75,-166.46 277.75,-147.96 305.75,-147.96 305.75,-166.46"/>
<text text-anchor="middle" x="291.75" y="-153.91" font-family="Times,serif" font-size="9.00">&#45;12</text>
</g>
<!-- &#45;12&#45;&gt;85 -->
<g id="edge10" class="edge">
<title>&#45;12&#45;&gt;85</title>
<path fill="none" stroke="green" stroke-width="0.29" stroke-dasharray="1,5" d="M299.54,-147.75C303.69,-143.73 309.09,-139.19 314.75,-136.35 315.94,-135.75 462.56,-103.35 524.56,-89.67"/>
<polygon fill="green" stroke="green" stroke-width="0.29" points="524.99,-93.16 534,-87.58 523.48,-86.32 524.99,-93.16"/>
</g>
<!-- &#45;12&#45;&gt;86 -->
<g id="edge41" class="edge">
<title>&#45;12&#45;&gt;86</title>
<path fill="none" stroke="red" stroke-width="0.72" d="M300.16,-147.72C304.3,-143.88 309.51,-139.51 314.75,-136.35 352.35,-113.67 365.9,-116.45 406.75,-100.35 411.78,-98.37 417.14,-96.24 422.29,-94.2"/>
<polygon fill="red" stroke="red" stroke-width="0.72" points="423.39,-97.53 431.39,-90.59 420.8,-91.02 423.39,-97.53"/>
</g>
<!-- &#45;12&#45;&gt;87 -->
<g id="edge6" class="edge">
<title>&#45;12&#45;&gt;87</title>
<path fill="none" stroke="red" stroke-width="0.27" d="M301.54,-147.63C305.6,-144.11 310.38,-140 314.75,-136.35 329.19,-124.27 345.67,-110.92 358.42,-100.68"/>
<polygon fill="red" stroke="red" stroke-width="0.27" points="360.27,-103.68 365.89,-94.7 355.9,-98.22 360.27,-103.68"/>
</g>
<!-- &#45;12&#45;&gt;88 -->
<g id="edge4" class="edge">
<title>&#45;12&#45;&gt;88</title>
<path fill="none" stroke="green" stroke-width="0.2" d="M286.29,-147.6C279.97,-137.63 269.28,-120.78 260.47,-106.88"/>
<polygon fill="green" stroke="green" stroke-width="0.2" points="263.49,-105.11 255.18,-98.54 257.58,-108.86 263.49,-105.11"/>
</g>
<!-- &#45;13 -->
<g id="node13" class="node">
<title>&#45;13</title>
<polygon fill="lightgray" stroke="black" points="408.75,-232.57 380.75,-232.57 380.75,-214.07 408.75,-214.07 408.75,-232.57"/>
<text text-anchor="middle" x="394.75" y="-220.02" font-family="Times,serif" font-size="9.00">&#45;13</text>
</g>
<!-- &#45;14 -->
<g id="node14" class="node">
<title>&#45;14</title>
<polygon fill="lightgray" stroke="black" points="351.75,-166.46 323.75,-166.46 323.75,-147.96 351.75,-147.96 351.75,-166.46"/>
<text text-anchor="middle" x="337.75" y="-153.91" font-family="Times,serif" font-size="9.00">&#45;14</text>
</g>
<!-- &#45;14&#45;&gt;85 -->
<g id="edge16" class="edge">
<title>&#45;14&#45;&gt;85</title>
<path fill="none" stroke="red" stroke-width="0.11" d="M352.12,-151.33C387.67,-139.29 480.11,-107.95 525.64,-92.52"/>
<polygon fill="red" stroke="red" stroke-width="0.11" points="526.62,-95.88 534.96,-89.36 524.37,-89.25 526.62,-95.88"/>
</g>
<!-- &#45;14&#45;&gt;88 -->
<g id="edge26" class="edge">
<title>&#45;14&#45;&gt;88</title>
<path fill="none" stroke="green" stroke-width="0.4" d="M328.01,-147.57C323.96,-144.03 319.17,-139.94 314.75,-136.35 299.4,-123.88 281.65,-110.35 268,-100.12"/>
<polygon fill="green" stroke="green" stroke-width="0.4" points="270.28,-97.46 260.17,-94.29 266.1,-103.07 270.28,-97.46"/>
</g>
<!-- &#45;15 -->
<g id="node15" class="node">
<title>&#45;15</title>
<polygon fill="lightgray" stroke="black" points="565.75,-166.46 537.75,-166.46 537.75,-147.96 565.75,-147.96 565.75,-166.46"/>
<text text-anchor="middle" x="551.75" y="-153.91" font-family="Times,serif" font-size="9.00">&#45;15</text>
</g>
<!-- &#45;15&#45;&gt;85 -->
<g id="edge32" class="edge">
<title>&#45;15&#45;&gt;85</title>
<path fill="none" stroke="green" stroke-width="0.27" d="M551.75,-147.6C551.75,-138.63 551.75,-124.1 551.75,-111.15"/>
<polygon fill="green" stroke="green" stroke-width="0.27" points="555.25,-111.23 551.75,-101.23 548.25,-111.23 555.25,-111.23"/>
</g>
<!-- &#45;15&#45;&gt;87 -->
<g id="edge39" class="edge">
<title>&#45;15&#45;&gt;87</title>
<path fill="none" stroke="green" stroke-width="0.29" d="M543.41,-147.6C539.29,-143.74 534.07,-139.38 528.75,-136.35 485.17,-111.49 468.86,-117.61 421.75,-100.35 416.41,-98.39 410.73,-96.2 405.32,-94.07"/>
<polygon fill="green" stroke="green" stroke-width="0.29" points="407.02,-90.98 396.43,-90.53 404.42,-97.49 407.02,-90.98"/>
</g>
<!-- &#45;16 -->
<g id="node16" class="node">
<title>&#45;16</title>
<polygon fill="lightgray" stroke="black" points="259.75,-166.46 231.75,-166.46 231.75,-147.96 259.75,-147.96 259.75,-166.46"/>
<text text-anchor="middle" x="245.75" y="-153.91" font-family="Times,serif" font-size="9.00">&#45;16</text>
</g>
<!-- &#45;16&#45;&gt;86 -->
<g id="edge36" class="edge">
<title>&#45;16&#45;&gt;86</title>
<path fill="none" stroke="green" stroke-width="0.15" d="M253.58,-147.84C257.74,-143.84 263.15,-139.29 268.75,-136.35 324.86,-106.87 346.51,-120.08 406.75,-100.35 412.16,-98.58 417.87,-96.47 423.28,-94.36"/>
<polygon fill="green" stroke="green" stroke-width="0.15" points="424.37,-97.7 432.35,-90.72 421.76,-91.2 424.37,-97.7"/>
</g>
<!-- &#45;16&#45;&gt;87 -->
<g id="edge22" class="edge">
<title>&#45;16&#45;&gt;87</title>
<path fill="none" stroke="green" stroke-width="0.42" d="M254.7,-147.49C258.78,-143.78 263.8,-139.57 268.75,-136.35 296.02,-118.57 330.23,-103.26 353.41,-93.8"/>
<polygon fill="green" stroke="green" stroke-width="0.42" points="354.65,-97.08 362.63,-90.11 352.05,-90.58 354.65,-97.08"/>
</g>
<!-- &#45;16&#45;&gt;88 -->
<g id="edge13" class="edge">
<title>&#45;16&#45;&gt;88</title>
<path fill="none" stroke="green" stroke-width="0.46" d="M245.75,-147.6C245.75,-138.63 245.75,-124.1 245.75,-111.15"/>
<polygon fill="green" stroke="green" stroke-width="0.46" points="249.25,-111.51 245.75,-101.51 242.25,-111.51 249.25,-111.51"/>
</g>
<!-- &#45;17 -->
<g id="node17" class="node">
<title>&#45;17</title>
<polygon fill="lightgray" stroke="black" points="454.75,-232.57 426.75,-232.57 426.75,-214.07 454.75,-214.07 454.75,-232.57"/>
<text text-anchor="middle" x="440.75" y="-220.02" font-family="Times,serif" font-size="9.00">&#45;17</text>
</g>
<!-- &#45;18 -->
<g id="node18" class="node">
<title>&#45;18</title>
<polygon fill="lightgray" stroke="black" points="107.75,-166.46 79.75,-166.46 79.75,-147.96 107.75,-147.96 107.75,-166.46"/>
<text text-anchor="middle" x="93.75" y="-153.91" font-family="Times,serif" font-size="9.00">&#45;18</text>
</g>
<!-- &#45;18&#45;&gt;87 -->
<g id="edge40" class="edge">
<title>&#45;18&#45;&gt;87</title>
<path fill="none" stroke="green" stroke-width="0.23" stroke-dasharray="1,5" d="M101.51,-147.7C105.65,-143.67 111.06,-139.13 116.75,-136.35 127.37,-131.15 286.81,-101.02 352.15,-88.81"/>
<polygon fill="green" stroke="green" stroke-width="0.23" points="352.61,-92.28 361.8,-87.01 351.32,-85.4 352.61,-92.28"/>
</g>
<!-- &#45;18&#45;&gt;88 -->
<g id="edge28" class="edge">
<title>&#45;18&#45;&gt;88</title>
<path fill="none" stroke="red" stroke-width="0.55" d="M102.11,-147.63C106.23,-143.77 111.45,-139.41 116.75,-136.35 158.73,-112.07 176.15,-121.58 219.75,-100.35 220.61,-99.93 221.49,-99.48 222.36,-99.02"/>
<polygon fill="red" stroke="red" stroke-width="0.55" points="223.95,-102.14 230.8,-94.06 220.41,-96.11 223.95,-102.14"/>
</g>
<!-- &#45;19 -->
<g id="node19" class="node">
<title>&#45;19</title>
<polygon fill="lightgray" stroke="black" points="477.75,-166.46 449.75,-166.46 449.75,-147.96 477.75,-147.96 477.75,-166.46"/>
<text text-anchor="middle" x="463.75" y="-153.91" font-family="Times,serif" font-size="9.00">&#45;19</text>
</g>
<!-- &#45;19&#45;&gt;86 -->
<g id="edge17" class="edge">
<title>&#45;19&#45;&gt;86</title>
<path fill="none" stroke="green" stroke-width="0.13" d="M461.97,-147.6C460.05,-138.33 456.91,-123.12 454.17,-109.87"/>
<polygon fill="green" stroke="green" stroke-width="0.13" points="457.67,-109.52 452.22,-100.44 450.82,-110.94 457.67,-109.52"/>
</g>
<!-- &#45;19&#45;&gt;87 -->
<g id="edge38" class="edge">
<title>&#45;19&#45;&gt;87</title>
<path fill="none" stroke="green" stroke-width="0.27" d="M453.78,-147.6C440.71,-136.31 417.45,-116.22 400.48,-101.57"/>
<polygon fill="green" stroke="green" stroke-width="0.27" points="402.89,-99.03 393.03,-95.14 398.32,-104.33 402.89,-99.03"/>
</g>
<!-- &#45;20 -->
<g id="node20" class="node">
<title>&#45;20</title>
<polygon fill="lightgray" stroke="black" points="611.75,-166.46 583.75,-166.46 583.75,-147.96 611.75,-147.96 611.75,-166.46"/>
<text text-anchor="middle" x="597.75" y="-153.91" font-family="Times,serif" font-size="9.00">&#45;20</text>
</g>
<!-- &#45;20&#45;&gt;85 -->
<g id="edge19" class="edge">
<title>&#45;20&#45;&gt;85</title>
<path fill="none" stroke="green" stroke-width="0.16" d="M592.29,-147.6C585.97,-137.63 575.28,-120.78 566.47,-106.88"/>
<polygon fill="green" stroke="green" stroke-width="0.16" points="569.46,-105.05 561.14,-98.48 563.54,-108.8 569.46,-105.05"/>
</g>
<!-- &#45;20&#45;&gt;86 -->
<g id="edge33" class="edge">
<title>&#45;20&#45;&gt;86</title>
<path fill="none" stroke="red" stroke-width="0.29" d="M589.31,-147.77C585.16,-143.95 579.95,-139.57 574.75,-136.35 542.53,-116.41 501.45,-100.84 475.11,-91.95"/>
<polygon fill="red" stroke="red" stroke-width="0.29" points="476.46,-88.71 465.87,-88.9 474.27,-95.36 476.46,-88.71"/>
</g>
<!-- 0 -->
<g id="node21" class="node">
<title>0</title>
<ellipse fill="lightblue" stroke="black" cx="441.75" cy="-14.5" rx="14.5" ry="14.5"/>
<text text-anchor="middle" x="441.75" y="-11.2" font-family="Times,serif" font-size="9.00">0</text>
</g>
<!-- 1 -->
<g id="node22" class="node">
<title>1</title>
<ellipse fill="lightblue" stroke="black" cx="376.75" cy="-14.5" rx="14.5" ry="14.5"/>
<text text-anchor="middle" x="376.75" y="-11.2" font-family="Times,serif" font-size="9.00">1</text>
</g>
<!-- 1&#45;&gt;1 -->
<g id="edge3" class="edge">
<title>1&#45;&gt;1</title>
<path fill="none" stroke="red" stroke-width="0.57" d="M387.4,-24.65C397.81,-30.26 409.25,-26.88 409.25,-14.5 409.25,-6.18 404.08,-1.92 397.54,-1.72"/>
<polygon fill="red" stroke="red" stroke-width="0.57" points="397.05,1.77 388.24,-4.12 398.8,-5.01 397.05,1.77"/>
</g>
<!-- 2 -->
<g id="node23" class="node">
<title>2</title>
<ellipse fill="lightblue" stroke="black" cx="553.75" cy="-14.5" rx="14.5" ry="14.5"/>
<text text-anchor="middle" x="553.75" y="-11.2" font-family="Times,serif" font-size="9.00">2</text>
</g>
<!-- 4 -->
<g id="node25" class="node">
<title>4</title>
<ellipse fill="lightblue" stroke="black" cx="488.75" cy="-14.5" rx="14.5" ry="14.5"/>
<text text-anchor="middle" x="488.75" y="-11.2" font-family="Times,serif" font-size="9.00">4</text>
</g>
<!-- 4&#45;&gt;4 -->
<g id="edge35" class="edge">
<title>4&#45;&gt;4</title>
<path fill="none" stroke="green" stroke-width="0.62" stroke-dasharray="1,5" d="M499.4,-24.65C509.81,-30.26 521.25,-26.88 521.25,-14.5 521.25,-6.37 516.32,-2.12 509.99,-1.74"/>
<polygon fill="green" stroke="green" stroke-width="0.62" points="509.19,1.67 500.31,-4.12 510.85,-5.13 509.19,1.67"/>
</g>
<!-- 307&#45;&gt;87 -->
<g id="edge45" class="edge">
<title>307&#45;&gt;87</title>
<path fill="none" stroke="green" stroke-width="0.13" d="M163.32,-143.84C167.54,-141.08 172.19,-138.38 176.75,-136.35 208.35,-122.26 304.92,-100.06 352.57,-89.55"/>
<polygon fill="green" stroke="green" stroke-width="0.13" points="353.02,-93.03 362.04,-87.48 351.52,-86.2 353.02,-93.03"/>
</g>
<!-- 85&#45;&gt;0 -->
<g id="edge18" class="edge">
<title>85&#45;&gt;0</title>
<path fill="none" stroke="green" stroke-width="0.32" stroke-dasharray="1,5" d="M536.91,-72.74C517.81,-61.25 484.49,-41.21 462.78,-28.14"/>
<polygon fill="green" stroke="green" stroke-width="0.32" points="464.77,-25.26 454.4,-23.1 461.16,-31.26 464.77,-25.26"/>
</g>
<!-- 85&#45;&gt;1 -->
<g id="edge8" class="edge">
<title>85&#45;&gt;1</title>
<path fill="none" stroke="green" stroke-width="0.12" stroke-dasharray="1,5" d="M535.29,-75.44C503.87,-63.56 435.3,-37.63 399.51,-24.1"/>
<polygon fill="green" stroke="green" stroke-width="0.12" points="401.11,-20.96 390.52,-20.7 398.63,-27.51 401.11,-20.96"/>
</g>
<!-- 85&#45;&gt;2 -->
<g id="edge7" class="edge">
<title>85&#45;&gt;2</title>
<path fill="none" stroke="green" stroke-width="0.41" d="M552.27,-64.63C552.49,-57.05 552.77,-47.98 553.02,-39.71"/>
<polygon fill="green" stroke="green" stroke-width="0.41" points="556.51,-39.87 553.32,-29.77 549.52,-39.66 556.51,-39.87"/>
</g>
<!-- 86&#45;&gt;1 -->
<g id="edge21" class="edge">
<title>86&#45;&gt;1</title>
<path fill="none" stroke="green" stroke-width="0.47" stroke-dasharray="1,5" d="M435.88,-69.84C424.46,-59.35 407.67,-43.91 394.89,-32.17"/>
<polygon fill="green" stroke="green" stroke-width="0.47" points="397.43,-29.75 387.7,-25.56 392.7,-34.91 397.43,-29.75"/>
</g>
<!-- 86&#45;&gt;3 -->
<g id="edge20" class="edge">
<title>86&#45;&gt;3</title>
<path fill="none" stroke="red" stroke-width="0.56" stroke-dasharray="1,5" d="M432.46,-75.01C424.7,-71.89 415.28,-68.17 406.75,-64.99 365.5,-49.62 316.98,-33.02 288.67,-23.49"/>
<polygon fill="red" stroke="red" stroke-width="0.56" points="289.93,-20.22 279.33,-20.35 287.7,-26.85 289.93,-20.22"/>
</g>
<!-- 86&#45;&gt;4 -->
<g id="edge42" class="edge">
<title>86&#45;&gt;4</title>
<path fill="none" stroke="green" stroke-width="0.58" d="M457.63,-66.98C463.01,-58.07 469.98,-46.55 475.95,-36.67"/>
<polygon fill="green" stroke="green" stroke-width="0.58" points="478.87,-38.61 481.04,-28.24 472.88,-34.99 478.87,-38.61"/>
</g>
<!-- 87&#45;&gt;0 -->
<g id="edge5" class="edge">
<title>87&#45;&gt;0</title>
<path fill="none" stroke="green" stroke-width="0.14" d="M391.41,-69.22C400.99,-59 414.66,-44.41 425.34,-33.01"/>
<polygon fill="green" stroke="green" stroke-width="0.14" points="427.74,-35.56 432.03,-25.87 422.64,-30.78 427.74,-35.56"/>
</g>
<!-- 87&#45;&gt;1 -->
<g id="edge14" class="edge">
<title>87&#45;&gt;1</title>
<path fill="none" stroke="green" stroke-width="0.29" d="M378.98,-64.63C378.63,-56.96 378.21,-47.77 377.84,-39.43"/>
<polygon fill="green" stroke="green" stroke-width="0.29" points="381.34,-39.41 377.39,-29.58 374.35,-39.73 381.34,-39.41"/>
</g>
<!-- 88&#45;&gt;1 -->
<g id="edge23" class="edge">
<title>88&#45;&gt;1</title>
<path fill="none" stroke="green" stroke-width="0.35" stroke-dasharray="1,5" d="M261.55,-73.69C284.84,-61.92 328.48,-39.88 354.84,-26.56"/>
<polygon fill="green" stroke="green" stroke-width="0.35" points="356.21,-29.79 363.55,-22.16 353.05,-23.55 356.21,-29.79"/>
</g>
<!-- 88&#45;&gt;88 -->
<g id="edge27" class="edge">
<title>88&#45;&gt;88</title>
<path fill="none" stroke="green" stroke-width="0.21" stroke-dasharray="1,5" d="M259.67,-93.8C270.44,-97.96 281.43,-94.25 281.43,-82.67 281.43,-74.7 276.23,-70.46 269.49,-69.94"/>
<polygon fill="green" stroke="green" stroke-width="0.21" points="269.29,-66.43 259.98,-71.49 270.41,-73.34 269.29,-66.43"/>
</g>
</g>
</svg>
