<?xml version="1.0" encoding="UTF-8" standalone="no"?>
<!DOCTYPE svg PUBLIC "-//W3C//DTD SVG 1.1//EN"
 "http://www.w3.org/Graphics/SVG/1.1/DTD/svg11.dtd">
<!-- Generated by graphviz version 12.1.1 (20240910.0053)
 -->
<!-- Pages: 1 -->
<svg width="914pt" height="247pt"
 viewBox="0.00 0.00 913.75 246.93" xmlns="http://www.w3.org/2000/svg" xmlns:xlink="http://www.w3.org/1999/xlink">
<g id="graph0" class="graph" transform="scale(1 1) rotate(0) translate(4 242.93)">
<polygon fill="white" stroke="none" points="-4,4 -4,-242.93 909.75,-242.93 909.75,4 -4,4"/>
<!-- &#45;1 -->
<g id="node1" class="node">
<title>&#45;1</title>
<polygon fill="lightgray" stroke="black" points="153.75,-172.82 130.25,-172.82 130.25,-154.32 153.75,-154.32 153.75,-172.82"/>
<text text-anchor="middle" x="142" y="-160.27" font-family="Times,serif" font-size="9.00">&#45;1</text>
</g>
<!-- 193 -->
<g id="node26" class="node">
<title>193</title>
<ellipse fill="white" stroke="black" cx="206" cy="-85.85" rx="20.86" ry="20.86"/>
<text text-anchor="middle" x="206" y="-82.55" font-family="Times,serif" font-size="9.00">193</text>
</g>
<!-- &#45;1&#45;&gt;193 -->
<g id="edge20" class="edge">
<title>&#45;1&#45;&gt;193</title>
<path fill="none" stroke="green" stroke-width="0.11" stroke-dasharray="1,5" d="M149.34,-153.88C158.34,-143.23 173.96,-124.76 186.51,-109.91"/>
<polygon fill="green" stroke="green" stroke-width="0.11" points="188.86,-112.55 192.64,-102.66 183.51,-108.03 188.86,-112.55"/>
</g>
<!-- 195 -->
<g id="node28" class="node">
<title>195</title>
<ellipse fill="white" stroke="black" cx="266" cy="-85.85" rx="20.86" ry="20.86"/>
<text text-anchor="middle" x="266" y="-82.55" font-family="Times,serif" font-size="9.00">195</text>
</g>
<!-- &#45;1&#45;&gt;195 -->
<g id="edge16" class="edge">
<title>&#45;1&#45;&gt;195</title>
<path fill="none" stroke="green" stroke-width="0.41" d="M150.08,-153.83C153.79,-150.12 158.39,-145.92 163,-142.71 192.7,-122.05 204.63,-124.73 236,-106.71 237.49,-105.86 239.01,-104.95 240.52,-104.03"/>
<polygon fill="green" stroke="green" stroke-width="0.41" points="242.02,-107.22 248.58,-98.91 238.26,-101.32 242.02,-107.22"/>
</g>
<!-- &#45;2 -->
<g id="node2" class="node">
<title>&#45;2</title>
<polygon fill="lightgray" stroke="black" points="111.75,-172.82 88.25,-172.82 88.25,-154.32 111.75,-154.32 111.75,-172.82"/>
<text text-anchor="middle" x="100" y="-160.27" font-family="Times,serif" font-size="9.00">&#45;2</text>
</g>
<!-- &#45;2&#45;&gt;193 -->
<g id="edge22" class="edge">
<title>&#45;2&#45;&gt;193</title>
<path fill="none" stroke="green" stroke-width="0.21" d="M108.28,-154.1C112.02,-150.44 116.59,-146.2 121,-142.71 139.75,-127.87 162.44,-113.11 179.66,-102.48"/>
<polygon fill="green" stroke="green" stroke-width="0.21" points="181.13,-105.69 187.85,-97.49 177.49,-99.71 181.13,-105.69"/>
</g>
<!-- &#45;2&#45;&gt;195 -->
<g id="edge24" class="edge">
<title>&#45;2&#45;&gt;195</title>
<path fill="none" stroke="green" stroke-width="0.11" d="M107.47,-153.89C111.2,-150.01 115.98,-145.66 121,-142.71 167.2,-115.62 187.64,-129.72 236,-106.71 237.55,-105.97 239.12,-105.16 240.67,-104.31"/>
<polygon fill="green" stroke="green" stroke-width="0.11" points="242.46,-107.32 249.21,-99.15 238.84,-101.32 242.46,-107.32"/>
</g>
<!-- &#45;3 -->
<g id="node3" class="node">
<title>&#45;3</title>
<polygon fill="lightgray" stroke="black" points="627.75,-172.82 604.25,-172.82 604.25,-154.32 627.75,-154.32 627.75,-172.82"/>
<text text-anchor="middle" x="616" y="-160.27" font-family="Times,serif" font-size="9.00">&#45;3</text>
</g>
<!-- 194 -->
<g id="node27" class="node">
<title>194</title>
<ellipse fill="white" stroke="black" cx="486" cy="-85.85" rx="20.86" ry="20.86"/>
<text text-anchor="middle" x="486" y="-82.55" font-family="Times,serif" font-size="9.00">194</text>
</g>
<!-- &#45;3&#45;&gt;194 -->
<g id="edge33" class="edge">
<title>&#45;3&#45;&gt;194</title>
<path fill="none" stroke="green" stroke-width="0.33" d="M607.9,-153.87C604.18,-150.16 599.59,-145.96 595,-142.71 569.44,-124.64 537.23,-108.88 514.47,-98.75"/>
<polygon fill="green" stroke="green" stroke-width="0.33" points="516.07,-95.63 505.51,-94.83 513.27,-102.04 516.07,-95.63"/>
</g>
<!-- 196 -->
<g id="node29" class="node">
<title>196</title>
<ellipse fill="white" stroke="black" cx="616" cy="-85.85" rx="20.86" ry="20.86"/>
<text text-anchor="middle" x="616" y="-82.55" font-family="Times,serif" font-size="9.00">196</text>
</g>
<!-- &#45;3&#45;&gt;196 -->
<g id="edge34" class="edge">
<title>&#45;3&#45;&gt;196</title>
<path fill="none" stroke="green" stroke-width="0.21" d="M616,-153.88C616,-144.93 616,-130.46 616,-117.26"/>
<polygon fill="green" stroke="green" stroke-width="0.21" points="619.5,-117.38 616,-107.38 612.5,-117.38 619.5,-117.38"/>
</g>
<!-- &#45;4 -->
<g id="node4" class="node">
<title>&#45;4</title>
<polygon fill="lightgray" stroke="black" points="497.75,-172.82 474.25,-172.82 474.25,-154.32 497.75,-154.32 497.75,-172.82"/>
<text text-anchor="middle" x="486" y="-160.27" font-family="Times,serif" font-size="9.00">&#45;4</text>
</g>
<!-- &#45;4&#45;&gt;194 -->
<g id="edge43" class="edge">
<title>&#45;4&#45;&gt;194</title>
<path fill="none" stroke="green" stroke-width="0.46" d="M486,-153.88C486,-145.02 486,-130.75 486,-117.65"/>
<polygon fill="green" stroke="green" stroke-width="0.46" points="489.5,-117.75 486,-107.75 482.5,-117.75 489.5,-117.75"/>
</g>
<!-- &#45;5 -->
<g id="node5" class="node">
<title>&#45;5</title>
<polygon fill="lightgray" stroke="black" points="69.75,-172.82 46.25,-172.82 46.25,-154.32 69.75,-154.32 69.75,-172.82"/>
<text text-anchor="middle" x="58" y="-160.27" font-family="Times,serif" font-size="9.00">&#45;5</text>
</g>
<!-- &#45;5&#45;&gt;193 -->
<g id="edge41" class="edge">
<title>&#45;5&#45;&gt;193</title>
<path fill="none" stroke="green" stroke-width="0.29" stroke-dasharray="1,5" d="M65.62,-154.14C69.38,-150.31 74.15,-145.93 79,-142.71 109.96,-122.16 149.74,-106.09 176.45,-96.57"/>
<polygon fill="green" stroke="green" stroke-width="0.29" points="177.29,-99.98 185.59,-93.39 174.99,-93.37 177.29,-99.98"/>
</g>
<!-- &#45;6 -->
<g id="node6" class="node">
<title>&#45;6</title>
<polygon fill="lightgray" stroke="black" points="539.75,-172.82 516.25,-172.82 516.25,-154.32 539.75,-154.32 539.75,-172.82"/>
<text text-anchor="middle" x="528" y="-160.27" font-family="Times,serif" font-size="9.00">&#45;6</text>
</g>
<!-- &#45;6&#45;&gt;194 -->
<g id="edge25" class="edge">
<title>&#45;6&#45;&gt;194</title>
<path fill="none" stroke="red" stroke-width="0.22" d="M523.18,-153.88C517.74,-144.07 508.61,-127.62 500.76,-113.47"/>
<polygon fill="red" stroke="red" stroke-width="0.22" points="503.92,-111.94 496.01,-104.89 497.8,-115.34 503.92,-111.94"/>
</g>
<!-- &#45;7 -->
<g id="node7" class="node">
<title>&#45;7</title>
<polygon fill="lightgray" stroke="black" points="905.75,-172.82 882.25,-172.82 882.25,-154.32 905.75,-154.32 905.75,-172.82"/>
<text text-anchor="middle" x="894" y="-160.27" font-family="Times,serif" font-size="9.00">&#45;7</text>
</g>
<!-- &#45;7&#45;&gt;196 -->
<g id="edge14" class="edge">
<title>&#45;7&#45;&gt;196</title>
<path fill="none" stroke="red" stroke-width="0.34" stroke-dasharray="1,5" d="M887.03,-154.09C883.27,-150.06 878.32,-145.52 873,-142.71 798.33,-103.29 697.43,-91.67 647.16,-88.26"/>
<polygon fill="red" stroke="red" stroke-width="0.34" points="647.66,-84.78 637.46,-87.67 647.23,-91.77 647.66,-84.78"/>
</g>
<!-- &#45;8 -->
<g id="node8" class="node">
<title>&#45;8</title>
<polygon fill="lightgray" stroke="black" points="629.75,-238.93 606.25,-238.93 606.25,-220.43 629.75,-220.43 629.75,-238.93"/>
<text text-anchor="middle" x="618" y="-226.38" font-family="Times,serif" font-size="9.00">&#45;8</text>
</g>
<!-- &#45;9 -->
<g id="node9" class="node">
<title>&#45;9</title>
<polygon fill="lightgray" stroke="black" points="241.75,-172.82 218.25,-172.82 218.25,-154.32 241.75,-154.32 241.75,-172.82"/>
<text text-anchor="middle" x="230" y="-160.27" font-family="Times,serif" font-size="9.00">&#45;9</text>
</g>
<!-- &#45;9&#45;&gt;195 -->
<g id="edge7" class="edge">
<title>&#45;9&#45;&gt;195</title>
<path fill="none" stroke="green" stroke-width="0.35" d="M234.13,-153.88C238.69,-144.29 246.27,-128.35 252.89,-114.42"/>
<polygon fill="green" stroke="green" stroke-width="0.35" points="255.91,-116.21 257.05,-105.68 249.59,-113.21 255.91,-116.21"/>
</g>
<!-- &#45;10 -->
<g id="node10" class="node">
<title>&#45;10</title>
<polygon fill="lightgray" stroke="black" points="586,-172.82 558,-172.82 558,-154.32 586,-154.32 586,-172.82"/>
<text text-anchor="middle" x="572" y="-160.27" font-family="Times,serif" font-size="9.00">&#45;10</text>
</g>
<!-- &#45;10&#45;&gt;194 -->
<g id="edge40" class="edge">
<title>&#45;10&#45;&gt;194</title>
<path fill="none" stroke="green" stroke-width="0.22" d="M562.13,-153.88C549.2,-142.5 526.13,-122.18 508.76,-106.89"/>
<polygon fill="green" stroke="green" stroke-width="0.22" points="511.31,-104.47 501.49,-100.49 506.68,-109.73 511.31,-104.47"/>
</g>
<!-- &#45;10&#45;&gt;196 -->
<g id="edge35" class="edge">
<title>&#45;10&#45;&gt;196</title>
<path fill="none" stroke="green" stroke-width="0.29" d="M577.05,-153.88C582.79,-144.01 592.43,-127.4 600.69,-113.19"/>
<polygon fill="green" stroke="green" stroke-width="0.29" points="603.64,-115.08 605.64,-104.68 597.59,-111.57 603.64,-115.08"/>
</g>
<!-- &#45;11 -->
<g id="node11" class="node">
<title>&#45;11</title>
<polygon fill="lightgray" stroke="black" points="674,-172.82 646,-172.82 646,-154.32 674,-154.32 674,-172.82"/>
<text text-anchor="middle" x="660" y="-160.27" font-family="Times,serif" font-size="9.00">&#45;11</text>
</g>
<!-- &#45;11&#45;&gt;196 -->
<g id="edge17" class="edge">
<title>&#45;11&#45;&gt;196</title>
<path fill="none" stroke="green" stroke-width="0.11" stroke-dasharray="1,5" d="M654.95,-153.88C649.16,-143.91 639.38,-127.09 631.07,-112.79"/>
<polygon fill="green" stroke="green" stroke-width="0.11" points="634.27,-111.33 626.22,-104.44 628.22,-114.84 634.27,-111.33"/>
</g>
<!-- &#45;12 -->
<g id="node12" class="node">
<title>&#45;12</title>
<polygon fill="lightgray" stroke="black" points="676,-238.93 648,-238.93 648,-220.43 676,-220.43 676,-238.93"/>
<text text-anchor="middle" x="662" y="-226.38" font-family="Times,serif" font-size="9.00">&#45;12</text>
</g>
<!-- &#45;13 -->
<g id="node13" class="node">
<title>&#45;13</title>
<polygon fill="lightgray" stroke="black" points="288,-172.82 260,-172.82 260,-154.32 288,-154.32 288,-172.82"/>
<text text-anchor="middle" x="274" y="-160.27" font-family="Times,serif" font-size="9.00">&#45;13</text>
</g>
<!-- &#45;13&#45;&gt;193 -->
<g id="edge11" class="edge">
<title>&#45;13&#45;&gt;193</title>
<path fill="none" stroke="green" stroke-width="0.11" d="M266.2,-153.88C256.51,-143.1 239.63,-124.3 226.21,-109.35"/>
<polygon fill="green" stroke="green" stroke-width="0.11" points="228.96,-107.18 219.67,-102.08 223.75,-111.86 228.96,-107.18"/>
</g>
<!-- &#45;13&#45;&gt;196 -->
<g id="edge15" class="edge">
<title>&#45;13&#45;&gt;196</title>
<path fill="none" stroke="green" stroke-width="0.21" d="M281.72,-153.98C285.85,-149.92 291.27,-145.39 297,-142.71 386.35,-100.91 418.94,-124.32 516,-106.71 539.32,-102.48 565.61,-97.24 585.38,-93.2"/>
<polygon fill="green" stroke="green" stroke-width="0.21" points="585.95,-96.66 595.04,-91.22 584.54,-89.8 585.95,-96.66"/>
</g>
<!-- &#45;14 -->
<g id="node14" class="node">
<title>&#45;14</title>
<polygon fill="lightgray" stroke="black" points="418,-172.82 390,-172.82 390,-154.32 418,-154.32 418,-172.82"/>
<text text-anchor="middle" x="404" y="-160.27" font-family="Times,serif" font-size="9.00">&#45;14</text>
</g>
<!-- &#45;14&#45;&gt;194 -->
<g id="edge10" class="edge">
<title>&#45;14&#45;&gt;194</title>
<path fill="none" stroke="red" stroke-width="0.29" d="M413.41,-153.88C425.48,-142.73 446.83,-123.02 463.26,-107.85"/>
<polygon fill="red" stroke="red" stroke-width="0.29" points="465.58,-110.47 470.55,-101.11 460.83,-105.33 465.58,-110.47"/>
</g>
<!-- &#45;14&#45;&gt;195 -->
<g id="edge26" class="edge">
<title>&#45;14&#45;&gt;195</title>
<path fill="none" stroke="green" stroke-width="0.15" d="M392.54,-153.87C387.57,-150.24 381.61,-146.1 376,-142.71 348.89,-126.33 316.4,-110.24 293.78,-99.56"/>
<polygon fill="green" stroke="green" stroke-width="0.15" points="295.49,-96.5 284.95,-95.43 292.52,-102.84 295.49,-96.5"/>
</g>
<!-- &#45;15 -->
<g id="node15" class="node">
<title>&#45;15</title>
<polygon fill="lightgray" stroke="black" points="588,-238.93 560,-238.93 560,-220.43 588,-220.43 588,-238.93"/>
<text text-anchor="middle" x="574" y="-226.38" font-family="Times,serif" font-size="9.00">&#45;15</text>
</g>
<!-- &#45;15&#45;&gt;194 -->
<g id="edge6" class="edge">
<title>&#45;15&#45;&gt;194</title>
<path fill="none" stroke="green" stroke-width="0.34" d="M559.55,-227.71C535.18,-225.21 486.44,-216.28 465,-184.43 450.71,-163.21 459.89,-134.02 470.21,-113.1"/>
<polygon fill="green" stroke="green" stroke-width="0.34" points="473.28,-114.78 474.87,-104.31 467.1,-111.51 473.28,-114.78"/>
</g>
<!-- &#45;15&#45;&gt;195 -->
<g id="edge37" class="edge">
<title>&#45;15&#45;&gt;195</title>
<path fill="none" stroke="green" stroke-width="0.17" stroke-dasharray="1,5" d="M559.86,-228.28C526.46,-226.76 440.96,-219.46 381,-184.43 359.34,-171.78 361.69,-159.43 343,-142.71 326.8,-128.22 306.9,-113.86 291.39,-103.33"/>
<polygon fill="green" stroke="green" stroke-width="0.17" points="293.75,-100.7 283.49,-98.04 289.85,-106.51 293.75,-100.7"/>
</g>
<!-- &#45;15&#45;&gt;196 -->
<g id="edge39" class="edge">
<title>&#45;15&#45;&gt;196</title>
<path fill="none" stroke="red" stroke-width="0.25" stroke-dasharray="1,5" d="M588.25,-223.38C617.16,-212.56 680.19,-188.6 683,-184.43 693.36,-169.05 690.86,-159.5 683,-142.71 674.76,-125.11 657.94,-111.11 643.21,-101.53"/>
<polygon fill="red" stroke="red" stroke-width="0.25" points="645.09,-98.58 634.73,-96.34 641.43,-104.55 645.09,-98.58"/>
</g>
<!-- 244 -->
<g id="node30" class="node">
<title>244</title>
<ellipse fill="white" stroke="black" cx="797" cy="-163.57" rx="20.86" ry="20.86"/>
<text text-anchor="middle" x="797" y="-160.27" font-family="Times,serif" font-size="9.00">244</text>
</g>
<!-- &#45;15&#45;&gt;244 -->
<g id="edge44" class="edge">
<title>&#45;15&#45;&gt;244</title>
<path fill="none" stroke="red" stroke-width="0.36" d="M588.01,-223.31C590.96,-222.28 594.06,-221.26 597,-220.43 671.3,-199.34 695.77,-214.27 767,-184.43 768.58,-183.77 770.17,-183.02 771.75,-182.21"/>
<polygon fill="red" stroke="red" stroke-width="0.36" points="773.16,-185.44 780.02,-177.36 769.62,-179.4 773.16,-185.44"/>
</g>
<!-- &#45;16 -->
<g id="node16" class="node">
<title>&#45;16</title>
<polygon fill="lightgray" stroke="black" points="758,-172.82 730,-172.82 730,-154.32 758,-154.32 758,-172.82"/>
<text text-anchor="middle" x="744" y="-160.27" font-family="Times,serif" font-size="9.00">&#45;16</text>
</g>
<!-- &#45;16&#45;&gt;196 -->
<g id="edge4" class="edge">
<title>&#45;16&#45;&gt;196</title>
<path fill="none" stroke="red" stroke-width="0.19" d="M732.48,-153.97C727.49,-150.37 721.54,-146.21 716,-142.71 692.05,-127.59 663.79,-112 643.44,-101.15"/>
<polygon fill="red" stroke="red" stroke-width="0.19" points="645.13,-98.08 634.65,-96.5 641.86,-104.27 645.13,-98.08"/>
</g>
<!-- &#45;17 -->
<g id="node17" class="node">
<title>&#45;17</title>
<polygon fill="lightgray" stroke="black" points="28,-172.82 0,-172.82 0,-154.32 28,-154.32 28,-172.82"/>
<text text-anchor="middle" x="14" y="-160.27" font-family="Times,serif" font-size="9.00">&#45;17</text>
</g>
<!-- &#45;17&#45;&gt;193 -->
<g id="edge36" class="edge">
<title>&#45;17&#45;&gt;193</title>
<path fill="none" stroke="green" stroke-width="0.39" stroke-dasharray="1,5" d="M22.34,-153.96C26.45,-150.09 31.68,-145.73 37,-142.71 81.95,-117.23 140.27,-101.2 175.33,-93.15"/>
<polygon fill="green" stroke="green" stroke-width="0.39" points="175.85,-96.62 184.85,-91.04 174.33,-89.79 175.85,-96.62"/>
</g>
<!-- &#45;18 -->
<g id="node18" class="node">
<title>&#45;18</title>
<polygon fill="lightgray" stroke="black" points="200,-172.82 172,-172.82 172,-154.32 200,-154.32 200,-172.82"/>
<text text-anchor="middle" x="186" y="-160.27" font-family="Times,serif" font-size="9.00">&#45;18</text>
</g>
<!-- &#45;18&#45;&gt;195 -->
<g id="edge27" class="edge">
<title>&#45;18&#45;&gt;195</title>
<path fill="none" stroke="green" stroke-width="0.25" d="M195.18,-153.88C206.96,-142.73 227.79,-123.02 243.82,-107.85"/>
<polygon fill="green" stroke="green" stroke-width="0.25" points="246.11,-110.5 250.97,-101.08 241.3,-105.41 246.11,-110.5"/>
</g>
<!-- &#45;19 -->
<g id="node19" class="node">
<title>&#45;19</title>
<polygon fill="lightgray" stroke="black" points="864,-172.82 836,-172.82 836,-154.32 864,-154.32 864,-172.82"/>
<text text-anchor="middle" x="850" y="-160.27" font-family="Times,serif" font-size="9.00">&#45;19</text>
</g>
<!-- &#45;19&#45;&gt;196 -->
<g id="edge19" class="edge">
<title>&#45;19&#45;&gt;196</title>
<path fill="none" stroke="green" stroke-width="0.34" d="M842.16,-154.21C838,-150.21 832.6,-145.67 827,-142.71 767.81,-111.48 689.85,-96.75 647.2,-90.62"/>
<polygon fill="green" stroke="green" stroke-width="0.34" points="647.8,-87.17 637.42,-89.28 646.85,-94.11 647.8,-87.17"/>
</g>
<!-- &#45;20 -->
<g id="node20" class="node">
<title>&#45;20</title>
<polygon fill="lightgray" stroke="black" points="334,-172.82 306,-172.82 306,-154.32 334,-154.32 334,-172.82"/>
<text text-anchor="middle" x="320" y="-160.27" font-family="Times,serif" font-size="9.00">&#45;20</text>
</g>
<!-- &#45;20&#45;&gt;193 -->
<g id="edge28" class="edge">
<title>&#45;20&#45;&gt;193</title>
<path fill="none" stroke="red" stroke-width="0.5" stroke-dasharray="1,5" d="M310.91,-154.06C306.8,-150.39 301.8,-146.16 297,-142.71 271.43,-124.35 262.69,-123.4 236,-106.71 234.68,-105.88 233.32,-105.03 231.96,-104.16"/>
<polygon fill="red" stroke="red" stroke-width="0.5" points="233.96,-101.28 223.67,-98.76 230.14,-107.15 233.96,-101.28"/>
</g>
<!-- &#45;20&#45;&gt;196 -->
<g id="edge3" class="edge">
<title>&#45;20&#45;&gt;196</title>
<path fill="none" stroke="red" stroke-width="0.33" d="M334.44,-157.5C346.74,-153.27 364.92,-147.23 381,-142.71 453.69,-122.27 540.39,-102.95 585.42,-93.29"/>
<polygon fill="red" stroke="red" stroke-width="0.33" points="585.89,-96.77 594.93,-91.26 584.42,-89.92 585.89,-96.77"/>
</g>
<!-- 0 -->
<g id="node21" class="node">
<title>0</title>
<ellipse fill="lightblue" stroke="black" cx="266" cy="-14.5" rx="14.5" ry="14.5"/>
<text text-anchor="middle" x="266" y="-11.2" font-family="Times,serif" font-size="9.00">0</text>
</g>
<!-- 0&#45;&gt;0 -->
<g id="edge29" class="edge">
<title>0&#45;&gt;0</title>
<path fill="none" stroke="green" stroke-width="0.64" d="M276.32,-24.94C286.81,-31.08 298.5,-27.6 298.5,-14.5 298.5,-5.69 293.22,-1.23 286.58,-1.12"/>
<polygon fill="green" stroke="green" stroke-width="0.64" points="285.9,2.33 277.25,-3.79 287.83,-4.4 285.9,2.33"/>
</g>
<!-- 1 -->
<g id="node22" class="node">
<title>1</title>
<ellipse fill="lightblue" stroke="black" cx="486" cy="-14.5" rx="14.5" ry="14.5"/>
<text text-anchor="middle" x="486" y="-11.2" font-family="Times,serif" font-size="9.00">1</text>
</g>
<!-- 2 -->
<g id="node23" class="node">
<title>2</title>
<ellipse fill="lightblue" stroke="black" cx="367" cy="-14.5" rx="14.5" ry="14.5"/>
<text text-anchor="middle" x="367" y="-11.2" font-family="Times,serif" font-size="9.00">2</text>
</g>
<!-- 3 -->
<g id="node24" class="node">
<title>3</title>
<ellipse fill="lightblue" stroke="black" cx="575" cy="-14.5" rx="14.5" ry="14.5"/>
<text text-anchor="middle" x="575" y="-11.2" font-family="Times,serif" font-size="9.00">3</text>
</g>
<!-- 4 -->
<g id="node25" class="node">
<title>4</title>
<ellipse fill="lightblue" stroke="black" cx="213" cy="-14.5" rx="14.5" ry="14.5"/>
<text text-anchor="middle" x="213" y="-11.2" font-family="Times,serif" font-size="9.00">4</text>
</g>
<!-- 193&#45;&gt;0 -->
<g id="edge13" class="edge">
<title>193&#45;&gt;0</title>
<path fill="none" stroke="green" stroke-width="0.17" d="M219.32,-69.46C228.54,-58.8 240.85,-44.57 250.51,-33.4"/>
<polygon fill="green" stroke="green" stroke-width="0.17" points="252.94,-35.95 256.83,-26.09 247.64,-31.37 252.94,-35.95"/>
</g>
<!-- 193&#45;&gt;2 -->
<g id="edge5" class="edge">
<title>193&#45;&gt;2</title>
<path fill="none" stroke="red" stroke-width="0.38" d="M222.73,-72.83C226.95,-70.06 231.55,-67.27 236,-64.99 271.95,-46.59 316.4,-31.23 343.19,-22.71"/>
<polygon fill="red" stroke="red" stroke-width="0.38" points="344.13,-26.08 352.63,-19.76 342.04,-19.4 344.13,-26.08"/>
</g>
<!-- 193&#45;&gt;4 -->
<g id="edge31" class="edge">
<title>193&#45;&gt;4</title>
<path fill="none" stroke="red" stroke-width="0.27" d="M208.02,-64.79C208.82,-56.89 209.74,-47.75 210.58,-39.5"/>
<polygon fill="red" stroke="red" stroke-width="0.27" points="214.04,-40.07 211.56,-29.76 207.07,-39.36 214.04,-40.07"/>
</g>
<!-- 194&#45;&gt;0 -->
<g id="edge12" class="edge">
<title>194&#45;&gt;0</title>
<path fill="none" stroke="green" stroke-width="0.13" d="M466.09,-78.57C425.44,-65.76 333.08,-36.64 289.54,-22.92"/>
<polygon fill="green" stroke="green" stroke-width="0.13" points="290.6,-19.58 280.01,-19.91 288.49,-26.26 290.6,-19.58"/>
</g>
<!-- 194&#45;&gt;1 -->
<g id="edge21" class="edge">
<title>194&#45;&gt;1</title>
<path fill="none" stroke="red" stroke-width="0.34" d="M486,-64.79C486,-56.98 486,-47.96 486,-39.78"/>
<polygon fill="red" stroke="red" stroke-width="0.34" points="489.5,-39.86 486,-29.86 482.5,-39.86 489.5,-39.86"/>
</g>
<!-- 194&#45;&gt;2 -->
<g id="edge18" class="edge">
<title>194&#45;&gt;2</title>
<path fill="none" stroke="green" stroke-width="0.22" d="M468.18,-74.47C446.85,-62.04 411.16,-41.23 388.36,-27.95"/>
<polygon fill="green" stroke="green" stroke-width="0.22" points="390.15,-24.94 379.75,-22.93 386.63,-30.98 390.15,-24.94"/>
</g>
<!-- 194&#45;&gt;3 -->
<g id="edge30" class="edge">
<title>194&#45;&gt;3</title>
<path fill="none" stroke="red" stroke-width="0.14" d="M502.32,-72.13C517.54,-60.27 540.21,-42.6 556.18,-30.16"/>
<polygon fill="red" stroke="red" stroke-width="0.14" points="557.94,-33.23 563.68,-24.32 553.64,-27.71 557.94,-33.23"/>
</g>
<!-- 195&#45;&gt;0 -->
<g id="edge23" class="edge">
<title>195&#45;&gt;0</title>
<path fill="none" stroke="red" stroke-width="0.58" d="M266,-64.79C266,-57.07 266,-48.16 266,-40.06"/>
<polygon fill="red" stroke="red" stroke-width="0.58" points="269.5,-40.23 266,-30.23 262.5,-40.23 269.5,-40.23"/>
</g>
<!-- 195&#45;&gt;1 -->
<g id="edge9" class="edge">
<title>195&#45;&gt;1</title>
<path fill="none" stroke="red" stroke-width="0.46" stroke-dasharray="1,5" d="M285.91,-78.57C326.47,-65.79 418.53,-36.77 462.18,-23"/>
<polygon fill="red" stroke="red" stroke-width="0.46" points="463.02,-26.41 471.51,-20.06 460.92,-19.73 463.02,-26.41"/>
</g>
<!-- 195&#45;&gt;2 -->
<g id="edge32" class="edge">
<title>195&#45;&gt;2</title>
<path fill="none" stroke="green" stroke-width="0.23" d="M282.68,-73.4C300.3,-61.3 328.09,-42.21 346.91,-29.29"/>
<polygon fill="green" stroke="green" stroke-width="0.23" points="348.8,-32.24 355.06,-23.7 344.83,-26.47 348.8,-32.24"/>
</g>
<!-- 195&#45;&gt;4 -->
<g id="edge1" class="edge">
<title>195&#45;&gt;4</title>
<path fill="none" stroke="red" stroke-width="0.17" d="M253.71,-68.77C245.89,-58.53 235.73,-45.24 227.52,-34.49"/>
<polygon fill="red" stroke="red" stroke-width="0.17" points="230.43,-32.55 221.58,-26.73 224.87,-36.8 230.43,-32.55"/>
</g>
<!-- 195&#45;&gt;195 -->
<g id="edge8" class="edge">
<title>195&#45;&gt;195</title>
<path fill="none" stroke="red" stroke-width="0.26" d="M283.18,-98.17C294.23,-101.39 304.86,-97.28 304.86,-85.85 304.86,-77.99 299.83,-73.6 293.1,-72.66"/>
<polygon fill="red" stroke="red" stroke-width="0.26" points="293.22,-69.14 283.57,-73.5 293.84,-76.11 293.22,-69.14"/>
</g>
<!-- 196&#45;&gt;1 -->
<g id="edge42" class="edge">
<title>196&#45;&gt;1</title>
<path fill="none" stroke="green" stroke-width="0.16" d="M597.65,-75.06C573.94,-62.41 532.74,-40.43 507.56,-27"/>
<polygon fill="green" stroke="green" stroke-width="0.16" points="509.45,-24.04 498.98,-22.42 506.15,-30.21 509.45,-24.04"/>
</g>
<!-- 196&#45;&gt;2 -->
<g id="edge38" class="edge">
<title>196&#45;&gt;2</title>
<path fill="none" stroke="red" stroke-width="0.16" d="M596.04,-79.29C550.57,-66.63 439.4,-35.66 390.61,-22.07"/>
<polygon fill="red" stroke="red" stroke-width="0.16" points="391.74,-18.75 381.17,-19.44 389.86,-25.5 391.74,-18.75"/>
</g>
<!-- 196&#45;&gt;3 -->
<g id="edge2" class="edge">
<title>196&#45;&gt;3</title>
<path fill="none" stroke="red" stroke-width="0.19" d="M605.65,-67.35C600.05,-57.86 593.08,-46.08 587.21,-36.14"/>
<polygon fill="red" stroke="red" stroke-width="0.19" points="590.23,-34.39 582.13,-27.56 584.21,-37.95 590.23,-34.39"/>
</g>
<!-- 244&#45;&gt;196 -->
<g id="edge45" class="edge">
<title>244&#45;&gt;196</title>
<path fill="none" stroke="red" stroke-width="0.25" d="M780.28,-150.52C776.06,-147.76 771.46,-144.97 767,-142.71 726.69,-122.26 677.05,-105.35 645.95,-95.68"/>
<polygon fill="red" stroke="red" stroke-width="0.25" points="647.11,-92.37 636.52,-92.79 645.06,-99.06 647.11,-92.37"/>
</g>
</g>
</svg>
