<?xml version="1.0" encoding="UTF-8" standalone="no"?>
<!DOCTYPE svg PUBLIC "-//W3C//DTD SVG 1.1//EN"
 "http://www.w3.org/Graphics/SVG/1.1/DTD/svg11.dtd">
<!-- Generated by graphviz version 12.1.1 (20240910.0053)
 -->
<!-- Pages: 1 -->
<svg width="932pt" height="413pt"
 viewBox="0.00 0.00 932.50 412.86" xmlns="http://www.w3.org/2000/svg" xmlns:xlink="http://www.w3.org/1999/xlink">
<g id="graph0" class="graph" transform="scale(1 1) rotate(0) translate(4 408.86)">
<polygon fill="white" stroke="none" points="-4,4 -4,-408.86 928.5,-408.86 928.5,4 -4,4"/>
<!-- &#45;1 -->
<g id="node1" class="node">
<title>&#45;1</title>
<polygon fill="lightgray" stroke="black" points="601.75,-399.61 578.25,-399.61 578.25,-381.11 601.75,-381.11 601.75,-399.61"/>
<text text-anchor="middle" x="590" y="-387.06" font-family="Times,serif" font-size="9.00">&#45;1</text>
</g>
<!-- &#45;2 -->
<g id="node2" class="node">
<title>&#45;2</title>
<polygon fill="lightgray" stroke="black" points="817.75,-250.54 794.25,-250.54 794.25,-232.04 817.75,-232.04 817.75,-250.54"/>
<text text-anchor="middle" x="806" y="-237.99" font-family="Times,serif" font-size="9.00">&#45;2</text>
</g>
<!-- 192 -->
<g id="node26" class="node">
<title>192</title>
<ellipse fill="white" stroke="black" cx="764" cy="-163.57" rx="20.86" ry="20.86"/>
<text text-anchor="middle" x="764" y="-160.27" font-family="Times,serif" font-size="9.00">192</text>
</g>
<!-- &#45;2&#45;&gt;192 -->
<g id="edge36" class="edge">
<title>&#45;2&#45;&gt;192</title>
<path fill="none" stroke="red" stroke-width="0.28" stroke-dasharray="1,5" d="M801.18,-231.6C795.74,-221.79 786.61,-205.34 778.76,-191.19"/>
<polygon fill="red" stroke="red" stroke-width="0.28" points="781.96,-189.73 774.05,-182.68 775.84,-193.13 781.96,-189.73"/>
</g>
<!-- 191 -->
<g id="node34" class="node">
<title>191</title>
<ellipse fill="white" stroke="black" cx="590" cy="-163.57" rx="20.86" ry="20.86"/>
<text text-anchor="middle" x="590" y="-160.27" font-family="Times,serif" font-size="9.00">191</text>
</g>
<!-- &#45;2&#45;&gt;191 -->
<g id="edge14" class="edge">
<title>&#45;2&#45;&gt;191</title>
<path fill="none" stroke="red" stroke-width="0.19" d="M798.56,-231.55C794.84,-227.66 790.06,-223.31 785,-220.43 731.78,-190.08 660.85,-175.19 620.85,-168.75"/>
<polygon fill="red" stroke="red" stroke-width="0.19" points="621.6,-165.33 611.19,-167.27 620.54,-172.25 621.6,-165.33"/>
</g>
<!-- &#45;3 -->
<g id="node3" class="node">
<title>&#45;3</title>
<polygon fill="lightgray" stroke="black" points="557.75,-250.54 534.25,-250.54 534.25,-232.04 557.75,-232.04 557.75,-250.54"/>
<text text-anchor="middle" x="546" y="-237.99" font-family="Times,serif" font-size="9.00">&#45;3</text>
</g>
<!-- &#45;3&#45;&gt;192 -->
<g id="edge29" class="edge">
<title>&#45;3&#45;&gt;192</title>
<path fill="none" stroke="green" stroke-width="0.73" stroke-dasharray="1,5" d="M553.43,-231.55C557.15,-227.65 561.94,-223.31 567,-220.43 620.56,-189.98 691.88,-175.16 732.38,-168.76"/>
<polygon fill="green" stroke="green" stroke-width="0.73" points="732.72,-172.25 742.09,-167.3 731.68,-165.33 732.72,-172.25"/>
</g>
<!-- 276 -->
<g id="node30" class="node">
<title>276</title>
<ellipse fill="white" stroke="black" cx="530" cy="-163.57" rx="20.86" ry="20.86"/>
<text text-anchor="middle" x="530" y="-160.27" font-family="Times,serif" font-size="9.00">276</text>
</g>
<!-- &#45;3&#45;&gt;276 -->
<g id="edge39" class="edge">
<title>&#45;3&#45;&gt;276</title>
<path fill="none" stroke="green" stroke-width="0.22" d="M544.16,-231.6C542.24,-222.5 539.11,-207.7 536.28,-194.31"/>
<polygon fill="green" stroke="green" stroke-width="0.22" points="539.77,-193.86 534.27,-184.8 532.92,-195.31 539.77,-193.86"/>
</g>
<!-- 189 -->
<g id="node32" class="node">
<title>189</title>
<ellipse fill="white" stroke="black" cx="406" cy="-163.57" rx="20.86" ry="20.86"/>
<text text-anchor="middle" x="406" y="-160.27" font-family="Times,serif" font-size="9.00">189</text>
</g>
<!-- &#45;3&#45;&gt;189 -->
<g id="edge2" class="edge">
<title>&#45;3&#45;&gt;189</title>
<path fill="none" stroke="green" stroke-width="0.14" stroke-dasharray="1,5" d="M538.34,-231.91C534.57,-228.09 529.81,-223.71 525,-220.43 509.34,-209.76 463.94,-189.43 433.96,-176.47"/>
<polygon fill="green" stroke="green" stroke-width="0.14" points="435.59,-173.36 425.02,-172.62 432.82,-179.79 435.59,-173.36"/>
</g>
<!-- 190 -->
<g id="node33" class="node">
<title>190</title>
<ellipse fill="white" stroke="black" cx="328" cy="-163.57" rx="20.86" ry="20.86"/>
<text text-anchor="middle" x="328" y="-160.27" font-family="Times,serif" font-size="9.00">190</text>
</g>
<!-- &#45;3&#45;&gt;190 -->
<g id="edge1" class="edge">
<title>&#45;3&#45;&gt;190</title>
<path fill="none" stroke="green" stroke-width="0.5" d="M539,-231.86C535.24,-227.85 530.29,-223.3 525,-220.43 465.12,-187.93 440.78,-205.52 376,-184.43 369.58,-182.34 362.82,-179.78 356.46,-177.19"/>
<polygon fill="green" stroke="green" stroke-width="0.5" points="358.17,-174.12 347.59,-173.48 355.46,-180.57 358.17,-174.12"/>
</g>
<!-- &#45;3&#45;&gt;191 -->
<g id="edge8" class="edge">
<title>&#45;3&#45;&gt;191</title>
<path fill="none" stroke="red" stroke-width="0.41" stroke-dasharray="1,5" d="M551.05,-231.6C556.79,-221.73 566.43,-205.12 574.69,-190.91"/>
<polygon fill="red" stroke="red" stroke-width="0.41" points="577.55,-192.96 579.55,-182.55 571.5,-189.44 577.55,-192.96"/>
</g>
<!-- &#45;4 -->
<g id="node4" class="node">
<title>&#45;4</title>
<polygon fill="lightgray" stroke="black" points="643.75,-399.61 620.25,-399.61 620.25,-381.11 643.75,-381.11 643.75,-399.61"/>
<text text-anchor="middle" x="632" y="-387.06" font-family="Times,serif" font-size="9.00">&#45;4</text>
</g>
<!-- 485 -->
<g id="node27" class="node">
<title>485</title>
<ellipse fill="white" stroke="black" cx="857" cy="-319.01" rx="20.86" ry="20.86"/>
<text text-anchor="middle" x="857" y="-315.71" font-family="Times,serif" font-size="9.00">485</text>
</g>
<!-- &#45;4&#45;&gt;485 -->
<g id="edge47" class="edge">
<title>&#45;4&#45;&gt;485</title>
<path fill="none" stroke="green" stroke-width="0.5" d="M644.08,-380.72C646.92,-378.94 649.99,-377.21 653,-375.87 711.53,-349.79 785.05,-333.31 825.93,-325.46"/>
<polygon fill="green" stroke="green" stroke-width="0.5" points="826.38,-328.93 835.57,-323.66 825.1,-322.05 826.38,-328.93"/>
</g>
<!-- 311 -->
<g id="node31" class="node">
<title>311</title>
<ellipse fill="white" stroke="black" cx="857" cy="-241.29" rx="20.86" ry="20.86"/>
<text text-anchor="middle" x="857" y="-237.99" font-family="Times,serif" font-size="9.00">311</text>
</g>
<!-- &#45;4&#45;&gt;311 -->
<g id="edge40" class="edge">
<title>&#45;4&#45;&gt;311</title>
<path fill="none" stroke="red" stroke-width="0.4" stroke-dasharray="1,5" d="M643.89,-381.65C674.36,-361.86 757.75,-307.66 827,-262.15 828.44,-261.21 829.91,-260.24 831.4,-259.26"/>
<polygon fill="red" stroke="red" stroke-width="0.4" points="832.95,-262.42 839.37,-253.99 829.1,-256.58 832.95,-262.42"/>
</g>
<!-- &#45;4&#45;&gt;189 -->
<g id="edge17" class="edge">
<title>&#45;4&#45;&gt;189</title>
<path fill="none" stroke="green" stroke-width="0.29" stroke-dasharray="1,5" d="M620.07,-380.96C593.2,-361.71 526.58,-312.24 479,-262.15 457.55,-239.57 436.63,-210.69 422.72,-190.22"/>
<polygon fill="green" stroke="green" stroke-width="0.29" points="425.75,-188.46 417.28,-182.1 419.94,-192.36 425.75,-188.46"/>
</g>
<!-- &#45;4&#45;&gt;190 -->
<g id="edge3" class="edge">
<title>&#45;4&#45;&gt;190</title>
<path fill="none" stroke="green" stroke-width="0.17" d="M620.97,-380.86C617.89,-378.9 614.45,-377.04 611,-375.87 522.33,-345.66 254.35,-408.88 191,-339.87 155.1,-300.76 161.39,-264.49 191,-220.43 214.53,-185.42 264.25,-172.34 296.88,-167.46"/>
<polygon fill="green" stroke="green" stroke-width="0.17" points="297.1,-170.96 306.55,-166.18 296.18,-164.02 297.1,-170.96"/>
</g>
<!-- &#45;4&#45;&gt;191 -->
<g id="edge18" class="edge">
<title>&#45;4&#45;&gt;191</title>
<path fill="none" stroke="red" stroke-width="0.43" d="M631.87,-380.78C631.32,-355.68 628.41,-280.46 613,-220.43 610.6,-211.08 606.96,-201.24 603.27,-192.47"/>
<polygon fill="red" stroke="red" stroke-width="0.43" points="606.49,-191.09 599.26,-183.34 600.08,-193.9 606.49,-191.09"/>
</g>
<!-- &#45;5 -->
<g id="node5" class="node">
<title>&#45;5</title>
<polygon fill="lightgray" stroke="black" points="775.75,-250.54 752.25,-250.54 752.25,-232.04 775.75,-232.04 775.75,-250.54"/>
<text text-anchor="middle" x="764" y="-237.99" font-family="Times,serif" font-size="9.00">&#45;5</text>
</g>
<!-- &#45;5&#45;&gt;192 -->
<g id="edge4" class="edge">
<title>&#45;5&#45;&gt;192</title>
<path fill="none" stroke="green" stroke-width="0.7" d="M764,-231.6C764,-222.83 764,-208.75 764,-195.76"/>
<polygon fill="green" stroke="green" stroke-width="0.7" points="767.5,-195.84 764,-185.84 760.5,-195.84 767.5,-195.84"/>
</g>
<!-- &#45;5&#45;&gt;189 -->
<g id="edge30" class="edge">
<title>&#45;5&#45;&gt;189</title>
<path fill="none" stroke="green" stroke-width="0.11" stroke-dasharray="1,5" d="M757.13,-231.6C753.4,-227.52 748.45,-223 743,-220.43 625.93,-165.21 579.15,-217.47 454,-184.43 447.32,-182.67 440.34,-180.18 433.84,-177.56"/>
<polygon fill="green" stroke="green" stroke-width="0.11" points="435.47,-174.45 424.9,-173.77 432.74,-180.9 435.47,-174.45"/>
</g>
<!-- &#45;6 -->
<g id="node6" class="node">
<title>&#45;6</title>
<polygon fill="lightgray" stroke="black" points="685.75,-399.61 662.25,-399.61 662.25,-381.11 685.75,-381.11 685.75,-399.61"/>
<text text-anchor="middle" x="674" y="-387.06" font-family="Times,serif" font-size="9.00">&#45;6</text>
</g>
<!-- &#45;7 -->
<g id="node7" class="node">
<title>&#45;7</title>
<polygon fill="lightgray" stroke="black" points="297.75,-250.54 274.25,-250.54 274.25,-232.04 297.75,-232.04 297.75,-250.54"/>
<text text-anchor="middle" x="286" y="-237.99" font-family="Times,serif" font-size="9.00">&#45;7</text>
</g>
<!-- &#45;7&#45;&gt;189 -->
<g id="edge12" class="edge">
<title>&#45;7&#45;&gt;189</title>
<path fill="none" stroke="red" stroke-width="0.19" stroke-dasharray="1,5" d="M294.17,-231.67C297.89,-227.98 302.48,-223.77 307,-220.43 329.62,-203.74 357.72,-188.33 378.19,-177.94"/>
<polygon fill="red" stroke="red" stroke-width="0.19" points="379.66,-181.12 387.04,-173.53 376.53,-174.86 379.66,-181.12"/>
</g>
<!-- &#45;7&#45;&gt;190 -->
<g id="edge10" class="edge">
<title>&#45;7&#45;&gt;190</title>
<path fill="none" stroke="red" stroke-width="0.3" stroke-dasharray="1,5" d="M290.82,-231.6C296.26,-221.79 305.39,-205.34 313.24,-191.19"/>
<polygon fill="red" stroke="red" stroke-width="0.3" points="316.14,-193.16 317.93,-182.72 310.02,-189.77 316.14,-193.16"/>
</g>
<!-- &#45;7&#45;&gt;191 -->
<g id="edge6" class="edge">
<title>&#45;7&#45;&gt;191</title>
<path fill="none" stroke="red" stroke-width="0.14" stroke-dasharray="1,5" d="M292.89,-231.65C296.62,-227.57 301.58,-223.05 307,-220.43 409.3,-171.09 453.83,-224.76 560,-184.43 561.8,-183.75 563.59,-182.94 565.36,-182.05"/>
<polygon fill="red" stroke="red" stroke-width="0.14" points="566.82,-185.26 573.71,-177.21 563.3,-179.2 566.82,-185.26"/>
</g>
<!-- &#45;8 -->
<g id="node8" class="node">
<title>&#45;8</title>
<polygon fill="lightgray" stroke="black" points="223.75,-328.26 200.25,-328.26 200.25,-309.76 223.75,-309.76 223.75,-328.26"/>
<text text-anchor="middle" x="212" y="-315.71" font-family="Times,serif" font-size="9.00">&#45;8</text>
</g>
<!-- 427 -->
<g id="node28" class="node">
<title>427</title>
<ellipse fill="white" stroke="black" cx="235" cy="-241.29" rx="20.86" ry="20.86"/>
<text text-anchor="middle" x="235" y="-237.99" font-family="Times,serif" font-size="9.00">427</text>
</g>
<!-- &#45;8&#45;&gt;427 -->
<g id="edge42" class="edge">
<title>&#45;8&#45;&gt;427</title>
<path fill="none" stroke="green" stroke-width="0.46" d="M214.64,-309.32C217.44,-300.1 222.02,-285.01 226.13,-271.48"/>
<polygon fill="green" stroke="green" stroke-width="0.46" points="229.39,-272.81 228.94,-262.23 222.69,-270.78 229.39,-272.81"/>
</g>
<!-- &#45;8&#45;&gt;189 -->
<g id="edge23" class="edge">
<title>&#45;8&#45;&gt;189</title>
<path fill="none" stroke="red" stroke-width="0.35" stroke-dasharray="1,5" d="M207.87,-309.31C199.73,-290.75 184.12,-246.79 205,-220.43 248.37,-165.67 291.51,-205.85 358,-184.43 364.42,-182.36 371.19,-179.81 377.55,-177.22"/>
<polygon fill="red" stroke="red" stroke-width="0.35" points="378.75,-180.52 386.62,-173.42 376.04,-174.06 378.75,-180.52"/>
</g>
<!-- &#45;9 -->
<g id="node9" class="node">
<title>&#45;9</title>
<polygon fill="lightgray" stroke="black" points="339.75,-250.54 316.25,-250.54 316.25,-232.04 339.75,-232.04 339.75,-250.54"/>
<text text-anchor="middle" x="328" y="-237.99" font-family="Times,serif" font-size="9.00">&#45;9</text>
</g>
<!-- &#45;9&#45;&gt;190 -->
<g id="edge5" class="edge">
<title>&#45;9&#45;&gt;190</title>
<path fill="none" stroke="green" stroke-width="0.92" d="M328,-231.6C328,-222.92 328,-209.04 328,-196.15"/>
<polygon fill="green" stroke="green" stroke-width="0.92" points="331.5,-196.17 328,-186.17 324.5,-196.17 331.5,-196.17"/>
</g>
<!-- &#45;9&#45;&gt;191 -->
<g id="edge24" class="edge">
<title>&#45;9&#45;&gt;191</title>
<path fill="none" stroke="red" stroke-width="0.47" d="M334.92,-231.71C338.66,-227.65 343.61,-223.12 349,-220.43 434.11,-177.92 471.54,-219.44 560,-184.43 561.64,-183.78 563.28,-183.04 564.9,-182.22"/>
<polygon fill="red" stroke="red" stroke-width="0.47" points="566.36,-185.42 573.24,-177.37 562.84,-179.37 566.36,-185.42"/>
</g>
<!-- &#45;10 -->
<g id="node10" class="node">
<title>&#45;10</title>
<polygon fill="lightgray" stroke="black" points="386,-250.54 358,-250.54 358,-232.04 386,-232.04 386,-250.54"/>
<text text-anchor="middle" x="372" y="-237.99" font-family="Times,serif" font-size="9.00">&#45;10</text>
</g>
<!-- &#45;10&#45;&gt;190 -->
<g id="edge21" class="edge">
<title>&#45;10&#45;&gt;190</title>
<path fill="none" stroke="red" stroke-width="0.54" d="M366.95,-231.6C361.27,-221.82 351.75,-205.44 343.54,-191.32"/>
<polygon fill="red" stroke="red" stroke-width="0.54" points="346.6,-189.62 338.55,-182.73 340.55,-193.13 346.6,-189.62"/>
</g>
<!-- &#45;10&#45;&gt;191 -->
<g id="edge28" class="edge">
<title>&#45;10&#45;&gt;191</title>
<path fill="none" stroke="green" stroke-width="0.22" d="M379.78,-231.83C383.93,-227.8 389.34,-223.26 395,-220.43 462.14,-186.87 490.86,-213.64 560,-184.43 561.58,-183.76 563.17,-183.01 564.75,-182.19"/>
<polygon fill="green" stroke="green" stroke-width="0.22" points="566.35,-185.31 573.2,-177.23 562.81,-179.27 566.35,-185.31"/>
</g>
<!-- &#45;11 -->
<g id="node11" class="node">
<title>&#45;11</title>
<polygon fill="lightgray" stroke="black" points="516,-250.54 488,-250.54 488,-232.04 516,-232.04 516,-250.54"/>
<text text-anchor="middle" x="502" y="-237.99" font-family="Times,serif" font-size="9.00">&#45;11</text>
</g>
<!-- &#45;11&#45;&gt;189 -->
<g id="edge26" class="edge">
<title>&#45;11&#45;&gt;189</title>
<path fill="none" stroke="red" stroke-width="0.31" d="M490.99,-231.6C476.23,-219.96 449.63,-198.99 430.11,-183.59"/>
<polygon fill="red" stroke="red" stroke-width="0.31" points="432.36,-180.9 422.34,-177.46 428.02,-186.4 432.36,-180.9"/>
</g>
<!-- &#45;11&#45;&gt;191 -->
<g id="edge13" class="edge">
<title>&#45;11&#45;&gt;191</title>
<path fill="none" stroke="green" stroke-width="0.26" d="M511.84,-231.78C515.92,-228.26 520.68,-224.15 525,-220.43 538.87,-208.48 554.42,-195.11 566.84,-184.45"/>
<polygon fill="green" stroke="green" stroke-width="0.26" points="568.89,-187.3 574.2,-178.13 564.33,-181.99 568.89,-187.3"/>
</g>
<!-- &#45;12 -->
<g id="node12" class="node">
<title>&#45;12</title>
<polygon fill="lightgray" stroke="black" points="28,-250.54 0,-250.54 0,-232.04 28,-232.04 28,-250.54"/>
<text text-anchor="middle" x="14" y="-237.99" font-family="Times,serif" font-size="9.00">&#45;12</text>
</g>
<!-- &#45;12&#45;&gt;190 -->
<g id="edge20" class="edge">
<title>&#45;12&#45;&gt;190</title>
<path fill="none" stroke="green" stroke-width="0.3" d="M21.75,-231.77C25.89,-227.73 31.3,-223.19 37,-220.43 124.46,-178.08 241.3,-167.81 296.54,-165.34"/>
<polygon fill="green" stroke="green" stroke-width="0.3" points="296.42,-168.85 306.28,-164.96 296.15,-161.85 296.42,-168.85"/>
</g>
<!-- &#45;13 -->
<g id="node13" class="node">
<title>&#45;13</title>
<polygon fill="lightgray" stroke="black" points="432,-250.54 404,-250.54 404,-232.04 432,-232.04 432,-250.54"/>
<text text-anchor="middle" x="418" y="-237.99" font-family="Times,serif" font-size="9.00">&#45;13</text>
</g>
<!-- &#45;13&#45;&gt;190 -->
<g id="edge19" class="edge">
<title>&#45;13&#45;&gt;190</title>
<path fill="none" stroke="green" stroke-width="0.75" stroke-dasharray="1,5" d="M408.18,-231.75C404.12,-228.23 399.34,-224.12 395,-220.43 380.83,-208.41 364.86,-195.08 352.06,-184.46"/>
<polygon fill="green" stroke="green" stroke-width="0.75" points="354.58,-182 344.64,-178.31 350.11,-187.39 354.58,-182"/>
</g>
<!-- &#45;13&#45;&gt;191 -->
<g id="edge11" class="edge">
<title>&#45;13&#45;&gt;191</title>
<path fill="none" stroke="red" stroke-width="0.14" stroke-dasharray="1,5" d="M432.13,-235.83C458.16,-227.38 515.11,-207.79 560,-184.43 561.52,-183.64 563.07,-182.79 564.61,-181.9"/>
<polygon fill="red" stroke="red" stroke-width="0.14" points="566.4,-184.91 573.06,-176.67 562.71,-178.95 566.4,-184.91"/>
</g>
<!-- &#45;14 -->
<g id="node14" class="node">
<title>&#45;14</title>
<polygon fill="lightgray" stroke="black" points="74,-250.54 46,-250.54 46,-232.04 74,-232.04 74,-250.54"/>
<text text-anchor="middle" x="60" y="-237.99" font-family="Times,serif" font-size="9.00">&#45;14</text>
</g>
<!-- &#45;14&#45;&gt;190 -->
<g id="edge25" class="edge">
<title>&#45;14&#45;&gt;190</title>
<path fill="none" stroke="red" stroke-width="0.3" stroke-dasharray="1,5" d="M67.79,-231.85C71.94,-227.83 77.35,-223.29 83,-220.43 154.12,-184.46 248.5,-171.38 296.73,-166.84"/>
<polygon fill="red" stroke="red" stroke-width="0.3" points="296.73,-170.35 306.39,-165.99 296.12,-163.38 296.73,-170.35"/>
</g>
<!-- &#45;15 -->
<g id="node15" class="node">
<title>&#45;15</title>
<polygon fill="lightgray" stroke="black" points="924,-250.54 896,-250.54 896,-232.04 924,-232.04 924,-250.54"/>
<text text-anchor="middle" x="910" y="-237.99" font-family="Times,serif" font-size="9.00">&#45;15</text>
</g>
<!-- 2 -->
<g id="node23" class="node">
<title>2</title>
<ellipse fill="lightblue" stroke="black" cx="910" cy="-163.57" rx="14.5" ry="14.5"/>
<text text-anchor="middle" x="910" y="-160.27" font-family="Times,serif" font-size="9.00">2</text>
</g>
<!-- &#45;15&#45;&gt;2 -->
<g id="edge44" class="edge">
<title>&#45;15&#45;&gt;2</title>
<path fill="none" stroke="red" stroke-width="0.15" d="M910,-231.6C910,-221.16 910,-203.21 910,-188.51"/>
<polygon fill="red" stroke="red" stroke-width="0.15" points="913.5,-188.76 910,-178.76 906.5,-188.76 913.5,-188.76"/>
</g>
<!-- &#45;15&#45;&gt;192 -->
<g id="edge32" class="edge">
<title>&#45;15&#45;&gt;192</title>
<path fill="none" stroke="red" stroke-width="0.25" stroke-dasharray="1,5" d="M901.51,-231.93C897.36,-228.12 892.15,-223.73 887,-220.43 856.83,-201.12 818.88,-184.97 793.17,-175.08"/>
<polygon fill="red" stroke="red" stroke-width="0.25" points="794.58,-171.87 783.99,-171.62 792.11,-178.42 794.58,-171.87"/>
</g>
<!-- &#45;16 -->
<g id="node16" class="node">
<title>&#45;16</title>
<polygon fill="lightgray" stroke="black" points="120,-250.54 92,-250.54 92,-232.04 120,-232.04 120,-250.54"/>
<text text-anchor="middle" x="106" y="-237.99" font-family="Times,serif" font-size="9.00">&#45;16</text>
</g>
<!-- &#45;16&#45;&gt;190 -->
<g id="edge35" class="edge">
<title>&#45;16&#45;&gt;190</title>
<path fill="none" stroke="green" stroke-width="0.24" stroke-dasharray="1,5" d="M116.37,-231.66C121.44,-227.79 127.77,-223.43 134,-220.43 188.67,-194.11 258.12,-177.84 297.36,-170.07"/>
<polygon fill="green" stroke="green" stroke-width="0.24" points="297.84,-173.54 307,-168.21 296.51,-166.67 297.84,-173.54"/>
</g>
<!-- &#45;17 -->
<g id="node17" class="node">
<title>&#45;17</title>
<polygon fill="lightgray" stroke="black" points="688,-250.54 660,-250.54 660,-232.04 688,-232.04 688,-250.54"/>
<text text-anchor="middle" x="674" y="-237.99" font-family="Times,serif" font-size="9.00">&#45;17</text>
</g>
<!-- &#45;17&#45;&gt;191 -->
<g id="edge9" class="edge">
<title>&#45;17&#45;&gt;191</title>
<path fill="none" stroke="green" stroke-width="0.56" d="M664.36,-231.6C651.92,-220.39 629.86,-200.5 612.99,-185.29"/>
<polygon fill="green" stroke="green" stroke-width="0.56" points="615.59,-182.93 605.82,-178.83 610.9,-188.13 615.59,-182.93"/>
</g>
<!-- &#45;18 -->
<g id="node18" class="node">
<title>&#45;18</title>
<polygon fill="lightgray" stroke="black" points="734,-250.54 706,-250.54 706,-232.04 734,-232.04 734,-250.54"/>
<text text-anchor="middle" x="720" y="-237.99" font-family="Times,serif" font-size="9.00">&#45;18</text>
</g>
<!-- &#45;18&#45;&gt;191 -->
<g id="edge37" class="edge">
<title>&#45;18&#45;&gt;191</title>
<path fill="none" stroke="red" stroke-width="0.35" stroke-dasharray="1,5" d="M710.99,-231.66C706.9,-227.97 701.89,-223.75 697,-220.43 671.75,-203.28 640.58,-187.55 618.41,-177.19"/>
<polygon fill="red" stroke="red" stroke-width="0.35" points="619.94,-174.04 609.39,-173.04 617.02,-180.4 619.94,-174.04"/>
</g>
<!-- &#45;19 -->
<g id="node19" class="node">
<title>&#45;19</title>
<polygon fill="lightgray" stroke="black" points="491,-172.82 463,-172.82 463,-154.32 491,-154.32 491,-172.82"/>
<text text-anchor="middle" x="477" y="-160.27" font-family="Times,serif" font-size="9.00">&#45;19</text>
</g>
<!-- 3 -->
<g id="node24" class="node">
<title>3</title>
<ellipse fill="lightblue" stroke="black" cx="510" cy="-85.85" rx="14.5" ry="14.5"/>
<text text-anchor="middle" x="510" y="-82.55" font-family="Times,serif" font-size="9.00">3</text>
</g>
<!-- &#45;19&#45;&gt;3 -->
<g id="edge49" class="edge">
<title>&#45;19&#45;&gt;3</title>
<path fill="none" stroke="green" stroke-width="0.58" d="M480.79,-153.88C485.49,-143.09 493.69,-124.27 500.21,-109.31"/>
<polygon fill="green" stroke="green" stroke-width="0.58" points="503.25,-111.1 504.04,-100.53 496.83,-108.3 503.25,-111.1"/>
</g>
<!-- &#45;20 -->
<g id="node20" class="node">
<title>&#45;20</title>
<polygon fill="lightgray" stroke="black" points="604,-250.54 576,-250.54 576,-232.04 604,-232.04 604,-250.54"/>
<text text-anchor="middle" x="590" y="-237.99" font-family="Times,serif" font-size="9.00">&#45;20</text>
</g>
<!-- &#45;20&#45;&gt;191 -->
<g id="edge31" class="edge">
<title>&#45;20&#45;&gt;191</title>
<path fill="none" stroke="green" stroke-width="0.13" stroke-dasharray="1,5" d="M590,-231.6C590,-222.56 590,-207.9 590,-194.58"/>
<polygon fill="green" stroke="green" stroke-width="0.13" points="593.5,-194.97 590,-184.97 586.5,-194.97 593.5,-194.97"/>
</g>
<!-- 0 -->
<g id="node21" class="node">
<title>0</title>
<ellipse fill="lightblue" stroke="black" cx="718" cy="-390.36" rx="14.5" ry="14.5"/>
<text text-anchor="middle" x="718" y="-387.06" font-family="Times,serif" font-size="9.00">0</text>
</g>
<!-- 0&#45;&gt;0 -->
<g id="edge33" class="edge">
<title>0&#45;&gt;0</title>
<path fill="none" stroke="green" stroke-width="0.18" stroke-dasharray="1,5" d="M728.32,-400.8C738.81,-406.94 750.5,-403.46 750.5,-390.36 750.5,-381.36 744.97,-376.9 738.11,-376.99"/>
<polygon fill="green" stroke="green" stroke-width="0.18" points="737.15,-373.62 728.58,-379.85 739.16,-380.32 737.15,-373.62"/>
</g>
<!-- 1 -->
<g id="node22" class="node">
<title>1</title>
<ellipse fill="lightblue" stroke="black" cx="377" cy="-14.5" rx="14.5" ry="14.5"/>
<text text-anchor="middle" x="377" y="-11.2" font-family="Times,serif" font-size="9.00">1</text>
</g>
<!-- 4 -->
<g id="node25" class="node">
<title>4</title>
<ellipse fill="lightblue" stroke="black" cx="590" cy="-85.85" rx="14.5" ry="14.5"/>
<text text-anchor="middle" x="590" y="-82.55" font-family="Times,serif" font-size="9.00">4</text>
</g>
<!-- 192&#45;&gt;1 -->
<g id="edge7" class="edge">
<title>192&#45;&gt;1</title>
<path fill="none" stroke="green" stroke-width="0.28" d="M748.35,-149.63C722.07,-128.58 666.69,-87.08 613,-64.99 539.81,-34.89 446.02,-22.25 401.97,-17.7"/>
<polygon fill="green" stroke="green" stroke-width="0.28" points="402.36,-14.23 392.07,-16.74 401.68,-21.19 402.36,-14.23"/>
</g>
<!-- 192&#45;&gt;3 -->
<g id="edge27" class="edge">
<title>192&#45;&gt;3</title>
<path fill="none" stroke="green" stroke-width="0.45" d="M743.75,-157.25C707.91,-147.74 631.07,-126.94 567,-106.71 555.87,-103.2 543.65,-98.99 533.38,-95.35"/>
<polygon fill="green" stroke="green" stroke-width="0.45" points="534.75,-92.12 524.16,-92.04 532.39,-98.71 534.75,-92.12"/>
</g>
<!-- 485&#45;&gt;311 -->
<g id="edge48" class="edge">
<title>485&#45;&gt;311</title>
<path fill="none" stroke="red" stroke-width="0.51" d="M851.01,-298.51C850.3,-290.56 850.08,-281.19 850.38,-272.4"/>
<polygon fill="red" stroke="red" stroke-width="0.51" points="853.87,-272.68 850.97,-262.49 846.88,-272.26 853.87,-272.68"/>
</g>
<!-- 427&#45;&gt;189 -->
<g id="edge43" class="edge">
<title>427&#45;&gt;189</title>
<path fill="none" stroke="red" stroke-width="0.41" stroke-dasharray="1,5" d="M251.75,-228.29C255.97,-225.52 260.56,-222.72 265,-220.43 304.37,-200.08 316.85,-200.9 358,-184.43 364.26,-181.92 370.97,-179.18 377.31,-176.56"/>
<polygon fill="red" stroke="red" stroke-width="0.41" points="378.42,-179.89 386.32,-172.83 375.74,-173.43 378.42,-179.89"/>
</g>
<!-- 463 -->
<g id="node29" class="node">
<title>463</title>
<ellipse fill="white" stroke="black" cx="377" cy="-85.85" rx="20.86" ry="20.86"/>
<text text-anchor="middle" x="377" y="-82.55" font-family="Times,serif" font-size="9.00">463</text>
</g>
<!-- 463&#45;&gt;1 -->
<g id="edge46" class="edge">
<title>463&#45;&gt;1</title>
<path fill="none" stroke="green" stroke-width="0.3" d="M377,-64.79C377,-56.98 377,-47.96 377,-39.78"/>
<polygon fill="green" stroke="green" stroke-width="0.3" points="380.5,-39.81 377,-29.81 373.5,-39.81 380.5,-39.81"/>
</g>
<!-- 311&#45;&gt;192 -->
<g id="edge41" class="edge">
<title>311&#45;&gt;192</title>
<path fill="none" stroke="green" stroke-width="0.14" stroke-dasharray="1,5" d="M841.22,-227.44C826.53,-215.48 804.42,-197.48 787.62,-183.8"/>
<polygon fill="green" stroke="green" stroke-width="0.14" points="789.99,-181.22 780.02,-177.62 785.57,-186.64 789.99,-181.22"/>
</g>
<!-- 311&#45;&gt;485 -->
<g id="edge50" class="edge">
<title>311&#45;&gt;485</title>
<path fill="none" stroke="green" stroke-width="0.14" d="M862.98,-261.72C863.72,-269.84 863.92,-279.45 863.6,-288.42"/>
<polygon fill="green" stroke="green" stroke-width="0.14" points="860.12,-288.11 863,-298.3 867.1,-288.53 860.12,-288.11"/>
</g>
<!-- 189&#45;&gt;189 -->
<g id="edge16" class="edge">
<title>189&#45;&gt;189</title>
<path fill="none" stroke="red" stroke-width="0.12" d="M422.37,-176.72C433.7,-180.7 444.86,-176.32 444.86,-163.57 444.86,-154.6 439.34,-149.78 432.13,-149.08"/>
<polygon fill="red" stroke="red" stroke-width="0.12" points="431.98,-145.57 422.55,-150.4 432.93,-152.51 431.98,-145.57"/>
</g>
<!-- 190&#45;&gt;1 -->
<g id="edge34" class="edge">
<title>190&#45;&gt;1</title>
<path fill="none" stroke="red" stroke-width="0.38" stroke-dasharray="1,5" d="M329.81,-142.56C332.12,-122.43 337.05,-90.75 347,-64.99 350.99,-54.67 357.1,-44.06 362.77,-35.33"/>
<polygon fill="red" stroke="red" stroke-width="0.38" points="365.59,-37.41 368.3,-27.17 359.79,-33.48 365.59,-37.41"/>
</g>
<!-- 190&#45;&gt;3 -->
<g id="edge22" class="edge">
<title>190&#45;&gt;3</title>
<path fill="none" stroke="green" stroke-width="0.25" d="M347.13,-154.61C381,-140.52 451.34,-111.26 487.48,-96.22"/>
<polygon fill="green" stroke="green" stroke-width="0.25" points="488.47,-99.6 496.36,-92.53 485.78,-93.14 488.47,-99.6"/>
</g>
<!-- 190&#45;&gt;463 -->
<g id="edge45" class="edge">
<title>190&#45;&gt;463</title>
<path fill="none" stroke="red" stroke-width="0.37" d="M339.12,-145.39C345.38,-135.71 353.33,-123.42 360.33,-112.61"/>
<polygon fill="red" stroke="red" stroke-width="0.37" points="363.13,-114.73 365.62,-104.43 357.25,-110.92 363.13,-114.73"/>
</g>
<!-- 191&#45;&gt;3 -->
<g id="edge38" class="edge">
<title>191&#45;&gt;3</title>
<path fill="none" stroke="red" stroke-width="0.41" stroke-dasharray="1,5" d="M575.33,-148.68C561.9,-135.98 542.01,-117.15 527.71,-103.61"/>
<polygon fill="red" stroke="red" stroke-width="0.41" points="530.15,-101.1 520.48,-96.77 525.34,-106.19 530.15,-101.1"/>
</g>
<!-- 191&#45;&gt;4 -->
<g id="edge15" class="edge">
<title>191&#45;&gt;4</title>
<path fill="none" stroke="green" stroke-width="0.58" d="M590,-142.28C590,-132.83 590,-121.51 590,-111.57"/>
<polygon fill="green" stroke="green" stroke-width="0.58" points="593.5,-111.61 590,-101.61 586.5,-111.61 593.5,-111.61"/>
</g>
</g>
</svg>
