<?xml version="1.0" encoding="UTF-8" standalone="no"?>
<!DOCTYPE svg PUBLIC "-//W3C//DTD SVG 1.1//EN"
 "http://www.w3.org/Graphics/SVG/1.1/DTD/svg11.dtd">
<!-- Generated by graphviz version 12.1.1 (20240910.0053)
 -->
<!-- Pages: 1 -->
<svg width="737pt" height="251pt"
 viewBox="0.00 0.00 736.88 251.06" xmlns="http://www.w3.org/2000/svg" xmlns:xlink="http://www.w3.org/1999/xlink">
<g id="graph0" class="graph" transform="scale(1 1) rotate(0) translate(4 247.06)">
<polygon fill="white" stroke="none" points="-4,4 -4,-247.06 732.88,-247.06 732.88,4 -4,4"/>
<!-- &#45;1 -->
<g id="node1" class="node">
<title>&#45;1</title>
<polygon fill="lightgray" stroke="black" points="204.22,-237.81 180.72,-237.81 180.72,-219.31 204.22,-219.31 204.22,-237.81"/>
<text text-anchor="middle" x="192.47" y="-225.26" font-family="Times,serif" font-size="9.00">&#45;1</text>
</g>
<!-- 288 -->
<g id="node26" class="node">
<title>288</title>
<ellipse fill="white" stroke="black" cx="344.47" cy="-157.21" rx="20.86" ry="20.86"/>
<text text-anchor="middle" x="344.47" y="-153.91" font-family="Times,serif" font-size="9.00">288</text>
</g>
<!-- &#45;1&#45;&gt;288 -->
<g id="edge40" class="edge">
<title>&#45;1&#45;&gt;288</title>
<path fill="none" stroke="green" stroke-width="0.17" d="M204.6,-223.55C226.94,-215.96 275.84,-198.42 314.47,-178.07 315.98,-177.27 317.52,-176.41 319.06,-175.51"/>
<polygon fill="green" stroke="green" stroke-width="0.17" points="320.82,-178.54 327.47,-170.3 317.12,-172.6 320.82,-178.54"/>
</g>
<!-- 52 -->
<g id="node29" class="node">
<title>52</title>
<ellipse fill="white" stroke="black" cx="205.47" cy="-82.67" rx="17.68" ry="17.68"/>
<text text-anchor="middle" x="205.47" y="-79.37" font-family="Times,serif" font-size="9.00">52</text>
</g>
<!-- &#45;1&#45;&gt;52 -->
<g id="edge1" class="edge">
<title>&#45;1&#45;&gt;52</title>
<path fill="none" stroke="green" stroke-width="0.17" stroke-dasharray="1,5" d="M180.45,-226.21C143.04,-221.72 29.9,-206.03 8.47,-178.07 -2.82,-163.35 -2.83,-151.05 8.47,-136.35 29.05,-109.53 128.57,-93.41 177.79,-86.95"/>
<polygon fill="green" stroke="green" stroke-width="0.17" points="178.01,-90.45 187.49,-85.71 177.13,-83.5 178.01,-90.45"/>
</g>
<!-- &#45;2 -->
<g id="node2" class="node">
<title>&#45;2</title>
<polygon fill="lightgray" stroke="black" points="663.22,-166.46 639.72,-166.46 639.72,-147.96 663.22,-147.96 663.22,-166.46"/>
<text text-anchor="middle" x="651.47" y="-153.91" font-family="Times,serif" font-size="9.00">&#45;2</text>
</g>
<!-- 51 -->
<g id="node28" class="node">
<title>51</title>
<ellipse fill="white" stroke="black" cx="521.47" cy="-82.67" rx="17.68" ry="17.68"/>
<text text-anchor="middle" x="521.47" y="-79.37" font-family="Times,serif" font-size="9.00">51</text>
</g>
<!-- &#45;2&#45;&gt;51 -->
<g id="edge28" class="edge">
<title>&#45;2&#45;&gt;51</title>
<path fill="none" stroke="green" stroke-width="0.12" d="M643.79,-147.85C640.02,-144.04 635.26,-139.65 630.47,-136.35 603.94,-118.05 570.09,-102.78 547.21,-93.47"/>
<polygon fill="green" stroke="green" stroke-width="0.12" points="548.58,-90.25 538,-89.8 546,-96.75 548.58,-90.25"/>
</g>
<!-- &#45;3 -->
<g id="node3" class="node">
<title>&#45;3</title>
<polygon fill="lightgray" stroke="black" points="491.22,-166.46 467.72,-166.46 467.72,-147.96 491.22,-147.96 491.22,-166.46"/>
<text text-anchor="middle" x="479.47" y="-153.91" font-family="Times,serif" font-size="9.00">&#45;3</text>
</g>
<!-- &#45;3&#45;&gt;51 -->
<g id="edge3" class="edge">
<title>&#45;3&#45;&gt;51</title>
<path fill="none" stroke="green" stroke-width="0.36" stroke-dasharray="1,5" d="M484.45,-147.6C490.13,-137.78 499.67,-121.31 507.64,-107.54"/>
<polygon fill="green" stroke="green" stroke-width="0.36" points="510.59,-109.43 512.57,-99.02 504.53,-105.92 510.59,-109.43"/>
</g>
<!-- &#45;3&#45;&gt;52 -->
<g id="edge21" class="edge">
<title>&#45;3&#45;&gt;52</title>
<path fill="none" stroke="green" stroke-width="0.54" d="M467.36,-151.8C455.5,-147.56 436.86,-141.11 420.47,-136.35 353.86,-117.02 274.33,-98.76 233.18,-89.67"/>
<polygon fill="green" stroke="green" stroke-width="0.54" points="234.2,-86.31 223.68,-87.59 232.7,-93.15 234.2,-86.31"/>
</g>
<!-- &#45;4 -->
<g id="node4" class="node">
<title>&#45;4</title>
<polygon fill="lightgray" stroke="black" points="447.22,-237.81 423.72,-237.81 423.72,-219.31 447.22,-219.31 447.22,-237.81"/>
<text text-anchor="middle" x="435.47" y="-225.26" font-family="Times,serif" font-size="9.00">&#45;4</text>
</g>
<!-- &#45;5 -->
<g id="node5" class="node">
<title>&#45;5</title>
<polygon fill="lightgray" stroke="black" points="259.22,-166.46 235.72,-166.46 235.72,-147.96 259.22,-147.96 259.22,-166.46"/>
<text text-anchor="middle" x="247.47" y="-153.91" font-family="Times,serif" font-size="9.00">&#45;5</text>
</g>
<!-- &#45;5&#45;&gt;51 -->
<g id="edge24" class="edge">
<title>&#45;5&#45;&gt;51</title>
<path fill="none" stroke="red" stroke-width="0.74" d="M254.41,-147.67C258.15,-143.62 263.1,-139.09 268.47,-136.35 345,-97.24 374.65,-119.36 458.47,-100.35 470.09,-97.71 482.83,-94.42 493.78,-91.46"/>
<polygon fill="red" stroke="red" stroke-width="0.74" points="494.63,-94.85 503.35,-88.83 492.78,-88.1 494.63,-94.85"/>
</g>
<!-- &#45;5&#45;&gt;52 -->
<g id="edge31" class="edge">
<title>&#45;5&#45;&gt;52</title>
<path fill="none" stroke="green" stroke-width="0.13" stroke-dasharray="1,5" d="M242.48,-147.6C236.74,-137.69 227.07,-120.99 219.06,-107.14"/>
<polygon fill="green" stroke="green" stroke-width="0.13" points="222.22,-105.62 214.18,-98.72 216.16,-109.13 222.22,-105.62"/>
</g>
<!-- &#45;6 -->
<g id="node6" class="node">
<title>&#45;6</title>
<polygon fill="lightgray" stroke="black" points="533.22,-166.46 509.72,-166.46 509.72,-147.96 533.22,-147.96 533.22,-166.46"/>
<text text-anchor="middle" x="521.47" y="-153.91" font-family="Times,serif" font-size="9.00">&#45;6</text>
</g>
<!-- 49 -->
<g id="node27" class="node">
<title>49</title>
<ellipse fill="white" stroke="black" cx="431.47" cy="-82.67" rx="17.68" ry="17.68"/>
<text text-anchor="middle" x="431.47" y="-79.37" font-family="Times,serif" font-size="9.00">49</text>
</g>
<!-- &#45;6&#45;&gt;49 -->
<g id="edge2" class="edge">
<title>&#45;6&#45;&gt;49</title>
<path fill="none" stroke="green" stroke-width="0.16" d="M512.66,-147.49C508.98,-143.94 504.59,-139.86 500.47,-136.35 485.25,-123.41 467.3,-109.75 453.53,-99.59"/>
<polygon fill="green" stroke="green" stroke-width="0.16" points="455.88,-96.97 445.74,-93.89 451.74,-102.62 455.88,-96.97"/>
</g>
<!-- &#45;6&#45;&gt;51 -->
<g id="edge36" class="edge">
<title>&#45;6&#45;&gt;51</title>
<path fill="none" stroke="green" stroke-width="0.34" stroke-dasharray="1,5" d="M521.47,-147.6C521.47,-138.63 521.47,-124.1 521.47,-111.15"/>
<polygon fill="green" stroke="green" stroke-width="0.34" points="524.97,-111.32 521.47,-101.32 517.97,-111.32 524.97,-111.32"/>
</g>
<!-- &#45;7 -->
<g id="node7" class="node">
<title>&#45;7</title>
<polygon fill="lightgray" stroke="black" points="171.22,-166.46 147.72,-166.46 147.72,-147.96 171.22,-147.96 171.22,-166.46"/>
<text text-anchor="middle" x="159.47" y="-153.91" font-family="Times,serif" font-size="9.00">&#45;7</text>
</g>
<!-- 1 -->
<g id="node22" class="node">
<title>1</title>
<ellipse fill="lightblue" stroke="black" cx="205.47" cy="-14.5" rx="14.5" ry="14.5"/>
<text text-anchor="middle" x="205.47" y="-11.2" font-family="Times,serif" font-size="9.00">1</text>
</g>
<!-- &#45;7&#45;&gt;1 -->
<g id="edge37" class="edge">
<title>&#45;7&#45;&gt;1</title>
<path fill="none" stroke="red" stroke-width="0.35" stroke-dasharray="1,5" d="M160.36,-147.93C162.31,-131.64 167.63,-94.44 178.47,-64.99 182.1,-55.11 187.44,-44.8 192.42,-36.16"/>
<polygon fill="red" stroke="red" stroke-width="0.35" points="195.36,-38.06 197.5,-27.68 189.36,-34.46 195.36,-38.06"/>
</g>
<!-- &#45;7&#45;&gt;49 -->
<g id="edge4" class="edge">
<title>&#45;7&#45;&gt;49</title>
<path fill="none" stroke="red" stroke-width="0.17" d="M166.43,-147.71C170.18,-143.68 175.13,-139.14 180.47,-136.35 254.73,-97.48 355.51,-87.29 403.64,-84.62"/>
<polygon fill="red" stroke="red" stroke-width="0.17" points="403.56,-88.13 413.38,-84.14 403.22,-81.13 403.56,-88.13"/>
</g>
<!-- &#45;8 -->
<g id="node8" class="node">
<title>&#45;8</title>
<polygon fill="lightgray" stroke="black" points="575.22,-166.46 551.72,-166.46 551.72,-147.96 575.22,-147.96 575.22,-166.46"/>
<text text-anchor="middle" x="563.47" y="-153.91" font-family="Times,serif" font-size="9.00">&#45;8</text>
</g>
<!-- &#45;8&#45;&gt;49 -->
<g id="edge26" class="edge">
<title>&#45;8&#45;&gt;49</title>
<path fill="none" stroke="green" stroke-width="0.72" d="M555.8,-147.83C552.03,-144.02 547.27,-139.63 542.47,-136.35 515.72,-118.04 481.62,-102.91 458.32,-93.63"/>
<polygon fill="green" stroke="green" stroke-width="0.72" points="459.73,-90.42 449.14,-90.07 457.2,-96.95 459.73,-90.42"/>
</g>
<!-- &#45;8&#45;&gt;51 -->
<g id="edge19" class="edge">
<title>&#45;8&#45;&gt;51</title>
<path fill="none" stroke="red" stroke-width="0.13" d="M558.48,-147.6C552.74,-137.69 543.07,-120.99 535.06,-107.14"/>
<polygon fill="red" stroke="red" stroke-width="0.13" points="538.22,-105.62 530.18,-98.72 532.16,-109.13 538.22,-105.62"/>
</g>
<!-- &#45;9 -->
<g id="node9" class="node">
<title>&#45;9</title>
<polygon fill="lightgray" stroke="black" points="489.22,-237.81 465.72,-237.81 465.72,-219.31 489.22,-219.31 489.22,-237.81"/>
<text text-anchor="middle" x="477.47" y="-225.26" font-family="Times,serif" font-size="9.00">&#45;9</text>
</g>
<!-- &#45;10 -->
<g id="node10" class="node">
<title>&#45;10</title>
<polygon fill="lightgray" stroke="black" points="91.47,-166.46 63.47,-166.46 63.47,-147.96 91.47,-147.96 91.47,-166.46"/>
<text text-anchor="middle" x="77.47" y="-153.91" font-family="Times,serif" font-size="9.00">&#45;10</text>
</g>
<!-- &#45;10&#45;&gt;52 -->
<g id="edge27" class="edge">
<title>&#45;10&#45;&gt;52</title>
<path fill="none" stroke="red" stroke-width="0.34" stroke-dasharray="1,5" d="M88.95,-147.54C93.92,-143.93 99.88,-139.78 105.47,-136.35 130.18,-121.16 159.69,-105.95 180.22,-95.81"/>
<polygon fill="red" stroke="red" stroke-width="0.34" points="181.61,-99.03 189.05,-91.48 178.53,-92.74 181.61,-99.03"/>
</g>
<!-- &#45;11 -->
<g id="node11" class="node">
<title>&#45;11</title>
<polygon fill="lightgray" stroke="black" points="305.47,-166.46 277.47,-166.46 277.47,-147.96 305.47,-147.96 305.47,-166.46"/>
<text text-anchor="middle" x="291.47" y="-153.91" font-family="Times,serif" font-size="9.00">&#45;11</text>
</g>
<!-- &#45;11&#45;&gt;51 -->
<g id="edge10" class="edge">
<title>&#45;11&#45;&gt;51</title>
<path fill="none" stroke="red" stroke-width="0.22" d="M299.28,-147.82C303.44,-143.81 308.85,-139.26 314.47,-136.35 373.02,-105.96 394.58,-116.79 458.47,-100.35 470.38,-97.28 483.53,-93.81 494.73,-90.83"/>
<polygon fill="red" stroke="red" stroke-width="0.22" points="495.29,-94.31 504.05,-88.35 493.49,-87.54 495.29,-94.31"/>
</g>
<!-- &#45;11&#45;&gt;52 -->
<g id="edge17" class="edge">
<title>&#45;11&#45;&gt;52</title>
<path fill="none" stroke="green" stroke-width="0.1" stroke-dasharray="1,5" d="M281.65,-147.67C277.58,-144.15 272.81,-140.04 268.47,-136.35 254.38,-124.38 238.41,-111.03 226.07,-100.76"/>
<polygon fill="green" stroke="green" stroke-width="0.1" points="228.6,-98.31 218.67,-94.61 224.12,-103.69 228.6,-98.31"/>
</g>
<!-- &#45;12 -->
<g id="node12" class="node">
<title>&#45;12</title>
<polygon fill="lightgray" stroke="black" points="709.47,-166.46 681.47,-166.46 681.47,-147.96 709.47,-147.96 709.47,-166.46"/>
<text text-anchor="middle" x="695.47" y="-153.91" font-family="Times,serif" font-size="9.00">&#45;12</text>
</g>
<!-- &#45;12&#45;&gt;51 -->
<g id="edge8" class="edge">
<title>&#45;12&#45;&gt;51</title>
<path fill="none" stroke="red" stroke-width="0.74" stroke-dasharray="1,5" d="M687.11,-147.63C682.98,-143.77 677.76,-139.41 672.47,-136.35 632.43,-113.21 580.57,-97.88 549.23,-90"/>
<polygon fill="red" stroke="red" stroke-width="0.74" points="550.29,-86.65 539.75,-87.69 548.64,-93.45 550.29,-86.65"/>
</g>
<!-- &#45;13 -->
<g id="node13" class="node">
<title>&#45;13</title>
<polygon fill="lightgray" stroke="black" points="405.47,-237.81 377.47,-237.81 377.47,-219.31 405.47,-219.31 405.47,-237.81"/>
<text text-anchor="middle" x="391.47" y="-225.26" font-family="Times,serif" font-size="9.00">&#45;13</text>
</g>
<!-- &#45;13&#45;&gt;288 -->
<g id="edge38" class="edge">
<title>&#45;13&#45;&gt;288</title>
<path fill="none" stroke="green" stroke-width="0.25" d="M385.7,-219.06C379.69,-210.18 369.97,-195.84 361.47,-183.3"/>
<polygon fill="green" stroke="green" stroke-width="0.25" points="364.57,-181.64 356.07,-175.33 358.78,-185.57 364.57,-181.64"/>
</g>
<!-- &#45;13&#45;&gt;49 -->
<g id="edge5" class="edge">
<title>&#45;13&#45;&gt;49</title>
<path fill="none" stroke="red" stroke-width="0.42" stroke-dasharray="1,5" d="M398,-218.98C404.84,-209.51 415.28,-193.55 420.47,-178.07 427.73,-156.35 430.35,-130.44 431.23,-111.27"/>
<polygon fill="red" stroke="red" stroke-width="0.42" points="434.72,-111.58 431.55,-101.47 427.72,-111.36 434.72,-111.58"/>
</g>
<!-- &#45;13&#45;&gt;51 -->
<g id="edge11" class="edge">
<title>&#45;13&#45;&gt;51</title>
<path fill="none" stroke="green" stroke-width="0.28" stroke-dasharray="1,5" d="M404.15,-218.87C407.39,-217.01 410.95,-215.25 414.47,-214.07 478.95,-192.39 673.28,-228.92 718.47,-178.07 769.77,-120.33 614.76,-94.71 549.23,-86.65"/>
<polygon fill="green" stroke="green" stroke-width="0.28" points="549.94,-83.21 539.6,-85.52 549.12,-90.16 549.94,-83.21"/>
</g>
<!-- &#45;13&#45;&gt;52 -->
<g id="edge29" class="edge">
<title>&#45;13&#45;&gt;52</title>
<path fill="none" stroke="red" stroke-width="0.53" stroke-dasharray="1,5" d="M377.12,-227.05C328.18,-224.96 169.19,-215.38 138.47,-178.07 126.68,-163.75 130.36,-153.02 138.47,-136.35 147.11,-118.55 165,-104.97 180.12,-96.06"/>
<polygon fill="red" stroke="red" stroke-width="0.53" points="181.76,-99.16 188.83,-91.27 178.38,-93.03 181.76,-99.16"/>
</g>
<!-- &#45;14 -->
<g id="node14" class="node">
<title>&#45;14</title>
<polygon fill="lightgray" stroke="black" points="535.47,-237.81 507.47,-237.81 507.47,-219.31 535.47,-219.31 535.47,-237.81"/>
<text text-anchor="middle" x="521.47" y="-225.26" font-family="Times,serif" font-size="9.00">&#45;14</text>
</g>
<!-- &#45;15 -->
<g id="node15" class="node">
<title>&#45;15</title>
<polygon fill="lightgray" stroke="black" points="411.47,-166.46 383.47,-166.46 383.47,-147.96 411.47,-147.96 411.47,-166.46"/>
<text text-anchor="middle" x="397.47" y="-153.91" font-family="Times,serif" font-size="9.00">&#45;15</text>
</g>
<!-- &#45;15&#45;&gt;49 -->
<g id="edge32" class="edge">
<title>&#45;15&#45;&gt;49</title>
<path fill="none" stroke="red" stroke-width="0.28" d="M401.5,-147.6C406,-138 413.49,-122.02 419.85,-108.45"/>
<polygon fill="red" stroke="red" stroke-width="0.28" points="422.97,-110.04 424.05,-99.5 416.63,-107.06 422.97,-110.04"/>
</g>
<!-- &#45;15&#45;&gt;51 -->
<g id="edge33" class="edge">
<title>&#45;15&#45;&gt;51</title>
<path fill="none" stroke="red" stroke-width="0.72" stroke-dasharray="1,5" d="M411.69,-147.89C432.47,-135.73 471.41,-112.95 496.89,-98.05"/>
<polygon fill="red" stroke="red" stroke-width="0.72" points="498.44,-101.19 505.3,-93.12 494.9,-95.15 498.44,-101.19"/>
</g>
<!-- &#45;15&#45;&gt;52 -->
<g id="edge30" class="edge">
<title>&#45;15&#45;&gt;52</title>
<path fill="none" stroke="green" stroke-width="0.79" d="M389.15,-147.55C385.04,-143.68 379.81,-139.32 374.47,-136.35 328.49,-110.8 268.45,-95.86 233.7,-88.77"/>
<polygon fill="green" stroke="green" stroke-width="0.79" points="234.6,-85.38 224.11,-86.89 233.25,-92.25 234.6,-85.38"/>
</g>
<!-- &#45;16 -->
<g id="node16" class="node">
<title>&#45;16</title>
<polygon fill="lightgray" stroke="black" points="581.47,-237.81 553.47,-237.81 553.47,-219.31 581.47,-219.31 581.47,-237.81"/>
<text text-anchor="middle" x="567.47" y="-225.26" font-family="Times,serif" font-size="9.00">&#45;16</text>
</g>
<!-- &#45;17 -->
<g id="node17" class="node">
<title>&#45;17</title>
<polygon fill="lightgray" stroke="black" points="621.47,-166.46 593.47,-166.46 593.47,-147.96 621.47,-147.96 621.47,-166.46"/>
<text text-anchor="middle" x="607.47" y="-153.91" font-family="Times,serif" font-size="9.00">&#45;17</text>
</g>
<!-- &#45;17&#45;&gt;49 -->
<g id="edge15" class="edge">
<title>&#45;17&#45;&gt;49</title>
<path fill="none" stroke="green" stroke-width="0.14" d="M599.11,-147.62C594.99,-143.76 589.77,-139.4 584.47,-136.35 562.5,-123.72 495.53,-102.73 457.88,-91.44"/>
<polygon fill="green" stroke="green" stroke-width="0.14" points="459.32,-88.21 448.74,-88.71 457.32,-94.92 459.32,-88.21"/>
</g>
<!-- &#45;17&#45;&gt;51 -->
<g id="edge25" class="edge">
<title>&#45;17&#45;&gt;51</title>
<path fill="none" stroke="red" stroke-width="0.44" d="M597.65,-147.67C593.58,-144.15 588.81,-140.04 584.47,-136.35 570.52,-124.5 554.72,-111.28 542.43,-101.06"/>
<polygon fill="red" stroke="red" stroke-width="0.44" points="544.98,-98.63 535.06,-94.93 540.51,-104.01 544.98,-98.63"/>
</g>
<!-- &#45;18 -->
<g id="node18" class="node">
<title>&#45;18</title>
<polygon fill="lightgray" stroke="black" points="45.47,-166.46 17.47,-166.46 17.47,-147.96 45.47,-147.96 45.47,-166.46"/>
<text text-anchor="middle" x="31.47" y="-153.91" font-family="Times,serif" font-size="9.00">&#45;18</text>
</g>
<!-- &#45;18&#45;&gt;52 -->
<g id="edge18" class="edge">
<title>&#45;18&#45;&gt;52</title>
<path fill="none" stroke="green" stroke-width="0.11" stroke-dasharray="1,5" d="M39.82,-147.63C43.95,-143.77 49.17,-139.41 54.47,-136.35 94.85,-113.01 147.27,-97.61 178.52,-89.79"/>
<polygon fill="green" stroke="green" stroke-width="0.11" points="179.21,-93.23 188.1,-87.47 177.56,-86.42 179.21,-93.23"/>
</g>
<!-- &#45;19 -->
<g id="node19" class="node">
<title>&#45;19</title>
<polygon fill="lightgray" stroke="black" points="217.47,-166.46 189.47,-166.46 189.47,-147.96 217.47,-147.96 217.47,-166.46"/>
<text text-anchor="middle" x="203.47" y="-153.91" font-family="Times,serif" font-size="9.00">&#45;19</text>
</g>
<!-- &#45;19&#45;&gt;49 -->
<g id="edge9" class="edge">
<title>&#45;19&#45;&gt;49</title>
<path fill="none" stroke="green" stroke-width="0.4" d="M211.29,-147.83C215.45,-143.83 220.86,-139.28 226.47,-136.35 285.08,-105.69 362.61,-92.1 403.48,-86.74"/>
<polygon fill="green" stroke="green" stroke-width="0.4" points="403.66,-90.24 413.15,-85.54 402.8,-83.29 403.66,-90.24"/>
</g>
<!-- &#45;19&#45;&gt;52 -->
<g id="edge13" class="edge">
<title>&#45;19&#45;&gt;52</title>
<path fill="none" stroke="green" stroke-width="0.26" d="M203.7,-147.6C203.95,-138.63 204.35,-124.1 204.71,-111.15"/>
<polygon fill="green" stroke="green" stroke-width="0.26" points="208.2,-111.3 204.98,-101.2 201.21,-111.1 208.2,-111.3"/>
</g>
<!-- &#45;20 -->
<g id="node20" class="node">
<title>&#45;20</title>
<polygon fill="lightgray" stroke="black" points="627.47,-237.81 599.47,-237.81 599.47,-219.31 627.47,-219.31 627.47,-237.81"/>
<text text-anchor="middle" x="613.47" y="-225.26" font-family="Times,serif" font-size="9.00">&#45;20</text>
</g>
<!-- 0 -->
<g id="node21" class="node">
<title>0</title>
<ellipse fill="lightblue" stroke="black" cx="659.47" cy="-228.56" rx="14.5" ry="14.5"/>
<text text-anchor="middle" x="659.47" y="-225.26" font-family="Times,serif" font-size="9.00">0</text>
</g>
<!-- 2 -->
<g id="node23" class="node">
<title>2</title>
<ellipse fill="lightblue" stroke="black" cx="424.47" cy="-14.5" rx="14.5" ry="14.5"/>
<text text-anchor="middle" x="424.47" y="-11.2" font-family="Times,serif" font-size="9.00">2</text>
</g>
<!-- 2&#45;&gt;2 -->
<g id="edge34" class="edge">
<title>2&#45;&gt;2</title>
<path fill="none" stroke="green" stroke-width="0.11" stroke-dasharray="1,5" d="M435.12,-24.65C445.52,-30.26 456.96,-26.88 456.96,-14.5 456.96,-5.98 451.56,-1.72 444.79,-1.71"/>
<polygon fill="green" stroke="green" stroke-width="0.11" points="444.02,1.7 435.28,-4.29 445.85,-5.05 444.02,1.7"/>
</g>
<!-- 3 -->
<g id="node24" class="node">
<title>3</title>
<ellipse fill="lightblue" stroke="black" cx="489.47" cy="-14.5" rx="14.5" ry="14.5"/>
<text text-anchor="middle" x="489.47" y="-11.2" font-family="Times,serif" font-size="9.00">3</text>
</g>
<!-- 4 -->
<g id="node25" class="node">
<title>4</title>
<ellipse fill="lightblue" stroke="black" cx="536.47" cy="-14.5" rx="14.5" ry="14.5"/>
<text text-anchor="middle" x="536.47" y="-11.2" font-family="Times,serif" font-size="9.00">4</text>
</g>
<!-- 4&#45;&gt;4 -->
<g id="edge35" class="edge">
<title>4&#45;&gt;4</title>
<path fill="none" stroke="green" stroke-width="0.35" d="M547.12,-24.65C557.52,-30.26 568.96,-26.88 568.96,-14.5 568.96,-6.18 563.8,-1.92 557.25,-1.72"/>
<polygon fill="green" stroke="green" stroke-width="0.35" points="556.44,1.68 547.63,-4.2 558.19,-5.09 556.44,1.68"/>
</g>
<!-- 288&#45;&gt;49 -->
<g id="edge39" class="edge">
<title>288&#45;&gt;49</title>
<path fill="none" stroke="green" stroke-width="0.16" d="M360.02,-143.24C374.09,-131.51 394.92,-114.14 410.46,-101.18"/>
<polygon fill="green" stroke="green" stroke-width="0.16" points="412.42,-104.11 417.86,-95.01 407.94,-98.73 412.42,-104.11"/>
</g>
<!-- 49&#45;&gt;1 -->
<g id="edge6" class="edge">
<title>49&#45;&gt;1</title>
<path fill="none" stroke="green" stroke-width="0.33" d="M414.48,-76.7C374.66,-65.04 275.2,-35.92 229.33,-22.48"/>
<polygon fill="green" stroke="green" stroke-width="0.33" points="230.46,-19.17 219.88,-19.72 228.49,-25.88 230.46,-19.17"/>
</g>
<!-- 49&#45;&gt;2 -->
<g id="edge22" class="edge">
<title>49&#45;&gt;2</title>
<path fill="none" stroke="red" stroke-width="0.35" d="M429.66,-64.63C428.85,-56.96 427.88,-47.77 427,-39.43"/>
<polygon fill="red" stroke="red" stroke-width="0.35" points="430.5,-39.25 425.96,-29.67 423.54,-39.99 430.5,-39.25"/>
</g>
<!-- 49&#45;&gt;3 -->
<g id="edge14" class="edge">
<title>49&#45;&gt;3</title>
<path fill="none" stroke="red" stroke-width="0.34" d="M442.92,-68.6C451.66,-58.63 463.79,-44.79 473.48,-33.73"/>
<polygon fill="red" stroke="red" stroke-width="0.34" points="476.02,-36.14 479.98,-26.32 470.76,-31.53 476.02,-36.14"/>
</g>
<!-- 49&#45;&gt;4 -->
<g id="edge20" class="edge">
<title>49&#45;&gt;4</title>
<path fill="none" stroke="red" stroke-width="0.3" d="M446.06,-72.47C464.15,-61.07 495.07,-41.59 515.63,-28.62"/>
<polygon fill="red" stroke="red" stroke-width="0.3" points="517.29,-31.72 523.89,-23.42 513.56,-25.79 517.29,-31.72"/>
</g>
<!-- 51&#45;&gt;2 -->
<g id="edge7" class="edge">
<title>51&#45;&gt;2</title>
<path fill="none" stroke="red" stroke-width="0.23" stroke-dasharray="1,5" d="M507.15,-71.9C490.58,-60.6 463.16,-41.89 444.48,-29.15"/>
<polygon fill="red" stroke="red" stroke-width="0.23" points="446.61,-26.37 436.38,-23.63 442.67,-32.15 446.61,-26.37"/>
</g>
<!-- 51&#45;&gt;3 -->
<g id="edge23" class="edge">
<title>51&#45;&gt;3</title>
<path fill="none" stroke="green" stroke-width="0.43" d="M514.04,-66.32C509.92,-57.8 504.72,-47.04 500.17,-37.63"/>
<polygon fill="green" stroke="green" stroke-width="0.43" points="503.35,-36.17 495.84,-28.69 497.05,-39.21 503.35,-36.17"/>
</g>
<!-- 51&#45;&gt;4 -->
<g id="edge16" class="edge">
<title>51&#45;&gt;4</title>
<path fill="none" stroke="red" stroke-width="0.27" d="M525.25,-64.97C527.05,-57.02 529.24,-47.39 531.2,-38.74"/>
<polygon fill="red" stroke="red" stroke-width="0.27" points="534.55,-39.79 533.35,-29.26 527.72,-38.24 534.55,-39.79"/>
</g>
<!-- 52&#45;&gt;1 -->
<g id="edge12" class="edge">
<title>52&#45;&gt;1</title>
<path fill="none" stroke="red" stroke-width="0.13" stroke-dasharray="1,5" d="M205.47,-64.63C205.47,-56.87 205.47,-47.57 205.47,-39.15"/>
<polygon fill="red" stroke="red" stroke-width="0.13" points="208.97,-39.34 205.47,-29.34 201.97,-39.34 208.97,-39.34"/>
</g>
</g>
</svg>
