<?xml version="1.0" encoding="UTF-8" standalone="no"?>
<!DOCTYPE svg PUBLIC "-//W3C//DTD SVG 1.1//EN"
 "http://www.w3.org/Graphics/SVG/1.1/DTD/svg11.dtd">
<!-- Generated by graphviz version 12.1.1 (20240910.0053)
 -->
<!-- Pages: 1 -->
<svg width="1034pt" height="247pt"
 viewBox="0.00 0.00 1033.58 246.93" xmlns="http://www.w3.org/2000/svg" xmlns:xlink="http://www.w3.org/1999/xlink">
<g id="graph0" class="graph" transform="scale(1 1) rotate(0) translate(4 242.93)">
<polygon fill="white" stroke="none" points="-4,4 -4,-242.93 1029.58,-242.93 1029.58,4 -4,4"/>
<!-- &#45;1 -->
<g id="node1" class="node">
<title>&#45;1</title>
<polygon fill="lightgray" stroke="black" points="166.33,-238.93 142.83,-238.93 142.83,-220.43 166.33,-220.43 166.33,-238.93"/>
<text text-anchor="middle" x="154.58" y="-226.38" font-family="Times,serif" font-size="9.00">&#45;1</text>
</g>
<!-- &#45;2 -->
<g id="node2" class="node">
<title>&#45;2</title>
<polygon fill="lightgray" stroke="black" points="101.33,-172.82 77.83,-172.82 77.83,-154.32 101.33,-154.32 101.33,-172.82"/>
<text text-anchor="middle" x="89.58" y="-160.27" font-family="Times,serif" font-size="9.00">&#45;2</text>
</g>
<!-- 186 -->
<g id="node29" class="node">
<title>186</title>
<ellipse fill="white" stroke="black" cx="202.58" cy="-85.85" rx="20.86" ry="20.86"/>
<text text-anchor="middle" x="202.58" y="-82.55" font-family="Times,serif" font-size="9.00">186</text>
</g>
<!-- &#45;2&#45;&gt;186 -->
<g id="edge39" class="edge">
<title>&#45;2&#45;&gt;186</title>
<path fill="none" stroke="green" stroke-width="0.98" d="M97.8,-154.02C101.53,-150.35 106.11,-146.12 110.58,-142.71 130.79,-127.29 155.51,-112.49 174.23,-101.99"/>
<polygon fill="green" stroke="green" stroke-width="0.98" points="175.85,-105.1 182.91,-97.21 172.47,-98.97 175.85,-105.1"/>
</g>
<!-- &#45;3 -->
<g id="node3" class="node">
<title>&#45;3</title>
<polygon fill="lightgray" stroke="black" points="281.33,-172.82 257.83,-172.82 257.83,-154.32 281.33,-154.32 281.33,-172.82"/>
<text text-anchor="middle" x="269.58" y="-160.27" font-family="Times,serif" font-size="9.00">&#45;3</text>
</g>
<!-- 187 -->
<g id="node30" class="node">
<title>187</title>
<ellipse fill="white" stroke="black" cx="376.58" cy="-85.85" rx="20.86" ry="20.86"/>
<text text-anchor="middle" x="376.58" y="-82.55" font-family="Times,serif" font-size="9.00">187</text>
</g>
<!-- &#45;3&#45;&gt;187 -->
<g id="edge22" class="edge">
<title>&#45;3&#45;&gt;187</title>
<path fill="none" stroke="red" stroke-width="0.43" stroke-dasharray="1,5" d="M277.85,-154.09C281.59,-150.42 286.16,-146.19 290.58,-142.71 309.47,-127.85 332.35,-113.13 349.76,-102.53"/>
<polygon fill="red" stroke="red" stroke-width="0.43" points="351.49,-105.58 358.26,-97.43 347.88,-99.58 351.49,-105.58"/>
</g>
<!-- &#45;4 -->
<g id="node4" class="node">
<title>&#45;4</title>
<polygon fill="lightgray" stroke="black" points="617.33,-172.82 593.83,-172.82 593.83,-154.32 617.33,-154.32 617.33,-172.82"/>
<text text-anchor="middle" x="605.58" y="-160.27" font-family="Times,serif" font-size="9.00">&#45;4</text>
</g>
<!-- 185 -->
<g id="node28" class="node">
<title>185</title>
<ellipse fill="white" stroke="black" cx="698.58" cy="-85.85" rx="20.86" ry="20.86"/>
<text text-anchor="middle" x="698.58" y="-82.55" font-family="Times,serif" font-size="9.00">185</text>
</g>
<!-- &#45;4&#45;&gt;185 -->
<g id="edge29" class="edge">
<title>&#45;4&#45;&gt;185</title>
<path fill="none" stroke="green" stroke-width="0.63" stroke-dasharray="1,5" d="M614.4,-153.87C618.09,-150.32 622.47,-146.24 626.58,-142.71 641.66,-129.79 659.26,-116.11 673.28,-105.52"/>
<polygon fill="green" stroke="green" stroke-width="0.63" points="675.25,-108.42 681.15,-99.62 671.05,-102.82 675.25,-108.42"/>
</g>
<!-- &#45;4&#45;&gt;187 -->
<g id="edge27" class="edge">
<title>&#45;4&#45;&gt;187</title>
<path fill="none" stroke="green" stroke-width="0.97" d="M596.05,-153.87C591.38,-149.99 585.48,-145.64 579.58,-142.71 522.8,-114.55 449.82,-98.91 408.62,-91.75"/>
<polygon fill="green" stroke="green" stroke-width="0.97" points="409.28,-88.31 398.84,-90.11 408.12,-95.22 409.28,-88.31"/>
</g>
<!-- &#45;5 -->
<g id="node5" class="node">
<title>&#45;5</title>
<polygon fill="lightgray" stroke="black" points="208.33,-238.93 184.83,-238.93 184.83,-220.43 208.33,-220.43 208.33,-238.93"/>
<text text-anchor="middle" x="196.58" y="-226.38" font-family="Times,serif" font-size="9.00">&#45;5</text>
</g>
<!-- 345 -->
<g id="node26" class="node">
<title>345</title>
<ellipse fill="white" stroke="black" cx="38.58" cy="-163.57" rx="20.86" ry="20.86"/>
<text text-anchor="middle" x="38.58" y="-160.27" font-family="Times,serif" font-size="9.00">345</text>
</g>
<!-- &#45;5&#45;&gt;345 -->
<g id="edge41" class="edge">
<title>&#45;5&#45;&gt;345</title>
<path fill="none" stroke="green" stroke-width="0.45" d="M184.63,-223.86C181.68,-222.71 178.52,-221.5 175.58,-220.43 128.44,-203.25 113.66,-206.46 68.58,-184.43 67.18,-183.74 65.76,-183 64.35,-182.22"/>
<polygon fill="green" stroke="green" stroke-width="0.45" points="66.2,-179.25 55.84,-177.06 62.57,-185.24 66.2,-179.25"/>
</g>
<!-- &#45;5&#45;&gt;186 -->
<g id="edge6" class="edge">
<title>&#45;5&#45;&gt;186</title>
<path fill="none" stroke="green" stroke-width="0.18" d="M184.7,-223.63C181.76,-222.48 178.58,-221.34 175.58,-220.43 102.9,-198.48 56.28,-243.51 8.58,-184.43 -3.07,-170 -2.57,-157.53 8.58,-142.71 28.26,-116.57 122.44,-98.84 171.97,-91.17"/>
<polygon fill="green" stroke="green" stroke-width="0.18" points="172.19,-94.67 181.55,-89.72 171.14,-87.75 172.19,-94.67"/>
</g>
<!-- &#45;5&#45;&gt;187 -->
<g id="edge44" class="edge">
<title>&#45;5&#45;&gt;187</title>
<path fill="none" stroke="green" stroke-width="0.16" d="M208.76,-228.18C235.36,-226.47 299.26,-218.78 336.58,-184.43 355.8,-166.74 366.02,-138.47 371.3,-116.9"/>
<polygon fill="green" stroke="green" stroke-width="0.16" points="374.71,-117.69 373.46,-107.16 367.88,-116.17 374.71,-117.69"/>
</g>
<!-- 188 -->
<g id="node31" class="node">
<title>188</title>
<ellipse fill="white" stroke="black" cx="855.58" cy="-85.85" rx="20.86" ry="20.86"/>
<text text-anchor="middle" x="855.58" y="-82.55" font-family="Times,serif" font-size="9.00">188</text>
</g>
<!-- &#45;5&#45;&gt;188 -->
<g id="edge23" class="edge">
<title>&#45;5&#45;&gt;188</title>
<path fill="none" stroke="red" stroke-width="0.23" d="M208.83,-228.84C295.36,-229.84 812.45,-233.75 858.58,-184.43 875.47,-166.37 872.14,-137.2 866.14,-115.45"/>
<polygon fill="red" stroke="red" stroke-width="0.23" points="869.55,-114.62 863.27,-106.08 862.85,-116.67 869.55,-114.62"/>
</g>
<!-- &#45;6 -->
<g id="node6" class="node">
<title>&#45;6</title>
<polygon fill="lightgray" stroke="black" points="537.33,-172.82 513.83,-172.82 513.83,-154.32 537.33,-154.32 537.33,-172.82"/>
<text text-anchor="middle" x="525.58" y="-160.27" font-family="Times,serif" font-size="9.00">&#45;6</text>
</g>
<!-- &#45;6&#45;&gt;185 -->
<g id="edge21" class="edge">
<title>&#45;6&#45;&gt;185</title>
<path fill="none" stroke="green" stroke-width="0.22" stroke-dasharray="1,5" d="M537.75,-157.25C565.11,-145.27 632.13,-115.94 670.46,-99.16"/>
<polygon fill="green" stroke="green" stroke-width="0.22" points="671.48,-102.53 679.24,-95.32 668.67,-96.12 671.48,-102.53"/>
</g>
<!-- &#45;6&#45;&gt;186 -->
<g id="edge19" class="edge">
<title>&#45;6&#45;&gt;186</title>
<path fill="none" stroke="green" stroke-width="0.44" stroke-dasharray="1,5" d="M518.64,-154.02C514.9,-149.97 509.95,-145.44 504.58,-142.71 480.5,-130.48 305.39,-102.62 233.38,-91.53"/>
<polygon fill="green" stroke="green" stroke-width="0.44" points="234.22,-88.12 223.8,-90.06 233.16,-95.04 234.22,-88.12"/>
</g>
<!-- &#45;7 -->
<g id="node7" class="node">
<title>&#45;7</title>
<polygon fill="lightgray" stroke="black" points="453.33,-172.82 429.83,-172.82 429.83,-154.32 453.33,-154.32 453.33,-172.82"/>
<text text-anchor="middle" x="441.58" y="-160.27" font-family="Times,serif" font-size="9.00">&#45;7</text>
</g>
<!-- &#45;7&#45;&gt;187 -->
<g id="edge7" class="edge">
<title>&#45;7&#45;&gt;187</title>
<path fill="none" stroke="green" stroke-width="0.92" stroke-dasharray="1,5" d="M434.12,-153.88C425.18,-143.46 409.8,-125.55 397.2,-110.87"/>
<polygon fill="green" stroke="green" stroke-width="0.92" points="399.87,-108.6 390.7,-103.29 394.55,-113.16 399.87,-108.6"/>
</g>
<!-- &#45;8 -->
<g id="node8" class="node">
<title>&#45;8</title>
<polygon fill="lightgray" stroke="black" points="495.33,-172.82 471.83,-172.82 471.83,-154.32 495.33,-154.32 495.33,-172.82"/>
<text text-anchor="middle" x="483.58" y="-160.27" font-family="Times,serif" font-size="9.00">&#45;8</text>
</g>
<!-- &#45;8&#45;&gt;187 -->
<g id="edge16" class="edge">
<title>&#45;8&#45;&gt;187</title>
<path fill="none" stroke="red" stroke-width="0.44" stroke-dasharray="1,5" d="M475.31,-154.09C471.57,-150.42 467,-146.19 462.58,-142.71 443.69,-127.85 420.81,-113.13 403.4,-102.53"/>
<polygon fill="red" stroke="red" stroke-width="0.44" points="405.29,-99.59 394.92,-97.44 401.69,-105.59 405.29,-99.59"/>
</g>
<!-- &#45;9 -->
<g id="node9" class="node">
<title>&#45;9</title>
<polygon fill="lightgray" stroke="black" points="659.33,-172.82 635.83,-172.82 635.83,-154.32 659.33,-154.32 659.33,-172.82"/>
<text text-anchor="middle" x="647.58" y="-160.27" font-family="Times,serif" font-size="9.00">&#45;9</text>
</g>
<!-- &#45;9&#45;&gt;185 -->
<g id="edge1" class="edge">
<title>&#45;9&#45;&gt;185</title>
<path fill="none" stroke="red" stroke-width="0.15" d="M653.43,-153.88C660.3,-143.69 671.99,-126.33 681.76,-111.83"/>
<polygon fill="red" stroke="red" stroke-width="0.15" points="684.42,-114.14 687.1,-103.89 678.61,-110.23 684.42,-114.14"/>
</g>
<!-- &#45;10 -->
<g id="node10" class="node">
<title>&#45;10</title>
<polygon fill="lightgray" stroke="black" points="327.58,-172.82 299.58,-172.82 299.58,-154.32 327.58,-154.32 327.58,-172.82"/>
<text text-anchor="middle" x="313.58" y="-160.27" font-family="Times,serif" font-size="9.00">&#45;10</text>
</g>
<!-- &#45;10&#45;&gt;185 -->
<g id="edge13" class="edge">
<title>&#45;10&#45;&gt;185</title>
<path fill="none" stroke="green" stroke-width="0.14" stroke-dasharray="1,5" d="M327.95,-157.24C340.21,-152.85 358.36,-146.73 374.58,-142.71 480.99,-116.36 610.08,-98.11 667.94,-90.63"/>
<polygon fill="green" stroke="green" stroke-width="0.14" points="668.21,-94.13 677.68,-89.39 667.32,-87.19 668.21,-94.13"/>
</g>
<!-- &#45;10&#45;&gt;186 -->
<g id="edge11" class="edge">
<title>&#45;10&#45;&gt;186</title>
<path fill="none" stroke="green" stroke-width="0.32" d="M304.44,-154.13C300.32,-150.48 295.32,-146.23 290.58,-142.71 270.79,-128.01 247.14,-113.13 229.34,-102.43"/>
<polygon fill="green" stroke="green" stroke-width="0.32" points="231.42,-99.6 221.03,-97.49 227.84,-105.61 231.42,-99.6"/>
</g>
<!-- &#45;10&#45;&gt;187 -->
<g id="edge5" class="edge">
<title>&#45;10&#45;&gt;187</title>
<path fill="none" stroke="green" stroke-width="0.25" stroke-dasharray="1,5" d="M320.81,-153.88C329.59,-143.33 344.75,-125.1 357.06,-110.32"/>
<polygon fill="green" stroke="green" stroke-width="0.25" points="359.59,-112.74 363.3,-102.81 354.21,-108.26 359.59,-112.74"/>
</g>
<!-- &#45;11 -->
<g id="node11" class="node">
<title>&#45;11</title>
<polygon fill="lightgray" stroke="black" points="411.58,-172.82 383.58,-172.82 383.58,-154.32 411.58,-154.32 411.58,-172.82"/>
<text text-anchor="middle" x="397.58" y="-160.27" font-family="Times,serif" font-size="9.00">&#45;11</text>
</g>
<!-- &#45;11&#45;&gt;185 -->
<g id="edge20" class="edge">
<title>&#45;11&#45;&gt;185</title>
<path fill="none" stroke="red" stroke-width="0.27" d="M405.34,-154.07C409.49,-150.03 414.89,-145.49 420.58,-142.71 503.52,-102.11 614.17,-91.02 667.39,-87.99"/>
<polygon fill="red" stroke="red" stroke-width="0.27" points="667.33,-91.5 677.14,-87.49 666.98,-84.5 667.33,-91.5"/>
</g>
<!-- &#45;11&#45;&gt;186 -->
<g id="edge38" class="edge">
<title>&#45;11&#45;&gt;186</title>
<path fill="none" stroke="red" stroke-width="0.14" d="M383.24,-157C351.32,-144.61 273.89,-114.54 231.5,-98.08"/>
<polygon fill="red" stroke="red" stroke-width="0.14" points="232.81,-94.83 222.22,-94.48 230.27,-101.36 232.81,-94.83"/>
</g>
<!-- &#45;11&#45;&gt;187 -->
<g id="edge2" class="edge">
<title>&#45;11&#45;&gt;187</title>
<path fill="none" stroke="green" stroke-width="0.2" d="M395.17,-153.88C392.63,-144.72 388.48,-129.77 384.75,-116.32"/>
<polygon fill="green" stroke="green" stroke-width="0.2" points="388.14,-115.43 382.09,-106.73 381.39,-117.3 388.14,-115.43"/>
</g>
<!-- &#45;12 -->
<g id="node12" class="node">
<title>&#45;12</title>
<polygon fill="lightgray" stroke="black" points="849.58,-172.82 821.58,-172.82 821.58,-154.32 849.58,-154.32 849.58,-172.82"/>
<text text-anchor="middle" x="835.58" y="-160.27" font-family="Times,serif" font-size="9.00">&#45;12</text>
</g>
<!-- &#45;12&#45;&gt;185 -->
<g id="edge43" class="edge">
<title>&#45;12&#45;&gt;185</title>
<path fill="none" stroke="red" stroke-width="0.37" d="M826.61,-153.88C822.53,-150.18 817.51,-145.97 812.58,-142.71 785.23,-124.64 751.17,-108.71 727.44,-98.53"/>
<polygon fill="red" stroke="red" stroke-width="0.37" points="729.04,-95.41 718.46,-94.75 726.32,-101.86 729.04,-95.41"/>
</g>
<!-- &#45;12&#45;&gt;188 -->
<g id="edge18" class="edge">
<title>&#45;12&#45;&gt;188</title>
<path fill="none" stroke="red" stroke-width="0.39" stroke-dasharray="1,5" d="M837.87,-153.88C840.3,-144.72 844.24,-129.77 847.8,-116.32"/>
<polygon fill="red" stroke="red" stroke-width="0.39" points="851.08,-117.58 850.25,-107.01 844.32,-115.79 851.08,-117.58"/>
</g>
<!-- &#45;13 -->
<g id="node13" class="node">
<title>&#45;13</title>
<polygon fill="lightgray" stroke="black" points="933.58,-172.82 905.58,-172.82 905.58,-154.32 933.58,-154.32 933.58,-172.82"/>
<text text-anchor="middle" x="919.58" y="-160.27" font-family="Times,serif" font-size="9.00">&#45;13</text>
</g>
<!-- &#45;13&#45;&gt;188 -->
<g id="edge12" class="edge">
<title>&#45;13&#45;&gt;188</title>
<path fill="none" stroke="green" stroke-width="0.59" d="M912.24,-153.88C903.4,-143.43 888.2,-125.44 875.76,-110.73"/>
<polygon fill="green" stroke="green" stroke-width="0.59" points="878.53,-108.59 869.41,-103.21 873.19,-113.11 878.53,-108.59"/>
</g>
<!-- &#45;14 -->
<g id="node14" class="node">
<title>&#45;14</title>
<polygon fill="lightgray" stroke="black" points="712.58,-238.93 684.58,-238.93 684.58,-220.43 712.58,-220.43 712.58,-238.93"/>
<text text-anchor="middle" x="698.58" y="-226.38" font-family="Times,serif" font-size="9.00">&#45;14</text>
</g>
<!-- 750 -->
<g id="node27" class="node">
<title>750</title>
<ellipse fill="white" stroke="black" cx="698.58" cy="-163.57" rx="20.86" ry="20.86"/>
<text text-anchor="middle" x="698.58" y="-160.27" font-family="Times,serif" font-size="9.00">750</text>
</g>
<!-- &#45;14&#45;&gt;750 -->
<g id="edge45" class="edge">
<title>&#45;14&#45;&gt;750</title>
<path fill="none" stroke="green" stroke-width="0.46" d="M698.58,-220.03C698.58,-213.6 698.58,-204.39 698.58,-195.33"/>
<polygon fill="green" stroke="green" stroke-width="0.46" points="702.08,-195.61 698.58,-185.61 695.08,-195.61 702.08,-195.61"/>
</g>
<!-- &#45;14&#45;&gt;185 -->
<g id="edge26" class="edge">
<title>&#45;14&#45;&gt;185</title>
<path fill="none" stroke="red" stroke-width="0.29" stroke-dasharray="1,5" d="M706.79,-220.03C714.12,-211.68 724.33,-198.27 728.58,-184.43 734.02,-166.7 733.1,-160.69 728.58,-142.71 725.95,-132.25 720.94,-121.62 715.76,-112.47"/>
<polygon fill="red" stroke="red" stroke-width="0.29" points="718.76,-110.68 710.61,-103.92 712.77,-114.3 718.76,-110.68"/>
</g>
<!-- &#45;14&#45;&gt;187 -->
<g id="edge28" class="edge">
<title>&#45;14&#45;&gt;187</title>
<path fill="none" stroke="red" stroke-width="0.11" stroke-dasharray="1,5" d="M684.25,-225.39C661.59,-219.72 616.8,-206.52 584.58,-184.43 563.9,-170.24 567.63,-156.35 546.58,-142.71 502.68,-114.27 442.98,-99.08 407.26,-92.01"/>
<polygon fill="red" stroke="red" stroke-width="0.11" points="408.07,-88.6 397.59,-90.18 406.77,-95.48 408.07,-88.6"/>
</g>
<!-- &#45;15 -->
<g id="node15" class="node">
<title>&#45;15</title>
<polygon fill="lightgray" stroke="black" points="239.58,-172.82 211.58,-172.82 211.58,-154.32 239.58,-154.32 239.58,-172.82"/>
<text text-anchor="middle" x="225.58" y="-160.27" font-family="Times,serif" font-size="9.00">&#45;15</text>
</g>
<!-- &#45;15&#45;&gt;186 -->
<g id="edge17" class="edge">
<title>&#45;15&#45;&gt;186</title>
<path fill="none" stroke="green" stroke-width="0.45" d="M222.94,-153.88C220.14,-144.66 215.56,-129.57 211.45,-116.04"/>
<polygon fill="green" stroke="green" stroke-width="0.45" points="214.89,-115.33 208.63,-106.78 208.19,-117.37 214.89,-115.33"/>
</g>
<!-- &#45;15&#45;&gt;187 -->
<g id="edge35" class="edge">
<title>&#45;15&#45;&gt;187</title>
<path fill="none" stroke="red" stroke-width="0.59" stroke-dasharray="1,5" d="M234.05,-154.17C238.19,-150.35 243.4,-145.97 248.58,-142.71 280.28,-122.75 320.34,-106.54 347.12,-96.82"/>
<polygon fill="red" stroke="red" stroke-width="0.59" points="347.94,-100.24 356.19,-93.6 345.6,-93.65 347.94,-100.24"/>
</g>
<!-- &#45;16 -->
<g id="node16" class="node">
<title>&#45;16</title>
<polygon fill="lightgray" stroke="black" points="979.58,-172.82 951.58,-172.82 951.58,-154.32 979.58,-154.32 979.58,-172.82"/>
<text text-anchor="middle" x="965.58" y="-160.27" font-family="Times,serif" font-size="9.00">&#45;16</text>
</g>
<!-- &#45;16&#45;&gt;188 -->
<g id="edge24" class="edge">
<title>&#45;16&#45;&gt;188</title>
<path fill="none" stroke="red" stroke-width="0.33" stroke-dasharray="1,5" d="M956.43,-154.14C952.31,-150.49 947.31,-146.25 942.58,-142.71 922.99,-128.08 899.61,-113.2 882.02,-102.48"/>
<polygon fill="red" stroke="red" stroke-width="0.33" points="884.2,-99.7 873.83,-97.53 880.58,-105.7 884.2,-99.7"/>
</g>
<!-- &#45;17 -->
<g id="node17" class="node">
<title>&#45;17</title>
<polygon fill="lightgray" stroke="black" points="1025.58,-172.82 997.58,-172.82 997.58,-154.32 1025.58,-154.32 1025.58,-172.82"/>
<text text-anchor="middle" x="1011.58" y="-160.27" font-family="Times,serif" font-size="9.00">&#45;17</text>
</g>
<!-- &#45;17&#45;&gt;188 -->
<g id="edge40" class="edge">
<title>&#45;17&#45;&gt;188</title>
<path fill="none" stroke="red" stroke-width="0.18" stroke-dasharray="1,5" d="M1003.13,-154.14C998.99,-150.32 993.78,-145.94 988.58,-142.71 955.22,-122.03 912.85,-105.73 885.01,-96.2"/>
<polygon fill="red" stroke="red" stroke-width="0.18" points="886.31,-92.95 875.72,-93.09 884.09,-99.59 886.31,-92.95"/>
</g>
<!-- &#45;18 -->
<g id="node18" class="node">
<title>&#45;18</title>
<polygon fill="lightgray" stroke="black" points="803.58,-172.82 775.58,-172.82 775.58,-154.32 803.58,-154.32 803.58,-172.82"/>
<text text-anchor="middle" x="789.58" y="-160.27" font-family="Times,serif" font-size="9.00">&#45;18</text>
</g>
<!-- &#45;18&#45;&gt;185 -->
<g id="edge30" class="edge">
<title>&#45;18&#45;&gt;185</title>
<path fill="none" stroke="red" stroke-width="0.44" stroke-dasharray="1,5" d="M779.14,-153.88C765.38,-142.43 740.75,-121.94 722.34,-106.62"/>
<polygon fill="red" stroke="red" stroke-width="0.44" points="724.8,-104.12 714.88,-100.41 720.33,-109.5 724.8,-104.12"/>
</g>
<!-- &#45;18&#45;&gt;188 -->
<g id="edge4" class="edge">
<title>&#45;18&#45;&gt;188</title>
<path fill="none" stroke="green" stroke-width="0.41" stroke-dasharray="1,5" d="M797.15,-153.88C806.41,-143.26 822.44,-124.88 835.37,-110.04"/>
<polygon fill="green" stroke="green" stroke-width="0.41" points="837.83,-112.54 841.77,-102.7 832.56,-107.94 837.83,-112.54"/>
</g>
<!-- &#45;19 -->
<g id="node19" class="node">
<title>&#45;19</title>
<polygon fill="lightgray" stroke="black" points="147.58,-172.82 119.58,-172.82 119.58,-154.32 147.58,-154.32 147.58,-172.82"/>
<text text-anchor="middle" x="133.58" y="-160.27" font-family="Times,serif" font-size="9.00">&#45;19</text>
</g>
<!-- &#45;19&#45;&gt;186 -->
<g id="edge9" class="edge">
<title>&#45;19&#45;&gt;186</title>
<path fill="none" stroke="green" stroke-width="0.16" d="M141.5,-153.88C151.32,-143.1 168.45,-124.3 182.07,-109.35"/>
<polygon fill="green" stroke="green" stroke-width="0.16" points="184.51,-111.87 188.66,-102.12 179.34,-107.16 184.51,-111.87"/>
</g>
<!-- &#45;20 -->
<g id="node20" class="node">
<title>&#45;20</title>
<polygon fill="lightgray" stroke="black" points="193.58,-172.82 165.58,-172.82 165.58,-154.32 193.58,-154.32 193.58,-172.82"/>
<text text-anchor="middle" x="179.58" y="-160.27" font-family="Times,serif" font-size="9.00">&#45;20</text>
</g>
<!-- &#45;20&#45;&gt;186 -->
<g id="edge10" class="edge">
<title>&#45;20&#45;&gt;186</title>
<path fill="none" stroke="red" stroke-width="0.56" d="M182.22,-153.88C184.99,-144.75 189.51,-129.87 193.59,-116.44"/>
<polygon fill="red" stroke="red" stroke-width="0.56" points="196.92,-117.52 196.48,-106.94 190.22,-115.49 196.92,-117.52"/>
</g>
<!-- 0 -->
<g id="node21" class="node">
<title>0</title>
<ellipse fill="lightblue" stroke="black" cx="743.58" cy="-14.5" rx="14.5" ry="14.5"/>
<text text-anchor="middle" x="743.58" y="-11.2" font-family="Times,serif" font-size="9.00">0</text>
</g>
<!-- 0&#45;&gt;0 -->
<g id="edge33" class="edge">
<title>0&#45;&gt;0</title>
<path fill="none" stroke="green" stroke-width="0.41" d="M753.9,-24.94C764.39,-31.08 776.08,-27.6 776.08,-14.5 776.08,-5.49 770.55,-1.03 763.69,-1.12"/>
<polygon fill="green" stroke="green" stroke-width="0.41" points="763.06,2.35 754.49,-3.88 765.07,-4.36 763.06,2.35"/>
</g>
<!-- 1 -->
<g id="node22" class="node">
<title>1</title>
<ellipse fill="lightblue" stroke="black" cx="311.58" cy="-14.5" rx="14.5" ry="14.5"/>
<text text-anchor="middle" x="311.58" y="-11.2" font-family="Times,serif" font-size="9.00">1</text>
</g>
<!-- 2 -->
<g id="node23" class="node">
<title>2</title>
<ellipse fill="lightblue" stroke="black" cx="808.58" cy="-14.5" rx="14.5" ry="14.5"/>
<text text-anchor="middle" x="808.58" y="-11.2" font-family="Times,serif" font-size="9.00">2</text>
</g>
<!-- 3 -->
<g id="node24" class="node">
<title>3</title>
<ellipse fill="lightblue" stroke="black" cx="855.58" cy="-14.5" rx="14.5" ry="14.5"/>
<text text-anchor="middle" x="855.58" y="-11.2" font-family="Times,serif" font-size="9.00">3</text>
</g>
<!-- 4 -->
<g id="node25" class="node">
<title>4</title>
<ellipse fill="lightblue" stroke="black" cx="678.58" cy="-14.5" rx="14.5" ry="14.5"/>
<text text-anchor="middle" x="678.58" y="-11.2" font-family="Times,serif" font-size="9.00">4</text>
</g>
<!-- 4&#45;&gt;4 -->
<g id="edge31" class="edge">
<title>4&#45;&gt;4</title>
<path fill="none" stroke="green" stroke-width="0.46" d="M688.9,-24.94C699.39,-31.08 711.08,-27.6 711.08,-14.5 711.08,-5.69 705.8,-1.23 699.16,-1.12"/>
<polygon fill="green" stroke="green" stroke-width="0.46" points="698.21,2.25 689.56,-3.87 700.14,-4.48 698.21,2.25"/>
</g>
<!-- 345&#45;&gt;186 -->
<g id="edge42" class="edge">
<title>345&#45;&gt;186</title>
<path fill="none" stroke="green" stroke-width="0.66" d="M55.37,-150.65C59.59,-147.88 64.17,-145.06 68.58,-142.71 103.14,-124.29 145.11,-107.65 172.76,-97.42"/>
<polygon fill="green" stroke="green" stroke-width="0.66" points="173.84,-100.75 182.03,-94.03 171.44,-94.17 173.84,-100.75"/>
</g>
<!-- 750&#45;&gt;185 -->
<g id="edge46" class="edge">
<title>750&#45;&gt;185</title>
<path fill="none" stroke="red" stroke-width="0.27" d="M698.58,-142.28C698.58,-134.64 698.58,-125.78 698.58,-117.41"/>
<polygon fill="red" stroke="red" stroke-width="0.27" points="702.08,-117.6 698.58,-107.6 695.08,-117.6 702.08,-117.6"/>
</g>
<!-- 185&#45;&gt;0 -->
<g id="edge3" class="edge">
<title>185&#45;&gt;0</title>
<path fill="none" stroke="red" stroke-width="0.17" stroke-dasharray="1,5" d="M709.7,-67.71C716.07,-57.9 724.07,-45.56 730.71,-35.34"/>
<polygon fill="red" stroke="red" stroke-width="0.17" points="733.46,-37.53 735.96,-27.23 727.59,-33.72 733.46,-37.53"/>
</g>
<!-- 185&#45;&gt;2 -->
<g id="edge32" class="edge">
<title>185&#45;&gt;2</title>
<path fill="none" stroke="green" stroke-width="0.25" stroke-dasharray="1,5" d="M715.77,-74.01C735.26,-61.72 767.04,-41.69 787.88,-28.55"/>
<polygon fill="green" stroke="green" stroke-width="0.25" points="789.68,-31.55 796.28,-23.25 785.95,-25.63 789.68,-31.55"/>
</g>
<!-- 185&#45;&gt;3 -->
<g id="edge15" class="edge">
<title>185&#45;&gt;3</title>
<path fill="none" stroke="green" stroke-width="0.34" d="M717.83,-77.57C743.97,-67.5 791.99,-48.36 831.58,-28.99 832.57,-28.51 833.57,-28 834.58,-27.48"/>
<polygon fill="green" stroke="green" stroke-width="0.34" points="835.95,-30.72 843.07,-22.88 832.61,-24.57 835.95,-30.72"/>
</g>
<!-- 185&#45;&gt;4 -->
<g id="edge36" class="edge">
<title>185&#45;&gt;4</title>
<path fill="none" stroke="green" stroke-width="0.47" stroke-dasharray="1,5" d="M693.01,-65.53C690.64,-57.3 687.85,-47.63 685.36,-38.99"/>
<polygon fill="green" stroke="green" stroke-width="0.47" points="688.74,-38.11 682.61,-29.47 682.02,-40.05 688.74,-38.11"/>
</g>
<!-- 186&#45;&gt;1 -->
<g id="edge37" class="edge">
<title>186&#45;&gt;1</title>
<path fill="none" stroke="red" stroke-width="0.32" d="M220.09,-73.71C239.4,-61.42 270.44,-41.67 290.92,-28.64"/>
<polygon fill="red" stroke="red" stroke-width="0.32" points="292.55,-31.75 299.11,-23.43 288.79,-25.85 292.55,-31.75"/>
</g>
<!-- 187&#45;&gt;1 -->
<g id="edge8" class="edge">
<title>187&#45;&gt;1</title>
<path fill="none" stroke="red" stroke-width="0.12" d="M362.8,-70.14C352.62,-59.29 338.74,-44.47 327.99,-33.01"/>
<polygon fill="red" stroke="red" stroke-width="0.12" points="330.65,-30.72 321.26,-25.82 325.54,-35.51 330.65,-30.72"/>
</g>
<!-- 188&#45;&gt;0 -->
<g id="edge14" class="edge">
<title>188&#45;&gt;0</title>
<path fill="none" stroke="red" stroke-width="0.15" d="M838.08,-74.01C818.14,-61.67 785.59,-41.51 764.38,-28.37"/>
<polygon fill="red" stroke="red" stroke-width="0.15" points="766.32,-25.46 755.98,-23.17 762.63,-31.41 766.32,-25.46"/>
</g>
<!-- 188&#45;&gt;2 -->
<g id="edge25" class="edge">
<title>188&#45;&gt;2</title>
<path fill="none" stroke="red" stroke-width="0.48" d="M844.2,-68.06C837.63,-58.36 829.32,-46.09 822.37,-35.85"/>
<polygon fill="red" stroke="red" stroke-width="0.48" points="825.39,-34.06 816.88,-27.74 819.59,-37.98 825.39,-34.06"/>
</g>
<!-- 188&#45;&gt;3 -->
<g id="edge34" class="edge">
<title>188&#45;&gt;3</title>
<path fill="none" stroke="red" stroke-width="0.44" stroke-dasharray="1,5" d="M855.58,-64.79C855.58,-56.98 855.58,-47.96 855.58,-39.78"/>
<polygon fill="red" stroke="red" stroke-width="0.44" points="859.08,-40.03 855.58,-30.03 852.08,-40.03 859.08,-40.03"/>
</g>
</g>
</svg>
